<?xml version="1.0" encoding="utf-8"?>
<!-- Generator: Adobe Illustrator 26.0.2, SVG Export Plug-In . SVG Version: 6.00 Build 0)  -->
<svg version="1.1" id="Capa_1" xmlns="http://www.w3.org/2000/svg" xmlns:xlink="http://www.w3.org/1999/xlink" x="0px" y="0px"
	 viewBox="0 0 512 512" style="enable-background:new 0 0 512 512;" xml:space="preserve">
<style type="text/css">
	.st0{fill:#FFFFFF;}
</style>
<path class="st0" d="M397.7,274.3c-2.1,5-6.1,8.9-11.2,11c-10.2,4.1-22.5-1.2-26.6-11.4L327,190.8c-1.8-4.6-6.7-7.2-11.5-6.3
	c-4.8,0.9-8.3,5.1-8.3,10.1V471c0,11.3-9.2,20.5-20.5,20.5s-20.5-9.2-20.5-20.5V337.9c0-5.6-4.6-10.2-10.2-10.2s-10.2,4.6-10.2,10.2
	V471c0,11.3-9.2,20.5-20.5,20.5s-20.5-9.2-20.5-20.5V194.6c0-4.9-3.5-9.1-8.3-10.1c-4.8-0.9-9.6,1.7-11.4,6.3l-32.9,83.1
	c-2,5.1-5.9,9.1-11,11.2c-5,2.1-10.6,2.2-15.7,0.2c-5.1-2-9.1-5.9-11.2-11c-2.2-5-2.2-10.6-0.2-15.7l30.7-76.7
	c9.4-23.4,31.8-38.6,57-38.6h108.4c25.3,0,47.7,15.2,57,38.6l30.7,76.7C399.9,263.7,399.9,269.3,397.7,274.3 M204.8,71.7
	c0-28.2,23-51.2,51.2-51.2s51.2,23,51.2,51.2c0,28.2-23,51.2-51.2,51.2S204.8,99.9,204.8,71.7 M416.9,251l-30.7-76.7
	c-12.5-31.3-42.4-51.5-76.1-51.5H306c13.3-13,21.7-31.1,21.7-51.2C327.7,32.2,295.5,0,256,0s-71.7,32.2-71.7,71.7
	c0,20.1,8.3,38.2,21.7,51.2h-4.2c-33.7,0-63.6,20.2-76.1,51.5l-30.7,76.7c-4.1,10.1-3.9,21.3,0.4,31.4c4.3,10,12.3,17.8,22.4,21.9
	c10.2,4.1,21.3,3.9,31.3-0.4c10.1-4.3,17.9-12.3,21.9-22.5l13.2-33.2V471c0,22.6,18.4,41,41,41c12.2,0,23.2-5.4,30.7-13.9
	c7.5,8.5,18.5,13.9,30.7,13.9c22.6,0,41-18.4,41-41V248.2l13.2,33.2c8.2,20.5,32.8,31.1,53.2,22.8c10.2-4,18.1-11.8,22.4-21.9
	C420.8,272.3,421,261.2,416.9,251"/>
</svg>
