<?xml version="1.0" encoding="utf-8"?>
<!-- Generator: Adobe Illustrator 26.0.2, SVG Export Plug-In . SVG Version: 6.00 Build 0)  -->
<svg version="1.1" id="Layer_30" xmlns="http://www.w3.org/2000/svg" xmlns:xlink="http://www.w3.org/1999/xlink" x="0px" y="0px"
	 viewBox="0 0 496 496" style="enable-background:new 0 0 496 496;" xml:space="preserve">
<style type="text/css">
	.st0{fill:#FFFFFF;}
</style>
<path class="st0" d="M88,464c13.2,0,24-10.8,24-24s-10.8-24-24-24s-24,10.8-24,24S74.8,464,88,464z M88,432c4.4,0,8,3.6,8,8
	s-3.6,8-8,8s-8-3.6-8-8S83.6,432,88,432z M472,0H136c-13.2,0-24,10.8-24,24v320c0,13.2,10.8,24,24,24h267.1l-8,16H96V136
	c0-13.2-10.8-24-24-24H24c-13.2,0-24,10.8-24,24s10.8,24,24,24h56v48c-44.1,0-80,35.9-80,80s35.9,80,80,80v16.6
	c-27.1,3.9-48,27.3-48,55.4c0,30.9,25.1,56,56,56c28.2,0,51.5-20.9,55.4-48h113.4c-0.5,2.6-0.8,5.3-0.8,8c0,22.1,17.9,40,40,40
	s40-17.9,40-40s-17.9-40-40-40c-13.1,0-24.7,6.3-32,16H143.4c-1.8-12.5-7.7-23.6-16.3-32h277.8l16-32H472c13.2,0,24-10.8,24-24V24
	C496,10.8,485.2,0,472,0L472,0z M296,432c13.2,0,24,10.8,24,24s-10.8,24-24,24s-24-10.8-24-24S282.8,432,296,432z M24,144
	c-4.4,0-8-3.6-8-8s3.6-8,8-8h48c4.4,0,8,3.6,8,8v8H24z M16,288c0-5.5,0.7-10.9,2-16h30.5c-0.4,5.3-0.6,10.7-0.6,16s0.2,10.7,0.6,16
	H18C16.7,298.9,16,293.5,16,288z M64,288c0-5.5,0.2-10.8,0.6-16H80v32H64.6C64.2,298.8,64,293.5,64,288z M80,256H66.6
	c1.1-6,2.4-11.5,4-16.4c4.3-12.9,8.7-15.6,9.4-15.6V256z M57.9,227.9c-3.4,7.9-5.9,17.6-7.5,28.1H24.6
	C32.1,243.2,43.8,233.1,57.9,227.9z M24.6,320h25.8c1.6,10.5,4.1,20.2,7.5,28.1C43.8,342.9,32.1,332.8,24.6,320z M70.6,336.4
	c-1.6-4.9-3-10.4-4-16.4H80v32C79.3,352,74.9,349.3,70.6,336.4z M128,440c0,22.1-17.9,40-40,40s-40-17.9-40-40s17.9-40,40-40
	S128,417.9,128,440z M480,344c0,4.4-3.6,8-8,8H136c-4.4,0-8-3.6-8-8V24c0-4.4,3.6-8,8-8h336c4.4,0,8,3.6,8,8V344z M192,32h-48v48h48
	V32z M176,64h-16V48h16V64z M256,32h-48v48h48V32z M240,64h-16V48h16V64z M320,32h-48v48h48V32z M304,64h-16V48h16V64z M440,32h-64
	c-13.2,0-24,10.8-24,24s10.8,24,24,24h64c13.2,0,24-10.8,24-24S453.2,32,440,32z M440,64h-64c-4.4,0-8-3.6-8-8s3.6-8,8-8h64
	c4.4,0,8,3.6,8,8S444.4,64,440,64z M344,212.1V112h16V96H248v16h16v100.2c-3.8,2.6-7.3,5.5-10.6,8.7c-13.4,13.2-20.9,30.8-21.3,49.4
	c-0.6,26.3,13.2,50.8,36,64l12,7V296c0-13.2,10.8-24,24-24s24,10.8,24,24v45.3l12-7c22.2-12.9,36-36.7,36-62.3
	c0-19.4-7.6-37.6-21.5-51.3C351.3,217.5,347.7,214.6,344,212.1z M328,204.1c-5.1-1.8-10.5-3-16-3.6V112h16V204.1z M280,112h16v88.4
	c-5.5,0.6-10.9,1.9-16,3.7V112z M344,311.1V296c0-22.1-17.9-40-40-40s-40,17.9-40,40v15.2c-10.4-10.6-16.3-25.1-16-40.4
	c0.6-29.8,25.4-54.3,55.2-54.7c15.1-0.2,29.4,5.5,40.1,16.1c10.8,10.6,16.7,24.8,16.7,39.9C360,286.8,354.1,300.8,344,311.1
	L344,311.1z M376,176h88v-48h-88V176z M392,144h56v16h-56V144z M376,192h88v16h-88V192z M392,224h72v16h-72V224z M144,136h88v16h-88
	V136z M216,168h16v16h-16V168z M200,184h-56v-16h56V184z M144,200h88v16h-88V200z"/>
</svg>
