<?xml version="1.0" encoding="utf-8"?>
<!-- Generator: Adobe Illustrator 26.0.2, SVG Export Plug-In . SVG Version: 6.00 Build 0)  -->
<svg version="1.1" id="Layer_5" xmlns="http://www.w3.org/2000/svg" xmlns:xlink="http://www.w3.org/1999/xlink" x="0px" y="0px"
	 viewBox="0 0 64 64" style="enable-background:new 0 0 64 64;" xml:space="preserve">
<style type="text/css">
	.st0{fill:#FFFFFF;}
</style>
<path class="st0" d="M52,19.3V6c0-2.8-2.2-5-5-5H21c-2.8,0-5,2.2-5,5v11h-5.8l-0.6,2.4l-2.1-1.3l-5.3,5.3l1.3,2.1L1,26.2v7.6
	l2.4,0.6l-1.3,2.1l5.3,5.3l2.1-1.3l0.6,2.4H16v15c0,2.8,2.2,5,5,5h26c2.8,0,5-2.2,5-5V46.7c6.3-1.4,11-7,11-13.7S58.3,20.7,52,19.3z
	 M21,3h26c1.7,0,3,1.3,3,3v3H18V6C18,4.3,19.4,3,21,3z M16,34.6c-0.6,0.3-1.3,0.4-2,0.4c-2.8,0-5-2.2-5-5s2.2-5,5-5
	c0.7,0,1.4,0.1,2,0.4V34.6z M11.8,41l-0.5-2l-0.2-0.5l-1.1-0.5l-2.2,1.3l-3.1-3.1l1.3-2.2l-0.5-1.2L3,32.2v-4.4l2.4-0.6L5.9,26
	l-1.3-2.2l3.1-3.1L9.9,22l1.2-0.5l0.6-2.5H16v4.3c-0.6-0.2-1.3-0.3-2-0.3c-3.9,0-7,3.1-7,7s3.1,7,7,7c0.7,0,1.4-0.1,2-0.3V41H11.8z
	 M47,61H21c-1.6,0-3-1.3-3-3v-3h32v3C50,59.7,48.7,61,47,61z M50,53H18V11h32v8c-0.3,0-0.7,0-1,0s-0.7,0-1,0v-6H20v38h28v-4
	c0.3,0,0.7,0,1,0s0.7,0,1,0V53z M35.6,29H26V19h16v1.9C39,22.7,36.6,25.5,35.6,29z M24,17v14h11.2c-0.1,0.7-0.2,1.3-0.2,2
	c0,6.7,4.7,12.3,11,13.7V49H22V15h24v4.3c-0.7,0.1-1.3,0.4-2,0.6V17H24z M49,45c-3.6,0-6.8-1.6-9-4.1v-0.8c0-1.4,0.9-2.6,2.3-2.9
	l5.7-1.4v-2.9l-0.5-0.3C46.6,32,46,31.1,46,30v-1.8c0-1.7,1.2-3.1,2.7-3.2c0.9-0.1,1.7,0.2,2.3,0.8c0.6,0.6,1,1.4,1,2.2v2
	c0,1.1-0.6,2-1.5,2.6L50,32.9v2.9l5.7,1.4c1.3,0.3,2.3,1.5,2.3,2.9v0.8C55.8,43.4,52.6,45,49,45z M59.7,38.4
	c-0.6-1.5-1.8-2.7-3.5-3.1l-4.2-1V34c1.2-0.9,2-2.4,2-4v-2c0-1.4-0.6-2.7-1.6-3.7c-1-0.9-2.4-1.4-3.8-1.3C46,23.2,44,25.5,44,28.2
	V30c0,1.6,0.8,3,2,4v0.2l-4.2,1c-1.7,0.4-2.9,1.6-3.5,3.1C37.5,36.8,37,35,37,33c0-6.6,5.4-12,12-12s12,5.4,12,12
	C61,35,60.5,36.8,59.7,38.4z M40,7h-2V5h2V7z M36,7h-8V5h8V7z M30,57h8v2h-8V57z M44,57h2v2h-2V57z M22,57h2v2h-2V57z M24,33h9v2h-9
	V33z M24,37h9v2h-9V37z M24,41h9v2h-9V41z M24,45h9v2h-9V45z M56,13.2c-1.2,0.4-2,1.5-2,2.8c0,1.6,1.3,3,3,3s3-1.4,3-3
	c0-1.3-0.8-2.4-2-2.8V5h-2V13.2z M57,17c-0.5,0-1-0.5-1-1s0.5-1,1-1s1,0.4,1,1C58,16.5,57.5,17,57,17z M58,3h-2V1h2V3z M11,45
	c-1.6,0-3,1.3-3,3c0,1.3,0.8,2.4,2,2.8V59h2v-8.2c1.2-0.4,2-1.5,2-2.8C14,46.3,12.6,45,11,45z M11,49c-0.6,0-1-0.5-1-1s0.4-1,1-1
	s1,0.5,1,1S11.6,49,11,49z M10,61h2v2h-2V61z"/>
</svg>
