<?xml version="1.0" encoding="utf-8"?>
<!-- Generator: Adobe Illustrator 26.0.2, SVG Export Plug-In . SVG Version: 6.00 Build 0)  -->
<svg version="1.1" id="_x33_0" xmlns="http://www.w3.org/2000/svg" xmlns:xlink="http://www.w3.org/1999/xlink" x="0px" y="0px"
	 viewBox="0 0 64 64" style="enable-background:new 0 0 64 64;" xml:space="preserve">
<style type="text/css">
	.st0{fill:#FFFFFF;}
</style>
<path class="st0" d="M39,23h2v2h-2V23z M35,25h2v-2h-2V25z M31,25h2v-2h-2V25z M1,61V43c0-1.1,0.9-2,2-2h2V31h2v10h6
	c1.1,0,2,0.9,2,2v18c0,1.1-0.9,2-2,2H3C1.9,63,1,62.1,1,61z M3,61h10V43H3V61z M5,59h2v-2H5V59z M9,59h2v-2H9V59z M5,55h6v-2H5V55z
	 M5,51h6v-2H5V51z M5,47h6v-2H5V47z M7,27H5v2h2V27z M7,23H5v2h2V23z M7,21H5V6c0-1.7,1.3-3,3-3h11c0-1.1,0.9-2,2-2h22
	c1.1,0,2,0.9,2,2h11c1.7,0,3,1.3,3,3v15h-2V6c0-0.6-0.5-1-1-1H45v8.1c3.8,3.3,6,8,6,13c0,4-1.4,7.9-4,11l-3.5,4.2
	c-1.6,2-2.5,4.5-2.5,7V51H23v-2.7c0-2.6-0.9-5.1-2.5-7L17,37.1c-2.6-3.1-4-7-4-11c0-5,2.2-9.7,6-13V5H8C7.4,5,7,5.4,7,6V21z M35,5v4
	h2V3H27v6h2V5h2v4h2V5H35z M21,27h22V3h-4v6c0,1.1-0.9,2-2,2H27c-1.1,0-2-0.9-2-2V3h-4V27z M21,29c-1.1,0-2-0.9-2-2V15.9
	c-2.5,2.8-4,6.4-4,10.2c0,3.5,1.2,7,3.5,9.7L22,40c1.9,2.3,3,5.3,3,8.3V49h14v-0.7c0-3,1.1-6,3-8.3l3.5-4.2c2.3-2.7,3.5-6.2,3.5-9.7
	c0-3.8-1.5-7.5-4-10.2V27c0,1.1-0.9,2-2,2H33v16h2v-8c0-2.2,1.8-4,4-4v2c-1.1,0-2,0.9-2,2v10H27V35c0-1.1-0.9-2-2-2v-2
	c2.2,0,4,1.8,4,4v10h2V29H21z M59,33.1c2.3,0.5,4,2.5,4,4.9v16.2l-2.7,7.2C59.9,62.4,59,63,58,63s-1.9-0.6-2.3-1.6l0,0L53,54.2V38
	c0-2.4,1.7-4.4,4-4.9V31h2V33.1z M56.2,57h3.6l0.8-2h-5.1L56.2,57z M57,53v-8h-2v8H57z M61,53v-8h-2v8H61z M61,43v-2h-6v2H61z
	 M58.4,60.7l0.6-1.7h-2.1l0.6,1.7C57.7,61.1,58.3,61.1,58.4,60.7z M58,35c-1.7,0-3,1.3-3,3v1h6v-1C61,36.3,59.7,35,58,35z M57,29h2
	v-2h-2V29z M59,23h-2v2h2V23z M23,53h18v1c0,5-4,9-9,9s-9-4-9-9V53z M25.1,55c0.5,3.4,3.4,6,6.9,6s6.4-2.6,6.9-6H25.1z"/>
</svg>
