<?xml version="1.0" encoding="utf-8"?>
<!-- Generator: Adobe Illustrator 26.0.2, SVG Export Plug-In . SVG Version: 6.00 Build 0)  -->
<svg version="1.1" id="Layer_1" xmlns="http://www.w3.org/2000/svg" xmlns:xlink="http://www.w3.org/1999/xlink" x="0px" y="0px"
	 viewBox="0 0 450 450" style="enable-background:new 0 0 450 450;" xml:space="preserve">
<style type="text/css">
	.st0{fill:#FFFFFF;}
</style>
<path class="st0" d="M146,226.9H93c-10.9,0-19.8-8.9-19.8-19.8v-53c0-10.9,8.9-19.8,19.8-19.8h53c10.9,0,19.8,8.9,19.8,19.8v53
	C165.8,218,157,226.9,146,226.9z M93,144.2c-5.4,0-9.8,4.4-9.8,9.8v53c0,5.4,4.4,9.8,9.8,9.8h53c5.4,0,9.8-4.4,9.8-9.8V154
	c0-5.4-4.4-9.8-9.8-9.8L93,144.2z M146,406.5H93c-10.9,0-19.8-8.9-19.8-19.8v-53c0-10.9,8.9-19.8,19.8-19.8h53
	c10.9,0,19.8,8.9,19.8,19.8v53C165.8,397.6,157,406.5,146,406.5z M93,323.8c-5.4,0-9.8,4.4-9.8,9.8v53c0,5.4,4.4,9.8,9.8,9.8h53
	c5.4,0,9.8-4.4,9.8-9.8v-53c0-5.4-4.4-9.8-9.8-9.8H93z M357.5,226.9h-53c-10.9,0-19.8-8.9-19.8-19.8v-53c0-10.9,8.9-19.8,19.8-19.8
	h53c10.9,0,19.8,8.9,19.8,19.8v53C377.3,218,368.5,226.9,357.5,226.9L357.5,226.9z M304.5,144.2c-5.4,0-9.8,4.4-9.8,9.8v53
	c0,5.4,4.4,9.8,9.8,9.8h53c5.4,0,9.8-4.4,9.8-9.8V154c0-5.4-4.4-9.8-9.8-9.8L304.5,144.2z M265.1,331.1h-53
	c-10.9,0-19.8-8.9-19.8-19.8v-53c0-10.9,8.9-19.8,19.8-19.8h53c10.9,0,19.8,8.9,19.8,19.8v53C284.9,322.2,276,331.1,265.1,331.1z
	 M212,248.4c-5.4,0-9.8,4.4-9.8,9.8v53c0,5.4,4.4,9.8,9.8,9.8h53c5.4,0,9.8-4.4,9.8-9.8v-53c0-5.4-4.4-9.8-9.8-9.8H212z
	 M289.7,185.6H160.8c-2.8,0-5-2.2-5-5s2.2-5,5-5h128.8c2.8,0,5,2.2,5,5S292.4,185.6,289.7,185.6z M279.6,288.8c-2.8,0-5-2.2-5-5
	c0-2.8,2.2-5,5-5l46.4-0.2v-56.7c0-2.8,2.2-5,5-5s5,2.2,5,5v61.6c0,2.8-2.2,5-5,5L279.6,288.8C279.6,288.8,279.6,288.8,279.6,288.8z
	 M119.5,323.8c-2.8,0-5-2.2-5-5v-31.6c0-2.8,2.2-5,5-5h77.7c2.8,0,5,2.2,5,5s-2.2,5-5,5h-72.7v26.6
	C124.5,321.6,122.3,323.8,119.5,323.8z M418.1,436.2H32.4c-15.5,0-28.1-12.6-28.1-28.1V43.4c0-15.5,12.6-28.1,28.1-28.1h385.8
	c15.5,0,28.1,12.6,28.1,28.1v364.7C446.3,423.6,433.6,436.2,418.1,436.2z M32.4,25.2c-10,0-18.1,8.1-18.1,18.1v364.7
	c0,10,8.1,18.1,18.1,18.1h385.8c10,0,18.1-8.1,18.1-18.1V43.4c0-10-8.1-18.1-18.1-18.1L32.4,25.2z M441.3,112.5H9.3
	c-2.8,0-5-2.2-5-5s2.2-5,5-5h432c2.8,0,5,2.2,5,5S444,112.5,441.3,112.5z M64.7,85.8c-12.1,0-21.9-9.8-21.9-21.9
	c0-12.1,9.8-21.9,21.9-21.9c12.1,0,21.9,9.8,21.9,21.9C86.6,75.9,76.7,85.8,64.7,85.8z M64.7,52c-6.6,0-11.9,5.3-11.9,11.9
	s5.3,11.9,11.9,11.9s11.9-5.3,11.9-11.9S71.2,52,64.7,52z M126.9,85.8c-12.1,0-21.9-9.8-21.9-21.9c0-12.1,9.8-21.9,21.9-21.9
	c12.1,0,21.9,9.8,21.9,21.9S139,85.8,126.9,85.8z M126.9,52c-6.6,0-11.9,5.3-11.9,11.9s5.3,11.9,11.9,11.9s11.9-5.3,11.9-11.9
	S133.5,52,126.9,52z M189.1,85.8c-12.1,0-21.9-9.8-21.9-21.9c0-12.1,9.8-21.9,21.9-21.9S211,51.8,211,63.9S201.2,85.8,189.1,85.8z
	 M189.1,52c-6.6,0-11.9,5.3-11.9,11.9s5.3,11.9,11.9,11.9S201,70.4,201,63.9S195.7,52,189.1,52z M341.4,68.9H239.9c-2.8,0-5-2.2-5-5
	s2.2-5,5-5h101.4c2.8,0,5,2.2,5,5C346.4,66.6,344.1,68.9,341.4,68.9z M402.8,68.9h-28c-2.8,0-5-2.2-5-5s2.2-5,5-5h28
	c2.8,0,5,2.2,5,5C407.8,66.6,405.5,68.9,402.8,68.9z M388.8,82.9c-2.8,0-5-2.2-5-5v-28c0-2.8,2.2-5,5-5s5,2.2,5,5v28
	C393.8,80.6,391.5,82.9,388.8,82.9z"/>
</svg>
