<?xml version="1.0" encoding="utf-8"?>
<!-- Generator: Adobe Illustrator 26.0.2, SVG Export Plug-In . SVG Version: 6.00 Build 0)  -->
<svg version="1.1" id="Layer_5" xmlns="http://www.w3.org/2000/svg" xmlns:xlink="http://www.w3.org/1999/xlink" x="0px" y="0px"
	 viewBox="0 0 64 64" style="enable-background:new 0 0 64 64;" xml:space="preserve">
<style type="text/css">
	.st0{fill:#FFFFFF;}
</style>
<path class="st0" d="M36,37c-5,0-9,4-9,9s4,9,9,9s9-4,9-9S41,37,36,37z M34.4,49c-0.2-0.6-0.3-1.3-0.4-2H38c-0.1,0.7-0.2,1.4-0.4,2
	H34.4z M36.8,51c-0.3,0.6-0.6,1-0.8,1.4c-0.2-0.4-0.5-0.8-0.8-1.4H36.8z M34,45c0.1-0.7,0.2-1.4,0.4-2h3.2c0.2,0.6,0.3,1.3,0.4,2H34
	z M35.2,41c0.3-0.6,0.6-1,0.8-1.4c0.2,0.4,0.5,0.8,0.8,1.4H35.2z M33,41h-1.9c0.8-0.7,1.7-1.3,2.7-1.6C33.5,39.8,33.2,40.4,33,41z
	 M32.3,43c-0.2,0.6-0.3,1.3-0.3,2h-3c0.1-0.7,0.3-1.4,0.6-2H32.3z M32,47c0,0.7,0.2,1.4,0.3,2h-2.7c-0.3-0.6-0.5-1.3-0.6-2H32z
	 M33,51c0.2,0.6,0.5,1.2,0.8,1.6c-1-0.3-1.9-0.9-2.7-1.6H33z M39,51h1.9c-0.8,0.7-1.7,1.3-2.7,1.6C38.5,52.2,38.8,51.6,39,51z
	 M39.7,49c0.2-0.6,0.3-1.3,0.3-2h3c-0.1,0.7-0.3,1.4-0.6,2H39.7z M40,45c0-0.7-0.2-1.4-0.3-2h2.7c0.3,0.6,0.5,1.3,0.6,2H40z M39,41
	c-0.2-0.6-0.5-1.2-0.8-1.6c1,0.3,1.9,0.9,2.7,1.6H39z M62.1,49.3L51,47.5V45h9c1.7,0,3-1.3,3-3V4c0-1.7-1.3-3-3-3H4C2.3,1,1,2.3,1,4
	v38c0,1.7,1.3,3,3,3h17v11c0,1.7,1.4,3,3,3h24.8l0.5,3.1l3.7-3.7l5,5l5.4-5.4l-5-5L62.1,49.3z M4,3h56c0.5,0,1,0.5,1,1v9H3V4
	C3,3.5,3.5,3,4,3z M4,43c-0.5,0-1-0.5-1-1V15h58v27c0,0.5-0.5,1-1,1h-9v-7c0-1.7-1.3-3-3-3H24c-1.6,0-3,1.3-3,3v7H4z M24,57
	c-0.5,0-1-0.5-1-1V36c0-0.5,0.5-1,1-1h24c0.5,0,1,0.5,1,1v11.2l-2.2-0.4L48.5,57H24z M60.6,58L58,60.6l-5-5l-2.3,2.3l-1.5-8.7
	l8.7,1.5L55.6,53L60.6,58z M11,5H5v6h6V5z M9,9H7V7h2V9z M19,5h-6v6h6V5z M17,9h-2V7h2V9z M27,5h-6v6h6V5z M25,9h-2V7h2V9z M59,17
	H33v14h26V17z M57,29H35V19h22V29z M7,19H5v-2h2V19z M31,19H9v-2h22V19z M31,23H5v-2h26V23z M7,27H5v-2h2V27z M9,27v-2h2v2H9z
	 M13,25h18v2H13V25z M29,29h2v2h-2V29z M27,31H5v-2h22V31z M5,41h14v-8H5V41z M7,35h10v4H7V35z M27,39h-2v-2h2V39z M47,39h-2v-2h2
	V39z M25,53h2v2h-2V53z"/>
</svg>
