<?xml version="1.0" encoding="utf-8"?>
<!-- Generator: Adobe Illustrator 26.0.2, SVG Export Plug-In . SVG Version: 6.00 Build 0)  -->
<svg version="1.1" id="Layer_1" xmlns="http://www.w3.org/2000/svg" xmlns:xlink="http://www.w3.org/1999/xlink" x="0px" y="0px"
	 viewBox="0 0 1245 300" style="enable-background:new 0 0 1245 300;" xml:space="preserve">
<g>
	<g>
		<path style="fill:#EBF3FA;" d="M1071.94,19.71c-73.56,0-139.98,16.46-187.27,42.9c-15.38-1.59-30.94-2.39-46.53-2.38
			c-30.81-0.04-61.43,3.11-90.59,9.33c-42.5-22.62-100.92-36.58-165.4-36.58c-52.74,0-101.44,9.34-140.68,25.14
			C387.09,22.63,304.82,0,212.74,0C49,0.02-3.22,74.67-3.22,162.87s57.1,135.93,220.84,135.93c92.08,0,827.41,0.36,854.32,0.94
			c216.93,4.63,166.78-51.34,166.78-128.69S1215.49,19.71,1071.94,19.71z"/>
		<path style="fill:none;stroke:#FC5852;stroke-miterlimit:10;" d="M143.03,43.67v-7.44c0-0.35,0.14-0.69,0.39-0.93
			c0.25-0.25,0.58-0.39,0.94-0.39h1.91c0.28,0.01,0.56-0.08,0.78-0.25c0.22-0.17,0.38-0.42,0.44-0.69c0.65-2.84,1.76-5.56,3.3-8.04
			c0.15-0.23,0.21-0.51,0.19-0.79c-0.03-0.28-0.15-0.53-0.34-0.73l-1.32-1.32c-0.24-0.25-0.38-0.58-0.38-0.93s0.14-0.68,0.38-0.93
			l5.25-5.29c0.25-0.25,0.58-0.38,0.93-0.38c0.35,0,0.68,0.14,0.93,0.38l1.32,1.32c0.2,0.19,0.46,0.32,0.74,0.35
			c0.28,0.03,0.56-0.04,0.79-0.19c2.48-1.53,5.19-2.64,8.04-3.29c0.26-0.06,0.5-0.22,0.67-0.43c0.17-0.21,0.26-0.48,0.26-0.75v-1.9
			c0-0.35,0.14-0.69,0.39-0.93c0.25-0.25,0.58-0.39,0.94-0.39h7.44c0.35,0,0.69,0.14,0.93,0.39c0.25,0.25,0.39,0.58,0.39,0.93v1.9
			c0,0.27,0.08,0.53,0.24,0.74c0.16,0.21,0.39,0.37,0.65,0.44c2.85,0.65,5.56,1.76,8.04,3.3c0.23,0.15,0.51,0.21,0.79,0.18
			c0.28-0.03,0.53-0.15,0.73-0.35l1.32-1.32c0.25-0.25,0.58-0.38,0.93-0.38c0.35,0,0.68,0.14,0.93,0.38l5.25,5.29
			c0.24,0.25,0.38,0.58,0.38,0.93c0,0.35-0.14,0.68-0.38,0.93l-1.32,1.32c-0.2,0.2-0.32,0.46-0.35,0.73
			c-0.03,0.28,0.04,0.55,0.19,0.79c1.54,2.47,2.65,5.19,3.3,8.02c0.06,0.26,0.21,0.5,0.43,0.67c0.21,0.17,0.48,0.26,0.75,0.26h1.91
			c0.35,0,0.69,0.14,0.93,0.39c0.25,0.25,0.39,0.58,0.39,0.93v7.44c0,0.35-0.14,0.69-0.39,0.93c-0.25,0.25-0.58,0.39-0.93,0.39
			h-1.91c-0.27,0-0.54,0.09-0.75,0.26c-0.21,0.17-0.36,0.41-0.42,0.67c-0.65,2.84-1.77,5.56-3.3,8.04
			c-0.15,0.23-0.21,0.51-0.19,0.79c0.03,0.28,0.15,0.53,0.34,0.73l1.32,1.32c0.25,0.25,0.38,0.58,0.38,0.93
			c0,0.35-0.14,0.68-0.38,0.93l-5.25,5.29c-0.25,0.25-0.58,0.38-0.93,0.38c-0.35,0-0.68-0.14-0.93-0.38l-1.32-1.32
			c-0.2-0.2-0.45-0.32-0.73-0.35c-0.28-0.03-0.56,0.04-0.79,0.19c-2.48,1.54-5.19,2.66-8.04,3.3c-0.27,0.06-0.5,0.22-0.67,0.43
			c-0.17,0.21-0.26,0.48-0.26,0.75v1.92c0,0.35-0.14,0.69-0.39,0.93c-0.25,0.25-0.58,0.39-0.93,0.39h-7.45
			c-0.35,0-0.69-0.14-0.94-0.39s-0.39-0.58-0.39-0.93v-1.92c0-0.27-0.09-0.54-0.26-0.75c-0.17-0.21-0.4-0.37-0.67-0.43
			c-2.84-0.65-5.56-1.76-8.04-3.3c-0.23-0.15-0.51-0.21-0.79-0.19c-0.28,0.03-0.53,0.15-0.73,0.34l-1.32,1.32
			c-0.25,0.25-0.58,0.38-0.93,0.38c-0.35,0-0.68-0.14-0.93-0.38l-5.25-5.29c-0.25-0.25-0.38-0.58-0.38-0.93
			c0-0.35,0.14-0.68,0.38-0.93l1.32-1.32c0.19-0.2,0.32-0.46,0.35-0.74c0.03-0.28-0.04-0.56-0.19-0.79
			c-1.54-2.48-2.66-5.19-3.3-8.03c-0.06-0.27-0.21-0.5-0.43-0.67c-0.21-0.17-0.48-0.26-0.75-0.26h-1.91c-0.35,0-0.68-0.14-0.93-0.38
			C143.18,44.35,143.04,44.02,143.03,43.67L143.03,43.67z M173.26,60.92c4.15,0,8.2-1.23,11.65-3.53c3.45-2.3,6.14-5.57,7.72-9.4
			c1.59-3.83,2-8.04,1.2-12.11c-0.81-4.07-2.8-7.8-5.73-10.73c-2.93-2.93-6.66-4.93-10.73-5.74c-4.07-0.81-8.28-0.4-12.11,1.19
			c-3.83,1.59-7.1,4.27-9.41,7.72c-2.3,3.45-3.53,7.5-3.54,11.64c0,2.75,0.54,5.48,1.59,8.02c1.05,2.54,2.6,4.85,4.54,6.8
			c1.95,1.95,4.26,3.49,6.8,4.55C167.78,60.37,170.51,60.92,173.26,60.92L173.26,60.92z"/>
		<path style="fill:#FC5852;" d="M108.84,68.84v-5.07c0-0.12,0.02-0.23,0.07-0.34c0.04-0.11,0.11-0.21,0.19-0.29
			c0.08-0.08,0.18-0.15,0.29-0.19c0.11-0.05,0.23-0.07,0.34-0.07h1.32c0.19,0,0.37-0.06,0.51-0.17c0.15-0.11,0.25-0.27,0.29-0.45
			c0.44-1.94,1.21-3.79,2.26-5.48c0.1-0.16,0.15-0.35,0.12-0.54c-0.02-0.19-0.1-0.36-0.24-0.5l-0.91-0.92
			c-0.08-0.08-0.15-0.18-0.19-0.29s-0.07-0.22-0.07-0.34s0.02-0.23,0.07-0.34s0.11-0.21,0.19-0.29l3.58-3.58
			c0.17-0.17,0.4-0.26,0.63-0.26s0.47,0.09,0.63,0.26l0.92,0.91c0.13,0.13,0.31,0.22,0.5,0.24c0.19,0.02,0.38-0.02,0.54-0.12
			c1.69-1.05,3.54-1.82,5.48-2.26c0.19-0.04,0.35-0.14,0.48-0.28c0.12-0.15,0.19-0.33,0.19-0.52V46.6c0-0.24,0.09-0.47,0.26-0.64
			c0.17-0.17,0.4-0.26,0.64-0.26h5.06c0.24,0,0.47,0.09,0.64,0.26c0.17,0.17,0.26,0.4,0.26,0.64v1.32c0,0.19,0.07,0.37,0.19,0.52
			c0.12,0.15,0.29,0.25,0.48,0.28c1.94,0.44,3.79,1.2,5.48,2.25c0.16,0.1,0.35,0.15,0.54,0.13c0.19-0.02,0.37-0.1,0.5-0.24
			l0.91-0.91c0.17-0.17,0.4-0.26,0.63-0.26s0.47,0.09,0.63,0.26l3.58,3.58c0.08,0.08,0.15,0.18,0.19,0.29
			c0.04,0.11,0.07,0.22,0.07,0.34s-0.02,0.23-0.07,0.34c-0.04,0.11-0.11,0.21-0.19,0.29l-1.02,0.92c-0.13,0.14-0.21,0.31-0.23,0.5
			c-0.02,0.19,0.03,0.38,0.13,0.54c1.05,1.69,1.81,3.54,2.25,5.48c0.04,0.18,0.15,0.34,0.29,0.45c0.15,0.11,0.33,0.18,0.51,0.17
			h1.32c0.12,0,0.23,0.02,0.34,0.07c0.11,0.04,0.21,0.11,0.29,0.19c0.08,0.08,0.15,0.18,0.19,0.29c0.04,0.11,0.07,0.23,0.07,0.34
			v5.07c0,0.12-0.02,0.23-0.07,0.34c-0.04,0.11-0.11,0.21-0.19,0.29c-0.08,0.08-0.18,0.15-0.29,0.19c-0.11,0.04-0.23,0.07-0.34,0.07
			h-1.32c-0.19,0-0.37,0.07-0.52,0.19c-0.15,0.12-0.25,0.29-0.29,0.47c-0.44,1.94-1.2,3.79-2.25,5.48c-0.1,0.16-0.15,0.35-0.13,0.53
			c0.02,0.19,0.1,0.36,0.24,0.5l0.92,0.92c0.17,0.17,0.26,0.4,0.26,0.63c0,0.24-0.09,0.47-0.26,0.63l-3.56,3.56
			c-0.17,0.17-0.4,0.26-0.63,0.26c-0.24,0-0.47-0.09-0.63-0.26L140,81.73c-0.13-0.13-0.31-0.22-0.5-0.24
			c-0.19-0.02-0.38,0.03-0.54,0.13c-1.69,1.05-3.54,1.81-5.47,2.25c-0.19,0.04-0.35,0.14-0.48,0.28c-0.12,0.15-0.19,0.33-0.19,0.52
			v1.32c0,0.24-0.09,0.47-0.26,0.64c-0.17,0.17-0.4,0.26-0.64,0.26h-5.06c-0.24,0-0.47-0.09-0.64-0.26
			c-0.17-0.17-0.26-0.4-0.26-0.64v-1.32c0-0.19-0.06-0.37-0.19-0.52c-0.12-0.15-0.29-0.25-0.48-0.28c-1.94-0.44-3.79-1.21-5.48-2.25
			c-0.16-0.1-0.35-0.15-0.54-0.13c-0.19,0.02-0.37,0.1-0.5,0.24l-0.92,0.92c-0.17,0.17-0.4,0.26-0.63,0.26
			c-0.24,0-0.47-0.09-0.63-0.26l-3.5-3.58c-0.17-0.17-0.26-0.4-0.26-0.63c0-0.24,0.09-0.47,0.26-0.63l0.92-0.92
			c0.13-0.13,0.22-0.31,0.24-0.5c0.02-0.19-0.02-0.38-0.12-0.54c-1.05-1.69-1.82-3.54-2.26-5.47c-0.04-0.19-0.14-0.35-0.28-0.47
			c-0.15-0.12-0.33-0.19-0.52-0.19h-1.32c-0.12,0-0.23-0.02-0.34-0.06c-0.11-0.04-0.21-0.1-0.29-0.19c-0.09-0.08-0.15-0.18-0.2-0.28
			C108.87,69.08,108.84,68.96,108.84,68.84z M129.42,79.79c2.67,0,5.27-0.79,7.49-2.27c2.22-1.48,3.95-3.58,4.97-6.05
			c1.02-2.46,1.29-5.17,0.77-7.79c-0.52-2.61-1.8-5.02-3.68-6.9c-1.88-1.89-4.28-3.17-6.9-3.69c-2.61-0.52-5.32-0.26-7.79,0.76
			c-2.46,1.02-4.57,2.75-6.05,4.96c-1.48,2.22-2.27,4.82-2.28,7.49c0,1.77,0.35,3.52,1.02,5.16c0.68,1.64,1.67,3.12,2.92,4.38
			c1.25,1.25,2.74,2.25,4.37,2.92C125.9,79.44,127.65,79.79,129.42,79.79L129.42,79.79z"/>
		<path style="fill:#FF5A4E;" d="M283.95,48.95c0,0.31,0.09,0.61,0.26,0.86c0.17,0.26,0.41,0.45,0.69,0.57
			c0.28,0.12,0.59,0.15,0.89,0.09c0.3-0.06,0.58-0.21,0.79-0.42c0.22-0.22,0.36-0.49,0.42-0.79c0.06-0.3,0.03-0.61-0.09-0.89
			c-0.12-0.28-0.32-0.52-0.57-0.69c-0.26-0.17-0.56-0.26-0.86-0.26c-0.41,0-0.8,0.16-1.09,0.45
			C284.11,48.15,283.95,48.54,283.95,48.95L283.95,48.95z"/>
		<path style="fill:#FF5A4E;" d="M241.61,44.71c1.36,0,2.46-1.1,2.46-2.46c0-1.36-1.1-2.46-2.46-2.46c-1.36,0-2.46,1.1-2.46,2.46
			C239.15,43.61,240.25,44.71,241.61,44.71z"/>
		<path style="fill:#FFFFFF;" d="M323.78,64.3h4.13c0.27,0,0.48-0.22,0.48-0.48v-4.13c0-0.27-0.22-0.48-0.48-0.48h-4.13
			c-0.27,0-0.48,0.22-0.48,0.48v4.13C323.3,64.09,323.51,64.3,323.78,64.3z"/>
		<path style="fill:#FFFFFF;" d="M316.96,64.3h4.13c0.27,0,0.48-0.22,0.48-0.48v-4.13c0-0.27-0.22-0.48-0.48-0.48h-4.13
			c-0.27,0-0.48,0.22-0.48,0.48v4.13C316.48,64.09,316.69,64.3,316.96,64.3z"/>
		<path style="fill:#FFFFFF;" d="M310.15,64.3h4.13c0.27,0,0.48-0.22,0.48-0.48v-4.13c0-0.27-0.22-0.48-0.48-0.48h-4.13
			c-0.27,0-0.48,0.22-0.48,0.48v4.13C309.67,64.09,309.88,64.3,310.15,64.3z"/>
		<path style="fill:none;stroke:#FFFFFF;stroke-miterlimit:10;" d="M798.99,0h41.11c1.27,0,2.48,0.5,3.37,1.4
			c0.9,0.89,1.4,2.11,1.4,3.37v9.71c0,1.16-0.42,2.28-1.19,3.15c-0.77,0.87-1.83,1.43-2.98,1.58c-0.17,0.03-0.32,0.11-0.43,0.24
			c-0.11,0.13-0.17,0.29-0.17,0.47v5.32c0,0.07-0.02,0.13-0.06,0.18c-0.04,0.05-0.09,0.09-0.16,0.11c-0.06,0.02-0.13,0.02-0.19,0
			c-0.06-0.02-0.12-0.06-0.16-0.11l-4.19-5.86c-0.06-0.09-0.15-0.16-0.25-0.21c-0.1-0.05-0.21-0.08-0.32-0.08h-35.79
			c-1.26,0-2.48-0.5-3.37-1.4c-0.9-0.89-1.4-2.11-1.4-3.37V4.77c0-1.27,0.5-2.48,1.4-3.37C796.51,0.5,797.72,0,798.99,0L798.99,0z"
			/>
		<path style="fill:none;stroke:#FFFFFF;stroke-miterlimit:10;" d="M743.58,52.11c0,0.38,0.11,0.76,0.33,1.08
			c0.21,0.32,0.52,0.57,0.87,0.71c0.35,0.15,0.74,0.18,1.12,0.11c0.38-0.08,0.72-0.26,0.99-0.53c0.27-0.27,0.46-0.62,0.53-0.99
			c0.07-0.38,0.03-0.77-0.11-1.12c-0.15-0.35-0.4-0.66-0.72-0.87c-0.32-0.21-0.69-0.32-1.08-0.32c-0.25,0-0.51,0.05-0.74,0.15
			c-0.24,0.1-0.45,0.24-0.63,0.42c-0.18,0.18-0.32,0.39-0.42,0.63C743.63,51.61,743.58,51.86,743.58,52.11L743.58,52.11z"/>
		<path style="fill:none;stroke:#FFFFFF;stroke-miterlimit:10;" d="M733.85,52.11c0,0.38,0.11,0.76,0.33,1.08
			c0.21,0.32,0.52,0.57,0.87,0.71c0.35,0.15,0.74,0.19,1.12,0.11c0.38-0.07,0.72-0.26,0.99-0.53c0.27-0.27,0.46-0.62,0.53-0.99
			c0.07-0.38,0.04-0.77-0.11-1.12c-0.15-0.35-0.39-0.66-0.71-0.87s-0.69-0.33-1.08-0.33c-0.25,0-0.51,0.05-0.74,0.15
			c-0.24,0.1-0.45,0.24-0.63,0.42c-0.18,0.18-0.32,0.39-0.42,0.63C733.9,51.61,733.85,51.86,733.85,52.11L733.85,52.11z"/>
		<path style="fill:none;stroke:#FFFFFF;stroke-miterlimit:10;" d="M724.12,52.11c0,0.38,0.11,0.76,0.33,1.08
			c0.21,0.32,0.52,0.57,0.87,0.71c0.35,0.15,0.74,0.18,1.12,0.11c0.38-0.08,0.72-0.26,0.99-0.53c0.27-0.27,0.45-0.62,0.53-0.99
			c0.07-0.38,0.03-0.77-0.11-1.12c-0.15-0.35-0.4-0.66-0.72-0.87c-0.32-0.21-0.69-0.32-1.08-0.32c-0.25,0-0.51,0.05-0.74,0.15
			c-0.23,0.1-0.45,0.24-0.63,0.42c-0.18,0.18-0.32,0.39-0.42,0.63C724.17,51.61,724.12,51.86,724.12,52.11z"/>
		<path style="fill:none;stroke:#FFFFFF;stroke-miterlimit:10;" d="M714.39,52.11c0,0.38,0.11,0.76,0.33,1.08
			c0.21,0.32,0.52,0.57,0.87,0.71c0.35,0.15,0.74,0.18,1.12,0.11c0.38-0.08,0.72-0.26,0.99-0.53c0.27-0.27,0.45-0.62,0.53-0.99
			c0.07-0.38,0.03-0.77-0.11-1.12c-0.15-0.35-0.4-0.66-0.72-0.87c-0.32-0.21-0.69-0.32-1.08-0.32c-0.25,0-0.51,0.05-0.74,0.15
			c-0.23,0.1-0.45,0.24-0.63,0.42c-0.18,0.18-0.32,0.39-0.42,0.63C714.43,51.61,714.39,51.86,714.39,52.11L714.39,52.11z"/>
		<path style="fill:none;stroke:#FFFFFF;stroke-miterlimit:10;" d="M704.65,52.11c0,0.38,0.11,0.76,0.33,1.08
			c0.21,0.32,0.52,0.57,0.87,0.71c0.35,0.15,0.74,0.19,1.12,0.11c0.38-0.07,0.72-0.26,0.99-0.53c0.27-0.27,0.46-0.62,0.53-0.99
			c0.07-0.38,0.04-0.77-0.11-1.12c-0.15-0.35-0.4-0.66-0.71-0.87c-0.32-0.21-0.69-0.33-1.08-0.33c-0.26,0-0.51,0.05-0.74,0.15
			c-0.24,0.1-0.45,0.24-0.63,0.42c-0.18,0.18-0.32,0.39-0.42,0.63C704.7,51.61,704.65,51.86,704.65,52.11z"/>
		<path style="fill:none;stroke:#FFFFFF;stroke-miterlimit:10;" d="M1037.71,53.31h-41.11c-1.26,0-2.48,0.5-3.37,1.4
			c-0.9,0.9-1.4,2.11-1.4,3.37v9.71c0,1.16,0.42,2.28,1.19,3.16s1.83,1.43,2.98,1.58c0.17,0.03,0.32,0.11,0.43,0.24
			c0.11,0.13,0.17,0.3,0.17,0.47v5.32c0,0.07,0.01,0.14,0.06,0.19c0.04,0.06,0.09,0.1,0.16,0.12c0.06,0.02,0.13,0.02,0.2,0
			c0.06-0.02,0.12-0.07,0.16-0.12l4.19-5.85c0.06-0.09,0.15-0.16,0.25-0.21c0.1-0.05,0.2-0.08,0.32-0.08h35.79
			c1.26,0,2.48-0.5,3.37-1.4c0.9-0.89,1.4-2.11,1.4-3.37v-9.74c0-1.27-0.5-2.48-1.4-3.37C1040.18,53.81,1038.97,53.31,1037.71,53.31
			z"/>
		<path style="fill:none;stroke:#FFFFFF;stroke-miterlimit:10;" d="M1002.89,62.92c0,0.31-0.09,0.62-0.26,0.88
			c-0.18,0.26-0.42,0.46-0.71,0.58c-0.29,0.12-0.61,0.15-0.91,0.09c-0.31-0.06-0.59-0.21-0.81-0.43c-0.22-0.22-0.37-0.5-0.43-0.81
			c-0.06-0.31-0.03-0.62,0.09-0.91c0.12-0.29,0.32-0.53,0.59-0.71c0.26-0.17,0.56-0.26,0.88-0.26c0.42,0,0.81,0.17,1.11,0.46
			C1002.72,62.11,1002.89,62.5,1002.89,62.92z"/>
		<path style="fill:none;stroke:#FFFFFF;stroke-miterlimit:10;" d="M1010.81,62.92c0,0.31-0.09,0.62-0.26,0.88
			c-0.18,0.26-0.42,0.46-0.71,0.58c-0.29,0.12-0.61,0.15-0.91,0.09c-0.3-0.06-0.59-0.21-0.8-0.43c-0.23-0.22-0.37-0.5-0.44-0.81
			c-0.06-0.31-0.03-0.62,0.09-0.91c0.12-0.29,0.32-0.53,0.58-0.71c0.26-0.17,0.56-0.27,0.88-0.27c0.42,0,0.81,0.17,1.11,0.46
			C1010.64,62.1,1010.81,62.5,1010.81,62.92z"/>
		<path style="fill:none;stroke:#FFFFFF;stroke-miterlimit:10;" d="M1018.72,62.92c0,0.31-0.09,0.62-0.26,0.88
			c-0.17,0.26-0.42,0.46-0.71,0.58c-0.29,0.12-0.61,0.15-0.91,0.09c-0.3-0.06-0.59-0.21-0.8-0.43c-0.23-0.22-0.37-0.5-0.44-0.81
			c-0.06-0.31-0.03-0.62,0.09-0.91c0.12-0.29,0.32-0.53,0.58-0.71c0.26-0.17,0.56-0.27,0.88-0.27c0.42,0,0.82,0.17,1.11,0.46
			C1018.55,62.1,1018.72,62.5,1018.72,62.92z"/>
		<path style="fill:none;stroke:#FFFFFF;stroke-miterlimit:10;" d="M1026.63,62.92c0,0.31-0.09,0.62-0.26,0.88
			c-0.18,0.26-0.42,0.46-0.71,0.58c-0.29,0.12-0.61,0.15-0.91,0.09c-0.31-0.06-0.59-0.21-0.81-0.43c-0.22-0.22-0.37-0.5-0.43-0.81
			c-0.06-0.31-0.03-0.62,0.09-0.91c0.12-0.29,0.32-0.53,0.59-0.71c0.26-0.17,0.56-0.26,0.88-0.26c0.42,0,0.81,0.17,1.11,0.46
			C1026.47,62.11,1026.63,62.5,1026.63,62.92z"/>
		<path style="fill:none;stroke:#FFFFFF;stroke-miterlimit:10;" d="M1034.54,62.92c0,0.31-0.09,0.62-0.26,0.88
			c-0.17,0.26-0.42,0.46-0.71,0.58c-0.29,0.12-0.61,0.15-0.91,0.09c-0.3-0.06-0.59-0.21-0.8-0.43c-0.23-0.22-0.37-0.5-0.44-0.81
			c-0.06-0.31-0.03-0.62,0.09-0.91c0.12-0.29,0.32-0.53,0.58-0.71c0.26-0.17,0.56-0.27,0.88-0.27c0.42,0,0.82,0.17,1.11,0.46
			C1034.37,62.1,1034.54,62.5,1034.54,62.92z"/>
		<path style="fill:#FFFFFF;stroke:#D64C42;stroke-miterlimit:10;" d="M376.84,31.29h70.12c1.86,0,3.64-0.74,4.95-2.05
			c1.31-1.31,2.05-3.09,2.05-4.95l0,0c0-1.86-0.74-3.64-2.05-4.95c-1.31-1.31-3.09-2.05-4.95-2.05h-70.12
			c-1.86,0-3.64,0.74-4.95,2.05c-1.31,1.31-2.05,3.09-2.05,4.95c0,1.86,0.74,3.64,2.05,4.95C373.2,30.55,374.99,31.29,376.84,31.29z
			"/>
		<path style="fill:none;stroke:#D64C42;stroke-miterlimit:10;" d="M377.85,23.81c0,0.74,0.22,1.46,0.63,2.07
			c0.41,0.61,0.99,1.09,1.67,1.37c0.68,0.28,1.43,0.36,2.15,0.21c0.72-0.14,1.39-0.5,1.91-1.02c0.52-0.52,0.88-1.19,1.02-1.91
			c0.14-0.72,0.07-1.47-0.21-2.15c-0.28-0.68-0.76-1.26-1.38-1.67c-0.61-0.41-1.34-0.63-2.07-0.63c-0.99,0-1.93,0.4-2.63,1.09
			C378.24,21.87,377.85,22.82,377.85,23.81L377.85,23.81z"/>
		<path style="fill:none;stroke:#D64C42;stroke-linecap:round;stroke-miterlimit:10;" d="M378.94,26.45l-2.06,2.06"/>
		<path style="fill:#E1E1E1;" d="M412.2,73.13v-19.5c3.84,0,7.59,1.13,10.79,3.26c3.2,2.12,5.7,5.14,7.19,8.68
			c1.49,3.54,1.9,7.43,1.19,11.2c-0.72,3.77-2.53,7.25-5.21,9.99c-2.68,2.75-6.11,4.64-9.87,5.44c-3.75,0.8-7.66,0.48-11.23-0.93
			c-3.57-1.41-6.65-3.84-8.84-6.98c-2.2-3.15-3.42-6.87-3.5-10.71L412.2,73.13z"/>
		<path style="fill:#F5F5F5;" d="M407.25,67.73l-19.17,0.44c0-5.05,1.95-10.35,5.43-13.97c3.57-3.62,8.38-5.72,13.44-5.86
			L407.25,67.73z"/>
		<path style="fill-rule:evenodd;clip-rule:evenodd;fill:#E1E1E1;" d="M1068.85,55.78c2.18,0.27,4.32,0.83,6.35,1.67l4.65-3.9
			l7.98,6.08l-2.51,5.51c1.34,1.73,2.45,3.63,3.3,5.65l6.04,0.54l1.35,9.94l-5.65,2.12c-0.27,2.18-0.83,4.32-1.67,6.35l3.87,4.61
			l-6.08,7.99l-5.51-2.51c-1.73,1.34-3.63,2.45-5.65,3.29l-0.53,6.04l-9.94,1.35l-2.12-5.65c-2.18-0.27-4.32-0.83-6.35-1.67
			l-4.65,3.9l-7.98-6.08l2.51-5.51c-1.34-1.73-2.45-3.63-3.3-5.65l-6.04-0.53l-1.35-9.94l5.65-2.12c0.28-2.17,0.83-4.3,1.67-6.32
			l-3.9-4.65l6.08-7.99l5.51,2.52c1.73-1.34,3.63-2.45,5.65-3.3l0.53-6.04l9.94-1.35l2.12,5.65L1068.85,55.78z M1065.86,69.49
			c-2.22,0.07-4.37,0.83-6.14,2.17s-3.09,3.2-3.76,5.32c-0.68,2.12-0.68,4.39-0.01,6.51c0.67,2.12,1.98,3.98,3.75,5.33
			c1.77,1.35,3.91,2.11,6.14,2.19c2.22,0.08,4.41-0.53,6.28-1.75c1.86-1.22,3.3-2.98,4.12-5.05c0.82-2.07,0.98-4.34,0.46-6.5
			c-0.58-2.41-1.97-4.54-3.95-6.04C1070.76,70.18,1068.34,69.41,1065.86,69.49L1065.86,69.49z"/>
		<path style="fill-rule:evenodd;clip-rule:evenodd;fill:#E1E1E1;" d="M476.41,225.75c2.18,0.27,4.32,0.83,6.35,1.67l4.65-3.9
			l7.98,6.08l-2.51,5.51c1.34,1.73,2.45,3.63,3.3,5.65l6.04,0.54l1.35,9.94l-5.65,2.12c-0.27,2.18-0.83,4.32-1.67,6.35l3.87,4.61
			l-6.08,7.99l-5.51-2.51c-1.73,1.34-3.63,2.45-5.65,3.29l-0.53,6.04l-9.94,1.35l-2.12-5.65c-2.18-0.27-4.32-0.83-6.35-1.67
			l-4.65,3.9l-7.98-6.08l2.51-5.51c-1.34-1.73-2.45-3.63-3.3-5.65l-6.04-0.53l-1.35-9.94l5.65-2.12c0.28-2.17,0.83-4.3,1.67-6.32
			l-3.9-4.65l6.08-7.99l5.51,2.52c1.73-1.34,3.63-2.45,5.65-3.3l0.53-6.04l9.94-1.35l2.12,5.65L476.41,225.75z M473.42,239.46
			c-2.22,0.07-4.37,0.83-6.14,2.17c-1.77,1.34-3.09,3.2-3.76,5.32c-0.68,2.12-0.68,4.39-0.01,6.51c0.67,2.12,1.98,3.98,3.75,5.33
			c1.77,1.35,3.91,2.11,6.14,2.19c2.22,0.08,4.41-0.53,6.28-1.75c1.86-1.22,3.3-2.98,4.12-5.05c0.82-2.07,0.98-4.34,0.46-6.5
			c-0.58-2.41-1.97-4.54-3.95-6.04C478.32,240.16,475.9,239.38,473.42,239.46L473.42,239.46z"/>
		<path style="fill-rule:evenodd;clip-rule:evenodd;fill:#1A2E35;" d="M1022.05,27.92c1.49,0.19,2.95,0.57,4.34,1.15l3.19-2.68
			l5.48,4.17l-1.73,3.78c0.92,1.18,1.69,2.49,2.27,3.88l4.14,0.37l0.92,6.82l-3.9,1.46c-0.18,1.49-0.57,2.95-1.15,4.33l2.68,3.19
			l-4.17,5.48l-3.78-1.72c-1.19,0.92-2.49,1.68-3.88,2.26l-0.37,4.14l-6.82,0.92l-1.46-3.9c-1.49-0.18-2.94-0.56-4.34-1.12
			l-3.19,2.67l-5.48-4.17l1.72-3.79c-0.91-1.19-1.67-2.5-2.23-3.89l-4.14-0.37l-0.92-6.82l3.9-1.45c0.19-1.49,0.57-2.95,1.14-4.34
			l-2.67-3.19l4.17-5.48l3.79,1.73c1.19-0.92,2.49-1.69,3.88-2.27l0.37-4.14l6.82-0.93l1.45,3.9L1022.05,27.92z M1020.01,37.33
			c-1.53,0.05-3,0.57-4.22,1.48c-1.21,0.92-2.13,2.19-2.59,3.65c-0.47,1.45-0.47,3.02-0.01,4.47s1.36,2.74,2.57,3.66
			c1.21,0.93,2.68,1.45,4.21,1.51c1.53,0.06,3.03-0.36,4.31-1.2c1.28-0.84,2.27-2.05,2.83-3.47c0.56-1.42,0.67-2.98,0.31-4.46
			c-0.4-1.65-1.36-3.11-2.7-4.14C1023.37,37.81,1021.7,37.28,1020.01,37.33L1020.01,37.33z"/>
		<path style="fill:#1A2E35;" d="M1170.8,111.51c0.73-0.16,1.47-0.2,2.21-0.12c2.04,0.19,3.96,1.08,5.42,2.53
			c1.02,0.98,1.78,2.19,2.24,3.53c0.52,1.55,0.61,3.21,0.28,4.81c-0.18,0.86-0.48,1.69-0.91,2.46c-0.43,0.82-1,1.56-1.67,2.19
			c-1.4,1.36-3.2,2.24-5.13,2.5c-1.93,0.26-3.9-0.11-5.61-1.05c-0.81-0.43-1.55-0.99-2.18-1.66c-0.61-0.63-1.14-1.34-1.54-2.12
			c-0.76-1.45-1.1-3.08-1.01-4.71c0.1-1.73,0.69-3.39,1.72-4.79c1.02-1.4,2.42-2.48,4.04-3.1c0.68-0.27,1.39-0.43,2.12-0.47
			c-0.71,0.18-1.4,0.4-2.08,0.66c-1.83,0.77-3.35,2.13-4.31,3.87c-0.71,1.27-1.09,2.7-1.1,4.15c-0.01,1.46,0.33,2.89,1.01,4.18
			c0.39,0.74,0.88,1.42,1.48,2.01c0.6,0.63,1.3,1.16,2.07,1.57c1.62,0.89,3.47,1.23,5.3,0.98c1.83-0.25,3.53-1.07,4.85-2.36
			c0.64-0.6,1.17-1.29,1.58-2.06c0.41-0.73,0.71-1.51,0.88-2.33c0.33-1.52,0.25-3.1-0.22-4.58c-0.43-1.29-1.15-2.47-2.12-3.43
			c-1.39-1.42-3.21-2.33-5.18-2.58C1172.22,111.53,1171.5,111.5,1170.8,111.51L1170.8,111.51z"/>
		<path style="fill:#1A2E35;" d="M1174.18,100.07c0,0-0.04-0.09-0.12-0.29c-0.08-0.2-0.2-0.51-0.35-0.88
			c-0.32-0.81-0.77-1.98-1.36-3.53l0.08,0.05l-8.23,1.16l0.11-0.12c-0.13,1.52-0.27,3.21-0.42,5.01v0.09l-0.08,0.04
			c-1.66,0.7-3.22,1.62-4.64,2.73l-0.08,0.06l-0.1-0.04l-4.57-2.08l0.22-0.06l-5.01,6.63v-0.25l3.23,3.85l0.08,0.1l-0.05,0.11
			c-0.68,1.66-1.14,3.41-1.36,5.19v0.13l-0.13,0.04l-4.7,1.77l0.15-0.24c0.35,2.58,0.71,5.37,1.12,8.23l-0.21-0.2l5,0.44h0.15
			l0.06,0.13c0.7,1.65,1.6,3.21,2.7,4.62l0.09,0.11l-0.06,0.14c-0.65,1.41-1.36,2.99-2.12,4.57l-0.08-0.3l6.62,5.03h-0.32l3.85-3.23
			l0.12-0.1l0.14,0.06c1.65,0.68,3.39,1.15,5.17,1.37l0,0c0.1,0.07-0.2-0.17,0.21,0.16v0.04v0.07l0.06,0.15l0.11,0.3l0.22,0.59
			l0.44,1.18c0.29,0.78,0.59,1.57,0.88,2.34l-0.28-0.16l8.24-1.12l-0.22,0.23c0.15-1.68,0.3-3.35,0.44-5v-0.16l0.14-0.06
			c1.65-0.69,3.21-1.59,4.62-2.69l0.12-0.09l0.13,0.06l4.57,2.08l-0.3,0.08l5.04-6.61v0.29l-3.22-3.85l-0.09-0.11l0.06-0.13
			c0.7-1.66,1.17-3.4,1.41-5.18v-0.13l0.13-0.05l4.7-1.75l-0.13,0.23c-0.39-2.89-0.75-5.65-1.1-8.24l0.18,0.17l-5-0.45h-0.11
			l-0.04-0.11c-0.68-1.66-1.6-3.22-2.69-4.65l-0.06-0.08l0.04-0.09l2.12-4.56l0.05,0.18l-6.59-5.06h0.14l-3.87,3.21h-0.04h-0.04
			c-1.26-0.53-2.56-0.93-3.89-1.21l-0.99-0.19c-0.11-0.01-0.23-0.03-0.33-0.06c0.11-0.01,0.23-0.01,0.34,0c0.22,0,0.56,0.07,1,0.15
			c1.35,0.24,2.66,0.62,3.93,1.14h-0.08l3.83-3.25l0.07-0.06l0.08,0.06l6.64,5.01l0.09,0.07l-0.05,0.11l-2.07,4.58v-0.17
			c1.13,1.44,2.06,3.02,2.77,4.71l-0.16-0.11l5.01,0.43h0.16v0.16c0.36,2.61,0.71,5.34,1.14,8.23v0.17l-0.16,0.06l-4.69,1.77
			l0.14-0.18c-0.23,1.82-0.71,3.61-1.41,5.3l-0.04-0.23l3.23,3.84l0.12,0.15l-0.11,0.15c-1.63,2.15-3.31,4.36-5.03,6.62l-0.11,0.16
			l-0.18-0.08l-4.57-2.08h0.25c-1.45,1.13-3.04,2.06-4.74,2.77l0.16-0.21c-0.15,1.65-0.3,3.32-0.44,5.01v0.2h-0.2l-8.24,1.12h-0.2
			l-0.07-0.19l-0.88-2.35l-0.44-1.18l-0.23-0.59l-0.11-0.3l-0.06-0.15v-0.08v-0.04c0.42,0.33,0.11,0.09,0.2,0.17
			c-1.82-0.23-3.61-0.7-5.3-1.41l0.26-0.04l-3.85,3.23l-0.16,0.13l-0.16-0.13l-6.62-5.03l-0.16-0.12l0.08-0.18l2.12-4.57v0.25
			c-1.12-1.45-2.05-3.05-2.75-4.74l0.2,0.15l-5-0.44h-0.19v-0.19c-0.39-2.86-0.76-5.65-1.11-8.24v-0.18l0.17-0.06l4.71-1.75
			l-0.14,0.18c0.23-1.82,0.71-3.6,1.41-5.29v0.21l-3.22-3.85l-0.11-0.13l0.1-0.13l5.05-6.6l0.09-0.11l0.13,0.06l4.57,2.12h-0.17
			c1.45-1.12,3.04-2.04,4.72-2.73l-0.09,0.12c0.17-1.8,0.32-3.48,0.46-5v-0.11h0.1l8.25-1.07h0.06v0.06
			c0.55,1.53,0.97,2.7,1.26,3.53l0.32,0.91C1174.12,99.8,1174.15,99.93,1174.18,100.07z"/>
		<path style="fill:#1A2E35;" d="M769.91,256.01c0.73-0.16,1.47-0.2,2.21-0.11c2.04,0.19,3.96,1.08,5.42,2.53
			c1.01,0.98,1.78,2.19,2.24,3.53c0.52,1.55,0.61,3.21,0.28,4.81c-0.38,1.77-1.27,3.39-2.58,4.65c-1.4,1.36-3.2,2.24-5.13,2.5
			c-1.93,0.26-3.9-0.1-5.61-1.05c-0.8-0.43-1.53-0.98-2.16-1.64c-0.62-0.62-1.13-1.34-1.54-2.12c-0.7-1.35-1.06-2.86-1.02-4.39
			c0.03-1.53,0.45-3.02,1.21-4.34c1.02-1.78,2.63-3.15,4.55-3.88c0.68-0.27,1.39-0.43,2.12-0.48c0,0.06-0.78,0.13-2.08,0.66
			c-1.83,0.77-3.34,2.14-4.31,3.87c-0.71,1.27-1.09,2.7-1.1,4.15c-0.02,1.45,0.33,2.89,1.01,4.18c0.39,0.74,0.88,1.42,1.48,2.01
			c0.6,0.63,1.3,1.16,2.07,1.57c1.62,0.88,3.48,1.22,5.3,0.98c1.83-0.25,3.53-1.07,4.85-2.35c0.63-0.6,1.17-1.29,1.58-2.06
			c0.41-0.73,0.71-1.51,0.88-2.33c0.33-1.52,0.26-3.1-0.22-4.58c-0.43-1.29-1.15-2.47-2.12-3.43c-1.39-1.42-3.21-2.33-5.18-2.58
			C770.7,255.93,769.92,256.08,769.91,256.01z"/>
		<path style="fill:#1A2E35;" d="M773.3,244.59l-0.13-0.29l-0.35-0.88l-1.36-3.53l0.09,0.05l-8.23,1.16l0.11-0.12
			c-0.13,1.52-0.27,3.21-0.42,5.01v0.09l-0.08,0.04c-1.66,0.7-3.22,1.62-4.64,2.73l-0.08,0.06l-0.1-0.04l-4.58-2.08l0.22-0.06
			l-5.01,6.63v-0.25c1,1.19,2.12,2.5,3.23,3.85l0.08,0.09l-0.04,0.12c-0.68,1.66-1.14,3.41-1.36,5.19v0.13l-0.13,0.04l-4.7,1.77
			l0.15-0.24c0.35,2.58,0.71,5.37,1.12,8.23l-0.21-0.2l5,0.44h0.15l0.06,0.13c0.68,1.66,1.58,3.23,2.67,4.66l0.09,0.11l-0.06,0.14
			l-2.08,4.57l-0.08-0.3l6.62,5.03h-0.32l3.85-3.23l0.12-0.1l0.14,0.06c1.65,0.68,3.39,1.14,5.17,1.36l0,0
			c0.1,0.07-0.2-0.17,0.21,0.16v0.04v0.07l0.05,0.15l0.11,0.3l0.22,0.59l0.44,1.18c0.29,0.78,0.59,1.57,0.88,2.34l-0.28-0.16
			l8.24-1.12l-0.22,0.23c0.15-1.68,0.3-3.35,0.44-5v-0.16l0.13-0.06c1.66-0.69,3.21-1.59,4.63-2.69l0.11-0.09l0.14,0.06l4.57,2.12
			l-0.3,0.08l5.04-6.61v0.29l-3.22-3.85l-0.09-0.11l0.06-0.13c0.7-1.66,1.17-3.4,1.41-5.18v-0.13l0.13-0.04l4.7-1.75l-0.13,0.23
			c-0.39-2.89-0.76-5.65-1.1-8.24l0.18,0.17l-5-0.45h-0.11l-0.04-0.11c-0.69-1.66-1.59-3.22-2.69-4.65l-0.06-0.08l0.04-0.09
			l2.12-4.56l0.05,0.18l-6.59-5.06h0.14l-3.87,3.21h-0.04h-0.04c-1.26-0.52-2.56-0.93-3.89-1.2l-0.99-0.19
			c-0.23-0.04-0.33-0.06-0.33-0.06c0.11-0.01,0.23-0.01,0.34,0c0.22,0,0.56,0.06,1,0.15c1.35,0.24,2.67,0.62,3.94,1.14h-0.08
			l3.83-3.25l0.07-0.06l0.08,0.06l6.64,5.01l0.09,0.07l-0.05,0.11l-2.07,4.58v-0.18c1.13,1.44,2.06,3.03,2.77,4.72l-0.16-0.11
			l5.01,0.43h0.16v0.16c0.36,2.61,0.71,5.34,1.14,8.23v0.17l-0.16,0.06l-4.7,1.77l0.14-0.18c-0.24,1.82-0.71,3.6-1.41,5.3
			l-0.04-0.24l3.23,3.85l0.12,0.15l-0.11,0.15c-1.63,2.16-3.3,4.36-5.03,6.62l-0.11,0.16l-0.18-0.08l-4.57-2.12h0.25
			c-1.45,1.13-3.04,2.06-4.74,2.77l0.16-0.21c-0.15,1.65-0.3,3.32-0.44,5.01v0.2h-0.2l-8.24,1.12h-0.2l-0.07-0.2l-0.83-2.22
			l-0.42-1.19l-0.23-0.59l-0.11-0.29l-0.06-0.15v-0.08v-0.04l0.2,0.16c-1.82-0.23-3.61-0.71-5.3-1.41l0.26-0.04l-3.85,3.23
			l-0.16,0.13l-0.16-0.13l-6.67-5.03l-0.16-0.12l0.08-0.18c0.71-1.58,1.41-3.14,2.12-4.57v0.25c-1.12-1.45-2.05-3.05-2.75-4.74
			l0.2,0.15l-5-0.44h-0.19v-0.19c-0.38-2.86-0.76-5.65-1.1-8.24v-0.18l0.17-0.06l4.71-1.75l-0.14,0.18c0.23-1.82,0.71-3.6,1.41-5.3
			v0.22l-3.22-3.85l-0.11-0.13l0.1-0.13l5.05-6.6l0.09-0.11l0.13,0.06l4.57,2.12h-0.17c1.45-1.12,3.03-2.04,4.72-2.73l-0.09,0.12
			c0.17-1.8,0.32-3.48,0.46-5v-0.11h0.1l8.25-1.07h0.06v0.06c0.55,1.52,0.97,2.7,1.26,3.53l0.32,0.91
			C773.23,244.41,773.27,244.5,773.3,244.59L773.3,244.59z"/>
		<path style="fill:#3945BA;" d="M1021.59,285.67h84.92c7.4,0,13.4-6,13.4-13.4V83.25c0-7.4-6-13.4-13.4-13.4h-84.92
			c-7.4,0-13.4,6-13.4,13.4v189.02C1008.19,279.67,1014.19,285.67,1021.59,285.67z"/>
		<path style="fill:#FFFFFF;" d="M1022.02,282.6h84.07c6.48,0,11.73-5.25,11.73-11.73V83.47c0-6.48-5.25-11.73-11.73-11.73h-84.07
			c-6.48,0-11.73,5.25-11.73,11.73v187.39C1010.28,277.34,1015.54,282.6,1022.02,282.6z"/>
		<path style="fill:#DEE3FC;" d="M1014.99,83.1v187.17c0,2.11,0.84,4.13,2.32,5.62c1.49,1.49,3.52,2.33,5.62,2.33h82.22
			c2.11,0,4.13-0.84,5.62-2.33s2.33-3.51,2.33-5.62V83.1c0-2.11-0.84-4.13-2.33-5.62s-3.51-2.33-5.62-2.33h-13.71
			c-0.37,0-0.74,0.1-1.06,0.3c-0.31,0.2-0.57,0.48-0.73,0.81l-1.46,2.9c-0.32,0.66-0.83,1.21-1.45,1.6
			c-0.62,0.39-1.34,0.59-2.08,0.59h-41.25c-0.73,0-1.45-0.2-2.08-0.59c-0.63-0.39-1.13-0.94-1.45-1.6l-1.45-2.9
			c-0.16-0.34-0.42-0.62-0.74-0.81c-0.32-0.2-0.68-0.3-1.06-0.3h-13.7c-2.1,0-4.13,0.84-5.62,2.33
			C1015.83,78.97,1014.99,80.99,1014.99,83.1L1014.99,83.1z"/>
		<path style="fill:#DEE3FC;" d="M1046.74,77.96h33.23c0.37,0,0.73-0.15,1-0.41c0.27-0.26,0.42-0.62,0.42-1c0-0.37-0.15-0.73-0.42-1
			c-0.26-0.26-0.62-0.41-1-0.41h-33.23c-0.37,0-0.73,0.15-1,0.41c-0.27,0.26-0.42,0.62-0.42,1c0,0.37,0.15,0.73,0.42,1
			C1046,77.81,1046.36,77.96,1046.74,77.96z"/>
		<path style="fill:none;stroke:#698BD1;stroke-linecap:round;stroke-linejoin:round;stroke-dasharray:2.84,2.84;" d="
			M1028.05,271.72h73.93c2.9,0,5.26-2.36,5.26-5.26v-26.1c0-2.91-2.36-5.26-5.26-5.26h-73.93c-2.9,0-5.26,2.35-5.26,5.26v26.1
			C1022.79,269.37,1025.15,271.72,1028.05,271.72z"/>
		<path style="fill:none;stroke:#698BD1;stroke-linecap:round;stroke-linejoin:round;stroke-dasharray:2.84,2.84;" d="
			M1031.78,181.86h36.68c2.1,0,3.79-1.7,3.79-3.79v-18.13c0-2.09-1.69-3.79-3.79-3.79h-36.68c-2.1,0-3.79,1.7-3.79,3.79v18.13
			C1027.99,180.16,1029.69,181.86,1031.78,181.86z"/>
		<path style="fill:#4B5A9B;" d="M1023.9,229.01h75.74c2.5,0,4.52-2.02,4.52-4.52v-31.95c0-2.5-2.02-4.52-4.52-4.52h-75.74
			c-2.49,0-4.52,2.02-4.52,4.52v31.95C1019.38,226.99,1021.4,229.01,1023.9,229.01z"/>
		<path style="fill:#7F95F4;" d="M1022.78,189.22v31.97c0,0.59,0.12,1.18,0.35,1.73c0.23,0.55,0.56,1.04,0.98,1.46
			c0.42,0.42,0.92,0.75,1.46,0.98c0.55,0.23,1.14,0.34,1.73,0.34h75.42c0.59,0,1.18-0.12,1.72-0.34c0.55-0.23,1.04-0.56,1.47-0.98
			c0.42-0.42,0.75-0.92,0.97-1.46c0.23-0.55,0.35-1.13,0.35-1.73v-31.97c0-1.2-0.48-2.34-1.32-3.19c-0.85-0.85-2-1.32-3.19-1.32
			h-75.42c-1.2,0-2.34,0.48-3.19,1.32C1023.26,186.87,1022.78,188.02,1022.78,189.22L1022.78,189.22z"/>
		<path style="fill:#FFFFFF;" d="M1078.06,222.37h22.22c1.69,0,3.05-1.37,3.05-3.05V197.1c0-1.68-1.36-3.05-3.05-3.05h-22.22
			c-1.69,0-3.05,1.37-3.05,3.05v22.22C1075.01,221,1076.37,222.37,1078.06,222.37z"/>
		<path style="fill:#B2C1F9;" d="M1051.72,197.63h19.57c0.25,0,0.5-0.1,0.68-0.28c0.18-0.18,0.28-0.43,0.28-0.68l0,0
			c0-0.13-0.02-0.25-0.07-0.37c-0.05-0.12-0.12-0.22-0.21-0.31c-0.09-0.09-0.2-0.16-0.32-0.21c-0.11-0.05-0.24-0.07-0.37-0.07
			h-19.57c-0.25,0-0.5,0.1-0.68,0.28c-0.18,0.18-0.28,0.42-0.28,0.68c0,0.13,0.02,0.25,0.07,0.37c0.05,0.12,0.12,0.22,0.21,0.31
			c0.08,0.09,0.19,0.16,0.31,0.21C1051.47,197.6,1051.59,197.63,1051.72,197.63z"/>
		<path style="fill:#B2C1F9;" d="M1060.64,201.47h10.65c0.13,0,0.25-0.02,0.37-0.07c0.12-0.05,0.23-0.12,0.32-0.21
			c0.09-0.09,0.16-0.19,0.21-0.31c0.04-0.12,0.07-0.24,0.07-0.37l0,0c0-0.13-0.03-0.25-0.07-0.37c-0.05-0.12-0.12-0.22-0.21-0.31
			s-0.2-0.16-0.32-0.21c-0.11-0.05-0.24-0.07-0.37-0.07h-10.65c-0.13,0-0.25,0.02-0.37,0.07c-0.12,0.05-0.23,0.12-0.32,0.21
			s-0.16,0.2-0.21,0.31c-0.05,0.12-0.07,0.24-0.07,0.37c0,0.13,0.02,0.25,0.07,0.37c0.05,0.12,0.12,0.22,0.21,0.31
			c0.09,0.09,0.2,0.16,0.32,0.21C1060.39,201.45,1060.52,201.47,1060.64,201.47z"/>
		<path style="fill:#B2C1F9;" d="M1027.9,201.47h28.82c0.13,0,0.25-0.02,0.37-0.07c0.12-0.05,0.23-0.12,0.32-0.21
			c0.09-0.09,0.16-0.19,0.21-0.31c0.04-0.12,0.07-0.24,0.07-0.37c0-0.13-0.03-0.25-0.07-0.37c-0.05-0.12-0.12-0.22-0.21-0.31
			s-0.2-0.16-0.32-0.21c-0.11-0.05-0.24-0.07-0.37-0.07h-28.82c-0.25,0-0.5,0.1-0.68,0.28c-0.18,0.18-0.28,0.42-0.28,0.68
			c0,0.25,0.1,0.5,0.28,0.68C1027.4,201.37,1027.65,201.47,1027.9,201.47z"/>
		<path style="fill:#B2C1F9;" d="M1054.81,205.32h16.48c0.13,0,0.25-0.02,0.37-0.07c0.12-0.05,0.23-0.12,0.32-0.21
			c0.09-0.09,0.16-0.2,0.21-0.31c0.04-0.12,0.07-0.24,0.07-0.37l0,0c0-0.26-0.1-0.5-0.28-0.68c-0.18-0.18-0.43-0.28-0.68-0.28
			h-16.48c-0.25,0-0.5,0.1-0.68,0.29c-0.18,0.18-0.28,0.43-0.28,0.68l0,0c0,0.25,0.1,0.5,0.28,0.68
			C1054.31,205.22,1054.56,205.32,1054.81,205.32z"/>
		<path style="fill:#B2C1F9;" d="M1040.83,205.32h10.36c0.25,0,0.5-0.1,0.68-0.28c0.18-0.18,0.28-0.42,0.28-0.68l0,0
			c0-0.26-0.11-0.5-0.28-0.68c-0.18-0.18-0.43-0.28-0.68-0.29h-10.36c-0.25,0-0.5,0.1-0.68,0.28c-0.18,0.18-0.28,0.43-0.28,0.68l0,0
			c0,0.13,0.03,0.25,0.07,0.37c0.05,0.12,0.12,0.22,0.21,0.31c0.09,0.09,0.2,0.16,0.32,0.21
			C1040.57,205.29,1040.7,205.32,1040.83,205.32L1040.83,205.32z"/>
		<path style="fill:#B2C1F9;" d="M1027.9,205.32h9.54c0.13,0,0.25-0.02,0.37-0.07c0.12-0.05,0.23-0.12,0.32-0.21
			c0.09-0.09,0.16-0.2,0.21-0.31c0.04-0.12,0.07-0.24,0.07-0.37c0-0.26-0.1-0.5-0.28-0.68c-0.18-0.18-0.43-0.28-0.68-0.28h-9.54
			c-0.25,0-0.5,0.1-0.68,0.29c-0.18,0.18-0.28,0.43-0.28,0.68l0,0c0,0.25,0.1,0.5,0.28,0.68
			C1027.4,205.22,1027.65,205.32,1027.9,205.32z"/>
		<path style="fill:#B2C1F9;" d="M1027.9,209.17h43.39c0.13,0,0.25-0.02,0.37-0.07c0.12-0.05,0.23-0.12,0.32-0.21
			c0.09-0.09,0.16-0.2,0.21-0.31c0.04-0.12,0.07-0.24,0.07-0.37c0-0.26-0.1-0.5-0.28-0.68c-0.18-0.18-0.43-0.28-0.68-0.28h-43.39
			c-0.13,0-0.25,0.02-0.37,0.07c-0.12,0.05-0.23,0.12-0.31,0.21c-0.09,0.09-0.16,0.2-0.21,0.31c-0.05,0.12-0.07,0.24-0.07,0.37l0,0
			c0,0.25,0.1,0.5,0.28,0.68C1027.4,209.07,1027.65,209.17,1027.9,209.17L1027.9,209.17z"/>
		<path style="fill:#B2C1F9;" d="M1047.41,213.01h23.88c0.13,0,0.25-0.02,0.37-0.07c0.12-0.05,0.23-0.12,0.32-0.21
			c0.09-0.09,0.16-0.19,0.21-0.31c0.04-0.12,0.07-0.24,0.07-0.37l0,0c0-0.26-0.1-0.5-0.28-0.68c-0.18-0.18-0.43-0.28-0.68-0.28
			h-23.88c-0.25,0-0.5,0.1-0.68,0.28c-0.18,0.18-0.28,0.43-0.28,0.68c0,0.13,0.03,0.25,0.07,0.37c0.05,0.12,0.12,0.22,0.21,0.31
			c0.09,0.09,0.2,0.16,0.32,0.21C1047.16,212.99,1047.29,213.01,1047.41,213.01z"/>
		<path style="fill:#B2C1F9;" d="M1027.9,213.01h15.66c0.13,0,0.25-0.02,0.37-0.07c0.12-0.05,0.23-0.12,0.32-0.21
			c0.09-0.09,0.16-0.19,0.21-0.31c0.04-0.12,0.07-0.24,0.07-0.37c0-0.26-0.1-0.5-0.28-0.68c-0.18-0.18-0.43-0.28-0.68-0.28h-15.66
			c-0.13,0-0.25,0.03-0.37,0.07c-0.12,0.05-0.23,0.12-0.31,0.21c-0.09,0.09-0.16,0.2-0.21,0.31c-0.05,0.12-0.07,0.24-0.07,0.37l0,0
			c0,0.25,0.1,0.5,0.28,0.68C1027.4,212.91,1027.65,213.01,1027.9,213.01L1027.9,213.01z"/>
		<path style="fill:#B2C1F9;" d="M1057.25,216.86h14.03c0.25,0,0.5-0.1,0.68-0.28c0.18-0.18,0.28-0.43,0.28-0.68l0,0
			c0-0.13-0.03-0.25-0.07-0.37c-0.05-0.12-0.12-0.22-0.21-0.31c-0.09-0.09-0.2-0.16-0.32-0.21c-0.11-0.05-0.24-0.07-0.37-0.07
			h-14.03c-0.13,0-0.25,0.02-0.37,0.07c-0.12,0.05-0.23,0.12-0.32,0.21c-0.09,0.09-0.16,0.2-0.21,0.31
			c-0.04,0.12-0.07,0.24-0.07,0.37c0,0.26,0.1,0.5,0.28,0.68C1056.75,216.76,1056.99,216.86,1057.25,216.86L1057.25,216.86z"/>
		<path style="fill:#B2C1F9;" d="M1039.43,216.86h14.04c0.13,0,0.25-0.02,0.37-0.07c0.12-0.05,0.23-0.12,0.32-0.21
			c0.08-0.09,0.16-0.2,0.2-0.31c0.05-0.12,0.07-0.24,0.07-0.37l0,0c0-0.25-0.1-0.5-0.28-0.68c-0.18-0.18-0.42-0.28-0.68-0.28h-14.04
			c-0.25,0-0.5,0.1-0.68,0.28c-0.18,0.18-0.28,0.42-0.28,0.68l0,0c0,0.13,0.02,0.25,0.07,0.37c0.05,0.12,0.12,0.22,0.21,0.31
			c0.08,0.09,0.19,0.16,0.31,0.21C1039.17,216.84,1039.3,216.86,1039.43,216.86L1039.43,216.86z"/>
		<path style="fill:#B2C1F9;" d="M1027.9,216.86h8.17c0.25,0,0.5-0.1,0.68-0.28c0.18-0.18,0.28-0.43,0.28-0.68
			c0-0.13-0.03-0.25-0.07-0.37c-0.05-0.12-0.12-0.22-0.21-0.31c-0.09-0.09-0.2-0.16-0.32-0.21c-0.11-0.05-0.24-0.07-0.37-0.07h-8.14
			c-0.25,0-0.5,0.1-0.68,0.28c-0.18,0.18-0.28,0.42-0.28,0.68l0,0c0,0.25,0.09,0.49,0.27,0.67
			C1027.41,216.75,1027.65,216.85,1027.9,216.86L1027.9,216.86z"/>
		<path style="fill:#B2C1F9;" d="M1051.72,220.74h19.57c0.25,0,0.5-0.1,0.68-0.28c0.18-0.18,0.28-0.43,0.28-0.68l0,0
			c0-0.13-0.02-0.25-0.07-0.37c-0.05-0.12-0.12-0.22-0.21-0.31c-0.09-0.09-0.2-0.16-0.32-0.21c-0.11-0.05-0.24-0.07-0.37-0.07
			h-19.57c-0.25,0-0.5,0.1-0.68,0.28c-0.18,0.18-0.28,0.42-0.28,0.68c0,0.13,0.02,0.25,0.07,0.37c0.05,0.12,0.12,0.22,0.21,0.31
			c0.08,0.09,0.19,0.16,0.31,0.21C1051.47,220.71,1051.59,220.74,1051.72,220.74z"/>
		<path style="fill:#B2C1F9;" d="M1027.9,197.63h19.57c0.13,0,0.25-0.02,0.37-0.07c0.12-0.05,0.23-0.12,0.32-0.21
			c0.08-0.09,0.16-0.2,0.2-0.31c0.05-0.12,0.07-0.24,0.07-0.37c0-0.25-0.1-0.5-0.28-0.68c-0.18-0.18-0.42-0.28-0.68-0.28h-19.57
			c-0.25,0-0.5,0.1-0.68,0.28c-0.18,0.18-0.28,0.42-0.28,0.68c0,0.13,0.02,0.25,0.07,0.37c0.05,0.12,0.12,0.22,0.21,0.31
			c0.08,0.09,0.19,0.16,0.31,0.21C1027.65,197.6,1027.77,197.63,1027.9,197.63z"/>
		<path style="fill:#3052CE;" d="M1022.78,189.22v1.35h84.45v-1.35c0-1.2-0.48-2.34-1.32-3.19c-0.85-0.85-2-1.32-3.19-1.32h-75.42
			c-1.2,0-2.34,0.48-3.19,1.32C1023.26,186.87,1022.78,188.02,1022.78,189.22L1022.78,189.22z"/>
		<path style="fill:#DEE3FC;" d="M1038.7,187.74c0,0.21,0.06,0.41,0.18,0.58c0.11,0.17,0.28,0.31,0.47,0.38
			c0.19,0.08,0.4,0.1,0.61,0.06c0.2-0.04,0.39-0.14,0.54-0.29c0.14-0.15,0.25-0.33,0.28-0.54c0.04-0.2,0.02-0.41-0.06-0.6
			c-0.08-0.19-0.21-0.35-0.39-0.47c-0.17-0.11-0.37-0.18-0.58-0.18c-0.28,0-0.54,0.11-0.74,0.31
			C1038.81,187.2,1038.7,187.47,1038.7,187.74L1038.7,187.74z"/>
		<path style="fill:#DEE3FC;" d="M1033.35,187.74c0,0.21,0.06,0.41,0.18,0.58c0.11,0.17,0.28,0.31,0.47,0.38
			c0.19,0.08,0.4,0.1,0.61,0.06c0.2-0.04,0.39-0.14,0.54-0.29c0.14-0.15,0.24-0.33,0.28-0.54c0.04-0.2,0.02-0.41-0.06-0.6
			c-0.08-0.19-0.21-0.35-0.39-0.47c-0.17-0.11-0.37-0.18-0.58-0.18c-0.28,0-0.54,0.11-0.74,0.31
			C1033.46,187.2,1033.35,187.47,1033.35,187.74L1033.35,187.74z"/>
		<path style="fill:#DEE3FC;" d="M1028,187.74c0,0.21,0.06,0.41,0.18,0.58c0.11,0.17,0.28,0.31,0.47,0.38
			c0.19,0.08,0.4,0.1,0.61,0.06c0.2-0.04,0.39-0.14,0.54-0.29c0.14-0.15,0.24-0.33,0.28-0.54c0.04-0.2,0.02-0.41-0.06-0.6
			c-0.08-0.19-0.21-0.35-0.39-0.47c-0.17-0.11-0.37-0.18-0.58-0.18c-0.28,0-0.54,0.11-0.74,0.31
			C1028.11,187.2,1028,187.47,1028,187.74L1028,187.74z"/>
		<path style="fill:none;stroke:#495AD6;stroke-width:0.9;stroke-miterlimit:10;" d="M1081.08,181.86h16.71
			c2.48,0,4.49-2.01,4.49-4.49v-16.71c0-2.48-2.01-4.49-4.49-4.49h-16.71c-2.48,0-4.49,2.01-4.49,4.49v16.71
			C1076.59,179.85,1078.61,181.86,1081.08,181.86z"/>
		<path style="fill:none;stroke:#495AD6;stroke-width:1.67;stroke-linecap:round;stroke-linejoin:round;" d="M1093.45,165.3
			l3.71,3.7l-3.73,3.73"/>
		<path style="fill:none;stroke:#495AD6;stroke-width:1.67;stroke-linecap:round;stroke-linejoin:round;" d="M1085.43,165.3
			l-3.7,3.7l3.73,3.73"/>
		<path style="fill:none;stroke:#495AD6;stroke-width:1.67;stroke-linecap:round;stroke-linejoin:round;" d="M1087.71,165.3
			l3.47,7.43"/>
		<path style="fill:#B2C1F9;" d="M1102.1,88.34h-74.18c-2.84,0-5.13,2.3-5.13,5.13v52.27c0,2.83,2.29,5.13,5.13,5.13h74.18
			c2.83,0,5.13-2.3,5.13-5.13V93.47C1107.23,90.63,1104.93,88.34,1102.1,88.34z"/>
		<path style="fill:#F0F4FF;" d="M1039.89,117.08c6.76,0,12.24-5.48,12.24-12.24c0-6.76-5.48-12.24-12.24-12.24
			c-6.76,0-12.24,5.48-12.24,12.24C1027.65,111.6,1033.13,117.08,1039.89,117.08z"/>
		<path style="fill:#FFFFFF;" d="M1057.59,150.84h44.48c1.36,0,2.67-0.54,3.63-1.5c0.96-0.96,1.5-2.27,1.5-3.63v-8.2l-19.47-33.74
			c-0.23-0.4-0.56-0.73-0.97-0.97c-0.4-0.23-0.86-0.35-1.32-0.35c-0.47,0-0.92,0.12-1.33,0.35c-0.4,0.23-0.73,0.57-0.97,0.97
			l-14.71,25.47l-10.92,18.91c-0.23,0.41-0.35,0.88-0.34,1.35C1057.2,149.98,1057.34,150.44,1057.59,150.84L1057.59,150.84z"/>
		<path style="fill:#F0F4FF;" d="M1038.4,150.84h42.56l-12.49-21.63l-6.73-11.66c-0.21-0.36-0.51-0.66-0.87-0.87
			c-0.37-0.21-0.78-0.32-1.19-0.32s-0.83,0.11-1.19,0.32c-0.36,0.21-0.66,0.51-0.87,0.87L1038.4,150.84z"/>
		<path style="fill:#3B47BC;" d="M929.68,297.29h32.81v-49.31h-32.81V297.29z"/>
		<path style="fill:#495AD6;" d="M929.68,247.97h-12.56v49.31h12.56V247.97z"/>
		<path style="fill:#B2C1F9;" d="M918.66,251.45h9.22v-1.57h-9.22V251.45z"/>
		<path style="fill:#B2C1F9;" d="M918.66,254.82h9.22v-1.57h-9.22V254.82z"/>
		<path style="fill:#B2C1F9;" d="M918.66,258.21h9.22v-1.57h-9.22V258.21z"/>
		<path style="fill:#B2C1F9;" d="M918.66,261.58h9.22v-1.57h-9.22V261.58z"/>
		<path style="fill:#B2C1F9;" d="M918.66,264.96h9.22v-1.57h-9.22V264.96z"/>
		<path style="fill:#B2C1F9;" d="M918.66,268.35h9.22v-1.57h-9.22V268.35z"/>
		<path style="fill:#B2C1F9;" d="M918.66,271.72h9.22v-1.57h-9.22V271.72z"/>
		<path style="fill:#B2C1F9;" d="M918.66,275.11h9.22v-1.57h-9.22V275.11z"/>
		<path style="fill:#B2C1F9;" d="M918.66,278.49h9.22v-1.57h-9.22V278.49z"/>
		<path style="fill:#B2C1F9;" d="M918.66,281.86h9.22v-1.57h-9.22V281.86z"/>
		<path style="fill:#B2C1F9;" d="M918.66,285.26h9.22v-1.57h-9.22V285.26z"/>
		<path style="fill:#B2C1F9;" d="M918.66,288.62h9.22v-1.57h-9.22V288.62z"/>
		<path style="fill:#B2C1F9;" d="M918.66,292.01h9.22v-1.57h-9.22V292.01z"/>
		<path style="fill:#B2C1F9;" d="M918.66,295.39h9.22v-1.57h-9.22V295.39z"/>
		<path style="fill:#281616;" d="M967.82,297.28h-16.68c0,0-0.93-2.97,1.09-6.65c0,0,1.35,1.08,5.37,0.35
			c0.88,0.75,1.82,1.41,2.82,1.98C961.6,293.53,968.29,294.87,967.82,297.28z"/>
		<path style="fill:#002C54;" d="M966.66,250.26c-1.08,6.43-6.05,28.17-8.19,41.01c-2.26,0.28-4.55,0.16-6.77-0.35
			c0.2-4.48,0.58-15.19,0.54-19.89c-0.08-7.94-0.45-18.41,3.05-24.15l11.75,0.92c-0.07,0.62-0.13,1.12-0.19,1.48
			C966.79,249.65,966.72,249.96,966.66,250.26z"/>
		<path style="fill:#281616;" d="M997.98,297.28H981.3c0,0-0.93-2.97,1.09-6.65c0,0,1.35,1.08,5.37,0.35
			c0.88,0.75,1.82,1.41,2.82,1.98C991.76,293.53,998.43,294.87,997.98,297.28z"/>
		<path style="fill:#052635;" d="M988.24,290.9c-2.15,0.58-4.38,0.78-6.59,0.59c-0.88-5.16-2.29-16.52-3.53-21.84
			c-1.96-8.27-3.87-19.66-2.54-23.72l11.56-2.91C987.16,243.39,988.1,278.22,988.24,290.9z"/>
		<path style="fill:#052635;" d="M942.22,231.17c0.23-2.29,0.5-3.95,0.5-3.95l12.91,3.16l10.98,2.5c4.07,0.9,8.98,2,13.31,2.97
			c4.86,1.11,8.09,4.8,7.06,9.67l-1.22,5.9c-6.8-0.09-38.76-3.16-41.49-4.53C941.14,245.33,940.21,239.8,942.22,231.17z"/>
		<path style="fill:#002C54;" d="M922.94,231.17c0.23-1.63,0.68-3.23,1.35-4.74l12.07,3.95l10.97,2.5c4.07,0.9,8.99,2,13.32,2.97
			c4.86,1.11,8.09,4.8,7.02,9.67l-1.22,5.9c-6.8-0.09-35.22-1.08-41.5-4.53C921.92,245.21,920.93,239.8,922.94,231.17z"/>
		<path style="fill:#E5918F;" d="M959.11,212.66c0,0-5.74-2.59-7.31,0c-0.87,1.41-0.27,4.07,1.69,5.18
			c1.96,1.11,13.01,5.78,23.45,8.39c0.32-1.02,0.72-2.01,1.16-2.98c-3.28-1.43-6.4-3.17-9.33-5.21
			C965.72,215.95,962.49,214.14,959.11,212.66L959.11,212.66z"/>
		<path style="fill:#E5918F;" d="M957.7,194.74l4.94,19.64c0,0-0.51,4.94-5.52,2.53c-5.01-2.41-8.4-18.06-8.4-18.06L957.7,194.74z"
			/>
		<path style="fill:#FFFFFF;" d="M949.34,205.72c0.61-0.15,1.19-0.31,1.75-0.47c0.56-0.16,1.12-0.35,1.64-0.53
			c2.56-0.82,4.98-2.01,7.19-3.53c-1.47-6.35-3.23-10.68-4.81-13.5c-0.04-0.07-0.08-0.14-0.12-0.21l-0.13-0.2
			c-0.89-1.41-2.05-2.62-3.42-3.57l-0.42-0.28l-0.58,10.25l-0.1,1.06L949.34,205.72z"/>
		<path style="fill:#C7E5F2;" d="M949.34,205.73c0.61-0.15,1.19-0.31,1.75-0.47c0.56-0.16,1.12-0.35,1.64-0.53
			c-0.98-6.9-1.87-11.25-1.87-11.25l-0.5,1.27L949.34,205.73z"/>
		<path style="fill:#FFFFFF;" d="M920.32,188c0.12,3.04,0.65,7.91,1.12,12.81c0.15,1.55,0.28,3.11,0.4,4.61
			c0.08,0.94,1.5,5.94,1.55,6.83c0.25,4.29,2.35,7.48,0.37,14.01c-0.35,0.97-0.55,1.98-0.6,3.01c0,0.44,0.59,0.91,0.81,1.04
			c1.41,0.6,2.92,0.96,4.46,1.07l0,0c4.11,0.41,8.24,0.6,12.37,0.56c4.27,0,10.69-0.71,11.5-1.76c0.81-1.05,0.05-2.41-0.3-4.4
			c-1.57-8.93-1.02-13.59-0.92-20.04c0-0.16,0-0.32,0-0.49c0.16-9.95,0.82-18.46,0.36-21.53l-0.42-0.28
			c-0.71-0.47-1.34-0.88-1.98-1.24l-0.2-0.11l-0.59-0.32l-0.23-0.11c-1.55-0.71-3.14-1.34-4.77-1.88l-0.42-0.13
			c-1.14-0.07-2.38-0.08-3.71-0.05c-1.16,0-2.94,0.19-4.86,0.44c-2.18,0.26-4.34,0.67-6.47,1.21l0,0c-1.95,0.76-3.69,1.97-5.08,3.53
			C921.79,185.75,920.99,186.83,920.32,188L920.32,188z"/>
		<path style="fill:#C7E5F2;" d="M923.75,226.25c-0.35,0.97-0.55,1.98-0.6,3.01c0,0.44,0.59,0.91,0.81,1.04
			c1.41,0.6,2.92,0.96,4.46,1.07c-0.58-0.17-1.1-0.5-1.49-0.96c-0.4-0.46-0.65-1.01-0.74-1.61c0-0.82,1.07-6.35,0.77-9.93
			c-0.3-3.58-0.87-9.24,0.23-13.79c1.1-4.55,2.15-10.53,2.15-10.53l-6.24,3.76c0,0-0.8,1.12-1.68,2.49c0.15,1.55,0.28,3.11,0.4,4.61
			C921.92,206.35,925.74,219.73,923.75,226.25z"/>
		<path style="fill:#002C54;" d="M951.17,161.71c0,0-0.54,6.52-2.7,6.95c-2.16,0.44-1.63-2.33-1.63-2.33l0.3-3.1L951.17,161.71z"/>
		<path style="fill:#E5918F;" d="M941.2,185.33c4.24-0.5,2.65-4.62,2.08-5.56c-0.16-0.05-0.88-0.28-0.94-0.31
			c-0.15-0.13-0.26-0.3-0.33-0.49c-0.26-1.11-0.33-2.26-0.2-3.39l0,0v-0.39c-0.07-0.26-0.14-0.51-0.2-0.71l-2.26-1.77l-4.71-3.7
			c0,0,1.25,6.19,0.25,10.1c-0.08,0.38-0.3,0.72-0.62,0.93l0,0c-0.14,0.09-0.3,0.15-0.47,0.17
			C932.65,180.74,934.26,186.14,941.2,185.33z"/>
		<path style="fill:#CC6362;" d="M937.47,172.93c0.11,1.33,0.59,2.6,1.39,3.67c0.8,1.07,1.89,1.89,3.13,2.36
			c-0.26-1.1-0.34-2.25-0.21-3.37l-1.88-1.45L937.47,172.93z"/>
		<path style="fill:#E5918F;" d="M950.13,162.64c0,0-0.97,13.52-4.62,14.67c-1.56,0.03-3.11-0.32-4.5-1.02
			c-1.39-0.71-2.59-1.75-3.49-3.03c-0.97-1.3-2.18-1.59-2.58-3.15c-0.65-2.54-1.55-7.22-0.4-10.05
			C936.19,156.04,949.98,152.85,950.13,162.64z"/>
		<path style="fill:#002C54;" d="M934.49,157.83c0.06-2.46,2.55-3.37,2.55-3.37c2.47-1.16,7.62-0.66,12.92,0.52
			c1.24,0.28,2.82-0.48,3.67,0.12c1.05,0.71,0,4.05,0,4.05c-2.05,6.2-9.57,4.18-11.84,3.42c-0.54,1.6-0.47,3.81-1.81,4.94
			c-0.76,0.65-2.12,0.67-3.45,0.44c-0.16,0.32-0.78,0.59-0.91,1.03c-0.43,1.41-0.37,3.71-0.35,5.46l-0.64-0.31
			C934.56,173.67,927.95,158.03,934.49,157.83z"/>
		<path style="fill:none;stroke:#FFFFFF;stroke-width:0.5;stroke-miterlimit:10;" d="M946.4,167.19c-0.19,1.12,0.36,2.12,1.24,2.3
			c0.88,0.18,1.74-0.64,1.93-1.77s-0.36-2.15-1.24-2.3C947.46,165.28,946.58,166.07,946.4,167.19z"/>
		<path style="fill:none;stroke:#FFFFFF;stroke-width:0.5;stroke-miterlimit:10;" d="M941.98,166.37c-0.19,1.12,0.36,2.15,1.24,2.3
			c0.88,0.15,1.74-0.64,1.93-1.76s-0.36-2.15-1.24-2.31C943.03,164.45,942.17,165.24,941.98,166.37z"/>
		<path style="fill:none;stroke:#FFFFFF;stroke-width:0.5;stroke-miterlimit:10;" d="M946.4,167.19c0,0-0.19-0.31-1.21-0.23"/>
		<path style="fill:none;stroke:#FFFFFF;stroke-width:0.5;stroke-miterlimit:10;" d="M941.94,166.64l-3.78-0.61"/>
		<path style="fill:#E5918F;" d="M937.89,170.82c-2.6,1-3.41-5.39-0.94-5.68c1.87-0.21,1.94,2.4,1.94,2.4
			S939.34,170.26,937.89,170.82z"/>
		<g style="opacity:0.5;">
			<path style="fill:#CC6362;" d="M937.03,166.1c1.41,0.41,1.41,2.37,0.55,3.3C937.66,168.23,937.86,167.11,937.03,166.1z"/>
			<path style="fill:#CC6362;" d="M936.62,167.32c0.31-0.03,0.61,0.03,0.89,0.18c0.27,0.15,0.48,0.38,0.61,0.66l-0.48,0.18
				c-0.04-0.26-0.16-0.49-0.35-0.68C937.12,167.48,936.88,167.36,936.62,167.32L936.62,167.32z"/>
		</g>
		<path style="fill:#E5918F;" d="M912.92,215.25c1.14,1.33,5.47,2.29,7.56,0.46c0.65-0.59,1.41-2.12,2.12-4.03
			c1.41-3.99,2.6-8.06,3.59-12.17l-9.69-4.94c0,0-1.24,5.59-2.32,10.91c0,0,0,0.05,0,0.15c-0.35,1.7-0.67,3.37-0.93,4.82
			c0,0.04,0,0.08,0,0.11C912.95,212.09,912.84,213.67,912.92,215.25L912.92,215.25z"/>
		<path style="fill:#FFFFFF;" d="M929.85,192.71c-0.94,3.89-3.88,11.3-3.88,11.3c-2.41,0.27-4.84-0.03-7.11-0.89
			c-1.7-0.65-3.24-1.66-4.53-2.94c0,0,1.95-5.48,3.7-9.43c1.57-3.53,2.52-4.86,3.2-5.56c1.12-1.15,2.42-2.11,3.85-2.86
			L929.85,192.71z"/>
		<path style="fill:#FFFFFF;" d="M917.6,195.25l5.65-2.46l4.48-11.54c0,0-0.82,0.25-1.9,0.71l-0.15,0.06l-0.08,0.04
			c-0.97,0.45-4.72,2.66-7.31,10.69l-0.06,0.2c-0.28,0.92-0.48,1.67-0.59,2.05c0,0.04,0,0.08,0,0.11
			C917.62,195.15,917.61,195.21,917.6,195.25z"/>
		<path style="fill:#E5918F;" d="M912.92,215.24c0.08,0.71,0.28,1.22,0.63,1.41l0.91,0.54c1.93,1.17,3.94,2.21,6.01,3.11
			c6.87,2.87,13.87,5.39,21,7.54c0.37-1,0.79-1.98,1.28-2.93c-3.21-1.56-6.27-3.43-9.12-5.59c-4.53-3.45-11.03-7.65-11.03-7.65
			l-1.61-1.93c0,0-5.84-5.37-6.78-4.29c0,0,0,0.05,0,0.15c-0.13,0.56-0.6,2.62-0.93,4.82c0,0.04,0,0.07,0,0.11
			C912.97,212.08,912.85,213.67,912.92,215.24L912.92,215.24z"/>
		<path style="fill:#E5918F;" d="M942.06,224.59c0.7,0.4,1.5,0.55,2.3,0.44c0.64-0.13,0.9-0.4,1.38-0.48
			c0.81-0.09,1.6-0.27,2.37-0.54c0.63-0.31,0.88-0.35,0.85,0.28c-0.02,0.63-1.26,1.18-1.6,1.35c-0.32,0.22-0.59,0.49-0.8,0.8
			c-0.04,0.07,2.06,1.17,2.63,0.95c0.09,0.25,0.11,0.52,0.08,0.79c-0.1,0.28-0.53,0.38-0.56,0.52c-0.04,0.14,0.1,0.44,0,0.66
			c-0.1,0.23-0.48,0.23-0.64,0.59c-0.16,0.37,0,0.37-0.1,0.76c-0.1,0.38-0.61,0.45-0.71,0.65c-0.1,0.2-0.04,0.43-0.25,0.56
			c-0.2,0.13-2.12-0.47-2.82-0.77c-0.71-0.3-2.54-2.96-4.59-3.87L942.06,224.59z"/>
		<path style="fill:#375F84;" d="M932.37,236.47h14.74v-1.41h-14.74c-0.19,0-0.37,0.07-0.5,0.21c-0.13,0.13-0.21,0.31-0.21,0.5
			c0,0.19,0.07,0.37,0.21,0.5C932,236.4,932.18,236.47,932.37,236.47z"/>
		<path style="fill:#375F84;" d="M940.35,236.48h36.92c0.21,0,0.42-0.07,0.59-0.19c0.18-0.13,0.3-0.31,0.36-0.51l7.55-27.2
			c0.04-0.14,0.04-0.29,0.02-0.43c-0.03-0.14-0.09-0.28-0.18-0.39c-0.09-0.12-0.2-0.21-0.33-0.28c-0.13-0.06-0.28-0.1-0.42-0.1
			h-35.7c-0.4,0-0.8,0.13-1.12,0.38c-0.32,0.24-0.55,0.59-0.66,0.98l-7.53,27.11c-0.02,0.08-0.02,0.15,0,0.23
			c0.01,0.08,0.05,0.15,0.1,0.21c0.05,0.06,0.11,0.11,0.18,0.15C940.19,236.46,940.27,236.47,940.35,236.48L940.35,236.48z"/>
		<path style="fill:#467CDB;" d="M941.69,236.48h36.92c0.21,0,0.42-0.07,0.59-0.2c0.17-0.13,0.29-0.31,0.35-0.51l7.55-27.2
			c0.04-0.14,0.04-0.29,0.02-0.43c-0.03-0.14-0.09-0.28-0.18-0.39c-0.09-0.12-0.2-0.21-0.33-0.28c-0.13-0.06-0.28-0.1-0.42-0.1
			h-35.7c-0.4,0-0.8,0.13-1.12,0.38c-0.32,0.24-0.55,0.59-0.66,0.98l-7.53,27.11c-0.02,0.08-0.02,0.16-0.01,0.23
			c0.02,0.08,0.05,0.15,0.1,0.21c0.05,0.06,0.11,0.11,0.18,0.15C941.53,236.46,941.61,236.48,941.69,236.48L941.69,236.48z"/>
		<path style="fill:#E49191;" d="M1112.32,218.9l-4.28-4.38c-0.04-0.8-0.17-1.59-0.38-2.37c-0.23-0.42-0.83-1.94-1.14-2.12
			c-0.29-0.09-0.61-0.09-0.9,0c-0.28-0.1-0.56-0.16-0.86-0.2c-0.27,0.04-0.52,0.12-0.76,0.25c0,0-0.64-0.05-0.91-0.05
			c-0.12-0.01-0.25,0.01-0.35,0.08c-0.48-0.56-0.99-1.09-1.53-1.59c-0.5-0.4-1.26-1.13-1.49-1.13c-0.23,0-0.31,0.38-0.16,0.78
			c0.23,0.39,0.5,0.74,0.83,1.04l1.95,2.95c-0.18-0.07-0.35-0.15-0.51-0.24c-0.18-0.11-1.37-1.22-1.41-1.26
			c-0.04-0.04-0.61-0.4-0.92-0.05s2.04,3.18,2.42,3.53c0.81,0.55,1.66,1.04,2.53,1.47c0,0,2.28,4.11,2.51,4.38
			C1107.2,220.25,1112.32,218.9,1112.32,218.9z"/>
		<path style="fill:#E49191;" d="M1108.31,198.65c0,0,2.39,13.85,4.64,14.16c0,0,8.98,0.36,10.98-10.53
			c1.74-9.45-5.22-11.46-8.47-10.74C1112.2,192.27,1107.61,192.74,1108.31,198.65z"/>
		<path style="fill:#E49191;" d="M1116.24,210.61c0,0,1.26,1.69,1.7,5.8c2.46,0.26,4.96-0.16,7.19-1.24
			c-1.19-3.93-1.9-7.99-2.12-12.09"/>
		<path style="fill:#002C54;" d="M1118.78,189.23c4.91,1.08,4.51,4.14,4.51,4.14c2.3,0.57,2.82,1.52,2.77,5.76
			c-0.05,4.24-1.55,9.33-2.4,9.74c-0.85,0.42-5.65,0.43-6.04,0.29c-0.4-0.14-2.08-4.04-1.69-4.72c0.39-0.68,0-3.37-1.14-3.47
			c-1.14-0.1-0.9,1.63-0.9,1.63l-0.92-0.2l-0.71-1.74c-6.48,0.39-8.15-7-8.15-7C1105.67,192.64,1113.87,188.15,1118.78,189.23z"/>
		<path style="fill:#E5918F;" d="M1173.24,282.93l-4.94,0.71l1.64,5.8l5.37-1.36c0.3-0.4,0.5-0.86,0.6-1.35
			c0.11-0.49,0.11-0.99,0-1.48c-0.11-0.49-0.32-0.95-0.61-1.35c-0.3-0.4-0.68-0.73-1.11-0.98
			C1173.88,282.84,1173.55,282.84,1173.24,282.93L1173.24,282.93z"/>
		<path d="M1136.21,268.04l7.31-22.14c0,0,2.22-0.78,3.35,0c0,0,7.62,4.1,6.8,15.78c-0.64,7.45-1.72,14.86-3.22,22.18l19.51-0.71
			c0.71,0.93,1.16,2.02,1.31,3.18c0.15,1.16-0.01,2.33-0.46,3.4c0,0-24.51,6.59-27.97,7.2c-2.82,0.49-5.87,0.88-7.36-0.4
			C1132.88,294.3,1136.21,268.04,1136.21,268.04z"/>
		<path style="fill:#E5918F;" d="M1150.14,282.93l-4.94,0.71l1.64,5.8l5.37-1.36c0.3-0.4,0.5-0.86,0.6-1.35
			c0.11-0.49,0.11-0.99,0-1.48c-0.11-0.49-0.31-0.95-0.61-1.35c-0.29-0.4-0.67-0.74-1.1-0.98
			C1150.78,282.84,1150.45,282.84,1150.14,282.93L1150.14,282.93z"/>
		<path style="fill:#467CDB;" d="M1151.94,285.97c0.11,1.14-0.88,2.17-0.71,2.45c0.18,0.28,3.53,5.88,3.53,5.88
			s-2.52,1.09-2.12,2.68h6.35c1-0.96,1.57-2.27,1.62-3.65c-0.32-1.62-0.85-3.19-1.57-4.67l-3.66-7.14c-0.69-0.2-1.43-0.18-2.12,0.04
			c-1.09,0.33-2.13,0.81-3.09,1.41C1150.18,282.96,1151.67,283.15,1151.94,285.97z"/>
		<path style="fill:#002C54;" d="M1100.87,291.89c1.57-5.87,16.38-30.95,21.39-37.72c10.29-4.47,21.26-8.26,21.26-8.26
			c4.54,1.09,6.77,10.22,4.24,16.32c-1.77,4.19-12.96,14.71-19.82,20.9h19.06c0,0,2.24,3.35,0.2,6.53c0,0-31.64,7.19-34.42,7.6
			s-9,0-9,0S1099.55,296.83,1100.87,291.89z"/>
		<path style="fill:#467CDB;" d="M1175.04,285.97c0.11,1.14-0.89,2.17-0.71,2.45c0.18,0.28,3.53,5.88,3.53,5.88
			s-2.51,1.09-2.12,2.68h6.35c1-0.96,1.58-2.27,1.62-3.65c-0.31-1.62-0.84-3.19-1.57-4.67l-3.72-7.14c-0.69-0.2-1.43-0.18-2.12,0.04
			c-1.09,0.33-2.13,0.8-3.09,1.41C1173.23,282.96,1174.77,283.15,1175.04,285.97z"/>
		<path style="fill:#E49191;" d="M1077.02,214.64l10.21,17.95l7.31-7.28l6.05,9l-1.76,0.85l0.64,0.52c0,0-14.12,6.87-15.8,5.35
			c-1.68-1.52-9.56-24.35-9.56-24.35L1077.02,214.64z"/>
		<path style="fill:#467CDB;" d="M1093.26,226.44c0,0,1.93,8.13,5.78,12l9.88-3.76c0,0,4.58,7.7,9.05,13.6
			c1.72,2.28,2.29,5.49,4.31,5.9l0.37-0.11c5.48-1.64,13.56,0.11,20.23-2.37c7.36-2.75,5.94-4.29,5.94-4.29
			c-2.85-5.29-5.2-10.84-7-16.58c-0.98-3.29-1.79-6.63-2.44-10c-0.44-2.37-1.62-4.54-3.36-6.2c-1.74-1.66-3.97-2.74-6.35-3.07h-0.16
			c-5.58-0.71-20.21,1.02-23.05,2.24C1103.61,215.02,1093.26,226.44,1093.26,226.44z"/>
		<path style="fill:#5996EF;" d="M1108.9,234.67c0,0,4.57,7.7,9.05,13.6c1.72,2.28,2.29,5.49,4.31,5.9
			c-0.88-0.31-2.35-4.94-2.87-6.02c-0.52-1.07-1.36-2.12-3.17-5.75c-1.81-3.63-4.24-9.04-4.24-9.04L1108.9,234.67z"/>
		<path d="M1127.91,283.12c-3.33,0.49-6.54,0.9-9.84,1.41C1121.12,283.04,1124.56,282.55,1127.91,283.12L1127.91,283.12z"/>
		<path style="fill:#E49191;" d="M1069.42,208.03c0.61,0.35,1.19,0.76,1.72,1.24l-0.59-1.12c-0.37-0.36-0.73-0.74-1.04-1.15
			c-0.28-0.4-0.13-0.81,0.09-0.83c0.58,0.32,1.12,0.7,1.6,1.14l-0.11-0.22c-0.37-0.36-0.72-0.74-1.04-1.15
			c-0.28-0.41-0.13-0.82,0.08-0.84c0.71,0.43,1.37,0.92,1.99,1.46l0.86,1.16l-0.65-1.26c-0.22-0.27-0.41-0.57-0.57-0.88
			c-0.23-0.45-0.06-0.59,0.06-0.75c0.13-0.16,1.32,0.71,1.62,1.09c0.49,0.63,0.94,1.3,1.34,1.99l1,2.06
			c0.06-0.59,0.16-1.62,0.23-2.27c0.11-0.94,0.95-1.16,0.98-0.71c0.24,1.29,0.37,2.6,0.4,3.92c-0.11,1.21-0.31,2.02-0.39,2.7
			c0.08,0.72,0.29,1.41,0.64,2.05c0,0-2.82,1.77-3.31,1.24c-0.71-0.78-1.36-1.61-1.95-2.49c-0.46-0.8-0.83-1.64-1.12-2.51
			l-0.88-1.89c-0.37-0.36-0.72-0.74-1.04-1.15C1069.05,208.46,1069.2,208.03,1069.42,208.03z"/>
		<path style="fill:#0070D6;" d="M347.91,136.77c0,0,14.96,14.73,15.65,20.29c0.69,5.56-6.79,14.24-6.79,14.24L347.91,136.77z"/>
		<path style="fill:#060632;" d="M342.47,289.77c0,0-0.48,7.83-1.98,7.93c-0.2,0-7.69,0-7.69,0l-9.55-0.06c0,0,0.07-2.3,2.86-2.78
			c2.79-0.48,7.46-2.45,9.15-6.14C337.06,284.86,342.47,289.77,342.47,289.77z"/>
		<path style="fill:#060632;" d="M363.78,289.77c0,0-0.48,7.83-1.98,7.93c-0.2,0-7.68,0-7.68,0l-9.55-0.06c0,0,0.06-2.3,2.86-2.78
			c2.8-0.48,7.46-2.45,9.15-6.14C358.34,284.86,363.78,289.77,363.78,289.77z"/>
		<path style="fill:#060632;" d="M331.9,205.61c0,0,2.5,15.98,11.82,44.34c9.32,28.36,10.58,40.64,10.58,40.64l9.99-0.28
			c0,0,0.09-30.99-4.2-45.26c-4.29-14.26-0.93-51.42-0.93-51.42L331.9,205.61z"/>
		<path style="fill:#0B0754;" d="M327.06,194.51c0.03,17.94,1.3,35.86,3.81,53.62c4.16,29.56,2.75,42.11,2.75,42.11l9.98,0.33
			c0,0,5.95-29.57,4.25-44.37c-1.7-14.8,8.16-50.78,8.16-50.78L327.06,194.51z"/>
		<path style="fill:#FC9290;" d="M346.37,138.16l-4.71,3.49l-6.8-1.43c0.09-0.62,0.54-3.19,0.95-5.52c0-0.14,0.05-0.27,0.07-0.41
			c0.35-1.98,0.66-3.68,0.66-3.68l6.35-3.17l2.37-1.18c0,0.05-0.19,2.2-0.2,2.52C344.75,131.96,345.2,135.18,346.37,138.16
			L346.37,138.16z"/>
		<path style="fill:#0070D6;" d="M335.34,136.42c0.15-0.06,9.25-2.75,10.24-2.42c0.98,0.33,1.58,2.24,1.58,2.24l-14.89,3.36
			C332.27,139.61,333.44,137.2,335.34,136.42z"/>
		<path style="fill:#0070D6;" d="M359.85,197.48c-1.51,7.03-27.22,7.87-33.84,1.49c-0.75-0.73-0.79-4.12-0.51-8.69
			c0.56-8.93,2.34-22.35,2.41-29.22c0.07-3.29,0.43-6.56,1.09-9.78c0.79-3.98,1.88-7.89,3.26-11.7c0,0,12.56-4.06,14.89-3.36
			C358.46,139.54,361.4,190.44,359.85,197.48z"/>
		<path style="fill:#0070D6;" d="M325.5,190.28c0.56-8.93,2.34-22.35,2.41-29.22c0.07-3.28,0.43-6.56,1.09-9.78l7.55-1.32
			C336.56,149.97,343.93,180.09,325.5,190.28z"/>
		<path style="fill:#FC9290;" d="M329.59,177.84c0.14,0.36,0.16,0.75,0.06,1.12c-0.1,0.37-0.32,0.7-0.62,0.93
			c-1.1,0.81-1.76,2.13-1.53,3.13c0.22,1,2.64,2.57,3.44,2.32c0.79-0.25,2.49-1.55,2.31-2.06s1.12-4.52-0.88-6.07
			S329.59,177.84,329.59,177.84z"/>
		<path style="fill:#0070D6;" d="M338.01,138.02c0,0-7.34,1.14-13.22,9.78c-5.88,8.64-9.7,15.06-8.63,18.18
			c1.08,3.11,10.93,13.91,12.62,13.91s4.44-1.24,4.59-4.01c0,0-6.93-10.38-5.57-11.94c0.59-0.66,9-7.5,10.2-4.41
			C340,164.63,338.01,138.02,338.01,138.02z"/>
		<path style="fill:#ED6966;" d="M344.58,128.87c-1.39,2.64-6.61,4.98-8.76,5.82c0-0.14,0.05-0.27,0.07-0.41
			c0.35-1.98,0.66-3.68,0.66-3.68l6.35-3.17C344.3,127.42,345.16,127.77,344.58,128.87z"/>
		<path style="fill:#FC9290;" d="M333.46,130.23c0,0,11.46,3.58,13.58-3.6c2.12-7.17,5.02-11.54-2.21-14.13s-9.47-0.27-10.75,1.95
			C332.78,116.68,330.53,129.15,333.46,130.23z"/>
		<path style="fill:#0B0754;" d="M335.86,114.05c0,0,0.66,8.59,2.4,8.22c1.74-0.38,3.3-0.66,3.03,1.92
			c-0.28,2.58-2.7,5.62,2.64,6.03c5.34,0.42,13.1-13.81,11.66-16.49C351.43,106.02,329.84,104.69,335.86,114.05z"/>
		<path style="fill:#FC9290;" d="M434.13,223.51c0,0-3.03,0.71-4.96,0.18s-5.24,0.34-5.77,0.99c-0.53,0.64-0.34,0.9,0.62,1.12
			c0.95,0.23,4.32,1.54,6.54,0.78c1.65-0.49,3.37-0.76,5.11-0.79L434.13,223.51z"/>
		<path style="fill:#3662C1;" d="M461.45,195.9c0,0-3.48,24.85-9.24,27.08c-2.84,1.1-15.41,3.59-19.12,3.84c0,0-0.91-0.74-0.68-3.74
			c0,0,13.16-4.86,15.03-7.49c2.79-3.93-1.73-16.06,1.77-19.75C452.69,192.14,458.57,190.52,461.45,195.9z"/>
		<path style="fill:#120E59;" d="M460.89,292v-5.44h8.5c0.11,0,0.22-0.04,0.3-0.12c0.08-0.08,0.12-0.19,0.12-0.3v-0.86
			c0-0.11-0.05-0.22-0.12-0.29c-0.08-0.08-0.19-0.12-0.3-0.12h-8.5v-30.71c0-0.42-0.17-0.81-0.46-1.11
			c-0.29-0.29-0.69-0.46-1.11-0.46h-1.68c-0.42,0-0.81,0.17-1.11,0.46c-0.29,0.29-0.46,0.69-0.46,1.11v30.71h-8.5
			c-0.11,0-0.22,0.04-0.29,0.12c-0.08,0.08-0.12,0.18-0.12,0.29v0.86c0,0.05,0.01,0.11,0.03,0.16c0.02,0.05,0.05,0.1,0.09,0.14
			c0.04,0.04,0.08,0.07,0.14,0.09c0.05,0.02,0.11,0.03,0.16,0.03h8.5V292c-6.15,0.47-11.08,2.68-12.46,5.54h29.74
			C471.97,294.68,467.04,292.47,460.89,292z"/>
		<path style="fill:#060632;" d="M460.29,248.65c-1.03,1.7-2.17,3.33-3.42,4.88c-3.75,4.73-7.85,8.64-8.57,12.33
			c-0.16,0.8-0.38,1.59-0.66,2.36c-0.3,0.85-0.66,1.73-1.09,2.65c-1.84,3.78-3.96,7.41-6.36,10.86c-4.12,6.08-7.99,11.17-7.99,11.17
			l-7.1-0.3c0.28-0.71,3.38-9.12,7.53-19.4l5.2-12.89c0.23-0.57,0.47-1.14,0.68-1.71l1.55-3.85l6.99-17.33
			c0,0,15.55-5.88,17.16-2.07C465.55,238.51,464.47,241.59,460.29,248.65z"/>
		<path style="fill:#060632;" d="M431.7,291.51c0,0-0.35,5.95-1.49,6.03c-0.15,0-13.05,0-13.05,0c0.07-0.56,0.32-1.08,0.72-1.47
			c0.4-0.39,0.92-0.64,1.48-0.69c2.1-0.37,5.62-1.85,6.89-4.64C427.61,287.8,431.7,291.51,431.7,291.51z"/>
		<path style="fill:#060632;" d="M448.16,275.06c0,0,5.16,3.12,4.66,4.15c-0.07,0.14-2.94,4.95-2.94,4.95l-3.68,6.11
			c0,0-1.55-0.87-0.81-2.83c0.73-1.97,1.17-5.68-0.7-8.09C442.73,276.81,448.16,275.06,448.16,275.06z"/>
		<path style="fill:#0B0754;" d="M441.79,234.74c0,0-19.71,12.12-21.87,20.22c-2.16,8.1,26.02,25.38,26.02,25.38s3.1-2.7,3.64-4.68
			c0,0-12.75-15.11-15.52-18.5c-1.71-2.08,25.09-7.18,28.37-12.24c3.29-5.06,2.1-9.29,2.1-9.29L441.79,234.74z"/>
		<path style="fill:#0070D6;" d="M478.5,249.95h-40.05c-0.8,0-1.46,0.67-1.46,1.5v8.24c0,0.83,0.65,1.5,1.46,1.5h40.05
			c0.8,0,1.46-0.67,1.46-1.5v-8.24C479.96,250.62,479.31,249.95,478.5,249.95z"/>
		<path style="fill:#FC9290;" d="M460.13,191.68c0,0-7.83,4.42-12.56,3.19c0.83-1.09,1.85-2.02,3.01-2.75
			c-0.1-0.48-0.19-0.9-0.27-1.31c-0.25-1.22-0.43-2.44-0.53-3.68l3.61-3.28l2.43,0.52c0.05,0.24,0.09,0.48,0.16,0.71
			C456.56,187.69,458.03,190.03,460.13,191.68L460.13,191.68z"/>
		<path style="fill:#6D89CF;" d="M465.29,213.99c-0.68,8.95,0.21,22.56-0.55,24.91c-0.66,2.04-8.23,0.83-11.25,0.15
			c-1.12-0.25-2.47-0.61-3.87-1.04c-3.9-1.18-8.15-2.87-8.6-4.13c0-0.05-0.03-0.1-0.04-0.14v-0.1c-0.02-0.14-0.01-0.29,0.02-0.43
			c0.15-0.64,0.74-1.34,0.81-2.92c0.08-1.77,0.07-3.86,0.13-6.1c0-0.25,0-0.53,0.04-0.78v-0.09c0-0.05,0-0.09,0-0.14
			c0.06-2.5,0.2-5.12,0.35-7.73c0.1-1.64,0.21-3.26,0.34-4.81c0.34-4.01,0.8-7.57,1.42-9.82c0.99-3.68,3.18-6.05,5.17-7.83
			l1.42-1.21c1.77,0.33,3.6,0.09,5.21-0.68c1.85-0.87,2.5-1.48,2.84-1.25C463,193.09,466.09,203.08,465.29,213.99z"/>
		<path style="fill:#3662C1;" d="M449.67,238.05c-3.92-1.17-8.2-2.84-8.66-4.09c0-0.05-0.03-0.1-0.04-0.14c0-0.03,0-0.06,0-0.1
			c-0.02-0.14-0.01-0.29,0.02-0.42c0.15-0.63,0.74-1.32,0.81-2.88c0.08-1.75,0.07-3.81,0.13-6.03c0-0.25,0-0.52,0.04-0.77v-0.09
			c0-0.05,0-0.09,0-0.14l14.82-6.48C456.8,216.9,457.64,228.42,449.67,238.05z"/>
		<path style="fill:#ED6966;" d="M456.16,185.03c-0.57,1.29-2.27,4.34-6.05,5.43c-0.27-1.15-0.45-2.32-0.56-3.49l3.86-3.12
			l2.59,0.49C456.05,184.59,456.1,184.81,456.16,185.03z"/>
		<path style="fill:#FC9290;" d="M448.63,187.09c0,0,7.26,0.89,7.7-4.05c0.44-4.94,1.68-8.15-2.93-8.92
			c-4.61-0.77-5.69,1.01-6.22,2.62C446.66,178.34,446.74,186.73,448.63,187.09z"/>
		<path style="fill:#0B0754;" d="M456.3,183.19c0,0-0.46-6.17-7.31-6.83c-4.68-0.46-2.07-4.43-1.57-5.07c0,0,3.59,0.49,7.26,1.09
			C462.4,173.67,457.06,182.21,456.3,183.19z"/>
		<path style="fill:#3662C1;" d="M438.29,227.88l-19.02,0.4l-5.41-16.67l-0.67,0.22l5.72,17.63l19.4-0.42L438.29,227.88z"/>
		<path style="fill:#FC9290;" d="M435.86,226.81c0,0-2.93,1.22-4.91,0.83c-1.99-0.39-5.17,1.04-5.62,1.88
			c-0.46,0.83-0.23,1.11,0.75,1.26c0.98,0.15,4.49,1.31,6.6,0.14c1.58-0.79,3.26-1.32,4.99-1.57L435.86,226.81z"/>
		<path style="fill:#6D89CF;" d="M460.13,197.29c0,0-0.75,24.8-6.34,27.62c-2.76,1.39-15.22,5.22-18.97,5.87
			c0,0-1.01-0.63-1.12-3.62c0,0,12.84-6.22,14.42-9.02c2.38-4.17-3.55-15.59-0.42-19.6C450.81,194.53,456.6,192.32,460.13,197.29z"
			/>
		<path style="fill:#0070D6;" d="M159.09,159.04L148.1,289.73c0,0-1.15,7.93,4.75,7.93c9.68,0,48.22,0,48.22,0s-7.27-1.65-7.2-5.35
			c0.11-4.38,12.85-134.5,12.85-134.5L159.09,159.04z"/>
		<path style="fill:#0070D6;" d="M204.19,295.29c-1.9,0-38.71,0.12-48.15,0c-4.11-0.05-4.83-3.66-4.86-5.99
			c-0.01-0.65,0.03-1.3,0.13-1.95l0.28-3.4l0.73-8.65l0.66-7.65l0.83-9.83l0.66-8.3l7.81-92.86l47.59-1.24c0,0-5.37,54.46-9.16,94.1
			c-0.42,4.42-0.83,8.65-1.2,12.6c-0.13,1.26-0.24,2.49-0.35,3.69c-0.36,3.75-0.66,7.19-0.96,10.23c-0.15,1.61-0.28,3.09-0.4,4.46
			c-0.49,5.34-0.77,8.76-0.77,9.41c0,0.35,0.03,0.71,0.09,1.06C197.94,295.15,203.48,295.29,204.19,295.29z"/>
		<path style="fill:#0072F1;" d="M43.46,87.93l26.77,107.54l3.67,14.73l12.47,50.08h231.65L272.06,87.93H43.46z"/>
		<path style="fill:#0070D6;" d="M43.46,87.93l-3.71,1.24l41.68,174.85l4.93-3.74L43.46,87.93z"/>
		<path style="fill:#0070D6;" d="M81.43,264.02h230.22l6.36-3.74H86.37L81.43,264.02z"/>
		<path style="fill:#0070D6;" d="M212.13,295.34h-49.85v2.37h49.85V295.34z"/>
		<path style="fill:#6D89CF;" d="M306.79,228.52L269.21,90.21H43.09v-2.28h228.97l37.46,140.28L306.79,228.52z"/>
		<path style="fill:#0070D6;" d="M199.45,264.02l-0.25,1.81l-46.88,9.47l0.65-7.65l0.3-3.64H199.45z"/>
		<path style="fill:#0070D6;" d="M204.19,295.29c-1.9,0-38.71,0.12-48.15,0c-4.11-0.05-4.83-3.66-4.86-5.99l46.66-8.78
			c-0.49,5.34-0.77,8.76-0.77,9.41c0,0.35,0.03,0.71,0.09,1.06C197.94,295.15,203.48,295.29,204.19,295.29z"/>
		<path style="opacity:0.1;fill:#0B0754;enable-background:new    ;" d="M188.12,225.39L86.37,260.28L73.9,210.19L188.12,225.39z"/>
		<path style="opacity:0.8;fill:#66B6FF;enable-background:new    ;" d="M43.46,87.93h228.6l37.09,138.51H76.77L43.46,87.93z"/>
		<path style="fill:#0070D6;" d="M208.33,243.95c-0.37-1.69-1.29-3.21-2.62-4.33c-1.33-1.11-2.99-1.75-4.72-1.82
			c-3.4,0-5.62,2.76-4.96,6.15c0.37,1.7,1.29,3.22,2.62,4.34c1.33,1.11,2.99,1.76,4.73,1.82
			C206.77,250.11,208.99,247.35,208.33,243.95z"/>
		<path style="fill:#DEE9FD;" d="M298.36,220.44H84.33l-24.24-96.56l-1.86-7.4l-1.59-6.32l-3.71-14.81h210.95l4.08,14.81l1.74,6.32
			l2.04,7.4L298.36,220.44z"/>
		<path style="fill:#C1D4FA;" d="M267.97,110.16H56.65l-3.71-14.81h210.95L267.97,110.16z"/>
		<path style="fill:#DEE9FD;" d="M63.05,100.19c-0.23-0.01-0.46,0.03-0.66,0.13c-0.21,0.1-0.39,0.24-0.52,0.43
			c-0.14,0.18-0.23,0.4-0.26,0.62c-0.04,0.23-0.01,0.46,0.06,0.67c0.14,0.51,0.44,0.97,0.86,1.3c0.42,0.33,0.93,0.52,1.46,0.55
			c0.23,0.01,0.46-0.03,0.66-0.13c0.21-0.1,0.39-0.24,0.52-0.43c0.14-0.18,0.23-0.4,0.26-0.62c0.04-0.23,0.01-0.46-0.06-0.67
			c-0.14-0.51-0.44-0.97-0.86-1.3C64.09,100.41,63.58,100.22,63.05,100.19L63.05,100.19z"/>
		<path style="fill:#DEE9FD;" d="M69.2,100.19c-0.23-0.01-0.46,0.03-0.66,0.13c-0.21,0.1-0.39,0.24-0.52,0.43
			c-0.14,0.18-0.23,0.4-0.26,0.62c-0.04,0.23-0.01,0.46,0.06,0.67c0.14,0.51,0.44,0.97,0.86,1.3c0.42,0.33,0.93,0.52,1.46,0.55
			c0.23,0.01,0.45-0.04,0.66-0.13c0.21-0.1,0.38-0.24,0.52-0.43s0.23-0.4,0.26-0.62c0.04-0.23,0.02-0.46-0.06-0.67
			c-0.14-0.51-0.44-0.97-0.86-1.3C70.24,100.41,69.73,100.22,69.2,100.19L69.2,100.19z"/>
		<path style="fill:#DEE9FD;" d="M78.14,102.05c-0.14-0.51-0.44-0.97-0.86-1.3c-0.42-0.33-0.93-0.53-1.46-0.55
			c-0.23-0.01-0.46,0.03-0.66,0.13c-0.21,0.1-0.39,0.24-0.52,0.43c-0.14,0.18-0.23,0.4-0.26,0.62c-0.04,0.23-0.01,0.46,0.06,0.67
			c0.14,0.51,0.44,0.97,0.86,1.3c0.42,0.33,0.93,0.52,1.46,0.55c0.23,0.01,0.45-0.04,0.66-0.13c0.21-0.1,0.39-0.24,0.52-0.43
			c0.14-0.18,0.23-0.4,0.26-0.62C78.23,102.5,78.21,102.27,78.14,102.05L78.14,102.05z"/>
		<path style="fill:#C1D4FA;" d="M261.9,149.98c0.16,0.01,0.31-0.03,0.46-0.09c0.14-0.07,0.27-0.17,0.36-0.3
			c0.09-0.13,0.16-0.27,0.18-0.43c0.02-0.16,0.01-0.31-0.04-0.46c-0.1-0.35-0.31-0.67-0.59-0.9c-0.29-0.23-0.64-0.36-1.01-0.38
			h-22.78c-0.16-0.01-0.31,0.03-0.45,0.09c-0.14,0.07-0.26,0.17-0.36,0.29c-0.09,0.12-0.16,0.27-0.18,0.43
			c-0.03,0.15-0.01,0.31,0.04,0.46c0.1,0.35,0.31,0.67,0.59,0.9c0.29,0.23,0.64,0.36,1.01,0.38H261.9z"/>
		<path style="fill:#C1D4FA;" d="M259.08,131.79c-0.1-0.35-0.3-0.67-0.59-0.9c-0.29-0.23-0.64-0.36-1-0.38h-22.75
			c-0.16-0.01-0.32,0.02-0.47,0.08c-0.15,0.07-0.27,0.17-0.37,0.29c-0.1,0.13-0.16,0.28-0.19,0.43c-0.03,0.16-0.01,0.32,0.04,0.47
			c0.1,0.35,0.31,0.67,0.6,0.89s0.64,0.36,1,0.38h22.78c0.16,0.01,0.31-0.02,0.46-0.09c0.14-0.07,0.27-0.17,0.36-0.29
			c0.09-0.13,0.16-0.27,0.18-0.43C259.14,132.1,259.13,131.94,259.08,131.79L259.08,131.79z"/>
		<path style="fill:#C1D4FA;" d="M263.11,154.85c0.16,0.01,0.31-0.03,0.46-0.09c0.14-0.07,0.27-0.17,0.36-0.3
			c0.09-0.13,0.16-0.27,0.18-0.43c0.02-0.16,0.01-0.32-0.04-0.46c-0.1-0.35-0.3-0.66-0.59-0.89c-0.28-0.23-0.63-0.36-0.99-0.39
			h-22.8c-0.16-0.01-0.31,0.02-0.46,0.09c-0.14,0.07-0.27,0.17-0.36,0.29c-0.09,0.13-0.16,0.27-0.18,0.43
			c-0.03,0.16-0.01,0.31,0.04,0.46c0.1,0.35,0.3,0.67,0.59,0.9c0.29,0.23,0.64,0.36,1.01,0.38H263.11z"/>
		<path style="fill:#C1D4FA;" d="M265.29,158.43c-0.1-0.35-0.31-0.67-0.6-0.89c-0.29-0.23-0.64-0.36-1-0.38h-22.78
			c-0.16-0.01-0.31,0.02-0.46,0.09c-0.14,0.07-0.27,0.17-0.36,0.29c-0.09,0.13-0.16,0.27-0.18,0.43c-0.02,0.16-0.01,0.31,0.04,0.46
			c0.1,0.35,0.3,0.67,0.59,0.9c0.29,0.23,0.64,0.36,1,0.38h22.78c0.16,0.01,0.31-0.03,0.46-0.09c0.14-0.07,0.27-0.17,0.36-0.3
			c0.09-0.13,0.16-0.27,0.18-0.43C265.35,158.74,265.34,158.58,265.29,158.43L265.29,158.43z"/>
		<path style="fill:#C1D4FA;" d="M268.8,176.81c0.16,0.01,0.31-0.02,0.46-0.09c0.14-0.07,0.27-0.17,0.36-0.29
			c0.09-0.13,0.16-0.27,0.18-0.43c0.02-0.16,0.01-0.31-0.04-0.46c-0.1-0.35-0.3-0.67-0.59-0.9c-0.29-0.23-0.64-0.36-1-0.38h-22.78
			c-0.16-0.01-0.32,0.02-0.46,0.09c-0.14,0.07-0.27,0.17-0.36,0.3c-0.1,0.13-0.16,0.27-0.18,0.43c-0.03,0.16-0.01,0.32,0.04,0.47
			c0.1,0.35,0.31,0.67,0.6,0.89c0.29,0.23,0.64,0.36,1,0.38H268.8z"/>
		<path style="fill:#C1D4FA;" d="M270.02,181.68c0.16,0.01,0.31-0.02,0.46-0.09c0.14-0.07,0.27-0.17,0.36-0.29
			c0.09-0.13,0.16-0.27,0.18-0.43c0.03-0.16,0.01-0.31-0.04-0.46c-0.1-0.35-0.3-0.67-0.59-0.9c-0.29-0.23-0.64-0.36-1-0.38h-22.76
			c-0.16-0.01-0.31,0.03-0.46,0.09c-0.14,0.07-0.27,0.17-0.36,0.29c-0.09,0.13-0.16,0.27-0.18,0.43c-0.03,0.16-0.01,0.31,0.04,0.46
			c0.1,0.35,0.31,0.67,0.6,0.89c0.29,0.23,0.64,0.36,1,0.38H270.02z"/>
		<path style="fill:#C1D4FA;" d="M272.2,185.27c-0.1-0.35-0.31-0.67-0.59-0.9c-0.29-0.23-0.64-0.36-1.01-0.38h-22.78
			c-0.16-0.01-0.31,0.02-0.46,0.09c-0.14,0.07-0.27,0.17-0.36,0.29c-0.09,0.13-0.16,0.27-0.18,0.43c-0.03,0.16-0.01,0.31,0.04,0.46
			c0.1,0.35,0.31,0.67,0.59,0.9c0.29,0.23,0.64,0.36,1.01,0.38h22.78c0.16,0.01,0.31-0.03,0.46-0.09c0.14-0.07,0.27-0.17,0.36-0.3
			c0.09-0.13,0.16-0.27,0.18-0.43C272.26,185.58,272.25,185.42,272.2,185.27L272.2,185.27z"/>
		<path style="fill:#C1D4FA;" d="M258.12,126.42l-1.59-6.37c-0.16-0.59-0.51-1.11-0.98-1.49c-0.47-0.38-1.06-0.61-1.66-0.64H71.3
			c-0.26-0.01-0.52,0.04-0.76,0.15c-0.24,0.11-0.44,0.28-0.6,0.49c-0.16,0.21-0.26,0.45-0.3,0.71c-0.04,0.26-0.02,0.52,0.07,0.77
			l1.59,6.37c0.16,0.59,0.51,1.11,0.98,1.49c0.47,0.38,1.06,0.61,1.66,0.64h182.6c0.26,0.01,0.52-0.05,0.75-0.16
			c0.23-0.11,0.44-0.28,0.59-0.49c0.15-0.21,0.26-0.45,0.3-0.71C258.22,126.93,258.2,126.67,258.12,126.42z"/>
		<path style="fill:#0070D6;" d="M200.72,117.92l2.64,10.63H73.95c-0.61-0.03-1.19-0.26-1.66-0.64c-0.47-0.38-0.82-0.9-0.98-1.49
			l-1.59-6.37c-0.08-0.25-0.11-0.51-0.06-0.77c0.04-0.26,0.14-0.5,0.3-0.71c0.16-0.21,0.36-0.38,0.6-0.49
			c0.24-0.11,0.5-0.17,0.76-0.15H200.72z"/>
		<path style="fill:#3662C1;" d="M223.97,121.28l0.2,0.82h2.02l-1.06,3.48h1.07l1.03-3.59l-0.18-0.71H223.97z"/>
		<path style="fill:#3662C1;" d="M229.48,121.22c-1.14,0-1.67,0.98-1.36,2.22c0.11,0.59,0.41,1.13,0.85,1.53
			c0.44,0.4,1.01,0.65,1.61,0.7c1.15,0,1.67-0.98,1.36-2.23c-0.11-0.59-0.41-1.12-0.86-1.52S230.08,121.27,229.48,121.22
			L229.48,121.22z M230.38,124.82c-0.58,0-1.09-0.59-1.29-1.37c-0.2-0.79,0-1.37,0.59-1.37s1.09,0.59,1.28,1.37
			c0.19,0.78-0.02,1.36-0.59,1.36V124.82z"/>
		<path style="fill:#3662C1;" d="M237.57,124.52c-0.07-0.3-0.23-0.58-0.47-0.78c-0.24-0.2-0.54-0.31-0.85-0.33
			c-0.13-0.01-0.27,0.02-0.39,0.08c-0.12,0.06-0.22,0.15-0.3,0.26c-0.08,0.11-0.12,0.24-0.14,0.37c-0.01,0.13,0,0.27,0.06,0.39
			c0.07,0.3,0.23,0.58,0.47,0.78c0.24,0.2,0.54,0.31,0.85,0.32c0.13,0.01,0.27-0.02,0.39-0.08c0.12-0.06,0.22-0.15,0.3-0.26
			c0.08-0.11,0.12-0.24,0.14-0.37C237.64,124.78,237.62,124.65,237.57,124.52L237.57,124.52z M236.67,125.06
			c-0.24,0-0.47-0.25-0.54-0.54c-0.07-0.28,0-0.54,0.26-0.54c0.26,0,0.47,0.25,0.54,0.54C237,124.81,236.93,125.07,236.67,125.06
			L236.67,125.06z"/>
		<path style="fill:#3662C1;" d="M235.6,121.28l-2.06,4.3h0.73l2.07-4.3H235.6z"/>
		<path style="fill:#3662C1;" d="M234.39,122.33c-0.07-0.3-0.24-0.58-0.47-0.77c-0.24-0.2-0.54-0.31-0.85-0.32
			c-0.13-0.01-0.27,0.02-0.39,0.08c-0.12,0.06-0.23,0.15-0.3,0.26c-0.08,0.11-0.13,0.24-0.14,0.37c-0.01,0.13,0,0.27,0.06,0.39
			c0.07,0.3,0.23,0.58,0.47,0.77c0.24,0.2,0.54,0.31,0.85,0.32c0.13,0.01,0.27-0.02,0.39-0.08c0.12-0.06,0.22-0.15,0.3-0.26
			c0.08-0.11,0.13-0.24,0.14-0.37C234.45,122.59,234.44,122.45,234.39,122.33L234.39,122.33z M232.95,122.33
			c-0.07-0.29,0-0.54,0.26-0.54s0.47,0.25,0.54,0.54c0.07,0.29,0,0.54-0.26,0.54C233.22,122.87,233.02,122.62,232.95,122.33z"/>
		<path style="fill:#C1D4FA;" d="M192.17,174.61c0.3,0.02,0.59-0.04,0.86-0.17c0.27-0.13,0.5-0.31,0.68-0.55
			c0.18-0.24,0.3-0.51,0.34-0.81c0.05-0.29,0.02-0.59-0.08-0.87l0,0c-0.19-0.66-0.58-1.25-1.12-1.68c-0.54-0.43-1.2-0.68-1.88-0.72
			H84.52c-0.3-0.01-0.59,0.04-0.86,0.17c-0.27,0.13-0.5,0.32-0.68,0.55c-0.18,0.24-0.29,0.51-0.34,0.81
			c-0.05,0.29-0.02,0.59,0.08,0.87l0,0c0.19,0.66,0.58,1.25,1.12,1.68c0.54,0.43,1.2,0.68,1.89,0.72H192.17z"/>
		<path style="fill:#C1D4FA;" d="M194.16,182.59c0.3,0.01,0.59-0.04,0.86-0.17c0.27-0.13,0.5-0.32,0.68-0.55
			c0.18-0.24,0.3-0.51,0.34-0.81c0.05-0.29,0.02-0.59-0.08-0.87c-0.19-0.66-0.58-1.25-1.12-1.68c-0.54-0.43-1.2-0.68-1.89-0.72H86.5
			c-0.3-0.02-0.59,0.04-0.86,0.17c-0.27,0.13-0.5,0.32-0.68,0.55c-0.18,0.24-0.3,0.51-0.34,0.81c-0.05,0.29-0.02,0.59,0.08,0.87
			c0.19,0.66,0.58,1.25,1.11,1.68c0.54,0.43,1.2,0.68,1.89,0.72H194.16z"/>
		<path style="fill:#C1D4FA;" d="M198.04,188.52c-0.19-0.66-0.58-1.25-1.12-1.68c-0.54-0.43-1.2-0.68-1.89-0.72H88.58
			c-0.3-0.01-0.59,0.04-0.86,0.17c-0.27,0.13-0.5,0.32-0.68,0.55c-0.18,0.24-0.3,0.51-0.34,0.8c-0.05,0.29-0.02,0.59,0.07,0.87
			c0.19,0.66,0.58,1.25,1.12,1.68c0.54,0.43,1.2,0.68,1.88,0.72h106.46c0.3,0.01,0.59-0.04,0.86-0.17c0.27-0.13,0.5-0.32,0.68-0.55
			c0.18-0.24,0.3-0.51,0.34-0.81C198.16,189.1,198.14,188.8,198.04,188.52z"/>
		<path style="fill:#C1D4FA;" d="M133.92,161.66c0.23,0.83,0.72,1.58,1.4,2.12c0.68,0.54,1.51,0.86,2.37,0.9h11.9
			c0.37,0.02,0.74-0.05,1.08-0.21c0.34-0.16,0.63-0.4,0.85-0.69c0.22-0.3,0.37-0.65,0.43-1.01c0.06-0.37,0.02-0.74-0.1-1.09
			l-5.74-23.02c-0.23-0.84-0.72-1.58-1.4-2.12c-0.68-0.54-1.51-0.86-2.37-0.9h-11.9c-0.37-0.02-0.74,0.06-1.08,0.22
			c-0.34,0.16-0.63,0.4-0.85,0.69c-0.22,0.3-0.37,0.65-0.43,1.01c-0.06,0.37-0.03,0.74,0.09,1.1L133.92,161.66z"/>
		<path style="fill:#C1D4FA;" d="M154.47,161.66c0.23,0.83,0.72,1.58,1.4,2.12c0.68,0.54,1.51,0.86,2.37,0.9h11.9
			c0.37,0.02,0.74-0.06,1.08-0.21c0.34-0.16,0.63-0.4,0.85-0.69c0.22-0.3,0.37-0.64,0.43-1.01c0.06-0.37,0.03-0.74-0.09-1.1
			l-5.75-23.02c-0.23-0.84-0.72-1.58-1.4-2.12c-0.68-0.54-1.51-0.86-2.37-0.9h-11.9c-0.37-0.02-0.74,0.06-1.08,0.22
			c-0.34,0.16-0.63,0.4-0.85,0.7c-0.22,0.3-0.37,0.65-0.43,1.01c-0.06,0.37-0.02,0.74,0.1,1.1L154.47,161.66z"/>
		<path style="fill:#C1D4FA;" d="M174.63,161.66c0.23,0.83,0.72,1.58,1.4,2.12c0.68,0.54,1.51,0.86,2.37,0.9h11.9
			c0.37,0.02,0.74-0.06,1.08-0.21c0.34-0.16,0.63-0.4,0.85-0.69c0.22-0.3,0.37-0.64,0.43-1.01c0.06-0.37,0.03-0.74-0.09-1.1
			l-5.74-23.02c-0.23-0.84-0.72-1.58-1.4-2.12c-0.68-0.54-1.51-0.86-2.37-0.9h-11.9c-0.37-0.02-0.74,0.06-1.08,0.22
			c-0.34,0.16-0.63,0.4-0.85,0.7c-0.22,0.3-0.37,0.65-0.43,1.01c-0.06,0.37-0.02,0.74,0.1,1.1L174.63,161.66z"/>
		<path style="fill:#C1D4FA;" d="M129.89,159.62l-4.73-18.94c-0.39-1.4-1.21-2.65-2.34-3.55c-1.13-0.91-2.53-1.44-3.98-1.51H78.65
			c-2.8,0-4.49,2.27-3.8,5.06l4.72,18.94c0.39,1.4,1.21,2.64,2.34,3.55c1.14,0.91,2.53,1.43,3.98,1.51h40.19
			C128.89,164.67,130.59,162.41,129.89,159.62z"/>
		<path style="fill:#3662C1;" d="M118.34,142.88c0.14,0.01,0.28-0.02,0.41-0.08c0.13-0.06,0.24-0.15,0.32-0.26
			c0.09-0.11,0.14-0.25,0.16-0.39c0.02-0.14,0.01-0.28-0.03-0.42c-0.09-0.32-0.27-0.6-0.53-0.81c-0.26-0.21-0.57-0.33-0.9-0.34
			H80.21c-0.14-0.01-0.28,0.02-0.41,0.08c-0.13,0.06-0.24,0.15-0.33,0.26c-0.09,0.11-0.14,0.25-0.16,0.39
			c-0.02,0.14-0.01,0.28,0.03,0.42l0,0c0.09,0.32,0.28,0.6,0.54,0.81c0.26,0.21,0.58,0.33,0.91,0.34H118.34z"/>
		<path style="fill:#3662C1;" d="M119.45,147.32c0.14,0.01,0.28-0.02,0.41-0.09c0.13-0.06,0.24-0.15,0.32-0.27
			c0.08-0.11,0.14-0.25,0.16-0.39c0.02-0.14,0.01-0.28-0.04-0.42l0,0c-0.09-0.32-0.27-0.6-0.53-0.81c-0.26-0.21-0.57-0.33-0.9-0.34
			H81.31c-0.14-0.01-0.28,0.02-0.41,0.08c-0.13,0.06-0.24,0.15-0.33,0.26c-0.09,0.11-0.14,0.25-0.16,0.39
			c-0.02,0.14-0.01,0.28,0.03,0.42l0,0c0.09,0.32,0.28,0.6,0.53,0.81c0.26,0.21,0.58,0.33,0.91,0.35H119.45z"/>
		<path style="fill:#3662C1;" d="M121.41,150.59c-0.09-0.32-0.27-0.6-0.53-0.81c-0.26-0.21-0.57-0.33-0.9-0.34H82.41
			c-0.14-0.01-0.28,0.02-0.41,0.08c-0.13,0.06-0.24,0.15-0.33,0.27c-0.09,0.11-0.14,0.25-0.16,0.39c-0.02,0.14-0.01,0.28,0.03,0.42
			c0.09,0.32,0.28,0.6,0.53,0.81s0.58,0.33,0.91,0.35h37.56c0.14,0.01,0.28-0.02,0.41-0.08c0.13-0.06,0.24-0.15,0.32-0.27
			c0.08-0.11,0.14-0.25,0.16-0.39C121.47,150.86,121.46,150.72,121.41,150.59L121.41,150.59z"/>
		<path style="fill:#3662C1;" d="M92.51,154.4h-8.86c-0.14-0.01-0.28,0.02-0.41,0.08c-0.13,0.06-0.24,0.15-0.32,0.27
			c-0.08,0.11-0.14,0.25-0.16,0.38c-0.02,0.14-0.01,0.28,0.03,0.42c0.09,0.32,0.27,0.6,0.53,0.81c0.26,0.21,0.57,0.33,0.9,0.34h8.86
			c0.14,0.01,0.28-0.02,0.41-0.08c0.13-0.06,0.24-0.15,0.33-0.27c0.09-0.11,0.14-0.25,0.16-0.39c0.02-0.14,0.01-0.28-0.04-0.42
			c-0.09-0.32-0.28-0.6-0.53-0.81C93.16,154.54,92.84,154.42,92.51,154.4L92.51,154.4z"/>
		<path style="fill:#C1D4FA;" d="M286.51,210.18l-2.48-9.91c-0.2-0.73-0.63-1.38-1.23-1.85c-0.59-0.47-1.32-0.75-2.08-0.79h-21.09
			c-0.33-0.02-0.65,0.04-0.95,0.18c-0.3,0.14-0.55,0.35-0.75,0.61c-0.2,0.26-0.33,0.57-0.37,0.89c-0.05,0.32-0.02,0.65,0.09,0.96
			l2.48,9.91c0.2,0.73,0.63,1.38,1.23,1.85c0.59,0.47,1.32,0.75,2.08,0.79h21.09c0.33,0.02,0.65-0.04,0.95-0.18
			c0.3-0.14,0.55-0.35,0.75-0.61s0.33-0.57,0.37-0.89C286.65,210.82,286.62,210.49,286.51,210.18z"/>
		<path style="fill:#3662C1;" d="M280.45,201.4c0.07,0,0.15-0.01,0.22-0.04c0.07-0.03,0.13-0.08,0.17-0.14
			c0.04-0.06,0.07-0.13,0.09-0.2c0.01-0.07,0.01-0.15-0.02-0.22c-0.05-0.17-0.15-0.32-0.28-0.42c-0.14-0.11-0.3-0.17-0.48-0.18
			h-19.7c-0.07,0-0.15,0.01-0.22,0.04c-0.07,0.03-0.13,0.08-0.17,0.14c-0.04,0.06-0.07,0.13-0.09,0.2
			c-0.01,0.07-0.01,0.15,0.02,0.22c0.05,0.17,0.14,0.32,0.28,0.43c0.14,0.11,0.3,0.17,0.48,0.18H280.45z"/>
		<path style="fill:#3662C1;" d="M281.03,203.72c0.07,0,0.15-0.01,0.21-0.04c0.07-0.03,0.12-0.08,0.17-0.14
			c0.04-0.06,0.07-0.13,0.08-0.2c0.01-0.07,0.01-0.15-0.02-0.22c-0.05-0.17-0.14-0.31-0.28-0.42c-0.13-0.11-0.3-0.17-0.47-0.18
			h-19.7c-0.07,0-0.15,0.01-0.21,0.04c-0.07,0.03-0.12,0.08-0.17,0.14c-0.04,0.06-0.07,0.13-0.09,0.2
			c-0.01,0.07-0.01,0.15,0.02,0.22c0.05,0.17,0.14,0.31,0.28,0.42c0.14,0.11,0.3,0.17,0.47,0.18H281.03z"/>
		<path style="fill:#3662C1;" d="M282.06,205.44c-0.05-0.17-0.15-0.31-0.28-0.42c-0.13-0.11-0.3-0.17-0.47-0.18h-19.7
			c-0.07,0-0.15,0.01-0.21,0.04c-0.07,0.03-0.12,0.08-0.17,0.14c-0.04,0.06-0.07,0.13-0.09,0.2s-0.01,0.15,0.01,0.22
			c0.05,0.17,0.15,0.32,0.28,0.43c0.14,0.11,0.3,0.17,0.48,0.18h19.7c0.07,0,0.15-0.01,0.22-0.04c0.07-0.03,0.13-0.08,0.17-0.14
			c0.04-0.06,0.07-0.13,0.09-0.2C282.09,205.59,282.09,205.51,282.06,205.44L282.06,205.44z"/>
		<path style="fill:#3662C1;" d="M266.9,207.45h-4.63c-0.07,0-0.15,0.01-0.21,0.04c-0.07,0.03-0.12,0.08-0.17,0.14
			c-0.04,0.06-0.07,0.13-0.08,0.2c-0.01,0.07-0.01,0.15,0.02,0.22l0,0c0.05,0.17,0.14,0.32,0.28,0.43c0.14,0.11,0.3,0.17,0.48,0.18
			h4.63c0.07,0,0.15-0.01,0.22-0.04c0.07-0.03,0.13-0.08,0.17-0.14c0.04-0.06,0.07-0.13,0.09-0.2c0.01-0.07,0.01-0.15-0.02-0.22
			c-0.05-0.17-0.15-0.32-0.28-0.42C267.24,207.52,267.08,207.46,266.9,207.45L266.9,207.45z"/>
		<path style="fill:#0070D6;" d="M140.3,202.91c0.11,0.01,0.22-0.01,0.33-0.06c0.1-0.05,0.19-0.12,0.26-0.21
			c0.07-0.09,0.11-0.2,0.12-0.31c0.01-0.11,0-0.22-0.04-0.33c-0.07-0.25-0.21-0.47-0.42-0.64c-0.2-0.16-0.45-0.26-0.71-0.27H99.69
			c-0.11-0.01-0.22,0.01-0.33,0.06c-0.1,0.05-0.19,0.12-0.26,0.21c-0.07,0.09-0.11,0.2-0.12,0.31c-0.01,0.11,0,0.22,0.04,0.33
			c0.07,0.25,0.22,0.47,0.42,0.64c0.2,0.16,0.45,0.26,0.71,0.27H140.3z"/>
		<path style="fill:#0070D6;" d="M141.05,205.92c0.11,0.01,0.22-0.01,0.33-0.06c0.1-0.05,0.19-0.12,0.26-0.21
			c0.07-0.09,0.11-0.2,0.12-0.31c0.01-0.11,0-0.22-0.04-0.33c-0.07-0.25-0.22-0.47-0.42-0.64c-0.2-0.16-0.45-0.26-0.71-0.27h-40.14
			c-0.11-0.01-0.22,0.01-0.33,0.06c-0.1,0.05-0.19,0.12-0.26,0.21c-0.07,0.09-0.11,0.2-0.12,0.31c-0.01,0.11,0,0.22,0.04,0.33
			c0.07,0.25,0.21,0.48,0.42,0.64c0.2,0.16,0.45,0.26,0.71,0.27H141.05z"/>
		<path style="fill:#0070D6;" d="M141.38,207.25h-40.17c-0.11-0.01-0.22,0.01-0.33,0.06c-0.1,0.05-0.19,0.12-0.26,0.21
			c-0.07,0.09-0.11,0.2-0.12,0.31c-0.01,0.11,0,0.22,0.04,0.33c0.07,0.25,0.22,0.47,0.42,0.64c0.2,0.16,0.45,0.26,0.71,0.27h40.15
			c0.11,0.01,0.22-0.01,0.33-0.06c0.1-0.05,0.19-0.12,0.26-0.21c0.07-0.09,0.11-0.2,0.12-0.31c0.01-0.11,0-0.22-0.04-0.33
			c-0.07-0.25-0.21-0.47-0.41-0.63C141.88,207.36,141.64,207.26,141.38,207.25L141.38,207.25z"/>
		<path style="fill:#0070D6;" d="M192.12,202.91c0.11,0.01,0.22-0.01,0.33-0.06c0.1-0.05,0.19-0.12,0.26-0.21
			c0.07-0.09,0.11-0.2,0.12-0.31c0.01-0.11,0-0.22-0.04-0.33c-0.07-0.25-0.22-0.47-0.42-0.64c-0.2-0.16-0.45-0.26-0.71-0.27h-40.14
			c-0.11-0.01-0.22,0.01-0.33,0.06c-0.1,0.05-0.19,0.12-0.26,0.21c-0.07,0.09-0.11,0.2-0.12,0.31c-0.01,0.11,0,0.22,0.04,0.33
			c0.07,0.25,0.22,0.47,0.42,0.64c0.2,0.16,0.45,0.26,0.71,0.27H192.12z"/>
		<path style="fill:#0070D6;" d="M192.87,205.92c0.11,0.01,0.22-0.01,0.33-0.06c0.1-0.05,0.19-0.12,0.26-0.21
			c0.07-0.09,0.11-0.2,0.12-0.31c0.01-0.11,0-0.22-0.04-0.33c-0.07-0.25-0.21-0.47-0.41-0.63c-0.2-0.16-0.44-0.26-0.7-0.27h-40.17
			c-0.11-0.01-0.22,0.01-0.33,0.06c-0.1,0.05-0.19,0.12-0.26,0.21c-0.07,0.09-0.11,0.2-0.12,0.31c-0.01,0.11,0,0.22,0.04,0.33
			c0.07,0.25,0.22,0.47,0.42,0.64c0.2,0.16,0.45,0.26,0.71,0.27H192.87z"/>
		<path style="fill:#0070D6;" d="M193.2,207.25h-40.15c-0.11-0.01-0.22,0.01-0.33,0.06c-0.1,0.05-0.19,0.12-0.26,0.21
			c-0.07,0.09-0.11,0.2-0.12,0.31c-0.01,0.11,0,0.22,0.04,0.33c0.07,0.25,0.21,0.47,0.42,0.64c0.2,0.16,0.45,0.26,0.71,0.27h40.15
			c0.11,0.01,0.22-0.01,0.33-0.06c0.1-0.05,0.19-0.12,0.26-0.21c0.07-0.09,0.11-0.2,0.12-0.31c0.01-0.11,0-0.22-0.04-0.33
			c-0.07-0.25-0.22-0.47-0.42-0.64C193.71,207.35,193.46,207.26,193.2,207.25L193.2,207.25z"/>
		<path style="fill:#0070D6;" d="M242.35,202.91c0.11,0.01,0.22-0.01,0.33-0.06c0.1-0.05,0.19-0.12,0.26-0.21
			c0.07-0.09,0.11-0.2,0.12-0.31c0.01-0.11,0-0.22-0.04-0.33c-0.07-0.25-0.22-0.47-0.42-0.64c-0.2-0.16-0.45-0.26-0.71-0.27h-40.13
			c-0.11-0.01-0.22,0.01-0.33,0.06c-0.1,0.05-0.19,0.12-0.26,0.21s-0.11,0.2-0.12,0.31c-0.01,0.11,0,0.22,0.04,0.33
			c0.07,0.25,0.21,0.47,0.42,0.64c0.2,0.16,0.45,0.26,0.71,0.27H242.35z"/>
		<path style="fill:#0070D6;" d="M243.09,205.92c0.11,0.01,0.22-0.01,0.33-0.06c0.1-0.05,0.19-0.12,0.26-0.21
			c0.07-0.09,0.11-0.2,0.12-0.31c0.01-0.11,0-0.22-0.04-0.33c-0.07-0.25-0.21-0.46-0.4-0.63c-0.2-0.16-0.44-0.26-0.69-0.28h-40.17
			c-0.11-0.01-0.22,0.01-0.33,0.06c-0.1,0.05-0.19,0.12-0.26,0.21c-0.07,0.09-0.11,0.2-0.12,0.31c-0.01,0.11,0,0.22,0.04,0.33
			c0.07,0.25,0.22,0.47,0.42,0.64c0.2,0.16,0.45,0.26,0.71,0.27H243.09z"/>
		<path style="fill:#0070D6;" d="M244.56,208.15c-0.07-0.25-0.22-0.47-0.42-0.64c-0.2-0.16-0.45-0.26-0.71-0.27h-40.15
			c-0.11-0.01-0.22,0.01-0.33,0.06c-0.1,0.05-0.19,0.12-0.26,0.21c-0.07,0.09-0.11,0.2-0.12,0.31c-0.01,0.11,0,0.22,0.04,0.33
			c0.07,0.25,0.21,0.48,0.42,0.64c0.2,0.16,0.45,0.26,0.71,0.27h40.15c0.11,0.01,0.23-0.01,0.33-0.06c0.1-0.05,0.19-0.12,0.26-0.21
			c0.07-0.09,0.11-0.2,0.12-0.31C244.62,208.37,244.6,208.26,244.56,208.15z"/>
		<path style="fill:#0070D6;" d="M252.33,214.21H97.48c-0.71-0.04-1.39-0.29-1.95-0.74c-0.56-0.44-0.96-1.05-1.15-1.74l-3.08-12.4
			c-0.09-0.33-0.11-0.67-0.04-1c0.06-0.33,0.2-0.65,0.39-0.92c0.2-0.25,0.46-0.45,0.76-0.58c0.29-0.13,0.61-0.2,0.94-0.19h154.84
			c0.71,0.04,1.39,0.29,1.95,0.74c0.56,0.44,0.96,1.05,1.15,1.74l3.09,12.4c0.09,0.32,0.11,0.66,0.05,1
			c-0.06,0.33-0.2,0.64-0.4,0.91c-0.2,0.25-0.46,0.45-0.75,0.59C252.97,214.15,252.65,214.22,252.33,214.21L252.33,214.21z
			 M93.33,197.55c-0.18-0.01-0.37,0.02-0.54,0.1c-0.17,0.07-0.32,0.19-0.43,0.33c-0.12,0.16-0.19,0.35-0.23,0.55
			c-0.03,0.2-0.02,0.4,0.04,0.59l3.09,12.4c0.14,0.49,0.43,0.92,0.82,1.24c0.4,0.32,0.88,0.51,1.39,0.54h154.85
			c0.18,0.01,0.37-0.03,0.54-0.1c0.17-0.07,0.32-0.19,0.44-0.33c0.11-0.16,0.19-0.35,0.22-0.55c0.03-0.2,0.02-0.4-0.04-0.59
			l-3.09-12.4c-0.14-0.49-0.43-0.92-0.82-1.24c-0.4-0.32-0.88-0.51-1.39-0.54H93.33z"/>
		<path style="fill:none;stroke:#1F8F46;stroke-width:6;stroke-linecap:round;stroke-linejoin:round;" d="M217.12,179.81l2.86,3.91
			l8.94-4.19"/>
		<path style="fill:none;stroke:#1F8F46;stroke-width:6;stroke-linecap:round;stroke-linejoin:round;" d="M211.66,180.43
			c-0.36-6.08,4.55-9.86,10.48-8.94c5.47,0.83,10.44,5.48,11.56,10.77c1.2,5.71-2.35,10.68-8.52,10.68
			C218.41,192.94,212.06,187.08,211.66,180.43z"/>
		<path style="fill:none;stroke:#1F8F46;stroke-width:6;stroke-linecap:round;stroke-linejoin:round;" d="M211.45,151.35l2.86,3.9
			l8.94-4.19"/>
		<path style="fill:none;stroke:#1F8F46;stroke-width:6;stroke-linecap:round;stroke-linejoin:round;" d="M205.99,151.96
			c-0.36-6.08,4.55-9.85,10.48-8.94c5.47,0.83,10.44,5.48,11.56,10.77c1.21,5.7-2.35,10.67-8.51,10.67
			C212.74,164.47,206.39,158.61,205.99,151.96z"/>
		<path style="fill:#0775EF;" d="M854.49,143.8h-34.51c-1.21,0-2.19,0.98-2.19,2.19v28.65c0,1.21,0.98,2.19,2.19,2.19h34.51
			c1.21,0,2.19-0.98,2.19-2.19v-28.65C856.67,144.78,855.69,143.8,854.49,143.8z"/>
		<path style="fill:#088CFC;" d="M856.57,143.8h-34.51c-1.21,0-2.19,0.98-2.19,2.19v28.65c0,1.21,0.98,2.19,2.19,2.19h34.51
			c1.21,0,2.19-0.98,2.19-2.19v-28.65C858.76,144.78,857.78,143.8,856.57,143.8z"/>
		<path style="fill:#FFFFFF;" d="M834.73,149.64h-1.29c-0.25-0.01-0.5,0.06-0.71,0.21c-0.19,0.16-0.34,0.35-0.44,0.58
			c-0.12,0.25-0.2,0.52-0.25,0.8c-0.05,0.3-0.07,0.61-0.07,0.91v4.35c0.03,0.58-0.05,1.15-0.25,1.69c-0.17,0.42-0.41,0.81-0.71,1.15
			c-0.23,0.28-0.51,0.52-0.82,0.71c-0.22,0.13-0.46,0.23-0.71,0.29v0.08c0.25,0.04,0.48,0.12,0.71,0.23
			c0.31,0.16,0.59,0.37,0.82,0.63c0.31,0.34,0.55,0.73,0.71,1.16c0.2,0.59,0.28,1.2,0.25,1.82v4.31c0,0.29,0.02,0.59,0.07,0.88
			c0.04,0.28,0.13,0.55,0.25,0.8c0.1,0.22,0.25,0.42,0.44,0.57c0.2,0.15,0.45,0.22,0.71,0.21h1.29v2.07h-2.15
			c-0.37,0-0.74-0.09-1.07-0.26c-0.38-0.2-0.71-0.48-0.96-0.82c-0.31-0.41-0.55-0.87-0.71-1.36c-0.19-0.64-0.28-1.31-0.27-1.98
			v-3.85c0.01-0.88-0.25-1.74-0.75-2.46c-0.19-0.27-0.43-0.49-0.73-0.65c-0.29-0.16-0.61-0.24-0.94-0.24v-2.24
			c0.33,0,0.65-0.09,0.94-0.24c0.29-0.15,0.54-0.38,0.73-0.65c0.5-0.73,0.76-1.59,0.75-2.47v-4.53c-0.01-0.55,0.08-1.1,0.27-1.62
			c0.16-0.43,0.4-0.83,0.71-1.18c0.27-0.3,0.6-0.54,0.96-0.71c0.34-0.16,0.7-0.24,1.07-0.25h2.15V149.64z"/>
		<path style="fill:#FFFFFF;" d="M844.38,170.99h1.29c0.25,0.01,0.5-0.06,0.71-0.21c0.19-0.16,0.34-0.35,0.44-0.57
			c0.12-0.26,0.2-0.53,0.24-0.8c0.05-0.3,0.07-0.6,0.07-0.9v-4.33c-0.03-0.58,0.05-1.15,0.25-1.69c0.17-0.42,0.41-0.81,0.71-1.15
			c0.23-0.28,0.51-0.52,0.82-0.71c0.22-0.13,0.46-0.23,0.71-0.29v-0.08c-0.25-0.04-0.48-0.12-0.71-0.23
			c-0.31-0.16-0.59-0.37-0.82-0.63c-0.31-0.34-0.55-0.73-0.71-1.16c-0.2-0.59-0.28-1.2-0.25-1.82v-4.31c0-0.29-0.02-0.59-0.07-0.88
			c-0.04-0.28-0.12-0.54-0.24-0.8c-0.11-0.22-0.26-0.42-0.44-0.58c-0.2-0.15-0.45-0.22-0.71-0.21h-1.29v-2.07h2.12
			c0.37,0,0.74,0.09,1.07,0.26c0.38,0.19,0.71,0.46,0.97,0.79c0.31,0.41,0.55,0.87,0.71,1.36c0.2,0.64,0.29,1.31,0.28,1.98v3.84
			c-0.05,0.88,0.2,1.75,0.71,2.46c0.19,0.27,0.45,0.49,0.74,0.65c0.29,0.15,0.62,0.24,0.95,0.24v2.29c-0.33,0-0.66,0.09-0.95,0.24
			c-0.29,0.15-0.55,0.38-0.74,0.65c-0.51,0.72-0.76,1.59-0.71,2.46v4.53c0.01,0.55-0.08,1.1-0.28,1.62
			c-0.16,0.43-0.4,0.83-0.71,1.18c-0.27,0.3-0.6,0.54-0.97,0.71c-0.34,0.16-0.7,0.24-1.07,0.25h-2.12V170.99z"/>
		<path style="fill:#F2BB16;" d="M901.64,61.02h-42.57c-1.33,0-2.4,1.07-2.4,2.4v27.82c0,1.33,1.07,2.4,2.4,2.4h42.57
			c1.33,0,2.4-1.07,2.4-2.4V63.42C904.04,62.1,902.97,61.02,901.64,61.02z"/>
		<path style="fill:#F9E181;" d="M904.18,61.02h-42.57c-1.33,0-2.4,1.07-2.4,2.4v27.82c0,1.33,1.07,2.4,2.4,2.4h42.57
			c1.33,0,2.4-1.07,2.4-2.4V63.42C906.58,62.1,905.5,61.02,904.18,61.02z"/>
		<path style="fill:#FFFFFF;" d="M861.74,80.24v-2.37l13.71-7.42v3.63l-9.18,4.98l9.18,4.98v3.62L861.74,80.24z"/>
		<path style="fill:#FFFFFF;" d="M879.63,90.62l-2.25-0.99l8.47-25.6l2.25,1.06L879.63,90.62z"/>
		<path style="fill:#FFFFFF;" d="M904.04,77.86v2.38l-13.71,7.41v-3.62l9.18-4.98l-9.18-4.98v-3.63L904.04,77.86z"/>
		<path style="fill:#40A87B;" d="M54.88,280.67c0,0-6.51-25.94-22.74-33.98c-16.23-8.04-33.55,2.95-29.16,14.5
			c3.79,9.91,19.39-2.29,31.52,2.52s14.05,16.96,14.05,16.96H54.88z"/>
		<path style="fill:none;stroke:#6ADB6A;stroke-width:3.33;stroke-miterlimit:10;" d="M6.12,254.27c0,0,17.42-9.91,30.34-0.75
			c12.92,9.17,17.01,27.15,17.01,27.15"/>
		<path style="fill:none;stroke:#6ADB6A;stroke-width:3.33;stroke-miterlimit:10;" d="M8.93,249.63l4.05,1.76"/>
		<path style="fill:none;stroke:#6ADB6A;stroke-width:3.33;stroke-miterlimit:10;" d="M14.78,245.84l8.08,3.79"/>
		<path style="fill:none;stroke:#6ADB6A;stroke-width:3.33;stroke-miterlimit:10;" d="M26.91,245.84l4.2,4.96"/>
		<path style="fill:none;stroke:#6ADB6A;stroke-width:3.33;stroke-miterlimit:10;" d="M34.87,249.17l1.89,4.57"/>
		<path style="fill:none;stroke:#6ADB6A;stroke-width:3.33;stroke-miterlimit:10;" d="M10.96,260.6l6.22-10.3"/>
		<path style="fill:none;stroke:#6ADB6A;stroke-width:3.33;stroke-miterlimit:10;" d="M21.95,259.11l5.7-9.16"/>
		<path style="fill:none;stroke:#6ADB6A;stroke-width:3.33;stroke-miterlimit:10;" d="M31.64,257.71l8.57-1.06"/>
		<path style="fill:none;stroke:#6ADB6A;stroke-width:3.33;stroke-miterlimit:10;" d="M41.62,262.91l4.92,1.61"/>
		<path style="fill:#6ADB6A;" d="M62.15,279.85c0,0,4.63-87.05-36.98-75.84c-41.61,11.22,32.43,58.17,32.39,75.84H62.15z"/>
		<path style="fill:none;stroke:#40A87B;stroke-width:3.33;stroke-miterlimit:10;" d="M60.48,279.86c0,0-1.45-45.48-31.07-67.97"/>
		<path style="fill:none;stroke:#40A87B;stroke-width:3.33;stroke-miterlimit:10;" d="M42.38,225.08l-0.74-15.69"/>
		<path style="fill:none;stroke:#40A87B;stroke-width:3.33;stroke-miterlimit:10;" d="M19.13,218.58l20.03,2.61"/>
		<path style="fill:none;stroke:#40A87B;stroke-width:3.33;stroke-miterlimit:10;" d="M26.92,231.97l21.18,2.47"/>
		<path style="fill:none;stroke:#40A87B;stroke-width:3.33;stroke-miterlimit:10;" d="M37.51,245.23l16.36,2.31"/>
		<path style="fill:none;stroke:#40A87B;stroke-width:3.33;stroke-miterlimit:10;" d="M55.44,232.83l-3.75,9.11"/>
		<path style="fill:none;stroke:#40A87B;stroke-width:3.33;stroke-miterlimit:10;" d="M49.28,218.05l-3.19,12.82"/>
		<path style="fill:none;stroke:#40A87B;stroke-width:3.33;stroke-miterlimit:10;" d="M58.94,248.04L55.95,254"/>
		<path style="fill:none;stroke:#40A87B;stroke-width:3.33;stroke-miterlimit:10;" d="M46.09,257.53l11.72,3.69"/>
		<path style="fill:#35221A;" d="M43.42,277.5l3.71,19.54c0.12,0.63,0.46,1.19,0.95,1.6c0.49,0.41,1.11,0.63,1.75,0.63h10.99
			c0.65,0,1.28-0.23,1.78-0.64c0.5-0.42,0.83-1,0.94-1.64l3.23-19.49H43.42z"/>
		<path style="fill:#644437;" d="M44.63,283.85h21.01l1.12-6.35H43.42L44.63,283.85z"/>
		<path style="fill:#FAFAFA;" d="M44.63,283.85l0.44,2.32h20.25l0.32-2.32H44.63z"/>
		<path style="fill:#40A87B;" d="M1204.89,289.31c0,0,4.24-16.99,14.88-22.23c10.64-5.24,21.94,1.93,19.06,9.48
			c-2.48,6.5-12.71-1.5-20.62,1.65c-7.91,3.15-9.18,11.09-9.18,11.09H1204.89z"/>
		<path style="fill:none;stroke:#6ADB6A;stroke-width:3.48;stroke-miterlimit:10;" d="M1236.78,272.04c0,0-11.4-6.5-19.85-0.49
			c-8.45,6-11.13,17.76-11.13,17.76"/>
		<path style="fill:none;stroke:#6ADB6A;stroke-width:3.48;stroke-miterlimit:10;" d="M1234.94,269l-2.65,1.15"/>
		<path style="fill:none;stroke:#6ADB6A;stroke-width:3.48;stroke-miterlimit:10;" d="M1231.11,266.52l-5.28,2.48"/>
		<path style="fill:none;stroke:#6ADB6A;stroke-width:3.48;stroke-miterlimit:10;" d="M1223.19,266.52l-2.75,3.24"/>
		<path style="fill:none;stroke:#6ADB6A;stroke-width:3.48;stroke-miterlimit:10;" d="M1217.97,268.7l-1.24,2.99"/>
		<path style="fill:none;stroke:#6ADB6A;stroke-width:3.48;stroke-miterlimit:10;" d="M1233.62,276.16l-4.07-6.73"/>
		<path style="fill:none;stroke:#6ADB6A;stroke-width:3.48;stroke-miterlimit:10;" d="M1226.43,275.2l-3.73-5.99"/>
		<path style="fill:none;stroke:#6ADB6A;stroke-width:3.48;stroke-miterlimit:10;" d="M1220.09,274.28l-5.61-0.69"/>
		<path style="fill:none;stroke:#6ADB6A;stroke-width:3.48;stroke-miterlimit:10;" d="M1213.56,277.68l-3.21,1.06"/>
		<path style="fill:#6ADB6A;" d="M1200.13,288.77c0,0-3-56.94,24.2-49.6s-21.22,38.03-21.18,49.6H1200.13z"/>
		<path style="fill:none;stroke:#40A87B;stroke-width:3.48;stroke-miterlimit:10;" d="M1201.23,288.77c0,0,0.95-29.74,20.33-44.48"
			/>
		<path style="fill:none;stroke:#40A87B;stroke-width:3.48;stroke-miterlimit:10;" d="M1213.06,252.94l0.49-10.26"/>
		<path style="fill:none;stroke:#40A87B;stroke-width:3.48;stroke-miterlimit:10;" d="M1228.27,248.69l-13.1,1.71"/>
		<path style="fill:none;stroke:#40A87B;stroke-width:3.48;stroke-miterlimit:10;" d="M1223.18,257.44l-13.86,1.62"/>
		<path style="fill:none;stroke:#40A87B;stroke-width:3.48;stroke-miterlimit:10;" d="M1216.25,266.12l-10.7,1.51"/>
		<path style="fill:none;stroke:#40A87B;stroke-width:3.48;stroke-miterlimit:10;" d="M1204.52,258.01l2.46,5.96"/>
		<path style="fill:none;stroke:#40A87B;stroke-width:3.48;stroke-miterlimit:10;" d="M1208.55,248.34l2.09,8.39"/>
		<path style="fill:none;stroke:#40A87B;stroke-width:3.48;stroke-miterlimit:10;" d="M1202.23,267.96l1.96,3.9"/>
		<path style="fill:none;stroke:#40A87B;stroke-width:3.48;stroke-miterlimit:10;" d="M1210.64,274.16l-7.67,2.42"/>
		<path style="fill:#35221A;" d="M1196.89,286.14l2.33,12.23c0.07,0.4,0.28,0.75,0.58,1.01c0.31,0.26,0.7,0.4,1.1,0.4h6.87
			c0.4,0,0.8-0.14,1.1-0.4c0.31-0.26,0.52-0.62,0.59-1.01l2.02-12.19L1196.89,286.14z"/>
		<path style="fill:#644437;" d="M1197.64,290.12h13.14l0.7-3.97h-14.59L1197.64,290.12z"/>
		<path style="fill:#FAFAFA;" d="M1197.64,290.12l0.28,1.45h12.67l0.2-1.45H1197.64z"/>
		<path style="fill:none;stroke:#375A64;stroke-width:4;stroke-linecap:round;stroke-linejoin:round;" d="M11.02,297.61H1233.4"/>
	</g>
</g>
</svg>
