<svg width="500" height="508" viewBox="0 0 500 508" fill="none" xmlns="http://www.w3.org/2000/svg">
<g clip-path="url(#clip0_36_92)">
<path d="M479.982 30.2812H99.278C88.617 30.2812 79.9746 38.9286 79.9746 49.5956V346.05C79.9746 356.717 88.617 365.364 99.278 365.364H479.982C490.643 365.364 499.285 356.717 499.285 346.05V49.5956C499.285 38.9286 490.643 30.2812 479.982 30.2812Z" fill="white"/>
<path d="M479.982 365.973H99.2781C93.9985 365.963 88.938 363.86 85.2048 360.125C81.4715 356.389 79.3696 351.326 79.3594 346.043V49.5863C79.3696 44.3036 81.4715 39.2403 85.2048 35.5049C88.938 31.7696 93.9985 29.6665 99.2781 29.6562H479.982C485.262 29.6658 490.323 31.7685 494.057 35.504C497.791 39.2394 499.893 44.3032 499.903 49.5863V346.043C499.893 351.326 497.791 356.39 494.057 360.126C490.323 363.861 485.262 365.964 479.982 365.973ZM99.2781 30.8904C94.3243 30.8963 89.575 32.8679 86.0721 36.3728C82.5692 39.8777 80.5987 44.6296 80.5929 49.5863V346.043C80.5987 351 82.5692 355.752 86.0721 359.257C89.575 362.762 94.3243 364.733 99.2781 364.739H479.982C484.936 364.734 489.686 362.763 493.19 359.258C496.693 355.753 498.664 351 498.67 346.043V49.5863C498.664 44.6291 496.693 39.8768 493.19 36.3718C489.686 32.8669 484.936 30.8956 479.982 30.8904H99.2781Z" fill="#0072F1"/>
<path d="M499.382 72.1828H80.0822C80.0012 72.1832 79.9211 72.1675 79.8462 72.1367C79.7714 72.1059 79.7034 72.0606 79.6462 72.0033C79.589 71.9461 79.5437 71.878 79.5129 71.8032C79.4821 71.7283 79.4664 71.6481 79.4668 71.5671V49.6485C79.4756 44.3552 81.5811 39.2811 85.3219 35.5381C89.0628 31.7952 94.134 29.6885 99.4243 29.6797H480.031C485.322 29.6885 490.393 31.7952 494.134 35.5381C497.874 39.2811 499.98 44.3552 499.989 49.6485V71.5588C499.99 71.6398 499.976 71.7202 499.946 71.7955C499.916 71.8708 499.872 71.9394 499.815 71.9974C499.759 72.0555 499.691 72.1017 499.617 72.1335C499.543 72.1654 499.463 72.1821 499.382 72.1828ZM80.6864 70.9514H498.766V49.6485C498.76 44.6787 496.785 39.914 493.272 36.3998C489.76 32.8855 484.998 30.9087 480.031 30.9028H99.4216C94.4545 30.9087 89.6926 32.8855 86.1803 36.3998C82.6681 39.914 80.6923 44.6787 80.6864 49.6485V70.9514Z" fill="#0072F1"/>
<path d="M451.65 334.907H127.617C123.215 334.9 118.995 333.148 115.882 330.033C112.769 326.918 111.017 322.696 111.011 318.291V116.897C111.017 112.492 112.769 108.27 115.882 105.155C118.995 102.041 123.215 100.288 127.617 100.281H451.65C456.052 100.288 460.272 102.041 463.385 105.155C466.498 108.27 468.25 112.492 468.256 116.897V318.291C468.25 322.696 466.498 326.918 463.385 330.033C460.272 333.148 456.052 334.9 451.65 334.907ZM127.612 101.51C123.535 101.514 119.626 103.137 116.743 106.022C113.861 108.906 112.24 112.818 112.236 116.897V318.291C112.241 322.369 113.863 326.279 116.745 329.163C119.628 332.046 123.535 333.668 127.612 333.673H451.644C455.72 333.668 459.628 332.046 462.51 329.163C465.392 326.279 467.013 322.369 467.017 318.291V116.897C467.014 112.819 465.395 108.909 462.514 106.024C459.633 103.139 455.726 101.516 451.65 101.51H127.612Z" fill="#0072F1"/>
<path d="M436.816 56.6395C439.567 53.8873 439.567 49.4252 436.816 46.673C434.066 43.9209 429.606 43.9209 426.855 46.673C424.105 49.4252 424.105 53.8873 426.855 56.6395C429.606 59.3916 434.066 59.3916 436.816 56.6395Z" fill="#0072F1"/>
<path d="M461.7 53.2616C462.594 49.4736 460.249 45.678 456.463 44.7839C452.677 43.8898 448.884 46.2359 447.99 50.0239C447.096 53.812 449.441 57.6076 453.227 58.5017C457.013 59.3957 460.806 57.0497 461.7 53.2616Z" fill="#0072F1"/>
<path d="M484.727 53.2616C485.621 49.4736 483.276 45.6779 479.49 44.7839C475.704 43.8898 471.911 46.2359 471.017 50.024C470.124 53.812 472.469 57.6076 476.254 58.5017C480.04 59.3957 483.834 57.0497 484.727 53.2616Z" fill="#0072F1"/>
<path d="M241.932 0.617188H13.5516C6.40704 0.617188 0.615234 6.41228 0.615234 13.5609V177.117C0.615234 184.265 6.40704 190.061 13.5516 190.061H241.932C249.077 190.061 254.869 184.265 254.869 177.117V13.5609C254.869 6.41228 249.077 0.617188 241.932 0.617188Z" fill="white"/>
<path d="M241.93 190.675H13.5576C9.96457 190.671 6.51977 189.241 3.97913 186.699C1.43848 184.157 0.00952834 180.71 0.00585938 177.115V13.5622C0.0131813 9.96799 1.44322 6.52308 3.98299 3.98134C6.52277 1.43961 9.96544 0.00806112 13.5576 0H241.936C245.528 0.00732859 248.972 1.43855 251.512 3.98036C254.052 6.52218 255.483 9.96751 255.49 13.5622V177.115C255.482 180.71 254.05 184.156 251.509 186.697C248.967 189.239 245.523 190.669 241.93 190.675ZM13.5576 1.23419C10.291 1.23786 7.15921 2.53788 4.84937 4.84903C2.53952 7.16018 1.24024 10.2937 1.23657 13.5622V177.115C1.24024 180.384 2.53952 183.517 4.84937 185.829C7.15921 188.14 10.291 189.44 13.5576 189.443H241.936C245.202 189.44 248.334 188.14 250.644 185.829C252.954 183.517 254.253 180.384 254.257 177.115V13.5622C254.253 10.2937 252.954 7.16018 250.644 4.84903C248.334 2.53788 245.202 1.23786 241.936 1.23419H13.5576Z" fill="#0072F1"/>
<path d="M230.28 24.5234H186.975C186.115 24.5234 185.291 24.1818 184.683 23.5738C184.076 22.9658 183.734 22.1411 183.734 21.2812C183.734 20.4214 184.076 19.5967 184.683 18.9887C185.291 18.3806 186.115 18.0391 186.975 18.0391H230.28C231.139 18.0391 231.963 18.3806 232.571 18.9887C233.179 19.5967 233.52 20.4214 233.52 21.2812C233.52 22.1411 233.179 22.9658 232.571 23.5738C231.963 24.1818 231.139 24.5234 230.28 24.5234Z" fill="#0072F1"/>
<path d="M239.58 38.4062H177.562C176.702 38.4062 175.878 38.0646 175.27 37.4566C174.663 36.8486 174.321 36.0239 174.321 35.164C174.321 34.3042 174.663 33.4795 175.27 32.8715C175.878 32.2635 176.702 31.9219 177.562 31.9219H239.58C240.439 31.9219 241.263 32.2635 241.871 32.8715C242.479 33.4795 242.82 34.3042 242.82 35.164C242.82 36.0239 242.479 36.8486 241.871 37.4566C241.263 38.0646 240.439 38.4062 239.58 38.4062Z" fill="#0072F1"/>
<path d="M239.743 64.5078H177.767C176.907 64.5078 176.083 64.1662 175.475 63.5582C174.868 62.9501 174.526 62.1255 174.526 61.2656C174.526 60.4057 174.868 59.5811 175.475 58.973C176.083 58.365 176.907 58.0234 177.767 58.0234H239.743C240.603 58.0234 241.427 58.365 242.034 58.973C242.642 59.5811 242.983 60.4057 242.983 61.2656C242.983 62.1255 242.642 62.9501 242.034 63.5582C241.427 64.1662 240.603 64.5078 239.743 64.5078Z" fill="#0072F1"/>
<path d="M239.532 77.0468H178.911C178.052 77.0468 177.228 76.7053 176.62 76.0972C176.012 75.4892 175.671 74.6645 175.671 73.8047C175.671 72.9448 176.012 72.1201 176.62 71.5121C177.228 70.9041 178.052 70.5625 178.911 70.5625H239.532C240.392 70.5625 241.216 70.9041 241.824 71.5121C242.431 72.1201 242.773 72.9448 242.773 73.8047C242.773 74.6645 242.431 75.4892 241.824 76.0972C241.216 76.7053 240.392 77.0468 239.532 77.0468Z" fill="#0072F1"/>
<path d="M239.942 89.789H179.316C178.456 89.789 177.632 89.4474 177.024 88.8394C176.417 88.2314 176.075 87.4067 176.075 86.5469C176.075 85.687 176.417 84.8623 177.024 84.2543C177.632 83.6463 178.456 83.3047 179.316 83.3047H239.937C240.796 83.3047 241.62 83.6463 242.228 84.2543C242.835 84.8623 243.177 85.687 243.177 86.5469C243.177 87.4067 242.835 88.2314 242.228 88.8394C241.62 89.4474 240.796 89.789 239.937 89.789H239.942Z" fill="#0072F1"/>
<path d="M239.743 102.32H177.767C176.907 102.32 176.083 101.979 175.475 101.371C174.868 100.763 174.526 99.938 174.526 99.0781C174.526 98.2182 174.868 97.3936 175.475 96.7856C176.083 96.1775 176.907 95.8359 177.767 95.8359H239.743C240.603 95.8359 241.427 96.1775 242.034 96.7856C242.642 97.3936 242.983 98.2182 242.983 99.0781C242.983 99.938 242.642 100.763 242.034 101.371C241.427 101.979 240.603 102.32 239.743 102.32Z" fill="#0072F1"/>
<path d="M239.533 115.273H177.562C176.702 115.273 175.878 114.932 175.27 114.324C174.663 113.716 174.321 112.891 174.321 112.031C174.321 111.171 174.663 110.347 175.27 109.739C175.878 109.131 176.702 108.789 177.562 108.789H239.533C240.392 108.789 241.216 109.131 241.824 109.739C242.431 110.347 242.773 111.171 242.773 112.031C242.773 112.891 242.431 113.716 241.824 114.324C241.216 114.932 240.392 115.273 239.533 115.273Z" fill="#0072F1"/>
<path d="M200.246 52.0156H177.678C176.818 52.0156 175.994 51.674 175.387 51.066C174.779 50.4579 174.437 49.6333 174.438 48.7734C174.437 47.9135 174.779 47.0889 175.387 46.4809C175.994 45.8728 176.818 45.5312 177.678 45.5312H200.246C201.106 45.5313 201.93 45.8728 202.538 46.4809C203.145 47.0889 203.487 47.9135 203.487 48.7734C203.487 49.6333 203.145 50.4579 202.538 51.066C201.93 51.674 201.106 52.0156 200.246 52.0156Z" fill="#0072F1"/>
<path d="M239.889 52.0156H216.073C215.214 52.0156 214.39 51.674 213.782 51.066C213.174 50.4579 212.833 49.6333 212.833 48.7734C212.833 47.9135 213.174 47.0889 213.782 46.4809C214.39 45.8728 215.214 45.5312 216.073 45.5312H239.889C240.749 45.5313 241.573 45.8728 242.181 46.4809C242.788 47.0889 243.13 47.9135 243.13 48.7734C243.13 49.6333 242.788 50.4579 242.181 51.066C241.573 51.674 240.749 52.0156 239.889 52.0156Z" fill="#0072F1"/>
<path d="M78.5888 125.604H17.5077C16.6643 125.58 15.8638 125.227 15.276 124.621C14.6882 124.016 14.3594 123.205 14.3594 122.361C14.3594 121.517 14.6882 120.706 15.276 120.1C15.8638 119.494 16.6643 119.142 17.5077 119.117H78.5888C79.4322 119.142 80.2327 119.494 80.8205 120.1C81.4083 120.706 81.7371 121.517 81.7371 122.361C81.7371 123.205 81.4083 124.016 80.8205 124.621C80.2327 125.227 79.4322 125.58 78.5888 125.604Z" fill="#0072F1"/>
<path d="M136.573 125.391H89.8087C88.9493 125.391 88.1251 125.049 87.5174 124.441C86.9097 123.833 86.5684 123.008 86.5684 122.148C86.5684 121.289 86.9097 120.464 87.5174 119.856C88.1251 119.248 88.9493 118.906 89.8087 118.906H136.573C137.432 118.906 138.257 119.248 138.864 119.856C139.472 120.464 139.813 121.289 139.813 122.148C139.813 123.008 139.472 123.833 138.864 124.441C138.257 125.049 137.432 125.391 136.573 125.391Z" fill="#0072F1"/>
<path d="M60.3519 112.078H17.3019C16.4425 112.078 15.6183 111.737 15.0106 111.128C14.4029 110.52 14.0615 109.696 14.0615 108.836C14.0615 107.976 14.4029 107.151 15.0106 106.543C15.6183 105.935 16.4425 105.594 17.3019 105.594H60.3519C61.2113 105.594 62.0355 105.935 62.6432 106.543C63.2509 107.151 63.5922 107.976 63.5922 108.836C63.5922 109.696 63.2509 110.52 62.6432 111.128C62.0355 111.737 61.2113 112.078 60.3519 112.078Z" fill="#0072F1"/>
<path d="M136.731 181.408H18.4166C17.0548 181.406 15.7492 180.864 14.7863 179.901C13.8234 178.937 13.2817 177.631 13.2803 176.269V138.866C13.2817 137.504 13.823 136.198 14.7853 135.234C15.7476 134.271 17.0525 133.729 18.4138 133.727H136.731C138.093 133.728 139.399 134.27 140.362 135.233C141.325 136.197 141.866 137.503 141.868 138.866V176.269C141.866 177.631 141.325 178.937 140.362 179.901C139.399 180.864 138.093 181.406 136.731 181.408ZM18.4166 134.961C17.3817 134.961 16.3894 135.373 15.6577 136.105C14.9259 136.837 14.5145 137.83 14.5138 138.866V176.269C14.5145 177.304 14.9259 178.297 15.6577 179.029C16.3894 179.761 17.3817 180.173 18.4166 180.174H136.731C137.766 180.173 138.759 179.761 139.49 179.029C140.222 178.297 140.634 177.304 140.634 176.269V138.866C140.634 137.83 140.222 136.837 139.49 136.105C138.759 135.373 137.766 134.961 136.731 134.961H18.4166Z" fill="#0072F1"/>
<path d="M240.669 181.408H156.032C154.671 181.406 153.366 180.863 152.403 179.9C151.441 178.937 150.9 177.631 150.898 176.269V138.863C150.9 137.501 151.441 136.196 152.404 135.233C153.366 134.27 154.671 133.728 156.032 133.727H240.663C242.024 133.728 243.329 134.27 244.291 135.233C245.254 136.196 245.795 137.501 245.797 138.863V176.269C245.795 177.63 245.255 178.935 244.293 179.898C243.332 180.861 242.029 181.404 240.669 181.408ZM156.032 134.958C154.997 134.959 154.005 135.371 153.274 136.103C152.542 136.835 152.131 137.828 152.129 138.863V176.269C152.131 177.304 152.542 178.296 153.274 179.028C154.005 179.76 154.997 180.172 156.032 180.174H240.663C241.698 180.172 242.689 179.76 243.421 179.028C244.153 178.296 244.564 177.304 244.566 176.269V138.863C244.564 137.828 244.153 136.835 243.421 136.103C242.689 135.371 241.698 134.959 240.663 134.958H156.032Z" fill="#0072F1"/>
<path d="M161.174 17.8125H18.8355C16.1121 17.8125 13.9043 20.0215 13.9043 22.7465V84.6138C13.9043 87.3388 16.1121 89.5478 18.8355 89.5478H161.174C163.898 89.5478 166.105 87.3388 166.105 84.6138V22.7465C166.105 20.0215 163.898 17.8125 161.174 17.8125Z" fill="#0072F1"/>
<path d="M453.042 334.167C452.451 331.083 451.891 328.795 451.379 326.626C447.62 310.579 443.584 297.505 440.637 288.68L432.643 259.539L334.037 277.478C334.037 277.478 330.843 299.022 324.335 334.167H453.042Z" fill="#0072F1"/>
<path d="M346.784 330.488C357.595 330.488 364.652 318.69 359.812 308.661C358.703 306.362 357.572 304.043 356.461 301.797C348.145 284.998 324.335 288.665 321.366 307.294C321.316 307.621 320.651 307.951 320.607 308.284C319.071 320.071 328.135 330.488 339.619 330.488H346.784Z" fill="#0072F1"/>
<path d="M482.263 198.39C482.263 156.971 474.224 137.848 417.911 122.358C403.608 118.426 382.525 116.773 362.091 119.072C305.189 119.776 283.447 145.178 263.525 144.549C241.591 143.855 223.388 115.375 223.388 115.375C216.129 107.49 208.42 111.478 204.31 113.824C199.373 116.634 197.266 123.204 196.376 127.816C195.802 130.788 196.293 133.866 197.762 136.511C205.036 149.546 230.584 192.352 254.226 195.863C272.983 198.659 310.578 188.211 327.705 184.902C339.782 227.092 320.604 308.271 320.604 308.271C334.926 298.009 382.888 311.241 413.628 322.929C428.998 328.775 442.794 325.514 452.87 319.745C462.945 313.976 445.108 254.391 445.108 254.391C445.108 254.391 482.263 234.5 482.263 198.39Z" fill="white"/>
<path d="M430.016 326.659C424.332 326.633 418.702 325.564 413.404 323.506C385.982 313.08 335.656 298.242 320.959 308.773C320.857 308.845 320.735 308.885 320.61 308.886C320.485 308.888 320.362 308.851 320.258 308.782C320.154 308.712 320.074 308.612 320.028 308.496C319.982 308.379 319.972 308.252 320 308.13C320.191 307.323 338.849 227.322 327.262 185.615C323.62 186.334 319.166 187.338 314.049 188.491C294.992 192.787 268.892 198.673 254.129 196.473C230.235 192.912 204.529 149.899 197.22 136.8C195.676 134.03 195.158 130.804 195.756 127.689C196.718 122.697 198.93 116.16 203.991 113.267C207.595 111.22 215.999 106.43 223.827 114.931C223.851 114.958 223.874 114.987 223.893 115.017C224.073 115.294 242.188 143.242 263.531 143.919C271.015 144.158 278.871 140.591 288.814 136.095C304.857 128.829 326.827 118.878 362.072 118.442C381.283 116.276 402.76 117.544 418.063 121.751C445.987 129.431 462.524 138.225 471.683 150.262C480.966 162.465 482.867 178.321 482.867 198.376C482.867 217.235 472.667 231.613 464.107 240.349C458.659 245.902 452.509 250.719 445.813 254.677C446.597 257.348 450.495 270.849 453.347 284.766C457.657 305.783 457.593 317.726 453.158 320.266C447.457 323.55 439.526 326.659 430.016 326.659ZM336.992 304C358.953 304 392.984 314.423 413.842 322.355C430.346 328.628 444.006 324.107 452.56 319.21C460.473 314.678 449.43 271.013 444.504 254.569C444.464 254.432 444.472 254.286 444.526 254.155C444.581 254.024 444.679 253.915 444.804 253.848C445.173 253.651 481.648 233.707 481.648 198.379C481.648 159.048 475.342 138.783 417.748 122.941C402.591 118.781 381.289 117.519 362.16 119.671C327.115 120.106 305.279 129.996 289.337 137.218C279.248 141.786 271.292 145.397 263.506 145.151C241.736 144.463 223.988 117.441 222.884 115.727C216.581 108.918 210.106 111.201 204.59 114.34C199.933 116.989 197.868 123.185 196.956 127.914C196.412 130.743 196.883 133.674 198.287 136.19C205.524 149.164 230.962 191.767 254.301 195.245C268.837 197.413 294.806 191.556 313.769 187.279C319.157 186.065 323.811 185.013 327.573 184.287C327.724 184.259 327.88 184.288 328.011 184.369C328.142 184.449 328.238 184.575 328.282 184.722C339.37 223.478 324.014 295.782 321.519 306.945C325.253 304.879 330.616 304 336.992 304Z" fill="#0072F1"/>
<path d="M211.547 142.152C205.205 142.152 201.092 135.127 200.917 134.825C200.846 134.684 200.832 134.521 200.878 134.369C200.923 134.218 201.025 134.09 201.162 134.011C201.298 133.932 201.46 133.909 201.614 133.946C201.767 133.983 201.901 134.077 201.987 134.209C202.026 134.278 206.001 141.015 211.661 140.918C216.021 140.852 220.337 136.897 224.489 129.161C224.567 129.017 224.698 128.91 224.854 128.862C225.011 128.815 225.18 128.832 225.324 128.909C225.468 128.986 225.575 129.118 225.623 129.274C225.67 129.431 225.653 129.6 225.576 129.744C221.194 137.906 216.517 142.08 211.675 142.152H211.547Z" fill="#0072F1"/>
<path d="M393.951 236.482C393.81 236.483 393.673 236.436 393.562 236.348C393.452 236.26 393.375 236.137 393.345 235.999C393.314 235.861 393.332 235.717 393.395 235.591C393.458 235.465 393.562 235.364 393.69 235.306C414.582 225.635 424.708 211.454 429.525 201.242C434.747 190.179 435.03 181.273 435.033 181.193C435.037 181.032 435.104 180.88 435.219 180.768C435.334 180.656 435.488 180.594 435.648 180.594H435.665C435.828 180.598 435.982 180.667 436.094 180.785C436.206 180.903 436.267 181.06 436.264 181.223C436.264 181.595 435.986 190.423 430.664 201.714C425.766 212.117 415.463 226.586 394.209 236.423C394.128 236.461 394.04 236.481 393.951 236.482Z" fill="#0072F1"/>
<path d="M403.184 265.534C403.028 265.523 402.881 265.454 402.774 265.339C402.667 265.224 402.607 265.074 402.607 264.917C402.607 264.76 402.667 264.609 402.774 264.494C402.881 264.38 403.028 264.31 403.184 264.3C428.802 263.994 445.697 254.468 445.871 254.371C446.013 254.289 446.181 254.268 446.339 254.311C446.497 254.354 446.631 254.457 446.712 254.599C446.794 254.741 446.815 254.91 446.772 255.068C446.729 255.225 446.626 255.36 446.484 255.441C446.315 255.538 429.137 265.223 403.204 265.534H403.184Z" fill="#0072F1"/>
<path d="M379.465 263.277C379.465 263.277 384.715 263.832 395.102 261.239C402.952 259.269 400.645 233.781 391.085 240.682C383.113 246.448 378.451 247.197 378.451 247.197L370.762 243.364C367.758 241.856 364.516 240.88 361.179 240.479C347.93 238.918 348.728 241.98 348.728 241.98C348.157 245.075 349.266 245.544 351.699 246.567L362.064 250.924C362.395 251.074 362.685 251.304 362.907 251.593C363.129 251.882 363.277 252.221 363.337 252.58C363.397 252.939 363.367 253.308 363.251 253.653C363.135 253.999 362.936 254.31 362.671 254.56C360.884 256.218 358.805 257.529 356.539 258.426C352.453 260.04 345.332 262.636 337.993 264.298C334.542 265.077 333.447 269.356 336.629 270.954L359.511 272.64C362.396 272.846 365.293 272.457 368.022 271.496C370.75 270.536 373.253 269.025 375.374 267.057L379.465 263.277Z" fill="white"/>
<path d="M361.015 273.302C360.497 273.302 359.981 273.283 359.463 273.244L336.584 271.558C336.504 271.552 336.425 271.53 336.354 271.494C334.774 270.709 333.95 269.25 334.136 267.594C334.363 265.714 335.852 264.147 337.842 263.712C345.304 262.023 352.611 259.327 356.3 257.868C358.494 257 360.507 255.73 362.235 254.124C362.431 253.942 362.578 253.713 362.662 253.459C362.747 253.205 362.765 252.934 362.717 252.671C362.677 252.416 362.573 252.175 362.415 251.972C362.256 251.768 362.048 251.609 361.811 251.508L351.444 247.149C349.057 246.147 347.474 245.485 348.09 241.976C348.082 241.778 348.114 241.58 348.184 241.395C348.253 241.209 348.359 241.039 348.495 240.894C349.814 239.383 354.099 239.042 361.245 239.882C364.652 240.292 367.963 241.288 371.03 242.828L378.514 246.566C379.44 246.355 383.842 245.16 390.71 240.187C393.252 238.351 395.145 238.801 396.298 239.499C399.76 241.613 401.011 248.768 400.179 254.199C399.533 258.439 397.729 261.232 395.231 261.856C386.084 264.15 380.903 264.014 379.667 263.934L375.786 267.517C371.757 271.222 366.488 273.286 361.015 273.302ZM336.8 270.337L359.554 272.002C362.356 272.194 365.167 271.812 367.815 270.879C370.464 269.946 372.894 268.482 374.958 266.577L379.049 262.81C379.114 262.751 379.19 262.707 379.273 262.679C379.356 262.652 379.444 262.643 379.531 262.652C379.584 262.652 384.823 263.165 394.951 260.628C396.944 260.128 398.413 257.704 398.982 253.971C399.749 248.924 398.605 242.323 395.655 240.523C394.452 239.788 393.033 240.001 391.434 241.161C383.434 246.946 378.73 247.753 378.533 247.784C378.406 247.804 378.275 247.785 378.159 247.728L370.473 243.895C367.533 242.418 364.359 241.463 361.093 241.072C351.713 239.963 349.789 241.249 349.423 241.668L349.309 241.804C349.331 241.895 349.331 241.99 349.309 242.082C348.83 244.691 349.484 244.966 351.915 245.989L362.279 250.346C362.706 250.529 363.08 250.815 363.367 251.18C363.654 251.544 363.845 251.975 363.923 252.432C364.008 252.898 363.973 253.378 363.824 253.827C363.674 254.277 363.414 254.681 363.066 255.003C361.225 256.714 359.081 258.067 356.744 258.991C352.195 260.786 345.271 263.268 338.106 264.888C337.41 265.02 336.772 265.364 336.28 265.873C335.787 266.382 335.463 267.031 335.353 267.73C335.242 268.837 335.761 269.777 336.8 270.337Z" fill="#0072F1"/>
<path d="M159.912 76.15C160.138 75.4319 160.622 74.8228 161.269 74.4398C161.917 74.0569 162.684 73.9271 163.421 74.0755C167.624 75.0018 189.258 79.7694 193.291 80.6874C197.324 81.6054 197.488 86.0984 199.786 90.2142C201.784 93.7947 208.656 106.91 216.156 116.049C217.259 117.417 217.926 119.085 218.072 120.837C218.217 122.588 217.835 124.343 216.974 125.875C215.965 127.67 214.682 129.434 213.163 130.474C209.252 133.144 206.314 136.334 198.472 117.535C197.995 116.386 197.186 115.405 196.149 114.718C193.896 113.222 191.868 111.412 190.126 109.343C190.126 109.343 176.97 125.412 173.608 92.7796C173.309 89.8786 174.6 87.0552 177.04 85.6269C177.234 85.5123 177.439 85.3986 177.655 85.2858L161.894 80.2298C161.091 79.9508 160.432 79.3647 160.06 78.5998C159.689 77.835 159.636 76.954 159.912 76.15Z" fill="white"/>
<path d="M208.936 133.125C208.583 133.124 208.231 133.074 207.891 132.975C204.975 132.124 201.984 127.578 197.888 117.769C197.458 116.733 196.729 115.85 195.795 115.231C193.697 113.834 191.792 112.169 190.126 110.278C188.865 111.609 185.356 114.807 181.639 113.689C177.204 112.352 174.291 105.341 173.004 92.8464C172.7 89.8955 173.933 87.0693 176.178 85.4607L161.715 80.8207C161.25 80.6696 160.819 80.4275 160.449 80.1085C160.078 79.7895 159.774 79.4 159.555 78.9625C159.087 78.0313 159.006 76.9523 159.331 75.9617C159.6 75.0951 160.182 74.3597 160.964 73.8984C161.745 73.4371 162.669 73.2828 163.558 73.4656C170.61 75.0187 189.724 79.2343 193.43 80.0775C196.565 80.7902 197.588 83.4444 198.697 86.2539C199.156 87.5073 199.701 88.7277 200.327 89.9066C200.546 90.2976 200.823 90.8052 201.158 91.407C203.806 96.2384 210.004 107.554 216.642 115.65C217.821 117.115 218.534 118.9 218.691 120.775C218.847 122.65 218.44 124.528 217.521 126.169C216.268 128.388 214.921 130.016 213.518 130.973L213.003 131.331C211.725 132.224 210.425 133.125 208.936 133.125ZM190.126 108.719C190.216 108.719 190.305 108.738 190.386 108.776C190.468 108.814 190.54 108.869 190.598 108.938C192.295 110.965 194.273 112.739 196.471 114.208C197.612 114.96 198.501 116.037 199.024 117.3C202.858 126.475 205.785 131.081 208.238 131.797C209.624 132.196 210.849 131.331 212.285 130.33L212.811 129.966C214.053 129.118 215.273 127.639 216.432 125.576C217.232 124.152 217.588 122.521 217.453 120.893C217.318 119.265 216.699 117.715 215.675 116.443C208.964 108.258 202.727 96.8735 200.064 92.0116C199.736 91.4126 199.459 90.9022 199.232 90.5195C198.577 89.2921 198.009 88.0206 197.53 86.7143C196.471 84.0019 195.634 81.858 193.139 81.2922C189.433 80.4602 170.324 76.2335 163.275 74.6803C162.686 74.5623 162.074 74.6671 161.558 74.9745C161.042 75.2819 160.658 75.7701 160.481 76.3444C160.369 76.6801 160.325 77.0347 160.352 77.3876C160.378 77.7405 160.475 78.0845 160.636 78.3995C160.781 78.6919 160.982 78.9524 161.229 79.1657C161.476 79.3791 161.762 79.541 162.072 79.642L177.83 84.7008C177.946 84.7377 178.048 84.8079 178.124 84.9026C178.2 84.9974 178.246 85.1124 178.257 85.2334C178.267 85.3543 178.242 85.4757 178.184 85.5822C178.126 85.6888 178.037 85.7758 177.93 85.8324C177.725 85.9405 177.528 86.0515 177.342 86.1596C175.161 87.4354 173.93 90.0092 174.21 92.7189C175.743 107.604 179.277 111.695 181.972 112.505C185.75 113.639 189.6 108.999 189.639 108.952C189.696 108.882 189.767 108.825 189.849 108.787C189.93 108.748 190.019 108.727 190.11 108.727L190.126 108.719Z" fill="#0072F1"/>
<path d="M193.139 102.597C193.03 102.598 192.923 102.57 192.829 102.514C191.784 101.904 189.863 100.539 189.084 99.982C184.826 96.9312 182.451 93.8804 181.411 92.3522C180.702 91.3296 180.332 90.1103 180.352 88.866C180.411 86.5945 181.852 86.0925 182.545 85.8485C185.078 84.9637 189.139 87.4043 189.594 87.6872C189.663 87.7297 189.722 87.7853 189.77 87.8508C189.817 87.9163 189.851 87.9906 189.87 88.0692C189.888 88.1479 189.891 88.2295 189.878 88.3094C189.866 88.3892 189.837 88.4657 189.795 88.5345C189.752 88.6034 189.697 88.6632 189.631 88.7105C189.566 88.7579 189.492 88.7919 189.413 88.8106C189.334 88.8292 189.253 88.8322 189.173 88.8194C189.093 88.8065 189.017 88.778 188.948 88.7356C187.839 88.0589 184.629 86.4281 182.952 87.0133C182.298 87.2407 181.622 87.4765 181.583 88.8993C181.568 89.8902 181.866 90.8607 182.434 91.6727C183.426 93.1426 185.702 96.0464 189.802 98.9891C190.398 99.4162 192.421 100.858 193.449 101.457C193.567 101.525 193.658 101.63 193.71 101.756C193.761 101.881 193.77 102.02 193.735 102.151C193.699 102.282 193.622 102.397 193.514 102.479C193.406 102.562 193.275 102.606 193.139 102.606V102.597Z" fill="#0072F1"/>
<path d="M190.304 110.153C190.22 110.153 190.136 110.136 190.059 110.103C189.982 110.069 189.912 110.02 189.855 109.959C186.368 106.251 186.573 102.307 186.584 102.141C186.594 101.977 186.669 101.825 186.791 101.717C186.914 101.608 187.075 101.553 187.238 101.564C187.401 101.574 187.554 101.649 187.662 101.772C187.77 101.894 187.825 102.055 187.815 102.218C187.815 102.276 187.659 105.824 190.753 109.113C190.864 109.232 190.923 109.391 190.918 109.554C190.913 109.717 190.844 109.872 190.725 109.984C190.612 110.092 190.461 110.153 190.304 110.153Z" fill="#0072F1"/>
<path d="M397.463 121.395L396.038 82.7969L368.977 97.0163L369.273 121.423C369.47 126.859 373.933 129.893 373.933 129.893C379.476 134.1 387.213 133.337 392.851 129.285L394.156 128.345C395.241 127.553 396.111 126.502 396.689 125.289C397.266 124.075 397.532 122.737 397.463 121.395Z" fill="white"/>
<path d="M382.572 133.33C379.322 133.363 376.152 132.322 373.553 130.368C373.386 130.257 368.857 127.112 368.649 121.429L368.35 97.0231C368.348 96.9091 368.378 96.7969 368.436 96.699C368.494 96.6011 368.579 96.5212 368.68 96.4684L395.741 82.2489C395.833 82.1984 395.935 82.1719 396.039 82.1719C396.144 82.1719 396.246 82.1984 396.337 82.2489C396.427 82.3013 396.503 82.3755 396.556 82.4647C396.61 82.5539 396.641 82.6552 396.645 82.7592L398.073 121.355C398.148 122.798 397.861 124.238 397.238 125.543C396.615 126.847 395.675 127.975 394.505 128.823L393.2 129.761C390.118 132.034 386.401 133.283 382.572 133.33ZM369.589 97.3808L369.866 121.399C370.049 126.43 374.215 129.339 374.259 129.37C379.318 133.217 386.625 132.975 392.468 128.768L393.773 127.831C394.776 127.101 395.58 126.132 396.113 125.012C396.645 123.892 396.889 122.657 396.822 121.418L395.436 83.7992L369.589 97.3808Z" fill="#0072F1"/>
<path d="M356.686 38.5831C363.91 38.1505 354.829 45.7941 381.542 37.7733C392.18 34.5727 386.808 47.3556 389.561 46.5346C399.761 43.4977 399.409 43.5892 404.39 44.9343C407.686 45.8246 409.831 52.0815 409.213 56.7548C408.382 62.9229 403.448 64.5205 399.068 77.5557C395.994 86.7081 396.748 92.2744 393.183 93.6112C389.619 94.948 386.919 89.9835 382.875 91.1539C377.639 92.6654 378.673 101.993 373.578 105.853C370.365 108.291 362.89 109.425 350.91 103.426C349.958 102.934 349.204 102.129 348.774 101.148C348.344 100.166 348.263 99.0662 348.545 98.0321C349.28 95.2752 350.228 91.7973 351.403 88.5524C356.999 73.0876 362.349 69.5903 360.409 65.5855C357.44 59.4478 346.159 62.9701 344.29 57.928C342.353 52.6917 346.796 39.1711 356.686 38.5831Z" fill="#0072F1"/>
<path d="M381.896 65.2129L379.831 69.1873C378.855 71.0595 378.007 72.9962 377.295 74.9838C375.956 78.7196 373.414 85.0403 372.028 88.6097C367.56 100.089 353.847 87.4782 353.847 87.4782L352.883 84.3164L351.039 83.5427C350.677 83.3987 350.358 83.1614 350.116 82.8548C349.836 82.4854 349.676 82.038 349.66 81.5742C349.643 81.1103 349.771 80.6528 350.025 80.2644C352.78 76.0738 358.529 66.6745 360.591 58.221C360.597 58.2238 372.363 55.0926 381.896 65.2129Z" fill="white"/>
<path d="M365.816 94.0445C360.145 94.0445 353.717 88.2008 353.421 87.9263C353.339 87.8512 353.28 87.7553 353.249 87.6489L352.378 84.7673L350.801 84.1045C350.337 83.9183 349.93 83.612 349.623 83.217C349.268 82.7451 349.066 82.1752 349.046 81.5847C349.025 80.9942 349.187 80.4117 349.509 79.9165C351.971 76.1752 357.919 66.5541 359.993 58.0673C360.02 57.9601 360.075 57.8619 360.152 57.783C360.23 57.704 360.327 57.6471 360.433 57.618C360.555 57.5875 372.671 54.5145 382.331 64.7818C382.419 64.8748 382.476 64.993 382.493 65.1199C382.511 65.2467 382.488 65.3758 382.428 65.4891L380.363 69.4606C379.405 71.3099 378.571 73.2214 377.869 75.1823C376.896 77.8975 375.263 82.0327 373.952 85.3581C373.445 86.6477 372.973 87.8542 372.591 88.8249C371.499 91.6288 369.775 93.3234 367.466 93.8587C366.925 93.9827 366.371 94.0451 365.816 94.0445ZM354.377 87.1275C355.375 88.0067 362.205 93.8199 367.194 92.6744C369.082 92.2362 370.52 90.794 371.446 88.3922C371.831 87.4076 372.303 86.2123 372.813 84.9199C374.118 81.6056 375.748 77.4787 376.715 74.7829C377.439 72.7696 378.296 70.8072 379.282 68.9087L381.145 65.3282C378.606 62.6615 375.446 60.6652 371.948 59.5173C368.451 58.3694 364.723 58.1057 361.099 58.7496C358.984 67.0089 353.595 75.9672 350.541 80.6127C350.357 80.8949 350.265 81.2269 350.277 81.5634C350.289 81.8999 350.404 82.2246 350.607 82.4931C350.784 82.7128 351.015 82.8821 351.278 82.984L353.113 83.755C353.197 83.7903 353.272 83.8436 353.333 83.9112C353.393 83.9788 353.439 84.059 353.465 84.1461L354.377 87.1275Z" fill="#0072F1"/>
<path d="M378.978 79.0714C378.978 79.0714 383.936 69.5141 387.659 72.7701C391.382 76.0262 385.672 86.4016 378.978 79.0714Z" fill="white"/>
<path d="M360.622 80.7093C360.14 80.7234 359.66 80.6415 359.21 80.4681C358.759 80.2948 358.348 80.0336 358 79.6998C356.714 78.4573 356.157 76.0943 356.337 72.6469C356.484 70.0066 357.224 68.4285 358.596 67.8211C359.066 67.5999 359.577 67.4778 360.096 67.4626C360.615 67.4473 361.132 67.5391 361.614 67.7323C361.978 67.8741 362.309 68.0879 362.588 68.361C362.866 68.6341 363.087 68.9609 363.236 69.3215C364.882 73.6952 364.195 77.2896 363.003 79.195C362.449 80.0964 361.759 80.6261 361.088 80.6871C360.938 80.7093 360.777 80.7093 360.622 80.7093ZM360.256 68.6947C359.86 68.6981 359.469 68.784 359.109 68.9471C358.199 69.3493 357.701 70.5834 357.579 72.7162C357.409 75.7337 357.856 77.8443 358.856 78.8178C359.391 79.3364 360.093 79.5472 360.988 79.464C361.199 79.4446 361.595 79.1506 361.972 78.546C362.962 76.9679 363.585 73.7202 362.097 69.7597C362.005 69.5572 361.875 69.3748 361.712 69.2229C361.55 69.0711 361.36 68.9529 361.152 68.875C360.868 68.7553 360.564 68.693 360.256 68.6919V68.6947Z" fill="#0072F1"/>
<path d="M383.454 71.6429H383.374L360.788 68.6892C360.706 68.6808 360.627 68.6561 360.555 68.6165C360.483 68.5769 360.419 68.5232 360.368 68.4586C360.317 68.3939 360.279 68.3197 360.257 68.2403C360.236 68.1609 360.23 68.0779 360.241 67.9962C360.251 67.9145 360.278 67.8358 360.32 67.7648C360.362 67.6937 360.417 67.6318 360.483 67.5826C360.55 67.5335 360.625 67.4981 360.705 67.4785C360.785 67.459 360.868 67.4557 360.949 67.4689L383.534 70.4198C383.689 70.4407 383.83 70.5195 383.928 70.6402C384.027 70.7609 384.076 70.9146 384.066 71.0703C384.056 71.2259 383.987 71.3719 383.873 71.4787C383.76 71.5855 383.61 71.6452 383.454 71.6457V71.6429Z" fill="#0072F1"/>
<path d="M350.754 78.2868C350.658 78.2875 350.563 78.2657 350.477 78.223C349.828 77.9123 349.368 76.7059 349.149 76.0042C348.462 73.8187 348.229 70.5932 349.64 68.0888C349.838 67.7005 350.123 67.3626 350.472 67.1007C350.82 66.8388 351.224 66.6598 351.652 66.5772C353.789 66.1723 356.289 68.1831 356.395 68.2691C356.522 68.372 356.602 68.5212 356.619 68.6837C356.636 68.8463 356.588 69.0089 356.485 69.1358C356.382 69.2626 356.233 69.3434 356.07 69.3603C355.908 69.3772 355.745 69.3289 355.619 69.2259C355.023 68.7405 353.179 67.5424 351.879 67.7892C351.628 67.8402 351.392 67.9486 351.19 68.1059C350.987 68.2632 350.824 68.4652 350.712 68.6962C348.822 72.0493 350.435 76.6698 351.037 77.1191C351.109 77.1537 351.174 77.2024 351.227 77.2624C351.28 77.3224 351.321 77.3924 351.347 77.4684C351.373 77.5444 351.383 77.6248 351.377 77.7048C351.372 77.7849 351.35 77.863 351.314 77.9345C351.263 78.0401 351.184 78.1291 351.085 78.1914C350.986 78.2538 350.871 78.2868 350.754 78.2868Z" fill="#0072F1"/>
<path d="M209.072 322.317C218.513 322.317 226.166 314.659 226.166 305.213C226.166 295.767 218.513 288.109 209.072 288.109C199.631 288.109 191.978 295.767 191.978 305.213C191.978 314.659 199.631 322.317 209.072 322.317Z" fill="white"/>
<path d="M264.967 322.317C274.408 322.317 282.061 314.659 282.061 305.213C282.061 295.767 274.408 288.109 264.967 288.109C255.526 288.109 247.873 295.767 247.873 305.213C247.873 314.659 255.526 322.317 264.967 322.317Z" fill="white"/>
<path d="M264.967 322.937C261.464 322.937 258.04 321.898 255.127 319.95C252.214 318.003 249.944 315.235 248.603 311.997C247.263 308.758 246.912 305.195 247.595 301.757C248.279 298.319 249.966 295.161 252.443 292.683C254.92 290.204 258.076 288.517 261.512 287.833C264.948 287.149 268.509 287.5 271.745 288.841C274.982 290.183 277.748 292.454 279.694 295.369C281.641 298.283 282.68 301.709 282.68 305.215C282.672 309.913 280.804 314.416 277.484 317.738C274.163 321.06 269.663 322.93 264.967 322.937ZM264.967 288.726C261.708 288.726 258.522 289.693 255.812 291.505C253.102 293.317 250.99 295.892 249.743 298.905C248.495 301.918 248.169 305.233 248.805 308.431C249.441 311.63 251.01 314.568 253.315 316.873C255.62 319.179 258.556 320.75 261.752 321.386C264.949 322.022 268.262 321.696 271.273 320.448C274.284 319.2 276.858 317.086 278.669 314.375C280.48 311.663 281.446 308.476 281.446 305.215C281.443 300.842 279.706 296.649 276.617 293.556C273.527 290.463 269.338 288.723 264.967 288.718V288.726Z" fill="#0072F1"/>
<path d="M259.287 311.832V298.591C259.287 298.436 259.327 298.284 259.402 298.149C259.477 298.013 259.586 297.899 259.717 297.817C259.849 297.736 259.999 297.689 260.153 297.681C260.308 297.673 260.462 297.705 260.601 297.773L273.834 304.313C273.985 304.389 274.112 304.505 274.201 304.649C274.29 304.793 274.337 304.959 274.337 305.128C274.337 305.297 274.29 305.463 274.201 305.607C274.112 305.751 273.985 305.868 273.834 305.944L260.601 312.647C260.462 312.715 260.308 312.747 260.154 312.739C260 312.732 259.85 312.685 259.718 312.603C259.587 312.522 259.479 312.408 259.403 312.273C259.328 312.138 259.288 311.986 259.287 311.832Z" fill="#0072F1"/>
<path d="M320.862 322.317C330.303 322.317 337.956 314.659 337.956 305.213C337.956 295.767 330.303 288.109 320.862 288.109C311.421 288.109 303.768 295.767 303.768 305.213C303.768 314.659 311.421 322.317 320.862 322.317Z" fill="white"/>
<path d="M320.862 322.937C317.358 322.937 313.934 321.898 311.02 319.951C308.107 318.004 305.837 315.237 304.496 311.999C303.155 308.76 302.803 305.197 303.486 301.759C304.17 298.321 305.856 295.163 308.333 292.684C310.81 290.205 313.966 288.517 317.402 287.833C320.838 287.149 324.4 287.5 327.636 288.841C330.873 290.182 333.64 292.454 335.586 295.368C337.532 298.283 338.571 301.709 338.571 305.215C338.564 309.912 336.696 314.415 333.376 317.737C330.057 321.059 325.556 322.929 320.862 322.937ZM320.862 288.726C317.602 288.726 314.416 289.693 311.706 291.505C308.997 293.317 306.884 295.892 305.637 298.905C304.39 301.918 304.064 305.233 304.699 308.431C305.335 311.63 306.905 314.568 309.209 316.873C311.514 319.179 314.45 320.75 317.647 321.386C320.843 322.022 324.157 321.696 327.168 320.448C330.179 319.2 332.753 317.086 334.563 314.375C336.374 311.663 337.34 308.476 337.34 305.215C337.337 300.842 335.601 296.649 332.511 293.556C329.422 290.463 325.232 288.723 320.862 288.718V288.726Z" fill="#0072F1"/>
<path d="M326.467 311.417C326.386 311.417 326.306 311.402 326.231 311.371C326.156 311.34 326.089 311.294 326.032 311.236L314.626 299.826C314.564 299.77 314.514 299.702 314.479 299.626C314.444 299.55 314.425 299.467 314.423 299.383C314.421 299.3 314.436 299.216 314.467 299.139C314.498 299.061 314.545 298.99 314.604 298.931C314.663 298.872 314.734 298.825 314.811 298.794C314.889 298.763 314.972 298.748 315.056 298.75C315.14 298.752 315.222 298.771 315.298 298.806C315.374 298.841 315.442 298.891 315.499 298.953L326.902 310.366C326.959 310.423 327.005 310.491 327.036 310.565C327.067 310.64 327.083 310.72 327.083 310.801C327.083 310.882 327.067 310.962 327.036 311.037C327.005 311.111 326.959 311.179 326.902 311.236C326.845 311.294 326.778 311.34 326.703 311.371C326.628 311.402 326.548 311.417 326.467 311.417Z" fill="#0072F1"/>
<path d="M315.064 311.417C314.942 311.418 314.822 311.382 314.721 311.315C314.619 311.247 314.54 311.151 314.493 311.039C314.446 310.926 314.433 310.802 314.457 310.682C314.481 310.562 314.539 310.452 314.626 310.366L326.032 298.953C326.148 298.838 326.305 298.773 326.468 298.773C326.632 298.774 326.788 298.839 326.904 298.955C327.019 299.071 327.084 299.228 327.084 299.391C327.083 299.555 327.018 299.712 326.902 299.827L315.499 311.237C315.442 311.294 315.374 311.34 315.299 311.371C315.224 311.402 315.144 311.417 315.064 311.417Z" fill="#0072F1"/>
<path d="M239.111 237.35C238.978 237.349 238.849 237.305 238.743 237.225C238.637 237.145 238.559 237.032 238.522 236.905C238.485 236.777 238.489 236.641 238.536 236.516C238.582 236.391 238.667 236.285 238.778 236.212L269.034 216.754C269.171 216.666 269.338 216.636 269.497 216.67C269.657 216.705 269.796 216.802 269.884 216.94C269.973 217.077 270.003 217.244 269.968 217.404C269.933 217.564 269.836 217.703 269.699 217.791L239.444 237.25C239.345 237.314 239.229 237.349 239.111 237.35Z" fill="#0072F1"/>
<path d="M198.919 263.203C198.785 263.203 198.656 263.16 198.549 263.08C198.443 263 198.365 262.888 198.327 262.76C198.289 262.632 198.294 262.495 198.34 262.37C198.386 262.245 198.471 262.139 198.583 262.066L225.978 244.449C226.115 244.361 226.282 244.331 226.442 244.366C226.601 244.401 226.74 244.497 226.829 244.635C226.917 244.773 226.947 244.94 226.912 245.099C226.877 245.259 226.78 245.398 226.643 245.486L199.251 263.103C199.152 263.168 199.037 263.203 198.919 263.203Z" fill="#0072F1"/>
<path d="M225.11 267.639C224.977 267.638 224.848 267.594 224.742 267.514C224.636 267.434 224.558 267.322 224.521 267.194C224.484 267.067 224.488 266.93 224.535 266.806C224.581 266.681 224.666 266.574 224.777 266.502L295.225 221.192C295.293 221.148 295.369 221.118 295.449 221.104C295.528 221.089 295.61 221.091 295.689 221.108C295.768 221.125 295.843 221.157 295.91 221.204C295.976 221.25 296.033 221.308 296.077 221.377C296.121 221.445 296.151 221.521 296.166 221.6C296.18 221.68 296.179 221.762 296.162 221.841C296.144 221.92 296.112 221.995 296.066 222.062C296.02 222.129 295.961 222.186 295.893 222.229L225.443 267.539C225.344 267.604 225.228 267.639 225.11 267.639Z" fill="#0072F1"/>
<path d="M141.971 395.357L55.6293 394.497C40.0181 394.497 26.6631 384.299 23.9273 368.773L9.14762 284.865C7.38748 274.881 14.9963 265.695 25.0499 265.695H81.3856L141.971 395.357Z" fill="white"/>
<path d="M141.97 395.971L55.629 395.111C39.3331 395.111 26.0475 384.325 23.3255 368.88L8.54028 284.972C8.10457 282.523 8.21138 280.009 8.85318 277.606C9.49498 275.203 10.6561 272.971 12.2546 271.066C13.8193 269.192 15.7762 267.684 17.987 266.649C20.1979 265.615 22.6088 265.078 25.0496 265.078H81.3853C81.5018 265.079 81.6158 265.112 81.7139 265.175C81.812 265.238 81.8903 265.328 81.9397 265.433L142.525 395.095C142.568 395.188 142.588 395.291 142.581 395.395C142.575 395.498 142.542 395.597 142.487 395.685C142.432 395.772 142.356 395.844 142.265 395.894C142.175 395.944 142.074 395.971 141.97 395.971ZM25.0496 266.31C22.7886 266.31 20.5553 266.807 18.5072 267.765C16.4592 268.724 14.6465 270.12 13.197 271.856C11.7142 273.623 10.6373 275.694 10.0424 277.923C9.44749 280.152 9.34917 282.485 9.75436 284.756L24.534 368.664C27.1507 383.507 39.9374 393.877 55.629 393.877L141.003 394.726L81 266.315L25.0496 266.31Z" fill="#0072F1"/>
<path d="M90.4609 497.954H76.2578V394.352L90.4609 394.892V497.954Z" fill="#0072F1"/>
<path d="M116.901 480.617H53.0038C48.2191 480.617 43.6303 482.518 40.246 485.902C36.8617 489.286 34.959 493.877 34.9561 498.664H134.965C134.964 496.292 134.495 493.944 133.586 491.754C132.677 489.563 131.346 487.573 129.669 485.897C127.991 484.221 126 482.893 123.81 481.987C121.619 481.081 119.272 480.615 116.901 480.617Z" fill="#0072F1"/>
<path d="M32.5037 331.094C32.3592 331.094 32.2193 331.043 32.1084 330.95C31.9975 330.858 31.9226 330.729 31.8967 330.587L24.7341 289.853C24.717 289.772 24.7163 289.689 24.732 289.607C24.7478 289.526 24.7798 289.449 24.826 289.381C24.8722 289.312 24.9317 289.254 25.001 289.209C25.0703 289.164 25.1479 289.133 25.2293 289.119C25.3106 289.104 25.394 289.107 25.4745 289.125C25.555 289.144 25.6309 289.178 25.6978 289.227C25.7646 289.276 25.821 289.337 25.8635 289.408C25.9061 289.479 25.9339 289.558 25.9454 289.639L33.1107 330.37C33.139 330.531 33.1024 330.697 33.0089 330.831C32.9154 330.965 32.7726 331.057 32.6118 331.086L32.5037 331.094Z" fill="#0072F1"/>
<path d="M113.728 198.06C119.399 197.558 123.365 202.733 126.542 210.571C129.131 216.969 128.114 222.297 124.602 225.806C113.279 237.157 100.994 269.904 84.196 279.866C70.7968 287.812 42.7398 286.342 29.784 269.865C17.463 254.197 15.5892 231.508 29.5318 221.296C42.0634 212.119 53.7358 227.85 67.0381 219.316C80.1518 210.901 79.9439 203.923 87.6997 199.821C96.0375 195.414 97.648 199.486 113.728 198.06Z" fill="#0072F1"/>
<path d="M194.58 447.406C194.461 447.9 200.24 474.364 200.24 474.364L186.955 472.145L182.952 449.772L194.58 447.406Z" fill="white"/>
<path d="M200.24 474.979C200.206 474.981 200.172 474.981 200.138 474.979L186.852 472.76C186.727 472.739 186.611 472.68 186.521 472.59C186.431 472.501 186.37 472.386 186.348 472.261L182.345 449.887C182.317 449.729 182.353 449.565 182.443 449.432C182.534 449.299 182.673 449.207 182.83 449.174L194.456 446.817C194.548 446.798 194.643 446.801 194.734 446.825C194.825 446.848 194.909 446.892 194.981 446.954C195.052 447.015 195.108 447.092 195.146 447.178C195.183 447.264 195.2 447.358 195.196 447.452C195.284 448.561 198.613 464.04 200.842 474.246C200.862 474.336 200.861 474.43 200.84 474.52C200.819 474.609 200.779 474.693 200.721 474.765C200.663 474.837 200.59 474.895 200.507 474.935C200.424 474.975 200.333 474.995 200.24 474.995V474.979ZM187.49 471.601L199.448 473.603C195.501 455.506 194.384 449.918 194.081 448.137L183.67 450.248L187.49 471.601Z" fill="#0072F1"/>
<path d="M193.175 465.685C194.136 464.84 195.352 464.342 196.629 464.271C198.847 464.174 200.884 465.569 201.807 467.618C204.11 472.741 210.184 487.013 211.902 498.681C212.509 502.802 209.408 506.155 204.554 503.454C196.615 499.016 185.603 488.863 179.837 473.856C179.508 473.009 179.396 472.093 179.512 471.192C179.628 470.291 179.967 469.433 180.5 468.697C181.526 467.269 182.695 465.949 183.989 464.759C184.639 464.182 185.473 463.858 186.341 463.844C187.209 463.83 188.054 464.128 188.721 464.684L189.968 465.71C190.421 466.084 190.99 466.286 191.576 466.282C192.163 466.277 192.729 466.066 193.175 465.685Z" fill="white"/>
<path d="M207.839 505.049C206.866 505.049 205.674 504.772 204.266 503.995C195.95 499.364 185.032 489.074 179.274 474.078C178.905 473.136 178.78 472.116 178.908 471.113C179.037 470.11 179.417 469.155 180.012 468.337C181.062 466.873 182.26 465.52 183.588 464.302C184.345 463.62 185.324 463.236 186.342 463.219C187.361 463.203 188.351 463.554 189.131 464.21L190.379 465.236C190.721 465.516 191.15 465.667 191.592 465.664C192.033 465.661 192.46 465.504 192.798 465.22C193.864 464.289 195.209 463.74 196.621 463.661C199.041 463.556 201.333 465.048 202.386 467.372C204.881 472.883 210.818 486.961 212.531 498.593C212.881 500.969 212.091 503.141 210.472 504.261C209.696 504.788 208.776 505.063 207.839 505.049ZM186.398 464.46C185.665 464.458 184.957 464.729 184.411 465.22C183.148 466.381 182.007 467.669 181.007 469.064C180.534 469.716 180.233 470.476 180.131 471.276C180.029 472.075 180.13 472.887 180.425 473.637C186.066 488.336 196.748 498.393 204.867 502.919C206.783 503.987 208.523 504.103 209.762 503.246C211.001 502.389 211.584 500.681 211.304 498.773C209.613 487.294 203.714 473.343 201.256 467.877C200.424 466.01 198.575 464.809 196.665 464.892C195.524 464.956 194.438 465.403 193.583 466.163C193.025 466.633 192.32 466.893 191.591 466.898C190.861 466.903 190.153 466.653 189.589 466.19L188.341 465.161C187.795 464.708 187.108 464.458 186.398 464.454V464.46Z" fill="#0072F1"/>
<path d="M208.889 500.397C207.844 500.397 196.643 499.743 183.061 472.882C182.987 472.735 182.975 472.564 183.027 472.408C183.079 472.252 183.191 472.123 183.338 472.05C183.485 471.976 183.655 471.964 183.811 472.016C183.967 472.068 184.096 472.18 184.169 472.327C197.782 499.249 208.806 499.163 208.917 499.166C208.997 499.163 209.078 499.176 209.154 499.204C209.23 499.233 209.299 499.275 209.358 499.33C209.417 499.386 209.465 499.452 209.499 499.525C209.532 499.599 209.551 499.679 209.554 499.759C209.557 499.84 209.544 499.921 209.516 499.997C209.488 500.073 209.445 500.142 209.39 500.201C209.335 500.26 209.268 500.308 209.195 500.342C209.121 500.376 209.042 500.394 208.961 500.397H208.889Z" fill="#0072F1"/>
<path d="M200.382 485.604C200.238 485.606 200.098 485.556 199.987 485.465C199.875 485.373 199.8 485.246 199.773 485.104C199.746 484.963 199.769 484.816 199.839 484.69C199.909 484.564 200.02 484.467 200.155 484.415L206.452 481.919C206.528 481.889 206.608 481.874 206.689 481.875C206.77 481.876 206.85 481.893 206.924 481.925C206.998 481.958 207.065 482.004 207.122 482.062C207.178 482.12 207.222 482.189 207.252 482.264C207.282 482.339 207.297 482.419 207.296 482.5C207.294 482.581 207.277 482.661 207.245 482.735C207.213 482.81 207.167 482.877 207.109 482.933C207.051 482.99 206.982 483.034 206.907 483.064L200.609 485.56C200.537 485.588 200.46 485.603 200.382 485.604Z" fill="#0072F1"/>
<path d="M198.181 480.777C198.038 480.776 197.9 480.725 197.79 480.633C197.68 480.541 197.606 480.414 197.579 480.273C197.553 480.133 197.576 479.987 197.645 479.861C197.713 479.736 197.824 479.638 197.957 479.585L205.344 476.709C205.494 476.661 205.656 476.672 205.798 476.74C205.94 476.808 206.05 476.928 206.107 477.074C206.164 477.221 206.163 477.384 206.104 477.53C206.045 477.676 205.933 477.794 205.79 477.86L198.406 480.736C198.334 480.763 198.258 480.777 198.181 480.777Z" fill="#0072F1"/>
<path d="M137.89 447.336C137.796 447.538 137.058 450.645 136.482 455.878C135.523 464.601 145.28 472.677 145.28 472.677L122.168 469.548L123.052 449.363L137.89 447.336Z" fill="white"/>
<path d="M145.28 473.286C145.252 473.289 145.224 473.289 145.197 473.286L122.087 470.169C121.935 470.149 121.795 470.072 121.696 469.954C121.597 469.836 121.546 469.685 121.552 469.531L122.437 449.348C122.442 449.204 122.499 449.066 122.596 448.959C122.694 448.852 122.826 448.783 122.969 448.763L137.807 446.725C137.917 446.709 138.029 446.724 138.132 446.768C138.234 446.811 138.323 446.882 138.389 446.971C138.451 447.058 138.49 447.159 138.502 447.265C138.515 447.371 138.499 447.478 138.458 447.576C138.322 447.973 137.627 451.118 137.094 455.946C136.182 464.239 145.576 472.121 145.67 472.202C145.768 472.282 145.838 472.391 145.872 472.513C145.905 472.635 145.9 472.765 145.857 472.884C145.815 473.003 145.736 473.106 145.633 473.179C145.529 473.252 145.406 473.291 145.28 473.292V473.286ZM122.808 469.018L143.414 471.791C140.659 469.09 135.099 462.711 135.869 455.799C136.136 453.2 136.537 450.617 137.069 448.059L123.645 449.903L122.808 469.018Z" fill="#0072F1"/>
<path d="M127.504 463.701C128.857 463.254 128.549 461.158 129.658 460.17C131.321 458.681 133.422 458.709 135.415 459.716C140.404 462.231 154.014 469.459 162.618 477.43C165.667 480.247 165.335 484.826 159.885 485.808C150.96 487.417 136.066 486.524 122.232 478.528C121.445 478.075 120.785 477.431 120.313 476.655C119.84 475.88 119.571 474.998 119.529 474.09C119.463 472.584 119.529 467.584 119.837 465.72C119.981 464.861 120.425 464.081 121.09 463.52C121.755 462.958 122.598 462.65 123.468 462.653H125.076C126.284 462.669 126.354 464.081 127.504 463.701Z" fill="white"/>
<path d="M151.797 487.102C141.311 487.056 131.017 484.284 121.924 479.059C121.047 478.558 120.311 477.843 119.784 476.98C119.258 476.117 118.958 475.135 118.914 474.125C118.845 472.583 118.914 467.552 119.23 465.627C119.396 464.627 119.913 463.719 120.687 463.065C121.462 462.412 122.444 462.056 123.457 462.061H125.068C125.376 462.068 125.68 462.142 125.958 462.277C126.235 462.412 126.481 462.605 126.678 462.843C127.016 463.178 127.069 463.201 127.299 463.12C127.729 462.979 127.901 462.499 128.147 461.733C128.366 461.048 128.616 460.272 129.237 459.717C130.988 458.153 133.278 457.959 135.681 459.162C141.045 461.869 154.444 469.025 163.026 476.974C164.775 478.593 165.521 480.776 164.966 482.67C164.636 483.78 163.555 485.768 159.977 486.412C157.276 486.881 154.539 487.113 151.797 487.102ZM123.457 463.281C122.734 463.277 122.033 463.532 121.482 463.999C120.93 464.466 120.563 465.116 120.447 465.83C120.148 467.646 120.081 472.611 120.145 474.075C120.181 474.878 120.42 475.658 120.839 476.343C121.257 477.028 121.843 477.596 122.54 477.994C136.075 485.818 150.649 486.847 159.777 485.205C161.939 484.817 163.364 483.796 163.794 482.332C164.223 480.867 163.605 479.187 162.2 477.894C153.735 470.051 140.454 462.962 135.138 460.28C133.78 459.592 131.812 459.101 130.068 460.643C129.697 460.973 129.514 461.528 129.331 462.113C129.054 462.976 128.743 463.955 127.695 464.299C126.731 464.621 126.185 464.08 125.824 463.722C125.547 463.445 125.378 463.298 125.076 463.295H123.457V463.281Z" fill="#0072F1"/>
<path d="M151.577 483.059C145.756 483.059 136.947 481.473 124.136 475.726C123.986 475.66 123.87 475.537 123.811 475.384C123.753 475.231 123.757 475.062 123.824 474.912C123.89 474.763 124.014 474.646 124.166 474.588C124.319 474.529 124.488 474.534 124.637 474.6C151.99 486.859 160.511 479.787 160.594 479.715C160.717 479.607 160.878 479.552 161.041 479.563C161.203 479.574 161.356 479.649 161.463 479.771C161.571 479.894 161.625 480.055 161.615 480.218C161.604 480.381 161.529 480.533 161.406 480.641C161.199 480.813 158.499 483.059 151.577 483.059Z" fill="#0072F1"/>
<path d="M145.133 474.739C145.027 474.74 144.923 474.712 144.831 474.659C144.691 474.579 144.588 474.446 144.544 474.291C144.501 474.135 144.52 473.968 144.598 473.827L147.941 467.892C148.021 467.749 148.155 467.645 148.312 467.601C148.469 467.557 148.637 467.577 148.78 467.657C148.922 467.738 149.026 467.871 149.07 468.028C149.114 468.186 149.094 468.354 149.014 468.496L145.671 474.434C145.616 474.528 145.537 474.605 145.443 474.659C145.349 474.713 145.242 474.74 145.133 474.739Z" fill="#0072F1"/>
<path d="M140.41 472.391C140.297 472.391 140.187 472.36 140.091 472.302C139.952 472.216 139.852 472.079 139.813 471.92C139.774 471.761 139.799 471.593 139.883 471.453L143.65 465.271C143.735 465.132 143.873 465.032 144.031 464.994C144.19 464.955 144.358 464.982 144.497 465.067C144.636 465.153 144.736 465.29 144.774 465.449C144.812 465.608 144.786 465.775 144.701 465.915L140.936 472.097C140.881 472.186 140.804 472.261 140.711 472.312C140.619 472.364 140.515 472.391 140.41 472.391Z" fill="#0072F1"/>
<path d="M75.2731 345.574C75.2731 345.574 156.17 342.06 165.015 350.289C177.012 361.435 197.621 454.226 197.621 454.226L177.722 459.809C177.722 459.809 147.741 383.656 140.301 383.656C132.862 383.656 62.8301 381.16 62.8301 381.16L75.2731 345.574Z" fill="#0072F1"/>
<path d="M59.3601 343.023C59.3601 343.023 48.6912 374.363 57.1814 380.08C65.6717 385.796 126.872 385.307 124.749 384.595C122.626 383.882 119.274 435.904 119.274 455.917L138.544 456.66C138.544 456.66 169.251 376.197 165.942 367.202C160.021 351.116 115.372 345.705 100.786 343.556C97.7839 343.123 59.3601 343.023 59.3601 343.023Z" fill="#0072F1"/>
<path d="M155.755 411.483C155.691 411.484 155.628 411.474 155.567 411.455C155.411 411.405 155.281 411.295 155.207 411.15C155.132 411.004 155.118 410.835 155.167 410.679C155.86 408.516 156.546 406.389 157.224 404.3C162.615 387.629 167.272 373.237 165.346 367.413C161.252 355.052 130.639 350.312 120.577 348.756C120.416 348.731 120.271 348.643 120.174 348.511C120.078 348.379 120.038 348.214 120.063 348.053C120.088 347.892 120.176 347.747 120.308 347.65C120.44 347.554 120.604 347.514 120.766 347.539C138.547 350.29 162.621 355.304 166.515 367.028C168.569 373.232 164.082 387.113 158.397 404.685C157.723 406.771 157.033 408.898 156.343 411.064C156.301 411.187 156.221 411.293 156.116 411.368C156.011 411.443 155.884 411.483 155.755 411.483Z" fill="white"/>
<path d="M68.9481 248.004C68.9481 248.004 69.2252 242.837 66.0459 296.697C66.0459 296.697 68.2412 338.377 68.5157 343.075C68.7901 347.773 109.523 345.732 109.523 345.732C114.34 324.595 113.816 300.342 110.454 274.432L117.434 273.808L117.919 257.522C116.655 252.727 111.322 249.28 107.741 247.998C98.1969 243.708 81.2802 245.086 68.9481 248.004Z" fill="white"/>
<path d="M91.2361 346.788H89.1156C68.102 346.63 67.9606 344.168 67.8996 343.116C67.6225 338.468 65.4521 297.152 65.4299 296.736C65.427 296.713 65.427 296.69 65.4299 296.667C66.7687 274.069 67.495 261.863 67.8858 255.303C68.0826 252.025 68.1962 250.159 68.26 249.11C68.2877 248.664 68.3071 248.32 68.3348 248.059C68.3321 248.031 68.3321 248.002 68.3348 247.973V247.859H68.3515C68.4318 247.291 68.5732 247.235 68.9862 247.258C69.0638 247.262 69.1399 247.281 69.2108 247.313C81.0217 244.576 98.0993 242.995 107.987 247.441C112.167 248.936 117.275 252.694 118.52 257.37C118.535 257.427 118.543 257.487 118.542 257.547L118.057 273.822C118.053 273.972 117.994 274.115 117.892 274.225C117.79 274.335 117.652 274.403 117.502 274.418L111.16 274.973C114.822 303.578 114.487 326.767 110.138 345.854C110.107 345.985 110.035 346.102 109.932 346.188C109.829 346.275 109.701 346.325 109.567 346.331C109.464 346.35 100.613 346.788 91.2361 346.788ZM66.6634 296.697C66.7355 298.103 68.8615 338.451 69.1304 343.036C69.1304 343.277 69.8233 345.402 89.1267 345.546C97.9967 345.615 106.914 345.233 109.026 345.136C113.275 326.14 113.541 303.032 109.841 274.507C109.83 274.425 109.836 274.341 109.858 274.262C109.881 274.182 109.919 274.108 109.971 274.044C110.024 273.979 110.088 273.925 110.162 273.886C110.235 273.846 110.315 273.822 110.398 273.813L116.834 273.239L117.3 257.592C116.141 253.384 111.438 249.973 107.532 248.575C97.8886 244.243 81.1548 245.802 69.5323 248.497C69.4048 250.55 68.8643 259.519 66.6634 296.697Z" fill="#0072F1"/>
<path d="M93.2906 293.043C93.1533 293.041 93.0205 292.994 92.9132 292.908C92.8059 292.823 92.7303 292.704 92.6985 292.57C92.6666 292.436 92.6803 292.296 92.7373 292.171C92.7944 292.046 92.8916 291.944 93.0134 291.881C102.715 286.772 103.35 272.394 103.355 272.25C103.361 272.087 103.432 271.933 103.551 271.821C103.671 271.71 103.83 271.651 103.993 271.657C104.156 271.663 104.31 271.733 104.421 271.853C104.533 271.972 104.592 272.131 104.586 272.295C104.564 272.916 103.904 287.532 93.5899 292.973C93.4972 293.02 93.3945 293.044 93.2906 293.043Z" fill="#0072F1"/>
<path d="M75.83 247.283C75.83 247.283 66.0231 246.152 59.706 254.772C53.4332 263.344 52.6682 273.118 53.8518 280.975C55.8586 294.313 64.238 309.497 63.8527 313.641C63.6642 315.652 61.5327 329.952 53.4665 342.762C46.814 353.301 47.1078 376.562 48.405 377.317C57.1503 382.417 71.4893 392.765 88.5696 393.999C91.724 394.226 94.3018 392.593 94.7592 390.038C96.5831 379.829 101.47 350.22 102.204 322.422C102.842 298.351 85.709 261.797 84.955 258.66C83.1312 251.061 75.83 247.283 75.83 247.283Z" fill="white"/>
<path d="M89.1661 394.643C88.9554 394.643 88.742 394.643 88.5258 394.62C73.76 393.553 61.3031 385.915 52.2141 380.34C50.745 379.439 49.3591 378.587 48.1034 377.844C47.8262 377.683 47.6488 377.364 47.5047 376.776C46.565 372.946 46.7203 352.323 52.9542 342.43C61.4944 328.873 63.2324 313.73 63.2462 313.586C63.4042 311.897 61.8076 307.762 59.9588 302.988C57.4641 296.565 54.3817 288.566 53.2508 281.078C52.1975 274.078 52.3777 263.769 59.2187 254.42C65.6716 245.6 75.8084 246.654 75.9109 246.674C75.9853 246.682 76.0575 246.704 76.1244 246.737C76.432 246.895 83.6888 250.731 85.5488 258.522C85.6763 259.049 86.3803 260.793 87.3616 263.206C92.1431 275.007 103.339 302.633 102.815 322.444C102.089 349.949 97.3597 378.956 95.3612 390.152C94.8817 392.859 92.3759 394.643 89.1661 394.643ZM48.7964 376.837C50.0438 377.567 51.4075 378.404 52.8517 379.289C61.8381 384.797 74.148 392.343 88.6089 393.389C91.4667 393.594 93.748 392.177 94.1527 389.936C96.1484 378.767 100.866 349.832 101.59 322.414C102.105 302.861 90.5686 274.389 86.2251 263.672C85.1524 261.026 84.5038 259.429 84.3568 258.81C82.7325 252.057 76.5208 248.374 75.6504 247.888C74.561 247.805 65.8684 247.408 60.2027 255.146C53.6112 264.157 53.4421 274.122 54.4621 280.895C55.5709 288.259 58.6366 296.185 61.1008 302.553C63.1603 307.881 64.6516 311.73 64.4658 313.711C64.1027 317.593 61.4001 331.333 53.9881 343.109C47.4936 353.404 47.9066 375.076 48.7964 376.837Z" fill="#0072F1"/>
<path d="M156.761 322.131C145.396 317.722 125.366 299.372 119.928 284.723L119.404 259.271C118.803 255.255 117.389 253.633 114.035 251.392C112.371 250.34 110.538 249.583 108.616 249.156C108.616 249.156 107.668 248.618 107.457 253.827C107.358 256.362 110.581 284.562 111.158 308.741C111.562 325.659 109.04 340.433 109.217 343.687C109.217 343.928 120.358 346.155 121.106 345.409L121.181 345.184L120.541 314.05C126.797 319.508 138.752 328.918 148.259 328.577L156.761 322.131Z" fill="white"/>
<path d="M120.042 346.124C116.683 346.124 109.168 344.329 109.085 344.299C108.951 344.262 108.832 344.185 108.744 344.077C108.656 343.97 108.604 343.838 108.594 343.7C108.536 342.59 108.772 340.269 109.096 337.06C109.781 330.301 110.815 320.092 110.543 308.737C110.147 292.16 108.52 273.845 107.547 262.901C107.086 257.742 106.809 254.627 106.843 253.793C107.006 249.752 107.608 248.911 108.115 248.631C108.215 248.572 108.326 248.535 108.442 248.521C108.558 248.508 108.675 248.519 108.786 248.554C110.768 249 112.659 249.783 114.377 250.869C117.755 253.127 119.366 254.86 120.015 259.17C120.016 259.196 120.016 259.222 120.015 259.248L120.538 284.595C125.841 298.739 145.3 317.011 156.978 321.548C157.08 321.587 157.17 321.653 157.238 321.739C157.307 321.825 157.35 321.927 157.366 322.036C157.38 322.145 157.366 322.256 157.324 322.358C157.283 322.46 157.215 322.549 157.127 322.616L148.604 329.047C148.503 329.124 148.381 329.168 148.254 329.172C139.662 329.48 128.982 322.061 121.17 315.399L121.783 345.15C121.785 345.221 121.775 345.291 121.752 345.358L121.678 345.583C121.647 345.674 121.596 345.756 121.528 345.824C121.323 346.04 120.782 346.124 120.042 346.124ZM109.82 343.247C111.618 343.777 118.967 345.078 120.552 344.912L119.915 314.032C119.913 313.912 119.946 313.795 120.01 313.694C120.073 313.592 120.164 313.512 120.272 313.461C120.38 313.41 120.501 313.392 120.619 313.409C120.737 313.426 120.848 313.476 120.938 313.555C131.892 323.115 141.261 328.082 148.024 327.938L155.528 322.272C143.515 317.019 124.555 298.942 119.352 284.919C119.327 284.855 119.313 284.786 119.313 284.717L118.789 259.315C118.216 255.529 116.952 254.075 113.692 251.898C112.148 250.923 110.452 250.211 108.675 249.793C108.528 250.071 108.19 250.994 108.073 253.845C108.043 254.6 108.35 258.036 108.772 262.792C109.747 273.753 111.377 292.094 111.776 308.71C112.054 320.142 111.011 330.398 110.324 337.185C110.039 339.991 109.825 342.102 109.82 343.253V343.247Z" fill="#0072F1"/>
<path d="M142.281 324.03C142.598 323.397 143.144 322.908 143.808 322.663C144.285 322.486 144.748 322.274 145.194 322.028L151.383 318.744C152.542 318.19 154.2 319.499 155.403 319.895C159.034 321.088 166.554 323.9 165.936 326.552C165.268 329.403 158.807 328.052 156.511 327.478C155.988 327.348 151.245 329.067 149.74 329.181C147.664 329.339 147.184 328.812 146.172 328.277C145.695 328.037 145.168 327.915 144.634 327.922C144.213 327.925 143.797 327.834 143.416 327.656C143.036 327.477 142.7 327.215 142.433 326.89L142.419 326.873C142.131 326.512 141.953 326.075 141.906 325.616C141.859 325.156 141.946 324.692 142.156 324.28L142.281 324.03Z" fill="white"/>
<path d="M149.058 329.814C148.088 329.847 147.132 329.581 146.319 329.052C146.18 328.974 146.042 328.891 145.887 328.81C145.498 328.617 145.068 328.522 144.634 328.533C144.121 328.537 143.614 328.425 143.15 328.207C142.686 327.989 142.277 327.669 141.953 327.271C141.589 326.815 141.363 326.264 141.302 325.684C141.241 325.103 141.348 324.517 141.61 323.996L141.732 323.757C142.119 322.984 142.788 322.389 143.6 322.093C144.05 321.924 144.488 321.724 144.911 321.494L151.098 318.208C152.207 317.653 153.429 318.282 154.51 318.826C154.862 319.015 155.226 319.179 155.599 319.32C163.405 321.885 167.086 324.365 166.54 326.692C166.464 327.015 166.322 327.32 166.123 327.587C165.924 327.854 165.673 328.077 165.384 328.242C163.283 329.523 158.884 328.702 156.414 328.087C155.541 328.273 154.678 328.504 153.828 328.78C152.256 329.249 150.632 329.731 149.787 329.795C149.523 329.803 149.282 329.814 149.058 329.814ZM152.029 319.22C151.901 319.217 151.774 319.242 151.658 319.295L145.499 322.573C145.025 322.831 144.533 323.054 144.027 323.241C143.51 323.434 143.086 323.816 142.84 324.309L142.718 324.545C142.559 324.853 142.493 325.2 142.528 325.545C142.563 325.89 142.698 326.217 142.915 326.486C143.125 326.744 143.39 326.952 143.691 327.093C143.992 327.235 144.321 327.307 144.653 327.304C145.285 327.297 145.909 327.443 146.472 327.732C146.638 327.818 146.793 327.906 146.94 327.992C147.641 328.394 148.149 328.683 149.712 328.566C150.424 328.511 152.126 328.012 153.493 327.598C155.71 326.941 156.303 326.786 156.68 326.88C160.494 327.834 163.513 327.951 164.76 327.191C164.909 327.11 165.038 326.999 165.141 326.864C165.244 326.73 165.317 326.576 165.356 326.411C165.7 324.947 161.725 322.626 155.233 320.49C154.8 320.336 154.379 320.15 153.972 319.935C153.299 319.586 152.57 319.223 152.029 319.223V319.22Z" fill="#0072F1"/>
<path d="M84.7946 311.656C92.7831 329.942 107.072 334.288 130.508 337.411L128.014 344.344C92.9938 348.718 86.405 341.784 72.249 323.233L84.7946 311.656Z" fill="white"/>
<path d="M67.4036 356.896C64.5889 356.864 61.8072 356.286 59.2127 355.193C59.0613 355.132 58.9403 355.014 58.8763 354.863C58.8124 354.713 58.8107 354.544 58.8718 354.392C58.9328 354.24 59.0515 354.119 59.2017 354.055C59.3519 353.991 59.5214 353.99 59.6728 354.051C75.5363 360.46 83.8381 345.561 83.9212 345.412C83.9588 345.339 84.0105 345.274 84.0734 345.221C84.1362 345.169 84.2089 345.129 84.2873 345.105C84.3656 345.081 84.4479 345.073 84.5294 345.081C84.6109 345.089 84.69 345.114 84.762 345.153C84.834 345.192 84.8974 345.245 84.9486 345.309C84.9998 345.373 85.0377 345.447 85.0601 345.526C85.0824 345.605 85.0888 345.687 85.0789 345.768C85.069 345.85 85.0429 345.928 85.0023 346C84.9302 346.127 78.9319 356.896 67.4036 356.896Z" fill="#0072F1"/>
<path d="M120.552 312.929C120.392 312.929 120.239 312.868 120.123 312.757C120.008 312.646 119.94 312.495 119.934 312.336L119.102 288.889C119.099 288.808 119.111 288.727 119.14 288.651C119.168 288.575 119.211 288.506 119.266 288.446C119.321 288.387 119.387 288.339 119.461 288.306C119.535 288.272 119.614 288.254 119.695 288.251C119.777 288.246 119.858 288.258 119.935 288.285C120.011 288.313 120.081 288.356 120.141 288.411C120.201 288.467 120.248 288.534 120.281 288.608C120.314 288.683 120.332 288.763 120.333 288.845L121.164 312.291C121.167 312.372 121.154 312.453 121.126 312.529C121.098 312.605 121.055 312.674 121 312.733C120.945 312.793 120.879 312.84 120.805 312.874C120.731 312.908 120.652 312.926 120.571 312.929H120.552Z" fill="#0072F1"/>
<path d="M108.51 346.26C99.8982 346.26 95.7044 344.424 90.0581 341.95C88.6721 341.34 87.2224 340.71 85.5953 340.053C80.9081 338.17 77.5125 335.258 74.5854 330.623C73.2327 328.477 72.0907 326.186 70.9598 323.967C69.9758 322.026 68.9585 319.998 67.8165 318.107C67.7746 318.038 67.7468 317.961 67.7346 317.881C67.7224 317.801 67.7261 317.719 67.7454 317.641C67.7647 317.562 67.7992 317.488 67.8471 317.423C67.895 317.358 67.9552 317.303 68.0244 317.261C68.0935 317.219 68.1703 317.191 68.2502 317.179C68.3301 317.167 68.4117 317.17 68.4902 317.19C68.5687 317.209 68.6426 317.244 68.7077 317.292C68.7729 317.339 68.8279 317.4 68.8698 317.469C70.0368 319.41 71.0651 321.44 72.0602 323.412C73.169 325.601 74.3055 327.85 75.6277 329.961C78.3995 334.37 81.6232 337.133 86.0555 338.916C87.702 339.579 89.1517 340.214 90.5542 340.827C97.8276 344.014 102.631 346.116 118.206 344.432C119.446 344.299 124.438 344.346 125.666 344.396C125.746 344.4 125.826 344.419 125.899 344.453C125.973 344.487 126.039 344.535 126.093 344.594C126.148 344.654 126.191 344.724 126.219 344.799C126.247 344.875 126.259 344.956 126.256 345.037C126.253 345.118 126.234 345.197 126.2 345.271C126.166 345.344 126.118 345.41 126.058 345.465C125.999 345.52 125.929 345.563 125.853 345.59C125.777 345.618 125.697 345.631 125.616 345.628C124.446 345.581 119.518 345.533 118.337 345.658C115.074 346.034 111.794 346.234 108.51 346.26Z" fill="#0072F1"/>
<path d="M129.976 337.74H129.924C129.705 337.721 108.142 335.713 95.8462 327.126C92.1817 324.567 90.3551 318.903 88.4203 312.904C88.0378 311.712 87.6497 310.508 87.2423 309.315C87.216 309.239 87.2051 309.158 87.2102 309.077C87.2152 308.997 87.2361 308.918 87.2716 308.845C87.3071 308.772 87.3566 308.708 87.4172 308.654C87.4778 308.601 87.5483 308.559 87.6248 308.533C87.7012 308.507 87.7821 308.496 87.8627 308.501C87.9434 308.506 88.0222 308.527 88.0948 308.563C88.1674 308.598 88.2323 308.648 88.2858 308.708C88.3392 308.769 88.3802 308.84 88.4065 308.916C88.8167 310.114 89.2075 311.326 89.5928 312.521C91.4638 318.318 93.2267 323.79 96.5502 326.111C108.58 334.512 129.813 336.49 130.032 336.509C130.195 336.516 130.349 336.588 130.459 336.709C130.569 336.83 130.627 336.989 130.619 337.153C130.612 337.316 130.54 337.469 130.42 337.58C130.299 337.69 130.14 337.748 129.976 337.74Z" fill="#0072F1"/>
<path d="M124.937 340.637C125.252 340.003 125.797 339.514 126.461 339.27C126.938 339.092 127.402 338.88 127.847 338.635L134.037 335.351C135.196 334.782 136.853 336.105 138.056 336.502C141.687 337.694 149.207 340.507 148.589 343.158C147.921 346.009 141.457 344.658 139.165 344.084C138.638 343.954 133.898 345.674 132.39 345.787C130.317 345.945 129.837 345.418 128.823 344.883C128.347 344.643 127.82 344.522 127.287 344.528C126.864 344.534 126.445 344.444 126.061 344.265C125.677 344.087 125.338 343.824 125.07 343.496V343.48C124.782 343.118 124.604 342.681 124.558 342.222C124.512 341.762 124.599 341.298 124.809 340.887L124.937 340.637Z" fill="white"/>
<path d="M131.715 346.424C130.744 346.457 129.787 346.191 128.973 345.661C128.837 345.583 128.696 345.5 128.544 345.42C128.154 345.227 127.723 345.132 127.288 345.142C126.775 345.146 126.269 345.034 125.805 344.816C125.341 344.597 124.932 344.278 124.608 343.881C124.241 343.426 124.014 342.874 123.954 342.293C123.893 341.712 124.002 341.126 124.267 340.605L124.386 340.367C124.773 339.594 125.44 338.999 126.251 338.703C126.702 338.534 127.14 338.334 127.562 338.103L133.752 334.817C134.861 334.262 136.08 334.892 137.161 335.435C137.514 335.624 137.879 335.789 138.254 335.929C146.056 338.495 149.737 340.974 149.191 343.301C149.116 343.625 148.974 343.93 148.775 344.197C148.576 344.464 148.324 344.686 148.036 344.851C145.937 346.133 141.538 345.312 139.066 344.696C138.192 344.882 137.329 345.113 136.48 345.389C134.908 345.858 133.284 346.341 132.441 346.404C132.178 346.404 131.936 346.424 131.715 346.424ZM125.483 340.919L125.364 341.157C125.205 341.465 125.139 341.812 125.173 342.157C125.207 342.501 125.341 342.829 125.558 343.098C125.767 343.359 126.031 343.569 126.332 343.713C126.633 343.857 126.963 343.932 127.296 343.93C127.928 343.923 128.552 344.069 129.115 344.358C129.284 344.444 129.436 344.532 129.586 344.618C130.287 345.018 130.792 345.309 132.358 345.192C133.07 345.137 134.772 344.638 136.139 344.224C138.356 343.567 138.952 343.412 139.329 343.503C143.14 344.46 146.159 344.577 147.406 343.817C147.555 343.736 147.685 343.624 147.788 343.489C147.89 343.355 147.964 343.2 148.002 343.035C148.346 341.573 144.371 339.252 137.879 337.116C137.446 336.962 137.025 336.776 136.618 336.561C135.787 336.148 134.858 335.677 134.323 335.94L128.142 339.193C127.668 339.452 127.176 339.675 126.67 339.862C126.156 340.053 125.732 340.43 125.483 340.919Z" fill="#0072F1"/>
<path d="M120.846 236.803C121.05 236.775 121.246 236.705 121.421 236.598C121.597 236.49 121.748 236.348 121.867 236.179C121.985 236.011 122.067 235.819 122.108 235.618C122.149 235.416 122.147 235.208 122.104 235.006C120.929 229.737 121.381 220.698 121.206 220.953C119.327 223.713 115.413 220.249 109.842 220.03C106.515 219.899 105.243 221.866 104.752 223.477C104.716 223.594 104.647 223.699 104.554 223.778C104.46 223.858 104.346 223.909 104.224 223.926C104.103 223.943 103.979 223.925 103.867 223.874C103.755 223.823 103.661 223.741 103.594 223.638C102.782 222.379 101.398 221.311 99.3361 223.374C97.0438 225.668 98.9619 230.99 101.035 232.732C100.534 233.306 92.6115 241.851 86.5328 248.263C86.2492 248.564 86.0319 248.92 85.8952 249.31C85.7586 249.7 85.7055 250.115 85.7395 250.526C85.7735 250.938 85.8938 251.338 86.0925 251.701C86.2913 252.063 86.5641 252.379 86.8931 252.629L92.2955 256.731C93.9434 257.982 95.9358 258.696 98.0028 258.776C100.07 258.857 102.112 258.299 103.851 257.18L104.683 256.645C104.886 256.514 105.058 256.34 105.186 256.136C105.314 255.931 105.396 255.701 105.425 255.461C105.454 255.222 105.43 254.979 105.355 254.749C105.279 254.52 105.154 254.31 104.988 254.135L103.353 252.399C102.025 250.823 102.269 248.826 103.117 247.162L106.443 241.499C107.211 242.425 108.178 243.487 109.071 244.111C109.899 244.712 110.915 244.997 111.934 244.914C112.954 244.832 113.91 244.388 114.631 243.662C116.782 241.607 118.287 239.297 118.969 237.056L120.846 236.803Z" fill="white"/>
<path d="M98.3962 259.4C96.0579 259.403 93.7829 258.64 91.9183 257.228L86.5187 253.126C86.1215 252.825 85.7923 252.443 85.5525 252.006C85.3126 251.569 85.1674 251.086 85.1263 250.589C85.0853 250.092 85.1493 249.591 85.3142 249.121C85.4791 248.65 85.7412 248.219 86.0835 247.857C91.5081 242.124 98.4211 234.68 100.173 232.769C98.8341 231.327 97.7753 228.778 97.6782 226.64C97.6117 225.084 98.0303 223.808 98.8923 222.946C99.8708 221.964 100.833 221.517 101.77 221.617C102.654 221.712 103.433 222.28 104.103 223.312C104.616 221.789 105.98 219.271 109.858 219.429C112.181 219.52 114.249 220.164 115.912 220.68C118.484 221.479 119.864 221.836 120.693 220.622C120.768 220.511 120.876 220.428 121.002 220.384C121.128 220.339 121.264 220.336 121.392 220.375C121.866 220.519 121.866 220.561 121.866 222.621C121.866 225.395 121.866 231.144 122.697 234.888C122.76 235.17 122.763 235.461 122.707 235.744C122.651 236.028 122.538 236.296 122.373 236.533C122.206 236.774 121.991 236.978 121.741 237.132C121.492 237.286 121.213 237.387 120.923 237.429L119.443 237.637C118.675 239.883 117.167 242.119 115.061 244.132C114.236 244.954 113.146 245.456 111.986 245.549C110.825 245.642 109.669 245.32 108.724 244.64C107.92 244.039 107.187 243.347 106.54 242.579L103.643 247.482C103.144 248.467 102.476 250.414 103.821 252.009L105.434 253.717C105.661 253.959 105.833 254.248 105.936 254.563C106.039 254.879 106.072 255.213 106.032 255.542C105.992 255.872 105.88 256.189 105.703 256.47C105.527 256.751 105.291 256.99 105.013 257.17L104.181 257.705C102.456 258.815 100.447 259.403 98.3962 259.4ZM101.523 222.829C101.01 222.829 100.414 223.156 99.7683 223.808C98.9977 224.582 98.8785 225.75 98.9145 226.582C99.0143 228.867 100.3 231.297 101.429 232.262C101.492 232.314 101.544 232.38 101.582 232.453C101.619 232.526 101.642 232.607 101.648 232.689C101.654 232.771 101.644 232.853 101.618 232.931C101.592 233.008 101.55 233.08 101.495 233.141C101.005 233.696 93.21 242.116 86.9788 248.697C86.754 248.934 86.5816 249.215 86.4728 249.523C86.364 249.831 86.3213 250.159 86.3475 250.484C86.3736 250.81 86.468 251.126 86.6246 251.413C86.7811 251.699 86.9963 251.95 87.256 252.147L92.6584 256.249C94.2077 257.42 96.0781 258.088 98.0182 258.164C99.9583 258.239 101.875 257.718 103.51 256.671L104.342 256.136C104.469 256.054 104.576 255.945 104.656 255.817C104.737 255.689 104.787 255.545 104.805 255.395C104.822 255.245 104.806 255.092 104.758 254.948C104.71 254.805 104.632 254.673 104.528 254.563L102.889 252.83C101.551 251.24 101.437 249.085 102.554 246.889L105.911 241.192C105.961 241.107 106.031 241.034 106.115 240.982C106.199 240.929 106.294 240.897 106.393 240.889C106.492 240.882 106.591 240.898 106.682 240.936C106.773 240.975 106.854 241.035 106.917 241.112C107.641 242.045 108.479 242.884 109.412 243.608C110.122 244.129 110.997 244.376 111.875 244.304C112.753 244.232 113.576 243.846 114.193 243.217C116.264 241.239 117.708 239.057 118.37 236.877C118.405 236.765 118.47 236.665 118.559 236.589C118.648 236.513 118.756 236.464 118.872 236.447L120.735 236.17C120.857 236.153 120.974 236.111 121.079 236.047C121.184 235.982 121.275 235.897 121.345 235.795C121.413 235.698 121.46 235.588 121.483 235.472C121.505 235.356 121.504 235.237 121.478 235.121C120.613 231.238 120.613 225.395 120.613 222.585V222.277C119.274 222.985 117.506 222.435 115.526 221.82C113.849 221.301 111.951 220.71 109.791 220.624C107.46 220.533 105.95 221.548 105.315 223.636C105.244 223.866 105.11 224.071 104.927 224.227C104.744 224.383 104.521 224.483 104.283 224.517C104.045 224.55 103.803 224.514 103.584 224.414C103.366 224.314 103.181 224.154 103.05 223.952C102.596 223.251 102.116 222.868 101.623 222.815C101.589 222.818 101.556 222.823 101.523 222.829Z" fill="#0072F1"/>
<path d="M105.39 240.016L106.457 241.505L105.39 240.016Z" fill="white"/>
<path d="M106.457 242.123C106.358 242.123 106.262 242.1 106.174 242.055C106.087 242.01 106.012 241.945 105.955 241.865L104.888 240.376C104.804 240.242 104.775 240.082 104.806 239.928C104.836 239.773 104.925 239.637 105.052 239.545C105.18 239.454 105.338 239.414 105.494 239.435C105.65 239.456 105.792 239.535 105.891 239.657L106.958 241.147C107.053 241.28 107.091 241.446 107.064 241.608C107.037 241.769 106.947 241.913 106.814 242.009C106.71 242.084 106.585 242.124 106.457 242.123Z" fill="#0072F1"/>
<path d="M158.579 343.355L177.331 288.063C177.897 287.206 178.667 286.503 179.573 286.019C180.478 285.535 181.49 285.284 182.517 285.29H232.497C233.001 285.279 233.5 285.392 233.95 285.617C234.401 285.843 234.79 286.174 235.084 286.584C235.378 286.993 235.568 287.468 235.638 287.967C235.708 288.467 235.656 288.975 235.485 289.45C235.191 290.224 234.875 290.989 234.617 291.774L217.67 343.474C217.647 344.93 217.053 346.318 216.015 347.339C214.978 348.36 213.581 348.932 212.126 348.932H119.887C118.416 348.932 117.006 348.348 115.967 347.307C114.927 346.267 114.343 344.856 114.343 343.385L158.579 343.355Z" fill="#0072F1"/>
<path d="M195.728 313.609C195.024 315.949 196.1 318.346 198.134 318.961C200.169 319.577 202.384 318.174 203.091 315.833C203.797 313.492 202.716 311.093 200.685 310.48C198.653 309.867 196.432 311.265 195.728 313.609Z" fill="white"/>
<path d="M304.483 347.977H82.5776C78.442 347.977 75.2293 351.859 75.6978 356.297L91.0208 501.626H102.092L92.4982 365.233C92.3291 362.828 94.0892 360.779 96.3206 360.779H286.804C290.13 360.779 292.775 363.846 292.523 367.435L283.026 502.474H294.089L309.675 354.247C310.027 350.908 307.602 347.977 304.483 347.977Z" fill="white"/>
<path d="M294.088 503.101H283.025C282.941 503.101 282.857 503.084 282.779 503.051C282.702 503.018 282.632 502.969 282.574 502.907C282.516 502.845 282.472 502.772 282.443 502.692C282.415 502.613 282.404 502.528 282.41 502.443L291.906 367.404C291.969 366.606 291.867 365.803 291.606 365.046C291.346 364.289 290.933 363.593 290.393 363.003C289.937 362.499 289.381 362.096 288.761 361.82C288.14 361.544 287.469 361.401 286.789 361.4H96.3198C95.8954 361.402 95.4761 361.493 95.0887 361.666C94.7012 361.84 94.354 362.092 94.069 362.406C93.7294 362.779 93.4695 363.218 93.305 363.694C93.1406 364.171 93.0752 364.677 93.1127 365.18L102.703 501.575C102.71 501.66 102.698 501.744 102.67 501.824C102.642 501.904 102.598 501.977 102.54 502.038C102.482 502.1 102.413 502.15 102.336 502.183C102.258 502.217 102.175 502.235 102.091 502.235H91.0255C90.8728 502.235 90.7255 502.179 90.6123 502.076C90.4991 501.974 90.428 501.833 90.4129 501.681L75.0899 356.352C74.9579 355.178 75.074 353.989 75.4308 352.863C75.7875 351.737 76.3768 350.698 77.1605 349.815C77.8371 349.041 78.6705 348.421 79.6054 347.995C80.5402 347.569 81.5551 347.347 82.5823 347.344H304.482C305.279 347.346 306.065 347.517 306.79 347.847C307.514 348.177 308.16 348.658 308.685 349.257C309.29 349.94 309.745 350.742 310.021 351.611C310.297 352.481 310.387 353.398 310.287 354.305L294.7 502.546C294.686 502.698 294.615 502.84 294.502 502.942C294.388 503.045 294.241 503.101 294.088 503.101ZM283.685 501.869H293.533L309.056 354.191C309.138 353.457 309.066 352.713 308.843 352.008C308.621 351.303 308.253 350.652 307.764 350.098C307.354 349.629 306.849 349.252 306.282 348.993C305.715 348.734 305.1 348.598 304.477 348.595H82.5768C81.7224 348.599 80.8787 348.784 80.1016 349.14C79.3246 349.495 78.6319 350.012 78.0697 350.655C77.4025 351.411 76.9011 352.298 76.5979 353.26C76.2947 354.222 76.1965 355.236 76.3096 356.238L91.5743 501.012H101.426L91.882 365.26C91.8308 364.586 91.9185 363.909 92.1398 363.27C92.361 362.631 92.711 362.044 93.1681 361.547C93.5674 361.107 94.0539 360.755 94.5965 360.514C95.1391 360.273 95.726 360.148 96.3198 360.146H286.803C287.649 360.149 288.485 360.328 289.258 360.672C290.032 361.016 290.725 361.517 291.294 362.143C291.949 362.857 292.451 363.699 292.767 364.615C293.084 365.532 293.209 366.504 293.134 367.471L283.685 501.869Z" fill="#0072F1"/>
<path d="M177.691 237.902C177.546 237.903 177.405 237.852 177.295 237.758C177.233 237.706 177.182 237.642 177.144 237.571C177.107 237.499 177.084 237.42 177.077 237.34C177.071 237.259 177.08 237.178 177.104 237.101C177.128 237.024 177.168 236.952 177.22 236.89L180.294 233.229C180.344 233.161 180.407 233.104 180.48 233.061C180.553 233.018 180.634 232.991 180.718 232.981C180.802 232.971 180.887 232.978 180.968 233.002C181.05 233.026 181.125 233.067 181.19 233.121C181.254 233.176 181.307 233.243 181.345 233.318C181.383 233.394 181.405 233.477 181.41 233.561C181.414 233.646 181.401 233.73 181.372 233.809C181.343 233.889 181.298 233.961 181.239 234.022L178.162 237.683C178.104 237.752 178.032 237.807 177.951 237.845C177.869 237.883 177.781 237.902 177.691 237.902Z" fill="#0072F1"/>
<path d="M170.526 246.427C170.409 246.427 170.294 246.394 170.195 246.331C170.096 246.267 170.017 246.177 169.968 246.071C169.918 245.965 169.9 245.846 169.916 245.73C169.931 245.614 169.979 245.504 170.055 245.415L173.129 241.754C173.237 241.64 173.385 241.572 173.542 241.563C173.698 241.555 173.853 241.606 173.973 241.707C174.093 241.808 174.171 241.951 174.189 242.107C174.208 242.263 174.167 242.42 174.074 242.547L170.997 246.208C170.939 246.276 170.867 246.331 170.786 246.369C170.704 246.407 170.616 246.427 170.526 246.427Z" fill="#0072F1"/>
<path d="M173.218 238.287C173.074 238.287 172.934 238.236 172.824 238.143L169.163 235.064C169.038 234.959 168.96 234.808 168.946 234.646C168.932 234.483 168.983 234.321 169.088 234.196C169.193 234.071 169.344 233.993 169.506 233.979C169.669 233.965 169.831 234.016 169.956 234.121L173.617 237.2C173.714 237.281 173.784 237.39 173.816 237.513C173.849 237.635 173.843 237.765 173.799 237.884C173.755 238.002 173.676 238.105 173.572 238.177C173.468 238.249 173.345 238.288 173.218 238.287Z" fill="#0072F1"/>
<path d="M181.739 245.449C181.594 245.449 181.453 245.398 181.342 245.305L177.684 242.226C177.559 242.12 177.482 241.968 177.47 241.805C177.457 241.642 177.509 241.481 177.616 241.357C177.722 241.232 177.873 241.155 178.036 241.143C178.199 241.13 178.36 241.182 178.485 241.289L182.144 244.364C182.24 244.446 182.309 244.555 182.341 244.677C182.373 244.8 182.368 244.929 182.324 245.047C182.281 245.166 182.203 245.269 182.1 245.341C181.996 245.414 181.873 245.454 181.747 245.454L181.739 245.449Z" fill="#0072F1"/>
<path d="M160.794 223.118C159.918 223.117 159.058 222.878 158.308 222.425C157.558 221.973 156.945 221.324 156.536 220.549C155.925 219.41 155.782 218.077 156.138 216.834C156.495 215.59 157.321 214.535 158.443 213.893C158.994 213.584 159.6 213.389 160.227 213.319C160.854 213.248 161.489 213.304 162.094 213.483C162.714 213.663 163.291 213.966 163.792 214.374C164.293 214.782 164.707 215.286 165.01 215.857C165.622 216.996 165.765 218.329 165.41 219.572C165.054 220.815 164.227 221.871 163.106 222.513C162.4 222.91 161.603 223.118 160.794 223.118ZM159.042 214.958C158.202 215.441 157.584 216.234 157.319 217.166C157.054 218.098 157.163 219.097 157.623 219.95C157.848 220.377 158.157 220.755 158.53 221.06C158.904 221.365 159.335 221.593 159.799 221.728C160.248 221.86 160.718 221.901 161.183 221.849C161.649 221.797 162.098 221.652 162.507 221.423C163.35 220.938 163.97 220.143 164.235 219.208C164.5 218.272 164.389 217.269 163.926 216.414C163.7 215.988 163.392 215.611 163.018 215.306C162.644 215.001 162.213 214.774 161.75 214.639C161.3 214.508 160.829 214.468 160.364 214.523C159.898 214.578 159.449 214.726 159.042 214.958Z" fill="#0072F1"/>
<path d="M214.011 230.547C216.099 230.366 217.646 228.545 217.467 226.48C217.288 224.416 215.45 222.889 213.363 223.07C211.275 223.251 209.727 225.072 209.906 227.137C210.085 229.202 211.923 230.728 214.011 230.547Z" fill="#0072F1"/>
<path d="M403.123 5.78852C403.042 5.78854 402.962 5.77263 402.887 5.7417C402.812 5.71077 402.745 5.66542 402.687 5.60825L399.999 2.92077C399.883 2.80529 399.818 2.64852 399.817 2.48494C399.817 2.32136 399.882 2.16438 399.997 2.04853C400.113 1.93268 400.269 1.86745 400.433 1.86719C400.596 1.86693 400.753 1.93166 400.869 2.04714L403.558 4.73461C403.643 4.82109 403.702 4.93096 403.725 5.05044C403.749 5.16991 403.737 5.29368 403.69 5.40622C403.644 5.51877 403.565 5.61509 403.464 5.6831C403.363 5.7511 403.244 5.78778 403.123 5.78852Z" fill="#0072F1"/>
<path d="M412.533 15.1909C412.369 15.1905 412.212 15.1258 412.095 15.0107L409.406 12.3232C409.3 12.2056 409.242 12.0514 409.246 11.8926C409.25 11.7338 409.315 11.5825 409.427 11.4702C409.539 11.3579 409.691 11.2931 409.849 11.2892C410.008 11.2854 410.162 11.3428 410.28 11.4496L412.968 14.137C413.054 14.2235 413.112 14.3334 413.136 14.4528C413.159 14.5723 413.147 14.6961 413.101 14.8086C413.054 14.9212 412.976 15.0175 412.875 15.0855C412.774 15.1535 412.655 15.1902 412.533 15.1909Z" fill="#0072F1"/>
<path d="M400.434 15.1948C400.353 15.1949 400.272 15.1788 400.198 15.1473C400.123 15.1159 400.055 15.0698 399.999 15.0117C399.942 14.9546 399.896 14.8867 399.865 14.812C399.834 14.7372 399.818 14.6572 399.818 14.5763C399.818 14.4954 399.834 14.4153 399.865 14.3406C399.896 14.2659 399.942 14.198 399.999 14.1409L402.687 11.4534C402.745 11.3962 402.813 11.3509 402.888 11.32C402.962 11.2891 403.043 11.2733 403.124 11.2734C403.205 11.2736 403.285 11.2896 403.359 11.3208C403.434 11.3519 403.502 11.3974 403.559 11.4548C403.616 11.5121 403.662 11.5802 403.692 11.6551C403.723 11.73 403.739 11.8102 403.739 11.8912C403.739 11.9722 403.723 12.0524 403.692 12.1271C403.661 12.2019 403.615 12.2699 403.558 12.327L400.869 15.0145C400.812 15.0717 400.744 15.117 400.669 15.1479C400.595 15.1789 400.515 15.1948 400.434 15.1948Z" fill="#0072F1"/>
<path d="M409.845 5.78796C409.723 5.78776 409.604 5.75148 409.502 5.68368C409.401 5.61588 409.322 5.51959 409.275 5.40693C409.228 5.29427 409.216 5.17028 409.239 5.05055C409.263 4.93082 409.321 4.82069 409.407 4.73405L412.095 2.04657C412.152 1.98456 412.22 1.93463 412.296 1.89979C412.372 1.86496 412.455 1.84596 412.538 1.84393C412.622 1.8419 412.705 1.8569 412.783 1.888C412.86 1.91911 412.931 1.96568 412.99 2.0249C413.049 2.08411 413.096 2.15473 413.127 2.23248C413.158 2.31022 413.173 2.39348 413.171 2.4772C413.169 2.56092 413.15 2.64334 413.115 2.7195C413.08 2.79565 413.031 2.86393 412.969 2.92021L410.28 5.60768C410.164 5.72238 410.008 5.78709 409.845 5.78796Z" fill="#0072F1"/>
<path d="M407.483 458.576C407.353 458.578 407.226 458.538 407.12 458.463C407.015 458.388 406.935 458.281 406.894 458.158C406.852 458.034 406.851 457.901 406.889 457.777C406.928 457.653 407.005 457.545 407.109 457.467C432.353 438.272 453.683 414.41 469.942 387.174C469.984 387.105 470.039 387.044 470.104 386.996C470.169 386.948 470.243 386.913 470.321 386.893C470.4 386.874 470.481 386.87 470.561 386.882C470.641 386.894 470.718 386.921 470.787 386.963C470.857 387.005 470.917 387.06 470.965 387.125C471.013 387.19 471.048 387.264 471.068 387.342C471.087 387.421 471.091 387.503 471.079 387.583C471.067 387.663 471.04 387.74 470.998 387.809C454.66 415.181 433.225 439.162 407.855 458.452C407.748 458.533 407.617 458.577 407.483 458.576Z" fill="#0072F1"/>
<path d="M450.467 439.459C450.347 439.457 450.231 439.422 450.131 439.355C450.031 439.289 449.953 439.196 449.905 439.086C449.858 438.976 449.843 438.855 449.863 438.737C449.883 438.619 449.937 438.509 450.018 438.421C460.285 427.404 469.537 415.481 477.662 402.799C477.75 402.661 477.889 402.565 478.049 402.53C478.208 402.495 478.375 402.525 478.513 402.613C478.65 402.702 478.747 402.841 478.782 403C478.817 403.16 478.787 403.327 478.698 403.465C470.535 416.21 461.237 428.191 450.919 439.262C450.861 439.324 450.791 439.373 450.713 439.407C450.636 439.441 450.552 439.459 450.467 439.459Z" fill="#0072F1"/>
<path d="M247.391 469.039C250.404 462.771 250.692 456.455 247.391 450.074L249.761 447.203L327.991 449.355L325.774 470.156L249.614 470.886L247.391 469.039Z" fill="white"/>
<path d="M249.599 471.503C249.455 471.503 249.315 471.452 249.206 471.359L246.988 469.511C246.883 469.423 246.81 469.303 246.781 469.169C246.752 469.035 246.768 468.895 246.827 468.771C249.915 462.342 249.918 456.318 246.827 450.355C246.771 450.248 246.748 450.127 246.761 450.007C246.774 449.887 246.822 449.774 246.899 449.681L249.267 446.808C249.327 446.737 249.403 446.68 249.489 446.642C249.574 446.603 249.667 446.584 249.76 446.586L327.991 448.738C328.076 448.74 328.16 448.76 328.237 448.796C328.315 448.833 328.384 448.885 328.44 448.949C328.496 449.013 328.538 449.088 328.563 449.169C328.588 449.25 328.596 449.336 328.587 449.42L326.369 470.221C326.354 470.372 326.283 470.512 326.171 470.614C326.059 470.717 325.914 470.774 325.762 470.776L249.602 471.505L249.599 471.503ZM248.152 468.871L249.815 470.257L325.211 469.534L327.314 449.942L250.048 447.815L248.127 450.142C251.107 456.152 251.107 462.445 248.152 468.871Z" fill="#0072F1"/>
<path d="M378.972 444.914H245.287C244.619 444.936 243.987 445.217 243.523 445.697C243.058 446.177 242.799 446.818 242.799 447.486C242.799 448.154 243.058 448.796 243.523 449.276C243.987 449.756 244.619 450.037 245.287 450.059H314.029C315.983 450.069 317.852 450.855 319.227 452.244C320.601 453.634 321.368 455.512 321.358 457.467V461.627C321.368 463.582 320.601 465.46 319.227 466.849C317.852 468.238 315.983 469.024 314.029 469.035H245.287C244.619 469.057 243.987 469.337 243.523 469.817C243.058 470.297 242.799 470.939 242.799 471.607C242.799 472.275 243.058 472.917 243.523 473.397C243.987 473.877 244.619 474.158 245.287 474.179H378.961C386.423 474.179 392.471 468.078 392.471 460.52V458.579C392.474 451.029 386.434 444.914 378.972 444.914Z" fill="#0072F1"/>
<path d="M254.106 504.983H376.15V477.188H254.106C257.311 486.271 257.399 496.141 254.106 504.983Z" fill="white"/>
<path d="M376.15 505.603H254.104C254.005 505.603 253.907 505.579 253.818 505.533C253.73 505.487 253.655 505.42 253.598 505.338C253.541 505.257 253.505 505.162 253.493 505.064C253.481 504.965 253.493 504.864 253.528 504.771C256.726 496.174 256.723 486.467 253.528 477.395C253.492 477.301 253.481 477.201 253.493 477.102C253.505 477.003 253.542 476.908 253.599 476.826C253.656 476.744 253.732 476.678 253.82 476.632C253.909 476.586 254.007 476.562 254.107 476.563H376.153C376.317 476.563 376.474 476.628 376.59 476.744C376.706 476.86 376.771 477.017 376.771 477.181V504.976C376.772 505.059 376.757 505.14 376.727 505.217C376.696 505.293 376.651 505.363 376.593 505.421C376.535 505.479 376.466 505.526 376.39 505.557C376.314 505.588 376.232 505.604 376.15 505.603ZM254.988 504.372H375.54V477.808H254.963C257.882 486.619 257.888 495.985 254.988 504.372Z" fill="#0072F1"/>
<path d="M357.373 487.547H264.986C264.829 487.536 264.683 487.467 264.576 487.352C264.469 487.237 264.409 487.086 264.409 486.93C264.409 486.773 264.469 486.622 264.576 486.507C264.683 486.393 264.829 486.323 264.986 486.312H357.373C357.529 486.323 357.676 486.393 357.783 486.507C357.89 486.622 357.949 486.773 357.949 486.93C357.949 487.086 357.89 487.237 357.783 487.352C357.676 487.467 357.529 487.536 357.373 487.547Z" fill="#0072F1"/>
<path d="M357.373 495.317H281.465C281.302 495.317 281.145 495.252 281.03 495.137C280.914 495.022 280.85 494.865 280.85 494.702C280.85 494.538 280.914 494.382 281.03 494.266C281.145 494.151 281.302 494.086 281.465 494.086H357.373C357.536 494.086 357.693 494.151 357.808 494.266C357.923 494.382 357.988 494.538 357.988 494.702C357.988 494.865 357.923 495.022 357.808 495.137C357.693 495.252 357.536 495.317 357.373 495.317Z" fill="#0072F1"/>
<path d="M362.187 478.511H252.465C251.904 478.511 251.365 478.288 250.968 477.891C250.571 477.493 250.348 476.954 250.348 476.392C250.348 475.83 250.571 475.291 250.968 474.894C251.365 474.497 251.904 474.273 252.465 474.273H390.84C392.056 474.28 393.259 474.526 394.38 474.998C395.5 475.469 396.517 476.157 397.372 477.022C398.227 477.887 398.904 478.911 399.363 480.038C399.822 481.164 400.055 482.37 400.049 483.587V498.225C400.055 499.442 399.822 500.648 399.363 501.774C398.903 502.901 398.227 503.926 397.371 504.791C396.516 505.656 395.499 506.343 394.378 506.815C393.257 507.286 392.054 507.532 390.838 507.538H252.465C251.904 507.538 251.365 507.315 250.968 506.918C250.571 506.52 250.348 505.981 250.348 505.419C250.348 504.857 250.571 504.318 250.968 503.921C251.365 503.524 251.904 503.3 252.465 503.3H362.187C363.047 503.296 363.896 503.122 364.688 502.789C365.48 502.456 366.199 501.971 366.803 501.36C367.408 500.749 367.886 500.025 368.211 499.229C368.535 498.433 368.7 497.581 368.696 496.722V485.09C368.7 484.23 368.535 483.378 368.211 482.583C367.886 481.787 367.408 481.063 366.803 480.452C366.199 479.841 365.48 479.355 364.688 479.022C363.896 478.689 363.047 478.516 362.187 478.511Z" fill="#0072F1"/>
<path d="M312.471 456.661H256.08C255.917 456.661 255.76 456.596 255.645 456.481C255.53 456.365 255.465 456.209 255.465 456.045C255.465 455.882 255.53 455.726 255.645 455.61C255.76 455.495 255.917 455.43 256.08 455.43H312.471C312.635 455.43 312.791 455.495 312.906 455.61C313.022 455.726 313.087 455.882 313.087 456.045C313.087 456.209 313.022 456.365 312.906 456.481C312.791 456.596 312.635 456.661 312.471 456.661Z" fill="#0072F1"/>
</g>
<defs>
<clipPath id="clip0_36_92">
<rect width="500" height="507.542" fill="white"/>
</clipPath>
</defs>
</svg>
