<svg width="632" height="380" viewBox="0 0 632 380" fill="none" xmlns="http://www.w3.org/2000/svg">
<g clip-path="url(#clip0_41_569)">
<path d="M89.7402 86.4688H516.19" stroke="white" stroke-width="1.44" stroke-miterlimit="10"/>
<path d="M510.62 58.5234H95.3102C92.234 58.5234 89.7402 61.0172 89.7402 64.0934V316.803C89.7402 319.88 92.234 322.373 95.3102 322.373H510.62C513.696 322.373 516.19 319.88 516.19 316.803V64.0934C516.19 61.0172 513.696 58.5234 510.62 58.5234Z" stroke="white" stroke-width="1.44" stroke-miterlimit="10"/>
<path d="M117.84 72.7828C117.84 73.5542 117.611 74.3082 117.183 74.9496C116.754 75.5909 116.145 76.0908 115.433 76.386C114.72 76.6811 113.936 76.7584 113.179 76.6079C112.423 76.4574 111.728 76.086 111.182 75.5405C110.637 74.9951 110.265 74.3002 110.115 73.5437C109.964 72.7871 110.042 72.003 110.337 71.2904C110.632 70.5777 111.132 69.9686 111.773 69.5401C112.415 69.1116 113.169 68.8828 113.94 68.8828C114.453 68.8815 114.96 68.9815 115.434 69.177C115.908 69.3725 116.338 69.6598 116.701 70.0222C117.063 70.3846 117.35 70.815 117.546 71.2888C117.741 71.7626 117.841 72.2703 117.84 72.7828Z" stroke="white" stroke-width="1.44" stroke-miterlimit="10"/>
<path d="M133 72.7828C133 73.5542 132.771 74.3082 132.343 74.9496C131.914 75.5909 131.305 76.0908 130.593 76.386C129.88 76.6811 129.096 76.7584 128.339 76.6079C127.583 76.4574 126.888 76.086 126.342 75.5405C125.797 74.9951 125.426 74.3002 125.275 73.5437C125.125 72.7871 125.202 72.003 125.497 71.2904C125.792 70.5777 126.292 69.9686 126.933 69.5401C127.575 69.1116 128.329 68.8828 129.1 68.8828C129.613 68.8815 130.12 68.9815 130.594 69.177C131.068 69.3725 131.498 69.6598 131.861 70.0222C132.223 70.3846 132.51 70.815 132.706 71.2888C132.902 71.7626 133.002 72.2703 133 72.7828V72.7828Z" stroke="white" stroke-width="1.44" stroke-miterlimit="10"/>
<path d="M148.16 72.7828C148.16 73.5542 147.932 74.3082 147.503 74.9496C147.075 75.5909 146.465 76.0908 145.753 76.386C145.04 76.6811 144.256 76.7584 143.5 76.6079C142.743 76.4574 142.048 76.086 141.503 75.5405C140.957 74.9951 140.586 74.3002 140.435 73.5437C140.285 72.7871 140.362 72.003 140.657 71.2904C140.952 70.5777 141.452 69.9686 142.094 69.5401C142.735 69.1116 143.489 68.8828 144.26 68.8828C144.773 68.8815 145.281 68.9815 145.754 69.177C146.228 69.3725 146.659 69.6598 147.021 70.0222C147.383 70.3846 147.671 70.815 147.866 71.2888C148.062 71.7626 148.162 72.2703 148.16 72.7828Z" stroke="white" stroke-width="1.44" stroke-miterlimit="10"/>
<path d="M98.8198 180.812H14.7898C12.172 180.812 10.0498 182.935 10.0498 185.553V232.963C10.0498 235.58 12.172 237.702 14.7898 237.702H98.8198C101.438 237.702 103.56 235.58 103.56 232.963V185.553C103.56 182.935 101.438 180.812 98.8198 180.812Z" fill="#0072F1"/>
<path d="M98.8198 180.812H14.7898C12.172 180.812 10.0498 182.935 10.0498 185.553V232.963C10.0498 235.58 12.172 237.702 14.7898 237.702H98.8198C101.438 237.702 103.56 235.58 103.56 232.963V185.553C103.56 182.935 101.438 180.812 98.8198 180.812Z" stroke="white" stroke-width="1.44" stroke-miterlimit="10"/>
<path d="M593.72 130.109H478.93C476.102 130.109 473.81 132.402 473.81 135.229V215.699C473.81 218.527 476.102 220.819 478.93 220.819H593.72C596.547 220.819 598.84 218.527 598.84 215.699V135.229C598.84 132.402 596.547 130.109 593.72 130.109Z" fill="#0072F1"/>
<path d="M593.72 130.109H478.93C476.102 130.109 473.81 132.402 473.81 135.229V215.699C473.81 218.527 476.102 220.819 478.93 220.819H593.72C596.547 220.819 598.84 218.527 598.84 215.699V135.229C598.84 132.402 596.547 130.109 593.72 130.109Z" stroke="white" stroke-width="1.44" stroke-miterlimit="10"/>
<path d="M405.17 102.906H337.77C336.627 102.906 335.7 103.833 335.7 104.976V121.736C335.7 122.879 336.627 123.806 337.77 123.806H405.17C406.313 123.806 407.24 122.879 407.24 121.736V104.976C407.24 103.833 406.313 102.906 405.17 102.906Z" fill="#0072F1"/>
<path d="M345.62 110.359H393.73" stroke="white" stroke-width="0.81" stroke-miterlimit="10"/>
<path d="M345.62 115.367H365.52" stroke="white" stroke-width="0.81" stroke-miterlimit="10"/>
<path d="M343.64 121.453V129.603L353.88 121.453H343.64Z" fill="#0072F1"/>
<path d="M110.6 34.4497H20.1097C19.6645 34.4497 19.2237 34.362 18.8124 34.1916C18.4011 34.0213 18.0274 33.7716 17.7126 33.4568C17.3978 33.142 17.1481 32.7683 16.9778 32.357C16.8074 31.9457 16.7197 31.5049 16.7197 31.0597C16.7197 30.615 16.8075 30.1746 16.978 29.7639C17.1485 29.3532 17.3983 28.9801 17.7132 28.6661C18.0282 28.3521 18.402 28.1034 18.8132 27.9341C19.2244 27.7648 19.665 27.6784 20.1097 27.6797H110.6C111.496 27.6797 112.356 28.0358 112.99 28.6697C113.624 29.3036 113.98 30.1633 113.98 31.0597C113.98 31.9571 113.624 32.8178 112.99 33.4533C112.357 34.0887 111.497 34.4471 110.6 34.4497V34.4497Z" fill="#0072F1"/>
<path d="M627.98 296.731H557.07C556.625 296.732 556.184 296.646 555.773 296.477C555.362 296.307 554.988 296.059 554.673 295.745C554.358 295.431 554.108 295.057 553.938 294.647C553.767 294.236 553.68 293.796 553.68 293.351C553.68 292.452 554.037 291.59 554.673 290.954C555.308 290.318 556.171 289.961 557.07 289.961H627.98C628.428 289.96 628.872 290.047 629.286 290.219C629.699 290.391 630.075 290.643 630.39 290.961C630.706 291.28 630.955 291.658 631.123 292.073C631.291 292.488 631.375 292.933 631.37 293.381V293.381C631.362 294.274 631.001 295.127 630.366 295.755C629.73 296.383 628.873 296.734 627.98 296.731Z" fill="#0072F1"/>
<path d="M318.21 0H310.29C308.207 0 306.52 1.68789 306.52 3.77V11.21C306.52 13.2921 308.207 14.98 310.29 14.98H318.21C320.292 14.98 321.98 13.2921 321.98 11.21V3.77C321.98 1.68789 320.292 0 318.21 0Z" fill="#0072F1"/>
<path d="M17.16 280.539H6.75004C4.01071 280.539 1.79004 282.76 1.79004 285.499V295.269C1.79004 298.008 4.01071 300.229 6.75004 300.229H17.16C19.8994 300.229 22.12 298.008 22.12 295.269V285.499C22.12 282.76 19.8994 280.539 17.16 280.539Z" fill="#0072F1"/>
<path d="M561.57 68.3438H554.12C552.16 68.3438 550.57 69.9331 550.57 71.8938V78.8938C550.57 80.8544 552.16 82.4438 554.12 82.4438H561.57C563.531 82.4438 565.12 80.8544 565.12 78.8938V71.8938C565.12 69.9331 563.531 68.3438 561.57 68.3438Z" fill="#0072F1"/>
<path d="M483.531 198.495L483.529 198.528L483.531 198.561L485.138 221.537L453.245 225.416C452.48 213.761 451.891 202.897 452.428 196.569L452.429 196.569L452.429 196.558C452.686 192.433 454.571 188.58 457.669 185.845C460.767 183.11 464.825 181.719 468.949 181.975C473.074 182.232 476.927 184.117 479.662 187.215C482.396 190.313 483.788 194.371 483.531 198.495Z" fill="white" stroke="#0072F1"/>
<path d="M471.64 278.38C469.249 278.377 466.885 277.879 464.696 276.917C462.507 275.955 460.541 274.549 458.922 272.79C457.304 271.03 456.067 268.954 455.29 266.692C454.514 264.431 454.214 262.033 454.41 259.65C454.92 253.419 454.411 247.164 453.718 238.628C453.418 234.931 453.083 230.806 452.78 226.07M471.64 278.38L471.641 277.88C469.319 277.877 467.023 277.393 464.897 276.459C462.771 275.525 460.862 274.16 459.29 272.451C457.718 270.742 456.517 268.726 455.763 266.53C455.009 264.334 454.718 262.005 454.909 259.691L454.909 259.691C455.421 253.417 454.909 247.103 454.213 238.541C453.923 234.974 453.602 231.017 453.31 226.51M471.64 278.38L471.641 277.88C476.002 277.888 480.194 276.203 483.336 273.179C486.47 270.162 488.314 266.048 488.48 261.702M471.64 278.38C476.13 278.388 480.448 276.653 483.683 273.539C486.918 270.425 488.817 266.177 488.98 261.69M452.78 226.07L452.841 226.567L453.31 226.51M452.78 226.07L453.279 226.038C453.289 226.196 453.299 226.353 453.31 226.51M452.78 226.07L485.174 222.131L485.215 222.629M453.31 226.51L485.215 222.629M485.215 222.629L485.712 222.569L488.98 261.69M485.215 222.629L488.48 261.702M488.48 261.702L488.482 261.732L488.98 261.69M488.48 261.702C488.48 261.692 488.48 261.682 488.481 261.672L488.98 261.69" fill="white" stroke="#0072F1"/>
<path d="M481.996 274.242L481.996 274.242C486.188 267.532 483.955 258.627 475.807 254.1L400.707 216.535L394.123 229.224L462.072 278.191L481.996 274.242ZM481.996 274.242C480.988 275.857 479.66 277.248 478.093 278.329M481.996 274.242L478.093 278.329M478.093 278.329C476.527 279.41 474.756 280.159 472.888 280.529M478.093 278.329L472.888 280.529M472.888 280.529C471.021 280.899 469.098 280.882 467.238 280.48M472.888 280.529L467.238 280.48M467.238 280.48C465.378 280.078 463.62 279.299 462.073 278.192L467.238 280.48Z" fill="white" stroke="#0072F1"/>
<path d="M388.84 233.404C385.242 232.187 382.274 229.591 380.589 226.186C378.903 222.781 378.639 218.847 379.854 215.247C380.761 212.565 382.443 210.212 384.688 208.485C386.932 206.759 389.639 205.736 392.464 205.548C395.29 205.359 398.108 206.012 400.562 207.424C403.016 208.837 404.997 210.946 406.253 213.483C407.509 216.021 407.985 218.875 407.619 221.683C407.254 224.491 406.064 227.128 404.2 229.26C402.337 231.392 399.883 232.924 397.149 233.661C394.415 234.399 391.523 234.309 388.84 233.404Z" fill="white" stroke="#0072F1"/>
<path d="M390.535 206.023C390.534 206.008 390.533 205.992 390.533 205.975C390.528 205.838 390.528 205.641 390.55 205.409C390.594 204.941 390.723 204.36 391.045 203.843C391.36 203.34 391.873 202.875 392.736 202.637C393.614 202.394 394.885 202.376 396.717 202.843C400.405 203.783 403.841 205.668 405.923 209.029C407.914 212.245 408.721 216.899 407.199 223.567L390.535 206.023Z" fill="white" stroke="#0072F1"/>
<path d="M401.6 178.169L385.6 174.439C385.386 174.394 385.165 174.395 384.952 174.442C384.738 174.488 384.537 174.579 384.36 174.708C384.184 174.837 384.037 175.002 383.928 175.191C383.82 175.381 383.752 175.592 383.73 175.809L377.6 217.299C377.522 217.757 377.616 218.228 377.866 218.62C378.115 219.012 378.502 219.296 378.95 219.419L394.95 223.149C395.164 223.195 395.385 223.196 395.598 223.15C395.812 223.104 396.013 223.013 396.189 222.884C396.365 222.754 396.512 222.589 396.619 222.398C396.726 222.208 396.791 221.997 396.81 221.779L402.95 180.289C403.024 179.832 402.927 179.363 402.679 178.972C402.43 178.581 402.046 178.295 401.6 178.169V178.169Z" fill="#0072F1"/>
<path d="M403.14 178.497L387.14 174.767C386.926 174.722 386.704 174.724 386.491 174.771C386.277 174.818 386.076 174.909 385.9 175.04C385.724 175.17 385.578 175.336 385.471 175.527C385.364 175.718 385.299 175.929 385.28 176.147L379.14 217.627C379.065 218.086 379.162 218.556 379.41 218.948C379.659 219.341 380.043 219.628 380.49 219.757L396.49 223.477C396.704 223.523 396.925 223.523 397.14 223.478C397.354 223.432 397.556 223.342 397.733 223.212C397.909 223.083 398.057 222.917 398.165 222.727C398.273 222.536 398.339 222.325 398.36 222.107L404.49 180.617C404.566 180.159 404.47 179.69 404.221 179.298C403.972 178.907 403.587 178.621 403.14 178.497V178.497Z" fill="#0072F1"/>
<path d="M402.27 182.53L388.24 179.25L383.24 213.06L397.27 216.34L402.27 182.53Z" fill="#0072F1"/>
<path d="M388.24 179.25L397.27 216.34L402.27 182.53L388.24 179.25Z" fill="white"/>
<path d="M401 204.5C398.938 203.893 397.057 202.223 394.816 202.019C394.081 201.956 393.335 202.052 392.692 202.292C392.049 202.532 391.544 202.902 391.254 203.346C390.996 203.754 390.933 204.203 391.073 204.635C391.213 205.067 391.55 205.462 392.04 205.767L397.702 209.296C397.702 209.296 396.709 214.027 400.5 216.5" stroke="#0072F1"/>
<path d="M495.69 250.453L460.86 258.103C460.86 258.103 451.57 278.743 436.13 370.853C435.89 372.273 435.66 373.683 435.43 375.083C452.07 375.313 468.71 375.773 485.36 376.343L507.52 267.733L495.69 250.453Z" fill="#0072F1"/>
<path d="M536.47 324.233C535.29 279.653 512.71 255.562 512.71 255.562L469.83 256.902L481.25 376.203C499.73 376.803 518.25 377.543 536.7 378.203C536.85 357.083 536.83 337.763 536.47 324.233Z" fill="#0072F1"/>
<path d="M462.11 295.938L475.27 306.818L481.26 376.188" stroke="#0072F1" stroke-width="1.14" stroke-linecap="round" stroke-linejoin="round"/>
<path d="M460.866 184.277C460.867 184.277 460.867 184.277 460.868 184.277L472.96 179.175L490.226 177.118L512.706 177.527C514.395 177.662 515.988 178.764 517.165 180.348C518.342 181.932 519.046 183.925 519.001 185.709C519.001 185.711 519.001 185.713 519.001 185.714L515.752 256.933L461.337 257.591L458.09 188.714C458.09 188.714 458.09 188.714 458.09 188.714C458.047 187.78 458.29 186.854 458.786 186.062C459.282 185.269 460.008 184.647 460.866 184.277Z" fill="white" stroke="#0072F1"/>
<path d="M561.307 252.095L561.319 252.119L561.77 251.902L561.299 252.069C561.302 252.078 561.305 252.086 561.307 252.095ZM541.12 208.992L540.68 209.231L540.897 209.682L541.337 209.443L541.12 208.992ZM512.665 225.025C512.597 224.882 512.529 224.74 512.461 224.597L512.01 224.812L512.249 225.251L512.665 225.025ZM529.318 262.666C529.318 262.665 529.318 262.665 529.318 262.665L528.84 262.812L529.318 262.667C529.318 262.666 529.318 262.666 529.318 262.666Z" fill="white" stroke="#0072F1"/>
<path d="M530.437 187.914L530.429 187.889C529.113 184.19 526.451 181.124 522.973 179.303C519.496 177.482 515.46 177.039 511.67 178.064L530.437 187.914ZM530.437 187.914L530.449 187.938M530.437 187.914L530.449 187.938M530.449 187.938L540.463 208.779L512.235 224.12M530.449 187.938L512.235 224.12M512.235 224.12C509.846 219.092 508.778 216.799 508.086 215.035C507.552 213.673 507.244 212.633 506.724 210.875C506.551 210.291 506.354 209.627 506.118 208.847L506.118 208.846C504.825 204.579 504.116 197.388 504.819 190.975C505.171 187.77 505.872 184.795 507.005 182.489C508.139 180.183 509.673 178.605 511.67 178.064L512.235 224.12Z" fill="white" stroke="#0072F1"/>
<path d="M511.73 224.812L505.36 208.992" stroke="#0072F1" stroke-width="1.14" stroke-linecap="round" stroke-linejoin="round"/>
<path d="M535.329 246.306L547.162 246.563C549.041 246.66 550.881 247.137 552.571 247.966C554.263 248.796 555.768 249.96 556.997 251.389C558.225 252.818 559.151 254.481 559.717 256.278C560.284 258.075 560.48 259.968 560.293 261.843C560.104 263.737 559.53 265.572 558.604 267.235C557.679 268.898 556.423 270.354 554.913 271.513C553.403 272.671 551.672 273.509 549.826 273.972C547.981 274.436 546.061 274.517 544.183 274.21C544.183 274.21 544.182 274.21 544.181 274.209L470.923 261.559L470.213 244.894L523.489 246.049L535.329 246.306Z" fill="white" stroke="#0072F1"/>
<path d="M478.496 262.754C476.364 264.622 473.726 265.815 470.916 266.183C467.159 266.672 463.362 265.653 460.354 263.35C457.347 261.047 455.373 257.646 454.866 253.892C454.488 251.083 454.953 248.225 456.201 245.68C457.448 243.135 459.423 241.018 461.875 239.596C464.327 238.174 467.146 237.512 469.975 237.693C472.803 237.875 475.514 238.892 477.765 240.615C480.015 242.338 481.703 244.691 482.616 247.374C483.528 250.058 483.624 252.952 482.891 255.689C482.157 258.427 480.628 260.886 478.496 262.754Z" fill="white" stroke="#0072F1"/>
<path d="M460.298 240.891C460.291 240.878 460.283 240.864 460.275 240.849C460.21 240.728 460.123 240.551 460.039 240.334C459.871 239.894 459.728 239.317 459.788 238.711C459.847 238.12 460.101 237.477 460.769 236.879C461.449 236.272 462.583 235.692 464.434 235.298C468.161 234.504 472.076 234.672 475.43 236.763C478.639 238.764 481.421 242.58 483.009 249.233L460.298 240.891Z" fill="white" stroke="#0072F1"/>
<path d="M518.189 153.969C518.322 144.233 510.537 136.233 500.801 136.1C491.065 135.968 483.065 143.753 482.932 153.489C482.8 163.225 490.585 171.225 500.321 171.357C510.057 171.49 518.057 163.705 518.189 153.969Z" fill="#0072F1"/>
<path d="M445.82 110.17C445.82 110.17 474.3 93.4105 493.82 110.86C505.7 121.5 501.19 138.86 485.26 149.67C470.08 159.93 464.46 111.99 464.46 111.99L445.82 110.17Z" fill="#0072F1"/>
<path d="M461.43 105.828C461.43 105.828 433.73 107.318 435.67 128.268C436.96 142.188 458.67 141.738 458.67 141.738L461.43 105.828Z" fill="#0072F1"/>
<path d="M452.692 139.968C454.283 140.804 455.477 142.236 456.013 143.951C456.411 145.232 456.421 146.602 456.041 147.888C455.66 149.174 454.907 150.318 453.876 151.176C452.846 152.034 451.583 152.567 450.25 152.708C448.916 152.848 447.571 152.59 446.383 151.966C445.196 151.342 444.221 150.38 443.581 149.201C442.941 148.023 442.665 146.681 442.787 145.345C442.91 144.01 443.426 142.741 444.27 141.698C445.113 140.656 446.247 139.888 447.528 139.49C449.245 138.96 451.102 139.131 452.692 139.968Z" fill="#0072F1" stroke="#0072F1"/>
<path d="M471.519 181.818L471.518 181.817L466.323 164.768L481.915 151.24L491.295 177.461C491.709 179.872 490.681 182.149 488.87 184.053C487.049 185.968 484.481 187.452 481.992 188.225L481.991 188.226C479.079 189.135 476.932 188.949 475.304 187.901C473.656 186.84 472.425 184.824 471.519 181.818Z" fill="white" stroke="#0072F1"/>
<path d="M502.457 177.295C502.143 178.092 501.839 178.917 501.532 179.753C501.494 179.856 501.456 179.959 501.418 180.062C500.989 181.228 500.548 182.415 500.048 183.596C499.05 185.957 497.83 188.273 496.055 190.297C492.531 194.315 486.726 197.283 475.796 196.932C471.285 196.781 468.593 195.684 467.041 194.215C465.499 192.756 465.006 190.856 465.057 188.911C465.109 186.958 465.711 185.002 466.312 183.519C466.612 182.781 466.908 182.167 467.128 181.739C467.239 181.525 467.33 181.358 467.393 181.245C467.399 181.234 467.405 181.224 467.411 181.214L473.364 178.628L491.898 176.284L502.457 177.295Z" fill="white" stroke="#0072F1"/>
<path d="M468.54 173.778C468.54 173.778 483.86 171.538 483.86 151.078L465.17 162.828L468.54 173.778Z" fill="#0072F1"/>
<path d="M456.859 109.854C462.094 108.228 467.968 108.731 472.941 110.959C477.908 113.184 481.937 117.112 483.549 122.303L487.676 138.361L487.676 138.362C490.811 150.462 483.68 161.959 471.658 165.694C461.481 168.119 451.242 162.067 449.003 153.935C449.003 153.934 449.003 153.934 449.002 153.934L443.643 134.006L443.643 134.004C442.29 129.051 442.912 123.766 445.377 119.262C447.842 114.757 451.958 111.385 456.859 109.854Z" fill="white" stroke="#0072F1"/>
<path d="M470.37 119.299C470.44 132.049 482.56 138.859 482.56 138.859L491.2 121.379C491.2 121.379 470.37 108.819 470.37 119.299Z" fill="#0072F1"/>
<path d="M473.92 121.56C473.92 121.56 448.58 119.25 440.49 131.38C440.49 131.38 439.79 106.58 466.98 105.14C494.17 103.7 486.27 122.89 486.27 122.89L473.92 121.56Z" fill="#0072F1"/>
<path d="M457.92 145.656L458.35 149.536L460.95 149.026" stroke="#0072F1" stroke-width="1.1" stroke-linecap="round" stroke-linejoin="round"/>
<path d="M453.46 143.427C453.56 143.79 453.55 144.175 453.432 144.532C453.313 144.89 453.091 145.204 452.793 145.435C452.496 145.665 452.137 145.803 451.761 145.829C451.385 145.855 451.01 145.769 450.684 145.582C450.357 145.395 450.093 145.114 449.926 144.777C449.759 144.44 449.696 144.06 449.745 143.687C449.793 143.313 449.952 142.963 450.201 142.68C450.449 142.397 450.776 142.194 451.14 142.097C451.38 142.032 451.63 142.015 451.876 142.047C452.122 142.078 452.36 142.158 452.576 142.282C452.791 142.405 452.98 142.57 453.132 142.766C453.283 142.963 453.395 143.188 453.46 143.427V143.427Z" fill="#0072F1"/>
<path d="M468.8 139.273C468.898 139.634 468.886 140.016 468.767 140.37C468.648 140.724 468.427 141.035 468.131 141.264C467.835 141.492 467.478 141.627 467.105 141.653C466.732 141.678 466.36 141.593 466.036 141.407C465.712 141.221 465.45 140.943 465.284 140.609C465.117 140.274 465.054 139.898 465.101 139.527C465.149 139.156 465.305 138.808 465.551 138.526C465.796 138.244 466.12 138.041 466.48 137.943C466.72 137.877 466.97 137.859 467.217 137.89C467.464 137.921 467.702 138 467.918 138.124C468.134 138.248 468.323 138.413 468.474 138.61C468.626 138.808 468.737 139.033 468.8 139.273V139.273Z" fill="#0072F1"/>
<path d="M459.49 134.579L470.68 133.439C470.68 133.439 468.92 130.439 464.36 130.939C459.8 131.439 459.49 134.579 459.49 134.579Z" fill="#0072F1"/>
<path d="M453.84 136.309L445.96 138.859C446.081 137.93 446.472 137.056 447.083 136.345C447.694 135.635 448.499 135.118 449.4 134.859C450.19 134.518 451.077 134.478 451.894 134.745C452.712 135.012 453.404 135.568 453.84 136.309V136.309Z" fill="#0072F1"/>
<path d="M458.399 154.1L468.513 151.753C468.122 152.916 467.403 153.948 466.436 154.72C465.259 155.659 463.788 156.155 462.282 156.118L462.272 156.118L462.262 156.118C460.301 156.151 459.334 155.482 458.846 154.883C458.618 154.604 458.481 154.323 458.399 154.1Z" fill="white" stroke="#0072F1"/>
<path d="M493.031 136.254C493.118 137.486 492.837 138.715 492.225 139.787C491.613 140.859 490.697 141.726 489.592 142.277C488.488 142.828 487.244 143.039 486.02 142.883C484.795 142.728 483.644 142.212 482.713 141.403C481.781 140.593 481.11 139.525 480.786 138.334C480.461 137.143 480.497 135.882 480.889 134.712C481.281 133.541 482.012 132.513 482.988 131.758C483.964 131.002 485.143 130.554 486.374 130.468C488.024 130.354 489.652 130.899 490.9 131.984C492.148 133.069 492.915 134.605 493.031 136.254Z" fill="white" stroke="#0072F1"/>
<path d="M484.6 138.849C484.6 138.849 484.26 133.979 488.97 134.419" stroke="#0072F1" stroke-width="0.98" stroke-linecap="round" stroke-linejoin="round"/>
<path d="M111.25 322.819V373.689L157.19 374.869V338.429L167.11 336.699L173.77 373.689L215.33 376.329L199.15 299.969L111.25 322.819Z" fill="#0072F1"/>
<path d="M104.029 238.653L74.6344 352.159L57.6511 350.322L74.0933 239.57L104.029 238.653Z" fill="white" stroke="#0072F1"/>
<path d="M64.7639 365.022L64.7488 365.023H29.0442C29.0515 364.339 29.325 363.637 29.8592 362.912C30.5077 362.033 31.5164 361.154 32.7996 360.293C35.3644 358.572 38.9196 356.992 42.545 355.647C46.1639 354.305 49.8238 353.208 52.5814 352.446C53.9595 352.066 55.1109 351.769 55.9173 351.567C56.3204 351.467 56.6373 351.39 56.853 351.338C56.9609 351.313 57.0434 351.293 57.0989 351.28L57.1006 351.28L74.6207 353.174C75.3513 355.864 75.1254 357.908 74.4146 359.469C73.6725 361.099 72.3739 362.264 70.9369 363.096C69.4988 363.928 67.9466 364.413 66.7447 364.688C66.1457 364.826 65.6384 364.91 65.2823 364.96C65.1044 364.985 64.9645 365.002 64.8702 365.012C64.823 365.017 64.7873 365.02 64.7639 365.022Z" fill="white" stroke="#0072F1"/>
<path d="M117.15 190.598L105.519 257.801L61.0753 241.824C71.2497 214.751 85.4021 201.968 96.9842 195.941C102.815 192.908 108.007 191.579 111.736 191.008C113.601 190.722 115.099 190.626 116.128 190.601C116.55 190.591 116.893 190.593 117.15 190.598Z" fill="white" stroke="#0072F1"/>
<path d="M233 203L248.02 150.82L262.84 150.94C262.47 178.52 253.5 214 253.5 214" stroke="#0072F1"/>
<path d="M264.47 127.712L265.098 127.698C265.107 127.782 265.116 127.878 265.125 127.983C265.169 128.462 265.228 129.154 265.288 130.004C265.407 131.705 265.53 134.038 265.542 136.565C265.555 139.094 265.457 141.809 265.138 144.277C264.818 146.757 264.281 148.938 263.444 150.433C263.257 150.767 262.904 151.074 262.365 151.342C261.828 151.61 261.142 151.82 260.345 151.98C258.752 152.299 256.791 152.399 254.867 152.385C252.948 152.371 251.089 152.246 249.708 152.123C249.018 152.062 248.449 152.001 248.052 151.956C247.943 151.944 247.846 151.932 247.764 151.923L247.571 151.209C247.391 150.549 247.134 149.605 246.825 148.472C246.206 146.205 245.378 143.181 244.539 140.148C243.7 137.116 242.85 134.074 242.189 131.774C241.858 130.625 241.574 129.658 241.361 128.969C241.295 128.757 241.236 128.569 241.183 128.41C241.278 128.404 241.383 128.397 241.498 128.39C242.155 128.351 243.115 128.309 244.281 128.265C246.611 128.178 249.752 128.084 252.906 127.999C256.059 127.913 259.223 127.835 261.598 127.779C262.786 127.751 263.777 127.728 264.47 127.712Z" fill="white" stroke="#0072F1"/>
<path d="M247.37 152.379C247.1 151.109 237.37 140.139 233.86 135.969C233.663 135.716 233.522 135.425 233.445 135.114C233.369 134.803 233.358 134.48 233.415 134.165C233.471 133.85 233.594 133.55 233.774 133.286C233.954 133.021 234.188 132.797 234.46 132.629V132.629C234.917 132.282 235.476 132.094 236.05 132.094C236.624 132.094 237.183 132.282 237.64 132.629L246.98 139.859L247.37 152.379Z" fill="white" stroke="#0072F1" stroke-linejoin="round"/>
<path d="M243.5 137L238.37 117.916C238.243 117.254 238.382 116.568 238.756 116.007C239.13 115.445 239.71 115.054 240.37 114.916C240.926 114.797 241.507 114.897 241.991 115.195C242.475 115.493 242.826 115.966 242.97 116.516L246.97 131.246L243.5 137Z" fill="white" stroke="#0072F1" stroke-linejoin="round"/>
<path d="M247.351 130.5L246.7 112.813C246.68 112.158 246.913 111.52 247.351 111.032C247.789 110.545 248.397 110.244 249.05 110.193C249.602 110.154 250.147 110.326 250.577 110.672C251.008 111.019 251.291 111.516 251.37 112.063L254 130L247.351 130.5Z" fill="white" stroke="#0072F1" stroke-linejoin="round"/>
<path d="M254.11 130.092L255.3 114.202C255.353 113.493 255.673 112.831 256.194 112.349C256.715 111.867 257.4 111.6 258.11 111.602V111.602C258.431 111.609 258.747 111.681 259.039 111.811C259.332 111.942 259.596 112.13 259.815 112.363C260.035 112.597 260.206 112.871 260.318 113.172C260.431 113.472 260.482 113.791 260.47 114.112L260.31 128.732L254.11 130.092Z" fill="white" stroke="#0072F1" stroke-linejoin="round"/>
<path d="M265 127.5L267.218 117.169C267.243 116.643 267.059 116.129 266.707 115.738C266.355 115.347 265.863 115.11 265.338 115.079C264.815 115.066 264.303 115.236 263.891 115.559C263.479 115.882 263.191 116.338 263.078 116.849L260.078 128.909L265 127.5Z" fill="white" stroke="#0072F1" stroke-linejoin="round"/>
<path d="M242.68 136.507C242.68 136.507 250.05 132.607 254.96 142.507" stroke="#0072F1" stroke-width="1.18" stroke-linecap="round" stroke-linejoin="round"/>
<path d="M253.5 213.5C253.5 213.5 254.03 233.19 242.19 235.05C230.35 236.91 204.19 220.57 204.19 220.57L192.07 179.57L233.5 202.5" stroke="#0072F1"/>
<path d="M160.998 182.723C161.182 182.614 161.437 182.469 161.762 182.297C162.511 181.9 163.63 181.358 165.096 180.787C168.028 179.646 172.35 178.389 177.888 177.942C188.878 177.056 204.699 179.354 223.996 192.147L201.421 227.806L179.174 225.751L160.998 182.723Z" fill="white" stroke="#0072F1"/>
<path d="M207.453 309.479L107.127 323.773L101.446 251.122L118.139 190.55L160.264 183.05L191.879 203.53L207.453 309.479Z" fill="white" stroke="#0072F1"/>
<path d="M101.39 256.84L98.7002 232.18" stroke="#0072F1" stroke-width="1.14" stroke-linecap="round" stroke-linejoin="round"/>
<path d="M195.95 227.788L192.04 206.508" stroke="#0072F1" stroke-width="1.14" stroke-linecap="round" stroke-linejoin="round"/>
<path d="M125.86 184.968L126.114 184.787L126.064 184.48L121.455 156.373L146.828 152.215L151.437 180.312L151.489 180.629L151.799 180.713L159.849 182.897C159.846 182.929 159.843 182.962 159.839 182.998C159.806 183.316 159.738 183.782 159.597 184.353C159.315 185.497 158.743 187.066 157.582 188.744C155.268 192.086 150.565 195.927 140.963 197.638C131.359 199.349 125.675 197.362 122.404 195.021C120.762 193.847 119.71 192.57 119.07 191.593C118.75 191.105 118.533 190.691 118.398 190.403C118.382 190.37 118.367 190.338 118.354 190.308L125.86 184.968Z" fill="white" stroke="#0072F1"/>
<path d="M148.72 160.672C148.72 160.672 148.28 171.912 138.72 174.772C127.6 178.062 122.37 165.282 122.37 165.282C122.37 165.282 128.37 170.482 136.25 169.202C138.829 168.788 141.285 167.809 143.441 166.334C145.597 164.859 147.4 162.926 148.72 160.672V160.672Z" fill="#0072F1"/>
<path d="M117.15 109.742C117.15 109.742 121.84 98.1224 137.62 100.032C148.76 101.382 152.48 110.462 154.44 114.592C155.208 116.171 155.552 117.921 155.44 119.672L153.27 139.142L134.77 114.382L119.55 117.122L117.15 109.742Z" fill="#0072F1"/>
<path d="M159.074 137.39L159.092 137.397L159.111 137.402C159.976 137.634 160.626 138.332 161.015 139.382C161.405 140.434 161.509 141.789 161.298 143.192C160.875 146.016 159.223 148.82 156.449 149.689C155.837 149.859 155.196 149.896 154.568 149.797C154.036 149.713 153.525 149.533 153.058 149.267L153.06 149.247C153.081 149.034 153.11 148.728 153.145 148.351C153.215 147.597 153.307 146.563 153.399 145.439C153.575 143.273 153.749 140.747 153.742 139.274C154.268 138.418 155.067 137.762 156.012 137.412C156.999 137.047 158.082 137.04 159.074 137.39Z" fill="white" stroke="#0072F1"/>
<path d="M158.74 140.528C158.74 140.528 155.17 139.718 153.22 145.058" stroke="#0072F1" stroke-width="0.7" stroke-linecap="round" stroke-linejoin="round"/>
<path d="M113.224 153.245L113.23 153.265C112.825 153.618 112.359 153.895 111.853 154.081C111.256 154.301 110.619 154.388 109.986 154.339C107.094 154.033 104.917 151.617 103.944 148.938C103.46 147.608 103.295 146.261 103.471 145.153C103.647 144.048 104.15 143.23 104.963 142.824L104.979 142.816L104.993 142.808C105.893 142.279 106.95 142.079 107.981 142.243C108.968 142.401 109.874 142.882 110.556 143.61C110.839 145.036 111.517 147.476 112.125 149.568C112.44 150.653 112.74 151.652 112.96 152.38C113.07 152.743 113.161 153.04 113.224 153.245Z" fill="white" stroke="#0072F1"/>
<path d="M105.91 145.789C105.91 145.789 109.25 144.289 112.2 149.139" stroke="#0072F1" stroke-width="0.7" stroke-linecap="round" stroke-linejoin="round"/>
<path d="M152.211 129.635L152.211 129.635L152.211 129.635L152.211 129.643L152.212 129.651C152.511 132.637 152.827 137.298 152.699 142.187C152.57 147.086 151.997 152.169 150.542 156.025L150.542 156.025C149.173 159.659 147.421 162.325 145.118 164.206C142.817 166.086 139.927 167.214 136.224 167.705C132.506 168.198 128.992 168.037 125.754 166.712C122.523 165.39 119.519 162.889 116.854 158.616C114.194 154.352 112.503 148.212 111.477 143.094C110.966 140.543 110.624 138.262 110.409 136.619C110.301 135.797 110.226 135.135 110.178 134.68C110.153 134.452 110.136 134.276 110.124 134.157C110.119 134.098 110.114 134.052 110.112 134.022L110.109 133.989L110.108 133.98L110.108 133.978L110.108 133.978L109.61 134.021L110.108 133.978L110.107 133.972L110.107 133.972L110.107 133.972L110.107 133.97L110.106 133.96L110.102 133.918C110.099 133.88 110.095 133.822 110.09 133.745C110.08 133.593 110.067 133.366 110.059 133.076C110.043 132.495 110.042 131.66 110.107 130.65C110.238 128.627 110.63 125.916 111.673 123.146C112.714 120.378 114.402 117.562 117.118 115.308C119.831 113.056 123.598 111.342 128.839 110.819L128.839 110.819C134.37 110.264 138.572 111.177 141.769 112.829C144.968 114.481 147.194 116.891 148.744 119.381C150.295 121.875 151.163 124.442 151.644 126.392C151.883 127.365 152.026 128.181 152.108 128.752C152.149 129.037 152.175 129.26 152.19 129.411C152.198 129.487 152.203 129.544 152.207 129.582L152.21 129.624L152.211 129.633L152.211 129.635Z" fill="white" stroke="#0072F1"/>
<path d="M111.02 143.379L105.31 124.819C104.93 123.299 104.999 121.701 105.51 120.219C106.78 116.519 110.7 108.219 117.15 109.779L119.55 117.119C119.55 117.119 111.79 119.499 109.65 130.169L111.02 143.379Z" fill="#0072F1"/>
<path d="M114.67 116.07C114.67 116.07 128.93 130.21 154.11 126.17C154.11 126.17 149.89 108.17 138.05 108C130.601 108.063 123.308 110.136 116.94 114L114.67 116.07Z" fill="#0072F1"/>
<path d="M119.55 117.08C117.531 123.06 114.077 128.454 109.49 132.79C109.49 132.79 106.07 115.77 119.55 117.08Z" fill="#0072F1"/>
<path d="M139.23 138.758C139.288 139.131 139.455 139.479 139.711 139.757C139.967 140.036 140.299 140.232 140.667 140.321C141.034 140.41 141.419 140.388 141.774 140.258C142.129 140.128 142.437 139.896 142.66 139.59C142.883 139.285 143.01 138.92 143.025 138.543C143.041 138.165 142.944 137.791 142.747 137.469C142.55 137.146 142.262 136.89 141.918 136.731C141.575 136.572 141.193 136.519 140.82 136.578C140.32 136.657 139.872 136.93 139.574 137.339C139.276 137.748 139.152 138.258 139.23 138.758V138.758Z" fill="#0072F1"/>
<path d="M121.57 141.529C121.627 141.904 121.793 142.253 122.048 142.532C122.302 142.812 122.635 143.01 123.002 143.1C123.37 143.191 123.756 143.17 124.111 143.041C124.467 142.912 124.776 142.68 125 142.375C125.224 142.07 125.352 141.705 125.368 141.327C125.384 140.949 125.287 140.574 125.09 140.251C124.893 139.928 124.604 139.671 124.261 139.512C123.917 139.353 123.534 139.3 123.16 139.359C122.913 139.397 122.676 139.483 122.463 139.613C122.249 139.743 122.063 139.913 121.915 140.115C121.768 140.316 121.661 140.545 121.602 140.788C121.543 141.03 121.532 141.283 121.57 141.529V141.529Z" fill="#0072F1"/>
<path d="M125.77 132.14L113.62 137.38C113.62 137.38 113.62 133.73 118.62 131.63C123.62 129.53 125.77 132.14 125.77 132.14Z" fill="#0072F1"/>
<path d="M134.67 130.913L147.85 132.193C147.85 132.193 146.72 128.733 141.33 128.253C135.94 127.773 134.67 130.913 134.67 130.913Z" fill="#0072F1"/>
<path d="M131.37 144.633L131.92 147.313C131.948 147.469 132.011 147.616 132.104 147.745C132.197 147.873 132.317 147.979 132.456 148.055C132.595 148.131 132.749 148.174 132.908 148.183C133.066 148.191 133.224 148.164 133.37 148.103L134.74 147.513" stroke="#0072F1" stroke-width="1.03" stroke-linecap="round" stroke-linejoin="round"/>
<path d="M128.126 153.954C128.1 153.904 128.075 153.856 128.053 153.81L140.645 150.962C140.649 151.037 140.651 151.118 140.651 151.205C140.652 151.683 140.587 152.327 140.333 153.005C139.838 154.324 138.585 155.876 135.365 156.501C132.127 157.129 130.267 156.274 129.216 155.339C128.681 154.863 128.336 154.348 128.126 153.954Z" fill="white" stroke="#0072F1"/>
<path d="M599.79 364.312H0V379.293H599.79V364.312Z" fill="#0072F1"/>
<path d="M234.02 336.352H263.544L268.639 363.812H234.02C230.379 363.812 226.886 362.365 224.311 359.79C221.737 357.215 220.29 353.723 220.29 350.082C220.29 346.44 221.737 342.948 224.311 340.373C226.886 337.798 230.379 336.352 234.02 336.352Z" fill="white" stroke="#0072F1"/>
<path d="M268.688 314.697L264.716 349.471L223.873 340.627L241.917 311.086L268.688 314.697Z" fill="white" stroke="#0072F1"/>
<path d="M352.972 363.812L358.086 336.352H387.61C389.413 336.352 391.199 336.707 392.864 337.397C394.53 338.087 396.044 339.098 397.319 340.373C398.594 341.648 399.605 343.162 400.295 344.827C400.985 346.493 401.34 348.279 401.34 350.082C401.34 351.885 400.985 353.67 400.295 355.336C399.605 357.002 398.594 358.515 397.319 359.79C396.044 361.065 394.53 362.076 392.864 362.766C391.199 363.456 389.413 363.812 387.61 363.812H352.972Z" fill="white" stroke="#0072F1"/>
<path d="M352.939 314.578L374.651 305.174L397.431 340.278L356.924 349.466L352.939 314.578Z" fill="white" stroke="#0072F1"/>
<path d="M308.3 257.172C308.3 257.172 278.5 257.172 256.55 278.752V339.222C256.55 339.222 361.55 340.822 361.55 339.222C361.55 337.622 361.55 274.752 361.55 274.752C361.55 274.752 340.11 257.172 308.3 257.172Z" fill="#0072F1"/>
<path d="M260.99 274.75C260.99 274.75 244.79 287.83 227.71 316.63C227.71 316.63 231.4 333.3 263.21 335.85L260.99 274.75Z" fill="#0072F1"/>
<path d="M361.59 274.75C361.59 274.75 377.79 287.83 394.87 316.63C394.87 316.63 391.18 333.3 359.37 335.85L361.59 274.75Z" fill="#0072F1"/>
<path d="M261.32 295H356.81C359.162 295 361.07 296.907 361.07 299.26V359.55C361.07 361.903 359.162 363.81 356.81 363.81H261.32C258.967 363.81 257.06 361.903 257.06 359.55V299.26C257.06 296.907 258.967 295 261.32 295Z" fill="#0072F1" stroke="#0072F1"/>
<path d="M309.06 335.849C312.617 335.849 315.5 332.965 315.5 329.409C315.5 325.852 312.617 322.969 309.06 322.969C305.503 322.969 302.62 325.852 302.62 329.409C302.62 332.965 305.503 335.849 309.06 335.849Z" fill="white"/>
<path d="M299.01 244.93H318.61V267H299.01V244.93Z" fill="white" stroke="#0072F1"/>
<path d="M297.5 243.188C297.5 243.188 299.32 254.648 307.95 254.858C319.29 255.128 319.1 243.698 319.1 243.698C319.1 243.698 317.56 247.058 308.79 247.068C299.01 247.088 297.5 243.188 297.5 243.188Z" fill="#0072F1"/>
<path d="M308.273 257.672L308.273 257.672L308.273 257.672L308.312 257.674L308.35 257.671C314.201 257.08 321.606 258.364 327.587 259.814C330.57 260.537 333.183 261.298 335.05 261.878C335.984 262.168 336.731 262.412 337.244 262.584C337.384 262.631 337.507 262.673 337.612 262.709C337.595 262.77 337.577 262.837 337.555 262.91C337.436 263.314 337.234 263.898 336.904 264.602C336.245 266.01 335.076 267.901 333.037 269.797C328.968 273.581 321.375 277.443 307.3 277.443C293.206 277.443 286.36 273.917 283.03 270.504C281.364 268.795 280.558 267.094 280.167 265.831C279.972 265.199 279.88 264.675 279.837 264.313C279.827 264.227 279.82 264.15 279.814 264.083C287.847 260.565 294.934 258.961 300.028 258.237C302.607 257.87 304.675 257.729 306.095 257.68C306.805 257.656 307.353 257.654 307.722 257.658C307.906 257.66 308.045 257.664 308.138 257.667C308.184 257.669 308.219 257.67 308.242 257.671L308.266 257.672L308.272 257.672L308.273 257.672Z" fill="white" stroke="#0072F1"/>
<path d="M308.85 235.104C324.673 235.104 337.5 221.95 337.5 205.724C337.5 189.498 324.673 176.344 308.85 176.344C293.027 176.344 280.2 189.498 280.2 205.724C280.2 221.95 293.027 235.104 308.85 235.104Z" fill="#0072F1"/>
<path d="M339.708 215.221L339.725 215.229L339.742 215.235C340.61 215.566 341.206 216.351 341.498 217.466C341.79 218.583 341.758 219.98 341.4 221.393C340.68 224.235 338.705 226.937 335.777 227.547C335.133 227.657 334.473 227.629 333.841 227.463C333.302 227.322 332.795 227.084 332.343 226.762L332.348 226.736C332.392 226.523 332.455 226.214 332.531 225.834C332.683 225.076 332.888 224.033 333.101 222.898C333.512 220.707 333.958 218.142 334.096 216.62C334.715 215.798 335.593 215.206 336.59 214.942C337.63 214.667 338.734 214.765 339.708 215.221Z" fill="white" stroke="#0072F1"/>
<path d="M339.08 218.381C339.08 218.381 335.52 217.191 332.99 222.441" stroke="#0072F1" stroke-width="0.78" stroke-linecap="round" stroke-linejoin="round"/>
<path d="M286.012 226.734L286.017 226.76C285.565 227.082 285.058 227.32 284.519 227.461C283.887 227.627 283.227 227.656 282.583 227.545C279.655 226.935 277.683 224.234 276.963 221.391C276.606 219.978 276.574 218.582 276.866 217.464C277.158 216.349 277.753 215.563 278.618 215.234L278.635 215.227L278.651 215.22C279.628 214.765 280.733 214.667 281.774 214.942C282.773 215.206 283.653 215.797 284.274 216.619C284.412 218.141 284.855 220.705 285.263 222.896C285.475 224.031 285.679 225.073 285.831 225.832C285.906 226.212 285.969 226.52 286.012 226.734Z" fill="white" stroke="#0072F1"/>
<path d="M279.28 218.381C279.28 218.381 282.85 217.191 285.38 222.441" stroke="#0072F1" stroke-width="0.78" stroke-linecap="round" stroke-linejoin="round"/>
<path d="M333.51 207.524L333.51 207.524L333.511 207.522L333.511 207.511L333.512 207.465C333.512 207.424 333.513 207.361 333.513 207.278C333.512 207.112 333.508 206.866 333.493 206.552C333.464 205.923 333.394 205.022 333.23 203.938C332.902 201.769 332.198 198.884 330.703 196.004C329.209 193.128 326.926 190.26 323.433 188.108C319.941 185.957 315.21 184.502 308.79 184.5L333.51 207.524ZM333.51 207.524L333.51 207.532M333.51 207.524L333.51 207.532M333.51 207.532V207.54C333.51 210.836 333.341 215.93 332.635 221.219C331.927 226.518 330.686 231.966 328.568 235.997L328.566 236C324.651 243.557 318.127 247.615 309.566 247.85C305.263 247.968 301.562 247.237 298.302 245.276C295.039 243.315 292.17 240.094 289.583 235.148C287.014 230.236 285.771 223.384 285.176 217.713C284.88 214.886 284.746 212.37 284.686 210.56C284.656 209.655 284.644 208.928 284.64 208.427C284.639 208.177 284.638 207.984 284.639 207.853C284.639 207.788 284.639 207.738 284.64 207.705L284.64 207.668L284.64 207.659L284.64 207.657L284.64 207.657L284.14 207.65M333.51 207.532L284.14 207.65M284.14 207.65L284.64 207.656V207.65M284.14 207.65H284.64M284.64 207.65L284.64 207.65L284.64 207.648L284.64 207.637L284.641 207.591C284.642 207.549 284.643 207.485 284.646 207.402C284.652 207.235 284.663 206.987 284.687 206.671C284.734 206.038 284.829 205.131 285.018 204.04C285.397 201.857 286.155 198.954 287.665 196.056C289.174 193.161 291.43 190.277 294.809 188.117C298.185 185.957 302.711 184.5 308.79 184.5L284.64 207.65Z" fill="white" stroke="#0072F1"/>
<path d="M284.76 216.444C284.76 216.444 290.02 204.904 285.38 196.594C285.37 196.594 281.17 209.964 284.76 216.444Z" fill="#0072F1"/>
<path d="M333.53 216.444C333.53 216.444 328.27 204.904 332.91 196.594C332.91 196.594 337.11 209.964 333.53 216.444Z" fill="#0072F1"/>
<path d="M321.62 185.383C321.62 185.383 319.19 199.383 333.62 205.733C333.66 205.693 333.07 189.313 321.62 185.383Z" fill="#0072F1"/>
<path d="M324.87 187.093C324.87 187.093 322.71 201.093 303.73 197.943C288.96 195.513 284.45 206.813 284.45 206.813C284.45 206.813 281.83 185.813 305.68 181.523C305.68 181.523 317.88 181.463 324.87 187.093Z" fill="#0072F1"/>
<path d="M300.37 218.93C300.37 219.375 300.238 219.81 299.991 220.18C299.744 220.55 299.392 220.838 298.981 221.008C298.57 221.179 298.118 221.223 297.681 221.136C297.245 221.05 296.844 220.835 296.529 220.521C296.214 220.206 296 219.805 295.913 219.369C295.827 218.932 295.871 218.48 296.041 218.069C296.212 217.658 296.5 217.306 296.87 217.059C297.24 216.812 297.675 216.68 298.12 216.68C298.717 216.68 299.289 216.917 299.711 217.339C300.133 217.761 300.37 218.333 300.37 218.93V218.93Z" fill="#0072F1"/>
<path d="M318.94 221.18C320.183 221.18 321.19 220.172 321.19 218.93C321.19 217.687 320.183 216.68 318.94 216.68C317.698 216.68 316.69 217.687 316.69 218.93C316.69 220.172 317.698 221.18 318.94 221.18Z" fill="#0072F1"/>
<path d="M307.37 223.844V226.844C307.367 227.02 307.404 227.196 307.477 227.356C307.55 227.517 307.658 227.66 307.793 227.774C307.928 227.888 308.086 227.97 308.257 228.015C308.428 228.06 308.607 228.066 308.78 228.034L310.4 227.694" stroke="#0072F1" stroke-width="1.14" stroke-linecap="round" stroke-linejoin="round"/>
<path d="M304.77 211.953L291.12 213.593C291.12 213.593 292.21 209.973 297.79 209.353C303.37 208.733 304.77 211.953 304.77 211.953Z" fill="#0072F1"/>
<path d="M312.65 211.953L326.3 213.593C326.3 213.593 325.21 209.973 319.63 209.353C314.05 208.733 312.65 211.953 312.65 211.953Z" fill="#0072F1"/>
<path d="M302.454 225.45C306.094 221.81 306.094 215.909 302.454 212.269C298.815 208.629 292.913 208.629 289.274 212.269C285.634 215.909 285.634 221.81 289.274 225.45C292.914 229.089 298.815 229.089 302.454 225.45Z" stroke="white" stroke-width="1.25" stroke-miterlimit="10"/>
<path d="M331.336 220.998C332.514 215.987 329.407 210.97 324.396 209.792C319.386 208.614 314.369 211.721 313.191 216.732C312.013 221.743 315.12 226.76 320.13 227.938C325.141 229.116 330.158 226.009 331.336 220.998Z" stroke="white" stroke-width="1.25" stroke-miterlimit="10"/>
<path d="M305.18 219.64C305.18 219.64 308.47 214.58 312.93 219.64" stroke="white" stroke-width="1.25" stroke-miterlimit="10"/>
<path d="M301.05 232.188C301.05 232.188 302.42 233.957 308.51 233.957C314.05 233.957 316.56 232.188 316.56 232.188" stroke="#0072F1" stroke-width="1.14" stroke-linecap="round" stroke-linejoin="round"/>
<path d="M319.11 186.306C329.438 186.306 337.81 177.934 337.81 167.606C337.81 157.279 329.438 148.906 319.11 148.906C308.782 148.906 300.41 157.279 300.41 167.606C300.41 177.934 308.782 186.306 319.11 186.306Z" fill="#0072F1"/>
<path d="M297.5 259.5L299.5 257.5L318 256.5L318.5 259H318L297.5 259.5Z" fill="white"/>
<path d="M471 181V178.5L489.5 175L491.5 177L471 181Z" fill="white"/>
<path d="M523 248V244.5C529.833 243.333 543.6 241 544 241C544.4 241 554.833 248.333 560 252L561.5 259.5L561.199 261.158C560.747 263.64 559.438 265.885 557.5 267.5L523 248Z" fill="white"/>
</g>
<defs>
<clipPath id="clip0_41_569">
<rect width="631.37" height="379.29" fill="white"/>
</clipPath>
</defs>
</svg>
