<svg width="229" height="66" viewBox="0 0 229 66" fill="none" xmlns="http://www.w3.org/2000/svg">
<path fill-rule="evenodd" clip-rule="evenodd" d="M63.3395 24.5342C63.3395 34.7437 51.6341 35.1707 51.6341 35.1707C51.0887 35.205 50.5598 35.3716 50.0932 35.6563C49.6266 35.9409 49.2365 36.335 48.9564 36.8043C48.6355 37.3302 48.4667 37.9348 48.4688 38.5509V50.9725C48.4691 54.0371 47.5324 57.0284 45.7844 59.5455C44.0364 62.0626 41.5607 63.9851 38.6891 65.0553C35.8542 63.9994 33.4042 62.1122 31.6598 59.6408C29.9153 57.1693 28.9576 54.2287 28.9121 51.2039C28.9734 52.4051 29.5088 53.5328 30.4008 54.3396C31.2928 55.1464 32.4685 55.5662 33.6697 55.507C36.1188 55.3858 37.9811 53.2398 37.9811 50.7907V37.4049C37.9684 36.3129 38.0755 35.2228 38.3006 34.1542C38.747 31.9776 39.8127 29.9763 41.3696 28.391C47.5818 22.121 60.2982 23.9805 63.3395 24.5342Z" fill="url(#paint0_linear_2071_3038)"/>
<path fill-rule="evenodd" clip-rule="evenodd" d="M64.9898 5.10498V8.59813H62.5765V12.0968H60.1522V15.5927H15.0277C14.9478 15.5927 14.8707 15.5927 14.7963 15.5927C11.6574 15.6455 8.62915 16.7609 6.20595 18.7568C3.78275 20.7527 2.1078 23.5112 1.45458 26.5818C0.494013 24.5678 -0.00301877 22.3641 1.37939e-05 20.1327C1.37939e-05 10.5651 8.31141 5.10498 15.0277 5.10498H64.9898Z" fill="url(#paint1_linear_2071_3038)"/>
<path fill-rule="evenodd" clip-rule="evenodd" d="M38.6895 65.055C37.0074 65.6833 35.226 66.0033 33.4304 66C25.4772 66 18.444 59.8374 18.444 51.9943C18.444 51.7188 18.4082 38.4707 18.4027 38.4377C18.3762 37.558 18.0076 36.7234 17.3754 36.1112C16.7431 35.499 15.8971 35.1575 15.017 35.1594C12.9237 35.1618 10.8531 34.7257 8.93862 33.8792C7.02411 33.0328 5.30812 31.7947 3.90118 30.2447C2.90497 29.156 2.07675 27.9249 1.44385 26.5918C2.09641 23.5183 3.77252 20.7572 6.19806 18.76C8.62361 16.7628 11.655 15.6478 14.7966 15.5972C13.6134 15.6555 12.4998 16.1743 11.694 17.0427C10.8882 17.9112 10.454 19.0603 10.4842 20.2446C10.5145 21.429 11.0067 22.5545 11.8557 23.3807C12.7048 24.2069 13.8433 24.6682 15.028 24.6661C17.9141 24.6648 20.7287 25.5638 23.0797 27.2378C25.4307 28.9118 27.201 31.2774 28.1439 34.0051C28.4483 34.8739 28.6607 35.7724 28.7775 36.6856C28.8669 37.3013 28.9102 37.9229 28.907 38.5451V50.9722C28.907 51.0494 28.907 51.1238 28.907 51.2036C28.9529 54.2291 29.9114 57.1701 31.6569 59.6416C33.4024 62.1132 35.8536 64 38.6895 65.055Z" fill="url(#paint2_linear_2071_3038)"/>
<path d="M69.45 4.7998H66.7007V7.54915H69.45V4.7998Z" fill="#E2000F"/>
<path d="M67.6871 9.36011H64.9377V12.1095H67.6871V9.36011Z" fill="#E2000F"/>
<path d="M65.3785 13.5676H62.6292V16.317H65.3785V13.5676Z" fill="#E2000F"/>
<path d="M71.3064 12.8381H68.9399V15.2046H71.3064V12.8381Z" fill="#E2000F"/>
<path d="M73.1909 8.21289H70.8245V10.5793H73.1909V8.21289Z" fill="#E2000F"/>
<path d="M74.3728 3.25635H72.0063V5.62277H74.3728V3.25635Z" fill="#E2000F"/>
<path d="M77.9731 7.16895H76.1494V9.10836H77.9731V7.16895Z" fill="#E2000F"/>
<path d="M79.4663 1.64185H77.6426V3.58126H79.4663V1.64185Z" fill="#E2000F"/>
<path d="M81.1965 5.21729H79.3728V7.1567H81.1965V5.21729Z" fill="#E2000F"/>
<path d="M84.0232 0H82.1995V1.93942H84.0232V0Z" fill="#E2000F"/>
<path d="M75.7639 11.366H73.9402V13.3054H75.7639V11.366Z" fill="#E2000F"/>
<path d="M74.4698 41.6407V52.2263H70.9936V41.6407H64.7393V38.7275H80.7174V41.6407H74.4698Z" fill="#E2000F"/>
<path d="M98.0523 45.9004C98.3205 45.5472 98.5296 45.1534 98.6715 44.7341C98.8328 44.229 98.9084 43.7007 98.8951 43.171C98.9279 42.4021 98.7584 41.6379 98.4032 40.9537C98.1132 40.4219 97.7059 39.9618 97.2117 39.6078C96.7658 39.2887 96.2639 39.0549 95.7317 38.9182C95.2996 38.8033 94.8554 38.7393 94.4082 38.7275H82.0945V41.6388H93.9052C94.0493 41.6438 94.1924 41.6639 94.3322 41.6987C94.5167 41.7402 94.6919 41.8154 94.8486 41.9204C95.0261 42.0394 95.1737 42.1972 95.2801 42.3816C95.4067 42.622 95.4676 42.8911 95.4567 43.1621C95.4683 43.43 95.3999 43.6954 95.26 43.9248C95.1396 44.1123 94.9822 44.2738 94.7972 44.3993C94.6396 44.5069 94.4651 44.5878 94.2808 44.6388C94.1588 44.6761 94.0327 44.6984 93.9052 44.7053H82.0945V52.2263H85.5418V47.6255H92.7337L94.9246 52.2263H98.6089L96.2213 47.2419C96.5625 47.1044 96.8872 46.9296 97.1893 46.7208C97.5186 46.494 97.8098 46.2171 98.0523 45.9004Z" fill="#E2000F"/>
<path d="M100.552 52.2263V38.7275H117.121V41.6407H104.011V44.0813H115.54V46.7061H104.011V49.3309H117.632V52.2263H100.552Z" fill="#E2000F"/>
<path d="M132.366 52.2263L122.456 42.79V52.2263H119.01V38.7275H122.456L132.366 48.1638V38.7275H135.814V52.2263H132.366Z" fill="#E2000F"/>
<path d="M155.058 42.8573C154.834 42.3854 154.546 41.9446 154.203 41.5464C153.944 41.2401 153.655 40.9586 153.341 40.7057C152.523 40.0595 151.587 39.5696 150.583 39.2616C149.371 38.8876 148.105 38.7078 146.835 38.7292H137.192V41.5464H146.757C147.539 41.5318 148.319 41.6366 149.068 41.8569C149.66 42.0293 150.212 42.3134 150.692 42.6932C151.11 43.0308 151.439 43.4613 151.651 43.9487C151.858 44.4352 151.963 44.957 151.961 45.4836C151.963 46.0081 151.858 46.5278 151.651 47.012C151.44 47.5003 151.111 47.9317 150.692 48.2697C150.214 48.6514 149.666 48.9398 149.077 49.1193C148.328 49.3378 147.548 49.4411 146.766 49.4254H140.708V44.7095H137.201V52.2247H146.844C148.114 52.2453 149.379 52.067 150.592 51.6968C151.596 51.3856 152.531 50.8943 153.35 50.2483C154.431 49.3727 155.185 48.1731 155.494 46.8362C155.802 45.4994 155.649 44.1005 155.058 42.8573Z" fill="#E2000F"/>
<path d="M173.831 47.8464C173.831 48.5248 173.64 49.1894 173.281 49.7645C172.853 50.4198 172.272 50.9603 171.587 51.3386C170.697 51.8366 169.735 52.1924 168.735 52.3932C167.405 52.6658 166.05 52.794 164.693 52.7755C163.866 52.7741 163.04 52.7087 162.222 52.5799C161.421 52.4594 160.626 52.2965 159.842 52.0919C158.968 51.8681 158.122 51.5468 157.32 51.134L158.521 48.3974C159.216 48.7514 159.945 49.0361 160.695 49.2473C161.346 49.4353 162.006 49.5854 162.674 49.6971C163.339 49.798 164.009 49.8566 164.682 49.8725C166.649 49.8725 168.115 49.6963 169.079 49.344C170.043 48.9917 170.525 48.5293 170.525 47.9566C170.534 47.7939 170.496 47.6321 170.417 47.4899C170.337 47.3478 170.219 47.2312 170.076 47.1538C169.638 46.9536 169.161 46.8538 168.679 46.8615C168.533 46.848 168.261 46.8323 167.862 46.8121L166.395 46.7446C165.818 46.7176 165.176 46.6929 164.466 46.6659C163.756 46.6389 163.022 46.6074 162.263 46.5692C161.555 46.5377 160.853 46.4322 160.167 46.2544C159.578 46.1066 159.018 45.8587 158.512 45.5213C158.063 45.2191 157.69 44.8175 157.421 44.3475C157.149 43.8473 157.014 43.2843 157.028 42.715C157.034 42.0728 157.252 41.4505 157.648 40.9453C158.124 40.3391 158.729 39.8454 159.417 39.4994C160.3 39.0483 161.241 38.7222 162.213 38.5303C163.421 38.2846 164.651 38.1662 165.883 38.1772C166.7 38.1792 167.516 38.2385 168.324 38.3549C169.032 38.4583 169.823 38.6082 170.696 38.8046C171.572 39.0015 172.426 39.2894 173.243 39.6636L172.2 42.362C171.794 42.1911 171.334 42.0292 170.824 41.8718C170.314 41.7143 169.777 41.5794 169.218 41.4625C168.659 41.3456 168.095 41.2534 167.527 41.1882C166.981 41.1241 166.432 41.091 165.883 41.0892C165.15 41.0865 164.418 41.1226 163.689 41.1972C163.094 41.2541 162.505 41.3624 161.928 41.521C161.51 41.6276 161.113 41.8064 160.756 42.0494C160.634 42.1236 160.532 42.2265 160.458 42.3491C160.384 42.4717 160.342 42.6104 160.334 42.7532C160.327 42.9082 160.365 43.0618 160.441 43.1966C160.518 43.3314 160.631 43.4419 160.767 43.5155C161.164 43.7118 161.602 43.812 162.045 43.8078L164.702 43.9248C165.844 43.9787 167.196 44.038 168.758 44.1024C169.472 44.1295 170.181 44.2343 170.873 44.415C171.443 44.5589 171.982 44.8034 172.465 45.1368C172.891 45.4354 173.239 45.8318 173.481 46.2926C173.72 46.7748 173.841 47.3078 173.831 47.8464Z" fill="#E2000F"/>
<path d="M193.666 45.4814C193.671 46.4538 193.456 47.4146 193.037 48.2916C192.605 49.1887 191.983 49.9808 191.216 50.6133C190.353 51.3127 189.37 51.847 188.315 52.1895C185.789 52.9731 183.087 52.9731 180.561 52.1895C179.506 51.847 178.523 51.3127 177.66 50.6133C176.893 49.9808 176.271 49.1887 175.839 48.2916C175.424 47.4118 175.208 46.4504 175.208 45.4769C175.208 44.5034 175.424 43.542 175.839 42.6621C176.271 41.7651 176.893 40.973 177.66 40.3405C178.523 39.6411 179.506 39.1068 180.561 38.7642C183.087 37.9806 185.789 37.9806 188.315 38.7642C189.37 39.1068 190.353 39.6411 191.216 40.3405C191.983 40.973 192.605 41.7651 193.037 42.6621C193.457 43.5419 193.672 44.506 193.666 45.4814ZM190.026 45.4814C190.028 44.9058 189.911 44.336 189.682 43.8083C189.445 43.2676 189.088 42.7885 188.638 42.4077C188.124 41.9752 187.529 41.6491 186.889 41.4484C185.29 40.977 183.589 40.977 181.989 41.4484C181.348 41.6486 180.753 41.9747 180.238 42.4077C179.788 42.7885 179.431 43.2676 179.194 43.8083C178.967 44.3372 178.85 44.9068 178.85 45.4825C178.85 46.0582 178.967 46.6278 179.194 47.1567C179.431 47.6963 179.788 48.1746 180.238 48.5551C180.753 48.9881 181.348 49.3141 181.989 49.5144C183.589 49.9858 185.29 49.9858 186.889 49.5144C187.529 49.3136 188.124 48.9876 188.638 48.5551C189.088 48.1746 189.445 47.6963 189.682 47.1567C189.911 46.6281 190.028 46.0577 190.026 45.4814Z" fill="#E2000F"/>
<path d="M198.746 41.6407V44.7092H210.035V47.6224H198.746V52.2263H195.319V38.7275H211.572V41.6407H198.746Z" fill="#E2000F"/>
<path d="M222.675 41.6407V52.2263H219.204V41.6407H212.95V38.7275H228.929V41.6407H222.675Z" fill="#E2000F"/>
<path d="M70.3141 58.8027H67.7147V65.6789H66.4858V58.8027H63.9126V57.677H70.3141V58.8027Z" fill="#146ABA"/>
<path d="M78.665 65.6789H72.5835V57.677H78.4705V58.8045H73.8319V60.9778H78.1682V62.1027H73.8319V64.5515H78.665V65.6789Z" fill="#146ABA"/>
<path d="M87.9767 63.1612C87.8717 63.5705 87.7154 63.9643 87.5117 64.3327C87.3251 64.6697 87.084 64.972 86.7985 65.2267C86.5133 65.4774 86.1845 65.6712 85.8292 65.7977C85.4359 65.9358 85.0223 66.0035 84.6065 65.9979C84.0619 66.0097 83.5212 65.9023 83.0206 65.683C82.5749 65.4836 82.1812 65.1801 81.8711 64.797C81.5497 64.3876 81.3116 63.9167 81.1709 63.4121C81.0077 62.8255 80.9285 62.2179 80.9358 61.6081C80.9258 60.9937 81.0213 60.3822 81.2179 59.8015C81.3859 59.3061 81.6528 58.8517 82.0017 58.4672C82.3334 58.106 82.7394 57.8243 83.1905 57.6426C83.6711 57.4488 84.1839 57.3518 84.7005 57.3571C85.101 57.3511 85.4998 57.4115 85.8814 57.5359C86.2083 57.643 86.5123 57.8123 86.7776 58.0349C87.0335 58.2538 87.2501 58.5166 87.4177 58.8115C87.5979 59.1278 87.7392 59.4657 87.8383 59.8175L86.626 60.0603C86.309 59.0143 85.6533 58.4912 84.6587 58.4912C84.2995 58.4858 83.9432 58.5585 83.6137 58.7047C83.3142 58.8439 83.0524 59.0555 82.8508 59.3211C82.6348 59.6132 82.4776 59.946 82.3884 60.3005C82.2787 60.7263 82.226 61.1652 82.2316 61.6054C82.2231 62.1011 82.2802 62.5957 82.4014 63.0758C82.493 63.4427 82.6565 63.7868 82.8822 64.0872C83.0786 64.3439 83.3345 64.5466 83.6268 64.6769C83.9318 64.8078 84.26 64.8732 84.5908 64.8691C85.1099 64.8917 85.6175 64.7081 86.0068 64.3567C86.3958 63.9635 86.659 63.4593 86.7619 62.9104L87.9767 63.1612Z" fill="#146ABA"/>
<path d="M96.3271 65.6789H95.1624V62.0057H91.4251V65.6789H90.2456V57.677H91.4251V60.8783H95.1624V57.677H96.3271V65.6789Z" fill="#146ABA"/>
<path d="M104.998 65.6789H103.727L99.8016 59.6411H99.7754V65.6789H98.5964V57.677H99.8542L103.78 63.7148H103.806V57.677H104.998V65.6789Z" fill="#146ABA"/>
<path d="M111.117 57.3569C111.652 57.3511 112.182 57.4584 112.673 57.6719C113.135 57.8735 113.548 58.1751 113.882 58.5556C114.232 58.9527 114.5 59.4164 114.671 59.9197C115.043 61.0659 115.043 62.3027 114.671 63.4489C114.499 63.9511 114.231 64.4138 113.882 64.8104C113.546 65.1891 113.133 65.4888 112.671 65.6887C112.177 65.8991 111.647 66.0045 111.112 65.9983C110.562 66.0066 110.017 65.8946 109.513 65.67C109.05 65.461 108.636 65.1543 108.299 64.7703C107.96 64.3803 107.699 63.9269 107.531 63.4355C107.351 62.9077 107.262 62.3523 107.268 61.7938C107.26 61.1593 107.355 60.5278 107.55 59.9251C107.718 59.4123 107.986 58.9393 108.338 58.5342C108.678 58.1587 109.093 57.8619 109.555 57.6639C110.05 57.4567 110.581 57.3523 111.117 57.3569ZM111.117 64.8718C111.479 64.8763 111.838 64.8007 112.168 64.6502C112.475 64.5044 112.745 64.2888 112.957 64.0202C113.187 63.7237 113.359 63.3846 113.462 63.0218C113.586 62.588 113.65 62.1387 113.651 61.687C113.658 61.2307 113.596 60.776 113.467 60.3388C113.357 59.972 113.179 59.6303 112.941 59.3324C112.728 59.0661 112.459 58.8525 112.153 58.7077C111.83 58.5586 111.479 58.4838 111.125 58.4888C110.765 58.4831 110.407 58.5512 110.073 58.689C109.758 58.8219 109.478 59.0297 109.258 59.295C109.017 59.6001 108.838 59.9514 108.733 60.3282C108.597 60.8078 108.532 61.3054 108.541 61.8044C108.536 62.2234 108.597 62.6405 108.719 63.0404C108.827 63.3934 109 63.7223 109.229 64.0095C109.447 64.2793 109.722 64.4956 110.034 64.6422C110.366 64.7969 110.728 64.8753 111.093 64.8718H111.117Z" fill="#146ABA"/>
<path d="M122.02 65.6789H117.219V57.677H118.405V64.5642H122.02V65.6789Z" fill="#146ABA"/>
<path d="M128.137 57.3569C128.672 57.3511 129.202 57.4584 129.694 57.6719C130.156 57.8742 130.569 58.1756 130.904 58.5556C131.254 58.9527 131.522 59.4164 131.693 59.9197C132.065 61.0659 132.065 62.3027 131.693 63.4489C131.521 63.9511 131.253 64.4138 130.904 64.8104C130.568 65.1891 130.154 65.4888 129.691 65.6887C129.198 65.8991 128.667 66.0045 128.131 65.9983C127.581 66.0066 127.036 65.8946 126.532 65.67C126.071 65.4603 125.658 65.1537 125.322 64.7703C124.983 64.3803 124.722 63.9269 124.554 63.4355C124.374 62.9077 124.285 62.3523 124.291 61.7938C124.282 61.1593 124.377 60.5278 124.572 59.9251C124.741 59.4123 125.009 58.9393 125.361 58.5342C125.701 58.1581 126.116 57.8612 126.579 57.6639C127.073 57.4574 127.603 57.353 128.137 57.3569ZM128.137 64.8718C128.499 64.8763 128.858 64.8007 129.189 64.6502C129.496 64.5044 129.766 64.2888 129.978 64.0202C130.209 63.7237 130.38 63.3846 130.483 63.0218C130.608 62.588 130.671 62.1387 130.673 61.687C130.679 61.2307 130.617 60.776 130.488 60.3388C130.379 59.972 130.2 59.6303 129.962 59.3324C129.749 59.0661 129.48 58.8525 129.173 58.7077C128.85 58.5586 128.499 58.4838 128.145 58.4888C127.784 58.4831 127.426 58.5512 127.092 58.689C126.777 58.8219 126.497 59.0297 126.277 59.295C126.035 59.6001 125.856 59.9514 125.751 60.3282C125.615 60.8078 125.55 61.3054 125.559 61.8044C125.554 62.2234 125.615 62.6405 125.738 63.0404C125.846 63.3934 126.019 63.7223 126.248 64.0095C126.466 64.2793 126.741 64.4956 127.053 64.6422C127.389 64.7987 127.754 64.8772 128.124 64.8718H128.137Z" fill="#146ABA"/>
<path d="M141.603 64.7305C140.659 65.5454 139.47 65.994 138.239 65.9985C137.684 66.0048 137.132 65.9006 136.614 65.6915C136.138 65.4978 135.707 65.2021 135.349 64.8239C134.989 64.4344 134.711 63.9728 134.532 63.4678C134.332 62.9027 134.234 62.3047 134.242 61.7032C134.231 61.1069 134.319 60.513 134.501 59.9467C134.666 59.4398 134.931 58.9729 135.277 58.5746C135.627 58.1854 136.055 57.8802 136.532 57.6803C137.069 57.4574 137.644 57.3475 138.224 57.3573C140.009 57.3573 141.091 58.1528 141.471 59.7438L140.363 60.0108C140.077 58.9999 139.351 58.4936 138.185 58.4918C137.783 58.4836 137.384 58.5618 137.013 58.7214C136.688 58.865 136.4 59.0853 136.172 59.3648C135.934 59.657 135.758 59.997 135.654 60.3632C135.425 61.2281 135.43 62.1413 135.67 63.0033C135.775 63.3687 135.951 63.7083 136.187 64.0017C136.417 64.271 136.704 64.4813 137.026 64.6157C137.383 64.7619 137.765 64.8336 138.149 64.8266C138.954 64.8305 139.74 64.5696 140.392 64.0818V62.7123H138.107V61.5057H141.567L141.603 64.7305Z" fill="#146ABA"/>
<path d="M144.833 65.6794H143.872V57.6775H144.833V65.6794Z" fill="#146ABA"/>
<path d="M153.184 65.6794H147.102V57.6775H152.989V58.805H148.345V60.9782H152.682V62.1032H148.345V64.5519H153.179L153.184 65.6794Z" fill="#146ABA"/>
<path d="M160.423 59.9985C160.414 59.7838 160.364 59.573 160.276 59.3787C160.188 59.1845 160.063 59.0106 159.909 58.8676C159.539 58.5809 159.083 58.4406 158.623 58.4719C158.395 58.4691 158.167 58.4951 157.945 58.5494C157.753 58.593 157.57 58.6698 157.402 58.7767C157.258 58.8707 157.136 58.9967 157.045 59.1456C156.96 59.2932 156.916 59.4627 156.919 59.6349C156.909 59.7896 156.943 59.944 157.016 60.0792C157.089 60.2145 157.198 60.3248 157.33 60.3969C157.53 60.5104 157.741 60.6001 157.96 60.6642C158.298 60.7723 158.641 60.8615 158.988 60.9316C159.4 61.0305 159.78 61.1401 160.13 61.2578C160.454 61.3621 160.76 61.5191 161.037 61.723C161.29 61.9088 161.495 62.1556 161.636 62.4422C161.79 62.7754 161.865 63.1421 161.854 63.5116C161.857 63.8589 161.782 64.2021 161.636 64.5142C161.492 64.8197 161.285 65.0882 161.029 65.3002C160.751 65.5296 160.435 65.7037 160.096 65.8136C159.708 65.9406 159.303 66.0028 158.896 65.998C158.398 66.0068 157.902 65.9365 157.425 65.7895C157.038 65.6723 156.677 65.4759 156.364 65.212C156.082 64.9703 155.859 64.6637 155.711 64.3163C155.556 63.9499 155.469 63.5562 155.454 63.156L156.621 63.0678C156.632 63.3479 156.703 63.6219 156.829 63.8698C156.948 64.0943 157.112 64.2895 157.31 64.442C157.515 64.598 157.746 64.7131 157.991 64.7815C158.258 64.8569 158.534 64.8938 158.811 64.8912C159.067 64.8949 159.322 64.8635 159.569 64.7976C159.778 64.7443 159.976 64.6539 160.155 64.5302C160.309 64.4193 160.436 64.274 160.528 64.1051C160.617 63.9363 160.662 63.7466 160.659 63.5544C160.662 63.3834 160.632 63.2135 160.572 63.0544C160.493 62.8925 160.372 62.7571 160.222 62.6641C159.996 62.5197 159.751 62.4091 159.495 62.3352C159.184 62.2336 158.775 62.1267 158.274 62.0144C157.88 61.9278 157.495 61.8016 157.125 61.6374C156.842 61.5119 156.582 61.3384 156.354 61.1241C156.16 60.9427 156.009 60.719 155.909 60.469C155.815 60.213 155.768 59.941 155.77 59.667C155.766 59.3471 155.833 59.0307 155.965 58.7419C156.098 58.4567 156.291 58.2069 156.531 58.012C156.796 57.7963 157.096 57.6331 157.418 57.5308C157.797 57.4107 158.191 57.3521 158.587 57.357C158.994 57.3535 159.399 57.4111 159.79 57.5281C160.132 57.6283 160.451 57.7962 160.731 58.0227C160.994 58.2387 161.207 58.5126 161.356 58.8248C161.513 59.1585 161.6 59.5229 161.613 59.8942L160.423 59.9985Z" fill="#146ABA"/>
<path d="M168.778 57.6782H171.656C172.096 57.6703 172.536 57.7256 172.962 57.8427C173.291 57.9317 173.597 58.0976 173.858 58.3281C174.092 58.5417 174.27 58.8158 174.375 59.1239C174.591 59.8127 174.591 60.5572 174.375 61.246C174.271 61.5654 174.1 61.8556 173.876 62.0948C173.629 62.3524 173.333 62.5497 173.007 62.6731C172.601 62.8249 172.172 62.8969 171.741 62.8853H169.959V65.9995H168.775L168.778 57.6782ZM169.961 61.7102H171.566C172.028 61.744 172.489 61.6254 172.884 61.3707C173.038 61.2354 173.159 61.0623 173.236 60.8662C173.312 60.6702 173.342 60.4573 173.324 60.246C173.333 60.0098 173.29 59.7747 173.199 59.5589C173.122 59.3843 173 59.2363 172.847 59.1319C172.676 59.0179 172.485 58.9429 172.285 58.9117C172.038 58.8667 171.787 58.8454 171.536 58.848H169.959L169.961 61.7102Z" fill="#146ABA"/>
<path d="M184.102 57.7039L181.031 65.9995H179.731L176.741 57.7039H178.075L180.111 63.7253L180.204 63.9897C180.23 64.0717 180.254 64.1537 180.277 64.233C180.301 64.3123 180.319 64.3943 180.337 64.4737C180.355 64.553 180.373 64.6429 180.397 64.7381C180.431 64.5662 180.472 64.3996 180.517 64.233C180.561 64.0664 180.615 63.8945 180.68 63.7041L182.831 57.6775L184.102 57.7039Z" fill="#146ABA"/>
<path d="M192.708 58.8459H190.107V65.9995H188.879V58.8459H186.306V57.6775H192.708V58.8459Z" fill="#146ABA"/>
<path d="M194.912 65.9993V64.3989H196.192V65.9993H194.912Z" fill="#146ABA"/>
<path d="M207.913 65.9995H203.112V57.6775H204.299V64.8402H207.913V65.9995Z" fill="#146ABA"/>
<path d="M216.519 58.8459H213.919V65.9995H212.69V58.8459H210.117V57.6775H216.519V58.8459Z" fill="#146ABA"/>
<path d="M218.723 57.6775H221.592C222.879 57.6775 223.842 58.0162 224.482 58.6935C225.122 59.3709 225.443 60.4029 225.445 61.7894C225.445 63.1795 225.133 64.2291 224.511 64.9383C223.888 65.6475 222.955 66.0012 221.712 65.9995H218.723V57.6775ZM219.962 64.8402H221.584C221.991 64.85 222.396 64.7862 222.781 64.6518C223.096 64.54 223.375 64.3461 223.593 64.0894C223.814 63.8076 223.97 63.4784 224.049 63.1264C224.15 62.6766 224.197 62.2162 224.19 61.7549C224.2 61.2947 224.144 60.8355 224.026 60.3914C223.932 60.0552 223.76 59.7468 223.525 59.492C223.295 59.2591 223.01 59.0893 222.698 58.9986C222.322 58.8916 221.933 58.8407 221.542 58.8474H219.977L219.962 64.8402Z" fill="#146ABA"/>
<path d="M227.648 65.9993V64.3989H228.928V65.9993H227.648Z" fill="#146ABA"/>
<defs>
<linearGradient id="paint0_linear_2071_3038" x1="60.0144" y1="37.8457" x2="9.48764" y2="59.0112" gradientUnits="userSpaceOnUse">
<stop offset="0.13" stop-color="#008AD1"/>
<stop offset="0.27" stop-color="#0481CA"/>
<stop offset="0.5" stop-color="#0F6AB8"/>
<stop offset="0.79" stop-color="#20459B"/>
<stop offset="1" stop-color="#2F2482"/>
</linearGradient>
<linearGradient id="paint1_linear_2071_3038" x1="-14.4575" y1="27.8904" x2="71.8576" y2="-1.85928" gradientUnits="userSpaceOnUse">
<stop offset="0.06" stop-color="#009DE2"/>
<stop offset="0.23" stop-color="#0B81CC"/>
<stop offset="0.5" stop-color="#185EB0"/>
<stop offset="0.72" stop-color="#21489E"/>
<stop offset="0.86" stop-color="#244098"/>
</linearGradient>
<linearGradient id="paint2_linear_2071_3038" x1="1.85983" y1="30.0684" x2="36.0283" y2="48.0962" gradientUnits="userSpaceOnUse">
<stop stop-color="#E2000F"/>
<stop offset="0.13" stop-color="#E5120E"/>
<stop offset="0.38" stop-color="#EC430A"/>
<stop offset="0.74" stop-color="#F68F04"/>
<stop offset="1" stop-color="#FFCB00"/>
</linearGradient>
</defs>
</svg>
