<?xml version="1.0" encoding="utf-8"?>
<!-- Generator: Adobe Illustrator 26.0.2, SVG Export Plug-In . SVG Version: 6.00 Build 0)  -->
<svg version="1.1" xmlns="http://www.w3.org/2000/svg" xmlns:xlink="http://www.w3.org/1999/xlink" x="0px" y="0px"
	 viewBox="0 0 391.93 367.62" style="enable-background:new 0 0 391.93 367.62;" xml:space="preserve">
<style type="text/css">
	.st0{display:none;}
	.st1{display:inline;}
	.st2{fill-rule:evenodd;clip-rule:evenodd;fill:url(#SVGID_1_);}
	.st3{fill-rule:evenodd;clip-rule:evenodd;fill:url(#SVGID_00000094586012018901297520000001946496283734574755_);}
	.st4{fill-rule:evenodd;clip-rule:evenodd;fill:url(#SVGID_00000133486741942123147960000014058524570803173253_);}
	.st5{fill-rule:evenodd;clip-rule:evenodd;fill:#E2000F;}
	.st6{fill:#E30613;}
	.st7{fill-rule:evenodd;clip-rule:evenodd;fill:url(#SVGID_00000014598900721757233340000001466186233541856446_);}
	.st8{fill-rule:evenodd;clip-rule:evenodd;fill:url(#SVGID_00000003802560938324865830000012250946284761585069_);}
	.st9{fill-rule:evenodd;clip-rule:evenodd;fill:url(#SVGID_00000078750608980380933310000012308762656113111991_);}
	.st10{fill-rule:evenodd;clip-rule:evenodd;fill:none;stroke:#1D1D1B;stroke-width:0.25;stroke-miterlimit:10;}
	.st11{fill-rule:evenodd;clip-rule:evenodd;fill:#009DE2;}
	.st12{fill-rule:evenodd;clip-rule:evenodd;fill:url(#SVGID_00000105425848744051982260000004037997796627243967_);}
	.st13{fill-rule:evenodd;clip-rule:evenodd;fill:url(#SVGID_00000182530483129031208010000013017083539565334194_);}
	.st14{fill-rule:evenodd;clip-rule:evenodd;fill:url(#SVGID_00000072245177635318890030000012720146059786481839_);}
	.st15{fill-rule:evenodd;clip-rule:evenodd;fill:url(#SVGID_00000014633989180776631370000014945005673271062400_);}
	.st16{fill-rule:evenodd;clip-rule:evenodd;fill:url(#SVGID_00000059306351973630353010000011105928999153543583_);}
	.st17{fill-rule:evenodd;clip-rule:evenodd;fill:url(#SVGID_00000153685179849921033850000004197077870984890556_);}
	.st18{fill:#146ABA;}
	.st19{fill:#E2000F;}
</style>
<g id="xyz" class="st0">
	<g class="st1">
		<g>
			<g>
				<linearGradient id="SVGID_1_" gradientUnits="userSpaceOnUse" x1="42.1694" y1="-205.2653" x2="85.6168" y2="-247.9258">
					<stop  offset="0" style="stop-color:#2F2482"/>
					<stop  offset="1" style="stop-color:#008AD1"/>
				</linearGradient>
				<path class="st2" d="M92.14-254.71c0,18.05-20.7,18.81-20.7,18.81c-2.01,0.13-3.76,1.25-4.74,2.89
					c-0.55,0.9-0.86,1.96-0.86,3.09v21.97c0,11.42-7.2,21.15-17.3,24.91c-9.98-3.72-17.13-13.26-17.29-24.5
					c0.23,4.38,3.94,7.83,8.41,7.61c4.33-0.21,7.63-4.01,7.63-8.34l0-23.68c0-1.93,0.14-3.86,0.56-5.74
					c0.96-4.31,2.88-7.63,5.43-10.19C64.27-258.98,86.76-255.69,92.14-254.71z"/>
				
					<linearGradient id="SVGID_00000023245352786148948280000010079825740021193623_" gradientUnits="userSpaceOnUse" x1="-4.2481" y1="-279.325" x2="138.253" y2="-248.7601">
					<stop  offset="0" style="stop-color:#009DE2"/>
					<stop  offset="1" style="stop-color:#2F2482"/>
				</linearGradient>
				<path style="fill-rule:evenodd;clip-rule:evenodd;fill:url(#SVGID_00000023245352786148948280000010079825740021193623_);" d="
					M95.06-289.08v6.18h-4.27v6.19h-4.28v6.18H6.69c-0.14,0-0.28,0-0.41,0.01c-11.62,0.19-21.28,8.46-23.6,19.44
					c-1.65-3.46-2.57-7.33-2.57-11.42c0-16.92,14.7-26.58,26.58-26.58H95.06z"/>
				
					<linearGradient id="SVGID_00000060730548274568812720000007986283465388546737_" gradientUnits="userSpaceOnUse" x1="-16.6027" y1="-244.9198" x2="43.8315" y2="-213.0349">
					<stop  offset="0" style="stop-color:#E2000F"/>
					<stop  offset="0.1266" style="stop-color:#E5120E"/>
					<stop  offset="0.3822" style="stop-color:#EC430A"/>
					<stop  offset="0.7397" style="stop-color:#F68F04"/>
					<stop  offset="1" style="stop-color:#FFCB00"/>
				</linearGradient>
				<path style="fill-rule:evenodd;clip-rule:evenodd;fill:url(#SVGID_00000060730548274568812720000007986283465388546737_);" d="
					M48.54-183.04c-2.89,1.08-6.02,1.67-9.28,1.67c-14.07,0-26.51-10.9-26.51-24.77c0-0.51-0.06-23.92-0.07-23.98
					c-0.1-3.23-2.74-5.8-5.99-5.8c-7.79,0-14.8-3.35-19.66-8.69v-0.01c-1.76-1.92-3.22-4.09-4.35-6.46
					c2.32-10.98,11.98-19.25,23.6-19.44c-4.24,0.22-7.61,3.72-7.61,8.02c0,4.43,3.59,8.02,8.02,8.02c8.05,0,15.2,3.87,19.67,9.86
					c1.5,2,2.7,4.25,3.53,6.66c0.53,1.52,0.91,3.1,1.12,4.74c0.16,1.07,0.23,2.17,0.23,3.29v21.98c0,0.14,0,0.27,0.01,0.41
					C31.41-196.3,38.56-186.76,48.54-183.04z"/>
			</g>
			<rect x="98.09" y="-289.61" class="st5" width="4.86" height="4.86"/>
			<rect x="94.97" y="-281.55" class="st5" width="4.86" height="4.86"/>
			<rect x="90.88" y="-274.1" class="st5" width="4.86" height="4.86"/>
			<rect x="102.05" y="-275.4" class="st5" width="4.18" height="4.18"/>
			<rect x="105.38" y="-283.58" class="st5" width="4.18" height="4.18"/>
			<rect x="107.47" y="-292.34" class="st5" width="4.18" height="4.18"/>
			<rect x="114.8" y="-285.42" class="st5" width="3.22" height="3.43"/>
			<rect x="117.44" y="-295.2" class="st5" width="3.22" height="3.43"/>
			<rect x="120.5" y="-288.88" class="st5" width="3.22" height="3.43"/>
			<rect x="125.5" y="-298.1" class="st5" width="3.22" height="3.43"/>
			<rect x="110.89" y="-278" class="st5" width="3.22" height="3.43"/>
		</g>
		<g>
			<path class="st6" d="M-126.09-166.47v6.21h14.76v21.8h7.18v-21.8h14.73v-6.21H-126.09z"/>
			<path class="st6" d="M-60.52-148.91c4.16-0.4,6.7-2.22,7.59-5.47c0.25-0.9,0.38-1.9,0.38-3.01c0-3.01-0.92-5.27-2.75-6.8
				c-1.83-1.52-4.24-2.28-7.24-2.28h-22.01v6.21H-63c0.99,0,1.77,0.26,2.32,0.79c0.55,0.53,0.83,1.22,0.83,2.08
				c0,2.01-1.05,3.01-3.15,3.01h-21.55v15.92h7.12v-10.39l9.7,0.04l7.61,10.35h8.18L-60.52-148.91z"/>
			<path class="st6" d="M-15.32-160.26v-6.21h-31.76v28.01h31.76v-6.19h-24.64v-5.22h20.36v-5.59h-20.36v-4.8H-15.32z"/>
			<path class="st6" d="M21.57-166.47v19.69l-8.89-7.6l-14.14-12.09h-8.09v28.01h7.12v-18.93l3.67,3.01l19.41,15.92h8.01v-28.01
				H21.57z"/>
			<path class="st6" d="M69.62-159.93c-1.7-2.12-4.04-3.74-7.04-4.86c-2.99-1.12-6.42-1.68-10.29-1.68H36.72v6.21h16.45
				c3.91,0,6.78,0.74,8.62,2.24c1.83,1.49,2.72,3.34,2.66,5.55c-0.1,5.21-4.36,7.82-12.78,7.82h-5.93c-1.27,0-1.9-0.81-1.9-2.41
				v-7.32h-7.12v15.92h15.57c3.87,0,7.3-0.56,10.29-1.68c3-1.12,5.34-2.74,7.04-4.87c1.69-2.12,2.53-4.61,2.53-7.46
				C72.15-155.32,71.31-157.81,69.62-159.93z"/>
			<path class="st6" d="M110.69-151.84c-1-1.29-2.29-2.2-3.86-2.72c-1.58-0.52-3.33-0.89-5.26-1.1c-1.92-0.22-3.84-0.32-5.76-0.32
				c-1.91,0-3.67-0.04-5.26-0.1c-1.59-0.07-2.88-0.3-3.87-0.69c-0.99-0.4-1.49-1.03-1.49-1.89c-0.02-1.07,0.61-1.85,1.87-2.36
				s3.57-0.76,6.91-0.76c2.49,0,5.25,0.34,8.28,1.04c3.04,0.7,5.16,1.71,6.36,3.04h2.08v-7.36c-2.87-0.99-5.6-1.67-8.21-2.05
				c-2.6-0.37-5.65-0.55-9.15-0.55c-10.35,0-15.52,3.06-15.52,9.2c0,2,0.48,3.66,1.46,4.96c0.97,1.3,2.24,2.22,3.8,2.77
				c1.57,0.55,3.29,0.94,5.18,1.18c1.88,0.24,3.77,0.36,5.65,0.34c1.89-0.01,3.61,0.01,5.17,0.06c1.55,0.05,2.82,0.26,3.8,0.61
				c0.98,0.35,1.47,0.91,1.47,1.68c-0.01,2.45-2.84,3.67-8.5,3.67c-4.57,0-8.22-0.48-10.94-1.44c-2.73-0.95-5.07-2.28-7.01-3.99
				l-0.43,6.91c1.8,1.35,4.23,2.42,7.27,3.23c3.04,0.8,6.53,1.21,10.46,1.21c3.75,0,6.85-0.3,9.28-0.9c2.43-0.6,4.33-1.62,5.69-3.06
				c1.35-1.44,2.03-3.33,2.03-5.67C112.19-148.91,111.69-150.55,110.69-151.84z"/>
			<path class="st6" d="M153.06-163.4c-3.83-2.84-8.72-4.26-14.69-4.26c-5.97,0-10.87,1.42-14.69,4.26
				c-3.82,2.83-5.73,6.48-5.73,10.93c0,4.46,1.91,8.1,5.73,10.94c3.82,2.84,8.72,4.26,14.69,4.26c5.97,0,10.86-1.42,14.69-4.26
				c3.82-2.84,5.73-6.48,5.73-10.94C158.79-156.92,156.88-160.57,153.06-163.4z M147.4-145.98c-2.46,1.68-5.68,2.52-9.67,2.52
				c-3.83,0-6.79-0.8-8.88-2.39c-2.08-1.59-3.12-3.73-3.12-6.42c0-2.78,1.21-5,3.65-6.68c2.43-1.68,5.64-2.52,9.63-2.52
				c3.79,0,6.75,0.8,8.88,2.4c2.13,1.6,3.19,3.74,3.17,6.41C151.08-149.89,149.86-147.66,147.4-145.98z"/>
			<path class="st6" d="M195.86-160.26v-6.21h-31.15v28.01h7.12v-9.2h20.21v-6.19h-20.21v-6.41H195.86z"/>
			<path class="st6" d="M198.42-166.47v6.21h14.76v21.8h7.18v-21.8h14.73v-6.21H198.42z"/>
		</g>
		<text transform="matrix(0.9245 0 0 1 -65.0384 -112.3068)" style="fill:#009DE2; font-family:'ArialMT'; font-size:24.9187px;">technologies pvt. ltd</text>
	</g>
	<g class="st1">
		
			<linearGradient id="SVGID_00000101786510448369147800000015315363532288423069_" gradientUnits="userSpaceOnUse" x1="493.6221" y1="-165.0047" x2="542.6859" y2="-201.0648">
			<stop  offset="0" style="stop-color:#2F2482"/>
			<stop  offset="1" style="stop-color:#008AD1"/>
		</linearGradient>
		<path style="fill-rule:evenodd;clip-rule:evenodd;fill:url(#SVGID_00000101786510448369147800000015315363532288423069_);" d="
			M545.47-212.53c0,18.05-20.7,18.81-20.7,18.81c-2.01,0.13-3.76,1.25-4.74,2.89c-0.55,0.9-0.86,1.96-0.86,3.09v21.97
			c0,11.42-7.2,21.15-17.3,24.91c-9.98-3.72-17.13-13.26-17.29-24.5c0.23,4.38,3.94,7.83,8.41,7.61c4.33-0.21,7.63-4.01,7.63-8.34
			v-23.68c0-1.93,0.14-3.86,0.56-5.74c0.96-4.31,2.88-7.63,5.43-10.19C517.6-216.8,540.09-213.51,545.47-212.53z"/>
		
			<linearGradient id="SVGID_00000063633818123045082510000010458400936425268900_" gradientUnits="userSpaceOnUse" x1="433.5959" y1="-226.4442" x2="578.7104" y2="-241.8698">
			<stop  offset="0" style="stop-color:#009DE2"/>
			<stop  offset="1" style="stop-color:#2F2482"/>
		</linearGradient>
		<path style="fill-rule:evenodd;clip-rule:evenodd;fill:url(#SVGID_00000063633818123045082510000010458400936425268900_);" d="
			M548.39-246.9v6.18h-4.27v6.19h-4.28v6.18h-79.82c-0.14,0-0.28,0-0.41,0.01c-11.62,0.19-21.28,8.46-23.6,19.44
			c-1.65-3.46-2.57-7.33-2.57-11.42c0-2.8,0.43-5.5,1.23-8.03c3.41-10.76,13.47-18.55,25.35-18.55H548.39z"/>
		
			<linearGradient id="SVGID_00000043439718462084968860000007848185785595887251_" gradientUnits="userSpaceOnUse" x1="439.4147" y1="-217.8297" x2="489.4393" y2="-162.4748">
			<stop  offset="0" style="stop-color:#E2000F"/>
			<stop  offset="0.1266" style="stop-color:#E5120E"/>
			<stop  offset="0.3822" style="stop-color:#EC430A"/>
			<stop  offset="0.7397" style="stop-color:#F68F04"/>
			<stop  offset="1" style="stop-color:#FFCB00"/>
		</linearGradient>
		<path style="fill-rule:evenodd;clip-rule:evenodd;fill:url(#SVGID_00000043439718462084968860000007848185785595887251_);" d="
			M501.87-140.86c-2.89,1.08-6.02,1.67-9.28,1.67c-14.07,0-25.59-10.93-26.51-24.77c-0.05-0.6-0.06-23.92-0.07-23.98
			c-0.1-3.23-2.74-5.8-5.99-5.8c-7.79,0-14.8-3.35-19.66-8.69v-0.01c-1.76-1.92-3.22-4.09-4.35-6.46
			c2.32-10.98,11.98-19.25,23.6-19.44c-4.24,0.22-7.61,3.72-7.61,8.02c0,4.43,3.59,8.02,8.02,8.02c8.05,0,15.2,3.87,19.67,9.86
			c1.5,2,2.7,4.25,3.53,6.66c0.53,1.52,0.91,3.1,1.12,4.74c0.16,1.07,0.23,2.17,0.23,3.29v21.98c0,0.14,0,0.27,0.01,0.41
			C484.74-154.12,491.89-144.58,501.87-140.86z"/>
		<rect x="551.42" y="-247.44" class="st5" width="4.86" height="4.86"/>
		<rect x="548.3" y="-239.37" class="st5" width="4.86" height="4.86"/>
		<rect x="544.22" y="-231.93" class="st5" width="4.86" height="4.86"/>
		<rect x="555.38" y="-233.22" class="st5" width="4.18" height="4.18"/>
		<rect x="558.71" y="-241.4" class="st5" width="4.18" height="4.18"/>
		<rect x="560.8" y="-250.17" class="st5" width="4.18" height="4.18"/>
		<rect x="568.13" y="-243.25" class="st5" width="3.22" height="3.43"/>
		<rect x="570.77" y="-253.02" class="st5" width="3.22" height="3.43"/>
		<rect x="573.83" y="-246.7" class="st5" width="3.22" height="3.43"/>
		<rect x="578.83" y="-255.93" class="st5" width="3.22" height="3.43"/>
		<rect x="564.22" y="-235.82" class="st5" width="3.22" height="3.43"/>
	</g>
	<g class="st1">
		<path class="st10" d="M411.92-209.3c-3.17,11.12-13.4,19.25-25.54,19.25c-2.18,0-4.09,1.16-5.14,2.91
			c-0.55,0.9-0.86,1.96-0.86,3.09v21.97c0,11.42-7.2,21.15-17.3,24.91c-9.98-3.72-17.13-13.26-17.29-24.5
			c0.22,4.25,3.72,7.62,8.01,7.62c4.44,0,8.03-3.59,8.03-8.03v-25.35c0,0,0-6.15,4.11-12.22
			C371.27-207.57,383.57-215.38,411.92-209.3z"/>
		<path class="st10" d="M409.6-243.21v6.18h-4.27v6.19h-4.28v6.18h-79.82c-0.14,0-0.28,0-0.41,0.01
			c-11.62,0.19-21.28,8.46-23.6,19.44c-1.65-3.46-2.57-7.33-2.57-11.42c0-2.8,0.43-5.5,1.23-8.03
			c3.41-10.76,13.47-18.55,25.35-18.55H409.6z"/>
		<path class="st10" d="M363.08-137.17c-2.89,1.08-6.02,1.67-9.28,1.67c-14.07,0-25.59-10.93-26.51-24.77
			c-0.05-0.6-0.07-1.2-0.07-1.81v-21.77c0.01-0.06,0.01-0.13,0.01-0.2c0-0.07,0-0.14-0.01-0.2c-0.1-3.23-2.74-5.8-5.99-5.8
			c-7.79,0-14.8-3.35-19.66-8.69v-0.01c-1.76-1.92-3.22-4.09-4.35-6.46c2.32-10.98,11.98-19.25,23.6-19.44
			c-4.24,0.22-7.61,3.72-7.61,8.02c0,4.43,3.59,8.02,8.02,8.02c8.05,0,15.2,3.87,19.67,9.86c1.5,2,2.7,4.25,3.53,6.66
			c0.53,1.52,0.91,3.1,1.12,4.74c0.16,1.07,0.23,2.17,0.23,3.29v21.98c0,0.14,0,0.27,0.01,0.41
			C345.95-150.43,353.1-140.89,363.08-137.17z"/>
	</g>
</g>
<g id="old_logo" class="st0">
	<g class="st1">
		<g>
			<g>
				<path class="st5" d="M298.97,238.44c-0.79,5.36-6.66,7.62-12.75,6.94c-5.67-0.64-10.34-3.85-9.16-10.31
					c0.44-2.38,1.23-3.29,2.7-4.65c0.75-0.7,0.63-0.37,1.57-0.9c2.21-1.24,5.41-1.49,8.36-1.24
					C295.23,228.75,299.88,232.26,298.97,238.44L298.97,238.44z M277.77,224.51c-0.2,0.79-0.33,0.64-1.13,0.94
					c-0.65,0.24-0.96,0.8-1.54,1.17c-0.47,0.3-0.47,0.1-1.07,0.8c-1,1.17-1.24,1.49-1.99,2.78l-0.54,0.91
					c-0.68,1.25-0.1,1.23-0.5,1.91c-0.1,0.17-0.33,0-0.44,1.21c-0.05,0.55-0.17,1.12-0.22,1.63c-0.08,0.82,0.1,3.14,0.41,4.23
					l0.15,0.68c0.14,0.54,0.33,0.88,0.56,1.3l1.75,3c0.67,0.68,1.88,1.46,2.57,2.22c0.6,0.66,1.63,0.93,2.44,1.33l1.21,0.63
					c0.64,0.23,0.73,0.38,1.32,0.53c3.85,1,8.19,1.32,12.22,0.63c1.09-0.19,2.08-0.65,3.35-0.68c1.27,0.11,4.74-2.22,5.53-2.88
					c5.3-4.44,5.93-12.65,1.61-18.11c-4.21-5.32-12.28-6.86-19.26-6.03C282.58,222.88,278.64,223.71,277.77,224.51L277.77,224.51z
					 M114.32,244.45l-0.07-5.08c0.11-0.81,0.5-0.63,2.21-0.64c3.66-0.01,17.5,0.12,19.81-0.14c0.31-0.82,0.2-0.05,0.31-0.63
					c0.04-0.22,0.01-0.84,0.01-1.11c0-0.78,0.05-1.54-0.01-2.32c0.26,0.19-0.35-0.06-0.39-0.07c-1.46-0.46-20.87-0.06-21.84,0.02
					c-0.36-0.48-0.43-0.55-0.44-1.39c-0.04-2.12-0.31-3.86,0.45-4.84c2.08-0.08,4.09,0.05,6.15,0.06
					c2.11,0.01,16.34,0.14,17.62-0.16c0.53-0.13,0.95,0.01,1.43-0.03c0.18-1.54,0.05-3.19-0.09-4.57l-30.67,0.13
					c-0.65,1.53-0.58-0.25-0.58,2.9c0,1.23,0.21,2.13,0.23,3.18c0.02,0.76,0,0.97-0.17,1.54c-0.24,0.79,0,0.73,0.03,1.51
					c0.03,0.93-0.22,1.31-0.03,3.23c0.29,2.97-0.05,9.55,0.08,13.27c2.51,0.28,19.98-0.08,24.02-0.07c1.31,0,7.3,0.25,7.97-0.23
					c0.31-0.63,0.21-3.28,0.03-3.97c-1.42-0.53-18.8-0.2-23.03-0.22l-2.46,0.01C114.28,244.7,114.54,244.87,114.32,244.45
					L114.32,244.45z M241.56,222.87c-1.61-0.2-3.47,1.02-4.83,1.27c0.56,0.23,0.06-0.27,0.42,0.35l-3.39,1.85
					c0.13,0.9-0.28,0.16-1.12,1.79c-0.07,0.14-0.1,0.24-0.13,0.3c-0.21,0.38,0.06,0.07-0.27,0.28c-0.99,0.67-0.75,3.01-0.64,3.33
					l0.98,1.29c0.07,0.08,0.18,0.08,0.39,0.33c-0.03,0.01-0.07,0.02-0.08,0.02c-0.01,0-0.07,0.02-0.08,0.02l-0.17,0.04
					c-0.02,0-0.07,0.02-0.09,0.02l-0.18,0.04c0.42,0.82,0.73,1.07,1.42,1.66l0.59,0.54c0.57,0.61,0.53,0.43,0.73,0.99l-0.64-0.07
					c1.57,0.34,1.73,0.98,5.47,1.3c4.18,0.35,9.86,0.21,13.35,0.7c1.79,0.25,4.49,0.75,4.3,2.83c-0.28,2.95-7.69,3.46-10.72,3.32
					c-2.31-0.1-4.18-0.25-6.38-0.67c-0.95-0.18-1.82-0.42-2.78-0.7c-0.94-0.27-1.9-0.78-2.7-0.92c-0.41,0.03-0.41-0.02-0.71,0.16
					c-0.02,0.01-0.44,0.52-0.45,0.53c-0.42,0.72-0.17,1.2-0.65,1.68c-0.55,0.56-0.96,1.18-0.94,2.11c0.74,0.34,1.51,0.6,2.35,0.93
					c0.7,0.27,0.54,0.18,1.36,0.39c0.56,0.14,0.48,0.33,1.28,0.47l5.17,0.86c0.98,0.27,0.46-0.06,0.6,0.46
					c3.19,0.94,11.84,0.05,14.67-1.4c2.75-1.4,5.42-3.25,6.1-6.43c0.36-1.69,0.05-2.43-0.28-3.91c-1.27-2.01-1.57-2.5-3.99-3.6
					c-3.5-1.6-12.87-1.13-17.3-1.43c-0.59-0.04-1.19-0.1-1.74-0.17c-0.31-0.04-0.61-0.07-0.91-0.15l-0.48-0.25
					c-2.07-0.63-1.73-2.62-0.87-3.51c2.96-3.05,12.19-1.24,14.17-1.41c0.8-0.19,3.6,0.36,4.42,0.51c0.98,0.18,2.54,1,3.72,0.92
					c0.84-0.95,0.4-1.04,0.87-2c0.22-0.44,0.57-0.93,0.69-1.98c-0.64-0.43-1.4-0.6-2.11-0.85l-4.5-1.38
					c-2.54-0.43-8.82-0.88-11.22-0.57C243.49,222.87,242.42,223.09,241.56,222.87L241.56,222.87z M98.45,248.56
					c-0.04-0.86-1.42-3.1-1.89-4.11c-0.37-0.81-1.9-3.48-1.91-4.27c0.43-0.22,0.95-0.32,1.41-0.6c1.53-0.93,2.21-1.79,2.97-3.38
					c0.49-1.02,0.67-2.24,0.67-3.55c0.01-1.75-0.43-2.44-0.53-3.9c-0.32-0.08-0.55-0.82-0.83-1.27c-0.33-0.53-0.7-0.9-1.13-1.33
					c-0.55-0.56-2.16-1.7-3.01-1.67c-1.21-0.03-1.69-0.39-3.05-0.49c-0.9-0.06-2.4-0.28-3.33-0.27c-2.36,0.03-4.73-0.02-7.09,0
					c-2.43,0.02-4.47,0.21-6.94,0.17c-2.17-0.03-4.88-0.16-7-0.02c-0.15,0.3-0.05,0.16-0.31,0.33l0,4.6
					c1.09,0.45,13.41,0.2,14.83,0.19l9.56-0.01c0.74,0.04,1.32,0.58,1.77,1.03c0.24,0.24,0.29,0.25,0.53,0.48
					c0.6,0.56,0.61,3.39-0.53,4.38c-1.36,1.18,0.08,0.5-1.93,0.93c-0.38,0.08-0.4,0.16-0.79,0.24l-22.92-0.02
					c-0.51,1.25-0.28,4.89-0.25,6.61c0.04,2.1-0.22,5.04,0.03,7.02c0.94,0.3,5.23,0.35,6.23-0.02c0.25-2.12-0.31-8,0.34-8.57
					c0.81-0.49,5.14-0.19,6.8-0.21l7.14-0.15c1.33,0.15,1.38,1.14,1.52,1.51c0.23,0.58,0.3,0.59,0.49,1.39l1.93,3.72
					c0.32,0.51,0.1-0.02,0.32,0.55c0.11,0.27,0.13,0.47,0.25,0.77c0.21,0.53,0.34,0.74,0.64,1.12l6.08-0.01L98.45,248.56
					L98.45,248.56z M174.83,241.25c-0.54,0.14-3.68-3.11-4.06-3.49c-1.49-1.47-11.76-11.22-12.08-11.33l-1.83-1.36
					c-0.59-0.59,0.03-0.36-0.78-0.68c-1.47-0.58,0.34-1.52-6.6-0.97c-0.27,0.98-0.26,1.84-0.21,3.02c0.1,2.58-0.15,1.91-0.18,3.18
					c-0.06,2.21,0.07,4.49,0.07,6.67c0,2.16-0.06,4.33-0.01,6.49l-0.01,4.92c-0.02,1.09,0.01,0.7,0.35,1.38
					c0.68,0.05,4.24,0.1,4.83-0.13c0.49-0.19,0.33-0.69,0.34-1.4l0.2,1.12c0.14-2.69-0.14-5.96,0-8.37l0.15-8.19
					c0.01-0.03,0.03-0.08,0.04-0.11c0.01-0.03,0.04-0.08,0.04-0.1c0.01-0.02,0.03-0.06,0.05-0.09l-0.01-0.58
					c0.57,0.06,2.45,1.98,3.01,2.56c0.08,0.08,0.12,0.13,0.19,0.22c0.15,0.19,0.07,0.07,0.14,0.23c0.89,0.49,1.42,1.32,2.13,1.73
					c1.82,0.6,1.52,1.69,3.23,2.42c0.34,0.15,0.25,0.06,0.52,0.31l1.53,1.66c0.53,0.39,0.28-0.05,0.91,0.67
					c0.45,0.52,0.25,0.64,1.02,0.78c0.01,0.05,0,1.08,0.74,1.13c0.47,0.04,0.33,0.07,0.49-0.25c-0.3,0.77,0.43,0.99,1.13,1.04
					c-0.15,0.25-0.26-0.12-0.09,0.29c0.16,0.41,0.55,0.15,1.14,0.97l-0.42,0.1c0.6,0.3,0.81,0.97,2.19,1.77
					c0.69,0.4,0.34,0.53,0.99,1.03c1,0.78,0.54,0.01,1.03,1.12c1.24-0.01,4.99,0.2,5.82-0.12l0.22-0.63c0.03-0.25,0-0.58,0.01-0.82
					c0.02-0.44,0.06-1.07,0.02-1.63c-0.06-1,0.02-2.27,0.01-3.33c-0.02-2.21,0.1-4.46,0.01-6.65c-0.09-2.09,0.1-4.41,0.02-6.4
					l-0.05-5.04c-0.02-0.74,0.06-0.58-0.39-1.15l-5.35,0c0.03,0.01,0.15-0.57,0.1,0.85c-0.02,0.4-0.04,0.77-0.04,1.18l0.02,13.88
					c0,0.36,0.02,0.83,0.01,1.17C175.36,241.05,175.38,241.04,174.83,241.25L174.83,241.25z M212.99,243.53
					c-0.49-0.02-2.85,0.49-3.7,0.59c-2.6,0.31-9.78,0.09-12.79,0.12l-0.12-0.32c-0.29,0.55-0.01,0.27-0.31,0.34l-0.13-6.56
					c0-0.55,0.29-1.58-0.09-1.9c-0.29-0.38-4.4-0.26-5.16-0.16c-0.37,0.62-0.3,0.39-0.29,1.33c0.03,2.8-0.19,10.47,0.05,12.15
					c1.89-0.22,4.52-0.03,6.67,0.01c4.02,0.08,10.47,0.09,14.31-0.24c3.11-0.26,2.92-0.73,4.48-1.05c0.77-0.16,0.77-0.36,1.5-0.33
					c1.33,0.06,4.52-2.77,5.61-4.58c1.38-2.28,2.19-4.9,1.75-8.31c-0.36-2.83-1.31-5.05-3.33-6.94c-1.29-1.21-4.98-3.71-6.61-3.6
					c-1.15,0.12-3.61-0.52-5.6-0.66c-2.24-0.15-17.01-0.24-18.55,0.05c-0.44,1.03-0.36,3.13-0.25,4.56
					c3.45,0.49,8.57,0.16,12.32,0.17c4.16,0.01,6.46-0.15,10.07,0.87c1.34,0.38,3.82,1.97,4.55,3.11c0.79,1.23,1.44,2.98,1.24,4.9
					c-0.12,1.16-1.13,3.88-1.73,4.44c-0.22,0.21,0.02,0-0.19,0.11C216.06,241.99,214.7,243.7,212.99,243.53L212.99,243.53z
					 M321.63,235.67l-0.83-0.15l0-6.05c0.09-0.34-0.21-0.23,0.53-0.41l2.48-0.03c1.02,0,2.27-0.06,3.13-0.02
					c1.07,0.05,2.16,0.03,3.24,0.02c0.56,0,1.2-0.03,1.75,0c0.59,0.03,0.81,0.14,1.43,0.15c2.26,0.03,4.36-0.11,6.51-0.1
					c2.17,0,4.34,0.04,6.51-0.04c0.24-0.68-0.05-1.58,0.02-2.33c0.06-0.66,0.18-0.58,0.26-1.05c0.05-0.29,0.02-0.79,0.02-1.1
					c-1.31-0.55-1.79-0.38-3.62-0.38c-1.4,0-2.79,0-4.19-0.01c-2.71-0.02-5.47-0.01-8.1-0.07c-2.11-0.05-15.46-0.22-16.13,0.07
					c-0.35,0.82-0.15,11.21-0.16,13.11c-0.01,1.81-0.11,12.13,0.14,12.82c1.45,0.32,4.45,0.07,5.8-0.15
					c-0.08-0.16-0.17-6.78-0.21-7.64c-0.05-1.2,0.39-1.28,0.77-1.39c0.57-0.16,1.36-0.05,1.98-0.05c3.32-0.01,18.68,0.36,20.13,0.03
					c0.46-1.22,0.22-3.53-0.03-4.78c-3.53,0-7.18,0.09-10.7-0.02l-8.1-0.16c-0.44,0-0.86,0.01-1.3,0.02
					C321.83,236,321.87,235.95,321.63,235.67L321.63,235.67z M372.65,244.27c0.01-2.48,0.03-5.06,0.08-7.57
					c0.05-2.33,0.01-5.12,0.24-7.14c0.4-0.45-0.54-0.32,0.56-0.38c1.94,0,10.52,0.34,11.47-0.22c-0.01-0.94-0.03-1.71,0.07-2.46
					c0.12-0.95-0.07-1.3-0.11-1.95c-0.51-0.19-1.18-0.11-1.75-0.07l-5.77-0.11c-3.37-0.03-22.56,0.17-23.13-0.12
					c-0.21,0.56-0.37,4.08-0.06,4.53c0.33,0.4,5.32,0.21,6.13,0.2c1.99-0.02,4.23-0.14,5.95,0.02c0.14,1.2,0.34,1.14,0.17,2.71
					c-0.23,2.01,0.01,10.75-0.09,11.1c-0.2,0.72-0.33,1.67-0.26,2.32c0.27,2.56-0.15,2.73,0.02,5.14c0.51,0.3,0.01-0.21,0.29,0.29
					c1.21,0,2.41,0,3.62,0c1.2,0.01,2.08,0.15,2.18-1.06l0.04-5.89c0.12-1.2-0.03-0.45,0.36-0.81L372.65,244.27L372.65,244.27z
					 M30.04,224.33c-0.01,0.88-0.04,0.48-0.24,0.7l-0.2-0.73c-0.36,0.1-0.28,0.08-0.63,0.16v-0.29c-0.82,0.24-0.8,0.69-0.82,1.68
					c-0.01,0.77-0.05,1.95,0.14,2.56l8.48,0.02c0.6-0.01,2.47-0.07,2.92,0.14c1.13,0.54,0.75,3.57,0.78,4.8l0.06,16.34
					c1.44,0.22,4.52,0.51,5.85,0.03c0.13-1.44,0.19-4.09,0.09-5.53c-0.06-0.87-0.29-1.69-0.19-2.51l-0.01-11.07
					c-0.08-1.62-0.24-1.03,0.48-2.17l11.12-0.05c0.71-0.12,0.41-0.29,0.47-0.93c0.17-1.72,0.27-1.66-0.08-3.58l-6.01-0.03
					c-0.74,0-1.91,0.17-2.89,0.16l-17.32,0.35c-0.61,0-0.55,0.19-0.79,0.17C30.91,224.53,30.55,224.32,30.04,224.33L30.04,224.33z
					 M140.7,244.37c0.28,0.33,0.23,4.72,0.13,5.43l-33.16,0.06l-0.02-26.45c1.52-0.21,21.18-0.18,24.43-0.2
					c1.24,0,7.65-0.41,7.85,0.37l0.07,0.25c0.05,0.3,0.01-0.02,0.03,0.27l0,2.03c0,0.93,0.01,1.68-0.14,2.4
					c-3.12,0.11-24.64-0.17-25.47,0.2c-0.36,0.63-0.15,4.19-0.14,5.22l22.6,0.01l-0.05,0.12c-0.01,1.21,0.18,3.88-0.2,4.83
					c-1.9,0-22.1-0.03-22.14,0.14c-0.01,0.05-0.07,0.07-0.08,0.09c-0.01,0.02-0.13,0.17-0.16,0.21c0.11-0.81,0.5-0.63,2.21-0.64
					c3.66-0.01,17.5,0.12,19.81-0.14c0.31-0.82,0.2-0.05,0.31-0.63c0.04-0.22,0.01-0.84,0.01-1.11c0-0.78,0.05-1.54-0.01-2.32
					c0.26,0.19-0.35-0.06-0.39-0.07c-1.46-0.46-20.87-0.06-21.84,0.02c-0.36-0.48-0.43-0.55-0.44-1.39
					c-0.04-2.12-0.31-3.86,0.45-4.84c2.08-0.08,4.09,0.05,6.15,0.06c2.11,0.01,16.34,0.14,17.62-0.16c0.53-0.13,0.95,0.01,1.43-0.03
					c0.18-1.54,0.05-3.19-0.09-4.57l-30.67,0.13c-0.65,1.53-0.58-0.25-0.58,2.9c0,1.23,0.21,2.13,0.23,3.18
					c0.02,0.76,0,0.97-0.17,1.54c-0.24,0.79,0,0.73,0.03,1.51c0.03,0.93-0.22,1.31-0.03,3.23c0.29,2.97-0.05,9.55,0.08,13.27
					c2.51,0.28,19.98-0.08,24.02-0.07c1.31,0,7.3,0.25,7.97-0.23c0.31-0.63,0.21-3.28,0.03-3.97c-1.42-0.53-18.8-0.2-23.03-0.22
					l-2.46,0.01c-0.58-0.11-0.32,0.06-0.54-0.36L140.7,244.37L140.7,244.37z M66.06,229.41c0.01-1.47-0.36-4.66,0.02-5.79
					c0.98-0.4,12.42-0.24,14.52-0.27c1.59-0.02,12.2-0.37,13.61,1.13c-1.21-0.03-1.69-0.39-3.05-0.49c-0.9-0.06-2.4-0.28-3.33-0.27
					c-2.36,0.03-4.73-0.02-7.09,0c-2.43,0.02-4.47,0.21-6.94,0.17c-2.17-0.03-4.88-0.16-7-0.02c-0.15,0.3-0.05,0.16-0.31,0.33l0,4.6
					c1.09,0.45,13.41,0.2,14.83,0.19l9.56-0.01c0.74,0.04,1.32,0.58,1.77,1.03c0.24,0.24,0.29,0.25,0.53,0.48
					c0.6,0.56,0.61,3.39-0.53,4.38c-1.36,1.18,0.08,0.5-1.93,0.93c-0.38,0.08-0.4,0.16-0.79,0.24l-22.92-0.02
					c-0.51,1.25-0.28,4.89-0.25,6.61c0.04,2.1-0.22,5.04,0.03,7.02c0.94,0.3,5.23,0.35,6.23-0.02c0.25-2.12-0.31-8,0.34-8.57
					c0.81-0.49,5.14-0.19,6.8-0.21l7.14-0.15c1.33,0.15,1.38,1.14,1.52,1.51c0.23,0.58,0.3,0.59,0.49,1.39l1.93,3.72
					c0.32,0.51,0.1-0.02,0.32,0.55c0.11,0.27,0.13,0.47,0.25,0.77c0.21,0.53,0.34,0.74,0.64,1.12l6.08-0.01l-0.09-1.18
					c0.27,0.18,0.06-0.01,0.26,0.23c0.03,0.03,0.21,0.34,0.23,0.38c0.21,0.47,0.18,0.43,0.18,0.87c-1.27,0.04-2.5,0.03-3.77,0.03
					c-0.96,0-2.85,0.31-3.53-0.22c-0.4-1.31-1.42-3.08-2.05-4.4c-0.35-0.73-0.74-1.36-1.07-2.1c-0.33-0.74-0.6-1.46-1.01-2.16
					l-14.36,0.01L73.3,250c-0.7,0.29-5.95,0.32-7.16,0.12l-0.04-14.41c1.26-0.15,19.29-0.13,22.44-0.18
					c1.25-0.02,2.34,0.23,3.24-0.5c1.52-1.24,1.85-3.69,0.12-5.16c-1.04-0.89-1.1-0.61-3.21-0.61
					C85.24,229.26,68.21,229.23,66.06,229.41L66.06,229.41z M30.04,224.33c0.51,0,0.87,0.2,1.21,0.23c0.24,0.02,0.18-0.17,0.79-0.17
					l17.32-0.35c0.98,0.01,2.16-0.16,2.89-0.16l6.01,0.03c0.36,1.92,0.25,1.86,0.08,3.58c-0.06,0.63,0.24,0.81-0.47,0.93
					l-11.12,0.05c-0.72,1.14-0.56,0.56-0.48,2.17l0.01,11.07c-0.1,0.82,0.13,1.64,0.19,2.51c0.1,1.44,0.04,4.08-0.09,5.53
					c-1.33,0.48-4.41,0.19-5.85-0.03l-0.06-16.34c-0.04-1.23,0.35-4.26-0.78-4.8c-0.45-0.22-2.32-0.15-2.92-0.14l-8.48-0.02
					c-0.2-0.62-0.16-1.79-0.14-2.56c0.01-0.99,0-1.44,0.82-1.68v0.29c0.35-0.07,0.26-0.06,0.63-0.16l0.2,0.73
					C30,224.81,30.04,225.21,30.04,224.33L30.04,224.33z M27.93,229.06c-0.51-0.15-0.34-0.53-0.33-1.17l0.02-4.24
					c2.94-0.17,30.48-0.33,31.23-0.03c0.25,0.86,0.11,4.23,0.03,5.38c-1.76-0.04-11.14-0.21-12.16,0.1l0.05,21.14
					c-0.48,0.12-5.75,0.17-6.58,0.05c-0.29-1.63-0.16-8.33-0.23-10.69c-0.07-2.28,0.07-8.77-0.18-10.49
					c-1.03-0.23-4.61-0.1-5.87-0.07C31.9,229.07,29.93,229,27.93,229.06L27.93,229.06z M320.68,249.95l-0.04,0.56
					c-1.06,0.16-5.68,0.12-6.71-0.06l0.08-26.8l32.77,0.2l0.12,0.42l-0.03,5.13c-2.16,0.38-25.01-0.5-26.08,0.08
					c0.09-0.34-0.21-0.23,0.53-0.41l2.48-0.03c1.02,0,2.27-0.06,3.13-0.02c1.07,0.05,2.16,0.03,3.24,0.02c0.56,0,1.2-0.03,1.75,0
					c0.59,0.03,0.81,0.14,1.43,0.15c2.26,0.03,4.36-0.11,6.51-0.1c2.17,0,4.34,0.04,6.51-0.04c0.24-0.68-0.05-1.58,0.02-2.33
					c0.06-0.66,0.18-0.58,0.26-1.05c0.05-0.29,0.02-0.79,0.02-1.1c-1.31-0.55-1.79-0.38-3.62-0.38c-1.4,0-2.79,0-4.19-0.01
					c-2.71-0.02-5.47-0.01-8.1-0.07c-2.11-0.05-15.46-0.22-16.13,0.07c-0.35,0.82-0.15,11.21-0.16,13.11
					c-0.01,1.81-0.11,12.13,0.14,12.82c1.45,0.32,4.45,0.07,5.8-0.15c-0.08-0.16-0.17-6.78-0.21-7.64c-0.05-1.2,0.39-1.28,0.77-1.39
					c0.57-0.16,1.36-0.05,1.98-0.05c3.32-0.01,18.68,0.36,20.13,0.03c0.46-1.22,0.22-3.53-0.03-4.78c-3.53,0-7.18,0.09-10.7-0.02
					l-8.1-0.16c-0.44,0-0.86,0.01-1.3,0.02c-1.1,0.03-1.06-0.02-1.3-0.29c2.52,0.02,21.14-0.07,21.82,0.3
					c0.28,0.23,0.26,0.77,0.26,1.3l-0.24,3.98c-0.96,0.55-19.44-0.31-22.61,0.01C320.65,242.04,320.66,248.77,320.68,249.95
					L320.68,249.95z M365.76,250.96c-0.17-1.02,0.2-17.04,0.26-20.05c0-0.17,0.01-0.57-0.01-0.73l-0.17-0.57
					c-1.17-0.4-10.12-0.16-12.2-0.21c-0.11-0.77-0.11-4.69,0.06-5.26c0.22-0.35,1.37-0.25,1.76-0.25l21.98,0.08
					c2.53,0,5.45-0.11,7.93,0.01c0.34,0.69,0.11,1.87,0.11,2.74c0,0.62,0.03,2.22-0.1,2.73c-0.96,0.26-4.92,0.07-6.21,0.07
					c-1.81,0-4.51-0.16-6.2,0.03c0.4-0.45-0.54-0.32,0.56-0.38c1.94,0,10.52,0.34,11.47-0.22c-0.01-0.94-0.03-1.71,0.07-2.46
					c0.12-0.95-0.07-1.3-0.11-1.95c-0.51-0.19-1.18-0.11-1.75-0.07l-5.77-0.11c-3.37-0.03-22.56,0.17-23.13-0.12
					c-0.21,0.56-0.37,4.08-0.06,4.53c0.33,0.4,5.32,0.21,6.13,0.2c1.99-0.02,4.23-0.14,5.95,0.02c0.14,1.2,0.34,1.14,0.17,2.71
					c-0.23,2.01,0.01,10.75-0.09,11.1c-0.2,0.72-0.33,1.67-0.26,2.32c0.27,2.56-0.15,2.73,0.02,5.14c0.51,0.3,0.01-0.21,0.29,0.29
					c1.21,0,2.41,0,3.62,0c1.2,0.01,2.08,0.15,2.18-1.06l0.04-5.89c0.12-1.2-0.03-0.45,0.36-0.81l0,1.44l-0.18,6.61
					C371.99,251.18,366.64,251.09,365.76,250.96L365.76,250.96z M212.99,243.53c0.12-0.11,0.09-0.09,0.29-0.22
					c0.3-0.18-0.01-0.01,0.3-0.15c2.77-1.27,4.53-3.15,4.54-6.75c0.01-3.93-2.27-5.8-5.16-6.85c-4.76-1.73-17.1-0.74-23.05-0.98
					l0.02-5.49c1.8-0.22,4.55-0.08,6.49-0.09c5.63-0.02,11.85-0.28,17.21,0.66l1.23,0.44c-1.15,0.12-3.61-0.52-5.6-0.66
					c-2.24-0.15-17.01-0.24-18.55,0.05c-0.44,1.03-0.36,3.13-0.25,4.56c3.45,0.49,8.57,0.16,12.32,0.17
					c4.16,0.01,6.46-0.15,10.07,0.87c1.34,0.38,3.82,1.97,4.55,3.11c0.79,1.23,1.44,2.98,1.24,4.9c-0.12,1.16-1.13,3.88-1.73,4.44
					c-0.22,0.21,0.02,0-0.19,0.11C216.06,241.99,214.7,243.7,212.99,243.53L212.99,243.53z M174.83,241.25l0.06-18.27l6.1,0
					l0.39,0.06c0.32,4.84,0.01,14.23,0.04,19.88c0.01,1.71,0.19,4.95-0.07,6.49c-1.22,0.08-2.63,0.01-3.88,0.03
					c-0.63,0.01-1.41,0.04-2.03,0c-0.71-0.04-0.84-0.24-1.25-0.63l-3.93-3.63l0.51-0.07c0.6,0.3,0.81,0.97,2.19,1.77
					c0.69,0.4,0.34,0.53,0.99,1.03c1,0.78,0.54,0.01,1.03,1.12c1.24-0.01,4.99,0.2,5.82-0.12l0.22-0.63c0.03-0.25,0-0.58,0.01-0.82
					c0.02-0.44,0.06-1.07,0.02-1.63c-0.06-1,0.02-2.27,0.01-3.33c-0.02-2.21,0.1-4.46,0.01-6.65c-0.09-2.09,0.1-4.41,0.02-6.4
					l-0.05-5.04c-0.02-0.74,0.06-0.58-0.39-1.15l-5.35,0c0.03,0.01,0.15-0.57,0.1,0.85c-0.02,0.4-0.04,0.77-0.04,1.18l0.02,13.88
					c0,0.36,0.02,0.83,0.01,1.17C175.36,241.05,175.38,241.04,174.83,241.25L174.83,241.25z M190.48,249.57l-0.49,0l-0.02-14.27
					c1.09-0.13,5.5-0.19,6.44,0.04l-0.03,8.57c-0.29,0.55-0.01,0.27-0.31,0.34l-0.13-6.56c0-0.55,0.29-1.58-0.09-1.9
					c-0.29-0.38-4.4-0.26-5.16-0.16c-0.37,0.62-0.3,0.39-0.29,1.33c0.03,2.8-0.19,10.47,0.05,12.15c1.89-0.22,4.52-0.03,6.67,0.01
					c4.02,0.08,10.47,0.09,14.31-0.24c3.11-0.26,2.92-0.73,4.48-1.05c0.77-0.16,0.77-0.36,1.5-0.33c-0.33,0.44-0.67,0.47-1.17,0.64
					c-0.47,0.16-0.95,0.31-1.46,0.45C208.26,250.32,197.74,249.36,190.48,249.57L190.48,249.57z M296.31,249.72
					c-1.26,0.03-2.25,0.5-3.35,0.68c-4.03,0.69-8.37,0.37-12.22-0.63c-0.59-0.15-0.67-0.3-1.32-0.53l-1.21-0.63
					c-0.81-0.41-1.84-0.68-2.44-1.33c-0.7-0.76-1.9-1.54-2.57-2.22l-1.75-3c-0.23-0.42-0.42-0.76-0.56-1.3l-0.15-0.68
					c-0.32-1.09-0.49-3.42-0.41-4.23c0.05-0.51,0.17-1.08,0.22-1.63c0.11-1.21,0.34-1.04,0.44-1.21c0.4-0.68-0.18-0.66,0.5-1.91
					l0.54-0.91c0.74-1.29,0.98-1.61,1.99-2.78c0.6-0.7,0.6-0.5,1.07-0.8c0.59-0.37,0.9-0.94,1.54-1.17
					c0.81-0.29,0.94-0.15,1.13-0.94l-1.47,0.72c-2.13,1.36-3.56,2.64-4.87,4.78c-0.44,0.71-0.84,1.82-1.12,2.77
					c-1.35,4.48-0.37,8.54,2.32,12.16c0.85,1.14,2.99,2.89,4.27,3.52c3.01,1.5,5.58,2.32,9.09,2.6
					C287.65,251.19,295.06,250.99,296.31,249.72L296.31,249.72z M155.12,231.81c0.09,1.8,0.09,16.66-0.1,17.72l-6.28,0.01
					l0.08-26.49c0.78-0.09,5.99-0.18,6.44,0.03l2.64,2.4c0.48,0.44,0.5,0.39,0.8,0.96l-1.83-1.36c-0.59-0.59,0.03-0.36-0.78-0.68
					c-1.47-0.58,0.34-1.52-6.6-0.97c-0.27,0.98-0.26,1.84-0.21,3.02c0.1,2.58-0.15,1.91-0.18,3.18c-0.06,2.21,0.07,4.49,0.07,6.67
					c0,2.16-0.06,4.33-0.01,6.49l-0.01,4.92c-0.02,1.09,0.01,0.7,0.35,1.38c0.68,0.05,4.24,0.1,4.83-0.13
					c0.49-0.19,0.33-0.69,0.34-1.4l0.2,1.12c0.14-2.69-0.14-5.96,0-8.37l0.15-8.19c0.01-0.03,0.03-0.08,0.04-0.11
					c0.01-0.03,0.04-0.08,0.04-0.1C155.08,231.89,155.1,231.84,155.12,231.81L155.12,231.81z M241.56,222.87
					c1.19-0.98,9.53-0.5,11.47-0.23c3.21,0.45,7.21,1.35,9.7,2.78c-0.07,0.51-1.74,4.64-1.98,4.96l-3.5-1.1l-0.79-0.24l-4.05-0.94
					c0.8-0.19,3.6,0.36,4.42,0.51c0.98,0.18,2.54,1,3.72,0.92c0.84-0.95,0.4-1.04,0.87-2c0.22-0.44,0.57-0.93,0.69-1.98
					c-0.64-0.43-1.4-0.6-2.11-0.85l-4.5-1.38c-2.54-0.43-8.82-0.88-11.22-0.57C243.49,222.87,242.42,223.09,241.56,222.87
					L241.56,222.87z M234.48,236.93c-0.78-0.57-1.02-0.61-1.63-1.23c-3.07-3.13-2.44-7.66,1.79-10.36c0.26-0.16,0.5-0.31,0.82-0.48
					c0.16-0.09,0.36-0.18,0.47-0.25c0.41-0.28,0.19-0.14,0.31-0.29l0.51-0.17c0.56,0.23,0.06-0.27,0.42,0.35l-3.39,1.85
					c0.13,0.9-0.28,0.16-1.12,1.79c-0.07,0.14-0.1,0.24-0.13,0.3c-0.21,0.38,0.06,0.07-0.27,0.28c-0.99,0.67-0.75,3.01-0.64,3.33
					l0.98,1.29c0.07,0.08,0.18,0.08,0.39,0.33c-0.03,0.01-0.07,0.02-0.08,0.02c-0.01,0-0.07,0.02-0.08,0.02l-0.17,0.04
					c-0.02,0-0.07,0.02-0.09,0.02l-0.18,0.04c0.42,0.82,0.73,1.07,1.42,1.66l0.59,0.54c0.57,0.61,0.53,0.43,0.73,0.99L234.48,236.93
					L234.48,236.93z M167.76,242.98c-0.23-0.36-1.25-1.26-1.77-1.73l-5.4-5.27c1.82,0.6,1.52,1.69,3.23,2.42
					c0.34,0.15,0.25,0.06,0.52,0.31l1.53,1.66c0.53,0.39,0.28-0.05,0.91,0.67c0.45,0.52,0.25,0.64,1.02,0.78
					c0.01,0.05,0,1.08,0.74,1.13c0.47,0.04,0.33,0.07,0.49-0.25c-0.3,0.77,0.43,0.99,1.13,1.04c-0.15,0.25-0.26-0.12-0.09,0.29
					c0.16,0.41,0.55,0.15,1.14,0.97l-0.42,0.1l-0.51,0.07l-2.18-1.96c-0.02-0.02-0.06-0.05-0.08-0.06L167.76,242.98L167.76,242.98z
					 M233.64,242.88l0.23-0.58l0.42,0.04c0.5,0.22,0.41,0.09,0.72,0.45c-0.41,0.03-0.41-0.02-0.71,0.16
					c-0.02,0.01-0.44,0.52-0.45,0.53c-0.42,0.72-0.17,1.2-0.65,1.68c-0.55,0.56-0.96,1.18-0.94,2.11c0.74,0.34,1.51,0.6,2.35,0.93
					c0.7,0.27,0.54,0.18,1.36,0.39c0.56,0.14,0.48,0.33,1.28,0.47l5.17,0.86c0.98,0.27,0.46-0.06,0.6,0.46
					c-2.25-0.38-4.15-0.66-6.24-1.14c-2.14-0.49-3.35-1.05-5.11-1.9C231.89,246.19,233.06,244.09,233.64,242.88z"/>
				<path class="st11" d="M92.47,276.69v-12.14h-4.53v-1.61h10.89v1.61h-4.53v12.14H92.47L92.47,276.69z M100.74,276.69v-13.75h9.93
					v1.61h-8.11v4.23h7.59v1.61h-7.59v4.69H111v1.61H100.74L100.74,276.69z M123.31,271.86l1.82,0.46
					c-0.38,1.49-1.07,2.63-2.06,3.42c-0.99,0.78-2.2,1.18-3.63,1.18c-1.48,0-2.68-0.3-3.61-0.91c-0.93-0.6-1.63-1.48-2.12-2.62
					c-0.48-1.15-0.73-2.37-0.73-3.68c0-1.43,0.27-2.68,0.82-3.75c0.55-1.07,1.33-1.88,2.33-2.43c1.01-0.55,2.12-0.83,3.33-0.83
					c1.38,0,2.53,0.35,3.47,1.05c0.94,0.7,1.59,1.68,1.96,2.95l-1.79,0.42c-0.32-1-0.78-1.73-1.39-2.18
					c-0.6-0.46-1.37-0.68-2.29-0.68c-1.05,0-1.94,0.25-2.64,0.76c-0.71,0.51-1.21,1.19-1.49,2.04c-0.29,0.85-0.43,1.73-0.43,2.64
					c0,1.17,0.17,2.19,0.51,3.06c0.34,0.87,0.87,1.52,1.58,1.96c0.72,0.43,1.49,0.65,2.33,0.65c1.02,0,1.88-0.29,2.58-0.88
					C122.58,273.89,123.06,273.02,123.31,271.86L123.31,271.86z M127.46,276.69v-13.75h1.82v5.67h7.11v-5.67h1.82v13.75h-1.82v-6.47
					h-7.11v6.47H127.46L127.46,276.69z M141.24,276.69v-13.75h1.87l7.22,10.79v-10.79h1.75v13.75h-1.87l-7.22-10.79v10.79H141.24
					L141.24,276.69z M154.57,270c0-2.28,0.61-4.07,1.84-5.36c1.23-1.29,2.81-1.93,4.75-1.93c1.27,0,2.41,0.3,3.43,0.91
					c1.02,0.61,1.8,1.45,2.33,2.54c0.53,1.08,0.8,2.31,0.8,3.68c0,1.39-0.28,2.64-0.85,3.74c-0.56,1.1-1.36,1.93-2.39,2.5
					c-1.03,0.57-2.15,0.85-3.34,0.85c-1.3,0-2.45-0.31-3.47-0.94c-1.02-0.62-1.79-1.48-2.32-2.56
					C154.83,272.34,154.57,271.2,154.57,270L154.57,270z M156.45,270.03c0,1.66,0.44,2.96,1.33,3.91c0.89,0.95,2.01,1.43,3.35,1.43
					c1.37,0,2.49-0.48,3.38-1.44c0.88-0.96,1.33-2.32,1.33-4.09c0-1.12-0.19-2.09-0.57-2.93c-0.38-0.83-0.93-1.48-1.66-1.94
					c-0.73-0.46-1.55-0.69-2.45-0.69c-1.29,0-2.39,0.44-3.32,1.33C156.91,266.49,156.45,267.96,156.45,270.03L156.45,270.03z
					 M169.99,276.69v-13.75h1.82v12.14h6.76v1.61H169.99L169.99,276.69z M180.19,270c0-2.28,0.61-4.07,1.84-5.36
					c1.23-1.29,2.81-1.93,4.75-1.93c1.27,0,2.41,0.3,3.43,0.91c1.02,0.61,1.8,1.45,2.33,2.54c0.53,1.08,0.8,2.31,0.8,3.68
					c0,1.39-0.28,2.64-0.85,3.74c-0.56,1.1-1.36,1.93-2.39,2.5c-1.03,0.57-2.15,0.85-3.34,0.85c-1.3,0-2.45-0.31-3.47-0.94
					c-1.02-0.62-1.79-1.48-2.32-2.56C180.45,272.34,180.19,271.2,180.19,270L180.19,270z M182.07,270.03c0,1.66,0.44,2.96,1.33,3.91
					c0.89,0.95,2.01,1.43,3.35,1.43c1.37,0,2.49-0.48,3.38-1.44c0.88-0.96,1.33-2.32,1.33-4.09c0-1.12-0.19-2.09-0.57-2.93
					c-0.38-0.83-0.93-1.48-1.66-1.94c-0.73-0.46-1.55-0.69-2.45-0.69c-1.29,0-2.39,0.44-3.32,1.33
					C182.54,266.49,182.07,267.96,182.07,270.03L182.07,270.03z M202.12,271.29v-1.61h5.82v5.1c-0.89,0.71-1.82,1.25-2.77,1.61
					c-0.95,0.36-1.93,0.54-2.93,0.54c-1.35,0-2.58-0.29-3.68-0.87c-1.1-0.58-1.94-1.42-2.5-2.51c-0.56-1.09-0.85-2.32-0.85-3.67
					c0-1.34,0.28-2.59,0.84-3.75c0.56-1.16,1.36-2.02,2.41-2.58c1.05-0.56,2.26-0.85,3.63-0.85c0.99,0,1.89,0.16,2.7,0.48
					c0.8,0.32,1.43,0.77,1.89,1.34c0.46,0.58,0.8,1.33,1.04,2.25l-1.64,0.45c-0.21-0.7-0.46-1.25-0.77-1.65
					c-0.31-0.4-0.74-0.72-1.31-0.96c-0.57-0.24-1.2-0.36-1.89-0.36c-0.83,0-1.55,0.13-2.15,0.38c-0.61,0.25-1.09,0.59-1.47,1
					c-0.37,0.41-0.66,0.87-0.86,1.36c-0.35,0.85-0.53,1.78-0.53,2.77c0,1.23,0.21,2.26,0.63,3.09c0.42,0.83,1.04,1.44,1.84,1.84
					c0.81,0.4,1.66,0.6,2.57,0.6c0.79,0,1.56-0.15,2.3-0.46c0.75-0.31,1.32-0.63,1.7-0.98v-2.58H202.12L202.12,271.29z
					 M210.93,276.69v-13.75h1.82v13.75H210.93L210.93,276.69z M216,276.69v-13.75h9.93v1.61h-8.11v4.23h7.59v1.61h-7.59v4.69h8.43
					v1.61H216L216,276.69z M228.18,272.27l1.71-0.15c0.08,0.69,0.27,1.26,0.57,1.7c0.3,0.44,0.76,0.8,1.38,1.08
					c0.62,0.27,1.33,0.41,2.11,0.41c0.69,0,1.31-0.1,1.84-0.31c0.53-0.21,0.93-0.49,1.18-0.85c0.26-0.36,0.39-0.76,0.39-1.18
					c0-0.43-0.12-0.8-0.37-1.13c-0.25-0.32-0.66-0.59-1.24-0.81c-0.37-0.14-1.18-0.37-2.45-0.67c-1.26-0.3-2.15-0.59-2.65-0.86
					c-0.66-0.35-1.14-0.77-1.46-1.28c-0.32-0.51-0.48-1.08-0.48-1.71c0-0.7,0.2-1.35,0.59-1.95c0.39-0.6,0.97-1.06,1.73-1.38
					c0.76-0.31,1.6-0.47,2.52-0.47c1.02,0,1.92,0.16,2.7,0.49c0.78,0.33,1.38,0.81,1.8,1.45c0.42,0.64,0.64,1.36,0.68,2.17
					l-1.75,0.13c-0.09-0.87-0.41-1.52-0.95-1.97c-0.54-0.45-1.34-0.67-2.4-0.67c-1.1,0-1.9,0.2-2.41,0.61
					c-0.5,0.4-0.76,0.89-0.76,1.46c0,0.49,0.18,0.9,0.53,1.22c0.35,0.32,1.26,0.65,2.74,0.98c1.48,0.34,2.49,0.63,3.04,0.88
					c0.8,0.37,1.39,0.83,1.77,1.4c0.38,0.56,0.57,1.21,0.57,1.95c0,0.73-0.21,1.42-0.63,2.06c-0.42,0.65-1.02,1.15-1.8,1.51
					c-0.78,0.36-1.66,0.54-2.65,0.54c-1.24,0-2.28-0.18-3.12-0.54c-0.84-0.36-1.5-0.91-1.98-1.64
					C228.45,274.01,228.2,273.19,228.18,272.27L228.18,272.27z M246.92,276.69v-13.75h5.19c0.91,0,1.61,0.04,2.09,0.13
					c0.68,0.11,1.24,0.33,1.7,0.64c0.46,0.32,0.83,0.76,1.1,1.33c0.28,0.57,0.42,1.19,0.42,1.87c0,1.17-0.37,2.15-1.12,2.96
					c-0.74,0.81-2.09,1.21-4.04,1.21h-3.53v5.61H246.92L246.92,276.69z M248.75,269.47h3.55c1.18,0,2.01-0.22,2.51-0.66
					c0.49-0.44,0.74-1.05,0.74-1.85c0-0.57-0.14-1.07-0.44-1.48c-0.29-0.41-0.68-0.68-1.15-0.81c-0.31-0.08-0.87-0.12-1.7-0.12
					h-3.52V269.47L248.75,269.47z M263.65,276.69l-5.31-13.75h1.97l3.57,9.99c0.28,0.8,0.53,1.55,0.72,2.25
					c0.21-0.75,0.46-1.5,0.74-2.25l3.71-9.99h1.86l-5.36,13.75H263.65L263.65,276.69z M276.04,276.69v-12.14h-4.53v-1.61h10.89v1.61
					h-4.53v12.14H276.04L276.04,276.69z M282.42,276.69v-1.92h1.92v1.92H282.42L282.42,276.69z M292.74,276.69v-13.75h1.82v12.14
					h6.76v1.61H292.74L292.74,276.69z M305.57,276.69h1.82v-12.14h4.53v-1.61h-10.89v1.61h4.53V276.69L305.57,276.69z
					 M313.81,276.69v-13.75h4.74c1.07,0,1.89,0.06,2.45,0.2c0.79,0.18,1.46,0.51,2.02,0.99c0.73,0.61,1.27,1.4,1.63,2.35
					c0.36,0.95,0.54,2.05,0.54,3.27c0,1.04-0.12,1.97-0.36,2.78c-0.24,0.81-0.56,1.48-0.94,2c-0.38,0.53-0.8,0.94-1.25,1.25
					c-0.45,0.3-1,0.53-1.64,0.69c-0.64,0.16-1.38,0.23-2.21,0.23H313.81L313.81,276.69z M315.63,275.08h2.93
					c0.91,0,1.62-0.08,2.13-0.25c0.52-0.17,0.93-0.41,1.23-0.71c0.43-0.43,0.77-1.01,1.01-1.74c0.24-0.73,0.36-1.61,0.36-2.65
					c0-1.44-0.24-2.55-0.71-3.32c-0.47-0.77-1.04-1.29-1.72-1.56c-0.49-0.19-1.27-0.28-2.35-0.28h-2.88V275.08z"/>
			</g>
			
				<linearGradient id="SVGID_00000154386815418511042570000002238434983600390275_" gradientUnits="userSpaceOnUse" x1="190.545" y1="83.1322" x2="188.1454" y2="128.242">
				<stop  offset="0" style="stop-color:#2F2482"/>
				<stop  offset="1" style="stop-color:#009DE2"/>
			</linearGradient>
			<path style="fill-rule:evenodd;clip-rule:evenodd;fill:url(#SVGID_00000154386815418511042570000002238434983600390275_);" d="
				M155.49,118.61c27.37,0,54.74,0,82.11,0v-6.93h4.59v-7.74h3.51v-4.68l-90.12,0.63c-20.09,2.84-27.36,21.58-21.68,35.95
				C137.28,127.13,143.83,120.89,155.49,118.61z"/>
			
				<linearGradient id="SVGID_00000165217769034267338650000017896134363004342456_" gradientUnits="userSpaceOnUse" x1="133.6147" y1="118.8607" x2="210.2186" y2="216.3566">
				<stop  offset="0" style="stop-color:#E2000F"/>
				<stop  offset="0.1266" style="stop-color:#E5120E"/>
				<stop  offset="0.3822" style="stop-color:#EC430A"/>
				<stop  offset="0.7397" style="stop-color:#F68F04"/>
				<stop  offset="1" style="stop-color:#FFCB00"/>
			</linearGradient>
			<path style="fill-rule:evenodd;clip-rule:evenodd;fill:url(#SVGID_00000165217769034267338650000017896134363004342456_);" d="
				M182.32,157.51c0.61-11.7-6.22-19.84-23.14-23.14c-11.31-1.01-11.15-11.78-3.69-15.76c-11.67,2.28-18.21,8.52-21.58,17.22
				c3.47,8.77,11.76,15.91,24.92,16.81c4.07,0.39,5.7,2.68,5.45,6.44c0.17,9.77,0.83,19.54,0.99,29.31
				c4.37,11.72,14.31,19.83,27.41,19.09c2.06-0.14,3.99-0.48,5.79-1.01c-8.23-3.95-15.92-13.21-15.29-21.56
				c-0.01-0.04-0.02-0.08-0.04-0.11C182.86,175.69,182.59,166.6,182.32,157.51z"/>
			
				<linearGradient id="SVGID_00000115482430671064115810000001646368073504951215_" gradientUnits="userSpaceOnUse" x1="173.9" y1="230.2149" x2="242.5515" y2="103.4512">
				<stop  offset="0" style="stop-color:#2F2482"/>
				<stop  offset="1" style="stop-color:#008AD1"/>
			</linearGradient>
			<path style="fill-rule:evenodd;clip-rule:evenodd;fill:url(#SVGID_00000115482430671064115810000001646368073504951215_);" d="
				M242.73,133.92c-32.61-3.38-43.77,5-44.93,22.87c-0.06,8.43-0.12,16.87-0.18,25.3c-0.6,8.36-12.45,8.87-14.46,2.81
				c-0.63,8.36,7.07,17.62,15.29,21.56c7.94-2.34,13.34-8.44,16.36-18.08c0.33-9.3,0.66-18.61,0.99-27.91
				c-1.21-6.22,3.1-8.42,10.44-9.09C236.52,150.58,241.84,144.57,242.73,133.92z"/>
			<rect x="241.53" y="114.61" class="st5" width="4.86" height="5.16"/>
			<rect x="245.61" y="107.17" class="st5" width="4.86" height="5.16"/>
			<rect x="252.7" y="113.47" class="st5" width="4.18" height="4.44"/>
			<rect x="261.61" y="110.95" class="st5" width="3.08" height="3.27"/>
			<rect x="256.03" y="105.16" class="st5" width="4.18" height="4.44"/>
			<rect x="248.73" y="99.13" class="st5" width="4.86" height="5.16"/>
			<rect x="257.95" y="96.4" class="st5" width="4.18" height="4.44"/>
			<rect x="265.38" y="103.48" class="st5" width="3.35" height="3.56"/>
			<rect x="271.08" y="99.79" class="st5" width="3.35" height="3.56"/>
			<rect x="268.02" y="93.61" class="st5" width="3.35" height="3.56"/>
			<rect x="276.08" y="90.7" class="st5" width="3.35" height="3.56"/>
		</g>
	</g>
</g>
<g id="final_logo">
	<g>
		<g>
			<g>
				
					<linearGradient id="SVGID_00000137853656897208952150000001742570017417770422_" gradientUnits="userSpaceOnUse" x1="237.3646" y1="157.7014" x2="147.9965" y2="195.1408">
					<stop  offset="0.1309" style="stop-color:#008AD1"/>
					<stop  offset="0.2744" style="stop-color:#0481CA"/>
					<stop  offset="0.5036" style="stop-color:#0F6AB8"/>
					<stop  offset="0.788" style="stop-color:#20459B"/>
					<stop  offset="1" style="stop-color:#2F2482"/>
				</linearGradient>
				<path style="fill-rule:evenodd;clip-rule:evenodd;fill:url(#SVGID_00000137853656897208952150000001742570017417770422_);" d="
					M243.24,134.16c0,18.05-20.7,18.81-20.7,18.81c-2.01,0.13-3.76,1.25-4.74,2.89c-0.55,0.9-0.86,1.96-0.86,3.09v21.97
					c0,11.42-7.2,21.15-17.3,24.91c-9.98-3.72-17.13-13.26-17.29-24.5c0.23,4.38,3.94,7.83,8.41,7.61c4.33-0.21,7.63-4.01,7.63-8.34
					v-23.68c0-1.93,0.14-3.86,0.56-5.74c0.96-4.31,2.88-7.63,5.43-10.19C215.37,129.89,237.86,133.18,243.24,134.16z"/>
				
					<linearGradient id="SVGID_00000151537576162929574020000000715396845123446965_" gradientUnits="userSpaceOnUse" x1="105.6393" y1="140.0948" x2="258.3138" y2="87.4743">
					<stop  offset="0.0566" style="stop-color:#009DE2"/>
					<stop  offset="0.2344" style="stop-color:#0B81CC"/>
					<stop  offset="0.4994" style="stop-color:#185EB0"/>
					<stop  offset="0.7162" style="stop-color:#21489E"/>
					<stop  offset="0.8562" style="stop-color:#244098"/>
				</linearGradient>
				<path style="fill-rule:evenodd;clip-rule:evenodd;fill:url(#SVGID_00000151537576162929574020000000715396845123446965_);" d="
					M246.16,99.79v6.18h-4.27v6.19h-4.28v6.18h-79.82c-0.14,0-0.28,0-0.41,0.01c-11.62,0.19-21.28,8.46-23.6,19.44
					c-1.65-3.46-2.57-7.33-2.57-11.42c0-16.92,14.7-26.58,26.58-26.58H246.16z"/>
				
					<linearGradient id="SVGID_00000149357627856930258790000017603696985614244761_" gradientUnits="userSpaceOnUse" x1="134.5035" y1="143.948" x2="194.9377" y2="175.8329">
					<stop  offset="0" style="stop-color:#E2000F"/>
					<stop  offset="0.1266" style="stop-color:#E5120E"/>
					<stop  offset="0.3822" style="stop-color:#EC430A"/>
					<stop  offset="0.7397" style="stop-color:#F68F04"/>
					<stop  offset="1" style="stop-color:#FFCB00"/>
				</linearGradient>
				<path style="fill-rule:evenodd;clip-rule:evenodd;fill:url(#SVGID_00000149357627856930258790000017603696985614244761_);" d="
					M199.64,205.83c-2.89,1.08-6.02,1.67-9.28,1.67c-14.07,0-26.51-10.9-26.51-24.77c0-0.51-0.06-23.92-0.07-23.98
					c-0.1-3.23-2.74-5.8-5.99-5.8c-7.79,0-14.8-3.35-19.66-8.69v-0.01c-1.76-1.92-3.22-4.09-4.35-6.46
					c2.32-10.98,11.98-19.25,23.6-19.44c-4.24,0.22-7.61,3.72-7.61,8.02c0,4.43,3.59,8.02,8.02,8.02c8.05,0,15.2,3.87,19.67,9.86
					c1.5,2,2.7,4.25,3.53,6.66c0.53,1.52,0.91,3.1,1.12,4.74c0.16,1.07,0.23,2.17,0.23,3.29v21.98c0,0.14,0,0.27,0.01,0.41
					C182.51,192.57,189.66,202.11,199.64,205.83z"/>
			</g>
			<rect x="249.19" y="99.25" class="st5" width="4.86" height="4.86"/>
			<rect x="246.07" y="107.32" class="st5" width="4.86" height="4.86"/>
			<rect x="241.99" y="114.76" class="st5" width="4.86" height="4.86"/>
			<rect x="253.15" y="113.47" class="st5" width="4.18" height="4.18"/>
			<rect x="256.49" y="105.29" class="st5" width="4.18" height="4.18"/>
			<rect x="258.58" y="96.53" class="st5" width="4.18" height="4.18"/>
			<rect x="265.9" y="103.44" class="st5" width="3.22" height="3.43"/>
			<rect x="268.54" y="93.67" class="st5" width="3.22" height="3.43"/>
			<rect x="271.6" y="99.99" class="st5" width="3.22" height="3.43"/>
			<rect x="276.6" y="90.76" class="st5" width="3.22" height="3.43"/>
			<rect x="262" y="110.87" class="st5" width="3.22" height="3.43"/>
		</g>
		<g>
			<path class="st18" d="M37.88,263.67H33.5v11.89h-2.07v-11.89H27.1v-1.95h10.78V263.67z"/>
			<path class="st18" d="M55.55,275.56h-10.2v-13.83h9.88v1.95h-7.78v3.76h7.28v1.95h-7.28v4.23h8.11V275.56z"/>
			<path class="st18" d="M74.63,271.09c-0.19,0.71-0.46,1.36-0.79,1.93c-0.33,0.58-0.73,1.07-1.2,1.48
				c-0.47,0.41-1.02,0.72-1.64,0.94s-1.31,0.33-2.06,0.33c-1.01,0-1.9-0.17-2.68-0.52s-1.42-0.83-1.94-1.47
				c-0.52-0.63-0.92-1.39-1.18-2.29s-0.4-1.89-0.4-2.98c0-1.12,0.16-2.11,0.48-2.99c0.32-0.87,0.76-1.61,1.32-2.2
				c0.56-0.6,1.23-1.05,2.01-1.36c0.78-0.31,1.63-0.47,2.55-0.47c0.75,0,1.42,0.1,2,0.29c0.58,0.2,1.09,0.47,1.51,0.83
				c0.43,0.36,0.79,0.78,1.08,1.28s0.53,1.05,0.71,1.66l-2.05,0.4c-0.53-1.73-1.64-2.59-3.32-2.59c-0.67,0-1.27,0.12-1.78,0.35
				c-0.51,0.24-0.94,0.57-1.29,1.02c-0.35,0.44-0.61,0.98-0.78,1.62s-0.26,1.36-0.26,2.16c0,0.94,0.1,1.75,0.29,2.43
				c0.19,0.68,0.46,1.24,0.81,1.67c0.35,0.44,0.77,0.76,1.26,0.97c0.49,0.21,1.03,0.32,1.63,0.32c0.98,0,1.78-0.28,2.39-0.85
				c0.61-0.56,1.04-1.36,1.28-2.39L74.63,271.09z"/>
			<path class="st18" d="M93.22,275.56h-2.07v-6.35h-6.64v6.35h-2.09v-13.83h2.09v5.54h6.64v-5.54h2.07V275.56z"/>
			<path class="st18" d="M112.69,275.56h-2.14l-6.59-10.44h-0.04v10.44h-1.98v-13.83h2.11l6.59,10.44h0.04v-10.44h2V275.56z"/>
			<path class="st18" d="M127.19,261.51c0.95,0,1.82,0.17,2.61,0.52s1.46,0.83,2.03,1.46s1,1.38,1.32,2.26
				c0.31,0.88,0.47,1.85,0.47,2.92c0,1.06-0.16,2.03-0.47,2.91c-0.31,0.88-0.75,1.63-1.31,2.25c-0.56,0.62-1.24,1.11-2.03,1.45
				c-0.79,0.34-1.66,0.51-2.62,0.51c-0.99,0-1.88-0.18-2.68-0.54c-0.8-0.36-1.48-0.86-2.04-1.48c-0.56-0.63-0.99-1.37-1.29-2.21
				c-0.3-0.84-0.45-1.75-0.45-2.71c0-1.15,0.16-2.18,0.47-3.09c0.31-0.91,0.76-1.67,1.33-2.3c0.57-0.62,1.25-1.1,2.04-1.44
				C125.37,261.67,126.24,261.51,127.19,261.51z M127.17,273.92c0.66,0,1.25-0.12,1.78-0.37s0.97-0.59,1.33-1.04s0.65-1,0.84-1.65
				c0.2-0.65,0.31-1.38,0.32-2.2c0-0.83-0.1-1.57-0.31-2.23c-0.21-0.66-0.5-1.21-0.87-1.66s-0.82-0.79-1.33-1.03
				c-0.52-0.24-1.09-0.36-1.72-0.36c-0.64,0-1.22,0.11-1.75,0.33c-0.53,0.22-0.98,0.55-1.37,1c-0.38,0.45-0.68,1.02-0.89,1.7
				s-0.32,1.5-0.32,2.44c0,0.75,0.1,1.43,0.3,2.04s0.48,1.15,0.85,1.6c0.37,0.45,0.82,0.8,1.35,1.05S126.51,273.92,127.17,273.92z"
				/>
			<path class="st18" d="M150.13,275.56h-8.47v-13.83h2.09v11.89h6.38V275.56z"/>
			<path class="st18" d="M163.49,261.51c0.95,0,1.82,0.17,2.61,0.52c0.79,0.34,1.46,0.83,2.03,1.46c0.57,0.63,1,1.38,1.32,2.26
				c0.31,0.88,0.47,1.85,0.47,2.92c0,1.06-0.16,2.03-0.47,2.91c-0.31,0.88-0.75,1.63-1.31,2.25c-0.56,0.62-1.24,1.11-2.03,1.45
				s-1.66,0.51-2.62,0.51c-0.99,0-1.88-0.18-2.68-0.54c-0.8-0.36-1.48-0.86-2.04-1.48s-0.99-1.37-1.29-2.21
				c-0.3-0.84-0.45-1.75-0.45-2.71c0-1.15,0.16-2.18,0.47-3.09c0.32-0.91,0.76-1.67,1.33-2.3c0.57-0.62,1.25-1.1,2.04-1.44
				C161.67,261.67,162.54,261.51,163.49,261.51z M163.47,273.92c0.66,0,1.25-0.12,1.78-0.37c0.53-0.24,0.97-0.59,1.33-1.04
				s0.64-1,0.84-1.65c0.2-0.65,0.31-1.38,0.32-2.2c0-0.83-0.1-1.57-0.31-2.23c-0.21-0.66-0.49-1.21-0.87-1.66
				c-0.37-0.45-0.82-0.79-1.33-1.03c-0.52-0.24-1.09-0.36-1.72-0.36c-0.64,0-1.22,0.11-1.75,0.33c-0.53,0.22-0.98,0.55-1.37,1
				c-0.38,0.45-0.68,1.02-0.89,1.7s-0.32,1.5-0.32,2.44c0,0.75,0.1,1.43,0.3,2.04c0.2,0.62,0.48,1.15,0.85,1.6s0.82,0.8,1.35,1.05
				C162.22,273.79,162.81,273.92,163.47,273.92z"/>
			<path class="st18" d="M189.84,273.69c-1.74,1.4-3.65,2.09-5.74,2.09c-1.01,0-1.94-0.17-2.77-0.5c-0.84-0.34-1.55-0.82-2.15-1.44
				c-0.6-0.62-1.07-1.37-1.39-2.24c-0.33-0.87-0.5-1.84-0.5-2.91c0-1.05,0.15-2.02,0.46-2.9s0.75-1.64,1.33-2.27
				s1.29-1.12,2.14-1.48c0.84-0.35,1.81-0.53,2.89-0.53c3.04,0,4.89,1.31,5.53,3.94l-1.89,0.44c-0.49-1.67-1.72-2.51-3.71-2.51
				c-0.76,0-1.42,0.13-2,0.38c-0.57,0.25-1.05,0.61-1.43,1.07c-0.38,0.46-0.67,1.01-0.86,1.65c-0.19,0.64-0.29,1.35-0.29,2.12
				c0,0.84,0.1,1.59,0.31,2.25c0.21,0.65,0.51,1.2,0.9,1.65c0.39,0.45,0.87,0.78,1.43,1.02c0.56,0.23,1.2,0.35,1.91,0.35
				c1.39,0,2.67-0.41,3.82-1.23v-2.26h-3.89v-2h5.89V273.69z"/>
			<path class="st18" d="M200.28,275.56h-2.09v-13.83h2.09V275.56z"/>
			<path class="st18" d="M219.2,275.56h-10.2v-13.83h9.88v1.95h-7.78v3.76h7.28v1.95h-7.28v4.23h8.11V275.56z"/>
			<path class="st18" d="M234.7,265.84c-0.07-0.8-0.36-1.42-0.87-1.86c-0.51-0.44-1.25-0.66-2.21-0.66c-0.42,0-0.81,0.04-1.16,0.13
				c-0.36,0.08-0.67,0.21-0.93,0.38s-0.47,0.37-0.61,0.61c-0.15,0.24-0.22,0.51-0.22,0.81c0,0.27,0.05,0.5,0.16,0.71
				c0.11,0.2,0.29,0.39,0.55,0.55c0.26,0.16,0.62,0.32,1.08,0.46c0.46,0.15,1.04,0.3,1.75,0.45c0.71,0.16,1.36,0.34,1.96,0.54
				c0.6,0.2,1.12,0.45,1.56,0.77s0.78,0.71,1.03,1.19c0.25,0.47,0.37,1.07,0.37,1.78c0,0.6-0.12,1.15-0.37,1.66
				c-0.25,0.5-0.59,0.93-1.04,1.3s-0.98,0.64-1.6,0.85c-0.62,0.2-1.31,0.3-2.06,0.3c-0.96,0-1.8-0.11-2.53-0.34
				c-0.72-0.23-1.33-0.54-1.82-0.96c-0.49-0.41-0.86-0.9-1.12-1.48c-0.25-0.58-0.4-1.21-0.43-1.91l2-0.15
				c0.03,0.51,0.15,0.96,0.36,1.33s0.48,0.69,0.82,0.94c0.34,0.25,0.73,0.44,1.17,0.56s0.91,0.18,1.41,0.18
				c0.48,0,0.92-0.05,1.3-0.16s0.72-0.26,1-0.45s0.49-0.43,0.64-0.7c0.15-0.27,0.22-0.57,0.22-0.91c0-0.32-0.05-0.59-0.15-0.83
				c-0.1-0.24-0.3-0.45-0.6-0.64c-0.3-0.2-0.71-0.38-1.25-0.54c-0.54-0.17-1.24-0.34-2.1-0.53c-0.76-0.17-1.42-0.38-1.97-0.62
				c-0.55-0.24-0.99-0.53-1.34-0.85s-0.6-0.68-0.76-1.08s-0.24-0.85-0.24-1.34c0-0.55,0.11-1.06,0.34-1.53
				c0.23-0.47,0.55-0.87,0.97-1.21c0.42-0.34,0.93-0.6,1.52-0.79c0.6-0.19,1.26-0.29,2.01-0.29c0.75,0,1.44,0.09,2.06,0.28
				s1.16,0.46,1.61,0.82c0.45,0.36,0.81,0.79,1.07,1.31c0.26,0.52,0.41,1.11,0.44,1.78L234.7,265.84z"/>
			<path class="st18" d="M256.8,261.73h5.08c0.89,0,1.66,0.09,2.31,0.27c0.65,0.18,1.17,0.45,1.59,0.81
				c0.41,0.36,0.72,0.8,0.91,1.32c0.2,0.52,0.29,1.13,0.29,1.81c0,0.61-0.09,1.18-0.28,1.71c-0.19,0.54-0.48,1.01-0.88,1.41
				c-0.4,0.41-0.91,0.73-1.54,0.96c-0.62,0.24-1.37,0.35-2.24,0.35h-3.15v5.18h-2.09V261.73z M258.89,268.43h2.83
				c1.04,0,1.81-0.19,2.33-0.57c0.52-0.38,0.78-1,0.78-1.87c0-0.46-0.07-0.84-0.22-1.14c-0.15-0.3-0.35-0.54-0.62-0.71
				c-0.27-0.17-0.6-0.3-0.99-0.37c-0.39-0.07-0.83-0.1-1.32-0.1h-2.79V268.43z"/>
			<path class="st18" d="M285.73,261.73l-5.21,13.83h-2.23l-5.07-13.83h2.26l3.48,10.05c0.06,0.17,0.11,0.32,0.16,0.46
				c0.04,0.14,0.09,0.27,0.12,0.41c0.04,0.13,0.07,0.27,0.1,0.4s0.06,0.28,0.1,0.44h0.02c0.06-0.28,0.13-0.56,0.2-0.84
				c0.08-0.28,0.17-0.57,0.28-0.88l3.64-10.05H285.73z"/>
			<path class="st18" d="M302.36,263.67h-4.38v11.89h-2.07v-11.89h-4.33v-1.95h10.78V263.67z"/>
			<path class="st18" d="M307.66,275.56v-2.49h2.31v2.49H307.66z"/>
			<path class="st18" d="M339.14,275.56h-8.47v-13.83h2.09v11.89h6.38V275.56z"/>
			<path class="st18" d="M354.54,263.67h-4.38v11.89h-2.07v-11.89h-4.33v-1.95h10.78V263.67z"/>
			<path class="st18" d="M362.01,261.73h4.84c2.17,0,3.8,0.56,4.89,1.69c1.08,1.13,1.63,2.84,1.63,5.15c0,2.31-0.53,4.06-1.58,5.23
				c-1.05,1.18-2.63,1.76-4.73,1.76h-5.04V261.73z M364.1,273.64h2.75c0.79,0,1.47-0.1,2.02-0.31s1.01-0.52,1.36-0.94
				s0.61-0.96,0.77-1.6c0.16-0.65,0.24-1.41,0.24-2.28c0-0.89-0.09-1.65-0.28-2.26s-0.47-1.12-0.84-1.5
				c-0.38-0.38-0.84-0.66-1.4-0.82c-0.56-0.17-1.21-0.25-1.95-0.25h-2.67V273.64z"/>
			<path class="st18" d="M381.81,275.56v-2.49h2.31v2.49H381.81z"/>
		</g>
		<g>
			<path class="st19" d="M45.58,229.21v21.06h-6.76v-21.06H26.64v-5.79h31.11v5.79H45.58z"/>
			<path class="st19" d="M96.88,237.67c0.5-0.65,0.91-1.42,1.22-2.32c0.31-0.89,0.46-1.93,0.46-3.11c0-1.79-0.32-3.25-0.97-4.39
				c-0.64-1.14-1.43-2.03-2.35-2.68c-0.93-0.66-1.9-1.11-2.92-1.37c-1.02-0.25-1.89-0.38-2.61-0.38H65.4v5.79h23.3
				c0.21,0,0.49,0.04,0.84,0.12c0.34,0.07,0.68,0.22,1.02,0.44c0.33,0.22,0.62,0.52,0.85,0.92c0.23,0.4,0.35,0.91,0.35,1.55
				c0,0.62-0.13,1.12-0.39,1.52c-0.26,0.39-0.56,0.71-0.91,0.94c-0.34,0.23-0.69,0.39-1.02,0.48c-0.34,0.09-0.58,0.13-0.74,0.13
				H65.4v14.96h6.8v-9.17h14.19l4.32,9.17h7.27l-4.71-9.93c0.64-0.26,1.28-0.6,1.91-1.04C95.81,238.87,96.38,238.32,96.88,237.67z"
				/>
			<path class="st19" d="M106.6,250.27v-26.85h32.58v5.79H113.4v4.83h22.69v5.22H113.4v5.22h26.78v5.79H106.6z"/>
			<path class="st19" d="M174.39,250.27l-19.56-18.76v18.76h-6.8v-26.85h6.8l19.56,18.76v-18.76h6.8v26.85H174.39z"/>
			<path class="st19" d="M224.65,231.63c-0.44-0.94-0.99-1.81-1.66-2.61c-0.49-0.6-1.05-1.15-1.67-1.67
				c-1.45-1.21-3.24-2.17-5.35-2.87c-2.11-0.71-4.54-1.06-7.27-1.06H190v5.6h18.55c1.72,0,3.22,0.21,4.48,0.62
				c1.26,0.4,2.32,0.96,3.15,1.66c0.84,0.71,1.46,1.54,1.86,2.5c0.4,0.96,0.6,1.97,0.6,3.05c0,1.07-0.2,2.09-0.6,3.04
				c-0.4,0.96-1.02,1.79-1.86,2.5c-0.83,0.7-1.89,1.26-3.15,1.67c-1.26,0.41-2.76,0.61-4.48,0.61H196.8v-9.36H190v14.96h18.7
				c2.73,0,5.16-0.35,7.27-1.05c2.11-0.71,3.9-1.67,5.35-2.88c1.46-1.22,2.57-2.64,3.33-4.28c0.76-1.63,1.14-3.37,1.14-5.21
				C225.79,235,225.41,233.27,224.65,231.63z"/>
			<path class="st19" d="M264.51,241.6c0,1.33-0.36,2.58-1.08,3.76c-0.72,1.18-1.83,2.21-3.32,3.09c-1.49,0.88-3.36,1.57-5.6,2.07
				c-2.24,0.5-4.9,0.75-7.96,0.75c-1.57,0-3.18-0.13-4.83-0.38c-1.42-0.2-2.98-0.52-4.68-0.96c-1.7-0.43-3.35-1.06-4.95-1.88
				l2.36-5.37c1.42,0.72,2.84,1.27,4.27,1.67c1.43,0.4,2.72,0.68,3.88,0.86c1.37,0.21,2.68,0.32,3.94,0.34
				c3.86,0,6.74-0.34,8.64-1.04s2.84-1.6,2.84-2.72c0-0.72-0.3-1.24-0.89-1.57c-0.59-0.33-1.51-0.52-2.74-0.58
				c-0.28-0.03-0.82-0.06-1.6-0.1c-0.79-0.04-1.75-0.08-2.88-0.13c-1.13-0.05-2.4-0.1-3.79-0.15c-1.39-0.05-2.84-0.12-4.33-0.19
				c-1.49-0.08-2.87-0.28-4.12-0.61c-1.25-0.33-2.33-0.81-3.25-1.44c-0.92-0.63-1.63-1.39-2.14-2.3c-0.52-0.91-0.77-1.98-0.77-3.2
				c0-1.23,0.41-2.38,1.22-3.47c0.81-1.09,1.97-2.03,3.48-2.84c1.51-0.81,3.34-1.44,5.49-1.9c2.15-0.46,4.55-0.69,7.21-0.69
				c1.57,0,3.17,0.12,4.79,0.35c1.39,0.21,2.94,0.5,4.66,0.88c1.71,0.38,3.38,0.95,5,1.69l-2.05,5.29c-0.8-0.33-1.7-0.65-2.71-0.96
				c-1-0.31-2.05-0.58-3.15-0.8c-1.1-0.23-2.2-0.41-3.32-0.54c-1.12-0.13-2.2-0.19-3.23-0.19c-1.55,0-2.98,0.07-4.31,0.21
				c-1.33,0.14-2.48,0.35-3.46,0.63c-0.98,0.28-1.75,0.63-2.3,1.04c-0.55,0.41-0.83,0.87-0.83,1.38c0,0.67,0.28,1.16,0.85,1.5
				c0.57,0.33,1.4,0.52,2.51,0.58c1.24,0.05,2.98,0.13,5.22,0.23c2.24,0.1,4.9,0.22,7.96,0.35c1.55,0.08,2.93,0.28,4.15,0.61
				c1.22,0.33,2.27,0.81,3.13,1.42c0.86,0.61,1.53,1.37,1.99,2.26S264.51,240.45,264.51,241.6z"/>
			<path class="st19" d="M306.68,236.85c0,1.94-0.41,3.78-1.24,5.5c-0.82,1.73-2.02,3.24-3.57,4.54c-1.56,1.3-3.46,2.34-5.7,3.11
				c-2.24,0.77-4.78,1.15-7.61,1.15c-2.83,0-5.37-0.38-7.61-1.15c-2.24-0.77-4.14-1.8-5.7-3.11c-1.56-1.3-2.75-2.82-3.58-4.54
				c-0.82-1.73-1.24-3.56-1.24-5.5s0.41-3.78,1.24-5.5c0.82-1.73,2.02-3.24,3.58-4.55c1.56-1.3,3.46-2.34,5.7-3.11
				c2.24-0.77,4.78-1.15,7.61-1.15c2.83,0,5.37,0.38,7.61,1.15c2.24,0.77,4.14,1.8,5.7,3.11c1.56,1.3,2.75,2.82,3.57,4.55
				C306.27,233.07,306.68,234.9,306.68,236.85z M299.53,236.85c0-1.15-0.23-2.24-0.68-3.28c-0.45-1.04-1.13-1.95-2.05-2.74
				c-0.91-0.79-2.06-1.42-3.44-1.88c-1.38-0.46-2.98-0.69-4.81-0.69s-3.43,0.23-4.81,0.69c-1.38,0.46-2.53,1.09-3.44,1.88
				c-0.91,0.79-1.6,1.71-2.05,2.74c-0.45,1.04-0.68,2.13-0.68,3.28c0,1.15,0.23,2.24,0.68,3.28c0.45,1.04,1.13,1.95,2.05,2.74
				c0.91,0.79,2.06,1.42,3.44,1.88c1.38,0.46,2.98,0.69,4.81,0.69s3.43-0.23,4.81-0.69c1.38-0.46,2.52-1.09,3.44-1.88
				c0.91-0.79,1.6-1.71,2.05-2.74C299.3,239.09,299.53,238,299.53,236.85z"/>
			<path class="st19" d="M320.94,229.21v6.1h22.42v5.79h-22.42v9.17h-6.8v-26.85h32.27v5.79H320.94z"/>
			<path class="st19" d="M372.22,229.21v21.06h-6.76v-21.06h-12.17v-5.79h31.11v5.79H372.22z"/>
		</g>
	</g>
</g>
</svg>
