<svg width="475" height="135" viewBox="0 0 475 135" fill="none" xmlns="http://www.w3.org/2000/svg">
<path d="M0 44.5003L10.0549 50.1777L9.94422 38.6312L0 44.5003ZM333.893 43.4324L334.66 42.7916L334.66 42.7916L333.893 43.4324ZM311.043 128.048L310.756 127.09L311.043 128.048ZM192.639 66.8288L191.716 66.445L192.639 66.8288ZM344.971 49.9064L345.465 49.037L344.971 49.9064ZM4.07539 45.4613C4.62762 45.4539 5.06931 45.0002 5.06192 44.448C5.05453 43.8957 4.60086 43.4541 4.04863 43.4614L4.07539 45.4613ZM12.0464 43.2942C11.4943 43.3099 11.0595 43.7702 11.0752 44.3223C11.091 44.8743 11.5512 45.3091 12.1033 45.2934L12.0464 43.2942ZM20.0996 45.0053C20.6513 44.9812 21.0791 44.5144 21.055 43.9627C21.031 43.4109 20.5642 42.9831 20.0124 43.0072L20.0996 45.0053ZM28.0132 42.597C27.4618 42.6295 27.0412 43.1028 27.0737 43.6541C27.1062 44.2054 27.5795 44.626 28.1309 44.5935L28.0132 42.597ZM36.1098 44.0622C36.6605 44.0213 37.0739 43.5416 37.033 42.9909C36.9921 42.4401 36.5124 42.0268 35.9617 42.0677L36.1098 44.0622ZM43.947 41.4131C43.3969 41.4625 42.991 41.9484 43.0403 42.4985C43.0896 43.0485 43.5756 43.4545 44.1256 43.4051L43.947 41.4131ZM52.0907 42.6296C52.6399 42.5719 53.0384 42.0799 52.9807 41.5306C52.923 40.9814 52.431 40.5829 51.8817 40.6406L52.0907 42.6296ZM59.8335 39.7443C59.2852 39.8103 58.8942 40.3083 58.9602 40.8566C59.0262 41.405 59.5243 41.796 60.0726 41.7299L59.8335 39.7443ZM68.0251 40.712C68.5724 40.6378 68.9558 40.134 68.8816 39.5867C68.8074 39.0394 68.3036 38.6559 67.7563 38.7302L68.0251 40.712ZM75.6573 37.5993C75.1112 37.6816 74.7352 38.191 74.8174 38.7371C74.8997 39.2832 75.4091 39.6593 75.9552 39.577L75.6573 37.5993ZM83.8951 38.3221C84.4399 38.2319 84.8086 37.7172 84.7184 37.1723C84.6283 36.6274 84.1135 36.2588 83.5686 36.3489L83.8951 38.3221ZM91.4027 34.9962C90.8592 35.094 90.4978 35.6139 90.5955 36.1574C90.6933 36.701 91.2132 37.0624 91.7567 36.9647L91.4027 34.9962ZM99.6834 35.483C100.226 35.3779 100.58 34.8531 100.475 34.3109C100.37 33.7687 99.8448 33.4145 99.3026 33.5196L99.6834 35.483ZM107.103 31.9541C106.563 32.0662 106.215 32.5955 106.327 33.1363C106.439 33.6771 106.969 34.0246 107.509 33.9124L107.103 31.9541ZM115.375 32.2306C115.914 32.1119 116.255 31.5784 116.136 31.039C116.017 30.4996 115.484 30.1587 114.945 30.2774L115.375 32.2306ZM122.745 28.5126C122.207 28.6375 121.872 29.1748 121.997 29.7128C122.122 30.2508 122.659 30.5857 123.197 30.4608L122.745 28.5126ZM130.957 28.6162C131.494 28.4857 131.823 27.9449 131.692 27.4083C131.562 26.8716 131.021 26.5423 130.484 26.6728L130.957 28.6162ZM138.288 24.7367C137.752 24.8722 137.428 25.416 137.563 25.9514C137.699 26.4868 138.243 26.8111 138.778 26.6757L138.288 24.7367ZM146.53 24.6817C147.064 24.5421 147.385 23.9958 147.245 23.4614C147.105 22.9271 146.559 22.607 146.025 22.7466L146.53 24.6817ZM153.729 20.7071C153.196 20.85 152.879 21.3983 153.022 21.9318C153.165 22.4652 153.713 22.7818 154.247 22.6389L153.729 20.7071ZM162.014 20.5384C162.547 20.3932 162.861 19.8435 162.716 19.3106C162.571 18.7778 162.021 18.4636 161.488 18.6088L162.014 20.5384ZM169.206 16.4944C168.674 16.6407 168.361 17.1911 168.507 17.7237C168.654 18.2562 169.204 18.5692 169.737 18.4228L169.206 16.4944ZM177.425 16.3089C177.958 16.1627 178.271 15.6125 178.125 15.0799C177.979 14.5473 177.429 14.234 176.896 14.3802L177.425 16.3089ZM184.637 12.2675C184.104 12.4118 183.789 12.961 183.933 13.4941C184.077 14.0272 184.627 14.3423 185.16 14.1979L184.637 12.2675ZM192.905 12.1266C193.439 11.9859 193.758 11.4389 193.617 10.9048C193.476 10.3708 192.929 10.0519 192.395 10.1925L192.905 12.1266ZM200.157 8.19093C199.621 8.32568 199.296 8.8691 199.431 9.40469C199.566 9.94029 200.109 10.2652 200.645 10.1305L200.157 8.19093ZM208.394 8.24276C208.932 8.11655 209.265 7.57837 209.139 7.0407C209.013 6.50303 208.475 6.16947 207.937 6.29568L208.394 8.24276ZM215.75 4.54646C215.209 4.66101 214.864 5.19185 214.979 5.73212C215.093 6.2724 215.624 6.61751 216.164 6.50296L215.75 4.54646ZM223.996 4.9537C224.539 4.85457 224.899 4.33377 224.8 3.79045C224.701 3.24714 224.18 2.88705 223.637 2.98618L223.996 4.9537ZM231.583 1.67948C231.037 1.75879 230.658 2.26615 230.737 2.81271C230.816 3.35927 231.324 3.73806 231.87 3.65876L231.583 1.67948ZM239.775 2.68807C240.325 2.63366 240.726 2.14401 240.672 1.59441C240.617 1.04482 240.128 0.64339 239.578 0.697802L239.775 2.68807ZM247.617 0.11938C247.065 0.143252 246.637 0.609901 246.661 1.16167C246.685 1.71344 247.152 2.14138 247.703 2.11751L247.617 0.11938ZM255.638 2.02947C256.19 2.04209 256.648 1.60473 256.66 1.05259C256.673 0.500447 256.236 0.0426165 255.683 0.0299951L255.638 2.02947ZM263.744 0.516576C263.194 0.46178 262.704 0.862865 262.65 1.41242C262.595 1.96198 262.996 2.45191 263.545 2.50671L263.744 0.516576ZM271.378 3.62223C271.92 3.72375 272.443 3.36597 272.544 2.8231C272.646 2.28022 272.288 1.75784 271.745 1.65631L271.378 3.62223ZM279.619 3.5026C279.088 3.35184 278.535 3.66035 278.384 4.19166C278.233 4.72297 278.542 5.27589 279.073 5.42665L279.619 3.5026ZM286.565 7.93696C287.079 8.13677 287.659 7.88135 287.859 7.36647C288.058 6.8516 287.803 6.27224 287.288 6.07243L286.565 7.93696ZM294.682 9.34148C294.188 9.09543 293.587 9.2968 293.341 9.79125C293.095 10.2857 293.297 10.886 293.791 11.132L294.682 9.34148ZM300.708 14.9582C301.179 15.2458 301.795 15.0967 302.082 14.6252C302.37 14.1536 302.221 13.5383 301.749 13.2507L300.708 14.9582ZM308.465 17.7224C308.018 17.3989 307.393 17.4996 307.069 17.9472C306.746 18.3949 306.846 19.02 307.294 19.3435L308.465 17.7224ZM313.554 24.2138C313.978 24.5675 314.609 24.5104 314.963 24.0863C315.316 23.6621 315.259 23.0315 314.835 22.6778L313.554 24.2138ZM320.884 28.0511C320.483 27.6722 319.85 27.6908 319.471 28.0926C319.092 28.4944 319.11 29.1273 319.512 29.5062L320.884 28.0511ZM325.165 35.1341C325.547 35.5337 326.18 35.5486 326.579 35.1674C326.979 34.7862 326.994 34.1532 326.613 33.7536L325.165 35.1341ZM331.986 39.6541C331.623 39.2376 330.991 39.1941 330.575 39.5568C330.158 39.9195 330.115 40.5512 330.478 40.9677L331.986 39.6541ZM335.524 47.0961C335.857 47.5368 336.484 47.6243 336.924 47.2915C337.365 46.9586 337.453 46.3315 337.12 45.8908L335.524 47.0961ZM341.608 52.4359C341.317 51.9668 340.7 51.8228 340.231 52.1142C339.762 52.4057 339.618 53.0222 339.909 53.4914L341.608 52.4359ZM343.692 60.2555C343.939 60.7497 344.539 60.9505 345.033 60.7041C345.527 60.4576 345.728 59.8571 345.482 59.3629L343.692 60.2555ZM348.659 66.6437C348.466 66.1263 347.889 65.8637 347.372 66.0571C346.855 66.2505 346.592 66.8266 346.786 67.344L348.659 66.6437ZM349.046 74.7186C349.173 75.256 349.712 75.5882 350.25 75.4607C350.787 75.3332 351.119 74.7942 350.992 74.2569L349.046 74.7186ZM352.258 82.1444C352.214 81.5939 351.732 81.1835 351.181 81.2277C350.631 81.272 350.22 81.7541 350.265 82.3046L352.258 82.1444ZM350.188 89.9483C350.13 90.4975 350.528 90.9901 351.077 91.0485C351.626 91.1069 352.118 90.7091 352.177 90.1599L350.188 89.9483ZM350.487 98.0183C350.662 97.4942 350.378 96.9281 349.854 96.7538C349.33 96.5795 348.764 96.863 348.589 97.3871L350.487 98.0183ZM345.394 104.29C345.108 104.762 345.258 105.377 345.731 105.664C346.203 105.95 346.818 105.799 347.104 105.327L345.394 104.29ZM342.252 111.711C342.629 111.307 342.606 110.674 342.202 110.297C341.798 109.921 341.165 109.943 340.789 110.348L342.252 111.711ZM335.097 115.466C334.658 115.801 334.572 116.428 334.907 116.868C335.241 117.307 335.868 117.392 336.308 117.058L335.097 115.466ZM329.637 121.43C330.117 121.158 330.286 120.547 330.014 120.067C329.742 119.586 329.132 119.417 328.651 119.689L329.637 121.43ZM321.722 123.125C321.215 123.345 320.983 123.934 321.203 124.44C321.423 124.947 322.012 125.179 322.519 124.959L321.722 123.125ZM315.138 127.792C315.662 127.615 315.942 127.048 315.765 126.524C315.588 126.001 315.02 125.721 314.497 125.898L315.138 127.792ZM306.894 128.19C306.361 128.334 306.046 128.883 306.19 129.416C306.334 129.949 306.883 130.265 307.416 130.121L306.894 128.19ZM299.555 132.016C300.095 131.901 300.44 131.371 300.326 130.83C300.211 130.29 299.68 129.945 299.14 130.059L299.555 132.016ZM291.3 131.488C290.754 131.571 290.379 132.082 290.462 132.628C290.545 133.173 291.055 133.549 291.601 133.465L291.3 131.488ZM283.573 134.448C284.123 134.398 284.528 133.911 284.477 133.361C284.426 132.811 283.939 132.406 283.389 132.457L283.573 134.448ZM275.418 132.945C274.866 132.961 274.432 133.422 274.449 133.974C274.465 134.526 274.926 134.96 275.478 134.944L275.418 132.945ZM267.376 134.928C267.928 134.947 268.391 134.515 268.41 133.963C268.429 133.411 267.997 132.948 267.445 132.929L267.376 134.928ZM259.506 132.393C258.956 132.338 258.466 132.738 258.41 133.287C258.354 133.837 258.754 134.327 259.304 134.383L259.506 132.393ZM251.267 133.286C251.811 133.38 252.328 133.015 252.422 132.471C252.516 131.926 252.151 131.409 251.607 131.315L251.267 133.286ZM243.813 129.677C243.277 129.543 242.735 129.87 242.601 130.406C242.468 130.941 242.794 131.484 243.33 131.618L243.813 129.677ZM235.547 129.358C236.071 129.533 236.637 129.25 236.811 128.726C236.986 128.202 236.703 127.635 236.179 127.461L235.547 129.358ZM228.736 124.638C228.229 124.42 227.641 124.656 227.424 125.163C227.206 125.671 227.442 126.259 227.949 126.476L228.736 124.638ZM220.633 122.953C221.119 123.215 221.725 123.033 221.987 122.547C222.249 122.061 222.068 121.454 221.581 121.192L220.633 122.953ZM214.791 117.097C214.333 116.788 213.712 116.909 213.403 117.367C213.094 117.825 213.215 118.447 213.673 118.755L214.791 117.097ZM207.17 113.838C207.591 114.196 208.222 114.144 208.579 113.723C208.937 113.302 208.886 112.671 208.465 112.314L207.17 113.838ZM202.768 106.833C202.396 106.425 201.764 106.395 201.356 106.768C200.948 107.14 200.918 107.772 201.291 108.18L202.768 106.833ZM196.234 101.753C196.541 102.212 197.162 102.335 197.621 102.028C198.08 101.721 198.203 101.1 197.896 100.641L196.234 101.753ZM194.109 93.7673C193.888 93.2612 193.299 93.0303 192.792 93.2515C192.286 93.4726 192.055 94.0622 192.277 94.5682L194.109 93.7673ZM189.769 86.7308C189.88 87.2719 190.408 87.6205 190.949 87.5096C191.49 87.3987 191.839 86.8702 191.728 86.3291L189.769 86.7308ZM191.062 78.5788C191.081 78.0269 190.649 77.5641 190.097 77.5452C189.545 77.5264 189.082 77.9585 189.063 78.5105L191.062 78.5788ZM190.351 70.3491C190.2 70.8802 190.508 71.4335 191.039 71.585C191.57 71.7364 192.123 71.4286 192.275 70.8975L190.351 70.3491ZM195.164 63.7418C195.414 63.2495 195.218 62.6475 194.726 62.3972C194.233 62.1469 193.631 62.3431 193.381 62.8355L195.164 63.7418ZM197.493 56.0449C197.174 56.4953 197.28 57.1196 197.73 57.4392C198.18 57.7588 198.805 57.6529 199.124 57.2025L197.493 56.0449ZM203.976 51.2821C204.354 50.8795 204.334 50.2466 203.932 49.8686C203.529 49.4905 202.896 49.5104 202.518 49.913L203.976 51.2821ZM208.294 44.4998C207.868 44.8518 207.809 45.4822 208.161 45.9078C208.513 46.3333 209.143 46.393 209.568 46.041L208.294 44.4998ZM215.758 41.5024C216.221 41.2015 216.353 40.5822 216.052 40.119C215.751 39.6559 215.131 39.5244 214.668 39.8252L215.758 41.5024ZM221.512 35.8814C221.019 36.1321 220.824 36.7342 221.074 37.2263C221.325 37.7185 221.927 37.9142 222.419 37.6636L221.512 35.8814ZM229.449 34.5062C229.963 34.3041 230.216 33.7236 230.013 33.2096C229.811 32.6956 229.231 32.4428 228.717 32.6449L229.449 34.5062ZM236.17 30.0936C235.64 30.2495 235.337 30.8054 235.493 31.3352C235.649 31.865 236.205 32.1682 236.734 32.0123L236.17 30.0936ZM244.217 30.144C244.758 30.0319 245.106 29.5027 244.994 28.9619C244.882 28.4211 244.352 28.0735 243.812 28.1856L244.217 30.144ZM251.579 26.8859C251.032 26.9565 250.645 27.4578 250.715 28.0055C250.786 28.5533 251.287 28.9401 251.835 28.8695L251.579 26.8859ZM259.524 28.1573C260.075 28.1256 260.496 27.653 260.465 27.1016C260.433 26.5503 259.96 26.1289 259.409 26.1606L259.524 28.1573ZM267.268 25.9733C266.716 25.9683 266.264 26.412 266.259 26.9642C266.254 27.5165 266.698 27.9682 267.25 27.9732L267.268 25.9733ZM274.99 28.2866C275.541 28.326 276.019 27.9113 276.059 27.3604C276.098 26.8095 275.683 26.3311 275.132 26.2917L274.99 28.2866ZM282.933 27.0812C282.386 27.0097 281.884 27.3957 281.812 27.9433C281.741 28.4909 282.127 28.9929 282.675 29.0643L282.933 27.0812ZM290.32 30.2801C290.862 30.3817 291.385 30.0241 291.486 29.4812C291.588 28.9383 291.23 28.4159 290.688 28.3143L290.32 30.2801ZM298.371 29.9636C297.834 29.8337 297.294 30.1636 297.164 30.7004C297.034 31.2372 297.364 31.7777 297.901 31.9075L298.371 29.9636ZM305.388 33.9176C305.918 34.0738 306.474 33.771 306.63 33.2413C306.786 32.7116 306.483 32.1555 305.954 31.9993L305.388 33.9176ZM313.413 34.3916C312.891 34.2108 312.321 34.4873 312.14 35.0091C311.96 35.531 312.236 36.1006 312.758 36.2814L313.413 34.3916ZM320.019 38.9808C320.533 39.1846 321.114 38.9336 321.318 38.4203C321.522 37.907 321.271 37.3257 320.757 37.1219L320.019 38.9808ZM327.978 40.1675C327.474 39.9422 326.882 40.1684 326.657 40.6727C326.432 41.177 326.658 41.7684 327.162 41.9936L327.978 40.1675ZM334.178 45.2988C334.673 45.5441 335.273 45.3417 335.518 44.8469C335.764 44.352 335.561 43.7521 335.066 43.5068L334.178 45.2988ZM342.018 47.1199C341.533 46.856 340.926 47.0353 340.662 47.5205C340.398 48.0056 340.577 48.6128 341.062 48.8768L342.018 47.1199ZM347.938 52.7497C348.417 53.0241 349.028 52.858 349.303 52.3787C349.577 51.8995 349.411 51.2885 348.932 51.0141L347.938 52.7497ZM355.751 54.9472C355.274 54.6698 354.662 54.8321 354.384 55.3096C354.107 55.7872 354.269 56.3992 354.747 56.6766L355.751 54.9472ZM361.527 60.6421C362.003 60.9223 362.616 60.7636 362.896 60.2876C363.176 59.8117 363.017 59.1987 362.541 58.9186L361.527 60.6421ZM369.296 62.9184C368.822 62.6359 368.208 62.7916 367.926 63.2661C367.643 63.7407 367.799 64.3544 368.273 64.6369L369.296 62.9184ZM375.035 68.6796C375.508 68.9638 376.122 68.8102 376.407 68.3366C376.691 67.8631 376.537 67.2488 376.064 66.9646L375.035 68.6796ZM382.818 71.0248C382.345 70.7401 381.731 70.8931 381.446 71.3663C381.161 71.8396 381.314 72.454 381.788 72.7387L382.818 71.0248ZM388.518 76.7766C388.992 77.0598 389.606 76.9051 389.89 76.431C390.173 75.9568 390.018 75.3429 389.544 75.0596L388.518 76.7766ZM396.317 79.0687C395.84 78.7899 395.228 78.9504 394.949 79.4272C394.67 79.9039 394.831 80.5164 395.307 80.7952L396.317 79.0687ZM402.155 84.7195C402.637 84.989 403.246 84.8166 403.515 84.3345C403.785 83.8524 403.613 83.2432 403.13 82.9737L402.155 84.7195ZM410.025 86.685C409.534 86.4325 408.931 86.626 408.678 87.1171C408.426 87.6083 408.619 88.2112 409.11 88.4637L410.025 86.685ZM416.244 91.8972C416.749 92.1214 417.34 91.8941 417.564 91.3894C417.789 90.8847 417.561 90.2937 417.057 90.0695L416.244 91.8972ZM424.28 92.9442C423.758 92.7627 423.188 93.0384 423.007 93.56C422.825 94.0816 423.101 94.6516 423.622 94.8331L424.28 92.9442ZM431.275 97.0609C431.813 97.1863 432.351 96.8519 432.476 96.314C432.602 95.7762 432.267 95.2385 431.729 95.1131L431.275 97.0609ZM439.368 96.4455C438.82 96.381 438.323 96.7733 438.258 97.3217C438.194 97.8702 438.586 98.3672 439.135 98.4318L439.368 96.4455ZM447.068 98.9596C447.62 98.9701 448.076 98.531 448.087 97.9788C448.097 97.4266 447.658 96.9705 447.106 96.9599L447.068 98.9596ZM454.889 96.7993C454.337 96.8305 453.916 97.3027 453.947 97.8541C453.978 98.4055 454.45 98.8273 455.001 98.7962L454.889 96.7993ZM462.891 98.1248C463.44 98.0641 463.835 97.5698 463.775 97.0209C463.714 96.472 463.22 96.0762 462.671 96.1369L462.891 98.1248ZM470.445 95.1204C469.899 95.2016 469.522 95.7102 469.603 96.2565C469.684 96.8028 470.193 97.1798 470.739 97.0987L470.445 95.1204ZM12.1033 45.2934C14.7937 45.2168 17.459 45.1205 20.0996 45.0053L20.0124 43.0072C17.3819 43.1219 14.7267 43.2179 12.0464 43.2942L12.1033 45.2934ZM28.1309 44.5935C30.8164 44.4352 33.4759 44.2578 36.1098 44.0622L35.9617 42.0677C33.3379 42.2625 30.6885 42.4393 28.0132 42.597L28.1309 44.5935ZM44.1256 43.4051C46.8076 43.1646 49.4625 42.9057 52.0907 42.6296L51.8817 40.6406C49.2635 40.9156 46.6188 41.1735 43.947 41.4131L44.1256 43.4051ZM60.0726 41.7299C62.7515 41.4074 65.4021 41.0677 68.0251 40.712L67.7563 38.7302C65.1431 39.0845 62.5024 39.423 59.8335 39.7443L60.0726 41.7299ZM75.9552 39.577C78.6311 39.174 81.2775 38.7552 83.8951 38.3221L83.5686 36.3489C80.9603 36.7805 78.3234 37.1978 75.6573 37.5993L75.9552 39.577ZM91.7567 36.9647C94.4294 36.484 97.0713 35.9896 99.6834 35.483L99.3026 33.5196C96.6992 34.0245 94.0662 34.5173 91.4027 34.9962L91.7567 36.9647ZM107.509 33.9124C110.162 33.3624 112.784 32.8011 115.375 32.2306L114.945 30.2774C112.361 30.8462 109.748 31.4057 107.103 31.9541L107.509 33.9124ZM123.197 30.4608C125.815 29.8529 128.402 29.2373 130.957 28.6162L130.484 26.6728C127.936 27.2924 125.356 27.9064 122.745 28.5126L123.197 30.4608ZM138.778 26.6757C141.395 26.0138 143.979 25.3483 146.53 24.6817L146.025 22.7466C143.477 23.4121 140.899 24.0763 138.288 24.7367L138.778 26.6757ZM154.247 22.6389C156.87 21.9362 159.459 21.235 162.014 20.5384L161.488 18.6088C158.935 19.3049 156.349 20.0052 153.729 20.7071L154.247 22.6389ZM169.737 18.4228C172.334 17.7087 174.896 17.0032 177.425 16.3089L176.896 14.3802C174.366 15.0746 171.803 15.7807 169.206 16.4944L169.737 18.4228ZM185.16 14.1979C187.777 13.4892 190.358 12.7974 192.905 12.1266L192.395 10.1925C189.843 10.8648 187.257 11.5578 184.637 12.2675L185.16 14.1979ZM200.645 10.1305C203.264 9.47165 205.846 8.84086 208.394 8.24276L207.937 6.29568C205.377 6.89656 202.784 7.52991 200.157 8.19093L200.645 10.1305ZM216.164 6.50296C218.811 5.94187 221.42 5.42357 223.996 4.9537L223.637 2.98618C221.041 3.45983 218.412 3.98188 215.75 4.54646L216.164 6.50296ZM231.87 3.65876C234.54 3.27137 237.174 2.94556 239.775 2.68807L239.578 0.697802C236.944 0.958538 234.28 1.28815 231.583 1.67948L231.87 3.65876ZM247.703 2.11751C250.38 2.00169 253.024 1.96972 255.638 2.02947L255.683 0.0299951C253.023 -0.0308311 250.335 0.00178963 247.617 0.11938L247.703 2.11751ZM263.545 2.50671C266.182 2.76961 268.791 3.13856 271.378 3.62223L271.745 1.65631C269.101 1.16172 266.435 0.784889 263.744 0.516576L263.545 2.50671ZM279.073 5.42665C281.587 6.13986 284.083 6.97377 286.565 7.93696L287.288 6.07243C284.747 5.08643 282.192 4.23271 279.619 3.5026L279.073 5.42665ZM293.791 11.132C296.104 12.2828 298.408 13.5558 300.708 14.9582L301.749 13.2507C299.402 11.819 297.047 10.5183 294.682 9.34148L293.791 11.132ZM307.294 19.3435C309.381 20.8517 311.467 22.4732 313.554 24.2138L314.835 22.6778C312.714 20.9088 310.592 19.2587 308.465 17.7224L307.294 19.3435ZM319.512 29.5062C321.393 31.2802 323.277 33.1548 325.165 35.1341L326.613 33.7536C324.701 31.7499 322.792 29.8504 320.884 28.0511L319.512 29.5062ZM330.478 40.9677C331.359 41.9794 332.241 43.0144 333.125 44.0732L334.66 42.7916C333.768 41.7223 332.876 40.6766 331.986 39.6541L330.478 40.9677ZM333.125 44.0732C333.922 45.0279 334.724 46.0373 335.524 47.0961L337.12 45.8908C336.301 44.8064 335.478 43.7716 334.66 42.7916L333.125 44.0732ZM339.909 53.4914C341.242 55.6369 342.518 57.9013 343.692 60.2555L345.482 59.3629C344.278 56.9498 342.972 54.6311 341.608 52.4359L339.909 53.4914ZM346.786 67.344C347.687 69.7562 348.454 72.2231 349.046 74.7186L350.992 74.2569C350.379 71.6728 349.587 69.1262 348.659 66.6437L346.786 67.344ZM350.265 82.3046C350.47 84.8605 350.457 87.4169 350.188 89.9483L352.177 90.1599C352.461 87.4941 352.473 84.8127 352.258 82.1444L350.265 82.3046ZM348.589 97.3871C347.808 99.7372 346.755 102.046 345.394 104.29L347.104 105.327C348.544 102.953 349.659 100.508 350.487 98.0183L348.589 97.3871ZM340.789 110.348C339.143 112.115 337.253 113.826 335.097 115.466L336.308 117.058C338.549 115.353 340.524 113.566 342.252 111.711L340.789 110.348ZM328.651 119.689C326.529 120.891 324.223 122.039 321.722 123.125L322.519 124.959C325.08 123.847 327.449 122.668 329.637 121.43L328.651 119.689ZM314.497 125.898C313.287 126.308 312.04 126.705 310.756 127.09L311.33 129.006C312.636 128.615 313.905 128.21 315.138 127.792L314.497 125.898ZM310.756 127.09C309.464 127.477 308.177 127.843 306.894 128.19L307.416 130.121C308.716 129.769 310.021 129.398 311.33 129.006L310.756 127.09ZM299.14 130.059C296.501 130.618 293.887 131.093 291.3 131.488L291.601 133.465C294.226 133.065 296.878 132.583 299.555 132.016L299.14 130.059ZM283.389 132.457C280.697 132.705 278.039 132.866 275.418 132.945L275.478 134.944C278.14 134.864 280.839 134.7 283.573 134.448L283.389 132.457ZM267.445 132.929C264.75 132.837 262.102 132.657 259.506 132.393L259.304 134.383C261.945 134.651 264.637 134.834 267.376 134.928L267.445 132.929ZM251.607 131.315C248.944 130.856 246.344 130.307 243.813 129.677L243.33 131.618C245.909 132.26 248.556 132.818 251.267 133.286L251.607 131.315ZM236.179 127.461C233.61 126.605 231.127 125.661 228.736 124.638L227.949 126.476C230.391 127.522 232.926 128.485 235.547 129.358L236.179 127.461ZM221.581 121.192C219.198 119.908 216.932 118.539 214.791 117.097L213.673 118.755C215.87 120.236 218.193 121.638 220.633 122.953L221.581 121.192ZM208.465 112.314C206.397 110.558 204.495 108.726 202.768 106.833L201.291 108.18C203.077 110.14 205.041 112.03 207.17 113.838L208.465 112.314ZM197.896 100.641C196.397 98.4005 195.13 96.1028 194.109 93.7673L192.277 94.5682C193.348 97.019 194.673 99.4205 196.234 101.753L197.896 100.641ZM191.728 86.3291C191.201 83.7604 190.974 81.1695 191.062 78.5788L189.063 78.5105C188.969 81.2646 189.211 84.0133 189.769 86.7308L191.728 86.3291ZM192.275 70.8975C192.626 69.6646 193.055 68.4354 193.563 67.2125L191.716 66.445C191.179 67.7386 190.724 69.0408 190.351 70.3491L192.275 70.8975ZM193.563 67.2125C194.051 66.0378 194.585 64.8804 195.164 63.7418L193.381 62.8355C192.779 64.0191 192.224 65.2228 191.716 66.445L193.563 67.2125ZM199.124 57.2025C200.584 55.1463 202.204 53.1696 203.976 51.2821L202.518 49.913C200.685 51.8652 199.007 53.9123 197.493 56.0449L199.124 57.2025ZM209.568 46.041C211.506 44.4384 213.571 42.9228 215.758 41.5024L214.668 39.8252C212.419 41.2862 210.292 42.847 208.294 44.4998L209.568 46.041ZM222.419 37.6636C224.665 36.5197 227.01 35.4651 229.449 34.5062L228.717 32.6449C226.22 33.6268 223.816 34.7077 221.512 35.8814L222.419 37.6636ZM236.734 32.0123C239.155 31.3002 241.651 30.6757 244.217 30.144L243.812 28.1856C241.193 28.7281 238.644 29.3658 236.17 30.0936L236.734 32.0123ZM251.835 28.8695C254.342 28.5464 256.906 28.3076 259.524 28.1573L259.409 26.1606C256.745 26.3135 254.134 26.5566 251.579 26.8859L251.835 28.8695ZM267.25 27.9732C269.787 27.996 272.368 28.0993 274.99 28.2866L275.132 26.2917C272.47 26.1015 269.848 25.9964 267.268 25.9733L267.25 27.9732ZM282.675 29.0643C285.191 29.3928 287.74 29.7972 290.32 30.2801L290.688 28.3143C288.072 27.8246 285.487 27.4145 282.933 27.0812L282.675 29.0643ZM297.901 31.9075C300.372 32.5054 302.869 33.1747 305.388 33.9176L305.954 31.9993C303.403 31.2472 300.875 30.5693 298.371 29.9636L297.901 31.9075ZM312.758 36.2814C315.161 37.1139 317.582 38.013 320.019 38.9808L320.757 37.1219C318.292 36.1434 315.844 35.2339 313.413 34.3916L312.758 36.2814ZM327.162 41.9936C329.488 43.0324 331.827 44.1336 334.178 45.2988L335.066 43.5068C332.692 42.3299 330.328 41.2172 327.978 40.1675L327.162 41.9936ZM341.062 48.8768C342.198 49.4947 343.337 50.1277 344.477 50.7759L345.465 49.037C344.314 48.3828 343.165 47.7438 342.018 47.1199L341.062 48.8768ZM344.477 50.7759C345.648 51.4412 346.802 52.0992 347.938 52.7497L348.932 51.0141C347.794 50.3624 346.638 49.7034 345.465 49.037L344.477 50.7759ZM354.747 56.6766C357.082 58.0333 359.34 59.355 361.527 60.6421L362.541 58.9186C360.352 57.6297 358.09 56.306 355.751 54.9472L354.747 56.6766ZM368.273 64.6369C370.612 66.0294 372.863 67.3768 375.035 68.6796L376.064 66.9646C373.891 65.661 371.638 64.3125 369.296 62.9184L368.273 64.6369ZM381.788 72.7387C384.124 74.1439 386.364 75.4898 388.518 76.7766L389.544 75.0596C387.393 73.7745 385.155 72.4299 382.818 71.0248L381.788 72.7387ZM395.307 80.7952C397.686 82.186 399.962 83.4938 402.155 84.7195L403.13 82.9737C400.952 81.7559 398.688 80.4548 396.317 79.0687L395.307 80.7952ZM409.11 88.4637C411.562 89.7238 413.928 90.8678 416.244 91.8972L417.057 90.0695C414.78 89.0581 412.449 87.931 410.025 86.685L409.11 88.4637ZM423.622 94.8331C426.171 95.7199 428.704 96.4616 431.275 97.0609L431.729 95.1131C429.231 94.5309 426.766 93.8093 424.28 92.9442L423.622 94.8331ZM439.135 98.4318C441.688 98.7324 444.318 98.9072 447.068 98.9596L447.106 96.9599C444.417 96.9087 441.853 96.7379 439.368 96.4455L439.135 98.4318ZM455.001 98.7962C457.511 98.6545 460.132 98.4301 462.891 98.1248L462.671 96.1369C459.943 96.4388 457.358 96.66 454.889 96.7993L455.001 98.7962ZM470.739 97.0987C472.017 96.9088 473.323 96.7049 474.661 96.487L474.339 94.513C473.01 94.7295 471.713 94.932 470.445 95.1204L470.739 97.0987Z" fill="#0072F1" fill-opacity="0.5"/>
</svg>
