<?xml version="1.0" encoding="utf-8"?>
<!-- Generator: Adobe Illustrator 26.0.2, SVG Export Plug-In . SVG Version: 6.00 Build 0)  -->
<svg version="1.1" id="Layer_1" xmlns="http://www.w3.org/2000/svg" xmlns:xlink="http://www.w3.org/1999/xlink" x="0px" y="0px"
	 viewBox="0 0 1245 300" style="enable-background:new 0 0 1245 300;" xml:space="preserve">
<g>
	<g>
		<path style="fill:#EAF2FB;" d="M76.25,185.83c-75.05,18.45-114.4,60.06-53.65,115.52h1195.33c20.29-20.09,32.42-46.49,36.25-62.19
			c8.31-34.27-21.47-69.88-73.96-88.67c-132.84-47.58-243.28,18.48-313.07-9.44c-40.34-16.12-36.5-61.38-68.03-82.38
			C729.45,12.3,598.37-10.56,469.13-2.36c-85.99,5.46-163.56,23.27-210.87,53.4c-64.81,41.26-17.63,70.83-46.24,99.35
			C180.11,182.18,126.35,173.48,76.25,185.83z"/>
		<path style="fill:#FFC253;" d="M1067.02,153.05H854.8v144.63h212.22V153.05z"/>
		<path style="fill:#E09736;" d="M854.81,153.05l99.6,91.58c1.78,1.63,4.09,2.54,6.5,2.54c2.4,0,4.72-0.91,6.5-2.54l99.61-91.58
			H854.81z"/>
		<path style="fill:#E09736;" d="M1067.02,297.69l-106.11-111.6l106.11,102.09V297.69z"/>
		<path style="fill:#E09736;" d="M854.8,297.69l106.11-111.6L854.8,288.18V297.69z"/>
		<path style="fill:#FFC854;" d="M854.81,153.05l98.06,83.5c2.25,1.91,5.09,2.96,8.03,2.96c2.94,0,5.78-1.05,8.03-2.96l98.06-83.5
			H854.81z"/>
		<path style="fill:#40C7A7;" d="M1074.98,301.14c0,0-8.01-3.64-7.45-12.3c0.56-8.66,6.45-10.44,11.53-13.59
			c5.08-3.15,5.47-8.46,5.67-14.96c0.2-6.5,4.47-13,13.09-12.6c8.62,0.4,11.77,2.16,18-5.32c6.23-7.48,14.63-7.29,18.15-3.15
			c3.51,4.14,3.72,11.26-1.58,16.16c-6.49,6.01-8.2,7.51-10.05,14.03c-2.55,8.91,1.13,17.59-2.14,21.73
			c-4.37,5.53-9.08,4.17-13.57,6.01c-4.5,1.83-4.66,4.04-4.66,4.04L1074.98,301.14z"/>
		<path style="fill:none;stroke:#3B55CE;stroke-width:1.05;stroke-linecap:round;stroke-miterlimit:10;" d="M1126.28,244.98
			c-13.15,7.73-36.03,31.22-39.92,56.16"/>
		<path style="fill:#DD7A79;" d="M231.74,143.11c6.82,6.26,14.23,10.51,22.82,8.86c12.1-2.32,21.51-14.75,21.51-14.75
			s3.12,4.1,3.12,4.51c0,0.41-7.99,16.39-22.5,19.65c-14.5,3.26-27.57-7.19-27.57-7.19L231.74,143.11z"/>
		<path style="fill:#4AA4F4;" d="M355.98,229.39c2.77,3.94,6.85,6.76,11.5,7.95c4.65,1.19,9.57,0.67,13.87-1.47l16.14-8.02
			c1.48-0.73,3.18-0.88,4.77-0.44s2.96,1.47,3.85,2.87l29.17,46.19c0.49,0.77,0.82,1.63,0.96,2.54c0.15,0.9,0.11,1.83-0.11,2.71
			c-0.22,0.89-0.62,1.72-1.16,2.45c-0.55,0.73-1.24,1.34-2.03,1.79c-9.41,5.38-28.91,14.48-50.38,12.72
			c-30.12-2.47-49.75-30.7-82.9-83.21c-33.15-52.52-50.24-82.37-39.71-110.91c7.5-20.32,23.93-34.27,32.77-40.61
			c0.74-0.53,1.58-0.89,2.47-1.09c0.89-0.19,1.8-0.2,2.69-0.02c0.89,0.18,1.74,0.53,2.49,1.05c0.75,0.51,1.39,1.18,1.88,1.95
			l29.17,46.2c0.88,1.4,1.22,3.08,0.95,4.72c-0.27,1.64-1.12,3.12-2.4,4.16l-14.05,11.34c-3.74,3.02-6.3,7.29-7.2,12.04
			c-0.9,4.75-0.09,9.66,2.28,13.87L355.98,229.39z"/>
		<path style="fill:#2E90E8;" d="M318.14,130.47l11.82-9.55c1.28-1.04,2.14-2.52,2.41-4.16c0.27-1.64-0.07-3.32-0.95-4.72
			l-15.42-24.42l-13.93-22.01c-0.5-0.73-1.14-1.35-1.89-1.83c-0.74-0.48-1.57-0.8-2.44-0.96c-0.87-0.15-1.76-0.13-2.62,0.06
			c-0.86,0.2-1.67,0.56-2.39,1.07c-3.84,2.78-7.49,5.8-10.95,9.05L318.14,130.47z"/>
		<path style="fill:#2E90E8;" d="M420.17,292.15c4.39-1.78,8.65-3.85,12.77-6.19c0.76-0.44,1.43-1.02,1.97-1.72
			c0.54-0.7,0.93-1.5,1.17-2.35c0.23-0.85,0.29-1.75,0.18-2.62c-0.11-0.88-0.39-1.72-0.83-2.49l-29.95-47.35
			c-0.97-1.1-2.28-1.86-3.71-2.14c-1.44-0.29-2.93-0.09-4.24,0.57l-13.72,6.82L420.17,292.15z"/>
		<path style="fill:#309AD6;" d="M232.18,143.45l5.52,4.17c0,0,2.49,7.7-1.71,11.69l-7.33-4.46L232.18,143.45z"/>
		<path style="fill:#91DBAC;" d="M348.76,300.93c3.78-3.11,6.83-7.02,8.95-11.46c3.62-7.62,0.4-14.27-4.71-13.31
			c-5.38,1.03-6.15-3.39-7.63-9.04c-1.78-6.77-10.44-16.36-17.51-15.4c-9.12,1.25-3.36,11.08-2.43,14.65
			c0.93,3.56,3.23,7.68-2.42,8.24c-5.16,0.51-7.4,5.22-3.39,10.05c3.81,4.59,7.97,4.52,8.16,9.17c0.18,4.65,3.07,5.98,5.49,7.09
			H348.76z"/>
		<path style="fill:none;stroke:#3B55CE;stroke-width:1.05;stroke-linecap:round;stroke-miterlimit:10;" d="M331.69,259.87
			c0,0,12.43,16.35,9.29,41.06"/>
		<path style="fill:#40C7A7;" d="M427.53,300.68c1.08-1.71,1.77-3.65,2.01-5.67c0.24-2.02,0.03-4.06-0.61-5.99
			c-2.74-8.88-10.92-12.99-7.97-18.8c2.45-4.84,9.79-2.39,13.68,4.13c3.74,6.26,4.03,19.46-1.88,26.32H427.53z"/>
		<path style="fill:none;stroke:#3B55CE;stroke-width:1.05;stroke-linecap:round;stroke-miterlimit:10;" d="M426.72,272.77
			c0,0,11.27,12.28,3.89,27.92"/>
		<path style="fill:#22A482;" d="M435.87,300.68c5.8-4,10.36-9.56,13.16-16.05c4.66-10.84,4.86-23.47,0-27.96
			c-4.54-4.19-9.92-1.63-11.34,5.71s1.82,25.98-7.7,38.3H435.87z"/>
		<path style="fill:none;stroke:#3B55CE;stroke-width:1.05;stroke-linecap:round;stroke-miterlimit:10;" d="M444.78,258.71
			c0.75,7.68,0.13,15.43-1.82,22.88c-1.84,6.91-5,13.4-9.31,19.08"/>
		<path style="fill:#91DBAC;" d="M850.94,297.68c0,0,0.17-14.05-10.88-27.14c-11.06-13.09-23.68-17.77-34.64-13.8
			c-8.12,2.96-6.05,12.45,0.62,16.49c7.88,4.79,37.37,6.73,38.42,24.45H850.94z"/>
		<path style="fill:none;stroke:#3B55CE;stroke-width:1.05;stroke-linecap:round;stroke-miterlimit:10;" d="M806.59,263.09
			c15.03-0.86,38.03,13.09,41.19,34.61"/>
		<path style="fill:#3DC19A;" d="M854.37,297.68c0,0,7.28-7.82,5.87-22.87c-1.41-15.05-14.55-18.8-16.91-11.52
			c-1.87,5.73,10.94,19.06,6.37,34.39H854.37z"/>
		<path style="fill:none;stroke:#3B55CE;stroke-width:1.05;stroke-linecap:round;stroke-miterlimit:10;" d="M849.71,264.36
			c2.82,3.68,8.24,18.72,2.71,33.32"/>
		<path style="fill:#8FC9C6;" d="M243.79,297.44c0.33,0.62,0.08,1.86-2.37,2.89c-2.45,1.03-6.9,0.59-8.66,0.24
			c-1.76-0.35-2.84-0.87-5.45-0.32c-2.61,0.55-6.89,0.31-8.19-0.79c-0.45-0.52-0.15-1.61-0.15-1.61L243.79,297.44z"/>
		<path style="fill:#228C7E;" d="M220.37,289.73c-0.36,1.81-1.82,6.06-1.4,8.13c1.84,1.57,5.76,1.67,8.74,0.92
			c2.98-0.75,5.02,0.77,8.74,1c3.72,0.22,6.66-0.81,7.4-2.34c0.81-1.67-5.53-2.96-9.85-4.3c-2.7-0.76-5.21-2.09-7.36-3.9
			L220.37,289.73z"/>
		<path style="fill:none;stroke:#8FC9C6;stroke-width:0.53;stroke-linecap:round;stroke-miterlimit:10;" d="M228.08,293.23
			c0,0,0.87-2.45,2.02-3.25"/>
		<path style="fill:none;stroke:#8FC9C6;stroke-width:0.53;stroke-linecap:round;stroke-miterlimit:10;" d="M231.35,294.54
			c0,0,0.87-2.45,2.02-3.25"/>
		<path style="fill:none;stroke:#8FC9C6;stroke-width:0.53;stroke-linecap:round;stroke-miterlimit:10;" d="M234.66,295.85
			c0,0,0.87-2.45,2.02-3.25"/>
		<path style="fill:#FF9A8D;" d="M220.37,282.53v7.2c0.43,0.14,0.84,0.37,1.18,0.68c0.34,0.41,0.81,1.77,1.4,1.8
			c2.31,0.09,3.67-2.97,3.67-2.97l0.87-6.55L220.37,282.53z"/>
		<path style="fill:#AAEEED;" d="M162.77,299.33c-0.5,0.48-1.76,0.57-3.39-1.54c-1.63-2.11-2.39-6.54-2.53-8.35
			c-0.13-1.81,0.08-2.99-1.14-5.38c-1.22-2.39-2.12-6.62-1.41-8.17c0.38-0.58,1.5-0.57,1.5-0.57L162.77,299.33z"/>
		<path style="fill:#03AA99;" d="M163.93,274.5c-1.82,0.13-6.28-0.16-8.14,0.79c-1.01,2.2-0.08,6.05,1.42,8.71s0.59,5.08,1.34,8.73
			c0.76,3.65,2.53,6.26,4.19,6.57c1.81,0.35,1.34-6.16,1.51-10.71c0.02-2.81,0.63-5.58,1.8-8.13L163.93,274.5z"/>
		<path style="fill:none;stroke:#AAEEED;stroke-width:0.53;stroke-linecap:round;stroke-miterlimit:10;" d="M162.62,282.92
			c0,0,2.58,0.2,3.65,1.12"/>
		<path style="fill:none;stroke:#AAEEED;stroke-width:0.53;stroke-linecap:round;stroke-miterlimit:10;" d="M162.23,286.46
			c0,0,2.58,0.2,3.65,1.12"/>
		<path style="fill:none;stroke:#AAEEED;stroke-width:0.53;stroke-linecap:round;stroke-miterlimit:10;" d="M161.85,290
			c0,0,2.58,0.2,3.64,1.12"/>
		<path style="fill:#FF9A8D;" d="M168.54,271.16l-4.61,3.34c-0.02,0.46-0.14,0.91-0.35,1.32c-0.3,0.45-1.47,1.27-1.34,1.84
			c0.52,2.27,3.82,2.78,3.82,2.78l6.41-3.45L168.54,271.16z"/>
		<path style="fill:#1E4174;" d="M234.18,179.91c-8.01,0-13.96,0.61-13.96,0.61c-2.56,1.12-6.96,6.99-8.25,10.71
			c-1.29,3.72,0.63,8.93,1.3,12.13c3.76,17.84,7.61,30.24,9.07,37.31c0.89,4.33-2.29,5.02-2.32,11.87
			c-0.05,9.82,0.36,30.73,0.36,30.73c2.16,1.09,4.66,1.28,6.97,0.56c0,0,6-34.5,6.66-38.45c1.07-6.4,1.44-9.08,1.56-20.16
			C235.72,209.63,234.18,179.91,234.18,179.91z"/>
		<path style="fill:#85B8ED;" d="M234.08,193.42c-1.34,6.31-10.32,13.91-10.32,13.91c-1.02,2.95-14.18,48.36-16.38,50.09
			c-2.2,1.73-34.91,19.55-34.91,19.55c-1.35-0.75-2.43-1.9-3.11-3.29c-0.33-0.69-0.58-1.41-0.75-2.16c-0.02-0.1-0.04-0.21-0.05-0.31
			c0-0.02,0-0.05,0-0.07c0,0,16.75-17.85,20.7-19.75c2.15-1.1,4.4-1.98,6.72-2.64l0,0c4.5-21.1,4.36-37.59,8.01-49.25
			c0.59-1.95,1.3-3.86,2.12-5.73c0.93-2.07,1.65-3.79,2.22-5.26c0.24-0.64,0.46-1.21,0.67-1.77c0.22-0.56,0.38-1.06,0.52-1.54
			c0.11-0.33,0.2-0.64,0.29-0.92c0.42-1.35,0.71-2.38,1.04-3.39c0.15-0.45,0.3-0.88,0.46-1.35c0.09-0.22,0.17-0.44,0.26-0.68
			c0.09-0.24,0.19-0.46,0.3-0.68l6.25,4.69l3.01,2.26L234.08,193.42z"/>
		<path style="fill:#4E7EAC;" d="M221.13,185.16c-1.14,1.49-2.42,2.88-3.81,4.13c-4.65,4.06-7.46,10.41-9.93,23.56
			c-2.79,14.8-7.48,36.8-8.07,38.17c-0.59,1.37-4.71,0.85-12.24,6.41c-5.7,4.19-13.99,12.93-17.74,16.26
			c-0.33-0.69-0.58-1.41-0.75-2.16c0-0.15-0.04-0.26-0.05-0.31c0-0.02,0-0.05,0-0.07c0,0,16.75-17.85,20.7-19.75
			c2.15-1.1,4.4-1.98,6.72-2.64l0,0c4.3-21.1,4.36-37.59,8.01-49.25c0.59-1.95,1.3-3.86,2.13-5.72c0.93-2.07,1.65-3.79,2.21-5.28
			c0.26-0.64,0.47-1.23,0.67-1.77c0.2-0.54,0.38-1.06,0.52-1.54c0.11-0.33,0.2-0.64,0.29-0.92c0.42-1.35,0.71-2.38,1.04-3.39
			c0.15-0.45,0.3-0.88,0.46-1.35c0.09-0.22,0.17-0.44,0.26-0.68c0.09-0.24,0.2-0.45,0.31-0.68l6.25,4.71L221.13,185.16z"/>
		<path style="fill:#4E7EAC;" d="M234.08,193.42c0,0-4.09,5.42-15.35,5.83c-7.78,0.3-12.73-2.85-12.73-2.85l3.04-4.8L234.08,193.42z
			"/>
		<path style="fill:none;stroke:#274D79;stroke-width:0.53;stroke-miterlimit:10;" d="M229.33,181.01
			c-4.71,6.1-10.76,9.79-13.22,13.97c-2.47,4.18-3.89,13.22-7.13,29.73c-3.22,16.4-6.15,27.57-7.05,28.56
			c-0.89,0.99-6.41,1.96-15.04,7.8c-8.63,5.83-18.63,15.18-18.63,15.18"/>
		<path style="fill:none;stroke:#274D79;stroke-width:0.53;stroke-miterlimit:10;" d="M224.14,195.43c0,0-1.88,10.39-11.05,8.65"/>
		<path style="fill:none;stroke:#274D79;stroke-width:0.53;stroke-miterlimit:10;" d="M170.32,267.92c0.04,2.79,1.98,6.83,5.53,8.98
			"/>
		<path style="fill:#FF9A8D;" d="M222.69,133.53l7.75,6.69l4.44-10.62l-9.23-5.37L222.69,133.53z"/>
		<path style="fill:#BA5964;" d="M233.58,132.74c0,0-9.14-2.58-7.92-8.52l9.24,5.37L233.58,132.74z"/>
		<path style="fill:#42B2FC;" d="M230.26,139.96c1.79,1.51,2.93,3.65,3.19,5.98c0.42,3.77,0.75,9.42,1.07,17.61
			c0.28,7.45,1.03,29.07,1.03,29.07s-5.66,3.74-15.17,2.97c-9.08-0.73-13-5.23-13-5.23s0.95-30.4,3.93-42.37
			c4.41-12.34,11.38-14.48,11.38-14.48L230.26,139.96z"/>
		<path style="fill:#FF9A8D;" d="M225.66,124.23c0.32,0.73,0.67,1.43,1.07,2.12c0.54,0.91,8.15,4.02,10.16,4.27
			c2.01,0.25,4.67-0.17,4.14-6.92c-0.53-6.75-2.23-12.59-6.72-15.65c-4.49-3.06-10.76,0.28-13.45,4.61
			C218.17,116.99,221.03,125.47,225.66,124.23z"/>
		<path style="fill:#001C45;" d="M225.66,124.23l-0.99,3.11c0,0-0.77,0.37-2.69-2.03c-2.12-2.66-5.99-7.19-5.61-10.07
			c0.5-3.78,4.8-5.15,4.8-5.15s2.19-6.98,10.76-10.7c8.57-3.71,12.36,2.53,5.78,7.15c0,0,4.58,2.3,1.69,4.06
			c-2.89,1.76-11.17,1.53-11.17,1.53s4.03,1.56,2.85,2.71c-1.18,1.14-6.45,0.68-6.45,0.68l0.67,2.66c0,0-2.14-0.68-3.29,0.73
			C220.59,120.56,222.71,125.1,225.66,124.23z"/>
		<path style="fill:none;stroke:#001C45;stroke-width:0.79;stroke-linecap:round;stroke-miterlimit:10;" d="M220.3,101.92
			c0,0-2.55,5.58,2.25,9.32c0,0-4.79-0.16-5.8-4.74"/>
		<path style="fill:#BA5964;" d="M223.02,119.72c0.24-0.18,0.52-0.29,0.82-0.34c0.3-0.05,0.6-0.03,0.88,0.06
			c0.19,0.09,0,0.42-0.17,0.41c-0.92-0.08-1.96,0.17-2.1,1.27c0,0.06-0.06,0-0.06,0c-0.04-0.27,0-0.54,0.11-0.79
			C222.61,120.08,222.79,119.87,223.02,119.72z"/>
		<path style="fill:#BA5964;" d="M223.43,119.68c0.08-0.07,0.36,0.1,0.36,0.18c-0.16,0.14-0.28,0.33-0.34,0.54
			c-0.09,0.33-0.06,0.69,0.07,1.01c0.12,0.38,0.36,0.72,0.69,0.95c0.33,0.23,0.72,0.34,1.12,0.31c0,0,0.05,0,0,0.05
			c-0.67,0.38-1.67-0.14-2.02-0.72C222.95,121.39,222.73,120.3,223.43,119.68z"/>
		<path style="fill:#309AD6;" d="M219.33,140.29c-1.88,1-4.34,6.46-2.59,12.36c1.75,5.9,4.03,11.98,4.03,11.98s9.04-2.15,11.43-7.95
			c0,0-3.19-7.87-4.71-11.04C225.99,142.45,224.07,137.76,219.33,140.29z"/>
		<path style="fill:#309AD6;" d="M228.79,174.52c2.02,2.03,4.79,4.29,6.33,4.9c-0.12-3.44-0.26-6.34-0.37-9.53l-6.77-9.06
			l-4.44-1.21l-1.61,4.64C221.93,164.28,225.56,171.29,228.79,174.52z"/>
		<path style="fill:#FF9A8D;" d="M221.47,140.22c-4.28,1.14-5.73,7.32-1.43,16.89c4.13,9.18,10.76,17.57,14.86,20.44
			c4.1,2.87,19.91,1.92,33.14-2.03c0,0,7.54-2.71,9.64-4.6c4.67-4.17,4.9-9.71,1.47-8.89c-3.43,0.83-8.85,4.57-8.85,4.57
			s-1.44-2.86-2.48-5.07c0,0-0.93,0.24-1.26,2.22c-0.33,1.97-0.3,4.74-0.87,5.14c-1.52,1.06-22.73,2.87-25.27,0.35
			c-2.87-2.85-7.03-10.41-9.98-17.38C227.19,144.13,225.84,139.05,221.47,140.22z"/>
		<path style="fill:#42B2FC;" d="M220.04,139.26c-1.88,1-4.34,6.46-2.59,12.35c1.75,5.89,4.03,11.98,4.03,11.98s8.48-1.29,12.1-6.2
			c0,0-3.87-9.61-5.38-12.8C226.69,141.4,224.78,136.74,220.04,139.26z"/>
		
			<linearGradient id="SVGID_1_" gradientUnits="userSpaceOnUse" x1="973.0678" y1="130.984" x2="1018.1016" y2="130.984" gradientTransform="matrix(1 0 0 -1 0 300)">
			<stop  offset="0" style="stop-color:#343A44"/>
			<stop  offset="0.3" style="stop-color:#232D3E"/>
			<stop  offset="0.64" style="stop-color:#182439"/>
			<stop  offset="1" style="stop-color:#142138"/>
		</linearGradient>
		<path style="fill:url(#SVGID_1_);" d="M990.96,139.65c-2.34,2.19-3.99,1.46-7.5,13.53c-2.24,7.72-10.4,46.63-10.4,46.63l4.87,2.13
			c6.59-18.6,6.58-18.58,14.28-33.68c2.32-4.62,4.09-9.5,5.3-14.54l14.23-0.86c8.91-3.68,5.85-16.77,5.85-16.77
			S993.29,137.46,990.96,139.65z"/>
		
			<linearGradient id="SVGID_00000170982461801129926890000009347531023558177435_" gradientUnits="userSpaceOnUse" x1="984.0873" y1="137.1667" x2="1047.8083" y2="137.1667" gradientTransform="matrix(1 0 0 -1 0 300)">
			<stop  offset="0" style="stop-color:#343A44"/>
			<stop  offset="0.3" style="stop-color:#232D3E"/>
			<stop  offset="0.64" style="stop-color:#182439"/>
			<stop  offset="1" style="stop-color:#142138"/>
		</linearGradient>
		<path style="fill:url(#SVGID_00000170982461801129926890000009347531023558177435_);" d="M1044.87,128.08l-12.84-8.29l-12.42,9.73
			l-15.48,5.03l0.09,0.04c-6.25,2.18-13.34,5.35-15.52,7.39c-2.33,2.19-6.92,5.29-3.22,17.31c2.37,7.67,12.69,46.57,12.69,46.57
			l5.23-0.94c0,0-1.88-22.53-3.75-39.38c-0.91-8.18-1.21-10.45-1.21-10.45s34.55,3.78,45.68-2.13
			C1051.95,148.81,1044.87,134.36,1044.87,128.08z"/>
		<path style="fill:#133A50;" d="M997.81,203.05c0,0,0.15,1.42,2.4,2.06c0.69,0.16,1.4,0.13,2.07-0.1c0.67-0.22,1.26-0.62,1.72-1.16
			l0.49,4.63l-7.18,5.1h-5.97l3.23-3.61L997.81,203.05z"/>
		<path style="fill:#133A50;" d="M973.85,196.63c-0.28,0.56-0.35,1.21-0.19,1.82c0.17,0.61,0.55,1.13,1.08,1.47
			c1.95,1.3,3.97,0,3.97,0l-0.91,4.56l-16.98-5.35L973.85,196.63z"/>
		<path style="fill:#FEC4AD;" d="M993.39,81.44c0,0.25,2.83-3.39,2.83-3.39l0.63-2.98c0.63-0.86,1.31-1.68,2.03-2.47
			c0.88-0.93,1.67-4.92,1.67-4.92l-1.15-0.7c-0.24,0.75-0.54,1.48-0.9,2.18c-0.32,0.26-0.71,0.42-1.12,0.46
			c-0.06-0.92-0.06-1.85,0-2.78c0.2-1.59,0.54-3.16,1.05-4.68l-0.96-0.47c-0.35,0.7-0.65,1.41-0.92,2.15
			c-0.2,0.68-0.55,2.08-0.55,2.08c0.03-1.05,0.13-2.11,0.29-3.15c0.23-0.92,0.4-2.11,0.4-2.11l-1.01-0.26
			c-0.28,0.84-0.5,1.69-0.67,2.56c-0.16,1.04-0.52,2.82-0.52,2.82c-0.06-1.07-0.08-2.15-0.04-3.23c0.06-0.38,0.09-0.75,0.11-1.13
			h-1.06c-0.25,0.79-0.37,1.61-0.38,2.44c0.02,0.65-0.02,1.29-0.11,1.93c-0.19-0.87-0.29-1.75-0.3-2.64
			c0.07-0.29,0.08-0.6,0.04-0.89l-0.82,0.14c0,0-0.47,3.29-0.63,5.27c-0.16,1.98,0.09,4.5,0.11,5.9c0.02,1.4,0.06,2.52,0.06,2.52
			L993.39,81.44z"/>
		<path style="fill:#FEC4AD;" d="M1015.15,85.29c-4.22,3.45-8.65,6.63-13.27,9.52c0,0-2.46-6.23-3.63-10.64
			c-1.4-5.27-1.82-7.69-1.82-7.69l-5-0.42c0,0,1.58,13.47,3.55,22.61c1.91,8.88,4.31,7.29,6.43,6.86s22-11.2,22-11.2l-2.13-11.44
			C1021.28,82.89,1019.89,81.37,1015.15,85.29z"/>
		<path style="fill:#471A16;" d="M1036.17,52.93c-1.06-0.63-6.21-1.04-9.42,0.96c-6.15,3.82-3.2,14.27-2.81,16.68
			c0.38,2.41-1.83,6.75-1.79,9.62c0.04,2.88,0.72,3.92,2.84,6.7c0.43,0.67,0.7,1.43,0.79,2.22c1.57-2.58,2.54-5.49,2.86-8.5
			c0.5-4.95,1.55-3.78,4-9.23s2.57-13.62,2.57-13.62L1036.17,52.93z"/>
		<path style="fill:#471A16;" d="M1031.05,56.48l5.12-3.54c1.34-0.12,2.69,0.12,3.91,0.71s2.25,1.49,3,2.62
			c2.54,3.91,3.42,9.59,4,13.85c0.57,4.26,2.05,12.27,1.95,15.45c-0.1,3.18-3.93,3.61-3.93,3.61l-12.85-5.6
			c0.89-4.64,0.93-9.41,0.11-14.07C1031.52,65.21,1031.08,60.85,1031.05,56.48z"/>
		<path style="fill:#FEC4AD;" d="M1026.76,57.56c-0.26,1.61-1.5,6.35-1.63,9.38c-0.13,3.03,0.24,8.04,2.23,9.44
			c2,1.4,5.74,0.28,8.48-0.87c2.74-1.15,3.41-3.08,3.94-4.86c0.53-1.78,0.35-6.51-0.27-9.91c-0.63-3.39-2.77-4.76-5.24-5.22
			C1031.81,55.05,1026.76,57.56,1026.76,57.56z"/>
		<path style="fill:#FEC4AD;" d="M1037.98,68.86c0,0-0.7,7.55,0.87,11.1c1.09,2.45,5.49,3.49,5.49,3.49
			c-0.13,4.76-1.6,9.39-4.25,13.34c-4.42,6.55-18.24,8.97-18.24,8.97c-1.76-3.72-3.15-7.6-4.13-11.6
			c-1.42-6.13,2.44-10.87,2.44-10.87s3.75-1.26,5.53-1.89c4.37-1.65,3.85-8.63,3.85-8.63L1037.98,68.86z"/>
		<path style="fill:#42B2FC;" d="M1029.58,86.35c0,0,8.94-2.28,11.62-4.04l8.85,5.31c0,0,5.2,5-3.68,18.16
			c0,0-3.37,11.96,2.11,33.09c0,0-1.48,5.44-9.78,2.52c-7.14-2.52-7.3-4.44-13.56-6.04c-9.24-2.36-11.67-3.81-11.67-3.81
			c4.85-7.35,3.99-18.82,3.99-18.82s-5.5-5.31-3.12-10.73c3.4-7.83,4.55-18.88,4.55-18.88l4.74-1.21c0,0,2.5,3.12,3.79,4.07
			C1028.72,86.89,1029.58,86.35,1029.58,86.35z"/>
		<path style="fill:#FFFFFF;" d="M1025.68,81.39c0,0,1.09,4.08,3.9,4.97c0,0-1.1,5.59-3.75,4.62c-3.68-1.37-2.25-9.09-2.25-9.09
			L1025.68,81.39z"/>
		<path style="fill:#FFFFFF;" d="M1042.27,81.62c0,0-1.74,8.53-6.43,9.22c-4.68,0.69-6.24-4.49-6.24-4.49s9.92-2.93,10.89-5.99
			L1042.27,81.62z"/>
		<path style="fill:#471A16;" d="M1034.01,55.42c0.87,0.06,1.51,4.17,1.59,6.46c0.09,2.3,3.49,4.1,1.99,9.15
			c-1.5,5.05-1.3,9.92-3.32,15.46c-2.01,5.53,0.49,7.55,1.59,9.44c0,0,4.32-4.76,5.78-7.16c0.6-1.07,1.52-1.91,2.64-2.41
			c1.11-0.5,2.35-0.63,3.54-0.37c0,0-6.6-12.9-6.38-16.36c0.23-3.46,0.83-8.81-1.91-11.96
			C1036.78,54.53,1034.01,55.42,1034.01,55.42z"/>
		<path style="fill:#FEC4AD;" d="M1037.48,65.72c0,0,1.83-2.03,3.05-1.72c1.21,0.31,1.28,2.14,0.36,3.64
			c-0.93,1.5-4.33,2.34-4.33,2.34L1037.48,65.72z"/>
		<path style="fill:#471A16;" d="M1033.32,61.78c-1.66,0.15-2.61-0.09-5.2-0.38c-3.32-0.37-4.73,0.49-4.73,0.49l1.25-5.57
			c0,0,3.88-2.17,6.63-2.15c3.5,0,6.56,1.37,4.83,2.52C1034.27,57.89,1033.32,61.78,1033.32,61.78z"/>
		<path style="fill:#FEC4AD;" d="M1042.54,93.85c0.62,6.99,2.64,26.89,2.64,26.89c-6.31,5.56-15.24,14.81-15.24,14.81
			s2.54,5.03,3.63,4.19c8.69-6.85,18.62-10.89,19.36-15.66c1.16-7.83,1.57-27.52-1.3-33.93
			C1049.4,85.21,1041.91,86.45,1042.54,93.85z"/>
		<path style="fill:#FEC4AD;" d="M1026.1,136.17c-2.64,1-4.3,1.98-4.15,2.97c0.11,0.69,2.36-0.57,3.72-0.52
			c-0.73,1.36-1.85,2.47-3.22,3.18c-1.74,0.86-2.72,2.06-1.79,3.08c0.93,1.02,2.66,2.44,3.78,1.92c1.13-0.52,5.11-3.33,6.61-4.1
			c1.5-0.77,2.1-2.68,2.88-3.2c0.78-0.52-1.42-4.53-1.42-4.53c-0.41,0.12-2.59,0.59-2.59,0.59c-0.71,0.12-1.43,0.18-2.16,0.18
			C1027.19,135.79,1026.63,135.94,1026.1,136.17L1026.1,136.17z"/>
		<path style="fill:#407BFF;" d="M808.65,55.07l24.39-10.16c0.66-0.28,0.97-1.04,0.7-1.7l-5.97-14.55
			c-0.27-0.67-1.03-0.98-1.69-0.71l-24.39,10.16c-0.66,0.28-0.97,1.04-0.7,1.7l5.97,14.55C807.23,55.03,807.99,55.35,808.65,55.07z"
			/>
		<path style="fill:#FFC854;" d="M808.65,55.07l24.39-10.16c0.66-0.28,0.97-1.04,0.7-1.7l-5.97-14.55
			c-0.27-0.67-1.03-0.98-1.69-0.71l-24.39,10.16c-0.66,0.28-0.97,1.04-0.7,1.7l5.97,14.55C807.23,55.03,807.99,55.35,808.65,55.07z"
			/>
		<path style="opacity:0.2;enable-background:new    ;" d="M828.25,29.85l-8.62,12.86c-0.33,0.49-0.79,0.87-1.33,1.1
			c-0.54,0.22-1.14,0.28-1.71,0.16l-14.9-3.05l15.09,3.86c0.66,0.17,1.36,0.13,1.98-0.14c0.63-0.26,1.16-0.72,1.5-1.32L828.25,29.85
			z"/>
		<path style="fill:#407BFF;" d="M846.08,29.14c0.29-5.23-2.5-16.11-6.8-19.8c-4.3-3.69-1.72,1.07-1.72,1.07s-3.97-4.78-6.31-4.89
			c-2.34-0.11-0.29,2.84-0.29,2.84s-4.47-3.46-6.69-3.56c-2.22-0.1-0.27,2.71-0.27,2.71s-3.63-3.24-5.36-2.05
			s18.7,18.01,20.55,24.19C841.05,35.82,845.79,34.43,846.08,29.14z"/>
		<path style="fill:#4AA4F4;" d="M846.08,29.14c0.29-5.23-2.5-16.11-6.8-19.8c-4.3-3.69-1.72,1.07-1.72,1.07s-3.97-4.78-6.31-4.89
			c-2.34-0.11-0.29,2.84-0.29,2.84s-4.47-3.46-6.69-3.56c-2.22-0.1-0.27,2.71-0.27,2.71s-3.63-3.24-5.36-2.05
			s18.7,18.01,20.55,24.19C841.05,35.82,845.79,34.43,846.08,29.14z"/>
		<path style="fill:#407BFF;" d="M827.34,26.43l-3.12,1.59c-0.05,0.03-0.08,0.07-0.1,0.11c-0.02,0.05-0.03,0.1-0.02,0.15
			c0.01,0.05,0.04,0.1,0.08,0.13c0.04,0.03,0.09,0.06,0.14,0.06l3.12,0.08l-0.51,2.35c-0.01,0.06-0.01,0.11,0.01,0.17
			c0.02,0.05,0.06,0.1,0.11,0.12c0.05,0.03,0.11,0.04,0.16,0.03c0.06-0.01,0.11-0.03,0.15-0.07l1.98-1.84L827.34,26.43z"/>
		<path style="fill:#4AA4F4;" d="M827.34,26.43l-3.12,1.59c-0.05,0.03-0.08,0.07-0.1,0.11c-0.02,0.05-0.03,0.1-0.02,0.15
			c0.01,0.05,0.04,0.1,0.08,0.13c0.04,0.03,0.09,0.06,0.14,0.06l3.12,0.08l-0.51,2.35c-0.01,0.06-0.01,0.11,0.01,0.17
			c0.02,0.05,0.06,0.1,0.11,0.12c0.05,0.03,0.11,0.04,0.16,0.03c0.06-0.01,0.11-0.03,0.15-0.07l1.98-1.84L827.34,26.43z"/>
		<path style="fill:#407BFF;" d="M869.6,18.95c0,0-3.75-3.25-10.06-2.04c0,0-2.59,7.96-7.68,10.18c-2.79,1.21-9.26,0.42-14.2-1.78
			c-5.88-2.61-8.86-2.92-10.19-0.74c-1.25,2.06-0.36,4.7,4.19,6.29c4.54,1.59,7.38,10.11,15.81,11.11
			c8.43,0.99,13.74-7.08,12.39-14.8C862.26,23.54,865.64,20.69,869.6,18.95L869.6,18.95z"/>
		<path style="opacity:0.7;fill:#4AA4F4;enable-background:new    ;" d="M869.6,18.95c0,0-3.75-3.25-10.06-2.04
			c0,0-2.59,7.96-7.68,10.18c-2.79,1.21-9.26,0.42-14.2-1.78c-5.88-2.61-8.86-2.92-10.19-0.74c-1.25,2.06-0.36,4.7,4.19,6.29
			c4.54,1.59,7.38,10.11,15.81,11.11c8.43,0.99,13.74-7.08,12.39-14.8C862.26,23.54,865.64,20.69,869.6,18.95L869.6,18.95z"/>
		<path style="fill:#263238;" d="M829.63,26.35c-0.01,0.05,0,0.11,0.01,0.16c0.02,0.05,0.04,0.1,0.08,0.14
			c0.03,0.04,0.08,0.08,0.12,0.1c0.05,0.03,0.1,0.04,0.15,0.05c0.05,0.01,0.11,0,0.16-0.01s0.1-0.04,0.14-0.08
			c0.04-0.03,0.08-0.08,0.1-0.13c0.03-0.05,0.04-0.1,0.05-0.16c0.01-0.11-0.02-0.22-0.09-0.31c-0.07-0.09-0.17-0.14-0.28-0.15
			c-0.11-0.01-0.22,0.02-0.3,0.09C829.7,26.14,829.65,26.24,829.63,26.35L829.63,26.35z"/>
		<path style="fill:#407BFF;" d="M850.11,35.39c4.85,1.89,15.97,2.61,20.79-0.4c4.82-3.01-0.48-1.98-0.48-1.98s5.73-2.33,6.56-4.54
			s-2.59-1.15-2.59-1.15s4.65-3.22,5.43-5.31c0.78-2.1-2.5-1.1-2.5-1.1s4.18-2.48,3.59-4.51c-0.59-2.03-22.78,12.37-29.17,12.23
			C845.34,28.49,845.21,33.49,850.11,35.39z"/>
		<path style="fill:#4AA4F4;" d="M850.11,35.39c4.85,1.89,15.97,2.61,20.79-0.4c4.82-3.01-0.48-1.98-0.48-1.98s5.73-2.33,6.56-4.54
			s-2.59-1.15-2.59-1.15s4.65-3.22,5.43-5.31c0.78-2.1-2.5-1.1-2.5-1.1s4.18-2.48,3.59-4.51c-0.59-2.03-22.78,12.37-29.17,12.23
			C845.34,28.49,845.21,33.49,850.11,35.39z"/>
		
			<path style="fill:none;stroke:#407BFF;stroke-width:0.75;stroke-linecap:round;stroke-linejoin:round;stroke-dasharray:5.89,5.89;" d="
			M890.59,14.6c4.25-0.63,8.55-0.86,12.85-0.71c9.09,0.3,23.33,0.86,27.94,10.5c4.2,8.81-5.9,21.97-9.76,29.32
			c-4.72,9.01-10.39,20.14-6.95,30.56c7.26,21.96,49.57,14.43,63.65-4.11"/>
		<path style="fill:none;stroke:#407BFF;stroke-width:0.75;stroke-linecap:round;stroke-linejoin:round;" d="M979.4,78.63
			c0.35-0.53,0.67-1.06,0.96-1.61"/>
		<path style="fill:#4FAE86;" d="M1227.08,183.48c-7.55-4.85-74.82,52.3-72.36,97.44c0,0,13.09-17.82,24.51-26.5
			c11.41-8.68,12.53-17.78,12.51-26.79c-0.02-9.01,17.05-5.26,18.97-15.27C1214.11,194.69,1233.86,187.85,1227.08,183.48z"/>
		<path style="fill:#319188;" d="M1231.5,225.54c-10.87,6.64-7.67,15.47-14.08,20.64c-4.65,3.75-12.43,1.79-16.31,6.91
			c-4.38,5.77,0.59,13.7,0.97,20.65c0.5,9.59-7.99,16.79-16.62,19.71c-10.02,3.39-23,2.33-28.48-7.72
			c-6.48-11.85-1.63-29.72,9.74-35.28c2.76-1.35,6.26-1.71,8.51-4.45c3.81-4.62,1.37-11.26,3.13-17.15
			c1.71-5.73,7.33-9.76,12.51-11.54c5.18-1.78,10.43-2.15,15.5-4.22c6.89-2.82,12.93-9.01,18.63-13.2
			c5.12-3.75,23.1-10.72,26.01,1.5C1253.68,212.52,1240.62,219.97,1231.5,225.54z"/>
		<path style="fill:none;stroke:#194459;stroke-miterlimit:10;" d="M1232.62,207.73c0,0-44.42,22.52-79.86,95.07"/>
		<path style="fill:none;stroke:#FFFFFF;stroke-miterlimit:10;" d="M1259.44,241.64c0,0-57.12-0.65-104.58,54.21"/>
		<path style="fill:#4FAE86;" d="M1231.11,267.29c-5.44,2.2-6.92,11.44-12.79,12.62c-4.26,0.85-8.81-2.95-12.98-0.98
			c-4.69,2.25-3.87,8.9-5.79,13.42c-2.65,6.26-10.53,8.04-17.13,7.06c-7.72-1.15-15.99-6.08-16.51-14.26
			c-0.61-9.65,8.2-19.41,17.45-19.21c2.23,0.05,4.69,0.97,7.04,0c3.96-1.68,4.41-6.7,7.45-9.86c3.03-3.15,7.91-3.75,11.92-3.22
			c4.02,0.53,7.61,2.07,11.61,2.42c5.44,0.47,11.38-1.5,16.49-2.25c4.56-0.69,23.18-0.33,16.8,9.5
			C1250.19,269.34,1238.37,264.37,1231.11,267.29z"/>
		<path style="fill:none;stroke:#194459;stroke-miterlimit:10;" d="M1242.86,258.23c0,0-39.67,3.4-85.81,37.84"/>
		<path style="fill:#319188;" d="M1113.62,301.22c0,0,9.02-15.93,10.5-17.57c9.29-10.36,21.61-10.47,34.14-7.85
			c3.63,0.75,13.24,5.84,16.73,5.14c2.71-0.55,5.96-10.95,14.66-10.4c8.7,0.55,9.22,10.95,9.22,10.95s5.44-12.08,14.16-10.97
			c8.71,1.11,8.69,9.27,2.16,15.32c0,0,13.86-4.19,27.3,2.3c13.44,6.49,7.01,15.01,7.01,15.01L1113.62,301.22z"/>
		<path style="fill:#4FAE86;" d="M22.03,193.4c6.81-4.38,67.52,47.19,65.29,87.93c0,0-11.81-16.08-22.12-23.91
			c-10.31-7.83-11.3-16.04-11.28-24.17c0.02-8.13-15.38-4.74-17.12-13.78C33.73,203.52,15.9,197.35,22.03,193.4z"/>
		<path style="fill:#319188;" d="M18.04,231.36c9.81,5.99,6.92,13.96,12.7,18.62c4.21,3.39,11.23,1.62,14.72,6.23
			c3.94,5.2-0.54,12.36-0.87,18.63c-0.46,8.66,7.21,15.15,15,17.78c9.04,3.06,20.75,2.1,25.7-6.96c5.85-10.7,1.47-26.82-8.78-31.84
			c-2.49-1.22-5.65-1.54-7.68-4.02c-3.44-4.17-1.23-10.16-2.82-15.47c-1.55-5.17-6.62-8.81-11.3-10.41c-4.67-1.61-9.41-1.94-14-3.81
			c-6.22-2.54-11.66-8.13-16.81-11.91c-4.62-3.39-20.84-9.67-23.47,1.35C-2,219.6,9.81,226.33,18.04,231.36z"/>
		<path style="fill:none;stroke:#194459;stroke-miterlimit:10;" d="M17.03,215.28c0,0,40.08,20.32,72.07,85.79"/>
		<path style="fill:none;stroke:#FFFFFF;stroke-miterlimit:10;" d="M-7.18,245.88c0,0,51.54-0.58,94.38,48.92"/>
		<path style="fill:#4FAE86;" d="M18.38,269.03c4.91,1.98,6.24,10.32,11.53,11.39c3.85,0.77,7.95-2.66,11.72-0.88
			c4.24,2.03,3.49,8.03,5.22,12.11c2.39,5.65,9.51,7.26,15.46,6.37c6.95-1.04,14.43-5.49,14.89-12.87
			c0.55-8.71-7.4-17.52-15.75-17.34c-2.02,0.04-4.24,0.87-6.36,0c-3.58-1.52-3.98-6.05-6.72-8.9c-2.74-2.85-7.13-3.39-10.76-2.91
			c-3.62,0.48-6.86,1.87-10.48,2.19c-4.92,0.43-10.27-1.35-14.89-2.03c-4.11-0.62-20.92-0.3-15.16,8.57
			C1.17,270.88,11.84,266.4,18.38,269.03z"/>
		<path style="fill:none;stroke:#194459;stroke-miterlimit:10;" d="M7.78,260.86c0,0,35.81,3.07,77.44,34.15"/>
		<path style="fill:#319188;" d="M124.45,299.65c0,0-8.14-14.38-9.47-15.86c-8.38-9.35-19.5-9.45-30.81-7.09
			c-3.28,0.68-11.95,5.27-15.09,4.63c-2.45-0.49-5.38-9.88-13.23-9.38c-7.85,0.49-8.32,9.88-8.32,9.88s-4.92-10.9-12.77-9.9
			c-7.85,1-7.83,8.37-1.95,13.85c0,0-12.5-3.78-24.63,2.07c-12.13,5.85-6.34,13.55-6.34,13.55L124.45,299.65z"/>
		<path style="fill:#2E90E8;" d="M326.4,41.51c8.51-2.02,13.78-10.62,11.77-19.19c-2.01-8.58-10.54-13.89-19.05-11.86
			c-8.51,2.02-13.78,10.62-11.77,19.19C309.36,38.23,317.89,43.54,326.4,41.51z"/>
		<path style="fill:#F0F0F0;" d="M324.93,39.34c7.34-1.2,12.33-8.17,11.13-15.57c-1.19-7.4-8.11-12.42-15.45-11.22
			c-7.34,1.2-12.33,8.17-11.14,15.57C310.67,35.52,317.58,40.54,324.93,39.34z"/>
		<path style="fill:none;stroke:#2E90E8;stroke-linecap:round;stroke-linejoin:round;" d="M323.4,16.66v9.48l6.24-3.56"/>
		<g style="opacity:0.8;">
			<path style="fill:#2E90E8;" d="M771.22,219.42h38.1c2.08,0,3.75-1.7,5-3.78v-31.47c-1.25-2.09-2.93-3.78-5-3.78h-38.1
				c-0.99,0-1.95,0.4-2.65,1.11c-0.7,0.71-1.1,1.67-1.1,2.67v31.47c0,1,0.39,1.96,1.1,2.67
				C769.28,219.02,770.23,219.42,771.22,219.42z"/>
			<path style="fill:none;stroke:#FFFFFF;stroke-width:1.65;stroke-linecap:round;stroke-linejoin:round;" d="M800.68,206.38h-17.83
				h-3.22v-14.22h21.05v3.56V206.38z"/>
			<path style="fill:none;stroke:#FFFFFF;stroke-width:1.65;stroke-linecap:round;stroke-linejoin:round;" d="M779.62,192.16
				l10.53,8.36l10.52-8.36"/>
		</g>
		<g style="opacity:0.8;">
			<path style="fill:#2E90E8;" d="M130.49,156.17H91.46c-2.47,0-4.46,2.01-4.46,4.5v37.98c0,2.48,2,4.5,4.46,4.5h39.03
				c2.47,0,4.46-2.01,4.46-4.5v-37.98C134.95,158.18,132.96,156.17,130.49,156.17z"/>
			<path style="fill:#FFFFFF;" d="M100.34,170.43c-1.9,1.91-3.19,4.35-3.71,7c-0.52,2.65-0.26,5.4,0.77,7.9
				c1.03,2.5,2.76,4.63,4.99,6.13c2.23,1.5,4.85,2.3,7.53,2.3c2.68,0,5.3-0.8,7.53-2.3c2.23-1.5,3.97-3.64,4.99-6.13
				c1.03-2.5,1.29-5.24,0.77-7.9c-0.52-2.65-1.82-5.09-3.71-7c-2.55-2.55-5.99-3.98-9.59-3.98
				C106.34,166.45,102.89,167.88,100.34,170.43z M119.48,172.4h-4.32c-0.45-1.41-1.01-2.79-1.68-4.11
				C115.85,169.02,117.94,170.45,119.48,172.4L119.48,172.4z M104.95,179.29c0.01-1.78,0.23-3.56,0.67-5.29h8.67
				c0.42,1.73,0.64,3.51,0.64,5.29H104.95z M114.85,180.89c-0.13,1.79-0.44,3.57-0.93,5.3h-7.99c-0.49-1.73-0.81-3.5-0.93-5.3
				H114.85z M109.93,167.77c0.64,0,1.28,0.05,1.91,0.15c0.8,1.43,1.46,2.93,1.97,4.48h-7.77c0.51-1.56,1.17-3.06,1.97-4.48
				C108.65,167.82,109.29,167.77,109.93,167.77L109.93,167.77z M106.37,168.3c-0.67,1.32-1.23,2.69-1.68,4.11h-4.32
				C101.91,170.45,104.01,169.02,106.37,168.3L106.37,168.3z M99.29,174h4.98c-0.42,1.73-0.64,3.51-0.67,5.29h-5.83
				C97.87,177.43,98.39,175.62,99.29,174z M99.29,186.19c-0.92-1.62-1.46-3.43-1.57-5.3h5.88c0.09,1.79,0.36,3.57,0.82,5.3H99.29z
				 M100.37,187.79h4.5c0.46,1.42,1.02,2.81,1.67,4.15C104.11,191.24,101.95,189.78,100.37,187.79L100.37,187.79z M109.93,192.43
				c-0.54-0.01-1.08-0.06-1.62-0.14c-0.73-1.46-1.36-2.98-1.9-4.53h7c-0.53,1.55-1.16,3.06-1.9,4.53
				C110.99,192.37,110.46,192.41,109.93,192.43L109.93,192.43z M113.29,191.95c0.65-1.34,1.2-2.73,1.67-4.15h4.5
				c-1.57,1.98-3.72,3.43-6.14,4.15L113.29,191.95z M120.56,186.19h-5.1c0.46-1.73,0.73-3.51,0.83-5.3h5.85
				C122.02,182.76,121.48,184.57,120.56,186.19L120.56,186.19z M122.13,179.3h-5.83c-0.03-1.78-0.25-3.56-0.67-5.29h4.95
				C121.49,175.63,122.02,177.43,122.13,179.3L122.13,179.3z"/>
		</g>
		<g style="opacity:0.2;">
			<path style="fill:#2E90E8;" d="M109.94,60.86H85.73c-1.53,0-2.77,1.25-2.77,2.79v23.56c0,1.54,1.24,2.79,2.77,2.79h24.21
				c1.53,0,2.77-1.25,2.77-2.79V63.65C112.71,62.11,111.47,60.86,109.94,60.86z"/>
			<path style="fill:#FFFFFF;" d="M91.24,69.71c-1.18,1.19-1.98,2.7-2.31,4.34c-0.33,1.64-0.16,3.35,0.48,4.9
				c0.64,1.55,1.72,2.88,3.1,3.81c1.38,0.93,3.01,1.43,4.68,1.43c1.67,0,3.29-0.5,4.68-1.43c1.38-0.93,2.46-2.26,3.1-3.81
				c0.64-1.55,0.8-3.26,0.48-4.9c-0.33-1.65-1.13-3.16-2.31-4.34c-1.58-1.58-3.72-2.47-5.95-2.47S92.82,68.13,91.24,69.71z
				 M103.12,70.93h-2.69c-0.28-0.87-0.63-1.72-1.04-2.54C100.86,68.84,102.16,69.72,103.12,70.93L103.12,70.93z M94.1,75.21
				c0-1.11,0.13-2.21,0.4-3.29h5.38c0.26,1.08,0.4,2.18,0.4,3.29H94.1z M100.24,76.2c-0.08,1.11-0.27,2.21-0.57,3.29h-4.96
				c-0.3-1.07-0.49-2.17-0.57-3.29H100.24z M97.19,68.07c0.4,0,0.8,0.03,1.19,0.09c0.49,0.89,0.9,1.82,1.22,2.78h-4.81
				c0.32-0.96,0.73-1.89,1.22-2.78c0.39-0.07,0.79-0.1,1.19-0.11V68.07z M94.98,68.4c-0.42,0.82-0.76,1.67-1.04,2.54h-2.69
				c0.96-1.21,2.26-2.1,3.73-2.55V68.4z M90.59,71.94h3.07c-0.27,1.07-0.42,2.18-0.43,3.29h-3.62c0.07-1.16,0.4-2.29,0.97-3.3V71.94
				z M90.59,79.5c-0.57-1-0.91-2.13-0.97-3.29h3.63c0.05,1.11,0.23,2.21,0.51,3.29H90.59z M91.27,80.49h2.79
				c0.29,0.88,0.63,1.75,1.04,2.58c-1.51-0.44-2.85-1.33-3.83-2.56L91.27,80.49z M97.2,83.37c-0.33,0-0.67-0.02-1-0.07
				c-0.46-0.91-0.85-1.85-1.18-2.81h4.34c-0.33,0.96-0.72,1.9-1.18,2.81c-0.33,0.04-0.67,0.06-1,0.05L97.2,83.37z M99.3,83.07
				c0.4-0.84,0.75-1.7,1.04-2.58h2.79c-0.99,1.23-2.32,2.13-3.83,2.57L99.3,83.07z M103.79,79.5h-3.17
				c0.28-1.07,0.46-2.18,0.51-3.29h3.63c-0.07,1.15-0.41,2.27-0.98,3.27L103.79,79.5z M104.77,75.22h-3.62
				c-0.01-1.11-0.16-2.21-0.42-3.29h3.07c0.57,1,0.9,2.12,0.97,3.27L104.77,75.22z"/>
		</g>
		<path style="opacity:0.8;fill:#4AA4F4;enable-background:new    ;" d="M111.37,96.51H43.19c-0.68,0-1.32-0.27-1.8-0.75
			c-0.48-0.48-0.75-1.13-0.75-1.82l0,0c0-0.34,0.06-0.68,0.19-0.99c0.13-0.31,0.31-0.6,0.55-0.84c0.24-0.24,0.52-0.43,0.83-0.56
			c0.31-0.13,0.64-0.2,0.98-0.2h68.17c0.68,0,1.33,0.27,1.8,0.75c0.48,0.48,0.75,1.13,0.75,1.82c0,0.34-0.06,0.68-0.19,0.99
			c-0.13,0.32-0.31,0.6-0.55,0.84c-0.24,0.24-0.52,0.43-0.83,0.56C112.04,96.44,111.71,96.51,111.37,96.51L111.37,96.51z"/>
		<path style="opacity:0.8;fill:#4AA4F4;enable-background:new    ;" d="M407.38,177.6h-33.09c-0.68,0-1.32-0.27-1.8-0.75
			c-0.48-0.48-0.75-1.13-0.75-1.82l0,0c0-0.34,0.06-0.67,0.19-0.99c0.13-0.31,0.31-0.6,0.55-0.84c0.24-0.24,0.52-0.43,0.83-0.56
			c0.31-0.13,0.64-0.2,0.98-0.2h33.09c0.68,0,1.33,0.27,1.81,0.75c0.48,0.48,0.75,1.14,0.75,1.82c0,0.68-0.27,1.33-0.75,1.82
			C408.7,177.33,408.05,177.6,407.38,177.6L407.38,177.6z"/>
		<path style="opacity:0.8;fill:#4AA4F4;enable-background:new    ;" d="M384.21,199.62h-4.05c-1.06,0-1.92,0.87-1.92,1.94v3.83
			c0,1.07,0.86,1.94,1.92,1.94h4.05c1.06,0,1.92-0.87,1.92-1.94v-3.83C386.13,200.49,385.27,199.62,384.21,199.62z"/>
		<path style="opacity:0.8;fill:#4AA4F4;enable-background:new    ;" d="M728.38,41.88h-33.09c-0.68,0-1.32-0.27-1.8-0.75
			c-0.48-0.48-0.75-1.13-0.75-1.82l0,0c0-0.34,0.06-0.67,0.19-0.99c0.13-0.31,0.32-0.6,0.55-0.84c0.24-0.24,0.52-0.43,0.83-0.56
			c0.31-0.13,0.64-0.2,0.98-0.2h33.09c0.68,0,1.33,0.27,1.81,0.75c0.48,0.48,0.75,1.14,0.75,1.82c0,0.68-0.27,1.33-0.75,1.82
			C729.7,41.61,729.05,41.88,728.38,41.88L728.38,41.88z"/>
		<path style="opacity:0.8;fill:#4AA4F4;enable-background:new    ;" d="M705.21,63.9h-4.05c-1.06,0-1.92,0.87-1.92,1.94v3.83
			c0,1.07,0.86,1.94,1.92,1.94h4.05c1.06,0,1.92-0.87,1.92-1.94v-3.83C707.13,64.77,706.27,63.9,705.21,63.9z"/>
		<g style="opacity:0.8;">
			<path style="fill:#2E90E8;" d="M1190.14,41.5h-87.7c-0.7,0-1.37-0.28-1.86-0.78c-0.49-0.5-0.77-1.17-0.77-1.87V17.26
				c0-0.7,0.27-1.38,0.77-1.87c0.49-0.5,1.17-0.78,1.86-0.78h87.7c0.7,0,1.37,0.28,1.85,0.78c0.49,0.5,0.78,1.17,0.78,1.87
				l1.75,21.57C1194.53,40.31,1191.61,41.5,1190.14,41.5z"/>
			<path style="fill:none;stroke:#FFFFFF;stroke-width:1.18;stroke-miterlimit:10;" d="M1112.47,24.19h62.36"/>
			<path style="fill:none;stroke:#FFFFFF;stroke-width:1.18;stroke-miterlimit:10;" d="M1112.47,30.64h25.4"/>
			<path style="fill:#2E90E8;" d="M1109.92,38.45v10.48l13.09-10.48H1109.92z"/>
		</g>
		<g style="opacity:0.8;">
			<path style="fill:#2E90E8;" d="M205.59,92.69h-32.57c-1.52,0-2.97-0.61-4.05-1.69c-1.07-1.08-1.68-2.55-1.68-4.08V56.43
				c0-1.16,0.46-2.27,1.27-3.09c0.81-0.82,1.92-1.28,3.07-1.28h33.96c1.15,0,2.26,0.46,3.07,1.28c0.81,0.82,1.27,1.93,1.27,3.09
				v31.91c-0.01,1.16-0.47,2.26-1.28,3.08C207.84,92.23,206.74,92.69,205.59,92.69L205.59,92.69z"/>
			<path style="fill:#FFFFFF;" d="M197.22,75.4l-2.43-2.45c-0.2-0.23-0.44-0.41-0.71-0.54c-0.27-0.13-0.56-0.2-0.86-0.2
				c-0.59,0.01-1.15,0.25-1.56,0.68l-1.39,1.4l-0.26-0.13c-0.15-0.06-0.29-0.14-0.43-0.22c-1.37-0.9-2.59-2.02-3.6-3.32
				c-0.45-0.54-0.83-1.15-1.12-1.8c0.34-0.3,0.67-0.68,0.96-0.96l0.39-0.39c0.23-0.2,0.42-0.45,0.54-0.73
				c0.13-0.28,0.19-0.58,0.19-0.89c0-0.31-0.07-0.61-0.19-0.89c-0.13-0.28-0.31-0.53-0.54-0.73l-1.22-1.23
				c-0.14-0.13-0.27-0.28-0.39-0.43l-0.83-0.83c-0.41-0.42-0.97-0.67-1.56-0.68c-0.29,0-0.58,0.06-0.85,0.18
				c-0.27,0.12-0.51,0.29-0.71,0.5l-1.52,1.53c-0.57,0.58-0.92,1.33-1,2.14c-0.05,1.13,0.14,2.27,0.56,3.32
				c0.75,2.1,1.89,4.05,3.36,5.72c1.9,2.29,4.27,4.15,6.94,5.46c1.22,0.62,2.54,1.02,3.9,1.18h0.3c0.49,0.01,0.97-0.09,1.42-0.28
				c0.45-0.2,0.85-0.48,1.18-0.85l0.05-0.05c0.24-0.28,0.5-0.54,0.78-0.79l0.56-0.57c0.21-0.2,0.38-0.45,0.5-0.72
				c0.12-0.27,0.18-0.56,0.18-0.86c0-0.3-0.06-0.59-0.17-0.86C197.6,75.85,197.43,75.6,197.22,75.4L197.22,75.4z M196.22,77.67
				l-0.52,0.52c-0.3,0.26-0.56,0.57-0.87,0.87c-0.2,0.22-0.44,0.39-0.71,0.51c-0.27,0.12-0.56,0.17-0.85,0.17h-0.22
				c-1.18-0.12-2.32-0.48-3.36-1.05c-2.49-1.22-4.69-2.97-6.46-5.11c-1.34-1.58-2.41-3.36-3.17-5.29c-0.41-0.84-0.59-1.78-0.52-2.71
				c0.03-0.49,0.25-0.94,0.61-1.27l1.47-1.48c0.16-0.18,0.37-0.28,0.6-0.3c0.12,0,0.23,0.03,0.34,0.09c0.1,0.05,0.2,0.13,0.27,0.22
				l0.79,0.79c0.13,0.16,0.28,0.31,0.43,0.44l1.22,1.22c0.17,0.17,0.27,0.38,0.3,0.62c-0.02,0.23-0.13,0.45-0.3,0.61l-0.39,0.39
				l-1.11,1.05l-0.04,0.05c-0.15,0.13-0.26,0.31-0.31,0.5c-0.05,0.2-0.03,0.4,0.05,0.59v0.04c0.37,0.85,0.85,1.65,1.43,2.36
				c1.11,1.42,2.44,2.64,3.95,3.62c0.18,0.12,0.37,0.22,0.57,0.3c0.15,0.06,0.29,0.13,0.43,0.22l0.05,0.05
				c0.2,0.11,0.42,0.14,0.64,0.1c0.22-0.04,0.42-0.16,0.57-0.32l1.52-1.52c0.15-0.18,0.37-0.29,0.6-0.3
				c0.22,0.03,0.42,0.13,0.57,0.3l2.43,2.45c0.09,0.08,0.16,0.17,0.21,0.28c0.05,0.11,0.08,0.23,0.08,0.34
				c0,0.12-0.03,0.24-0.08,0.34c-0.05,0.11-0.12,0.2-0.21,0.28V77.67z"/>
		</g>
		<path style="fill:none;stroke:#375A64;stroke-width:4;stroke-linecap:round;stroke-linejoin:round;" d="M6.83,300.47h1233.13"/>
	</g>
</g>
</svg>
