<svg width="1440" height="492" viewBox="0 0 1440 492" fill="none" xmlns="http://www.w3.org/2000/svg">
<g clip-path="url(#clip0_408_841)">
<path d="M104.78 304.001C24.7802 333.551 -17.1598 400.191 47.5902 489.001H1321.68C1343.3 456.821 1356.24 414.551 1360.31 389.401C1369.17 334.511 1337.43 277.491 1281.48 247.401C1139.89 171.211 1022.17 277.001 947.78 232.291C904.78 206.471 908.88 134.001 875.27 100.361C801.02 26.1015 661.3 -10.5085 523.55 2.63147C431.89 11.3815 349.21 39.9015 298.78 88.1415C229.7 154.221 279.99 201.571 249.49 247.241C215.49 298.161 158.18 284.221 104.78 304.001Z" fill="#EAF2FB"/>
<path d="M1159.08 258.547H819.3V488.357H1159.08V258.547Z" fill="#FFC253"/>
<path d="M819.311 258.547L978.781 404.057C981.624 406.653 985.335 408.093 989.186 408.093C993.036 408.093 996.747 406.653 999.591 404.057L1159.08 258.547H819.311Z" fill="#E09736"/>
<path d="M1159.08 488.367L989.19 311.047L1159.08 473.257V488.367Z" fill="#E09736"/>
<path d="M819.3 488.367L989.19 311.047L819.3 473.257V488.367Z" fill="#E09736"/>
<path d="M819.311 258.547L976.311 391.217C979.905 394.254 984.46 395.92 989.166 395.92C993.872 395.92 998.426 394.254 1002.02 391.217L1159.02 258.547H819.311Z" fill="#FFC854"/>
<path d="M1197.93 488.363C1197.93 488.363 1187.18 483.513 1187.93 471.973C1188.68 460.433 1196.58 458.073 1203.4 453.873C1210.22 449.673 1210.74 442.603 1211.01 433.943C1211.28 425.283 1217.01 416.633 1228.58 417.163C1240.15 417.693 1244.38 420.043 1252.74 410.083C1261.1 400.123 1272.37 400.373 1277.09 405.883C1281.81 411.393 1282.09 420.883 1274.96 427.403C1266.25 435.403 1263.96 437.403 1261.47 446.093C1258.06 457.963 1262.99 469.523 1258.6 475.033C1252.74 482.403 1246.41 480.593 1240.38 483.033C1234.35 485.473 1234.13 488.413 1234.13 488.413L1197.93 488.363Z" fill="#40C7A7"/>
<path d="M1266.78 413.562C1249.13 423.852 1218.43 455.142 1213.21 488.362" stroke="#3B55CE" stroke-width="1.05" stroke-miterlimit="10" stroke-linecap="round"/>
<path d="M349.37 255.401C359.51 264.641 370.53 270.911 383.31 268.481C401.31 265.051 415.31 246.711 415.31 246.711C415.31 246.711 419.95 252.761 419.95 253.361C419.95 253.961 408.06 277.551 386.49 282.361C364.92 287.171 345.49 271.741 345.49 271.741L349.37 255.401Z" fill="#DD7A79"/>
<path d="M534.15 382.763C538.275 388.586 544.34 392.748 551.257 394.502C558.174 396.256 565.489 395.487 571.89 392.333L595.89 380.493C598.094 379.416 600.617 379.187 602.979 379.849C605.341 380.511 607.377 382.017 608.7 384.083L652.09 452.263C652.817 453.4 653.304 454.674 653.522 456.006C653.74 457.338 653.685 458.701 653.359 460.011C653.034 461.321 652.445 462.551 651.628 463.625C650.812 464.7 649.785 465.598 648.61 466.263C634.61 474.203 605.61 487.643 573.67 485.043C528.87 481.393 499.67 439.733 450.37 362.213C401.07 284.693 375.65 240.633 391.31 198.503C402.47 168.503 426.91 147.913 440.05 138.563C441.154 137.787 442.403 137.242 443.722 136.961C445.042 136.68 446.405 136.67 447.728 136.929C449.052 137.189 450.31 137.714 451.425 138.472C452.541 139.231 453.492 140.207 454.22 141.343L497.61 209.533C498.917 211.605 499.418 214.084 499.018 216.5C498.618 218.917 497.345 221.103 495.44 222.643L474.55 239.383C468.982 243.845 465.186 250.146 463.844 257.154C462.503 264.162 463.703 271.42 467.23 277.623L534.15 382.763Z" fill="#4AA4F4"/>
<path d="M477.87 236.743L495.45 222.653C497.355 221.113 498.628 218.927 499.028 216.51C499.428 214.094 498.927 211.615 497.62 209.543L474.68 173.493L453.96 141.003C453.212 139.925 452.258 139.006 451.152 138.299C450.046 137.592 448.812 137.111 447.519 136.884C446.227 136.657 444.902 136.689 443.622 136.977C442.341 137.265 441.131 137.804 440.06 138.563C434.352 142.662 428.914 147.124 423.78 151.923L477.87 236.743Z" fill="#2E90E8"/>
<path d="M629.63 475.4C636.155 472.772 642.501 469.722 648.63 466.27C649.766 465.625 650.764 464.762 651.565 463.731C652.367 462.699 652.956 461.519 653.3 460.259C653.644 458.999 653.735 457.683 653.569 456.388C653.402 455.092 652.981 453.842 652.33 452.71L607.78 382.82C606.336 381.189 604.396 380.077 602.259 379.656C600.121 379.235 597.905 379.528 595.95 380.49L575.54 390.55L629.63 475.4Z" fill="#2E90E8"/>
<path d="M350.02 255.906L358.23 262.066C358.23 262.066 361.94 273.426 355.68 279.326L344.78 272.736L350.02 255.906Z" fill="#309AD6"/>
<path d="M523.41 488.362C529.03 483.766 533.573 477.994 536.72 471.452C542.1 460.202 537.31 450.382 529.72 451.812C521.72 453.332 520.58 446.812 518.37 438.462C515.72 428.462 502.84 414.312 492.32 415.732C478.75 417.572 487.32 432.092 488.71 437.352C490.1 442.612 493.52 448.682 485.11 449.512C477.44 450.272 474.11 457.222 480.06 464.352C485.73 471.122 491.92 471.022 492.19 477.892C492.46 484.762 496.75 486.712 500.35 488.362H523.41Z" fill="#91DBAC"/>
<path d="M498.03 427.75C498.03 427.75 516.52 451.89 511.85 488.36" stroke="#3B55CE" stroke-width="1.05" stroke-miterlimit="10" stroke-linecap="round"/>
<path d="M640.57 487.999C642.18 485.47 643.202 482.612 643.562 479.635C643.922 476.659 643.61 473.639 642.65 470.799C638.58 457.689 626.41 451.629 630.8 443.049C634.45 435.909 645.36 439.519 651.14 449.149C656.7 458.389 657.14 477.869 648.35 487.999H640.57Z" fill="#40C7A7"/>
<path d="M639.37 446.789C639.37 446.789 656.13 464.909 645.16 487.999" stroke="#3B55CE" stroke-width="1.05" stroke-miterlimit="10" stroke-linecap="round"/>
<path d="M652.98 487.998C661.602 482.097 668.387 473.887 672.56 464.308C679.49 448.308 679.79 429.668 672.56 423.038C665.81 416.848 657.8 420.628 655.69 431.468C653.58 442.308 658.4 469.818 644.24 487.998H652.98Z" fill="#22A482"/>
<path d="M666.23 426.047C667.342 437.378 666.424 448.818 663.52 459.827C660.786 470.031 656.081 479.601 649.67 487.997" stroke="#3B55CE" stroke-width="1.05" stroke-miterlimit="10" stroke-linecap="round"/>
<path d="M813.11 488.359C813.11 488.359 813.39 466.039 795.69 445.239C777.99 424.439 757.78 416.999 740.23 423.309C727.23 428.009 730.55 443.089 741.23 449.509C753.84 457.119 801.06 460.199 802.74 488.359H813.11Z" fill="#91DBAC"/>
<path d="M742.1 433.388C766.16 432.018 802.99 454.188 808.05 488.388" stroke="#3B55CE" stroke-width="1.05" stroke-miterlimit="10" stroke-linecap="round"/>
<path d="M818.61 488.362C818.61 488.362 830.26 475.942 828.01 452.022C825.76 428.102 804.72 422.152 800.94 433.722C797.94 442.822 818.45 464.012 811.14 488.362H818.61Z" fill="#3DC19A"/>
<path d="M811.14 435.406C815.66 441.246 824.34 465.156 815.48 488.356" stroke="#3B55CE" stroke-width="1.05" stroke-miterlimit="10" stroke-linecap="round"/>
<path d="M367.29 483.203C367.78 484.113 367.41 485.953 363.76 487.473C360.11 488.993 353.5 488.343 350.88 487.833C348.26 487.323 346.65 486.553 342.77 487.363C338.89 488.173 332.52 487.823 330.59 486.193C329.92 485.423 330.37 483.823 330.37 483.823L367.29 483.203Z" fill="#8FC9C6"/>
<path d="M332.45 471.832C331.92 474.502 329.75 480.772 330.37 483.832C333.1 486.142 338.94 486.302 343.37 485.192C347.8 484.082 350.83 486.332 356.37 486.662C361.91 486.992 366.27 485.472 367.37 483.212C368.58 480.742 359.15 478.842 352.72 476.862C348.705 475.743 344.975 473.779 341.78 471.102L332.45 471.832Z" fill="#228C7E"/>
<path d="M343.92 477.001C343.92 477.001 345.21 473.381 346.92 472.211" stroke="#8FC9C6" stroke-width="0.53" stroke-miterlimit="10" stroke-linecap="round"/>
<path d="M348.78 478.923C348.78 478.923 350.07 475.303 351.78 474.133" stroke="#8FC9C6" stroke-width="0.53" stroke-miterlimit="10" stroke-linecap="round"/>
<path d="M353.7 480.86C353.7 480.86 354.99 477.24 356.7 476.07" stroke="#8FC9C6" stroke-width="0.53" stroke-miterlimit="10" stroke-linecap="round"/>
<path d="M332.45 461.203V471.833C333.097 472.041 333.693 472.382 334.2 472.833C334.71 473.443 335.41 475.443 336.28 475.483C339.71 475.623 341.74 471.093 341.74 471.093L343.03 461.423L332.45 461.203Z" fill="#FF9A8D"/>
<path d="M246.78 485.997C246.03 486.707 244.16 486.837 241.73 483.717C239.3 480.597 238.17 474.057 237.97 471.387C237.77 468.717 238.09 466.977 236.28 463.447C234.47 459.917 233.12 453.677 234.19 451.387C234.75 450.537 236.42 450.547 236.42 450.547L246.78 485.997Z" fill="#AAEEED"/>
<path d="M248.5 449.352C245.79 449.542 239.16 449.112 236.39 450.512C234.88 453.762 236.27 459.442 238.5 463.372C240.73 467.302 239.37 470.872 240.5 476.262C241.63 481.652 244.26 485.502 246.73 485.962C249.42 486.472 248.73 476.872 248.97 470.152C248.998 466.007 249.909 461.917 251.64 458.152L248.5 449.352Z" fill="#03AA99"/>
<path d="M246.561 461.773C246.561 461.773 250.401 462.063 251.991 463.423" stroke="#AAEEED" stroke-width="0.53" stroke-miterlimit="10" stroke-linecap="round"/>
<path d="M245.98 467C245.98 467 249.82 467.29 251.41 468.65" stroke="#AAEEED" stroke-width="0.53" stroke-miterlimit="10" stroke-linecap="round"/>
<path d="M245.41 472.234C245.41 472.234 249.24 472.524 250.83 473.884" stroke="#AAEEED" stroke-width="0.53" stroke-miterlimit="10" stroke-linecap="round"/>
<path d="M255.36 444.422L248.5 449.352C248.469 450.032 248.291 450.697 247.98 451.302C247.54 451.962 245.79 453.172 245.98 454.012C246.75 457.362 251.66 458.122 251.66 458.122L261.2 453.032L255.36 444.422Z" fill="#FF9A8D"/>
<path d="M352.99 309.719C341.08 309.719 332.22 310.619 332.22 310.619C328.41 312.279 321.87 320.939 319.95 326.429C318.03 331.919 320.88 339.609 321.88 344.339C327.47 370.669 333.2 388.969 335.37 399.409C336.7 405.799 331.96 406.819 331.92 416.929C331.85 431.419 332.45 462.289 332.45 462.289C335.668 463.891 339.381 464.185 342.81 463.109C342.81 463.109 351.74 412.189 352.72 406.359C354.31 396.909 354.86 392.949 355.04 376.599C355.29 353.599 352.99 309.719 352.99 309.719Z" fill="#1E4174"/>
<path d="M352.84 329.666C350.84 338.986 337.49 350.196 337.49 350.196C335.97 354.546 316.4 421.586 313.13 424.136C309.86 426.686 261.2 452.996 261.2 452.996C259.195 451.892 257.581 450.195 256.58 448.136C256.086 447.121 255.713 446.05 255.47 444.946C255.436 444.794 255.409 444.641 255.39 444.486C255.386 444.453 255.386 444.419 255.39 444.386C255.39 444.386 280.31 418.036 286.18 415.226C289.38 413.606 292.729 412.3 296.18 411.326C302.88 380.176 302.67 355.836 308.09 338.626C308.971 335.746 310.023 332.921 311.24 330.166C312.63 327.116 313.69 324.566 314.54 322.396C314.9 321.456 315.22 320.606 315.54 319.786C315.86 318.966 316.1 318.216 316.32 317.516C316.48 317.036 316.61 316.576 316.75 316.156C317.37 314.156 317.81 312.636 318.29 311.156C318.51 310.496 318.73 309.856 318.97 309.156C319.1 308.836 319.22 308.506 319.36 308.156C319.5 307.806 319.64 307.476 319.8 307.156L329.1 314.086L333.58 317.416L352.84 329.666Z" fill="#85B8ED"/>
<path d="M333.58 317.476C331.887 319.681 329.988 321.72 327.91 323.566C321 329.566 316.82 338.936 313.14 358.336C308.99 380.176 302.02 412.656 301.14 414.676C300.26 416.696 294.14 415.926 282.93 424.136C274.45 430.326 262.12 443.216 256.54 448.136C256.046 447.121 255.673 446.05 255.43 444.946C255.43 444.726 255.37 444.566 255.35 444.486C255.345 444.453 255.345 444.419 255.35 444.386C255.35 444.386 280.27 418.036 286.14 415.226C289.34 413.606 292.689 412.3 296.14 411.326C302.53 380.176 302.63 355.836 308.05 338.626C308.928 335.749 309.986 332.93 311.22 330.186C312.61 327.136 313.67 324.586 314.5 322.396C314.88 321.456 315.2 320.586 315.5 319.786C315.8 318.986 316.06 318.216 316.28 317.516C316.44 317.036 316.57 316.576 316.71 316.156C317.33 314.156 317.77 312.636 318.25 311.156C318.47 310.496 318.69 309.856 318.93 309.156C319.06 308.836 319.18 308.506 319.32 308.156C319.46 307.806 319.62 307.496 319.78 307.156L329.08 314.106L333.58 317.476Z" fill="#4E7EAC"/>
<path d="M352.84 329.667C352.84 329.667 346.75 337.667 330.01 338.267C318.44 338.707 311.08 334.067 311.08 334.067L315.6 326.977L352.84 329.667Z" fill="#4E7EAC"/>
<path d="M345.78 311.344C338.78 320.344 329.78 325.794 326.11 331.964C322.44 338.134 320.32 351.474 315.5 375.854C310.71 400.064 306.35 416.554 305.02 418.014C303.69 419.474 295.48 420.914 282.65 429.524C269.82 438.134 254.94 451.924 254.94 451.924" stroke="#274D79" stroke-width="0.53" stroke-miterlimit="10"/>
<path d="M338.061 332.641C338.061 332.641 335.271 347.971 321.631 345.411" stroke="#274D79" stroke-width="0.53" stroke-miterlimit="10"/>
<path d="M258.011 439.633C258.071 443.753 260.961 449.713 266.231 452.893" stroke="#274D79" stroke-width="0.53" stroke-miterlimit="10"/>
<path d="M335.91 241.261L347.44 251.141L354.05 235.461L340.32 227.531L335.91 241.261Z" fill="#FF9A8D"/>
<path d="M352.1 240.101C352.1 240.101 338.5 236.291 340.32 227.531L354.06 235.461L352.1 240.101Z" fill="#BA5964"/>
<path d="M347.17 250.752C349.825 252.979 351.526 256.139 351.92 259.582C352.54 265.152 353.04 273.492 353.51 285.582C353.93 296.582 355.04 328.492 355.04 328.492C355.04 328.492 346.62 334.012 332.48 332.882C318.97 331.802 313.14 325.162 313.14 325.162C313.14 325.162 314.55 280.282 318.99 262.622C325.55 244.412 335.91 241.242 335.91 241.242L347.17 250.752Z" fill="#42B2FC"/>
<path d="M340.32 227.534C340.791 228.606 341.322 229.651 341.91 230.664C342.72 232.004 354.03 236.594 357.02 236.964C360.01 237.334 363.97 236.714 363.18 226.754C362.39 216.794 359.86 208.164 353.18 203.654C346.5 199.144 337.18 204.064 333.18 210.454C329.18 216.844 333.44 229.374 340.32 227.534Z" fill="#FF9A8D"/>
<path d="M340.32 227.532L338.85 232.122C338.85 232.122 337.71 232.662 334.85 229.122C331.7 225.202 325.94 218.502 326.5 214.252C327.25 208.672 333.64 206.652 333.64 206.652C333.64 206.652 336.9 196.342 349.64 190.862C362.38 185.382 368.03 194.602 358.23 201.412C358.23 201.412 365.04 204.812 360.74 207.412C356.44 210.012 344.13 209.672 344.13 209.672C344.13 209.672 350.13 211.982 348.37 213.672C346.61 215.362 338.78 214.672 338.78 214.672L339.78 218.602C339.78 218.602 336.6 217.602 334.89 219.682C332.78 222.122 335.94 228.822 340.32 227.532Z" fill="#001C45"/>
<path d="M332.35 194.609C332.35 194.609 328.55 202.839 335.69 208.369C335.69 208.369 328.57 208.139 327.06 201.369" stroke="#001C45" stroke-width="0.79" stroke-miterlimit="10" stroke-linecap="round"/>
<path d="M336.39 220.88C336.751 220.621 337.167 220.448 337.606 220.375C338.045 220.302 338.494 220.331 338.92 220.46C339.2 220.59 338.92 221.08 338.67 221.06C337.3 220.94 335.76 221.31 335.55 222.93C335.55 223.02 335.46 222.93 335.46 222.93C335.403 222.535 335.46 222.132 335.625 221.769C335.79 221.406 336.055 221.097 336.39 220.88Z" fill="#BA5964"/>
<path d="M337 220.828C337.12 220.728 337.53 220.978 337.53 221.088C337.292 221.301 337.116 221.574 337.02 221.878C336.892 222.372 336.927 222.895 337.12 223.368C337.292 223.935 337.653 224.427 338.141 224.763C338.63 225.099 339.218 225.259 339.81 225.218C339.81 225.218 339.89 225.218 339.81 225.288C338.81 225.848 337.33 225.088 336.81 224.218C336.29 223.348 335.96 221.738 337 220.828Z" fill="#BA5964"/>
<path d="M330.91 251.243C328.12 252.723 324.46 260.773 327.06 269.483C329.66 278.193 333.06 287.163 333.06 287.163C333.06 287.163 346.5 283.983 350.06 275.423C350.06 275.423 345.31 263.813 343.06 259.123C340.81 254.433 337.96 247.513 330.91 251.243Z" fill="#309AD6"/>
<path d="M344.98 301.767C347.98 304.767 352.1 308.097 354.4 309.007C354.22 303.927 354.02 299.647 353.85 294.947L343.78 281.577L337.17 279.797L334.78 286.647C334.78 286.647 340.17 296.997 344.98 301.767Z" fill="#309AD6"/>
<path d="M334.09 251.138C327.73 252.828 325.57 261.948 331.96 276.068C338.1 289.618 347.96 302.008 354.06 306.238C360.16 310.468 383.67 309.078 403.35 303.238C403.35 303.238 414.57 299.238 417.69 296.448C424.64 290.288 424.98 282.108 419.88 283.328C414.78 284.548 406.72 290.078 406.72 290.078C406.72 290.078 404.58 285.858 403.03 282.588C403.03 282.588 401.65 282.948 401.16 285.858C400.67 288.768 400.72 292.858 399.87 293.438C397.61 295.008 366.06 297.668 362.29 293.948C358.02 289.748 351.84 278.588 347.45 268.288C342.59 256.908 340.59 249.408 334.09 251.138Z" fill="#FF9A8D"/>
<path d="M331.96 249.717C329.17 251.197 325.51 259.247 328.11 267.947C330.71 276.647 334.11 285.627 334.11 285.627C334.11 285.627 346.73 283.717 352.11 276.477C352.11 276.477 346.36 262.287 344.11 257.587C341.86 252.887 339.01 245.997 331.96 249.717Z" fill="#42B2FC"/>
<path d="M1037.29 237.252C1033.55 240.732 1030.91 239.572 1025.29 258.752C1021.71 271.012 1008.65 332.842 1008.65 332.842L1016.45 336.232C1027 306.672 1026.99 306.702 1039.31 282.722C1043.02 275.374 1045.86 267.622 1047.79 259.622L1070.58 258.252C1084.83 252.402 1079.94 231.602 1079.94 231.602C1079.94 231.602 1041.02 233.782 1037.29 237.252Z" fill="url(#paint0_linear_408_841)"/>
<path d="M1123.61 218.873L1103.05 205.703L1083.16 221.163L1058.38 229.163L1058.52 229.233C1048.52 232.693 1037.17 237.733 1033.68 240.983C1029.95 244.463 1022.59 249.393 1028.52 268.483C1032.31 280.673 1048.84 342.483 1048.84 342.483L1057.21 340.993C1057.21 340.993 1054.21 305.193 1051.21 278.413C1049.76 265.413 1049.27 261.803 1049.27 261.803C1049.27 261.803 1104.59 267.803 1122.42 258.423C1134.94 251.813 1123.61 228.853 1123.61 218.873Z" fill="url(#paint1_linear_408_841)"/>
<path d="M1048.26 338C1048.26 338 1048.5 340.25 1052.1 341.27C1053.2 341.524 1054.34 341.472 1055.41 341.119C1056.48 340.766 1057.43 340.127 1058.16 339.27L1058.95 346.62L1047.45 354.73H1037.89L1043.06 348.99L1048.26 338Z" fill="#133A50"/>
<path d="M1009.9 327.797C1009.44 328.688 1009.33 329.719 1009.6 330.685C1009.86 331.652 1010.48 332.484 1011.33 333.017C1014.45 335.077 1017.69 333.017 1017.69 333.017L1016.22 340.257L989.04 331.757L1009.9 327.797Z" fill="#133A50"/>
<path d="M1041.18 144.772C1041.18 145.162 1045.71 139.382 1045.71 139.382L1046.71 134.652C1047.73 133.291 1048.81 131.983 1049.96 130.732C1051.37 129.252 1052.63 122.912 1052.63 122.912L1050.79 121.802C1050.4 122.992 1049.92 124.15 1049.34 125.262C1048.83 125.677 1048.21 125.931 1047.55 125.992C1047.46 124.523 1047.46 123.05 1047.55 121.582C1047.86 119.055 1048.42 116.566 1049.23 114.152L1047.69 113.402C1047.14 114.511 1046.65 115.65 1046.22 116.812C1045.9 117.892 1045.33 120.112 1045.33 120.112C1045.38 118.436 1045.53 116.766 1045.8 115.112C1046.16 113.652 1046.43 111.762 1046.43 111.762L1044.82 111.352C1044.37 112.682 1044.01 114.042 1043.75 115.422C1043.5 117.082 1042.92 119.902 1042.92 119.902C1042.81 118.194 1042.79 116.481 1042.86 114.772C1042.95 114.175 1043 113.574 1043.03 112.972H1041.32C1040.93 114.224 1040.73 115.529 1040.72 116.842C1040.75 117.868 1040.69 118.895 1040.55 119.912C1040.24 118.536 1040.08 117.131 1040.07 115.722C1040.19 115.257 1040.21 114.775 1040.14 114.302L1038.82 114.522C1038.82 114.522 1038.07 119.742 1037.82 122.892C1037.57 126.042 1037.96 130.042 1037.99 132.272C1038.02 134.502 1038.08 136.272 1038.08 136.272L1041.18 144.772Z" fill="#FEC4AD"/>
<path d="M1076.02 150.881C1069.26 156.363 1062.17 161.413 1054.78 166.001C1054.78 166.001 1050.84 156.101 1048.96 149.091C1046.71 140.721 1046.05 136.871 1046.05 136.871L1038.05 136.211C1038.05 136.211 1040.58 157.621 1043.73 172.141C1046.79 186.251 1050.63 183.731 1054.02 183.041C1057.41 182.351 1089.24 165.241 1089.24 165.241L1085.83 147.061C1085.83 147.061 1083.6 144.651 1076.02 150.881Z" fill="#FEC4AD"/>
<path d="M1109.67 99.4697C1107.97 98.4697 1099.74 97.8197 1094.59 100.99C1084.74 107.06 1089.47 123.67 1090.09 127.5C1090.71 131.33 1087.17 138.22 1087.23 142.79C1087.29 147.36 1088.38 149.02 1091.79 153.44C1092.47 154.506 1092.91 155.713 1093.06 156.97C1095.57 152.864 1097.13 148.253 1097.64 143.47C1098.45 135.61 1100.12 137.47 1104.05 128.81C1107.98 120.15 1108.16 107.17 1108.16 107.17L1109.67 99.4697Z" fill="#471A16"/>
<path d="M1101.48 105.1L1109.67 99.4705C1111.82 99.2765 1113.98 99.6655 1115.93 100.596C1117.87 101.527 1119.53 102.966 1120.73 104.76C1124.79 110.98 1126.2 119.99 1127.12 126.76C1128.04 133.53 1130.41 146.26 1130.25 151.31C1130.09 156.36 1123.95 157.05 1123.95 157.05L1103.38 148.15C1104.82 140.775 1104.88 133.199 1103.57 125.8C1102.23 118.981 1101.53 112.051 1101.48 105.1Z" fill="#471A16"/>
<path d="M1094.62 106.816C1094.2 109.376 1092.21 116.906 1092.01 121.726C1091.81 126.546 1092.39 134.496 1095.59 136.726C1098.79 138.956 1104.78 137.166 1109.17 135.346C1113.56 133.526 1114.63 130.446 1115.48 127.616C1116.33 124.786 1116.04 117.266 1115.04 111.876C1114.04 106.486 1110.61 104.316 1106.65 103.576C1102.69 102.836 1094.62 106.816 1094.62 106.816Z" fill="#FEC4AD"/>
<path d="M1112.57 124.781C1112.57 124.781 1111.45 136.781 1113.97 142.411C1115.71 146.311 1122.76 147.961 1122.76 147.961C1122.55 155.532 1120.19 162.886 1115.95 169.161C1108.87 179.571 1086.75 183.421 1086.75 183.421C1083.93 177.517 1081.71 171.342 1080.14 164.991C1077.86 155.251 1084.04 147.721 1084.04 147.721C1084.04 147.721 1090.04 145.721 1092.89 144.721C1099.89 142.101 1099.05 131.011 1099.05 131.011L1112.57 124.781Z" fill="#FEC4AD"/>
<path d="M1099.12 152.571C1099.12 152.571 1113.43 148.941 1117.73 146.151L1131.91 154.581C1131.91 154.581 1140.24 162.531 1126.02 183.431C1126.02 183.431 1120.63 202.431 1129.39 236.001C1129.39 236.001 1127.02 244.641 1113.73 240.001C1102.3 236.001 1102.04 232.951 1092.02 230.411C1077.23 226.661 1073.34 224.351 1073.34 224.351C1081.11 212.671 1079.73 194.441 1079.73 194.441C1079.73 194.441 1070.92 186.011 1074.73 177.391C1080.18 164.951 1082.01 147.391 1082.01 147.391L1089.6 145.461C1089.6 145.461 1093.6 150.411 1095.67 151.921C1097.74 153.431 1099.12 152.571 1099.12 152.571Z" fill="#42B2FC"/>
<path d="M1092.89 144.68C1092.89 144.68 1094.63 151.16 1099.12 152.57C1099.12 152.57 1097.37 161.45 1093.12 159.91C1087.22 157.74 1089.52 145.46 1089.52 145.46L1092.89 144.68Z" fill="white"/>
<path d="M1119.44 145.057C1119.44 145.057 1116.64 158.617 1109.14 159.707C1101.64 160.797 1099.14 152.567 1099.14 152.567C1099.14 152.567 1115.03 147.907 1116.58 143.047L1119.44 145.057Z" fill="white"/>
<path d="M1106.23 103.421C1107.62 103.511 1108.64 110.041 1108.78 113.691C1108.92 117.341 1114.37 120.211 1111.96 128.231C1109.55 136.251 1109.88 144.001 1106.65 152.791C1103.42 161.581 1107.44 164.791 1109.19 167.791C1109.19 167.791 1116.1 160.221 1118.44 156.421C1119.4 154.725 1120.88 153.381 1122.66 152.585C1124.44 151.79 1126.43 151.585 1128.33 152.001C1128.33 152.001 1117.77 131.501 1118.13 126.001C1118.49 120.501 1119.46 112.001 1115.06 107.001C1110.66 102.001 1106.23 103.421 1106.23 103.421Z" fill="#471A16"/>
<path d="M1111.78 119.789C1111.78 119.789 1114.71 116.569 1116.65 117.059C1118.59 117.549 1118.71 120.459 1117.23 122.839C1115.75 125.219 1110.3 126.559 1110.3 126.559L1111.78 119.789Z" fill="#FEC4AD"/>
<path d="M1105.11 113.528C1102.45 113.768 1100.94 113.388 1096.78 112.928C1091.46 112.338 1089.22 113.708 1089.22 113.708L1091.22 104.858C1091.22 104.858 1097.43 101.408 1101.83 101.438C1107.43 101.438 1112.33 103.618 1109.56 105.438C1106.63 107.348 1105.11 113.528 1105.11 113.528Z" fill="#471A16"/>
<path d="M1119.87 164.49C1120.87 175.59 1124.09 207.22 1124.09 207.22C1113.99 216.06 1099.69 230.75 1099.69 230.75C1099.69 230.75 1103.76 238.75 1105.5 237.41C1119.41 226.53 1135.32 220.1 1136.5 212.52C1138.36 200.08 1139.01 168.79 1134.42 158.61C1130.85 150.76 1118.86 152.72 1119.87 164.49Z" fill="#FEC4AD"/>
<path d="M1093.56 231.73C1089.33 233.32 1086.67 234.88 1086.92 236.45C1087.1 237.54 1090.7 235.55 1092.87 235.62C1091.71 237.787 1089.92 239.548 1087.73 240.67C1084.93 242.04 1083.37 243.95 1084.86 245.57C1086.35 247.19 1089.12 249.45 1090.92 248.62C1092.72 247.79 1099.1 243.33 1101.5 242.1C1103.9 240.87 1104.87 237.84 1106.11 237.01C1107.35 236.18 1103.84 229.82 1103.84 229.82C1103.18 230.01 1099.69 230.75 1099.69 230.75C1098.55 230.939 1097.39 231.035 1096.23 231.04C1095.31 231.122 1094.41 231.355 1093.56 231.73Z" fill="#FEC4AD"/>
<path d="M745.397 102.866L784.454 86.728C785.511 86.2914 786.013 85.081 785.577 84.0244L776.022 60.9006C775.586 59.844 774.375 59.3414 773.319 59.7779L734.261 75.9161C733.205 76.3526 732.702 77.5631 733.139 78.6197L742.693 101.743C743.13 102.8 744.34 103.303 745.397 102.866Z" fill="#407BFF"/>
<path d="M745.397 102.866L784.454 86.728C785.511 86.2914 786.013 85.081 785.577 84.0244L776.022 60.9006C775.586 59.844 774.375 59.3414 773.319 59.7779L734.261 75.9161C733.205 76.3526 732.702 77.5631 733.139 78.6197L742.693 101.743C743.13 102.8 744.34 103.303 745.397 102.866Z" fill="#FFC854"/>
<path opacity="0.2" d="M776.78 62.7969L762.98 83.2369C762.457 84.0171 761.714 84.6239 760.845 84.9801C759.976 85.3363 759.02 85.4257 758.1 85.2369L734.25 80.3869L758.41 86.5169C759.465 86.7929 760.581 86.7165 761.588 86.2995C762.596 85.8825 763.439 85.1476 763.99 84.2069L776.78 62.7969Z" fill="black"/>
<path d="M805.33 61.6608C805.79 53.3508 801.33 36.0608 794.45 30.2008C787.57 24.3408 791.7 31.9008 791.7 31.9008C791.7 31.9008 785.35 24.3108 781.6 24.1308C777.85 23.9508 781.14 28.6408 781.14 28.6408C781.14 28.6408 773.98 23.1408 770.43 22.9808C766.88 22.8208 769.99 27.2908 769.99 27.2908C769.99 27.2908 764.18 22.1408 761.41 24.0408C758.64 25.9408 791.35 52.6608 794.31 62.4708C797.27 72.2808 804.87 70.0708 805.33 61.6608Z" fill="#407BFF"/>
<path d="M805.33 61.6608C805.79 53.3508 801.33 36.0608 794.45 30.2008C787.57 24.3408 791.7 31.9008 791.7 31.9008C791.7 31.9008 785.35 24.3108 781.6 24.1308C777.85 23.9508 781.14 28.6408 781.14 28.6408C781.14 28.6408 773.98 23.1408 770.43 22.9808C766.88 22.8208 769.99 27.2908 769.99 27.2908C769.99 27.2908 764.18 22.1408 761.41 24.0408C758.64 25.9408 791.35 52.6608 794.31 62.4708C797.27 72.2808 804.87 70.0708 805.33 61.6608Z" fill="#4AA4F4"/>
<path d="M775.32 57.3516L770.32 59.8716C770.247 59.9123 770.188 59.9756 770.154 60.0521C770.119 60.1285 770.11 60.2142 770.128 60.2962C770.146 60.3781 770.19 60.4521 770.253 60.5072C770.317 60.5622 770.396 60.5953 770.48 60.6016L775.48 60.7216L774.67 64.4616C774.649 64.5499 774.657 64.6427 774.693 64.726C774.729 64.8094 774.791 64.8788 774.87 64.9239C774.949 64.9689 775.04 64.9872 775.13 64.976C775.221 64.9647 775.305 64.9246 775.37 64.8616L778.54 61.9416L775.32 57.3516Z" fill="#407BFF"/>
<path d="M775.32 57.3516L770.32 59.8716C770.247 59.9123 770.188 59.9756 770.154 60.0521C770.119 60.1285 770.11 60.2142 770.128 60.2962C770.146 60.3781 770.19 60.4521 770.253 60.5072C770.317 60.5622 770.396 60.5953 770.48 60.6016L775.48 60.7216L774.67 64.4616C774.649 64.5499 774.657 64.6427 774.693 64.726C774.729 64.8094 774.791 64.8788 774.87 64.9239C774.949 64.9689 775.04 64.9872 775.13 64.976C775.221 64.9647 775.305 64.9246 775.37 64.8616L778.54 61.9416L775.32 57.3516Z" fill="#4AA4F4"/>
<path d="M842.99 45.4762C842.99 45.4762 836.99 40.3062 826.88 42.2362C826.88 42.2362 822.74 54.8862 814.59 58.4062C810.12 60.3362 799.77 59.0762 791.85 55.5762C782.43 51.4262 777.66 50.9362 775.53 54.3962C773.53 57.6762 774.96 61.8662 782.23 64.3962C789.5 66.9262 794.05 80.4662 807.55 82.0462C821.05 83.6262 829.55 70.7962 827.39 58.5262C831.232 52.7713 836.647 48.2417 842.99 45.4762Z" fill="#407BFF"/>
<path opacity="0.7" d="M842.99 45.4762C842.99 45.4762 836.99 40.3062 826.88 42.2362C826.88 42.2362 822.74 54.8862 814.59 58.4062C810.12 60.3362 799.77 59.0762 791.85 55.5762C782.43 51.4262 777.66 50.9362 775.53 54.3962C773.53 57.6762 774.96 61.8662 782.23 64.3962C789.5 66.9262 794.05 80.4662 807.55 82.0462C821.05 83.6262 829.55 70.7962 827.39 58.5262C831.232 52.7713 836.647 48.2417 842.99 45.4762Z" fill="#4AA4F4"/>
<path d="M779 57.2265C778.99 57.3133 778.998 57.4011 779.023 57.4849C779.047 57.5687 779.088 57.6468 779.143 57.7147C779.198 57.7826 779.265 57.8389 779.342 57.8804C779.419 57.9219 779.503 57.9478 779.59 57.9565C779.677 57.9676 779.766 57.961 779.85 57.9371C779.934 57.9132 780.013 57.8724 780.081 57.8173C780.149 57.7622 780.206 57.6938 780.247 57.6163C780.288 57.5389 780.313 57.4539 780.32 57.3665C780.339 57.1915 780.287 57.0162 780.176 56.8793C780.066 56.7424 779.905 56.6551 779.73 56.6365C779.555 56.618 779.38 56.6697 779.243 56.7803C779.106 56.891 779.019 57.0515 779 57.2265Z" fill="#263238"/>
<path d="M811.78 71.598C819.55 74.598 837.35 75.738 845.07 70.958C852.79 66.178 844.3 67.818 844.3 67.818C844.3 67.818 853.47 64.1179 854.81 60.6079C856.15 57.0979 850.66 58.7779 850.66 58.7779C850.66 58.7779 858.1 53.6679 859.35 50.3379C860.6 47.0079 855.35 48.5879 855.35 48.5879C855.35 48.5879 862.04 44.6479 861.1 41.4279C860.16 38.2079 824.63 61.0779 814.39 60.8579C804.15 60.6379 803.94 68.568 811.78 71.598Z" fill="#407BFF"/>
<path d="M811.78 71.598C819.55 74.598 837.35 75.738 845.07 70.958C852.79 66.178 844.3 67.818 844.3 67.818C844.3 67.818 853.47 64.1179 854.81 60.6079C856.15 57.0979 850.66 58.7779 850.66 58.7779C850.66 58.7779 858.1 53.6679 859.35 50.3379C860.6 47.0079 855.35 48.5879 855.35 48.5879C855.35 48.5879 862.04 44.6479 861.1 41.4279C860.16 38.2079 824.63 61.0779 814.39 60.8579C804.15 60.6379 803.94 68.568 811.78 71.598Z" fill="#4AA4F4"/>
<path d="M867.88 40.2538C868.88 40.0138 869.82 39.7938 870.8 39.5938" stroke="#407BFF" stroke-width="0.75" stroke-linecap="round" stroke-linejoin="round"/>
<path d="M876.59 38.5527C883.399 37.5584 890.283 37.1801 897.16 37.4227C911.71 37.9027 934.52 38.7927 941.89 54.1027C948.61 68.1027 932.44 89.0127 926.26 100.693C918.7 115.003 909.63 132.693 915.14 149.243C926.77 184.143 994.51 172.173 1017.04 142.713" stroke="#407BFF" stroke-width="0.75" stroke-linecap="round" stroke-linejoin="round" stroke-dasharray="5.89 5.89"/>
<path d="M1018.78 140.302C1019.34 139.462 1019.85 138.612 1020.33 137.742" stroke="#407BFF" stroke-width="0.75" stroke-linecap="round" stroke-linejoin="round"/>
<path d="M1402.07 331.643C1391.94 325.183 1301.65 401.303 1304.95 461.433C1304.95 461.433 1322.53 437.693 1337.85 426.133C1353.17 414.573 1354.67 402.453 1354.64 390.453C1354.61 378.453 1377.52 383.453 1380.1 370.113C1384.67 346.573 1411.18 337.463 1402.07 331.643Z" fill="#4FAE86"/>
<path d="M1408 387.667C1393.41 396.507 1397.7 408.277 1389.1 415.157C1382.85 420.157 1372.41 417.547 1367.21 424.357C1361.34 432.037 1368.01 442.607 1368.51 451.857C1369.19 464.637 1357.79 474.227 1346.2 478.107C1332.75 482.617 1315.34 481.207 1307.97 467.827C1299.28 452.037 1305.79 428.237 1321.04 420.827C1324.74 419.027 1329.45 418.547 1332.47 414.897C1337.58 408.737 1334.3 399.897 1336.67 392.057C1338.97 384.427 1346.52 379.057 1353.47 376.687C1360.42 374.317 1367.47 373.827 1374.28 371.067C1383.53 367.317 1391.63 359.067 1399.28 353.487C1406.15 348.487 1430.28 339.207 1434.19 355.487C1437.78 370.317 1420.25 380.247 1408 387.667Z" fill="#319188"/>
<path d="M1409.5 363.938C1409.5 363.938 1349.88 393.938 1302.31 490.578" stroke="#194459" stroke-miterlimit="10"/>
<path d="M1445.51 409.102C1445.51 409.102 1368.84 408.242 1305.14 481.312" stroke="white" stroke-miterlimit="10"/>
<path d="M1407.49 443.278C1400.18 446.208 1398.2 458.518 1390.33 460.088C1384.61 461.218 1378.5 456.158 1372.91 458.788C1366.61 461.788 1367.72 470.638 1365.14 476.668C1361.58 485.008 1351.01 487.378 1342.14 486.068C1331.79 484.538 1320.68 477.968 1319.99 467.068C1319.17 454.208 1330.99 441.208 1343.41 441.478C1346.41 441.538 1349.71 442.768 1352.86 441.478C1358.19 439.238 1358.79 432.548 1362.86 428.348C1366.93 424.148 1373.47 423.348 1378.86 424.058C1384.25 424.768 1389.07 426.818 1394.45 427.288C1401.76 427.918 1409.73 425.288 1416.59 424.288C1422.71 423.368 1447.7 423.848 1439.14 436.938C1433.09 445.998 1417.23 439.388 1407.49 443.278Z" fill="#4FAE86"/>
<path d="M1423.25 431.211C1423.25 431.211 1370 435.741 1308.08 481.621" stroke="#194459" stroke-miterlimit="10"/>
<path d="M1249.78 488.467C1249.78 488.467 1261.9 467.247 1263.88 465.057C1276.34 451.257 1292.88 451.107 1309.71 454.597C1314.58 455.597 1327.48 462.377 1332.16 461.437C1335.8 460.707 1340.16 446.857 1351.84 447.587C1363.52 448.317 1364.21 462.167 1364.21 462.167C1364.21 462.167 1371.52 446.077 1383.21 447.557C1394.9 449.037 1394.87 459.907 1386.12 467.967C1386.12 467.967 1404.72 462.387 1422.76 471.027C1440.8 479.667 1432.18 491.027 1432.18 491.027L1249.78 488.467Z" fill="#319188"/>
<path d="M37.4502 329.643C47.5802 323.183 137.87 399.303 134.56 459.433C134.56 459.433 116.99 435.693 101.66 424.133C86.3302 412.573 84.8502 400.453 84.8802 388.453C84.9102 376.453 62.0002 381.453 59.4102 368.113C54.8502 344.573 28.3402 335.463 37.4502 329.643Z" fill="#4FAE86"/>
<path d="M31.5204 385.667C46.1104 394.507 41.8104 406.277 50.4104 413.157C56.6704 418.157 67.1104 415.547 72.3104 422.357C78.1704 430.037 71.5104 440.607 71.0104 449.857C70.3304 462.637 81.7304 472.227 93.3204 476.107C106.77 480.617 124.18 479.207 131.54 465.827C140.24 450.037 133.73 426.237 118.48 418.827C114.78 417.027 110.07 416.547 107.05 412.897C101.94 406.737 105.22 397.897 102.85 390.057C100.55 382.427 93.0004 377.057 86.0504 374.687C79.1004 372.317 72.0504 371.827 65.2304 369.067C55.9804 365.317 47.8904 357.067 40.2304 351.487C33.3604 346.487 9.2304 337.207 5.3204 353.487C1.7104 368.317 19.2704 378.247 31.5204 385.667Z" fill="#319188"/>
<path d="M30.0195 361.938C30.0195 361.938 89.6395 391.938 137.21 488.578" stroke="#194459" stroke-miterlimit="10"/>
<path d="M-5.99023 407.102C-5.99023 407.102 70.6698 406.242 134.38 479.312" stroke="white" stroke-miterlimit="10"/>
<path d="M32.0299 441.278C39.3299 444.208 41.3099 456.518 49.1799 458.088C54.9099 459.218 61.0099 454.158 66.6099 456.788C72.9099 459.788 71.7999 468.638 74.3699 474.668C77.9299 483.008 88.5099 485.378 97.3699 484.068C107.71 482.538 118.83 475.968 119.52 465.068C120.34 452.208 108.52 439.208 96.0999 439.478C93.0999 439.538 89.7999 440.768 86.6399 439.478C81.3199 437.238 80.7199 430.548 76.6399 426.348C72.5599 422.148 66.0299 421.348 60.6399 422.058C55.2499 422.768 50.4299 424.818 45.0599 425.288C37.7399 425.918 29.7799 423.288 22.9199 422.288C16.7999 421.368 -8.19009 421.848 0.369913 434.938C6.41991 443.998 22.2899 437.388 32.0299 441.278Z" fill="#4FAE86"/>
<path d="M16.2598 429.211C16.2598 429.211 69.5198 433.741 131.44 479.621" stroke="#194459" stroke-miterlimit="10"/>
<path d="M189.78 486.467C189.78 486.467 177.67 465.247 175.69 463.057C163.23 449.257 146.69 449.107 129.86 452.597C124.98 453.597 112.09 460.377 107.41 459.437C103.77 458.707 99.4102 444.857 87.7302 445.587C76.0502 446.317 75.3602 460.167 75.3602 460.167C75.3602 460.167 68.0402 444.077 56.3602 445.557C44.6802 447.037 44.7102 457.907 53.4602 465.997C53.4602 465.997 34.8702 460.417 16.8302 469.057C-1.20977 477.697 7.40023 489.057 7.40023 489.057L189.78 486.467Z" fill="#319188"/>
<path d="M490.161 105.439C502.82 102.451 510.66 89.7672 507.672 77.1087C504.684 64.4502 492.001 56.6105 479.342 59.5981C466.684 62.5858 458.844 75.2696 461.832 87.9281C464.819 100.587 477.503 108.426 490.161 105.439Z" fill="#2E90E8"/>
<path d="M487.965 102.232C498.885 100.459 506.3 90.1704 504.527 79.251C502.755 68.3317 492.466 60.9167 481.547 62.6891C470.627 64.4616 463.212 74.7503 464.985 85.6697C466.757 96.589 477.046 104.004 487.965 102.232Z" fill="#F0F0F0"/>
<path d="M485.7 68.75V82.75L494.98 77.5" stroke="#2E90E8" stroke-linecap="round" stroke-linejoin="round"/>
<g opacity="0.8">
<path d="M685.48 316.781H746.48C749.81 316.781 752.48 314.081 754.48 310.781V260.781C752.48 257.461 749.79 254.781 746.48 254.781H685.48C683.889 254.781 682.363 255.413 681.238 256.539C680.113 257.664 679.48 259.19 679.48 260.781V310.781C679.48 312.373 680.113 313.899 681.238 315.024C682.363 316.149 683.889 316.781 685.48 316.781Z" fill="#2E90E8"/>
<path d="M732.641 296.069H704.091H698.931V273.469H732.641V279.119V296.069Z" stroke="white" stroke-width="1.65" stroke-linecap="round" stroke-linejoin="round"/>
<path d="M698.931 273.469L715.791 286.749L732.641 273.469" stroke="white" stroke-width="1.65" stroke-linecap="round" stroke-linejoin="round"/>
</g>
<g opacity="0.8">
<path d="M198.77 274.68H140.72C137.053 274.68 134.08 277.653 134.08 281.32V337.38C134.08 341.047 137.053 344.02 140.72 344.02H198.77C202.437 344.02 205.41 341.047 205.41 337.38V281.32C205.41 277.653 202.437 274.68 198.77 274.68Z" fill="#2E90E8"/>
<path d="M153.931 295.732C151.109 298.553 149.187 302.147 148.409 306.059C147.63 309.972 148.029 314.028 149.555 317.714C151.082 321.4 153.667 324.551 156.984 326.767C160.301 328.984 164.201 330.167 168.191 330.167C172.18 330.167 176.08 328.984 179.397 326.767C182.714 324.551 185.299 321.4 186.826 317.714C188.352 314.028 188.751 309.972 187.972 306.059C187.194 302.147 185.272 298.553 182.451 295.732C178.66 291.966 173.534 289.852 168.191 289.852C162.847 289.852 157.721 291.966 153.931 295.732ZM182.401 298.642H175.971C175.305 296.557 174.469 294.53 173.471 292.582C176.991 293.653 180.105 295.766 182.401 298.642ZM160.781 308.812C160.792 306.178 161.128 303.555 161.781 301.002H174.681C175.311 303.558 175.63 306.18 175.631 308.812H160.781ZM175.511 311.172C175.318 313.819 174.856 316.439 174.131 318.992H162.251C161.517 316.441 161.051 313.82 160.861 311.172H175.511ZM168.191 291.802C169.141 291.804 170.091 291.877 171.031 292.022C172.222 294.127 173.204 296.345 173.961 298.642H162.411C163.167 296.345 164.149 294.127 165.341 292.022C166.284 291.877 167.236 291.804 168.191 291.802ZM162.901 292.582C161.902 294.53 161.066 296.557 160.401 298.642H153.971C156.266 295.766 159.38 293.653 162.901 292.582ZM152.371 301.002H159.781C159.158 303.56 158.823 306.18 158.781 308.812H150.111C150.258 306.071 151.031 303.399 152.371 301.002ZM152.371 319.002C151.004 316.608 150.204 313.933 150.031 311.182H158.781C158.913 313.824 159.322 316.445 160.001 319.002H152.371ZM153.971 321.362H160.661C161.352 323.459 162.184 325.507 163.151 327.492C159.53 326.443 156.322 324.298 153.971 321.352V321.362ZM168.191 328.202C167.384 328.187 166.579 328.12 165.781 328.002C164.693 325.841 163.751 323.609 162.961 321.322H173.371C172.58 323.609 171.638 325.841 170.551 328.002C169.769 328.115 168.98 328.179 168.191 328.192V328.202ZM173.191 327.492C174.154 325.507 174.982 323.459 175.671 321.362H182.361C180.018 324.291 176.83 326.428 173.231 327.482L173.191 327.492ZM184.001 319.002H176.411C177.088 316.445 177.5 313.824 177.641 311.182H186.341C186.167 313.933 185.367 316.608 184.001 319.002ZM186.341 308.822H177.671C177.633 306.189 177.298 303.569 176.671 301.012H184.031C185.386 303.402 186.176 306.07 186.341 308.812V308.822Z" fill="white"/>
</g>
<g opacity="0.2">
<path d="M168.21 97H132.2C129.925 97 128.08 98.8446 128.08 101.12V135.89C128.08 138.165 129.925 140.01 132.2 140.01H168.21C170.485 140.01 172.33 138.165 172.33 135.89V101.12C172.33 98.8446 170.485 97 168.21 97Z" fill="#2E90E8"/>
<path d="M140.39 110.061C138.638 111.812 137.445 114.043 136.961 116.472C136.477 118.9 136.725 121.418 137.672 123.706C138.619 125.995 140.224 127.951 142.283 129.327C144.342 130.703 146.763 131.437 149.24 131.437C151.716 131.437 154.137 130.703 156.196 129.327C158.255 127.951 159.86 125.995 160.808 123.706C161.755 121.418 162.002 118.9 161.519 116.472C161.035 114.043 159.842 111.812 158.09 110.061C155.734 107.73 152.554 106.422 149.24 106.422C145.926 106.422 142.745 107.73 140.39 110.061ZM158.06 111.861H154.06C153.646 110.571 153.128 109.317 152.51 108.111C154.695 108.775 156.629 110.082 158.06 111.861ZM144.65 118.181C144.648 116.547 144.846 114.918 145.24 113.331H153.24C153.633 114.918 153.832 116.547 153.83 118.181H144.65ZM153.78 119.641C153.662 121.283 153.377 122.908 152.93 124.491H145.55C145.102 122.908 144.817 121.283 144.7 119.641H153.78ZM149.24 107.641C149.832 107.642 150.424 107.689 151.01 107.781C151.74 109.089 152.346 110.461 152.82 111.881H145.66C146.134 110.461 146.74 109.089 147.47 107.781C148.055 107.683 148.647 107.629 149.24 107.621V107.641ZM145.96 108.131C145.341 109.337 144.823 110.591 144.41 111.881H140.41C141.838 110.095 143.772 108.781 145.96 108.111V108.131ZM139.43 113.351H144C143.595 114.937 143.38 116.565 143.36 118.201H137.98C138.079 116.487 138.575 114.82 139.43 113.331V113.351ZM139.43 124.511C138.58 123.028 138.083 121.368 137.98 119.661H143.38C143.462 121.3 143.716 122.926 144.14 124.511H139.43ZM140.43 125.971H144.58C145.007 127.275 145.521 128.547 146.12 129.781C143.877 129.137 141.886 127.817 140.42 126.001L140.43 125.971ZM149.25 130.221C148.755 130.218 148.261 130.185 147.77 130.121C147.092 128.78 146.507 127.393 146.02 125.971H152.48C151.992 127.393 151.408 128.78 150.73 130.121C150.235 130.179 149.738 130.205 149.24 130.201L149.25 130.221ZM152.38 129.781C152.978 128.547 153.493 127.275 153.92 125.971H158.07C156.605 127.791 154.614 129.114 152.37 129.761L152.38 129.781ZM159.06 124.511H154.35C154.773 122.926 155.028 121.3 155.11 119.661H160.51C160.4 121.362 159.9 123.015 159.05 124.491L159.06 124.511ZM160.51 118.201H155.13C155.108 116.566 154.896 114.938 154.5 113.351H159.06C159.905 114.829 160.398 116.482 160.5 118.181L160.51 118.201Z" fill="white"/>
</g>
<path opacity="0.8" d="M170.33 149.62H68.9299C67.9247 149.62 66.9607 149.221 66.2499 148.51C65.5392 147.799 65.1399 146.835 65.1399 145.83C65.1346 145.329 65.2287 144.832 65.4168 144.367C65.6049 143.903 65.8832 143.48 66.2357 143.124C66.5881 142.768 67.0077 142.485 67.4702 142.292C67.9326 142.099 68.4288 142 68.9299 142H170.33C171.336 142 172.301 142.399 173.013 143.109C173.726 143.82 174.127 144.784 174.13 145.79C174.135 146.292 174.041 146.79 173.852 147.255C173.663 147.72 173.384 148.143 173.031 148.499C172.677 148.856 172.256 149.138 171.793 149.331C171.329 149.523 170.832 149.621 170.33 149.62Z" fill="#4AA4F4"/>
<path opacity="0.8" d="M610.6 306.309H561.39C560.384 306.309 559.42 305.909 558.71 305.199C557.999 304.488 557.6 303.524 557.6 302.519C557.598 302.02 557.695 301.526 557.885 301.065C558.075 300.604 558.354 300.185 558.706 299.832C559.058 299.479 559.476 299.199 559.937 299.008C560.397 298.817 560.891 298.719 561.39 298.719H610.6C611.607 298.719 612.574 299.119 613.287 299.832C613.999 300.544 614.4 301.511 614.4 302.519C614.397 303.525 613.995 304.489 613.283 305.199C612.571 305.91 611.606 306.309 610.6 306.309Z" fill="#4AA4F4"/>
<path opacity="0.8" d="M576.14 338.82H570.12C568.54 338.82 567.26 340.101 567.26 341.68V347.33C567.26 348.91 568.54 350.19 570.12 350.19H576.14C577.719 350.19 579 348.91 579 347.33V341.68C579 340.101 577.719 338.82 576.14 338.82Z" fill="#4AA4F4"/>
<g opacity="0.8">
<path d="M1360.36 194.708H1260.28C1259.48 194.708 1258.72 194.392 1258.16 193.829C1257.6 193.267 1257.28 192.503 1257.28 191.708V167.258C1257.28 166.462 1257.6 165.699 1258.16 165.137C1258.72 164.574 1259.48 164.258 1260.28 164.258H1360.36C1361.16 164.258 1361.92 164.574 1362.48 165.137C1363.04 165.699 1363.36 166.462 1363.36 167.258L1365.36 191.688C1365.37 193.358 1362.03 194.708 1360.36 194.708Z" fill="#2E90E8"/>
<path d="M1271.72 175.102H1342.89" stroke="white" stroke-width="1.18" stroke-miterlimit="10"/>
<path d="M1271.72 182.406H1300.71" stroke="white" stroke-width="1.18" stroke-miterlimit="10"/>
<path d="M1268.82 191.258V203.128L1283.75 191.258H1268.82Z" fill="#2E90E8"/>
</g>
<g opacity="0.8">
<path d="M310.47 143.519H262.02C259.761 143.516 257.596 142.618 255.998 141.021C254.401 139.423 253.503 137.258 253.5 134.999V89.9991C253.5 88.2858 254.181 86.6426 255.392 85.4312C256.604 84.2197 258.247 83.5391 259.96 83.5391H310.47C312.183 83.5391 313.826 84.2197 315.038 85.4312C316.249 86.6426 316.93 88.2858 316.93 89.9991V137.099C316.919 138.805 316.234 140.438 315.024 141.641C313.813 142.844 312.176 143.519 310.47 143.519Z" fill="#2E90E8"/>
<path d="M298.02 117.996L294.41 114.376C294.119 114.042 293.762 113.773 293.36 113.585C292.959 113.397 292.523 113.295 292.08 113.286C291.206 113.303 290.373 113.662 289.76 114.286L287.7 116.346L287.31 116.156C287.09 116.063 286.876 115.957 286.67 115.836C284.629 114.505 282.819 112.85 281.31 110.936C280.637 110.132 280.075 109.24 279.64 108.286C280.15 107.836 280.64 107.286 281.06 106.866L281.64 106.286C281.983 105.99 282.258 105.624 282.446 105.213C282.635 104.801 282.732 104.354 282.732 103.901C282.732 103.448 282.635 103.001 282.446 102.589C282.258 102.178 281.983 101.812 281.64 101.516L279.83 99.7059C279.62 99.5088 279.426 99.2947 279.25 99.0659L278.02 97.8359C277.407 97.2126 276.574 96.8537 275.7 96.8359C275.266 96.8359 274.836 96.9245 274.437 97.0965C274.038 97.2684 273.678 97.5201 273.38 97.8359L271.12 100.096C270.278 100.947 269.755 102.064 269.64 103.256C269.567 104.931 269.853 106.601 270.48 108.156C271.601 111.262 273.297 114.128 275.48 116.606C278.312 119.992 281.829 122.739 285.8 124.666C287.614 125.588 289.578 126.178 291.6 126.406H292.05C292.777 126.418 293.497 126.275 294.165 125.987C294.832 125.699 295.43 125.273 295.92 124.736L295.99 124.666C296.346 124.25 296.734 123.862 297.15 123.506L297.99 122.666C298.308 122.366 298.561 122.006 298.735 121.605C298.909 121.205 299.001 120.774 299.003 120.337C299.006 119.901 298.921 119.468 298.752 119.066C298.583 118.664 298.334 118.3 298.02 117.996ZM296.53 121.346L295.76 122.116C295.31 122.506 294.92 122.956 294.47 123.406C294.179 123.731 293.821 123.989 293.421 124.162C293.02 124.335 292.586 124.418 292.15 124.406H291.83C290.078 124.222 288.379 123.696 286.83 122.856C283.131 121.048 279.856 118.479 277.22 115.316C275.231 112.99 273.639 110.351 272.51 107.506C271.907 106.263 271.638 104.884 271.73 103.506C271.778 102.788 272.105 102.117 272.64 101.636L274.83 99.4459C275.062 99.1872 275.384 99.0264 275.73 98.9959C275.904 99.0013 276.074 99.0444 276.23 99.1221C276.385 99.1997 276.522 99.3103 276.63 99.4459L277.8 100.606C277.995 100.84 278.209 101.057 278.44 101.256L280.25 103.056C280.498 103.3 280.657 103.621 280.7 103.966C280.67 104.312 280.509 104.634 280.25 104.866L279.67 105.446L278.02 106.996L277.96 107.066C277.732 107.258 277.572 107.518 277.501 107.807C277.431 108.097 277.455 108.401 277.57 108.676V108.736C278.115 109.992 278.832 111.167 279.7 112.226C281.349 114.32 283.332 116.128 285.57 117.576C285.837 117.749 286.118 117.9 286.41 118.026C286.63 118.118 286.844 118.225 287.05 118.346L287.12 118.416C287.413 118.573 287.751 118.625 288.078 118.565C288.405 118.505 288.702 118.336 288.92 118.086L291.18 115.836C291.409 115.573 291.732 115.411 292.08 115.386C292.407 115.423 292.708 115.584 292.92 115.836L296.53 119.446C296.663 119.56 296.77 119.702 296.843 119.862C296.917 120.022 296.955 120.195 296.955 120.371C296.955 120.547 296.917 120.72 296.843 120.88C296.77 121.039 296.663 121.181 296.53 121.296V121.346Z" fill="white"/>
</g>
<path d="M10 488H1417.22" stroke="#375A64" stroke-width="4" stroke-linecap="round" stroke-linejoin="round"/>
</g>
<defs>
<linearGradient id="paint0_linear_408_841" x1="1008.67" y1="283.912" x2="1080.77" y2="283.912" gradientUnits="userSpaceOnUse">
<stop stop-color="#343A44"/>
<stop offset="0.3" stop-color="#232D3E"/>
<stop offset="0.64" stop-color="#182439"/>
<stop offset="1" stop-color="#142138"/>
</linearGradient>
<linearGradient id="paint1_linear_408_841" x1="1026.29" y1="274.083" x2="1128.33" y2="274.083" gradientUnits="userSpaceOnUse">
<stop stop-color="#343A44"/>
<stop offset="0.3" stop-color="#232D3E"/>
<stop offset="0.64" stop-color="#182439"/>
<stop offset="1" stop-color="#142138"/>
</linearGradient>
<clipPath id="clip0_408_841">
<rect width="1451.51" height="491.64" fill="white" transform="translate(-6)"/>
</clipPath>
</defs>
</svg>
