<svg width="1440" height="605" viewBox="0 0 1440 605" fill="none" xmlns="http://www.w3.org/2000/svg">
<path d="M1445.17 0.171875H-3.87305V604.172H1445.17V0.171875Z" fill="#2C85FF"/>
<path d="M1055.5 300.63C1063.91 318.98 1068.64 336.34 1062.44 344.09C1062.08 344.545 1061.68 344.967 1061.25 345.35C1056.47 349.55 1047.09 349.65 1031.25 343.35C989.087 326.7 987.087 297.96 978.567 269.9C970.157 242.19 940.797 246.9 940.057 247C1008.47 223.17 1041.23 269.51 1055.5 300.63Z" fill="url(#paint0_linear_1710_1311)"/>
<path d="M1062.44 344.095C1062.08 344.55 1061.68 344.972 1061.25 345.355C1053.33 340.585 1038.17 330.475 1031.02 319.115C1027.59 313.387 1024.52 307.46 1021.81 301.365C1016.13 289.305 1010.26 276.845 1000.01 267.285L1001.15 266.055C1011.64 275.835 1017.58 288.455 1023.32 300.655C1026 306.69 1029.04 312.558 1032.44 318.225C1039.41 329.305 1054.72 339.455 1062.44 344.095Z" fill="url(#paint1_linear_1710_1311)"/>
<path d="M1048.17 308.173C1047.67 309.403 1047.35 310.093 1047.31 310.173C1047.19 309.503 1047.06 308.833 1046.93 308.173C1041.31 279.363 1033.79 276.353 1011.24 251.173C988.176 225.393 1001.44 201.383 1001.44 201.383C1078.7 223.633 1053.43 295.243 1048.17 308.173Z" fill="url(#paint2_linear_1710_1311)"/>
<path d="M1048.17 308.171C1047.67 309.401 1047.35 310.091 1047.31 310.171C1047.19 309.501 1047.06 308.831 1046.93 308.171C1049.43 283.271 1034.41 254.041 1029.68 248.801C1024.8 243.361 1021.79 235.891 1020.68 233.081C1020.49 232.611 1020.31 232.171 1020.25 232.081L1021.34 231.461C1021.44 231.631 1021.56 231.941 1021.84 232.621C1022.95 235.381 1025.91 242.701 1030.65 247.961C1036.61 254.551 1050.47 283.921 1048.17 308.171Z" fill="url(#paint3_linear_1710_1311)"/>
<g style="mix-blend-mode:hard-light">
<path d="M1387.34 158.883H1057.85C1045.52 158.883 1035.53 168.876 1035.53 181.203V275.473C1035.53 287.8 1045.52 297.793 1057.85 297.793H1387.34C1399.66 297.793 1409.66 287.8 1409.66 275.473V181.203C1409.66 168.876 1399.66 158.883 1387.34 158.883Z" fill="#F4F4F4"/>
</g>
<path d="M1195.39 460.164H1055.12V464.854H1195.39V460.164Z" fill="white"/>
<path d="M1159.29 438.273H1055.12V442.963H1159.29V438.273Z" fill="url(#paint4_linear_1710_1311)"/>
<path d="M1167.68 449.211H1055.12V453.901H1167.68V449.211Z" fill="url(#paint5_linear_1710_1311)"/>
<path d="M1128.16 460.164H1055.12V464.854H1128.16V460.164Z" fill="url(#paint6_linear_1710_1311)"/>
<g style="mix-blend-mode:hard-light">
<path d="M1187.84 305.312H985.847C976.701 305.312 969.287 312.727 969.287 321.872V504.042C969.287 513.188 976.701 520.602 985.847 520.602H1187.84C1196.98 520.602 1204.4 513.188 1204.4 504.042V321.872C1204.4 312.727 1196.98 305.312 1187.84 305.312Z" fill="#F4F4F4"/>
</g>
<path d="M1056.43 370.523C1058.69 364.198 1058.97 357.334 1057.23 350.845C1055.5 344.355 1051.83 338.547 1046.72 334.193C1044.24 332.083 1041.46 330.354 1038.48 329.063C1037.81 328.773 1037.12 328.503 1036.42 328.253C1030.26 326.05 1023.58 325.722 1017.24 327.312C1010.89 328.902 1005.16 332.337 1000.77 337.184C996.38 342.031 993.523 348.072 992.564 354.542C991.605 361.012 992.587 367.622 995.384 373.534C998.182 379.447 1002.67 384.397 1008.28 387.758C1013.89 391.12 1020.37 392.742 1026.91 392.42C1033.44 392.098 1039.73 389.845 1044.98 385.948C1050.24 382.05 1054.21 376.682 1056.42 370.523H1056.43ZM1016.93 382.733C1013.86 381.637 1011.04 379.947 1008.63 377.761C1006.22 375.574 1004.26 372.934 1002.87 369.991C1001.47 367.048 1000.67 363.859 1000.51 360.607C1000.35 357.355 1000.84 354.104 1001.93 351.038C1003.03 347.972 1004.72 345.153 1006.9 342.74C1009.09 340.327 1011.73 338.369 1014.67 336.976C1017.62 335.584 1020.81 334.785 1024.06 334.625C1027.31 334.465 1030.56 334.947 1033.63 336.043C1034.16 336.233 1034.63 336.433 1035.18 336.653C1037.41 337.622 1039.49 338.92 1041.35 340.503C1045.77 344.261 1048.74 349.454 1049.73 355.175C1050.72 360.897 1049.67 366.784 1046.76 371.811C1043.86 376.837 1039.28 380.684 1033.82 382.68C1028.37 384.676 1022.39 384.695 1016.93 382.733Z" fill="#90C1FC"/>
<path d="M1017.89 335.71L1015.43 327.82C1008.86 329.87 1003.09 333.918 998.932 339.399C994.772 344.88 992.424 351.522 992.217 358.4L1000.49 358.64C1000.65 353.487 1002.42 348.513 1005.54 344.405C1008.65 340.297 1012.97 337.259 1017.89 335.71Z" fill="#4372BD"/>
<path d="M1035.17 336.65L1038.47 329.06C1037.8 328.77 1037.11 328.5 1036.41 328.25C1029.64 325.813 1022.27 325.662 1015.41 327.82L1017.87 335.71C1023.01 334.1 1028.54 334.216 1033.61 336.04C1034.17 336.23 1034.67 336.43 1035.17 336.65Z" fill="#4E85DE"/>
<path d="M1046.72 334.169C1044.24 332.059 1041.46 330.33 1038.48 329.039L1035.18 336.629C1037.41 337.598 1039.49 338.896 1041.35 340.479L1046.72 334.169Z" fill="#72ACFB"/>
<path d="M1161.69 437.664H1150.21V476.974H1161.69V437.664Z" fill="#72ACFB"/>
<path d="M1144.63 448.695H1133.15V476.975H1144.63V448.695Z" fill="#72ACFB"/>
<path d="M1178.24 419.445H1166.76V476.975H1178.24V419.445Z" fill="#72ACFB"/>
<path d="M1176.39 390.701L1176.19 389.461L1145.9 394.421L1136.08 415.351L1103.42 417.561L1092.84 433.171L1067.88 432.551L1067.85 433.801L1093.5 434.441L1104.12 418.781L1136.9 416.551L1146.76 395.551L1176.39 390.701Z" fill="#72ACFB"/>
<path d="M1139.37 338.312H1172.01C1172.5 338.312 1172.98 338.215 1173.43 338.028C1173.89 337.84 1174.3 337.565 1174.64 337.219C1174.99 336.873 1175.27 336.462 1175.45 336.009C1175.64 335.556 1175.74 335.071 1175.74 334.582C1175.74 333.592 1175.34 332.644 1174.64 331.944C1173.94 331.245 1173 330.852 1172.01 330.852H1139.37C1138.38 330.852 1137.43 331.245 1136.73 331.944C1136.03 332.644 1135.64 333.592 1135.64 334.582C1135.64 335.071 1135.73 335.556 1135.92 336.009C1136.11 336.462 1136.38 336.873 1136.73 337.219C1137.08 337.565 1137.49 337.84 1137.94 338.028C1138.39 338.215 1138.88 338.312 1139.37 338.312Z" fill="#4E85DE"/>
<path d="M1139.37 351.335H1172.01C1173 351.335 1173.94 350.942 1174.64 350.242C1175.34 349.543 1175.74 348.594 1175.74 347.605C1175.74 346.616 1175.34 345.667 1174.64 344.967C1173.94 344.268 1173 343.875 1172.01 343.875H1139.37C1138.38 343.875 1137.43 344.268 1136.73 344.967C1136.03 345.667 1135.64 346.616 1135.64 347.605C1135.64 348.594 1136.03 349.543 1136.73 350.242C1137.43 350.942 1138.38 351.335 1139.37 351.335Z" fill="#72ACFB"/>
<path d="M1139.37 364.351H1172.01C1172.5 364.351 1172.98 364.254 1173.43 364.067C1173.89 363.879 1174.3 363.604 1174.64 363.258C1174.99 362.912 1175.27 362.501 1175.45 362.048C1175.64 361.595 1175.74 361.11 1175.74 360.621C1175.74 359.631 1175.34 358.683 1174.64 357.983C1173.94 357.284 1173 356.891 1172.01 356.891H1139.37C1138.38 356.891 1137.43 357.284 1136.73 357.983C1136.03 358.683 1135.64 359.631 1135.64 360.621C1135.64 361.11 1135.73 361.595 1135.92 362.048C1136.11 362.501 1136.38 362.912 1136.73 363.258C1137.08 363.604 1137.49 363.879 1137.94 364.067C1138.39 364.254 1138.88 364.351 1139.37 364.351Z" fill="#72ACFB"/>
<path d="M1080.29 344.769H1061.62V344.049H1080L1089.82 334.219H1101.86V334.939H1090.12L1080.29 344.769Z" fill="#72ACFB"/>
<path d="M1097.99 377.378H1073.96L1066.18 369.588L1066.68 369.078L1074.26 376.658H1097.99V377.378Z" fill="#72ACFB"/>
<path d="M1116.5 338.969H1091.6V342.029H1116.5V338.969Z" fill="#4E85DE"/>
<path d="M1104.06 370.125H1084.01V373.185H1104.06V370.125Z" fill="#4E85DE"/>
<path d="M916.646 384.76C922.926 381.76 929.166 401.76 929.166 401.76C939.826 415.85 954.726 397.11 953.276 418.17C950.726 455.03 995.696 429.76 974.946 468.24C954.196 506.72 993.266 490 980.376 521.02C967.486 552.04 984.196 589.02 964.796 573.85C964.796 573.85 947.706 536.39 930.096 524.85C912.486 513.31 940.646 499.51 935.096 483.77C927.096 460.9 907.796 461.77 921.706 437.23C935.616 412.69 895.326 394.96 916.646 384.76Z" fill="url(#paint7_linear_1710_1311)"/>
<path d="M970.937 559.722C962.527 553.812 952.687 512.592 952.097 488.052C951.797 475.472 948.097 470.232 944.797 465.612C941.667 461.192 938.957 457.382 940.537 448.612C943.537 431.862 935.627 424.612 935.537 424.562L936.457 423.562C936.807 423.873 945.057 431.322 941.897 448.892C940.417 457.082 942.897 460.502 945.897 464.842C949.117 469.382 953.137 475.042 953.447 488.042C954.077 514.392 964.137 553.302 971.697 558.612L970.937 559.722Z" fill="white"/>
<path d="M974.087 562.782C972.89 562.77 971.698 562.639 970.527 562.392C967.287 561.732 965.157 560.032 964.207 557.312C961.947 550.832 967.207 540.312 971.457 535.222C975.961 529.211 978.24 521.825 977.907 514.322C977.777 512.322 977.567 510.422 977.377 508.772C976.847 503.992 976.457 500.532 978.517 498.222C980.327 496.222 983.817 495.302 990.197 495.272C1001.39 495.222 1005.82 490.592 1009.38 486.872C1010.72 485.306 1012.29 483.957 1014.04 482.872C1019.62 479.822 1025.53 479.372 1028.04 481.802C1029.26 482.952 1030.29 485.212 1028.27 489.432C1026.72 492.52 1024.64 495.31 1022.12 497.672C1019.53 500.312 1017.83 502.052 1018.72 505.522C1018.93 506.342 1019.17 507.162 1019.41 507.992C1021.13 513.892 1023.09 520.572 1012.99 525.112C1010.85 526.112 1008.89 526.842 1007.17 527.522C1000.17 530.292 995.867 531.962 991.057 542.102C990.127 544.102 989.307 545.922 988.517 547.722C984.777 556.292 981.907 562.782 974.087 562.782ZM1014.71 484.072C1013.08 485.099 1011.62 486.366 1010.38 487.832C1006.64 491.742 1001.99 496.612 990.207 496.672C984.337 496.672 981.057 497.462 979.547 499.152C978.037 500.842 978.267 504.152 978.767 508.612C978.947 510.282 979.167 512.182 979.297 514.242C979.699 522.103 977.3 529.852 972.527 536.112C968.307 541.112 963.527 551.112 965.527 556.852C966.297 559.072 968.077 560.482 970.807 561.032C980.317 562.952 982.937 557.032 987.287 547.142C988.087 545.332 988.917 543.462 989.847 541.482C994.847 530.842 999.597 529.002 1006.71 526.202C1008.42 525.532 1010.36 524.782 1012.47 523.832C1021.47 519.832 1019.84 514.232 1018.12 508.362C1017.88 507.522 1017.63 506.682 1017.42 505.852C1016.34 501.622 1018.42 499.442 1021.18 496.682C1023.59 494.425 1025.58 491.761 1027.07 488.812C1027.98 486.902 1028.73 484.302 1027.13 482.812C1025.03 480.812 1019.69 481.372 1014.71 484.092V484.072Z" fill="url(#paint8_linear_1710_1311)"/>
<path d="M970.677 570.798L969.287 570.728C969.357 569.428 971.107 538.668 983.457 529.668C997.007 519.788 1001.28 509.178 1003.32 502.058C1005.71 493.658 1017.91 491.418 1018.43 491.328L1018.68 492.698C1018.56 492.698 1006.81 494.878 1004.68 502.438C1002.59 509.758 998.207 520.668 984.307 530.788C972.457 539.408 970.697 570.488 970.677 570.798Z" fill="url(#paint9_linear_1710_1311)"/>
<path d="M998.917 415.803C990.137 412.803 991.917 429.713 988.247 442.233C984.577 454.753 946.987 447.693 962.757 479.033C978.527 510.373 942.817 489.513 953.477 516.873C964.137 544.233 954.407 573.473 965.997 566.033C977.587 558.593 972.507 524.153 984.567 520.033C996.627 515.913 998.567 511.173 986.647 500.033C974.727 488.893 1017.92 477.863 1007.26 455.393C996.597 432.923 1009.06 419.283 998.917 415.803Z" fill="url(#paint10_linear_1710_1311)"/>
<path d="M971.377 564.719C970.267 560.039 960.847 518.829 969.637 513.849C977.397 509.459 977.207 492.379 975.997 476.259C974.927 461.989 993.257 455.309 993.997 455.039L994.457 456.349C994.277 456.409 976.347 462.939 977.337 476.159C978.577 492.719 978.717 510.279 970.287 515.059C963.607 518.839 969.757 551.959 972.687 564.399L971.377 564.719Z" fill="white"/>
<path d="M992.207 556.633L979.677 604.173H951.667L939.137 556.633H992.207Z" fill="url(#paint11_linear_1710_1311)"/>
<path d="M992.207 556.633C992.207 556.633 964.617 561.813 964.617 604.173H951.617L939.087 556.633H992.207Z" fill="url(#paint12_linear_1710_1311)"/>
<path d="M1067.1 139.969V143.999H1027.8V183.309H1023.76V139.969H1067.1Z" fill="#BFD4FC"/>
<path d="M1422.86 128.219H1390.87V130.459H1422.86V128.219Z" fill="#BFD4FC"/>
<path d="M1422.86 132.453H1390.87V141.883H1422.86V132.453Z" fill="#BFD4FC"/>
<path d="M1387.8 136.031H1368.93V137.441H1387.8V136.031Z" fill="#BFD4FC"/>
<path d="M1387.8 138.062H1368.93V141.883H1387.8V138.062Z" fill="#BFD4FC"/>
<path d="M1423.56 128.219H1422.15V154.639H1423.56V128.219Z" fill="#BFD4FC"/>
<path d="M1069.71 488.281H1030.23V490.621H1069.71V488.281Z" fill="#DCD0C8"/>
<path d="M1035.51 603.312H1038.97V496.722H1035.51V603.312Z" fill="#6D6865"/>
<path d="M1090.97 487.625H1063.53V490.975H1090.97V487.625Z" fill="#C6BBB5"/>
<path d="M1082.44 459.062H1072.05V490.632H1082.44V459.062Z" fill="#948C87"/>
<path d="M1168.11 490.672H1016.06V496.732H1168.11V490.672Z" fill="#A98E75"/>
<path d="M986.877 453.994C986.877 453.994 985.207 477.314 989.767 480.104C992.627 481.854 1004.01 487.744 1003.67 488.854C1003.33 489.964 997.237 498.694 997.237 498.694C997.237 498.694 975.377 484.294 974.677 479.764C973.977 475.234 975.747 445.614 978.757 444.244C981.007 443.244 982.197 444.064 985.027 446.174C989.007 449.174 986.877 453.994 986.877 453.994Z" fill="#EBB35C"/>
<path d="M1013.78 587.759C1013.78 587.759 1013.1 592.479 1013.01 593.189C1012.92 593.899 1005.45 592.769 1005.45 592.769L1004.84 587.149C1004.84 587.149 1012.84 587.099 1013.78 587.759Z" fill="#454971"/>
<path d="M1013.09 592.594C1014.42 594.185 1015.99 595.561 1017.75 596.674C1020.04 597.914 1023.65 598.404 1025 599.674C1026 600.604 1028.56 604.594 1019 604.514C1009.44 604.434 1004.9 605.074 1003.88 603.514C1002.86 601.954 1005.35 592.234 1005.35 592.234C1005.35 592.234 1007.65 593.084 1013.09 592.594Z" fill="#2E3048"/>
<path d="M1061.69 587.813C1061.69 587.813 1061.01 592.523 1060.92 593.233C1060.83 593.943 1053.36 592.823 1053.36 592.823L1052.75 587.203C1052.75 587.203 1060.75 587.173 1061.69 587.813Z" fill="#454971"/>
<path d="M1061 592.631C1062.33 594.225 1063.9 595.601 1065.66 596.711C1067.95 597.951 1076.39 598.971 1077.74 600.261C1078.74 601.181 1080.35 604.911 1066.95 604.561C1057.44 604.311 1052.85 605.121 1051.83 603.561C1050.81 602.001 1053.3 592.281 1053.3 592.281C1053.3 592.281 1055.43 593.171 1061 592.631Z" fill="#2E3048"/>
<path d="M989.657 506.25C989.657 506.25 1016.84 510.85 1022.98 511.81C1029.12 512.77 1062.42 521.06 1066.58 523.58C1069.9 525.58 1064.84 573.86 1063.66 592.27H1050.55L1049.55 537.04C1033.81 537.43 1022.55 533.36 1011.12 535.1C999.687 536.84 990.117 539.31 982.827 529.54C982.877 529.54 982.607 508.38 989.657 506.25Z" fill="#2E3048"/>
<path d="M1016.45 592.309L1003.67 591.519L1002.43 537.039C997.549 537.186 992.668 536.875 987.847 536.109L977.527 512.109C986.527 513.909 1015.53 521.219 1019.41 523.559C1022.73 525.599 1017.63 573.899 1016.45 592.309Z" fill="#2E3048"/>
<path d="M1002.17 405.341C1002.17 405.341 1012.17 402.591 1015.94 410.341C1019.71 418.091 1018.02 432.741 1013 434.121C1007.98 435.501 1000.75 433.911 998.667 429.121C996.587 424.331 994.917 417.471 995.417 413.031C995.917 408.591 999.527 406.401 1002.17 405.341Z" fill="#DBA585"/>
<path d="M1010.39 432.564C1010.39 432.564 1010.28 438.454 1010.93 439.704C1011.58 440.954 997.047 440.644 997.047 440.644C997.047 440.644 999.337 433.584 998.047 427.564C996.757 421.544 1010.39 432.564 1010.39 432.564Z" fill="#DBA585"/>
<path d="M997.257 425.335C997.257 425.335 998.037 426.915 1001.8 426.655C1005.56 426.395 1010.52 421.865 1012.11 421.465C1013.7 421.065 1013.8 420.145 1013.8 420.145L1014.65 421.645L1016.28 421.895C1016.28 421.895 1015.17 417.355 1017.6 415.755C1020.03 414.155 1016.5 401.255 1004.25 404.365C1004.25 404.365 994.887 406.085 994.757 411.305C994.627 416.525 995.447 422.565 997.257 425.335Z" fill="#3E4148"/>
<path d="M1011.69 439.555C1011.69 439.555 1011.69 437.155 1010.57 436.925C1009.45 436.695 999.147 435.275 997.817 435.805L997.237 438.965C997.237 438.965 999.807 440.545 1011.69 439.555Z" fill="#DCD0C8"/>
<path d="M1014.68 419.075C1014.41 417.075 1012.17 414.855 1010.89 417.915C1009.61 420.975 1011.76 425.435 1013.19 425.195C1014.62 424.955 1015.06 421.745 1014.68 419.075Z" fill="#DBA585"/>
<path d="M999.266 406.752C999.266 406.752 987.106 406.172 997.166 425.172L999.266 406.752Z" fill="#3E4148"/>
<path d="M972.187 597.784L973.096 600.324L1011.29 588.484L1009.46 583.344L972.187 597.784Z" fill="#8C8581"/>
<path d="M1012.6 545.148H1008.26V586.668H1012.6V545.148Z" fill="#8C8581"/>
<path d="M1023.24 544.945H997.627V547.395H1023.24V544.945Z" fill="#5D5955"/>
<path d="M1049 597.786L1048.1 600.326L1009.91 588.486L1011.59 583.016L1049 597.786Z" fill="#8C8581"/>
<path d="M1022.09 600.056V603.016L1009.91 588.486L1011.59 583.016L1022.09 600.056Z" fill="#8C8581"/>
<path d="M1052.57 601.312C1052.57 602.018 1052.36 602.709 1051.97 603.296C1051.57 603.883 1051.02 604.34 1050.36 604.61C1049.71 604.881 1048.99 604.951 1048.3 604.814C1047.61 604.676 1046.97 604.336 1046.47 603.837C1045.97 603.337 1045.63 602.701 1045.5 602.009C1045.36 601.316 1045.43 600.598 1045.7 599.946C1045.97 599.294 1046.43 598.736 1047.01 598.344C1047.6 597.952 1048.29 597.742 1049 597.742C1049.47 597.742 1049.93 597.835 1050.36 598.014C1050.8 598.193 1051.19 598.456 1051.52 598.788C1051.85 599.119 1052.12 599.513 1052.3 599.946C1052.47 600.379 1052.57 600.843 1052.57 601.312Z" fill="#B9AFAA"/>
<path d="M1022.39 601.312C1022.39 602.018 1022.18 602.709 1021.79 603.296C1021.39 603.883 1020.84 604.34 1020.18 604.61C1019.53 604.881 1018.81 604.951 1018.12 604.814C1017.43 604.676 1016.79 604.336 1016.29 603.837C1015.79 603.337 1015.45 602.701 1015.32 602.009C1015.18 601.316 1015.25 600.598 1015.52 599.946C1015.79 599.294 1016.25 598.736 1016.83 598.344C1017.42 597.952 1018.11 597.742 1018.82 597.742C1019.29 597.742 1019.75 597.835 1020.18 598.014C1020.62 598.193 1021.01 598.456 1021.34 598.788C1021.67 599.119 1021.94 599.513 1022.12 599.946C1022.29 600.379 1022.39 600.843 1022.39 601.312Z" fill="#B9AFAA"/>
<path d="M975.757 601.312C975.757 602.018 975.548 602.709 975.156 603.296C974.763 603.883 974.206 604.34 973.553 604.61C972.901 604.881 972.183 604.951 971.491 604.814C970.798 604.676 970.162 604.336 969.663 603.837C969.164 603.337 968.824 602.701 968.686 602.009C968.548 601.316 968.619 600.598 968.889 599.946C969.159 599.294 969.617 598.736 970.204 598.344C970.791 597.952 971.481 597.742 972.187 597.742C972.656 597.742 973.12 597.835 973.553 598.014C973.986 598.193 974.38 598.456 974.712 598.788C975.043 599.119 975.306 599.513 975.485 599.946C975.665 600.379 975.757 600.843 975.757 601.312Z" fill="#B9AFAA"/>
<path d="M1036.29 544.94H984.897C983.669 544.94 982.491 544.452 981.623 543.584C980.754 542.715 980.267 541.538 980.267 540.31C980.267 539.082 980.754 537.904 981.623 537.036C982.491 536.167 983.669 535.68 984.897 535.68H1036.29C1036.9 535.678 1037.5 535.797 1038.06 536.029C1038.62 536.261 1039.14 536.602 1039.57 537.032C1040 537.462 1040.34 537.973 1040.57 538.536C1040.81 539.098 1040.93 539.701 1040.93 540.31C1040.93 540.919 1040.81 541.521 1040.57 542.084C1040.34 542.646 1040 543.157 1039.57 543.587C1039.14 544.017 1038.62 544.358 1038.06 544.59C1037.5 544.822 1036.9 544.941 1036.29 544.94Z" fill="#DCD0C8"/>
<path d="M1148.66 496.734H1145.2V603.324H1148.66V496.734Z" fill="#6D6865"/>
<path d="M1116.84 410.961H1037.66C1034.74 410.961 1032.38 413.325 1032.38 416.241V468.981C1032.38 471.897 1034.74 474.261 1037.66 474.261H1116.84C1119.75 474.261 1122.12 471.897 1122.12 468.981V416.241C1122.12 413.325 1119.75 410.961 1116.84 410.961Z" fill="#B2A8A3"/>
<path d="M1118.61 414.383H1035.9V464.343H1118.61V414.383Z" fill="#F4F6FF"/>
<path d="M1114.93 469.062C1114.93 470.482 1113.43 471.632 1111.59 471.632C1109.75 471.632 1108.26 470.482 1108.26 469.062C1108.26 467.642 1109.75 466.492 1111.59 466.492C1113.43 466.492 1114.93 467.642 1114.93 469.062Z" fill="#8C8480"/>
<path d="M1095.82 490.755V489.625C1095.82 489.625 1094.24 482.625 1083.04 482.625C1071.84 482.625 1072.04 490.765 1072.04 490.765L1095.82 490.755Z" fill="#948C87"/>
<path d="M1071.93 483.663C1073.07 483.594 1074.19 483.347 1075.25 482.934C1076.15 482.394 1081.48 478.803 1082.73 479.383C1083.98 479.963 1092.32 482.513 1092.03 483.723C1091.74 484.933 1090.97 484.834 1090.38 484.614C1089.79 484.394 1083.74 483.124 1083.21 483.344C1083.21 483.344 1089.15 485.514 1089.21 487.094C1089.27 488.674 1087.96 489.093 1087.4 489.663C1086.84 490.233 1086.16 491.754 1084.63 491.864C1083.1 491.974 1075.63 489.373 1074.08 489.253C1072.53 489.133 1069.69 489.353 1069.49 489.103C1069.29 488.853 1071.93 483.663 1071.93 483.663Z" fill="#DBA585"/>
<path d="M1027.62 442.871C1019.86 441.511 1011.69 439.551 1011.69 439.551L997.237 438.961C997.237 438.961 983.977 441.881 978.757 444.241C978.257 444.471 978.256 456.071 976.896 459.121L981.227 468.251C981.227 468.251 983.727 486.351 984.227 494.401C984.467 498.091 983.557 530.111 983.557 530.111C983.557 530.111 984.856 530.751 994.716 531.841C1004.58 532.931 1029.22 531.441 1029.38 530.281C1029.54 529.121 1024.61 486.901 1024.38 484.721C1024.04 481.361 1025.38 465.861 1025.38 465.861C1027.24 468.351 1031.97 479.631 1036.91 484.991C1039.82 488.151 1054.2 490.081 1056.91 490.171C1062.81 490.371 1073.58 491.541 1073.91 490.971C1074.16 490.621 1074.85 481.411 1074.17 481.191C1073.49 480.971 1053.59 479.841 1048.47 477.121C1046.6 476.121 1041 463.921 1041 463.921C1041 463.921 1031.9 444.801 1027.62 442.871Z" fill="#EBB35C"/>
<path d="M976.257 471.25H997.777C1000.47 471.25 1003.06 472.32 1004.96 474.226C1006.87 476.131 1007.94 478.715 1007.94 481.41V519.03C1007.93 521.723 1006.86 524.303 1004.95 526.205C1003.04 528.106 1000.46 529.173 997.767 529.17H976.257C973.569 529.162 970.994 528.09 969.096 526.187C967.197 524.285 966.13 521.708 966.127 519.02V481.4C966.127 478.712 967.194 476.133 969.093 474.23C970.992 472.327 973.568 471.255 976.257 471.25Z" fill="#DCD0C8"/>
<path d="M1000.52 542.64C994.346 542.64 989.346 540.571 985.646 536.481C977.286 527.251 978.786 511.021 978.856 510.331C978.948 509.742 979.262 509.211 979.733 508.847C980.204 508.482 980.796 508.312 981.389 508.371C981.982 508.43 982.529 508.713 982.919 509.163C983.309 509.613 983.512 510.196 983.486 510.791C983.486 510.971 982.136 525.691 989.106 533.371C991.916 536.471 995.656 537.981 1000.52 537.981C1001.13 537.981 1001.73 538.226 1002.16 538.663C1002.6 539.1 1002.85 539.693 1002.85 540.311C1002.85 540.928 1002.6 541.521 1002.16 541.958C1001.73 542.395 1001.13 542.64 1000.52 542.64Z" fill="#DCD0C8"/>
<path d="M1065.23 418.359H1042.52C1042.1 418.359 1041.76 418.7 1041.76 419.119V420.239C1041.76 420.659 1042.1 420.999 1042.52 420.999H1065.23C1065.65 420.999 1065.99 420.659 1065.99 420.239V419.119C1065.99 418.7 1065.65 418.359 1065.23 418.359Z" fill="#DEDFE6"/>
<path d="M1042.51 424.031H1065.23C1065.43 424.031 1065.62 424.111 1065.76 424.254C1065.91 424.396 1065.99 424.59 1065.99 424.791V425.921C1065.99 426.123 1065.91 426.316 1065.76 426.459C1065.62 426.601 1065.43 426.681 1065.23 426.681H1042.52C1042.32 426.681 1042.12 426.601 1041.98 426.459C1041.84 426.316 1041.76 426.123 1041.76 425.921V424.791C1041.76 424.692 1041.77 424.593 1041.81 424.501C1041.85 424.409 1041.9 424.325 1041.97 424.254C1042.04 424.184 1042.13 424.128 1042.22 424.089C1042.31 424.051 1042.41 424.031 1042.51 424.031Z" fill="#DEDFE6"/>
<path d="M1063.45 430.523H1044.3C1042.89 430.523 1041.76 431.661 1041.76 433.063V457.833C1041.76 459.236 1042.89 460.373 1044.3 460.373H1063.45C1064.85 460.373 1065.99 459.236 1065.99 457.833V433.063C1065.99 431.661 1064.85 430.523 1063.45 430.523Z" fill="#DEDFE6"/>
<path d="M1109.99 418.359H1074.91C1072.68 418.359 1070.88 420.164 1070.88 422.389V456.329C1070.88 458.555 1072.68 460.359 1074.91 460.359H1109.99C1112.21 460.359 1114.02 458.555 1114.02 456.329V422.389C1114.02 420.164 1112.21 418.359 1109.99 418.359Z" fill="#DEDFE6"/>
<path d="M1147.17 215.299C1145.02 209.29 1141.71 203.764 1137.42 199.035C1133.14 194.306 1127.96 190.467 1122.19 187.738C1116.43 185.009 1110.18 183.443 1103.8 183.129C1097.43 182.815 1091.06 183.76 1085.05 185.909C1079.04 188.058 1073.51 191.369 1068.78 195.654C1064.05 199.939 1060.22 205.114 1057.49 210.882C1054.76 216.65 1053.19 222.9 1052.88 229.273C1052.56 235.647 1053.51 242.02 1055.66 248.029C1056.03 249.029 1056.43 250.029 1056.86 251.029C1058.75 255.414 1061.29 259.493 1064.39 263.129C1071.76 271.784 1081.93 277.582 1093.13 279.514C1104.33 281.446 1115.86 279.389 1125.7 273.702C1135.55 268.014 1143.09 259.056 1147.01 248.385C1150.93 237.715 1150.98 226.007 1147.17 215.299ZM1113.68 265.969C1104.98 269.074 1095.42 268.756 1086.95 265.079C1078.47 261.403 1071.71 254.643 1068.04 246.169C1067.72 245.429 1067.42 244.669 1067.14 243.899C1064.7 237.116 1064.34 229.764 1066.08 222.772C1067.83 215.781 1071.61 209.465 1076.95 204.622C1082.28 199.78 1088.94 196.629 1096.06 195.568C1103.19 194.506 1110.47 195.583 1116.99 198.661C1123.5 201.739 1128.96 206.68 1132.67 212.86C1136.38 219.039 1138.17 226.179 1137.81 233.377C1137.46 240.574 1134.99 247.506 1130.69 253.295C1126.4 259.084 1120.49 263.47 1113.71 265.899L1113.68 265.969Z" fill="#72ACFB"/>
<path d="M1066.67 220.8L1055.06 217.17C1058.08 207.524 1064.03 199.057 1072.08 192.946C1080.13 186.835 1089.88 183.384 1099.99 183.07L1100.35 195.23C1092.77 195.466 1085.46 198.053 1079.43 202.633C1073.39 207.214 1068.93 213.56 1066.67 220.79V220.8Z" fill="#385988"/>
<path d="M1068.04 246.172L1056.89 251.022C1056.46 250.022 1056.06 249.022 1055.69 248.022C1052.11 238.083 1051.89 227.248 1055.06 217.172L1066.67 220.792C1064.3 228.346 1064.46 236.47 1067.14 243.922C1067.42 244.702 1067.72 245.462 1068.04 246.172Z" fill="#4772B0"/>
<path d="M1064.42 263.169C1061.32 259.533 1058.78 255.454 1056.89 251.069L1068.04 246.219C1069.46 249.504 1071.37 252.56 1073.69 255.289L1064.42 263.169Z" fill="#5886C7"/>
<path d="M1175.02 218.273H1166.41V279.553H1175.02V218.273Z" fill="#DEDEDE"/>
<path d="M1196.38 230.719H1187.78V279.549H1196.38V230.719Z" fill="#DEDEDE"/>
<path d="M1217.74 221.562H1209.14V279.553H1217.74V221.562Z" fill="#DEDEDE"/>
<path d="M1239.11 239.648H1230.5V279.548H1239.11V239.648Z" fill="#DEDEDE"/>
<path d="M1260.47 223.445H1251.87V279.565H1260.47V223.445Z" fill="#DEDEDE"/>
<path d="M1281.83 214.984H1273.23V279.554H1281.83V214.984Z" fill="#DEDEDE"/>
<path d="M1303.2 211.461H1294.6V279.561H1303.2V211.461Z" fill="#DEDEDE"/>
<path d="M1175.02 241.109H1166.41V279.559H1175.02V241.109Z" fill="#DF655A"/>
<path d="M1196.38 248.922H1187.78V279.562H1196.38V248.922Z" fill="#DF655A"/>
<path d="M1217.74 243.172H1209.14V279.562H1217.74V243.172Z" fill="#DF655A"/>
<path d="M1239.11 254.523H1230.5V279.553H1239.11V254.523Z" fill="#DF655A"/>
<path d="M1260.47 244.352H1251.87V279.562H1260.47V244.352Z" fill="#DF655A"/>
<path d="M1281.83 239.039H1273.23V279.549H1281.83V239.039Z" fill="#DF655A"/>
<path d="M1303.2 236.828H1294.6V279.548H1303.2V236.828Z" fill="#DF655A"/>
<path d="M1326.77 218.273H1318.17V279.553H1326.77V218.273Z" fill="#DEDEDE"/>
<path d="M1348.13 230.719H1339.53V279.549H1348.13V230.719Z" fill="#DEDEDE"/>
<path d="M1369.5 221.562H1360.9V279.553H1369.5V221.562Z" fill="#DEDEDE"/>
<path d="M1390.86 239.648H1382.26V279.548H1390.86V239.648Z" fill="#DEDEDE"/>
<path d="M1326.77 241.109H1318.17V279.559H1326.77V241.109Z" fill="#DF655A"/>
<path d="M1348.13 248.922H1339.53V279.562H1348.13V248.922Z" fill="#DF655A"/>
<path d="M1369.5 243.172H1360.9V279.562H1369.5V243.172Z" fill="#DF655A"/>
<path d="M1390.86 254.523H1382.26V279.553H1390.86V254.523Z" fill="#DF655A"/>
<path d="M1387.59 188L1164.91 188C1164.04 188 1163.2 187.654 1162.59 187.039C1161.97 186.424 1161.63 185.59 1161.63 184.72V182.52C1161.63 181.65 1161.97 180.816 1162.59 180.201C1163.2 179.586 1164.04 179.24 1164.91 179.24L1387.59 179.24C1388.02 179.24 1388.44 179.325 1388.84 179.489C1389.24 179.653 1389.6 179.894 1389.9 180.198C1390.2 180.501 1390.44 180.862 1390.61 181.259C1390.77 181.655 1390.86 182.081 1390.86 182.51V184.71C1390.86 185.58 1390.51 186.414 1389.9 187.029C1389.28 187.644 1388.45 187.99 1387.58 187.99L1387.59 188Z" fill="#72ACFB"/>
<path d="M1387.59 203.273L1164.91 203.273C1164.04 203.273 1163.2 202.928 1162.59 202.313C1161.97 201.698 1161.63 200.863 1161.63 199.993V197.793C1161.63 196.924 1161.97 196.089 1162.59 195.474C1163.2 194.859 1164.04 194.513 1164.91 194.513L1387.59 194.513C1388.45 194.513 1389.29 194.858 1389.9 195.471C1390.51 196.084 1390.86 196.916 1390.86 197.783V199.983C1390.86 200.414 1390.78 200.841 1390.61 201.239C1390.45 201.638 1390.21 202 1389.9 202.306C1389.6 202.611 1389.24 202.854 1388.84 203.02C1388.44 203.186 1388.02 203.272 1387.59 203.273Z" fill="#BFD4FC"/>
<g style="mix-blend-mode:hard-light">
<path d="M1303.1 305.469H1219.56C1213.8 305.469 1209.14 310.134 1209.14 315.889V472.199C1209.14 477.954 1213.8 482.619 1219.56 482.619H1303.1C1308.85 482.619 1313.52 477.954 1313.52 472.199V315.889C1313.52 310.134 1308.85 305.469 1303.1 305.469Z" fill="#F4F4F4"/>
</g>
<path d="M1216.87 411.133H1216.41V469.693H1216.87V411.133Z" fill="#72ACFB"/>
<path d="M1239.07 411.133H1238.61V469.693H1239.07V411.133Z" fill="#72ACFB"/>
<path d="M1261.27 411.133H1260.81V469.693H1261.27V411.133Z" fill="#72ACFB"/>
<path d="M1283.47 411.133H1283.01V469.693H1283.47V411.133Z" fill="#72ACFB"/>
<path d="M1305.67 411.133H1305.21V469.693H1305.67V411.133Z" fill="#72ACFB"/>
<path d="M1216.63 445.95C1216.63 445.95 1225.63 453.57 1234.42 444.54C1243.21 435.51 1253.25 432.54 1262.17 440.1C1271.09 447.66 1274.55 437.27 1283.46 428.73C1292.37 420.19 1292.24 415.32 1305.46 415.32V469.69H1216.65L1216.63 445.95Z" fill="url(#paint13_linear_1710_1311)"/>
<path d="M1244.36 406.25H1238.84V408.38H1244.36V406.25Z" fill="#72ACFB"/>
<path d="M1223.92 406.25H1216.41V408.38H1223.92V406.25Z" fill="#72ACFB"/>
<path d="M1267.84 406.25H1261.04V408.38H1267.84V406.25Z" fill="#72ACFB"/>
<path d="M1289.81 406.25H1283.01V408.38H1289.81V406.25Z" fill="#72ACFB"/>
<path d="M1305.44 406.25H1298.64V408.38H1305.44V406.25Z" fill="#72ACFB"/>
<path d="M1301.56 367.75H1271.87V371.5H1301.56V367.75Z" fill="url(#paint14_linear_1710_1311)"/>
<path d="M1299.12 383.492H1271.87V387.252H1299.12V383.492Z" fill="url(#paint15_linear_1710_1311)"/>
<path d="M1295.45 375.625H1271.87V379.385H1295.45V375.625Z" fill="url(#paint16_linear_1710_1311)"/>
<path d="M1245.25 362.393C1245.25 363.42 1244.94 364.423 1244.37 365.277C1243.8 366.13 1242.99 366.795 1242.04 367.188C1241.09 367.581 1240.05 367.684 1239.04 367.483C1238.04 367.283 1237.11 366.789 1236.39 366.063C1235.66 365.337 1235.17 364.412 1234.97 363.406C1234.77 362.399 1234.87 361.355 1235.26 360.407C1235.66 359.459 1236.32 358.648 1237.17 358.078C1238.03 357.508 1239.03 357.203 1240.06 357.203C1241.43 357.203 1242.75 357.75 1243.73 358.723C1244.7 359.697 1245.25 361.017 1245.25 362.393Z" fill="#72ACFB"/>
<path d="M1249.43 379.311V389.171C1246.47 390.509 1243.26 391.201 1240.02 391.201C1236.77 391.201 1233.56 390.509 1230.61 389.171V379.301C1230.61 376.805 1231.6 374.411 1233.36 372.647C1235.13 370.882 1237.52 369.891 1240.02 369.891C1242.51 369.891 1244.91 370.882 1246.67 372.647C1248.44 374.411 1249.43 376.805 1249.43 379.301V379.311Z" fill="#72ACFB"/>
<path d="M1240.02 391.834C1236.68 391.843 1233.38 391.13 1230.35 389.744C1225.48 387.536 1221.52 383.727 1219.12 378.952C1216.71 374.177 1216.02 368.724 1217.15 363.5C1218.28 358.277 1221.17 353.597 1225.32 350.241C1229.48 346.885 1234.67 345.055 1240.01 345.055C1245.36 345.055 1250.54 346.885 1254.7 350.241C1258.86 353.597 1261.74 358.277 1262.87 363.5C1264 368.724 1263.31 374.177 1260.91 378.952C1258.51 383.727 1254.54 387.536 1249.68 389.744C1246.65 391.131 1243.35 391.844 1240.02 391.834ZM1240.02 346.304C1234.96 346.305 1230.05 348.039 1226.11 351.218C1222.17 354.396 1219.44 358.827 1218.37 363.774C1217.3 368.72 1217.96 373.884 1220.23 378.405C1222.51 382.926 1226.26 386.533 1230.87 388.624C1233.74 389.923 1236.86 390.595 1240.02 390.595C1243.17 390.595 1246.29 389.923 1249.17 388.624C1253.78 386.533 1257.53 382.926 1259.8 378.405C1262.08 373.884 1262.73 368.72 1261.66 363.774C1260.59 358.827 1257.86 354.396 1253.92 351.218C1249.99 348.039 1245.08 346.305 1240.02 346.304Z" fill="url(#paint17_linear_1710_1311)"/>
<path d="M1286.41 358.573C1283.61 358.574 1280.88 357.747 1278.55 356.196C1276.23 354.645 1274.42 352.438 1273.35 349.857C1272.27 347.275 1271.99 344.434 1272.54 341.692C1273.08 338.95 1274.43 336.432 1276.4 334.455C1278.38 332.478 1280.9 331.131 1283.64 330.585C1286.38 330.039 1289.22 330.318 1291.8 331.387C1294.38 332.456 1296.59 334.267 1298.14 336.591C1299.7 338.915 1300.53 341.647 1300.53 344.442C1300.52 348.187 1299.03 351.776 1296.39 354.425C1293.74 357.073 1290.15 358.565 1286.41 358.573ZM1286.41 333.143C1284.17 333.141 1281.99 333.802 1280.13 335.042C1278.27 336.283 1276.82 338.047 1275.96 340.111C1275.1 342.176 1274.88 344.448 1275.31 346.641C1275.75 348.834 1276.82 350.848 1278.4 352.429C1279.98 354.011 1282 355.088 1284.19 355.525C1286.38 355.961 1288.65 355.738 1290.72 354.883C1292.78 354.028 1294.55 352.58 1295.79 350.721C1297.03 348.863 1297.7 346.678 1297.7 344.442C1297.69 341.453 1296.49 338.59 1294.38 336.478C1292.26 334.366 1289.4 333.178 1286.41 333.173V333.143Z" fill="#72ACFB"/>
<path d="M1260.25 316.281H1238.96V319.671H1260.25V316.281Z" fill="#72ACFB"/>
<path d="M1260.25 325.031H1242.1V328.431H1260.25V325.031Z" fill="#72ACFB"/>
<path d="M1260.25 333.781H1231.07V337.171H1260.25V333.781Z" fill="#72ACFB"/>
<g style="mix-blend-mode:hard-light">
<path d="M1388.23 305.102H1322.76C1321.3 305.102 1320.13 306.279 1320.13 307.732V352.902C1320.13 354.354 1321.3 355.532 1322.76 355.532H1388.23C1389.68 355.532 1390.86 354.354 1390.86 352.902V307.732C1390.86 306.279 1389.68 305.102 1388.23 305.102Z" fill="#F4F4F4"/>
</g>
<path d="M1349.05 318.398H1327.31C1326.5 318.398 1325.84 319.057 1325.84 319.868V320.518C1325.84 321.33 1326.5 321.988 1327.31 321.988H1349.05C1349.86 321.988 1350.52 321.33 1350.52 320.518V319.868C1350.52 319.057 1349.86 318.398 1349.05 318.398Z" fill="url(#paint18_linear_1710_1311)"/>
<path d="M1343.88 310.273H1327.14C1326.42 310.273 1325.84 310.855 1325.84 311.573V312.563C1325.84 313.281 1326.42 313.863 1327.14 313.863H1343.88C1344.59 313.863 1345.18 313.281 1345.18 312.563V311.573C1345.18 310.855 1344.59 310.273 1343.88 310.273Z" fill="url(#paint19_linear_1710_1311)"/>
<path d="M1325.84 348.56L1340.15 334.26L1344.43 338.54L1360.12 322.84L1367.09 329.8L1385.32 311.57V348.56H1325.84Z" fill="#72ACFB"/>
<path d="M1385.15 348.563V320.203L1366.35 339.003L1359.62 332.273L1348.39 343.493L1339.89 340.113L1325.84 348.563H1385.15Z" fill="#558AD8"/>
<path d="M1342.45 593.478C1342.45 593.478 1337.18 600.888 1337.9 602.058C1338.62 603.228 1344.17 603.398 1347.55 602.058C1350.93 600.718 1351 592.058 1352.55 588.308C1353.19 586.748 1351.82 582.138 1349.9 581.808C1348.53 581.665 1347.15 581.886 1345.9 582.448C1345.9 582.448 1347.86 587.708 1342.45 593.478Z" fill="#3A3D5D"/>
<path d="M1345.83 582.393C1345.14 584.401 1344.63 586.466 1344.31 588.563C1343.98 591.063 1340.55 596.363 1340.72 597.033C1340.89 597.703 1345.22 598.313 1346.98 596.583C1348.74 594.853 1349.89 589.823 1350.28 586.813C1350.43 585.398 1350.7 584 1351.1 582.633C1351.1 582.633 1347.51 580.553 1345.83 582.393Z" fill="#DBA585"/>
<path d="M1388.34 594.604C1388.34 594.604 1383.26 601.894 1383.98 603.064C1384.7 604.234 1390.25 604.404 1393.63 603.064C1397.01 601.724 1397.08 593.064 1398.63 589.314C1399.27 587.754 1397.9 583.144 1395.98 582.814C1394.54 582.686 1393.1 582.934 1391.8 583.534C1391.8 583.534 1393.75 588.834 1388.34 594.604Z" fill="#3A3D5D"/>
<path d="M1391.78 582.53C1391.56 584.502 1391.23 586.458 1390.78 588.39C1390.14 590.82 1386.68 596.39 1386.85 597.03C1387.02 597.67 1391.34 598.31 1393.11 596.58C1394.88 594.85 1396.25 589.84 1396.41 586.81C1396.52 585.133 1396.39 583.448 1396.01 581.81C1396.01 581.81 1393.47 580.68 1391.78 582.53Z" fill="#DBA585"/>
<path d="M1366.38 461.951C1366.38 461.951 1361.86 483.951 1360.82 489.441C1359.78 494.931 1356.82 521.751 1356.56 526.301C1356.3 530.851 1351.84 548.011 1352.05 549.641C1352.26 551.271 1345.51 583.931 1345.51 583.931C1346.17 584.473 1346.99 584.783 1347.84 584.816C1348.7 584.848 1349.54 584.601 1350.24 584.111C1351.49 583.211 1365.04 553.531 1365.04 545.391C1365.04 534.151 1373.04 519.481 1374.04 516.971C1383.59 493.601 1381.71 486.461 1382.96 484.971C1384.21 483.481 1384.31 485.901 1385.04 489.261C1385.77 492.621 1387.32 521.681 1388.26 525.371C1389.2 529.061 1388.47 541.521 1388.99 547.811C1389.51 554.101 1391.79 582.551 1391.79 582.551C1391.79 582.551 1393.55 585.431 1396.03 582.621C1396.56 582.011 1400.31 550.931 1400.41 543.451C1400.51 535.971 1400.63 525.651 1400.83 522.451C1402.76 491.451 1407.49 487.021 1400.04 465.081C1386.07 423.951 1366.38 461.951 1366.38 461.951Z" fill="#DBA585"/>
<path d="M1396.76 457.814C1396.76 457.814 1409.65 476.634 1404.1 516.674C1404.1 516.674 1373.53 521.014 1357.16 511.674C1357.16 511.674 1363.93 470.394 1366.38 463.974C1368.83 457.554 1396.76 457.814 1396.76 457.814Z" fill="#42466C"/>
<path d="M1352.67 587.664V595.414H1351.71V589.424L1352.67 587.664Z" fill="#3A3D5D"/>
<path d="M1398.75 587.664V595.414H1397.79V589.424L1398.75 587.664Z" fill="#3A3D5D"/>
<path d="M1381.48 374.339C1381.48 374.339 1372.85 383.039 1375.79 394.229C1378.73 405.419 1383.45 405.489 1388.66 400.679C1393.87 395.869 1396.93 390.789 1397.66 385.159C1398.39 379.529 1389.36 366.589 1381.48 374.339Z" fill="#DBA585"/>
<path d="M1379.79 411.684C1380.65 409.66 1381.38 407.582 1381.97 405.464C1382.13 404.884 1382.28 404.284 1382.4 403.694C1382.9 401.893 1382.95 399.998 1382.55 398.174C1381.17 394.114 1391.18 396.924 1391.18 396.924C1391.18 396.924 1389.24 407.684 1391.18 411.314C1393.12 414.944 1379.79 411.684 1379.79 411.684Z" fill="#DBA585"/>
<path d="M1405.17 416.814C1403.59 413.664 1402.42 412.654 1399.37 411.694C1397.67 411.164 1390.06 409.174 1390.06 409.174L1380.91 408.844C1377.13 409.488 1373.4 410.4 1369.75 411.574C1364.87 413.264 1358.48 422.504 1358.48 422.504C1358.48 422.504 1367.29 443.214 1368.98 449.154C1370.67 455.094 1369.55 464.294 1369.55 464.294C1380.12 470.044 1397.07 463.724 1397.07 463.724C1395.88 459.186 1395.66 454.454 1396.4 449.824C1396.48 449.364 1396.57 448.934 1396.67 448.524C1396.77 448.114 1396.89 447.634 1397.03 447.034C1397.03 447.007 1397.03 446.98 1397.03 446.954C1403.76 447.644 1410.03 447.954 1410.23 446.574C1410.98 440.504 1407.33 421.174 1405.17 416.814ZM1400.51 440.424C1400.24 440.424 1399.66 440.374 1399.05 440.324C1399.8 438.244 1400.63 436.394 1400.63 436.394C1401.1 437.724 1402.91 440.784 1400.5 440.424H1400.51Z" fill="#E6D8D1"/>
<path d="M1384.3 380.605C1384.3 380.605 1388.43 388.105 1390.99 390.795C1393.55 393.485 1393.25 395.625 1393.25 395.625C1393.25 395.625 1403.25 383.295 1396.12 375.845C1388.99 368.395 1379.79 371.405 1377.12 377.915C1374.45 384.425 1375.42 392.365 1375.42 392.365C1375.42 392.365 1375.48 384.735 1384.3 380.605Z" fill="#CD7250"/>
<path d="M1387.02 372.745C1387.02 372.745 1386.02 367.245 1394.64 365.065C1403.26 362.885 1407.13 372.805 1406.07 378.865C1405.01 384.925 1397.64 400.275 1401.63 402.275C1405.62 404.275 1407.19 399.965 1407.19 399.965C1407.19 399.965 1405.94 407.525 1400.38 405.775C1394.82 404.025 1395.58 391.775 1396.38 386.855C1397.18 381.935 1387.02 372.745 1387.02 372.745Z" fill="#CD7250"/>
<path d="M1389.8 399.594C1389.06 401.131 1387.97 402.468 1386.6 403.49C1385.24 404.513 1383.65 405.19 1381.97 405.464C1382.13 404.884 1382.28 404.284 1382.4 403.694C1382.4 403.694 1385.48 404.314 1389.8 399.594Z" fill="#997761"/>
<path d="M1400.5 436.464C1400.5 436.464 1400.09 437.334 1398.96 440.754C1397.81 431.154 1398.41 426.164 1398.41 426.164C1398.6 429.681 1399.3 433.151 1400.5 436.464Z" fill="#C8BCB6"/>
<path d="M1388.36 371.591C1388.36 371.591 1394.48 372.761 1397.53 377.741C1397.53 377.741 1396.91 373.231 1393.87 371.931C1392.13 371.15 1390.17 371.029 1388.36 371.591Z" fill="#E6D8D1"/>
<path d="M1397.02 447.028C1396.88 447.628 1396.75 448.158 1396.66 448.518C1396.57 448.878 1396.47 449.358 1396.39 449.818C1392.61 447.758 1389.89 446.148 1389.89 446.148C1390.91 446.368 1397.02 447.028 1397.02 447.028Z" fill="#C8BCB6"/>
<path d="M1390.56 409.315L1379.79 418.085L1380.9 408.845C1380.9 408.845 1387.17 407.485 1390.56 409.315Z" fill="#DBA585"/>
<path d="M1382.91 416.592L1379.8 418.082L1390.37 407.602L1382.91 416.592Z" fill="#CFC3BC"/>
<path d="M1397.66 446.271C1396.18 452.411 1401.66 466.271 1401.66 466.271L1390.8 469.671C1390.43 469.785 1390.04 469.821 1389.65 469.776C1389.27 469.732 1388.89 469.608 1388.56 469.413C1388.23 469.217 1387.94 468.954 1387.71 468.641C1387.48 468.327 1387.32 467.97 1387.24 467.591C1385.79 460.831 1382.38 444.191 1381.97 434.941C1381.45 423.141 1390.05 409.211 1390.05 409.211C1405.32 411.831 1401.13 434.941 1401.13 434.941C1401.13 434.941 1400.58 436.401 1399.84 438.671C1399.65 439.241 1399.45 439.861 1399.25 440.521C1398.73 442.171 1398.17 444.171 1397.66 446.271Z" fill="#4C507D"/>
<path d="M1379.82 409.344L1380.01 408.844C1380.01 408.844 1372.19 410.034 1368.21 412.014C1364.23 413.994 1356.62 424.264 1356.62 424.264L1366.62 437.404C1366.62 447.504 1364.99 465.464 1364.99 465.464L1369.54 468.084C1369.82 468.245 1370.13 468.331 1370.46 468.333C1370.78 468.335 1371.1 468.253 1371.38 468.094C1371.66 467.936 1371.9 467.707 1372.06 467.43C1372.23 467.152 1372.32 466.837 1372.33 466.514C1372.45 459.684 1372.76 443.514 1372.92 435.614C1373.13 425.514 1380.34 409.174 1380.34 409.174L1379.82 409.344Z" fill="#4C507D"/>
<path d="M1365.64 456.702C1365.64 456.702 1373.14 456.992 1374.31 456.702C1375.48 456.412 1383.31 453.032 1383.73 449.702C1384.15 446.372 1365.64 452.702 1365.64 452.702V456.702Z" fill="#DBA585"/>
<path d="M1388.93 446.281L1358.47 442.711L1372.23 453.911L1388.93 446.281Z" fill="#6D76BA"/>
<path d="M1372.23 453.911L1388.93 448.211V446.281L1371.67 451.811L1372.23 453.911Z" fill="#363957"/>
<path d="M1380.08 440.681C1378.76 440.684 1377.45 440.587 1376.15 440.391C1375.06 440.171 1372.34 440.481 1371.65 441.091C1370.96 441.701 1368.76 445.971 1368.34 446.231C1367.92 446.491 1368.56 447.101 1369.29 446.791C1369.29 446.791 1369.96 448.661 1371.61 447.961C1373.26 447.261 1374.39 445.741 1375.26 445.471C1376.13 445.201 1381.17 443.841 1381.17 443.841C1381.17 443.841 1381.38 440.231 1380.08 440.681Z" fill="#DBA585"/>
<path d="M1381.48 407.133L1375.68 416.313L1372.88 418.083L1379.41 408.933L1381.48 407.133Z" fill="#F3E4DC"/>
<path d="M1375.68 416.313L1379.8 418.083L1380.91 408.843L1381.48 407.133L1375.68 416.313Z" fill="#CFC3BC"/>
<path d="M1366.55 452.403C1366.55 452.403 1366.24 456.283 1366.55 457.093C1366.55 457.093 1347.77 455.223 1346.02 452.593C1344.94 450.842 1344.35 448.831 1344.33 446.773L1366.55 452.403Z" fill="#4C507D"/>
<path d="M1372.23 453.912L1363.35 420.882L1329.57 417.312L1338.83 447.712L1372.23 453.912Z" fill="#2A2B41"/>
<path d="M1390.37 407.602L1382.91 416.592L1386.99 420.232L1391.39 409.472L1390.37 407.602Z" fill="#F3E4DC"/>
<path d="M1400.09 437.875L1399.84 438.645C1399.65 439.215 1399.45 439.835 1399.25 440.495C1397.81 440.955 1385.33 440.035 1385.33 440.035C1385.33 440.035 1395.77 437.585 1400.09 437.875Z" fill="#414469"/>
<path d="M1399.37 440.249C1397.37 440.099 1394.06 439.879 1391.37 439.869C1387.18 439.869 1380.01 440.319 1380.01 440.319L1380.86 444.799C1380.86 444.799 1393.56 446.859 1400.5 447.349C1400.5 447.349 1409.65 448.399 1410.33 447.029C1411.01 445.659 1410.11 436.899 1408.62 429.029C1407.13 421.159 1405.62 416.579 1403.78 414.139C1401.94 411.699 1392.34 409.789 1392.34 409.789L1400.5 436.489C1401.05 437.557 1401.43 438.709 1401.61 439.899C1401.61 440.219 1401.38 440.359 1401.08 440.419L1399.81 440.309L1399.37 440.249Z" fill="#4C507D"/>
<path d="M362.973 353.791L13.333 151.921C11.4578 150.841 9.33156 150.272 7.16748 150.273C5.0034 150.274 2.87762 150.844 1.00343 151.926C-0.870767 153.008 -2.42747 154.564 -3.5105 156.438C-4.59353 158.311 -5.1648 160.437 -5.16699 162.601V566.331C-5.16783 568.496 -4.59847 570.624 -3.51616 572.499C-2.43386 574.374 -0.876784 575.932 0.998432 577.014C2.87365 578.097 5.00088 578.666 7.16614 578.666C9.3314 578.665 11.4583 578.094 13.333 577.011L362.973 375.171C364.853 374.09 366.415 372.533 367.501 370.656C368.587 368.779 369.159 366.649 369.159 364.481C369.159 362.312 368.587 360.182 367.501 358.306C366.415 356.429 364.853 354.871 362.973 353.791Z" fill="white"/>
<path d="M33.7871 310.382C35.2338 313.853 37.1591 317.104 39.5071 320.042L36.1071 327.172L42.9771 332.322L49.8471 337.482L55.7471 332.212C59.2207 333.65 62.8803 334.589 66.6171 335.002L69.2471 342.452L77.7471 341.232L86.2471 340.022L86.6971 332.142C90.163 330.691 93.4107 328.766 96.3471 326.422L103.487 329.822L108.637 322.952L113.787 316.082L108.527 310.182C109.965 306.708 110.904 303.049 111.317 299.312L118.767 296.682L117.547 288.182L116.337 279.682L108.447 279.232C107.002 275.76 105.076 272.508 102.727 269.572L106.127 262.442L99.2671 257.292L92.3971 252.172L86.4971 257.432C83.0228 255.996 79.3635 255.056 75.6271 254.642L72.9871 247.172L64.4871 248.392L55.9871 249.602L55.5471 257.492C52.0765 258.923 48.8246 260.835 45.8871 263.172L38.7571 259.762L33.6071 266.632L28.4471 273.502L33.7171 279.402C32.2792 282.876 31.3399 286.535 30.9271 290.272L23.4771 292.902L24.6871 301.412L25.9071 309.912L33.7871 310.382ZM66.8671 265.022C72.7604 264.178 78.7715 265.102 84.1397 267.676C89.5079 270.25 93.992 274.358 97.0245 279.481C100.057 284.605 101.502 290.512 101.175 296.457C100.849 302.401 98.7671 308.115 95.1924 312.876C91.6177 317.637 86.7111 321.23 81.0935 323.201C75.4759 325.172 69.3998 325.433 63.6341 323.95C57.8685 322.466 52.6723 319.306 48.7033 314.869C44.7343 310.432 42.1707 304.917 41.337 299.022C40.2208 291.129 42.2822 283.115 47.0688 276.741C51.8553 270.366 58.9759 266.151 66.8671 265.022Z" fill="url(#paint20_linear_1710_1311)"/>
<path d="M33.8071 222.454C34.4667 224.044 35.3488 225.533 36.4271 226.874L34.8671 230.174L38.0171 232.534L41.1671 234.874L43.8671 232.464C45.4663 233.121 47.1491 233.552 48.8671 233.744L50.0571 237.174L53.9571 236.614L57.8571 236.064L58.0571 232.444C59.6484 231.781 61.1394 230.899 62.4871 229.824L65.7571 231.384L68.1671 228.174L70.5271 225.024L68.1171 222.324C68.773 220.725 69.2038 219.042 69.3971 217.324L72.8071 216.124L72.1671 212.274L71.6171 208.374L67.9971 208.174C67.3361 206.582 66.4541 205.091 65.3771 203.744L66.9371 200.474L63.7871 198.114L60.6371 195.754L57.9671 198.174C56.3691 197.514 54.6858 197.083 52.9671 196.894L51.7571 193.484L47.8571 194.034L43.9571 194.594L43.7571 198.204C42.1636 198.867 40.6721 199.753 39.3271 200.834L36.0571 199.274L33.6971 202.424L31.3371 205.564L33.7471 208.274C33.0858 209.872 32.6548 211.555 32.4671 213.274L29.0571 214.484L29.6071 218.384L30.1671 222.274L33.8071 222.454ZM48.9671 201.654C51.6667 201.271 54.4194 201.696 56.8773 202.876C59.3353 204.057 61.3881 205.939 62.7764 208.286C64.1646 210.633 64.826 213.339 64.6769 216.061C64.5278 218.784 63.5749 221.401 61.9387 223.582C60.3025 225.763 58.0563 227.411 55.4842 228.316C52.912 229.221 50.1294 229.343 47.4879 228.666C44.8463 227.99 42.4646 226.546 40.6436 224.517C38.8226 222.487 37.6441 219.963 37.2571 217.264C36.7404 213.642 37.6837 209.962 39.8797 207.035C42.0757 204.107 45.3444 202.172 48.9671 201.654Z" fill="url(#paint21_linear_1710_1311)"/>
<path d="M297.087 327.24C297.087 327.24 318.087 320.4 319.827 321.17C321.567 321.94 321.767 323.17 319.827 323.86C317.887 324.55 299.657 331.07 299.657 331.07C299.657 331.07 325.657 327.33 327.187 327.62C328.097 327.8 328.677 330.09 327.657 330.62C326.637 331.15 301.027 336.36 301.027 336.36C301.027 336.36 325.297 332.91 326.497 333.57C326.775 333.78 326.986 334.065 327.107 334.391C327.227 334.718 327.252 335.072 327.177 335.412C327.102 335.752 326.931 336.064 326.685 336.31C326.439 336.556 326.127 336.726 325.787 336.8C323.997 337.19 301.587 341.73 301.587 341.73C301.587 341.73 319.347 340.38 320.027 341.58C320.437 342.32 321.027 344.27 316.437 344.47C311.847 344.67 301.027 346.33 301.027 346.33L297.087 327.24Z" fill="#EEA886"/>
<path d="M273.917 339.021C273.917 339.021 280.717 336.311 281.207 332.021C281.627 328.361 284.657 323.841 285.587 322.441C286.827 320.571 288.687 313.441 290.867 314.961C293.047 316.481 288.337 326.851 287.747 329.211C287.157 331.571 296.457 326.541 298.747 326.991C301.037 327.441 307.397 343.741 300.677 346.431C293.957 349.121 285.297 347.431 284.197 348.131C282.632 348.947 281.019 349.668 279.367 350.291L273.917 339.021Z" fill="#EEA886"/>
<path d="M191.877 461.113C192.027 463.113 192.187 464.953 192.347 466.633H94.957C94.957 464.993 95.037 463.123 95.067 461.113C95.397 444.873 95.877 418.263 95.667 408.203C95.397 393.853 92.377 356.563 91.777 354.413C91.777 354.413 70.407 323.363 47.997 384.653C43.377 397.273 85.797 428.923 80.517 429.893C75.237 430.863 75.517 440.893 75.517 440.893C75.517 440.893 35.567 406.093 36.387 395.843C36.837 390.153 68.117 307.423 72.897 304.003C76.167 301.633 96.567 293.433 107.167 289.413C110.232 288.133 113.379 287.057 116.587 286.193C119.007 286.043 148.927 288.913 148.927 288.913C148.927 288.913 153.217 290.373 157.607 292.393C165.107 295.823 176.777 301.173 185.167 305.173C187.877 306.463 191.257 308.173 194.067 309.683C193.727 319.85 193.127 330.76 192.267 342.413C192.267 342.413 190.707 367.873 190.567 393.593C189.217 399.413 189.457 412.943 189.457 412.943C189.077 425.773 190.507 438.943 190.887 446.293C191.087 450.913 191.477 456.303 191.877 461.113Z" fill="#DBD8E3"/>
<path d="M196.077 461.112C194.677 452.012 193.337 442.532 192.237 433.462V433.392C192.057 431.922 191.887 430.452 191.707 429.002C191.712 428.929 191.712 428.855 191.707 428.782C191.007 422.642 190.427 416.782 190.007 411.392C189.738 407.355 189.919 403.3 190.547 399.302C192.207 371.812 193.037 342.812 193.037 342.812C193.917 330.932 194.427 319.812 194.767 309.502C194.767 309.502 157.197 291.762 153.767 290.742C153.767 290.742 160.887 307.472 166.227 344.872C168.287 359.242 172.097 383.422 174.867 408.102C175.957 417.832 177.747 427.692 179.457 436.972C181.077 445.722 182.617 453.972 183.457 461.112C183.517 461.542 183.567 461.982 183.617 462.412C183.737 463.642 183.897 465.062 184.067 466.632H196.957C196.657 464.812 196.357 462.962 196.077 461.112Z" fill="#323657"/>
<path d="M129.897 417.374C128.187 433.954 126.317 447.374 124.807 461.114C124.607 462.94 124.41 464.78 124.217 466.634H84.7069C85.2169 464.804 85.7069 462.964 86.2069 461.114C90.4469 445.114 93.8269 428.804 93.8269 418.904C93.8269 418.904 85.6069 359.764 82.8269 350.244C82.8269 350.244 57.9469 368.634 52.1369 381.374C46.9369 392.754 85.0469 427.534 84.6069 428.714C82.0469 435.564 72.1669 448.084 72.1669 448.084C72.1669 448.084 13.1669 384.704 13.8969 376.894C14.4569 371.214 63.8969 308.044 68.6969 304.624C71.4669 302.624 91.8969 295.404 101.927 291.444C103.767 290.714 109.737 288.444 111.377 287.844C113.497 290.214 128.447 306.294 133.627 367.424C134.507 377.734 131.747 399.554 129.897 417.374Z" fill="#323657"/>
<path d="M119.357 289.37C119.357 289.37 119.167 279.1 115.167 258.32C114.107 252.76 147.467 272.96 147.467 272.96C147.467 272.96 147.357 274.91 147.297 277.54C147.297 278.93 147.237 280.54 147.247 282.09C147.247 282.64 147.247 283.2 147.247 283.75C147.247 285.22 147.347 286.63 147.467 287.82C147.695 289.19 148.071 290.531 148.587 291.82C149.997 295 130.587 297.41 119.357 289.37Z" fill="#EEA987"/>
<path d="M140.167 300.172L145.697 307.592C145.697 307.592 142.457 311.932 136.697 308.732L140.167 300.172Z" fill="#D44040"/>
<path d="M144.217 307.875C144.217 307.875 165.217 388.605 160.867 451.445L153.867 463.875L147.257 450.875C147.257 450.875 145.447 338.465 139.697 307.695L144.217 307.875Z" fill="#D44040"/>
<path d="M146.087 293.174L140.167 300.174C140.167 300.174 130.667 298.324 127.877 293.364C125.087 288.404 146.087 293.174 146.087 293.174Z" fill="#EEA987"/>
<path d="M147.447 287.172C147.447 287.172 146.757 292.452 140.167 300.172L147.367 309.832L151.257 289.782L147.447 287.172Z" fill="#C4C1CC"/>
<path d="M118.807 282.172C118.807 282.172 130.567 296.342 140.167 300.172L135.707 311.172L113.347 287.172L118.807 282.172Z" fill="#C4C1CC"/>
<path d="M291.587 350.553C291.587 350.553 240.907 405.603 228.947 402.663C223.417 401.303 215.047 391.763 208.127 382.793C205.847 379.793 203.607 376.733 201.477 373.663C192.987 361.403 186.327 349.663 186.327 349.663C186.327 349.663 161.237 320.253 181.377 307.143C181.377 307.143 189.857 306.293 194.687 309.853C199.147 313.143 209.987 333.853 211.747 337.683C213.507 341.513 227.207 368.573 228.477 369.373C229.747 370.173 243.207 362.103 250.397 357.263C262.007 349.443 276.607 335.813 276.607 335.813L291.587 350.553Z" fill="#323657"/>
<path d="M165.047 221.819C165.047 221.819 172.377 235.409 168.747 237.519C165.747 239.269 172.257 252.599 173.107 254.779C173.957 256.959 167.677 258.539 166.337 259.939C164.997 261.339 161.047 278.589 155.867 279.109C150.687 279.629 127.357 271.519 120.997 264.909C114.637 258.299 109.427 228.459 113.667 215.909C117.907 203.359 152.167 198.089 165.047 221.819Z" fill="#EEA886"/>
<path d="M166.507 224.773C166.507 224.773 173.987 210.103 160.407 199.213C146.827 188.323 121.767 207.433 118.937 208.213C116.107 208.993 100.097 209.993 108.167 238.173C115.167 262.323 116.087 263.343 116.087 263.343C116.087 263.343 121.267 249.343 124.207 247.213C128.787 243.883 138.847 244.683 138.847 244.683C138.847 244.683 134.057 231.963 141.547 230.153C149.037 228.343 158.927 221.953 166.507 224.773Z" fill="#D88A51"/>
<path d="M130.887 237.345C130.227 235.605 128.097 228.105 121.657 232.505C115.217 236.905 125.657 251.055 126.787 251.235C127.917 251.415 136.447 252.035 130.887 237.345Z" fill="#EEA886"/>
<path d="M147.267 282.09C147.267 282.64 147.267 283.2 147.267 283.75C128.187 277.35 124.497 267.75 124.497 267.75C130.497 271.96 147.297 277.58 147.297 277.58C147.277 278.93 147.257 280.5 147.267 282.09Z" fill="#A77860"/>
<path d="M77.7472 428.502C78.8073 429.367 80.1042 429.89 81.4672 430.002C84.7672 430.002 88.5272 426.382 91.9872 429.642C95.4472 432.902 88.1672 446.772 85.5472 448.402C82.9272 450.032 76.9772 447.102 70.6172 439.402C64.2572 431.702 77.7472 428.502 77.7472 428.502Z" fill="#EEA886"/>
<path d="M90.6565 428.711C95.3609 430.383 99.9711 432.309 104.467 434.481C110.707 437.531 118.037 442.181 117.287 443.771C116.157 446.171 110.587 441.661 104.187 439.061C98.2965 436.671 99.0565 438.141 99.0565 438.141C99.0565 438.141 98.8665 437.711 104.767 441.581C111.117 445.741 117.767 450.481 117.187 451.791C116.457 453.411 116.187 453.551 113.677 452.421C114.997 453.421 114.927 453.891 114.567 454.491C112.747 457.591 102.457 452.941 98.3665 451.101C101.497 452.531 103.647 453.931 101.297 455.101C98.6265 456.451 84.3765 449.211 79.0165 447.101C73.1665 444.831 90.6565 428.711 90.6565 428.711Z" fill="#EEA886"/>
<path d="M84.6369 428.713C84.6369 428.713 83.1669 437.173 72.1669 448.083C72.1669 448.083 46.8169 420.083 42.2969 414.893L62.1269 403.383L84.6369 428.713Z" fill="#323657"/>
<path d="M376.297 461.109H27.5771V466.629H376.297V461.109Z" fill="url(#paint22_linear_1710_1311)"/>
<path d="M301.217 493.883H339.177V491.633H301.217V493.883Z" fill="#E2D2CA"/>
<path d="M334.097 499.742H330.767V602.222H334.097V499.742Z" fill="#706865"/>
<path d="M280.777 494.211H307.167V490.991H280.777V494.211Z" fill="#CCBDB7"/>
<path d="M288.977 493.875H298.967V463.525H288.977V493.875Z" fill="#4667A8"/>
<path d="M206.607 499.742H352.797V493.912H206.607V499.742Z" fill="#B59074"/>
<path d="M380.847 458.653C380.847 458.653 382.447 481.073 378.067 483.753C375.327 485.433 364.377 491.103 364.707 492.173C365.037 493.243 370.887 501.633 370.887 501.633C370.887 501.633 391.887 487.793 392.577 483.423C393.267 479.053 391.577 450.593 388.657 449.283C386.497 448.283 385.347 449.113 382.657 451.133C378.797 453.973 380.847 458.653 380.847 458.653Z" fill="#4E94F7"/>
<path d="M342.537 465.053L340.687 464.363C340.687 464.363 342.997 458.943 344.007 459.073C344.886 459.204 345.757 459.384 346.617 459.613L342.537 465.053Z" fill="#EAD8CF"/>
<path d="M342.167 465.981C342.407 465.811 346.107 458.711 346.107 458.711L354.017 459.781L349.687 468.171L342.167 465.981Z" fill="#DA9B5B"/>
<path d="M354.987 588.222C354.987 588.222 355.637 592.762 355.727 593.442C355.817 594.122 362.997 593.042 362.997 593.042L363.577 587.642C363.577 587.642 355.887 587.592 354.987 588.222Z" fill="#424773"/>
<path d="M355.647 592.872C354.363 594.401 352.852 595.723 351.167 596.792C348.967 597.982 345.497 598.463 344.167 599.693C343.227 600.583 340.747 604.412 349.897 604.342C359.047 604.272 363.457 604.882 364.437 603.412C365.417 601.942 363.017 592.562 363.017 592.562C363.017 592.562 360.877 593.342 355.647 592.872Z" fill="#292C47"/>
<path d="M308.927 588.271C308.927 588.271 309.577 592.811 309.657 593.491C309.737 594.171 316.937 593.081 316.937 593.081L317.517 587.681C317.517 587.681 309.827 587.631 308.927 588.271Z" fill="#424773"/>
<path d="M309.587 592.912C308.302 594.442 306.792 595.767 305.107 596.842C302.897 598.032 294.797 599.012 293.487 600.242C292.547 601.132 290.987 604.712 303.857 604.382C313.007 604.142 317.427 604.922 318.407 603.452C319.387 601.982 316.987 592.602 316.987 592.602C316.987 592.602 314.947 593.442 309.587 592.912Z" fill="#292C47"/>
<path d="M378.167 509.852C378.167 509.852 352.027 514.282 346.167 515.202C340.307 516.122 308.247 524.102 304.247 526.522C301.057 528.462 305.917 574.862 307.057 592.522H319.667L320.577 539.422C335.707 539.792 346.507 535.882 357.517 537.552C368.527 539.222 377.727 541.602 384.727 532.212C384.697 532.252 384.957 511.912 378.167 509.852Z" fill="#292C47"/>
<path d="M352.417 592.606L364.697 591.846L365.897 539.466C370.582 539.608 375.269 539.31 379.897 538.576L389.817 515.516C381.117 517.256 353.267 524.276 349.547 526.516C346.387 528.466 351.277 574.906 352.417 592.606Z" fill="#292C47"/>
<path d="M366.167 411.88C366.167 411.88 356.587 409.231 352.927 416.671C349.267 424.111 350.927 438.21 355.757 439.53C360.587 440.85 367.527 439.331 369.537 434.701C371.547 430.071 373.137 423.501 372.657 419.241C372.177 414.981 368.687 412.9 366.167 411.88Z" fill="#EEA886"/>
<path d="M358.237 438.052C358.237 438.052 358.347 443.712 357.727 444.912C357.107 446.112 371.067 445.822 371.067 445.822C371.067 445.822 368.867 439.022 370.117 433.242C371.367 427.462 358.237 438.052 358.237 438.052Z" fill="#EEA886"/>
<path d="M370.867 431.09C370.867 431.09 370.117 432.61 366.507 432.37C362.897 432.13 358.117 427.76 356.587 427.37C355.057 426.98 354.957 426.11 354.957 426.11L354.147 427.55L352.577 427.79C352.577 427.79 353.647 423.42 351.317 421.88C348.987 420.34 352.367 407.95 364.157 410.94C364.157 410.94 373.157 412.58 373.267 417.61C373.377 422.64 372.617 428.43 370.867 431.09Z" fill="#3A3F47"/>
<path d="M356.987 444.774C356.987 444.774 356.987 442.464 358.077 442.244C359.167 442.024 369.077 440.664 370.337 441.164L370.887 444.164C370.887 444.164 368.417 445.724 356.987 444.774Z" fill="#E2D2CA"/>
<path d="M354.167 425.084C354.437 423.194 356.577 421.024 357.807 423.964C359.037 426.904 356.977 431.194 355.597 430.964C354.217 430.734 353.747 427.644 354.167 425.084Z" fill="#EEA886"/>
<path d="M315.377 471.992C315.317 472.022 315.327 472.022 315.377 471.992V471.992Z" fill="#323657"/>
<path d="M368.937 413.228C368.937 413.228 380.627 412.678 370.937 430.908L368.937 413.228Z" fill="#3A3F47"/>
<path d="M394.977 598.82L394.107 601.26L357.387 589.88L359.137 584.93L394.977 598.82Z" fill="#918783"/>
<path d="M356.127 588.141H360.297V548.221H356.127V588.141Z" fill="#918783"/>
<path d="M345.897 548.453H370.517V546.103H345.897V548.453Z" fill="#5E5854"/>
<path d="M321.127 597.825L321.997 600.265L358.717 588.885L357.097 583.625L321.127 597.825Z" fill="#918783"/>
<path d="M346.997 600.005V602.845L358.717 588.885L357.097 583.625L346.997 600.005Z" fill="#918783"/>
<path d="M317.687 601.219C317.685 601.9 317.885 602.567 318.262 603.134C318.639 603.701 319.177 604.144 319.805 604.405C320.434 604.667 321.127 604.736 321.795 604.603C322.463 604.471 323.077 604.143 323.559 603.662C324.041 603.18 324.369 602.566 324.501 601.898C324.633 601.229 324.564 600.537 324.303 599.908C324.041 599.279 323.599 598.742 323.031 598.365C322.464 597.987 321.798 597.787 321.117 597.789C320.208 597.792 319.337 598.154 318.694 598.797C318.051 599.439 317.689 600.31 317.687 601.219Z" fill="#BFB2AC"/>
<path d="M346.707 601.219C346.707 601.897 346.908 602.561 347.285 603.125C347.662 603.689 348.198 604.128 348.824 604.388C349.451 604.648 350.141 604.716 350.806 604.583C351.472 604.451 352.083 604.124 352.562 603.644C353.042 603.165 353.369 602.554 353.501 601.888C353.633 601.223 353.566 600.533 353.306 599.906C353.046 599.28 352.607 598.744 352.043 598.367C351.479 597.99 350.815 597.789 350.137 597.789C349.227 597.789 348.355 598.15 347.712 598.794C347.068 599.437 346.707 600.309 346.707 601.219Z" fill="#BFB2AC"/>
<path d="M391.537 601.219C391.535 601.9 391.735 602.567 392.113 603.134C392.49 603.701 393.027 604.144 393.656 604.405C394.285 604.667 394.978 604.736 395.646 604.603C396.314 604.471 396.928 604.143 397.41 603.662C397.891 603.18 398.219 602.566 398.352 601.898C398.484 601.229 398.415 600.537 398.153 599.908C397.892 599.279 397.449 598.742 396.882 598.365C396.315 597.987 395.648 597.787 394.967 597.789C394.058 597.792 393.187 598.154 392.545 598.797C391.902 599.439 391.54 600.31 391.537 601.219Z" fill="#BFB2AC"/>
<path d="M333.287 546.094H382.807C385.237 546.094 387.207 544.124 387.207 541.694V541.584C387.207 539.154 385.237 537.184 382.807 537.184H333.287C330.857 537.184 328.887 539.154 328.887 541.584V541.694C328.887 544.124 330.857 546.094 333.287 546.094Z" fill="#E2D2CA"/>
<path d="M225.297 602.219H228.627V499.739H225.297V602.219Z" fill="#706865"/>
<path d="M255.217 478.148H332.717C335.142 478.148 337.107 476.183 337.107 473.758V421.678C337.107 419.254 335.142 417.288 332.717 417.288H255.217C252.793 417.288 250.827 419.254 250.827 421.678V473.758C250.827 476.183 252.793 478.148 255.217 478.148Z" fill="#5F8BE3"/>
<path d="M254.207 468.609H333.727V420.569H254.207V468.609Z" fill="#F5F7FF"/>
<path d="M254.207 424.398H333.727V420.578H254.207V424.398Z" fill="#CECFD6"/>
<path d="M315.457 430.828H330.007C330.818 430.828 331.477 430.17 331.477 429.358V428.738C331.477 427.926 330.818 427.268 330.007 427.268H315.457C314.645 427.268 313.987 427.926 313.987 428.738V429.358C313.987 430.17 314.645 430.828 315.457 430.828Z" fill="#CECFD6"/>
<path d="M317.017 466.633H328.447C330.12 466.633 331.477 465.276 331.477 463.603V436.243C331.477 434.569 330.12 433.213 328.447 433.213H317.017C315.343 433.213 313.987 434.569 313.987 436.243V463.603C313.987 465.276 315.343 466.633 317.017 466.633Z" fill="#CECFD6"/>
<path d="M276.107 493.992V492.912C276.107 492.912 277.627 486.172 288.397 486.172C299.167 486.172 298.947 493.992 298.947 493.992H276.107Z" fill="#2E436E"/>
<path d="M299.077 487.169C297.981 487.103 296.901 486.867 295.877 486.469C295.027 485.959 289.877 482.469 288.687 483.059C287.497 483.649 279.467 486.059 279.747 487.239C280.027 488.419 280.747 488.299 281.337 488.089C281.927 487.879 287.717 486.659 288.237 486.869C288.237 486.869 282.517 488.949 282.497 490.479C282.477 492.009 283.687 492.369 284.227 492.939C284.767 493.509 285.427 494.939 286.897 495.059C288.367 495.179 295.567 492.669 297.047 492.549C298.527 492.429 301.267 492.639 301.447 492.399C301.627 492.159 299.077 487.169 299.077 487.169Z" fill="#EEA886"/>
<path d="M341.677 447.963C349.137 446.653 356.987 444.773 356.987 444.773L370.887 444.203C370.887 444.203 383.637 447.013 388.657 449.283C389.137 449.493 389.137 460.653 390.447 463.583L386.277 472.363C386.277 472.363 383.877 489.763 383.377 497.503C383.147 501.053 384.027 531.833 384.027 531.833C384.027 531.833 382.777 532.453 373.297 533.503C363.817 534.553 340.167 533.173 339.967 532.003C339.767 530.833 344.557 490.293 344.767 488.193C345.087 484.973 343.837 470.063 343.837 470.063C342.047 472.463 337.497 483.303 332.747 488.463C329.947 491.463 316.127 493.353 313.517 493.463C307.847 493.643 297.517 494.773 297.187 494.223C296.947 493.893 296.287 485.043 296.937 484.823C297.587 484.603 316.727 483.523 321.647 480.913C323.447 479.913 328.837 468.213 328.837 468.213C328.837 468.213 337.557 449.813 341.677 447.963Z" fill="#4E94F7"/>
<path d="M369.067 530.953H392.387C397.054 530.953 400.837 527.17 400.837 522.503V483.703C400.837 479.036 397.054 475.253 392.387 475.253H369.067C364.4 475.253 360.617 479.036 360.617 483.703V522.503C360.617 527.17 364.4 530.953 369.067 530.953Z" fill="#E2D2CA"/>
<path d="M367.737 543.886C373.667 543.886 378.477 541.885 382.037 537.965C390.037 529.085 388.627 513.486 388.567 512.826C388.508 512.234 388.218 511.69 387.758 511.313C387.299 510.936 386.708 510.757 386.117 510.816C385.525 510.874 384.981 511.165 384.604 511.624C384.227 512.084 384.048 512.674 384.107 513.266C384.107 513.446 385.407 527.585 378.707 534.975C375.997 537.975 372.407 539.405 367.707 539.405C367.113 539.405 366.543 539.642 366.123 540.062C365.703 540.482 365.467 541.051 365.467 541.645C365.467 542.24 365.703 542.809 366.123 543.229C366.543 543.649 367.113 543.886 367.707 543.886H367.737Z" fill="#E2D2CA"/>
<path d="M310.267 444.591C310.271 448.429 308.918 452.144 306.447 455.081C305.887 455.741 305.278 456.36 304.627 456.931L304.057 457.401L303.377 457.901C301.185 459.461 298.638 460.447 295.967 460.771C295.487 460.831 294.997 460.871 294.497 460.891H293.967C293.437 460.891 292.917 460.891 292.397 460.821C291.877 460.751 291.257 460.681 290.707 460.571C287.552 459.935 284.659 458.371 282.397 456.081L282.097 455.771C281.737 455.381 281.387 454.981 281.097 454.561C279.513 452.51 278.441 450.112 277.97 447.564C277.498 445.016 277.64 442.393 278.385 439.911C279.13 437.429 280.456 435.161 282.253 433.294C284.049 431.427 286.265 430.016 288.716 429.176C291.167 428.337 293.783 428.094 296.347 428.467C298.911 428.841 301.349 429.82 303.459 431.324C305.569 432.828 307.29 434.814 308.479 437.116C309.668 439.417 310.292 441.97 310.297 444.561L310.267 444.591Z" fill="#EEF0F7"/>
<path d="M304.587 453.595L303.377 457.905C301.185 459.465 298.637 460.452 295.967 460.775C295.487 460.835 294.997 460.875 294.497 460.895H293.967C293.437 460.895 292.917 460.895 292.397 460.825C291.877 460.755 291.257 460.685 290.707 460.575C288.284 460.095 286.003 459.069 284.037 457.575C283.807 456.145 283.567 454.575 283.347 453.085C284.547 452.645 288.347 451.345 290.767 450.535H290.867H291.017L291.427 450.395L291.807 450.275L292.807 449.945L296.047 450.185H296.587H296.757H296.827C297.027 450.235 297.587 450.385 298.337 450.615C300.297 451.175 303.407 452.245 304.587 453.595Z" fill="#D9C7C1"/>
<path d="M294.816 436.505C294.816 436.505 298.696 437.155 298.036 443.235C297.376 449.315 293.946 448.775 293.716 448.765C293.486 448.755 290.276 448.835 290.106 441.405C290.106 441.405 290.056 435.915 294.816 436.505Z" fill="#EEA987"/>
<path d="M296.517 447.003C296.44 448.004 296.474 449.01 296.617 450.003C296.847 450.553 293.497 452.273 291.417 450.313C291.619 449.09 291.716 447.852 291.707 446.613C291.577 445.683 296.517 447.003 296.517 447.003Z" fill="#EEA987"/>
<path d="M298.167 441.512C298.167 441.512 298.597 441.062 298.747 441.512C298.897 441.962 298.057 444.023 298.107 444.113C298.157 444.203 298.027 444.292 297.927 444.192C297.953 443.295 298.033 442.4 298.167 441.512Z" fill="#EEA987"/>
<path d="M290.167 441.35C290.167 441.35 289.757 440.88 289.587 441.35C289.609 442.25 289.789 443.14 290.117 443.98C290.117 443.98 290.247 444.19 290.357 444.1C290.348 443.18 290.284 442.262 290.167 441.35Z" fill="#EEA987"/>
<path d="M298.367 440.993C298.227 441.823 298.107 442.443 298.107 442.443L297.537 443.183C297.557 442.552 297.541 441.921 297.487 441.293C297.487 441.203 297.417 441.023 297.377 440.843C297.33 440.583 297.27 440.326 297.197 440.073C295.177 439.324 292.944 439.395 290.977 440.273C290.977 440.273 290.977 440.523 290.977 440.803C290.977 441.083 290.977 441.493 290.787 441.543C290.597 441.593 290.627 443.453 290.627 443.453L290.177 442.933C290.177 442.933 290.047 441.993 289.917 440.933L289.827 440.163C289.731 439.39 289.813 438.607 290.068 437.871C290.323 437.136 290.744 436.47 291.297 435.923C292.907 435.307 294.687 435.307 296.297 435.923C296.558 435.928 296.815 435.993 297.047 436.113C298.697 437.853 298.367 440.993 298.367 440.993Z" fill="#E8734D"/>
<path d="M291.977 447.953C292.229 448.242 292.547 448.467 292.903 448.609C293.259 448.752 293.644 448.808 294.027 448.773C294.406 448.789 294.786 448.729 295.141 448.595C295.497 448.461 295.822 448.256 296.097 447.993C295.939 448.413 295.658 448.774 295.29 449.029C294.922 449.284 294.484 449.421 294.037 449.421C293.589 449.421 293.151 449.284 292.783 449.029C292.415 448.774 292.134 448.413 291.977 447.993V447.953Z" fill="#C78D71"/>
<path d="M291.017 450.403C291.338 450.937 291.774 451.393 292.293 451.738C292.811 452.084 293.4 452.311 294.017 452.403C295.267 452.513 296.347 450.923 296.857 450.143C295.914 449.797 294.913 449.643 293.911 449.687C292.908 449.732 291.924 449.975 291.017 450.403Z" fill="#EEA987"/>
<path d="M296.517 449.555C295.807 450.395 294.97 451.12 294.037 451.705L295.087 453.325L296.877 450.125L296.517 449.555Z" fill="#EDDAD3"/>
<path d="M291.497 449.789C292.19 450.608 293.058 451.26 294.037 451.699L292.877 453.369L290.877 450.449L291.497 449.789Z" fill="#EDDAD3"/>
<path d="M294.037 451.703L294.937 453.073C294.658 453.229 294.343 453.311 294.022 453.311C293.702 453.311 293.387 453.229 293.107 453.073L294.037 451.703Z" fill="#5073AB"/>
<path d="M305.627 453.335V453.425C305.527 453.775 305.147 455.135 304.627 456.935L304.057 457.405L303.377 457.905C301.185 459.465 298.638 460.452 295.967 460.775C296.207 455.135 296.877 450.125 296.877 450.125L298.377 450.545C300.778 451.174 303.108 452.052 305.327 453.165L305.627 453.335Z" fill="#323657"/>
<path d="M290.707 460.572C287.552 459.936 284.659 458.373 282.397 456.082L282.097 455.772C281.817 454.562 281.627 453.772 281.607 453.722C281.607 453.722 283.607 452.402 290.767 450.492C290.767 450.652 290.767 455.232 290.707 460.572Z" fill="#323657"/>
<path d="M294.546 453.224C294.486 454.714 294.476 457.594 294.496 460.894H293.966C293.436 460.894 292.916 460.894 292.396 460.824C292.566 458.267 292.931 455.726 293.486 453.224L293.606 452.734L294.606 452.894C294.556 452.994 294.556 453.104 294.546 453.224Z" fill="#5073AB"/>
<path d="M306.447 455.084C305.886 455.745 305.278 456.363 304.627 456.934L304.057 457.404L305.337 453.164C305.432 453.234 305.516 453.319 305.587 453.414C305.936 453.936 306.225 454.496 306.447 455.084Z" fill="#323657"/>
<path d="M282.397 456.081L282.097 455.771C281.737 455.381 281.387 454.981 281.097 454.561C281.195 454.233 281.382 453.939 281.637 453.711L282.397 456.081Z" fill="#323657"/>
<path d="M211.196 238.453H197.426C194.925 238.453 192.896 240.481 192.896 242.983V256.753C192.896 259.255 194.925 261.283 197.426 261.283H211.196C213.698 261.283 215.726 259.255 215.726 256.753V242.983C215.726 240.481 213.698 238.453 211.196 238.453Z" fill="#4CA1F4"/>
<g opacity="0.69">
<path opacity="0.72" d="M300.897 208.219H226.627C225.323 208.219 224.267 209.275 224.267 210.579V212.949C224.267 214.252 225.323 215.309 226.627 215.309H300.897C302.2 215.309 303.257 214.252 303.257 212.949V210.579C303.257 209.275 302.2 208.219 300.897 208.219Z" fill="white"/>
<path opacity="0.72" d="M311.907 219.68H226.627C225.323 219.68 224.267 220.736 224.267 222.04V224.41C224.267 225.713 225.323 226.77 226.627 226.77H311.907C313.21 226.77 314.267 225.713 314.267 224.41V222.04C314.267 220.736 313.21 219.68 311.907 219.68Z" fill="white"/>
</g>
<path d="M211.196 206.078H197.426C194.925 206.078 192.896 208.106 192.896 210.608V224.378C192.896 226.88 194.925 228.908 197.426 228.908H211.196C213.698 228.908 215.726 226.88 215.726 224.378V210.608C215.726 208.106 213.698 206.078 211.196 206.078Z" fill="#4CA1F4"/>
<g opacity="0.69">
<path opacity="0.72" d="M281.597 240.594H226.307C225.18 240.594 224.267 241.507 224.267 242.634V245.644C224.267 246.77 225.18 247.684 226.307 247.684H281.597C282.723 247.684 283.637 246.77 283.637 245.644V242.634C283.637 241.507 282.723 240.594 281.597 240.594Z" fill="white"/>
<path opacity="0.72" d="M295.167 252.055H226.387C225.216 252.055 224.267 253.004 224.267 254.175V257.025C224.267 258.196 225.216 259.145 226.387 259.145H295.167C296.337 259.145 297.287 258.196 297.287 257.025V254.175C297.287 253.004 296.337 252.055 295.167 252.055Z" fill="white"/>
</g>
<g opacity="0.69">
<path opacity="0.72" d="M307.947 272.961H226.727C225.368 272.961 224.267 274.062 224.267 275.421V277.591C224.267 278.95 225.368 280.051 226.727 280.051H307.947C309.305 280.051 310.407 278.95 310.407 277.591V275.421C310.407 274.062 309.305 272.961 307.947 272.961Z" fill="white"/>
<path opacity="0.72" d="M301.047 284.43H226.477C225.256 284.43 224.267 285.419 224.267 286.64V289.31C224.267 290.53 225.256 291.52 226.477 291.52H301.047C302.267 291.52 303.257 290.53 303.257 289.31V286.64C303.257 285.419 302.267 284.43 301.047 284.43Z" fill="white"/>
</g>
<path d="M211.196 270.82H197.426C194.925 270.82 192.896 272.848 192.896 275.35V289.12C192.896 291.622 194.925 293.65 197.426 293.65H211.196C213.698 293.65 215.726 291.622 215.726 289.12V275.35C215.726 272.848 213.698 270.82 211.196 270.82Z" fill="#4CA1F4"/>
<path d="M203.527 255.38L197.197 249.88C196.947 249.664 196.794 249.357 196.771 249.028C196.747 248.699 196.856 248.374 197.072 248.125C197.288 247.876 197.594 247.722 197.923 247.699C198.252 247.676 198.577 247.784 198.827 248L203.307 251.89L209.677 244.76C209.9 244.519 210.208 244.376 210.536 244.361C210.864 244.346 211.185 244.46 211.429 244.679C211.673 244.898 211.821 245.205 211.841 245.533C211.862 245.86 211.752 246.182 211.537 246.43L203.527 255.38Z" fill="white"/>
<path d="M203.527 287.758L197.167 282.248C197.044 282.141 196.943 282.011 196.87 281.865C196.797 281.718 196.753 281.559 196.741 281.396C196.73 281.233 196.75 281.07 196.802 280.915C196.854 280.76 196.935 280.616 197.042 280.493C197.149 280.37 197.28 280.268 197.426 280.195C197.572 280.122 197.731 280.079 197.894 280.067C198.057 280.055 198.221 280.076 198.376 280.128C198.531 280.179 198.674 280.261 198.797 280.368L203.277 284.258L209.647 277.138C209.752 277.002 209.884 276.888 210.034 276.805C210.185 276.721 210.351 276.67 210.522 276.654C210.693 276.638 210.866 276.657 211.029 276.711C211.193 276.764 211.343 276.851 211.472 276.966C211.6 277.08 211.703 277.22 211.775 277.376C211.847 277.533 211.886 277.702 211.889 277.874C211.893 278.046 211.86 278.217 211.795 278.376C211.729 278.535 211.631 278.679 211.507 278.798L203.527 287.758Z" fill="white"/>
<path d="M203.887 220.283V219.773C203.844 219.163 203.929 218.552 204.136 217.977C204.342 217.402 204.666 216.876 205.087 216.433C205.842 215.745 206.322 214.807 206.437 213.793C206.437 212.793 205.817 212.153 204.597 212.133C203.901 212.131 203.221 212.34 202.647 212.733L202.187 211.513C203.014 210.997 203.972 210.73 204.947 210.743C207.167 210.743 208.177 212.113 208.177 213.583C208.177 214.893 207.437 215.843 206.517 216.943C206.149 217.314 205.86 217.756 205.67 218.243C205.479 218.73 205.389 219.25 205.407 219.773V220.283H203.887ZM203.457 222.983C203.447 222.825 203.47 222.667 203.524 222.519C203.578 222.37 203.662 222.235 203.771 222.12C203.88 222.006 204.011 221.915 204.157 221.853C204.302 221.792 204.459 221.761 204.617 221.763C204.857 221.753 205.096 221.815 205.301 221.941C205.506 222.067 205.669 222.252 205.768 222.472C205.868 222.691 205.9 222.935 205.86 223.173C205.82 223.41 205.709 223.631 205.543 223.805C205.377 223.98 205.163 224.101 204.928 224.153C204.692 224.205 204.447 224.186 204.223 224.097C203.998 224.009 203.806 223.856 203.669 223.657C203.533 223.458 203.459 223.224 203.457 222.983Z" fill="white"/>
<path d="M417.667 378.042C416.296 378.078 414.949 377.671 413.827 376.882C413.241 376.485 412.749 375.964 412.386 375.356C412.023 374.747 411.798 374.067 411.727 373.362C411.25 370.819 410.437 368.351 409.307 366.022C407.022 364.525 405.267 362.346 404.29 359.795C403.314 357.244 403.166 354.45 403.868 351.81C404.569 349.17 406.085 346.818 408.199 345.088C410.313 343.358 412.918 342.338 415.645 342.172C418.372 342.007 421.081 342.705 423.389 344.167C425.697 345.629 427.485 347.781 428.5 350.317C429.516 352.853 429.706 355.644 429.045 358.295C428.384 360.945 426.905 363.32 424.817 365.082C424.138 367.454 423.774 369.905 423.737 372.372C423.967 375.212 421.467 377.742 418.167 378.022L417.667 378.042ZM416.277 343.302C413.732 343.35 411.269 344.213 409.25 345.764C407.231 347.316 405.763 349.473 405.062 351.921C404.36 354.368 404.462 356.976 405.352 359.361C406.242 361.746 407.874 363.783 410.007 365.172L410.137 365.252L410.197 365.392C411.407 367.856 412.275 370.474 412.777 373.172C412.832 373.727 413.009 374.262 413.294 374.741C413.579 375.22 413.966 375.63 414.427 375.942C415.492 376.675 416.781 377.008 418.067 376.882C420.797 376.662 422.857 374.622 422.667 372.352C422.708 369.729 423.098 367.123 423.827 364.602L423.877 364.442L424.007 364.342C425.909 362.774 427.277 360.654 427.922 358.274C428.567 355.895 428.457 353.374 427.607 351.06C426.758 348.745 425.21 346.752 423.179 345.355C421.147 343.959 418.732 343.227 416.267 343.262L416.277 343.302Z" fill="white"/>
<path d="M414.887 373.862L411.937 359.942L415.087 362.102L416.717 359.922L418.467 361.672L420.997 359.102L420.597 373.342L419.537 373.312L419.857 361.772L418.467 363.182L416.837 361.542L415.317 363.552L413.517 362.322L415.927 373.632L414.887 373.862Z" fill="white"/>
<path d="M423.021 378.788L413.831 379.523L414.127 383.223L423.317 382.488L423.021 378.788Z" fill="white"/>
<path d="M423.808 372.431L411.699 373.438L412.193 379.377L424.301 378.371L423.808 372.431Z" fill="white"/>
<path d="M167.757 180.001C166.439 179.613 165.279 178.814 164.447 177.721C164.009 177.163 163.7 176.515 163.541 175.824C163.382 175.132 163.377 174.415 163.527 173.721C163.843 171.153 163.819 168.554 163.457 165.991C161.738 163.868 160.732 161.257 160.581 158.53C160.431 155.802 161.143 153.097 162.617 150.797C164.091 148.497 166.252 146.72 168.793 145.719C171.334 144.717 174.127 144.541 176.774 145.216C179.42 145.89 181.787 147.382 183.539 149.478C185.29 151.575 186.336 154.169 186.529 156.894C186.722 159.619 186.052 162.335 184.613 164.658C183.175 166.98 181.042 168.79 178.517 169.831C177.146 171.878 176.053 174.097 175.267 176.431C174.617 179.211 171.467 180.861 168.267 180.121L167.757 180.001ZM177.027 146.491C174.572 145.723 171.935 145.772 169.51 146.63C167.086 147.488 165.005 149.109 163.58 151.25C162.155 153.39 161.462 155.935 161.605 158.503C161.749 161.071 162.721 163.523 164.377 165.491L164.467 165.611V165.761C164.864 168.478 164.891 171.237 164.547 173.961C164.429 174.506 164.433 175.07 164.559 175.613C164.685 176.156 164.93 176.664 165.277 177.101C166.065 178.12 167.187 178.829 168.447 179.101C171.117 179.721 173.707 178.421 174.217 176.201C175.057 173.724 176.224 171.37 177.687 169.201L177.777 169.061L177.937 169.001C180.224 168.087 182.171 166.484 183.51 164.416C184.848 162.348 185.511 159.915 185.408 157.453C185.305 154.992 184.441 152.623 182.934 150.674C181.427 148.725 179.353 147.291 176.997 146.571L177.027 146.491Z" fill="white"/>
<path d="M166.377 175.166L167.817 161.016L170.157 164.036L172.377 162.456L173.507 164.656L176.697 162.986L171.977 176.426L170.977 176.066L174.807 165.176L173.047 166.096L171.997 164.026L169.937 165.486L168.597 163.766L167.437 175.276L166.377 175.166Z" fill="white"/>
<path d="M172.988 179.913L164.034 177.844L163.201 181.449L172.155 183.518L172.988 179.913Z" fill="white"/>
<path d="M175.273 176.556L163.435 173.82L162.093 179.627L173.931 182.363L175.273 176.556Z" fill="white"/>
<path d="M242.196 157.163L238.504 157.875L243.928 185.987L247.619 185.274L242.196 157.163Z" fill="white"/>
<path d="M235.493 161.749L231.801 162.461L236.616 187.421L240.308 186.708L235.493 161.749Z" fill="white"/>
<path d="M228.361 167.366L224.669 168.078L228.695 188.943L232.386 188.231L228.361 167.366Z" fill="white"/>
<path d="M221.215 174.1L217.523 174.812L220.553 190.513L224.244 189.801L221.215 174.1Z" fill="white"/>
<path d="M430.997 411.391L431.387 419.811L434.727 419.651L434.067 405.531L419.647 406.201L419.807 409.541L428.517 409.141L413.157 426.001L397.167 411.441L394.917 413.911L413.377 430.731L430.997 411.391Z" fill="white"/>
<defs>
<linearGradient id="paint0_linear_1710_1311" x1="1088.93" y1="236.493" x2="959.178" y2="230.005" gradientUnits="userSpaceOnUse">
<stop offset="0.01" stop-color="#4A612F"/>
<stop offset="1" stop-color="#769A42"/>
</linearGradient>
<linearGradient id="paint1_linear_1710_1311" x1="1070.93" y1="355.255" x2="1010.54" y2="286.875" gradientUnits="userSpaceOnUse">
<stop offset="0.01" stop-color="#4A612F"/>
<stop offset="1" stop-color="#769A42"/>
</linearGradient>
<linearGradient id="paint2_linear_1710_1311" x1="1078.47" y1="196.715" x2="1017.05" y2="193.644" gradientUnits="userSpaceOnUse">
<stop offset="0.01" stop-color="#4A612F"/>
<stop offset="1" stop-color="#769A42"/>
</linearGradient>
<linearGradient id="paint3_linear_1710_1311" x1="1053.97" y1="305.751" x2="1009.93" y2="227.746" gradientUnits="userSpaceOnUse">
<stop offset="0.01" stop-color="#4A612F"/>
<stop offset="1" stop-color="#769A42"/>
</linearGradient>
<linearGradient id="paint4_linear_1710_1311" x1="1210.49" y1="440.613" x2="1010.23" y2="440.613" gradientUnits="userSpaceOnUse">
<stop stop-color="#EEBE63"/>
<stop offset="1" stop-color="#DC3B57"/>
</linearGradient>
<linearGradient id="paint5_linear_1710_1311" x1="1210.49" y1="451.561" x2="1010.23" y2="451.561" gradientUnits="userSpaceOnUse">
<stop stop-color="#EEBE63"/>
<stop offset="1" stop-color="#DC3B57"/>
</linearGradient>
<linearGradient id="paint6_linear_1710_1311" x1="1210.49" y1="462.514" x2="1010.23" y2="462.514" gradientUnits="userSpaceOnUse">
<stop stop-color="#EEBE63"/>
<stop offset="1" stop-color="#DC3B57"/>
</linearGradient>
<linearGradient id="paint7_linear_1710_1311" x1="910.296" y1="480.9" x2="983.046" y2="480.9" gradientUnits="userSpaceOnUse">
<stop stop-color="#81D3E4"/>
<stop offset="1" stop-color="#6076FA"/>
</linearGradient>
<linearGradient id="paint8_linear_1710_1311" x1="963.667" y1="521.502" x2="1029.46" y2="521.502" gradientUnits="userSpaceOnUse">
<stop stop-color="#81D3E4"/>
<stop offset="1" stop-color="#6076FA"/>
</linearGradient>
<linearGradient id="paint9_linear_1710_1311" x1="969.287" y1="531.068" x2="1018.68" y2="531.068" gradientUnits="userSpaceOnUse">
<stop stop-color="#81D3E4"/>
<stop offset="1" stop-color="#6076FA"/>
</linearGradient>
<linearGradient id="paint10_linear_1710_1311" x1="951.457" y1="491.333" x2="1008.97" y2="491.333" gradientUnits="userSpaceOnUse">
<stop stop-color="#81D3E4"/>
<stop offset="1" stop-color="#6076FA"/>
</linearGradient>
<linearGradient id="paint11_linear_1710_1311" x1="939.137" y1="580.403" x2="992.207" y2="580.403" gradientUnits="userSpaceOnUse">
<stop stop-color="#E59148"/>
<stop offset="1" stop-color="#F1CC52"/>
</linearGradient>
<linearGradient id="paint12_linear_1710_1311" x1="939.137" y1="580.403" x2="992.207" y2="580.403" gradientUnits="userSpaceOnUse">
<stop stop-color="#B37239"/>
<stop offset="1" stop-color="#F1CC52"/>
</linearGradient>
<linearGradient id="paint13_linear_1710_1311" x1="1216.63" y1="442.5" x2="1305.44" y2="442.5" gradientUnits="userSpaceOnUse">
<stop stop-color="#81D3E4"/>
<stop offset="1" stop-color="#6076FA"/>
</linearGradient>
<linearGradient id="paint14_linear_1710_1311" x1="1271.87" y1="369.63" x2="1301.56" y2="369.63" gradientUnits="userSpaceOnUse">
<stop stop-color="#81D3E4"/>
<stop offset="1" stop-color="#6076FA"/>
</linearGradient>
<linearGradient id="paint15_linear_1710_1311" x1="1271.87" y1="385.372" x2="1299.12" y2="385.372" gradientUnits="userSpaceOnUse">
<stop stop-color="#81D3E4"/>
<stop offset="1" stop-color="#6076FA"/>
</linearGradient>
<linearGradient id="paint16_linear_1710_1311" x1="1271.87" y1="377.505" x2="1295.45" y2="377.505" gradientUnits="userSpaceOnUse">
<stop stop-color="#81D3E4"/>
<stop offset="1" stop-color="#6076FA"/>
</linearGradient>
<linearGradient id="paint17_linear_1710_1311" x1="1216.63" y1="368.454" x2="1263.4" y2="368.454" gradientUnits="userSpaceOnUse">
<stop stop-color="#D3D8DE"/>
<stop offset="1" stop-color="white"/>
</linearGradient>
<linearGradient id="paint18_linear_1710_1311" x1="1325.84" y1="320.198" x2="1350.53" y2="320.198" gradientUnits="userSpaceOnUse">
<stop stop-color="#72ACFB"/>
<stop offset="1" stop-color="#5286D4"/>
</linearGradient>
<linearGradient id="paint19_linear_1710_1311" x1="1325.84" y1="312.063" x2="1345.19" y2="312.063" gradientUnits="userSpaceOnUse">
<stop stop-color="#72ACFB"/>
<stop offset="1" stop-color="#5286D4"/>
</linearGradient>
<linearGradient id="paint20_linear_1710_1311" x1="23.4771" y1="294.812" x2="118.767" y2="294.812" gradientUnits="userSpaceOnUse">
<stop stop-color="#40D5E6"/>
<stop offset="1" stop-color="#5577FF"/>
</linearGradient>
<linearGradient id="paint21_linear_1710_1311" x1="29.0771" y1="215.314" x2="72.7571" y2="215.314" gradientUnits="userSpaceOnUse">
<stop stop-color="#40D5E6"/>
<stop offset="1" stop-color="#5577FF"/>
</linearGradient>
<linearGradient id="paint22_linear_1710_1311" x1="27.5771" y1="463.869" x2="376.297" y2="463.869" gradientUnits="userSpaceOnUse">
<stop stop-color="#96CBFF"/>
<stop offset="1" stop-color="#5599FF"/>
</linearGradient>
</defs>
</svg>
