<svg width="1440" height="607" viewBox="0 0 1440 607" fill="none" xmlns="http://www.w3.org/2000/svg">
<path d="M1440.04 0H-9V604H1440.04V0Z" fill="#015BD6"/>
<path d="M1050.37 300.458C1058.78 318.808 1063.51 336.168 1057.31 343.918C1056.95 344.374 1056.55 344.795 1056.12 345.178C1051.34 349.378 1041.96 349.478 1026.12 343.178C983.96 326.528 981.96 297.788 973.44 269.728C965.03 242.018 935.67 246.728 934.93 246.828C1003.34 222.998 1036.1 269.338 1050.37 300.458Z" fill="url(#paint0_linear_1600_6008)"/>
<path d="M1057.31 343.923C1056.95 344.378 1056.55 344.8 1056.12 345.183C1048.2 340.413 1033.04 330.303 1025.89 318.943C1022.47 313.215 1019.39 307.288 1016.68 301.193C1011 289.133 1005.13 276.673 994.88 267.113L996.02 265.883C1006.51 275.663 1012.45 288.283 1018.19 300.483C1020.87 306.518 1023.92 312.386 1027.31 318.053C1034.28 329.133 1049.59 339.283 1057.31 343.923Z" fill="url(#paint1_linear_1600_6008)"/>
<path d="M1043.04 308.001C1042.54 309.231 1042.22 309.921 1042.18 310.001C1042.06 309.331 1041.93 308.661 1041.8 308.001C1036.18 279.191 1028.66 276.181 1006.11 251.001C983.05 225.221 996.31 201.211 996.31 201.211C1073.57 223.461 1048.3 295.071 1043.04 308.001Z" fill="url(#paint2_linear_1600_6008)"/>
<path d="M1043.04 307.999C1042.54 309.229 1042.22 309.919 1042.18 309.999C1042.06 309.329 1041.93 308.659 1041.8 307.999C1044.3 283.099 1029.28 253.869 1024.55 248.629C1019.67 243.189 1016.66 235.719 1015.55 232.909C1015.36 232.439 1015.18 231.999 1015.12 231.909L1016.21 231.289C1016.31 231.459 1016.43 231.769 1016.71 232.449C1017.82 235.209 1020.78 242.529 1025.52 247.789C1031.48 254.379 1045.34 283.749 1043.04 307.999Z" fill="url(#paint3_linear_1600_6008)"/>
<g style="mix-blend-mode:hard-light">
<path d="M1382.21 158.711H1052.72C1040.39 158.711 1030.4 168.704 1030.4 181.031V275.301C1030.4 287.628 1040.39 297.621 1052.72 297.621H1382.21C1394.54 297.621 1404.53 287.628 1404.53 275.301V181.031C1404.53 168.704 1394.54 158.711 1382.21 158.711Z" fill="#F4F4F4"/>
</g>
<path d="M1190.26 459.992H1049.99V464.682H1190.26V459.992Z" fill="white"/>
<path d="M1154.16 438.102H1049.99V442.792H1154.16V438.102Z" fill="url(#paint4_linear_1600_6008)"/>
<path d="M1162.55 449.039H1049.99V453.729H1162.55V449.039Z" fill="url(#paint5_linear_1600_6008)"/>
<path d="M1123.03 459.992H1049.99V464.682H1123.03V459.992Z" fill="url(#paint6_linear_1600_6008)"/>
<g style="mix-blend-mode:hard-light">
<path d="M1182.71 305.141H980.72C971.574 305.141 964.16 312.555 964.16 321.701V503.871C964.16 513.016 971.574 520.431 980.72 520.431H1182.71C1191.86 520.431 1199.27 513.016 1199.27 503.871V321.701C1199.27 312.555 1191.86 305.141 1182.71 305.141Z" fill="#F4F4F4"/>
</g>
<path d="M1051.3 370.351C1053.56 364.026 1053.84 357.162 1052.11 350.673C1050.37 344.183 1046.7 338.376 1041.59 334.021C1039.11 331.911 1036.34 330.182 1033.35 328.891C1032.68 328.601 1031.99 328.331 1031.29 328.081C1025.13 325.878 1018.46 325.55 1012.11 327.14C1005.77 328.73 1000.04 332.165 995.645 337.012C991.253 341.859 988.396 347.9 987.437 354.37C986.478 360.84 987.46 367.45 990.257 373.362C993.055 379.275 997.543 384.225 1003.15 387.587C1008.76 390.948 1015.25 392.571 1021.78 392.248C1028.31 391.926 1034.6 389.674 1039.86 385.776C1045.11 381.878 1049.09 376.51 1051.29 370.351H1051.3ZM1011.8 382.561C1008.73 381.465 1005.91 379.775 1003.5 377.589C1001.09 375.402 999.131 372.762 997.738 369.819C996.346 366.876 995.547 363.688 995.387 360.436C995.226 357.184 995.708 353.932 996.805 350.866C997.901 347.8 999.591 344.981 1001.78 342.568C1003.96 340.155 1006.6 338.197 1009.55 336.804C1012.49 335.412 1015.68 334.613 1018.93 334.453C1022.18 334.293 1025.43 334.775 1028.5 335.871C1029.03 336.061 1029.5 336.261 1030.05 336.481C1032.29 337.45 1034.37 338.748 1036.22 340.331C1040.65 344.089 1043.61 349.282 1044.6 355.003C1045.59 360.725 1044.54 366.612 1041.64 371.639C1038.73 376.665 1034.15 380.512 1028.7 382.508C1023.25 384.504 1017.26 384.523 1011.8 382.561Z" fill="#90C1FC"/>
<path d="M1012.76 335.538L1010.3 327.648C1003.73 329.698 997.965 333.746 993.805 339.227C989.645 344.708 987.297 351.35 987.09 358.228L995.36 358.468C995.528 353.315 997.292 348.341 1000.41 344.233C1003.53 340.125 1007.84 337.087 1012.76 335.538Z" fill="#4372BD"/>
<path d="M1030.04 336.478L1033.34 328.888C1032.67 328.598 1031.98 328.328 1031.28 328.078C1024.52 325.641 1017.14 325.49 1010.28 327.648L1012.74 335.538C1017.88 333.928 1023.41 334.044 1028.48 335.868C1029.04 336.058 1029.54 336.258 1030.04 336.478Z" fill="#4E85DE"/>
<path d="M1041.59 333.997C1039.11 331.887 1036.34 330.158 1033.35 328.867L1030.05 336.457C1032.29 337.426 1034.37 338.724 1036.22 340.307L1041.59 333.997Z" fill="#72ACFB"/>
<path d="M1156.56 437.492H1145.08V476.802H1156.56V437.492Z" fill="#72ACFB"/>
<path d="M1139.5 448.523H1128.02V476.803H1139.5V448.523Z" fill="#72ACFB"/>
<path d="M1173.11 419.273H1161.63V476.803H1173.11V419.273Z" fill="#72ACFB"/>
<path d="M1171.26 390.529L1171.06 389.289L1140.77 394.249L1130.95 415.179L1098.29 417.389L1087.71 432.999L1062.75 432.379L1062.72 433.629L1088.37 434.269L1098.99 418.609L1131.77 416.379L1141.63 395.379L1171.26 390.529Z" fill="#72ACFB"/>
<path d="M1134.24 338.14H1166.88C1167.37 338.14 1167.85 338.043 1168.31 337.856C1168.76 337.668 1169.17 337.394 1169.52 337.047C1169.86 336.701 1170.14 336.29 1170.33 335.837C1170.51 335.385 1170.61 334.9 1170.61 334.41C1170.61 333.42 1170.22 332.472 1169.52 331.772C1168.82 331.073 1167.87 330.68 1166.88 330.68H1134.24C1133.25 330.68 1132.3 331.073 1131.6 331.772C1130.9 332.472 1130.51 333.42 1130.51 334.41C1130.51 334.9 1130.61 335.385 1130.79 335.837C1130.98 336.29 1131.26 336.701 1131.6 337.047C1131.95 337.394 1132.36 337.668 1132.81 337.856C1133.26 338.043 1133.75 338.14 1134.24 338.14Z" fill="#4E85DE"/>
<path d="M1134.24 351.163H1166.88C1167.87 351.163 1168.82 350.77 1169.52 350.071C1170.22 349.371 1170.61 348.422 1170.61 347.433C1170.61 346.444 1170.22 345.495 1169.52 344.796C1168.82 344.096 1167.87 343.703 1166.88 343.703H1134.24C1133.25 343.703 1132.3 344.096 1131.6 344.796C1130.9 345.495 1130.51 346.444 1130.51 347.433C1130.51 348.422 1130.9 349.371 1131.6 350.071C1132.3 350.77 1133.25 351.163 1134.24 351.163Z" fill="#72ACFB"/>
<path d="M1134.24 364.179H1166.88C1167.37 364.179 1167.85 364.082 1168.31 363.895C1168.76 363.707 1169.17 363.433 1169.52 363.086C1169.86 362.74 1170.14 362.329 1170.33 361.876C1170.51 361.424 1170.61 360.939 1170.61 360.449C1170.61 359.46 1170.22 358.511 1169.52 357.811C1168.82 357.112 1167.87 356.719 1166.88 356.719H1134.24C1133.25 356.719 1132.3 357.112 1131.6 357.811C1130.9 358.511 1130.51 359.46 1130.51 360.449C1130.51 360.939 1130.61 361.424 1130.79 361.876C1130.98 362.329 1131.26 362.74 1131.6 363.086C1131.95 363.433 1132.36 363.707 1132.81 363.895C1133.26 364.082 1133.75 364.179 1134.24 364.179Z" fill="#72ACFB"/>
<path d="M1075.16 344.597H1056.49V343.877H1074.87L1084.69 334.047H1096.73V334.767H1084.99L1075.16 344.597Z" fill="#72ACFB"/>
<path d="M1092.86 377.206H1068.83L1061.05 369.416L1061.55 368.906L1069.13 376.486H1092.86V377.206Z" fill="#72ACFB"/>
<path d="M1111.37 338.797H1086.47V341.857H1111.37V338.797Z" fill="#4E85DE"/>
<path d="M1098.93 369.953H1078.88V373.013H1098.93V369.953Z" fill="#4E85DE"/>
<path d="M911.52 384.588C917.8 381.588 924.04 401.588 924.04 401.588C934.7 415.678 949.6 396.938 948.15 417.998C945.6 454.858 990.57 429.588 969.82 468.068C949.07 506.548 988.14 489.828 975.25 520.848C962.36 551.868 979.07 588.848 959.67 573.678C959.67 573.678 942.58 536.218 924.97 524.678C907.36 513.138 935.52 499.338 929.97 483.598C921.97 460.728 902.67 461.598 916.58 437.058C930.49 412.518 890.2 394.788 911.52 384.588Z" fill="url(#paint7_linear_1600_6008)"/>
<path d="M965.81 559.551C957.4 553.641 947.56 512.421 946.97 487.881C946.67 475.301 942.97 470.061 939.67 465.441C936.54 461.021 933.83 457.211 935.41 448.441C938.41 431.691 930.5 424.441 930.41 424.391L931.33 423.391C931.68 423.701 939.93 431.151 936.77 448.721C935.29 456.911 937.77 460.331 940.77 464.671C943.99 469.211 948.01 474.871 948.32 487.871C948.95 514.221 959.01 553.131 966.57 558.441L965.81 559.551Z" fill="white"/>
<path d="M968.96 562.61C967.763 562.598 966.571 562.467 965.4 562.22C962.16 561.56 960.03 559.86 959.08 557.14C956.82 550.66 962.08 540.14 966.33 535.05C970.834 529.039 973.113 521.653 972.78 514.15C972.65 512.15 972.44 510.25 972.25 508.6C971.72 503.82 971.33 500.36 973.39 498.05C975.2 496.05 978.69 495.13 985.07 495.1C996.26 495.05 1000.69 490.42 1004.25 486.7C1005.59 485.134 1007.16 483.785 1008.91 482.7C1014.49 479.65 1020.4 479.2 1022.91 481.63C1024.13 482.78 1025.16 485.04 1023.14 489.26C1021.59 492.348 1019.51 495.138 1016.99 497.5C1014.4 500.14 1012.7 501.88 1013.59 505.35C1013.8 506.17 1014.04 506.99 1014.28 507.82C1016 513.72 1017.96 520.4 1007.86 524.94C1005.72 525.94 1003.76 526.67 1002.04 527.35C995.04 530.12 990.74 531.79 985.93 541.93C985 543.93 984.18 545.75 983.39 547.55C979.65 556.12 976.78 562.61 968.96 562.61ZM1009.58 483.9C1007.95 484.927 1006.49 486.195 1005.25 487.66C1001.51 491.57 996.86 496.44 985.08 496.5C979.21 496.5 975.93 497.29 974.42 498.98C972.91 500.67 973.14 503.98 973.64 508.44C973.82 510.11 974.04 512.01 974.17 514.07C974.572 521.931 972.174 529.681 967.4 535.94C963.18 540.94 958.4 550.94 960.4 556.68C961.17 558.9 962.95 560.31 965.68 560.86C975.19 562.78 977.81 556.86 982.16 546.97C982.96 545.16 983.79 543.29 984.72 541.31C989.72 530.67 994.47 528.83 1001.58 526.03C1003.29 525.36 1005.23 524.61 1007.34 523.66C1016.34 519.66 1014.71 514.06 1012.99 508.19C1012.75 507.35 1012.5 506.51 1012.29 505.68C1011.21 501.45 1013.29 499.27 1016.05 496.51C1018.46 494.253 1020.46 491.589 1021.94 488.64C1022.85 486.73 1023.6 484.13 1022 482.64C1019.9 480.64 1014.56 481.2 1009.58 483.92V483.9Z" fill="url(#paint8_linear_1600_6008)"/>
<path d="M965.55 570.626L964.16 570.556C964.23 569.256 965.98 538.496 978.33 529.496C991.88 519.616 996.15 509.006 998.19 501.886C1000.58 493.486 1012.78 491.246 1013.3 491.156L1013.55 492.526C1013.43 492.526 1001.68 494.706 999.55 502.266C997.46 509.586 993.08 520.496 979.18 530.616C967.33 539.236 965.57 570.316 965.55 570.626Z" fill="url(#paint9_linear_1600_6008)"/>
<path d="M993.79 415.631C985.01 412.631 986.79 429.541 983.12 442.061C979.45 454.581 941.86 447.521 957.63 478.861C973.4 510.201 937.69 489.341 948.35 516.701C959.01 544.061 949.28 573.301 960.87 565.861C972.46 558.421 967.38 523.981 979.44 519.861C991.5 515.741 993.44 511.001 981.52 499.861C969.6 488.721 1012.79 477.691 1002.13 455.221C991.47 432.751 1003.93 419.111 993.79 415.631Z" fill="url(#paint10_linear_1600_6008)"/>
<path d="M966.25 564.547C965.14 559.867 955.72 518.657 964.51 513.677C972.27 509.287 972.08 492.207 970.87 476.087C969.8 461.817 988.13 455.137 988.87 454.867L989.33 456.177C989.15 456.237 971.22 462.767 972.21 475.987C973.45 492.547 973.59 510.107 965.16 514.887C958.48 518.667 964.63 551.787 967.56 564.227L966.25 564.547Z" fill="white"/>
<path d="M986.2 549.883L973.67 597.423H945.66L933.13 549.883H986.2Z" fill="url(#paint11_linear_1600_6008)"/>
<path d="M986.2 549.883C986.2 549.883 958.61 555.063 958.61 597.423H945.61L933.08 549.883H986.2Z" fill="url(#paint12_linear_1600_6008)"/>
<path d="M1061.97 139.797V143.827H1022.67V183.137H1018.63V139.797H1061.97Z" fill="#BFD4FC"/>
<path d="M1417.73 128.047H1385.74V130.287H1417.73V128.047Z" fill="#BFD4FC"/>
<path d="M1417.73 132.281H1385.74V141.711H1417.73V132.281Z" fill="#BFD4FC"/>
<path d="M1382.67 135.859H1363.8V137.269H1382.67V135.859Z" fill="#BFD4FC"/>
<path d="M1382.67 137.891H1363.8V141.711H1382.67V137.891Z" fill="#BFD4FC"/>
<path d="M1418.43 128.047H1417.02V154.467H1418.43V128.047Z" fill="#BFD4FC"/>
<path d="M1064.58 488.109H1025.1V490.449H1064.58V488.109Z" fill="#DCD0C8"/>
<path d="M1030.38 603.141H1033.84V496.551H1030.38V603.141Z" fill="#6D6865"/>
<path d="M1085.84 487.453H1058.4V490.803H1085.84V487.453Z" fill="#C6BBB5"/>
<path d="M1077.31 458.891H1066.92V490.461H1077.31V458.891Z" fill="#948C87"/>
<path d="M1162.98 490.5H1010.93V496.56H1162.98V490.5Z" fill="#A98E75"/>
<path d="M981.75 453.822C981.75 453.822 980.08 477.142 984.64 479.932C987.5 481.682 998.88 487.572 998.54 488.682C998.2 489.792 992.11 498.522 992.11 498.522C992.11 498.522 970.25 484.122 969.55 479.592C968.85 475.062 970.62 445.442 973.63 444.072C975.88 443.072 977.07 443.892 979.9 446.002C983.88 449.002 981.75 453.822 981.75 453.822Z" fill="#EBB35C"/>
<path d="M1008.65 588.587C1008.65 588.587 1007.97 593.307 1007.88 594.017C1007.79 594.727 1000.32 593.597 1000.32 593.597L999.71 587.977C999.71 587.977 1007.71 587.927 1008.65 588.587Z" fill="#454971"/>
<path d="M1007.96 593.422C1009.3 595.013 1010.87 596.39 1012.62 597.503C1014.91 598.743 1018.52 599.233 1019.87 600.503C1020.87 601.433 1023.43 605.423 1013.87 605.343C1004.31 605.263 999.77 605.903 998.75 604.343C997.73 602.783 1000.22 593.062 1000.22 593.062C1000.22 593.062 1002.52 593.912 1007.96 593.422Z" fill="#2E3048"/>
<path d="M1056.56 588.641C1056.56 588.641 1055.88 593.351 1055.79 594.061C1055.7 594.771 1048.23 593.651 1048.23 593.651L1047.62 588.031C1047.62 588.031 1055.62 588.001 1056.56 588.641Z" fill="#454971"/>
<path d="M1055.87 593.459C1057.2 595.053 1058.77 596.43 1060.53 597.539C1062.82 598.779 1071.26 599.799 1072.61 601.089C1073.61 602.009 1075.22 605.739 1061.82 605.389C1052.31 605.139 1047.72 605.949 1046.7 604.389C1045.68 602.829 1048.17 593.109 1048.17 593.109C1048.17 593.109 1050.3 593.999 1055.87 593.459Z" fill="#2E3048"/>
<path d="M984.53 507.078C984.53 507.078 1011.71 511.678 1017.85 512.638C1023.99 513.598 1057.29 521.888 1061.45 524.408C1064.77 526.408 1059.71 574.688 1058.53 593.098H1045.42L1044.42 537.868C1028.68 538.258 1017.42 534.188 1005.99 535.928C994.56 537.668 984.99 540.138 977.7 530.368C977.75 530.368 977.48 509.208 984.53 507.078Z" fill="#2E3048"/>
<path d="M1011.32 593.138L998.54 592.347L997.3 537.867C992.422 538.014 987.541 537.703 982.72 536.938L972.4 512.938C981.4 514.737 1010.4 522.048 1014.28 524.388C1017.6 526.428 1012.5 574.728 1011.32 593.138Z" fill="#2E3048"/>
<path d="M997.04 405.169C997.04 405.169 1007.04 402.419 1010.81 410.169C1014.58 417.919 1012.89 432.569 1007.87 433.949C1002.85 435.329 995.62 433.739 993.54 428.949C991.46 424.159 989.79 417.299 990.29 412.859C990.79 408.419 994.4 406.229 997.04 405.169Z" fill="#DBA585"/>
<path d="M1005.26 432.393C1005.26 432.393 1005.15 438.282 1005.8 439.532C1006.45 440.782 991.92 440.472 991.92 440.472C991.92 440.472 994.21 433.413 992.92 427.393C991.63 421.373 1005.26 432.393 1005.26 432.393Z" fill="#DBA585"/>
<path d="M992.131 425.163C992.131 425.163 992.91 426.743 996.67 426.483C1000.43 426.223 1005.39 421.693 1006.98 421.293C1008.57 420.893 1008.67 419.973 1008.67 419.973L1009.52 421.473L1011.15 421.723C1011.15 421.723 1010.04 417.183 1012.47 415.583C1014.9 413.983 1011.37 401.083 999.121 404.193C999.121 404.193 989.761 405.913 989.631 411.133C989.501 416.353 990.321 422.393 992.131 425.163Z" fill="#3E4148"/>
<path d="M1006.56 439.383C1006.56 439.383 1006.56 436.983 1005.44 436.753C1004.32 436.523 994.02 435.103 992.69 435.633L992.11 438.793C992.11 438.793 994.68 440.373 1006.56 439.383Z" fill="#DCD0C8"/>
<path d="M1009.55 418.903C1009.28 416.903 1007.04 414.683 1005.76 417.743C1004.48 420.803 1006.63 425.263 1008.06 425.023C1009.49 424.783 1009.93 421.573 1009.55 418.903Z" fill="#DBA585"/>
<path d="M994.14 406.58C994.14 406.58 981.98 406 992.04 425L994.14 406.58Z" fill="#3E4148"/>
<path d="M967.06 599.612L967.97 602.152L1006.16 590.312L1004.33 585.172L967.06 599.612Z" fill="#8C8581"/>
<path d="M1007.47 546.977H1003.13V588.497H1007.47V546.977Z" fill="#8C8581"/>
<path d="M1018.11 544.773H992.5V547.223H1018.11V544.773Z" fill="#5D5955"/>
<path d="M1043.87 599.614L1042.97 602.154L1004.78 590.314L1006.46 584.844L1043.87 599.614Z" fill="#8C8581"/>
<path d="M1016.96 601.884V604.844L1004.78 590.314L1006.46 584.844L1016.96 601.884Z" fill="#8C8581"/>
<path d="M1047.44 603.14C1047.44 603.846 1047.23 604.537 1046.84 605.124C1046.45 605.711 1045.89 606.168 1045.24 606.439C1044.58 606.709 1043.87 606.779 1043.17 606.642C1042.48 606.504 1041.84 606.164 1041.35 605.665C1040.85 605.165 1040.51 604.529 1040.37 603.837C1040.23 603.144 1040.3 602.426 1040.57 601.774C1040.84 601.122 1041.3 600.564 1041.89 600.172C1042.47 599.78 1043.16 599.57 1043.87 599.57C1044.34 599.57 1044.8 599.663 1045.24 599.842C1045.67 600.021 1046.06 600.284 1046.39 600.616C1046.73 600.947 1046.99 601.341 1047.17 601.774C1047.35 602.207 1047.44 602.672 1047.44 603.14Z" fill="#B9AFAA"/>
<path d="M1017.26 603.14C1017.26 603.846 1017.05 604.537 1016.66 605.124C1016.27 605.711 1015.71 606.168 1015.06 606.439C1014.4 606.709 1013.69 606.779 1012.99 606.642C1012.3 606.504 1011.66 606.164 1011.17 605.665C1010.67 605.165 1010.33 604.529 1010.19 603.837C1010.05 603.144 1010.12 602.426 1010.39 601.774C1010.66 601.122 1011.12 600.564 1011.71 600.172C1012.29 599.78 1012.98 599.57 1013.69 599.57C1014.16 599.57 1014.62 599.663 1015.06 599.842C1015.49 600.021 1015.88 600.284 1016.21 600.616C1016.55 600.947 1016.81 601.341 1016.99 601.774C1017.17 602.207 1017.26 602.672 1017.26 603.14Z" fill="#B9AFAA"/>
<path d="M970.63 603.14C970.63 603.846 970.421 604.537 970.029 605.124C969.636 605.711 969.079 606.168 968.426 606.439C967.774 606.709 967.056 606.779 966.364 606.642C965.671 606.504 965.035 606.164 964.536 605.665C964.037 605.165 963.697 604.529 963.559 603.837C963.421 603.144 963.492 602.426 963.762 601.774C964.032 601.122 964.49 600.564 965.077 600.172C965.664 599.78 966.354 599.57 967.06 599.57C967.529 599.57 967.993 599.663 968.426 599.842C968.86 600.021 969.253 600.284 969.585 600.616C969.916 600.947 970.179 601.341 970.358 601.774C970.538 602.207 970.63 602.672 970.63 603.14Z" fill="#B9AFAA"/>
<path d="M1031.16 544.768H979.77C978.542 544.768 977.364 544.28 976.496 543.412C975.627 542.543 975.14 541.366 975.14 540.138C975.14 538.91 975.627 537.732 976.496 536.864C977.364 535.996 978.542 535.508 979.77 535.508H1031.16C1031.77 535.507 1032.37 535.625 1032.93 535.857C1033.5 536.089 1034.01 536.43 1034.44 536.86C1034.87 537.29 1035.21 537.801 1035.45 538.364C1035.68 538.926 1035.8 539.529 1035.8 540.138C1035.8 540.747 1035.68 541.35 1035.45 541.912C1035.21 542.474 1034.87 542.985 1034.44 543.415C1034.01 543.845 1033.5 544.186 1032.93 544.418C1032.37 544.65 1031.77 544.769 1031.16 544.768Z" fill="#DCD0C8"/>
<path d="M1143.53 496.562H1140.07V603.153H1143.53V496.562Z" fill="#6D6865"/>
<path d="M1111.71 410.789H1032.53C1029.61 410.789 1027.25 413.153 1027.25 416.069V468.809C1027.25 471.725 1029.61 474.089 1032.53 474.089H1111.71C1114.63 474.089 1116.99 471.725 1116.99 468.809V416.069C1116.99 413.153 1114.63 410.789 1111.71 410.789Z" fill="#B2A8A3"/>
<path d="M1113.48 414.211H1030.77V464.171H1113.48V414.211Z" fill="#F4F6FF"/>
<path d="M1109.8 468.89C1109.8 470.31 1108.3 471.46 1106.46 471.46C1104.62 471.46 1103.13 470.31 1103.13 468.89C1103.13 467.47 1104.62 466.32 1106.46 466.32C1108.3 466.32 1109.8 467.47 1109.8 468.89Z" fill="#8C8480"/>
<path d="M1090.69 490.583V489.453C1090.69 489.453 1089.11 482.453 1077.91 482.453C1066.71 482.453 1066.91 490.593 1066.91 490.593L1090.69 490.583Z" fill="#948C87"/>
<path d="M1066.8 483.492C1067.94 483.422 1069.06 483.176 1070.12 482.762C1071.02 482.222 1076.35 478.632 1077.6 479.212C1078.85 479.792 1087.19 482.342 1086.9 483.552C1086.61 484.762 1085.84 484.662 1085.25 484.442C1084.66 484.222 1078.61 482.952 1078.08 483.172C1078.08 483.172 1084.02 485.342 1084.08 486.922C1084.14 488.502 1082.83 488.922 1082.27 489.492C1081.71 490.062 1081.03 491.582 1079.5 491.692C1077.97 491.802 1070.5 489.202 1068.95 489.082C1067.4 488.962 1064.56 489.182 1064.36 488.932C1064.16 488.682 1066.8 483.492 1066.8 483.492Z" fill="#DBA585"/>
<path d="M1022.49 442.699C1014.73 441.339 1006.56 439.379 1006.56 439.379L992.11 438.789C992.11 438.789 978.85 441.709 973.63 444.069C973.13 444.299 973.13 455.899 971.77 458.949L976.1 468.079C976.1 468.079 978.6 486.179 979.1 494.229C979.34 497.919 978.43 529.939 978.43 529.939C978.43 529.939 979.73 530.579 989.59 531.669C999.45 532.759 1024.09 531.269 1024.25 530.109C1024.41 528.949 1019.48 486.729 1019.25 484.549C1018.91 481.189 1020.25 465.689 1020.25 465.689C1022.11 468.179 1026.84 479.459 1031.78 484.819C1034.69 487.979 1049.07 489.909 1051.78 489.999C1057.68 490.199 1068.45 491.369 1068.78 490.799C1069.03 490.449 1069.72 481.239 1069.04 481.019C1068.36 480.799 1048.46 479.669 1043.34 476.949C1041.47 475.949 1035.87 463.749 1035.87 463.749C1035.87 463.749 1026.77 444.629 1022.49 442.699Z" fill="#EBB35C"/>
<path d="M971.13 471.078H992.65C995.345 471.078 997.929 472.149 999.834 474.054C1001.74 475.959 1002.81 478.544 1002.81 481.238V518.858C1002.8 521.551 1001.73 524.132 999.824 526.033C997.917 527.934 995.333 529.001 992.64 528.998H971.13C968.442 528.99 965.867 527.918 963.969 526.015C962.07 524.113 961.003 521.536 961 518.848V481.228C961 478.54 962.067 475.961 963.966 474.058C965.865 472.155 968.442 471.083 971.13 471.078Z" fill="#DCD0C8"/>
<path d="M995.39 542.469C989.22 542.469 984.22 540.399 980.52 536.309C972.16 527.079 973.66 510.849 973.73 510.159C973.822 509.57 974.136 509.039 974.607 508.675C975.078 508.31 975.67 508.14 976.263 508.199C976.856 508.258 977.403 508.541 977.793 508.991C978.183 509.441 978.386 510.024 978.36 510.619C978.36 510.799 977.01 525.519 983.98 533.199C986.79 536.299 990.53 537.809 995.39 537.809C996.008 537.809 996.601 538.054 997.038 538.491C997.475 538.928 997.72 539.521 997.72 540.139C997.72 540.757 997.475 541.349 997.038 541.786C996.601 542.223 996.008 542.469 995.39 542.469Z" fill="#DCD0C8"/>
<path d="M1060.1 418.188H1037.39C1036.97 418.188 1036.63 418.528 1036.63 418.948V420.068C1036.63 420.487 1036.97 420.827 1037.39 420.827H1060.1C1060.52 420.827 1060.86 420.487 1060.86 420.068V418.948C1060.86 418.528 1060.52 418.188 1060.1 418.188Z" fill="#DEDFE6"/>
<path d="M1037.38 423.859H1060.1C1060.3 423.859 1060.49 423.939 1060.64 424.082C1060.78 424.225 1060.86 424.418 1060.86 424.619V425.749C1060.86 425.951 1060.78 426.144 1060.64 426.287C1060.49 426.429 1060.3 426.509 1060.1 426.509H1037.39C1037.19 426.509 1037 426.429 1036.85 426.287C1036.71 426.144 1036.63 425.951 1036.63 425.749V424.619C1036.63 424.52 1036.65 424.421 1036.68 424.329C1036.72 424.237 1036.78 424.153 1036.85 424.083C1036.92 424.012 1037 423.956 1037.09 423.917C1037.18 423.879 1037.28 423.859 1037.38 423.859Z" fill="#DEDFE6"/>
<path d="M1058.32 430.352H1039.17C1037.77 430.352 1036.63 431.489 1036.63 432.892V457.662C1036.63 459.064 1037.77 460.202 1039.17 460.202H1058.32C1059.72 460.202 1060.86 459.064 1060.86 457.662V432.892C1060.86 431.489 1059.72 430.352 1058.32 430.352Z" fill="#DEDFE6"/>
<path d="M1104.86 418.188H1069.78C1067.55 418.188 1065.75 419.992 1065.75 422.217V456.158C1065.75 458.383 1067.55 460.188 1069.78 460.188H1104.86C1107.09 460.188 1108.89 458.383 1108.89 456.158V422.217C1108.89 419.992 1107.09 418.188 1104.86 418.188Z" fill="#DEDFE6"/>
<path d="M1142.04 215.127C1139.89 209.118 1136.58 203.592 1132.29 198.863C1128.01 194.134 1122.84 190.296 1117.07 187.567C1111.3 184.837 1105.05 183.271 1098.68 182.957C1092.3 182.643 1085.93 183.588 1079.92 185.737C1073.91 187.886 1068.38 191.198 1063.66 195.482C1058.93 199.767 1055.09 204.942 1052.36 210.71C1049.63 216.479 1048.06 222.728 1047.75 229.102C1047.44 235.475 1048.38 241.848 1050.53 247.857C1050.9 248.857 1051.3 249.857 1051.73 250.857C1053.62 255.243 1056.16 259.321 1059.26 262.957C1066.63 271.613 1076.8 277.411 1088 279.342C1099.21 281.274 1110.73 279.217 1120.58 273.53C1130.42 267.842 1137.96 258.884 1141.88 248.213C1145.8 237.543 1145.86 225.835 1142.04 215.127ZM1108.55 265.797C1099.85 268.902 1090.3 268.584 1081.82 264.908C1073.35 261.231 1066.59 254.471 1062.91 245.997C1062.59 245.257 1062.29 244.497 1062.01 243.727C1059.58 236.944 1059.21 229.592 1060.96 222.601C1062.7 215.609 1066.48 209.293 1071.82 204.45C1077.16 199.608 1083.81 196.457 1090.94 195.396C1098.06 194.335 1105.35 195.411 1111.86 198.489C1118.38 201.567 1123.83 206.508 1127.54 212.688C1131.25 218.867 1133.04 226.007 1132.69 233.205C1132.34 240.402 1129.86 247.334 1125.57 253.123C1121.28 258.912 1115.36 263.298 1108.58 265.727L1108.55 265.797Z" fill="#72ACFB"/>
<path d="M1061.54 220.628L1049.93 216.998C1052.95 207.352 1058.9 198.885 1066.95 192.774C1075 186.663 1084.76 183.212 1094.86 182.898L1095.22 195.058C1087.65 195.294 1080.33 197.881 1074.3 202.462C1068.26 207.042 1063.8 213.388 1061.54 220.618V220.628Z" fill="#385988"/>
<path d="M1062.91 246L1051.76 250.85C1051.33 249.85 1050.93 248.85 1050.56 247.85C1046.99 237.911 1046.77 227.076 1049.93 217L1061.54 220.62C1059.17 228.175 1059.33 236.298 1062.01 243.75C1062.29 244.53 1062.59 245.29 1062.91 246Z" fill="#4772B0"/>
<path d="M1059.29 262.997C1056.19 259.361 1053.65 255.282 1051.76 250.897L1062.91 246.047C1064.34 249.332 1066.24 252.388 1068.56 255.117L1059.29 262.997Z" fill="#5886C7"/>
<path d="M1169.89 218.102H1161.28V279.382H1169.89V218.102Z" fill="#DEDEDE"/>
<path d="M1191.25 230.547H1182.65V279.377H1191.25V230.547Z" fill="#DEDEDE"/>
<path d="M1212.61 221.391H1204.01V279.381H1212.61V221.391Z" fill="#DEDEDE"/>
<path d="M1233.98 239.477H1225.37V279.377H1233.98V239.477Z" fill="#DEDEDE"/>
<path d="M1255.34 223.273H1246.74V279.393H1255.34V223.273Z" fill="#DEDEDE"/>
<path d="M1276.7 214.812H1268.1V279.383H1276.7V214.812Z" fill="#DEDEDE"/>
<path d="M1298.07 211.289H1289.47V279.389H1298.07V211.289Z" fill="#DEDEDE"/>
<path d="M1169.89 240.938H1161.28V279.388H1169.89V240.938Z" fill="#DF655A"/>
<path d="M1191.25 248.75H1182.65V279.39H1191.25V248.75Z" fill="#DF655A"/>
<path d="M1212.61 243H1204.01V279.39H1212.61V243Z" fill="#DF655A"/>
<path d="M1233.98 254.352H1225.37V279.382H1233.98V254.352Z" fill="#DF655A"/>
<path d="M1255.34 244.18H1246.74V279.39H1255.34V244.18Z" fill="#DF655A"/>
<path d="M1276.7 238.867H1268.1V279.377H1276.7V238.867Z" fill="#DF655A"/>
<path d="M1298.07 236.656H1289.47V279.376H1298.07V236.656Z" fill="#DF655A"/>
<path d="M1321.64 218.102H1313.04V279.382H1321.64V218.102Z" fill="#DEDEDE"/>
<path d="M1343 230.547H1334.4V279.377H1343V230.547Z" fill="#DEDEDE"/>
<path d="M1364.37 221.391H1355.77V279.381H1364.37V221.391Z" fill="#DEDEDE"/>
<path d="M1385.73 239.477H1377.13V279.377H1385.73V239.477Z" fill="#DEDEDE"/>
<path d="M1321.64 240.938H1313.04V279.388H1321.64V240.938Z" fill="#DF655A"/>
<path d="M1343 248.75H1334.4V279.39H1343V248.75Z" fill="#DF655A"/>
<path d="M1364.37 243H1355.77V279.39H1364.37V243Z" fill="#DF655A"/>
<path d="M1385.73 254.352H1377.13V279.382H1385.73V254.352Z" fill="#DF655A"/>
<path d="M1382.46 187.828L1159.78 187.828C1158.91 187.828 1158.08 187.483 1157.46 186.867C1156.85 186.252 1156.5 185.418 1156.5 184.548V182.348C1156.5 181.478 1156.85 180.644 1157.46 180.029C1158.08 179.414 1158.91 179.068 1159.78 179.068L1382.46 179.068C1382.89 179.068 1383.32 179.153 1383.71 179.317C1384.11 179.481 1384.47 179.722 1384.77 180.026C1385.08 180.33 1385.32 180.69 1385.48 181.087C1385.65 181.483 1385.73 181.909 1385.73 182.338V184.538C1385.73 185.408 1385.38 186.242 1384.77 186.857C1384.15 187.473 1383.32 187.818 1382.45 187.818L1382.46 187.828Z" fill="#72ACFB"/>
<path d="M1382.46 203.102L1159.78 203.102C1158.91 203.102 1158.08 202.756 1157.46 202.141C1156.85 201.526 1156.5 200.691 1156.5 199.822V197.622C1156.5 196.752 1156.85 195.917 1157.46 195.302C1158.08 194.687 1158.91 194.342 1159.78 194.342L1382.46 194.342C1383.33 194.342 1384.16 194.686 1384.77 195.299C1385.39 195.913 1385.73 196.744 1385.73 197.612V199.812C1385.73 200.242 1385.65 200.669 1385.48 201.068C1385.32 201.466 1385.08 201.828 1384.78 202.134C1384.47 202.439 1384.11 202.682 1383.71 202.848C1383.32 203.014 1382.89 203.1 1382.46 203.102Z" fill="#BFD4FC"/>
<g style="mix-blend-mode:hard-light">
<path d="M1297.97 305.297H1214.43C1208.68 305.297 1204.01 309.962 1204.01 315.717V472.027C1204.01 477.782 1208.68 482.447 1214.43 482.447H1297.97C1303.72 482.447 1308.39 477.782 1308.39 472.027V315.717C1308.39 309.962 1303.72 305.297 1297.97 305.297Z" fill="#F4F4F4"/>
</g>
<path d="M1211.74 410.961H1211.28V469.521H1211.74V410.961Z" fill="#72ACFB"/>
<path d="M1233.94 410.961H1233.48V469.521H1233.94V410.961Z" fill="#72ACFB"/>
<path d="M1256.14 410.961H1255.68V469.521H1256.14V410.961Z" fill="#72ACFB"/>
<path d="M1278.34 410.961H1277.88V469.521H1278.34V410.961Z" fill="#72ACFB"/>
<path d="M1300.54 410.961H1300.08V469.521H1300.54V410.961Z" fill="#72ACFB"/>
<path d="M1211.5 445.778C1211.5 445.778 1220.5 453.398 1229.29 444.368C1238.08 435.338 1248.12 432.368 1257.04 439.928C1265.96 447.488 1269.42 437.098 1278.33 428.558C1287.24 420.018 1287.11 415.148 1300.33 415.148V469.518H1211.52L1211.5 445.778Z" fill="url(#paint13_linear_1600_6008)"/>
<path d="M1239.23 406.078H1233.71V408.208H1239.23V406.078Z" fill="#72ACFB"/>
<path d="M1218.79 406.078H1211.28V408.208H1218.79V406.078Z" fill="#72ACFB"/>
<path d="M1262.71 406.078H1255.91V408.208H1262.71V406.078Z" fill="#72ACFB"/>
<path d="M1284.68 406.078H1277.88V408.208H1284.68V406.078Z" fill="#72ACFB"/>
<path d="M1300.31 406.078H1293.51V408.208H1300.31V406.078Z" fill="#72ACFB"/>
<path d="M1296.43 367.578H1266.74V371.328H1296.43V367.578Z" fill="url(#paint14_linear_1600_6008)"/>
<path d="M1293.99 383.32H1266.74V387.08H1293.99V383.32Z" fill="url(#paint15_linear_1600_6008)"/>
<path d="M1290.32 375.453H1266.74V379.213H1290.32V375.453Z" fill="url(#paint16_linear_1600_6008)"/>
<path d="M1240.12 362.221C1240.12 363.248 1239.82 364.251 1239.25 365.105C1238.68 365.958 1237.86 366.623 1236.92 367.016C1235.97 367.409 1234.92 367.512 1233.92 367.312C1232.91 367.111 1231.99 366.617 1231.26 365.891C1230.53 365.165 1230.04 364.241 1229.84 363.234C1229.64 362.227 1229.74 361.183 1230.14 360.235C1230.53 359.287 1231.19 358.476 1232.05 357.906C1232.9 357.336 1233.9 357.031 1234.93 357.031C1236.31 357.031 1237.63 357.578 1238.6 358.551C1239.57 359.525 1240.12 360.845 1240.12 362.221Z" fill="#72ACFB"/>
<path d="M1244.3 379.139V388.999C1241.34 390.337 1238.14 391.029 1234.89 391.029C1231.65 391.029 1228.44 390.337 1225.48 388.999V379.129C1225.48 376.633 1226.47 374.24 1228.24 372.475C1230 370.71 1232.39 369.719 1234.89 369.719C1237.39 369.719 1239.78 370.71 1241.54 372.475C1243.31 374.24 1244.3 376.633 1244.3 379.129V379.139Z" fill="#72ACFB"/>
<path d="M1234.89 391.663C1231.55 391.671 1228.26 390.958 1225.22 389.573C1220.35 387.364 1216.39 383.555 1213.99 378.781C1211.59 374.006 1210.89 368.552 1212.02 363.329C1213.15 358.105 1216.04 353.425 1220.2 350.069C1224.36 346.713 1229.54 344.883 1234.89 344.883C1240.23 344.883 1245.41 346.713 1249.57 350.069C1253.73 353.425 1256.62 358.105 1257.75 363.329C1258.88 368.552 1258.18 374.006 1255.78 378.781C1253.38 383.555 1249.42 387.364 1244.55 389.573C1241.52 390.959 1238.22 391.672 1234.89 391.663ZM1234.89 346.133C1229.83 346.133 1224.92 347.867 1220.98 351.046C1217.04 354.224 1214.31 358.655 1213.24 363.602C1212.17 368.548 1212.83 373.712 1215.1 378.233C1217.38 382.755 1221.13 386.361 1225.74 388.453C1228.62 389.751 1231.73 390.423 1234.89 390.423C1238.05 390.423 1241.16 389.751 1244.04 388.453C1248.65 386.361 1252.4 382.755 1254.68 378.233C1256.95 373.712 1257.61 368.548 1256.54 363.602C1255.47 358.655 1252.74 354.224 1248.8 351.046C1244.86 347.867 1239.95 346.133 1234.89 346.133Z" fill="url(#paint17_linear_1600_6008)"/>
<path d="M1281.28 358.401C1278.48 358.403 1275.75 357.576 1273.43 356.024C1271.1 354.473 1269.29 352.267 1268.22 349.685C1267.15 347.103 1266.87 344.262 1267.41 341.52C1267.95 338.779 1269.3 336.26 1271.27 334.283C1273.25 332.306 1275.77 330.959 1278.51 330.413C1281.25 329.867 1284.09 330.146 1286.67 331.215C1289.26 332.284 1291.46 334.096 1293.02 336.419C1294.57 338.743 1295.4 341.476 1295.4 344.271C1295.39 348.015 1293.91 351.604 1291.26 354.253C1288.61 356.901 1285.02 358.393 1281.28 358.401ZM1281.28 332.971C1279.04 332.969 1276.86 333.63 1275 334.87C1273.14 336.111 1271.69 337.875 1270.83 339.939C1269.98 342.004 1269.75 344.276 1270.19 346.469C1270.62 348.662 1271.7 350.676 1273.28 352.257C1274.86 353.839 1276.87 354.916 1279.06 355.353C1281.25 355.79 1283.53 355.566 1285.59 354.711C1287.66 353.856 1289.42 352.408 1290.66 350.55C1291.91 348.691 1292.57 346.506 1292.57 344.271C1292.56 341.281 1291.37 338.418 1289.25 336.306C1287.13 334.194 1284.27 333.006 1281.28 333.001V332.971Z" fill="#72ACFB"/>
<path d="M1255.12 316.109H1233.83V319.499H1255.12V316.109Z" fill="#72ACFB"/>
<path d="M1255.12 324.859H1236.97V328.259H1255.12V324.859Z" fill="#72ACFB"/>
<path d="M1255.12 333.609H1225.94V336.999H1255.12V333.609Z" fill="#72ACFB"/>
<g style="mix-blend-mode:hard-light">
<path d="M1383.1 304.93H1317.63C1316.18 304.93 1315 306.107 1315 307.56V352.73C1315 354.182 1316.18 355.36 1317.63 355.36H1383.1C1384.55 355.36 1385.73 354.182 1385.73 352.73V307.56C1385.73 306.107 1384.55 304.93 1383.1 304.93Z" fill="#F4F4F4"/>
</g>
<path d="M1343.92 318.227H1322.18C1321.37 318.227 1320.71 318.885 1320.71 319.697V320.347C1320.71 321.158 1321.37 321.817 1322.18 321.817H1343.92C1344.73 321.817 1345.39 321.158 1345.39 320.347V319.697C1345.39 318.885 1344.73 318.227 1343.92 318.227Z" fill="url(#paint18_linear_1600_6008)"/>
<path d="M1338.75 310.102H1322.01C1321.29 310.102 1320.71 310.684 1320.71 311.402V312.392C1320.71 313.11 1321.29 313.692 1322.01 313.692H1338.75C1339.47 313.692 1340.05 313.11 1340.05 312.392V311.402C1340.05 310.684 1339.47 310.102 1338.75 310.102Z" fill="url(#paint19_linear_1600_6008)"/>
<path d="M1320.71 348.388L1335.02 334.088L1339.3 338.368L1354.99 322.668L1361.96 329.628L1380.19 311.398V348.388H1320.71Z" fill="#72ACFB"/>
<path d="M1380.02 348.391V320.031L1361.22 338.831L1354.49 332.101L1343.26 343.321L1334.76 339.941L1320.71 348.391H1380.02Z" fill="#558AD8"/>
<path d="M1337.32 595.306C1337.32 595.306 1332.05 602.716 1332.77 603.886C1333.49 605.056 1339.04 605.226 1342.42 603.886C1345.8 602.546 1345.87 593.886 1347.42 590.136C1348.06 588.576 1346.69 583.966 1344.77 583.636C1343.4 583.493 1342.02 583.714 1340.77 584.276C1340.77 584.276 1342.73 589.536 1337.32 595.306Z" fill="#3A3D5D"/>
<path d="M1340.7 584.221C1340.02 586.229 1339.51 588.294 1339.18 590.391C1338.85 592.891 1335.42 598.191 1335.59 598.861C1335.76 599.531 1340.09 600.141 1341.85 598.411C1343.61 596.681 1344.76 591.651 1345.15 588.641C1345.3 587.226 1345.58 585.828 1345.97 584.461C1345.97 584.461 1342.38 582.381 1340.7 584.221Z" fill="#DBA585"/>
<path d="M1383.21 595.433C1383.21 595.433 1378.13 602.723 1378.85 603.893C1379.57 605.063 1385.12 605.233 1388.5 603.893C1391.88 602.553 1391.95 593.893 1393.5 590.143C1394.14 588.583 1392.77 583.973 1390.85 583.643C1389.42 583.514 1387.98 583.762 1386.67 584.363C1386.67 584.363 1388.62 589.663 1383.21 595.433Z" fill="#3A3D5D"/>
<path d="M1386.65 584.359C1386.43 586.33 1386.1 588.287 1385.65 590.219C1385.01 592.649 1381.55 598.219 1381.72 598.859C1381.89 599.499 1386.21 600.139 1387.98 598.409C1389.75 596.679 1391.12 591.669 1391.28 588.639C1391.4 586.961 1391.26 585.276 1390.88 583.639C1390.88 583.639 1388.34 582.509 1386.65 584.359Z" fill="#DBA585"/>
<path d="M1361.25 463.78C1361.25 463.78 1356.73 485.78 1355.69 491.27C1354.65 496.76 1351.69 523.58 1351.43 528.13C1351.17 532.68 1346.71 549.84 1346.92 551.47C1347.13 553.1 1340.38 585.76 1340.38 585.76C1341.04 586.301 1341.86 586.612 1342.71 586.644C1343.57 586.677 1344.41 586.429 1345.11 585.94C1346.36 585.04 1359.91 555.36 1359.91 547.22C1359.91 535.98 1367.91 521.31 1368.91 518.8C1378.46 495.43 1376.58 488.29 1377.83 486.8C1379.08 485.31 1379.18 487.73 1379.91 491.09C1380.64 494.45 1382.19 523.51 1383.13 527.2C1384.07 530.89 1383.34 543.35 1383.86 549.64C1384.38 555.93 1386.66 584.38 1386.66 584.38C1386.66 584.38 1388.42 587.26 1390.9 584.45C1391.43 583.84 1395.18 552.76 1395.28 545.28C1395.38 537.8 1395.5 527.48 1395.7 524.28C1397.63 493.28 1402.36 488.85 1394.91 466.91C1380.94 425.78 1361.25 463.78 1361.25 463.78Z" fill="#DBA585"/>
<path d="M1391.63 457.642C1391.63 457.642 1404.52 476.462 1398.97 516.502C1398.97 516.502 1368.4 520.842 1352.03 511.502C1352.03 511.502 1358.8 470.222 1361.25 463.802C1363.7 457.382 1391.63 457.642 1391.63 457.642Z" fill="#42466C"/>
<path d="M1347.54 589.492V597.242H1346.58V591.252L1347.54 589.492Z" fill="#3A3D5D"/>
<path d="M1393.62 589.492V597.242H1392.66V591.252L1393.62 589.492Z" fill="#3A3D5D"/>
<path d="M1376.35 374.167C1376.35 374.167 1367.72 382.867 1370.66 394.057C1373.6 405.247 1378.32 405.317 1383.53 400.507C1388.74 395.697 1391.8 390.617 1392.53 384.987C1393.26 379.357 1384.23 366.417 1376.35 374.167Z" fill="#DBA585"/>
<path d="M1374.66 411.512C1375.52 409.488 1376.25 407.41 1376.84 405.292C1377 404.712 1377.15 404.112 1377.27 403.522C1377.77 401.722 1377.82 399.827 1377.42 398.002C1376.04 393.942 1386.05 396.752 1386.05 396.752C1386.05 396.752 1384.11 407.512 1386.05 411.142C1387.99 414.772 1374.66 411.512 1374.66 411.512Z" fill="#DBA585"/>
<path d="M1400.04 416.642C1398.46 413.492 1397.29 412.482 1394.24 411.522C1392.54 410.992 1384.93 409.002 1384.93 409.002L1375.78 408.672C1372 409.316 1368.27 410.228 1364.62 411.402C1359.74 413.092 1353.35 422.332 1353.35 422.332C1353.35 422.332 1362.16 443.042 1363.85 448.982C1365.54 454.922 1364.42 464.122 1364.42 464.122C1374.99 469.872 1391.94 463.552 1391.94 463.552C1390.76 459.015 1390.53 454.282 1391.27 449.652C1391.35 449.192 1391.44 448.762 1391.54 448.352C1391.64 447.942 1391.76 447.462 1391.9 446.862C1391.91 446.835 1391.91 446.808 1391.9 446.782C1398.63 447.472 1404.9 447.782 1405.1 446.402C1405.85 440.332 1402.2 421.002 1400.04 416.642ZM1395.38 440.252C1395.11 440.252 1394.53 440.202 1393.92 440.152C1394.67 438.072 1395.5 436.222 1395.5 436.222C1395.97 437.552 1397.78 440.612 1395.37 440.252H1395.38Z" fill="#E6D8D1"/>
<path d="M1379.17 380.433C1379.17 380.433 1383.3 387.933 1385.86 390.623C1388.42 393.313 1388.12 395.453 1388.12 395.453C1388.12 395.453 1398.12 383.123 1390.99 375.673C1383.86 368.223 1374.66 371.233 1371.99 377.743C1369.32 384.253 1370.29 392.193 1370.29 392.193C1370.29 392.193 1370.35 384.563 1379.17 380.433Z" fill="#CD7250"/>
<path d="M1381.89 372.573C1381.89 372.573 1380.89 367.073 1389.51 364.893C1398.13 362.713 1402 372.633 1400.94 378.693C1399.88 384.753 1392.51 400.103 1396.5 402.103C1400.49 404.103 1402.06 399.793 1402.06 399.793C1402.06 399.793 1400.81 407.353 1395.25 405.603C1389.69 403.853 1390.45 391.603 1391.25 386.683C1392.05 381.763 1381.89 372.573 1381.89 372.573Z" fill="#CD7250"/>
<path d="M1384.67 399.422C1383.94 400.959 1382.84 402.296 1381.48 403.319C1380.11 404.341 1378.52 405.018 1376.84 405.292C1377 404.712 1377.15 404.112 1377.27 403.522C1377.27 403.522 1380.35 404.142 1384.67 399.422Z" fill="#997761"/>
<path d="M1395.37 436.292C1395.37 436.292 1394.96 437.162 1393.83 440.582C1392.68 430.982 1393.28 425.992 1393.28 425.992C1393.47 429.509 1394.18 432.979 1395.37 436.292Z" fill="#C8BCB6"/>
<path d="M1383.23 371.419C1383.23 371.419 1389.35 372.589 1392.4 377.569C1392.4 377.569 1391.78 373.059 1388.74 371.759C1387.01 370.978 1385.05 370.857 1383.23 371.419Z" fill="#E6D8D1"/>
<path d="M1391.89 446.857C1391.75 447.457 1391.62 447.987 1391.53 448.347C1391.44 448.707 1391.34 449.187 1391.26 449.647C1387.48 447.587 1384.76 445.977 1384.76 445.977C1385.78 446.197 1391.89 446.857 1391.89 446.857Z" fill="#C8BCB6"/>
<path d="M1385.43 409.144L1374.66 417.914L1375.77 408.674C1375.77 408.674 1382.04 407.314 1385.43 409.144Z" fill="#DBA585"/>
<path d="M1377.78 416.42L1374.67 417.91L1385.24 407.43L1377.78 416.42Z" fill="#CFC3BC"/>
<path d="M1392.53 446.099C1391.05 452.239 1396.53 466.099 1396.53 466.099L1385.67 469.499C1385.3 469.613 1384.91 469.649 1384.52 469.605C1384.14 469.56 1383.77 469.436 1383.43 469.241C1383.1 469.045 1382.81 468.782 1382.58 468.469C1382.35 468.155 1382.19 467.798 1382.11 467.419C1380.66 460.659 1377.25 444.019 1376.84 434.769C1376.32 422.969 1384.92 409.039 1384.92 409.039C1400.19 411.659 1396 434.769 1396 434.769C1396 434.769 1395.45 436.229 1394.71 438.499C1394.52 439.069 1394.32 439.689 1394.12 440.349C1393.6 441.999 1393.04 443.999 1392.53 446.099Z" fill="#4C507D"/>
<path d="M1374.69 409.172L1374.88 408.672C1374.88 408.672 1367.06 409.862 1363.08 411.842C1359.1 413.822 1351.49 424.092 1351.49 424.092L1361.49 437.232C1361.49 447.332 1359.86 465.292 1359.86 465.292L1364.41 467.912C1364.69 468.073 1365.01 468.159 1365.33 468.161C1365.65 468.163 1365.97 468.081 1366.25 467.922C1366.53 467.764 1366.77 467.535 1366.94 467.258C1367.1 466.981 1367.19 466.665 1367.2 466.342C1367.32 459.512 1367.63 443.342 1367.79 435.442C1368 425.342 1375.21 409.002 1375.21 409.002L1374.69 409.172Z" fill="#4C507D"/>
<path d="M1360.51 456.531C1360.51 456.531 1368.01 456.821 1369.18 456.531C1370.35 456.241 1378.18 452.861 1378.6 449.531C1379.02 446.201 1360.51 452.531 1360.51 452.531V456.531Z" fill="#DBA585"/>
<path d="M1383.8 446.109L1353.34 442.539L1367.1 453.739L1383.8 446.109Z" fill="#6D76BA"/>
<path d="M1367.1 453.739L1383.8 448.039V446.109L1366.54 451.639L1367.1 453.739Z" fill="#363957"/>
<path d="M1374.95 440.509C1373.63 440.512 1372.32 440.416 1371.02 440.219C1369.93 439.999 1367.21 440.309 1366.52 440.919C1365.83 441.529 1363.63 445.799 1363.21 446.059C1362.79 446.319 1363.43 446.929 1364.16 446.619C1364.16 446.619 1364.83 448.489 1366.48 447.789C1368.13 447.089 1369.26 445.569 1370.13 445.299C1371 445.029 1376.04 443.669 1376.04 443.669C1376.04 443.669 1376.25 440.059 1374.95 440.509Z" fill="#DBA585"/>
<path d="M1376.35 406.961L1370.55 416.141L1367.75 417.911L1374.28 408.761L1376.35 406.961Z" fill="#F3E4DC"/>
<path d="M1370.55 416.141L1374.67 417.911L1375.78 408.671L1376.35 406.961L1370.55 416.141Z" fill="#CFC3BC"/>
<path d="M1361.42 452.232C1361.42 452.232 1361.11 456.112 1361.42 456.922C1361.42 456.922 1342.64 455.052 1340.89 452.422C1339.81 450.67 1339.23 448.659 1339.2 446.602L1361.42 452.232Z" fill="#4C507D"/>
<path d="M1367.1 453.741L1358.22 420.711L1324.44 417.141L1333.7 447.541L1367.1 453.741Z" fill="#2A2B41"/>
<path d="M1385.24 407.43L1377.78 416.42L1381.86 420.06L1386.26 409.3L1385.24 407.43Z" fill="#F3E4DC"/>
<path d="M1394.96 437.704L1394.71 438.474C1394.52 439.044 1394.32 439.664 1394.12 440.324C1392.68 440.784 1380.2 439.864 1380.2 439.864C1380.2 439.864 1390.64 437.414 1394.96 437.704Z" fill="#414469"/>
<path d="M1394.24 440.077C1392.24 439.927 1388.93 439.707 1386.24 439.697C1382.05 439.697 1374.88 440.147 1374.88 440.147L1375.73 444.627C1375.73 444.627 1388.43 446.687 1395.37 447.177C1395.37 447.177 1404.52 448.227 1405.2 446.857C1405.88 445.487 1404.98 436.727 1403.49 428.857C1402 420.987 1400.49 416.407 1398.65 413.967C1396.81 411.527 1387.21 409.617 1387.21 409.617L1395.37 436.317C1395.92 437.385 1396.3 438.537 1396.48 439.727C1396.48 440.047 1396.25 440.187 1395.95 440.247L1394.68 440.137L1394.24 440.077Z" fill="#4C507D"/>
<path d="M364.14 353.619L14.5 151.749C12.6248 150.669 10.4986 150.101 8.33447 150.102C6.17039 150.103 4.04461 150.673 2.17042 151.755C0.296225 152.837 -1.26048 154.392 -2.34351 156.266C-3.42653 158.14 -3.9978 160.265 -4 162.429V566.159C-4.00084 568.324 -3.43147 570.452 -2.34917 572.327C-1.26687 574.202 0.290208 575.76 2.16542 576.842C4.04064 577.925 6.16787 578.494 8.33313 578.494C10.4984 578.493 12.6253 577.923 14.5 576.839L364.14 374.999C366.02 373.918 367.582 372.361 368.668 370.484C369.754 368.608 370.326 366.477 370.326 364.309C370.326 362.141 369.754 360.011 368.668 358.134C367.582 356.257 366.02 354.7 364.14 353.619Z" fill="white"/>
<path d="M28.6601 310.21C30.1068 313.681 32.0322 316.933 34.3801 319.87L30.9801 327L37.8501 332.15L44.7201 337.31L50.6201 332.04C54.0938 333.478 57.7533 334.417 61.4901 334.83L64.1201 342.28L72.6201 341.06L81.1201 339.85L81.5701 331.97C85.0361 330.519 88.2838 328.594 91.2201 326.25L98.3601 329.65L103.51 322.78L108.66 315.91L103.4 310.01C104.838 306.536 105.777 302.877 106.19 299.14L113.64 296.51L112.42 288.01L111.21 279.51L103.32 279.06C101.875 275.588 99.9494 272.336 97.6001 269.4L101 262.27L94.1401 257.12L87.2701 252L81.3701 257.26C77.8959 255.824 74.2365 254.885 70.5001 254.47L67.8601 247L59.3601 248.22L50.8601 249.43L50.4201 257.32C46.9495 258.751 43.6976 260.663 40.7601 263L33.6301 259.59L28.4801 266.46L23.3201 273.33L28.5901 279.23C27.1523 282.704 26.213 286.363 25.8001 290.1L18.3501 292.73L19.5601 301.24L20.7801 309.74L28.6601 310.21ZM61.7401 264.85C67.6334 264.006 73.6445 264.93 79.0128 267.504C84.381 270.078 88.8651 274.186 91.8975 279.31C94.93 284.433 96.3746 290.34 96.0484 296.285C95.7223 302.229 93.6401 307.943 90.0654 312.704C86.4907 317.465 81.5841 321.058 75.9665 323.029C70.3489 325 64.2729 325.261 58.5072 323.778C52.7415 322.294 47.5454 319.134 43.5764 314.697C39.6073 310.26 37.0438 304.745 36.2101 298.85C35.0938 290.957 37.1552 282.943 41.9418 276.569C46.7284 270.194 53.8489 265.98 61.7401 264.85Z" fill="url(#paint20_linear_1600_6008)"/>
<path d="M28.6802 222.283C29.3397 223.873 30.2219 225.361 31.3002 226.702L29.7402 230.003L32.8902 232.363L36.0402 234.702L38.7402 232.292C40.3393 232.949 42.0222 233.38 43.7402 233.573L44.9302 237.003L48.8302 236.443L52.7302 235.893L52.9302 232.273C54.5214 231.609 56.0124 230.727 57.3602 229.652L60.6302 231.213L63.0402 228.003L65.4002 224.853L62.9902 222.152C63.646 220.553 64.0768 218.87 64.2702 217.152L67.6802 215.952L67.0402 212.103L66.4902 208.202L62.8702 208.003C62.2092 206.41 61.3272 204.919 60.2502 203.573L61.8102 200.303L58.6602 197.943L55.5102 195.583L52.8402 198.003C51.2422 197.342 49.5588 196.911 47.8402 196.723L46.6302 193.312L42.7302 193.863L38.8302 194.423L38.6302 198.033C37.0366 198.695 35.5451 199.581 34.2002 200.663L30.9302 199.103L28.5702 202.253L26.2102 205.393L28.6202 208.103C27.9588 209.7 27.5278 211.384 27.3402 213.103L23.9302 214.312L24.4802 218.213L25.0402 222.103L28.6802 222.283ZM43.8402 201.482C46.5397 201.099 49.2924 201.524 51.7504 202.704C54.2083 203.885 56.2611 205.767 57.6494 208.114C59.0377 210.461 59.699 213.167 59.5499 215.889C59.4008 218.612 58.448 221.229 56.8117 223.41C55.1755 225.592 52.9294 227.239 50.3572 228.144C47.7851 229.049 45.0024 229.171 42.3609 228.495C39.7194 227.818 37.3376 226.374 35.5166 224.345C33.6956 222.315 32.5172 219.792 32.1302 217.092C31.6134 213.47 32.5568 209.79 34.7527 206.863C36.9487 203.935 40.2175 202 43.8402 201.482Z" fill="url(#paint21_linear_1600_6008)"/>
<path d="M291.96 327.068C291.96 327.068 312.96 320.228 314.7 320.998C316.44 321.768 316.64 322.998 314.7 323.688C312.76 324.378 294.53 330.898 294.53 330.898C294.53 330.898 320.53 327.158 322.06 327.448C322.97 327.628 323.55 329.918 322.53 330.448C321.51 330.978 295.9 336.188 295.9 336.188C295.9 336.188 320.17 332.738 321.37 333.398C321.648 333.608 321.859 333.893 321.98 334.22C322.1 334.546 322.125 334.9 322.05 335.24C321.975 335.58 321.804 335.892 321.558 336.138C321.312 336.384 321 336.554 320.66 336.628C318.87 337.018 296.46 341.558 296.46 341.558C296.46 341.558 314.22 340.208 314.9 341.408C315.31 342.148 315.9 344.098 311.31 344.298C306.72 344.498 295.9 346.158 295.9 346.158L291.96 327.068Z" fill="#EEA886"/>
<path d="M268.79 338.849C268.79 338.849 275.59 336.139 276.08 331.849C276.5 328.189 279.53 323.669 280.46 322.269C281.7 320.399 283.56 313.269 285.74 314.789C287.92 316.309 283.21 326.679 282.62 329.039C282.03 331.399 291.33 326.369 293.62 326.819C295.91 327.269 302.27 343.569 295.55 346.259C288.83 348.949 280.17 347.259 279.07 347.959C277.505 348.775 275.892 349.496 274.24 350.119L268.79 338.849Z" fill="#EEA886"/>
<path d="M186.75 460.941C186.9 462.941 187.06 464.781 187.22 466.461H89.83C89.83 464.821 89.91 462.951 89.94 460.941C90.27 444.701 90.75 418.091 90.54 408.031C90.27 393.681 87.25 356.391 86.65 354.241C86.65 354.241 65.28 323.191 42.87 384.481C38.25 397.101 80.67 428.751 75.39 429.721C70.11 430.691 70.39 440.721 70.39 440.721C70.39 440.721 30.44 405.921 31.26 395.671C31.71 389.981 62.99 307.251 67.77 303.831C71.04 301.461 91.44 293.261 102.04 289.241C105.105 287.961 108.252 286.885 111.46 286.021C113.88 285.871 143.8 288.741 143.8 288.741C143.8 288.741 148.09 290.201 152.48 292.221C159.98 295.651 171.65 301.001 180.04 305.001C182.75 306.291 186.13 308.001 188.94 309.511C188.6 319.678 188 330.588 187.14 342.241C187.14 342.241 185.58 367.701 185.44 393.421C184.09 399.241 184.33 412.771 184.33 412.771C183.95 425.601 185.38 438.771 185.76 446.121C185.96 450.741 186.35 456.131 186.75 460.941Z" fill="#DBD8E3"/>
<path d="M190.95 460.94C189.55 451.84 188.21 442.36 187.11 433.29V433.22C186.93 431.75 186.76 430.28 186.58 428.83C186.585 428.757 186.585 428.684 186.58 428.61C185.88 422.47 185.3 416.61 184.88 411.22C184.611 407.183 184.792 403.128 185.42 399.13C187.08 371.64 187.91 342.64 187.91 342.64C188.79 330.76 189.3 319.64 189.64 309.33C189.64 309.33 152.07 291.59 148.64 290.57C148.64 290.57 155.76 307.3 161.1 344.7C163.16 359.07 166.97 383.25 169.74 407.93C170.83 417.66 172.62 427.52 174.33 436.8C175.95 445.55 177.49 453.8 178.33 460.94C178.39 461.37 178.44 461.81 178.49 462.24C178.61 463.47 178.77 464.89 178.94 466.46H191.83C191.53 464.64 191.23 462.79 190.95 460.94Z" fill="#323657"/>
<path d="M124.77 417.202C123.06 433.782 121.19 447.202 119.68 460.942C119.48 462.769 119.283 464.609 119.09 466.462H79.5799C80.0899 464.632 80.5799 462.792 81.0799 460.942C85.3199 444.942 88.6999 428.632 88.6999 418.732C88.6999 418.732 80.4799 359.592 77.6999 350.072C77.6999 350.072 52.8199 368.462 47.0099 381.202C41.8099 392.582 79.9199 427.362 79.4799 428.542C76.9199 435.392 67.0399 447.912 67.0399 447.912C67.0399 447.912 8.0399 384.532 8.7699 376.722C9.3299 371.042 58.7699 307.872 63.5699 304.452C66.3399 302.452 86.7699 295.232 96.7999 291.272C98.6399 290.542 104.61 288.272 106.25 287.672C108.37 290.042 123.32 306.122 128.5 367.252C129.38 377.562 126.62 399.382 124.77 417.202Z" fill="#323657"/>
<path d="M114.23 289.198C114.23 289.198 114.04 278.928 110.04 258.148C108.98 252.588 142.34 272.788 142.34 272.788C142.34 272.788 142.23 274.738 142.17 277.368C142.17 278.758 142.11 280.368 142.12 281.918C142.12 282.468 142.12 283.028 142.12 283.578C142.12 285.048 142.22 286.458 142.34 287.648C142.568 289.018 142.944 290.359 143.46 291.648C144.87 294.828 125.46 297.238 114.23 289.198Z" fill="#EEA987"/>
<path d="M135.04 300L140.57 307.42C140.57 307.42 137.33 311.76 131.57 308.56L135.04 300Z" fill="#D44040"/>
<path d="M139.09 307.703C139.09 307.703 160.09 388.433 155.74 451.273L148.74 463.703L142.13 450.703C142.13 450.703 140.32 338.293 134.57 307.523L139.09 307.703Z" fill="#D44040"/>
<path d="M140.96 293.002L135.04 300.002C135.04 300.002 125.54 298.152 122.75 293.192C119.96 288.232 140.96 293.002 140.96 293.002Z" fill="#EEA987"/>
<path d="M142.32 287C142.32 287 141.63 292.28 135.04 300L142.24 309.66L146.13 289.61L142.32 287Z" fill="#C4C1CC"/>
<path d="M113.68 282C113.68 282 125.44 296.17 135.04 300L130.58 311L108.22 287L113.68 282Z" fill="#C4C1CC"/>
<path d="M286.46 350.382C286.46 350.382 235.78 405.432 223.82 402.492C218.29 401.132 209.92 391.592 203 382.622C200.72 379.622 198.48 376.562 196.35 373.492C187.86 361.232 181.2 349.492 181.2 349.492C181.2 349.492 156.11 320.082 176.25 306.972C176.25 306.972 184.73 306.122 189.56 309.682C194.02 312.972 204.86 333.682 206.62 337.512C208.38 341.342 222.08 368.402 223.35 369.202C224.62 370.002 238.08 361.932 245.27 357.092C256.88 349.272 271.48 335.642 271.48 335.642L286.46 350.382Z" fill="#323657"/>
<path d="M159.92 221.647C159.92 221.647 167.25 235.237 163.62 237.347C160.62 239.097 167.13 252.427 167.98 254.607C168.83 256.787 162.55 258.367 161.21 259.767C159.87 261.167 155.92 278.417 150.74 278.937C145.56 279.457 122.23 271.347 115.87 264.737C109.51 258.127 104.3 228.287 108.54 215.737C112.78 203.187 147.04 197.917 159.92 221.647Z" fill="#EEA886"/>
<path d="M161.38 224.601C161.38 224.601 168.86 209.931 155.28 199.041C141.7 188.151 116.64 207.261 113.81 208.041C110.98 208.821 94.9698 209.821 103.04 238.001C110.04 262.151 110.96 263.171 110.96 263.171C110.96 263.171 116.14 249.171 119.08 247.041C123.66 243.711 133.72 244.511 133.72 244.511C133.72 244.511 128.93 231.791 136.42 229.981C143.91 228.171 153.8 221.781 161.38 224.601Z" fill="#D88A51"/>
<path d="M125.76 237.173C125.1 235.433 122.97 227.933 116.53 232.333C110.09 236.733 120.53 250.883 121.66 251.063C122.79 251.243 131.32 251.863 125.76 237.173Z" fill="#EEA886"/>
<path d="M142.14 281.918C142.14 282.468 142.14 283.028 142.14 283.578C123.06 277.178 119.37 267.578 119.37 267.578C125.37 271.788 142.17 277.408 142.17 277.408C142.15 278.758 142.13 280.328 142.14 281.918Z" fill="#A77860"/>
<path d="M72.6203 428.33C73.6803 429.195 74.9772 429.718 76.3403 429.83C79.6403 429.83 83.4003 426.21 86.8603 429.47C90.3203 432.73 83.0403 446.6 80.4203 448.23C77.8003 449.86 71.8503 446.93 65.4903 439.23C59.1303 431.53 72.6203 428.33 72.6203 428.33Z" fill="#EEA886"/>
<path d="M85.5296 428.539C90.234 430.211 94.8441 432.137 99.3396 434.309C105.58 437.359 112.91 442.009 112.16 443.599C111.03 445.999 105.46 441.489 99.0596 438.889C93.1696 436.499 93.9296 437.969 93.9296 437.969C93.9296 437.969 93.7396 437.539 99.6396 441.409C105.99 445.569 112.64 450.309 112.06 451.619C111.33 453.239 111.06 453.379 108.55 452.249C109.87 453.249 109.8 453.719 109.44 454.319C107.62 457.419 97.3296 452.769 93.2396 450.929C96.3696 452.359 98.5196 453.759 96.1696 454.929C93.4996 456.279 79.2496 449.039 73.8896 446.929C68.0396 444.659 85.5296 428.539 85.5296 428.539Z" fill="#EEA886"/>
<path d="M79.5099 428.541C79.5099 428.541 78.0399 437.001 67.0399 447.911C67.0399 447.911 41.6899 419.911 37.1699 414.721L56.9999 403.211L79.5099 428.541Z" fill="#323657"/>
<path d="M371.17 460.938H22.4502V466.457H371.17V460.938Z" fill="url(#paint22_linear_1600_6008)"/>
<path d="M296.09 493.711H334.05V491.461H296.09V493.711Z" fill="#E2D2CA"/>
<path d="M328.97 499.57H325.64V602.05H328.97V499.57Z" fill="#706865"/>
<path d="M275.65 494.039H302.04V490.819H275.65V494.039Z" fill="#CCBDB7"/>
<path d="M283.85 493.703H293.84V463.353H283.85V493.703Z" fill="#4667A8"/>
<path d="M201.48 499.57H347.67V493.74H201.48V499.57Z" fill="#B59074"/>
<path d="M375.72 458.481C375.72 458.481 377.32 480.901 372.94 483.581C370.2 485.261 359.25 490.931 359.58 492.001C359.91 493.071 365.76 501.461 365.76 501.461C365.76 501.461 386.76 487.621 387.45 483.251C388.14 478.881 386.45 450.421 383.53 449.111C381.37 448.111 380.22 448.941 377.53 450.961C373.67 453.801 375.72 458.481 375.72 458.481Z" fill="#4E94F7"/>
<path d="M337.41 464.881L335.56 464.191C335.56 464.191 337.87 458.771 338.88 458.901C339.759 459.032 340.63 459.213 341.49 459.441L337.41 464.881Z" fill="#EAD8CF"/>
<path d="M337.04 465.809C337.28 465.639 340.98 458.539 340.98 458.539L348.89 459.609L344.56 467.999L337.04 465.809Z" fill="#DA9B5B"/>
<path d="M349.86 588.05C349.86 588.05 350.51 592.59 350.6 593.27C350.69 593.95 357.87 592.87 357.87 592.87L358.45 587.47C358.45 587.47 350.76 587.42 349.86 588.05Z" fill="#424773"/>
<path d="M350.52 592.701C349.236 594.229 347.725 595.551 346.04 596.621C343.84 597.811 340.37 598.291 339.04 599.521C338.1 600.411 335.62 604.241 344.77 604.171C353.92 604.101 358.33 604.711 359.31 603.241C360.29 601.771 357.89 592.391 357.89 592.391C357.89 592.391 355.75 593.171 350.52 592.701Z" fill="#292C47"/>
<path d="M303.8 588.099C303.8 588.099 304.45 592.639 304.53 593.319C304.61 593.999 311.81 592.909 311.81 592.909L312.39 587.509C312.39 587.509 304.7 587.459 303.8 588.099Z" fill="#424773"/>
<path d="M304.46 592.74C303.175 594.27 301.665 595.595 299.98 596.67C297.77 597.86 289.67 598.84 288.36 600.07C287.42 600.96 285.86 604.54 298.73 604.21C307.88 603.97 312.3 604.75 313.28 603.28C314.26 601.81 311.86 592.43 311.86 592.43C311.86 592.43 309.82 593.27 304.46 592.74Z" fill="#292C47"/>
<path d="M373.04 509.68C373.04 509.68 346.9 514.11 341.04 515.03C335.18 515.95 303.12 523.93 299.12 526.35C295.93 528.29 300.79 574.69 301.93 592.35H314.54L315.45 539.25C330.58 539.62 341.38 535.71 352.39 537.38C363.4 539.05 372.6 541.43 379.6 532.04C379.57 532.08 379.83 511.74 373.04 509.68Z" fill="#292C47"/>
<path d="M347.29 592.434L359.57 591.674L360.77 539.294C365.455 539.436 370.142 539.138 374.77 538.404L384.69 515.344C375.99 517.084 348.14 524.104 344.42 526.344C341.26 528.294 346.15 574.734 347.29 592.434Z" fill="#292C47"/>
<path d="M361.04 411.709C361.04 411.709 351.46 409.059 347.8 416.499C344.14 423.939 345.8 438.039 350.63 439.359C355.46 440.679 362.4 439.159 364.41 434.529C366.42 429.899 368.01 423.329 367.53 419.069C367.05 414.809 363.56 412.729 361.04 411.709Z" fill="#EEA886"/>
<path d="M353.11 437.88C353.11 437.88 353.22 443.54 352.6 444.74C351.98 445.94 365.94 445.65 365.94 445.65C365.94 445.65 363.74 438.85 364.99 433.07C366.24 427.29 353.11 437.88 353.11 437.88Z" fill="#EEA886"/>
<path d="M365.74 430.918C365.74 430.918 364.99 432.438 361.38 432.198C357.77 431.958 352.99 427.588 351.46 427.198C349.93 426.808 349.83 425.938 349.83 425.938L349.02 427.378L347.45 427.618C347.45 427.618 348.52 423.248 346.19 421.708C343.86 420.168 347.24 407.778 359.03 410.768C359.03 410.768 368.03 412.408 368.14 417.438C368.25 422.468 367.49 428.258 365.74 430.918Z" fill="#3A3F47"/>
<path d="M351.86 444.602C351.86 444.602 351.86 442.292 352.95 442.072C354.04 441.852 363.95 440.492 365.21 440.992L365.76 443.992C365.76 443.992 363.29 445.552 351.86 444.602Z" fill="#E2D2CA"/>
<path d="M349.04 424.912C349.31 423.022 351.45 420.852 352.68 423.792C353.91 426.732 351.85 431.022 350.47 430.792C349.09 430.562 348.62 427.472 349.04 424.912Z" fill="#EEA886"/>
<path d="M310.25 471.82C310.19 471.85 310.2 471.85 310.25 471.82V471.82Z" fill="#323657"/>
<path d="M363.81 413.056C363.81 413.056 375.5 412.506 365.81 430.736L363.81 413.056Z" fill="#3A3F47"/>
<path d="M389.85 598.648L388.98 601.088L352.26 589.708L354.01 584.758L389.85 598.648Z" fill="#918783"/>
<path d="M351 587.969H355.17V548.049H351V587.969Z" fill="#918783"/>
<path d="M340.77 548.281H365.39V545.931H340.77V548.281Z" fill="#5E5854"/>
<path d="M316 598.653L316.87 601.093L353.59 589.713L351.97 584.453L316 598.653Z" fill="#918783"/>
<path d="M341.87 600.833V603.673L353.59 589.713L351.97 584.453L341.87 600.833Z" fill="#918783"/>
<path d="M312.56 602.047C312.558 602.728 312.758 603.395 313.135 603.962C313.512 604.529 314.05 604.972 314.679 605.233C315.308 605.495 316 605.564 316.668 605.432C317.336 605.299 317.95 604.971 318.432 604.49C318.914 604.008 319.242 603.394 319.374 602.726C319.506 602.058 319.437 601.365 319.176 600.736C318.914 600.107 318.472 599.57 317.905 599.193C317.337 598.816 316.671 598.615 315.99 598.617C315.081 598.62 314.21 598.982 313.567 599.625C312.924 600.267 312.562 601.138 312.56 602.047Z" fill="#BFB2AC"/>
<path d="M341.58 602.047C341.58 602.726 341.781 603.389 342.158 603.953C342.535 604.517 343.071 604.957 343.697 605.216C344.324 605.476 345.014 605.544 345.679 605.411C346.345 605.279 346.956 604.952 347.435 604.473C347.915 603.993 348.242 603.382 348.374 602.716C348.507 602.051 348.439 601.361 348.179 600.735C347.919 600.108 347.48 599.572 346.916 599.195C346.352 598.818 345.688 598.617 345.01 598.617C344.1 598.617 343.228 598.979 342.585 599.622C341.941 600.265 341.58 601.137 341.58 602.047Z" fill="#BFB2AC"/>
<path d="M386.41 602.047C386.408 602.728 386.609 603.395 386.986 603.962C387.363 604.529 387.9 604.972 388.529 605.233C389.158 605.495 389.851 605.564 390.519 605.432C391.187 605.299 391.801 604.971 392.283 604.49C392.764 604.008 393.092 603.394 393.225 602.726C393.357 602.058 393.288 601.365 393.026 600.736C392.765 600.107 392.322 599.57 391.755 599.193C391.188 598.816 390.521 598.615 389.84 598.617C388.931 598.62 388.06 598.982 387.418 599.625C386.775 600.267 386.413 601.138 386.41 602.047Z" fill="#BFB2AC"/>
<path d="M328.16 545.922H377.68C380.11 545.922 382.08 543.952 382.08 541.522V541.412C382.08 538.982 380.11 537.012 377.68 537.012H328.16C325.73 537.012 323.76 538.982 323.76 541.412V541.522C323.76 543.952 325.73 545.922 328.16 545.922Z" fill="#E2D2CA"/>
<path d="M220.17 602.047H223.5V499.567H220.17V602.047Z" fill="#706865"/>
<path d="M250.09 477.977H327.59C330.015 477.977 331.98 476.011 331.98 473.587V421.507C331.98 419.082 330.015 417.117 327.59 417.117H250.09C247.666 417.117 245.7 419.082 245.7 421.507V473.587C245.7 476.011 247.666 477.977 250.09 477.977Z" fill="#5F8BE3"/>
<path d="M249.08 468.438H328.6V420.397H249.08V468.438Z" fill="#F5F7FF"/>
<path d="M249.08 424.227H328.6V420.407H249.08V424.227Z" fill="#CECFD6"/>
<path d="M310.33 430.656H324.88C325.691 430.656 326.35 429.998 326.35 429.186V428.566C326.35 427.754 325.691 427.096 324.88 427.096H310.33C309.518 427.096 308.86 427.754 308.86 428.566V429.186C308.86 429.998 309.518 430.656 310.33 430.656Z" fill="#CECFD6"/>
<path d="M311.89 466.461H323.32C324.993 466.461 326.35 465.104 326.35 463.431V436.071C326.35 434.398 324.993 433.041 323.32 433.041H311.89C310.216 433.041 308.86 434.398 308.86 436.071V463.431C308.86 465.104 310.216 466.461 311.89 466.461Z" fill="#CECFD6"/>
<path d="M270.98 493.82V492.74C270.98 492.74 272.5 486 283.27 486C294.04 486 293.82 493.82 293.82 493.82H270.98Z" fill="#2E436E"/>
<path d="M293.95 486.997C292.854 486.931 291.774 486.695 290.75 486.297C289.9 485.787 284.75 482.297 283.56 482.887C282.37 483.477 274.34 485.887 274.62 487.067C274.9 488.247 275.62 488.127 276.21 487.917C276.8 487.707 282.59 486.487 283.11 486.697C283.11 486.697 277.39 488.777 277.37 490.307C277.35 491.837 278.56 492.197 279.1 492.767C279.64 493.337 280.3 494.767 281.77 494.887C283.24 495.007 290.44 492.497 291.92 492.377C293.4 492.257 296.14 492.467 296.32 492.227C296.5 491.987 293.95 486.997 293.95 486.997Z" fill="#EEA886"/>
<path d="M336.55 447.791C344.01 446.481 351.86 444.601 351.86 444.601L365.76 444.031C365.76 444.031 378.51 446.841 383.53 449.111C384.01 449.321 384.01 460.481 385.32 463.411L381.15 472.191C381.15 472.191 378.75 489.591 378.25 497.331C378.02 500.881 378.9 531.661 378.9 531.661C378.9 531.661 377.65 532.281 368.17 533.331C358.69 534.381 335.04 533.001 334.84 531.831C334.64 530.661 339.43 490.121 339.64 488.021C339.96 484.801 338.71 469.891 338.71 469.891C336.92 472.291 332.37 483.131 327.62 488.291C324.82 491.291 311 493.181 308.39 493.291C302.72 493.471 292.39 494.601 292.06 494.051C291.82 493.721 291.16 484.871 291.81 484.651C292.46 484.431 311.6 483.351 316.52 480.741C318.32 479.741 323.71 468.041 323.71 468.041C323.71 468.041 332.43 449.641 336.55 447.791Z" fill="#4E94F7"/>
<path d="M363.94 530.781H387.26C391.927 530.781 395.71 526.998 395.71 522.331V483.531C395.71 478.864 391.927 475.081 387.26 475.081H363.94C359.273 475.081 355.49 478.864 355.49 483.531V522.331C355.49 526.998 359.273 530.781 363.94 530.781Z" fill="#E2D2CA"/>
<path d="M362.61 543.714C368.54 543.714 373.35 541.714 376.91 537.794C384.91 528.914 383.5 513.314 383.44 512.654C383.382 512.062 383.091 511.518 382.631 511.141C382.172 510.764 381.581 510.585 380.99 510.644C380.398 510.702 379.854 510.993 379.477 511.452C379.101 511.912 378.922 512.502 378.98 513.094C378.98 513.274 380.28 527.414 373.58 534.804C370.87 537.804 367.28 539.234 362.58 539.234C361.986 539.234 361.416 539.47 360.996 539.89C360.576 540.31 360.34 540.88 360.34 541.474C360.34 542.068 360.576 542.637 360.996 543.058C361.416 543.478 361.986 543.714 362.58 543.714H362.61Z" fill="#E2D2CA"/>
<path d="M305.14 444.419C305.144 448.257 303.791 451.972 301.32 454.909C300.76 455.569 300.151 456.188 299.5 456.759L298.93 457.229L298.25 457.729C296.058 459.289 293.511 460.276 290.84 460.599C290.36 460.659 289.87 460.699 289.37 460.719H288.84C288.31 460.719 287.79 460.719 287.27 460.649C286.75 460.579 286.13 460.509 285.58 460.399C282.425 459.763 279.532 458.199 277.27 455.909L276.97 455.599C276.61 455.209 276.26 454.809 275.97 454.389C274.386 452.338 273.314 449.94 272.843 447.392C272.371 444.844 272.514 442.221 273.258 439.739C274.003 437.258 275.329 434.989 277.126 433.122C278.922 431.255 281.138 429.844 283.589 429.004C286.04 428.165 288.657 427.922 291.22 428.295C293.784 428.669 296.222 429.648 298.332 431.152C300.442 432.656 302.163 434.642 303.352 436.944C304.541 439.246 305.165 441.798 305.17 444.389L305.14 444.419Z" fill="#EEF0F7"/>
<path d="M299.46 453.423L298.25 457.733C296.058 459.293 293.511 460.28 290.84 460.603C290.36 460.663 289.87 460.703 289.37 460.723H288.84C288.31 460.723 287.79 460.723 287.27 460.653C286.75 460.583 286.13 460.513 285.58 460.403C283.157 459.923 280.876 458.897 278.91 457.403C278.68 455.973 278.44 454.403 278.22 452.913C279.42 452.473 283.22 451.173 285.64 450.363H285.74H285.89L286.3 450.223L286.68 450.103L287.68 449.773L290.92 450.013H291.46H291.63H291.7C291.9 450.063 292.46 450.213 293.21 450.443C295.17 451.003 298.28 452.073 299.46 453.423Z" fill="#D9C7C1"/>
<path d="M289.69 436.333C289.69 436.333 293.57 436.983 292.91 443.063C292.25 449.143 288.82 448.603 288.59 448.593C288.36 448.583 285.15 448.663 284.98 441.233C284.98 441.233 284.93 435.743 289.69 436.333Z" fill="#EEA987"/>
<path d="M291.39 446.831C291.313 447.832 291.347 448.838 291.49 449.831C291.72 450.381 288.37 452.101 286.29 450.141C286.492 448.918 286.589 447.681 286.58 446.441C286.45 445.511 291.39 446.831 291.39 446.831Z" fill="#EEA987"/>
<path d="M293.04 441.341C293.04 441.341 293.47 440.891 293.62 441.341C293.77 441.791 292.93 443.851 292.98 443.941C293.03 444.031 292.9 444.121 292.8 444.021C292.826 443.123 292.906 442.228 293.04 441.341Z" fill="#EEA987"/>
<path d="M285.04 441.178C285.04 441.178 284.63 440.708 284.46 441.178C284.482 442.078 284.662 442.968 284.99 443.808C284.99 443.808 285.12 444.018 285.23 443.928C285.221 443.008 285.157 442.09 285.04 441.178Z" fill="#EEA987"/>
<path d="M293.24 440.821C293.1 441.651 292.98 442.271 292.98 442.271L292.41 443.011C292.43 442.38 292.414 441.749 292.36 441.121C292.36 441.031 292.29 440.851 292.25 440.671C292.203 440.411 292.143 440.154 292.07 439.901C290.05 439.152 287.817 439.224 285.85 440.101C285.85 440.101 285.85 440.351 285.85 440.631C285.85 440.911 285.85 441.321 285.66 441.371C285.47 441.421 285.5 443.281 285.5 443.281L285.05 442.761C285.05 442.761 284.92 441.821 284.79 440.761L284.7 439.991C284.604 439.219 284.687 438.435 284.941 437.7C285.196 436.964 285.617 436.298 286.17 435.751C287.78 435.135 289.56 435.135 291.17 435.751C291.431 435.756 291.688 435.821 291.92 435.941C293.57 437.681 293.24 440.821 293.24 440.821Z" fill="#E8734D"/>
<path d="M286.85 447.781C287.102 448.07 287.42 448.295 287.776 448.438C288.132 448.58 288.517 448.636 288.9 448.601C289.279 448.617 289.659 448.557 290.014 448.423C290.37 448.289 290.695 448.084 290.97 447.821C290.812 448.241 290.531 448.602 290.163 448.857C289.795 449.112 289.357 449.249 288.91 449.249C288.462 449.249 288.025 449.112 287.656 448.857C287.288 448.602 287.007 448.241 286.85 447.821V447.781Z" fill="#C78D71"/>
<path d="M285.89 450.231C286.211 450.765 286.647 451.221 287.166 451.567C287.685 451.912 288.273 452.139 288.89 452.231C290.14 452.341 291.22 450.751 291.73 449.971C290.787 449.626 289.786 449.471 288.784 449.515C287.781 449.56 286.797 449.803 285.89 450.231Z" fill="#EEA987"/>
<path d="M291.39 449.383C290.68 450.223 289.843 450.949 288.91 451.533L289.96 453.153L291.75 449.953L291.39 449.383Z" fill="#EDDAD3"/>
<path d="M286.37 449.617C287.063 450.436 287.931 451.089 288.91 451.527L287.75 453.197L285.75 450.277L286.37 449.617Z" fill="#EDDAD3"/>
<path d="M288.91 451.531L289.81 452.901C289.531 453.057 289.216 453.139 288.895 453.139C288.575 453.139 288.26 453.057 287.98 452.901L288.91 451.531Z" fill="#5073AB"/>
<path d="M300.5 453.163V453.253C300.4 453.603 300.02 454.963 299.5 456.763L298.93 457.233L298.25 457.733C296.058 459.293 293.511 460.28 290.84 460.603C291.08 454.963 291.75 449.953 291.75 449.953L293.25 450.373C295.652 451.002 297.981 451.88 300.2 452.993L300.5 453.163Z" fill="#323657"/>
<path d="M285.58 460.4C282.425 459.764 279.532 458.201 277.27 455.91L276.97 455.6C276.69 454.39 276.5 453.6 276.48 453.55C276.48 453.55 278.48 452.23 285.64 450.32C285.64 450.48 285.64 455.06 285.58 460.4Z" fill="#323657"/>
<path d="M289.42 453.052C289.36 454.542 289.35 457.423 289.37 460.723H288.84C288.31 460.723 287.79 460.722 287.27 460.652C287.44 458.095 287.804 455.555 288.36 453.052L288.48 452.562L289.48 452.723C289.43 452.823 289.43 452.932 289.42 453.052Z" fill="#5073AB"/>
<path d="M301.32 454.912C300.759 455.573 300.151 456.191 299.5 456.762L298.93 457.232L300.21 452.992C300.305 453.062 300.389 453.147 300.46 453.242C300.809 453.764 301.098 454.324 301.32 454.912Z" fill="#323657"/>
<path d="M277.27 455.909L276.97 455.599C276.61 455.209 276.26 454.809 275.97 454.389C276.068 454.061 276.255 453.767 276.51 453.539L277.27 455.909Z" fill="#323657"/>
<path d="M206.07 238.281H192.3C189.798 238.281 187.77 240.309 187.77 242.811V256.581C187.77 259.083 189.798 261.111 192.3 261.111H206.07C208.571 261.111 210.6 259.083 210.6 256.581V242.811C210.6 240.309 208.571 238.281 206.07 238.281Z" fill="#4CA1F4"/>
<g opacity="0.69">
<path opacity="0.72" d="M295.77 208.047H221.5C220.196 208.047 219.14 209.103 219.14 210.407V212.777C219.14 214.08 220.196 215.137 221.5 215.137H295.77C297.073 215.137 298.13 214.08 298.13 212.777V210.407C298.13 209.103 297.073 208.047 295.77 208.047Z" fill="white"/>
<path opacity="0.72" d="M306.78 219.508H221.5C220.196 219.508 219.14 220.564 219.14 221.868V224.238C219.14 225.541 220.196 226.598 221.5 226.598H306.78C308.083 226.598 309.14 225.541 309.14 224.238V221.868C309.14 220.564 308.083 219.508 306.78 219.508Z" fill="white"/>
</g>
<path d="M206.07 205.906H192.3C189.798 205.906 187.77 207.934 187.77 210.436V224.206C187.77 226.708 189.798 228.736 192.3 228.736H206.07C208.571 228.736 210.6 226.708 210.6 224.206V210.436C210.6 207.934 208.571 205.906 206.07 205.906Z" fill="#4CA1F4"/>
<g opacity="0.69">
<path opacity="0.72" d="M276.47 240.422H221.18C220.053 240.422 219.14 241.335 219.14 242.462V245.472C219.14 246.599 220.053 247.512 221.18 247.512H276.47C277.596 247.512 278.51 246.599 278.51 245.472V242.462C278.51 241.335 277.596 240.422 276.47 240.422Z" fill="white"/>
<path opacity="0.72" d="M290.04 251.883H221.26C220.089 251.883 219.14 252.832 219.14 254.003V256.853C219.14 258.024 220.089 258.973 221.26 258.973H290.04C291.211 258.973 292.16 258.024 292.16 256.853V254.003C292.16 252.832 291.211 251.883 290.04 251.883Z" fill="white"/>
</g>
<g opacity="0.69">
<path opacity="0.72" d="M302.82 272.789H221.6C220.241 272.789 219.14 273.89 219.14 275.249V277.419C219.14 278.778 220.241 279.879 221.6 279.879H302.82C304.178 279.879 305.28 278.778 305.28 277.419V275.249C305.28 273.89 304.178 272.789 302.82 272.789Z" fill="white"/>
<path opacity="0.72" d="M295.92 284.258H221.35C220.129 284.258 219.14 285.247 219.14 286.468V289.138C219.14 290.358 220.129 291.348 221.35 291.348H295.92C297.14 291.348 298.13 290.358 298.13 289.138V286.468C298.13 285.247 297.14 284.258 295.92 284.258Z" fill="white"/>
</g>
<path d="M206.07 270.648H192.3C189.798 270.648 187.77 272.677 187.77 275.178V288.948C187.77 291.45 189.798 293.478 192.3 293.478H206.07C208.571 293.478 210.6 291.45 210.6 288.948V275.178C210.6 272.677 208.571 270.648 206.07 270.648Z" fill="#4CA1F4"/>
<path d="M198.4 255.208L192.07 249.708C191.82 249.492 191.667 249.186 191.644 248.856C191.62 248.527 191.729 248.202 191.945 247.953C192.161 247.704 192.467 247.551 192.796 247.527C193.125 247.504 193.45 247.612 193.7 247.828L198.18 251.718L204.55 244.588C204.773 244.347 205.081 244.204 205.409 244.189C205.737 244.174 206.058 244.288 206.302 244.507C206.546 244.727 206.694 245.033 206.714 245.361C206.735 245.688 206.625 246.011 206.41 246.258L198.4 255.208Z" fill="white"/>
<path d="M198.4 287.586L192.04 282.076C191.917 281.969 191.816 281.839 191.743 281.693C191.67 281.547 191.626 281.388 191.614 281.225C191.603 281.062 191.623 280.898 191.675 280.743C191.727 280.588 191.808 280.445 191.915 280.321C192.022 280.198 192.153 280.097 192.299 280.023C192.445 279.95 192.604 279.907 192.767 279.895C192.93 279.884 193.094 279.904 193.249 279.956C193.404 280.007 193.547 280.089 193.67 280.196L198.15 284.086L204.52 276.966C204.625 276.83 204.757 276.716 204.907 276.633C205.058 276.55 205.224 276.498 205.395 276.482C205.566 276.466 205.739 276.485 205.903 276.539C206.066 276.593 206.217 276.679 206.345 276.794C206.473 276.909 206.577 277.048 206.648 277.205C206.72 277.361 206.759 277.53 206.762 277.702C206.766 277.874 206.733 278.045 206.668 278.204C206.602 278.363 206.504 278.507 206.38 278.626L198.4 287.586Z" fill="white"/>
<path d="M198.76 220.111V219.601C198.717 218.991 198.802 218.38 199.009 217.805C199.215 217.23 199.539 216.704 199.96 216.261C200.715 215.574 201.195 214.635 201.31 213.621C201.31 212.621 200.69 211.981 199.47 211.961C198.774 211.959 198.094 212.168 197.52 212.561L197.06 211.341C197.887 210.826 198.845 210.558 199.82 210.571C202.04 210.571 203.05 211.941 203.05 213.411C203.05 214.721 202.31 215.671 201.39 216.771C201.022 217.142 200.733 217.585 200.543 218.071C200.352 218.558 200.262 219.078 200.28 219.601V220.111H198.76ZM198.33 222.811C198.32 222.653 198.343 222.495 198.397 222.347C198.451 222.198 198.535 222.063 198.644 221.948C198.753 221.834 198.884 221.743 199.03 221.681C199.175 221.62 199.332 221.589 199.49 221.591C199.73 221.581 199.969 221.643 200.174 221.769C200.379 221.896 200.542 222.08 200.641 222.3C200.741 222.519 200.773 222.763 200.733 223.001C200.693 223.239 200.582 223.459 200.416 223.633C200.25 223.808 200.036 223.929 199.801 223.981C199.565 224.033 199.32 224.014 199.096 223.925C198.872 223.837 198.679 223.684 198.542 223.485C198.406 223.287 198.332 223.052 198.33 222.811Z" fill="white"/>
<path d="M412.54 377.87C411.169 377.906 409.823 377.499 408.7 376.71C408.114 376.313 407.622 375.792 407.259 375.184C406.896 374.576 406.671 373.895 406.6 373.191C406.123 370.647 405.31 368.179 404.18 365.851C401.895 364.353 400.14 362.175 399.163 359.623C398.187 357.072 398.039 354.278 398.741 351.638C399.442 348.998 400.958 346.646 403.072 344.916C405.186 343.186 407.792 342.166 410.518 342C413.245 341.835 415.955 342.533 418.262 343.995C420.57 345.457 422.358 347.609 423.373 350.145C424.389 352.681 424.579 355.472 423.918 358.123C423.257 360.774 421.778 363.148 419.69 364.911C419.011 367.282 418.647 369.734 418.61 372.201C418.84 375.041 416.34 377.571 413.04 377.851L412.54 377.87ZM411.15 343.131C408.605 343.178 406.142 344.041 404.123 345.593C402.104 347.144 400.636 349.302 399.935 351.749C399.233 354.196 399.335 356.804 400.225 359.189C401.115 361.574 402.747 363.611 404.88 365.001L405.01 365.08L405.07 365.221C406.28 367.684 407.148 370.302 407.65 373.001C407.705 373.555 407.882 374.09 408.167 374.569C408.452 375.048 408.839 375.458 409.3 375.77C410.365 376.503 411.654 376.836 412.94 376.71C415.67 376.49 417.73 374.45 417.54 372.18C417.581 369.557 417.971 366.951 418.7 364.43L418.75 364.27L418.88 364.171C420.782 362.602 422.15 360.482 422.795 358.102C423.44 355.723 423.33 353.202 422.48 350.888C421.631 348.573 420.083 346.58 418.052 345.184C416.02 343.787 413.605 343.055 411.14 343.09L411.15 343.131Z" fill="white"/>
<path d="M409.76 373.69L406.81 359.77L409.96 361.93L411.59 359.75L413.34 361.5L415.87 358.93L415.47 373.17L414.41 373.14L414.73 361.6L413.34 363.01L411.71 361.37L410.19 363.38L408.39 362.15L410.8 373.46L409.76 373.69Z" fill="white"/>
<path d="M417.894 378.616L408.704 379.352L409 383.052L418.19 382.316L417.894 378.616Z" fill="white"/>
<path d="M418.681 372.26L406.572 373.266L407.066 379.205L419.174 378.199L418.681 372.26Z" fill="white"/>
<path d="M162.63 179.829C161.312 179.441 160.152 178.642 159.32 177.549C158.882 176.991 158.573 176.343 158.414 175.652C158.255 174.961 158.25 174.243 158.4 173.549C158.716 170.981 158.692 168.382 158.33 165.819C156.611 163.696 155.605 161.085 155.454 158.358C155.304 155.631 156.016 152.925 157.49 150.625C158.964 148.326 161.125 146.549 163.666 145.547C166.207 144.545 169 144.369 171.647 145.044C174.293 145.719 176.66 147.21 178.412 149.306C180.163 151.403 181.209 153.998 181.402 156.722C181.595 159.447 180.925 162.163 179.487 164.486C178.048 166.808 175.915 168.618 173.39 169.659C172.019 171.706 170.926 173.925 170.14 176.259C169.49 179.039 166.34 180.689 163.14 179.949L162.63 179.829ZM171.9 146.319C169.445 145.551 166.808 145.6 164.383 146.458C161.959 147.316 159.878 148.937 158.453 151.078C157.028 153.218 156.335 155.763 156.478 158.331C156.622 160.899 157.594 163.351 159.25 165.319L159.34 165.439V165.589C159.737 168.306 159.764 171.065 159.42 173.789C159.302 174.334 159.306 174.898 159.432 175.441C159.558 175.984 159.803 176.492 160.15 176.929C160.938 177.948 162.06 178.657 163.32 178.929C165.99 179.549 168.58 178.249 169.09 176.029C169.93 173.552 171.097 171.198 172.56 169.029L172.65 168.889L172.81 168.829C175.097 167.915 177.045 166.313 178.383 164.244C179.721 162.176 180.385 159.743 180.281 157.281C180.178 154.82 179.314 152.451 177.807 150.502C176.3 148.553 174.226 147.119 171.87 146.399L171.9 146.319Z" fill="white"/>
<path d="M161.25 174.994L162.69 160.844L165.03 163.864L167.25 162.284L168.38 164.484L171.57 162.814L166.85 176.254L165.85 175.894L169.68 165.004L167.92 165.924L166.87 163.854L164.81 165.314L163.47 163.594L162.31 175.104L161.25 174.994Z" fill="white"/>
<path d="M167.861 179.741L158.907 177.672L158.074 181.277L167.028 183.346L167.861 179.741Z" fill="white"/>
<path d="M170.146 176.384L158.308 173.648L156.966 179.455L168.804 182.191L170.146 176.384Z" fill="white"/>
<path d="M237.069 156.991L233.377 157.703L238.801 185.815L242.492 185.102L237.069 156.991Z" fill="white"/>
<path d="M230.366 161.577L226.674 162.289L231.489 187.249L235.181 186.536L230.366 161.577Z" fill="white"/>
<path d="M223.234 167.194L219.542 167.906L223.568 188.771L227.259 188.059L223.234 167.194Z" fill="white"/>
<path d="M216.088 173.928L212.396 174.641L215.426 190.341L219.118 189.629L216.088 173.928Z" fill="white"/>
<path d="M425.87 411.219L426.26 419.639L429.6 419.479L428.94 405.359L414.52 406.029L414.68 409.369L423.39 408.969L408.03 425.829L392.04 411.269L389.79 413.739L408.25 430.559L425.87 411.219Z" fill="white"/>
<defs>
<linearGradient id="paint0_linear_1600_6008" x1="1083.8" y1="236.321" x2="954.051" y2="229.834" gradientUnits="userSpaceOnUse">
<stop offset="0.01" stop-color="#4A612F"/>
<stop offset="1" stop-color="#769A42"/>
</linearGradient>
<linearGradient id="paint1_linear_1600_6008" x1="1065.8" y1="355.083" x2="1005.41" y2="286.703" gradientUnits="userSpaceOnUse">
<stop offset="0.01" stop-color="#4A612F"/>
<stop offset="1" stop-color="#769A42"/>
</linearGradient>
<linearGradient id="paint2_linear_1600_6008" x1="1073.34" y1="196.543" x2="1011.92" y2="193.472" gradientUnits="userSpaceOnUse">
<stop offset="0.01" stop-color="#4A612F"/>
<stop offset="1" stop-color="#769A42"/>
</linearGradient>
<linearGradient id="paint3_linear_1600_6008" x1="1048.84" y1="305.579" x2="1004.8" y2="227.575" gradientUnits="userSpaceOnUse">
<stop offset="0.01" stop-color="#4A612F"/>
<stop offset="1" stop-color="#769A42"/>
</linearGradient>
<linearGradient id="paint4_linear_1600_6008" x1="1205.36" y1="440.442" x2="1005.1" y2="440.442" gradientUnits="userSpaceOnUse">
<stop stop-color="#EEBE63"/>
<stop offset="1" stop-color="#DC3B57"/>
</linearGradient>
<linearGradient id="paint5_linear_1600_6008" x1="1205.36" y1="451.389" x2="1005.1" y2="451.389" gradientUnits="userSpaceOnUse">
<stop stop-color="#EEBE63"/>
<stop offset="1" stop-color="#DC3B57"/>
</linearGradient>
<linearGradient id="paint6_linear_1600_6008" x1="1205.36" y1="462.342" x2="1005.1" y2="462.342" gradientUnits="userSpaceOnUse">
<stop stop-color="#EEBE63"/>
<stop offset="1" stop-color="#DC3B57"/>
</linearGradient>
<linearGradient id="paint7_linear_1600_6008" x1="905.17" y1="480.728" x2="977.92" y2="480.728" gradientUnits="userSpaceOnUse">
<stop stop-color="#81D3E4"/>
<stop offset="1" stop-color="#6076FA"/>
</linearGradient>
<linearGradient id="paint8_linear_1600_6008" x1="958.54" y1="521.33" x2="1024.33" y2="521.33" gradientUnits="userSpaceOnUse">
<stop stop-color="#81D3E4"/>
<stop offset="1" stop-color="#6076FA"/>
</linearGradient>
<linearGradient id="paint9_linear_1600_6008" x1="964.16" y1="530.896" x2="1013.55" y2="530.896" gradientUnits="userSpaceOnUse">
<stop stop-color="#81D3E4"/>
<stop offset="1" stop-color="#6076FA"/>
</linearGradient>
<linearGradient id="paint10_linear_1600_6008" x1="946.33" y1="491.161" x2="1003.84" y2="491.161" gradientUnits="userSpaceOnUse">
<stop stop-color="#81D3E4"/>
<stop offset="1" stop-color="#6076FA"/>
</linearGradient>
<linearGradient id="paint11_linear_1600_6008" x1="933.13" y1="573.653" x2="986.2" y2="573.653" gradientUnits="userSpaceOnUse">
<stop stop-color="#E59148"/>
<stop offset="1" stop-color="#F1CC52"/>
</linearGradient>
<linearGradient id="paint12_linear_1600_6008" x1="933.13" y1="573.653" x2="986.2" y2="573.653" gradientUnits="userSpaceOnUse">
<stop stop-color="#B37239"/>
<stop offset="1" stop-color="#F1CC52"/>
</linearGradient>
<linearGradient id="paint13_linear_1600_6008" x1="1211.5" y1="442.328" x2="1300.31" y2="442.328" gradientUnits="userSpaceOnUse">
<stop stop-color="#81D3E4"/>
<stop offset="1" stop-color="#6076FA"/>
</linearGradient>
<linearGradient id="paint14_linear_1600_6008" x1="1266.74" y1="369.458" x2="1296.43" y2="369.458" gradientUnits="userSpaceOnUse">
<stop stop-color="#81D3E4"/>
<stop offset="1" stop-color="#6076FA"/>
</linearGradient>
<linearGradient id="paint15_linear_1600_6008" x1="1266.74" y1="385.2" x2="1293.99" y2="385.2" gradientUnits="userSpaceOnUse">
<stop stop-color="#81D3E4"/>
<stop offset="1" stop-color="#6076FA"/>
</linearGradient>
<linearGradient id="paint16_linear_1600_6008" x1="1266.74" y1="377.333" x2="1290.32" y2="377.333" gradientUnits="userSpaceOnUse">
<stop stop-color="#81D3E4"/>
<stop offset="1" stop-color="#6076FA"/>
</linearGradient>
<linearGradient id="paint17_linear_1600_6008" x1="1211.5" y1="368.283" x2="1258.27" y2="368.283" gradientUnits="userSpaceOnUse">
<stop stop-color="#D3D8DE"/>
<stop offset="1" stop-color="white"/>
</linearGradient>
<linearGradient id="paint18_linear_1600_6008" x1="1320.71" y1="320.027" x2="1345.4" y2="320.027" gradientUnits="userSpaceOnUse">
<stop stop-color="#72ACFB"/>
<stop offset="1" stop-color="#5286D4"/>
</linearGradient>
<linearGradient id="paint19_linear_1600_6008" x1="1320.71" y1="311.892" x2="1340.06" y2="311.892" gradientUnits="userSpaceOnUse">
<stop stop-color="#72ACFB"/>
<stop offset="1" stop-color="#5286D4"/>
</linearGradient>
<linearGradient id="paint20_linear_1600_6008" x1="18.3501" y1="294.64" x2="113.64" y2="294.64" gradientUnits="userSpaceOnUse">
<stop stop-color="#40D5E6"/>
<stop offset="1" stop-color="#5577FF"/>
</linearGradient>
<linearGradient id="paint21_linear_1600_6008" x1="23.9502" y1="215.143" x2="67.6302" y2="215.143" gradientUnits="userSpaceOnUse">
<stop stop-color="#40D5E6"/>
<stop offset="1" stop-color="#5577FF"/>
</linearGradient>
<linearGradient id="paint22_linear_1600_6008" x1="22.4502" y1="463.697" x2="371.17" y2="463.697" gradientUnits="userSpaceOnUse">
<stop stop-color="#96CBFF"/>
<stop offset="1" stop-color="#5599FF"/>
</linearGradient>
</defs>
</svg>
