<svg width="1440" height="607" viewBox="0 0 1440 607" fill="none" xmlns="http://www.w3.org/2000/svg">
<g clip-path="url(#clip0_1601_6455)">
<path d="M1444.04 0H-5V604H1444.04V0Z" fill="#2C85FF"/>
<path d="M1054.37 300.458C1062.78 318.808 1067.51 336.168 1061.31 343.918C1060.95 344.374 1060.55 344.795 1060.12 345.178C1055.34 349.378 1045.96 349.478 1030.12 343.178C987.96 326.528 985.96 297.788 977.44 269.728C969.03 242.018 939.67 246.728 938.93 246.828C1007.34 222.998 1040.1 269.338 1054.37 300.458Z" fill="url(#paint0_linear_1601_6455)"/>
<path d="M1061.31 343.923C1060.95 344.378 1060.55 344.8 1060.12 345.183C1052.2 340.413 1037.04 330.303 1029.89 318.943C1026.47 313.215 1023.39 307.288 1020.68 301.193C1015 289.133 1009.13 276.673 998.88 267.113L1000.02 265.883C1010.51 275.663 1016.45 288.283 1022.19 300.483C1024.87 306.518 1027.92 312.386 1031.31 318.053C1038.28 329.133 1053.59 339.283 1061.31 343.923Z" fill="url(#paint1_linear_1601_6455)"/>
<path d="M1047.04 308.001C1046.54 309.231 1046.22 309.921 1046.18 310.001C1046.06 309.331 1045.93 308.661 1045.8 308.001C1040.18 279.191 1032.66 276.181 1010.11 251.001C987.05 225.221 1000.31 201.211 1000.31 201.211C1077.57 223.461 1052.3 295.071 1047.04 308.001Z" fill="url(#paint2_linear_1601_6455)"/>
<path d="M1047.04 307.999C1046.54 309.229 1046.22 309.919 1046.18 309.999C1046.06 309.329 1045.93 308.659 1045.8 307.999C1048.3 283.099 1033.28 253.869 1028.55 248.629C1023.67 243.189 1020.66 235.719 1019.55 232.909C1019.36 232.439 1019.18 231.999 1019.12 231.909L1020.21 231.289C1020.31 231.459 1020.43 231.769 1020.71 232.449C1021.82 235.209 1024.78 242.529 1029.52 247.789C1035.48 254.379 1049.34 283.749 1047.04 307.999Z" fill="url(#paint3_linear_1601_6455)"/>
<g style="mix-blend-mode:hard-light">
<path d="M1386.21 158.711H1056.72C1044.39 158.711 1034.4 168.704 1034.4 181.031V275.301C1034.4 287.628 1044.39 297.621 1056.72 297.621H1386.21C1398.54 297.621 1408.53 287.628 1408.53 275.301V181.031C1408.53 168.704 1398.54 158.711 1386.21 158.711Z" fill="#F4F4F4"/>
</g>
<path d="M1194.26 459.992H1053.99V464.682H1194.26V459.992Z" fill="white"/>
<path d="M1158.16 438.102H1053.99V442.792H1158.16V438.102Z" fill="url(#paint4_linear_1601_6455)"/>
<path d="M1166.55 449.039H1053.99V453.729H1166.55V449.039Z" fill="url(#paint5_linear_1601_6455)"/>
<path d="M1127.03 459.992H1053.99V464.682H1127.03V459.992Z" fill="url(#paint6_linear_1601_6455)"/>
<g style="mix-blend-mode:hard-light">
<path d="M1186.71 305.141H984.72C975.574 305.141 968.16 312.555 968.16 321.701V503.871C968.16 513.016 975.574 520.431 984.72 520.431H1186.71C1195.86 520.431 1203.27 513.016 1203.27 503.871V321.701C1203.27 312.555 1195.86 305.141 1186.71 305.141Z" fill="#F4F4F4"/>
</g>
<path d="M1055.3 370.351C1057.56 364.026 1057.84 357.162 1056.11 350.673C1054.37 344.183 1050.7 338.376 1045.59 334.021C1043.11 331.911 1040.34 330.182 1037.35 328.891C1036.68 328.601 1035.99 328.331 1035.29 328.081C1029.13 325.878 1022.46 325.55 1016.11 327.14C1009.77 328.73 1004.04 332.165 999.645 337.012C995.253 341.859 992.396 347.9 991.437 354.37C990.478 360.84 991.46 367.45 994.257 373.362C997.055 379.275 1001.54 384.225 1007.15 387.587C1012.76 390.948 1019.25 392.571 1025.78 392.248C1032.31 391.926 1038.6 389.674 1043.86 385.776C1049.11 381.878 1053.09 376.51 1055.29 370.351H1055.3ZM1015.8 382.561C1012.73 381.465 1009.91 379.775 1007.5 377.589C1005.09 375.402 1003.13 372.762 1001.74 369.819C1000.35 366.876 999.547 363.688 999.387 360.436C999.226 357.184 999.708 353.932 1000.8 350.866C1001.9 347.8 1003.59 344.981 1005.78 342.568C1007.96 340.155 1010.6 338.197 1013.55 336.804C1016.49 335.412 1019.68 334.613 1022.93 334.453C1026.18 334.293 1029.43 334.775 1032.5 335.871C1033.03 336.061 1033.5 336.261 1034.05 336.481C1036.29 337.45 1038.37 338.748 1040.22 340.331C1044.65 344.089 1047.61 349.282 1048.6 355.003C1049.59 360.725 1048.54 366.612 1045.64 371.639C1042.73 376.665 1038.15 380.512 1032.7 382.508C1027.25 384.504 1021.26 384.523 1015.8 382.561Z" fill="#90C1FC"/>
<path d="M1016.76 335.538L1014.3 327.648C1007.73 329.698 1001.97 333.746 997.805 339.227C993.645 344.708 991.297 351.35 991.09 358.228L999.36 358.468C999.528 353.315 1001.29 348.341 1004.41 344.233C1007.53 340.125 1011.84 337.087 1016.76 335.538Z" fill="#4372BD"/>
<path d="M1034.04 336.478L1037.34 328.888C1036.67 328.598 1035.98 328.328 1035.28 328.078C1028.52 325.641 1021.14 325.49 1014.28 327.648L1016.74 335.538C1021.88 333.928 1027.41 334.044 1032.48 335.868C1033.04 336.058 1033.54 336.258 1034.04 336.478Z" fill="#4E85DE"/>
<path d="M1045.59 333.997C1043.11 331.887 1040.34 330.158 1037.35 328.867L1034.05 336.457C1036.29 337.426 1038.37 338.724 1040.22 340.307L1045.59 333.997Z" fill="#72ACFB"/>
<path d="M1160.56 437.492H1149.08V476.802H1160.56V437.492Z" fill="#72ACFB"/>
<path d="M1143.5 448.523H1132.02V476.803H1143.5V448.523Z" fill="#72ACFB"/>
<path d="M1177.11 419.273H1165.63V476.803H1177.11V419.273Z" fill="#72ACFB"/>
<path d="M1175.26 390.529L1175.06 389.289L1144.77 394.249L1134.95 415.179L1102.29 417.389L1091.71 432.999L1066.75 432.379L1066.72 433.629L1092.37 434.269L1102.99 418.609L1135.77 416.379L1145.63 395.379L1175.26 390.529Z" fill="#72ACFB"/>
<path d="M1138.24 338.14H1170.88C1171.37 338.14 1171.85 338.043 1172.31 337.856C1172.76 337.668 1173.17 337.394 1173.52 337.047C1173.86 336.701 1174.14 336.29 1174.33 335.837C1174.51 335.385 1174.61 334.9 1174.61 334.41C1174.61 333.42 1174.22 332.472 1173.52 331.772C1172.82 331.073 1171.87 330.68 1170.88 330.68H1138.24C1137.25 330.68 1136.3 331.073 1135.6 331.772C1134.9 332.472 1134.51 333.42 1134.51 334.41C1134.51 334.9 1134.61 335.385 1134.79 335.837C1134.98 336.29 1135.26 336.701 1135.6 337.047C1135.95 337.394 1136.36 337.668 1136.81 337.856C1137.26 338.043 1137.75 338.14 1138.24 338.14Z" fill="#4E85DE"/>
<path d="M1138.24 351.163H1170.88C1171.87 351.163 1172.82 350.77 1173.52 350.071C1174.22 349.371 1174.61 348.422 1174.61 347.433C1174.61 346.444 1174.22 345.495 1173.52 344.796C1172.82 344.096 1171.87 343.703 1170.88 343.703H1138.24C1137.25 343.703 1136.3 344.096 1135.6 344.796C1134.9 345.495 1134.51 346.444 1134.51 347.433C1134.51 348.422 1134.9 349.371 1135.6 350.071C1136.3 350.77 1137.25 351.163 1138.24 351.163Z" fill="#72ACFB"/>
<path d="M1138.24 364.179H1170.88C1171.37 364.179 1171.85 364.082 1172.31 363.895C1172.76 363.707 1173.17 363.433 1173.52 363.086C1173.86 362.74 1174.14 362.329 1174.33 361.876C1174.51 361.424 1174.61 360.939 1174.61 360.449C1174.61 359.46 1174.22 358.511 1173.52 357.811C1172.82 357.112 1171.87 356.719 1170.88 356.719H1138.24C1137.25 356.719 1136.3 357.112 1135.6 357.811C1134.9 358.511 1134.51 359.46 1134.51 360.449C1134.51 360.939 1134.61 361.424 1134.79 361.876C1134.98 362.329 1135.26 362.74 1135.6 363.086C1135.95 363.433 1136.36 363.707 1136.81 363.895C1137.26 364.082 1137.75 364.179 1138.24 364.179Z" fill="#72ACFB"/>
<path d="M1079.16 344.597H1060.49V343.877H1078.87L1088.69 334.047H1100.73V334.767H1088.99L1079.16 344.597Z" fill="#72ACFB"/>
<path d="M1096.86 377.206H1072.83L1065.05 369.416L1065.55 368.906L1073.13 376.486H1096.86V377.206Z" fill="#72ACFB"/>
<path d="M1115.37 338.797H1090.47V341.857H1115.37V338.797Z" fill="#4E85DE"/>
<path d="M1102.93 369.953H1082.88V373.013H1102.93V369.953Z" fill="#4E85DE"/>
<path d="M915.52 384.588C921.8 381.588 928.04 401.588 928.04 401.588C938.7 415.678 953.6 396.938 952.15 417.998C949.6 454.858 994.57 429.588 973.82 468.068C953.07 506.548 992.14 489.828 979.25 520.848C966.36 551.868 983.07 588.848 963.67 573.678C963.67 573.678 946.58 536.218 928.97 524.678C911.36 513.138 939.52 499.338 933.97 483.598C925.97 460.728 906.67 461.598 920.58 437.058C934.49 412.518 894.2 394.788 915.52 384.588Z" fill="url(#paint7_linear_1601_6455)"/>
<path d="M969.81 559.551C961.4 553.641 951.56 512.421 950.97 487.881C950.67 475.301 946.97 470.061 943.67 465.441C940.54 461.021 937.83 457.211 939.41 448.441C942.41 431.691 934.5 424.441 934.41 424.391L935.33 423.391C935.68 423.701 943.93 431.151 940.77 448.721C939.29 456.911 941.77 460.331 944.77 464.671C947.99 469.211 952.01 474.871 952.32 487.871C952.95 514.221 963.01 553.131 970.57 558.441L969.81 559.551Z" fill="white"/>
<path d="M972.96 562.61C971.763 562.598 970.571 562.467 969.4 562.22C966.16 561.56 964.03 559.86 963.08 557.14C960.82 550.66 966.08 540.14 970.33 535.05C974.834 529.039 977.113 521.653 976.78 514.15C976.65 512.15 976.44 510.25 976.25 508.6C975.72 503.82 975.33 500.36 977.39 498.05C979.2 496.05 982.69 495.13 989.07 495.1C1000.26 495.05 1004.69 490.42 1008.25 486.7C1009.59 485.134 1011.16 483.785 1012.91 482.7C1018.49 479.65 1024.4 479.2 1026.91 481.63C1028.13 482.78 1029.16 485.04 1027.14 489.26C1025.59 492.348 1023.51 495.138 1020.99 497.5C1018.4 500.14 1016.7 501.88 1017.59 505.35C1017.8 506.17 1018.04 506.99 1018.28 507.82C1020 513.72 1021.96 520.4 1011.86 524.94C1009.72 525.94 1007.76 526.67 1006.04 527.35C999.04 530.12 994.74 531.79 989.93 541.93C989 543.93 988.18 545.75 987.39 547.55C983.65 556.12 980.78 562.61 972.96 562.61ZM1013.58 483.9C1011.95 484.927 1010.49 486.195 1009.25 487.66C1005.51 491.57 1000.86 496.44 989.08 496.5C983.21 496.5 979.93 497.29 978.42 498.98C976.91 500.67 977.14 503.98 977.64 508.44C977.82 510.11 978.04 512.01 978.17 514.07C978.572 521.931 976.174 529.681 971.4 535.94C967.18 540.94 962.4 550.94 964.4 556.68C965.17 558.9 966.95 560.31 969.68 560.86C979.19 562.78 981.81 556.86 986.16 546.97C986.96 545.16 987.79 543.29 988.72 541.31C993.72 530.67 998.47 528.83 1005.58 526.03C1007.29 525.36 1009.23 524.61 1011.34 523.66C1020.34 519.66 1018.71 514.06 1016.99 508.19C1016.75 507.35 1016.5 506.51 1016.29 505.68C1015.21 501.45 1017.29 499.27 1020.05 496.51C1022.46 494.253 1024.46 491.589 1025.94 488.64C1026.85 486.73 1027.6 484.13 1026 482.64C1023.9 480.64 1018.56 481.2 1013.58 483.92V483.9Z" fill="url(#paint8_linear_1601_6455)"/>
<path d="M969.55 570.626L968.16 570.556C968.23 569.256 969.98 538.496 982.33 529.496C995.88 519.616 1000.15 509.006 1002.19 501.886C1004.58 493.486 1016.78 491.246 1017.3 491.156L1017.55 492.526C1017.43 492.526 1005.68 494.706 1003.55 502.266C1001.46 509.586 997.08 520.496 983.18 530.616C971.33 539.236 969.57 570.316 969.55 570.626Z" fill="url(#paint9_linear_1601_6455)"/>
<path d="M997.79 415.631C989.01 412.631 990.79 429.541 987.12 442.061C983.45 454.581 945.86 447.521 961.63 478.861C977.4 510.201 941.69 489.341 952.35 516.701C963.01 544.061 953.28 573.301 964.87 565.861C976.46 558.421 971.38 523.981 983.44 519.861C995.5 515.741 997.44 511.001 985.52 499.861C973.6 488.721 1016.79 477.691 1006.13 455.221C995.47 432.751 1007.93 419.111 997.79 415.631Z" fill="url(#paint10_linear_1601_6455)"/>
<path d="M970.25 564.547C969.14 559.867 959.72 518.657 968.51 513.677C976.27 509.287 976.08 492.207 974.87 476.087C973.8 461.817 992.13 455.137 992.87 454.867L993.33 456.177C993.15 456.237 975.22 462.767 976.21 475.987C977.45 492.547 977.59 510.107 969.16 514.887C962.48 518.667 968.63 551.787 971.56 564.227L970.25 564.547Z" fill="white"/>
<path d="M990.2 549.883L977.67 597.423H949.66L937.13 549.883H990.2Z" fill="url(#paint11_linear_1601_6455)"/>
<path d="M990.2 549.883C990.2 549.883 962.61 555.063 962.61 597.423H949.61L937.08 549.883H990.2Z" fill="url(#paint12_linear_1601_6455)"/>
<path d="M1065.97 139.797V143.827H1026.67V183.137H1022.63V139.797H1065.97Z" fill="#BFD4FC"/>
<path d="M1421.73 128.047H1389.74V130.287H1421.73V128.047Z" fill="#BFD4FC"/>
<path d="M1421.73 132.281H1389.74V141.711H1421.73V132.281Z" fill="#BFD4FC"/>
<path d="M1386.67 135.859H1367.8V137.269H1386.67V135.859Z" fill="#BFD4FC"/>
<path d="M1386.67 137.891H1367.8V141.711H1386.67V137.891Z" fill="#BFD4FC"/>
<path d="M1422.43 128.047H1421.02V154.467H1422.43V128.047Z" fill="#BFD4FC"/>
<path d="M1068.58 488.109H1029.1V490.449H1068.58V488.109Z" fill="#DCD0C8"/>
<path d="M1034.38 603.141H1037.84V496.551H1034.38V603.141Z" fill="#6D6865"/>
<path d="M1089.84 487.453H1062.4V490.803H1089.84V487.453Z" fill="#C6BBB5"/>
<path d="M1081.31 458.891H1070.92V490.461H1081.31V458.891Z" fill="#948C87"/>
<path d="M1166.98 490.5H1014.93V496.56H1166.98V490.5Z" fill="#A98E75"/>
<path d="M985.75 453.822C985.75 453.822 984.08 477.142 988.64 479.932C991.5 481.682 1002.88 487.572 1002.54 488.682C1002.2 489.792 996.11 498.522 996.11 498.522C996.11 498.522 974.25 484.122 973.55 479.592C972.85 475.062 974.62 445.442 977.63 444.072C979.88 443.072 981.07 443.892 983.9 446.002C987.88 449.002 985.75 453.822 985.75 453.822Z" fill="#EBB35C"/>
<path d="M1012.65 588.587C1012.65 588.587 1011.97 593.307 1011.88 594.017C1011.79 594.727 1004.32 593.597 1004.32 593.597L1003.71 587.977C1003.71 587.977 1011.71 587.927 1012.65 588.587Z" fill="#454971"/>
<path d="M1011.96 593.422C1013.3 595.013 1014.87 596.39 1016.62 597.503C1018.91 598.743 1022.52 599.233 1023.87 600.503C1024.87 601.433 1027.43 605.423 1017.87 605.343C1008.31 605.263 1003.77 605.903 1002.75 604.343C1001.73 602.783 1004.22 593.062 1004.22 593.062C1004.22 593.062 1006.52 593.912 1011.96 593.422Z" fill="#2E3048"/>
<path d="M1060.56 588.641C1060.56 588.641 1059.88 593.351 1059.79 594.061C1059.7 594.771 1052.23 593.651 1052.23 593.651L1051.62 588.031C1051.62 588.031 1059.62 588.001 1060.56 588.641Z" fill="#454971"/>
<path d="M1059.87 593.459C1061.2 595.053 1062.77 596.43 1064.53 597.539C1066.82 598.779 1075.26 599.799 1076.61 601.089C1077.61 602.009 1079.22 605.739 1065.82 605.389C1056.31 605.139 1051.72 605.949 1050.7 604.389C1049.68 602.829 1052.17 593.109 1052.17 593.109C1052.17 593.109 1054.3 593.999 1059.87 593.459Z" fill="#2E3048"/>
<path d="M988.53 507.078C988.53 507.078 1015.71 511.678 1021.85 512.638C1027.99 513.598 1061.29 521.888 1065.45 524.408C1068.77 526.408 1063.71 574.688 1062.53 593.098H1049.42L1048.42 537.868C1032.68 538.258 1021.42 534.188 1009.99 535.928C998.56 537.668 988.99 540.138 981.7 530.368C981.75 530.368 981.48 509.208 988.53 507.078Z" fill="#2E3048"/>
<path d="M1015.32 593.138L1002.54 592.347L1001.3 537.867C996.422 538.014 991.541 537.703 986.72 536.938L976.4 512.938C985.4 514.737 1014.4 522.048 1018.28 524.388C1021.6 526.428 1016.5 574.728 1015.32 593.138Z" fill="#2E3048"/>
<path d="M1001.04 405.169C1001.04 405.169 1011.04 402.419 1014.81 410.169C1018.58 417.919 1016.89 432.569 1011.87 433.949C1006.85 435.329 999.62 433.739 997.54 428.949C995.46 424.159 993.79 417.299 994.29 412.859C994.79 408.419 998.4 406.229 1001.04 405.169Z" fill="#DBA585"/>
<path d="M1009.26 432.393C1009.26 432.393 1009.15 438.282 1009.8 439.532C1010.45 440.782 995.92 440.472 995.92 440.472C995.92 440.472 998.21 433.413 996.92 427.393C995.63 421.373 1009.26 432.393 1009.26 432.393Z" fill="#DBA585"/>
<path d="M996.131 425.163C996.131 425.163 996.91 426.743 1000.67 426.483C1004.43 426.223 1009.39 421.693 1010.98 421.293C1012.57 420.893 1012.67 419.973 1012.67 419.973L1013.52 421.473L1015.15 421.723C1015.15 421.723 1014.04 417.183 1016.47 415.583C1018.9 413.983 1015.37 401.083 1003.12 404.193C1003.12 404.193 993.761 405.913 993.631 411.133C993.501 416.353 994.321 422.393 996.131 425.163Z" fill="#3E4148"/>
<path d="M1010.56 439.383C1010.56 439.383 1010.56 436.983 1009.44 436.753C1008.32 436.523 998.02 435.103 996.69 435.633L996.11 438.793C996.11 438.793 998.68 440.373 1010.56 439.383Z" fill="#DCD0C8"/>
<path d="M1013.55 418.903C1013.28 416.903 1011.04 414.683 1009.76 417.743C1008.48 420.803 1010.63 425.263 1012.06 425.023C1013.49 424.783 1013.93 421.573 1013.55 418.903Z" fill="#DBA585"/>
<path d="M998.14 406.58C998.14 406.58 985.98 406 996.04 425L998.14 406.58Z" fill="#3E4148"/>
<path d="M971.06 599.612L971.97 602.152L1010.16 590.312L1008.33 585.172L971.06 599.612Z" fill="#8C8581"/>
<path d="M1011.47 546.977H1007.13V588.497H1011.47V546.977Z" fill="#8C8581"/>
<path d="M1022.11 544.773H996.5V547.223H1022.11V544.773Z" fill="#5D5955"/>
<path d="M1047.87 599.614L1046.97 602.154L1008.78 590.314L1010.46 584.844L1047.87 599.614Z" fill="#8C8581"/>
<path d="M1020.96 601.884V604.844L1008.78 590.314L1010.46 584.844L1020.96 601.884Z" fill="#8C8581"/>
<path d="M1051.44 603.14C1051.44 603.846 1051.23 604.537 1050.84 605.124C1050.45 605.711 1049.89 606.168 1049.24 606.439C1048.58 606.709 1047.87 606.779 1047.17 606.642C1046.48 606.504 1045.84 606.164 1045.35 605.665C1044.85 605.165 1044.51 604.529 1044.37 603.837C1044.23 603.144 1044.3 602.426 1044.57 601.774C1044.84 601.122 1045.3 600.564 1045.89 600.172C1046.47 599.78 1047.16 599.57 1047.87 599.57C1048.34 599.57 1048.8 599.663 1049.24 599.842C1049.67 600.021 1050.06 600.284 1050.39 600.616C1050.73 600.947 1050.99 601.341 1051.17 601.774C1051.35 602.207 1051.44 602.672 1051.44 603.14Z" fill="#B9AFAA"/>
<path d="M1021.26 603.14C1021.26 603.846 1021.05 604.537 1020.66 605.124C1020.27 605.711 1019.71 606.168 1019.06 606.439C1018.4 606.709 1017.69 606.779 1016.99 606.642C1016.3 606.504 1015.66 606.164 1015.17 605.665C1014.67 605.165 1014.33 604.529 1014.19 603.837C1014.05 603.144 1014.12 602.426 1014.39 601.774C1014.66 601.122 1015.12 600.564 1015.71 600.172C1016.29 599.78 1016.98 599.57 1017.69 599.57C1018.16 599.57 1018.62 599.663 1019.06 599.842C1019.49 600.021 1019.88 600.284 1020.21 600.616C1020.55 600.947 1020.81 601.341 1020.99 601.774C1021.17 602.207 1021.26 602.672 1021.26 603.14Z" fill="#B9AFAA"/>
<path d="M974.63 603.14C974.63 603.846 974.421 604.537 974.029 605.124C973.636 605.711 973.079 606.168 972.426 606.439C971.774 606.709 971.056 606.779 970.364 606.642C969.671 606.504 969.035 606.164 968.536 605.665C968.037 605.165 967.697 604.529 967.559 603.837C967.421 603.144 967.492 602.426 967.762 601.774C968.032 601.122 968.49 600.564 969.077 600.172C969.664 599.78 970.354 599.57 971.06 599.57C971.529 599.57 971.993 599.663 972.426 599.842C972.86 600.021 973.253 600.284 973.585 600.616C973.916 600.947 974.179 601.341 974.358 601.774C974.538 602.207 974.63 602.672 974.63 603.14Z" fill="#B9AFAA"/>
<path d="M1035.16 544.768H983.77C982.542 544.768 981.364 544.28 980.496 543.412C979.627 542.543 979.14 541.366 979.14 540.138C979.14 538.91 979.627 537.732 980.496 536.864C981.364 535.996 982.542 535.508 983.77 535.508H1035.16C1035.77 535.507 1036.37 535.625 1036.93 535.857C1037.5 536.089 1038.01 536.43 1038.44 536.86C1038.87 537.29 1039.21 537.801 1039.45 538.364C1039.68 538.926 1039.8 539.529 1039.8 540.138C1039.8 540.747 1039.68 541.35 1039.45 541.912C1039.21 542.474 1038.87 542.985 1038.44 543.415C1038.01 543.845 1037.5 544.186 1036.93 544.418C1036.37 544.65 1035.77 544.769 1035.16 544.768Z" fill="#DCD0C8"/>
<path d="M1147.53 496.562H1144.07V603.153H1147.53V496.562Z" fill="#6D6865"/>
<path d="M1115.71 410.789H1036.53C1033.61 410.789 1031.25 413.153 1031.25 416.069V468.809C1031.25 471.725 1033.61 474.089 1036.53 474.089H1115.71C1118.63 474.089 1120.99 471.725 1120.99 468.809V416.069C1120.99 413.153 1118.63 410.789 1115.71 410.789Z" fill="#B2A8A3"/>
<path d="M1117.48 414.211H1034.77V464.171H1117.48V414.211Z" fill="#F4F6FF"/>
<path d="M1113.8 468.89C1113.8 470.31 1112.3 471.46 1110.46 471.46C1108.62 471.46 1107.13 470.31 1107.13 468.89C1107.13 467.47 1108.62 466.32 1110.46 466.32C1112.3 466.32 1113.8 467.47 1113.8 468.89Z" fill="#8C8480"/>
<path d="M1094.69 490.583V489.453C1094.69 489.453 1093.11 482.453 1081.91 482.453C1070.71 482.453 1070.91 490.593 1070.91 490.593L1094.69 490.583Z" fill="#948C87"/>
<path d="M1070.8 483.492C1071.94 483.422 1073.06 483.176 1074.12 482.762C1075.02 482.222 1080.35 478.632 1081.6 479.212C1082.85 479.792 1091.19 482.342 1090.9 483.552C1090.61 484.762 1089.84 484.662 1089.25 484.442C1088.66 484.222 1082.61 482.952 1082.08 483.172C1082.08 483.172 1088.02 485.342 1088.08 486.922C1088.14 488.502 1086.83 488.922 1086.27 489.492C1085.71 490.062 1085.03 491.582 1083.5 491.692C1081.97 491.802 1074.5 489.202 1072.95 489.082C1071.4 488.962 1068.56 489.182 1068.36 488.932C1068.16 488.682 1070.8 483.492 1070.8 483.492Z" fill="#DBA585"/>
<path d="M1026.49 442.699C1018.73 441.339 1010.56 439.379 1010.56 439.379L996.11 438.789C996.11 438.789 982.85 441.709 977.63 444.069C977.13 444.299 977.13 455.899 975.77 458.949L980.1 468.079C980.1 468.079 982.6 486.179 983.1 494.229C983.34 497.919 982.43 529.939 982.43 529.939C982.43 529.939 983.73 530.579 993.59 531.669C1003.45 532.759 1028.09 531.269 1028.25 530.109C1028.41 528.949 1023.48 486.729 1023.25 484.549C1022.91 481.189 1024.25 465.689 1024.25 465.689C1026.11 468.179 1030.84 479.459 1035.78 484.819C1038.69 487.979 1053.07 489.909 1055.78 489.999C1061.68 490.199 1072.45 491.369 1072.78 490.799C1073.03 490.449 1073.72 481.239 1073.04 481.019C1072.36 480.799 1052.46 479.669 1047.34 476.949C1045.47 475.949 1039.87 463.749 1039.87 463.749C1039.87 463.749 1030.77 444.629 1026.49 442.699Z" fill="#EBB35C"/>
<path d="M975.13 471.078H996.65C999.345 471.078 1001.93 472.149 1003.83 474.054C1005.74 475.959 1006.81 478.544 1006.81 481.238V518.858C1006.8 521.551 1005.73 524.132 1003.82 526.033C1001.92 527.934 999.333 529.001 996.64 528.998H975.13C972.442 528.99 969.867 527.918 967.969 526.015C966.07 524.113 965.003 521.536 965 518.848V481.228C965 478.54 966.067 475.961 967.966 474.058C969.865 472.155 972.442 471.083 975.13 471.078Z" fill="#DCD0C8"/>
<path d="M999.39 542.469C993.22 542.469 988.22 540.399 984.52 536.309C976.16 527.079 977.66 510.849 977.73 510.159C977.822 509.57 978.136 509.039 978.607 508.675C979.078 508.31 979.67 508.14 980.263 508.199C980.856 508.258 981.403 508.541 981.793 508.991C982.183 509.441 982.386 510.024 982.36 510.619C982.36 510.799 981.01 525.519 987.98 533.199C990.79 536.299 994.53 537.809 999.39 537.809C1000.01 537.809 1000.6 538.054 1001.04 538.491C1001.47 538.928 1001.72 539.521 1001.72 540.139C1001.72 540.757 1001.47 541.349 1001.04 541.786C1000.6 542.223 1000.01 542.469 999.39 542.469Z" fill="#DCD0C8"/>
<path d="M1064.1 418.188H1041.39C1040.97 418.188 1040.63 418.528 1040.63 418.948V420.068C1040.63 420.487 1040.97 420.827 1041.39 420.827H1064.1C1064.52 420.827 1064.86 420.487 1064.86 420.068V418.948C1064.86 418.528 1064.52 418.188 1064.1 418.188Z" fill="#DEDFE6"/>
<path d="M1041.38 423.859H1064.1C1064.3 423.859 1064.49 423.939 1064.64 424.082C1064.78 424.225 1064.86 424.418 1064.86 424.619V425.749C1064.86 425.951 1064.78 426.144 1064.64 426.287C1064.49 426.429 1064.3 426.509 1064.1 426.509H1041.39C1041.19 426.509 1041 426.429 1040.85 426.287C1040.71 426.144 1040.63 425.951 1040.63 425.749V424.619C1040.63 424.52 1040.65 424.421 1040.68 424.329C1040.72 424.237 1040.78 424.153 1040.85 424.083C1040.92 424.012 1041 423.956 1041.09 423.917C1041.18 423.879 1041.28 423.859 1041.38 423.859Z" fill="#DEDFE6"/>
<path d="M1062.32 430.352H1043.17C1041.77 430.352 1040.63 431.489 1040.63 432.892V457.662C1040.63 459.064 1041.77 460.202 1043.17 460.202H1062.32C1063.72 460.202 1064.86 459.064 1064.86 457.662V432.892C1064.86 431.489 1063.72 430.352 1062.32 430.352Z" fill="#DEDFE6"/>
<path d="M1108.86 418.188H1073.78C1071.55 418.188 1069.75 419.992 1069.75 422.217V456.158C1069.75 458.383 1071.55 460.188 1073.78 460.188H1108.86C1111.09 460.188 1112.89 458.383 1112.89 456.158V422.217C1112.89 419.992 1111.09 418.188 1108.86 418.188Z" fill="#DEDFE6"/>
<path d="M1146.04 215.127C1143.89 209.118 1140.58 203.592 1136.29 198.863C1132.01 194.134 1126.84 190.296 1121.07 187.567C1115.3 184.837 1109.05 183.271 1102.68 182.957C1096.3 182.643 1089.93 183.588 1083.92 185.737C1077.91 187.886 1072.38 191.198 1067.66 195.482C1062.93 199.767 1059.09 204.942 1056.36 210.71C1053.63 216.479 1052.06 222.728 1051.75 229.102C1051.44 235.475 1052.38 241.848 1054.53 247.857C1054.9 248.857 1055.3 249.857 1055.73 250.857C1057.62 255.243 1060.16 259.321 1063.26 262.957C1070.63 271.613 1080.8 277.411 1092 279.342C1103.21 281.274 1114.73 279.217 1124.58 273.53C1134.42 267.842 1141.96 258.884 1145.88 248.213C1149.8 237.543 1149.86 225.835 1146.04 215.127ZM1112.55 265.797C1103.85 268.902 1094.3 268.584 1085.82 264.908C1077.35 261.231 1070.59 254.471 1066.91 245.997C1066.59 245.257 1066.29 244.497 1066.01 243.727C1063.58 236.944 1063.21 229.592 1064.96 222.601C1066.7 215.609 1070.48 209.293 1075.82 204.45C1081.16 199.608 1087.81 196.457 1094.94 195.396C1102.06 194.335 1109.35 195.411 1115.86 198.489C1122.38 201.567 1127.83 206.508 1131.54 212.688C1135.25 218.867 1137.04 226.007 1136.69 233.205C1136.34 240.402 1133.86 247.334 1129.57 253.123C1125.28 258.912 1119.36 263.298 1112.58 265.727L1112.55 265.797Z" fill="#72ACFB"/>
<path d="M1065.54 220.628L1053.93 216.998C1056.95 207.352 1062.9 198.885 1070.95 192.774C1079 186.663 1088.76 183.212 1098.86 182.898L1099.22 195.058C1091.65 195.294 1084.33 197.881 1078.3 202.462C1072.26 207.042 1067.8 213.388 1065.54 220.618V220.628Z" fill="#385988"/>
<path d="M1066.91 246L1055.76 250.85C1055.33 249.85 1054.93 248.85 1054.56 247.85C1050.99 237.911 1050.77 227.076 1053.93 217L1065.54 220.62C1063.17 228.175 1063.33 236.298 1066.01 243.75C1066.29 244.53 1066.59 245.29 1066.91 246Z" fill="#4772B0"/>
<path d="M1063.29 262.997C1060.19 259.361 1057.65 255.282 1055.76 250.897L1066.91 246.047C1068.34 249.332 1070.24 252.388 1072.56 255.117L1063.29 262.997Z" fill="#5886C7"/>
<path d="M1173.89 218.102H1165.28V279.382H1173.89V218.102Z" fill="#DEDEDE"/>
<path d="M1195.25 230.547H1186.65V279.377H1195.25V230.547Z" fill="#DEDEDE"/>
<path d="M1216.61 221.391H1208.01V279.381H1216.61V221.391Z" fill="#DEDEDE"/>
<path d="M1237.98 239.477H1229.37V279.377H1237.98V239.477Z" fill="#DEDEDE"/>
<path d="M1259.34 223.273H1250.74V279.393H1259.34V223.273Z" fill="#DEDEDE"/>
<path d="M1280.7 214.812H1272.1V279.383H1280.7V214.812Z" fill="#DEDEDE"/>
<path d="M1302.07 211.289H1293.47V279.389H1302.07V211.289Z" fill="#DEDEDE"/>
<path d="M1173.89 240.938H1165.28V279.388H1173.89V240.938Z" fill="#DF655A"/>
<path d="M1195.25 248.75H1186.65V279.39H1195.25V248.75Z" fill="#DF655A"/>
<path d="M1216.61 243H1208.01V279.39H1216.61V243Z" fill="#DF655A"/>
<path d="M1237.98 254.352H1229.37V279.382H1237.98V254.352Z" fill="#DF655A"/>
<path d="M1259.34 244.18H1250.74V279.39H1259.34V244.18Z" fill="#DF655A"/>
<path d="M1280.7 238.867H1272.1V279.377H1280.7V238.867Z" fill="#DF655A"/>
<path d="M1302.07 236.656H1293.47V279.376H1302.07V236.656Z" fill="#DF655A"/>
<path d="M1325.64 218.102H1317.04V279.382H1325.64V218.102Z" fill="#DEDEDE"/>
<path d="M1347 230.547H1338.4V279.377H1347V230.547Z" fill="#DEDEDE"/>
<path d="M1368.37 221.391H1359.77V279.381H1368.37V221.391Z" fill="#DEDEDE"/>
<path d="M1389.73 239.477H1381.13V279.377H1389.73V239.477Z" fill="#DEDEDE"/>
<path d="M1325.64 240.938H1317.04V279.388H1325.64V240.938Z" fill="#DF655A"/>
<path d="M1347 248.75H1338.4V279.39H1347V248.75Z" fill="#DF655A"/>
<path d="M1368.37 243H1359.77V279.39H1368.37V243Z" fill="#DF655A"/>
<path d="M1389.73 254.352H1381.13V279.382H1389.73V254.352Z" fill="#DF655A"/>
<path d="M1386.46 187.828L1163.78 187.828C1162.91 187.828 1162.08 187.483 1161.46 186.867C1160.85 186.252 1160.5 185.418 1160.5 184.548V182.348C1160.5 181.478 1160.85 180.644 1161.46 180.029C1162.08 179.414 1162.91 179.068 1163.78 179.068L1386.46 179.068C1386.89 179.068 1387.32 179.153 1387.71 179.317C1388.11 179.481 1388.47 179.722 1388.77 180.026C1389.08 180.33 1389.32 180.69 1389.48 181.087C1389.65 181.483 1389.73 181.909 1389.73 182.338V184.538C1389.73 185.408 1389.38 186.242 1388.77 186.857C1388.15 187.473 1387.32 187.818 1386.45 187.818L1386.46 187.828Z" fill="#72ACFB"/>
<path d="M1386.46 203.102L1163.78 203.102C1162.91 203.102 1162.08 202.756 1161.46 202.141C1160.85 201.526 1160.5 200.691 1160.5 199.822V197.622C1160.5 196.752 1160.85 195.917 1161.46 195.302C1162.08 194.687 1162.91 194.342 1163.78 194.342L1386.46 194.342C1387.33 194.342 1388.16 194.686 1388.77 195.299C1389.39 195.913 1389.73 196.744 1389.73 197.612V199.812C1389.73 200.242 1389.65 200.669 1389.48 201.068C1389.32 201.466 1389.08 201.828 1388.78 202.134C1388.47 202.439 1388.11 202.682 1387.71 202.848C1387.32 203.014 1386.89 203.1 1386.46 203.102Z" fill="#BFD4FC"/>
<g style="mix-blend-mode:hard-light">
<path d="M1301.97 305.297H1218.43C1212.68 305.297 1208.01 309.962 1208.01 315.717V472.027C1208.01 477.782 1212.68 482.447 1218.43 482.447H1301.97C1307.72 482.447 1312.39 477.782 1312.39 472.027V315.717C1312.39 309.962 1307.72 305.297 1301.97 305.297Z" fill="#F4F4F4"/>
</g>
<path d="M1215.74 410.961H1215.28V469.521H1215.74V410.961Z" fill="#72ACFB"/>
<path d="M1237.94 410.961H1237.48V469.521H1237.94V410.961Z" fill="#72ACFB"/>
<path d="M1260.14 410.961H1259.68V469.521H1260.14V410.961Z" fill="#72ACFB"/>
<path d="M1282.34 410.961H1281.88V469.521H1282.34V410.961Z" fill="#72ACFB"/>
<path d="M1304.54 410.961H1304.08V469.521H1304.54V410.961Z" fill="#72ACFB"/>
<path d="M1215.5 445.778C1215.5 445.778 1224.5 453.398 1233.29 444.368C1242.08 435.338 1252.12 432.368 1261.04 439.928C1269.96 447.488 1273.42 437.098 1282.33 428.558C1291.24 420.018 1291.11 415.148 1304.33 415.148V469.518H1215.52L1215.5 445.778Z" fill="url(#paint13_linear_1601_6455)"/>
<path d="M1243.23 406.078H1237.71V408.208H1243.23V406.078Z" fill="#72ACFB"/>
<path d="M1222.79 406.078H1215.28V408.208H1222.79V406.078Z" fill="#72ACFB"/>
<path d="M1266.71 406.078H1259.91V408.208H1266.71V406.078Z" fill="#72ACFB"/>
<path d="M1288.68 406.078H1281.88V408.208H1288.68V406.078Z" fill="#72ACFB"/>
<path d="M1304.31 406.078H1297.51V408.208H1304.31V406.078Z" fill="#72ACFB"/>
<path d="M1300.43 367.578H1270.74V371.328H1300.43V367.578Z" fill="url(#paint14_linear_1601_6455)"/>
<path d="M1297.99 383.32H1270.74V387.08H1297.99V383.32Z" fill="url(#paint15_linear_1601_6455)"/>
<path d="M1294.32 375.453H1270.74V379.213H1294.32V375.453Z" fill="url(#paint16_linear_1601_6455)"/>
<path d="M1244.12 362.221C1244.12 363.248 1243.82 364.251 1243.25 365.105C1242.68 365.958 1241.86 366.623 1240.92 367.016C1239.97 367.409 1238.92 367.512 1237.92 367.312C1236.91 367.111 1235.99 366.617 1235.26 365.891C1234.53 365.165 1234.04 364.241 1233.84 363.234C1233.64 362.227 1233.74 361.183 1234.14 360.235C1234.53 359.287 1235.19 358.476 1236.05 357.906C1236.9 357.336 1237.9 357.031 1238.93 357.031C1240.31 357.031 1241.63 357.578 1242.6 358.551C1243.57 359.525 1244.12 360.845 1244.12 362.221Z" fill="#72ACFB"/>
<path d="M1248.3 379.139V388.999C1245.34 390.337 1242.14 391.029 1238.89 391.029C1235.65 391.029 1232.44 390.337 1229.48 388.999V379.129C1229.48 376.633 1230.47 374.24 1232.24 372.475C1234 370.71 1236.39 369.719 1238.89 369.719C1241.39 369.719 1243.78 370.71 1245.54 372.475C1247.31 374.24 1248.3 376.633 1248.3 379.129V379.139Z" fill="#72ACFB"/>
<path d="M1238.89 391.663C1235.55 391.671 1232.26 390.958 1229.22 389.573C1224.35 387.364 1220.39 383.555 1217.99 378.781C1215.59 374.006 1214.89 368.552 1216.02 363.329C1217.15 358.105 1220.04 353.425 1224.2 350.069C1228.36 346.713 1233.54 344.883 1238.89 344.883C1244.23 344.883 1249.41 346.713 1253.57 350.069C1257.73 353.425 1260.62 358.105 1261.75 363.329C1262.88 368.552 1262.18 374.006 1259.78 378.781C1257.38 383.555 1253.42 387.364 1248.55 389.573C1245.52 390.959 1242.22 391.672 1238.89 391.663ZM1238.89 346.133C1233.83 346.133 1228.92 347.867 1224.98 351.046C1221.04 354.224 1218.31 358.655 1217.24 363.602C1216.17 368.548 1216.83 373.712 1219.1 378.233C1221.38 382.755 1225.13 386.361 1229.74 388.453C1232.62 389.751 1235.73 390.423 1238.89 390.423C1242.05 390.423 1245.16 389.751 1248.04 388.453C1252.65 386.361 1256.4 382.755 1258.68 378.233C1260.95 373.712 1261.61 368.548 1260.54 363.602C1259.47 358.655 1256.74 354.224 1252.8 351.046C1248.86 347.867 1243.95 346.133 1238.89 346.133Z" fill="url(#paint17_linear_1601_6455)"/>
<path d="M1285.28 358.401C1282.48 358.403 1279.75 357.576 1277.43 356.024C1275.1 354.473 1273.29 352.267 1272.22 349.685C1271.15 347.103 1270.87 344.262 1271.41 341.52C1271.95 338.779 1273.3 336.26 1275.27 334.283C1277.25 332.306 1279.77 330.959 1282.51 330.413C1285.25 329.867 1288.09 330.146 1290.67 331.215C1293.26 332.284 1295.46 334.096 1297.02 336.419C1298.57 338.743 1299.4 341.476 1299.4 344.271C1299.39 348.015 1297.91 351.604 1295.26 354.253C1292.61 356.901 1289.02 358.393 1285.28 358.401ZM1285.28 332.971C1283.04 332.969 1280.86 333.63 1279 334.87C1277.14 336.111 1275.69 337.875 1274.83 339.939C1273.98 342.004 1273.75 344.276 1274.19 346.469C1274.62 348.662 1275.7 350.676 1277.28 352.257C1278.86 353.839 1280.87 354.916 1283.06 355.353C1285.25 355.79 1287.53 355.566 1289.59 354.711C1291.66 353.856 1293.42 352.408 1294.66 350.55C1295.91 348.691 1296.57 346.506 1296.57 344.271C1296.56 341.281 1295.37 338.418 1293.25 336.306C1291.13 334.194 1288.27 333.006 1285.28 333.001V332.971Z" fill="#72ACFB"/>
<path d="M1259.12 316.109H1237.83V319.499H1259.12V316.109Z" fill="#72ACFB"/>
<path d="M1259.12 324.859H1240.97V328.259H1259.12V324.859Z" fill="#72ACFB"/>
<path d="M1259.12 333.609H1229.94V336.999H1259.12V333.609Z" fill="#72ACFB"/>
<g style="mix-blend-mode:hard-light">
<path d="M1387.1 304.93H1321.63C1320.18 304.93 1319 306.107 1319 307.56V352.73C1319 354.182 1320.18 355.36 1321.63 355.36H1387.1C1388.55 355.36 1389.73 354.182 1389.73 352.73V307.56C1389.73 306.107 1388.55 304.93 1387.1 304.93Z" fill="#F4F4F4"/>
</g>
<path d="M1347.92 318.227H1326.18C1325.37 318.227 1324.71 318.885 1324.71 319.697V320.347C1324.71 321.158 1325.37 321.817 1326.18 321.817H1347.92C1348.73 321.817 1349.39 321.158 1349.39 320.347V319.697C1349.39 318.885 1348.73 318.227 1347.92 318.227Z" fill="url(#paint18_linear_1601_6455)"/>
<path d="M1342.75 310.102H1326.01C1325.29 310.102 1324.71 310.684 1324.71 311.402V312.392C1324.71 313.11 1325.29 313.692 1326.01 313.692H1342.75C1343.47 313.692 1344.05 313.11 1344.05 312.392V311.402C1344.05 310.684 1343.47 310.102 1342.75 310.102Z" fill="url(#paint19_linear_1601_6455)"/>
<path d="M1324.71 348.388L1339.02 334.088L1343.3 338.368L1358.99 322.668L1365.96 329.628L1384.19 311.398V348.388H1324.71Z" fill="#72ACFB"/>
<path d="M1384.02 348.391V320.031L1365.22 338.831L1358.49 332.101L1347.26 343.321L1338.76 339.941L1324.71 348.391H1384.02Z" fill="#558AD8"/>
<path d="M1341.32 595.306C1341.32 595.306 1336.05 602.716 1336.77 603.886C1337.49 605.056 1343.04 605.226 1346.42 603.886C1349.8 602.546 1349.87 593.886 1351.42 590.136C1352.06 588.576 1350.69 583.966 1348.77 583.636C1347.4 583.493 1346.02 583.714 1344.77 584.276C1344.77 584.276 1346.73 589.536 1341.32 595.306Z" fill="#3A3D5D"/>
<path d="M1344.7 584.221C1344.02 586.229 1343.51 588.294 1343.18 590.391C1342.85 592.891 1339.42 598.191 1339.59 598.861C1339.76 599.531 1344.09 600.141 1345.85 598.411C1347.61 596.681 1348.76 591.651 1349.15 588.641C1349.3 587.226 1349.58 585.828 1349.97 584.461C1349.97 584.461 1346.38 582.381 1344.7 584.221Z" fill="#DBA585"/>
<path d="M1387.21 595.433C1387.21 595.433 1382.13 602.723 1382.85 603.893C1383.57 605.063 1389.12 605.233 1392.5 603.893C1395.88 602.553 1395.95 593.893 1397.5 590.143C1398.14 588.583 1396.77 583.973 1394.85 583.643C1393.42 583.514 1391.98 583.762 1390.67 584.363C1390.67 584.363 1392.62 589.663 1387.21 595.433Z" fill="#3A3D5D"/>
<path d="M1390.65 584.359C1390.43 586.33 1390.1 588.287 1389.65 590.219C1389.01 592.649 1385.55 598.219 1385.72 598.859C1385.89 599.499 1390.21 600.139 1391.98 598.409C1393.75 596.679 1395.12 591.669 1395.28 588.639C1395.4 586.961 1395.26 585.276 1394.88 583.639C1394.88 583.639 1392.34 582.509 1390.65 584.359Z" fill="#DBA585"/>
<path d="M1365.25 463.78C1365.25 463.78 1360.73 485.78 1359.69 491.27C1358.65 496.76 1355.69 523.58 1355.43 528.13C1355.17 532.68 1350.71 549.84 1350.92 551.47C1351.13 553.1 1344.38 585.76 1344.38 585.76C1345.04 586.301 1345.86 586.612 1346.71 586.644C1347.57 586.677 1348.41 586.429 1349.11 585.94C1350.36 585.04 1363.91 555.36 1363.91 547.22C1363.91 535.98 1371.91 521.31 1372.91 518.8C1382.46 495.43 1380.58 488.29 1381.83 486.8C1383.08 485.31 1383.18 487.73 1383.91 491.09C1384.64 494.45 1386.19 523.51 1387.13 527.2C1388.07 530.89 1387.34 543.35 1387.86 549.64C1388.38 555.93 1390.66 584.38 1390.66 584.38C1390.66 584.38 1392.42 587.26 1394.9 584.45C1395.43 583.84 1399.18 552.76 1399.28 545.28C1399.38 537.8 1399.5 527.48 1399.7 524.28C1401.63 493.28 1406.36 488.85 1398.91 466.91C1384.94 425.78 1365.25 463.78 1365.25 463.78Z" fill="#DBA585"/>
<path d="M1395.63 457.642C1395.63 457.642 1408.52 476.462 1402.97 516.502C1402.97 516.502 1372.4 520.842 1356.03 511.502C1356.03 511.502 1362.8 470.222 1365.25 463.802C1367.7 457.382 1395.63 457.642 1395.63 457.642Z" fill="#42466C"/>
<path d="M1351.54 589.492V597.242H1350.58V591.252L1351.54 589.492Z" fill="#3A3D5D"/>
<path d="M1397.62 589.492V597.242H1396.66V591.252L1397.62 589.492Z" fill="#3A3D5D"/>
<path d="M1380.35 374.167C1380.35 374.167 1371.72 382.867 1374.66 394.057C1377.6 405.247 1382.32 405.317 1387.53 400.507C1392.74 395.697 1395.8 390.617 1396.53 384.987C1397.26 379.357 1388.23 366.417 1380.35 374.167Z" fill="#DBA585"/>
<path d="M1378.66 411.512C1379.52 409.488 1380.25 407.41 1380.84 405.292C1381 404.712 1381.15 404.112 1381.27 403.522C1381.77 401.722 1381.82 399.827 1381.42 398.002C1380.04 393.942 1390.05 396.752 1390.05 396.752C1390.05 396.752 1388.11 407.512 1390.05 411.142C1391.99 414.772 1378.66 411.512 1378.66 411.512Z" fill="#DBA585"/>
<path d="M1404.04 416.642C1402.46 413.492 1401.29 412.482 1398.24 411.522C1396.54 410.992 1388.93 409.002 1388.93 409.002L1379.78 408.672C1376 409.316 1372.27 410.228 1368.62 411.402C1363.74 413.092 1357.35 422.332 1357.35 422.332C1357.35 422.332 1366.16 443.042 1367.85 448.982C1369.54 454.922 1368.42 464.122 1368.42 464.122C1378.99 469.872 1395.94 463.552 1395.94 463.552C1394.76 459.015 1394.53 454.282 1395.27 449.652C1395.35 449.192 1395.44 448.762 1395.54 448.352C1395.64 447.942 1395.76 447.462 1395.9 446.862C1395.91 446.835 1395.91 446.808 1395.9 446.782C1402.63 447.472 1408.9 447.782 1409.1 446.402C1409.85 440.332 1406.2 421.002 1404.04 416.642ZM1399.38 440.252C1399.11 440.252 1398.53 440.202 1397.92 440.152C1398.67 438.072 1399.5 436.222 1399.5 436.222C1399.97 437.552 1401.78 440.612 1399.37 440.252H1399.38Z" fill="#E6D8D1"/>
<path d="M1383.17 380.433C1383.17 380.433 1387.3 387.933 1389.86 390.623C1392.42 393.313 1392.12 395.453 1392.12 395.453C1392.12 395.453 1402.12 383.123 1394.99 375.673C1387.86 368.223 1378.66 371.233 1375.99 377.743C1373.32 384.253 1374.29 392.193 1374.29 392.193C1374.29 392.193 1374.35 384.563 1383.17 380.433Z" fill="#CD7250"/>
<path d="M1385.89 372.573C1385.89 372.573 1384.89 367.073 1393.51 364.893C1402.13 362.713 1406 372.633 1404.94 378.693C1403.88 384.753 1396.51 400.103 1400.5 402.103C1404.49 404.103 1406.06 399.793 1406.06 399.793C1406.06 399.793 1404.81 407.353 1399.25 405.603C1393.69 403.853 1394.45 391.603 1395.25 386.683C1396.05 381.763 1385.89 372.573 1385.89 372.573Z" fill="#CD7250"/>
<path d="M1388.67 399.422C1387.94 400.959 1386.84 402.296 1385.48 403.319C1384.11 404.341 1382.52 405.018 1380.84 405.292C1381 404.712 1381.15 404.112 1381.27 403.522C1381.27 403.522 1384.35 404.142 1388.67 399.422Z" fill="#997761"/>
<path d="M1399.37 436.292C1399.37 436.292 1398.96 437.162 1397.83 440.582C1396.68 430.982 1397.28 425.992 1397.28 425.992C1397.47 429.509 1398.18 432.979 1399.37 436.292Z" fill="#C8BCB6"/>
<path d="M1387.23 371.419C1387.23 371.419 1393.35 372.589 1396.4 377.569C1396.4 377.569 1395.78 373.059 1392.74 371.759C1391.01 370.978 1389.05 370.857 1387.23 371.419Z" fill="#E6D8D1"/>
<path d="M1395.89 446.857C1395.75 447.457 1395.62 447.987 1395.53 448.347C1395.44 448.707 1395.34 449.187 1395.26 449.647C1391.48 447.587 1388.76 445.977 1388.76 445.977C1389.78 446.197 1395.89 446.857 1395.89 446.857Z" fill="#C8BCB6"/>
<path d="M1389.43 409.144L1378.66 417.914L1379.77 408.674C1379.77 408.674 1386.04 407.314 1389.43 409.144Z" fill="#DBA585"/>
<path d="M1381.78 416.42L1378.67 417.91L1389.24 407.43L1381.78 416.42Z" fill="#CFC3BC"/>
<path d="M1396.53 446.099C1395.05 452.239 1400.53 466.099 1400.53 466.099L1389.67 469.499C1389.3 469.613 1388.91 469.649 1388.52 469.605C1388.14 469.56 1387.77 469.436 1387.43 469.241C1387.1 469.045 1386.81 468.782 1386.58 468.469C1386.35 468.155 1386.19 467.798 1386.11 467.419C1384.66 460.659 1381.25 444.019 1380.84 434.769C1380.32 422.969 1388.92 409.039 1388.92 409.039C1404.19 411.659 1400 434.769 1400 434.769C1400 434.769 1399.45 436.229 1398.71 438.499C1398.52 439.069 1398.32 439.689 1398.12 440.349C1397.6 441.999 1397.04 443.999 1396.53 446.099Z" fill="#4C507D"/>
<path d="M1378.69 409.172L1378.88 408.672C1378.88 408.672 1371.06 409.862 1367.08 411.842C1363.1 413.822 1355.49 424.092 1355.49 424.092L1365.49 437.232C1365.49 447.332 1363.86 465.292 1363.86 465.292L1368.41 467.912C1368.69 468.073 1369.01 468.159 1369.33 468.161C1369.65 468.163 1369.97 468.081 1370.25 467.922C1370.53 467.764 1370.77 467.535 1370.94 467.258C1371.1 466.981 1371.19 466.665 1371.2 466.342C1371.32 459.512 1371.63 443.342 1371.79 435.442C1372 425.342 1379.21 409.002 1379.21 409.002L1378.69 409.172Z" fill="#4C507D"/>
<path d="M1364.51 456.531C1364.51 456.531 1372.01 456.821 1373.18 456.531C1374.35 456.241 1382.18 452.861 1382.6 449.531C1383.02 446.201 1364.51 452.531 1364.51 452.531V456.531Z" fill="#DBA585"/>
<path d="M1387.8 446.109L1357.34 442.539L1371.1 453.739L1387.8 446.109Z" fill="#6D76BA"/>
<path d="M1371.1 453.739L1387.8 448.039V446.109L1370.54 451.639L1371.1 453.739Z" fill="#363957"/>
<path d="M1378.95 440.509C1377.63 440.512 1376.32 440.416 1375.02 440.219C1373.93 439.999 1371.21 440.309 1370.52 440.919C1369.83 441.529 1367.63 445.799 1367.21 446.059C1366.79 446.319 1367.43 446.929 1368.16 446.619C1368.16 446.619 1368.83 448.489 1370.48 447.789C1372.13 447.089 1373.26 445.569 1374.13 445.299C1375 445.029 1380.04 443.669 1380.04 443.669C1380.04 443.669 1380.25 440.059 1378.95 440.509Z" fill="#DBA585"/>
<path d="M1380.35 406.961L1374.55 416.141L1371.75 417.911L1378.28 408.761L1380.35 406.961Z" fill="#F3E4DC"/>
<path d="M1374.55 416.141L1378.67 417.911L1379.78 408.671L1380.35 406.961L1374.55 416.141Z" fill="#CFC3BC"/>
<path d="M1365.42 452.232C1365.42 452.232 1365.11 456.112 1365.42 456.922C1365.42 456.922 1346.64 455.052 1344.89 452.422C1343.81 450.67 1343.23 448.659 1343.2 446.602L1365.42 452.232Z" fill="#4C507D"/>
<path d="M1371.1 453.741L1362.22 420.711L1328.44 417.141L1337.7 447.541L1371.1 453.741Z" fill="#2A2B41"/>
<path d="M1389.24 407.43L1381.78 416.42L1385.86 420.06L1390.26 409.3L1389.24 407.43Z" fill="#F3E4DC"/>
<path d="M1398.96 437.704L1398.71 438.474C1398.52 439.044 1398.32 439.664 1398.12 440.324C1396.68 440.784 1384.2 439.864 1384.2 439.864C1384.2 439.864 1394.64 437.414 1398.96 437.704Z" fill="#414469"/>
<path d="M1398.24 440.077C1396.24 439.927 1392.93 439.707 1390.24 439.697C1386.05 439.697 1378.88 440.147 1378.88 440.147L1379.73 444.627C1379.73 444.627 1392.43 446.687 1399.37 447.177C1399.37 447.177 1408.52 448.227 1409.2 446.857C1409.88 445.487 1408.98 436.727 1407.49 428.857C1406 420.987 1404.49 416.407 1402.65 413.967C1400.81 411.527 1391.21 409.617 1391.21 409.617L1399.37 436.317C1399.92 437.385 1400.3 438.537 1400.48 439.727C1400.48 440.047 1400.25 440.187 1399.95 440.247L1398.68 440.137L1398.24 440.077Z" fill="#4C507D"/>
<path d="M368.14 353.619L18.5 151.749C16.6248 150.669 14.4986 150.101 12.3345 150.102C10.1704 150.103 8.04461 150.673 6.17042 151.755C4.29623 152.837 2.73952 154.392 1.65649 156.266C0.573465 158.14 0.00219607 160.265 9.32874e-07 162.429V566.159C-0.000841223 568.324 0.568526 570.452 1.65083 572.327C2.73313 574.202 4.29021 575.76 6.16542 576.842C8.04064 577.925 10.1679 578.494 12.3331 578.494C14.4984 578.493 16.6253 577.923 18.5 576.839L368.14 374.999C370.02 373.918 371.582 372.361 372.668 370.484C373.754 368.608 374.326 366.477 374.326 364.309C374.326 362.141 373.754 360.011 372.668 358.134C371.582 356.257 370.02 354.7 368.14 353.619Z" fill="white"/>
<path d="M32.6601 310.21C34.1068 313.681 36.0322 316.933 38.3801 319.87L34.9801 327L41.8501 332.15L48.7201 337.31L54.6201 332.04C58.0938 333.478 61.7533 334.417 65.4901 334.83L68.1201 342.28L76.6201 341.06L85.1201 339.85L85.5701 331.97C89.0361 330.519 92.2838 328.594 95.2201 326.25L102.36 329.65L107.51 322.78L112.66 315.91L107.4 310.01C108.838 306.536 109.777 302.877 110.19 299.14L117.64 296.51L116.42 288.01L115.21 279.51L107.32 279.06C105.875 275.588 103.949 272.336 101.6 269.4L105 262.27L98.1401 257.12L91.2701 252L85.3701 257.26C81.8959 255.824 78.2365 254.885 74.5001 254.47L71.8601 247L63.3601 248.22L54.8601 249.43L54.4201 257.32C50.9495 258.751 47.6976 260.663 44.7601 263L37.6301 259.59L32.4801 266.46L27.3201 273.33L32.5901 279.23C31.1523 282.704 30.213 286.363 29.8001 290.1L22.3501 292.73L23.5601 301.24L24.7801 309.74L32.6601 310.21ZM65.7401 264.85C71.6334 264.006 77.6445 264.93 83.0128 267.504C88.381 270.078 92.8651 274.186 95.8975 279.31C98.93 284.433 100.375 290.34 100.048 296.285C99.7223 302.229 97.6401 307.943 94.0654 312.704C90.4907 317.465 85.5841 321.058 79.9665 323.029C74.3489 325 68.2729 325.261 62.5072 323.778C56.7415 322.294 51.5454 319.134 47.5764 314.697C43.6073 310.26 41.0438 304.745 40.2101 298.85C39.0938 290.957 41.1552 282.943 45.9418 276.569C50.7284 270.194 57.8489 265.98 65.7401 264.85Z" fill="url(#paint20_linear_1601_6455)"/>
<path d="M32.6802 222.283C33.3397 223.873 34.2219 225.361 35.3002 226.702L33.7402 230.003L36.8902 232.363L40.0402 234.702L42.7402 232.292C44.3393 232.949 46.0222 233.38 47.7402 233.573L48.9302 237.003L52.8302 236.443L56.7302 235.893L56.9302 232.273C58.5214 231.609 60.0124 230.727 61.3602 229.652L64.6302 231.213L67.0402 228.003L69.4002 224.853L66.9902 222.152C67.646 220.553 68.0768 218.87 68.2702 217.152L71.6802 215.952L71.0402 212.103L70.4902 208.202L66.8702 208.003C66.2092 206.41 65.3272 204.919 64.2502 203.573L65.8102 200.303L62.6602 197.943L59.5102 195.583L56.8402 198.003C55.2422 197.342 53.5588 196.911 51.8402 196.723L50.6302 193.312L46.7302 193.863L42.8302 194.423L42.6302 198.033C41.0366 198.695 39.5451 199.581 38.2002 200.663L34.9302 199.103L32.5702 202.253L30.2102 205.393L32.6202 208.103C31.9588 209.7 31.5278 211.384 31.3402 213.103L27.9302 214.312L28.4802 218.213L29.0402 222.103L32.6802 222.283ZM47.8402 201.482C50.5397 201.099 53.2924 201.524 55.7504 202.704C58.2083 203.885 60.2611 205.767 61.6494 208.114C63.0377 210.461 63.699 213.167 63.5499 215.889C63.4008 218.612 62.448 221.229 60.8117 223.41C59.1755 225.592 56.9294 227.239 54.3572 228.144C51.7851 229.049 49.0024 229.171 46.3609 228.495C43.7194 227.818 41.3376 226.374 39.5166 224.345C37.6956 222.315 36.5172 219.792 36.1302 217.092C35.6134 213.47 36.5568 209.79 38.7527 206.863C40.9487 203.935 44.2175 202 47.8402 201.482Z" fill="url(#paint21_linear_1601_6455)"/>
<path d="M295.96 327.068C295.96 327.068 316.96 320.228 318.7 320.998C320.44 321.768 320.64 322.998 318.7 323.688C316.76 324.378 298.53 330.898 298.53 330.898C298.53 330.898 324.53 327.158 326.06 327.448C326.97 327.628 327.55 329.918 326.53 330.448C325.51 330.978 299.9 336.188 299.9 336.188C299.9 336.188 324.17 332.738 325.37 333.398C325.648 333.608 325.859 333.893 325.98 334.22C326.1 334.546 326.125 334.9 326.05 335.24C325.975 335.58 325.804 335.892 325.558 336.138C325.312 336.384 325 336.554 324.66 336.628C322.87 337.018 300.46 341.558 300.46 341.558C300.46 341.558 318.22 340.208 318.9 341.408C319.31 342.148 319.9 344.098 315.31 344.298C310.72 344.498 299.9 346.158 299.9 346.158L295.96 327.068Z" fill="#EEA886"/>
<path d="M272.79 338.849C272.79 338.849 279.59 336.139 280.08 331.849C280.5 328.189 283.53 323.669 284.46 322.269C285.7 320.399 287.56 313.269 289.74 314.789C291.92 316.309 287.21 326.679 286.62 329.039C286.03 331.399 295.33 326.369 297.62 326.819C299.91 327.269 306.27 343.569 299.55 346.259C292.83 348.949 284.17 347.259 283.07 347.959C281.505 348.775 279.892 349.496 278.24 350.119L272.79 338.849Z" fill="#EEA886"/>
<path d="M190.75 460.941C190.9 462.941 191.06 464.781 191.22 466.461H93.83C93.83 464.821 93.91 462.951 93.94 460.941C94.27 444.701 94.75 418.091 94.54 408.031C94.27 393.681 91.25 356.391 90.65 354.241C90.65 354.241 69.28 323.191 46.87 384.481C42.25 397.101 84.67 428.751 79.39 429.721C74.11 430.691 74.39 440.721 74.39 440.721C74.39 440.721 34.44 405.921 35.26 395.671C35.71 389.981 66.99 307.251 71.77 303.831C75.04 301.461 95.44 293.261 106.04 289.241C109.105 287.961 112.252 286.885 115.46 286.021C117.88 285.871 147.8 288.741 147.8 288.741C147.8 288.741 152.09 290.201 156.48 292.221C163.98 295.651 175.65 301.001 184.04 305.001C186.75 306.291 190.13 308.001 192.94 309.511C192.6 319.678 192 330.588 191.14 342.241C191.14 342.241 189.58 367.701 189.44 393.421C188.09 399.241 188.33 412.771 188.33 412.771C187.95 425.601 189.38 438.771 189.76 446.121C189.96 450.741 190.35 456.131 190.75 460.941Z" fill="#DBD8E3"/>
<path d="M194.95 460.94C193.55 451.84 192.21 442.36 191.11 433.29V433.22C190.93 431.75 190.76 430.28 190.58 428.83C190.585 428.757 190.585 428.684 190.58 428.61C189.88 422.47 189.3 416.61 188.88 411.22C188.611 407.183 188.792 403.128 189.42 399.13C191.08 371.64 191.91 342.64 191.91 342.64C192.79 330.76 193.3 319.64 193.64 309.33C193.64 309.33 156.07 291.59 152.64 290.57C152.64 290.57 159.76 307.3 165.1 344.7C167.16 359.07 170.97 383.25 173.74 407.93C174.83 417.66 176.62 427.52 178.33 436.8C179.95 445.55 181.49 453.8 182.33 460.94C182.39 461.37 182.44 461.81 182.49 462.24C182.61 463.47 182.77 464.89 182.94 466.46H195.83C195.53 464.64 195.23 462.79 194.95 460.94Z" fill="#323657"/>
<path d="M128.77 417.202C127.06 433.782 125.19 447.202 123.68 460.942C123.48 462.769 123.283 464.609 123.09 466.462H83.5799C84.0899 464.632 84.5799 462.792 85.0799 460.942C89.3199 444.942 92.6999 428.632 92.6999 418.732C92.6999 418.732 84.4799 359.592 81.6999 350.072C81.6999 350.072 56.8199 368.462 51.0099 381.202C45.8099 392.582 83.9199 427.362 83.4799 428.542C80.9199 435.392 71.0399 447.912 71.0399 447.912C71.0399 447.912 12.0399 384.532 12.7699 376.722C13.3299 371.042 62.7699 307.872 67.5699 304.452C70.3399 302.452 90.7699 295.232 100.8 291.272C102.64 290.542 108.61 288.272 110.25 287.672C112.37 290.042 127.32 306.122 132.5 367.252C133.38 377.562 130.62 399.382 128.77 417.202Z" fill="#323657"/>
<path d="M118.23 289.198C118.23 289.198 118.04 278.928 114.04 258.148C112.98 252.588 146.34 272.788 146.34 272.788C146.34 272.788 146.23 274.738 146.17 277.368C146.17 278.758 146.11 280.368 146.12 281.918C146.12 282.468 146.12 283.028 146.12 283.578C146.12 285.048 146.22 286.458 146.34 287.648C146.568 289.018 146.944 290.359 147.46 291.648C148.87 294.828 129.46 297.238 118.23 289.198Z" fill="#EEA987"/>
<path d="M139.04 300L144.57 307.42C144.57 307.42 141.33 311.76 135.57 308.56L139.04 300Z" fill="#D44040"/>
<path d="M143.09 307.703C143.09 307.703 164.09 388.433 159.74 451.273L152.74 463.703L146.13 450.703C146.13 450.703 144.32 338.293 138.57 307.523L143.09 307.703Z" fill="#D44040"/>
<path d="M144.96 293.002L139.04 300.002C139.04 300.002 129.54 298.152 126.75 293.192C123.96 288.232 144.96 293.002 144.96 293.002Z" fill="#EEA987"/>
<path d="M146.32 287C146.32 287 145.63 292.28 139.04 300L146.24 309.66L150.13 289.61L146.32 287Z" fill="#C4C1CC"/>
<path d="M117.68 282C117.68 282 129.44 296.17 139.04 300L134.58 311L112.22 287L117.68 282Z" fill="#C4C1CC"/>
<path d="M290.46 350.382C290.46 350.382 239.78 405.432 227.82 402.492C222.29 401.132 213.92 391.592 207 382.622C204.72 379.622 202.48 376.562 200.35 373.492C191.86 361.232 185.2 349.492 185.2 349.492C185.2 349.492 160.11 320.082 180.25 306.972C180.25 306.972 188.73 306.122 193.56 309.682C198.02 312.972 208.86 333.682 210.62 337.512C212.38 341.342 226.08 368.402 227.35 369.202C228.62 370.002 242.08 361.932 249.27 357.092C260.88 349.272 275.48 335.642 275.48 335.642L290.46 350.382Z" fill="#323657"/>
<path d="M163.92 221.647C163.92 221.647 171.25 235.237 167.62 237.347C164.62 239.097 171.13 252.427 171.98 254.607C172.83 256.787 166.55 258.367 165.21 259.767C163.87 261.167 159.92 278.417 154.74 278.937C149.56 279.457 126.23 271.347 119.87 264.737C113.51 258.127 108.3 228.287 112.54 215.737C116.78 203.187 151.04 197.917 163.92 221.647Z" fill="#EEA886"/>
<path d="M165.38 224.601C165.38 224.601 172.86 209.931 159.28 199.041C145.7 188.151 120.64 207.261 117.81 208.041C114.98 208.821 98.9698 209.821 107.04 238.001C114.04 262.151 114.96 263.171 114.96 263.171C114.96 263.171 120.14 249.171 123.08 247.041C127.66 243.711 137.72 244.511 137.72 244.511C137.72 244.511 132.93 231.791 140.42 229.981C147.91 228.171 157.8 221.781 165.38 224.601Z" fill="#D88A51"/>
<path d="M129.76 237.173C129.1 235.433 126.97 227.933 120.53 232.333C114.09 236.733 124.53 250.883 125.66 251.063C126.79 251.243 135.32 251.863 129.76 237.173Z" fill="#EEA886"/>
<path d="M146.14 281.918C146.14 282.468 146.14 283.028 146.14 283.578C127.06 277.178 123.37 267.578 123.37 267.578C129.37 271.788 146.17 277.408 146.17 277.408C146.15 278.758 146.13 280.328 146.14 281.918Z" fill="#A77860"/>
<path d="M76.6203 428.33C77.6803 429.195 78.9772 429.718 80.3403 429.83C83.6403 429.83 87.4003 426.21 90.8603 429.47C94.3203 432.73 87.0403 446.6 84.4203 448.23C81.8003 449.86 75.8503 446.93 69.4903 439.23C63.1303 431.53 76.6203 428.33 76.6203 428.33Z" fill="#EEA886"/>
<path d="M89.5296 428.539C94.234 430.211 98.8441 432.137 103.34 434.309C109.58 437.359 116.91 442.009 116.16 443.599C115.03 445.999 109.46 441.489 103.06 438.889C97.1696 436.499 97.9296 437.969 97.9296 437.969C97.9296 437.969 97.7396 437.539 103.64 441.409C109.99 445.569 116.64 450.309 116.06 451.619C115.33 453.239 115.06 453.379 112.55 452.249C113.87 453.249 113.8 453.719 113.44 454.319C111.62 457.419 101.33 452.769 97.2396 450.929C100.37 452.359 102.52 453.759 100.17 454.929C97.4996 456.279 83.2496 449.039 77.8896 446.929C72.0396 444.659 89.5296 428.539 89.5296 428.539Z" fill="#EEA886"/>
<path d="M83.5099 428.541C83.5099 428.541 82.0399 437.001 71.0399 447.911C71.0399 447.911 45.6899 419.911 41.1699 414.721L60.9999 403.211L83.5099 428.541Z" fill="#323657"/>
<path d="M375.17 460.938H26.4502V466.457H375.17V460.938Z" fill="url(#paint22_linear_1601_6455)"/>
<path d="M300.09 493.711H338.05V491.461H300.09V493.711Z" fill="#E2D2CA"/>
<path d="M332.97 499.57H329.64V602.05H332.97V499.57Z" fill="#706865"/>
<path d="M279.65 494.039H306.04V490.819H279.65V494.039Z" fill="#CCBDB7"/>
<path d="M287.85 493.703H297.84V463.353H287.85V493.703Z" fill="#4667A8"/>
<path d="M205.48 499.57H351.67V493.74H205.48V499.57Z" fill="#B59074"/>
<path d="M379.72 458.481C379.72 458.481 381.32 480.901 376.94 483.581C374.2 485.261 363.25 490.931 363.58 492.001C363.91 493.071 369.76 501.461 369.76 501.461C369.76 501.461 390.76 487.621 391.45 483.251C392.14 478.881 390.45 450.421 387.53 449.111C385.37 448.111 384.22 448.941 381.53 450.961C377.67 453.801 379.72 458.481 379.72 458.481Z" fill="#4E94F7"/>
<path d="M341.41 464.881L339.56 464.191C339.56 464.191 341.87 458.771 342.88 458.901C343.759 459.032 344.63 459.213 345.49 459.441L341.41 464.881Z" fill="#EAD8CF"/>
<path d="M341.04 465.809C341.28 465.639 344.98 458.539 344.98 458.539L352.89 459.609L348.56 467.999L341.04 465.809Z" fill="#DA9B5B"/>
<path d="M353.86 588.05C353.86 588.05 354.51 592.59 354.6 593.27C354.69 593.95 361.87 592.87 361.87 592.87L362.45 587.47C362.45 587.47 354.76 587.42 353.86 588.05Z" fill="#424773"/>
<path d="M354.52 592.701C353.236 594.229 351.725 595.551 350.04 596.621C347.84 597.811 344.37 598.291 343.04 599.521C342.1 600.411 339.62 604.241 348.77 604.171C357.92 604.101 362.33 604.711 363.31 603.241C364.29 601.771 361.89 592.391 361.89 592.391C361.89 592.391 359.75 593.171 354.52 592.701Z" fill="#292C47"/>
<path d="M307.8 588.099C307.8 588.099 308.45 592.639 308.53 593.319C308.61 593.999 315.81 592.909 315.81 592.909L316.39 587.509C316.39 587.509 308.7 587.459 307.8 588.099Z" fill="#424773"/>
<path d="M308.46 592.74C307.175 594.27 305.665 595.595 303.98 596.67C301.77 597.86 293.67 598.84 292.36 600.07C291.42 600.96 289.86 604.54 302.73 604.21C311.88 603.97 316.3 604.75 317.28 603.28C318.26 601.81 315.86 592.43 315.86 592.43C315.86 592.43 313.82 593.27 308.46 592.74Z" fill="#292C47"/>
<path d="M377.04 509.68C377.04 509.68 350.9 514.11 345.04 515.03C339.18 515.95 307.12 523.93 303.12 526.35C299.93 528.29 304.79 574.69 305.93 592.35H318.54L319.45 539.25C334.58 539.62 345.38 535.71 356.39 537.38C367.4 539.05 376.6 541.43 383.6 532.04C383.57 532.08 383.83 511.74 377.04 509.68Z" fill="#292C47"/>
<path d="M351.29 592.434L363.57 591.674L364.77 539.294C369.455 539.436 374.142 539.138 378.77 538.404L388.69 515.344C379.99 517.084 352.14 524.104 348.42 526.344C345.26 528.294 350.15 574.734 351.29 592.434Z" fill="#292C47"/>
<path d="M365.04 411.709C365.04 411.709 355.46 409.059 351.8 416.499C348.14 423.939 349.8 438.039 354.63 439.359C359.46 440.679 366.4 439.159 368.41 434.529C370.42 429.899 372.01 423.329 371.53 419.069C371.05 414.809 367.56 412.729 365.04 411.709Z" fill="#EEA886"/>
<path d="M357.11 437.88C357.11 437.88 357.22 443.54 356.6 444.74C355.98 445.94 369.94 445.65 369.94 445.65C369.94 445.65 367.74 438.85 368.99 433.07C370.24 427.29 357.11 437.88 357.11 437.88Z" fill="#EEA886"/>
<path d="M369.74 430.918C369.74 430.918 368.99 432.438 365.38 432.198C361.77 431.958 356.99 427.588 355.46 427.198C353.93 426.808 353.83 425.938 353.83 425.938L353.02 427.378L351.45 427.618C351.45 427.618 352.52 423.248 350.19 421.708C347.86 420.168 351.24 407.778 363.03 410.768C363.03 410.768 372.03 412.408 372.14 417.438C372.25 422.468 371.49 428.258 369.74 430.918Z" fill="#3A3F47"/>
<path d="M355.86 444.602C355.86 444.602 355.86 442.292 356.95 442.072C358.04 441.852 367.95 440.492 369.21 440.992L369.76 443.992C369.76 443.992 367.29 445.552 355.86 444.602Z" fill="#E2D2CA"/>
<path d="M353.04 424.912C353.31 423.022 355.45 420.852 356.68 423.792C357.91 426.732 355.85 431.022 354.47 430.792C353.09 430.562 352.62 427.472 353.04 424.912Z" fill="#EEA886"/>
<path d="M314.25 471.82C314.19 471.85 314.2 471.85 314.25 471.82V471.82Z" fill="#323657"/>
<path d="M367.81 413.056C367.81 413.056 379.5 412.506 369.81 430.736L367.81 413.056Z" fill="#3A3F47"/>
<path d="M393.85 598.648L392.98 601.088L356.26 589.708L358.01 584.758L393.85 598.648Z" fill="#918783"/>
<path d="M355 587.969H359.17V548.049H355V587.969Z" fill="#918783"/>
<path d="M344.77 548.281H369.39V545.931H344.77V548.281Z" fill="#5E5854"/>
<path d="M320 598.653L320.87 601.093L357.59 589.713L355.97 584.453L320 598.653Z" fill="#918783"/>
<path d="M345.87 600.833V603.673L357.59 589.713L355.97 584.453L345.87 600.833Z" fill="#918783"/>
<path d="M316.56 602.047C316.558 602.728 316.758 603.395 317.135 603.962C317.512 604.529 318.05 604.972 318.679 605.233C319.308 605.495 320 605.564 320.668 605.432C321.336 605.299 321.95 604.971 322.432 604.49C322.914 604.008 323.242 603.394 323.374 602.726C323.506 602.058 323.437 601.365 323.176 600.736C322.914 600.107 322.472 599.57 321.905 599.193C321.337 598.816 320.671 598.615 319.99 598.617C319.081 598.62 318.21 598.982 317.567 599.625C316.924 600.267 316.562 601.138 316.56 602.047Z" fill="#BFB2AC"/>
<path d="M345.58 602.047C345.58 602.726 345.781 603.389 346.158 603.953C346.535 604.517 347.071 604.957 347.697 605.216C348.324 605.476 349.014 605.544 349.679 605.411C350.345 605.279 350.956 604.952 351.435 604.473C351.915 603.993 352.242 603.382 352.374 602.716C352.507 602.051 352.439 601.361 352.179 600.735C351.919 600.108 351.48 599.572 350.916 599.195C350.352 598.818 349.688 598.617 349.01 598.617C348.1 598.617 347.228 598.979 346.585 599.622C345.941 600.265 345.58 601.137 345.58 602.047Z" fill="#BFB2AC"/>
<path d="M390.41 602.047C390.408 602.728 390.609 603.395 390.986 603.962C391.363 604.529 391.9 604.972 392.529 605.233C393.158 605.495 393.851 605.564 394.519 605.432C395.187 605.299 395.801 604.971 396.283 604.49C396.764 604.008 397.092 603.394 397.225 602.726C397.357 602.058 397.288 601.365 397.026 600.736C396.765 600.107 396.322 599.57 395.755 599.193C395.188 598.816 394.521 598.615 393.84 598.617C392.931 598.62 392.06 598.982 391.418 599.625C390.775 600.267 390.413 601.138 390.41 602.047Z" fill="#BFB2AC"/>
<path d="M332.16 545.922H381.68C384.11 545.922 386.08 543.952 386.08 541.522V541.412C386.08 538.982 384.11 537.012 381.68 537.012H332.16C329.73 537.012 327.76 538.982 327.76 541.412V541.522C327.76 543.952 329.73 545.922 332.16 545.922Z" fill="#E2D2CA"/>
<path d="M224.17 602.047H227.5V499.567H224.17V602.047Z" fill="#706865"/>
<path d="M254.09 477.977H331.59C334.015 477.977 335.98 476.011 335.98 473.587V421.507C335.98 419.082 334.015 417.117 331.59 417.117H254.09C251.666 417.117 249.7 419.082 249.7 421.507V473.587C249.7 476.011 251.666 477.977 254.09 477.977Z" fill="#5F8BE3"/>
<path d="M253.08 468.438H332.6V420.397H253.08V468.438Z" fill="#F5F7FF"/>
<path d="M253.08 424.227H332.6V420.407H253.08V424.227Z" fill="#CECFD6"/>
<path d="M314.33 430.656H328.88C329.691 430.656 330.35 429.998 330.35 429.186V428.566C330.35 427.754 329.691 427.096 328.88 427.096H314.33C313.518 427.096 312.86 427.754 312.86 428.566V429.186C312.86 429.998 313.518 430.656 314.33 430.656Z" fill="#CECFD6"/>
<path d="M315.89 466.461H327.32C328.993 466.461 330.35 465.104 330.35 463.431V436.071C330.35 434.398 328.993 433.041 327.32 433.041H315.89C314.216 433.041 312.86 434.398 312.86 436.071V463.431C312.86 465.104 314.216 466.461 315.89 466.461Z" fill="#CECFD6"/>
<path d="M274.98 493.82V492.74C274.98 492.74 276.5 486 287.27 486C298.04 486 297.82 493.82 297.82 493.82H274.98Z" fill="#2E436E"/>
<path d="M297.95 486.997C296.854 486.931 295.774 486.695 294.75 486.297C293.9 485.787 288.75 482.297 287.56 482.887C286.37 483.477 278.34 485.887 278.62 487.067C278.9 488.247 279.62 488.127 280.21 487.917C280.8 487.707 286.59 486.487 287.11 486.697C287.11 486.697 281.39 488.777 281.37 490.307C281.35 491.837 282.56 492.197 283.1 492.767C283.64 493.337 284.3 494.767 285.77 494.887C287.24 495.007 294.44 492.497 295.92 492.377C297.4 492.257 300.14 492.467 300.32 492.227C300.5 491.987 297.95 486.997 297.95 486.997Z" fill="#EEA886"/>
<path d="M340.55 447.791C348.01 446.481 355.86 444.601 355.86 444.601L369.76 444.031C369.76 444.031 382.51 446.841 387.53 449.111C388.01 449.321 388.01 460.481 389.32 463.411L385.15 472.191C385.15 472.191 382.75 489.591 382.25 497.331C382.02 500.881 382.9 531.661 382.9 531.661C382.9 531.661 381.65 532.281 372.17 533.331C362.69 534.381 339.04 533.001 338.84 531.831C338.64 530.661 343.43 490.121 343.64 488.021C343.96 484.801 342.71 469.891 342.71 469.891C340.92 472.291 336.37 483.131 331.62 488.291C328.82 491.291 315 493.181 312.39 493.291C306.72 493.471 296.39 494.601 296.06 494.051C295.82 493.721 295.16 484.871 295.81 484.651C296.46 484.431 315.6 483.351 320.52 480.741C322.32 479.741 327.71 468.041 327.71 468.041C327.71 468.041 336.43 449.641 340.55 447.791Z" fill="#4E94F7"/>
<path d="M367.94 530.781H391.26C395.927 530.781 399.71 526.998 399.71 522.331V483.531C399.71 478.864 395.927 475.081 391.26 475.081H367.94C363.273 475.081 359.49 478.864 359.49 483.531V522.331C359.49 526.998 363.273 530.781 367.94 530.781Z" fill="#E2D2CA"/>
<path d="M366.61 543.714C372.54 543.714 377.35 541.714 380.91 537.794C388.91 528.914 387.5 513.314 387.44 512.654C387.382 512.062 387.091 511.518 386.631 511.141C386.172 510.764 385.581 510.585 384.99 510.644C384.398 510.702 383.854 510.993 383.477 511.452C383.101 511.912 382.922 512.502 382.98 513.094C382.98 513.274 384.28 527.414 377.58 534.804C374.87 537.804 371.28 539.234 366.58 539.234C365.986 539.234 365.416 539.47 364.996 539.89C364.576 540.31 364.34 540.88 364.34 541.474C364.34 542.068 364.576 542.637 364.996 543.058C365.416 543.478 365.986 543.714 366.58 543.714H366.61Z" fill="#E2D2CA"/>
<path d="M309.14 444.419C309.144 448.257 307.791 451.972 305.32 454.909C304.76 455.569 304.151 456.188 303.5 456.759L302.93 457.229L302.25 457.729C300.058 459.289 297.511 460.276 294.84 460.599C294.36 460.659 293.87 460.699 293.37 460.719H292.84C292.31 460.719 291.79 460.719 291.27 460.649C290.75 460.579 290.13 460.509 289.58 460.399C286.425 459.763 283.532 458.199 281.27 455.909L280.97 455.599C280.61 455.209 280.26 454.809 279.97 454.389C278.386 452.338 277.314 449.94 276.843 447.392C276.371 444.844 276.514 442.221 277.258 439.739C278.003 437.258 279.329 434.989 281.126 433.122C282.922 431.255 285.138 429.844 287.589 429.004C290.04 428.165 292.657 427.922 295.22 428.295C297.784 428.669 300.222 429.648 302.332 431.152C304.442 432.656 306.163 434.642 307.352 436.944C308.541 439.246 309.165 441.798 309.17 444.389L309.14 444.419Z" fill="#EEF0F7"/>
<path d="M303.46 453.423L302.25 457.733C300.058 459.293 297.511 460.28 294.84 460.603C294.36 460.663 293.87 460.703 293.37 460.723H292.84C292.31 460.723 291.79 460.723 291.27 460.653C290.75 460.583 290.13 460.513 289.58 460.403C287.157 459.923 284.876 458.897 282.91 457.403C282.68 455.973 282.44 454.403 282.22 452.913C283.42 452.473 287.22 451.173 289.64 450.363H289.74H289.89L290.3 450.223L290.68 450.103L291.68 449.773L294.92 450.013H295.46H295.63H295.7C295.9 450.063 296.46 450.213 297.21 450.443C299.17 451.003 302.28 452.073 303.46 453.423Z" fill="#D9C7C1"/>
<path d="M293.69 436.333C293.69 436.333 297.57 436.983 296.91 443.063C296.25 449.143 292.82 448.603 292.59 448.593C292.36 448.583 289.15 448.663 288.98 441.233C288.98 441.233 288.93 435.743 293.69 436.333Z" fill="#EEA987"/>
<path d="M295.39 446.831C295.313 447.832 295.347 448.838 295.49 449.831C295.72 450.381 292.37 452.101 290.29 450.141C290.492 448.918 290.589 447.681 290.58 446.441C290.45 445.511 295.39 446.831 295.39 446.831Z" fill="#EEA987"/>
<path d="M297.04 441.341C297.04 441.341 297.47 440.891 297.62 441.341C297.77 441.791 296.93 443.851 296.98 443.941C297.03 444.031 296.9 444.121 296.8 444.021C296.826 443.123 296.906 442.228 297.04 441.341Z" fill="#EEA987"/>
<path d="M289.04 441.178C289.04 441.178 288.63 440.708 288.46 441.178C288.482 442.078 288.662 442.968 288.99 443.808C288.99 443.808 289.12 444.018 289.23 443.928C289.221 443.008 289.157 442.09 289.04 441.178Z" fill="#EEA987"/>
<path d="M297.24 440.821C297.1 441.651 296.98 442.271 296.98 442.271L296.41 443.011C296.43 442.38 296.414 441.749 296.36 441.121C296.36 441.031 296.29 440.851 296.25 440.671C296.203 440.411 296.143 440.154 296.07 439.901C294.05 439.152 291.817 439.224 289.85 440.101C289.85 440.101 289.85 440.351 289.85 440.631C289.85 440.911 289.85 441.321 289.66 441.371C289.47 441.421 289.5 443.281 289.5 443.281L289.05 442.761C289.05 442.761 288.92 441.821 288.79 440.761L288.7 439.991C288.604 439.219 288.687 438.435 288.941 437.7C289.196 436.964 289.617 436.298 290.17 435.751C291.78 435.135 293.56 435.135 295.17 435.751C295.431 435.756 295.688 435.821 295.92 435.941C297.57 437.681 297.24 440.821 297.24 440.821Z" fill="#E8734D"/>
<path d="M290.85 447.781C291.102 448.07 291.42 448.295 291.776 448.438C292.132 448.58 292.517 448.636 292.9 448.601C293.279 448.617 293.659 448.557 294.014 448.423C294.37 448.289 294.695 448.084 294.97 447.821C294.812 448.241 294.531 448.602 294.163 448.857C293.795 449.112 293.357 449.249 292.91 449.249C292.462 449.249 292.025 449.112 291.656 448.857C291.288 448.602 291.007 448.241 290.85 447.821V447.781Z" fill="#C78D71"/>
<path d="M289.89 450.231C290.211 450.765 290.647 451.221 291.166 451.567C291.685 451.912 292.273 452.139 292.89 452.231C294.14 452.341 295.22 450.751 295.73 449.971C294.787 449.626 293.786 449.471 292.784 449.515C291.781 449.56 290.797 449.803 289.89 450.231Z" fill="#EEA987"/>
<path d="M295.39 449.383C294.68 450.223 293.843 450.949 292.91 451.533L293.96 453.153L295.75 449.953L295.39 449.383Z" fill="#EDDAD3"/>
<path d="M290.37 449.617C291.063 450.436 291.931 451.089 292.91 451.527L291.75 453.197L289.75 450.277L290.37 449.617Z" fill="#EDDAD3"/>
<path d="M292.91 451.531L293.81 452.901C293.531 453.057 293.216 453.139 292.895 453.139C292.575 453.139 292.26 453.057 291.98 452.901L292.91 451.531Z" fill="#5073AB"/>
<path d="M304.5 453.163V453.253C304.4 453.603 304.02 454.963 303.5 456.763L302.93 457.233L302.25 457.733C300.058 459.293 297.511 460.28 294.84 460.603C295.08 454.963 295.75 449.953 295.75 449.953L297.25 450.373C299.652 451.002 301.981 451.88 304.2 452.993L304.5 453.163Z" fill="#323657"/>
<path d="M289.58 460.4C286.425 459.764 283.532 458.201 281.27 455.91L280.97 455.6C280.69 454.39 280.5 453.6 280.48 453.55C280.48 453.55 282.48 452.23 289.64 450.32C289.64 450.48 289.64 455.06 289.58 460.4Z" fill="#323657"/>
<path d="M293.42 453.052C293.36 454.542 293.35 457.423 293.37 460.723H292.84C292.31 460.723 291.79 460.722 291.27 460.652C291.44 458.095 291.804 455.555 292.36 453.052L292.48 452.562L293.48 452.723C293.43 452.823 293.43 452.932 293.42 453.052Z" fill="#5073AB"/>
<path d="M305.32 454.912C304.759 455.573 304.151 456.191 303.5 456.762L302.93 457.232L304.21 452.992C304.305 453.062 304.389 453.147 304.46 453.242C304.809 453.764 305.098 454.324 305.32 454.912Z" fill="#323657"/>
<path d="M281.27 455.909L280.97 455.599C280.61 455.209 280.26 454.809 279.97 454.389C280.068 454.061 280.255 453.767 280.51 453.539L281.27 455.909Z" fill="#323657"/>
<path d="M210.07 238.281H196.3C193.798 238.281 191.77 240.309 191.77 242.811V256.581C191.77 259.083 193.798 261.111 196.3 261.111H210.07C212.571 261.111 214.6 259.083 214.6 256.581V242.811C214.6 240.309 212.571 238.281 210.07 238.281Z" fill="#4CA1F4"/>
<g opacity="0.69">
<path opacity="0.72" d="M299.77 208.047H225.5C224.196 208.047 223.14 209.103 223.14 210.407V212.777C223.14 214.08 224.196 215.137 225.5 215.137H299.77C301.073 215.137 302.13 214.08 302.13 212.777V210.407C302.13 209.103 301.073 208.047 299.77 208.047Z" fill="white"/>
<path opacity="0.72" d="M310.78 219.508H225.5C224.196 219.508 223.14 220.564 223.14 221.868V224.238C223.14 225.541 224.196 226.598 225.5 226.598H310.78C312.083 226.598 313.14 225.541 313.14 224.238V221.868C313.14 220.564 312.083 219.508 310.78 219.508Z" fill="white"/>
</g>
<path d="M210.07 205.906H196.3C193.798 205.906 191.77 207.934 191.77 210.436V224.206C191.77 226.708 193.798 228.736 196.3 228.736H210.07C212.571 228.736 214.6 226.708 214.6 224.206V210.436C214.6 207.934 212.571 205.906 210.07 205.906Z" fill="#4CA1F4"/>
<g opacity="0.69">
<path opacity="0.72" d="M280.47 240.422H225.18C224.053 240.422 223.14 241.335 223.14 242.462V245.472C223.14 246.599 224.053 247.512 225.18 247.512H280.47C281.596 247.512 282.51 246.599 282.51 245.472V242.462C282.51 241.335 281.596 240.422 280.47 240.422Z" fill="white"/>
<path opacity="0.72" d="M294.04 251.883H225.26C224.089 251.883 223.14 252.832 223.14 254.003V256.853C223.14 258.024 224.089 258.973 225.26 258.973H294.04C295.211 258.973 296.16 258.024 296.16 256.853V254.003C296.16 252.832 295.211 251.883 294.04 251.883Z" fill="white"/>
</g>
<g opacity="0.69">
<path opacity="0.72" d="M306.82 272.789H225.6C224.241 272.789 223.14 273.89 223.14 275.249V277.419C223.14 278.778 224.241 279.879 225.6 279.879H306.82C308.178 279.879 309.28 278.778 309.28 277.419V275.249C309.28 273.89 308.178 272.789 306.82 272.789Z" fill="white"/>
<path opacity="0.72" d="M299.92 284.258H225.35C224.129 284.258 223.14 285.247 223.14 286.468V289.138C223.14 290.358 224.129 291.348 225.35 291.348H299.92C301.14 291.348 302.13 290.358 302.13 289.138V286.468C302.13 285.247 301.14 284.258 299.92 284.258Z" fill="white"/>
</g>
<path d="M210.07 270.648H196.3C193.798 270.648 191.77 272.677 191.77 275.178V288.948C191.77 291.45 193.798 293.478 196.3 293.478H210.07C212.571 293.478 214.6 291.45 214.6 288.948V275.178C214.6 272.677 212.571 270.648 210.07 270.648Z" fill="#4CA1F4"/>
<path d="M202.4 255.208L196.07 249.708C195.82 249.492 195.667 249.186 195.644 248.856C195.62 248.527 195.729 248.202 195.945 247.953C196.161 247.704 196.467 247.551 196.796 247.527C197.125 247.504 197.45 247.612 197.7 247.828L202.18 251.718L208.55 244.588C208.773 244.347 209.081 244.204 209.409 244.189C209.737 244.174 210.058 244.288 210.302 244.507C210.546 244.727 210.694 245.033 210.714 245.361C210.735 245.688 210.625 246.011 210.41 246.258L202.4 255.208Z" fill="white"/>
<path d="M202.4 287.586L196.04 282.076C195.917 281.969 195.816 281.839 195.743 281.693C195.67 281.547 195.626 281.388 195.614 281.225C195.603 281.062 195.623 280.898 195.675 280.743C195.727 280.588 195.808 280.445 195.915 280.321C196.022 280.198 196.153 280.097 196.299 280.023C196.445 279.95 196.604 279.907 196.767 279.895C196.93 279.884 197.094 279.904 197.249 279.956C197.404 280.007 197.547 280.089 197.67 280.196L202.15 284.086L208.52 276.966C208.625 276.83 208.757 276.716 208.907 276.633C209.058 276.55 209.224 276.498 209.395 276.482C209.566 276.466 209.739 276.485 209.903 276.539C210.066 276.593 210.217 276.679 210.345 276.794C210.473 276.909 210.577 277.048 210.648 277.205C210.72 277.361 210.759 277.53 210.762 277.702C210.766 277.874 210.733 278.045 210.668 278.204C210.602 278.363 210.504 278.507 210.38 278.626L202.4 287.586Z" fill="white"/>
<path d="M202.76 220.111V219.601C202.717 218.991 202.802 218.38 203.009 217.805C203.215 217.23 203.539 216.704 203.96 216.261C204.715 215.574 205.195 214.635 205.31 213.621C205.31 212.621 204.69 211.981 203.47 211.961C202.774 211.959 202.094 212.168 201.52 212.561L201.06 211.341C201.887 210.826 202.845 210.558 203.82 210.571C206.04 210.571 207.05 211.941 207.05 213.411C207.05 214.721 206.31 215.671 205.39 216.771C205.022 217.142 204.733 217.585 204.543 218.071C204.352 218.558 204.262 219.078 204.28 219.601V220.111H202.76ZM202.33 222.811C202.32 222.653 202.343 222.495 202.397 222.347C202.451 222.198 202.535 222.063 202.644 221.948C202.753 221.834 202.884 221.743 203.03 221.681C203.175 221.62 203.332 221.589 203.49 221.591C203.73 221.581 203.969 221.643 204.174 221.769C204.379 221.896 204.542 222.08 204.641 222.3C204.741 222.519 204.773 222.763 204.733 223.001C204.693 223.239 204.582 223.459 204.416 223.633C204.25 223.808 204.036 223.929 203.801 223.981C203.565 224.033 203.32 224.014 203.096 223.925C202.872 223.837 202.679 223.684 202.542 223.485C202.406 223.287 202.332 223.052 202.33 222.811Z" fill="white"/>
<path d="M416.54 377.87C415.169 377.906 413.823 377.499 412.7 376.71C412.114 376.313 411.622 375.792 411.259 375.184C410.896 374.576 410.671 373.895 410.6 373.191C410.123 370.647 409.31 368.179 408.18 365.851C405.895 364.353 404.14 362.175 403.163 359.623C402.187 357.072 402.039 354.278 402.741 351.638C403.442 348.998 404.958 346.646 407.072 344.916C409.186 343.186 411.792 342.166 414.518 342C417.245 341.835 419.955 342.533 422.262 343.995C424.57 345.457 426.358 347.609 427.373 350.145C428.389 352.681 428.579 355.472 427.918 358.123C427.257 360.774 425.778 363.148 423.69 364.911C423.011 367.282 422.647 369.734 422.61 372.201C422.84 375.041 420.34 377.571 417.04 377.851L416.54 377.87ZM415.15 343.131C412.605 343.178 410.142 344.041 408.123 345.593C406.104 347.144 404.636 349.302 403.935 351.749C403.233 354.196 403.335 356.804 404.225 359.189C405.115 361.574 406.747 363.611 408.88 365.001L409.01 365.08L409.07 365.221C410.28 367.684 411.148 370.302 411.65 373.001C411.705 373.555 411.882 374.09 412.167 374.569C412.452 375.048 412.839 375.458 413.3 375.77C414.365 376.503 415.654 376.836 416.94 376.71C419.67 376.49 421.73 374.45 421.54 372.18C421.581 369.557 421.971 366.951 422.7 364.43L422.75 364.27L422.88 364.171C424.782 362.602 426.15 360.482 426.795 358.102C427.44 355.723 427.33 353.202 426.48 350.888C425.631 348.573 424.083 346.58 422.052 345.184C420.02 343.787 417.605 343.055 415.14 343.09L415.15 343.131Z" fill="white"/>
<path d="M413.76 373.69L410.81 359.77L413.96 361.93L415.59 359.75L417.34 361.5L419.87 358.93L419.47 373.17L418.41 373.14L418.73 361.6L417.34 363.01L415.71 361.37L414.19 363.38L412.39 362.15L414.8 373.46L413.76 373.69Z" fill="white"/>
<path d="M421.894 378.616L412.704 379.352L413 383.052L422.19 382.316L421.894 378.616Z" fill="white"/>
<path d="M422.681 372.26L410.572 373.266L411.066 379.205L423.174 378.199L422.681 372.26Z" fill="white"/>
<path d="M166.63 179.829C165.312 179.441 164.152 178.642 163.32 177.549C162.882 176.991 162.573 176.343 162.414 175.652C162.255 174.961 162.25 174.243 162.4 173.549C162.716 170.981 162.692 168.382 162.33 165.819C160.611 163.696 159.605 161.085 159.454 158.358C159.304 155.631 160.016 152.925 161.49 150.625C162.964 148.326 165.125 146.549 167.666 145.547C170.207 144.545 173 144.369 175.647 145.044C178.293 145.719 180.66 147.21 182.412 149.306C184.163 151.403 185.209 153.998 185.402 156.722C185.595 159.447 184.925 162.163 183.487 164.486C182.048 166.808 179.915 168.618 177.39 169.659C176.019 171.706 174.926 173.925 174.14 176.259C173.49 179.039 170.34 180.689 167.14 179.949L166.63 179.829ZM175.9 146.319C173.445 145.551 170.808 145.6 168.383 146.458C165.959 147.316 163.878 148.937 162.453 151.078C161.028 153.218 160.335 155.763 160.478 158.331C160.622 160.899 161.594 163.351 163.25 165.319L163.34 165.439V165.589C163.737 168.306 163.764 171.065 163.42 173.789C163.302 174.334 163.306 174.898 163.432 175.441C163.558 175.984 163.803 176.492 164.15 176.929C164.938 177.948 166.06 178.657 167.32 178.929C169.99 179.549 172.58 178.249 173.09 176.029C173.93 173.552 175.097 171.198 176.56 169.029L176.65 168.889L176.81 168.829C179.097 167.915 181.045 166.313 182.383 164.244C183.721 162.176 184.385 159.743 184.281 157.281C184.178 154.82 183.314 152.451 181.807 150.502C180.3 148.553 178.226 147.119 175.87 146.399L175.9 146.319Z" fill="white"/>
<path d="M165.25 174.994L166.69 160.844L169.03 163.864L171.25 162.284L172.38 164.484L175.57 162.814L170.85 176.254L169.85 175.894L173.68 165.004L171.92 165.924L170.87 163.854L168.81 165.314L167.47 163.594L166.31 175.104L165.25 174.994Z" fill="white"/>
<path d="M171.861 179.741L162.907 177.672L162.074 181.277L171.028 183.346L171.861 179.741Z" fill="white"/>
<path d="M174.146 176.384L162.308 173.648L160.966 179.455L172.804 182.191L174.146 176.384Z" fill="white"/>
<path d="M241.069 156.991L237.377 157.703L242.801 185.815L246.492 185.102L241.069 156.991Z" fill="white"/>
<path d="M234.366 161.577L230.674 162.289L235.489 187.249L239.181 186.536L234.366 161.577Z" fill="white"/>
<path d="M227.234 167.194L223.542 167.906L227.568 188.771L231.259 188.059L227.234 167.194Z" fill="white"/>
<path d="M220.088 173.928L216.396 174.641L219.426 190.341L223.118 189.629L220.088 173.928Z" fill="white"/>
<path d="M429.87 411.219L430.26 419.639L433.6 419.479L432.94 405.359L418.52 406.029L418.68 409.369L427.39 408.969L412.03 425.829L396.04 411.269L393.79 413.739L412.25 430.559L429.87 411.219Z" fill="white"/>
</g>
<defs>
<linearGradient id="paint0_linear_1601_6455" x1="1087.8" y1="236.321" x2="958.051" y2="229.834" gradientUnits="userSpaceOnUse">
<stop offset="0.01" stop-color="#4A612F"/>
<stop offset="1" stop-color="#769A42"/>
</linearGradient>
<linearGradient id="paint1_linear_1601_6455" x1="1069.8" y1="355.083" x2="1009.41" y2="286.703" gradientUnits="userSpaceOnUse">
<stop offset="0.01" stop-color="#4A612F"/>
<stop offset="1" stop-color="#769A42"/>
</linearGradient>
<linearGradient id="paint2_linear_1601_6455" x1="1077.34" y1="196.543" x2="1015.92" y2="193.472" gradientUnits="userSpaceOnUse">
<stop offset="0.01" stop-color="#4A612F"/>
<stop offset="1" stop-color="#769A42"/>
</linearGradient>
<linearGradient id="paint3_linear_1601_6455" x1="1052.84" y1="305.579" x2="1008.8" y2="227.575" gradientUnits="userSpaceOnUse">
<stop offset="0.01" stop-color="#4A612F"/>
<stop offset="1" stop-color="#769A42"/>
</linearGradient>
<linearGradient id="paint4_linear_1601_6455" x1="1209.36" y1="440.442" x2="1009.1" y2="440.442" gradientUnits="userSpaceOnUse">
<stop stop-color="#EEBE63"/>
<stop offset="1" stop-color="#DC3B57"/>
</linearGradient>
<linearGradient id="paint5_linear_1601_6455" x1="1209.36" y1="451.389" x2="1009.1" y2="451.389" gradientUnits="userSpaceOnUse">
<stop stop-color="#EEBE63"/>
<stop offset="1" stop-color="#DC3B57"/>
</linearGradient>
<linearGradient id="paint6_linear_1601_6455" x1="1209.36" y1="462.342" x2="1009.1" y2="462.342" gradientUnits="userSpaceOnUse">
<stop stop-color="#EEBE63"/>
<stop offset="1" stop-color="#DC3B57"/>
</linearGradient>
<linearGradient id="paint7_linear_1601_6455" x1="909.17" y1="480.728" x2="981.92" y2="480.728" gradientUnits="userSpaceOnUse">
<stop stop-color="#81D3E4"/>
<stop offset="1" stop-color="#6076FA"/>
</linearGradient>
<linearGradient id="paint8_linear_1601_6455" x1="962.54" y1="521.33" x2="1028.33" y2="521.33" gradientUnits="userSpaceOnUse">
<stop stop-color="#81D3E4"/>
<stop offset="1" stop-color="#6076FA"/>
</linearGradient>
<linearGradient id="paint9_linear_1601_6455" x1="968.16" y1="530.896" x2="1017.55" y2="530.896" gradientUnits="userSpaceOnUse">
<stop stop-color="#81D3E4"/>
<stop offset="1" stop-color="#6076FA"/>
</linearGradient>
<linearGradient id="paint10_linear_1601_6455" x1="950.33" y1="491.161" x2="1007.84" y2="491.161" gradientUnits="userSpaceOnUse">
<stop stop-color="#81D3E4"/>
<stop offset="1" stop-color="#6076FA"/>
</linearGradient>
<linearGradient id="paint11_linear_1601_6455" x1="937.13" y1="573.653" x2="990.2" y2="573.653" gradientUnits="userSpaceOnUse">
<stop stop-color="#E59148"/>
<stop offset="1" stop-color="#F1CC52"/>
</linearGradient>
<linearGradient id="paint12_linear_1601_6455" x1="937.13" y1="573.653" x2="990.2" y2="573.653" gradientUnits="userSpaceOnUse">
<stop stop-color="#B37239"/>
<stop offset="1" stop-color="#F1CC52"/>
</linearGradient>
<linearGradient id="paint13_linear_1601_6455" x1="1215.5" y1="442.328" x2="1304.31" y2="442.328" gradientUnits="userSpaceOnUse">
<stop stop-color="#81D3E4"/>
<stop offset="1" stop-color="#6076FA"/>
</linearGradient>
<linearGradient id="paint14_linear_1601_6455" x1="1270.74" y1="369.458" x2="1300.43" y2="369.458" gradientUnits="userSpaceOnUse">
<stop stop-color="#81D3E4"/>
<stop offset="1" stop-color="#6076FA"/>
</linearGradient>
<linearGradient id="paint15_linear_1601_6455" x1="1270.74" y1="385.2" x2="1297.99" y2="385.2" gradientUnits="userSpaceOnUse">
<stop stop-color="#81D3E4"/>
<stop offset="1" stop-color="#6076FA"/>
</linearGradient>
<linearGradient id="paint16_linear_1601_6455" x1="1270.74" y1="377.333" x2="1294.32" y2="377.333" gradientUnits="userSpaceOnUse">
<stop stop-color="#81D3E4"/>
<stop offset="1" stop-color="#6076FA"/>
</linearGradient>
<linearGradient id="paint17_linear_1601_6455" x1="1215.5" y1="368.283" x2="1262.27" y2="368.283" gradientUnits="userSpaceOnUse">
<stop stop-color="#D3D8DE"/>
<stop offset="1" stop-color="white"/>
</linearGradient>
<linearGradient id="paint18_linear_1601_6455" x1="1324.71" y1="320.027" x2="1349.4" y2="320.027" gradientUnits="userSpaceOnUse">
<stop stop-color="#72ACFB"/>
<stop offset="1" stop-color="#5286D4"/>
</linearGradient>
<linearGradient id="paint19_linear_1601_6455" x1="1324.71" y1="311.892" x2="1344.06" y2="311.892" gradientUnits="userSpaceOnUse">
<stop stop-color="#72ACFB"/>
<stop offset="1" stop-color="#5286D4"/>
</linearGradient>
<linearGradient id="paint20_linear_1601_6455" x1="22.3501" y1="294.64" x2="117.64" y2="294.64" gradientUnits="userSpaceOnUse">
<stop stop-color="#40D5E6"/>
<stop offset="1" stop-color="#5577FF"/>
</linearGradient>
<linearGradient id="paint21_linear_1601_6455" x1="27.9502" y1="215.143" x2="71.6302" y2="215.143" gradientUnits="userSpaceOnUse">
<stop stop-color="#40D5E6"/>
<stop offset="1" stop-color="#5577FF"/>
</linearGradient>
<linearGradient id="paint22_linear_1601_6455" x1="26.4502" y1="463.697" x2="375.17" y2="463.697" gradientUnits="userSpaceOnUse">
<stop stop-color="#96CBFF"/>
<stop offset="1" stop-color="#5599FF"/>
</linearGradient>
<clipPath id="clip0_1601_6455">
<rect width="1449.04" height="606.71" fill="white" transform="translate(-5)"/>
</clipPath>
</defs>
</svg>
