<?xml version="1.0" encoding="utf-8"?>
<!-- Generator: Adobe Illustrator 26.0.2, SVG Export Plug-In . SVG Version: 6.00 Build 0)  -->
<svg version="1.1" xmlns="http://www.w3.org/2000/svg" xmlns:xlink="http://www.w3.org/1999/xlink" x="0px" y="0px"
	 viewBox="0 0 632 380" style="enable-background:new 0 0 632 380;" xml:space="preserve">
<style type="text/css">
	.st0{clip-path:url(#SVGID_00000002344968103937350760000016145031014388814004_);}
	.st1{fill:#DDECFF;}
	.st2{fill:#60A8FF;}
	.st3{fill:#223A7A;}
	.st4{fill:#FFFFFF;}
	.st5{fill:#1C83FF;}
	.st6{fill:#B3D09F;}
	.st7{fill:#90B07A;}
	.st8{fill:#43588E;}
	.st9{fill:#384987;}
	.st10{fill:#BDC4D7;}
	.st11{fill:#6F7FA9;}
	.st12{fill:#9CA6C3;}
	.st13{fill:#D2E6FF;}
	.st14{fill:#343D63;}
	.st15{fill:#D37C35;}
	.st16{fill:#E1954D;}
	.st17{fill:#EBAF7F;}
	.st18{fill:#D79662;}
	.st19{fill:#1F2A45;}
	.st20{fill:#2E3B61;}
</style>
<g id="BACKGROUND">
</g>
<g id="OBJECTS">
	<g>
		<defs>
			<rect id="SVGID_1_" width="632" height="380"/>
		</defs>
		<clipPath id="SVGID_00000008856719994932121270000007416393040881632924_">
			<use xlink:href="#SVGID_1_"  style="overflow:visible;"/>
		</clipPath>
		<g style="clip-path:url(#SVGID_00000008856719994932121270000007416393040881632924_);">
			<path class="st1" d="M214.5,395c-2.7-2.8-42.1-81.6,1.8-153.9c43.9-72.3,154-63.8,197.8-35.7s65.3,64.8,69.8,103.2
				c4.5,38.5-25.1,98.5-25.1,98.5L214.5,395z"/>
			<g>
				<g>
					<path class="st2" d="M523.3,262.3h-50.6c-3.1,0-5.7-2.5-5.7-5.7v-25.3c0-3.1,2.5-5.7,5.7-5.7h50.6c3.1,0,5.7,2.5,5.7,5.7v25.3
						C529,259.7,526.5,262.3,523.3,262.3z"/>
					<polygon class="st2" points="498,276.6 506.1,257.6 490,257.6 					"/>
				</g>
				<g>
					<g>
						<g>
							<polygon class="st3" points="497.8,237.7 512.3,237.7 512.3,239.8 519.4,235.7 512.3,231.6 512.3,233.7 497.8,233.7 							
								"/>
						</g>
						<g>
							<polygon class="st4" points="519.4,246 504.9,246 504.9,243.9 497.8,248 504.9,252.1 504.9,250 519.4,250 							"/>
						</g>
					</g>
					<g>
						<path class="st3" d="M489,249.7l-0.7,0.3c0,0-2.1-2.5-3.3-5.1c-1.1-2.7-1.2-5.9-1.2-5.9l0.5-0.2l-3.1-7.3
							c-0.5,0.4-1.1,1-1.5,1.7c-1.7,2.9-1.6,7.4,0.2,11.8c1.7,4.4,3.6,8.3,7,10.8c2,1.5,3.7,1.7,5.1,1.5L489,249.7z"/>
						<path class="st3" d="M491.2,248.9l-1,0.3l3.1,7.5c0.4-0.1,0.7-0.3,0.9-0.4c0.8-0.4,1.2-1.4,0.8-2.3l-1.6-4.1
							C493.1,249,492.1,248.5,491.2,248.9z"/>
						<path class="st3" d="M483.7,230.1c-0.4,0.1-0.8,0.3-1.2,0.6l3.1,7.5l1.1-0.4c0.9-0.4,1.4-1.4,1-2.3l-1.6-4.2
							C485.6,230.2,484.6,229.8,483.7,230.1z"/>
					</g>
				</g>
			</g>
			<g>
				<path class="st5" d="M199.9,382.3v-84.5c0,0-0.9-22.8,11-29.3c12-6.6,62.4-3,62.4-3v116.8H199.9z"/>
			</g>
			<g>
				<g>
					<g>
						<path class="st6" d="M124.8,226.9c4.4,3.9,10.1,6.4,14,10.9c1.5,1.8,2.9,3.7,4.3,5.5c1,1.4,3.8,3.6,4.3,5.3
							c0.2,0.8,0.2-0.3,0-1c0,0,0-0.1,0-0.1c-0.4-3.5-0.7-6.9-0.8-10.4c-0.1-3.5,0.1-7-0.1-10.4c-0.3-4.9-1.8-9.6-5.8-12.7
							c-2-1.5-4.5-2.4-6.3-4.1c-1.7-1.6-1-3.4,0-5.1c0.9-1.6,2.1-3.3,2.4-5.2c0.4-2.2-0.4-4.4-1.5-6.2c-2.3-3.9-7.5-8.2-12.4-7.7
							c-4.1,0.5-4.5,5.2-4.5,8.5c0.1,3.2,0.4,6.3,0.4,9.5c0,3.3-0.5,6.5-0.6,9.7C118.1,219.1,120.7,223.4,124.8,226.9z"/>
						<path class="st6" d="M166.1,277.7c1.2-3,2.7-5.7,4.4-8.4c2.4-3.7,5.1-7.3,6.7-11.4c1.6-4.2,1.4-8.7,1.6-13.2
							c0.1-3.3,1.1-6.5,0.8-9.8c-0.1-1.6-1-4.1-3.1-3.8c-1.6,0.2-2.5,2.2-3.1,3.4c-1.1,2.2-1.8,4.5-2.6,6.8c-0.3,0.9-0.6,1.8-1,2.7
							c-0.2,0.5-0.9,1.7-1.6,1.6c-1.2-0.3-0.1-5,0.1-5.8c0.9-4.2,2.2-8.1,2.3-12.4c0.3-6.2-0.2-13.7-6.3-17.1
							c-1.6-0.9-3.6-1.4-5.1-0.1c-1.5,1.3-1.9,3.6-2.1,5.5c-0.7,5.8,0.7,11.2,2.5,16.7c1.5,4.5,3.3,9.1,3.5,13.9
							c0.1,4.6-2.3,8.7-3.4,13.1c-1.8,6.9-1.4,10.6-1.4,12.9c0,2.8,0.1,5.6,0.3,8.4c0.2,2.6,0.4,5.2,0.7,7.7
							c0.1,0.5,0.1,1.1,0.2,1.6c-1-2.4-1.3-5.1-2.2-7.5c-1.5-4.3-3.2-8.4-4.6-12.7c-1.2-3.5-2.3-7.1-3.8-10.5
							c-1.4-3.2-3.2-6.6-5.8-8.9c-1.6-1.4-3.6-2.2-5.7-2.2c-1.4,0-2.6,0.5-3.9,0.8c-1.6,0.4-2.9,0.3-4.2-0.7
							c-4.4-3.4-5.7-9.4-9-13.7c-2.4-3.2-8.2-8.6-12.4-5.1c-2.2,1.8-2.9,5.4-2.7,8.1c0.1,3.4,1.6,6.5,3.4,9.4c1.9,3,4.3,5.8,6.1,8.9
							c1,1.8,1.2,3.6,1,5.7c-0.2,2-0.3,3.9,0.3,5.8c2,5.7,8.3,4.9,13.1,5c3.4,0.1,7.1,0.6,10.3,1.7c3.7,1.3,6.2,3.7,7.5,7.4
							c1,2.7,1.5,5.7,3.3,8c0.9,1.1,2,1.9,3.2,2.4c1.9,0.8,7.7,1.2,7.7,0.7c0.1-1.8,1-3.6,1.5-5.3
							C163.7,283.8,164.8,280.8,166.1,277.7z"/>
						<path class="st6" d="M193,276.6c-0.5-3.2-0.4-6.8-1.9-9.8c-0.1-0.2-0.4-0.3-0.6-0.2c-1.1,0.6-1.1,2.4-1.2,3.5
							c-0.1,1.8,0,3.6-0.3,5.4c-0.4,3.2-1.1,6.4-2.3,9.4c-1.3,3.4-3.6,5.3-7.1,6.4c-2.2,0.7-4.3,1.3-6.2,2.7c-1.6,1.3-2.8,3.1-3.6,5
							c-2.3,5.1-3.4,10.8-4.4,16.3c-0.7,3.7-1.3,7.4-2.2,11c-0.9,3.6-1.8,7.3-2.4,11c-0.1,0.2-0.2,0.4-0.3,0.6
							c-0.2,0.6,0.6,0.9,0.9,0.4c3.5-5.4,7.8-10.3,13.7-13.3c2.6-1.3,6.2-1.6,8.4-3.7c1.7-1.6,1.9-4.1,1.7-6.3
							c-0.3-2.9-1.7-5.3-3.1-7.7c-0.8-1.3-1.7-2.8-1.4-4.4c0.3-1.5,1.6-2.7,2.9-3.5c2.4-1.5,5.3-2.2,7.3-4.4c1.9-2,2.9-4.5,3.1-7.3
							C194.2,284.1,193.6,280.2,193,276.6z"/>
						<path class="st6" d="M145,295.4c-3.1-4-6.9-7.5-11.1-10.3c-2.3-1.5-7.6-4.4-8.6,0c-0.6,2.6,1.9,5.1,3.6,6.8
							c2.5,2.4,5.4,4.5,7.5,7.3c-2.6,0.8-5.3,1-7.6,2.8c-2.7,2.1-3.9,6.3-1.2,8.9c1.3,1.3,3,2.1,4.6,2.8c2.1,1,4.2,1.9,6.4,2.8
							c4.7,1.9,9.4,3.9,13.3,7.1c4,3.2,7.9,8.7,8.2,14c0,0.5-0.2,0,0.1-0.2c0.2,0.1,0.7-0.1,0.7-0.4c-0.1-7.9-1.5-15.4-4.7-22.6
							C153.2,307.9,149.5,301.2,145,295.4z"/>
					</g>
					<g>
						<path class="st7" d="M134.2,222.2c1.7,3.6,3.5,7,5.4,10.5c1.8,3.3,3.7,6.7,5,10.2c1.7,4.4,3.5,8.7,5.2,13.1
							c1.9,4.5,3.5,9.1,4.8,13.8c2.6,9.2,4.5,18.6,5.5,28.1c0.5,4.8,0.7,9.7,0.6,14.5c-0.1,3.8-0.5,7.5-0.9,11.3
							c-0.4,3.9-0.6,7.9-0.3,11.8c0.3,3.3,0.8,7.2,3.4,9.6c0.5,0.5,1.2-0.1,0.9-0.7c-3-6.2-2.9-13-2.3-19.8
							c0.3-3.7,0.8-7.4,0.9-11.2c0.2-4.8,0-9.5-0.5-14.3c-0.9-9.3-2.7-18.5-5.2-27.6c-1.2-4.6-2.8-9.2-4.5-13.6
							c-1.8-4.5-3.8-8.8-5.5-13.3c-3.1-8.1-7.8-15.3-12-22.9C134.6,221.4,134,221.8,134.2,222.2L134.2,222.2z"/>
					</g>
					<g>
						<path class="st7" d="M160.4,288.6c0.5-5.9,1-11.6,3-17.3c0.9-2.6,2.1-5.2,3-7.8c0.7-2.2,1.9-5.2,1.3-7.5
							c-0.1-0.3-0.4-0.2-0.5,0c-0.4,1.3-0.3,2.8-0.6,4.1c-0.3,1.3-0.6,2.6-1,3.9c-0.9,2.7-2,5.4-3,8c-1.9,5.2-2.9,11-2.5,16.5
							C160,288.9,160.4,288.9,160.4,288.6L160.4,288.6z"/>
					</g>
					<g>
						<path class="st7" d="M126.1,254.6c2.3,5.7,9.4,6,14.6,7.3c3.7,0.9,6.4,3.4,8.3,6.5c2.1,3.5,3.6,7.6,4.8,11.4c0,0,0.1,0,0.1,0
							c-1.4-6.8-3.5-15-10.5-18.2c-5.6-2.5-13-1.3-16.6-7.3C126.5,254.1,125.9,254.3,126.1,254.6L126.1,254.6z"/>
					</g>
					<g>
						<path class="st8" d="M156.7,287.7c0.3,0.4,0.5,0.8,0.8,1.1c0.1,0.2,0.3,0.4,0.5,0.5c0.2,0.2,0.4,0.3,0.7,0.3
							c0.1,0,0.2-0.1,0.1-0.2c-0.1-0.2-0.3-0.3-0.5-0.4c-0.2-0.1-0.3-0.3-0.5-0.4c-0.3-0.3-0.6-0.6-1-1
							C156.7,287.6,156.6,287.7,156.7,287.7L156.7,287.7z"/>
					</g>
					<g>
						<path class="st7" d="M142,305.7c4.1,3.3,7.8,7.3,10.8,11.6c1.4,2.1,2.7,4.2,3.9,6.4c1.3,2.4,2.1,4.9,3.2,7.5
							c0.1,0.2,0.4,0.2,0.4-0.1c-0.6-5.3-3.9-9.9-6.7-14.4c-1.4-2.3-3.2-4.2-5-6.1c-1.9-2-3.9-3.9-6.2-5.5
							C142.1,305.1,141.7,305.5,142,305.7L142,305.7z"/>
					</g>
					<g>
						<path class="st7" d="M174.2,299.4c-2,1.1-2,4.2-2.1,6.2c-0.1,3.8,0.9,7.3-0.8,10.9c-1.5,3.3-3.9,6-5.8,9
							c-1.8,2.8-3.5,6.4-3.5,9.9c0,0.2,0.3,0.3,0.4,0.1c0.7-1.5,1-3.3,1.5-4.9c0.6-1.8,1.4-3.5,2.4-5.1c1.8-2.8,4-5.4,5.5-8.4
							c1.5-3.2,1.3-6.3,1.2-9.8c-0.1-2.2-0.3-5.7,1.5-7.4C174.9,299.7,174.6,299.3,174.2,299.4L174.2,299.4z"/>
					</g>
				</g>
				<path class="st9" d="M161.2,335.7c-7.9-0.1-22.8-0.2-22.8-0.2l3.7,27.5c0.8,6.2,6.1,10.8,12.4,10.8h6.5h0.6h6.5
					c6.2,0,11.5-4.6,12.4-10.8l3.7-27.5C184,335.5,169,335.6,161.2,335.7z"/>
			</g>
			<g>
				<polygon class="st10" points="272.9,381.1 272,381.1 117.4,381.1 117.4,387.5 272,387.5 272.9,387.5 551.9,387.5 551.9,381.1 
									"/>
				<rect x="109.8" y="374.3" class="st11" width="169.9" height="8.4"/>
				<rect x="278.8" y="374.3" class="st12" width="279.9" height="8.4"/>
			</g>
			<g>
				<path class="st4" d="M233.6,193.4h-54.9c-3.4,0-6.2-2.8-6.2-6.2v-27.4c0-3.4,2.8-6.2,6.2-6.2h54.9c3.4,0,6.2,2.8,6.2,6.2v27.4
					C239.8,190.6,237,193.4,233.6,193.4z"/>
				<polygon class="st4" points="255.4,173.5 234.8,164.8 234.8,182.2 				"/>
				<g>
					<circle class="st3" cx="193.1" cy="173.5" r="3.8"/>
					<circle class="st3" cx="206.2" cy="173.5" r="3.8"/>
					<circle class="st3" cx="219.2" cy="173.5" r="3.8"/>
				</g>
			</g>
			<g>
				<path class="st2" d="M513.2,69.4H386.4c-8.1,0-14.7,6.6-14.7,14.7v60.1c0,8.1,6.6,14.7,14.7,14.7h11.4c0.3,5.5-0.5,13.6-5,23.9
					c14.6-6.8,23.1-16.9,27.5-23.9h92.9c8.1,0,14.7-6.6,14.7-14.7V84.1C527.9,76,521.3,69.4,513.2,69.4z"/>
				<path class="st4" d="M459.1,98h-62.9c-1.7,0-3.1-1.4-3.1-3.1l0,0c0-1.7,1.4-3.1,3.1-3.1h62.9c1.7,0,3.1,1.4,3.1,3.1l0,0
					C462.2,96.6,460.8,98,459.1,98z"/>
				<path class="st13" d="M504.2,116.2H395c-1.1,0-1.9-0.9-1.9-1.9l0,0c0-1.1,0.9-1.9,1.9-1.9h109.2c1.1,0,1.9,0.9,1.9,1.9l0,0
					C506.1,115.4,505.2,116.2,504.2,116.2z"/>
				<path class="st13" d="M504.2,126.9H395c-1.1,0-1.9-0.9-1.9-1.9l0,0c0-1.1,0.9-1.9,1.9-1.9h109.2c1.1,0,1.9,0.9,1.9,1.9l0,0
					C506.1,126,505.2,126.9,504.2,126.9z"/>
				<path class="st13" d="M480.4,138.2H395c-1.1,0-1.9-0.9-1.9-1.9l0,0c0-1.1,0.9-1.9,1.9-1.9h85.4c1.1,0,1.9,0.9,1.9,1.9l0,0
					C482.3,137.3,481.4,138.2,480.4,138.2z"/>
				<path class="st4" d="M503.3,98h-30c-1.7,0-3.1-1.4-3.1-3.1l0,0c0-1.7,1.4-3.1,3.1-3.1h30c1.7,0,3.1,1.4,3.1,3.1l0,0
					C506.4,96.6,505,98,503.3,98z"/>
			</g>
			<g>
				<path class="st4" d="M427.7,236.3h-34.1c-1.3,0-2.3-1-2.3-2.3v-23.3c0-1.3,1-2.3,2.3-2.3h34.1c1.3,0,2.3,1,2.3,2.3V234
					C430,235.3,429,236.3,427.7,236.3z"/>
				<g>
					<g>
						<path class="st11" d="M410.9,226.6c-0.2,0-0.4-0.1-0.5-0.2l-18.5-15.3c-0.4-0.3-0.4-0.8-0.1-1.2c0.3-0.4,0.8-0.4,1.2-0.1
							l18,14.8l17.5-15.2c0.4-0.3,0.9-0.3,1.2,0.1c0.3,0.4,0.3,0.9-0.1,1.2l-18.1,15.7C411.3,226.5,411.1,226.6,410.9,226.6z"/>
					</g>
					<g>
						<path class="st11" d="M392.4,235.7c-0.2,0-0.4-0.1-0.6-0.2c-0.3-0.3-0.4-0.9,0-1.2l13-13.6c0.3-0.3,0.9-0.4,1.2,0
							c0.3,0.3,0.4,0.9,0,1.2l-13,13.6C392.8,235.6,392.6,235.7,392.4,235.7z"/>
					</g>
					<g>
						<path class="st11" d="M429,235.2c-0.2,0-0.4-0.1-0.6-0.2L415.5,222c-0.3-0.3-0.3-0.9,0-1.2c0.3-0.3,0.9-0.3,1.2,0l12.9,12.9
							c0.3,0.3,0.3,0.9,0,1.2C429.4,235.1,429.2,235.2,429,235.2z"/>
					</g>
				</g>
			</g>
			<g>
				<g>
					<path class="st14" d="M313.6,194c0,0-18.2-6.8-29.7,6.5c-6.5,7.6-48.3,87.3-47.8,94.3c0.5,7,4.5,10.5,4.5,10.5
						s-1.7-6.1-0.4-9.3c0,0-0.8,10.7,5.8,15.3c3.5,2.4,89.5-2.3,97-12.7c16.3-22.7-19.2-34.4-18.4-58.9
						C325.1,225.6,339.1,195.4,313.6,194z"/>
					<path class="st15" d="M331,244.7l-1.2,0.2c-5.4,1.1-10.8-2.5-11.9-7.9l-1.3-6.4c-1.1-5.4,2.5-10.8,7.9-11.9l1.2-0.2
						c5.4-1.1,10.8,2.5,11.9,7.9l1.3,6.4C340,238.3,336.5,243.6,331,244.7z"/>
					<path class="st16" d="M409.1,374.8H352c-9.7-15.4-18.2-36.1-20.2-52.3c-0.9-7.7-0.4-14.3,2.1-18.8c8-14.1-4.7-30.6-4.7-30.6
						s17.4,4.9,21.5,19.3c4.1,14.6,15.2,63.3,15.2,63.3l42.4,8.7C410.4,369.3,409.1,374.8,409.1,374.8z"/>
					<path class="st15" d="M409.1,374.8H352c-9.7-15.4-18.2-36.1-20.2-52.3l8.5-2.6c0,0,10.7,48.9,16.9,49.7
						C363.5,370.3,409.1,374.8,409.1,374.8z"/>
					<path class="st17" d="M337.7,296.2c-4.4,3.8-10,7.2-17.3,9.8c-27.3,9.6-40.7-12.8-46.6-28.6c3.6-2.6,7.1-3.5,9.2-4
						c2-0.5,4.1-0.9,5.9-1.2c2.9-2.8,6.4-13.2,5.8-28.6l1.4,0.2l22.8,3.5c0,0-0.2,7.1,0,13.8c0.2,5.2,0.7,10.2,1.8,11.3
						c1.8,0.2,2.8,0.3,2.8,0.3s0,0,0,0C323.8,273.3,331.4,283.1,337.7,296.2z"/>
					<path class="st18" d="M318.8,247.4c0,0-0.2,7.1,0,13.8c-12.7,0.2-19.8-11.1-22.8-17.4L318.8,247.4z"/>
					<path class="st16" d="M348.6,319.9c-0.1,0.5-6.1,20.3-6.2,20.8c-2.1,16.6-5.9,34.2-5.9,34.2l-8.4,0l-55.2-0.1
						c0,0,6.7-20.1-10.9-50.9c-0.6-1-1.2-2-1.8-3.1c-2.5-4.1,13.3-48,13.3-48s6.9-1.2,16.6-2c0.9,0.8,7.6,25.5,19.8,26.2
						c15.9,1,9.9-26.5,9.9-26.5c6.5,1.3,8.8,1.8,17.1,5.8C336.9,276.3,348.9,317.2,348.6,319.9z"/>
					<path class="st17" d="M322.9,253.9c0,0-29.9,1.3-30.4-17.4c-0.5-18.6-4.7-31,14.4-32.6c19.1-1.6,23,5.4,24.7,11.6
						C333.2,221.7,330.7,253.1,322.9,253.9z"/>
					<path class="st4" d="M316.4,243.9c0,0,0.3,2.2,5.2,2.3c0,0,4.1,0,4.2-2.4C325.8,243.8,321.9,241.8,316.4,243.9z"/>
					<g>
						<path class="st19" d="M318.5,251.3C301.2,247,296,231.2,296,231l1.8-0.6l-0.9,0.3l0.9-0.3c0,0.2,4.9,15,21.2,19
							c0.1,0,0.2,0.1,0.3,0.1l-0.4,1.8C318.7,251.4,318.6,251.3,318.5,251.3z"/>
					</g>
					<path class="st14" d="M320.5,252.5l-1.6-0.4c-0.8-0.2-1.3-1.1-1.1-1.9l0,0c0.2-0.8,1.1-1.3,1.9-1.1l1.6,0.4
						c0.8,0.2,1.3,1.1,1.1,1.9l0,0C322.2,252.1,321.3,252.7,320.5,252.5z"/>
					<path class="st14" d="M306,192.3c0,0,19.3-3,27.2,13c6.1,12.2,1,19.8-1.4,22.2c0,0-3.1-17.5-9-19c0,0-3.8-1.2-6.4,1.9
						c-2.6,3-6.3,16.4-10.6,18.5c0,0-13.3,3.3-14-1.4c-0.7-4.7-0.3-19.2,3.1-21.5C298.2,203.6,306,192.3,306,192.3z"/>
					<g>
						<path class="st15" d="M299.9,244.7l-1.2,0.2c-5.4,1.1-10.8-2.5-11.9-7.9l-1.3-6.4c-1.1-5.4,2.5-10.8,7.9-11.9l1.2-0.2
							c5.4-1.1,10.8,2.5,11.9,7.9l1.3,6.4C308.9,238.3,305.3,243.6,299.9,244.7z"/>
						<g>
							<path class="st15" d="M290.4,221.7c-0.8-1.3-2-12,1.3-20.5c1.6-4.1,4.1-6.5,7.3-8c1.2-0.6,2.5-0.9,3.8-0.9l3.2,0
								c-10.6,4-13.1,25.6-12.2,28c0-0.1-0.1-0.1-0.1-0.2L290.4,221.7z"/>
						</g>
						<path class="st16" d="M297,238.5l-0.6,0.1c-2.7,0.5-5.4-1.2-5.9-3.9l-0.6-3.2c-0.5-2.7,1.2-5.4,3.9-5.9l0.6-0.1
							c2.7-0.5,5.4,1.2,5.9,3.9l0.6,3.2C301.5,235.2,299.7,237.9,297,238.5z"/>
					</g>
					<path class="st15" d="M272.9,374.8c0,0,6.7-20.1-10.9-50.9l6.5-8.2c0,0,11.6,32.8,26,42.4c14.4,9.5,31.4,7.5,33.5,16.8
						L272.9,374.8z"/>
					<path class="st16" d="M273.5,272.8c0,0-11.9,1-19.9,15.1c-8,14.1-23.1,66.7-23.1,86.8h63.7c0,0,1.2-5.5-0.7-10.5l-39.4-7.6
						c0,0,23.7-35.2,24-50.4C278.3,291.1,273.5,272.8,273.5,272.8z"/>
					<path class="st17" d="M294.6,368.3c0,0,12.4-1.2,14.5-0.7c2.1,0.6,7.9,3,9.2,3.8c1.3,0.8,3.8,3.3,3.8,3.3s-1.6,0.3-2.5,0.1
						c-0.9-0.2-3.7-0.4-4.5-0.5c-0.7-0.1-3.4,0.5-3.4,0.5h-19.2L294.6,368.3z"/>
				</g>
				<g>
					<path class="st20" d="M407,374.9h-61.2l0,0c0-2.7,2.2-4.9,4.9-4.9H407V374.9z"/>
					<polygon class="st20" points="501.5,308.3 478.8,374.9 383.5,374.9 406.9,308.3 					"/>
					<polygon class="st9" points="501.5,308.3 479,374.3 478.8,374.9 384.9,374.9 408.2,308.3 					"/>
					<path class="st16" d="M451.9,341c-0.6,2.5-3.1,4.6-5.7,4.6c-2.5,0-4.1-2.1-3.5-4.6c0.6-2.5,3.1-4.6,5.7-4.6
						C450.9,336.4,452.4,338.4,451.9,341z"/>
					<polygon class="st20" points="501.5,308.3 479,374.3 435.9,374.3 488.4,308.3 					"/>
				</g>
			</g>
		</g>
	</g>
</g>
</svg>
