<svg width="446" height="97" viewBox="0 0 446 97" fill="none" xmlns="http://www.w3.org/2000/svg">
<g clip-path="url(#clip0_1601_6829)">
<path fill-rule="evenodd" clip-rule="evenodd" d="M92.7896 36.0935C92.7896 51.0935 75.6396 51.6735 75.6396 51.6735C74.8402 51.7293 74.0658 51.9765 73.3819 52.3942C72.6979 52.8118 72.1244 53.3878 71.7096 54.0735C71.2427 54.8456 70.9971 55.7312 70.9996 56.6335V74.8235C71.003 79.3166 69.6306 83.7029 67.067 87.3928C64.5034 91.0826 60.8715 93.8991 56.6596 95.4635C52.5104 93.9161 48.9247 91.1525 46.3716 87.5343C43.8184 83.916 42.4167 79.6114 42.3496 75.1835C42.3944 76.0576 42.6111 76.9143 42.9872 77.7047C43.3633 78.495 43.8916 79.2034 44.5417 79.7895C45.1918 80.3755 45.9511 80.8276 46.776 81.12C47.601 81.4124 48.4755 81.5393 49.3496 81.4935C51.0869 81.3611 52.7078 80.5699 53.8808 79.2816C55.0538 77.9933 55.6902 76.3055 55.6596 74.5635V54.9535C55.6417 53.3582 55.7959 51.7657 56.1196 50.2035C56.7749 47.0124 58.3374 44.0782 60.6196 41.7535C69.6596 32.5635 88.3296 35.2835 92.7896 36.0935Z" fill="url(#paint0_linear_1601_6829)"/>
<path fill-rule="evenodd" clip-rule="evenodd" d="M95.2003 7.63281V12.7528H91.6603V17.8728H88.1103V22.9928H21.6603C17.0623 23.0741 12.6272 24.7097 9.07729 27.6331C5.52739 30.5566 3.07176 34.5957 2.11027 39.0928C0.708966 36.1364 -0.0152844 32.9046 -0.00973396 29.6328C-0.00973396 15.6328 12.1603 7.63281 21.9903 7.63281H95.2003Z" fill="url(#paint1_linear_1601_6829)"/>
<path fill-rule="evenodd" clip-rule="evenodd" d="M56.6603 95.4678C54.2029 96.3818 51.602 96.8491 48.9803 96.8478C37.3203 96.8478 26.9803 87.8478 26.9803 76.3278C26.9803 75.9078 26.9803 56.5178 26.9203 56.4678C26.8686 55.1767 26.3191 53.9557 25.3869 53.0609C24.4548 52.166 23.2124 51.6668 21.9203 51.6678C18.8548 51.6681 15.8231 51.0278 13.0195 49.7879C10.216 48.548 7.70251 46.7359 5.64027 44.4678C4.17909 42.8727 2.96253 41.0698 2.03027 39.1178C2.9929 34.6057 5.45948 30.5543 9.02589 27.6274C12.5923 24.7005 17.047 23.0717 21.6603 23.0078C19.9327 23.1025 18.3101 23.8666 17.1368 25.1381C15.9635 26.4096 15.332 28.0884 15.3762 29.8179C15.4205 31.5475 16.137 33.1917 17.3738 34.4016C18.6106 35.6114 20.2702 36.2916 22.0003 36.2978C25.164 36.2923 28.2851 37.0275 31.1137 38.4444C33.9424 39.8614 36.4002 41.9208 38.2903 44.4578C39.5502 46.1329 40.5389 47.9956 41.2203 49.9778C41.6641 51.2484 41.9724 52.5624 42.1403 53.8978C42.2746 54.8015 42.3381 55.7142 42.3303 56.6278V74.8278C42.3303 74.9478 42.3303 75.0578 42.3303 75.1678C42.3949 79.6015 43.7977 83.9121 46.3549 87.5346C48.9121 91.1571 52.5042 93.9224 56.6603 95.4678Z" fill="url(#paint2_linear_1601_6829)"/>
<path d="M101.75 7.1875H97.7197V11.2175H101.75V7.1875Z" fill="#E2000F"/>
<path d="M99.1599 13.8672H95.1299V17.8972H99.1599V13.8672Z" fill="#E2000F"/>
<path d="M95.78 20.0391H91.75V24.0691H95.78V20.0391Z" fill="#E2000F"/>
<path d="M104.46 18.9688H101V22.4288H104.46V18.9688Z" fill="#E2000F"/>
<path d="M107.22 12.1875H103.76V15.6475H107.22V12.1875Z" fill="#E2000F"/>
<path d="M108.95 4.92969H105.49V8.38969H108.95V4.92969Z" fill="#E2000F"/>
<path d="M114.23 10.6562H111.56V13.4963H114.23V10.6562Z" fill="#E2000F"/>
<path d="M116.41 2.55469H113.74V5.39469H116.41V2.55469Z" fill="#E2000F"/>
<path d="M118.95 7.79688H116.28V10.6369H118.95V7.79688Z" fill="#E2000F"/>
<path d="M123.09 0.15625H120.42V2.99625H123.09V0.15625Z" fill="#E2000F"/>
<path d="M110.99 16.8047H108.32V19.6447H110.99V16.8047Z" fill="#E2000F"/>
<path d="M133.103 73.3261H129.147V84.0609H127.282V73.3261H123.367V71.5625H133.103V73.3261Z" fill="#264294"/>
<path d="M149.027 84.0609H139.852V71.5625H148.772V73.3261H141.748V76.7209H148.313V78.4743H141.748V82.2972H149.067L149.027 84.0609Z" fill="#264294"/>
<path d="M166.244 80.0259C166.085 80.6345 165.848 81.2203 165.541 81.7692C165.254 82.2718 164.885 82.7232 164.45 83.1046C164.019 83.4847 163.516 83.7757 162.972 83.961C162.371 84.163 161.74 84.2629 161.106 84.2566C160.277 84.2737 159.453 84.1138 158.69 83.7877C158.011 83.4877 157.411 83.0341 156.937 82.4624C156.464 81.8581 156.117 81.1647 155.917 80.4235C155.663 79.5494 155.54 78.6425 155.55 77.7322C155.538 76.813 155.687 75.8988 155.989 75.0307C156.246 74.2932 156.652 73.6165 157.182 73.0428C157.69 72.5047 158.309 72.0838 158.996 71.8092C159.727 71.5261 160.506 71.3842 161.29 71.3913C161.902 71.3822 162.511 71.4717 163.094 71.6563C163.592 71.8172 164.055 72.0695 164.46 72.4005C164.865 72.7261 165.21 73.1193 165.48 73.5627C165.755 74.0339 165.97 74.5372 166.122 75.0613L164.267 75.418C164.127 74.7359 163.748 74.1261 163.199 73.6982C162.649 73.2703 161.965 73.0523 161.27 73.0835C160.716 73.072 160.167 73.1798 159.659 73.3996C159.205 73.61 158.807 73.9243 158.497 74.3171C158.172 74.7542 157.934 75.2489 157.793 75.7749C157.631 76.4145 157.553 77.0724 157.559 77.7322C157.544 78.471 157.63 79.2083 157.814 79.924C157.956 80.4707 158.205 80.9836 158.548 81.4327C158.847 81.8139 159.235 82.1151 159.679 82.3095C160.144 82.5047 160.643 82.6018 161.147 82.5949C161.94 82.6299 162.714 82.3558 163.308 81.8303C163.903 81.2477 164.305 80.4971 164.46 79.6793L166.244 80.0259Z" fill="#264294"/>
<path d="M183.055 84.0609H181.19V78.3214H175.196V84.0609H173.31V71.5625H175.196V76.568H181.19V71.5625H183.055V84.0609Z" fill="#264294"/>
<path d="M200.621 84.0609H198.684L192.74 74.631V84.0609H190.905V71.5625H192.822L198.765 80.9923V71.5625H200.58L200.621 84.0609Z" fill="#264294"/>
<path d="M213.71 71.3834C214.519 71.3722 215.322 71.532 216.065 71.8523C216.765 72.1521 217.391 72.6009 217.9 73.1674C218.427 73.7609 218.829 74.4543 219.083 75.2063C219.377 76.055 219.522 76.9484 219.511 77.8466C219.522 78.7383 219.377 79.625 219.083 80.4666C218.832 81.2201 218.43 81.9141 217.9 82.5055C217.394 83.0755 216.767 83.5249 216.065 83.8206C215.32 84.1328 214.518 84.2889 213.71 84.2793C212.876 84.2917 212.048 84.1248 211.284 83.79C210.585 83.4798 209.959 83.0246 209.449 82.4545C208.927 81.8608 208.532 81.1671 208.287 80.4156C208.009 79.6301 207.871 78.8021 207.879 77.969C207.864 77.0205 208.009 76.0762 208.307 75.1757C208.568 74.425 208.974 73.7325 209.5 73.1368C210.016 72.5791 210.645 72.1378 211.345 71.8421C212.095 71.5339 212.899 71.378 213.71 71.3834ZM213.71 82.5972C214.261 82.6047 214.807 82.4935 215.311 82.271C215.78 82.0568 216.192 81.7356 216.514 81.3331C216.858 80.8884 217.117 80.3838 217.278 79.8447C217.463 79.1981 217.559 78.5293 217.564 77.8568C217.575 77.1672 217.482 76.4798 217.288 75.8179C217.127 75.272 216.86 74.7629 216.503 74.3194C216.179 73.9214 215.768 73.6039 215.301 73.3917C214.814 73.1724 214.285 73.0611 213.751 73.0654C213.21 73.0603 212.673 73.1607 212.171 73.3611C211.691 73.5578 211.268 73.8694 210.937 74.2684C210.563 74.7191 210.289 75.2437 210.132 75.8077C209.923 76.5226 209.823 77.265 209.836 78.0097C209.829 78.6355 209.922 79.2584 210.112 79.8549C210.271 80.3823 210.53 80.8738 210.876 81.3025C211.211 81.7006 211.628 82.0207 212.099 82.2404C212.598 82.4716 213.141 82.59 213.69 82.587L213.71 82.5972Z" fill="#264294"/>
<path d="M234.415 84.0609H226.77V71.5625H228.655V82.2972H234.415V84.0609Z" fill="#264294"/>
<path d="M246.475 71.3835C247.288 71.3712 248.094 71.531 248.84 71.8524C249.537 72.1524 250.16 72.6012 250.665 73.1675C251.195 73.7606 251.6 74.4539 251.858 75.2064C252.149 76.0557 252.29 76.9491 252.276 77.8467C252.29 78.7378 252.149 79.6245 251.858 80.4667C251.604 81.2185 251.202 81.9117 250.675 82.5056C250.17 83.0756 249.543 83.525 248.84 83.8207C248.092 84.1337 247.287 84.2898 246.475 84.2794C245.644 84.291 244.82 84.1241 244.059 83.7901C243.36 83.4799 242.734 83.0247 242.224 82.4546C241.703 81.8588 241.305 81.1659 241.052 80.4157C240.783 79.6282 240.649 78.8011 240.654 77.9691C240.641 77.0215 240.782 76.0781 241.072 75.1758C241.336 74.4243 241.745 73.7317 242.275 73.1369C242.791 72.5793 243.42 72.1379 244.12 71.8422C244.867 71.5354 245.668 71.3794 246.475 71.3835ZM246.475 82.5973C247.029 82.6047 247.578 82.4935 248.086 82.2711C248.553 82.0541 248.964 81.7333 249.289 81.3332C249.633 80.8886 249.893 80.3839 250.053 79.8448C250.241 79.1883 250.337 78.5091 250.339 77.8264C250.35 77.1367 250.257 76.4494 250.064 75.7875C249.898 75.2431 249.632 74.7348 249.279 74.2889C248.955 73.8909 248.543 73.5734 248.076 73.3612C247.586 73.1408 247.053 73.0295 246.516 73.035C245.978 73.029 245.445 73.1295 244.946 73.3306C244.465 73.5236 244.04 73.8358 243.712 74.2379C243.339 74.6905 243.062 75.2142 242.897 75.7773C242.692 76.4927 242.595 77.2351 242.611 77.9793C242.606 78.6042 242.696 79.2262 242.877 79.8245C243.043 80.3507 243.306 80.8414 243.651 81.2721C243.986 81.6701 244.403 81.9902 244.875 82.2099C245.367 82.4515 245.907 82.5804 246.455 82.5872L246.475 82.5973Z" fill="#264294"/>
<path d="M270.268 82.3624C268.813 83.573 266.982 84.2397 265.089 84.2483C264.231 84.2595 263.379 84.1036 262.581 83.7896C261.846 83.5044 261.181 83.0627 260.634 82.4949C260.08 81.9093 259.653 81.215 259.38 80.456C259.073 79.6137 258.921 78.7225 258.932 77.8259C258.918 76.9349 259.059 76.0483 259.35 75.2059C259.604 74.4497 260.013 73.7551 260.552 73.167C261.087 72.5839 261.746 72.1276 262.479 71.8315C263.309 71.5012 264.196 71.3384 265.089 71.3524C267.831 71.3524 269.503 72.535 270.084 74.9103L268.372 75.3078C268.184 74.5888 267.742 73.9625 267.126 73.546C266.511 73.1295 265.765 72.9513 265.028 73.0447C264.41 73.0312 263.795 73.1458 263.223 73.3811C262.717 73.6136 262.273 73.963 261.929 74.4005C261.566 74.8346 261.301 75.3425 261.154 75.8889C260.973 76.5079 260.883 77.1503 260.889 77.7953C260.875 78.4857 260.972 79.174 261.174 79.8342C261.342 80.3807 261.619 80.8873 261.99 81.3226C262.338 81.7268 262.779 82.0415 263.274 82.24C263.826 82.4559 264.415 82.5632 265.007 82.5561C266.245 82.5585 267.451 82.1696 268.453 81.4449V79.406H264.946V77.6118H270.268V82.3624Z" fill="#264294"/>
<path d="M279.689 84.0609H277.803V71.5625H279.689V84.0609Z" fill="#264294"/>
<path d="M296.774 84.0609H287.599V71.5625H296.519V73.3261H289.485V76.7209H296.06V78.4743H289.485V82.2972H296.814L296.774 84.0609Z" fill="#264294"/>
<path d="M310.771 75.2843C310.759 74.9648 310.682 74.6509 310.546 74.3618C310.409 74.0727 310.215 73.8143 309.976 73.6022C309.407 73.1707 308.7 72.9606 307.988 73.011C307.645 73.0079 307.303 73.0456 306.968 73.1231C306.674 73.1914 306.392 73.3049 306.132 73.4595C305.91 73.6 305.722 73.788 305.582 74.01C305.466 74.2174 305.401 74.4487 305.39 74.6858C305.38 74.9229 305.424 75.1592 305.521 75.3761C305.644 75.581 305.815 75.7526 306.02 75.8756C306.343 76.0533 306.685 76.1936 307.04 76.2936C307.448 76.4261 307.978 76.5586 308.62 76.7013C309.262 76.8441 309.853 77.0072 310.394 77.1805C310.896 77.3367 311.371 77.5706 311.801 77.8737C312.189 78.153 312.507 78.5196 312.728 78.9441C312.968 79.4461 313.084 79.9987 313.065 80.5548C313.071 81.0705 312.955 81.5803 312.728 82.0432C312.505 82.4975 312.184 82.8975 311.79 83.2156C311.358 83.5557 310.867 83.8148 310.343 83.9801C309.739 84.1701 309.11 84.263 308.477 84.2554C307.708 84.2687 306.942 84.1656 306.204 83.9496C305.601 83.7737 305.04 83.4791 304.552 83.0831C304.115 82.7217 303.766 82.2648 303.533 81.7476C303.301 81.2015 303.169 80.6177 303.146 80.0247L304.96 79.8922C304.971 80.3135 305.083 80.7261 305.286 81.0951C305.465 81.431 305.716 81.7234 306.02 81.9515C306.329 82.1759 306.674 82.3449 307.04 82.451C307.452 82.5629 307.877 82.6178 308.304 82.6141C308.703 82.6225 309.101 82.5745 309.486 82.4714C309.81 82.393 310.117 82.2584 310.394 82.0738C310.628 81.9073 310.823 81.6916 310.965 81.4417C311.106 81.1899 311.176 80.9046 311.169 80.616C311.176 80.3615 311.131 80.1082 311.036 79.8718C310.917 79.6293 310.729 79.4272 310.496 79.2907C310.145 79.0799 309.768 78.9154 309.374 78.8014C308.885 78.6485 308.253 78.4956 307.478 78.3223C306.866 78.1966 306.268 78.0087 305.694 77.7616C305.251 77.5793 304.844 77.3205 304.491 76.997C304.184 76.7179 303.949 76.3679 303.808 75.9775C303.652 75.5926 303.575 75.1798 303.584 74.7644C303.577 74.2881 303.682 73.8168 303.89 73.3882C304.098 72.9647 304.398 72.5923 304.766 72.2974C305.179 71.9796 305.645 71.738 306.143 71.5837C306.731 71.405 307.343 71.319 307.957 71.3289C308.585 71.3206 309.21 71.4065 309.813 71.5837C310.343 71.7277 310.839 71.9773 311.27 72.3177C311.676 72.6359 312.007 73.0397 312.239 73.5003C312.48 74.0043 312.616 74.5525 312.637 75.111L310.771 75.2843Z" fill="#264294"/>
<path d="M330.722 71.5632H335.309C335.997 71.5537 336.683 71.6395 337.348 71.8181C337.87 71.9542 338.357 72.201 338.775 72.5419C339.145 72.865 339.429 73.2748 339.601 73.7346C339.948 74.7665 339.948 75.8834 339.601 76.9153C339.433 77.3932 339.161 77.8282 338.806 78.1896C338.411 78.5738 337.938 78.8692 337.419 79.0561C336.765 79.2868 336.074 79.3973 335.381 79.3823H332.608V84.0616H330.722V71.5632ZM332.608 77.6187H335.166C335.905 77.6687 336.642 77.4908 337.277 77.109C337.52 76.9062 337.711 76.647 337.832 76.3539C337.953 76.0607 338 75.7425 337.97 75.4269C337.981 75.077 337.914 74.729 337.776 74.4075C337.65 74.1475 337.456 73.9258 337.216 73.7652C336.94 73.6005 336.635 73.4898 336.318 73.439C335.924 73.3744 335.525 73.3437 335.126 73.3472H332.608V77.6187Z" fill="#264294"/>
<path d="M356.839 71.5625L352.14 84.0609H350.101L345.523 71.5625H347.562L350.702 80.6355C350.702 80.7986 350.804 80.9312 350.845 81.0535C350.886 81.1758 350.916 81.3084 350.947 81.4307C350.988 81.5466 351.019 81.666 351.039 81.7875C351.039 81.9098 351.069 82.0424 351.13 82.1851L351.314 81.4307C351.385 81.186 351.467 80.921 351.569 80.6355L354.862 71.5625H356.839Z" fill="#264294"/>
<path d="M371.856 73.3261H367.9V84.0609H366.035V73.3261H362.12V71.5625H371.856V73.3261Z" fill="#264294"/>
<path d="M376.637 84.0655V81.8125H378.676V84.0655H376.637Z" fill="#264294"/>
<path d="M405.06 84.0609H397.414V71.5625H399.3V82.2972H405.06V84.0609Z" fill="#264294"/>
<path d="M418.965 73.3261H415.02V84.0609H413.144V73.3261H409.239V71.5625H418.965V73.3261Z" fill="#264294"/>
<path d="M425.684 71.5724H430.047C430.848 71.5099 431.654 71.6134 432.413 71.8765C433.173 72.1396 433.87 72.5567 434.461 73.1016C435.536 74.4011 436.063 76.0687 435.929 77.7502C436.054 79.4459 435.545 81.1277 434.502 82.4702C433.949 83.0318 433.281 83.4659 432.543 83.7424C431.805 84.0188 431.016 84.1309 430.23 84.0708H425.684V71.5724ZM427.57 82.3275H430.047C430.666 82.3425 431.284 82.2494 431.872 82.0523C432.353 81.8838 432.779 81.5879 433.105 81.1959C433.444 80.7764 433.681 80.2846 433.798 79.7585C433.949 79.0896 434.021 78.4053 434.012 77.7196C434.026 77.0319 433.943 76.3458 433.768 75.6807C433.625 75.1774 433.362 74.7158 433.003 74.3351C432.652 73.9833 432.217 73.7272 431.739 73.5909C431.165 73.4307 430.571 73.3551 429.975 73.3666H427.57V82.3275Z" fill="#264294"/>
<path d="M443.583 84.0655V81.8125H445.622V84.0655H443.583Z" fill="#264294"/>
<path d="M140.106 42.2178V61.2304H133.99V42.2178H123V37.0391H151.096V42.2688L140.106 42.2178Z" fill="#E2000F"/>
<path d="M186.42 49.8535C186.896 49.2383 187.268 48.5496 187.521 47.8146C187.819 46.9071 187.96 45.9557 187.939 45.0009C187.997 43.6252 187.695 42.2582 187.062 41.0353C186.548 40.0791 185.823 39.2528 184.942 38.6192C184.151 38.0457 183.258 37.6271 182.312 37.3857C181.557 37.1787 180.78 37.0623 179.998 37.0391H157.998V42.2688H179.039C179.294 42.2753 179.547 42.3095 179.794 42.3707C180.123 42.451 180.436 42.5853 180.721 42.7683C181.038 42.983 181.3 43.2694 181.486 43.6043C181.712 44.0341 181.821 44.5157 181.802 45.0009C181.82 45.4846 181.696 45.9629 181.445 46.3772C181.233 46.7111 180.956 46.9989 180.63 47.2233C180.346 47.4155 180.032 47.5602 179.702 47.6515C179.487 47.718 179.264 47.759 179.039 47.7738H157.998V61.2814H164.115V53.0035H176.939L180.844 61.2814H187.409L183.158 52.3103C183.765 52.0616 184.342 51.7471 184.881 51.3724C185.475 50.9555 185.995 50.4421 186.42 49.8535Z" fill="#E2000F"/>
<path d="M195.196 61.2304V37.0391H224.607V42.2688H201.333V46.632H221.794V51.3112H201.303V56.0211H225.484V61.2508L195.196 61.2304Z" fill="#E2000F"/>
<path d="M256.394 61.2304L238.748 44.2975V61.2304H232.631V37.0391H238.748L256.394 53.972V37.0391H262.511V61.2814L256.394 61.2304Z" fill="#E2000F"/>
<path d="M301.779 44.3987C301.382 43.5531 300.878 42.7618 300.28 42.0438C299.827 41.4936 299.322 40.9884 298.772 40.535C297.338 39.3757 295.699 38.4973 293.939 37.9457C291.817 37.2729 289.6 36.9493 287.374 36.9874H270.492V42.0846H287.242C288.622 42.058 289.998 42.2472 291.319 42.6453C292.356 42.9541 293.323 43.4633 294.164 44.1439C294.895 44.7512 295.471 45.5233 295.846 46.3968C296.566 48.1611 296.566 50.1376 295.846 51.9018C295.471 52.7754 294.895 53.5475 294.164 54.1548C293.321 54.8349 292.355 55.3471 291.319 55.6636C289.997 56.0574 288.621 56.2431 287.242 56.2141H276.639V47.7629H270.523V61.2705H287.405C289.63 61.3067 291.846 60.9866 293.97 60.3224C295.728 59.7633 297.367 58.8817 298.802 57.7228C300.685 56.1475 301.999 53.9979 302.542 51.6039C303.085 49.2099 302.828 46.7037 301.809 44.4701L301.779 44.3987Z" fill="#E2000F"/>
<path d="M337.765 53.3946C337.753 54.5998 337.4 55.7769 336.746 56.7893C335.989 57.9479 334.96 58.9034 333.748 59.5724C332.16 60.4639 330.439 61.097 328.651 61.4482C326.303 61.9259 323.911 62.1515 321.515 62.121C320.054 62.1198 318.595 62.0039 317.152 61.7744C315.73 61.5646 314.321 61.2753 312.931 60.9079C311.381 60.5124 309.88 59.9447 308.456 59.2156L310.587 54.363C311.818 54.993 313.109 55.4984 314.44 55.8718C315.593 56.2005 316.764 56.4592 317.947 56.6466C319.128 56.8338 320.32 56.9394 321.515 56.9626C324.145 57.0755 326.776 56.7587 329.304 56.0247C331.016 55.4029 331.873 54.5873 331.873 53.5679C331.89 53.2792 331.822 52.9917 331.68 52.7403C331.537 52.4889 331.324 52.2842 331.067 52.1509C330.293 51.7889 329.445 51.611 328.59 51.631L327.142 51.5392L324.543 51.427L321.128 51.2843C319.874 51.2843 318.569 51.1824 317.223 51.111C315.968 51.0541 314.721 50.8697 313.502 50.5605C312.456 50.2965 311.463 49.8552 310.566 49.2556C309.773 48.7365 309.113 48.0381 308.64 47.2168C308.155 46.334 307.912 45.3386 307.936 44.3317C307.947 43.1924 308.334 42.0885 309.037 41.1919C309.882 40.1173 310.954 39.2435 312.177 38.6331C313.742 37.836 315.409 37.2597 317.132 36.9204C319.272 36.4844 321.452 36.2759 323.636 36.2985C325.085 36.3007 326.533 36.4029 327.968 36.6044C329.222 36.7879 330.619 37.0529 332.168 37.3995C333.724 37.7473 335.238 38.26 336.684 38.9287L334.839 43.7099C334.039 43.3787 333.223 43.0894 332.393 42.8434C331.489 42.5647 330.541 42.32 329.548 42.1094C328.529 41.9055 327.51 41.7424 326.551 41.6302C325.583 41.5187 324.61 41.4609 323.636 41.4569C322.338 41.4501 321.042 41.5148 319.752 41.6506C318.693 41.7481 317.646 41.9391 316.622 42.2215C315.895 42.4135 315.205 42.7272 314.583 43.1492C314.365 43.2819 314.183 43.4652 314.052 43.6835C313.921 43.9019 313.844 44.1488 313.829 44.4031C313.817 44.6766 313.882 44.9478 314.018 45.1858C314.153 45.4237 314.352 45.6189 314.593 45.7488C315.299 46.1009 316.078 46.2791 316.867 46.2687L321.576 46.4726L328.763 46.7886C330.03 46.8402 331.287 47.0247 332.515 47.3391C333.523 47.6008 334.479 48.0354 335.339 48.6236C336.095 49.1462 336.711 49.8463 337.133 50.6625C337.562 51.5085 337.779 52.4461 337.765 53.3946Z" fill="#E2000F"/>
<path d="M375.832 49.1044C375.842 50.8221 375.462 52.5198 374.721 54.0691C373.948 55.6444 372.846 57.0351 371.489 58.1469C369.975 59.3839 368.247 60.334 366.392 60.9503C361.916 62.3367 357.125 62.3367 352.65 60.9503C350.776 60.3397 349.031 59.3894 347.502 58.1469C346.144 57.0351 345.042 55.6444 344.27 54.0691C343.538 52.5164 343.158 50.821 343.158 49.1044C343.158 47.3878 343.538 45.6924 344.27 44.1397C345.042 42.5645 346.144 41.1738 347.502 40.062C349.031 38.8195 350.776 37.8692 352.65 37.2585C357.125 35.8722 361.916 35.8722 366.392 37.2585C368.247 37.8748 369.975 38.8249 371.489 40.062C372.846 41.1738 373.948 42.5645 374.721 44.1397C375.462 45.6891 375.842 47.3867 375.832 49.1044ZM369.379 49.1044C369.384 48.087 369.175 47.0799 368.767 46.148C368.348 45.1928 367.717 44.3455 366.922 43.6708C366.009 42.9028 364.952 42.3241 363.813 41.9683C360.977 41.1392 357.963 41.1392 355.127 41.9683C353.988 42.3241 352.931 42.9028 352.018 43.6708C351.222 44.3455 350.591 45.1928 350.172 46.148C349.769 47.0815 349.561 48.0876 349.561 49.1044C349.561 50.1213 349.769 51.1274 350.172 52.0608C350.591 53.0161 351.222 53.8633 352.018 54.538C352.934 55.3023 353.99 55.8805 355.127 56.2405C357.963 57.0697 360.977 57.0697 363.813 56.2405C364.95 55.8805 366.006 55.3023 366.922 54.538C367.717 53.8633 368.348 53.0161 368.767 52.0608C369.175 51.1289 369.384 50.1218 369.379 49.1044Z" fill="#E2000F"/>
<path d="M388.707 42.2178V47.7228H408.943V52.9525H388.707V61.2304H382.591V37.0391H411.726V42.2688L388.707 42.2178Z" fill="#E2000F"/>
<path d="M435.01 42.2178V61.2304H428.893V42.2178H417.914V37.0391H446V42.2688L435.01 42.2178Z" fill="#E2000F"/>
</g>
<defs>
<linearGradient id="paint0_linear_1601_6829" x1="87.9196" y1="55.5935" x2="13.8996" y2="86.6035" gradientUnits="userSpaceOnUse">
<stop offset="0.13" stop-color="#008AD1"/>
<stop offset="0.27" stop-color="#0481CA"/>
<stop offset="0.5" stop-color="#0F6AB8"/>
<stop offset="0.79" stop-color="#20459B"/>
<stop offset="1" stop-color="#2F2482"/>
</linearGradient>
<linearGradient id="paint1_linear_1601_6829" x1="-21.1897" y1="41.0128" x2="105.27" y2="-2.56717" gradientUnits="userSpaceOnUse">
<stop offset="0.06" stop-color="#009DE2"/>
<stop offset="0.23" stop-color="#0B81CC"/>
<stop offset="0.5" stop-color="#185EB0"/>
<stop offset="0.72" stop-color="#21489E"/>
<stop offset="0.86" stop-color="#244098"/>
</linearGradient>
<linearGradient id="paint2_linear_1601_6829" x1="2.72027" y1="44.2078" x2="52.7803" y2="70.6178" gradientUnits="userSpaceOnUse">
<stop stop-color="#E2000F"/>
<stop offset="0.13" stop-color="#E5120E"/>
<stop offset="0.38" stop-color="#EC430A"/>
<stop offset="0.74" stop-color="#F68F04"/>
<stop offset="1" stop-color="#FFCB00"/>
</linearGradient>
<clipPath id="clip0_1601_6829">
<rect width="445.6" height="96.69" fill="white" transform="translate(0 0.15625)"/>
</clipPath>
</defs>
</svg>
