<svg width="446" height="97" viewBox="0 0 446 97" fill="none" xmlns="http://www.w3.org/2000/svg">
<g clip-path="url(#clip0_1600_6287)">
<path fill-rule="evenodd" clip-rule="evenodd" d="M92.7901 35.9373C92.7901 50.9373 75.6401 51.5173 75.6401 51.5173C74.8406 51.5731 74.0663 51.8202 73.3824 52.2379C72.6984 52.6556 72.1249 53.2316 71.7101 53.9173C71.2432 54.6893 70.9975 55.575 71.0001 56.4773V74.6673C71.0035 79.1603 69.6311 83.5466 67.0675 87.2365C64.5039 90.9264 60.872 93.7429 56.6601 95.3073C52.5109 93.7598 48.9252 90.9963 46.3721 87.378C43.8189 83.7597 42.4172 79.4551 42.3501 75.0273C42.3949 75.9014 42.6116 76.7581 42.9877 77.5484C43.3638 78.3387 43.892 79.0472 44.5422 79.6332C45.1923 80.2193 45.9515 80.6714 46.7765 80.9638C47.6015 81.2562 48.476 81.3831 49.3501 81.3373C51.0873 81.2049 52.7083 80.4136 53.8813 79.1253C55.0543 77.8371 55.6906 76.1493 55.6601 74.4073V54.7973C55.6422 53.202 55.7964 51.6095 56.1201 50.0473C56.7754 46.8561 58.3379 43.922 60.6201 41.5973C69.6601 32.4073 88.3301 35.1273 92.7901 35.9373Z" fill="url(#paint0_linear_1600_6287)"/>
<path fill-rule="evenodd" clip-rule="evenodd" d="M95.1998 7.47656V12.5966H91.6598V17.7166H88.1098V22.8366H21.6598C17.0618 22.9179 12.6267 24.5534 9.0768 27.4769C5.5269 30.4003 3.07127 34.4395 2.10978 38.9366C0.708477 35.9801 -0.0157726 32.7483 -0.0102222 29.4766C-0.0102222 15.4766 12.1598 7.47656 21.9898 7.47656H95.1998Z" fill="url(#paint1_linear_1600_6287)"/>
<path fill-rule="evenodd" clip-rule="evenodd" d="M56.6598 95.3116C54.2025 96.2255 51.6016 96.6929 48.9798 96.6916C37.3198 96.6916 26.9798 87.6916 26.9798 76.1716C26.9798 75.7516 26.9798 56.3616 26.9198 56.3116C26.8681 55.0204 26.3186 53.7995 25.3864 52.9046C24.4543 52.0098 23.2119 51.5105 21.9198 51.5116C18.8543 51.5119 15.8226 50.8716 13.019 49.6317C10.2155 48.3918 7.70202 46.5797 5.63978 44.3116C4.1786 42.7165 2.96204 40.9135 2.02979 38.9615C2.99241 34.4494 5.45899 30.398 9.0254 27.4711C12.5918 24.5443 17.0466 22.9154 21.6598 22.8516C19.9323 22.9462 18.3096 23.7104 17.1363 24.9819C15.963 26.2534 15.3315 27.9321 15.3757 29.6617C15.42 31.3912 16.1365 33.0354 17.3733 34.2453C18.6101 35.4552 20.2697 36.1354 21.9998 36.1416C25.1635 36.1361 28.2846 36.8712 31.1133 38.2882C33.9419 39.7051 36.3997 41.7645 38.2898 44.3016C39.5497 45.9767 40.5384 47.8394 41.2198 49.8215C41.6636 51.0922 41.9719 52.4062 42.1398 53.7416C42.2741 54.6452 42.3376 55.558 42.3298 56.4716V74.6716C42.3298 74.7916 42.3298 74.9016 42.3298 75.0116C42.3944 79.4452 43.7972 83.7559 46.3544 87.3784C48.9116 91.0009 52.5037 93.7661 56.6598 95.3116Z" fill="url(#paint2_linear_1600_6287)"/>
<path d="M101.75 7.03125H97.7202V11.0613H101.75V7.03125Z" fill="#E2000F"/>
<path d="M99.1599 13.7109H95.1299V17.7409H99.1599V13.7109Z" fill="#E2000F"/>
<path d="M95.78 19.8828H91.75V23.9128H95.78V19.8828Z" fill="#E2000F"/>
<path d="M104.46 18.8125H101V22.2725H104.46V18.8125Z" fill="#E2000F"/>
<path d="M107.22 12.0312H103.76V15.4913H107.22V12.0312Z" fill="#E2000F"/>
<path d="M108.95 4.77344H105.49V8.23344H108.95V4.77344Z" fill="#E2000F"/>
<path d="M114.23 10.5H111.56V13.34H114.23V10.5Z" fill="#E2000F"/>
<path d="M116.41 2.39844H113.74V5.23844H116.41V2.39844Z" fill="#E2000F"/>
<path d="M118.95 7.64062H116.28V10.4806H118.95V7.64062Z" fill="#E2000F"/>
<path d="M123.09 0H120.42V2.84H123.09V0Z" fill="#E2000F"/>
<path d="M110.99 16.6484H108.32V19.4884H110.99V16.6484Z" fill="#E2000F"/>
<path d="M84.2886 89.0068H81.943V95.3728H80.8366V89.0068H78.5151V87.9609H84.2886V89.0068Z" fill="#264294"/>
<path d="M93.7315 95.3728H88.2905V87.9609H93.5804V89.0068H89.415V91.02H93.3083V92.0598H89.415V94.3269H93.7557L93.7315 95.3728Z" fill="#264294"/>
<path d="M103.942 92.9803C103.848 93.3412 103.707 93.6886 103.525 94.0141C103.355 94.3122 103.136 94.5799 102.878 94.8061C102.622 95.0315 102.324 95.2041 102.002 95.3139C101.645 95.4337 101.271 95.493 100.895 95.4892C100.403 95.4994 99.915 95.4045 99.4625 95.2111C99.0597 95.0333 98.7037 94.7642 98.4227 94.4252C98.1421 94.0668 97.9365 93.6556 97.8181 93.2161C97.6673 92.6977 97.594 92.1599 97.6005 91.6201C97.5933 91.075 97.6813 90.5329 97.8605 90.018C98.0128 89.5807 98.2536 89.1794 98.5678 88.8391C98.8691 88.5201 99.2363 88.2704 99.6439 88.1076C100.078 87.9397 100.539 87.8556 101.004 87.8597C101.367 87.8544 101.728 87.9074 102.074 88.0169C102.369 88.1123 102.644 88.262 102.884 88.4583C103.124 88.6514 103.329 88.8845 103.489 89.1475C103.652 89.4269 103.78 89.7254 103.87 90.0362L102.769 90.2477C102.686 89.8432 102.462 89.4816 102.136 89.2278C101.81 88.974 101.405 88.8448 100.992 88.8633C100.664 88.8565 100.338 88.9204 100.037 89.0507C99.7676 89.1755 99.5316 89.3619 99.3477 89.5948C99.1553 89.8541 99.0138 90.1474 98.9305 90.4593C98.8345 90.8387 98.7878 91.2288 98.7915 91.6201C98.7827 92.0582 98.8336 92.4955 98.9426 92.9199C99.0268 93.2441 99.1748 93.5482 99.3779 93.8146C99.5553 94.0406 99.7858 94.2193 100.049 94.3345C100.324 94.4503 100.621 94.5079 100.92 94.5038C101.389 94.5246 101.849 94.362 102.201 94.0504C102.554 93.7049 102.792 93.2598 102.884 92.7748L103.942 92.9803Z" fill="#264294"/>
<path d="M113.912 95.3728H112.806V91.9691H109.251V95.3728H108.132V87.9609H109.251V90.9293H112.806V87.9609H113.912V95.3728Z" fill="#264294"/>
<path d="M124.328 95.3728H123.18L119.655 89.7807V95.3728H118.567V87.9609H119.703L123.228 93.5531V87.9609H124.304L124.328 95.3728Z" fill="#264294"/>
<path d="M132.091 87.8519C132.57 87.8453 133.046 87.94 133.487 88.13C133.902 88.3078 134.273 88.5739 134.575 88.9099C134.888 89.2618 135.126 89.673 135.277 90.119C135.451 90.6223 135.537 91.1521 135.53 91.6848C135.537 92.2135 135.451 92.7394 135.277 93.2385C135.128 93.6853 134.889 94.0969 134.575 94.4476C134.275 94.7856 133.903 95.0521 133.487 95.2275C133.045 95.4126 132.57 95.5052 132.091 95.4995C131.596 95.5069 131.105 95.4079 130.652 95.2093C130.237 95.0254 129.866 94.7554 129.563 94.4174C129.254 94.0653 129.02 93.6539 128.874 93.2083C128.71 92.7424 128.628 92.2514 128.632 91.7573C128.624 91.1948 128.709 90.6349 128.886 90.1008C129.041 89.6557 129.282 89.245 129.594 88.8917C129.9 88.561 130.273 88.2993 130.688 88.1239C131.133 87.9412 131.61 87.8487 132.091 87.8519ZM132.091 94.502C132.417 94.5065 132.741 94.4405 133.04 94.3085C133.318 94.1815 133.562 93.991 133.753 93.7524C133.957 93.4886 134.111 93.1894 134.206 92.8697C134.316 92.4862 134.373 92.0896 134.376 91.6908C134.382 91.2819 134.327 90.8742 134.212 90.4817C134.117 90.1579 133.959 89.856 133.747 89.593C133.555 89.357 133.311 89.1687 133.034 89.0429C132.745 88.9128 132.431 88.8468 132.115 88.8494C131.794 88.8464 131.476 88.9059 131.178 89.0247C130.893 89.1414 130.642 89.3262 130.446 89.5628C130.224 89.8301 130.062 90.1411 129.969 90.4757C129.845 90.8996 129.785 91.3399 129.793 91.7815C129.789 92.1526 129.844 92.522 129.956 92.8758C130.051 93.1885 130.205 93.48 130.41 93.7342C130.608 93.9703 130.856 94.1601 131.135 94.2904C131.431 94.4275 131.753 94.4977 132.078 94.496L132.091 94.502Z" fill="#264294"/>
<path d="M144.369 95.3728H139.835V87.9609H140.953V94.3269H144.369V95.3728Z" fill="#264294"/>
<path d="M151.521 87.852C152.003 87.8447 152.481 87.9394 152.924 88.1301C153.337 88.3079 153.707 88.5741 154.006 88.9099C154.32 89.2617 154.561 89.6728 154.713 90.119C154.886 90.6227 154.97 91.1525 154.961 91.6848C154.97 92.2132 154.886 92.7391 154.713 93.2385C154.563 93.6844 154.324 94.0955 154.012 94.4477C153.712 94.7857 153.34 95.0522 152.924 95.2275C152.48 95.4132 152.003 95.5058 151.521 95.4996C151.028 95.5064 150.54 95.4075 150.089 95.2094C149.674 95.0254 149.303 94.7555 149 94.4174C148.691 94.0641 148.455 93.6532 148.305 93.2083C148.146 92.7413 148.066 92.2508 148.069 91.7574C148.062 91.1954 148.145 90.636 148.317 90.1009C148.474 89.6553 148.716 89.2445 149.031 88.8918C149.337 88.5611 149.71 88.2994 150.125 88.124C150.568 87.942 151.042 87.8496 151.521 87.852ZM151.521 94.5021C151.85 94.5064 152.176 94.4405 152.477 94.3086C152.754 94.1799 152.998 93.9897 153.19 93.7524C153.394 93.4887 153.548 93.1894 153.643 92.8698C153.755 92.4804 153.812 92.0776 153.813 91.6727C153.819 91.2638 153.764 90.8562 153.649 90.4636C153.551 90.1408 153.393 89.8394 153.184 89.5749C152.992 89.3389 152.748 89.1506 152.47 89.0248C152.18 88.8941 151.864 88.8281 151.546 88.8313C151.227 88.8278 150.91 88.8874 150.615 89.0067C150.329 89.1211 150.077 89.3062 149.883 89.5447C149.662 89.8131 149.497 90.1237 149.399 90.4576C149.278 90.8819 149.221 91.3221 149.23 91.7634C149.227 92.134 149.28 92.5029 149.387 92.8577C149.486 93.1697 149.642 93.4608 149.847 93.7161C150.045 93.9522 150.293 94.142 150.572 94.2723C150.864 94.4156 151.184 94.492 151.509 94.496L151.521 94.5021Z" fill="#264294"/>
<path d="M165.631 94.3656C164.768 95.0835 163.683 95.4789 162.56 95.4841C162.052 95.4907 161.546 95.3982 161.073 95.212C160.637 95.0429 160.243 94.7809 159.918 94.4442C159.59 94.0969 159.336 93.6852 159.175 93.2351C158.992 92.7356 158.902 92.2071 158.909 91.6754C158.901 91.147 158.984 90.6212 159.157 90.1217C159.307 89.6732 159.55 89.2613 159.87 88.9125C160.187 88.5667 160.578 88.2962 161.013 88.1206C161.505 87.9247 162.031 87.8281 162.56 87.8364C164.187 87.8364 165.178 88.5377 165.523 89.9463L164.507 90.1821C164.396 89.7557 164.133 89.3843 163.768 89.1373C163.404 88.8903 162.961 88.7846 162.524 88.84C162.157 88.832 161.793 88.9 161.454 89.0395C161.154 89.1774 160.891 89.3846 160.686 89.6441C160.471 89.9015 160.314 90.2027 160.227 90.5267C160.119 90.8938 160.066 91.2747 160.07 91.6572C160.061 92.0667 160.119 92.4748 160.239 92.8663C160.338 93.1905 160.503 93.4908 160.722 93.749C160.929 93.9887 161.19 94.1753 161.484 94.2931C161.812 94.4211 162.16 94.4847 162.512 94.4805C163.246 94.482 163.961 94.2513 164.555 93.8215V92.6124H162.476V91.5484H165.631V94.3656Z" fill="#264294"/>
<path d="M171.218 95.3728H170.099V87.9609H171.218V95.3728Z" fill="#264294"/>
<path d="M181.35 95.3728H175.909V87.9609H181.199V89.0068H177.027V91.02H180.927V92.0598H177.027V94.3269H181.374L181.35 95.3728Z" fill="#264294"/>
<path d="M189.65 90.1664C189.643 89.9769 189.598 89.7908 189.517 89.6194C189.436 89.4479 189.321 89.2947 189.179 89.1689C188.841 88.913 188.423 88.7884 188 88.8183C187.797 88.8165 187.594 88.8388 187.396 88.8848C187.221 88.9253 187.054 88.9926 186.9 89.0843C186.768 89.1676 186.657 89.2791 186.573 89.4107C186.505 89.5337 186.466 89.6709 186.46 89.8115C186.453 89.9521 186.48 90.0923 186.537 90.2208C186.61 90.3424 186.712 90.4441 186.833 90.5171C187.025 90.6225 187.228 90.7056 187.438 90.7649C187.68 90.8435 187.994 90.9221 188.375 91.0068C188.756 91.0914 189.106 91.1881 189.427 91.2909C189.725 91.3835 190.006 91.5222 190.261 91.702C190.492 91.8676 190.68 92.0851 190.811 92.3368C190.954 92.6345 191.022 92.9622 191.011 93.292C191.014 93.5978 190.946 93.9001 190.811 94.1746C190.679 94.444 190.489 94.6813 190.255 94.8699C189.999 95.0716 189.708 95.2252 189.397 95.3233C189.039 95.4359 188.665 95.491 188.29 95.4865C187.834 95.4944 187.38 95.4332 186.942 95.3052C186.585 95.2009 186.252 95.0262 185.963 94.7913C185.703 94.577 185.496 94.306 185.358 93.9993C185.22 93.6755 185.143 93.3293 185.128 92.9776L186.205 92.899C186.211 93.1489 186.277 93.3935 186.398 93.6124C186.504 93.8116 186.653 93.985 186.833 94.1202C187.016 94.2533 187.221 94.3536 187.438 94.4165C187.682 94.4828 187.934 94.5154 188.187 94.5132C188.424 94.5182 188.66 94.4897 188.889 94.4286C189.081 94.382 189.263 94.3022 189.427 94.1928C189.566 94.094 189.681 93.9661 189.765 93.818C189.849 93.6686 189.891 93.4994 189.886 93.3283C189.89 93.1773 189.864 93.0271 189.808 92.8869C189.737 92.7431 189.626 92.6233 189.487 92.5423C189.279 92.4173 189.056 92.3198 188.822 92.2522C188.532 92.1615 188.157 92.0708 187.698 91.968C187.335 91.8935 186.98 91.7821 186.64 91.6355C186.377 91.5274 186.136 91.3739 185.926 91.1821C185.744 91.0166 185.605 90.809 185.521 90.5775C185.429 90.3493 185.383 90.1045 185.388 89.8581C185.384 89.5757 185.447 89.2962 185.57 89.042C185.694 88.7909 185.871 88.57 186.09 88.3951C186.334 88.2067 186.611 88.0634 186.906 87.9719C187.254 87.8659 187.618 87.8149 187.982 87.8208C188.354 87.8159 188.725 87.8668 189.082 87.9719C189.397 88.0573 189.691 88.2053 189.947 88.4072C190.187 88.5959 190.384 88.8353 190.521 89.1085C190.664 89.4073 190.745 89.7325 190.757 90.0637L189.65 90.1664Z" fill="#264294"/>
<path d="M201.482 87.9614H204.202C204.611 87.9557 205.017 88.0066 205.412 88.1125C205.721 88.1932 206.01 88.3396 206.258 88.5417C206.477 88.7334 206.645 88.9764 206.748 89.2491C206.953 89.861 206.953 90.5233 206.748 91.1353C206.648 91.4187 206.487 91.6767 206.276 91.891C206.042 92.1188 205.761 92.294 205.454 92.4048C205.066 92.5416 204.656 92.6072 204.245 92.5983H202.6V95.3732H201.482V87.9614ZM202.6 91.5524H204.118C204.556 91.5821 204.993 91.4766 205.369 91.2501C205.514 91.1299 205.627 90.9762 205.698 90.8023C205.77 90.6285 205.798 90.4398 205.78 90.2526C205.787 90.0451 205.747 89.8388 205.665 89.6481C205.59 89.4939 205.476 89.3624 205.333 89.2672C205.17 89.1695 204.989 89.1039 204.801 89.0737C204.567 89.0355 204.331 89.0173 204.094 89.0193H202.6V91.5524Z" fill="#264294"/>
<path d="M216.97 87.9609L214.183 95.3728H212.974L210.26 87.9609H211.469L213.331 93.3415C213.331 93.4382 213.391 93.5168 213.416 93.5893C213.44 93.6619 213.458 93.7405 213.476 93.813C213.5 93.8818 213.519 93.9526 213.53 94.0246C213.53 94.0972 213.549 94.1758 213.585 94.2604L213.694 93.813C213.736 93.6679 213.784 93.5108 213.845 93.3415L215.797 87.9609H216.97Z" fill="#264294"/>
<path d="M225.876 89.0068H223.53V95.3728H222.424V89.0068H220.102V87.9609H225.876V89.0068Z" fill="#264294"/>
<path d="M228.71 95.3751V94.0391H229.92V95.3751H228.71Z" fill="#264294"/>
<path d="M245.566 95.3728H241.032V87.9609H242.15V94.3269H245.566V95.3728Z" fill="#264294"/>
<path d="M253.812 89.0068H251.472V95.3728H250.36V89.0068H248.044V87.9609H253.812V89.0068Z" fill="#264294"/>
<path d="M257.796 87.9636H260.383C260.859 87.9265 261.336 87.9879 261.787 88.144C262.237 88.3 262.651 88.5473 263.001 88.8705C263.639 89.6412 263.951 90.63 263.872 91.6272C263.946 92.6328 263.644 93.6302 263.025 94.4263C262.698 94.7593 262.301 95.0168 261.864 95.1807C261.426 95.3447 260.958 95.4111 260.492 95.3755H257.796V87.9636ZM258.914 94.3417H260.383C260.751 94.3506 261.117 94.2954 261.466 94.1785C261.751 94.0786 262.004 93.9031 262.197 93.6706C262.398 93.4219 262.538 93.1302 262.608 92.8182C262.698 92.4215 262.74 92.0157 262.735 91.6091C262.743 91.2013 262.694 90.7944 262.59 90.4C262.505 90.1015 262.35 89.8278 262.137 89.602C261.928 89.3934 261.67 89.2415 261.387 89.1607C261.047 89.0656 260.694 89.0208 260.341 89.0277H258.914V94.3417Z" fill="#264294"/>
<path d="M268.412 95.3751V94.0391H269.621V95.3751H268.412Z" fill="#264294"/>
<path d="M88.4418 70.5555V81.8305H84.8145V70.5555H78.2974V67.4844H94.9589V70.5857L88.4418 70.5555Z" fill="#E2000F"/>
<path d="M115.907 75.0836C116.189 74.7189 116.409 74.3104 116.56 73.8745C116.736 73.3364 116.82 72.7722 116.808 72.206C116.842 71.3901 116.663 70.5794 116.288 69.8542C115.983 69.2872 115.553 68.7972 115.03 68.4214C114.561 68.0813 114.032 67.8331 113.47 67.6899C113.023 67.5672 112.562 67.4982 112.098 67.4844H99.0518V70.5857H111.53C111.681 70.5896 111.831 70.6099 111.977 70.6462C112.172 70.6938 112.358 70.7735 112.527 70.882C112.715 71.0093 112.871 71.1791 112.981 71.3777C113.115 71.6326 113.179 71.9182 113.168 72.206C113.179 72.4928 113.105 72.7764 112.957 73.0221C112.831 73.2201 112.666 73.3908 112.473 73.5239C112.305 73.6379 112.119 73.7237 111.923 73.7778C111.795 73.8172 111.663 73.8416 111.53 73.8503H99.0518V81.8607H102.679V76.9517H110.284L112.6 81.8607H116.493L113.972 76.5406C114.332 76.3931 114.675 76.2066 114.994 75.9844C115.346 75.7372 115.655 75.4327 115.907 75.0836Z" fill="#E2000F"/>
<path d="M121.112 81.8305V67.4844H138.553V70.5857H124.751V73.1732H136.885V75.9482H124.733V78.7412H139.073V81.8426L121.112 81.8305Z" fill="#E2000F"/>
<path d="M157.404 81.8305L146.939 71.7888V81.8305H143.312V67.4844H146.939L157.404 77.526V67.4844H161.031V81.8607L157.404 81.8305Z" fill="#E2000F"/>
<path d="M184.318 71.85C184.083 71.3486 183.784 70.8793 183.43 70.4535C183.161 70.1272 182.861 69.8276 182.535 69.5588C181.685 68.8713 180.713 68.3503 179.669 68.0232C178.411 67.6243 177.096 67.4323 175.776 67.4549H165.765V70.4777H175.698C176.516 70.4619 177.332 70.5741 178.116 70.8102C178.731 70.9934 179.304 71.2953 179.802 71.6989C180.236 72.059 180.578 72.5169 180.8 73.035C181.227 74.0812 181.227 75.2533 180.8 76.2996C180.578 76.8176 180.236 77.2755 179.802 77.6356C179.303 78.0389 178.73 78.3427 178.116 78.5304C177.331 78.7639 176.516 78.8741 175.698 78.8568H169.41V73.8451H165.783V81.8554H175.794C177.114 81.8769 178.428 81.6871 179.688 81.2932C180.73 80.9616 181.702 80.4388 182.553 79.7516C183.67 78.8174 184.449 77.5426 184.771 76.1229C185.093 74.7032 184.941 73.217 184.337 71.8923L184.318 71.85Z" fill="#E2000F"/>
<path d="M205.659 77.1863C205.652 77.901 205.442 78.5991 205.054 79.1994C204.606 79.8865 203.995 80.4531 203.277 80.8499C202.335 81.3785 201.314 81.754 200.254 81.9622C198.862 82.2456 197.443 82.3793 196.022 82.3612C195.156 82.3605 194.291 82.2918 193.435 82.1557C192.592 82.0313 191.756 81.8597 190.932 81.6418C190.013 81.4073 189.123 81.0707 188.278 80.6383L189.542 77.7606C190.272 78.1341 191.037 78.4339 191.827 78.6553C192.51 78.8502 193.205 79.0037 193.906 79.1148C194.607 79.2258 195.314 79.2884 196.022 79.3022C197.582 79.3691 199.142 79.1813 200.641 78.746C201.657 78.3772 202.165 77.8936 202.165 77.289C202.175 77.1178 202.135 76.9474 202.05 76.7983C201.965 76.6491 201.839 76.5277 201.687 76.4487C201.228 76.2341 200.725 76.1285 200.218 76.1404L199.36 76.086L197.818 76.0195L195.793 75.9348C195.049 75.9348 194.275 75.8744 193.477 75.8321C192.733 75.7983 191.993 75.6889 191.271 75.5056C190.65 75.349 190.061 75.0873 189.529 74.7318C189.059 74.4239 188.668 74.0097 188.387 73.5227C188.099 72.9991 187.955 72.4089 187.97 71.8118C187.976 71.1361 188.206 70.4815 188.623 69.9497C189.124 69.3125 189.759 68.7943 190.485 68.4323C191.412 67.9596 192.401 67.6178 193.423 67.4166C194.692 67.1581 195.985 67.0344 197.28 67.0479C198.139 67.0491 198.998 67.1097 199.849 67.2292C200.593 67.338 201.421 67.4952 202.34 67.7008C203.262 67.907 204.16 68.211 205.018 68.6076L203.924 71.443C203.45 71.2466 202.965 71.075 202.473 70.9291C201.937 70.7639 201.375 70.6188 200.786 70.4938C200.182 70.3729 199.577 70.2762 199.009 70.2097C198.435 70.1436 197.858 70.1093 197.28 70.1069C196.511 70.1029 195.742 70.1412 194.977 70.2218C194.349 70.2796 193.728 70.3929 193.121 70.5603C192.689 70.6742 192.281 70.8602 191.911 71.1105C191.782 71.1892 191.674 71.2979 191.596 71.4274C191.519 71.5568 191.473 71.7032 191.464 71.8541C191.457 72.0162 191.496 72.1771 191.576 72.3182C191.656 72.4593 191.775 72.5751 191.917 72.6521C192.336 72.8609 192.798 72.9666 193.266 72.9604L196.059 73.0813L200.321 73.2687C201.072 73.2993 201.817 73.4088 202.546 73.5952C203.144 73.7504 203.71 74.0081 204.22 74.3569C204.668 74.6669 205.034 75.082 205.284 75.566C205.539 76.0677 205.667 76.6238 205.659 77.1863Z" fill="#E2000F"/>
<path d="M228.233 74.6415C228.239 75.6602 228.014 76.6669 227.574 77.5857C227.116 78.5199 226.463 79.3446 225.658 80.0039C224.76 80.7376 223.735 81.301 222.635 81.6665C219.981 82.4886 217.14 82.4886 214.486 81.6665C213.375 81.3043 212.34 80.7408 211.433 80.0039C210.628 79.3446 209.974 78.5199 209.516 77.5857C209.082 76.6649 208.857 75.6595 208.857 74.6415C208.857 73.6235 209.082 72.6181 209.516 71.6974C209.974 70.7632 210.628 69.9385 211.433 69.2791C212.34 68.5423 213.375 67.9787 214.486 67.6166C217.14 66.7945 219.981 66.7945 222.635 67.6166C223.735 67.9821 224.76 68.5455 225.658 69.2791C226.463 69.9385 227.116 70.7632 227.574 71.6974C228.014 72.6161 228.239 73.6229 228.233 74.6415ZM224.406 74.6415C224.409 74.0382 224.286 73.441 224.044 72.8883C223.795 72.3218 223.421 71.8194 222.949 71.4193C222.408 70.9638 221.781 70.6206 221.106 70.4096C219.424 69.9179 217.636 69.9179 215.955 70.4096C215.279 70.6206 214.652 70.9638 214.111 71.4193C213.639 71.8194 213.265 72.3218 213.017 72.8883C212.777 73.4419 212.654 74.0385 212.654 74.6415C212.654 75.2446 212.777 75.8412 213.017 76.3947C213.265 76.9613 213.639 77.4637 214.111 77.8638C214.654 78.317 215.28 78.6599 215.955 78.8734C217.636 79.3651 219.424 79.3651 221.106 78.8734C221.78 78.6599 222.406 78.317 222.949 77.8638C223.421 77.4637 223.795 76.9613 224.044 76.3947C224.286 75.8421 224.409 75.2449 224.406 74.6415Z" fill="#E2000F"/>
<path d="M235.869 70.5555V73.8201H247.869V76.9215H235.869V81.8305H232.241V67.4844H249.519V70.5857L235.869 70.5555Z" fill="#E2000F"/>
<path d="M263.328 70.5555V81.8305H259.701V70.5555H253.189V67.4844H269.845V70.5857L263.328 70.5555Z" fill="#E2000F"/>
</g>
<defs>
<linearGradient id="paint0_linear_1600_6287" x1="87.9201" y1="55.4373" x2="13.9001" y2="86.4473" gradientUnits="userSpaceOnUse">
<stop offset="0.13" stop-color="#008AD1"/>
<stop offset="0.27" stop-color="#0481CA"/>
<stop offset="0.5" stop-color="#0F6AB8"/>
<stop offset="0.79" stop-color="#20459B"/>
<stop offset="1" stop-color="#2F2482"/>
</linearGradient>
<linearGradient id="paint1_linear_1600_6287" x1="-21.1902" y1="40.8566" x2="105.27" y2="-2.72342" gradientUnits="userSpaceOnUse">
<stop offset="0.06" stop-color="#009DE2"/>
<stop offset="0.23" stop-color="#0B81CC"/>
<stop offset="0.5" stop-color="#185EB0"/>
<stop offset="0.72" stop-color="#21489E"/>
<stop offset="0.86" stop-color="#244098"/>
</linearGradient>
<linearGradient id="paint2_linear_1600_6287" x1="2.71978" y1="44.0516" x2="52.7798" y2="70.4616" gradientUnits="userSpaceOnUse">
<stop stop-color="#E2000F"/>
<stop offset="0.13" stop-color="#E5120E"/>
<stop offset="0.38" stop-color="#EC430A"/>
<stop offset="0.74" stop-color="#F68F04"/>
<stop offset="1" stop-color="#FFCB00"/>
</linearGradient>
<clipPath id="clip0_1600_6287">
<rect width="445.6" height="96.69" fill="white"/>
</clipPath>
</defs>
</svg>
