<svg width="839" height="240" viewBox="0 0 839 240" fill="none" xmlns="http://www.w3.org/2000/svg">
<rect y="19.9766" width="19.9762" height="19.9762" fill="#D9D9D9"/>
<rect y="59.9297" width="19.9762" height="19.9762" fill="#D9D9D9"/>
<rect y="99.8828" width="19.9762" height="19.9762" fill="#D9D9D9"/>
<rect y="139.836" width="19.9762" height="19.9762" fill="#D9D9D9"/>
<rect y="179.789" width="19.9762" height="19.9762" fill="#D9D9D9"/>
<rect y="219.734" width="19.9762" height="19.9762" fill="#D9D9D9"/>
<rect width="19.9762" height="19.9762" fill="white"/>
<rect y="39.9531" width="19.9762" height="19.9762" fill="white"/>
<rect y="79.9062" width="19.9762" height="19.9762" fill="white"/>
<rect y="119.859" width="19.9762" height="19.9762" fill="white"/>
<rect y="159.812" width="19.9762" height="19.9762" fill="white"/>
<rect y="199.766" width="19.9762" height="19.9762" fill="white"/>
<rect x="19.9761" y="19.9766" width="19.9762" height="19.9762" fill="white"/>
<rect x="19.9761" y="59.9297" width="19.9762" height="19.9762" fill="white"/>
<rect x="19.9761" y="99.8828" width="19.9762" height="19.9762" fill="white"/>
<rect x="19.9761" y="139.836" width="19.9762" height="19.9762" fill="white"/>
<rect x="19.9761" y="179.789" width="19.9762" height="19.9762" fill="white"/>
<rect x="19.9761" y="219.734" width="19.9762" height="19.9762" fill="white"/>
<rect x="19.9761" width="19.9762" height="19.9762" fill="#D9D9D9"/>
<rect x="19.9761" y="39.9531" width="19.9762" height="19.9762" fill="#D9D9D9"/>
<rect x="19.9761" y="79.9062" width="19.9762" height="19.9762" fill="#D9D9D9"/>
<rect x="19.9761" y="119.859" width="19.9762" height="19.9762" fill="#D9D9D9"/>
<rect x="19.9761" y="159.812" width="19.9762" height="19.9762" fill="#D9D9D9"/>
<rect x="19.9761" y="199.766" width="19.9762" height="19.9762" fill="#D9D9D9"/>
<rect x="39.9521" y="19.9766" width="19.9762" height="19.9762" fill="#D9D9D9"/>
<rect x="39.9521" y="59.9297" width="19.9762" height="19.9762" fill="#D9D9D9"/>
<rect x="39.9521" y="99.8828" width="19.9762" height="19.9762" fill="#D9D9D9"/>
<rect x="39.9521" y="139.836" width="19.9762" height="19.9762" fill="#D9D9D9"/>
<rect x="39.9521" y="179.789" width="19.9762" height="19.9762" fill="#D9D9D9"/>
<rect x="39.9521" y="219.734" width="19.9762" height="19.9762" fill="#D9D9D9"/>
<rect x="39.9521" width="19.9762" height="19.9762" fill="white"/>
<rect x="39.9521" y="39.9531" width="19.9762" height="19.9762" fill="white"/>
<rect x="39.9521" y="79.9062" width="19.9762" height="19.9762" fill="white"/>
<rect x="39.9521" y="119.859" width="19.9762" height="19.9762" fill="white"/>
<rect x="39.9521" y="159.812" width="19.9762" height="19.9762" fill="white"/>
<rect x="39.9521" y="199.766" width="19.9762" height="19.9762" fill="white"/>
<rect x="59.9287" y="19.9766" width="19.9762" height="19.9762" fill="white"/>
<rect x="59.9287" y="59.9297" width="19.9762" height="19.9762" fill="white"/>
<rect x="59.9287" y="99.8828" width="19.9762" height="19.9762" fill="white"/>
<rect x="59.9287" y="139.836" width="19.9762" height="19.9762" fill="white"/>
<rect x="59.9287" y="179.789" width="19.9762" height="19.9762" fill="white"/>
<rect x="59.9287" y="219.734" width="19.9762" height="19.9762" fill="white"/>
<rect x="59.9287" width="19.9762" height="19.9762" fill="#D9D9D9"/>
<rect x="59.9287" y="39.9531" width="19.9762" height="19.9762" fill="#D9D9D9"/>
<rect x="59.9287" y="79.9062" width="19.9762" height="19.9762" fill="#D9D9D9"/>
<rect x="59.9287" y="119.859" width="19.9762" height="19.9762" fill="#D9D9D9"/>
<rect x="59.9287" y="159.812" width="19.9762" height="19.9762" fill="#D9D9D9"/>
<rect x="59.9287" y="199.766" width="19.9762" height="19.9762" fill="#D9D9D9"/>
<rect x="79.9048" y="19.9766" width="19.9762" height="19.9762" fill="#D9D9D9"/>
<rect x="79.9048" y="59.9297" width="19.9762" height="19.9762" fill="#D9D9D9"/>
<rect x="79.9048" y="99.8828" width="19.9762" height="19.9762" fill="#D9D9D9"/>
<rect x="79.9048" y="139.836" width="19.9762" height="19.9762" fill="#D9D9D9"/>
<rect x="79.9048" y="179.789" width="19.9762" height="19.9762" fill="#D9D9D9"/>
<rect x="79.9048" y="219.734" width="19.9762" height="19.9762" fill="#D9D9D9"/>
<rect x="79.9048" width="19.9762" height="19.9762" fill="white"/>
<rect x="79.9048" y="39.9531" width="19.9762" height="19.9762" fill="white"/>
<rect x="79.9048" y="79.9062" width="19.9762" height="19.9762" fill="white"/>
<rect x="79.9048" y="119.859" width="19.9762" height="19.9762" fill="white"/>
<rect x="79.9048" y="159.812" width="19.9762" height="19.9762" fill="white"/>
<rect x="79.9048" y="199.766" width="19.9762" height="19.9762" fill="white"/>
<rect x="99.8809" y="19.9766" width="19.9762" height="19.9762" fill="white"/>
<rect x="99.8809" y="59.9297" width="19.9762" height="19.9762" fill="white"/>
<rect x="99.8809" y="99.8828" width="19.9762" height="19.9762" fill="white"/>
<rect x="99.8809" y="139.836" width="19.9762" height="19.9762" fill="white"/>
<rect x="99.8809" y="179.789" width="19.9762" height="19.9762" fill="white"/>
<rect x="99.8809" y="219.734" width="19.9762" height="19.9762" fill="white"/>
<rect x="99.8809" width="19.9762" height="19.9762" fill="#D9D9D9"/>
<rect x="99.8809" y="39.9531" width="19.9762" height="19.9762" fill="#D9D9D9"/>
<rect x="99.8809" y="79.9062" width="19.9762" height="19.9762" fill="#D9D9D9"/>
<rect x="99.8809" y="119.859" width="19.9762" height="19.9762" fill="#D9D9D9"/>
<rect x="99.8809" y="159.812" width="19.9762" height="19.9762" fill="#D9D9D9"/>
<rect x="99.8809" y="199.766" width="19.9762" height="19.9762" fill="#D9D9D9"/>
<rect x="119.857" y="19.9766" width="19.9762" height="19.9762" fill="#D9D9D9"/>
<rect x="119.857" y="59.9297" width="19.9762" height="19.9762" fill="#D9D9D9"/>
<rect x="119.857" y="99.8828" width="19.9762" height="19.9762" fill="#D9D9D9"/>
<rect x="119.857" y="139.836" width="19.9762" height="19.9762" fill="#D9D9D9"/>
<rect x="119.857" y="179.789" width="19.9762" height="19.9762" fill="#D9D9D9"/>
<rect x="119.857" y="219.734" width="19.9762" height="19.9762" fill="#D9D9D9"/>
<rect x="119.857" width="19.9762" height="19.9762" fill="white"/>
<rect x="119.857" y="39.9531" width="19.9762" height="19.9762" fill="white"/>
<rect x="119.857" y="79.9062" width="19.9762" height="19.9762" fill="white"/>
<rect x="119.857" y="119.859" width="19.9762" height="19.9762" fill="white"/>
<rect x="119.857" y="159.812" width="19.9762" height="19.9762" fill="white"/>
<rect x="119.857" y="199.766" width="19.9762" height="19.9762" fill="white"/>
<rect x="139.833" y="19.9766" width="19.9762" height="19.9762" fill="white"/>
<rect x="139.833" y="59.9297" width="19.9762" height="19.9762" fill="white"/>
<rect x="139.833" y="99.8828" width="19.9762" height="19.9762" fill="white"/>
<rect x="139.833" y="139.836" width="19.9762" height="19.9762" fill="white"/>
<rect x="139.833" y="179.789" width="19.9762" height="19.9762" fill="white"/>
<rect x="139.833" y="219.734" width="19.9762" height="19.9762" fill="white"/>
<rect x="139.833" width="19.9762" height="19.9762" fill="#D9D9D9"/>
<rect x="139.833" y="39.9531" width="19.9762" height="19.9762" fill="#D9D9D9"/>
<rect x="139.833" y="79.9062" width="19.9762" height="19.9762" fill="#D9D9D9"/>
<rect x="139.833" y="119.859" width="19.9762" height="19.9762" fill="#D9D9D9"/>
<rect x="139.833" y="159.812" width="19.9762" height="19.9762" fill="#D9D9D9"/>
<rect x="139.833" y="199.766" width="19.9762" height="19.9762" fill="#D9D9D9"/>
<rect x="159.81" y="19.9766" width="19.9762" height="19.9762" fill="#D9D9D9"/>
<rect x="159.81" y="59.9297" width="19.9762" height="19.9762" fill="#D9D9D9"/>
<rect x="159.81" y="99.8828" width="19.9762" height="19.9762" fill="#D9D9D9"/>
<rect x="159.81" y="139.836" width="19.9762" height="19.9762" fill="#D9D9D9"/>
<rect x="159.81" y="179.789" width="19.9762" height="19.9762" fill="#D9D9D9"/>
<rect x="159.81" y="219.734" width="19.9762" height="19.9762" fill="#D9D9D9"/>
<rect x="159.81" width="19.9762" height="19.9762" fill="white"/>
<rect x="159.81" y="39.9531" width="19.9762" height="19.9762" fill="white"/>
<rect x="159.81" y="79.9062" width="19.9762" height="19.9762" fill="white"/>
<rect x="159.81" y="119.859" width="19.9762" height="19.9762" fill="white"/>
<rect x="159.81" y="159.812" width="19.9762" height="19.9762" fill="white"/>
<rect x="159.81" y="199.766" width="19.9762" height="19.9762" fill="white"/>
<rect x="179.786" y="19.9766" width="19.9762" height="19.9762" fill="white"/>
<rect x="179.786" y="59.9297" width="19.9762" height="19.9762" fill="white"/>
<rect x="179.786" y="99.8828" width="19.9762" height="19.9762" fill="white"/>
<rect x="179.786" y="139.836" width="19.9762" height="19.9762" fill="white"/>
<rect x="179.786" y="179.789" width="19.9762" height="19.9762" fill="white"/>
<rect x="179.786" y="219.734" width="19.9762" height="19.9762" fill="white"/>
<rect x="179.786" width="19.9762" height="19.9762" fill="#D9D9D9"/>
<rect x="179.786" y="39.9531" width="19.9762" height="19.9762" fill="#D9D9D9"/>
<rect x="179.786" y="79.9062" width="19.9762" height="19.9762" fill="#D9D9D9"/>
<rect x="179.786" y="119.859" width="19.9762" height="19.9762" fill="#D9D9D9"/>
<rect x="179.786" y="159.812" width="19.9762" height="19.9762" fill="#D9D9D9"/>
<rect x="179.786" y="199.766" width="19.9762" height="19.9762" fill="#D9D9D9"/>
<rect x="199.762" y="19.9766" width="19.9762" height="19.9762" fill="#D9D9D9"/>
<rect x="199.762" y="59.9297" width="19.9762" height="19.9762" fill="#D9D9D9"/>
<rect x="199.762" y="99.8828" width="19.9762" height="19.9762" fill="#D9D9D9"/>
<rect x="199.762" y="139.836" width="19.9762" height="19.9762" fill="#D9D9D9"/>
<rect x="199.762" y="179.789" width="19.9762" height="19.9762" fill="#D9D9D9"/>
<rect x="199.762" y="219.734" width="19.9762" height="19.9762" fill="#D9D9D9"/>
<rect x="199.762" width="19.9762" height="19.9762" fill="white"/>
<rect x="199.762" y="39.9531" width="19.9762" height="19.9762" fill="white"/>
<rect x="199.762" y="79.9062" width="19.9762" height="19.9762" fill="white"/>
<rect x="199.762" y="119.859" width="19.9762" height="19.9762" fill="white"/>
<rect x="199.762" y="159.812" width="19.9762" height="19.9762" fill="white"/>
<rect x="199.762" y="199.766" width="19.9762" height="19.9762" fill="white"/>
<rect x="219.738" y="19.9766" width="19.9762" height="19.9762" fill="white"/>
<rect x="219.738" y="59.9297" width="19.9762" height="19.9762" fill="white"/>
<rect x="219.738" y="99.8828" width="19.9762" height="19.9762" fill="white"/>
<rect x="219.738" y="139.836" width="19.9762" height="19.9762" fill="white"/>
<rect x="219.738" y="179.789" width="19.9762" height="19.9762" fill="white"/>
<rect x="219.738" y="219.734" width="19.9762" height="19.9762" fill="white"/>
<rect x="219.738" width="19.9762" height="19.9762" fill="#D9D9D9"/>
<rect x="219.738" y="39.9531" width="19.9762" height="19.9762" fill="#D9D9D9"/>
<rect x="219.738" y="79.9062" width="19.9762" height="19.9762" fill="#D9D9D9"/>
<rect x="219.738" y="119.859" width="19.9762" height="19.9762" fill="#D9D9D9"/>
<rect x="219.738" y="159.812" width="19.9762" height="19.9762" fill="#D9D9D9"/>
<rect x="219.738" y="199.766" width="19.9762" height="19.9762" fill="#D9D9D9"/>
<rect x="239.714" y="19.9766" width="19.9762" height="19.9762" fill="#D9D9D9"/>
<rect x="239.714" y="59.9297" width="19.9762" height="19.9762" fill="#D9D9D9"/>
<rect x="239.714" y="99.8828" width="19.9762" height="19.9762" fill="#D9D9D9"/>
<rect x="239.714" y="139.836" width="19.9762" height="19.9762" fill="#D9D9D9"/>
<rect x="239.714" y="179.789" width="19.9762" height="19.9762" fill="#D9D9D9"/>
<rect x="239.714" y="219.734" width="19.9762" height="19.9762" fill="#D9D9D9"/>
<rect x="239.714" width="19.9762" height="19.9762" fill="white"/>
<rect x="239.714" y="39.9531" width="19.9762" height="19.9762" fill="white"/>
<rect x="239.714" y="79.9062" width="19.9762" height="19.9762" fill="white"/>
<rect x="239.714" y="119.859" width="19.9762" height="19.9762" fill="white"/>
<rect x="239.714" y="159.812" width="19.9762" height="19.9762" fill="white"/>
<rect x="239.714" y="199.766" width="19.9762" height="19.9762" fill="white"/>
<rect x="259.69" y="19.9766" width="19.9762" height="19.9762" fill="white"/>
<rect x="259.69" y="59.9297" width="19.9762" height="19.9762" fill="white"/>
<rect x="259.69" y="99.8828" width="19.9762" height="19.9762" fill="white"/>
<rect x="259.69" y="139.836" width="19.9762" height="19.9762" fill="white"/>
<rect x="259.69" y="179.789" width="19.9762" height="19.9762" fill="white"/>
<rect x="259.69" y="219.734" width="19.9762" height="19.9762" fill="white"/>
<rect x="259.69" width="19.9762" height="19.9762" fill="#D9D9D9"/>
<rect x="259.69" y="39.9531" width="19.9762" height="19.9762" fill="#D9D9D9"/>
<rect x="259.69" y="79.9062" width="19.9762" height="19.9762" fill="#D9D9D9"/>
<rect x="259.69" y="119.859" width="19.9762" height="19.9762" fill="#D9D9D9"/>
<rect x="259.69" y="159.812" width="19.9762" height="19.9762" fill="#D9D9D9"/>
<rect x="259.69" y="199.766" width="19.9762" height="19.9762" fill="#D9D9D9"/>
<rect x="279.667" y="19.9766" width="19.9762" height="19.9762" fill="#D9D9D9"/>
<rect x="279.667" y="59.9297" width="19.9762" height="19.9762" fill="#D9D9D9"/>
<rect x="279.667" y="99.8828" width="19.9762" height="19.9762" fill="#D9D9D9"/>
<rect x="279.667" y="139.836" width="19.9762" height="19.9762" fill="#D9D9D9"/>
<rect x="279.667" y="179.789" width="19.9762" height="19.9762" fill="#D9D9D9"/>
<rect x="279.667" y="219.734" width="19.9762" height="19.9762" fill="#D9D9D9"/>
<rect x="279.667" width="19.9762" height="19.9762" fill="white"/>
<rect x="279.667" y="39.9531" width="19.9762" height="19.9762" fill="white"/>
<rect x="279.667" y="79.9062" width="19.9762" height="19.9762" fill="white"/>
<rect x="279.667" y="119.859" width="19.9762" height="19.9762" fill="white"/>
<rect x="279.667" y="159.812" width="19.9762" height="19.9762" fill="white"/>
<rect x="279.667" y="199.766" width="19.9762" height="19.9762" fill="white"/>
<rect x="299.643" y="19.9766" width="19.9762" height="19.9762" fill="white"/>
<rect x="299.643" y="59.9297" width="19.9762" height="19.9762" fill="white"/>
<rect x="299.643" y="99.8828" width="19.9762" height="19.9762" fill="white"/>
<rect x="299.643" y="139.836" width="19.9762" height="19.9762" fill="white"/>
<rect x="299.643" y="179.789" width="19.9762" height="19.9762" fill="white"/>
<rect x="299.643" y="219.734" width="19.9762" height="19.9762" fill="white"/>
<rect x="299.643" width="19.9762" height="19.9762" fill="#D9D9D9"/>
<rect x="299.643" y="39.9531" width="19.9762" height="19.9762" fill="#D9D9D9"/>
<rect x="299.643" y="79.9062" width="19.9762" height="19.9762" fill="#D9D9D9"/>
<rect x="299.643" y="119.859" width="19.9762" height="19.9762" fill="#D9D9D9"/>
<rect x="299.643" y="159.812" width="19.9762" height="19.9762" fill="#D9D9D9"/>
<rect x="299.643" y="199.766" width="19.9762" height="19.9762" fill="#D9D9D9"/>
<rect x="319.619" y="19.9766" width="19.9762" height="19.9762" fill="#D9D9D9"/>
<rect x="319.619" y="59.9297" width="19.9762" height="19.9762" fill="#D9D9D9"/>
<rect x="319.619" y="99.8828" width="19.9762" height="19.9762" fill="#D9D9D9"/>
<rect x="319.619" y="139.836" width="19.9762" height="19.9762" fill="#D9D9D9"/>
<rect x="319.619" y="179.789" width="19.9762" height="19.9762" fill="#D9D9D9"/>
<rect x="319.619" y="219.734" width="19.9762" height="19.9762" fill="#D9D9D9"/>
<rect x="319.619" width="19.9762" height="19.9762" fill="white"/>
<rect x="319.619" y="39.9531" width="19.9762" height="19.9762" fill="white"/>
<rect x="319.619" y="79.9062" width="19.9762" height="19.9762" fill="white"/>
<rect x="319.619" y="119.859" width="19.9762" height="19.9762" fill="white"/>
<rect x="319.619" y="159.812" width="19.9762" height="19.9762" fill="white"/>
<rect x="319.619" y="199.766" width="19.9762" height="19.9762" fill="white"/>
<rect x="339.595" y="19.9766" width="19.9762" height="19.9762" fill="white"/>
<rect x="339.595" y="59.9297" width="19.9762" height="19.9762" fill="white"/>
<rect x="339.595" y="99.8828" width="19.9762" height="19.9762" fill="white"/>
<rect x="339.595" y="139.836" width="19.9762" height="19.9762" fill="white"/>
<rect x="339.595" y="179.789" width="19.9762" height="19.9762" fill="white"/>
<rect x="339.595" y="219.734" width="19.9762" height="19.9762" fill="white"/>
<rect x="339.595" width="19.9762" height="19.9762" fill="#D9D9D9"/>
<rect x="339.595" y="39.9531" width="19.9762" height="19.9762" fill="#D9D9D9"/>
<rect x="339.595" y="79.9062" width="19.9762" height="19.9762" fill="#D9D9D9"/>
<rect x="339.595" y="119.859" width="19.9762" height="19.9762" fill="#D9D9D9"/>
<rect x="339.595" y="159.812" width="19.9762" height="19.9762" fill="#D9D9D9"/>
<rect x="339.595" y="199.766" width="19.9762" height="19.9762" fill="#D9D9D9"/>
<rect x="359.571" y="19.9766" width="19.9762" height="19.9762" fill="#D9D9D9"/>
<rect x="359.571" y="59.9297" width="19.9762" height="19.9762" fill="#D9D9D9"/>
<rect x="359.571" y="99.8828" width="19.9762" height="19.9762" fill="#D9D9D9"/>
<rect x="359.571" y="139.836" width="19.9762" height="19.9762" fill="#D9D9D9"/>
<rect x="359.571" y="179.789" width="19.9762" height="19.9762" fill="#D9D9D9"/>
<rect x="359.571" y="219.734" width="19.9762" height="19.9762" fill="#D9D9D9"/>
<rect x="359.571" width="19.9762" height="19.9762" fill="white"/>
<rect x="359.571" y="39.9531" width="19.9762" height="19.9762" fill="white"/>
<rect x="359.571" y="79.9062" width="19.9762" height="19.9762" fill="white"/>
<rect x="359.571" y="119.859" width="19.9762" height="19.9762" fill="white"/>
<rect x="359.571" y="159.812" width="19.9762" height="19.9762" fill="white"/>
<rect x="359.571" y="199.766" width="19.9762" height="19.9762" fill="white"/>
<rect x="379.548" y="19.9766" width="19.9762" height="19.9762" fill="white"/>
<rect x="379.548" y="59.9297" width="19.9762" height="19.9762" fill="white"/>
<rect x="379.548" y="99.8828" width="19.9762" height="19.9762" fill="white"/>
<rect x="379.548" y="139.836" width="19.9762" height="19.9762" fill="white"/>
<rect x="379.548" y="179.789" width="19.9762" height="19.9762" fill="white"/>
<rect x="379.548" y="219.734" width="19.9762" height="19.9762" fill="white"/>
<rect x="379.548" width="19.9762" height="19.9762" fill="#D9D9D9"/>
<rect x="379.548" y="39.9531" width="19.9762" height="19.9762" fill="#D9D9D9"/>
<rect x="379.548" y="79.9062" width="19.9762" height="19.9762" fill="#D9D9D9"/>
<rect x="379.548" y="119.859" width="19.9762" height="19.9762" fill="#D9D9D9"/>
<rect x="379.548" y="159.812" width="19.9762" height="19.9762" fill="#D9D9D9"/>
<rect x="379.548" y="199.766" width="19.9762" height="19.9762" fill="#D9D9D9"/>
<rect x="399.524" y="19.9766" width="19.9762" height="19.9762" fill="#D9D9D9"/>
<rect x="399.524" y="59.9297" width="19.9762" height="19.9762" fill="#D9D9D9"/>
<rect x="399.524" y="99.8828" width="19.9762" height="19.9762" fill="#D9D9D9"/>
<rect x="399.524" y="139.836" width="19.9762" height="19.9762" fill="#D9D9D9"/>
<rect x="399.524" y="179.789" width="19.9762" height="19.9762" fill="#D9D9D9"/>
<rect x="399.524" y="219.734" width="19.9762" height="19.9762" fill="#D9D9D9"/>
<rect x="399.524" width="19.9762" height="19.9762" fill="white"/>
<rect x="399.524" y="39.9531" width="19.9762" height="19.9762" fill="white"/>
<rect x="399.524" y="79.9062" width="19.9762" height="19.9762" fill="white"/>
<rect x="399.524" y="119.859" width="19.9762" height="19.9762" fill="white"/>
<rect x="399.524" y="159.812" width="19.9762" height="19.9762" fill="white"/>
<rect x="399.524" y="199.766" width="19.9762" height="19.9762" fill="white"/>
<rect x="419.5" y="19.9766" width="19.9762" height="19.9762" fill="white"/>
<rect x="419.5" y="59.9297" width="19.9762" height="19.9762" fill="white"/>
<rect x="419.5" y="99.8828" width="19.9762" height="19.9762" fill="white"/>
<rect x="419.5" y="139.836" width="19.9762" height="19.9762" fill="white"/>
<rect x="419.5" y="179.789" width="19.9762" height="19.9762" fill="white"/>
<rect x="419.5" y="219.734" width="19.9762" height="19.9762" fill="white"/>
<rect x="419.5" width="19.9762" height="19.9762" fill="#D9D9D9"/>
<rect x="419.5" y="39.9531" width="19.9762" height="19.9762" fill="#D9D9D9"/>
<rect x="419.5" y="79.9062" width="19.9762" height="19.9762" fill="#D9D9D9"/>
<rect x="419.5" y="119.859" width="19.9762" height="19.9762" fill="#D9D9D9"/>
<rect x="419.5" y="159.812" width="19.9762" height="19.9762" fill="#D9D9D9"/>
<rect x="419.5" y="199.766" width="19.9762" height="19.9762" fill="#D9D9D9"/>
<rect x="439.476" y="19.9766" width="19.9762" height="19.9762" fill="#D9D9D9"/>
<rect x="439.476" y="59.9297" width="19.9762" height="19.9762" fill="#D9D9D9"/>
<rect x="439.476" y="99.8828" width="19.9762" height="19.9762" fill="#D9D9D9"/>
<rect x="439.476" y="139.836" width="19.9762" height="19.9762" fill="#D9D9D9"/>
<rect x="439.476" y="179.789" width="19.9762" height="19.9762" fill="#D9D9D9"/>
<rect x="439.476" y="219.734" width="19.9762" height="19.9762" fill="#D9D9D9"/>
<rect x="439.476" width="19.9762" height="19.9762" fill="white"/>
<rect x="439.476" y="39.9531" width="19.9762" height="19.9762" fill="white"/>
<rect x="439.476" y="79.9062" width="19.9762" height="19.9762" fill="white"/>
<rect x="439.476" y="119.859" width="19.9762" height="19.9762" fill="white"/>
<rect x="439.476" y="159.812" width="19.9762" height="19.9762" fill="white"/>
<rect x="439.476" y="199.766" width="19.9762" height="19.9762" fill="white"/>
<rect x="459.452" y="19.9766" width="19.9762" height="19.9762" fill="white"/>
<rect x="459.452" y="59.9297" width="19.9762" height="19.9762" fill="white"/>
<rect x="459.452" y="99.8828" width="19.9762" height="19.9762" fill="white"/>
<rect x="459.452" y="139.836" width="19.9762" height="19.9762" fill="white"/>
<rect x="459.452" y="179.789" width="19.9762" height="19.9762" fill="white"/>
<rect x="459.452" y="219.734" width="19.9762" height="19.9762" fill="white"/>
<rect x="459.452" width="19.9762" height="19.9762" fill="#D9D9D9"/>
<rect x="459.452" y="39.9531" width="19.9762" height="19.9762" fill="#D9D9D9"/>
<rect x="459.452" y="79.9062" width="19.9762" height="19.9762" fill="#D9D9D9"/>
<rect x="459.452" y="119.859" width="19.9762" height="19.9762" fill="#D9D9D9"/>
<rect x="459.452" y="159.812" width="19.9762" height="19.9762" fill="#D9D9D9"/>
<rect x="459.452" y="199.766" width="19.9762" height="19.9762" fill="#D9D9D9"/>
<rect x="479.429" y="19.9766" width="19.9762" height="19.9762" fill="#D9D9D9"/>
<rect x="479.429" y="59.9297" width="19.9762" height="19.9762" fill="#D9D9D9"/>
<rect x="479.429" y="99.8828" width="19.9762" height="19.9762" fill="#D9D9D9"/>
<rect x="479.429" y="139.836" width="19.9762" height="19.9762" fill="#D9D9D9"/>
<rect x="479.429" y="179.789" width="19.9762" height="19.9762" fill="#D9D9D9"/>
<rect x="479.429" y="219.734" width="19.9762" height="19.9762" fill="#D9D9D9"/>
<rect x="479.429" width="19.9762" height="19.9762" fill="white"/>
<rect x="479.429" y="39.9531" width="19.9762" height="19.9762" fill="white"/>
<rect x="479.429" y="79.9062" width="19.9762" height="19.9762" fill="white"/>
<rect x="479.429" y="119.859" width="19.9762" height="19.9762" fill="white"/>
<rect x="479.429" y="159.812" width="19.9762" height="19.9762" fill="white"/>
<rect x="479.429" y="199.766" width="19.9762" height="19.9762" fill="white"/>
<rect x="499.405" y="19.9766" width="19.9762" height="19.9762" fill="white"/>
<rect x="499.405" y="59.9297" width="19.9762" height="19.9762" fill="white"/>
<rect x="499.405" y="99.8828" width="19.9762" height="19.9762" fill="white"/>
<rect x="499.405" y="139.836" width="19.9762" height="19.9762" fill="white"/>
<rect x="499.405" y="179.789" width="19.9762" height="19.9762" fill="white"/>
<rect x="499.405" y="219.734" width="19.9762" height="19.9762" fill="white"/>
<rect x="499.405" width="19.9762" height="19.9762" fill="#D9D9D9"/>
<rect x="499.405" y="39.9531" width="19.9762" height="19.9762" fill="#D9D9D9"/>
<rect x="499.405" y="79.9062" width="19.9762" height="19.9762" fill="#D9D9D9"/>
<rect x="499.405" y="119.859" width="19.9762" height="19.9762" fill="#D9D9D9"/>
<rect x="499.405" y="159.812" width="19.9762" height="19.9762" fill="#D9D9D9"/>
<rect x="499.405" y="199.766" width="19.9762" height="19.9762" fill="#D9D9D9"/>
<rect x="519.381" y="19.9766" width="19.9762" height="19.9762" fill="#D9D9D9"/>
<rect x="519.381" y="59.9297" width="19.9762" height="19.9762" fill="#D9D9D9"/>
<rect x="519.381" y="99.8828" width="19.9762" height="19.9762" fill="#D9D9D9"/>
<rect x="519.381" y="139.836" width="19.9762" height="19.9762" fill="#D9D9D9"/>
<rect x="519.381" y="179.789" width="19.9762" height="19.9762" fill="#D9D9D9"/>
<rect x="519.381" y="219.734" width="19.9762" height="19.9762" fill="#D9D9D9"/>
<rect x="519.381" width="19.9762" height="19.9762" fill="white"/>
<rect x="519.381" y="39.9531" width="19.9762" height="19.9762" fill="white"/>
<rect x="519.381" y="79.9062" width="19.9762" height="19.9762" fill="white"/>
<rect x="519.381" y="119.859" width="19.9762" height="19.9762" fill="white"/>
<rect x="519.381" y="159.812" width="19.9762" height="19.9762" fill="white"/>
<rect x="519.381" y="199.766" width="19.9762" height="19.9762" fill="white"/>
<rect x="539.357" y="19.9766" width="19.9762" height="19.9762" fill="white"/>
<rect x="539.357" y="59.9297" width="19.9762" height="19.9762" fill="white"/>
<rect x="539.357" y="99.8828" width="19.9762" height="19.9762" fill="white"/>
<rect x="539.357" y="139.836" width="19.9762" height="19.9762" fill="white"/>
<rect x="539.357" y="179.789" width="19.9762" height="19.9762" fill="white"/>
<rect x="539.357" y="219.734" width="19.9762" height="19.9762" fill="white"/>
<rect x="539.357" width="19.9762" height="19.9762" fill="#D9D9D9"/>
<rect x="539.357" y="39.9531" width="19.9762" height="19.9762" fill="#D9D9D9"/>
<rect x="539.357" y="79.9062" width="19.9762" height="19.9762" fill="#D9D9D9"/>
<rect x="539.357" y="119.859" width="19.9762" height="19.9762" fill="#D9D9D9"/>
<rect x="539.357" y="159.812" width="19.9762" height="19.9762" fill="#D9D9D9"/>
<rect x="539.357" y="199.766" width="19.9762" height="19.9762" fill="#D9D9D9"/>
<rect x="559.333" y="19.9766" width="19.9762" height="19.9762" fill="#D9D9D9"/>
<rect x="559.333" y="59.9297" width="19.9762" height="19.9762" fill="#D9D9D9"/>
<rect x="559.333" y="99.8828" width="19.9762" height="19.9762" fill="#D9D9D9"/>
<rect x="559.333" y="139.836" width="19.9762" height="19.9762" fill="#D9D9D9"/>
<rect x="559.333" y="179.789" width="19.9762" height="19.9762" fill="#D9D9D9"/>
<rect x="559.333" y="219.734" width="19.9762" height="19.9762" fill="#D9D9D9"/>
<rect x="559.333" width="19.9762" height="19.9762" fill="white"/>
<rect x="559.333" y="39.9531" width="19.9762" height="19.9762" fill="white"/>
<rect x="559.333" y="79.9062" width="19.9762" height="19.9762" fill="white"/>
<rect x="559.333" y="119.859" width="19.9762" height="19.9762" fill="white"/>
<rect x="559.333" y="159.812" width="19.9762" height="19.9762" fill="white"/>
<rect x="559.333" y="199.766" width="19.9762" height="19.9762" fill="white"/>
<rect x="579.31" y="19.9766" width="19.9762" height="19.9762" fill="white"/>
<rect x="579.31" y="59.9297" width="19.9762" height="19.9762" fill="white"/>
<rect x="579.31" y="99.8828" width="19.9762" height="19.9762" fill="white"/>
<rect x="579.31" y="139.836" width="19.9762" height="19.9762" fill="white"/>
<rect x="579.31" y="179.789" width="19.9762" height="19.9762" fill="white"/>
<rect x="579.31" y="219.734" width="19.9762" height="19.9762" fill="white"/>
<rect x="579.31" width="19.9762" height="19.9762" fill="#D9D9D9"/>
<rect x="579.31" y="39.9531" width="19.9762" height="19.9762" fill="#D9D9D9"/>
<rect x="579.31" y="79.9062" width="19.9762" height="19.9762" fill="#D9D9D9"/>
<rect x="579.31" y="119.859" width="19.9762" height="19.9762" fill="#D9D9D9"/>
<rect x="579.31" y="159.812" width="19.9762" height="19.9762" fill="#D9D9D9"/>
<rect x="579.31" y="199.766" width="19.9762" height="19.9762" fill="#D9D9D9"/>
<rect x="599.286" y="19.9766" width="19.9762" height="19.9762" fill="#D9D9D9"/>
<rect x="599.286" y="59.9297" width="19.9762" height="19.9762" fill="#D9D9D9"/>
<rect x="599.286" y="99.8828" width="19.9762" height="19.9762" fill="#D9D9D9"/>
<rect x="599.286" y="139.836" width="19.9762" height="19.9762" fill="#D9D9D9"/>
<rect x="599.286" y="179.789" width="19.9762" height="19.9762" fill="#D9D9D9"/>
<rect x="599.286" y="219.734" width="19.9762" height="19.9762" fill="#D9D9D9"/>
<rect x="599.286" width="19.9762" height="19.9762" fill="white"/>
<rect x="599.286" y="39.9531" width="19.9762" height="19.9762" fill="white"/>
<rect x="599.286" y="79.9062" width="19.9762" height="19.9762" fill="white"/>
<rect x="599.286" y="119.859" width="19.9762" height="19.9762" fill="white"/>
<rect x="599.286" y="159.812" width="19.9762" height="19.9762" fill="white"/>
<rect x="599.286" y="199.766" width="19.9762" height="19.9762" fill="white"/>
<rect x="619.262" y="19.9766" width="19.9762" height="19.9762" fill="white"/>
<rect x="619.262" y="59.9297" width="19.9762" height="19.9762" fill="white"/>
<rect x="619.262" y="99.8828" width="19.9762" height="19.9762" fill="white"/>
<rect x="619.262" y="139.836" width="19.9762" height="19.9762" fill="white"/>
<rect x="619.262" y="179.789" width="19.9762" height="19.9762" fill="white"/>
<rect x="619.262" y="219.734" width="19.9762" height="19.9762" fill="white"/>
<rect x="619.262" width="19.9762" height="19.9762" fill="#D9D9D9"/>
<rect x="619.262" y="39.9531" width="19.9762" height="19.9762" fill="#D9D9D9"/>
<rect x="619.262" y="79.9062" width="19.9762" height="19.9762" fill="#D9D9D9"/>
<rect x="619.262" y="119.859" width="19.9762" height="19.9762" fill="#D9D9D9"/>
<rect x="619.262" y="159.812" width="19.9762" height="19.9762" fill="#D9D9D9"/>
<rect x="619.262" y="199.766" width="19.9762" height="19.9762" fill="#D9D9D9"/>
<rect x="639.238" y="19.9766" width="19.9762" height="19.9762" fill="#D9D9D9"/>
<rect x="639.238" y="59.9297" width="19.9762" height="19.9762" fill="#D9D9D9"/>
<rect x="639.238" y="99.8828" width="19.9762" height="19.9762" fill="#D9D9D9"/>
<rect x="639.238" y="139.836" width="19.9762" height="19.9762" fill="#D9D9D9"/>
<rect x="639.238" y="179.789" width="19.9762" height="19.9762" fill="#D9D9D9"/>
<rect x="639.238" y="219.734" width="19.9762" height="19.9762" fill="#D9D9D9"/>
<rect x="639.238" width="19.9762" height="19.9762" fill="white"/>
<rect x="639.238" y="39.9531" width="19.9762" height="19.9762" fill="white"/>
<rect x="639.238" y="79.9062" width="19.9762" height="19.9762" fill="white"/>
<rect x="639.238" y="119.859" width="19.9762" height="19.9762" fill="white"/>
<rect x="639.238" y="159.812" width="19.9762" height="19.9762" fill="white"/>
<rect x="639.238" y="199.766" width="19.9762" height="19.9762" fill="white"/>
<rect x="659.214" y="19.9766" width="19.9762" height="19.9762" fill="white"/>
<rect x="659.214" y="59.9297" width="19.9762" height="19.9762" fill="white"/>
<rect x="659.214" y="99.8828" width="19.9762" height="19.9762" fill="white"/>
<rect x="659.214" y="139.836" width="19.9762" height="19.9762" fill="white"/>
<rect x="659.214" y="179.789" width="19.9762" height="19.9762" fill="white"/>
<rect x="659.214" y="219.734" width="19.9762" height="19.9762" fill="white"/>
<rect x="659.214" width="19.9762" height="19.9762" fill="#D9D9D9"/>
<rect x="659.214" y="39.9531" width="19.9762" height="19.9762" fill="#D9D9D9"/>
<rect x="659.214" y="79.9062" width="19.9762" height="19.9762" fill="#D9D9D9"/>
<rect x="659.214" y="119.859" width="19.9762" height="19.9762" fill="#D9D9D9"/>
<rect x="659.214" y="159.812" width="19.9762" height="19.9762" fill="#D9D9D9"/>
<rect x="659.214" y="199.766" width="19.9762" height="19.9762" fill="#D9D9D9"/>
<rect x="679.19" y="19.9766" width="19.9762" height="19.9762" fill="#D9D9D9"/>
<rect x="679.19" y="59.9297" width="19.9762" height="19.9762" fill="#D9D9D9"/>
<rect x="679.19" y="99.8828" width="19.9762" height="19.9762" fill="#D9D9D9"/>
<rect x="679.19" y="139.836" width="19.9762" height="19.9762" fill="#D9D9D9"/>
<rect x="679.19" y="179.789" width="19.9762" height="19.9762" fill="#D9D9D9"/>
<rect x="679.19" y="219.734" width="19.9762" height="19.9762" fill="#D9D9D9"/>
<rect x="679.19" width="19.9762" height="19.9762" fill="white"/>
<rect x="679.19" y="39.9531" width="19.9762" height="19.9762" fill="white"/>
<rect x="679.19" y="79.9062" width="19.9762" height="19.9762" fill="white"/>
<rect x="679.19" y="119.859" width="19.9762" height="19.9762" fill="white"/>
<rect x="679.19" y="159.812" width="19.9762" height="19.9762" fill="white"/>
<rect x="679.19" y="199.766" width="19.9762" height="19.9762" fill="white"/>
<rect x="699.167" y="19.9766" width="19.9762" height="19.9762" fill="white"/>
<rect x="699.167" y="59.9297" width="19.9762" height="19.9762" fill="white"/>
<rect x="699.167" y="99.8828" width="19.9762" height="19.9762" fill="white"/>
<rect x="699.167" y="139.836" width="19.9762" height="19.9762" fill="white"/>
<rect x="699.167" y="179.789" width="19.9762" height="19.9762" fill="white"/>
<rect x="699.167" y="219.734" width="19.9762" height="19.9762" fill="white"/>
<rect x="699.167" width="19.9762" height="19.9762" fill="#D9D9D9"/>
<rect x="699.167" y="39.9531" width="19.9762" height="19.9762" fill="#D9D9D9"/>
<rect x="699.167" y="79.9062" width="19.9762" height="19.9762" fill="#D9D9D9"/>
<rect x="699.167" y="119.859" width="19.9762" height="19.9762" fill="#D9D9D9"/>
<rect x="699.167" y="159.812" width="19.9762" height="19.9762" fill="#D9D9D9"/>
<rect x="699.167" y="199.766" width="19.9762" height="19.9762" fill="#D9D9D9"/>
<rect x="719.143" y="19.9766" width="19.9762" height="19.9762" fill="#D9D9D9"/>
<rect x="719.143" y="59.9297" width="19.9762" height="19.9762" fill="#D9D9D9"/>
<rect x="719.143" y="99.8828" width="19.9762" height="19.9762" fill="#D9D9D9"/>
<rect x="719.143" y="139.836" width="19.9762" height="19.9762" fill="#D9D9D9"/>
<rect x="719.143" y="179.789" width="19.9762" height="19.9762" fill="#D9D9D9"/>
<rect x="719.143" y="219.734" width="19.9762" height="19.9762" fill="#D9D9D9"/>
<rect x="719.143" width="19.9762" height="19.9762" fill="white"/>
<rect x="719.143" y="39.9531" width="19.9762" height="19.9762" fill="white"/>
<rect x="719.143" y="79.9062" width="19.9762" height="19.9762" fill="white"/>
<rect x="719.143" y="119.859" width="19.9762" height="19.9762" fill="white"/>
<rect x="719.143" y="159.812" width="19.9762" height="19.9762" fill="white"/>
<rect x="719.143" y="199.766" width="19.9762" height="19.9762" fill="white"/>
<rect x="739.119" y="19.9766" width="19.9762" height="19.9762" fill="white"/>
<rect x="739.119" y="59.9297" width="19.9762" height="19.9762" fill="white"/>
<rect x="739.119" y="99.8828" width="19.9762" height="19.9762" fill="white"/>
<rect x="739.119" y="139.836" width="19.9762" height="19.9762" fill="white"/>
<rect x="739.119" y="179.789" width="19.9762" height="19.9762" fill="white"/>
<rect x="739.119" y="219.734" width="19.9762" height="19.9762" fill="white"/>
<rect x="739.119" width="19.9762" height="19.9762" fill="#D9D9D9"/>
<rect x="739.119" y="39.9531" width="19.9762" height="19.9762" fill="#D9D9D9"/>
<rect x="739.119" y="79.9062" width="19.9762" height="19.9762" fill="#D9D9D9"/>
<rect x="739.119" y="119.859" width="19.9762" height="19.9762" fill="#D9D9D9"/>
<rect x="739.119" y="159.812" width="19.9762" height="19.9762" fill="#D9D9D9"/>
<rect x="739.119" y="199.766" width="19.9762" height="19.9762" fill="#D9D9D9"/>
<rect x="759.095" y="19.9766" width="19.9762" height="19.9762" fill="#D9D9D9"/>
<rect x="759.095" y="59.9297" width="19.9762" height="19.9762" fill="#D9D9D9"/>
<rect x="759.095" y="99.8828" width="19.9762" height="19.9762" fill="#D9D9D9"/>
<rect x="759.095" y="139.836" width="19.9762" height="19.9762" fill="#D9D9D9"/>
<rect x="759.095" y="179.789" width="19.9762" height="19.9762" fill="#D9D9D9"/>
<rect x="759.095" y="219.734" width="19.9762" height="19.9762" fill="#D9D9D9"/>
<rect x="759.095" width="19.9762" height="19.9762" fill="white"/>
<rect x="759.095" y="39.9531" width="19.9762" height="19.9762" fill="white"/>
<rect x="759.095" y="79.9062" width="19.9762" height="19.9762" fill="white"/>
<rect x="759.095" y="119.859" width="19.9762" height="19.9762" fill="white"/>
<rect x="759.095" y="159.812" width="19.9762" height="19.9762" fill="white"/>
<rect x="759.095" y="199.766" width="19.9762" height="19.9762" fill="white"/>
<rect x="779.071" y="19.9766" width="19.9762" height="19.9762" fill="white"/>
<rect x="779.071" y="59.9297" width="19.9762" height="19.9762" fill="white"/>
<rect x="779.071" y="99.8828" width="19.9762" height="19.9762" fill="white"/>
<rect x="779.071" y="139.836" width="19.9762" height="19.9762" fill="white"/>
<rect x="779.071" y="179.789" width="19.9762" height="19.9762" fill="white"/>
<rect x="779.071" y="219.734" width="19.9762" height="19.9762" fill="white"/>
<rect x="779.071" width="19.9762" height="19.9762" fill="#D9D9D9"/>
<rect x="779.071" y="39.9531" width="19.9762" height="19.9762" fill="#D9D9D9"/>
<rect x="779.071" y="79.9062" width="19.9762" height="19.9762" fill="#D9D9D9"/>
<rect x="779.071" y="119.859" width="19.9762" height="19.9762" fill="#D9D9D9"/>
<rect x="779.071" y="159.812" width="19.9762" height="19.9762" fill="#D9D9D9"/>
<rect x="779.071" y="199.766" width="19.9762" height="19.9762" fill="#D9D9D9"/>
<rect x="799.048" y="19.9766" width="19.9762" height="19.9762" fill="#D9D9D9"/>
<rect x="799.048" y="59.9297" width="19.9762" height="19.9762" fill="#D9D9D9"/>
<rect x="799.048" y="99.8828" width="19.9762" height="19.9762" fill="#D9D9D9"/>
<rect x="799.048" y="139.836" width="19.9762" height="19.9762" fill="#D9D9D9"/>
<rect x="799.048" y="179.789" width="19.9762" height="19.9762" fill="#D9D9D9"/>
<rect x="799.048" y="219.734" width="19.9762" height="19.9762" fill="#D9D9D9"/>
<rect x="799.048" width="19.9762" height="19.9762" fill="white"/>
<rect x="799.048" y="39.9531" width="19.9762" height="19.9762" fill="white"/>
<rect x="799.048" y="79.9062" width="19.9762" height="19.9762" fill="white"/>
<rect x="799.048" y="119.859" width="19.9762" height="19.9762" fill="white"/>
<rect x="799.048" y="159.812" width="19.9762" height="19.9762" fill="white"/>
<rect x="799.048" y="199.766" width="19.9762" height="19.9762" fill="white"/>
<rect x="819.024" y="19.9766" width="19.9762" height="19.9762" fill="white"/>
<rect x="819.024" y="59.9297" width="19.9762" height="19.9762" fill="white"/>
<rect x="819.024" y="99.8828" width="19.9762" height="19.9762" fill="white"/>
<rect x="819.024" y="139.836" width="19.9762" height="19.9762" fill="white"/>
<rect x="819.024" y="179.789" width="19.9762" height="19.9762" fill="white"/>
<rect x="819.024" y="219.734" width="19.9762" height="19.9762" fill="white"/>
<rect x="819.024" width="19.9762" height="19.9762" fill="#D9D9D9"/>
<rect x="819.024" y="39.9531" width="19.9762" height="19.9762" fill="#D9D9D9"/>
<rect x="819.024" y="79.9062" width="19.9762" height="19.9762" fill="#D9D9D9"/>
<rect x="819.024" y="119.859" width="19.9762" height="19.9762" fill="#D9D9D9"/>
<rect x="819.024" y="159.812" width="19.9762" height="19.9762" fill="#D9D9D9"/>
<rect x="819.024" y="199.766" width="19.9762" height="19.9762" fill="#D9D9D9"/>
<path fill-rule="evenodd" clip-rule="evenodd" d="M233.92 89.4803C233.92 126.54 191.43 128.09 191.43 128.09C189.45 128.215 187.53 128.82 185.837 129.853C184.143 130.886 182.727 132.317 181.71 134.02C180.545 135.929 179.932 138.124 179.94 140.36V185.45C179.941 196.574 176.541 207.433 170.196 216.57C163.851 225.707 154.864 232.685 144.44 236.57C134.15 232.737 125.256 225.887 118.924 216.916C112.592 207.944 109.115 197.27 108.95 186.29C109.173 190.65 111.116 194.744 114.354 197.673C117.592 200.601 121.86 202.125 126.22 201.91C135.11 201.47 141.87 193.68 141.87 184.79V136.2C141.824 132.236 142.213 128.279 143.03 124.4C144.651 116.499 148.519 109.235 154.17 103.48C176.72 80.7203 222.88 87.4703 233.92 89.4803Z" fill="url(#paint0_linear_1658_5527)"/>
<path fill-rule="evenodd" clip-rule="evenodd" d="M239.91 18.9531V31.6331H231.15V44.3331H222.35V57.0231H58.55C58.26 57.0231 57.9801 57.0231 57.7101 57.0231C46.316 57.2148 35.3234 61.2637 26.5273 68.5087C17.7312 75.7537 11.6512 85.7669 9.28005 96.9131C5.79325 89.6022 3.98904 81.6029 4.00005 73.5031C4.00005 38.7731 34.17 18.9531 58.55 18.9531H239.91Z" fill="url(#paint1_linear_1658_5527)"/>
<path fill-rule="evenodd" clip-rule="evenodd" d="M144.44 236.569C138.334 238.849 131.868 240.011 125.35 239.999C96.4802 239.999 70.9502 217.629 70.9502 189.159C70.9502 188.159 70.8202 140.069 70.8002 139.949C70.7039 136.756 69.366 133.726 67.071 131.504C64.776 129.282 61.7048 128.042 58.5102 128.049C50.9117 128.058 43.3955 126.475 36.4459 123.402C29.4963 120.33 23.2674 115.835 18.1602 110.209C14.5441 106.257 11.5376 101.788 9.24023 96.9491C11.609 85.7925 17.6932 75.7698 26.4978 68.5201C35.3025 61.2704 46.3065 57.2228 57.7102 57.0391C53.4151 57.2508 49.373 59.1341 46.448 62.2864C43.5229 65.4388 41.9468 69.6102 42.0565 73.9092C42.1662 78.2082 43.953 82.2938 47.035 85.2929C50.117 88.292 54.2498 89.9667 58.5502 89.9591C69.0265 89.9543 79.2435 93.2175 87.7775 99.294C96.3114 105.37 102.737 113.958 106.16 123.859C107.265 127.013 108.036 130.274 108.46 133.589C108.785 135.824 108.942 138.081 108.93 140.339V185.449C108.93 185.729 108.93 185.999 108.93 186.289C109.097 197.271 112.576 207.947 118.912 216.919C125.248 225.89 134.146 232.739 144.44 236.569Z" fill="url(#paint2_linear_1658_5527)"/>
<path d="M256.1 17.8438H246.12V27.8237H256.1V17.8438Z" fill="#E2000F"/>
<path d="M249.7 34.3984H239.72V44.3784H249.7V34.3984Z" fill="#E2000F"/>
<path d="M241.32 49.6719H231.34V59.6519H241.32V49.6719Z" fill="#E2000F"/>
<path d="M262.84 47.0234H254.25V55.6134H262.84V47.0234Z" fill="#E2000F"/>
<path d="M269.68 30.2344H261.09V38.8244H269.68V30.2344Z" fill="#E2000F"/>
<path d="M273.97 12.2422H265.38V20.8322H273.97V12.2422Z" fill="#E2000F"/>
<path d="M287.04 26.4453H280.42V33.4853H287.04V26.4453Z" fill="#E2000F"/>
<path d="M292.46 6.38281H285.84V13.4228H292.46V6.38281Z" fill="#E2000F"/>
<path d="M298.74 19.3594H292.12V26.3994H298.74V19.3594Z" fill="#E2000F"/>
<path d="M309 0.421875H302.38V7.46187H309V0.421875Z" fill="#E2000F"/>
<path d="M279.02 41.6797H272.4V48.7197H279.02V41.6797Z" fill="#E2000F"/>
<path d="M274.322 151.575V190H261.703V151.575H239V141H297V151.575H274.322Z" fill="#E2000F"/>
<path d="M359.926 167.037C360.9 165.755 361.659 164.325 362.174 162.804C362.759 160.97 363.034 159.052 362.985 157.129C363.105 154.338 362.489 151.565 361.2 149.081C360.147 147.15 358.669 145.48 356.875 144.195C355.256 143.037 353.435 142.188 351.503 141.692C349.934 141.275 348.322 141.043 346.698 141H302V151.568H344.872C345.395 151.586 345.915 151.659 346.422 151.785C347.092 151.936 347.728 152.209 348.297 152.59C348.941 153.022 349.477 153.595 349.863 154.264C350.323 155.137 350.544 156.114 350.504 157.097C350.546 158.07 350.298 159.033 349.79 159.866C349.353 160.547 348.782 161.133 348.11 161.588C347.538 161.979 346.905 162.273 346.236 162.458C345.793 162.593 345.335 162.674 344.872 162.699H302V190H314.514V173.299H340.62L348.573 190H361.947L353.28 171.907C354.518 171.408 355.697 170.773 356.794 170.015C357.989 169.192 359.046 168.187 359.926 167.037Z" fill="#E2000F"/>
<path d="M369 190V141H429.144V151.575H381.555V160.434H423.404V169.962H381.555V179.49H431V190H369Z" fill="#E2000F"/>
<path d="M484.482 190L448.51 155.747V190H436V141H448.51L484.482 175.253V141H497V190H484.482Z" fill="#E2000F"/>
<path d="M566.854 155.991C566.04 154.278 564.996 152.678 563.75 151.232C562.809 150.121 561.761 149.099 560.621 148.18C557.651 145.835 554.254 144.057 550.608 142.939C546.21 141.581 541.615 140.928 537.003 141.006H502V151.232H536.722C539.561 151.179 542.391 151.56 545.11 152.359C547.259 152.985 549.262 154.017 551.004 155.395C552.522 156.621 553.717 158.183 554.488 159.952C555.237 161.719 555.619 163.613 555.61 165.524C555.619 167.428 555.238 169.314 554.488 171.072C553.719 172.845 552.524 174.411 551.004 175.638C549.271 177.023 547.281 178.07 545.143 178.721C542.423 179.515 539.593 179.89 536.755 179.833H514.763V162.714H502.033V189.994H537.036C541.647 190.069 546.24 189.422 550.641 188.078C554.285 186.948 557.681 185.165 560.654 182.82C564.578 179.642 567.313 175.287 568.434 170.434C569.556 165.582 569 160.503 566.854 155.991Z" fill="#E2000F"/>
<path d="M634.998 174.101C634.997 176.564 634.305 178.976 633.001 181.064C631.449 183.443 629.338 185.404 626.854 186.778C623.623 188.585 620.13 189.877 616.501 190.606C611.674 191.595 606.754 192.061 601.827 191.994C598.824 191.989 595.826 191.751 592.86 191.284C589.95 190.846 587.066 190.255 584.218 189.512C581.046 188.7 577.975 187.534 575.064 186.035L579.425 176.101C581.948 177.386 584.591 178.42 587.316 179.187C589.677 179.869 592.075 180.414 594.498 180.819C596.912 181.185 599.346 181.398 601.786 181.456C608.927 181.456 614.248 180.816 617.748 179.538C621.248 178.259 622.998 176.58 622.998 174.501C623.03 173.911 622.894 173.323 622.605 172.807C622.317 172.291 621.887 171.868 621.368 171.587C619.777 170.861 618.045 170.498 616.297 170.526C615.767 170.477 614.781 170.42 613.33 170.347L608.006 170.102C605.911 170.004 603.58 169.914 601.004 169.816C598.428 169.718 595.762 169.604 593.006 169.465C590.438 169.351 587.889 168.968 585.4 168.322C583.26 167.786 581.228 166.886 579.392 165.661C577.762 164.564 576.407 163.106 575.43 161.401C574.444 159.585 573.952 157.541 574.004 155.475C574.025 153.143 574.816 150.885 576.254 149.051C577.984 146.85 580.177 145.058 582.678 143.802C585.882 142.165 589.298 140.981 592.827 140.284C597.21 139.392 601.675 138.963 606.148 139.003C609.113 139.01 612.074 139.225 615.009 139.647C617.58 140.023 620.449 140.567 623.618 141.28C626.799 141.995 629.897 143.04 632.862 144.398L629.08 154.193C627.604 153.573 625.933 152.985 624.082 152.414C622.232 151.842 620.283 151.352 618.254 150.928C616.224 150.504 614.177 150.169 612.115 149.932C610.134 149.699 608.142 149.58 606.148 149.573C603.488 149.563 600.829 149.694 598.183 149.965C596.023 150.171 593.884 150.565 591.792 151.14C590.273 151.527 588.833 152.176 587.536 153.058C587.093 153.328 586.722 153.701 586.455 154.146C586.188 154.591 586.033 155.095 586.004 155.613C585.981 156.176 586.116 156.733 586.394 157.223C586.672 157.712 587.082 158.113 587.577 158.38C589.019 159.093 590.608 159.456 592.216 159.442L601.86 159.866C606.006 160.062 610.914 160.277 616.582 160.511C619.176 160.609 621.751 160.99 624.262 161.645C626.328 162.168 628.286 163.055 630.041 164.266C631.587 165.35 632.85 166.788 633.726 168.461C634.597 170.211 635.033 172.146 634.998 174.101Z" fill="#E2000F"/>
<path d="M707 165.516C707.018 169.046 706.237 172.534 704.717 175.717C703.149 178.974 700.893 181.849 698.107 184.145C694.976 186.684 691.407 188.623 687.576 189.867C678.409 192.711 668.599 192.711 659.431 189.867C655.601 188.623 652.031 186.684 648.9 184.145C646.114 181.849 643.859 178.974 642.29 175.717C640.782 172.524 640 169.034 640 165.5C640 161.966 640.782 158.476 642.29 155.283C643.859 152.026 646.114 149.151 648.9 146.855C652.031 144.316 655.601 142.377 659.431 141.133C668.599 138.289 678.409 138.289 687.576 141.133C691.407 142.377 694.976 144.316 698.107 146.855C700.893 149.151 703.149 152.026 704.717 155.283C706.242 158.476 707.023 161.976 707 165.516ZM693.787 165.516C693.796 163.427 693.372 161.359 692.54 159.443C691.68 157.481 690.383 155.741 688.75 154.359C686.883 152.789 684.725 151.605 682.4 150.877C676.595 149.166 670.421 149.166 664.615 150.877C662.287 151.604 660.126 152.787 658.258 154.359C656.624 155.741 655.328 157.481 654.467 159.443C653.645 161.363 653.22 163.431 653.22 165.52C653.22 167.61 653.645 169.678 654.467 171.598C655.33 173.557 656.626 175.293 658.258 176.674C660.126 178.245 662.287 179.429 664.615 180.156C670.421 181.867 676.595 181.867 682.4 180.156C684.725 179.427 686.883 178.244 688.75 176.674C690.381 175.293 691.678 173.557 692.54 171.598C693.371 169.679 693.795 167.608 693.787 165.516Z" fill="#E2000F"/>
<path d="M725.442 151.575V162.713H766.42V173.288H725.442V190H713V141H772V151.575H725.442Z" fill="#E2000F"/>
<path d="M812.301 151.575V190H799.699V151.575H777V141H835V151.575H812.301Z" fill="#E2000F"/>
<path d="M256 217.517H247.879V239H244.039V217.517H236V214H256V217.517Z" fill="#146ABA"/>
<path d="M285 239H266V214H284.392V217.522H269.9V224.312H283.448V227.827H269.9V235.478H285V239Z" fill="#146ABA"/>
<path d="M317 231.135C316.672 232.414 316.184 233.644 315.547 234.795C314.964 235.848 314.211 236.792 313.319 237.588C312.428 238.371 311.401 238.977 310.29 239.372C309.062 239.803 307.77 240.015 306.47 239.997C304.769 240.034 303.08 239.699 301.516 239.013C300.123 238.39 298.893 237.442 297.924 236.245C296.92 234.966 296.177 233.495 295.737 231.918C295.227 230.086 294.98 228.188 295.002 226.282C294.971 224.363 295.269 222.453 295.884 220.638C296.408 219.09 297.242 217.671 298.332 216.47C299.369 215.341 300.637 214.461 302.046 213.893C303.548 213.288 305.15 212.985 306.764 213.001C308.016 212.983 309.262 213.171 310.454 213.56C311.475 213.895 312.425 214.424 313.253 215.119C314.053 215.803 314.73 216.624 315.253 217.545C315.816 218.534 316.258 219.589 316.567 220.688L312.78 221.447C311.79 218.179 309.741 216.545 306.634 216.545C305.511 216.528 304.398 216.755 303.369 217.212C302.433 217.646 301.615 218.307 300.985 219.137C300.31 220.05 299.819 221.09 299.541 222.197C299.198 223.527 299.033 224.899 299.051 226.274C299.024 227.823 299.203 229.368 299.581 230.868C299.867 232.014 300.378 233.089 301.083 234.028C301.697 234.83 302.496 235.463 303.41 235.87C304.363 236.279 305.388 236.483 306.421 236.471C308.043 236.541 309.629 235.968 310.846 234.87C312.061 233.641 312.883 232.066 313.204 230.351L317 231.135Z" fill="#146ABA"/>
<path d="M346 239H342.361V227.524H330.685V239H327V214H330.685V224.002H342.361V214H346V239Z" fill="#146ABA"/>
<path d="M376 239H372.03L359.765 220.136H359.683V239H356V214H359.929L372.194 232.864H372.276V214H376V239Z" fill="#146ABA"/>
<path d="M398.026 213.001C399.696 212.982 401.352 213.318 402.888 213.985C404.33 214.615 405.619 215.557 406.666 216.746C407.757 217.986 408.594 219.435 409.129 221.008C410.29 224.588 410.29 228.453 409.129 232.034C408.592 233.603 407.755 235.048 406.666 236.287C405.615 237.47 404.323 238.407 402.879 239.031C401.338 239.689 399.681 240.018 398.009 239.999C396.291 240.024 394.588 239.675 393.016 238.973C391.569 238.32 390.275 237.362 389.221 236.162C388.163 234.943 387.348 233.527 386.823 231.992C386.261 230.343 385.983 228.608 386.002 226.863C385.974 224.88 386.271 222.907 386.881 221.024C387.406 219.422 388.244 217.944 389.344 216.679C390.405 215.506 391.702 214.578 393.147 213.96C394.694 213.312 396.353 212.986 398.026 213.001ZM398.026 236.479C399.157 236.493 400.278 236.257 401.311 235.787C402.27 235.331 403.113 234.658 403.775 233.818C404.494 232.892 405.03 231.833 405.352 230.699C405.74 229.344 405.939 227.94 405.943 226.529C405.964 225.103 405.77 223.683 405.368 222.317C405.025 221.171 404.468 220.103 403.725 219.173C403.06 218.341 402.218 217.673 401.261 217.221C400.254 216.755 399.157 216.521 398.05 216.537C396.925 216.519 395.808 216.732 394.765 217.163C393.779 217.578 392.906 218.227 392.219 219.056C391.463 220.009 390.905 221.107 390.576 222.284C390.151 223.782 389.949 225.337 389.977 226.896C389.963 228.205 390.151 229.508 390.535 230.757C390.872 231.86 391.413 232.888 392.129 233.785C392.809 234.628 393.668 235.304 394.642 235.762C395.68 236.245 396.81 236.49 397.952 236.479H398.026Z" fill="#146ABA"/>
<path d="M435 239H420V214H423.703V235.517H435V239Z" fill="#146ABA"/>
<path d="M457.017 213.001C458.689 212.982 460.346 213.318 461.883 213.985C463.325 214.617 464.615 215.559 465.663 216.746C466.755 217.986 467.593 219.435 468.129 221.008C469.29 224.588 469.29 228.453 468.129 232.034C467.591 233.603 466.754 235.048 465.663 236.287C464.612 237.47 463.319 238.407 461.874 239.031C460.332 239.689 458.674 240.018 457.001 239.999C455.282 240.024 453.578 239.675 452.004 238.973C450.562 238.318 449.274 237.36 448.223 236.162C447.164 234.943 446.349 233.527 445.824 231.992C445.261 230.343 444.983 228.608 445.002 226.863C444.974 224.88 445.271 222.907 445.881 221.024C446.407 219.422 447.245 217.944 448.347 216.679C449.406 215.504 450.705 214.576 452.152 213.96C453.695 213.315 455.349 212.989 457.017 213.001ZM457.017 236.479C458.15 236.493 459.271 236.257 460.305 235.787C461.264 235.331 462.108 234.658 462.77 233.818C463.49 232.892 464.026 231.833 464.348 230.699C464.737 229.344 464.936 227.94 464.94 226.529C464.961 225.103 464.767 223.683 464.365 222.317C464.022 221.171 463.464 220.103 462.721 219.173C462.056 218.341 461.212 217.673 460.255 217.221C459.247 216.755 458.15 216.521 457.042 216.537C455.916 216.519 454.798 216.732 453.755 217.163C452.768 217.578 451.895 218.227 451.207 219.056C450.451 220.009 449.892 221.107 449.563 222.284C449.138 223.782 448.935 225.337 448.963 226.896C448.949 228.205 449.138 229.508 449.522 230.757C449.859 231.86 450.4 232.888 451.116 233.785C451.797 234.628 452.657 235.304 453.631 235.762C454.68 236.251 455.823 236.496 456.976 236.479H457.017Z" fill="#146ABA"/>
<path d="M502 236.038C499.053 238.584 495.335 239.985 491.492 239.999C489.755 240.019 488.032 239.693 486.415 239.04C484.927 238.435 483.579 237.511 482.462 236.329C481.339 235.113 480.469 233.671 479.908 232.093C479.284 230.327 478.977 228.459 479.003 226.58C478.97 224.716 479.243 222.861 479.811 221.092C480.329 219.508 481.154 218.05 482.236 216.805C483.329 215.589 484.667 214.635 486.156 214.011C487.836 213.315 489.633 212.971 491.443 213.002C497.021 213.002 500.402 215.487 501.588 220.458L498.128 221.292C497.233 218.134 494.965 216.552 491.322 216.546C490.066 216.521 488.819 216.765 487.66 217.264C486.644 217.712 485.744 218.401 485.033 219.274C484.291 220.187 483.74 221.249 483.416 222.393C482.7 225.095 482.716 227.948 483.465 230.641C483.794 231.783 484.344 232.844 485.081 233.761C485.797 234.602 486.694 235.259 487.7 235.679C488.816 236.136 490.008 236.36 491.209 236.338C493.725 236.35 496.18 235.535 498.217 234.011V229.732H491.079V225.963H501.887L502 236.038Z" fill="#146ABA"/>
<path d="M515 239H512V214H515V239Z" fill="#146ABA"/>
<path d="M544 239H525V214H543.392V217.522H528.884V224.312H542.432V227.827H528.884V235.478H543.984L544 239Z" fill="#146ABA"/>
<path d="M569.524 221.254C569.497 220.583 569.342 219.924 569.066 219.317C568.79 218.71 568.399 218.167 567.918 217.72C566.763 216.825 565.339 216.386 563.902 216.484C563.189 216.475 562.477 216.557 561.782 216.726C561.183 216.863 560.61 217.103 560.087 217.436C559.638 217.73 559.257 218.124 558.971 218.589C558.705 219.05 558.569 219.58 558.578 220.118C558.548 220.601 558.653 221.083 558.881 221.506C559.109 221.928 559.45 222.273 559.863 222.498C560.486 222.853 561.146 223.133 561.83 223.334C562.886 223.671 563.958 223.95 565.043 224.169C566.328 224.478 567.516 224.82 568.608 225.188C569.621 225.514 570.578 226.004 571.443 226.641C572.232 227.222 572.874 227.993 573.315 228.888C573.795 229.929 574.029 231.075 573.997 232.229C574.006 233.314 573.772 234.387 573.315 235.362C572.866 236.316 572.218 237.155 571.419 237.818C570.551 238.534 569.562 239.078 568.504 239.421C567.291 239.818 566.025 240.013 564.754 239.998C563.199 240.025 561.65 239.805 560.16 239.346C558.95 238.98 557.822 238.367 556.843 237.542C555.963 236.787 555.265 235.829 554.803 234.744C554.318 233.599 554.046 232.369 554 231.118L557.646 230.843C557.681 231.718 557.903 232.574 558.297 233.349C558.668 234.05 559.18 234.66 559.798 235.136C560.439 235.624 561.16 235.983 561.927 236.197C562.761 236.433 563.623 236.548 564.488 236.54C565.287 236.551 566.084 236.453 566.858 236.247C567.51 236.081 568.129 235.798 568.689 235.412C569.167 235.065 569.565 234.611 569.853 234.084C570.129 233.556 570.27 232.964 570.263 232.363C570.271 231.829 570.178 231.298 569.99 230.801C569.744 230.295 569.365 229.872 568.897 229.582C568.19 229.131 567.425 228.785 566.625 228.554C565.653 228.237 564.376 227.903 562.81 227.552C561.579 227.281 560.377 226.887 559.22 226.374C558.337 225.982 557.523 225.44 556.811 224.77C556.208 224.204 555.733 223.505 555.421 222.724C555.128 221.924 554.981 221.074 554.988 220.218C554.976 219.219 555.185 218.23 555.598 217.328C556.011 216.437 556.615 215.656 557.365 215.047C558.192 214.373 559.131 213.864 560.136 213.544C561.32 213.169 562.552 212.986 563.79 213.001C565.061 212.99 566.327 213.17 567.548 213.535C568.615 213.848 569.613 214.373 570.488 215.081C571.308 215.756 571.975 216.611 572.439 217.587C572.93 218.629 573.203 219.768 573.242 220.928L569.524 221.254Z" fill="#146ABA"/>
<path d="M612.008 214.002H621.001C622.376 213.978 623.748 214.15 625.08 214.516C626.108 214.794 627.064 215.312 627.88 216.033C628.61 216.7 629.166 217.556 629.494 218.519C630.169 220.671 630.169 222.997 629.494 225.149C629.169 226.147 628.636 227.053 627.934 227.801C627.164 228.606 626.238 229.222 625.22 229.608C623.951 230.082 622.611 230.307 621.266 230.271H615.697V240H612L612.008 214.002ZM615.705 226.599H620.72C622.163 226.705 623.601 226.334 624.838 225.538C625.319 225.116 625.695 224.575 625.935 223.962C626.174 223.35 626.269 222.685 626.211 222.025C626.238 221.287 626.105 220.552 625.821 219.878C625.579 219.333 625.198 218.87 624.721 218.544C624.187 218.188 623.59 217.954 622.966 217.856C622.193 217.715 621.41 217.649 620.626 217.657H615.697L615.705 226.599Z" fill="#146ABA"/>
<path d="M663 214.083L653.405 240H649.343L640 214.083H644.168L650.529 232.895L650.822 233.721C650.903 233.977 650.976 234.233 651.049 234.481C651.122 234.729 651.179 234.985 651.236 235.233C651.293 235.481 651.35 235.762 651.423 236.059C651.528 235.522 651.658 235.002 651.797 234.481C651.935 233.961 652.105 233.424 652.308 232.829L659.027 214L663 214.083Z" fill="#146ABA"/>
<path d="M693 217.65H684.874V240H681.036V217.65H673V214H693V217.65Z" fill="#146ABA"/>
<path d="M703 240V235H707V240H703Z" fill="#146ABA"/>
<path d="M760 240H745V214H748.709V236.378H760V240Z" fill="#146ABA"/>
<path d="M790 217.65H781.879V240H778.039V217.65H770V214H790V217.65Z" fill="#146ABA"/>
<path d="M800 214H808.964C812.984 214 815.994 215.058 817.993 217.174C819.992 219.291 820.995 222.515 821 226.847C821 231.19 820.028 234.469 818.083 236.685C816.138 238.9 813.223 240.006 809.339 240H800V214ZM803.871 236.378H808.939C810.211 236.409 811.477 236.209 812.68 235.79C813.662 235.44 814.536 234.834 815.214 234.032C815.907 233.152 816.395 232.124 816.64 231.024C816.954 229.618 817.102 228.18 817.08 226.739C817.111 225.301 816.938 223.866 816.567 222.479C816.274 221.429 815.737 220.465 815.002 219.669C814.283 218.941 813.395 218.411 812.419 218.128C811.245 217.793 810.029 217.634 808.809 217.655H803.92L803.871 236.378Z" fill="#146ABA"/>
<path d="M831 240V235H835V240H831Z" fill="#146ABA"/>
<defs>
<linearGradient id="paint0_linear_1658_5527" x1="221.85" y1="137.8" x2="38.4402" y2="214.63" gradientUnits="userSpaceOnUse">
<stop offset="0.13" stop-color="#008AD1"/>
<stop offset="0.27" stop-color="#0481CA"/>
<stop offset="0.5" stop-color="#0F6AB8"/>
<stop offset="0.79" stop-color="#20459B"/>
<stop offset="1" stop-color="#2F2482"/>
</linearGradient>
<linearGradient id="paint1_linear_1658_5527" x1="-48.4799" y1="101.663" x2="264.84" y2="-6.32686" gradientUnits="userSpaceOnUse">
<stop offset="0.06" stop-color="#009DE2"/>
<stop offset="0.23" stop-color="#0B81CC"/>
<stop offset="0.5" stop-color="#185EB0"/>
<stop offset="0.72" stop-color="#21489E"/>
<stop offset="0.86" stop-color="#244098"/>
</linearGradient>
<linearGradient id="paint2_linear_1658_5527" x1="10.7502" y1="109.569" x2="134.78" y2="175.009" gradientUnits="userSpaceOnUse">
<stop stop-color="#E2000F"/>
<stop offset="0.13" stop-color="#E5120E"/>
<stop offset="0.38" stop-color="#EC430A"/>
<stop offset="0.74" stop-color="#F68F04"/>
<stop offset="1" stop-color="#FFCB00"/>
</linearGradient>
</defs>
</svg>
