<svg width="185" height="96" viewBox="0 0 185 96" fill="none" xmlns="http://www.w3.org/2000/svg">
<path fill-rule="evenodd" clip-rule="evenodd" d="M123.169 35.3132C123.169 50.0022 106.324 50.6207 106.324 50.6207C104.688 50.7265 103.264 51.638 102.466 52.9726C102.019 53.705 101.766 54.5676 101.766 55.4872V73.3663C101.766 82.6599 95.9071 90.5781 87.6877 93.638C79.566 90.6107 73.7474 82.8471 73.6172 73.7C73.8044 77.2644 76.8235 80.072 80.4612 79.893C83.9849 79.7221 86.6705 76.6297 86.6705 73.1059V53.8352C86.6705 52.2646 86.7844 50.694 87.1262 49.164C87.9074 45.6566 89.4699 42.9548 91.5451 40.8714C100.489 31.8383 118.791 34.5157 123.169 35.3132Z" fill="url(#paint0_linear_1544_1727)"/>
<path fill-rule="evenodd" clip-rule="evenodd" d="M125.546 7.34375V12.373H122.071V17.4104H118.588V22.4397H53.6307C53.5168 22.4397 53.4028 22.4397 53.2971 22.4478C43.8407 22.6024 35.9795 29.3325 34.0915 38.268C32.7487 35.4523 32 32.3029 32 28.9745C32 15.205 43.9628 7.34375 53.6307 7.34375H125.546Z" fill="url(#paint1_linear_1544_1727)"/>
<path fill-rule="evenodd" clip-rule="evenodd" d="M87.6884 93.644C85.3366 94.5229 82.7894 95.0031 80.1364 95.0031C68.6863 95.0031 58.5627 86.1327 58.5627 74.8453C58.5627 74.4303 58.5138 55.3793 58.5057 55.3305C58.4243 52.7019 56.2759 50.6105 53.631 50.6105C47.2916 50.6105 41.5869 47.8843 37.6318 43.5386V43.5305C36.1995 41.968 35.0114 40.202 34.0918 38.2733C35.9798 29.3378 43.8411 22.6077 53.2974 22.4531C49.8469 22.6322 47.1044 25.4805 47.1044 28.9798C47.1044 32.5849 50.0259 35.5064 53.631 35.5064C60.1821 35.5064 66.0008 38.6558 69.6384 43.5305C70.8591 45.158 71.8357 46.9891 72.5111 48.9503C72.9424 50.1873 73.2517 51.4731 73.4226 52.8077C73.5528 53.6785 73.6097 54.5737 73.6097 55.4851V73.3724C73.6097 73.4863 73.6098 73.5921 73.6179 73.706C73.7481 82.8531 79.5667 90.6167 87.6884 93.644Z" fill="url(#paint2_linear_1544_1727)"/>
<path d="M131.967 6.91406H128.012V10.8691H131.967V6.91406Z" fill="#E2000F"/>
<path d="M129.427 13.4766H125.472V17.4316H129.427V13.4766Z" fill="#E2000F"/>
<path d="M126.107 19.5312H122.152V23.4863H126.107V19.5312Z" fill="#E2000F"/>
<path d="M134.636 18.4844H131.234V21.886H134.636V18.4844Z" fill="#E2000F"/>
<path d="M137.354 11.8281H133.952V15.2298H137.354V11.8281Z" fill="#E2000F"/>
<path d="M139.055 4.69531H135.653V8.09698H139.055V4.69531Z" fill="#E2000F"/>
<path d="M144.231 10.3203H141.61V13.1116H144.231V10.3203Z" fill="#E2000F"/>
<path d="M146.378 2.35938H143.758V5.1507H146.378V2.35938Z" fill="#E2000F"/>
<path d="M148.867 7.5H146.247V10.2913H148.867V7.5Z" fill="#E2000F"/>
<path d="M152.938 0H150.317V2.79132H152.938V0Z" fill="#E2000F"/>
<path d="M141.057 16.3672H138.437V19.1585H141.057V16.3672Z" fill="#E2000F"/>
<defs>
<linearGradient id="paint0_linear_1544_1727" x1="118.388" y1="54.4711" x2="45.6604" y2="84.9392" gradientUnits="userSpaceOnUse">
<stop offset="0.1309" stop-color="#008AD1"/>
<stop offset="0.2744" stop-color="#0481CA"/>
<stop offset="0.5036" stop-color="#0F6AB8"/>
<stop offset="0.788" stop-color="#20459B"/>
<stop offset="1" stop-color="#2F2482"/>
</linearGradient>
<linearGradient id="paint1_linear_1544_1727" x1="11.1907" y1="40.1436" x2="135.437" y2="-2.67874" gradientUnits="userSpaceOnUse">
<stop offset="0.0566" stop-color="#009DE2"/>
<stop offset="0.2344" stop-color="#0B81CC"/>
<stop offset="0.4994" stop-color="#185EB0"/>
<stop offset="0.7162" stop-color="#21489E"/>
<stop offset="0.8562" stop-color="#244098"/>
</linearGradient>
<linearGradient id="paint2_linear_1544_1727" x1="34.6806" y1="43.2847" x2="83.8617" y2="69.2325" gradientUnits="userSpaceOnUse">
<stop stop-color="#E2000F"/>
<stop offset="0.1266" stop-color="#E5120E"/>
<stop offset="0.3822" stop-color="#EC430A"/>
<stop offset="0.7397" stop-color="#F68F04"/>
<stop offset="1" stop-color="#FFCB00"/>
</linearGradient>
</defs>
</svg>
