<svg width="184" height="96" viewBox="0 0 184 96" fill="none" xmlns="http://www.w3.org/2000/svg">
<path fill-rule="evenodd" clip-rule="evenodd" d="M111.4 22.315C111.4 31.5983 100.754 31.9892 100.754 31.9892C99.7204 32.0561 98.8203 32.6321 98.3163 33.4756C98.0334 33.9384 97.874 34.4836 97.874 35.0648V46.3642C97.874 52.2376 94.171 57.2419 88.9764 59.1757C83.8436 57.2625 80.1663 52.3559 80.084 46.5751C80.2023 48.8277 82.1104 50.6021 84.4093 50.489C86.6363 50.381 88.3335 48.4266 88.3335 46.1996V34.0207C88.3335 33.0281 88.4055 32.0355 88.6215 31.0686C89.1153 28.8519 90.1028 27.1444 91.4143 25.8278C97.0665 20.1189 108.633 21.811 111.4 22.315Z" fill="url(#paint0_linear_459_951)"/>
<path fill-rule="evenodd" clip-rule="evenodd" d="M112.902 4.64062V7.81907H110.706V11.0027H108.505V14.1811H67.4526C67.3806 14.1811 67.3086 14.1811 67.2418 14.1862C61.2655 14.284 56.2972 18.5373 55.104 24.1844C54.2554 22.4049 53.7822 20.4146 53.7822 18.311C53.7822 9.60887 61.3426 4.64062 67.4526 4.64062H112.902Z" fill="url(#paint1_linear_459_951)"/>
<path fill-rule="evenodd" clip-rule="evenodd" d="M88.977 59.1795C87.4907 59.7349 85.8809 60.0383 84.2042 60.0383C76.9679 60.0383 70.5698 54.4324 70.5698 47.2989C70.5698 47.0366 70.539 34.9965 70.5338 34.9657C70.4824 33.3045 69.1246 31.9827 67.4531 31.9827C63.4466 31.9827 59.8413 30.2597 57.3417 27.5133V27.5082C56.4366 26.5207 55.6857 25.4046 55.1045 24.1857C56.2977 18.5386 61.2659 14.2852 67.2422 14.1875C65.0616 14.3006 63.3283 16.1007 63.3283 18.3123C63.3283 20.5907 65.1747 22.4371 67.4531 22.4371C71.5933 22.4371 75.2706 24.4274 77.5696 27.5082C78.3411 28.5368 78.9583 29.694 79.3851 30.9335C79.6577 31.7152 79.8532 32.5278 79.9612 33.3713C80.0434 33.9216 80.0794 34.4874 80.0794 35.0634V46.368C80.0794 46.44 80.0795 46.5068 80.0846 46.5788C80.1669 52.3597 83.8442 57.2662 88.977 59.1795Z" fill="url(#paint2_linear_459_951)"/>
<path d="M116.96 4.36719H114.461V6.86674H116.96V4.36719Z" fill="#E2000F"/>
<path d="M115.355 8.51562H112.855V11.0152H115.355V8.51562Z" fill="#E2000F"/>
<path d="M113.257 12.3438H110.758V14.8433H113.257V12.3438Z" fill="#E2000F"/>
<path d="M118.647 11.6797H116.497V13.8295H118.647V11.6797Z" fill="#E2000F"/>
<path d="M120.365 7.47656H118.215V9.62638H120.365V7.47656Z" fill="#E2000F"/>
<path d="M121.44 2.96875H119.29V5.11857H121.44V2.96875Z" fill="#E2000F"/>
<path d="M124.711 6.52344H123.055V8.28753H124.711V6.52344Z" fill="#E2000F"/>
<path d="M126.068 1.49219H124.412V3.25628H126.068V1.49219Z" fill="#E2000F"/>
<path d="M127.641 4.74219H125.985V6.50628H127.641V4.74219Z" fill="#E2000F"/>
<path d="M130.214 0H128.558V1.76409H130.214V0Z" fill="#E2000F"/>
<path d="M122.705 10.3438H121.049V12.1078H122.705V10.3438Z" fill="#E2000F"/>
<path d="M5.7806 88.9248H3.52792V95.0399H2.4633V88.9248H0.236328V87.9219H5.7806V88.9248Z" fill="#146ABA"/>
<path d="M14.868 95.0426H9.62207V87.9297H14.7035V88.9326H10.7021V90.8664H14.4463V91.8693H10.7021V94.0448H14.8732V95.0426H14.868Z" fill="#146ABA"/>
<path d="M24.6816 92.7421C24.5838 93.1072 24.445 93.4415 24.2753 93.7347C24.1055 94.033 23.8998 94.285 23.6581 94.4959C23.4164 94.7067 23.1335 94.8662 22.8146 94.9793C22.4957 95.0925 22.1409 95.1491 21.7551 95.1491C21.2357 95.1491 20.7779 95.0616 20.3768 94.8816C19.9756 94.7016 19.6465 94.4547 19.379 94.1256C19.1116 93.8016 18.9059 93.4107 18.7721 92.9478C18.6384 92.4849 18.5664 91.9758 18.5664 91.4152C18.5664 90.8391 18.6487 90.33 18.8133 89.8774C18.9779 89.4299 19.2042 89.0493 19.4922 88.7459C19.7802 88.4373 20.1248 88.2059 20.5259 88.0464C20.9271 87.887 21.3643 87.8047 21.8374 87.8047C22.2232 87.8047 22.5677 87.8561 22.866 87.9538C23.1643 88.0567 23.4266 88.1956 23.6427 88.3807C23.8638 88.5659 24.049 88.7819 24.1981 89.039C24.3473 89.2962 24.4707 89.5791 24.5633 89.8928L23.5089 90.0985C23.2364 89.2088 22.6655 88.7664 21.8014 88.7664C21.4568 88.7664 21.1482 88.8282 20.8859 88.9465C20.6237 89.0699 20.4025 89.2396 20.2225 89.4711C20.0425 89.6974 19.9088 89.9751 19.8213 90.3042C19.7339 90.6334 19.6876 91.0037 19.6876 91.4152C19.6876 91.8986 19.739 92.3152 19.8368 92.6649C19.9345 93.0147 20.0733 93.3027 20.2533 93.5238C20.4334 93.7501 20.6494 93.9147 20.9014 94.0227C21.1534 94.1307 21.4311 94.1873 21.7397 94.1873C22.2437 94.1873 22.6552 94.0433 22.9689 93.7501C23.2826 93.4621 23.5038 93.0507 23.6272 92.5209L24.6816 92.7421Z" fill="#146ABA"/>
<path d="M34.243 95.0426H33.1784V91.7767H29.7634V95.0426H28.6885V87.9297H29.7634V90.779H33.1784V87.9297H34.243V95.0426Z" fill="#146ABA"/>
<path d="M44.2564 95.0426H43.1558L39.7664 89.6732H39.7459V95.0426H38.7275V87.9297H39.8127L43.202 93.2991H43.2226V87.9297H44.2512V95.0426H44.2564Z" fill="#146ABA"/>
<path d="M51.7141 87.8203C52.2026 87.8203 52.6501 87.9077 53.0564 88.0877C53.4627 88.2678 53.8073 88.5146 54.1005 88.8386C54.3936 89.1627 54.6148 89.5484 54.7793 90.001C54.9388 90.4536 55.0211 90.9525 55.0211 91.5028C55.0211 92.048 54.9388 92.5468 54.7793 92.9994C54.6199 93.452 54.3936 93.8377 54.1056 94.1566C53.8176 94.4755 53.4679 94.7275 53.0615 94.9024C52.6552 95.0772 52.2078 95.1647 51.7141 95.1647C51.2049 95.1647 50.7471 95.0721 50.3357 94.8869C49.9242 94.7018 49.5745 94.4446 49.2865 94.1258C48.9985 93.8017 48.7773 93.4212 48.623 92.9891C48.4687 92.5571 48.3916 92.0891 48.3916 91.5954C48.3916 91.0039 48.4739 90.4742 48.6333 90.0061C48.7928 89.5381 49.0242 89.1472 49.3174 88.8232C49.6105 88.5043 49.9602 88.2575 50.3666 88.0826C50.778 87.9026 51.2255 87.8203 51.7141 87.8203ZM51.7038 94.2029C52.0432 94.2029 52.3467 94.1412 52.6192 94.0126C52.8918 93.884 53.1181 93.7092 53.3033 93.4777C53.4884 93.2463 53.6376 92.9634 53.7353 92.6291C53.8382 92.2948 53.8947 91.9194 53.8999 91.4976C53.8999 91.0708 53.8484 90.6902 53.7404 90.3507C53.6324 90.0113 53.4833 89.7284 53.293 89.497C53.1027 89.2655 52.8712 89.0907 52.6089 88.9672C52.3415 88.8438 52.0484 88.7821 51.7243 88.7821C51.3952 88.7821 51.0969 88.8386 50.8243 88.9518C50.5517 89.0649 50.3203 89.2347 50.1197 89.4661C49.9242 89.6975 49.77 89.9907 49.6619 90.3404C49.5539 90.6902 49.4974 91.1119 49.4974 91.5954C49.4974 91.9811 49.5488 92.3308 49.6517 92.6446C49.7545 92.9583 49.8985 93.236 50.0888 93.4674C50.2791 93.6989 50.5106 93.8789 50.7831 94.0075C51.0557 94.1361 51.3643 94.2029 51.7038 94.2029Z" fill="#146ABA"/>
<path d="M63.5115 95.0426H59.1553V87.9297H60.2302V94.0448H63.5115V95.0426Z" fill="#146ABA"/>
<path d="M70.383 87.8203C70.8716 87.8203 71.319 87.9077 71.7254 88.0877C72.1317 88.2626 72.4762 88.5146 72.7694 88.8386C73.0626 89.1627 73.2837 89.5484 73.4483 90.001C73.6077 90.4536 73.69 90.9525 73.69 91.5028C73.69 92.048 73.6077 92.5468 73.4483 92.9994C73.2889 93.452 73.0626 93.8377 72.7745 94.1566C72.4865 94.4755 72.1368 94.7275 71.7305 94.9024C71.3242 95.0772 70.8767 95.1647 70.383 95.1647C69.8738 95.1647 69.4161 95.0721 69.0046 94.8869C68.5932 94.7018 68.2435 94.4446 67.9555 94.1258C67.6674 93.8069 67.4463 93.4212 67.292 92.9891C67.1377 92.5571 67.0605 92.0891 67.0605 91.5954C67.0605 91.0039 67.1428 90.4742 67.3023 90.0061C67.4669 89.5381 67.6932 89.1472 67.9863 88.8232C68.2795 88.5043 68.6292 88.2575 69.0355 88.0826C69.4469 87.9026 69.8944 87.8203 70.383 87.8203ZM70.3727 94.2029C70.7122 94.2029 71.0156 94.1412 71.2882 94.0126C71.5608 93.8892 71.7871 93.7092 71.9722 93.4777C72.1574 93.2463 72.3014 92.9634 72.4042 92.6291C72.5071 92.2948 72.5637 91.9194 72.5688 91.4976C72.5688 91.0708 72.5174 90.6902 72.4094 90.3507C72.3014 90.0113 72.1574 89.7284 71.9619 89.497C71.7716 89.2655 71.5402 89.0907 71.2779 88.9672C71.0105 88.8438 70.7173 88.7821 70.3933 88.7821C70.0641 88.7821 69.7658 88.8386 69.4932 88.9518C69.2207 89.0649 68.9892 89.2347 68.7886 89.4661C68.5932 89.6975 68.4389 89.9907 68.3309 90.3404C68.2229 90.6902 68.1663 91.1119 68.1663 91.5954C68.1663 91.9811 68.2177 92.3308 68.3206 92.6446C68.4235 92.9634 68.5675 93.236 68.7578 93.4674C68.9481 93.6989 69.1795 93.8789 69.4521 94.0075C69.7298 94.1361 70.0333 94.2029 70.3727 94.2029Z" fill="#146ABA"/>
<path d="M83.9351 94.0846C83.0402 94.8047 82.0578 95.1595 80.9829 95.1595C80.4635 95.1595 79.9852 95.0721 79.5583 94.9024C79.1263 94.7275 78.7611 94.4806 78.4525 94.1618C78.1439 93.8429 77.9022 93.4572 77.7376 93.0097C77.5679 92.5623 77.4805 92.0634 77.4805 91.5131C77.4805 90.973 77.5576 90.4742 77.7171 90.0216C77.8765 89.569 78.1028 89.1781 78.4011 88.8541C78.6994 88.5301 79.0646 88.278 79.5017 88.0929C79.9337 87.9129 80.4326 87.8203 80.9881 87.8203C82.5516 87.8203 83.5031 88.4941 83.8322 89.8467L82.8602 90.073C82.6082 89.2141 81.9755 88.7821 80.9521 88.7821C80.5612 88.7821 80.2217 88.8489 79.9234 88.9775C79.6303 89.1061 79.3834 89.2912 79.188 89.5278C78.9925 89.7644 78.8434 90.0473 78.7457 90.3764C78.648 90.7056 78.5965 91.0708 78.5965 91.4668C78.5965 91.8988 78.648 92.2845 78.756 92.624C78.864 92.9583 79.0183 93.2411 79.2188 93.4726C79.4194 93.704 79.6663 93.8737 79.9543 93.9972C80.2423 94.1155 80.5715 94.1772 80.9366 94.1772C81.6515 94.1772 82.3099 93.9663 82.9013 93.5446V92.3823H80.9006V91.3536H83.9299V94.0846H83.9351Z" fill="#146ABA"/>
<path d="M89.3044 95.0426H88.2295V87.9297H89.3044V95.0426Z" fill="#146ABA"/>
<path d="M99.036 95.0426H93.79V87.9297H98.8714V88.9326H94.8701V90.8664H98.6143V91.8693H94.8701V94.0448H99.0412V95.0426H99.036Z" fill="#146ABA"/>
<path d="M107.008 90.0473C106.972 89.6358 106.822 89.317 106.56 89.0907C106.298 88.8644 105.917 88.7512 105.424 88.7512C105.208 88.7512 105.007 88.7718 104.827 88.8181C104.642 88.8592 104.482 88.9261 104.349 89.0135C104.215 89.1009 104.107 89.2038 104.035 89.3272C103.958 89.4507 103.922 89.5895 103.922 89.7438C103.922 89.8827 103.947 90.001 104.004 90.109C104.061 90.2119 104.153 90.3096 104.287 90.3919C104.421 90.4742 104.606 90.5564 104.842 90.6284C105.079 90.7056 105.377 90.7827 105.742 90.8599C106.108 90.9422 106.442 91.0347 106.75 91.1376C107.059 91.2405 107.327 91.3691 107.553 91.5336C107.779 91.6982 107.954 91.8988 108.083 92.1457C108.211 92.3874 108.273 92.696 108.273 93.0611C108.273 93.3697 108.211 93.6526 108.083 93.9149C107.954 94.172 107.779 94.3932 107.548 94.5835C107.316 94.7738 107.044 94.9127 106.725 95.0207C106.406 95.1235 106.051 95.175 105.665 95.175C105.172 95.175 104.74 95.1184 104.364 95.0001C103.994 94.8818 103.68 94.7224 103.428 94.5064C103.176 94.2955 102.986 94.0435 102.852 93.7452C102.723 93.4469 102.646 93.1229 102.631 92.7628L103.659 92.6857C103.675 92.948 103.737 93.1794 103.845 93.3697C103.953 93.56 104.091 93.7246 104.266 93.8532C104.441 93.9818 104.642 94.0795 104.868 94.1412C105.094 94.2029 105.336 94.2338 105.593 94.2338C105.84 94.2338 106.066 94.2081 106.262 94.1515C106.457 94.0949 106.632 94.0178 106.776 93.92C106.92 93.8223 107.028 93.6989 107.105 93.56C107.183 93.4212 107.219 93.2669 107.219 93.092C107.219 92.9274 107.193 92.7886 107.141 92.6651C107.09 92.5417 106.987 92.4337 106.833 92.336C106.678 92.2331 106.468 92.1405 106.19 92.0582C105.912 91.9708 105.552 91.8834 105.11 91.7856C104.719 91.6982 104.38 91.5902 104.097 91.4668C103.814 91.3433 103.587 91.1942 103.407 91.0296C103.227 90.865 103.099 90.6799 103.017 90.4742C102.934 90.2684 102.893 90.037 102.893 89.785C102.893 89.5021 102.95 89.2398 103.068 88.9981C103.186 88.7563 103.351 88.5506 103.567 88.3758C103.783 88.2009 104.045 88.0672 104.349 87.9695C104.657 87.8717 104.997 87.8203 105.382 87.8203C105.768 87.8203 106.123 87.8666 106.442 87.9643C106.761 88.062 107.039 88.2009 107.27 88.386C107.501 88.5712 107.687 88.7924 107.82 89.0598C107.954 89.3272 108.031 89.6307 108.047 89.9753L107.008 90.0473Z" fill="#146ABA"/>
<path d="M118.374 87.9297H120.987C121.444 87.9297 121.84 87.976 122.175 88.0685C122.509 88.1611 122.777 88.3 122.993 88.4851C123.203 88.6703 123.363 88.8966 123.461 89.164C123.563 89.4315 123.61 89.7452 123.61 90.0949C123.61 90.4087 123.563 90.7018 123.466 90.9744C123.368 91.2521 123.219 91.4939 123.013 91.6996C122.807 91.9104 122.545 92.075 122.221 92.1933C121.902 92.3168 121.516 92.3733 121.069 92.3733H119.449V95.0375H118.374V87.9297ZM119.449 91.3756H120.904C121.439 91.3756 121.835 91.2778 122.103 91.0824C122.37 90.887 122.504 90.5681 122.504 90.1206C122.504 89.8841 122.468 89.6886 122.391 89.5343C122.314 89.38 122.211 89.2566 122.072 89.1692C121.933 89.0817 121.763 89.0149 121.563 88.9789C121.362 88.9429 121.136 88.9275 120.884 88.9275H119.449V91.3756Z" fill="#146ABA"/>
<path d="M133.252 87.927L130.573 95.0399H129.426L126.818 87.927H127.981L129.771 93.0958C129.801 93.1833 129.827 93.2604 129.853 93.3324C129.873 93.4044 129.899 93.4713 129.915 93.5433C129.935 93.6102 129.951 93.6822 129.966 93.749C129.981 93.8159 129.997 93.893 130.017 93.9753H130.028C130.059 93.8313 130.095 93.6873 130.131 93.5433C130.172 93.3993 130.218 93.2501 130.275 93.0907L132.147 87.9219H133.252V87.927Z" fill="#146ABA"/>
<path d="M141.805 88.9248H139.552V95.0399H138.488V88.9248H136.261V87.9219H141.805V88.9248Z" fill="#146ABA"/>
<path d="M144.531 95.0384V93.7578H145.719V95.0384H144.531Z" fill="#146ABA"/>
<path d="M160.722 95.0426H156.366V87.9297H157.441V94.0448H160.722V95.0426Z" fill="#146ABA"/>
<path d="M168.643 88.9248H166.39V95.0399H165.326V88.9248H163.099V87.9219H168.643V88.9248Z" fill="#146ABA"/>
<path d="M172.484 87.9297H174.974C176.09 87.9297 176.928 88.2177 177.489 88.7989C178.044 89.38 178.327 90.2595 178.327 91.4476C178.327 92.6356 178.054 93.5357 177.514 94.1374C176.974 94.7443 176.162 95.0426 175.082 95.0426H172.49V87.9297H172.484ZM173.559 94.0551H174.974C175.38 94.0551 175.73 94.0037 176.013 93.8957C176.295 93.7877 176.532 93.6283 176.712 93.4122C176.892 93.1962 177.026 92.9185 177.108 92.5893C177.19 92.255 177.231 91.8642 177.231 91.4167C177.231 90.959 177.185 90.5681 177.087 90.2544C176.99 89.9406 176.846 89.6783 176.655 89.4829C176.46 89.2875 176.223 89.1435 175.935 89.0612C175.647 88.9737 175.313 88.9326 174.932 88.9326H173.559V94.0551Z" fill="#146ABA"/>
<path d="M182.668 95.0384V93.7578H183.856V95.0384H182.668Z" fill="#146ABA"/>
<path d="M9.74106 71.2122V82.0436H6.26431V71.2122H0V68.2344H16.0002V71.2122H9.74106Z" fill="#E2000F"/>
<path d="M36.1251 75.5633C36.3822 75.229 36.5931 74.833 36.7525 74.3701C36.912 73.9124 36.9891 73.3775 36.9891 72.7706C36.9891 71.85 36.8245 71.0991 36.4902 70.5128C36.1611 69.9265 35.7548 69.4687 35.2816 69.1344C34.8033 68.795 34.3044 68.5635 33.7798 68.4298C33.2552 68.3012 32.8078 68.2344 32.4375 68.2344H19.9346V71.2122H31.918C32.026 71.2122 32.17 71.2328 32.35 71.274C32.5249 71.31 32.6998 71.3871 32.8746 71.5003C33.0444 71.6134 33.1935 71.7677 33.3118 71.9734C33.4301 72.1791 33.4918 72.4414 33.4918 72.7706C33.4918 73.0895 33.425 73.3466 33.2912 73.5524C33.1575 73.7529 33.0032 73.9175 32.8232 74.0358C32.6483 74.1541 32.4683 74.2364 32.2986 74.2827C32.1237 74.329 32.0003 74.3495 31.918 74.3495H19.9346V82.0436H23.4319V77.3274H30.73L32.9518 82.0436H36.6908L34.2684 76.9365C34.5976 76.8028 34.9267 76.6279 35.2508 76.4016C35.5748 76.1805 35.8679 75.8976 36.1251 75.5633Z" fill="#E2000F"/>
<path d="M41.124 82.0436V68.2344H57.8803V71.2122H44.6213V73.6964H56.2911V76.3811H44.6213V79.0658H58.3946V82.0436H41.124Z" fill="#E2000F"/>
<path d="M75.9889 82.0436L65.929 72.3952V82.0436H62.4316V68.2344H65.929L75.9889 77.8829V68.2344H79.4862V82.0436H75.9889Z" fill="#E2000F"/>
<path d="M101.838 72.4569C101.612 71.9734 101.329 71.526 100.985 71.1145C100.733 70.8059 100.445 70.5231 100.126 70.2556C99.3801 69.6333 98.4594 69.1396 97.3742 68.7795C96.289 68.4144 95.0393 68.2344 93.6352 68.2344H84.0176V71.1145H93.5581C94.4427 71.1145 95.2141 71.2225 95.8622 71.4334C96.5102 71.6391 97.0554 71.9271 97.4822 72.2872C97.9143 72.6523 98.2331 73.0792 98.4389 73.5729C98.6446 74.0667 98.7475 74.5861 98.7475 75.1416C98.7475 75.6919 98.6446 76.2165 98.4389 76.7051C98.2331 77.1988 97.9143 77.6257 97.4822 77.9909C97.0554 78.3509 96.5102 78.6389 95.8622 78.8498C95.2141 79.0606 94.4427 79.1635 93.5581 79.1635H87.5149V74.3495H84.0176V82.0436H93.6352C95.0393 82.0436 96.289 81.8636 97.3742 81.5036C98.4594 81.1384 99.3801 80.6447 100.126 80.0224C100.877 79.3949 101.448 78.6646 101.838 77.8211C102.229 76.9828 102.425 76.0879 102.425 75.1416C102.425 74.1901 102.229 73.3003 101.838 72.4569Z" fill="#E2000F"/>
<path d="M122.339 77.5819C122.339 78.266 122.154 78.9089 121.784 79.5158C121.414 80.1226 120.843 80.6524 120.076 81.105C119.31 81.5576 118.348 81.9124 117.196 82.1696C116.044 82.4268 114.676 82.5553 113.102 82.5553C112.295 82.5553 111.467 82.4885 110.618 82.3599C109.888 82.257 109.086 82.0924 108.211 81.8662C107.337 81.645 106.488 81.321 105.665 80.8993L106.879 78.1374C107.61 78.5077 108.34 78.7906 109.075 78.9963C109.811 79.202 110.474 79.346 111.071 79.4386C111.776 79.5466 112.449 79.6032 113.097 79.6135C115.083 79.6135 116.564 79.4386 117.541 79.0786C118.518 78.7186 119.002 78.2557 119.002 77.6797C119.002 77.3094 118.847 77.0419 118.544 76.8722C118.24 76.7025 117.767 76.6048 117.135 76.5739C116.991 76.5585 116.713 76.543 116.312 76.5225C115.905 76.5019 115.412 76.4813 114.831 76.4556C114.249 76.4299 113.596 76.4042 112.881 76.3785C112.166 76.3527 111.421 76.3167 110.654 76.2807C109.888 76.2396 109.178 76.1367 108.535 75.967C107.892 75.7973 107.337 75.5504 106.864 75.2264C106.391 74.9024 106.026 74.5115 105.763 74.0435C105.496 73.5755 105.367 73.0251 105.367 72.3977C105.367 71.7651 105.578 71.1736 105.995 70.613C106.411 70.0524 107.008 69.569 107.784 69.1524C108.561 68.7358 109.502 68.4118 110.608 68.1752C111.714 67.9386 112.948 67.8203 114.316 67.8203C115.124 67.8203 115.947 67.882 116.78 68.0003C117.495 68.1083 118.292 68.2575 119.176 68.4529C120.056 68.6484 120.915 68.9415 121.748 69.3221L120.694 72.0428C120.282 71.8731 119.819 71.7085 119.3 71.5491C118.786 71.3896 118.246 71.2508 117.68 71.1376C117.114 71.0193 116.548 70.9268 115.972 70.8599C115.396 70.793 114.841 70.7622 114.311 70.7622C113.514 70.7622 112.778 70.7982 112.094 70.8702C111.41 70.9422 110.819 71.0502 110.315 71.1942C109.811 71.3382 109.415 71.5182 109.132 71.7291C108.849 71.9399 108.705 72.1765 108.705 72.4388C108.705 72.7834 108.849 73.0354 109.142 73.2103C109.435 73.38 109.862 73.4777 110.433 73.5086C111.071 73.5343 111.966 73.5755 113.118 73.6269C114.27 73.6783 115.638 73.74 117.212 73.8069C118.009 73.848 118.719 73.9509 119.346 74.1206C119.974 74.2903 120.514 74.5372 120.956 74.8509C121.398 75.1647 121.743 75.5556 121.979 76.0133C122.216 76.471 122.339 76.9905 122.339 77.5819Z" fill="#E2000F"/>
<path d="M144.028 75.1411C144.028 76.1388 143.817 77.0851 143.39 77.9698C142.968 78.8595 142.351 79.6361 141.554 80.3047C140.751 80.9733 139.774 81.5082 138.622 81.9042C137.47 82.3003 136.164 82.4957 134.708 82.4957C133.253 82.4957 131.946 82.3003 130.794 81.9042C129.642 81.5082 128.665 80.9785 127.863 80.3047C127.06 79.6361 126.448 78.8544 126.022 77.9698C125.6 77.08 125.384 76.1388 125.384 75.1411C125.384 74.1433 125.595 73.197 126.022 72.3123C126.443 71.4226 127.06 70.646 127.863 69.9722C128.665 69.3036 129.642 68.7687 130.794 68.3727C131.946 67.9767 133.253 67.7812 134.708 67.7812C136.164 67.7812 137.47 67.9767 138.622 68.3727C139.774 68.7687 140.751 69.2985 141.554 69.9722C142.356 70.6408 142.968 71.4226 143.39 72.3123C143.817 73.197 144.028 74.1381 144.028 75.1411ZM140.35 75.1411C140.35 74.5496 140.232 73.989 140.001 73.4541C139.769 72.9192 139.419 72.4512 138.946 72.0449C138.478 71.6386 137.887 71.3146 137.177 71.078C136.467 70.8414 135.644 70.7231 134.703 70.7231C133.762 70.7231 132.939 70.8414 132.229 71.078C131.52 71.3146 130.928 71.6386 130.46 72.0449C129.992 72.4512 129.637 72.9244 129.406 73.4541C129.174 73.989 129.056 74.5496 129.056 75.1411C129.056 75.7325 129.174 76.2931 129.406 76.828C129.637 77.3629 129.987 77.8309 130.46 78.2372C130.928 78.6435 131.52 78.9675 132.229 79.2041C132.939 79.4407 133.762 79.559 134.703 79.559C135.644 79.559 136.467 79.4407 137.177 79.2041C137.887 78.9675 138.473 78.6435 138.946 78.2372C139.414 77.8309 139.769 77.3577 140.001 76.828C140.232 76.2931 140.35 75.7325 140.35 75.1411Z" fill="#E2000F"/>
<path d="M151.362 71.2122V74.3495H162.892V77.3274H151.362V82.0436H147.864V68.2344H164.461V71.2122H151.362Z" fill="#E2000F"/>
<path d="M177.736 71.2122V82.0436H174.259V71.2122H168V68.2344H184V71.2122H177.736Z" fill="#E2000F"/>
<defs>
<linearGradient id="paint0_linear_459_951" x1="108.379" y1="34.4226" x2="62.4156" y2="53.6781" gradientUnits="userSpaceOnUse">
<stop offset="0.1309" stop-color="#008AD1"/>
<stop offset="0.2744" stop-color="#0481CA"/>
<stop offset="0.5036" stop-color="#0F6AB8"/>
<stop offset="0.788" stop-color="#20459B"/>
<stop offset="1" stop-color="#2F2482"/>
</linearGradient>
<linearGradient id="paint1_linear_459_951" x1="40.6309" y1="25.3698" x2="119.153" y2="-1.69349" gradientUnits="userSpaceOnUse">
<stop offset="0.0566" stop-color="#009DE2"/>
<stop offset="0.2344" stop-color="#0B81CC"/>
<stop offset="0.4994" stop-color="#185EB0"/>
<stop offset="0.7162" stop-color="#21489E"/>
<stop offset="0.8562" stop-color="#244098"/>
</linearGradient>
<linearGradient id="paint2_linear_459_951" x1="55.4766" y1="27.3528" x2="86.5586" y2="43.7516" gradientUnits="userSpaceOnUse">
<stop stop-color="#E2000F"/>
<stop offset="0.1266" stop-color="#E5120E"/>
<stop offset="0.3822" stop-color="#EC430A"/>
<stop offset="0.7397" stop-color="#F68F04"/>
<stop offset="1" stop-color="#FFCB00"/>
</linearGradient>
</defs>
</svg>
