<svg width="774" height="128" viewBox="0 0 774 128" fill="none" xmlns="http://www.w3.org/2000/svg">
<g clip-path="url(#clip0_1601_6874)">
<path fill-rule="evenodd" clip-rule="evenodd" d="M123.488 47.576C123.488 67.4333 100.816 68.2011 100.816 68.2011C99.7587 68.275 98.7351 68.6022 97.8309 69.1551C96.9267 69.7081 96.1684 70.4705 95.6201 71.3783C95.0028 72.4004 94.6781 73.5728 94.6815 74.7673V98.8475C94.6859 104.795 92.8716 110.602 89.4825 115.487C86.0934 120.372 81.2919 124.1 75.7237 126.171C70.2384 124.123 65.4981 120.464 62.1228 115.674C58.7475 110.884 56.8943 105.186 56.8057 99.3241C56.8649 100.481 57.1513 101.615 57.6486 102.662C58.1458 103.708 58.8441 104.646 59.7036 105.422C60.5631 106.197 61.5668 106.796 62.6575 107.183C63.7481 107.57 64.9043 107.738 66.0598 107.677C68.3565 107.502 70.4994 106.455 72.0501 104.749C73.6009 103.044 74.4421 100.809 74.4017 98.5033V72.5433C74.378 70.4314 74.5819 68.3232 75.0098 66.2551C75.8761 62.0306 77.9418 58.1464 80.9589 55.0689C92.91 42.903 117.592 46.5037 123.488 47.576Z" fill="url(#paint0_linear_1601_6874)"/>
<path fill-rule="evenodd" clip-rule="evenodd" d="M126.674 9.89844V16.6764H121.994V23.4543H117.301V30.2323H29.4528C23.3742 30.3399 17.511 32.5051 12.8179 36.3752C8.1249 40.2453 4.87852 45.5924 3.60741 51.5458C1.75486 47.6319 0.797392 43.3536 0.804729 39.0224C0.804729 20.489 16.8937 9.89844 29.8891 9.89844H126.674Z" fill="url(#paint1_linear_1601_6874)"/>
<path fill-rule="evenodd" clip-rule="evenodd" d="M75.7238 126.174C72.4751 127.384 69.0367 128.002 65.5707 128.001C50.1559 128.001 36.4863 116.086 36.4863 100.836C36.4863 100.28 36.4863 74.6111 36.407 74.5449C36.3386 72.8358 35.6122 71.2194 34.3799 70.0348C33.1476 68.8502 31.5051 68.1892 29.7969 68.1906C25.7443 68.1911 21.7363 67.3434 18.0299 65.702C14.3236 64.0606 11.0007 61.6617 8.27443 58.6591C6.34273 56.5475 4.73441 54.1608 3.50195 51.5767C4.77456 45.6035 8.03542 40.2402 12.7503 36.3655C17.4651 32.4908 23.3544 30.3346 29.4532 30.25C27.1693 30.3753 25.0242 31.3869 23.4731 33.0702C21.922 34.7534 21.087 36.9757 21.1455 39.2653C21.204 41.555 22.1513 43.7316 23.7864 45.3332C25.4214 46.9349 27.6154 47.8353 29.9026 47.8435C34.0851 47.8363 38.2113 48.8095 41.9508 50.6853C45.6904 52.561 48.9395 55.2873 51.4383 58.6459C53.1039 60.8634 54.411 63.3293 55.3118 65.9534C55.8985 67.6355 56.3062 69.3749 56.5281 71.1427C56.7056 72.339 56.7896 73.5474 56.7792 74.7568V98.8503C56.7792 99.0091 56.7792 99.1547 56.7792 99.3004C56.8647 105.17 58.7192 110.876 62.0999 115.672C65.4805 120.467 70.2293 124.128 75.7238 126.174Z" fill="url(#paint2_linear_1601_6874)"/>
<path d="M135.334 9.30469H130.006V14.6397H135.334V9.30469Z" fill="#E2000F"/>
<path d="M131.909 18.1484H126.582V23.4834H131.909V18.1484Z" fill="#E2000F"/>
<path d="M127.441 26.3203H122.113V31.6553H127.441V26.3203Z" fill="#E2000F"/>
<path d="M138.916 24.8984H134.342V29.4789H138.916V24.8984Z" fill="#E2000F"/>
<path d="M142.565 15.9219H137.991V20.5023H142.565V15.9219Z" fill="#E2000F"/>
<path d="M144.852 6.3125H140.278V10.8929H144.852V6.3125Z" fill="#E2000F"/>
<path d="M151.832 13.8984H148.302V17.6581H151.832V13.8984Z" fill="#E2000F"/>
<path d="M154.714 3.17969H151.185V6.93933H154.714V3.17969Z" fill="#E2000F"/>
<path d="M158.072 10.1172H154.542V13.8768H158.072V10.1172Z" fill="#E2000F"/>
<path d="M163.545 0H160.016V3.75964H163.545V0Z" fill="#E2000F"/>
<path d="M147.549 22.0391H144.019V25.7987H147.549V22.0391Z" fill="#E2000F"/>
<path d="M182.709 102.147H175.242V122.44H171.72V102.147H164.33V98.8125H182.709V102.147Z" fill="#264294"/>
<path d="M212.77 122.44H195.449V98.8125H212.289V102.147H199.028V108.564H211.423V111.879H199.028V119.106H212.847L212.77 122.44Z" fill="#264294"/>
<path d="M245.275 114.817C244.974 115.967 244.528 117.074 243.948 118.112C243.406 119.062 242.71 119.916 241.888 120.637C241.074 121.355 240.125 121.905 239.098 122.256C237.963 122.638 236.773 122.826 235.576 122.815C234.01 122.847 232.455 122.545 231.014 121.928C229.732 121.361 228.599 120.503 227.704 119.423C226.811 118.28 226.156 116.969 225.78 115.568C225.3 113.916 225.066 112.201 225.087 110.48C225.064 108.743 225.344 107.015 225.914 105.373C226.399 103.979 227.166 102.7 228.166 101.615C229.125 100.598 230.294 99.8026 231.592 99.2835C232.972 98.7482 234.442 98.4801 235.922 98.4934C237.077 98.4762 238.227 98.6454 239.329 98.9945C240.268 99.2985 241.143 99.7756 241.907 100.401C242.671 101.017 243.322 101.76 243.832 102.598C244.351 103.489 244.758 104.441 245.045 105.431L241.542 106.106C241.277 104.816 240.562 103.663 239.525 102.854C238.488 102.046 237.197 101.634 235.884 101.693C234.839 101.671 233.802 101.874 232.843 102.29C231.986 102.688 231.234 103.282 230.649 104.024C230.036 104.851 229.586 105.786 229.321 106.78C229.015 107.99 228.866 109.233 228.878 110.48C228.85 111.877 229.012 113.271 229.359 114.624C229.627 115.657 230.098 116.627 230.745 117.476C231.31 118.197 232.044 118.766 232.881 119.134C233.758 119.503 234.702 119.686 235.653 119.673C237.148 119.739 238.611 119.221 239.733 118.228C240.855 117.126 241.614 115.707 241.907 114.161L245.275 114.817Z" fill="#264294"/>
<path d="M277.013 122.44H273.491V111.59H262.175V122.44H258.614V98.8125H262.175V108.275H273.491V98.8125H277.013V122.44Z" fill="#264294"/>
<path d="M310.173 122.44H306.516L295.296 104.613V122.44H291.832V98.8125H295.45L306.67 116.639V98.8125H310.096L310.173 122.44Z" fill="#264294"/>
<path d="M334.885 98.4698C336.413 98.4487 337.928 98.7508 339.331 99.3563C340.652 99.9231 341.834 100.771 342.795 101.842C343.789 102.964 344.549 104.275 345.027 105.697C345.583 107.301 345.857 108.99 345.836 110.688C345.857 112.374 345.584 114.05 345.027 115.641C344.555 117.066 343.795 118.377 342.795 119.495C341.84 120.573 340.657 121.423 339.331 121.982C337.924 122.572 336.411 122.867 334.885 122.849C333.31 122.872 331.748 122.557 330.305 121.924C328.984 121.337 327.804 120.477 326.84 119.399C325.855 118.277 325.109 116.965 324.646 115.545C324.122 114.06 323.861 112.494 323.876 110.919C323.848 109.126 324.122 107.341 324.685 105.639C325.178 104.22 325.943 102.911 326.937 101.785C327.911 100.73 329.098 99.896 330.42 99.337C331.836 98.7544 333.354 98.4596 334.885 98.4698ZM334.885 119.669C335.925 119.683 336.955 119.473 337.907 119.052C338.792 118.647 339.57 118.04 340.178 117.279C340.828 116.439 341.317 115.485 341.621 114.465C341.97 113.243 342.151 111.979 342.16 110.707C342.181 109.404 342.006 108.104 341.64 106.853C341.336 105.821 340.832 104.859 340.158 104.02C339.547 103.268 338.769 102.668 337.887 102.266C336.968 101.852 335.97 101.641 334.962 101.65C333.941 101.64 332.927 101.83 331.979 102.209C331.074 102.58 330.274 103.169 329.65 103.924C328.944 104.776 328.426 105.767 328.13 106.834C327.735 108.185 327.547 109.589 327.572 110.997C327.559 112.18 327.734 113.357 328.091 114.485C328.392 115.482 328.882 116.411 329.535 117.221C330.166 117.974 330.955 118.579 331.844 118.994C332.785 119.431 333.81 119.655 334.847 119.65L334.885 119.669Z" fill="#264294"/>
<path d="M373.973 122.44H359.539V98.8125H363.099V119.106H373.973V122.44Z" fill="#264294"/>
<path d="M396.74 98.47C398.274 98.4468 399.796 98.7489 401.205 99.3565C402.521 99.9236 403.697 100.772 404.65 101.843C405.65 102.964 406.416 104.274 406.902 105.697C407.451 107.303 407.718 108.991 407.691 110.688C407.719 112.373 407.452 114.049 406.902 115.641C406.422 117.062 405.663 118.373 404.67 119.496C403.715 120.573 402.531 121.423 401.205 121.982C399.792 122.574 398.272 122.869 396.74 122.849C395.171 122.871 393.616 122.555 392.179 121.924C390.859 121.337 389.678 120.477 388.715 119.399C387.731 118.273 386.979 116.963 386.502 115.545C385.994 114.056 385.741 112.493 385.751 110.92C385.727 109.128 385.993 107.345 386.54 105.639C387.039 104.219 387.811 102.909 388.811 101.785C389.786 100.731 390.973 99.8962 392.295 99.3373C393.705 98.7571 395.216 98.4624 396.74 98.47ZM396.74 119.669C397.786 119.683 398.823 119.473 399.781 119.052C400.663 118.642 401.44 118.036 402.052 117.279C402.703 116.439 403.192 115.485 403.496 114.466C403.85 113.225 404.031 111.941 404.034 110.65C404.056 109.346 403.881 108.047 403.515 106.795C403.203 105.766 402.7 104.805 402.033 103.962C401.421 103.21 400.644 102.61 399.762 102.209C398.837 101.792 397.832 101.582 396.817 101.592C395.802 101.581 394.795 101.771 393.853 102.151C392.945 102.516 392.143 103.106 391.525 103.866C390.82 104.722 390.296 105.712 389.985 106.776C389.597 108.129 389.416 109.532 389.446 110.939C389.437 112.12 389.605 113.296 389.947 114.427C390.261 115.422 390.757 116.35 391.409 117.164C392.041 117.916 392.829 118.521 393.719 118.937C394.648 119.393 395.667 119.637 396.702 119.65L396.74 119.669Z" fill="#264294"/>
<path d="M441.657 119.237C438.91 121.526 435.454 122.786 431.881 122.802C430.261 122.823 428.653 122.529 427.146 121.935C425.758 121.396 424.504 120.561 423.47 119.488C422.423 118.381 421.617 117.068 421.103 115.633C420.523 114.041 420.236 112.356 420.256 110.661C420.23 108.977 420.497 107.301 421.045 105.708C421.525 104.279 422.299 102.966 423.316 101.854C424.326 100.752 425.569 99.889 426.954 99.3292C428.52 98.7048 430.195 98.3969 431.881 98.4235C437.058 98.4235 440.214 100.659 441.311 105.149L438.078 105.901C437.724 104.542 436.888 103.358 435.727 102.57C434.565 101.783 433.157 101.446 431.765 101.623C430.598 101.597 429.438 101.814 428.359 102.259C427.403 102.698 426.565 103.359 425.914 104.186C425.229 105.006 424.73 105.966 424.452 106.999C424.109 108.17 423.941 109.384 423.951 110.603C423.925 111.909 424.107 113.21 424.49 114.458C424.806 115.491 425.33 116.448 426.03 117.271C426.688 118.036 427.519 118.63 428.455 119.006C429.497 119.414 430.608 119.617 431.727 119.603C434.062 119.608 436.339 118.873 438.232 117.503V113.648H431.611V110.256H441.657V119.237Z" fill="#264294"/>
<path d="M459.442 122.44H455.882V98.8125H459.442V122.44Z" fill="#264294"/>
<path d="M491.698 122.44H474.376V98.8125H491.216V102.147H477.937V108.564H490.35V111.879H477.937V119.106H491.775L491.698 122.44Z" fill="#264294"/>
<path d="M518.122 105.846C518.1 105.242 517.955 104.649 517.697 104.102C517.439 103.556 517.073 103.067 516.621 102.666C515.547 101.85 514.213 101.453 512.868 101.548C512.221 101.543 511.575 101.614 510.944 101.76C510.388 101.89 509.856 102.104 509.366 102.396C508.946 102.662 508.591 103.017 508.326 103.437C508.108 103.829 507.984 104.266 507.964 104.715C507.944 105.163 508.029 105.61 508.211 106.02C508.443 106.407 508.767 106.731 509.154 106.964C509.763 107.3 510.409 107.565 511.078 107.754C511.848 108.005 512.849 108.255 514.062 108.525C515.274 108.795 516.39 109.103 517.41 109.431C518.358 109.726 519.255 110.168 520.066 110.741C520.8 111.269 521.4 111.962 521.818 112.765C522.271 113.714 522.489 114.758 522.453 115.81C522.464 116.784 522.246 117.748 521.818 118.623C521.395 119.482 520.791 120.238 520.047 120.84C519.231 121.483 518.305 121.972 517.314 122.285C516.175 122.644 514.986 122.82 513.792 122.805C512.341 122.83 510.894 122.636 509.5 122.227C508.362 121.895 507.302 121.338 506.382 120.589C505.557 119.906 504.898 119.042 504.458 118.064C504.019 117.032 503.772 115.929 503.727 114.808L507.152 114.557C507.173 115.354 507.384 116.133 507.768 116.831C508.106 117.466 508.579 118.019 509.154 118.45C509.736 118.874 510.387 119.194 511.078 119.394C511.856 119.606 512.659 119.71 513.465 119.703C514.218 119.719 514.97 119.628 515.697 119.433C516.308 119.285 516.888 119.03 517.41 118.681C517.852 118.366 518.22 117.959 518.488 117.486C518.755 117.01 518.888 116.471 518.873 115.925C518.886 115.444 518.801 114.965 518.623 114.518C518.398 114.06 518.043 113.678 517.603 113.42C516.94 113.021 516.228 112.71 515.486 112.495C514.562 112.206 513.369 111.917 511.906 111.589C510.75 111.352 509.622 110.996 508.538 110.529C507.702 110.185 506.933 109.695 506.267 109.084C505.687 108.556 505.244 107.895 504.978 107.157C504.682 106.429 504.538 105.649 504.554 104.863C504.542 103.963 504.739 103.072 505.132 102.262C505.526 101.461 506.091 100.757 506.787 100.199C507.566 99.5988 508.446 99.142 509.385 98.8504C510.495 98.5125 511.651 98.35 512.811 98.3686C513.996 98.353 515.176 98.5154 516.313 98.8504C517.315 99.1225 518.251 99.5945 519.065 100.238C519.832 100.84 520.456 101.603 520.894 102.474C521.35 103.426 521.605 104.463 521.644 105.519L518.122 105.846Z" fill="#264294"/>
<path d="M555.788 98.8138H564.448C565.747 98.7959 567.043 98.9581 568.297 99.2956C569.283 99.5529 570.202 100.02 570.992 100.664C571.69 101.275 572.225 102.05 572.551 102.919C573.205 104.869 573.205 106.981 572.551 108.932C572.233 109.835 571.72 110.657 571.049 111.341C570.303 112.067 569.411 112.625 568.432 112.979C567.197 113.415 565.893 113.624 564.583 113.595H559.348V122.441H555.788V98.8138ZM559.348 110.261H564.179C565.574 110.356 566.964 110.02 568.163 109.298C568.623 108.914 568.983 108.424 569.211 107.87C569.439 107.316 569.528 106.715 569.471 106.118C569.491 105.456 569.367 104.799 569.106 104.191C568.866 103.699 568.501 103.28 568.047 102.977C567.527 102.665 566.952 102.456 566.353 102.36C565.609 102.238 564.856 102.18 564.102 102.186H559.348V110.261Z" fill="#264294"/>
<path d="M605.092 98.8125L596.219 122.44H592.37L583.729 98.8125H587.578L593.506 115.964C593.506 116.273 593.698 116.523 593.775 116.755C593.852 116.986 593.91 117.236 593.968 117.468C594.046 117.687 594.104 117.913 594.141 118.142C594.141 118.373 594.199 118.624 594.314 118.894L594.661 117.468C594.795 117.005 594.949 116.504 595.142 115.964L601.358 98.8125H605.092Z" fill="#264294"/>
<path d="M633.443 102.147H625.975V122.44H622.453V102.147H615.063V98.8125H633.443V102.147Z" fill="#264294"/>
<path d="M642.468 122.454V118.195H646.317V122.454H642.468Z" fill="#264294"/>
<path d="M696.126 122.44H681.692V98.8125H685.252V119.106H696.126V122.44Z" fill="#264294"/>
<path d="M722.377 102.147H714.928V122.44H711.387V102.147H704.016V98.8125H722.377V102.147Z" fill="#264294"/>
<path d="M735.061 98.8304H743.298C744.811 98.7121 746.332 98.9078 747.766 99.4053C749.2 99.9027 750.516 100.691 751.632 101.721C753.662 104.178 754.656 107.33 754.403 110.509C754.638 113.715 753.678 116.894 751.709 119.432C750.665 120.494 749.403 121.314 748.01 121.837C746.618 122.36 745.128 122.571 743.645 122.458H735.061V98.8304ZM738.621 119.162H743.298C744.468 119.191 745.634 119.015 746.743 118.642C747.652 118.323 748.456 117.764 749.072 117.023C749.711 116.23 750.159 115.3 750.381 114.306C750.666 113.041 750.801 111.748 750.785 110.451C750.81 109.151 750.654 107.854 750.323 106.597C750.052 105.645 749.557 104.773 748.879 104.053C748.217 103.388 747.395 102.904 746.493 102.646C745.41 102.343 744.288 102.2 743.163 102.222H738.621V119.162Z" fill="#264294"/>
<path d="M768.854 122.454V118.195H772.704V122.454H768.854Z" fill="#264294"/>
<path d="M195.93 43.337V79.2791H184.383V43.337H163.636V33.5469H216.677V43.4334L195.93 43.337Z" fill="#E2000F"/>
<path d="M283.365 57.7717C284.263 56.6088 284.965 55.3069 285.444 53.9173C286.006 52.2018 286.273 50.4032 286.233 48.5982C286.343 45.9976 285.773 43.4133 284.578 41.1015C283.608 39.2939 282.239 37.7318 280.575 36.534C279.082 35.4498 277.397 34.6585 275.609 34.2021C274.184 33.8108 272.718 33.5908 271.241 33.5469H229.708V43.4334H269.432C269.912 43.4457 270.389 43.5103 270.856 43.6261C271.477 43.7777 272.069 44.0317 272.607 44.3777C273.206 44.7836 273.7 45.325 274.051 45.958C274.477 46.7706 274.683 47.681 274.647 48.5982C274.68 49.5126 274.446 50.4168 273.974 51.1999C273.573 51.8313 273.049 52.3753 272.434 52.7995C271.898 53.163 271.306 53.4364 270.683 53.6089C270.276 53.7347 269.856 53.8123 269.432 53.8402H229.708V79.3754H241.256V63.7267H265.467L272.838 79.3754H285.232L277.207 62.4162C278.352 61.946 279.443 61.3514 280.459 60.6432C281.581 59.8551 282.564 58.8845 283.365 57.7717Z" fill="#E2000F"/>
<path d="M299.934 79.2791V33.5469H355.457V43.4334H311.519V51.6817H350.146V60.5275H311.462V69.4311H357.112V79.3176L299.934 79.2791Z" fill="#E2000F"/>
<path d="M415.465 79.2791L382.151 47.2685V79.2791H370.604V33.5469H382.151L415.465 65.5575V33.5469H427.013V79.3754L415.465 79.2791Z" fill="#E2000F"/>
<path d="M501.147 47.4617C500.397 45.8632 499.446 44.3671 498.317 43.0099C497.462 41.9698 496.508 41.0146 495.469 40.1576C492.763 37.966 489.668 36.3053 486.347 35.2626C482.34 33.9908 478.154 33.379 473.952 33.451H442.082V43.0869H473.702C476.308 43.0366 478.905 43.3943 481.401 44.1469C483.358 44.7308 485.182 45.6933 486.77 46.9799C488.15 48.1279 489.239 49.5876 489.946 51.239C491.306 54.5741 491.306 58.3106 489.946 61.6458C489.239 63.2971 488.15 64.7568 486.77 65.9049C485.179 67.1906 483.356 68.1588 481.401 68.7571C478.904 69.5017 476.307 69.8528 473.702 69.7978H453.687V53.8214H442.139V79.3567H474.01C478.211 79.4251 482.395 78.82 486.404 77.5644C489.723 76.5074 492.817 74.8409 495.527 72.65C499.081 69.672 501.562 65.6083 502.587 61.0826C503.613 56.5569 503.127 51.8192 501.204 47.5966L501.147 47.4617Z" fill="#E2000F"/>
<path d="M569.084 64.4706C569.061 66.749 568.394 68.9743 567.159 70.8881C565.73 73.0783 563.788 74.8847 561.501 76.1493C558.501 77.8346 555.253 79.0315 551.878 79.6953C547.445 80.5985 542.929 81.0249 538.406 80.9673C535.647 80.965 532.893 80.7459 530.169 80.3121C527.484 79.9154 524.824 79.3685 522.201 78.6739C519.274 77.9263 516.441 76.8532 513.752 75.4748L517.775 66.3014C520.099 67.4922 522.536 68.4477 525.049 69.1536C527.225 69.7749 529.436 70.264 531.67 70.6183C533.899 70.9722 536.15 71.1718 538.406 71.2157C543.371 71.429 548.337 70.8302 553.11 69.4427C556.343 68.2671 557.96 66.7254 557.96 64.7982C557.991 64.2524 557.865 63.709 557.595 63.2337C557.325 62.7584 556.924 62.3714 556.439 62.1194C554.977 61.4351 553.376 61.0988 551.762 61.1365L549.03 60.9631L544.122 60.7511L537.675 60.4813C535.307 60.4813 532.844 60.2885 530.303 60.1536C527.933 60.0461 525.579 59.6974 523.279 59.113C521.304 58.6139 519.429 57.7796 517.736 56.6462C516.239 55.6647 514.993 54.3444 514.099 52.7918C513.183 51.1229 512.725 49.2413 512.771 47.3378C512.791 45.1839 513.522 43.0972 514.849 41.4021C516.444 39.3708 518.468 37.7188 520.777 36.5649C523.73 35.0581 526.878 33.9685 530.13 33.3272C534.17 32.5029 538.286 32.1088 542.409 32.1516C545.146 32.1557 547.878 32.3489 550.588 32.7297C552.956 33.0766 555.592 33.5777 558.518 34.2329C561.454 34.8904 564.312 35.8595 567.044 37.1237L563.56 46.1623C562.05 45.5361 560.508 44.9893 558.941 44.5241C557.235 43.9974 555.445 43.5348 553.572 43.1366C551.647 42.7511 549.722 42.4428 547.913 42.2308C546.086 42.02 544.248 41.9106 542.409 41.9032C539.96 41.8904 537.512 42.0126 535.076 42.2693C533.079 42.4536 531.102 42.8147 529.168 43.3485C527.795 43.7116 526.494 44.3045 525.319 45.1023C524.908 45.3531 524.564 45.6997 524.316 46.1125C524.068 46.5252 523.924 46.9919 523.895 47.4727C523.873 47.9897 523.996 48.5024 524.251 48.9523C524.507 49.4022 524.883 49.7711 525.338 50.0166C526.67 50.6822 528.142 51.0192 529.63 50.9995L538.521 51.3849L552.09 51.9824C554.48 52.0799 556.854 52.4287 559.172 53.023C561.076 53.5178 562.88 54.3394 564.503 55.4513C565.93 56.4393 567.093 57.7628 567.89 59.3057C568.7 60.905 569.11 62.6775 569.084 64.4706Z" fill="#E2000F"/>
<path d="M640.948 56.3595C640.968 59.6067 640.251 62.816 638.851 65.745C637.393 68.7229 635.312 71.3519 632.75 73.4537C629.891 75.7923 626.63 77.5883 623.127 78.7535C614.677 81.3743 605.633 81.3743 597.184 78.7535C593.647 77.5991 590.352 75.8026 587.465 73.4537C584.903 71.3519 582.822 68.7229 581.364 65.745C579.982 62.8097 579.265 59.6047 579.265 56.3595C579.265 53.1144 579.982 49.9094 581.364 46.9741C582.822 43.9962 584.903 41.3672 587.465 39.2654C590.352 36.9165 593.647 35.12 597.184 33.9656C605.633 31.3448 614.677 31.3448 623.127 33.9656C626.63 35.1307 629.891 36.9268 632.75 39.2654C635.312 41.3672 637.393 43.9962 638.851 46.9741C640.251 49.903 640.968 53.1123 640.948 56.3595ZM628.766 56.3595C628.775 54.4362 628.382 52.5324 627.611 50.7707C626.821 48.9648 625.629 47.3632 624.128 46.0876C622.403 44.6358 620.408 43.5418 618.258 42.8692C612.904 41.3017 607.214 41.3017 601.86 42.8692C599.71 43.5418 597.715 44.6358 595.991 46.0876C594.489 47.3632 593.298 48.9648 592.507 50.7707C591.745 52.5353 591.353 54.4372 591.353 56.3595C591.353 58.2818 591.745 60.1838 592.507 61.9484C593.298 63.7543 594.489 65.3559 595.991 66.6314C597.72 68.0761 599.714 69.1693 601.86 69.8498C607.214 71.4173 612.904 71.4173 618.258 69.8498C620.405 69.1693 622.399 68.0761 624.128 66.6314C625.629 65.3559 626.821 63.7543 627.611 61.9484C628.382 60.1867 628.775 58.2828 628.766 56.3595Z" fill="#E2000F"/>
<path d="M665.256 43.337V53.7438H703.459V63.6303H665.256V79.2791H653.709V33.5469H708.713V43.4334L665.256 43.337Z" fill="#E2000F"/>
<path d="M752.669 43.337V79.2791H741.121V43.337H720.394V33.5469H773.415V43.4334L752.669 43.337Z" fill="#E2000F"/>
</g>
<defs>
<linearGradient id="paint0_linear_1601_6874" x1="117.05" y1="73.3905" x2="19.1545" y2="114.347" gradientUnits="userSpaceOnUse">
<stop offset="0.13" stop-color="#008AD1"/>
<stop offset="0.27" stop-color="#0481CA"/>
<stop offset="0.5" stop-color="#0F6AB8"/>
<stop offset="0.79" stop-color="#20459B"/>
<stop offset="1" stop-color="#2F2482"/>
</linearGradient>
<linearGradient id="paint1_linear_1601_6874" x1="-27.1956" y1="54.0875" x2="140.035" y2="-3.46425" gradientUnits="userSpaceOnUse">
<stop offset="0.06" stop-color="#009DE2"/>
<stop offset="0.23" stop-color="#0B81CC"/>
<stop offset="0.5" stop-color="#185EB0"/>
<stop offset="0.72" stop-color="#21489E"/>
<stop offset="0.86" stop-color="#244098"/>
</linearGradient>
<linearGradient id="paint2_linear_1601_6874" x1="4.41414" y1="58.3149" x2="70.6335" y2="93.2026" gradientUnits="userSpaceOnUse">
<stop stop-color="#E2000F"/>
<stop offset="0.13" stop-color="#E5120E"/>
<stop offset="0.38" stop-color="#EC430A"/>
<stop offset="0.74" stop-color="#F68F04"/>
<stop offset="1" stop-color="#FFCB00"/>
</linearGradient>
<clipPath id="clip0_1601_6874">
<rect width="774" height="128" fill="white"/>
</clipPath>
</defs>
</svg>
