<svg width="833" height="241" viewBox="0 0 833 241" fill="none" xmlns="http://www.w3.org/2000/svg">
<path fill-rule="evenodd" clip-rule="evenodd" d="M230.326 89.3831C230.326 126.508 187.761 128.061 187.761 128.061C185.777 128.186 183.854 128.792 182.157 129.827C180.461 130.862 179.042 132.295 178.024 134.002C176.856 135.914 176.243 138.112 176.25 140.353V185.522C176.251 196.666 172.845 207.544 166.489 216.697C160.133 225.85 151.13 232.841 140.688 236.732C130.379 232.893 121.47 226.03 115.127 217.043C108.783 208.056 105.301 197.363 105.135 186.364C105.358 190.732 107.305 194.832 110.549 197.766C113.792 200.7 118.067 202.227 122.436 202.011C131.341 201.571 138.113 193.767 138.113 184.861V136.185C138.067 132.215 138.457 128.251 139.275 124.365C140.899 116.45 144.774 109.172 150.435 103.408C173.025 80.6077 219.266 87.3696 230.326 89.3831Z" fill="url(#paint0_linear_1663_5528)"/>
<path fill-rule="evenodd" clip-rule="evenodd" d="M236.326 18.7266V31.4289H227.55V44.1513H218.735V56.8637H54.6462C54.3557 56.8637 54.0752 56.8637 53.8047 56.8637C42.3906 57.0557 31.3787 61.1117 22.567 68.3695C13.7554 75.6273 7.66471 85.6581 5.28936 96.824C1.79641 89.5002 -0.0109773 81.4868 5.01594e-05 73.3727C5.01594e-05 38.5815 30.2232 18.7266 54.6462 18.7266H236.326Z" fill="url(#paint1_linear_1663_5528)"/>
<path fill-rule="evenodd" clip-rule="evenodd" d="M140.688 236.729C134.571 239.014 128.093 240.178 121.564 240.165C92.6433 240.165 67.0683 217.756 67.0683 189.236C67.0683 188.234 66.9381 140.059 66.918 139.939C66.8215 136.74 65.4813 133.705 63.1822 131.479C60.8832 129.253 57.8066 128.011 54.6064 128.018C46.9944 128.027 39.465 126.441 32.5032 123.363C25.5413 120.285 19.3014 115.783 14.1852 110.147C10.5627 106.188 7.55096 101.711 5.24951 96.8632C7.62245 85.6869 13.7174 75.6466 22.5375 68.3841C31.3577 61.1216 42.3811 57.0668 53.8049 56.8828C49.5022 57.0949 45.453 58.9815 42.5228 62.1394C39.5926 65.2974 38.0137 69.4761 38.1236 73.7827C38.2335 78.0893 40.0234 82.1821 43.1109 85.1864C46.1984 88.1908 50.3385 89.8685 54.6464 89.8608C65.1412 89.856 75.3761 93.125 83.9252 99.2122C92.4742 105.299 98.9116 113.902 102.34 123.821C103.447 126.98 104.22 130.247 104.644 133.568C104.969 135.807 105.127 138.067 105.115 140.33V185.519C105.115 185.8 105.115 186.07 105.115 186.361C105.282 197.362 108.768 208.057 115.115 217.044C121.462 226.032 130.376 232.893 140.688 236.729Z" fill="url(#paint2_linear_1663_5528)"/>
<path d="M252.544 17.6172H242.547V27.6148H252.544V17.6172Z" fill="#E2000F"/>
<path d="M246.133 34.2031H236.136V44.2007H246.133V34.2031Z" fill="#E2000F"/>
<path d="M237.738 49.5H227.741V59.4976H237.738V49.5Z" fill="#E2000F"/>
<path d="M259.296 46.8516H250.691V55.4567H259.296V46.8516Z" fill="#E2000F"/>
<path d="M266.148 30.0312H257.543V38.6364H266.148V30.0312Z" fill="#E2000F"/>
<path d="M270.446 12.0078H261.841V20.613H270.446V12.0078Z" fill="#E2000F"/>
<path d="M283.539 26.2344H276.907V33.2868H283.539V26.2344Z" fill="#E2000F"/>
<path d="M288.968 6.13281H282.336V13.1852H288.968V6.13281Z" fill="#E2000F"/>
<path d="M295.26 19.1328H288.628V26.1852H295.26V19.1328Z" fill="#E2000F"/>
<path d="M305.537 0.164062H298.906V7.21647H305.537V0.164062Z" fill="#E2000F"/>
<path d="M275.505 41.4922H268.873V48.5446H275.505V41.4922Z" fill="#E2000F"/>
<path d="M270.798 151.586V190.079H258.158V151.586H235.415V140.992H293.517V151.586H270.798Z" fill="#E2000F"/>
<path d="M356.554 167.075C357.529 165.791 358.289 164.359 358.805 162.834C359.392 160.997 359.667 159.076 359.618 157.15C359.738 154.354 359.121 151.575 357.83 149.087C356.775 147.153 355.294 145.481 353.497 144.193C351.876 143.033 350.051 142.183 348.115 141.686C346.544 141.268 344.929 141.035 343.303 140.992H298.525V151.579H341.473C341.997 151.597 342.518 151.67 343.026 151.796C343.697 151.947 344.334 152.221 344.904 152.603C345.549 153.035 346.086 153.609 346.473 154.28C346.933 155.154 347.155 156.132 347.115 157.118C347.157 158.092 346.909 159.057 346.4 159.891C345.962 160.573 345.39 161.16 344.717 161.617C344.144 162.008 343.509 162.302 342.839 162.488C342.396 162.623 341.937 162.704 341.473 162.73H298.525V190.079H311.061V173.348H337.214L345.18 190.079H358.578L349.896 171.953C351.136 171.453 352.317 170.818 353.416 170.059C354.613 169.234 355.672 168.227 356.554 167.075Z" fill="#E2000F"/>
<path d="M365.644 190.079V140.992H425.893V151.586H378.22V160.461H420.143V170.005H378.22V179.55H427.753V190.079H365.644Z" fill="#E2000F"/>
<path d="M481.329 190.079L445.294 155.765V190.079H432.762V140.992H445.294L481.329 175.306V140.992H493.869V190.079H481.329Z" fill="#E2000F"/>
<path d="M563.847 156.009C563.031 154.293 561.985 152.69 560.737 151.242C559.794 150.129 558.744 149.105 557.603 148.185C554.627 145.836 551.224 144.054 547.571 142.934C543.166 141.574 538.563 140.921 533.942 140.998H498.878V151.242H533.661C536.505 151.189 539.34 151.57 542.063 152.372C544.217 152.999 546.223 154.032 547.968 155.413C549.489 156.64 550.686 158.206 551.458 159.978C552.209 161.747 552.591 163.645 552.583 165.56C552.592 167.467 552.209 169.357 551.458 171.117C550.688 172.893 549.491 174.462 547.968 175.691C546.233 177.079 544.239 178.128 542.097 178.78C539.372 179.575 536.537 179.951 533.694 179.893H511.663V162.745H498.911V190.073H533.976C538.594 190.148 543.196 189.499 547.604 188.153C551.255 187.021 554.657 185.235 557.636 182.886C561.566 179.702 564.306 175.339 565.429 170.478C566.553 165.617 565.996 160.53 563.847 156.009Z" fill="#E2000F"/>
<path d="M632.11 174.155C632.109 176.622 631.416 179.039 630.11 181.13C628.555 183.513 626.441 185.478 623.952 186.854C620.715 188.665 617.216 189.959 613.581 190.689C608.745 191.68 603.816 192.146 598.881 192.079C595.873 192.074 592.869 191.837 589.898 191.368C586.983 190.93 584.093 190.338 581.241 189.593C578.064 188.78 574.987 187.611 572.07 186.11L576.439 176.159C578.967 177.446 581.615 178.482 584.345 179.25C586.709 179.933 589.112 180.479 591.539 180.885C593.957 181.252 596.395 181.465 598.84 181.523C605.994 181.523 611.324 180.882 614.83 179.601C618.336 178.32 620.089 176.639 620.089 174.556C620.122 173.965 619.985 173.376 619.696 172.859C619.407 172.342 618.977 171.918 618.456 171.637C616.863 170.909 615.128 170.546 613.376 170.574C612.846 170.525 611.857 170.468 610.404 170.394L605.071 170.149C602.972 170.051 600.637 169.961 598.056 169.863C595.475 169.764 592.805 169.65 590.045 169.511C587.472 169.396 584.918 169.013 582.425 168.366C580.282 167.829 578.246 166.927 576.407 165.701C574.774 164.602 573.416 163.141 572.438 161.432C571.449 159.613 570.956 157.566 571.009 155.496C571.03 153.16 571.823 150.898 573.263 149.061C574.996 146.856 577.193 145.061 579.698 143.803C582.908 142.162 586.329 140.976 589.865 140.279C594.256 139.385 598.729 138.955 603.209 138.995C606.18 139.002 609.146 139.218 612.086 139.641C614.661 140.017 617.536 140.562 620.71 141.276C623.897 141.992 627.001 143.039 629.971 144.4L626.182 154.212C624.703 153.591 623.029 153.002 621.175 152.429C619.322 151.857 617.37 151.366 615.336 150.941C613.303 150.516 611.253 150.181 609.187 149.944C607.203 149.71 605.207 149.59 603.209 149.584C600.545 149.574 597.881 149.705 595.231 149.976C593.066 150.183 590.924 150.577 588.828 151.154C587.306 151.542 585.864 152.192 584.565 153.075C584.121 153.345 583.749 153.719 583.482 154.165C583.214 154.611 583.059 155.115 583.03 155.635C583.007 156.198 583.142 156.757 583.421 157.247C583.699 157.737 584.11 158.139 584.606 158.407C586.05 159.121 587.642 159.485 589.253 159.47L598.914 159.895C603.068 160.091 607.984 160.306 613.662 160.541C616.26 160.639 618.84 161.02 621.355 161.677C623.426 162.201 625.386 163.09 627.145 164.302C628.693 165.388 629.959 166.829 630.836 168.505C631.709 170.259 632.146 172.197 632.11 174.155Z" fill="#E2000F"/>
<path d="M704.239 165.555C704.257 169.091 703.476 172.585 701.953 175.774C700.381 179.036 698.122 181.917 695.331 184.217C692.195 186.76 688.619 188.703 684.782 189.948C675.598 192.798 665.771 192.798 656.587 189.948C652.75 188.703 649.174 186.76 646.038 184.217C643.247 181.917 640.987 179.036 639.416 175.774C637.905 172.575 637.122 169.079 637.122 165.539C637.122 161.999 637.905 158.503 639.416 155.303C640.987 152.042 643.247 149.161 646.038 146.861C649.174 144.318 652.75 142.375 656.587 141.129C665.771 138.28 675.598 138.28 684.782 141.129C688.619 142.375 692.195 144.318 695.331 146.861C698.122 149.161 700.381 152.042 701.953 155.303C703.48 158.503 704.262 162.008 704.239 165.555ZM691.003 165.555C691.013 163.462 690.587 161.39 689.754 159.471C688.893 157.505 687.594 155.763 685.957 154.378C684.088 152.805 681.926 151.62 679.597 150.89C673.781 149.176 667.596 149.176 661.78 150.89C659.448 151.618 657.283 152.804 655.411 154.378C653.775 155.763 652.476 157.505 651.615 159.471C650.79 161.395 650.365 163.466 650.365 165.559C650.365 167.653 650.79 169.724 651.615 171.647C652.478 173.61 653.777 175.349 655.411 176.732C657.283 178.307 659.448 179.493 661.78 180.221C667.596 181.935 673.781 181.935 679.597 180.221C681.926 179.491 684.088 178.305 685.957 176.732C687.592 175.349 688.89 173.61 689.754 171.647C690.587 169.725 691.012 167.651 691.003 165.555Z" fill="#E2000F"/>
<path d="M722.714 151.586V162.744H763.764V173.337H722.714V190.079H710.25V140.992H769.354V151.586H722.714Z" fill="#E2000F"/>
<path d="M809.727 151.586V190.079H797.101V151.586H774.363V140.992H832.465V151.586H809.727Z" fill="#E2000F"/>
<path d="M255.687 213.992H246.235V238.996H241.766V213.992H232.409V209.898H255.687V213.992Z" fill="#146ABA"/>
<path d="M286.054 238.996H263.94V209.898H285.347V213.998H268.479V221.901H284.248V225.992H268.479V234.896H286.054V238.996Z" fill="#146ABA"/>
<path d="M319.914 229.842C319.532 231.33 318.963 232.762 318.223 234.102C317.544 235.327 316.667 236.426 315.629 237.352C314.592 238.264 313.396 238.969 312.104 239.429C310.674 239.931 309.17 240.177 307.658 240.157C305.678 240.2 303.712 239.809 301.891 239.012C300.271 238.287 298.839 237.183 297.711 235.79C296.543 234.301 295.677 232.589 295.165 230.754C294.572 228.621 294.284 226.411 294.31 224.194C294.274 221.96 294.621 219.736 295.336 217.625C295.947 215.823 296.917 214.171 298.186 212.773C299.392 211.459 300.869 210.435 302.509 209.774C304.257 209.069 306.121 208.717 308 208.736C309.457 208.714 310.907 208.934 312.294 209.386C313.483 209.776 314.589 210.391 315.553 211.201C316.484 211.997 317.271 212.952 317.881 214.024C318.536 215.175 319.05 216.404 319.41 217.683L315.002 218.566C313.849 214.762 311.465 212.86 307.848 212.86C306.542 212.84 305.246 213.105 304.048 213.636C302.959 214.142 302.007 214.912 301.274 215.878C300.488 216.94 299.917 218.15 299.592 219.439C299.194 220.987 299.002 222.584 299.022 224.184C298.991 225.987 299.199 227.785 299.64 229.531C299.973 230.865 300.568 232.116 301.388 233.209C302.102 234.142 303.033 234.879 304.096 235.353C305.205 235.829 306.398 236.067 307.601 236.052C309.489 236.135 311.334 235.467 312.75 234.189C314.165 232.759 315.122 230.926 315.496 228.929L319.914 229.842Z" fill="#146ABA"/>
<path d="M350.281 238.996H346.046V225.639H332.456V238.996H328.167V209.898H332.456V221.539H346.046V209.898H350.281V238.996Z" fill="#146ABA"/>
<path d="M381.811 238.996H377.19L362.916 217.041H362.82V238.996H358.533V209.898H363.107L377.381 231.854H377.477V209.898H381.811V238.996Z" fill="#146ABA"/>
<path d="M404.061 208.735C406.005 208.714 407.933 209.104 409.72 209.881C411.399 210.614 412.9 211.71 414.117 213.094C415.388 214.538 416.362 216.224 416.985 218.054C418.336 222.222 418.336 226.72 416.985 230.888C416.36 232.714 415.385 234.397 414.117 235.839C412.894 237.216 411.391 238.306 409.711 239.032C407.917 239.798 405.988 240.181 404.042 240.158C402.043 240.188 400.061 239.781 398.23 238.964C396.546 238.204 395.041 237.089 393.814 235.693C392.582 234.275 391.634 232.626 391.022 230.839C390.368 228.92 390.045 226.9 390.066 224.869C390.035 222.562 390.38 220.266 391.089 218.074C391.701 216.209 392.676 214.489 393.957 213.016C395.191 211.651 396.701 210.571 398.383 209.852C400.183 209.098 402.114 208.718 404.061 208.735ZM404.061 236.062C405.378 236.078 406.683 235.803 407.885 235.256C409.001 234.726 409.982 233.942 410.753 232.965C411.59 231.887 412.213 230.654 412.588 229.335C413.04 227.757 413.272 226.123 413.276 224.481C413.301 222.822 413.075 221.168 412.607 219.579C412.208 218.245 411.559 217.002 410.695 215.919C409.921 214.951 408.941 214.174 407.827 213.647C406.655 213.105 405.378 212.833 404.09 212.851C402.78 212.831 401.48 213.078 400.266 213.579C399.119 214.062 398.103 214.818 397.303 215.783C396.423 216.892 395.773 218.17 395.391 219.54C394.896 221.284 394.661 223.093 394.693 224.908C394.677 226.431 394.896 227.948 395.343 229.403C395.735 230.686 396.365 231.882 397.198 232.926C397.989 233.908 398.989 234.694 400.123 235.227C401.331 235.79 402.646 236.075 403.975 236.062H404.061Z" fill="#146ABA"/>
<path d="M443.71 238.996H426.251V209.898H430.561V234.943H443.71V238.996Z" fill="#146ABA"/>
<path d="M465.95 208.735C467.895 208.714 469.824 209.104 471.612 209.881C473.291 210.616 474.792 211.712 476.013 213.094C477.284 214.538 478.259 216.224 478.882 218.054C480.234 222.222 480.234 226.72 478.882 230.888C478.257 232.714 477.282 234.397 476.013 235.839C474.789 237.216 473.284 238.306 471.603 239.032C469.808 239.798 467.877 240.181 465.93 240.158C463.93 240.188 461.946 239.781 460.114 238.964C458.436 238.202 456.936 237.087 455.714 235.693C454.481 234.275 453.533 232.626 452.921 230.839C452.266 228.92 451.943 226.9 451.964 224.869C451.932 222.562 452.278 220.266 452.988 218.074C453.6 216.209 454.576 214.489 455.858 213.016C457.091 211.649 458.602 210.569 460.287 209.852C462.082 209.101 464.007 208.721 465.95 208.735ZM465.95 236.062C467.267 236.078 468.573 235.803 469.776 235.256C470.893 234.726 471.875 233.942 472.646 232.965C473.484 231.887 474.107 230.654 474.482 229.335C474.934 227.757 475.166 226.123 475.171 224.481C475.195 222.822 474.97 221.168 474.501 219.579C474.102 218.245 473.453 217.002 472.588 215.919C471.814 214.951 470.832 214.174 469.718 213.647C468.545 213.105 467.268 212.833 465.978 212.851C464.668 212.831 463.366 213.078 462.152 213.579C461.004 214.062 459.987 214.818 459.187 215.783C458.307 216.892 457.656 218.17 457.273 219.54C456.778 221.284 456.543 223.093 456.575 224.908C456.559 226.431 456.778 227.948 457.226 229.403C457.618 230.686 458.248 231.882 459.081 232.926C459.874 233.908 460.874 234.694 462.008 235.227C463.229 235.796 464.559 236.082 465.902 236.062H465.95Z" fill="#146ABA"/>
<path d="M514.919 235.548C511.489 238.512 507.162 240.143 502.688 240.159C500.667 240.182 498.661 239.803 496.779 239.043C495.047 238.338 493.479 237.263 492.179 235.888C490.871 234.472 489.859 232.793 489.206 230.957C488.479 228.902 488.122 226.727 488.152 224.54C488.114 222.371 488.432 220.212 489.093 218.153C489.696 216.309 490.656 214.612 491.915 213.163C493.188 211.748 494.745 210.638 496.478 209.911C498.433 209.1 500.525 208.701 502.631 208.737C509.123 208.737 513.059 211.629 514.439 217.415L510.412 218.386C509.371 214.71 506.73 212.869 502.49 212.862C501.029 212.832 499.577 213.116 498.228 213.697C497.046 214.219 495.998 215.02 495.171 216.036C494.307 217.099 493.666 218.336 493.289 219.667C492.455 222.812 492.474 226.133 493.345 229.267C493.729 230.596 494.369 231.831 495.227 232.898C496.061 233.877 497.105 234.642 498.275 235.131C499.574 235.662 500.962 235.923 502.359 235.898C505.288 235.912 508.145 234.963 510.516 233.189V228.209H502.208V223.822H514.787L514.919 235.548Z" fill="#146ABA"/>
<path d="M526.664 238.996H523.172V209.898H526.664V238.996Z" fill="#146ABA"/>
<path d="M557.031 238.996H534.917V209.898H556.324V213.998H539.437V221.901H555.206V225.992H539.437V234.896H557.012L557.031 238.996Z" fill="#146ABA"/>
<path d="M583.353 218.341C583.322 217.56 583.14 216.794 582.819 216.087C582.498 215.381 582.044 214.749 581.483 214.228C580.139 213.186 578.482 212.676 576.809 212.79C575.979 212.78 575.15 212.874 574.342 213.071C573.644 213.23 572.978 213.509 572.369 213.898C571.846 214.24 571.403 214.698 571.07 215.24C570.76 215.776 570.602 216.393 570.612 217.019C570.577 217.581 570.7 218.143 570.965 218.635C571.231 219.126 571.628 219.527 572.108 219.789C572.833 220.202 573.602 220.529 574.398 220.762C575.627 221.155 576.875 221.479 578.137 221.734C579.632 222.094 581.016 222.492 582.287 222.92C583.466 223.299 584.579 223.87 585.587 224.612C586.505 225.288 587.252 226.185 587.765 227.227C588.324 228.439 588.596 229.772 588.559 231.116C588.569 232.379 588.297 233.627 587.765 234.762C587.242 235.873 586.489 236.849 585.559 237.62C584.548 238.454 583.397 239.087 582.166 239.487C580.754 239.948 579.28 240.175 577.8 240.157C575.991 240.189 574.188 239.934 572.454 239.399C571.045 238.973 569.733 238.259 568.593 237.299C567.569 236.42 566.756 235.305 566.219 234.042C565.655 232.709 565.337 231.278 565.284 229.823L569.528 229.502C569.569 230.521 569.827 231.517 570.285 232.419C570.717 233.235 571.313 233.944 572.033 234.499C572.778 235.066 573.618 235.485 574.51 235.734C575.482 236.008 576.485 236.142 577.492 236.132C578.421 236.146 579.349 236.032 580.249 235.792C581.008 235.598 581.729 235.27 582.381 234.82C582.938 234.416 583.401 233.888 583.736 233.274C584.057 232.66 584.222 231.97 584.213 231.271C584.222 230.65 584.114 230.032 583.895 229.453C583.609 228.864 583.168 228.372 582.624 228.034C581.8 227.509 580.909 227.107 579.978 226.838C578.847 226.469 577.361 226.08 575.538 225.671C574.106 225.357 572.707 224.898 571.36 224.301C570.332 223.844 569.385 223.213 568.556 222.434C567.854 221.774 567.301 220.961 566.939 220.052C566.597 219.121 566.426 218.132 566.434 217.135C566.421 215.972 566.664 214.822 567.144 213.771C567.625 212.734 568.328 211.826 569.201 211.117C570.163 210.333 571.256 209.74 572.426 209.367C573.804 208.931 575.238 208.718 576.679 208.735C578.158 208.723 579.631 208.932 581.053 209.358C582.294 209.722 583.456 210.333 584.474 211.156C585.43 211.942 586.205 212.938 586.746 214.073C587.317 215.286 587.635 216.612 587.68 217.962L583.353 218.341Z" fill="#146ABA"/>
<path d="M613.736 209.901H624.202C625.803 209.872 627.4 210.074 628.95 210.499C630.146 210.823 631.26 211.426 632.209 212.264C633.059 213.041 633.707 214.038 634.088 215.158C634.873 217.663 634.873 220.37 634.088 222.875C633.71 224.036 633.089 225.091 632.273 225.961C631.376 226.898 630.298 227.616 629.114 228.064C627.636 228.616 626.077 228.878 624.511 228.836H618.029V240.16H613.727L613.736 209.901ZM618.039 224.563H623.876C625.555 224.686 627.229 224.255 628.669 223.328C629.229 222.836 629.667 222.207 629.945 221.494C630.224 220.781 630.334 220.007 630.266 219.238C630.298 218.38 630.143 217.525 629.813 216.74C629.531 216.105 629.088 215.567 628.533 215.187C627.911 214.773 627.216 214.5 626.49 214.386C625.591 214.223 624.679 214.145 623.767 214.155H618.029L618.039 224.563Z" fill="#146ABA"/>
<path d="M669.462 209.995L658.294 240.16H653.566L642.692 209.995H647.543L654.947 231.89L655.287 232.852C655.382 233.15 655.467 233.448 655.552 233.737C655.637 234.025 655.703 234.323 655.77 234.612C655.836 234.9 655.902 235.227 655.987 235.573C656.11 234.948 656.261 234.342 656.422 233.737C656.583 233.131 656.781 232.506 657.018 231.813L664.838 209.898L669.462 209.995Z" fill="#146ABA"/>
<path d="M700.754 214.147H691.296V240.16H686.829V214.147H677.476V209.898H700.754V214.147Z" fill="#146ABA"/>
<path d="M708.768 240.163V234.344H713.424V240.163H708.768Z" fill="#146ABA"/>
<path d="M756.047 240.16H738.588V209.898H742.905V235.945H756.047V240.16Z" fill="#146ABA"/>
<path d="M787.339 214.147H777.887V240.16H773.418V214.147H764.061V209.898H787.339V214.147Z" fill="#146ABA"/>
<path d="M795.354 209.898H805.787C810.466 209.898 813.969 211.13 816.296 213.593C818.623 216.056 819.789 219.809 819.796 224.851C819.796 229.906 818.664 233.723 816.4 236.301C814.136 238.88 810.744 240.167 806.223 240.16H795.354V209.898ZM799.859 235.945H805.758C807.238 235.98 808.712 235.748 810.112 235.26C811.255 234.853 812.272 234.148 813.062 233.215C813.868 232.19 814.435 230.993 814.721 229.713C815.087 228.077 815.259 226.403 815.234 224.725C815.269 223.052 815.068 221.382 814.636 219.767C814.295 218.545 813.67 217.423 812.815 216.497C811.978 215.65 810.944 215.032 809.808 214.703C808.441 214.313 807.026 214.128 805.607 214.153H799.916L799.859 235.945Z" fill="#146ABA"/>
<path d="M827.81 240.163V234.344H832.465V240.163H827.81Z" fill="#146ABA"/>
<defs>
<linearGradient id="paint0_linear_1663_5528" x1="218.234" y1="137.788" x2="34.501" y2="214.754" gradientUnits="userSpaceOnUse">
<stop offset="0.13" stop-color="#008AD1"/>
<stop offset="0.27" stop-color="#0481CA"/>
<stop offset="0.5" stop-color="#0F6AB8"/>
<stop offset="0.79" stop-color="#20459B"/>
<stop offset="1" stop-color="#2F2482"/>
</linearGradient>
<linearGradient id="paint1_linear_1663_5528" x1="-52.5725" y1="101.582" x2="261.3" y2="-6.59798" gradientUnits="userSpaceOnUse">
<stop offset="0.06" stop-color="#009DE2"/>
<stop offset="0.23" stop-color="#0B81CC"/>
<stop offset="0.5" stop-color="#185EB0"/>
<stop offset="0.72" stop-color="#21489E"/>
<stop offset="0.86" stop-color="#244098"/>
</linearGradient>
<linearGradient id="paint2_linear_1663_5528" x1="6.76217" y1="109.505" x2="131.011" y2="175.061" gradientUnits="userSpaceOnUse">
<stop stop-color="#E2000F"/>
<stop offset="0.13" stop-color="#E5120E"/>
<stop offset="0.38" stop-color="#EC430A"/>
<stop offset="0.74" stop-color="#F68F04"/>
<stop offset="1" stop-color="#FFCB00"/>
</linearGradient>
</defs>
</svg>
