<svg width="642" height="240" viewBox="0 0 642 240" fill="none" xmlns="http://www.w3.org/2000/svg">
<path d="M639 240V237H642V240H639Z" fill="#146ABA"/>
<path fill-rule="evenodd" clip-rule="evenodd" d="M229.92 89.0584C229.92 126.118 187.43 127.668 187.43 127.668C185.45 127.793 183.53 128.398 181.837 129.431C180.143 130.464 178.727 131.895 177.71 133.598C176.545 135.507 175.932 137.702 175.94 139.938V185.028C175.941 196.152 172.541 207.011 166.196 216.148C159.851 225.285 150.864 232.264 140.44 236.148C130.15 232.315 121.256 225.465 114.924 216.494C108.592 207.522 105.115 196.848 104.95 185.868C105.173 190.229 107.116 194.322 110.354 197.251C113.592 200.179 117.86 201.703 122.22 201.488C131.11 201.048 137.87 193.258 137.87 184.368V135.778C137.824 131.814 138.213 127.857 139.03 123.978C140.651 116.077 144.519 108.813 150.17 103.058C172.72 80.2984 218.88 87.0484 229.92 89.0584Z" fill="url(#paint0_linear_1644_1492)"/>
<path fill-rule="evenodd" clip-rule="evenodd" d="M235.91 18.5312V31.2113H227.15V43.9113H218.35V56.6013H54.55C54.26 56.6013 53.9801 56.6013 53.7101 56.6013C42.316 56.7929 31.3234 60.8418 22.5273 68.0868C13.7312 75.3319 7.65122 85.345 5.28005 96.4913C1.79325 89.1804 -0.010958 81.181 5.00712e-05 73.0812C5.00712e-05 38.3512 30.17 18.5312 54.55 18.5312H235.91Z" fill="url(#paint1_linear_1644_1492)"/>
<path fill-rule="evenodd" clip-rule="evenodd" d="M140.44 236.147C134.334 238.428 127.868 239.589 121.35 239.577C92.4802 239.577 66.9502 217.207 66.9502 188.737C66.9502 187.737 66.8202 139.647 66.8002 139.527C66.7039 136.334 65.366 133.304 63.071 131.082C60.776 128.86 57.7048 127.621 54.5102 127.627C46.9117 127.636 39.3955 126.053 32.4459 122.98C25.4963 119.908 19.2674 115.413 14.1602 109.787C10.5441 105.835 7.53764 101.366 5.24023 96.5272C7.609 85.3706 13.6932 75.348 22.4978 68.0983C31.3025 60.8486 42.3065 56.8009 53.7102 56.6172C49.4151 56.8289 45.373 58.7122 42.448 61.8646C39.5229 65.0169 37.9468 69.1883 38.0565 73.4873C38.1662 77.7863 39.953 81.8719 43.035 84.871C46.117 87.8701 50.2498 89.5448 54.5502 89.5372C65.0265 89.5324 75.2435 92.7956 83.7775 98.8721C92.3114 104.949 98.7375 113.536 102.16 123.437C103.265 126.591 104.036 129.852 104.46 133.167C104.785 135.402 104.942 137.659 104.93 139.917V185.027C104.93 185.307 104.93 185.577 104.93 185.867C105.097 196.849 108.576 207.525 114.912 216.497C121.248 225.468 130.146 232.317 140.44 236.147Z" fill="url(#paint2_linear_1644_1492)"/>
<path d="M252.1 17.4219H242.12V27.4019H252.1V17.4219Z" fill="#E2000F"/>
<path d="M245.7 33.9766H235.72V43.9566H245.7V33.9766Z" fill="#E2000F"/>
<path d="M237.32 49.25H227.34V59.23H237.32V49.25Z" fill="#E2000F"/>
<path d="M258.84 46.6016H250.25V55.1916H258.84V46.6016Z" fill="#E2000F"/>
<path d="M265.68 29.8125H257.09V38.4025H265.68V29.8125Z" fill="#E2000F"/>
<path d="M269.97 11.8203H261.38V20.4103H269.97V11.8203Z" fill="#E2000F"/>
<path d="M283.04 26.0234H276.42V33.0634H283.04V26.0234Z" fill="#E2000F"/>
<path d="M288.46 5.96094H281.84V13.0009H288.46V5.96094Z" fill="#E2000F"/>
<path d="M294.74 18.9375H288.12V25.9775H294.74V18.9375Z" fill="#E2000F"/>
<path d="M305 0H298.38V7.04H305V0Z" fill="#E2000F"/>
<path d="M275.02 41.2578H268.4V48.2978H275.02V41.2578Z" fill="#E2000F"/>
<path d="M244 224.532H238.315V240H235.628V224.532H230V222H244V224.532Z" fill="#146ABA"/>
<path d="M264 240H251V222H263.584V224.536H253.669V229.425H262.938V231.955H253.669V237.464H264V240Z" fill="#146ABA"/>
<path d="M286 234.09C285.761 234.942 285.406 235.763 284.943 236.53C284.519 237.232 283.971 237.861 283.323 238.392C282.675 238.914 281.928 239.318 281.12 239.581C280.227 239.869 279.287 240.01 278.342 239.998C277.105 240.023 275.876 239.799 274.739 239.342C273.726 238.927 272.831 238.295 272.127 237.497C271.397 236.644 270.856 235.663 270.536 234.612C270.165 233.391 269.985 232.125 270.002 230.855C269.979 229.575 270.196 228.302 270.643 227.092C271.024 226.06 271.631 225.114 272.424 224.313C273.177 223.561 274.1 222.974 275.125 222.596C276.217 222.192 277.382 221.99 278.556 222.001C279.466 221.988 280.372 222.114 281.239 222.373C281.982 222.596 282.673 222.949 283.275 223.413C283.857 223.869 284.349 224.416 284.73 225.03C285.139 225.689 285.46 226.393 285.685 227.125L282.931 227.631C282.211 225.452 280.721 224.363 278.461 224.363C277.645 224.352 276.835 224.503 276.086 224.808C275.406 225.098 274.811 225.538 274.353 226.092C273.862 226.7 273.505 227.393 273.302 228.131C273.053 229.018 272.933 229.933 272.946 230.849C272.927 231.882 273.056 232.912 273.332 233.912C273.54 234.676 273.912 235.393 274.424 236.019C274.87 236.553 275.452 236.975 276.116 237.247C276.809 237.519 277.555 237.656 278.307 237.647C279.486 237.694 280.639 237.312 281.524 236.58C282.408 235.761 283.006 234.711 283.24 233.567L286 234.09Z" fill="#146ABA"/>
<path d="M306 240H303.319V231.737H294.715V240H292V222H294.715V229.201H303.319V222H306V240Z" fill="#146ABA"/>
<path d="M326 240H323.419L315.447 226.418H315.394V240H313V222H315.554L323.526 235.582H323.579V222H326V240Z" fill="#146ABA"/>
<path d="M342.017 222C343.131 221.988 344.235 222.212 345.258 222.657C346.22 223.076 347.08 223.705 347.777 224.497C348.505 225.324 349.063 226.29 349.42 227.338C350.193 229.726 350.193 232.302 349.42 234.689C349.062 235.735 348.503 236.699 347.777 237.525C347.076 238.314 346.215 238.938 345.253 239.354C344.226 239.793 343.12 240.012 342.006 239.999C340.861 240.016 339.726 239.783 338.677 239.315C337.713 238.88 336.85 238.241 336.147 237.441C335.442 236.629 334.899 235.685 334.549 234.661C334.174 233.562 333.989 232.405 334.001 231.242C333.983 229.92 334.181 228.605 334.587 227.349C334.937 226.282 335.496 225.296 336.23 224.453C336.937 223.67 337.801 223.052 338.765 222.64C339.796 222.208 340.902 221.991 342.017 222ZM342.017 237.653C342.771 237.662 343.519 237.505 344.207 237.191C344.846 236.887 345.408 236.438 345.85 235.879C346.329 235.261 346.687 234.555 346.901 233.799C347.16 232.896 347.293 231.96 347.295 231.019C347.309 230.069 347.18 229.122 346.912 228.211C346.684 227.447 346.312 226.735 345.817 226.115C345.374 225.56 344.812 225.116 344.174 224.814C343.503 224.503 342.771 224.348 342.033 224.358C341.283 224.346 340.538 224.488 339.843 224.775C339.186 225.052 338.604 225.485 338.146 226.037C337.642 226.673 337.27 227.404 337.051 228.189C336.768 229.188 336.633 230.224 336.651 231.264C336.642 232.137 336.768 233.005 337.024 233.838C337.248 234.574 337.609 235.259 338.086 235.857C338.539 236.419 339.112 236.869 339.761 237.174C340.453 237.497 341.207 237.66 341.968 237.653H342.017Z" fill="#146ABA"/>
<path d="M367 240H357V222H359.469V237.493H367V240Z" fill="#146ABA"/>
<path d="M382.012 222C383.126 221.988 384.231 222.212 385.255 222.657C386.217 223.078 387.076 223.706 387.776 224.497C388.504 225.324 389.062 226.29 389.419 227.338C390.194 229.726 390.194 232.302 389.419 234.689C389.061 235.735 388.502 236.699 387.776 237.525C387.074 238.314 386.213 238.938 385.25 239.354C384.222 239.793 383.116 240.012 382.001 239.999C380.855 240.016 379.719 239.783 378.669 239.315C377.708 238.879 376.849 238.24 376.149 237.441C375.443 236.629 374.899 235.685 374.549 234.661C374.174 233.562 373.989 232.405 374.001 231.242C373.983 229.92 374.181 228.605 374.587 227.349C374.938 226.282 375.497 225.296 376.231 224.453C376.938 223.669 377.803 223.051 378.768 222.64C379.796 222.21 380.899 221.992 382.012 222ZM382.012 237.653C382.766 237.662 383.514 237.505 384.203 237.191C384.843 236.887 385.405 236.438 385.847 235.879C386.327 235.261 386.684 234.555 386.899 233.799C387.158 232.896 387.291 231.96 387.293 231.019C387.307 230.069 387.178 229.122 386.91 228.211C386.681 227.447 386.309 226.735 385.814 226.115C385.37 225.56 384.808 225.116 384.17 224.814C383.498 224.503 382.767 224.348 382.028 224.358C381.277 224.346 380.532 224.488 379.836 224.775C379.179 225.052 378.596 225.485 378.138 226.037C377.634 226.673 377.261 227.404 377.042 228.189C376.758 229.188 376.624 230.224 376.642 231.264C376.633 232.137 376.758 233.005 377.015 233.838C377.239 234.574 377.6 235.259 378.078 235.857C378.531 236.419 379.104 236.869 379.754 237.174C380.453 237.501 381.215 237.664 381.984 237.653H382.012Z" fill="#146ABA"/>
<path d="M413 237.358C410.95 239.056 408.364 239.99 405.69 239.999C404.482 240.013 403.283 239.795 402.158 239.36C401.123 238.957 400.186 238.341 399.409 237.553C398.627 236.742 398.022 235.78 397.632 234.728C397.197 233.551 396.984 232.306 397.002 231.053C396.979 229.811 397.169 228.574 397.564 227.395C397.925 226.339 398.499 225.366 399.251 224.537C400.012 223.726 400.943 223.09 401.978 222.674C403.147 222.21 404.397 221.981 405.656 222.001C409.536 222.001 411.888 223.658 412.713 226.972L410.306 227.528C409.684 225.423 408.106 224.368 405.572 224.364C404.698 224.347 403.831 224.51 403.024 224.842C402.317 225.141 401.691 225.6 401.197 226.182C400.68 226.791 400.297 227.499 400.072 228.262C399.574 230.063 399.585 231.966 400.106 233.761C400.335 234.522 400.718 235.229 401.23 235.84C401.729 236.401 402.353 236.839 403.052 237.119C403.829 237.424 404.658 237.573 405.493 237.559C407.243 237.567 408.951 237.023 410.368 236.007V233.155H405.403V230.642H412.921L413 237.358Z" fill="#146ABA"/>
<path d="M422 240H420V222H422V240Z" fill="#146ABA"/>
<path d="M442 240H430V222H441.616V224.536H432.453V229.425H441.01V231.955H432.453V237.464H441.99L442 240Z" fill="#146ABA"/>
<path d="M459.867 227.502C459.848 227.055 459.739 226.616 459.546 226.212C459.353 225.807 459.08 225.445 458.742 225.147C457.934 224.55 456.938 224.258 455.932 224.323C455.432 224.317 454.934 224.371 454.447 224.484C454.028 224.575 453.627 224.735 453.261 224.958C452.947 225.153 452.68 225.416 452.48 225.726C452.294 226.033 452.198 226.387 452.204 226.745C452.183 227.067 452.257 227.389 452.417 227.671C452.576 227.952 452.815 228.182 453.104 228.332C453.54 228.569 454.002 228.755 454.481 228.889C455.22 229.114 455.971 229.3 456.73 229.446C457.629 229.652 458.461 229.88 459.226 230.125C459.935 230.343 460.605 230.67 461.21 231.094C461.763 231.481 462.212 231.995 462.52 232.592C462.856 233.286 463.02 234.05 462.998 234.82C463.004 235.543 462.84 236.258 462.52 236.908C462.206 237.544 461.753 238.104 461.193 238.545C460.585 239.023 459.894 239.385 459.153 239.614C458.304 239.879 457.418 240.008 456.527 239.998C455.44 240.017 454.355 239.87 453.312 239.564C452.465 239.32 451.676 238.911 450.99 238.361C450.374 237.858 449.885 237.219 449.562 236.496C449.223 235.732 449.032 234.912 449 234.079L451.552 233.895C451.577 234.479 451.732 235.049 452.008 235.566C452.267 236.033 452.626 236.44 453.059 236.758C453.507 237.082 454.012 237.322 454.549 237.465C455.133 237.622 455.736 237.699 456.342 237.693C456.901 237.701 457.459 237.635 458 237.498C458.457 237.387 458.89 237.199 459.282 236.941C459.617 236.71 459.896 236.408 460.097 236.056C460.291 235.704 460.389 235.309 460.384 234.909C460.39 234.553 460.325 234.199 460.193 233.867C460.021 233.53 459.756 233.248 459.428 233.054C458.933 232.754 458.397 232.523 457.837 232.369C457.157 232.158 456.263 231.935 455.167 231.701C454.306 231.521 453.464 231.258 452.654 230.916C452.036 230.655 451.466 230.293 450.968 229.847C450.545 229.469 450.213 229.003 449.995 228.483C449.79 227.949 449.687 227.383 449.691 226.812C449.683 226.146 449.83 225.487 450.119 224.885C450.408 224.291 450.831 223.771 451.355 223.365C451.934 222.916 452.592 222.576 453.295 222.363C454.124 222.112 454.987 221.99 455.853 222.001C456.743 221.993 457.629 222.113 458.484 222.357C459.23 222.566 459.929 222.915 460.541 223.387C461.116 223.837 461.582 224.408 461.907 225.058C462.251 225.753 462.442 226.512 462.47 227.285L459.867 227.502Z" fill="#146ABA"/>
<path d="M489.006 222.002H495.5C496.494 221.985 497.485 222.104 498.446 222.357C499.189 222.55 499.88 222.909 500.469 223.407C500.996 223.869 501.398 224.462 501.635 225.129C502.122 226.618 502.122 228.229 501.635 229.718C501.4 230.409 501.015 231.037 500.508 231.554C499.952 232.112 499.283 232.538 498.548 232.805C497.631 233.134 496.663 233.289 495.692 233.264H491.67V240H489L489.006 222.002ZM491.676 230.723H495.298C496.34 230.796 497.378 230.539 498.272 229.988C498.619 229.696 498.891 229.321 499.064 228.897C499.237 228.473 499.305 228.013 499.263 227.555C499.283 227.045 499.187 226.536 498.982 226.069C498.807 225.692 498.532 225.372 498.187 225.146C497.802 224.899 497.37 224.737 496.92 224.67C496.362 224.572 495.796 224.526 495.23 224.532H491.67L491.676 230.723Z" fill="#146ABA"/>
<path d="M525 222.057L518.325 240H515.499L509 222.057H511.899L516.325 235.081L516.528 235.653C516.585 235.83 516.635 236.008 516.686 236.179C516.737 236.351 516.777 236.528 516.816 236.7C516.856 236.871 516.895 237.066 516.946 237.272C517.02 236.9 517.11 236.54 517.206 236.179C517.302 235.819 517.421 235.447 517.562 235.035L522.236 222L525 222.057Z" fill="#146ABA"/>
<path d="M545 224.527H539.718V240H537.223V224.527H532V222H545V224.527Z" fill="#146ABA"/>
<path d="M552 240V237H555V240H552Z" fill="#146ABA"/>
<path d="M592 240H581V222H583.72V237.493H592V240Z" fill="#146ABA"/>
<path d="M612 224.527H606.315V240H603.627V224.527H598V222H612V224.527Z" fill="#146ABA"/>
<path d="M619 222H624.976C627.656 222 629.663 222.733 630.995 224.198C632.328 225.663 632.996 227.895 633 230.894C633 233.901 632.352 236.171 631.055 237.705C629.759 239.239 627.815 240.004 625.226 240H619V222ZM621.581 237.492H624.96C625.807 237.514 626.651 237.376 627.453 237.085C628.108 236.843 628.69 236.424 629.143 235.869C629.605 235.259 629.93 234.547 630.094 233.786C630.303 232.813 630.401 231.817 630.387 230.819C630.407 229.824 630.292 228.831 630.045 227.87C629.849 227.143 629.491 226.476 629.002 225.925C628.522 225.421 627.93 225.054 627.279 224.858C626.496 224.626 625.686 224.516 624.873 224.53H621.613L621.581 237.492Z" fill="#146ABA"/>
<path d="M254.36 178.553V206H245.657V178.553H230V171H270V178.553H254.36Z" fill="#E2000F"/>
<path d="M313.884 189.598C314.554 188.682 315.076 187.661 315.431 186.574C315.834 185.264 316.023 183.895 315.99 182.521C316.072 180.527 315.648 178.546 314.761 176.772C314.036 175.393 313.018 174.2 311.783 173.282C310.668 172.455 309.414 171.849 308.084 171.494C307.004 171.196 305.894 171.03 304.776 171H274V178.548H303.519C303.879 178.561 304.236 178.613 304.586 178.704C305.047 178.811 305.485 179.006 305.877 179.279C306.32 179.587 306.689 179.996 306.955 180.474C307.271 181.098 307.424 181.795 307.396 182.498C307.425 183.193 307.254 183.881 306.905 184.476C306.604 184.962 306.21 185.38 305.748 185.706C305.354 185.985 304.918 186.195 304.457 186.327C304.153 186.424 303.837 186.481 303.519 186.499H274V206H282.616V194.071H300.591L306.067 206H315.275L309.307 193.076C310.16 192.72 310.972 192.267 311.727 191.725C312.55 191.137 313.278 190.419 313.884 189.598Z" fill="#E2000F"/>
<path d="M319 206V171H361.683V178.553H327.91V184.881H357.609V191.687H327.91V198.493H363V206H319Z" fill="#E2000F"/>
<path d="M399.381 206L374.613 181.533V206H366V171H374.613L399.381 195.467V171H408V206H399.381Z" fill="#E2000F"/>
<path d="M456.527 181.708C455.968 180.484 455.251 179.341 454.396 178.309C453.749 177.515 453.03 176.785 452.248 176.129C450.208 174.453 447.876 173.183 445.372 172.385C442.353 171.415 439.198 170.949 436.032 171.004H412V178.309H435.839C437.788 178.271 439.731 178.543 441.598 179.114C443.073 179.561 444.448 180.298 445.644 181.282C446.687 182.158 447.507 183.274 448.036 184.537C448.551 185.799 448.813 187.152 448.807 188.517C448.813 189.877 448.551 191.225 448.036 192.48C447.509 193.746 446.688 194.865 445.644 195.741C444.455 196.731 443.089 197.479 441.62 197.944C439.753 198.511 437.81 198.778 435.862 198.738H420.763V186.51H412.023V205.996H436.054C439.22 206.049 442.374 205.587 445.395 204.627C447.897 203.82 450.229 202.546 452.27 200.871C454.964 198.601 456.842 195.491 457.612 192.024C458.382 188.558 458 184.931 456.527 181.708Z" fill="#E2000F"/>
<path d="M503.999 194.842C503.998 196.515 503.521 198.154 502.623 199.572C501.555 201.188 500.102 202.52 498.391 203.453C496.167 204.681 493.761 205.558 491.263 206.053C487.939 206.725 484.552 207.041 481.16 206.996C479.092 206.992 477.028 206.831 474.985 206.513C472.982 206.216 470.996 205.815 469.036 205.31C466.852 204.758 464.737 203.966 462.732 202.948L465.735 196.201C467.472 197.074 469.292 197.776 471.169 198.297C472.794 198.76 474.445 199.13 476.114 199.405C477.775 199.654 479.451 199.799 481.131 199.838C486.048 199.838 489.712 199.404 492.122 198.535C494.531 197.666 495.736 196.526 495.736 195.114C495.759 194.713 495.665 194.314 495.466 193.963C495.267 193.613 494.972 193.326 494.614 193.135C493.519 192.641 492.326 192.395 491.123 192.414C490.758 192.381 490.079 192.342 489.079 192.292L485.414 192.126C483.972 192.059 482.366 191.998 480.593 191.932C478.819 191.865 476.984 191.788 475.086 191.693C473.318 191.616 471.563 191.355 469.849 190.917C468.376 190.553 466.977 189.941 465.713 189.11C464.591 188.365 463.657 187.374 462.985 186.215C462.306 184.982 461.967 183.594 462.003 182.19C462.017 180.607 462.562 179.073 463.552 177.827C464.743 176.332 466.253 175.115 467.975 174.262C470.181 173.15 472.533 172.345 474.963 171.872C477.981 171.266 481.055 170.975 484.134 171.002C486.176 171.007 488.215 171.153 490.236 171.44C492.006 171.695 493.981 172.064 496.163 172.549C498.353 173.034 500.487 173.744 502.528 174.667L499.924 181.32C498.908 180.898 497.757 180.499 496.483 180.111C495.209 179.723 493.867 179.39 492.47 179.102C491.072 178.814 489.663 178.586 488.243 178.426C486.879 178.268 485.508 178.186 484.134 178.182C482.303 178.175 480.473 178.264 478.651 178.448C477.163 178.588 475.691 178.855 474.25 179.246C473.204 179.509 472.213 179.95 471.32 180.549C471.015 180.732 470.759 180.986 470.575 181.288C470.392 181.59 470.285 181.932 470.265 182.284C470.249 182.667 470.342 183.045 470.534 183.378C470.725 183.71 471.007 183.982 471.348 184.164C472.341 184.648 473.435 184.895 474.542 184.885L481.182 185.173C484.037 185.306 487.416 185.452 491.319 185.611C493.105 185.678 494.877 185.936 496.606 186.382C498.029 186.737 499.377 187.339 500.586 188.162C501.65 188.898 502.52 189.875 503.123 191.011C503.723 192.2 504.023 193.514 503.999 194.842Z" fill="#E2000F"/>
<path d="M553 189.011C553.012 191.409 552.476 193.778 551.433 195.94C550.356 198.152 548.807 200.105 546.894 201.664C544.745 203.389 542.294 204.706 539.664 205.551C533.37 207.483 526.635 207.483 520.341 205.551C517.711 204.706 515.26 203.389 513.111 201.664C511.198 200.105 509.649 198.152 508.572 195.94C507.537 193.771 507 191.4 507 189C507 186.6 507.537 184.229 508.572 182.06C509.649 179.848 511.198 177.895 513.111 176.336C515.26 174.611 517.711 173.294 520.341 172.449C526.635 170.517 533.37 170.517 539.664 172.449C542.294 173.294 544.745 174.611 546.894 176.336C548.807 177.895 550.356 179.848 551.433 182.06C552.48 184.229 553.015 186.606 553 189.011ZM543.928 189.011C543.935 187.592 543.643 186.187 543.072 184.886C542.482 183.553 541.592 182.372 540.47 181.432C539.189 180.366 537.707 179.562 536.111 179.067C532.125 177.905 527.886 177.905 523.9 179.067C522.301 179.561 520.818 180.365 519.535 181.432C518.414 182.372 517.523 183.553 516.933 184.886C516.368 186.19 516.077 187.594 516.077 189.014C516.077 190.433 516.368 191.838 516.933 193.142C517.525 194.472 518.415 195.652 519.535 196.59C520.818 197.657 522.301 198.461 523.9 198.955C527.886 200.117 532.125 200.117 536.111 198.955C537.707 198.46 539.189 197.656 540.47 196.59C541.59 195.652 542.48 194.472 543.072 193.142C543.643 191.839 543.934 190.432 543.928 189.011Z" fill="#E2000F"/>
<path d="M565.646 178.553V186.51H594.122V194.063H565.646V206H557V171H598V178.553H565.646Z" fill="#E2000F"/>
<path d="M626.346 178.553V206H617.654V178.553H602V171H642V178.553H626.346Z" fill="#E2000F"/>
<defs>
<linearGradient id="paint0_linear_1644_1492" x1="217.85" y1="137.378" x2="34.4402" y2="214.208" gradientUnits="userSpaceOnUse">
<stop offset="0.13" stop-color="#008AD1"/>
<stop offset="0.27" stop-color="#0481CA"/>
<stop offset="0.5" stop-color="#0F6AB8"/>
<stop offset="0.79" stop-color="#20459B"/>
<stop offset="1" stop-color="#2F2482"/>
</linearGradient>
<linearGradient id="paint1_linear_1644_1492" x1="-52.4799" y1="101.241" x2="260.84" y2="-6.74873" gradientUnits="userSpaceOnUse">
<stop offset="0.06" stop-color="#009DE2"/>
<stop offset="0.23" stop-color="#0B81CC"/>
<stop offset="0.5" stop-color="#185EB0"/>
<stop offset="0.72" stop-color="#21489E"/>
<stop offset="0.86" stop-color="#244098"/>
</linearGradient>
<linearGradient id="paint2_linear_1644_1492" x1="6.75023" y1="109.147" x2="130.78" y2="174.587" gradientUnits="userSpaceOnUse">
<stop stop-color="#E2000F"/>
<stop offset="0.13" stop-color="#E5120E"/>
<stop offset="0.38" stop-color="#EC430A"/>
<stop offset="0.74" stop-color="#F68F04"/>
<stop offset="1" stop-color="#FFCB00"/>
</linearGradient>
</defs>
</svg>
