<svg width="581" height="383" viewBox="0 0 581 383" fill="none" xmlns="http://www.w3.org/2000/svg">
<g clip-path="url(#clip0_342_126)">
<g opacity="0.2">
<path d="M216.213 85.6605C275.446 133.698 336.707 183.354 459.849 167.229C492.955 162.884 523.156 161.961 549.959 164.412C509.225 123.783 467.459 149.869 386.183 80.1726C301.563 7.64099 221.694 -31.1493 114.511 31.1566L112.245 32.492C132.343 33.4066 156.039 39.8092 180.312 57.5259C192.462 66.4346 204.547 76.203 216.213 85.6605Z" fill="#529ADB"/>
<path d="M393.765 307.552C367.145 290.923 339.739 279.115 314.517 273.408C287.294 267.261 263.36 268.524 245.217 277.066C176.137 309.628 62.5127 303.317 2.43945 258.773C5.5637 299.558 18.7732 341.668 44.8543 382.05H475.753C454.834 353.138 424.158 326.54 393.765 307.552Z" fill="#529ADB"/>
<path d="M460.635 377.243H113.898C113.256 377.243 112.641 377.498 112.187 377.953C111.733 378.407 111.478 379.024 111.478 379.666C111.476 379.986 111.538 380.302 111.659 380.597C111.78 380.892 111.958 381.16 112.183 381.386C112.408 381.612 112.676 381.792 112.97 381.914C113.264 382.036 113.58 382.099 113.898 382.099H460.68C461.323 382.099 461.938 381.844 462.392 381.389C462.846 380.935 463.101 380.318 463.101 379.676C463.103 379.353 463.039 379.033 462.915 378.735C462.791 378.436 462.609 378.166 462.379 377.939C462.15 377.713 461.877 377.534 461.577 377.415C461.278 377.295 460.957 377.237 460.635 377.243Z" fill="#529ADB"/>
<path d="M441.533 239.171C382.154 183.25 308.332 197.097 236.904 210.488C195.576 218.244 156.514 225.571 121.481 219.433C94.2668 214.668 73.1736 203.317 56.986 184.731C43.0548 168.725 35.0615 150.149 28.0913 133.758L26.4561 129.953C7.70293 169.354 -0.626666 212.918 2.26602 256.467C61.3435 301.477 175.351 307.99 244.45 275.428C262.94 266.711 287.303 265.367 314.919 271.641C340.333 277.395 367.903 289.276 394.724 306.014C424.56 324.645 451.682 348.39 471.076 372.866C473.512 375.914 475.824 378.988 478.01 382.085H509.453C509.453 382.085 538.997 351.17 559.898 309.709C551.901 307.647 544.044 305.075 536.375 302.008C504.584 289.386 471.789 267.653 441.533 239.171Z" fill="#529ADB"/>
<path d="M561.076 177.278C558.236 173.497 555.186 169.878 551.941 166.439C524.709 163.695 493.951 164.61 460.096 169.018C444.911 171.053 429.611 172.098 414.292 172.146C320.016 172.146 266.794 128.984 215.089 87.0841C203.442 77.6358 191.392 67.8765 179.261 59.0044C154.248 40.7114 129.857 34.7113 109.468 34.2266C75.6673 55.2635 46.8548 88.1908 27.543 127.813L29.8085 133.064C43.9225 166.055 61.4986 207.15 121.846 217.669C156.56 223.751 195.476 216.452 236.639 208.742C308.46 195.26 382.729 181.302 442.784 237.873C481.061 273.91 523.156 298.45 560.748 308.008C580.635 267.901 592.054 218.272 561.076 177.278Z" fill="#529ADB"/>
<path d="M395.199 60.6233C402.836 47.4798 343.466 19.0891 335.226 26.1502C326.986 33.2113 386.475 75.6876 395.199 60.6233Z" fill="#529ADB"/>
<path d="M322.903 19.1487C319.797 22.5147 327.032 27.0788 329.992 24.7007C332.952 22.3226 325.753 16.0664 322.903 19.1487Z" fill="#529ADB"/>
<path d="M49.0384 62.7723C61.2065 70.7938 34.3307 101.023 23.7247 99.715C13.1187 98.407 36.8246 54.7508 49.0384 62.7723Z" fill="#529ADB"/>
<path d="M52.0899 58.2564C55.7988 64.293 67.5192 54.6526 62.5679 50.0245C57.6166 45.3964 49.3858 53.8477 52.0899 58.2564Z" fill="#529ADB"/>
</g>
<path d="M253.283 380.168H287.595C287.595 380.168 286.745 375.595 283.877 372.686C281.009 369.777 269.599 367.344 267.854 365.762L267.954 363.302V362.286L268.155 357.43L254.306 359.643L253.767 364.482V364.82L253.283 369.091C253.283 369.091 251.84 375.558 253.283 380.168Z" fill="#E4B48E"/>
<path d="M253.767 364.82C258.627 366.384 264.674 364.573 267.954 363.302V362.286L268.155 357.43L254.306 359.643L253.767 364.482V364.82Z" fill="#B0754E"/>
<path d="M287.594 380.171H253.282C251.876 375.598 253.282 369.086 253.282 369.086C253.282 369.086 263.861 371.061 267.853 365.766C269.589 367.348 281.008 369.817 283.876 372.689C286.745 375.561 287.594 380.171 287.594 380.171Z" fill="#225787"/>
<path d="M295.826 382.094H330.138C330.138 382.094 329.288 377.521 326.41 374.612C323.533 371.703 312.132 369.289 310.396 367.67L310.506 364.926V364.185L310.698 359.328L296.849 361.542L296.31 366.38V366.654L295.826 370.99C295.826 370.99 294.41 377.466 295.826 382.094Z" fill="#E4B48E"/>
<path d="M296.31 366.67C297.825 367.068 299.384 367.274 300.95 367.283C304.299 367.49 307.631 366.673 310.506 364.941V364.201L310.698 359.344L296.849 361.557L296.31 366.396V366.67Z" fill="#B0754E"/>
<path d="M330.137 382.095H295.825C294.419 377.476 295.825 371 295.825 371C295.825 371 306.404 372.976 310.442 367.68C312.187 369.262 323.597 371.732 326.465 374.604C329.333 377.476 330.137 382.095 330.137 382.095Z" fill="#225787"/>
<path d="M254.114 244.641L256.718 302.263L251.611 360.801C257.828 362.785 264.506 362.785 270.722 360.801L280.278 302.959L284.434 264.059L289.614 304.998L295.15 364.149C295.15 364.149 303.006 367.222 312.671 362.383L310.25 301.257L305.838 244.915L254.114 244.641Z" fill="#225787"/>
<path d="M330.138 194.054L333.024 201.252C333.024 201.252 335.363 200.603 337.848 199.771C340.333 198.938 342.827 197.941 343.439 197.21C344.592 195.653 345.665 194.038 346.654 192.371C347.659 190.853 347.339 188.767 347.823 187.798C348.308 186.828 348.956 184.871 348.207 184.45C347.458 184.029 344.553 187.414 343.311 187.981C342.068 188.548 338.432 189.627 338.432 189.627L339.428 188.438C339.428 188.438 341.082 186.819 341.2 186.087C341.224 185.888 341.176 185.687 341.066 185.52C340.955 185.353 340.79 185.23 340.598 185.173C340.598 185.173 335.308 187.432 334.112 188.831C333.582 189.417 332.76 190.496 331.992 191.52C331.015 192.81 330.138 194.054 330.138 194.054Z" fill="#E4B48E"/>
<path d="M330.138 194.055L333.024 201.253C333.024 201.253 335.363 200.603 337.848 199.771C335.121 197.649 333.083 194.765 331.992 191.484C331.015 192.811 330.138 194.055 330.138 194.055Z" fill="#B0754E"/>
<path d="M297.177 172.836L311.447 200.724L331.051 192.053L334.979 202.324L307.939 214.526L296.182 202.324L297.177 172.836Z" fill="#529ADB"/>
<path d="M252.643 245.15C254.987 246.124 257.399 246.925 259.86 247.546C275.359 251.654 291.723 251.111 306.915 245.982L304.047 224.406L302.732 214.527L297.186 172.828L285.923 166.014L272.485 163.398L260.097 171.63C260.097 171.63 258.663 178.033 257.028 187.682C254.397 203.122 251.245 226.811 252.643 245.15Z" fill="#529ADB"/>
<path d="M252.643 245.15C254.987 246.124 257.399 246.925 259.86 247.546L261.687 231.229H278.651L288.051 230.076L304.047 224.406L302.731 214.527L260.709 210.951L261.943 187.71L257.046 187.664C254.397 203.122 251.245 226.811 252.643 245.15Z" fill="#3D7DB7"/>
<path d="M281.154 125.08C281.154 125.08 284.37 117.059 275.545 116.282C275.545 116.282 271.754 111.48 266.876 114.187C265.505 114.93 264.401 116.086 263.721 117.49C263.041 118.895 262.818 120.478 263.085 122.016C262.008 122.645 261.154 123.595 260.641 124.732C260.129 125.87 259.983 127.14 260.225 128.364C261.075 132.709 266.62 134.565 266.62 134.565L281.154 125.08Z" fill="#282C50"/>
<path d="M275.591 125.542C275.077 125.047 274.439 124.7 273.744 124.539C273.049 124.378 272.323 124.409 271.644 124.628C269.324 125.405 267.004 128.899 268.858 131.14C271.623 130.01 273.973 128.056 275.591 125.542Z" fill="#529ADB"/>
<path d="M293.971 144.68C293.971 144.68 296.712 143.591 297.141 139.192C297.57 134.792 294.583 128.737 289.166 128.115C283.749 127.493 280.734 122.627 275.545 125.554C270.357 128.481 268.813 131.134 268.813 131.134C268.813 131.134 264.09 134.701 264.09 137.957C264.09 141.213 265.561 142.759 264.866 145.622C264.172 148.485 267.872 156.954 273.389 158.802L293.971 144.68Z" fill="#282C50"/>
<path d="M293.806 141.738C293.806 141.738 295.825 159.391 285.913 160.324V168.391C285.913 168.391 280.971 173.312 271.845 166.644L274.586 152.586C274.586 152.586 271.498 152.586 270.877 148.708C270.256 144.83 275.207 142.516 276.915 146.074C276.915 146.074 278.304 143.129 281.09 142.818C283.876 142.507 288.754 142.123 289.522 138.711C289.549 138.711 290.326 140.961 293.806 141.738Z" fill="#E4B48E"/>
<path d="M260.061 171.609C260.061 171.609 248.268 175.268 244.139 220.936C244.139 220.936 255.494 227.696 277.162 227.43V218.494L255.494 213.327C255.494 213.327 260.235 195.765 261.888 187.716C263.542 179.667 260.061 171.609 260.061 171.609Z" fill="#529ADB"/>
<path d="M277.199 218.532V225.511C277.199 225.511 278.789 225.511 280.853 225.511C283.422 225.487 285.984 225.236 288.509 224.761C292.537 223.846 298.512 218.715 297.151 218.559C296.082 218.441 284.681 218.505 279.583 218.559L277.199 218.532Z" fill="#E4B48E"/>
<path d="M277.199 218.531V225.51C277.199 225.51 278.789 225.51 280.853 225.51C280.075 223.263 279.647 220.909 279.583 218.531H277.199Z" fill="#B0754E"/>
<path d="M275.683 218.616L317.504 219.037L324.154 185.25H282.89L275.683 218.616Z" fill="white"/>
<path d="M275.207 218.803L257.905 215.144V212.4L273.974 216.973C274.232 217.047 274.503 217.064 274.768 217.024C275.033 216.985 275.287 216.889 275.512 216.744C275.738 216.598 275.93 216.407 276.076 216.181C276.222 215.956 276.318 215.702 276.358 215.437L280.926 185.391H282.452L277.546 217.156C277.512 217.423 277.422 217.68 277.283 217.911C277.144 218.142 276.959 218.341 276.739 218.496C276.519 218.65 276.269 218.758 276.006 218.811C275.742 218.864 275.47 218.861 275.207 218.803Z" fill="#E2E2E2"/>
<path d="M284.434 264.062L291.66 260.906L285.429 271.974L284.434 264.062Z" fill="#282C50"/>
<path d="M285.913 160.321C283.99 160.372 282.096 159.835 280.485 158.781C278.874 157.727 277.623 156.206 276.897 154.422C276.897 154.422 275.719 163.824 285.913 165.032V160.321Z" fill="#B0754E"/>
<path d="M182.85 122.831C182.85 122.831 188.076 119.493 185.445 114.05C182.814 108.608 176.383 105.562 171.742 107.291C171.742 107.291 169.001 104.163 164.434 106.139C163.071 106.75 161.869 107.673 160.926 108.832C159.982 109.991 159.322 111.356 158.998 112.816C158.998 112.816 153.892 111.169 151.919 115.953C149.945 120.737 152.987 124.935 152.987 124.935C152.987 124.935 148.785 127.002 150.101 132.362C151.416 137.722 153.974 138.627 153.974 138.627C153.974 138.627 153.654 143.987 155.664 145.551C156.898 146.493 158.427 146.963 159.976 146.877L182.85 122.831Z" fill="#282C50"/>
<path d="M187.098 158.719L198.124 197.765C198.124 197.765 198.882 213.717 193.657 238.01L189.29 228.863L187.098 158.719Z" fill="#354859"/>
<path d="M144.19 377.965H178.493C178.493 377.965 177.643 373.391 174.775 370.483C171.906 367.574 160.496 365.141 158.751 363.559L158.852 361.19L158.898 360.083L159.089 355.227L145.24 357.403L144.775 361.593L144.701 362.242L144.19 366.815C144.19 366.815 142.774 373.355 144.19 377.965Z" fill="#E4B48E"/>
<path d="M178.493 377.96H144.181C142.774 373.387 144.181 366.875 144.181 366.875C144.181 366.875 154.76 368.851 158.797 363.555C160.533 365.137 171.952 367.607 174.82 370.479C177.689 373.351 178.493 377.96 178.493 377.96Z" fill="#225787"/>
<path d="M186.733 373.012H221.036C221.036 373.012 220.186 368.438 217.318 365.53C214.449 362.621 203.039 360.188 201.294 358.606L201.386 356.456L201.441 355.13L201.632 350.273L187.783 352.487L187.244 357.325L187.18 357.883L186.733 361.935C186.733 361.935 185.317 368.374 186.733 373.012Z" fill="#E4B48E"/>
<path d="M187.245 357.325L187.181 357.883C192.159 359.877 198.143 357.883 201.386 356.456L201.441 355.13L201.633 350.273L187.784 352.487L187.245 357.325Z" fill="#B0754E"/>
<path d="M144.774 361.629C146.604 362.06 148.477 362.281 150.356 362.288C153.23 362.404 156.102 362.033 158.852 361.19L158.897 360.083L159.089 355.227L145.24 357.403L144.774 361.629Z" fill="#B0754E"/>
<path d="M221.036 373.015H186.724C185.317 368.442 186.724 361.93 186.724 361.93C186.724 361.93 197.302 363.905 201.295 358.609C203.03 360.192 214.449 362.661 217.318 365.533C220.186 368.405 221.036 373.015 221.036 373.015Z" fill="#225787"/>
<path d="M146.336 235.57L147.615 293.238L142.509 358.599C148.725 360.583 155.403 360.583 161.62 358.599L171.175 293.897L175.332 254.988L180.502 295.927L186.047 355.087C186.047 355.087 193.904 358.16 203.569 353.321L201.148 292.195L193.145 234.289L146.336 235.57Z" fill="#225787"/>
<path d="M144.957 235.241C148.455 236.102 151.999 236.765 155.572 237.226C178.766 240.235 194.854 233.705 194.854 233.705L187.153 158.704L173.916 152.658L159.957 152.219L145.341 160.451L145.24 179.036L144.957 235.241Z" fill="#3973A8"/>
<path d="M155.545 237.225L154.97 219.353L178.073 218.374L188.925 217.139L188.806 212.886L153.508 206.2L152.704 177.242C152.704 177.242 149.479 177.992 145.241 179.071L144.948 235.222C148.44 236.088 151.978 236.757 155.545 237.225Z" fill="#354859"/>
<path d="M182.412 120.133C182.412 120.133 188.231 146.74 173.276 148.066L174.044 154.112C174.044 154.112 169.65 158.621 159.884 154.112L160.103 140.914C158.932 140.387 157.993 139.451 157.463 138.279C156.257 136.075 154.175 131.685 157.463 130.798C160.752 129.91 161.748 133.542 161.748 133.542L163.173 133.322C163.173 133.322 162.259 126.92 163.831 126.508C165.402 126.096 167.485 128.209 171.413 126.115C175.341 124.02 174.701 121.285 177.506 120.956C179.154 120.764 180.791 120.489 182.412 120.133Z" fill="#E4B48E"/>
<path d="M145.323 160.508C145.323 160.508 141.084 164.002 138.782 173.569C136.48 183.136 136.188 205.838 136.407 209.131C136.626 212.423 158.048 216.283 177.597 215.725C177.597 215.725 179.826 214.481 178.173 206.899L149.525 200.286C149.525 200.286 153.252 178.956 152.704 173.569C152.156 168.182 148.904 162.291 145.323 160.508Z" fill="#3973A8"/>
<path d="M178.072 215.176C179.41 215.365 180.76 215.45 182.11 215.433C183.92 215.449 185.721 215.162 187.436 214.582C191.391 213.091 192.223 212.204 192.424 211.838C194.644 207.841 194.004 204.146 193.611 203.707C193.218 203.268 189.044 204.932 187.646 205.161C186.33 205.279 185.006 205.279 183.69 205.161L183.325 201.914C182.247 202.371 180.164 204.832 179.031 206.268C178.547 206.881 178.228 207.301 178.228 207.301L178.072 215.176Z" fill="#E4B48E"/>
<path d="M182.11 215.428C179.974 212.875 178.884 209.607 179.059 206.281C178.575 206.894 178.255 207.315 178.255 207.315L178.072 215.217C179.411 215.39 180.761 215.46 182.11 215.428Z" fill="#B0754E"/>
<path d="M175.332 255.001L180.886 249.211L176.584 264.961L175.332 255.001Z" fill="#282C50"/>
<path d="M173.277 148.065C173.277 148.065 167.796 148.605 163.475 142.422C163.475 142.422 163.676 151.148 173.743 151.733L173.277 148.065Z" fill="#B0754E"/>
<path d="M453.563 382.497H487.866C489.282 377.924 487.866 371.412 487.866 371.412L487.355 366.838V366.61L486.843 362.036L472.994 359.805L473.186 364.661V365.576L473.286 368.137C471.542 369.719 460.123 372.18 457.263 375.052C454.404 377.924 453.563 382.497 453.563 382.497Z" fill="#E4B48E"/>
<path d="M453.563 382.502H487.866C489.282 377.929 487.866 371.417 487.866 371.417C487.866 371.417 477.297 373.374 473.305 368.078C471.56 369.66 460.141 372.121 457.272 374.993C454.404 377.865 453.563 382.502 453.563 382.502Z" fill="#225787"/>
<path d="M411.012 382.499H445.324C446.74 377.925 445.324 371.413 445.324 371.413L444.967 368.166L444.812 366.812L444.282 361.974L430.433 359.742L430.625 364.599V364.873L430.753 368.075C429.008 369.657 417.589 372.117 414.73 374.989C411.87 377.861 411.012 382.499 411.012 382.499Z" fill="#E4B48E"/>
<path d="M486.833 361.974L472.984 359.742L473.176 364.599V365.514C480.037 368.111 485.125 367.224 487.308 366.584L486.833 361.974Z" fill="#B0754E"/>
<path d="M430.442 359.773L430.634 364.63V364.905C435.202 368.344 442.364 368.325 444.967 368.197L444.812 366.844L444.282 362.005L430.442 359.773Z" fill="#B0754E"/>
<path d="M411.021 382.502H445.323C446.748 377.929 445.323 371.417 445.323 371.417C445.323 371.417 434.745 373.374 430.762 368.078C429.017 369.66 417.598 372.121 414.729 374.993C411.861 377.865 411.021 382.502 411.021 382.502Z" fill="#225787"/>
<path d="M449.928 124.663C449.928 124.663 444.666 121.004 445.223 113.221C445.78 105.437 454.559 104.989 458.295 106.306C462.032 107.623 463.667 113.239 466.197 114.117C468.728 114.995 477.498 116.989 477.388 121.828C477.388 121.828 482.988 122.495 482.65 127.105C482.312 131.715 483.006 145.782 472.272 149.971L449.928 124.663Z" fill="#282C50"/>
<path d="M485.848 240.131L484.514 297.754L489.557 363.115C483.34 365.098 476.662 365.098 470.446 363.115L460.963 298.403L456.843 259.531L451.627 300.461L446.027 364.596C446.027 364.596 438.162 367.67 428.506 362.822L430.982 296.702L439.048 238.805L485.848 240.131Z" fill="#225787"/>
<path d="M395.436 148.865C395.481 150.173 398.003 153.923 399.82 156.466C400.862 157.92 401.647 158.981 401.647 158.981L408.718 154.728C408.718 154.728 408.718 154.289 408.718 153.622C408.718 152.021 408.791 149.048 408.718 147.722C408.581 145.783 405.539 140.46 405.539 140.46C405.335 140.384 405.11 140.384 404.906 140.459C404.702 140.535 404.531 140.681 404.425 140.871C404.059 141.566 404.425 144.009 404.425 144.009L404.498 145.655C404.498 145.655 402.123 142.399 401.419 141.082C400.716 139.765 400.433 135.063 399.537 134.935C398.642 134.807 397.929 136.92 397.71 138.027C397.491 139.133 395.883 140.707 395.783 142.6C395.556 144.681 395.44 146.772 395.436 148.865Z" fill="#E4B48E"/>
<path d="M399.83 156.432C400.871 157.886 401.657 158.947 401.657 158.947L408.728 154.694C408.728 154.694 408.728 154.255 408.728 153.587C408.728 153.587 402.15 153.432 399.83 156.432Z" fill="#B0754E"/>
<path d="M445.168 163.244L425.281 180.266L409.55 154.5C406.459 155.473 403.611 157.098 401.2 159.265C401.2 159.265 414.181 187.482 422.741 195.001L442.272 191.278L445.168 163.244Z" fill="#56A7EF"/>
<path d="M437.412 238.212C437.412 238.212 450.877 243.7 470.984 242.338C476.472 241.958 481.918 241.11 487.263 239.804L487.016 182.574L486.943 165.059L472.382 156.781L458.432 157.211L445.177 163.239L439.047 222.453L437.412 238.212Z" fill="#56A7EF"/>
<path d="M452.696 223.472L472.538 224.78L470.985 242.305C476.473 241.925 481.919 241.077 487.264 239.771L487.017 182.542L479.526 178.078L474.657 213.054L439.788 216.338L439.048 222.42L452.696 223.472Z" fill="#428CCE"/>
<path d="M449.927 124.664C449.927 124.664 444.09 151.262 459.062 152.597L458.286 158.643C458.286 158.643 462.68 163.162 472.455 158.643L472.244 145.445C473.416 144.919 474.355 143.982 474.885 142.811C476.1 140.616 478.192 136.216 474.885 135.338C471.578 134.46 470.6 138.082 470.6 138.082L469.175 137.862C469.175 137.862 470.089 131.46 468.517 131.039C466.946 130.618 464.863 132.74 460.944 130.646C457.025 128.551 457.656 125.807 454.851 125.478C453.197 125.29 451.554 125.018 449.927 124.664Z" fill="#E4B48E"/>
<path d="M449.361 201.672L436.508 201.992L438.335 219.846L447.497 219.636L449.361 201.672Z" fill="#529ADB"/>
<path d="M439.788 216.373C439.989 216.712 440.829 217.608 444.776 219.117C447.185 219.88 449.723 220.154 452.239 219.922C453.381 219.849 454.13 219.721 454.13 219.721L453.966 211.827C453.966 211.827 450.412 207.08 448.868 206.422L448.53 209.742C447.217 209.86 445.897 209.86 444.584 209.742C443.204 209.513 438.993 207.849 438.6 208.288C438.207 208.727 437.577 212.367 439.788 216.373Z" fill="#E4B48E"/>
<path d="M452.238 219.899C453.38 219.826 454.129 219.698 454.129 219.698L453.965 211.805C452.837 214.354 452.249 217.111 452.238 219.899Z" fill="#B0754E"/>
<path d="M442.93 203.175C446.477 203.175 449.352 202.499 449.352 201.665C449.352 200.832 446.477 200.156 442.93 200.156C439.383 200.156 436.508 200.832 436.508 201.665C436.508 202.499 439.383 203.175 442.93 203.175Z" fill="#282C50"/>
<path d="M456.834 259.526L449.307 255.547L455.491 270.108L456.834 259.526Z" fill="#282C50"/>
<path d="M442.263 191.272L443.341 180.891L436.517 192.369L442.263 191.272Z" fill="#428CCE"/>
<path d="M459.017 152.591C459.017 152.591 464.681 152.811 469.194 146.555C469.194 146.555 467.942 156.058 458.487 156.762L459.017 152.591Z" fill="#B0754E"/>
<path d="M486.944 165.07C486.944 165.07 491.182 168.564 493.475 178.131C495.768 187.699 496.033 210.4 495.814 213.702C495.595 217.004 474.163 220.827 454.614 220.26C454.614 220.26 452.394 219.007 454.048 211.425L482.687 204.839C482.687 204.839 478.978 183.51 479.526 178.122C480.074 172.735 483.363 166.845 486.944 165.07Z" fill="#56A7EF"/>
<path d="M534.446 272.487C534.446 272.487 535.752 263.341 531.395 256.618C527.037 249.895 517.29 246.831 510.229 245.075C503.167 243.319 489.894 252.548 483.874 250.389C477.853 248.231 482.421 256.984 487.4 260.505C492.378 264.027 493.21 269.496 501.925 270.393C510.64 271.289 510.439 275.67 517.911 276.338C525.384 277.006 531.678 274.838 534.446 272.487Z" fill="#39AA51"/>
<path d="M534.63 303.158C534.63 303.158 531.396 290.353 518.323 285.533C505.251 280.712 498.82 289.713 492.178 291.021C485.537 292.328 479.727 290.737 479.928 293.627C480.129 296.518 487.611 299.673 492.589 301.941C497.568 304.21 495.704 304.685 502.136 306.414C508.567 308.143 516.25 307.512 517.666 307.951C519.081 308.39 532.053 307.804 534.63 303.158Z" fill="#39AA51"/>
<path d="M552.105 286.972C552.105 286.972 547.584 279.335 549.246 270.335C550.909 261.335 565.863 249.892 573.116 249.005C580.37 248.118 573.317 256.167 571.034 260.612C568.75 265.057 568.339 270.554 566.265 274.332C564.191 278.109 563.205 278.74 562.437 281.347C561.67 283.954 554.133 286.25 552.105 286.972Z" fill="#39AA51"/>
<path d="M552.032 313.928C552.032 313.928 547.821 298.946 555.248 292.123C562.675 285.299 576.259 281.787 576.953 282.784C577.647 283.781 575.29 291.546 573.737 294.107C572.184 296.669 569.17 301.251 567.507 302.897C565.845 304.544 565.333 309.172 562.739 310.379C560.144 311.586 555.86 314.724 552.032 313.928Z" fill="#39AA51"/>
<path d="M545.427 346.354C545.609 345.01 545.728 343.455 545.81 341.991C545.893 340.528 545.92 339 545.902 337.5C545.878 334.499 545.661 331.502 545.253 328.528C544.52 322.605 542.702 316.869 539.891 311.607C537.092 306.43 532.935 302.117 527.869 299.131C522.758 296.296 517.103 294.584 511.279 294.109C517.204 294.164 523.048 295.489 528.417 297.997C533.947 300.769 538.613 305.005 541.91 310.244C545.248 315.639 547.561 321.605 548.734 327.842C549.382 330.956 549.83 334.109 550.077 337.281C550.195 338.863 550.259 340.464 550.287 342.064C550.314 343.665 550.287 345.22 550.159 346.949L545.427 346.354Z" fill="#354859"/>
<path d="M545.692 341.78C546.13 337.701 546.331 333.393 546.395 329.176C546.459 324.96 546.395 320.688 546.075 316.454C545.756 312.219 545.345 307.993 544.678 303.804C544.009 299.628 543.094 295.496 541.937 291.429C540.806 287.386 539.329 283.447 537.525 279.657L536.858 278.194C536.62 277.727 536.355 277.279 536.109 276.813C535.588 275.898 535.14 274.983 534.565 274.069L532.884 271.425L531.057 268.928C528.496 265.682 525.517 262.791 522.196 260.331C518.817 257.997 515.147 256.118 511.279 254.742C515.217 255.939 518.982 257.646 522.479 259.818C525.979 262.159 529.155 264.951 531.925 268.124L533.953 270.584L535.78 273.2C536.419 274.06 536.922 275.029 537.497 275.944C537.771 276.401 538.064 276.858 538.329 277.325L539.087 278.752C541.115 282.56 542.814 286.535 544.166 290.633C545.549 294.754 546.687 298.954 547.574 303.209C548.487 307.472 549.117 311.771 549.602 316.106C550.086 320.441 550.396 324.786 550.515 329.14C550.634 333.493 550.652 337.829 550.369 342.311L545.692 341.78Z" fill="#354859"/>
<path d="M546.121 348.805C546.121 346.235 546.176 343.811 546.313 341.333C546.45 338.854 546.66 336.412 546.943 333.961C547.469 329.071 548.317 324.222 549.483 319.445C550.058 317.067 550.744 314.707 551.547 312.402C552.33 310.092 553.261 307.834 554.334 305.643C556.35 301.282 559.206 297.363 562.738 294.109C559.541 297.616 557.059 301.714 555.43 306.174C554.578 308.395 553.867 310.668 553.301 312.979C552.708 315.283 552.233 317.625 551.858 319.985C551.117 324.708 550.68 329.474 550.552 334.253C550.485 336.644 550.485 339.031 550.552 341.415C550.616 343.775 550.734 346.208 550.944 348.476L546.121 348.805Z" fill="#354859"/>
<path d="M545.811 340.514C545.765 333.609 546.03 326.794 546.496 320.035C546.962 313.276 547.683 306.462 548.734 299.776C549.758 293.055 551.284 286.42 553.302 279.928C554.313 276.705 555.549 273.557 557.001 270.507C558.438 267.486 560.283 264.676 562.483 262.156C560.464 264.795 558.813 267.697 557.577 270.781C556.312 273.872 555.265 277.047 554.444 280.285C552.838 286.792 551.724 293.412 551.109 300.087C550.461 306.764 550.141 313.486 550.068 320.209C549.995 326.932 550.141 333.673 550.579 340.276L545.811 340.514Z" fill="#354859"/>
<path d="M567.507 339.18V370.58C567.507 370.58 565.46 382.735 547.82 382.735C530.18 382.735 528.106 370.58 528.106 370.58V339.18H567.507Z" fill="#529ADB"/>
<path d="M79.3305 140.417L111.541 140.682C111.541 140.682 113.67 140.417 114.2 142.017C114.2 142.017 119.79 156.139 120.055 161.225C120.32 166.31 118.987 165.487 121.124 172.155C123.262 178.823 129.346 194.546 132.836 207.342C137.485 224.537 138.7 242.784 138.993 260.528C138.993 263.382 140.738 287.885 136.316 287.885C132.662 287.885 98.752 292.386 98.341 285.837C96.7149 259.769 101.42 234.296 92.3665 208.933C88.8586 199.082 84.8299 188.683 81.8519 178.384C78.8738 168.085 78.3439 157.347 76.3707 146.828C75.0644 139.621 79.3305 140.417 79.3305 140.417Z" fill="#437B96" stroke="#313138" stroke-linecap="round" stroke-linejoin="round"/>
<path d="M76.1699 143.609C76.4897 139.886 79.3307 140.417 79.3307 140.417L111.541 140.682C111.541 140.682 113.67 140.417 114.2 142.017C114.2 142.017 119.791 156.14 120.056 161.225C120.127 162.564 120.091 163.907 119.946 165.24L119.261 166.292C119.261 166.292 118.192 175.622 105.412 176.152C92.6316 176.683 85.4513 170.82 82.7838 165.222C80.1163 159.624 79.0567 150.588 76.9282 145.237C76.7061 144.68 76.453 144.137 76.1699 143.609Z" fill="white" stroke="#313138" stroke-linecap="round" stroke-linejoin="round"/>
<path d="M83.6424 154.016C85.7983 161.808 84.5011 163.967 86.6662 177.376C88.8312 190.785 96.5961 205.931 99.629 219.77C102.662 233.608 101.356 282.496 100.917 284.655C100.751 285.806 100.69 286.969 100.734 288.131C99.2819 287.591 98.4049 286.841 98.341 285.817C96.7149 259.749 101.41 234.276 92.3665 208.913C88.8586 199.062 84.83 188.663 81.8519 178.364C78.8738 168.065 78.3439 157.327 76.3707 146.808C75.5486 142.39 76.8458 140.991 77.9603 140.57C80.4124 144.795 82.3216 149.312 83.6424 154.016Z" fill="white" stroke="#313138" stroke-linecap="round" stroke-linejoin="round"/>
<path d="M145.871 350.84L146.09 350.675V320.565H141.769V301.531H157.747V320.565H153.426V351.188L191.657 363.389V366.416C191.657 367.333 191.293 368.213 190.645 368.861C189.998 369.51 189.119 369.874 188.204 369.874C187.288 369.874 186.41 369.51 185.762 368.861C185.114 368.213 184.751 367.333 184.751 366.416V365.987L152.777 362.264V366.837C152.777 367.64 152.459 368.41 151.892 368.978C151.325 369.546 150.555 369.865 149.754 369.865C148.952 369.865 148.182 369.546 147.615 368.978C147.048 368.41 146.73 367.64 146.73 366.837V362.099L113.459 365.977V366.407C113.459 367.324 113.095 368.204 112.448 368.852C111.8 369.5 110.922 369.865 110.006 369.865C109.09 369.865 108.21 369.501 107.561 368.853C106.912 368.204 106.546 367.325 106.544 366.407V363.38L145.871 350.84Z" fill="#437B96" stroke="#313138" stroke-linecap="round" stroke-linejoin="round"/>
<path d="M99.5376 305.039H195.942C197.96 305.039 199.596 303.401 199.596 301.38V286.618C199.596 284.597 197.96 282.959 195.942 282.959H99.5376C97.5195 282.959 95.8836 284.597 95.8836 286.618V301.38C95.8836 303.401 97.5195 305.039 99.5376 305.039Z" fill="#437B96" stroke="#313138" stroke-linecap="round" stroke-linejoin="round"/>
<path d="M255.704 206.93H217.519V251.098H255.704V206.93Z" fill="white" stroke="#313138" stroke-linecap="round" stroke-linejoin="round"/>
<path d="M214.56 253.074H257.687V213.195H237.27L214.56 253.074Z" fill="white" stroke="#313138" stroke-linecap="round" stroke-linejoin="round"/>
<path d="M266.941 255.297H242.276C241.799 255.285 241.346 255.087 241.013 254.745C240.68 254.403 240.494 253.945 240.494 253.468C240.494 252.99 240.68 252.532 241.013 252.19C241.346 251.848 241.799 251.65 242.276 251.638H266.941C267.527 251.637 268.107 251.514 268.644 251.276C269.18 251.039 269.661 250.691 270.056 250.257C270.534 249.727 270.869 249.083 271.029 248.387C271.189 247.69 271.169 246.965 270.969 246.278L262.218 214.878C262.101 214.422 262.165 213.937 262.397 213.526C262.628 213.116 263.009 212.81 263.46 212.674C263.916 212.557 264.4 212.622 264.81 212.853C265.221 213.085 265.526 213.467 265.662 213.918L274.413 245.318C274.765 246.586 274.79 247.922 274.485 249.202C274.18 250.482 273.555 251.663 272.668 252.635C271.952 253.454 271.072 254.114 270.086 254.572C269.099 255.031 268.028 255.277 266.941 255.297Z" fill="white" stroke="#313138" stroke-linecap="round" stroke-linejoin="round"/>
<path d="M263.884 173.686L258.297 173.016L249.647 245.323L255.234 245.993L263.884 173.686Z" fill="white" stroke="#313138" stroke-linecap="round" stroke-linejoin="round"/>
<path d="M263.88 173.664C263.88 173.664 273.801 209.116 255.22 245.967L263.88 173.664Z" fill="white" stroke="#313138" stroke-linecap="round" stroke-linejoin="round"/>
<path d="M62.3298 382.531H287.942V255.139L62.3298 255.139L62.3298 382.531Z" fill="#437B96"/>
<path d="M62.3298 382.531H287.942V255.139L62.3298 255.139L62.3298 382.531Z" fill="white" stroke="#313138" stroke-linecap="round" stroke-linejoin="round"/>
<path d="M62.3298 382.531H287.942V255.139L62.3298 255.139L62.3298 382.531Z" stroke="#313138" stroke-linecap="round" stroke-linejoin="round"/>
<path d="M62.4945 261.711H287.833V258.19H62.4945V261.711Z" fill="#437B96"/>
<path d="M60.6851 258.617L292.875 258.617V253.047L60.6851 253.047V258.617Z" fill="white" stroke="#313138" stroke-linecap="round" stroke-linejoin="round"/>
<path d="M45.576 272.748C45.576 272.748 44.1874 263.602 48.8007 256.87C53.414 250.138 63.7368 247.092 71.2002 245.327C78.6637 243.562 92.7228 252.809 99.0901 250.605C105.457 248.4 100.634 257.199 95.3629 260.721C90.0919 264.242 89.2149 269.721 79.9883 270.608C70.7617 271.495 70.981 275.895 63.079 276.553C55.1771 277.212 48.4992 275.081 45.576 272.748Z" fill="#39AA51"/>
<path d="M45.3838 303.437C46.7164 299.372 48.9662 295.668 51.9587 292.613C54.9512 289.558 58.6062 287.234 62.6402 285.821C76.471 280.983 83.2767 290.001 90.3108 291.309C97.3449 292.617 103.484 291.025 103.265 293.916C103.045 296.806 95.1433 299.952 89.8723 302.23C84.6013 304.507 86.5745 304.974 79.7688 306.702C72.963 308.431 64.8327 307.8 63.3254 308.239C61.8181 308.678 48.1244 308.065 45.3838 303.437Z" fill="#39AA51"/>
<path d="M26.885 287.252C26.885 287.252 31.6718 279.615 29.9087 270.606C28.1456 261.596 12.3234 250.163 4.64981 249.285C-3.02378 248.407 4.43973 256.438 6.85143 260.892C9.26312 265.346 9.71072 270.834 11.9032 274.612C14.0956 278.389 15.1462 279.011 15.941 281.646C16.7357 284.28 24.7382 286.511 26.885 287.252Z" fill="#39AA51"/>
<path d="M26.9581 314.185C26.9581 314.185 31.3795 299.203 23.5597 292.389C15.74 285.575 1.33376 282.044 0.621212 283.041C-0.0913353 284.038 2.37516 291.84 4.02863 294.365C5.68211 296.889 8.86118 301.517 10.6151 303.164C12.3691 304.81 12.9172 309.429 15.6669 310.636C18.4166 311.844 22.9112 314.981 26.9581 314.185Z" fill="#39AA51"/>
<path d="M33.9559 346.613C33.7549 345.26 33.6362 343.714 33.5448 342.241C33.4535 340.769 33.4352 339.25 33.4535 337.75C33.4759 334.75 33.7048 331.755 34.1386 328.787C34.9275 322.831 36.8535 317.083 39.8116 311.857C42.8455 306.62 47.2441 302.308 52.537 299.381C57.9935 296.535 63.9695 294.827 70.104 294.359C63.8582 294.414 57.6888 295.74 51.9706 298.256C46.1857 300.963 41.2465 305.197 37.6831 310.503C34.1409 315.845 31.6597 321.819 30.3749 328.101C29.6996 331.215 29.2417 334.372 29.0046 337.549C28.8676 339.141 28.8037 340.732 28.7763 342.333C28.7489 343.933 28.7763 345.497 28.9042 347.226L33.9559 346.613Z" fill="#354859"/>
<path d="M33.6819 342.039C33.2068 337.951 32.9967 333.652 32.9236 329.426C32.8506 325.201 32.9236 320.938 33.2616 316.704C33.5996 312.469 34.0473 308.252 34.7415 304.063C35.4577 299.88 36.4278 295.744 37.6466 291.679C38.847 287.611 40.4092 283.659 42.3147 279.871L43.0272 278.444C43.2738 277.977 43.5479 277.529 43.8129 277.072C44.361 276.157 44.836 275.242 45.448 274.328L47.2294 271.694L49.2026 269.197C51.9438 265.935 55.0976 263.045 58.5845 260.599C62.1746 258.254 66.0447 256.371 70.104 254.992C65.9467 256.174 61.9562 257.88 58.2282 260.068C54.5484 262.384 51.1884 265.173 48.2343 268.364L46.0875 270.825L44.1234 273.441C43.4474 274.3 42.9176 275.27 42.2964 276.185C42.0041 276.651 41.7026 277.099 41.3829 277.566L40.579 278.993C38.432 282.789 36.6254 286.768 35.1801 290.883C33.7603 294.991 32.5919 299.182 31.6813 303.432C30.7677 307.694 30.0461 312.002 29.5254 316.329C29.0047 320.655 28.694 325.009 28.5387 329.371C28.3834 333.734 28.3926 338.051 28.694 342.542L33.6819 342.039Z" fill="#354859"/>
<path d="M33.2247 349.066C33.2247 346.486 33.1608 344.072 33.0146 341.584C32.8685 339.096 32.64 336.663 32.3569 334.267C31.774 329.371 30.8583 324.522 29.6163 319.751C29.0073 317.361 28.2795 315.01 27.433 312.699C26.6005 310.386 25.6147 308.131 24.4823 305.949C22.3195 301.546 19.2971 297.621 15.5938 294.406C18.9534 297.874 21.5871 301.979 23.3404 306.48C24.2513 308.692 25.0143 310.962 25.6242 313.275C26.2505 315.587 26.7597 317.928 27.1498 320.291C27.9524 324.999 28.4285 329.758 28.5749 334.532C28.6479 336.919 28.6571 339.315 28.5749 341.694C28.4926 344.072 28.3922 346.495 28.1638 348.764L33.2247 349.066Z" fill="#354859"/>
<path d="M33.5541 340.773C33.5998 333.868 33.3166 327.108 32.8233 320.294C32.33 313.48 31.5626 306.73 30.439 300.007C29.3701 293.279 27.7726 286.645 25.6612 280.169C24.5689 276.941 23.2471 273.796 21.7057 270.757C20.1837 267.717 18.2433 264.906 15.9414 262.406C18.0688 265.027 19.8185 267.933 21.1393 271.041C22.4738 274.132 23.5791 277.317 24.4463 280.571C26.1313 287.076 27.3012 293.703 27.945 300.392C28.6302 307.069 28.9591 313.782 29.0413 320.514C29.1235 327.246 28.9682 333.977 28.5023 340.59L33.5541 340.773Z" fill="#354859"/>
<path d="M10.5879 339.445V370.845C10.5879 370.845 12.753 383.01 31.4528 383.01C50.1526 383.01 52.3176 370.854 52.3176 370.854V339.445H10.5879Z" fill="#529ADB"/>
<path d="M161.027 282.617H274.724V276.416H161.027V282.617Z" fill="#529ADB"/>
<path d="M149.087 308.18H274.724V301.978H149.087V308.18Z" fill="#529ADB"/>
<path d="M132.241 333.75H274.732V327.549H132.241V333.75Z" fill="#529ADB"/>
<path d="M100.743 359.32H274.724V353.119H100.743V359.32Z" fill="#529ADB"/>
<path d="M580.544 382.523H0.457031" stroke="#263538" stroke-linecap="round" stroke-linejoin="round"/>
</g>
<defs>
<clipPath id="clip0_342_126">
<rect width="581" height="383" fill="white"/>
</clipPath>
</defs>
</svg>
