<?xml version="1.0" encoding="utf-8"?>
<!-- Generator: Adobe Illustrator 27.3.1, SVG Export Plug-In . SVG Version: 6.00 Build 0)  -->
<svg version="1.1" xmlns="http://www.w3.org/2000/svg" xmlns:xlink="http://www.w3.org/1999/xlink" x="0px" y="0px"
	 viewBox="0 0 500 500" style="enable-background:new 0 0 500 500;" xml:space="preserve">
<style type="text/css">
	.st0{display:none;}
	.st1{display:inline;}
	.st2{fill:#407BFF;}
	.st3{opacity:0.9;fill:#FFFFFF;enable-background:new    ;}
	.st4{fill:#F5F5F5;}
	.st5{fill:#BA2222;}
	.st6{opacity:0.2;enable-background:new    ;}
	.st7{opacity:0.5;fill:#FFFFFF;enable-background:new    ;}
	.st8{opacity:0.2;fill:#FFFFFF;enable-background:new    ;}
	.st9{fill:#263238;}
	.st10{opacity:0.3;fill:#FFFFFF;enable-background:new    ;}
	.st11{opacity:0.6;fill:#FFFFFF;enable-background:new    ;}
	.st12{fill:#E4897B;}
	.st13{fill:#B3A029;}
	.st14{fill:#D9C232;}
	.st15{fill:#FFE53B;}
	.st16{fill:#FFFFFF;}
	.st17{fill:#DE5753;}
	.st18{fill:none;stroke:#263238;stroke-width:0.7247;stroke-linecap:round;stroke-linejoin:round;stroke-miterlimit:10;}
	.st19{fill:none;stroke:#263238;stroke-width:0.5;stroke-linecap:round;stroke-linejoin:round;stroke-miterlimit:10;}
	.st20{fill:#F2D938;}
	.st21{opacity:0.7;fill:#FFFFFF;enable-background:new    ;}
	.st22{opacity:0.4;fill:#FFFFFF;enable-background:new    ;}
	.st23{fill:none;stroke:#FF4343;stroke-width:0.75;stroke-linecap:round;stroke-linejoin:round;}
	.st24{fill:none;stroke:#FF4343;stroke-width:0.75;stroke-linecap:round;stroke-linejoin:round;stroke-dasharray:6.0586,6.0586;}
	.st25{opacity:0.1;enable-background:new    ;}
	.st26{opacity:0.4;enable-background:new    ;}
	.st27{opacity:0.1;fill:#FFFFFF;enable-background:new    ;}
</style>
<g id="Background_Complete">
</g>
<g id="Backgorund_Simple" class="st0">
	<g class="st1">
		<path class="st2" d="M308.64,12.57c7.99-2.8,16.5-4.04,24.68-3.52c41.56,2.63,67.72,39.05,75.36,77.14
			c11.09,55.24-17.03,111.76-56.49,149.1c-1.28,1.21-2.59,2.41-3.91,3.59c-41.07,36.56-96.07,55.27-150.61,56.82
			c-34.3,0.98-74.98-10.61-97.63-37.83c-23.67-28.45-18.42-92.74,26.65-95.74c18.35-1.22,35.48,5.44,53.15,9.1
			c24.52,5.08,51.2,0.15,71.31-15.09c39.96-30.29,3.99-85.67,28.46-122.02C286.4,24.06,296.96,16.66,308.64,12.57z"/>
		<path class="st3" d="M308.64,12.57c7.99-2.8,16.5-4.04,24.68-3.52c41.56,2.63,67.72,39.05,75.36,77.14
			c11.09,55.24-17.03,111.76-56.49,149.1c-1.28,1.21-2.59,2.41-3.91,3.59c-41.07,36.56-96.07,55.27-150.61,56.82
			c-34.3,0.98-74.98-10.61-97.63-37.83c-23.67-28.45-18.42-92.74,26.65-95.74c18.35-1.22,35.48,5.44,53.15,9.1
			c24.52,5.08,51.2,0.15,71.31-15.09c39.96-30.29,3.99-85.67,28.46-122.02C286.4,24.06,296.96,16.66,308.64,12.57z"/>
	</g>
</g>
<g id="Shadow_1_">
	<ellipse id="_x3C_Path_x3E__359_" class="st4" cx="251.27" cy="464.21" rx="229.15" ry="13.38"/>
</g>
<g id="Plant">
	<g>
		<g>
			<path class="st5" d="M440.9,426.96c0.18-1.21,4.32-29.75-3.97-39.6c-1.83-2.18-4.15-3.32-6.88-3.39
				c-16.73-0.39-19.01,13.04-19.04,13.18l1.97,0.3c0.08-0.48,2.06-11.85,17.01-11.49c2.16,0.05,3.93,0.93,5.4,2.68
				c7.71,9.17,3.57,37.74,3.52,38.02L440.9,426.96z"/>
		</g>
		<g>
			<path class="st5" d="M441.91,425.66l1.99-0.06c-0.01-0.26-0.66-26.3,12.16-31.68c12.57-5.27,18.23,5.56,18.46,6.03l1.78-0.9
				c-0.07-0.13-6.7-12.97-21.02-6.97C441.21,397.99,441.87,424.53,441.91,425.66z"/>
		</g>
		<g>
			<path class="st5" d="M441.85,427.7c0-0.42,0.12-41.59,8.15-53.63c7.71-11.56,20.14-6.12,20.67-5.88l0.83-1.82
				c-0.14-0.07-14.49-6.4-23.15,6.59c-8.36,12.54-8.48,53.02-8.48,54.74L441.85,427.7z"/>
		</g>
		<path class="st5" d="M427.65,384.96c0,0,7.3,2.69,5.13,9.05c-2.17,6.36-25.27,16.82-25.27,16.82s-9.67-8.87-0.79-23.28
			C415.61,373.12,427.46,380.41,427.65,384.96z"/>
		<path class="st5" d="M450.36,371.9c0,0-5.19-0.56-4.77-3.71c0.42-3.16,20.16-11.29,31.8,1.86c0,0-7.46,12.81-18.24,12.98
			C448.38,383.19,450.36,371.9,450.36,371.9z"/>
		<path class="st5" d="M455.68,393c0,0-3.58-2.89,0.28-4.3c3.86-1.41,22.81-1.01,23.01,17.76c0,0-22.07,3.67-24.8-3.48
			S455.68,393,455.68,393z"/>
		<path class="st6" d="M427.65,384.96c0,0,7.3,2.69,5.13,9.05c-2.17,6.36-25.27,16.82-25.27,16.82s-9.67-8.87-0.79-23.28
			C415.61,373.12,427.46,380.41,427.65,384.96z"/>
		<path class="st6" d="M450.36,371.9c0,0-5.19-0.56-4.77-3.71c0.42-3.16,20.16-11.29,31.8,1.86c0,0-7.46,12.81-18.24,12.98
			C448.38,383.19,450.36,371.9,450.36,371.9z"/>
		<path class="st6" d="M455.68,393c0,0-3.58-2.89,0.28-4.3c3.86-1.41,22.81-1.01,23.01,17.76c0,0-22.07,3.67-24.8-3.48
			S455.68,393,455.68,393z"/>
		<polygon class="st5" points="423.73,465.2 457.98,465.2 461.67,427.7 420.04,427.7 		"/>
		<polygon class="st7" points="423.73,465.2 457.98,465.2 461.67,427.7 420.04,427.7 		"/>
		
			<rect x="418.21" y="423.56" transform="matrix(-1 -1.224647e-16 1.224647e-16 -1 881.707 855.4009)" class="st5" width="45.29" height="8.27"/>
		
			<rect x="418.21" y="423.56" transform="matrix(-1 -1.224647e-16 1.224647e-16 -1 881.707 855.4009)" class="st8" width="45.29" height="8.27"/>
	</g>
</g>
<g id="Chair">
	<g>
		<path class="st9" d="M384.97,438.32l-34.05-3.35v-47.86h-13.5v47.84l-34.19,3.36c-3.39,0.33-5.98,3.19-5.98,6.6v5.11h45.6h2.5
			h45.6v-5.11C390.95,441.51,388.36,438.65,384.97,438.32z"/>
		<path class="st8" d="M384.97,438.32l-34.05-3.35v-47.86h-13.5v47.84l-34.19,3.36c-3.39,0.33-5.98,3.19-5.98,6.6v5.11h45.6h2.5
			h45.6v-5.11C390.95,441.51,388.36,438.65,384.97,438.32z"/>
		<circle class="st9" cx="300.85" cy="456.37" r="8.82"/>
		<circle class="st9" cx="387.35" cy="456.37" r="8.82"/>
		<path class="st9" d="M349.11,397.4h-9.88c-2.28,0-4.13-1.85-4.13-4.13v-38.49h18.14v38.49
			C353.24,395.55,351.39,397.4,349.11,397.4z"/>
		<path class="st10" d="M349.11,397.4h-9.88c-2.28,0-4.13-1.85-4.13-4.13v-38.49h18.14v38.49
			C353.24,395.55,351.39,397.4,349.11,397.4z"/>
		<path class="st9" d="M376.43,279.97c0,0,2.57,63.82-15.2,74.8h20.28c0,0,15.72-21.74,11.27-74.8H376.43z"/>
		<path class="st10" d="M376.43,279.97c0,0,2.57,63.82-15.2,74.8h20.28c0,0,15.72-21.74,11.27-74.8H376.43z"/>
		<path class="st9" d="M302.52,345.85h80.91c2.76,0,5,2.24,5,5v8.82h-90.91v-8.82C297.52,348.09,299.76,345.85,302.52,345.85z"/>
		<g>
			<path class="st9" d="M295.74,352.76h94.47c1.11,0,2.01,0.9,2.01,2.01v2.88c0,1.11-0.9,2.01-2.01,2.01h-94.47
				c-1.11,0-2.01-0.9-2.01-2.01v-2.88C293.73,353.66,294.63,352.76,295.74,352.76z"/>
			<path class="st11" d="M295.74,352.76h94.47c1.11,0,2.01,0.9,2.01,2.01v2.88c0,1.11-0.9,2.01-2.01,2.01h-94.47
				c-1.11,0-2.01-0.9-2.01-2.01v-2.88C293.73,353.66,294.63,352.76,295.74,352.76z"/>
		</g>
		<path class="st9" d="M400.42,292.94h-37.8c-8.05,0-14.58-6.53-14.58-14.58v-18.01c0-8.05,6.53-14.58,14.58-14.58h37.8
			c8.05,0,14.58,6.53,14.58,14.58v18.01C415,286.41,408.47,292.94,400.42,292.94z"/>
	</g>
</g>
<g id="Character">
	<g>
		<path class="st12" d="M266.69,193.61l-6.48-17.1c0,0,2.78-2.57,0.87-5.19c-1.91-2.61-13.88-9.96-16.06-8.67
			c-2.18,1.29-7.02,6.16-4.41,8.86c2.62,2.7,14.21,7.21,14.21,7.21l5.74,22.44L266.69,193.61z"/>
		<g>
			<path class="st13" d="M312,226.13c0,0-29.51-6.07-32.71-7.51c-3.2-1.45-15.08-36.24-15.08-36.24l-9.11,4.25
				c0,0,7.33,34.91,14.82,43.22c7.5,8.3,39.46,15.32,39.46,15.32L312,226.13z"/>
			<path class="st14" d="M309.39,245.16c0,0-0.18-0.04-0.54-0.13c-1.61-0.36-6.65-1.55-12.65-3.3c-9.73-2.83-21.99-7.15-26.27-11.88
				c-7.48-8.31-14.82-43.22-14.82-43.22l9.1-4.25c0,0,11.88,34.79,15.09,36.24c3.2,1.44,32.71,7.51,32.71,7.51L309.39,245.16z"/>
			<polygon class="st13" points="264.35,181.69 266.23,185.32 254.53,189.35 254.98,184.91 			"/>
		</g>
		<path class="st14" d="M309.61,244.69c-1.64-0.24-6.75-1.03-12.87-2.31c3.49-6.02,13.7-9.11,13.7-9.11L309.61,244.69z"/>
		<path class="st9" d="M353.6,202.04c0,0,1.74,16.34-4.32,20.36c-6.06,4.01-35.84-0.69-39.22-7.26c-3.38-6.57,9.34-24.43,9.34-24.43
			L353.6,202.04z"/>
		<polygon class="st12" points="233.06,417.12 240.83,418.99 244.77,408.27 248.34,398.51 239.49,394.73 236.08,406.57 		"/>
		<polygon class="st14" points="236.08,406.57 244.77,408.27 248.34,398.51 239.49,394.73 		"/>
		<g>
			<path class="st13" d="M236.86,400.91l10.78,4.01c0,0,28.75-71.89,34.66-72.14s66.08,27.41,81.16,12.07
				c15.08-15.33-6.72-52.29-6.72-52.29s-36.27-5.18-39,3.01c-0.53,1.58-1.11,4.69-1.54,7.35c-0.41,2.51-0.7,4.61-0.7,4.61
				s-0.01,0-0.02-0.01c-1.12-0.28-37.54-9.68-51.88,0.01C249.02,317.39,236.86,400.91,236.86,400.91z"/>
			<path class="st15" d="M236.86,400.91l10.78,4.01c0,0,28.75-71.89,34.66-72.14s66.08,27.41,81.16,12.07
				c15.08-15.33-6.72-52.29-6.72-52.29s-36.27-5.18-39,3.01c-0.53,1.58-1.11,4.69-1.54,7.35c-0.41,2.51-0.7,4.61-0.7,4.61
				s-0.01,0-0.02-0.01c-1.12-0.28-37.54-9.68-51.88,0.01C249.02,317.39,236.86,400.91,236.86,400.91z"/>
		</g>
		<polygon class="st12" points="298.86,447.79 306.6,445.81 305.11,434.7 303.73,424.51 294.15,425.37 296.64,437.24 		"/>
		<polygon class="st14" points="296.7,437.48 305.17,434.91 303.76,424.61 294.17,425.42 		"/>
		<polygon class="st13" points="252.09,400.93 236.39,395.59 235.72,402.03 247.63,406.23 		"/>
		<g>
			<path class="st13" d="M337.42,348.53c0,0-2.46,0.06-40.5-1.71c0,0,5.69,47.56,8.79,83.17l-11.38,1.94
				c0,0-27.18-76.25-26.89-88.36s14.18-15.66,14.18-15.66S308.73,343.57,337.42,348.53z"/>
			<path class="st11" d="M337.42,348.53c0,0-2.46,0.06-40.5-1.71c0,0,5.69,47.56,8.79,83.17l-11.38,1.94
				c0,0-27.18-76.25-26.89-88.36s14.18-15.66,14.18-15.66S308.73,343.57,337.42,348.53z"/>
			<path class="st14" d="M337.42,348.53c0,0-2.46,0.06-40.5-1.71c0,0,5.69,47.56,8.79,83.17l-11.38,1.94
				c0,0-27.18-76.25-26.89-88.36s14.18-15.66,14.18-15.66S308.73,343.57,337.42,348.53z"/>
		</g>
		<polygon class="st13" points="307.37,426.54 291.73,428.32 294.75,434.45 307.4,432.82 		"/>
		<path class="st14" d="M315.5,307.53l21.21,4.42c0,0-11.72-6.48-20.52-9.03C315.79,305.43,315.5,307.53,315.5,307.53z"/>
		<g>
			<g>
				<polygon class="st9" points="355.86,286.92 356.74,292.56 317.74,295.57 316.7,288.9 				"/>
				<polygon class="st14" points="355.86,286.92 356.74,292.56 317.74,295.57 316.7,288.9 				"/>
			</g>
			
				<rect x="343.06" y="286.42" transform="matrix(-0.9948 0.1023 -0.1023 -0.9948 716.0441 546.0018)" class="st13" width="1.94" height="9.87"/>
			
				<rect x="326.03" y="288.61" transform="matrix(-0.9979 0.0641 -0.0641 -0.9979 678.6548 561.9315)" class="st16" width="8.56" height="6.49"/>
			
				<rect x="319.11" y="287.48" transform="matrix(-0.9947 0.1023 -0.1023 -0.9947 668.4024 550.5344)" class="st13" width="1.94" height="9.87"/>
			
				<rect x="343.06" y="286.42" transform="matrix(-0.9948 0.1023 -0.1023 -0.9948 716.0441 546.0018)" class="st11" width="1.94" height="9.87"/>
			
				<rect x="319.11" y="287.48" transform="matrix(-0.9947 0.1023 -0.1023 -0.9947 668.4024 550.5344)" class="st11" width="1.94" height="9.87"/>
		</g>
		<path class="st13" d="M311.29,225.59c0,0,9.96,3.12,22.47,2.48c12.51-0.64,27.48,5.44,27.48,5.44l-5.37,53.41l-39.16,1.98
			C316.7,288.9,303.55,244.29,311.29,225.59z"/>
		<path class="st9" d="M317.58,195.43c0,0,2.2-25.94,23.88-16.51c27.21,11.83,5.57,43.42-7.72,36.94
			C320.45,209.36,317.58,195.43,317.58,195.43z"/>
		<path class="st14" d="M323.66,229.52l0.62,14.66l4.86-6.9c0,0-1.74,16.21-0.72,25.04c0,0,0.93-15.83,3.13-25.04l5.16,6.9
			l7.42-14.57C344.14,229.61,332.14,225.3,323.66,229.52z"/>
		<path class="st12" d="M330.38,232.25l11.21-3.17c-6.91-4.76-3.42-15.39-3.42-15.39l-11.11,3.9c0.59,1.84,0.97,3.41,1.19,4.75
			c1.16,6.93-1.97,7.48-1.97,7.48L330.38,232.25z"/>
		<path class="st17" d="M327.06,217.6c0.59,1.84,0.97,3.41,1.19,4.75c5.32-2.13,9.91-8.65,9.91-8.65L327.06,217.6z"/>
		<g>
			<path class="st12" d="M334.3,184.36c-9.84-2.18-14.17,2.39-17.13,12.37c-3.7,12.47-2.89,22.09,10.01,22.11
				C344.7,218.85,350.64,187.97,334.3,184.36z"/>
			<path class="st17" d="M323.65,197.58c0,0-1.93,2.27-3.77,3.45c0,0,0.55,1.52,2.35,1.69L323.65,197.58z"/>
			<g>
				<path class="st9" d="M329.85,198.11c-0.2,0.8,0.08,1.56,0.61,1.69c0.54,0.13,1.13-0.41,1.33-1.22c0.2-0.8-0.08-1.56-0.61-1.69
					C330.64,196.76,330.05,197.31,329.85,198.11z"/>
				<path class="st9" d="M331.39,196.99l-1.58-1.12C329.81,195.87,330.32,197.56,331.39,196.99z"/>
			</g>
			<g>
				<path class="st9" d="M319.9,195.48c-0.2,0.8,0.08,1.56,0.61,1.69c0.54,0.13,1.13-0.41,1.33-1.22c0.2-0.8-0.08-1.56-0.61-1.69
					C320.69,194.14,320.1,194.68,319.9,195.48z"/>
				<path class="st9" d="M321.44,194.36l-1.58-1.12C319.86,193.25,320.37,194.93,321.44,194.36z"/>
			</g>
			<path class="st18" d="M331.45,191.34c0,0,2.84,0.25,3.94,2.43"/>
			<path class="st18" d="M324.39,189.34c0,0-1.6-1.03-4.1-0.06"/>
			<path class="st9" d="M341.39,203.32c0,0-2.81-9.1-0.73-15.18c0,0-17.73-12.28-23.07,7.3c0,0,1.98-17.99,18.98-14.64
				c16.97,3.35,11.45,28.07,1.09,33.51C337.65,214.3,343.11,209,341.39,203.32z"/>
			<path class="st12" d="M339.32,205.04c0.42-1.57,2.64-3.89,5.52-2.91c2.97,1.01,3.04,7.59-4.87,7.41
				C338.83,209.51,338.45,208.31,339.32,205.04z"/>
			<g>
				<path class="st9" d="M320.47,206.45c0.35,1.3,0.51,3.66,0.51,3.66c0.22,0.02,0.43,0.05,0.65,0.06c2.94,0.25,4.38-0.6,5.09-1.63
					c0.39-0.56,0.55-1.18,0.61-1.69c0.08-0.59,0-1.03,0-1.03c-1.64,0.8-4.39,0.78-5.86,0.7
					C320.86,206.5,320.47,206.45,320.47,206.45z"/>
				<path class="st16" d="M321.48,206.52l0.18,1.07c2.77,0.23,4.75,0.02,5.68-0.75c0.08-0.59,0-1.03,0-1.03
					C325.7,206.62,322.95,206.59,321.48,206.52z"/>
				<path class="st17" d="M321.63,210.17c2.94,0.25,4.38-0.6,5.09-1.63c-1-0.05-2.22,0.01-3.32,0.37
					C322.57,209.18,322.02,209.66,321.63,210.17z"/>
			</g>
			<path class="st9" d="M334.34,185.15c0,0,0.38,17.06,10.62,19.11c10.24,2.05-0.95-21.93-0.95-21.93s-15.24-9.96-25.4-2.94
				c-10.16,7.02-1.02,16.04-1.02,16.04S319.73,182.75,334.34,185.15z"/>
			<path class="st19" d="M334.7,184.02c0,0-3.65,10.79,3.56,16.45"/>
		</g>
		<g>
			<path class="st13" d="M347.95,207.77c-1.3,3.47-4.65,5.42-7.47,4.36c-2.82-1.06-4.05-4.73-2.75-8.2c1.3-3.47,4.65-5.42,7.47-4.36
				C348.02,200.63,349.25,204.3,347.95,207.77z"/>
			<path class="st14" d="M347.95,207.77c-1.3,3.47-4.65,5.42-7.47,4.36c-2.82-1.06-4.05-4.73-2.75-8.2c1.3-3.47,4.65-5.42,7.47-4.36
				C348.02,200.63,349.25,204.3,347.95,207.77z"/>
			<path class="st13" d="M344.69,202.08c0,0,4.24-18.99-5.27-23.97c0,0,1.98,0.27,3.21,0.63c1.23,0.36,8.83,8.06,4.99,25.13
				L344.69,202.08z"/>
			<path class="st14" d="M344.69,202.08c0,0,4.24-18.99-5.27-23.97c0,0,1.98,0.27,3.21,0.63c1.23,0.36,8.83,8.06,4.99,25.13
				L344.69,202.08z"/>
			<g>
				<g>
					<path class="st13" d="M326.85,212.95c-0.24-0.03-0.47-0.07-0.71-0.11l0.19-1.17c8.56,1.39,14.94-3.14,15-3.18l0.7,0.95
						C341.76,209.64,335.57,214.09,326.85,212.95z"/>
				</g>
				<g class="st6">
					<path class="st14" d="M326.85,212.95c-0.24-0.03-0.47-0.07-0.71-0.11l0.19-1.17c8.56,1.39,14.94-3.14,15-3.18l0.7,0.95
						C341.76,209.64,335.57,214.09,326.85,212.95z"/>
				</g>
			</g>
			<path class="st13" d="M347.55,207.29c-0.86,2.29-3.07,3.59-4.94,2.88c-1.87-0.7-2.68-3.13-1.82-5.42
				c0.86-2.29,3.07-3.58,4.94-2.88C347.6,202.57,348.41,205,347.55,207.29z"/>
			<g>
				<path class="st13" d="M325.79,213.33l-0.95-0.12c-0.7-0.09-1.2-0.74-1.11-1.44l0,0c0.09-0.7,0.74-1.2,1.44-1.11l0.95,0.12
					c0.7,0.09,1.2,0.74,1.11,1.44l0,0C327.14,212.93,326.5,213.43,325.79,213.33z"/>
				<path class="st14" d="M325.79,213.33l-0.95-0.12c-0.7-0.09-1.2-0.74-1.11-1.44l0,0c0.09-0.7,0.74-1.2,1.44-1.11l0.95,0.12
					c0.7,0.09,1.2,0.74,1.11,1.44l0,0C327.14,212.93,326.5,213.43,325.79,213.33z"/>
			</g>
		</g>
		<polygon class="st13" points="338.58,225.01 331.56,231.91 334.37,240.36 344.14,229.61 		"/>
		<polygon class="st13" points="328.43,226.46 329.56,231.76 325.92,239.27 323.66,229.52 		"/>
		<path class="st12" d="M337.08,231l4.08-14.93c0,0-1.98-3.72-1.55-4.5c0.43-0.78,2.55-10.8,4.06-11.89
			c1.51-1.09,7.73,0.77,8.36,1.79c0.63,1.02-5.96,14.6-5.96,14.6l-2.4,16.17L337.08,231z"/>
		<g>
			<path class="st13" d="M361.24,233.51c11.22,11.49-11.27,37.51-24.16,36.4c-12.89-1.11,0.32-48.29,0.32-48.29l8.25,1.36
				c0,0-2.9,20.42-1.98,22.02C344.58,246.59,357.46,229.64,361.24,233.51z"/>
			<path class="st14" d="M361.24,233.51c11.22,11.49-11.27,37.51-24.16,36.4c-12.89-1.11,0.32-48.29,0.32-48.29l8.25,1.36
				c0,0-2.9,20.42-1.98,22.02C344.58,246.59,357.46,229.64,361.24,233.51z"/>
			<polygon class="st13" points="336.72,220.1 335.5,224 347,225.01 347,221.61 			"/>
		</g>
		<g>
			<path class="st11" d="M319.44,261.62h-4.95c-0.44,0-0.79-0.35-0.79-0.79v-9.08c0-0.44,0.35-0.79,0.79-0.79h4.95
				c0.44,0,0.79,0.35,0.79,0.79v9.08C320.23,261.27,319.88,261.62,319.44,261.62z"/>
			<rect x="314.09" y="251.66" class="st14" width="5.3" height="7.25"/>
			<rect x="316.27" y="248.39" class="st9" width="1.17" height="4.27"/>
		</g>
		<path class="st13" d="M220.19,432.22c1.18-0.54,2.45-0.87,3.75-0.95l0,0c0,0,4.49-2.64,8.94-12.91l5-0.03
			c1.73,0.02,3.27,1.12,3.84,2.75c0.08,0.22,0.13,0.46,0.14,0.69c-0.05,1.21-0.18,2.41-0.38,3.61c-0.45,3.74-2.92,11.77-2.92,11.77
			l-0.85-0.22l1.54-7.47c0.51-2.54-2.15-0.09-3.39,2.47c-1.24,2.56-3.13,5.13-8.66,3.87C220.77,434.3,218.18,433.38,220.19,432.22z"
			/>
		<path class="st12" d="M233.79,415.67c0,0-6.25,13.07-9.84,15.6c0,0,4.82,2.88,9.84-3.52c6.49-8.28,8.08-5.96,8.08-5.96
			s-0.28-2.83-0.78-4.22C240.11,414.89,233.79,415.67,233.79,415.67z"/>
		<path class="st13" d="M289,463.36c1.02-0.81,2.18-1.42,3.42-1.82l0,0c0,0,3.73-3.63,5.62-14.66l4.85-1.21
			c1.69-0.39,3.44,0.31,4.39,1.76c0.13,0.2,0.23,0.41,0.3,0.64c0.24,1.19,0.4,2.39,0.48,3.59c0.45,3.74-0.05,12.13-0.05,12.13
			l-0.87-0.01l-0.27-7.62c-0.1-2.59-2.11,0.43-2.71,3.2c-0.59,2.78-1.83,5.73-7.49,5.81C290.06,465.25,287.32,464.97,289,463.36z"/>
		<path class="st12" d="M298.28,444.06c0,0-2.97,14.18-5.86,17.48c0,0,5.37,1.65,8.73-5.76c4.35-9.58,6.44-7.71,6.44-7.71
			s-0.94-2.69-1.76-3.91C304.24,441.8,298.28,444.06,298.28,444.06z"/>
	</g>
</g>
<g id="Speech_bubble">
	<g>
		<path class="st20" d="M409.1,187.63h-43.11c-2.8,0-5.07-2.27-5.07-5.07v-19.5c0-2.8,2.27-5.07,5.07-5.07h43.11
			c2.8,0,5.07,2.27,5.07,5.07v19.5C414.16,185.36,411.89,187.63,409.1,187.63z"/>
		<polygon class="st20" points="375.19,184.25 362.76,201.15 382.82,185.39 		"/>
		<g>
			<path class="st16" d="M375.65,172.82c0,0.96-0.78,1.74-1.74,1.74s-1.74-0.78-1.74-1.74s0.78-1.74,1.74-1.74
				S375.65,171.85,375.65,172.82z"/>
			<path class="st16" d="M384.74,172.82c0,0.96-0.78,1.74-1.74,1.74s-1.74-0.78-1.74-1.74s0.78-1.74,1.74-1.74
				S384.74,171.85,384.74,172.82z"/>
			<path class="st16" d="M393.83,172.82c0,0.96-0.78,1.74-1.74,1.74s-1.74-0.78-1.74-1.74s0.78-1.74,1.74-1.74
				S393.83,171.85,393.83,172.82z"/>
			<path class="st16" d="M402.92,172.82c0,0.96-0.78,1.74-1.74,1.74s-1.74-0.78-1.74-1.74s0.78-1.74,1.74-1.74
				S402.92,171.85,402.92,172.82z"/>
		</g>
	</g>
</g>
<g id="Bird">
	<g>
		<g>
			<path class="st5" d="M242.55,164.45l-29.87-16.09c-0.67-0.36-0.93-1.2-0.56-1.88l9.62-17.87c0.36-0.67,1.2-0.93,1.88-0.56
				l29.87,16.09c0.67,0.36,0.93,1.2,0.56,1.88l-9.62,17.87C244.06,164.56,243.22,164.81,242.55,164.45z"/>
			<path class="st21" d="M242.55,164.45l-29.87-16.09c-0.67-0.36-0.93-1.2-0.56-1.88l9.62-17.87c0.36-0.67,1.2-0.93,1.88-0.56
				l29.87,16.09c0.67,0.36,0.93,1.2,0.56,1.88l-9.62,17.87C244.06,164.56,243.22,164.81,242.55,164.45z"/>
			<path class="st6" d="M220.84,130.28l9.21,17.19c0.72,1.34,2.17,2.11,3.68,1.96l19.16-1.89l-19.51,2.87
				c-1.75,0.26-3.46-0.66-4.21-2.27L220.84,130.28z"/>
		</g>
		<g>
			<path class="st5" d="M198.49,127.08c0.31-6.58,5.18-19.82,11.1-23.88c5.92-4.05,2.03,1.56,2.03,1.56s5.61-5.45,8.57-5.3
				c2.96,0.16,0,3.58,0,3.58s6.08-3.75,8.88-3.59c2.81,0.16,0,3.43,0,3.43s4.99-3.58,7.01-1.87c2.03,1.71-25.87,20.1-28.99,27.59
				C203.98,136.09,198.17,133.73,198.49,127.08z"/>
			<path class="st22" d="M198.49,127.08c0.31-6.58,5.18-19.82,11.1-23.88c5.92-4.05,2.03,1.56,2.03,1.56s5.61-5.45,8.57-5.3
				c2.96,0.16,0,3.58,0,3.58s6.08-3.75,8.88-3.59c2.81,0.16,0,3.43,0,3.43s4.99-3.58,7.01-1.87c2.03,1.71-25.87,20.1-28.99,27.59
				C203.98,136.09,198.17,133.73,198.49,127.08z"/>
		</g>
		<g>
			<path class="st5" d="M222.45,126.11l3.73,2.39c0.27,0.17,0.13,0.59-0.19,0.56l-3.91-0.3l0.34,3c0.04,0.33-0.37,0.51-0.59,0.26
				l-2.26-2.56L222.45,126.11z"/>
			<path class="st10" d="M222.45,126.11l3.73,2.39c0.27,0.17,0.13,0.59-0.19,0.56l-3.91-0.3l0.34,3c0.04,0.33-0.37,0.51-0.59,0.26
				l-2.26-2.56L222.45,126.11z"/>
		</g>
		<g>
			<path class="st5" d="M170.16,111.31c0,0,5.14-3.59,12.94-1.25c0,0,2.24,10.29,8.37,13.71c3.36,1.88,11.61,1.72,18.13-0.39
				c7.74-2.51,11.53-2.51,12.94,0.39c1.33,2.74-0.16,5.92-6.08,7.32c-5.92,1.4-10.6,11.69-21.35,11.84
				c-10.75,0.16-16.41-10.63-13.71-20.1C181.38,122.84,178.11,115.77,170.16,111.31z"/>
			<path class="st7" d="M170.16,111.31c0,0,5.14-3.59,12.94-1.25c0,0,2.24,10.29,8.37,13.71c3.36,1.88,11.61,1.72,18.13-0.39
				c7.74-2.51,11.53-2.51,12.94,0.39c1.33,2.74-0.16,5.92-6.08,7.32c-5.92,1.4-10.6,11.69-21.35,11.84
				c-10.75,0.16-16.41-10.63-13.71-20.1C181.38,122.84,178.11,115.77,170.16,111.31z"/>
		</g>
		<path class="st9" d="M219.57,125.72c0,0.29-0.24,0.53-0.53,0.53c-0.29,0-0.53-0.24-0.53-0.53s0.24-0.53,0.53-0.53
			C219.33,125.2,219.57,125.43,219.57,125.72z"/>
		<path class="st5" d="M192.6,134.38c-6.35,1.73-20.46,1.19-26.14-3.19c-5.68-4.38,0.86-2.41,0.86-2.41s-6.92-3.65-7.69-6.52
			c-0.77-2.86,3.41-1.11,3.41-1.11s-5.44-4.62-6.15-7.34c-0.71-2.72,3.26-1.06,3.26-1.06s-4.95-3.64-3.94-6.09
			c1.01-2.46,27.11,18.4,35.19,19.06C199.48,126.37,199.03,132.63,192.6,134.38z"/>
		<path class="st22" d="M192.6,134.38c-6.35,1.73-20.46,1.19-26.14-3.19c-5.68-4.38,0.86-2.41,0.86-2.41s-6.92-3.65-7.69-6.52
			c-0.77-2.86,3.41-1.11,3.41-1.11s-5.44-4.62-6.15-7.34c-0.71-2.72,3.26-1.06,3.26-1.06s-4.95-3.64-3.94-6.09
			c1.01-2.46,27.11,18.4,35.19,19.06C199.48,126.37,199.03,132.63,192.6,134.38z"/>
		<g>
			<g>
				<path class="st23" d="M151,105.19c-0.94-0.33-1.89-0.65-2.85-0.95"/>
				<path class="st24" d="M142.31,102.66c-4.65-1.07-9.4-1.74-14.12-2.07c-11.49-0.8-29.51-1.94-36.54,9.51
					c-6.41,10.43,4.62,28.24,8.54,37.93c4.8,11.87,10.5,26.54,4.83,39.1c-11.79,26.13-62.75,12.07-78.94-12.25"/>
				<path class="st23" d="M24.51,172.29c-0.49-0.89-0.92-1.79-1.31-2.7"/>
			</g>
		</g>
	</g>
</g>
<g id="Desk">
	<g>
		<g>
			<rect x="123.45" y="266.61" class="st16" width="44.86" height="9.2"/>
			<rect x="123.45" y="266.61" class="st25" width="44.86" height="9.2"/>
			<rect x="123.45" y="266.61" class="st25" width="18.89" height="9.2"/>
			<polygon class="st25" points="123.45,267.93 163.39,267.93 123.45,269.06 			"/>
			<polygon class="st25" points="168.31,269.53 133.7,270.39 168.31,270.39 			"/>
			<polygon class="st25" points="125.28,272.1 142.35,271.4 167.44,272.1 142.35,272.49 			"/>
			<polygon class="st25" points="123.45,274.05 153.02,274.05 123.45,274.75 			"/>
			<polygon class="st25" points="168.25,274.75 148.5,275.12 168.31,275.12 			"/>
		</g>
		<g>
			<rect x="117.21" y="257.41" class="st16" width="44.86" height="9.2"/>
			<rect x="117.21" y="257.41" class="st25" width="44.86" height="9.2"/>
			<rect x="117.21" y="257.41" class="st25" width="18.89" height="9.2"/>
			<polygon class="st25" points="117.21,258.73 157.14,258.73 117.21,259.86 			"/>
			<polygon class="st25" points="162.07,260.33 127.45,261.19 162.07,261.19 			"/>
			<polygon class="st25" points="119.04,262.9 136.1,262.2 161.19,262.9 136.1,263.29 			"/>
			<polygon class="st25" points="117.21,264.85 146.78,264.85 117.21,265.55 			"/>
			<polygon class="st25" points="162.01,265.55 142.26,265.92 162.07,265.92 			"/>
		</g>
		<g>
			<rect x="122.33" y="248.21" class="st16" width="44.86" height="9.2"/>
			<rect x="122.33" y="248.21" class="st25" width="44.86" height="9.2"/>
			<rect x="122.33" y="248.21" class="st25" width="18.89" height="9.2"/>
			<polygon class="st25" points="122.33,249.53 162.26,249.53 122.33,250.66 			"/>
			<polygon class="st25" points="167.19,251.13 132.58,251.99 167.19,251.99 			"/>
			<polygon class="st25" points="124.16,253.7 141.22,253 166.32,253.7 141.22,254.09 			"/>
			<polygon class="st25" points="122.33,255.65 151.9,255.65 122.33,256.35 			"/>
			<polygon class="st25" points="167.13,256.35 147.38,256.72 167.19,256.72 			"/>
		</g>
		<g>
			<polygon class="st9" points="197.08,275.62 198.24,271.21 246.17,271.21 268.24,273.41 269.08,275.62 			"/>
			<polygon class="st26" points="246.17,271.21 246.17,275.62 197.08,275.62 198.24,271.21 			"/>
		</g>
		<g>
			<path class="st9" d="M236.54,250.11c0.21,2.33-1.49,4.22-3.81,4.22h-73.42c-2.33,0-4.38-1.89-4.6-4.22l-4.36-47
				c-0.05-0.48-0.01-0.95,0.09-1.37c0.41-1.65,1.87-2.85,3.71-2.85h73.42c2.33,0,4.38,1.89,4.6,4.22L236.54,250.11z"/>
			<path class="st26" d="M232.48,254.33h-73.16c-2.33,0-4.38-1.89-4.6-4.22l-4.36-47c-0.05-0.48-0.01-0.95,0.09-1.37h73.16
				c2.32,0,4.37,1.89,4.6,4.22l4.36,47C232.62,253.44,232.58,253.9,232.48,254.33z"/>
			<polygon class="st9" points="182.04,225.5 197.23,225.5 193.18,268.98 217.2,272.59 217.2,275.62 166.61,275.62 166.61,272.59 
				176.97,268.98 			"/>
			<polygon class="st27" points="197.23,225.5 185.97,274.93 176.97,274.66 182.04,225.5 			"/>
		</g>
		<g>
			<g>
				<polygon class="st9" points="197.16,465.2 189.92,465.2 176.91,284.08 186.51,284.08 				"/>
				<polygon class="st22" points="197.16,465.2 189.92,465.2 177.54,293.08 176.9,284.37 186.51,284.37 187.03,293.08 				"/>
				<polygon class="st6" points="187.03,292.64 177.54,292.64 176.9,284.37 186.51,284.37 				"/>
			</g>
			<g>
				<polygon class="st9" points="250.29,465.2 243.05,465.2 241.87,284.08 251.48,284.08 				"/>
				<polygon class="st7" points="251.48,284.37 251.29,313.59 250.3,465.2 243.05,465.2 242.06,313.59 241.87,284.37 				"/>
				<polygon class="st6" points="251.48,284.37 251.29,313.92 242.06,313.92 241.87,284.37 				"/>
			</g>
			<g>
				<polygon class="st9" points="327.16,465.2 319.92,465.2 306.91,284.08 316.52,284.08 				"/>
				<polygon class="st7" points="327.17,465.2 319.92,465.2 307.55,293.08 306.91,284.37 316.52,284.37 317.04,293.08 				"/>
				<polygon class="st6" points="317.04,292.64 307.55,292.64 306.91,284.37 316.52,284.37 				"/>
			</g>
			<g>
				<polygon class="st9" points="114.33,465.2 107.09,465.2 117.73,284.08 127.34,284.08 				"/>
				<polygon class="st7" points="127.34,284.37 126.7,293.08 114.32,465.2 107.09,465.2 117.21,293.08 117.73,284.37 				"/>
				<polygon class="st6" points="117.73,284.37 127.34,284.37 126.7,292.64 117.21,292.64 				"/>
			</g>
			<g>
				<path class="st9" d="M321.97,288.62H112.28c-1.19,0-2.16-0.97-2.16-2.16v-6.91h214.01v6.91
					C324.13,287.65,323.16,288.62,321.97,288.62z"/>
				<path class="st7" d="M321.97,288.98H112.28c-1.19,0-2.16-0.97-2.16-2.16v-6.91h214.01v6.91
					C324.13,288.01,323.16,288.98,321.97,288.98z"/>
			</g>
			<rect x="110.12" y="279.54" class="st6" width="214.01" height="4.54"/>
			<g>
				<path class="st9" d="M328.62,280.73H105.63c-1.41,0-2.56-1.14-2.56-2.56l0,0c0-1.41,1.14-2.56,2.56-2.56h222.99
					c1.41,0,2.56,1.14,2.56,2.56l0,0C331.18,279.58,330.03,280.73,328.62,280.73z"/>
			</g>
		</g>
		<g>
			<path class="st5" d="M275.86,267.74l2.75-4.11c0.55-0.82,1.47-1.31,2.45-1.31h3.48c0.29,0,0.58,0.04,0.86,0.13l12.4,3.76
				c0.7,0.21,1.3,0.68,1.68,1.32l1.78,2.99L275.86,267.74z"/>
			<path class="st6" d="M301.25,270.51l-18.05-1.96l-7.34-0.8l2.74-4.11c0.54-0.82,1.47-1.31,2.46-1.31h3.47
				c0.3,0,0.58,0.05,0.86,0.13l0.27,0.08l12.11,3.68c0.71,0.21,1.31,0.67,1.69,1.31L301.25,270.51z"/>
			<path class="st6" d="M301.25,270.51l-18.05-1.96l2.47-6.02l12.11,3.68c0.71,0.21,1.31,0.67,1.69,1.31L301.25,270.51z"/>
			<path class="st5" d="M309.83,275.23v0.39H294.1h-22.59l1.42-5.54c0.56-2.08,2.45-3.53,4.6-3.53h17c0.57,0,1.12,0.09,1.65,0.3
				l2.13,0.79l8.44,3.14C308.6,271.47,309.83,273.24,309.83,275.23z"/>
			<path class="st6" d="M309.83,275.23v0.39H294.1l0,0l0.84-5.99c0.22-1.58,1.87-2.55,3.37-2l8.44,3.14
				C308.6,271.47,309.83,273.24,309.83,275.23z"/>
			<path class="st9" d="M296.55,271.54l5-15.02c0.22-0.65,0.96-0.95,1.57-0.64l0,0c0.46,0.24,0.7,0.77,0.57,1.27l-4.21,16.03
				C299.47,273.19,296.67,274.33,296.55,271.54z"/>
			<polygon class="st6" points="275.86,274.37 273.64,274.37 274.07,272.19 276.29,272.19 			"/>
			<polygon class="st6" points="279.17,274.28 276.95,274.28 277.38,272.1 279.6,272.1 			"/>
		</g>
	</g>
	<rect x="-75.61" y="-58.05" class="st15" width="41.87" height="41.87"/>
	<rect x="-75.61" y="-9.97" class="st20" width="41.87" height="41.87"/>
	<rect x="-75.61" y="38.11" class="st14" width="41.87" height="41.87"/>
	<rect x="-75.61" y="86.19" class="st13" width="41.87" height="41.87"/>
</g>
</svg>
