<svg width="1440" height="552" viewBox="0 0 1440 552" fill="none" xmlns="http://www.w3.org/2000/svg">
<g clip-path="url(#clip0_808_5611)">
<path d="M1595.89 550.549H-72.8691L88.9809 121.839C102.931 84.8787 165.931 59.7087 234.701 63.6087L1312.04 124.789C1368.49 127.999 1415.19 150.189 1428.77 180.269L1595.89 550.549Z" fill="#E3EEFD"/>
<path d="M395.012 72.0781V154.518C395.012 160.438 400.302 165.228 406.822 165.228C568.522 159.298 558.952 194.538 557.612 87.4881L395.012 72.0781Z" fill="#A4C4FF"/>
<path d="M1393.17 179.099C1389.23 180.769 1385.51 182.829 1382.04 185.259L1370.44 173.659L1352.46 191.639L1364.7 203.879C1361.32 209.519 1358.84 215.819 1357.48 222.239H1339.79V247.669H1357.48C1358.85 254.089 1361.33 260.389 1364.7 266.029L1352.46 278.269L1370.44 296.249L1382.04 284.649C1387.76 288.659 1394.28 291.709 1401.04 293.519V308.929H1426.46V294.809C1432.06 293.909 1437.55 292.209 1442.7 289.749V269.359C1415.59 290.929 1372.77 269.679 1373.68 234.949C1372.77 200.229 1415.6 178.959 1442.7 200.539V180.149C1437.55 177.689 1432.06 175.989 1426.46 175.089V160.969H1401.04V176.379C1398.37 177.109 1395.74 178.009 1393.17 179.099Z" fill="#A4C4FF"/>
<path d="M1322.57 154.922V148.602H1311.2V155.492C1308.18 156.302 1305.26 157.662 1302.7 159.462L1297.51 154.272L1289.47 162.312L1294.95 167.792C1293.44 170.312 1292.33 173.132 1291.72 176.002H1283.8V187.382H1291.72C1292.33 190.252 1293.44 193.072 1294.95 195.592L1289.47 201.072L1297.51 209.112L1302.7 203.922C1305.26 205.712 1308.18 207.082 1311.2 207.892V214.782H1322.57V208.462C1325.92 207.932 1329.21 206.722 1332.13 204.982L1336.26 209.112L1344.3 201.072L1340.46 197.232C1342.52 194.302 1344.01 190.892 1344.75 187.382H1349.97V176.002H1344.75C1344 172.492 1342.52 169.082 1340.46 166.152L1344.3 162.312L1336.26 154.272L1332.13 158.402C1329.21 156.662 1325.92 155.452 1322.57 154.922ZM1337.51 181.702C1336.74 207.182 1299.72 207.182 1298.96 181.702C1299.73 156.222 1336.74 156.222 1337.51 181.702Z" fill="#A4C4FF"/>
<path d="M1076.34 194.218V187.898H1064.97V194.788C1061.95 195.598 1059.03 196.958 1056.47 198.758L1051.28 193.568L1043.24 201.608L1048.72 207.088C1047.21 209.608 1046.1 212.428 1045.49 215.298H1037.57V226.678H1045.49C1046.1 229.548 1047.21 232.368 1048.72 234.888L1043.24 240.368L1051.28 248.408L1056.47 243.218C1059.03 245.008 1061.95 246.378 1064.97 247.188V254.078H1076.34V247.758C1079.69 247.228 1082.98 246.018 1085.9 244.278L1090.03 248.408L1098.07 240.368L1094.23 236.528C1096.29 233.598 1097.78 230.188 1098.52 226.678H1103.74V215.298H1098.52C1097.77 211.788 1096.29 208.378 1094.23 205.448L1098.07 201.608L1090.03 193.568L1085.9 197.698C1082.98 195.948 1079.69 194.748 1076.34 194.218ZM1091.28 220.988C1090.51 246.468 1053.49 246.468 1052.73 220.988C1053.49 195.508 1090.51 195.518 1091.28 220.988Z" fill="#A4C4FF"/>
<path d="M527.77 458.429V452.109H516.4V458.999C513.38 459.809 510.46 461.169 507.9 462.969L502.71 457.779L494.67 465.819L500.15 471.299C498.64 473.819 497.53 476.639 496.92 479.509H489V490.889H496.92C497.53 493.759 498.64 496.579 500.15 499.099L494.67 504.579L502.71 512.619L507.9 507.429C510.46 509.219 513.38 510.589 516.4 511.399V518.289H527.77V511.969C531.12 511.439 534.41 510.229 537.33 508.489L541.46 512.619L549.5 504.579L545.66 500.739C547.72 497.809 549.21 494.399 549.95 490.889H555.17V479.509H549.95C549.2 475.999 547.72 472.589 545.66 469.659L549.5 465.819L541.46 457.779L537.33 461.909C534.41 460.159 531.12 458.959 527.77 458.429ZM542.7 485.199C541.93 510.679 504.91 510.679 504.15 485.199C504.92 459.719 541.94 459.729 542.7 485.199Z" fill="#A4C4FF"/>
<path d="M1059.85 373.95H1076.03C1071.27 310.32 1164.89 310.36 1160.11 373.95H1180.9L1205.01 545.65H1029.08L1059.85 373.95ZM1152.54 367.18C1149.82 317.92 1078 324.97 1083.59 373.94H1152.54V367.18Z" fill="#A4C4FF"/>
<path d="M1204.5 527.5C1123.02 478.523 1121.78 467.266 1107.5 374H1060L1029 545.5H1204.5V527.5Z" fill="#739BFD"/>
<path d="M1261.17 323.094L1247.62 349.714L1267.83 351.804L1261.17 323.094Z" fill="#DF4930"/>
<path d="M1237.88 292.773L1256.06 335.243L1241.69 337.973L1232.42 302.813L1237.88 292.773Z" fill="#FFB6A6"/>
<path d="M1234.17 314.555C1234.17 314.555 1242.86 327.345 1254.13 326.825L1259.1 337.445L1238 335.045L1234.17 314.555Z" fill="#FF8370"/>
<path d="M1230.39 288.008L1225.31 301.108C1224.95 302.038 1225.49 303.068 1226.45 303.298L1231.79 304.598C1232.59 304.798 1233.42 304.358 1233.71 303.588L1239.63 288.208L1230.39 288.008Z" fill="#38385C"/>
<path d="M1207.19 255.438L1242.12 279.467C1243.77 280.587 1244.56 282.617 1244.08 284.557C1243.58 286.627 1241.76 288.117 1239.64 288.207L1197.95 290.027L1207.19 255.438Z" fill="#FF8370"/>
<path d="M1202.71 272.586C1203.45 269.036 1208.51 268.196 1210.39 271.226C1213.65 249.436 1197.67 249.656 1192.88 270.196C1187.7 290.646 1201.79 298.176 1208.91 277.326C1205.85 279.146 1201.74 276.076 1202.71 272.586Z" fill="#38385C"/>
<path d="M1210.39 271.223C1208.51 268.193 1203.45 269.033 1202.71 272.583C1201.73 276.073 1205.84 279.143 1208.9 277.323C1209.56 275.393 1210.08 273.233 1210.39 271.223Z" fill="#F85C3D"/>
<path d="M1222.94 266.266C1222.94 266.266 1226.15 275.936 1217.36 289.186L1221.87 288.986C1221.87 288.986 1228.78 282.226 1227.5 269.406L1222.94 266.266Z" fill="#38385C"/>
<path d="M1241.25 300.643C1241.25 300.643 1240.02 291.573 1238.57 290.693C1234.04 287.963 1230.65 288.833 1231.22 290.193C1231.48 290.813 1235.09 293.293 1235.09 293.293C1235.09 293.293 1234.91 300.493 1234.72 300.993C1234.26 302.213 1241.25 300.643 1241.25 300.643Z" fill="#FFB6A6"/>
<path d="M1229.25 290.648C1229.25 290.648 1233.72 291.948 1233.72 292.608C1233.72 293.268 1231.01 298.748 1230.23 298.928C1229.45 299.108 1226.44 298.718 1226.26 298.348C1225.14 296.658 1227.82 291.418 1229.25 290.648Z" fill="#FFB6A6"/>
<path d="M1345.52 519.055C1345.52 519.055 1340.5 525.895 1332.28 520.605L1319.37 538.335C1317.57 540.945 1317.6 544.405 1319.45 546.975L1349.49 529.075C1350.55 528.445 1351.39 526.975 1351.39 525.705C1351.65 524.155 1346.29 520.135 1345.52 519.055Z" fill="#38385C"/>
<path d="M1329.62 512.463L1333.49 521.313C1333.49 521.313 1340.61 525.223 1345.52 519.053L1340.44 506.203L1329.62 512.463Z" fill="#FFB6A6"/>
<path d="M1332.28 520.603L1344.31 513.283L1341.88 506.773L1328.6 514.373L1332.28 520.603Z" fill="#FF8370"/>
<path d="M1317.87 432.68C1328.82 381.24 1308.71 373.43 1308.71 373.43H1272.88L1249.8 520.64L1268.94 522.18C1269.94 520.22 1289.21 440.61 1292.29 442.45L1328.17 516.15L1346.01 510.42L1317.87 432.68Z" fill="#38385C"/>
<path d="M1292.28 442.458L1278.17 408.078C1278.17 408.078 1278.18 438.368 1288.83 447.808L1292.28 442.458Z" fill="#1A1A35"/>
<path d="M1272.13 269.516C1285.32 256.356 1304.58 300.526 1305.62 301.816C1351.34 324.116 1304.85 345.056 1272.14 332.766C1263.48 330.556 1257.17 323.096 1256.47 314.186C1255.2 297.776 1255.97 272.686 1272.13 269.516Z" fill="#38385C"/>
<path d="M1263.81 289.22C1267.19 257.38 1298.32 277.96 1284.71 300.37L1287.96 316.38L1275.88 318.5L1274.29 305.42C1268.38 304.36 1263.81 297.52 1263.81 289.22Z" fill="#FFB6A6"/>
<path d="M1289.79 290.471C1289.79 290.471 1280.83 288.161 1277.87 285.641L1280.86 288.601C1280.86 288.601 1271.66 286.421 1269.63 280.801C1269.63 280.801 1265.99 285.361 1265.65 289.141C1265.06 284.521 1262.92 274.631 1271.76 273.391L1288.97 287.201L1289.79 290.471Z" fill="#FF8370"/>
<path d="M1284.71 300.367C1284.71 300.367 1281.68 304.477 1275.88 305.257C1275.88 305.257 1282.47 307.127 1286.7 304.967L1284.71 300.367Z" fill="#FF8370"/>
<path d="M1271.44 299.351C1271.44 299.351 1275.47 299.111 1276.91 296.961C1276.91 296.961 1276.28 300.811 1273.91 301.181C1271.65 301.521 1271.44 299.351 1271.44 299.351Z" fill="white"/>
<path d="M1273.74 271.508C1273.74 271.508 1273.14 287.908 1287.96 288.338C1287.96 288.338 1288.53 269.288 1273.74 271.508Z" fill="#38385C"/>
<path d="M1274.24 273.04C1274.24 273.04 1273.85 283.31 1278.18 287.19C1278.18 287.19 1270.33 283.06 1271.58 273.96C1271.58 273.96 1271.95 273.01 1274.24 273.04Z" fill="#38385C"/>
<path d="M1272.82 272.836C1272.82 272.836 1266.34 281.536 1265.95 287.176C1265.95 287.176 1265.72 278.126 1268.53 273.026L1272.82 272.836Z" fill="#38385C"/>
<path d="M1271.44 378.11C1271.44 378.11 1259.35 338.15 1259.78 328.19C1260.2 318.23 1274.44 310.37 1274.44 310.37L1286.52 308.25C1286.52 308.25 1307.51 309.24 1312.02 323.27C1316.53 337.3 1315.95 378.1 1315.95 378.1H1271.44V378.11Z" fill="#F85C3D"/>
<path d="M1261.05 354.828C1261.05 354.828 1301.13 370.158 1321.94 369.868V380.978H1267.83L1261.05 354.828Z" fill="#DF4930"/>
<path d="M1292.27 331.582L1286.11 325.422L1287.87 331.582H1292.27Z" fill="#DF4930"/>
<path d="M1332.88 331.578H1242.77V314.318C1242.77 311.388 1239.55 309.608 1237.07 311.158L1181.43 345.828C1179.09 347.288 1179.09 350.698 1181.43 352.158L1237.07 386.828C1239.55 388.378 1242.77 386.588 1242.77 383.668V366.398H1332.88V331.578Z" fill="#3875FF"/>
<path d="M1278.69 361.797C1278.69 361.797 1273.67 360.917 1273.86 359.917C1274.11 358.647 1283.48 359.217 1283.48 359.217C1287.28 357.097 1323.11 335.747 1326.11 335.047C1331.31 339.827 1337.13 345.077 1330.65 351.857C1329.74 352.667 1328.65 353.277 1327.48 353.627L1287.21 365.717C1287.21 365.717 1280.66 370.557 1279.75 370.647C1274.29 371.177 1271.12 367.087 1270.51 366.397C1269.91 365.707 1278.69 361.797 1278.69 361.797Z" fill="#FFB6A6"/>
<path d="M1333.93 338.234C1333.93 338.234 1330.55 342.634 1310.31 341.444L1328.02 330.484L1333.93 338.234Z" fill="#FF8370"/>
<path d="M1305.54 314.555L1327.57 334.355L1306.71 345.485C1289.27 327.495 1282.83 332.515 1305.54 314.555Z" fill="#F85C3D"/>
<path d="M1292.27 331.578C1292.27 331.578 1305.54 341.018 1314.84 341.158C1324.15 341.308 1314.84 341.158 1314.84 341.158L1306.55 346.958C1306.56 346.958 1293.72 335.338 1292.27 331.578Z" fill="#DF4930"/>
<path d="M1263.69 535.842C1263.69 535.842 1255.93 539.252 1251.45 530.562L1231.4 539.453C1228.54 540.813 1226.83 543.822 1227.14 546.972L1262.11 546.503C1263.34 546.483 1264.8 545.632 1265.44 544.532C1266.44 543.332 1263.81 537.162 1263.69 535.842Z" fill="#38385C"/>
<path d="M1252.83 520.891L1252.14 531.791C1252.14 531.791 1256.35 538.741 1263.68 535.851L1266.15 521.961L1252.83 520.891Z" fill="#FFB6A6"/>
<path d="M1250.66 524.059L1266.38 528.549C1266.38 528.549 1268.46 519.509 1267.66 519.059C1266.86 518.609 1252.14 519.059 1252.14 519.059L1250.66 524.059Z" fill="#FF8370"/>
<path d="M1274.2 378.109C1274.2 378.109 1302.38 389.299 1318.42 386.409C1318.42 386.409 1317.49 382.069 1314.12 378.109H1274.2Z" fill="#1A1A35"/>
<path d="M82.1694 529.767C66.5294 516.027 49.1395 514.347 37.7395 515.197C63.4395 504.987 67.2394 463.307 67.2394 463.307C34.9594 469.117 23.4995 477.987 19.9195 481.777C31.3695 465.957 28.4295 435.047 28.4295 435.047C1.35946 454.947 -5.81055 473.147 -5.81055 473.147L-2.93055 552.637H58.6195C58.6195 552.637 52.9995 549.427 44.9795 545.317C67.4395 538.617 82.1694 529.767 82.1694 529.767Z" fill="#A7BD37"/>
<path d="M-1 485.69C14.91 474.37 28.1 437.34 27.99 434.91C28.14 434.35 29.06 434.57 28.89 435.16C27.62 444.1 9.68 483.61 -1 485.69Z" fill="#3E5409"/>
<path d="M0.0587136 515.238C-0.431286 515.248 -0.591286 514.498 -0.0912864 514.338C24.0687 506.118 66.0087 462.658 67.5687 462.978C67.8587 464.518 23.8187 506.488 0.0587136 515.238Z" fill="#3E5409"/>
<path d="M0.0598849 534.05C-0.420115 534.07 -0.600115 533.32 -0.100115 533.15C25.7899 524 81.8899 528.39 82.6399 529.82C81.5899 531.03 25.7999 524.07 0.0598849 534.05Z" fill="#3E5409"/>
<path d="M1439.46 466.897C1439.46 466.897 1425.2 449.077 1393.55 443.727C1393.55 443.727 1400.69 472.427 1418.65 478.037C1418.65 478.037 1396.58 470.927 1369.64 478.037C1369.64 478.037 1382.36 504.217 1417.9 507.587C1417.9 507.587 1370.76 504.597 1348.69 517.317C1348.69 517.317 1382.74 545.107 1419.4 544.867C1419.4 544.867 1386.85 546.577 1371.51 554.397H1444.56L1439.46 466.897Z" fill="#A7BD37"/>
<path d="M1436.78 477.108C1415.78 468.468 1392.76 444.798 1393.25 443.378C1394.76 443.058 1415.47 468.038 1436.95 476.208C1437.41 476.378 1437.28 477.138 1436.78 477.108Z" fill="#3E5409"/>
<path d="M1436.12 499.528C1432.57 500.758 1373.22 481.458 1369.21 477.878C1370.37 476.888 1420.64 497.768 1436.15 498.598C1436.72 498.628 1436.71 499.538 1436.12 499.528Z" fill="#3E5409"/>
<path d="M1432.68 533.308C1404.84 522.778 1349.05 518.678 1348.23 517.278C1347.74 516.538 1409.31 521.908 1432.68 533.308Z" fill="#3E5409"/>
<path d="M790.23 183.754L783.93 120.224C783.64 117.324 781.06 115.214 778.16 115.494L714.62 121.794C711.72 122.084 709.61 124.664 709.89 127.564L716.19 191.094C716.48 193.994 719.06 196.104 721.96 195.824L736.2 194.414L737.66 204.694C738.06 207.534 741.62 208.594 743.51 206.434L755.74 192.474L785.5 189.524C788.41 189.234 790.52 186.654 790.23 183.754Z" fill="#E3EEFD"/>
<path d="M249.342 532.044L244.942 522.414L232.932 524.814L239.182 537.084C243.662 538.864 250.332 540.284 249.342 532.044Z" fill="#FFB6A6"/>
<path d="M250.542 524.816L232.932 532.046L228.412 522.416L245.172 520.266L250.542 524.816Z" fill="#FF8370"/>
<path d="M238.321 536.805C238.321 536.805 245.311 539.875 249.341 532.055L267.391 540.055C269.971 541.275 271.501 543.985 271.221 546.825C271.161 546.825 239.731 546.405 239.691 546.395C238.581 546.355 237.271 545.575 236.721 544.565C235.861 543.515 238.221 537.945 238.321 536.805Z" fill="#38385C"/>
<path d="M140.322 372.312L138.822 384.742L120.402 411.272L131.872 412.802L149.752 392.562L152.322 372.312H140.322Z" fill="#FFB6A6"/>
<path d="M138.402 374.013L148.242 378.823L147.962 370.563L139.302 370.383L138.402 374.013Z" fill="#FF8370"/>
<path d="M146.572 388.977C146.082 389.587 124.152 411.617 124.152 411.617C124.152 411.617 145.412 403.467 146.572 399.487C147.742 395.507 146.572 388.977 146.572 388.977Z" fill="#FF8370"/>
<path d="M148.302 372.311H138.402L141.842 351.091L150.182 345.461L148.302 372.311Z" fill="#F85C3D"/>
<path d="M154.073 306.227L147.873 325.227C146.753 328.657 149.013 332.257 152.583 332.757L162.423 334.117L165.653 350.127H181.273L169.773 306.227H154.073Z" fill="#FFB6A6"/>
<path d="M147.582 329.91C147.582 329.91 155.272 331.9 163.972 329.07C163.972 329.07 162.072 332.38 162.602 335.03C163.142 337.68 162.602 335.03 162.602 335.03C162.602 335.03 148.782 334.68 147.582 329.91Z" fill="#FF8370"/>
<path d="M150.232 309.658C150.232 309.658 152.202 317.357 167.212 316.767C182.222 316.177 167.212 316.767 167.212 316.767L154.832 304.438L150.232 309.658Z" fill="#FF8370"/>
<path d="M154.741 306.229C154.741 306.229 161.641 315.869 167.201 316.779L168.291 313.299C168.291 313.299 172.581 316.829 169.031 320.679C169.031 320.679 170.461 326.099 175.431 327.879C175.961 324.379 183.411 299.909 174.671 295.009L175.261 298.879C173.641 295.409 165.911 293.619 158.111 293.539L161.201 295.679C155.201 294.089 144.901 297.289 145.711 306.229L149.671 302.249C149.671 302.249 147.061 306.539 149.251 312.099C149.261 312.089 154.081 308.859 154.741 306.229Z" fill="#38385C"/>
<path d="M145.841 413.992L128.631 461.132C124.491 463.122 148.901 521.312 149.261 524.822H165.521L158.101 464.502L168.411 444.762L203.831 483.362L231.111 526.732L248.731 523.082L229.371 471.222L194.191 414.022L145.841 413.992Z" fill="#38385C"/>
<path d="M168.651 414.002C168.651 414.002 156.561 432.232 137.771 436.072C137.771 436.072 167.721 436.472 176.221 413.992L168.651 414.002Z" fill="#1A1A35"/>
<path d="M141.842 414.035H196.242L189.972 350.245C188.112 335.945 174.932 336.355 163.702 336.815C156.112 336.815 149.742 342.525 148.902 350.065L141.842 414.035Z" fill="#F85C3D"/>
<path d="M157.612 425.173C181.492 405.873 184.732 367.763 164.452 344.703L134.662 309.383L112.392 328.163C126.742 348.013 167.572 377.493 138.822 402.903C108.942 426.953 86.692 381.673 69.602 364.233L47.332 383.013L77.122 418.333C96.432 442.203 134.552 445.443 157.612 425.173Z" fill="#38385C"/>
<path d="M112.394 328.176L134.664 309.398L122.674 295.179L100.404 313.956L112.394 328.176Z" fill="#F85C3D"/>
<path d="M118.752 322.814L106.762 308.594L100.402 313.954L112.402 328.164L118.752 322.814Z" fill="#DF4930"/>
<path d="M47.3372 383.035L69.6074 364.258L57.6177 350.038L35.3474 368.815L47.3372 383.035Z" fill="#F85C3D"/>
<path d="M63.6322 369.283L51.4922 355.183L57.6222 350.023L69.6122 364.233L63.6322 369.283Z" fill="#DF4930"/>
<path d="M186.652 342.242L210.322 375.422L189.662 388.972L186.652 342.242Z" fill="#F85C3D"/>
<path d="M150.561 411.035C150.371 410.255 160.561 406.475 160.561 406.475L203.821 379.695C206.531 384.445 211.891 390.625 208.661 395.765C207.461 398.165 205.411 400.025 202.911 400.985L166.151 414.965C160.241 421.405 159.881 424.415 150.571 420.165C150.361 419.845 153.341 415.815 156.101 412.205C153.291 412.565 150.711 411.695 150.561 411.035Z" fill="#FFB6A6"/>
<path d="M188.191 388.973C188.191 388.973 205.591 387.463 207.001 383.423L202.661 377.062L188.191 388.973Z" fill="#FF8370"/>
<path d="M188.581 389.124L173.961 360.594C173.961 360.594 181.291 376.794 175.771 397.054L188.581 389.124Z" fill="#DF4930"/>
<path d="M163.771 536.808L161.421 524.828H150.381L153.431 534.418C153.421 534.408 158.491 540.108 163.771 536.808Z" fill="#FFB6A6"/>
<path d="M163.771 530.146L150.191 527.186L149.311 523.936L162.421 523.516L163.771 530.146Z" fill="#FF8370"/>
<path d="M163.771 536.805C163.771 536.805 156.781 539.875 152.751 532.055L134.701 540.055C132.121 541.275 130.591 543.985 130.871 546.825L162.341 546.405C163.451 546.395 164.761 545.625 165.341 544.625C166.251 543.535 163.881 537.985 163.771 536.805Z" fill="#38385C"/>
<path d="M85.6211 264.623C85.9511 284.073 114.881 284.063 115.211 264.623C114.881 245.173 85.9511 245.183 85.6211 264.623Z" fill="#E3EEFD"/>
<path d="M95.5211 265.479C91.4411 261.479 94.6011 253.849 100.421 254.059C106.231 253.859 109.401 261.489 105.321 265.479C118.731 270.489 114.971 291.429 100.421 291.229C85.8611 291.439 82.1111 270.489 95.5211 265.479Z" fill="#739BFD"/>
<path d="M79.771 310.876C85.301 327.396 110.011 319.596 105.051 302.896C99.521 286.376 74.811 294.176 79.771 310.876Z" fill="#E3EEFD"/>
<path d="M88.4617 308.949C83.8917 306.639 84.5417 299.269 89.5617 297.869C94.4717 296.129 99.2317 301.789 96.8217 306.309C109.622 306.979 112.062 325.879 99.5817 329.619C87.2117 333.709 78.3517 316.839 88.4617 308.949Z" fill="#739BFD"/>
<path d="M30.7402 354.071C30.9702 367.431 50.8402 367.431 51.0702 354.071C50.8502 340.711 30.9702 340.721 30.7402 354.071Z" fill="#E3EEFD"/>
<path d="M37.5512 354.673C34.7412 351.923 36.9212 346.683 40.9112 346.823C44.9012 346.683 47.0812 351.923 44.2712 354.673C53.4812 358.113 50.9011 372.503 40.9112 372.363C30.9112 372.503 28.3312 358.113 37.5512 354.673Z" fill="#739BFD"/>
<path d="M27.3407 315.043C34.5507 340.883 73.1707 330.813 66.8407 304.743C59.6207 278.903 21.0107 288.973 27.3407 315.043Z" fill="#E3EEFD"/>
<path d="M40.8508 312.757C34.0108 308.837 35.5808 297.557 43.4108 295.807C51.1008 293.517 57.9808 302.587 53.9208 309.347C73.5608 311.367 75.8408 340.627 56.3508 345.427C37.0008 350.757 24.7008 324.107 40.8508 312.757Z" fill="#739BFD"/>
<path d="M630.79 378.831C630.64 387.501 617.74 387.501 617.59 378.831C617.74 370.161 630.64 370.161 630.79 378.831Z" fill="#D1DAF7"/>
<path d="M600.62 269.668C600.6 274.538 593.2 274.538 593.18 269.668C593.2 264.798 600.6 264.798 600.62 269.668Z" fill="#D1DAF7"/>
<path d="M812.789 429.51C812.579 441.94 794.089 441.94 793.879 429.51C794.089 417.08 812.579 417.08 812.789 429.51Z" fill="#D1DAF7"/>
<path d="M342.799 295.18C342.769 300.91 334.059 300.91 334.029 295.18C334.059 289.45 342.779 289.45 342.799 295.18Z" fill="#D1DAF7"/>
<path d="M267.789 208.507C267.669 215.527 257.229 215.527 257.109 208.507C257.229 201.487 267.669 201.487 267.789 208.507Z" fill="#D1DAF7"/>
<path d="M179 492.665C178.78 505.755 159.31 505.755 159.08 492.665C159.31 479.575 178.78 479.585 179 492.665Z" fill="#D1DAF7"/>
<path d="M967.05 146.62C966.9 155.29 954 155.29 953.85 146.62C954 137.95 966.9 137.95 967.05 146.62Z" fill="#D1DAF7"/>
<path d="M936.87 37.4572C936.85 42.3272 929.45 42.3272 929.43 37.4572C929.45 32.5872 936.85 32.5872 936.87 37.4572Z" fill="#D1DAF7"/>
<path d="M1149.05 197.299C1148.84 209.729 1130.35 209.729 1130.14 197.299C1130.34 184.869 1148.84 184.869 1149.05 197.299Z" fill="#D1DAF7"/>
<path d="M679.059 62.9769C679.029 68.7069 670.319 68.7069 670.289 62.9769C670.319 57.2369 679.029 57.2369 679.059 62.9769Z" fill="#D1DAF7"/>
<path d="M505.119 259.849C504.899 272.939 485.429 272.939 485.199 259.849C485.419 246.759 504.899 246.759 505.119 259.849Z" fill="#D1DAF7"/>
<path d="M395.081 181.01C394.931 189.68 382.031 189.68 381.881 181.01C382.031 172.34 394.931 172.34 395.081 181.01Z" fill="#D1DAF7"/>
<path d="M364.911 71.8478C364.891 76.7178 357.491 76.7178 357.471 71.8478C357.481 66.9778 364.881 66.9778 364.911 71.8478Z" fill="#D1DAF7"/>
<path d="M577.08 231.69C576.87 244.12 558.38 244.12 558.17 231.69C558.38 219.26 576.87 219.26 577.08 231.69Z" fill="#D1DAF7"/>
<path d="M107.09 97.3675C107.06 103.097 98.3503 103.097 98.3203 97.3675C98.3503 91.6275 107.06 91.6275 107.09 97.3675Z" fill="#D1DAF7"/>
<path d="M32.0804 10.6869C31.9604 17.7069 21.5204 17.7069 21.4004 10.6869C21.5204 3.66687 31.9604 3.66687 32.0804 10.6869Z" fill="#D1DAF7"/>
<path d="M224.8 550.312H360.72C366.05 550.312 370.36 545.992 370.36 540.672V284.382C370.36 279.052 366.04 274.742 360.72 274.742H224.8C219.47 274.742 215.16 279.062 215.16 284.382V540.672C215.15 546.002 219.47 550.312 224.8 550.312Z" fill="#38385C"/>
<path d="M358.229 295H227.279V530.05H358.229V295Z" fill="#B9D4FD"/>
<path d="M264.129 377.493H240.239C238.109 377.493 236.379 375.763 236.379 373.633V349.743C236.379 347.613 238.109 345.883 240.239 345.883H264.129C266.259 345.883 267.989 347.613 267.989 349.743V373.633C267.999 375.763 266.269 377.493 264.129 377.493Z" fill="#E3EEFD"/>
<path d="M304.699 377.493H280.809C278.679 377.493 276.949 375.763 276.949 373.633V349.743C276.949 347.613 278.679 345.883 280.809 345.883H304.699C306.829 345.883 308.559 347.613 308.559 349.743V373.633C308.569 375.763 306.839 377.493 304.699 377.493Z" fill="#E3EEFD"/>
<path d="M345.279 377.493H321.389C319.259 377.493 317.529 375.763 317.529 373.633V349.743C317.529 347.613 319.259 345.883 321.389 345.883H345.279C347.409 345.883 349.139 347.613 349.139 349.743V373.633C349.139 375.763 347.409 377.493 345.279 377.493Z" fill="#E3EEFD"/>
<path d="M264.129 422.274H240.239C238.109 422.274 236.379 420.544 236.379 418.414V394.524C236.379 392.394 238.109 390.664 240.239 390.664H264.129C266.259 390.664 267.989 392.394 267.989 394.524V418.414C267.999 420.544 266.269 422.274 264.129 422.274Z" fill="#E3EEFD"/>
<path d="M304.699 422.274H280.809C278.679 422.274 276.949 420.544 276.949 418.414V394.524C276.949 392.394 278.679 390.664 280.809 390.664H304.699C306.829 390.664 308.559 392.394 308.559 394.524V418.414C308.569 420.544 306.839 422.274 304.699 422.274Z" fill="#E3EEFD"/>
<path d="M345.279 422.274H321.389C319.259 422.274 317.529 420.544 317.529 418.414V394.524C317.529 392.394 319.259 390.664 321.389 390.664H345.279C347.409 390.664 349.139 392.394 349.139 394.524V418.414C349.139 420.544 347.409 422.274 345.279 422.274Z" fill="#E3EEFD"/>
<path d="M264.129 467.065H240.239C238.109 467.065 236.379 465.335 236.379 463.205V439.305C236.379 437.175 238.109 435.445 240.239 435.445H264.129C266.259 435.445 267.989 437.175 267.989 439.305V463.195C267.999 465.335 266.269 467.065 264.129 467.065Z" fill="#E3EEFD"/>
<path d="M304.699 467.065H280.809C278.679 467.065 276.949 465.335 276.949 463.205V439.305C276.949 437.175 278.679 435.445 280.809 435.445H304.699C306.829 435.445 308.559 437.175 308.559 439.305V463.195C308.569 465.335 306.839 467.065 304.699 467.065Z" fill="#E3EEFD"/>
<path d="M345.279 467.065H321.389C319.259 467.065 317.529 465.335 317.529 463.205V439.305C317.529 437.175 319.259 435.445 321.389 435.445H345.279C347.409 435.445 349.139 437.175 349.139 439.305V463.195C349.139 465.335 347.409 467.065 345.279 467.065Z" fill="#E3EEFD"/>
<g opacity="0.2">
<path d="M363.189 347.906L223.559 486.346V530.046H358.229L363.189 347.906Z" fill="white"/>
</g>
<path d="M362.2 295L233.87 300.89L229.65 533.16H224.46L222.02 291L362.2 295Z" fill="#739BFD"/>
<path d="M223.86 321.753C223.86 321.753 239.66 327.482 249.13 318.212C253.55 325.532 267.35 323.413 270.98 317.223C275.29 324.333 288.4 324.422 292.76 317.332C297.09 324.602 310.55 323.553 314.68 317.103C320.27 324.473 331.65 323.402 336.53 316.182C343.92 325.392 356.82 321.002 360.55 311.582V301.812H222.51L223.86 321.753Z" fill="#739BFD"/>
<path d="M304.289 287.015H279.519C278.329 287.015 277.359 286.045 277.359 284.855C277.359 283.665 278.329 282.695 279.519 282.695H304.289C305.479 282.695 306.449 283.665 306.449 284.855C306.449 286.055 305.479 287.015 304.289 287.015Z" fill="white"/>
<path d="M238.21 318.212C225.17 317.732 227.29 304.092 227.29 294.992C227.22 292.812 229.44 291.042 231.19 291.162C231.54 291.162 249.14 291.162 249.14 291.162C248.68 300.482 252.53 317.922 238.21 318.212Z" fill="#F85C3D"/>
<path d="M260.06 318.212C245.74 317.932 249.58 300.462 249.14 291.172H270.99C270.53 300.482 274.38 317.922 260.06 318.212Z" fill="white"/>
<path d="M281.909 318.212C267.589 317.932 271.429 300.462 270.989 291.172H292.839C292.379 300.482 296.229 317.922 281.909 318.212Z" fill="#F85C3D"/>
<path d="M303.759 318.212C289.439 317.932 293.279 300.462 292.839 291.172H314.689C314.229 300.482 318.079 317.922 303.759 318.212Z" fill="white"/>
<path d="M325.601 318.212C311.281 317.932 315.121 300.462 314.681 291.172H336.531C336.081 300.482 339.931 317.922 325.601 318.212Z" fill="#F85C3D"/>
<path d="M347.45 318.212C333.13 317.932 336.97 300.462 336.53 291.172H354.48C356.63 291.172 358.38 292.912 358.38 295.062C358.38 304.142 360.46 317.752 347.45 318.212Z" fill="white"/>
<path d="M346.32 515.893H298.68C297.39 515.893 296.34 514.842 296.34 513.552V483.902C296.34 482.612 297.39 481.562 298.68 481.562H346.32C347.61 481.562 348.66 482.612 348.66 483.902V513.552C348.65 514.842 347.61 515.893 346.32 515.893Z" fill="#E3EEFD"/>
<path d="M322.4 493.977H317.85V497.267H322.4V493.977Z" fill="#A4C4FF"/>
<path d="M327.681 502.547H323.461V506.037H327.681V502.547Z" fill="#A4C4FF"/>
<path d="M322.4 498.336H317.85V501.486H322.4V498.336Z" fill="#A4C4FF"/>
<path d="M327.681 498.336H323.461V501.486H327.681V498.336Z" fill="#A4C4FF"/>
<path d="M328.74 497.277H333.71L334.43 493.977H328.74V497.277Z" fill="#A4C4FF"/>
<path d="M316.791 498.336H311.691L312.501 501.486H316.791V498.336Z" fill="#A4C4FF"/>
<path d="M316.791 506.037V502.547H312.781L313.681 506.037H316.791Z" fill="#A4C4FF"/>
<path d="M322.4 502.547H317.85V506.037H322.4V502.547Z" fill="#A4C4FF"/>
<path d="M316.791 507.094H313.951L314.691 509.974H316.791V507.094Z" fill="#A4C4FF"/>
<path d="M316.791 497.277V493.977H310.561L311.411 497.277H316.791Z" fill="#A4C4FF"/>
<path d="M328.74 507.094V509.974H330.94L331.57 507.094H328.74Z" fill="#A4C4FF"/>
<path d="M328.74 498.336V501.486H332.79L333.48 498.336H328.74Z" fill="#A4C4FF"/>
<path d="M322.4 507.094H317.85V509.964H322.4V507.094Z" fill="#A4C4FF"/>
<path d="M327.681 507.094H323.461V509.964H327.681V507.094Z" fill="#A4C4FF"/>
<path d="M332.56 502.547H328.74V506.037H331.8L332.56 502.547Z" fill="#A4C4FF"/>
<path d="M327.681 493.977H323.461V497.267H327.681V493.977Z" fill="#A4C4FF"/>
<path d="M329.9 492.674H328.89C329.47 484.984 326.47 486.354 320.47 486.244C316.86 486.344 317.22 490.094 317.28 492.674H316.27C315.7 484.464 319.03 485.184 325.69 485.244C330.06 485.474 330.07 489.314 329.9 492.674Z" fill="#A4C4FF"/>
<path d="M286.16 515.893H238.52C237.23 515.893 236.18 514.842 236.18 513.552V483.902C236.18 482.612 237.23 481.562 238.52 481.562H286.16C287.45 481.562 288.5 482.612 288.5 483.902V513.552C288.5 514.842 287.45 515.893 286.16 515.893Z" fill="#E3EEFD"/>
<path d="M245.689 510.402V488.002C250.099 488.282 256.799 486.302 256.429 493.112C256.509 495.102 256.289 497.402 254.139 497.932C257.899 498.742 257.159 507.592 254.799 509.482C253.309 511.022 247.689 510.202 245.689 510.402ZM250.059 496.442C251.429 496.572 251.999 496.302 251.959 494.802V492.552C252.039 491.312 250.889 491.452 250.059 491.472V496.442ZM250.509 506.452C252.969 506.662 252.109 503.432 252.249 502.002C252.299 500.352 251.629 499.752 250.059 499.942V506.432C250.249 506.442 250.399 506.452 250.509 506.452Z" fill="#A4C4FF"/>
<path d="M263.329 510.6C259.379 510.6 257.899 508.25 257.879 504.4V488H262.229C262.699 489.19 261.059 507.1 263.319 506.47C265.579 507.27 263.949 489.03 264.419 488H268.769V504.4C268.759 508.25 267.279 510.6 263.329 510.6Z" fill="#A4C4FF"/>
<path d="M273.209 510.4V503.03L269.629 488H274.069L275.319 495.58L276.569 488H280.999L277.439 503.03V510.4H273.209Z" fill="#A4C4FF"/>
<path d="M531.59 154.74H423.4C419.6 154.74 416.52 151.66 416.52 147.86V46.38C416.52 42.58 419.6 39.5 423.4 39.5H531.59C535.39 39.5 538.47 42.58 538.47 46.38V147.86C538.47 151.66 535.39 154.74 531.59 154.74Z" fill="#E3EEFD"/>
<path d="M522.08 71.6737L503.56 60.9837V60.8438H492.9C492.81 81.2237 461.82 81.2138 461.73 60.8438H451.07V61.2038L450.86 60.8438L432.1 71.6737L444.17 92.5737L451.07 88.5937V130.834H503.56V88.8437L510.01 92.5637L522.08 71.6737Z" fill="#739BFD"/>
<path d="M962.381 474.392H1060.09L1077.76 413.492L946.051 426.312L962.381 474.392Z" stroke="#A4C4FF" stroke-width="3" stroke-miterlimit="10" stroke-linecap="round" stroke-linejoin="round"/>
<path d="M1105.93 407.05C1105.93 407.05 1099.11 405.8 1089.83 403.5C1081.45 401.44 1079.73 408.5 1077.76 413.49C1073.74 423.68 1057.28 493.51 1050.26 513.3C1047.85 520.09 1039.75 524.73 1032.82 525.63C1025.89 526.52 965.74 525.71 965.74 525.71" stroke="#A4C4FF" stroke-width="3" stroke-miterlimit="10" stroke-linecap="round" stroke-linejoin="round"/>
<path d="M953.23 443.937L1070.65 432.617" stroke="#A4C4FF" stroke-width="3" stroke-miterlimit="10" stroke-linecap="round" stroke-linejoin="round"/>
<path d="M1061.07 459.281L958.391 461.111" stroke="#A4C4FF" stroke-width="3" stroke-miterlimit="10" stroke-linecap="round" stroke-linejoin="round"/>
<path d="M1000.17 474.393V421.953" stroke="#A4C4FF" stroke-width="3" stroke-miterlimit="10" stroke-linecap="round" stroke-linejoin="round"/>
<path d="M981.38 474.393L978.16 424.133" stroke="#A4C4FF" stroke-width="3" stroke-miterlimit="10" stroke-linecap="round" stroke-linejoin="round"/>
<path d="M1019.84 474.393L1025.99 419.023" stroke="#A4C4FF" stroke-width="3" stroke-miterlimit="10" stroke-linecap="round" stroke-linejoin="round"/>
<path d="M1040.41 474.392L1050.25 417.492" stroke="#A4C4FF" stroke-width="3" stroke-miterlimit="10" stroke-linecap="round" stroke-linejoin="round"/>
<path d="M1094.01 404.492L1108.31 407.562" stroke="#1F1A3E" stroke-width="2.6183" stroke-miterlimit="10" stroke-linecap="round" stroke-linejoin="round"/>
<path d="M1022.5 540.757C1022.5 546.807 1027.4 551.717 1033.46 551.717C1039.51 551.717 1044.42 546.807 1044.42 540.757C1044.42 534.707 1039.51 529.797 1033.46 529.797C1027.4 529.797 1022.5 534.697 1022.5 540.757Z" fill="#1F1A3E"/>
<path d="M1026.37 540.76C1026.37 544.67 1029.54 547.84 1033.45 547.84C1037.36 547.84 1040.53 544.67 1040.53 540.76C1040.53 536.85 1037.36 533.68 1033.45 533.68C1029.54 533.68 1026.37 536.85 1026.37 540.76Z" fill="#D9D9D9"/>
<path d="M1031.77 540.76C1031.77 541.69 1032.52 542.45 1033.46 542.45C1034.39 542.45 1035.15 541.69 1035.15 540.76C1035.15 539.83 1034.4 539.07 1033.46 539.07C1032.52 539.07 1031.77 539.82 1031.77 540.76Z" fill="#B4B4B3"/>
<path d="M1032.24 546.15C1036.15 546.15 1039.32 542.98 1039.32 539.07C1039.32 537.86 1038.99 536.74 1038.46 535.75C1039.74 537.03 1040.54 538.8 1040.54 540.76C1040.54 544.67 1037.37 547.84 1033.46 547.84C1030.76 547.84 1028.44 546.31 1027.25 544.08C1028.52 545.36 1030.29 546.15 1032.24 546.15Z" fill="#D9D9D9"/>
<path d="M1058.3 477.5H983.84" stroke="#A4C4FF" stroke-width="3" stroke-miterlimit="10" stroke-linecap="round" stroke-linejoin="round"/>
<path d="M1030.69 539.011C1031.83 541.751 1035.27 541.751 1035.27 539.011C1035.27 536.261 1035.27 525.141 1035.27 525.141H1026.1C1026.1 525.151 1029.55 536.271 1030.69 539.011Z" fill="white"/>
<path d="M965.701 540.757C965.701 546.807 970.611 551.717 976.661 551.717C982.711 551.717 987.621 546.807 987.621 540.757C987.621 534.707 982.711 529.797 976.661 529.797C970.601 529.797 965.701 534.697 965.701 540.757Z" fill="#1F1A3E"/>
<path d="M969.57 540.76C969.57 544.67 972.74 547.84 976.65 547.84C980.56 547.84 983.73 544.67 983.73 540.76C983.73 536.85 980.56 533.68 976.65 533.68C972.74 533.68 969.57 536.85 969.57 540.76Z" fill="#D9D9D9"/>
<path d="M974.971 540.76C974.971 541.69 975.721 542.45 976.661 542.45C977.591 542.45 978.351 541.69 978.351 540.76C978.351 539.83 977.591 539.07 976.661 539.07C975.721 539.07 974.971 539.82 974.971 540.76Z" fill="#B4B4B3"/>
<path d="M975.441 546.15C979.351 546.15 982.521 542.98 982.521 539.07C982.521 537.86 982.191 536.74 981.661 535.75C982.941 537.03 983.741 538.8 983.741 540.76C983.741 544.67 980.571 547.84 976.661 547.84C973.961 547.84 971.641 546.31 970.441 544.08C971.721 545.36 973.491 546.15 975.441 546.15Z" fill="#D9D9D9"/>
<path d="M973.891 539.011C975.031 541.751 978.471 541.751 978.471 539.011C978.471 536.261 978.471 525.141 978.471 525.141H969.301C969.301 525.151 972.751 536.271 973.891 539.011Z" fill="white"/>
<path d="M1367.72 547.844H97.1309V550.754H1367.72V547.844Z" stroke="#38385C" stroke-width="5" stroke-miterlimit="10" stroke-linecap="round" stroke-linejoin="round"/>
<path d="M63.6309 369.283L69.6109 364.233C69.6109 364.233 72.8009 368.762 105.551 404.182C111.371 410.472 134.411 414.502 143.691 396.302C148.611 386.652 147.291 374.973 140.821 366.293L112.401 328.173L118.751 322.812C118.751 322.812 149.831 361.832 151.211 364.582C152.591 367.332 164.551 386.763 144.641 408.312C124.731 429.863 98.9309 407.832 98.9309 407.832L63.6309 369.283Z" fill="#1A1A35"/>
</g>
<defs>
<clipPath id="clip0_808_5611">
<rect width="1440" height="552" fill="white"/>
</clipPath>
</defs>
</svg>
