<svg width="1440" height="552" viewBox="0 0 1440 552" fill="none" xmlns="http://www.w3.org/2000/svg">
<g clip-path="url(#clip0_735_2011)">
<path opacity="0.2" d="M1477.9 536.998C1477.9 531.798 1499.6 325.598 1410.6 280.598C1321.6 235.598 1130.2 -21.4019 918.801 97.2981C707.401 215.998 653.701 121.698 533.501 109.198C413.301 96.6981 341.001 85.1981 255.601 80.1981C199.001 76.8981 31.7006 144.198 -3.69936 177.898C-135.099 303.298 -29.2994 584.198 -29.2994 584.198H1470.7L1477.9 536.998Z" fill="url(#paint0_linear_735_2011)"/>
<path opacity="0.2" d="M-67.2992 528.702C-67.2992 524.302 -88.9992 349.302 0.000793457 311.202C89.0008 273.102 280.501 54.902 491.901 155.602C703.301 256.302 757.001 176.302 877.201 165.702C997.401 155.102 1069.7 145.302 1155.1 141.102C1211.7 138.302 1379 195.402 1414.4 224.002C1545.8 330.402 1440 568.702 1440 568.702H-59.9992L-67.2992 528.702Z" fill="url(#paint1_linear_735_2011)"/>
<path d="M896.799 535.702C896.799 535.702 901.499 542.002 900.799 543.002C900.199 544.002 895.299 544.102 892.299 543.002C889.299 541.902 889.199 534.502 887.899 531.302C887.299 530.002 888.499 526.102 890.199 525.802C891.899 525.502 893.799 526.302 893.799 526.302C893.799 526.302 891.999 530.802 896.799 535.702Z" fill="#1D3B54"/>
<path d="M887.699 530.805V537.405H888.599V532.305L887.699 530.805Z" fill="#1D3B54"/>
<path d="M1029 399C1029 399 1027.7 408.8 1034.8 416.3C1041.9 423.8 1057.8 421.1 1057.8 421.1C1057.8 421.1 1055.2 412.2 1049.4 408.6C1043.7 405 1032.3 403.7 1029 399Z" fill="#869135"/>
<path d="M1037.3 380.5C1037.3 380.5 1031.5 391.5 1036.5 403.5C1041.5 415.5 1061.5 419.4 1061.5 419.4C1061.5 419.4 1062.3 407.8 1057.1 400.9C1051.9 393.9 1039 387.4 1037.3 380.5Z" fill="#48753A"/>
<path d="M1298.9 239.406C1298.9 239.406 1308.8 254.406 1300.4 262.406C1292 270.406 1291.1 261.506 1291.1 261.506C1291.1 261.506 1286.6 261.806 1295.5 251.606C1299.7 246.806 1298.9 239.406 1298.9 239.406Z" fill="#BBD070"/>
<path d="M1325.4 231.703C1325.4 231.703 1332.5 245.403 1315.8 258.203C1299.2 271.003 1299.2 279.803 1299.2 279.803C1299.2 279.803 1287.6 248.103 1325.4 231.703Z" fill="#97A43C"/>
<path d="M1297.1 273.9C1290.8 273.7 1300 257.7 1310.3 254.4C1320.6 251.1 1328.8 252.5 1335.1 248.5C1335.2 248.6 1328.3 274.8 1297.1 273.9Z" fill="#48753A"/>
<path d="M1045.8 222.805H1044.5V382.005H1045.8V222.805Z" fill="#78C2FF"/>
<path d="M1056.9 337.305H947V338.605H1056.9V337.305Z" fill="#78C2FF"/>
<path d="M1318.7 463.103H1103C1093 463.103 1084.8 454.603 1084.8 444.103V292.203C1084.8 281.703 1092.9 273.203 1103 273.203H1318.7C1328.7 273.203 1336.9 281.703 1336.9 292.203V444.103C1336.8 454.503 1328.7 463.103 1318.7 463.103ZM1102.9 274.803C1093.8 274.803 1086.3 282.603 1086.3 292.203V444.103C1086.3 453.703 1093.7 461.503 1102.9 461.503H1318.6C1327.7 461.503 1335.2 453.703 1335.2 444.103V292.203C1335.2 282.603 1327.8 274.803 1318.6 274.803H1102.9Z" fill="#4DA8F2"/>
<path d="M1361.5 238.502C1360.4 234.302 1358.7 230.202 1356.5 226.602L1361.5 219.002L1354.5 212.002L1347.5 205.002L1339.9 210.002C1336.2 207.802 1332.2 206.102 1328 205.002L1326.2 196.102H1316.3H1306.4L1304.6 205.002C1300.4 206.102 1296.3 207.802 1292.7 210.002L1285.1 205.002L1278.1 212.002L1271.1 219.002L1276.1 226.602C1273.9 230.302 1272.2 234.302 1271.1 238.502L1262.2 240.302V250.202V260.102L1271.1 261.902C1272.2 266.102 1273.9 270.202 1276.1 273.802L1271.1 281.402L1278.1 288.402L1285.1 295.402L1292.7 290.402C1296.4 292.602 1300.4 294.302 1304.6 295.402L1306.4 304.302H1316.3H1326.2L1328 295.402C1332.2 294.302 1336.3 292.602 1339.9 290.402L1347.5 295.402L1354.5 288.402L1361.5 281.402L1356.5 273.802C1358.7 270.102 1360.4 266.102 1361.5 261.902L1370.4 260.102V250.202V240.302L1361.5 238.502ZM1316.4 284.802C1297.3 284.802 1281.8 269.302 1281.8 250.102C1281.8 231.002 1297.3 215.402 1316.4 215.402C1335.5 215.402 1351.1 230.902 1351.1 250.102C1351.1 269.302 1335.6 284.802 1316.4 284.802Z" fill="#73C0FF"/>
<path d="M1316.4 272.598V424.498C1316.4 434.498 1308.3 442.698 1298.2 442.698H1072.4C1062.4 442.698 1054.2 434.598 1054.2 424.498V272.598C1054.2 262.598 1062.3 254.398 1072.4 254.398H1298.2C1308.3 254.398 1316.4 262.598 1316.4 272.598Z" fill="#DAE8F5"/>
<path d="M1175.9 302C1167.8 279.5 1146.3 265.7 1123.7 266.3C1118.2 266.5 1112.7 267.5 1107.2 269.4C1090.7 275.3 1078.8 288.5 1074 304C1070.6 314.8 1070.6 326.7 1074.7 338.1C1075.1 339.2 1075.5 340.4 1076 341.5C1078.2 346.5 1081 350.9 1084.3 354.9C1098.4 371.4 1121.7 378.4 1143.4 370.7C1171.3 360.7 1185.9 329.9 1175.9 302ZM1138.8 358.1C1122.6 363.9 1105 358.7 1094.5 346.3C1092 343.3 1089.9 340 1088.3 336.3C1087.9 335.5 1087.6 334.6 1087.3 333.8C1084.2 325.2 1084.2 316.3 1086.8 308.2C1090.4 296.5 1099.3 286.7 1111.7 282.3C1115.8 280.8 1120 280.1 1124.1 280C1141.1 279.5 1157.2 289.9 1163.3 306.7C1170.7 327.5 1159.8 350.6 1138.8 358.1Z" fill="#78C2FF"/>
<path d="M1086.7 308.098L1073.9 304.098C1078.8 288.598 1090.6 275.398 1107.1 269.498C1112.6 267.598 1118.1 266.498 1123.6 266.398L1124 279.898C1119.9 279.998 1115.7 280.798 1111.6 282.198C1099.3 286.498 1090.4 296.398 1086.7 308.098Z" fill="#1A598C"/>
<path d="M1088.3 336.202L1076 341.602C1075.5 340.502 1075.1 339.402 1074.7 338.202C1070.6 326.802 1070.6 314.802 1074 304.102L1086.8 308.102C1084.3 316.202 1084.3 325.102 1087.3 333.702C1087.6 334.502 1087.9 335.402 1088.3 336.202Z" fill="#2273B5"/>
<path d="M1084.2 354.902C1080.8 351.002 1078 346.502 1075.9 341.502L1088.2 336.102C1089.8 339.802 1091.9 343.202 1094.4 346.102L1084.2 354.902Z" fill="#4DA8F2"/>
<path d="M1087.6 432.298C1098.6 437.498 1111.2 434.698 1119.1 426.398C1121 424.398 1122.6 421.998 1123.9 419.398C1127.7 411.398 1127.2 402.398 1123.4 395.098C1120.7 389.998 1116.5 385.798 1110.9 383.098C1110.3 382.798 1109.8 382.598 1109.2 382.398C1106.7 381.398 1104 380.798 1101.4 380.598C1090.4 379.698 1079.6 385.598 1074.6 396.098C1068.2 409.598 1074 425.798 1087.6 432.298ZM1080.8 398.898C1084.5 390.998 1092.7 386.598 1100.9 387.298C1102.9 387.498 1104.8 387.898 1106.7 388.698C1107.1 388.898 1107.5 388.998 1108 389.198C1112.2 391.198 1115.4 394.398 1117.4 398.198C1120.3 403.698 1120.6 410.398 1117.8 416.398C1116.9 418.398 1115.6 420.198 1114.2 421.698C1108.3 427.998 1098.8 429.998 1090.6 426.198C1080.3 421.298 1076 409.098 1080.8 398.898Z" fill="#6EB2EB"/>
<path d="M1117.4 398.2L1123.4 395C1127.2 402.3 1127.7 411.3 1123.9 419.3C1122.6 422 1121 424.3 1119.1 426.3L1114.1 421.6C1115.5 420.1 1116.8 418.3 1117.7 416.3C1120.6 410.4 1120.2 403.6 1117.4 398.2Z" fill="#1A598C"/>
<path d="M1106.7 388.597L1109.2 382.297C1109.8 382.497 1110.3 382.797 1110.9 382.997C1116.5 385.597 1120.7 389.897 1123.4 394.997L1117.4 398.197C1115.4 394.397 1112.2 391.197 1108 389.197C1107.6 388.997 1107.2 388.797 1106.7 388.597Z" fill="#2273B5"/>
<path d="M1101.4 380.5C1104 380.7 1106.6 381.3 1109.2 382.3L1106.7 388.6C1104.8 387.8 1102.8 387.4 1100.9 387.2L1101.4 380.5Z" fill="#4DA8F2"/>
<path d="M1316.4 272.598V424.498C1316.4 434.498 1308.3 442.698 1298.2 442.698H1198.2V254.398H1298.2C1308.3 254.398 1316.4 262.598 1316.4 272.598Z" fill="#4DA8F2"/>
<path d="M1298.9 283.498H1215.9C1214.6 283.498 1213.5 282.398 1213.5 281.098V276.298C1213.5 274.998 1214.6 273.898 1215.9 273.898H1298.9C1300.2 273.898 1301.3 274.998 1301.3 276.298V281.098C1301.3 282.498 1300.2 283.498 1298.9 283.498Z" fill="#E3F2FF"/>
<path d="M1298.9 304.1H1215.9C1214.6 304.1 1213.5 303 1213.5 301.7V296.9C1213.5 295.6 1214.6 294.5 1215.9 294.5H1298.9C1300.2 294.5 1301.3 295.6 1301.3 296.9V301.7C1301.3 303 1300.2 304.1 1298.9 304.1Z" fill="#73C0FF"/>
<path d="M1293.3 426.2H1221.5C1217.1 426.2 1213.5 422.6 1213.5 418.2V326C1213.5 321.6 1217.1 318 1221.5 318H1293.3C1297.7 318 1301.3 321.6 1301.3 326V418.2C1301.3 422.6 1297.7 426.2 1293.3 426.2Z" fill="#73C0FF"/>
<g opacity="0.58">
<path d="M1229.1 393.598H1217.5C1212.1 393.598 1207.7 389.198 1207.7 383.798V323.198C1207.7 317.798 1212.1 313.398 1217.5 313.398H1229.1C1234.5 313.398 1238.9 317.798 1238.9 323.198V383.798C1238.9 389.198 1234.6 393.598 1229.1 393.598Z" fill="#E0F1FF"/>
</g>
<path d="M1205.2 245.703H1004.8V247.003H1205.2V245.703Z" fill="#78C2FF"/>
<path d="M1024.8 234.705C1018.9 234.705 1014.1 229.905 1014.1 224.005C1014.1 218.105 1018.9 213.305 1024.8 213.305C1030.7 213.305 1035.5 218.105 1035.5 224.005C1035.6 229.905 1030.7 234.705 1024.8 234.705ZM1024.8 214.905C1019.8 214.905 1015.7 219.005 1015.7 224.005C1015.7 229.005 1019.8 233.105 1024.8 233.105C1029.8 233.105 1033.9 229.005 1033.9 224.005C1034 219.005 1029.9 214.905 1024.8 214.905Z" fill="#4DA8F2"/>
<path d="M636.3 525.705C630.4 525.705 625.6 520.905 625.6 515.005C625.6 509.105 630.4 504.305 636.3 504.305C642.2 504.305 647 509.105 647 515.005C647.1 520.805 642.3 525.705 636.3 525.705ZM636.3 505.805C631.3 505.805 627.2 509.905 627.2 514.905C627.2 519.905 631.3 524.005 636.3 524.005C641.3 524.005 645.4 519.905 645.4 514.905C645.5 509.905 641.4 505.805 636.3 505.805Z" fill="#4DA8F2"/>
<path d="M446.8 427.9C440.9 427.9 436.1 423.1 436.1 417.2C436.1 411.3 440.9 406.5 446.8 406.5C452.7 406.5 457.5 411.3 457.5 417.2C457.6 423 452.7 427.9 446.8 427.9ZM446.8 408C441.8 408 437.7 412.1 437.7 417.1C437.7 422.1 441.8 426.2 446.8 426.2C451.8 426.2 455.9 422.1 455.9 417.1C456 412.1 451.9 408 446.8 408Z" fill="#4DA8F2"/>
<path d="M996 357.104C996 357.104 1006 358.904 1006.1 367.404C1006.2 375.904 998.4 388.204 993.4 387.304C988.3 386.404 982.6 381.904 982.8 376.704C983 371.504 984.4 364.704 986.8 361.004C989.1 357.304 993.2 356.904 996 357.104Z" fill="#EEA886"/>
<path d="M983.2 372.802C983.2 372.802 983.2 374.502 986.7 375.902C990.2 377.302 996.5 375.402 998.1 375.702C999.7 376.002 1000.2 375.302 1000.2 375.302L1000.3 377.002L1001.6 377.902C1001.6 377.902 1002.5 373.402 1005.4 373.002C1008.2 372.602 1010.6 359.702 998.4 357.202C998.4 357.202 989.4 354.702 987 359.302C984.6 363.902 982.7 369.602 983.2 372.802Z" fill="#E8734D"/>
<g opacity="0.82">
<path d="M1057.9 520.5H979.3C972.8 520.5 967.6 515.2 967.6 508.8V430.2C967.6 423.7 972.9 418.5 979.3 418.5H1057.9C1064.4 418.5 1069.6 423.8 1069.6 430.2V508.8C1069.6 515.2 1064.4 520.5 1057.9 520.5Z" fill="#87C9FF"/>
</g>
<path d="M1061.7 264.702V321.802C1061.7 327.402 1057.1 332.002 1051.5 332.002H969.899C964.299 332.002 959.699 327.402 959.699 321.802V264.702C959.699 259.102 964.299 254.502 969.899 254.502H1051.5C1057.2 254.402 1061.7 259.002 1061.7 264.702Z" fill="#E3F2FF"/>
<path d="M1059.5 444.398H1024.7C1023.4 444.398 1022.3 443.298 1022.3 441.998V435.798C1022.3 434.498 1023.4 433.398 1024.7 433.398H1059.5C1060.8 433.398 1061.9 434.498 1061.9 435.798V441.998C1061.9 443.298 1060.8 444.398 1059.5 444.398Z" fill="#E3F2FF"/>
<path d="M1056.3 508.202H1027.7C1024.7 508.202 1022.2 505.702 1022.2 502.702V455.602C1022.2 452.602 1024.7 450.102 1027.7 450.102H1056.3C1059.3 450.102 1061.8 452.602 1061.8 455.602V502.702C1061.9 505.702 1059.4 508.202 1056.3 508.202Z" fill="#E3F2FF"/>
<path d="M990.499 464.405C992.299 465.005 994.199 465.305 996.099 465.405C1002 465.505 1007.4 462.705 1010.8 458.305C1013.1 455.305 1014.6 451.505 1014.6 447.405C1014.6 447.005 1014.6 446.605 1014.6 446.205C1014.5 444.405 1014.1 442.605 1013.5 441.005C1011 434.105 1004.4 429.105 996.599 429.005C992.399 428.905 988.499 430.305 985.399 432.705C980.999 436.005 978.199 441.205 978.099 447.005C977.999 455.005 983.199 461.905 990.499 464.405ZM982.699 446.905C982.799 442.505 984.899 438.705 988.099 436.205C990.399 434.405 993.399 433.405 996.599 433.405C1002.4 433.505 1007.4 437.205 1009.3 442.405C1009.7 443.605 1010 445.005 1010.1 446.305C1010.1 446.605 1010.1 446.905 1010.1 447.205C1010.1 450.305 1009 453.105 1007.2 455.405C1004.7 458.705 1000.7 460.805 996.199 460.705C994.699 460.705 993.299 460.405 991.999 460.005C986.499 458.205 982.599 453.005 982.699 446.905Z" fill="#E3F2FF"/>
<path d="M1007.2 455.508L1010.8 458.308C1007.4 462.708 1002.1 465.408 996.1 465.408C994.1 465.408 992.2 465.008 990.5 464.408L992 460.108C993.3 460.508 994.7 460.808 996.2 460.808C1000.7 460.808 1004.6 458.808 1007.2 455.508Z" fill="#1A598C"/>
<path d="M1010 446.403L1014.6 446.203C1014.6 446.603 1014.6 447.003 1014.6 447.403C1014.5 451.503 1013.1 455.303 1010.8 458.303L1007.2 455.503C1009 453.203 1010 450.403 1010.1 447.303C1010 447.003 1010 446.703 1010 446.403Z" fill="#2273B5"/>
<path d="M1010 446.406C1009.9 445.006 1009.7 443.706 1009.2 442.506L1013.5 440.906C1014.1 442.606 1014.5 444.306 1014.6 446.106L1010 446.406Z" fill="#2273B5"/>
<path d="M985.398 432.505C988.498 430.105 992.398 428.805 996.598 428.805C1004.4 428.905 1011 433.905 1013.5 440.805L1009.2 442.405C1007.3 437.205 1002.4 433.505 996.498 433.405C993.298 433.405 990.398 434.405 987.998 436.205L985.398 432.505Z" fill="#4DA8F2"/>
<path d="M1014.7 423.704C1014.7 423.704 1015.7 423.604 1016.3 423.004C1017.3 422.004 1017.4 419.904 1019.4 419.704C1021.4 419.604 1023.2 425.604 1022.9 426.804C1022.6 428.004 1019.9 429.004 1015.8 428.804C1011.6 428.604 1014.7 423.704 1014.7 423.704Z" fill="#EEA886"/>
<path d="M1018.7 419.803C1018.7 419.803 1021.4 418.403 1024.5 417.203C1027.3 416.203 1030.7 415.403 1031.1 415.903C1031.9 417.003 1028.7 417.703 1026 418.903C1023.5 420.003 1024 419.803 1024 419.803C1024 419.803 1023.8 419.703 1026.7 419.003C1029.8 418.203 1033.1 417.703 1033.5 418.303C1033.7 418.603 1034.1 419.603 1032.8 419.503C1033.5 419.403 1033.4 419.303 1033.4 419.503C1033.7 420.903 1029.3 422.703 1027.5 423.503C1028.9 423.003 1029.9 422.703 1029.5 423.703C1029.1 424.903 1022.7 427.203 1020.5 428.203C1018.1 429.603 1018.7 419.803 1018.7 419.803Z" fill="#EEA886"/>
<path d="M971.2 382.105C971.2 382.105 964.9 381.605 960.5 382.105C956.1 382.605 950 386.205 946.3 387.205C942.6 388.205 933.7 394.205 933.9 395.105C934.1 395.905 937.6 405.705 944 413.605C949.4 420.405 971.2 382.105 971.2 382.105Z" fill="#D4D8E8"/>
<path d="M957.7 386.102C957.7 386.102 950.9 391.102 948.6 395.702C946.2 400.302 945.4 405.702 945.4 405.702L957.7 386.102Z" fill="#A9ADBA"/>
<path d="M962.8 535.101C962.8 535.101 964.7 537.201 965.8 537.701C966.9 538.201 980.2 540.501 981.2 541.601C982.1 542.701 982.1 547.001 978.7 547.001C975.3 547.001 963.8 546.901 961.9 547.001C960 547.101 951.8 548.701 951 547.001C950.2 545.301 950.2 537.401 951.7 535.501C953.1 533.601 962.8 535.101 962.8 535.101Z" fill="#1C4154"/>
<path d="M962.4 532.703L962.8 535.103C962.8 535.103 959.2 536.703 951.6 535.503V533.003L962.4 532.703Z" fill="#2A617D"/>
<path d="M881.4 528.398C881.4 528.398 879.9 530.098 879.2 532.398C878.7 533.798 876.5 540.498 877.5 542.198C878.5 543.798 886.1 544.098 889.9 543.498C893.7 542.898 902 544.198 902.8 542.498C903.6 540.898 904.1 538.498 901.7 537.598C899.2 536.698 893.6 534.298 892.5 531.698C891.4 529.098 881.4 528.398 881.4 528.398Z" fill="#1C4154"/>
<path d="M893.399 528.998L892.299 531.698C892.299 531.698 881.399 530.898 881.299 528.398L884.699 523.398L893.399 528.998Z" fill="#2A617D"/>
<path d="M982.799 377.5C982.799 377.5 976.699 382.7 974.999 382.2C973.299 381.8 980.999 393.1 980.999 393.1C980.999 393.1 988.299 385.9 989.999 385.7C991.599 385.5 982.799 377.5 982.799 377.5Z" fill="#EEA886"/>
<path d="M983.2 397.902C981.1 399.102 980.8 399.502 981 405.502C981.2 411.402 983.7 416.202 983.9 417.802C984.1 419.402 987.4 435.602 988.3 436.502C989.2 437.402 1000 435.302 1002.2 434.602C1005.5 433.602 1019.3 428.902 1019.3 428.902L1016.3 422.502C1016.3 422.502 998.8 426.402 998.2 425.002C997.6 423.602 996.3 412.202 995.8 409.702C995.3 407.202 996.2 403.302 993.2 397.402C990.5 392.002 983.2 397.902 983.2 397.902Z" fill="#D4D8E8"/>
<path d="M962.7 442.305C962.7 442.305 966.4 446.205 967.4 447.505C974.5 456.305 984.2 472.405 985.4 475.205C986.6 478.005 979.4 497.905 976.5 504.905C975 508.505 964.7 533.705 965 534.205C965.3 534.805 954.2 535.105 949.2 532.605C949.2 532.605 956.4 511.405 957.9 507.205C960.2 500.905 968.1 483.505 968.3 481.805C968.5 480.105 955.5 466.205 951.2 463.505C946.9 460.805 936.2 451.405 935 450.205C933.8 449.005 927 445.805 927.6 439.705C928.2 433.605 932.8 428.805 932.8 428.805L962.7 442.305Z" fill="#326EA0"/>
<path d="M943.2 457.502C943.2 457.502 942.5 459.302 941.6 461.802C939.6 467.202 936.2 475.802 935.7 477.202C934.9 479.202 930.9 487.902 928.9 489.602C927 491.302 895.2 529.402 895.1 529.702C895 530.002 883.2 523.902 882.5 521.602C882.5 521.602 899.7 499.202 902.4 495.902C905.1 492.602 910.6 487.702 912.5 479.902C914.4 472.102 927.6 442.102 927.7 441.002C927.7 441.002 929.8 431.802 932.9 428.902C936 426.102 947.3 429.402 949 435.302C950.8 441.102 943.2 457.502 943.2 457.502Z" fill="#326EA0"/>
<path d="M974.5 382.203L977.1 381.203C977.1 381.203 983.6 382.703 987.3 387.903L987 389.503C986.9 389.403 977.1 387.303 974.5 382.203Z" fill="#D4D8E8"/>
<path d="M984.399 419.998C983.899 420.698 983.499 421.198 983.199 421.498C982.999 421.698 982.799 421.798 982.499 422.098L982.299 412.398C982.299 412.398 983.499 416.098 983.699 416.698C983.799 417.098 984.399 419.998 984.399 419.998Z" fill="#A9ADBA"/>
<path d="M943.2 457.498C943.2 457.498 942.5 459.298 941.6 461.798C939.4 459.298 934.5 449.898 934.5 449.898C934.8 450.098 935.9 451.098 936.1 451.298C936.3 451.498 943.2 457.498 943.2 457.498Z" fill="#215B8A"/>
<path d="M998.499 374.903C998.699 374.203 998.199 371.303 996.399 373.003C994.599 374.603 994.599 378.203 995.599 378.503C996.599 378.703 997.899 376.803 998.499 374.903Z" fill="#EEA886"/>
<path d="M991.8 359.099C991.8 359.099 983.1 352.899 983 373.999L991.8 359.099Z" fill="#E8734D"/>
<path d="M984.399 420C983.899 420.7 983.499 421.2 983.199 421.5C982.999 421.7 982.799 421.8 982.499 422.1C979.999 424.1 974.499 427.9 971.999 429.3C969.199 430.8 963.799 443.7 963.799 443.7C963.799 443.7 938.599 442 932.799 429C932.799 429 936.899 419.8 940.599 414.4C944.299 409 952.499 389.4 956.899 386.7C961.199 383.9 964.999 382.1 973.499 382.4C982.099 382.6 986.799 389.4 986.799 389.4C986.799 389.4 993.299 396.4 993.999 400.1C994.699 403.1 987.599 415.5 984.399 420Z" fill="#D4D8E8"/>
<path d="M1061.7 264.702L1061.5 270.402H959.5L959.7 264.702C959.7 259.102 964.3 254.502 969.9 254.502H1051.5C1057.2 254.402 1061.7 259.002 1061.7 264.702Z" fill="#4DA8F2"/>
<path d="M991.7 325.398H971.2C968.5 325.398 966.4 323.198 966.4 320.598V279.698C966.4 276.998 968.6 274.898 971.2 274.898H991.7C994.4 274.898 996.5 277.098 996.5 279.698V320.598C996.5 323.298 994.3 325.398 991.7 325.398ZM971.2 276.498C969.4 276.498 968 277.898 968 279.698V320.598C968 322.398 969.4 323.798 971.2 323.798H991.7C993.5 323.798 994.9 322.398 994.9 320.598V279.698C994.9 277.898 993.5 276.498 991.7 276.498H971.2Z" fill="#78C2FF"/>
<path d="M1052.5 279.902H1003.6C1002.7 279.902 1002 279.202 1002 278.302V277.202C1002 276.302 1002.7 275.602 1003.6 275.602H1052.5C1053.4 275.602 1054.1 276.302 1054.1 277.202V278.302C1054.1 279.202 1053.4 279.902 1052.5 279.902Z" fill="#78C2FF"/>
<path d="M1052.5 288.605H1003.6C1002.7 288.605 1002 287.905 1002 287.005V285.905C1002 285.005 1002.7 284.305 1003.6 284.305H1052.5C1053.4 284.305 1054.1 285.005 1054.1 285.905V287.005C1054.1 287.905 1053.4 288.605 1052.5 288.605Z" fill="#78C2FF"/>
<path d="M1171.3 396.398H1139C1137.6 396.398 1136.5 395.298 1136.5 393.898V388.898C1136.5 387.498 1137.6 386.398 1139 386.398H1171.3C1172.7 386.398 1173.8 387.498 1173.8 388.898V393.898C1173.7 395.298 1172.6 396.398 1171.3 396.398Z" fill="#6EB2EB"/>
<path d="M1171.3 412.602H1139C1137.6 412.602 1136.5 411.502 1136.5 410.102V405.102C1136.5 403.702 1137.6 402.602 1139 402.602H1171.3C1172.7 402.602 1173.8 403.702 1173.8 405.102V410.102C1173.7 411.502 1172.6 412.602 1171.3 412.602Z" fill="#4DA8F2"/>
<path d="M1171.3 428.805H1139C1137.6 428.805 1136.5 427.705 1136.5 426.305V421.305C1136.5 419.905 1137.6 418.805 1139 418.805H1171.3C1172.7 418.805 1173.8 419.905 1173.8 421.305V426.305C1173.7 427.705 1172.6 428.805 1171.3 428.805Z" fill="#2273B5"/>
<path d="M975.999 263.099C975.999 265.499 973.999 267.499 971.599 267.499C969.199 267.499 967.199 265.499 967.199 263.099C967.199 260.699 969.199 258.699 971.599 258.699C973.999 258.599 975.999 260.599 975.999 263.099Z" fill="#E3F2FF"/>
<path d="M1309.6 416.402C1309.6 416.402 1327.6 422.202 1331.8 421.202C1334 420.702 1337.4 417.502 1340.6 414.202C1341.1 413.602 1341.6 413.102 1342.2 412.502C1345.7 408.602 1348.6 404.902 1348.6 404.902C1348.6 404.902 1357.3 394.702 1350.3 390.102C1350.3 390.102 1347.2 390.402 1344.9 392.902C1342.6 395.402 1340.4 399.402 1339.8 400.702C1339.2 402.002 1330.6 414.402 1330.2 414.702C1329.8 415.002 1326 414.002 1323 413.702C1318.1 413.302 1310.8 410.802 1310.8 410.802L1309.6 416.402Z" fill="#2273B5"/>
<path d="M1334.4 527.5C1334.4 527.5 1332.1 531.6 1330.7 532.4C1329 533.4 1325.7 536.8 1324.6 536.9C1323.4 537.1 1319.3 537.8 1320.1 540.1C1320.8 542 1330.6 541.7 1331.7 540.8C1332.8 539.8 1336.1 536.4 1337.5 536.5C1338.8 536.6 1338.3 541.5 1338.3 541.5H1339.8C1339.8 541.5 1340.3 536.7 1340.4 535.9C1340.6 533.5 1338.9 531.7 1338.8 530.3C1338.7 528.9 1338.6 527.9 1338.6 527.9L1334.4 527.5Z" fill="#16202E"/>
<path d="M1325 536.803C1325 536.803 1328.3 537.903 1330.8 536.503C1333.3 535.103 1338.1 532.903 1339.8 532.903C1339.8 532.903 1338.9 530.103 1338.9 529.703C1338.9 529.403 1338.8 527.903 1338.8 527.903L1334.6 527.203C1334.6 527.203 1331.9 531.203 1330.7 532.103C1329.3 533.103 1326.2 535.503 1325 536.803Z" fill="#EEA886"/>
<path d="M1374.1 531.299C1374.1 531.299 1373.7 534.099 1373.3 534.899C1372.9 535.699 1371.6 539.599 1371.1 540.399C1370.5 541.099 1369.3 546.699 1371.1 547.299C1372.9 547.999 1377 549.099 1378.4 546.899C1379.8 544.699 1380 542.499 1379.8 540.799C1379.6 539.099 1377.9 531.299 1377.9 530.499C1377.9 529.799 1374.1 531.299 1374.1 531.299Z" fill="#EEA886"/>
<path d="M1371.7 538.898C1371.7 538.898 1371.5 543.198 1374.8 543.198C1378 543.198 1379.5 539.298 1379.5 539.298C1379.5 539.298 1380.6 541.198 1379.5 545.298C1378.4 549.398 1373.8 548.498 1372.7 548.398C1371.7 548.198 1366.8 546.898 1371.7 538.898Z" fill="#16202E"/>
<path d="M1368.7 433.4C1368.7 433.4 1372.9 438.7 1374.4 442.3C1375.9 445.8 1378.3 453.6 1378 459.6C1377.7 465.6 1375.7 476.9 1376.3 479.4C1376.9 481.9 1377.5 487.2 1378.1 489C1378.7 490.8 1381.2 496.1 1381.4 501.5C1381.6 506.9 1379.6 530.8 1379.8 533C1380 535.2 1372.6 533.9 1372.6 533.9C1372.6 533.9 1372.4 512.4 1371.6 508.7C1370.8 505 1369.8 492.4 1369 491.5C1368.3 490.6 1366.2 481.1 1366 479.5C1365.9 478 1357.1 451.9 1356.6 447.5C1356.1 443.1 1345.1 433.4 1345.1 433.4C1345.1 433.4 1356 429.3 1368.7 433.4Z" fill="#1A598C"/>
<path d="M1341.4 528.703C1343 528.503 1347.2 504.403 1346.7 500.103C1346.2 495.803 1345.7 486.703 1347.1 483.003C1348 480.603 1353.8 468.203 1357.6 459.503C1358.1 458.303 1358.7 457.103 1359.1 456.103C1360.3 453.303 1361.1 451.303 1361.2 450.903C1361.3 449.303 1366.6 420.903 1345.5 433.503C1345.5 433.503 1345.3 435.703 1345 436.603C1344.8 437.403 1339.1 458.403 1338.5 466.503C1337.9 474.603 1336.4 481.403 1336.2 483.103C1336 484.803 1336.4 490.603 1336.9 492.103C1337.4 493.603 1333.7 527.003 1333.4 527.803C1333.2 528.503 1339.8 528.903 1341.4 528.703Z" fill="#1A598C"/>
<path d="M1353.7 388.599C1353.7 388.599 1349.7 390.499 1348.3 390.799C1346.9 391.099 1341.5 398.099 1340.6 400.699C1339.7 403.299 1340.6 407.099 1342.5 411.599C1344.4 416.099 1342.6 417.599 1343.5 422.099C1344.4 426.599 1345.2 436.199 1345 438.699C1344.8 441.199 1367.5 441.699 1372.7 437.099C1372.7 437.099 1367.5 429.299 1366.8 428.199C1366.1 427.099 1366.7 420.999 1367.3 419.499C1367.9 417.899 1372.3 405.099 1372.3 405.099C1372.3 405.099 1375.4 394.499 1372.4 392.199C1369.8 390.199 1362.6 389.399 1361.4 388.999C1360.1 388.399 1356.3 388.199 1353.7 388.599Z" fill="#EDDAD3"/>
<path d="M1352.4 397.502L1350 394.602L1352.1 387.102C1352.1 387.202 1352.8 391.402 1352.4 397.502Z" fill="#D6C5BE"/>
<path d="M1351.8 384.004C1351.8 384.004 1352.6 391.404 1352.4 393.804C1352.4 393.804 1356.6 398.004 1361.3 388.904C1361.3 388.904 1359.3 385.204 1360.8 380.104C1362.3 375.004 1351.8 384.004 1351.8 384.004Z" fill="#EEA886"/>
<path d="M1352.4 393.703V397.503L1357.2 394.003L1352.4 393.703Z" fill="#EEA886"/>
<path d="M1352.4 397.498L1354.4 395.098L1361.1 388.398L1363.3 390.498L1352.4 397.498Z" fill="#D6C5BE"/>
<path d="M1360.1 442.303C1362 451.303 1375.6 441.303 1375.6 441.303C1375.6 441.303 1366.7 426.403 1370.3 414.503C1370.3 414.403 1370.4 414.303 1370.4 414.203C1370.6 413.403 1370.8 412.703 1371.1 412.103C1371.1 412.003 1371.2 411.903 1371.2 411.703C1372 409.403 1372.6 407.403 1373.1 405.803C1374.7 400.903 1375.1 399.303 1375.1 399.303C1375.1 399.303 1374.4 391.703 1370.7 390.803C1366.9 390.003 1362.9 389.203 1362.9 389.203C1362.9 389.203 1356.4 397.603 1356.1 401.303C1355.9 405.103 1358.2 433.203 1360.1 442.303Z" fill="#2273B5"/>
<path d="M1340 402.4C1340 402.4 1339.6 407.6 1343.1 414.4C1343.1 414.4 1343 423.5 1342.9 426.7C1342.8 429.9 1342 441.9 1342 441.9L1345.9 444.2C1346.7 444.7 1347.7 444 1347.6 443.1C1346.5 434 1342.9 399.3 1350.7 390L1347.2 391.2C1347.3 391.1 1340 398.7 1340 402.4Z" fill="#2273B5"/>
<path d="M1350 394.703L1346.9 395.503L1352.1 387.203L1350 394.703Z" fill="#FAE6DE"/>
<path d="M1354.4 395.098L1357.2 398.798L1363 389.198L1361.1 388.398L1354.4 395.098Z" fill="#FAE6DE"/>
<path d="M1354.7 360.205C1351.8 359.905 1345.2 361.105 1343.8 368.805C1343.8 368.805 1343.9 370.905 1344.4 372.605C1344.8 374.305 1343.1 379.105 1343.5 379.305C1343.9 379.605 1345.5 379.905 1345.5 379.905C1345.5 379.905 1347 385.305 1348.8 385.305C1350.7 385.305 1357.8 384.205 1361.5 377.805C1365 371.505 1366.6 361.405 1354.7 360.205Z" fill="#EEA886"/>
<path d="M1343.8 368.9C1343.8 368.9 1348.4 372.4 1353.1 373.3C1357.8 374.2 1360.4 382.4 1360.4 382.4C1360.4 382.4 1368.3 370.5 1362.8 362.9C1357.3 355.2 1343.2 359.7 1343.8 368.9Z" fill="#344052"/>
<path d="M1355.1 373.105C1355.2 372.205 1356.3 370.905 1357.7 372.205C1359.1 373.505 1356.9 377.805 1355.7 377.305C1354.5 376.805 1355 374.105 1355.1 373.105Z" fill="#EEA886"/>
<path d="M1351.8 385.005C1351.9 385.605 1352 386.205 1352.1 386.905C1356 384.605 1358.1 381.805 1358.1 381.805C1355.8 383.805 1351.8 385.005 1351.8 385.005Z" fill="#A77860"/>
<g opacity="0.86">
<path d="M1267.8 434.802L1326.4 435.102C1329.6 435.102 1332.2 432.502 1332.2 429.302L1332.4 390.202C1332.4 387.002 1329.8 384.402 1326.6 384.402L1268 384.102C1264.8 384.102 1262.2 386.702 1262.2 389.902L1262 429.002C1262 432.102 1264.6 434.702 1267.8 434.802Z" fill="#E0F1FF"/>
</g>
<path d="M1293.9 430.8L1323.7 430.9C1325.8 430.9 1327.5 429.2 1327.5 427.1L1327.7 393.9C1327.7 391.8 1326 390.1 1323.9 390.1L1294.1 390C1292 390 1290.3 391.7 1290.3 393.8L1290.1 427C1290.1 429.1 1291.8 430.8 1293.9 430.8Z" fill="#A1D4FF"/>
<path d="M1269.5 430.8L1286.7 430.9C1287.3 430.9 1287.8 430.4 1287.8 429.8V425.7C1287.8 425.1 1287.3 424.6 1286.7 424.6L1269.5 424.5C1268.9 424.5 1268.4 425 1268.4 425.6V429.7C1268.5 430.3 1268.9 430.8 1269.5 430.8Z" fill="#A1D4FF"/>
<path d="M1269.1 422.705L1287.3 422.805C1287.6 422.805 1287.9 422.505 1287.9 422.205V421.505C1287.9 421.205 1287.6 420.905 1287.3 420.905L1269.1 420.805C1268.8 420.805 1268.5 421.105 1268.5 421.405V422.105C1268.5 422.505 1268.7 422.705 1269.1 422.705Z" fill="#A1D4FF"/>
<path d="M1334.5 418.704C1334.5 418.704 1333.8 418.904 1333.3 418.604C1332.4 418.204 1331.8 416.804 1330.4 417.204C1329 417.604 1329.3 422.104 1329.8 422.904C1330.3 423.704 1332.3 423.704 1335.1 422.504C1337.9 421.204 1334.5 418.704 1334.5 418.704Z" fill="#EEA886"/>
<path d="M1330.9 417.105C1330.9 417.105 1328.8 416.805 1326.3 416.805C1324.2 416.805 1321.7 417.205 1321.6 417.605C1321.4 418.005 1323.7 417.905 1325.8 418.105C1327.7 418.205 1327.3 418.505 1327.3 418.505C1327.3 418.505 1327.4 418.405 1325.3 418.705C1323 419.005 1320.7 419.505 1320.6 420.005C1320.5 420.205 1320.6 420.405 1321.5 420.405C1321 420.505 1321 420.605 1321 420.805C1321.1 421.805 1324.6 421.905 1325.9 422.005C1324.9 422.005 1324.1 422.105 1324.6 422.705C1325.2 423.405 1330 423.305 1331.8 423.505C1333.8 423.405 1330.9 417.105 1330.9 417.105Z" fill="#EEA886"/>
<path d="M1359.5 371.5C1358.1 374.8 1358.9 378.3 1361.4 379.5C1363.9 380.6 1367.1 378.8 1368.6 375.6C1370 372.3 1369.2 368.8 1366.7 367.6C1364.2 366.4 1361 368.2 1359.5 371.5Z" fill="#344052"/>
<path d="M1371.5 391.102C1371.5 391.102 1367.8 391.802 1365.9 394.702C1364.1 397.602 1362.2 401.702 1361.8 403.102C1361.4 404.502 1354.4 417.602 1354 417.902C1353.6 418.302 1349.7 418.002 1346.7 418.302C1341.8 418.802 1334.1 417.602 1334.1 417.602L1334 423.202C1334 423.202 1352.8 425.702 1356.7 423.902C1361.5 421.802 1373 405.602 1373 405.602C1373 405.602 1379.2 394.402 1371.5 391.102Z" fill="#2273B5"/>
<path d="M1363.9 417.503L1371.2 411.603C1372 409.303 1372.6 407.303 1373.1 405.703C1373.1 405.803 1365.7 415.503 1363.9 417.503Z" fill="#1A598C"/>
<path d="M1340.7 414.2C1341.2 413.6 1341.7 413.1 1342.3 412.5C1342.3 412.5 1340.3 407.2 1340.2 405C1340.1 405 1339.7 410 1340.7 414.2Z" fill="#1A598C"/>
<path d="M1285.1 394.805C1283.8 391.205 1280.4 389.005 1276.8 389.105C1275.9 389.105 1275 389.305 1274.2 389.605C1271.6 390.505 1269.7 392.605 1268.9 395.105C1268.4 396.805 1268.4 398.705 1269 400.505C1269.1 400.705 1269.1 400.905 1269.2 401.005C1269.5 401.805 1270 402.505 1270.5 403.105C1272.7 405.705 1276.5 406.805 1279.9 405.605C1284.4 404.205 1286.7 399.305 1285.1 394.805ZM1279.2 403.805C1276.6 404.705 1273.8 403.905 1272.1 401.905C1271.7 401.405 1271.4 400.905 1271.1 400.305C1271 400.205 1271 400.005 1270.9 399.905C1270.4 398.505 1270.4 397.105 1270.8 395.805C1271.4 393.905 1272.8 392.405 1274.8 391.705C1275.4 391.505 1276.1 391.305 1276.8 391.305C1279.5 391.205 1282.1 392.905 1283 395.605C1284.3 398.905 1282.5 402.605 1279.2 403.805Z" fill="#73C0FF"/>
<path d="M1270.9 395.803L1268.9 395.203C1269.7 392.703 1271.6 390.603 1274.2 389.703C1275.1 389.403 1276 389.203 1276.8 389.203L1276.9 391.303C1276.2 391.303 1275.6 391.403 1274.9 391.703C1272.9 392.403 1271.5 394.003 1270.9 395.803Z" fill="#73C0FF"/>
<path d="M1271.2 400.305L1269.2 401.205C1269.1 401.005 1269.1 400.805 1269 400.705C1268.3 398.905 1268.4 397.005 1268.9 395.305L1270.9 395.905C1270.5 397.205 1270.5 398.605 1271 400.005C1271 400.005 1271.1 400.205 1271.2 400.305Z" fill="#73C0FF"/>
<path d="M1270.5 403.305C1270 402.705 1269.5 402.005 1269.2 401.205L1271.2 400.305C1271.5 400.905 1271.8 401.405 1272.2 401.905L1270.5 403.305Z" fill="#73C0FF"/>
<path d="M1275.5 409.901C1275 408.401 1273.6 407.501 1272.1 407.601C1271.7 407.601 1271.4 407.701 1271 407.801C1269.9 408.201 1269.1 409.001 1268.8 410.101C1268.6 410.801 1268.6 411.601 1268.8 412.301C1268.8 412.401 1268.9 412.401 1268.9 412.501C1269 412.801 1269.2 413.101 1269.4 413.401C1270.3 414.501 1271.8 414.901 1273.3 414.401C1275.2 413.701 1276.1 411.701 1275.5 409.901ZM1273 413.501C1271.9 413.901 1270.8 413.501 1270.1 412.701C1269.9 412.501 1269.8 412.301 1269.7 412.001C1269.7 411.901 1269.7 411.901 1269.6 411.801C1269.4 411.201 1269.4 410.701 1269.6 410.101C1269.8 409.301 1270.4 408.701 1271.2 408.401C1271.5 408.301 1271.7 408.301 1272 408.201C1273.1 408.201 1274.2 408.801 1274.6 409.901C1275.1 411.501 1274.4 413.001 1273 413.501Z" fill="#73C0FF"/>
<path d="M1269.6 410.3L1268.8 410C1269.1 409 1269.9 408.1 1271 407.7C1271.4 407.6 1271.7 407.5 1272.1 407.5V408.4C1271.8 408.4 1271.6 408.5 1271.3 408.6C1270.5 408.9 1269.9 409.5 1269.6 410.3Z" fill="#73C0FF"/>
<path d="M1269.7 412.102L1268.9 412.502C1268.9 412.402 1268.8 412.402 1268.8 412.302C1268.5 411.602 1268.5 410.802 1268.8 410.102L1269.6 410.402C1269.4 410.902 1269.4 411.502 1269.6 412.102C1269.7 412.002 1269.7 412.102 1269.7 412.102Z" fill="#73C0FF"/>
<path d="M1269.5 413.3C1269.3 413 1269.1 412.7 1269 412.4L1269.8 412C1269.9 412.2 1270 412.5 1270.2 412.7L1269.5 413.3Z" fill="#73C0FF"/>
<path d="M1009.4 301.805H1003.2V324.705H1009.4V301.805Z" fill="#78C2FF"/>
<path d="M1018.2 299.5H1012V324.7H1018.2V299.5Z" fill="#78C2FF"/>
<path d="M1027.2 304.203H1021V324.603H1027.2V304.203Z" fill="#78C2FF"/>
<path d="M1036.1 294.805H1029.9V324.605H1036.1V294.805Z" fill="#78C2FF"/>
<path d="M1045.6 297.805H1039.4V324.705H1045.6V297.805Z" fill="#78C2FF"/>
<path d="M286.901 404.102C289.601 398.402 291.401 392.402 292.401 386.302L305.001 382.502L303.701 368.302L302.401 354.102L289.401 352.702C287.301 346.902 284.401 341.402 280.701 336.202L286.901 324.702L275.901 315.602L264.901 306.502L254.701 314.702C249.001 312.002 243.001 310.202 236.901 309.202L233.101 296.602L218.901 297.902L204.701 299.202L203.301 312.202C197.501 314.302 192.001 317.202 186.801 320.902L175.301 314.702L166.201 325.702L157.101 336.702L165.301 346.902C162.601 352.602 160.801 358.602 159.801 364.702L147.201 368.502L148.501 382.702L149.801 396.902L162.801 398.302C164.901 404.102 167.801 409.602 171.501 414.802L165.301 426.302L176.301 435.402L187.301 444.502L197.501 436.302C203.201 439.002 209.201 440.802 215.301 441.802L219.101 454.402L233.301 453.102L247.501 451.802L248.901 438.802C254.701 436.702 260.201 433.802 265.401 430.102L276.901 436.302L286.001 425.302L295.101 414.302L286.901 404.102ZM203.901 402.502C189.101 390.202 187.001 368.202 199.301 353.302C211.601 338.502 233.601 336.402 248.501 348.702C263.301 361.002 265.401 383.002 253.101 397.902C240.701 412.702 218.701 414.802 203.901 402.502Z" fill="url(#paint2_linear_735_2011)"/>
<path d="M872.801 512.003C873.801 509.803 874.601 507.403 874.901 505.103L879.801 503.603L879.301 498.103L878.801 492.603L873.701 492.103C872.901 489.803 871.801 487.703 870.301 485.703L872.701 481.203L868.401 477.603L864.101 474.003L860.101 477.203C857.901 476.203 855.501 475.403 853.201 475.103L851.701 470.203L846.201 470.703L840.701 471.203L840.201 476.303C837.901 477.103 835.801 478.203 833.801 479.703L829.301 477.303L825.701 481.603L822.101 485.903L825.301 489.903C824.301 492.103 823.501 494.503 823.201 496.803L818.301 498.303L818.801 503.803L819.301 509.303L824.401 509.803C825.201 512.103 826.301 514.203 827.801 516.203L825.401 520.703L829.701 524.303L834.001 527.903L838.001 524.703C840.201 525.703 842.601 526.503 844.901 526.803L846.401 531.703L851.901 531.203L857.401 530.703L857.901 525.603C860.201 524.803 862.301 523.703 864.301 522.203L868.801 524.603L872.401 520.303L876.001 516.003L872.801 512.003ZM840.301 511.403C834.501 506.603 833.701 498.003 838.501 492.203C843.301 486.403 851.901 485.603 857.701 490.403C863.501 495.203 864.301 503.803 859.501 509.603C854.701 515.403 846.101 516.203 840.301 511.403Z" fill="url(#paint3_linear_735_2011)"/>
<path d="M583.801 473.902C584.801 471.702 585.601 469.302 585.901 467.002L590.801 465.502L590.301 460.002L589.801 454.502L584.701 454.002C583.901 451.702 582.801 449.602 581.301 447.602L583.701 443.102L579.401 439.502L575.101 435.902L571.101 439.102C568.901 438.102 566.501 437.302 564.201 437.002L562.701 432.102L557.201 432.602L551.701 433.102L551.201 438.202C548.901 439.002 546.801 440.102 544.801 441.602L540.301 439.202L536.701 443.502L533.101 447.802L536.301 451.802C535.301 454.002 534.501 456.402 534.201 458.702L529.301 460.202L529.801 465.702L530.301 471.202L535.401 471.702C536.201 474.002 537.301 476.102 538.801 478.102L536.401 482.602L540.701 486.202L545.001 489.802L549.001 486.602C551.201 487.602 553.601 488.402 555.901 488.702L557.401 493.602L562.901 493.102L568.401 492.602L568.901 487.502C571.201 486.702 573.301 485.602 575.301 484.102L579.801 486.502L583.401 482.202L587.001 477.902L583.801 473.902ZM551.301 473.302C545.501 468.502 544.701 459.902 549.501 454.102C554.301 448.302 562.901 447.502 568.701 452.302C574.501 457.102 575.301 465.702 570.501 471.502C565.701 477.302 557.101 478.102 551.301 473.302Z" fill="url(#paint4_linear_735_2011)"/>
<path d="M1124.6 197.8C1125.6 195.6 1126.4 193.2 1126.7 190.9L1131.6 189.4L1131.1 183.9L1130.6 178.4L1125.5 177.9C1124.7 175.6 1123.6 173.5 1122.1 171.5L1124.5 167L1120.2 163.4L1115.9 159.8L1111.9 163C1109.7 162 1107.3 161.2 1105 160.9L1103.5 156L1098 156.5L1092.5 157L1092 162.1C1089.7 162.9 1087.6 164 1085.6 165.5L1081.1 163.1L1077.5 167.4L1073.9 171.7L1077.1 175.7C1076.1 177.9 1075.3 180.3 1075 182.6L1070.1 184.1L1070.6 189.6L1071.1 195.1L1076.2 195.6C1077 197.9 1078.1 200 1079.6 202L1077.2 206.5L1081.5 210.1L1085.8 213.7L1089.8 210.5C1092 211.5 1094.4 212.3 1096.7 212.6L1098.2 217.5L1103.7 217L1109.2 216.5L1109.7 211.4C1112 210.6 1114.1 209.5 1116.1 208L1120.6 210.4L1124.2 206.1L1127.8 201.8L1124.6 197.8ZM1092.2 197.1C1086.4 192.3 1085.6 183.7 1090.4 177.9C1095.2 172.1 1103.8 171.3 1109.6 176.1C1115.4 180.9 1116.2 189.5 1111.4 195.3C1106.6 201.1 1098 201.9 1092.2 197.1Z" fill="url(#paint5_linear_735_2011)"/>
<path d="M120.2 265.605C121.2 263.405 122 261.005 122.3 258.705L127.2 257.205L126.7 251.705L126.2 246.205L121.1 245.705C120.3 243.405 119.2 241.305 117.7 239.305L120.1 234.805L115.8 231.205L111.5 227.605L107.5 230.805C105.3 229.805 102.9 229.005 100.6 228.705L99.0996 223.805L93.5996 224.305L88.0996 224.805L87.5996 229.905C85.2996 230.705 83.1996 231.805 81.1996 233.305L76.6996 230.905L72.9996 235.005L69.3996 239.305L72.5996 243.305C71.5996 245.505 70.7996 247.905 70.4996 250.205L65.5996 251.705L66.0996 257.205L66.5996 262.705L71.6996 263.205C72.4996 265.505 73.5996 267.605 75.0996 269.605L72.6996 274.105L76.9996 277.705L81.2996 281.305L85.2996 278.105C87.4996 279.105 89.8996 279.905 92.1996 280.205L93.6996 285.105L99.1996 284.605L104.7 284.105L105.2 279.005C107.5 278.205 109.6 277.105 111.6 275.605L116.1 278.005L119.7 273.705L123.3 269.405L120.2 265.605ZM87.6996 264.905C81.8996 260.105 81.0996 251.505 85.8996 245.705C90.6996 239.905 99.2996 239.105 105.1 243.905C110.9 248.705 111.7 257.305 106.9 263.105C102.1 269.005 93.4996 269.805 87.6996 264.905Z" fill="url(#paint6_linear_735_2011)"/>
<path d="M54.8005 478C54.8005 478 10.8005 511.7 27.1005 543.3C43.3005 575 55.2005 550 55.2005 550C55.2005 550 67.9005 555.4 52.3005 516.8C44.9005 498.7 54.8005 478 54.8005 478Z" fill="#BBD070"/>
<path d="M-14.5998 428.898C-14.5998 428.898 -48.8998 461.398 -13.4998 515.398C21.9002 569.398 12.8002 594.898 12.8002 594.898C12.8002 594.898 78.8002 514.798 -14.5998 428.898Z" fill="#97A43C"/>
<path d="M24.9004 580.202C43.4004 586.102 32.7004 530.102 6.1004 510.202C-20.4996 490.302 -45.7996 486.002 -59.9996 468.102C-59.8996 468.102 -66.3996 551.302 24.9004 580.202Z" fill="#48753A"/>
<path d="M1346.7 472.5C1346.7 472.5 1390.7 506.2 1374.4 537.8C1358.2 569.4 1346.3 544.5 1346.3 544.5C1346.3 544.5 1333.6 549.9 1349.2 511.3C1356.6 493.2 1346.7 472.5 1346.7 472.5Z" fill="#BBD070"/>
<path d="M1416.1 423.5C1416.1 423.5 1450.4 456 1415 510C1379.6 564 1388.7 589.5 1388.7 589.5C1388.7 589.5 1322.7 509.3 1416.1 423.5Z" fill="#97A43C"/>
<path d="M1376.6 574.702C1358.1 580.602 1368.8 524.602 1395.4 504.702C1422 484.802 1447.3 480.502 1461.5 462.602C1461.5 462.602 1467.9 545.802 1376.6 574.702Z" fill="#48753A"/>
<path d="M370.099 417.702C371.099 403.602 371.899 390.402 372.299 378.102C368.899 376.302 364.799 374.202 361.499 372.602C351.399 367.802 337.199 361.302 328.199 357.102C322.899 354.702 317.699 352.902 317.699 352.902C317.699 352.902 281.499 349.402 278.499 349.602C277.599 349.702 272.999 351.202 267.099 353.502C254.199 358.402 229.499 368.302 225.499 371.102C219.699 375.202 198.999 476.702 198.499 483.602C197.999 490.302 226.699 499.502 253.199 506.502C253.199 516.802 252.999 531.202 252.699 544.402C252.699 546.602 252.599 548.902 252.599 551.002H368.899C368.699 548.702 368.599 546.502 368.499 544.402C368.499 544.102 368.499 543.802 368.499 543.602C368.099 534.702 366.299 518.702 366.799 503.202C366.799 503.202 366.499 486.802 368.099 479.802C368.199 448.602 370.099 417.702 370.099 417.702ZM222.699 477.402C222.899 464.202 240.499 439.602 240.499 439.602L241.299 439.302L242.199 439.202C242.199 439.202 244.899 436.602 244.999 436.602C245.599 438.902 251.499 472.102 252.899 491.502C236.299 488.202 222.599 483.702 222.699 477.402Z" fill="#DBD8E3"/>
<path d="M372.299 544.397C371.499 538.897 370.799 533.397 370.199 527.997C370.199 527.997 370.199 527.997 370.199 527.897C369.999 526.097 369.799 524.297 369.599 522.597C369.599 522.497 369.599 522.397 369.599 522.297C368.799 514.897 367.999 507.797 367.499 501.297C367.099 496.297 367.499 491.397 368.199 486.697C370.199 453.397 371.199 418.297 371.199 418.297C372.299 403.897 372.899 390.497 373.299 377.997C373.299 377.997 327.799 356.497 323.699 355.297C323.699 355.297 332.299 375.597 338.799 420.897C341.299 438.297 345.899 467.597 349.199 497.497C350.999 513.597 354.399 530.097 356.999 544.597C357.399 546.797 357.799 548.997 358.099 551.197H373.299C372.899 548.797 372.599 546.597 372.299 544.397Z" fill="#323657"/>
<path d="M296.5 490.9C298.3 474.1 299.9 457.2 299.1 448C292.8 373.9 275.1 354.3 272.5 351.5C270.5 352.3 262.9 355.1 260.7 356C248.6 360.8 223.8 369.6 220.5 372C214.7 376.1 191.9 482.5 191.2 489.4C190.7 494.1 220.5 503.8 250.9 512.4C250.6 520.7 251.4 532.5 248.6 544.7C248.1 546.9 247.4 548.2 247.3 551.1L289.6 550.9C289.9 548.7 290.1 546.5 290.4 544.3C291.2 537.7 292 530.9 292.9 523.7C305.6 527 314.2 529.1 314.2 529.1C314.2 529.1 326.1 508.9 329.6 500.8C330.2 499.5 314.9 495.8 296.5 490.9ZM241.7 465.4C241.3 450.2 241.4 439.7 241.4 439.7C242.9 444.9 245 459.7 246.8 474.5C240.7 471.3 241.8 468.4 241.7 465.4Z" fill="#323657"/>
<path d="M276.6 350.796C276.6 350.796 281.2 342.096 279.9 317.396C279.5 310.496 315.9 333.596 315.9 333.596C315.9 333.596 315.8 335.996 315.7 339.096C315.7 340.396 315.6 341.896 315.6 343.396C315.6 343.796 315.6 344.196 315.6 344.596C315.6 345.296 315.6 345.896 315.6 346.596C315.6 347.396 315.6 348.196 315.7 348.996C315.7 349.896 315.8 350.696 315.9 351.496C316 352.996 316.9 355.596 317.2 356.396C319 360.296 290.2 360.496 276.6 350.796Z" fill="#EEA987"/>
<path d="M307.1 366.5L313.8 375.5C313.8 375.5 309.9 380.8 302.9 376.9L307.1 366.5Z" fill="#E8734D"/>
<path d="M312 375.902C312 375.902 336.5 435.802 331.3 512.002L323.6 526.002L314.9 514.002C314.9 514.002 313.5 412.902 306.5 375.602L312 375.902Z" fill="#E8734D"/>
<path d="M314.2 358.095L307 366.495C307 366.495 295.5 364.295 292.1 358.295C288.8 352.195 314.2 358.095 314.2 358.095Z" fill="#EEA987"/>
<path d="M315.9 350.797C315.9 350.797 315.1 357.197 307.1 366.497L315.8 378.197L320.5 353.897L315.9 350.797Z" fill="#C4C1CC"/>
<path d="M278.8 343.102C278.8 343.102 295.4 361.902 307.1 366.502L301.7 379.902L275.1 350.602L278.8 343.102Z" fill="#C4C1CC"/>
<path d="M449.899 513.403C449.899 513.403 427.799 492.003 413.299 488.403C406.599 486.803 397.799 477.503 389.399 466.603C386.599 463.003 383.899 459.303 381.299 455.503C370.999 440.703 362.999 426.503 362.999 426.503C362.999 426.503 332.599 390.903 356.999 375.003C356.999 375.003 367.499 374.803 373.199 377.903C379.099 381.103 391.699 407.303 393.799 412.003C395.899 416.603 418.999 459.803 420.599 460.803C422.099 461.803 424.699 465.303 433.999 470.303C445.299 476.403 463.099 494.203 463.099 494.203L449.899 513.403Z" fill="#323657"/>
<path d="M343.799 538.098C343.799 538.098 340.699 537.998 339.399 537.298C339.399 537.298 337.099 535.798 335.399 534.898C334.899 534.598 334.399 534.298 334.099 534.198C332.699 533.698 329.599 532.898 326.699 530.698C323.799 528.498 314.299 519.598 314.299 519.598L320.399 510.198L323.199 500.898C323.199 500.898 345.299 503.098 348.199 504.798C348.499 504.998 348.799 505.198 348.999 505.298C351.399 506.998 352.399 509.298 353.499 510.298C353.899 510.698 357.799 514.798 357.499 516.498C357.199 518.798 356.099 520.298 354.599 520.998C354.599 520.998 353.799 525.498 351.499 527.498C351.499 527.498 350.899 531.698 347.299 533.398C347.399 533.498 346.299 537.598 343.799 538.098Z" fill="#EFAA88"/>
<path d="M308.7 253.502C308.7 253.502 348.6 243.902 340.2 294.402C331.8 344.902 322.2 349.002 297.9 338.902C273.6 328.802 275.3 296.502 273.8 280.702C272.4 265.002 295.9 254.302 308.7 253.502Z" fill="#EEA886"/>
<path d="M287.699 288.499C287.099 284.099 278.299 282.599 277.699 289.199C277.099 295.899 281.999 307.499 285.299 306.299C288.599 305.099 288.499 294.599 287.699 288.499Z" fill="#EEA886"/>
<path d="M276.099 306.599C276.099 306.599 276.899 290.699 282.699 290.099C288.499 289.499 289.499 295.899 289.499 295.899L295.399 296.899C295.399 296.899 293.299 282.999 299.099 280.499C304.899 277.999 336.699 287.599 341.299 283.499C345.899 279.299 343.299 251.199 334.799 247.399C326.299 243.699 302.999 235.299 286.199 247.099C286.199 247.099 272.899 245.799 271.099 256.499C269.299 267.299 272.399 298.699 276.099 306.599Z" fill="#16202E"/>
<path d="M330.7 500.898L314.2 529.198C314.2 529.198 270.6 517.998 260.4 515.098L283.7 487.398C283.7 487.398 318 495.198 330.7 500.898Z" fill="#323657"/>
<path d="M315.8 349.098C294.4 346.898 286.1 330.398 286.1 330.398C299.6 343.698 315.7 343.398 315.7 343.398C315.7 343.798 315.7 344.198 315.7 344.598C315.7 345.298 315.7 345.898 315.7 346.598C315.7 347.498 315.7 348.298 315.8 349.098Z" fill="#A77860"/>
<path d="M346.401 511.898C346.401 511.898 353.101 515.098 354.801 516.598C356.501 517.998 363.601 523.298 365.301 524.598C367.001 525.798 362.701 529.398 350.101 523.898C337.501 518.398 346.401 511.898 346.401 511.898Z" fill="#EEA886"/>
<path d="M347.001 438.805L335.301 547.105H488.501L500.201 438.805H347.001Z" fill="#FFC955"/>
<path d="M497.3 542.103H342.9L354.7 432.703H509.1L497.3 542.103ZM344.2 540.903H496.2L507.7 433.903H355.7L344.2 540.903Z" fill="#FFC955"/>
<path d="M323.168 547.109H348.768V537.409H323.168V547.109Z" fill="#FFC955"/>
<path d="M38.5 546.102V552.702H1401.5V546.102" fill="#00327A"/>
<path d="M409.199 491.199C407.999 497.199 410.799 502.899 415.499 503.799C420.199 504.799 424.999 500.699 426.199 494.599C427.399 488.599 424.599 482.899 419.899 481.999C415.299 481.099 410.499 485.199 409.199 491.199Z" fill="#CFA345"/>
<path d="M191.2 514.902H126.6C121.8 514.902 118 511.002 118 506.302V404.202C118 399.402 121.9 395.602 126.6 395.602H191.2C196 395.602 199.8 399.502 199.8 404.202V506.302C199.8 511.102 196 514.902 191.2 514.902Z" fill="#FFC955"/>
<path d="M191.1 472.602H186.9V504.902H191.1V472.602Z" fill="#E3F2FF"/>
<path d="M182.7 476.297H178.5V504.997H182.7V476.297Z" fill="#E3F2FF"/>
<path d="M173.6 481H169.4V505H173.6V481Z" fill="#E3F2FF"/>
<path d="M164.2 486.898H160V504.898H164.2V486.898Z" fill="#E3F2FF"/>
<path d="M134.699 483.1L133.799 482.8L141.799 460.3L159.199 455.7L165.399 431.1L178.799 425.2L181.799 406L182.799 406.1L179.699 425.8L166.199 431.8L159.999 456.5L142.599 461.1L134.699 483.1Z" fill="#E3F2FF"/>
<path d="M161.6 454.499C162.5 455.599 162.3 457.299 161.2 458.199C160.1 459.099 158.4 458.899 157.5 457.799C156.6 456.699 156.8 454.999 157.9 454.099C159 453.199 160.7 453.299 161.6 454.499Z" fill="#FFC955"/>
<path d="M161.499 458.498C160.199 459.598 158.199 459.398 157.099 458.098C155.999 456.798 156.199 454.798 157.499 453.698C158.799 452.598 160.799 452.798 161.899 454.098C162.999 455.498 162.799 457.398 161.499 458.498ZM158.199 454.498C157.299 455.198 157.199 456.598 157.899 457.498C158.599 458.398 159.999 458.498 160.899 457.798C161.799 457.098 161.899 455.698 161.199 454.798C160.499 453.898 159.099 453.698 158.199 454.498Z" fill="#E3F2FF"/>
<path d="M167.899 429.896C168.799 430.996 168.599 432.696 167.499 433.596C166.399 434.496 164.699 434.296 163.799 433.196C162.899 432.096 163.099 430.396 164.199 429.496C165.399 428.596 166.999 428.796 167.899 429.896Z" fill="#FFC955"/>
<path d="M167.8 433.998C166.5 435.098 164.5 434.898 163.4 433.598C162.3 432.298 162.5 430.298 163.8 429.198C165.1 428.098 167.1 428.298 168.2 429.598C169.4 430.898 169.2 432.898 167.8 433.998ZM164.5 429.898C163.6 430.598 163.5 431.998 164.2 432.898C164.9 433.798 166.3 433.898 167.2 433.198C168.1 432.498 168.2 431.098 167.5 430.198C166.8 429.298 165.5 429.198 164.5 429.898Z" fill="#E3F2FF"/>
<path d="M181.1 423.8C182 424.9 181.8 426.6 180.7 427.5C179.6 428.4 177.9 428.2 177 427.1C176.1 426 176.3 424.3 177.4 423.4C178.5 422.6 180.2 422.7 181.1 423.8Z" fill="#FFC955"/>
<path d="M180.999 427.897C179.699 428.997 177.699 428.797 176.599 427.497C175.499 426.197 175.699 424.197 176.999 423.097C178.299 421.997 180.299 422.197 181.399 423.497C182.499 424.797 182.399 426.797 180.999 427.897ZM177.699 423.797C176.799 424.497 176.699 425.897 177.399 426.797C178.099 427.697 179.499 427.797 180.399 427.097C181.299 426.397 181.399 424.997 180.699 424.097C179.999 423.197 178.599 423.097 177.699 423.797Z" fill="#E3F2FF"/>
<path d="M144.3 459.303C145.2 460.403 145 462.103 143.9 463.003C142.8 463.903 141.1 463.703 140.2 462.603C139.3 461.503 139.5 459.803 140.6 458.903C141.7 458.003 143.4 458.203 144.3 459.303Z" fill="#FFC955"/>
<path d="M144.2 463.303C142.9 464.403 140.9 464.203 139.8 462.903C138.7 461.603 138.9 459.603 140.2 458.503C141.5 457.403 143.5 457.603 144.6 458.903C145.8 460.303 145.6 462.203 144.2 463.303ZM140.9 459.303C140 460.003 139.9 461.403 140.6 462.303C141.3 463.203 142.7 463.303 143.6 462.603C144.5 461.903 144.6 460.503 143.9 459.603C143.2 458.703 141.8 458.603 140.9 459.303Z" fill="#E3F2FF"/>
<path d="M150.8 434.797H128.5C127.5 434.797 126.6 433.997 126.6 432.897V431.197C126.6 430.197 127.4 429.297 128.5 429.297H150.8C151.8 429.297 152.7 430.097 152.7 431.197V432.897C152.7 433.997 151.9 434.797 150.8 434.797Z" fill="#EBEBEB"/>
<path d="M150.8 425.398H128.5C127.5 425.398 126.6 424.598 126.6 423.498V421.798C126.6 420.798 127.4 419.898 128.5 419.898H150.8C151.8 419.898 152.7 420.698 152.7 421.798V423.498C152.7 424.598 151.9 425.398 150.8 425.398Z" fill="#EBEBEB"/>
<path d="M107.901 439.195C107.901 439.195 107.101 446.695 108.501 448.495C108.501 448.495 104.901 447.695 104.001 446.395C103.101 445.095 107.901 439.195 107.901 439.195Z" fill="#16202E"/>
<path d="M130.702 462.997C130.702 462.997 132.002 462.097 132.202 461.997C132.402 461.897 133.102 461.897 133.902 461.997C134.702 462.097 135.702 462.597 135.702 462.697C135.802 462.797 135.902 462.897 135.802 463.297C135.702 463.597 135.502 463.897 135.502 463.897C135.502 463.897 135.602 464.397 135.302 464.697C135.302 464.697 135.402 465.097 135.002 465.397C135.002 465.397 135.102 465.797 134.802 465.997C134.802 465.997 134.102 465.997 133.902 465.997C133.602 466.097 132.202 465.897 130.902 465.597C131.002 465.497 129.502 465.197 130.702 462.997Z" fill="#EEA886"/>
<path d="M132.902 463.602C132.902 463.602 132.502 464.302 132.302 464.402C132.102 464.502 133.302 465.902 133.302 465.902C133.302 465.902 133.802 464.102 132.902 463.602Z" fill="#CF8C6C"/>
<path d="M129.901 463.099C129.901 463.099 130.701 462.999 131.201 462.799C131.701 462.599 131.101 465.399 131.101 465.399C131.101 465.399 129.901 464.499 129.001 464.499C128.301 464.499 129.901 463.099 129.901 463.099Z" fill="#EEA886"/>
<path d="M95.4022 538.495C95.4022 538.495 98.0022 542.295 98.9022 543.095C98.9022 543.095 100.702 543.995 100.802 544.795C100.902 546.195 101.002 547.095 98.6022 547.095C96.2022 547.195 94.7022 547.095 94.3022 545.595C93.9022 544.195 93.1022 542.995 93.1022 542.995L92.9022 546.795H92.4022C92.4022 546.795 92.2022 542.995 92.1022 542.495C92.1022 541.995 91.7022 539.895 92.8022 538.995C94.0022 538.095 95.4022 538.495 95.4022 538.495Z" fill="#162D40"/>
<path d="M99.3016 543.298C99.3016 543.298 98.0016 543.698 96.5016 543.298C95.0016 542.898 93.5016 539.198 93.0016 538.898L92.6016 537.398H95.6016C95.6016 537.398 95.6016 538.498 96.1016 539.398C96.6016 540.398 99.3016 543.298 99.3016 543.298Z" fill="#162D40"/>
<path d="M112.301 537.099C112.301 537.099 112.701 537.999 113.401 538.999C113.901 539.699 115.601 542.599 116.401 542.799C117.101 542.999 119.401 543.399 119.601 544.699C119.801 545.999 119.901 546.899 117.601 546.999C115.301 547.099 113.901 547.199 112.801 545.699C111.701 544.099 110.001 542.999 110.001 542.999V547.099H109.101C109.101 547.099 108.701 542.799 108.501 542.499C108.301 542.199 107.701 538.899 109.701 537.199C111.901 535.299 112.301 537.099 112.301 537.099Z" fill="#162D40"/>
<path d="M116.401 542.699C116.401 542.699 114.401 543.199 113.601 542.699C112.801 542.199 110.201 537.699 109.301 537.499C109.301 537.499 110.101 535.799 112.301 536.999C112.301 537.099 115.801 541.999 116.401 542.699Z" fill="#162D40"/>
<path d="M94.3022 475.3C94.3022 475.3 91.5022 479 90.7022 483.4C89.9022 487.8 91.2022 502.501 91.1022 504.701C91.1022 506.901 89.2022 513.601 89.6022 517.701C90.0022 521.801 92.1022 538.8 92.1022 538.8L97.0022 538.701C97.0022 538.701 96.0022 520.3 96.3022 518.6C96.6022 516.9 97.4022 509.6 97.5022 508.9C97.6022 508.2 103.102 489.5 103.102 486.3C103.102 483.2 101.102 470.1 94.3022 475.3Z" fill="#1D3B54"/>
<path d="M108.602 476.696C108.602 476.696 113.302 494.496 113.802 496.996C114.402 499.496 115.502 502.696 115.402 503.196C115.302 503.696 114.802 511.296 114.802 511.296L113.502 537.196H108.602C108.602 537.196 107.002 520.696 106.802 517.396C106.502 514.096 108.602 508.896 108.102 507.496C107.602 506.096 100.002 489.796 100.002 489.796C100.002 489.796 94.2022 471.496 108.602 476.696Z" fill="#1D3B54"/>
<path d="M107.101 450C107.101 450 109.001 450.2 110.401 451.7C111.801 453.2 113.101 455.6 113.501 456.4C113.901 457.2 119.101 464.7 119.301 464.9C119.601 465.1 121.801 464.5 123.701 464.3C126.701 464.1 131.101 462.5 131.101 462.5L131.801 465.8C131.801 465.8 120.901 469.3 118.401 468.7C115.301 467.9 108.201 458.9 108.201 458.9C108.201 458.9 102.901 452.8 107.101 450Z" fill="#EDDAD3"/>
<path d="M103.902 448.702C103.902 448.702 106.302 449.802 107.202 450.002C108.002 450.202 111.302 454.402 111.902 456.002C112.502 457.502 111.902 459.902 110.702 462.602C109.502 465.302 110.602 466.202 110.102 469.002C109.602 471.702 109.602 479.202 109.702 480.702C109.802 482.202 94.102 485.102 91.002 482.302C91.002 482.302 93.102 475.302 95.602 472.702C96.102 472.102 96.102 468.402 95.702 467.402C95.3019 466.502 91.202 459.402 91.202 459.402C91.202 459.402 90.902 452.302 92.702 450.902C94.3019 449.702 98.602 449.202 99.402 449.002C100.002 448.602 102.302 448.502 103.902 448.702Z" fill="#EDDAD3"/>
<path d="M104.601 454.101L106.101 452.401L104.801 447.901C104.801 447.801 104.401 450.401 104.601 454.101Z" fill="#D1C0BA"/>
<path d="M95.4011 449.998C95.4011 449.998 92.3011 449.098 90.6011 452.498C88.9011 455.898 89.3011 457.698 88.9011 459.198C88.5011 460.698 86.9011 470.798 86.8011 471.298C86.7011 471.698 85.2011 476.898 85.4011 478.498C85.6011 480.098 87.0011 492.098 87.0011 492.498C86.9011 492.898 89.8011 492.098 89.8011 492.098C89.8011 492.098 89.7011 479.898 89.8011 478.898C89.9011 477.898 90.0011 472.598 90.8011 471.198C91.6011 469.798 93.4011 461.498 93.8011 460.698C94.1011 459.698 98.0011 451.098 95.4011 449.998Z" fill="#EEA886"/>
<path d="M105.001 445.901C105.001 445.901 104.501 450.301 104.601 451.801C104.601 451.801 102.101 454.301 99.2012 448.901C99.2012 448.901 100.401 446.601 99.5012 443.601C98.6012 440.501 105.001 445.901 105.001 445.901Z" fill="#EEA886"/>
<path d="M104.6 451.795V454.095L101.9 451.695L104.6 451.795Z" fill="#EEA886"/>
<path d="M104.6 454.102L103.4 452.602L99.4004 448.602L97.9004 449.302L104.6 454.102Z" fill="#D1C0BA"/>
<path d="M106.101 452.397L108.001 452.897L104.801 447.797L106.101 452.397Z" fill="#FAE6DE"/>
<path d="M103.401 452.597L101.701 455.297L97.8008 449.197L99.5008 448.297L103.401 452.597Z" fill="#FAE6DE"/>
<path d="M112.1 463.602C112.1 463.602 112.7 459.602 112.1 457.102C112.1 457.102 111.7 459.102 110.9 462.202L112.1 463.602Z" fill="#D1C0BA"/>
<path d="M93.2012 462.995C93.2012 462.995 94.9012 457.495 95.0012 457.195C95.0012 457.195 94.9012 462.295 94.2012 464.795C94.3012 464.795 93.6012 463.695 93.2012 462.995Z" fill="#D1C0BA"/>
<path d="M155.601 435.297L129.301 468.497L130.201 469.197L155.601 435.297Z" fill="#54281A"/>
<path d="M135.502 462.597C135.502 462.597 133.502 462.397 133.502 462.697C133.402 462.997 133.602 463.197 133.602 463.197L132.802 463.497C132.802 463.497 132.302 463.997 133.002 464.397C133.002 464.397 132.502 464.797 133.202 465.097C133.202 465.097 133.002 465.497 133.302 465.697C133.602 465.897 134.902 465.897 134.902 465.897C134.902 465.897 135.202 465.797 135.102 465.297C135.102 465.297 135.502 464.997 135.402 464.597C135.402 464.597 135.702 464.297 135.602 463.797C135.602 463.797 136.202 463.197 135.702 462.597C135.702 462.597 135.602 462.597 135.502 462.597Z" fill="#DB9C7C"/>
<path d="M132.301 462C132.301 462 133.401 462.7 133.901 463.4C134.001 463.6 134.101 463.7 134.001 463.9C133.901 464.1 133.501 464.1 133.001 463.8C132.501 463.5 131.701 463.4 131.701 463.4C131.701 463.4 131.201 462.9 132.301 462Z" fill="#EEA886"/>
<path d="M103.001 430.799C103.001 430.799 107.501 430.699 108.301 435.999C109.101 441.299 107.201 445.899 106.501 446.699C105.801 447.399 101.301 446.899 100.201 444.099C99.1013 441.399 97.6013 439.399 97.8013 436.999C98.1013 434.599 97.5013 430.699 103.001 430.799Z" fill="#EEA886"/>
<path d="M108.4 437.898C108.4 437.898 109.6 431.298 103.7 430.098C97.8004 428.898 95.7004 432.998 95.1004 435.398C94.5004 437.798 95.2004 444.598 95.2004 444.598C95.2004 444.598 99.1004 448.098 101.5 448.998C101.5 448.998 99.5004 441.798 100.3 436.598C100.3 436.598 105.1 437.398 108.3 436.598C108.3 436.598 108.4 437.698 108.4 437.898Z" fill="#16202E"/>
<path d="M104.901 446.9C104.901 446.9 103.401 446.9 101.201 445.5C101.201 445.5 102.701 447.4 104.701 448C104.801 448.1 104.901 447.1 104.901 446.9Z" fill="#A77860"/>
<path d="M96.0627 480.867L78.8906 483.672L80.9701 496.403L98.1422 493.598L96.0627 480.867Z" fill="#366E9C"/>
<path d="M86.3008 496.197C86.3008 496.197 86.0008 495.797 86.0008 495.497C86.0008 495.497 86.0008 494.997 86.0008 494.697C86.0008 494.597 86.0008 494.497 86.0008 494.497C85.9008 494.297 85.8008 493.797 85.8008 493.097C85.8008 492.497 86.7008 489.897 86.7008 489.897L88.2008 489.997L89.6008 489.797C89.6008 489.797 91.3008 493.097 91.4008 493.697C91.4008 493.797 91.4008 493.797 91.4008 493.897C91.4008 494.397 91.2008 494.697 91.1008 494.997C91.1008 495.097 90.9008 495.997 90.6008 496.097C90.3008 496.297 89.9008 496.297 89.7008 496.097C89.7008 496.097 89.0008 496.397 88.5008 496.297C88.5008 496.297 87.9008 496.597 87.3008 496.297C87.3008 496.297 86.6008 496.497 86.3008 496.197Z" fill="#EEA886"/>
<path d="M95.4012 449.998C95.4012 449.998 92.3012 449.098 90.6012 452.498C88.9012 455.898 88.9012 457.298 88.6012 458.898C88.4012 460.498 86.2012 469.698 86.1012 470.098C86.0012 470.498 85.3012 476.298 85.2012 478.398C85.2012 479.998 85.5012 490.398 85.5012 490.798C85.4012 491.198 90.3012 490.098 90.3012 490.098C90.3012 490.098 89.8012 480.498 89.9012 479.498C90.0012 478.498 90.2012 473.498 90.7012 471.998C91.3012 470.298 93.6012 461.498 94.0012 460.698C94.5012 459.798 98.0012 451.098 95.4012 449.998Z" fill="#EDDAD3"/>
<path d="M253.201 540.602L253.501 537.602C253.501 537.602 249.301 537.602 248.801 537.902C248.801 537.902 249.201 540.402 249.201 540.802C249.301 541.202 253.201 540.602 253.201 540.602Z" fill="#5C544D"/>
<path d="M246.101 546.798C251.101 546.798 253.501 547.098 254.001 546.298C254.501 545.498 253.201 540.398 253.201 540.398C253.201 540.398 252.001 540.798 249.201 540.598C249.201 540.598 248.001 542.098 246.801 542.698C245.601 543.398 243.701 543.598 243.001 544.298C242.501 544.698 241.101 546.798 246.101 546.798Z" fill="#3C4145"/>
<path d="M225.201 540.602L225.501 537.602C225.501 537.602 221.301 537.602 220.801 537.902C220.801 537.902 221.201 540.402 221.201 540.802C221.301 541.202 225.201 540.602 225.201 540.602Z" fill="#5C544D"/>
<path d="M218.201 546.798C223.201 546.698 225.601 547.098 226.101 546.298C226.601 545.498 225.301 540.398 225.301 540.398C225.301 540.398 224.201 540.898 221.301 540.598C221.301 540.598 220.101 542.098 218.901 542.698C217.701 543.398 213.301 543.898 212.601 544.598C212.001 544.998 211.201 546.998 218.201 546.798Z" fill="#3C4145"/>
<path d="M247.5 473.797C247.5 473.797 249.6 479.997 249.3 485.297C249 490.597 250.4 496.397 250.9 501.997C251.5 508.197 254 522.797 254.1 526.097C254.2 529.397 253.7 539.997 253.7 539.997L248.7 540.097C248.7 540.097 244.5 514.497 243.4 511.897C242.3 509.297 236.9 490.697 236.7 488.597C236.5 486.497 247.5 473.797 247.5 473.797Z" fill="#DBD8E3"/>
<path d="M226.301 474.897C226.301 474.897 223.501 489.497 223.201 492.697C222.801 495.997 222.601 508.397 222.401 510.497C222.201 512.497 221.201 537.097 220.201 540.097H226.601C226.601 540.097 231.501 522.197 231.501 513.797C231.501 505.397 235.301 495.397 237.801 489.897C240.301 484.297 245.901 484.197 247.401 473.897C247.501 473.797 228.401 471.597 226.301 474.897Z" fill="#DBD8E3"/>
<path d="M239.4 425.197C239.4 425.197 234.3 423.297 232 427.197C229.7 431.097 229.9 438.797 232.4 439.697C235 440.597 238.8 440.197 240.1 437.697C241.4 435.297 242.6 431.797 242.5 429.497C242.5 427.097 240.7 425.797 239.4 425.197Z" fill="#EEA886"/>
<path d="M233.301 439.398C233.301 439.398 233.501 440.698 233.201 441.398C232.901 442.098 239.601 442.098 239.601 442.098C239.601 442.098 240.101 438.498 241.201 435.498C242.101 432.498 233.301 439.398 233.301 439.398Z" fill="#EEA886"/>
<path d="M241.1 435.5C241.1 435.5 240.6 436.3 238.7 436C236.8 435.7 234.5 433.2 233.7 432.9C232.9 432.6 232.9 432.2 232.9 432.2L232.4 432.9L231.6 433C231.6 433 232.4 430.8 231.2 429.8C230 428.9 232.4 422.5 238.5 424.6C238.5 424.6 242.8 425.5 243.1 428.1C243.4 430.9 242.1 434.2 241.1 435.5Z" fill="#FCCCA2"/>
<path d="M232.701 441.297C232.701 441.297 232.701 440.097 233.301 439.897C233.901 439.797 239.601 439.197 240.201 439.497V440.997C240.301 440.997 238.901 441.797 232.701 441.297Z" fill="#E2D2CA"/>
<path d="M233.101 431.198C233.201 430.798 234.301 429.498 234.801 430.798C235.201 432.198 234.101 433.998 233.501 433.798C232.901 433.698 232.801 432.298 233.101 431.198Z" fill="#EEA886"/>
<path d="M232.701 441.3C232.701 441.3 229.601 442.4 226.001 444C226.001 444 221.801 445.6 221.401 450.1C221.201 452.5 218.601 465.5 218.101 466.5C217.601 467.6 211.901 485.2 211.701 485.5C211.501 485.9 216.401 487.9 216.701 487.7C217.001 487.5 222.301 471.7 222.801 470.5C222.801 470.5 225.801 461 225.901 459.6C225.901 459.6 226.001 463.6 226.101 464.8C226.301 465.9 223.401 487.9 223.501 488.6C223.601 489.2 236.401 490 241.601 489.4C246.701 488.8 250.901 487.7 250.901 487.7C250.901 487.7 246.901 470.3 247.001 468.4C247.301 464.2 248.701 456.3 248.701 456.3L252.901 464.2L247.501 478L248.701 482.2C248.701 482.2 258.701 467.1 259.001 465.8C259.301 464.4 258.501 462.7 258.001 461.5C257.501 460.4 254.001 451.7 253.201 450.5C252.401 449.3 251.001 444.4 247.701 443.1C244.901 442 240.301 441 240.301 441L232.701 441.3Z" fill="#63A4FF"/>
<path d="M230.106 477.208L206.566 471.172L202.368 487.543L225.908 493.579L230.106 477.208Z" fill="#F25F54"/>
<path d="M209.6 489.203C209.6 489.203 208.9 490.303 208.7 490.603C208.5 490.903 209.3 491.103 209.7 490.803C210 490.403 209.6 489.203 209.6 489.203Z" fill="#C98462"/>
<path d="M214.501 492.903C214.501 492.903 214.901 492.503 215.001 492.203C215.001 492.203 215.101 491.703 215.201 491.403C215.201 491.303 215.301 491.203 215.301 491.103C215.401 490.903 215.701 490.303 215.801 489.703C215.901 489.003 216.201 486.003 216.201 486.003L214.401 485.503L212.901 485.203C212.901 485.203 209.701 488.403 209.601 489.003C209.601 489.103 209.601 489.103 209.601 489.203C209.501 489.703 209.701 490.203 209.601 490.503C209.601 490.603 209.601 491.603 209.901 491.803C210.201 492.103 210.601 492.103 210.901 492.003C210.901 492.003 211.601 492.503 212.201 492.503C212.201 492.503 212.801 493.003 213.501 492.703C213.401 492.703 214.101 493.103 214.501 492.903Z" fill="#DE9D7D"/>
<path d="M221.601 473.902C221.601 473.902 217.401 486.502 216.701 487.902C216.701 487.902 213.601 487.302 211.701 485.702L216.301 472.102L221.601 473.902Z" fill="#63A4FF"/>
<path d="M25.7004 433.398C25.7004 433.398 26.5004 429.398 28.4004 422.998L26.7004 422.498C24.8004 428.998 24.0004 432.998 23.9004 432.998L25.7004 433.398ZM31.7004 412.798C32.9004 409.498 34.2004 406.098 35.5004 402.798L33.8004 402.098C32.4004 405.398 31.2004 408.798 30.0004 412.198L31.7004 412.798ZM39.8004 392.898C41.3004 389.598 42.9004 386.398 44.5004 383.298L42.9004 382.498C41.3004 385.698 39.6004 388.898 38.1004 392.198L39.8004 392.898ZM49.7004 373.898C51.5004 370.798 53.4004 367.698 55.4004 364.798L53.9004 363.798C51.9004 366.798 50.0004 369.898 48.2004 372.998L49.7004 373.898ZM157.4 290.398L156.4 288.898C153.6 290.898 150.5 292.798 147.3 294.498L148.1 296.098C151.4 294.398 154.5 292.498 157.4 290.398ZM165.8 283.398C168.3 280.898 170.8 278.198 173.1 275.298L171.7 274.198C169.5 276.998 167.1 279.698 164.6 282.098L165.8 283.398ZM138.2 300.498L137.6 298.798C136.5 299.198 135.3 299.598 134.1 299.998C131.9 300.698 129.6 301.598 127.4 302.398L128 304.098C130.2 303.298 132.4 302.498 134.6 301.698C135.9 301.298 137.1 300.898 138.2 300.498ZM61.5004 355.998C63.6004 353.098 65.9004 350.298 68.2004 347.598L66.8004 346.398C64.5004 349.098 62.2004 351.998 60.1004 354.898L61.5004 355.998ZM179.2 266.398C181 263.498 182.7 260.398 184.5 256.998L182.9 256.198C181.1 259.598 179.4 262.698 177.7 265.498L179.2 266.398ZM118.3 308.298L117.5 306.698C114.3 308.198 111 309.898 107.9 311.698L108.8 313.298C111.9 311.498 115.1 309.798 118.3 308.298ZM75.3004 339.698C77.8004 337.098 80.4004 334.598 83.0004 332.198L81.8004 330.898C79.2004 333.298 76.6004 335.798 74.1004 338.498L75.3004 339.698ZM326.5 149.198L326.4 147.398C322.7 147.598 319.1 147.998 315.7 148.298L315.9 150.098C319.2 149.798 322.8 149.498 326.5 149.198ZM99.7004 318.898L98.7004 317.398C95.7004 319.398 92.8004 321.598 90.0004 323.798L91.1004 325.198C93.9004 323.098 96.8004 320.898 99.7004 318.898ZM189.2 247.298C190.6 244.198 192 240.998 193.6 237.498L192 236.798C190.5 240.298 189.1 243.498 187.6 246.598L189.2 247.298ZM305.1 151.398L304.9 149.598C301.3 150.098 297.7 150.698 294.2 151.298L294.5 153.098C297.9 152.498 301.5 151.898 305.1 151.398ZM198 227.598C199.7 223.998 201.2 220.798 202.6 217.898L201 217.098C199.6 219.998 198 223.198 196.4 226.898L198 227.598ZM284.1 155.298L283.7 153.598C280.1 154.498 276.6 155.398 273.3 156.398L273.8 158.098C277 157.098 280.5 156.098 284.1 155.298ZM207.6 208.498C209.5 205.298 211.4 202.298 213.3 199.498L211.8 198.498C209.8 201.398 207.9 204.398 206 207.598L207.6 208.498ZM263.6 161.498L263 159.798C259.6 161.098 256.2 162.498 253 163.998L253.8 165.598C256.9 164.198 260.2 162.798 263.6 161.498ZM219.9 191.098C222.2 188.398 224.7 185.798 227.3 183.398L226.1 182.098C223.5 184.498 221 187.198 218.6 189.898L219.9 191.098ZM244.3 170.698L243.4 169.198C240.3 171.098 237.2 173.098 234.4 175.198L235.5 176.598C238.3 174.498 241.3 172.598 244.3 170.698Z" fill="#C2BEBC"/>
<path d="M375.8 149.503L330.6 155.603L341 146.703L375.8 149.503Z" fill="#D6D6D6"/>
<path d="M375.799 149.502L354.199 141.102L345.799 147.002L375.799 149.502Z" fill="#E8E8E8"/>
<path d="M341 154.2L343.4 158.7L375.8 149.5L341 154.2Z" fill="#C2C2C2"/>
</g>
<defs>
<linearGradient id="paint0_linear_735_2011" x1="1480.29" y1="325.243" x2="-69.5976" y2="325.243" gradientUnits="userSpaceOnUse">
<stop stop-color="#96CBFF"/>
<stop offset="1" stop-color="#5599FF"/>
</linearGradient>
<linearGradient id="paint1_linear_735_2011" x1="-69.5974" y1="349.012" x2="1480.29" y2="349.012" gradientUnits="userSpaceOnUse">
<stop stop-color="#96CBFF"/>
<stop offset="1" stop-color="#5599FF"/>
</linearGradient>
<linearGradient id="paint2_linear_735_2011" x1="148.685" y1="383.576" x2="303.662" y2="367.655" gradientUnits="userSpaceOnUse">
<stop stop-color="#96CBFF"/>
<stop offset="1" stop-color="#5599FF"/>
</linearGradient>
<linearGradient id="paint3_linear_735_2011" x1="818.759" y1="503.981" x2="879.325" y2="497.759" gradientUnits="userSpaceOnUse">
<stop stop-color="#96CBFF"/>
<stop offset="1" stop-color="#5599FF"/>
</linearGradient>
<linearGradient id="paint4_linear_735_2011" x1="529.759" y1="465.889" x2="590.325" y2="459.667" gradientUnits="userSpaceOnUse">
<stop stop-color="#96CBFF"/>
<stop offset="1" stop-color="#5599FF"/>
</linearGradient>
<linearGradient id="paint5_linear_735_2011" x1="1070.61" y1="189.733" x2="1131.18" y2="183.511" gradientUnits="userSpaceOnUse">
<stop stop-color="#96CBFF"/>
<stop offset="1" stop-color="#5599FF"/>
</linearGradient>
<linearGradient id="paint6_linear_735_2011" x1="66.1407" y1="257.56" x2="126.706" y2="251.338" gradientUnits="userSpaceOnUse">
<stop stop-color="#96CBFF"/>
<stop offset="1" stop-color="#5599FF"/>
</linearGradient>
<clipPath id="clip0_735_2011">
<rect width="1440" height="552" fill="white"/>
</clipPath>
</defs>
</svg>
