<?xml version="1.0" encoding="utf-8"?>
<!-- Generator: Adobe Illustrator 26.0.2, SVG Export Plug-In . SVG Version: 6.00 Build 0)  -->
<svg version="1.1" id="Слой_1" xmlns="http://www.w3.org/2000/svg" xmlns:xlink="http://www.w3.org/1999/xlink" x="0px" y="0px"
	 viewBox="0 0 1245 300" style="enable-background:new 0 0 1245 300;" xml:space="preserve">
<linearGradient id="SVGID_1_" gradientUnits="userSpaceOnUse" x1="-1314.4904" y1="187.0026" x2="-31.3362" y2="187.0026" gradientTransform="matrix(-1 0 0 -1 -46.6486 300)">
	<stop  offset="0" style="stop-color:#96CBFF"/>
	<stop  offset="1" style="stop-color:#5599FF"/>
</linearGradient>
<path style="opacity:0.2;fill:url(#SVGID_1_);enable-background:new    ;" d="M1265.91,288.33c0-4.31,17.97-175.03-55.72-212.29
	C1136.5,38.78,978.03-174,803-75.72S583.51-55.52,484-65.87S324.61-85.74,253.91-89.88C207.05-92.61,68.53-36.89,39.22-8.99
	c-108.79,103.82-21.2,336.4-21.2,336.4h1241.92L1265.91,288.33z"/>
<linearGradient id="SVGID_00000172413041325343889610000000823707850773097621_" gradientUnits="userSpaceOnUse" x1="-15.3675" y1="167.3306" x2="1267.8694" y2="167.3306" gradientTransform="matrix(1 0 0 -1 0 300)">
	<stop  offset="0" style="stop-color:#96CBFF"/>
	<stop  offset="1" style="stop-color:#5599FF"/>
</linearGradient>
<path style="opacity:0.2;fill:url(#SVGID_00000172413041325343889610000000823707850773097621_);enable-background:new    ;" d="
	M-13.44,281.45c0-3.64-17.97-148.53,55.72-180.08s232.24-212.2,407.27-128.83s219.49,17.14,319.01,8.36
	c99.52-8.78,159.38-16.89,230.09-20.37c46.86-2.32,185.38,44.96,214.69,68.64c108.79,88.09,21.2,285.39,21.2,285.39H-7.39
	L-13.44,281.45z"/>
<g>
	<g>
		<g>
			<path style="fill:#1D3B54;" d="M784.79,287.25c0,0,3.89,5.22,3.31,6.04c-0.5,0.83-4.55,0.91-7.04,0
				c-2.48-0.91-2.57-7.04-3.64-9.69c-0.5-1.08,0.5-4.31,1.9-4.55c1.41-0.25,2.98,0.41,2.98,0.41S780.82,283.19,784.79,287.25z"/>
		</g>
	</g>
	<g>
		<g>
			<polygon style="fill:#1D3B54;" points="777.26,283.19 777.26,288.66 778,288.66 778,284.43 			"/>
		</g>
	</g>
	<g>
		<g>
			<path style="fill:#869135;" d="M894.24,174.07c0,0-1.08,8.11,4.8,14.32c5.88,6.21,19.04,3.97,19.04,3.97s-2.15-7.37-6.95-10.35
				C906.42,179.04,896.98,177.96,894.24,174.07z"/>
		</g>
	</g>
	<g>
		<g>
			<path style="fill:#48753A;" d="M901.12,158.75c0,0-4.8,9.11-0.66,19.04c4.14,9.94,20.7,13.16,20.7,13.16s0.66-9.6-3.64-15.32
				C913.2,169.85,902.52,164.46,901.12,158.75z"/>
		</g>
	</g>
	<g>
		<g>
			<path style="fill:#BBD070;" d="M1117.71,41.93c0,0,8.2,12.42,1.24,19.04s-7.7-0.75-7.7-0.75s-3.73,0.25,3.64-8.2
				C1118.37,48.05,1117.71,41.93,1117.71,41.93z"/>
		</g>
		<g>
			<path style="fill:#97A43C;" d="M1139.65,35.55c0,0,5.88,11.34-7.95,21.94c-13.74,10.6-13.74,17.88-13.74,17.88
				S1108.35,49.13,1139.65,35.55z"/>
		</g>
		<g>
			<path style="fill:#48753A;" d="M1116.22,70.49c-5.22-0.17,2.4-13.41,10.93-16.15c8.53-2.73,15.32-1.57,20.53-4.88
				C1147.76,49.55,1142.05,71.24,1116.22,70.49z"/>
		</g>
	</g>
	<g>
		<rect x="907.08" y="28.18" style="fill:#78C2FF;" width="1.08" height="131.81"/>
	</g>
	<g>
		<rect x="826.35" y="122.98" style="fill:#78C2FF;" width="90.99" height="1.08"/>
	</g>
	<g>
		<path style="fill:#4DA8F2;" d="M1134.1,227.14H955.51c-8.28,0-15.07-7.04-15.07-15.73V85.64c0-8.69,6.71-15.73,15.07-15.73h178.59
			c8.28,0,15.07,7.04,15.07,15.73v125.77C1149.09,220.02,1142.38,227.14,1134.1,227.14z M955.43,71.24
			c-7.53,0-13.74,6.46-13.74,14.41v125.77c0,7.95,6.13,14.41,13.74,14.41h178.59c7.53,0,13.74-6.46,13.74-14.41V85.64
			c0-7.95-6.13-14.41-13.74-14.41L955.43,71.24L955.43,71.24z"/>
	</g>
	<g>
		<path style="fill:#73C0FF;" d="M1169.54,41.18c-0.91-3.48-2.32-6.87-4.14-9.85l4.14-6.29l-5.8-5.8l-5.8-5.8l-6.29,4.14
			c-3.06-1.82-6.38-3.23-9.85-4.14l-1.49-7.37h-8.2h-8.2l-1.49,7.37c-3.48,0.91-6.87,2.32-9.85,4.14l-6.29-4.14l-5.8,5.8l-5.8,5.8
			l4.14,6.29c-1.82,3.06-3.23,6.38-4.14,9.85l-7.37,1.49v8.2v8.2l7.37,1.49c0.91,3.48,2.32,6.87,4.14,9.85l-4.14,6.29l5.8,5.8
			l5.8,5.8l6.29-4.14c3.06,1.82,6.38,3.23,9.85,4.14l1.49,7.37h8.2h8.2l1.49-7.37c3.48-0.91,6.87-2.32,9.85-4.14l6.29,4.14l5.8-5.8
			l5.8-5.8l-4.14-6.29c1.82-3.06,3.23-6.38,4.14-9.85l7.37-1.49v-8.2v-8.2L1169.54,41.18z M1132.2,79.52
			c-15.81,0-28.65-12.83-28.65-28.73c0-15.81,12.83-28.73,28.65-28.73s28.73,12.83,28.73,28.73S1148.09,79.52,1132.2,79.52z"/>
	</g>
	<g>
		<path style="fill:#DAE8F5;" d="M1132.2,69.42v125.77c0,8.28-6.71,15.07-15.07,15.07H930.18c-8.28,0-15.07-6.71-15.07-15.07V69.42
			c0-8.28,6.71-15.07,15.07-15.07h186.95C1125.49,54.35,1132.2,61.14,1132.2,69.42z"/>
	</g>
	<g>
		<g>
			<path style="fill:#78C2FF;" d="M1015.87,93.76c-6.71-18.63-24.51-30.05-43.22-29.56c-4.55,0.17-9.11,0.99-13.66,2.57
				c-13.66,4.88-23.51,15.81-27.49,28.65c-2.82,8.94-2.82,18.79,0.58,28.23c0.33,0.91,0.66,1.9,1.08,2.82
				c1.82,4.14,4.14,7.78,6.87,11.09c11.67,13.66,30.97,19.46,48.93,13.08C1012.06,142.36,1024.15,116.86,1015.87,93.76z
				 M985.15,140.21c-13.41,4.8-27.98,0.5-36.68-9.77c-2.07-2.48-3.81-5.22-5.13-8.28c-0.33-0.66-0.58-1.41-0.83-2.07
				c-2.57-7.12-2.57-14.49-0.41-21.2c2.98-9.69,10.35-17.8,20.62-21.44c3.39-1.24,6.87-1.82,10.27-1.9
				c14.08-0.41,27.41,8.2,32.46,22.11C1011.57,114.87,1002.54,134,985.15,140.21z"/>
		</g>
		<g>
			<path style="fill:#1A598C;" d="M942.02,98.81l-10.6-3.31c4.06-12.83,13.83-23.76,27.49-28.65c4.55-1.57,9.11-2.48,13.66-2.57
				l0.33,11.18c-3.39,0.08-6.87,0.75-10.27,1.9C952.45,80.92,945.08,89.12,942.02,98.81z"/>
		</g>
		<g>
			<path style="fill:#2273B5;" d="M943.34,122.07l-10.18,4.47c-0.41-0.91-0.75-1.82-1.08-2.82c-3.39-9.44-3.39-19.37-0.58-28.23
				l10.6,3.31c-2.07,6.71-2.07,14.08,0.41,21.2C942.76,120.67,943.01,121.41,943.34,122.07z"/>
		</g>
		<g>
			<path style="fill:#4DA8F2;" d="M939.95,137.56c-2.82-3.23-5.13-6.95-6.87-11.09l10.18-4.47c1.32,3.06,3.06,5.88,5.13,8.28
				L939.95,137.56z"/>
		</g>
	</g>
	<g>
		<g>
			<path style="fill:#6EB2EB;" d="M942.76,201.64c9.11,4.31,19.54,1.99,26.08-4.88c1.57-1.66,2.9-3.64,3.97-5.8
				c3.15-6.62,2.73-14.08-0.41-20.12c-2.24-4.22-5.71-7.7-10.35-9.94c-0.5-0.25-0.91-0.41-1.41-0.58c-2.07-0.83-4.31-1.32-6.46-1.49
				c-9.11-0.75-18.05,4.14-22.19,12.83C926.7,182.85,931.5,196.26,942.76,201.64z M937.13,173.99c3.06-6.54,9.85-10.18,16.64-9.6
				c1.66,0.17,3.23,0.5,4.8,1.16c0.33,0.17,0.66,0.25,1.08,0.41c3.48,1.66,6.13,4.31,7.78,7.45c2.4,4.55,2.65,10.1,0.33,15.07
				c-0.75,1.66-1.82,3.15-2.98,4.39c-4.88,5.22-12.75,6.87-19.54,3.73C936.72,192.53,933.16,182.43,937.13,173.99z"/>
		</g>
		<g>
			<path style="fill:#1A598C;" d="M967.44,173.41l4.97-2.65c3.15,6.04,3.56,13.5,0.41,20.12c-1.08,2.24-2.4,4.14-3.97,5.8
				l-4.14-3.89c1.16-1.24,2.24-2.73,2.98-4.39C970.08,183.51,969.75,177.88,967.44,173.41z"/>
		</g>
		<g>
			<path style="fill:#2273B5;" d="M958.58,165.46l2.07-5.22c0.5,0.17,0.91,0.41,1.41,0.58c4.64,2.15,8.11,5.71,10.35,9.94
				l-4.97,2.65c-1.66-3.15-4.31-5.8-7.78-7.45C959.32,165.79,958.99,165.62,958.58,165.46z"/>
		</g>
		<g>
			<path style="fill:#4DA8F2;" d="M954.19,158.75c2.15,0.17,4.31,0.66,6.46,1.49l-2.07,5.22c-1.57-0.66-3.23-0.99-4.8-1.16
				L954.19,158.75z"/>
		</g>
	</g>
	<g>
		<path style="fill:#4DA8F2;" d="M1132.2,69.42v125.77c0,8.28-6.71,15.07-15.07,15.07h-82.8V54.35h82.8
			C1125.49,54.35,1132.2,61.14,1132.2,69.42z"/>
	</g>
	<g>
		<path style="fill:#E3F2FF;" d="M1117.71,78.44h-68.72c-1.08,0-1.99-0.91-1.99-1.99v-3.97c0-1.08,0.91-1.99,1.99-1.99h68.72
			c1.08,0,1.99,0.91,1.99,1.99v3.97C1119.7,77.61,1118.78,78.44,1117.71,78.44z"/>
	</g>
	<g>
		<path style="fill:#73C0FF;" d="M1117.71,95.5h-68.72c-1.08,0-1.99-0.91-1.99-1.99v-3.97c0-1.08,0.91-1.99,1.99-1.99h68.72
			c1.08,0,1.99,0.91,1.99,1.99v3.97C1119.7,94.59,1118.78,95.5,1117.71,95.5z"/>
	</g>
	<g>
		<path style="fill:#73C0FF;" d="M1113.07,196.59h-59.45c-3.64,0-6.62-2.98-6.62-6.62v-76.34c0-3.64,2.98-6.62,6.62-6.62h59.45
			c3.64,0,6.62,2.98,6.62,6.62v76.34C1119.7,193.61,1116.71,196.59,1113.07,196.59z"/>
	</g>
	<g style="opacity:0.58;">
		<path style="fill:#E0F1FF;" d="M1059.92,169.6h-9.6c-4.47,0-8.11-3.64-8.11-8.11v-50.17c0-4.47,3.64-8.11,8.11-8.11h9.6
			c4.47,0,8.11,3.64,8.11,8.11v50.17C1068.03,165.96,1064.47,169.6,1059.92,169.6z"/>
	</g>
	<g>
		<rect x="874.21" y="47.14" style="fill:#78C2FF;" width="165.92" height="1.08"/>
	</g>
	<g>
		<path style="fill:#4DA8F2;" d="M890.77,38.04c-4.88,0-8.86-3.97-8.86-8.86s3.97-8.86,8.86-8.86s8.86,3.97,8.86,8.86
			C899.71,34.06,895.65,38.04,890.77,38.04z M890.77,21.64c-4.14,0-7.53,3.39-7.53,7.53s3.39,7.53,7.53,7.53s7.53-3.39,7.53-7.53
			C898.38,25.04,894.99,21.64,890.77,21.64z"/>
	</g>
	<g>
		<path style="fill:#4DA8F2;" d="M569.11,278.97c-4.88,0-8.86-3.97-8.86-8.86c0-4.88,3.97-8.86,8.86-8.86s8.86,3.97,8.86,8.86
			C578.05,274.91,574.08,278.97,569.11,278.97z M569.11,262.49c-4.14,0-7.53,3.39-7.53,7.53s3.39,7.53,7.53,7.53
			s7.53-3.39,7.53-7.53C576.73,265.89,573.33,262.49,569.11,262.49z"/>
	</g>
	<g>
		<path style="fill:#4DA8F2;" d="M412.21,198c-4.88,0-8.86-3.97-8.86-8.86c0-4.88,3.97-8.86,8.86-8.86c4.88,0,8.86,3.97,8.86,8.86
			C421.15,193.94,417.1,198,412.21,198z M412.21,181.52c-4.14,0-7.53,3.39-7.53,7.53c0,4.14,3.39,7.53,7.53,7.53
			c4.14,0,7.53-3.39,7.53-7.53C419.83,184.92,416.43,181.52,412.21,181.52z"/>
	</g>
	<g>
		<g>
			<path style="fill:#EEA886;" d="M866.92,139.38c0,0,8.28,1.49,8.36,8.53c0.08,7.04-6.38,17.22-10.51,16.48
				c-4.22-0.75-8.94-4.47-8.78-8.78c0.17-4.31,1.32-9.94,3.31-13C861.21,139.54,864.6,139.21,866.92,139.38z"/>
		</g>
	</g>
	<g>
		<g>
			<path style="fill:#E8734D;" d="M856.32,152.38c0,0,0,1.41,2.9,2.57c2.9,1.16,8.11-0.41,9.44-0.17c1.32,0.25,1.74-0.33,1.74-0.33
				l0.08,1.41l1.08,0.75c0,0,0.75-3.73,3.15-4.06c2.32-0.33,4.31-11.01-5.8-13.08c0,0-7.45-2.07-9.44,1.74
				C857.48,145.01,855.91,149.73,856.32,152.38z"/>
		</g>
	</g>
	<g style="opacity:0.82;">
		<path style="fill:#87C9FF;" d="M918.17,274.66H853.1c-5.38,0-9.69-4.39-9.69-9.69V199.9c0-5.38,4.39-9.69,9.69-9.69h65.08
			c5.38,0,9.69,4.39,9.69,9.69v65.08C927.86,270.28,923.55,274.66,918.17,274.66z"/>
	</g>
	<g>
		<path style="fill:#E3F2FF;" d="M921.32,62.88v47.28c0,4.64-3.81,8.45-8.45,8.45h-67.56c-4.64,0-8.45-3.81-8.45-8.45V62.88
			c0-4.64,3.81-8.45,8.45-8.45h67.56C917.59,54.35,921.32,58.16,921.32,62.88z"/>
	</g>
	<g>
		<path style="fill:#E3F2FF;" d="M919.5,211.66h-28.81c-1.08,0-1.99-0.91-1.99-1.99v-5.13c0-1.08,0.91-1.99,1.99-1.99h28.81
			c1.08,0,1.99,0.91,1.99,1.99v5.13C921.48,210.75,920.57,211.66,919.5,211.66z"/>
	</g>
	<g>
		<path style="fill:#E3F2FF;" d="M916.85,264.48h-23.68c-2.48,0-4.55-2.07-4.55-4.55v-39c0-2.48,2.07-4.55,4.55-4.55h23.68
			c2.48,0,4.55,2.07,4.55,4.55v39C921.48,262.41,919.41,264.48,916.85,264.48z"/>
	</g>
	<g>
		<g>
			<path style="fill:#E3F2FF;" d="M862.37,228.22c1.49,0.5,3.06,0.75,4.64,0.83c4.88,0.08,9.36-2.24,12.17-5.88
				c1.9-2.48,3.15-5.63,3.15-9.02c0-0.33,0-0.66,0-0.99c-0.08-1.49-0.41-2.98-0.91-4.31c-2.07-5.71-7.53-9.85-13.99-9.94
				c-3.48-0.08-6.71,1.08-9.27,3.06c-3.64,2.73-5.96,7.04-6.04,11.84C852.02,220.43,856.32,226.15,862.37,228.22z M855.91,213.73
				c0.08-3.64,1.82-6.79,4.47-8.86c1.9-1.49,4.39-2.32,7.04-2.32c4.8,0.08,8.94,3.15,10.51,7.45l0,0c0.33,0.99,0.58,2.15,0.66,3.23
				c0,0.25,0,0.5,0,0.75c0,2.57-0.91,4.88-2.4,6.79c-2.07,2.73-5.38,4.47-9.11,4.39c-1.24,0-2.4-0.25-3.48-0.58
				C859.06,223.08,855.83,218.78,855.91,213.73z"/>
		</g>
		<g>
			<path style="fill:#1A598C;" d="M876.2,220.85l2.98,2.32c-2.82,3.64-7.2,5.88-12.17,5.88c-1.66,0-3.23-0.33-4.64-0.83l1.24-3.56
				c1.08,0.33,2.24,0.58,3.48,0.58C870.81,225.24,874.04,223.58,876.2,220.85z"/>
		</g>
		<g>
			<path style="fill:#2273B5;" d="M878.51,213.31l3.81-0.17c0,0.33,0,0.66,0,0.99c-0.08,3.39-1.24,6.54-3.15,9.02l-2.98-2.32
				c1.49-1.9,2.32-4.22,2.4-6.79C878.51,213.81,878.51,213.56,878.51,213.31z"/>
		</g>
		<g>
			<path style="fill:#2273B5;" d="M878.51,213.31c-0.08-1.16-0.25-2.24-0.66-3.23l0,0l3.56-1.32c0.5,1.41,0.83,2.82,0.91,4.31
				L878.51,213.31z"/>
		</g>
		<g>
			<path style="fill:#4DA8F2;" d="M858.15,201.81c2.57-1.99,5.8-3.06,9.27-3.06c6.46,0.08,11.92,4.22,13.99,9.94l-3.56,1.32l0,0
				c-1.57-4.31-5.63-7.37-10.51-7.45c-2.65,0-5.05,0.83-7.04,2.32L858.15,201.81z"/>
		</g>
	</g>
	<g>
		<path style="fill:#EEA886;" d="M882.4,194.52c0,0,0.83-0.08,1.32-0.58c0.83-0.83,0.91-2.57,2.57-2.73
			c1.66-0.08,3.15,4.88,2.9,5.88s-2.48,1.82-5.88,1.66C879.84,198.58,882.4,194.52,882.4,194.52z"/>
	</g>
	<g>
		<path style="fill:#EEA886;" d="M885.72,191.29c0,0,2.24-1.16,4.8-2.15c2.32-0.83,5.13-1.49,5.46-1.08
			c0.66,0.91-1.99,1.49-4.22,2.48c-2.07,0.91-1.66,0.75-1.66,0.75s-0.17-0.08,2.24-0.66c2.57-0.66,5.3-1.08,5.63-0.58
			c0.17,0.25,0.5,1.08-0.58,0.99c0.58-0.08,0.5-0.17,0.5,0c0.25,1.16-3.39,2.65-4.88,3.31c1.16-0.41,1.99-0.66,1.66,0.17
			c-0.33,0.99-5.63,2.9-7.45,3.73C885.22,199.4,885.72,191.29,885.72,191.29z"/>
	</g>
	<g>
		<path style="fill:#D4D8E8;" d="M846.39,160.08c0,0-5.22-0.41-8.86,0c-3.64,0.41-8.69,3.39-11.76,4.22
			c-3.06,0.83-10.43,5.8-10.27,6.54c0.17,0.66,3.06,8.78,8.36,15.32C828.34,191.79,846.39,160.08,846.39,160.08z"/>
	</g>
	<g>
		<path style="fill:#A9ADBA;" d="M835.21,163.39c0,0-5.63,4.14-7.53,7.95c-1.99,3.81-2.65,8.28-2.65,8.28L835.21,163.39z"/>
	</g>
	<g>
		<path style="fill:#1C4154;" d="M839.43,286.75c0,0,1.57,1.74,2.48,2.15c0.91,0.41,11.92,2.32,12.75,3.23
			c0.75,0.91,0.75,4.47-2.07,4.47s-12.34-0.08-13.91,0c-1.57,0.08-8.36,1.41-9.02,0c-0.66-1.41-0.66-7.95,0.58-9.52
			C831.4,285.51,839.43,286.75,839.43,286.75z"/>
	</g>
	<g>
		<path style="fill:#2A617D;" d="M839.1,284.77l0.33,1.99c0,0-2.98,1.32-9.27,0.33v-2.07L839.1,284.77z"/>
	</g>
	<g>
		<path style="fill:#1C4154;" d="M772.04,281.21c0,0-1.24,1.41-1.82,3.31c-0.41,1.16-2.24,6.71-1.41,8.11
			c0.83,1.32,7.12,1.57,10.27,1.08c3.15-0.5,10.02,0.58,10.68-0.83c0.66-1.32,1.08-3.31-0.91-4.06c-2.07-0.75-6.71-2.73-7.62-4.88
			C780.32,281.79,772.04,281.21,772.04,281.21z"/>
	</g>
	<g>
		<path style="fill:#2A617D;" d="M781.97,281.7l-0.91,2.24c0,0-9.02-0.66-9.11-2.73l2.82-4.14L781.97,281.7z"/>
	</g>
	<g>
		<g>
			<g>
				<path style="fill:#EEA886;" d="M855.99,156.27c0,0-5.05,4.31-6.46,3.89c-1.41-0.33,4.97,9.02,4.97,9.02s6.04-5.96,7.45-6.13
					C863.28,162.89,855.99,156.27,855.99,156.27z"/>
			</g>
		</g>
	</g>
	<g>
		<path style="fill:#D4D8E8;" d="M856.32,173.16c-1.74,0.99-1.99,1.32-1.82,6.29c0.17,4.88,2.24,8.86,2.4,10.18
			c0.17,1.32,2.9,14.74,3.64,15.48c0.75,0.75,9.69-0.99,11.51-1.57c2.73-0.83,14.16-4.72,14.16-4.72l-2.48-5.3
			c0,0-14.49,3.23-14.99,2.07c-0.5-1.16-1.57-10.6-1.99-12.67c-0.41-2.07,0.33-5.3-2.15-10.18
			C862.37,168.27,856.32,173.16,856.32,173.16z"/>
	</g>
	<g>
		<path style="fill:#326EA0;" d="M839.35,209.92c0,0,3.06,3.23,3.89,4.31c5.88,7.29,13.91,20.62,14.9,22.93
			c0.99,2.32-4.97,18.79-7.37,24.59c-1.24,2.98-9.77,23.84-9.52,24.26c0.25,0.5-8.94,0.75-13.08-1.32c0,0,5.96-17.55,7.2-21.03
			c1.9-5.22,8.45-19.62,8.61-21.03c0.17-1.41-10.6-12.92-14.16-15.15c-3.56-2.24-12.42-10.02-13.41-11.01
			c-0.99-0.99-6.62-3.64-6.13-8.69c0.5-5.05,4.31-9.02,4.31-9.02L839.35,209.92z"/>
	</g>
	<g>
		<path style="fill:#326EA0;" d="M823.21,222.5c0,0-0.58,1.49-1.32,3.56c-1.66,4.47-4.47,11.59-4.88,12.75
			c-0.66,1.66-3.97,8.86-5.63,10.27c-1.57,1.41-27.9,32.95-27.98,33.2c-0.08,0.25-9.85-4.8-10.43-6.71c0,0,14.24-18.55,16.48-21.28
			c2.24-2.73,6.79-6.79,8.36-13.25c1.57-6.46,12.5-31.3,12.58-32.21c0,0,1.74-7.62,4.31-10.02c2.57-2.32,11.92,0.41,13.33,5.3
			C829.5,208.93,823.21,222.5,823.21,222.5z"/>
	</g>
	<g>
		<path style="fill:#D4D8E8;" d="M849.12,160.16l2.15-0.83c0,0,5.38,1.24,8.45,5.55l-0.25,1.32
			C859.39,166.12,851.27,164.38,849.12,160.16z"/>
	</g>
	<g>
		<path style="fill:#A9ADBA;" d="M857.32,191.46c-0.41,0.58-0.75,0.99-0.99,1.24c-0.17,0.17-0.33,0.25-0.58,0.5l0,0l-0.17-8.03
			c0,0,0.99,3.06,1.16,3.56C856.82,189.05,857.32,191.46,857.32,191.46z"/>
	</g>
	<g>
		<path style="fill:#215B8A;" d="M823.21,222.5c0,0-0.58,1.49-1.32,3.56c-1.82-2.07-5.88-9.85-5.88-9.85
			c0.25,0.17,1.16,0.99,1.32,1.16C817.49,217.54,823.21,222.5,823.21,222.5z"/>
	</g>
	<g>
		<g>
			<path style="fill:#EEA886;" d="M868.99,154.12c0.17-0.58-0.25-2.98-1.74-1.57c-1.49,1.32-1.49,4.31-0.66,4.55
				C867.42,157.26,868.5,155.69,868.99,154.12z"/>
		</g>
	</g>
	<g>
		<g>
			<path style="fill:#E8734D;" d="M863.44,141.03c0,0-7.2-5.13-7.29,12.34L863.44,141.03z"/>
		</g>
	</g>
	<g>
		<path style="fill:#D4D8E8;" d="M857.32,191.46c-0.41,0.58-0.75,0.99-0.99,1.24c-0.17,0.17-0.33,0.25-0.58,0.5l0,0
			c-2.07,1.66-6.62,4.8-8.69,5.96c-2.32,1.24-6.79,11.92-6.79,11.92s-20.86-1.41-25.67-12.17c0,0,3.39-7.62,6.46-12.09
			c3.06-4.47,9.85-20.7,13.5-22.93c3.56-2.32,6.71-3.81,13.74-3.56c7.12,0.17,11.01,5.8,11.01,5.8s5.38,5.8,5.96,8.86
			C865.85,177.46,859.97,187.73,857.32,191.46z"/>
	</g>
	<g>
		<path style="fill:#4DA8F2;" d="M921.32,62.88l-0.17,4.72H836.7l0.17-4.72c0-4.64,3.81-8.45,8.45-8.45h67.56
			C917.59,54.35,921.32,58.16,921.32,62.88z"/>
	</g>
	<g>
		<path style="fill:#78C2FF;" d="M863.36,113.13h-16.97c-2.24,0-3.97-1.82-3.97-3.97V75.29c0-2.24,1.82-3.97,3.97-3.97h16.97
			c2.24,0,3.97,1.82,3.97,3.97v33.86C867.34,111.39,865.51,113.13,863.36,113.13z M846.39,72.65c-1.49,0-2.65,1.16-2.65,2.65v33.86
			c0,1.49,1.16,2.65,2.65,2.65h16.97c1.49,0,2.65-1.16,2.65-2.65V75.29c0-1.49-1.16-2.65-2.65-2.65H846.39z"/>
	</g>
	<g>
		<path style="fill:#78C2FF;" d="M913.7,75.46h-40.49c-0.75,0-1.32-0.58-1.32-1.32v-0.91c0-0.75,0.58-1.32,1.32-1.32h40.49
			c0.75,0,1.32,0.58,1.32,1.32v0.91C915.03,74.88,914.45,75.46,913.7,75.46z"/>
	</g>
	<g>
		<path style="fill:#78C2FF;" d="M913.7,82.66h-40.49c-0.75,0-1.32-0.58-1.32-1.32v-0.91c0-0.75,0.58-1.32,1.32-1.32h40.49
			c0.75,0,1.32,0.58,1.32,1.32v0.91C915.03,82.08,914.45,82.66,913.7,82.66z"/>
	</g>
	<g>
		<path style="fill:#6EB2EB;" d="M1012.06,171.92h-26.74c-1.16,0-2.07-0.91-2.07-2.07v-4.14c0-1.16,0.91-2.07,2.07-2.07h26.74
			c1.16,0,2.07,0.91,2.07,2.07v4.14C1014.05,171.01,1013.14,171.92,1012.06,171.92z"/>
	</g>
	<g>
		<path style="fill:#4DA8F2;" d="M1012.06,185.33h-26.74c-1.16,0-2.07-0.91-2.07-2.07v-4.14c0-1.16,0.91-2.07,2.07-2.07h26.74
			c1.16,0,2.07,0.91,2.07,2.07v4.14C1014.05,184.42,1013.14,185.33,1012.06,185.33z"/>
	</g>
	<g>
		<path style="fill:#2273B5;" d="M1012.06,198.74h-26.74c-1.16,0-2.07-0.91-2.07-2.07v-4.14c0-1.16,0.91-2.07,2.07-2.07h26.74
			c1.16,0,2.07,0.91,2.07,2.07v4.14C1014.05,197.83,1013.14,198.74,1012.06,198.74z"/>
	</g>
	<g>
		<path style="fill:#E3F2FF;" d="M850.36,61.55c0,1.99-1.66,3.64-3.64,3.64s-3.64-1.66-3.64-3.64s1.66-3.64,3.64-3.64
			C848.71,57.82,850.36,59.48,850.36,61.55z"/>
	</g>
	<g>
		<g>
			<path style="fill:#2273B5;" d="M1126.57,188.48c0,0,14.9,4.8,18.38,3.97c1.82-0.41,4.64-3.06,7.29-5.8
				c0.41-0.5,0.83-0.91,1.32-1.41c2.9-3.23,5.3-6.29,5.3-6.29s7.2-8.45,1.41-12.25c0,0-2.57,0.25-4.47,2.32
				c-1.9,2.07-3.73,5.38-4.22,6.46c-0.5,1.08-7.62,11.34-7.95,11.59c-0.33,0.25-3.48-0.58-5.96-0.83c-4.06-0.33-10.1-2.4-10.1-2.4
				L1126.57,188.48z"/>
		</g>
	</g>
	<g>
		<path style="fill:#16202E;" d="M1147.1,280.46c0,0-1.9,3.39-3.06,4.06c-1.41,0.83-4.14,3.64-5.05,3.73
			c-0.99,0.17-4.39,0.75-3.73,2.65c0.58,1.57,8.69,1.32,9.6,0.58c0.91-0.83,3.64-3.64,4.8-3.56c1.08,0.08,0.66,4.14,0.66,4.14h1.24
			c0,0,0.41-3.97,0.5-4.64c0.17-1.99-1.24-3.48-1.32-4.64c-0.08-1.16-0.17-1.99-0.17-1.99L1147.1,280.46z"/>
	</g>
	<g>
		<path style="fill:#EEA886;" d="M1139.32,288.16c0,0,2.73,0.91,4.8-0.25c2.07-1.16,6.04-2.98,7.45-2.98c0,0-0.75-2.32-0.75-2.65
			c0-0.25-0.08-1.49-0.08-1.49l-3.48-0.58c0,0-2.24,3.31-3.23,4.06C1142.88,285.1,1140.31,287.08,1139.32,288.16z"/>
	</g>
	<g>
		<path style="fill:#EEA886;" d="M1179.97,283.61c0,0-0.33,2.32-0.66,2.98c-0.33,0.66-1.41,3.89-1.82,4.55
			c-0.5,0.58-1.49,5.22,0,5.71c1.49,0.58,4.88,1.49,6.04-0.33s1.32-3.64,1.16-5.05s-1.57-7.87-1.57-8.53
			C1183.12,282.36,1179.97,283.61,1179.97,283.61z"/>
	</g>
	<g>
		<path style="fill:#16202E;" d="M1177.98,289.9c0,0-0.17,3.56,2.57,3.56c2.65,0,3.89-3.23,3.89-3.23s0.91,1.57,0,4.97
			c-0.91,3.39-4.72,2.65-5.63,2.57C1177.98,297.6,1173.93,296.52,1177.98,289.9z"/>
	</g>
	<g>
		<path style="fill:#1A598C;" d="M1175.5,202.55c0,0,3.48,4.39,4.72,7.37c1.24,2.9,3.23,9.36,2.98,14.32s-1.9,14.32-1.41,16.39
			s0.99,6.46,1.49,7.95c0.5,1.49,2.57,5.88,2.73,10.35c0.17,4.47-1.49,24.26-1.32,26.08c0.17,1.82-5.96,0.75-5.96,0.75
			s-0.17-17.8-0.83-20.86c-0.66-3.06-1.49-13.5-2.15-14.24c-0.58-0.75-2.32-8.61-2.48-9.94c-0.08-1.24-7.37-22.85-7.78-26.49
			s-9.52-11.67-9.52-11.67S1164.98,199.16,1175.5,202.55z"/>
	</g>
	<g>
		<path style="fill:#1A598C;" d="M1152.9,281.45c1.32-0.17,4.8-20.12,4.39-23.68c-0.41-3.56-0.83-11.09,0.33-14.16
			c0.75-1.99,5.55-12.25,8.69-19.46c0.41-0.99,0.91-1.99,1.24-2.82c0.99-2.32,1.66-3.97,1.74-4.31c0.08-1.32,4.47-24.84-13-14.41
			c0,0-0.17,1.82-0.41,2.57c-0.17,0.66-4.88,18.05-5.38,24.76c-0.5,6.71-1.74,12.34-1.9,13.74c-0.17,1.41,0.17,6.21,0.58,7.45
			c0.41,1.24-2.65,28.9-2.9,29.56C1146.11,281.29,1151.57,281.62,1152.9,281.45z"/>
	</g>
	<g>
		<g>
			<path style="fill:#EDDAD3;" d="M1163.08,165.46c0,0-3.31,1.57-4.47,1.82c-1.16,0.25-5.63,6.04-6.38,8.2
				c-0.75,2.15,0,5.3,1.57,9.02c1.57,3.73,0.08,4.97,0.83,8.69c0.75,3.73,1.41,11.67,1.24,13.74c-0.17,2.07,18.63,2.48,22.93-1.32
				c0,0-4.31-6.46-4.88-7.37c-0.58-0.91-0.08-5.96,0.41-7.2c0.5-1.32,4.14-11.92,4.14-11.92s2.57-8.78,0.08-10.68
				c-2.15-1.66-8.11-2.32-9.11-2.65C1168.38,165.29,1165.23,165.13,1163.08,165.46z"/>
		</g>
	</g>
	<g>
		<g>
			<path style="fill:#D6C5BE;" d="M1162,172.83l-1.99-2.4l1.74-6.21C1161.76,164.3,1162.33,167.78,1162,172.83z"/>
		</g>
	</g>
	<g>
		<g>
			<path style="fill:#EEA886;" d="M1161.51,161.65c0,0,0.66,6.13,0.5,8.11c0,0,3.48,3.48,7.37-4.06c0,0-1.66-3.06-0.41-7.29
				C1170.2,154.2,1161.51,161.65,1161.51,161.65z"/>
		</g>
	</g>
	<g>
		<g>
			<polygon style="fill:#EEA886;" points="1162,169.68 1162,172.83 1165.98,169.93 			"/>
		</g>
	</g>
	<g>
		<g>
			<polygon style="fill:#D6C5BE;" points="1162,172.83 1163.66,170.84 1169.21,165.29 1171.03,167.03 			"/>
		</g>
	</g>
	<g>
		<g>
			<path style="fill:#2273B5;" d="M1168.38,209.92c1.57,7.45,12.83-0.83,12.83-0.83s-7.37-12.34-4.39-22.19
				c0-0.08,0.08-0.17,0.08-0.25c0.17-0.66,0.33-1.24,0.58-1.74c0-0.08,0.08-0.17,0.08-0.33c0.66-1.9,1.16-3.56,1.57-4.88l0,0
				c1.32-4.06,1.66-5.38,1.66-5.38s-0.58-6.29-3.64-7.04c-3.15-0.66-6.46-1.32-6.46-1.32s-5.38,6.95-5.63,10.02
				C1164.9,179.12,1166.81,202.38,1168.38,209.92z"/>
		</g>
	</g>
	<g>
		<g>
			<path style="fill:#2273B5;" d="M1151.74,176.88c0,0-0.33,4.31,2.57,9.94c0,0-0.08,7.53-0.17,10.18
				c-0.08,2.65-0.75,12.58-0.75,12.58l3.23,1.9c0.66,0.41,1.49-0.17,1.41-0.91c-0.91-7.53-3.89-36.26,2.57-43.96l-2.9,0.99
				C1157.78,167.53,1151.74,173.82,1151.74,176.88z"/>
		</g>
	</g>
	<g>
		<g>
			<polygon style="fill:#FAE6DE;" points="1160.02,170.51 1157.45,171.17 1161.76,164.3 			"/>
		</g>
	</g>
	<g>
		<g>
			<polygon style="fill:#FAE6DE;" points="1163.66,170.84 1165.98,173.9 1170.78,165.96 1169.21,165.29 			"/>
		</g>
	</g>
	<g>
		<path style="fill:#EEA886;" d="M1163.91,141.94c-2.4-0.25-7.87,0.75-9.02,7.12c0,0,0.08,1.74,0.5,3.15
			c0.33,1.41-1.08,5.38-0.75,5.55c0.33,0.25,1.66,0.5,1.66,0.5s1.24,4.47,2.73,4.47c1.57,0,7.45-0.91,10.51-6.21
			C1172.44,151.3,1173.76,142.94,1163.91,141.94z"/>
	</g>
	<g>
		<path style="fill:#344052;" d="M1154.88,149.15c0,0,3.81,2.9,7.7,3.64c3.89,0.75,6.04,7.53,6.04,7.53s6.54-9.85,1.99-16.15
			C1166.06,137.8,1154.39,141.53,1154.88,149.15z"/>
	</g>
	<g>
		<path style="fill:#EEA886;" d="M1164.24,152.63c0.08-0.75,0.99-1.82,2.15-0.75c1.16,1.08-0.66,4.64-1.66,4.22
			C1163.74,155.69,1164.16,153.45,1164.24,152.63z"/>
	</g>
	<g>
		<path style="fill:#A77860;" d="M1161.51,162.48c0.08,0.5,0.17,0.99,0.25,1.57c3.23-1.9,4.97-4.22,4.97-4.22
			C1164.82,161.48,1161.51,162.48,1161.51,162.48z"/>
	</g>
	<g style="opacity:0.86;">
		<path style="fill:#E0F1FF;" d="M1091.96,203.71l48.52,0.25c2.65,0,4.8-2.15,4.8-4.8l0.17-32.37c0-2.65-2.15-4.8-4.8-4.8
			l-48.52-0.25c-2.65,0-4.8,2.15-4.8,4.8l-0.17,32.37C1087.16,201.47,1089.31,203.63,1091.96,203.71z"/>
	</g>
	<g>
		<path style="fill:#A1D4FF;" d="M1113.57,200.4l24.67,0.08c1.74,0,3.15-1.41,3.15-3.15l0.17-27.49c0-1.74-1.41-3.15-3.15-3.15
			l-24.67-0.08c-1.74,0-3.15,1.41-3.15,3.15l-0.17,27.49C1110.42,198.99,1111.83,200.4,1113.57,200.4z"/>
	</g>
	<g>
		<path style="fill:#A1D4FF;" d="M1093.37,200.4l14.24,0.08c0.5,0,0.91-0.41,0.91-0.91v-3.39c0-0.5-0.41-0.91-0.91-0.91l-14.24-0.08
			c-0.5,0-0.91,0.41-0.91,0.91v3.39C1092.54,199.98,1092.87,200.4,1093.37,200.4z"/>
	</g>
	<g>
		<path style="fill:#A1D4FF;" d="M1093.04,193.69l15.07,0.08c0.25,0,0.5-0.25,0.5-0.5v-0.58c0-0.25-0.25-0.5-0.5-0.5l-15.07-0.08
			c-0.25,0-0.5,0.25-0.5,0.5v0.58C1092.54,193.53,1092.7,193.69,1093.04,193.69z"/>
	</g>
	<g>
		<g>
			<path style="fill:#EEA886;" d="M1147.18,190.38c0,0-0.58,0.17-0.99-0.08c-0.75-0.33-1.24-1.49-2.4-1.16s-0.91,4.06-0.5,4.72
				c0.41,0.66,2.07,0.66,4.39-0.33C1150,192.45,1147.18,190.38,1147.18,190.38z"/>
		</g>
		<g>
			<path style="fill:#EEA886;" d="M1144.2,189.05c0,0-1.74-0.25-3.81-0.25c-1.74,0-3.81,0.33-3.89,0.66
				c-0.17,0.33,1.74,0.25,3.48,0.41c1.57,0.08,1.24,0.33,1.24,0.33s0.08-0.08-1.66,0.17c-1.9,0.25-3.81,0.66-3.89,1.08
				c-0.08,0.17,0,0.33,0.75,0.33c-0.41,0.08-0.41,0.17-0.41,0.33c0.08,0.83,2.98,0.91,4.06,0.99c-0.83,0-1.49,0.08-1.08,0.58
				c0.5,0.58,4.47,0.5,5.96,0.66C1146.6,194.27,1144.2,189.05,1144.2,189.05z"/>
		</g>
	</g>
	<g>
		<path style="fill:#344052;" d="M1167.88,151.3c-1.16,2.73-0.5,5.63,1.57,6.62c2.07,0.91,4.72-0.58,5.96-3.23
			c1.16-2.73,0.5-5.63-1.57-6.62C1171.77,147.08,1169.12,148.57,1167.88,151.3z"/>
	</g>
	<g>
		<g>
			<path style="fill:#2273B5;" d="M1177.82,167.53c0,0-3.06,0.58-4.64,2.98c-1.49,2.4-3.06,5.8-3.39,6.95
				c-0.33,1.16-6.13,12.01-6.46,12.25c-0.33,0.33-3.56,0.08-6.04,0.33c-4.06,0.41-10.43-0.58-10.43-0.58l-0.08,4.64
				c0,0,15.57,2.07,18.79,0.58c3.97-1.74,13.5-15.15,13.5-15.15S1184.19,170.26,1177.82,167.53z"/>
		</g>
	</g>
	<g>
		<path style="fill:#1A598C;" d="M1171.53,189.39l6.04-4.88c0.66-1.9,1.16-3.56,1.57-4.88
			C1179.14,179.7,1173.02,187.73,1171.53,189.39z"/>
	</g>
	<g>
		<path style="fill:#1A598C;" d="M1152.32,186.65c0.41-0.5,0.83-0.91,1.32-1.41c0,0-1.66-4.39-1.74-6.21
			C1151.82,179.04,1151.49,183.18,1152.32,186.65z"/>
	</g>
	<g>
		<g>
			<path style="fill:#73C0FF;" d="M1106.28,170.59c-1.08-2.98-3.89-4.8-6.87-4.72c-0.75,0-1.49,0.17-2.15,0.41
				c-2.15,0.75-3.73,2.48-4.39,4.55c-0.41,1.41-0.41,2.98,0.08,4.47c0.08,0.17,0.08,0.33,0.17,0.41c0.25,0.66,0.66,1.24,1.08,1.74
				c1.82,2.15,4.97,3.06,7.78,2.07C1105.7,178.37,1107.61,174.32,1106.28,170.59z M1101.4,178.04c-2.15,0.75-4.47,0.08-5.88-1.57
				c-0.33-0.41-0.58-0.83-0.83-1.32c-0.08-0.08-0.08-0.25-0.17-0.33c-0.41-1.16-0.41-2.32-0.08-3.39c0.5-1.57,1.66-2.82,3.31-3.39
				c0.5-0.17,1.08-0.33,1.66-0.33c2.24-0.08,4.39,1.32,5.13,3.56C1105.62,173.99,1104.13,177.05,1101.4,178.04z"/>
		</g>
		<g>
			<path style="fill:#73C0FF;" d="M1094.53,171.42l-1.66-0.5c0.66-2.07,2.24-3.81,4.39-4.55c0.75-0.25,1.49-0.41,2.15-0.41
				l0.08,1.74c-0.58,0-1.08,0.08-1.66,0.33C1096.18,168.6,1095.02,169.93,1094.53,171.42z"/>
		</g>
		<g>
			<path style="fill:#73C0FF;" d="M1094.77,175.15l-1.66,0.75c-0.08-0.17-0.08-0.33-0.17-0.41c-0.58-1.49-0.5-3.06-0.08-4.47
				l1.66,0.5c-0.33,1.08-0.33,2.24,0.08,3.39C1094.61,174.9,1094.69,175.06,1094.77,175.15z"/>
		</g>
		<g>
			<path style="fill:#73C0FF;" d="M1094.19,177.63c-0.41-0.5-0.83-1.08-1.08-1.74l1.66-0.75c0.25,0.5,0.5,0.91,0.83,1.32
				L1094.19,177.63z"/>
		</g>
	</g>
	<g>
		<g>
			<path style="fill:#73C0FF;" d="M1098.33,183.09c-0.41-1.24-1.57-1.99-2.82-1.9c-0.33,0-0.58,0.08-0.91,0.17
				c-0.91,0.33-1.57,0.99-1.82,1.9c-0.17,0.58-0.17,1.24,0,1.82c0,0.08,0.08,0.08,0.08,0.17c0.08,0.25,0.25,0.5,0.41,0.75
				c0.75,0.91,1.99,1.24,3.23,0.83C1098.09,186.24,1098.83,184.58,1098.33,183.09z M1096.26,186.07c-0.91,0.33-1.82,0-2.4-0.66
				c-0.17-0.17-0.25-0.33-0.33-0.58c0-0.08,0-0.08-0.08-0.17c-0.17-0.5-0.17-0.91,0-1.41c0.17-0.66,0.66-1.16,1.32-1.41
				c0.25-0.08,0.41-0.08,0.66-0.17c0.91,0,1.82,0.5,2.15,1.41C1098,184.42,1097.42,185.66,1096.26,186.07z"/>
		</g>
		<g>
			<path style="fill:#73C0FF;" d="M1093.45,183.42l-0.66-0.25c0.25-0.83,0.91-1.57,1.82-1.9c0.33-0.08,0.58-0.17,0.91-0.17v0.75
				c-0.25,0-0.41,0.08-0.66,0.17C1094.19,182.27,1093.7,182.76,1093.45,183.42z"/>
		</g>
		<g>
			<path style="fill:#73C0FF;" d="M1093.53,184.92l-0.66,0.33c0-0.08-0.08-0.08-0.08-0.17c-0.25-0.58-0.25-1.24,0-1.82l0.66,0.25
				c-0.17,0.41-0.17,0.91,0,1.41C1093.53,184.83,1093.53,184.92,1093.53,184.92z"/>
		</g>
		<g>
			<path style="fill:#73C0FF;" d="M1093.37,185.91c-0.17-0.25-0.33-0.5-0.41-0.75l0.66-0.33c0.08,0.17,0.17,0.41,0.33,0.58
				L1093.37,185.91z"/>
		</g>
	</g>
	<g>
		<rect x="872.88" y="93.59" style="fill:#78C2FF;" width="5.13" height="18.96"/>
	</g>
	<g>
		<rect x="880.17" y="91.69" style="fill:#78C2FF;" width="5.13" height="20.86"/>
	</g>
	<g>
		<rect x="887.62" y="95.58" style="fill:#78C2FF;" width="5.13" height="16.89"/>
	</g>
	<g>
		<rect x="894.99" y="87.8" style="fill:#78C2FF;" width="5.13" height="24.67"/>
	</g>
	<g>
		<rect x="902.86" y="90.28" style="fill:#78C2FF;" width="5.13" height="22.27"/>
	</g>
</g>
<g>
	<g>
		
			<linearGradient id="SVGID_00000103978174724204023180000011311258156286581929_" gradientUnits="userSpaceOnUse" x1="-70.989" y1="-500.2785" x2="57.9944" y2="-500.2785" gradientTransform="matrix(0.9948 -0.1022 -0.1022 -0.9948 184.8682 -343.734)">
			<stop  offset="0" style="stop-color:#96CBFF"/>
			<stop  offset="1" style="stop-color:#5599FF"/>
		</linearGradient>
		<path style="fill:url(#SVGID_00000103978174724204023180000011311258156286581929_);" d="M279.82,178.29
			c2.24-4.72,3.73-9.69,4.55-14.74l10.43-3.15l-1.08-11.76l-1.08-11.76l-10.76-1.16c-1.74-4.8-4.14-9.36-7.2-13.66l5.13-9.52
			l-9.11-7.53l-9.11-7.53l-8.45,6.79c-4.72-2.24-9.69-3.73-14.74-4.55l-3.15-10.43l-11.76,1.08l-11.76,1.08l-1.16,10.76
			c-4.8,1.74-9.36,4.14-13.66,7.2l-9.52-5.13l-7.53,9.11l-7.53,9.11l6.79,8.45c-2.24,4.72-3.73,9.69-4.55,14.74l-10.43,3.15
			l1.08,11.76l1.08,11.76l10.76,1.16c1.74,4.8,4.14,9.36,7.2,13.66l-5.13,9.52l9.11,7.53l9.11,7.53l8.45-6.79
			c4.72,2.24,9.69,3.73,14.74,4.55l3.15,10.43l11.76-1.08l11.76-1.08l1.16-10.76c4.8-1.74,9.36-4.14,13.66-7.2l9.52,5.13l7.53-9.11
			l7.53-9.11L279.82,178.29z M211.1,176.97c-12.25-10.18-13.99-28.4-3.81-40.74c10.18-12.25,28.4-13.99,40.74-3.81
			c12.25,10.18,13.99,28.4,3.81,40.74C241.57,185.41,223.36,187.15,211.1,176.97z"/>
		
			<linearGradient id="SVGID_00000066508165404863596820000013521343599426075814_" gradientUnits="userSpaceOnUse" x1="470.6829" y1="-656.3054" x2="521.0991" y2="-656.3054" gradientTransform="matrix(0.9948 -0.1022 -0.1022 -0.9948 184.8682 -343.734)">
			<stop  offset="0" style="stop-color:#96CBFF"/>
			<stop  offset="1" style="stop-color:#5599FF"/>
		</linearGradient>
		<path style="fill:url(#SVGID_00000066508165404863596820000013521343599426075814_);" d="M764.92,267.63
			c0.83-1.82,1.49-3.81,1.74-5.71l4.06-1.24l-0.41-4.55l-0.41-4.55l-4.22-0.41c-0.66-1.9-1.57-3.64-2.82-5.3l1.99-3.73l-3.56-2.98
			l-3.56-2.98l-3.31,2.65c-1.82-0.83-3.81-1.49-5.71-1.74l-1.24-4.06l-4.55,0.41l-4.55,0.41l-0.41,4.22
			c-1.9,0.66-3.64,1.57-5.3,2.82l-3.73-1.99l-2.98,3.56l-2.98,3.56l2.65,3.31c-0.83,1.82-1.49,3.81-1.74,5.71l-4.06,1.24l0.41,4.55
			l0.41,4.55l4.22,0.41c0.66,1.9,1.57,3.64,2.82,5.3l-1.99,3.73l3.56,2.98l3.56,2.98l3.31-2.65c1.82,0.83,3.81,1.49,5.71,1.74
			l1.24,4.06l4.55-0.41l4.55-0.41l0.41-4.22c1.9-0.66,3.64-1.57,5.3-2.82l3.73,1.99l2.98-3.56l2.98-3.56L764.92,267.63z
			 M738.01,267.13c-4.8-3.97-5.46-11.09-1.49-15.9c3.97-4.8,11.09-5.46,15.9-1.49c4.8,3.97,5.46,11.09,1.49,15.9
			C749.93,270.44,742.81,271.1,738.01,267.13z"/>
		
			<linearGradient id="SVGID_00000042731569586341088850000007309641127555391422_" gradientUnits="userSpaceOnUse" x1="235.8903" y1="-600.4744" x2="286.3066" y2="-600.4744" gradientTransform="matrix(0.9948 -0.1022 -0.1022 -0.9948 184.8682 -343.734)">
			<stop  offset="0" style="stop-color:#96CBFF"/>
			<stop  offset="1" style="stop-color:#5599FF"/>
		</linearGradient>
		<path style="fill:url(#SVGID_00000042731569586341088850000007309641127555391422_);" d="M525.64,236.08
			c0.83-1.82,1.49-3.81,1.74-5.71l4.06-1.24l-0.41-4.55l-0.41-4.55l-4.22-0.41c-0.66-1.9-1.57-3.64-2.82-5.3l1.99-3.73L522,207.6
			l-3.56-2.98l-3.31,2.65c-1.82-0.83-3.81-1.49-5.71-1.74l-1.24-4.06l-4.55,0.41l-4.55,0.41l-0.41,4.22
			c-1.9,0.66-3.64,1.57-5.3,2.82l-3.73-1.99l-2.98,3.56l-2.98,3.56l2.65,3.31c-0.83,1.82-1.49,3.81-1.74,5.71l-4.06,1.24l0.41,4.55
			l0.41,4.55l4.22,0.41c0.66,1.9,1.57,3.64,2.82,5.3l-1.99,3.73l3.56,2.98l3.56,2.98l3.31-2.65c1.82,0.83,3.81,1.49,5.71,1.74
			l1.24,4.06l4.55-0.41l4.55-0.41l0.41-4.22c1.9-0.66,3.64-1.57,5.3-2.82l3.73,1.99l2.98-3.56l2.98-3.56L525.64,236.08z
			 M498.73,235.59c-4.8-3.97-5.46-11.09-1.49-15.9c3.97-4.8,11.09-5.46,15.9-1.49c4.8,3.97,5.46,11.09,1.49,15.9
			C510.66,238.9,503.53,239.56,498.73,235.59z"/>
		
			<linearGradient id="SVGID_00000016075708040010491850000011496669185951438752_" gradientUnits="userSpaceOnUse" x1="704.6997" y1="-418.8397" x2="755.1161" y2="-418.8397" gradientTransform="matrix(0.9948 -0.1022 -0.1022 -0.9948 184.8682 -343.734)">
			<stop  offset="0" style="stop-color:#96CBFF"/>
			<stop  offset="1" style="stop-color:#5599FF"/>
		</linearGradient>
		<path style="fill:url(#SVGID_00000016075708040010491850000011496669185951438752_);" d="M973.4,7.49
			c0.83-1.82,1.49-3.81,1.74-5.71l4.06-1.24l-0.41-4.55l-0.41-4.55l-4.22-0.41c-0.66-1.9-1.57-3.64-2.82-5.3l1.99-3.73L969.75-21
			l-3.56-2.98l-3.31,2.65c-1.82-0.83-3.81-1.49-5.71-1.74l-1.24-4.06l-4.55,0.41l-4.55,0.41l-0.41,4.22
			c-1.9,0.66-3.64,1.57-5.3,2.82l-3.73-1.99l-2.98,3.56l-2.98,3.56l2.65,3.31c-0.83,1.82-1.49,3.81-1.74,5.71l-4.06,1.24l0.41,4.55
			l0.41,4.55l4.22,0.41c0.66,1.9,1.57,3.64,2.82,5.3l-1.99,3.73l3.56,2.98l3.56,2.98l3.31-2.65c1.82,0.83,3.81,1.49,5.71,1.74
			l1.24,4.06l4.55-0.41l4.55-0.41l0.41-4.22c1.9-0.66,3.64-1.57,5.3-2.82l3.73,1.99l2.98-3.56l2.98-3.56L973.4,7.49z M946.57,6.91
			c-4.8-3.97-5.46-11.09-1.49-15.9c3.97-4.8,11.09-5.46,15.9-1.49c4.8,3.97,5.46,11.09,1.49,15.9
			C958.49,10.22,951.37,10.88,946.57,6.91z"/>
		
			<linearGradient id="SVGID_00000023980262203055063890000004271928850349880741_" gradientUnits="userSpaceOnUse" x1="-128.3077" y1="-389.6095" x2="-77.9003" y2="-389.6095" gradientTransform="matrix(0.9948 -0.1022 -0.1022 -0.9948 184.8682 -343.734)">
			<stop  offset="0" style="stop-color:#96CBFF"/>
			<stop  offset="1" style="stop-color:#5599FF"/>
		</linearGradient>
		<path style="fill:url(#SVGID_00000023980262203055063890000004271928850349880741_);" d="M141.8,63.62
			c0.83-1.82,1.49-3.81,1.74-5.71l4.06-1.24l-0.41-4.55l-0.41-4.55l-4.22-0.41c-0.66-1.9-1.57-3.64-2.82-5.3l1.99-3.73l-3.56-2.98
			l-3.56-2.98l-3.31,2.65c-1.82-0.83-3.81-1.49-5.71-1.74l-1.24-4.06l-4.55,0.41l-4.55,0.41l-0.41,4.22
			c-1.9,0.66-3.64,1.57-5.3,2.82l-3.73-1.99l-3.06,3.39l-2.98,3.56l2.65,3.31c-0.83,1.82-1.49,3.81-1.74,5.71l-4.06,1.24l0.41,4.55
			l0.41,4.55l4.22,0.41c0.66,1.9,1.57,3.64,2.82,5.3l-1.99,3.73l3.56,2.98l3.56,2.98l3.31-2.65c1.82,0.83,3.81,1.49,5.71,1.74
			l1.24,4.06l4.55-0.41l4.55-0.41l0.41-4.22c1.9-0.66,3.64-1.57,5.3-2.82l3.73,1.99l2.98-3.56l2.98-3.56L141.8,63.62z M114.9,63.04
			c-4.8-3.97-5.46-11.09-1.49-15.9s11.09-5.46,15.9-1.49c4.8,3.97,5.46,11.09,1.49,15.9C126.82,66.44,119.7,67.1,114.9,63.04z"/>
		<g>
			<g>
				<g>
					<g>
						<g>
							<path style="fill:#BBD070;" d="M87.66,239.48c0,0-36.43,27.9-22.93,54.07c13.41,26.25,23.27,5.55,23.27,5.55
								s10.51,4.47-2.4-27.49C79.46,256.62,87.66,239.48,87.66,239.48z"/>
						</g>
					</g>
				</g>
			</g>
			<g>
				<g>
					<g>
						<g>
							<path style="fill:#97A43C;" d="M30.2,198.82c0,0-28.4,26.91,0.91,71.62c29.31,44.71,21.78,65.82,21.78,65.82
								S107.53,269.95,30.2,198.82z"/>
						</g>
					</g>
				</g>
			</g>
			<g>
				<g>
					<g>
						<g>
							<path style="fill:#48753A;" d="M62.9,324.09c15.32,4.88,6.46-41.48-15.57-57.96C25.31,249.66,4.36,246.1-7.39,231.28
								C-7.31,231.28-12.69,300.17,62.9,324.09z"/>
						</g>
					</g>
				</g>
			</g>
		</g>
		<g>
			<g>
				<g>
					<g>
						<g>
							<path style="fill:#BBD070;" d="M1157.28,234.92c0,0,36.43,27.9,22.93,54.07c-13.41,26.16-23.27,5.55-23.27,5.55
								s-10.51,4.47,2.4-27.49C1165.48,252.06,1157.28,234.92,1157.28,234.92z"/>
						</g>
					</g>
				</g>
			</g>
			<g>
				<g>
					<g>
						<g>
							<path style="fill:#97A43C;" d="M1214.74,194.35c0,0,28.4,26.91-0.91,71.62s-21.78,65.82-21.78,65.82
								S1137.41,265.39,1214.74,194.35z"/>
						</g>
					</g>
				</g>
			</g>
			<g>
				<g>
					<g>
						<g>
							<path style="fill:#48753A;" d="M1182.04,319.54c-15.32,4.88-6.46-41.48,15.57-57.96c22.02-16.48,42.97-20.04,54.73-34.86
								C1252.33,226.73,1257.63,295.61,1182.04,319.54z"/>
						</g>
					</g>
				</g>
			</g>
		</g>
		<g>
			<g>
				<g>
					<path style="fill:#DBD8E3;" d="M348.71,189.55c0.83-11.67,1.49-22.6,1.82-32.79c-2.82-1.49-6.21-3.23-8.94-4.55
						c-8.36-3.97-20.12-9.36-27.57-12.83c-4.39-1.99-8.69-3.48-8.69-3.48s-29.97-2.9-32.46-2.73c-0.75,0.08-4.55,1.32-9.44,3.23
						c-10.68,4.06-31.13,12.25-34.44,14.57c-4.8,3.39-21.94,87.43-22.35,93.14c-0.41,5.55,23.35,13.16,45.29,18.96
						c0,8.53-0.17,20.45-0.41,31.38c0,1.82-0.08,3.73-0.08,5.46h96.29c-0.17-1.9-0.25-3.73-0.33-5.46c0-0.25,0-0.5,0-0.66
						c-0.33-7.37-1.82-20.62-1.41-33.45c0,0-0.25-13.58,1.08-19.37C347.14,215.14,348.71,189.55,348.71,189.55z M226.67,238.98
						c0.17-10.93,14.74-31.3,14.74-31.3l0.66-0.25l0.75-0.08c0,0,2.24-2.15,2.32-2.15c0.5,1.9,5.38,29.39,6.54,45.45
						C237.93,247.92,226.59,244.2,226.67,238.98z"/>
				</g>
			</g>
			<g>
				<g>
					<path style="fill:#323657;" d="M350.53,294.45c-0.66-4.55-1.24-9.11-1.74-13.58c0,0,0,0,0-0.08c-0.17-1.49-0.33-2.98-0.5-4.39
						c0-0.08,0-0.17,0-0.25c-0.66-6.13-1.32-12.01-1.74-17.39c-0.33-4.14,0-8.2,0.58-12.09c1.66-27.57,2.48-56.63,2.48-56.63
						c0.91-11.92,1.41-23.02,1.74-33.37c0,0-37.67-17.8-41.07-18.79c0,0,7.12,16.81,12.5,54.31c2.07,14.41,5.88,38.67,8.61,63.42
						l0,0c1.49,13.33,4.31,26.99,6.46,39c0.33,1.82,0.66,3.64,0.91,5.46h12.58C351.03,298.1,350.78,296.27,350.53,294.45z"/>
				</g>
			</g>
			<g>
				<g>
					<path style="fill:#323657;" d="M287.77,250.16c1.49-13.91,2.82-27.9,2.15-35.52c-5.22-61.35-19.87-77.58-22.02-79.9
						c-1.66,0.66-7.95,2.98-9.77,3.73c-10.02,3.97-30.55,11.26-33.28,13.25c-4.8,3.39-23.68,91.49-24.26,97.2
						c-0.41,3.89,24.26,11.92,49.43,19.04c-0.25,6.87,0.41,16.64-1.9,26.74c-0.41,1.82-0.99,2.9-1.08,5.3l35.02-0.17
						c0.25-1.82,0.41-3.64,0.66-5.46c0.66-5.46,1.32-11.09,2.07-17.06c10.51,2.73,17.64,4.47,17.64,4.47s9.85-16.72,12.75-23.43
						C315.67,257.28,303.01,254.21,287.77,250.16z M242.4,229.04c-0.33-12.58-0.25-21.28-0.25-21.28
						c1.24,4.31,2.98,16.56,4.47,28.81C241.57,233.93,242.48,231.53,242.4,229.04z"/>
				</g>
			</g>
			<g>
				<g>
					<path style="fill:#EEA987;" d="M271.29,134.16c0,0,3.81-7.2,2.73-27.65c-0.33-5.71,29.81,13.41,29.81,13.41
						s-0.08,1.99-0.17,4.55c0,1.08-0.08,2.32-0.08,3.56c0,0.33,0,0.66,0,0.99c0,0.58,0,1.08,0,1.66c0,0.66,0,1.32,0.08,1.99
						c0,0.75,0.08,1.41,0.17,2.07c0.08,1.24,0.83,3.39,1.08,4.06C306.4,142.03,282.56,142.19,271.29,134.16z"/>
				</g>
			</g>
			<g>
				<path style="fill:#E8734D;" d="M296.55,147.16l5.55,7.45c0,0-3.23,4.39-9.02,1.16L296.55,147.16z"/>
			</g>
			<g>
				<path style="fill:#E8734D;" d="M300.6,154.94c0,0,20.28,49.59,15.98,112.68l-6.38,11.59l-7.2-9.94c0,0-1.16-83.71-6.95-114.59
					L300.6,154.94z"/>
			</g>
			<g>
				<path style="fill:#EEA987;" d="M302.43,140.21l-5.96,6.95c0,0-9.52-1.82-12.34-6.79C281.4,135.32,302.43,140.21,302.43,140.21z"
					/>
			</g>
			<g>
				<path style="fill:#C4C1CC;" d="M303.83,134.16c0,0-0.66,5.3-7.29,13l7.2,9.69l3.89-20.12L303.83,134.16z"/>
			</g>
			<g>
				<path style="fill:#C4C1CC;" d="M273.12,127.79c0,0,13.74,15.57,23.43,19.37l-4.47,11.09L270.05,134L273.12,127.79z"/>
			</g>
			<g>
				<g>
					<path style="fill:#323657;" d="M414.78,268.79c0,0-18.3-17.72-30.3-20.7c-5.55-1.32-12.83-9.02-19.79-18.05
						c-2.32-2.98-4.55-6.04-6.71-9.19l0,0c-8.53-12.25-15.15-24.01-15.15-24.01s-25.17-29.48-4.97-42.64c0,0,8.69-0.17,13.41,2.4
						c4.88,2.65,15.32,24.34,17.06,28.23c1.74,3.81,20.86,39.58,22.19,40.4c1.24,0.83,3.39,3.73,11.09,7.87
						c9.36,5.05,24.09,19.79,24.09,19.79L414.78,268.79z"/>
				</g>
			</g>
			<g>
				<path style="fill:#EFAA88;" d="M326.93,289.24c0,0-2.57-0.08-3.64-0.66c0,0-1.9-1.24-3.31-1.99c-0.41-0.25-0.83-0.5-1.08-0.58
					c-1.16-0.41-3.73-1.08-6.13-2.9c-2.4-1.82-10.27-9.19-10.27-9.19l5.05-7.78l2.32-7.7c0,0,18.3,1.82,20.7,3.23
					c0.25,0.17,0.5,0.33,0.66,0.41c1.99,1.41,2.82,3.31,3.73,4.14c0.33,0.33,3.56,3.73,3.31,5.13c-0.25,1.9-1.16,3.15-2.4,3.73
					c0,0-0.66,3.73-2.57,5.38c0,0-0.5,3.48-3.48,4.88C329.91,285.43,329,288.82,326.93,289.24z"/>
			</g>
			<g>
				<path style="fill:#EEA886;" d="M297.87,53.6c0,0,33.04-7.95,26.08,33.86s-14.9,45.21-35.02,36.84s-18.71-35.11-19.95-48.19
					C267.82,63.12,287.27,54.26,297.87,53.6z"/>
			</g>
			<g>
				<path style="fill:#EEA886;" d="M280.49,82.58c-0.5-3.64-7.78-4.88-8.28,0.58c-0.5,5.55,3.56,15.15,6.29,14.16
					C281.23,96.32,281.15,87.63,280.49,82.58z"/>
			</g>
			<g>
				<path style="fill:#16202E;" d="M270.88,97.57c0,0,0.66-13.16,5.46-13.66c4.8-0.5,5.63,4.8,5.63,4.8l4.88,0.83
					c0,0-1.74-11.51,3.06-13.58c4.8-2.07,31.13,5.88,34.94,2.48c3.81-3.48,1.66-26.74-5.38-29.89c-7.04-3.06-26.33-10.02-40.24-0.25
					c0,0-11.01-1.08-12.5,7.78C265.25,65.03,267.82,91.03,270.88,97.57z"/>
			</g>
			<g>
				<path style="fill:#323657;" d="M316.09,258.44l-13.66,23.43c0,0-36.1-9.27-44.54-11.67l19.29-22.93
					C277.17,247.26,305.57,253.72,316.09,258.44z"/>
			</g>
			<g>
				<path style="fill:#A77860;" d="M303.75,132.75L303.75,132.75c-17.72-1.82-24.59-15.48-24.59-15.48
					c11.18,11.01,24.51,10.76,24.51,10.76c0,0.33,0,0.66,0,0.99c0,0.58,0,1.08,0,1.66C303.67,131.43,303.67,132.09,303.75,132.75z"
					/>
			</g>
		</g>
		<g>
			<g>
				<path style="fill:#EEA886;" d="M329.09,267.54c0,0,5.55,2.65,6.95,3.89c1.41,1.16,7.29,5.55,8.69,6.62
					c1.41,0.99-2.15,3.97-12.58-0.58C321.72,272.93,329.09,267.54,329.09,267.54z"/>
			</g>
		</g>
		<g>
			<polygon style="fill:#FFC955;" points="329.58,207.02 319.9,296.69 446.74,296.69 456.42,207.02 			"/>
		</g>
		<g>
			<path style="fill:#FFC955;" d="M454.02,292.55H326.19l9.77-90.58h127.84L454.02,292.55z M327.26,291.56h125.85l9.52-88.59H336.79
				L327.26,291.56z"/>
		</g>
		<g>
			<rect x="309.85" y="288.66" style="fill:#FFC955;" width="21.2" height="8.03"/>
		</g>
		<g>
			<g>
				<g>
					<polyline id="SVGID_00000065785980507658483790000000486941575223048361_" style="fill:#00327A;" points="74.16,295.86 
						74.16,301.32 1202.66,301.32 1202.66,295.86 					"/>
				</g>
				<g>
					<defs>
						<polyline id="SVGID_00000101809514825711577840000010572975411939891358_" points="74.16,295.86 74.16,301.32 1202.66,301.32 
							1202.66,295.86 						"/>
					</defs>
					<clipPath id="SVGID_00000092443149539556783200000000186422374248972215_">
						<use xlink:href="#SVGID_00000101809514825711577840000010572975411939891358_"  style="overflow:visible;"/>
					</clipPath>
					<path style="clip-path:url(#SVGID_00000092443149539556783200000000186422374248972215_);fill:#5599FF;" d="M1234.53,301.32
						v-5.46V301.32z"/>
				</g>
			</g>
		</g>
		<g>
			<path style="fill:#CFA345;" d="M381.08,250.41c-0.99,4.97,1.32,9.69,5.22,10.43c3.89,0.83,7.87-2.57,8.86-7.62
				c0.99-4.97-1.32-9.69-5.22-10.43C386.13,242.04,382.16,245.44,381.08,250.41z"/>
		</g>
		<g>
			<path style="fill:#FFC955;" d="M200.59,270.03H147.1c-3.97,0-7.12-3.23-7.12-7.12v-84.53c0-3.97,3.23-7.12,7.12-7.12h53.49
				c3.97,0,7.12,3.23,7.12,7.12v84.53C207.71,266.88,204.56,270.03,200.59,270.03z"/>
		</g>
		<g>
			<g>
				<g>
					<g>
						<g>
							<rect x="197.03" y="235.01" style="fill:#E3F2FF;" width="3.48" height="26.74"/>
						</g>
					</g>
				</g>
			</g>
			<g>
				<g>
					<g>
						<g>
							<rect x="190.07" y="238.07" style="fill:#E3F2FF;" width="3.48" height="23.76"/>
						</g>
					</g>
				</g>
			</g>
			<g>
				<g>
					<g>
						<g>
							<rect x="182.54" y="241.96" style="fill:#E3F2FF;" width="3.48" height="19.87"/>
						</g>
					</g>
				</g>
			</g>
			<g>
				<g>
					<g>
						<g>
							<rect x="174.76" y="246.85" style="fill:#E3F2FF;" width="3.48" height="14.9"/>
						</g>
					</g>
				</g>
			</g>
			<g>
				<g>
					<g>
						<polygon style="fill:#E3F2FF;" points="153.81,243.7 153.06,243.45 159.69,224.82 174.09,221.01 179.23,200.65 190.32,195.76 
							192.81,179.86 193.63,179.95 191.07,196.26 179.89,201.23 174.76,221.68 160.35,225.48 						"/>
					</g>
				</g>
			</g>
			<g>
				<g>
					<path style="fill:#FFC955;" d="M176.08,220.02c0.75,0.91,0.58,2.32-0.33,3.06c-0.91,0.75-2.32,0.58-3.06-0.33
						c-0.75-0.91-0.58-2.32,0.33-3.06C173.93,218.94,175.34,219.03,176.08,220.02z"/>
				</g>
			</g>
			<g>
				<g>
					<path style="fill:#E3F2FF;" d="M176,223.33c-1.08,0.91-2.73,0.75-3.64-0.33c-0.91-1.08-0.75-2.73,0.33-3.64
						s2.73-0.75,3.64,0.33C177.24,220.85,177.07,222.42,176,223.33z M173.27,220.02c-0.75,0.58-0.83,1.74-0.25,2.48
						c0.58,0.75,1.74,0.83,2.48,0.25s0.83-1.74,0.25-2.48C175.17,219.52,174.01,219.36,173.27,220.02z"/>
				</g>
			</g>
			<g>
				<g>
					<path style="fill:#FFC955;" d="M181.3,199.65c0.75,0.91,0.58,2.32-0.33,3.06c-0.91,0.75-2.32,0.58-3.06-0.33
						s-0.58-2.32,0.33-3.06C179.23,198.58,180.55,198.74,181.3,199.65z"/>
				</g>
			</g>
			<g>
				<g>
					<path style="fill:#E3F2FF;" d="M181.21,203.05c-1.08,0.91-2.73,0.75-3.64-0.33c-0.91-1.08-0.75-2.73,0.33-3.64
						c1.08-0.91,2.73-0.75,3.64,0.33C182.54,200.48,182.37,202.14,181.21,203.05z M178.48,199.65c-0.75,0.58-0.83,1.74-0.25,2.48
						s1.74,0.83,2.48,0.25c0.75-0.58,0.83-1.74,0.25-2.48S179.31,199.07,178.48,199.65z"/>
				</g>
			</g>
			<g>
				<g>
					<path style="fill:#FFC955;" d="M192.23,194.6c0.75,0.91,0.58,2.32-0.33,3.06c-0.91,0.75-2.32,0.58-3.06-0.33
						c-0.75-0.91-0.58-2.32,0.33-3.06C190.07,193.61,191.48,193.69,192.23,194.6z"/>
				</g>
			</g>
			<g>
				<g>
					<path style="fill:#E3F2FF;" d="M192.14,198c-1.08,0.91-2.73,0.75-3.64-0.33c-0.91-1.08-0.75-2.73,0.33-3.64
						c1.08-0.91,2.73-0.75,3.64,0.33C193.38,195.43,193.3,197.09,192.14,198z M189.41,194.6c-0.75,0.58-0.83,1.74-0.25,2.48
						c0.58,0.75,1.74,0.83,2.48,0.25c0.75-0.58,0.83-1.74,0.25-2.48C191.32,194.11,190.16,194.02,189.41,194.6z"/>
				</g>
			</g>
			<g>
				<g>
					<path style="fill:#FFC955;" d="M161.76,223.99c0.75,0.91,0.58,2.32-0.33,3.06c-0.91,0.75-2.32,0.58-3.06-0.33
						s-0.58-2.32,0.33-3.06C159.6,222.92,161.01,223.08,161.76,223.99z"/>
				</g>
			</g>
			<g>
				<g>
					<path style="fill:#E3F2FF;" d="M161.67,227.31c-1.08,0.91-2.73,0.75-3.64-0.33c-0.91-1.08-0.75-2.73,0.33-3.64
						c1.08-0.91,2.73-0.75,3.64,0.33C163,224.82,162.83,226.4,161.67,227.31z M158.94,223.99c-0.75,0.58-0.83,1.74-0.25,2.48
						s1.74,0.83,2.48,0.25s0.83-1.74,0.25-2.48C160.85,223.5,159.69,223.41,158.94,223.99z"/>
				</g>
			</g>
			<g>
				<g>
					<g>
						<g>
							<path style="fill:#EBEBEB;" d="M167.14,203.71h-18.46c-0.83,0-1.57-0.66-1.57-1.57v-1.41c0-0.83,0.66-1.57,1.57-1.57h18.46
								c0.83,0,1.57,0.66,1.57,1.57v1.41C168.71,203.05,168.05,203.71,167.14,203.71z"/>
						</g>
					</g>
				</g>
			</g>
			<g>
				<g>
					<g>
						<g>
							<path style="fill:#EBEBEB;" d="M167.14,195.93h-18.46c-0.83,0-1.57-0.66-1.57-1.57v-1.41c0-0.83,0.66-1.57,1.57-1.57h18.46
								c0.83,0,1.57,0.66,1.57,1.57v1.41C168.71,195.26,168.05,195.93,167.14,195.93z"/>
						</g>
					</g>
				</g>
			</g>
		</g>
		<g>
			<g>
				<path style="fill:#16202E;" d="M131.62,207.35c0,0-0.66,6.21,0.5,7.7c0,0-2.98-0.66-3.73-1.74
					C127.65,212.24,131.62,207.35,131.62,207.35z"/>
			</g>
			<g>
				<g>
					<path style="fill:#EEA886;" d="M150.5,227.06c0,0,1.08-0.75,1.24-0.83c0.17-0.08,0.75-0.08,1.41,0
						c0.66,0.08,1.49,0.5,1.49,0.58c0.08,0.08,0.17,0.17,0.08,0.5c-0.08,0.25-0.25,0.5-0.25,0.5s0.08,0.41-0.17,0.66
						c0,0,0.08,0.33-0.25,0.58c0,0,0.08,0.33-0.17,0.5c0,0-0.58,0-0.75,0c-0.25,0.08-1.41-0.08-2.48-0.33
						C150.75,229.13,149.5,228.88,150.5,227.06z"/>
				</g>
			</g>
			<g>
				<g>
					<path style="fill:#CF8C6C;" d="M152.32,227.55c0,0-0.33,0.58-0.5,0.66c-0.17,0.08,0.83,1.24,0.83,1.24
						S153.06,227.97,152.32,227.55z"/>
				</g>
			</g>
			<g>
				<g>
					<path style="fill:#EEA886;" d="M149.83,227.14c0,0,0.66-0.08,1.08-0.25c0.41-0.17-0.08,2.15-0.08,2.15s-0.99-0.75-1.74-0.75
						C148.51,228.3,149.83,227.14,149.83,227.14z"/>
				</g>
			</g>
			<g>
				<g>
					<path style="fill:#162D40;" d="M121.27,289.57c0,0,2.15,3.15,2.9,3.81c0,0,1.49,0.75,1.57,1.41c0.08,1.16,0.17,1.9-1.82,1.9
						c-1.99,0.08-3.23,0-3.56-1.24c-0.33-1.16-0.99-2.15-0.99-2.15l-0.17,3.15h-0.41c0,0-0.17-3.15-0.25-3.56
						c0-0.41-0.33-2.15,0.58-2.9C120.11,289.24,121.27,289.57,121.27,289.57z"/>
				</g>
			</g>
			<g>
				<g>
					<path style="fill:#162D40;" d="M124.5,293.54c0,0-1.08,0.33-2.32,0c-1.24-0.33-2.48-3.39-2.9-3.64l-0.33-1.24h2.48
						c0,0,0,0.91,0.41,1.66C122.26,291.14,124.5,293.54,124.5,293.54z"/>
				</g>
			</g>
			<g>
				<g>
					<path style="fill:#162D40;" d="M135.26,288.41c0,0,0.33,0.75,0.91,1.57c0.41,0.58,1.82,2.98,2.48,3.15
						c0.58,0.17,2.48,0.5,2.65,1.57c0.17,1.08,0.25,1.82-1.66,1.9c-1.9,0.08-3.06,0.17-3.97-1.08c-0.91-1.32-2.32-2.24-2.32-2.24
						v3.39h-0.75c0,0-0.33-3.56-0.5-3.81s-0.66-2.98,0.99-4.39C134.93,286.92,135.26,288.41,135.26,288.41z"/>
				</g>
			</g>
			<g>
				<g>
					<path style="fill:#162D40;" d="M138.66,293.05c0,0-1.66,0.41-2.32,0c-0.66-0.41-2.82-4.14-3.56-4.31c0,0,0.66-1.41,2.48-0.41
						C135.26,288.41,138.16,292.47,138.66,293.05z"/>
				</g>
			</g>
			<g>
				<g>
					<path style="fill:#1D3B54;" d="M120.36,237.24c0,0-2.32,3.06-2.98,6.71c-0.66,3.64,0.41,15.81,0.33,17.64
						c0,1.82-1.57,7.37-1.24,10.76c0.33,3.39,2.07,17.47,2.07,17.47l4.06-0.08c0,0-0.83-15.23-0.58-16.64
						c0.25-1.41,0.91-7.45,0.99-8.03c0.08-0.58,4.64-16.06,4.64-18.71C127.65,243.78,125.99,232.94,120.36,237.24z"/>
				</g>
			</g>
			<g>
				<g>
					<path style="fill:#1D3B54;" d="M132.2,238.4c0,0,3.89,14.74,4.31,16.81c0.5,2.07,1.41,4.72,1.32,5.13s-0.5,6.71-0.5,6.71
						l-1.08,21.44h-4.06c0,0-1.32-13.66-1.49-16.39c-0.25-2.73,1.49-7.04,1.08-8.2s-6.71-14.65-6.71-14.65S120.28,234.1,132.2,238.4
						z"/>
				</g>
			</g>
			<g>
				<g>
					<path style="fill:#EDDAD3;" d="M130.96,216.29c0,0,1.57,0.17,2.73,1.41s2.24,3.23,2.57,3.89c0.33,0.66,4.64,6.87,4.8,7.04
						c0.25,0.17,2.07-0.33,3.64-0.5c2.48-0.17,6.13-1.49,6.13-1.49l0.58,2.73c0,0-9.02,2.9-11.09,2.4
						c-2.57-0.66-8.45-8.11-8.45-8.11S127.48,218.61,130.96,216.29z"/>
				</g>
			</g>
			<g>
				<g>
					<path style="fill:#EDDAD3;" d="M128.31,215.22c0,0,1.99,0.91,2.73,1.08c0.66,0.17,3.39,3.64,3.89,4.97
						c0.5,1.24,0,3.23-0.99,5.46c-0.99,2.24-0.08,2.98-0.5,5.3c-0.41,2.24-0.41,8.45-0.33,9.69c0.08,1.24-12.92,3.64-15.48,1.32
						c0,0,1.74-5.8,3.81-7.95c0.41-0.5,0.41-3.56,0.08-4.39c-0.33-0.75-3.73-6.62-3.73-6.62s-0.25-5.88,1.24-7.04
						c1.32-0.99,4.88-1.41,5.55-1.57C125.08,215.14,126.98,215.05,128.31,215.22z"/>
				</g>
			</g>
			<g>
				<g>
					<path style="fill:#D1C0BA;" d="M128.89,219.69l1.24-1.41l-1.08-3.73C129.05,214.47,128.72,216.63,128.89,219.69z"/>
				</g>
			</g>
			<g>
				<g>
					<path style="fill:#EEA886;" d="M121.27,216.29c0,0-2.57-0.75-3.97,2.07c-1.41,2.82-1.08,4.31-1.41,5.55
						c-0.33,1.24-1.66,9.6-1.74,10.02c-0.08,0.33-1.32,4.64-1.16,5.96s1.32,11.26,1.32,11.59c-0.08,0.33,2.32-0.33,2.32-0.33
						s-0.08-10.1,0-10.93c0.08-0.83,0.17-5.22,0.83-6.38c0.66-1.16,2.15-8.03,2.48-8.69C120.19,224.33,123.42,217.21,121.27,216.29z
						"/>
				</g>
			</g>
			<g>
				<g>
					<path style="fill:#EEA886;" d="M129.22,212.9c0,0-0.41,3.64-0.33,4.88c0,0-2.07,2.07-4.47-2.4c0,0,0.99-1.9,0.25-4.39
						C123.92,208.43,129.22,212.9,129.22,212.9z"/>
				</g>
			</g>
			<g>
				<g>
					<polygon style="fill:#EEA886;" points="128.89,217.78 128.89,219.69 126.65,217.7 					"/>
				</g>
			</g>
			<g>
				<g>
					<polygon style="fill:#D1C0BA;" points="128.89,219.69 127.89,218.45 124.58,215.14 123.34,215.71 					"/>
				</g>
			</g>
			<g>
				<g>
					<polygon style="fill:#FAE6DE;" points="130.13,218.28 131.7,218.7 129.05,214.47 					"/>
				</g>
			</g>
			<g>
				<g>
					<polygon style="fill:#FAE6DE;" points="127.89,218.45 126.49,220.68 123.26,215.63 124.67,214.89 					"/>
				</g>
			</g>
			<g>
				<path style="fill:#D1C0BA;" d="M135.1,227.55c0,0,0.5-3.31,0-5.38c0,0-0.33,1.66-0.99,4.22L135.1,227.55z"/>
			</g>
			<g>
				<path style="fill:#D1C0BA;" d="M119.45,227.06c0,0,1.41-4.55,1.49-4.8c0,0-0.08,4.22-0.66,6.29
					C120.36,228.55,119.78,227.64,119.45,227.06z"/>
			</g>
			<g>
				<polygon style="fill:#54281A;" points="171.11,204.12 149.34,231.61 150.08,232.19 				"/>
			</g>
			<g>
				<g>
					<path style="fill:#DB9C7C;" d="M154.47,226.73c0,0-1.66-0.17-1.66,0.08c-0.08,0.25,0.08,0.41,0.08,0.41l-0.66,0.25
						c0,0-0.41,0.41,0.17,0.75c0,0-0.41,0.33,0.17,0.58c0,0-0.17,0.33,0.08,0.5c0.25,0.17,1.32,0.17,1.32,0.17s0.25-0.08,0.17-0.5
						c0,0,0.33-0.25,0.25-0.58c0,0,0.25-0.25,0.17-0.66c0,0,0.5-0.5,0.08-0.99C154.64,226.73,154.55,226.73,154.47,226.73z"/>
				</g>
			</g>
			<g>
				<g>
					<path style="fill:#EEA886;" d="M151.82,226.23c0,0,0.91,0.58,1.32,1.16c0.08,0.17,0.17,0.25,0.08,0.41
						c-0.08,0.17-0.41,0.17-0.83-0.08c-0.41-0.25-1.08-0.33-1.08-0.33S150.91,226.97,151.82,226.23z"/>
				</g>
			</g>
			<g>
				<path style="fill:#EEA886;" d="M127.56,200.4c0,0,3.73-0.08,4.39,4.31c0.66,4.39-0.91,8.2-1.49,8.86
					c-0.58,0.58-4.31,0.17-5.22-2.15c-0.91-2.24-2.15-3.89-1.99-5.88C123.51,203.54,123.01,200.32,127.56,200.4z"/>
			</g>
			<g>
				<path style="fill:#16202E;" d="M132.03,206.28c0,0,0.99-5.46-3.89-6.46c-4.88-0.99-6.62,2.4-7.12,4.39
					c-0.5,1.99,0.08,7.62,0.08,7.62s3.23,2.9,5.22,3.64c0,0-1.66-5.96-0.99-10.27c0,0,3.97,0.66,6.62,0
					C131.95,205.2,132.03,206.11,132.03,206.28z"/>
			</g>
			<g>
				<path style="fill:#A77860;" d="M129.14,213.73c0,0-1.24,0-3.06-1.16c0,0,1.24,1.57,2.9,2.07
					C129.05,214.72,129.14,213.89,129.14,213.73z"/>
			</g>
			<g>
				
					<rect x="108.37" y="242.95" transform="matrix(0.9869 -0.1612 0.1612 0.9869 -38.513 21.8776)" style="fill:#366E9C;" width="14.41" height="10.68"/>
			</g>
			<g>
				<g>
					<g>
						<g>
							<g>
								<g>
									<path style="fill:#EEA886;" d="M113.74,254.55c0,0-0.25-0.33-0.25-0.58c0,0,0-0.41,0-0.66c0-0.08,0-0.17,0-0.17
										c-0.08-0.17-0.17-0.58-0.17-1.16c0-0.5,0.75-2.65,0.75-2.65l1.24,0.08l1.16-0.17c0,0,1.41,2.73,1.49,3.23
										c0,0.08,0,0.08,0,0.17c0,0.41-0.17,0.66-0.25,0.91c0,0.08-0.17,0.83-0.41,0.91c-0.25,0.17-0.58,0.17-0.75,0
										c0,0-0.58,0.25-0.99,0.17c0,0-0.5,0.25-0.99,0C114.56,254.63,113.98,254.79,113.74,254.55z"/>
								</g>
							</g>
						</g>
					</g>
				</g>
			</g>
			<g>
				<g>
					<path style="fill:#EDDAD3;" d="M121.27,216.29c0,0-2.57-0.75-3.97,2.07c-1.41,2.82-1.41,3.97-1.66,5.3
						c-0.17,1.32-1.99,8.94-2.07,9.27c-0.08,0.33-0.66,5.13-0.75,6.87c0,1.32,0.25,9.94,0.25,10.27c-0.08,0.33,3.97-0.58,3.97-0.58
						s-0.41-7.95-0.33-8.78c0.08-0.83,0.25-4.97,0.66-6.21c0.5-1.41,2.4-8.69,2.73-9.36C120.53,224.41,123.42,217.21,121.27,216.29z
						"/>
				</g>
			</g>
		</g>
		<g>
			<g>
				<g>
					<path style="fill:#5C544D;" d="M251.92,291.31l0.25-2.48c0,0-3.48,0-3.89,0.25c0,0,0.33,2.07,0.33,2.4
						C248.69,291.8,251.92,291.31,251.92,291.31z"/>
				</g>
			</g>
			<g>
				<g>
					<path style="fill:#3C4145;" d="M246.04,296.44c4.14,0,6.13,0.25,6.54-0.41s-0.66-4.88-0.66-4.88s-0.99,0.33-3.31,0.17
						c0,0-0.99,1.24-1.99,1.74c-0.99,0.58-2.57,0.75-3.15,1.32C243.06,294.7,241.9,296.44,246.04,296.44z"/>
				</g>
			</g>
			<g>
				<g>
					<path style="fill:#5C544D;" d="M228.74,291.31l0.25-2.48c0,0-3.48,0-3.89,0.25c0,0,0.33,2.07,0.33,2.4
						C225.51,291.8,228.74,291.31,228.74,291.31z"/>
				</g>
			</g>
			<g>
				<g>
					<path style="fill:#3C4145;" d="M222.94,296.44c4.14-0.08,6.13,0.25,6.54-0.41c0.41-0.66-0.66-4.88-0.66-4.88
						s-0.91,0.41-3.31,0.17c0,0-0.99,1.24-1.99,1.74c-0.99,0.58-4.64,0.99-5.22,1.57C217.81,294.95,217.15,296.61,222.94,296.44z"/>
				</g>
			</g>
			<g>
				<g>
					<path style="fill:#DBD8E3;" d="M247.2,236c0,0,1.74,5.13,1.49,9.52c-0.25,4.39,0.91,9.19,1.32,13.83
						c0.5,5.13,2.57,17.22,2.65,19.95c0.08,2.73-0.33,11.51-0.33,11.51l-4.14,0.08c0,0-3.48-21.2-4.39-23.35
						c-0.91-2.15-5.38-17.55-5.55-19.29C238.09,246.51,247.2,236,247.2,236z"/>
				</g>
			</g>
			<g>
				<g>
					<path style="fill:#DBD8E3;" d="M229.65,236.91c0,0-2.32,12.09-2.57,14.74c-0.33,2.73-0.5,13-0.66,14.74
						c-0.17,1.66-0.99,22.02-1.82,24.51h5.3c0,0,4.06-14.82,4.06-21.78c0-6.95,3.15-15.23,5.22-19.79
						c2.07-4.64,6.71-4.72,7.95-13.25C247.2,236,231.39,234.18,229.65,236.91z"/>
				</g>
			</g>
			<g>
				<g>
					<path style="fill:#EEA886;" d="M240.5,195.76c0,0-4.22-1.57-6.13,1.66s-1.74,9.6,0.33,10.35c2.15,0.75,5.3,0.41,6.38-1.66
						c1.08-1.99,2.07-4.88,1.99-6.79C243.06,197.33,241.57,196.26,240.5,195.76z"/>
				</g>
			</g>
			<g>
				<g>
					<path style="fill:#EEA886;" d="M235.44,207.52c0,0,0.17,1.08-0.08,1.66c-0.25,0.58,5.3,0.58,5.3,0.58s0.41-2.98,1.32-5.46
						C242.73,201.81,235.44,207.52,235.44,207.52z"/>
				</g>
			</g>
			<g>
				<g>
					<path style="fill:#FCCCA2;" d="M241.9,204.29c0,0-0.41,0.66-1.99,0.41c-1.57-0.25-3.48-2.32-4.14-2.57
						c-0.66-0.25-0.66-0.58-0.66-0.58l-0.41,0.58l-0.66,0.08c0,0,0.66-1.82-0.33-2.65c-0.99-0.75,0.99-6.04,6.04-4.31
						c0,0,3.56,0.75,3.81,2.9C243.81,200.48,242.73,203.21,241.9,204.29z"/>
				</g>
			</g>
			<g>
				<g>
					<path style="fill:#E2D2CA;" d="M234.95,209.09c0,0,0-0.99,0.5-1.16c0.5-0.08,5.22-0.58,5.71-0.33v1.24
						C241.24,208.84,240.08,209.51,234.95,209.09z"/>
				</g>
			</g>
			<g>
				<g>
					<path style="fill:#EEA886;" d="M235.28,200.73c0.08-0.33,0.99-1.41,1.41-0.33c0.33,1.16-0.58,2.65-1.08,2.48
						C235.11,202.8,235.03,201.64,235.28,200.73z"/>
				</g>
			</g>
			<g>
				<g>
					<path style="fill:#63A4FF;" d="M234.95,209.09c0,0-2.57,0.91-5.55,2.24c0,0-3.48,1.32-3.81,5.05
						c-0.17,1.99-2.32,12.75-2.73,13.58c-0.41,0.91-5.13,15.48-5.3,15.73c-0.17,0.33,3.89,1.99,4.14,1.82
						c0.25-0.17,4.64-13.25,5.05-14.24c0,0,2.48-7.87,2.57-9.02c0,0,0.08,3.31,0.17,4.31c0.17,0.91-2.24,19.13-2.15,19.71
						c0.08,0.5,10.68,1.16,14.99,0.66c4.22-0.5,7.7-1.41,7.7-1.41s-3.31-14.41-3.23-15.98c0.25-3.48,1.41-10.02,1.41-10.02
						l3.48,6.54l-4.47,11.43l0.99,3.48c0,0,8.28-12.5,8.53-13.58c0.25-1.16-0.41-2.57-0.83-3.56c-0.41-0.91-3.31-8.11-3.97-9.11
						c-0.66-0.99-1.82-5.05-4.55-6.13c-2.32-0.91-6.13-1.74-6.13-1.74L234.95,209.09z"/>
				</g>
			</g>
			<g>
				<g>
					
						<rect x="214.32" y="233.04" transform="matrix(0.2484 -0.9687 0.9687 0.2484 -69.1357 397.0974)" style="fill:#F25F54;" width="13.99" height="20.12"/>
				</g>
			</g>
			<g>
				<g>
					<path style="fill:#C98462;" d="M215.82,248.75c0,0-0.58,0.91-0.75,1.16c-0.17,0.25,0.5,0.41,0.83,0.17
						C216.15,249.74,215.82,248.75,215.82,248.75z"/>
				</g>
			</g>
			<g>
				<g>
					<path style="fill:#DE9D7D;" d="M219.88,251.81c0,0,0.33-0.33,0.41-0.58c0,0,0.08-0.41,0.17-0.66c0-0.08,0.08-0.17,0.08-0.25
						c0.08-0.17,0.33-0.66,0.41-1.16c0.08-0.58,0.33-3.06,0.33-3.06l-1.49-0.41l-1.24-0.25c0,0-2.65,2.65-2.73,3.15
						c0,0.08,0,0.08,0,0.17c-0.08,0.41,0.08,0.83,0,1.08c0,0.08,0,0.91,0.25,1.08c0.25,0.25,0.58,0.25,0.83,0.17
						c0,0,0.58,0.41,1.08,0.41c0,0,0.5,0.41,1.08,0.17C218.97,251.65,219.55,251.98,219.88,251.81z"/>
				</g>
			</g>
			<g>
				<g>
					<path style="fill:#63A4FF;" d="M225.76,236.08c0,0-3.48,10.43-4.06,11.59c0,0-2.57-0.5-4.14-1.82l3.81-11.26L225.76,236.08z"/>
				</g>
			</g>
		</g>
		<g>
			<path style="fill:#C2BEBC;" d="M63.47,202.55c0,0,0.62-2.49,2.09-6.48l-1.32-0.31c-1.47,4.05-2.09,6.55-2.17,6.55L63.47,202.55z
				 M68.12,189.71c0.93-2.06,1.94-4.18,2.94-6.23l-1.32-0.44c-1.08,2.06-2.01,4.18-2.94,6.3L68.12,189.71z M74.39,177.3
				c1.16-2.06,2.4-4.05,3.64-5.99l-1.24-0.5c-1.24,2-2.56,3.99-3.72,6.05L74.39,177.3z M82.06,165.46c1.39-1.93,2.87-3.87,4.42-5.67
				l-1.16-0.62c-1.55,1.87-3.02,3.8-4.42,5.74L82.06,165.46z M165.5,113.4l-0.77-0.94c-2.17,1.25-4.57,2.43-7.05,3.49l0.62,1
				C160.86,115.89,163.26,114.71,165.5,113.4z M172.01,109.03c1.94-1.56,3.87-3.24,5.66-5.05l-1.08-0.69
				c-1.7,1.75-3.56,3.43-5.5,4.93L172.01,109.03z M150.63,119.7l-0.46-1.06c-0.85,0.25-1.78,0.5-2.71,0.75
				c-1.7,0.44-3.49,1-5.19,1.5l0.46,1.06c1.7-0.5,3.41-1,5.11-1.5C148.85,120.19,149.78,119.94,150.63,119.7z M91.2,154.3
				c1.63-1.81,3.41-3.55,5.19-5.24l-1.08-0.75c-1.78,1.68-3.56,3.49-5.19,5.3L91.2,154.3z M182.39,98.44
				c1.39-1.81,2.71-3.74,4.11-5.86l-1.24-0.5c-1.39,2.12-2.71,4.05-4.03,5.8L182.39,98.44z M135.21,124.56l-0.62-1
				c-2.48,0.94-5.04,2-7.44,3.12l0.7,1C130.25,126.55,132.73,125.49,135.21,124.56z M101.9,144.13c1.94-1.62,3.95-3.18,5.97-4.68
				l-0.93-0.81c-2.01,1.5-4.03,3.05-5.97,4.74L101.9,144.13z M296.52,25.37l-0.08-1.12c-2.87,0.12-5.66,0.37-8.29,0.56l0.15,1.12
				C290.86,25.74,293.65,25.56,296.52,25.37z M120.8,131.17l-0.77-0.94c-2.32,1.25-4.57,2.62-6.74,3.99l0.85,0.87
				C116.31,133.78,118.55,132.41,120.8,131.17z M190.14,86.53c1.08-1.93,2.17-3.93,3.41-6.11l-1.24-0.44
				c-1.16,2.18-2.25,4.18-3.41,6.11L190.14,86.53z M279.94,26.74l-0.15-1.12c-2.79,0.31-5.58,0.69-8.29,1.06l0.23,1.12
				C274.36,27.43,277.15,27.05,279.94,26.74z M196.96,74.25c1.32-2.24,2.48-4.24,3.56-6.05l-1.24-0.5c-1.08,1.81-2.32,3.8-3.56,6.11
				L196.96,74.25z M263.67,29.17l-0.31-1.06c-2.79,0.56-5.5,1.12-8.06,1.75l0.39,1.06C258.17,30.29,260.88,29.67,263.67,29.17z
				 M204.4,62.34c1.47-2,2.94-3.87,4.42-5.61l-1.16-0.62c-1.55,1.81-3.02,3.68-4.49,5.67L204.4,62.34z M247.79,33.04l-0.46-1.06
				c-2.63,0.81-5.27,1.68-7.75,2.62l0.62,1C242.6,34.72,245.15,33.85,247.79,33.04z M213.93,51.49c1.78-1.68,3.72-3.3,5.73-4.8
				l-0.93-0.81c-2.01,1.5-3.95,3.18-5.81,4.86L213.93,51.49z M232.83,38.77l-0.7-0.94c-2.4,1.18-4.8,2.43-6.97,3.74l0.85,0.87
				C228.18,41.14,230.51,39.96,232.83,38.77z"/>
		</g>
		<g>
			<g>
				<g>
					<g>
						<polygon style="fill:#D6D6D6;" points="334.72,25.56 299.7,29.36 307.75,23.81 						"/>
					</g>
				</g>
			</g>
			<g>
				<g>
					<g>
						<polygon style="fill:#E8E8E8;" points="334.72,25.56 317.98,20.32 311.47,24 						"/>
					</g>
				</g>
			</g>
			<g>
				<g>
					<g>
						<polygon style="fill:#C2C2C2;" points="307.75,28.49 309.61,31.29 334.72,25.56 						"/>
					</g>
				</g>
			</g>
		</g>
	</g>
</g>
</svg>
