<svg width="1440" height="552" viewBox="0 0 1440 552" fill="none" xmlns="http://www.w3.org/2000/svg">
<g clip-path="url(#clip0_820_11865)">
<path opacity="0.7" d="M537.93 193.092C537.93 193.092 510.049 265.082 549.229 337.592C588.399 410.112 669.11 448.392 733.7 481.142C798.29 513.892 865.359 497.942 897.229 444.302C929.099 390.661 885.38 352.372 885.33 275.882C885.28 199.392 896.78 179.142 855.37 114.522C813.96 49.9015 712.309 35.5915 635.469 83.5215C558.629 131.452 537.93 193.092 537.93 193.092Z" fill="white"/>
<path d="M1652.12 558.003C1647.09 499.573 1654.65 415.643 1611.35 350.203C1566.8 282.863 1475.43 218.513 1382.04 165.283C1268.95 100.833 1135.05 68.5126 1028.12 66.9126C902.551 65.0326 853.951 113.373 757.331 142.493C591.051 192.613 305.951 108.073 115.231 135.063C-5.20906 152.123 -79.3091 216.923 -93.5391 299.393V581.003H1652.12V558.003Z" fill="#9FCFFF"/>
<path d="M430.801 518.881H197.121C191.601 518.881 187.121 514.401 187.121 508.881V200.531C187.121 195.011 191.601 190.531 197.121 190.531H430.801C436.321 190.531 440.801 195.011 440.801 200.531V508.881C440.801 514.411 436.321 518.881 430.801 518.881Z" stroke="#263238" stroke-width="1.0229" stroke-miterlimit="10" stroke-linecap="round" stroke-linejoin="round"/>
<path d="M293.629 280.773V281.793H292.609" stroke="#263238" stroke-width="1.0229" stroke-linecap="round" stroke-linejoin="round"/>
<path d="M290.588 281.797H231.098" stroke="#263238" stroke-width="1.0229" stroke-linecap="round" stroke-linejoin="round" stroke-dasharray="2.02 2.02"/>
<path d="M230.089 281.793H229.059V280.773" stroke="#263238" stroke-width="1.0229" stroke-linecap="round" stroke-linejoin="round"/>
<path d="M229.059 278.803V232.523" stroke="#263238" stroke-width="1.0229" stroke-linecap="round" stroke-linejoin="round" stroke-dasharray="1.97 1.97"/>
<path d="M229.059 231.543V230.523H230.089" stroke="#263238" stroke-width="1.0229" stroke-linecap="round" stroke-linejoin="round"/>
<path d="M232.098 230.523H291.598" stroke="#263238" stroke-width="1.0229" stroke-linecap="round" stroke-linejoin="round" stroke-dasharray="2.02 2.02"/>
<path d="M292.609 230.523H293.629V231.543" stroke="#263238" stroke-width="1.0229" stroke-linecap="round" stroke-linejoin="round"/>
<path d="M293.629 233.516V279.786" stroke="#263238" stroke-width="1.0229" stroke-linecap="round" stroke-linejoin="round" stroke-dasharray="1.97 1.97"/>
<path d="M283.321 238.703H239.371V273.603H283.321V238.703Z" fill="white" stroke="#263238" stroke-width="1.0229" stroke-miterlimit="10" stroke-linecap="round" stroke-linejoin="round"/>
<path d="M236.791 236.124L221.711 224.484" stroke="#263238" stroke-width="1.0229" stroke-miterlimit="10" stroke-linecap="round" stroke-linejoin="round"/>
<path d="M286.34 275.336L299.26 286.536" stroke="#263238" stroke-width="1.0229" stroke-miterlimit="10" stroke-linecap="round" stroke-linejoin="round"/>
<path d="M221.11 228.325L220.66 223.375H225.84" stroke="#263238" stroke-width="1.0229" stroke-miterlimit="10" stroke-linecap="round" stroke-linejoin="round"/>
<path d="M299.619 281.852L300.509 287.252L294.219 287.472" stroke="#263238" stroke-width="1.0229" stroke-miterlimit="10" stroke-linecap="round" stroke-linejoin="round"/>
<path d="M337.75 413.391H316.41V421.091H337.75V413.391Z" fill="#263238"/>
<path d="M346.418 417.244L332.738 409.344V425.144L346.418 417.244Z" fill="#263238"/>
<path d="M301.02 483.121H251.93C248.1 483.121 245 480.021 245 476.191V367.211C245 363.381 248.1 360.281 251.93 360.281H301.02C304.85 360.281 307.95 363.381 307.95 367.211V476.191C307.95 480.011 304.85 483.121 301.02 483.121Z" fill="#263238" stroke="#263238" stroke-width="0.8292" stroke-miterlimit="10" stroke-linecap="round" stroke-linejoin="round"/>
<path d="M305.159 368.625H247.809V475.825H305.159V368.625Z" fill="white" stroke="#263238" stroke-width="0.8292" stroke-miterlimit="10" stroke-linecap="round" stroke-linejoin="round"/>
<path d="M294.521 500.044L298.911 483.024C299.381 481.184 299.621 479.304 299.621 477.404V456.994C299.701 456.734 299.751 456.464 299.751 456.184C299.751 454.404 298.121 452.954 296.111 452.954C295.061 452.954 294.121 453.354 293.451 453.994C293.291 452.344 291.751 451.034 289.841 451.034C288.541 451.034 287.421 451.634 286.771 452.544C286.581 450.914 285.051 449.644 283.171 449.644C281.871 449.644 280.741 450.244 280.101 451.154C280.101 448.454 280.051 435.504 279.651 434.444C278.331 431.034 271.681 432.584 272.841 436.214V455.594C272.841 455.594 272.841 465.834 272.841 466.164C272.841 464.064 271.281 461.294 270.631 459.254C270.021 457.344 269.591 455.264 268.391 453.554C266.331 450.624 262.701 452.234 262.911 455.304C263.091 457.994 265.031 460.114 266.081 462.544C268.021 467.054 266.861 471.754 268.691 476.274C269.211 477.544 272.631 483.064 273.751 484.574C274.891 486.104 276.101 490.114 276.101 490.114L274.401 500.054" fill="white"/>
<path d="M294.521 500.044L298.911 483.024C299.381 481.184 299.621 479.304 299.621 477.404V456.994C299.701 456.734 299.751 456.464 299.751 456.184C299.751 454.404 298.121 452.954 296.111 452.954C295.061 452.954 294.121 453.354 293.451 453.994C293.291 452.344 291.751 451.034 289.841 451.034C288.541 451.034 287.421 451.634 286.771 452.544C286.581 450.914 285.051 449.644 283.171 449.644C281.871 449.644 280.741 450.244 280.101 451.154C280.101 448.454 280.051 435.504 279.651 434.444C278.331 431.034 271.681 432.584 272.841 436.214V455.594C272.841 455.594 272.841 465.834 272.841 466.164C272.841 464.064 271.281 461.294 270.631 459.254C270.021 457.344 269.591 455.264 268.391 453.554C266.331 450.624 262.701 452.234 262.911 455.304C263.091 457.994 265.031 460.114 266.081 462.544C268.021 467.054 266.861 471.754 268.691 476.274C269.211 477.544 272.631 483.064 273.751 484.574C274.891 486.104 276.101 490.114 276.101 490.114L274.401 500.054" stroke="#263238" stroke-width="1.0229" stroke-miterlimit="10" stroke-linecap="round" stroke-linejoin="round"/>
<path d="M276.531 424.133V429.733" stroke="#263238" stroke-width="1.0229" stroke-miterlimit="10" stroke-linecap="round" stroke-linejoin="round"/>
<path d="M282.832 434.984H287.382" stroke="#263238" stroke-width="1.0229" stroke-miterlimit="10" stroke-linecap="round" stroke-linejoin="round"/>
<path d="M263.941 434.984H268.491" stroke="#263238" stroke-width="1.0229" stroke-miterlimit="10" stroke-linecap="round" stroke-linejoin="round"/>
<path d="M270.242 429.031L271.992 431.831" stroke="#263238" stroke-width="1.0229" stroke-miterlimit="10" stroke-linecap="round" stroke-linejoin="round"/>
<path d="M280.73 432.181L283.18 429.031" stroke="#263238" stroke-width="1.0229" stroke-miterlimit="10" stroke-linecap="round" stroke-linejoin="round"/>
<path d="M303.119 410.141H249.949V416.791H303.119V410.141Z" stroke="#263238" stroke-width="1.0229" stroke-miterlimit="10" stroke-linecap="round" stroke-linejoin="round"/>
<path d="M277.239 374.461H251.699V404.891H277.239V374.461Z" stroke="#263238" stroke-width="1.0229" stroke-miterlimit="10" stroke-linecap="round" stroke-linejoin="round"/>
<path d="M251.699 374.461L277.229 404.891" stroke="#263238" stroke-width="1.0229" stroke-miterlimit="10" stroke-linecap="round" stroke-linejoin="round"/>
<path d="M251 463.659V420.289H302.77V463.309" stroke="#263238" stroke-width="1.0229" stroke-miterlimit="10" stroke-linecap="round" stroke-linejoin="round"/>
<path d="M406.879 483.121H357.789C353.959 483.121 350.859 480.021 350.859 476.191V367.211C350.859 363.381 353.959 360.281 357.789 360.281H406.879C410.709 360.281 413.809 363.381 413.809 367.211V476.191C413.809 480.011 410.709 483.121 406.879 483.121Z" fill="#263238" stroke="#263238" stroke-width="0.8292" stroke-miterlimit="10" stroke-linecap="round" stroke-linejoin="round"/>
<path d="M411.01 368.625H353.66V475.825H411.01V368.625Z" fill="white" stroke="#263238" stroke-width="0.8292" stroke-miterlimit="10" stroke-linecap="round" stroke-linejoin="round"/>
<path d="M408.411 373.758H356.641V430.428H408.411V373.758Z" stroke="#263238" stroke-width="1.0229" stroke-miterlimit="10" stroke-linecap="round" stroke-linejoin="round"/>
<path d="M356.641 435.68H408.411" stroke="#263238" stroke-width="1.0229" stroke-miterlimit="10" stroke-linecap="round" stroke-linejoin="round"/>
<path d="M356.641 439.883H408.411" stroke="#263238" stroke-width="1.0229" stroke-miterlimit="10" stroke-linecap="round" stroke-linejoin="round"/>
<path d="M356.641 444.07H408.411" stroke="#263238" stroke-width="1.0229" stroke-miterlimit="10" stroke-linecap="round" stroke-linejoin="round"/>
<path d="M356.641 448.273H408.411" stroke="#263238" stroke-width="1.0229" stroke-miterlimit="10" stroke-linecap="round" stroke-linejoin="round"/>
<path d="M356.641 452.469H408.411" stroke="#263238" stroke-width="1.0229" stroke-miterlimit="10" stroke-linecap="round" stroke-linejoin="round"/>
<path d="M356.641 456.672H408.411" stroke="#263238" stroke-width="1.0229" stroke-miterlimit="10" stroke-linecap="round" stroke-linejoin="round"/>
<path d="M356.641 460.859H408.411" stroke="#263238" stroke-width="1.0229" stroke-miterlimit="10" stroke-linecap="round" stroke-linejoin="round"/>
<path d="M356.641 430.428L408.411 373.758" stroke="#263238" stroke-width="1.0229" stroke-miterlimit="10" stroke-linecap="round" stroke-linejoin="round"/>
<path d="M406.879 342.113H357.789C353.959 342.113 350.859 339.013 350.859 335.183V226.203C350.859 222.373 353.959 219.273 357.789 219.273H406.879C410.709 219.273 413.809 222.373 413.809 226.203V335.183C413.809 339.013 410.709 342.113 406.879 342.113Z" fill="#263238" stroke="#263238" stroke-width="0.8292" stroke-miterlimit="10" stroke-linecap="round" stroke-linejoin="round"/>
<path d="M411.01 227.625H353.66V334.825H411.01V227.625Z" fill="white" stroke="#263238" stroke-width="0.8292" stroke-miterlimit="10" stroke-linecap="round" stroke-linejoin="round"/>
<path d="M287.449 356.623V323.953H333.409" stroke="#263238" stroke-width="1.0229" stroke-linecap="round" stroke-linejoin="round"/>
<path d="M331.918 329.052L340.748 323.952L331.918 318.852V329.052Z" fill="#263238"/>
<path d="M381.172 355.765V330.695" stroke="#263238" stroke-width="1.0229" stroke-linecap="round" stroke-linejoin="round"/>
<path d="M386.27 332.182L381.17 323.352L376.07 332.182H386.27Z" fill="#263238"/>
<path d="M357.473 494.305H380.663" stroke="#263238" stroke-width="1.0229" stroke-miterlimit="10" stroke-linecap="round" stroke-linejoin="round"/>
<path d="M357.473 499.523H380.663" stroke="#263238" stroke-width="1.0229" stroke-miterlimit="10" stroke-linecap="round" stroke-linejoin="round"/>
<path d="M357.473 504.742H380.663" stroke="#263238" stroke-width="1.0229" stroke-miterlimit="10" stroke-linecap="round" stroke-linejoin="round"/>
<path d="M301.242 494.305H324.432" stroke="#263238" stroke-width="1.0229" stroke-miterlimit="10" stroke-linecap="round" stroke-linejoin="round"/>
<path d="M301.242 499.523H324.432" stroke="#263238" stroke-width="1.0229" stroke-miterlimit="10" stroke-linecap="round" stroke-linejoin="round"/>
<path d="M301.242 504.742H324.432" stroke="#263238" stroke-width="1.0229" stroke-miterlimit="10" stroke-linecap="round" stroke-linejoin="round"/>
<path d="M294.859 334.305H318.049" stroke="#263238" stroke-width="1.0229" stroke-miterlimit="10" stroke-linecap="round" stroke-linejoin="round"/>
<path d="M294.859 339.523H318.049" stroke="#263238" stroke-width="1.0229" stroke-miterlimit="10" stroke-linecap="round" stroke-linejoin="round"/>
<path d="M294.859 344.742H318.049" stroke="#263238" stroke-width="1.0229" stroke-miterlimit="10" stroke-linecap="round" stroke-linejoin="round"/>
<path d="M312.25 271.109H335.44" stroke="#263238" stroke-width="1.0229" stroke-miterlimit="10" stroke-linecap="round" stroke-linejoin="round"/>
<path d="M312.25 276.328H335.44" stroke="#263238" stroke-width="1.0229" stroke-miterlimit="10" stroke-linecap="round" stroke-linejoin="round"/>
<path d="M312.25 281.547H335.44" stroke="#263238" stroke-width="1.0229" stroke-miterlimit="10" stroke-linecap="round" stroke-linejoin="round"/>
<path d="M228.77 289.094H251.96" stroke="#263238" stroke-width="1.0229" stroke-miterlimit="10" stroke-linecap="round" stroke-linejoin="round"/>
<path d="M228.77 294.305H251.96" stroke="#263238" stroke-width="1.0229" stroke-miterlimit="10" stroke-linecap="round" stroke-linejoin="round"/>
<path d="M228.77 299.523H251.96" stroke="#263238" stroke-width="1.0229" stroke-miterlimit="10" stroke-linecap="round" stroke-linejoin="round"/>
<path d="M60.0274 371.551C60.0274 371.551 60.0274 367.221 53.9674 361.161C47.9074 355.101 44.0174 351.641 44.0174 351.641C44.0174 351.641 40.9874 361.591 46.6174 367.651C52.2474 373.711 60.0274 379.331 60.0274 379.331V371.551Z" fill="#C6FF00"/>
<path d="M51.2383 398.574C51.2383 398.574 51.2383 394.244 45.1783 388.184C39.1183 382.124 35.2283 378.664 35.2283 378.664C35.2283 378.664 32.1983 388.614 37.8283 394.674C43.4583 400.734 51.2383 406.354 51.2383 406.354V398.574Z" fill="#C6FF00"/>
<path d="M59.6481 378.923C59.6481 378.923 60.1081 374.623 66.7681 369.233C73.4281 363.853 77.6681 360.812 77.6681 360.812C77.6681 360.812 79.6281 371.032 73.3981 376.462C67.1681 381.892 58.8281 386.663 58.8281 386.663L59.6481 378.923Z" fill="#C6FF00"/>
<path d="M49.0284 410.829C49.0284 410.829 49.9384 406.599 57.1284 401.939C64.3184 397.289 68.8584 394.719 68.8584 394.719C68.8584 394.719 69.7384 405.089 62.9684 409.829C56.1984 414.569 47.3984 418.439 47.3984 418.439L49.0284 410.829Z" fill="#C6FF00"/>
<path d="M51.0273 445.629C51.0273 445.629 51.0273 441.299 57.0873 435.239C63.1473 429.179 67.0373 425.719 67.0373 425.719C67.0373 425.719 70.0673 435.669 64.4373 441.729C58.8073 447.789 51.0273 453.409 51.0273 453.409V445.629Z" fill="#C6FF00"/>
<path d="M50.9281 454.128C50.9281 454.128 51.5381 449.848 46.4081 442.988C41.2681 436.128 37.9081 432.148 37.9081 432.148C37.9081 432.148 33.4981 441.568 38.1981 448.368C42.9081 455.168 49.8181 461.838 49.8181 461.838L50.9281 454.128Z" fill="#C6FF00"/>
<path d="M44.9492 479.301C44.9492 479.301 44.9492 474.971 51.0092 468.911C57.0692 462.851 60.9592 459.391 60.9592 459.391C60.9592 459.391 63.9892 469.341 58.3592 475.401C52.7292 481.461 44.9492 487.081 44.9492 487.081V479.301Z" fill="#C6FF00"/>
<path d="M48.9999 502.122C48.9999 502.122 47.8999 497.933 52.2299 490.543C56.5599 483.143 59.4499 478.812 59.4499 478.812C59.4499 478.812 64.8999 487.672 60.9899 494.962C57.0799 502.252 50.9699 509.663 50.9699 509.663L48.9999 502.122Z" fill="#C6FF00"/>
<path d="M60.5785 370.438C60.2285 375.068 59.6985 379.848 58.9185 383.878C56.5285 396.248 50.5385 404.238 48.1385 415.408C45.7485 426.588 52.6185 440.977 50.7785 455.337C48.9385 469.687 43.3485 477.678 44.9485 487.258C46.5485 496.838 54.9285 522.778 54.9285 522.778" stroke="#263238" stroke-width="1.0348" stroke-miterlimit="10" stroke-linecap="round" stroke-linejoin="round"/>
<path d="M59.5898 381.791L66.1198 376.781" stroke="#263238" stroke-width="1.0348" stroke-miterlimit="10" stroke-linecap="round" stroke-linejoin="round"/>
<path d="M59.9002 376.022L57.1602 371.172" stroke="#263238" stroke-width="1.0348" stroke-miterlimit="10" stroke-linecap="round" stroke-linejoin="round"/>
<path d="M48.5078 414.888C48.5078 414.888 53.9778 410.787 59.5878 406.688" stroke="#263238" stroke-width="1.0348" stroke-miterlimit="10" stroke-linecap="round" stroke-linejoin="round"/>
<path d="M51.2395 406.358C51.2395 406.358 46.6895 397.428 41.5195 391.508" stroke="#263238" stroke-width="1.0348" stroke-miterlimit="10" stroke-linecap="round" stroke-linejoin="round"/>
<path d="M51.2383 451.788C51.2383 451.788 55.4883 443.438 62.9283 436.148" stroke="#263238" stroke-width="1.0348" stroke-miterlimit="10" stroke-linecap="round" stroke-linejoin="round"/>
<path d="M50.1772 457.862C50.1772 457.862 47.4472 451.332 44.2572 446.622C41.0672 441.912 40.6172 441.312 40.6172 441.312" stroke="#263238" stroke-width="1.0348" stroke-miterlimit="10" stroke-linecap="round" stroke-linejoin="round"/>
<path d="M44.9492 487.253C44.9492 487.253 47.1392 481.703 49.8692 477.303C52.5992 472.903 56.2492 468.953 56.2492 468.953" stroke="#263238" stroke-width="1.0348" stroke-miterlimit="10" stroke-linecap="round" stroke-linejoin="round"/>
<path d="M50.9695 509.663C50.9695 509.663 50.3295 504.483 52.6095 500.083C54.8895 495.683 57.4695 489.913 58.5295 487.633" stroke="#263238" stroke-width="1.0348" stroke-miterlimit="10" stroke-linecap="round" stroke-linejoin="round"/>
<path d="M20.3609 429.361C20.3609 429.361 19.8909 426.651 23.0309 422.191C26.1709 417.731 28.2409 415.141 28.2409 415.141C28.2409 415.141 31.2209 421.051 28.3509 425.461C25.4809 429.871 21.2109 434.241 21.2109 434.241L20.3609 429.361Z" fill="#C6FF00"/>
<path d="M28.8101 445.353C28.8101 445.353 28.3401 442.643 31.4801 438.183C34.6201 433.723 36.6901 431.133 36.6901 431.133C36.6901 431.133 39.6701 437.043 36.8001 441.453C33.9301 445.863 29.6601 450.233 29.6601 450.233L28.8101 445.353Z" fill="#C6FF00"/>
<path d="M21.3992 433.937C21.3992 433.937 20.6492 431.287 15.8792 428.637C11.1192 425.987 8.12921 424.547 8.12921 424.547C8.12921 424.547 8.00921 431.167 12.5092 433.897C17.0092 436.627 22.7592 438.707 22.7592 438.707L21.3992 433.937Z" fill="#C6FF00"/>
<path d="M31.5277 452.802C31.5277 452.802 30.4977 450.252 25.4877 448.112C20.4677 445.972 17.3477 444.852 17.3477 444.852C17.3477 444.852 17.9277 451.452 22.6877 453.692C27.4477 455.932 33.3877 457.402 33.3877 457.402L31.5277 452.802Z" fill="#C6FF00"/>
<path d="M34.05 474.844C34.05 474.844 33.58 472.134 29.12 468.984C24.66 465.844 21.85 464.094 21.85 464.094C21.85 464.094 21.03 470.664 25.22 473.854C29.41 477.044 34.9 479.724 34.9 479.724L34.05 474.844Z" fill="#C6FF00"/>
<path d="M35.039 480.153C35.039 480.153 34.189 477.533 36.669 472.673C39.149 467.813 40.819 464.953 40.819 464.953C40.819 464.953 44.609 470.383 42.399 475.153C40.189 479.923 36.579 484.863 36.579 484.863L35.039 480.153Z" fill="#C6FF00"/>
<path d="M42.6403 502.039C42.6403 502.039 42.9503 499.299 47.2203 495.909C51.4903 492.519 54.2003 490.609 54.2003 490.609C54.2003 490.609 55.3903 497.119 51.4003 500.539C47.4003 503.959 42.0703 506.949 42.0703 506.949L42.6403 502.039Z" fill="#C6FF00"/>
<path d="M41.5188 495.287C41.5188 495.287 41.0488 492.577 36.5888 489.437C32.1288 486.297 29.3188 484.547 29.3188 484.547C29.3188 484.547 28.4988 491.117 32.6888 494.307C36.8788 497.497 42.3688 500.177 42.3688 500.177L41.5188 495.287Z" fill="#C6FF00"/>
<path d="M41.4587 510.043C41.4587 510.043 41.6887 507.303 38.1787 503.133C34.6587 498.963 32.3787 496.562 32.3787 496.562C32.3787 496.562 29.9187 502.713 33.1587 506.853C36.3987 510.993 41.0387 514.982 41.0387 514.982L41.4587 510.043Z" fill="#C6FF00"/>
<path d="M19.8984 428.719C20.6184 431.579 21.4684 434.529 22.3984 436.969C25.2384 444.469 29.8684 448.819 32.5784 455.569C35.2884 462.319 32.5484 472.089 35.2584 480.889C37.9684 489.689 42.3384 494.089 42.3784 500.269C42.4184 506.449 39.9784 523.629 39.9784 523.629" stroke="#263238" stroke-width="1.0348" stroke-miterlimit="10" stroke-linecap="round" stroke-linejoin="round"/>
<path d="M21.7494 435.737L17.1094 433.297" stroke="#263238" stroke-width="1.0348" stroke-miterlimit="10" stroke-linecap="round" stroke-linejoin="round"/>
<path d="M20.9297 432.152L22.1197 428.812" stroke="#263238" stroke-width="1.0348" stroke-miterlimit="10" stroke-linecap="round" stroke-linejoin="round"/>
<path d="M32.2892 455.292C32.2892 455.292 28.4192 453.312 24.4492 451.352" stroke="#263238" stroke-width="1.0348" stroke-miterlimit="10" stroke-linecap="round" stroke-linejoin="round"/>
<path d="M29.6602 450.229C29.6602 450.229 31.5502 444.139 34.1402 439.859" stroke="#263238" stroke-width="1.0348" stroke-miterlimit="10" stroke-linecap="round" stroke-linejoin="round"/>
<path d="M34.5886 478.72C34.5886 478.72 31.0186 473.94 25.5586 470.18" stroke="#263238" stroke-width="1.0348" stroke-miterlimit="10" stroke-linecap="round" stroke-linejoin="round"/>
<path d="M35.9102 482.412C35.9102 482.412 36.9102 478.022 38.4002 474.722C39.8902 471.422 40.1102 470.992 40.1102 470.992" stroke="#263238" stroke-width="1.0348" stroke-miterlimit="10" stroke-linecap="round" stroke-linejoin="round"/>
<path d="M42.168 504.961C42.168 504.961 45.238 501.191 47.158 499.781C49.068 498.371 50.398 496.961 50.398 496.961" stroke="#263238" stroke-width="1.0348" stroke-miterlimit="10" stroke-linecap="round" stroke-linejoin="round"/>
<path d="M42.3808 500.281C42.3808 500.281 40.4008 497.041 38.2108 494.571C36.0208 492.111 33.3008 490.031 33.3008 490.031" stroke="#263238" stroke-width="1.0348" stroke-miterlimit="10" stroke-linecap="round" stroke-linejoin="round"/>
<path d="M41.0402 514.982C41.0402 514.982 40.8802 511.662 38.9702 509.152C37.0602 506.642 34.8202 503.302 33.9102 501.992" stroke="#263238" stroke-width="1.0348" stroke-miterlimit="10" stroke-linecap="round" stroke-linejoin="round"/>
<path d="M64.1916 553.491H30.6416C28.9616 553.491 27.6016 552.131 27.6016 550.451V520.641H67.2316V550.451C67.2316 552.121 65.8716 553.491 64.1916 553.491Z" fill="#263238"/>
<path d="M66.89 525.809H27.6C25.89 525.809 24.5 524.419 24.5 522.709C24.5 520.999 25.89 519.609 27.6 519.609H66.89C68.6 519.609 69.99 520.999 69.99 522.709C69.99 524.419 68.6 525.809 66.89 525.809Z" fill="#263238"/>
<path d="M1415.28 370.793C1415.28 370.793 1415.28 366.463 1409.22 360.403C1403.16 354.343 1399.27 350.883 1399.27 350.883C1399.27 350.883 1396.24 360.833 1401.87 366.893C1407.5 372.953 1415.28 378.573 1415.28 378.573V370.793Z" fill="#C6FF00"/>
<path d="M1406.49 397.824C1406.49 397.824 1406.49 393.494 1400.43 387.434C1394.37 381.374 1390.48 377.914 1390.48 377.914C1390.48 377.914 1387.45 387.864 1393.08 393.924C1398.71 399.984 1406.49 405.604 1406.49 405.604V397.824Z" fill="#C6FF00"/>
<path d="M1414.9 378.165C1414.9 378.165 1415.36 373.865 1422.02 368.475C1428.68 363.095 1432.92 360.055 1432.92 360.055C1432.92 360.055 1434.88 370.275 1428.65 375.705C1422.42 381.135 1414.08 385.905 1414.08 385.905L1414.9 378.165Z" fill="#C6FF00"/>
<path d="M1404.28 410.087C1404.28 410.087 1405.19 405.857 1412.38 401.197C1419.57 396.547 1424.11 393.977 1424.11 393.977C1424.11 393.977 1424.99 404.347 1418.22 409.087C1411.45 413.827 1402.65 417.697 1402.65 417.697L1404.28 410.087Z" fill="#C6FF00"/>
<path d="M1406.27 444.887C1406.27 444.887 1406.27 440.557 1412.33 434.497C1418.39 428.437 1422.28 424.977 1422.28 424.977C1422.28 424.977 1425.31 434.927 1419.68 440.987C1414.05 447.047 1406.27 452.667 1406.27 452.667V444.887Z" fill="#C6FF00"/>
<path d="M1406.17 453.371C1406.17 453.371 1406.78 449.091 1401.65 442.231C1396.51 435.371 1393.15 431.391 1393.15 431.391C1393.15 431.391 1388.74 440.811 1393.44 447.611C1398.15 454.411 1405.06 461.081 1405.06 461.081L1406.17 453.371Z" fill="#C6FF00"/>
<path d="M1400.2 478.543C1400.2 478.543 1400.2 474.213 1406.26 468.153C1412.32 462.093 1416.21 458.633 1416.21 458.633C1416.21 458.633 1419.24 468.583 1413.61 474.643C1407.98 480.703 1400.2 486.323 1400.2 486.323V478.543Z" fill="#C6FF00"/>
<path d="M1404.24 501.372C1404.24 501.372 1403.14 497.183 1407.47 489.793C1411.8 482.393 1414.69 478.062 1414.69 478.062C1414.69 478.062 1420.14 486.922 1416.23 494.212C1412.32 501.502 1406.21 508.913 1406.21 508.913L1404.24 501.372Z" fill="#C6FF00"/>
<path d="M1415.83 369.68C1415.48 374.31 1414.95 379.09 1414.17 383.12C1411.78 395.49 1405.79 403.48 1403.39 414.65C1401 425.83 1407.87 440.22 1406.03 454.58C1404.19 468.93 1398.6 476.92 1400.2 486.5C1401.8 496.08 1410.18 522.02 1410.18 522.02" stroke="#263238" stroke-width="1.0348" stroke-miterlimit="10" stroke-linecap="round" stroke-linejoin="round"/>
<path d="M1414.84 381.041L1421.37 376.031" stroke="#263238" stroke-width="1.0348" stroke-miterlimit="10" stroke-linecap="round" stroke-linejoin="round"/>
<path d="M1415.14 375.274L1412.41 370.414" stroke="#263238" stroke-width="1.0348" stroke-miterlimit="10" stroke-linecap="round" stroke-linejoin="round"/>
<path d="M1403.75 414.145C1403.75 414.145 1409.22 410.045 1414.83 405.945" stroke="#263238" stroke-width="1.0348" stroke-miterlimit="10" stroke-linecap="round" stroke-linejoin="round"/>
<path d="M1406.49 405.616C1406.49 405.616 1401.94 396.686 1396.77 390.766" stroke="#263238" stroke-width="1.0348" stroke-miterlimit="10" stroke-linecap="round" stroke-linejoin="round"/>
<path d="M1406.49 451.031C1406.49 451.031 1410.74 442.681 1418.18 435.391" stroke="#263238" stroke-width="1.0348" stroke-miterlimit="10" stroke-linecap="round" stroke-linejoin="round"/>
<path d="M1405.42 457.112C1405.42 457.112 1402.69 450.582 1399.5 445.872C1396.31 441.162 1395.86 440.562 1395.86 440.562" stroke="#263238" stroke-width="1.0348" stroke-miterlimit="10" stroke-linecap="round" stroke-linejoin="round"/>
<path d="M1400.2 486.503C1400.2 486.503 1402.39 480.953 1405.12 476.553C1407.85 472.153 1411.5 468.203 1411.5 468.203" stroke="#263238" stroke-width="1.0348" stroke-miterlimit="10" stroke-linecap="round" stroke-linejoin="round"/>
<path d="M1406.22 508.905C1406.22 508.905 1405.58 503.725 1407.86 499.325C1410.14 494.925 1412.72 489.155 1413.78 486.875" stroke="#263238" stroke-width="1.0348" stroke-miterlimit="10" stroke-linecap="round" stroke-linejoin="round"/>
<path d="M1375.61 428.603C1375.61 428.603 1375.14 425.893 1378.28 421.433C1381.42 416.973 1383.49 414.383 1383.49 414.383C1383.49 414.383 1386.47 420.293 1383.6 424.703C1380.73 429.113 1376.46 433.483 1376.46 433.483L1375.61 428.603Z" fill="#C6FF00"/>
<path d="M1384.05 444.603C1384.05 444.603 1383.58 441.893 1386.72 437.433C1389.86 432.973 1391.93 430.383 1391.93 430.383C1391.93 430.383 1394.91 436.293 1392.04 440.703C1389.17 445.113 1384.9 449.483 1384.9 449.483L1384.05 444.603Z" fill="#C6FF00"/>
<path d="M1376.65 433.179C1376.65 433.179 1375.9 430.529 1371.13 427.879C1366.37 425.229 1363.38 423.789 1363.38 423.789C1363.38 423.789 1363.26 430.409 1367.76 433.139C1372.26 435.869 1378.01 437.949 1378.01 437.949L1376.65 433.179Z" fill="#C6FF00"/>
<path d="M1386.77 452.044C1386.77 452.044 1385.74 449.494 1380.73 447.354C1375.71 445.214 1372.59 444.094 1372.59 444.094C1372.59 444.094 1373.17 450.694 1377.93 452.934C1382.69 455.174 1388.63 456.644 1388.63 456.644L1386.77 452.044Z" fill="#C6FF00"/>
<path d="M1389.3 474.086C1389.3 474.086 1388.83 471.376 1384.37 468.226C1379.91 465.086 1377.1 463.336 1377.1 463.336C1377.1 463.336 1376.28 469.906 1380.47 473.096C1384.66 476.286 1390.15 478.966 1390.15 478.966L1389.3 474.086Z" fill="#C6FF00"/>
<path d="M1390.28 479.403C1390.28 479.403 1389.43 476.783 1391.91 471.923C1394.39 467.063 1396.06 464.203 1396.06 464.203C1396.06 464.203 1399.85 469.633 1397.64 474.403C1395.43 479.173 1391.82 484.113 1391.82 484.113L1390.28 479.403Z" fill="#C6FF00"/>
<path d="M1397.89 501.289C1397.89 501.289 1398.2 498.549 1402.47 495.159C1406.74 491.769 1409.45 489.859 1409.45 489.859C1409.45 489.859 1410.64 496.369 1406.65 499.789C1402.65 503.209 1397.32 506.199 1397.32 506.199L1397.89 501.289Z" fill="#C6FF00"/>
<path d="M1396.76 494.529C1396.76 494.529 1396.29 491.819 1391.83 488.679C1387.37 485.539 1384.56 483.789 1384.56 483.789C1384.56 483.789 1383.74 490.359 1387.93 493.549C1392.12 496.739 1397.61 499.419 1397.61 499.419L1396.76 494.529Z" fill="#C6FF00"/>
<path d="M1396.7 509.285C1396.7 509.285 1396.93 506.545 1393.42 502.375C1389.9 498.205 1387.62 495.805 1387.62 495.805C1387.62 495.805 1385.16 501.955 1388.4 506.095C1391.64 510.235 1396.28 514.225 1396.28 514.225L1396.7 509.285Z" fill="#C6FF00"/>
<path d="M1375.14 427.977C1375.86 430.837 1376.71 433.787 1377.64 436.227C1380.48 443.727 1385.11 448.077 1387.82 454.827C1390.53 461.577 1387.79 471.347 1390.5 480.147C1393.21 488.947 1397.58 493.347 1397.62 499.527C1397.66 505.707 1395.22 522.887 1395.22 522.887" stroke="#263238" stroke-width="1.0348" stroke-miterlimit="10" stroke-linecap="round" stroke-linejoin="round"/>
<path d="M1376.99 434.985L1372.36 432.555" stroke="#263238" stroke-width="1.0348" stroke-miterlimit="10" stroke-linecap="round" stroke-linejoin="round"/>
<path d="M1376.18 431.395L1377.36 428.055" stroke="#263238" stroke-width="1.0348" stroke-miterlimit="10" stroke-linecap="round" stroke-linejoin="round"/>
<path d="M1387.54 454.534C1387.54 454.534 1383.67 452.554 1379.7 450.594" stroke="#263238" stroke-width="1.0348" stroke-miterlimit="10" stroke-linecap="round" stroke-linejoin="round"/>
<path d="M1384.9 449.479C1384.9 449.479 1386.79 443.389 1389.38 439.109" stroke="#263238" stroke-width="1.0348" stroke-miterlimit="10" stroke-linecap="round" stroke-linejoin="round"/>
<path d="M1389.83 477.97C1389.83 477.97 1386.26 473.19 1380.8 469.43" stroke="#263238" stroke-width="1.0348" stroke-miterlimit="10" stroke-linecap="round" stroke-linejoin="round"/>
<path d="M1391.16 481.662C1391.16 481.662 1392.17 477.272 1393.65 473.972C1395.14 470.672 1395.36 470.242 1395.36 470.242" stroke="#263238" stroke-width="1.0348" stroke-miterlimit="10" stroke-linecap="round" stroke-linejoin="round"/>
<path d="M1397.41 504.211C1397.41 504.211 1400.48 500.441 1402.4 499.031C1404.31 497.621 1405.64 496.211 1405.64 496.211" stroke="#263238" stroke-width="1.0348" stroke-miterlimit="10" stroke-linecap="round" stroke-linejoin="round"/>
<path d="M1397.62 499.523C1397.62 499.523 1395.64 496.283 1393.45 493.813C1391.26 491.353 1388.54 489.273 1388.54 489.273" stroke="#263238" stroke-width="1.0348" stroke-miterlimit="10" stroke-linecap="round" stroke-linejoin="round"/>
<path d="M1396.28 514.224C1396.28 514.224 1396.12 510.904 1394.21 508.394C1392.3 505.884 1390.06 502.544 1389.15 501.234" stroke="#263238" stroke-width="1.0348" stroke-miterlimit="10" stroke-linecap="round" stroke-linejoin="round"/>
<path d="M1419.43 552.733H1385.88C1384.2 552.733 1382.84 551.373 1382.84 549.693V519.883H1422.47V549.693C1422.48 551.373 1421.11 552.733 1419.43 552.733Z" fill="#263238"/>
<path d="M1422.13 525.052H1382.84C1381.13 525.052 1379.74 523.662 1379.74 521.952C1379.74 520.242 1381.13 518.852 1382.84 518.852H1422.13C1423.84 518.852 1425.23 520.242 1425.23 521.952C1425.23 523.662 1423.84 525.052 1422.13 525.052Z" fill="#263238"/>
<path d="M134.762 533.297C134.762 533.297 132.612 541.567 132.612 543.667C132.612 545.757 132.092 547.157 136.632 548.027C141.172 548.897 144.142 548.377 144.842 546.277C145.542 544.187 146.062 533.707 146.062 533.707L135.062 531.617L134.762 533.297Z" fill="white" stroke="#263238" stroke-width="1.0348" stroke-miterlimit="10" stroke-linecap="round" stroke-linejoin="round"/>
<path d="M144.833 546.278C144.933 545.968 145.033 545.448 145.133 544.818C140.463 544.968 134.883 544.188 132.613 543.828C132.593 545.828 132.223 547.168 136.633 548.018C141.173 548.898 144.133 548.378 144.833 546.278Z" fill="white" stroke="#263238" stroke-width="1.0348" stroke-miterlimit="10" stroke-linecap="round" stroke-linejoin="round"/>
<path d="M240.85 534.055C240.85 534.055 244.34 535.275 249.4 536.845C254.46 538.415 264.76 540.165 265.81 540.335C266.86 540.505 266.86 542.605 265.98 543.475C265.11 544.345 260.57 546.965 255.16 548.365C249.75 549.765 231.42 550.985 229.85 549.935C228.53 549.055 228.98 540.505 229.5 538.585C230.03 536.675 240.85 534.055 240.85 534.055Z" fill="white" stroke="#263238" stroke-width="1.0348" stroke-miterlimit="10" stroke-linecap="round" stroke-linejoin="round"/>
<path d="M265.991 543.481C266.571 542.891 266.761 541.771 266.511 541.031C262.971 543.851 255.911 546.951 248.711 547.671C241.491 548.391 232.141 547.801 229.121 547.581C229.251 548.781 229.481 549.691 229.861 549.941C231.431 550.991 249.761 549.771 255.171 548.371C260.581 546.971 265.121 544.351 265.991 543.481Z" fill="white" stroke="#263238" stroke-width="1.0348" stroke-miterlimit="10" stroke-linecap="round" stroke-linejoin="round"/>
<path d="M156.402 381.859C156.402 381.859 153.362 400.109 155.722 410.249C155.722 410.249 151.332 450.479 150.652 468.389C150.652 468.389 141.192 499.829 139.832 509.629C138.482 519.429 134.762 533.289 134.762 533.289C134.762 533.289 136.792 534.639 141.522 535.659C146.252 536.669 146.932 532.959 146.932 532.959C146.932 532.959 172.962 473.129 174.992 464.339C177.022 455.549 183.782 424.109 183.782 424.109L211.842 475.489C211.842 475.489 213.192 493.069 217.252 503.209C221.312 513.349 229.082 541.409 229.082 541.409C229.082 541.409 234.152 541.749 238.212 540.399C242.272 539.049 242.272 537.019 242.272 537.019C242.272 537.019 236.192 514.369 236.192 506.939C236.192 499.499 233.822 474.149 232.132 467.049C230.442 459.949 218.952 422.769 217.262 418.709C215.572 414.649 211.852 401.809 211.852 401.809L209.482 381.869C209.472 381.859 180.402 389.969 156.402 381.859Z" fill="#263238" stroke="#263238" stroke-width="1.0348" stroke-miterlimit="10" stroke-linecap="round" stroke-linejoin="round"/>
<path d="M177.851 295.698C177.851 295.698 176.301 292.328 176.301 290.258C176.301 288.188 175.261 278.348 175.261 278.348C175.261 278.348 190.271 251.168 194.411 245.988C198.551 240.808 203.471 236.928 203.471 236.928C203.471 236.928 213.571 234.858 215.641 234.858C217.711 234.858 220.041 233.818 220.041 232.528C220.041 231.238 216.671 231.488 214.601 231.488C212.531 231.488 209.941 229.678 209.941 229.678C209.941 229.678 213.311 220.028 214.341 216.218C214.881 214.208 216.671 210.008 215.381 210.008C214.091 210.008 213.831 211.048 213.051 212.598C212.271 214.148 208.911 219.328 208.911 219.328L209.691 207.938C209.691 207.938 208.651 206.388 207.881 208.198C207.101 210.008 205.551 215.448 205.291 216.738C205.031 218.028 203.991 219.198 203.991 219.198L202.951 210.698C202.951 210.698 201.191 208.828 200.881 212.068C200.711 213.868 200.881 219.838 200.881 220.868C200.881 221.908 199.841 219.398 199.841 219.398C199.841 219.398 199.231 216.588 198.551 216.208C197.771 215.768 197.261 216.728 197.511 218.798C197.771 220.868 197.251 229.408 197.251 229.408C197.251 229.408 195.701 231.478 193.371 234.328C191.041 237.178 172.401 253.998 165.411 259.438C158.421 264.878 157.641 269.278 156.611 274.708C155.571 280.148 154.541 311.728 154.541 323.108C154.541 334.498 155.581 352.618 156.351 358.568C157.131 364.518 155.831 372.288 154.801 376.428C153.761 380.568 154.801 384.198 157.651 386.268C160.501 388.338 172.661 389.628 182.761 389.628C192.861 389.628 203.211 388.588 206.321 387.558C209.431 386.518 211.761 386.268 211.761 382.118C211.761 377.978 209.691 369.698 209.691 367.368C209.691 365.038 213.831 340.968 213.831 340.968C213.831 340.968 240.231 348.988 245.151 347.178C250.071 345.368 291.231 306.538 291.231 306.538C291.231 306.538 297.701 303.948 301.071 303.428C304.431 302.908 309.611 300.578 309.871 299.808C310.131 299.028 309.351 299.288 307.281 299.288C305.211 299.288 301.841 300.328 301.841 300.328C301.841 300.328 308.911 295.858 310.121 295.408C310.961 295.098 312.421 293.188 310.381 293.598C307.831 294.108 301.581 295.928 301.581 295.928L309.861 290.748C309.861 290.748 311.151 288.678 309.601 288.678C308.051 288.678 300.281 293.338 300.281 293.338L306.331 287.728C307.501 286.638 306.521 285.118 305.141 285.918C305.111 285.928 298.201 289.888 298.171 289.898C295.581 291.448 292.771 292.308 292.771 292.308L291.481 293.088C291.481 293.088 292.001 290.238 292.001 288.948C292.001 287.658 291.221 284.288 289.411 284.028C287.601 283.768 289.151 286.358 289.151 287.648C289.151 288.938 286.561 295.668 286.561 296.708C286.561 297.748 286.561 299.818 286.561 299.818C286.561 299.818 277.761 307.588 269.731 311.728C261.711 315.868 243.591 329.588 243.591 329.588C243.591 329.588 222.881 318.978 218.221 315.088C213.561 311.208 208.381 306.548 203.211 302.408C198.031 298.268 194.671 296.458 194.671 296.458L177.851 295.698Z" fill="white" stroke="#263238" stroke-width="1.0348" stroke-miterlimit="10" stroke-linecap="round" stroke-linejoin="round"/>
<path d="M264.352 314.937C255.562 320.557 243.602 329.617 243.602 329.617C243.602 329.617 222.892 319.007 218.232 315.117C213.572 311.237 208.392 306.577 203.222 302.437C198.042 298.297 194.682 296.487 194.682 296.487L177.852 295.707C177.852 295.707 176.302 292.347 176.302 290.267C176.302 288.187 175.262 278.357 175.262 278.357C175.262 278.357 183.012 264.327 188.912 254.507C188.752 254.347 188.602 254.187 188.442 254.027C185.552 251.137 181.542 249.577 178.032 248.727C173.152 253.057 168.302 257.227 165.422 259.467C158.432 264.907 157.652 269.307 156.622 274.737C155.582 280.177 154.552 311.757 154.552 323.137C154.552 334.527 155.592 352.647 156.362 358.597C157.142 364.547 155.842 372.317 154.812 376.457C153.772 380.597 154.812 384.227 157.662 386.297C160.512 388.367 172.672 389.657 182.772 389.657C192.872 389.657 203.222 388.617 206.332 387.587C209.442 386.547 211.772 386.297 211.772 382.147C211.772 378.007 209.702 369.727 209.702 367.397C209.702 365.067 213.842 340.997 213.842 340.997C213.842 340.997 240.242 349.017 245.162 347.207C247.792 346.237 260.762 334.707 272.272 324.167C269.912 320.127 266.912 317.067 264.352 314.937Z" fill="#453BAE" stroke="#263238" stroke-width="1.0348" stroke-miterlimit="10" stroke-linecap="round" stroke-linejoin="round"/>
<path d="M205.792 307.047C205.792 307.047 195.382 309.887 194.742 317.777" stroke="#263238" stroke-width="1.0348" stroke-miterlimit="10" stroke-linecap="round" stroke-linejoin="round"/>
<path d="M213.823 340.994C213.823 340.994 201.693 337.654 195.383 331.344" stroke="#263238" stroke-width="1.0348" stroke-miterlimit="10" stroke-linecap="round" stroke-linejoin="round"/>
<path d="M207.064 339.239C207.064 339.239 196.654 342.079 187.184 338.289" stroke="#263238" stroke-width="1.0348" stroke-miterlimit="10" stroke-linecap="round" stroke-linejoin="round"/>
<path d="M163.102 322.516C163.102 322.516 166.382 345.486 182.242 356.976" stroke="#263238" stroke-width="1.0348" stroke-miterlimit="10" stroke-linecap="round" stroke-linejoin="round"/>
<path d="M187.254 363.227C188.454 363.567 189.704 363.847 190.994 364.077" stroke="#263238" stroke-width="1.0348" stroke-miterlimit="10" stroke-linecap="round" stroke-linejoin="round"/>
<path d="M163.102 345.484C163.102 345.484 168.972 355.224 180.842 360.834" stroke="#263238" stroke-width="1.0348" stroke-miterlimit="10" stroke-linecap="round" stroke-linejoin="round"/>
<path d="M160.031 294.42C160.031 294.42 170.131 289.37 176.131 294.1" stroke="#263238" stroke-width="1.0348" stroke-miterlimit="10" stroke-linecap="round" stroke-linejoin="round"/>
<path d="M162.871 271.375C162.871 271.375 172.021 274.535 174.551 280.845" stroke="#263238" stroke-width="1.0348" stroke-miterlimit="10" stroke-linecap="round" stroke-linejoin="round"/>
<path d="M168.871 269.18C168.871 269.18 172.031 271.39 173.291 276.12" stroke="#263238" stroke-width="1.0348" stroke-miterlimit="10" stroke-linecap="round" stroke-linejoin="round"/>
<path d="M212.012 254.29C212.012 254.29 213.562 263.09 213.562 265.42C213.562 267.75 210.972 268.53 212.012 271.63C213.052 274.74 215.382 275 214.862 277.58C214.342 280.17 210.982 281.72 210.982 281.72C210.982 281.72 209.172 288.97 207.362 292.07C205.552 295.18 198.822 292.85 198.822 292.85L198.302 301.13C198.302 301.13 195.972 304.49 187.432 303.46C178.892 302.42 173.192 299.58 173.192 299.58L171.902 297.77C171.902 297.77 178.632 294.41 178.892 292.08C179.152 289.75 178.892 284.31 178.892 276.55C178.892 268.78 176.562 253.77 189.242 249.89C201.922 246 212.012 254.29 212.012 254.29Z" fill="white" stroke="#263238" stroke-width="1.0348" stroke-miterlimit="10" stroke-linecap="round" stroke-linejoin="round"/>
<path d="M196.204 275.539C196.204 275.539 193.284 268.839 190.014 272.669C187.894 275.159 190.534 282.509 191.824 283.539C193.114 284.579 195.964 284.059 195.964 284.059C195.964 284.059 191.824 288.199 187.424 288.199C183.024 288.199 179.144 284.059 176.294 276.809C173.444 269.559 171.374 257.139 174.484 249.629C177.594 242.119 193.634 241.859 197.264 241.859C200.884 241.859 206.324 243.929 206.324 243.929C206.324 243.929 217.974 242.889 218.234 246.779C218.494 250.659 216.684 250.919 216.684 250.919C216.684 250.919 224.964 255.319 221.084 257.129C217.204 258.939 211.244 257.909 207.364 257.909C203.484 257.909 202.184 260.759 202.184 260.759C202.184 260.759 205.804 263.089 204.514 264.129C203.224 265.169 198.564 267.239 198.044 269.049C197.524 270.859 199.854 273.709 198.304 274.999C196.744 276.289 196.204 275.539 196.204 275.539Z" fill="#263238" stroke="#263238" stroke-width="1.0348" stroke-miterlimit="10" stroke-linecap="round" stroke-linejoin="round"/>
<path d="M210.604 272.406C210.604 273.726 210.064 274.796 209.394 274.796C208.724 274.796 208.184 273.726 208.184 272.406C208.184 271.086 208.724 270.016 209.394 270.016C210.054 270.016 210.604 271.086 210.604 272.406Z" fill="#263238"/>
<path d="M206.363 269.359C206.363 269.359 208.033 265.449 210.683 267.549" stroke="#263238" stroke-width="1.0348" stroke-miterlimit="10" stroke-linecap="round" stroke-linejoin="round"/>
<path d="M183.782 424.11L181.412 419.72L169.582 416.68" stroke="white" stroke-width="1.0348" stroke-miterlimit="10" stroke-linecap="round" stroke-linejoin="round"/>
<path d="M57.5195 550.219H1382.48" stroke="#263238" stroke-width="5" stroke-miterlimit="10" stroke-linecap="round" stroke-linejoin="round"/>
<path d="M1221.58 235.952V220.252L1209.82 219.242C1209.12 216.762 1208.15 214.402 1206.91 212.192L1214.5 203.172L1203.4 192.072L1194.38 199.662C1192.18 198.422 1189.81 197.452 1187.33 196.752L1186.32 184.992H1170.62L1169.61 196.752C1167.13 197.452 1164.77 198.422 1162.56 199.662L1153.54 192.072L1142.44 203.172L1150.03 212.192C1148.8 214.392 1147.82 216.762 1147.12 219.242L1135.36 220.252V235.952L1147.12 236.962C1147.82 239.442 1148.79 241.802 1150.03 244.012L1142.44 253.032L1153.54 264.132L1162.56 256.542C1164.76 257.772 1167.13 258.752 1169.61 259.452L1170.62 271.212H1186.32L1187.33 259.452C1189.81 258.752 1192.17 257.782 1194.38 256.542L1203.4 264.132L1214.5 253.032L1206.91 244.012C1208.15 241.812 1209.12 239.442 1209.82 236.962L1221.58 235.952ZM1178.47 246.342C1168.4 246.342 1160.23 238.172 1160.23 228.102C1160.23 218.032 1168.4 209.862 1178.47 209.862C1188.54 209.862 1196.71 218.032 1196.71 228.102C1196.71 238.172 1188.54 246.342 1178.47 246.342Z" stroke="#263238" stroke-miterlimit="10" stroke-linecap="round" stroke-linejoin="round"/>
<path d="M943.848 223.412V215.152L937.658 214.622C937.288 213.312 936.778 212.072 936.128 210.912L940.128 206.162L934.288 200.322L929.538 204.322C928.378 203.672 927.138 203.162 925.828 202.792L925.298 196.602H917.038L916.508 202.792C915.198 203.162 913.958 203.672 912.798 204.322L908.048 200.322L902.208 206.162L906.208 210.912C905.558 212.072 905.048 213.312 904.678 214.622L898.488 215.152V223.412L904.678 223.942C905.048 225.252 905.558 226.492 906.208 227.652L902.208 232.402L908.048 238.242L912.798 234.242C913.958 234.892 915.198 235.402 916.508 235.772L917.038 241.962H925.298L925.828 235.772C927.138 235.402 928.378 234.892 929.538 234.242L934.288 238.242L940.128 232.402L936.128 227.652C936.778 226.492 937.288 225.252 937.658 223.942L943.848 223.412ZM921.158 228.882C915.858 228.882 911.558 224.582 911.558 219.282C911.558 213.982 915.858 209.682 921.158 209.682C926.458 209.682 930.758 213.982 930.758 219.282C930.758 224.582 926.458 228.882 921.158 228.882Z" stroke="#263238" stroke-miterlimit="10" stroke-linecap="round" stroke-linejoin="round"/>
<path d="M1033.9 483.857V475.597L1027.71 475.067C1027.34 473.757 1026.83 472.517 1026.18 471.357L1030.18 466.607L1024.34 460.767L1019.59 464.767C1018.43 464.117 1017.19 463.607 1015.88 463.237L1015.35 457.047H1007.09L1006.56 463.237C1005.25 463.607 1004.01 464.117 1002.85 464.767L998.099 460.767L992.259 466.607L996.259 471.357C995.609 472.517 995.099 473.757 994.729 475.067L988.539 475.597V483.857L994.729 484.387C995.099 485.697 995.609 486.937 996.259 488.097L992.259 492.847L998.099 498.687L1002.85 494.687C1004.01 495.337 1005.25 495.847 1006.56 496.217L1007.09 502.407H1015.35L1015.88 496.217C1017.19 495.847 1018.43 495.337 1019.59 494.687L1024.34 498.687L1030.18 492.847L1026.18 488.097C1026.83 486.937 1027.34 485.697 1027.71 484.387L1033.9 483.857ZM1011.21 489.327C1005.91 489.327 1001.61 485.027 1001.61 479.727C1001.61 474.427 1005.91 470.127 1011.21 470.127C1016.51 470.127 1020.81 474.427 1020.81 479.727C1020.81 485.037 1016.51 489.327 1011.21 489.327Z" stroke="#263238" stroke-miterlimit="10" stroke-linecap="round" stroke-linejoin="round"/>
<path d="M363.45 142.833V134.573L357.26 134.043C356.89 132.733 356.38 131.493 355.73 130.333L359.73 125.583L353.89 119.743L349.14 123.743C347.98 123.093 346.74 122.583 345.43 122.213L344.9 116.023H336.64L336.11 122.213C334.8 122.583 333.56 123.093 332.4 123.743L327.65 119.743L321.81 125.583L325.81 130.333C325.16 131.493 324.65 132.733 324.28 134.043L318.09 134.573V142.833L324.28 143.363C324.65 144.673 325.16 145.913 325.81 147.073L321.81 151.823L327.65 157.663L332.4 153.663C333.56 154.313 334.8 154.823 336.11 155.193L336.64 161.383H344.9L345.43 155.193C346.74 154.823 347.98 154.313 349.14 153.663L353.89 157.663L359.73 151.823L355.73 147.073C356.38 145.913 356.89 144.673 357.26 143.363L363.45 142.833ZM340.75 148.303C335.45 148.303 331.15 144.003 331.15 138.703C331.15 133.403 335.45 129.103 340.75 129.103C346.05 129.103 350.35 133.403 350.35 138.703C350.36 144.003 346.06 148.303 340.75 148.303Z" stroke="#263238" stroke-miterlimit="10" stroke-linecap="round" stroke-linejoin="round"/>
<path d="M643.27 152.443V144.183L637.08 143.653C636.71 142.343 636.2 141.103 635.55 139.943L639.55 135.193L633.71 129.353L628.96 133.353C627.8 132.703 626.56 132.193 625.25 131.823L624.72 125.633H616.46L615.93 131.823C614.62 132.193 613.38 132.703 612.22 133.353L607.47 129.353L601.63 135.193L605.63 139.943C604.98 141.103 604.47 142.343 604.1 143.653L597.91 144.183V152.443L604.1 152.973C604.47 154.283 604.98 155.523 605.63 156.683L601.63 161.433L607.47 167.273L612.22 163.273C613.38 163.923 614.62 164.433 615.93 164.803L616.46 170.993H624.72L625.25 164.803C626.56 164.433 627.8 163.923 628.96 163.273L633.71 167.273L639.55 161.433L635.55 156.683C636.2 155.523 636.71 154.283 637.08 152.973L643.27 152.443ZM620.57 157.913C615.27 157.913 610.97 153.613 610.97 148.313C610.97 143.013 615.27 138.713 620.57 138.713C625.87 138.713 630.17 143.013 630.17 148.313C630.18 153.613 625.88 157.913 620.57 157.913Z" stroke="#263238" stroke-miterlimit="10" stroke-linecap="round" stroke-linejoin="round"/>
<path d="M499.38 510.155V494.455L487.62 493.445C486.92 490.965 485.95 488.605 484.71 486.395L492.3 477.375L481.2 466.275L472.18 473.865C469.98 472.625 467.61 471.655 465.13 470.955L464.12 459.195H448.42L447.41 470.955C444.93 471.655 442.57 472.625 440.36 473.865L431.34 466.275L420.24 477.375L427.83 486.395C426.6 488.595 425.62 490.965 424.92 493.445L413.16 494.455V510.155L424.92 511.165C425.62 513.645 426.59 516.005 427.83 518.215L420.24 527.235L431.34 538.335L440.36 530.745C442.56 531.975 444.93 532.955 447.41 533.655L448.42 545.415H464.12L465.13 533.655C467.61 532.955 469.97 531.985 472.18 530.745L481.2 538.335L492.3 527.235L484.71 518.215C485.95 516.015 486.92 513.645 487.62 511.165L499.38 510.155ZM456.27 520.555C446.2 520.555 438.03 512.385 438.03 502.315C438.03 492.245 446.2 484.075 456.27 484.075C466.34 484.075 474.51 492.245 474.51 502.315C474.52 512.385 466.35 520.555 456.27 520.555Z" stroke="#263238" stroke-miterlimit="10" stroke-linecap="round" stroke-linejoin="round"/>
<path d="M1390.3 389.401V381.871L1384.66 381.381C1384.32 380.191 1383.86 379.061 1383.27 378.001L1386.91 373.671L1381.59 368.351L1377.26 371.991C1376.2 371.401 1375.07 370.931 1373.88 370.601L1373.39 364.961H1365.86L1365.37 370.601C1364.18 370.941 1363.05 371.401 1361.99 371.991L1357.66 368.351L1352.34 373.671L1355.98 378.001C1355.39 379.061 1354.92 380.191 1354.59 381.381L1348.95 381.871V389.401L1354.59 389.891C1354.93 391.081 1355.39 392.211 1355.98 393.271L1352.34 397.601L1357.66 402.921L1361.99 399.281C1363.05 399.871 1364.18 400.341 1365.37 400.671L1365.86 406.311H1373.39L1373.88 400.671C1375.07 400.331 1376.2 399.871 1377.26 399.281L1381.59 402.921L1386.91 397.601L1383.27 393.271C1383.86 392.211 1384.33 391.081 1384.66 389.891L1390.3 389.401ZM1369.63 394.391C1364.8 394.391 1360.88 390.471 1360.88 385.641C1360.88 380.811 1364.8 376.891 1369.63 376.891C1374.46 376.891 1378.38 380.811 1378.38 385.641C1378.38 390.471 1374.46 394.391 1369.63 394.391Z" stroke="#263238" stroke-miterlimit="10" stroke-linecap="round" stroke-linejoin="round"/>
<path d="M1384.64 252.361C1384.98 250.871 1385.17 249.331 1385.17 247.741C1385.17 236.401 1375.98 227.211 1364.64 227.211C1362.79 227.211 1360.99 227.461 1359.28 227.921C1355.9 221.941 1349.48 217.891 1342.12 217.891C1331.66 217.891 1323.1 226.051 1322.46 236.351C1321.49 236.171 1320.5 236.061 1319.48 236.061C1311.2 236.061 1304.39 242.311 1303.49 250.341C1298.63 250.451 1294.72 254.411 1294.72 259.301C1294.72 264.251 1298.73 268.271 1303.69 268.271H1378.98C1383.93 268.271 1387.95 264.261 1387.95 259.301C1387.94 256.501 1386.66 254.001 1384.64 252.361Z" stroke="#263238" stroke-miterlimit="10" stroke-linecap="round" stroke-linejoin="round"/>
<path d="M1343.25 261.391V282.141" stroke="#263238" stroke-miterlimit="10" stroke-linecap="round" stroke-linejoin="round"/>
<path d="M1343.25 248.938V257.237" stroke="#263238" stroke-miterlimit="10" stroke-linecap="round" stroke-linejoin="round"/>
<path d="M1343.25 241.188V245.628" stroke="#263238" stroke-miterlimit="10" stroke-linecap="round" stroke-linejoin="round"/>
<path d="M1339.33 279.711L1343.25 284.561L1347.16 279.711" stroke="#263238" stroke-miterlimit="10" stroke-linecap="round" stroke-linejoin="round"/>
<path d="M1155.25 495.712C1155.59 494.222 1155.78 492.682 1155.78 491.092C1155.78 479.752 1146.59 470.562 1135.25 470.562C1133.4 470.562 1131.6 470.812 1129.89 471.272C1126.51 465.292 1120.09 461.242 1112.73 461.242C1102.27 461.242 1093.71 469.402 1093.07 479.702C1092.1 479.522 1091.11 479.412 1090.09 479.412C1081.81 479.412 1075 485.662 1074.1 493.692C1069.24 493.802 1065.33 497.762 1065.33 502.652C1065.33 507.602 1069.34 511.622 1074.3 511.622H1149.59C1154.54 511.622 1158.56 507.612 1158.56 502.652C1158.55 499.852 1157.26 497.352 1155.25 495.712Z" stroke="#263238" stroke-miterlimit="10" stroke-linecap="round" stroke-linejoin="round"/>
<path d="M1113.85 507.709V486.969" stroke="#263238" stroke-miterlimit="10" stroke-linecap="round" stroke-linejoin="round"/>
<path d="M1113.85 520.159V511.859" stroke="#263238" stroke-miterlimit="10" stroke-linecap="round" stroke-linejoin="round"/>
<path d="M1113.85 527.917V523.477" stroke="#263238" stroke-miterlimit="10" stroke-linecap="round" stroke-linejoin="round"/>
<path d="M1117.77 489.389L1113.85 484.539L1109.93 489.389" stroke="#263238" stroke-miterlimit="10" stroke-linecap="round" stroke-linejoin="round"/>
<path d="M530.721 335.431C531.061 333.941 531.251 332.401 531.251 330.811C531.251 319.471 522.061 310.281 510.721 310.281C508.871 310.281 507.071 310.531 505.361 310.991C501.981 305.011 495.561 300.961 488.201 300.961C477.741 300.961 469.181 309.121 468.541 319.421C467.571 319.241 466.581 319.131 465.561 319.131C457.281 319.131 450.471 325.381 449.571 333.411C444.711 333.521 440.801 337.481 440.801 342.371C440.801 347.321 444.811 351.341 449.771 351.341H525.061C530.011 351.341 534.031 347.331 534.031 342.371C534.021 339.581 532.731 337.081 530.721 335.431Z" stroke="#263238" stroke-miterlimit="10" stroke-linecap="round" stroke-linejoin="round"/>
<path d="M489.324 347.438V326.688" stroke="#263238" stroke-miterlimit="10" stroke-linecap="round" stroke-linejoin="round"/>
<path d="M489.324 359.878V351.578" stroke="#263238" stroke-miterlimit="10" stroke-linecap="round" stroke-linejoin="round"/>
<path d="M489.324 367.635V363.195" stroke="#263238" stroke-miterlimit="10" stroke-linecap="round" stroke-linejoin="round"/>
<path d="M493.242 329.108L489.322 324.258L485.402 329.108" stroke="#263238" stroke-miterlimit="10" stroke-linecap="round" stroke-linejoin="round"/>
<path d="M1251.78 248.551H991.859V236.701C991.859 234.361 993.759 232.461 996.099 232.461H1247.55C1249.89 232.461 1251.79 234.361 1251.79 236.701V248.551H1251.78Z" fill="#407BFF" stroke="#263238" stroke-miterlimit="10" stroke-linecap="round" stroke-linejoin="round"/>
<path d="M1265.94 251.531H1003.23V436.401H1265.94V251.531Z" fill="white" stroke="#263238" stroke-miterlimit="10" stroke-linecap="round" stroke-linejoin="round"/>
<path d="M1269.96 240.497C1269.96 242.717 1268.16 244.517 1265.94 244.517C1263.72 244.517 1261.92 242.717 1261.92 240.497C1261.92 238.277 1263.72 236.477 1265.94 236.477C1268.16 236.477 1269.96 238.277 1269.96 240.497Z" fill="white" stroke="#263238" stroke-miterlimit="10" stroke-linecap="round" stroke-linejoin="round"/>
<path d="M1255.8 240.497C1255.8 242.717 1254 244.517 1251.78 244.517C1249.56 244.517 1247.76 242.717 1247.76 240.497C1247.76 238.277 1249.56 236.477 1251.78 236.477C1254 236.477 1255.8 238.277 1255.8 240.497Z" fill="white" stroke="#263238" stroke-miterlimit="10" stroke-linecap="round" stroke-linejoin="round"/>
<path d="M1241.64 240.497C1241.64 242.717 1239.84 244.517 1237.62 244.517C1235.4 244.517 1233.6 242.717 1233.6 240.497C1233.6 238.277 1235.4 236.477 1237.62 236.477C1239.84 236.477 1241.64 238.277 1241.64 240.497Z" fill="white" stroke="#263238" stroke-miterlimit="10" stroke-linecap="round" stroke-linejoin="round"/>
<path d="M1257.98 259.461H1247.58" stroke="#263238" stroke-width="2" stroke-miterlimit="10" stroke-linecap="round" stroke-linejoin="round"/>
<path d="M1257.98 263.68H1247.58" stroke="#263238" stroke-width="2" stroke-miterlimit="10" stroke-linecap="round" stroke-linejoin="round"/>
<path d="M1257.98 267.898H1247.58" stroke="#263238" stroke-width="2" stroke-miterlimit="10" stroke-linecap="round" stroke-linejoin="round"/>
<path d="M1021.43 368.539H1100.15" stroke="#263238" stroke-width="2" stroke-miterlimit="10" stroke-linecap="round" stroke-linejoin="round"/>
<path d="M1021.43 374.75H1100.15" stroke="#263238" stroke-width="2" stroke-miterlimit="10" stroke-linecap="round" stroke-linejoin="round"/>
<path d="M1021.43 381.07H1083.5" stroke="#263238" stroke-width="2" stroke-miterlimit="10" stroke-linecap="round" stroke-linejoin="round"/>
<path d="M1188.37 253.609V254.109" stroke="#263238" stroke-linecap="round" stroke-linejoin="round"/>
<path d="M1188.37 257.109V431.339" stroke="#263238" stroke-linecap="round" stroke-linejoin="round" stroke-dasharray="1 3"/>
<path d="M1188.37 432.828V433.328" stroke="#263238" stroke-linecap="round" stroke-linejoin="round"/>
<path d="M1006.39 394.938H1006.89" stroke="#263238" stroke-linecap="round" stroke-linejoin="round"/>
<path d="M1009.89 394.938H1259.92" stroke="#263238" stroke-linecap="round" stroke-linejoin="round" stroke-dasharray="1 2.99"/>
<path d="M1261.42 394.938H1261.92" stroke="#263238" stroke-linecap="round" stroke-linejoin="round"/>
<path d="M1190.1 393.211H1186.65V396.661H1190.1V393.211Z" fill="white" stroke="#263238" stroke-miterlimit="10" stroke-linecap="round" stroke-linejoin="round"/>
<path d="M1109.59 180.57H1060.29C1059.09 180.57 1058.11 181.54 1058.11 182.75V205.7C1058.11 206.9 1059.08 207.88 1060.29 207.88H1082.42L1084.95 216.92L1087.48 207.88H1109.61C1110.81 207.88 1111.79 206.91 1111.79 205.7V182.75C1111.76 181.55 1110.79 180.57 1109.59 180.57Z" fill="#407BFF" stroke="#263238" stroke-miterlimit="10" stroke-linecap="round" stroke-linejoin="round"/>
<path d="M1066.31 187.141H1103.56" stroke="#263238" stroke-width="2" stroke-miterlimit="10" stroke-linecap="round" stroke-linejoin="round"/>
<path d="M1066.31 191.859H1103.56" stroke="#263238" stroke-width="2" stroke-miterlimit="10" stroke-linecap="round" stroke-linejoin="round"/>
<path d="M1066.31 196.578H1103.56" stroke="#263238" stroke-width="2" stroke-miterlimit="10" stroke-linecap="round" stroke-linejoin="round"/>
<path d="M1066.31 201.297H1094.38" stroke="#263238" stroke-width="2" stroke-miterlimit="10" stroke-linecap="round" stroke-linejoin="round"/>
<path d="M169.781 205.203H120.481C119.281 205.203 118.301 206.173 118.301 207.383V230.333C118.301 231.533 119.271 232.513 120.481 232.513H142.611L145.141 241.553L147.671 232.513H169.801C171.001 232.513 171.981 231.543 171.981 230.333V207.383C171.961 206.173 170.991 205.203 169.781 205.203Z" fill="#407BFF" stroke="#263238" stroke-miterlimit="10" stroke-linecap="round" stroke-linejoin="round"/>
<path d="M126.512 211.773H163.762" stroke="#263238" stroke-width="2" stroke-miterlimit="10" stroke-linecap="round" stroke-linejoin="round"/>
<path d="M126.512 216.492H163.762" stroke="#263238" stroke-width="2" stroke-miterlimit="10" stroke-linecap="round" stroke-linejoin="round"/>
<path d="M126.512 221.211H163.762" stroke="#263238" stroke-width="2" stroke-miterlimit="10" stroke-linecap="round" stroke-linejoin="round"/>
<path d="M126.512 225.93H154.582" stroke="#263238" stroke-width="2" stroke-miterlimit="10" stroke-linecap="round" stroke-linejoin="round"/>
<path d="M1174.61 361.789H1128.54" stroke="#263238" stroke-miterlimit="10" stroke-linecap="round" stroke-linejoin="round"/>
<path d="M1175.49 383.087C1175.49 383.087 1175.49 361.688 1151.57 361.688C1127.65 361.688 1127.65 383.087 1127.65 383.087" stroke="#263238" stroke-miterlimit="10" stroke-linecap="round" stroke-linejoin="round"/>
<path d="M1175.49 385.11C1176.6 385.11 1177.51 384.206 1177.51 383.09C1177.51 381.975 1176.6 381.07 1175.49 381.07C1174.37 381.07 1173.47 381.975 1173.47 383.09C1173.47 384.206 1174.37 385.11 1175.49 385.11Z" fill="#407BFF" stroke="#263238" stroke-miterlimit="10" stroke-linecap="round" stroke-linejoin="round"/>
<path d="M1125.64 383.09C1125.64 381.98 1126.54 381.07 1127.66 381.07C1128.78 381.07 1129.68 381.97 1129.68 383.09C1129.68 384.2 1128.78 385.11 1127.66 385.11C1126.54 385.11 1125.64 384.21 1125.64 383.09Z" fill="#407BFF" stroke="#263238" stroke-miterlimit="10" stroke-linecap="round" stroke-linejoin="round"/>
<path d="M1173.72 363.461H1177.26V359.921H1173.72V363.461Z" fill="#407BFF" stroke="#263238" stroke-miterlimit="10" stroke-linecap="round" stroke-linejoin="round"/>
<path d="M1149.8 363.461H1153.34V359.921H1149.8V363.461Z" fill="#407BFF" stroke="#263238" stroke-miterlimit="10" stroke-linecap="round" stroke-linejoin="round"/>
<path d="M1125.89 363.461H1129.43V359.921H1125.89V363.461Z" fill="#407BFF" stroke="#263238" stroke-miterlimit="10" stroke-linecap="round" stroke-linejoin="round"/>
<path d="M1050.05 297.419V290.349L1044.75 289.889C1044.43 288.769 1044 287.709 1043.44 286.719L1046.86 282.659L1041.86 277.659L1037.8 281.079C1036.81 280.519 1035.74 280.089 1034.63 279.769L1034.17 274.469H1027.1L1026.64 279.769C1025.52 280.089 1024.46 280.519 1023.47 281.079L1019.41 277.659L1014.41 282.659L1017.83 286.719C1017.27 287.709 1016.84 288.779 1016.52 289.889L1011.22 290.349V297.419L1016.52 297.879C1016.84 298.999 1017.27 300.059 1017.83 301.049L1014.41 305.109L1019.41 310.109L1023.47 306.689C1024.46 307.249 1025.53 307.679 1026.64 307.999L1027.1 313.299H1034.17L1034.63 307.999C1035.75 307.679 1036.81 307.249 1037.8 306.689L1041.86 310.109L1046.86 305.109L1043.44 301.049C1044 300.059 1044.43 298.989 1044.75 297.879L1050.05 297.419ZM1030.63 302.109C1026.09 302.109 1022.41 298.429 1022.41 293.889C1022.41 289.349 1026.09 285.669 1030.63 285.669C1035.17 285.669 1038.85 289.349 1038.85 293.889C1038.85 298.429 1035.17 302.109 1030.63 302.109Z" fill="#407BFF" stroke="#263238" stroke-miterlimit="10" stroke-linecap="round" stroke-linejoin="round"/>
<path d="M1074.08 313.288V308.448L1070.45 308.138C1070.23 307.368 1069.93 306.648 1069.55 305.968L1071.89 303.188L1068.47 299.768L1065.69 302.108C1065.01 301.728 1064.28 301.428 1063.52 301.208L1063.21 297.578H1058.37L1058.06 301.208C1057.3 301.428 1056.57 301.728 1055.89 302.108L1053.11 299.768L1049.69 303.188L1052.03 305.968C1051.65 306.648 1051.35 307.378 1051.13 308.138L1047.5 308.448V313.288L1051.13 313.598C1051.35 314.368 1051.65 315.088 1052.03 315.768L1049.69 318.548L1053.11 321.968L1055.89 319.628C1056.57 320.008 1057.3 320.308 1058.06 320.528L1058.37 324.158H1063.21L1063.52 320.528C1064.29 320.308 1065.01 320.008 1065.69 319.628L1068.47 321.968L1071.89 318.548L1069.55 315.768C1069.93 315.088 1070.23 314.358 1070.45 313.598L1074.08 313.288ZM1060.79 316.488C1057.68 316.488 1055.16 313.968 1055.16 310.858C1055.16 307.748 1057.68 305.228 1060.79 305.228C1063.9 305.228 1066.42 307.748 1066.42 310.858C1066.41 313.968 1063.9 316.488 1060.79 316.488Z" fill="#407BFF" stroke="#263238" stroke-miterlimit="10" stroke-linecap="round" stroke-linejoin="round"/>
<path d="M1198.26 406.703H1236.98" stroke="#263238" stroke-width="2" stroke-miterlimit="10" stroke-linecap="round" stroke-linejoin="round"/>
<path d="M1198.26 412.914H1236.98" stroke="#263238" stroke-width="2" stroke-miterlimit="10" stroke-linecap="round" stroke-linejoin="round"/>
<path d="M1198.26 419.234H1220.33" stroke="#263238" stroke-width="2" stroke-miterlimit="10" stroke-linecap="round" stroke-linejoin="round"/>
<path d="M1147.23 421.813H1126.84C1124.07 421.813 1121.82 419.563 1121.82 416.793C1121.82 414.023 1124.07 411.773 1126.84 411.773H1147.23C1150 411.773 1152.25 414.023 1152.25 416.793C1152.24 419.563 1150 421.813 1147.23 421.813Z" fill="#407BFF" stroke="#263238" stroke-miterlimit="10" stroke-linecap="round" stroke-linejoin="round"/>
<path d="M1185.22 421.813H1164.83C1162.06 421.813 1159.81 419.563 1159.81 416.793C1159.81 414.023 1162.06 411.773 1164.83 411.773H1185.22C1187.99 411.773 1190.24 414.023 1190.24 416.793C1190.24 419.563 1187.99 421.813 1185.22 421.813Z" fill="#407BFF" stroke="#263238" stroke-miterlimit="10" stroke-linecap="round" stroke-linejoin="round"/>
<path d="M1244.33 314.523H1201.09V357.763H1244.33V314.523Z" fill="white" stroke="#263238" stroke-miterlimit="10" stroke-linecap="round" stroke-linejoin="round"/>
<path d="M1201.09 314.523L1244.33 357.773" stroke="#263238" stroke-miterlimit="10" stroke-linecap="round" stroke-linejoin="round"/>
<path d="M1244.33 314.523L1201.09 357.773" stroke="#263238" stroke-miterlimit="10" stroke-linecap="round" stroke-linejoin="round"/>
<path d="M1218.04 265.438V275.527L1213.59 279.978H1203.5V265.438H1218.04Z" fill="white" stroke="#263238" stroke-miterlimit="10" stroke-linecap="round" stroke-linejoin="round"/>
<path d="M1218.04 275.531L1213.59 279.981V275.531H1218.04Z" fill="white" stroke="#263238" stroke-miterlimit="10" stroke-linecap="round" stroke-linejoin="round"/>
<path d="M1063.41 343.469V353.559L1058.96 358.009H1048.87V343.469H1063.41Z" fill="white" stroke="#263238" stroke-miterlimit="10" stroke-linecap="round" stroke-linejoin="round"/>
<path d="M1063.41 353.562L1058.96 358.013V353.562H1063.41Z" fill="white" stroke="#263238" stroke-miterlimit="10" stroke-linecap="round" stroke-linejoin="round"/>
<path d="M1008.47 405.641V415.731L1004.02 420.181H993.93V405.641H1008.47Z" fill="white" stroke="#263238" stroke-miterlimit="10" stroke-linecap="round" stroke-linejoin="round"/>
<path d="M1008.47 415.734L1004.02 420.184V415.734H1008.47Z" fill="white" stroke="#263238" stroke-miterlimit="10" stroke-linecap="round" stroke-linejoin="round"/>
<path d="M1195.46 342.438C1190.53 342.858 1184.26 336.968 1184.26 336.968C1184.26 336.968 1183.3 337.898 1182.5 336.748C1181.7 335.598 1178.22 332.918 1178.03 330.608C1177.83 328.298 1181.94 324.548 1181.94 324.548C1178.77 325.408 1178.44 323.558 1178.44 323.558C1178.44 323.558 1183.77 319.158 1185.63 319.048C1186.36 318.998 1189.54 320.828 1192.6 323.288C1195.81 325.868 1201.83 334.958 1201.83 334.958C1201.83 334.958 1222.21 349.758 1227.36 353.548C1234.16 358.548 1242.21 367.408 1242.21 367.408C1242.21 367.408 1269.27 379.598 1276.69 386.308L1266.61 410.198C1266.61 410.198 1242.02 393.718 1239.56 389.538C1237.1 385.358 1234.64 387.868 1232.18 385.138C1229.72 382.408 1227.36 379.288 1227.36 379.288C1227.36 379.288 1221.41 376.678 1215.66 370.778C1209.91 364.878 1204.85 355.848 1201.67 350.438C1198.47 345.018 1195.46 342.438 1195.46 342.438Z" fill="white" stroke="#263238" stroke-miterlimit="10" stroke-linecap="round" stroke-linejoin="round"/>
<path d="M1196.96 338.948C1196.96 338.948 1189.63 337.168 1188.99 332.328C1188.78 330.758 1187.42 328.948 1187.42 328.948C1187.42 328.948 1180.57 328.608 1181.01 325.818L1190.14 325.008C1190.14 325.008 1195.15 326.648 1198.1 331.698" fill="white"/>
<path d="M1196.96 338.948C1196.96 338.948 1189.63 337.168 1188.99 332.328C1188.78 330.758 1187.42 328.948 1187.42 328.948C1187.42 328.948 1180.57 328.608 1181.01 325.818L1190.14 325.008C1190.14 325.008 1195.15 326.648 1198.1 331.698" stroke="#263238" stroke-miterlimit="10" stroke-linecap="round" stroke-linejoin="round"/>
<path d="M1178.47 338.256C1178.47 338.256 1178.96 337.566 1178.8 336.136C1178.8 336.136 1180.96 335.746 1180.72 333.826C1180.72 333.826 1183.92 333.436 1181.86 329.656" stroke="#263238" stroke-miterlimit="10" stroke-linecap="round" stroke-linejoin="round"/>
<path d="M1180.72 333.837C1180.72 333.837 1176.42 330.638 1175.93 329.188" stroke="#263238" stroke-miterlimit="10" stroke-linecap="round" stroke-linejoin="round"/>
<path d="M1178.8 336.133C1178.8 336.133 1174.21 333.343 1174.13 331.703" stroke="#263238" stroke-miterlimit="10" stroke-linecap="round" stroke-linejoin="round"/>
<path d="M1179.85 321.758C1179.85 321.758 1178.39 324.378 1175.98 324.928" stroke="#263238" stroke-miterlimit="10" stroke-linecap="round" stroke-linejoin="round"/>
<path d="M1179.13 322.789C1179.13 322.789 1180.3 323.379 1181.29 324.219" stroke="#263238" stroke-miterlimit="10" stroke-linecap="round" stroke-linejoin="round"/>
<path d="M1341.15 405.114C1341.15 405.114 1324.99 398.084 1308.61 394.244C1292.23 390.404 1265.75 386.984 1265.75 386.984C1265.75 386.984 1273.04 461.394 1271.12 465.864C1269.2 470.334 1257.67 485.374 1257.67 485.374C1257.67 485.374 1320.04 509.694 1330.91 511.764C1341.78 513.834 1336.11 476.104 1336.11 476.104C1336.11 476.104 1347.54 428.144 1341.15 405.114Z" fill="#263238"/>
<path d="M1318.76 397.125C1318.76 397.125 1320.24 399.955 1316.34 401.385C1306.24 405.115 1295.48 401.825 1296.63 397.865C1297.07 396.355 1299.57 397.865 1299.41 392.225C1299.39 391.495 1299.13 390.645 1298.73 389.745C1298.11 388.345 1297.14 386.815 1296.17 385.445C1294.46 383.055 1292.71 381.125 1292.71 381.125C1292.71 381.125 1308.74 370.895 1320.63 381.125C1320.63 381.135 1316.21 383.375 1318.76 397.125Z" fill="white" stroke="#263238" stroke-miterlimit="10" stroke-linecap="round" stroke-linejoin="round"/>
<path d="M1338.62 529.656C1332.31 539.936 1300.28 544.766 1282.8 544.316C1265.33 543.866 1215.01 520.046 1211.6 514.996C1208.44 510.326 1200.67 494.886 1212.64 485.546C1213.59 484.806 1214.65 484.106 1215.87 483.456C1224.07 479.016 1278.58 493.016 1278.58 493.016C1278.58 493.016 1281.96 490.876 1283.2 491.036C1287 491.516 1289.7 494.596 1297.41 496.786C1302.79 498.326 1317.48 492.416 1326.86 497.496C1327.89 498.046 1328.84 498.726 1329.71 499.566C1338.47 507.946 1344.93 519.366 1338.62 529.656Z" fill="#407BFF"/>
<path opacity="0.3" d="M1326.85 497.506C1317.24 496.866 1308.67 498.876 1302.68 502.406C1295.58 506.606 1262.07 522.746 1262.07 522.746C1262.14 521.016 1264.01 517.516 1264.01 517.516C1260.86 514.706 1252.62 512.526 1252.62 512.526C1246.23 507.076 1220.89 490.796 1212.65 485.546C1213.6 484.806 1214.66 484.106 1215.88 483.456C1224.08 479.016 1278.59 493.016 1278.59 493.016C1278.59 493.016 1281.97 490.876 1283.21 491.036C1287.01 491.516 1289.71 494.596 1297.42 496.786C1302.78 498.336 1317.47 492.416 1326.85 497.506Z" fill="black" fill-opacity="0.7"/>
<path d="M1338.62 529.656C1332.31 539.936 1300.28 544.766 1282.8 544.316C1265.33 543.866 1215.01 520.046 1211.6 514.996C1208.44 510.326 1200.67 494.886 1212.64 485.546C1213.59 484.806 1214.65 484.106 1215.87 483.456C1224.07 479.016 1278.58 493.016 1278.58 493.016C1278.58 493.016 1281.96 490.876 1283.2 491.036C1287 491.516 1289.7 494.596 1297.41 496.786C1302.79 498.326 1317.48 492.416 1326.86 497.496C1327.89 498.046 1328.84 498.726 1329.71 499.566C1338.47 507.946 1344.93 519.366 1338.62 529.656Z" stroke="#263238" stroke-miterlimit="10" stroke-linecap="round" stroke-linejoin="round"/>
<path d="M1328.79 538.938L1329.6 542.448C1329.6 542.448 1327.46 548.538 1318.03 549.528C1308.6 550.518 1303.02 552.608 1298.49 552.878C1293.96 553.148 1291.32 552.768 1291.32 552.768L1290.39 551.388L1328.79 538.938Z" fill="white" stroke="#263238" stroke-miterlimit="10" stroke-linecap="round" stroke-linejoin="round"/>
<path d="M1274.05 538.567L1290.38 551.387C1290.38 551.387 1303.04 550.387 1313.8 547.887V547.877C1321.54 546.087 1328.3 543.517 1328.67 539.997C1329.24 534.647 1323.51 533.177 1316.71 533.387C1315.44 533.417 1314.14 533.517 1312.82 533.647C1301.94 534.817 1288.1 528.797 1288.1 528.797L1274.05 538.567Z" fill="#263238"/>
<path opacity="0.3" d="M1328.68 539.875C1325.75 541.035 1322.1 542.635 1319.59 544.345C1319.59 544.345 1304.42 552.155 1281.11 544.115L1274.05 538.565L1288.11 528.805C1288.11 528.805 1301.94 534.815 1312.83 533.645C1314.15 533.505 1315.45 533.415 1316.72 533.385C1323.47 533.175 1329.15 534.615 1328.68 539.875Z" fill="black" fill-opacity="0.7"/>
<path d="M1274.05 538.567L1290.38 551.387C1290.38 551.387 1303.04 550.387 1313.8 547.887V547.877C1321.54 546.087 1328.3 543.517 1328.67 539.997C1329.24 534.647 1323.51 533.177 1316.71 533.387C1315.44 533.417 1314.14 533.517 1312.82 533.647C1301.94 534.817 1288.1 528.797 1288.1 528.797L1274.05 538.567Z" stroke="#263238" stroke-miterlimit="10" stroke-linecap="round" stroke-linejoin="round"/>
<path d="M1289.28 543.617C1286.34 544.097 1289.57 550.117 1293.56 548.287C1297.55 546.467 1292.22 543.137 1289.28 543.617Z" fill="white"/>
<path opacity="0.2" d="M1294.81 547.316C1292.8 547.076 1290.68 546.707 1288.46 546.207C1287.89 545.027 1288.02 543.816 1289.28 543.616C1291.75 543.216 1295.91 545.496 1294.81 547.316Z" fill="black" fill-opacity="0.7"/>
<path d="M1289.28 543.617C1286.34 544.097 1289.57 550.117 1293.56 548.287C1297.55 546.467 1292.22 543.137 1289.28 543.617Z" stroke="#263238" stroke-miterlimit="10" stroke-linecap="round" stroke-linejoin="round"/>
<path d="M1313.81 547.876C1321.55 546.086 1328.31 543.516 1328.68 539.996C1329.25 534.646 1323.52 533.176 1316.72 533.386C1316.42 533.666 1309.83 540.046 1313.81 547.876Z" fill="white"/>
<path opacity="0.3" d="M1328.68 539.877C1325.75 541.037 1322.1 542.637 1319.59 544.347C1319.59 544.347 1317.33 545.507 1313.2 546.477C1310.59 539.297 1316.43 533.647 1316.71 533.387C1323.47 533.177 1329.15 534.617 1328.68 539.877Z" fill="black" fill-opacity="0.7"/>
<path d="M1313.81 547.876C1321.55 546.086 1328.31 543.516 1328.68 539.996C1329.25 534.646 1323.52 533.176 1316.72 533.386C1316.42 533.666 1309.83 540.046 1313.81 547.876Z" stroke="#263238" stroke-miterlimit="10" stroke-linecap="round" stroke-linejoin="round"/>
<path d="M1308.29 541.224C1308.31 541.224 1308.32 541.224 1308.34 541.224C1308.79 541.244 1309.17 540.904 1309.19 540.454C1309.35 537.084 1311.95 534.334 1311.97 534.304C1312.28 533.984 1312.27 533.474 1311.95 533.164C1311.63 532.854 1311.12 532.864 1310.81 533.184C1310.69 533.314 1307.77 536.384 1307.58 540.374C1307.55 540.814 1307.87 541.184 1308.29 541.224Z" fill="white" stroke="#263238" stroke-miterlimit="10" stroke-linecap="round" stroke-linejoin="round"/>
<path d="M1305.05 541.415C1305.07 541.415 1305.1 541.415 1305.12 541.415C1305.57 541.425 1305.94 541.065 1305.94 540.625C1306.01 537.215 1308.39 534.265 1308.41 534.235C1308.69 533.895 1308.64 533.385 1308.3 533.095C1307.95 532.815 1307.45 532.865 1307.16 533.205C1307.05 533.345 1304.4 536.615 1304.32 540.585C1304.32 541.025 1304.64 541.375 1305.05 541.415Z" fill="white" stroke="#263238" stroke-miterlimit="10" stroke-linecap="round" stroke-linejoin="round"/>
<path d="M1301.18 541.017H1301.19C1301.63 541.057 1302.03 540.727 1302.07 540.287C1302.32 537.457 1304.73 533.837 1304.75 533.797C1305 533.427 1304.9 532.927 1304.53 532.677C1304.16 532.427 1303.66 532.527 1303.41 532.897C1303.3 533.057 1300.74 536.897 1300.46 540.147C1300.42 540.577 1300.75 540.967 1301.18 541.017Z" fill="white" stroke="#263238" stroke-miterlimit="10" stroke-linecap="round" stroke-linejoin="round"/>
<path d="M1297.53 540.63C1297.6 540.64 1297.67 540.64 1297.75 540.62C1298.19 540.55 1298.49 540.13 1298.41 539.69C1297.84 536.26 1301.02 533.32 1301.06 533.29C1301.39 532.99 1301.42 532.48 1301.12 532.15C1300.82 531.82 1300.31 531.79 1299.98 532.09C1299.82 532.23 1296.1 535.64 1296.82 539.96C1296.88 540.33 1297.18 540.59 1297.53 540.63Z" fill="white" stroke="#263238" stroke-miterlimit="10" stroke-linecap="round" stroke-linejoin="round"/>
<path d="M1293.56 539.668C1293.65 539.678 1293.74 539.668 1293.83 539.648C1294.27 539.548 1294.54 539.118 1294.44 538.678C1293.74 535.618 1296.75 532.158 1296.78 532.128C1297.07 531.798 1297.04 531.278 1296.71 530.988C1296.38 530.688 1295.87 530.718 1295.57 531.058C1295.42 531.228 1291.97 535.168 1292.86 539.048C1292.93 539.398 1293.22 539.638 1293.56 539.668Z" fill="white" stroke="#263238" stroke-miterlimit="10" stroke-linecap="round" stroke-linejoin="round"/>
<path d="M1209.54 533.68L1208.37 537.09C1208.37 537.09 1209.86 543.37 1219.14 545.35C1228.41 547.33 1233.74 549.99 1238.22 550.74C1242.7 551.49 1245.36 551.38 1245.36 551.38L1246.43 550.1L1209.54 533.68Z" fill="white" stroke="#263238" stroke-miterlimit="10" stroke-linecap="round" stroke-linejoin="round"/>
<path d="M1264.01 539.057L1246.42 550.087C1246.42 550.087 1233.93 547.757 1223.5 544.147V544.137C1215.99 541.547 1209.54 538.277 1209.54 534.737C1209.54 529.357 1215.38 528.497 1222.13 529.417C1223.39 529.577 1224.68 529.817 1225.97 530.087C1236.67 532.387 1251.06 527.867 1251.06 527.867L1264.01 539.057Z" fill="#263238"/>
<path opacity="0.3" d="M1264.01 539.057L1253.66 545.547C1243.27 542.417 1236.52 535.797 1232.65 530.747C1241.82 530.767 1251.05 527.867 1251.05 527.867L1264.01 539.057Z" fill="black" fill-opacity="0.7"/>
<path d="M1264.01 539.057L1246.42 550.087C1246.42 550.087 1233.93 547.757 1223.5 544.147V544.137C1215.99 541.547 1209.54 538.277 1209.54 534.737C1209.54 529.357 1215.38 528.497 1222.13 529.417C1223.39 529.577 1224.68 529.817 1225.97 530.087C1236.67 532.387 1251.06 527.867 1251.06 527.867L1264.01 539.057Z" stroke="#263238" stroke-miterlimit="10" stroke-linecap="round" stroke-linejoin="round"/>
<path d="M1223.5 544.149C1215.99 541.559 1209.54 538.289 1209.54 534.749C1209.54 529.369 1215.38 528.509 1222.13 529.429C1222.39 529.739 1228.28 536.779 1223.5 544.149Z" fill="white" stroke="#263238" stroke-miterlimit="10" stroke-linecap="round" stroke-linejoin="round"/>
<path d="M1229.69 538.111C1229.67 538.111 1229.66 538.111 1229.64 538.111C1229.19 538.081 1228.85 537.701 1228.88 537.261C1229.07 533.891 1226.78 530.881 1226.76 530.861C1226.49 530.511 1226.55 530.001 1226.9 529.731C1227.25 529.461 1227.76 529.521 1228.03 529.871C1228.14 530.011 1230.72 533.371 1230.49 537.361C1230.47 537.781 1230.11 538.111 1229.69 538.111Z" fill="white" stroke="#263238" stroke-miterlimit="10" stroke-linecap="round" stroke-linejoin="round"/>
<path d="M1232.88 538.647C1232.86 538.647 1232.83 538.647 1232.81 538.647C1232.36 538.607 1232.03 538.217 1232.07 537.777C1232.36 534.377 1230.3 531.197 1230.28 531.157C1230.04 530.787 1230.14 530.287 1230.51 530.037C1230.88 529.797 1231.38 529.897 1231.63 530.267C1231.73 530.417 1234.02 533.947 1233.68 537.907C1233.65 538.327 1233.3 538.647 1232.88 538.647Z" fill="white" stroke="#263238" stroke-miterlimit="10" stroke-linecap="round" stroke-linejoin="round"/>
<path d="M1236.78 538.651H1236.77C1236.32 538.641 1235.97 538.271 1235.98 537.831C1236.03 534.991 1234.01 531.131 1233.99 531.091C1233.78 530.701 1233.93 530.211 1234.33 530.001C1234.72 529.791 1235.21 529.941 1235.42 530.341C1235.51 530.511 1237.65 534.601 1237.59 537.861C1237.58 538.291 1237.21 538.651 1236.78 538.651Z" fill="white" stroke="#263238" stroke-miterlimit="10" stroke-linecap="round" stroke-linejoin="round"/>
<path d="M1240.45 538.645C1240.38 538.645 1240.31 538.635 1240.23 538.615C1239.8 538.495 1239.55 538.045 1239.67 537.615C1240.6 534.265 1237.74 531.005 1237.71 530.965C1237.41 530.635 1237.44 530.125 1237.77 529.825C1238.1 529.525 1238.61 529.555 1238.91 529.885C1239.05 530.045 1242.4 533.825 1241.22 538.045C1241.13 538.405 1240.81 538.645 1240.45 538.645Z" fill="white" stroke="#263238" stroke-miterlimit="10" stroke-linecap="round" stroke-linejoin="round"/>
<path d="M1244.5 538.104C1244.41 538.104 1244.32 538.094 1244.24 538.064C1243.82 537.914 1243.59 537.464 1243.74 537.034C1244.76 534.064 1242.12 530.304 1242.1 530.274C1241.84 529.914 1241.93 529.404 1242.29 529.144C1242.65 528.884 1243.16 528.964 1243.42 529.334C1243.55 529.514 1246.57 533.804 1245.28 537.564C1245.15 537.894 1244.84 538.104 1244.5 538.104Z" fill="white" stroke="#263238" stroke-miterlimit="10" stroke-linecap="round" stroke-linejoin="round"/>
<path d="M1248.34 542.49C1251.22 543.28 1247.37 548.93 1243.59 546.69C1239.81 544.45 1245.46 541.7 1248.34 542.49Z" fill="white" stroke="#263238" stroke-miterlimit="10" stroke-linecap="round" stroke-linejoin="round"/>
<path d="M1215.08 512.516C1219.4 518.566 1232.2 525.256 1244.96 530.766C1246.33 533.036 1249.12 537.276 1252.96 541.216C1260.81 549.296 1264.01 544.766 1264.01 544.766C1264.01 544.766 1268.97 544.206 1276.29 543.206C1276.78 544.146 1277.89 545.616 1279.99 545.286C1280.94 545.136 1282.78 543.776 1284.84 541.976C1303.33 539.196 1328.42 534.556 1335.2 529.096" fill="#407BFF"/>
<path d="M1215.08 512.516C1219.4 518.566 1232.2 525.256 1244.96 530.766C1246.33 533.036 1249.12 537.276 1252.96 541.216C1260.81 549.296 1264.01 544.766 1264.01 544.766C1264.01 544.766 1268.97 544.206 1276.29 543.206C1276.78 544.146 1277.89 545.616 1279.99 545.286C1280.94 545.136 1282.78 543.776 1284.84 541.976C1303.33 539.196 1328.42 534.556 1335.2 529.096" stroke="#263238" stroke-miterlimit="10" stroke-linecap="round" stroke-linejoin="round"/>
<path d="M1327.96 501.007C1324.76 497.487 1321.56 497.327 1314.85 497.807C1314.85 497.807 1297.33 503.367 1285.11 510.757C1272.89 518.157 1255.05 525.917 1255.05 525.917C1255.05 525.917 1249.61 524.347 1245.83 525.917C1245.83 525.917 1243.17 526.127 1244.95 530.767" stroke="#263238" stroke-miterlimit="10" stroke-linecap="round" stroke-linejoin="round"/>
<path d="M1336.12 522.016C1336.12 522.016 1336.21 527.436 1328.53 531.186" stroke="#263238" stroke-miterlimit="10" stroke-linecap="round" stroke-linejoin="round"/>
<path d="M1251.38 499.406C1251.38 499.406 1263.51 508.176 1265.93 513.956C1265.93 513.956 1270.59 515.936 1272.82 517.506" stroke="#263238" stroke-miterlimit="10" stroke-linecap="round" stroke-linejoin="round"/>
<path d="M1266.81 506.695C1267.62 509.215 1267.93 511.955 1267.24 514.535" stroke="#263238" stroke-miterlimit="10" stroke-linecap="round" stroke-linejoin="round"/>
<path d="M1264.01 501.008C1264.67 501.968 1265.25 502.988 1265.75 504.038" stroke="#263238" stroke-miterlimit="10" stroke-linecap="round" stroke-linejoin="round"/>
<path d="M1281.28 500.203C1281.28 500.203 1285.34 505.623 1286.35 510.033" stroke="#263238" stroke-miterlimit="10" stroke-linecap="round" stroke-linejoin="round"/>
<path d="M1303.87 532.987C1305.38 532.887 1306.89 532.727 1308.37 532.438" stroke="#263238" stroke-miterlimit="10" stroke-linecap="round" stroke-linejoin="round"/>
<path d="M1265.82 529.109C1276.89 531.229 1289.02 532.839 1300.69 533.109" stroke="#263238" stroke-miterlimit="10" stroke-linecap="round" stroke-linejoin="round"/>
<path d="M1347.86 446.88C1347.86 446.88 1345.67 485.06 1343.09 487.3C1340.51 489.54 1336.43 490.18 1328.72 490.82C1321.01 491.46 1286.9 493.56 1286.9 493.56L1283.25 482.6C1283.25 482.6 1301.39 480.76 1309.43 477.8C1317.48 474.84 1327.96 472.9 1327.96 472.9C1327.96 472.9 1326.44 463.28 1326.44 459.15C1326.44 455.02 1326.44 444.49 1326.44 439.68" fill="white"/>
<path d="M1347.86 446.88C1347.86 446.88 1345.67 485.06 1343.09 487.3C1340.51 489.54 1336.43 490.18 1328.72 490.82C1321.01 491.46 1286.9 493.56 1286.9 493.56L1283.25 482.6C1283.25 482.6 1301.39 480.76 1309.43 477.8C1317.48 474.84 1327.96 472.9 1327.96 472.9C1327.96 472.9 1326.44 463.28 1326.44 459.15C1326.44 455.02 1326.44 444.49 1326.44 439.68" stroke="#263238" stroke-miterlimit="10" stroke-linecap="round" stroke-linejoin="round"/>
<path d="M1341.15 405.117C1349.47 410.237 1351.92 422.067 1349.04 447.327C1349.04 447.327 1351.5 450.307 1347.87 451.807C1347.87 451.807 1334.29 446.727 1327.97 450.227C1321.65 453.727 1323.29 445.387 1323.29 445.387C1323.29 445.387 1320.69 422.147 1326.45 417.947" fill="#263238"/>
<path d="M1325.69 414.398C1325.69 414.398 1317.7 422.708 1324.73 443.708C1324.73 443.708 1323.75 447.528 1323.76 448.928C1323.77 450.328 1325.69 451.058 1325.69 451.058" stroke="white" stroke-miterlimit="10" stroke-linecap="round" stroke-linejoin="round"/>
<path d="M1316.35 428.469C1316.35 428.469 1316.93 438.699 1323.29 443.179" stroke="white" stroke-miterlimit="10" stroke-linecap="round" stroke-linejoin="round"/>
<path d="M1318.4 404.648C1318.4 404.648 1306.01 409.398 1296.15 404.138C1290.31 401.018 1292.71 396.008 1292.71 396.008" stroke="white" stroke-miterlimit="10" stroke-linecap="round" stroke-linejoin="round"/>
<path d="M1229.29 501.026H1296.74C1298.26 501.026 1299.78 500.826 1301.26 500.446L1314.56 496.956C1314.94 496.856 1315.2 496.516 1315.2 496.126C1315.2 495.646 1314.81 495.266 1314.34 495.266H1226.5C1226.02 495.266 1225.64 495.656 1225.64 496.126V497.386C1225.64 499.396 1227.27 501.026 1229.29 501.026Z" fill="#757575" stroke="#263238" stroke-miterlimit="10" stroke-linecap="round" stroke-linejoin="round"/>
<path d="M1222.6 497.677H1290.24C1291.42 497.677 1292.13 496.707 1291.82 495.507L1279.27 446.717C1278.96 445.517 1277.75 444.547 1276.57 444.547H1208.93C1207.75 444.547 1207.04 445.517 1207.35 446.717L1219.9 495.507C1220.21 496.707 1221.42 497.677 1222.6 497.677Z" fill="#999999" stroke="#263238" stroke-miterlimit="10" stroke-linecap="round" stroke-linejoin="round"/>
<path d="M1211.32 446.273H1210.04" stroke="#263238" stroke-miterlimit="10" stroke-linecap="round" stroke-linejoin="round"/>
<path d="M1221.23 446.273H1214.62" stroke="#263238" stroke-miterlimit="10" stroke-linecap="round" stroke-linejoin="round"/>
<path d="M1288.61 491.503L1277.54 448.443C1277.23 447.243 1276.02 446.273 1274.84 446.273H1222.72" stroke="#263238" stroke-miterlimit="10" stroke-linecap="round" stroke-linejoin="round"/>
<path d="M1289.58 495.258L1289.3 494.188" stroke="#263238" stroke-miterlimit="10" stroke-linecap="round" stroke-linejoin="round"/>
<path d="M1242.96 472.339C1243 472.729 1243.08 473.119 1243.2 473.509C1244.06 476.449 1246.81 478.229 1249.34 477.489C1251.87 476.749 1253.22 473.759 1252.36 470.819C1251.49 467.879 1248.74 466.099 1246.21 466.839C1245.91 466.929 1245.62 467.049 1245.36 467.199C1245.56 469.369 1244.63 471.409 1242.96 472.339Z" fill="white" stroke="#263238" stroke-miterlimit="10" stroke-linecap="round" stroke-linejoin="round"/>
<path d="M1272.82 380.894C1266.97 380.254 1263.77 374.694 1260.25 373.824C1256.73 372.954 1254.48 371.964 1254.48 371.964C1254.48 371.964 1253.27 367.724 1251.45 369.204C1249.64 370.684 1247.24 402.304 1249.59 401.304C1251.93 400.314 1251.93 404.044 1251.93 404.044L1273.67 423.204L1291.89 390.944C1291.89 390.944 1278.67 381.534 1272.82 380.894Z" fill="#263238"/>
<path d="M1083.5 264.445V263.945H1084" stroke="#263238" stroke-linecap="round" stroke-linejoin="round"/>
<path d="M1086.93 263.945H1171.53" stroke="#263238" stroke-linecap="round" stroke-linejoin="round" stroke-dasharray="0.98 2.93"/>
<path d="M1173 263.945H1173.5V264.445" stroke="#263238" stroke-linecap="round" stroke-linejoin="round"/>
<path d="M1173.5 267.445V321.945" stroke="#263238" stroke-linecap="round" stroke-linejoin="round" stroke-dasharray="1 3"/>
<path d="M1173.5 323.445V323.945H1173" stroke="#263238" stroke-linecap="round" stroke-linejoin="round"/>
<path d="M1170.06 323.945H1085.47" stroke="#263238" stroke-linecap="round" stroke-linejoin="round" stroke-dasharray="0.98 2.93"/>
<path d="M1084 323.945H1083.5V323.445" stroke="#263238" stroke-linecap="round" stroke-linejoin="round"/>
<path d="M1083.5 320.445V265.945" stroke="#263238" stroke-linecap="round" stroke-linejoin="round" stroke-dasharray="1 3"/>
<path d="M1128.5 265.429C1129.32 265.429 1129.98 264.766 1129.98 263.949C1129.98 263.131 1129.32 262.469 1128.5 262.469C1127.68 262.469 1127.02 263.131 1127.02 263.949C1127.02 264.766 1127.68 265.429 1128.5 265.429Z" fill="#407BFF" stroke="#263238" stroke-miterlimit="10" stroke-linecap="round" stroke-linejoin="round"/>
<path d="M1083.5 295.429C1084.32 295.429 1084.98 294.766 1084.98 293.949C1084.98 293.131 1084.32 292.469 1083.5 292.469C1082.68 292.469 1082.02 293.131 1082.02 293.949C1082.02 294.766 1082.68 295.429 1083.5 295.429Z" fill="#407BFF" stroke="#263238" stroke-miterlimit="10" stroke-linecap="round" stroke-linejoin="round"/>
<path d="M1128.5 325.429C1129.32 325.429 1129.98 324.766 1129.98 323.949C1129.98 323.131 1129.32 322.469 1128.5 322.469C1127.68 322.469 1127.02 323.131 1127.02 323.949C1127.02 324.766 1127.68 325.429 1128.5 325.429Z" fill="#407BFF" stroke="#263238" stroke-miterlimit="10" stroke-linecap="round" stroke-linejoin="round"/>
<path d="M1173.5 295.429C1174.32 295.429 1174.98 294.766 1174.98 293.949C1174.98 293.131 1174.32 292.469 1173.5 292.469C1172.68 292.469 1172.02 293.131 1172.02 293.949C1172.02 294.766 1172.68 295.429 1173.5 295.429Z" fill="#407BFF" stroke="#263238" stroke-miterlimit="10" stroke-linecap="round" stroke-linejoin="round"/>
<path d="M1175.23 322.227H1171.78V325.677H1175.23V322.227Z" fill="#407BFF" stroke="#263238" stroke-miterlimit="10" stroke-linecap="round" stroke-linejoin="round"/>
<path d="M1175.23 262.227H1171.78V265.677H1175.23V262.227Z" fill="#407BFF" stroke="#263238" stroke-miterlimit="10" stroke-linecap="round" stroke-linejoin="round"/>
<path d="M1085.23 322.227H1081.78V325.677H1085.23V322.227Z" fill="#407BFF" stroke="#263238" stroke-miterlimit="10" stroke-linecap="round" stroke-linejoin="round"/>
<path d="M1085.23 262.227H1081.78V265.677H1085.23V262.227Z" fill="#407BFF" stroke="#263238" stroke-miterlimit="10" stroke-linecap="round" stroke-linejoin="round"/>
<path d="M1167.8 269.258H1089.47V319.028H1167.8V269.258Z" fill="white" stroke="#263238" stroke-miterlimit="10" stroke-linecap="round" stroke-linejoin="round"/>
<path d="M1167.8 304.328L1159.09 313.038L1135.54 289.478L1125.62 299.388L1109.82 283.578L1089.47 303.928V319.028H1167.8V304.328Z" fill="#407BFF" stroke="#263238" stroke-miterlimit="10" stroke-linecap="round" stroke-linejoin="round"/>
<path d="M1151.57 288.919C1154.63 288.919 1157.1 286.444 1157.1 283.389C1157.1 280.335 1154.63 277.859 1151.57 277.859C1148.52 277.859 1146.04 280.335 1146.04 283.389C1146.04 286.444 1148.52 288.919 1151.57 288.919Z" fill="#407BFF" stroke="#263238" stroke-miterlimit="10" stroke-linecap="round" stroke-linejoin="round"/>
<path d="M1276.67 389.445C1276.67 389.445 1271.12 399.855 1270.42 415.795" stroke="white" stroke-miterlimit="10" stroke-linecap="round" stroke-linejoin="round"/>
<path d="M1260.26 396.664C1260.26 396.664 1261.93 405.524 1266.81 411.944" stroke="white" stroke-miterlimit="10" stroke-linecap="round" stroke-linejoin="round"/>
<path d="M1283.25 433.203C1283.25 433.203 1291.63 460.763 1309.88 468.883" stroke="white" stroke-miterlimit="10" stroke-linecap="round" stroke-linejoin="round"/>
<path d="M1305.31 383.32C1305.31 383.32 1304.52 389.33 1298.74 389.75C1298.12 388.35 1297.15 386.82 1296.18 385.45C1300 384.22 1305.31 383.32 1305.31 383.32Z" fill="#263238"/>
<path d="M1317.63 383.739C1317.63 383.739 1327.3 384.919 1331.35 371.939C1335.4 358.959 1332.22 349.179 1316.21 344.469C1307.34 341.859 1298.46 343.959 1295.26 350.679C1292.52 356.439 1293.81 361.219 1293.18 363.149C1292.47 365.309 1285.93 367.149 1285.93 368.629C1285.93 369.859 1289.55 371.939 1289.55 371.939L1288.48 375.159L1289.48 375.689C1289.48 375.689 1287.62 382.959 1288.48 385.509C1289.1 387.379 1305.48 388.159 1306.76 383.519" fill="white"/>
<path d="M1317.63 383.739C1317.63 383.739 1327.3 384.919 1331.35 371.939C1335.4 358.959 1332.22 349.179 1316.21 344.469C1307.34 341.859 1298.46 343.959 1295.26 350.679C1292.52 356.439 1293.81 361.219 1293.18 363.149C1292.47 365.309 1285.93 367.149 1285.93 368.629C1285.93 369.859 1289.55 371.939 1289.55 371.939L1288.48 375.159L1289.48 375.689C1289.48 375.689 1287.62 382.959 1288.48 385.509C1289.1 387.379 1305.48 388.159 1306.76 383.519" stroke="#263238" stroke-miterlimit="10" stroke-linecap="round" stroke-linejoin="round"/>
<path d="M1295.34 355.398C1295.34 355.398 1298.54 356.198 1299.42 357.878" stroke="#263238" stroke-miterlimit="10" stroke-linecap="round" stroke-linejoin="round"/>
<path d="M1295.91 362.758C1295.77 363.698 1295.99 364.508 1296.39 364.568C1296.79 364.628 1297.23 363.918 1297.37 362.978C1297.51 362.038 1297.29 361.228 1296.89 361.168C1296.48 361.108 1296.05 361.828 1295.91 362.758Z" fill="#263238"/>
<path d="M1289.5 375.695C1289.5 375.695 1294.7 377.695 1296.64 376.485" stroke="#263238" stroke-miterlimit="10" stroke-linecap="round" stroke-linejoin="round"/>
<path d="M1291.33 362.017C1290.94 364.097 1291.41 365.937 1292.37 366.117C1293.33 366.297 1294.43 364.748 1294.81 362.668C1295.19 360.588 1294.73 358.748 1293.77 358.568C1292.81 358.398 1291.71 359.937 1291.33 362.017Z" stroke="#263238" stroke-miterlimit="10" stroke-linecap="round" stroke-linejoin="round"/>
<path d="M1331.77 351.396C1331.77 351.396 1331.02 345.956 1325.69 342.016C1320.36 338.076 1313.97 337.216 1313.97 337.216C1313.97 337.216 1317.06 338.566 1318.23 340.346C1318.23 340.346 1310.24 334.346 1300.75 338.286C1291.26 342.226 1292.44 352.476 1292.44 352.476L1293.83 349.796C1293.83 349.796 1293.67 352.996 1295.35 354.166C1295.35 354.166 1296.36 351.076 1297.39 349.686C1297.39 349.686 1299.91 357.256 1306.84 359.816C1306.84 359.816 1306.09 358.326 1306.73 356.086C1306.73 356.086 1310.56 364.396 1309.45 368.446L1310.68 370.576C1310.68 370.576 1315.09 366.106 1318.67 369.826C1320.73 371.966 1314.73 380.056 1313.87 380.056L1317.49 385.386C1317.49 385.386 1326.55 386.676 1331.77 376.866C1336.99 367.056 1335.71 362.856 1335.71 362.856C1335.71 362.856 1337.42 365.246 1337.63 366.626C1337.63 366.636 1339.12 356.086 1331.77 351.396Z" fill="#263238"/>
<path d="M1310.45 371.546C1310.45 371.546 1313.23 362.146 1319.2 365.456C1325.16 368.776 1320.9 373.786 1318.77 375.696C1316.64 377.616 1315.04 381.136 1313.65 381.136C1312.26 381.136 1311.94 379.426 1311.94 379.426" fill="white"/>
<path d="M1310.45 371.546C1310.45 371.546 1313.23 362.146 1319.2 365.456C1325.16 368.776 1320.9 373.786 1318.77 375.696C1316.64 377.616 1315.04 381.136 1313.65 381.136C1312.26 381.136 1311.94 379.426 1311.94 379.426" stroke="#263238" stroke-miterlimit="10" stroke-linecap="round" stroke-linejoin="round"/>
<path d="M1294.81 362.664L1311.41 366.114" stroke="#263238" stroke-miterlimit="10" stroke-linecap="round" stroke-linejoin="round"/>
</g>
<defs>
<clipPath id="clip0_820_11865">
<rect width="1440" height="552" fill="white"/>
</clipPath>
</defs>
</svg>
