<svg width="1440" height="552" viewBox="0 0 1440 552" fill="none" xmlns="http://www.w3.org/2000/svg">
<g clip-path="url(#clip0_814_7038)">
<path d="M-37.7305 244.43C-37.7305 244.43 -7.79047 254.29 203.69 132.15C338.97 54.0198 449.79 107.6 598.2 168.9C746.609 230.2 838.529 168.9 956.479 81.5998C1087.38 -15.2702 1348.66 41.2999 1409.93 101.51C1506.44 196.36 1458.95 565.68 1458.95 565.68H-37.7305V244.43Z" fill="#94D4FF"/>
<path d="M1041.82 443.961H1041.81C1041.86 443.981 1041.87 443.981 1041.82 443.961Z" fill="#323657"/>
<path d="M444.22 188.398H377.57L377.69 187.808C378.76 182.318 383.6 178.328 389.21 178.328C390.02 178.328 390.83 178.408 391.61 178.578C395.08 171.978 401.83 167.898 409.31 167.898C415.68 167.898 421.69 170.958 425.46 176.098C426.83 175.678 428.26 175.468 429.71 175.468C436.96 175.468 443.03 180.658 444.13 187.818L444.22 188.398ZM378.8 187.398H443.05C441.8 181.128 436.16 176.468 429.71 176.468C428.25 176.468 426.8 176.698 425.43 177.158L425.08 177.268L424.87 176.968C421.31 171.908 415.49 168.888 409.32 168.888C402.09 168.888 395.58 172.908 392.33 179.368L392.15 179.728L391.76 179.628C390.93 179.418 390.07 179.318 389.21 179.318C384.29 179.328 380 182.688 378.8 187.398Z" fill="white"/>
<path d="M415.89 184.328C413.87 184.328 412.23 182.688 412.23 180.668C412.23 178.648 413.87 177.008 415.89 177.008C417.91 177.008 419.55 178.648 419.55 180.668C419.55 182.688 417.91 184.328 415.89 184.328ZM415.89 178.008C414.42 178.008 413.23 179.198 413.23 180.668C413.23 182.138 414.42 183.328 415.89 183.328C417.36 183.328 418.55 182.138 418.55 180.668C418.55 179.198 417.36 178.008 415.89 178.008Z" fill="white"/>
<path d="M618.031 526.178L617.801 526.058C594.151 513.978 597.331 490.598 597.361 490.358L597.421 489.938H597.851C612.891 489.938 617.611 485.088 617.661 485.038L618.031 484.648L618.391 485.038C618.441 485.088 623.161 489.928 638.201 489.928H638.631L638.691 490.348C638.721 490.578 641.901 513.968 618.251 526.048L618.031 526.178ZM598.301 490.938C598.001 494.108 597.011 514.178 618.031 525.058C639.071 514.168 638.061 494.098 637.761 490.938C624.701 490.858 619.391 487.218 618.031 486.068C616.671 487.218 611.361 490.858 598.301 490.938Z" fill="white"/>
<path d="M651.001 538.524H642.451V537.524H650.001V529.984H651.001V538.524Z" fill="white"/>
<path d="M593.511 538.524H584.961V529.984H585.961V537.524H593.511V538.524Z" fill="white"/>
<path d="M585.961 481.042H584.971V472.492H593.511V473.482H585.961V481.042Z" fill="white"/>
<path d="M651.001 481.032H650.001V473.492H642.451V472.492H651.001V481.032Z" fill="white"/>
<path d="M651 493.805H650V517.215H651V493.805Z" fill="white"/>
<path d="M585.961 493.805H584.961V517.215H585.961V493.805Z" fill="white"/>
<path d="M618.031 520.242C616.011 520.242 614.371 518.602 614.371 516.582C614.371 514.562 616.011 512.922 618.031 512.922C620.051 512.922 621.691 514.562 621.691 516.582C621.691 518.602 620.051 520.242 618.031 520.242ZM618.031 513.922C616.561 513.922 615.371 515.112 615.371 516.582C615.371 518.052 616.561 519.242 618.031 519.242C619.501 519.242 620.691 518.052 620.691 516.582C620.691 515.112 619.501 513.922 618.031 513.922Z" fill="white"/>
<path d="M998.37 208.214H973.25V183.094H998.37V208.214ZM974.25 207.214H997.37V184.094H974.25V207.214Z" fill="white"/>
<path d="M986.311 189.945H985.311V201.645H986.311V189.945Z" fill="white"/>
<path d="M991.659 195.297H979.949V196.297H991.659V195.297Z" fill="white"/>
<path d="M1381.1 238.497H1345.2V212.867H1381.1V238.497ZM1346.19 237.507H1380.1V213.867H1346.19V237.507Z" fill="white"/>
<path d="M1363.15 228.394L1345.38 213.754L1346.01 212.984L1363.15 227.104L1380.28 212.984L1380.92 213.754L1363.15 228.394Z" fill="white"/>
<path d="M1368.08 224.117L1367.35 224.805L1380.23 238.388L1380.96 237.7L1368.08 224.117Z" fill="white"/>
<path d="M1358.21 224.052L1345.33 237.641L1346.06 238.328L1358.93 224.74L1358.21 224.052Z" fill="white"/>
<path d="M1106.03 475.997H1070.13V450.367H1106.03V475.997ZM1071.13 475.007H1105.04V451.367H1071.13V475.007Z" fill="white"/>
<path d="M1088.08 465.894L1070.31 451.254L1070.95 450.484L1088.08 464.604L1105.22 450.484L1105.85 451.254L1088.08 465.894Z" fill="white"/>
<path d="M1093 461.617L1092.28 462.305L1105.16 475.888L1105.88 475.2L1093 461.617Z" fill="white"/>
<path d="M1083.14 461.56L1070.26 475.148L1070.99 475.836L1083.86 462.247L1083.14 461.56Z" fill="white"/>
<path d="M1061.04 264.25L1060.67 263.27C1060.34 263.23 1060.01 263.15 1059.69 263.04L1058.93 263.75L1056.72 262.18L1057.15 261.23C1056.94 260.96 1056.77 260.68 1056.61 260.38L1055.57 260.35L1055.12 257.67L1056.1 257.3C1056.14 256.96 1056.22 256.64 1056.33 256.32L1055.61 255.56L1057.18 253.35L1058.14 253.78C1058.41 253.57 1058.69 253.4 1058.99 253.24L1059.02 252.2L1061.7 251.75L1062.07 252.73C1062.4 252.77 1062.73 252.85 1063.05 252.96L1063.81 252.25L1066.02 253.82L1065.59 254.77C1065.79 255.04 1065.97 255.32 1066.13 255.62L1067.17 255.65L1067.62 258.33L1066.64 258.7C1066.6 259.03 1066.52 259.36 1066.42 259.68L1067.13 260.44L1065.56 262.65L1064.61 262.23C1064.34 262.44 1064.06 262.61 1063.75 262.77L1063.72 263.81L1061.04 264.25ZM1059.51 262.18L1059.73 262.26C1060.13 262.41 1060.54 262.51 1060.97 262.54L1061.2 262.56L1061.52 263.4L1062.99 263.15L1063.02 262.25L1063.23 262.16C1063.62 261.98 1063.98 261.76 1064.31 261.49L1064.49 261.34L1065.31 261.7L1066.17 260.49L1065.56 259.84L1065.64 259.62C1065.79 259.22 1065.89 258.81 1065.92 258.38L1065.94 258.15L1066.78 257.83L1066.53 256.36L1065.63 256.33L1065.53 256.12C1065.36 255.73 1065.13 255.37 1064.86 255.04L1064.71 254.86L1065.07 254.04L1063.86 253.17L1063.21 253.78L1062.99 253.7C1062.59 253.55 1062.18 253.45 1061.75 253.42L1061.52 253.4L1061.2 252.56L1059.73 252.81L1059.7 253.71L1059.49 253.8C1059.1 253.97 1058.74 254.2 1058.41 254.47L1058.23 254.62L1057.41 254.25L1056.55 255.47L1057.16 256.12L1057.08 256.34C1056.93 256.74 1056.83 257.15 1056.8 257.58L1056.78 257.81L1055.94 258.13L1056.19 259.6L1057.09 259.63L1057.19 259.85C1057.36 260.24 1057.59 260.6 1057.86 260.93L1058.01 261.11L1057.64 261.93L1058.85 262.8L1059.51 262.18ZM1061.35 260.94C1060.76 260.94 1060.16 260.76 1059.64 260.39C1059 259.93 1058.57 259.25 1058.44 258.48C1058.31 257.7 1058.49 256.92 1058.95 256.28C1059.89 254.95 1061.74 254.64 1063.07 255.59C1064.39 256.53 1064.71 258.38 1063.76 259.71C1063.19 260.51 1062.28 260.94 1061.35 260.94ZM1061.36 255.79C1060.67 255.79 1059.99 256.11 1059.56 256.72C1059.22 257.2 1059.09 257.78 1059.18 258.36C1059.28 258.94 1059.6 259.45 1060.08 259.79C1061.07 260.49 1062.45 260.26 1063.16 259.27C1063.86 258.28 1063.63 256.9 1062.64 256.2C1062.25 255.92 1061.8 255.79 1061.36 255.79Z" fill="white"/>
<path d="M1040.3 267.37L1039.47 265.19C1038.58 265.09 1037.7 264.89 1036.85 264.59L1035.15 266.19L1030.53 262.9L1031.48 260.77C1030.92 260.07 1030.44 259.3 1030.05 258.49L1027.72 258.42L1026.78 252.83L1028.96 252C1029.06 251.11 1029.26 250.23 1029.56 249.38L1027.96 247.68L1031.25 243.06L1033.38 244.01C1034.08 243.45 1034.84 242.97 1035.66 242.59L1035.73 240.26L1041.32 239.32L1042.15 241.5C1043.04 241.6 1043.92 241.8 1044.77 242.1L1046.47 240.5L1051.09 243.79L1050.14 245.92C1050.7 246.62 1051.18 247.38 1051.57 248.2L1053.9 248.27L1054.84 253.86L1052.66 254.69C1052.56 255.58 1052.36 256.46 1052.06 257.31L1053.66 259.01L1050.37 263.63L1048.24 262.68C1047.54 263.24 1046.78 263.72 1045.96 264.1L1045.89 266.43L1040.3 267.37ZM1036.61 263.44L1036.9 263.55C1037.84 263.91 1038.84 264.14 1039.85 264.23L1040.16 264.26L1040.92 266.26L1044.9 265.59L1044.97 263.45L1045.26 263.32C1046.19 262.91 1047.05 262.36 1047.83 261.71L1048.07 261.51L1050.02 262.38L1052.36 259.09L1050.9 257.53L1051.01 257.24C1051.37 256.29 1051.6 255.3 1051.69 254.29L1051.72 253.98L1053.72 253.22L1053.05 249.24L1050.91 249.17L1050.78 248.88C1050.37 247.95 1049.82 247.09 1049.17 246.31L1048.97 246.07L1049.84 244.12L1046.55 241.78L1044.99 243.24L1044.7 243.13C1043.76 242.77 1042.76 242.54 1041.75 242.45L1041.44 242.42L1040.68 240.43L1036.7 241.1L1036.63 243.24L1036.34 243.37C1035.41 243.78 1034.55 244.33 1033.77 244.98L1033.53 245.18L1031.58 244.31L1029.24 247.6L1030.7 249.16L1030.59 249.45C1030.23 250.4 1030 251.39 1029.91 252.4L1029.88 252.71L1027.89 253.47L1028.56 257.45L1030.7 257.52L1030.83 257.81C1031.25 258.74 1031.79 259.6 1032.44 260.38L1032.64 260.62L1031.77 262.57L1035.06 264.91L1036.61 263.44ZM1040.8 259.79C1039.51 259.79 1038.2 259.4 1037.07 258.6C1034.17 256.54 1033.49 252.51 1035.56 249.61C1036.56 248.21 1038.04 247.28 1039.74 246.99C1041.44 246.7 1043.14 247.1 1044.55 248.1C1047.45 250.16 1048.13 254.19 1046.06 257.09C1044.8 258.84 1042.81 259.79 1040.8 259.79ZM1040.82 247.89C1040.52 247.89 1040.21 247.92 1039.9 247.97C1038.46 248.21 1037.21 249 1036.37 250.18C1034.63 252.63 1035.2 256.04 1037.65 257.78C1040.1 259.52 1043.51 258.95 1045.25 256.5C1046.09 255.31 1046.43 253.87 1046.18 252.43C1045.94 250.99 1045.15 249.74 1043.97 248.9C1043.03 248.24 1041.94 247.89 1040.82 247.89Z" fill="white"/>
<path d="M1299 422.939C1287.26 422.939 1277.71 413.389 1277.71 401.649H1278.85C1278.85 412.759 1287.89 421.799 1299 421.799C1310.11 421.799 1319.15 412.759 1319.15 401.649C1319.15 390.539 1310.11 381.499 1299 381.499V380.359C1310.74 380.359 1320.29 389.909 1320.29 401.649C1320.29 413.389 1310.74 422.939 1299 422.939ZM1299 419.979C1288.89 419.979 1280.67 411.759 1280.67 401.649C1280.67 391.539 1288.89 383.319 1299 383.319C1309.11 383.319 1317.33 391.539 1317.33 401.649H1316.19C1316.19 392.169 1308.48 384.459 1299 384.459C1289.52 384.459 1281.81 392.169 1281.81 401.649C1281.81 411.129 1289.52 418.839 1299 418.839V419.979Z" fill="white"/>
<path d="M1296.39 408.7L1288.71 401.02L1289.51 400.21L1296.39 407.09L1308.48 395L1309.28 395.8L1296.39 408.7Z" fill="white"/>
<path d="M151.971 332.648C149.951 332.648 148.311 331.008 148.311 328.988C148.311 326.968 149.951 325.328 151.971 325.328C153.991 325.328 155.631 326.968 155.631 328.988C155.621 331.008 153.981 332.648 151.971 332.648ZM151.971 326.328C150.501 326.328 149.311 327.518 149.311 328.988C149.311 330.458 150.501 331.648 151.971 331.648C153.441 331.648 154.631 330.448 154.631 328.988C154.631 327.518 153.431 326.328 151.971 326.328Z" fill="white"/>
<path d="M120.831 393.377C118.491 393.377 116.581 391.477 116.571 389.137V388.497C114.061 387.687 112.341 385.347 112.321 382.687L112.261 369.937L114.791 369.927C113.811 354.067 101.901 331.867 101.781 331.637C98.1409 326.127 96.2109 319.677 96.2109 313.027C96.2109 294.327 111.421 279.117 130.121 279.117C148.821 279.117 164.031 294.327 164.031 313.027C164.031 319.687 162.101 326.137 158.431 331.677C157.961 332.557 146.491 354.087 145.461 369.777L147.921 369.767L147.981 382.517C147.991 385.177 146.291 387.527 143.791 388.367V389.007C143.801 391.357 141.901 393.277 139.551 393.287L120.831 393.377C120.851 393.377 120.841 393.377 120.831 393.377ZM113.271 370.937L113.331 382.697C113.341 385.037 114.931 387.077 117.201 387.657L117.571 387.757L117.581 389.147C117.591 390.947 119.041 392.387 120.861 392.397L139.571 392.307C141.371 392.297 142.821 390.827 142.821 389.027L142.811 387.637L143.181 387.537C145.441 386.937 147.011 384.877 147.001 382.547L146.941 370.787L144.421 370.797L144.451 370.267C145.261 354.317 157.091 332.117 157.591 331.187C161.171 325.767 163.041 319.507 163.041 313.047C163.041 294.897 148.281 280.137 130.131 280.137C111.981 280.137 97.2209 294.897 97.2209 313.047C97.2209 319.507 99.1009 325.767 102.651 331.147C102.761 331.307 115.071 354.287 115.831 370.417L115.851 370.937H113.271ZM130.491 346.937C130.281 346.937 130.151 346.937 130.121 346.927C130.111 346.927 130.111 346.927 130.101 346.927C130.011 346.927 128.931 346.967 127.181 346.787L127.271 345.797C129.321 345.977 130.921 345.977 132.971 345.797L133.061 346.787C131.861 346.917 130.961 346.937 130.491 346.937Z" fill="white"/>
<path d="M139.421 369.938H120.641V370.938H139.421V369.938Z" fill="white"/>
<path d="M131.021 251.477H129.031V268.507H131.021V251.477Z" fill="white"/>
<path d="M162.72 259.278L150.678 271.32L152.085 272.727L164.127 260.686L162.72 259.278Z" fill="white"/>
<path d="M97.3173 259.288L95.9102 260.695L107.952 272.737L109.359 271.33L97.3173 259.288Z" fill="white"/>
<path d="M116.542 333.358L115.568 333.586L120.152 353.126L121.126 352.898L116.542 333.358Z" fill="white"/>
<path d="M143.522 333.341L138.916 352.875L139.889 353.104L144.495 333.57L143.522 333.341Z" fill="white"/>
<path d="M168.081 313.247H167.081C167.081 292.817 150.451 276.188 130.021 276.188V275.188C151.011 275.188 168.081 292.257 168.081 313.247Z" fill="white"/>
<path d="M159.57 313.243H158.57C158.57 297.503 145.76 284.703 130.03 284.703C114.29 284.703 101.49 297.503 101.49 313.243H100.49C100.49 296.953 113.74 283.703 130.03 283.703C146.31 283.703 159.57 296.953 159.57 313.243Z" fill="white"/>
<path d="M1196.11 217.422C1194.09 217.422 1192.45 215.782 1192.45 213.762C1192.45 211.742 1194.09 210.102 1196.11 210.102C1198.13 210.102 1199.77 211.742 1199.77 213.762C1199.77 215.782 1198.13 217.422 1196.11 217.422ZM1196.11 211.112C1194.64 211.112 1193.45 212.302 1193.45 213.772C1193.45 215.242 1194.64 216.432 1196.11 216.432C1197.58 216.432 1198.77 215.232 1198.77 213.772C1198.77 212.302 1197.58 211.112 1196.11 211.112Z" fill="white"/>
<path d="M1164.98 278.158C1162.64 278.158 1160.73 276.258 1160.72 273.918V273.278C1158.21 272.468 1156.49 270.128 1156.47 267.468L1156.41 254.718L1158.94 254.708C1157.96 238.848 1146.05 216.648 1145.93 216.418C1142.29 210.908 1140.36 204.458 1140.36 197.808C1140.36 179.108 1155.57 163.898 1174.27 163.898C1192.97 163.898 1208.18 179.108 1208.18 197.808C1208.18 204.468 1206.25 210.918 1202.58 216.458C1202.11 217.338 1190.64 238.868 1189.61 254.558L1192.07 254.548L1192.13 267.298C1192.14 269.958 1190.44 272.308 1187.94 273.148V273.788C1187.95 276.138 1186.05 278.058 1183.7 278.068L1164.99 278.158H1164.98ZM1157.41 255.718L1157.47 267.478C1157.48 269.818 1159.07 271.858 1161.34 272.438L1161.71 272.538L1161.72 273.928C1161.73 275.728 1163.18 277.168 1165 277.178L1183.71 277.088C1185.51 277.078 1186.96 275.608 1186.96 273.808L1186.95 272.418L1187.32 272.318C1189.58 271.718 1191.15 269.658 1191.14 267.328L1191.08 255.568L1188.56 255.578L1188.59 255.048C1189.4 239.098 1201.23 216.898 1201.73 215.968C1205.31 210.548 1207.18 204.288 1207.18 197.828C1207.18 179.678 1192.42 164.918 1174.27 164.918C1156.12 164.918 1141.36 179.678 1141.36 197.828C1141.36 204.288 1143.24 210.548 1146.79 215.928C1146.9 216.088 1159.21 239.068 1159.97 255.198L1159.99 255.718H1157.41ZM1174.63 231.718C1174.42 231.718 1174.29 231.718 1174.26 231.708C1174.25 231.708 1174.25 231.708 1174.24 231.708C1174.15 231.708 1173.07 231.748 1171.32 231.568L1171.41 230.578C1173.46 230.758 1175.06 230.758 1177.11 230.578L1177.2 231.568C1176 231.698 1175.11 231.718 1174.63 231.718Z" fill="white"/>
<path d="M1183.56 254.719H1164.78V255.719H1183.56V254.719Z" fill="white"/>
<path d="M1175.16 136.258H1173.17V153.288H1175.16V136.258Z" fill="white"/>
<path d="M1206.86 144.06L1194.82 156.102L1196.23 157.509L1208.27 145.467L1206.86 144.06Z" fill="white"/>
<path d="M1141.44 144.077L1140.03 145.484L1152.07 157.526L1153.48 156.119L1141.44 144.077Z" fill="white"/>
<path d="M1160.76 218.154L1159.79 218.383L1164.37 237.923L1165.35 237.695L1160.76 218.154Z" fill="white"/>
<path d="M1187.68 218.145L1183.07 237.68L1184.05 237.909L1188.65 218.375L1187.68 218.145Z" fill="white"/>
<path d="M1212.23 198.029H1211.23C1211.23 177.599 1194.6 160.969 1174.17 160.969V159.969C1195.15 159.969 1212.23 177.039 1212.23 198.029Z" fill="white"/>
<path d="M1203.71 198.024H1202.71C1202.71 182.284 1189.9 169.484 1174.17 169.484C1158.43 169.484 1145.63 182.284 1145.63 198.024H1144.63C1144.63 181.734 1157.88 168.484 1174.17 168.484C1190.46 168.484 1203.71 181.734 1203.71 198.024Z" fill="white"/>
<path d="M1139 359.714C1139 359.714 1138.08 356.224 1139.06 354.714C1140.04 353.204 1140.62 350.764 1140.76 349.994C1140.95 348.964 1142.72 345.854 1141.42 345.774C1140.11 345.704 1138.26 350.804 1137.67 351.824C1137.07 352.844 1135.44 348.374 1134.45 347.874C1133.46 347.374 1125.59 351.474 1127.1 354.364C1128.6 357.264 1132.32 359.114 1132.47 359.684C1132.62 360.264 1133.47 361.844 1133.47 361.844L1139 359.714Z" fill="#EEA886"/>
<path d="M1134.96 348.451C1134.96 348.451 1129.71 339.971 1128.83 339.761C1127.95 339.551 1127.45 339.921 1127.91 340.741C1128.36 341.561 1132.72 349.111 1132.72 349.111C1132.72 349.111 1124.62 340.331 1123.96 339.991C1123.57 339.801 1122.58 340.461 1122.78 340.931C1122.98 341.391 1130.43 350.621 1130.43 350.621C1130.43 350.621 1122.85 342.441 1122.19 342.331C1121.61 342.241 1120.82 343.051 1121.34 343.701C1121.85 344.351 1128.39 352.401 1128.39 352.401C1128.39 352.401 1122.44 346.841 1121.78 347.081C1121.38 347.231 1120.49 347.771 1122.08 349.151C1123.67 350.531 1127.01 354.231 1127.01 354.231L1134.96 348.451Z" fill="#EEA886"/>
<path opacity="0.68" d="M1268.77 355.633H1046.99C1042.36 355.633 1038.61 351.883 1038.61 347.253V312.333C1038.61 307.703 1042.36 303.953 1046.99 303.953H1268.76C1273.39 303.953 1277.14 307.703 1277.14 312.333V347.253C1277.15 351.883 1273.4 355.633 1268.77 355.633Z" fill="url(#paint0_linear_814_7038)"/>
<path d="M1089.99 319.812H1051.37V323.763H1089.99V319.812Z" fill="#E0E0E0"/>
<path d="M1124.93 319.812H1097.51V323.763H1124.93V319.812Z" fill="#E0E0E0"/>
<path d="M1123.11 334.695H1097.51V338.645H1123.11V334.695Z" fill="#E0E0E0"/>
<path d="M1262.29 319.812H1234.87V323.763H1262.29V319.812Z" fill="#78C2FF"/>
<path d="M1167.24 319.812H1132.31V323.763H1167.24V319.812Z" fill="#1487E3"/>
<path d="M1228.02 319.812H1193.09V323.763H1228.02V319.812Z" fill="#FFC055"/>
<path d="M1186.5 319.812H1173.71V323.763H1186.5V319.812Z" fill="#E0E0E0"/>
<path d="M1071.37 334.695H1051.37V338.645H1071.37V334.695Z" fill="#78C2FF"/>
<path d="M1082.75 334.695H1076.29V338.645H1082.75V334.695Z" fill="#1487E3"/>
<path d="M1262.29 334.695H1208.9V338.645H1262.29V334.695Z" fill="#E0E0E0"/>
<path d="M1094.08 334.695H1087.49V338.645H1094.08V334.695Z" fill="#FFC455"/>
<path d="M1203.97 334.695H1186.5V338.645H1203.97V334.695Z" fill="#1487E3"/>
<path d="M1181.88 334.695H1144.71V338.645H1181.88V334.695Z" fill="#78C2FF"/>
<path d="M1139.43 334.695H1126.64V338.645H1139.43V334.695Z" fill="#E0E0E0"/>
<path d="M1132.83 535.334C1132.83 535.334 1127.79 540.394 1123.45 540.944C1119.11 541.494 1114.08 543.124 1113.49 546.384C1112.9 549.654 1126.34 553.124 1131.63 550.564C1139.53 546.754 1141.82 548.264 1143.02 545.924C1144.22 543.584 1144 535.514 1144.18 534.734C1144.41 533.794 1132.83 535.334 1132.83 535.334Z" fill="#202338"/>
<path d="M1221.91 521.01C1221.91 521.01 1220.45 527.94 1217.23 530.6C1214.02 533.26 1210.8 537.21 1212.01 540.33C1213.22 543.46 1224.67 543.09 1228.77 534.82C1231.36 529.59 1234.37 528.69 1234.14 526.05C1233.91 523.42 1229.9 517.78 1229.65 517.02C1229.34 516.07 1221.91 521.01 1221.91 521.01Z" fill="#202338"/>
<path d="M1166.9 421.831C1166.9 421.831 1149.52 457.821 1145.6 466.951C1141.96 475.411 1138.23 490.601 1137.72 496.541C1137.09 504.011 1129.94 534.401 1129.49 536.581C1129.05 538.761 1144.64 537.451 1144.64 537.451C1144.64 537.451 1158.22 485.681 1161.82 478.341C1164.22 473.441 1182.26 440.831 1183.85 442.861C1185.44 444.881 1195.14 469.251 1196.32 475.091C1197.5 480.931 1219.71 524.401 1219.71 524.401C1219.71 524.401 1230.08 523.641 1232.12 519.691C1232.12 519.691 1215.56 475.641 1213.72 467.631C1212.78 463.551 1209.35 437.851 1205.03 418.151C1202.8 408.001 1166.9 421.831 1166.9 421.831Z" fill="#1C4054"/>
<path d="M1210.93 367.016C1210.93 367.016 1204.96 384.996 1205.09 389.276C1205.22 393.556 1201.77 368.346 1210.93 367.016Z" fill="#518AFA"/>
<path d="M1168.5 373.649C1168.5 373.649 1167.76 376.129 1166.35 379.119C1165.84 380.209 1165.23 381.369 1164.55 382.499C1164.43 382.699 1164.31 382.889 1164.18 383.089C1163.69 383.849 1163.17 384.589 1162.6 385.269C1160.82 387.429 1158.67 389.069 1156.18 389.259C1151.07 389.639 1132.73 361.589 1132.73 361.589L1141.5 357.609C1141.5 357.609 1153.11 374.369 1154.91 373.449C1156.71 372.529 1158.58 365.719 1158.58 365.719C1160.71 364.539 1163.97 367.799 1166.16 370.489C1166.3 370.659 1166.44 370.839 1166.57 371.009C1167.73 372.479 1168.5 373.649 1168.5 373.649Z" fill="#518AFA"/>
<path d="M1206.09 421.023C1196.16 429.913 1164.43 426.973 1164.43 426.973C1164.89 425.873 1168.11 392.793 1166.98 385.323C1165.85 377.853 1166.49 371.503 1165.5 371.213C1164.5 370.923 1157.68 368.543 1157.68 368.543C1157.68 368.543 1161.31 357.003 1162.83 354.503C1164.35 352.003 1175.22 348.343 1175.22 348.343C1175.22 348.343 1183.66 345.313 1192.61 346.373C1207.56 348.143 1209.36 352.543 1209.36 352.543L1205.89 374.753C1205.89 374.753 1205.89 374.833 1205.88 374.993C1205.86 375.493 1205.82 376.733 1205.76 378.453C1205.51 385.593 1204.97 400.883 1204.9 404.523C1204.76 410.383 1206.09 421.023 1206.09 421.023Z" fill="#518AFA"/>
<path d="M1195.07 346.776C1194.46 347.906 1193.8 348.886 1193.14 349.746C1188.47 355.766 1183.06 355.556 1183.06 355.556C1179.75 355.266 1177.99 353.126 1177.06 351.196C1176.26 349.526 1176.09 348.026 1176.09 348.026L1178.06 347.316C1178.22 346.816 1178.31 346.106 1178.35 345.316C1178.38 344.896 1178.39 344.446 1178.39 343.986C1178.39 343.596 1178.39 343.196 1178.38 342.806C1178.38 342.646 1178.37 342.486 1178.37 342.336C1178.31 340.666 1178.18 339.266 1178.18 339.266C1178.18 339.266 1192.35 331.606 1191.19 337.006C1190.66 339.476 1190.75 341.416 1191.1 342.836C1191.52 344.536 1192.32 345.516 1192.93 345.816C1194.28 346.466 1195.07 346.776 1195.07 346.776Z" fill="#EEA987"/>
<path d="M1154.37 357.681C1154.37 357.681 1153.59 356.981 1153.5 356.151C1153.35 354.711 1154.79 352.851 1153.13 351.541C1151.47 350.231 1145.53 354.231 1144.93 355.471C1144.32 356.711 1145.95 359.131 1149.77 361.451C1153.6 363.771 1154.37 357.681 1154.37 357.681Z" fill="#EEA886"/>
<path d="M1153.63 352.066C1153.63 352.066 1152.25 349.286 1150.31 346.386C1148.61 343.846 1146.22 341.146 1145.53 341.606C1144.58 342.236 1146.74 344.146 1148.24 346.776C1149.63 349.206 1148.92 348.966 1148.92 348.966C1148.92 348.966 1149.13 349.026 1147.07 346.676C1144.86 344.156 1142.15 341.476 1141.52 342.036C1141.13 342.386 1141.05 342.396 1141.69 343.436C1141.18 342.916 1140.96 342.976 1140.7 343.166C1139.38 344.146 1142.01 348.366 1143.06 350.036C1142.25 348.756 1141.51 347.906 1141.09 348.996C1140.61 350.246 1144.62 356.026 1145.84 358.246C1147.18 360.656 1153.63 352.066 1153.63 352.066Z" fill="#EEA886"/>
<path d="M1210.6 369.606C1217.02 361.796 1209.08 352.106 1209.08 352.106C1204.38 348.106 1194.11 364.896 1192.81 366.536C1191.52 368.176 1181.68 376.966 1178.94 379.926C1177.54 381.436 1171.66 374.986 1168.96 372.416C1167.34 370.876 1154.7 356.046 1154.7 356.046C1154.7 356.046 1146 362.326 1146.73 361.796C1147.46 361.266 1172.48 394.036 1177.13 394.276C1177.12 394.286 1195.1 388.476 1210.6 369.606Z" fill="#518AFA"/>
<path d="M1164.55 382.499C1164.43 382.699 1164.31 382.889 1164.18 383.089C1163.69 383.849 1163.17 384.589 1162.6 385.269C1161.39 383.829 1156.83 373.519 1156.76 373.359L1164.55 382.499Z" fill="#3D66BA"/>
<path d="M1203.54 377.227C1203.54 377.227 1195.49 384.447 1191.13 387.107C1186.76 389.777 1179.47 393.407 1178.66 393.727C1178.66 393.727 1197.96 389.957 1203.54 377.227Z" fill="#3D66BA"/>
<path d="M1170.67 319.48C1170.67 319.48 1167.6 325.18 1169.12 326.07C1170.38 326.8 1167.65 332.4 1167.29 333.31C1166.93 334.22 1169.57 334.89 1170.13 335.48C1170.69 336.07 1172.35 343.31 1174.53 343.53C1176.7 343.75 1186.5 340.34 1189.17 337.57C1191.84 334.8 1194.03 322.27 1192.24 316.99C1190.45 311.7 1176.1 309.52 1170.67 319.48Z" fill="#EEA886"/>
<path d="M1170.05 320.72C1170.05 320.72 1166.91 314.56 1172.61 309.99C1178.31 305.42 1188.83 313.44 1190.02 313.74C1191.2 314.05 1197.93 314.51 1194.53 326.32C1191.61 336.46 1191.21 336.89 1191.21 336.89C1191.21 336.89 1189.03 331.02 1187.8 330.12C1185.88 328.72 1181.65 329.06 1181.65 329.06C1181.65 329.06 1183.66 323.72 1180.52 322.96C1177.38 322.2 1173.24 319.54 1170.05 320.72Z" fill="#252E3B"/>
<path d="M1185.01 326.002C1185.29 325.272 1186.18 322.122 1188.89 323.972C1191.59 325.822 1187.21 331.752 1186.73 331.832C1186.25 331.902 1182.67 332.162 1185.01 326.002Z" fill="#EEA886"/>
<path d="M1188.87 337.844C1188.87 337.844 1186.57 342.394 1178.35 345.304C1178.38 344.884 1178.39 344.434 1178.39 343.974C1178.39 343.584 1178.39 343.184 1178.38 342.794C1178.38 342.794 1184.72 341.064 1188.87 337.844Z" fill="#A77860"/>
<path d="M262.17 180.906H304.43V211.536V217.996L297.98 211.536H262.17V180.906Z" fill="#78C2FF"/>
<path d="M293.72 191.789H272.89C272.48 191.789 272.15 191.459 272.15 191.049V190.209C272.15 189.799 272.48 189.469 272.89 189.469H293.72C294.13 189.469 294.46 189.799 294.46 190.209V191.049C294.46 191.459 294.13 191.789 293.72 191.789Z" fill="white"/>
<path d="M291.561 196.367H272.881C272.471 196.367 272.141 196.037 272.141 195.627V194.787C272.141 194.377 272.471 194.047 272.881 194.047H291.561C291.971 194.047 292.301 194.377 292.301 194.787V195.627C292.301 196.027 291.971 196.367 291.561 196.367Z" fill="white"/>
<path d="M286.891 201.054H272.881C272.471 201.054 272.141 200.724 272.141 200.314V199.474C272.141 199.064 272.471 198.734 272.881 198.734H286.891C287.301 198.734 287.631 199.064 287.631 199.474V200.314C287.631 200.724 287.301 201.054 286.891 201.054Z" fill="white"/>
<path d="M350.52 451.602H317.98V550.442H350.52V451.602Z" fill="#518AFA"/>
<path d="M203.64 499.214H464.85C470.31 499.214 474.74 494.784 474.74 489.324V310.874C474.74 305.414 470.31 300.984 464.85 300.984H203.64C198.18 300.984 193.75 305.414 193.75 310.874V489.314C193.75 494.784 198.18 499.214 203.64 499.214Z" fill="url(#paint1_linear_814_7038)"/>
<path d="M203.68 463.185H464.31V310.695H203.68V463.185Z" fill="url(#paint2_linear_814_7038)"/>
<path d="M407.451 546.719H261.051V554.179H407.451V546.719Z" fill="url(#paint3_linear_814_7038)"/>
<path d="M247.85 322.375H218.66V325.365H247.85V322.375Z" fill="#E0E0E0"/>
<path d="M277.09 344.875H256.02V347.865H277.09V344.875Z" fill="#E0E0E0"/>
<path d="M294.361 344.875H280.381V347.865H294.361V344.875Z" fill="#1487E3"/>
<path d="M322.929 435.234H308.949V438.224H322.929V435.234Z" fill="#1487E3"/>
<path d="M232.98 401.477H218.99V404.467H232.98V401.477Z" fill="#1487E3"/>
<path d="M330.901 344.875H297.131V347.865H330.901V344.875Z" fill="#E0E0E0"/>
<path d="M240.69 390.141H218.99V393.131H240.69V390.141Z" fill="#E0E0E0"/>
<path d="M298.989 412.727H277.289V415.717H298.989V412.727Z" fill="#E0E0E0"/>
<path d="M380.04 435.234H358.34V438.224H380.04V435.234Z" fill="#E0E0E0"/>
<path d="M262.49 412.727H249.24V415.717H262.49V412.727Z" fill="#E0E0E0"/>
<path d="M245.23 412.727H218.99V415.717H245.23V412.727Z" fill="#1487E3"/>
<path d="M233.46 423.977H218.99V426.967H233.46V423.977Z" fill="#E0E0E0"/>
<path d="M274.249 322.375H253.529V325.365H274.249V322.375Z" fill="#78C2FF"/>
<path d="M274.249 356.141H253.529V359.131H274.249V356.141Z" fill="#1487E3"/>
<path d="M252.02 367.391H243.17V370.381H252.02V367.391Z" fill="#E0E0E0"/>
<path d="M254.21 378.805H234.32V381.795H254.21V378.805Z" fill="#78C2FF"/>
<path d="M284.661 378.805H257.211V381.795H284.661V378.805Z" fill="#1487E3"/>
<path d="M371.6 423.977H344.15V426.967H371.6V423.977Z" fill="#1487E3"/>
<path d="M239.71 367.469H218.99V370.459H239.71V367.469Z" fill="#1487E3"/>
<path d="M231.29 378.805H218.99V381.795H231.29V378.805Z" fill="#1487E3"/>
<path d="M267.799 367.469H256.199V370.459H267.799V367.469Z" fill="#FF8761"/>
<path d="M230.94 435.234H219.34V438.224H230.94V435.234Z" fill="#FF8761"/>
<path d="M239.63 344.875H218.91V347.865H239.63V344.875Z" fill="#78C2FF"/>
<path d="M257.95 401.477H237.23V404.467H257.95V401.477Z" fill="#78C2FF"/>
<path d="M258.21 423.977H237.49V426.967H258.21V423.977Z" fill="#78C2FF"/>
<path d="M295.021 423.977H274.301V426.967H295.021V423.977Z" fill="#78C2FF"/>
<path d="M248.45 356.141H218.91V359.131H248.45V356.141Z" fill="#78C2FF"/>
<path d="M378.05 322.375H357.33V325.365H378.05V322.375Z" fill="#78C2FF"/>
<path d="M304.23 435.234H283.51V438.224H304.23V435.234Z" fill="#78C2FF"/>
<path d="M398.37 322.375H384.5V325.365H398.37V322.375Z" fill="#78C2FF"/>
<path d="M445.3 333.625H431.43V336.615H445.3V333.625Z" fill="#78C2FF"/>
<path d="M306.23 322.375H279.83V325.365H306.23V322.375Z" fill="#1487E3"/>
<path d="M410.9 435.234H384.5V438.224H410.9V435.234Z" fill="#1487E3"/>
<path d="M261.72 435.234H235.32V438.224H261.72V435.234Z" fill="#1487E3"/>
<path d="M409.089 333.625H382.689V336.615H409.089V333.625Z" fill="#1487E3"/>
<path d="M376.72 344.875H350.32V347.865H376.72V344.875Z" fill="#1487E3"/>
<path d="M353.781 435.234H327.381V438.224H353.781V435.234Z" fill="#1487E3"/>
<path d="M349.711 412.727H323.311V415.717H349.711V412.727Z" fill="#1487E3"/>
<path d="M342.339 356.141H315.939V359.131H342.339V356.141Z" fill="#1487E3"/>
<path d="M272.321 412.727H266.631V415.717H272.321V412.727Z" fill="#FF8761"/>
<path d="M398.809 344.875H380.039V347.865H398.809V344.875Z" fill="#78C2FF"/>
<path d="M352.16 322.375H325.76V325.365H352.16V322.375Z" fill="#FF8761"/>
<path d="M311.111 356.141H295.631V359.131H311.111V356.141Z" fill="#FF8761"/>
<path d="M298.99 401.648H283.51V404.638H298.99V401.648Z" fill="#FF8761"/>
<path d="M320.769 322.375H311.109V325.365H320.769V322.375Z" fill="#E0E0E0"/>
<path d="M289.49 356.141H279.83V359.131H289.49V356.141Z" fill="#E0E0E0"/>
<path d="M425.121 333.625H415.461V336.615H425.121V333.625Z" fill="#E0E0E0"/>
<path d="M233.78 333.625H218.66V336.615H233.78V333.625Z" fill="#1487E3"/>
<path d="M270.94 390.227H259V393.217H270.94V390.227Z" fill="#1487E3"/>
<path d="M242.37 333.625H237.49V336.615H242.37V333.625Z" fill="#1487E3"/>
<path d="M378.049 333.625H337.699V336.615H378.049V333.625Z" fill="#E0E0E0"/>
<path d="M339.34 423.977H298.99V426.967H339.34V423.977Z" fill="#E0E0E0"/>
<path d="M250.941 333.625H245.961V336.615H250.941V333.625Z" fill="#FF8761"/>
<path d="M333.979 333.625H320.779V336.615H333.979V333.625Z" fill="#1487E3"/>
<path d="M347.18 344.875H333.98V347.865H347.18V344.875Z" fill="#FF8761"/>
<path d="M317.71 412.727H304.51V415.717H317.71V412.727Z" fill="#FF8761"/>
<path d="M279.3 435.234H266.1V438.224H279.3V435.234Z" fill="#FF8761"/>
<path d="M317.279 333.625H289.189V336.615H317.279V333.625Z" fill="#1487E3"/>
<path d="M382.641 412.727H354.551V415.717H382.641V412.727Z" fill="#1487E3"/>
<path d="M279.461 401.648H263.051V404.638H279.461V401.648Z" fill="#1487E3"/>
<path d="M270.2 423.977H262V426.967H270.2V423.977Z" fill="#1487E3"/>
<path d="M285.211 333.625H275.551V336.615H285.211V333.625Z" fill="#78C2FF"/>
<path d="M384.871 423.977H375.211V426.967H384.871V423.977Z" fill="#FF8761"/>
<path d="M252.68 344.875H243.02V347.865H252.68V344.875Z" fill="#FF8761"/>
<path d="M254.609 390.227H244.949V393.217H254.609V390.227Z" fill="#FF8761"/>
<path d="M271.86 333.625H255.02V336.615H271.86V333.625Z" fill="#1487E3"/>
<path d="M313.46 358.081C313.46 358.081 313.9 361.671 314.48 363.261C315.06 364.841 318.23 368.501 316.89 372.021C315.44 375.831 309.1 372.161 306.52 371.001C303.93 369.841 304.52 367.731 304.25 365.151C303.97 362.571 302.71 362.501 303.18 360.681C303.65 358.861 306.47 355.391 306.47 355.391L313.46 358.081Z" fill="#999999"/>
<path d="M307.7 353.484C307.7 353.484 306.08 355.754 306.12 355.814C306.16 355.874 313.07 360.074 313.55 358.714C313.93 357.634 314.09 356.064 314.09 356.064L307.7 353.484Z" fill="#EEA886"/>
<path d="M284.299 360.62C284.299 360.62 282.189 362.47 280.299 365.3C278.409 368.14 273.389 368.29 273.179 372.16C272.959 376.03 279.999 376.15 283.699 374.89C287.399 373.63 287.949 369.85 290.189 368.9C292.419 367.95 293.579 367.19 293.409 365.34C293.239 363.49 291.999 360.5 291.999 360.5C291.999 360.5 290.609 360.94 289.799 361.03C288.979 361.13 286.229 361.16 284.299 360.62Z" fill="#999999"/>
<path d="M309.63 255.716C309.63 255.716 308.21 264.136 307.07 269.706C306.61 271.966 306.19 273.746 305.93 274.306C305.6 275.016 302.94 277.866 299.69 281.216C293.98 287.096 286.44 294.496 286.44 294.496L283.49 288.896C283.49 288.896 290.19 281.036 294.73 275.796C296.83 273.366 298.47 271.506 298.77 271.236C299.72 270.386 300.82 262.016 302.37 255.116C303.92 248.216 307.02 244.406 307.02 244.406L309.63 255.716Z" fill="#1487E3"/>
<path d="M299.69 281.225C293.98 287.105 286.44 294.505 286.44 294.505L283.49 288.905C283.49 288.905 290.19 281.045 294.73 275.805C296.13 276.485 298.68 278.115 299.69 281.225Z" fill="#EEA886"/>
<path d="M284.629 358.039L284.299 360.619C284.299 360.619 287.959 361.919 291.999 360.509L292.079 358.209L284.629 358.039Z" fill="#EEA886"/>
<path d="M336.65 293.365C336.86 294.115 297.83 293.365 297.83 293.365C297.83 293.365 308.62 285.505 309.33 283.405C310.03 281.305 306.58 268.715 306.13 264.615C305.77 261.335 304.87 246.665 307.03 244.425C309.29 242.085 317.43 239.625 317.43 239.625L329.29 240.065C329.29 240.065 331.25 240.475 332.65 241.125C334.05 241.775 342.05 244.625 343.35 248.625C344.65 252.625 335.37 265.475 335.37 265.475C335.37 265.475 335.35 266.055 335.32 266.995C335.29 268.255 335.23 270.175 335.18 272.255C335.12 274.955 335.06 277.915 335.06 280.085C335.07 285.195 336.44 292.615 336.65 293.365Z" fill="#1487E3"/>
<path d="M336.65 293.369C336.65 293.369 341.96 301.169 342.03 306.489C342.1 311.809 332.61 329.639 331.17 332.189C326.85 339.859 315 356.399 315 356.399C315 356.399 312.96 356.349 306.58 353.879C306.58 353.879 314.46 332.029 315.46 329.769C319.7 320.149 322.06 313.329 320.64 311.679C319.22 310.029 315.33 308.379 314.21 307.399C313.09 306.429 293.5 311.099 291.44 311.629C286.13 313.009 288.55 322.259 289.72 326.399C291.69 333.339 293.41 358.389 293.41 358.389C293.41 358.389 289.62 359.999 283.28 358.639C283.28 358.639 270.83 313.409 270.43 308.909C270.03 304.409 269.83 296.999 300.52 291.359L336.65 293.369Z" fill="#E8E8E8"/>
<path d="M320.68 213.849C320.68 213.849 310.38 211.529 312.74 224.489C315.09 237.449 317.57 238.469 323.78 235.789C329.99 233.109 329.44 224.809 329.75 220.729C330.06 216.659 323.97 213.999 320.68 213.849Z" fill="#EEA886"/>
<path d="M317.959 242.95C317.959 242.95 322.519 247.79 329.729 243.39C329.729 243.39 328.119 232.91 328.969 227.81C329.819 222.71 319.569 235.72 319.569 235.72C319.709 235.79 319.789 236.28 319.819 236.97C319.839 237.56 319.809 238.29 319.709 239.05C319.489 240.74 318.959 242.54 317.959 242.95Z" fill="#EEA886"/>
<path d="M329.25 227.378C329.25 227.378 328.98 223.298 327.49 223.168C326 223.038 325.77 224.688 325.77 224.688L324.26 224.978C324.26 224.978 324.74 221.398 323.25 220.768C321.76 220.148 313.6 222.738 312.41 221.688C311.21 220.638 311.78 213.378 313.94 212.388C316.1 211.398 322.07 209.168 326.45 212.128C326.45 212.128 329.86 211.738 330.37 214.488C330.86 217.238 330.17 225.328 329.25 227.378Z" fill="#3A3F47"/>
<path d="M319.699 239.051C327.139 236.761 327.699 232.281 327.699 232.211C325.249 236.421 319.799 236.971 319.799 236.971C319.819 237.561 319.789 238.291 319.699 239.051Z" fill="#A77860"/>
<path d="M332.77 241.18C332.77 241.18 327.32 252.02 318.53 251.32C309.73 250.62 317.03 239.73 317.43 239.62C317.87 239.52 326.45 237.38 332.77 241.18Z" fill="#EEA886"/>
<path d="M293.369 292.819C293.369 292.819 320.319 296.139 336.649 293.369L305.449 289.469C305.449 289.469 305.269 290.269 293.369 292.819Z" fill="#1487E3"/>
<path d="M313.53 288.234L311.52 289.254C311.52 289.254 311.98 292.444 313.08 293.414L315.33 292.834C315.33 292.834 314.86 289.334 313.53 288.234Z" fill="#EEA886"/>
<path d="M344.719 281.709C344.319 282.169 339.019 284.309 333.029 286.609C324.849 289.759 315.629 292.739 315.629 292.739L313.529 288.239C313.529 288.239 323.189 282.989 329.719 279.309C332.799 277.569 335.189 276.179 335.519 275.859C336.569 274.859 336.839 273.259 336.069 270.459C335.299 267.659 333.519 254.819 333.319 253.319C333.119 251.819 333.819 247.819 337.569 247.619C341.319 247.419 343.229 248.479 343.229 248.479C343.229 248.479 344.169 248.869 344.869 257.969C345.569 267.069 345.669 280.609 344.719 281.709Z" fill="#1487E3"/>
<path d="M335.32 266.998C335.29 268.258 335.23 270.178 335.18 272.258C331.52 263.288 333.63 256.128 333.67 256.008C333.28 258.458 335.29 266.878 335.32 266.998Z" fill="#0C5087"/>
<path d="M307.07 269.711C306.61 271.971 306.19 273.751 305.93 274.321C304.68 268.271 305.81 260.531 305.81 260.531C305.98 264.221 307.07 269.711 307.07 269.711Z" fill="#0C5087"/>
<path d="M333.029 286.605C324.849 289.755 315.329 292.835 315.329 292.835L313.529 288.235C313.529 288.235 323.189 282.985 329.719 279.305C329.719 279.305 332.089 280.465 333.029 286.605Z" fill="#EEA886"/>
<path d="M312.949 293.109L274.639 292.539L293.979 302.359L312.949 293.109Z" fill="#444C94"/>
<path d="M293.98 302.359L312.95 295.019V293.109L292.48 300.489L293.98 302.359Z" fill="#303669"/>
<path d="M311.96 289.327C311.96 289.327 309.57 288.957 307.91 288.567C306.63 288.267 303.45 288.677 302.64 289.507C301.83 290.327 299.25 296.047 298.76 296.397C298.27 296.747 299.01 297.557 299.87 297.147C299.87 297.147 300.66 299.647 302.6 298.717C304.54 297.777 305.86 295.737 306.87 295.367C307.89 295.007 313.8 293.187 313.8 293.187C313.8 293.187 313.48 288.717 311.96 289.327Z" fill="#EEA886"/>
<path d="M303.219 289.125C303.219 289.125 301.679 289.865 301.279 290.195C300.879 290.525 299.249 291.745 298.859 292.025C298.469 292.315 299.449 293.125 302.359 291.865C305.269 290.615 303.219 289.125 303.219 289.125Z" fill="#EEA886"/>
<path d="M293.98 302.36L282.59 271.25L245.85 271.85L256.71 300.52L293.98 302.36Z" fill="#303669"/>
<path d="M270.83 285.015C271.95 287.255 271.61 289.695 270.07 290.465C268.53 291.235 266.38 290.045 265.25 287.805C264.13 285.565 264.47 283.125 266.01 282.355C267.56 281.575 269.71 282.775 270.83 285.015Z" fill="#518AFA"/>
<path d="M325.8 222.957C325.93 221.817 328.19 221.397 328.38 223.107C328.56 224.817 327.35 227.827 326.5 227.537C325.64 227.237 325.61 224.527 325.8 222.957Z" fill="#EEA886"/>
<path d="M324.91 481.701C324.91 486.701 328.97 490.761 333.97 490.761C338.98 490.761 343.03 486.701 343.03 481.701C343.03 476.691 338.97 472.641 333.97 472.641C328.97 472.631 324.91 476.691 324.91 481.701Z" fill="#696969"/>
<path d="M454.021 424.101C454.021 424.101 451.221 425.351 449.891 424.781C448.561 424.211 446.511 424.101 445.861 424.101C445.001 424.101 442.281 423.131 442.331 424.191C442.381 425.251 446.731 425.991 447.621 426.321C448.511 426.651 444.951 428.611 444.621 429.481C444.291 430.351 448.301 436.061 450.571 434.441C452.841 432.811 454.061 429.561 454.521 429.361C454.981 429.151 456.221 428.241 456.221 428.241L454.021 424.101Z" fill="#EEA886"/>
<path d="M445.051 428.969C445.051 428.969 438.481 434.419 438.381 435.149C438.281 435.889 438.621 436.229 439.261 435.749C439.901 435.269 445.771 430.669 445.771 430.669C445.771 430.669 439.191 438.439 438.971 439.019C438.841 439.359 439.471 440.059 439.841 439.829C440.211 439.599 447.211 432.289 447.211 432.289C447.211 432.289 441.081 439.559 441.051 440.099C441.021 440.579 441.761 441.089 442.251 440.579C442.751 440.069 448.851 433.659 448.851 433.659C448.851 433.659 444.751 439.239 445.001 439.729C445.151 440.029 445.671 440.659 446.681 439.189C447.691 437.719 450.461 434.499 450.461 434.499L445.051 428.969Z" fill="#EEA886"/>
<path d="M499.28 542.226C499.28 542.226 499.54 551.146 498.26 551.686C496.99 552.226 492.16 549.116 490.03 546.046C487.9 542.976 492.69 535.836 493.48 531.896C493.81 530.246 497.56 527.276 499.38 528.126C501.21 528.976 502.54 531.156 502.54 531.156C502.54 531.156 497.91 534.346 499.28 542.226Z" fill="#3D6091"/>
<path d="M502.561 531.163C502.561 531.163 500.981 534.203 500.161 536.573C499.351 538.933 499.191 545.473 498.681 545.933C498.171 546.393 494.131 544.353 493.591 541.903C493.051 539.453 494.691 534.563 496.251 531.993C497.811 529.423 499.401 528.133 499.401 528.133C499.401 528.133 502.151 528.673 502.561 531.163Z" fill="#DE9673"/>
<path d="M493.49 531.898L489.15 538.238L489.97 538.798L493.33 533.898L493.49 531.898Z" fill="#3D6091"/>
<path d="M518.16 473.82C518.16 473.82 515.68 486.96 515.68 490.1C515.68 493.24 514.82 498.38 512.82 502.19C510.82 506 502.05 532.01 501.29 535.04C500.53 538.07 499.88 540.93 499.88 540.93C499.88 540.93 495.5 538.93 495.5 536.08C495.5 533.22 499.31 509.61 499.97 504.95C500.64 500.28 506.16 476.39 506.16 476.39L518.16 473.82Z" fill="#DE9673"/>
<path d="M504.161 472.963C504.161 472.963 505.021 483.913 504.921 486.763C504.821 489.623 503.491 496.093 503.491 497.803C503.491 499.523 503.491 535.023 504.911 539.303C506.331 543.583 500.921 540.643 500.921 540.643C500.921 540.643 491.491 517.283 491.491 507.543C491.491 497.803 492.631 492.943 491.971 486.753C491.301 480.563 487.111 472.383 487.111 472.383L504.161 472.963Z" fill="#EEA886"/>
<path d="M505.711 329.573C505.711 329.573 514.471 338.393 511.491 349.753C508.511 361.113 503.711 361.183 498.431 356.293C493.151 351.403 490.041 346.262 489.341 340.552C488.641 334.832 497.711 321.703 505.711 329.573Z" fill="#EEA886"/>
<path d="M507.42 367.46C507.42 367.46 506.12 364.49 505.21 361.14C505.05 360.55 504.9 359.95 504.78 359.35C504.33 357.24 504.15 355.17 504.63 353.75C506.02 349.62 495.87 352.48 495.87 352.48C495.87 352.48 497.84 363.4 495.87 367.08C493.9 370.76 507.42 367.46 507.42 367.46Z" fill="#EEA886"/>
<path d="M489.91 420.258C489.91 420.258 483.6 429.538 482.27 437.828C480.94 446.108 483.45 458.438 484.48 462.958C485.39 466.918 486.75 479.238 486.84 480.568C486.84 480.568 506.64 485.708 519.59 481.618C519.59 481.618 521.6 461.278 522.36 453.758C523.12 446.238 517.84 420.828 517.84 420.828L489.91 420.258Z" fill="#316EBF"/>
<path d="M452.25 424.581L455.8 428.601C455.8 428.601 477.03 411.371 477.98 409.081C478.93 406.801 486.12 393.931 486.41 392.601C486.41 392.601 487.79 396.161 488.93 399.631C489.41 401.071 490.02 403.701 490.3 404.841C491.25 408.741 491.36 414.991 489.9 420.261C489.9 420.261 507.1 426.671 517.83 420.831C517.83 420.831 516.69 411.501 518.4 405.471C520.11 399.441 529.06 378.431 529.06 378.431C529.06 378.431 524.3 369.611 519.35 367.891C514.4 366.171 508.75 364.891 508.75 364.891H497.02C497.02 364.891 489.3 366.901 487.57 367.451C484.48 368.431 481.6 372.351 481.03 375.871C480.46 379.391 472.37 403.451 471.41 404.121C470.46 404.801 452.25 424.581 452.25 424.581Z" fill="#EDDAD3"/>
<path d="M521.791 413.136C521.791 413.136 514.171 413.436 512.991 413.136C511.801 412.836 503.901 409.416 503.431 406.026C502.961 402.636 521.791 409.066 521.791 409.066V413.136Z" fill="#EEA886"/>
<path d="M509.38 550.112C509.38 550.112 515.26 556.972 514.6 558.212C513.94 559.452 508.16 560.072 504.53 559.012C500.9 557.952 500.13 549.272 498.23 545.662C497.44 544.152 498.5 539.432 500.48 538.932C502.46 538.442 504.9 539.302 504.9 539.302C504.9 539.302 503.28 544.782 509.38 550.112Z" fill="#5D89C4"/>
<path d="M504.91 539.311C504.91 539.311 505.6 542.721 506.47 545.091C507.33 547.471 511.38 552.721 511.27 553.411C511.16 554.091 506.67 555.061 504.69 553.481C502.71 551.901 500.88 547.001 500.47 543.981C500.06 540.961 500.28 539.011 500.28 539.011C500.28 539.011 503 537.611 504.91 539.311Z" fill="#EEA886"/>
<path d="M498.24 545.672L498.86 553.422L499.87 553.352L499.39 547.352L498.24 545.672Z" fill="#5D89C4"/>
<path d="M498.16 402.557L529.07 398.938L515.1 410.297L498.16 402.557Z" fill="#4C5285"/>
<path d="M520.861 408.78C520.861 408.78 521.181 412.72 520.861 413.54C520.861 413.54 539.921 411.64 541.701 408.97C543.481 406.3 543.411 403.07 543.411 403.07L520.861 408.78Z" fill="#EDDAD3"/>
<path d="M502.851 335.906C502.851 335.906 498.661 343.526 496.061 346.256C493.461 348.986 493.761 351.156 493.761 351.156C493.761 351.156 483.621 338.646 490.851 331.086C498.091 323.536 507.421 326.576 510.151 333.186C512.881 339.786 511.881 347.846 511.881 347.846C511.881 347.846 511.801 340.096 502.851 335.906Z" fill="#E8734D"/>
<path d="M500.091 327.94C500.091 327.94 501.101 322.36 492.361 320.15C483.621 317.93 479.691 328.01 480.761 334.15C481.841 340.3 489.311 355.88 485.261 357.91C481.201 359.94 479.621 355.57 479.621 355.57C479.621 355.57 480.891 363.24 486.531 361.46C492.171 359.69 491.411 347.23 490.561 342.26C489.711 337.29 500.091 327.94 500.091 327.94Z" fill="#E8734D"/>
<path d="M508.76 364.908C508.76 364.908 507.96 362.568 508.04 362.018C508.04 362.018 497 361.328 494.16 361.758C494.16 361.758 493.94 364.888 493.96 365.588C493.99 366.288 506.77 368.428 508.76 364.908Z" fill="#EDDAD3"/>
<path d="M515.1 410.302L498.16 404.533V402.562L515.67 408.182L515.1 410.302Z" fill="#323657"/>
<path d="M515.1 410.302L524.11 376.792L558.39 373.172L549 404.022L515.1 410.302Z" fill="#323657"/>
<path d="M497.27 355.18C497.3 355.26 499.52 360.35 505.21 361.14C505.05 360.55 504.9 359.95 504.78 359.35C504.78 359.35 501.66 359.98 497.27 355.18Z" fill="#A77860"/>
<path d="M486.41 392.601C486.41 392.601 487.79 396.161 488.93 399.631C490.09 389.891 488.52 382.141 488.52 382.141C488.4 387.351 486.41 392.601 486.41 392.601Z" fill="#CFBEB8"/>
<path d="M498.73 326.773C498.73 326.773 492.52 327.963 489.43 333.023C489.43 333.023 490.06 328.443 493.15 327.123C496.23 325.803 498.73 326.773 498.73 326.773Z" fill="#EDDAD3"/>
<path d="M1378.54 560.407C1370.68 517.617 1329.21 498.617 1328.79 498.447L1329.36 497.117C1329.81 497.297 1340.5 501.707 1352.34 511.637C1363.29 520.827 1377.24 536.647 1381.51 559.867L1378.54 560.407Z" fill="#86AB46"/>
<path d="M1333.1 522.066C1329.07 524.606 1324.88 526.826 1321.1 528.946C1322.03 526.306 1322.66 523.576 1322.61 520.796C1322.57 518.976 1322.62 514.707 1320.76 513.587C1318.73 512.367 1318.08 514.796 1318.23 516.296C1318.7 520.766 1320.04 528.296 1316.1 531.856C1315.49 532.236 1314.89 532.626 1314.33 533.006C1314.31 533.026 1314.29 533.026 1314.27 533.036C1314.13 533.096 1314.02 533.177 1313.94 533.277C1310.75 535.497 1308.45 537.737 1307.72 540.277C1307.72 540.277 1298.83 531.406 1295.55 517.036C1297.39 514.816 1301.71 513.567 1304.17 512.527C1306.24 511.647 1308.62 511.106 1310.57 509.986C1311.81 509.266 1314.26 506.506 1311.52 505.806C1310.06 505.426 1307.46 506.836 1306.19 507.326C1304.39 508.036 1302.6 508.826 1300.91 509.736C1298.7 510.916 1296.58 512.336 1295.01 514.216C1294.49 511.096 1294.25 507.756 1294.42 504.216C1294.52 502.626 1294.76 501.106 1295.11 499.646C1297.64 498.156 1300.12 497.376 1303.23 497.186C1305.3 497.066 1307.87 497.376 1309.89 496.686C1311.32 496.196 1312.94 494.706 1311.51 493.266C1310.24 491.966 1307.12 492.586 1305.57 492.836C1302.6 493.296 1299.18 494.316 1296.31 495.916C1300.13 486.566 1308.73 481.016 1314.27 480.726C1321.3 480.346 1325.07 494.086 1325.07 494.086C1325.08 494.076 1325.08 494.076 1325.08 494.066C1325.1 494.046 1325.1 494.046 1325.11 494.026C1325.31 493.756 1326.2 492.566 1327.61 491.406C1330.22 489.236 1334.57 487.186 1339.4 491.396C1347.17 498.196 1344.27 515.036 1333.1 522.066ZM1317.79 492.476C1318.2 493.656 1319.46 494.116 1320.49 494.626C1320.51 494.636 1320.52 494.636 1320.54 494.636C1320.56 494.666 1320.59 494.696 1320.62 494.726C1320.94 495.136 1321.65 495.066 1321.98 494.726C1322.38 494.326 1322.3 493.776 1321.98 493.366C1321.22 492.406 1320.18 491.636 1318.98 491.296C1318.3 491.126 1317.54 491.776 1317.79 492.476ZM1313.19 501.146C1313.19 501.616 1313.63 502.166 1314.15 502.106C1314.95 502.016 1315.74 502.076 1316.52 501.936C1317.03 501.836 1317.32 501.226 1317.19 500.756C1317.05 500.226 1316.53 499.996 1316.01 500.096C1315.4 500.206 1314.76 500.136 1314.14 500.206C1313.64 500.246 1313.19 500.586 1313.19 501.146ZM1332.01 509.936C1331.52 507.136 1330.68 500.576 1326.5 501.136C1325.87 501.216 1325.43 501.676 1325.57 502.346C1325.89 503.746 1327.08 504.626 1327.84 505.786C1328.9 507.366 1329.33 509.276 1329.85 511.076C1330.17 512.166 1331.77 511.826 1331.73 510.816C1331.94 510.606 1332.07 510.306 1332.01 509.936Z" fill="#387D19"/>
<path d="M1333.1 522.07C1329.07 524.61 1324.88 526.83 1321.1 528.95C1322.03 526.31 1322.66 523.58 1322.61 520.8C1322.57 518.98 1322.62 514.71 1320.76 513.59C1318.73 512.37 1318.08 514.8 1318.23 516.3C1318.7 520.77 1320.04 528.3 1316.1 531.86C1315.49 532.24 1314.89 532.63 1314.33 533.01C1314.31 533.03 1314.29 533.03 1314.27 533.04C1314.13 533.1 1314.02 533.18 1313.94 533.28C1310.75 535.5 1308.45 537.74 1307.72 540.28C1307.72 540.28 1308.63 512.59 1325.06 494.09C1325.07 494.08 1325.07 494.08 1325.07 494.07C1325.09 494.05 1325.09 494.05 1325.1 494.03C1325.95 493.08 1326.78 492.21 1327.6 491.41C1330.21 489.24 1334.56 487.19 1339.39 491.4C1347.17 498.2 1344.27 515.04 1333.1 522.07ZM1332.01 509.94C1331.52 507.14 1330.68 500.58 1326.5 501.14C1325.87 501.22 1325.43 501.68 1325.57 502.35C1325.89 503.75 1327.08 504.63 1327.84 505.79C1328.9 507.37 1329.33 509.28 1329.85 511.08C1330.17 512.17 1331.77 511.83 1331.73 510.82C1331.94 510.61 1332.07 510.31 1332.01 509.94Z" fill="#397315"/>
<path d="M1386.32 564.491L1384.06 564.341C1386.15 532.821 1411.25 508.891 1411.49 508.641L1412.12 509.261C1411.89 509.501 1388.35 533.821 1386.32 564.491Z" fill="#86AB46"/>
<path d="M1440.36 533.704C1440.36 533.704 1428.34 525.784 1414.61 525.144C1414.27 525.134 1413.93 525.094 1413.6 525.074C1413.42 522.914 1414.34 521.254 1415.22 519.344C1415.83 518.034 1416.54 516.614 1416.12 515.164C1415.96 514.604 1415.32 514.154 1414.74 514.504C1413.06 515.524 1412.52 517.414 1411.99 519.194C1411.42 521.124 1411.17 522.934 1411.47 524.804C1400.19 522.884 1396.58 513.814 1402.05 507.974C1407.44 502.214 1414.41 506.474 1415.66 507.314C1415.73 507.354 1415.79 507.404 1415.86 507.454C1415.86 507.454 1417.88 498.574 1427.55 505.054C1430.51 507.044 1432.85 510.494 1434.69 514.334C1433.08 513.554 1431.29 513.174 1429.54 513.374C1428.74 513.464 1428.49 514.724 1429.21 515.114C1430.44 515.764 1431.76 516.044 1433.08 516.444C1434.45 516.864 1435.49 517.574 1436.44 518.534C1439.28 526.114 1440.36 533.704 1440.36 533.704Z" fill="#387D19"/>
<path d="M1440.36 533.702C1440.36 533.702 1428.34 525.782 1414.61 525.142C1414.27 525.132 1413.93 525.092 1413.6 525.072C1413.42 522.912 1414.34 521.252 1415.22 519.342C1415.83 518.032 1416.54 516.612 1416.12 515.162C1415.96 514.602 1415.32 514.152 1414.74 514.502C1413.06 515.522 1412.52 517.412 1411.99 519.192C1411.42 521.122 1411.17 522.932 1411.47 524.802C1400.19 522.882 1396.58 513.812 1402.05 507.972C1407.44 502.212 1414.41 506.472 1415.66 507.312C1415.73 507.352 1415.79 507.402 1415.86 507.452C1431.12 518.532 1440.36 533.702 1440.36 533.702Z" fill="#397315"/>
<path d="M1384.28 567.098L1381.28 566.838C1382.8 512.698 1359.06 449.058 1358.8 448.428L1359.95 447.898C1360.18 448.458 1380.33 498.488 1383.84 547.998C1386.99 523.458 1391.71 480.928 1389.85 459.108L1391.23 458.998C1393.96 490.968 1384.4 566.338 1384.28 567.098Z" fill="#86AB46"/>
<path d="M1365.77 448.186C1368.38 449.826 1370.83 451.066 1371.74 453.836C1371.74 454.036 1371.8 454.206 1371.89 454.346C1371.93 454.526 1371.97 454.716 1372 454.906C1368.85 460.306 1364.44 466.016 1359.8 470.406C1360.48 467.726 1360.92 465.016 1360.6 462.196C1360.38 460.176 1360.21 456.146 1358.52 454.726C1357.18 453.586 1355.93 454.336 1355.65 455.936C1355.24 458.266 1356.91 461.556 1357.21 463.916C1357.63 467.256 1357.35 470.676 1355.91 473.726C1354.87 474.506 1353.84 475.216 1352.82 475.806C1350.64 477.066 1348.71 478.156 1346.99 479.116C1347.61 477.766 1347.97 476.296 1347.94 474.506C1347.88 471.956 1347.46 468.786 1344.97 467.496C1344.28 467.136 1343.6 467.866 1343.67 468.516C1343.98 471.466 1344.49 474.556 1343.89 477.496C1343.42 479.756 1342.1 481.316 1340.44 482.716C1336.01 485.176 1333.99 486.566 1332.83 489.036C1332.82 489.046 1332.82 489.056 1332.82 489.056C1332.82 489.056 1326.5 481.656 1325.16 470.726C1326.96 468.706 1328.89 466.816 1331.09 465.196C1333.24 463.616 1335.65 462.376 1337.77 460.786C1339.31 459.626 1340.96 456.766 1337.97 456.256C1335.62 455.856 1332.42 458.066 1330.62 459.376C1328.43 460.976 1326.43 463.026 1324.93 465.376C1325.03 462.956 1325.4 460.426 1326.14 457.786C1326.88 455.196 1327.89 452.836 1329.1 450.706C1329.19 450.676 1329.28 450.646 1329.37 450.586C1334.53 447.356 1340.37 446.646 1345.81 444.226C1347.18 443.606 1349.26 441.876 1347.13 440.726C1345.14 439.636 1340.73 441.836 1338.92 442.536C1336.73 443.366 1334.64 444.406 1332.65 445.616C1339.99 436.906 1350.36 433.436 1353.91 434.376C1358.8 435.686 1358.81 444.696 1358.81 444.696C1358.81 444.696 1365.37 435.466 1374.16 438.166C1378.03 439.356 1377.02 445.246 1373.5 452.166C1373.08 450.056 1371.74 448.296 1370.18 446.706C1368.86 445.366 1366.38 442.956 1364.32 444.186C1362.15 445.476 1364.5 447.386 1365.77 448.186ZM1343.13 451.386C1344.85 452.426 1347.01 451.766 1348.62 450.826C1349.49 450.316 1349.13 449.046 1348.38 448.946C1348.25 448.836 1348.09 448.766 1347.87 448.746C1346.33 448.626 1344.65 448.946 1343.31 449.746C1342.76 450.066 1342.44 450.966 1343.13 451.386ZM1336.31 468.296C1337.68 468.666 1339.09 467.766 1340.06 466.846C1340.13 466.786 1340.17 466.726 1340.21 466.656C1340.63 466.486 1340.93 466.126 1340.87 465.636C1340.8 465.176 1340.28 464.696 1339.78 464.826C1338.45 465.196 1337.1 465.716 1336.07 466.646C1335.6 467.096 1335.56 468.096 1336.31 468.296ZM1351.77 459.766C1351.29 458.976 1350.12 459.046 1349.94 460.036C1349.86 460.496 1349.92 460.976 1349.99 461.436C1350.02 461.606 1350.07 461.756 1350.16 461.856C1350.27 462.266 1350.44 462.656 1350.68 463.026C1351.11 463.706 1352.37 463.346 1352.38 462.546C1352.39 461.586 1352.27 460.586 1351.77 459.766Z" fill="#387D19"/>
<path d="M1358.83 444.686C1337.21 465.916 1332.96 488.346 1332.83 489.036C1332.82 489.046 1332.82 489.056 1332.82 489.056C1332.82 489.056 1326.5 481.656 1325.16 470.726C1326.96 468.706 1328.89 466.816 1331.09 465.196C1333.24 463.616 1335.65 462.376 1337.77 460.786C1339.31 459.626 1340.96 456.766 1337.97 456.256C1335.62 455.856 1332.42 458.066 1330.62 459.376C1328.43 460.976 1326.43 463.026 1324.93 465.376C1325.03 462.956 1325.4 460.426 1326.14 457.786C1326.88 455.196 1327.89 452.836 1329.1 450.706C1329.19 450.676 1329.28 450.646 1329.37 450.586C1334.53 447.356 1340.37 446.646 1345.81 444.226C1347.18 443.606 1349.26 441.876 1347.13 440.726C1345.14 439.636 1340.73 441.836 1338.92 442.536C1336.73 443.366 1334.64 444.406 1332.65 445.616C1339.99 436.906 1350.36 433.436 1353.91 434.376C1358.82 435.676 1358.83 444.686 1358.83 444.686ZM1340.87 465.636C1340.8 465.176 1340.28 464.696 1339.78 464.826C1338.45 465.196 1337.1 465.716 1336.07 466.646C1335.6 467.086 1335.57 468.086 1336.31 468.286C1337.68 468.656 1339.09 467.756 1340.06 466.836C1340.13 466.776 1340.17 466.716 1340.21 466.646C1340.63 466.486 1340.93 466.136 1340.87 465.636ZM1348.38 448.936C1348.25 448.826 1348.09 448.756 1347.87 448.736C1346.33 448.616 1344.65 448.936 1343.31 449.736C1342.76 450.056 1342.44 450.966 1343.13 451.376C1344.85 452.416 1347.01 451.756 1348.62 450.816C1349.49 450.306 1349.13 449.036 1348.38 448.936Z" fill="#397315"/>
<path d="M1411.59 458.698C1417.97 462.648 1424.68 465.148 1428.88 471.538C1426.88 475.878 1423.22 479.728 1419.56 483.228C1416.85 475.818 1411.77 467.728 1403.29 467.328C1402.38 467.288 1401.42 468.448 1402.23 469.248C1404.88 471.888 1408.01 473.968 1410.75 476.508C1413.57 479.108 1415.51 482.058 1417.61 485.068C1412.46 489.898 1407.92 494.078 1408.79 498.048C1408.81 498.148 1408.83 498.208 1408.84 498.258C1408.5 497.328 1405.34 490.058 1386.6 489.618C1386.07 485.658 1386.56 481.718 1387.38 477.798C1387.93 475.198 1389.71 472.178 1388.89 469.508C1388.75 469.058 1388.04 468.778 1387.63 469.018C1384.61 470.828 1383.95 473.948 1383.53 477.258C1383.06 481.018 1382.76 485.538 1383.88 489.388C1376.93 488.358 1371.16 483.908 1366.96 478.148C1368.91 472.798 1374.54 469.508 1378.46 465.768C1379.72 464.558 1382.13 461.478 1379.31 460.378C1376.81 459.388 1371.89 463.908 1370.43 465.288C1367.66 467.898 1365.89 471.058 1364.6 474.508C1359.42 465.448 1357.73 454.488 1360.78 448.118C1366.6 435.958 1380.27 438.248 1388.53 446.798C1388.53 446.798 1389.07 435.038 1408.48 433.168C1420.11 432.048 1426.85 440.738 1429.54 450.598C1427.49 449.138 1425.29 447.888 1423.07 446.838C1420.15 445.448 1417.19 444.598 1413.94 444.668C1412.28 444.688 1409.33 444.628 1408.15 446.138C1405.78 449.198 1411.68 450.488 1413.5 450.878C1419.93 452.268 1427.31 452.768 1430.86 459.188C1430.99 462.138 1430.77 464.978 1430.23 467.458C1428.5 465.298 1426.38 463.368 1424.59 461.748C1421.63 459.088 1416.22 455.928 1412.02 457.028C1411.31 457.168 1410.81 458.208 1411.59 458.698ZM1380.32 449.408C1380.19 449.028 1379.83 448.698 1379.32 448.728C1376.74 448.878 1374.45 449.878 1372.1 450.878C1370.59 451.528 1369.07 452.098 1368.05 453.448C1367.68 453.928 1367.88 454.688 1368.46 454.908C1370.03 455.508 1371.88 454.228 1373.35 453.738C1374.63 453.308 1375.97 452.978 1377.22 452.478C1378.33 452.028 1378.91 451.338 1379.93 450.788C1380.49 450.478 1380.54 449.858 1380.32 449.408ZM1383.41 453.398C1383.6 453.838 1384.22 454.158 1384.67 453.888C1384.87 453.778 1385.09 453.718 1385.3 453.608C1385.74 453.348 1386.01 452.858 1385.78 452.348C1385.59 451.908 1384.97 451.598 1384.52 451.858C1384.32 451.968 1384.1 452.028 1383.9 452.138C1383.45 452.388 1383.18 452.888 1383.41 453.398ZM1388.7 460.638C1388.5 460.198 1388.03 459.888 1387.47 460.138C1386.23 460.698 1385.32 461.768 1384.71 462.958C1384.42 463.508 1384.91 464.198 1385.47 464.258C1386.87 464.408 1388.62 463.028 1388.98 461.698C1389.1 461.318 1389 460.898 1388.7 460.638ZM1393.59 448.468C1393.72 449.368 1394.65 449.728 1395.45 449.788C1396.2 449.848 1397.14 449.798 1397.76 449.318C1398.5 448.748 1397.98 447.738 1397.26 447.628C1397.22 447.608 1397.17 447.578 1397.12 447.558C1396.57 447.338 1395.96 447.168 1395.37 447.098C1394.49 446.998 1393.45 447.398 1393.59 448.468ZM1403.43 457.388C1402.22 456.568 1400.98 455.778 1399.47 455.848C1398.91 455.878 1398.65 456.468 1398.66 456.938C1398.7 458.998 1401.16 459.428 1402.76 459.198C1402.95 459.178 1403.1 459.098 1403.22 459.008C1403.82 458.738 1404.13 457.868 1403.43 457.388Z" fill="#387D19"/>
<path d="M1408.86 498.258C1408.52 497.328 1405.36 490.058 1386.62 489.618C1386.09 485.658 1386.58 481.718 1387.4 477.798C1387.95 475.198 1389.73 472.178 1388.91 469.508C1388.77 469.058 1388.06 468.778 1387.65 469.018C1384.63 470.828 1383.97 473.948 1383.55 477.258C1383.08 481.018 1382.78 485.538 1383.9 489.388C1376.95 488.358 1371.18 483.908 1366.98 478.148C1368.93 472.798 1374.56 469.508 1378.48 465.768C1379.74 464.558 1382.15 461.478 1379.33 460.378C1376.83 459.388 1371.91 463.908 1370.45 465.288C1367.68 467.898 1365.91 471.058 1364.62 474.508C1359.44 465.448 1357.75 454.488 1360.8 448.118C1366.62 435.958 1380.29 438.248 1388.55 446.798C1399.85 467.248 1407.89 494.838 1408.82 498.078C1408.82 498.138 1408.84 498.198 1408.86 498.258ZM1380.32 449.408C1380.19 449.028 1379.83 448.698 1379.32 448.728C1376.74 448.878 1374.45 449.878 1372.1 450.878C1370.59 451.528 1369.07 452.098 1368.05 453.448C1367.68 453.928 1367.88 454.688 1368.46 454.908C1370.03 455.508 1371.88 454.228 1373.35 453.738C1374.63 453.308 1375.97 452.978 1377.22 452.478C1378.33 452.028 1378.91 451.338 1379.93 450.788C1380.49 450.478 1380.54 449.858 1380.32 449.408ZM1383.41 453.398C1383.6 453.838 1384.22 454.158 1384.67 453.888C1384.87 453.778 1385.09 453.718 1385.3 453.608C1385.74 453.348 1386.01 452.858 1385.78 452.348C1385.59 451.908 1384.97 451.598 1384.52 451.858C1384.32 451.968 1384.1 452.028 1383.9 452.138C1383.45 452.388 1383.18 452.888 1383.41 453.398ZM1388.7 460.638C1388.5 460.198 1388.03 459.888 1387.47 460.138C1386.23 460.698 1385.32 461.768 1384.71 462.958C1384.42 463.508 1384.91 464.198 1385.47 464.258C1386.87 464.408 1388.62 463.028 1388.98 461.698C1389.1 461.318 1389 460.898 1388.7 460.638Z" fill="#397315"/>
<path d="M1384.16 570.468L1381.9 570.428C1382.31 547.868 1370.26 514.368 1370.13 514.038L1371.01 513.648C1371.04 513.728 1374.44 522.158 1377.74 533.298C1380.78 543.598 1384.37 558.418 1384.16 570.468Z" fill="#86AB46"/>
<path d="M1381.16 520.516C1376.92 524.667 1371.95 527.307 1370.84 531.777C1370.7 532.347 1370.62 532.947 1370.62 533.587C1370.58 533.087 1369.98 527.967 1362.48 526.777C1361.41 526.607 1360.55 526.176 1359.85 525.566C1360.59 523.886 1361.59 522.407 1362.98 520.957C1364.26 519.617 1366.09 518.526 1366.88 516.796C1367.26 515.946 1366.27 515.366 1365.56 515.606C1363.45 516.336 1361.2 518.276 1359.86 520.016C1359.14 520.946 1358.55 521.976 1358.17 523.066C1356.29 518.086 1358.73 509.716 1362.57 507.706C1367.91 504.926 1369.74 511.866 1369.74 511.866C1369.74 511.866 1369.75 511.676 1369.79 511.346V511.336C1370.01 509.606 1371.14 504.356 1376.62 506.186C1383.14 508.356 1385.96 515.816 1381.16 520.516Z" fill="#387D19"/>
<path d="M1370.83 531.774C1370.73 532.784 1370.64 533.424 1370.61 533.584C1370.57 533.084 1369.97 527.964 1362.47 526.774C1361.4 526.604 1360.54 526.174 1359.84 525.564C1360.58 523.884 1361.58 522.404 1362.97 520.954C1364.25 519.614 1366.08 518.524 1366.87 516.794C1367.25 515.944 1366.26 515.364 1365.55 515.604C1363.44 516.334 1361.19 518.274 1359.85 520.014C1359.13 520.944 1358.54 521.974 1358.16 523.064C1356.28 518.084 1358.72 509.714 1362.56 507.704C1367.9 504.924 1369.73 511.864 1369.73 511.864C1369.73 511.864 1369.74 511.674 1369.78 511.344C1371.73 519.764 1371.21 528.164 1370.83 531.774Z" fill="#397315"/>
<path d="M48.8802 573.22C56.7402 530.43 98.2102 511.43 98.6302 511.26L98.0602 509.93C97.6102 510.11 86.9202 514.52 75.0802 524.45C64.1302 533.64 50.1802 549.46 45.9102 572.68L48.8802 573.22Z" fill="#86AB46"/>
<path d="M94.3208 534.879C98.3508 537.419 102.541 539.639 106.321 541.759C105.391 539.119 104.761 536.389 104.811 533.609C104.851 531.789 104.801 527.519 106.661 526.399C108.691 525.179 109.341 527.609 109.191 529.109C108.721 533.579 107.381 541.109 111.321 544.669C111.931 545.049 112.531 545.439 113.091 545.819C113.111 545.839 113.131 545.839 113.151 545.849C113.291 545.909 113.401 545.989 113.481 546.089C116.671 548.309 118.971 550.549 119.701 553.089C119.701 553.089 128.591 544.219 131.871 529.849C130.031 527.629 125.711 526.379 123.251 525.339C121.181 524.459 118.791 523.919 116.851 522.799C115.611 522.079 113.161 519.319 115.901 518.619C117.361 518.239 119.961 519.649 121.231 520.139C123.031 520.849 124.821 521.639 126.511 522.549C128.721 523.729 130.841 525.149 132.411 527.029C132.931 523.909 133.171 520.569 133.001 517.029C132.901 515.439 132.661 513.919 132.311 512.459C129.781 510.979 127.301 510.189 124.191 509.999C122.121 509.879 119.551 510.189 117.531 509.499C116.101 509.009 114.481 507.519 115.911 506.079C117.181 504.779 120.301 505.399 121.851 505.649C124.821 506.109 128.241 507.139 131.111 508.729C127.291 499.379 118.691 493.829 113.151 493.539C106.121 493.159 102.351 506.899 102.351 506.899C102.341 506.889 102.341 506.889 102.341 506.879C102.321 506.859 102.321 506.859 102.311 506.839C102.111 506.569 101.221 505.379 99.8108 504.219C97.2008 502.049 92.8508 499.999 88.0208 504.209C80.2408 511.009 83.1408 527.849 94.3208 534.879ZM109.631 505.289C109.221 506.469 107.961 506.929 106.931 507.439C106.921 507.449 106.901 507.449 106.881 507.449C106.861 507.479 106.831 507.509 106.801 507.539C106.481 507.949 105.771 507.879 105.441 507.539C105.041 507.139 105.121 506.589 105.441 506.179C106.201 505.219 107.241 504.449 108.441 504.109C109.111 503.939 109.881 504.589 109.631 505.289ZM114.221 513.959C114.221 514.429 113.781 514.979 113.261 514.919C112.461 514.829 111.671 514.889 110.891 514.749C110.381 514.649 110.091 514.039 110.221 513.569C110.361 513.039 110.881 512.809 111.401 512.909C112.011 513.019 112.651 512.949 113.271 513.019C113.771 513.069 114.221 513.399 114.221 513.959ZM95.4008 522.749C95.8908 519.949 96.7308 513.389 100.911 513.949C101.541 514.029 101.981 514.489 101.841 515.159C101.521 516.559 100.331 517.439 99.5708 518.599C98.5108 520.179 98.0808 522.089 97.5608 523.889C97.2408 524.979 95.6408 524.639 95.6808 523.629C95.4708 523.419 95.3408 523.119 95.4008 522.749Z" fill="#387D19"/>
<path d="M94.3204 534.883C98.3504 537.423 102.54 539.643 106.32 541.763C105.39 539.123 104.76 536.393 104.81 533.613C104.85 531.793 104.8 527.523 106.66 526.403C108.69 525.183 109.34 527.613 109.19 529.113C108.72 533.583 107.38 541.113 111.32 544.673C111.93 545.053 112.53 545.443 113.09 545.823C113.11 545.843 113.13 545.843 113.15 545.853C113.29 545.913 113.4 545.993 113.48 546.093C116.67 548.313 118.97 550.553 119.7 553.093C119.7 553.093 118.79 525.403 102.36 506.903C102.35 506.893 102.35 506.893 102.35 506.883C102.33 506.863 102.33 506.863 102.32 506.843C101.47 505.893 100.64 505.023 99.8204 504.223C97.2104 502.053 92.8604 500.003 88.0304 504.213C80.2404 511.013 83.1404 527.853 94.3204 534.883ZM95.4004 522.753C95.8904 519.953 96.7304 513.393 100.91 513.953C101.54 514.033 101.98 514.493 101.84 515.163C101.52 516.563 100.33 517.443 99.5704 518.603C98.5104 520.183 98.0804 522.093 97.5604 523.893C97.2404 524.983 95.6404 524.643 95.6804 523.633C95.4704 523.423 95.3404 523.123 95.4004 522.753Z" fill="#397315"/>
<path d="M41.091 577.311L43.351 577.161C41.261 545.641 16.161 521.711 15.921 521.461L15.291 522.081C15.531 522.321 39.061 546.651 41.091 577.311Z" fill="#86AB46"/>
<path d="M-12.9492 546.533C-12.9492 546.533 -0.929218 538.612 12.8008 537.972C13.1408 537.962 13.4808 537.923 13.8108 537.903C13.9908 535.743 13.0708 534.082 12.1908 532.172C11.5808 530.862 10.8708 529.442 11.2908 527.992C11.4508 527.432 12.0908 526.983 12.6708 527.333C14.3508 528.353 14.8908 530.243 15.4208 532.023C15.9908 533.953 16.2408 535.762 15.9408 537.632C27.2208 535.712 30.8308 526.642 25.3608 520.802C19.9708 515.042 13.0008 519.303 11.7508 520.143C11.6808 520.183 11.6208 520.233 11.5508 520.283C11.5508 520.283 9.53078 511.402 -0.139219 517.882C-3.09922 519.872 -5.43922 523.322 -7.27922 527.162C-5.66922 526.382 -3.87922 526.003 -2.12922 526.203C-1.32922 526.293 -1.07922 527.552 -1.79922 527.942C-3.02922 528.592 -4.34922 528.873 -5.66922 529.273C-7.03922 529.693 -8.07922 530.402 -9.02922 531.362C-11.8592 538.932 -12.9492 546.533 -12.9492 546.533Z" fill="#387D19"/>
<path d="M-12.9492 546.53C-12.9492 546.53 -0.929218 538.61 12.8008 537.97C13.1408 537.96 13.4808 537.92 13.8108 537.9C13.9908 535.74 13.0708 534.08 12.1908 532.17C11.5808 530.86 10.8708 529.44 11.2908 527.99C11.4508 527.43 12.0908 526.98 12.6708 527.33C14.3508 528.35 14.8908 530.24 15.4208 532.02C15.9908 533.95 16.2408 535.76 15.9408 537.63C27.2208 535.71 30.8308 526.64 25.3608 520.8C19.9708 515.04 13.0008 519.3 11.7508 520.14C11.6808 520.18 11.6208 520.23 11.5508 520.28C-3.70922 531.35 -12.9492 546.53 -12.9492 546.53Z" fill="#397315"/>
<path d="M43.1291 579.911L46.1291 579.651C44.6091 525.511 68.3491 461.871 68.6091 461.241L67.4591 460.711C67.2291 461.271 47.0791 511.301 43.5691 560.811C40.4191 536.271 35.6991 493.741 37.5591 471.921L36.1791 471.811C33.4491 503.781 43.0191 579.151 43.1291 579.911Z" fill="#86AB46"/>
<path d="M61.6397 461.006C59.0297 462.646 56.5796 463.886 55.6696 466.656C55.6696 466.856 55.6097 467.026 55.5197 467.166C55.4797 467.346 55.4397 467.536 55.4097 467.726C58.5597 473.126 62.9697 478.836 67.6097 483.226C66.9297 480.546 66.4896 477.836 66.8096 475.016C67.0296 472.996 67.1996 468.966 68.8897 467.546C70.2297 466.406 71.4797 467.156 71.7597 468.756C72.1697 471.086 70.4996 474.376 70.1996 476.736C69.7796 480.076 70.0597 483.496 71.4997 486.546C72.5396 487.326 73.5696 488.036 74.5896 488.626C76.7696 489.886 78.6996 490.976 80.4196 491.936C79.7996 490.586 79.4397 489.116 79.4697 487.326C79.5297 484.776 79.9497 481.606 82.4397 480.316C83.1297 479.956 83.8097 480.686 83.7397 481.336C83.4296 484.286 82.9197 487.376 83.5196 490.316C83.9897 492.576 85.3097 494.136 86.9697 495.536C91.3997 497.996 93.4197 499.386 94.5797 501.856C94.5897 501.866 94.5896 501.876 94.5896 501.876C94.5896 501.876 100.91 494.476 102.25 483.546C100.45 481.526 98.5197 479.636 96.3197 478.016C94.1697 476.436 91.7597 475.196 89.6397 473.606C88.0997 472.446 86.4497 469.586 89.4397 469.076C91.7897 468.676 94.9897 470.886 96.7897 472.196C98.9797 473.796 100.98 475.846 102.48 478.196C102.38 475.776 102.01 473.246 101.27 470.606C100.53 468.016 99.5196 465.656 98.3097 463.526C98.2197 463.496 98.1297 463.466 98.0397 463.406C92.8797 460.176 87.0396 459.466 81.5996 457.046C80.2296 456.426 78.1497 454.696 80.2796 453.546C82.2696 452.456 86.6796 454.656 88.4897 455.356C90.6796 456.186 92.7697 457.226 94.7597 458.436C87.4197 449.726 77.0497 446.256 73.4997 447.196C68.6097 448.506 68.5996 457.516 68.5996 457.516C68.5996 457.516 62.0397 448.286 53.2497 450.986C49.3797 452.176 50.3897 458.066 53.9097 464.986C54.3297 462.876 55.6697 461.116 57.2297 459.526C58.5497 458.186 61.0297 455.776 63.0897 457.006C65.2697 458.286 62.9097 460.196 61.6397 461.006ZM84.2897 464.196C82.5697 465.236 80.4097 464.576 78.7997 463.636C77.9297 463.126 78.2897 461.856 79.0397 461.756C79.1697 461.646 79.3297 461.576 79.5497 461.556C81.0897 461.436 82.7697 461.756 84.1097 462.556C84.6497 462.876 84.9697 463.776 84.2897 464.196ZM91.1097 481.106C89.7397 481.476 88.3297 480.576 87.3597 479.656C87.2897 479.596 87.2497 479.536 87.2097 479.466C86.7897 479.296 86.4897 478.936 86.5497 478.446C86.6197 477.986 87.1397 477.506 87.6397 477.636C88.9697 478.006 90.3197 478.526 91.3497 479.456C91.8197 479.906 91.8497 480.906 91.1097 481.106ZM75.6397 472.576C76.1196 471.786 77.2897 471.856 77.4697 472.846C77.5497 473.306 77.4896 473.786 77.4196 474.246C77.3896 474.416 77.3397 474.566 77.2497 474.666C77.1397 475.076 76.9697 475.466 76.7297 475.836C76.2997 476.516 75.0396 476.156 75.0296 475.356C75.0196 474.406 75.1397 473.396 75.6397 472.576Z" fill="#387D19"/>
<path d="M68.5801 457.498C90.2001 478.728 94.4501 501.158 94.5801 501.848C94.5901 501.858 94.5901 501.868 94.5901 501.868C94.5901 501.868 100.91 494.468 102.25 483.538C100.45 481.518 98.5201 479.628 96.3201 478.008C94.1701 476.428 91.7601 475.188 89.6401 473.598C88.1001 472.438 86.4501 469.578 89.4401 469.068C91.7901 468.668 94.9901 470.878 96.7901 472.188C98.9801 473.788 100.98 475.838 102.48 478.188C102.38 475.768 102.01 473.238 101.27 470.598C100.53 468.008 99.5201 465.648 98.3101 463.518C98.2201 463.488 98.1301 463.458 98.0401 463.398C92.8801 460.168 87.0401 459.458 81.6001 457.038C80.2301 456.418 78.1501 454.688 80.2801 453.538C82.2701 452.448 86.6801 454.648 88.4901 455.348C90.6801 456.178 92.7701 457.218 94.7601 458.428C87.4201 449.718 77.0501 446.248 73.5001 447.188C68.5901 448.488 68.5801 457.498 68.5801 457.498ZM86.5501 478.458C86.6201 477.998 87.1401 477.518 87.6401 477.648C88.9701 478.018 90.3201 478.538 91.3501 479.468C91.8201 479.908 91.8501 480.908 91.1101 481.108C89.7401 481.478 88.3301 480.578 87.3601 479.658C87.2901 479.598 87.2501 479.538 87.2101 479.468C86.7801 479.308 86.4801 478.948 86.5501 478.458ZM79.0301 461.758C79.1601 461.648 79.3201 461.578 79.5401 461.558C81.0801 461.438 82.7601 461.758 84.1001 462.558C84.6501 462.878 84.9701 463.788 84.2801 464.198C82.5601 465.238 80.4001 464.578 78.7901 463.638C77.9201 463.118 78.2901 461.848 79.0301 461.758Z" fill="#397315"/>
<path d="M15.8201 471.51C9.44008 475.46 2.73008 477.96 -1.46992 484.35C0.530081 488.69 4.19008 492.54 7.85008 496.04C10.5601 488.63 15.6401 480.54 24.1201 480.14C25.0301 480.1 25.9901 481.26 25.1801 482.06C22.5301 484.7 19.4001 486.78 16.6601 489.32C13.8401 491.92 11.9001 494.87 9.80008 497.88C14.9501 502.71 19.4901 506.89 18.6201 510.86C18.6001 510.96 18.5801 511.02 18.5701 511.07C18.9101 510.14 22.0701 502.87 40.8101 502.43C41.3401 498.47 40.8501 494.53 40.0301 490.61C39.4801 488.01 37.7001 484.99 38.5201 482.32C38.6601 481.87 39.3701 481.59 39.7801 481.83C42.8001 483.64 43.4601 486.76 43.8801 490.07C44.3501 493.83 44.6501 498.35 43.5301 502.2C50.4801 501.17 56.2501 496.72 60.4501 490.96C58.5001 485.61 52.8701 482.32 48.9501 478.58C47.6901 477.37 45.2801 474.29 48.1001 473.19C50.6001 472.2 55.5201 476.72 56.9801 478.1C59.7501 480.71 61.5201 483.87 62.8101 487.32C67.9901 478.26 69.6801 467.3 66.6301 460.93C60.8101 448.77 47.1401 451.06 38.8801 459.61C38.8801 459.61 38.3401 447.85 18.9301 445.98C7.30008 444.86 0.560081 453.55 -2.12992 463.41C-0.0799193 461.95 2.12008 460.7 4.34008 459.65C7.26008 458.26 10.2201 457.41 13.4701 457.48C15.1301 457.5 18.0801 457.44 19.2601 458.95C21.6301 462.01 15.7301 463.3 13.9101 463.69C7.48008 465.08 0.10008 465.58 -3.44992 472C-3.57992 474.95 -3.35992 477.79 -2.81992 480.27C-1.08992 478.11 1.03008 476.18 2.82008 474.56C5.78008 471.9 11.1901 468.74 15.3901 469.84C16.1001 469.98 16.6001 471.02 15.8201 471.51ZM47.0901 462.22C47.2201 461.84 47.5801 461.51 48.0901 461.54C50.6701 461.69 52.9601 462.69 55.3101 463.69C56.8201 464.34 58.3401 464.91 59.3601 466.26C59.7301 466.74 59.5301 467.5 58.9501 467.72C57.3801 468.32 55.5301 467.04 54.0601 466.55C52.7801 466.12 51.4401 465.79 50.1901 465.29C49.0801 464.84 48.5001 464.15 47.4801 463.6C46.9201 463.29 46.8701 462.67 47.0901 462.22ZM44.0001 466.21C43.8101 466.65 43.1901 466.97 42.7401 466.7C42.5401 466.59 42.3201 466.53 42.1101 466.42C41.6701 466.16 41.4001 465.67 41.6301 465.16C41.8201 464.72 42.4401 464.41 42.8901 464.67C43.0901 464.78 43.3101 464.84 43.5101 464.95C43.9601 465.2 44.2301 465.7 44.0001 466.21ZM38.7101 473.46C38.9101 473.02 39.3801 472.71 39.9401 472.96C41.1801 473.52 42.0901 474.59 42.7001 475.78C42.9901 476.33 42.5001 477.02 41.9401 477.08C40.5401 477.23 38.7901 475.85 38.4301 474.52C38.3201 474.14 38.4101 473.72 38.7101 473.46ZM33.8201 461.28C33.6901 462.18 32.7601 462.54 31.9601 462.6C31.2101 462.66 30.2701 462.61 29.6501 462.13C28.9101 461.56 29.4301 460.55 30.1501 460.44C30.1901 460.42 30.2401 460.39 30.2901 460.37C30.8401 460.15 31.4501 459.98 32.0401 459.91C32.9201 459.82 33.9701 460.22 33.8201 461.28ZM23.9801 470.2C25.1901 469.38 26.4301 468.59 27.9401 468.66C28.5001 468.69 28.7601 469.28 28.7501 469.75C28.7101 471.81 26.2501 472.24 24.6501 472.01C24.4601 471.99 24.3101 471.91 24.1901 471.82C23.6001 471.55 23.2801 470.68 23.9801 470.2Z" fill="#387D19"/>
<path d="M18.5605 511.071C18.9005 510.141 22.0605 502.87 40.8005 502.431C41.3305 498.471 40.8405 494.53 40.0205 490.61C39.4705 488.01 37.6905 484.991 38.5105 482.321C38.6505 481.871 39.3605 481.59 39.7705 481.83C42.7905 483.64 43.4505 486.761 43.8705 490.071C44.3405 493.831 44.6405 498.351 43.5205 502.201C50.4705 501.171 56.2405 496.72 60.4405 490.96C58.4905 485.611 52.8605 482.32 48.9405 478.58C47.6805 477.37 45.2705 474.291 48.0905 473.191C50.5905 472.201 55.5106 476.721 56.9706 478.101C59.7406 480.711 61.5105 483.871 62.8005 487.321C67.9805 478.261 69.6706 467.3 66.6206 460.931C60.8006 448.771 47.1305 451.06 38.8705 459.61C27.5705 480.06 19.5305 507.651 18.6005 510.891C18.5905 510.951 18.5705 511.021 18.5605 511.071ZM47.0905 462.221C47.2205 461.841 47.5805 461.511 48.0905 461.541C50.6705 461.691 52.9605 462.691 55.3105 463.691C56.8205 464.341 58.3405 464.911 59.3605 466.261C59.7305 466.741 59.5305 467.501 58.9505 467.721C57.3805 468.321 55.5305 467.04 54.0605 466.55C52.7805 466.12 51.4405 465.791 50.1905 465.291C49.0805 464.841 48.5005 464.151 47.4805 463.601C46.9205 463.291 46.8705 462.671 47.0905 462.221ZM44.0005 466.21C43.8105 466.65 43.1905 466.971 42.7405 466.701C42.5405 466.591 42.3205 466.531 42.1105 466.421C41.6705 466.161 41.4005 465.671 41.6305 465.161C41.8205 464.721 42.4405 464.411 42.8905 464.671C43.0905 464.781 43.3105 464.841 43.5105 464.951C43.9605 465.201 44.2305 465.7 44.0005 466.21ZM38.7105 473.46C38.9105 473.02 39.3805 472.71 39.9405 472.96C41.1805 473.52 42.0905 474.591 42.7005 475.781C42.9905 476.331 42.5005 477.02 41.9405 477.08C40.5405 477.23 38.7905 475.85 38.4305 474.52C38.3205 474.14 38.4105 473.72 38.7105 473.46Z" fill="#397315"/>
<path d="M43.2616 583.281L45.5216 583.241C45.1116 560.681 57.1616 527.181 57.2916 526.851L56.4116 526.461C56.3816 526.541 52.9816 534.971 49.6816 546.111C46.6316 556.411 43.0416 571.231 43.2616 583.281Z" fill="#86AB46"/>
<path d="M46.2514 533.329C50.4914 537.479 55.4614 540.119 56.5714 544.589C56.7114 545.159 56.7914 545.759 56.7914 546.399C56.8314 545.899 57.4314 540.779 64.9314 539.589C66.0014 539.419 66.8614 538.989 67.5614 538.379C66.8214 536.699 65.8214 535.219 64.4314 533.769C63.1514 532.429 61.3214 531.339 60.5314 529.609C60.1514 528.759 61.1414 528.179 61.8514 528.419C63.9614 529.149 66.2114 531.089 67.5514 532.829C68.2714 533.759 68.8614 534.789 69.2414 535.879C71.1214 530.899 68.6814 522.529 64.8414 520.519C59.5014 517.739 57.6714 524.679 57.6714 524.679C57.6714 524.679 57.6614 524.489 57.6214 524.159V524.149C57.4014 522.419 56.2714 517.169 50.7914 518.999C44.2814 521.169 41.4514 528.629 46.2514 533.329Z" fill="#387D19"/>
<path d="M56.5813 544.587C56.6813 545.597 56.7713 546.237 56.8013 546.397C56.8413 545.897 57.4413 540.777 64.9413 539.587C66.0113 539.417 66.8713 538.986 67.5713 538.376C66.8313 536.696 65.8313 535.217 64.4413 533.767C63.1613 532.427 61.3313 531.336 60.5413 529.606C60.1613 528.756 61.1513 528.176 61.8613 528.416C63.9713 529.146 66.2213 531.087 67.5613 532.827C68.2813 533.757 68.8713 534.786 69.2513 535.876C71.1313 530.896 68.6913 522.527 64.8513 520.517C59.5113 517.737 57.6813 524.676 57.6813 524.676C57.6813 524.676 57.6713 524.486 57.6313 524.156C55.6813 532.576 56.2013 540.977 56.5813 544.587Z" fill="#397315"/>
<path d="M15.2891 552.828H1419.95" stroke="#22577A" stroke-width="5" stroke-miterlimit="10"/>
</g>
<defs>
<linearGradient id="paint0_linear_814_7038" x1="1038.61" y1="329.793" x2="1277.14" y2="329.793" gradientUnits="userSpaceOnUse">
<stop stop-color="#343D4F"/>
<stop offset="0.4581" stop-color="#30394C"/>
<stop offset="0.9513" stop-color="#232D41"/>
<stop offset="1" stop-color="#212B40"/>
</linearGradient>
<linearGradient id="paint1_linear_814_7038" x1="185.273" y1="400.099" x2="497.438" y2="400.099" gradientUnits="userSpaceOnUse">
<stop stop-color="#FF9F55"/>
<stop offset="1" stop-color="#FFD255"/>
</linearGradient>
<linearGradient id="paint2_linear_814_7038" x1="203.68" y1="386.94" x2="464.31" y2="386.94" gradientUnits="userSpaceOnUse">
<stop stop-color="#404B61"/>
<stop offset="0.486" stop-color="#3C4860"/>
<stop offset="1" stop-color="#2F3E5C"/>
</linearGradient>
<linearGradient id="paint3_linear_814_7038" x1="261.051" y1="550.449" x2="407.451" y2="550.449" gradientUnits="userSpaceOnUse">
<stop stop-color="#FF9F55"/>
<stop offset="1" stop-color="#FFD255"/>
</linearGradient>
<clipPath id="clip0_814_7038">
<rect width="1440" height="552" fill="white"/>
</clipPath>
</defs>
</svg>
