<?xml version="1.0" encoding="utf-8"?>
<!-- Generator: Adobe Illustrator 26.0.2, SVG Export Plug-In . SVG Version: 6.00 Build 0)  -->
<svg version="1.1" id="Layer_1" xmlns="http://www.w3.org/2000/svg" xmlns:xlink="http://www.w3.org/1999/xlink" x="0px" y="0px"
	 viewBox="0 0 1245 300" style="enable-background:new 0 0 1245 300;" xml:space="preserve">
<g>
	<g>
		<path style="fill:#EBF3FA;" d="M-6.86,300l1173.54-0.15c0,0,0.72-0.33,2.04-0.97c0.52-0.26,1.14-0.56,1.84-0.9
			c1.85-0.92,4.29-2.18,7.16-3.74c1.12-0.61,2.29-1.26,3.52-1.96c6.72-3.81,13.03-7.79,18.93-11.92c1.69-1.19,3.4-2.42,5.11-3.71
			l0.21-0.16c0.57-0.42,1.13-0.85,1.69-1.28c0.83-0.65,1.67-1.29,2.48-1.94c3.04-2.42,6.06-4.99,8.95-7.68
			c0.18-0.17,0.37-0.34,0.55-0.51c2.01-1.89,3.97-3.84,5.85-5.85c0.16-0.17,0.32-0.34,0.49-0.51c0.22-0.24,0.43-0.48,0.65-0.73
			c0.22-0.24,0.37-0.41,0.55-0.62c0.46-0.51,0.91-1.03,1.36-1.54l0.13-0.15c0.12-0.15,0.25-0.29,0.38-0.44
			c1.39-1.63,2.71-3.3,3.96-5c0.61-0.81,1.19-1.63,1.76-2.46c2.51-3.65,4.62-7.37,6.3-11.14c1.21-2.75,2.21-5.57,2.93-8.43
			l0.03-0.14c1.11-4.29,1.58-8.61,1.42-12.93c-0.75-19.37-14.57-40.72-51.76-62.56c-18.93-11.1-38.35-20.27-58.06-27.71
			c-8.08-3.05-16.46-5.89-25.13-8.51c-41.96-12.7-84.67-18.16-125.88-18.38c-1.67,0-3.33-0.01-4.99,0
			c-48.67,0.23-95.1,7.66-135.53,18.92c-25.88,7.21-81.74,6.11-144.94-11.83c-8.27-2.35-16.64-4.99-25.13-7.92
			c-21-7.29-42.42-16.45-63.55-27.8c-1.3-0.7-2.6-1.41-3.91-2.12c-9.98-5.49-19.86-11.48-29.62-17.98
			c-0.18-0.13-0.37-0.25-0.57-0.38c-3.06-2.02-6.28-3.98-9.66-5.86C489.83,0.4,335.52-6.49,211.11,14.96
			c-8.53,1.47-16.91,3.07-25.13,4.81c-29.13,6.15-56.06,13.95-79.23,23.29c-4.69,1.89-9.22,3.84-13.59,5.86
			C81.06,54.45,70.17,60.6,60.67,67.26c-1,0.7-1.97,1.41-2.93,2.12c-31.86,23.71-43.43,53.26-22.19,87.8
			C78.71,227.32-95.76,229.87-6.86,300z"/>
		<path style="fill:#E2EEF9;" d="M663.91,131.96v-19.27h-5.65V79.57h-30.28v33.13h-28.31V58.72h-31.24v35.04h-7.12V51.92h-31.24
			v78.44h-39.51v45.74H475.8v-20.36H441.9v12.04h-19.47v-53.92h-24.05v39.9h-24.05V300h24.05H419h3.43h19.47h11.01h17.63h5.28h14.76
			h13.87h25.64h7.85h15.62h7.76h7.12h16.35h11.13h3.75h28.31h29.77h0.51h5.65h24.12V131.96H663.91z"/>
		<path style="fill:#E2EEF9;" d="M377.52,156.51v141.22H101.15V174.84h21.19v-33.54h21.19v45.31h17.15v-10.12h29.87v17.11h13v-38.44
			h34.81V89.25h27.52v35.16h6.28V94.96h27.52v45.36h24.94v-27.84h26.68v27.84h4.97v16.19H377.52z"/>
		<path style="fill:#DEEDFF;" d="M1112.22-24.05v320.93h-16.21V-29.59C1101.51-27.89,1106.91-26.04,1112.22-24.05z"/>
		<path style="fill:#DEEDFF;" d="M667.27,33.87V296.9h-16.29V44.22C656.34,41.15,661.77,37.7,667.27,33.87z"/>
		<path style="fill:#4AA4F4;" d="M1008.18,12.33v59.35c0,0.52,0,1.03-0.02,1.53c-0.11,4.63-0.74,8.18-1.49,8.18h-0.22
			c-0.69,0-1.27-3.07-1.45-7.2c0-0.34-0.02-0.69-0.04-1.04c0-0.02,0-0.05,0-0.08c0-0.45,0-0.92,0-1.39V12.07
			C1006.03,12.14,1007.11,12.23,1008.18,12.33z"/>
		<path style="fill:#4AA4F4;" d="M1005.72,73.07c-11.77,0-21.32,9.79-21.32,21.85h42.63C1027.04,82.84,1017.49,73.07,1005.72,73.07z
			"/>
		<path style="fill:#7BC0FF;" d="M1007.42,73.32c-0.61-0.13-1.24-0.2-1.87-0.2c-7.67,0-13.89,9.75-13.89,21.78h3.74
			C995.4,83.87,1000.63,74.76,1007.42,73.32z"/>
		<path style="fill:#D3E3EF;" d="M1170.2,33.89H946.98c1.22-4.1,2.28-8.34,3.15-12.68c0.02-0.09,0.04-0.18,0.06-0.27
			c0.31-1.49,0.67-2.96,1.09-4.38l183.56-13.4c3.44,2.25,6.8,4.61,10.08,7.1C1154.23,17.31,1162.77,25.22,1170.2,33.89z"/>
		<path style="fill:#DEEDFF;" d="M180.17-18.54v320.93h16.21V-24.08C190.88-22.38,185.47-20.54,180.17-18.54z"/>
		<path style="fill:#4AA4F4;" d="M284.21,17.84v59.35c0,0.52,0,1.03,0.02,1.53c0.11,4.63,0.74,8.18,1.49,8.18h0.22
			c0.69,0,1.27-3.07,1.45-7.2c0-0.34,0.02-0.69,0.04-1.04c0-0.02,0-0.05,0-0.08c0-0.45,0-0.92,0-1.39V17.58
			C286.35,17.65,285.27,17.73,284.21,17.84z"/>
		<path style="fill:#4AA4F4;" d="M286.66,78.58c11.77,0,21.32,9.79,21.32,21.85h-42.63C265.35,88.35,274.89,78.58,286.66,78.58z"/>
		<path style="fill:#7BC0FF;" d="M284.97,78.83c0.61-0.13,1.24-0.2,1.87-0.2c7.67,0,13.89,9.75,13.89,21.78h-3.74
			C296.98,89.38,291.75,80.26,284.97,78.83z"/>
		<path style="fill:#D3E3EF;" d="M122.18,39.4h223.22c-1.22-4.1-2.28-8.34-3.15-12.68c-0.02-0.09-0.04-0.18-0.06-0.27
			c-0.31-1.49-0.67-2.96-1.09-4.38L157.55,8.66c-3.44,2.25-6.8,4.61-10.08,7.1C138.15,22.82,129.61,30.73,122.18,39.4z"/>
		<g>
			<path d="M942.59,121.15c0,0,3.9-4.14,8.78-0.21C951.39,120.94,948.54,120.45,942.59,121.15z"/>
			<g>
				<path style="fill:#C7DDEA;" d="M1079.16,250.89h-12.34c1.15-9.4,3.02-15.61,3.05-15.69c0.02-0.07,0.03-0.15,0.03-0.23
					c0,0,0.42-2.58-4-2.64c-4.11-0.06-6.12,1.65-6.48,2.27c-1.15-5.28-2.77-9.65-4.77-10.27c-0.94-0.26-1.91-0.39-2.89-0.38
					c-0.11-0.32-0.37-0.99-0.79-1.15c-0.05-0.02-0.1-0.02-0.15-0.02c-0.39-0.88-0.68-1.8-0.86-2.75c0.01-0.04,0.03-0.09,0.04-0.14
					c1.61-2.17,2.56-6.67,1.8-7.45c-2.81-2.91-12.8-1.02-8.94,2.41c-0.05,0.13-0.09,0.25-0.12,0.37c-0.31,1.16,0.14,7.1,1.61,7.25
					c0.38,0.01,0.76,0,1.14-0.03c0.03,0.3,0.06,0.77,0.11,1.31c-0.34,0.08-0.55,0.13-0.57,0.14c-0.67,0.3-1.25,0.8-1.65,1.42
					c0,0-4.98,2.6-5.64,5.06c-0.65,2.46-3.05,14.32-3.97,15.15c-0.92,0.83-11.51,2.76-11.51,2.76c-0.12,0.13-0.22,0.26-0.32,0.4
					c-0.73-0.4-1.9-1-2.38-1.07c-0.66-0.1-3.57,2.31-3.75,2.94c-0.32,0.21-0.51,0.36-0.51,0.36h-1.63v-0.46h-3.17h1.64
					c-0.14,0-1.2-0.03-1.35-0.83c-0.01-0.07-0.01-0.13,0-0.2c0-0.13,0.06-0.78,0.15-1.81c0.02-0.26,0.04-0.55,0.07-0.86
					c0.06-0.58,0.12-1.25,0.18-1.97l0.05-0.35h21.57l1.22-0.72l-1.64-6.16l-0.09-0.34h0.02l-7.13-26.6v-0.02H981.2v0.02l-0.63,0.21
					l8.02,33.61h13.23l-0.44,4.9c0,0-0.22,1.52,0.92,1.53h1.81H962h0.07h0.15c0.09,0,0.18-0.02,0.26-0.05
					c0.08-0.04,0.15-0.09,0.21-0.15c0.06-0.07,0.11-0.14,0.13-0.23c0.03-0.08,0.04-0.17,0.03-0.26l-0.67-6.62h11.85l3.54-28.79
					h-38.89l-3.04,24.74c-0.57-2.08-1-3.82-1-3.82c-0.32-0.8-1.58-5.31-2.22-5.99c-0.24-0.26-0.79-0.47-1.36-0.63
					c0.16-0.26,0.23-0.56,0.21-0.86c-0.14-1.75,1.9-1.6,3.15-3.61c1.09-1.76-0.86-2.21,0.19-5.04c0.76-2.08-1.23-2.58-1.17-4.32
					c0,0-0.26-3.23-4.9-2.39c-1.23,0.22-2.07-1.97-4.08-1.19c-4.33,1.68-4.59-0.54-5.84,2.58c-0.53,1.3-3.85,2.82-2.85,5.06
					c1.01,2.24-0.68,3.77,0.51,5.53c0.63,0.91,0.37,2.53,3.29,2.6c0.58,0.08,1.13,0.31,1.58,0.67c-0.95,0.18-2.18,0.52-3.04,1.13
					c-0.19,0.13-0.37,0.29-0.53,0.46c-0.01,0.01-0.02,0.02-0.02,0.03c-0.24,0.31-0.42,0.67-0.53,1.05l0,0c0,0-0.63,1.66-1.3,3.8
					c-0.77-0.17-1.57-0.24-2.36-0.23h-0.32c-0.23,0-0.46,0-0.71,0c-3.96,0.06-3.58,2.55-3.58,2.55c0,0.07,0.01,0.15,0.03,0.22
					c0.03,0.08,1.53,5.45,2.56,13.72h-14.58c-0.64,0-1.26,0.26-1.71,0.71c-0.46,0.45-0.71,1.07-0.71,1.71l0,0
					c0,0.64,0.26,1.26,0.71,1.71c0.46,0.45,1.07,0.71,1.71,0.71h10.01l-0.09,0.66l-2.82,20.96l-2.63,19.59
					c-0.01,0.06,0,0.11,0.01,0.17c0.02,0.05,0.04,0.1,0.08,0.14s0.08,0.07,0.14,0.1c0.05,0.02,0.11,0.03,0.16,0.03
					c0.13,0,0.26-0.04,0.36-0.13c0.1-0.08,0.17-0.2,0.19-0.33l3.05-17.28l3.41-19.34l0.81-4.58h2.38c0.3,3.48,0.48,7.28,0.44,11.31
					v0.05c-0.02,0.06-0.03,0.12-0.03,0.17v0.43c0,0.04,0,0.07,0,0.11c0,0.06,0,0.12,0,0.18h0.06c0.05,0.1,0.13,0.18,0.23,0.24
					c0.1,0.06,0.21,0.09,0.32,0.09H913c0,0.03,0,0.05,0,0.08c0,0.14,0.92,11.07-2.65,28.91h0.67c4.91-14.31,4.68-26.89,4.47-28.99
					h3.27c0,0.03,0,0.05,0,0.08c0,0.14,0.92,11.07-2.65,28.91h0.67c4.91-14.31,4.68-26.89,4.46-28.99h12.75
					c-0.21,2.1-0.44,14.68,4.47,28.99h0.67c-3.57-17.83-2.66-28.77-2.65-28.91c0.01-0.03,0.01-0.05,0-0.08h3.23
					c-0.21,2.1-0.44,14.68,4.47,28.99h0.66c-2.56-12.78-2.81-22.02-2.75-26.29c0.07,0.76,0.16,1.58,0.29,2.42
					c0.53,3.39,9.36,17.08,9.36,17.08l0.23,0.07c0.1,0.35,0.18,0.66,0.24,0.91c0.19,0.76-0.09,1.61-0.33,2.25
					c-0.15,0.35-0.25,0.72-0.3,1.09c-0.1,1.08,1.4,1.34,3.14,1.43c1.75,0.09,1.22,0.44,3.61,0.88c2.38,0.43,3.34-0.22,3.52-0.54
					c0.07-0.14-0.14-0.32-0.52-0.51c0.26,0.02,0.54,0.04,0.82,0.06c1.74,0.09,1.22,0.44,3.6,0.88c2.38,0.43,3.34-0.22,3.52-0.54
					c0.17-0.32-0.95-0.73-2.14-1.24l-0.45-0.19c-1.33-0.59-2.08-1.78-3.12-2.89c-0.45-0.47-0.88-1.42-1.22-2.32
					c0.19-0.06,0.37-0.15,0.54-0.26c0,0-6.51-29.84-10.57-32.4c-0.59-0.37-1.53-0.63-2.71-0.86c0.06-0.05-0.15-0.29-0.47-0.58h85.81
					c-6.62,1.45-13.52,3.31-14.69,4.97c-2.35,3.33-6.01,31.73-6.01,31.73l0.1,0.03c-1.5,1.72-3.94,2.67-5.52,2.95
					c-1.96,0.34-2,1.95-2,1.95l6.68,0.04c0,0,5.23,0,5.38,0c0.74-0.05,1.13-2.77,1.3-4.38c0.11-0.03,0.22-0.06,0.31-0.09
					c0,0,8.73-22.5,9.44-24.94c0.06-0.15,0.16-0.29,0.28-0.4c0.12-0.11,0.27-0.19,0.42-0.24c0.08,0.03,0.16,0.05,0.25,0.05h1.74
					c-0.01,0.03-0.01,0.05-0.01,0.08c0,0.02,0.04,0.45,0.07,1.27c-0.51,0.58-0.84,1.29-0.97,2.05c-0.17,1.54,0.06,7.07,0.33,12.09
					c-0.37,3.4-0.95,7.31-1.8,11.65c-0.85,0.41-1.76,0.71-2.69,0.88c-1.95,0.34-2,1.95-2,1.95l4.09,0.02h0.74h1.85h4.51
					c0.49,0,0.82,0,0.86,0c0.89-0.07,1.27-3.95,1.37-5.18c0.17-0.05,0.32-0.14,0.46-0.26c0,0,0.15-2.02,0.34-4.78
					c1.23-5.34,1.91-10.78,2.05-16.26c2.15-0.95,6.81-2.41,10.62-3.5h3.52c-0.24,2.17-0.5,15.18,4.99,29.99h0.74
					c-3.99-18.45-2.96-29.77-2.96-29.91c0-0.03-0.01-0.06-0.02-0.08h3.65c-0.24,2.17-0.5,15.18,4.98,29.99h0.75
					c-3.98-18.45-2.96-29.77-2.96-29.91c0.01-0.03,0.01-0.06,0-0.08h0.18c0.12,0,0.24-0.03,0.34-0.09c0.1-0.06,0.19-0.15,0.24-0.25
					h0.07c0-0.06,0-0.13,0-0.2c0-0.04,0-0.08,0-0.12v-0.37c-0.01-0.06-0.01-0.13-0.03-0.19c0-0.02,0-0.05,0-0.07
					c-0.04-3.66,0.12-7.15,0.37-10.37h2.39l0.66,3.75l3.9,22.09l2.71,15.36c0.02,0.13,0.09,0.24,0.19,0.33
					c0.1,0.08,0.23,0.13,0.36,0.13c0.06,0,0.11-0.01,0.16-0.03c0.05-0.02,0.09-0.06,0.13-0.1c0.04-0.04,0.07-0.09,0.09-0.14
					c0.01-0.05,0.02-0.11,0.01-0.17l-2.01-14.93l-3.38-25.2l-0.14-1.08h7.76c0.64,0,1.26-0.26,1.71-0.71
					c0.46-0.45,0.71-1.07,0.71-1.71l0,0c-0.01-0.64-0.26-1.25-0.72-1.7S1079.8,250.9,1079.16,250.89L1079.16,250.89z M948.75,249.83
					c-0.12,0-0.23,0.04-0.33,0.11c-0.09,0.07-0.16,0.17-0.2,0.28c-0.02,0.08-0.02,0.16-0.01,0.24c0.02,0.08,0.05,0.16,0.1,0.22
					c0.05,0.06,0.12,0.12,0.19,0.15c0.07,0.04,0.16,0.05,0.24,0.05h-8.64c-0.46-0.48-0.9-0.95-1.3-1.38
					c0.08-0.12,0.16-0.24,0.24-0.36c0.39-0.59,0.67-1.08,0.77-1.2c0.32-0.35-1.27-1.05-1.93-1.58c-0.21-0.17-0.61-1.32-1.07-2.82
					h17.38l-0.16,4.99c-0.01,0.34-0.16,0.66-0.41,0.9c-0.24,0.24-0.57,0.37-0.91,0.37h-3.96V249.83z M959.15,289.67
					c0.18,0.63,0.36,1.27,0.46,1.71c0.19,0.76-0.09,1.61-0.33,2.25c-0.15,0.35-0.25,0.72-0.3,1.09c-0.01,0.11,0,0.21,0.02,0.32
					c-1.18-0.63-1.9-1.72-2.88-2.76c-0.36-0.43-0.65-0.92-0.86-1.44c0.15-0.05,0.29-0.11,0.42-0.2c0,0-0.64-3.48-1.58-8.19
					c2.43,3.78,4.79,7.14,4.79,7.14L959.15,289.67z M932.06,247.94c0.12,0.26,0.27,0.5,0.42,0.74c0.44,0.65,0.95,1.24,1.52,1.78
					c0.17,0.16,0.32,0.32,0.49,0.43h-0.33c0.44,0-1.39-1.54-2.22-1.8c0-0.19,0.03-0.39,0.06-0.6c0.01-0.2,0.04-0.38,0.06-0.57
					V247.94z M947.41,256.03h0.02h0.06H947.41z M944.27,255.82c0.34,0,1.37,0.04,1.65,0.09c-1.58-0.1-3.3-0.15-5.06-0.17h2.97
					c0.14,0.04,0.29,0.06,0.44,0.06V255.82z M1042.34,243.71c0.95,3.41,1,5.64,0.83,7.18h-5.19c1.58-2.32,3.04-4.72,4.36-7.2V243.71
					z M1031.64,293.72c0.31-0.97,0.59-1.94,0.85-2.88l0.07,1.08c0,0,0.32,0.06,0.84,0.14c-0.49,0.64-1.08,1.2-1.76,1.64V293.72z"/>
				<path style="fill:#D1A586;" d="M1082.63,224.64c0.42-10.44,1.33-19.49,2.43-25.81c1.75-10.08,3.31-15.88,3.33-15.94
					c0.23-0.89,3.55-4.47,10.92-4.36c7.38,0.11,6.68,4.82,6.68,4.82c0,0.14-0.02,0.28-0.06,0.42c-0.07,0.24-6.85,24.79-6.55,56.49
					c0,0.44,0.05,1.21,0.02,1.72c0,0-17.08,0.44-17.08,0C1081.72,239.19,1082.01,231.51,1082.63,224.64z"/>
				<path style="fill:#E5BD9E;" d="M1080.49,240.07c0,0.44,0.24,0.8,0.52,0.8c0.29,0,0.52-0.36,0.52-0.8h14.65
					c0,0.44,0.24,0.8,0.52,0.8s0.52-0.37,0.51-0.82c-0.06-8.36,0.34-16.71,1.22-25.02c1.95-18.65,5.54-31.11,5.6-31.28
					c0.03-0.14,0.05-0.28,0.05-0.42c0,0,0.7-4.7-6.68-4.81c-7.38-0.11-10.7,3.48-10.92,4.36c0,0.05-0.9,3.33-2.09,9.23
					c-0.39,1.96-0.81,4.2-1.25,6.71c-1.09,6.33-2,15.39-2.43,25.81C1080.1,231.51,1079.88,237.29,1080.49,240.07z"/>
				<path style="fill:#DFB697;" d="M1080.49,240.07c0,0.44,0.24,0.8,0.52,0.8c0.29,0,0.52-0.36,0.52-0.8h14.65
					c0,0.44,0.24,0.8,0.52,0.8s0.52-0.37,0.51-0.82c-0.06-8.36,0.34-16.71,1.22-25.02c-2.43-11.83-11.79-20.88-14.04-22.92
					c-0.39,1.96-0.81,4.2-1.25,6.71c-1.09,6.33-2,15.39-2.43,25.81C1080.1,231.51,1079.88,237.29,1080.49,240.07z"/>
				<path style="fill:#D1A586;" d="M1095.25,239.9h-0.04l-0.03-0.02c-0.01-0.01-0.01-0.02-0.02-0.03c-0.01-0.01-0.01-0.02-0.01-0.03
					l0,0v-0.04c-0.02-0.59-1.23-0.71-3.19-0.71h-1.4c-0.57,0-1.16,0-1.78,0c-2.26,0.03-4.53-0.13-6.76-0.48
					c-1.58-0.27-0.51-12.38,0.6-23.73c0.19-1.93,0.34-3.44,0.41-4.34c0.72-9.49,4.93-26.74,4.98-26.89c0.18-0.71,2.71-3.4,8.21-3.31
					c2.06,0.03,3.52,0.54,4.35,1.52c0.26,0.3,0.45,0.64,0.57,1.01c0.12,0.37,0.16,0.76,0.12,1.15c0,0.11-0.01,0.21-0.04,0.32
					c-0.02,0.09-3.8,22.2-4.43,27.52c-1.06,9.04-1.45,27.6-1.45,27.88v0.12L1095.25,239.9z M1091.97,238.89
					c1.72,0,2.81,0.09,3.2,0.49c0.06-2.72,0.46-19.17,1.43-27.52c0.64-5.44,4.43-27.48,4.43-27.55c0.02-0.09,0.04-0.19,0.04-0.29
					c0.03-0.37-0.01-0.74-0.12-1.08c-0.11-0.35-0.29-0.68-0.53-0.96c-0.8-0.95-2.21-1.42-4.23-1.46h-0.25
					c-5.22,0-7.62,2.51-7.79,3.18c-0.04,0.16-4.24,17.24-4.96,26.84c-0.07,0.9-0.22,2.42-0.41,4.34
					c-0.74,7.55-2.29,23.26-0.74,23.53c2.23,0.35,4.48,0.51,6.73,0.48c0.64,0,1.22,0,1.78,0
					C1091.06,238.9,1091.54,238.89,1091.97,238.89L1091.97,238.89z"/>
				<path style="fill:#E5BD9E;" d="M1098.3,240.86h-57.44c0,0,1.34-5.41,34.6-4.61C1099.01,236.83,1098.3,240.86,1098.3,240.86z"/>
				<path style="fill:#D1A586;" d="M1102.98,297.4c-6.67-33.71-4.95-54.39-4.94-54.65c0.02-0.52-0.95-0.99-1.45-1.01
					c-0.5-0.02-2.82-0.15-3.09,0.29c-0.35,0.58-1.69,26.07,8.23,55.36L1102.98,297.4z"/>
				<path style="fill:#D1A586;" d="M1049.34,297.4c6.66-33.71,4.94-54.39,4.94-54.65c-0.02-0.52,0.95-0.99,1.45-1.01
					c0.51-0.02,2.82-0.15,3.09,0.29c0.35,0.58,1.69,26.07-8.22,55.36L1049.34,297.4z"/>
				<path style="fill:#A0795F;" d="M1038.72,297.4c6.66-33.71,4.95-54.39,4.94-54.65c0-0.52,0.95-0.99,1.45-1.01
					c0.5-0.02,2.82-0.15,3.09,0.29c0.35,0.58,1.69,26.07-8.23,55.36L1038.72,297.4z"/>
				<path style="fill:#A0795F;" d="M1092.28,297.4c-6.65-33.71-4.95-54.39-4.94-54.65c0-0.52-0.95-0.99-1.45-1.01
					c-0.51-0.02-2.82-0.15-3.09,0.29c-0.35,0.58-1.69,26.07,8.23,55.36L1092.28,297.4z"/>
				<path style="fill:#D1A586;" d="M1040.83,242.59h57.44c0.65,0,1.18-0.53,1.18-1.18v-0.77c0-0.65-0.52-1.18-1.18-1.18h-57.44
					c-0.65,0-1.18,0.53-1.18,1.18v0.77C1039.65,242.06,1040.18,242.59,1040.83,242.59z"/>
				<path style="fill:#FFB27D;" d="M1029.86,190.79c-2.44-1.42-3.65-2.56-5.42-2.82c-1.78-0.26-4.99-0.46-5.44-1.13
					c-1.1-1.66-2.26-4.89-1.45-4.68c0.82,0.21,3.85,2.31,4.81,1.98c0.96-0.33-1.46-1.1-0.87-1.58c0.58-0.48,3.24,0.71,3.85,2.07
					c0.21,0.47,7.77,2.83,7.77,2.83L1029.86,190.79z"/>
				<path style="fill:#FFB27D;" d="M1064.37,276.95c0.22,0.24,0.37,0.54,0.42,0.86c0.06,0.32,0.02,0.65-0.11,0.95l0,0
					c-0.44,1.21-1.88,2.56-3.57,3.91c-0.21,0.17-0.41,0.32-0.57,0.48l-0.12,0.11l-0.1,0.09c-1.56,1.44-0.98,1.77-3.8,4.7
					c-3.21,3.34-5.42,3.4-6.05,3.09c-0.53-0.26,0.55-2.03,1.75-4.02l0.17-0.29l0.47-0.8c1.4-2.39,1.05-3.52,0.71-7.08
					c-0.27-2.89-4.51-16.18-4.51-16.18l6.15-1.06c0,0,1.85,10.58,3.89,12.21c1.09,0.87,2.31,0.88,3.36,1.52l0.22,0.14
					C1063.32,275.96,1063.88,276.42,1064.37,276.95L1064.37,276.95z"/>
				<path style="fill:#499EC4;" d="M1064.37,276.95c0.22,0.24,0.37,0.54,0.42,0.86s0.02,0.65-0.11,0.95l0,0
					c-0.54,1.21-1.95,2.55-3.57,3.9c-0.21,0.17-0.4,0.33-0.57,0.49l-0.12,0.11l-0.1,0.09c-1.56,1.44-0.98,1.77-3.8,4.7
					c-3.2,3.34-5.42,3.4-6.05,3.09c-0.53-0.26,0.55-2.03,1.75-4.02c2.24-0.88,4.22-2.33,5.72-4.21c1.93-2.46,3.22-5.63,4.53-7.47
					l0.22,0.14C1063.32,275.96,1063.88,276.42,1064.37,276.95L1064.37,276.95z"/>
				<path style="fill:#FFB27D;" d="M1014.79,273.11c-0.38,1.9-3.09,1.58-6.11,0.84c-3.02-0.74-2.31,0.14-6.6-0.34
					c-4.3-0.48-5.61-2.08-5.74-2.72c-0.11-0.57,2.01-0.77,4.29-1.03l0.87-0.1c2.57-0.32,4.46-1.98,6.8-3.35
					c2.21-1.29,5.52-6.55,5.52-6.55l5.9,0.47c0,0-3.1,4.7-4.3,6.74c-0.7,1.2-0.67,2.79-0.58,4.02
					C1014.91,271.77,1014.89,272.44,1014.79,273.11L1014.79,273.11z"/>
				<path style="fill:#499EC4;" d="M1008.68,273.95c-3.02-0.74-2.31,0.14-6.6-0.33c-4.3-0.48-5.61-2.08-5.74-2.72
					c-0.11-0.57,2.01-0.77,4.29-1.03l0.02,0.04c1.84,1.18,3.97,1.84,6.16,1.91c2.92,0.07,6.01-0.77,8.02-0.73
					c0.07,0.67,0.06,1.35-0.04,2.02C1014.41,275.01,1011.71,274.69,1008.68,273.95z"/>
				<path style="fill:#3F88A8;" d="M1037.4,235.39l12.71,34.21c1.29,0.1,2.58-0.02,3.83-0.35c1.72-0.5,3.7-1.8,3.7-1.8
					s-3.17-32.85-8.93-39.68C1042.93,220.95,1037.4,235.39,1037.4,235.39z"/>
				<path style="fill:#499EC4;" d="M1087.69,221.56c0,0-36.54-12.34-44.69-9.72c-8.14,2.62-32.61,51.29-32.61,51.29
					s0.55,0.73,2.06,1.3c1.4,0.52,4.79,0.49,4.79,0.49s22.08-18.92,24.7-24.44c2.63-5.52,3.68-10.78,6.31-10.25
					c2.63,0.52,33.91,12.88,41.01,5.52c7.1-7.36,5.24-16.92,5.24-16.92L1087.69,221.56z"/>
				<path style="fill:#173C5E;" d="M1065.36,164.1c-0.59-1.21-1.23-3.34-1.56-7.16c0.06,0.38,0.71,5.19,2.56,7.91
					c7.6,4.99,22.15,21.64,21.88,24.8c0,0,5.13-8.7,5.22-8.75c0,0,9.46-12.02-1.75-18.92c-5.7-3.5-5.67-7.99-5.44-11.9
					c0.24-3.91-1.55-20.71-12.97-16.31c0,0-1.83-0.81-2.65-0.69c0.37,0.07,0.72,0.24,1.01,0.48c-1.32-0.08-3.22,0.02-4.79,0.92
					C1062.68,136.84,1058.93,158.18,1065.36,164.1z"/>
				<path style="fill:#FFB27D;" d="M1066.81,165.1c-0.04,0,3.67,1.94,6.45,1.18c2.62-0.71,4.34-4.11,4.3-4.11
					c-1.11-0.22-1.43-1.75-1.41-8.3l-0.5,0.1l-8.44,1.67c0,0,0.19,2.66,0.2,5.16C1067.43,162.89,1067.3,164.88,1066.81,165.1z"/>
				<path style="fill:#ED975D;" d="M1067.22,155.62c0,0,0.19,2.66,0.2,5.16c4.72-0.13,7.22-4.43,8.24-6.83L1067.22,155.62z"/>
				<path style="fill:#173C5E;" d="M1076.54,153.04c0,0,2.48-3.91,3.07-7.26c0.42-2.39-0.79-11.24-9.69-9.96
					c-1.79,0.25-3.5,0.9-5.01,1.9c-1.94,1.3-4.72,4.11-1.61,11.84l0.81,2.61L1076.54,153.04z"/>
				<path style="fill:#FFB27D;" d="M1065.64,157.99c0,0,11.17,0.19,11.18-6.78s1.46-11.62-5.68-12.02c-7.13-0.4-8.52,2.24-9.09,4.57
					C1061.48,146.09,1062.73,157.77,1065.64,157.99z"/>
				<path style="fill:#173C5E;" d="M1066.05,139.01c0,0,3.06,8.17,7.76,9.37c4.69,1.21,6.73-0.05,6.73-0.05
					c-2.32-2.04-3.85-4.81-4.35-7.86C1076.19,140.48,1068.36,135.12,1066.05,139.01z"/>
				<path style="fill:#173C5E;" d="M1066.81,139.67c0,0-2.29,1.82-2.85,3.6c-0.56,1.77-0.81,5.42-1.88,5.3c0,0-2.3-5.55,0.29-8.69
					C1065.13,136.55,1066.81,139.67,1066.81,139.67z"/>
				<path style="fill:#699DEE;" d="M1091.7,195.16c1.1-4.62-2.65-13.6-6.57-21.02c-3.55-6.73-7.24-12.19-7.57-11.99
					c-9.37,5.56-10.21,0.95-10.21,0.95s-8.51,1.13-10.92,5.28c-3.33,5.73-6.96,22.94-10.52,22.69c-1.64-0.12-18.11-6.31-18.11-6.31
					s-2.74,2.57-2.21,5.72c0,0,8.13,5.44,15.01,8.92c3.64,1.84,6.92,3.13,8.47,2.76c3.14-0.74,8.02-8,10.67-12.27l0.02-0.03
					c3.37,19.1-1.22,23.45,1.1,25.47c2.46,2.13,5.96-1.01,13.67,2.33c5.06,2.19,12.08,5.38,16.8,5.92c2.48,0.29,4.33-0.14,4.93-1.81
					C1098.01,216.89,1089.6,203.98,1091.7,195.16z"/>
				<path style="fill:#FFFFFF;" d="M1068.12,153.77c0,0-0.21,0.88-2.41,0.75c0,0-1.85-0.11-1.79-1.08
					C1063.93,153.44,1065.72,152.74,1068.12,153.77z"/>
				<path style="fill:#4A75CB;" d="M1096.26,221.75c-0.6,1.67-2.46,2.1-4.93,1.81c-3.27-1.42-17.4-6.9-17.24-10.6
					c0.24-5.49,2.72-5.67,0.97-12.44c-1.41-5.44,11.64-15.56,13.72-17.75c3.92,7.42,4.02,7.78,2.92,12.4
					C1089.6,203.98,1098.01,216.89,1096.26,221.75z"/>
				<path style="fill:#4A75CB;" d="M1059.73,189.88c-2.64,4.27-7.54,11.53-10.67,12.27c-1.55,0.37-4.84-0.92-8.47-2.76
					c2.66,0.69,5.24,0.67,7.74,0.42c2.71-0.26,3.5-3.59,7.79-8.58C1058.92,188,1059.61,188.81,1059.73,189.88z"/>
				<path style="fill:#FFB27D;" d="M1072.82,200.39c0,0-2.36-1.84-4.6-1.4c-2.23,0.44-3.33,1.97-3.24,2.67
					c0.09,0.7,1.27,2.67,2.97,2.85c1.71,0.18,6.57-1.05,6.57-1.05L1072.82,200.39z"/>
				<path style="fill:#699DEE;" d="M1077.57,162.16c0,0,9.11,0.56,12.26,4.96c4.43,6.19,12.15,31.46,10.04,37.24l-27.71-0.11
					c0,0-0.67-3.14,0.26-4.66c0.94-1.52,16.12-3.97,16.82-4.67c0.7-0.7-8.76-13.67-8.76-15.77
					C1080.49,177.05,1077.57,162.16,1077.57,162.16z"/>
				<path style="fill:#1C468A;" d="M1068.88,210.93h-33.56l-6.05-21.09h33.51L1068.88,210.93z"/>
				<path style="fill:#173C5E;" d="M1079.3,210.11h-43.86v0.82h43.86V210.11z"/>
				<path style="fill:#173C5E;" d="M1045.98,200.04c-0.21-0.74,0.22-1.34,0.95-1.34c0.39,0.02,0.77,0.16,1.08,0.4
					c0.31,0.24,0.54,0.57,0.65,0.94c0.22,0.74-0.21,1.34-0.95,1.34c-0.39-0.02-0.76-0.16-1.07-0.4
					C1046.32,200.74,1046.1,200.42,1045.98,200.04z"/>
				<path style="fill:#499EC4;" d="M970.95,210.93h33.56l6.05-21.09h-33.5L970.95,210.93z"/>
				<path style="fill:#499EC4;" d="M960.52,210.93h43.87v-0.82h-43.87V210.93z"/>
				<path style="fill:#3F88A8;" d="M993.85,200.04c0.21-0.74-0.22-1.34-0.95-1.34c-0.39,0.02-0.76,0.16-1.07,0.4
					c-0.31,0.24-0.54,0.57-0.65,0.94c-0.21,0.74,0.22,1.34,0.95,1.34c0.39-0.02,0.77-0.16,1.08-0.4
					C993.5,200.74,993.73,200.42,993.85,200.04L993.85,200.04z"/>
				<path style="fill:#FFB27D;" d="M980.11,173.16c0,0,3.4-2.78,4.63-2.8c1.22-0.01,3.55-0.63,3.46-0.23
					c-0.09,0.4-2.05,0.92-1.71,1.1c0.34,0.18,3.18-0.58,3.97-0.12c0.79,0.46,2.66,2.35,1.17,3.16c-1.5,0.81-6.02,2.14-7.16,1.99
					c-1.15-0.15-3.8-0.34-3.8-0.34L980.11,173.16z"/>
				<path style="fill:#FFB27D;" d="M936.61,276.65l2.86,12.03l4.28-0.03l0.16-12.01H936.61z"/>
				<path style="fill:#FFB27D;" d="M972.61,277.16l8.25,11.36l3.04-3.91l-4.89-9.03L972.61,277.16z"/>
				<path style="fill:#173C5E;" d="M955.95,131.72c0-0.03,0-0.06,0-0.09c-0.06-0.6-0.12-1.19-0.21-1.78
					c-0.23-1.72-0.57-3.42-1.03-5.09c-0.24-0.89-0.51-1.72-0.8-2.46c-0.04-0.11-0.09-0.22-0.13-0.32c-0.69-1.7-1.48-2.91-2.29-3.37
					c-1.48-0.84-3.25-0.93-4.49-0.86c0.27-0.23,0.6-0.38,0.95-0.45c-0.77-0.12-2.48,0.63-2.48,0.63
					c-10.68-4.11-12.36,11.61-12.13,15.26c0.22,3.65-3.59,4.85-9.15,7.72c-10.6,5.49-11.53,12.84-11.53,12.84
					c0.08,0.05,0.17,0.1,0.26,0.17c0.53-0.89,1.61-2.57,2.53-2.82c-0.55,1.16-1.04,2.36-1.47,3.58c1.34,1.02,3.16,2.57,5.15,4.3
					c2.65,2.31,5.57,4.95,7.91,7.09c0-0.73,0-1.77,0.28-2.31l0.44,2.68l0.06,0.35c1.48,1.37,2.66,2.46,3.25,3.02l0.16,0.15
					l0.27,0.25c-0.08-0.95,1.23-3.16,3.3-5.88c0.14-0.19,0.29-0.38,0.44-0.58c0.66-0.86,1.39-1.77,2.17-2.69
					c0.28-0.34,0.57-0.67,0.86-1.01c0.24-0.28,0.47-0.55,0.72-0.82c0.58-0.66,1.17-1.31,1.78-1.97c1.56-1.7,3.2-3.38,4.81-4.91
					c2.33-2.21,4.56-4.11,6.38-5.32c0.07-0.1,0.14-0.2,0.2-0.32c0.34-0.57,0.64-1.17,0.87-1.8c0.07-0.19,0.15-0.39,0.21-0.58
					c0.5-1.51,0.87-3.05,1.1-4.63c-0.12,1.59-0.37,3.17-0.77,4.71c-0.06,0.25-0.14,0.48-0.21,0.69c-0.13,0.41-0.29,0.81-0.47,1.2
					c0.32-0.29,0.6-0.62,0.85-0.97c0.17-0.24,0.34-0.49,0.49-0.75C955.99,141.48,956.38,136.5,955.95,131.72z"/>
				<path style="fill:#FFB27D;" d="M951.51,147.24c0.04,0.02-3.43,1.82-6.04,1.1c-2.45-0.67-4.05-3.85-4.02-3.85
					c1.04-0.21,1.34-1.64,1.32-7.77l0.47,0.1l7.91,1.56c0,0-0.18,2.48-0.19,4.82C950.95,145.16,951.07,147.03,951.51,147.24z"/>
				<path style="fill:#ED975D;" d="M951.13,138.37c0,0-0.18,2.48-0.19,4.82c-4.43-0.12-6.75-4.15-7.71-6.39L951.13,138.37z"/>
				<path style="fill:#173C5E;" d="M942.42,135.95c0,0-2.31-3.66-2.87-6.79c-0.39-2.23,0.74-10.51,9.07-9.32
					c1.68,0.23,3.27,0.84,4.69,1.77c1.8,1.22,4.41,3.85,1.5,11.07l-0.76,2.44L942.42,135.95z"/>
				<path style="fill:#2B478B;" d="M982.61,281.46l-4.19,0.13l-4.53,0.14c0,0-10.47-11.65-16.34-30.33
					c-0.14-0.43-0.28-0.87-0.43-1.32c-3.21-9.37-9.88-21.12-13.39-31.77c-0.55-1.7-1.06-3.29-1.51-4.8
					c-0.14-0.48-0.29-0.95-0.42-1.43c-2.59-8.98-3.34-14.87-4.03-21.2l25.34,0.2C963.13,191.1,967.23,234.15,982.61,281.46z"/>
				<path style="fill:#E7F1FD;" d="M959.58,176.55c-0.06,12.06,1.77,17.23,1.77,17.23s-10.85,5.51-23.74,1.46
					c-0.15-0.05-10.68-2.45-10.68-2.45c0.22-0.49,2.14-8.61,2.34-9.06c2.72-5.85,4.79-8.41,5.12-10.21
					c0.55-3.34,0.66-6.73,0.32-10.1c-0.51-5.38-1.56-10.69-3.13-15.87c3.52-0.8,6.9-2.16,10.56-3.53c0.84,1.05,3.32,2.1,5.56,2.05
					c2.56-0.06,3.4-1.16,3.27-2.36c2.74,1.52,4.92,2.96,4.92,2.96c2.33,4.04,7.05,7.97,7.39,14.16
					C963.34,162.36,959.58,176.21,959.58,176.55z"/>
				<path style="fill:#FFB27D;" d="M952.61,140.59c0,0-10.44,0.17-10.46-6.33c-0.02-6.5-1.36-10.87,5.31-11.26
					c6.68-0.39,7.97,2.1,8.5,4.27C956.5,129.45,955.33,140.38,952.61,140.59z"/>
				<path style="fill:#173C5E;" d="M952.22,122.83c0,0-2.86,7.64-7.26,8.77c-4.39,1.13-6.3-0.05-6.3-0.05
					c2.16-1.9,3.6-4.5,4.07-7.35C942.73,124.2,950.07,119.2,952.22,122.83z"/>
				<path style="fill:#173C5E;" d="M951.51,123.45c0,0,2.14,1.71,2.66,3.37c0.52,1.66,0.75,5.06,1.75,4.95c0,0,2.16-5.19-0.26-8.13
					C953.09,120.53,951.51,123.45,951.51,123.45z"/>
				<path style="fill:#FFB27D;" d="M939.32,288.01c0.17,1.66-0.01,3.35-0.54,4.93c0,0-0.7,3.19,2.44,3.25
					c3.14,0.06,3.92-0.24,3.56-2.19c-0.36-1.96-1.03-5.34-1.03-5.34L939.32,288.01z"/>
				<path style="fill:#1E4151;" d="M945.19,298.09h-6.88c-0.28-1.41,0.34-4.43,0.45-5.01c0-0.04,0.01-0.08,0.02-0.1
					c-0.01-0.01-0.01-0.02,0-0.03c3.55,3.26,5.78-0.09,5.78-0.09v0.02C945.09,294.15,945.2,297.59,945.19,298.09z"/>
				<path style="fill:#FFB27D;" d="M991.47,294.32c0,0-5.79-6.43-7.58-9.7l-4.3,2.21l9.63,9.04l2.26-0.29L991.47,294.32z"/>
				<path style="fill:#1E4151;" d="M995.16,298.09h-7.28c-1.07,0-1.93-1.78-3.08-4.09c-0.48-0.95-1.54-1.47-2.63-1.75l0.03,5.84
					h-1.7l-1.55-6.18c-1.02-1.9-0.08-3.6,0.64-5.08c0.84,0,3.09,0.57,7.38,5.38c1.41,1.58,2.96,2.15,4.5,2.1l0.07,0.03
					C995.1,295.95,995.16,298.09,995.16,298.09z"/>
				<path style="fill:#233862;" d="M978.42,281.58l-4.53,0.14c0,0-10.47-11.65-16.34-30.33c-0.14-0.43-0.28-0.87-0.43-1.32
					c-3.21-9.37-9.88-21.12-13.39-31.77c-0.55-1.7-1.06-3.29-1.51-4.8c-0.14-0.48-0.29-0.95-0.42-1.43l3.73-2.83
					c0,0,11.2,18.14,14.67,35.21C963.24,259.31,975.3,277.15,978.42,281.58z"/>
				<path style="fill:#2B478B;" d="M945.93,246.07c0.06,8.3-0.36,27.39-1.43,35.29h-4.02c-2.22,0-3.32-0.03-3.32-0.03
					c-2.72-13.74-4.65-25.11-6.05-34.9c-1.15-8.04-2.18-14.93-2.96-20.86c-0.79-5.93-1.35-10.97-1.55-15.19
					c-0.03-0.66-0.05-1.31-0.06-1.94c-0.01-0.63,0-1.25,0-1.84l21.9-2.14C948.15,218.99,945.9,241.24,945.93,246.07z"/>
				<path style="fill:#233862;" d="M940.48,281.36c-2.22,0-3.32-0.03-3.32-0.03c-2.72-13.74-4.65-25.11-6.05-34.9
					c-1.15-8.04-2.18-14.93-2.96-20.86c-0.79-5.93-1.35-10.97-1.55-15.19l8.04,4.73c0,0-5.13,1.81-3.16,15.5
					C933.44,244.29,937.76,279.42,940.48,281.36z"/>
				<path style="fill:#4AA4F4;" d="M941.52,210.23c0,0-1.55,5.57-6.88,4.86c-5.34-0.71-12.92-3.91-12.92-3.91s2.28-7.2,5.12-16.67
					c3.43-11.46,4.29-27.56,6.29-36.88c0.56-2.61,4.34-3.46,4.48-5.02l4.52-8.59c0,0,6.51,14.82,6.86,18.55
					C949.34,166.3,941.52,210.23,941.52,210.23z"/>
				<path style="fill:#2E90E8;" d="M937.78,173.56c-0.24,6.05-2.35,16.36-10.86,20.88c-0.03,0.02-0.07,0.03-0.1,0.05
					c3.43-11.46,3.39-22.46,5.38-31.77C936.79,161.78,937.92,170.22,937.78,173.56z"/>
				<path style="fill:#1E4151;" d="M993.01,169.94h-8.2c0,0.04,0,0.2-0.02,0.41c-0.03,0.74-0.08,2.21-0.07,2.33
					c0.12,1.74,1.33,2.7,2.49,3.16h0.02c0.26,0.1,0.53,0.18,0.81,0.24c0.18,0.04,0.37,0.07,0.55,0.09c0.1,0.01,0.21,0.02,0.31,0.02
					c0.58,0,1.15-0.12,1.68-0.36c0.73-0.33,1.35-0.85,1.78-1.52c0.44-0.67,0.67-1.45,0.67-2.25v-1.61
					C993.03,170.29,993.03,170.12,993.01,169.94L993.01,169.94z"/>
				<path style="fill:#1E485B;" d="M992.33,169.94h-1.11c0.02,0.17,0.03,0.34,0.03,0.52v1.61c0,1.08-0.42,2.12-1.18,2.89
					c-0.37,0.37-0.8,0.67-1.27,0.88c-0.25,0.11-0.51,0.2-0.77,0.26c-0.11,0.03-0.23,0.05-0.35,0.06c0.18,0.03,0.37,0.04,0.55,0.04
					c0.12,0,0.24-0.01,0.35-0.02c0.46-0.03,0.91-0.15,1.33-0.34c0.77-0.35,1.42-0.92,1.85-1.64c0.17-0.29,0.31-0.6,0.42-0.92
					c0.12-0.39,0.18-0.8,0.18-1.22v-1.61C992.37,170.29,992.36,170.12,992.33,169.94z"/>
				<path style="fill:#1E4151;" d="M987.22,176.35h3.37v-0.51h-3.37V176.35z"/>
				<path style="fill:#4AA4F4;" d="M981.17,171.65c0,0-11.75,3.91-13.22,3.59c-1.47-0.33-3.56-16.24-4.7-21.7
					c-1.46-7.03-7.03-8.42-7.03-8.42l-5.28-1.41c0,0,6.05,14.94,6.22,17.96c0.18,3.02,0.72,49.44,0.72,49.44s-0.36,2.14,3.73,1.25
					c4.09-0.89,5.16-1.78,5.16-1.78s-1.77-12.97-2.61-24.5c4.17-0.71,17.58-7.5,17.58-7.5
					C983.82,175.32,981.17,171.65,981.17,171.65z"/>
				<path style="fill:#FFB27D;" d="M928.32,187.39c0,0,4.62-0.81,5.76,0.32c1.15,1.13,2.72,5.98,1.42,6.25
					c-1.3,0.27-4.35-3.04-5.11-2.77c-0.76,0.27-2.14,0.69-2.46-0.03c-0.33-0.72-2.61-2.85-2.61-2.85L928.32,187.39z"/>
				<path style="fill:#FFB27D;" d="M931.69,186.2c0,0-2.82,1.23-3.37,1.2c-0.55-0.04,1.19,1.09,1.19,1.09l0.87-0.83
					C930.38,187.65,931.94,187.18,931.69,186.2z"/>
				<path style="fill:#4AA4F4;" d="M942.12,144.02c0,0-10.28,0.45-12.76,2.75c-2.47,2.3-17.28,20.03-17.52,24.68
					c-0.24,4.64,12.97,17.86,12.97,17.86s3.67-0.89,5.26-3.2c0,0-8.2-14.62-7.71-15.25c0.49-0.64,14.38-12.02,15.51-9.49
					C938.86,163.55,942.12,144.02,942.12,144.02z"/>
				<path style="fill:#C69D7F;" d="M938.05,215.51l-2.34,13.23l-6.45,36.56l-5.76,32.68c-0.05,0.24-0.18,0.46-0.37,0.62
					c-0.19,0.16-0.43,0.24-0.68,0.24c-0.11,0-0.21-0.02-0.31-0.06c-0.1-0.04-0.18-0.1-0.25-0.18c-0.07-0.08-0.12-0.17-0.16-0.27
					c-0.03-0.1-0.04-0.21-0.03-0.31l4.97-37.05l5.32-39.63l0.8-5.98L938.05,215.51z"/>
				<path style="fill:#A0795F;" d="M935.71,228.75c0.32-5.69-3.72-7.41-3.72-7.41l0.8-5.98l5.25,0.15L935.71,228.75z"/>
				<path style="fill:#C69D7F;" d="M1118.19,298.84c-0.24,0-0.49-0.08-0.68-0.24c-0.19-0.16-0.32-0.38-0.37-0.62l-5.12-29.04
					l-7.37-41.76l-2.06-11.68l5.25-0.15l0.91,6.78l6.4,47.63l3.8,28.24c0.01,0.1,0,0.21-0.03,0.31c-0.03,0.1-0.09,0.19-0.16,0.27
					c-0.07,0.08-0.16,0.14-0.26,0.18C1118.4,298.82,1118.3,298.85,1118.19,298.84L1118.19,298.84z"/>
				<path style="fill:#A0795F;" d="M1108.75,222.14c-3.4,1.5-4.11,5.06-4.11,5.06l-2.06-11.68l5.25-0.15L1108.75,222.14z"/>
				<path style="fill:#E0B594;" d="M1118.07,210.93h-206.7c-2.18,0-3.95,1.77-3.95,3.95v1.27c0,2.18,1.77,3.95,3.95,3.95h206.7
					c2.18,0,3.95-1.77,3.95-3.95v-1.27C1122.02,212.7,1120.25,210.93,1118.07,210.93z"/>
			</g>
		</g>
		<path style="fill:#D1A586;" d="M550.52,247.22c-0.29-6.96-0.91-12.97-1.65-17.2c-1.18-6.71-2.24-10.58-2.25-10.62
			c-0.16-0.59-2.4-2.98-7.38-2.9c-4.98,0.08-4.51,3.2-4.51,3.2c0,0.09,0.01,0.19,0.03,0.28c0.05,0.16,4.62,16.52,4.43,37.65
			c0,0.29-0.03,0.81,0,1.15c0,0,11.55,0.29,11.55,0C551.13,256.92,550.94,251.81,550.52,247.22z"/>
		<path style="fill:#E5BD9E;" d="M551.97,257.52c0,0.29-0.16,0.53-0.35,0.53c-0.19,0-0.34-0.24-0.34-0.53h-9.9
			c0,0.29-0.16,0.53-0.35,0.53c-0.2,0-0.35-0.25-0.35-0.54c0.05-5.57-0.23-11.14-0.82-16.67c-1.31-12.42-3.75-20.73-3.78-20.84
			c-0.02-0.09-0.04-0.19-0.03-0.28c0,0-0.47-3.13,4.51-3.2c4.98-0.07,7.23,2.32,7.38,2.9c0,0.03,0.61,2.21,1.4,6.15
			c0.27,1.3,0.55,2.8,0.84,4.47c0.74,4.21,1.35,10.26,1.64,17.2C552.23,251.81,552.39,255.67,551.97,257.52z"/>
		<path style="fill:#DFB697;" d="M551.97,257.51c0,0.29-0.16,0.53-0.35,0.53c-0.19,0-0.34-0.24-0.34-0.53h-9.9
			c0,0.29-0.16,0.53-0.35,0.53c-0.2,0-0.35-0.25-0.35-0.54c0.05-5.57-0.23-11.14-0.82-16.67c1.64-7.88,7.96-13.92,9.49-15.27
			c0.27,1.3,0.55,2.8,0.84,4.47c0.74,4.21,1.35,10.26,1.64,17.2C552.23,251.8,552.39,255.67,551.97,257.51z"/>
		<path style="fill:#D1A586;" d="M541.97,257.41l-0.03-0.03v-0.05c0-0.19-0.28-12.63-0.98-18.57c-0.42-3.53-2.98-18.28-2.99-18.35
			c-0.02-0.07-0.03-0.15-0.03-0.22c-0.02-0.26,0-0.51,0.08-0.76c0.08-0.24,0.21-0.47,0.37-0.66c0.56-0.65,1.55-1,2.95-1.02h0.17
			c3.59,0,5.25,1.74,5.38,2.21c0.02,0.09,2.87,11.47,3.36,17.91c0.04,0.59,0.15,1.61,0.27,2.89c0.75,7.55,1.47,15.61,0.41,15.8
			c-1.51,0.24-3.04,0.34-4.57,0.32c-0.42,0-0.83,0-1.21,0h-0.95c-1.32,0-2.15,0.08-2.16,0.48v0.02c0,0.03,0,0.06-0.05,0.06
			L541.97,257.41z M541.51,217.86h-0.17c-1.37,0.02-2.33,0.35-2.87,0.98c-0.16,0.18-0.28,0.4-0.35,0.63
			c-0.07,0.23-0.1,0.47-0.08,0.71c0,0.07,0.01,0.13,0.03,0.2c0,0.04,2.57,14.74,3,18.35c0.63,5.48,0.93,16.51,0.97,18.33
			c0.26-0.27,1-0.32,2.16-0.32h0.95c0.38,0,0.78,0,1.2,0c1.52,0.02,3.05-0.08,4.55-0.32c1.05-0.18,0-10.65-0.5-15.67
			c-0.13-1.28-0.23-2.3-0.27-2.9c-0.49-6.43-3.33-17.78-3.35-17.88C546.66,219.52,545.04,217.85,541.51,217.86L541.51,217.86z"/>
		<path style="fill:#E5BD9E;" d="M539.93,258.04h38.8c0,0-0.9-3.6-23.37-3.07C539.46,255.35,539.93,258.04,539.93,258.04z"/>
		<path style="fill:#D1A586;" d="M536.78,295.7c4.5-22.46,3.34-36.24,3.34-36.41c0-0.34,0.63-0.66,0.98-0.67
			c0.35-0.01,1.9-0.1,2.08,0.19c0.24,0.39,1.14,17.37-5.56,36.89H536.78z"/>
		<path style="fill:#D1A586;" d="M573,295.7c-4.5-22.46-3.34-36.24-3.34-36.41c0-0.34-0.63-0.66-0.98-0.67
			c-0.35-0.01-1.9-0.1-2.08,0.19c-0.24,0.39-1.14,17.37,5.56,36.89H573z"/>
		<path style="fill:#A0795F;" d="M580.18,295.7c-4.5-22.46-3.34-36.24-3.34-36.41c0-0.34-0.63-0.66-0.98-0.67
			c-0.35-0.01-1.9-0.1-2.09,0.19c-0.23,0.39-1.14,17.37,5.57,36.89H580.18z"/>
		<path style="fill:#A0795F;" d="M544,295.7c4.5-22.46,3.34-36.24,3.34-36.41c0-0.34,0.63-0.66,0.98-0.67
			c0.35-0.01,1.9-0.1,2.08,0.19c0.24,0.39,1.14,17.37-5.56,36.89H544z"/>
		<path style="fill:#D1A586;" d="M578.76,257.11h-38.81c-0.44,0-0.79,0.35-0.79,0.79v0.51c0,0.44,0.35,0.79,0.79,0.79h38.81
			c0.44,0,0.79-0.35,0.79-0.79v-0.51C579.55,257.46,579.2,257.11,578.76,257.11z"/>
		<path style="fill:#FFB27D;" d="M570.76,233.52c0,0,7.09,8.1,8.54,7.97c1.45-0.13,2.39-0.6,3.68,0c0.93,0.43,3.86,2.79,3.07,2.63
			c-0.79-0.16-2.22-0.34-2.59-0.37c-0.52-0.05-1.35-0.06-1.9-0.16c-0.36-0.06-1.65-0.1-2.08-0.11c-1.87-0.06-10.7-5.22-10.7-5.22
			L570.76,233.52z"/>
		<path style="fill:#1C468A;" d="M565.83,192.39c0,0-0.32-4.07-6.17-3.01c-1.55,0.28-2.61-2.48-5.14-1.5
			c-5.46,2.12-5.78-0.68-7.35,3.24c-0.66,1.64-4.86,3.56-3.58,6.39c1.28,2.83-0.86,4.75,0.63,6.96c0.78,1.15,0.46,3.21,4.14,3.28
			c1.83,0.03,4.68,3.43,6.74,4.04c2.06,0.61,8.23-0.27,8-3.09c-0.18-2.21,2.38-2.02,3.96-4.55c1.38-2.21-1.08-2.77,0.23-6.33
			C568.27,195.21,565.76,194.58,565.83,192.39z"/>
		<path style="fill:#FFB27D;" d="M598.01,292.47c-0.12,1.36,1.77,1.69,3.96,1.8c2.19,0.11,1.53,0.56,4.54,1.1
			c3.01,0.54,4.21-0.28,4.43-0.68c0.22-0.4-1.21-0.92-2.7-1.56l-0.56-0.25c-1.68-0.74-2.62-2.24-3.92-3.63
			c-1.24-1.32-2.41-5.55-2.41-5.55l-4.09-0.87c0,0,1.15,3.8,1.54,5.43c0.24,0.95-0.11,2.02-0.42,2.85
			C598.2,291.54,598.07,292,598.01,292.47L598.01,292.47z"/>
		<path style="fill:#499EC4;" d="M601.97,294.26c2.2,0.11,1.53,0.56,4.54,1.1c3.01,0.54,4.21-0.28,4.43-0.68
			c0.22-0.41-1.21-0.92-2.7-1.56l-0.02,0.03c-1.49,0.43-3.06,0.45-4.56,0.05c-1.99-0.54-3.91-1.73-5.28-2.11
			c-0.19,0.44-0.31,0.9-0.38,1.37C597.88,293.82,599.78,294.15,601.97,294.26z"/>
		<path style="fill:#173C5E;" d="M557.31,244.01c0,0,27.16-2.04,32.28,1.18c5.12,3.23,13.31,40.81,13.31,40.81
			c-0.49,0.32-1.05,0.5-1.64,0.53c-1.05,0.11-3.37-0.51-3.37-0.51s-11.78-16.81-12.61-21.05c-0.83-4.24-0.63-8.01-2.53-8.11
			c-1.9-0.1-25.45,2.85-29.01-3.41c-3.56-6.26-0.63-12.49-0.63-12.49L557.31,244.01z"/>
		<path style="fill:#FFB27D;" d="M588.66,292.62c-0.12,1.36,1.77,1.69,3.97,1.8c2.19,0.11,1.53,0.56,4.54,1.1
			c3.01,0.54,4.21-0.28,4.43-0.69c0.22-0.41-1.21-0.92-2.7-1.56l-0.56-0.24c-1.68-0.74-2.62-2.24-3.92-3.63
			c-1.24-1.32-2.41-5.55-2.41-5.55l-4.09-0.87c0,0,1.15,3.8,1.54,5.43c0.24,0.95-0.11,2.02-0.42,2.85
			C588.85,291.69,588.73,292.15,588.66,292.62L588.66,292.62z"/>
		<path style="fill:#499EC4;" d="M592.63,294.41c2.2,0.11,1.53,0.56,4.54,1.1c3.01,0.54,4.21-0.28,4.43-0.69
			c0.22-0.41-1.21-0.92-2.7-1.56l-0.02,0.02c-1.49,0.43-3.06,0.45-4.56,0.05c-1.99-0.54-3.91-1.73-5.28-2.11
			c-0.19,0.44-0.31,0.9-0.38,1.38C588.54,293.97,590.43,294.3,592.63,294.41z"/>
		<path style="fill:#1C468A;" d="M553.04,241.49c0,0,24.13,1.14,29.11,4.56c4.99,3.42,11.71,41.29,11.71,41.29
			c-0.5,0.29-1.07,0.45-1.65,0.46c-1.06,0.07-3.35-0.63-3.35-0.63s-11.12-17.26-11.78-21.51c-0.66-4.25-0.32-8.03-2.22-8.21
			c-1.9-0.17-25.54,1.87-28.86-4.54C542.68,246.49,553.04,241.49,553.04,241.49z"/>
		<path style="fill:#FFB27D;" d="M545.82,210.67l0.03-0.03c0.2-0.22,0.43-0.42,0.67-0.59c1.97-1.38,5.49-1.67,5.49-1.67
			s0.38-0.03,0.99-0.06c0.67-1.78,1.06-3.65,1.15-5.56l0.35,0.09l5.87,1.58c0,0-0.26,1.86-0.38,3.63c-0.03,0.39-0.04,0.77-0.05,1.12
			l0.47,0.18c0,0,3.36,0.4,4.15,1.27c0.79,0.87,2.38,6.54,2.78,7.55l-22.6,0.37C544.74,218.54,544.18,212.6,545.82,210.67z"/>
		<path style="fill:#6C96BC;" d="M573.85,233.56c-0.13,0.15-0.48,0.77-0.97,1.51c-0.15,0.22-0.32,0.46-0.47,0.69
			c-0.72,0.99-1.63,2.03-2.56,2.39c-0.34,0.14-0.71,0.18-1.06,0.1c-0.53-0.13-1.37-0.73-2.22-1.53c-0.72-0.68-1.36-1.43-1.92-2.24
			c-0.2-0.3-0.38-0.61-0.53-0.93c-0.03,0.24-0.06,0.47-0.09,0.69c-0.12,1.18-0.14,2.1,0.05,2.53c0.25,0.54,1.04,1.07,1.94,1.6
			c1.79,1.04,4.03,2.05,3.27,2.95c-0.63,0.76-2.63,1-4.75,1.35c-1.67,0.28-3.43,0.63-4.69,1.36l-0.15,0.09
			c-3.01,1.77-12.02,7.22-14.7,6.96c-1.05-0.1-0.86-2.12-0.22-4.79c1.01-4.22,3.11-10.08,3.11-12.62c0-1.39-3.12-15.17-3.12-15.17
			s-0.57-5.9,1.06-7.83l0.71-0.63c0.1,0.06,6.93,3.9,10.92,4.11c3.99,0.21,7.11-3.57,7.11-3.57c0.79,0.86,2.38,6.54,2.78,7.54
			c0,0,3.24,12.79,4.07,13.45C572.25,232.23,574.25,233.12,573.85,233.56z"/>
		<path style="fill:#F4A269;" d="M560.39,204.41c0,0-0.26,1.86-0.38,3.62c-3.32-0.32-4.88-3.48-5.49-5.2L560.39,204.41z"/>
		<path style="fill:#FFB27D;" d="M561.39,206.16c0,0-7.89-0.4-7.56-5.3c0.32-4.9-0.48-8.26,4.57-8.23c5.05,0.03,5.9,1.98,6.19,3.64
			C564.88,197.94,563.46,206.13,561.39,206.16z"/>
		<path style="fill:#1C468A;" d="M561.72,194.4c0,0-1.9-0.44-2.5,0.48c-0.6,0.92-0.18,1.43-1.55,1.81
			c-1.37,0.38-1.84,0.36-1.71,1.32c0.14,0.96-1.38,1.68-1.45,2.45c-0.03,0.33-0.18,0.63-0.42,0.85c-0.24,0.22-0.55,0.35-0.88,0.36
			c-0.6,0.05-0.32-9.92,2.01-10.36c2.33-0.44,4.59,0.09,5.28,0.63C561.19,192.48,561.72,194.4,561.72,194.4z"/>
		<path style="fill:#1C468A;" d="M561.72,194.39c0,0,1.83-0.13,2.16,0.92c0.33,1.04-0.11,1.29,0.36,1.92
			c0.47,0.63,0.2,1.75,0.2,1.75s3.62-6.67-0.2-7.11C560.42,191.44,560.52,192.21,561.72,194.39z"/>
		<path style="fill:#5983AA;" d="M572.88,235.07c-0.15,0.22-0.32,0.46-0.47,0.69c-0.72,0.99-1.63,2.03-2.56,2.39
			c-0.34,0.14-0.71,0.18-1.06,0.1c-0.53-0.13-1.37-0.73-2.22-1.53c-0.72-0.68-1.36-1.43-1.92-2.24c-0.2-0.3-0.38-0.61-0.53-0.93
			c-0.03,0.24-0.06,0.47-0.09,0.69v-1.12c0,0,0.44-19.54,1.12-10.95C565.63,228.46,570.38,233.06,572.88,235.07z"/>
		<path style="fill:#5983AA;" d="M549,221.63c0,0-9.69,16.67,10.68,22.49l0.15-0.09c1.27-0.73,3.01-1.08,4.69-1.36
			c2.13-0.35,4.11-0.58,4.75-1.34c0.76-0.91-1.47-1.9-3.27-2.95c-0.9-0.53-2.8-1.04-3.04-1.58C562.78,236.38,549,221.63,549,221.63z
			"/>
		<path style="fill:#C69D7F;" d="M536.16,240.18l-1.56,8.82l-4.3,24.36l-3.84,21.77c-0.03,0.16-0.12,0.31-0.24,0.41
			c-0.13,0.1-0.29,0.16-0.45,0.16c-0.07,0-0.14-0.01-0.2-0.04c-0.06-0.03-0.12-0.07-0.17-0.12c-0.05-0.05-0.08-0.11-0.1-0.18
			c-0.02-0.07-0.03-0.14-0.02-0.21l3.31-24.68l3.54-26.41l0.53-3.98L536.16,240.18z"/>
		<path style="fill:#A0795F;" d="M534.61,248.99c0.21-3.8-2.47-4.94-2.47-4.94l0.53-3.98l3.48,0.1L534.61,248.99z"/>
		<path style="fill:#C69D7F;" d="M746.04,295.68c-0.17,0-0.32-0.06-0.45-0.16c-0.13-0.1-0.21-0.25-0.24-0.41l-3.42-19.34
			l-4.91-27.82l-1.37-7.78l3.48-0.1l0.61,4.51l4.26,31.73l2.53,18.81c0.01,0.07,0,0.14-0.02,0.2c-0.02,0.07-0.05,0.13-0.1,0.18
			c-0.05,0.05-0.1,0.09-0.16,0.12C746.18,295.67,746.11,295.68,746.04,295.68L746.04,295.68z"/>
		<path style="fill:#A0795F;" d="M739.77,244.59c-2.27,1-2.73,3.36-2.73,3.36l-1.37-7.78l3.48-0.1L739.77,244.59z"/>
		<path style="fill:#E0B594;" d="M749.35,243.23H519.64c-0.81,0-1.58-0.32-2.16-0.9c-0.57-0.57-0.89-1.35-0.9-2.16l0,0
			c0-0.81,0.32-1.58,0.9-2.16c0.57-0.57,1.35-0.89,2.16-0.9h229.71c0.81,0,1.59,0.32,2.16,0.9c0.57,0.57,0.9,1.35,0.9,2.16l0,0
			c0,0.81-0.33,1.58-0.9,2.16C750.94,242.9,750.16,243.23,749.35,243.23L749.35,243.23z"/>
		<path style="fill:#169BD6;" d="M615.98,227.89h-47.99l4.45-36.26h47.99L615.98,227.89z"/>
		<path style="fill:#48ACFF;" d="M621.43,191.64l-4.45,36.25h-47.99l1.02-8.26l3.44-27.99H621.43z"/>
		<path style="fill:#38A3E5;" d="M621.42,191.64l-4.45,36.25h-47.99l1.02-8.26c39.61,2.39,40.9-22.61,40.73-27.99H621.42z"/>
		<path style="fill:#169BD6;" d="M598.87,207.28c-0.12-1.15-0.72-2.3-1.87-2.44h-2.02c-0.29-0.04-0.58-0.01-0.86,0.07
			c-0.28,0.08-0.53,0.22-0.75,0.41c-0.22,0.19-0.4,0.42-0.52,0.68c-0.13,0.26-0.19,0.55-0.2,0.84l-0.89,27.32
			c-0.01,0.43-0.19,0.84-0.5,1.14c-0.31,0.3-0.73,0.47-1.16,0.47h-4.98c-0.15,0-0.29,0.04-0.42,0.13c-0.12,0.09-0.21,0.21-0.25,0.36
			c-0.03,0.1-0.03,0.2-0.01,0.3c0.02,0.1,0.06,0.2,0.12,0.28c0.06,0.08,0.14,0.15,0.23,0.2c0.09,0.05,0.19,0.07,0.29,0.07h15.61
			c0.03,0,0.06,0,0.09,0h0.19c0.11,0,0.22-0.02,0.33-0.07c0.1-0.04,0.2-0.11,0.27-0.19c0.08-0.08,0.13-0.18,0.17-0.29
			c0.03-0.11,0.05-0.22,0.04-0.33L598.87,207.28z"/>
		<path style="fill:#48ACFF;" d="M599.98,207.28c-0.12-1.15-0.72-2.3-1.87-2.44h-2.02c-0.29-0.04-0.58-0.01-0.86,0.07
			c-0.28,0.08-0.53,0.22-0.75,0.41c-0.22,0.19-0.4,0.42-0.52,0.68c-0.13,0.26-0.19,0.55-0.2,0.83l-0.89,27.32
			c-0.01,0.43-0.19,0.84-0.5,1.14c-0.31,0.3-0.73,0.47-1.16,0.47h-4.98c-0.15,0-0.3,0.04-0.42,0.13c-0.12,0.09-0.21,0.21-0.25,0.36
			c-0.03,0.1-0.03,0.2-0.01,0.3c0.02,0.1,0.06,0.2,0.12,0.28c0.06,0.08,0.14,0.15,0.23,0.2c0.09,0.05,0.19,0.07,0.29,0.07h15.61
			c0.03,0,0.06,0,0.09,0h0.19c0.11,0,0.22-0.02,0.33-0.07c0.1-0.04,0.2-0.11,0.27-0.19c0.08-0.08,0.13-0.18,0.17-0.29
			c0.04-0.11,0.05-0.22,0.04-0.33L599.98,207.28z"/>
		<path style="fill:#169BD6;" d="M654.08,203.57l-2.65,31.64c0,0-0.28,1.92,1.15,1.92c2.34,0,11.68,0,11.68,0s-1.77-0.4-1.75-1.3
			c0.03-1.06,3.11-32.56,3.11-32.56L654.08,203.57z"/>
		<path style="fill:#4ABBED;" d="M665,236.54c-0.46,0-9.37,0.03-11.66,0c-1,0-1.17-0.88-1.18-1.45c0-0.16,0.01-0.32,0.03-0.47
			l0.07-0.82l0.18-2.09l0.16-1.85l0.2-2.38l0.17-2.01l1.9-22.46l11.53-0.32c0,0-1.3,13.18-2.21,22.78c-0.1,1.07-0.2,2.09-0.29,3.05
			c-0.03,0.32-0.06,0.6-0.08,0.9c-0.09,0.91-0.16,1.74-0.23,2.48c-0.04,0.39-0.07,0.75-0.1,1.08c-0.12,1.29-0.19,2.12-0.19,2.28
			c0,0.09,0.01,0.17,0.03,0.25C663.48,236.51,664.82,236.54,665,236.54z"/>
		<path style="fill:#48ACFF;" d="M626.08,186.34l6.48,26.03l0.89,3.57l3.02,12.12h56.09l-11.13-41.72H626.08z"/>
		<path style="fill:#4ABBED;" d="M626.08,186.34l-0.9,0.3l10.09,42.33l1.19-0.9L626.08,186.34z"/>
		<path style="fill:#169BD6;" d="M635.27,228.97h55.74l1.54-0.9h-56.09L635.27,228.97z"/>
		<path style="fill:#48ACFF;" d="M654.85,237.12h12.07v-0.57h-12.07V237.12z"/>
		<path style="fill:#48ACFF;" d="M689.84,220.38l-9.1-33.48h-54.75v-0.55h55.44l9.07,33.96L689.84,220.38z"/>
		<path style="fill:#169BD6;" d="M663.85,228.97l-0.06,0.44l-11.35,2.29l0.15-1.85l0.07-0.88H663.85z"/>
		<path style="fill:#38A3E5;" d="M665,236.53c-0.46,0-9.37,0.03-11.66,0c-1,0-1.17-0.88-1.18-1.45l11.3-2.12
			c-0.12,1.29-0.19,2.12-0.19,2.28c0,0.08,0.01,0.17,0.02,0.25C663.48,236.5,664.82,236.53,665,236.53z"/>
		<path style="fill:#38A3E5;" d="M661.11,219.62l-24.64,8.45l-3.02-12.13L661.11,219.62z"/>
		<path style="fill:#699DEE;" d="M626.08,186.34h55.35l8.98,33.53h-56.27L626.08,186.34z"/>
		<path style="fill:#169BD6;" d="M665.98,224.11c-0.09-0.41-0.31-0.78-0.64-1.05c-0.32-0.27-0.72-0.42-1.14-0.44
			c-0.19-0.01-0.37,0.03-0.54,0.11c-0.17,0.08-0.32,0.19-0.43,0.34c-0.12,0.14-0.2,0.31-0.24,0.49c-0.04,0.18-0.04,0.37,0.01,0.55
			c0.09,0.41,0.31,0.78,0.63,1.05c0.32,0.27,0.72,0.42,1.14,0.44c0.19,0.01,0.37-0.03,0.54-0.11c0.17-0.08,0.32-0.19,0.43-0.34
			c0.12-0.14,0.2-0.31,0.24-0.5C666.04,224.48,666.03,224.29,665.98,224.11L665.98,224.11z"/>
		<path style="fill:#E9F3FE;" d="M687.8,218.42h-51.83l-5.87-23.37l-0.45-1.79l-0.38-1.53l-0.9-3.59h51.08l0.99,3.59l0.42,1.53
			l0.49,1.79L687.8,218.42z"/>
		<path style="fill:#AFCDFB;" d="M680.44,191.72h-51.17l-0.9-3.59h51.08L680.44,191.72z"/>
		<path style="fill:#E9F3FE;" d="M630.48,189.76c-0.02-0.05-0.02-0.11-0.01-0.16c0.01-0.05,0.03-0.11,0.06-0.15
			c0.03-0.04,0.08-0.08,0.13-0.1c0.05-0.02,0.11-0.03,0.16-0.03c0.13,0.01,0.25,0.05,0.35,0.13c0.1,0.08,0.17,0.19,0.21,0.32
			c0.02,0.05,0.02,0.11,0.01,0.16c-0.01,0.05-0.03,0.11-0.06,0.15c-0.03,0.04-0.08,0.08-0.13,0.1c-0.05,0.02-0.11,0.03-0.16,0.03
			c-0.13-0.01-0.25-0.05-0.35-0.13C630.59,189.99,630.52,189.88,630.48,189.76L630.48,189.76z"/>
		<path style="fill:#E9F3FE;" d="M631.97,189.76c-0.02-0.05-0.02-0.11-0.01-0.16c0.01-0.05,0.03-0.11,0.06-0.15
			c0.03-0.04,0.08-0.08,0.13-0.1c0.05-0.02,0.1-0.03,0.16-0.03c0.13,0.01,0.25,0.05,0.35,0.13c0.1,0.08,0.17,0.19,0.21,0.32
			c0.02,0.05,0.02,0.11,0.02,0.16c-0.01,0.05-0.03,0.11-0.06,0.15c-0.03,0.04-0.08,0.08-0.13,0.1c-0.05,0.02-0.1,0.03-0.16,0.03
			c-0.13-0.01-0.25-0.05-0.35-0.13C632.08,189.99,632.01,189.88,631.97,189.76L631.97,189.76z"/>
		<path style="fill:#E9F3FE;" d="M633.58,189.76c-0.02-0.05-0.02-0.11-0.01-0.16c0.01-0.05,0.03-0.11,0.06-0.15
			c0.03-0.04,0.08-0.08,0.13-0.1c0.05-0.02,0.11-0.03,0.16-0.03c0.13,0.01,0.25,0.05,0.35,0.13c0.1,0.08,0.17,0.19,0.21,0.32
			c0.02,0.05,0.02,0.11,0.01,0.16c-0.01,0.05-0.03,0.11-0.06,0.15c-0.03,0.04-0.08,0.08-0.13,0.1c-0.05,0.02-0.1,0.03-0.16,0.03
			c-0.13-0.01-0.25-0.05-0.35-0.13C633.69,189.99,633.61,189.88,633.58,189.76L633.58,189.76z"/>
		<path style="fill:#AFCDFB;" d="M643.03,199.77h-7.81c-0.13-0.01-0.25-0.05-0.34-0.13c-0.1-0.08-0.17-0.19-0.2-0.31l0,0
			c-0.02-0.05-0.03-0.11-0.02-0.16c0.01-0.05,0.03-0.11,0.06-0.15s0.07-0.08,0.12-0.1c0.05-0.02,0.1-0.03,0.16-0.03h7.81
			c0.13,0.01,0.25,0.05,0.35,0.13c0.1,0.08,0.17,0.19,0.2,0.31l0,0c0.02,0.05,0.03,0.1,0.02,0.16c-0.01,0.05-0.03,0.1-0.06,0.15
			c-0.03,0.04-0.07,0.08-0.12,0.1C643.14,199.77,643.08,199.78,643.03,199.77z"/>
		<path style="fill:#AFCDFB;" d="M643.45,201.45h-7.81c-0.13-0.01-0.25-0.05-0.35-0.13c-0.1-0.08-0.17-0.19-0.21-0.31
			c-0.02-0.05-0.02-0.1-0.01-0.16c0.01-0.05,0.03-0.1,0.06-0.15c0.03-0.04,0.07-0.08,0.12-0.1c0.05-0.02,0.1-0.04,0.15-0.04h7.82
			c0.13,0.01,0.25,0.05,0.34,0.13c0.1,0.08,0.17,0.19,0.2,0.31c0.02,0.05,0.03,0.1,0.02,0.16s-0.03,0.1-0.06,0.15
			c-0.03,0.04-0.07,0.08-0.12,0.1C643.55,201.44,643.5,201.45,643.45,201.45z"/>
		<path style="fill:#AFCDFB;" d="M643.86,203.12h-7.82c-0.13-0.01-0.25-0.05-0.34-0.13c-0.1-0.08-0.17-0.19-0.2-0.31l0,0
			c-0.02-0.05-0.02-0.1-0.01-0.16c0.01-0.05,0.03-0.1,0.06-0.15c0.03-0.04,0.07-0.08,0.12-0.1c0.05-0.02,0.1-0.04,0.15-0.04h7.82
			c0.13,0.01,0.25,0.05,0.34,0.13c0.1,0.08,0.17,0.19,0.2,0.31l0,0c0.02,0.05,0.02,0.1,0.01,0.16c-0.01,0.05-0.03,0.1-0.06,0.15
			c-0.03,0.04-0.07,0.08-0.12,0.1C643.97,203.11,643.92,203.12,643.86,203.12z"/>
		<path style="fill:#AFCDFB;" d="M657,199.77h-7.82c-0.13-0.01-0.25-0.05-0.34-0.13c-0.1-0.08-0.17-0.19-0.2-0.31l0,0
			c-0.02-0.05-0.02-0.1-0.01-0.16c0.01-0.05,0.03-0.1,0.06-0.15c0.03-0.04,0.07-0.08,0.12-0.1c0.05-0.02,0.1-0.04,0.15-0.04h7.82
			c0.13,0.01,0.25,0.05,0.34,0.13c0.1,0.08,0.17,0.19,0.2,0.31l0,0c0.02,0.05,0.03,0.1,0.02,0.16c-0.01,0.05-0.03,0.1-0.06,0.15
			c-0.03,0.04-0.07,0.08-0.12,0.1C657.11,199.76,657.06,199.77,657,199.77z"/>
		<path style="fill:#AFCDFB;" d="M657.42,201.45h-7.81c-0.13-0.01-0.25-0.05-0.34-0.13c-0.1-0.08-0.17-0.19-0.2-0.31l0,0
			c-0.02-0.05-0.02-0.1-0.01-0.16c0.01-0.05,0.03-0.1,0.06-0.15c0.03-0.04,0.07-0.08,0.12-0.1c0.05-0.02,0.1-0.04,0.15-0.04h7.81
			c0.13,0.01,0.25,0.05,0.35,0.13c0.1,0.08,0.17,0.19,0.2,0.31l0,0c0.02,0.05,0.03,0.11,0.02,0.16c-0.01,0.05-0.03,0.11-0.06,0.15
			c-0.03,0.04-0.08,0.08-0.12,0.1C657.52,201.44,657.47,201.45,657.42,201.45z"/>
		<path style="fill:#AFCDFB;" d="M657.83,203.12h-7.81c-0.13-0.01-0.25-0.05-0.35-0.13c-0.1-0.08-0.17-0.19-0.2-0.31l0,0
			c-0.02-0.05-0.02-0.1-0.01-0.16c0.01-0.05,0.03-0.1,0.06-0.14c0.03-0.04,0.07-0.08,0.12-0.1c0.05-0.02,0.1-0.04,0.15-0.04h7.81
			c0.13,0.01,0.25,0.05,0.34,0.13c0.1,0.08,0.17,0.19,0.2,0.31l0,0c0.02,0.05,0.02,0.1,0.01,0.16c-0.01,0.05-0.03,0.1-0.06,0.15
			c-0.03,0.04-0.07,0.08-0.12,0.1C657.94,203.11,657.89,203.12,657.83,203.12L657.83,203.12z"/>
		<path style="fill:#AFCDFB;" d="M670.44,199.77h-7.81c-0.13-0.01-0.25-0.05-0.34-0.13c-0.1-0.08-0.17-0.19-0.2-0.31l0,0
			c-0.02-0.05-0.02-0.1-0.01-0.16c0.01-0.05,0.03-0.1,0.06-0.15c0.03-0.04,0.07-0.08,0.12-0.1c0.05-0.02,0.1-0.04,0.15-0.04h7.81
			c0.13,0.01,0.25,0.05,0.35,0.13c0.1,0.08,0.17,0.19,0.2,0.31l0,0c0.02,0.05,0.03,0.1,0.02,0.16c-0.01,0.05-0.03,0.11-0.06,0.15
			c-0.03,0.04-0.07,0.08-0.12,0.1C670.55,199.77,670.49,199.78,670.44,199.77z"/>
		<path style="fill:#AFCDFB;" d="M670.86,201.45h-7.81c-0.13-0.01-0.25-0.05-0.35-0.13c-0.1-0.08-0.17-0.19-0.21-0.31
			c-0.02-0.05-0.02-0.1-0.01-0.16c0.01-0.05,0.03-0.1,0.06-0.14c0.03-0.04,0.07-0.08,0.12-0.1c0.05-0.02,0.1-0.04,0.15-0.04h7.81
			c0.13,0.01,0.25,0.05,0.34,0.13c0.1,0.08,0.17,0.19,0.2,0.31c0.02,0.05,0.03,0.1,0.02,0.16c-0.01,0.05-0.03,0.1-0.06,0.15
			c-0.03,0.04-0.07,0.08-0.12,0.1C670.96,201.44,670.91,201.45,670.86,201.45z"/>
		<path style="fill:#AFCDFB;" d="M671.27,203.12h-7.82c-0.13-0.01-0.25-0.05-0.34-0.13c-0.1-0.08-0.17-0.19-0.2-0.31l0,0
			c-0.02-0.05-0.02-0.1-0.01-0.16c0.01-0.05,0.03-0.1,0.06-0.15c0.03-0.04,0.07-0.08,0.12-0.1c0.05-0.02,0.1-0.04,0.15-0.04h7.83
			c0.13,0.01,0.25,0.05,0.34,0.13c0.1,0.08,0.17,0.19,0.2,0.31l0,0c0.02,0.05,0.02,0.1,0.01,0.16s-0.03,0.1-0.06,0.15
			c-0.03,0.04-0.07,0.08-0.12,0.1C671.38,203.11,671.33,203.12,671.27,203.12z"/>
		<path style="fill:#AFCDFB;" d="M677.67,194.12l0.39,1.54c0.02,0.06,0.03,0.12,0.01,0.19c-0.01,0.06-0.03,0.12-0.07,0.17
			c-0.04,0.05-0.09,0.09-0.14,0.12c-0.06,0.03-0.12,0.04-0.18,0.04h-44.21c-0.15-0.01-0.29-0.06-0.4-0.16
			c-0.11-0.09-0.2-0.22-0.23-0.36l-0.39-1.54c-0.02-0.06-0.02-0.12-0.02-0.19c0.01-0.06,0.04-0.12,0.07-0.17
			c0.04-0.05,0.09-0.09,0.14-0.12c0.06-0.03,0.12-0.04,0.18-0.04h44.21c0.15,0.01,0.28,0.06,0.4,0.16S677.63,193.98,677.67,194.12
			L677.67,194.12z"/>
		<path style="fill:#48ACFF;" d="M664.16,193.6l0.63,2.57h-31.33c-0.15-0.01-0.29-0.06-0.4-0.16c-0.11-0.09-0.2-0.22-0.23-0.36
			l-0.39-1.54c-0.02-0.06-0.02-0.12-0.02-0.19c0.01-0.06,0.04-0.12,0.07-0.17c0.04-0.05,0.09-0.09,0.14-0.12
			c0.06-0.03,0.12-0.04,0.18-0.04H664.16z"/>
		<path style="fill:#699DEE;" d="M670.32,194.61h-0.49l-0.05-0.2h0.75l0.04,0.17l-0.25,0.87h-0.26L670.32,194.61z"/>
		<path style="fill:#699DEE;" d="M670.79,194.94c-0.08-0.32,0.05-0.54,0.32-0.54c0.14,0.01,0.28,0.07,0.39,0.17
			c0.11,0.1,0.18,0.23,0.21,0.37c0.08,0.32-0.05,0.54-0.32,0.54c-0.14-0.01-0.28-0.07-0.39-0.17
			C670.89,195.21,670.82,195.08,670.79,194.94L670.79,194.94z M671.48,194.94c-0.05-0.19-0.17-0.32-0.32-0.32
			c-0.14,0-0.19,0.14-0.14,0.32c0.05,0.18,0.17,0.32,0.32,0.32C671.48,195.25,671.53,195.13,671.48,194.94L671.48,194.94z"/>
		<path style="fill:#699DEE;" d="M671.8,194.67c-0.03-0.15,0.04-0.27,0.19-0.27c0.07,0,0.15,0.03,0.2,0.08
			c0.06,0.05,0.1,0.11,0.11,0.19c0.01,0.03,0.02,0.06,0.01,0.09c0,0.03-0.01,0.06-0.03,0.09c-0.02,0.03-0.04,0.05-0.07,0.06
			c-0.03,0.01-0.06,0.02-0.09,0.02c-0.08,0-0.15-0.03-0.21-0.08C671.86,194.81,671.82,194.74,671.8,194.67z M672.6,194.42h0.18
			l-0.5,1.04h-0.18L672.6,194.42z M672.15,194.67c-0.02-0.07-0.07-0.13-0.13-0.13c-0.06,0-0.08,0.06-0.06,0.13
			c0,0.03,0.02,0.06,0.04,0.09c0.02,0.02,0.05,0.04,0.09,0.04C672.15,194.8,672.17,194.74,672.15,194.67z M672.57,195.2
			c-0.01-0.03-0.02-0.06-0.01-0.09c0-0.03,0.02-0.06,0.03-0.09c0.02-0.03,0.04-0.05,0.07-0.06c0.03-0.01,0.06-0.02,0.09-0.02
			c0.07,0,0.15,0.03,0.2,0.08c0.06,0.05,0.1,0.11,0.11,0.19c0.01,0.03,0.02,0.06,0.01,0.09c0,0.03-0.02,0.06-0.03,0.09
			c-0.02,0.03-0.04,0.05-0.07,0.06c-0.03,0.01-0.06,0.02-0.09,0.02c-0.07,0-0.15-0.03-0.2-0.08
			C672.63,195.34,672.59,195.27,672.57,195.2z M672.92,195.2c-0.02-0.07-0.07-0.13-0.13-0.13c-0.06,0-0.08,0.06-0.06,0.13
			c0.01,0.03,0.02,0.06,0.04,0.09c0.02,0.02,0.05,0.04,0.09,0.04C672.92,195.34,672.95,195.27,672.92,195.2L672.92,195.2z"/>
		<path style="fill:#AFCDFB;" d="M660.49,215.3h-3.92c-0.29-0.01-0.56-0.12-0.78-0.29s-0.39-0.42-0.46-0.7l-1.9-7.59
			c-0.04-0.12-0.05-0.24-0.03-0.36c0.02-0.12,0.07-0.24,0.14-0.33c0.07-0.1,0.17-0.18,0.28-0.23c0.11-0.05,0.23-0.08,0.36-0.07h3.92
			c0.29,0.01,0.56,0.12,0.78,0.3c0.22,0.18,0.38,0.42,0.46,0.7l1.9,7.59c0.04,0.12,0.05,0.24,0.03,0.36
			c-0.02,0.12-0.07,0.24-0.14,0.33c-0.07,0.1-0.17,0.18-0.28,0.23C660.73,215.28,660.61,215.31,660.49,215.3L660.49,215.3z"/>
		<path style="fill:#AFCDFB;" d="M667.27,215.3h-3.92c-0.29-0.01-0.56-0.12-0.78-0.29c-0.22-0.18-0.38-0.42-0.46-0.7l-1.9-7.59
			c-0.04-0.12-0.05-0.24-0.03-0.36c0.02-0.12,0.07-0.24,0.14-0.33c0.07-0.1,0.17-0.18,0.28-0.23c0.11-0.05,0.23-0.08,0.36-0.07h3.92
			c0.29,0.01,0.56,0.12,0.78,0.3c0.22,0.18,0.38,0.42,0.46,0.7l1.9,7.59c0.04,0.12,0.05,0.24,0.03,0.36
			c-0.02,0.12-0.07,0.24-0.14,0.33c-0.07,0.1-0.17,0.18-0.28,0.23C667.52,215.28,667.4,215.31,667.27,215.3L667.27,215.3z"/>
		<path style="fill:#AFCDFB;" d="M673.93,215.3h-3.92c-0.28-0.01-0.56-0.12-0.78-0.3c-0.22-0.18-0.38-0.42-0.46-0.7l-1.9-7.59
			c-0.04-0.12-0.05-0.24-0.03-0.36c0.02-0.12,0.07-0.24,0.14-0.34c0.07-0.1,0.17-0.18,0.28-0.23c0.11-0.05,0.23-0.08,0.36-0.07h3.92
			c0.29,0.01,0.56,0.12,0.78,0.3c0.22,0.18,0.39,0.42,0.46,0.7l1.9,7.59c0.04,0.12,0.05,0.24,0.03,0.36
			c-0.02,0.12-0.07,0.24-0.14,0.33c-0.07,0.1-0.17,0.18-0.28,0.23C674.17,215.28,674.05,215.31,673.93,215.3z"/>
		<path style="fill:#AFCDFB;" d="M652.75,215.3h-13.27c-0.48-0.02-0.94-0.2-1.31-0.5c-0.37-0.3-0.64-0.71-0.77-1.17l-1.56-6.25
			c-0.23-0.92,0.32-1.67,1.27-1.67h13.27c0.48,0.02,0.94,0.2,1.31,0.5c0.37,0.3,0.64,0.71,0.77,1.17l1.56,6.25
			C654.23,214.56,653.67,215.3,652.75,215.3z"/>
		<path style="fill:#699DEE;" d="M650.19,208.11h-12.39c-0.11-0.01-0.21-0.05-0.3-0.11c-0.08-0.07-0.15-0.16-0.18-0.27
			c-0.02-0.04-0.02-0.09-0.01-0.14c0.01-0.05,0.03-0.09,0.05-0.13c0.03-0.04,0.06-0.07,0.11-0.09c0.04-0.02,0.09-0.03,0.14-0.03H650
			c0.11,0.01,0.21,0.05,0.3,0.11c0.09,0.07,0.15,0.16,0.18,0.27l0,0c0.01,0.04,0.02,0.09,0.01,0.14c-0.01,0.05-0.03,0.09-0.05,0.13
			c-0.03,0.04-0.06,0.07-0.11,0.09C650.28,208.11,650.23,208.12,650.19,208.11z"/>
		<path style="fill:#699DEE;" d="M650.55,209.58h-12.39c-0.11-0.01-0.21-0.04-0.3-0.11c-0.08-0.07-0.15-0.16-0.18-0.27l0,0
			c-0.02-0.04-0.02-0.09-0.01-0.14c0.01-0.05,0.02-0.09,0.05-0.13c0.03-0.04,0.06-0.07,0.11-0.09c0.04-0.02,0.09-0.03,0.14-0.03
			h12.39c0.11,0.01,0.21,0.05,0.3,0.11c0.09,0.07,0.15,0.16,0.18,0.27l0,0c0.01,0.04,0.02,0.09,0.01,0.14
			c-0.01,0.05-0.03,0.09-0.05,0.13c-0.03,0.04-0.06,0.07-0.11,0.09C650.64,209.57,650.6,209.58,650.55,209.58L650.55,209.58z"/>
		<path style="fill:#699DEE;" d="M650.91,211.04h-12.39c-0.11-0.01-0.21-0.05-0.3-0.11c-0.08-0.07-0.15-0.16-0.18-0.27l0,0
			c-0.01-0.04-0.02-0.09-0.01-0.14c0.01-0.05,0.03-0.09,0.05-0.13c0.03-0.04,0.06-0.07,0.11-0.09c0.04-0.02,0.09-0.03,0.14-0.03
			h12.4c0.11,0.01,0.21,0.05,0.3,0.11c0.08,0.07,0.15,0.16,0.18,0.27l0,0c0.01,0.04,0.02,0.09,0.01,0.14
			c-0.01,0.05-0.03,0.09-0.05,0.13c-0.03,0.04-0.07,0.07-0.11,0.09C651.01,211.03,650.96,211.04,650.91,211.04L650.91,211.04z"/>
		<path style="fill:#699DEE;" d="M641.85,212.67h-2.92c-0.11-0.01-0.21-0.04-0.3-0.11c-0.09-0.07-0.15-0.16-0.18-0.27l0,0
			c-0.02-0.04-0.02-0.09-0.01-0.14c0.01-0.05,0.03-0.09,0.05-0.13c0.03-0.04,0.06-0.07,0.11-0.09c0.04-0.02,0.09-0.03,0.14-0.03
			h2.92c0.11,0.01,0.21,0.04,0.3,0.11c0.09,0.07,0.15,0.16,0.18,0.27l0,0c0.01,0.04,0.02,0.09,0.01,0.14
			c-0.01,0.05-0.03,0.09-0.05,0.13c-0.03,0.04-0.06,0.07-0.11,0.09C641.94,212.67,641.9,212.68,641.85,212.67L641.85,212.67z"/>
		<path style="fill:#173C5E;" d="M697,254.94c0,0-7,3.48-7.42,7.25c-0.41,3.77,1.09,26.6,1.09,26.6s7.35,1.39,8.65,0.04
			c0,0,1.83-24.44,1.51-25.54c-0.32-1.1,20.17-7.13,21.99-7.09C724.64,256.24,697,254.94,697,254.94z"/>
		<path style="fill:#173C5E;" d="M698.79,288.69c0,0-0.43,6.9-1.76,6.99c-0.18,0-6.77,0-6.77,0l-8.41-0.05c0,0,0.05-2.03,2.53-2.45
			c2.48-0.43,6.58-2.16,8.07-5.41C693.99,284.37,698.79,288.69,698.79,288.69z"/>
		<path style="fill:#173C5E;" d="M675.16,288.69c0,0-0.43,6.9-1.76,6.99c-0.18,0-6.77,0-6.77,0l-8.41-0.05c0,0,0.06-2.03,2.53-2.45
			c2.47-0.43,6.58-2.16,8.07-5.41C670.38,284.37,675.16,288.69,675.16,288.69z"/>
		<path style="fill:#1C468A;" d="M726.5,242.66l-0.14,0.04c-0.09-0.35-0.24-0.68-0.47-0.96c-0.22-0.28-0.5-0.52-0.82-0.68
			c-5.19-2.94-15.08-0.95-15.08-0.95s-31.9,5.18-34.86,9.38c-2.96,4.2-7.56,39.97-7.56,39.97s5.58,1.46,7.89,0.59
			c0,0,11-28.34,11.88-31.4c0.77-2.66,15.94-0.72,23.59-1.27c4.59-0.14,11.76-0.47,13.71-1.15
			C727.58,255.21,726.5,242.66,726.5,242.66z"/>
		<path style="fill:#E49963;" d="M715.19,204.34l-2.65,3.3l-5.02,0.25c-0.05-0.48-0.22-2.56-0.37-4.33c-0.12-1.45-0.22-2.7-0.22-2.7
			l5.3-4.64c0,0.03,0.28,1.58,0.32,1.79C713.26,202,715.19,204.34,715.19,204.34z"/>
		<path style="fill:#39AFE2;" d="M706.39,203.11c0.11-0.04,6.78-1.64,7.48-1.36c0.7,0.27,1.05,1.68,1.05,1.68l-10.87,1.87
			C704.05,205.29,704.99,203.62,706.39,203.11z"/>
		<path style="fill:#E49963;" d="M705.54,201.33c0,0,7.11,0.32,7.25-4.11c0.13-4.43,1.14-7.37-3.39-7.77
			c-4.53-0.4-5.47,1.27-5.87,2.74C703.12,193.66,703.68,201.13,705.54,201.33z"/>
		<path style="fill:#173C5E;" d="M703.66,191.74c0,0,1.67,4.68,2.61,4.21c0.94-0.47,1.79-0.86,2.03,0.63
			c0.23,1.49-0.7,3.51,2.42,2.96c3.12-0.55,5.44-9.56,4.21-10.83C711.38,185.04,698.79,187.41,703.66,191.74z"/>
		<path style="fill:#4ABBED;" d="M726.5,242.66c-1.79,2.12-17.07,1.58-21.54-0.22c-0.28-0.1-0.54-0.24-0.78-0.42
			c-2.63-2.1,3.3-3.95-3.33-19.99c0,0,0,0,0-0.03c-4.76-11.52,0.29-15.26,3.48-17.11c0,0,9.1-2.79,14.19-1.22
			C725.1,205.72,728.43,240.38,726.5,242.66z"/>
		<path style="fill:#39AFE2;" d="M710.44,234.79c-0.32,2.18-2.06,7.57-5.48,7.65c-0.28-0.1-0.54-0.24-0.78-0.42
			c-2.63-2.1,3.3-3.95-3.33-19.99c0,0,0,0,0-0.02c1.11-0.76,2.91-1.63,4.08-0.32C706.7,223.72,710.75,232.53,710.44,234.79z"/>
		<path style="fill:#E49963;" d="M678.12,234.76c0,0-2.87-1.66-3.8-1.79c-0.93-0.14-5.31,3.58-4.66,3.87
			c0.65,0.29,3.96-1.11,4.43-0.82c0.47,0.29,0.85,1.09,1.38,1.1c0.52,0.01,2.29,0,2.29,0L678.12,234.76z"/>
		<path style="fill:#4ABBED;" d="M704.31,204.9c0,0-6.27,3.27-7.1,6.36c-0.82,3.09-3.84,18.03-5,19.08
			c-1.16,1.05-14.5,3.48-14.5,3.48s-1.56,1.73-1.07,3.31h20.84c0,0,9.39-13.58,8.72-18.71C705.54,213.29,704.31,204.9,704.31,204.9z
			"/>
		<path style="fill:#E5BD9E;" d="M731.9,256.73h-43.29c0,0,1.01-3.73,26.08-3.16C732.44,253.95,731.9,256.73,731.9,256.73z"/>
		<path style="fill:#D1A586;" d="M735.42,295.7c-5.02-23.23-3.73-37.49-3.72-37.67c0-0.36-0.71-0.68-1.09-0.69
			c-0.39-0.01-2.13-0.11-2.33,0.2c-0.26,0.4-1.27,17.97,6.2,38.17H735.42z"/>
		<path style="fill:#D1A586;" d="M695,295.7c5.02-23.23,3.73-37.49,3.72-37.67c0-0.36,0.71-0.68,1.09-0.69
			c0.39-0.01,2.13-0.11,2.33,0.2c0.26,0.4,1.27,17.97-6.21,38.17H695z"/>
		<path style="fill:#A0795F;" d="M686.99,295.7c5.02-23.23,3.73-37.49,3.72-37.67c0-0.36,0.71-0.68,1.1-0.69
			c0.39-0.01,2.12-0.11,2.33,0.2c0.26,0.4,1.27,17.97-6.21,38.17H686.99z"/>
		<path style="fill:#A0795F;" d="M727.37,295.7c-5.02-23.23-3.73-37.49-3.72-37.67c0-0.36-0.71-0.68-1.09-0.69
			c-0.39-0.01-2.13-0.11-2.33,0.2c-0.26,0.4-1.27,17.97,6.21,38.17H727.37z"/>
		<path style="fill:#D1A586;" d="M688.54,257.93h43.37c0.47,0,0.85-0.38,0.85-0.85v-0.46c0-0.47-0.38-0.85-0.85-0.85h-43.37
			c-0.47,0-0.85,0.38-0.85,0.85v0.46C687.7,257.55,688.08,257.93,688.54,257.93z"/>
		<path style="fill:#D1A586;" d="M720.1,245.54c0.32-7.18,1.01-13.44,1.83-17.79c1.31-6.96,2.5-10.95,2.51-10.99
			c0.17-0.61,2.67-3.08,8.23-3.01c5.55,0.08,5.03,3.32,5.03,3.32c0,0.1-0.01,0.19-0.04,0.29c-0.05,0.17-5.16,17.08-4.94,38.94
			c0,0.32,0.04,0.84,0.02,1.19c0,0-12.89,0.32-12.89,0C719.4,255.57,719.62,250.28,720.1,245.54z"/>
		<path style="fill:#1C468A;" d="M668.97,237.12c0,0,3.48-2.7,5.21-1.85c1.73,0.84,2.15,1.85,2.15,1.85H668.97z"/>
		<path style="fill:#FFB27D;" d="M559.61,235.29c0,0,3.3-0.75,4.34-0.43c1.04,0.32,3.36,2.26,2.79,2.26c-0.56,0-2.79-1.05-3.14-0.84
			c-0.35,0.21-1.9,1.01-2.93,0.61C559.64,236.48,559.61,235.29,559.61,235.29z"/>
		<path style="fill:#6C96BC;" d="M545.15,211.85c0,0-3.24,8.56-3.63,13.27c-0.61,7.36-0.58,11.96-0.58,11.96s2.09,0.09,7.42,0
			c5.33-0.09,11.58,0,11.58,0s1.6-1.55-0.58-2.74c-2.18-1.19-11.39-3.37-11.15-4.29l3.4-13.7L545.15,211.85z"/>
		<path style="fill:#1C468A;" d="M561.17,237.12c0,0,1.96-1.37,3.33-1.02c0.81,0.2,1.57,0.54,2.25,1.02L561.17,237.12z"/>
		<g>
			<path style="fill:#4AA4F4;" d="M327.53,282.8c-2.03,7.3-17.01,11.6-33.39,14.12h-61.15c-14.74-6.96-14.72-15.25-15.9-38.15
				c-2.44-47.3,23.38-70.14,34.9-66.37c0.48,0.16,0.95,0.32,1.46,0.52c3.35,1.3,7.09,3.59,10.74,9.04c0,0,11.45,18.38,20.87,29.35
				c3.03,3.53,5.85,6.29,8.02,7.42l0.08,0.04c0.11,0.06,0.23,0.11,0.34,0.16c4.99,2.21,12.02,6.82,18.45,12.65
				C321.9,260.59,330.39,272.5,327.53,282.8z"/>
			<path style="fill:#2E90E8;" d="M311.93,251.57c-8.57,2.53-52.7,14.82-63.08,1.8c-7.52-9.42-2.84-33.57,1.32-49.2
				c1.7-6.4,10.2-7.86,13.92-2.37c0.04,0.05,0.07,0.11,0.11,0.16c0,0,11.45,18.38,20.87,29.35c2.72,3.48,5.4,6.13,8.02,7.42
				l0.08,0.04c0.11,0.06,0.23,0.11,0.34,0.16C298.47,241.13,305.51,245.75,311.93,251.57z"/>
			<path style="fill:#F4A269;" d="M287.94,207.87c0,0,2.51,3.7,3.94,11.47c1.25,6.81,2.35,9.32,4.16,10.72
				c1.81,1.4,11.88,5.52,11.88,5.52l-0.76,1.76c0,0-14.77-2.01-16.42-4.46c-1.66-2.46-7.98-16.99-7.49-20.34
				C283.73,209.18,287.94,207.87,287.94,207.87z"/>
			<path style="fill:#FFB27D;" d="M324.1,289.06c-0.13,1.44,1.87,1.78,4.19,1.9c2.32,0.11,1.62,0.59,4.8,1.16
				c3.18,0.57,4.46-0.29,4.69-0.72c0.21-0.38-1.27-0.97-2.86-1.64l-0.6-0.26c-1.78-0.78-2.77-2.36-4.15-3.83
				c-1.31-1.39-2.56-5.85-2.56-5.85l-4.33-0.92c0,0,1.22,4.01,1.64,5.73c0.25,1.01-0.12,2.14-0.44,2.99
				C324.29,288.08,324.16,288.57,324.1,289.06L324.1,289.06z"/>
			<path style="fill:#499EC4;" d="M328.29,290.96c2.32,0.12,1.62,0.59,4.8,1.16c3.18,0.57,4.46-0.29,4.69-0.72
				c0.21-0.38-1.27-0.97-2.86-1.65l-0.03,0.03c-1.57,0.45-3.24,0.47-4.82,0.06c-2.11-0.57-4.13-1.82-5.59-2.21
				c-0.2,0.46-0.33,0.95-0.4,1.45C323.97,290.5,325.97,290.85,328.29,290.96z"/>
			<path style="fill:#173C5E;" d="M281.03,237.96c0,0,28.74-2.15,34.15,1.25c5.41,3.4,14.09,43.02,14.09,43.02
				c-0.52,0.33-1.11,0.53-1.73,0.56c-1.11,0.12-3.56-0.53-3.56-0.53s-12.47-17.74-13.33-22.2c-0.86-4.47-0.67-8.46-2.67-8.56
				c-2-0.1-26.94,3.02-30.71-3.6c-3.77-6.62-0.64-13.18-0.64-13.18L281.03,237.96z"/>
			<path style="fill:#FFB27D;" d="M313.1,293.67c-0.13,1.44,1.87,1.78,4.19,1.9c2.32,0.11,1.62,0.59,4.8,1.16
				c3.18,0.57,4.44-0.29,4.69-0.72c0.21-0.38-1.27-0.97-2.86-1.64l-0.6-0.26c-1.77-0.78-2.77-2.36-4.16-3.83
				c-1.31-1.39-2.54-5.85-2.54-5.85l-4.33-0.92c0,0,1.22,4.01,1.63,5.73c0.25,1.01-0.12,2.14-0.44,2.99
				C313.31,292.68,313.17,293.17,313.1,293.67L313.1,293.67z"/>
			<path style="fill:#499EC4;" d="M317.3,295.57c2.32,0.11,1.62,0.59,4.8,1.16c3.18,0.57,4.44-0.29,4.69-0.72
				c0.21-0.38-1.27-0.97-2.86-1.64l-0.03,0.02c-1.57,0.45-3.24,0.47-4.82,0.06c-2.1-0.57-4.13-1.82-5.59-2.21
				c-0.2,0.46-0.33,0.95-0.4,1.45C312.97,295.1,314.97,295.45,317.3,295.57z"/>
			<path style="fill:#194C72;" d="M275.4,239.73c0,0,25.53,1.21,30.79,4.82c5.26,3.61,12.38,43.55,12.38,43.55
				c-0.53,0.31-1.13,0.48-1.75,0.49c-1.11,0.08-3.54-0.67-3.54-0.67s-11.77-18.2-12.47-22.7c-0.7-4.5-0.32-8.48-2.33-8.66
				c-2.01-0.18-27.03,1.97-30.54-4.79C264.43,245,275.4,239.73,275.4,239.73z"/>
			<path style="fill:#173C5E;" d="M284.5,183.74c-1.13-0.75-2.54-0.91-3.53-0.92c0.23-0.17,0.5-0.28,0.78-0.32
				c-0.6-0.13-2.01,0.38-2.01,0.38c-8.29-3.84-10.48,8.57-10.48,11.48c0,2.92-0.22,6.25-4.64,8.58c-8.7,4.56-2.25,13.98-2.25,13.98
				c0.06,0.04,3.46,6.76,3.46,6.76c-0.06-2.36,11.63-14.01,17.54-17.35c1.51-1.93,2.24-5.47,2.3-5.75
				c-0.43,2.82-1.02,4.38-1.51,5.24C289.23,201.76,287.5,185.72,284.5,183.74z"/>
			<path style="fill:#FFB27D;" d="M283.21,204.65c-0.15-0.06-0.32-0.12-0.49-0.19c0-0.37,0.03-0.78,0.06-1.19
				c0.13-1.86,0.41-3.82,0.41-3.82l-6.21-1.66l-0.37-0.1c-0.1,2-0.51,3.98-1.22,5.86c-0.64,0.03-1.05,0.07-1.05,0.07
				c-0.1,0.37,2.64,6.03,6.26,6.18C281.78,209.84,285.02,205.41,283.21,204.65z"/>
			<path style="fill:#F4A269;" d="M283.18,199.46c0,0-0.28,1.96-0.41,3.82c-3.51-0.32-5.16-3.66-5.81-5.48L283.18,199.46z"/>
			<path style="fill:#173C5E;" d="M276.37,197.06c0,0-1.65-3.03-1.93-5.54c-0.2-1.8,1.15-8.31,7.72-6.93
				c1.32,0.27,2.57,0.84,3.64,1.65c1.37,1.07,3.31,3.3,0.61,8.88l-0.73,1.9L276.37,197.06z"/>
			<path style="fill:#FFB27D;" d="M284.24,201.29c0,0-8.34-0.42-8-5.59c0.34-5.17-0.51-8.71,4.84-8.67
				c5.34,0.05,6.24,2.09,6.55,3.84C287.93,192.63,286.42,201.26,284.24,201.29z"/>
			<path style="fill:#173C5E;" d="M284.87,187.16c0,0-2.69,5.92-6.25,6.58c-3.56,0.66-5.02-0.37-5.02-0.37
				c1.83-1.4,3.11-3.38,3.63-5.62C277.24,187.75,283.35,184.15,284.87,187.16z"/>
			<path style="fill:#173C5E;" d="M284.28,187.61c0,0,1.61,1.47,1.94,2.82c0.33,1.35,0.32,4.07,1.13,4.03c0,0,1.99-4.01,0.22-6.48
				C285.68,185.37,284.28,187.61,284.28,187.61z"/>
			<path style="fill:#1C468A;" d="M292.59,238.39c-0.68,0.8-2.78,1.05-5.04,1.42c-1.77,0.29-3.63,0.66-4.96,1.43
				c-3.01,1.76-12.83,7.71-15.71,7.43c-1.12-0.1-0.91-2.21-0.23-5.05c1.06-4.45,3.29-10.63,3.29-13.32c0-1.46,0.49-4.94,1.15-8.91
				c0.05-0.32,0.1-0.63,0.16-0.97c1.29-7.72,3.09-16.82,3.09-16.82s2,4.35,5.89,4.35s2.99-3.31,2.99-3.31s3.55,0.41,4.39,1.32
				c0.84,0.9,2.97,4.8,3.39,5.86c0,0,0.09,1.35-3.27,1.99c0,0,0.82,3.67,0.91,6.12c0.07,1.81-1.24,7.46-1.61,10.98
				c-0.13,1.25-0.15,2.21,0.05,2.67c0.26,0.57,1.1,1.14,2.06,1.69C291.02,236.37,293.39,237.42,292.59,238.39z"/>
			<path style="fill:#173C5E;" d="M289.12,235.27c2.16,3.66-5.84,4.76-7.17,5.54c-3.01,1.76-12.21,8.14-15.09,7.87
				c-1.12-0.1-0.91-2.21-0.23-5.05c1.06-4.45,3.29-10.63,3.29-13.32c0-1.46,0.49-4.94,1.15-8.91l3.47-3.32c0,0,3.71,9.57,7.25,11.14
				c1.68,0.72,3.43,1.29,5.22,1.69c-0.13,1.25-0.15,2.21,0.05,2.67C287.33,234.15,288.17,234.72,289.12,235.27z"/>
			<path style="fill:#FFB27D;" d="M273.25,206.48c0,0-2.96-1.79-5.83,1.61c-2.87,3.4,2.04,27.73,6.29,28.98
				c4.72,1.39,18.34-0.22,18.34-0.22l-0.26-2.12c0,0-14.5-2.77-15.11-3.54C276.07,230.41,274.77,206.87,273.25,206.48z"/>
			<path style="fill:#1C468A;" d="M274.33,203.62c0,0-6.09,0.55-7.86,2.53c-1.77,1.98-2.29,7.4-2.29,7.4s5.36,4.31,11.82,2.64
				L274.33,203.62z"/>
			<path style="fill:#2F7A9B;" d="M301.52,238.93h-8.04v-0.95h8.04V238.93z"/>
			<path style="fill:#2F7A9B;" d="M299.81,238.8c0.08-0.32,7.39-11.76,7.39-11.76h16.27l-8.16,11.45L299.81,238.8z"/>
			<path style="fill:#173C5E;" d="M300.5,238.93c0.08-0.32,7.42-11.89,7.42-11.89h15.55l-7.76,11.89H300.5z"/>
			<path style="fill:#2F7A9B;" d="M314.22,233.03c-0.09,0.23-0.24,0.44-0.44,0.59c-0.2,0.15-0.44,0.24-0.69,0.25
				c-0.1,0.01-0.2-0.01-0.3-0.06c-0.09-0.05-0.17-0.11-0.23-0.2c-0.06-0.09-0.09-0.18-0.09-0.29c0-0.1,0.02-0.2,0.06-0.29
				c0.09-0.23,0.24-0.44,0.44-0.59c0.2-0.15,0.44-0.24,0.69-0.25c0.1-0.01,0.2,0.01,0.29,0.06c0.09,0.05,0.17,0.11,0.23,0.2
				c0.06,0.09,0.09,0.18,0.09,0.28C314.29,232.83,314.27,232.93,314.22,233.03z"/>
			<path style="fill:#FFB27D;" d="M290.61,234.6c0,0,4.72-0.91,5.25-0.68c0.53,0.23,3.49,2.89,3.2,3.42
				c-0.29,0.53-1.52,0.91-2.9,0.46c-1.37-0.46-4.34-0.68-4.88-1.37C290.94,235.87,290.7,235.25,290.61,234.6L290.61,234.6z"/>
			<path style="fill:#E0B594;" d="M391.14,254.94h-54.53c-0.83,0-1.63-0.33-2.22-0.92c-0.59-0.59-0.92-1.38-0.92-2.21
				c0-0.83,0.33-1.62,0.92-2.21c0.59-0.59,1.38-0.92,2.21-0.92h54.53c0.83,0,1.63,0.33,2.22,0.92s0.92,1.38,0.92,2.21
				c0,0.83-0.33,1.62-0.92,2.21C392.76,254.61,391.97,254.94,391.14,254.94L391.14,254.94z"/>
			<path style="fill:#C69D7F;" d="M354.9,254.92l-1.73,6.72l-4.76,18.57l-4.26,16.6c-0.07,0.14-0.18,0.26-0.32,0.34
				c-0.14,0.08-0.3,0.11-0.46,0.09c-0.32,0-0.59-0.2-0.55-0.42L346.5,278l3.94-20.13l0.59-3.03L354.9,254.92z"/>
			<path style="fill:#A0795F;" d="M353.17,261.64c0.23-2.89-2.75-3.76-2.75-3.76l0.59-3.03l3.88,0.08L353.17,261.64z"/>
			<path style="fill:#C69D7F;" d="M374.99,254.92l1.74,6.72l4.76,18.57l4.27,16.6c0.07,0.14,0.18,0.26,0.31,0.34
				c0.14,0.08,0.3,0.11,0.46,0.09c0.34,0,0.6-0.2,0.55-0.42L383.4,278l-3.93-20.13l-0.59-3.03L374.99,254.92z"/>
			<path style="fill:#A0795F;" d="M376.73,261.64c-0.23-2.89,2.75-3.76,2.75-3.76l-0.59-3.03l-3.88,0.08L376.73,261.64z"/>
			<path style="fill:#1E4151;" d="M384.12,239.18l-0.1,2.35l-0.22,4.9l-0.1,2.26h-6.24l-0.14-2.26l-0.31-4.9l-0.15-2.35H384.12z"/>
			<path style="fill:#DDE3F2;" d="M384.24,237.59h-7.4l-0.3,1.58h7.91L384.24,237.59z"/>
			<path d="M384.02,241.52l-0.22,4.9h-6.49l-0.31-4.9H384.02z"/>
			<path d="M352.53,239.85l-0.04,0.95l-0.03,0.71l-0.2,4.52v0.39l-0.1,2.26h-6.25l-0.14-2.26l-0.02-0.39l-0.28-4.52l-0.04-0.71
				l-0.08-1.27l0.02-0.04c0,0,1.46-0.26,2.33,0.29c0.87,0.55,1.83-0.53,2.62-0.21s0.85,0.71,1.49,0.45
				C352.03,239.94,352.28,239.88,352.53,239.85L352.53,239.85z"/>
			<path style="opacity:0.2;enable-background:new    ;" d="M352.56,239.18l-0.03,0.67l-0.04,0.97l-0.03,0.71l-0.2,4.52l-0.02,0.39
				l-0.1,2.26h-6.25l-0.14-2.26l-0.02-0.39l-0.28-4.52l-0.04-0.71l-0.08-1.28l-0.02-0.35H352.56z"/>
			<path style="opacity:0.2;enable-background:new    ;" d="M352.61,239.18c0-0.04,0-0.07,0-0.11c-0.03-0.94-0.42-1.84-1.1-2.49
				c-0.68-0.66-1.59-1.02-2.53-1.02c-0.95,0-1.86,0.37-2.53,1.02c-0.68,0.66-1.07,1.55-1.1,2.49c0,0.04,0,0.07,0,0.11H352.61z"/>
			<path style="fill:#1E4151;" d="M348.33,248.11l-0.32-0.04c0.02-0.2,1.03-13.6,1.19-14.5c0.06-0.3,0.21-0.57,0.41-0.8
				s0.47-0.39,0.76-0.49h0l5.08-0.9l0.05,0.32l-5.08,0.9c-0.24,0.07-0.45,0.21-0.62,0.39c-0.17,0.18-0.28,0.4-0.34,0.65
				C349.37,234.51,348.34,248.06,348.33,248.11z"/>
			<path style="fill:#1E4151;" d="M352.49,240.81l-0.03,0.71l-0.2,4.52h-6.53l-0.28-4.52l-0.04-0.71H352.49z"/>
		</g>
		<path style="fill:#82B378;" d="M42.51,268.4c0,0,4.65-5.42,0.28-8.86c0,0-3.19-1.93-5.78-1.77c0,0,3.68,6.17,2.49,6.79
			c-1.19,0.61-3.61-7.18-3.61-7.18s-7.25-0.7-9.58,0.42c0,0,6.2,5.06,4.9,5.38c-1.3,0.32-8.02-4.69-8.02-4.69s-6.75,1.15-6.39,5.27
			c0.36,4.12,2.69,5.38,3.71,5.28c1.02-0.1,7-2.39,7.13-1.55c0.13,0.84-3.48,3.58-5.99,3.7c0,0,4.75,5.25,7.91,3.73
			c3.16-1.52,3.43-3.91,5.4-4.82s3.65-0.9,2.85,0.02c-0.81,0.92-4.38,1.81-5.51,3.8c-1.13,1.98-2.14,3.34,1.13,2.85
			c3.27-0.49,8.59-2.89,8.83-5.63L42.51,268.4z"/>
		<path style="fill:#82B378;" d="M20.11,263.87c0,0,18.33-0.71,22.38,4.54c0.79,1.98,2.04,3.73,3.65,5.12l0.43,1.17
			c0,0-3.16-3.35-4.31-3.55C42.26,271.14,44.03,264.64,20.11,263.87z"/>
		<path style="fill:#82B378;" d="M46.14,273.52c0,0,3.93,2.91,4.21,8.11l-0.72,0.06c0,0-1.27-5.38-3.53-7.48
			C43.84,272.11,46.14,273.52,46.14,273.52z"/>
		<path style="fill:#A8D29F;" d="M58.75,261.57c0,0-7.4-4.14-3.95-9.76c0,0,2.76-3.45,5.72-4.34c0,0-1.58,8.38,0,8.58
			c1.58,0.2,1.09-9.47,1.09-9.47s7.79-3.75,10.85-3.45c0,0-4.83,8.18-3.26,7.99c1.58-0.2,7-8.48,7-8.48s7.99-1.48,9.27,3.26
			c1.28,4.73-0.79,7.1-1.97,7.39c-1.18,0.29-8.78,0.2-8.58,1.18c0.2,0.98,5.33,2.57,8.19,1.68c0,0-3.16,7.79-7.3,7.4
			c-4.13-0.4-5.43-2.96-7.99-3.16c-2.56-0.21-4.43,0.49-3.16,1.18s5.62,0.23,7.69,1.99c2.07,1.76,3.75,2.85-0.1,3.63
			c-3.84,0.79-10.76,0.3-12.13-2.66L58.75,261.57z"/>
		<path style="fill:#82B378;" d="M81.83,247.38c0,0-20.71,6.71-23.08,14.2c0,0,0.1,3.35-1.97,7.2v1.48c0,0,2.17-5.03,3.35-5.72
			C60.13,264.54,55.48,258.03,81.83,247.38z"/>
		<path style="fill:#82B378;" d="M56.77,268.78c0,0-3.19,4.85-1.37,10.76l0.82-0.22c0,0-0.8-6.5,0.87-9.77
			C58.77,266.27,56.77,268.78,56.77,268.78z"/>
		<path style="fill:#A8D29F;" d="M46.98,255.86c0,0,9.77-5.46,5.2-12.88c0,0-3.64-4.55-7.54-5.72c0,0,2.08,11.05,0,11.31
			c-2.08,0.26-1.43-12.48-1.43-12.48s-10.27-4.94-14.3-4.55c0,0,6.37,10.79,4.29,10.53c-2.08-0.26-9.23-11.18-9.23-11.18
			s-10.53-1.95-12.22,4.29c-1.69,6.24,1.04,9.36,2.6,9.75c1.56,0.39,11.57,0.26,11.31,1.56c-0.26,1.3-7.02,3.38-10.79,2.21
			c0,0,4.16,10.27,9.62,9.75s7.15-3.9,10.53-4.16c3.38-0.26,5.85,0.65,4.16,1.56c-1.69,0.91-7.41,0.3-10.14,2.62
			c-2.73,2.32-4.94,3.75,0.13,4.79c5.07,1.04,14.17,0.39,15.99-3.51L46.98,255.86z"/>
		<path style="fill:#82B378;" d="M16.56,237.15c0,0,27.3,8.84,30.42,18.72c0,0-0.13,4.43,2.6,9.49v1.95c0,0-2.85-6.64-4.43-7.54
			C45.16,259.75,51.27,251.19,16.56,237.15z"/>
		<path style="fill:#82B378;" d="M49.58,265.35c0,0,4.21,6.39,1.81,14.17l-1.09-0.29c0,0,1.05-8.57-1.15-12.88
			C46.95,262.05,49.58,265.35,49.58,265.35z"/>
		<path style="fill:#48ACFF;" d="M47.31,296.4c-2.51,0-4.99-0.49-7.31-1.45c-2.32-0.96-4.42-2.37-6.2-4.14
			c-1.77-1.77-3.18-3.88-4.14-6.19c-0.96-2.32-1.45-4.8-1.45-7.31h38.2c0,5.06-2.01,9.92-5.59,13.5
			C57.23,294.39,52.37,296.4,47.31,296.4L47.31,296.4z"/>
		<path style="fill:#76D5FF;" d="M42.61,296.26c0.79,0.1,1.58,0.14,2.37,0.15c2.51,0,4.99-0.49,7.31-1.45
			c2.32-0.96,4.42-2.37,6.2-4.14c1.77-1.77,3.18-3.88,4.14-6.19c0.96-2.32,1.45-4.8,1.45-7.31h-4.75c0,4.65-1.7,9.15-4.78,12.64
			C51.47,293.43,47.23,295.68,42.61,296.26L42.61,296.26z"/>
		<path style="fill:#48ACFF;" d="M27.95,297.37h38.72c0-0.62-0.25-1.22-0.69-1.67c-0.44-0.44-1.04-0.69-1.67-0.69H30.3
			c-0.62,0-1.22,0.25-1.67,0.69C28.19,296.14,27.94,296.74,27.95,297.37L27.95,297.37z"/>
		<path style="fill:#169BD6;" d="M27.78,277.89h39.26v-0.59H27.78V277.89z"/>
		<path style="fill:#82B378;" d="M1196.44,268.4c0,0,4.65-5.42,0.29-8.86c0,0-3.19-1.93-5.79-1.77c0,0,3.68,6.17,2.49,6.79
			c-1.19,0.61-3.6-7.18-3.6-7.18s-7.26-0.7-9.59,0.42c0,0,6.2,5.06,4.89,5.38c-1.31,0.32-8.01-4.68-8.01-4.68s-6.75,1.15-6.39,5.27
			c0.36,4.12,2.69,5.38,3.71,5.28c1.02-0.1,7-2.39,7.13-1.55c0.13,0.84-3.48,3.58-5.99,3.7c0,0,4.75,5.25,7.91,3.73
			c3.17-1.52,3.44-3.91,5.41-4.82c1.97-0.9,3.65-0.9,2.85,0.02c-0.81,0.92-4.38,1.81-5.51,3.8c-1.13,1.98-2.14,3.34,1.13,2.85
			c3.27-0.49,8.59-2.88,8.82-5.63L1196.44,268.4z"/>
		<path style="fill:#82B378;" d="M1174.06,263.87c0,0,18.33-0.71,22.38,4.54c0.79,1.98,2.05,3.73,3.65,5.12l0.43,1.17
			c0,0-3.16-3.35-4.31-3.55C1196.21,271.14,1198,264.64,1174.06,263.87z"/>
		<path style="fill:#82B378;" d="M1200.09,273.52c0,0,3.93,2.91,4.21,8.11l-0.72,0.06c0,0-1.27-5.38-3.53-7.48
			C1197.8,272.11,1200.09,273.52,1200.09,273.52z"/>
		<path style="fill:#A8D29F;" d="M1212.7,261.57c0,0-7.4-4.14-3.95-9.76c0,0,2.76-3.45,5.72-4.34c0,0-1.58,8.38,0,8.58
			c1.58,0.2,1.08-9.47,1.08-9.47s7.79-3.75,10.85-3.45c0,0-4.83,8.18-3.25,7.99c1.58-0.2,7-8.48,7-8.48s7.99-1.48,9.27,3.26
			c1.28,4.73-0.79,7.1-1.98,7.39c-1.18,0.29-8.78,0.2-8.58,1.18c0.2,0.98,5.33,2.57,8.19,1.68c0,0-3.17,7.79-7.29,7.4
			c-4.13-0.4-5.42-2.96-7.99-3.16c-2.57-0.21-4.43,0.49-3.16,1.18c1.27,0.69,5.62,0.23,7.69,1.99c2.07,1.76,3.75,2.85-0.09,3.63
			c-3.85,0.79-10.76,0.3-12.13-2.66L1212.7,261.57z"/>
		<path style="fill:#82B378;" d="M1235.77,247.38c0,0-20.71,6.71-23.08,14.2c0,0,0.1,3.35-1.97,7.2v1.48c0,0,2.16-5.03,3.35-5.72
			C1214.08,264.54,1209.44,258.03,1235.77,247.38z"/>
		<path style="fill:#82B378;" d="M1210.73,268.78c0,0-3.2,4.85-1.38,10.76l0.82-0.22c0,0-0.8-6.5,0.87-9.77
			C1212.72,266.27,1210.73,268.78,1210.73,268.78z"/>
		<path style="fill:#A8D29F;" d="M1200.93,255.86c0,0,9.75-5.46,5.19-12.87c0,0-3.63-4.55-7.54-5.72c0,0,2.08,11.05,0,11.31
			c-2.08,0.26-1.43-12.48-1.43-12.48s-10.27-4.94-14.3-4.55c0,0,6.37,10.79,4.29,10.53c-2.08-0.26-9.23-11.18-9.23-11.18
			s-10.53-1.95-12.22,4.29c-1.69,6.24,1.04,9.36,2.6,9.75c1.56,0.39,11.57,0.26,11.31,1.56c-0.26,1.3-7.02,3.38-10.79,2.21
			c0,0,4.16,10.27,9.62,9.75c5.46-0.52,7.15-3.9,10.53-4.16c3.38-0.26,5.85,0.65,4.16,1.56c-1.69,0.91-7.41,0.3-10.14,2.62
			c-2.73,2.32-4.94,3.75,0.13,4.79c5.07,1.04,14.17,0.39,15.99-3.51L1200.93,255.86z"/>
		<path style="fill:#82B378;" d="M1170.51,237.15c0,0,27.3,8.84,30.43,18.72c0,0-0.13,4.43,2.6,9.49v1.95c0,0-2.85-6.64-4.43-7.54
			C1199.11,259.75,1205.22,251.19,1170.51,237.15z"/>
		<path style="fill:#82B378;" d="M1203.53,265.35c0,0,4.21,6.39,1.81,14.17l-1.08-0.29c0,0,1.05-8.57-1.15-12.88
			C1200.9,262.05,1203.53,265.35,1203.53,265.35z"/>
		<path style="fill:#48ACFF;" d="M1201.26,296.4c-2.51,0-4.99-0.49-7.31-1.45c-2.32-0.96-4.43-2.37-6.2-4.14
			c-1.78-1.77-3.18-3.88-4.14-6.19c-0.96-2.32-1.45-4.8-1.45-7.31h38.2c0,5.06-2.01,9.92-5.6,13.5
			C1211.18,294.39,1206.33,296.4,1201.26,296.4L1201.26,296.4z"/>
		<path style="fill:#76D5FF;" d="M1196.56,296.26c0.79,0.1,1.58,0.15,2.37,0.15c2.51,0,4.99-0.49,7.31-1.45
			c2.32-0.96,4.43-2.37,6.2-4.14c1.78-1.77,3.18-3.88,4.14-6.2c0.96-2.32,1.45-4.8,1.45-7.31h-4.74c0,4.65-1.7,9.15-4.78,12.64
			C1205.43,293.43,1201.18,295.68,1196.56,296.26z"/>
		<path style="fill:#48ACFF;" d="M1181.9,297.37h38.72c0-0.62-0.25-1.22-0.69-1.67c-0.44-0.44-1.04-0.69-1.66-0.69h-34.02
			c-0.62,0-1.22,0.25-1.66,0.69C1182.14,296.15,1181.9,296.74,1181.9,297.37L1181.9,297.37z"/>
		<path style="fill:#169BD6;" d="M1181.72,277.89h39.26v-0.59h-39.26V277.89z"/>
		<path style="fill:#2E3552;" d="M1232.05,296.6H12.94c-0.76,0-1.38,0.62-1.38,1.38v0.47c0,0.76,0.62,1.38,1.38,1.38h1219.11
			c0.77,0,1.39-0.62,1.39-1.38v-0.47C1233.44,297.22,1232.82,296.6,1232.05,296.6z"/>
	</g>
</g>
</svg>
