<?xml version="1.0" encoding="utf-8"?>
<!-- Generator: Adobe Illustrator 26.0.2, SVG Export Plug-In . SVG Version: 6.00 Build 0)  -->
<svg version="1.1" id="Layer_1" xmlns="http://www.w3.org/2000/svg" xmlns:xlink="http://www.w3.org/1999/xlink" x="0px" y="0px"
	 viewBox="0 0 581 383" style="enable-background:new 0 0 581 383;" xml:space="preserve">
<style type="text/css">
	.st0{fill:url(#SVGID_1_);}
	.st1{clip-path:url(#SVGID_00000042735569293891715520000002166477499620976790_);}
	.st2{opacity:0.2;}
	.st3{opacity:0.45;fill:#0C0C8E;}
	.st4{fill:#529ADB;}
	.st5{fill:#E4B48E;}
	.st6{fill:#B0754E;}
	.st7{fill:#225787;}
	.st8{fill:#3D7DB7;}
	.st9{fill:#282C50;}
	.st10{fill:#FFFFFF;}
	.st11{fill:#E2E2E2;}
	.st12{fill:#354859;}
	.st13{fill:#3973A8;}
	.st14{fill:#56A7EF;}
	.st15{fill:#428CCE;}
	.st16{fill:#437B96;stroke:#313138;stroke-linecap:round;stroke-linejoin:round;}
	.st17{fill:#FFFFFF;stroke:#313138;stroke-linecap:round;stroke-linejoin:round;}
	.st18{fill:#437B96;}
	.st19{fill:none;stroke:#313138;stroke-linecap:round;stroke-linejoin:round;}
</style>
<radialGradient id="SVGID_1_" cx="754.3192" cy="-132.2164" r="892.0054" gradientUnits="userSpaceOnUse">
	<stop  offset="0" style="stop-color:#73D7FF"/>
	<stop  offset="1" style="stop-color:#002BC6"/>
</radialGradient>
<rect x="-4.3" y="-10.2" class="st0" width="597.2" height="410.1"/>
<g>
	<defs>
		<rect id="SVGID_00000137097419766246963310000002495133103212975544_" y="0" width="581" height="383"/>
	</defs>
	<clipPath id="SVGID_00000121269834105937152230000006883166589722672784_">
		<use xlink:href="#SVGID_00000137097419766246963310000002495133103212975544_"  style="overflow:visible;"/>
	</clipPath>
	<g style="clip-path:url(#SVGID_00000121269834105937152230000006883166589722672784_);">
		<g class="st2">
			<path class="st3" d="M219.6,85.7c59.2,48,120.5,97.7,243.6,81.6c33.1-4.3,63.3-5.3,90.1-2.8c-40.7-40.6-82.5-14.5-163.8-84.2
				c-84.6-72.5-164.5-111.3-271.7-49l-2.3,1.3c20.1,0.9,43.8,7.3,68.1,25C195.8,66.4,207.9,76.2,219.6,85.7z"/>
			<path class="st3" d="M397.1,307.6c-26.6-16.6-54-28.4-79.2-34.1c-27.2-6.1-51.2-4.9-69.3,3.7c-69.1,32.6-182.7,26.3-242.8-18.3
				c3.1,40.8,16.3,82.9,42.4,123.3h430.9C458.2,353.1,427.5,326.5,397.1,307.6z"/>
			<path class="st4" d="M460.6,377.2H113.9c-0.6,0-1.3,0.3-1.7,0.7c-0.5,0.5-0.7,1.1-0.7,1.7l0,0c0,0.3,0.1,0.6,0.2,0.9
				c0.1,0.3,0.3,0.6,0.5,0.8c0.2,0.2,0.5,0.4,0.8,0.5s0.6,0.2,0.9,0.2h346.8c0.6,0,1.3-0.3,1.7-0.7c0.5-0.5,0.7-1.1,0.7-1.7l0,0
				c0-0.3-0.1-0.6-0.2-0.9c-0.1-0.3-0.3-0.6-0.5-0.8c-0.2-0.2-0.5-0.4-0.8-0.5C461.3,377.3,461,377.2,460.6,377.2L460.6,377.2z"/>
			<path class="st3" d="M444.9,239.2c-59.4-55.9-133.2-42.1-204.6-28.7c-41.3,7.8-80.4,15.1-115.4,8.9
				c-27.2-4.8-48.3-16.1-64.5-34.7c-13.9-16-21.9-34.6-28.9-51l-1.6-3.8c-18.8,39.4-27.1,83-24.2,126.5c59.1,45,173.1,51.5,242.2,19
				c18.5-8.7,42.9-10.1,70.5-3.8c25.4,5.8,53,17.6,79.8,34.4c29.8,18.6,57,42.4,76.4,66.9c2.4,3,4.7,6.1,6.9,9.2h31.4
				c0,0,29.5-30.9,50.4-72.4c-8-2.1-15.9-4.6-23.5-7.7C508,289.4,475.2,267.7,444.9,239.2z"/>
			<path class="st3" d="M564.4,177.3c-2.8-3.8-5.9-7.4-9.1-10.8c-27.2-2.7-58-1.8-91.8,2.6c-15.2,2-30.5,3.1-45.8,3.1
				c-94.3,0-147.5-43.2-199.2-85.1c-11.6-9.4-23.7-19.2-35.8-28.1c-25-18.3-49.4-24.3-69.8-24.8c-33.8,21-62.6,54-81.9,93.6l2.3,5.3
				c14.1,33,31.7,74.1,92,84.6c34.7,6.1,73.6-1.2,114.8-8.9c71.8-13.5,146.1-27.4,206.1,29.1c38.3,36,80.4,60.6,118,70.1
				C584,267.9,595.4,218.3,564.4,177.3z"/>
			<path class="st3" d="M395.2,60.6c7.6-13.1-51.7-41.5-60-34.5C327,33.2,386.5,75.7,395.2,60.6z"/>
			<path class="st4" d="M322.9,19.1c-3.1,3.4,4.1,7.9,7.1,5.6S325.8,16.1,322.9,19.1z"/>
			<path class="st3" d="M49,62.8c12.2,8-14.7,38.3-25.3,36.9C13.1,98.4,36.8,54.8,49,62.8z"/>
			<path class="st4" d="M52.1,58.3c3.7,6,15.4-3.6,10.5-8.2S49.4,53.8,52.1,58.3z"/>
		</g>
		<path class="st5" d="M253.3,380.2h34.3c0,0-0.9-4.6-3.7-7.5c-2.9-2.9-14.3-5.3-16-6.9l0.1-2.5v-1l0.2-4.9l-13.8,2.2l-0.5,4.8v0.3
			l-0.5,4.3C253.3,369.1,251.8,375.6,253.3,380.2z"/>
		<path class="st6" d="M253.8,364.8c4.9,1.6,10.9-0.2,14.2-1.5v-1l0.2-4.9l-13.8,2.2l-0.5,4.8V364.8z"/>
		<path class="st7" d="M287.6,380.2h-34.3c-1.4-4.6,0-11.1,0-11.1s10.6,2,14.6-3.3c1.7,1.6,13.2,4.1,16,6.9
			C286.7,375.6,287.6,380.2,287.6,380.2z"/>
		<path class="st5" d="M295.8,382.1h34.3c0,0-0.8-4.6-3.7-7.5c-2.9-2.9-14.3-5.3-16-6.9l0.1-2.7v-0.7l0.2-4.9l-13.8,2.2l-0.5,4.8
			v0.3l-0.5,4.3C295.8,371,294.4,377.5,295.8,382.1z"/>
		<path class="st6" d="M296.3,366.7c1.5,0.4,3.1,0.6,4.6,0.6c3.3,0.2,6.7-0.6,9.6-2.3v-0.7l0.2-4.9l-13.8,2.2l-0.5,4.8V366.7z"/>
		<path class="st7" d="M330.1,382.1h-34.3c-1.4-4.6,0-11.1,0-11.1s10.6,2,14.6-3.3c1.7,1.6,13.2,4.1,16,6.9S330.1,382.1,330.1,382.1
			z"/>
		<path class="st7" d="M254.1,244.6l2.6,57.6l-5.1,58.5c6.2,2,12.9,2,19.1,0l9.6-57.8l4.2-38.9l5.2,40.9l5.5,59.2
			c0,0,7.9,3.1,17.5-1.8l-2.4-61.1l-4.4-56.3L254.1,244.6z"/>
		<path class="st5" d="M330.1,194.1l2.9,7.2c0,0,2.3-0.6,4.8-1.5c2.5-0.8,5-1.8,5.6-2.6c1.2-1.6,2.2-3.2,3.2-4.8
			c1-1.5,0.7-3.6,1.2-4.6c0.5-1,1.1-2.9,0.4-3.3c-0.7-0.4-3.7,3-4.9,3.5c-1.2,0.6-4.9,1.6-4.9,1.6l1-1.2c0,0,1.7-1.6,1.8-2.4
			c0-0.2,0-0.4-0.1-0.6c-0.1-0.2-0.3-0.3-0.5-0.3c0,0-5.3,2.3-6.5,3.7c-0.5,0.6-1.4,1.7-2.1,2.7C331,192.8,330.1,194.1,330.1,194.1z
			"/>
		<path class="st6" d="M330.1,194.1l2.9,7.2c0,0,2.3-0.7,4.8-1.5c-2.7-2.1-4.8-5-5.9-8.3C331,192.8,330.1,194.1,330.1,194.1z"/>
		<path class="st4" d="M297.2,172.8l14.3,27.9l19.6-8.7l3.9,10.3l-27,12.2l-11.8-12.2L297.2,172.8z"/>
		<path class="st4" d="M252.6,245.1c2.3,1,4.8,1.8,7.2,2.4c15.5,4.1,31.9,3.6,47.1-1.6l-2.9-21.6l-1.3-9.9l-5.5-41.7l-11.3-6.8
			l-13.4-2.6l-12.4,8.2c0,0-1.4,6.4-3.1,16.1C254.4,203.1,251.2,226.8,252.6,245.1z"/>
		<path class="st8" d="M252.6,245.1c2.3,1,4.8,1.8,7.2,2.4l1.8-16.3h17l9.4-1.2l16-5.7l-1.3-9.9l-42-3.6l1.2-23.2l-4.9,0
			C254.4,203.1,251.2,226.8,252.6,245.1z"/>
		<path class="st9" d="M281.2,125.1c0,0,3.2-8-5.6-8.8c0,0-3.8-4.8-8.7-2.1c-1.4,0.7-2.5,1.9-3.2,3.3c-0.7,1.4-0.9,3-0.6,4.5
			c-1.1,0.6-1.9,1.6-2.4,2.7c-0.5,1.1-0.7,2.4-0.4,3.6c0.9,4.3,6.4,6.2,6.4,6.2L281.2,125.1z"/>
		<path class="st4" d="M275.6,125.5c-0.5-0.5-1.2-0.8-1.8-1c-0.7-0.2-1.4-0.1-2.1,0.1c-2.3,0.8-4.6,4.3-2.8,6.5
			C271.6,130,274,128.1,275.6,125.5L275.6,125.5z"/>
		<path class="st9" d="M294,144.7c0,0,2.7-1.1,3.2-5.5c0.4-4.4-2.6-10.5-8-11.1c-5.4-0.6-8.4-5.5-13.6-2.6c-5.2,2.9-6.7,5.6-6.7,5.6
			s-4.7,3.6-4.7,6.8s1.5,4.8,0.8,7.7c-0.7,2.9,3,11.3,8.5,13.2L294,144.7z"/>
		<path class="st5" d="M293.8,141.7c0,0,2,17.7-7.9,18.6v8.1c0,0-4.9,4.9-14.1-1.7l2.7-14.1c0,0-3.1,0-3.7-3.9
			c-0.6-3.9,4.3-6.2,6-2.6c0,0,1.4-2.9,4.2-3.3c2.8-0.3,7.7-0.7,8.4-4.1C289.5,138.7,290.3,141,293.8,141.7z"/>
		<path class="st4" d="M260.1,171.6c0,0-11.8,3.7-15.9,49.3c0,0,11.4,6.8,33,6.5v-8.9l-21.7-5.2c0,0,4.7-17.6,6.4-25.6
			C263.5,179.7,260.1,171.6,260.1,171.6z"/>
		<path class="st5" d="M277.2,218.5v7c0,0,1.6,0,3.7,0c2.6,0,5.1-0.3,7.7-0.8c4-0.9,10-6,8.6-6.2c-1.1-0.1-12.5-0.1-17.6,0
			L277.2,218.5z"/>
		<path class="st6" d="M277.2,218.5v7c0,0,1.6,0,3.7,0c-0.8-2.2-1.2-4.6-1.3-7H277.2z"/>
		<path class="st10" d="M275.7,218.6l41.8,0.4l6.6-33.8h-41.3L275.7,218.6z"/>
		<path class="st11" d="M275.2,218.8l-17.3-3.7v-2.7L274,217c0.3,0.1,0.5,0.1,0.8,0.1c0.3,0,0.5-0.1,0.7-0.3
			c0.2-0.1,0.4-0.3,0.6-0.6c0.1-0.2,0.2-0.5,0.3-0.7l4.6-30h1.5l-4.9,31.8c0,0.3-0.1,0.5-0.3,0.8c-0.1,0.2-0.3,0.4-0.5,0.6
			c-0.2,0.2-0.5,0.3-0.7,0.3C275.7,218.9,275.5,218.9,275.2,218.8L275.2,218.8z"/>
		<path class="st9" d="M284.4,264.1l7.2-3.2l-6.2,11.1L284.4,264.1z"/>
		<path class="st6" d="M285.9,160.3c-1.9,0.1-3.8-0.5-5.4-1.5c-1.6-1.1-2.9-2.6-3.6-4.4c0,0-1.2,9.4,9,10.6V160.3z"/>
		<path class="st9" d="M182.9,122.8c0,0,5.2-3.3,2.6-8.8c-2.6-5.4-9.1-8.5-13.7-6.8c0,0-2.7-3.1-7.3-1.2c-1.4,0.6-2.6,1.5-3.5,2.7
			c-0.9,1.2-1.6,2.5-1.9,4c0,0-5.1-1.6-7.1,3.1c-2,4.8,1.1,9,1.1,9s-4.2,2.1-2.9,7.4c1.3,5.4,3.9,6.3,3.9,6.3s-0.3,5.4,1.7,6.9
			c1.2,0.9,2.8,1.4,4.3,1.3L182.9,122.8z"/>
		<path class="st12" d="M187.1,158.7l11,39c0,0,0.8,16-4.5,40.2l-4.4-9.1L187.1,158.7z"/>
		<path class="st5" d="M144.2,378h34.3c0,0-0.8-4.6-3.7-7.5c-2.9-2.9-14.3-5.3-16-6.9l0.1-2.4l0-1.1l0.2-4.9l-13.8,2.2l-0.5,4.2
			l-0.1,0.6l-0.5,4.6C144.2,366.8,142.8,373.4,144.2,378z"/>
		<path class="st7" d="M178.5,378h-34.3c-1.4-4.6,0-11.1,0-11.1s10.6,2,14.6-3.3c1.7,1.6,13.2,4.1,16,6.9
			C177.7,373.4,178.5,378,178.5,378z"/>
		<path class="st5" d="M186.7,373H221c0,0-0.8-4.6-3.7-7.5c-2.9-2.9-14.3-5.3-16-6.9l0.1-2.1l0.1-1.3l0.2-4.9l-13.8,2.2l-0.5,4.8
			l-0.1,0.6l-0.4,4.1C186.7,361.9,185.3,368.4,186.7,373z"/>
		<path class="st6" d="M187.2,357.3l-0.1,0.6c5,2,11,0,14.2-1.4l0.1-1.3l0.2-4.9l-13.8,2.2L187.2,357.3z"/>
		<path class="st6" d="M144.8,361.6c1.8,0.4,3.7,0.7,5.6,0.7c2.9,0.1,5.7-0.3,8.5-1.1l0-1.1l0.2-4.9l-13.8,2.2L144.8,361.6z"/>
		<path class="st7" d="M221,373h-34.3c-1.4-4.6,0-11.1,0-11.1s10.6,2,14.6-3.3c1.7,1.6,13.2,4.1,16,6.9C220.2,368.4,221,373,221,373
			z"/>
		<path class="st7" d="M146.3,235.6l1.3,57.7l-5.1,65.4c6.2,2,12.9,2,19.1,0l9.6-64.7l4.2-38.9l5.2,40.9l5.5,59.2
			c0,0,7.9,3.1,17.5-1.8l-2.4-61.1l-8-57.9L146.3,235.6z"/>
		<path class="st13" d="M145,235.2c3.5,0.9,7,1.5,10.6,2c23.2,3,39.3-3.5,39.3-3.5l-7.7-75l-13.2-6l-14-0.4l-14.6,8.2l-0.1,18.6
			L145,235.2z"/>
		<path class="st12" d="M155.5,237.2l-0.6-17.9l23.1-1l10.9-1.2l-0.1-4.3l-35.3-6.7l-0.8-29c0,0-3.2,0.8-7.5,1.8l-0.3,56.2
			C148.4,236.1,152,236.8,155.5,237.2L155.5,237.2z"/>
		<path class="st5" d="M182.4,120.1c0,0,5.8,26.6-9.1,27.9l0.8,6c0,0-4.4,4.5-14.2,0l0.2-13.2c-1.2-0.5-2.1-1.5-2.6-2.6
			c-1.2-2.2-3.3-6.6,0-7.5c3.3-0.9,4.3,2.7,4.3,2.7l1.4-0.2c0,0-0.9-6.4,0.7-6.8c1.6-0.4,3.7,1.7,7.6-0.4c3.9-2.1,3.3-4.8,6.1-5.2
			C179.2,120.8,180.8,120.5,182.4,120.1L182.4,120.1z"/>
		<path class="st13" d="M145.3,160.5c0,0-4.2,3.5-6.5,13.1s-2.6,32.3-2.4,35.6c0.2,3.3,21.6,7.2,41.2,6.6c0,0,2.2-1.2,0.6-8.8
			l-28.6-6.6c0,0,3.7-21.3,3.2-26.7C152.2,168.2,148.9,162.3,145.3,160.5z"/>
		<path class="st5" d="M178.1,215.2c1.3,0.2,2.7,0.3,4,0.3c1.8,0,3.6-0.3,5.3-0.9c4-1.5,4.8-2.4,5-2.7c2.2-4,1.6-7.7,1.2-8.1
			c-0.4-0.4-4.6,1.2-6,1.5c-1.3,0.1-2.6,0.1-4,0l-0.4-3.2c-1.1,0.5-3.2,2.9-4.3,4.4c-0.5,0.6-0.8,1-0.8,1L178.1,215.2z"/>
		<path class="st6" d="M182.1,215.4c-2.1-2.6-3.2-5.8-3.1-9.1c-0.5,0.6-0.8,1-0.8,1l-0.2,7.9C179.4,215.4,180.8,215.5,182.1,215.4z"
			/>
		<path class="st9" d="M175.3,255l5.6-5.8l-4.3,15.8L175.3,255z"/>
		<path class="st6" d="M173.3,148.1c0,0-5.5,0.5-9.8-5.6c0,0,0.2,8.7,10.3,9.3L173.3,148.1z"/>
		<path class="st5" d="M453.6,382.5h34.3c1.4-4.6,0-11.1,0-11.1l-0.5-4.6v-0.2l-0.5-4.6l-13.8-2.2l0.2,4.9v0.9l0.1,2.6
			c-1.7,1.6-13.2,4-16,6.9C454.4,377.9,453.6,382.5,453.6,382.5z"/>
		<path class="st7" d="M453.6,382.5h34.3c1.4-4.6,0-11.1,0-11.1s-10.6,2-14.6-3.3c-1.7,1.6-13.2,4-16,6.9
			C454.4,377.9,453.6,382.5,453.6,382.5z"/>
		<path class="st5" d="M411,382.5h34.3c1.4-4.6,0-11.1,0-11.1l-0.4-3.2l-0.2-1.4l-0.5-4.8l-13.8-2.2l0.2,4.9v0.3l0.1,3.2
			c-1.7,1.6-13.2,4-16,6.9C411.9,377.9,411,382.5,411,382.5z"/>
		<path class="st6" d="M486.8,362l-13.8-2.2l0.2,4.9v0.9c6.9,2.6,11.9,1.7,14.1,1.1L486.8,362z"/>
		<path class="st6" d="M430.4,359.8l0.2,4.9v0.3c4.6,3.4,11.7,3.4,14.3,3.3l-0.2-1.4l-0.5-4.8L430.4,359.8z"/>
		<path class="st7" d="M411,382.5h34.3c1.4-4.6,0-11.1,0-11.1s-10.6,2-14.6-3.3c-1.7,1.6-13.2,4-16,6.9
			C411.9,377.9,411,382.5,411,382.5z"/>
		<path class="st9" d="M449.9,124.7c0,0-5.3-3.7-4.7-11.4c0.6-7.8,9.3-8.2,13.1-6.9c3.7,1.3,5.4,6.9,7.9,7.8
			c2.5,0.9,11.3,2.9,11.2,7.7c0,0,5.6,0.7,5.3,5.3c-0.3,4.6,0.4,18.7-10.4,22.9L449.9,124.7z"/>
		<path class="st7" d="M485.8,240.1l-1.3,57.6l5,65.4c-6.2,2-12.9,2-19.1,0l-9.5-64.7l-4.1-38.9l-5.2,40.9l-5.6,64.1
			c0,0-7.9,3.1-17.5-1.8l2.5-66.1l8.1-57.9L485.8,240.1z"/>
		<path class="st5" d="M395.4,148.9c0,1.3,2.6,5.1,4.4,7.6c1,1.5,1.8,2.5,1.8,2.5l7.1-4.3c0,0,0-0.4,0-1.1c0-1.6,0.1-4.6,0-5.9
			c-0.1-1.9-3.2-7.3-3.2-7.3c-0.2-0.1-0.4-0.1-0.6,0c-0.2,0.1-0.4,0.2-0.5,0.4c-0.4,0.7,0,3.1,0,3.1l0.1,1.6c0,0-2.4-3.3-3.1-4.6
			c-0.7-1.3-1-6-1.9-6.1c-0.9-0.1-1.6,2-1.8,3.1c-0.2,1.1-1.8,2.7-1.9,4.6C395.6,144.7,395.4,146.8,395.4,148.9z"/>
		<path class="st6" d="M399.8,156.4c1,1.5,1.8,2.5,1.8,2.5l7.1-4.3c0,0,0-0.4,0-1.1C408.7,153.6,402.1,153.4,399.8,156.4z"/>
		<path class="st14" d="M445.2,163.2l-19.9,17l-15.7-25.8c-3.1,1-5.9,2.6-8.3,4.8c0,0,13,28.2,21.5,35.7l19.5-3.7L445.2,163.2z"/>
		<path class="st14" d="M437.4,238.2c0,0,13.5,5.5,33.6,4.1c5.5-0.4,10.9-1.2,16.3-2.5l-0.2-57.2l-0.1-17.5l-14.6-8.3l-13.9,0.4
			l-13.3,6l-6.1,59.2L437.4,238.2z"/>
		<path class="st15" d="M452.7,223.5l19.8,1.3l-1.6,17.5c5.5-0.4,10.9-1.2,16.3-2.5l-0.2-57.2l-7.5-4.5l-4.9,35l-34.9,3.3l-0.7,6.1
			L452.7,223.5z"/>
		<path class="st5" d="M449.9,124.7c0,0-5.8,26.6,9.1,27.9l-0.8,6c0,0,4.4,4.5,14.2,0l-0.2-13.2c1.2-0.5,2.1-1.5,2.6-2.6
			c1.2-2.2,3.3-6.6,0-7.5c-3.3-0.9-4.3,2.7-4.3,2.7l-1.4-0.2c0,0,0.9-6.4-0.7-6.8c-1.6-0.4-3.7,1.7-7.6-0.4
			c-3.9-2.1-3.3-4.8-6.1-5.2C453.2,125.3,451.6,125,449.9,124.7L449.9,124.7z"/>
		<path class="st4" d="M449.4,201.7l-12.9,0.3l1.8,17.9l9.2-0.2L449.4,201.7z"/>
		<path class="st5" d="M439.8,216.4c0.2,0.3,1,1.2,5,2.7c2.4,0.8,4.9,1,7.5,0.8c1.1-0.1,1.9-0.2,1.9-0.2l-0.2-7.9
			c0,0-3.6-4.7-5.1-5.4l-0.3,3.3c-1.3,0.1-2.6,0.1-3.9,0c-1.4-0.2-5.6-1.9-6-1.5C438.2,208.7,437.6,212.4,439.8,216.4z"/>
		<path class="st6" d="M452.2,219.9c1.1-0.1,1.9-0.2,1.9-0.2l-0.2-7.9C452.8,214.4,452.2,217.1,452.2,219.9z"/>
		<path class="st9" d="M442.9,203.2c3.5,0,6.4-0.7,6.4-1.5c0-0.8-2.9-1.5-6.4-1.5s-6.4,0.7-6.4,1.5
			C436.5,202.5,439.4,203.2,442.9,203.2z"/>
		<path class="st9" d="M456.8,259.5l-7.5-4l6.2,14.6L456.8,259.5z"/>
		<path class="st15" d="M442.3,191.3l1.1-10.4l-6.8,11.5L442.3,191.3z"/>
		<path class="st6" d="M459,152.6c0,0,5.7,0.2,10.2-6c0,0-1.3,9.5-10.7,10.2L459,152.6z"/>
		<path class="st14" d="M486.9,165.1c0,0,4.2,3.5,6.5,13.1c2.3,9.6,2.6,32.3,2.3,35.6s-21.7,7.1-41.2,6.6c0,0-2.2-1.3-0.6-8.8
			l28.6-6.6c0,0-3.7-21.3-3.2-26.7C480.1,172.7,483.4,166.8,486.9,165.1z"/>
		<path class="st16" d="M79.3,140.4l32.2,0.3c0,0,2.1-0.3,2.7,1.3c0,0,5.6,14.1,5.9,19.2c0.3,5.1-1.1,4.3,1.1,10.9
			c2.1,6.7,8.2,22.4,11.7,35.2c4.6,17.2,5.9,35.4,6.2,53.2c0,2.9,1.7,27.4-2.7,27.4c-3.7,0-37.6,4.5-38-2c-1.6-26.1,3.1-51.5-6-76.9
			c-3.5-9.9-7.5-20.2-10.5-30.5c-3-10.3-3.5-21-5.5-31.6C75.1,139.6,79.3,140.4,79.3,140.4z"/>
		<path class="st17" d="M76.2,143.6c0.3-3.7,3.2-3.2,3.2-3.2l32.2,0.3c0,0,2.1-0.3,2.7,1.3c0,0,5.6,14.1,5.9,19.2
			c0.1,1.3,0,2.7-0.1,4l-0.7,1.1c0,0-1.1,9.3-13.8,9.9c-12.8,0.5-20-5.3-22.6-10.9c-2.7-5.6-3.7-14.6-5.9-20
			C76.7,144.7,76.5,144.1,76.2,143.6L76.2,143.6z"/>
		<path class="st17" d="M83.6,154c2.2,7.8,0.9,10,3,23.4c2.2,13.4,9.9,28.6,13,42.4c3,13.8,1.7,62.7,1.3,64.9
			c-0.2,1.2-0.2,2.3-0.2,3.5c-1.5-0.5-2.3-1.3-2.4-2.3c-1.6-26.1,3.1-51.5-6-76.9c-3.5-9.9-7.5-20.2-10.5-30.5
			c-3-10.3-3.5-21-5.5-31.6c-0.8-4.4,0.5-5.8,1.6-6.2C80.4,144.8,82.3,149.3,83.6,154z"/>
		<path class="st16" d="M145.9,350.8l0.2-0.2v-30.1h-4.3v-19h16v19h-4.3v30.6l38.2,12.2v3c0,0.9-0.4,1.8-1,2.4c-0.6,0.6-1.5,1-2.4,1
			c-0.9,0-1.8-0.4-2.4-1c-0.6-0.6-1-1.5-1-2.4V366l-32-3.7v4.6c0,0.8-0.3,1.6-0.9,2.1s-1.3,0.9-2.1,0.9c-0.8,0-1.6-0.3-2.1-0.9
			s-0.9-1.3-0.9-2.1v-4.7l-33.3,3.9v0.4c0,0.9-0.4,1.8-1,2.4c-0.6,0.6-1.5,1-2.4,1s-1.8-0.4-2.4-1c-0.6-0.6-1-1.5-1-2.4v-3
			L145.9,350.8z"/>
		<path class="st16" d="M99.5,305h96.4c2,0,3.7-1.6,3.7-3.7v-14.8c0-2-1.6-3.7-3.7-3.7H99.5c-2,0-3.7,1.6-3.7,3.7v14.8
			C95.9,303.4,97.5,305,99.5,305z"/>
		<path class="st17" d="M255.7,206.9h-38.2v44.2h38.2V206.9z"/>
		<path class="st17" d="M214.6,253.1h43.1v-39.9h-20.4L214.6,253.1z"/>
		<path class="st17" d="M266.9,255.3h-24.7c-0.5,0-0.9-0.2-1.3-0.6c-0.3-0.3-0.5-0.8-0.5-1.3c0-0.5,0.2-0.9,0.5-1.3
			c0.3-0.3,0.8-0.5,1.3-0.6h24.7c0.6,0,1.2-0.1,1.7-0.4c0.5-0.2,1-0.6,1.4-1c0.5-0.5,0.8-1.2,1-1.9c0.2-0.7,0.1-1.4-0.1-2.1
			l-8.8-31.4c-0.1-0.5-0.1-0.9,0.2-1.4c0.2-0.4,0.6-0.7,1.1-0.9c0.5-0.1,0.9-0.1,1.4,0.2c0.4,0.2,0.7,0.6,0.9,1.1l8.8,31.4
			c0.4,1.3,0.4,2.6,0.1,3.9c-0.3,1.3-0.9,2.5-1.8,3.4c-0.7,0.8-1.6,1.5-2.6,1.9C269.1,255,268,255.3,266.9,255.3L266.9,255.3z"/>
		<path class="st17" d="M263.9,173.7l-5.6-0.7l-8.6,72.3l5.6,0.7L263.9,173.7z"/>
		<path class="st17" d="M263.9,173.7c0,0,9.9,35.5-8.7,72.3L263.9,173.7z"/>
		<path class="st18" d="M62.3,382.5h225.6V255.1H62.3V382.5z"/>
		<path class="st17" d="M62.3,382.5h225.6V255.1H62.3V382.5z"/>
		<path class="st19" d="M62.3,382.5h225.6V255.1H62.3V382.5z"/>
		<path class="st18" d="M62.5,261.7h225.3v-3.5H62.5V261.7z"/>
		<path class="st17" d="M60.7,258.6h232.2V253H60.7V258.6z"/>
		<path class="st4" d="M161,282.6h113.7v-6.2H161V282.6z"/>
		<path class="st4" d="M149.1,308.2h125.6V302H149.1V308.2z"/>
		<path class="st4" d="M132.2,333.8h142.5v-6.2H132.2V333.8z"/>
		<path class="st4" d="M100.7,359.3h174v-6.2h-174V359.3z"/>
	</g>
</g>
</svg>
