<?xml version="1.0" encoding="utf-8"?>
<!-- Generator: Adobe Illustrator 26.0.2, SVG Export Plug-In . SVG Version: 6.00 Build 0)  -->
<svg version="1.1" id="Layer_1" xmlns="http://www.w3.org/2000/svg" xmlns:xlink="http://www.w3.org/1999/xlink" x="0px" y="0px"
	 viewBox="0 0 543 348" style="enable-background:new 0 0 543 348;" xml:space="preserve">
<style type="text/css">
	.st0{fill:url(#SVGID_1_);}
	.st1{opacity:0.45;fill:#0C0C8E;}
	.st2{opacity:0.8;fill:#0056A3;enable-background:new    ;}
	.st3{opacity:0.8;fill:#0068C6;enable-background:new    ;}
	.st4{fill:url(#SVGID_00000125593741798406103080000001946978974897861023_);}
	.st5{fill:url(#SVGID_00000097495855140681429270000005902331117173474993_);}
	.st6{opacity:0.8;fill:#0072F1;enable-background:new    ;}
	.st7{fill:url(#SVGID_00000093863393943324446150000013183311242058455960_);}
	.st8{fill:url(#SVGID_00000089535133172875380310000006102071146424481933_);}
	.st9{fill:url(#SVGID_00000150809510891790528880000000186569639753727909_);}
	.st10{fill:url(#SVGID_00000067236290930420116610000000837604898800413066_);}
	.st11{fill:url(#SVGID_00000171693148077515024680000001434140723453926574_);}
	.st12{fill:#FFFFFF;}
	.st13{fill-rule:evenodd;clip-rule:evenodd;fill:#C22328;}
	.st14{fill:#5A9EDF;}
	.st15{fill-rule:evenodd;clip-rule:evenodd;fill:url(#SVGID_00000092448259754507027570000007689292419071787919_);}
	.st16{fill-rule:evenodd;clip-rule:evenodd;fill:url(#SVGID_00000060009792309614066470000010505414592204546434_);}
	.st17{fill-rule:evenodd;clip-rule:evenodd;fill:url(#SVGID_00000026848000033348225530000016286557109822821022_);}
	.st18{fill:#C22328;}
	.st19{fill:#666666;stroke:#263238;stroke-linecap:round;stroke-linejoin:round;stroke-miterlimit:10;}
	.st20{opacity:0.8;fill:#0058A8;enable-background:new    ;}
	.st21{fill:#FFFFFF;stroke:#263238;stroke-linecap:round;stroke-linejoin:round;stroke-miterlimit:10;}
	.st22{fill:#263238;stroke:#263238;stroke-linecap:round;stroke-linejoin:round;stroke-miterlimit:10;}
	.st23{fill:none;stroke:#263238;stroke-linecap:round;stroke-linejoin:round;stroke-miterlimit:10;}
	.st24{fill:none;stroke:#263238;stroke-width:2;stroke-linecap:round;stroke-linejoin:round;stroke-miterlimit:10;}
	.st25{fill:#263238;}
</style>
<radialGradient id="SVGID_1_" cx="677.1064" cy="-110.3866" r="729.5554" gradientUnits="userSpaceOnUse">
	<stop  offset="0" style="stop-color:#73D7FF"/>
	<stop  offset="1" style="stop-color:#002BC6"/>
</radialGradient>
<rect x="-8" y="-5.1" class="st0" width="563" height="360"/>
<path class="st1" d="M188.4,10.1c-42.1-6-89.3,3.6-124.9,26.6C32.6,56.7,15.1,89.2,9,125c-8.2,47.4,20.4,80.9,27.8,110.3
	c7.4,29.4-10.6,43.3-25.3,67.8c-14.7,24.5,0.8,44.9,0.8,44.9h516c0,0,16.3-38.4,8.2-80.1c-8.2-41.7-44.2-66.2-42.5-88.7
	c1.4-18.1,14.1-35.2,19.8-52.2C538.5,53.3,449.7-12,381.3,3.2c-44.1,9.8-63.7,33.5-95.5,33.5c-32,0-58.9-19.5-89.5-25.3
	C193.6,10.9,191,10.5,188.4,10.1z"/>
<path class="st2" d="M303.1,128.9h-24.5v10.7h24.5V128.9z"/>
<path class="st2" d="M303.1,143.9h-24.5v10.7h24.5V143.9z"/>
<path class="st2" d="M303.1,158.9h-24.5v10.7h24.5V158.9z"/>
<path class="st2" d="M303.1,173.9h-24.5v10.7h24.5V173.9z"/>
<path class="st2" d="M303.1,188.9h-24.5v10.7h24.5V188.9z"/>
<path class="st3" d="M278.6,139.6l-46.6-48.2V49.9l46.6,79V139.6z"/>
<path class="st3" d="M278.6,143.9l-47.2-49.1v44.9l47.2,15V143.9z"/>
<path class="st3" d="M278.6,158.9l-47.2-15l0.6,42.6l46.6-16.9V158.9z"/>
<path class="st3" d="M278.6,173.9l-46.6,17.5v43.2l46.6-50V173.9z"/>
<path class="st3" d="M278.6,199.6l-46.6,81.9v-43.2l46.6-49.4V199.6z"/>
<g>
	
		<linearGradient id="SVGID_00000032632849749309711630000005989632293568857473_" gradientUnits="userSpaceOnUse" x1="368.6048" y1="217.7042" x2="301.4008" y2="150.5432" gradientTransform="matrix(1 0 0 -1 0 347.89)">
		<stop  offset="0" style="stop-color:#E0DFE4"/>
		<stop  offset="0.8446" style="stop-color:#FFFFFF"/>
	</linearGradient>
	<path style="fill:url(#SVGID_00000032632849749309711630000005989632293568857473_);" d="M334.6,212.6c26.7,0,48.4-21.7,48.4-48.5
		c0-26.8-21.7-48.5-48.4-48.5c-26.7,0-48.4,21.7-48.4,48.5C286.2,190.9,307.9,212.6,334.6,212.6z"/>
	
		<linearGradient id="SVGID_00000085228823675099060520000010611243778723025329_" gradientUnits="userSpaceOnUse" x1="369.4266" y1="218.5357" x2="299.8058" y2="148.9599" gradientTransform="matrix(1 0 0 -1 0 347.89)">
		<stop  offset="0" style="stop-color:#FFFFFF"/>
		<stop  offset="1" style="stop-color:#E4E4E4"/>
	</linearGradient>
	<path style="fill:url(#SVGID_00000085228823675099060520000010611243778723025329_);" d="M334.6,213.4c27.1,0,49.2-22.1,49.2-49.3
		c0-27.2-22.1-49.3-49.2-49.3c-27.1,0-49.2,22.1-49.2,49.3S307.5,213.4,334.6,213.4z M334.6,116.5c26.3,0,47.6,21.4,47.6,47.7
		c0,26.3-21.4,47.7-47.6,47.7c-26.3,0-47.6-21.4-47.6-47.7C287,137.9,308.4,116.5,334.6,116.5z"/>
</g>
<path class="st6" d="M231.9,91.4V49.9H77.6c-11.5,0-20.7,9.3-20.7,20.8c0,11.5,9.3,20.8,20.7,20.8L231.9,91.4L231.9,91.4z"/>
<path class="st6" d="M231.3,94.7v44.9H77.6c-11.5,0-20.7-9.3-20.7-20.8v-2.5c0-11.4,9.2-20.7,20.6-20.8L231.3,94.7z"/>
<path class="st6" d="M231.3,143.9l0.6,42.6H77.6c-11.5,0-20.7-9.3-20.7-20.8v-1.1c0-11.5,9.3-20.8,20.7-20.8H231.3z"/>
<path class="st6" d="M231.9,191.4v43.2H77.6c-11.5,0-20.7-9.3-20.7-20.8v-1.7c0-11.5,9.3-20.8,20.7-20.8L231.9,191.4L231.9,191.4z"
	/>
<path class="st6" d="M231.9,238.3H77.6c-11.5,0-20.7,9.3-20.7,20.8v1.7c0,11.5,9.3,20.8,20.7,20.8h154.3V238.3z"/>
<linearGradient id="SVGID_00000112593682312190042550000006513782508216204437_" gradientUnits="userSpaceOnUse" x1="91.7663" y1="101.4382" x2="65.1892" y2="74.8782" gradientTransform="matrix(1 0 0 -1 0 347.89)">
	<stop  offset="0" style="stop-color:#E0DFE4"/>
	<stop  offset="0.8446" style="stop-color:#FFFFFF"/>
</linearGradient>
<path style="fill:url(#SVGID_00000112593682312190042550000006513782508216204437_);" d="M78.3,279c10.6,0,19.2-8.6,19.2-19.2
	c0-10.6-8.6-19.2-19.2-19.2s-19.2,8.6-19.2,19.2C59.2,270.5,67.7,279,78.3,279z"/>
<linearGradient id="SVGID_00000035527223774172103550000001074010215133370777_" gradientUnits="userSpaceOnUse" x1="91.764" y1="148.311" x2="65.1869" y2="121.751" gradientTransform="matrix(1 0 0 -1 0 347.89)">
	<stop  offset="0" style="stop-color:#E0DFE4"/>
	<stop  offset="0.8446" style="stop-color:#FFFFFF"/>
</linearGradient>
<path style="fill:url(#SVGID_00000035527223774172103550000001074010215133370777_);" d="M78.3,232.2c10.6,0,19.2-8.6,19.2-19.2
	s-8.6-19.2-19.2-19.2s-19.2,8.6-19.2,19.2S67.7,232.2,78.3,232.2z"/>
<linearGradient id="SVGID_00000166672964142232695110000011043049737664881321_" gradientUnits="userSpaceOnUse" x1="91.7631" y1="196.1461" x2="65.186" y2="169.5861" gradientTransform="matrix(1 0 0 -1 0 347.89)">
	<stop  offset="0" style="stop-color:#E0DFE4"/>
	<stop  offset="0.8446" style="stop-color:#FFFFFF"/>
</linearGradient>
<path style="fill:url(#SVGID_00000166672964142232695110000011043049737664881321_);" d="M78.3,184.3c10.6,0,19.2-8.6,19.2-19.2
	S88.9,146,78.3,146s-19.2,8.6-19.2,19.2S67.7,184.3,78.3,184.3z"/>
<linearGradient id="SVGID_00000061465392713646919360000010322656792872297912_" gradientUnits="userSpaceOnUse" x1="91.7662" y1="244.1572" x2="65.1891" y2="217.5972" gradientTransform="matrix(1 0 0 -1 0 347.89)">
	<stop  offset="0" style="stop-color:#E0DFE4"/>
	<stop  offset="0.8446" style="stop-color:#FFFFFF"/>
</linearGradient>
<path style="fill:url(#SVGID_00000061465392713646919360000010322656792872297912_);" d="M78.3,136.3c10.6,0,19.2-8.6,19.2-19.2
	S88.9,98,78.3,98s-19.2,8.6-19.2,19.2S67.7,136.3,78.3,136.3z"/>
<linearGradient id="SVGID_00000025414415724343087160000012308775438851133099_" gradientUnits="userSpaceOnUse" x1="91.7682" y1="290.6906" x2="65.1911" y2="264.1305" gradientTransform="matrix(1 0 0 -1 0 347.89)">
	<stop  offset="0" style="stop-color:#E0DFE4"/>
	<stop  offset="0.8446" style="stop-color:#FFFFFF"/>
</linearGradient>
<path style="fill:url(#SVGID_00000025414415724343087160000012308775438851133099_);" d="M78.3,89.8c10.6,0,19.2-8.6,19.2-19.2
	c0-10.6-8.6-19.2-19.2-19.2S59.2,60,59.2,70.6C59.2,81.2,67.7,89.8,78.3,89.8z"/>
<path class="st12" d="M117.3,113.8h2.2l1.3,1.7l0.9,1.1l2.3,2.9h-2.4l-1.5-2l-0.7-0.9L117.3,113.8z M124.4,111.6
	c0,1.5-0.3,2.7-0.8,3.8c-0.5,1-1.3,1.8-2.2,2.4c-0.9,0.6-2,0.8-3.2,0.8s-2.3-0.3-3.2-0.8c-0.9-0.6-1.7-1.4-2.2-2.4
	c-0.5-1-0.8-2.3-0.8-3.8c0-1.5,0.3-2.7,0.8-3.8c0.6-1,1.3-1.8,2.2-2.4c0.9-0.6,2-0.8,3.2-0.8s2.3,0.3,3.2,0.8
	c0.9,0.6,1.7,1.4,2.2,2.4C124.1,108.9,124.4,110.1,124.4,111.6z M121.9,111.6c0-1-0.2-1.9-0.5-2.6c-0.3-0.7-0.8-1.3-1.3-1.6
	c-0.6-0.4-1.2-0.6-2-0.6c-0.7,0-1.4,0.2-2,0.6c-0.6,0.4-1,0.9-1.3,1.6c-0.3,0.7-0.5,1.6-0.5,2.6c0,1,0.2,1.9,0.5,2.6
	c0.3,0.7,0.8,1.2,1.3,1.6c0.6,0.4,1.2,0.5,2,0.5c0.7,0,1.4-0.2,2-0.5c0.6-0.4,1-0.9,1.3-1.6C121.7,113.5,121.9,112.6,121.9,111.6z
	 M133.1,114.1v-5.9h2.4v10.2h-2.3v-1.8h-0.1c-0.2,0.6-0.6,1-1.1,1.4c-0.5,0.4-1.2,0.5-1.9,0.5c-0.7,0-1.3-0.1-1.8-0.4
	c-0.5-0.3-0.9-0.7-1.2-1.3c-0.3-0.6-0.4-1.3-0.4-2.1v-6.5h2.4v6.1c0,0.6,0.2,1.2,0.5,1.5c0.4,0.4,0.8,0.6,1.4,0.6
	c0.4,0,0.7-0.1,1-0.3c0.3-0.2,0.6-0.4,0.8-0.8C133,115,133.1,114.6,133.1,114.1z M141,118.6c-0.6,0-1.2-0.1-1.8-0.3
	c-0.5-0.2-0.9-0.6-1.2-1c-0.3-0.5-0.4-1-0.4-1.7c0-0.6,0.1-1.1,0.3-1.4c0.2-0.4,0.5-0.7,0.9-0.9c0.4-0.2,0.8-0.4,1.2-0.5
	c0.5-0.1,0.9-0.2,1.4-0.3c0.6-0.1,1.1-0.1,1.5-0.2c0.4-0.1,0.6-0.1,0.8-0.2c0.2-0.1,0.3-0.3,0.3-0.5v0c0-0.5-0.1-0.9-0.4-1.2
	s-0.7-0.4-1.3-0.4c-0.6,0-1.1,0.1-1.4,0.4c-0.3,0.3-0.6,0.6-0.7,0.9l-2.3-0.3c0.2-0.6,0.5-1.1,0.9-1.6c0.4-0.4,0.9-0.7,1.5-0.9
	c0.6-0.2,1.2-0.3,2-0.3c0.5,0,1,0.1,1.5,0.2c0.5,0.1,0.9,0.3,1.3,0.6c0.4,0.3,0.7,0.6,1,1.1c0.2,0.5,0.4,1,0.4,1.7v6.8H144V117H144
	c-0.1,0.3-0.4,0.6-0.6,0.8c-0.3,0.2-0.6,0.4-1,0.6C142,118.5,141.5,118.6,141,118.6z M141.6,116.8c0.5,0,0.9-0.1,1.3-0.3
	c0.4-0.2,0.6-0.5,0.8-0.8c0.2-0.3,0.3-0.7,0.3-1v-1.2c-0.1,0.1-0.2,0.1-0.4,0.2c-0.2,0.1-0.4,0.1-0.6,0.1s-0.4,0.1-0.7,0.1
	c-0.2,0-0.4,0.1-0.6,0.1c-0.4,0-0.7,0.1-1,0.2c-0.3,0.1-0.5,0.3-0.7,0.5c-0.2,0.2-0.2,0.4-0.2,0.8c0,0.4,0.2,0.8,0.5,1
	C140.7,116.7,141.1,116.8,141.6,116.8z M151.2,104.8v13.6h-2.4v-13.6H151.2z M153.7,118.4v-10.2h2.4v10.2H153.7z M154.9,106.7
	c-0.4,0-0.7-0.1-1-0.4c-0.3-0.3-0.4-0.6-0.4-0.9c0-0.4,0.1-0.7,0.4-0.9c0.3-0.3,0.6-0.4,1-0.4c0.4,0,0.7,0.1,1,0.4
	c0.3,0.3,0.4,0.6,0.4,0.9c0,0.4-0.1,0.7-0.4,0.9C155.6,106.6,155.3,106.7,154.9,106.7z M163.7,108.2v1.9h-5.9v-1.9H163.7z
	 M159.2,105.7h2.4v9.6c0,0.3,0,0.6,0.1,0.7c0.1,0.2,0.2,0.3,0.4,0.3c0.2,0.1,0.3,0.1,0.5,0.1c0.2,0,0.3,0,0.4,0c0.1,0,0.2,0,0.3-0.1
	l0.4,1.9c-0.1,0-0.3,0.1-0.6,0.1c-0.2,0.1-0.5,0.1-0.9,0.1c-0.6,0-1.1-0.1-1.6-0.3c-0.5-0.2-0.9-0.5-1.2-0.9c-0.3-0.4-0.4-1-0.4-1.6
	V105.7z M167.2,122.2c-0.3,0-0.6,0-0.9-0.1c-0.3,0-0.5-0.1-0.7-0.2l0.6-1.9c0.4,0.1,0.7,0.2,0.9,0.1c0.3,0,0.5-0.1,0.7-0.3
	c0.2-0.2,0.4-0.4,0.5-0.8l0.2-0.6l-3.7-10.4h2.6l2.4,7.7h0.1l2.4-7.7h2.6l-4.1,11.5c-0.2,0.5-0.4,1-0.8,1.4
	c-0.3,0.4-0.7,0.7-1.2,0.9C168.4,122.1,167.8,122.2,167.2,122.2z"/>
<path class="st12" d="M116.8,165.9h-4.6v-13.6h4.7c1.4,0,2.5,0.3,3.5,0.8c1,0.5,1.7,1.3,2.3,2.3c0.5,1,0.8,2.2,0.8,3.6
	c0,1.4-0.3,2.6-0.8,3.7c-0.5,1-1.3,1.8-2.3,2.4C119.4,165.6,118.2,165.9,116.8,165.9z M114.7,163.7h2c0.9,0,1.7-0.2,2.4-0.5
	c0.6-0.4,1.1-0.9,1.4-1.6c0.3-0.7,0.5-1.6,0.5-2.6c0-1-0.2-1.9-0.5-2.6c-0.3-0.7-0.8-1.2-1.4-1.6c-0.6-0.3-1.4-0.5-2.3-0.5h-2.1
	V163.7z M130.2,166.1c-1,0-1.9-0.2-2.7-0.6c-0.7-0.4-1.3-1-1.7-1.8c-0.4-0.8-0.6-1.7-0.6-2.8c0-1.1,0.2-2,0.6-2.8
	c0.4-0.8,1-1.4,1.7-1.9c0.7-0.4,1.6-0.7,2.5-0.7c0.6,0,1.2,0.1,1.8,0.3c0.6,0.2,1.1,0.5,1.5,0.9c0.4,0.4,0.8,1,1,1.6
	c0.2,0.6,0.4,1.4,0.4,2.3v0.7h-8.4v-1.6h6.1c0-0.5-0.1-0.9-0.3-1.2c-0.2-0.4-0.5-0.7-0.8-0.9c-0.3-0.2-0.8-0.3-1.2-0.3
	c-0.5,0-0.9,0.1-1.3,0.4c-0.4,0.2-0.7,0.5-0.9,0.9c-0.2,0.4-0.3,0.8-0.3,1.3v1.4c0,0.6,0.1,1.1,0.3,1.5c0.2,0.4,0.5,0.7,0.9,1
	c0.4,0.2,0.8,0.3,1.4,0.3c0.4,0,0.7,0,1-0.1c0.3-0.1,0.5-0.2,0.7-0.4c0.2-0.2,0.4-0.4,0.5-0.7l2.3,0.3c-0.1,0.6-0.4,1.1-0.8,1.6
	c-0.4,0.4-0.9,0.8-1.5,1C131.7,166,131,166.1,130.2,166.1z M139.2,152.2v13.6h-2.4v-13.6H139.2z M141.7,165.9v-10.2h2.4v10.2H141.7z
	 M142.9,154.2c-0.4,0-0.7-0.1-1-0.4c-0.3-0.3-0.4-0.6-0.4-0.9c0-0.4,0.1-0.7,0.4-0.9c0.3-0.3,0.6-0.4,1-0.4c0.4,0,0.7,0.1,1,0.4
	c0.3,0.3,0.4,0.6,0.4,0.9c0,0.4-0.1,0.7-0.4,0.9C143.6,154.1,143.3,154.2,142.9,154.2z M155.7,155.6l-3.6,10.2h-2.7l-3.6-10.2h2.6
	l2.4,7.6h0.1l2.4-7.6H155.7z M161.5,166.1c-1,0-1.9-0.2-2.7-0.6c-0.7-0.4-1.3-1-1.7-1.8c-0.4-0.8-0.6-1.7-0.6-2.8
	c0-1.1,0.2-2,0.6-2.8c0.4-0.8,1-1.4,1.7-1.9c0.7-0.4,1.6-0.7,2.6-0.7c0.6,0,1.2,0.1,1.8,0.3c0.6,0.2,1.1,0.5,1.5,0.9
	c0.4,0.4,0.8,1,1,1.6c0.2,0.6,0.4,1.4,0.4,2.3v0.7h-8.4v-1.6h6.1c0-0.5-0.1-0.9-0.3-1.2c-0.2-0.4-0.5-0.7-0.8-0.9
	c-0.3-0.2-0.8-0.3-1.2-0.3c-0.5,0-0.9,0.1-1.3,0.4c-0.4,0.2-0.7,0.5-0.9,0.9c-0.2,0.4-0.3,0.8-0.3,1.3v1.4c0,0.6,0.1,1.1,0.3,1.5
	c0.2,0.4,0.5,0.7,0.9,1c0.4,0.2,0.8,0.3,1.4,0.3c0.3,0,0.7,0,1-0.1c0.3-0.1,0.5-0.2,0.7-0.4c0.2-0.2,0.4-0.4,0.5-0.7l2.3,0.3
	c-0.1,0.6-0.4,1.1-0.8,1.6c-0.4,0.4-0.9,0.8-1.5,1C163,166,162.3,166.1,161.5,166.1z M168.1,165.9v-10.2h2.3v1.7h0.1
	c0.2-0.6,0.5-1,1-1.4c0.5-0.3,1-0.5,1.6-0.5c0.1,0,0.3,0,0.4,0c0.2,0,0.3,0,0.4,0v2.2c-0.1,0-0.3-0.1-0.5-0.1c-0.2,0-0.4,0-0.6,0
	c-0.4,0-0.8,0.1-1.2,0.3c-0.3,0.2-0.6,0.4-0.8,0.8c-0.2,0.3-0.3,0.7-0.3,1.2v6H168.1z M177.4,169.7c-0.3,0-0.6,0-0.9-0.1
	c-0.3,0-0.5-0.1-0.7-0.2l0.6-1.9c0.4,0.1,0.7,0.2,0.9,0.1c0.3,0,0.5-0.1,0.7-0.3c0.2-0.2,0.4-0.4,0.5-0.8l0.2-0.6l-3.7-10.4h2.6
	l2.4,7.7h0.1l2.4-7.7h2.6l-4.1,11.5c-0.2,0.5-0.4,1-0.8,1.4c-0.3,0.4-0.7,0.7-1.2,0.9C178.5,169.6,178,169.7,177.4,169.7z"/>
<path class="st12" d="M112.2,213.3v-13.6h5.1c1,0,1.9,0.2,2.6,0.5c0.7,0.4,1.3,0.9,1.6,1.5c0.4,0.7,0.6,1.4,0.6,2.3
	c0,0.9-0.2,1.6-0.6,2.3c-0.4,0.6-0.9,1.1-1.6,1.5c-0.7,0.3-1.6,0.5-2.7,0.5h-3.6v-2.1h3.3c0.6,0,1.1-0.1,1.5-0.3
	c0.4-0.2,0.7-0.4,0.9-0.8c0.2-0.3,0.3-0.7,0.3-1.2c0-0.5-0.1-0.9-0.3-1.2c-0.2-0.3-0.5-0.6-0.9-0.8c-0.4-0.2-0.9-0.3-1.5-0.3h-2.3
	v11.6H112.2z M119.2,207.2l3.4,6.2h-2.8l-3.3-6.2H119.2z M128.7,213.5c-1,0-1.9-0.2-2.7-0.6c-0.7-0.4-1.3-1-1.7-1.8
	c-0.4-0.8-0.6-1.7-0.6-2.8c0-1.1,0.2-2,0.6-2.8c0.4-0.8,1-1.4,1.7-1.9c0.7-0.4,1.6-0.7,2.6-0.7c0.6,0,1.2,0.1,1.8,0.3
	c0.6,0.2,1.1,0.5,1.5,0.9c0.4,0.4,0.8,1,1,1.6c0.2,0.6,0.4,1.4,0.4,2.3v0.7h-8.4v-1.6h6.1c0-0.5-0.1-0.9-0.3-1.2
	c-0.2-0.4-0.5-0.6-0.8-0.9c-0.3-0.2-0.8-0.3-1.2-0.3c-0.5,0-0.9,0.1-1.3,0.4c-0.4,0.2-0.7,0.5-0.9,0.9c-0.2,0.4-0.3,0.8-0.3,1.3v1.4
	c0,0.6,0.1,1.1,0.3,1.5c0.2,0.4,0.5,0.7,0.9,1c0.4,0.2,0.8,0.3,1.4,0.3c0.4,0,0.7,0,1-0.1c0.3-0.1,0.5-0.3,0.7-0.4
	c0.2-0.2,0.4-0.4,0.5-0.7l2.3,0.3c-0.1,0.6-0.4,1.1-0.8,1.6c-0.4,0.4-0.9,0.8-1.5,1C130.2,213.4,129.4,213.5,128.7,213.5z
	 M137.6,199.7v13.6h-2.4v-13.6H137.6z M140.1,213.3v-10.2h2.4v10.2H140.1z M141.3,201.7c-0.4,0-0.7-0.1-1-0.4
	c-0.3-0.3-0.4-0.6-0.4-0.9c0-0.4,0.1-0.7,0.4-0.9c0.3-0.3,0.6-0.4,1-0.4c0.4,0,0.7,0.1,1,0.4c0.3,0.3,0.4,0.6,0.4,0.9
	c0,0.4-0.1,0.7-0.4,0.9C142.1,201.5,141.7,201.7,141.3,201.7z M148,213.6c-0.6,0-1.2-0.1-1.8-0.3c-0.5-0.2-0.9-0.6-1.2-1
	c-0.3-0.5-0.4-1-0.4-1.7c0-0.6,0.1-1.1,0.3-1.4c0.2-0.4,0.5-0.7,0.9-0.9c0.4-0.2,0.8-0.4,1.2-0.5c0.5-0.1,0.9-0.2,1.4-0.3
	c0.6-0.1,1.1-0.1,1.5-0.2c0.4-0.1,0.6-0.1,0.8-0.2c0.2-0.1,0.3-0.3,0.3-0.5v0c0-0.5-0.1-0.9-0.4-1.2c-0.3-0.3-0.7-0.4-1.3-0.4
	c-0.6,0-1.1,0.1-1.4,0.4c-0.3,0.3-0.6,0.6-0.7,0.9l-2.3-0.3c0.2-0.6,0.5-1.1,0.9-1.6c0.4-0.4,0.9-0.7,1.5-0.9c0.6-0.2,1.2-0.3,2-0.3
	c0.5,0,1,0.1,1.5,0.2c0.5,0.1,0.9,0.3,1.3,0.6c0.4,0.3,0.7,0.6,1,1.1c0.2,0.5,0.4,1,0.4,1.7v6.8H151v-1.4H151
	c-0.1,0.3-0.4,0.6-0.6,0.8c-0.3,0.2-0.6,0.4-1,0.6C149,213.5,148.5,213.6,148,213.6z M148.6,211.8c0.5,0,0.9-0.1,1.3-0.3
	c0.4-0.2,0.6-0.5,0.8-0.8c0.2-0.3,0.3-0.7,0.3-1v-1.2c-0.1,0.1-0.2,0.1-0.4,0.2c-0.2,0.1-0.4,0.1-0.6,0.1c-0.2,0-0.4,0.1-0.7,0.1
	c-0.2,0-0.4,0.1-0.6,0.1c-0.4,0-0.7,0.1-1,0.2c-0.3,0.1-0.5,0.3-0.7,0.5c-0.2,0.2-0.2,0.4-0.2,0.8c0,0.4,0.2,0.8,0.5,1
	C147.7,211.7,148.1,211.8,148.6,211.8z M155.9,213.3v-13.6h2.4v5.1h0.1c0.1-0.2,0.3-0.5,0.5-0.8c0.2-0.3,0.5-0.5,0.9-0.7
	c0.4-0.2,0.9-0.3,1.5-0.3c0.8,0,1.5,0.2,2.1,0.6c0.6,0.4,1.1,1,1.5,1.8c0.4,0.8,0.6,1.7,0.6,2.9c0,1.1-0.2,2.1-0.6,2.9
	c-0.4,0.8-0.9,1.4-1.5,1.8c-0.6,0.4-1.4,0.6-2.2,0.6c-0.6,0-1.1-0.1-1.5-0.3c-0.4-0.2-0.7-0.4-0.9-0.7c-0.2-0.3-0.4-0.5-0.5-0.8
	h-0.1v1.6H155.9z M158.3,208.2c0,0.7,0.1,1.2,0.3,1.7c0.2,0.5,0.5,0.9,0.8,1.2c0.4,0.3,0.8,0.4,1.3,0.4c0.5,0,1-0.1,1.3-0.4
	c0.4-0.3,0.6-0.7,0.8-1.2c0.2-0.5,0.3-1.1,0.3-1.7c0-0.6-0.1-1.2-0.3-1.7c-0.2-0.5-0.5-0.9-0.8-1.2c-0.4-0.3-0.8-0.4-1.3-0.4
	c-0.5,0-1,0.1-1.3,0.4c-0.4,0.3-0.6,0.7-0.8,1.1C158.3,207,158.3,207.6,158.3,208.2z M167.6,213.3v-10.2h2.4v10.2H167.6z
	 M168.8,201.7c-0.4,0-0.7-0.1-1-0.4c-0.3-0.3-0.4-0.6-0.4-0.9c0-0.4,0.1-0.7,0.4-0.9c0.3-0.3,0.6-0.4,1-0.4c0.4,0,0.7,0.1,1,0.4
	c0.3,0.3,0.4,0.6,0.4,0.9c0,0.4-0.1,0.7-0.4,0.9C169.5,201.5,169.2,201.7,168.8,201.7z M174.9,199.7v13.6h-2.4v-13.6H174.9z
	 M177.4,213.3v-10.2h2.4v10.2H177.4z M178.6,201.7c-0.4,0-0.7-0.1-1-0.4c-0.3-0.3-0.4-0.6-0.4-0.9c0-0.4,0.1-0.7,0.4-0.9
	c0.3-0.3,0.6-0.4,1-0.4c0.4,0,0.7,0.1,1,0.4c0.3,0.3,0.4,0.6,0.4,0.9c0,0.4-0.1,0.7-0.4,0.9C179.3,201.5,179,201.7,178.6,201.7z
	 M187.4,203.1v1.9h-5.9v-1.9H187.4z M182.9,200.7h2.4v9.6c0,0.3,0,0.6,0.1,0.7c0.1,0.2,0.2,0.3,0.4,0.3c0.2,0.1,0.3,0.1,0.5,0.1
	c0.2,0,0.3,0,0.4,0c0.1,0,0.2,0,0.3-0.1l0.4,1.9c-0.1,0-0.3,0.1-0.6,0.1c-0.2,0.1-0.5,0.1-0.9,0.1c-0.6,0-1.1-0.1-1.6-0.3
	c-0.5-0.2-0.9-0.5-1.2-0.9c-0.3-0.4-0.4-1-0.4-1.6V200.7z M190.9,217.2c-0.3,0-0.6,0-0.9-0.1c-0.3,0-0.5-0.1-0.7-0.2l0.6-1.9
	c0.4,0.1,0.7,0.2,0.9,0.1c0.3,0,0.5-0.1,0.7-0.3c0.2-0.2,0.4-0.4,0.5-0.8l0.2-0.6l-3.7-10.4h2.6l2.4,7.7h0.1l2.4-7.7h2.6l-4.1,11.5
	c-0.2,0.5-0.4,1-0.8,1.4c-0.3,0.4-0.7,0.7-1.2,0.9C192.1,217.1,191.5,217.2,190.9,217.2z"/>
<path class="st12" d="M112.2,260.8v-13.6h8.9v2.1h-6.4v3.7h5.9v2.1h-5.9v3.7h6.5v2.1H112.2z M128.6,250.6v1.9h-6v-1.9H128.6z
	 M124.1,260.8v-11.2c0-0.7,0.1-1.3,0.4-1.7c0.3-0.5,0.7-0.8,1.2-1c0.5-0.2,1-0.3,1.6-0.3c0.4,0,0.8,0,1.1,0.1
	c0.3,0.1,0.6,0.1,0.7,0.2l-0.5,1.9c-0.1,0-0.2-0.1-0.4-0.1c-0.2,0-0.3-0.1-0.5-0.1c-0.4,0-0.8,0.1-1,0.3c-0.2,0.2-0.3,0.5-0.3,0.9
	v11H124.1z M135.7,250.6v1.9h-6v-1.9H135.7z M131.2,260.8v-11.2c0-0.7,0.1-1.3,0.4-1.7c0.3-0.5,0.7-0.8,1.2-1c0.5-0.2,1-0.3,1.6-0.3
	c0.4,0,0.8,0,1.1,0.1c0.3,0.1,0.6,0.1,0.7,0.2l-0.5,1.9c-0.1,0-0.2-0.1-0.4-0.1c-0.2,0-0.3-0.1-0.5-0.1c-0.4,0-0.8,0.1-1,0.3
	c-0.2,0.2-0.3,0.5-0.3,0.9v11H131.2z M137.6,260.8v-10.2h2.4v10.2H137.6z M138.8,249.1c-0.4,0-0.7-0.1-1-0.4
	c-0.3-0.3-0.4-0.6-0.4-0.9c0-0.4,0.1-0.7,0.4-0.9c0.3-0.3,0.6-0.4,1-0.4c0.4,0,0.7,0.1,1,0.4c0.3,0.3,0.4,0.6,0.4,0.9
	c0,0.4-0.1,0.7-0.4,0.9C139.5,249,139.2,249.1,138.8,249.1z M147,261c-1,0-1.9-0.2-2.6-0.7c-0.7-0.4-1.3-1.1-1.7-1.9
	c-0.4-0.8-0.6-1.7-0.6-2.7c0-1,0.2-2,0.6-2.8c0.4-0.8,1-1.4,1.7-1.9c0.7-0.4,1.6-0.7,2.6-0.7c0.8,0,1.6,0.2,2.2,0.5
	c0.6,0.3,1.2,0.7,1.5,1.3c0.4,0.6,0.6,1.2,0.7,1.9H149c-0.1-0.5-0.3-0.9-0.7-1.2c-0.3-0.3-0.8-0.5-1.4-0.5c-0.5,0-0.9,0.1-1.3,0.4
	c-0.4,0.3-0.7,0.6-0.9,1.1c-0.2,0.5-0.3,1.1-0.3,1.8c0,0.7,0.1,1.3,0.3,1.8c0.2,0.5,0.5,0.9,0.9,1.2c0.4,0.3,0.8,0.4,1.3,0.4
	c0.4,0,0.7-0.1,1-0.2c0.3-0.1,0.5-0.3,0.7-0.6c0.2-0.3,0.3-0.6,0.4-0.9h2.3c-0.1,0.7-0.3,1.4-0.6,1.9c-0.4,0.6-0.9,1-1.5,1.3
	C148.6,260.9,147.8,261,147,261z M153.3,260.8v-10.2h2.4v10.2H153.3z M154.5,249.1c-0.4,0-0.7-0.1-1-0.4c-0.3-0.3-0.4-0.6-0.4-0.9
	c0-0.4,0.1-0.7,0.4-0.9c0.3-0.3,0.6-0.4,1-0.4c0.4,0,0.7,0.1,1,0.4c0.3,0.3,0.4,0.6,0.4,0.9c0,0.4-0.1,0.7-0.4,0.9
	C155.2,249,154.9,249.1,154.5,249.1z M162.7,261c-1,0-1.9-0.2-2.7-0.6c-0.7-0.4-1.3-1-1.7-1.8c-0.4-0.8-0.6-1.7-0.6-2.8
	c0-1.1,0.2-2,0.6-2.8c0.4-0.8,1-1.4,1.7-1.9c0.7-0.4,1.6-0.7,2.6-0.7c0.6,0,1.2,0.1,1.8,0.3c0.6,0.2,1.1,0.5,1.5,0.9
	c0.4,0.4,0.8,1,1,1.6c0.2,0.6,0.4,1.4,0.4,2.3v0.7h-8.4v-1.6h6.1c0-0.5-0.1-0.9-0.3-1.2c-0.2-0.4-0.5-0.7-0.8-0.9
	c-0.3-0.2-0.8-0.3-1.2-0.3c-0.5,0-0.9,0.1-1.3,0.4c-0.4,0.2-0.7,0.5-0.9,0.9c-0.2,0.4-0.3,0.8-0.3,1.3v1.4c0,0.6,0.1,1.1,0.3,1.5
	c0.2,0.4,0.5,0.7,0.9,1c0.4,0.2,0.8,0.3,1.4,0.3c0.4,0,0.7,0,1-0.1c0.3-0.1,0.5-0.3,0.7-0.4c0.2-0.2,0.4-0.4,0.5-0.7l2.3,0.3
	c-0.1,0.6-0.4,1.1-0.8,1.6c-0.4,0.4-0.9,0.8-1.5,1C164.2,260.9,163.5,261,162.7,261z M171.7,254.8v6h-2.4v-10.2h2.3v1.7h0.1
	c0.2-0.6,0.6-1,1.1-1.4c0.5-0.3,1.2-0.5,1.9-0.5c0.7,0,1.3,0.2,1.8,0.5c0.5,0.3,0.9,0.7,1.2,1.3c0.3,0.6,0.4,1.3,0.4,2.1v6.5h-2.4
	v-6.1c0-0.7-0.2-1.2-0.5-1.6c-0.4-0.4-0.8-0.6-1.5-0.6c-0.4,0-0.8,0.1-1.1,0.3c-0.3,0.2-0.6,0.4-0.8,0.8
	C171.8,253.9,171.7,254.3,171.7,254.8z M185.2,261c-1,0-1.9-0.2-2.6-0.7c-0.7-0.4-1.3-1.1-1.7-1.9c-0.4-0.8-0.6-1.7-0.6-2.7
	c0-1,0.2-2,0.6-2.8c0.4-0.8,1-1.4,1.7-1.9c0.7-0.4,1.6-0.7,2.6-0.7c0.8,0,1.6,0.2,2.2,0.5c0.6,0.3,1.2,0.7,1.5,1.3
	c0.4,0.6,0.6,1.2,0.7,1.9h-2.3c-0.1-0.5-0.3-0.9-0.7-1.2c-0.3-0.3-0.8-0.5-1.4-0.5c-0.5,0-0.9,0.1-1.3,0.4c-0.4,0.3-0.7,0.6-0.9,1.1
	c-0.2,0.5-0.3,1.1-0.3,1.8c0,0.7,0.1,1.3,0.3,1.8c0.2,0.5,0.5,0.9,0.9,1.2c0.4,0.3,0.8,0.4,1.3,0.4c0.4,0,0.7-0.1,1-0.2
	c0.3-0.1,0.5-0.3,0.7-0.6c0.2-0.3,0.3-0.6,0.4-0.9h2.3c-0.1,0.7-0.3,1.4-0.6,1.9c-0.4,0.6-0.9,1-1.5,1.3
	C186.8,260.9,186.1,261,185.2,261z M193.1,264.7c-0.3,0-0.6,0-0.9-0.1c-0.3,0-0.5-0.1-0.7-0.2l0.6-1.9c0.4,0.1,0.7,0.2,0.9,0.1
	c0.3,0,0.5-0.1,0.7-0.3c0.2-0.2,0.4-0.4,0.5-0.8l0.2-0.6l-3.7-10.4h2.6l2.4,7.7h0.1l2.4-7.7h2.6l-4.1,11.5c-0.2,0.5-0.4,1-0.8,1.4
	c-0.3,0.4-0.7,0.7-1.2,0.9C194.2,264.6,193.7,264.7,193.1,264.7z"/>
<path class="st12" d="M112.2,70.9V57.3h5.1c1,0,1.9,0.2,2.6,0.6c0.7,0.4,1.3,0.9,1.6,1.6c0.4,0.7,0.6,1.5,0.6,2.3
	c0,0.9-0.2,1.7-0.6,2.3c-0.4,0.7-0.9,1.2-1.6,1.6c-0.7,0.4-1.6,0.6-2.7,0.6h-3.4v-2h3.1c0.6,0,1.1-0.1,1.5-0.3
	c0.4-0.2,0.7-0.5,0.9-0.9c0.2-0.4,0.3-0.8,0.3-1.3c0-0.5-0.1-0.9-0.3-1.3c-0.2-0.4-0.5-0.7-0.9-0.9c-0.4-0.2-0.9-0.3-1.5-0.3h-2.3
	v11.6H112.2z M124.1,70.9V60.7h2.3v1.7h0.1c0.2-0.6,0.5-1,1-1.4c0.5-0.3,1-0.5,1.6-0.5c0.1,0,0.3,0,0.4,0c0.2,0,0.3,0,0.4,0v2.2
	c-0.1,0-0.3-0.1-0.5-0.1c-0.2,0-0.4,0-0.6,0c-0.4,0-0.8,0.1-1.2,0.3c-0.3,0.2-0.6,0.4-0.8,0.8c-0.2,0.3-0.3,0.7-0.3,1.2v6H124.1z
	 M131.6,70.9V60.7h2.4v10.2H131.6z M132.8,59.2c-0.4,0-0.7-0.1-1-0.4c-0.3-0.3-0.4-0.6-0.4-0.9c0-0.4,0.1-0.7,0.4-0.9
	c0.3-0.3,0.6-0.4,1-0.4c0.4,0,0.7,0.1,1,0.4c0.3,0.3,0.4,0.6,0.4,0.9c0,0.4-0.1,0.7-0.4,0.9C133.5,59.1,133.2,59.2,132.8,59.2z
	 M140.9,71.1c-1,0-1.9-0.2-2.6-0.7c-0.7-0.4-1.3-1.1-1.7-1.9c-0.4-0.8-0.6-1.7-0.6-2.7c0-1,0.2-2,0.6-2.8c0.4-0.8,1-1.4,1.7-1.9
	c0.7-0.4,1.6-0.7,2.6-0.7c0.8,0,1.6,0.2,2.2,0.5c0.6,0.3,1.2,0.7,1.5,1.3c0.4,0.6,0.6,1.2,0.7,1.9H143c-0.1-0.5-0.3-0.9-0.7-1.2
	c-0.3-0.3-0.8-0.5-1.4-0.5c-0.5,0-0.9,0.1-1.3,0.4c-0.4,0.3-0.7,0.6-0.9,1.1c-0.2,0.5-0.3,1.1-0.3,1.8c0,0.7,0.1,1.3,0.3,1.8
	c0.2,0.5,0.5,0.9,0.9,1.2c0.4,0.3,0.8,0.4,1.3,0.4c0.4,0,0.7-0.1,1-0.2c0.3-0.1,0.5-0.3,0.7-0.6c0.2-0.3,0.3-0.6,0.4-0.9h2.3
	c-0.1,0.7-0.3,1.4-0.6,1.9c-0.4,0.6-0.9,1-1.5,1.3C142.5,71,141.8,71.1,140.9,71.1z M151.8,71.1c-1,0-1.9-0.2-2.7-0.6
	c-0.7-0.4-1.3-1-1.7-1.8c-0.4-0.8-0.6-1.7-0.6-2.8c0-1.1,0.2-2,0.6-2.8c0.4-0.8,1-1.4,1.7-1.9c0.7-0.4,1.6-0.7,2.6-0.7
	c0.6,0,1.2,0.1,1.8,0.3c0.6,0.2,1.1,0.5,1.5,0.9c0.4,0.4,0.8,1,1,1.6c0.2,0.6,0.4,1.4,0.4,2.3v0.7H148v-1.6h6.1
	c0-0.5-0.1-0.9-0.3-1.2c-0.2-0.4-0.5-0.7-0.8-0.9c-0.3-0.2-0.8-0.3-1.2-0.3c-0.5,0-0.9,0.1-1.3,0.4c-0.4,0.2-0.7,0.5-0.9,0.9
	c-0.2,0.4-0.3,0.8-0.3,1.3v1.4c0,0.6,0.1,1.1,0.3,1.5c0.2,0.4,0.5,0.7,0.9,1c0.4,0.2,0.8,0.3,1.4,0.3c0.4,0,0.7,0,1-0.1
	c0.3-0.1,0.5-0.3,0.7-0.4c0.2-0.2,0.4-0.4,0.5-0.7l2.3,0.3c-0.1,0.6-0.4,1.1-0.8,1.6c-0.4,0.4-0.9,0.8-1.5,1
	C153.3,71,152.6,71.1,151.8,71.1z"/>
<path class="st13" d="M351.6,177.5c-0.2,1.2-1.4,1.7-2.8,1.5c-1.2-0.1-2.2-0.8-2-2.2c0.1-0.5,0.3-0.7,0.6-1c0.2-0.1,0.1-0.1,0.3-0.2
	c0.5-0.3,1.2-0.3,1.8-0.3C350.8,175.4,351.8,176.2,351.6,177.5z M347,174.5c0,0.2-0.1,0.1-0.3,0.2c-0.1,0-0.2,0.2-0.3,0.3
	c-0.1,0.1-0.1,0-0.2,0.2c-0.2,0.3-0.3,0.3-0.4,0.6l-0.1,0.2c-0.1,0.3,0,0.3-0.1,0.4c0,0-0.1,0-0.1,0.3c0,0.1,0,0.2,0,0.4
	c0,0.2,0,0.7,0.1,0.9l0,0.1c0,0.1,0.1,0.2,0.1,0.3l0.4,0.7c0.1,0.1,0.4,0.3,0.6,0.5c0.1,0.1,0.4,0.2,0.5,0.3l0.3,0.1
	c0.1,0,0.2,0.1,0.3,0.1c0.8,0.2,1.8,0.3,2.6,0.1c0.2,0,0.5-0.1,0.7-0.1c0.3,0,1-0.5,1.2-0.6c1.2-1,1.3-2.7,0.4-3.9
	c-0.9-1.2-2.7-1.5-4.2-1.3C348.1,174.2,347.2,174.3,347,174.5z M311.6,178.9l0-1.1c0-0.2,0.1-0.1,0.5-0.1c0.8,0,3.8,0,4.3,0
	c0.1-0.2,0,0,0.1-0.1c0,0,0-0.2,0-0.2c0-0.2,0-0.3,0-0.5c0.1,0-0.1,0-0.1,0c-0.3-0.1-4.5,0-4.7,0c-0.1-0.1-0.1-0.1-0.1-0.3
	c0-0.5-0.1-0.8,0.1-1.1c0.4,0,0.9,0,1.3,0c0.5,0,3.5,0,3.8,0c0.1,0,0.2,0,0.3,0c0-0.3,0-0.7,0-1l-6.6,0c-0.1,0.3-0.1-0.1-0.1,0.6
	c0,0.3,0,0.5,0,0.7c0,0.2,0,0.2,0,0.3c0,0.2,0,0.2,0,0.3c0,0.2,0,0.3,0,0.7c0.1,0.6,0,2.1,0,2.9c0.5,0.1,4.3,0,5.2,0
	c0.3,0,1.6,0.1,1.7,0c0.1-0.1,0-0.7,0-0.9c-0.3-0.1-4.1,0-5,0h-0.5C311.6,178.9,311.7,178.9,311.6,178.9z M339.2,174.2
	c-0.4,0-0.8,0.2-1.1,0.3c0.1,0,0-0.1,0.1,0.1l-0.7,0.4c0,0.2-0.1,0-0.2,0.4c0,0,0,0.1,0,0.1c0,0.1,0,0-0.1,0.1
	c-0.2,0.1-0.2,0.7-0.1,0.7l0.2,0.3c0,0,0,0,0.1,0.1c0,0,0,0,0,0c0,0,0,0,0,0l0,0c0,0,0,0,0,0l0,0c0.1,0.2,0.2,0.2,0.3,0.4l0.1,0.1
	c0.1,0.1,0.1,0.1,0.2,0.2l-0.1,0c0.3,0.1,0.4,0.2,1.2,0.3c0.9,0.1,2.1,0,2.9,0.1c0.4,0.1,1,0.2,0.9,0.6c-0.1,0.6-1.7,0.8-2.3,0.7
	c-0.5,0-0.9-0.1-1.4-0.1c-0.2,0-0.4-0.1-0.6-0.1c-0.2-0.1-0.4-0.2-0.6-0.2c-0.1,0-0.1,0-0.1,0l-0.1,0.1c-0.1,0.2,0,0.3-0.1,0.4
	c-0.1,0.1-0.2,0.3-0.2,0.5c0.2,0.1,0.3,0.1,0.5,0.2c0.1,0.1,0.1,0,0.3,0.1c0.1,0,0.1,0.1,0.3,0.1l1.1,0.2c0.2,0.1,0.1,0,0.1,0.1
	c0.7,0.2,2.6,0,3.2-0.3c0.6-0.3,1.2-0.7,1.3-1.4c0.1-0.4,0-0.5-0.1-0.8c-0.3-0.4-0.3-0.5-0.9-0.8c-0.8-0.3-2.8-0.2-3.8-0.3
	c-0.1,0-0.3,0-0.4,0c-0.1,0-0.1,0-0.2,0l-0.1-0.1c-0.4-0.1-0.4-0.6-0.2-0.8c0.6-0.7,2.6-0.3,3.1-0.3c0.2,0,0.8,0.1,1,0.1
	c0.2,0,0.5,0.2,0.8,0.2c0.2-0.2,0.1-0.2,0.2-0.4c0-0.1,0.1-0.2,0.1-0.4c-0.1-0.1-0.3-0.1-0.5-0.2l-1-0.3c-0.5-0.1-1.9-0.2-2.4-0.1
	C339.6,174.2,339.4,174.2,339.2,174.2z M308.2,179.7c0-0.2-0.3-0.7-0.4-0.9c-0.1-0.2-0.4-0.8-0.4-0.9c0.1,0,0.2-0.1,0.3-0.1
	c0.3-0.2,0.5-0.4,0.6-0.7c0.1-0.2,0.1-0.5,0.1-0.8c0-0.4-0.1-0.5-0.1-0.8c-0.1,0-0.1-0.2-0.2-0.3c-0.1-0.1-0.1-0.2-0.2-0.3
	c-0.1-0.1-0.5-0.4-0.7-0.4c-0.3,0-0.4-0.1-0.7-0.1c-0.2,0-0.5-0.1-0.7-0.1c-0.5,0-1,0-1.5,0c-0.5,0-1,0-1.5,0c-0.5,0-1.1,0-1.5,0
	c0,0.1,0,0-0.1,0.1v1c0.2,0.1,2.9,0,3.2,0h2.1c0.2,0,0.3,0.1,0.4,0.2c0.1,0.1,0.1,0.1,0.1,0.1c0.1,0.1,0.1,0.7-0.1,0.9
	c-0.3,0.3,0,0.1-0.4,0.2c-0.1,0-0.1,0-0.2,0.1h-5c-0.1,0.3-0.1,1.1-0.1,1.4c0,0.5,0,1.1,0,1.5c0.2,0.1,1.1,0.1,1.3,0
	c0.1-0.5-0.1-1.7,0.1-1.9c0.2-0.1,1.1,0,1.5,0l1.6,0c0.3,0,0.3,0.3,0.3,0.3c0,0.1,0.1,0.1,0.1,0.3l0.4,0.8c0.1,0.1,0,0,0.1,0.1
	c0,0.1,0,0.1,0.1,0.2c0,0.1,0.1,0.2,0.1,0.2h1.3L308.2,179.7z M324.7,178.2c-0.1,0-0.8-0.7-0.9-0.8c-0.3-0.3-2.5-2.4-2.6-2.5
	l-0.4-0.3c-0.1-0.1,0-0.1-0.2-0.1c-0.3-0.1,0.1-0.3-1.4-0.2c-0.1,0.2-0.1,0.4,0,0.7c0,0.6,0,0.4,0,0.7c0,0.5,0,1,0,1.5
	c0,0.5,0,0.9,0,1.4v1.1c0,0.2,0,0.1,0.1,0.3c0.1,0,0.9,0,1.1,0c0.1,0,0.1-0.1,0.1-0.3l0,0.2c0-0.6,0-1.3,0-1.8l0-1.8c0,0,0,0,0,0
	c0,0,0,0,0,0c0,0,0,0,0,0V176c0.1,0,0.5,0.4,0.7,0.6c0,0,0,0,0,0c0,0,0,0,0,0c0.2,0.1,0.3,0.3,0.5,0.4c0.4,0.1,0.3,0.4,0.7,0.5
	c0.1,0,0.1,0,0.1,0.1l0.3,0.4c0.1,0.1,0.1,0,0.2,0.1c0.1,0.1,0.1,0.1,0.2,0.2c0,0,0,0.2,0.2,0.3c0.1,0,0.1,0,0.1-0.1
	c-0.1,0.2,0.1,0.2,0.3,0.2c0,0.1-0.1,0,0,0.1c0,0.1,0.1,0,0.3,0.2l-0.1,0c0.1,0.1,0.2,0.2,0.5,0.4c0.1,0.1,0.1,0.1,0.2,0.2
	c0.2,0.2,0.1,0,0.2,0.2c0.3,0,1.1,0,1.3,0l0-0.1c0-0.1,0-0.1,0-0.2c0-0.1,0-0.2,0-0.4c0-0.2,0-0.5,0-0.7c0-0.5,0-1,0-1.4
	c0-0.5,0-1,0-1.4l0-1.1c0-0.2,0-0.1-0.1-0.3h-1.2c0,0,0-0.1,0,0.2c0,0.1,0,0.2,0,0.3l0,3c0,0.1,0,0.2,0,0.3
	C324.8,178.1,324.8,178.1,324.7,178.2z M333,178.6c-0.1,0-0.6,0.1-0.8,0.1c-0.6,0.1-2.1,0-2.8,0l0-0.1c-0.1,0.1,0,0.1-0.1,0.1l0-1.4
	c0-0.1,0.1-0.3,0-0.4c-0.1-0.1-0.9-0.1-1.1,0c-0.1,0.1-0.1,0.1-0.1,0.3c0,0.6,0,2.3,0,2.6c0.4,0,1,0,1.5,0c0.9,0,2.3,0,3.1,0
	c0.7-0.1,0.6-0.2,1-0.2c0.2,0,0.2-0.1,0.3-0.1c0.3,0,1-0.6,1.2-1c0.3-0.5,0.5-1.1,0.4-1.8c-0.1-0.6-0.3-1.1-0.7-1.5
	c-0.3-0.3-1.1-0.8-1.4-0.8c-0.3,0-0.8-0.1-1.2-0.1c-0.5,0-3.7,0-4,0c-0.1,0.2-0.1,0.7-0.1,1c0.8,0.1,1.9,0,2.7,0
	c0.9,0,1.4,0,2.2,0.2c0.3,0.1,0.8,0.4,1,0.7c0.2,0.3,0.3,0.7,0.3,1.1c0,0.3-0.2,0.8-0.4,1c0,0,0,0,0,0
	C333.7,178.3,333.4,178.7,333,178.6z M356.6,176.9l-0.2,0v-1.3c0-0.1,0,0,0.1-0.1l0.5,0c0.2,0,0.5,0,0.7,0c0.2,0,0.5,0,0.7,0
	c0.1,0,0.3,0,0.4,0c0.1,0,0.2,0,0.3,0c0.5,0,0.9,0,1.4,0c0.5,0,0.9,0,1.4,0c0.1-0.1,0-0.3,0-0.5c0-0.1,0-0.1,0.1-0.2
	c0-0.1,0-0.2,0-0.2c-0.3-0.1-0.4-0.1-0.8-0.1c-0.3,0-0.6,0-0.9,0c-0.6,0-1.2,0-1.8,0c-0.5,0-3.4,0-3.5,0c-0.1,0.2,0,2.4,0,2.8
	c0,0.4,0,2.6,0,2.8c0.3,0.1,1,0,1.3,0c0,0,0-1.5,0-1.7c0-0.3,0.1-0.3,0.2-0.3c0.1,0,0.3,0,0.4,0c0.7,0,4.1,0.1,4.4,0
	c0.1-0.3,0-0.8,0-1c-0.8,0-1.6,0-2.3,0l-1.8,0c-0.1,0-0.2,0-0.3,0C356.6,177,356.6,177,356.6,176.9z M367.6,178.8c0-0.5,0-1.1,0-1.6
	c0-0.5,0-1.1,0.1-1.6c0.1-0.1-0.1-0.1,0.1-0.1c0.4,0,2.3,0.1,2.5,0c0-0.2,0-0.4,0-0.5c0-0.2,0-0.3,0-0.4c-0.1,0-0.3,0-0.4,0l-1.3,0
	c-0.7,0-4.9,0-5,0c0,0.1-0.1,0.9,0,1c0.1,0.1,1.2,0,1.3,0c0.4,0,0.9,0,1.3,0c0,0.3,0.1,0.3,0,0.6c0,0.4,0,2.3,0,2.4
	c0,0.2-0.1,0.4-0.1,0.5c0.1,0.6,0,0.6,0,1.1c0.1,0.1,0,0,0.1,0.1c0.3,0,0.5,0,0.8,0s0.5,0,0.5-0.2l0-1.3c0-0.3,0-0.1,0.1-0.2V178.8z
	 M293.3,174.5c0,0.2,0,0.1-0.1,0.1l0-0.2c-0.1,0-0.1,0-0.1,0v-0.1c-0.2,0.1-0.2,0.1-0.2,0.4c0,0.2,0,0.4,0,0.6h1.8
	c0.1,0,0.5,0,0.6,0c0.2,0.1,0.2,0.8,0.2,1l0,3.5c0.3,0,1,0.1,1.3,0c0-0.3,0-0.9,0-1.2c0-0.2-0.1-0.4,0-0.5v-2.4
	c0-0.4-0.1-0.2,0.1-0.5l2.4,0c0.2,0,0.1-0.1,0.1-0.2c0-0.4,0.1-0.4,0-0.8l-1.3,0c-0.2,0-0.4,0-0.6,0l-3.8,0.1c-0.1,0-0.1,0-0.2,0
	C293.5,174.5,293.4,174.5,293.3,174.5z M317.3,178.8l-5.7,0c0,0.1,0,0.1,0.1,0.1h0.5c0.9,0,4.7-0.1,5,0c0,0.1,0.1,0.7,0,0.9
	c-0.1,0.1-1.4,0-1.7,0c-0.9,0-4.7,0.1-5.2,0c0-0.8,0-2.2,0-2.9c0-0.4,0-0.5,0-0.7c0-0.2-0.1-0.1,0-0.3c0-0.1,0-0.2,0-0.3
	c0-0.2,0-0.4,0-0.7c0-0.7,0-0.3,0.1-0.6l6.6,0c0,0.3,0.1,0.7,0,1c-0.1,0-0.2,0-0.3,0c-0.3,0.1-3.4,0-3.8,0c-0.4,0-0.9,0-1.3,0
	c-0.2,0.2-0.1,0.6-0.1,1.1c0,0.2,0,0.2,0.1,0.3c0.2,0,4.4-0.1,4.7,0c0,0,0.1,0.1,0.1,0c0,0.2,0,0.3,0,0.5c0,0.1,0,0.2,0,0.2
	c0,0.1,0,0-0.1,0.1c-0.5,0.1-3.5,0-4.3,0c-0.4,0-0.5,0-0.5,0.1c0,0,0,0,0,0s0,0,0,0c0,0,4.4,0,4.8,0c0.1-0.2,0-0.8,0-1.1l0,0h-4.9
	c0-0.2,0-1,0-1.1c0.2-0.1,4.8,0,5.5,0c0-0.2,0-0.3,0-0.5v-0.4c0-0.1,0,0,0-0.1l0-0.1c0-0.2-1.4-0.1-1.7-0.1c-0.7,0-5,0-5.3,0v5.7
	l7.2,0C317.4,179.9,317.4,178.9,317.3,178.8z M301.1,175.6c0.5,0,4.2,0,4.9,0c0.5,0,0.5-0.1,0.7,0.1c0.4,0.3,0.3,0.8,0,1.1
	c-0.2,0.2-0.4,0.1-0.7,0.1c-0.7,0-4.6,0-4.9,0l0,3.1c0.3,0,1.4,0,1.6,0v-1.9h3.1c0.1,0.1,0.1,0.3,0.2,0.5c0.1,0.2,0.2,0.3,0.2,0.5
	c0.1,0.3,0.4,0.7,0.4,1c0.1,0.1,0.6,0,0.8,0c0.3,0,0.5,0,0.8,0c0-0.1,0-0.1,0-0.2c0,0,0-0.1,0-0.1c0-0.1,0,0-0.1,0l0,0.3h-1.3
	c-0.1-0.1-0.1-0.1-0.1-0.2c0-0.1,0-0.1-0.1-0.2c0-0.1,0,0-0.1-0.1l-0.4-0.8c0-0.2-0.1-0.2-0.1-0.3c0-0.1,0-0.3-0.3-0.3l-1.6,0
	c-0.4,0-1.3-0.1-1.5,0c-0.1,0.1,0,1.4-0.1,1.9c-0.2,0.1-1.2,0.1-1.3,0c-0.1-0.4,0-1.1,0-1.5c0-0.4-0.1-1.2,0.1-1.4h5
	c0.1,0,0.1,0,0.2-0.1c0.4-0.1,0.1,0.1,0.4-0.2c0.3-0.2,0.3-0.8,0.1-0.9c-0.1,0-0.1-0.1-0.1-0.1c-0.1-0.1-0.2-0.2-0.4-0.2h-2.1
	c-0.3,0-3,0.1-3.2,0v-1c0.1,0,0,0,0.1-0.1c0.5,0,1.1,0,1.5,0c0.5,0,1,0,1.5,0c0.5,0,1,0,1.5,0c0.2,0,0.5,0,0.7,0.1
	c0.3,0,0.4,0.1,0.7,0.1c-0.3-0.3-2.6-0.3-2.9-0.2c-0.5,0-2.9,0-3.2,0.1C301.1,174.6,301.1,175.3,301.1,175.6z M293.3,174.5
	c0.1,0,0.2,0,0.3,0c0,0,0,0,0.2,0l3.8-0.1c0.2,0,0.5,0,0.6,0l1.3,0c0.1,0.4,0.1,0.4,0,0.8c0,0.1,0.1,0.2-0.1,0.2l-2.4,0
	c-0.2,0.3-0.1,0.1-0.1,0.5v2.4c0,0.2,0,0.4,0,0.5c0,0.3,0,0.9,0,1.2c-0.3,0.1-1,0-1.3,0l0-3.5c0-0.3,0.1-0.9-0.2-1
	c-0.1,0-0.5,0-0.6,0H293c0-0.1,0-0.4,0-0.6c0-0.2,0-0.3,0.2-0.4v0.1C293.2,174.5,293.2,174.5,293.3,174.5l0,0.1
	C293.3,174.6,293.3,174.7,293.3,174.5z M292.9,175.5c0.4,0,0.9,0,1.3,0c0.3,0,1,0,1.3,0c0.1,0.4,0,1.8,0,2.3c0,0.5,0,2,0,2.3
	c0.2,0,1.3,0,1.4,0l0-4.6c0.2-0.1,2.2,0,2.6,0c0-0.3,0-1,0-1.2c-0.2-0.1-6.1,0-6.8,0v0.9C292.8,175.4,292.8,175.5,292.9,175.5z
	 M356.4,180c0-0.3,0-1.7,0-1.9c0.7-0.1,4.7,0.1,4.9,0l0.1-0.9c0-0.1,0-0.2-0.1-0.3c-0.1-0.1-4.2-0.1-4.7-0.1c0.1,0.1,0,0.1,0.3,0.1
	c0.1,0,0.2,0,0.3,0l1.8,0c0.8,0,1.6,0,2.3,0c0.1,0.3,0.1,0.8,0,1c-0.3,0.1-3.6,0-4.4,0c-0.1,0-0.3,0-0.4,0c-0.1,0-0.2,0-0.2,0.3
	C356.3,178.6,356.3,180,356.4,180c-0.4,0-1,0.1-1.3,0c-0.1-0.1,0-2.4,0-2.8c0-0.4,0-2.7,0-2.8c0.1-0.1,3,0,3.5,0c0.6,0,1.2,0,1.8,0
	c0.3,0,0.6,0,0.9,0c0.4,0,0.5,0,0.8,0.1c0,0.1,0,0.2,0,0.2c0,0.1,0,0.1-0.1,0.2c0,0.2,0,0.4,0,0.5c-0.5,0-0.9,0-1.4,0
	c-0.5,0-0.9,0-1.4,0c-0.1,0-0.2,0-0.3,0c-0.1,0-0.3,0-0.4,0c-0.2,0-0.5,0-0.7,0c-0.2,0-0.5,0-0.7,0l-0.5,0c-0.2,0-0.1,0-0.1,0.1
	c0.2-0.1,5.2,0.1,5.7,0l0-1.1l0-0.1l-7.1,0l0,5.8c0.2,0,1.2,0,1.4,0L356.4,180z M366.1,180.3c0.2,0,1.3,0,1.5,0l0-1.4v-0.3
	c-0.1,0.1-0.1-0.1-0.1,0.2l0,1.3c0,0.3-0.2,0.2-0.5,0.2c-0.3,0-0.5,0-0.8,0c-0.1-0.1,0,0-0.1-0.1c0-0.5,0.1-0.6,0-1.1
	c0-0.1,0-0.3,0.1-0.5c0-0.1,0-2,0-2.4c0-0.3,0-0.3,0-0.6c-0.4,0-0.9,0-1.3,0c-0.2,0-1.3,0-1.3,0c-0.1-0.1,0-0.9,0-1
	c0.1,0.1,4.3,0,5,0l1.3,0c0.1,0,0.3,0,0.4,0c0,0.1,0,0.2,0,0.4c0,0.2,0,0.3,0,0.5c-0.2,0.1-2.1,0-2.5,0c-0.2,0,0,0-0.1,0.1
	c0.4,0,0.9,0,1.3,0c0.3,0,1.1,0,1.3,0c0-0.1,0-0.5,0-0.6c0-0.2,0-0.4,0-0.6c-0.5,0-1.2,0-1.7,0l-4.8,0c-0.1,0-0.3,0-0.4,0.1
	c0,0.1,0,1,0,1.1c0.5,0,2.4,0,2.6,0l0,0.1c0,0,0,0.1,0,0.2C366.2,176.6,366.1,180,366.1,180.3z M333,178.6c0.4,0,0.7-0.3,0.8-0.4
	c0,0,0,0,0,0c0.1-0.1,0.3-0.7,0.4-1c0-0.4-0.1-0.8-0.3-1.1c-0.2-0.3-0.7-0.6-1-0.7c-0.8-0.2-1.3-0.2-2.2-0.2c-0.8,0-1.9,0.1-2.7,0
	c0-0.3,0-0.8,0.1-1c0.3-0.1,3.5,0,4,0c0.4,0,1,0.2,1.2,0.1l-0.3-0.1c-1.2-0.2-2.5-0.1-3.7-0.1c-0.4,0-1,0-1.4,0v1.2
	c1.3,0.1,4-0.2,5,0.2c0.6,0.2,1.1,0.6,1.1,1.5c0,0.8-0.4,1.2-1,1.5C333.1,178.6,333.2,178.5,333,178.6
	C333,178.6,333,178.6,333,178.6z M324.7,178.2c0.1,0,0.1,0,0.1-0.2c0-0.1,0-0.2,0-0.3l0-3c0-0.1,0-0.2,0-0.3c0-0.3,0-0.2,0-0.2h1.2
	c0.1,0.1,0.1,0.1,0.1,0.3l0,1.1c0,0.4,0,0.9,0,1.4c0,0.5,0,1,0,1.4c0,0.2,0,0.5,0,0.7c0,0.1,0,0.3,0,0.4c0,0.1,0,0.1,0,0.2l0,0.1
	c-0.2,0.1-1,0-1.3,0c-0.1-0.2,0-0.1-0.2-0.2c-0.1-0.1-0.1-0.1-0.2-0.2c-0.3-0.2-0.3-0.3-0.5-0.4l-0.1,0l0.9,0.8
	c0.1,0.1,0.1,0.1,0.3,0.1c0.1,0,0.3,0,0.4,0c0.3,0,0.6,0,0.8,0c0.1-0.3,0-1,0-1.4c0-1.2,0.1-3.3,0-4.3l-0.1,0h-1.3L324.7,178.2z
	 M328.1,180c1.6,0,3.9,0.2,5.3-0.2c0.1,0,0.2-0.1,0.3-0.1c0.1,0,0.2,0,0.3-0.1c-0.2,0-0.2,0-0.3,0.1c-0.3,0.1-0.3,0.2-1,0.2
	c-0.8,0.1-2.2,0.1-3.1,0C329.1,179.9,328.5,179.8,328.1,180c-0.1-0.5,0-2.1,0-2.7c0-0.2,0-0.1,0.1-0.3c0.2,0,1,0,1.1,0
	c0.1,0.1,0,0.3,0,0.4l0,1.4c0.1,0,0,0,0.1-0.1l0-1.9c-0.2,0-1.2,0-1.4,0L328.1,180L328.1,180z M351.1,180c-0.3,0-0.5,0.1-0.7,0.1
	c-0.9,0.1-1.8,0.1-2.6-0.1c-0.1,0-0.1-0.1-0.3-0.1l-0.3-0.1c-0.2-0.1-0.4-0.1-0.5-0.3c-0.1-0.2-0.4-0.3-0.6-0.5l-0.4-0.7
	c0-0.1-0.1-0.2-0.1-0.3l0-0.1c-0.1-0.2-0.1-0.7-0.1-0.9c0-0.1,0-0.2,0-0.4c0-0.3,0.1-0.2,0.1-0.3c0.1-0.1,0-0.1,0.1-0.4l0.1-0.2
	c0.2-0.3,0.2-0.4,0.4-0.6c0.1-0.1,0.1-0.1,0.2-0.2c0.1-0.1,0.2-0.2,0.3-0.3c0.2-0.1,0.2,0,0.3-0.2l-0.3,0.2c-0.5,0.3-0.8,0.6-1.1,1
	c-0.1,0.1-0.2,0.4-0.2,0.6c-0.3,1-0.1,1.9,0.5,2.6c0.2,0.3,0.7,0.6,0.9,0.8c0.7,0.3,1.2,0.5,2,0.6
	C349.2,180.3,350.8,180.3,351.1,180z M320.4,176.1C320.4,176.1,320.4,176.1,320.4,176.1C320.4,176.1,320.4,176.1,320.4,176.1
	C320.4,176.2,320.4,176.2,320.4,176.1l-0.1,1.8c0,0.5,0,1.2,0,1.8l0-0.2c0,0.2,0,0.3-0.1,0.3c-0.1,0-0.9,0-1.1,0
	c-0.1-0.1-0.1-0.1-0.1-0.3v-1.1c0-0.5,0-0.9,0-1.4c0-0.5,0-1,0-1.5c0-0.3,0.1-0.1,0-0.7c0-0.3,0-0.4,0-0.7c1.5-0.1,1.1,0.1,1.4,0.2
	c0.2,0.1,0,0,0.2,0.1l0.4,0.3c-0.1-0.1-0.1-0.1-0.2-0.2l-0.6-0.5c-0.1,0-1.2,0-1.4,0l0,5.7h1.4C320.5,179.7,320.5,176.5,320.4,176.1
	z M339.2,174.2c0.2,0,0.4,0,0.6,0c0.5-0.1,1.9,0,2.4,0.1l1,0.3c0.2,0.1,0.3,0.1,0.5,0.2c0,0.2-0.1,0.3-0.1,0.4
	c-0.1,0.2,0,0.2-0.2,0.4c-0.3,0-0.6-0.2-0.8-0.2c-0.2,0-0.8-0.1-1-0.1l0.9,0.2l0.2,0.1l0.8,0.2c0.1-0.1,0.4-1,0.4-1.1
	c-0.5-0.3-1.4-0.5-2.1-0.6C341.3,174.1,339.4,173.9,339.2,174.2z M337.7,177.2l0.1,0c0-0.1,0-0.1-0.2-0.2l-0.1-0.1
	c-0.1-0.1-0.2-0.2-0.3-0.4l0,0c0,0,0,0,0,0l0,0c0,0,0,0,0,0c0,0,0,0,0,0c0-0.1-0.1-0.1-0.1-0.1l-0.2-0.3c0-0.1-0.1-0.6,0.1-0.7
	c0.1,0,0,0,0.1-0.1c0,0,0,0,0-0.1c0.2-0.4,0.3-0.2,0.2-0.4l0.7-0.4c-0.1-0.1,0,0-0.1-0.1l-0.1,0c0,0,0,0-0.1,0.1c0,0-0.1,0-0.1,0.1
	c-0.1,0-0.1,0.1-0.2,0.1c-0.9,0.6-1,1.6-0.4,2.3C337.4,177.1,337.5,177.1,337.7,177.2z M323.2,178.5L323.2,178.5L323.2,178.5
	l0.5,0.5l0.1,0l0.1,0c-0.1-0.2-0.2-0.1-0.3-0.2c0-0.1,0,0,0-0.1c-0.1,0-0.3-0.1-0.3-0.2c0,0.1,0,0.1-0.1,0.1c-0.2,0-0.2-0.2-0.2-0.3
	c-0.2,0-0.1-0.1-0.2-0.2c-0.1-0.2-0.1-0.1-0.2-0.1l-0.3-0.4c-0.1-0.1,0,0-0.1-0.1c-0.4-0.2-0.3-0.4-0.7-0.5l1.2,1.1
	C322.9,178.3,323.1,178.5,323.2,178.5z M337.5,178.5c-0.1,0.3-0.4,0.7-0.4,1c0.4,0.2,0.6,0.3,1.1,0.4c0.5,0.1,0.9,0.2,1.3,0.3
	c0-0.1,0.1,0-0.1-0.1l-1.1-0.2c-0.2,0-0.2-0.1-0.3-0.1c-0.2,0-0.1,0-0.3-0.1c-0.2-0.1-0.4-0.1-0.5-0.2c0-0.2,0.1-0.3,0.2-0.5
	c0.1-0.1,0-0.2,0.1-0.4l0.1-0.1c0.1,0,0.1,0,0.1,0c-0.1-0.1,0,0-0.2-0.1l-0.1,0L337.5,178.5z"/>
<path class="st14" d="M306.9,185.8v-2.6h-1v-0.4h2.4v0.4h-1v2.6H306.9z M308.7,185.8v-3h2.2v0.4h-1.8v0.9h1.6v0.4h-1.6v1h1.8v0.4
	L308.7,185.8z M313.5,184.8l0.4,0.1c-0.1,0.3-0.2,0.6-0.4,0.7c-0.2,0.2-0.5,0.3-0.8,0.3c-0.3,0-0.6-0.1-0.8-0.2
	c-0.2-0.1-0.4-0.3-0.5-0.6c-0.1-0.3-0.2-0.5-0.2-0.8c0-0.3,0.1-0.6,0.2-0.8c0.1-0.2,0.3-0.4,0.5-0.5c0.2-0.1,0.5-0.2,0.7-0.2
	c0.3,0,0.5,0.1,0.8,0.2c0.2,0.1,0.3,0.4,0.4,0.6l-0.4,0.1c-0.1-0.2-0.2-0.4-0.3-0.5c-0.1-0.1-0.3-0.1-0.5-0.1
	c-0.2,0-0.4,0.1-0.6,0.2c-0.1,0.1-0.3,0.3-0.3,0.4s-0.1,0.4-0.1,0.6c0,0.3,0,0.5,0.1,0.7c0.1,0.2,0.2,0.3,0.3,0.4
	c0.2,0.1,0.3,0.1,0.5,0.1c0.2,0,0.4-0.1,0.6-0.2C313.4,185.2,313.5,185,313.5,184.8z M314.5,185.8v-3h0.4v1.2h1.5v-1.2h0.4v3h-0.4
	v-1.4h-1.5v1.4H314.5z M317.4,185.8v-3h0.4l1.6,2.3v-2.3h0.4v3h-0.4l-1.6-2.3v2.3H317.4z M320.3,184.4c0-0.5,0.1-0.9,0.4-1.2
	c0.3-0.3,0.6-0.4,1-0.4c0.3,0,0.5,0.1,0.7,0.2c0.2,0.1,0.4,0.3,0.5,0.5c0.1,0.2,0.2,0.5,0.2,0.8c0,0.3-0.1,0.6-0.2,0.8
	c-0.1,0.2-0.3,0.4-0.5,0.5c-0.2,0.1-0.5,0.2-0.7,0.2c-0.3,0-0.5-0.1-0.8-0.2c-0.2-0.1-0.4-0.3-0.5-0.6
	C320.4,184.9,320.3,184.7,320.3,184.4z M320.7,184.4c0,0.4,0.1,0.6,0.3,0.8c0.2,0.2,0.4,0.3,0.7,0.3s0.5-0.1,0.7-0.3
	c0.2-0.2,0.3-0.5,0.3-0.9c0-0.2,0-0.5-0.1-0.6c-0.1-0.2-0.2-0.3-0.4-0.4c-0.2-0.1-0.3-0.1-0.5-0.1c-0.3,0-0.5,0.1-0.7,0.3
	C320.8,183.6,320.7,183.9,320.7,184.4z M323.7,185.8v-3h0.4v2.6h1.5v0.4L323.7,185.8z M325.9,184.4c0-0.5,0.1-0.9,0.4-1.2
	c0.3-0.3,0.6-0.4,1-0.4c0.3,0,0.5,0.1,0.7,0.2c0.2,0.1,0.4,0.3,0.5,0.5c0.1,0.2,0.2,0.5,0.2,0.8c0,0.3-0.1,0.6-0.2,0.8
	c-0.1,0.2-0.3,0.4-0.5,0.5c-0.2,0.1-0.5,0.2-0.7,0.2c-0.3,0-0.5-0.1-0.8-0.2c-0.2-0.1-0.4-0.3-0.5-0.6
	C325.9,184.9,325.9,184.7,325.9,184.4z M326.3,184.4c0,0.4,0.1,0.6,0.3,0.8c0.2,0.2,0.4,0.3,0.7,0.3s0.5-0.1,0.7-0.3
	c0.2-0.2,0.3-0.5,0.3-0.9c0-0.2,0-0.5-0.1-0.6c-0.1-0.2-0.2-0.3-0.4-0.4c-0.2-0.1-0.3-0.1-0.5-0.1c-0.3,0-0.5,0.1-0.7,0.3
	C326.4,183.6,326.3,183.9,326.3,184.4z M330.6,184.7v-0.4h1.3v1.1c-0.2,0.1-0.4,0.3-0.6,0.4c-0.2,0.1-0.4,0.1-0.6,0.1
	c-0.3,0-0.6-0.1-0.8-0.2c-0.2-0.1-0.4-0.3-0.5-0.5c-0.1-0.2-0.2-0.5-0.2-0.8c0-0.3,0.1-0.6,0.2-0.8c0.1-0.3,0.3-0.4,0.5-0.6
	c0.2-0.1,0.5-0.2,0.8-0.2c0.2,0,0.4,0,0.6,0.1c0.2,0.1,0.3,0.2,0.4,0.3c0.1,0.1,0.2,0.3,0.2,0.5l-0.4,0.1c0-0.1-0.1-0.3-0.2-0.4
	c-0.1-0.1-0.2-0.2-0.3-0.2c-0.1-0.1-0.3-0.1-0.4-0.1c-0.2,0-0.3,0-0.5,0.1c-0.1,0.1-0.2,0.1-0.3,0.2c-0.1,0.1-0.1,0.2-0.2,0.3
	c-0.1,0.2-0.1,0.4-0.1,0.6c0,0.3,0,0.5,0.1,0.7s0.2,0.3,0.4,0.4c0.2,0.1,0.4,0.1,0.6,0.1c0.2,0,0.3,0,0.5-0.1s0.3-0.1,0.4-0.2v-0.6
	L330.6,184.7L330.6,184.7z M332.6,185.8v-3h0.4v3H332.6z M333.6,185.8v-3h2.2v0.4H334v0.9h1.6v0.4H334v1h1.8v0.4L333.6,185.8z
	 M336.3,184.9l0.4,0c0,0.1,0.1,0.3,0.1,0.4c0.1,0.1,0.2,0.2,0.3,0.2c0.1,0.1,0.3,0.1,0.5,0.1c0.1,0,0.3,0,0.4-0.1
	c0.1,0,0.2-0.1,0.3-0.2c0.1-0.1,0.1-0.2,0.1-0.3c0-0.1,0-0.2-0.1-0.2c-0.1-0.1-0.1-0.1-0.3-0.2c-0.1,0-0.3-0.1-0.5-0.1
	c-0.3-0.1-0.5-0.1-0.6-0.2c-0.1-0.1-0.3-0.2-0.3-0.3c-0.1-0.1-0.1-0.2-0.1-0.4c0-0.1,0-0.3,0.1-0.4c0.1-0.1,0.2-0.2,0.4-0.3
	c0.2-0.1,0.3-0.1,0.5-0.1c0.2,0,0.4,0,0.6,0.1c0.2,0.1,0.3,0.2,0.4,0.3c0.1,0.1,0.1,0.3,0.1,0.5l-0.4,0c0-0.2-0.1-0.3-0.2-0.4
	c-0.1-0.1-0.3-0.1-0.5-0.1c-0.2,0-0.4,0-0.5,0.1c-0.1,0.1-0.2,0.2-0.2,0.3c0,0.1,0,0.2,0.1,0.3c0.1,0.1,0.3,0.1,0.6,0.2
	c0.3,0.1,0.5,0.1,0.7,0.2c0.2,0.1,0.3,0.2,0.4,0.3c0.1,0.1,0.1,0.3,0.1,0.4s0,0.3-0.1,0.4c-0.1,0.1-0.2,0.3-0.4,0.3
	c-0.2,0.1-0.4,0.1-0.6,0.1c-0.3,0-0.5,0-0.7-0.1c-0.2-0.1-0.3-0.2-0.4-0.4C336.4,185.3,336.3,185.1,336.3,184.9z M340.4,185.8v-3
	h1.1c0.2,0,0.4,0,0.5,0c0.1,0,0.3,0.1,0.4,0.1c0.1,0.1,0.2,0.2,0.2,0.3s0.1,0.3,0.1,0.4c0,0.3-0.1,0.5-0.2,0.6
	c-0.2,0.2-0.5,0.3-0.9,0.3h-0.8v1.2H340.4z M340.8,184.3h0.8c0.3,0,0.4,0,0.5-0.1c0.1-0.1,0.2-0.2,0.2-0.4c0-0.1,0-0.2-0.1-0.3
	c-0.1-0.1-0.1-0.1-0.3-0.2c-0.1,0-0.2,0-0.4,0h-0.8V184.3z M344,185.8l-1.2-3h0.4l0.8,2.2c0.1,0.2,0.1,0.3,0.2,0.5
	c0-0.2,0.1-0.3,0.2-0.5l0.8-2.2h0.4l-1.2,3H344z M346.7,185.8v-2.6h-1v-0.4h2.4v0.4h-1v2.6H346.7z M348,185.8v-0.4h0.4v0.4H348z
	 M350.3,185.8v-3h0.4v2.6h1.5v0.4L350.3,185.8z M353.1,185.8v-2.6h-1v-0.4h2.4v0.4h-1v2.6H353.1z M354.9,185.8v-3h1
	c0.2,0,0.4,0,0.5,0c0.2,0,0.3,0.1,0.4,0.2c0.2,0.1,0.3,0.3,0.4,0.5c0.1,0.2,0.1,0.4,0.1,0.7c0,0.2,0,0.4-0.1,0.6
	c-0.1,0.2-0.1,0.3-0.2,0.4c-0.1,0.1-0.2,0.2-0.3,0.3c-0.1,0.1-0.2,0.1-0.4,0.1s-0.3,0-0.5,0L354.9,185.8z M355.3,185.5h0.6
	c0.2,0,0.4,0,0.5-0.1c0.1,0,0.2-0.1,0.3-0.2c0.1-0.1,0.2-0.2,0.2-0.4c0.1-0.2,0.1-0.4,0.1-0.6c0-0.3-0.1-0.5-0.1-0.7
	c-0.1-0.2-0.2-0.3-0.4-0.3c-0.1,0-0.3-0.1-0.5-0.1h-0.6L355.3,185.5z"/>
<linearGradient id="SVGID_00000019656103078239814370000004668233483425617321_" gradientUnits="userSpaceOnUse" x1="328.1267" y1="204.061" x2="327.6047" y2="194.25" gradientTransform="matrix(1 0 0 -1 0 347.89)">
	<stop  offset="0" style="stop-color:#3A3481"/>
	<stop  offset="1" style="stop-color:#5A9EDF"/>
</linearGradient>
<path style="fill-rule:evenodd;clip-rule:evenodd;fill:url(#SVGID_00000019656103078239814370000004668233483425617321_);" d="
	M320.5,151.5c5.9,0,11.9,0,17.8,0V150h1v-1.7h0.8v-1l-19.5,0.1c-4.4,0.6-5.9,4.7-4.7,7.8C316.6,153.4,318,152,320.5,151.5z"/>
<linearGradient id="SVGID_00000099622086547835998840000014015542536999358888_" gradientUnits="userSpaceOnUse" x1="314.3549" y1="198.0986" x2="332.7278" y2="174.7306" gradientTransform="matrix(1 0 0 -1 0 347.89)">
	<stop  offset="0" style="stop-color:#C22328"/>
	<stop  offset="0.549" style="stop-color:#D47424"/>
	<stop  offset="1" style="stop-color:#F0CA30"/>
</linearGradient>
<path style="fill-rule:evenodd;clip-rule:evenodd;fill:url(#SVGID_00000099622086547835998840000014015542536999358888_);" d="
	M326.3,160c0.1-2.5-1.3-4.3-5-5c-2.5-0.2-2.4-2.6-0.8-3.4c-2.5,0.5-4,1.9-4.7,3.7c0.8,1.9,2.5,3.5,5.4,3.6c0.9,0.1,1.2,0.6,1.2,1.4
	c0,2.1,0.2,4.2,0.2,6.4c0.9,2.5,3.1,4.3,5.9,4.1c0.4,0,0.9-0.1,1.3-0.2c-1.8-0.9-3.4-2.9-3.3-4.7c0,0,0,0,0,0
	C326.5,163.9,326.4,162,326.3,160z"/>
<linearGradient id="SVGID_00000136406431380232787480000004299476461261505665_" gradientUnits="userSpaceOnUse" x1="323.4485" y1="170.1712" x2="339.7406" y2="200.2342" gradientTransform="matrix(1 0 0 -1 0 347.89)">
	<stop  offset="0" style="stop-color:#3A3481"/>
	<stop  offset="1" style="stop-color:#4F8BCE"/>
</linearGradient>
<path style="fill-rule:evenodd;clip-rule:evenodd;fill:url(#SVGID_00000136406431380232787480000004299476461261505665_);" d="
	M339.4,154.9c-7.1-0.7-9.5,1.1-9.7,5c0,1.8,0,3.7,0,5.5c-0.1,1.8-2.7,1.9-3.1,0.6c-0.1,1.8,1.5,3.8,3.3,4.7c1.7-0.5,2.9-1.8,3.6-3.9
	c0.1-2,0.1-4,0.2-6.1c-0.3-1.3,0.7-1.8,2.3-2C338.1,158.5,339.3,157.2,339.4,154.9z"/>
<path class="st18" d="M340.2,150.7h-1v1.1h1V150.7z"/>
<path class="st18" d="M341.1,149.1h-1.1v1.1h1.1V149.1z"/>
<path class="st18" d="M342.5,150.4h-0.9v1h0.9V150.4z"/>
<path class="st18" d="M344.2,149.9h-0.7v0.7h0.7V149.9z"/>
<path class="st18" d="M343.2,148.6h-0.9v1h0.9V148.6z"/>
<path class="st18" d="M341.8,147.3h-1.1v1.1h1.1V147.3z"/>
<path class="st18" d="M343.6,146.7h-0.9v1h0.9V146.7z"/>
<path class="st18" d="M345.1,148.3h-0.7v0.8h0.7V148.3z"/>
<path class="st18" d="M346.3,147.5h-0.7v0.8h0.7V147.5z"/>
<path class="st18" d="M345.7,146.1h-0.7v0.8h0.7V146.1z"/>
<path class="st18" d="M347.4,145.5h-0.7v0.8h0.7V145.5z"/>
<path class="st6" d="M78.3,274.1c7.8,0,14.2-6.3,14.2-14.2c0-7.8-6.3-14.2-14.2-14.2s-14.2,6.3-14.2,14.2
	C64.2,267.7,70.5,274.1,78.3,274.1z"/>
<path class="st6" d="M78.3,227.2c7.8,0,14.2-6.3,14.2-14.2c0-7.8-6.3-14.2-14.2-14.2s-14.2,6.3-14.2,14.2
	C64.2,220.8,70.5,227.2,78.3,227.2z"/>
<path class="st6" d="M78.3,179.4c7.8,0,14.2-6.3,14.2-14.2c0-7.8-6.3-14.2-14.2-14.2s-14.2,6.3-14.2,14.2
	C64.2,173,70.5,179.4,78.3,179.4z"/>
<path class="st6" d="M78.3,131.3c7.8,0,14.2-6.3,14.2-14.2S86.2,103,78.3,103s-14.2,6.3-14.2,14.2S70.5,131.3,78.3,131.3z"/>
<path class="st6" d="M78.3,84.8c7.8,0,14.2-6.3,14.2-14.2c0-7.8-6.3-14.2-14.2-14.2s-14.2,6.3-14.2,14.2
	C64.2,78.5,70.5,84.8,78.3,84.8z"/>
<path class="st19" d="M422.6,326.9c0,0-1.8,6.9-3.6,8.5c-1.3,1.2-4,4.1-7.4,6.2c-1.1,0.6-5.3,1.8-5.7,2.5c-0.6,1.4,0.5,3,2,3h30.8
	l-0.2-18.7L422.6,326.9z"/>
<path class="st20" d="M473.2,169.4l0.3,23l0.8,65.2c0,0-0.4,20.3-1.1,23.6c-0.8,3.3,0.8,45.8,0.8,45.8l-15.5,1.5l-5.7-61.3
	l-8.7-60.8l-4.5,61.9l-0.9,60.7l-16-2l-1.2-48.4c0,0-5.7-44.6-5.7-59.3c0-14.7,0-36.1,0-36.1l-1.1-13L473.2,169.4z"/>
<path class="st19" d="M473.9,326.9c0,0,1.8,6.9,3.6,8.5c1.3,1.2,4,4.1,7.4,6.2c1.1,0.6,5.3,1.8,5.7,2.5c0.6,1.4-0.5,3-2,3h-30.4
	l0.2-18.7L473.9,326.9z"/>
<path class="st21" d="M359.9,73.9c0.8-0.7,2-0.5,2.6,0.3l4.3,5.5l-2.5-4.9c-0.5-1-0.2-2.3,0.7-2.9c0.3-0.2,0.7-0.3,1.2-0.3
	c1.8,0,4.2,6.4,4.2,6.4l5.2,8.2l1.5-1.5c0,0-2.4-5.2-1.5-6.7c0.9-1.5,3.6-2.1,3.6,0c0,2.1,2.1,4.3,2.7,5.8c0.6,1.5-3,13.4-3,13.4
	l19.1,22.5c0,0,7.9-29.2,9.7-30.1s24.3-5.2,24.3-5.2h8.8h14c0,0,22.5,4.3,24.3,5.2c1.8,0.9,9.7,30.1,9.7,30.1l19.1-22.5
	c0,0-3.6-11.9-3-13.4c0.6-1.5,2.7-3.6,2.7-5.8c0-2.1,2.7-1.5,3.6,0c0.9,1.5-1.5,6.7-1.5,6.7l1.5,1.5l5.2-8.2c0,0,2.4-6.4,4.2-6.4
	c0.5,0,0.8,0.1,1.2,0.3c1,0.6,1.2,1.9,0.7,2.9l-2.5,4.9l4.3-5.5c0.6-0.8,1.9-1,2.6-0.3c0.5,0.4,0.8,1,0.7,1.9
	c-0.3,2.1-2.5,6.2-2.5,6.2s2.9,4.4,1.9,5.9c-0.9,1.5-3,4-3,4s1.5,1.2-2.1,5.5c-3.6,4.3-6.1,5.2-6.1,5.2s-10.3,23.1-14.6,29.5
	c-4.2,6.4-15.2,13.1-16.7,13.1c-1.4,0-9.9-12.8-11.5-15.3c-0.2,5.2,1.9,34.5,1.3,37.1c-0.1,0.3-0.1,0.5-0.2,0.8l-0.1,3.2
	c0,0,0,1.7-2.3,2.3c-1.2,0.4-15.1,0.3-28.2,0.2c-13.2,0.1-27,0.1-28.2-0.2c-2.3-0.7-2.3-2.3-2.3-2.3l-0.1-3.2
	c-0.1-0.3-0.2-0.5-0.2-0.8c-0.6-2.7,1.5-31.9,1.3-37.1c-1.7,2.6-10.2,15.3-11.5,15.3c-1.5,0-12.4-6.7-16.7-13.1
	c-4.2-6.4-14.6-29.5-14.6-29.5s-2.4-0.9-6.1-5.2c-3.6-4.3-2.1-5.5-2.1-5.5s-2.1-2.4-3-4c-0.9-1.5,1.9-5.9,1.9-5.9s-2.2-4.1-2.5-6.2
	C359.1,75,359.4,74.4,359.9,73.9z"/>
<path class="st21" d="M382,100.7l16,18.8c0,0,7.9-29.2,9.7-30.1c1.8-0.9,24.3-5.2,24.3-5.2h8.8h14c0,0,22.5,4.3,24.3,5.2
	s9.7,30.1,9.7,30.1l16-18.9c2.9,2.9,7.1,4,9.8,4.3c-2.8,6.1-10,21.9-13.4,27c-4.2,6.4-15.2,13.1-16.7,13.1
	c-1.4,0-9.9-12.8-11.5-15.3c-0.2,5.2,1.9,34.5,1.3,37.1c-0.1,0.3-0.1,0.5-0.2,0.8l-0.1,3.2c0,0,0,1.7-2.3,2.3
	c-1.2,0.4-15.1,0.3-28.2,0.2c-13.2,0.1-27,0.1-28.2-0.2c-2.3-0.7-2.3-2.3-2.3-2.3l-0.1-3.2c-0.1-0.3-0.2-0.5-0.2-0.8
	c-0.6-2.7,1.5-31.9,1.3-37.1c-1.7,2.6-10.2,15.3-11.5,15.3c-1.5,0-12.4-6.7-16.7-13.1c-2.9-4.4-8.8-16.8-12.1-24.1
	C378.4,106.6,381.3,102,382,100.7z"/>
<path class="st22" d="M473,129.7l1.1-18.7l3,24.1L473,129.7z"/>
<path class="st22" d="M413.8,129.7l0.1-17.6l-3.6,22.1L413.8,129.7z"/>
<path class="st21" d="M382,100.7l4.3,5c-0.8,3.1-3.1,7.5-9.8,8.7c-1.1-2.4-2.2-4.7-3.1-6.6C378.4,106.6,381.3,102,382,100.7z"/>
<path class="st12" d="M526.1,83.4c0,0-4.9-4.9-6.7-2.4c-1.8,2.4,2.7,6.1,2.7,6.1l-1.8,2.1"/>
<path class="st23" d="M526.1,83.4c0,0-4.9-4.9-6.7-2.4c-1.8,2.4,2.7,6.1,2.7,6.1l-1.8,2.1"/>
<path class="st12" d="M524,91.9c0,0-3.6-4.3-6.1-3.6c-2.4,0.6,1.2,5.5,1.2,5.5s-4-0.3-6.7,3.3"/>
<path class="st23" d="M524,91.9c0,0-3.6-4.3-6.1-3.6c-2.4,0.6,1.2,5.5,1.2,5.5s-4-0.3-6.7,3.3"/>
<path class="st12" d="M360.7,83.4c0,0,4.9-4.9,6.7-2.4c1.8,2.4-2.7,6.1-2.7,6.1l1.8,2.1"/>
<path class="st23" d="M360.7,83.4c0,0,4.9-4.9,6.7-2.4c1.8,2.4-2.7,6.1-2.7,6.1l1.8,2.1"/>
<path class="st12" d="M362.8,91.9c0,0,3.6-4.3,6.1-3.6c2.4,0.6-1.2,5.5-1.2,5.5s4-0.3,6.7,3.3"/>
<path class="st23" d="M362.8,91.9c0,0,3.6-4.3,6.1-3.6c2.4,0.6-1.2,5.5-1.2,5.5s4-0.3,6.7,3.3"/>
<path class="st21" d="M512.3,110.2c-2.9-0.3-6.7-1.6-11-5.4l3.6-4.2c2.9,2.9,7.1,4,9.8,4.3C514.1,106.4,513.2,108.2,512.3,110.2z"/>
<path class="st6" d="M446,99l-6.8,8.5l6.7,54.9l-9.2,8.9l-7.6-8.6l7.3-54.9l-6.8-12.1l11-7.1L446,99z"/>
<path class="st21" d="M449.8,77.3l3.6,1.8l4.1,6.8l-7.3,19.1l-12.5-8l-13.4,8.7c0,0,0-19.6,1.1-21.9c1.1-2.3,5.7-7.1,5.7-7.1
	L449.8,77.3z"/>
<path class="st21" d="M451.3,68.6l-1.3,14c0,0-8.2,14.4-11.2,15.7s-7.7-11.9-8.7-13.9c-0.9-2-1.4-8.9-1.4-8.9s8.2-0.2,12.3-3
	c4.1-2.7,9.8-5.7,9.8-5.7L451.3,68.6z"/>
<path class="st22" d="M450.9,66.8l0.4,1.7l-1.3,14c0,0-0.4,0.7-1.1,1.8c-8.3-0.9-16.1-3.7-19.8-5.2c-0.2-2-0.3-3.7-0.3-3.7
	s8.2-0.2,12.3-3C445.2,69.8,450.9,66.8,450.9,66.8z"/>
<path class="st21" d="M452.2,54.2c0,0,1.3-3.7,4.6-1.7c3.3,2,2.3,6.2,1,8.2s-3.6,3.6-5,3.8C451.3,64.7,452.2,54.2,452.2,54.2z"/>
<path class="st21" d="M448.7,29.8c0,0,7.6,1.1,8.2,8.2c0.6,7.1-3.4,25.5-5.7,30.6c-2.3,5.1-4.2,6.5-8.8,9.9
	c-4.5,3.4-13.3,1.7-15.6-0.3c-2.3-2-4.8-7.4-5.4-16.7c-0.6-9.3-0.6-13.6-0.3-19.3c0.3-5.7,4.2-10.2,4.2-10.2s-1.1-3.7,5.4-5.1
	C437.4,25.5,445,28.4,448.7,29.8z"/>
<path class="st22" d="M423.8,68.6c0,0,0,0,0-0.8c0-0.8,3.7-3.7,7.1-4.3c3.4-0.6,8.5,0.8,10.5,2c2,1.1,2.5,4,2.5,4s2.5,0,4-2
	c1.4-2,3.4-14.4,2.8-15.3c-0.6-0.8-3.7-4.8-3.4-6.2c0.3-1.4,1.7-2,2-4.3c0.3-2.3-3.7-4.5-3.7-4.5c-2.5-2-8.8,0.6-12.7,0.3
	c-4-0.3-6.2-2.1-6.2-2.1l-1.8,1.9l-0.9,2.9c0,0-0.5,0.9-1.6,2c-0.9,0.9-0.5,0.5-1,1.2c0-0.4,0-0.7,0-1.1c0.3-5.7,4.2-10.2,4.2-10.2
	s-1.1-3.7,5.4-5.1c6.5-1.4,14.1,1.4,17.8,2.8c0,0,7.6,1.1,8.2,8.2c0.6,7.1-3.4,25.5-5.7,30.6c-2.3,5.1-4.2,6.5-8.8,9.9
	c-4.5,3.4-13.3,1.7-15.6-0.3c-1.7-1.5-3.6-4.9-4.6-10.5L423.8,68.6z"/>
<path class="st24" d="M429.5,50.5l-1.3-1.2c0,0-2.3-1.8-5.9,0.9"/>
<path class="st23" d="M436.3,61.2c0,0-0.8,2-2.5,2s-4.5-0.8-4.5-0.8l0.6-10.2l-0.3-1.7"/>
<path class="st12" d="M437.7,66.8c0,0-1.4,3.3-3.3,3.6c-1.8,0.3-3.1-2.4-3.1-2.4S435,67.9,437.7,66.8z"/>
<path class="st23" d="M429.8,67.7c0,0,5.3,0.4,8.9-1.8"/>
<path class="st25" d="M435.9,53.1c0,1.1,0.6,1.9,1.3,1.9c0.7,0,1.3-0.9,1.3-1.9c0-1.1-0.6-1.9-1.3-1.9
	C436.5,51.2,435.9,52,435.9,53.1z"/>
<path class="st25" d="M423.8,53.1c0,1.1,0.6,1.9,1.3,1.9c0.7,0,1.3-0.9,1.3-1.9c0-1.1-0.6-1.9-1.3-1.9
	C424.4,51.2,423.8,52,423.8,53.1z"/>
<path class="st24" d="M442.9,50.2c0,0-3-1.8-7.3-0.9"/>
</svg>
