<svg width="543" height="347" viewBox="0 0 543 347" fill="none" xmlns="http://www.w3.org/2000/svg">
<path d="M188.405 9.10069C146.31 3.13554 99.088 12.6546 63.5028 35.7153C32.6113 55.7477 15.1042 88.236 8.96012 123.958C0.794714 171.348 29.3679 204.842 36.7225 234.256C44.0771 263.671 26.1132 277.555 11.4155 302.067C-3.28228 326.579 12.2263 347 12.2263 347H528.234C528.234 347 544.565 308.604 536.4 266.939C528.234 225.274 492.215 200.728 493.894 178.285C495.253 160.172 508.044 143.042 513.731 126.072C538.467 52.2623 449.687 -12.9886 381.269 2.22134C337.175 12.0261 317.59 35.7153 285.739 35.7153C253.74 35.7153 226.822 16.2429 196.194 10.392C193.624 9.90061 191.02 9.47779 188.405 9.10069Z" fill="#AED9FF"/>
<path opacity="0.8" d="M303.098 127.875H278.556V138.594H303.098V127.875Z" fill="#0056A3"/>
<path opacity="0.8" d="M303.098 142.867H278.556V153.586H303.098V142.867Z" fill="#0056A3"/>
<path opacity="0.8" d="M303.098 157.875H278.556V168.594H303.098V157.875Z" fill="#0056A3"/>
<path opacity="0.8" d="M303.098 172.883H278.556V183.602H303.098V172.883Z" fill="#0056A3"/>
<path opacity="0.8" d="M303.098 187.875H278.556V198.594H303.098V187.875Z" fill="#0056A3"/>
<path opacity="0.8" d="M278.556 138.6L231.938 90.376V48.8828L278.556 127.881V138.6Z" fill="#0068C6"/>
<path opacity="0.8" d="M278.555 142.884L231.333 93.7344V138.599L278.555 153.592V142.884Z" fill="#0068C6"/>
<path opacity="0.8" d="M278.555 157.876L231.333 142.883L231.938 185.473L278.555 168.595V157.876Z" fill="#0068C6"/>
<path opacity="0.8" d="M278.556 172.883L231.938 190.401V233.62L278.556 183.602V172.883Z" fill="#0068C6"/>
<path opacity="0.8" d="M278.556 198.59L231.938 280.491V237.272L278.556 187.883V198.59Z" fill="#0068C6"/>
<g filter="url(#filter0_d_342_128)">
<path d="M334.617 211.615C361.366 211.615 383.05 189.917 383.05 163.151C383.05 136.386 361.366 114.688 334.617 114.688C307.869 114.688 286.185 136.386 286.185 163.151C286.185 189.917 307.869 211.615 334.617 211.615Z" fill="url(#paint0_linear_342_128)"/>
<path d="M334.617 212.396C361.752 212.396 383.838 190.306 383.838 163.143C383.838 135.991 361.763 113.891 334.617 113.891C307.472 113.891 285.396 135.98 285.396 163.143C285.396 190.306 307.483 212.396 334.617 212.396ZM334.617 115.479C360.884 115.479 382.262 136.871 382.262 163.155C382.262 189.438 360.884 210.83 334.617 210.83C308.351 210.83 286.972 189.438 286.972 163.155C286.972 136.871 308.351 115.479 334.617 115.479Z" fill="url(#paint1_linear_342_128)"/>
</g>
<path opacity="0.8" d="M231.938 90.376V48.8828H77.6062C66.1518 48.8828 56.8672 58.1734 56.8672 69.6351C56.8672 81.0969 66.1518 90.3874 77.6062 90.3874H231.938V90.376Z" fill="#0072F1"/>
<path opacity="0.8" d="M231.333 93.7344V138.599H77.6062C66.1518 138.599 56.8672 129.308 56.8672 117.846V115.309C56.8672 103.893 66.0833 94.6143 77.492 94.5572L231.333 93.7344Z" fill="#0072F1"/>
<path opacity="0.8" d="M231.333 142.883L231.938 185.484H77.6062C66.1518 185.484 56.8672 176.194 56.8672 164.732V163.635C56.8672 152.173 66.1518 142.883 77.6062 142.883H231.333Z" fill="#0072F1"/>
<path opacity="0.8" d="M231.938 190.394V233.613H77.6062C66.1518 233.613 56.8672 224.322 56.8672 212.861V211.135C56.8672 199.673 66.1518 190.383 77.6062 190.383H231.938V190.394Z" fill="#0072F1"/>
<path opacity="0.8" d="M231.938 237.273H77.6062C66.1518 237.273 56.8672 246.564 56.8672 258.026V259.751C56.8672 271.213 66.1518 280.504 77.6062 280.504H231.938V237.273Z" fill="#0072F1"/>
<path d="M78.3264 278.047C88.9035 278.047 97.478 269.467 97.478 258.883C97.478 248.299 88.9035 239.719 78.3264 239.719C67.7493 239.719 59.1748 248.299 59.1748 258.883C59.1748 269.467 67.7493 278.047 78.3264 278.047Z" fill="url(#paint2_linear_342_128)"/>
<path d="M78.3264 231.172C88.9035 231.172 97.478 222.592 97.478 212.008C97.478 201.424 88.9035 192.844 78.3264 192.844C67.7493 192.844 59.1748 201.424 59.1748 212.008C59.1748 222.592 67.7493 231.172 78.3264 231.172Z" fill="url(#paint3_linear_342_128)"/>
<path d="M78.3264 183.336C88.9035 183.336 97.478 174.756 97.478 164.172C97.478 153.588 88.9035 145.008 78.3264 145.008C67.7493 145.008 59.1748 153.588 59.1748 164.172C59.1748 174.756 67.7493 183.336 78.3264 183.336Z" fill="url(#paint4_linear_342_128)"/>
<path d="M78.3264 135.328C88.9035 135.328 97.478 126.748 97.478 116.164C97.478 105.58 88.9035 97 78.3264 97C67.7493 97 59.1748 105.58 59.1748 116.164C59.1748 126.748 67.7493 135.328 78.3264 135.328Z" fill="url(#paint5_linear_342_128)"/>
<path d="M78.3264 88.7965C88.9035 88.7965 97.478 80.2166 97.478 69.6326C97.478 59.0487 88.9035 50.4688 78.3264 50.4688C67.7493 50.4688 59.1748 59.0487 59.1748 69.6326C59.1748 80.2166 67.7493 88.7965 78.3264 88.7965Z" fill="url(#paint6_linear_342_128)"/>
<path d="M117.26 112.817H119.498L120.823 114.535L121.768 115.654L124.039 118.57H121.642L120.097 116.613L119.438 115.68L117.26 112.817ZM124.365 110.579C124.365 112.049 124.09 113.307 123.54 114.355C122.994 115.398 122.248 116.198 121.302 116.752C120.361 117.307 119.293 117.585 118.099 117.585C116.905 117.585 115.835 117.307 114.889 116.752C113.948 116.193 113.202 115.392 112.652 114.349C112.106 113.301 111.833 112.044 111.833 110.579C111.833 109.11 112.106 107.854 112.652 106.81C113.202 105.763 113.948 104.961 114.889 104.406C115.835 103.851 116.905 103.574 118.099 103.574C119.293 103.574 120.361 103.851 121.302 104.406C122.248 104.961 122.994 105.763 123.54 106.81C124.09 107.854 124.365 109.11 124.365 110.579ZM121.882 110.579C121.882 109.545 121.72 108.673 121.395 107.962C121.076 107.248 120.632 106.708 120.064 106.344C119.495 105.976 118.841 105.791 118.099 105.791C117.358 105.791 116.703 105.976 116.135 106.344C115.566 106.708 115.12 107.248 114.796 107.962C114.477 108.673 114.317 109.545 114.317 110.579C114.317 111.614 114.477 112.488 114.796 113.203C115.12 113.913 115.566 114.453 116.135 114.821C116.703 115.185 117.358 115.367 118.099 115.367C118.841 115.367 119.495 115.185 120.064 114.821C120.632 114.453 121.076 113.913 121.395 113.203C121.72 112.488 121.882 111.614 121.882 110.579ZM133.132 113.097V107.17H135.543V117.398H133.206V115.58H133.099C132.868 116.153 132.489 116.622 131.96 116.986C131.436 117.35 130.79 117.532 130.022 117.532C129.352 117.532 128.759 117.383 128.244 117.085C127.734 116.784 127.334 116.346 127.046 115.774C126.757 115.196 126.613 114.499 126.613 113.683V107.17H129.024V113.31C129.024 113.958 129.201 114.473 129.556 114.855C129.911 115.236 130.378 115.427 130.955 115.427C131.31 115.427 131.654 115.341 131.987 115.168C132.32 114.994 132.593 114.737 132.806 114.395C133.024 114.049 133.132 113.616 133.132 113.097ZM140.965 117.605C140.317 117.605 139.733 117.489 139.214 117.259C138.699 117.023 138.29 116.677 137.989 116.22C137.691 115.762 137.542 115.199 137.542 114.528C137.542 113.951 137.649 113.474 137.862 113.097C138.075 112.719 138.366 112.417 138.734 112.191C139.103 111.965 139.518 111.794 139.98 111.678C140.446 111.558 140.927 111.472 141.425 111.418C142.024 111.356 142.51 111.301 142.883 111.252C143.256 111.199 143.527 111.119 143.695 111.012C143.869 110.901 143.955 110.73 143.955 110.5V110.46C143.955 109.958 143.806 109.569 143.509 109.294C143.212 109.019 142.783 108.881 142.224 108.881C141.633 108.881 141.165 109.01 140.819 109.268C140.477 109.525 140.246 109.829 140.126 110.18L137.875 109.86C138.053 109.239 138.346 108.719 138.754 108.302C139.163 107.88 139.662 107.565 140.253 107.356C140.843 107.143 141.496 107.037 142.21 107.037C142.703 107.037 143.194 107.094 143.682 107.21C144.17 107.325 144.617 107.516 145.021 107.783C145.425 108.044 145.749 108.402 145.993 108.855C146.241 109.308 146.366 109.874 146.366 110.553V117.398H144.048V115.993H143.968C143.822 116.277 143.616 116.544 143.349 116.792C143.087 117.037 142.757 117.234 142.357 117.385C141.962 117.532 141.498 117.605 140.965 117.605ZM141.591 115.834C142.075 115.834 142.495 115.738 142.85 115.547C143.205 115.352 143.478 115.094 143.669 114.775C143.864 114.455 143.962 114.107 143.962 113.729V112.524C143.886 112.586 143.758 112.644 143.576 112.697C143.398 112.75 143.198 112.797 142.976 112.837C142.754 112.877 142.535 112.912 142.317 112.943C142.099 112.975 141.911 113.001 141.751 113.023C141.391 113.072 141.07 113.152 140.785 113.263C140.501 113.374 140.277 113.529 140.113 113.729C139.949 113.925 139.866 114.178 139.866 114.488C139.866 114.932 140.028 115.267 140.353 115.494C140.677 115.72 141.089 115.834 141.591 115.834ZM151.2 103.76V117.398H148.79V103.76H151.2ZM153.679 117.398V107.17H156.09V117.398H153.679ZM154.891 105.718C154.509 105.718 154.181 105.592 153.906 105.339C153.63 105.081 153.493 104.773 153.493 104.413C153.493 104.049 153.63 103.74 153.906 103.487C154.181 103.23 154.509 103.101 154.891 103.101C155.277 103.101 155.606 103.23 155.877 103.487C156.152 103.74 156.29 104.049 156.29 104.413C156.29 104.773 156.152 105.081 155.877 105.339C155.606 105.592 155.277 105.718 154.891 105.718ZM163.676 107.17V109.034H157.796V107.17H163.676ZM159.248 104.719H161.659V114.322C161.659 114.646 161.707 114.895 161.805 115.068C161.907 115.236 162.04 115.352 162.205 115.414C162.369 115.476 162.551 115.507 162.751 115.507C162.902 115.507 163.039 115.496 163.164 115.474C163.292 115.452 163.39 115.432 163.457 115.414L163.863 117.299C163.734 117.343 163.55 117.392 163.31 117.445C163.075 117.498 162.786 117.529 162.444 117.538C161.841 117.556 161.297 117.465 160.813 117.265C160.329 117.061 159.945 116.746 159.661 116.32C159.381 115.893 159.244 115.361 159.248 114.721V104.719ZM167.191 121.234C166.862 121.234 166.558 121.207 166.278 121.154C166.003 121.105 165.783 121.048 165.619 120.981L166.179 119.103C166.529 119.205 166.842 119.254 167.118 119.25C167.393 119.245 167.635 119.159 167.843 118.99C168.056 118.826 168.236 118.55 168.383 118.164L168.589 117.612L164.88 107.17H167.437L169.795 114.895H169.901L172.265 107.17H174.829L170.733 118.637C170.543 119.179 170.29 119.643 169.974 120.029C169.659 120.419 169.273 120.717 168.816 120.921C168.363 121.13 167.821 121.234 167.191 121.234Z" fill="white"/>
<path d="M116.801 164.875H112.179V151.237H116.894C118.248 151.237 119.411 151.51 120.383 152.056C121.36 152.598 122.11 153.377 122.634 154.393C123.158 155.41 123.42 156.626 123.42 158.043C123.42 159.463 123.156 160.684 122.627 161.705C122.104 162.726 121.347 163.51 120.357 164.056C119.371 164.602 118.186 164.875 116.801 164.875ZM114.65 162.737H116.681C117.631 162.737 118.423 162.564 119.058 162.218C119.693 161.867 120.17 161.346 120.49 160.653C120.809 159.956 120.969 159.086 120.969 158.043C120.969 156.999 120.809 156.134 120.49 155.446C120.17 154.753 119.697 154.236 119.071 153.894C118.45 153.548 117.677 153.375 116.754 153.375H114.65V162.737ZM130.189 165.075C129.163 165.075 128.278 164.862 127.532 164.435C126.791 164.005 126.22 163.397 125.821 162.611C125.421 161.821 125.221 160.891 125.221 159.821C125.221 158.769 125.421 157.845 125.821 157.05C126.225 156.251 126.788 155.63 127.512 155.186C128.236 154.737 129.086 154.513 130.062 154.513C130.693 154.513 131.288 154.615 131.847 154.82C132.411 155.019 132.908 155.33 133.339 155.752C133.774 156.174 134.116 156.711 134.364 157.363C134.613 158.012 134.737 158.784 134.737 159.681V160.42H126.353V158.795H132.426C132.422 158.333 132.322 157.923 132.127 157.563C131.931 157.199 131.658 156.913 131.308 156.704C130.961 156.496 130.557 156.391 130.096 156.391C129.603 156.391 129.17 156.511 128.797 156.751C128.424 156.986 128.133 157.297 127.925 157.683C127.721 158.065 127.616 158.484 127.612 158.942V160.36C127.612 160.955 127.721 161.465 127.938 161.892C128.156 162.313 128.46 162.638 128.85 162.864C129.241 163.086 129.698 163.197 130.222 163.197C130.573 163.197 130.89 163.148 131.175 163.05C131.459 162.948 131.705 162.8 131.914 162.604C132.122 162.409 132.28 162.167 132.386 161.878L134.637 162.131C134.495 162.726 134.224 163.246 133.825 163.69C133.43 164.129 132.924 164.471 132.307 164.715C131.689 164.955 130.984 165.075 130.189 165.075ZM139.187 151.237V164.875H136.777V151.237H139.187ZM141.666 164.875V154.646H144.077V164.875H141.666ZM142.878 153.195C142.496 153.195 142.168 153.068 141.892 152.815C141.617 152.558 141.48 152.249 141.48 151.89C141.48 151.526 141.617 151.217 141.892 150.964C142.168 150.706 142.496 150.578 142.878 150.578C143.264 150.578 143.593 150.706 143.864 150.964C144.139 151.217 144.276 151.526 144.276 151.89C144.276 152.249 144.139 152.558 143.864 152.815C143.593 153.068 143.264 153.195 142.878 153.195ZM155.692 154.646L152.049 164.875H149.386L145.743 154.646H148.314L150.664 162.245H150.771L153.128 154.646H155.692ZM161.54 165.075C160.515 165.075 159.629 164.862 158.883 164.435C158.142 164.005 157.572 163.397 157.172 162.611C156.772 161.821 156.573 160.891 156.573 159.821C156.573 158.769 156.772 157.845 157.172 157.05C157.576 156.251 158.14 155.63 158.863 155.186C159.587 154.737 160.437 154.513 161.414 154.513C162.044 154.513 162.639 154.615 163.199 154.82C163.762 155.019 164.26 155.33 164.69 155.752C165.125 156.174 165.467 156.711 165.716 157.363C165.964 158.012 166.089 158.784 166.089 159.681V160.42H157.705V158.795H163.778C163.773 158.333 163.674 157.923 163.478 157.563C163.283 157.199 163.01 156.913 162.659 156.704C162.313 156.496 161.909 156.391 161.447 156.391C160.954 156.391 160.522 156.511 160.149 156.751C159.776 156.986 159.485 157.297 159.276 157.683C159.072 158.065 158.968 158.484 158.963 158.942V160.36C158.963 160.955 159.072 161.465 159.29 161.892C159.507 162.313 159.811 162.638 160.202 162.864C160.593 163.086 161.05 163.197 161.574 163.197C161.924 163.197 162.242 163.148 162.526 163.05C162.81 162.948 163.057 162.8 163.265 162.604C163.474 162.409 163.631 162.167 163.738 161.878L165.989 162.131C165.847 162.726 165.576 163.246 165.176 163.69C164.781 164.129 164.275 164.471 163.658 164.715C163.041 164.955 162.335 165.075 161.54 165.075ZM168.128 164.875V154.646H170.465V156.351H170.572C170.758 155.761 171.078 155.306 171.531 154.986C171.988 154.662 172.51 154.5 173.096 154.5C173.229 154.5 173.378 154.507 173.542 154.52C173.711 154.529 173.851 154.544 173.962 154.567V156.784C173.859 156.749 173.697 156.717 173.475 156.691C173.258 156.66 173.047 156.644 172.843 156.644C172.403 156.644 172.008 156.74 171.657 156.931C171.311 157.117 171.038 157.377 170.838 157.71C170.639 158.043 170.539 158.427 170.539 158.862V164.875H168.128ZM177.373 168.711C177.044 168.711 176.74 168.684 176.46 168.631C176.185 168.582 175.965 168.524 175.801 168.458L176.36 166.58C176.711 166.682 177.024 166.731 177.299 166.726C177.575 166.722 177.817 166.635 178.025 166.467C178.238 166.302 178.418 166.027 178.565 165.641L178.771 165.088L175.062 154.646H177.619L179.976 162.371H180.083L182.447 154.646H185.011L180.915 166.114C180.724 166.655 180.471 167.119 180.156 167.505C179.841 167.896 179.455 168.194 178.998 168.398C178.545 168.606 178.003 168.711 177.373 168.711Z" fill="white"/>
<path d="M112.179 212.344V198.706H117.293C118.341 198.706 119.22 198.888 119.93 199.252C120.645 199.616 121.185 200.126 121.549 200.783C121.917 201.436 122.101 202.197 122.101 203.067C122.101 203.942 121.915 204.701 121.542 205.345C121.173 205.984 120.63 206.479 119.91 206.83C119.191 207.176 118.308 207.349 117.26 207.349H113.618V205.298H116.927C117.54 205.298 118.041 205.214 118.432 205.045C118.823 204.872 119.111 204.621 119.298 204.293C119.489 203.96 119.584 203.551 119.584 203.067C119.584 202.584 119.489 202.171 119.298 201.829C119.107 201.483 118.816 201.221 118.425 201.043C118.035 200.861 117.531 200.77 116.914 200.77H114.65V212.344H112.179ZM119.225 206.164L122.601 212.344H119.844L116.528 206.164H119.225ZM128.651 212.544C127.625 212.544 126.739 212.33 125.994 211.904C125.252 211.474 124.682 210.865 124.282 210.08C123.883 209.289 123.683 208.359 123.683 207.289C123.683 206.237 123.883 205.314 124.282 204.519C124.686 203.72 125.25 203.099 125.974 202.655C126.697 202.206 127.547 201.982 128.524 201.982C129.155 201.982 129.749 202.084 130.309 202.288C130.873 202.488 131.37 202.799 131.8 203.221C132.236 203.642 132.577 204.18 132.826 204.832C133.075 205.48 133.199 206.253 133.199 207.15V207.889H124.815V206.264H130.888C130.884 205.802 130.784 205.392 130.588 205.032C130.393 204.668 130.12 204.382 129.769 204.173C129.423 203.964 129.019 203.86 128.557 203.86C128.065 203.86 127.632 203.98 127.259 204.22C126.886 204.455 126.595 204.766 126.387 205.152C126.182 205.534 126.078 205.953 126.074 206.41V207.829C126.074 208.424 126.182 208.934 126.4 209.36C126.617 209.782 126.921 210.106 127.312 210.333C127.703 210.555 128.16 210.666 128.684 210.666C129.035 210.666 129.352 210.617 129.636 210.519C129.92 210.417 130.167 210.268 130.375 210.073C130.584 209.878 130.742 209.636 130.848 209.347L133.099 209.6C132.957 210.195 132.686 210.714 132.287 211.158C131.891 211.598 131.385 211.94 130.768 212.184C130.151 212.424 129.445 212.544 128.651 212.544ZM137.649 198.706V212.344H135.238V198.706H137.649ZM140.128 212.344V202.115H142.538V212.344H140.128ZM141.34 200.664C140.958 200.664 140.629 200.537 140.354 200.284C140.079 200.026 139.941 199.718 139.941 199.358C139.941 198.994 140.079 198.686 140.354 198.433C140.629 198.175 140.958 198.046 141.34 198.046C141.726 198.046 142.055 198.175 142.325 198.433C142.601 198.686 142.738 198.994 142.738 199.358C142.738 199.718 142.601 200.026 142.325 200.284C142.055 200.537 141.726 200.664 141.34 200.664ZM147.961 212.55C147.313 212.55 146.729 212.435 146.209 212.204C145.694 211.969 145.286 211.622 144.984 211.165C144.687 210.708 144.538 210.144 144.538 209.474C144.538 208.897 144.644 208.419 144.857 208.042C145.071 207.665 145.361 207.363 145.73 207.136C146.098 206.91 146.513 206.739 146.975 206.623C147.441 206.504 147.923 206.417 148.42 206.364C149.019 206.302 149.506 206.246 149.879 206.197C150.251 206.144 150.522 206.064 150.691 205.958C150.864 205.847 150.951 205.676 150.951 205.445V205.405C150.951 204.903 150.802 204.515 150.504 204.24C150.207 203.964 149.779 203.827 149.219 203.827C148.629 203.827 148.16 203.955 147.814 204.213C147.472 204.47 147.241 204.774 147.122 205.125L144.871 204.806C145.048 204.184 145.341 203.665 145.75 203.247C146.158 202.826 146.658 202.51 147.248 202.302C147.839 202.089 148.491 201.982 149.206 201.982C149.699 201.982 150.189 202.04 150.678 202.155C151.166 202.271 151.612 202.462 152.016 202.728C152.42 202.99 152.744 203.347 152.988 203.8C153.237 204.253 153.361 204.819 153.361 205.498V212.344H151.044V210.939H150.964C150.817 211.223 150.611 211.489 150.345 211.738C150.083 211.982 149.752 212.179 149.352 212.33C148.957 212.477 148.493 212.55 147.961 212.55ZM148.587 210.779C149.071 210.779 149.49 210.683 149.845 210.492C150.2 210.297 150.473 210.04 150.664 209.72C150.86 209.4 150.957 209.052 150.957 208.675V207.469C150.882 207.531 150.753 207.589 150.571 207.642C150.394 207.696 150.194 207.742 149.972 207.782C149.75 207.822 149.53 207.858 149.312 207.889C149.095 207.92 148.906 207.946 148.746 207.969C148.387 208.017 148.065 208.097 147.781 208.208C147.497 208.319 147.273 208.475 147.108 208.675C146.944 208.87 146.862 209.123 146.862 209.434C146.862 209.878 147.024 210.213 147.348 210.439C147.672 210.666 148.085 210.779 148.587 210.779ZM155.892 212.344V198.706H158.302V203.807H158.402C158.527 203.558 158.702 203.294 158.928 203.014C159.155 202.73 159.461 202.488 159.847 202.288C160.234 202.084 160.726 201.982 161.326 201.982C162.116 201.982 162.828 202.184 163.463 202.588C164.103 202.988 164.609 203.58 164.982 204.366C165.359 205.147 165.548 206.106 165.548 207.243C165.548 208.366 165.363 209.32 164.995 210.106C164.626 210.892 164.125 211.491 163.49 211.904C162.855 212.317 162.136 212.524 161.332 212.524C160.746 212.524 160.26 212.426 159.874 212.231C159.488 212.035 159.177 211.8 158.942 211.525C158.711 211.245 158.531 210.981 158.402 210.732H158.262V212.344H155.892ZM158.256 207.229C158.256 207.891 158.349 208.47 158.535 208.968C158.726 209.465 158.999 209.853 159.355 210.133C159.714 210.408 160.149 210.546 160.66 210.546C161.193 210.546 161.639 210.404 161.998 210.12C162.358 209.831 162.629 209.438 162.811 208.941C162.997 208.439 163.09 207.869 163.09 207.229C163.09 206.595 162.999 206.031 162.817 205.538C162.635 205.045 162.365 204.659 162.005 204.379C161.645 204.1 161.197 203.96 160.66 203.96C160.145 203.96 159.708 204.095 159.348 204.366C158.988 204.637 158.715 205.016 158.529 205.505C158.347 205.993 158.256 206.568 158.256 207.229ZM167.597 212.344V202.115H170.008V212.344H167.597ZM168.809 200.664C168.427 200.664 168.099 200.537 167.823 200.284C167.548 200.026 167.411 199.718 167.411 199.358C167.411 198.994 167.548 198.686 167.823 198.433C168.099 198.175 168.427 198.046 168.809 198.046C169.195 198.046 169.524 198.175 169.795 198.433C170.07 198.686 170.207 198.994 170.207 199.358C170.207 199.718 170.07 200.026 169.795 200.284C169.524 200.537 169.195 200.664 168.809 200.664ZM174.897 198.706V212.344H172.487V198.706H174.897ZM177.376 212.344V202.115H179.787V212.344H177.376ZM178.588 200.664C178.206 200.664 177.878 200.537 177.602 200.284C177.327 200.026 177.19 199.718 177.19 199.358C177.19 198.994 177.327 198.686 177.602 198.433C177.878 198.175 178.206 198.046 178.588 198.046C178.974 198.046 179.303 198.175 179.574 198.433C179.849 198.686 179.986 198.994 179.986 199.358C179.986 199.718 179.849 200.026 179.574 200.284C179.303 200.537 178.974 200.664 178.588 200.664ZM187.373 202.115V203.98H181.493V202.115H187.373ZM182.945 199.665H185.355V209.267C185.355 209.591 185.404 209.84 185.502 210.013C185.604 210.182 185.737 210.297 185.901 210.359C186.066 210.421 186.248 210.453 186.448 210.453C186.598 210.453 186.736 210.441 186.86 210.419C186.989 210.397 187.087 210.377 187.153 210.359L187.56 212.244C187.431 212.288 187.247 212.337 187.007 212.39C186.772 212.444 186.483 212.475 186.141 212.484C185.537 212.501 184.994 212.41 184.51 212.211C184.026 212.006 183.642 211.691 183.358 211.265C183.078 210.839 182.94 210.306 182.945 209.667V199.665ZM190.888 216.179C190.559 216.179 190.255 216.153 189.975 216.1C189.7 216.051 189.48 215.993 189.316 215.926L189.875 214.049C190.226 214.151 190.539 214.199 190.814 214.195C191.09 214.191 191.331 214.104 191.54 213.935C191.753 213.771 191.933 213.496 192.08 213.11L192.286 212.557L188.577 202.115H191.134L193.491 209.84H193.598L195.962 202.115H198.526L194.43 213.582C194.239 214.124 193.986 214.588 193.671 214.974C193.356 215.365 192.97 215.662 192.512 215.866C192.06 216.075 191.518 216.179 190.888 216.179Z" fill="white"/>
<path d="M112.18 259.82V246.182H121.05V248.253H114.651V251.956H120.591V254.027H114.651V257.749H121.103V259.82H112.18ZM128.645 249.592V251.456H122.598V249.592H128.645ZM124.11 259.82V248.626C124.11 247.938 124.252 247.365 124.536 246.908C124.825 246.451 125.211 246.109 125.695 245.883C126.179 245.656 126.716 245.543 127.306 245.543C127.724 245.543 128.094 245.576 128.419 245.643C128.743 245.709 128.982 245.769 129.138 245.823L128.658 247.687C128.556 247.656 128.427 247.625 128.272 247.594C128.117 247.559 127.944 247.541 127.753 247.541C127.304 247.541 126.987 247.65 126.8 247.867C126.618 248.08 126.527 248.386 126.527 248.786V259.82H124.11ZM135.714 249.592V251.456H129.667V249.592H135.714ZM131.179 259.82V248.626C131.179 247.938 131.321 247.365 131.605 246.908C131.894 246.451 132.28 246.109 132.764 245.883C133.248 245.656 133.785 245.543 134.375 245.543C134.793 245.543 135.163 245.576 135.487 245.643C135.811 245.709 136.051 245.769 136.207 245.823L135.727 247.687C135.625 247.656 135.496 247.625 135.341 247.594C135.185 247.559 135.012 247.541 134.821 247.541C134.373 247.541 134.056 247.65 133.869 247.867C133.687 248.08 133.596 248.386 133.596 248.786V259.82H131.179ZM137.602 259.82V249.592H140.012V259.82H137.602ZM138.814 248.14C138.432 248.14 138.103 248.014 137.828 247.761C137.553 247.503 137.415 247.194 137.415 246.835C137.415 246.471 137.553 246.162 137.828 245.909C138.103 245.652 138.432 245.523 138.814 245.523C139.2 245.523 139.528 245.652 139.799 245.909C140.074 246.162 140.212 246.471 140.212 246.835C140.212 247.194 140.074 247.503 139.799 247.761C139.528 248.014 139.2 248.14 138.814 248.14ZM146.953 260.02C145.932 260.02 145.055 259.796 144.322 259.348C143.594 258.899 143.033 258.28 142.638 257.49C142.247 256.695 142.052 255.78 142.052 254.746C142.052 253.707 142.251 252.79 142.651 251.996C143.05 251.197 143.614 250.575 144.342 250.131C145.075 249.683 145.941 249.459 146.939 249.459C147.77 249.459 148.504 249.612 149.144 249.918C149.787 250.22 150.3 250.648 150.682 251.203C151.064 251.754 151.281 252.398 151.335 253.134H149.03C148.937 252.642 148.715 252.231 148.365 251.903C148.018 251.57 147.554 251.403 146.973 251.403C146.48 251.403 146.047 251.536 145.674 251.803C145.301 252.065 145.011 252.442 144.802 252.935C144.598 253.427 144.496 254.018 144.496 254.706C144.496 255.403 144.598 256.002 144.802 256.504C145.006 257.001 145.292 257.385 145.661 257.656C146.034 257.922 146.471 258.056 146.973 258.056C147.328 258.056 147.645 257.989 147.925 257.856C148.209 257.718 148.447 257.521 148.638 257.263C148.828 257.006 148.959 256.693 149.03 256.324H151.335C151.277 257.048 151.064 257.689 150.695 258.249C150.327 258.804 149.825 259.239 149.19 259.554C148.555 259.865 147.81 260.02 146.953 260.02ZM153.314 259.82V249.592H155.725V259.82H153.314ZM154.526 248.14C154.144 248.14 153.816 248.014 153.54 247.761C153.265 247.503 153.128 247.194 153.128 246.835C153.128 246.471 153.265 246.162 153.54 245.909C153.816 245.652 154.144 245.523 154.526 245.523C154.912 245.523 155.241 245.652 155.512 245.909C155.787 246.162 155.924 246.471 155.924 246.835C155.924 247.194 155.787 247.503 155.512 247.761C155.241 248.014 154.912 248.14 154.526 248.14ZM162.732 260.02C161.706 260.02 160.821 259.807 160.075 259.381C159.333 258.95 158.763 258.342 158.363 257.556C157.964 256.766 157.764 255.836 157.764 254.766C157.764 253.714 157.964 252.79 158.363 251.996C158.767 251.197 159.331 250.575 160.055 250.131C160.778 249.683 161.629 249.459 162.605 249.459C163.236 249.459 163.831 249.561 164.39 249.765C164.954 249.965 165.451 250.275 165.882 250.697C166.317 251.119 166.658 251.656 166.907 252.309C167.156 252.957 167.28 253.729 167.28 254.626V255.365H158.896V253.74H164.969C164.965 253.279 164.865 252.868 164.67 252.509C164.474 252.144 164.201 251.858 163.85 251.649C163.504 251.441 163.1 251.336 162.639 251.336C162.146 251.336 161.713 251.456 161.34 251.696C160.967 251.931 160.676 252.242 160.468 252.628C160.263 253.01 160.159 253.43 160.155 253.887V255.305C160.155 255.9 160.263 256.411 160.481 256.837C160.698 257.259 161.003 257.583 161.393 257.809C161.784 258.031 162.241 258.142 162.765 258.142C163.116 258.142 163.433 258.093 163.717 257.996C164.001 257.894 164.248 257.745 164.456 257.55C164.665 257.354 164.823 257.112 164.929 256.824L167.18 257.077C167.038 257.672 166.767 258.191 166.368 258.635C165.973 259.074 165.466 259.416 164.849 259.66C164.232 259.9 163.526 260.02 162.732 260.02ZM171.73 253.827V259.82H169.319V249.592H171.623V251.33H171.743C171.979 250.757 172.354 250.302 172.869 249.965C173.388 249.627 174.03 249.459 174.793 249.459C175.499 249.459 176.114 249.61 176.638 249.911C177.166 250.213 177.575 250.651 177.863 251.223C178.156 251.796 178.3 252.491 178.296 253.308V259.82H175.885V253.681C175.885 252.997 175.708 252.462 175.353 252.076C175.002 251.689 174.516 251.496 173.894 251.496C173.472 251.496 173.097 251.59 172.769 251.776C172.445 251.958 172.189 252.222 172.003 252.568C171.821 252.915 171.73 253.334 171.73 253.827ZM185.208 260.02C184.187 260.02 183.31 259.796 182.578 259.348C181.85 258.899 181.288 258.28 180.893 257.49C180.502 256.695 180.307 255.78 180.307 254.746C180.307 253.707 180.507 252.79 180.906 251.996C181.306 251.197 181.87 250.575 182.598 250.131C183.33 249.683 184.196 249.459 185.195 249.459C186.025 249.459 186.76 249.612 187.399 249.918C188.043 250.22 188.556 250.648 188.937 251.203C189.319 251.754 189.537 252.398 189.59 253.134H187.286C187.193 252.642 186.971 252.231 186.62 251.903C186.274 251.57 185.81 251.403 185.228 251.403C184.735 251.403 184.303 251.536 183.93 251.803C183.557 252.065 183.266 252.442 183.057 252.935C182.853 253.427 182.751 254.018 182.751 254.706C182.751 255.403 182.853 256.002 183.057 256.504C183.262 257.001 183.548 257.385 183.916 257.656C184.289 257.922 184.727 258.056 185.228 258.056C185.583 258.056 185.901 257.989 186.18 257.856C186.465 257.718 186.702 257.521 186.893 257.263C187.084 257.006 187.215 256.693 187.286 256.324H189.59C189.532 257.048 189.319 257.689 188.951 258.249C188.582 258.804 188.081 259.239 187.446 259.554C186.811 259.865 186.065 260.02 185.208 260.02ZM193.068 263.656C192.739 263.656 192.435 263.629 192.155 263.576C191.88 263.527 191.66 263.47 191.496 263.403L192.056 261.525C192.406 261.627 192.719 261.676 192.994 261.672C193.27 261.667 193.512 261.581 193.72 261.412C193.933 261.248 194.113 260.972 194.26 260.586L194.466 260.033L190.757 249.592H193.314L195.671 257.316H195.778L198.142 249.592H200.706L196.61 261.059C196.42 261.601 196.166 262.064 195.851 262.451C195.536 262.841 195.15 263.139 194.693 263.343C194.24 263.552 193.698 263.656 193.068 263.656Z" fill="white"/>
<path d="M112.18 69.9297V56.2917H117.294C118.342 56.2917 119.221 56.487 119.931 56.8777C120.646 57.2683 121.186 57.8055 121.55 58.4892C121.918 59.1684 122.102 59.9409 122.102 60.8066C122.102 61.6812 121.918 62.4581 121.55 63.1373C121.181 63.8165 120.637 64.3515 119.918 64.7422C119.199 65.1284 118.313 65.3215 117.261 65.3215H113.872V63.2905H116.928C117.541 63.2905 118.042 63.1839 118.433 62.9708C118.824 62.7577 119.112 62.4647 119.299 62.0918C119.49 61.7189 119.585 61.2905 119.585 60.8066C119.585 60.3227 119.49 59.8965 119.299 59.528C119.112 59.1595 118.822 58.8732 118.426 58.669C118.036 58.4603 117.532 58.356 116.915 58.356H114.651V69.9297H112.18ZM124.142 69.9297V59.7012H126.479V61.4059H126.586C126.772 60.8155 127.092 60.3604 127.545 60.0408C128.002 59.7167 128.523 59.5547 129.109 59.5547C129.243 59.5547 129.391 59.5613 129.556 59.5746C129.724 59.5835 129.864 59.5991 129.975 59.6212V61.8388C129.873 61.8032 129.711 61.7722 129.489 61.7455C129.272 61.7145 129.061 61.6989 128.856 61.6989C128.417 61.6989 128.022 61.7944 127.671 61.9853C127.325 62.1717 127.052 62.4314 126.852 62.7644C126.652 63.0974 126.552 63.4814 126.552 63.9164V69.9297H124.142ZM131.577 69.9297V59.7012H133.987V69.9297H131.577ZM132.789 58.2495C132.407 58.2495 132.078 58.1229 131.803 57.8699C131.528 57.6124 131.39 57.3038 131.39 56.9443C131.39 56.5802 131.528 56.2717 131.803 56.0186C132.078 55.7611 132.407 55.6324 132.789 55.6324C133.175 55.6324 133.503 55.7611 133.774 56.0186C134.049 56.2717 134.187 56.5802 134.187 56.9443C134.187 57.3038 134.049 57.6124 133.774 57.8699C133.503 58.1229 133.175 58.2495 132.789 58.2495ZM140.928 70.1295C139.907 70.1295 139.03 69.9053 138.297 69.4569C137.569 69.0085 137.008 68.3892 136.613 67.599C136.222 66.8043 136.027 65.8898 136.027 64.8554C136.027 63.8165 136.226 62.8998 136.626 62.1051C137.026 61.306 137.589 60.6845 138.317 60.2406C139.05 59.7922 139.916 59.568 140.915 59.568C141.745 59.568 142.479 59.7211 143.119 60.0275C143.762 60.3293 144.275 60.7578 144.657 61.3127C145.039 61.8632 145.256 62.5069 145.31 63.2439H143.006C142.912 62.7511 142.69 62.3404 142.34 62.0119C141.993 61.6789 141.529 61.5125 140.948 61.5125C140.455 61.5125 140.022 61.6456 139.649 61.912C139.276 62.1739 138.986 62.5513 138.777 63.0441C138.573 63.5369 138.471 64.1273 138.471 64.8154C138.471 65.5124 138.573 66.1117 138.777 66.6134C138.981 67.1106 139.268 67.4946 139.636 67.7654C140.009 68.0318 140.446 68.165 140.948 68.165C141.303 68.165 141.62 68.0984 141.9 67.9652C142.184 67.8276 142.422 67.63 142.613 67.3726C142.804 67.1151 142.935 66.8021 143.006 66.4336H145.31C145.252 67.1572 145.039 67.7987 144.67 68.3581C144.302 68.9131 143.8 69.3481 143.165 69.6633C142.531 69.9741 141.785 70.1295 140.928 70.1295ZM151.817 70.1295C150.792 70.1295 149.906 69.9164 149.16 69.4902C148.419 69.0596 147.848 68.4513 147.449 67.6656C147.049 66.8753 146.85 65.9453 146.85 64.8754C146.85 63.8232 147.049 62.8998 147.449 62.1051C147.853 61.306 148.417 60.6845 149.14 60.2406C149.864 59.7922 150.714 59.568 151.691 59.568C152.321 59.568 152.916 59.6701 153.475 59.8743C154.039 60.0741 154.536 60.3848 154.967 60.8066C155.402 61.2283 155.744 61.7655 155.993 62.4181C156.241 63.0663 156.366 63.8387 156.366 64.7355V65.4747H147.982V63.8498H154.055C154.05 63.3881 153.95 62.9775 153.755 62.6179C153.56 62.2539 153.287 61.9675 152.936 61.7589C152.59 61.5502 152.186 61.4459 151.724 61.4459C151.231 61.4459 150.798 61.5657 150.426 61.8055C150.053 62.0408 149.762 62.3515 149.553 62.7378C149.349 63.1195 149.245 63.5391 149.24 63.9963V65.4148C149.24 66.0096 149.349 66.5202 149.567 66.9464C149.784 67.3681 150.088 67.6922 150.479 67.9186C150.87 68.1406 151.327 68.2516 151.851 68.2516C152.201 68.2516 152.519 68.2027 152.803 68.1051C153.087 68.003 153.333 67.8542 153.542 67.6589C153.751 67.4636 153.908 67.2216 154.015 66.933L156.266 67.1861C156.124 67.781 155.853 68.3004 155.453 68.7444C155.058 69.1839 154.552 69.5257 153.935 69.7699C153.318 70.0096 152.612 70.1295 151.817 70.1295Z" fill="white"/>
<path fill-rule="evenodd" clip-rule="evenodd" d="M351.645 176.537C351.473 177.703 350.206 178.194 348.881 178.046C347.648 177.909 346.643 177.212 346.894 175.806C346.985 175.292 347.157 175.098 347.476 174.8C347.636 174.652 347.613 174.72 347.819 174.606C348.299 174.343 348.995 174.286 349.635 174.343C350.834 174.435 351.839 175.2 351.645 176.537ZM347.042 173.521C346.997 173.692 346.974 173.658 346.791 173.726C346.654 173.772 346.585 173.898 346.46 173.978C346.357 174.046 346.357 174 346.231 174.149C346.015 174.4 345.957 174.469 345.798 174.755L345.683 174.949C345.535 175.223 345.66 175.212 345.569 175.36C345.546 175.395 345.501 175.36 345.478 175.623C345.466 175.737 345.443 175.863 345.432 175.977C345.421 176.16 345.455 176.663 345.523 176.892L345.558 177.04C345.592 177.154 345.626 177.234 345.683 177.326L346.06 177.977C346.209 178.126 346.471 178.297 346.62 178.457C346.745 178.594 346.974 178.663 347.145 178.743L347.408 178.88C347.545 178.926 347.568 178.96 347.693 178.994C348.527 179.211 349.463 179.28 350.343 179.131C350.583 179.086 350.8 178.994 351.074 178.983C351.348 179.006 352.101 178.503 352.273 178.354C353.426 177.394 353.563 175.612 352.627 174.423C351.713 173.269 349.966 172.938 348.447 173.121C348.082 173.166 347.236 173.349 347.042 173.521ZM311.594 177.852L311.583 176.743C311.606 176.572 311.686 176.606 312.062 176.606C312.862 176.606 315.854 176.629 316.356 176.572C316.425 176.389 316.402 176.56 316.425 176.435C316.436 176.389 316.425 176.252 316.425 176.195C316.425 176.023 316.436 175.863 316.425 175.692C316.482 175.737 316.345 175.68 316.345 175.68C316.025 175.577 311.823 175.669 311.606 175.68C311.526 175.577 311.514 175.566 311.514 175.383C311.503 174.926 311.446 174.549 311.617 174.332C312.062 174.32 312.508 174.343 312.953 174.343C313.41 174.343 316.493 174.378 316.767 174.309C316.882 174.286 316.973 174.309 317.076 174.298C317.11 173.966 317.087 173.601 317.053 173.303L310.406 173.338C310.269 173.669 310.281 173.281 310.281 173.966C310.281 174.229 310.327 174.423 310.327 174.652C310.327 174.823 310.327 174.858 310.292 174.983C310.247 175.155 310.292 175.143 310.304 175.315C310.315 175.52 310.258 175.6 310.292 176.012C310.361 176.652 310.281 178.08 310.315 178.891C310.863 178.949 314.643 178.869 315.523 178.88C315.808 178.88 317.11 178.937 317.247 178.834C317.316 178.697 317.293 178.126 317.259 177.977C316.95 177.863 313.182 177.932 312.268 177.932H311.731C311.594 177.897 311.651 177.943 311.594 177.852ZM339.197 173.166C338.843 173.121 338.443 173.383 338.146 173.441C338.272 173.486 338.157 173.383 338.237 173.521L337.506 173.921C337.529 174.115 337.449 173.955 337.267 174.309C337.255 174.343 337.244 174.366 337.244 174.378C337.198 174.458 337.255 174.389 337.187 174.435C336.97 174.583 337.027 175.086 337.05 175.155L337.267 175.429C337.278 175.44 337.301 175.44 337.347 175.497C337.347 175.497 337.335 175.497 337.324 175.497C337.324 175.497 337.312 175.497 337.301 175.497L337.267 175.509C337.267 175.509 337.255 175.509 337.244 175.509L337.21 175.52C337.301 175.703 337.369 175.749 337.518 175.886L337.644 176C337.769 176.137 337.758 176.092 337.803 176.217L337.666 176.206C338.009 176.275 338.043 176.423 338.854 176.492C339.756 176.572 340.99 176.537 341.743 176.64C342.132 176.697 342.714 176.8 342.68 177.257C342.623 177.897 341.012 178.012 340.35 177.977C339.848 177.954 339.448 177.92 338.968 177.829C338.763 177.794 338.569 177.737 338.363 177.68C338.157 177.623 337.952 177.509 337.781 177.474C337.689 177.486 337.689 177.474 337.632 177.509L337.541 177.623C337.449 177.783 337.506 177.886 337.404 177.989C337.278 178.114 337.198 178.24 337.198 178.446C337.358 178.526 337.529 178.571 337.712 178.651C337.86 178.709 337.826 178.686 338.009 178.731C338.135 178.766 338.112 178.8 338.283 178.834L339.402 179.017C339.619 179.074 339.505 179.006 339.528 179.12C340.224 179.326 342.097 179.131 342.714 178.823C343.308 178.514 343.89 178.114 344.039 177.429C344.119 177.063 344.05 176.903 343.982 176.583C343.708 176.149 343.639 176.046 343.114 175.806C342.36 175.463 340.327 175.566 339.357 175.497C339.231 175.486 339.094 175.475 338.98 175.463C338.911 175.452 338.843 175.452 338.786 175.429L338.683 175.372C338.237 175.235 338.306 174.8 338.5 174.606C339.14 173.943 341.138 174.343 341.572 174.298C341.743 174.252 342.349 174.378 342.531 174.412C342.748 174.446 343.08 174.629 343.342 174.618C343.525 174.412 343.434 174.389 343.536 174.183C343.582 174.092 343.662 173.978 343.685 173.749C343.548 173.658 343.376 173.623 343.228 173.566L342.257 173.269C341.709 173.178 340.35 173.075 339.825 173.143C339.608 173.166 339.379 173.212 339.197 173.166ZM308.157 178.743C308.145 178.56 307.848 178.069 307.746 177.852C307.666 177.68 307.334 177.097 307.334 176.926C307.426 176.88 307.54 176.857 307.643 176.8C307.974 176.595 308.122 176.412 308.282 176.069C308.385 175.852 308.431 175.589 308.431 175.303C308.431 174.926 308.339 174.778 308.317 174.458C308.248 174.435 308.202 174.275 308.134 174.183C308.065 174.069 307.985 173.989 307.894 173.898C307.78 173.772 307.426 173.532 307.243 173.532C306.98 173.521 306.878 173.452 306.581 173.429C306.387 173.418 306.055 173.372 305.861 173.372C305.347 173.383 304.833 173.372 304.32 173.372C303.794 173.372 303.349 173.418 302.812 173.406C302.344 173.395 301.75 173.372 301.293 173.406C301.259 173.475 301.282 173.441 301.225 173.475V174.469C301.464 174.572 304.137 174.515 304.445 174.515H306.512C306.672 174.526 306.798 174.64 306.9 174.743C306.958 174.8 306.969 174.8 307.015 174.846C307.14 174.972 307.152 175.577 306.9 175.795C306.604 176.046 306.912 175.909 306.478 176C306.398 176.023 306.387 176.035 306.307 176.057H301.339C301.225 176.332 301.282 177.12 301.282 177.497C301.293 177.954 301.236 178.594 301.293 179.017C301.499 179.086 302.424 179.097 302.641 179.017C302.698 178.56 302.572 177.28 302.709 177.154C302.881 177.052 303.828 177.109 304.182 177.109L305.736 177.074C306.021 177.109 306.033 177.326 306.067 177.406C306.112 177.532 306.135 177.532 306.17 177.703L306.592 178.514C306.661 178.629 306.615 178.514 306.661 178.629C306.683 178.686 306.683 178.731 306.718 178.8C306.763 178.914 306.786 178.96 306.855 179.04H308.18L308.157 178.743ZM324.716 177.154C324.602 177.189 323.916 176.48 323.837 176.4C323.517 176.08 321.29 173.966 321.221 173.943L320.822 173.646C320.696 173.521 320.833 173.566 320.65 173.498C320.331 173.372 320.719 173.166 319.223 173.292C319.166 173.509 319.166 173.692 319.177 173.943C319.2 174.503 319.143 174.355 319.143 174.629C319.131 175.109 319.154 175.6 319.154 176.08C319.154 176.549 319.143 177.017 319.154 177.486V178.549C319.154 178.789 319.154 178.697 319.234 178.846C319.383 178.857 320.148 178.869 320.285 178.811C320.388 178.766 320.353 178.663 320.353 178.503L320.399 178.743C320.433 178.16 320.365 177.452 320.399 176.926L320.433 175.155C320.433 175.143 320.445 175.143 320.445 175.132C320.445 175.12 320.456 175.12 320.456 175.109C320.456 175.109 320.468 175.098 320.468 175.086V174.96C320.593 174.972 321.004 175.395 321.119 175.52C321.141 175.543 321.141 175.543 321.164 175.566C321.199 175.612 321.176 175.577 321.199 175.612C321.393 175.715 321.507 175.897 321.655 175.989C322.044 176.115 321.987 176.355 322.352 176.515C322.432 176.549 322.409 176.526 322.466 176.583L322.797 176.949C322.912 177.029 322.854 176.937 322.991 177.097C323.094 177.212 323.049 177.234 323.208 177.269C323.208 177.28 323.208 177.497 323.368 177.52C323.471 177.532 323.437 177.532 323.471 177.463C323.403 177.634 323.562 177.68 323.722 177.692C323.688 177.749 323.665 177.669 323.7 177.76C323.734 177.852 323.814 177.794 323.951 177.966L323.859 177.989C323.985 178.057 324.031 178.194 324.339 178.377C324.488 178.469 324.408 178.491 324.556 178.606C324.773 178.777 324.67 178.606 324.784 178.846C325.047 178.846 325.869 178.891 326.052 178.823L326.098 178.686C326.109 178.629 326.098 178.56 326.098 178.503C326.098 178.412 326.109 178.274 326.098 178.149C326.086 177.932 326.098 177.657 326.098 177.429C326.098 176.949 326.121 176.457 326.098 175.989C326.075 175.532 326.121 175.029 326.098 174.606L326.086 173.509C326.086 173.349 326.098 173.383 326.006 173.258H324.842C324.853 173.258 324.876 173.132 324.864 173.441C324.864 173.532 324.853 173.612 324.853 173.692L324.864 176.709C324.864 176.789 324.864 176.892 324.864 176.96C324.83 177.109 324.842 177.109 324.716 177.154ZM332.996 177.646C332.893 177.646 332.379 177.749 332.196 177.772C331.637 177.84 330.072 177.794 329.421 177.794L329.398 177.726C329.341 177.852 329.398 177.783 329.33 177.806L329.295 176.377C329.295 176.263 329.364 176.035 329.273 175.966C329.215 175.886 328.325 175.909 328.153 175.932C328.073 176.069 328.085 176.012 328.085 176.217C328.096 176.823 328.039 178.491 328.096 178.857C328.507 178.811 329.078 178.846 329.547 178.857C330.415 178.88 331.819 178.88 332.653 178.811C333.327 178.754 333.292 178.651 333.624 178.583C333.795 178.549 333.795 178.503 333.955 178.514C334.24 178.526 334.937 177.909 335.177 177.52C335.474 177.029 335.656 176.457 335.554 175.715C335.474 175.098 335.268 174.618 334.834 174.206C334.549 173.943 333.749 173.406 333.407 173.429C333.155 173.452 332.619 173.315 332.196 173.292C331.716 173.258 328.507 173.246 328.176 173.303C328.085 173.532 328.096 173.978 328.119 174.298C328.873 174.4 329.981 174.332 330.791 174.332C331.694 174.332 332.196 174.298 332.973 174.526C333.258 174.606 333.795 174.949 333.955 175.2C334.126 175.463 334.263 175.852 334.217 176.263C334.195 176.515 333.978 177.109 333.841 177.223C333.795 177.269 333.841 177.223 333.795 177.246C333.658 177.314 333.372 177.692 332.996 177.646ZM356.555 175.943L356.373 175.909V174.595C356.395 174.526 356.327 174.549 356.487 174.503L357.024 174.492C357.241 174.492 357.515 174.48 357.697 174.492C357.926 174.503 358.166 174.503 358.394 174.492C358.52 174.492 358.657 174.48 358.771 174.492C358.896 174.503 358.942 174.526 359.079 174.526C359.57 174.538 360.027 174.503 360.495 174.503C360.963 174.503 361.432 174.515 361.911 174.492C361.968 174.343 361.9 174.149 361.911 173.989C361.923 173.852 361.946 173.863 361.968 173.761C361.98 173.692 361.968 173.589 361.968 173.521C361.683 173.406 361.58 173.441 361.18 173.441C360.872 173.441 360.575 173.441 360.267 173.441C359.684 173.441 359.079 173.441 358.508 173.429C358.051 173.418 355.151 173.383 355.014 173.441C354.934 173.623 354.979 175.875 354.979 176.286C354.979 176.675 354.956 178.914 355.014 179.063C355.333 179.131 355.984 179.074 356.27 179.029C356.247 178.994 356.236 177.554 356.224 177.372C356.213 177.109 356.304 177.097 356.395 177.074C356.521 177.04 356.692 177.063 356.829 177.063C357.549 177.063 360.884 177.143 361.192 177.074C361.295 176.812 361.238 176.309 361.18 176.035C360.415 176.035 359.627 176.057 358.862 176.035L357.103 176C357.012 176 356.921 176 356.818 176C356.601 176.012 356.601 176 356.555 175.943ZM367.621 177.806C367.621 177.269 367.633 176.709 367.644 176.16C367.656 175.657 367.644 175.052 367.701 174.606C367.793 174.503 367.587 174.538 367.827 174.526C368.25 174.526 370.111 174.606 370.317 174.48C370.317 174.275 370.305 174.115 370.328 173.943C370.351 173.738 370.317 173.658 370.305 173.521C370.191 173.475 370.054 173.498 369.928 173.509L368.672 173.486C367.941 173.475 363.784 173.521 363.659 173.463C363.613 173.589 363.579 174.343 363.647 174.446C363.716 174.538 364.801 174.492 364.972 174.492C365.406 174.492 365.886 174.458 366.262 174.492C366.297 174.755 366.331 174.743 366.297 175.075C366.251 175.509 366.297 177.406 366.274 177.486C366.228 177.646 366.205 177.852 366.217 177.989C366.274 178.549 366.183 178.583 366.217 179.109C366.331 179.177 366.217 179.063 366.274 179.166C366.537 179.166 366.799 179.166 367.062 179.166C367.325 179.166 367.519 179.2 367.53 178.937L367.542 177.657C367.564 177.394 367.53 177.554 367.621 177.486V177.806ZM293.322 173.486C293.322 173.681 293.31 173.589 293.265 173.635L293.219 173.475C293.139 173.498 293.162 173.498 293.082 173.509V173.452C292.899 173.509 292.911 173.601 292.899 173.818C292.899 173.989 292.888 174.24 292.934 174.378H294.772C294.898 174.378 295.309 174.366 295.4 174.412C295.64 174.526 295.56 175.189 295.572 175.452L295.583 178.994C295.891 179.04 296.565 179.109 296.851 179.006C296.874 178.697 296.896 178.114 296.874 177.806C296.862 177.623 296.805 177.44 296.828 177.257V174.858C296.805 174.503 296.771 174.629 296.931 174.389L299.34 174.378C299.5 174.355 299.432 174.309 299.443 174.172C299.477 173.795 299.5 173.818 299.42 173.395L298.118 173.383C297.959 173.383 297.707 173.418 297.49 173.418L293.733 173.498C293.596 173.498 293.619 173.543 293.562 173.532C293.516 173.521 293.436 173.486 293.322 173.486ZM317.316 177.829L311.594 177.852C311.64 177.943 311.583 177.909 311.708 177.932H312.245C313.159 177.932 316.927 177.863 317.236 177.977C317.27 178.126 317.293 178.697 317.224 178.834C317.076 178.937 315.785 178.88 315.5 178.88C314.621 178.88 310.84 178.96 310.292 178.891C310.258 178.08 310.338 176.663 310.269 176.012C310.224 175.6 310.281 175.509 310.281 175.315C310.269 175.143 310.224 175.166 310.269 174.983C310.304 174.858 310.304 174.812 310.304 174.652C310.304 174.423 310.258 174.229 310.258 173.966C310.258 173.281 310.247 173.669 310.384 173.338L317.03 173.303C317.064 173.601 317.087 173.966 317.053 174.298C316.95 174.309 316.859 174.275 316.745 174.309C316.471 174.378 313.387 174.343 312.93 174.343C312.485 174.343 312.051 174.309 311.594 174.332C311.434 174.549 311.491 174.926 311.491 175.383C311.491 175.566 311.514 175.577 311.583 175.68C311.788 175.669 316.002 175.577 316.322 175.68C316.334 175.68 316.459 175.737 316.402 175.692C316.413 175.863 316.402 176.023 316.402 176.195C316.402 176.252 316.413 176.389 316.402 176.435C316.379 176.56 316.402 176.389 316.334 176.572C315.831 176.629 312.828 176.595 312.04 176.606C311.674 176.606 311.583 176.572 311.56 176.743C311.571 176.732 311.594 176.697 311.594 176.697C311.594 176.697 311.606 176.686 311.617 176.675C311.628 176.64 316.002 176.64 316.413 176.64C316.493 176.435 316.459 175.852 316.459 175.589L316.471 175.566H311.571C311.571 175.338 311.526 174.572 311.606 174.435C311.788 174.355 316.448 174.412 317.133 174.389C317.167 174.229 317.167 174.069 317.167 173.863V173.418C317.156 173.349 317.167 173.418 317.156 173.361L317.144 173.303C317.099 173.132 315.705 173.223 315.443 173.223C314.735 173.223 310.475 173.223 310.144 173.269V179.006L317.338 178.994C317.373 178.857 317.384 177.897 317.316 177.829ZM301.133 174.583C301.602 174.538 305.29 174.549 306.044 174.549C306.501 174.549 306.512 174.492 306.741 174.686C307.117 175.006 307.049 175.532 306.718 175.806C306.524 175.966 306.284 175.909 306.021 175.92C305.336 175.932 301.43 175.932 301.156 175.955L301.168 179.086C301.43 179.131 302.572 179.12 302.721 179.063V177.154H305.838C305.93 177.303 305.987 177.463 306.055 177.623C306.124 177.783 306.215 177.92 306.284 178.08C306.421 178.366 306.638 178.754 306.729 179.04C306.878 179.154 307.289 179.086 307.494 179.086C307.768 179.086 308.031 179.086 308.317 179.074C308.317 178.971 308.328 178.983 308.282 178.88C308.282 178.869 308.237 178.8 308.237 178.8C308.191 178.743 308.237 178.789 308.18 178.754L308.202 179.006H306.878C306.809 178.926 306.786 178.88 306.741 178.766C306.718 178.697 306.706 178.651 306.683 178.594C306.638 178.469 306.684 178.583 306.615 178.48L306.192 177.669C306.147 177.497 306.135 177.497 306.09 177.372C306.055 177.292 306.044 177.074 305.758 177.04L304.205 177.074C303.851 177.074 302.903 177.017 302.732 177.12C302.595 177.246 302.709 178.526 302.664 178.983C302.447 179.063 301.51 179.051 301.316 178.983C301.259 178.549 301.316 177.92 301.305 177.463C301.293 177.086 301.248 176.297 301.362 176.023H306.329C306.409 176 306.421 175.989 306.501 175.966C306.935 175.875 306.626 176.023 306.923 175.76C307.175 175.543 307.175 174.926 307.038 174.812C306.98 174.766 306.969 174.755 306.923 174.709C306.832 174.606 306.706 174.492 306.535 174.48H304.468C304.16 174.48 301.487 174.538 301.247 174.435V173.441C301.305 173.406 301.282 173.429 301.316 173.372C301.773 173.338 302.367 173.372 302.835 173.372C303.372 173.383 303.817 173.338 304.342 173.338C304.856 173.338 305.37 173.349 305.884 173.338C306.09 173.338 306.409 173.383 306.604 173.395C306.9 173.418 307.003 173.498 307.266 173.498C306.958 173.178 304.662 173.246 304.32 173.258C303.863 173.258 301.385 173.235 301.168 173.315C301.053 173.578 301.133 174.263 301.133 174.583ZM293.322 173.486C293.436 173.486 293.516 173.532 293.585 173.532C293.63 173.532 293.619 173.498 293.756 173.498L297.513 173.418C297.73 173.418 297.981 173.383 298.141 173.383L299.443 173.395C299.523 173.806 299.5 173.795 299.466 174.172C299.455 174.309 299.523 174.343 299.363 174.378L296.954 174.389C296.794 174.64 296.828 174.515 296.851 174.858V177.257C296.828 177.44 296.874 177.612 296.896 177.806C296.919 178.114 296.908 178.697 296.874 179.006C296.588 179.109 295.914 179.051 295.606 178.994L295.595 175.452C295.583 175.189 295.674 174.526 295.423 174.412C295.32 174.366 294.921 174.378 294.795 174.378H292.956C292.911 174.24 292.922 173.989 292.922 173.818C292.922 173.601 292.922 173.509 293.105 173.452V173.509C293.185 173.498 293.162 173.498 293.242 173.475L293.288 173.635C293.31 173.589 293.322 173.669 293.322 173.486ZM292.865 174.503C293.299 174.492 293.722 174.503 294.156 174.492C294.43 174.48 295.206 174.458 295.435 174.503C295.492 174.88 295.457 176.286 295.469 176.777C295.48 177.292 295.457 178.743 295.515 179.097C295.697 179.12 296.839 179.109 296.942 179.086L296.931 174.503C297.148 174.435 299.18 174.469 299.569 174.48C299.58 174.229 299.614 173.498 299.557 173.315C299.397 173.246 293.425 173.281 292.785 173.326V174.24C292.797 174.389 292.751 174.48 292.865 174.503ZM356.35 179.04C356.35 178.789 356.338 177.326 356.384 177.154C357.069 177.086 361.078 177.269 361.283 177.154L361.34 176.297C361.34 176.183 361.34 176.069 361.283 176.012C361.135 175.932 357.103 175.955 356.555 175.943C356.612 176 356.601 176.012 356.841 176.012C356.932 176.012 357.024 176.012 357.126 176.012L358.885 176.046C359.65 176.069 360.438 176.046 361.203 176.046C361.26 176.32 361.306 176.823 361.215 177.086C360.906 177.154 357.572 177.074 356.852 177.074C356.715 177.074 356.544 177.052 356.418 177.086C356.338 177.109 356.236 177.12 356.247 177.383C356.258 177.566 356.27 179.006 356.293 179.04C355.996 179.086 355.345 179.143 355.036 179.074C354.979 178.926 355.002 176.686 355.002 176.297C355.002 175.886 354.956 173.635 355.036 173.452C355.185 173.395 358.074 173.429 358.531 173.441C359.102 173.452 359.696 173.452 360.29 173.452C360.598 173.452 360.895 173.452 361.203 173.452C361.603 173.452 361.706 173.418 361.991 173.532C361.991 173.601 361.991 173.703 361.991 173.772C361.98 173.875 361.946 173.852 361.934 174C361.923 174.16 361.98 174.355 361.934 174.503C361.466 174.526 360.998 174.515 360.518 174.515C360.05 174.515 359.593 174.538 359.102 174.538C358.965 174.538 358.919 174.515 358.794 174.503C358.679 174.492 358.531 174.503 358.417 174.503C358.188 174.503 357.949 174.515 357.72 174.503C357.537 174.492 357.263 174.503 357.046 174.503L356.51 174.515C356.35 174.549 356.418 174.526 356.395 174.606C356.624 174.48 361.58 174.675 362.048 174.583L362.06 173.475L362.037 173.383L354.934 173.338L354.911 179.154C355.128 179.189 356.133 179.2 356.361 179.166L356.35 179.04ZM366.125 179.257C366.32 179.28 367.473 179.303 367.587 179.234L367.621 177.806V177.497C367.541 177.577 367.564 177.417 367.542 177.669L367.53 178.949C367.507 179.211 367.313 179.177 367.062 179.177C366.799 179.177 366.537 179.177 366.274 179.177C366.217 179.074 366.32 179.177 366.217 179.12C366.183 178.594 366.274 178.56 366.217 178C366.205 177.863 366.228 177.657 366.274 177.497C366.297 177.417 366.24 175.52 366.297 175.086C366.331 174.743 366.285 174.755 366.262 174.503C365.886 174.469 365.406 174.492 364.972 174.503C364.789 174.503 363.716 174.549 363.647 174.458C363.579 174.355 363.613 173.601 363.659 173.475C363.784 173.532 367.941 173.498 368.672 173.498L369.928 173.521C370.054 173.509 370.191 173.498 370.305 173.532C370.317 173.669 370.351 173.749 370.328 173.955C370.305 174.115 370.305 174.286 370.317 174.492C370.111 174.618 368.25 174.538 367.827 174.538C367.587 174.549 367.793 174.526 367.701 174.618C368.067 174.572 368.649 174.606 369.049 174.606C369.323 174.606 370.191 174.652 370.397 174.595C370.419 174.48 370.419 174.138 370.419 174C370.419 173.806 370.465 173.555 370.397 173.406C369.86 173.383 369.22 173.406 368.672 173.406L363.91 173.383C363.83 173.383 363.579 173.361 363.533 173.441C363.499 173.566 363.499 174.412 363.522 174.583C363.978 174.595 365.908 174.538 366.171 174.629L366.205 174.755C366.205 174.789 366.205 174.869 366.205 174.915C366.16 175.566 366.08 179.04 366.125 179.257ZM332.996 177.646C333.361 177.68 333.658 177.314 333.806 177.234C333.852 177.212 333.795 177.257 333.852 177.212C333.978 177.097 334.195 176.503 334.229 176.252C334.275 175.829 334.126 175.452 333.966 175.189C333.806 174.938 333.27 174.595 332.984 174.515C332.196 174.298 331.705 174.332 330.803 174.32C329.992 174.32 328.884 174.389 328.131 174.286C328.108 173.978 328.085 173.521 328.188 173.292C328.519 173.223 331.728 173.246 332.208 173.281C332.642 173.315 333.167 173.452 333.418 173.418L333.155 173.326C331.991 173.121 330.643 173.178 329.421 173.178C328.998 173.178 328.405 173.143 328.016 173.201V174.389C329.307 174.446 331.979 174.229 333.018 174.606C333.646 174.835 334.138 175.235 334.138 176.092C334.138 176.869 333.749 177.28 333.155 177.554C333.087 177.589 333.155 177.543 333.087 177.589C333.018 177.623 333.018 177.623 332.996 177.646ZM324.716 177.154C324.842 177.109 324.83 177.109 324.842 176.949C324.842 176.869 324.842 176.777 324.842 176.697L324.83 173.681C324.83 173.589 324.842 173.509 324.842 173.429C324.853 173.121 324.83 173.246 324.819 173.246H325.984C326.086 173.372 326.063 173.338 326.063 173.498L326.075 174.595C326.086 175.029 326.052 175.532 326.075 175.977C326.098 176.457 326.063 176.937 326.075 177.417C326.075 177.646 326.052 177.92 326.075 178.137C326.086 178.263 326.075 178.4 326.075 178.492C326.075 178.549 326.075 178.617 326.075 178.674L326.029 178.811C325.847 178.88 325.036 178.834 324.762 178.834C324.659 178.594 324.75 178.766 324.533 178.594C324.396 178.48 324.465 178.457 324.316 178.366C324.019 178.194 323.974 178.046 323.837 177.977L323.722 177.989L324.579 178.777C324.67 178.857 324.693 178.903 324.853 178.914C324.99 178.926 325.161 178.914 325.298 178.914C325.572 178.914 325.869 178.926 326.143 178.903C326.201 178.571 326.166 177.863 326.155 177.497C326.155 176.275 326.212 174.24 326.143 173.189L326.063 173.178H324.739L324.716 177.154ZM328.119 178.96C329.695 178.914 331.979 179.12 333.395 178.754C333.509 178.72 333.612 178.697 333.715 178.663C333.818 178.629 333.898 178.617 333.966 178.526C333.806 178.514 333.806 178.56 333.635 178.594C333.292 178.663 333.338 178.766 332.664 178.823C331.831 178.891 330.426 178.891 329.558 178.869C329.09 178.857 328.519 178.823 328.108 178.869C328.051 178.503 328.108 176.835 328.096 176.229C328.096 176.023 328.085 176.08 328.165 175.943C328.325 175.92 329.215 175.897 329.284 175.977C329.364 176.046 329.307 176.275 329.307 176.389L329.341 177.817C329.41 177.794 329.341 177.863 329.41 177.737L329.421 175.875C329.215 175.829 328.256 175.84 328.028 175.863V178.96H328.119ZM351.062 178.994C350.788 179.006 350.571 179.097 350.331 179.143C349.452 179.291 348.516 179.223 347.682 179.006C347.556 178.971 347.533 178.937 347.396 178.891L347.134 178.754C346.962 178.663 346.734 178.606 346.608 178.469C346.46 178.309 346.197 178.137 346.049 177.989L345.672 177.337C345.626 177.246 345.581 177.177 345.546 177.052L345.512 176.903C345.444 176.663 345.409 176.16 345.421 175.989C345.432 175.875 345.455 175.749 345.466 175.635C345.489 175.372 345.535 175.406 345.558 175.372C345.649 175.223 345.523 175.223 345.672 174.96L345.786 174.766C345.946 174.48 346.003 174.412 346.22 174.16C346.346 174.012 346.346 174.058 346.448 173.989C346.574 173.909 346.643 173.783 346.78 173.738C346.951 173.669 346.985 173.703 347.031 173.532L346.711 173.692C346.254 173.989 345.935 174.263 345.649 174.732C345.558 174.88 345.466 175.132 345.409 175.338C345.112 176.309 345.329 177.189 345.912 177.977C346.094 178.229 346.563 178.606 346.837 178.743C347.488 179.063 348.047 179.246 348.812 179.303C349.189 179.314 350.788 179.269 351.062 178.994ZM320.445 175.109C320.445 175.12 320.433 175.12 320.433 175.132C320.433 175.132 320.422 175.143 320.422 175.155C320.422 175.166 320.411 175.166 320.411 175.178L320.376 176.949C320.342 177.474 320.411 178.183 320.376 178.766L320.331 178.526C320.331 178.686 320.365 178.789 320.262 178.834C320.136 178.88 319.36 178.88 319.211 178.869C319.143 178.72 319.131 178.8 319.131 178.571V177.509C319.12 177.04 319.131 176.572 319.131 176.103C319.131 175.635 319.109 175.132 319.12 174.652C319.131 174.378 319.177 174.526 319.154 173.966C319.143 173.715 319.143 173.521 319.2 173.315C320.707 173.201 320.308 173.395 320.627 173.521C320.799 173.589 320.673 173.543 320.799 173.669L321.199 173.966C321.13 173.841 321.13 173.852 321.027 173.761L320.456 173.235C320.353 173.189 319.223 173.212 319.063 173.223L319.052 178.971H320.411C320.468 178.72 320.468 175.497 320.445 175.109ZM339.197 173.166C339.379 173.212 339.619 173.166 339.791 173.143C340.316 173.075 341.675 173.178 342.223 173.269L343.194 173.566C343.354 173.623 343.513 173.658 343.651 173.749C343.628 173.978 343.548 174.08 343.502 174.183C343.399 174.389 343.491 174.412 343.308 174.618C343.057 174.64 342.714 174.458 342.497 174.412C342.314 174.378 341.709 174.263 341.538 174.298L342.417 174.503L342.588 174.56L343.342 174.8C343.399 174.732 343.753 173.841 343.776 173.726C343.239 173.418 342.371 173.223 341.675 173.121C341.264 173.063 339.448 172.949 339.197 173.166ZM337.655 176.217L337.792 176.229C337.746 176.103 337.758 176.149 337.632 176.012L337.506 175.897C337.358 175.772 337.29 175.715 337.198 175.532L337.232 175.52C337.232 175.52 337.244 175.52 337.255 175.52L337.289 175.509C337.289 175.509 337.301 175.509 337.312 175.509C337.312 175.509 337.324 175.509 337.335 175.509C337.29 175.452 337.267 175.452 337.255 175.44L337.038 175.166C337.015 175.098 336.958 174.583 337.175 174.446C337.244 174.4 337.187 174.469 337.232 174.389C337.244 174.378 337.244 174.355 337.255 174.32C337.438 173.966 337.529 174.126 337.495 173.932L338.226 173.532C338.146 173.395 338.26 173.509 338.135 173.452L338.02 173.486C337.998 173.521 338.043 173.486 337.952 173.543C337.929 173.555 337.883 173.578 337.849 173.601C337.781 173.635 337.723 173.669 337.666 173.703C336.753 174.286 336.616 175.269 337.278 175.955C337.438 176.08 337.484 176.092 337.655 176.217ZM323.186 177.532L323.243 177.566L323.254 177.577L323.722 178L323.837 177.989L323.928 177.966C323.802 177.783 323.711 177.84 323.677 177.76C323.642 177.669 323.665 177.749 323.7 177.692C323.551 177.68 323.391 177.634 323.448 177.463C323.414 177.532 323.448 177.532 323.345 177.52C323.186 177.509 323.186 177.28 323.186 177.269C323.014 177.234 323.06 177.212 322.969 177.097C322.832 176.937 322.889 177.04 322.774 176.949L322.443 176.583C322.386 176.526 322.409 176.549 322.329 176.515C321.964 176.355 322.021 176.115 321.632 175.989L322.809 177.132C322.912 177.257 323.14 177.452 323.186 177.532ZM337.472 177.509C337.347 177.772 337.095 178.229 337.05 178.469C337.427 178.651 337.689 178.777 338.157 178.88C338.614 178.983 339.025 179.04 339.505 179.131C339.471 179.017 339.585 179.086 339.379 179.029L338.26 178.846C338.089 178.811 338.1 178.777 337.986 178.743C337.803 178.697 337.838 178.72 337.689 178.663C337.506 178.594 337.335 178.537 337.175 178.457C337.175 178.252 337.255 178.126 337.381 178C337.484 177.897 337.427 177.794 337.518 177.634L337.609 177.52C337.678 177.486 337.678 177.497 337.758 177.486C337.689 177.406 337.712 177.44 337.598 177.394L337.506 177.383L337.472 177.509Z" fill="#C22328"/>
<path d="M306.855 184.844V182.205H305.873V181.85H308.237V182.205H307.255V184.844H306.855ZM308.66 184.844V181.862H310.818V182.216H309.059V183.13H310.704V183.485H309.059V184.502H310.886V184.856L308.66 184.844ZM313.547 183.793L313.947 183.896C313.867 184.216 313.719 184.467 313.502 184.639C313.285 184.81 313.022 184.89 312.714 184.89C312.394 184.89 312.131 184.822 311.926 184.696C311.72 184.57 311.572 184.376 311.469 184.124C311.366 183.873 311.309 183.61 311.309 183.325C311.309 183.016 311.366 182.742 311.492 182.513C311.606 182.285 311.777 182.102 311.994 181.988C312.211 181.862 312.451 181.805 312.714 181.805C313.011 181.805 313.262 181.885 313.467 182.033C313.673 182.182 313.81 182.399 313.89 182.673L313.502 182.765C313.433 182.547 313.33 182.387 313.205 182.296C313.079 182.193 312.908 182.148 312.714 182.148C312.485 182.148 312.291 182.205 312.143 182.307C311.994 182.422 311.88 182.57 311.823 182.753C311.766 182.936 311.732 183.13 311.732 183.325C311.732 183.576 311.766 183.805 311.846 183.987C311.914 184.182 312.029 184.319 312.188 184.41C312.348 184.502 312.508 184.547 312.691 184.547C312.908 184.547 313.102 184.479 313.25 184.353C313.387 184.239 313.49 184.044 313.547 183.793ZM314.45 184.844V181.862H314.849V183.096H316.391V181.862H316.791V184.844H316.391V183.439H314.849V184.844H314.45ZM317.442 184.844V181.862H317.853L319.417 184.204V181.862H319.794V184.844H319.395L317.83 182.502V184.844H317.442ZM320.331 183.393C320.331 182.902 320.468 182.513 320.731 182.227C320.993 181.942 321.336 181.805 321.758 181.805C322.033 181.805 322.284 181.873 322.501 181.999C322.718 182.125 322.889 182.319 323.003 182.547C323.117 182.787 323.175 183.05 323.175 183.347C323.175 183.645 323.117 183.919 322.992 184.159C322.866 184.399 322.695 184.582 322.478 184.696C322.25 184.822 322.01 184.879 321.758 184.879C321.473 184.879 321.222 184.81 321.005 184.673C320.788 184.536 320.616 184.353 320.502 184.113C320.388 183.873 320.331 183.656 320.331 183.393ZM320.731 183.393C320.731 183.747 320.822 184.033 321.016 184.239C321.21 184.444 321.45 184.547 321.747 184.547C322.044 184.547 322.284 184.444 322.478 184.239C322.672 184.033 322.763 183.736 322.763 183.347C322.763 183.107 322.718 182.89 322.638 182.707C322.558 182.525 322.432 182.387 322.284 182.285C322.124 182.182 321.953 182.136 321.747 182.136C321.473 182.136 321.233 182.228 321.028 182.422C320.833 182.627 320.731 182.947 320.731 183.393ZM323.666 184.844V181.862H324.065V184.502H325.527V184.856L323.666 184.844ZM325.881 183.393C325.881 182.902 326.018 182.513 326.281 182.227C326.544 181.942 326.886 181.805 327.309 181.805C327.583 181.805 327.834 181.873 328.051 181.999C328.268 182.125 328.439 182.319 328.553 182.547C328.668 182.787 328.725 183.05 328.725 183.347C328.725 183.645 328.668 183.919 328.542 184.159C328.416 184.399 328.245 184.582 328.028 184.696C327.8 184.822 327.56 184.879 327.309 184.879C327.023 184.879 326.772 184.81 326.555 184.673C326.338 184.536 326.167 184.353 326.052 184.113C325.938 183.896 325.881 183.656 325.881 183.393ZM326.292 183.393C326.292 183.747 326.384 184.033 326.578 184.239C326.772 184.444 327.012 184.547 327.309 184.547C327.606 184.547 327.845 184.444 328.04 184.239C328.234 184.033 328.325 183.736 328.325 183.347C328.325 183.107 328.279 182.89 328.199 182.707C328.119 182.525 327.994 182.387 327.845 182.285C327.686 182.182 327.514 182.136 327.309 182.136C327.035 182.136 326.795 182.228 326.589 182.422C326.395 182.627 326.292 182.947 326.292 183.393ZM330.643 183.667V183.313H331.911V184.422C331.717 184.57 331.523 184.696 331.317 184.776C331.112 184.856 330.895 184.89 330.678 184.89C330.381 184.89 330.118 184.833 329.878 184.707C329.638 184.582 329.456 184.399 329.341 184.159C329.216 183.919 329.159 183.656 329.159 183.359C329.159 183.073 329.216 182.799 329.341 182.547C329.467 182.296 329.638 182.113 329.867 181.988C330.095 181.862 330.358 181.805 330.655 181.805C330.872 181.805 331.066 181.839 331.237 181.908C331.409 181.976 331.546 182.079 331.648 182.193C331.751 182.319 331.82 182.479 331.877 182.685L331.523 182.776C331.477 182.627 331.42 182.502 331.351 182.422C331.283 182.33 331.192 182.262 331.066 182.216C330.94 182.159 330.803 182.136 330.655 182.136C330.472 182.136 330.324 182.159 330.187 182.216C330.061 182.273 329.947 182.342 329.867 182.433C329.787 182.525 329.73 182.616 329.684 182.73C329.604 182.913 329.57 183.119 329.57 183.336C329.57 183.599 329.616 183.827 329.707 184.01C329.798 184.193 329.935 184.319 330.107 184.41C330.278 184.502 330.472 184.536 330.666 184.536C330.837 184.536 331.009 184.502 331.169 184.433C331.329 184.364 331.454 184.296 331.534 184.216V183.656H330.643V183.667ZM332.551 184.844V181.862H332.95V184.844H332.551ZM333.647 184.844V181.862H335.805V182.216H334.047V183.13H335.691V183.485H334.047V184.502H335.874V184.856L333.647 184.844ZM336.285 183.884L336.65 183.85C336.673 183.999 336.707 184.124 336.776 184.216C336.844 184.307 336.936 184.387 337.073 184.444C337.21 184.502 337.358 184.536 337.53 184.536C337.678 184.536 337.815 184.513 337.929 184.467C338.044 184.422 338.135 184.364 338.181 184.284C338.238 184.204 338.261 184.124 338.261 184.033C338.261 183.942 338.238 183.862 338.181 183.793C338.124 183.725 338.032 183.667 337.907 183.622C337.827 183.587 337.655 183.542 337.381 183.473C337.107 183.405 336.913 183.347 336.81 183.29C336.673 183.21 336.559 183.119 336.49 183.016C336.422 182.902 336.388 182.776 336.388 182.639C336.388 182.49 336.433 182.342 336.513 182.216C336.593 182.09 336.719 181.988 336.89 181.919C337.05 181.85 337.233 181.816 337.438 181.816C337.655 181.816 337.849 181.85 338.021 181.919C338.192 181.988 338.318 182.09 338.409 182.239C338.5 182.376 338.546 182.536 338.558 182.707L338.181 182.742C338.158 182.559 338.089 182.41 337.975 182.319C337.861 182.228 337.69 182.17 337.45 182.17C337.21 182.17 337.039 182.216 336.924 182.296C336.81 182.387 336.765 182.49 336.765 182.616C336.765 182.719 336.799 182.81 336.879 182.879C336.959 182.947 337.153 183.016 337.473 183.096C337.792 183.165 338.009 183.233 338.135 183.29C338.306 183.37 338.432 183.473 338.523 183.599C338.603 183.725 338.649 183.862 338.649 184.022C338.649 184.182 338.603 184.33 338.512 184.467C338.42 184.604 338.295 184.719 338.124 184.799C337.952 184.879 337.758 184.913 337.553 184.913C337.278 184.913 337.061 184.879 336.879 184.799C336.696 184.719 336.559 184.604 336.456 184.444C336.353 184.262 336.296 184.079 336.285 183.884ZM340.35 184.844V181.862H341.481C341.675 181.862 341.835 181.873 341.938 181.896C342.086 181.919 342.212 181.965 342.303 182.033C342.406 182.102 342.486 182.193 342.543 182.319C342.6 182.445 342.634 182.582 342.634 182.73C342.634 182.982 342.555 183.199 342.395 183.37C342.235 183.542 341.938 183.633 341.515 183.633H340.75V184.844H340.35ZM340.75 183.279H341.515C341.767 183.279 341.949 183.233 342.063 183.142C342.166 183.05 342.223 182.913 342.223 182.742C342.223 182.616 342.189 182.513 342.132 182.422C342.064 182.33 341.984 182.273 341.881 182.25C341.812 182.228 341.687 182.227 341.515 182.227H340.75V183.279ZM343.982 184.844L342.829 181.862H343.251L344.028 184.033C344.085 184.204 344.142 184.364 344.188 184.524C344.233 184.364 344.29 184.193 344.348 184.033L345.147 181.862H345.547L344.382 184.844H343.982ZM346.666 184.844V182.205H345.684V181.85H348.048V182.205H347.066V184.844H346.666ZM348.048 184.844V184.433H348.459V184.844H348.048ZM350.286 184.844V181.862H350.686V184.502H352.147V184.856L350.286 184.844ZM353.073 184.844V182.205H352.09V181.85H354.454V182.205H353.472V184.844H353.073ZM354.854 184.844V181.862H355.882C356.11 181.862 356.293 181.873 356.407 181.908C356.579 181.942 356.727 182.022 356.841 182.125C357.001 182.262 357.115 182.422 357.195 182.639C357.275 182.845 357.309 183.085 357.309 183.347C357.309 183.576 357.287 183.77 357.229 183.953C357.172 184.124 357.104 184.273 357.024 184.387C356.944 184.502 356.853 184.593 356.75 184.662C356.647 184.73 356.533 184.776 356.396 184.81C356.259 184.844 356.099 184.856 355.916 184.856L354.854 184.844ZM355.254 184.49H355.893C356.087 184.49 356.247 184.467 356.35 184.433C356.464 184.399 356.556 184.342 356.613 184.273C356.704 184.182 356.784 184.056 356.83 183.896C356.887 183.736 356.91 183.542 356.91 183.325C356.91 183.016 356.853 182.776 356.761 182.605C356.658 182.433 356.533 182.319 356.384 182.262C356.282 182.216 356.11 182.205 355.87 182.205H355.242L355.254 184.49Z" fill="#5A9EDF"/>
<path fill-rule="evenodd" clip-rule="evenodd" d="M320.525 150.538C326.463 150.538 332.39 150.538 338.329 150.538V149.029H339.322V147.349H340.088V146.344L320.548 146.481C316.197 147.098 314.609 151.166 315.843 154.286C316.573 152.389 318.001 151.029 320.525 150.538Z" fill="url(#paint7_linear_342_128)"/>
<path fill-rule="evenodd" clip-rule="evenodd" d="M326.349 158.988C326.486 156.451 325.001 154.68 321.335 153.972C318.88 153.754 318.914 151.412 320.536 150.555C318.001 151.046 316.584 152.406 315.854 154.291C316.607 156.188 318.4 157.743 321.255 157.937C322.135 158.017 322.489 158.52 322.432 159.331C322.466 161.445 322.614 163.571 322.648 165.685C323.596 168.222 325.755 169.981 328.598 169.821C329.044 169.787 329.466 169.719 329.855 169.604C328.073 168.747 326.406 166.736 326.543 164.93C326.543 164.919 326.531 164.919 326.531 164.908C326.463 162.931 326.406 160.954 326.349 158.988Z" fill="url(#paint8_linear_342_128)"/>
<path fill-rule="evenodd" clip-rule="evenodd" d="M339.448 153.87C332.378 153.138 329.957 154.955 329.706 158.829C329.695 160.658 329.683 162.486 329.672 164.315C329.546 166.132 326.977 166.234 326.531 164.92C326.394 166.737 328.062 168.748 329.843 169.594C331.568 169.08 332.732 167.766 333.395 165.674C333.463 163.652 333.532 161.641 333.612 159.618C333.349 158.269 334.286 157.789 335.873 157.641C338.1 157.481 339.253 156.178 339.448 153.87Z" fill="url(#paint9_linear_342_128)"/>
<path d="M340.236 149.672H339.186V150.792H340.236V149.672Z" fill="#C22328"/>
<path d="M341.115 148.062H340.064V149.182H341.115V148.062Z" fill="#C22328"/>
<path d="M342.509 149.43H341.606V150.39H342.509V149.43Z" fill="#C22328"/>
<path d="M344.21 148.883H343.536V149.591H344.21V148.883Z" fill="#C22328"/>
<path d="M343.228 147.625H342.326V148.585H343.228V147.625Z" fill="#C22328"/>
<path d="M341.801 146.312H340.75V147.432H341.801V146.312Z" fill="#C22328"/>
<path d="M343.65 145.719H342.748V146.679H343.65V145.719Z" fill="#C22328"/>
<path d="M345.089 147.258H344.358V148.035H345.089V147.258Z" fill="#C22328"/>
<path d="M346.323 146.461H345.592V147.238H346.323V146.461Z" fill="#C22328"/>
<path d="M345.661 145.109H344.93V145.886H345.661V145.109Z" fill="#C22328"/>
<path d="M347.408 144.484H346.677V145.261H347.408V144.484Z" fill="#C22328"/>
<path opacity="0.8" d="M78.3257 273.066C86.1529 273.066 92.4981 266.717 92.4981 258.885C92.4981 251.052 86.1529 244.703 78.3257 244.703C70.4985 244.703 64.1533 251.052 64.1533 258.885C64.1533 266.717 70.4985 273.066 78.3257 273.066Z" fill="#0072F1"/>
<path opacity="0.8" d="M78.3257 226.191C86.1529 226.191 92.4981 219.842 92.4981 212.01C92.4981 204.177 86.1529 197.828 78.3257 197.828C70.4985 197.828 64.1533 204.177 64.1533 212.01C64.1533 219.842 70.4985 226.191 78.3257 226.191Z" fill="#0072F1"/>
<path opacity="0.8" d="M78.3257 178.355C86.1529 178.355 92.4981 172.006 92.4981 164.174C92.4981 156.341 86.1529 149.992 78.3257 149.992C70.4985 149.992 64.1533 156.341 64.1533 164.174C64.1533 172.006 70.4985 178.355 78.3257 178.355Z" fill="#0072F1"/>
<path opacity="0.8" d="M78.3257 130.347C86.1529 130.347 92.4981 123.998 92.4981 116.166C92.4981 108.334 86.1529 101.984 78.3257 101.984C70.4985 101.984 64.1533 108.334 64.1533 116.166C64.1533 123.998 70.4985 130.347 78.3257 130.347Z" fill="#0072F1"/>
<path opacity="0.8" d="M78.3257 83.8161C86.1529 83.8161 92.4981 77.4669 92.4981 69.6346C92.4981 61.8024 86.1529 55.4531 78.3257 55.4531C70.4985 55.4531 64.1533 61.8024 64.1533 69.6346C64.1533 77.4669 70.4985 83.8161 78.3257 83.8161Z" fill="#0072F1"/>
<path d="M422.575 325.945C422.575 325.945 420.76 332.859 418.967 334.459C417.619 335.659 414.958 338.573 411.544 340.618C410.493 341.247 406.199 342.389 405.879 343.144C405.274 344.584 406.37 346.161 407.923 346.161H438.758L438.541 327.419L422.575 325.945Z" fill="#666666" stroke="#263238" stroke-miterlimit="10" stroke-linecap="round" stroke-linejoin="round"/>
<path opacity="0.8" d="M473.246 168.375L473.554 191.356L474.308 256.595C474.308 256.595 473.931 276.868 473.177 280.182C472.424 283.495 473.931 325.96 473.931 325.96L458.445 327.434L452.781 266.183L444.09 205.366L439.556 267.28L438.609 327.948L422.575 325.96L421.41 277.61C421.41 277.61 415.745 233.02 415.745 218.267C415.745 203.526 415.745 182.145 415.745 182.145L414.638 169.186L473.246 168.375Z" fill="#0058A8"/>
<path d="M473.932 325.945C473.932 325.945 475.748 332.859 477.541 334.459C478.888 335.659 481.549 338.573 484.964 340.618C486.014 341.247 490.308 342.389 490.628 343.144C491.233 344.584 490.137 346.161 488.584 346.161H458.218L458.435 327.419L473.932 325.945Z" fill="#666666" stroke="#263238" stroke-miterlimit="10" stroke-linecap="round" stroke-linejoin="round"/>
<path d="M359.878 72.931C360.655 72.2339 361.866 72.3939 362.505 73.2167L366.765 78.7362L364.298 73.7881C363.784 72.771 364.058 71.4797 365.017 70.8626C365.326 70.6684 365.714 70.5312 366.171 70.5312C367.998 70.5312 370.419 76.9078 370.419 76.9078L375.581 85.1127L377.1 83.5929C377.1 83.5929 374.668 78.4276 375.581 76.9078C376.495 75.3879 379.224 74.7823 379.224 76.9078C379.224 79.0333 381.348 81.1588 381.954 82.6787C382.559 84.1985 378.916 96.0488 378.916 96.0488L398.045 118.527C398.045 118.527 405.936 89.3637 407.763 88.4495C409.59 87.5353 432.054 83.2843 432.054 83.2843H440.836H454.803C454.803 83.2843 477.266 87.5353 479.093 88.4495C480.921 89.3637 488.812 118.527 488.812 118.527L507.918 96.0602C507.918 96.0602 504.275 84.2099 504.88 82.6901C505.485 81.1702 507.61 79.0447 507.61 76.9192C507.61 74.7937 510.339 75.3994 511.253 76.9192C512.166 78.4391 509.734 83.6043 509.734 83.6043L511.253 85.1241L516.414 76.9192C516.414 76.9192 518.847 70.5427 520.663 70.5427C521.12 70.5427 521.496 70.6798 521.816 70.8741C522.776 71.4797 523.038 72.7825 522.536 73.7995L520.069 78.7476L524.329 73.2281C524.968 72.4053 526.179 72.2454 526.955 72.9424C527.424 73.3653 527.778 73.9709 527.652 74.8051C527.344 76.9306 525.105 81.0445 525.105 81.0445C525.105 81.0445 527.96 85.4441 527.047 86.964C526.133 88.4838 524.009 90.9179 524.009 90.9179C524.009 90.9179 525.528 92.1292 521.885 96.3916C518.242 100.643 515.809 101.557 515.809 101.557C515.809 101.557 505.485 124.64 501.237 131.028C496.989 137.405 486.06 144.09 484.541 144.09C483.17 144.09 474.674 131.291 472.995 128.743C472.824 133.965 474.914 163.197 474.32 165.859C474.263 166.111 474.183 166.374 474.103 166.636L473.966 169.87C473.966 169.87 473.966 171.539 471.625 172.213C470.38 172.567 456.573 172.544 443.417 172.442C430.261 172.544 416.454 172.567 415.209 172.213C412.868 171.55 412.868 169.87 412.868 169.87L412.731 166.636C412.651 166.374 412.571 166.122 412.514 165.859C411.92 163.197 414.01 133.965 413.839 128.743C412.16 131.303 403.663 144.09 402.293 144.09C400.774 144.09 389.845 137.405 385.597 131.028C381.348 124.652 371.025 101.557 371.025 101.557C371.025 101.557 368.592 100.643 364.949 96.3916C361.306 92.1406 362.825 90.9179 362.825 90.9179C362.825 90.9179 360.701 88.4838 359.787 86.964C358.873 85.4441 361.728 81.0445 361.728 81.0445C361.728 81.0445 359.49 76.9421 359.182 74.8051C359.056 73.9595 359.41 73.3538 359.878 72.931Z" fill="white" stroke="#263238" stroke-miterlimit="10" stroke-linecap="round" stroke-linejoin="round"/>
<path d="M382.033 99.741L398.033 118.539C398.033 118.539 405.924 89.3763 407.752 88.4621C409.579 87.5479 432.042 83.2969 432.042 83.2969H440.824H454.791C454.791 83.2969 477.255 87.5479 479.082 88.4621C480.909 89.3763 488.8 118.539 488.8 118.539L504.846 99.6839C507.781 102.575 511.983 103.638 514.69 104.026C511.903 110.174 504.64 125.899 501.248 130.995C497 137.372 486.071 144.057 484.552 144.057C483.182 144.057 474.685 131.258 473.006 128.71C472.835 133.932 474.925 163.164 474.331 165.826C474.274 166.078 474.194 166.34 474.114 166.603L473.977 169.837C473.977 169.837 473.977 171.506 471.636 172.18C470.391 172.534 456.584 172.511 443.428 172.408C430.272 172.511 416.465 172.534 415.22 172.18C412.879 171.517 412.879 169.837 412.879 169.837L412.742 166.603C412.662 166.34 412.582 166.089 412.525 165.826C411.931 163.164 414.021 133.932 413.85 128.71C412.171 131.269 403.675 144.057 402.304 144.057C400.785 144.057 389.856 137.372 385.608 130.995C382.662 126.573 376.814 114.151 373.491 106.929C378.402 105.592 381.314 101.032 382.033 99.741Z" fill="white" stroke="#263238" stroke-miterlimit="10" stroke-linecap="round" stroke-linejoin="round"/>
<path d="M472.995 128.712L474.057 110.062L477.015 134.186L472.995 128.712Z" fill="#263238" stroke="#263238" stroke-miterlimit="10" stroke-linecap="round" stroke-linejoin="round"/>
<path d="M413.827 128.708L413.964 111.133L410.321 133.245L413.827 128.708Z" fill="#263238" stroke="#263238" stroke-miterlimit="10" stroke-linecap="round" stroke-linejoin="round"/>
<path d="M382.034 99.7422L386.316 104.77C385.517 107.821 383.199 112.278 376.541 113.512C375.41 111.113 374.348 108.838 373.469 106.919C378.402 105.593 381.314 101.033 382.034 99.7422Z" fill="white" stroke="#263238" stroke-miterlimit="10" stroke-linecap="round" stroke-linejoin="round"/>
<path d="M526.133 82.3925C526.133 82.3925 521.279 77.5358 519.452 79.9584C517.625 82.3925 522.181 86.0378 522.181 86.0378L520.354 88.1633" fill="white"/>
<path d="M526.133 82.3925C526.133 82.3925 521.279 77.5358 519.452 79.9584C517.625 82.3925 522.181 86.0378 522.181 86.0378L520.354 88.1633" stroke="#263238" stroke-miterlimit="10" stroke-linecap="round" stroke-linejoin="round"/>
<path d="M524.009 90.8919C524.009 90.8919 520.366 86.6409 517.933 87.2466C515.501 87.8522 519.144 92.7203 519.144 92.7203C519.144 92.7203 515.192 92.4118 512.463 96.0572" fill="white"/>
<path d="M524.009 90.8919C524.009 90.8919 520.366 86.6409 517.933 87.2466C515.501 87.8522 519.144 92.7203 519.144 92.7203C519.144 92.7203 515.192 92.4118 512.463 96.0572" stroke="#263238" stroke-miterlimit="10" stroke-linecap="round" stroke-linejoin="round"/>
<path d="M360.689 82.3925C360.689 82.3925 365.543 77.5358 367.37 79.9584C369.197 82.3925 364.641 86.0378 364.641 86.0378L366.468 88.1633" fill="white"/>
<path d="M360.689 82.3925C360.689 82.3925 365.543 77.5358 367.37 79.9584C369.197 82.3925 364.641 86.0378 364.641 86.0378L366.468 88.1633" stroke="#263238" stroke-miterlimit="10" stroke-linecap="round" stroke-linejoin="round"/>
<path d="M362.813 90.8919C362.813 90.8919 366.457 86.6409 368.889 87.2466C371.321 87.8522 367.678 92.7203 367.678 92.7203C367.678 92.7203 371.63 92.4118 374.359 96.0572" fill="white"/>
<path d="M362.813 90.8919C362.813 90.8919 366.457 86.6409 368.889 87.2466C371.321 87.8522 367.678 92.7203 367.678 92.7203C367.678 92.7203 371.63 92.4118 374.359 96.0572" stroke="#263238" stroke-miterlimit="10" stroke-linecap="round" stroke-linejoin="round"/>
<path d="M512.28 109.244C509.402 108.925 505.553 107.622 501.248 103.885L504.823 99.6797C507.758 102.571 511.96 103.634 514.667 104.022C514.061 105.371 513.239 107.188 512.28 109.244Z" fill="white" stroke="#263238" stroke-miterlimit="10" stroke-linecap="round" stroke-linejoin="round"/>
<path opacity="0.8" d="M445.952 97.9554L439.191 106.503L445.849 161.435L436.599 170.337L429.027 161.744L436.348 106.857L429.587 94.7443L440.619 87.625L445.952 97.9554Z" fill="#0072F1"/>
<path d="M449.778 76.3129L453.421 78.1413L457.52 84.9749L450.234 104.116L437.706 96.1395L424.276 104.802C424.276 104.802 424.276 85.2034 425.418 82.9294C426.56 80.6553 431.106 75.8672 431.106 75.8672L449.778 76.3129Z" fill="white" stroke="#263238" stroke-miterlimit="10" stroke-linecap="round" stroke-linejoin="round"/>
<path d="M451.286 67.5729L450.007 81.5487C450.007 81.5487 441.807 95.9016 438.849 97.2729C435.891 98.6442 431.106 85.4226 430.193 83.3771C429.279 81.3316 428.822 74.4865 428.822 74.4865C428.822 74.4865 437.022 74.258 441.122 71.5268C445.222 68.7957 450.909 65.8359 450.909 65.8359L451.286 67.5729Z" fill="white" stroke="#263238" stroke-miterlimit="10" stroke-linecap="round" stroke-linejoin="round"/>
<path d="M450.92 65.8359L451.285 67.5843L450.006 81.5602C450.006 81.5602 449.595 82.2801 448.932 83.4C440.676 82.5086 432.864 79.686 429.176 78.1776C428.947 76.2121 428.833 74.498 428.833 74.498C428.833 74.498 437.033 74.2694 441.133 71.5382C445.232 68.8071 450.92 65.8359 450.92 65.8359Z" fill="#263238" stroke="#263238" stroke-miterlimit="10" stroke-linecap="round" stroke-linejoin="round"/>
<path d="M452.153 53.1838C452.153 53.1838 453.466 49.4699 456.721 51.4469C459.976 53.4238 459.051 57.6291 457.703 59.6175C456.355 61.6059 454.06 63.1943 452.678 63.4572C451.285 63.7314 452.153 53.1838 452.153 53.1838Z" fill="white" stroke="#263238" stroke-miterlimit="10" stroke-linecap="round" stroke-linejoin="round"/>
<path d="M448.738 28.7636C448.738 28.7636 456.378 29.8949 456.949 36.9799C457.52 44.065 453.558 62.4746 451.285 67.5713C449.024 72.6679 447.037 74.085 442.514 77.4903C437.98 80.8843 429.21 79.193 426.949 77.2047C424.687 75.2163 422.141 69.8454 421.57 60.4977C420.999 51.15 420.999 46.899 421.284 41.2309C421.57 35.5629 425.533 31.0376 425.533 31.0376C425.533 31.0376 424.402 27.358 430.911 25.941C437.409 24.524 445.05 27.358 448.738 28.7636Z" fill="white" stroke="#263238" stroke-miterlimit="10" stroke-linecap="round" stroke-linejoin="round"/>
<path d="M423.82 67.5712C423.82 67.5712 423.82 67.5712 423.82 66.7256C423.82 65.8799 427.497 63.0459 430.9 62.4746C434.292 61.9032 439.397 63.3202 441.372 64.4629C443.359 65.5943 443.919 68.4283 443.919 68.4283C443.919 68.4283 446.466 68.4283 447.882 66.4399C449.298 64.4515 451.274 51.9956 450.714 51.1385C450.143 50.2929 447.037 46.3275 447.322 44.9105C447.608 43.4935 449.024 42.9221 449.309 40.6595C449.595 38.3968 445.632 36.1228 445.632 36.1228C443.085 34.1344 436.861 36.6941 432.899 36.4085C428.936 36.1228 426.663 34.3401 426.663 34.3401L424.859 36.2485L423.911 39.1053C423.911 39.1053 423.42 39.9738 422.289 41.1052C421.41 41.9851 421.752 41.5737 421.25 42.305C421.261 41.9508 421.284 41.5965 421.296 41.2309C421.581 35.5628 425.544 31.0375 425.544 31.0375C425.544 31.0375 424.413 27.3579 430.923 25.9409C437.432 24.5239 445.072 27.3579 448.761 28.7749C448.761 28.7749 456.401 29.9062 456.972 36.9913C457.543 44.0763 453.58 62.486 451.308 67.5826C449.047 72.6793 447.06 74.0963 442.537 77.5017C438.003 80.8957 429.233 79.2044 426.971 77.216C425.27 75.719 423.397 72.3022 422.346 66.7027L423.82 67.5712Z" fill="#263238" stroke="#263238" stroke-miterlimit="10" stroke-linecap="round" stroke-linejoin="round"/>
<path d="M429.484 49.4501L428.148 48.2845C428.148 48.2845 425.875 46.4561 422.232 49.1987" stroke="#263238" stroke-width="2" stroke-miterlimit="10" stroke-linecap="round" stroke-linejoin="round"/>
<path d="M436.279 60.2142C436.279 60.2142 435.434 62.2026 433.732 62.2026C432.03 62.2026 429.198 61.3569 429.198 61.3569L429.769 51.1636L429.484 49.4609" stroke="#263238" stroke-miterlimit="10" stroke-linecap="round" stroke-linejoin="round"/>
<path d="M437.718 65.7578C437.718 65.7578 436.301 69.0261 434.451 69.3118C432.601 69.5974 431.322 66.9006 431.322 66.9006C431.322 66.9006 435.022 66.8891 437.718 65.7578Z" fill="white"/>
<path d="M429.77 66.7268C429.77 66.7268 435.023 67.1725 438.711 64.8984" stroke="#263238" stroke-miterlimit="10" stroke-linecap="round" stroke-linejoin="round"/>
<path d="M435.902 52.1109C435.902 53.1851 436.462 54.0422 437.159 54.0422C437.855 54.0422 438.415 53.1737 438.415 52.1109C438.415 51.0368 437.855 50.1797 437.159 50.1797C436.462 50.1797 435.902 51.0368 435.902 52.1109Z" fill="#263238"/>
<path d="M423.831 52.1109C423.831 53.1851 424.391 54.0422 425.087 54.0422C425.784 54.0422 426.344 53.1737 426.344 52.1109C426.344 51.0368 425.784 50.1797 425.087 50.1797C424.391 50.1797 423.831 51.0368 423.831 52.1109Z" fill="#263238"/>
<path d="M442.948 49.1936C442.948 49.1936 439.99 47.3652 435.662 48.2794" stroke="#263238" stroke-width="2" stroke-miterlimit="10" stroke-linecap="round" stroke-linejoin="round"/>
<path d="M25.1761 314.061C25.1761 314.061 22.6294 307.388 19.6602 304.154C17.536 301.834 14.2013 299.971 11.7232 298.166C6.74398 294.532 0.49716 295.366 0.0289338 295.732C-0.439292 296.097 4.8825 302.68 8.2286 304.542C9.98731 305.525 10.741 305.194 14.9893 309.548C18.5524 313.193 23.0634 314.027 25.1761 314.061Z" fill="#3C8A59"/>
<path d="M11.2204 302.306C12.8535 303.209 14.4066 304.294 15.9026 305.414C19.2488 307.905 22.3436 310.774 24.9017 314.087C26.5577 316.236 27.9509 318.578 28.933 321.104C29.1043 321.538 29.7553 321.207 29.584 320.773C26.6033 313.162 20.1395 307.14 13.3902 302.786C12.8078 302.409 12.2254 302.043 11.6201 301.712C11.2204 301.472 10.8093 302.077 11.2204 302.306Z" fill="#55A261"/>
<path d="M30.0869 313.083C30.0869 313.083 25.8272 306.238 21.4647 302.627C17.1136 299.027 17.5476 297.976 15.9373 294.056C14.3271 290.136 10.4442 287.531 9.33648 283.851C8.24015 280.172 7.56636 272.481 7.52068 270.881C7.475 269.281 16.554 276.275 18.4383 281.303C20.494 286.788 22.995 288.857 25.3133 293.359C27.6316 297.873 28.6137 306.352 30.0869 313.083Z" fill="#1D7256"/>
<path d="M15.2633 283.048C16.588 284.842 17.7072 286.831 18.7807 288.773C21.9669 294.51 24.6278 300.532 26.9918 306.646C28.9674 311.777 30.7147 316.988 32.2679 322.256C32.4049 322.701 33.0787 322.427 32.9417 321.982C30.4064 313.434 27.4029 305.012 23.6799 296.91C21.7157 292.636 19.5687 288.408 17.0562 284.431C16.6679 283.814 16.2682 283.197 15.8457 282.614C15.5716 282.237 14.9778 282.671 15.2633 283.048Z" fill="#55A261"/>
<path d="M30.8402 297.456C30.8402 297.456 31.7196 283.252 29.5383 279.572C27.3571 275.904 27.5398 276.612 26.3178 272.704C25.0845 268.796 23.5313 266.008 17.6271 263.859C17.6271 263.859 16.6107 267.071 18.6206 271.402C20.6306 275.733 21.2701 276.51 21.6241 280.201C21.9896 283.915 24.6391 293.651 30.8402 297.456Z" fill="#3C8A59"/>
<path d="M23.4861 274.074C24.6738 276.817 25.8044 280.131 26.7523 283.125C29.0249 290.301 30.7493 297.695 31.6972 305.168C32.3253 310.116 32.5994 315.099 32.3938 320.081C32.371 320.55 33.1019 320.55 33.1247 320.081C33.4787 311.419 32.4052 302.734 30.5209 294.289C29.1962 288.37 27.4831 282.519 25.359 276.84C24.9707 275.788 24.5596 274.737 24.1142 273.708C23.9315 273.274 23.3034 273.651 23.4861 274.074Z" fill="#1D7256"/>
<path d="M33.7981 289.401C33.7981 289.401 32.0166 281.459 28.8532 276.534C25.6898 271.609 26.5692 270.774 26.4207 266.523C26.2722 262.272 23.2116 258.444 23.5086 254.593C23.8055 250.742 26.1352 243.28 26.7176 241.76C27.3 240.24 34.095 250.022 34.095 255.416C34.095 261.301 35.9108 264.124 36.5618 269.175C37.2127 274.237 34.9059 282.545 33.7981 289.401Z" fill="#55A261"/>
<path d="M28.8647 256.674C29.7783 260.959 30.4635 265.29 31.0916 269.621C32.5534 279.586 33.5355 289.642 33.8324 299.71C34.0266 306.212 33.9238 312.726 33.3642 319.205C33.3185 319.673 34.0609 319.673 34.0951 319.205C35.0658 307.892 34.689 296.476 33.6726 285.174C32.9417 277.06 31.8568 268.97 30.4178 260.936C30.1552 259.451 29.8811 257.965 29.5613 256.479C29.4699 256.022 28.7733 256.217 28.8647 256.674Z" fill="#1D7256"/>
<path d="M36.893 299.363C36.893 299.363 35.3741 291.74 36.2306 287.032C36.8473 283.661 38.8344 280.016 40.0678 276.908C42.546 270.668 48.7814 267.8 49.4209 267.868C50.0604 267.937 48.9755 277.09 46.977 280.759C45.9263 282.678 45.0355 282.816 43.6537 289.306C42.5003 294.723 38.8116 298.117 36.893 299.363Z" fill="#1D7256"/>
<path d="M45.0472 272.58C43.4141 275.071 42.2264 277.917 41.1529 280.671C38.3664 287.87 36.779 295.538 36.208 303.229C35.7512 309.32 35.9567 315.445 36.7105 321.49C36.7676 321.947 37.4985 321.958 37.4414 321.49C36.208 311.639 36.4592 301.595 38.572 291.881C39.7939 286.236 41.6097 280.648 44.2364 275.494C44.6817 274.626 45.1385 273.746 45.6753 272.934C45.938 272.557 45.2984 272.192 45.0472 272.58Z" fill="#55A261"/>
<path d="M42.6145 305.639C42.6145 305.639 41.7465 295.126 44.8528 290.943C47.9591 286.761 47.6279 287.618 49.6835 282.967C51.7506 278.316 53.9889 275.127 61.058 273.539C61.058 273.539 61.6633 277.744 58.6484 282.772C55.6335 287.801 54.7655 288.658 53.7377 293.217C52.6985 297.777 50.3117 302.039 42.6145 305.639Z" fill="#3C8A59"/>
<path d="M56.3643 278.097C54.3315 280.383 52.607 283 51.0196 285.594C47.2281 291.799 44.3046 298.575 42.5116 305.638C41.2211 310.711 40.5245 315.934 40.4902 321.179C40.4902 321.647 41.2211 321.647 41.2211 321.179C41.2896 312.425 43.2311 303.763 46.6457 295.718C48.8498 290.53 51.6363 285.559 54.9938 281.023C55.5991 280.2 56.2158 279.389 56.8896 278.623C57.1865 278.269 56.6726 277.754 56.3643 278.097Z" fill="#55A261"/>
<path d="M44.2705 314.064C44.2705 314.064 46.3376 309.481 49.0556 304.396C51.7621 299.311 53.2239 299.494 55.8962 298.568C58.5685 297.631 59.5849 296.237 62.3029 294.454C65.0209 292.672 71.3934 295.483 73.2549 295.848C73.2549 295.848 72.0672 301.139 67.305 303.962C62.5428 306.785 58.9111 306.876 55.8848 309.401C52.8699 311.927 46.3718 311.618 44.2705 314.064Z" fill="#3C8A59"/>
<path d="M64.1648 298.302C61.8465 299.056 59.5968 300.153 57.4726 301.341C53.0873 303.787 49.0103 306.986 46.0753 311.089C44.1795 313.74 42.8434 316.768 42.2495 319.991C42.1696 320.448 42.8662 320.654 42.9576 320.185C44.7734 310.369 53.3613 303.615 62.0863 299.89C62.8401 299.57 63.5938 299.262 64.3704 299.01C64.8043 298.862 64.6216 298.153 64.1648 298.302Z" fill="#1D7256"/>
<path d="M11.8828 316.18L14.8064 333.778C14.8064 341.046 20.7563 347 28.0195 347H42.5916C49.8548 347 55.8047 341.046 55.8047 333.778L59.4592 316.18H11.8828Z" fill="#0058A8"/>
<path opacity="0.1" d="M48.9525 316.18L45.2981 333.778C45.2981 341.046 39.3482 347 32.085 347H42.5915C49.8547 347 55.8046 341.046 55.8046 333.778L59.4591 316.18H48.9525Z" fill="#4F2882"/>
<path d="M61.3666 315.445H9.9873V319.982H61.3666V315.445Z" fill="#0058A8"/>
<path d="M505.805 321.519C505.805 321.519 503.829 316.365 501.534 313.862C499.889 312.068 497.32 310.628 495.401 309.234C491.553 306.423 486.722 307.063 486.356 307.348C486.002 307.634 490.114 312.719 492.695 314.171C494.054 314.925 494.636 314.674 497.925 318.045C500.689 320.856 504.183 321.496 505.805 321.519Z" fill="#3C8A59"/>
<path d="M495.024 312.432C496.292 313.129 497.48 313.975 498.645 314.832C501.225 316.763 503.624 318.98 505.599 321.54C506.878 323.197 507.952 325.014 508.717 326.956C508.854 327.299 509.357 327.036 509.22 326.705C506.913 320.82 501.911 316.169 496.703 312.798C496.258 312.512 495.801 312.226 495.333 311.963C495.024 311.781 494.705 312.249 495.024 312.432Z" fill="#55A261"/>
<path d="M509.608 320.769C509.608 320.769 506.307 315.478 502.95 312.69C499.581 309.902 499.923 309.09 498.679 306.062C497.434 303.034 494.43 301.011 493.574 298.166C492.717 295.32 492.203 289.367 492.169 288.132C492.135 286.898 499.158 292.303 500.609 296.189C502.196 300.428 504.137 302.028 505.919 305.514C507.712 309.01 508.466 315.558 509.608 320.769Z" fill="#1D7256"/>
<path d="M498.153 297.552C499.181 298.946 500.037 300.477 500.871 301.974C503.326 306.408 505.393 311.059 507.22 315.79C508.751 319.755 510.098 323.789 511.297 327.858C511.4 328.2 511.925 327.995 511.823 327.652C509.87 321.047 507.54 314.533 504.662 308.259C503.143 304.957 501.487 301.689 499.535 298.615C499.238 298.135 498.929 297.666 498.598 297.209C498.381 296.923 497.936 297.266 498.153 297.552Z" fill="#55A261"/>
<path d="M510.19 308.686C510.19 308.686 510.875 297.704 509.185 294.858C507.495 292.024 507.643 292.573 506.695 289.545C505.747 286.528 504.537 284.368 499.98 282.711C499.98 282.711 499.192 285.191 500.745 288.539C502.298 291.887 502.79 292.481 503.075 295.35C503.361 298.218 505.405 305.737 510.19 308.686Z" fill="#3C8A59"/>
<path d="M504.503 290.605C505.416 292.719 506.296 295.29 507.027 297.61C508.785 303.164 510.122 308.866 510.852 314.648C511.332 318.477 511.549 322.328 511.389 326.179C511.378 326.544 511.937 326.544 511.949 326.179C512.223 319.482 511.389 312.763 509.939 306.238C508.922 301.655 507.598 297.141 505.953 292.742C505.645 291.93 505.337 291.119 504.994 290.319C504.845 289.988 504.366 290.274 504.503 290.605Z" fill="#1D7256"/>
<path d="M512.486 302.461C512.486 302.461 511.104 296.325 508.66 292.508C506.216 288.703 506.89 288.051 506.776 284.772C506.662 281.481 504.298 278.521 504.526 275.55C504.755 272.579 506.559 266.796 507.004 265.631C507.45 264.454 512.703 272.019 512.703 276.19C512.703 280.738 514.108 282.92 514.61 286.829C515.124 290.737 513.331 297.159 512.486 302.461Z" fill="#55A261"/>
<path d="M508.672 277.164C509.38 280.478 509.905 283.826 510.396 287.175C511.527 294.877 512.281 302.659 512.509 310.441C512.658 315.469 512.578 320.509 512.144 325.514C512.109 325.88 512.68 325.88 512.703 325.514C513.457 316.76 513.172 307.938 512.372 299.196C511.801 292.923 510.967 286.66 509.86 280.455C509.654 279.301 509.449 278.158 509.197 277.016C509.14 276.65 508.592 276.799 508.672 277.164Z" fill="#1D7256"/>
<path d="M514.872 310.173C514.872 310.173 513.696 304.276 514.359 300.642C514.838 298.037 516.368 295.214 517.328 292.815C519.246 287.992 524.066 285.775 524.568 285.821C525.059 285.867 524.226 292.952 522.684 295.786C521.873 297.271 521.188 297.386 520.114 302.391C519.201 306.573 516.357 309.202 514.872 310.173Z" fill="#1D7256"/>
<path d="M521.176 289.453C519.92 291.373 518.995 293.578 518.173 295.715C516.014 301.28 514.792 307.211 514.347 313.153C513.993 317.861 514.153 322.592 514.735 327.278C514.781 327.632 515.341 327.643 515.295 327.278C514.347 319.667 514.541 311.896 516.174 304.388C517.122 300.023 518.515 295.704 520.56 291.727C520.902 291.053 521.256 290.378 521.667 289.75C521.861 289.43 521.37 289.144 521.176 289.453Z" fill="#55A261"/>
<path d="M519.303 315.019C519.303 315.019 518.629 306.883 521.027 303.649C523.426 300.415 523.174 301.078 524.762 297.478C526.361 293.879 528.097 291.41 533.555 290.188C533.555 290.188 534.024 293.444 531.694 297.33C529.364 301.215 528.69 301.878 527.891 305.409C527.092 308.929 525.253 312.231 519.303 315.019Z" fill="#3C8A59"/>
<path d="M529.924 293.733C528.348 295.492 527.023 297.515 525.79 299.526C522.855 304.326 520.594 309.571 519.212 315.022C518.218 318.942 517.682 322.987 517.647 327.032C517.647 327.398 518.207 327.398 518.207 327.032C518.264 320.267 519.76 313.571 522.398 307.343C524.1 303.332 526.258 299.481 528.851 295.984C529.319 295.355 529.799 294.715 530.324 294.133C530.564 293.858 530.164 293.458 529.924 293.733Z" fill="#55A261"/>
<path d="M520.582 321.522C520.582 321.522 522.181 317.98 524.282 314.049C526.383 310.118 527.503 310.266 529.57 309.535C531.637 308.815 532.425 307.729 534.526 306.358C536.627 304.987 541.549 307.147 543 307.444C543 307.444 542.075 311.535 538.397 313.717C534.72 315.9 531.911 315.969 529.57 317.923C527.229 319.877 522.204 319.637 520.582 321.522Z" fill="#3C8A59"/>
<path d="M535.965 309.344C534.172 309.926 532.436 310.772 530.792 311.698C527.4 313.583 524.248 316.063 521.975 319.24C520.502 321.297 519.474 323.639 519.018 326.119C518.949 326.473 519.497 326.622 519.566 326.268C520.97 318.68 527.617 313.458 534.355 310.578C534.937 310.326 535.52 310.086 536.125 309.892C536.456 309.778 536.308 309.229 535.965 309.344Z" fill="#1D7256"/>
<path d="M495.539 323.164L497.8 336.774C497.8 342.397 502.403 346.99 508.01 346.99H519.27C524.889 346.99 529.48 342.385 529.48 336.774L532.312 323.164H495.539Z" fill="#0058A8"/>
<path opacity="0.1" d="M524.192 323.164L521.36 336.774C521.36 342.397 516.758 346.99 511.15 346.99H519.27C524.889 346.99 529.48 342.385 529.48 336.774L532.312 323.164H524.192Z" fill="#4F2882"/>
<path d="M533.796 322.594H494.065V326.102H533.796V322.594Z" fill="#0058A8"/>
<defs>
<filter id="filter0_d_342_128" x="275.396" y="113.891" width="108.441" height="109.508" filterUnits="userSpaceOnUse" color-interpolation-filters="sRGB">
<feFlood flood-opacity="0" result="BackgroundImageFix"/>
<feColorMatrix in="SourceAlpha" type="matrix" values="0 0 0 0 0 0 0 0 0 0 0 0 0 0 0 0 0 0 127 0" result="hardAlpha"/>
<feOffset dx="-6" dy="7"/>
<feGaussianBlur stdDeviation="2"/>
<feComposite in2="hardAlpha" operator="out"/>
<feColorMatrix type="matrix" values="0 0 0 0 0 0 0 0 0 0 0 0 0 0 0 0 0 0 0.25 0"/>
<feBlend mode="normal" in2="BackgroundImageFix" result="effect1_dropShadow_342_128"/>
<feBlend mode="normal" in="SourceGraphic" in2="effect1_dropShadow_342_128" result="shape"/>
</filter>
<linearGradient id="paint0_linear_342_128" x1="368.583" y1="129.164" x2="301.379" y2="196.325" gradientUnits="userSpaceOnUse">
<stop stop-color="#E0DFE4"/>
<stop offset="0.8446" stop-color="white"/>
</linearGradient>
<linearGradient id="paint1_linear_342_128" x1="369.404" y1="128.332" x2="299.784" y2="197.907" gradientUnits="userSpaceOnUse">
<stop stop-color="white"/>
<stop offset="1" stop-color="#E4E4E4"/>
</linearGradient>
<linearGradient id="paint2_linear_342_128" x1="91.7575" y1="245.443" x2="65.1804" y2="272.003" gradientUnits="userSpaceOnUse">
<stop stop-color="#E0DFE4"/>
<stop offset="0.8446" stop-color="white"/>
</linearGradient>
<linearGradient id="paint3_linear_342_128" x1="91.755" y1="198.57" x2="65.1779" y2="225.13" gradientUnits="userSpaceOnUse">
<stop stop-color="#E0DFE4"/>
<stop offset="0.8446" stop-color="white"/>
</linearGradient>
<linearGradient id="paint4_linear_342_128" x1="91.7542" y1="150.735" x2="65.1771" y2="177.295" gradientUnits="userSpaceOnUse">
<stop stop-color="#E0DFE4"/>
<stop offset="0.8446" stop-color="white"/>
</linearGradient>
<linearGradient id="paint5_linear_342_128" x1="91.7574" y1="102.724" x2="65.1803" y2="129.284" gradientUnits="userSpaceOnUse">
<stop stop-color="#E0DFE4"/>
<stop offset="0.8446" stop-color="white"/>
</linearGradient>
<linearGradient id="paint6_linear_342_128" x1="91.7596" y1="56.1908" x2="65.1825" y2="82.7509" gradientUnits="userSpaceOnUse">
<stop stop-color="#E0DFE4"/>
<stop offset="0.8446" stop-color="white"/>
</linearGradient>
<linearGradient id="paint7_linear_342_128" x1="328.126" y1="142.829" x2="327.604" y2="152.64" gradientUnits="userSpaceOnUse">
<stop stop-color="#3A3481"/>
<stop offset="1" stop-color="#5A9EDF"/>
</linearGradient>
<linearGradient id="paint8_linear_342_128" x1="314.363" y1="148.785" x2="332.736" y2="172.153" gradientUnits="userSpaceOnUse">
<stop stop-color="#C22328"/>
<stop offset="0.549" stop-color="#D47424"/>
<stop offset="1" stop-color="#F0CA30"/>
</linearGradient>
<linearGradient id="paint9_linear_342_128" x1="323.46" y1="176.725" x2="339.752" y2="146.662" gradientUnits="userSpaceOnUse">
<stop stop-color="#3A3481"/>
<stop offset="1" stop-color="#4F8BCE"/>
</linearGradient>
</defs>
</svg>
