<svg width="649" height="343" viewBox="0 0 649 343" fill="none" xmlns="http://www.w3.org/2000/svg">
<g clip-path="url(#clip0_246_666)">
<path d="M641.919 341.255H9.56543C31.6886 165.516 13.787 206.868 344.613 22.6179C507.658 -68.1793 657 141.5 641.919 341.255Z" fill="#C0E1FF"/>
<path d="M636.097 257.111C636.097 257.111 623.225 281.112 622.06 299.13C622.06 299.13 610.028 267.156 586.351 252.805C586.351 252.805 586.687 288.916 596.206 305.066C596.206 305.066 584.003 290.276 551.697 284.576C551.697 284.576 566.652 315.838 582.232 322.692C582.232 322.692 570.092 319.635 543.307 322.936C543.307 322.936 572.002 341.164 586.351 341.258H647.817L636.097 257.111Z" fill="#9FD1FF"/>
<path d="M34.3073 238.148C34.3073 238.148 47.7145 268.589 42.1102 293.931C42.1102 293.931 58.0151 278.669 84.2863 272.15C84.2863 272.15 73.9122 305.11 50.548 313.452C50.548 313.452 60.9957 303.659 96.4787 307.941C96.4787 307.941 83.8849 326.413 59.5762 326.93C59.5762 326.93 96.4499 326.104 106.525 341.269H0.264648L34.3073 238.148Z" fill="#9FD1FF"/>
<path d="M402.54 319.843C403.593 320.004 404.67 319.922 405.687 319.603C406.704 319.283 407.635 318.736 408.408 318.001C409.18 317.266 409.775 316.365 410.145 315.365C410.515 314.365 410.652 313.294 410.545 312.233L402.537 234.097L388.267 231.914L396.644 313.658C396.804 315.196 397.469 316.638 398.536 317.757C399.603 318.876 401.011 319.61 402.54 319.843Z" fill="#153B5E"/>
<path d="M442.682 342.143C448.058 342.531 450.574 335.551 449.299 333.386L417.29 218.328H403.012L436.049 337.107C436.452 338.556 437.319 339.834 438.517 340.743C439.715 341.653 441.178 342.144 442.682 342.143Z" fill="#153B5E"/>
<path d="M317.576 342.143C316.516 342.143 315.469 341.898 314.519 341.426C313.57 340.955 312.741 340.27 312.1 339.425C311.458 338.581 311.021 337.599 310.822 336.557C310.622 335.516 310.667 334.442 310.951 333.42L342.96 218.328H357.236L324.201 337.107C323.798 338.555 322.932 339.831 321.736 340.74C320.54 341.65 319.079 342.142 317.576 342.143Z" fill="#153B5E"/>
<path d="M272.254 180.386C285.278 57.1174 495.096 40.1205 484.864 181.604C471.84 304.868 262.019 321.864 272.254 180.386Z" fill="#3F9CEF"/>
<path d="M360.696 272.802C490.62 275.544 533.901 79.094 385.698 71.1768C255.777 68.4372 212.496 264.887 360.696 272.802Z" fill="#69B3F7"/>
<path d="M363.444 250.639C464.808 252.778 498.565 99.512 382.951 93.3347C281.602 91.196 247.822 244.462 363.444 250.639Z" fill="white"/>
<path d="M366.193 228.477C438.998 230.015 463.252 119.93 380.204 115.492C307.398 113.965 283.145 224.042 366.193 228.477Z" fill="#69B3F7"/>
<path d="M368.94 206.323C413.186 207.257 427.926 140.353 377.454 137.658C333.21 136.724 318.47 203.628 368.94 206.323Z" fill="white"/>
<path d="M360.363 171.911C359.114 188.998 384.478 186.943 386.033 172.058C387.282 154.972 361.919 157.024 360.363 171.911Z" fill="#69B3F7"/>
<path d="M17.1006 339.863C18.1973 339.485 63.2018 324.682 96.7879 301.025L96.578 300.726C65.0279 323.047 21.9256 337.855 17.6621 339.301C18.9739 335.16 31.9114 294.666 46.3838 267.923L46.0637 267.75C30.6599 296.348 17.439 338.805 17.1006 339.863Z" fill="#00A83C"/>
<path d="M31.4684 334.433C31.4684 334.433 29.296 320.551 39.6019 312.859C39.5914 312.859 43.2515 326.075 31.4684 334.433Z" fill="#00A83C"/>
<path d="M19.0895 333.554C19.0895 333.554 10.2818 322.606 15.3718 310.805C15.3718 310.805 25.132 320.43 19.0895 333.554Z" fill="#00A83C"/>
<path d="M22.5088 325.179C22.5088 325.179 32.8672 315.682 44.9704 320.001C44.9704 320.001 35.992 330.364 22.5088 325.179Z" fill="#00A83C"/>
<path d="M26.7617 311.828C26.7617 311.828 35.4987 303.822 45.7311 307.467C45.7311 307.467 38.146 316.218 26.7617 311.828Z" fill="#00A83C"/>
<path d="M25.2814 316.696C25.2814 316.696 15.8361 309.519 17.5992 298.812C17.5992 298.813 27.5615 304.712 25.2814 316.696Z" fill="#00A83C"/>
<path d="M30.5133 303.172C30.5133 303.172 22.7523 297.275 24.2006 288.477C24.2164 288.49 32.3945 293.337 30.5133 303.172Z" fill="#00A83C"/>
<path d="M34.7949 291.781C34.7949 291.781 28.317 286.861 29.5265 279.516C29.5265 279.516 36.3586 283.562 34.7949 291.781Z" fill="#00A83C"/>
<path d="M47.4045 284.6C47.4045 284.6 42.5506 289.363 36.6289 287.471C36.6289 287.471 40.8006 282.314 47.4045 284.6Z" fill="#00A83C"/>
<path d="M37.1248 273.266C37.1248 273.266 40.8715 277.659 38.922 282.566C38.922 282.566 34.8002 278.727 37.1248 273.266Z" fill="#00A83C"/>
<path d="M40.8584 278.678C40.8584 278.678 44.2692 275.033 48.6744 276.235C48.6744 276.235 45.7752 280.151 40.8584 278.678Z" fill="#00A83C"/>
<path d="M42.1707 275.56C42.1707 275.56 39.5155 272.264 41.0452 268.711C41.0452 268.711 43.9863 271.608 42.1707 275.56Z" fill="#00A83C"/>
<path d="M45.1143 269.712C45.1143 269.712 44.852 265.487 48.1395 263.461C48.1395 263.461 48.8794 267.526 45.1143 269.712Z" fill="#00A83C"/>
<path d="M45.0227 294.022C45.0227 294.022 39.589 300.359 32.1455 298.672C32.1455 298.672 36.7029 291.923 45.0227 294.022Z" fill="#00A83C"/>
<path d="M43.4144 329.809C43.4144 329.809 41.5017 317.578 50.5719 310.805C50.5719 310.805 53.7938 322.446 43.4144 329.809Z" fill="#00A83C"/>
<path d="M37.626 331.845C37.626 331.845 48.9473 326.833 57.8285 333.844C57.8338 333.844 47.4229 339.969 37.626 331.845Z" fill="#00A83C"/>
<path d="M52.8145 325.411C52.8145 325.411 64.4821 321.275 72.8124 328.943C72.8124 328.943 61.966 334.257 52.8145 325.411Z" fill="#00A83C"/>
<path d="M65.0967 319.477C65.0967 319.477 74.891 316.627 81.3794 323.329C81.3794 323.329 72.2043 327.189 65.0967 319.477Z" fill="#00A83C"/>
<path d="M76.4277 313.435C76.4277 313.435 84.1388 311.191 89.2472 316.468C89.2577 316.468 82.0346 319.505 76.4277 313.435Z" fill="#00A83C"/>
<path d="M86.4561 307.687C86.4561 307.687 91.9265 306.097 95.5472 309.839C95.5472 309.839 90.4257 311.994 86.4561 307.687Z" fill="#00A83C"/>
<path d="M56.4877 324.183C56.4877 324.183 54.8321 313.607 62.6744 307.75C62.677 307.75 65.4634 317.816 56.4877 324.183Z" fill="#00A83C"/>
<path d="M68.4753 318.055C68.4753 318.055 67.069 309.059 73.7385 304.078C73.7385 304.078 76.1077 312.638 68.4753 318.055Z" fill="#00A83C"/>
<path d="M80.9853 311.065C80.9853 311.065 79.9857 304.668 84.7294 301.125C84.7294 301.125 86.4164 307.213 80.9853 311.065Z" fill="#00A83C"/>
<path d="M90.9844 304.796C90.9844 304.796 92.7921 298.579 98.5931 297.383C98.5905 297.396 97.5358 303.613 90.9844 304.796Z" fill="#00A83C"/>
<path d="M37.1614 341.353C39.8507 331.709 0.180222 314.36 5.66115 341.211L37.1614 341.353Z" fill="#00A83C"/>
<path d="M582.311 285.547C588.786 296.7 585.378 304.2 585.378 304.2C576.822 294.469 582.311 285.547 582.311 285.547Z" fill="#00A83C"/>
<path d="M571.887 281.594C577.334 290.973 574.463 297.279 574.463 297.279C567.269 289.096 571.887 281.594 571.887 281.594Z" fill="#00A83C"/>
<path d="M543.149 281.336C552.028 281.971 554.98 286.831 554.98 286.831C554.906 286.831 554.835 286.831 554.762 286.852C557.825 288.252 560.832 289.734 563.785 291.298C558.435 284.758 562.051 278.877 562.051 278.877C565.986 285.671 564.627 290.5 564.249 291.539C574.744 297.068 584.399 303.411 592.898 309.502H592.882C593.931 310.259 594.958 311.013 595.962 311.764C587.474 300.742 593.485 290.964 593.485 290.964C600.223 302.569 597.985 310.851 597.305 312.771C601.619 316.026 605.544 319.177 609.01 322.074C600.189 310.877 603.122 300.637 604.786 296.761C604.302 296.049 603.858 295.31 603.455 294.549C603.455 294.549 614.38 292.421 619.935 304.385C619.72 302.563 619.515 300.711 619.321 298.845H619.303C619.174 297.055 618.948 295.242 618.815 293.429C617.086 293.329 609.855 292.429 605.609 284.433C605.609 284.433 614.331 282.735 618.728 292.329C618.466 289.18 618.266 286.01 618.135 282.882C616.338 282.74 610.295 281.759 606.693 274.978C606.693 274.978 614.173 273.524 618.085 281.609C618.047 280.546 618.016 279.49 617.993 278.442L617.823 278.468C618.169 277.222 617.873 275.55 617.964 274.246C616.839 274.191 611.696 273.616 608.687 267.948C608.687 267.948 614.934 266.733 617.967 273.721C617.983 272.176 618.023 270.661 618.088 269.176C618.166 268.249 618.185 267.315 618.261 266.413C617.083 265.951 613.504 264.169 612.489 259.23C612.489 259.23 617.128 259.671 618.376 264.898C618.628 261.668 619.141 258.463 619.909 255.315C619.494 254.076 618.875 251.05 621.186 247.852C624.072 252 620.024 254.367 619.583 260.185C620.056 258.955 621.499 256.249 625.295 255.247C625.295 255.247 625.114 259.941 619.492 260.791C619.195 262.841 618.98 265.024 618.836 267.307C619.749 265.612 621.659 263.235 625.468 262.23C625.468 262.23 625.256 267.803 618.741 269.066C618.628 271.472 618.592 273.975 618.613 276.539C619.536 274.849 621.449 272.511 625.214 271.519C625.214 271.519 625.001 277.001 618.639 278.321C618.691 281.011 618.804 283.761 618.969 286.53C619.812 284.412 622.265 280.035 628.483 278.395C628.483 278.395 628.184 286.102 619.038 287.634C619.242 290.857 619.512 294.1 619.825 297.299C620.9 294.633 623.975 289.219 631.697 287.186C631.697 287.186 631.324 296.774 619.969 298.732C620.378 302.716 620.851 306.605 621.346 310.318C622.349 307.468 625.875 300.031 635.976 297.37C635.976 297.37 635.525 309.145 621.491 311.381C622.05 315.472 622.632 319.298 623.183 322.691C624.295 319.684 627.906 312.567 637.729 309.977C637.729 309.977 637.283 321.67 623.393 323.964C623.805 326.454 624.18 328.687 624.534 330.574C638.38 323.339 643.863 333.298 645.212 341.333H609.075C612.54 338.174 616.291 335.343 620.279 332.878C618.967 331.655 617.434 330.254 615.671 328.679C600.331 341.063 587.094 332.162 587.094 332.162C603.038 323.738 613.798 327.782 615.496 328.522C608.098 321.936 600.374 315.726 592.354 309.914C581.899 317.873 573.13 312.123 573.13 312.123C581.526 307.662 587.823 308.145 590.859 308.84C587.537 306.479 584.037 304.083 580.377 301.732C571.457 308.699 563.937 303.776 563.937 303.776C571.619 299.711 577.195 300.514 579.472 301.152C576.342 299.157 573.102 297.197 569.764 295.297C563.593 300.07 558.398 296.669 558.398 296.669C563.336 294.045 567.023 294.339 568.799 294.749C565.608 292.951 562.334 291.216 558.991 289.571C554.127 293.373 550.021 290.686 550.021 290.686C553.904 288.632 556.801 288.849 558.194 289.18C550.601 285.194 546.497 287.721 543.149 281.336ZM620.119 305.904C615.851 305.567 611.804 303.869 608.574 301.06C609.659 303.62 610.48 306.284 611.025 309.011C614.514 309.838 618.896 312.16 621.84 318.314C621.247 314.498 620.656 310.3 620.119 305.904ZM620.848 332.561C621.845 331.973 622.871 331.409 623.912 330.894C623.563 328.958 623.162 326.667 622.737 324.09C622.53 322.822 622.312 321.486 622.097 320.093C618.301 319.791 614.67 318.408 611.633 316.11C611.539 319.907 610.739 322.408 610.411 323.279C614.745 326.934 618.274 330.133 620.848 332.561Z" fill="#00A83C"/>
<path d="M603.75 318.652C591.324 328.624 580.784 321.712 580.784 321.712C594.813 314.301 603.75 318.652 603.75 318.652Z" fill="#00A83C"/>
<path d="M180.991 217.139L175.421 228.378L199.034 222.941C202.855 222.06 206.434 220.342 209.511 217.911C212.588 215.481 215.087 212.397 216.828 208.883L180.991 217.139Z" fill="#004889"/>
<path d="M180.215 213.764L170.289 206.088L193.902 200.651C197.724 199.772 201.692 199.752 205.522 200.592C209.351 201.433 212.947 203.113 216.049 205.511L180.215 213.764Z" fill="#004889"/>
<path d="M179.71 213.311L180.642 217.359L333.934 182.075L333.003 178.027L179.71 213.311Z" fill="url(#paint0_linear_246_666)"/>
<path d="M325.857 175.999C323.535 176.523 326.056 187.485 328.378 186.949L363.643 174.256C363.913 174.159 364.138 173.967 364.275 173.715C364.412 173.463 364.452 173.17 364.387 172.891C364.323 172.611 364.158 172.365 363.924 172.2C363.69 172.034 363.403 171.96 363.118 171.992L325.857 175.999Z" fill="url(#paint1_linear_246_666)"/>
<path d="M288.439 333.969C287.214 335.931 286.531 338.183 286.461 340.495C286.456 340.928 286.621 341.346 286.921 341.659C287.221 341.971 287.631 342.154 288.064 342.167L302.555 342.671C302.702 342.676 302.848 342.634 302.97 342.551C303.092 342.468 303.184 342.348 303.233 342.209C303.282 342.07 303.286 341.919 303.243 341.778C303.2 341.637 303.114 341.513 302.996 341.424C300.322 339.401 295.059 335.617 291.21 334.076L288.439 333.969Z" fill="url(#paint2_linear_246_666)"/>
<path d="M288.078 329.344L288.451 334.915C288.46 335.063 288.499 335.207 288.565 335.34C288.631 335.473 288.722 335.592 288.833 335.689C288.945 335.787 289.075 335.861 289.215 335.909C289.356 335.956 289.504 335.975 289.652 335.964C290.114 335.923 290.564 335.803 290.985 335.61C291.219 335.503 291.415 335.329 291.549 335.11C291.683 334.89 291.749 334.636 291.738 334.379L291.476 327.656L288.078 329.344Z" fill="url(#paint3_linear_246_666)"/>
<path d="M207.713 309.661C205.555 308.83 203.214 308.587 200.931 308.958C200.505 309.035 200.127 309.276 199.877 309.629C199.627 309.983 199.526 310.42 199.596 310.847L201.849 325.173C201.872 325.319 201.941 325.454 202.045 325.559C202.15 325.664 202.286 325.732 202.432 325.754C202.579 325.777 202.728 325.752 202.859 325.683C202.99 325.614 203.096 325.505 203.161 325.372C204.638 322.362 207.359 316.474 208.146 312.401L207.713 309.661Z" fill="url(#paint4_linear_246_666)"/>
<path d="M212.187 308.43L206.787 309.849C206.643 309.886 206.507 309.951 206.388 310.04C206.269 310.13 206.168 310.242 206.093 310.37C206.017 310.498 205.968 310.64 205.947 310.788C205.927 310.936 205.936 311.086 205.974 311.23C206.102 311.675 206.305 312.096 206.574 312.474C206.724 312.683 206.932 312.843 207.173 312.933C207.413 313.023 207.676 313.039 207.926 312.98L214.485 311.458L212.187 308.43Z" fill="url(#paint5_linear_246_666)"/>
<path d="M286.123 195.711C286.123 195.711 286.608 194.588 286.53 193.924C286.451 193.26 286.433 191.187 287.676 190.313C287.871 190.328 288.053 190.419 288.181 190.566C288.31 190.713 288.375 190.905 288.364 191.1C289.151 190.25 289.195 189.526 290.014 190.038C290.833 190.549 293.91 192.426 292.375 193.656C290.84 194.887 288.424 197.236 288.424 197.236L286.123 195.711Z" fill="url(#paint6_linear_246_666)"/>
<path d="M259.442 285.345C259.442 285.345 256.7 307.236 248.848 308.071C240.995 308.905 210.922 313.251 210.922 313.251L210.085 308.74C210.085 308.74 227.462 298.212 237.82 298.38C242.999 290.693 241.737 269.453 241.737 269.453L259.442 285.345Z" fill="url(#paint7_linear_246_666)"/>
<path d="M227.14 208.918C228.063 233.323 240.864 235.48 240.864 235.48V266.708H258.913C258.913 266.708 267.665 245.392 267.437 238.267C280.453 232.757 287.042 201.282 288.427 197.251C287.787 196.763 287.44 196.784 286.131 195.727C268.39 223.968 264.06 228.311 264.06 228.311H254.027C234.764 226.579 230.026 208.265 230.026 208.265L227.14 208.918Z" fill="url(#paint8_linear_246_666)"/>
<path d="M241.428 266.625C241.428 266.625 239.993 281.919 270.115 293.841C277.462 307.542 287.109 333.088 287.109 333.088H293.459C293.459 333.088 289.114 294.512 281.429 286.821C273.744 279.129 265.359 270.485 258.912 266.696C244.002 265.137 241.428 266.625 241.428 266.625Z" fill="url(#paint9_linear_246_666)"/>
<path d="M254.271 216.922L250.949 228.626C250.949 228.626 256.624 231.678 260.822 230.854L261.977 220.535L254.271 216.922Z" fill="url(#paint10_linear_246_666)"/>
<path d="M261.153 208.421C261.274 208.56 265.795 219.8 265.795 219.8L259.322 222.243L253.458 212.226C253.458 212.226 259.115 206.13 261.153 208.421Z" fill="url(#paint11_linear_246_666)"/>
<path d="M256.153 213.547L258.826 219.058C258.86 219.128 258.903 219.194 258.955 219.252C259.275 219.611 260.464 220.769 261.579 219.48C262.586 218.31 263.523 217.257 264.465 216.979C264.669 216.92 264.888 216.938 265.08 217.031C265.272 217.124 265.422 217.285 265.501 217.483C266.225 219.258 266.81 221.086 267.251 222.952C267.296 223.161 267.26 223.38 267.151 223.564C267.042 223.748 266.868 223.885 266.663 223.946C265.391 224.34 262.683 225.096 260.366 225.193C260.212 225.2 260.059 225.165 259.923 225.092C259.788 225.019 259.674 224.911 259.595 224.778C258.808 223.466 256.384 219.475 255.536 218.48C254.749 217.533 253.083 217.751 252.388 217.89C252.276 217.914 252.161 217.914 252.05 217.891C251.938 217.868 251.833 217.822 251.74 217.756C251.068 217.289 249.751 216.055 251.202 214.234C251.274 214.144 251.327 214.041 251.358 213.93C251.39 213.819 251.398 213.703 251.383 213.588C251.369 213.474 251.331 213.363 251.273 213.264C251.215 213.164 251.137 213.078 251.044 213.009C250.257 212.429 249.386 211.342 250.391 209.757C251.396 208.172 253.015 208.207 254.009 208.445C254.205 208.492 254.411 208.468 254.591 208.378C254.771 208.288 254.913 208.137 254.993 207.952C255.048 207.826 255.141 207.72 255.258 207.648C255.375 207.576 255.512 207.542 255.649 207.55C255.765 207.544 255.879 207.513 255.983 207.46C256.087 207.407 256.179 207.333 256.253 207.243C256.327 207.152 256.381 207.048 256.413 206.936C256.444 206.823 256.452 206.706 256.436 206.59C256.313 205.645 256.515 204.412 258.1 203.717C260.907 202.483 263.037 205.092 263.455 207.17C263.872 209.248 260.75 210.411 258.847 210.484C257.399 210.537 256.486 212.08 256.142 212.817C256.09 212.932 256.064 213.057 256.066 213.183C256.068 213.309 256.097 213.433 256.153 213.547Z" fill="url(#paint12_linear_246_666)"/>
<path d="M256.517 220.465C256.517 220.465 255.638 216.875 254.101 216.867C252.563 216.859 251.233 218.271 252.97 220.147C255.129 222.478 256.517 220.465 256.517 220.465Z" fill="url(#paint13_linear_246_666)"/>
<path d="M226.534 202.479C226.534 202.479 230.433 200.753 229.945 203.65C229.457 206.547 230.49 208.662 228.268 208.898C226.046 209.134 225.781 204.482 226.534 202.479Z" fill="url(#paint14_linear_246_666)"/>
<path d="M649 341.5C433.766 339.507 215.234 339.493 0 341.5C215.234 343.507 433.766 343.493 649 341.5Z" fill="#153B5E"/>
<path d="M498.756 123.444L511.167 131.679L522.833 122.42L518.837 136.768L531.248 145.002L516.367 145.635L512.371 159.983L507.17 146.027L492.29 146.659L503.956 137.401L498.756 123.444Z" fill="white"/>
<path d="M207.357 134.778L202.919 148.996L215.069 157.61L200.176 157.783L195.739 172L190.972 157.89L176.079 158.063L188.026 149.169L183.259 135.058L195.409 143.672L207.357 134.778Z" fill="white"/>
<path d="M504 89L506.919 97.9828H516.364L508.723 103.534L511.641 112.517L504 106.966L496.359 112.517L499.277 103.534L491.636 97.9828H501.081L504 89Z" fill="white"/>
<path d="M228 115L230.919 123.983H240.364L232.723 129.534L235.641 138.517L228 132.966L220.359 138.517L223.277 129.534L215.636 123.983H225.081L228 115Z" fill="white"/>
</g>
<defs>
<linearGradient id="paint0_linear_246_666" x1="370.804" y1="140.064" x2="246.683" y2="202.719" gradientUnits="userSpaceOnUse">
<stop stop-color="#09005D"/>
<stop offset="1" stop-color="#1A0F91"/>
</linearGradient>
<linearGradient id="paint1_linear_246_666" x1="353.802" y1="168.619" x2="250.371" y2="202.427" gradientUnits="userSpaceOnUse">
<stop stop-color="#09005D"/>
<stop offset="1" stop-color="#1A0F91"/>
</linearGradient>
<linearGradient id="paint2_linear_246_666" x1="286.539" y1="338.005" x2="303.38" y2="338.593" gradientUnits="userSpaceOnUse">
<stop stop-color="#09005D"/>
<stop offset="1" stop-color="#1A0F91"/>
</linearGradient>
<linearGradient id="paint3_linear_246_666" x1="287.764" y1="331.497" x2="292.055" y2="332.087" gradientUnits="userSpaceOnUse">
<stop stop-color="#FEBBBA"/>
<stop offset="1" stop-color="#FF928E"/>
</linearGradient>
<linearGradient id="paint4_linear_246_666" x1="205.834" y1="299.808" x2="208.531" y2="316.497" gradientUnits="userSpaceOnUse">
<stop stop-color="#09005D"/>
<stop offset="1" stop-color="#1A0F91"/>
</linearGradient>
<linearGradient id="paint5_linear_246_666" x1="214.788" y1="315.461" x2="215.005" y2="319.796" gradientUnits="userSpaceOnUse">
<stop stop-color="#FEBBBA"/>
<stop offset="1" stop-color="#FF928E"/>
</linearGradient>
<linearGradient id="paint6_linear_246_666" x1="293.372" y1="189.711" x2="286.491" y2="192.005" gradientUnits="userSpaceOnUse">
<stop stop-color="#FEBBBA"/>
<stop offset="1" stop-color="#FF928E"/>
</linearGradient>
<linearGradient id="paint7_linear_246_666" x1="241.953" y1="287.211" x2="209.866" y2="349.148" gradientUnits="userSpaceOnUse">
<stop stop-color="#09005D"/>
<stop offset="1" stop-color="#1A0F91"/>
</linearGradient>
<linearGradient id="paint8_linear_246_666" x1="328.444" y1="310.881" x2="275.627" y2="245.58" gradientUnits="userSpaceOnUse">
<stop stop-color="#FF928E"/>
<stop offset="1" stop-color="#FE7062"/>
</linearGradient>
<linearGradient id="paint9_linear_246_666" x1="286.873" y1="295.851" x2="248.698" y2="303.637" gradientUnits="userSpaceOnUse">
<stop stop-color="#09005D"/>
<stop offset="1" stop-color="#1A0F91"/>
</linearGradient>
<linearGradient id="paint10_linear_246_666" x1="267.828" y1="198.626" x2="243.05" y2="259.557" gradientUnits="userSpaceOnUse">
<stop stop-color="#FEBBBA"/>
<stop offset="1" stop-color="#FF928E"/>
</linearGradient>
<linearGradient id="paint11_linear_246_666" x1="259.148" y1="210.345" x2="260.982" y2="233.319" gradientUnits="userSpaceOnUse">
<stop stop-color="#FEBBBA"/>
<stop offset="1" stop-color="#FF928E"/>
</linearGradient>
<linearGradient id="paint12_linear_246_666" x1="254.165" y1="220.714" x2="266.569" y2="209.684" gradientUnits="userSpaceOnUse">
<stop stop-color="#09005D"/>
<stop offset="1" stop-color="#1A0F91"/>
</linearGradient>
<linearGradient id="paint13_linear_246_666" x1="253.616" y1="234.749" x2="254.344" y2="218.797" gradientUnits="userSpaceOnUse">
<stop stop-color="#FEBBBA"/>
<stop offset="1" stop-color="#FF928E"/>
</linearGradient>
<linearGradient id="paint14_linear_246_666" x1="230.388" y1="205.004" x2="226.145" y2="205.87" gradientUnits="userSpaceOnUse">
<stop stop-color="#FEBBBA"/>
<stop offset="1" stop-color="#FF928E"/>
</linearGradient>
<clipPath id="clip0_246_666">
<rect width="649" height="343" fill="white"/>
</clipPath>
</defs>
</svg>
