<?xml version="1.0" encoding="utf-8"?>
<!-- Generator: Adobe Illustrator 26.0.2, SVG Export Plug-In . SVG Version: 6.00 Build 0)  -->
<svg version="1.1" id="Layer_1" xmlns="http://www.w3.org/2000/svg" xmlns:xlink="http://www.w3.org/1999/xlink" x="0px" y="0px"
	 viewBox="0 0 649 343" style="enable-background:new 0 0 649 343;" xml:space="preserve">
<style type="text/css">
	.st0{fill:url(#SVGID_1_);}
	.st1{opacity:0.3;fill:#070060;}
	.st2{fill:#153B5E;}
	.st3{fill:#3F9CEF;}
	.st4{fill:#69B3F7;}
	.st5{fill:#FFFFFF;}
	.st6{fill:#004889;}
	.st7{fill:url(#SVGID_00000160179720495280750020000012736796036549275276_);}
	.st8{fill:url(#SVGID_00000158720355539227521380000007789626149657119669_);}
	.st9{fill:url(#SVGID_00000067203693777275854140000007211241490724699014_);}
	.st10{fill:url(#SVGID_00000058552771183502379810000009636348215398201507_);}
	.st11{fill:url(#SVGID_00000014600327056093791270000002857233328708959672_);}
	.st12{fill:url(#SVGID_00000162344721858951261540000010267457680032709558_);}
	.st13{fill:url(#SVGID_00000139982715619528533600000006727285609228184230_);}
	.st14{fill:url(#SVGID_00000181081284016774966740000005824756634334120607_);}
	.st15{fill:url(#SVGID_00000029023363627841691250000011092214715661597113_);}
	.st16{fill:url(#SVGID_00000031911434262298186120000018367178449254655636_);}
	.st17{fill:url(#SVGID_00000044151171149085232950000006908266112323595392_);}
	.st18{fill:url(#SVGID_00000007419897567414778930000017852063326794841018_);}
	.st19{fill:url(#SVGID_00000016068286933745135970000002142742907074600636_);}
	.st20{fill:url(#SVGID_00000030456838732254387660000013719161013227646364_);}
	.st21{fill:url(#SVGID_00000072258371397926505800000008598424329273864602_);}
</style>
<radialGradient id="SVGID_1_" cx="677.1064" cy="-110.3866" r="729.5554" gradientTransform="matrix(1.1901 0 0 1 1.5204 0)" gradientUnits="userSpaceOnUse">
	<stop  offset="0" style="stop-color:#73D7FF"/>
	<stop  offset="1" style="stop-color:#002BC6"/>
</radialGradient>
<rect x="-8" y="-5.1" class="st0" width="670" height="360"/>
<g>
	<g>
		<path class="st1" d="M641.9,344.4H9.6c22.1-175.7,4.2-134.4,335-318.6C507.7-65,657,144.6,641.9,344.4z"/>
		<path class="st2" d="M393.3,344.1c1.1,0.2,2.1,0.1,3.1-0.2c1-0.3,1.9-0.9,2.7-1.6c0.8-0.7,1.4-1.6,1.7-2.6c0.4-1,0.5-2.1,0.4-3.1
			l-8-78.1l-14.3-2.2l8.4,81.7c0.2,1.5,0.8,3,1.9,4.1C390.3,343.1,391.7,343.8,393.3,344.1z"/>
		<path class="st2" d="M442.7,345.3c5.4,0.4,7.9-6.6,6.6-8.8l-32-115.1H403l33,118.8c0.4,1.4,1.3,2.7,2.5,3.6
			C439.7,344.8,441.2,345.3,442.7,345.3z"/>
		<path class="st2" d="M317.6,345.3c-1.1,0-2.1-0.2-3.1-0.7c-0.9-0.5-1.8-1.2-2.4-2c-0.6-0.8-1.1-1.8-1.3-2.9
			c-0.2-1-0.2-2.1,0.1-3.1l32-115.1h14.3l-33,118.8c-0.4,1.4-1.3,2.7-2.5,3.6C320.5,344.8,319.1,345.3,317.6,345.3z"/>
		<path class="st3" d="M272.3,183.5c13-123.3,222.8-140.3,212.6,1.2C471.8,308,262,325,272.3,183.5z"/>
		<path class="st4" d="M360.7,275.9c129.9,2.7,173.2-193.7,25-201.6C255.8,71.6,212.5,268,360.7,275.9z"/>
		<path class="st5" d="M363.4,253.8c101.4,2.1,135.1-151.1,19.5-157.3C281.6,94.3,247.8,247.6,363.4,253.8z"/>
		<path class="st4" d="M366.2,231.6c72.8,1.5,97.1-108.5,14-113C307.4,117.1,283.1,227.2,366.2,231.6z"/>
		<path class="st5" d="M368.9,209.5c44.2,0.9,59-66,8.5-68.7C333.2,139.9,318.5,206.8,368.9,209.5z"/>
		<path class="st4" d="M360.4,175.1c-1.2,17.1,24.1,15,25.7,0.1C387.3,158.1,361.9,160.2,360.4,175.1z"/>
		<path class="st6" d="M181,220.3l-5.6,11.2l23.6-5.4c3.8-0.9,7.4-2.6,10.5-5c3.1-2.4,5.6-5.5,7.3-9L181,220.3z"/>
		<path class="st6" d="M180.2,216.9l-9.9-7.7l23.6-5.4c3.8-0.9,7.8-0.9,11.6-0.1c3.8,0.8,7.4,2.5,10.5,4.9L180.2,216.9z"/>
		
			<linearGradient id="SVGID_00000176747412350853498830000011456248269041280899_" gradientUnits="userSpaceOnUse" x1="370.841" y1="200.6085" x2="246.72" y2="137.9535" gradientTransform="matrix(1 0 0 -1 0 343.89)">
			<stop  offset="0" style="stop-color:#09005D"/>
			<stop  offset="1" style="stop-color:#1A0F91"/>
		</linearGradient>
		<path style="fill:url(#SVGID_00000176747412350853498830000011456248269041280899_);" d="M179.7,216.5l0.9,4l153.3-35.3l-0.9-4
			L179.7,216.5z"/>
		
			<linearGradient id="SVGID_00000140695274756930399410000012295657382455736998_" gradientUnits="userSpaceOnUse" x1="355.0219" y1="168.3946" x2="251.591" y2="134.5866" gradientTransform="matrix(1 0 0 -1 0 343.89)">
			<stop  offset="0" style="stop-color:#09005D"/>
			<stop  offset="1" style="stop-color:#1A0F91"/>
		</linearGradient>
		<path style="fill:url(#SVGID_00000140695274756930399410000012295657382455736998_);" d="M325.9,179.1c-2.3,0.5,0.2,11.5,2.5,11
			l35.3-12.7c0.3-0.1,0.5-0.3,0.6-0.5s0.2-0.5,0.1-0.8c-0.1-0.3-0.2-0.5-0.5-0.7c-0.2-0.2-0.5-0.2-0.8-0.2L325.9,179.1z"/>
		
			<linearGradient id="SVGID_00000133496014197506711900000017296507536170968477_" gradientUnits="userSpaceOnUse" x1="286.5477" y1="2.7373" x2="303.3912" y2="2.1493" gradientTransform="matrix(1 0 0 -1 0 343.89)">
			<stop  offset="0" style="stop-color:#09005D"/>
			<stop  offset="1" style="stop-color:#1A0F91"/>
		</linearGradient>
		<path style="fill:url(#SVGID_00000133496014197506711900000017296507536170968477_);" d="M288.4,337.1c-1.2,2-1.9,4.2-2,6.5
			c0,0.4,0.2,0.9,0.5,1.2c0.3,0.3,0.7,0.5,1.1,0.5l14.5,0.5c0.1,0,0.3,0,0.4-0.1s0.2-0.2,0.3-0.3c0-0.1,0.1-0.3,0-0.4
			c0-0.1-0.1-0.3-0.2-0.4c-2.7-2-7.9-5.8-11.8-7.3L288.4,337.1z"/>
		
			<linearGradient id="SVGID_00000176751904992846652790000008449788104823694011_" gradientUnits="userSpaceOnUse" x1="287.7721" y1="9.3074" x2="292.0641" y2="8.7172" gradientTransform="matrix(1 0 0 -1 0 343.89)">
			<stop  offset="0" style="stop-color:#FEBBBA"/>
			<stop  offset="1" style="stop-color:#FF928E"/>
		</linearGradient>
		<path style="fill:url(#SVGID_00000176751904992846652790000008449788104823694011_);" d="M288.1,332.5l0.4,5.6
			c0,0.1,0,0.3,0.1,0.4s0.2,0.3,0.3,0.3c0.1,0.1,0.2,0.2,0.4,0.2c0.1,0,0.3,0.1,0.4,0.1c0.5,0,0.9-0.2,1.3-0.4
			c0.2-0.1,0.4-0.3,0.6-0.5c0.1-0.2,0.2-0.5,0.2-0.7l-0.3-6.7L288.1,332.5z"/>
		
			<linearGradient id="SVGID_00000008107072883480809220000011414295948183837872_" gradientUnits="userSpaceOnUse" x1="202.0345" y1="40.3238" x2="204.7316" y2="23.6348" gradientTransform="matrix(1 0 0 -1 0 343.89)">
			<stop  offset="0" style="stop-color:#09005D"/>
			<stop  offset="1" style="stop-color:#1A0F91"/>
		</linearGradient>
		<path style="fill:url(#SVGID_00000008107072883480809220000011414295948183837872_);" d="M207.7,312.8c-2.2-0.8-4.5-1.1-6.8-0.7
			c-0.4,0.1-0.8,0.3-1.1,0.7c-0.2,0.4-0.4,0.8-0.3,1.2l2.3,14.3c0,0.1,0.1,0.3,0.2,0.4c0.1,0.1,0.2,0.2,0.4,0.2c0.1,0,0.3,0,0.4-0.1
			c0.1-0.1,0.2-0.2,0.3-0.3c1.5-3,4.2-8.9,5-13L207.7,312.8z"/>
		
			<linearGradient id="SVGID_00000129913268297570339540000005566953626343456919_" gradientUnits="userSpaceOnUse" x1="210.4343" y1="25.0669" x2="210.6514" y2="20.7319" gradientTransform="matrix(1 0 0 -1 0 343.89)">
			<stop  offset="0" style="stop-color:#FEBBBA"/>
			<stop  offset="1" style="stop-color:#FF928E"/>
		</linearGradient>
		<path style="fill:url(#SVGID_00000129913268297570339540000005566953626343456919_);" d="M212.2,311.6l-5.4,1.4
			c-0.1,0-0.3,0.1-0.4,0.2c-0.1,0.1-0.2,0.2-0.3,0.3c-0.1,0.1-0.1,0.3-0.1,0.4c0,0.1,0,0.3,0,0.4c0.1,0.4,0.3,0.9,0.6,1.2
			c0.1,0.2,0.4,0.4,0.6,0.5c0.2,0.1,0.5,0.1,0.8,0l6.6-1.5L212.2,311.6z"/>
		
			<linearGradient id="SVGID_00000070814221613325480290000005495106453997050777_" gradientUnits="userSpaceOnUse" x1="294.0589" y1="148.9746" x2="287.1779" y2="146.6806" gradientTransform="matrix(1 0 0 -1 0 343.89)">
			<stop  offset="0" style="stop-color:#FEBBBA"/>
			<stop  offset="1" style="stop-color:#FF928E"/>
		</linearGradient>
		<path style="fill:url(#SVGID_00000070814221613325480290000005495106453997050777_);" d="M286.1,198.9c0,0,0.5-1.1,0.4-1.8
			c-0.1-0.7-0.1-2.7,1.1-3.6c0.2,0,0.4,0.1,0.5,0.3c0.1,0.1,0.2,0.3,0.2,0.5c0.8-0.9,0.8-1.6,1.6-1.1c0.8,0.5,3.9,2.4,2.4,3.6
			c-1.5,1.2-4,3.6-4,3.6L286.1,198.9z"/>
		
			<linearGradient id="SVGID_00000017485721468028391110000005304335429231996590_" gradientUnits="userSpaceOnUse" x1="241.9547" y1="53.534" x2="209.8677" y2="-8.403" gradientTransform="matrix(1 0 0 -1 0 343.89)">
			<stop  offset="0" style="stop-color:#09005D"/>
			<stop  offset="1" style="stop-color:#1A0F91"/>
		</linearGradient>
		<path style="fill:url(#SVGID_00000017485721468028391110000005304335429231996590_);" d="M259.4,288.5c0,0-2.7,21.9-10.6,22.7
			c-7.9,0.8-37.9,5.2-37.9,5.2l-0.8-4.5c0,0,17.4-10.5,27.7-10.4c5.2-7.7,3.9-28.9,3.9-28.9L259.4,288.5z"/>
		
			<linearGradient id="SVGID_00000000205933597983046980000007059842972338960771_" gradientUnits="userSpaceOnUse" x1="328.4554" y1="29.8741" x2="275.6384" y2="95.1751" gradientTransform="matrix(1 0 0 -1 0 343.89)">
			<stop  offset="0" style="stop-color:#FF928E"/>
			<stop  offset="1" style="stop-color:#FE7062"/>
		</linearGradient>
		<path style="fill:url(#SVGID_00000000205933597983046980000007059842972338960771_);" d="M227.1,212.1
			c0.9,24.4,13.7,26.6,13.7,26.6v31.2h18c0,0,8.8-21.3,8.5-28.4c13-5.5,19.6-37,21-41c-0.6-0.5-1-0.5-2.3-1.5
			c-17.7,28.2-22.1,32.6-22.1,32.6h-10c-19.3-1.7-24-20-24-20L227.1,212.1z"/>
		
			<linearGradient id="SVGID_00000148630266839125117360000002864757271440636827_" gradientUnits="userSpaceOnUse" x1="286.8739" y1="44.8942" x2="248.6979" y2="37.108" gradientTransform="matrix(1 0 0 -1 0 343.89)">
			<stop  offset="0" style="stop-color:#09005D"/>
			<stop  offset="1" style="stop-color:#1A0F91"/>
		</linearGradient>
		<path style="fill:url(#SVGID_00000148630266839125117360000002864757271440636827_);" d="M241.4,269.8c0,0-1.4,15.3,28.7,27.2
			c7.3,13.7,17,39.2,17,39.2h6.4c0,0-4.3-38.6-12-46.3c-7.7-7.7-16.1-16.3-22.5-20.1C244,268.3,241.4,269.8,241.4,269.8z"/>
		
			<linearGradient id="SVGID_00000178908043576001678990000004167772810111092620_" gradientUnits="userSpaceOnUse" x1="267.8207" y1="142.1228" x2="243.0427" y2="81.1918" gradientTransform="matrix(1 0 0 -1 0 343.89)">
			<stop  offset="0" style="stop-color:#FEBBBA"/>
			<stop  offset="1" style="stop-color:#FF928E"/>
		</linearGradient>
		<path style="fill:url(#SVGID_00000178908043576001678990000004167772810111092620_);" d="M254.3,220.1l-3.3,11.7
			c0,0,5.7,3.1,9.9,2.2l1.2-10.3L254.3,220.1z"/>
		
			<linearGradient id="SVGID_00000085965026727526847920000013024307661037113218_" gradientUnits="userSpaceOnUse" x1="259.1739" y1="130.4029" x2="261.0078" y2="107.4289" gradientTransform="matrix(1 0 0 -1 0 343.89)">
			<stop  offset="0" style="stop-color:#FEBBBA"/>
			<stop  offset="1" style="stop-color:#FF928E"/>
		</linearGradient>
		<path style="fill:url(#SVGID_00000085965026727526847920000013024307661037113218_);" d="M261.2,211.6c0.1,0.1,4.6,11.4,4.6,11.4
			l-6.5,2.4l-5.9-10C253.5,215.4,259.1,209.3,261.2,211.6z"/>
		
			<linearGradient id="SVGID_00000064311471254825017310000010217810587516949163_" gradientUnits="userSpaceOnUse" x1="254.1554" y1="120.0426" x2="266.5539" y2="131.0677" gradientTransform="matrix(1 0 0 -1 0 343.89)">
			<stop  offset="0" style="stop-color:#09005D"/>
			<stop  offset="1" style="stop-color:#1A0F91"/>
		</linearGradient>
		<path style="fill:url(#SVGID_00000064311471254825017310000010217810587516949163_);" d="M256.2,216.7l2.7,5.5
			c0,0.1,0.1,0.1,0.1,0.2c0.3,0.4,1.5,1.5,2.6,0.2c1-1.2,1.9-2.2,2.9-2.5c0.2-0.1,0.4,0,0.6,0.1c0.2,0.1,0.3,0.3,0.4,0.5
			c0.7,1.8,1.3,3.6,1.8,5.5c0,0.2,0,0.4-0.1,0.6c-0.1,0.2-0.3,0.3-0.5,0.4c-1.3,0.4-4,1.1-6.3,1.2c-0.2,0-0.3,0-0.4-0.1
			c-0.1-0.1-0.2-0.2-0.3-0.3c-0.8-1.3-3.2-5.3-4.1-6.3c-0.8-0.9-2.5-0.7-3.1-0.6c-0.1,0-0.2,0-0.3,0c-0.1,0-0.2-0.1-0.3-0.1
			c-0.7-0.5-2-1.7-0.5-3.5c0.1-0.1,0.1-0.2,0.2-0.3c0-0.1,0-0.2,0-0.3c0-0.1-0.1-0.2-0.1-0.3c-0.1-0.1-0.1-0.2-0.2-0.3
			c-0.8-0.6-1.7-1.7-0.7-3.3c1-1.6,2.6-1.6,3.6-1.3c0.2,0,0.4,0,0.6-0.1c0.2-0.1,0.3-0.2,0.4-0.4c0.1-0.1,0.1-0.2,0.3-0.3
			c0.1-0.1,0.3-0.1,0.4-0.1c0.1,0,0.2,0,0.3-0.1c0.1-0.1,0.2-0.1,0.3-0.2c0.1-0.1,0.1-0.2,0.2-0.3c0-0.1,0-0.2,0-0.3
			c-0.1-0.9,0.1-2.2,1.7-2.9c2.8-1.2,4.9,1.4,5.4,3.5c0.4,2.1-2.7,3.2-4.6,3.3c-1.4,0.1-2.4,1.6-2.7,2.3c-0.1,0.1-0.1,0.2-0.1,0.4
			C256.1,216.5,256.1,216.6,256.2,216.7z"/>
		
			<linearGradient id="SVGID_00000056393221808368588050000014700335368610745736_" gradientUnits="userSpaceOnUse" x1="253.6346" y1="105.996" x2="254.3625" y2="121.948" gradientTransform="matrix(1 0 0 -1 0 343.89)">
			<stop  offset="0" style="stop-color:#FEBBBA"/>
			<stop  offset="1" style="stop-color:#FF928E"/>
		</linearGradient>
		<path style="fill:url(#SVGID_00000056393221808368588050000014700335368610745736_);" d="M256.5,223.6c0,0-0.9-3.6-2.4-3.6
			c-1.5,0-2.9,1.4-1.1,3.3C255.1,225.6,256.5,223.6,256.5,223.6z"/>
		
			<linearGradient id="SVGID_00000170245461274173723930000009352741438344486813_" gradientUnits="userSpaceOnUse" x1="230.3895" y1="135.7344" x2="226.1465" y2="134.8684" gradientTransform="matrix(1 0 0 -1 0 343.89)">
			<stop  offset="0" style="stop-color:#FEBBBA"/>
			<stop  offset="1" style="stop-color:#FF928E"/>
		</linearGradient>
		<path style="fill:url(#SVGID_00000170245461274173723930000009352741438344486813_);" d="M226.5,205.6c0,0,3.9-1.7,3.4,1.2
			c-0.5,2.9,0.5,5-1.7,5.2C226,212.3,225.8,207.6,226.5,205.6z"/>
		<path class="st5" d="M498.8,126.6l12.4,8.2l11.7-9.3l-4,14.3l12.4,8.2l-14.9,0.6l-4,14.3l-5.2-14l-14.9,0.6l11.7-9.3L498.8,126.6z
			"/>
		<path class="st5" d="M207.4,137.9l-4.4,14.2l12.1,8.6l-14.9,0.2l-4.4,14.2L191,161l-14.9,0.2l11.9-8.9l-4.8-14.1l12.1,8.6
			L207.4,137.9z"/>
		<path class="st5" d="M504,92.1l2.9,9h9.4l-7.6,5.6l2.9,9l-7.6-5.6l-7.6,5.6l2.9-9l-7.6-5.6h9.4L504,92.1z"/>
		<path class="st5" d="M228,118.1l2.9,9h9.4l-7.6,5.6l2.9,9l-7.6-5.6l-7.6,5.6l2.9-9l-7.6-5.6h9.4L228,118.1z"/>
	</g>
</g>
</svg>
