<svg xmlns="http://www.w3.org/2000/svg" xmlns:xlink="http://www.w3.org/1999/xlink" viewBox="0 0 1245 332"><defs><style>.cls-1{fill:none;}.cls-2,.cls-46{isolation:isolate;}.cls-3{clip-path:url(#clip-path);}.cls-4{fill:url(#radial-gradient);}.cls-5,.cls-6,.cls-7{mix-blend-mode:multiply;}.cls-5,.cls-6{opacity:0.35;}.cls-5{fill:url(#radial-gradient-2);}.cls-6{fill:url(#radial-gradient-3);}.cls-7{opacity:0.5;}.cls-8{fill:#4aa4f4;}.cls-9{fill:#7bc0ff;}.cls-10{fill:#c7ddea;}.cls-11{fill:#d1a586;}.cls-12{fill:#e5bd9e;}.cls-13{fill:#dfb697;}.cls-14{fill:#a0795f;}.cls-15{fill:#ffb27d;}.cls-16{fill:#499ec4;}.cls-17{fill:#3f88a8;}.cls-18{fill:#173c5e;}.cls-19{fill:#ed975d;}.cls-20{fill:#699dee;}.cls-21{fill:#fff;}.cls-22{fill:#4a75cb;}.cls-23{fill:#1c468a;}.cls-24{fill:#2b478b;}.cls-25{fill:#e7f1fd;}.cls-26{fill:#1e4151;}.cls-27{fill:#233862;}.cls-28{fill:#2e90e8;}.cls-29{fill:#1e485b;}.cls-30{fill:#c69d7f;}.cls-31{fill:#e0b594;}.cls-32{fill:#6c96bc;}.cls-33{fill:#f4a269;}.cls-34{fill:#5983aa;}.cls-35{fill:#169bd6;}.cls-36{fill:#48acff;}.cls-37{fill:#38a3e5;}.cls-38{fill:#4abbed;}.cls-39{fill:#e9f3fe;}.cls-40{fill:#afcdfb;}.cls-41{fill:#e49963;}.cls-42{fill:#39afe2;}.cls-43{fill:#194c72;}.cls-44{fill:#2f7a9b;}.cls-45{fill:#dde3f2;}.cls-46{opacity:0.2;}</style><clipPath id="clip-path" transform="translate(0 29.6)"><rect class="cls-1" width="1245" height="300"/></clipPath><radialGradient id="radial-gradient" cx="992.38" cy="390.36" r="700.62" gradientTransform="matrix(-0.76, 0.55, -0.47, -0.5, 1924.02, -565.29)" gradientUnits="userSpaceOnUse"><stop offset="0" stop-color="#73d7ff"/><stop offset="1" stop-color="#002bc6"/></radialGradient><radialGradient id="radial-gradient-2" cx="531.25" cy="175.95" r="141.35" gradientUnits="userSpaceOnUse"><stop offset="0.26" stop-color="#0432c8"/><stop offset="1" stop-color="#002bc6"/></radialGradient><radialGradient id="radial-gradient-3" cx="236.35" cy="196.41" r="122.38" xlink:href="#radial-gradient-2"/></defs><g class="cls-2"><g id="Layer_2" data-name="Layer 2"><g id="Слой_1" data-name="Слой 1"><g class="cls-3"><rect class="cls-4" y="29.6" width="1245" height="300"/><path class="cls-5" d="M663.9,132V112.7h-5.7V79.6H628v33.1H599.7v-54H568.5v35h-7.1V51.9H530.2v78.4H490.7V176H475.9V155.6H442v12H422.5V113.7h-24v39.9h-24V300H688V132Z" transform="translate(0 29.6)"/><path class="cls-6" d="M374.5,159.46v141.2H98.2V177.76h21.2v-33.5h21.2v45.3h17.1v-10.1h29.9v17.1h13v-38.4h34.8v-66h27.5v35.2h6.3V98h27.5v45.4h24.9v-27.8h26.7v27.8h5v16.2l21.2-.1Z" transform="translate(0 29.6)"/><path class="cls-7" d="M1112.2-24V296.9H1096V-29.6C1101.5-27.9,1106.9-26,1112.2-24Z" transform="translate(0 29.6)"/><path class="cls-7" d="M667.3,33.9v263H651V44.2C656.3,41.2,661.8,37.7,667.3,33.9Z" transform="translate(0 29.6)"/><path class="cls-8" d="M1008.2,12.3V73.1c-.1,4.6-.7,8.2-1.5,8.2h-.2c-.7,0-1.3-3.1-1.5-7.2v-62C1006,12.1,1007.1,12.2,1008.2,12.3Z" transform="translate(0 29.6)"/><path class="cls-8" d="M1005.7,73.1a21.56,21.56,0,0,0-21.3,21.8H1027A21.49,21.49,0,0,0,1005.7,73.1Z" transform="translate(0 29.6)"/><path class="cls-9" d="M1007.4,73.3a11.08,11.08,0,0,0-1.9-.2c-7.7,0-13.9,9.8-13.9,21.8h3.7C995.4,83.9,1000.6,74.8,1007.4,73.3Z" transform="translate(0 29.6)"/><path class="cls-7" d="M1170.2,33.9H947c1.2-4.1,2.3-8.3,3.2-12.7a.37.37,0,0,1,.1-.3c.3-1.5.7-3,1.1-4.4L1135,3.1c3.4,2.2,6.8,4.6,10.1,7.1A170.89,170.89,0,0,1,1170.2,33.9Z" transform="translate(0 29.6)"/><path class="cls-7" d="M180.2-18.5V302.4h16.2V-24.1C190.9-22.4,185.5-20.5,180.2-18.5Z" transform="translate(0 29.6)"/><path class="cls-8" d="M284.2,17.8V78.7c.1,4.6.7,8.2,1.5,8.2h.2c.7,0,1.3-3.1,1.5-7.2V17.6C286.4,17.6,285.3,17.7,284.2,17.8Z" transform="translate(0 29.6)"/><path class="cls-8" d="M286.7,78.6A21.56,21.56,0,0,1,308,100.4H265.4A21.49,21.49,0,0,1,286.7,78.6Z" transform="translate(0 29.6)"/><path class="cls-9" d="M285,78.8a11.08,11.08,0,0,1,1.9-.2c7.7,0,13.9,9.8,13.9,21.8H297C297,89.4,291.8,80.3,285,78.8Z" transform="translate(0 29.6)"/><path class="cls-7" d="M122.2,39.4H345.4a124,124,0,0,1-3.1-12.7.37.37,0,0,0-.1-.3c-.3-1.5-.7-3-1.1-4.4L157.6,8.7c-3.4,2.2-6.8,4.6-10.1,7.1A153.52,153.52,0,0,0,122.2,39.4Z" transform="translate(0 29.6)"/><path d="M942.6,121.2a6.37,6.37,0,0,1,8.8-.2C951.4,120.9,948.5,120.4,942.6,121.2Z" transform="translate(0 29.6)"/><path class="cls-10" d="M1079.2,250.9h-12.3a95.75,95.75,0,0,1,3.1-15.7V235s.4-2.6-4-2.6c-4.1-.1-6.1,1.6-6.5,2.3-1.2-5.3-2.8-9.6-4.8-10.3a9.25,9.25,0,0,0-2.9-.4c-.1-.3-.4-1-.8-1.1h-.2a13.09,13.09,0,0,1-.9-2.8V220c1.6-2.2,2.6-6.7,1.8-7.4-2.8-2.9-12.8-1-8.9,2.4-.1.1-.1.2-.1.4-.3,1.2.1,7.1,1.6,7.2h1.1c0,.3.1.8.1,1.3a2.14,2.14,0,0,1-.6.1,4.57,4.57,0,0,0-1.7,1.4s-5,2.6-5.6,5.1-3.1,14.3-4,15.1-11.5,2.8-11.5,2.8-.2.3-.3.4a12.21,12.21,0,0,0-2.4-1.1c-.7-.1-3.6,2.3-3.8,2.9a3.61,3.61,0,0,0-.5.4h-1.6v-.5h-1.6c-.1,0-1.2,0-1.3-.8v-.2c0-.1.1-.8.2-1.8a2.77,2.77,0,0,1,.1-.9c.1-.6.1-1.2.2-2v-.4h21.6l1.2-.7-1.6-6.2-.1-.3h0l-7.1-26.6h-44l-.6.2,8,33.6h13.2l-.4,4.9s-.2,1.5.9,1.5H962.3a.37.37,0,0,0,.3-.1.35.35,0,0,0,.2-.1c.1-.1.1-.1.1-.2v-.3l-.7-6.6H974l3.5-28.8H938.6l-3,24.7c-.6-2.1-1-3.8-1-3.8-.3-.8-1.6-5.3-2.2-6a2.29,2.29,0,0,0-1.4-.6,1.49,1.49,0,0,0,.2-.9c-.1-1.8,1.9-1.6,3.2-3.6,1.1-1.8-.9-2.2.2-5,.8-2.1-1.2-2.6-1.2-4.3,0,0-.3-3.2-4.9-2.4-1.2.2-2.1-2-4.1-1.2-4.3,1.7-4.6-.5-5.8,2.6-.5,1.3-3.8,2.8-2.8,5.1s-.7,3.8.5,5.5c.6.9.4,2.5,3.3,2.6a3.29,3.29,0,0,1,1.6.7,7.74,7.74,0,0,0-3,1.1,1.21,1.21,0,0,0-.5.5h0a3.7,3.7,0,0,0-.5,1.1h0s-.6,1.7-1.3,3.8a9.74,9.74,0,0,0-2.4-.2h-1c-4,.1-3.6,2.6-3.6,2.6v.2a116.19,116.19,0,0,1,2.6,13.7H896.9a2.61,2.61,0,0,0-1.7.7,2.19,2.19,0,0,0-.7,1.7h0a2.61,2.61,0,0,0,.7,1.7,2.84,2.84,0,0,0,1.7.7h10l-.1.7-2.8,21L901.4,297v.2a.1.1,0,0,0,.1.1.1.1,0,0,1,.1.1h.2a.6.6,0,0,0,.4-.1c.1-.1.2-.2.2-.3l3-17.3,3.4-19.3.8-4.6H912a102.06,102.06,0,0,1,.4,11.3h0v.9h.1a.22.22,0,0,0,.2.2c.1,0,.2.1.3.1h.2v.1c0,.1.9,11.1-2.7,28.9h.7c4.9-14.3,4.7-26.9,4.5-29H919v.1c0,.1.9,11.1-2.7,28.9h.7c4.9-14.3,4.7-26.9,4.5-29H934c-.2,2.1-.4,14.7,4.5,29h.7c-3.6-17.8-2.7-28.8-2.7-28.9v-.1h3.2c-.2,2.1-.4,14.7,4.5,29h.7a130.22,130.22,0,0,1-2.8-26.3l.3,2.4c.5,3.4,9.4,17.1,9.4,17.1l.2.1a5.07,5.07,0,0,1,.2.9,4,4,0,0,1-.3,2.2,4.51,4.51,0,0,0-.3,1.1c-.1,1.1,1.4,1.3,3.1,1.4s1.2.4,3.6.9,3.3-.2,3.5-.5c.1-.1-.1-.3-.5-.5a2.2,2.2,0,0,1,.8.1c1.7.1,1.2.4,3.6.9s3.3-.2,3.5-.5-1-.7-2.1-1.2l-.5-.2c-1.3-.6-2.1-1.8-3.1-2.9a6.22,6.22,0,0,1-1.2-2.3c.2-.1.4-.1.5-.3,0,0-6.5-29.8-10.6-32.4a9.35,9.35,0,0,0-2.7-.9c.1,0-.2-.3-.5-.6h85.8c-6.6,1.4-13.5,3.3-14.7,5-2.3,3.3-6,31.7-6,31.7h.1a10.44,10.44,0,0,1-5.5,3,2.12,2.12,0,0,0-2,2h12.1c.7,0,1.1-2.8,1.3-4.4.1,0,.2-.1.3-.1s8.7-22.5,9.4-24.9c.1-.1.2-.3.3-.4a.76.76,0,0,1,.4-.2h1.9v.1a11.62,11.62,0,0,0,.1,1.3,5.38,5.38,0,0,0-1,2c-.2,1.5.1,7.1.3,12.1-.4,3.4-.9,7.3-1.8,11.6a12.24,12.24,0,0,1-2.7.9,2.25,2.25,0,0,0-2,2h12c.9-.1,1.3-4,1.4-5.2.2,0,.3-.1.5-.3,0,0,.2-2,.3-4.8a88.69,88.69,0,0,0,2.1-16.3,101.1,101.1,0,0,1,10.6-3.5h3.5a78.22,78.22,0,0,0,5,30h.7c-4-18.5-3-29.8-3-29.9v-.1h3.7a78.22,78.22,0,0,0,5,30h.8c-4-18.5-3-29.8-3-29.9v-.1h.2a.37.37,0,0,0,.3-.1c.1-.1.2-.1.2-.2h.1v-1c0-3.7.1-7.1.4-10.4h2.4l.7,3.8,3.9,22.1,2.7,15.4c0,.1.1.2.2.3s.2.1.4.1h.2a.1.1,0,0,0,.1-.1l.1-.1V297l-2-14.9-3.4-25.2-.1-1.1h7.8a2.61,2.61,0,0,0,1.7-.7,2.19,2.19,0,0,0,.7-1.7h0a2.84,2.84,0,0,0-.7-1.7,2.09,2.09,0,0,0-1.6-.8Zm-130.4-1.1a.37.37,0,0,0-.3.1c-.1.1-.2.2-.2.3v.2c0,.1,0,.2.1.2s.1.1.2.1a.35.35,0,0,1,.2.1h-8.6a16.61,16.61,0,0,1-1.3-1.4.52.52,0,0,0,.2-.4c.4-.6.7-1.1.8-1.2.3-.4-1.3-1.1-1.9-1.6a13.76,13.76,0,0,1-1.1-2.8h17.4l-.2,5a1.37,1.37,0,0,1-1.3,1.3l-4,.1Zm10.4,39.9c.2.6.4,1.3.5,1.7a4,4,0,0,1-.3,2.2,4.51,4.51,0,0,0-.3,1.1v.3c-1.2-.6-1.9-1.7-2.9-2.8a4.19,4.19,0,0,1-.9-1.4.52.52,0,0,0,.4-.2s-.6-3.5-1.6-8.2c2.4,3.8,4.8,7.1,4.8,7.1Zm-27.1-41.8a4.35,4.35,0,0,0,.4.7c.4.6,1,1.2,1.5,1.8a1.76,1.76,0,0,0,.5.4h-.3c.4,0-1.4-1.5-2.2-1.8a1.27,1.27,0,0,1,.1-.6.45.45,0,0,1,0-.5Zm12.2,7.9a9.7,9.7,0,0,1,1.7.1c-1.6-.1-3.3-.1-5.1-.2h3c.1.1.2.1.4.1Zm98-12.1a19,19,0,0,1,.8,7.2h-5.2a53.34,53.34,0,0,0,4.4-7.2Zm-10.7,50c.3-1,.6-1.9.8-2.9l.1,1.1a2.77,2.77,0,0,0,.8.1,4.62,4.62,0,0,1-1.7,1.7Z" transform="translate(0 29.6)"/><path class="cls-11" d="M1082.6,224.6a205.25,205.25,0,0,1,2.4-25.8c1.8-10.1,3.3-15.9,3.3-15.9.2-.9,3.6-4.5,10.9-4.4s6.7,4.8,6.7,4.8a.6.6,0,0,1-.1.4,227.59,227.59,0,0,0-6.6,56.5,9.63,9.63,0,0,1,0,1.7s-17.1.4-17.1,0C1081.7,239.2,1082,231.5,1082.6,224.6Z" transform="translate(0 29.6)"/><path class="cls-12" d="M1080.5,240.1c0,.4.2.8.5.8s.5-.4.5-.8h14.7c0,.4.2.8.5.8s.5-.4.5-.8a208.24,208.24,0,0,1,1.2-25c1.9-18.6,5.5-31.1,5.6-31.3s.1-.3.1-.4.7-4.7-6.7-4.8-10.7,3.5-10.9,4.4c0,.1-.9,3.3-2.1,9.2-.4,2-.8,4.2-1.2,6.7a205.25,205.25,0,0,0-2.4,25.8C1080.1,231.5,1079.9,237.3,1080.5,240.1Z" transform="translate(0 29.6)"/><path class="cls-13" d="M1080.5,240.1c0,.4.2.8.5.8s.5-.4.5-.8h14.7c0,.4.2.8.5.8s.5-.4.5-.8a208.24,208.24,0,0,1,1.2-25c-2.4-11.8-11.8-20.9-14-22.9-.4,2-.8,4.2-1.2,6.7a205.25,205.25,0,0,0-2.4,25.8C1080.1,231.5,1079.9,237.3,1080.5,240.1Z" transform="translate(0 29.6)"/><path class="cls-11" d="M1095.2,239.9h0l-.1-.1h0c0-.6-1.2-.7-3.2-.7h-3.2a38.92,38.92,0,0,1-6.8-.5c-1.6-.3-.5-12.4.6-23.7.2-1.9.3-3.4.4-4.3.7-9.5,4.9-26.7,5-26.9.2-.7,2.7-3.4,8.2-3.3,2.1,0,3.5.5,4.3,1.5a3.33,3.33,0,0,1,.6,1,1.45,1.45,0,0,1,.1,1.1v.3c0,.1-3.8,22.2-4.4,27.5-1.1,9-1.4,27.6-1.4,27.9l-.1.2Zm-3.2-1c1.7,0,2.8.1,3.2.5.1-2.7.5-19.2,1.4-27.5.6-5.4,4.4-27.5,4.4-27.6V184a4.1,4.1,0,0,0-.1-1.1,3.13,3.13,0,0,0-.5-1q-1.2-1.35-4.2-1.5h-.2c-5.2,0-7.6,2.5-7.8,3.2,0,.2-4.2,17.2-5,26.8-.1.9-.2,2.4-.4,4.3-.7,7.6-2.3,23.3-.7,23.5a37.8,37.8,0,0,0,6.7.5h1.8a3.4,3.4,0,0,0,1.4.2Z" transform="translate(0 29.6)"/><path class="cls-12" d="M1098.3,240.9h-57.4s1.3-5.4,34.6-4.6C1099,236.8,1098.3,240.9,1098.3,240.9Z" transform="translate(0 29.6)"/><path class="cls-11" d="M1103,297.4c-6.7-33.7-4.9-54.4-4.9-54.6,0-.5-.9-1-1.4-1s-2.8-.1-3.1.3c-.3.6-1.7,26.1,8.2,55.4Z" transform="translate(0 29.6)"/><path class="cls-11" d="M1049.3,297.4c6.7-33.7,4.9-54.4,4.9-54.6,0-.5.9-1,1.4-1s2.8-.1,3.1.3c.3.6,1.7,26.1-8.2,55.4Z" transform="translate(0 29.6)"/><path class="cls-14" d="M1038.7,297.4c6.7-33.7,4.9-54.4,4.9-54.6,0-.5.9-1,1.4-1s2.8-.1,3.1.3c.3.6,1.7,26.1-8.2,55.4Z" transform="translate(0 29.6)"/><path class="cls-14" d="M1092.3,297.4c-6.7-33.7-4.9-54.4-4.9-54.6,0-.5-.9-1-1.4-1s-2.8-.1-3.1.3c-.3.6-1.7,26.1,8.2,55.4Z" transform="translate(0 29.6)"/><path class="cls-11" d="M1040.8,242.6h57.4a1.16,1.16,0,0,0,1.2-1.2v-.8a1.22,1.22,0,0,0-1.2-1.2h-57.4a1.16,1.16,0,0,0-1.2,1.2v.8A1.29,1.29,0,0,0,1040.8,242.6Z" transform="translate(0 29.6)"/><path class="cls-15" d="M1029.9,190.8c-2.4-1.4-3.7-2.6-5.4-2.8s-5-.5-5.4-1.1c-1.1-1.7-2.3-4.9-1.5-4.7s3.8,2.3,4.8,2-1.5-1.1-.9-1.6,3.2.7,3.9,2.1c.2.5,7.8,2.8,7.8,2.8Z" transform="translate(0 29.6)"/><path class="cls-15" d="M1064.4,277a1.27,1.27,0,0,1,.4.9,1.8,1.8,0,0,1-.1,1h0c-.4,1.2-1.9,2.6-3.6,3.9-.2.2-.4.3-.6.5l-.1.1-.1.1c-1.6,1.4-1,1.8-3.8,4.7-3.2,3.3-5.4,3.4-6.1,3.1-.5-.3.6-2,1.8-4l.2-.3.5-.8c1.4-2.4,1.1-3.5.7-7.1-.3-2.9-4.5-16.2-4.5-16.2l6.2-1.1s1.8,10.6,3.9,12.2c1.1.9,2.3.9,3.4,1.5l.2.1a10,10,0,0,1,1.6,1.4Z" transform="translate(0 29.6)"/><path class="cls-16" d="M1064.4,277a1.27,1.27,0,0,1,.4.9,3.4,3.4,0,0,1-.1,1h0c-.5,1.2-1.9,2.5-3.6,3.9-.2.2-.4.3-.6.5l-.1.1-.1.1c-1.6,1.4-1,1.8-3.8,4.7-3.2,3.3-5.4,3.4-6.1,3.1-.5-.3.6-2,1.8-4a13.92,13.92,0,0,0,5.7-4.2c1.9-2.5,3.2-5.6,4.5-7.5l.2.1a4.63,4.63,0,0,1,1.8,1.3Z" transform="translate(0 29.6)"/><path class="cls-15" d="M1014.8,273.1c-.4,1.9-3.1,1.6-6.1.8s-2.3.1-6.6-.3-5.6-2.1-5.7-2.7,2-.8,4.3-1l.9-.1c2.6-.3,4.5-2,6.8-3.4s5.5-6.5,5.5-6.5l5.9.5s-3.1,4.7-4.3,6.7a7,7,0,0,0-.6,4,13.4,13.4,0,0,1-.1,2Z" transform="translate(0 29.6)"/><path class="cls-16" d="M1008.7,274c-3-.7-2.3.1-6.6-.3s-5.6-2.1-5.7-2.7,2-.8,4.3-1h0a12.21,12.21,0,0,0,6.2,1.9c2.9.1,6-.8,8-.7a6.69,6.69,0,0,1,0,2C1014.4,275,1011.7,274.7,1008.7,274Z" transform="translate(0 29.6)"/><path class="cls-17" d="M1037.4,235.4l12.7,34.2a9.68,9.68,0,0,0,3.8-.4,17.31,17.31,0,0,0,3.7-1.8s-3.2-32.9-8.9-39.7S1037.4,235.4,1037.4,235.4Z" transform="translate(0 29.6)"/><path class="cls-16" d="M1087.7,221.6s-36.5-12.3-44.7-9.7-32.6,51.3-32.6,51.3a4.64,4.64,0,0,0,2.1,1.3,21,21,0,0,0,4.8.5s22.1-18.9,24.7-24.4,3.7-10.8,6.3-10.2,33.9,12.9,41,5.5a20.35,20.35,0,0,0,5.2-16.9Z" transform="translate(0 29.6)"/><path class="cls-18" d="M1065.4,164.1c-.6-1.2-1.2-3.3-1.6-7.2.1.4.7,5.2,2.6,7.9,7.6,5,22.2,21.6,21.9,24.8,0,0,5.1-8.7,5.2-8.8s9.5-12-1.8-18.9c-5.7-3.5-5.7-8-5.4-11.9s-1.6-20.7-13-16.3a7.69,7.69,0,0,0-2.7-.7,1.91,1.91,0,0,1,1,.5,8.7,8.7,0,0,0-4.8.9C1062.7,136.8,1058.9,158.2,1065.4,164.1Z" transform="translate(0 29.6)"/><path class="cls-15" d="M1066.8,165.1s3.7,1.9,6.4,1.2,4.3-4.1,4.3-4.1c-1.1-.2-1.4-1.8-1.4-8.3l-.5.1-8.4,1.7s.2,2.7.2,5.2C1067.4,162.9,1067.3,164.9,1066.8,165.1Z" transform="translate(0 29.6)"/><path class="cls-19" d="M1067.2,155.6s.2,2.7.2,5.2c4.7-.1,7.2-4.4,8.2-6.8Z" transform="translate(0 29.6)"/><path class="cls-18" d="M1076.5,153a24.44,24.44,0,0,0,3.1-7.3c.4-2.4-.8-11.2-9.7-10a11.32,11.32,0,0,0-5,1.9c-1.9,1.3-4.7,4.1-1.6,11.8l.8,2.6Z" transform="translate(0 29.6)"/><path class="cls-15" d="M1065.6,158s11.2.2,11.2-6.8,1.5-11.6-5.7-12-8.5,2.2-9.1,4.6S1062.7,157.8,1065.6,158Z" transform="translate(0 29.6)"/><path class="cls-18" d="M1066.1,139s3.1,8.2,7.8,9.4,6.7-.1,6.7-.1a13.19,13.19,0,0,1-4.3-7.9C1076.2,140.5,1068.4,135.1,1066.1,139Z" transform="translate(0 29.6)"/><path class="cls-18" d="M1066.8,139.7s-2.3,1.8-2.8,3.6-.8,5.4-1.9,5.3c0,0-2.3-5.6.3-8.7C1065.1,136.6,1066.8,139.7,1066.8,139.7Z" transform="translate(0 29.6)"/><path class="cls-20" d="M1091.7,195.2c1.1-4.6-2.7-13.6-6.6-21-3.6-6.7-7.2-12.2-7.6-12-9.4,5.6-10.2.9-10.2.9s-8.5,1.1-10.9,5.3c-3.3,5.7-7,22.9-10.5,22.7-1.6-.1-18.1-6.3-18.1-6.3s-2.7,2.6-2.2,5.7c0,0,8.1,5.4,15,8.9,3.6,1.8,6.9,3.1,8.5,2.8,3.1-.7,8-8,10.7-12.3h0c3.4,19.1-1.2,23.4,1.1,25.5,2.5,2.1,6-1,13.7,2.3,5.1,2.2,12.1,5.4,16.8,5.9,2.5.3,4.3-.1,4.9-1.8C1098,216.9,1089.6,204,1091.7,195.2Z" transform="translate(0 29.6)"/><path class="cls-21" d="M1068.1,153.8s-.2.9-2.4.8c0,0-1.8-.1-1.8-1.1C1063.9,153.4,1065.7,152.7,1068.1,153.8Z" transform="translate(0 29.6)"/><path class="cls-22" d="M1096.3,221.8c-.6,1.7-2.5,2.1-4.9,1.8-3.3-1.4-17.4-6.9-17.2-10.6.2-5.5,2.7-5.7,1-12.4-1.4-5.4,11.6-15.6,13.7-17.8,3.9,7.4,4,7.8,2.9,12.4C1089.6,204,1098,216.9,1096.3,221.8Z" transform="translate(0 29.6)"/><path class="cls-22" d="M1059.7,189.9c-2.6,4.3-7.5,11.5-10.7,12.3-1.6.4-4.8-.9-8.5-2.8a20.23,20.23,0,0,0,7.7.4c2.7-.3,3.5-3.6,7.8-8.6C1058.9,188,1059.6,188.8,1059.7,189.9Z" transform="translate(0 29.6)"/><path class="cls-15" d="M1072.8,200.4s-2.4-1.8-4.6-1.4-3.3,2-3.2,2.7a4.15,4.15,0,0,0,3,2.9c1.7.2,6.6-1.1,6.6-1.1Z" transform="translate(0 29.6)"/><path class="cls-20" d="M1077.6,162.2s9.1.6,12.3,5c4.4,6.2,12.2,31.5,10,37.2l-27.7-.1s-.7-3.1.3-4.7,16.1-4,16.8-4.7-8.8-13.7-8.8-15.8S1077.6,162.2,1077.6,162.2Z" transform="translate(0 29.6)"/><path class="cls-23" d="M1068.9,210.9h-33.6l-6.1-21.1h33.5Z" transform="translate(0 29.6)"/><path class="cls-18" d="M1079.3,210.1h-43.9v.8h43.9Z" transform="translate(0 29.6)"/><path class="cls-18" d="M1046,200a1,1,0,0,1,.9-1.3,2.1,2.1,0,0,1,1.1.4,3.11,3.11,0,0,1,.7.9,1,1,0,0,1-.9,1.3,2.1,2.1,0,0,1-1.1-.4A1.27,1.27,0,0,1,1046,200Z" transform="translate(0 29.6)"/><path class="cls-16" d="M971,210.9h33.6l6-21.1H977.1Z" transform="translate(0 29.6)"/><path class="cls-16" d="M960.5,210.9h43.9v-.8H960.5Z" transform="translate(0 29.6)"/><path class="cls-17" d="M993.8,200a1,1,0,0,0-1-1.3,2.1,2.1,0,0,0-1.1.4,3.11,3.11,0,0,0-.7.9,1,1,0,0,0,1,1.3,2.1,2.1,0,0,0,1.1-.4,1.27,1.27,0,0,0,.7-.9Z" transform="translate(0 29.6)"/><path class="cls-15" d="M980.1,173.2s3.4-2.8,4.6-2.8,3.5-.6,3.5-.2-2,.9-1.7,1.1,3.2-.6,4-.1,2.7,2.4,1.2,3.2-6,2.1-7.2,2l-3.8-.3Z" transform="translate(0 29.6)"/><path class="cls-15" d="M936.6,276.6l2.9,12h4.3l.2-12Z" transform="translate(0 29.6)"/><path class="cls-15" d="M972.6,277.2l8.2,11.4,3-3.9-4.9-9Z" transform="translate(0 29.6)"/><path class="cls-18" d="M956,131.7h0c-.1-.7-.1-1.3-.2-1.9a45.91,45.91,0,0,0-1-5.1,18.29,18.29,0,0,0-.8-2.5c0-.1-.1-.2-.1-.3a7.37,7.37,0,0,0-2.3-3.4,9.53,9.53,0,0,0-4.5-.9,1.78,1.78,0,0,1,1-.4,7.44,7.44,0,0,0-2.5.6c-10.7-4.1-12.4,11.6-12.1,15.3s-3.6,4.9-9.2,7.7c-10.6,5.5-11.5,12.8-11.5,12.8s.2.1.3.2c.5-.9,1.6-2.6,2.5-2.8l-1.5,3.6c1.3,1,3.2,2.6,5.2,4.3,2.7,2.3,5.6,4.9,7.9,7.1a5.59,5.59,0,0,1,.3-2.3l.4,2.7.1.4c1.5,1.4,2.7,2.5,3.2,3l.2.1.3.2c-.1-.9,1.2-3.2,3.3-5.9.1-.2.3-.4.4-.6.7-.9,1.4-1.8,2.2-2.7.3-.3.6-.7.9-1a5.72,5.72,0,0,1,.7-.8c.6-.7,1.2-1.3,1.8-2,1.6-1.7,3.2-3.4,4.8-4.9a50.65,50.65,0,0,1,6.4-5.3c.1-.1.1-.2.2-.3l.9-1.8a1.42,1.42,0,0,0,.2-.6,25.61,25.61,0,0,0,1.1-4.6,24.3,24.3,0,0,1-.8,4.7c-.1.2-.1.5-.2.7a6.12,6.12,0,0,1-.5,1.2,3.92,3.92,0,0,0,.8-1,5.58,5.58,0,0,0,.5-.8C956,141.5,956.4,136.5,956,131.7Z" transform="translate(0 29.6)"/><path class="cls-15" d="M951.5,147.2s-3.4,1.8-6,1.1-4-3.9-4-3.9c1-.2,1.3-1.6,1.3-7.8l.5.1,7.9,1.6s-.2,2.5-.2,4.8C951,145.2,951.1,147,951.5,147.2Z" transform="translate(0 29.6)"/><path class="cls-19" d="M951.1,138.4s-.2,2.5-.2,4.8c-4.4-.1-6.8-4.1-7.7-6.4Z" transform="translate(0 29.6)"/><path class="cls-18" d="M942.4,135.9a24.89,24.89,0,0,1-2.9-6.8c-.4-2.2.7-10.5,9.1-9.3a10,10,0,0,1,4.7,1.8c1.8,1.2,4.4,3.8,1.5,11.1l-.8,2.4Z" transform="translate(0 29.6)"/><path class="cls-24" d="M982.6,281.5l-4.2.1-4.5.1a87.73,87.73,0,0,1-16.3-30.3c-.1-.4-.3-.9-.4-1.3-3.2-9.4-9.9-21.1-13.4-31.8-.5-1.7-1.1-3.3-1.5-4.8-.1-.5-.3-.9-.4-1.4a112.56,112.56,0,0,1-4-21.2l25.3.2C963.1,191.1,967.2,234.1,982.6,281.5Z" transform="translate(0 29.6)"/><path class="cls-25" d="M959.6,176.6c-.1,12.1,1.8,17.2,1.8,17.2a34.12,34.12,0,0,1-23.7,1.5c-.2-.1-10.7-2.4-10.7-2.4.2-.5,2.1-8.6,2.3-9.1,2.7-5.9,4.8-8.4,5.1-10.2a37.88,37.88,0,0,0,.3-10.1,86,86,0,0,0-3.1-15.9,100.82,100.82,0,0,0,10.6-3.5c.8,1.1,3.3,2.1,5.6,2.1,2.6-.1,3.4-1.2,3.3-2.4,2.7,1.5,4.9,3,4.9,3,2.3,4,7,8,7.4,14.2C963.3,162.4,959.6,176.2,959.6,176.6Z" transform="translate(0 29.6)"/><path class="cls-15" d="M952.6,140.6s-10.4.2-10.5-6.3-1.4-10.9,5.3-11.3,8,2.1,8.5,4.3S955.3,140.4,952.6,140.6Z" transform="translate(0 29.6)"/><path class="cls-18" d="M952.2,122.8s-2.9,7.6-7.3,8.8-6.3-.1-6.3-.1a12.51,12.51,0,0,0,4.1-7.3S950.1,119.2,952.2,122.8Z" transform="translate(0 29.6)"/><path class="cls-18" d="M951.5,123.4a9.9,9.9,0,0,1,2.7,3.4c.5,1.7.8,5.1,1.8,5,0,0,2.2-5.2-.3-8.1C953.1,120.5,951.5,123.4,951.5,123.4Z" transform="translate(0 29.6)"/><path class="cls-15" d="M939.3,288a11.41,11.41,0,0,1-.5,4.9s-.7,3.2,2.4,3.2,3.9-.2,3.6-2.2-1-5.3-1-5.3Z" transform="translate(0 29.6)"/><path class="cls-26" d="M945.2,298.1h-6.9a14.51,14.51,0,0,1,.5-5V293h0c3.5,3.3,5.8-.1,5.8-.1h0A21.76,21.76,0,0,1,945.2,298.1Z" transform="translate(0 29.6)"/><path class="cls-15" d="M991.5,294.3s-5.8-6.4-7.6-9.7l-4.3,2.2,9.6,9,2.3-.3Z" transform="translate(0 29.6)"/><path class="cls-26" d="M995.2,298.1h-7.3c-1.1,0-1.9-1.8-3.1-4.1a3.81,3.81,0,0,0-2.6-1.8V298h-1.7l-1.5-6.2c-1-1.9-.1-3.6.6-5.1.8,0,3.1.6,7.4,5.4a5.75,5.75,0,0,0,4.5,2.1h.1C995.1,296,995.2,298.1,995.2,298.1Z" transform="translate(0 29.6)"/><path class="cls-27" d="M978.4,281.6l-4.5.1a87.73,87.73,0,0,1-16.3-30.3c-.1-.4-.3-.9-.4-1.3-3.2-9.4-9.9-21.1-13.4-31.8-.5-1.7-1.1-3.3-1.5-4.8-.1-.5-.3-.9-.4-1.4l3.7-2.8s11.2,18.1,14.7,35.2C963.2,259.3,975.3,277.1,978.4,281.6Z" transform="translate(0 29.6)"/><path class="cls-24" d="M945.9,246.1c.1,8.3-.4,27.4-1.4,35.3h-7.3c-2.7-13.7-4.7-25.1-6-34.9-1.2-8-2.2-14.9-3-20.9s-1.3-11-1.5-15.2a11.48,11.48,0,0,0-.1-1.9,10.82,10.82,0,0,1,0-1.8l21.9-2.1C948.2,219,945.9,241.2,945.9,246.1Z" transform="translate(0 29.6)"/><path class="cls-27" d="M940.5,281.4h-3.3c-2.7-13.7-4.7-25.1-6-34.9-1.2-8-2.2-14.9-3-20.9s-1.3-11-1.5-15.2l8,4.7s-5.1,1.8-3.2,15.5S937.8,279.4,940.5,281.4Z" transform="translate(0 29.6)"/><path class="cls-8" d="M941.5,210.2s-1.5,5.6-6.9,4.9-12.9-3.9-12.9-3.9,2.3-7.2,5.1-16.7c3.4-11.5,4.3-27.6,6.3-36.9.6-2.6,4.3-3.5,4.5-5l4.5-8.6s6.5,14.8,6.9,18.6S941.5,210.2,941.5,210.2Z" transform="translate(0 29.6)"/><path class="cls-28" d="M937.8,173.6c-.2,6.1-2.3,16.4-10.9,20.9a.1.1,0,0,0-.1.1c3.4-11.5,3.4-22.5,5.4-31.8C936.8,161.8,937.9,170.2,937.8,173.6Z" transform="translate(0 29.6)"/><path class="cls-26" d="M993,169.9h-8.2v.4c0,.7-.1,2.2-.1,2.3a3.72,3.72,0,0,0,2.5,3.2h0a2.35,2.35,0,0,0,.8.2,4.33,4.33,0,0,1,.5.1h.3a3.29,3.29,0,0,0,1.7-.4,5.17,5.17,0,0,0,1.8-1.5,4.39,4.39,0,0,0,.7-2.2v-2.1Z" transform="translate(0 29.6)"/><path class="cls-29" d="M992.3,169.9h-1.1V172a4,4,0,0,1-1.2,2.9,3.81,3.81,0,0,1-1.3.9,6.89,6.89,0,0,1-.8.3c-.1,0-.2.1-.3.1h.8a2.77,2.77,0,0,0,1.3-.3,4,4,0,0,0,1.8-1.6,3.55,3.55,0,0,0,.4-.9,5,5,0,0,0,.2-1.2v-1.6C992.4,170.3,992.4,170.1,992.3,169.9Z" transform="translate(0 29.6)"/><path class="cls-26" d="M987.2,176.4h3.4v-.5h-3.4Z" transform="translate(0 29.6)"/><path class="cls-8" d="M981.2,171.6s-11.8,3.9-13.2,3.6-3.6-16.2-4.7-21.7c-1.5-7-7-8.4-7-8.4l-5.3-1.4s6,14.9,6.2,18,.7,49.4.7,49.4-.4,2.1,3.7,1.2,5.2-1.8,5.2-1.8-1.8-13-2.6-24.5c4.2-.7,17.6-7.5,17.6-7.5C983.8,175.3,981.2,171.6,981.2,171.6Z" transform="translate(0 29.6)"/><path class="cls-15" d="M928.3,187.4s4.6-.8,5.8.3,2.7,6,1.4,6.2-4.3-3-5.1-2.8-2.1.7-2.5,0a20.38,20.38,0,0,0-2.6-2.9Z" transform="translate(0 29.6)"/><path class="cls-15" d="M931.7,186.2a21.44,21.44,0,0,1-3.4,1.2c-.5,0,1.2,1.1,1.2,1.1l.9-.8C930.4,187.6,931.9,187.2,931.7,186.2Z" transform="translate(0 29.6)"/><path class="cls-8" d="M942.1,144s-10.3.4-12.8,2.8-17.3,20-17.5,24.7,13,17.9,13,17.9,3.7-.9,5.3-3.2c0,0-8.2-14.6-7.7-15.2s14.4-12,15.5-9.5C938.9,163.6,942.1,144,942.1,144Z" transform="translate(0 29.6)"/><path class="cls-30" d="M938,215.5l-2.3,13.2-6.5,36.6L923.4,298a.82.82,0,0,1-.4.6,1.45,1.45,0,0,1-.7.2.37.37,0,0,1-.3-.1c-.1-.1-.2-.1-.2-.2s-.1-.2-.2-.3v-.3l5-37,5.3-39.6.8-6Z" transform="translate(0 29.6)"/><path class="cls-14" d="M935.7,228.8c.3-5.7-3.7-7.4-3.7-7.4l.8-6,5.2.1Z" transform="translate(0 29.6)"/><path class="cls-30" d="M1118.2,298.8a1.85,1.85,0,0,1-.7-.2,2.09,2.09,0,0,1-.4-.6l-5.1-29-7.4-41.8-2.1-11.7,5.2-.1.9,6.8,6.4,47.6,3.8,28.2v.3c0,.1-.1.2-.2.3s-.2.1-.3.2c.1,0,0,.1-.1,0Z" transform="translate(0 29.6)"/><path class="cls-14" d="M1108.8,222.1a7.58,7.58,0,0,0-4.1,5.1l-2.1-11.7,5.2-.1Z" transform="translate(0 29.6)"/><path class="cls-31" d="M1118.1,210.9H911.4a4,4,0,0,0-4,3.9v1.3a3.93,3.93,0,0,0,4,3.9h206.7a3.9,3.9,0,0,0,3.9-3.9v-1.3A4,4,0,0,0,1118.1,210.9Z" transform="translate(0 29.6)"/><path class="cls-11" d="M550.5,247.2a127.15,127.15,0,0,0-1.7-17.2c-1.2-6.7-2.2-10.6-2.2-10.6-.2-.6-2.4-3-7.4-2.9s-4.5,3.2-4.5,3.2v.3a151.8,151.8,0,0,1,4.4,37.6v1.1s11.5.3,11.5,0C551.1,256.9,550.9,251.8,550.5,247.2Z" transform="translate(0 29.6)"/><path class="cls-12" d="M552,257.5c0,.3-.2.5-.3.5s-.3-.2-.3-.5h-9.9c0,.3-.2.5-.3.5s-.3-.2-.3-.5a155.58,155.58,0,0,0-.8-16.7,129.6,129.6,0,0,0-3.8-20.8v-.3s-.5-3.1,4.5-3.2,7.2,2.3,7.4,2.9c0,0,.6,2.2,1.4,6.1.3,1.3.5,2.8.8,4.5a151.5,151.5,0,0,1,1.6,17.2C552.2,251.8,552.4,255.7,552,257.5Z" transform="translate(0 29.6)"/><path class="cls-13" d="M552,257.5c0,.3-.2.5-.3.5s-.3-.2-.3-.5h-9.9c0,.3-.2.5-.3.5s-.3-.2-.3-.5a155.58,155.58,0,0,0-.8-16.7c1.6-7.9,8-13.9,9.5-15.3.3,1.3.5,2.8.8,4.5a151.5,151.5,0,0,1,1.6,17.2C552.2,251.8,552.4,255.7,552,257.5Z" transform="translate(0 29.6)"/><path class="cls-11" d="M542,257.4h0c0-.3-.3-12.7-1-18.6-.4-3.5-3-18.3-3-18.4v-.2a2.2,2.2,0,0,1,.1-.8,2.51,2.51,0,0,1,.4-.7,4,4,0,0,1,3-1h.2c3.6,0,5.2,1.7,5.4,2.2,0,.1,2.9,11.5,3.4,17.9,0,.6.2,1.6.3,2.9.8,7.6,1.5,15.6.4,15.8a34.4,34.4,0,0,1-4.6.3h-2.2c-1.5.1-2.4.2-2.4.6Zm-.5-39.5h-.2a3.88,3.88,0,0,0-2.9,1,.86.86,0,0,0-.3.6,1.7,1.7,0,0,0-.1.7v.2s2.6,14.7,3,18.4c.6,5.5.9,16.5,1,18.3.3-.3,1-.3,2.2-.3h2.2a34,34,0,0,0,4.5-.3c1-.2,0-10.6-.5-15.7-.1-1.3-.2-2.3-.3-2.9-.5-6.4-3.3-17.8-3.3-17.9-.1-.5-1.8-2.1-5.3-2.1Z" transform="translate(0 29.6)"/><path class="cls-12" d="M539.9,258h38.8s-.9-3.6-23.4-3.1C539.5,255.4,539.9,258,539.9,258Z" transform="translate(0 29.6)"/><path class="cls-11" d="M536.8,295.7c4.5-22.5,3.3-36.2,3.3-36.4s.6-.7,1-.7,1.9-.1,2.1.2,1.1,17.4-5.6,36.9Z" transform="translate(0 29.6)"/><path class="cls-11" d="M573,295.7c-4.5-22.5-3.3-36.2-3.3-36.4s-.6-.7-1-.7-1.9-.1-2.1.2-1.1,17.4,5.6,36.9Z" transform="translate(0 29.6)"/><path class="cls-14" d="M580.2,295.7c-4.5-22.5-3.3-36.2-3.3-36.4s-.6-.7-1-.7-1.9-.1-2.1.2-1.1,17.4,5.6,36.9Z" transform="translate(0 29.6)"/><path class="cls-14" d="M544,295.7c4.5-22.5,3.3-36.2,3.3-36.4s.6-.7,1-.7,1.9-.1,2.1.2,1.1,17.4-5.6,36.9Z" transform="translate(0 29.6)"/><path class="cls-11" d="M578.8,257.1H540a.86.86,0,0,0-.8.8v.5a.79.79,0,0,0,.8.8h38.8a.86.86,0,0,0,.8-.8v-.5C579.5,257.5,579.2,257.1,578.8,257.1Z" transform="translate(0 29.6)"/><path class="cls-15" d="M570.8,233.5s7.1,8.1,8.5,8,2.4-.6,3.7,0c.9.4,3.9,2.8,3.1,2.6s-2.2-.3-2.6-.4-1.3-.1-1.9-.2a14.77,14.77,0,0,0-2.1-.1c-1.9-.1-10.7-5.2-10.7-5.2Z" transform="translate(0 29.6)"/><path class="cls-23" d="M565.8,192.4s-.3-4.1-6.2-3c-1.5.3-2.6-2.5-5.1-1.5-5.5,2.1-5.8-.7-7.3,3.2-.7,1.6-4.9,3.6-3.6,6.4s-.9,4.8.6,7c.8,1.1.5,3.2,4.1,3.3,1.8,0,4.7,3.4,6.7,4s8.2-.3,8-3.1c-.2-2.2,2.4-2,4-4.6,1.4-2.2-1.1-2.8.2-6.3C568.3,195.2,565.8,194.6,565.8,192.4Z" transform="translate(0 29.6)"/><path class="cls-15" d="M598,292.5c-.1,1.4,1.8,1.7,4,1.8s1.5.6,4.5,1.1,4.2-.3,4.4-.7-1.2-.9-2.7-1.6l-.6-.2c-1.7-.7-2.6-2.2-3.9-3.6s-2.4-5.5-2.4-5.5l-4.1-.9s1.2,3.8,1.5,5.4a5.71,5.71,0,0,1-.4,2.9,13,13,0,0,0-.3,1.3Z" transform="translate(0 29.6)"/><path class="cls-16" d="M602,294.3c2.2.1,1.5.6,4.5,1.1s4.2-.3,4.4-.7-1.2-.9-2.7-1.6h0a8,8,0,0,1-4.6,0c-2-.5-3.9-1.7-5.3-2.1a5.73,5.73,0,0,0-.4,1.4C597.9,293.8,599.8,294.1,602,294.3Z" transform="translate(0 29.6)"/><path class="cls-18" d="M557.3,244s27.2-2,32.3,1.2S602.9,286,602.9,286a3,3,0,0,1-1.6.5,15.43,15.43,0,0,1-3.4-.5s-11.8-16.8-12.6-21-.6-8-2.5-8.1-25.5,2.9-29-3.4a14.29,14.29,0,0,1-.6-12.5Z" transform="translate(0 29.6)"/><path class="cls-15" d="M588.7,292.6c-.1,1.4,1.8,1.7,4,1.8s1.5.6,4.5,1.1,4.2-.3,4.4-.7-1.2-.9-2.7-1.6l-.6-.2c-1.7-.7-2.6-2.2-3.9-3.6s-2.4-5.5-2.4-5.5l-4.1-.9s1.2,3.8,1.5,5.4a5.71,5.71,0,0,1-.4,2.9,2.77,2.77,0,0,0-.3,1.3Z" transform="translate(0 29.6)"/><path class="cls-16" d="M592.6,294.4c2.2.1,1.5.6,4.5,1.1s4.2-.3,4.4-.7-1.2-.9-2.7-1.6h0a8,8,0,0,1-4.6,0c-2-.5-3.9-1.7-5.3-2.1a5.73,5.73,0,0,0-.4,1.4C588.5,294,590.4,294.3,592.6,294.4Z" transform="translate(0 29.6)"/><path class="cls-23" d="M553,241.5s24.1,1.1,29.1,4.6,11.7,41.3,11.7,41.3a3.37,3.37,0,0,1-1.7.5,12,12,0,0,1-3.3-.6S577.7,270,577,265.8s-.3-8-2.2-8.2-25.5,1.9-28.9-4.5C542.7,246.5,553,241.5,553,241.5Z" transform="translate(0 29.6)"/><path class="cls-15" d="M545.8,210.7h0c.2-.2.5-.4.7-.6a13.6,13.6,0,0,1,5.5-1.7,6.73,6.73,0,0,0,1-.1,17.51,17.51,0,0,0,1.2-5.6l.3.1,5.9,1.6s-.3,1.9-.4,3.6v1.1l.5.2s3.4.4,4.2,1.3,2.4,6.5,2.8,7.6l-22.6.4C544.7,218.5,544.2,212.6,545.8,210.7Z" transform="translate(0 29.6)"/><path class="cls-32" d="M573.8,233.6c-.1.1-.5.8-1,1.5-.2.2-.3.5-.5.7a6.59,6.59,0,0,1-2.6,2.4,2,2,0,0,1-1.1.1,5.67,5.67,0,0,1-2.2-1.5,13,13,0,0,1-1.9-2.2,4.05,4.05,0,0,1-.5-.9c0,.2-.1.5-.1.7a9.86,9.86,0,0,0,0,2.5,4.53,4.53,0,0,0,1.9,1.6c1.8,1,4,2.1,3.3,2.9s-2.6,1-4.8,1.4a13.6,13.6,0,0,0-4.7,1.4l-.2.1c-3,1.8-12,7.2-14.7,7-1-.1-.9-2.1-.2-4.8,1-4.2,3.1-10.1,3.1-12.6,0-1.4-3.1-15.2-3.1-15.2s-.6-5.9,1.1-7.8l.7-.6c.1.1,6.9,3.9,10.9,4.1s7.1-3.6,7.1-3.6c.8.9,2.4,6.5,2.8,7.5,0,0,3.2,12.8,4.1,13.4S574.2,233.1,573.8,233.6Z" transform="translate(0 29.6)"/><path class="cls-33" d="M560.4,204.4s-.3,1.9-.4,3.6c-3.3-.3-4.9-3.5-5.5-5.2Z" transform="translate(0 29.6)"/><path class="cls-15" d="M561.4,206.2s-7.9-.4-7.6-5.3-.5-8.3,4.6-8.2,5.9,2,6.2,3.6S563.5,206.1,561.4,206.2Z" transform="translate(0 29.6)"/><path class="cls-23" d="M561.7,194.4s-1.9-.4-2.5.5-.2,1.4-1.5,1.8-1.8.4-1.7,1.3-1.4,1.7-1.5,2.4a1.8,1.8,0,0,1-.4.9,1,1,0,0,1-.9.4c-.6.1-.3-9.9,2-10.4a8,8,0,0,1,5.3.6A6.62,6.62,0,0,1,561.7,194.4Z" transform="translate(0 29.6)"/><path class="cls-23" d="M561.7,194.4s1.8-.1,2.2.9-.1,1.3.4,1.9a2.45,2.45,0,0,1,.2,1.8s3.6-6.7-.2-7.1S560.5,192.2,561.7,194.4Z" transform="translate(0 29.6)"/><path class="cls-34" d="M572.9,235.1c-.2.2-.3.5-.5.7a6.59,6.59,0,0,1-2.6,2.4,2,2,0,0,1-1.1.1,5.67,5.67,0,0,1-2.2-1.5,13,13,0,0,1-1.9-2.2,4.05,4.05,0,0,1-.5-.9c0,.2-.1.5-.1.7v-1.1s.4-19.5,1.1-10.9C565.6,228.5,570.4,233.1,572.9,235.1Z" transform="translate(0 29.6)"/><path class="cls-34" d="M549,221.6s-9.7,16.7,10.7,22.5l.2-.1a16.18,16.18,0,0,1,4.7-1.4c2.1-.4,4.1-.6,4.8-1.3.8-.9-1.5-1.9-3.3-2.9-.9-.5-2.8-1-3-1.6C562.8,236.4,549,221.6,549,221.6Z" transform="translate(0 29.6)"/><path class="cls-30" d="M536.2,240.2l-1.6,8.8-4.3,24.4-3.8,21.8a.52.52,0,0,1-.2.4.76.76,0,0,1-.5.2h-.2c-.1,0-.1-.1-.2-.1s-.1-.1-.1-.2v-.2l3.3-24.7,3.5-26.4.5-4Z" transform="translate(0 29.6)"/><path class="cls-14" d="M534.6,249c.2-3.8-2.5-4.9-2.5-4.9l.5-4,3.5.1Z" transform="translate(0 29.6)"/><path class="cls-30" d="M746,295.7c-.2,0-.3-.1-.5-.2s-.2-.2-.2-.4l-3.4-19.3L737,248l-1.4-7.8,3.5-.1.6,4.5,4.3,31.7,2.5,18.8v.2c0,.1,0,.1-.1.2s-.1.1-.2.1-.1.1-.2.1Z" transform="translate(0 29.6)"/><path class="cls-14" d="M739.8,244.6a4.84,4.84,0,0,0-2.7,3.4l-1.4-7.8,3.5-.1Z" transform="translate(0 29.6)"/><path class="cls-31" d="M749.3,243.2H519.6a3.07,3.07,0,0,1-3.1-3.1h0a3.1,3.1,0,0,1,.9-2.2,2.94,2.94,0,0,1,2.2-.9H749.3a3.07,3.07,0,0,1,3.1,3.1h0a3.1,3.1,0,0,1-.9,2.2,2.94,2.94,0,0,1-2.2.9Z" transform="translate(0 29.6)"/><path class="cls-35" d="M616,227.9H568l4.5-36.3h48Z" transform="translate(0 29.6)"/><path class="cls-36" d="M621.4,191.6l-4.5,36.2h-48l1-8.3,3.4-28h48.1Z" transform="translate(0 29.6)"/><path class="cls-37" d="M621.4,191.6l-4.5,36.2h-48l1-8.3c39.6,2.4,40.9-22.6,40.7-28h10.8Z" transform="translate(0 29.6)"/><path class="cls-35" d="M598.9,207.3a2.38,2.38,0,0,0-1.9-2.4h-2a2.77,2.77,0,0,0-.9.1,3,3,0,0,0-.8.4,1.16,1.16,0,0,0-.5.7,3.09,3.09,0,0,0-.2.8l-.9,27.3a1.61,1.61,0,0,1-.5,1.1,1.66,1.66,0,0,1-1.2.5h-5c-.2,0-.3,0-.4.1a.52.52,0,0,0-.2.4v.3c0,.1.1.2.1.3s.1.1.2.2a.37.37,0,0,0,.3.1h15.9a.37.37,0,0,0,.3-.1c.1,0,.2-.1.3-.2s.1-.2.2-.3v-.3Z" transform="translate(0 29.6)"/><path class="cls-36" d="M600,207.3a2.38,2.38,0,0,0-1.9-2.4h-2a2.77,2.77,0,0,0-.9.1,3,3,0,0,0-.8.4,1.16,1.16,0,0,0-.5.7,3.09,3.09,0,0,0-.2.8l-.9,27.3a1.61,1.61,0,0,1-.5,1.1,1.66,1.66,0,0,1-1.2.5h-5c-.2,0-.3,0-.4.1a.52.52,0,0,0-.2.4v.3c0,.1.1.2.1.3s.1.1.2.2a.37.37,0,0,0,.3.1H602a.37.37,0,0,0,.3-.1c.1,0,.2-.1.3-.2s.1-.2.2-.3,0-.2,0-.3Z" transform="translate(0 29.6)"/><path class="cls-35" d="M654.1,203.6l-2.7,31.6s-.3,1.9,1.2,1.9h11.7s-1.8-.4-1.8-1.3c0-1.1,3.1-32.6,3.1-32.6Z" transform="translate(0 29.6)"/><path class="cls-38" d="M665,236.5H653.3a1.24,1.24,0,0,1-1.2-1.4v-.5l.1-.8.2-2.1.2-1.9.2-2.4.2-2,1.9-22.5,11.5-.3s-1.3,13.2-2.2,22.8c-.1,1.1-.2,2.1-.3,3.1,0,.3-.1.6-.1.9a22.86,22.86,0,0,0-.2,2.5c0,.4-.1.8-.1,1.1-.1,1.3-.2,2.1-.2,2.3v.2C663.5,236.5,664.8,236.5,665,236.5Z" transform="translate(0 29.6)"/><path class="cls-36" d="M626.1,186.3l6.5,26,.9,3.6,3,12.1h56.1l-11.1-41.7Z" transform="translate(0 29.6)"/><path class="cls-38" d="M626.1,186.3l-.9.3,10.1,42.3,1.2-.9Z" transform="translate(0 29.6)"/><path class="cls-35" d="M635.3,229H691l1.5-.9H636.4Z" transform="translate(0 29.6)"/><path class="cls-36" d="M654.8,237.1h12.1v-.6H654.8Z" transform="translate(0 29.6)"/><path class="cls-36" d="M689.8,220.4l-9.1-33.5H626v-.6h55.4l9.1,34Z" transform="translate(0 29.6)"/><path class="cls-35" d="M663.8,229l-.1.4-11.3,2.3.2-1.9.1-.9,11.1.1Z" transform="translate(0 29.6)"/><path class="cls-37" d="M665,236.5H653.3a1.24,1.24,0,0,1-1.2-1.4l11.3-2.1c-.1,1.3-.2,2.1-.2,2.3v.2C663.5,236.5,664.8,236.5,665,236.5Z" transform="translate(0 29.6)"/><path class="cls-37" d="M661.1,219.6,636.5,228l-3-12.1Z" transform="translate(0 29.6)"/><path class="cls-20" d="M626.1,186.3h55.3l9,33.5H634.1Z" transform="translate(0 29.6)"/><path class="cls-35" d="M666,224.1a2.38,2.38,0,0,0-.6-1.1,1.5,1.5,0,0,0-1.1-.4.75.75,0,0,0-.5.1c-.1.1-.3.2-.4.3a.76.76,0,0,0-.2.5v.6a2.38,2.38,0,0,0,.6,1.1,1.5,1.5,0,0,0,1.1.4.75.75,0,0,0,.5-.1c.1-.1.3-.2.4-.3a.76.76,0,0,0,.2-.5v-.6Z" transform="translate(0 29.6)"/><path class="cls-39" d="M687.8,218.4H636L630.1,195l-.5-1.8-.4-1.5-.9-3.6h51.1l1,3.6.4,1.5.5,1.8Z" transform="translate(0 29.6)"/><path class="cls-40" d="M680.4,191.7H629.2l-.9-3.6h51.1Z" transform="translate(0 29.6)"/><path class="cls-39" d="M630.5,189.8v-.2c0-.1,0-.1.1-.1l.1-.1h.2c.1,0,.2.1.3.1s.2.2.2.3v.2c0,.1,0,.1-.1.1l-.1.1H631c-.1,0-.2-.1-.3-.1s-.2-.2-.2-.3Z" transform="translate(0 29.6)"/><path class="cls-39" d="M632,189.8v-.2c0-.1,0-.1.1-.1l.1-.1h.2c.1,0,.2.1.3.1s.2.2.2.3v.2c0,.1,0,.1-.1.1l-.1.1h-.2c-.1,0-.2-.1-.3-.1s-.2-.2-.2-.3Z" transform="translate(0 29.6)"/><path class="cls-39" d="M633.6,189.8v-.2c0-.1,0-.1.1-.1l.1-.1h.2c.1,0,.2.1.3.1s.2.2.2.3v.2c0,.1,0,.1-.1.1l-.1.1h-.2c-.1,0-.2-.1-.3-.1s-.2-.2-.2-.3Z" transform="translate(0 29.6)"/><path class="cls-40" d="M643,199.8h-7.8c-.1,0-.2-.1-.3-.1s-.2-.2-.2-.3h0v-.2c0-.1,0-.1.1-.1a.1.1,0,0,0,.1-.1h8c.1,0,.2.1.3.1s.2.2.2.3h0v.2c0,.1,0,.1-.1.1l-.1.1Z" transform="translate(0 29.6)"/><path class="cls-40" d="M643.5,201.4h-7.8c-.1,0-.2-.1-.3-.1s-.2-.2-.2-.3v-.2c0-.1,0-.1.1-.1l.1-.1h8c.1,0,.2.1.3.1s.2.2.2.3v.2c0,.1,0,.1-.1.1l-.1.1Z" transform="translate(0 29.6)"/><path class="cls-40" d="M643.9,203.1H636c-.1,0-.2-.1-.3-.1s-.2-.2-.2-.3h0v-.2c0-.1,0-.1.1-.1l.1-.1h8c.1,0,.2.1.3.1s.2.2.2.3h0v.2c0,.1,0,.1-.1.1l-.2.1Z" transform="translate(0 29.6)"/><path class="cls-40" d="M657,199.8h-7.8c-.1,0-.2-.1-.3-.1s-.2-.2-.2-.3h0v-.2c0-.1,0-.1.1-.1l.1-.1h8c.1,0,.2.1.3.1s.2.2.2.3h0v.2c0,.1,0,.1-.1.1l-.1.1Z" transform="translate(0 29.6)"/><path class="cls-40" d="M657.4,201.4h-7.8c-.1,0-.2-.1-.3-.1s-.2-.2-.2-.3h0v-.2c0-.1,0-.1.1-.1l.1-.1h8c.1,0,.2.1.3.1s.2.2.2.3h0v.2c0,.1,0,.1-.1.1l-.1.1Z" transform="translate(0 29.6)"/><path class="cls-40" d="M657.8,203.1H650c-.1,0-.2-.1-.3-.1s-.2-.2-.2-.3h0v-.2c0-.1,0-.1.1-.1l.1-.1h8c.1,0,.2.1.3.1s.2.2.2.3h0v.2c0,.1,0,.1-.1.1l-.1.1Z" transform="translate(0 29.6)"/><path class="cls-40" d="M670.4,199.8h-7.8c-.1,0-.2-.1-.3-.1s-.2-.2-.2-.3h0v-.2c0-.1,0-.1.1-.1l.1-.1h8c.1,0,.2.1.3.1s.2.2.2.3h0v.2c0,.1,0,.1-.1.1l-.1.1Z" transform="translate(0 29.6)"/><path class="cls-40" d="M670.9,201.4H663c-.1,0-.2-.1-.3-.1s-.2-.2-.2-.3v-.2c0-.1,0-.1.1-.1l.1-.1h8c.1,0,.2.1.3.1s.2.2.2.3v.2c0,.1,0,.1-.1.1l-.2.1Z" transform="translate(0 29.6)"/><path class="cls-40" d="M671.3,203.1h-7.8c-.1,0-.2-.1-.3-.1s-.2-.2-.2-.3h0v-.2c0-.1,0-.1.1-.1l.1-.1h8c.1,0,.2.1.3.1s.2.2.2.3h0v.2c0,.1,0,.1-.1.1l-.1.1Z" transform="translate(0 29.6)"/><path class="cls-40" d="M677.7,194.1l.4,1.5v.2c0,.1,0,.1-.1.2l-.1.1H633.5a.71.71,0,0,1-.6-.6l-.4-1.5v-.2c0-.1,0-.1.1-.2a.1.1,0,0,1,.1-.1H677a.52.52,0,0,1,.4.2c.1.1.2.3.3.4Z" transform="translate(0 29.6)"/><path class="cls-36" d="M664.2,193.6l.6,2.6H633.5a.71.71,0,0,1-.6-.6l-.4-1.5v-.2c0-.1,0-.1.1-.2a.1.1,0,0,1,.1-.1h31.5Z" transform="translate(0 29.6)"/><path class="cls-20" d="M670.3,194.6h-.5v-.2h.8v.2l-.2.9h-.3Z" transform="translate(0 29.6)"/><path class="cls-20" d="M670.8,194.9c-.1-.3,0-.5.3-.5a.76.76,0,0,1,.4.2.52.52,0,0,1,.2.4c.1.3,0,.5-.3.5a.76.76,0,0,1-.4-.2.52.52,0,0,1-.2-.4Zm.7,0a.32.32,0,0,0-.3-.3c-.1,0-.2.1-.1.3a.32.32,0,0,0,.3.3c.1,0,.1-.1.1-.3Z" transform="translate(0 29.6)"/><path class="cls-20" d="M671.8,194.7c0-.1,0-.3.2-.3s.2,0,.2.1.1.1.1.2v.2a.1.1,0,0,1-.1.1h-.1c-.1,0-.2,0-.2-.1A.35.35,0,0,0,671.8,194.7Zm.8-.3h.2l-.5,1h-.2Zm-.4.3a.1.1,0,0,0-.1-.1l-.1.1v.1h.1A.1.1,0,0,0,672.2,194.7Zm.4.5h0V195a.1.1,0,0,1,.1-.1h.1c.1,0,.2,0,.2.1s.1.1.1.2v.2a.1.1,0,0,1-.1.1h-.1c-.1,0-.2,0-.2-.1S672.6,195.3,672.6,195.2Zm.3,0a.1.1,0,0,0-.1-.1l-.1.1v.1h.1c.1,0,.2,0,.1-.1Z" transform="translate(0 29.6)"/><path class="cls-40" d="M660.5,215.3h-3.9a1.14,1.14,0,0,1-.8-.3,1.79,1.79,0,0,1-.5-.7l-1.9-7.6v-.4c0-.1.1-.2.1-.3s.2-.2.3-.2.2-.1.4-.1h3.9a1.14,1.14,0,0,1,.8.3,1.79,1.79,0,0,1,.5.7l1.9,7.6v.4c0,.1-.1.2-.1.3s-.2.2-.3.2a.76.76,0,0,1-.4.1Z" transform="translate(0 29.6)"/><path class="cls-40" d="M667.3,215.3h-3.9a1.14,1.14,0,0,1-.8-.3,1.79,1.79,0,0,1-.5-.7l-1.9-7.6v-.4c0-.1.1-.2.1-.3s.2-.2.3-.2.2-.1.4-.1h3.9a1.14,1.14,0,0,1,.8.3,1.79,1.79,0,0,1,.5.7l1.9,7.6v.4c0,.1-.1.2-.1.3s-.2.2-.3.2a.76.76,0,0,1-.4.1Z" transform="translate(0 29.6)"/><path class="cls-40" d="M673.9,215.3H670a1.14,1.14,0,0,1-.8-.3,1.79,1.79,0,0,1-.5-.7l-1.9-7.6v-.4c0-.1.1-.2.1-.3s.2-.2.3-.2.2-.1.4-.1h3.9a1.14,1.14,0,0,1,.8.3,1.79,1.79,0,0,1,.5.7l1.9,7.6v.4c0,.1-.1.2-.1.3s-.2.2-.3.2A.6.6,0,0,1,673.9,215.3Z" transform="translate(0 29.6)"/><path class="cls-40" d="M652.8,215.3H639.5a2.11,2.11,0,0,1-1.3-.5,2.55,2.55,0,0,1-.8-1.2l-1.6-6.2a1.3,1.3,0,0,1,1.3-1.7h13.3a2.11,2.11,0,0,1,1.3.5,2.55,2.55,0,0,1,.8,1.2l1.6,6.2C654.2,214.6,653.7,215.3,652.8,215.3Z" transform="translate(0 29.6)"/><path class="cls-20" d="M650.2,208.1H637.8c-.1,0-.2-.1-.3-.1s-.2-.2-.2-.3v-.2l.1-.1H650c.1,0,.2.1.3.1s.2.2.2.3h0v.2l-.1.1Z" transform="translate(0 29.6)"/><path class="cls-20" d="M650.5,209.6H638.1a.37.37,0,0,1-.3-.1c-.1-.1-.2-.2-.2-.3h0V209l.1-.1h12.5c.1,0,.2.1.3.1s.2.2.2.3h0v.2l-.2.1Z" transform="translate(0 29.6)"/><path class="cls-20" d="M650.9,211H638.5c-.1,0-.2-.1-.3-.1s-.2-.2-.2-.3h0v-.2l.1-.1h12.5c.1,0,.2.1.3.1s.2.2.2.3h0v.2l-.2.1Z" transform="translate(0 29.6)"/><path class="cls-20" d="M641.8,212.7h-2.9a.37.37,0,0,1-.3-.1c-.1-.1-.2-.2-.2-.3h0v-.2l.1-.1h3a.37.37,0,0,1,.3.1c.1.1.2.2.2.3h0v.2l-.2.1Z" transform="translate(0 29.6)"/><path class="cls-18" d="M697,254.9s-7,3.5-7.4,7.2,1.1,26.6,1.1,26.6,7.3,1.4,8.7,0c0,0,1.8-24.4,1.5-25.5s20.2-7.1,22-7.1S697,254.9,697,254.9Z" transform="translate(0 29.6)"/><path class="cls-18" d="M698.8,288.7s-.4,6.9-1.8,7H681.8a2.73,2.73,0,0,1,2.5-2.5c2.5-.4,6.6-2.2,8.1-5.4C694,284.4,698.8,288.7,698.8,288.7Z" transform="translate(0 29.6)"/><path class="cls-18" d="M675.2,288.7s-.4,6.9-1.8,7H658.2a2.87,2.87,0,0,1,2.5-2.5c2.5-.4,6.6-2.2,8.1-5.4C670.4,284.4,675.2,288.7,675.2,288.7Z" transform="translate(0 29.6)"/><path class="cls-23" d="M726.5,242.7h0a3.33,3.33,0,0,0-.6-1,2.7,2.7,0,0,0-.8-.7c-5.2-2.9-15.1-.9-15.1-.9s-31.9,5.2-34.9,9.4-7.6,40-7.6,40,5.6,1.5,7.9.6c0,0,11-28.3,11.9-31.4.8-2.7,15.9-.7,23.6-1.3,4.6-.1,11.8-.5,13.7-1.1C727.6,255.2,726.5,242.7,726.5,242.7Z" transform="translate(0 29.6)"/><path class="cls-41" d="M715.2,204.3l-2.7,3.3-5,.2c0-.5-.2-2.6-.4-4.3-.1-1.4-.2-2.7-.2-2.7l5.3-4.6s.3,1.6.3,1.8A15.31,15.31,0,0,0,715.2,204.3Z" transform="translate(0 29.6)"/><path class="cls-42" d="M706.4,203.1c.1,0,6.8-1.6,7.5-1.4s1,1.7,1,1.7L704,205.3A5.64,5.64,0,0,1,706.4,203.1Z" transform="translate(0 29.6)"/><path class="cls-41" d="M705.5,201.3s7.1.3,7.2-4.1,1.1-7.4-3.4-7.8-5.5,1.3-5.9,2.7C703.1,193.7,703.7,201.1,705.5,201.3Z" transform="translate(0 29.6)"/><path class="cls-18" d="M703.7,191.7s1.7,4.7,2.6,4.2,1.8-.9,2,.6-.7,3.5,2.4,3,5.4-9.6,4.2-10.8C711.4,185,698.8,187.4,703.7,191.7Z" transform="translate(0 29.6)"/><path class="cls-38" d="M726.5,242.7c-1.8,2.1-17.1,1.6-21.5-.2a3,3,0,0,1-.8-.4c-2.6-2.1,3.3-3.9-3.3-20h0c-4.8-11.5.3-15.3,3.5-17.1,0,0,9.1-2.8,14.2-1.2C725.1,205.7,728.4,240.4,726.5,242.7Z" transform="translate(0 29.6)"/><path class="cls-42" d="M710.4,234.8c-.3,2.2-2.1,7.6-5.5,7.6a3,3,0,0,1-.8-.4c-2.6-2.1,3.3-3.9-3.3-20h0c1.1-.8,2.9-1.6,4.1-.3C706.7,223.7,710.8,232.5,710.4,234.8Z" transform="translate(0 29.6)"/><path class="cls-41" d="M678.1,234.8a19.58,19.58,0,0,0-3.8-1.8c-.9-.1-5.3,3.6-4.7,3.9s4-1.1,4.4-.8.8,1.1,1.4,1.1h2.3Z" transform="translate(0 29.6)"/><path class="cls-38" d="M704.3,204.9s-6.3,3.3-7.1,6.4-3.8,18-5,19.1-14.5,3.5-14.5,3.5-1.6,1.7-1.1,3.3h20.8s9.4-13.6,8.7-18.7S704.3,204.9,704.3,204.9Z" transform="translate(0 29.6)"/><path class="cls-12" d="M731.9,256.7H688.6s1-3.7,26.1-3.2C732.4,253.9,731.9,256.7,731.9,256.7Z" transform="translate(0 29.6)"/><path class="cls-11" d="M735.4,295.7c-5-23.2-3.7-37.5-3.7-37.7,0-.4-.7-.7-1.1-.7s-2.1-.1-2.3.2-1.3,18,6.2,38.2Z" transform="translate(0 29.6)"/><path class="cls-11" d="M695,295.7c5-23.2,3.7-37.5,3.7-37.7,0-.4.7-.7,1.1-.7s2.1-.1,2.3.2,1.3,18-6.2,38.2Z" transform="translate(0 29.6)"/><path class="cls-14" d="M687,295.7c5-23.2,3.7-37.5,3.7-37.7,0-.4.7-.7,1.1-.7s2.1-.1,2.3.2,1.3,18-6.2,38.2Z" transform="translate(0 29.6)"/><path class="cls-14" d="M727.4,295.7c-5-23.2-3.7-37.5-3.7-37.7,0-.4-.7-.7-1.1-.7s-2.1-.1-2.3.2-1.3,18,6.2,38.2Z" transform="translate(0 29.6)"/><path class="cls-11" d="M688.5,257.9h43.4a.82.82,0,0,0,.8-.9v-.5a.88.88,0,0,0-.8-.9H688.5a.82.82,0,0,0-.8.9v.5A.88.88,0,0,0,688.5,257.9Z" transform="translate(0 29.6)"/><path class="cls-11" d="M720.1,245.5a135.28,135.28,0,0,1,1.8-17.8c1.3-7,2.5-10.9,2.5-11,.2-.6,2.7-3.1,8.2-3s5,3.3,5,3.3v.3a143.12,143.12,0,0,0-4.9,38.9v1.2s-12.9.3-12.9,0C719.4,255.6,719.6,250.3,720.1,245.5Z" transform="translate(0 29.6)"/><path class="cls-23" d="M669,237.1s3.5-2.7,5.2-1.9a4.5,4.5,0,0,1,2.2,1.9Z" transform="translate(0 29.6)"/><path class="cls-15" d="M559.6,235.3s3.3-.8,4.3-.4,3.4,2.3,2.8,2.3-2.8-1.1-3.1-.8-1.9,1-2.9.6A2,2,0,0,1,559.6,235.3Z" transform="translate(0 29.6)"/><path class="cls-32" d="M545.2,211.9s-3.2,8.6-3.6,13.3c-.6,7.4-.6,12-.6,12s2.1.1,7.4,0,11.6,0,11.6,0a1.57,1.57,0,0,0-.6-2.7c-2.2-1.1-11.4-3.4-11.2-4.3l3.4-13.7Z" transform="translate(0 29.6)"/><path class="cls-23" d="M561.2,237.1s2-1.4,3.3-1a5.54,5.54,0,0,1,2.2,1Z" transform="translate(0 29.6)"/><path class="cls-8" d="M327.5,282.8c-2,7.3-17,11.6-33.4,14.1H233c-14.7-7-14.7-15.2-15.9-38.1-2.4-47.3,23.4-70.1,34.9-66.4.5.2.9.3,1.5.5,3.3,1.3,7.1,3.6,10.7,9,0,0,11.5,18.4,20.9,29.4,3,3.5,5.9,6.3,8,7.4h.1c.1.1.2.1.3.2,5,2.2,12,6.8,18.5,12.6C321.9,260.6,330.4,272.5,327.5,282.8Z" transform="translate(0 29.6)"/><path class="cls-28" d="M311.9,251.6c-8.6,2.5-52.7,14.8-63.1,1.8-7.5-9.4-2.8-33.6,1.3-49.2a7.76,7.76,0,0,1,13.9-2.4c0,.1.1.1.1.2s11.5,18.4,20.9,29.4c2.7,3.5,5.4,6.1,8,7.4h.1c.1.1.2.1.3.2C298.5,241.1,305.5,245.8,311.9,251.6Z" transform="translate(0 29.6)"/><path class="cls-33" d="M287.9,207.9s2.5,3.7,3.9,11.5c1.2,6.8,2.4,9.3,4.2,10.7s11.9,5.5,11.9,5.5l-.8,1.8s-14.8-2-16.4-4.5-8-17-7.5-20.3S287.9,207.9,287.9,207.9Z" transform="translate(0 29.6)"/><path class="cls-15" d="M324.1,289.1c-.1,1.4,1.9,1.8,4.2,1.9s1.6.6,4.8,1.2,4.5-.3,4.7-.7-1.3-1-2.9-1.6l-.6-.3c-1.8-.8-2.8-2.4-4.1-3.8s-2.6-5.9-2.6-5.9l-4.3-.9s1.2,4,1.6,5.7a6.1,6.1,0,0,1-.4,3,5.73,5.73,0,0,0-.4,1.4Z" transform="translate(0 29.6)"/><path class="cls-16" d="M328.3,291c2.3.1,1.6.6,4.8,1.2s4.5-.3,4.7-.7-1.3-1-2.9-1.6h0a8.71,8.71,0,0,1-4.8.1c-2.1-.6-4.1-1.8-5.6-2.2a8.33,8.33,0,0,0-.4,1.5C324,290.5,326,290.9,328.3,291Z" transform="translate(0 29.6)"/><path class="cls-18" d="M281,238s28.7-2.1,34.1,1.2,14.1,43,14.1,43a4.92,4.92,0,0,1-1.7.6,16.77,16.77,0,0,1-3.6-.5s-12.5-17.7-13.3-22.2-.7-8.5-2.7-8.6-26.9,3-30.7-3.6a15.06,15.06,0,0,1-.6-13.2Z" transform="translate(0 29.6)"/><path class="cls-15" d="M313.1,293.7c-.1,1.4,1.9,1.8,4.2,1.9s1.6.6,4.8,1.2,4.4-.3,4.7-.7-1.3-1-2.9-1.6l-.6-.3c-1.8-.8-2.8-2.4-4.2-3.8s-2.5-5.9-2.5-5.9l-4.3-.9s1.2,4,1.6,5.7a6.1,6.1,0,0,1-.4,3,5.73,5.73,0,0,0-.4,1.4Z" transform="translate(0 29.6)"/><path class="cls-16" d="M317.3,295.6c2.3.1,1.6.6,4.8,1.2s4.4-.3,4.7-.7-1.3-1-2.9-1.6h0a8.71,8.71,0,0,1-4.8.1c-2.1-.6-4.1-1.8-5.6-2.2a8.33,8.33,0,0,0-.4,1.5C313,295.1,315,295.5,317.3,295.6Z" transform="translate(0 29.6)"/><path class="cls-43" d="M275.4,239.7s25.5,1.2,30.8,4.8,12.4,43.6,12.4,43.6a3.45,3.45,0,0,1-1.8.5,12.93,12.93,0,0,1-3.5-.7s-11.8-18.2-12.5-22.7-.3-8.5-2.3-8.7-27,2-30.5-4.8S275.4,239.7,275.4,239.7Z" transform="translate(0 29.6)"/><path class="cls-18" d="M284.5,183.7a5.93,5.93,0,0,0-3.5-.9,1.14,1.14,0,0,1,.8-.3,6.19,6.19,0,0,0-2,.4c-8.3-3.8-10.5,8.6-10.5,11.5s-.2,6.2-4.6,8.6c-8.7,4.6-2.2,14-2.2,14s3.5,6.8,3.5,6.8c-.1-2.4,11.6-14,17.5-17.4,1.5-1.9,2.2-5.5,2.3-5.8a14.12,14.12,0,0,1-1.5,5.2C289.2,201.8,287.5,185.7,284.5,183.7Z" transform="translate(0 29.6)"/><path class="cls-15" d="M283.2,204.6c-.1-.1-.3-.1-.5-.2a4.87,4.87,0,0,1,.1-1.2c.1-1.9.4-3.8.4-3.8l-6.2-1.7-.4-.1a20,20,0,0,1-1.2,5.9,4.54,4.54,0,0,0-1,.1c-.1.4,2.6,6,6.3,6.2C281.8,209.8,285,205.4,283.2,204.6Z" transform="translate(0 29.6)"/><path class="cls-33" d="M283.2,199.5s-.3,2-.4,3.8c-3.5-.3-5.2-3.7-5.8-5.5Z" transform="translate(0 29.6)"/><path class="cls-18" d="M276.4,197.1a19.18,19.18,0,0,1-1.9-5.5c-.2-1.8,1.1-8.3,7.7-6.9a9,9,0,0,1,3.6,1.6c1.4,1.1,3.3,3.3.6,8.9l-.7,1.9Z" transform="translate(0 29.6)"/><path class="cls-15" d="M284.2,201.3s-8.3-.4-8-5.6-.5-8.7,4.8-8.7,6.2,2.1,6.5,3.8S286.4,201.3,284.2,201.3Z" transform="translate(0 29.6)"/><path class="cls-18" d="M284.9,187.2s-2.7,5.9-6.2,6.6-5-.4-5-.4a10,10,0,0,0,3.6-5.6C277.2,187.8,283.4,184.1,284.9,187.2Z" transform="translate(0 29.6)"/><path class="cls-18" d="M284.3,187.6a7.43,7.43,0,0,1,1.9,2.8c.3,1.4.3,4.1,1.1,4,0,0,2-4,.2-6.5S284.3,187.6,284.3,187.6Z" transform="translate(0 29.6)"/><path class="cls-23" d="M292.6,238.4c-.7.8-2.8,1.1-5,1.4a18.29,18.29,0,0,0-5,1.4c-3,1.8-12.8,7.7-15.7,7.4-1.1-.1-.9-2.2-.2-5.1,1.1-4.4,3.3-10.6,3.3-13.3a88.64,88.64,0,0,1,1.1-8.9,4.4,4.4,0,0,1,.2-1c1.3-7.7,3.1-16.8,3.1-16.8s2,4.4,5.9,4.4,3-3.3,3-3.3,3.5.4,4.4,1.3a34.71,34.71,0,0,1,3.4,5.9s.1,1.4-3.3,2a46.21,46.21,0,0,1,.9,6.1c.1,1.8-1.2,7.5-1.6,11a11.73,11.73,0,0,0,0,2.7,5.49,5.49,0,0,0,2.1,1.7C291,236.4,293.4,237.4,292.6,238.4Z" transform="translate(0 29.6)"/><path class="cls-18" d="M289.1,235.3c2.2,3.7-5.8,4.8-7.2,5.5-3,1.8-12.2,8.1-15.1,7.9-1.1-.1-.9-2.2-.2-5.1,1.1-4.4,3.3-10.6,3.3-13.3a88.64,88.64,0,0,1,1.1-8.9l3.5-3.3s3.7,9.6,7.2,11.1a31.61,31.61,0,0,0,5.2,1.7,11.73,11.73,0,0,0,0,2.7A11.24,11.24,0,0,0,289.1,235.3Z" transform="translate(0 29.6)"/><path class="cls-15" d="M273.2,206.5s-3-1.8-5.8,1.6,2,27.7,6.3,29c4.7,1.4,18.3-.2,18.3-.2l-.3-2.1s-14.5-2.8-15.1-3.5C276.1,230.4,274.8,206.9,273.2,206.5Z" transform="translate(0 29.6)"/><path class="cls-23" d="M274.3,203.6s-6.1.6-7.9,2.5-2.3,7.4-2.3,7.4,5.4,4.3,11.8,2.6Z" transform="translate(0 29.6)"/><path class="cls-44" d="M301.5,238.9h-8V238h8Z" transform="translate(0 29.6)"/><path class="cls-44" d="M299.8,238.8c.1-.3,7.4-11.8,7.4-11.8h16.3l-8.2,11.4Z" transform="translate(0 29.6)"/><path class="cls-18" d="M300.5,238.9c.1-.3,7.4-11.9,7.4-11.9h15.5l-7.8,11.9Z" transform="translate(0 29.6)"/><path class="cls-44" d="M314.2,233a2.09,2.09,0,0,1-.4.6.84.84,0,0,1-.7.2.37.37,0,0,1-.3-.1c-.1-.1-.2-.1-.2-.2s-.1-.2-.1-.3a.37.37,0,0,1,.1-.3,2.09,2.09,0,0,1,.4-.6.84.84,0,0,1,.7-.2.37.37,0,0,1,.3.1c.1.1.2.1.2.2s.1.2.1.3A.37.37,0,0,1,314.2,233Z" transform="translate(0 29.6)"/><path class="cls-15" d="M290.6,234.6s4.7-.9,5.2-.7,3.5,2.9,3.2,3.4a2.76,2.76,0,0,1-2.9.5c-1.4-.5-4.3-.7-4.9-1.4a5.46,5.46,0,0,1-.6-1.8Z" transform="translate(0 29.6)"/><path class="cls-31" d="M391.1,254.9H336.6a3.1,3.1,0,1,1,0-6.2h54.5a3.11,3.11,0,0,1,2.2,5.3,2.79,2.79,0,0,1-2.2.9Z" transform="translate(0 29.6)"/><path class="cls-30" d="M354.9,254.9l-1.7,6.7-4.8,18.6-4.3,16.6c-.1.1-.2.3-.3.3a4.33,4.33,0,0,1-.5.1c-.3,0-.6-.2-.5-.4l3.7-18.8,3.9-20.1.6-3Z" transform="translate(0 29.6)"/><path class="cls-14" d="M353.2,261.6c.2-2.9-2.8-3.8-2.8-3.8l.6-3,3.9.1Z" transform="translate(0 29.6)"/><path class="cls-30" d="M375,254.9l1.7,6.7,4.8,18.6,4.3,16.6c.1.1.2.3.3.3a.75.75,0,0,0,.5.1c.3,0,.6-.2.5-.4L383.4,278l-3.9-20.1-.6-3Z" transform="translate(0 29.6)"/><path class="cls-14" d="M376.7,261.6c-.2-2.9,2.8-3.8,2.8-3.8l-.6-3-3.9.1Z" transform="translate(0 29.6)"/><path class="cls-26" d="M384.1,239.2l-.1,2.4-.2,4.9-.1,2.3h-6.2l-.1-2.3-.3-4.9-.1-2.4Z" transform="translate(0 29.6)"/><path class="cls-45" d="M384.2,237.6h-7.4l-.3,1.6h7.9Z" transform="translate(0 29.6)"/><path d="M384,241.5l-.2,4.9h-6.5l-.3-4.9Z" transform="translate(0 29.6)"/><path d="M352.5,239.9v1.6l-.2,4.5v.4l-.1,2.3H346l-.1-2.3V246l-.3-4.5v-.7l-.1-1.3h0a3.47,3.47,0,0,1,2.3.3c.9.6,1.8-.5,2.6-.2s.9.7,1.5.4c.1-.1.4-.1.6-.1Z" transform="translate(0 29.6)"/><path class="cls-46" d="M352.6,239.2v2.4l-.2,4.5v.4l-.1,2.3h-6.2l-.1-2.3v-.4l-.3-4.5v-.7l-.1-1.3v-.4Z" transform="translate(0 29.6)"/><path class="cls-46" d="M352.6,239.2v-.1a3.58,3.58,0,0,0-1.1-2.5,3.47,3.47,0,0,0-2.5-1,3.58,3.58,0,0,0-3.6,3.5v.1Z" transform="translate(0 29.6)"/><path class="cls-26" d="M348.3,248.1H348c0-.2,1-13.6,1.2-14.5a2,2,0,0,1,.4-.8,2.18,2.18,0,0,1,.8-.5h0l5.1-.9v.3l-5.1.9c-.2.1-.5.2-.6.4a.86.86,0,0,0-.3.6C349.4,234.5,348.3,248.1,348.3,248.1Z" transform="translate(0 29.6)"/><path class="cls-26" d="M352.5,240.8v.7l-.2,4.5h-6.5l-.3-4.5v-.7Z" transform="translate(0 29.6)"/></g></g></g></g></svg>