<?xml version="1.0" encoding="utf-8"?>
<!-- Generator: Adobe Illustrator 26.0.2, SVG Export Plug-In . SVG Version: 6.00 Build 0)  -->
<svg version="1.1" id="Layer_1" xmlns="http://www.w3.org/2000/svg" xmlns:xlink="http://www.w3.org/1999/xlink" x="0px" y="0px"
	 viewBox="0 0 1245 300" style="enable-background:new 0 0 1245 300;" xml:space="preserve">
<style type="text/css">
	.st0{clip-path:url(#SVGID_00000121983388937230963510000004562511209906093202_);}
	.st1{fill:#EBF3FA;}
	.st2{fill:#E2EEF9;}
	.st3{fill:#DEEDFF;}
	.st4{fill:#4AA4F4;}
	.st5{fill:#7BC0FF;}
	.st6{fill:#D3E3EF;}
	.st7{fill:#C7DDEA;}
	.st8{fill:#D1A586;}
	.st9{fill:#E5BD9E;}
	.st10{fill:#DFB697;}
	.st11{fill:#A0795F;}
	.st12{fill:#FFB27D;}
	.st13{fill:#499EC4;}
	.st14{fill:#3F88A8;}
	.st15{fill:#173C5E;}
	.st16{fill:#ED975D;}
	.st17{fill:#699DEE;}
	.st18{fill:#FFFFFF;}
	.st19{fill:#4A75CB;}
	.st20{fill:#1C468A;}
	.st21{fill:#2B478B;}
	.st22{fill:#E7F1FD;}
	.st23{fill:#1E4151;}
	.st24{fill:#233862;}
	.st25{fill:#2E90E8;}
	.st26{fill:#1E485B;}
	.st27{fill:#C69D7F;}
	.st28{fill:#E0B594;}
	.st29{fill:#6C96BC;}
	.st30{fill:#F4A269;}
	.st31{fill:#5983AA;}
	.st32{fill:#169BD6;}
	.st33{fill:#48ACFF;}
	.st34{fill:#38A3E5;}
	.st35{fill:#4ABBED;}
	.st36{fill:#E9F3FE;}
	.st37{fill:#AFCDFB;}
	.st38{fill:#E49963;}
	.st39{fill:#39AFE2;}
	.st40{fill:#194C72;}
	.st41{fill:#2F7A9B;}
	.st42{fill:#DDE3F2;}
	.st43{opacity:0.2;enable-background:new    ;}
	.st44{fill:#82B378;}
	.st45{fill:#A8D29F;}
	.st46{fill:#76D5FF;}
	.st47{fill:#2E3552;}
</style>
<g>
	<g>
		<defs>
			<rect id="SVGID_1_" width="1245" height="300"/>
		</defs>
		<clipPath id="SVGID_00000034085652560800606860000013035168643593541007_">
			<use xlink:href="#SVGID_1_"  style="overflow:visible;"/>
		</clipPath>
		<g style="clip-path:url(#SVGID_00000034085652560800606860000013035168643593541007_);">
			<g>
				<path class="st1" d="M-6.9,300l1173.5-0.1c0,0,0.7-0.3,2-1c0.5-0.3,1.1-0.6,1.8-0.9c1.8-0.9,4.3-2.2,7.2-3.7
					c1.1-0.6,2.3-1.3,3.5-2c6.7-3.8,13-7.8,18.9-11.9c1.7-1.2,3.4-2.4,5.1-3.7l0.2-0.2c0.6-0.4,1.1-0.9,1.7-1.3
					c0.8-0.6,1.7-1.3,2.5-1.9c3-2.4,6.1-5,8.9-7.7c0.2-0.2,0.4-0.3,0.6-0.5c2-1.9,4-3.8,5.8-5.9c0.2-0.2,0.3-0.3,0.5-0.5
					s0.4-0.5,0.7-0.7c0.2-0.2,0.4-0.4,0.6-0.6c0.5-0.5,0.9-1,1.4-1.5l0.1-0.1c0.1-0.1,0.2-0.3,0.4-0.4c1.4-1.6,2.7-3.3,4-5
					c0.6-0.8,1.2-1.6,1.8-2.5c2.5-3.6,4.6-7.4,6.3-11.1c1.2-2.8,2.2-5.6,2.9-8.4v-0.1c1.1-4.3,1.6-8.6,1.4-12.9
					c-0.8-19.4-14.6-40.7-51.8-62.6c-18.9-11.1-38.3-20.3-58.1-27.7c-8.1-3.1-16.5-5.9-25.1-8.5c-42-12.7-84.7-18.2-125.9-18.4
					c-1.7,0-3.3,0-5,0c-48.7,0.2-95.1,7.7-135.5,18.9c-25.9,7.2-81.7,6.1-144.9-11.8c-8.3-2.3-16.6-5-25.1-7.9
					c-21-7.3-42.4-16.5-63.5-27.8c-1.3-0.7-2.6-1.4-3.9-2.1c-10-5.5-19.9-11.5-29.6-18c-0.2-0.1-0.4-0.2-0.6-0.4
					c-3.1-2-6.3-4-9.7-5.9C489.8,0.4,335.5-6.5,211.1,15c-8.5,1.5-16.9,3.1-25.1,4.8c-29.1,6.1-56.1,14-79.2,23.3
					c-4.7,1.9-9.2,3.8-13.6,5.9c-12.1,5.5-23,11.7-32.5,18.3c-1,0.7-2,1.4-2.9,2.1c-31.9,23.7-43.4,53.3-22.2,87.8
					C78.7,227.3-95.8,229.9-6.9,300z"/>
				<path class="st2" d="M663.9,132v-19.3h-5.7V79.6H628v33.1h-28.3v-54h-31.2v35h-7.1V51.9h-31.2v78.4h-39.5V176h-14.8v-20.4H442
					v12h-19.5v-53.9h-24v39.9h-24V300h24H419h3.4h19.5h11h17.6h5.3h14.8h13.9h25.6h7.8h15.6h7.8h7.1h16.3h11.1h3.8H628h29.8h0.5h5.7
					h24V132H663.9z"/>
				<path class="st2" d="M377.5,156.5v141.2H101.2V174.8h21.2v-33.5h21.2v45.3h17.1v-10.1h29.9v17.1h13v-38.4h34.8v-66h27.5v35.2
					h6.3V95h27.5v45.4h24.9v-27.8h26.7v27.8h5v16.2L377.5,156.5L377.5,156.5z"/>
				<path class="st3" d="M1112.2-24v320.9H1096V-29.6C1101.5-27.9,1106.9-26,1112.2-24z"/>
				<path class="st3" d="M667.3,33.9v263H651V44.2C656.3,41.2,661.8,37.7,667.3,33.9z"/>
				<path class="st4" d="M1008.2,12.3v59.3c0,0.5,0,1,0,1.5c-0.1,4.6-0.7,8.2-1.5,8.2h-0.2c-0.7,0-1.3-3.1-1.5-7.2c0-0.3,0-0.7,0-1
					V73c0-0.4,0-0.9,0-1.4V12.1C1006,12.1,1007.1,12.2,1008.2,12.3z"/>
				<path class="st4" d="M1005.7,73.1c-11.8,0-21.3,9.8-21.3,21.8h42.6C1027,82.8,1017.5,73.1,1005.7,73.1z"/>
				<path class="st5" d="M1007.4,73.3c-0.6-0.1-1.2-0.2-1.9-0.2c-7.7,0-13.9,9.8-13.9,21.8h3.7C995.4,83.9,1000.6,74.8,1007.4,73.3z
					"/>
				<path class="st6" d="M1170.2,33.9H947c1.2-4.1,2.3-8.3,3.2-12.7c0-0.1,0-0.2,0.1-0.3c0.3-1.5,0.7-3,1.1-4.4L1135,3.1
					c3.4,2.2,6.8,4.6,10.1,7.1C1154.2,17.3,1162.8,25.2,1170.2,33.9z"/>
				<path class="st3" d="M180.2-18.5v320.9h16.2V-24.1C190.9-22.4,185.5-20.5,180.2-18.5z"/>
				<path class="st4" d="M284.2,17.8v59.4c0,0.5,0,1,0,1.5c0.1,4.6,0.7,8.2,1.5,8.2h0.2c0.7,0,1.3-3.1,1.5-7.2c0-0.3,0-0.7,0-1v-0.1
					c0-0.4,0-0.9,0-1.4V17.6C286.4,17.6,285.3,17.7,284.2,17.8z"/>
				<path class="st4" d="M286.7,78.6c11.8,0,21.3,9.8,21.3,21.8h-42.6C265.4,88.3,274.9,78.6,286.7,78.6z"/>
				<path class="st5" d="M285,78.8c0.6-0.1,1.2-0.2,1.9-0.2c7.7,0,13.9,9.8,13.9,21.8H297C297,89.4,291.8,80.3,285,78.8z"/>
				<path class="st6" d="M122.2,39.4h223.2c-1.2-4.1-2.3-8.3-3.1-12.7c0-0.1,0-0.2-0.1-0.3c-0.3-1.5-0.7-3-1.1-4.4L157.6,8.7
					c-3.4,2.2-6.8,4.6-10.1,7.1C138.1,22.8,129.6,30.7,122.2,39.4z"/>
				<g>
					<path d="M942.6,121.2c0,0,3.9-4.1,8.8-0.2C951.4,120.9,948.5,120.4,942.6,121.2z"/>
					<g>
						<path class="st7" d="M1079.2,250.9h-12.3c1.2-9.4,3-15.6,3.1-15.7c0-0.1,0-0.1,0-0.2c0,0,0.4-2.6-4-2.6
							c-4.1-0.1-6.1,1.6-6.5,2.3c-1.2-5.3-2.8-9.6-4.8-10.3c-0.9-0.3-1.9-0.4-2.9-0.4c-0.1-0.3-0.4-1-0.8-1.1c-0.1,0-0.1,0-0.2,0
							c-0.4-0.9-0.7-1.8-0.9-2.8V220c1.6-2.2,2.6-6.7,1.8-7.4c-2.8-2.9-12.8-1-8.9,2.4c-0.1,0.1-0.1,0.2-0.1,0.4
							c-0.3,1.2,0.1,7.1,1.6,7.2c0.4,0,0.8,0,1.1,0c0,0.3,0.1,0.8,0.1,1.3c-0.3,0.1-0.6,0.1-0.6,0.1c-0.7,0.3-1.2,0.8-1.7,1.4
							c0,0-5,2.6-5.6,5.1c-0.7,2.5-3.1,14.3-4,15.1s-11.5,2.8-11.5,2.8c-0.1,0.1-0.2,0.3-0.3,0.4c-0.7-0.4-1.9-1-2.4-1.1
							c-0.7-0.1-3.6,2.3-3.8,2.9c-0.3,0.2-0.5,0.4-0.5,0.4h-1.6v-0.5h-3.2h1.6c-0.1,0-1.2,0-1.3-0.8c0-0.1,0-0.1,0-0.2
							c0-0.1,0.1-0.8,0.2-1.8c0-0.3,0-0.6,0.1-0.9c0.1-0.6,0.1-1.2,0.2-2v-0.4h21.6l1.2-0.7l-1.6-6.2l-0.1-0.3l0,0l-7.1-26.6l0,0
							h-44l0,0l-0.6,0.2l8,33.6h13.2l-0.4,4.9c0,0-0.2,1.5,0.9,1.5h1.8h-42h0.1h0.2c0.1,0,0.2,0,0.3-0.1c0.1,0,0.2-0.1,0.2-0.1
							c0.1-0.1,0.1-0.1,0.1-0.2c0-0.1,0-0.2,0-0.3l-0.7-6.6H974l3.5-28.8h-38.9l-3,24.7c-0.6-2.1-1-3.8-1-3.8
							c-0.3-0.8-1.6-5.3-2.2-6c-0.2-0.3-0.8-0.5-1.4-0.6c0.2-0.3,0.2-0.6,0.2-0.9c-0.1-1.8,1.9-1.6,3.2-3.6c1.1-1.8-0.9-2.2,0.2-5
							c0.8-2.1-1.2-2.6-1.2-4.3c0,0-0.3-3.2-4.9-2.4c-1.2,0.2-2.1-2-4.1-1.2c-4.3,1.7-4.6-0.5-5.8,2.6c-0.5,1.3-3.8,2.8-2.8,5.1
							c1,2.2-0.7,3.8,0.5,5.5c0.6,0.9,0.4,2.5,3.3,2.6c0.6,0.1,1.1,0.3,1.6,0.7c-1,0.2-2.2,0.5-3,1.1c-0.2,0.1-0.4,0.3-0.5,0.5l0,0
							c-0.2,0.3-0.4,0.7-0.5,1.1l0,0c0,0-0.6,1.7-1.3,3.8c-0.8-0.2-1.6-0.2-2.4-0.2h-0.3c-0.2,0-0.5,0-0.7,0c-4,0.1-3.6,2.6-3.6,2.6
							c0,0.1,0,0.1,0,0.2c0,0.1,1.5,5.4,2.6,13.7h-14.6c-0.6,0-1.3,0.3-1.7,0.7c-0.5,0.4-0.7,1.1-0.7,1.7l0,0c0,0.6,0.3,1.3,0.7,1.7
							c0.5,0.4,1.1,0.7,1.7,0.7h10l-0.1,0.7l-2.8,21l-2.6,19.6c0,0.1,0,0.1,0,0.2c0,0,0,0.1,0.1,0.1s0.1,0.1,0.1,0.1s0.1,0,0.2,0
							c0.1,0,0.3,0,0.4-0.1c0.1-0.1,0.2-0.2,0.2-0.3l3-17.3l3.4-19.3l0.8-4.6h2.4c0.3,3.5,0.5,7.3,0.4,11.3l0,0c0,0.1,0,0.1,0,0.2
							v0.4v0.1c0,0.1,0,0.1,0,0.2h0.1c0,0.1,0.1,0.2,0.2,0.2s0.2,0.1,0.3,0.1h0.2c0,0,0,0,0,0.1s0.9,11.1-2.7,28.9h0.7
							c4.9-14.3,4.7-26.9,4.5-29h3.3c0,0,0,0,0,0.1s0.9,11.1-2.7,28.9h0.7c4.9-14.3,4.7-26.9,4.5-29H934c-0.2,2.1-0.4,14.7,4.5,29
							h0.7c-3.6-17.8-2.7-28.8-2.7-28.9c0,0,0,0,0-0.1h3.2c-0.2,2.1-0.4,14.7,4.5,29h0.7c-2.6-12.8-2.8-22-2.8-26.3
							c0.1,0.8,0.2,1.6,0.3,2.4c0.5,3.4,9.4,17.1,9.4,17.1l0.2,0.1c0.1,0.4,0.2,0.7,0.2,0.9c0.2,0.8-0.1,1.6-0.3,2.2
							c-0.2,0.4-0.2,0.7-0.3,1.1c-0.1,1.1,1.4,1.3,3.1,1.4c1.8,0.1,1.2,0.4,3.6,0.9c2.4,0.4,3.3-0.2,3.5-0.5
							c0.1-0.1-0.1-0.3-0.5-0.5c0.3,0,0.5,0,0.8,0.1c1.7,0.1,1.2,0.4,3.6,0.9c2.4,0.4,3.3-0.2,3.5-0.5s-1-0.7-2.1-1.2l-0.5-0.2
							c-1.3-0.6-2.1-1.8-3.1-2.9c-0.5-0.5-0.9-1.4-1.2-2.3c0.2-0.1,0.4-0.1,0.5-0.3c0,0-6.5-29.8-10.6-32.4
							c-0.6-0.4-1.5-0.6-2.7-0.9c0.1,0-0.2-0.3-0.5-0.6h85.8c-6.6,1.4-13.5,3.3-14.7,5c-2.3,3.3-6,31.7-6,31.7h0.1
							c-1.5,1.7-3.9,2.7-5.5,3c-2,0.3-2,2-2,2h6.7c0,0,5.2,0,5.4,0c0.7,0,1.1-2.8,1.3-4.4c0.1,0,0.2-0.1,0.3-0.1
							c0,0,8.7-22.5,9.4-24.9c0.1-0.1,0.2-0.3,0.3-0.4s0.3-0.2,0.4-0.2s0.2,0,0.2,0h1.7c0,0,0,0,0,0.1c0,0,0,0.5,0.1,1.3
							c-0.5,0.6-0.8,1.3-1,2c-0.2,1.5,0.1,7.1,0.3,12.1c-0.4,3.4-0.9,7.3-1.8,11.6c-0.8,0.4-1.8,0.7-2.7,0.9c-1.9,0.3-2,2-2,2h4.1
							h0.7h1.8h4.5c0.5,0,0.8,0,0.9,0c0.9-0.1,1.3-4,1.4-5.2c0.2,0,0.3-0.1,0.5-0.3c0,0,0.2-2,0.3-4.8c1.2-5.3,1.9-10.8,2.1-16.3
							c2.2-1,6.8-2.4,10.6-3.5h3.5c-0.2,2.2-0.5,15.2,5,30h0.7c-4-18.5-3-29.8-3-29.9v-0.1h3.7c-0.2,2.2-0.5,15.2,5,30h0.8
							c-4-18.5-3-29.8-3-29.9v-0.1h0.2c0.1,0,0.2,0,0.3-0.1s0.2-0.1,0.2-0.2h0.1c0-0.1,0-0.1,0-0.2v-0.1v-0.4c0-0.1,0-0.1,0-0.2
							c0,0,0,0,0-0.1c0-3.7,0.1-7.1,0.4-10.4h2.4l0.7,3.8l3.9,22.1l2.7,15.4c0,0.1,0.1,0.2,0.2,0.3c0.1,0.1,0.2,0.1,0.4,0.1
							c0.1,0,0.1,0,0.2,0s0.1-0.1,0.1-0.1l0.1-0.1c0,0,0-0.1,0-0.2l-2-14.9l-3.4-25.2l-0.1-1.1h7.8c0.6,0,1.3-0.3,1.7-0.7
							c0.5-0.4,0.7-1.1,0.7-1.7l0,0c0-0.6-0.3-1.2-0.7-1.7S1079.8,250.9,1079.2,250.9L1079.2,250.9z M948.8,249.8
							c-0.1,0-0.2,0-0.3,0.1s-0.2,0.2-0.2,0.3s0,0.2,0,0.2c0,0.1,0,0.2,0.1,0.2s0.1,0.1,0.2,0.1c0.1,0,0.2,0.1,0.2,0.1h-8.6
							c-0.5-0.5-0.9-0.9-1.3-1.4c0.1-0.1,0.2-0.2,0.2-0.4c0.4-0.6,0.7-1.1,0.8-1.2c0.3-0.4-1.3-1.1-1.9-1.6
							c-0.2-0.2-0.6-1.3-1.1-2.8h17.4l-0.2,5c0,0.3-0.2,0.7-0.4,0.9s-0.6,0.4-0.9,0.4L948.8,249.8L948.8,249.8z M959.2,289.7
							c0.2,0.6,0.4,1.3,0.5,1.7c0.2,0.8-0.1,1.6-0.3,2.2c-0.2,0.4-0.2,0.7-0.3,1.1c0,0.1,0,0.2,0,0.3c-1.2-0.6-1.9-1.7-2.9-2.8
							c-0.4-0.4-0.7-0.9-0.9-1.4c0.2,0,0.3-0.1,0.4-0.2c0,0-0.6-3.5-1.6-8.2c2.4,3.8,4.8,7.1,4.8,7.1L959.2,289.7z M932.1,247.9
							c0.1,0.3,0.3,0.5,0.4,0.7c0.4,0.6,1,1.2,1.5,1.8c0.2,0.2,0.3,0.3,0.5,0.4h-0.3c0.4,0-1.4-1.5-2.2-1.8c0-0.2,0-0.4,0.1-0.6
							C932,248.3,932,248.1,932.1,247.9L932.1,247.9z M947.4,256L947.4,256L947.4,256L947.4,256z M944.3,255.8c0.3,0,1.4,0,1.7,0.1
							c-1.6-0.1-3.3-0.1-5.1-0.2h3C944,255.8,944.1,255.8,944.3,255.8L944.3,255.8z M1042.3,243.7c0.9,3.4,1,5.6,0.8,7.2h-5.2
							C1039.6,248.6,1041,246.2,1042.3,243.7L1042.3,243.7z M1031.6,293.7c0.3-1,0.6-1.9,0.8-2.9l0.1,1.1c0,0,0.3,0.1,0.8,0.1
							C1032.9,292.7,1032.3,293.3,1031.6,293.7L1031.6,293.7L1031.6,293.7z"/>
						<path class="st8" d="M1082.6,224.6c0.4-10.4,1.3-19.5,2.4-25.8c1.8-10.1,3.3-15.9,3.3-15.9c0.2-0.9,3.6-4.5,10.9-4.4
							c7.4,0.1,6.7,4.8,6.7,4.8c0,0.1,0,0.3-0.1,0.4c-0.1,0.2-6.8,24.8-6.6,56.5c0,0.4,0.1,1.2,0,1.7c0,0-17.1,0.4-17.1,0
							C1081.7,239.2,1082,231.5,1082.6,224.6z"/>
						<path class="st9" d="M1080.5,240.1c0,0.4,0.2,0.8,0.5,0.8s0.5-0.4,0.5-0.8h14.7c0,0.4,0.2,0.8,0.5,0.8s0.5-0.4,0.5-0.8
							c-0.1-8.4,0.3-16.7,1.2-25c1.9-18.6,5.5-31.1,5.6-31.3c0-0.1,0.1-0.3,0.1-0.4c0,0,0.7-4.7-6.7-4.8s-10.7,3.5-10.9,4.4
							c0,0.1-0.9,3.3-2.1,9.2c-0.4,2-0.8,4.2-1.2,6.7c-1.1,6.3-2,15.4-2.4,25.8C1080.1,231.5,1079.9,237.3,1080.5,240.1z"/>
						<path class="st10" d="M1080.5,240.1c0,0.4,0.2,0.8,0.5,0.8s0.5-0.4,0.5-0.8h14.7c0,0.4,0.2,0.8,0.5,0.8s0.5-0.4,0.5-0.8
							c-0.1-8.4,0.3-16.7,1.2-25c-2.4-11.8-11.8-20.9-14-22.9c-0.4,2-0.8,4.2-1.2,6.7c-1.1,6.3-2,15.4-2.4,25.8
							C1080.1,231.5,1079.9,237.3,1080.5,240.1z"/>
						<path class="st8" d="M1095.2,239.9L1095.2,239.9L1095.2,239.9L1095.2,239.9c-0.1-0.1-0.1-0.1-0.1-0.1l0,0l0,0
							c0-0.6-1.2-0.7-3.2-0.7h-1.4c-0.6,0-1.2,0-1.8,0c-2.3,0-4.5-0.1-6.8-0.5c-1.6-0.3-0.5-12.4,0.6-23.7c0.2-1.9,0.3-3.4,0.4-4.3
							c0.7-9.5,4.9-26.7,5-26.9c0.2-0.7,2.7-3.4,8.2-3.3c2.1,0,3.5,0.5,4.3,1.5c0.3,0.3,0.4,0.6,0.6,1s0.2,0.8,0.1,1.1
							c0,0.1,0,0.2,0,0.3s-3.8,22.2-4.4,27.5c-1.1,9-1.4,27.6-1.4,27.9L1095.2,239.9L1095.2,239.9z M1092,238.9
							c1.7,0,2.8,0.1,3.2,0.5c0.1-2.7,0.5-19.2,1.4-27.5c0.6-5.4,4.4-27.5,4.4-27.6s0-0.2,0-0.3c0-0.4,0-0.7-0.1-1.1
							c-0.1-0.4-0.3-0.7-0.5-1c-0.8-0.9-2.2-1.4-4.2-1.5h-0.2c-5.2,0-7.6,2.5-7.8,3.2c0,0.2-4.2,17.2-5,26.8
							c-0.1,0.9-0.2,2.4-0.4,4.3c-0.7,7.6-2.3,23.3-0.7,23.5c2.2,0.4,4.5,0.5,6.7,0.5c0.6,0,1.2,0,1.8,0
							C1091.1,238.9,1091.5,238.9,1092,238.9L1092,238.9z"/>
						<path class="st9" d="M1098.3,240.9h-57.4c0,0,1.3-5.4,34.6-4.6C1099,236.8,1098.3,240.9,1098.3,240.9z"/>
						<path class="st8" d="M1103,297.4c-6.7-33.7-4.9-54.4-4.9-54.6c0-0.5-0.9-1-1.4-1s-2.8-0.1-3.1,0.3c-0.3,0.6-1.7,26.1,8.2,55.4
							L1103,297.4z"/>
						<path class="st8" d="M1049.3,297.4c6.7-33.7,4.9-54.4,4.9-54.6c0-0.5,0.9-1,1.4-1s2.8-0.1,3.1,0.3c0.3,0.6,1.7,26.1-8.2,55.4
							L1049.3,297.4z"/>
						<path class="st11" d="M1038.7,297.4c6.7-33.7,4.9-54.4,4.9-54.6c0-0.5,0.9-1,1.4-1s2.8-0.1,3.1,0.3c0.3,0.6,1.7,26.1-8.2,55.4
							L1038.7,297.4z"/>
						<path class="st11" d="M1092.3,297.4c-6.7-33.7-4.9-54.4-4.9-54.6c0-0.5-0.9-1-1.4-1s-2.8-0.1-3.1,0.3
							c-0.3,0.6-1.7,26.1,8.2,55.4L1092.3,297.4z"/>
						<path class="st8" d="M1040.8,242.6h57.4c0.7,0,1.2-0.5,1.2-1.2v-0.8c0-0.6-0.5-1.2-1.2-1.2h-57.4c-0.7,0-1.2,0.5-1.2,1.2v0.8
							C1039.7,242.1,1040.2,242.6,1040.8,242.6z"/>
						<path class="st12" d="M1029.9,190.8c-2.4-1.4-3.7-2.6-5.4-2.8c-1.8-0.3-5-0.5-5.4-1.1c-1.1-1.7-2.3-4.9-1.5-4.7s3.8,2.3,4.8,2
							s-1.5-1.1-0.9-1.6s3.2,0.7,3.9,2.1c0.2,0.5,7.8,2.8,7.8,2.8L1029.9,190.8z"/>
						<path class="st12" d="M1064.4,277c0.2,0.2,0.4,0.5,0.4,0.9c0.1,0.3,0,0.6-0.1,1l0,0c-0.4,1.2-1.9,2.6-3.6,3.9
							c-0.2,0.2-0.4,0.3-0.6,0.5l-0.1,0.1l-0.1,0.1c-1.6,1.4-1,1.8-3.8,4.7c-3.2,3.3-5.4,3.4-6.1,3.1c-0.5-0.3,0.6-2,1.8-4l0.2-0.3
							l0.5-0.8c1.4-2.4,1.1-3.5,0.7-7.1c-0.3-2.9-4.5-16.2-4.5-16.2l6.2-1.1c0,0,1.8,10.6,3.9,12.2c1.1,0.9,2.3,0.9,3.4,1.5l0.2,0.1
							C1063.3,276,1063.9,276.4,1064.4,277L1064.4,277z"/>
						<path class="st13" d="M1064.4,277c0.2,0.2,0.4,0.5,0.4,0.9s0,0.6-0.1,1l0,0c-0.5,1.2-1.9,2.5-3.6,3.9
							c-0.2,0.2-0.4,0.3-0.6,0.5l-0.1,0.1l-0.1,0.1c-1.6,1.4-1,1.8-3.8,4.7c-3.2,3.3-5.4,3.4-6.1,3.1c-0.5-0.3,0.6-2,1.8-4
							c2.2-0.9,4.2-2.3,5.7-4.2c1.9-2.5,3.2-5.6,4.5-7.5l0.2,0.1C1063.3,276,1063.9,276.4,1064.4,277L1064.4,277z"/>
						<path class="st12" d="M1014.8,273.1c-0.4,1.9-3.1,1.6-6.1,0.8c-3-0.7-2.3,0.1-6.6-0.3c-4.3-0.5-5.6-2.1-5.7-2.7
							c-0.1-0.6,2-0.8,4.3-1l0.9-0.1c2.6-0.3,4.5-2,6.8-3.4c2.2-1.3,5.5-6.5,5.5-6.5l5.9,0.5c0,0-3.1,4.7-4.3,6.7
							c-0.7,1.2-0.7,2.8-0.6,4C1014.9,271.8,1014.9,272.4,1014.8,273.1L1014.8,273.1z"/>
						<path class="st13" d="M1008.7,274c-3-0.7-2.3,0.1-6.6-0.3c-4.3-0.5-5.6-2.1-5.7-2.7c-0.1-0.6,2-0.8,4.3-1l0,0
							c1.8,1.2,4,1.8,6.2,1.9c2.9,0.1,6-0.8,8-0.7c0.1,0.7,0.1,1.4,0,2C1014.4,275,1011.7,274.7,1008.7,274z"/>
						<path class="st14" d="M1037.4,235.4l12.7,34.2c1.3,0.1,2.6,0,3.8-0.4c1.7-0.5,3.7-1.8,3.7-1.8s-3.2-32.9-8.9-39.7
							C1042.9,220.9,1037.4,235.4,1037.4,235.4z"/>
						<path class="st13" d="M1087.7,221.6c0,0-36.5-12.3-44.7-9.7c-8.1,2.6-32.6,51.3-32.6,51.3s0.5,0.7,2.1,1.3
							c1.4,0.5,4.8,0.5,4.8,0.5s22.1-18.9,24.7-24.4s3.7-10.8,6.3-10.2c2.6,0.5,33.9,12.9,41,5.5s5.2-16.9,5.2-16.9L1087.7,221.6z"
							/>
						<path class="st15" d="M1065.4,164.1c-0.6-1.2-1.2-3.3-1.6-7.2c0.1,0.4,0.7,5.2,2.6,7.9c7.6,5,22.2,21.6,21.9,24.8
							c0,0,5.1-8.7,5.2-8.8c0,0,9.5-12-1.8-18.9c-5.7-3.5-5.7-8-5.4-11.9c0.2-3.9-1.6-20.7-13-16.3c0,0-1.8-0.8-2.7-0.7
							c0.4,0.1,0.7,0.2,1,0.5c-1.3-0.1-3.2,0-4.8,0.9C1062.7,136.8,1058.9,158.2,1065.4,164.1z"/>
						<path class="st12" d="M1066.8,165.1c0,0,3.7,1.9,6.4,1.2c2.6-0.7,4.3-4.1,4.3-4.1c-1.1-0.2-1.4-1.8-1.4-8.3l-0.5,0.1l-8.4,1.7
							c0,0,0.2,2.7,0.2,5.2C1067.4,162.9,1067.3,164.9,1066.8,165.1z"/>
						<path class="st16" d="M1067.2,155.6c0,0,0.2,2.7,0.2,5.2c4.7-0.1,7.2-4.4,8.2-6.8L1067.2,155.6z"/>
						<path class="st15" d="M1076.5,153c0,0,2.5-3.9,3.1-7.3c0.4-2.4-0.8-11.2-9.7-10c-1.8,0.2-3.5,0.9-5,1.9
							c-1.9,1.3-4.7,4.1-1.6,11.8l0.8,2.6L1076.5,153z"/>
						<path class="st12" d="M1065.6,158c0,0,11.2,0.2,11.2-6.8s1.5-11.6-5.7-12c-7.1-0.4-8.5,2.2-9.1,4.6
							C1061.5,146.1,1062.7,157.8,1065.6,158z"/>
						<path class="st15" d="M1066.1,139c0,0,3.1,8.2,7.8,9.4c4.7,1.2,6.7-0.1,6.7-0.1c-2.3-2-3.8-4.8-4.3-7.9
							C1076.2,140.5,1068.4,135.1,1066.1,139z"/>
						<path class="st15" d="M1066.8,139.7c0,0-2.3,1.8-2.8,3.6c-0.6,1.8-0.8,5.4-1.9,5.3c0,0-2.3-5.6,0.3-8.7
							C1065.1,136.6,1066.8,139.7,1066.8,139.7z"/>
						<path class="st17" d="M1091.7,195.2c1.1-4.6-2.7-13.6-6.6-21c-3.6-6.7-7.2-12.2-7.6-12c-9.4,5.6-10.2,0.9-10.2,0.9
							s-8.5,1.1-10.9,5.3c-3.3,5.7-7,22.9-10.5,22.7c-1.6-0.1-18.1-6.3-18.1-6.3s-2.7,2.6-2.2,5.7c0,0,8.1,5.4,15,8.9
							c3.6,1.8,6.9,3.1,8.5,2.8c3.1-0.7,8-8,10.7-12.3l0,0c3.4,19.1-1.2,23.4,1.1,25.5c2.5,2.1,6-1,13.7,2.3
							c5.1,2.2,12.1,5.4,16.8,5.9c2.5,0.3,4.3-0.1,4.9-1.8C1098,216.9,1089.6,204,1091.7,195.2z"/>
						<path class="st18" d="M1068.1,153.8c0,0-0.2,0.9-2.4,0.8c0,0-1.8-0.1-1.8-1.1C1063.9,153.4,1065.7,152.7,1068.1,153.8z"/>
						<path class="st19" d="M1096.3,221.8c-0.6,1.7-2.5,2.1-4.9,1.8c-3.3-1.4-17.4-6.9-17.2-10.6c0.2-5.5,2.7-5.7,1-12.4
							c-1.4-5.4,11.6-15.6,13.7-17.8c3.9,7.4,4,7.8,2.9,12.4C1089.6,204,1098,216.9,1096.3,221.8z"/>
						<path class="st19" d="M1059.7,189.9c-2.6,4.3-7.5,11.5-10.7,12.3c-1.6,0.4-4.8-0.9-8.5-2.8c2.7,0.7,5.2,0.7,7.7,0.4
							c2.7-0.3,3.5-3.6,7.8-8.6C1058.9,188,1059.6,188.8,1059.7,189.9z"/>
						<path class="st12" d="M1072.8,200.4c0,0-2.4-1.8-4.6-1.4c-2.2,0.4-3.3,2-3.2,2.7s1.3,2.7,3,2.9s6.6-1.1,6.6-1.1L1072.8,200.4z
							"/>
						<path class="st17" d="M1077.6,162.2c0,0,9.1,0.6,12.3,5c4.4,6.2,12.2,31.5,10,37.2l-27.7-0.1c0,0-0.7-3.1,0.3-4.7
							c0.9-1.5,16.1-4,16.8-4.7s-8.8-13.7-8.8-15.8C1080.5,177.1,1077.6,162.2,1077.6,162.2z"/>
						<path class="st20" d="M1068.9,210.9h-33.6l-6.1-21.1h33.5L1068.9,210.9z"/>
						<path class="st15" d="M1079.3,210.1h-43.9v0.8h43.9V210.1z"/>
						<path class="st15" d="M1046,200c-0.2-0.7,0.2-1.3,0.9-1.3c0.4,0,0.8,0.2,1.1,0.4c0.3,0.2,0.5,0.6,0.7,0.9
							c0.2,0.7-0.2,1.3-0.9,1.3c-0.4,0-0.8-0.2-1.1-0.4C1046.3,200.7,1046.1,200.4,1046,200z"/>
						<path class="st13" d="M971,210.9h33.6l6-21.1h-33.5L971,210.9z"/>
						<path class="st13" d="M960.5,210.9h43.9v-0.8h-43.9V210.9z"/>
						<path class="st14" d="M993.8,200c0.2-0.7-0.2-1.3-1-1.3c-0.4,0-0.8,0.2-1.1,0.4s-0.5,0.6-0.7,0.9c-0.2,0.7,0.2,1.3,1,1.3
							c0.4,0,0.8-0.2,1.1-0.4C993.5,200.7,993.7,200.4,993.8,200L993.8,200z"/>
						<path class="st12" d="M980.1,173.2c0,0,3.4-2.8,4.6-2.8c1.2,0,3.5-0.6,3.5-0.2c-0.1,0.4-2,0.9-1.7,1.1c0.3,0.2,3.2-0.6,4-0.1
							s2.7,2.4,1.2,3.2s-6,2.1-7.2,2s-3.8-0.3-3.8-0.3L980.1,173.2z"/>
						<path class="st12" d="M936.6,276.6l2.9,12h4.3l0.2-12H936.6L936.6,276.6z"/>
						<path class="st12" d="M972.6,277.2l8.2,11.4l3-3.9l-4.9-9L972.6,277.2z"/>
						<path class="st15" d="M956,131.7L956,131.7c-0.1-0.7-0.1-1.3-0.2-1.9c-0.2-1.7-0.6-3.4-1-5.1c-0.2-0.9-0.5-1.7-0.8-2.5
							c0-0.1-0.1-0.2-0.1-0.3c-0.7-1.7-1.5-2.9-2.3-3.4c-1.5-0.8-3.2-0.9-4.5-0.9c0.3-0.2,0.6-0.4,1-0.4c-0.8-0.1-2.5,0.6-2.5,0.6
							c-10.7-4.1-12.4,11.6-12.1,15.3c0.2,3.6-3.6,4.9-9.2,7.7c-10.6,5.5-11.5,12.8-11.5,12.8c0.1,0.1,0.2,0.1,0.3,0.2
							c0.5-0.9,1.6-2.6,2.5-2.8c-0.5,1.2-1,2.4-1.5,3.6c1.3,1,3.2,2.6,5.2,4.3c2.7,2.3,5.6,4.9,7.9,7.1c0-0.7,0-1.8,0.3-2.3l0.4,2.7
							l0.1,0.4c1.5,1.4,2.7,2.5,3.2,3l0.2,0.1l0.3,0.2c-0.1-0.9,1.2-3.2,3.3-5.9c0.1-0.2,0.3-0.4,0.4-0.6c0.7-0.9,1.4-1.8,2.2-2.7
							c0.3-0.3,0.6-0.7,0.9-1c0.2-0.3,0.5-0.6,0.7-0.8c0.6-0.7,1.2-1.3,1.8-2c1.6-1.7,3.2-3.4,4.8-4.9c2.3-2.2,4.6-4.1,6.4-5.3
							c0.1-0.1,0.1-0.2,0.2-0.3c0.3-0.6,0.6-1.2,0.9-1.8c0.1-0.2,0.2-0.4,0.2-0.6c0.5-1.5,0.9-3.1,1.1-4.6c-0.1,1.6-0.4,3.2-0.8,4.7
							c-0.1,0.2-0.1,0.5-0.2,0.7c-0.1,0.4-0.3,0.8-0.5,1.2c0.3-0.3,0.6-0.6,0.8-1c0.2-0.2,0.3-0.5,0.5-0.8
							C956,141.5,956.4,136.5,956,131.7z"/>
						<path class="st12" d="M951.5,147.2c0,0-3.4,1.8-6,1.1c-2.5-0.7-4-3.9-4-3.9c1-0.2,1.3-1.6,1.3-7.8l0.5,0.1l7.9,1.6
							c0,0-0.2,2.5-0.2,4.8C951,145.2,951.1,147,951.5,147.2z"/>
						<path class="st16" d="M951.1,138.4c0,0-0.2,2.5-0.2,4.8c-4.4-0.1-6.8-4.1-7.7-6.4L951.1,138.4z"/>
						<path class="st15" d="M942.4,135.9c0,0-2.3-3.7-2.9-6.8c-0.4-2.2,0.7-10.5,9.1-9.3c1.7,0.2,3.3,0.8,4.7,1.8
							c1.8,1.2,4.4,3.8,1.5,11.1l-0.8,2.4L942.4,135.9z"/>
						<path class="st21" d="M982.6,281.5l-4.2,0.1l-4.5,0.1c0,0-10.5-11.6-16.3-30.3c-0.1-0.4-0.3-0.9-0.4-1.3
							c-3.2-9.4-9.9-21.1-13.4-31.8c-0.5-1.7-1.1-3.3-1.5-4.8c-0.1-0.5-0.3-0.9-0.4-1.4c-2.6-9-3.3-14.9-4-21.2l25.3,0.2
							C963.1,191.1,967.2,234.1,982.6,281.5z"/>
						<path class="st22" d="M959.6,176.6c-0.1,12.1,1.8,17.2,1.8,17.2s-10.8,5.5-23.7,1.5c-0.2-0.1-10.7-2.4-10.7-2.4
							c0.2-0.5,2.1-8.6,2.3-9.1c2.7-5.9,4.8-8.4,5.1-10.2c0.5-3.3,0.7-6.7,0.3-10.1c-0.5-5.4-1.6-10.7-3.1-15.9
							c3.5-0.8,6.9-2.2,10.6-3.5c0.8,1.1,3.3,2.1,5.6,2.1c2.6-0.1,3.4-1.2,3.3-2.4c2.7,1.5,4.9,3,4.9,3c2.3,4,7,8,7.4,14.2
							C963.3,162.4,959.6,176.2,959.6,176.6z"/>
						<path class="st12" d="M952.6,140.6c0,0-10.4,0.2-10.5-6.3s-1.4-10.9,5.3-11.3s8,2.1,8.5,4.3
							C956.5,129.4,955.3,140.4,952.6,140.6z"/>
						<path class="st15" d="M952.2,122.8c0,0-2.9,7.6-7.3,8.8c-4.4,1.1-6.3-0.1-6.3-0.1c2.2-1.9,3.6-4.5,4.1-7.3
							C942.7,124.2,950.1,119.2,952.2,122.8z"/>
						<path class="st15" d="M951.5,123.4c0,0,2.1,1.7,2.7,3.4c0.5,1.7,0.8,5.1,1.8,5c0,0,2.2-5.2-0.3-8.1
							C953.1,120.5,951.5,123.4,951.5,123.4z"/>
						<path class="st12" d="M939.3,288c0.2,1.7,0,3.4-0.5,4.9c0,0-0.7,3.2,2.4,3.2s3.9-0.2,3.6-2.2c-0.4-2-1-5.3-1-5.3L939.3,288z"
							/>
						<path class="st23" d="M945.2,298.1h-6.9c-0.3-1.4,0.3-4.4,0.5-5V293l0,0c3.5,3.3,5.8-0.1,5.8-0.1l0,0
							C945.1,294.1,945.2,297.6,945.2,298.1z"/>
						<path class="st12" d="M991.5,294.3c0,0-5.8-6.4-7.6-9.7l-4.3,2.2l9.6,9l2.3-0.3V294.3z"/>
						<path class="st23" d="M995.2,298.1h-7.3c-1.1,0-1.9-1.8-3.1-4.1c-0.5-1-1.5-1.5-2.6-1.8v5.8h-1.7l-1.5-6.2
							c-1-1.9-0.1-3.6,0.6-5.1c0.8,0,3.1,0.6,7.4,5.4c1.4,1.6,3,2.1,4.5,2.1h0.1C995.1,296,995.2,298.1,995.2,298.1z"/>
						<path class="st24" d="M978.4,281.6l-4.5,0.1c0,0-10.5-11.6-16.3-30.3c-0.1-0.4-0.3-0.9-0.4-1.3c-3.2-9.4-9.9-21.1-13.4-31.8
							c-0.5-1.7-1.1-3.3-1.5-4.8c-0.1-0.5-0.3-0.9-0.4-1.4l3.7-2.8c0,0,11.2,18.1,14.7,35.2C963.2,259.3,975.3,277.1,978.4,281.6z"
							/>
						<path class="st21" d="M945.9,246.1c0.1,8.3-0.4,27.4-1.4,35.3h-4c-2.2,0-3.3,0-3.3,0c-2.7-13.7-4.7-25.1-6-34.9
							c-1.2-8-2.2-14.9-3-20.9c-0.8-5.9-1.3-11-1.5-15.2c0-0.7,0-1.3-0.1-1.9s0-1.2,0-1.8l21.9-2.1
							C948.2,219,945.9,241.2,945.9,246.1z"/>
						<path class="st24" d="M940.5,281.4c-2.2,0-3.3,0-3.3,0c-2.7-13.7-4.7-25.1-6-34.9c-1.2-8-2.2-14.9-3-20.9
							c-0.8-5.9-1.3-11-1.5-15.2l8,4.7c0,0-5.1,1.8-3.2,15.5C933.4,244.3,937.8,279.4,940.5,281.4z"/>
						<path class="st4" d="M941.5,210.2c0,0-1.5,5.6-6.9,4.9c-5.3-0.7-12.9-3.9-12.9-3.9s2.3-7.2,5.1-16.7
							c3.4-11.5,4.3-27.6,6.3-36.9c0.6-2.6,4.3-3.5,4.5-5l4.5-8.6c0,0,6.5,14.8,6.9,18.6C949.3,166.3,941.5,210.2,941.5,210.2z"/>
						<path class="st25" d="M937.8,173.6c-0.2,6.1-2.3,16.4-10.9,20.9c0,0-0.1,0-0.1,0.1c3.4-11.5,3.4-22.5,5.4-31.8
							C936.8,161.8,937.9,170.2,937.8,173.6z"/>
						<path class="st23" d="M993,169.9h-8.2c0,0,0,0.2,0,0.4c0,0.7-0.1,2.2-0.1,2.3c0.1,1.7,1.3,2.7,2.5,3.2l0,0
							c0.3,0.1,0.5,0.2,0.8,0.2c0.2,0,0.4,0.1,0.5,0.1s0.2,0,0.3,0c0.6,0,1.2-0.1,1.7-0.4c0.7-0.3,1.3-0.9,1.8-1.5
							c0.4-0.7,0.7-1.4,0.7-2.2v-1.6C993,170.3,993,170.1,993,169.9L993,169.9z"/>
						<path class="st26" d="M992.3,169.9h-1.1c0,0.2,0,0.3,0,0.5v1.6c0,1.1-0.4,2.1-1.2,2.9c-0.4,0.4-0.8,0.7-1.3,0.9
							c-0.2,0.1-0.5,0.2-0.8,0.3c-0.1,0-0.2,0.1-0.3,0.1c0.2,0,0.4,0,0.5,0s0.2,0,0.3,0c0.5,0,0.9-0.1,1.3-0.3
							c0.8-0.4,1.4-0.9,1.8-1.6c0.2-0.3,0.3-0.6,0.4-0.9c0.1-0.4,0.2-0.8,0.2-1.2v-1.6C992.4,170.3,992.4,170.1,992.3,169.9z"/>
						<path class="st23" d="M987.2,176.4h3.4v-0.5h-3.4V176.4z"/>
						<path class="st4" d="M981.2,171.6c0,0-11.8,3.9-13.2,3.6c-1.5-0.3-3.6-16.2-4.7-21.7c-1.5-7-7-8.4-7-8.4l-5.3-1.4
							c0,0,6,14.9,6.2,18c0.2,3,0.7,49.4,0.7,49.4s-0.4,2.1,3.7,1.2c4.1-0.9,5.2-1.8,5.2-1.8s-1.8-13-2.6-24.5
							c4.2-0.7,17.6-7.5,17.6-7.5C983.8,175.3,981.2,171.6,981.2,171.6z"/>
						<path class="st12" d="M928.3,187.4c0,0,4.6-0.8,5.8,0.3s2.7,6,1.4,6.2s-4.3-3-5.1-2.8c-0.8,0.3-2.1,0.7-2.5,0
							c-0.3-0.7-2.6-2.9-2.6-2.9L928.3,187.4z"/>
						<path class="st12" d="M931.7,186.2c0,0-2.8,1.2-3.4,1.2c-0.5,0,1.2,1.1,1.2,1.1l0.9-0.8C930.4,187.6,931.9,187.2,931.7,186.2z
							"/>
						<path class="st4" d="M942.1,144c0,0-10.3,0.4-12.8,2.8c-2.5,2.3-17.3,20-17.5,24.7c-0.2,4.6,13,17.9,13,17.9s3.7-0.9,5.3-3.2
							c0,0-8.2-14.6-7.7-15.2c0.5-0.6,14.4-12,15.5-9.5C938.9,163.6,942.1,144,942.1,144z"/>
						<path class="st27" d="M938,215.5l-2.3,13.2l-6.5,36.6l-5.8,32.7c0,0.2-0.2,0.5-0.4,0.6s-0.4,0.2-0.7,0.2c-0.1,0-0.2,0-0.3-0.1
							s-0.2-0.1-0.2-0.2s-0.1-0.2-0.2-0.3c0-0.1,0-0.2,0-0.3l5-37l5.3-39.6l0.8-6L938,215.5z"/>
						<path class="st11" d="M935.7,228.8c0.3-5.7-3.7-7.4-3.7-7.4l0.8-6l5.2,0.1L935.7,228.8z"/>
						<path class="st27" d="M1118.2,298.8c-0.2,0-0.5-0.1-0.7-0.2c-0.2-0.2-0.3-0.4-0.4-0.6l-5.1-29l-7.4-41.8l-2.1-11.7l5.2-0.1
							l0.9,6.8l6.4,47.6l3.8,28.2c0,0.1,0,0.2,0,0.3s-0.1,0.2-0.2,0.3c-0.1,0.1-0.2,0.1-0.3,0.2
							C1118.4,298.8,1118.3,298.9,1118.2,298.8L1118.2,298.8z"/>
						<path class="st11" d="M1108.8,222.1c-3.4,1.5-4.1,5.1-4.1,5.1l-2.1-11.7l5.2-0.1L1108.8,222.1z"/>
						<path class="st28" d="M1118.1,210.9H911.4c-2.2,0-4,1.8-4,3.9v1.3c0,2.2,1.8,3.9,4,3.9h206.7c2.2,0,3.9-1.8,3.9-3.9v-1.3
							C1122,212.7,1120.2,210.9,1118.1,210.9z"/>
					</g>
				</g>
				<path class="st8" d="M550.5,247.2c-0.3-7-0.9-13-1.7-17.2c-1.2-6.7-2.2-10.6-2.2-10.6c-0.2-0.6-2.4-3-7.4-2.9s-4.5,3.2-4.5,3.2
					c0,0.1,0,0.2,0,0.3c0,0.2,4.6,16.5,4.4,37.6c0,0.3,0,0.8,0,1.1c0,0,11.5,0.3,11.5,0C551.1,256.9,550.9,251.8,550.5,247.2z"/>
				<path class="st9" d="M552,257.5c0,0.3-0.2,0.5-0.3,0.5s-0.3-0.2-0.3-0.5h-9.9c0,0.3-0.2,0.5-0.3,0.5c-0.2,0-0.3-0.2-0.3-0.5
					c0-5.6-0.2-11.1-0.8-16.7c-1.3-12.4-3.8-20.7-3.8-20.8s0-0.2,0-0.3c0,0-0.5-3.1,4.5-3.2c5-0.1,7.2,2.3,7.4,2.9
					c0,0,0.6,2.2,1.4,6.1c0.3,1.3,0.5,2.8,0.8,4.5c0.7,4.2,1.3,10.3,1.6,17.2C552.2,251.8,552.4,255.7,552,257.5z"/>
				<path class="st10" d="M552,257.5c0,0.3-0.2,0.5-0.3,0.5s-0.3-0.2-0.3-0.5h-9.9c0,0.3-0.2,0.5-0.3,0.5c-0.2,0-0.3-0.2-0.3-0.5
					c0-5.6-0.2-11.1-0.8-16.7c1.6-7.9,8-13.9,9.5-15.3c0.3,1.3,0.5,2.8,0.8,4.5c0.7,4.2,1.3,10.3,1.6,17.2
					C552.2,251.8,552.4,255.7,552,257.5z"/>
				<path class="st8" d="M542,257.4L542,257.4L542,257.4c0-0.3-0.3-12.7-1-18.6c-0.4-3.5-3-18.3-3-18.4c0-0.1,0-0.1,0-0.2
					c0-0.3,0-0.5,0.1-0.8c0.1-0.2,0.2-0.5,0.4-0.7c0.6-0.6,1.5-1,3-1h0.2c3.6,0,5.2,1.7,5.4,2.2c0,0.1,2.9,11.5,3.4,17.9
					c0,0.6,0.2,1.6,0.3,2.9c0.8,7.6,1.5,15.6,0.4,15.8c-1.5,0.2-3,0.3-4.6,0.3c-0.4,0-0.8,0-1.2,0h-1C542.9,256.9,542,257,542,257.4
					L542,257.4L542,257.4L542,257.4z M541.5,217.9h-0.2c-1.4,0-2.3,0.4-2.9,1c-0.2,0.2-0.3,0.4-0.3,0.6c-0.1,0.2-0.1,0.5-0.1,0.7
					c0,0.1,0,0.1,0,0.2c0,0,2.6,14.7,3,18.4c0.6,5.5,0.9,16.5,1,18.3c0.3-0.3,1-0.3,2.2-0.3h1c0.4,0,0.8,0,1.2,0
					c1.5,0,3-0.1,4.5-0.3c1-0.2,0-10.6-0.5-15.7c-0.1-1.3-0.2-2.3-0.3-2.9c-0.5-6.4-3.3-17.8-3.3-17.9
					C546.7,219.5,545,217.9,541.5,217.9L541.5,217.9z"/>
				<path class="st9" d="M539.9,258h38.8c0,0-0.9-3.6-23.4-3.1C539.5,255.4,539.9,258,539.9,258z"/>
				<path class="st8" d="M536.8,295.7c4.5-22.5,3.3-36.2,3.3-36.4c0-0.3,0.6-0.7,1-0.7s1.9-0.1,2.1,0.2c0.2,0.4,1.1,17.4-5.6,36.9
					H536.8z"/>
				<path class="st8" d="M573,295.7c-4.5-22.5-3.3-36.2-3.3-36.4c0-0.3-0.6-0.7-1-0.7s-1.9-0.1-2.1,0.2c-0.2,0.4-1.1,17.4,5.6,36.9
					H573z"/>
				<path class="st11" d="M580.2,295.7c-4.5-22.5-3.3-36.2-3.3-36.4c0-0.3-0.6-0.7-1-0.7s-1.9-0.1-2.1,0.2
					c-0.2,0.4-1.1,17.4,5.6,36.9H580.2z"/>
				<path class="st11" d="M544,295.7c4.5-22.5,3.3-36.2,3.3-36.4c0-0.3,0.6-0.7,1-0.7s1.9-0.1,2.1,0.2c0.2,0.4,1.1,17.4-5.6,36.9
					H544z"/>
				<path class="st8" d="M578.8,257.1H540c-0.4,0-0.8,0.4-0.8,0.8v0.5c0,0.4,0.3,0.8,0.8,0.8h38.8c0.4,0,0.8-0.4,0.8-0.8v-0.5
					C579.5,257.5,579.2,257.1,578.8,257.1z"/>
				<path class="st12" d="M570.8,233.5c0,0,7.1,8.1,8.5,8c1.5-0.1,2.4-0.6,3.7,0c0.9,0.4,3.9,2.8,3.1,2.6c-0.8-0.2-2.2-0.3-2.6-0.4
					c-0.5-0.1-1.3-0.1-1.9-0.2c-0.4-0.1-1.7-0.1-2.1-0.1c-1.9-0.1-10.7-5.2-10.7-5.2L570.8,233.5z"/>
				<path class="st20" d="M565.8,192.4c0,0-0.3-4.1-6.2-3c-1.5,0.3-2.6-2.5-5.1-1.5c-5.5,2.1-5.8-0.7-7.3,3.2
					c-0.7,1.6-4.9,3.6-3.6,6.4c1.3,2.8-0.9,4.8,0.6,7c0.8,1.1,0.5,3.2,4.1,3.3c1.8,0,4.7,3.4,6.7,4s8.2-0.3,8-3.1
					c-0.2-2.2,2.4-2,4-4.6c1.4-2.2-1.1-2.8,0.2-6.3C568.3,195.2,565.8,194.6,565.8,192.4z"/>
				<path class="st12" d="M598,292.5c-0.1,1.4,1.8,1.7,4,1.8s1.5,0.6,4.5,1.1s4.2-0.3,4.4-0.7s-1.2-0.9-2.7-1.6l-0.6-0.2
					c-1.7-0.7-2.6-2.2-3.9-3.6c-1.2-1.3-2.4-5.5-2.4-5.5l-4.1-0.9c0,0,1.2,3.8,1.5,5.4c0.2,1-0.1,2-0.4,2.9
					C598.2,291.5,598.1,292,598,292.5L598,292.5z"/>
				<path class="st13" d="M602,294.3c2.2,0.1,1.5,0.6,4.5,1.1s4.2-0.3,4.4-0.7c0.2-0.4-1.2-0.9-2.7-1.6l0,0c-1.5,0.4-3.1,0.5-4.6,0
					c-2-0.5-3.9-1.7-5.3-2.1c-0.2,0.4-0.3,0.9-0.4,1.4C597.9,293.8,599.8,294.1,602,294.3z"/>
				<path class="st15" d="M557.3,244c0,0,27.2-2,32.3,1.2s13.3,40.8,13.3,40.8c-0.5,0.3-1,0.5-1.6,0.5c-1,0.1-3.4-0.5-3.4-0.5
					s-11.8-16.8-12.6-21s-0.6-8-2.5-8.1s-25.5,2.9-29-3.4c-3.6-6.3-0.6-12.5-0.6-12.5L557.3,244z"/>
				<path class="st12" d="M588.7,292.6c-0.1,1.4,1.8,1.7,4,1.8c2.2,0.1,1.5,0.6,4.5,1.1s4.2-0.3,4.4-0.7s-1.2-0.9-2.7-1.6l-0.6-0.2
					c-1.7-0.7-2.6-2.2-3.9-3.6c-1.2-1.3-2.4-5.5-2.4-5.5l-4.1-0.9c0,0,1.2,3.8,1.5,5.4c0.2,1-0.1,2-0.4,2.9
					C588.8,291.7,588.7,292.1,588.7,292.6L588.7,292.6z"/>
				<path class="st13" d="M592.6,294.4c2.2,0.1,1.5,0.6,4.5,1.1s4.2-0.3,4.4-0.7s-1.2-0.9-2.7-1.6l0,0c-1.5,0.4-3.1,0.5-4.6,0
					c-2-0.5-3.9-1.7-5.3-2.1c-0.2,0.4-0.3,0.9-0.4,1.4C588.5,294,590.4,294.3,592.6,294.4z"/>
				<path class="st20" d="M553,241.5c0,0,24.1,1.1,29.1,4.6c5,3.4,11.7,41.3,11.7,41.3c-0.5,0.3-1.1,0.5-1.7,0.5
					c-1.1,0.1-3.3-0.6-3.3-0.6S577.7,270,577,265.8s-0.3-8-2.2-8.2s-25.5,1.9-28.9-4.5C542.7,246.5,553,241.5,553,241.5z"/>
				<path class="st12" d="M545.8,210.7L545.8,210.7c0.2-0.2,0.5-0.4,0.7-0.6c2-1.4,5.5-1.7,5.5-1.7s0.4,0,1-0.1
					c0.7-1.8,1.1-3.6,1.2-5.6l0.3,0.1l5.9,1.6c0,0-0.3,1.9-0.4,3.6c0,0.4,0,0.8,0,1.1l0.5,0.2c0,0,3.4,0.4,4.2,1.3
					c0.8,0.9,2.4,6.5,2.8,7.6l-22.6,0.4C544.7,218.5,544.2,212.6,545.8,210.7z"/>
				<path class="st29" d="M573.8,233.6c-0.1,0.1-0.5,0.8-1,1.5c-0.2,0.2-0.3,0.5-0.5,0.7c-0.7,1-1.6,2-2.6,2.4
					c-0.3,0.1-0.7,0.2-1.1,0.1c-0.5-0.1-1.4-0.7-2.2-1.5c-0.7-0.7-1.4-1.4-1.9-2.2c-0.2-0.3-0.4-0.6-0.5-0.9c0,0.2-0.1,0.5-0.1,0.7
					c-0.1,1.2-0.1,2.1,0,2.5c0.2,0.5,1,1.1,1.9,1.6c1.8,1,4,2.1,3.3,2.9c-0.6,0.8-2.6,1-4.8,1.4c-1.7,0.3-3.4,0.6-4.7,1.4l-0.2,0.1
					c-3,1.8-12,7.2-14.7,7c-1-0.1-0.9-2.1-0.2-4.8c1-4.2,3.1-10.1,3.1-12.6c0-1.4-3.1-15.2-3.1-15.2s-0.6-5.9,1.1-7.8l0.7-0.6
					c0.1,0.1,6.9,3.9,10.9,4.1s7.1-3.6,7.1-3.6c0.8,0.9,2.4,6.5,2.8,7.5c0,0,3.2,12.8,4.1,13.4C572.2,232.2,574.2,233.1,573.8,233.6
					z"/>
				<path class="st30" d="M560.4,204.4c0,0-0.3,1.9-0.4,3.6c-3.3-0.3-4.9-3.5-5.5-5.2L560.4,204.4z"/>
				<path class="st12" d="M561.4,206.2c0,0-7.9-0.4-7.6-5.3c0.3-4.9-0.5-8.3,4.6-8.2s5.9,2,6.2,3.6
					C564.9,197.9,563.5,206.1,561.4,206.2z"/>
				<path class="st20" d="M561.7,194.4c0,0-1.9-0.4-2.5,0.5s-0.2,1.4-1.5,1.8s-1.8,0.4-1.7,1.3c0.1,1-1.4,1.7-1.5,2.4
					c0,0.3-0.2,0.6-0.4,0.9s-0.5,0.4-0.9,0.4c-0.6,0.1-0.3-9.9,2-10.4s4.6,0.1,5.3,0.6C561.2,192.5,561.7,194.4,561.7,194.4z"/>
				<path class="st20" d="M561.7,194.4c0,0,1.8-0.1,2.2,0.9c0.3,1-0.1,1.3,0.4,1.9s0.2,1.8,0.2,1.8s3.6-6.7-0.2-7.1
					C560.4,191.4,560.5,192.2,561.7,194.4z"/>
				<path class="st31" d="M572.9,235.1c-0.2,0.2-0.3,0.5-0.5,0.7c-0.7,1-1.6,2-2.6,2.4c-0.3,0.1-0.7,0.2-1.1,0.1
					c-0.5-0.1-1.4-0.7-2.2-1.5c-0.7-0.7-1.4-1.4-1.9-2.2c-0.2-0.3-0.4-0.6-0.5-0.9c0,0.2-0.1,0.5-0.1,0.7v-1.1
					c0,0,0.4-19.5,1.1-10.9C565.6,228.5,570.4,233.1,572.9,235.1z"/>
				<path class="st31" d="M549,221.6c0,0-9.7,16.7,10.7,22.5l0.2-0.1c1.3-0.7,3-1.1,4.7-1.4c2.1-0.4,4.1-0.6,4.8-1.3
					c0.8-0.9-1.5-1.9-3.3-2.9c-0.9-0.5-2.8-1-3-1.6C562.8,236.4,549,221.6,549,221.6z"/>
				<path class="st27" d="M536.2,240.2l-1.6,8.8l-4.3,24.4l-3.8,21.8c0,0.2-0.1,0.3-0.2,0.4c-0.1,0.1-0.3,0.2-0.5,0.2
					c-0.1,0-0.1,0-0.2,0s-0.1-0.1-0.2-0.1s-0.1-0.1-0.1-0.2s0-0.1,0-0.2l3.3-24.7l3.5-26.4l0.5-4L536.2,240.2z"/>
				<path class="st11" d="M534.6,249c0.2-3.8-2.5-4.9-2.5-4.9l0.5-4l3.5,0.1L534.6,249z"/>
				<path class="st27" d="M746,295.7c-0.2,0-0.3-0.1-0.5-0.2s-0.2-0.2-0.2-0.4l-3.4-19.3L737,248l-1.4-7.8l3.5-0.1l0.6,4.5l4.3,31.7
					l2.5,18.8c0,0.1,0,0.1,0,0.2s0,0.1-0.1,0.2s-0.1,0.1-0.2,0.1C746.2,295.7,746.1,295.7,746,295.7L746,295.7z"/>
				<path class="st11" d="M739.8,244.6c-2.3,1-2.7,3.4-2.7,3.4l-1.4-7.8l3.5-0.1L739.8,244.6z"/>
				<path class="st28" d="M749.3,243.2H519.6c-0.8,0-1.6-0.3-2.2-0.9c-0.6-0.6-0.9-1.4-0.9-2.2l0,0c0-0.8,0.3-1.6,0.9-2.2
					c0.6-0.6,1.3-0.9,2.2-0.9h229.7c0.8,0,1.6,0.3,2.2,0.9c0.6,0.6,0.9,1.4,0.9,2.2l0,0c0,0.8-0.3,1.6-0.9,2.2
					C750.9,242.9,750.2,243.2,749.3,243.2L749.3,243.2z"/>
				<path class="st32" d="M616,227.9h-48l4.5-36.3h48L616,227.9z"/>
				<path class="st33" d="M621.4,191.6l-4.5,36.2h-48l1-8.3l3.4-28h48.1V191.6z"/>
				<path class="st34" d="M621.4,191.6l-4.5,36.2h-48l1-8.3c39.6,2.4,40.9-22.6,40.7-28h10.8V191.6z"/>
				<path class="st32" d="M598.9,207.3c-0.1-1.1-0.7-2.3-1.9-2.4h-2c-0.3,0-0.6,0-0.9,0.1c-0.3,0.1-0.5,0.2-0.8,0.4
					s-0.4,0.4-0.5,0.7s-0.2,0.6-0.2,0.8l-0.9,27.3c0,0.4-0.2,0.8-0.5,1.1s-0.7,0.5-1.2,0.5h-5c-0.2,0-0.3,0-0.4,0.1
					c-0.1,0.1-0.2,0.2-0.2,0.4c0,0.1,0,0.2,0,0.3s0.1,0.2,0.1,0.3s0.1,0.1,0.2,0.2c0.1,0.1,0.2,0.1,0.3,0.1h15.6h0.1h0.2
					c0.1,0,0.2,0,0.3-0.1c0.1,0,0.2-0.1,0.3-0.2c0.1-0.1,0.1-0.2,0.2-0.3c0-0.1,0-0.2,0-0.3L598.9,207.3z"/>
				<path class="st33" d="M600,207.3c-0.1-1.1-0.7-2.3-1.9-2.4h-2c-0.3,0-0.6,0-0.9,0.1c-0.3,0.1-0.5,0.2-0.8,0.4s-0.4,0.4-0.5,0.7
					s-0.2,0.6-0.2,0.8l-0.9,27.3c0,0.4-0.2,0.8-0.5,1.1s-0.7,0.5-1.2,0.5h-5c-0.2,0-0.3,0-0.4,0.1c-0.1,0.1-0.2,0.2-0.2,0.4
					c0,0.1,0,0.2,0,0.3s0.1,0.2,0.1,0.3s0.1,0.1,0.2,0.2c0.1,0.1,0.2,0.1,0.3,0.1h15.6h0.1h0.2c0.1,0,0.2,0,0.3-0.1
					c0.1,0,0.2-0.1,0.3-0.2c0.1-0.1,0.1-0.2,0.2-0.3s0-0.2,0-0.3L600,207.3z"/>
				<path class="st32" d="M654.1,203.6l-2.7,31.6c0,0-0.3,1.9,1.2,1.9c2.3,0,11.7,0,11.7,0s-1.8-0.4-1.8-1.3
					c0-1.1,3.1-32.6,3.1-32.6L654.1,203.6z"/>
				<path class="st35" d="M665,236.5c-0.5,0-9.4,0-11.7,0c-1,0-1.2-0.9-1.2-1.4c0-0.2,0-0.3,0-0.5l0.1-0.8l0.2-2.1l0.2-1.9l0.2-2.4
					l0.2-2l1.9-22.5l11.5-0.3c0,0-1.3,13.2-2.2,22.8c-0.1,1.1-0.2,2.1-0.3,3.1c0,0.3-0.1,0.6-0.1,0.9c-0.1,0.9-0.2,1.7-0.2,2.5
					c0,0.4-0.1,0.8-0.1,1.1c-0.1,1.3-0.2,2.1-0.2,2.3c0,0.1,0,0.2,0,0.2C663.5,236.5,664.8,236.5,665,236.5z"/>
				<path class="st33" d="M626.1,186.3l6.5,26l0.9,3.6l3,12.1h56.1l-11.1-41.7L626.1,186.3L626.1,186.3z"/>
				<path class="st35" d="M626.1,186.3l-0.9,0.3l10.1,42.3l1.2-0.9L626.1,186.3z"/>
				<path class="st32" d="M635.3,229H691l1.5-0.9h-56.1L635.3,229z"/>
				<path class="st33" d="M654.8,237.1h12.1v-0.6h-12.1V237.1z"/>
				<path class="st33" d="M689.8,220.4l-9.1-33.5H626v-0.6h55.4l9.1,34L689.8,220.4z"/>
				<path class="st32" d="M663.8,229l-0.1,0.4l-11.3,2.3l0.2-1.9l0.1-0.9L663.8,229L663.8,229z"/>
				<path class="st34" d="M665,236.5c-0.5,0-9.4,0-11.7,0c-1,0-1.2-0.9-1.2-1.4l11.3-2.1c-0.1,1.3-0.2,2.1-0.2,2.3
					c0,0.1,0,0.2,0,0.2C663.5,236.5,664.8,236.5,665,236.5z"/>
				<path class="st34" d="M661.1,219.6l-24.6,8.4l-3-12.1L661.1,219.6z"/>
				<path class="st17" d="M626.1,186.3h55.3l9,33.5h-56.3L626.1,186.3z"/>
				<path class="st32" d="M666,224.1c-0.1-0.4-0.3-0.8-0.6-1.1s-0.7-0.4-1.1-0.4c-0.2,0-0.4,0-0.5,0.1s-0.3,0.2-0.4,0.3
					c-0.1,0.1-0.2,0.3-0.2,0.5s0,0.4,0,0.6c0.1,0.4,0.3,0.8,0.6,1.1s0.7,0.4,1.1,0.4c0.2,0,0.4,0,0.5-0.1s0.3-0.2,0.4-0.3
					c0.1-0.1,0.2-0.3,0.2-0.5C666,224.5,666,224.3,666,224.1L666,224.1z"/>
				<path class="st36" d="M687.8,218.4H636l-5.9-23.4l-0.5-1.8l-0.4-1.5l-0.9-3.6h51.1l1,3.6l0.4,1.5l0.5,1.8L687.8,218.4z"/>
				<path class="st37" d="M680.4,191.7h-51.2l-0.9-3.6h51.1L680.4,191.7z"/>
				<path class="st36" d="M630.5,189.8c0-0.1,0-0.1,0-0.2s0-0.1,0.1-0.1l0.1-0.1c0,0,0.1,0,0.2,0c0.1,0,0.2,0.1,0.3,0.1
					s0.2,0.2,0.2,0.3s0,0.1,0,0.2s0,0.1-0.1,0.1l-0.1,0.1c0,0-0.1,0-0.2,0c-0.1,0-0.2-0.1-0.3-0.1
					C630.6,190,630.5,189.9,630.5,189.8L630.5,189.8z"/>
				<path class="st36" d="M632,189.8c0-0.1,0-0.1,0-0.2s0-0.1,0.1-0.1l0.1-0.1c0,0,0.1,0,0.2,0c0.1,0,0.2,0.1,0.3,0.1
					s0.2,0.2,0.2,0.3s0,0.1,0,0.2c0,0.1,0,0.1-0.1,0.1l-0.1,0.1c0,0-0.1,0-0.2,0c-0.1,0-0.2-0.1-0.3-0.1
					C632.1,190,632,189.9,632,189.8L632,189.8z"/>
				<path class="st36" d="M633.6,189.8c0-0.1,0-0.1,0-0.2s0-0.1,0.1-0.1l0.1-0.1c0,0,0.1,0,0.2,0c0.1,0,0.2,0.1,0.3,0.1
					s0.2,0.2,0.2,0.3s0,0.1,0,0.2s0,0.1-0.1,0.1l-0.1,0.1c0,0-0.1,0-0.2,0c-0.1,0-0.2-0.1-0.3-0.1
					C633.7,190,633.6,189.9,633.6,189.8L633.6,189.8z"/>
				<path class="st37" d="M643,199.8h-7.8c-0.1,0-0.2-0.1-0.3-0.1c-0.1-0.1-0.2-0.2-0.2-0.3l0,0c0-0.1,0-0.1,0-0.2s0-0.1,0.1-0.1
					s0.1-0.1,0.1-0.1s0.1,0,0.2,0h7.8c0.1,0,0.2,0.1,0.3,0.1s0.2,0.2,0.2,0.3l0,0c0,0.1,0,0.1,0,0.2c0,0.1,0,0.1-0.1,0.1l-0.1,0.1
					C643.1,199.8,643.1,199.8,643,199.8z"/>
				<path class="st37" d="M643.5,201.4h-7.8c-0.1,0-0.2-0.1-0.3-0.1s-0.2-0.2-0.2-0.3s0-0.1,0-0.2c0-0.1,0-0.1,0.1-0.1l0.1-0.1
					c0,0,0.1,0,0.2,0h7.8c0.1,0,0.2,0.1,0.3,0.1c0.1,0.1,0.2,0.2,0.2,0.3s0,0.1,0,0.2s0,0.1-0.1,0.1l-0.1,0.1
					C643.5,201.4,643.5,201.4,643.5,201.4z"/>
				<path class="st37" d="M643.9,203.1H636c-0.1,0-0.2-0.1-0.3-0.1c-0.1-0.1-0.2-0.2-0.2-0.3l0,0c0-0.1,0-0.1,0-0.2
					c0-0.1,0-0.1,0.1-0.1l0.1-0.1c0,0,0.1,0,0.2,0h7.8c0.1,0,0.2,0.1,0.3,0.1c0.1,0.1,0.2,0.2,0.2,0.3l0,0c0,0.1,0,0.1,0,0.2
					c0,0.1,0,0.1-0.1,0.1L643.9,203.1L643.9,203.1z"/>
				<path class="st37" d="M657,199.8h-7.8c-0.1,0-0.2-0.1-0.3-0.1c-0.1-0.1-0.2-0.2-0.2-0.3l0,0c0-0.1,0-0.1,0-0.2
					c0-0.1,0-0.1,0.1-0.1l0.1-0.1c0,0,0.1,0,0.2,0h7.8c0.1,0,0.2,0.1,0.3,0.1c0.1,0.1,0.2,0.2,0.2,0.3l0,0c0,0.1,0,0.1,0,0.2
					c0,0.1,0,0.1-0.1,0.1l-0.1,0.1C657.1,199.8,657.1,199.8,657,199.8z"/>
				<path class="st37" d="M657.4,201.4h-7.8c-0.1,0-0.2-0.1-0.3-0.1c-0.1-0.1-0.2-0.2-0.2-0.3l0,0c0-0.1,0-0.1,0-0.2
					c0-0.1,0-0.1,0.1-0.1l0.1-0.1c0,0,0.1,0,0.2,0h7.8c0.1,0,0.2,0.1,0.3,0.1s0.2,0.2,0.2,0.3l0,0c0,0.1,0,0.1,0,0.2s0,0.1-0.1,0.1
					l-0.1,0.1C657.5,201.4,657.5,201.4,657.4,201.4z"/>
				<path class="st37" d="M657.8,203.1H650c-0.1,0-0.2-0.1-0.3-0.1s-0.2-0.2-0.2-0.3l0,0c0-0.1,0-0.1,0-0.2c0-0.1,0-0.1,0.1-0.1
					l0.1-0.1c0,0,0.1,0,0.2,0h7.8c0.1,0,0.2,0.1,0.3,0.1c0.1,0.1,0.2,0.2,0.2,0.3l0,0c0,0.1,0,0.1,0,0.2c0,0.1,0,0.1-0.1,0.1
					l-0.1,0.1C657.9,203.1,657.9,203.1,657.8,203.1L657.8,203.1z"/>
				<path class="st37" d="M670.4,199.8h-7.8c-0.1,0-0.2-0.1-0.3-0.1c-0.1-0.1-0.2-0.2-0.2-0.3l0,0c0-0.1,0-0.1,0-0.2
					c0-0.1,0-0.1,0.1-0.1l0.1-0.1c0,0,0.1,0,0.2,0h7.8c0.1,0,0.2,0.1,0.3,0.1s0.2,0.2,0.2,0.3l0,0c0,0.1,0,0.1,0,0.2
					c0,0.1,0,0.1-0.1,0.1l-0.1,0.1C670.5,199.8,670.5,199.8,670.4,199.8z"/>
				<path class="st37" d="M670.9,201.4H663c-0.1,0-0.2-0.1-0.3-0.1s-0.2-0.2-0.2-0.3s0-0.1,0-0.2c0-0.1,0-0.1,0.1-0.1l0.1-0.1
					c0,0,0.1,0,0.2,0h7.8c0.1,0,0.2,0.1,0.3,0.1c0.1,0.1,0.2,0.2,0.2,0.3s0,0.1,0,0.2c0,0.1,0,0.1-0.1,0.1L670.9,201.4L670.9,201.4z
					"/>
				<path class="st37" d="M671.3,203.1h-7.8c-0.1,0-0.2-0.1-0.3-0.1c-0.1-0.1-0.2-0.2-0.2-0.3l0,0c0-0.1,0-0.1,0-0.2
					c0-0.1,0-0.1,0.1-0.1l0.1-0.1c0,0,0.1,0,0.2,0h7.8c0.1,0,0.2,0.1,0.3,0.1c0.1,0.1,0.2,0.2,0.2,0.3l0,0c0,0.1,0,0.1,0,0.2
					s0,0.1-0.1,0.1l-0.1,0.1C671.4,203.1,671.3,203.1,671.3,203.1z"/>
				<path class="st37" d="M677.7,194.1l0.4,1.5c0,0.1,0,0.1,0,0.2c0,0.1,0,0.1-0.1,0.2s-0.1,0.1-0.1,0.1c-0.1,0-0.1,0-0.2,0h-44.2
					c-0.2,0-0.3-0.1-0.4-0.2c-0.1-0.1-0.2-0.2-0.2-0.4l-0.4-1.5c0-0.1,0-0.1,0-0.2c0-0.1,0-0.1,0.1-0.2c0-0.1,0.1-0.1,0.1-0.1
					c0.1,0,0.1,0,0.2,0H677c0.2,0,0.3,0.1,0.4,0.2S677.6,194,677.7,194.1L677.7,194.1z"/>
				<path class="st33" d="M664.2,193.6l0.6,2.6h-31.3c-0.2,0-0.3-0.1-0.4-0.2c-0.1-0.1-0.2-0.2-0.2-0.4l-0.4-1.5c0-0.1,0-0.1,0-0.2
					c0-0.1,0-0.1,0.1-0.2c0-0.1,0.1-0.1,0.1-0.1c0.1,0,0.1,0,0.2,0L664.2,193.6L664.2,193.6z"/>
				<path class="st17" d="M670.3,194.6h-0.5v-0.2h0.8v0.2l-0.2,0.9h-0.3L670.3,194.6z"/>
				<path class="st17" d="M670.8,194.9c-0.1-0.3,0-0.5,0.3-0.5c0.1,0,0.3,0.1,0.4,0.2c0.1,0.1,0.2,0.2,0.2,0.4
					c0.1,0.3,0,0.5-0.3,0.5c-0.1,0-0.3-0.1-0.4-0.2S670.8,195.1,670.8,194.9L670.8,194.9z M671.5,194.9c0-0.2-0.2-0.3-0.3-0.3
					s-0.2,0.1-0.1,0.3c0,0.2,0.2,0.3,0.3,0.3S671.5,195.1,671.5,194.9L671.5,194.9z"/>
				<path class="st17" d="M671.8,194.7c0-0.1,0-0.3,0.2-0.3c0.1,0,0.2,0,0.2,0.1c0.1,0.1,0.1,0.1,0.1,0.2v0.1v0.1c0,0,0,0.1-0.1,0.1
					s-0.1,0-0.1,0c-0.1,0-0.2,0-0.2-0.1S671.8,194.7,671.8,194.7z M672.6,194.4h0.2l-0.5,1h-0.2L672.6,194.4z M672.2,194.7
					c0-0.1-0.1-0.1-0.1-0.1l-0.1,0.1v0.1c0,0,0,0,0.1,0S672.2,194.7,672.2,194.7z M672.6,195.2C672.6,195.2,672.5,195.1,672.6,195.2
					c0-0.1,0-0.1,0-0.2c0,0,0-0.1,0.1-0.1s0.1,0,0.1,0c0.1,0,0.2,0,0.2,0.1c0.1,0.1,0.1,0.1,0.1,0.2v0.1v0.1c0,0,0,0.1-0.1,0.1
					s-0.1,0-0.1,0c-0.1,0-0.2,0-0.2-0.1S672.6,195.3,672.6,195.2z M672.9,195.2c0-0.1-0.1-0.1-0.1-0.1l-0.1,0.1v0.1c0,0,0,0,0.1,0
					S673,195.3,672.9,195.2L672.9,195.2z"/>
				<path class="st37" d="M660.5,215.3h-3.9c-0.3,0-0.6-0.1-0.8-0.3s-0.4-0.4-0.5-0.7l-1.9-7.6c0-0.1,0-0.2,0-0.4
					c0-0.1,0.1-0.2,0.1-0.3c0.1-0.1,0.2-0.2,0.3-0.2c0.1-0.1,0.2-0.1,0.4-0.1h3.9c0.3,0,0.6,0.1,0.8,0.3s0.4,0.4,0.5,0.7l1.9,7.6
					c0,0.1,0,0.2,0,0.4c0,0.1-0.1,0.2-0.1,0.3c-0.1,0.1-0.2,0.2-0.3,0.2C660.7,215.3,660.6,215.3,660.5,215.3L660.5,215.3z"/>
				<path class="st37" d="M667.3,215.3h-3.9c-0.3,0-0.6-0.1-0.8-0.3s-0.4-0.4-0.5-0.7l-1.9-7.6c0-0.1,0-0.2,0-0.4
					c0-0.1,0.1-0.2,0.1-0.3c0.1-0.1,0.2-0.2,0.3-0.2c0.1-0.1,0.2-0.1,0.4-0.1h3.9c0.3,0,0.6,0.1,0.8,0.3s0.4,0.4,0.5,0.7l1.9,7.6
					c0,0.1,0,0.2,0,0.4c0,0.1-0.1,0.2-0.1,0.3c-0.1,0.1-0.2,0.2-0.3,0.2C667.5,215.3,667.4,215.3,667.3,215.3L667.3,215.3z"/>
				<path class="st37" d="M673.9,215.3H670c-0.3,0-0.6-0.1-0.8-0.3s-0.4-0.4-0.5-0.7l-1.9-7.6c0-0.1,0-0.2,0-0.4
					c0-0.1,0.1-0.2,0.1-0.3c0.1-0.1,0.2-0.2,0.3-0.2c0.1-0.1,0.2-0.1,0.4-0.1h3.9c0.3,0,0.6,0.1,0.8,0.3s0.4,0.4,0.5,0.7l1.9,7.6
					c0,0.1,0,0.2,0,0.4c0,0.1-0.1,0.2-0.1,0.3c-0.1,0.1-0.2,0.2-0.3,0.2C674.2,215.3,674,215.3,673.9,215.3z"/>
				<path class="st37" d="M652.8,215.3h-13.3c-0.5,0-0.9-0.2-1.3-0.5s-0.6-0.7-0.8-1.2l-1.6-6.2c-0.2-0.9,0.3-1.7,1.3-1.7h13.3
					c0.5,0,0.9,0.2,1.3,0.5s0.6,0.7,0.8,1.2l1.6,6.2C654.2,214.6,653.7,215.3,652.8,215.3z"/>
				<path class="st17" d="M650.2,208.1h-12.4c-0.1,0-0.2-0.1-0.3-0.1c-0.1-0.1-0.2-0.2-0.2-0.3v-0.1v-0.1l0.1-0.1h0.1H650
					c0.1,0,0.2,0.1,0.3,0.1c0.1,0.1,0.2,0.2,0.2,0.3l0,0v0.1v0.1l-0.1,0.1C650.3,208.1,650.2,208.1,650.2,208.1z"/>
				<path class="st17" d="M650.5,209.6h-12.4c-0.1,0-0.2,0-0.3-0.1s-0.2-0.2-0.2-0.3l0,0v-0.1V209l0.1-0.1h0.1h12.4
					c0.1,0,0.2,0.1,0.3,0.1c0.1,0.1,0.2,0.2,0.2,0.3l0,0v0.1v0.1L650.5,209.6C650.6,209.6,650.6,209.6,650.5,209.6L650.5,209.6z"/>
				<path class="st17" d="M650.9,211h-12.4c-0.1,0-0.2-0.1-0.3-0.1c-0.1-0.1-0.2-0.2-0.2-0.3l0,0v-0.1v-0.1l0.1-0.1h0.1h12.4
					c0.1,0,0.2,0.1,0.3,0.1c0.1,0.1,0.2,0.2,0.2,0.3l0,0v0.1v0.1L650.9,211C651,211,651,211,650.9,211L650.9,211z"/>
				<path class="st17" d="M641.8,212.7h-2.9c-0.1,0-0.2,0-0.3-0.1s-0.2-0.2-0.2-0.3l0,0v-0.1v-0.1l0.1-0.1h0.1h2.9
					c0.1,0,0.2,0,0.3,0.1s0.2,0.2,0.2,0.3l0,0v0.1v0.1L641.8,212.7C641.9,212.7,641.9,212.7,641.8,212.7L641.8,212.7z"/>
				<path class="st15" d="M697,254.9c0,0-7,3.5-7.4,7.2c-0.4,3.8,1.1,26.6,1.1,26.6s7.3,1.4,8.7,0c0,0,1.8-24.4,1.5-25.5
					s20.2-7.1,22-7.1C724.6,256.2,697,254.9,697,254.9z"/>
				<path class="st15" d="M698.8,288.7c0,0-0.4,6.9-1.8,7c-0.2,0-6.8,0-6.8,0h-8.4c0,0,0-2,2.5-2.5c2.5-0.4,6.6-2.2,8.1-5.4
					C694,284.4,698.8,288.7,698.8,288.7z"/>
				<path class="st15" d="M675.2,288.7c0,0-0.4,6.9-1.8,7c-0.2,0-6.8,0-6.8,0h-8.4c0,0,0.1-2,2.5-2.5c2.5-0.4,6.6-2.2,8.1-5.4
					C670.4,284.4,675.2,288.7,675.2,288.7z"/>
				<path class="st20" d="M726.5,242.7L726.5,242.7c-0.2-0.4-0.3-0.7-0.6-1c-0.2-0.3-0.5-0.5-0.8-0.7c-5.2-2.9-15.1-0.9-15.1-0.9
					s-31.9,5.2-34.9,9.4s-7.6,40-7.6,40s5.6,1.5,7.9,0.6c0,0,11-28.3,11.9-31.4c0.8-2.7,15.9-0.7,23.6-1.3
					c4.6-0.1,11.8-0.5,13.7-1.1C727.6,255.2,726.5,242.7,726.5,242.7z"/>
				<path class="st38" d="M715.2,204.3l-2.7,3.3l-5,0.2c0-0.5-0.2-2.6-0.4-4.3c-0.1-1.4-0.2-2.7-0.2-2.7l5.3-4.6
					c0,0,0.3,1.6,0.3,1.8C713.3,202,715.2,204.3,715.2,204.3z"/>
				<path class="st39" d="M706.4,203.1c0.1,0,6.8-1.6,7.5-1.4c0.7,0.3,1,1.7,1,1.7l-10.9,1.9C704,205.3,705,203.6,706.4,203.1z"/>
				<path class="st38" d="M705.5,201.3c0,0,7.1,0.3,7.2-4.1c0.1-4.4,1.1-7.4-3.4-7.8c-4.5-0.4-5.5,1.3-5.9,2.7
					C703.1,193.7,703.7,201.1,705.5,201.3z"/>
				<path class="st15" d="M703.7,191.7c0,0,1.7,4.7,2.6,4.2c0.9-0.5,1.8-0.9,2,0.6s-0.7,3.5,2.4,3c3.1-0.6,5.4-9.6,4.2-10.8
					C711.4,185,698.8,187.4,703.7,191.7z"/>
				<path class="st35" d="M726.5,242.7c-1.8,2.1-17.1,1.6-21.5-0.2c-0.3-0.1-0.5-0.2-0.8-0.4c-2.6-2.1,3.3-3.9-3.3-20l0,0
					c-4.8-11.5,0.3-15.3,3.5-17.1c0,0,9.1-2.8,14.2-1.2C725.1,205.7,728.4,240.4,726.5,242.7z"/>
				<path class="st39" d="M710.4,234.8c-0.3,2.2-2.1,7.6-5.5,7.6c-0.3-0.1-0.5-0.2-0.8-0.4c-2.6-2.1,3.3-3.9-3.3-20l0,0
					c1.1-0.8,2.9-1.6,4.1-0.3C706.7,223.7,710.8,232.5,710.4,234.8z"/>
				<path class="st38" d="M678.1,234.8c0,0-2.9-1.7-3.8-1.8c-0.9-0.1-5.3,3.6-4.7,3.9s4-1.1,4.4-0.8s0.8,1.1,1.4,1.1
					c0.5,0,2.3,0,2.3,0L678.1,234.8z"/>
				<path class="st35" d="M704.3,204.9c0,0-6.3,3.3-7.1,6.4c-0.8,3.1-3.8,18-5,19.1s-14.5,3.5-14.5,3.5s-1.6,1.7-1.1,3.3h20.8
					c0,0,9.4-13.6,8.7-18.7C705.5,213.3,704.3,204.9,704.3,204.9z"/>
				<path class="st9" d="M731.9,256.7h-43.3c0,0,1-3.7,26.1-3.2C732.4,253.9,731.9,256.7,731.9,256.7z"/>
				<path class="st8" d="M735.4,295.7c-5-23.2-3.7-37.5-3.7-37.7c0-0.4-0.7-0.7-1.1-0.7c-0.4,0-2.1-0.1-2.3,0.2
					c-0.3,0.4-1.3,18,6.2,38.2H735.4L735.4,295.7z"/>
				<path class="st8" d="M695,295.7c5-23.2,3.7-37.5,3.7-37.7c0-0.4,0.7-0.7,1.1-0.7c0.4,0,2.1-0.1,2.3,0.2c0.3,0.4,1.3,18-6.2,38.2
					H695L695,295.7z"/>
				<path class="st11" d="M687,295.7c5-23.2,3.7-37.5,3.7-37.7c0-0.4,0.7-0.7,1.1-0.7c0.4,0,2.1-0.1,2.3,0.2
					c0.3,0.4,1.3,18-6.2,38.2H687L687,295.7z"/>
				<path class="st11" d="M727.4,295.7c-5-23.2-3.7-37.5-3.7-37.7c0-0.4-0.7-0.7-1.1-0.7c-0.4,0-2.1-0.1-2.3,0.2
					c-0.3,0.4-1.3,18,6.2,38.2H727.4L727.4,295.7z"/>
				<path class="st8" d="M688.5,257.9h43.4c0.5,0,0.8-0.4,0.8-0.9v-0.5c0-0.5-0.4-0.9-0.8-0.9h-43.4c-0.5,0-0.8,0.4-0.8,0.9v0.5
					C687.7,257.5,688.1,257.9,688.5,257.9z"/>
				<path class="st8" d="M720.1,245.5c0.3-7.2,1-13.4,1.8-17.8c1.3-7,2.5-10.9,2.5-11c0.2-0.6,2.7-3.1,8.2-3s5,3.3,5,3.3
					c0,0.1,0,0.2,0,0.3c0,0.2-5.2,17.1-4.9,38.9c0,0.3,0,0.8,0,1.2c0,0-12.9,0.3-12.9,0C719.4,255.6,719.6,250.3,720.1,245.5z"/>
				<path class="st20" d="M669,237.1c0,0,3.5-2.7,5.2-1.9s2.2,1.9,2.2,1.9H669z"/>
				<path class="st12" d="M559.6,235.3c0,0,3.3-0.8,4.3-0.4c1,0.3,3.4,2.3,2.8,2.3c-0.6,0-2.8-1.1-3.1-0.8c-0.3,0.2-1.9,1-2.9,0.6
					C559.6,236.5,559.6,235.3,559.6,235.3z"/>
				<path class="st29" d="M545.2,211.9c0,0-3.2,8.6-3.6,13.3c-0.6,7.4-0.6,12-0.6,12s2.1,0.1,7.4,0c5.3-0.1,11.6,0,11.6,0
					s1.6-1.6-0.6-2.7s-11.4-3.4-11.2-4.3l3.4-13.7L545.2,211.9z"/>
				<path class="st20" d="M561.2,237.1c0,0,2-1.4,3.3-1c0.8,0.2,1.6,0.5,2.2,1H561.2z"/>
				<g>
					<path class="st4" d="M327.5,282.8c-2,7.3-17,11.6-33.4,14.1H233c-14.7-7-14.7-15.2-15.9-38.1c-2.4-47.3,23.4-70.1,34.9-66.4
						c0.5,0.2,0.9,0.3,1.5,0.5c3.3,1.3,7.1,3.6,10.7,9c0,0,11.5,18.4,20.9,29.4c3,3.5,5.9,6.3,8,7.4h0.1c0.1,0.1,0.2,0.1,0.3,0.2
						c5,2.2,12,6.8,18.5,12.6C321.9,260.6,330.4,272.5,327.5,282.8z"/>
					<path class="st25" d="M311.9,251.6c-8.6,2.5-52.7,14.8-63.1,1.8c-7.5-9.4-2.8-33.6,1.3-49.2c1.7-6.4,10.2-7.9,13.9-2.4
						c0,0.1,0.1,0.1,0.1,0.2c0,0,11.5,18.4,20.9,29.4c2.7,3.5,5.4,6.1,8,7.4h0.1c0.1,0.1,0.2,0.1,0.3,0.2
						C298.5,241.1,305.5,245.8,311.9,251.6z"/>
					<path class="st30" d="M287.9,207.9c0,0,2.5,3.7,3.9,11.5c1.2,6.8,2.4,9.3,4.2,10.7s11.9,5.5,11.9,5.5l-0.8,1.8
						c0,0-14.8-2-16.4-4.5c-1.7-2.5-8-17-7.5-20.3C283.7,209.2,287.9,207.9,287.9,207.9z"/>
					<path class="st12" d="M324.1,289.1c-0.1,1.4,1.9,1.8,4.2,1.9c2.3,0.1,1.6,0.6,4.8,1.2s4.5-0.3,4.7-0.7c0.2-0.4-1.3-1-2.9-1.6
						l-0.6-0.3c-1.8-0.8-2.8-2.4-4.1-3.8c-1.3-1.4-2.6-5.9-2.6-5.9l-4.3-0.9c0,0,1.2,4,1.6,5.7c0.2,1-0.1,2.1-0.4,3
						C324.3,288.1,324.2,288.6,324.1,289.1L324.1,289.1z"/>
					<path class="st13" d="M328.3,291c2.3,0.1,1.6,0.6,4.8,1.2s4.5-0.3,4.7-0.7c0.2-0.4-1.3-1-2.9-1.6l0,0c-1.6,0.5-3.2,0.5-4.8,0.1
						c-2.1-0.6-4.1-1.8-5.6-2.2c-0.2,0.5-0.3,1-0.4,1.5C324,290.5,326,290.9,328.3,291z"/>
					<path class="st15" d="M281,238c0,0,28.7-2.1,34.1,1.2s14.1,43,14.1,43c-0.5,0.3-1.1,0.5-1.7,0.6c-1.1,0.1-3.6-0.5-3.6-0.5
						s-12.5-17.7-13.3-22.2c-0.9-4.5-0.7-8.5-2.7-8.6s-26.9,3-30.7-3.6c-3.8-6.6-0.6-13.2-0.6-13.2L281,238z"/>
					<path class="st12" d="M313.1,293.7c-0.1,1.4,1.9,1.8,4.2,1.9c2.3,0.1,1.6,0.6,4.8,1.2s4.4-0.3,4.7-0.7c0.2-0.4-1.3-1-2.9-1.6
						l-0.6-0.3c-1.8-0.8-2.8-2.4-4.2-3.8c-1.3-1.4-2.5-5.9-2.5-5.9l-4.3-0.9c0,0,1.2,4,1.6,5.7c0.2,1-0.1,2.1-0.4,3
						C313.3,292.7,313.2,293.2,313.1,293.7L313.1,293.7z"/>
					<path class="st13" d="M317.3,295.6c2.3,0.1,1.6,0.6,4.8,1.2s4.4-0.3,4.7-0.7c0.2-0.4-1.3-1-2.9-1.6l0,0
						c-1.6,0.5-3.2,0.5-4.8,0.1c-2.1-0.6-4.1-1.8-5.6-2.2c-0.2,0.5-0.3,1-0.4,1.5C313,295.1,315,295.5,317.3,295.6z"/>
					<path class="st40" d="M275.4,239.7c0,0,25.5,1.2,30.8,4.8s12.4,43.6,12.4,43.6c-0.5,0.3-1.1,0.5-1.8,0.5
						c-1.1,0.1-3.5-0.7-3.5-0.7s-11.8-18.2-12.5-22.7s-0.3-8.5-2.3-8.7s-27,2-30.5-4.8C264.4,245,275.4,239.7,275.4,239.7z"/>
					<path class="st15" d="M284.5,183.7c-1.1-0.8-2.5-0.9-3.5-0.9c0.2-0.2,0.5-0.3,0.8-0.3c-0.6-0.1-2,0.4-2,0.4
						c-8.3-3.8-10.5,8.6-10.5,11.5s-0.2,6.2-4.6,8.6c-8.7,4.6-2.2,14-2.2,14c0.1,0,3.5,6.8,3.5,6.8c-0.1-2.4,11.6-14,17.5-17.4
						c1.5-1.9,2.2-5.5,2.3-5.8c-0.4,2.8-1,4.4-1.5,5.2C289.2,201.8,287.5,185.7,284.5,183.7z"/>
					<path class="st12" d="M283.2,204.6c-0.1-0.1-0.3-0.1-0.5-0.2c0-0.4,0-0.8,0.1-1.2c0.1-1.9,0.4-3.8,0.4-3.8l-6.2-1.7l-0.4-0.1
						c-0.1,2-0.5,4-1.2,5.9c-0.6,0-1,0.1-1,0.1c-0.1,0.4,2.6,6,6.3,6.2C281.8,209.8,285,205.4,283.2,204.6z"/>
					<path class="st30" d="M283.2,199.5c0,0-0.3,2-0.4,3.8c-3.5-0.3-5.2-3.7-5.8-5.5L283.2,199.5z"/>
					<path class="st15" d="M276.4,197.1c0,0-1.6-3-1.9-5.5c-0.2-1.8,1.1-8.3,7.7-6.9c1.3,0.3,2.6,0.8,3.6,1.6
						c1.4,1.1,3.3,3.3,0.6,8.9l-0.7,1.9H276.4z"/>
					<path class="st12" d="M284.2,201.3c0,0-8.3-0.4-8-5.6s-0.5-8.7,4.8-8.7c5.3,0.1,6.2,2.1,6.5,3.8
						C287.9,192.6,286.4,201.3,284.2,201.3z"/>
					<path class="st15" d="M284.9,187.2c0,0-2.7,5.9-6.2,6.6s-5-0.4-5-0.4c1.8-1.4,3.1-3.4,3.6-5.6
						C277.2,187.8,283.4,184.1,284.9,187.2z"/>
					<path class="st15" d="M284.3,187.6c0,0,1.6,1.5,1.9,2.8c0.3,1.4,0.3,4.1,1.1,4c0,0,2-4,0.2-6.5
						C285.7,185.4,284.3,187.6,284.3,187.6z"/>
					<path class="st20" d="M292.6,238.4c-0.7,0.8-2.8,1.1-5,1.4c-1.8,0.3-3.6,0.7-5,1.4c-3,1.8-12.8,7.7-15.7,7.4
						c-1.1-0.1-0.9-2.2-0.2-5.1c1.1-4.4,3.3-10.6,3.3-13.3c0-1.5,0.5-4.9,1.1-8.9c0-0.3,0.1-0.6,0.2-1c1.3-7.7,3.1-16.8,3.1-16.8
						s2,4.4,5.9,4.4s3-3.3,3-3.3s3.5,0.4,4.4,1.3c0.8,0.9,3,4.8,3.4,5.9c0,0,0.1,1.4-3.3,2c0,0,0.8,3.7,0.9,6.1
						c0.1,1.8-1.2,7.5-1.6,11c-0.1,1.2-0.1,2.2,0,2.7c0.3,0.6,1.1,1.1,2.1,1.7C291,236.4,293.4,237.4,292.6,238.4z"/>
					<path class="st15" d="M289.1,235.3c2.2,3.7-5.8,4.8-7.2,5.5c-3,1.8-12.2,8.1-15.1,7.9c-1.1-0.1-0.9-2.2-0.2-5.1
						c1.1-4.4,3.3-10.6,3.3-13.3c0-1.5,0.5-4.9,1.1-8.9l3.5-3.3c0,0,3.7,9.6,7.2,11.1c1.7,0.7,3.4,1.3,5.2,1.7
						c-0.1,1.2-0.1,2.2,0,2.7C287.3,234.1,288.2,234.7,289.1,235.3z"/>
					<path class="st12" d="M273.2,206.5c0,0-3-1.8-5.8,1.6s2,27.7,6.3,29c4.7,1.4,18.3-0.2,18.3-0.2l-0.3-2.1c0,0-14.5-2.8-15.1-3.5
						C276.1,230.4,274.8,206.9,273.2,206.5z"/>
					<path class="st20" d="M274.3,203.6c0,0-6.1,0.6-7.9,2.5s-2.3,7.4-2.3,7.4s5.4,4.3,11.8,2.6L274.3,203.6z"/>
					<path class="st41" d="M301.5,238.9h-8V238h8V238.9z"/>
					<path class="st41" d="M299.8,238.8c0.1-0.3,7.4-11.8,7.4-11.8h16.3l-8.2,11.4L299.8,238.8z"/>
					<path class="st15" d="M300.5,238.9c0.1-0.3,7.4-11.9,7.4-11.9h15.5l-7.8,11.9H300.5z"/>
					<path class="st41" d="M314.2,233c-0.1,0.2-0.2,0.4-0.4,0.6s-0.4,0.2-0.7,0.2c-0.1,0-0.2,0-0.3-0.1c-0.1-0.1-0.2-0.1-0.2-0.2
						s-0.1-0.2-0.1-0.3s0-0.2,0.1-0.3c0.1-0.2,0.2-0.4,0.4-0.6s0.4-0.2,0.7-0.2c0.1,0,0.2,0,0.3,0.1s0.2,0.1,0.2,0.2
						s0.1,0.2,0.1,0.3C314.3,232.8,314.3,232.9,314.2,233z"/>
					<path class="st12" d="M290.6,234.6c0,0,4.7-0.9,5.2-0.7s3.5,2.9,3.2,3.4s-1.5,0.9-2.9,0.5c-1.4-0.5-4.3-0.7-4.9-1.4
						C290.9,235.9,290.7,235.2,290.6,234.6L290.6,234.6z"/>
					<path class="st28" d="M391.1,254.9h-54.5c-0.8,0-1.6-0.3-2.2-0.9s-0.9-1.4-0.9-2.2s0.3-1.6,0.9-2.2c0.6-0.6,1.4-0.9,2.2-0.9
						h54.5c0.8,0,1.6,0.3,2.2,0.9s0.9,1.4,0.9,2.2s-0.3,1.6-0.9,2.2C392.8,254.6,392,254.9,391.1,254.9L391.1,254.9z"/>
					<path class="st27" d="M354.9,254.9l-1.7,6.7l-4.8,18.6l-4.3,16.6c-0.1,0.1-0.2,0.3-0.3,0.3s-0.3,0.1-0.5,0.1
						c-0.3,0-0.6-0.2-0.5-0.4l3.7-18.8l3.9-20.1l0.6-3L354.9,254.9z"/>
					<path class="st11" d="M353.2,261.6c0.2-2.9-2.8-3.8-2.8-3.8l0.6-3l3.9,0.1L353.2,261.6z"/>
					<path class="st27" d="M375,254.9l1.7,6.7l4.8,18.6l4.3,16.6c0.1,0.1,0.2,0.3,0.3,0.3c0.1,0.1,0.3,0.1,0.5,0.1
						c0.3,0,0.6-0.2,0.5-0.4l-3.7-18.8l-3.9-20.1l-0.6-3L375,254.9z"/>
					<path class="st11" d="M376.7,261.6c-0.2-2.9,2.8-3.8,2.8-3.8l-0.6-3l-3.9,0.1L376.7,261.6z"/>
					<path class="st23" d="M384.1,239.2l-0.1,2.4l-0.2,4.9l-0.1,2.3h-6.2l-0.1-2.3l-0.3-4.9l-0.1-2.4H384.1z"/>
					<path class="st42" d="M384.2,237.6h-7.4l-0.3,1.6h7.9L384.2,237.6z"/>
					<path d="M384,241.5l-0.2,4.9h-6.5l-0.3-4.9H384z"/>
					<path d="M352.5,239.9v0.9v0.7l-0.2,4.5v0.4l-0.1,2.3H346l-0.1-2.3V246l-0.3-4.5v-0.7l-0.1-1.3l0,0c0,0,1.5-0.3,2.3,0.3
						c0.9,0.6,1.8-0.5,2.6-0.2s0.9,0.7,1.5,0.4C352,239.9,352.3,239.9,352.5,239.9L352.5,239.9z"/>
					<path class="st43" d="M352.6,239.2v0.7v1v0.7l-0.2,4.5v0.4l-0.1,2.3h-6.2l-0.1-2.3v-0.4l-0.3-4.5v-0.7l-0.1-1.3v-0.4H352.6
						L352.6,239.2z"/>
					<path class="st43" d="M352.6,239.2v-0.1c0-0.9-0.4-1.8-1.1-2.5s-1.6-1-2.5-1c-1,0-1.9,0.4-2.5,1c-0.7,0.7-1.1,1.6-1.1,2.5v0.1
						H352.6z"/>
					<path class="st23" d="M348.3,248.1H348c0-0.2,1-13.6,1.2-14.5c0.1-0.3,0.2-0.6,0.4-0.8s0.5-0.4,0.8-0.5l0,0l5.1-0.9v0.3
						l-5.1,0.9c-0.2,0.1-0.5,0.2-0.6,0.4c-0.2,0.2-0.3,0.4-0.3,0.6C349.4,234.5,348.3,248.1,348.3,248.1z"/>
					<path class="st23" d="M352.5,240.8v0.7l-0.2,4.5h-6.5l-0.3-4.5v-0.7H352.5z"/>
				</g>
				<path class="st44" d="M42.5,268.4c0,0,4.7-5.4,0.3-8.9c0,0-3.2-1.9-5.8-1.8c0,0,3.7,6.2,2.5,6.8c-1.2,0.6-3.6-7.2-3.6-7.2
					s-7.2-0.7-9.6,0.4c0,0,6.2,5.1,4.9,5.4s-8-4.7-8-4.7s-6.8,1.1-6.4,5.3s2.7,5.4,3.7,5.3s7-2.4,7.1-1.5c0.1,0.8-3.5,3.6-6,3.7
					c0,0,4.8,5.2,7.9,3.7s3.4-3.9,5.4-4.8s3.7-0.9,2.8,0c-0.8,0.9-4.4,1.8-5.5,3.8c-1.1,2-2.1,3.3,1.1,2.9s8.6-2.9,8.8-5.6
					L42.5,268.4z"/>
				<path class="st44" d="M20.1,263.9c0,0,18.3-0.7,22.4,4.5c0.8,2,2,3.7,3.7,5.1l0.4,1.2c0,0-3.2-3.4-4.3-3.5
					C42.3,271.1,44,264.6,20.1,263.9z"/>
				<path class="st44" d="M46.1,273.5c0,0,3.9,2.9,4.2,8.1l-0.7,0.1c0,0-1.3-5.4-3.5-7.5C43.8,272.1,46.1,273.5,46.1,273.5z"/>
				<path class="st45" d="M58.8,261.6c0,0-7.4-4.1-4-9.8c0,0,2.8-3.4,5.7-4.3c0,0-1.6,8.4,0,8.6s1.1-9.5,1.1-9.5s7.8-3.8,10.8-3.4
					c0,0-4.8,8.2-3.3,8c1.6-0.2,7-8.5,7-8.5s8-1.5,9.3,3.3c1.3,4.7-0.8,7.1-2,7.4s-8.8,0.2-8.6,1.2s5.3,2.6,8.2,1.7
					c0,0-3.2,7.8-7.3,7.4c-4.1-0.4-5.4-3-8-3.2s-4.4,0.5-3.2,1.2s5.6,0.2,7.7,2s3.8,2.9-0.1,3.6c-3.8,0.8-10.8,0.3-12.1-2.7
					L58.8,261.6z"/>
				<path class="st44" d="M81.8,247.4c0,0-20.7,6.7-23.1,14.2c0,0,0.1,3.4-2,7.2v1.5c0,0,2.2-5,3.3-5.7
					C60.1,264.5,55.5,258,81.8,247.4z"/>
				<path class="st44" d="M56.8,268.8c0,0-3.2,4.9-1.4,10.8l0.8-0.2c0,0-0.8-6.5,0.9-9.8S56.8,268.8,56.8,268.8z"/>
				<path class="st45" d="M47,255.9c0,0,9.8-5.5,5.2-12.9c0,0-3.6-4.6-7.5-5.7c0,0,2.1,11.1,0,11.3s-1.4-12.5-1.4-12.5
					S33,231.2,29,231.5c0,0,6.4,10.8,4.3,10.5S24,230.9,24,230.9s-10.5-1.9-12.2,4.3s1,9.4,2.6,9.8s11.6,0.3,11.3,1.6
					s-7,3.4-10.8,2.2c0,0,4.2,10.3,9.6,9.8s7.1-3.9,10.5-4.2s5.8,0.6,4.2,1.6c-1.6,1-7.4,0.3-10.1,2.6s-4.9,3.8,0.1,4.8
					s14.2,0.4,16-3.5L47,255.9z"/>
				<path class="st44" d="M16.6,237.1c0,0,27.3,8.8,30.4,18.7c0,0-0.1,4.4,2.6,9.5v2c0,0-2.8-6.6-4.4-7.5
					C45.2,259.8,51.3,251.2,16.6,237.1z"/>
				<path class="st44" d="M49.6,265.4c0,0,4.2,6.4,1.8,14.2l-1.1-0.3c0,0,1-8.6-1.2-12.9C47,262,49.6,265.4,49.6,265.4z"/>
				<path class="st33" d="M47.3,296.4c-2.5,0-5-0.5-7.3-1.5s-4.4-2.4-6.2-4.1c-1.8-1.8-3.2-3.9-4.1-6.2c-1-2.3-1.5-4.8-1.5-7.3h38.2
					c0,5.1-2,9.9-5.6,13.5C57.2,294.4,52.4,296.4,47.3,296.4L47.3,296.4z"/>
				<path class="st46" d="M42.6,296.3c0.8,0.1,1.6,0.1,2.4,0.1c2.5,0,5-0.5,7.3-1.5s4.4-2.4,6.2-4.1c1.8-1.8,3.2-3.9,4.1-6.2
					c1-2.3,1.5-4.8,1.5-7.3h-4.8c0,4.6-1.7,9.1-4.8,12.6C51.5,293.4,47.2,295.7,42.6,296.3L42.6,296.3z"/>
				<path class="st33" d="M28,297.4h38.7c0-0.6-0.2-1.2-0.7-1.7c-0.4-0.4-1-0.7-1.7-0.7h-34c-0.6,0-1.2,0.2-1.7,0.7
					C28.2,296.1,27.9,296.7,28,297.4L28,297.4z"/>
				<path class="st32" d="M27.8,277.9H67v-0.6H27.8V277.9z"/>
				<path class="st44" d="M1196.4,268.4c0,0,4.7-5.4,0.3-8.9c0,0-3.2-1.9-5.8-1.8c0,0,3.7,6.2,2.5,6.8c-1.2,0.6-3.6-7.2-3.6-7.2
					s-7.3-0.7-9.6,0.4c0,0,6.2,5.1,4.9,5.4c-1.3,0.3-8-4.7-8-4.7s-6.8,1.1-6.4,5.3s2.7,5.4,3.7,5.3s7-2.4,7.1-1.5
					c0.1,0.8-3.5,3.6-6,3.7c0,0,4.8,5.2,7.9,3.7c3.2-1.5,3.4-3.9,5.4-4.8s3.7-0.9,2.8,0c-0.8,0.9-4.4,1.8-5.5,3.8s-2.1,3.3,1.1,2.9
					s8.6-2.9,8.8-5.6L1196.4,268.4z"/>
				<path class="st44" d="M1174.1,263.9c0,0,18.3-0.7,22.4,4.5c0.8,2,2.1,3.7,3.7,5.1l0.4,1.2c0,0-3.2-3.4-4.3-3.5
					C1196.2,271.1,1198,264.6,1174.1,263.9z"/>
				<path class="st44" d="M1200.1,273.5c0,0,3.9,2.9,4.2,8.1l-0.7,0.1c0,0-1.3-5.4-3.5-7.5C1197.8,272.1,1200.1,273.5,1200.1,273.5z
					"/>
				<path class="st45" d="M1212.7,261.6c0,0-7.4-4.1-3.9-9.8c0,0,2.8-3.4,5.7-4.3c0,0-1.6,8.4,0,8.6s1.1-9.5,1.1-9.5
					s7.8-3.8,10.8-3.4c0,0-4.8,8.2-3.2,8c1.6-0.2,7-8.5,7-8.5s8-1.5,9.3,3.3c1.3,4.7-0.8,7.1-2,7.4c-1.2,0.3-8.8,0.2-8.6,1.2
					c0.2,1,5.3,2.6,8.2,1.7c0,0-3.2,7.8-7.3,7.4c-4.1-0.4-5.4-3-8-3.2s-4.4,0.5-3.2,1.2s5.6,0.2,7.7,2s3.8,2.9-0.1,3.6
					c-3.8,0.8-10.8,0.3-12.1-2.7L1212.7,261.6z"/>
				<path class="st44" d="M1235.8,247.4c0,0-20.7,6.7-23.1,14.2c0,0,0.1,3.4-2,7.2v1.5c0,0,2.2-5,3.3-5.7
					C1214.1,264.5,1209.4,258,1235.8,247.4z"/>
				<path class="st44" d="M1210.7,268.8c0,0-3.2,4.9-1.4,10.8l0.8-0.2c0,0-0.8-6.5,0.9-9.8C1212.7,266.3,1210.7,268.8,1210.7,268.8z
					"/>
				<path class="st45" d="M1200.9,255.9c0,0,9.8-5.5,5.2-12.9c0,0-3.6-4.6-7.5-5.7c0,0,2.1,11.1,0,11.3s-1.4-12.5-1.4-12.5
					s-10.3-4.9-14.3-4.6c0,0,6.4,10.8,4.3,10.5s-9.2-11.2-9.2-11.2s-10.5-1.9-12.2,4.3s1,9.4,2.6,9.8c1.6,0.4,11.6,0.3,11.3,1.6
					c-0.3,1.3-7,3.4-10.8,2.2c0,0,4.2,10.3,9.6,9.8s7.2-3.9,10.5-4.2c3.4-0.3,5.8,0.6,4.2,1.6c-1.6,1-7.4,0.3-10.1,2.6
					s-4.9,3.8,0.1,4.8s14.2,0.4,16-3.5L1200.9,255.9z"/>
				<path class="st44" d="M1170.5,237.1c0,0,27.3,8.8,30.4,18.7c0,0-0.1,4.4,2.6,9.5v2c0,0-2.8-6.6-4.4-7.5
					C1199.1,259.8,1205.2,251.2,1170.5,237.1z"/>
				<path class="st44" d="M1203.5,265.4c0,0,4.2,6.4,1.8,14.2l-1.1-0.3c0,0,1.1-8.6-1.2-12.9C1200.9,262,1203.5,265.4,1203.5,265.4z
					"/>
				<path class="st33" d="M1201.3,296.4c-2.5,0-5-0.5-7.3-1.5s-4.4-2.4-6.2-4.1c-1.8-1.8-3.2-3.9-4.1-6.2c-1-2.3-1.4-4.8-1.4-7.3
					h38.2c0,5.1-2,9.9-5.6,13.5C1211.2,294.4,1206.3,296.4,1201.3,296.4L1201.3,296.4z"/>
				<path class="st46" d="M1196.6,296.3c0.8,0.1,1.6,0.1,2.4,0.1c2.5,0,5-0.5,7.3-1.5s4.4-2.4,6.2-4.1c1.8-1.8,3.2-3.9,4.1-6.2
					s1.4-4.8,1.4-7.3h-4.7c0,4.6-1.7,9.1-4.8,12.6C1205.4,293.4,1201.2,295.7,1196.6,296.3z"/>
				<path class="st33" d="M1181.9,297.4h38.7c0-0.6-0.2-1.2-0.7-1.7c-0.4-0.4-1-0.7-1.7-0.7h-34c-0.6,0-1.2,0.2-1.7,0.7
					C1182.1,296.1,1181.9,296.7,1181.9,297.4L1181.9,297.4z"/>
				<path class="st32" d="M1181.7,277.9h39.3v-0.6h-39.3V277.9z"/>
				<path class="st47" d="M1232.1,296.8H13c-0.8,0-1.4,0.6-1.4,1.4v0.5c0,0.8,0.6,1.4,1.4,1.4h1219.1c0.8,0,1.4-0.6,1.4-1.4v-0.5
					C1233.5,297.4,1232.8,296.8,1232.1,296.8z"/>
			</g>
		</g>
	</g>
</g>
</svg>
