<?xml version="1.0" encoding="utf-8"?>
<!-- Generator: Adobe Illustrator 26.0.2, SVG Export Plug-In . SVG Version: 6.00 Build 0)  -->
<svg version="1.1" id="Layer_1" xmlns="http://www.w3.org/2000/svg" xmlns:xlink="http://www.w3.org/1999/xlink" x="0px" y="0px"
	 viewBox="0 0 1245 300" style="enable-background:new 0 0 1245 300;" xml:space="preserve">
<style type="text/css">
	.st0{clip-path:url(#SVGID_00000119811370364958545010000016736263298704786092_);}
	.st1{fill:url(#SVGID_00000052101538218442922120000001552178089036768671_);}
	.st2{fill:url(#SVGID_00000155826677436816264350000014568857356239850371_);}
	.st3{fill:#82B378;}
	.st4{opacity:0.5;fill:#FFFFFF;enable-background:new    ;}
	.st5{fill:#A8D29F;}
	.st6{fill:url(#SVGID_00000005968722150433641920000001511026441019042235_);}
	.st7{opacity:0.3;}
	.st8{fill:#91B3FA;}
	.st9{fill:#BDD0FB;}
	.st10{fill:url(#SVGID_00000182490124312544116210000010169253704558677377_);}
	.st11{fill:#7D97F4;}
	.st12{fill:url(#SVGID_00000152224066367993954370000005883769115296971429_);}
	.st13{fill:url(#SVGID_00000044872588265577049110000008906474575033365165_);}
	.st14{fill:url(#SVGID_00000131350179592765488970000009116804080304532622_);}
	.st15{fill:#FFFFFF;}
	.st16{fill:url(#SVGID_00000034805984194751266870000014758871472002052028_);}
	.st17{fill:url(#SVGID_00000182529696836359796820000016366651332334708638_);}
	.st18{fill:url(#SVGID_00000144299067293303723020000006069553957077387932_);}
	.st19{opacity:0.7;fill:#FFFFFF;enable-background:new    ;}
	.st20{fill:url(#SVGID_00000001649000823007044650000017638186128540462750_);}
	.st21{fill:url(#SVGID_00000108291259948363420460000012234588672889390981_);}
	.st22{fill:url(#SVGID_00000043417999213523956970000009733477773807909308_);}
	.st23{fill:url(#SVGID_00000091016118056660714450000009900956132046065590_);}
	.st24{fill:url(#SVGID_00000083771562973935566760000002730718888779033254_);}
	.st25{fill:url(#SVGID_00000051382733205393013120000006732937893459965846_);}
	.st26{fill:url(#SVGID_00000016063386896374558890000017105632869631411597_);}
	.st27{fill:url(#SVGID_00000075879787881730442310000011682653482358312122_);}
	.st28{fill:url(#SVGID_00000147215552140747140790000000907497907077067939_);}
	.st29{fill:url(#SVGID_00000118395598592025681030000003879162407571886498_);}
	.st30{fill:url(#SVGID_00000160884116900459210800000004022699096850182331_);}
	.st31{fill:url(#SVGID_00000081609481484118645760000006665161850283729078_);}
	.st32{fill:url(#SVGID_00000137822189739757001330000013036267382574189732_);}
	.st33{fill:url(#SVGID_00000145779862704637977790000005263153806808869288_);}
	.st34{fill:url(#SVGID_00000178901101934970864850000004561667137326724494_);}
	.st35{fill:url(#SVGID_00000011731180869952477390000007180546966750881185_);}
	.st36{fill:url(#SVGID_00000075848224981809998360000014408070897380977826_);}
	.st37{fill:url(#SVGID_00000138536878787789367180000010512701456783421066_);}
	.st38{fill:url(#SVGID_00000166649510037519883630000005161874549170989706_);}
	.st39{fill:url(#SVGID_00000026124021944371030350000013542370372160358306_);}
	.st40{fill:none;stroke:#2E3192;stroke-width:5;stroke-linecap:round;stroke-linejoin:round;stroke-miterlimit:10;}
</style>
<g id="Background">
</g>
<g>
	<g>
		<defs>
			<rect id="SVGID_1_" width="1245" height="300"/>
		</defs>
		<clipPath id="SVGID_00000052791035781149493160000017053702726845358241_">
			<use xlink:href="#SVGID_1_"  style="overflow:visible;"/>
		</clipPath>
		<g id="Illustration" style="clip-path:url(#SVGID_00000052791035781149493160000017053702726845358241_);">
			
				<linearGradient id="SVGID_00000154394932641298141710000010489000785548014483_" gradientUnits="userSpaceOnUse" x1="1155.6792" y1="742.2325" x2="804.128" y2="362.7804" gradientTransform="matrix(1 0 0 1 0 -252)">
				<stop  offset="0" style="stop-color:#DAE3FE"/>
				<stop  offset="1" style="stop-color:#E9EFFD"/>
			</linearGradient>
			<path style="fill:url(#SVGID_00000154394932641298141710000010489000785548014483_);" d="M1149.9,254.8
				c-58.2,87.5-211.9,125.1-332.4,118.7c-32.9-1.7-99-5.3-150.7-36.7c-99.2-60.3-83.9-186.4,11-260.6C690,66.6,774.7,2.6,906.6,3.5
				c96.6,0.6,164.4,35.7,172.6,40.1c10.4,5.5,33.4,18.6,54.1,39.4C1182,131.9,1186.3,200.1,1149.9,254.8z"/>
			
				<linearGradient id="SVGID_00000001662203062193390050000006541898046035462543_" gradientUnits="userSpaceOnUse" x1="640.9682" y1="698.6556" x2="313.0826" y2="344.7473" gradientTransform="matrix(1 0 0 1 0 -252)">
				<stop  offset="0" style="stop-color:#DAE3FE"/>
				<stop  offset="1" style="stop-color:#E9EFFD"/>
			</linearGradient>
			<path style="fill:url(#SVGID_00000001662203062193390050000006541898046035462543_);" d="M640.9,224
				c-55.6,77.3-202.3,110.5-317.2,104.8c-31.4-1.5-94.5-4.7-143.8-32.4c-94.7-53.3-80.1-164.7,10.5-230.2
				c11.7-8.4,92.5-65,218.4-64.3C501,2.5,565.7,33.5,573.6,37.3c9.9,4.9,31.9,16.5,51.6,34.9C671.6,115.4,675.7,175.7,640.9,224z"/>
			<path class="st3" d="M170.8,197.4c-10.5-25.1-28.1-44.3-47.9-54.9c-17.7-9.4-31.3-25.2-37.5-44.3c-0.6-2-1.4-4-2.2-6
				C70.6,62,41.9,45.2,19.1,54.7s-31.2,41.7-18.6,71.9c2.6,6.2,5.8,11.8,9.5,16.7c11.9,15.8,17.8,35.4,15.6,55.1
				c-1.9,17.6,0.7,36.9,8.5,55.8c11.7,28.1,32.4,48.8,55.1,58.2c8.6,3.6,16.5,8.6,23.2,15c11.2,10.6,26,14.8,38.8,9.5
				c13.8-5.8,21.5-21,20.6-37.9c-0.5-9.6,0.9-19.1,3.8-28.3C182.5,249.2,181.4,222.8,170.8,197.4z"/>
			<path class="st4" d="M30.5,89.3c11.3,18.7,22,37.8,32.5,57c2.6,4.8,5.2,9.6,7.7,14.5l3.8,7.2l3.8,7.3c2.5,4.9,5.1,9.7,7.5,14.6
				l7.3,14.7c4.8,9.8,9.6,19.6,14.2,29.6c2.3,5,4.7,9.9,6.9,14.9l6.7,15c8.7,20.1,16.9,40.4,24,61l-0.9,0.3l-5.9-15.3l-1.5-3.8
				l-1.6-3.8l-3.2-7.6l-3.1-7.6c-1-2.5-2.2-5-3.3-7.5c-2.2-5-4.4-10-6.6-15c-9.1-19.9-18.4-39.6-28.1-59.2
				C85.9,196,81,186.2,76,176.5l-3.7-7.3l-3.8-7.3c-2.5-4.8-5.1-9.7-7.6-14.5c-5.1-9.7-10.2-19.3-15.4-28.9S35.1,99.3,29.8,89.8
				L30.5,89.3z"/>
			<path class="st5" d="M97.2,253.6c-9.9-19.1-10.4-44.6-14-67.1c-1.9-11.9-4.8-23.4-10.5-34.1c-5.6-10.7-15.1-21-14-33.9
				c2.1-25.9,29-23.6,48.2-11.1c22.2,14.5,37.5,45.3,51.8,68.1c8.6,13.8,19.2,27.3,26.3,41.9c11.7,24.2,12,43.7,3.9,59.7
				c-7.7,15.3-24.6,23.7-41.5,20.6C132.2,294.9,113.2,284.3,97.2,253.6z"/>
			<path class="st4" d="M182.3,328.7L182.3,328.7c-0.5,0.1-0.9-0.2-0.9-0.7c-0.1-0.3-5.4-32.6-19.6-74.8
				c-13.1-39-36.7-94.6-74.5-138.5c-0.3-0.3-0.3-0.9,0.1-1.1s0.9-0.3,1.1,0.1c38,44,61.7,99.9,74.8,139
				c14.2,42.4,19.6,74.7,19.6,75.1C183,328.2,182.7,328.6,182.3,328.7z"/>
			<path class="st3" d="M1101.7,216.5c8.6-20.7,23.2-36.6,39.5-45.2c14.6-7.7,25.8-20.8,30.9-36.5c0.5-1.7,1.1-3.3,1.8-4.9
				c10.4-24.9,34-38.8,52.9-30.9c18.8,7.8,25.7,34.4,15.3,59.3c-2.1,5.1-4.8,9.7-7.9,13.8c-9.8,13-14.6,29.2-12.9,45.4
				c1.6,14.5-0.6,30.5-7,46c-9.6,23.2-26.7,40.2-45.4,48c-7.1,2.9-13.6,7.1-19.1,12.4c-9.2,8.8-21.5,12.2-32,7.8
				c-11.4-4.7-17.7-17.3-17-31.2c0.4-7.9-0.8-15.8-3.2-23.3C1092,259.2,1092.9,237.4,1101.7,216.5z"/>
			<path class="st4" d="M1217.4,127.3c-9.3,15.4-18.1,31.2-26.8,47c-2.2,4-4.3,7.9-6.4,11.9l-3.2,6l-3.1,6c-2.1,4-4.2,8-6.2,12
				l-6,12.1c-3.9,8.1-7.9,16.2-11.7,24.4c-1.9,4.1-3.9,8.1-5.7,12.3l-5.5,12.4c-7.2,16.6-13.9,33.3-19.8,50.3l0.7,0.3l4.9-12.6
				l1.2-3.2l1.3-3.1l2.6-6.2l2.6-6.2c0.9-2.1,1.8-4.1,2.7-6.2c1.8-4.1,3.6-8.2,5.4-12.4c7.5-16.4,15.2-32.7,23.2-48.8
				c4.1-8,8.1-16.1,12.2-24.1l3.1-6l3.1-6c2.1-4,4.2-8,6.3-12c4.2-8,8.4-15.9,12.7-23.8c4.3-7.9,8.6-15.8,13-23.7L1217.4,127.3z"/>
			<path class="st5" d="M1162.3,262.8c8.2-15.7,8.6-36.8,11.5-55.4c1.6-9.8,3.9-19.3,8.6-28.1c4.6-8.8,12.4-17.3,11.5-28
				c-1.8-21.4-23.9-19.5-39.7-9.2c-18.3,11.9-30.9,37.4-42.7,56.2c-7.1,11.4-15.9,22.5-21.7,34.6c-9.7,20-9.9,36.1-3.2,49.2
				c6.4,12.6,20.3,19.5,34.2,17C1133.5,296.8,1149.2,288.1,1162.3,262.8z"/>
			<path class="st4" d="M1092.2,324.7L1092.2,324.7c0.4,0.1,0.7-0.2,0.8-0.6c0-0.3,4.4-26.9,16.1-61.7c10.8-32.1,30.2-78,61.4-114.2
				c0.2-0.3,0.2-0.7-0.1-0.9c-0.3-0.2-0.7-0.2-0.9,0.1c-31.3,36.3-50.8,82.4-61.7,114.6c-11.8,34.9-16.2,61.6-16.2,61.9
				C1091.6,324.3,1091.8,324.7,1092.2,324.7z"/>
			
				<linearGradient id="SVGID_00000046321808802548569890000011050613819441375363_" gradientUnits="userSpaceOnUse" x1="918.3403" y1="672.988" x2="630.2398" y2="362.0223" gradientTransform="matrix(1 0 0 1 0 -252)">
				<stop  offset="0" style="stop-color:#DAE3FE"/>
				<stop  offset="1" style="stop-color:#E9EFFD"/>
			</linearGradient>
			<path style="fill:url(#SVGID_00000046321808802548569890000011050613819441375363_);" d="M913.6,228.1
				c-47.7,71.7-173.7,102.5-272.4,97.2c-26.9-1.4-81.2-4.3-123.5-30.1c-81.3-49.4-68.8-152.7,9-213.5c10-7.8,79.4-60.3,187.5-59.6
				C793.4,22.6,849,51.4,855.7,55c8.5,4.5,27.4,15.3,44.3,32.3C939.9,127.3,943.4,183.3,913.6,228.1z"/>
			<g class="st7">
				<path class="st8" d="M374,45.5c-0.5,0-0.9-0.4-0.8-0.9c0-0.9,0-1.9,0-2.8c0-0.5,0.3-0.9,0.8-0.9l0,0c0.5,0,0.9,0.4,0.9,0.8
					c0,1,0,2,0,3C374.9,45.2,374.5,45.5,374,45.5L374,45.5z M372.6,37.3c-0.2-0.9-0.4-1.8-0.6-2.7c-0.1-0.5,0.1-0.9,0.6-1.1
					c0.5-0.1,0.9,0.2,1.1,0.6c0.3,0.9,0.5,1.9,0.7,2.9c0.1,0.5-0.2,0.9-0.7,1h-0.1C373.1,38,372.7,37.7,372.6,37.3z M370.5,30.2
					c-0.4-0.9-0.8-1.7-1.2-2.5c-0.2-0.4-0.1-1,0.4-1.2c0.4-0.2,1-0.1,1.2,0.4c0.5,0.9,0.9,1.8,1.3,2.7c0.2,0.4,0,1-0.5,1.1
					c-0.1,0-0.2,0.1-0.3,0.1C371,30.7,370.6,30.5,370.5,30.2z M366.8,23.8c-0.6-0.8-1.1-1.5-1.8-2.2c-0.3-0.4-0.3-0.9,0.1-1.2
					c0.4-0.3,0.9-0.3,1.2,0.1c0.6,0.7,1.3,1.5,1.9,2.3c0.3,0.4,0.2,0.9-0.2,1.2c-0.1,0.1-0.3,0.2-0.5,0.2
					C367.3,24.2,367,24,366.8,23.8z M361.8,18.4c-0.7-0.6-1.4-1.2-2.2-1.8c-0.4-0.3-0.5-0.8-0.2-1.2s0.8-0.5,1.2-0.2
					c0.8,0.6,1.6,1.2,2.3,1.8c0.4,0.3,0.4,0.9,0.1,1.2c-0.2,0.2-0.4,0.3-0.6,0.3C362.2,18.6,362,18.5,361.8,18.4z M355.8,14.2
					c-0.8-0.4-1.7-0.9-2.5-1.2c-0.4-0.2-0.6-0.7-0.5-1.1c0.2-0.4,0.7-0.6,1.1-0.5c0.9,0.4,1.8,0.8,2.7,1.3c0.4,0.2,0.6,0.8,0.4,1.2
					c-0.2,0.3-0.4,0.4-0.7,0.5C356.1,14.3,355.9,14.2,355.8,14.2z M323.5,13.8c-0.2-0.4-0.1-1,0.4-1.2c0.9-0.5,1.8-0.9,2.7-1.3
					c0.4-0.2,1,0,1.1,0.5c0.2,0.4,0,1-0.5,1.1c-0.9,0.4-1.7,0.8-2.5,1.2c-0.1,0.1-0.2,0.1-0.4,0.1C324,14.2,323.6,14.1,323.5,13.8z
					 M348.9,11.4c-0.9-0.3-1.8-0.5-2.7-0.6c-0.5-0.1-0.8-0.5-0.7-1c0.1-0.5,0.5-0.8,1-0.7c1,0.2,1.9,0.4,2.9,0.7
					c0.5,0.1,0.7,0.6,0.6,1.1c-0.1,0.4-0.4,0.6-0.8,0.6C349.1,11.5,349,11.5,348.9,11.4z M330.5,10.8c-0.1-0.5,0.2-0.9,0.6-1.1
					c1-0.3,1.9-0.5,2.9-0.7c0.5-0.1,0.9,0.2,1,0.7s-0.2,0.9-0.7,1c-0.9,0.2-1.8,0.4-2.7,0.6c-0.1,0-0.1,0-0.2,0
					C330.9,11.5,330.6,11.2,330.5,10.8z M341.6,10.3c-0.9,0-1.9,0-2.8,0c-0.5,0-0.9-0.4-0.9-0.8c0-0.5,0.3-0.9,0.8-0.9l0,0
					c1,0,2,0,3,0c0.5,0,0.9,0.4,0.8,0.9C342.5,9.9,342.2,10.3,341.6,10.3C341.7,10.3,341.7,10.3,341.6,10.3z"/>
				<path class="st8" d="M319.2,17.6c0.2,0,0.3-0.1,0.5-0.2c0.4-0.3,0.7-0.6,1.1-0.8c0.4-0.3,0.5-0.8,0.2-1.2s-0.8-0.5-1.2-0.2
					c-0.4,0.3-0.8,0.6-1.1,0.9c-0.4,0.3-0.4,0.8-0.1,1.2C318.7,17.5,318.9,17.6,319.2,17.6z"/>
			</g>
			<g class="st7">
				<path class="st8" d="M306.5,40.8c0.4,0,0.8-0.4,0.8-0.8c0-0.4,0.1-0.9,0.2-1.3c0.1-0.5-0.3-0.9-0.7-1c-0.5-0.1-0.9,0.3-1,0.7
					c-0.1,0.5-0.1,0.9-0.2,1.4c0,0.5,0.3,0.9,0.8,1C306.4,40.8,306.5,40.8,306.5,40.8z"/>
				<path class="st8" d="M340.6,78c-0.5,0-0.9-0.4-0.9-0.9s0.4-0.9,0.9-0.9c0.9,0,1.8-0.1,2.8-0.2c0.5-0.1,0.9,0.3,1,0.8
					c0,0.5-0.3,0.9-0.8,1c-0.4,0-0.8,0.1-1.2,0.1C341.8,77.9,341.2,77.9,340.6,78z M347.2,76.4c-0.1-0.5,0.2-0.9,0.6-1
					c0.9-0.2,1.8-0.5,2.7-0.8c0.5-0.2,0.9,0.1,1.1,0.6s-0.1,0.9-0.6,1.1c-0.9,0.3-1.9,0.6-2.8,0.8c-0.1,0-0.1,0-0.1,0
					C347.7,77.1,347.3,76.8,347.2,76.4z M335.9,77.7c-1-0.1-1.9-0.3-2.9-0.5c-0.5-0.1-0.8-0.6-0.7-1c0.1-0.5,0.6-0.8,1-0.7
					c0.9,0.2,1.8,0.3,2.7,0.5c0.5,0.1,0.8,0.5,0.8,1c-0.1,0.4-0.4,0.7-0.8,0.8C336,77.7,336,77.7,335.9,77.7z M354.3,74
					c-0.2-0.4,0-1,0.4-1.2c0.8-0.4,1.6-0.8,2.4-1.3c0.4-0.2,0.9-0.1,1.2,0.3c0.2,0.4,0.1,0.9-0.3,1.2c-0.8,0.5-1.7,1-2.6,1.4
					c-0.1,0.1-0.2,0.1-0.3,0.1C354.7,74.6,354.4,74.4,354.3,74z M328.5,75.9c-0.9-0.3-1.8-0.7-2.7-1.1c-0.4-0.2-0.6-0.7-0.4-1.2
					c0.2-0.4,0.7-0.6,1.2-0.4c0.8,0.4,1.7,0.7,2.6,1c0.5,0.2,0.7,0.7,0.5,1.1c-0.1,0.3-0.4,0.6-0.8,0.6
					C328.7,76,328.6,76,328.5,75.9z M321.6,72.6c-0.8-0.5-1.6-1.1-2.4-1.7c-0.4-0.3-0.5-0.8-0.2-1.2c0.3-0.4,0.8-0.5,1.2-0.2
					c0.7,0.6,1.5,1.1,2.3,1.6c0.4,0.3,0.5,0.8,0.3,1.2c-0.2,0.2-0.4,0.4-0.7,0.4C322,72.7,321.8,72.7,321.6,72.6z M315.6,67.8
					c-0.7-0.7-1.4-1.4-2-2.1c-0.3-0.4-0.3-0.9,0.1-1.2c0.4-0.3,0.9-0.3,1.2,0.1c0.6,0.7,1.2,1.4,1.9,2c0.3,0.3,0.3,0.9,0,1.2
					c-0.2,0.2-0.4,0.2-0.6,0.3C316.1,68.1,315.8,68,315.6,67.8z M310.9,61.8c-0.5-0.8-1-1.7-1.5-2.5c-0.2-0.4-0.1-1,0.4-1.2
					c0.4-0.2,1-0.1,1.2,0.4c0.4,0.8,0.9,1.6,1.4,2.4c0.3,0.4,0.1,0.9-0.3,1.2c-0.1,0.1-0.3,0.1-0.4,0.1
					C311.3,62.3,311,62.1,310.9,61.8z M307.5,55c-0.3-0.9-0.6-1.8-0.9-2.8c-0.1-0.5,0.2-0.9,0.6-1.1c0.5-0.1,0.9,0.2,1.1,0.6
					c0.2,0.9,0.5,1.8,0.8,2.6c0.2,0.5-0.1,1-0.5,1.1c-0.1,0-0.2,0-0.2,0.1C308,55.6,307.6,55.3,307.5,55z M305.7,47.5
					c-0.1-0.7-0.2-1.4-0.2-2.1c0-0.3,0-0.5,0-0.8c0-0.5,0.3-0.9,0.8-0.9s0.9,0.4,0.9,0.8c0,0.2,0,0.5,0,0.7c0,0.7,0.1,1.4,0.2,2
					c0.1,0.5-0.3,0.9-0.8,1c0,0,0,0-0.1,0C306.2,48.3,305.8,48,305.7,47.5z"/>
				<path class="st8" d="M361.4,70.5c0.2,0,0.3-0.1,0.5-0.2c0.4-0.3,0.7-0.6,1.1-0.9s0.4-0.9,0.1-1.2c-0.3-0.4-0.9-0.4-1.2-0.1
					c-0.3,0.3-0.7,0.6-1,0.9c-0.4,0.3-0.4,0.8-0.1,1.2C360.8,70.4,361.1,70.5,361.4,70.5z"/>
			</g>
			<g>
				<path class="st8" d="M363,55.7c0.1-0.1,0.1-0.3,0-0.5l-2.9-4c0.9-2.1,1.4-4.4,1.6-6.8L366,42c0.2-0.1,0.2-0.3,0.2-0.4l-1-5.9
					c0-0.2-0.2-0.3-0.3-0.3l-4.9-0.8c-0.9-2.2-2.2-4.2-3.7-5.9l1.4-4.7c0.1-0.2,0-0.3-0.2-0.4l-4.8-3.4c-0.1-0.1-0.3-0.1-0.5,0
					l-4,2.9c-2.1-0.9-4.4-1.4-6.8-1.6l-2.4-4.3c-0.1-0.2-0.3-0.2-0.4-0.2l-5.9,1c-0.2,0-0.3,0.2-0.3,0.3l-0.8,4.9
					c-2.2,0.9-4.2,2.2-5.9,3.7l-4.7-1.4c-0.2-0.1-0.3,0-0.4,0.2l-3.4,4.8c-0.1,0.1-0.1,0.3,0,0.5l2.9,4c-0.9,2.1-1.4,4.4-1.6,6.8
					l-4.3,2.4c-0.2,0.1-0.2,0.3-0.2,0.4l1,5.9c0,0.2,0.2,0.3,0.3,0.3l4.9,0.8c0.9,2.2,2.2,4.2,3.7,5.9l-1.4,4.7
					c-0.1,0.2,0,0.3,0.2,0.4l4.8,3.4c0.1,0.1,0.3,0.1,0.5,0l4-2.9c2.1,0.9,4.4,1.4,6.8,1.6l2.4,4.3c0.1,0.2,0.3,0.2,0.4,0.2l5.9-1
					c0.2,0,0.3-0.2,0.3-0.3l0.8-4.9c2.2-0.9,4.2-2.2,5.9-3.7l4.7,1.4c0.2,0.1,0.3,0,0.4-0.2L363,55.7z"/>
				<g>
					<path class="st9" d="M339.6,48.9c-3.3-0.3-5.7-3.2-5.4-6.4c0.1-1.6,0.9-3,2.1-4.1c1.2-1,2.8-1.5,4.3-1.4
						c3.3,0.3,5.7,3.2,5.4,6.4c-0.3,3-2.7,5.3-5.6,5.5C340.2,48.9,339.9,48.9,339.6,48.9z M337.2,39.5c-0.9,0.8-1.5,1.9-1.6,3.1
						c-0.2,2.5,1.7,4.7,4.2,4.9s4.7-1.7,4.9-4.2c0.2-2.5-1.7-4.7-4.2-4.9c-0.2,0-0.5,0-0.7,0C338.9,38.5,337.9,38.8,337.2,39.5z"/>
				</g>
				<g>
					<path class="st9" d="M340.9,57.5c0.5,0,1-0.1,1.5-0.2l0,0c0.2,0,0.3-0.1,0.5-0.1c0.8-0.2,1.5-0.4,2.3-0.6l0,0h0.1
						c0.1,0,0.1,0,0.2-0.1s0.2-0.2,0.2-0.3v-0.1c-0.1-0.2-0.3-0.3-0.5-0.2c-0.9,0.4-1.9,0.6-2.9,0.8c-4.9,0.8-9.6-1-12.7-4.5
						c-1.7-1.9-2.9-4.3-3.4-7c-0.1-0.5-0.1-1-0.2-1.4c-0.2-3.2,0.7-6.3,2.6-9c2.2-3,5.4-5,9.1-5.7c7.6-1.3,14.8,3.9,16.1,11.5
						c0.1,0.5,0.1,0.9,0.2,1.4c0.1,2-0.2,4.1-0.9,6c0,0.1,0,0.1,0,0.2c0,0.1,0.1,0.3,0.2,0.3c0.2,0.1,0.4,0,0.5-0.2
						c0.8-2,1.1-4.1,1-6.3c0-0.5-0.1-1-0.2-1.5c-1.3-8-8.9-13.4-16.9-12.1c-3.9,0.6-7.2,2.7-9.5,5.9c-2,2.8-2.9,6.1-2.7,9.4
						c0,0.5,0.1,1,0.2,1.5c0.6,3.9,2.7,7.2,5.9,9.5C334.3,56.8,337.6,57.7,340.9,57.5z"/>
				</g>
			</g>
			<g class="st7">
				<path class="st8" d="M405.1,66.5c0.2,0,0.4-0.2,0.5-0.4c0.1-0.4,0.2-0.9,0.3-1.3c0.1-0.3-0.2-0.6-0.4-0.6
					c-0.3-0.1-0.6,0.2-0.6,0.4c-0.1,0.4-0.2,0.9-0.3,1.3c-0.1,0.3,0.1,0.6,0.4,0.6H405.1z"/>
				<path class="st8" d="M405.6,62.4c-0.3,0-0.5-0.3-0.5-0.6c0-0.7,0-1.5,0-2.3c0-0.2,0-0.3,0-0.5c0-0.3,0.2-0.6,0.5-0.6
					s0.6,0.2,0.6,0.5c0,0.2,0,0.3,0,0.5c0.1,0.8,0.1,1.6,0,2.4C406.1,62.2,405.9,62.4,405.6,62.4L405.6,62.4z M404.6,56.4
					c-0.2-0.9-0.4-1.8-0.7-2.6c-0.1-0.3,0.1-0.6,0.3-0.7c0.3-0.1,0.6,0.1,0.7,0.3c0.3,0.9,0.6,1.8,0.8,2.8c0.1,0.3-0.1,0.6-0.4,0.6
					h-0.1C404.9,56.9,404.7,56.7,404.6,56.4z M402.9,51.3c-0.4-0.8-0.9-1.6-1.3-2.4c-0.2-0.3-0.1-0.6,0.2-0.7
					c0.3-0.2,0.6-0.1,0.7,0.2c0.5,0.8,1,1.6,1.4,2.5c0.1,0.3,0,0.6-0.2,0.7c-0.1,0-0.1,0.1-0.2,0.1C403.2,51.6,403,51.5,402.9,51.3z
					 M399.9,46.7c-0.6-0.7-1.2-1.4-1.9-2c-0.2-0.2-0.2-0.5,0-0.8c0.2-0.2,0.5-0.2,0.8,0c0.7,0.6,1.4,1.3,2,2.1
					c0.2,0.2,0.2,0.6-0.1,0.8c-0.1,0.1-0.2,0.1-0.3,0.1C400.2,46.9,400,46.9,399.9,46.7z M395.9,43c-0.7-0.5-1.5-1-2.3-1.5
					c-0.3-0.1-0.4-0.5-0.2-0.7c0.1-0.3,0.5-0.4,0.7-0.2c0.8,0.5,1.6,1,2.4,1.5c0.2,0.2,0.3,0.5,0.1,0.8c-0.1,0.1-0.3,0.2-0.4,0.2
					S396,43.1,395.9,43z M391.1,40.4c-0.8-0.3-1.7-0.6-2.6-0.8c-0.3-0.1-0.5-0.4-0.4-0.7s0.4-0.5,0.7-0.4c0.9,0.2,1.8,0.5,2.7,0.9
					c0.3,0.1,0.4,0.4,0.3,0.7c-0.1,0.2-0.3,0.3-0.5,0.3C391.3,40.5,391.2,40.5,391.1,40.4z M385.9,39.1c-0.9-0.1-1.8-0.2-2.7-0.2
					c-0.3,0-0.5-0.2-0.5-0.5s0.2-0.5,0.5-0.5c1,0,1.9,0.1,2.9,0.2c0.3,0,0.5,0.3,0.5,0.6s-0.2,0.5-0.5,0.5
					C385.9,39.1,385.9,39.1,385.9,39.1z M377.1,39.1c-0.1-0.3,0.1-0.6,0.4-0.7c0.8-0.2,1.6-0.4,2.4-0.5c0.1,0,0.3,0,0.4-0.1
					c0.3,0,0.6,0.2,0.6,0.5s-0.2,0.6-0.5,0.6c-0.1,0-0.2,0-0.4,0c-0.8,0.1-1.6,0.3-2.3,0.4h-0.1C377.4,39.5,377.1,39.4,377.1,39.1z"
					/>
			</g>
			<g class="st7">
				<path class="st8" d="M384.1,84.2c-0.9,0.1-1.9,0-2.8,0c-0.3,0-0.5-0.3-0.5-0.6c0-0.3,0.3-0.5,0.6-0.5c0.9,0.1,1.8,0.1,2.7,0
					c0.3,0,0.6,0.2,0.6,0.5S384.4,84.1,384.1,84.2L384.1,84.2z M386.3,83.4c-0.1-0.3,0.1-0.6,0.4-0.6c0.9-0.2,1.8-0.4,2.6-0.6
					c0.3-0.1,0.6,0.1,0.7,0.4s-0.1,0.6-0.4,0.7c-0.9,0.3-1.8,0.5-2.7,0.6c0,0,0,0-0.1,0C386.6,83.9,386.3,83.7,386.3,83.4z
					 M378.5,83.8c-0.9-0.2-1.8-0.4-2.7-0.7c-0.3-0.1-0.4-0.4-0.3-0.7c0.1-0.3,0.4-0.4,0.7-0.3c0.8,0.3,1.7,0.5,2.6,0.7
					c0.3,0.1,0.5,0.3,0.4,0.6c-0.1,0.2-0.3,0.4-0.5,0.4C378.6,83.8,378.6,83.8,378.5,83.8z M391.6,81.9c-0.1-0.3,0-0.6,0.3-0.7
					c0.8-0.4,1.6-0.8,2.4-1.2c0.3-0.2,0.6-0.1,0.7,0.2c0.2,0.3,0.1,0.6-0.2,0.7c-0.8,0.5-1.6,0.9-2.5,1.3c-0.1,0-0.1,0-0.2,0
					C391.9,82.3,391.7,82.2,391.6,81.9z M373.2,82c-0.8-0.4-1.7-0.8-2.5-1.3c-0.3-0.2-0.3-0.5-0.2-0.7s0.5-0.3,0.7-0.2
					c0.8,0.5,1.6,0.9,2.4,1.3c0.3,0.1,0.4,0.4,0.3,0.7c-0.1,0.2-0.3,0.3-0.5,0.3C373.4,82.1,373.3,82,373.2,82z M368.4,79
					c-0.7-0.6-1.4-1.2-2.1-1.9c-0.2-0.2-0.2-0.6,0-0.8c0.2-0.2,0.6-0.2,0.8,0c0.6,0.6,1.3,1.2,2,1.8c0.2,0.2,0.3,0.5,0.1,0.8
					c-0.1,0.1-0.2,0.2-0.4,0.2C368.7,79.2,368.5,79.1,368.4,79z M364.5,75c-0.6-0.7-1.1-1.5-1.6-2.3c-0.2-0.3-0.1-0.6,0.2-0.7
					c0.3-0.2,0.6-0.1,0.7,0.2c0.5,0.8,1,1.5,1.5,2.2c0.2,0.2,0.1,0.6-0.1,0.8c-0.1,0.1-0.2,0.1-0.3,0.1
					C364.8,75.2,364.6,75.2,364.5,75z"/>
				<path class="st8" d="M396.9,79.5c0.1,0,0.2,0,0.3-0.1c0.4-0.3,0.7-0.6,1.1-0.9c0.2-0.2,0.2-0.5,0.1-0.8
					c-0.2-0.2-0.5-0.2-0.8-0.1c-0.3,0.3-0.7,0.6-1,0.8c-0.2,0.2-0.3,0.5-0.1,0.8C396.5,79.4,396.7,79.5,396.9,79.5z"/>
			</g>
			<g>
				<path class="st8" d="M398.3,69.3c0.1-0.1,0.1-0.2,0-0.3l-1.9-2.7c0.6-1.4,1-3,1.1-4.5l2.9-1.6c0.1-0.1,0.2-0.2,0.1-0.3l-0.7-3.9
					c0-0.1-0.1-0.2-0.2-0.2l-3.3-0.6c-0.6-1.5-1.5-2.8-2.5-4l0.9-3.2c0-0.1,0-0.2-0.1-0.3l-3.2-2.3c-0.1-0.1-0.2-0.1-0.3,0l-2.7,1.9
					c-1.4-0.6-3-1-4.5-1.1l-1.6-2.9c-0.1-0.1-0.2-0.2-0.3-0.1l-3.9,0.7c-0.1,0-0.2,0.1-0.2,0.2l-0.6,3.3c-1.5,0.6-2.8,1.5-4,2.5
					l-3.2-0.9c-0.1,0-0.2,0-0.3,0.1l-2.3,3.2c-0.1,0.1-0.1,0.2,0,0.3l1.9,2.7c-0.6,1.4-1,3-1.1,4.5l-2.9,1.6
					c-0.1,0.1-0.2,0.2-0.1,0.3l0.7,3.9c0,0.1,0.1,0.2,0.2,0.2l3.3,0.6c0.6,1.5,1.5,2.8,2.5,4l-0.9,3.2c0,0.1,0,0.2,0.1,0.3l3.2,2.3
					c0.1,0.1,0.2,0.1,0.3,0l2.7-1.9c1.4,0.6,3,1,4.5,1.1l1.6,2.9c0.1,0.1,0.2,0.2,0.3,0.1l3.9-0.7c0.1,0,0.2-0.1,0.2-0.2l0.6-3.3
					c1.5-0.6,2.8-1.5,4-2.5l3.2,0.9c0.1,0,0.2,0,0.3-0.1L398.3,69.3z"/>
				<g>
					<path class="st9" d="M382.6,64.9c-1.1-0.1-2.1-0.6-2.8-1.4c-0.7-0.8-1-1.9-0.9-3c0.2-2.2,2.1-3.9,4.4-3.7
						c2.2,0.2,3.9,2.2,3.7,4.4c-0.1,1.1-0.6,2.1-1.4,2.8c-0.7,0.6-1.5,0.9-2.4,1C383,64.9,382.8,64.9,382.6,64.9z M380,60.6
						c-0.1,0.8,0.2,1.6,0.7,2.2s1.2,1,2,1l0,0c0.8,0.1,1.6-0.2,2.2-0.7s1-1.2,1-2c0.1-1.6-1.1-3.1-2.7-3.2c-0.2,0-0.3,0-0.4,0
						C381.3,57.9,380.1,59.1,380,60.6z"/>
				</g>
				<g>
					<path class="st9" d="M383.5,70.9c0.3,0,0.7-0.1,1-0.1c0.7-0.1,1.3-0.3,2-0.5h0.1c0.2-0.1,0.4-0.3,0.3-0.5c0-0.1,0-0.1,0-0.2
						c-0.1-0.3-0.4-0.4-0.7-0.3c-0.6,0.2-1.2,0.4-1.9,0.5l0,0h-0.1c-1.5,0.2-3,0.1-4.4-0.4c-0.8-0.3-1.5-0.6-2.2-1.1l0,0
						c0,0,0,0-0.1,0c-2-1.4-3.3-3.5-3.7-5.9c-0.1-0.3-0.1-0.6-0.1-0.9c-0.1-2.1,0.5-4.1,1.7-5.8c1.4-2,3.5-3.3,5.9-3.7
						s4.8,0.2,6.7,1.6c2,1.4,3.3,3.5,3.7,5.9c0.1,0.3,0.1,0.6,0.1,0.9c0.1,1.3-0.1,2.6-0.6,3.9c0,0.1,0,0.2,0,0.2
						c0,0.2,0.1,0.4,0.3,0.5c0.3,0.1,0.6,0,0.7-0.3c0.5-1.4,0.8-2.9,0.7-4.3c0-0.3-0.1-0.7-0.1-1c-0.4-2.7-1.9-5-4.1-6.6
						s-4.9-2.2-7.5-1.8c-2.7,0.4-5,1.9-6.6,4.1c-1.4,1.9-2,4.2-1.9,6.5c0,0.3,0.1,0.7,0.1,1C373.8,67.6,378.4,71.2,383.5,70.9z"/>
				</g>
			</g>
			<g>
				<path class="st8" d="M851.9,160.6c0.1-0.1,0.1-0.2,0-0.3l-1.9-2.7c0.6-1.4,1-3,1.1-4.5l2.9-1.6c0.1-0.1,0.2-0.2,0.1-0.3
					l-0.7-3.9c0-0.1-0.1-0.2-0.2-0.2l-3.3-0.6c-0.6-1.5-1.5-2.8-2.5-4l0.9-3.2c0-0.1,0-0.2-0.1-0.3l-3.2-2.3c-0.1-0.1-0.2-0.1-0.3,0
					l-2.7,1.9c-1.4-0.6-3-1-4.5-1.1l-1.6-2.9c-0.1-0.1-0.2-0.2-0.3-0.1l-3.9,0.7c-0.1,0-0.2,0.1-0.2,0.2l-0.6,3.3
					c-1.5,0.6-2.8,1.5-4,2.5l-3.2-0.9c-0.1,0-0.2,0-0.3,0.1l-2.3,3.2c-0.1,0.1-0.1,0.2,0,0.3l1.9,2.7c-0.6,1.4-1,3-1.1,4.5l-2.9,1.6
					c-0.1,0.1-0.2,0.2-0.1,0.3l0.7,3.9c0,0.1,0.1,0.2,0.2,0.2l3.3,0.6c0.6,1.5,1.5,2.8,2.5,4l-0.9,3.2c0,0.1,0,0.2,0.1,0.3l3.2,2.3
					c0.1,0.1,0.2,0.1,0.3,0l2.7-1.9c1.4,0.6,3,1,4.5,1.1l1.6,2.9c0.1,0.1,0.2,0.2,0.3,0.1l3.9-0.7c0.1,0,0.2-0.1,0.2-0.2l0.6-3.3
					c1.5-0.6,2.8-1.5,4-2.5l3.2,0.9c0.1,0,0.2,0,0.3-0.1L851.9,160.6z"/>
				<g>
					<path class="st9" d="M836.2,156.1c-1.1-0.1-2.1-0.6-2.8-1.4c-0.7-0.8-1-1.9-0.9-3c0.2-2.2,2.1-3.9,4.4-3.7
						c2.2,0.2,3.9,2.2,3.7,4.4c-0.1,1.1-0.6,2.1-1.4,2.8c-0.7,0.6-1.5,0.9-2.4,1C836.6,156.1,836.4,156.1,836.2,156.1z M833.6,151.8
						c-0.1,0.8,0.2,1.6,0.7,2.2c0.5,0.6,1.2,1,2,1l0,0c0.8,0.1,1.6-0.2,2.2-0.7s1-1.2,1-2c0.1-1.6-1.1-3.1-2.7-3.2
						c-0.2,0-0.3,0-0.4,0C834.9,149.2,833.7,150.3,833.6,151.8z"/>
				</g>
				<g>
					<path class="st9" d="M837.1,162.1c0.3,0,0.7-0.1,1-0.1c0.7-0.1,1.3-0.3,2-0.5h0.1c0.2-0.1,0.4-0.3,0.3-0.5c0-0.1,0-0.1,0-0.2
						c-0.1-0.3-0.4-0.4-0.7-0.3c-0.6,0.2-1.2,0.4-1.9,0.5l0,0h-0.1c-1.5,0.2-3,0.1-4.4-0.4c-0.8-0.3-1.5-0.6-2.2-1.1l0,0
						c0,0,0,0-0.1,0c-2-1.4-3.3-3.5-3.7-5.9c-0.1-0.3-0.1-0.6-0.1-0.9c-0.1-2.1,0.5-4.1,1.7-5.8c1.4-2,3.5-3.3,5.9-3.7
						s4.8,0.2,6.7,1.6c2,1.4,3.3,3.5,3.7,5.9c0.1,0.3,0.1,0.6,0.1,0.9c0.1,1.3-0.1,2.6-0.6,3.9c0,0.1,0,0.2,0,0.2
						c0,0.2,0.1,0.4,0.3,0.5c0.3,0.1,0.6,0,0.7-0.3c0.5-1.4,0.8-2.9,0.7-4.3c0-0.3-0.1-0.7-0.1-1c-0.4-2.7-1.9-5-4.1-6.6
						s-4.9-2.2-7.5-1.8c-2.7,0.4-5,1.9-6.6,4.1c-1.4,1.9-2,4.2-1.9,6.5c0,0.3,0.1,0.7,0.1,1C827.4,158.8,832,162.4,837.1,162.1z"/>
				</g>
			</g>
			<g class="st7">
				<path class="st8" d="M907.1,99.3c0.3,0.4,0.2,0.9-0.2,1.2c-0.7,0.5-1.5,1.1-2.2,1.7c-0.4,0.3-0.9,0.3-1.2-0.1l0,0
					c-0.3-0.4-0.3-0.9,0.1-1.2c0.7-0.6,1.5-1.2,2.3-1.8C906.3,98.8,906.7,98.9,907.1,99.3C907,99.2,907.1,99.2,907.1,99.3z
					 M901.5,105.2c-0.6,0.7-1.2,1.4-1.7,2.1c-0.3,0.4-0.8,0.4-1.2,0.2c-0.4-0.3-0.4-0.8-0.2-1.2c0.6-0.8,1.2-1.5,1.8-2.2
					c0.3-0.3,0.8-0.4,1.2-0.1c0,0,0,0,0.1,0.1C901.8,104.4,901.8,104.9,901.5,105.2z M897.3,111.1c-0.4,0.8-0.9,1.6-1.2,2.5
					c-0.2,0.4-0.7,0.6-1.1,0.4c-0.4-0.2-0.6-0.7-0.4-1.1c0.4-0.9,0.8-1.7,1.3-2.6c0.2-0.4,0.7-0.6,1.2-0.3c0.1,0,0.2,0.1,0.2,0.2
					C897.4,110.3,897.5,110.7,897.3,111.1z M894.5,117.7c-0.3,0.9-0.5,1.8-0.7,2.7c-0.1,0.5-0.5,0.8-1,0.7c-0.5-0.1-0.8-0.5-0.7-1
					c0.2-0.9,0.4-1.9,0.7-2.8c0.1-0.5,0.6-0.7,1-0.6c0.2,0,0.3,0.1,0.4,0.3C894.5,117.1,894.6,117.4,894.5,117.7z M893.3,124.8
					c-0.1,0.9-0.1,1.8,0,2.7c0,0.5-0.4,0.9-0.8,0.9c-0.5,0-0.9-0.4-0.9-0.8c0-1,0-1.9,0.1-2.9c0-0.5,0.4-0.8,0.9-0.8
					c0.2,0,0.4,0.1,0.6,0.3C893.2,124.3,893.3,124.5,893.3,124.8z M893.7,131.9c0.1,0.9,0.3,1.8,0.6,2.7c0.1,0.5-0.2,0.9-0.6,1
					c-0.5,0.1-0.9-0.2-1-0.6c-0.2-0.9-0.4-1.9-0.6-2.8c-0.1-0.5,0.2-0.9,0.7-1c0.3,0,0.6,0.1,0.8,0.3
					C893.6,131.6,893.6,131.8,893.7,131.9z M912.5,157.1c-0.2,0.4-0.7,0.6-1.1,0.4c-0.9-0.4-1.7-0.8-2.6-1.3
					c-0.4-0.2-0.6-0.7-0.3-1.2s0.7-0.6,1.2-0.3c0.8,0.4,1.6,0.9,2.4,1.2c0.1,0,0.2,0.1,0.3,0.2C912.6,156.5,912.7,156.8,912.5,157.1
					z M895.6,138.9c0.3,0.8,0.7,1.7,1.1,2.5c0.2,0.4,0,0.9-0.4,1.1s-0.9,0-1.1-0.4c-0.4-0.9-0.8-1.7-1.2-2.6c-0.2-0.4,0-0.9,0.5-1.1
					c0.3-0.1,0.7,0,1,0.2C895.5,138.7,895.6,138.8,895.6,138.9z M906.1,153.5c-0.3,0.4-0.8,0.4-1.2,0.2c-0.8-0.6-1.5-1.2-2.2-1.8
					c-0.3-0.3-0.4-0.8-0.1-1.2c0.3-0.3,0.8-0.4,1.2-0.1c0.7,0.6,1.4,1.2,2.1,1.8l0.1,0.1C906.3,152.7,906.3,153.2,906.1,153.5z
					 M899.1,145.2c0.5,0.7,1.1,1.5,1.7,2.2c0.3,0.4,0.3,0.9-0.1,1.2c-0.4,0.3-0.9,0.3-1.2-0.1l0,0c-0.6-0.7-1.2-1.5-1.8-2.3
					c-0.3-0.4-0.2-0.9,0.2-1.2C898.2,144.7,898.7,144.8,899.1,145.2C899,145.1,899,145.1,899.1,145.2z"/>
				<path class="st8" d="M918,158.2c-0.1-0.1-0.3-0.2-0.4-0.3c-0.4-0.1-0.9-0.2-1.3-0.3c-0.5-0.1-0.9,0.1-1,0.6s0.1,0.9,0.6,1
					s0.9,0.2,1.3,0.4c0.5,0.1,0.9-0.2,1-0.6C918.3,158.6,918.2,158.4,918,158.2z"/>
			</g>
			<g class="st7">
				<path class="st8" d="M943.5,154.1c-0.3-0.3-0.7-0.4-1.1-0.2c-0.4,0.2-0.7,0.5-1.1,0.7c-0.4,0.2-0.5,0.7-0.3,1.2
					c0.2,0.4,0.7,0.5,1.2,0.3c0.4-0.2,0.8-0.5,1.2-0.7s0.5-0.8,0.3-1.2C943.6,154.2,943.5,154.2,943.5,154.1z"/>
				<path class="st8" d="M951.9,105.8c0.3,0.4,0.2,0.9-0.1,1.2c-0.4,0.3-0.9,0.2-1.2-0.1c-0.6-0.7-1.1-1.4-1.8-2
					c-0.3-0.3-0.3-0.9,0-1.2c0.3-0.3,0.9-0.3,1.2,0s0.5,0.6,0.8,0.9C951.2,104.9,951.6,105.3,951.9,105.8z M946.8,101.6
					c-0.3,0.4-0.8,0.4-1.2,0.1c-0.7-0.6-1.4-1.1-2.2-1.6c-0.4-0.3-0.5-0.8-0.2-1.2c0.3-0.4,0.8-0.5,1.2-0.2c0.8,0.5,1.5,1.1,2.3,1.7
					l0.1,0.1C947.1,100.9,947.1,101.3,946.8,101.6z M954.5,109.6c0.5,0.8,0.9,1.7,1.3,2.5c0.2,0.4,0,0.9-0.4,1.1s-0.9,0-1.1-0.4
					c-0.4-0.8-0.8-1.6-1.3-2.4c-0.2-0.4-0.1-0.9,0.3-1.2c0.4-0.2,0.8-0.1,1.1,0.2C954.5,109.5,954.5,109.5,954.5,109.6z M940.8,97.6
					c-0.2,0.4-0.7,0.6-1.1,0.4c-0.8-0.4-1.6-0.8-2.5-1.1c-0.4-0.2-0.6-0.7-0.5-1.1c0.2-0.4,0.7-0.6,1.1-0.5c0.9,0.3,1.7,0.7,2.6,1.2
					c0.1,0,0.2,0.1,0.3,0.2C940.9,96.9,941,97.2,940.8,97.6z M957.6,116.3c0.3,0.9,0.5,1.8,0.8,2.7c0.1,0.5-0.2,0.9-0.6,1
					c-0.5,0.1-0.9-0.2-1-0.6c-0.2-0.9-0.4-1.7-0.7-2.6c-0.1-0.4,0.1-0.9,0.5-1.1c0.3-0.1,0.7,0,0.9,0.2
					C957.5,116.1,957.5,116.2,957.6,116.3z M959.1,123.6c0.1,0.9,0.1,1.9,0.1,2.8c0,0.5-0.4,0.8-0.8,0.9c-0.5,0-0.8-0.4-0.9-0.8
					c0-0.9,0-1.8-0.1-2.7c0-0.5,0.3-0.9,0.8-0.9c0.3,0,0.5,0.1,0.7,0.3C959,123.3,959,123.5,959.1,123.6z M958.9,131.1
					c-0.1,0.9-0.3,1.9-0.5,2.8c-0.1,0.5-0.5,0.7-1,0.6c-0.5-0.1-0.7-0.5-0.6-1c0.2-0.9,0.3-1.8,0.5-2.7c0.1-0.5,0.5-0.8,1-0.7
					c0.2,0,0.4,0.1,0.5,0.3C958.9,130.6,958.9,130.8,958.9,131.1z M957.2,138.3c-0.3,0.9-0.7,1.8-1.1,2.6c-0.2,0.4-0.7,0.6-1.1,0.4
					c-0.4-0.2-0.6-0.7-0.4-1.1c0.4-0.8,0.7-1.7,1-2.5c0.2-0.4,0.6-0.7,1.1-0.5c0.1,0,0.3,0.1,0.3,0.2
					C957.2,137.7,957.3,138,957.2,138.3z M953.8,145c-0.5,0.8-1.1,1.6-1.6,2.3c-0.3,0.4-0.8,0.4-1.2,0.2c-0.4-0.3-0.4-0.8-0.2-1.2
					c0.5-0.7,1.1-1.5,1.6-2.2c0.2-0.4,0.8-0.5,1.2-0.3c0.1,0,0.1,0.1,0.2,0.2C954,144.3,954.1,144.7,953.8,145z M949.2,150.8
					c-0.5,0.5-1,1-1.5,1.4c-0.2,0.2-0.4,0.3-0.6,0.5c-0.4,0.3-0.9,0.3-1.2-0.1c-0.3-0.4-0.3-0.9,0.1-1.2c0.2-0.2,0.4-0.3,0.5-0.5
					c0.5-0.4,1-0.9,1.5-1.4c0.3-0.3,0.9-0.3,1.2,0l0,0C949.5,150,949.5,150.5,949.2,150.8z"/>
				<path class="st8" d="M933.8,94.1c-0.1-0.1-0.3-0.2-0.4-0.3c-0.4-0.1-0.9-0.2-1.4-0.3c-0.5-0.1-0.9,0.2-1,0.7s0.2,0.9,0.7,1
					c0.4,0.1,0.9,0.2,1.3,0.3c0.5,0.1,0.9-0.2,1-0.6C934.1,94.6,934,94.3,933.8,94.1z"/>
			</g>
			<g>
				<path class="st8" d="M921.4,101.7c-0.2,0-0.3,0.1-0.4,0.3l-1.4,4.6c-2.2,0.6-4.3,1.5-6.2,2.8l-4.4-2c-0.2-0.1-0.3,0-0.5,0.1
					l-3.9,4.2c-0.1,0.1-0.1,0.3-0.1,0.5l2.3,4.3c-1.2,2-1.9,4.2-2.4,6.4l-4.5,1.7c-0.2,0.1-0.3,0.2-0.3,0.4l0.2,5.8
					c0,0.2,0.1,0.3,0.3,0.4l4.6,1.4c0.6,2.2,1.5,4.3,2.8,6.2l-2,4.4c-0.1,0.2,0,0.3,0.1,0.5l4.2,3.9c0.1,0.1,0.3,0.1,0.5,0.1
					l4.3-2.3c2,1.2,4.2,1.9,6.4,2.4l1.7,4.5c0.1,0.2,0.2,0.3,0.4,0.3l5.8-0.2c0.2,0,0.3-0.1,0.4-0.3l1.4-4.6
					c2.2-0.6,4.3-1.5,6.2-2.8l4.4,2c0.2,0.1,0.3,0,0.5-0.1l3.9-4.2c0.1-0.1,0.1-0.3,0.1-0.5l-2.3-4.3c1.2-2,1.9-4.2,2.4-6.4l4.5-1.7
					c0.2-0.1,0.3-0.2,0.3-0.4l-0.2-5.8c0-0.2-0.1-0.3-0.3-0.4l-4.6-1.4c-0.6-2.2-1.5-4.3-2.8-6.2l2-4.4c0.1-0.2,0-0.3-0.1-0.5
					l-4.2-3.9c-0.1-0.1-0.3-0.1-0.5-0.1l-4.3,2.3c-2-1.2-4.2-1.9-6.4-2.4l-1.7-4.5c-0.1-0.2-0.2-0.3-0.4-0.3L921.4,101.7z"/>
				<g>
					<path class="st9" d="M930.1,123.8c1.7,2.7,1,6.3-1.7,8c-1.3,0.8-2.9,1.1-4.4,0.8s-2.8-1.2-3.7-2.5c-1.7-2.7-1-6.3,1.7-8
						c2.5-1.6,5.7-1.1,7.5,1.1C929.7,123.3,929.9,123.5,930.1,123.8z M924.2,131.3c1.2,0.2,2.4,0,3.4-0.6c2.1-1.3,2.7-4.1,1.3-6.2
						c-1.3-2.1-4.1-2.7-6.2-1.3c-2.1,1.3-2.7,4.1-1.3,6.2c0.1,0.2,0.3,0.4,0.4,0.5C922.5,130.6,923.3,131.1,924.2,131.3z"/>
				</g>
				<g>
					<path class="st9" d="M936,117.6c-0.3-0.4-0.7-0.7-1-1.1l0,0c-0.1-0.1-0.2-0.2-0.3-0.3c-0.6-0.5-1.2-1-1.8-1.4l0,0
						c0,0,0,0-0.1,0l-0.1-0.1c-0.1-0.1-0.3-0.1-0.4,0c0,0,0,0-0.1,0.1c-0.1,0.2,0,0.4,0.1,0.5c0.8,0.5,1.6,1.1,2.3,1.7
						c3.5,3.3,4.9,8,4.1,12.5c-0.5,2.5-1.6,4.8-3.4,6.8c-0.3,0.3-0.7,0.7-1,1c-2.3,2.1-5.3,3.2-8.5,3.3c-3.6,0.1-7.1-1.2-9.7-3.7
						c-5.5-5.1-5.8-13.7-0.7-19.2c0.3-0.3,0.6-0.7,1-1c1.5-1.3,3.3-2.3,5.2-2.8c0,0,0.1,0,0.1-0.1c0.1-0.1,0.1-0.2,0.1-0.3
						c-0.1-0.2-0.2-0.3-0.4-0.2c-2,0.6-3.9,1.6-5.4,3c-0.4,0.3-0.7,0.7-1,1c-5.4,5.8-5.1,14.8,0.7,20.2c2.8,2.6,6.4,4,10.2,3.8
						c3.3-0.1,6.4-1.3,8.9-3.5c0.4-0.3,0.7-0.7,1.1-1c2.6-2.8,4-6.4,3.8-10.2C939.3,123.2,938.1,120.1,936,117.6z"/>
				</g>
			</g>
			<g class="st7">
				<path class="st8" d="M904.8,62.7c-0.1-0.2-0.4-0.2-0.6-0.1c-0.4,0.2-0.8,0.4-1.2,0.6c-0.3,0.1-0.3,0.5-0.2,0.7
					c0.1,0.3,0.5,0.3,0.7,0.2c0.4-0.2,0.8-0.4,1.1-0.6C904.9,63.4,905,63.1,904.8,62.7C904.9,62.8,904.8,62.8,904.8,62.7z"/>
				<path class="st8" d="M901.3,64.8c0.2,0.2,0.1,0.6-0.1,0.7c-0.6,0.4-1.2,0.9-1.7,1.4c-0.1,0.1-0.2,0.2-0.3,0.3
					c-0.2,0.2-0.5,0.2-0.7,0s-0.2-0.5,0-0.7c0.1-0.1,0.2-0.2,0.4-0.3c0.6-0.5,1.2-1,1.8-1.4C900.8,64.5,901.1,64.6,901.3,64.8
					L901.3,64.8z M897.3,69.1c-0.6,0.7-1.1,1.4-1.6,2.1c-0.2,0.2-0.5,0.3-0.7,0.1c-0.2-0.2-0.3-0.5-0.1-0.7c0.5-0.8,1.1-1.5,1.7-2.2
					c0.2-0.2,0.5-0.2,0.7-0.1c0,0,0,0,0.1,0.1C897.5,68.6,897.5,68.9,897.3,69.1z M894.4,73.5c-0.4,0.8-0.7,1.6-1,2.4
					c-0.1,0.3-0.4,0.4-0.7,0.3s-0.4-0.4-0.3-0.7c0.3-0.9,0.7-1.7,1.1-2.6c0.1-0.3,0.4-0.4,0.7-0.2c0.1,0,0.1,0.1,0.2,0.1
					C894.4,73.1,894.5,73.3,894.4,73.5z M892.6,78.5c-0.2,0.9-0.3,1.7-0.4,2.6c0,0.3-0.3,0.5-0.6,0.5s-0.5-0.3-0.5-0.6
					c0.1-0.9,0.2-1.8,0.4-2.7c0.1-0.3,0.3-0.5,0.6-0.4c0.1,0,0.2,0.1,0.3,0.2C892.6,78.2,892.7,78.4,892.6,78.5z M892.1,83.8
					c0,0.9,0.1,1.8,0.2,2.6c0,0.3-0.2,0.6-0.4,0.6c-0.3,0-0.6-0.2-0.6-0.4c-0.1-0.9-0.2-1.8-0.3-2.8c0-0.3,0.2-0.5,0.5-0.5
					c0.2,0,0.3,0.1,0.4,0.2C892.1,83.6,892.1,83.7,892.1,83.8z M893,89c0.2,0.8,0.5,1.7,0.9,2.5c0.1,0.3,0,0.6-0.3,0.7
					s-0.6,0-0.7-0.3c-0.4-0.8-0.7-1.7-0.9-2.6c-0.1-0.3,0.1-0.6,0.4-0.6c0.2-0.1,0.4,0,0.5,0.2C892.9,88.9,892.9,89,893,89z
					 M895,93.9c0.4,0.8,0.9,1.5,1.5,2.2c0.2,0.2,0.1,0.6-0.1,0.7c-0.2,0.2-0.6,0.1-0.7-0.1c-0.6-0.7-1.1-1.5-1.5-2.3
					c-0.1-0.2-0.1-0.6,0.2-0.7C894.5,93.6,894.8,93.7,895,93.9L895,93.9z M900.3,100.7c-0.2,0.2-0.5,0.3-0.7,0.1
					c-0.6-0.5-1.2-1-1.8-1.6c-0.1-0.1-0.2-0.2-0.3-0.3c-0.2-0.2-0.2-0.5,0-0.7s0.5-0.2,0.7,0c0.1,0.1,0.2,0.2,0.2,0.2
					c0.5,0.5,1.1,1.1,1.7,1.5c0,0,0,0,0.1,0.1C900.4,100.2,900.4,100.5,900.3,100.7z"/>
			</g>
			<g class="st7">
				<path class="st8" d="M930.9,68.5c0.6,0.7,1.1,1.4,1.6,2.2c0.2,0.2,0.1,0.6-0.1,0.7c-0.2,0.2-0.6,0.1-0.7-0.1
					c-0.5-0.7-1-1.4-1.6-2.1c-0.2-0.2-0.2-0.5,0.1-0.7C930.4,68.2,930.7,68.3,930.9,68.5L930.9,68.5z M929,67.2
					c-0.2,0.2-0.5,0.2-0.7,0c-0.6-0.6-1.3-1.1-2-1.7c-0.2-0.2-0.3-0.5-0.1-0.7s0.5-0.3,0.7-0.1c0.7,0.5,1.5,1.1,2.1,1.7l0,0
					C929.2,66.7,929.2,67.1,929,67.2z M933.9,73c0.4,0.8,0.8,1.7,1.1,2.5c0.1,0.3,0,0.6-0.3,0.7s-0.6,0-0.7-0.3
					c-0.3-0.8-0.6-1.6-1-2.4c-0.1-0.3,0-0.6,0.2-0.7s0.5,0,0.6,0.1C933.8,73,933.9,73,933.9,73z M924.7,64c-0.1,0.3-0.5,0.3-0.7,0.2
					c-0.8-0.4-1.6-0.8-2.4-1.1c-0.3-0.1-0.4-0.4-0.3-0.7c0.1-0.3,0.4-0.4,0.7-0.3c0.8,0.3,1.7,0.7,2.5,1.2c0.1,0,0.1,0.1,0.1,0.1
					C924.8,63.6,924.9,63.8,924.7,64z M935.7,78.2c0.2,0.9,0.3,1.8,0.4,2.7c0,0.3-0.2,0.5-0.5,0.6s-0.5-0.2-0.6-0.5
					c-0.1-0.9-0.2-1.7-0.4-2.6c-0.1-0.3,0.1-0.6,0.4-0.6c0.2,0,0.4,0,0.5,0.2C935.7,78,935.7,78.1,935.7,78.2z M936.3,83.6
					c0,0.9-0.1,1.8-0.2,2.7c0,0.3-0.3,0.5-0.6,0.4c-0.3,0-0.5-0.3-0.4-0.6c0.1-0.9,0.2-1.7,0.2-2.6c0-0.3,0.2-0.5,0.5-0.5
					c0.2,0,0.3,0.1,0.4,0.2C936.2,83.4,936.3,83.5,936.3,83.6z M935.5,89.1c-0.2,0.9-0.5,1.8-0.9,2.6c-0.1,0.3-0.4,0.4-0.7,0.3
					s-0.4-0.4-0.3-0.7c0.3-0.8,0.6-1.6,0.8-2.5c0.1-0.3,0.4-0.4,0.6-0.4c0.1,0,0.2,0.1,0.3,0.2C935.5,88.7,935.5,88.9,935.5,89.1z"
					/>
				<path class="st8" d="M919.7,61.4c-0.1-0.1-0.2-0.1-0.3-0.2c-0.4-0.1-0.9-0.2-1.3-0.3c-0.3-0.1-0.6,0.1-0.6,0.4
					c-0.1,0.3,0.1,0.6,0.4,0.6c0.4,0.1,0.8,0.2,1.2,0.3c0.3,0.1,0.6-0.1,0.6-0.4C919.9,61.7,919.8,61.6,919.7,61.4z"/>
			</g>
			<g>
				<path class="st8" d="M911,66.3c-0.1,0-0.2,0.1-0.2,0.2l-0.9,3.1c-1.5,0.4-2.9,1-4.1,1.9l-2.9-1.3c-0.1,0-0.2,0-0.3,0.1l-2.6,2.8
					c-0.1,0.1-0.1,0.2,0,0.3l1.5,2.8c-0.8,1.3-1.3,2.8-1.6,4.3l-3,1.2c-0.1,0-0.2,0.1-0.2,0.3l0.1,3.9c0,0.1,0.1,0.2,0.2,0.2
					l3.1,0.9c0.4,1.5,1,2.9,1.9,4.1l-1.3,2.9c0,0.1,0,0.2,0.1,0.3l2.8,2.6c0.1,0.1,0.2,0.1,0.3,0l2.8-1.5c1.3,0.8,2.8,1.3,4.3,1.6
					l1.2,3c0,0.1,0.1,0.2,0.3,0.2l3.9-0.1c0.1,0,0.2-0.1,0.2-0.2l0.9-3.1c1.5-0.4,2.9-1,4.1-1.9l2.9,1.3c0.1,0,0.2,0,0.3-0.1
					l2.6-2.8c0.1-0.1,0.1-0.2,0-0.3l-1.5-2.8c0.8-1.3,1.3-2.8,1.6-4.3l3-1.2c0.1,0,0.2-0.1,0.2-0.3l-0.1-3.9c0-0.1-0.1-0.2-0.2-0.2
					l-3.1-0.9c-0.4-1.5-1-2.9-1.9-4.1l1.3-2.9c0-0.1,0-0.2-0.1-0.3l-2.8-2.6c-0.1-0.1-0.2-0.1-0.3,0l-2.8,1.5
					c-1.3-0.8-2.8-1.3-4.3-1.6l-1.2-3c0-0.1-0.1-0.2-0.3-0.2L911,66.3z"/>
				<g>
					<path class="st9" d="M916.9,81.1c0.6,0.9,0.8,1.9,0.5,3c-0.2,1-0.8,1.9-1.7,2.5c-1.8,1.2-4.3,0.7-5.5-1.2
						c-1.2-1.8-0.7-4.3,1.2-5.5c0.9-0.6,1.9-0.8,3-0.5c0.8,0.2,1.6,0.6,2.1,1.3C916.6,80.8,916.8,80.9,916.9,81.1z M915.1,85.7
						c0.7-0.4,1.1-1.1,1.3-1.8c0.2-0.8,0-1.5-0.4-2.2l0,0c-0.4-0.7-1.1-1.1-1.8-1.3c-0.8-0.2-1.5,0-2.2,0.4c-1.3,0.9-1.7,2.7-0.9,4
						c0.1,0.1,0.2,0.2,0.3,0.3C912.3,86.2,913.9,86.5,915.1,85.7z"/>
				</g>
				<g>
					<path class="st9" d="M921,76.8c-0.2-0.2-0.5-0.5-0.7-0.7c-0.5-0.5-1-0.9-1.6-1.2c0,0,0,0-0.1,0c-0.2-0.1-0.4-0.1-0.6,0.1
						l-0.1,0.1c-0.1,0.2-0.1,0.6,0.2,0.7c0.5,0.3,1,0.7,1.5,1.1l0,0c0,0,0,0,0.1,0.1c1.1,1,1.9,2.3,2.3,3.7c0.2,0.7,0.4,1.5,0.4,2.3
						l0,0c0,0,0,0,0,0.1c0.1,2.4-0.8,4.6-2.4,6.3c-0.2,0.2-0.4,0.4-0.7,0.6c-1.5,1.3-3.4,2.1-5.5,2.2c-2.4,0.1-4.6-0.8-6.3-2.4
						s-2.7-3.8-2.8-6.1c-0.1-2.4,0.8-4.6,2.4-6.3c0.2-0.2,0.4-0.4,0.6-0.6c1-0.8,2.1-1.5,3.4-1.8c0.1,0,0.1-0.1,0.2-0.1
						c0.1-0.1,0.2-0.3,0.2-0.5c-0.1-0.3-0.4-0.4-0.6-0.4c-1.4,0.4-2.7,1.1-3.8,2c-0.2,0.2-0.5,0.5-0.7,0.7c-1.8,1.9-2.7,4.4-2.6,7.1
						c0.1,2.6,1.2,5.1,3.1,6.9c1.9,1.8,4.4,2.7,7.1,2.6c2.3-0.1,4.4-0.9,6.1-2.4c0.2-0.2,0.5-0.5,0.7-0.7
						C924.2,86.3,924.2,80.6,921,76.8z"/>
				</g>
			</g>
			<g class="st7">
				<path class="st8" d="M855.7,245.9c0-0.4-0.3-0.8-0.7-0.8c-0.4-0.1-0.9-0.2-1.3-0.2c-0.5-0.1-0.9,0.2-1,0.7s0.2,0.9,0.7,1
					s0.9,0.2,1.4,0.3s0.9-0.2,1-0.7C855.6,246,855.7,246,855.7,245.9z"/>
				<path class="st8" d="M894,215.3c0,0.5-0.4,0.8-0.9,0.8s-0.8-0.4-0.8-0.9c0-0.9,0.1-1.8,0-2.7c0-0.5,0.4-0.9,0.8-0.9
					s0.9,0.4,0.9,0.8c0,0.4,0,0.8,0,1.2C894.1,214.2,894.1,214.8,894,215.3z M892.9,208.8c-0.5,0.1-0.9-0.2-1-0.7
					c-0.1-0.9-0.3-1.8-0.5-2.6c-0.1-0.5,0.2-0.9,0.6-1c0.5-0.1,0.9,0.2,1,0.6c0.2,0.9,0.4,1.8,0.6,2.8v0.1
					C893.6,208.4,893.3,208.8,892.9,208.8z M893.5,219.9c-0.2,0.9-0.4,1.9-0.7,2.8c-0.1,0.5-0.6,0.7-1,0.6c-0.5-0.1-0.7-0.6-0.6-1
					c0.2-0.9,0.5-1.7,0.6-2.6c0.1-0.5,0.5-0.8,1-0.7C893.2,219.1,893.5,219.4,893.5,219.9C893.5,219.8,893.5,219.8,893.5,219.9z
					 M891.1,201.8c-0.4,0.2-0.9,0-1.1-0.5c-0.3-0.8-0.7-1.7-1.1-2.5c-0.2-0.4,0-0.9,0.4-1.1s0.9,0,1.1,0.4c0.4,0.8,0.8,1.7,1.2,2.6
					c0,0.1,0.1,0.2,0.1,0.3C891.7,201.4,891.5,201.7,891.1,201.8z M891.2,227c-0.4,0.9-0.8,1.7-1.2,2.5c-0.2,0.4-0.7,0.6-1.1,0.3
					c-0.4-0.2-0.6-0.7-0.3-1.1c0.4-0.8,0.8-1.6,1.2-2.4c0.2-0.4,0.7-0.6,1.1-0.4c0.3,0.1,0.5,0.5,0.5,0.8
					C891.3,226.8,891.3,226.9,891.2,227z M887.5,233.4c-0.6,0.8-1.2,1.5-1.8,2.2c-0.3,0.4-0.8,0.4-1.2,0.1c-0.4-0.3-0.4-0.8-0.1-1.2
					c0.6-0.7,1.2-1.4,1.7-2.1c0.3-0.4,0.8-0.5,1.2-0.2c0.2,0.2,0.3,0.4,0.3,0.7C887.7,233.1,887.6,233.3,887.5,233.4z M882.5,238.9
					c-0.7,0.6-1.5,1.2-2.2,1.8c-0.4,0.3-0.9,0.2-1.2-0.2s-0.2-0.9,0.2-1.2c0.7-0.5,1.4-1.1,2.1-1.7c0.4-0.3,0.9-0.3,1.2,0.1
					c0.1,0.2,0.2,0.4,0.2,0.6C882.8,238.5,882.7,238.7,882.5,238.9z M876.3,243.2c-0.8,0.5-1.7,0.9-2.6,1.2c-0.4,0.2-0.9,0-1.1-0.4
					c-0.2-0.4,0-0.9,0.4-1.1c0.8-0.4,1.6-0.8,2.4-1.2c0.4-0.2,0.9-0.1,1.1,0.3c0.1,0.1,0.1,0.3,0.1,0.4
					C876.8,242.7,876.6,243,876.3,243.2z M869.4,246c-0.9,0.3-1.8,0.5-2.8,0.7c-0.5,0.1-0.9-0.2-1-0.7s0.2-0.9,0.7-1
					c0.9-0.2,1.8-0.4,2.6-0.6c0.5-0.1,0.9,0.1,1,0.6c0,0.1,0,0.2,0,0.2C870.1,245.5,869.8,245.9,869.4,246z M862.1,247.2
					c-0.7,0-1.4,0.1-2.1,0c-0.2,0-0.5,0-0.7,0c-0.5,0-0.8-0.4-0.8-0.9s0.4-0.8,0.9-0.8c0.2,0,0.5,0,0.7,0c0.7,0,1.3,0,2,0
					c0.5,0,0.9,0.3,0.9,0.8c0,0,0,0,0,0.1C862.9,246.8,862.6,247.2,862.1,247.2z"/>
				<path class="st8" d="M888.2,194.6c0-0.2,0-0.3-0.2-0.5c-0.3-0.4-0.5-0.8-0.8-1.1c-0.3-0.4-0.8-0.4-1.2-0.2
					c-0.4,0.3-0.4,0.8-0.2,1.2c0.3,0.4,0.5,0.7,0.8,1.1c0.3,0.4,0.8,0.5,1.2,0.2C888.1,195.2,888.2,194.9,888.2,194.6z"/>
			</g>
			<g class="st7">
				<path class="st8" d="M490.8,210.2c0.4,0.2,0.8,0,1.1-0.3c0.2-0.4,0.5-0.8,0.7-1.1c0.3-0.4,0.2-0.9-0.2-1.2
					c-0.4-0.3-0.9-0.2-1.2,0.2c-0.3,0.4-0.5,0.8-0.8,1.2s-0.1,0.9,0.3,1.2C490.7,210.2,490.8,210.2,490.8,210.2z"/>
				<path class="st8" d="M504.7,258.6c-0.4-0.2-0.6-0.7-0.4-1.2c0.2-0.4,0.7-0.6,1.2-0.4c0.8,0.4,1.7,0.8,2.5,1.1
					c0.4,0.2,0.7,0.7,0.5,1.1c-0.2,0.5-0.7,0.7-1.1,0.5c-0.4-0.1-0.8-0.3-1.1-0.5C505.8,259.1,505.3,258.9,504.7,258.6z
					 M511.3,260.1c0.1-0.5,0.6-0.8,1-0.6c0.9,0.2,1.8,0.4,2.7,0.5c0.5,0.1,0.8,0.5,0.7,1s-0.5,0.8-1,0.7c-1-0.1-1.9-0.3-2.9-0.5
					c-0.1,0-0.1,0-0.1,0C511.4,261,511.2,260.6,511.3,260.1z M500.6,256.3c-0.8-0.5-1.6-1.1-2.4-1.7c-0.4-0.3-0.4-0.8-0.1-1.2
					s0.8-0.4,1.2-0.1c0.7,0.6,1.5,1.1,2.2,1.6c0.4,0.3,0.5,0.8,0.2,1.2c-0.2,0.4-0.7,0.5-1.1,0.3
					C500.7,256.3,500.7,256.3,500.6,256.3z M518.7,261.2c0-0.5,0.4-0.9,0.9-0.9c0.9,0,1.9,0,2.8-0.1c0.5,0,0.9,0.3,0.9,0.8
					s-0.3,0.9-0.8,0.9c-1,0.1-1.9,0.1-2.9,0.1c-0.1,0-0.2,0-0.3-0.1C518.9,261.9,518.7,261.6,518.7,261.2z M494.8,251.4
					c-0.7-0.7-1.3-1.4-1.9-2.2c-0.3-0.4-0.2-0.9,0.1-1.2c0.4-0.3,0.9-0.2,1.2,0.1c0.6,0.7,1.2,1.4,1.8,2.1c0.3,0.3,0.3,0.9,0,1.2
					s-0.6,0.3-0.9,0.2C495,251.5,494.9,251.5,494.8,251.4z M490.1,245.3c-0.5-0.8-1-1.7-1.4-2.6c-0.2-0.4,0-1,0.4-1.2s1,0,1.2,0.4
					c0.4,0.8,0.9,1.6,1.3,2.4c0.3,0.4,0.1,0.9-0.3,1.2c-0.3,0.2-0.5,0.2-0.8,0.1C490.4,245.6,490.2,245.5,490.1,245.3z M486.9,238.4
					c-0.3-0.9-0.6-1.9-0.8-2.8c-0.1-0.5,0.2-0.9,0.6-1.1c0.5-0.1,0.9,0.2,1.1,0.6c0.2,0.9,0.5,1.8,0.8,2.7c0.2,0.5-0.1,0.9-0.6,1.1
					c-0.2,0.1-0.4,0.1-0.6,0C487.2,238.8,487,238.6,486.9,238.4z M485.3,230.9c-0.1-1-0.2-1.9-0.2-2.9c0-0.5,0.4-0.9,0.9-0.9
					s0.9,0.4,0.9,0.9c0,0.9,0.1,1.8,0.2,2.8c0.1,0.5-0.3,0.9-0.8,1c-0.2,0-0.3,0-0.4-0.1C485.6,231.5,485.3,231.2,485.3,230.9z
					 M485.4,223.3c0.1-1,0.3-1.9,0.5-2.9c0.1-0.5,0.6-0.8,1-0.7c0.5,0.1,0.8,0.6,0.7,1c-0.2,0.9-0.3,1.8-0.4,2.7
					c-0.1,0.5-0.5,0.8-1,0.8c-0.1,0-0.2,0-0.2-0.1C485.5,224,485.3,223.7,485.4,223.3z M487.1,215.8c0.2-0.7,0.5-1.3,0.8-2
					c0.1-0.2,0.2-0.5,0.3-0.7c0.2-0.4,0.7-0.6,1.2-0.4c0.4,0.2,0.6,0.7,0.4,1.2c-0.1,0.2-0.2,0.4-0.3,0.7c-0.3,0.6-0.5,1.3-0.7,1.9
					c-0.2,0.5-0.7,0.7-1.1,0.5c0,0,0,0-0.1,0C487.2,216.7,487,216.3,487.1,215.8z"/>
				<path class="st8" d="M526.6,261.3c0.2,0.1,0.3,0.1,0.5,0.1c0.5-0.1,0.9-0.2,1.4-0.3c0.5-0.1,0.7-0.6,0.6-1.1
					c-0.1-0.5-0.6-0.7-1.1-0.6c-0.4,0.1-0.9,0.2-1.3,0.3c-0.5,0.1-0.8,0.6-0.7,1C526.2,260.9,526.4,261.2,526.6,261.3z"/>
			</g>
			<g class="st7">
				<path class="st8" d="M885.2,22c0.4-0.2,0.5-0.6,0.4-1s-0.3-0.8-0.4-1.2c-0.1-0.4-0.6-0.7-1.1-0.6c-0.4,0.1-0.7,0.6-0.6,1.1
					c0.1,0.4,0.3,0.9,0.4,1.3c0.2,0.4,0.6,0.7,1.1,0.5C885.1,22.1,885.2,22.1,885.2,22z"/>
				<path class="st8" d="M930.7,40.5c-0.4,0.2-0.9,0-1.1-0.4c-0.2-0.4,0-0.9,0.4-1.1c0.8-0.4,1.6-0.8,2.4-1.3
					c0.4-0.2,0.9-0.1,1.2,0.3s0.1,0.9-0.3,1.2c-0.3,0.2-0.7,0.4-1,0.6C931.7,40,931.2,40.3,930.7,40.5z M935.8,36.4
					c-0.3-0.4-0.2-0.9,0.1-1.2c0.7-0.6,1.4-1.2,2-1.8c0.3-0.3,0.9-0.3,1.2,0s0.3,0.9,0,1.2c-0.7,0.6-1.4,1.3-2.1,1.9l-0.1,0.1
					C936.5,36.8,936.1,36.8,935.8,36.4z M926.4,42.3c-0.9,0.3-1.8,0.6-2.7,0.8c-0.5,0.1-0.9-0.2-1-0.6c-0.1-0.5,0.2-0.9,0.6-1
					c0.9-0.2,1.7-0.5,2.6-0.7c0.4-0.1,0.9,0.1,1.1,0.5c0.1,0.4,0,0.8-0.4,1C926.5,42.3,926.5,42.3,926.4,42.3z M941.1,31.4
					c-0.4-0.3-0.4-0.8-0.1-1.2c0.6-0.7,1.1-1.4,1.6-2.2c0.3-0.4,0.8-0.5,1.2-0.2s0.5,0.8,0.2,1.2c-0.5,0.8-1.1,1.6-1.7,2.3
					c-0.1,0.1-0.2,0.2-0.3,0.2C941.7,31.7,941.3,31.7,941.1,31.4z M919.1,43.8c-0.9,0.1-1.9,0.1-2.8,0.2c-0.5,0-0.9-0.4-0.9-0.8
					c0-0.5,0.4-0.9,0.8-0.9c0.9,0,1.8-0.1,2.7-0.1c0.5,0,0.9,0.3,0.9,0.8c0,0.3-0.1,0.7-0.4,0.8C919.4,43.8,919.3,43.8,919.1,43.8z
					 M911.7,43.7c-0.9-0.1-1.9-0.3-2.8-0.5c-0.5-0.1-0.7-0.5-0.7-1c0.1-0.5,0.5-0.7,1-0.7c0.9,0.2,1.8,0.3,2.7,0.4
					c0.5,0.1,0.8,0.5,0.7,0.9c0,0.3-0.2,0.5-0.4,0.6C912.1,43.7,911.9,43.7,911.7,43.7z M904.5,42c-0.9-0.3-1.8-0.7-2.6-1.1
					c-0.4-0.2-0.6-0.7-0.4-1.1s0.7-0.6,1.1-0.4c0.8,0.4,1.7,0.7,2.5,1c0.4,0.2,0.7,0.6,0.5,1.1c-0.1,0.2-0.2,0.4-0.4,0.5
					C904.9,42.1,904.7,42.1,904.5,42z M897.8,38.7c-0.8-0.5-1.6-1-2.3-1.6c-0.4-0.3-0.4-0.8-0.2-1.2c0.3-0.4,0.8-0.4,1.2-0.2
					c0.7,0.5,1.5,1.1,2.2,1.5c0.4,0.2,0.5,0.8,0.3,1.2c-0.1,0.1-0.2,0.2-0.3,0.3C898.4,38.9,898,38.9,897.8,38.7z M891.9,34.1
					c-0.7-0.7-1.3-1.4-1.9-2.1c-0.3-0.4-0.3-0.9,0.1-1.2c0.4-0.3,0.9-0.3,1.2,0.1c0.6,0.7,1.2,1.4,1.8,2c0.3,0.3,0.3,0.9,0,1.2
					c-0.1,0.1-0.1,0.1-0.2,0.1C892.6,34.4,892.2,34.4,891.9,34.1z M887.3,28.3c-0.4-0.6-0.7-1.2-1.1-1.8c-0.1-0.2-0.2-0.4-0.4-0.7
					c-0.2-0.4-0.1-0.9,0.4-1.1c0.4-0.2,0.9-0.1,1.1,0.4c0.1,0.2,0.2,0.4,0.3,0.6c0.3,0.6,0.7,1.2,1,1.7c0.2,0.4,0.1,0.9-0.3,1.2l0,0
					C888,28.8,887.5,28.7,887.3,28.3z"/>
				<path class="st8" d="M945.9,25.4c0.1-0.1,0.3-0.2,0.4-0.4c0.2-0.4,0.4-0.8,0.6-1.3c0.2-0.4,0-0.9-0.4-1.1s-0.9,0-1.1,0.4
					c-0.2,0.4-0.4,0.8-0.6,1.2c-0.2,0.4,0,0.9,0.4,1.1C945.4,25.5,945.7,25.5,945.9,25.4z"/>
			</g>
			<g class="st7">
				<path class="st8" d="M502.4,81.7c-0.4-0.2-0.8,0-1.1,0.3c-0.2,0.4-0.5,0.8-0.8,1.1c-0.3,0.4-0.2,0.9,0.2,1.2
					c0.4,0.3,0.9,0.2,1.2-0.2c0.3-0.4,0.5-0.8,0.8-1.2C503,82.5,502.9,82,502.4,81.7C502.5,81.7,502.5,81.7,502.4,81.7z"/>
				<path class="st8" d="M489.5,33c0.4,0.2,0.6,0.7,0.4,1.2c-0.2,0.4-0.7,0.6-1.2,0.4c-0.8-0.4-1.7-0.8-2.5-1.1
					c-0.4-0.2-0.7-0.7-0.5-1.1s0.7-0.7,1.1-0.5s0.7,0.3,1.1,0.5C488.5,32.5,489,32.7,489.5,33z M483,31.3c-0.1,0.5-0.6,0.7-1.1,0.6
					c-0.9-0.2-1.8-0.4-2.7-0.6c-0.5-0.1-0.8-0.5-0.7-1s0.5-0.8,1-0.7c1,0.2,1.9,0.4,2.9,0.6c0.1,0,0.1,0,0.1,0.1
					C482.9,30.5,483.1,30.9,483,31.3z M493.6,35.4c0.8,0.6,1.6,1.1,2.3,1.8c0.4,0.3,0.4,0.9,0.1,1.2c-0.3,0.4-0.9,0.4-1.2,0.1
					c-0.7-0.6-1.5-1.2-2.2-1.7c-0.4-0.3-0.5-0.8-0.2-1.2c0.2-0.4,0.7-0.5,1.1-0.3C493.5,35.3,493.5,35.4,493.6,35.4z M475.6,30.1
					c0,0.5-0.4,0.9-0.9,0.8c-0.9,0-1.9,0-2.8,0c-0.5,0-0.9-0.3-0.9-0.8s0.3-0.9,0.8-0.9c1-0.1,1.9-0.1,2.9,0c0.1,0,0.2,0,0.3,0.1
					C475.4,29.4,475.6,29.8,475.6,30.1z M499.3,40.4c0.7,0.7,1.3,1.5,1.9,2.2c0.3,0.4,0.2,0.9-0.2,1.2c-0.4,0.3-0.9,0.2-1.2-0.2
					c-0.6-0.7-1.2-1.4-1.8-2.1c-0.3-0.4-0.3-0.9,0.1-1.2c0.3-0.2,0.6-0.3,0.9-0.2C499.1,40.3,499.2,40.3,499.3,40.4z M503.8,46.6
					c0.5,0.8,0.9,1.7,1.4,2.6c0.2,0.4,0,1-0.4,1.2s-1,0-1.2-0.4c-0.4-0.8-0.8-1.7-1.3-2.5c-0.2-0.4-0.1-0.9,0.3-1.2
					c0.3-0.1,0.5-0.2,0.8,0C503.6,46.3,503.7,46.4,503.8,46.6z M506.9,53.6c0.3,0.9,0.5,1.9,0.8,2.8c0.1,0.5-0.2,0.9-0.7,1
					s-0.9-0.2-1-0.7c-0.2-0.9-0.4-1.8-0.7-2.7c-0.1-0.5,0.1-0.9,0.6-1.1c0.2-0.1,0.4-0.1,0.6,0C506.6,53.1,506.8,53.3,506.9,53.6z
					 M508.4,61.1c0.1,1,0.1,1.9,0.1,2.9c0,0.5-0.4,0.9-0.9,0.9s-0.9-0.4-0.9-0.9c0-0.9,0-1.9-0.1-2.8c0-0.5,0.3-0.9,0.8-0.9
					c0.2,0,0.3,0,0.4,0.1C508.1,60.5,508.3,60.8,508.4,61.1z M508.2,68.7c-0.1,1-0.3,1.9-0.5,2.9c-0.1,0.5-0.6,0.8-1,0.7
					c-0.5-0.1-0.8-0.6-0.7-1c0.2-0.9,0.4-1.8,0.5-2.7c0.1-0.5,0.5-0.8,1-0.7c0.1,0,0.2,0,0.2,0.1C508,68,508.2,68.3,508.2,68.7z
					 M506.3,76.1c-0.3,0.7-0.5,1.3-0.8,2c-0.1,0.2-0.2,0.5-0.3,0.7c-0.2,0.4-0.7,0.6-1.2,0.4c-0.4-0.2-0.6-0.7-0.4-1.2
					c0.1-0.2,0.2-0.4,0.3-0.7c0.3-0.6,0.5-1.3,0.8-1.9c0.2-0.5,0.7-0.7,1.1-0.5c0,0,0,0,0.1,0C506.2,75.2,506.4,75.7,506.3,76.1z"/>
				<path class="st8" d="M467.6,29.9c-0.2-0.1-0.3-0.1-0.5-0.1c-0.5,0.1-0.9,0.2-1.4,0.3c-0.5,0.1-0.8,0.6-0.6,1
					c0.1,0.5,0.6,0.8,1,0.6c0.4-0.1,0.9-0.2,1.3-0.3c0.5-0.1,0.8-0.6,0.7-1C468.1,30.2,467.9,30,467.6,29.9z"/>
			</g>
			<g class="st7">
				<path class="st8" d="M204.1,5c0.4,0.1,0.8-0.2,0.9-0.6c0.1-0.4,0.3-0.9,0.4-1.3c0.2-0.5-0.1-1-0.5-1.1s-1,0.1-1.1,0.5
					c-0.2,0.5-0.3,0.9-0.4,1.4c-0.1,0.5,0.1,0.9,0.6,1.1C204,5,204,5,204.1,5z"/>
				<path class="st8" d="M230.2,48c-0.5-0.1-0.8-0.5-0.7-1s0.5-0.8,1-0.7c0.9,0.2,1.8,0.3,2.7,0.4c0.5,0,0.8,0.5,0.8,1
					c-0.1,0.5-0.5,0.8-1,0.8c-0.4,0-0.8-0.1-1.2-0.1C231.4,48.2,230.8,48.1,230.2,48z M237,47.8c0-0.5,0.4-0.9,0.8-0.9
					c0.9,0,1.9-0.1,2.8-0.2c0.5-0.1,0.9,0.3,1,0.8s-0.3,0.9-0.8,1c-1,0.1-1.9,0.2-2.9,0.2c-0.1,0-0.1,0-0.2,0
					C237.3,48.5,237,48.2,237,47.8z M225.7,46.9c-0.9-0.3-1.8-0.7-2.7-1c-0.4-0.2-0.6-0.7-0.5-1.1c0.2-0.4,0.7-0.6,1.1-0.5
					c0.8,0.4,1.7,0.7,2.6,1c0.5,0.2,0.7,0.6,0.6,1.1c-0.1,0.4-0.5,0.6-0.9,0.6C225.8,46.9,225.7,46.9,225.7,46.9z M244.4,46.9
					c-0.1-0.5,0.2-0.9,0.6-1.1c0.9-0.2,1.8-0.5,2.6-0.8c0.5-0.2,1,0.1,1.1,0.5c0.2,0.5-0.1,1-0.5,1.1c-0.9,0.3-1.9,0.6-2.8,0.9
					c-0.1,0-0.2,0-0.3,0C244.8,47.5,244.5,47.2,244.4,46.9z M218.7,43.7c-0.8-0.5-1.6-1-2.4-1.6c-0.4-0.3-0.5-0.8-0.2-1.2
					s0.8-0.5,1.2-0.2c0.7,0.5,1.5,1.1,2.3,1.5c0.4,0.3,0.5,0.8,0.3,1.2c-0.2,0.3-0.5,0.5-0.9,0.4C218.9,43.8,218.8,43.7,218.7,43.7z
					 M212.6,39c-0.7-0.7-1.4-1.4-2-2.1c-0.3-0.4-0.3-0.9,0.1-1.2c0.4-0.3,0.9-0.3,1.2,0.1c0.6,0.7,1.3,1.4,1.9,2
					c0.4,0.3,0.4,0.9,0,1.2c-0.2,0.2-0.5,0.3-0.7,0.3C212.9,39.3,212.8,39.2,212.6,39z M207.7,33.2c-0.5-0.8-1.1-1.6-1.5-2.5
					c-0.2-0.4-0.1-1,0.3-1.2s1-0.1,1.2,0.3c0.4,0.8,0.9,1.6,1.4,2.4c0.3,0.4,0.2,0.9-0.2,1.2c-0.2,0.1-0.4,0.2-0.6,0.1
					C208.1,33.5,207.9,33.4,207.7,33.2z M204.2,26.4c-0.4-0.9-0.7-1.8-0.9-2.8c-0.1-0.5,0.1-0.9,0.6-1.1c0.5-0.1,0.9,0.1,1.1,0.6
					c0.3,0.9,0.6,1.8,0.9,2.6c0.2,0.5-0.1,1-0.5,1.1c-0.1,0.1-0.3,0.1-0.4,0.1C204.6,26.9,204.3,26.7,204.2,26.4z M202.2,19
					c-0.1-1-0.2-1.9-0.3-2.9c0-0.5,0.3-0.9,0.8-0.9s0.9,0.3,0.9,0.8c0.1,0.9,0.2,1.8,0.3,2.8c0.1,0.5-0.3,0.9-0.7,1
					c-0.1,0-0.2,0-0.2,0C202.6,19.7,202.3,19.4,202.2,19z M201.9,11.4c0.1-0.7,0.1-1.4,0.2-2.1c0-0.3,0.1-0.5,0.1-0.8
					c0.1-0.5,0.5-0.8,1-0.7c0.5,0.1,0.8,0.5,0.7,1c0,0.2-0.1,0.5-0.1,0.7c-0.1,0.7-0.2,1.4-0.2,2c0,0.5-0.5,0.8-0.9,0.8
					c0,0,0,0-0.1,0C202.2,12.3,201.9,11.8,201.9,11.4z"/>
				<path class="st8" d="M252.1,44.8c0.2,0,0.4,0,0.5-0.1c0.4-0.2,0.8-0.4,1.3-0.7c0.4-0.2,0.6-0.8,0.3-1.2
					c-0.2-0.4-0.8-0.6-1.2-0.3c-0.4,0.2-0.8,0.4-1.2,0.7c-0.4,0.2-0.6,0.7-0.4,1.2C251.5,44.6,251.8,44.8,252.1,44.8z"/>
			</g>
			<g>
				<g>
					<path class="st9" d="M597.8,233.5c-0.3-0.4-0.7-0.7-1-1.1l0,0c-0.1-0.1-0.2-0.2-0.3-0.3c-0.6-0.5-1.2-1-1.8-1.4l0,0
						c0,0,0,0-0.1,0l-0.1-0.1c-0.1-0.1-0.3-0.1-0.4,0c0,0,0,0-0.1,0.1c-0.1,0.2,0,0.4,0.1,0.5c0.8,0.5,1.6,1.1,2.3,1.7
						c3.5,3.3,4.9,8,4.1,12.5c-0.5,2.5-1.6,4.8-3.4,6.8c-0.3,0.3-0.7,0.7-1,1c-2.3,2.1-5.3,3.2-8.5,3.3c-3.6,0.1-7.1-1.2-9.7-3.7
						c-5.5-5.1-5.8-13.7-0.7-19.2c0.3-0.3,0.6-0.7,1-1c1.5-1.3,3.3-2.3,5.2-2.8c0,0,0.1,0,0.1-0.1c0.1-0.1,0.1-0.2,0.1-0.3
						c-0.1-0.2-0.2-0.3-0.4-0.2c-2,0.6-3.9,1.6-5.4,3c-0.4,0.3-0.7,0.7-1,1c-5.4,5.8-5.1,14.8,0.7,20.2c2.8,2.6,6.4,4,10.2,3.8
						c3.3-0.1,6.4-1.3,8.9-3.5c0.4-0.3,0.7-0.7,1.1-1c2.6-2.8,4-6.4,3.8-10.2C601.2,239,600,235.9,597.8,233.5z"/>
				</g>
				<g>
					<path class="st9" d="M583.5,49.2c-0.3-0.4-0.7-0.7-1-1.1l0,0c-0.1-0.1-0.2-0.2-0.3-0.3c-0.6-0.5-1.2-1-1.8-1.4l0,0
						c0,0,0,0-0.1,0l-0.1-0.1c-0.1-0.1-0.3-0.1-0.4,0c0,0,0,0-0.1,0.1c-0.1,0.2,0,0.4,0.1,0.5c0.8,0.5,1.6,1.1,2.3,1.7
						c3.5,3.3,4.9,8,4.1,12.5c-0.5,2.5-1.6,4.8-3.4,6.8c-0.3,0.3-0.7,0.7-1,1c-2.3,2.1-5.3,3.2-8.5,3.3c-3.6,0.1-7.1-1.2-9.7-3.7
						c-5.5-5.1-5.8-13.7-0.7-19.2c0.3-0.3,0.6-0.7,1-1c1.5-1.3,3.3-2.3,5.2-2.8c0,0,0.1,0,0.1-0.1c0.1-0.1,0.1-0.2,0.1-0.3
						c-0.1-0.2-0.2-0.3-0.4-0.2c-2,0.6-3.9,1.6-5.4,3c-0.4,0.3-0.7,0.7-1,1c-5.4,5.8-5.1,14.8,0.7,20.2c2.8,2.6,6.4,4,10.2,3.8
						c3.3-0.1,6.4-1.3,8.9-3.5c0.4-0.3,0.7-0.7,1.1-1c2.6-2.8,4-6.4,3.8-10.2C586.9,54.8,585.7,51.7,583.5,49.2z"/>
				</g>
			</g>
			
				<linearGradient id="SVGID_00000150093319119823287450000014308546430649741990_" gradientUnits="userSpaceOnUse" x1="201.6072" y1="501.6889" x2="444.584" y2="340.8575" gradientTransform="matrix(1 0 0 1 0 -252)">
				<stop  offset="0" style="stop-color:#09005D"/>
				<stop  offset="1" style="stop-color:#1A0F91"/>
			</linearGradient>
			<path style="fill:url(#SVGID_00000150093319119823287450000014308546430649741990_);" d="M133,285.1c0,2.5,2.1,4.6,4.6,4.6h246.9
				c2.5,0,4.6-2.1,4.6-4.6l2.1-141.9c0-2.5-3-7.4-8.4-7L141.5,130c-3.2-0.1-6.2,1.1-8.4,3.4s-3.5,5.3-3.4,8.4L133,285.1z"/>
			<path class="st11" d="M137.5,280.7c0,2.4,1.9,4.3,4.3,4.3h236.7c2.4,0,4.3-1.9,4.3-4.3l1.9-128.8c-0.2-7.8-7-10.5-11.1-10.4
				l-231.3-6.2c-2.2-0.1-4.4,0.8-5.9,2.4c-1.6,1.6-2.4,3.7-2.4,5.9L137.5,280.7z"/>
			<path class="st8" d="M144.1,275.6c0,2.1,1.8,3.9,4,3.9h220c2.2,0,4-1.8,4-3.9l1.8-116.5c-0.2-7-6.5-9.5-10.4-9.4l-215-5.6
				c-2.1-0.1-4,0.7-5.5,2.1c-1.5,1.4-2.3,3.3-2.2,5.4L144.1,275.6z"/>
			<g>
				
					<linearGradient id="SVGID_00000157297537758249118630000006731155784953513350_" gradientUnits="userSpaceOnUse" x1="379.714" y1="449.25" x2="381.1332" y2="449.25" gradientTransform="matrix(1 0 0 1 0 -252)">
					<stop  offset="0" style="stop-color:#DAE3FE"/>
					<stop  offset="1" style="stop-color:#E9EFFD"/>
				</linearGradient>
				<path style="fill:url(#SVGID_00000157297537758249118630000006731155784953513350_);" d="M380.3,201.8L380.3,201.8
					c-0.4,0-0.6-0.2-0.6-0.5l0.2-8.1c0-0.3,0.3-0.5,0.6-0.5l0,0c0.4,0,0.6,0.2,0.6,0.5l-0.2,8.1C381,201.6,380.7,201.8,380.3,201.8z
					"/>
				
					<linearGradient id="SVGID_00000026847008841110079460000007038080718868607420_" gradientUnits="userSpaceOnUse" x1="296.9887" y1="414" x2="381.9887" y2="414" gradientTransform="matrix(1 0 0 1 0 -252)">
					<stop  offset="0" style="stop-color:#DAE3FE"/>
					<stop  offset="1" style="stop-color:#E9EFFD"/>
				</linearGradient>
				<path style="fill:url(#SVGID_00000026847008841110079460000007038080718868607420_);" d="M380.7,182L380.7,182
					c-0.4,0-0.6-0.2-0.6-0.5l0.6-30.9c0-1.8-0.7-3.3-2.1-4.3c-2.6-1.9-6.8-1.8-7-1.8l-73.9-1.5c-0.4,0-0.6-0.2-0.6-0.5
					s0.3-0.5,0.7-0.5l73.9,1.5c0.5,0,4.9-0.1,7.9,2.1c1.7,1.2,2.5,2.9,2.5,5.1l-0.6,30.9C381.4,181.8,381.1,182,380.7,182z"/>
			</g>
			
				<linearGradient id="SVGID_00000150076440638735829600000013264667955893650331_" gradientUnits="userSpaceOnUse" x1="257.521" y1="535.9448" x2="213.3228" y2="349.3297" gradientTransform="matrix(1 0 0 1 0 -252)">
				<stop  offset="0" style="stop-color:#09005D"/>
				<stop  offset="1" style="stop-color:#1A0F91"/>
			</linearGradient>
			<path style="fill:url(#SVGID_00000150076440638735829600000013264667955893650331_);" d="M123.6,299.9h272.8
				c0.3,0,0.6-0.3,0.6-0.6v-9.8c0-0.3-0.3-0.6-0.6-0.6H123.6c-0.3,0-0.6,0.3-0.6,0.6v9.8C123,299.6,123.2,299.9,123.6,299.9z"/>
			<g>
				<path class="st15" d="M286,238.9c-3,9.9-12.2,17.1-23,17.1c-13.2,0-24-10.8-24-24c0-7.3,3.3-13.8,8.4-18.2l-1-10
					c-9.6,5.7-16.1,16.2-16.1,28.2c0,18.1,14.7,32.8,32.7,32.8c11.4,0,21.5-5.9,27.4-14.8L286,238.9z"/>
			</g>
			<path class="st15" d="M300.9,254.8c-0.5,0-1.1-0.1-1.6-0.3c-1.1-0.4-2-1.5-2.5-2.6l-11.1-28.1h-28.1c-2.2,0-4.1-1.5-4.3-3.7
				l-3.9-38.1c-0.2-2.4,1.5-4.5,3.9-4.7s4.5,1.6,4.8,4l3.5,34.4h27.1c1.8,0,3.4,1,4.1,2.7l10.5,26.3l8.4-4c2.2-1,4.8-0.1,5.8,2.1
				s0.1,4.8-2.1,5.8l-12.6,5.9C302.2,254.7,301.5,254.8,300.9,254.8z"/>
			<g>
				<path class="st15" d="M281.7,207.5h-25.8c-2.4,0-4.4-1.9-4.4-4.3c0-2.4,2-4.3,4.4-4.3h25.8c2.4,0,4.4,1.9,4.4,4.3
					S284.1,207.5,281.7,207.5z"/>
			</g>
			<circle class="st15" cx="256.7" cy="176.5" r="9.4"/>
			
				<linearGradient id="SVGID_00000125573778724176287940000005359633772389184642_" gradientUnits="userSpaceOnUse" x1="776.7616" y1="411.3146" x2="689.8097" y2="550.4376" gradientTransform="matrix(-1 0 0 1 1673.3853 -252)">
				<stop  offset="0" style="stop-color:#09005D"/>
				<stop  offset="1" style="stop-color:#1A0F91"/>
			</linearGradient>
			<path style="fill:url(#SVGID_00000125573778724176287940000005359633772389184642_);" d="M986.9,176.5
				c0.5,20.7,2.2,91.9,1.4,117.2c-0.1,2.7-2.3,4.8-5.1,4.9c-13.6,0.4-52.9,1.5-75.2,0.6c-4.6-0.2-8.3-3.8-8.4-8.4
				c-0.5-21.7-1.5-82.7,0.9-110.6c0.3-3.3,3-6,6.4-6.3c14.9-1.4,54.3-5,73.6-3.7C984.1,170.4,986.9,173.1,986.9,176.5z"/>
			<path class="st11" d="M981.4,182.9c0.7,16.9,3.1,73.2,2.3,94c-0.1,3-2.6,5.5-5.7,5.7c-12.9,0.7-46,2.3-64.9,0.9
				c-3.4-0.3-6.1-2.9-6.3-6.2c-1-17.3-3.7-69.7-3-90.3c0.1-3.3,2.7-6,6.1-6.3c14-1.2,49.8-4.1,65.9-3.3
				C978.9,177.7,981.3,180,981.4,182.9z"/>
			<path class="st8" d="M979.6,185.9c0.7,16,2.9,69,2.2,88.6c-0.1,2.9-2.4,5.2-5.4,5.4c-12.2,0.7-43.5,2.2-61.3,0.8
				c-3.2-0.2-5.7-2.8-5.9-5.9c-0.9-16.3-3.5-65.7-2.8-85.1c0.1-3.1,2.6-5.6,5.8-5.9c13.2-1.1,47.1-3.9,62.3-3.1
				C977.2,180.9,979.5,183.1,979.6,185.9z"/>
			<path class="st4" d="M953.2,173.8L953.2,173.8c0,0.6-0.5,1.2-1.2,1.2c-3.2,0.2-12.3,0.6-16.4,0.9c-0.8,0-1.4-0.7-1.3-1.4v-0.1
				c0.1-0.5,0.5-0.9,1.1-1c2.7-0.2,11-0.9,16.5-0.7C952.7,172.6,953.2,173.1,953.2,173.8z"/>
			<path class="st15" d="M960.3,208l-2-1.7c-0.5-0.4-1.3-0.4-1.7,0.1l-32.2,34.1c-0.5,0.5-0.4,1.2,0.1,1.6l2.1,1.7
				c0.5,0.4,1.3,0.3,1.8-0.1l32.1-34.1C960.8,209.1,960.8,208.4,960.3,208z"/>
			<g>
				<path class="st15" d="M945.6,213.2v1.2l-18,19.2h-2.8c-1.1,0-2-0.5-2-1.6v-13.8c0-1.1,0.9-2.1,2-2.1h8.2v0.1
					c3.4-1.6,6.7-3.2,10-4.9c0.6-0.3,1.3-0.3,1.9,0.1C945.4,211.8,945.6,212.5,945.6,213.2z"/>
				<path class="st15" d="M938.1,236.6l7.5-8v8.5c0,0.7-0.2,1.3-0.8,1.7s-1.3,0.4-1.9,0.1C941.3,238.1,939.7,237.3,938.1,236.6z"/>
				<g>
					<path class="st15" d="M959.9,225.6c0,4.6-1.7,8.9-4.5,12.1c-0.6,0.7-1.6,0.7-2.2,0.1l-0.1-0.1c-0.5-0.6-0.6-1.4-0.1-2
						c2.3-2.7,3.8-6.2,3.8-10.1c0-2.5-0.6-4.9-1.7-7l2.2-2.4C959,219,959.9,222.2,959.9,225.6z"/>
					<path class="st15" d="M954.8,225.6c0,3.2-1.1,6.1-3,8.4c-0.6,0.7-1.6,0.7-2.2,0.1l0,0c-0.5-0.5-0.6-1.4-0.1-2
						c1.4-1.8,2.3-4,2.3-6.5c0-1-0.1-2-0.4-2.9l2.3-2.5C954.4,221.9,954.8,223.7,954.8,225.6z"/>
				</g>
			</g>
			<g>
				
					<linearGradient id="SVGID_00000134208577624908128350000003050843439232245651_" gradientUnits="userSpaceOnUse" x1="767.2844" y1="480.6394" x2="846.1619" y2="625.3518" gradientTransform="matrix(-1 0 0 1 1673.3853 -252)">
					<stop  offset="0" style="stop-color:#09005D"/>
					<stop  offset="1" style="stop-color:#1A0F91"/>
				</linearGradient>
				<path style="fill:url(#SVGID_00000134208577624908128350000003050843439232245651_);" d="M913.8,218.6
					c0.3,13.8,1.3,61.6,0.8,78.5c0,1.8-1.3,3.2-2.9,3.3c-7.8,0.3-30.3,1-43,0.4c-2.7-0.1-4.8-2.6-4.8-5.6
					c-0.3-14.5-0.9-55.4,0.5-74.1c0.2-2.2,1.7-4,3.7-4.2c8.5-1,31.1-3.3,42.1-2.5C912.2,214.4,913.7,216.3,913.8,218.6z"/>
				<path class="st11" d="M910.6,222.9c0.4,11.3,1.8,49,1.3,63c-0.1,2-1.5,3.7-3.3,3.8c-7.4,0.5-26.3,1.6-37.2,0.6
					c-2-0.2-3.5-2-3.6-4.2c-0.5-11.6-2.1-46.7-1.7-60.4c0.1-2.2,1.6-4,3.5-4.2c8-0.8,28.5-2.7,37.7-2.2
					C909.2,219.3,910.5,220.9,910.6,222.9z"/>
				<path class="st8" d="M909.1,225.3c0.4,10.5,1.6,45.5,1.2,58.4c-0.1,1.9-1.4,3.4-3,3.5c-6.9,0.5-24.4,1.5-34.5,0.5
					c-1.8-0.2-3.2-1.8-3.3-3.9c-0.5-10.7-2-43.3-1.6-56.1c0.1-2,1.5-3.7,3.2-3.9c7.4-0.8,26.4-2.5,35-2
					C907.7,222,909,223.5,909.1,225.3z"/>
				<path class="st4" d="M894.5,216.7L894.5,216.7c0,0.4-0.3,0.8-0.7,0.8c-1.8,0.1-7,0.4-9.4,0.6c-0.5,0-0.8-0.4-0.7-0.9v-0.1
					c0.1-0.3,0.3-0.6,0.6-0.6c1.6-0.2,6.3-0.6,9.4-0.5C894.2,215.9,894.5,216.3,894.5,216.7z"/>
			</g>
			<g>
				<path class="st15" d="M894.9,249.4l-3.2,3.6c0.2,0.5,0.3,1.1,0.3,1.7c0.1,3.4-2.6,6.2-6.1,6.3c-0.4,0-0.8,0-1.2-0.1l-1.3,1.5
					c0.8,0.1,1.7,0.1,2.6,0.1c6.3-0.2,11.7-3.4,14.7-8.1C899.2,252.3,897.2,250.6,894.9,249.4z M885.5,248.6c0.3,0,0.6,0,0.9,0
					l1.3-1.5c-0.8-0.1-1.5-0.1-2.3-0.1c-6.4,0.1-11.9,3.3-15,8.1c1.5,2,3.5,3.8,5.8,5l3.3-3.8c-0.1-0.5-0.2-1-0.2-1.5
					C879.3,251.5,882,248.7,885.5,248.6z"/>
			</g>
			<path class="st15" d="M897.7,242.4l-1.5-1.1c-0.4-0.3-0.9-0.2-1.2,0.1l-21.8,24.7c-0.3,0.4-0.3,0.9,0.1,1.1l1.5,1.1
				c0.4,0.3,0.9,0.2,1.2-0.1l21.7-24.7C898.1,243.1,898.1,242.6,897.7,242.4z"/>
			
				<linearGradient id="SVGID_00000167357470922129435420000000555586570000691371_" gradientUnits="userSpaceOnUse" x1="872.8764" y1="423.7895" x2="983.2905" y2="303.7322" gradientTransform="matrix(1 0 0 1 0 -252)">
				<stop  offset="0" style="stop-color:#E1473D"/>
				<stop  offset="1" style="stop-color:#E9605A"/>
			</linearGradient>
			<path style="fill:url(#SVGID_00000167357470922129435420000000555586570000691371_);" d="M956.1,45.4
				c-12.7,3.9-25.1,13.8-23.4,26.4c1.5,10.7,15.7,13.9,24.3,15c2.4,0.3,4.6,1.4,6.2,3c3.7,3.9,11.8,10.3,20.5,6
				c0.6-0.3,0.4-1.2-0.4-1.1c-2.3,0.1-5.7-0.2-7.9-2.1c-3.1-2.6-2-7.1,2-8.5c7.5-2.6,21.7-9.8,19.9-26.1
				C994.9,36,956.1,45.4,956.1,45.4z"/>
			<path class="st15" d="M963.9,63c0,0,0.6-7.4,9.1-6.2c8.1,1.2,5.5,10.7-5.9,16.7c-1.2,0.7-2.8,0.8-4.1,0.3
				c-5-1.8-16.6-7.1-10.2-14.3C957,54.8,963.9,63,963.9,63z"/>
			<path class="st19" d="M959.1,62.7c-0.1,0-0.2,0-0.3-0.1c-0.4-0.2-0.6-0.6-0.4-0.9c4.7-9.6,16.1-13.9,24.7-15.8
				c0.4-0.1,0.9,0.1,1,0.5s-0.2,0.8-0.6,0.9c-8.3,1.8-19.1,5.9-23.6,15C959.7,62.5,959.4,62.7,959.1,62.7z"/>
			<path class="st19" d="M957.2,72.5c-0.4,0-0.7-0.2-0.8-0.6c0-0.1-0.2-1.4,0-3.6c0-0.4,0.4-0.7,0.9-0.6c0.5,0,0.8,0.4,0.7,0.8
				c-0.2,2,0,3.2,0,3.2c0.1,0.4-0.2,0.7-0.7,0.8C957.3,72.5,957.2,72.5,957.2,72.5z"/>
			
				<linearGradient id="SVGID_00000093149782556327363180000003360640780381977263_" gradientUnits="userSpaceOnUse" x1="-1854.5635" y1="408.0107" x2="-1880.2634" y2="408.0107" gradientTransform="matrix(1 0 0 1 2851.8945 -252)">
				<stop  offset="0" style="stop-color:#FEBBBA"/>
				<stop  offset="1" style="stop-color:#FF928E"/>
			</linearGradient>
			<path style="fill:url(#SVGID_00000093149782556327363180000003360640780381977263_);" d="M971.6,151.1c0,0,9.5,22,15.4,19.1
				s10.3-27.2,10.3-27.2S975.6,136.5,971.6,151.1z"/>
			<g>
				
					<linearGradient id="SVGID_00000105395240636723436780000008828750277009669042_" gradientUnits="userSpaceOnUse" x1="1578.2554" y1="500.5551" x2="1578.8052" y2="561.0245" gradientTransform="matrix(-1 0 0 1 2571.1929 -252)">
					<stop  offset="0" style="stop-color:#4F52FF"/>
					<stop  offset="1" style="stop-color:#4042E2"/>
				</linearGradient>
				<path style="fill:url(#SVGID_00000105395240636723436780000008828750277009669042_);" d="M1004.9,287.9c0,0,0.8,4.5,1.2,9
					c0.2,1.7-1.2,3.3-3,3.3c-6,0.2-18.7,0.7-23.3,0.5c-0.7,0-1.1-0.7-0.9-1.4c0.2-0.5,0.6-1,1.1-1.2l21.1-9.7L1004.9,287.9z"/>
				
					<linearGradient id="SVGID_00000177471464851164353850000016415235853354870969_" gradientUnits="userSpaceOnUse" x1="1565.6672" y1="539.8498" x2="1572.5144" y2="539.8498" gradientTransform="matrix(-1 0 0 1 2571.1929 -252)">
					<stop  offset="0" style="stop-color:#FEBBBA"/>
					<stop  offset="1" style="stop-color:#FF928E"/>
				</linearGradient>
				<path style="fill:url(#SVGID_00000177471464851164353850000016415235853354870969_);" d="M1005.5,285.2l-0.6,5.4
					c0,0-3.7,1.7-6.2-0.2l1.5-6L1005.5,285.2z"/>
				
					<linearGradient id="SVGID_00000084504874549818464880000006042269523105585037_" gradientUnits="userSpaceOnUse" x1="1558.002" y1="565.9033" x2="1562.6755" y2="440.4972" gradientTransform="matrix(-1 0 0 1 2571.1929 -252)">
					<stop  offset="0" style="stop-color:#4F52FF"/>
					<stop  offset="1" style="stop-color:#4042E2"/>
				</linearGradient>
				<path style="fill:url(#SVGID_00000084504874549818464880000006042269523105585037_);" d="M1005,183.6
					c0.3,1.4,1.5,70.5-5.9,101.4c-0.1,0.5,0.1,1,0.6,1.2c1.1,0.5,3.4,1.1,6,1.2c0.8,0,1.6-0.5,1.8-1.3c2.1-7.2,12.2-43.1,13.5-77.5
					c1.5-38.4,0-1.3,0-1.3l-0.9-23.7L1005,183.6z"/>
			</g>
			<g>
				
					<linearGradient id="SVGID_00000023971478882068187370000004191463165597479317_" gradientUnits="userSpaceOnUse" x1="1544.6237" y1="500.8611" x2="1545.1735" y2="561.3303" gradientTransform="matrix(-1 0 0 1 2571.1929 -252)">
					<stop  offset="0" style="stop-color:#4F52FF"/>
					<stop  offset="1" style="stop-color:#4042E2"/>
				</linearGradient>
				<path style="fill:url(#SVGID_00000023971478882068187370000004191463165597479317_);" d="M1029.1,290.2c0,0,1.3,2.3,2.5,8.3
					c0.2,1.1-0.5,2.1-1.7,2.2c-2,0.2-5,0.4-7.4,0.4c-1.1,0-2-1-1.9-2.1c0.3-2.2,1.1-5.8,3.7-8.7L1029.1,290.2z"/>
				
					<linearGradient id="SVGID_00000078765741538014482600000007926863485504669830_" gradientUnits="userSpaceOnUse" x1="1540.9857" y1="539.5458" x2="1546.8999" y2="539.5458" gradientTransform="matrix(-1 0 0 1 2571.1929 -252)">
					<stop  offset="0" style="stop-color:#FEBBBA"/>
					<stop  offset="1" style="stop-color:#FF928E"/>
				</linearGradient>
				<path style="fill:url(#SVGID_00000078765741538014482600000007926863485504669830_);" d="M1030.2,283.3l-1.5,8.2
					c0,0-1.5,1.1-4.4,0.3l0.7-8.8L1030.2,283.3z"/>
				
					<linearGradient id="SVGID_00000068660185742701540470000001425279797083957120_" gradientUnits="userSpaceOnUse" x1="1546.3201" y1="565.468" x2="1550.9937" y2="440.0621" gradientTransform="matrix(-1 0 0 1 2571.1929 -252)">
					<stop  offset="0" style="stop-color:#4F52FF"/>
					<stop  offset="1" style="stop-color:#4042E2"/>
				</linearGradient>
				<path style="fill:url(#SVGID_00000068660185742701540470000001425279797083957120_);" d="M1034.3,185.7c6,36.4-1.3,90-3.8,100.5
					c-0.2,0.6-0.7,1.1-1.3,1.2c-1.1,0.2-2.9,0.3-4.7-0.2c-0.6-0.2-1.1-0.7-1.1-1.4c-0.3-8.5,0.3-60.6-5.4-81.1c-0.3-1-0.9-2-1.8-2.6
					l-10.9-7.8l-0.8-12.5L1034.3,185.7z"/>
			</g>
			
				<linearGradient id="SVGID_00000042006921228060442620000012572775216561156502_" gradientUnits="userSpaceOnUse" x1="-1066.0929" y1="-1139.0806" x2="-1087.6249" y2="-1096.0167" gradientTransform="matrix(1 0 0 1 2851.8945 -252)">
				<stop  offset="0" style="stop-color:#FF928E"/>
				<stop  offset="1" style="stop-color:#FE7062"/>
			</linearGradient>
			<path style="fill:url(#SVGID_00000042006921228060442620000012572775216561156502_);" d="M995.1,118c22-2.2,38.7,3.4,38.7,3.4
				c5.4,31.5,0.9,67.7,0.9,67.7c-14,3.7-29.8-2.2-29.8-2.2c-2.3-13.2-13.2-50.2-13.2-50.2C983,135.7,989.6,118.6,995.1,118z"/>
			
				<linearGradient id="SVGID_00000119799114932952670030000017647404234558400168_" gradientUnits="userSpaceOnUse" x1="1517.6272" y1="409.8713" x2="1563.0928" y2="409.8713" gradientTransform="matrix(-1 0 0 1 2571.1929 -252)">
				<stop  offset="0" style="stop-color:#FEBBBA"/>
				<stop  offset="1" style="stop-color:#FF928E"/>
			</linearGradient>
			<path style="fill:url(#SVGID_00000119799114932952670030000017647404234558400168_);" d="M1010.8,153.3c0,0,22,10.2,27.1,3.8
				c1.4-1.8,1.4-4,1.1-5.8c5.7-2.9,11.1-3.7,14.3-3.9c0.8,4.4-0.2,9.9-3.1,14.4c-10.4,16.4-42.1-3.2-42.1-3.2L1010.8,153.3z"/>
			
				<linearGradient id="SVGID_00000169560320444784224520000000633843831550822562_" gradientUnits="userSpaceOnUse" x1="-1854.9456" y1="370.0271" x2="-1869.5436" y2="404.2764" gradientTransform="matrix(1 0 0 1 2851.8945 -252)">
				<stop  offset="0" style="stop-color:#09005D"/>
				<stop  offset="1" style="stop-color:#1A0F91"/>
			</linearGradient>
			<path style="fill:url(#SVGID_00000169560320444784224520000000633843831550822562_);" d="M1003.5,158.7l-7.8-27.2
				c-0.1-0.3-0.4-0.5-0.7-0.6c-1.4-0.2-5.5-0.6-10.2-1c-5.7-0.5-12.3-0.9-16.3-0.5c-0.6,0-0.9,0.6-0.7,1.1
				c2.2,4.5,11.5,23,16.1,29.1c0.2,0.2,0.4,0.3,0.6,0.3l18.1-0.2C1003.3,159.7,1003.7,159.2,1003.5,158.7z"/>
			
				<linearGradient id="SVGID_00000161592289742195419550000015187059494231582339_" gradientUnits="userSpaceOnUse" x1="1559.7474" y1="406.0988" x2="1573.5387" y2="406.0988" gradientTransform="matrix(-1 0 0 1 2571.1929 -252)">
				<stop  offset="0" style="stop-color:#FEBBBA"/>
				<stop  offset="1" style="stop-color:#FF928E"/>
			</linearGradient>
			<path style="fill:url(#SVGID_00000161592289742195419550000015187059494231582339_);" d="M1010.4,160.2c0,0,1.4-5.9,0.9-8
				c-0.6-2.1-1.7-4.8-5.5-4.2s-8.2,2.2-8.2,2.2s0.2,2.7,3.1,1.9l-1.8,1.4c0,0,0.3,2.2,2.7,1l-1.6,1.8c0,0,1,1.8,2.8,0.6
				C1004.6,155.7,1005.4,161,1010.4,160.2z"/>
			
				<linearGradient id="SVGID_00000067953342241018259020000007063949898402178975_" gradientUnits="userSpaceOnUse" x1="-1838.3622" y1="-564.8325" x2="-1824.5581" y2="-564.8325" gradientTransform="matrix(0.8472 -0.5312 0.5312 0.8472 2825.3586 -351.244)">
				<stop  offset="0" style="stop-color:#FEBBBA"/>
				<stop  offset="1" style="stop-color:#FF928E"/>
			</linearGradient>
			<path style="fill:url(#SVGID_00000067953342241018259020000007063949898402178975_);" d="M972,151.4c0,0-4.4-4.3-5-6.3
				c-0.6-2.1-1.1-5,2.4-6.5s8.1-2.5,8.1-2.5s1.3,2.4-1.6,3.2l2.2,0.2c0,0,1,2-1.7,2.3l2.4,0.7c0,0,0.1,2.1-2,2
				C974.5,144.5,976.6,149.3,972,151.4z"/>
			
				<linearGradient id="SVGID_00000001656069627556412270000000472149916161338507_" gradientUnits="userSpaceOnUse" x1="1553.4933" y1="364.8214" x2="1570.9962" y2="364.8214" gradientTransform="matrix(-1 0 0 1 2571.1929 -252)">
				<stop  offset="0" style="stop-color:#FEBBBA"/>
				<stop  offset="1" style="stop-color:#FF928E"/>
			</linearGradient>
			<path style="fill:url(#SVGID_00000001656069627556412270000000472149916161338507_);" d="M1011.9,103.4l5.8,16.6
				c0.1,0.3,0,0.6-0.3,0.7c-1.6,0.9-7.2,3.4-14-0.9c-0.7-0.5-1.2-1.2-1.3-2l-1.9-14.4L1011.9,103.4L1011.9,103.4z"/>
			
				<linearGradient id="SVGID_00000030481175333244329380000005311731802358970042_" gradientUnits="userSpaceOnUse" x1="-5874.3633" y1="-2162.9275" x2="-5880.9038" y2="-2184.501" gradientTransform="matrix(-0.9296 -0.3685 -0.3685 0.9296 -5260.4409 -47.3442)">
				<stop  offset="0" style="stop-color:#FEBBBA"/>
				<stop  offset="1" style="stop-color:#FF928E"/>
			</linearGradient>
			<path style="fill:url(#SVGID_00000030481175333244329380000005311731802358970042_);" d="M995.8,92.7c0,0-1.8,13.3,0.6,17.6
				c2.4,4.2,9.7,1.2,14.7-4.8l0.1-13.7L995.8,92.7z"/>
			
				<linearGradient id="SVGID_00000000911669650772965310000007268073014279289999_" gradientUnits="userSpaceOnUse" x1="-5880.3706" y1="-2200.4988" x2="-5874.8994" y2="-2169.2913" gradientTransform="matrix(-0.9296 -0.3685 -0.3685 0.9296 -5260.4409 -47.3442)">
				<stop  offset="0" style="stop-color:#09005D"/>
				<stop  offset="1" style="stop-color:#1A0F91"/>
			</linearGradient>
			<path style="fill:url(#SVGID_00000000911669650772965310000007268073014279289999_);" d="M1008.7,99.6c-0.3,0-0.5-0.3-0.4-0.6
				c0.2-0.9,0.6-2.7,0.4-4.1c0,0,0.8-1.1-3.3-0.6s-10.3,1.1-12.6-1.6s-2.2-11.7,5-7.2c0.3,0.2,0.6,0,0.7-0.3c0.4-1.3,1.7-4.2,5.1-4
				c3.2,0.2,4.2,2.1,4.5,3.1c0.1,0.3,0.4,0.4,0.7,0.3c1.3-0.8,4.5-2.2,7.3,0.6c2.3,2.3,2,4.2,1.6,5.2c-0.2,0.3,0.1,0.7,0.5,0.7
				c1-0.1,2.4,0.3,3.1,2.4c0.9,3-2.5,3.9-3.4,4.1c-0.2,0-0.3,0.1-0.4,0.3c-0.5,1.2-2.7,6.2-6.4,8.1c-0.3,0.2-0.7-0.1-0.7-0.4
				l-0.1-5.5c0-0.3-0.2-0.5-0.5-0.5H1008.7z"/>
			
				<linearGradient id="SVGID_00000124851406139120019270000012539204523687568543_" gradientUnits="userSpaceOnUse" x1="-5881.1152" y1="-2163.0078" x2="-5887" y2="-2182.4177" gradientTransform="matrix(-0.9296 -0.3685 -0.3685 0.9296 -5260.4409 -47.3442)">
				<stop  offset="0" style="stop-color:#FEBBBA"/>
				<stop  offset="1" style="stop-color:#FF928E"/>
			</linearGradient>
			<path style="fill:url(#SVGID_00000124851406139120019270000012539204523687568543_);" d="M1008.3,100.6c0,0,3.2-4.4,4.4-2.1
				s-2.5,4.9-4.9,4.8L1008.3,100.6z"/>
			
				<linearGradient id="SVGID_00000096061757487365999300000009791816813351690382_" gradientUnits="userSpaceOnUse" x1="-1049.6921" y1="-1130.8804" x2="-1071.2241" y2="-1087.8165" gradientTransform="matrix(1 0 0 1 2851.8945 -252)">
				<stop  offset="0" style="stop-color:#FF928E"/>
				<stop  offset="1" style="stop-color:#FE7062"/>
			</linearGradient>
			<path style="fill:url(#SVGID_00000096061757487365999300000009791816813351690382_);" d="M1026.9,138.9l6.9-17.5
				c0,0,16.5,11.2,19.6,25.6c0.1,0.2-0.1,0.5-0.4,0.5c-3.3,0.3-8.8,1.2-14.2,3.9C1037.6,144.5,1026.9,138.9,1026.9,138.9z"/>
			
				<linearGradient id="SVGID_00000088112041536452547970000010288240861169757837_" gradientUnits="userSpaceOnUse" x1="676.6949" y1="349.6949" x2="674.2587" y2="351.5589" gradientTransform="matrix(-1 0 0 1 1673.3853 -252)">
				<stop  offset="0" style="stop-color:#09005D"/>
				<stop  offset="1" style="stop-color:#1A0F91"/>
			</linearGradient>
			<path style="fill:url(#SVGID_00000088112041536452547970000010288240861169757837_);" d="M999.5,99.1l0.4-0.5
				c-0.1,0-1.3-1-2.5-0.8c-0.6,0.1-1,0.4-1.4,0.9l0.5,0.4c0.2-0.3,0.6-0.5,0.9-0.6C998.4,98.3,999.5,99.1,999.5,99.1z"/>
			
				<linearGradient id="SVGID_00000009553121149498963420000009826746875886374273_" gradientUnits="userSpaceOnUse" x1="686.7701" y1="338.9813" x2="655.0148" y2="363.279" gradientTransform="matrix(-1 0 0 1 1673.3853 -252)">
				<stop  offset="0" style="stop-color:#09005D"/>
				<stop  offset="1" style="stop-color:#1A0F91"/>
			</linearGradient>
			<path style="fill:url(#SVGID_00000009553121149498963420000009826746875886374273_);" d="M999.3,98.6c0,1.8,1.1,3.2,2.5,3.2
				s2.5-1.4,2.5-3.2c0-1.8-1.1-3.2-2.5-3.2C1000.4,95.4,999.3,96.8,999.3,98.6z"/>
			
				<linearGradient id="SVGID_00000048486949699269111710000013837575480241988750_" gradientUnits="userSpaceOnUse" x1="691.9943" y1="340.4166" x2="664.2912" y2="361.6136" gradientTransform="matrix(-1 0 0 1 1673.3853 -252)">
				<stop  offset="0" style="stop-color:#09005D"/>
				<stop  offset="1" style="stop-color:#1A0F91"/>
			</linearGradient>
			<path style="fill:url(#SVGID_00000048486949699269111710000013837575480241988750_);" d="M992.8,98.6c0,1.8,0.8,3.2,1.9,3.2
				c1,0,1.9-1.4,1.9-3.2c0-1.8-0.8-3.2-1.9-3.2S992.8,96.8,992.8,98.6z"/>
			<path class="st8" d="M790,229.4c-0.1-0.3-0.3-0.6-0.4-0.9c-3.3-6.1-9.6-10-16.5-10h-0.3c-6.9,0-13.3,3.9-16.5,10
				c-0.2,0.3-0.3,0.6-0.4,0.9c-1.2,2.5-1.8,5.2-1.8,8c0,2.9,0.6,5.7,1.9,8.3c0.1,0.3,0.3,0.6,0.5,0.9c3.3,5.9,9.6,9.7,16.3,9.7h0.2
				h0.1c6.8,0,13-3.8,16.3-9.7c0.2-0.3,0.3-0.6,0.5-0.9c1.3-2.6,1.9-5.4,1.9-8.3C791.8,234.6,791.2,232,790,229.4z M773.8,236.5
				v-6.4h8.2c0.6,2,0.9,4.2,1,6.4H773.8z M788.4,230.1c1,2,1.5,4.2,1.6,6.4h-5.3c-0.1-2.2-0.4-4.4-0.9-6.4H788.4z M773.8,228.3v-8
				c3.1,0.5,5.9,3.5,7.6,8H773.8z M783.3,228.3c-0.5-1.5-1.1-2.9-1.9-4.1c-0.6-1-1.3-1.9-2-2.7c3.3,1.4,6.1,3.7,8,6.8H783.3z
				 M773.8,245.1v-6.8h9.1c-0.1,2.4-0.4,4.6-1.1,6.8H773.8z M781.3,246.8c-1.7,4.4-4.5,7.2-7.5,7.6v-7.6H781.3z M779.4,253.2
				c0.7-0.7,1.4-1.6,2-2.6c0.7-1.1,1.3-2.4,1.8-3.8h4C785.3,249.7,782.6,251.9,779.4,253.2z M783.8,245.1c0.6-2.1,0.9-4.4,1-6.8h5.3
				c-0.1,2.4-0.7,4.6-1.8,6.8H783.8z M772,230.1v6.4h-9.1c0.1-2.2,0.4-4.4,1-6.4H772z M772,228.3h-7.6c1.7-4.5,4.5-7.5,7.6-8V228.3z
				 M764.4,224.2c-0.8,1.2-1.4,2.6-1.9,4.1h-4.1c1.9-3,4.7-5.4,8-6.8C765.7,222.3,765.1,223.2,764.4,224.2z M772,246.8v7.6
				c-3-0.5-5.8-3.3-7.5-7.6H772z M772,245.1h-8c-0.6-2.1-1-4.4-1.1-6.8h9.1V245.1z M762,230.1c-0.5,2-0.8,4.2-0.9,6.4h-5.3
				c0.1-2.2,0.7-4.4,1.6-6.4H762z M761.1,238.3c0.1,2.4,0.4,4.6,1,6.8h-4.5c-1.1-2.1-1.7-4.4-1.8-6.8H761.1z M762.7,246.8
				c0.5,1.4,1.1,2.6,1.8,3.8c0.6,1,1.3,1.9,2,2.6c-3.2-1.3-5.9-3.5-7.8-6.4L762.7,246.8L762.7,246.8z"/>
			<path class="st8" d="M839.2,49.8c-0.1-0.3-0.3-0.6-0.4-0.9c-3.3-6.1-9.6-10-16.5-10H822c-6.9,0-13.3,3.9-16.5,10
				c-0.2,0.3-0.3,0.6-0.4,0.9c-1.2,2.5-1.8,5.2-1.8,8c0,2.9,0.6,5.7,1.9,8.3c0.1,0.3,0.3,0.6,0.5,0.9c3.3,5.9,9.6,9.7,16.3,9.7h0.2
				h0.1c6.8,0,13-3.8,16.3-9.7c0.2-0.3,0.3-0.6,0.5-0.9c1.3-2.6,1.9-5.4,1.9-8.3C840.9,55,840.3,52.4,839.2,49.8z M822.9,56.9v-6.4
				h8.2c0.6,2,0.9,4.2,1,6.4H822.9z M837.5,50.5c1,2,1.5,4.2,1.6,6.4h-5.3c-0.1-2.2-0.4-4.4-0.9-6.4H837.5z M822.9,48.7v-8
				c3.1,0.5,5.9,3.5,7.6,8H822.9z M832.4,48.7c-0.5-1.5-1.1-2.9-1.9-4.1c-0.6-1-1.3-1.9-2-2.7c3.3,1.4,6.1,3.7,8,6.8H832.4
				L832.4,48.7z M822.9,65.5v-6.8h9.1c-0.1,2.4-0.4,4.6-1.1,6.8H822.9z M830.4,67.2c-1.7,4.4-4.5,7.2-7.5,7.6v-7.6H830.4z
				 M828.5,73.6c0.7-0.7,1.4-1.6,2-2.6c0.7-1.1,1.3-2.4,1.8-3.8h4C834.4,70.1,831.7,72.3,828.5,73.6z M832.9,65.5
				c0.6-2.1,0.9-4.4,1-6.8h5.3c-0.1,2.4-0.7,4.6-1.8,6.8H832.9z M821.2,50.5v6.4H812c0.1-2.2,0.4-4.4,1-6.4H821.2z M821.2,48.7h-7.6
				c1.7-4.5,4.5-7.5,7.6-8V48.7z M813.6,44.6c-0.7,1.2-1.4,2.6-1.9,4.1h-4.1c1.9-3,4.7-5.4,8-6.8C814.8,42.7,814.2,43.6,813.6,44.6z
				 M821.2,67.2v7.6c-3-0.5-5.8-3.3-7.5-7.6H821.2z M821.2,65.5h-8.1c-0.6-2.1-1-4.4-1.1-6.8h9.1L821.2,65.5L821.2,65.5z
				 M811.1,50.5c-0.5,2-0.8,4.2-0.9,6.4H805c0.1-2.2,0.7-4.4,1.6-6.4H811.1z M810.2,58.7c0.1,2.4,0.4,4.6,1,6.8h-4.5
				c-1.1-2.1-1.7-4.4-1.8-6.8H810.2z M811.8,67.2c0.5,1.4,1.1,2.6,1.8,3.8c0.6,1,1.3,1.9,2,2.6c-3.2-1.3-5.9-3.5-7.8-6.4H811.8z"/>
			<path class="st8" d="M1089.8,51.8c-0.1-0.3-0.3-0.6-0.4-0.9c-3.3-6.1-9.6-10-16.5-10h-0.3c-6.9,0-13.3,3.9-16.5,10
				c-0.2,0.3-0.3,0.6-0.4,0.9c-1.2,2.5-1.8,5.2-1.8,8c0,2.9,0.6,5.7,1.9,8.3c0.1,0.3,0.3,0.6,0.5,0.9c3.3,5.9,9.6,9.7,16.3,9.7h0.2
				h0.1c6.8,0,13-3.8,16.3-9.7c0.2-0.3,0.3-0.6,0.5-0.9c1.3-2.6,1.9-5.4,1.9-8.3C1091.6,57,1091,54.3,1089.8,51.8z M1073.6,58.9
				v-6.4h8.2c0.6,2,0.9,4.2,1,6.4H1073.6z M1088.2,52.5c1,2,1.5,4.2,1.6,6.4h-5.3c-0.1-2.2-0.4-4.4-0.9-6.4H1088.2z M1073.6,50.7v-8
				c3.1,0.5,5.9,3.5,7.6,8H1073.6L1073.6,50.7z M1083.1,50.7c-0.5-1.5-1.1-2.9-1.9-4.1c-0.6-1-1.3-1.9-2-2.7c3.3,1.4,6.1,3.7,8,6.8
				H1083.1L1083.1,50.7z M1073.6,67.4v-6.8h9.1c-0.1,2.4-0.4,4.6-1.1,6.8H1073.6z M1081.1,69.2c-1.7,4.4-4.5,7.2-7.5,7.6v-7.6
				H1081.1z M1079.2,75.6c0.7-0.7,1.4-1.6,2-2.6c0.7-1.1,1.3-2.4,1.8-3.8h4C1085.1,72.1,1082.4,74.3,1079.2,75.6z M1083.5,67.4
				c0.6-2.1,0.9-4.4,1-6.8h5.3c-0.1,2.4-0.7,4.6-1.8,6.8H1083.5z M1071.8,52.5v6.4h-9.1c0.1-2.2,0.4-4.4,1-6.4H1071.8z M1071.8,50.7
				h-7.6c1.7-4.5,4.5-7.5,7.6-8V50.7z M1064.2,46.6c-0.8,1.2-1.4,2.6-1.9,4.1h-4.1c1.9-3,4.7-5.4,8-6.8
				C1065.5,44.7,1064.8,45.6,1064.2,46.6z M1071.8,69.2v7.6c-3-0.5-5.8-3.3-7.5-7.6H1071.8z M1071.8,67.4h-8.1
				c-0.6-2.1-1-4.4-1.1-6.8h9.1L1071.8,67.4L1071.8,67.4z M1061.8,52.5c-0.5,2-0.8,4.2-0.9,6.4h-5.3c0.1-2.2,0.7-4.4,1.6-6.4H1061.8
				z M1060.9,60.7c0.1,2.4,0.4,4.6,1,6.8h-4.5c-1.1-2.1-1.7-4.4-1.8-6.8H1060.9z M1062.5,69.2c0.5,1.4,1.1,2.6,1.8,3.8
				c0.6,1,1.3,1.9,2,2.6c-3.2-1.3-5.9-3.5-7.8-6.4H1062.5z"/>
			<path id="_x35__6_" class="st8" d="M1072.7,222.7l-0.4-4.2l-3.2-0.2c-0.2-0.7-0.5-1.4-0.9-2l1.8-2.6l-3-3l-2.6,1.8
				c-0.6-0.4-1.3-0.7-2-0.9l-0.3-3.1l-4.2-0.4l-0.8,3c-0.7,0.1-1.5,0.3-2.2,0.6l-2.2-2.2l-0.1,0.1l-3.4,2.4l1.3,2.8
				c-0.5,0.6-0.9,1.2-1.3,1.9l-3.1-0.3l-1.1,4.1l2.9,1.3c0,0.7,0.1,1.5,0.2,2.2l-2.6,1.8l1.8,3.8l3.1-0.8c0.5,0.6,1,1.1,1.6,1.6
				l-0.8,3.1l3.8,1.8l1.8-2.6c0.7,0.1,1.4,0.2,2.2,0.2l1.3,2.9l4.1-1.1l-0.2-1.6l-0.2-1.6c0.3-0.2,0.6-0.4,0.9-0.6
				c0.3-0.2,0.6-0.4,0.9-0.7l2.9,1.4l2.4-3.5l-2.3-2.3c0.3-0.7,0.4-1.4,0.6-2.1L1072.7,222.7z M1062.8,227.3
				c-0.3,0.2-0.6,0.4-0.9,0.5c-2.9,1.5-6.6,0.6-8.5-2.2c-2.1-3-1.4-7.3,1.6-9.4c0.3-0.2,0.5-0.3,0.8-0.5c2.9-1.5,6.6-0.7,8.6,2.1
				C1066.6,220.9,1065.9,225.2,1062.8,227.3z"/>
			<path id="_x35__00000044166760179537105700000005280331290531975594_" class="st8" d="M421.5,119.8l-0.4-4.3l-3.3-0.3
				c-0.2-0.7-0.6-1.4-1-2l1.9-2.7l-3.1-3.1l-2.6,1.9c-0.7-0.4-1.4-0.7-2.1-1l-0.3-3.2l-4.3-0.4l-0.8,3.1c-0.8,0.1-1.5,0.3-2.2,0.6
				l-2.2-2.3l-0.1,0.1l-3.5,2.4l1.4,2.9c-0.5,0.6-1,1.2-1.3,1.9l-3.2-0.3l-1.1,4.2l2.9,1.3c0,0.8,0.1,1.5,0.2,2.3l-2.6,1.8l1.8,3.9
				l3.1-0.9c0.5,0.6,1,1.1,1.6,1.6l-0.9,3.1l3.9,1.8l1.9-2.7c0.7,0.1,1.5,0.2,2.2,0.2l1.4,3l4.2-1.1l-0.2-1.7l-0.2-1.6
				c0.3-0.2,0.6-0.4,0.9-0.6s0.6-0.5,0.9-0.7l3,1.4l2.5-3.6l-2.4-2.3c0.3-0.7,0.5-1.4,0.6-2.2L421.5,119.8z M411.3,124.6
				c-0.3,0.2-0.6,0.4-0.9,0.5c-3,1.5-6.8,0.6-8.7-2.2c-2.2-3.1-1.5-7.5,1.7-9.7c0.3-0.2,0.6-0.4,0.8-0.5c3-1.5,6.8-0.7,8.8,2.2
				C415.2,118,414.5,122.3,411.3,124.6z"/>
			<path id="_x35__00000056409451594842932230000008586075999659568319_" class="st8" d="M500.8,177.4l-0.4-4.2l-3.2-0.2
				c-0.2-0.7-0.5-1.4-0.9-2l1.8-2.6l-3-3l-2.6,1.8c-0.6-0.4-1.3-0.7-2-0.9l-0.3-3.1l-4.2-0.4l-0.8,3c-0.7,0.1-1.5,0.3-2.2,0.6
				l-2.2-2.2l-0.1,0.1l-3.4,2.4l1.3,2.8c-0.5,0.6-0.9,1.2-1.3,1.9l-3.1-0.3l-1.1,4.1l2.9,1.3c0,0.7,0.1,1.5,0.2,2.2l-2.6,1.8
				l1.8,3.8l3.1-0.8c0.5,0.6,1,1.1,1.6,1.6l-0.8,3.1l3.8,1.8l1.8-2.6c0.7,0.1,1.4,0.2,2.2,0.2l1.3,2.9l4.1-1.1l-0.2-1.6l-0.2-1.6
				c0.3-0.2,0.6-0.4,0.9-0.6c0.3-0.2,0.6-0.4,0.9-0.7l2.9,1.4l2.4-3.5l-2.3-2.3c0.3-0.7,0.4-1.4,0.6-2.1L500.8,177.4z M490.9,182
				c-0.3,0.2-0.6,0.4-0.9,0.5c-2.9,1.5-6.6,0.6-8.5-2.2c-2.1-3-1.4-7.3,1.6-9.4c0.3-0.2,0.5-0.3,0.8-0.5c2.9-1.5,6.6-0.7,8.6,2.1
				C494.7,175.6,493.9,179.9,490.9,182z"/>
			<path id="_x35__00000154424577903472563400000009306484451866746771_" class="st8" d="M169.1,55.9l-0.4-4.3l-3.3-0.3
				c-0.2-0.7-0.6-1.4-1-2l1.9-2.7l-3.1-3.1l-2.6,1.9c-0.7-0.4-1.4-0.7-2.1-1l-0.3-3.2l-4.3-0.4l-0.8,3.1c-0.8,0.1-1.5,0.3-2.2,0.6
				l-2.2-2.3l-0.1,0.1l-3.5,2.4l1.4,2.9c-0.5,0.6-1,1.2-1.3,1.9l-3.2-0.3l-1.1,4.2l2.9,1.3c0,0.8,0.1,1.5,0.2,2.3l-2.6,1.8l1.8,3.9
				l3.1-0.9c0.5,0.6,1,1.1,1.6,1.6l-0.9,3.1l3.9,1.8L153,66c0.7,0.1,1.5,0.2,2.2,0.2l1.4,3l4.2-1.1l-0.2-1.7l-0.2-1.6
				c0.3-0.2,0.6-0.4,0.9-0.6c0.3-0.2,0.6-0.5,0.9-0.7l3,1.4l2.5-3.6l-2.4-2.3c0.3-0.7,0.5-1.4,0.6-2.2L169.1,55.9z M159,60.7
				c-0.3,0.2-0.6,0.4-0.9,0.5c-3,1.5-6.8,0.6-8.7-2.2c-2.2-3.1-1.5-7.5,1.7-9.7c0.3-0.2,0.6-0.4,0.8-0.5c3-1.5,6.8-0.7,8.8,2.2
				C162.9,54.1,162.1,58.5,159,60.7z"/>
			<path class="st8" d="M238.6,107.5c-1.3,0-2.4,0.6-3.1,1.6l-8.1-4.6c0.2-0.5,0.3-1,0.3-1.6s-0.1-1.1-0.3-1.6l8.5-4.9
				c0.7,0.7,1.7,1.1,2.7,1.1c2.1,0,3.9-1.7,3.9-3.9c0-2.1-1.7-3.9-3.9-3.9s-3.9,1.7-3.9,3.9c0,0.7,0.2,1.3,0.5,1.9l-8.4,4.8
				c-0.7-0.8-1.8-1.4-3-1.4c-2.1,0-3.9,1.7-3.9,3.9c0,2.1,1.7,3.9,3.9,3.9c1.2,0,2.2-0.5,2.9-1.3l8.2,4.6c-0.2,0.4-0.2,0.9-0.2,1.3
				c0,2.1,1.7,3.9,3.9,3.9s3.9-1.7,3.9-3.9C242.5,109.2,240.7,107.5,238.6,107.5z M238.6,90.6c1.7,0,3.1,1.4,3.1,3.1
				s-1.4,3.1-3.1,3.1c-1.7,0-3.1-1.4-3.1-3.1S236.9,90.6,238.6,90.6z M223.8,106c-1.7,0-3.1-1.4-3.1-3.1s1.4-3.1,3.1-3.1
				c1.7,0,3.1,1.4,3.1,3.1C226.9,104.6,225.5,106,223.8,106z M238.6,114.5c-1.7,0-3.1-1.4-3.1-3.1s1.4-3.1,3.1-3.1
				c1.7,0,3.1,1.4,3.1,3.1S240.3,114.5,238.6,114.5z"/>
			<path class="st8" d="M483,46.5c-1.3,0-2.4,0.6-3.1,1.6l-8.1-4.6c0.2-0.5,0.3-1,0.3-1.6s-0.1-1.1-0.3-1.6l8.5-4.9
				c0.7,0.7,1.7,1.1,2.7,1.1c2.1,0,3.9-1.7,3.9-3.9c0-2.1-1.7-3.9-3.9-3.9s-3.9,1.7-3.9,3.9c0,0.7,0.2,1.3,0.5,1.9l-8.4,4.8
				c-0.7-0.8-1.8-1.4-3-1.4c-2.1,0-3.9,1.7-3.9,3.9c0,2.1,1.7,3.9,3.9,3.9c1.2,0,2.2-0.5,2.9-1.3l8.2,4.6c-0.2,0.4-0.2,0.9-0.2,1.3
				c0,2.1,1.7,3.9,3.9,3.9s3.9-1.7,3.9-3.9C486.9,48.3,485.1,46.5,483,46.5z M483,29.7c1.7,0,3.1,1.4,3.1,3.1c0,1.7-1.4,3.1-3.1,3.1
				s-3.1-1.4-3.1-3.1C479.9,31,481.3,29.7,483,29.7z M468.2,45c-1.7,0-3.1-1.4-3.1-3.1c0-1.7,1.4-3.1,3.1-3.1s3.1,1.4,3.1,3.1
				C471.3,43.7,469.9,45,468.2,45z M483,53.5c-1.7,0-3.1-1.4-3.1-3.1c0-1.7,1.4-3.1,3.1-3.1s3.1,1.4,3.1,3.1S484.7,53.5,483,53.5z"
				/>
			<rect x="395.7" y="292.3" class="st8" width="85.6" height="6.5"/>
			<g>
				<path class="st8" d="M411.7,272.2c-2.4,0-4.3,1.9-4.3,4.3s1.9,4.3,4.3,4.3s4.3-1.9,4.3-4.3S414,272.2,411.7,272.2z"/>
				<path class="st8" d="M421,231.8h-18.7h-1.1v58.3h1.1H421h1.1v-58.3H421z M411.7,281.6c-2.8,0-5.1-2.3-5.1-5.1
					c0-2.8,2.3-5.1,5.1-5.1c2.8,0,5.1,2.3,5.1,5.1C416.7,279.3,414.5,281.6,411.7,281.6z M418.4,269h-13.7v-31.4h13.7V269z"/>
			</g>
			<g>
				<rect x="405.2" y="243.1" class="st8" width="12.4" height="1.2"/>
				<rect x="405.2" y="249.5" class="st8" width="12.4" height="1.2"/>
				<rect x="405.2" y="255.8" class="st8" width="12.4" height="1.2"/>
				<rect x="405.2" y="262.2" class="st8" width="12.4" height="1.2"/>
			</g>
			<g>
				<path class="st8" d="M435.4,272.2c-2.4,0-4.3,1.9-4.3,4.3s1.9,4.3,4.3,4.3s4.3-1.9,4.3-4.3C439.7,274.1,437.8,272.2,435.4,272.2
					z"/>
				<path class="st8" d="M444.8,231.8h-18.7H425v58.3h1.1h18.7h1.1v-58.3H444.8z M435.4,281.6c-2.8,0-5.1-2.3-5.1-5.1
					c0-2.8,2.3-5.1,5.1-5.1c2.8,0,5.1,2.3,5.1,5.1C440.5,279.3,438.2,281.6,435.4,281.6z M442.1,269h-13.7v-31.4h13.7V269z"/>
			</g>
			<g>
				<rect x="428.9" y="243.1" class="st8" width="12.4" height="1.2"/>
				<rect x="428.9" y="249.5" class="st8" width="12.4" height="1.2"/>
				<rect x="428.9" y="255.8" class="st8" width="12.4" height="1.2"/>
				<rect x="428.9" y="262.2" class="st8" width="12.4" height="1.2"/>
			</g>
			<g>
				<path class="st8" d="M468.4,269.5c-2.3,0.7-3.5,3.1-2.8,5.4s3.1,3.5,5.4,2.8s3.5-3.1,2.8-5.4C473,270.1,470.6,268.8,468.4,269.5
					z"/>
				<path class="st8" d="M466.6,227.7l-20.1,6.1l17.1,55.8l15.2-4.6l3.8-1.2l1.1-0.3L466.6,227.7z M460.7,268.4l-9.2-30.1l13.1-4
					l9.2,30.1L460.7,268.4z M471.1,278.4c-2.7,0.8-5.5-0.7-6.3-3.4c-0.8-2.7,0.7-5.5,3.4-6.3c2.7-0.8,5.5,0.7,6.3,3.4
					S473.8,277.6,471.1,278.4z"/>
			</g>
			<g>
				
					<rect x="453.5" y="241.8" transform="matrix(0.9563 -0.2925 0.2925 0.9563 -50.8009 145.0678)" class="st8" width="12.4" height="1.2"/>
				
					<rect x="455.4" y="247.8" transform="matrix(0.9563 -0.2924 0.2924 0.9563 -52.4595 145.8278)" class="st8" width="12.4" height="1.2"/>
				
					<rect x="457.2" y="253.8" transform="matrix(0.9562 -0.2926 0.2926 0.9562 -54.1632 146.7222)" class="st8" width="12.4" height="1.2"/>
				
					<rect x="459.1" y="259.9" transform="matrix(0.9562 -0.2926 0.2926 0.9562 -55.8602 147.5485)" class="st8" width="12.4" height="1.2"/>
			</g>
			<line class="st40" x1="61.8" y1="298.3" x2="1219.8" y2="298.3"/>
		</g>
	</g>
</g>
</svg>
