<svg xmlns="http://www.w3.org/2000/svg" xmlns:xlink="http://www.w3.org/1999/xlink" viewBox="0 0 1245 322.18"><defs><style>.cls-1{fill:none;}.cls-2{clip-path:url(#clip-path);}.cls-3{fill:url(#radial-gradient);}.cls-4{fill:#d9dadb;}.cls-5{fill:#fff;}.cls-6{fill:#d1d3d3;}.cls-7{fill:#ee4e26;}.cls-8{fill:#ed4626;}.cls-9{fill:#ffd633;}.cls-10{fill:#ffdf33;}.cls-11{opacity:0.2;}.cls-113,.cls-12,.cls-62{fill:#fadd80;}.cls-13{fill:#c68d1a;}.cls-14{fill:url(#linear-gradient);}.cls-15{fill:url(#linear-gradient-2);}.cls-16{fill:url(#linear-gradient-3);}.cls-17{fill:url(#linear-gradient-4);}.cls-18{fill:url(#linear-gradient-5);}.cls-19{fill:url(#linear-gradient-6);}.cls-20{fill:url(#linear-gradient-7);}.cls-21{fill:url(#linear-gradient-8);}.cls-22{fill:url(#linear-gradient-9);}.cls-23{fill:url(#linear-gradient-10);}.cls-24{fill:url(#linear-gradient-11);}.cls-25{fill:url(#linear-gradient-12);}.cls-26{fill:url(#linear-gradient-13);}.cls-27{fill:url(#linear-gradient-14);}.cls-28{fill:url(#linear-gradient-15);}.cls-29{fill:url(#linear-gradient-16);}.cls-30{fill:url(#linear-gradient-17);}.cls-31{fill:url(#linear-gradient-18);}.cls-32{fill:url(#linear-gradient-19);}.cls-33{fill:url(#linear-gradient-20);}.cls-34{fill:url(#linear-gradient-21);}.cls-35{fill:url(#linear-gradient-22);}.cls-36{fill:url(#linear-gradient-23);}.cls-37{fill:url(#linear-gradient-24);}.cls-38{fill:url(#linear-gradient-25);}.cls-39{fill:url(#linear-gradient-26);}.cls-40{fill:url(#linear-gradient-27);}.cls-41{fill:url(#linear-gradient-28);}.cls-42{fill:url(#linear-gradient-29);}.cls-43{fill:url(#linear-gradient-30);}.cls-44{fill:url(#linear-gradient-31);}.cls-45{fill:url(#linear-gradient-32);}.cls-46{fill:url(#linear-gradient-33);}.cls-47{fill:url(#linear-gradient-34);}.cls-48{fill:url(#linear-gradient-35);}.cls-49{fill:url(#linear-gradient-36);}.cls-50{fill:url(#linear-gradient-37);}.cls-51{fill:url(#linear-gradient-38);}.cls-52{fill:url(#linear-gradient-39);}.cls-53{fill:url(#linear-gradient-40);}.cls-54{fill:url(#linear-gradient-41);}.cls-55{fill:url(#linear-gradient-42);}.cls-56{fill:url(#linear-gradient-43);}.cls-57{fill:url(#linear-gradient-44);}.cls-58{fill:url(#linear-gradient-45);}.cls-59{fill:url(#linear-gradient-46);}.cls-60{fill:url(#linear-gradient-47);}.cls-112,.cls-113,.cls-61,.cls-62{isolation:isolate;}.cls-61{font-size:11.8px;}.cls-112,.cls-61{fill:#fffbc5;font-family:Haettenschweiler;}.cls-62{font-size:7.85px;}.cls-113,.cls-62{font-family:MyriadPro-Bold, Myriad Pro;font-weight:700;}.cls-63{letter-spacing:-0.06em;}.cls-64{letter-spacing:-0.05em;}.cls-65{fill:url(#linear-gradient-48);}.cls-66{fill:url(#linear-gradient-49);}.cls-67{fill:url(#linear-gradient-50);}.cls-68{fill:url(#linear-gradient-51);}.cls-69{fill:url(#linear-gradient-52);}.cls-70{fill:url(#linear-gradient-53);}.cls-71{fill:url(#linear-gradient-54);}.cls-72{fill:url(#linear-gradient-55);}.cls-73{fill:url(#linear-gradient-56);}.cls-74{fill:url(#linear-gradient-57);}.cls-75{fill:url(#linear-gradient-58);}.cls-76{fill:url(#linear-gradient-59);}.cls-77{fill:url(#linear-gradient-60);}.cls-78{fill:url(#linear-gradient-61);}.cls-79{fill:url(#linear-gradient-62);}.cls-80{fill:url(#linear-gradient-63);}.cls-81{fill:url(#linear-gradient-64);}.cls-82{fill:url(#linear-gradient-65);}.cls-83{fill:url(#linear-gradient-66);}.cls-84{fill:url(#linear-gradient-67);}.cls-85{fill:url(#linear-gradient-68);}.cls-86{fill:url(#linear-gradient-69);}.cls-87{fill:url(#linear-gradient-70);}.cls-88{fill:url(#linear-gradient-71);}.cls-89{fill:url(#linear-gradient-72);}.cls-90{fill:url(#linear-gradient-73);}.cls-91{fill:url(#linear-gradient-74);}.cls-92{fill:url(#linear-gradient-75);}.cls-93{fill:url(#linear-gradient-76);}.cls-94{fill:url(#linear-gradient-77);}.cls-95{fill:url(#linear-gradient-78);}.cls-96{fill:url(#linear-gradient-79);}.cls-97{fill:url(#linear-gradient-80);}.cls-98{fill:url(#linear-gradient-81);}.cls-99{fill:url(#linear-gradient-82);}.cls-100{fill:url(#linear-gradient-83);}.cls-101{fill:url(#linear-gradient-84);}.cls-102{fill:url(#linear-gradient-85);}.cls-103{fill:url(#linear-gradient-86);}.cls-104{fill:url(#linear-gradient-87);}.cls-105{fill:url(#linear-gradient-88);}.cls-106{fill:url(#linear-gradient-89);}.cls-107{fill:url(#linear-gradient-90);}.cls-108{fill:url(#linear-gradient-91);}.cls-109{fill:url(#linear-gradient-92);}.cls-110{fill:url(#linear-gradient-93);}.cls-111{fill:url(#linear-gradient-94);}.cls-112{font-size:8.93px;}.cls-113{font-size:5.94px;}.cls-114{letter-spacing:-0.06em;}.cls-115{letter-spacing:-0.05em;}.cls-116{fill:#eea886;}.cls-117{fill:#cf8c6c;}.cls-118{fill:#db9c7c;}.cls-119{fill:#323657;}.cls-120{fill:#464c7a;}.cls-121{fill:#404670;}.cls-122{fill:#155c94;}.cls-123{fill:#252840;}.cls-124{fill:#efaa88;}.cls-125{fill:#eea987;}.cls-126{fill:#d88a51;}.cls-127{fill:#a77860;}.cls-128{fill:#163342;}.cls-129{fill:#5e5f70;}.cls-130{fill:#1d3b54;}.cls-131{fill:#292c47;}.cls-132{fill:#ffa15b;}.cls-133{fill:#d6c5be;}.cls-134{fill:#fae6de;}.cls-135{fill:#eddad3;}.cls-136{fill:#ffd069;}</style><clipPath id="clip-path" transform="translate(0 17.6)"><rect class="cls-1" width="1245" height="300"/></clipPath><radialGradient id="radial-gradient" cx="992.38" cy="252.36" r="700.62" gradientTransform="matrix(-0.76, 0.55, -0.47, -0.5, 1858.97, -646.07)" gradientUnits="userSpaceOnUse"><stop offset="0" stop-color="#73d7ff"/><stop offset="1" stop-color="#002bc6"/></radialGradient><linearGradient id="linear-gradient" x1="1128.59" y1="-6743.98" x2="1129.13" y2="-6773.72" gradientTransform="matrix(1, 0, 0, -1, 0, -6658.07)" gradientUnits="userSpaceOnUse"><stop offset="0" stop-color="#c6990f"/><stop offset="0.47" stop-color="#fefdc9"/><stop offset="0.49" stop-color="#c6990f"/><stop offset="1" stop-color="#fefdc9"/></linearGradient><linearGradient id="linear-gradient-2" x1="1125.69" y1="-6744.03" x2="1126.23" y2="-6773.77" xlink:href="#linear-gradient"/><linearGradient id="linear-gradient-3" x1="1123.39" y1="-6744.08" x2="1123.93" y2="-6773.81" xlink:href="#linear-gradient"/><linearGradient id="linear-gradient-4" x1="1121.8" y1="-6744.11" x2="1122.34" y2="-6773.84" xlink:href="#linear-gradient"/><linearGradient id="linear-gradient-5" x1="1120.82" y1="-6744.12" x2="1121.35" y2="-6773.86" xlink:href="#linear-gradient"/><linearGradient id="linear-gradient-6" x1="1120.57" y1="-6744.12" x2="1121.11" y2="-6773.86" xlink:href="#linear-gradient"/><linearGradient id="linear-gradient-7" x1="1120.85" y1="-6744.11" x2="1121.39" y2="-6773.86" xlink:href="#linear-gradient"/><linearGradient id="linear-gradient-8" x1="1121.85" y1="-6744.09" x2="1122.39" y2="-6773.84" xlink:href="#linear-gradient"/><linearGradient id="linear-gradient-9" x1="1123.43" y1="-6744.06" x2="1123.97" y2="-6773.81" xlink:href="#linear-gradient"/><linearGradient id="linear-gradient-10" x1="1125.72" y1="-6744.02" x2="1126.26" y2="-6773.77" xlink:href="#linear-gradient"/><linearGradient id="linear-gradient-11" x1="1128.59" y1="-6743.97" x2="1129.13" y2="-6773.72" xlink:href="#linear-gradient"/><linearGradient id="linear-gradient-12" x1="1129.9" y1="-6743.95" x2="1130.44" y2="-6773.69" xlink:href="#linear-gradient"/><linearGradient id="linear-gradient-13" x1="1127.23" y1="-6744" x2="1127.77" y2="-6773.74" xlink:href="#linear-gradient"/><linearGradient id="linear-gradient-14" x1="1125.21" y1="-6744.03" x2="1125.75" y2="-6773.78" xlink:href="#linear-gradient"/><linearGradient id="linear-gradient-15" x1="1123.83" y1="-6744.05" x2="1124.37" y2="-6773.8" xlink:href="#linear-gradient"/><linearGradient id="linear-gradient-16" x1="1123.05" y1="-6744.07" x2="1123.59" y2="-6773.82" xlink:href="#linear-gradient"/><linearGradient id="linear-gradient-17" x1="1122.81" y1="-6744.07" x2="1123.35" y2="-6773.82" xlink:href="#linear-gradient"/><linearGradient id="linear-gradient-18" x1="1123.03" y1="-6744.07" x2="1123.57" y2="-6773.82" xlink:href="#linear-gradient"/><linearGradient id="linear-gradient-19" x1="1123.94" y1="-6744.05" x2="1124.48" y2="-6773.81" xlink:href="#linear-gradient"/><linearGradient id="linear-gradient-20" x1="1125.29" y1="-6744.03" x2="1125.83" y2="-6773.78" xlink:href="#linear-gradient"/><linearGradient id="linear-gradient-21" x1="1127.29" y1="-6743.99" x2="1127.83" y2="-6773.74" xlink:href="#linear-gradient"/><linearGradient id="linear-gradient-22" x1="1129.73" y1="-6743.95" x2="1130.27" y2="-6773.7" xlink:href="#linear-gradient"/><linearGradient id="linear-gradient-23" x1="1132.03" y1="-6743.9" x2="1132.57" y2="-6773.67" xlink:href="#linear-gradient"/><linearGradient id="linear-gradient-24" x1="1156.28" y1="-6743.55" x2="1156.82" y2="-6773.3" xlink:href="#linear-gradient"/><linearGradient id="linear-gradient-25" x1="1159.27" y1="-6743.49" x2="1159.81" y2="-6773.25" xlink:href="#linear-gradient"/><linearGradient id="linear-gradient-26" x1="1161.68" y1="-6743.45" x2="1162.22" y2="-6773.2" xlink:href="#linear-gradient"/><linearGradient id="linear-gradient-27" x1="1163.39" y1="-6743.41" x2="1163.92" y2="-6773.17" xlink:href="#linear-gradient"/><linearGradient id="linear-gradient-28" x1="1164.4" y1="-6743.4" x2="1164.94" y2="-6773.16" xlink:href="#linear-gradient"/><linearGradient id="linear-gradient-29" x1="1164.87" y1="-6743.39" x2="1165.41" y2="-6773.15" xlink:href="#linear-gradient"/><linearGradient id="linear-gradient-30" x1="1164.72" y1="-6743.4" x2="1165.26" y2="-6773.15" xlink:href="#linear-gradient"/><linearGradient id="linear-gradient-31" x1="1163.85" y1="-6743.42" x2="1164.39" y2="-6773.17" xlink:href="#linear-gradient"/><linearGradient id="linear-gradient-32" x1="1162.4" y1="-6743.45" x2="1162.94" y2="-6773.19" xlink:href="#linear-gradient"/><linearGradient id="linear-gradient-33" x1="1160.21" y1="-6743.49" x2="1160.75" y2="-6773.23" xlink:href="#linear-gradient"/><linearGradient id="linear-gradient-34" x1="1157.37" y1="-6743.54" x2="1157.91" y2="-6773.28" xlink:href="#linear-gradient"/><linearGradient id="linear-gradient-35" x1="1155.01" y1="-6743.58" x2="1155.55" y2="-6773.33" xlink:href="#linear-gradient"/><linearGradient id="linear-gradient-36" x1="1157.78" y1="-6743.53" x2="1158.31" y2="-6773.28" xlink:href="#linear-gradient"/><linearGradient id="linear-gradient-37" x1="1159.87" y1="-6743.49" x2="1160.41" y2="-6773.24" xlink:href="#linear-gradient"/><linearGradient id="linear-gradient-38" x1="1161.39" y1="-6743.47" x2="1161.92" y2="-6773.21" xlink:href="#linear-gradient"/><linearGradient id="linear-gradient-39" x1="1162.28" y1="-6743.45" x2="1162.82" y2="-6773.19" xlink:href="#linear-gradient"/><linearGradient id="linear-gradient-40" x1="1162.64" y1="-6743.45" x2="1163.18" y2="-6773.18" xlink:href="#linear-gradient"/><linearGradient id="linear-gradient-41" x1="1162.52" y1="-6743.45" x2="1163.06" y2="-6773.18" xlink:href="#linear-gradient"/><linearGradient id="linear-gradient-42" x1="1161.73" y1="-6743.46" x2="1162.27" y2="-6773.2" xlink:href="#linear-gradient"/><linearGradient id="linear-gradient-43" x1="1160.48" y1="-6743.49" x2="1161.02" y2="-6773.22" xlink:href="#linear-gradient"/><linearGradient id="linear-gradient-44" x1="1158.58" y1="-6743.52" x2="1159.12" y2="-6773.25" xlink:href="#linear-gradient"/><linearGradient id="linear-gradient-45" x1="1156.12" y1="-6743.56" x2="1156.66" y2="-6773.3" xlink:href="#linear-gradient"/><linearGradient id="linear-gradient-46" x1="1153.92" y1="-6743.6" x2="1154.46" y2="-6773.33" xlink:href="#linear-gradient"/><linearGradient id="linear-gradient-47" x1="1157.42" y1="-6743.54" x2="1157.96" y2="-6773.28" xlink:href="#linear-gradient"/><linearGradient id="linear-gradient-48" x1="1062.4" y1="-6707.23" x2="1062.81" y2="-6729.76" xlink:href="#linear-gradient"/><linearGradient id="linear-gradient-49" x1="1060.13" y1="-6707.28" x2="1060.54" y2="-6729.8" xlink:href="#linear-gradient"/><linearGradient id="linear-gradient-50" x1="1058.43" y1="-6707.31" x2="1058.83" y2="-6729.83" xlink:href="#linear-gradient"/><linearGradient id="linear-gradient-51" x1="1057.22" y1="-6707.33" x2="1057.63" y2="-6729.85" xlink:href="#linear-gradient"/><linearGradient id="linear-gradient-52" x1="1056.47" y1="-6707.35" x2="1056.88" y2="-6729.86" xlink:href="#linear-gradient"/><linearGradient id="linear-gradient-53" x1="1056.26" y1="-6707.35" x2="1056.67" y2="-6729.87" xlink:href="#linear-gradient"/><linearGradient id="linear-gradient-54" x1="1056.53" y1="-6707.34" x2="1056.93" y2="-6729.86" xlink:href="#linear-gradient"/><linearGradient id="linear-gradient-55" x1="1057.23" y1="-6707.33" x2="1057.64" y2="-6729.85" xlink:href="#linear-gradient"/><linearGradient id="linear-gradient-56" x1="1058.47" y1="-6707.3" x2="1058.88" y2="-6729.83" xlink:href="#linear-gradient"/><linearGradient id="linear-gradient-57" x1="1060.18" y1="-6707.27" x2="1060.59" y2="-6729.8" xlink:href="#linear-gradient"/><linearGradient id="linear-gradient-58" x1="1062.39" y1="-6707.23" x2="1062.8" y2="-6729.76" xlink:href="#linear-gradient"/><linearGradient id="linear-gradient-59" x1="1063.37" y1="-6707.22" x2="1063.78" y2="-6729.74" xlink:href="#linear-gradient"/><linearGradient id="linear-gradient-60" x1="1061.32" y1="-6707.25" x2="1061.73" y2="-6729.77" xlink:href="#linear-gradient"/><linearGradient id="linear-gradient-61" x1="1059.81" y1="-6707.28" x2="1060.22" y2="-6729.8" xlink:href="#linear-gradient"/><linearGradient id="linear-gradient-62" x1="1058.77" y1="-6707.29" x2="1059.17" y2="-6729.82" xlink:href="#linear-gradient"/><linearGradient id="linear-gradient-63" x1="1058.21" y1="-6707.3" x2="1058.62" y2="-6729.83" xlink:href="#linear-gradient"/><linearGradient id="linear-gradient-64" x1="1057.91" y1="-6707.31" x2="1058.32" y2="-6729.84" xlink:href="#linear-gradient"/><linearGradient id="linear-gradient-65" x1="1058.16" y1="-6707.3" x2="1058.57" y2="-6729.84" xlink:href="#linear-gradient"/><linearGradient id="linear-gradient-66" x1="1058.81" y1="-6707.29" x2="1059.21" y2="-6729.83" xlink:href="#linear-gradient"/><linearGradient id="linear-gradient-67" x1="1059.89" y1="-6707.27" x2="1060.3" y2="-6729.81" xlink:href="#linear-gradient"/><linearGradient id="linear-gradient-68" x1="1061.33" y1="-6707.25" x2="1061.74" y2="-6729.78" xlink:href="#linear-gradient"/><linearGradient id="linear-gradient-69" x1="1063.26" y1="-6707.21" x2="1063.67" y2="-6729.74" xlink:href="#linear-gradient"/><linearGradient id="linear-gradient-70" x1="1064.94" y1="-6707.18" x2="1065.35" y2="-6729.72" xlink:href="#linear-gradient"/><linearGradient id="linear-gradient-71" x1="1083.39" y1="-6706.91" x2="1083.8" y2="-6729.44" xlink:href="#linear-gradient"/><linearGradient id="linear-gradient-72" x1="1085.62" y1="-6706.87" x2="1086.03" y2="-6729.4" xlink:href="#linear-gradient"/><linearGradient id="linear-gradient-73" x1="1087.42" y1="-6706.83" x2="1087.82" y2="-6729.37" xlink:href="#linear-gradient"/><linearGradient id="linear-gradient-74" x1="1088.71" y1="-6706.81" x2="1089.12" y2="-6729.34" xlink:href="#linear-gradient"/><linearGradient id="linear-gradient-75" x1="1089.56" y1="-6706.8" x2="1089.97" y2="-6729.33" xlink:href="#linear-gradient"/><linearGradient id="linear-gradient-76" x1="1089.86" y1="-6706.79" x2="1090.27" y2="-6729.32" xlink:href="#linear-gradient"/><linearGradient id="linear-gradient-77" x1="1089.7" y1="-6706.8" x2="1090.11" y2="-6729.33" xlink:href="#linear-gradient"/><linearGradient id="linear-gradient-78" x1="1089.09" y1="-6706.81" x2="1089.5" y2="-6729.34" xlink:href="#linear-gradient"/><linearGradient id="linear-gradient-79" x1="1087.94" y1="-6706.83" x2="1088.35" y2="-6729.36" xlink:href="#linear-gradient"/><linearGradient id="linear-gradient-80" x1="1086.34" y1="-6706.86" x2="1086.75" y2="-6729.39" xlink:href="#linear-gradient"/><linearGradient id="linear-gradient-81" x1="1084.19" y1="-6706.9" x2="1084.59" y2="-6729.42" xlink:href="#linear-gradient"/><linearGradient id="linear-gradient-82" x1="1082.36" y1="-6706.93" x2="1082.76" y2="-6729.46" xlink:href="#linear-gradient"/><linearGradient id="linear-gradient-83" x1="1084.47" y1="-6706.9" x2="1084.88" y2="-6729.42" xlink:href="#linear-gradient"/><linearGradient id="linear-gradient-84" x1="1086.07" y1="-6706.87" x2="1086.47" y2="-6729.39" xlink:href="#linear-gradient"/><linearGradient id="linear-gradient-85" x1="1087.19" y1="-6706.85" x2="1087.6" y2="-6729.37" xlink:href="#linear-gradient"/><linearGradient id="linear-gradient-86" x1="1087.92" y1="-6706.84" x2="1088.33" y2="-6729.36" xlink:href="#linear-gradient"/><linearGradient id="linear-gradient-87" x1="1088.22" y1="-6706.83" x2="1088.62" y2="-6729.35" xlink:href="#linear-gradient"/><linearGradient id="linear-gradient-88" x1="1088.05" y1="-6706.84" x2="1088.46" y2="-6729.35" xlink:href="#linear-gradient"/><linearGradient id="linear-gradient-89" x1="1087.49" y1="-6706.85" x2="1087.9" y2="-6729.36" xlink:href="#linear-gradient"/><linearGradient id="linear-gradient-90" x1="1086.49" y1="-6706.86" x2="1086.89" y2="-6729.38" xlink:href="#linear-gradient"/><linearGradient id="linear-gradient-91" x1="1085.12" y1="-6706.89" x2="1085.53" y2="-6729.41" xlink:href="#linear-gradient"/><linearGradient id="linear-gradient-92" x1="1083.25" y1="-6706.92" x2="1083.66" y2="-6729.44" xlink:href="#linear-gradient"/><linearGradient id="linear-gradient-93" x1="1081.64" y1="-6706.95" x2="1082.05" y2="-6729.46" xlink:href="#linear-gradient"/><linearGradient id="linear-gradient-94" x1="1084.24" y1="-6706.9" x2="1084.65" y2="-6729.43" xlink:href="#linear-gradient"/></defs><g id="Layer_2" data-name="Layer 2"><g id="Слой_1" data-name="Слой 1"><g class="cls-2"><rect class="cls-3" y="17.6" width="1245" height="300"/><path class="cls-4" d="M1038.1,257s-10-1-10-8.2h19.3S1047.9,257,1038.1,257Z" transform="translate(0 17.6)"/><path class="cls-5" d="M1038.1,257H930.3c-11.2,0-10.7-8.2-10.7-8.2h108.6C1028.2,256.1,1038.1,257,1038.1,257Z" transform="translate(0 17.6)"/><rect class="cls-5" x="919.3" y="110.5" width="108.6" height="156"/><path class="cls-4" d="M909.5,84.7s10,1,10,8.2H900.2S899.7,84.7,909.5,84.7Z" transform="translate(0 17.6)"/><path class="cls-5" d="M909.5,84.7h107.8c11.2,0,10.7,8.2,10.7,8.2H919.5C919.5,85.7,909.5,84.7,909.5,84.7Z" transform="translate(0 17.6)"/><path class="cls-6" d="M936.7,103.9H926.6a1,1,0,0,1,0-2h10.1a1,1,0,0,1,1,1A1.17,1.17,0,0,1,936.7,103.9Z" transform="translate(0 17.6)"/><path class="cls-6" d="M953.6,103.9H942.3a1,1,0,0,1,0-2h11.3a1,1,0,0,1,1,1A1.17,1.17,0,0,1,953.6,103.9Z" transform="translate(0 17.6)"/><path class="cls-6" d="M965.2,111.8H926.6a1,1,0,0,1,0-2h38.6a1,1,0,0,1,0,2Z" transform="translate(0 17.6)"/><path class="cls-6" d="M945.9,120.2H926.6a1,1,0,1,1,0-2h19.3a1,1,0,0,1,0,2Z" transform="translate(0 17.6)"/><path class="cls-6" d="M957.5,120.2h-5.8a1,1,0,0,1,0-2h5.8a1,1,0,0,1,1,1A.94.94,0,0,1,957.5,120.2Z" transform="translate(0 17.6)"/><path class="cls-6" d="M966.5,135H934.7a1,1,0,0,1,0-2h31.8a1,1,0,0,1,0,2Z" transform="translate(0 17.6)"/><path class="cls-6" d="M1013.5,135H971.7a1,1,0,0,1,0-2h41.8a1,1,0,0,1,0,2Z" transform="translate(0 17.6)"/><path class="cls-6" d="M987.1,146.4H926.6a1,1,0,0,1,0-2h60.5a1,1,0,0,1,1,1A1.08,1.08,0,0,1,987.1,146.4Z" transform="translate(0 17.6)"/><path class="cls-6" d="M1020.6,146.4h-28a1,1,0,0,1,0-2h28a1,1,0,0,1,1,1A1.08,1.08,0,0,1,1020.6,146.4Z" transform="translate(0 17.6)"/><path class="cls-6" d="M949.4,159H926.7a1,1,0,0,1,0-2h22.7a1,1,0,0,1,1,1A1.07,1.07,0,0,1,949.4,159Z" transform="translate(0 17.6)"/><path class="cls-6" d="M998.4,159H955.6a1,1,0,1,1,0-2h42.8a1,1,0,0,1,1,1A.94.94,0,0,1,998.4,159Z" transform="translate(0 17.6)"/><path class="cls-6" d="M1011.9,159h-8.2a1,1,0,0,1,0-2h8.2a1,1,0,1,1,0,2Z" transform="translate(0 17.6)"/><path class="cls-6" d="M931.7,171.7h-5a1,1,0,0,1,0-2h5a1,1,0,0,1,1,1A1.07,1.07,0,0,1,931.7,171.7Z" transform="translate(0 17.6)"/><path class="cls-6" d="M988.1,171.7H937.9a1,1,0,0,1,0-2h50.2a1,1,0,0,1,1,1A.94.94,0,0,1,988.1,171.7Z" transform="translate(0 17.6)"/><path class="cls-6" d="M1020.6,171.7H994.2a1,1,0,0,1,0-2h26.4a1,1,0,0,1,0,2Z" transform="translate(0 17.6)"/><path class="cls-6" d="M947.9,186.2H934.7a1,1,0,0,1,0-2h13.2a1,1,0,0,1,0,2Z" transform="translate(0 17.6)"/><path class="cls-6" d="M1013.5,186.2H953.6a1,1,0,0,1,0-2h59.9a1,1,0,0,1,0,2Z" transform="translate(0 17.6)"/><path class="cls-6" d="M936.3,198.1h-9.6a1,1,0,0,1,0-2h9.6a1,1,0,0,1,1,1A1.07,1.07,0,0,1,936.3,198.1Z" transform="translate(0 17.6)"/><path class="cls-6" d="M980,198.1H941.3a1,1,0,0,1,0-2H980a1,1,0,0,1,1,1A1.07,1.07,0,0,1,980,198.1Z" transform="translate(0 17.6)"/><path class="cls-6" d="M1019.6,198.1H987.1a1,1,0,0,1,0-2h32.5a1,1,0,0,1,1,1A1.07,1.07,0,0,1,1019.6,198.1Z" transform="translate(0 17.6)"/><path class="cls-6" d="M1001.6,211.5h-75a1,1,0,1,1,0-2h75a1,1,0,0,1,0,2Z" transform="translate(0 17.6)"/><path class="cls-6" d="M1019.6,211.5h-12.1a1,1,0,0,1,0-2h12.1a1,1,0,0,1,1,1A1.07,1.07,0,0,1,1019.6,211.5Z" transform="translate(0 17.6)"/><path class="cls-6" d="M943.5,225.5H926.6a1,1,0,1,1,0-2h16.9a1,1,0,0,1,1,1A.94.94,0,0,1,943.5,225.5Z" transform="translate(0 17.6)"/><path class="cls-6" d="M1019.6,225.5H949.4a1,1,0,0,1,0-2h70.2a1,1,0,0,1,1,1A1.07,1.07,0,0,1,1019.6,225.5Z" transform="translate(0 17.6)"/><path class="cls-6" d="M978.4,238.7H926.6a1,1,0,0,1,0-2h51.8a1,1,0,0,1,1,1A1.07,1.07,0,0,1,978.4,238.7Z" transform="translate(0 17.6)"/><path class="cls-6" d="M994.2,238.7h-8.4a1,1,0,0,1,0-2h8.4a1,1,0,0,1,1,1A.94.94,0,0,1,994.2,238.7Z" transform="translate(0 17.6)"/><polygon class="cls-7" points="1005.4 281.5 1005.4 281.5 1012 259.2 1003.7 256.7 997.1 279 995.2 285.2 1000.5 282.6 1003.5 287.7 1005.4 281.5"/><polygon class="cls-8" points="1005.3 257.2 1003.7 256.7 997.1 279 995.2 285.2 997.3 284.1 998.8 279.1 1005.3 257.2"/><polygon class="cls-7" points="1015.7 281.5 1015.7 281.5 1009.1 259.2 1017.5 256.7 1024.1 279 1026 285.2 1020.6 282.6 1017.6 287.7 1015.7 281.5"/><polygon class="cls-8" points="1015.8 257.2 1017.5 256.7 1024.1 279 1026 285.2 1023.9 284.1 1022.3 279.1 1015.8 257.2"/><path class="cls-9" d="M1024.5,231.4a14,14,0,1,1-14-14A14,14,0,0,1,1024.5,231.4Z" transform="translate(0 17.6)"/><path class="cls-10" d="M1022.4,231.4a11.8,11.8,0,1,1-11.8-11.8A11.82,11.82,0,0,1,1022.4,231.4Z" transform="translate(0 17.6)"/><g class="cls-11"><path class="cls-5" d="M998.8,231.4a11.81,11.81,0,0,1,20.3-8.2,18.66,18.66,0,0,1,2.2-.7,13.84,13.84,0,0,0-10.7-5,14,14,0,0,0-14,14,13.36,13.36,0,0,0,2.3,7.6c.4-.7.9-1.3,1.3-2A12,12,0,0,1,998.8,231.4Z" transform="translate(0 17.6)"/><path class="cls-5" d="M1010.6,219.6a11.82,11.82,0,0,0-10.4,17.4c4.3-6.1,10.9-10.9,18.9-13.8A12,12,0,0,0,1010.6,219.6Z" transform="translate(0 17.6)"/></g><rect class="cls-7" x="1134" y="15.4" width="17.8" height="105.6"/><path class="cls-12" d="M1177.9,106.6c0,3-4.3,5.4-5,8.2s1.8,7.1.3,9.6-6.3,2.5-8.4,4.5-1.9,7-4.4,8.5-6.6-1.1-9.4-.3-5.1,5.1-8,5.1-5.3-4.4-8-5.1-7,1.8-9.4.3-2.4-6.5-4.4-8.5-6.9-2-8.4-4.5,1.1-6.8.3-9.6-5-5.2-5-8.2,4.3-5.4,5-8.2-1.8-7.1-.3-9.6,6.3-2.5,8.4-4.5,1.9-7,4.4-8.5,6.6,1.1,9.4.3,5.1-5.1,8-5.1,5.3,4.4,8,5.1,7-1.8,9.4-.3,2.4,6.5,4.4,8.5,6.9,2,8.4,4.5-1.1,6.8-.3,9.6S1177.9,103.6,1177.9,106.6Z" transform="translate(0 17.6)"/><ellipse class="cls-13" cx="1143" cy="124.2" rx="27.5" ry="28.1"/><path class="cls-14" d="M1131.5,122.6a3.42,3.42,0,0,1-4.5-.4S1128.8,120.9,1131.5,122.6Z" transform="translate(0 17.6)"/><path class="cls-15" d="M1128.4,120.5a3.24,3.24,0,0,1-4.2-1.2S1126.2,118.4,1128.4,120.5Z" transform="translate(0 17.6)"/><path class="cls-16" d="M1125.9,117.9a3.33,3.33,0,0,1-3.9-1.9A3.9,3.9,0,0,1,1125.9,117.9Z" transform="translate(0 17.6)"/><path class="cls-17" d="M1124,115a3.16,3.16,0,0,1-3.4-2.6A3.65,3.65,0,0,1,1124,115Z" transform="translate(0 17.6)"/><path class="cls-18" d="M1122.7,111.7a3.23,3.23,0,0,1-2.9-3.1A3.59,3.59,0,0,1,1122.7,111.7Z" transform="translate(0 17.6)"/><path class="cls-19" d="M1122.1,108.3a3.26,3.26,0,0,1-2.3-3.6A3.72,3.72,0,0,1,1122.1,108.3Z" transform="translate(0 17.6)"/><path class="cls-20" d="M1122,104.9a3.39,3.39,0,0,1-1.6-4C1120.5,100.9,1122.4,102,1122,104.9Z" transform="translate(0 17.6)"/><path class="cls-21" d="M1122.6,101.5a3.47,3.47,0,0,1-.9-4.3A4,4,0,0,1,1122.6,101.5Z" transform="translate(0 17.6)"/><path class="cls-22" d="M1123.7,98.2a3.36,3.36,0,0,1,0-4.4A4.14,4.14,0,0,1,1123.7,98.2Z" transform="translate(0 17.6)"/><path class="cls-23" d="M1125.5,95.2c0,.1-1.5-2.2.9-4.4A4.26,4.26,0,0,1,1125.5,95.2Z" transform="translate(0 17.6)"/><path class="cls-24" d="M1127.8,92.5a3.48,3.48,0,0,1,1.8-4.2C1129.7,88.4,1130.2,90.6,1127.8,92.5Z" transform="translate(0 17.6)"/><path class="cls-25" d="M1131.5,122.6a4.68,4.68,0,0,0-1.6-3.8C1129.9,118.7,1128.5,121,1131.5,122.6Z" transform="translate(0 17.6)"/><path class="cls-26" d="M1128.4,120.5a4.69,4.69,0,0,0-.7-4C1127.7,116.4,1125.9,118.4,1128.4,120.5Z" transform="translate(0 17.6)"/><path class="cls-27" d="M1125.9,117.9a4.35,4.35,0,0,0,.1-4S1123.9,115.5,1125.9,117.9Z" transform="translate(0 17.6)"/><path class="cls-28" d="M1124,115a4.32,4.32,0,0,0,.9-3.9C1124.9,111,1122.6,112.2,1124,115Z" transform="translate(0 17.6)"/><path class="cls-29" d="M1122.8,111.7a4.16,4.16,0,0,0,1.5-3.7A2.88,2.88,0,0,0,1122.8,111.7Z" transform="translate(0 17.6)"/><path class="cls-30" d="M1122.1,108.3a4.3,4.3,0,0,0,2.2-3.3A2.66,2.66,0,0,0,1122.1,108.3Z" transform="translate(0 17.6)"/><path class="cls-31" d="M1122,104.9a4.07,4.07,0,0,0,2.7-2.8C1124.8,102,1122.2,101.8,1122,104.9Z" transform="translate(0 17.6)"/><path class="cls-32" d="M1122.6,101.5a4.07,4.07,0,0,0,3.2-2.3S1123.3,98.5,1122.6,101.5Z" transform="translate(0 17.6)"/><path class="cls-33" d="M1123.7,98.2a4.19,4.19,0,0,0,3.6-1.7S1125,95.4,1123.7,98.2Z" transform="translate(0 17.6)"/><path class="cls-34" d="M1125.5,95.2a4.06,4.06,0,0,0,3.9-1S1127.3,92.6,1125.5,95.2Z" transform="translate(0 17.6)"/><path class="cls-35" d="M1127.8,92.5a4.35,4.35,0,0,0,4.1-.2C1132,92.3,1130.2,90.3,1127.8,92.5Z" transform="translate(0 17.6)"/><path class="cls-36" d="M1129.7,91c-.1,0,2.2-3,4.8-2.4C1134.5,88.7,1133.3,90.3,1129.7,91Z" transform="translate(0 17.6)"/><path class="cls-37" d="M1154.7,122.6a3.42,3.42,0,0,0,4.5-.4S1157.4,120.9,1154.7,122.6Z" transform="translate(0 17.6)"/><path class="cls-38" d="M1157.8,120.5a3.24,3.24,0,0,0,4.2-1.2S1160,118.4,1157.8,120.5Z" transform="translate(0 17.6)"/><path class="cls-39" d="M1160.3,117.9a3.33,3.33,0,0,0,3.9-1.9A3.85,3.85,0,0,0,1160.3,117.9Z" transform="translate(0 17.6)"/><path class="cls-40" d="M1162.2,115a3.16,3.16,0,0,0,3.4-2.6A3.65,3.65,0,0,0,1162.2,115Z" transform="translate(0 17.6)"/><path class="cls-41" d="M1163.4,111.7a3.23,3.23,0,0,0,2.9-3.1A3.82,3.82,0,0,0,1163.4,111.7Z" transform="translate(0 17.6)"/><path class="cls-42" d="M1164.1,108.3a3.26,3.26,0,0,0,2.3-3.6C1166.3,104.7,1164.2,105.4,1164.1,108.3Z" transform="translate(0 17.6)"/><path class="cls-43" d="M1164.2,104.9a3.39,3.39,0,0,0,1.6-4C1165.7,100.9,1163.8,102,1164.2,104.9Z" transform="translate(0 17.6)"/><path class="cls-44" d="M1163.6,101.5a3.47,3.47,0,0,0,.9-4.3C1164.4,97.2,1162.7,98.7,1163.6,101.5Z" transform="translate(0 17.6)"/><path class="cls-45" d="M1162.5,98.2a3.36,3.36,0,0,0,0-4.4A4.14,4.14,0,0,0,1162.5,98.2Z" transform="translate(0 17.6)"/><path class="cls-46" d="M1160.7,95.2c0,.1,1.5-2.2-.9-4.4A4.26,4.26,0,0,0,1160.7,95.2Z" transform="translate(0 17.6)"/><path class="cls-47" d="M1158.3,92.5a3.48,3.48,0,0,0-1.8-4.2A4.2,4.2,0,0,0,1158.3,92.5Z" transform="translate(0 17.6)"/><path class="cls-48" d="M1154.7,122.6a4.68,4.68,0,0,1,1.6-3.8C1156.3,118.7,1157.7,121,1154.7,122.6Z" transform="translate(0 17.6)"/><path class="cls-49" d="M1157.8,120.5a4.69,4.69,0,0,1,.7-4C1158.5,116.4,1160.3,118.4,1157.8,120.5Z" transform="translate(0 17.6)"/><path class="cls-50" d="M1160.3,117.9a4.35,4.35,0,0,1-.1-4A2.8,2.8,0,0,1,1160.3,117.9Z" transform="translate(0 17.6)"/><path class="cls-51" d="M1162.2,115a4.32,4.32,0,0,1-.9-3.9C1161.2,111,1163.6,112.2,1162.2,115Z" transform="translate(0 17.6)"/><path class="cls-52" d="M1163.4,111.7a4.16,4.16,0,0,1-1.5-3.7A2.88,2.88,0,0,1,1163.4,111.7Z" transform="translate(0 17.6)"/><path class="cls-53" d="M1164.1,108.3a4.3,4.3,0,0,1-2.2-3.3A2.66,2.66,0,0,1,1164.1,108.3Z" transform="translate(0 17.6)"/><path class="cls-54" d="M1164.2,104.9a4.07,4.07,0,0,1-2.7-2.8C1161.4,102,1164,101.8,1164.2,104.9Z" transform="translate(0 17.6)"/><path class="cls-55" d="M1163.6,101.5a4.07,4.07,0,0,1-3.2-2.3S1162.9,98.5,1163.6,101.5Z" transform="translate(0 17.6)"/><path class="cls-56" d="M1162.5,98.2a4.19,4.19,0,0,1-3.6-1.7C1158.8,96.5,1161.2,95.4,1162.5,98.2Z" transform="translate(0 17.6)"/><path class="cls-57" d="M1160.7,95.2a4.06,4.06,0,0,1-3.9-1S1158.9,92.6,1160.7,95.2Z" transform="translate(0 17.6)"/><path class="cls-58" d="M1158.3,92.5a4.35,4.35,0,0,1-4.1-.2C1154.1,92.3,1155.9,90.3,1158.3,92.5Z" transform="translate(0 17.6)"/><path class="cls-59" d="M1156.4,91c.1,0-2.2-3-4.8-2.4C1151.7,88.7,1152.9,90.3,1156.4,91Z" transform="translate(0 17.6)"/><path class="cls-60" d="M1151.6,123.8c0,.1,0,.1.1.2,15.5-5.1,16.7-26.2,3.7-33.9,0,.1-.1.1-.1.2C1168.2,97.9,1167,118.7,1151.6,123.8Z" transform="translate(0 17.6)"/><text class="cls-61" transform="translate(1133.52 122.63) scale(1.06 1)">Best</text><text class="cls-62" transform="translate(1127.68 130.62)"><tspan class="cls-63">A</tspan><tspan class="cls-64" x="4.69" y="0">W</tspan><tspan x="11.23" y="0">ARDS</tspan></text><rect class="cls-7" x="1066.5" width="13.5" height="79.9"/><path class="cls-12" d="M1099.7,64.9c0,2.3-3.2,4.1-3.8,6.2s1.3,5.4.2,7.3-4.8,1.9-6.3,3.4-1.5,5.3-3.4,6.5-5-.8-7.2-.3-3.8,3.9-6.1,3.9-4-3.3-6.1-3.9-5.3,1.4-7.2.3-1.8-4.9-3.4-6.5-5.2-1.5-6.3-3.4.8-5.1.2-7.3-3.8-3.9-3.8-6.2,3.2-4.1,3.8-6.2-1.3-5.4-.2-7.3,4.8-1.9,6.3-3.4,1.5-5.3,3.4-6.5,5,.8,7.2.3,3.8-3.9,6.1-3.9,4,3.3,6.1,3.9,5.3-1.4,7.2-.3,1.8,4.9,3.4,6.5,5.2,1.5,6.3,3.4-.8,5.1-.2,7.3S1099.7,62.6,1099.7,64.9Z" transform="translate(0 17.6)"/><ellipse class="cls-13" cx="1073.2" cy="82.5" rx="20.8" ry="21.2"/><path class="cls-65" d="M1064.6,77a2.56,2.56,0,0,1-3.4-.3S1062.5,75.7,1064.6,77Z" transform="translate(0 17.6)"/><path class="cls-66" d="M1062.2,75.4a2.46,2.46,0,0,1-3.2-.9A3,3,0,0,1,1062.2,75.4Z" transform="translate(0 17.6)"/><path class="cls-67" d="M1060.3,73.4a2.45,2.45,0,0,1-2.9-1.4A2.8,2.8,0,0,1,1060.3,73.4Z" transform="translate(0 17.6)"/><path class="cls-68" d="M1058.9,71.2a2.42,2.42,0,0,1-2.6-1.9C1056.4,69.2,1058,69.1,1058.9,71.2Z" transform="translate(0 17.6)"/><path class="cls-69" d="M1057.9,68.7a2.5,2.5,0,0,1-2.2-2.4A2.94,2.94,0,0,1,1057.9,68.7Z" transform="translate(0 17.6)"/><path class="cls-70" d="M1057.4,66.2a2.44,2.44,0,0,1-1.7-2.7C1055.8,63.4,1057.4,64,1057.4,66.2Z" transform="translate(0 17.6)"/><path class="cls-71" d="M1057.4,63.5a2.44,2.44,0,0,1-1.2-3A3,3,0,0,1,1057.4,63.5Z" transform="translate(0 17.6)"/><path class="cls-72" d="M1057.8,60.9a2.55,2.55,0,0,1-.7-3.2A2.69,2.69,0,0,1,1057.8,60.9Z" transform="translate(0 17.6)"/><path class="cls-73" d="M1058.7,58.5a2.48,2.48,0,0,1,0-3.3A3.16,3.16,0,0,1,1058.7,58.5Z" transform="translate(0 17.6)"/><path class="cls-74" d="M1060,56.2a2.59,2.59,0,0,1,.6-3.3C1060.7,52.9,1061.5,54.5,1060,56.2Z" transform="translate(0 17.6)"/><path class="cls-75" d="M1061.8,54.2a2.46,2.46,0,0,1,1.4-3.1A3.24,3.24,0,0,1,1061.8,54.2Z" transform="translate(0 17.6)"/><path class="cls-76" d="M1064.6,77a3.46,3.46,0,0,0-1.2-2.9C1063.3,74,1062.3,75.7,1064.6,77Z" transform="translate(0 17.6)"/><path class="cls-77" d="M1062.2,75.4a3.15,3.15,0,0,0-.6-3C1061.7,72.3,1060.3,73.8,1062.2,75.4Z" transform="translate(0 17.6)"/><path class="cls-78" d="M1060.3,73.4a3.33,3.33,0,0,0,.1-3C1060.4,70.3,1058.9,71.6,1060.3,73.4Z" transform="translate(0 17.6)"/><path class="cls-79" d="M1058.9,71.2a3.46,3.46,0,0,0,.7-3A2.06,2.06,0,0,0,1058.9,71.2Z" transform="translate(0 17.6)"/><path class="cls-80" d="M1058,68.7a3.35,3.35,0,0,0,1.2-2.8A2.06,2.06,0,0,0,1058,68.7Z" transform="translate(0 17.6)"/><path class="cls-81" d="M1057.4,66.2a3,3,0,0,0,1.6-2.5C1059.1,63.7,1057.2,63.8,1057.4,66.2Z" transform="translate(0 17.6)"/><path class="cls-82" d="M1057.4,63.5a3,3,0,0,0,2-2.1A1.92,1.92,0,0,0,1057.4,63.5Z" transform="translate(0 17.6)"/><path class="cls-83" d="M1057.8,60.9a3.1,3.1,0,0,0,2.4-1.7A2,2,0,0,0,1057.8,60.9Z" transform="translate(0 17.6)"/><path class="cls-84" d="M1058.7,58.5a2.93,2.93,0,0,0,2.7-1.3S1059.7,56.3,1058.7,58.5Z" transform="translate(0 17.6)"/><path class="cls-85" d="M1060,56.2a3.12,3.12,0,0,0,2.9-.7C1063,55.5,1061.4,54.2,1060,56.2Z" transform="translate(0 17.6)"/><path class="cls-86" d="M1061.8,54.2a3.28,3.28,0,0,0,3.1-.2C1065,54,1063.6,52.5,1061.8,54.2Z" transform="translate(0 17.6)"/><path class="cls-87" d="M1063.2,53c-.1,0,1.7-2.3,3.6-1.8C1066.8,51.3,1065.9,52.5,1063.2,53Z" transform="translate(0 17.6)"/><path class="cls-88" d="M1082.2,77a2.56,2.56,0,0,0,3.4-.3A3.08,3.08,0,0,0,1082.2,77Z" transform="translate(0 17.6)"/><path class="cls-89" d="M1084.5,75.4a2.46,2.46,0,0,0,3.2-.9A3,3,0,0,0,1084.5,75.4Z" transform="translate(0 17.6)"/><path class="cls-90" d="M1086.4,73.4a2.45,2.45,0,0,0,2.9-1.4A2.8,2.8,0,0,0,1086.4,73.4Z" transform="translate(0 17.6)"/><path class="cls-91" d="M1087.8,71.2a2.42,2.42,0,0,0,2.6-1.9C1090.3,69.2,1088.7,69.1,1087.8,71.2Z" transform="translate(0 17.6)"/><path class="cls-92" d="M1088.8,68.7a2.5,2.5,0,0,0,2.2-2.4A2.94,2.94,0,0,0,1088.8,68.7Z" transform="translate(0 17.6)"/><path class="cls-93" d="M1089.3,66.2a2.44,2.44,0,0,0,1.7-2.7C1091,63.4,1089.3,64,1089.3,66.2Z" transform="translate(0 17.6)"/><path class="cls-94" d="M1089.3,63.5a2.44,2.44,0,0,0,1.2-3A3,3,0,0,0,1089.3,63.5Z" transform="translate(0 17.6)"/><path class="cls-95" d="M1088.9,60.9a2.55,2.55,0,0,0,.7-3.2A2.69,2.69,0,0,0,1088.9,60.9Z" transform="translate(0 17.6)"/><path class="cls-96" d="M1088,58.5a2.48,2.48,0,0,0,0-3.3A3.16,3.16,0,0,0,1088,58.5Z" transform="translate(0 17.6)"/><path class="cls-97" d="M1086.7,56.2a2.59,2.59,0,0,0-.6-3.3A2.91,2.91,0,0,0,1086.7,56.2Z" transform="translate(0 17.6)"/><path class="cls-98" d="M1084.9,54.2a2.46,2.46,0,0,0-1.4-3.1A3.24,3.24,0,0,0,1084.9,54.2Z" transform="translate(0 17.6)"/><path class="cls-99" d="M1082.1,77a3.46,3.46,0,0,1,1.2-2.9C1083.4,74,1084.4,75.7,1082.1,77Z" transform="translate(0 17.6)"/><path class="cls-100" d="M1084.5,75.4a3.15,3.15,0,0,1,.6-3C1085,72.3,1086.4,73.8,1084.5,75.4Z" transform="translate(0 17.6)"/><path class="cls-101" d="M1086.4,73.4a3.33,3.33,0,0,1-.1-3C1086.3,70.3,1087.8,71.6,1086.4,73.4Z" transform="translate(0 17.6)"/><path class="cls-102" d="M1087.8,71.2a3.46,3.46,0,0,1-.7-3A2.06,2.06,0,0,1,1087.8,71.2Z" transform="translate(0 17.6)"/><path class="cls-103" d="M1088.8,68.7a3.35,3.35,0,0,1-1.2-2.8A2.22,2.22,0,0,1,1088.8,68.7Z" transform="translate(0 17.6)"/><path class="cls-104" d="M1089.3,66.2a3,3,0,0,1-1.6-2.5C1087.6,63.7,1089.5,63.8,1089.3,66.2Z" transform="translate(0 17.6)"/><path class="cls-105" d="M1089.3,63.5a3,3,0,0,1-2-2.1A1.92,1.92,0,0,1,1089.3,63.5Z" transform="translate(0 17.6)"/><path class="cls-106" d="M1088.9,60.9a3.1,3.1,0,0,1-2.4-1.7A2,2,0,0,1,1088.9,60.9Z" transform="translate(0 17.6)"/><path class="cls-107" d="M1088,58.5a2.93,2.93,0,0,1-2.7-1.3A1.93,1.93,0,0,1,1088,58.5Z" transform="translate(0 17.6)"/><path class="cls-108" d="M1086.7,56.2a3.12,3.12,0,0,1-2.9-.7C1083.7,55.5,1085.3,54.2,1086.7,56.2Z" transform="translate(0 17.6)"/><path class="cls-109" d="M1084.9,54.2a3.28,3.28,0,0,1-3.1-.2C1081.7,54,1083.1,52.5,1084.9,54.2Z" transform="translate(0 17.6)"/><path class="cls-110" d="M1083.5,53c.1,0-1.7-2.3-3.6-1.8C1079.9,51.3,1080.8,52.5,1083.5,53Z" transform="translate(0 17.6)"/><path class="cls-111" d="M1079.8,77.9c0,.1,0,.1.1.2,11.8-3.9,12.7-19.8,2.8-25.6l-.1.1C1092.3,58.3,1091.4,74,1079.8,77.9Z" transform="translate(0 17.6)"/><text class="cls-112" transform="translate(1066.11 81.25) scale(1.06 1)">Best</text><text class="cls-113" transform="translate(1061.68 87.3)"><tspan class="cls-114">A</tspan><tspan class="cls-115" x="3.55" y="0">W</tspan><tspan x="8.5" y="0">ARDS</tspan></text><path class="cls-116" d="M307.2,161.4a8.24,8.24,0,0,0-3.1.1c-1.1.4,1.2-5.9,1.2-5.9Z" transform="translate(0 17.6)"/><path class="cls-116" d="M305.3,155.6l2.9-3.6c.4-.5,2-.9,4-1.3a10.12,10.12,0,0,1,5,.3,1.63,1.63,0,0,1,.7,1.2,4.11,4.11,0,0,1-.2,1.7,2,2,0,0,1,.2,1.9,1.65,1.65,0,0,1-.2,1.9,1.49,1.49,0,0,1-.1,1.6,15.92,15.92,0,0,0-2.2.8,28,28,0,0,1-7.5,1.2C307.9,161.4,304,161.8,305.3,155.6Z" transform="translate(0 17.6)"/><path class="cls-117" d="M311.2,155.4a9.8,9.8,0,0,1-.8,2.5c-.4.5,3.5,2.2,3.5,2.2S313.6,156,311.2,155.4Z" transform="translate(0 17.6)"/><path class="cls-118" d="M316.7,151.1s-4.9,1-4.8,1.8a1.5,1.5,0,0,0,.6,1.1l-1.8,1.3a1.32,1.32,0,0,0,1.2,1.9s-.8,1.4,1.1,1.5c0,0-.1,1.2.7,1.4a16.11,16.11,0,0,0,4-.6s.6-.5.1-1.6a1.67,1.67,0,0,0,.2-1.9,1.82,1.82,0,0,0-.2-1.9s1-1.9-.5-2.9C317.2,151,316.9,151,316.7,151.1Z" transform="translate(0 17.6)"/><path class="cls-116" d="M311.8,152.8a34.2,34.2,0,0,0-.6-6.7c-.1-.4-.1-.6-.6-.7s-.9,1.7-1.2,3.1a15.68,15.68,0,0,1-1.3,3.4S308.4,153.5,311.8,152.8Z" transform="translate(0 17.6)"/><path class="cls-119" d="M309.3,161.6s-24.3,7-28.4,6c-1.9-.5-8-4.4-10.3-7.5a34.57,34.57,0,0,1-2.2-3.1h0c-2.9-4.1-5.1-8.1-5.1-8.1s-8.5-9.9-1.7-14.4a11.85,11.85,0,0,1,3.4,0c4.2,1.2,7.6,9.7,8.2,11s6.9,12.9,7.3,13.1,4.4.6,7.4-.1c4.3-1,17.8-4.6,17.8-4.6Z" transform="translate(0 17.6)"/><path class="cls-120" d="M241.1,291.6a27.24,27.24,0,0,1-2.5,3.9c-1,1.1-4.7,3.1-4.7,6.4,0,3.6,6.3,2.6,8.8,2.4s2.7-2,3.7-4.1,2.1-1.7,2.3-3.3-1-5.4-1-5.4h-6.6Z" transform="translate(0 17.6)"/><path class="cls-120" d="M278.8,291.3s3.1,3.4,6.2,4.1,5.3,1.6,5.3,3.6-8.9,3.2-12.5,1.3c-5.3-2.9-5.8-2.1-6.4-3.5s.7-5.4.7-5.9S278.8,291.3,278.8,291.3Z" transform="translate(0 17.6)"/><path class="cls-121" d="M278.5,289.6a9,9,0,0,1,.3,1.6c-.1,0-7,.9-6.8-.4.2-1,.4-2.2.4-2.2Z" transform="translate(0 17.6)"/><path class="cls-121" d="M247.6,290.5a7.77,7.77,0,0,1,.2,1.6c-.1,0-7,1.3-7,0a6,6,0,0,1,.6-2.2Z" transform="translate(0 17.6)"/><path class="cls-122" d="M272.2,194s2.5,24.5,3.8,32.8c1.5,9.8,2.1,17.9,2.5,22.9.5,6.4.6,37.7,1,39.6s-8.3.5-8.3.5-4.3-41-5.9-47.8c-1.5-6.3-7-33.5-8.4-31.8s-3,31.8-4.1,36.7-4.1,44-4.1,44-6.9,1.4-8.8-.2c0,0-.8-33.6-.2-43,.2-3.6-4.2-42.7,1.5-58.5C244.3,181.2,272.2,194,272.2,194Z" transform="translate(0 17.6)"/><path class="cls-123" d="M271.8,189.9l.5,4.5s-9.4,4.4-33.6,7l-.1-4.1Z" transform="translate(0 17.6)"/><path class="cls-119" d="M254.4,133.5s3,.4,9.9.9c1.2.8,5.1,10.8,5.4,13.4s.6,12.9-.1,17.1,4.4,22.8,2.6,25.9c0,0-17.1,7.1-34.3,6.7,0,0,.2-17-1.1-22.6-1.6-7.1-5.5-23.4-5.5-23.4s-1.4-12.8.4-13.7c4-2.1,13.8-3.7,13.8-3.7Z" transform="translate(0 17.6)"/><path class="cls-124" d="M233.9,204a3.53,3.53,0,0,1-.5-1.2,10.33,10.33,0,0,0-.1-1.4c0-.2,0-.3-.1-.4a8.76,8.76,0,0,1-.4-2.3c0-1.1.6-4.8.6-4.8l3.2-.1,2.7-.9s3.1,5.6,3.2,6.6v.3a6.4,6.4,0,0,1-.5,1.9c0,.2-.4,1.8-.8,2a1.62,1.62,0,0,1-1.5.1,3.31,3.31,0,0,1-2.1.3,2.69,2.69,0,0,1-2.1,0C235.6,204.1,234.4,204.5,233.9,204Z" transform="translate(0 17.6)"/><path class="cls-119" d="M235.8,137.1c1.1.2,2.7,2.6,2.8,7.8a21.41,21.41,0,0,1-1.8,9.6c-.5,1.4-3.4,10.7-3.2,11.9.6,3.3,2.1,11.9,2.3,12.5.4,1.1,3.4,13.9,3.4,13.9l-6.6,2.9s-4-14.4-5.4-18.7a43.46,43.46,0,0,1-2.2-11.5c-.3-4.8,1.3-15.7,1.6-16.6C227.1,148.2,228.2,135.7,235.8,137.1Z" transform="translate(0 17.6)"/><path class="cls-119" d="M258.4,134s.3-2.4-7.2-2.2-12.2,2.4-12.1,4.6,19.5,5.4,19.5,5.4Z" transform="translate(0 17.6)"/><path class="cls-125" d="M248,107.3s9.9-4.9,10.8,8.9-1.4,15.5-8.5,14.3-8.5-9.8-9.8-13.9S244.7,108.2,248,107.3Z" transform="translate(0 17.6)"/><path class="cls-125" d="M256.3,135.5s-2.4,1.4-10.8-1.3a38.35,38.35,0,0,0-2.5-10.6c-2.1-5,11.6,5.7,11.6,5.7s-.1.6.1,1.3a11.52,11.52,0,0,0,.6,2.1C255.9,134.5,255.8,134.2,256.3,135.5Z" transform="translate(0 17.6)"/><path class="cls-126" d="M242.6,123.2s-.4-3.7,1.1-4.2,2.5,1.5,2.5,1.5l1.2-.2s-1.5-3.6-.1-4.6,10.2-1.2,11.1-2.6-1.4-8.6-3.9-9.1-9.1-1.3-12.8,2.9c0,0-3.4,1.9-3.2,4.8S241.2,121.4,242.6,123.2Z" transform="translate(0 17.6)"/><path class="cls-127" d="M255.3,132.8c-8.2-.5-9.9-4.9-9.9-5,3.6,3.7,9.3,2.9,9.3,2.9A11.52,11.52,0,0,0,255.3,132.8Z" transform="translate(0 17.6)"/><path class="cls-125" d="M245.2,117.3c-.6-1.2-3.2-.7-2.7,1.2s2.9,4.6,3.7,4S246.1,118.9,245.2,117.3Z" transform="translate(0 17.6)"/><path class="cls-116" d="M362.9,109.3s2.8,2.9,2.9,3.2,1.8-4.8,1.8-4.8Z" transform="translate(0 17.6)"/><path class="cls-116" d="M367.5,107.7s1-3.1,1.1-3.6a7.88,7.88,0,0,0-1-3.3,8.65,8.65,0,0,0-2.4-3.2,1.75,1.75,0,0,0-1.2.1,3,3,0,0,0-1,.9,1.65,1.65,0,0,0-1.4.8,1.31,1.31,0,0,0-1.2,1s-.9.1-1.1.8c0,0,.4,1.3.5,1.9a30.45,30.45,0,0,0,3.1,6.3C362.9,109.3,364.6,110.5,367.5,107.7Z" transform="translate(0 17.6)"/><path class="cls-117" d="M365.2,103.7a7.86,7.86,0,0,0-1.2,1.8c-.1.5-3.5-.9-3.5-.9S363.6,102.5,365.2,103.7Z" transform="translate(0 17.6)"/><path class="cls-118" d="M365.4,98s1.5,3.8,1,4.1a1.17,1.17,0,0,1-1,.1l-.1,1.8s-.7,1.2-1.8,0c0,0-.6,1.2-1.5,0,0,0-.7.6-1.3.1a14.82,14.82,0,0,1-1.4-3s0-.6,1.1-.8a1.53,1.53,0,0,1,1.2-1,1.61,1.61,0,0,1,1.4-.8s.8-1.6,2.2-1A1.69,1.69,0,0,0,365.4,98Z" transform="translate(0 17.6)"/><path class="cls-116" d="M368.6,104a14,14,0,0,0-3.7-2.3c-.4-.1-.7-.2-1,.1s-.1,1,.8,1.9a8.43,8.43,0,0,1,1.6,2.3S367.4,106.6,368.6,104Z" transform="translate(0 17.6)"/><path class="cls-128" d="M409.4,115.6s3.5-2.2,6.6,1.7,2,7.7,1.3,11.3-3.8,11.5-2.4,15.1-.4,5.4-.4,5.4-10.7,2.7-9.5-13.4S409.4,115.6,409.4,115.6Z" transform="translate(0 17.6)"/><path class="cls-129" d="M398.6,152.4s.8-4-1.1-6.8-5.5-4.9-6.7-5.8-11.2-11.2-11.4-11.7-3.1-6.7-5.5-10.9-5.3-10.8-5.3-10.8l-7.2,5.6s7.8,15,10.9,18.7c3.3,4,19.7,22.5,19.7,22.5S395.4,158,398.6,152.4Z" transform="translate(0 17.6)"/><path class="cls-130" d="M374.9,293.8s-4.4,5.9-3.8,6.8,5.2,1.1,8,0,2.9-7.9,4.1-10.9c.5-1.2-.6-4.9-2.2-5.1a6.23,6.23,0,0,0-3.3.5S379.4,289.2,374.9,293.8Z" transform="translate(0 17.6)"/><path class="cls-116" d="M377.7,285a32.69,32.69,0,0,0-1.3,4.9c-.3,2-3.1,6.2-3,6.7s3.7,1,5.2-.4,2.4-5.4,2.7-7.7a17.68,17.68,0,0,1,.7-3.3S379.1,283.6,377.7,285Z" transform="translate(0 17.6)"/><polygon class="cls-130" points="383.4 306.8 383.4 312.9 382.6 312.9 382.6 308.2 383.4 306.8"/><path class="cls-130" d="M433.3,294.1s4.2,5.8,3.6,6.7-5.2,1.1-8,0-2.9-7.9-4.1-10.9c-.5-1.2.6-4.9,2.2-5.1a6.78,6.78,0,0,1,3.5.6S428.8,289.5,433.3,294.1Z" transform="translate(0 17.6)"/><path class="cls-116" d="M430.5,285.3a29.46,29.46,0,0,0,.9,4.6c.5,1.9,3.4,6.3,3.3,6.8s-3.7,1-5.2-.4-2.6-5.3-2.7-7.7a15.46,15.46,0,0,1,.3-4A3.48,3.48,0,0,1,430.5,285.3Z" transform="translate(0 17.6)"/><polygon class="cls-130" points="424.7 307 424.7 313.1 425.5 313.1 425.5 308.4 424.7 307"/><path class="cls-131" d="M394.7,189.4s-3.7,17.4-4.6,21.8-3.3,25.6-3.5,29.2-3.9,17.2-3.7,18.5-5.6,26.8-5.6,26.8,5.9,1.6,6.9.5c.8-.9,9.4-24.3,9.4-30.7,0-8.9,4.7-20.9,5.5-22.9,7.9-18.5,8.2-23.7,9.2-24.9s1.1.7,1.7,3.4,4.7,24.6,5.4,27.5,2.3,12.6,3.3,17.5c1.3,6.7,6.3,29.6,6.3,29.6s4.8,1.1,6.8.2c.6-.3-2.2-26-3.3-31.8-1.2-6.4-1.8-15.1-2-17.6-1.9-27.6-.1-27.5-6.2-44.9C408.9,158.9,394.7,189.4,394.7,189.4Z" transform="translate(0 17.6)"/><path class="cls-132" d="M404.4,143.3a44.22,44.22,0,0,1-5.3,2.1c-1.4.3-6.6,7.1-7.5,9.6s0,6.2,1.9,10.6.1,5.9,1,10.2a106.73,106.73,0,0,1,1.5,16.1c-.2,2.4,21.2,7.9,26.2,3.5,0,0-4.3-12.6-5-13.7s-.1-7,.5-8.5,4.6-14.4,4.6-14.4,3.2-9.9.3-12.2c-2.5-2-9.5-2.7-10.7-3.1A22.53,22.53,0,0,0,404.4,143.3Z" transform="translate(0 17.6)"/><path class="cls-129" d="M412.5,143.7s-5.5,8.3-5.7,12,2,31,3.9,39.8,13.1.4,13.1.4-6.9-15.8-3.5-27.4,4.7-16.2,4.7-16.2-1.2-6.4-5.4-7.4C415.9,144.1,412.5,143.7,412.5,143.7Z" transform="translate(0 17.6)"/><path class="cls-129" d="M391.2,156.1s-1,3.5,2.9,11.2c0,0-.1,9.9-.2,13s-2.3,14.2-2.3,14.2l5.3,2.8a1.09,1.09,0,0,0,1.6-1.1c-1.1-8.9-4.6-42.6,3-51.7l-3,.9C398.4,145.5,393,149.9,391.2,156.1Z" transform="translate(0 17.6)"/><path class="cls-129" d="M401.8,143.6s-7.4-1.2-9.2-2.5l4.9,9.5Z" transform="translate(0 17.6)"/><path class="cls-133" d="M403.1,152l-2.4-2.8,2.1-7.3A47.42,47.42,0,0,1,403.1,152Z" transform="translate(0 17.6)"/><path class="cls-116" d="M402.5,138.8a84.89,84.89,0,0,1,.6,9.5s4.1,4.1,8.7-4.7a12.43,12.43,0,0,1-.5-8.6C412.8,130,402.5,138.8,402.5,138.8Z" transform="translate(0 17.6)"/><polygon class="cls-134" points="400.7 166.8 397.6 168.2 402.8 159.5 400.7 166.8"/><path class="cls-127" d="M402.7,140.8l.2,1.4s3.2.6,7.4-4.5C410.2,137.7,407.2,141.3,402.7,140.8Z" transform="translate(0 17.6)"/><polygon class="cls-116" points="403.1 165.9 403.1 169.6 407.8 166.1 403.1 165.9"/><polygon class="cls-133" points="403.1 169.6 405.1 167.2 411.6 160.7 412.7 162.2 403.1 169.6"/><polygon class="cls-134" points="405.1 167.2 407.8 170.8 413.4 161.4 411.6 160.7 405.1 167.2"/><path class="cls-116" d="M432.4,207.9a4.05,4.05,0,0,0,.3-1,10.42,10.42,0,0,1-.1-1.1v-.4a10.36,10.36,0,0,0,.1-2c-.2-.9-1.8-4.5-1.8-4.5l-2.2.3h-2.1s-2,5.1-1.9,5.9v.2a5.71,5.71,0,0,0,.6,1.5c0,.1.5,1.4.9,1.6a1.43,1.43,0,0,0,1.3-.1,4.22,4.22,0,0,0,1.8.1,2,2,0,0,0,1.7-.3S432,208.4,432.4,207.9Z" transform="translate(0 17.6)"/><path class="cls-129" d="M414.3,144.1s6.3-.4,9.5,3.3,3,8.1,3.8,10,2.7,10.1,3.1,11.5,1.2,6.9,2.5,15c1,6,.7,17.4.7,17.4l-8.4-1.5s.7-10.5.5-16.8-5.2-17.2-7.1-22S409.4,147.1,414.3,144.1Z" transform="translate(0 17.6)"/><path class="cls-125" d="M404,140.8c-1.3,0-4.9-.5-6.6-8.7-2.2-10.1,2.6-15.3,6.7-16.3s7.9.5,10,5.7c0,0,1.5,4.1-1,11.4S405.4,140.9,404,140.8Z" transform="translate(0 17.6)"/><path class="cls-128" d="M407.3,122.4s-5.5.3-10.6,8c0,0-2.4-9.2,3.9-13.4s10.6-.6,12.1,1.2c0,0,2.2.5,2.3,4.6s2.9,10.4-3.3,13.4c0,0,.6-4.7,0-5.8S409.3,130,407.3,122.4Z" transform="translate(0 17.6)"/><path class="cls-125" d="M411.5,128.6c.3-.7,1-1,1.4-.2s-.1,3.8-1.2,4.1S410.9,130,411.5,128.6Z" transform="translate(0 17.6)"/><path class="cls-128" d="M130,128.1s-3.2-2.1-6.1,1.6-1.9,7.2-1.3,10.5,3.5,10.7,2.3,14,.3,5,.3,5,10,2.6,8.8-12.5C132.9,131.8,130,128.1,130,128.1Z" transform="translate(0 17.6)"/><path class="cls-116" d="M173.4,122.2s-2.6,2.7-2.7,3-1.6-4.5-1.6-4.5Z" transform="translate(0 17.6)"/><path class="cls-116" d="M169,120.8s-.9-2.9-1-3.4a8.28,8.28,0,0,1,.9-3.1,7.38,7.38,0,0,1,2.3-3,1.48,1.48,0,0,1,1.1.1,3.35,3.35,0,0,1,1,.8,1.6,1.6,0,0,1,1.3.7,1.31,1.31,0,0,1,1.2.9s.8.1,1,.7a8.51,8.51,0,0,0-.4,1.7,29.23,29.23,0,0,1-2.9,5.9C173.4,122.2,171.8,123.3,169,120.8Z" transform="translate(0 17.6)"/><path class="cls-117" d="M171.2,117a8.55,8.55,0,0,1,1.1,1.6c.1.5,3.3-.9,3.3-.9S172.7,115.8,171.2,117Z" transform="translate(0 17.6)"/><path class="cls-118" d="M171,111.7s-1.4,3.5-.9,3.8a1,1,0,0,0,.9.1l.1,1.7s.7,1.1,1.7,0c0,0,.5,1.1,1.4,0,0,0,.7.6,1.2.1a12.78,12.78,0,0,0,1.3-2.8s0-.6-1-.7a1.2,1.2,0,0,0-1.2-.9,1.36,1.36,0,0,0-1.3-.7s-.8-1.5-2.1-.9C171.2,111.3,171.1,111.5,171,111.7Z" transform="translate(0 17.6)"/><path class="cls-116" d="M168.1,117.3a14.1,14.1,0,0,1,3.5-2.2.94.94,0,0,1,.9.1c.2.3.1.9-.7,1.7a10.18,10.18,0,0,0-1.5,2.2S169.1,119.7,168.1,117.3Z" transform="translate(0 17.6)"/><path class="cls-135" d="M140.1,162.4s-.7-3.7,1-6.3,5.2-4.6,6.2-5.4,10.4-10.4,10.6-10.9,2.9-6.2,5.2-10.2a107.48,107.48,0,0,0,4.9-10l6.7,5.2s-7.3,14-10.2,17.5c-3.1,3.7-18.4,21-18.4,21S143.1,167.6,140.1,162.4Z" transform="translate(0 17.6)"/><path class="cls-130" d="M162.2,294.2s4.1,5.5,3.5,6.3-4.8,1-7.4,0-2.7-7.4-3.8-10.2c-.5-1.2.6-4.6,2-4.8a6.73,6.73,0,0,1,3.1.5S158,290,162.2,294.2Z" transform="translate(0 17.6)"/><path class="cls-116" d="M159.6,286.1a22.6,22.6,0,0,1,1.2,4.6c.3,1.8,2.9,5.8,2.8,6.3s-3.5.9-4.8-.3-2.2-5-2.5-7.2a23.78,23.78,0,0,0-.6-3.1S158.3,284.7,159.6,286.1Z" transform="translate(0 17.6)"/><polygon class="cls-130" points="154.3 307.5 154.3 313.3 155 313.3 155 308.8 154.3 307.5"/><path class="cls-130" d="M107.7,294.5s-3.9,5.4-3.4,6.2,4.8,1,7.4,0,2.7-7.4,3.8-10.2c.5-1.2-.6-4.6-2-4.8a7.33,7.33,0,0,0-3.2.5S111.9,290.3,107.7,294.5Z" transform="translate(0 17.6)"/><path class="cls-116" d="M110.4,286.4a35.32,35.32,0,0,1-.8,4.3c-.5,1.8-3.2,5.9-3,6.4s3.5.9,4.8-.3,2.4-5,2.5-7.2a13.41,13.41,0,0,0-.3-3.7A2.88,2.88,0,0,0,110.4,286.4Z" transform="translate(0 17.6)"/><polygon class="cls-130" points="115.7 307.7 115.7 313.5 115 313.5 115 309 115.7 307.7"/><path class="cls-131" d="M143.7,196.9s3.5,16.2,4.3,20.3,3,23.9,3.3,27.2,3.6,16,3.5,17.2,5.2,25,5.2,25-5.5,1.5-6.5.5c-.8-.9-8.8-22.6-8.8-28.7,0-8.3-4.4-19.5-5.2-21.4-7.4-17.2-7.7-22.1-8.6-23.2s-1,.7-1.6,3.2-4.4,22.9-5.1,25.6-2.1,11.8-3,16.3c-1.2,6.2-5.9,27.6-5.9,27.6s-4.5,1-6.4.2c-.6-.3,2-24.3,3.1-29.7a126,126,0,0,0,1.8-16.4c1.8-25.7.1-25.6,5.8-41.8C130.5,168.5,143.7,196.9,143.7,196.9Z" transform="translate(0 17.6)"/><path class="cls-135" d="M134.7,153.9a42.25,42.25,0,0,0,4.9,2c1.3.3,6.2,6.6,7,8.9s0,5.8-1.8,9.9-.1,5.5-.9,9.5.5,14.2.6,16.4-21.7,6-26.4,1.9c0,0,4-11.8,4.6-12.8s.1-6.5-.5-7.9-4.3-13.4-4.3-13.4-3-9.2-.3-11.4c2.4-1.8,8.8-2.5,10-2.9A26.43,26.43,0,0,1,134.7,153.9Z" transform="translate(0 17.6)"/><path class="cls-135" d="M137.1,154.2s6.9-1.2,8.5-2.3l-4.6,8.9Z" transform="translate(0 17.6)"/><path class="cls-116" d="M102.1,212.1a5.63,5.63,0,0,1-.2-1s.1-.6.2-1v-.3a4.78,4.78,0,0,1,.2-1.9,30,30,0,0,1,2.2-3.9l2,.6,1.9.3a44.58,44.58,0,0,1,1.1,5.7c0,.1,0,.1-.1.2-.2.6-.6,1-.7,1.4-.1.1-.6,1.3-1,1.3a1.25,1.25,0,0,1-1.2-.3,3.05,3.05,0,0,1-1.6-.1,2,2,0,0,1-1.6-.4C103.3,212.5,102.4,212.6,102.1,212.1Z" transform="translate(0 17.6)"/><path class="cls-135" d="M126,155.1s-5.8-1.1-9.2,2-3.7,7.2-4.7,8.8-3.6,9.1-4.1,10.3-1.8,6.2-4,13.6c-1.6,5.4-2.6,16-2.6,16l7.9-.5s.6-9.8,1.4-15.6,6.8-15.3,9.1-19.6C122.1,166,130.2,158.5,126,155.1Z" transform="translate(0 17.6)"/><path class="cls-133" d="M135.9,162l2.2-2.6-1.9-6.8A41,41,0,0,0,135.9,162Z" transform="translate(0 17.6)"/><polygon class="cls-134" points="138.1 177.1 141 178.3 136.2 170.2 138.1 177.1"/><path class="cls-116" d="M136.4,149.7s-.7,6.7-.6,8.8c0,0-3.8,3.8-8.1-4.4a11.21,11.21,0,0,0,.4-8C126.9,141.6,136.4,149.7,136.4,149.7Z" transform="translate(0 17.6)"/><path class="cls-127" d="M136.3,151.6l-.2,1.3s-3,.6-6.9-4.2A8.61,8.61,0,0,0,136.3,151.6Z" transform="translate(0 17.6)"/><polygon class="cls-116" points="135.9 176.2 135.9 179.6 131.5 176.4 135.9 176.2"/><polygon class="cls-133" points="135.9 179.6 134.1 177.4 128 171.3 126.9 172.7 135.9 179.6"/><path class="cls-125" d="M135,151.6c1.2,0,4.5-.4,6.2-8.1,2-9.4-2.4-14.3-6.3-15.2s-7.3.4-9.3,5.3c0,0-1.4,3.8.9,10.7S133.7,151.7,135,151.6Z" transform="translate(0 17.6)"/><path class="cls-128" d="M131.9,134.4s5.1.3,9.9,7.5c0,0,2.2-8.6-3.6-12.5s-9.9-.6-11.3,1.2c0,0-2,.5-2.1,4.3s-2.7,9.7,3,12.5c0,0-.5-4.4,0-5.4S130.1,141.6,131.9,134.4Z" transform="translate(0 17.6)"/><path class="cls-125" d="M128.1,140.2c-.3-.7-1-.9-1.3-.2s.1,3.5,1.1,3.8S128.6,141.5,128.1,140.2Z" transform="translate(0 17.6)"/><polygon class="cls-134" points="134.1 177.4 131.5 180.7 126.3 171.9 128 171.3 134.1 177.4"/><polygon class="cls-136" points="243.4 84.4 234.5 88.4 235.5 98.2 228.9 90.9 220 94.9 224.9 86.4 218.3 79.1 227.9 81.1 232.7 72.6 233.8 82.4 243.4 84.4"/><polygon class="cls-136" points="76.8 78.9 70.3 76.4 65.9 81.8 66.3 74.8 59.8 72.3 66.5 70.5 66.9 63.5 70.7 69.4 77.4 67.6 73 73.1 76.8 78.9"/><polygon class="cls-136" points="348.8 65.3 340.5 64.9 337.6 72.7 335.3 64.7 327 64.3 334 59.7 331.8 51.7 338.3 56.9 345.2 52.3 342.3 60.1 348.8 65.3"/><polygon class="cls-136" points="152.3 98.2 142.7 98.9 140.4 108.2 136.8 99.3 127.2 100 134.5 93.8 130.9 84.9 139.1 90 146.5 83.8 144.1 93.1 152.3 98.2"/><polygon class="cls-136" points="157.2 143.9 151.7 143.7 149.8 148.9 148.3 143.5 142.7 143.3 147.3 140.2 145.8 134.9 150.2 138.3 154.8 135.2 152.9 140.4 157.2 143.9"/><polygon class="cls-136" points="192.9 63 188.1 63.7 187.3 68.5 185.1 64.1 180.3 64.8 183.8 61.4 181.6 57.1 185.9 59.3 189.4 55.9 188.6 60.7 192.9 63"/><path class="cls-5" d="M557,265.3V262l-1.7-.2a9.32,9.32,0,0,0-1.3-3.1l1.1-1.3-2.3-2.4-1.3,1.1a10.7,10.7,0,0,0-3.1-1.3l-.2-1.7h-3.3l-.2,1.7a9.32,9.32,0,0,0-3.1,1.3l-1.3-1.1-2.4,2.4,1.1,1.3a10.7,10.7,0,0,0-1.3,3.1l-1.7.2v3.3l1.7.2a9.32,9.32,0,0,0,1.3,3.1l-1.1,1.3,2.4,2.4,1.3-1.1a10.7,10.7,0,0,0,3.1,1.3l.2,1.7h3.3l.2-1.7a9.32,9.32,0,0,0,3.1-1.3l1.3,1.1,2.4-2.4-1.1-1.3a10.7,10.7,0,0,0,1.3-3.1Zm-10.5,2.8a4.5,4.5,0,1,1,4.5-4.5A4.48,4.48,0,0,1,546.5,268.1Z" transform="translate(0 17.6)"/><path class="cls-5" d="M129.9,93.3V90l-1.7-.2a9.32,9.32,0,0,0-1.3-3.1l1.1-1.3-2.4-2.3-1.3,1.1a10.7,10.7,0,0,0-3.1-1.3l-.2-1.7h-3.3l-.2,1.7a9.32,9.32,0,0,0-3.1,1.3l-1.2-1.1-2.4,2.4,1.1,1.3a10.7,10.7,0,0,0-1.3,3.1l-1.7.2v3.3l1.7.2a9.32,9.32,0,0,0,1.3,3.1L110.8,98l2.4,2.4,1.3-1.1a10.7,10.7,0,0,0,3.1,1.3l.2,1.7h3.3l.2-1.7a9.32,9.32,0,0,0,3.1-1.3l1.3,1.1,2.4-2.4L127,96.7a10.7,10.7,0,0,0,1.3-3.1Zm-10.5,2.9a4.5,4.5,0,1,1,4.5-4.5A4.48,4.48,0,0,1,119.4,96.2Z" transform="translate(0 17.6)"/><path class="cls-5" d="M673,87.5V84.2l-1.7-.2a9.32,9.32,0,0,0-1.3-3.1l1.1-1.3-2.4-2.4-1.3,1.1a10.7,10.7,0,0,0-3.1-1.3l-.2-1.7h-3.3l-.1,1.8a9.32,9.32,0,0,0-3.1,1.3l-1.3-1.2-2.4,2.4,1.1,1.3a10.7,10.7,0,0,0-1.3,3.1l-1.7.2v3.3l1.7.2a9.32,9.32,0,0,0,1.3,3.1l-1.1,1.3,2.4,2.4,1.3-1.1a10.7,10.7,0,0,0,3.1,1.3l.2,1.7h3.3l.2-1.7a9.32,9.32,0,0,0,3.1-1.3l1.3,1.1,2.4-2.4-1.1-1.3a10.7,10.7,0,0,0,1.3-3.1Zm-10.4,2.8a4.5,4.5,0,1,1,4.5-4.5A4.55,4.55,0,0,1,662.6,90.3Z" transform="translate(0 17.6)"/><path class="cls-5" d="M820.8,261.5v-3.3l-1.7-.2a9.32,9.32,0,0,0-1.3-3.1l1.1-1.3-2.4-2.4-1.3,1.1a10.7,10.7,0,0,0-3.1-1.3l-.2-1.7h-3.3l-.2,1.7a9.32,9.32,0,0,0-3.1,1.3l-1.3-1.1-2.4,2.4,1.1,1.3a10.7,10.7,0,0,0-1.3,3.1l-1.7.2v3.3l1.7.2a9.32,9.32,0,0,0,1.3,3.1l-1.1,1.3,2.4,2.4,1.3-1.1a10.7,10.7,0,0,0,3.1,1.3l.2,1.7h3.3l.2-1.7a9.32,9.32,0,0,0,3.1-1.3l1.3,1.1,2.4-2.4-1.1-1.3a10.7,10.7,0,0,0,1.3-3.1Zm-10.5,2.9a4.5,4.5,0,1,1,4.5-4.5A4.48,4.48,0,0,1,810.3,264.4Z" transform="translate(0 17.6)"/><path class="cls-5" d="M570.4,274.6V272l-1.3-.1a6.43,6.43,0,0,0-1-2.4l.9-1-1.8-1.8-1,.9a6.43,6.43,0,0,0-2.4-1l-.1-1.3h-2.6l-.1,1.3a6.43,6.43,0,0,0-2.4,1l-1-.9-1.8,1.8.9,1a6.43,6.43,0,0,0-1,2.4l-1.3.1v2.6l1.3.1a6.43,6.43,0,0,0,1,2.4l-.9,1,1.8,1.8,1-.9a6.43,6.43,0,0,0,2.4,1l.1,1.3h2.6l.1-1.3a6.43,6.43,0,0,0,2.4-1l1,.9,1.8-1.8-.9-1a6.43,6.43,0,0,0,1-2.4Zm-8.1,2.3a3.5,3.5,0,1,1,3.5-3.5A3.54,3.54,0,0,1,562.3,276.9Z" transform="translate(0 17.6)"/><path class="cls-5" d="M557,282v-2.2l-1.1-.1a7,7,0,0,0-.8-2l.7-.9-1.5-1.5-.9.7a5,5,0,0,0-2-.8l-.1-1.1h-2.2l-.1,1.1a7,7,0,0,0-2,.8l-.9-.7-1.5,1.5.7.9a5,5,0,0,0-.8,2l-1.1.1V282l1.1.1a7,7,0,0,0,.8,2l-.7.9,1.5,1.5.9-.7a5,5,0,0,0,2,.8l.1,1.1h2.2l.1-1.1a7,7,0,0,0,2-.8l.9.7,1.5-1.5-.7-.9a5,5,0,0,0,.8-2Zm-6.9,1.9a3,3,0,1,1,3-3A3.08,3.08,0,0,1,550.1,283.9Z" transform="translate(0 17.6)"/><path class="cls-5" d="M851.4,202.4a2,2,0,1,1,2-2A2,2,0,0,1,851.4,202.4Zm0-3.4a1.4,1.4,0,1,0,0,2.8,1.43,1.43,0,0,0,1.4-1.4A1.31,1.31,0,0,0,851.4,199Z" transform="translate(0 17.6)"/><path class="cls-5" d="M834.5,235.5a2.26,2.26,0,0,1-2.3-2.3v-.3a3.24,3.24,0,0,1-2.3-3.2v-6.9h1.4c-.5-8.6-7-20.7-7.1-20.8a18.11,18.11,0,0,1-3-10.1,18.5,18.5,0,0,1,37,0,19,19,0,0,1-3,10.1c-.3.5-6.5,12.2-7.1,20.7h1.3v6.9a3.43,3.43,0,0,1-2.3,3.2v.3a2.26,2.26,0,0,1-2.3,2.3l-10.3.1Zm-4.1-12.2v6.4a2.79,2.79,0,0,0,2.1,2.7l.2.1v.8a1.79,1.79,0,0,0,1.8,1.8h10.2a1.79,1.79,0,0,0,1.8-1.8v-.8l.2-.1a2.79,2.79,0,0,0,2.1-2.7v-6.4h-1.4V223c.4-8.7,6.9-20.8,7.2-21.3a18.28,18.28,0,0,0,3-9.9,17.9,17.9,0,1,0-35.8,0,17.16,17.16,0,0,0,3,9.8c.1.1,6.8,12.6,7.2,21.4v.3Zm9.4-13.1h-.2s-.6,0-1.6-.1v-.5a16.05,16.05,0,0,0,3.1,0v.5A7.77,7.77,0,0,1,839.8,210.2Z" transform="translate(0 17.6)"/><rect class="cls-5" x="834.4" y="240.3" width="10.2" height="0.5"/><rect class="cls-5" x="839" y="175.8" width="1.1" height="9.3"/><rect class="cls-5" x="849.81" y="165.66" width="9.3" height="1.1" transform="translate(132.74 670.48) rotate(-45)"/><rect class="cls-5" x="823.87" y="161.53" width="1.1" height="9.3" transform="translate(123.96 649.23) rotate(-45)"/><rect class="cls-5" x="832.94" y="202.8" width="0.5" height="10.9" transform="translate(-25.54 213.4) rotate(-13.2)"/><rect class="cls-5" x="840.45" y="208.07" width="10.9" height="0.5" transform="translate(449 1001.43) rotate(-76.73)"/><path class="cls-5" d="M860.2,191.9h-.5a20.21,20.21,0,0,0-20.2-20.2v-.5A20.68,20.68,0,0,1,860.2,191.9Z" transform="translate(0 17.6)"/><path class="cls-5" d="M855.6,191.9h-.5a15.5,15.5,0,1,0-31,0h-.5a16,16,0,1,1,32,0Z" transform="translate(0 17.6)"/><path class="cls-5" d="M503.5,214.2a1.7,1.7,0,0,1,0-3.4,1.63,1.63,0,0,1,1.7,1.7A1.69,1.69,0,0,1,503.5,214.2Zm0-2.8a1.2,1.2,0,1,0,0,2.4,1.22,1.22,0,0,0,1.2-1.2A1.1,1.1,0,0,0,503.5,211.4Z" transform="translate(0 17.6)"/><path class="cls-5" d="M489.5,241.7a1.84,1.84,0,0,1-1.9-1.9v-.2a2.62,2.62,0,0,1-1.9-2.7v-5.7h1.2c-.4-7.2-5.8-17.2-5.9-17.3a14.78,14.78,0,0,1-2.5-8.4,15.4,15.4,0,0,1,30.8,0,15.59,15.59,0,0,1-2.5,8.4c-.2.4-5.4,10.1-5.9,17.2H502v5.7a2.88,2.88,0,0,1-1.9,2.7v.2a1.84,1.84,0,0,1-1.9,1.9l-8.7.1Zm-3.4-10.1v5.3a2.17,2.17,0,0,0,1.7,2.2l.2.1v.7a1.54,1.54,0,0,0,1.5,1.5H498a1.54,1.54,0,0,0,1.5-1.5v-.7l.2-.1a2.25,2.25,0,0,0,1.7-2.2v-5.3h-1.2v-.2c.3-7.2,5.7-17.3,6-17.7a14.89,14.89,0,1,0-27.3-8.2,14.38,14.38,0,0,0,2.5,8.2c.1.1,5.7,10.5,6,17.8v.2h-1.3v-.1Zm7.8-10.9h-.2a11.62,11.62,0,0,1-1.3-.1v-.4a11.3,11.3,0,0,0,2.6,0v.4A5.38,5.38,0,0,1,493.9,220.7Z" transform="translate(0 17.6)"/><rect class="cls-5" x="489.4" y="248.7" width="8.5" height="0.4"/><rect class="cls-5" x="493.2" y="195" width="0.9" height="7.7"/><rect class="cls-5" x="502.19" y="183.63" width="7.7" height="0.9" transform="translate(18.05 429.34) rotate(-45)"/><rect class="cls-5" x="480.68" y="180.21" width="0.9" height="7.7" transform="translate(10.77 411.72) rotate(-45)"/><rect class="cls-5" x="488.22" y="214.41" width="0.4" height="9.1" transform="translate(-37.1 134.94) rotate(-13.2)"/><rect class="cls-5" x="494.37" y="218.79" width="9.1" height="0.4" transform="translate(171.28 671.93) rotate(-76.73)"/><path class="cls-5" d="M510.9,205.5h-.4a16.84,16.84,0,0,0-16.8-16.8v-.4A17.14,17.14,0,0,1,510.9,205.5Z" transform="translate(0 17.6)"/><path class="cls-5" d="M507,205.5h-.4a12.9,12.9,0,0,0-25.8,0h-.4a13.3,13.3,0,1,1,26.6,0Z" transform="translate(0 17.6)"/><path class="cls-5" d="M289.7,95.1a1.4,1.4,0,1,1,1.4-1.4A1.37,1.37,0,0,1,289.7,95.1Zm0-2.4a1,1,0,0,0,0,2,1,1,0,0,0,1-1C290.8,93.1,290.3,92.7,289.7,92.7Z" transform="translate(0 17.6)"/><path class="cls-5" d="M278,118a1.58,1.58,0,0,1-1.6-1.6v-.2a2.25,2.25,0,0,1-1.6-2.2v-4.8h1c-.3-6-4.8-14.3-4.9-14.4a12.5,12.5,0,0,1-2.1-7,12.8,12.8,0,1,1,25.6,0,13.34,13.34,0,0,1-2.1,7c-.2.3-4.5,8.4-4.9,14.3h.9v4.8a2.25,2.25,0,0,1-1.6,2.2v.2a1.58,1.58,0,0,1-1.6,1.6l-7.1.1Zm-2.8-8.5v4.4a1.93,1.93,0,0,0,1.5,1.9l.1.1v.6a1.22,1.22,0,0,0,1.2,1.2h7.1a1.22,1.22,0,0,0,1.2-1.2v-.6l.1-.1a2,2,0,0,0,1.5-1.9v-4.4h-1v-.2c.3-6,4.8-14.4,5-14.7a12.74,12.74,0,0,0,2.1-6.9,12.4,12.4,0,1,0-24.8,0,11.87,11.87,0,0,0,2.1,6.8c.1.1,4.7,8.7,5,14.8v.2Zm6.5-9h-.1a8.66,8.66,0,0,1-1.1-.1V100a7.38,7.38,0,0,0,2.1,0v.3A2,2,0,0,1,281.7,100.5Z" transform="translate(0 17.6)"/><rect class="cls-5" x="278" y="126.7" width="7.1" height="0.3"/><rect class="cls-5" x="281.2" y="82.1" width="0.8" height="6.4"/><rect class="cls-5" x="288.59" y="69.63" width="6.4" height="0.8" transform="translate(35.94 244.44) rotate(-45)"/><rect class="cls-5" x="270.83" y="66.77" width="0.8" height="6.4" transform="translate(29.96 229.88) rotate(-45)"/><rect class="cls-5" x="277.01" y="95.3" width="0.3" height="7.5" transform="translate(-15.3 83.52) rotate(-13.2)"/><rect class="cls-5" x="282.12" y="99" width="7.5" height="0.3" transform="translate(123.76 372.24) rotate(-76.73)"/><path class="cls-5" d="M295.8,87.8h-.3a14,14,0,0,0-14-14v-.3A14.23,14.23,0,0,1,295.8,87.8Z" transform="translate(0 17.6)"/><path class="cls-5" d="M292.6,87.8h-.3a10.7,10.7,0,1,0-21.4,0h-.3a11,11,0,1,1,22,0Z" transform="translate(0 17.6)"/></g></g></g></svg>