<?xml version="1.0" encoding="utf-8"?>
<!-- Generator: Adobe Illustrator 26.0.2, SVG Export Plug-In . SVG Version: 6.00 Build 0)  -->
<svg version="1.1" id="Layer_1" xmlns="http://www.w3.org/2000/svg" xmlns:xlink="http://www.w3.org/1999/xlink" x="0px" y="0px"
	 viewBox="0 0 1245 300" style="enable-background:new 0 0 1245 300;" xml:space="preserve">
<style type="text/css">
	.st0{fill:url(#SVGID_1_);}
	.st1{opacity:0.2;}
	.st2{fill:#F6F6FE;}
	.st3{fill:#008DD7;}
	.st4{fill:#FFFAEB;}
	.st5{fill:#F15A24;}
	.st6{fill:#89DAF4;}
	.st7{fill:#FFFFFF;}
	.st8{fill:#171918;}
	.st9{fill:#00B6F0;}
	.st10{fill:#050505;}
	.st11{fill:#5FBFD6;}
	.st12{fill:#EDF8FF;}
	.st13{opacity:0.5;}
	.st14{fill:#F3FFFE;}
	.st15{fill:#DB95A3;}
	.st16{fill:#FFB699;}
	.st17{fill:#D7E4F7;}
	.st18{fill:#FCFCFE;}
	.st19{fill:#E2F2F1;}
	.st20{fill:#F6806E;}
	.st21{fill:#49263E;}
	.st22{fill:#FBFDFC;}
	.st23{fill:#F9956E;}
	.st24{fill:#F78C63;}
	.st25{fill:#FD7583;}
	.st26{fill:#4CB7D8;}
	.st27{fill:#AAC9F8;}
	.st28{fill:url(#SVGID_00000175321020021458892390000004696189573272490921_);}
</style>
<radialGradient id="SVGID_1_" cx="3329.7581" cy="514.724" r="700.62" gradientTransform="matrix(-0.76 0.55 0.47 0.5 3274.7542 -2332.6501)" gradientUnits="userSpaceOnUse">
	<stop  offset="0" style="stop-color:#73D7FF"/>
	<stop  offset="1" style="stop-color:#002BC6"/>
</radialGradient>
<rect y="0" class="st0" width="1245" height="300"/>
<g>
	<g class="st1">
		<path class="st2" d="M1192.8,0H940.3c-25.6,8.4-48.3,20-68.2,34.7l124.5,29c14.2-7.3,31.5-11.9,52.1-13.8s40.1-0.7,58.7,3.7
			c21,4.9,35.1,11.8,42.2,20.7s6.2,17.8-2.8,26.7c-6.9,6.8-17.6,12.3-32.3,16.4c-14.6,4.1-31.4,6.1-50.2,6.1
			c-18.9-0.1-44.5-3.2-77-9.2l-53.7,53.5c50.3,12.1,83.8,26.4,100.4,42.9c12.8,12.8,16.2,25,10.2,36.8c-1.8,3.5-4.3,6.9-7.7,10.3
			c-13.6,13.5-35,22.7-64.4,27.4c-29.3,4.7-59.1,3.6-89.4-3.5c-29-6.8-48.9-16.5-59.6-29.2c-10.7-12.7-10.3-28.2,1.2-46.4
			l-128.2-29.8c-29.3,34.2-32.8,65.7-10.5,94.7c8.2,10.6,19.3,20.3,33.3,29.1h430.6c5.1-3.9,9.9-8.1,14.3-12.4
			c3.4-3.4,6.5-6.9,9.1-10.3c12.7-16.7,15.5-33.4,8.6-50.1c-8.4-20.2-30.2-38.1-65.5-53.6c38.9-0.1,72.6-4.3,101.2-12.5
			c10.4-3,19.9-6.4,28.5-10.3V20.6C1230.7,12.7,1213.1,5.9,1192.8,0z"/>
	</g>
	<g class="st1">
		<path class="st2" d="M410.2,77.6c-2.1-1.9-4.3-3.7-6.6-5.4c-11.4-8.2-26.1-14.4-44-18.4c-21.7-4.8-45.6-6-71.7-3.5
			c12.7-8.5,19.9-17.1,21.7-26C311.1,15.8,308,7.7,300,0H89.5c-7.6,5.4-13.4,11.3-17.4,17.9c-7.3,12.2-5.4,25.3,5.6,39.5L145.9,40
			c-2.1-5.5-0.7-10.7,4.3-15.8s12.6-8.9,22.8-11.5c11.5-2.9,22.6-3.7,33.2-2.3c10.6,1.4,18.7,4.5,24,9.4c4.1,3.7,5.7,7.9,4.7,12.4
			S230.3,41,224,45.1c-6.3,4.1-17.6,8.6-34,13.6L222.3,88c27.9-6.9,52.3-9.5,73.2-7.6c16.1,1.4,28.7,4.7,37.8,9.9
			c2.7,1.5,5,3.2,7,5.1c8.2,7.4,9.6,15.1,4.4,23s-16.1,14-32.7,18.2c-15.9,4.1-31.5,5.2-46.9,3.3s-29.7-7-43-15.6l-70.1,18
			c22.3,17.6,50.6,28.8,85,33.5s69.7,2.5,105.8-6.8c38.1-9.8,63.3-23.4,75.6-40.9C430.8,110.5,428,93.7,410.2,77.6z"/>
	</g>
</g>
<g>
	<g>
		<g>
			<g>
				<g>
					<g>
						<path class="st3" d="M506.8,293.6c0,0-10.4-17.2-35.4-12.8C471.4,280.9,488.2,305.8,506.8,293.6z"/>
					</g>
				</g>
			</g>
		</g>
		<g>
			<g>
				<g>
					<g>
						<path class="st4" d="M523.1,298.2c0,0-3.1-34.5-45.2-46.5C477.9,251.7,485.1,303,523.1,298.2z"/>
					</g>
				</g>
			</g>
		</g>
	</g>
	<g>
		<g>
			<g>
				<g>
					<path class="st5" d="M1013.8,104.5c-2.3-1.3-4.7-2.1-7.2-2.6l-1.4-6.1l-4.3,0.2l-4.3,0.2l-0.8,6.2c-2.4,0.7-4.8,1.8-6.9,3.2
						l-5.3-3.3l-2.9,3.2l-2.9,3.2l3.8,5c-1.3,2.3-2.1,4.7-2.6,7.2l-6.1,1.4l0.2,4.3l0.2,4.3l6.2,0.8c0.7,2.4,1.8,4.8,3.2,6.9
						l-3.3,5.3l3.2,2.9l3.2,2.9l5-3.8c2.3,1.3,4.7,2.1,7.2,2.6l1.4,6.1l4.3-0.2l4.3-0.2l0.8-6.2c2.4-0.7,4.8-1.8,6.9-3.2l5.3,3.3
						l2.9-3.2l2.9-3.2l-3.8-5c1.3-2.3,2.1-4.7,2.6-7.2l6.1-1.4l-0.2-4.3l-0.2-4.3l-6.2-0.8c-0.7-2.4-1.8-4.8-3.2-6.9l3.3-5.3
						l-3.2-2.9l-3.2-2.9L1013.8,104.5z M1014.2,136c-6,6.5-16.1,7-22.6,1.1c-6.5-6-7-16.1-1.1-22.6c6-6.5,16.1-7,22.6-1.1
						C1019.7,119.3,1020.1,129.4,1014.2,136z"/>
				</g>
			</g>
		</g>
	</g>
	<g>
		<g>
			<g>
				<g>
					<path class="st6" d="M981.2,65c-1.4-0.9-2.8-1.6-4.4-2l-0.6-3.9l-2.7-0.1l-2.7-0.1l-0.9,3.9c-1.6,0.3-3.1,0.9-4.5,1.7l-3.2-2.4
						l-2,1.8l-2,1.8l2.1,3.3c-0.9,1.4-1.6,2.8-2,4.4l-3.9,0.6l-0.1,2.7l-0.1,2.7l3.9,0.9c0.3,1.6,0.9,3.1,1.7,4.5l-2.4,3.2l1.8,2
						l1.8,2l3.3-2.1c1.4,0.9,2.8,1.6,4.4,2l0.6,3.9l2.7,0.1l2.7,0.1l0.9-3.9c1.6-0.3,3.1-0.9,4.5-1.7l3.2,2.4l2-1.8l2-1.8l-2.1-3.3
						c0.9-1.4,1.6-2.8,2-4.4l3.9-0.6l0.1-2.7l0.1-2.7l-3.9-0.9c-0.3-1.6-0.9-3.1-1.7-4.5l2.4-3.2l-1.8-2l-1.8-2L981.2,65z
						 M979.8,84.8c-4.1,3.8-10.5,3.5-14.3-0.6s-3.5-10.5,0.6-14.3s10.5-3.5,14.3,0.6C984.1,74.6,983.9,81.1,979.8,84.8z"/>
				</g>
			</g>
		</g>
	</g>
	<g>
		<g>
			<g>
				<g>
					<path class="st7" d="M837.2,60.9c6.2-0.3,27.5-1.2,42.1,0.9c1.9,0.3,3.1-2,1.8-3.4c-0.8-0.8-2.1-1.5-4.3-1.6
						c0,0,0.8-13.6-9.5-14.5c-11.8-1-11.9,12.3-11.9,12.3s-5.4-5.1-9.2,1.4c0,0-6.7-3.9-10,3.3C835.7,60.1,836.3,61,837.2,60.9z"/>
				</g>
			</g>
		</g>
	</g>
	<g>
		<g>
			<g>
				<g>
					<path class="st7" d="M1059.4,65c6.2-0.3,27.5-1.2,42.1,0.9c1.9,0.3,3.1-2,1.8-3.4c-0.8-0.8-2.1-1.5-4.3-1.6
						c0,0,0.8-13.6-9.5-14.5c-11.8-1-11.9,12.3-11.9,12.3s-5.4-5.1-9.2,1.4c0,0-6.7-3.9-10,3.3C1058,64.2,1058.6,65.1,1059.4,65z"/>
				</g>
			</g>
		</g>
	</g>
	<g>
		<g>
			<g>
				<g>
					<path class="st7" d="M1145,168.8c-4.2-0.2-14.1-0.7-22.7,0.1c-3.6,0.3-6.6-2.5-6.6-6.1c0-1.5,0.6-3.2,1.9-5.1
						c5.2-7.4,14.3-0.3,14.2,3.4c0,0,1.8-5.7,7.4-4.7s3.6,9.2,3.6,9.2s1.8-0.4,3,0.5C1147.2,167,1146.5,168.9,1145,168.8z"/>
				</g>
			</g>
		</g>
	</g>
	<g>
		<g>
			<g>
				<g>
					<path class="st7" d="M1034,80.9c-3-0.2-10.2-0.5-16.4,0c-2.6,0.2-4.8-1.8-4.7-4.4c0-1.1,0.4-2.3,1.4-3.7
						c3.8-5.4,10.3-0.2,10.3,2.5c0,0,1.3-4.1,5.3-3.4s2.6,6.7,2.6,6.7s1.3-0.3,2.2,0.3C1035.6,79.5,1035.1,80.9,1034,80.9z"/>
				</g>
			</g>
		</g>
	</g>
	<g>
		<g>
			<g>
				<path class="st8" d="M825.1,289.7V140.8c0-7.1,4.9-12.8,11-12.8h247.4c6.1,0,11,5.7,11,12.8v148.9H825.1z"/>
			</g>
		</g>
	</g>
	<g>
		<g>
			<g>
				<path class="st9" d="M831.4,281.7V147.1c0-9.7,2.7-10.6,6-10.6h244.8c3.3,0,6,2.6,6,5.8v139.4H831.4z"/>
			</g>
		</g>
	</g>
	<g>
		<g>
			<g>
				<path class="st10" d="M831,264.3l0.6-0.6V142.3c0-3,2.5-5.5,5.7-5.5v-0.6c-3.5,0-6.3,2.7-6.3,6.1V264.3z"/>
			</g>
		</g>
	</g>
	<g>
		<g>
			<g>
				<path class="st10" d="M1088.4,281.7h-0.5V142.3c0-3.1-2.6-5.6-5.8-5.6H837.3v-0.5h244.8c3.4,0,6.2,2.7,6.2,6v139.5H1088.4z"/>
			</g>
		</g>
	</g>
	<g>
		<g>
			<rect x="799.1" y="289.7" class="st10" width="310.9" height="8.6"/>
		</g>
	</g>
	<g>
		<g>
			<rect x="906.9" y="148.9" class="st2" width="147.5" height="115"/>
		</g>
	</g>
	<g>
		<g>
			<rect x="931.5" y="155.2" class="st3" width="116.8" height="5.9"/>
		</g>
	</g>
	<g>
		<g>
			<rect x="913.4" y="170.3" class="st3" width="135" height="20.4"/>
		</g>
	</g>
	<g class="st1">
		<g>
			<rect x="913.4" y="190" class="st4" width="135" height="67.4"/>
		</g>
	</g>
	<g>
		<g>
			
				<ellipse transform="matrix(0.2298 -0.9732 0.9732 0.2298 558.8251 1022.496)" class="st3" cx="925.4" cy="158.2" rx="2.9" ry="2.9"/>
		</g>
	</g>
	<g>
		<g>
			<circle class="st3" cx="916.3" cy="158.2" r="2.9"/>
		</g>
	</g>
	<g>
		<g>
			<rect x="917.5" y="175" class="st7" width="105.4" height="2"/>
		</g>
	</g>
	<g>
		<g>
			<rect x="917.5" y="181.5" class="st7" width="105.4" height="2"/>
		</g>
	</g>
	<g>
		<g>
			<path class="st3" d="M960.2,197.1h83.3c0.5,0,0.9-0.4,0.9-0.9l0,0c0-0.5-0.4-0.9-0.9-0.9h-83.3c-0.5,0-0.9,0.4-0.9,0.9l0,0
				C959.3,196.7,959.7,197.1,960.2,197.1z"/>
		</g>
	</g>
	<g>
		<g>
			<path class="st3" d="M960.2,202.7h83.3c0.5,0,0.9-0.4,0.9-0.9l0,0c0-0.5-0.4-0.9-0.9-0.9h-83.3c-0.5,0-0.9,0.4-0.9,0.9l0,0
				C959.3,202.3,959.7,202.7,960.2,202.7z"/>
		</g>
	</g>
	<g>
		<g>
			<path class="st3" d="M960.2,208.4h83.3c0.5,0,0.9-0.4,0.9-0.9l0,0c0-0.5-0.4-0.9-0.9-0.9h-83.3c-0.5,0-0.9,0.4-0.9,0.9l0,0
				C959.3,208,959.7,208.4,960.2,208.4z"/>
		</g>
	</g>
	<g>
		<g>
			<path class="st3" d="M960.2,219.7h83.3c0.5,0,0.9-0.4,0.9-0.9l0,0c0-0.5-0.4-0.9-0.9-0.9h-83.3c-0.5,0-0.9,0.4-0.9,0.9l0,0
				C959.3,219.3,959.7,219.7,960.2,219.7z"/>
		</g>
	</g>
	<g>
		<g>
			<path class="st3" d="M960.2,225.3h83.3c0.5,0,0.9-0.4,0.9-0.9l0,0c0-0.5-0.4-0.9-0.9-0.9h-83.3c-0.5,0-0.9,0.4-0.9,0.9l0,0
				C959.3,224.9,959.7,225.3,960.2,225.3z"/>
		</g>
	</g>
	<g>
		<g>
			<path class="st3" d="M960.2,231h83.3c0.5,0,0.9-0.4,0.9-0.9l0,0c0-0.5-0.4-0.9-0.9-0.9h-83.3c-0.5,0-0.9,0.4-0.9,0.9l0,0
				C959.3,230.6,959.7,231,960.2,231z"/>
		</g>
	</g>
	<g>
		<g>
			<path class="st3" d="M960.2,242.3h83.3c0.5,0,0.9-0.4,0.9-0.9l0,0c0-0.5-0.4-0.9-0.9-0.9h-83.3c-0.5,0-0.9,0.4-0.9,0.9l0,0
				C959.3,241.9,959.7,242.3,960.2,242.3z"/>
		</g>
	</g>
	<g>
		<g>
			<path class="st3" d="M960.2,247.9h83.3c0.5,0,0.9-0.4,0.9-0.9l0,0c0-0.5-0.4-0.9-0.9-0.9h-83.3c-0.5,0-0.9,0.4-0.9,0.9l0,0
				C959.3,247.5,959.7,247.9,960.2,247.9z"/>
		</g>
	</g>
	<g>
		<g>
			<rect x="918.4" y="195.2" class="st3" width="35.5" height="31.8"/>
		</g>
	</g>
	<g>
		<g>
			<rect x="918.4" y="235.4" class="st3" width="35.5" height="12.5"/>
		</g>
	</g>
	<g>
		<g>
			<polygon class="st3" points="920.9,219.7 926.9,209.7 935.9,213.5 941.8,200.9 950.8,219.7 			"/>
		</g>
	</g>
	<g>
		<g>
			<rect x="327.4" y="133.2" class="st3" width="35.5" height="31.8"/>
		</g>
	</g>
	<g>
		<g>
			<polygon class="st3" points="329.9,157.7 335.9,147.7 344.9,151.5 350.8,138.9 359.8,157.7 			"/>
		</g>
	</g>
	<g>
		<g>
			<path class="st3" d="M934.2,203.8c0,1.5-1.2,2.7-2.7,2.7s-2.7-1.2-2.7-2.7s1.2-2.7,2.7-2.7S934.2,202.3,934.2,203.8z"/>
		</g>
	</g>
	<g>
		<rect x="863" y="281.4" class="st10" width="179.9" height="0.5"/>
	</g>
	<g>
		<g>
			<g>
				<g>
					<path class="st6" d="M1092.3,173.6l4.8-3.5l0.3-0.2l4.8-3.5l43.6,52.3c1.2,1.5,1,3.7-0.6,4.8l-12.3,8.9
						c-1.6,1.1-3.7,0.7-4.7-0.9L1092.3,173.6z"/>
				</g>
			</g>
		</g>
		<g>
			<g>
				<g>
					<path class="st11" d="M1092.4,175.3l11.6-8.4c0.8-0.6,0.9-1.6,0.4-2.4l-4.1-5.6l-14.4,10.4l4.1,5.6
						C1090.6,175.7,1091.7,175.9,1092.4,175.3z"/>
				</g>
			</g>
		</g>
		<g>
			<g>
				<g>
					<path class="st10" d="M1095.5,173.5l7.8-5.7c1.4-1,1.7-2.9,0.7-4.3l-3.4-4.7l-0.5,0.3l3.4,4.7c0.8,1.1,0.6,2.7-0.6,3.5
						l-7.8,5.7L1095.5,173.5z"/>
				</g>
			</g>
		</g>
		<g class="st1">
			<g>
				<g>
					
						<ellipse transform="matrix(0.458 -0.8889 0.8889 0.458 459.7891 1029.2892)" class="st12" cx="1074" cy="137.6" rx="32.4" ry="32.4"/>
				</g>
			</g>
		</g>
		<g class="st13">
			<g>
				<g>
					<path class="st14" d="M1052.1,145.8c3.2,0.5,6.6-4.5,7.7-11.1s-0.6-12.4-3.8-12.9c-3.2-0.5-6.6,4.5-7.7,11.1
						C1047.2,139.5,1048.9,145.3,1052.1,145.8z"/>
				</g>
			</g>
		</g>
		<g>
			<g>
				<g>
					
						<rect x="1124.6" y="159.7" transform="matrix(0.7663 -0.6425 0.6425 0.7663 138.5933 767.9739)" class="st10" width="0.6" height="67.6"/>
				</g>
			</g>
		</g>
		<g>
			<g>
				<g>
					<path class="st10" d="M1078.6,109.8l0.2-0.6c-0.1,0-7.2-2.1-13.6,0.8l0.2,0.5C1071.7,107.9,1078.6,109.8,1078.6,109.8z"/>
				</g>
			</g>
		</g>
		<g>
			<g>
				<g>
					<path class="st10" d="M1079.2,113.9l0.2-0.6c-0.1,0-7.2-2.1-13.6,0.8l0.2,0.5C1072.3,111.9,1079.2,113.8,1079.2,113.9z"/>
				</g>
			</g>
		</g>
		<g>
			<g>
				<path class="st6" d="M1093,163.7c-14.5,10.5-34.7,7.2-45.2-7.3s-7.2-34.7,7.3-45.2s34.7-7.2,45.2,7.3
					C1110.7,133,1107.5,153.2,1093,163.7z M1104.4,115.5c-12.1-16.8-35.6-20.6-52.4-8.4c-16.8,12.1-20.6,35.6-8.4,52.4
					c12.1,16.8,35.6,20.6,52.4,8.4C1112.8,155.7,1116.6,132.3,1104.4,115.5z"/>
			</g>
		</g>
		<g>
			<g>
				<g>
					<path class="st10" d="M1096.2,168.1c16.9-12.2,20.7-35.9,8.5-52.8s-35.9-20.7-52.8-8.5c-7.9,5.7-13.3,14.2-15,23.8l0.6,0.1
						c1.7-9.5,7-17.8,14.8-23.4c16.6-12,40-8.3,52,8.3s8.3,40-8.3,52c-7.7,5.6-17.2,8-26.6,6.8l-0.1,0.6
						C1078.8,176.2,1088.4,173.8,1096.2,168.1z"/>
				</g>
			</g>
		</g>
	</g>
	<g>
		<g>
			<g>
				<g>
					<path class="st15" d="M245.3,219.2l-2.7,1.2l-3,1.4c0,0-4.7,0.8-4.8,0.8l0.4,0.7c-5.8,0.7-24.2,1.5-27.2,1.8
						c-1.8,0.2-3.6,2.5-4.7,4.2l1.5,1c0,0,16-0.7,16-0.4c0,0.1-0.5,1.7-1.2,3.8c9.9,0.7,23.8,0.6,26.3-3.5
						C248.1,226.9,246.1,222.1,245.3,219.2z"/>
				</g>
			</g>
		</g>
		<g>
			<g>
				<g>
					<g>
						<g>
							<g>
								<g>
									<g>
										<g>
											<g>
												<g>
													<polygon class="st16" points="183.1,291.1 195.2,291.3 195.4,279.9 183.3,278.4 													"/>
												</g>
											</g>
										</g>
									</g>
								</g>
							</g>
						</g>
					</g>
				</g>
			</g>
		</g>
		<g>
			<g>
				<g>
					<g>
						<g>
							<g>
								<g>
									<g>
										<path class="st8" d="M171.3,295.3l24.7-3l-0.6-4.9c0,0-2.1-2.1-4.7-0.6c0,0-3.7,3.4-7.8,0.4l-8.7,5
											C174.3,292.2,171.1,293.7,171.3,295.3z"/>
									</g>
								</g>
							</g>
						</g>
					</g>
				</g>
			</g>
			<g>
				<g>
					<g>
						<g>
							<g>
								<g>
									<g>
										<path class="st7" d="M196.2,294l-25.5,3.1c-0.1,0-0.3-0.1-0.3-0.2l-0.1-1.2c0-0.1,0.1-0.3,0.2-0.3l25.5-3.1L196.2,294z"/>
									</g>
								</g>
							</g>
						</g>
					</g>
				</g>
			</g>
			<g>
				<g>
					<g>
						<g>
							<g>
								<g>
									<g>
										<path class="st17" d="M180.4,288.6c1,1.2,3,3.6,4.2,5.1l1.7-0.2c-1.1-1.3-3.5-4.2-4.6-5.6L180.4,288.6z"/>
									</g>
								</g>
							</g>
						</g>
					</g>
				</g>
			</g>
			<g>
				<g>
					<g>
						<g>
							<g>
								<g>
									<g>
										<path class="st17" d="M181.9,294l1.7-0.2c-0.9-1.1-2.7-3.2-4-4.8l-1.3,0.7C179.5,291.1,180.9,292.8,181.9,294z"/>
									</g>
								</g>
							</g>
						</g>
					</g>
				</g>
			</g>
		</g>
		<g>
			<g>
				<g>
					<g>
						<g>
							<path class="st6" d="M220.9,250.5c0,0,10.5,0.2,17.8-0.1c2.4-0.1,4.5,0.1,5.7-0.2c5.1-1.1,6.4-17.1,0.6-26.9
								c-5.8-9.8-26.1,20.2-26.1,20.2L220.9,250.5z"/>
						</g>
					</g>
				</g>
			</g>
		</g>
		<g>
			<g>
				<g>
					<g>
						<g>
							<g>
								<g>
									<g>
										<g>
											<g>
												<g>
													<polygon class="st16" points="202,291.1 214.1,291.3 214.3,279.9 202.2,278.4 													"/>
												</g>
											</g>
										</g>
									</g>
								</g>
							</g>
						</g>
					</g>
				</g>
			</g>
		</g>
		<g>
			<g>
				<g>
					<g>
						<g>
							<g>
								<g>
									<g>
										<path class="st8" d="M191.1,296.6l24.4-4.9l-1-4.9c0,0-2.2-2-4.7-0.2c0,0-3.4,3.7-7.7,1l-8.2,5.7
											C193.8,293.2,190.8,294.9,191.1,296.6z"/>
									</g>
								</g>
							</g>
						</g>
					</g>
				</g>
			</g>
			<g>
				<g>
					<g>
						<g>
							<g>
								<g>
									<g>
										<path class="st7" d="M215.8,293.3l-25.2,5.1c-0.1,0-0.3-0.1-0.3-0.2l-0.2-1.2c0-0.1,0.1-0.3,0.2-0.3l25.2-5.1L215.8,293.3
											z"/>
									</g>
								</g>
							</g>
						</g>
					</g>
				</g>
			</g>
			<g>
				<g>
					<g>
						<g>
							<g>
								<g>
									<g>
										<path class="st17" d="M199.6,289.2c1.1,1.1,3.2,3.3,4.6,4.7l1.7-0.3c-1.2-1.3-3.8-3.9-5.1-5.2L199.6,289.2z"/>
									</g>
								</g>
							</g>
						</g>
					</g>
				</g>
			</g>
			<g>
				<g>
					<g>
						<g>
							<g>
								<g>
									<g>
										<path class="st17" d="M201.6,294.5l1.7-0.3c-1-1-2.9-3-4.3-4.4l-1.2,0.8C198.9,291.7,200.5,293.3,201.6,294.5z"/>
									</g>
								</g>
							</g>
						</g>
					</g>
				</g>
			</g>
		</g>
		<g>
			<g>
				<g>
					<g>
						<g>
							<g>
								<path class="st11" d="M209.6,229.1c0,0-25.7,1.6-26.5,4.6c-0.7,3-2.9,34.6-1.3,48.1c0,0,9.8,0.7,14.4-0.5l1.1-32.9l7.7-0.9
									l17.7-21.2L209.6,229.1z"/>
							</g>
						</g>
					</g>
				</g>
			</g>
		</g>
		<g>
			<g>
				<g>
					<g>
						<g>
							<g>
								<path class="st6" d="M222,228.7c0,0-19.9,5.6-20.6,8.6c-0.7,3-2.9,31.2-1.3,44.7c0,0,10.5,0.6,15.2-0.5l1.3-31l4.5,0.2
									l11-19.3L222,228.7z"/>
							</g>
						</g>
					</g>
				</g>
			</g>
		</g>
		<g>
			<g>
				<g>
					<g>
						<g>
							<g>
								<path class="st10" d="M209,282.3c4.6,0,6.3-0.7,6.4-0.7h0.1l1.2-31.2l-1.9,0.9l0.2,0.3l1.4-0.7l-1.2,30.4
									c-0.5,0.2-2.9,0.9-8.6,0.6v0.4C207.4,282.3,208.3,282.3,209,282.3z"/>
							</g>
						</g>
					</g>
				</g>
			</g>
		</g>
		<g>
			<g>
				<g>
					<g>
						<g>
							<g>
								<path class="st10" d="M213.4,275.5c0.5-1.9,0.6-20.5,0.6-21.3h-0.4c0,0.2-0.1,19.4-0.6,21.3H213.4z"/>
							</g>
						</g>
					</g>
				</g>
			</g>
		</g>
		<g>
			<g>
				<g>
					<g>
						<g>
							<g>
								<path class="st10" d="M194.9,249.2c2.4-0.8,5.6-0.9,5.6-0.9v-0.4c0,0-3.3,0.1-5.7,0.9L194.9,249.2z"/>
							</g>
						</g>
					</g>
				</g>
			</g>
		</g>
		<g>
			<g>
				<g>
					<g>
						<g>
							<g>
								<path class="st10" d="M189.6,282.2c4,0,6.7-0.7,6.7-0.7h0.1l1.1-33.3l-1.5,1.2l0.2,0.3l0.9-0.7l-1.1,32.2
									c-0.6,0.1-3.3,0.7-6.9,0.6v0.4C189.4,282.2,189.5,282.2,189.6,282.2z"/>
							</g>
						</g>
					</g>
				</g>
			</g>
		</g>
		<g>
			<g>
				<g>
					<g>
						<g>
							<g>
								<path class="st10" d="M194.6,276.2c0.5-2.9,0-22.4,0-23.3h-0.4c0,0.2,0.5,20.3,0,23.2L194.6,276.2z"/>
							</g>
						</g>
					</g>
				</g>
			</g>
		</g>
		<g>
			<g>
				<g>
					<g>
						<g>
							<path class="st10" d="M228.8,250.8c4.6,0,10.1-0.2,16.2-0.6v-0.4c-18.4,1.4-30.7,0-30.8,0v0.4
								C214.2,250.2,219.7,250.8,228.8,250.8z"/>
						</g>
					</g>
				</g>
			</g>
		</g>
		<g>
			<g>
				<g>
					<g>
						<g>
							<g>
								<g>
									<path class="st4" d="M222.5,218.6c-0.4,0-14.6,6.1-14.6,6.1l2.9,5.5l8-1.8L222.5,218.6z"/>
								</g>
							</g>
						</g>
					</g>
				</g>
			</g>
		</g>
		<g>
			<g>
				<g>
					<g>
						<g>
							<path class="st4" d="M243.2,193.1c0,0,6.1-0.2,9,1.4c4.3,2.4,2.8,16.5,2.8,16.5s-3.7-2-3.9-2.7
								C250.8,207.6,243.2,193.1,243.2,193.1z"/>
						</g>
					</g>
				</g>
			</g>
		</g>
		<g>
			<g>
				<g>
					<g>
						<g>
							<g>
								<g>
									<path class="st10" d="M244.7,223.5L244.7,223.5l-4.5,1c-0.1,0-0.2,0-0.2-0.1s0-0.2,0.1-0.2l4.5-1c0.1,0,0.2,0,0.2,0.1
										C244.8,223.4,244.7,223.5,244.7,223.5z"/>
								</g>
							</g>
						</g>
					</g>
				</g>
			</g>
		</g>
		<g>
			<g>
				<g>
					<path class="st16" d="M247,220.9l-2.7,1.2l-3,1.4c0,0-4.7,0.8-4.8,0.8l0.4,0.7c-5.8,0.7-24.2,1.5-27.2,1.8
						c-1.8,0.2-3.6,2.5-4.7,4.2l1.5,1c0,0,16-0.7,16-0.4c0,0.1-0.5,1.7-1.2,3.8c9.9,0.7,23.8,0.6,26.3-3.5
						C249.8,228.6,247.8,223.8,247,220.9z"/>
				</g>
			</g>
		</g>
		<g>
			<g>
				<g>
					<g>
						<g>
							<path class="st4" d="M249.1,194.2c-3.4-0.5-12.5-0.8-12.5-0.8s-1.2,0.3-0.8,0.1c-10,1.8-11.2,9.2-11.2,9.2l-4.9,21.5
								l-5.5,0.3c-1.8,3.3-0.5,12.4-0.5,12.4l26.4,3c0,0,5.7,0.9,10.5-5.3c3.2-4.1,4.3-16.7,4.3-25.9
								C255,208.8,254.4,194.9,249.1,194.2z"/>
						</g>
					</g>
				</g>
			</g>
		</g>
		<g>
			<g>
				<g>
					<g>
						<g>
							<polygon class="st18" points="175,210.8 200.2,210.8 209,233.2 183.8,233.2 							"/>
						</g>
					</g>
				</g>
				<g>
					<g>
						<g>
							<polygon class="st2" points="209,233.2 207.7,233.2 198.9,210.8 200.2,210.8 							"/>
						</g>
					</g>
				</g>
				<g>
					<g>
						<g>
							<path class="st19" d="M191.5,221.3c0.3,1,0.1,2-0.6,2.3c-0.7,0.2-1.5-0.4-1.8-1.5c-0.3-1-0.1-2,0.6-2.3
								C190.3,219.6,191.1,220.3,191.5,221.3z"/>
						</g>
					</g>
				</g>
			</g>
			<g>
				<g>
					<g>
						<path class="st2" d="M217.3,231.4h-9.4v1.8h9.4c0.5,0,0.9-0.4,0.9-0.9l0,0C218.2,231.8,217.8,231.4,217.3,231.4z"/>
					</g>
				</g>
			</g>
			<g>
				<g>
					<g>
						<rect x="209" y="232" class="st18" width="5.9" height="0.3"/>
					</g>
				</g>
			</g>
		</g>
		<g>
			<g>
				<g>
					<g>
						<g>
							<g>
								<g>
									<path class="st10" d="M240.2,224.6C240.2,224.6,240.1,224.6,240.2,224.6c-0.2,0-0.2-0.1-0.2-0.2c0-0.1,2.8-11.9,4-19.2
										c0-0.1,0.1-0.2,0.2-0.1c0.1,0,0.2,0.1,0.1,0.2c-1.2,7.4-3.9,19.2-4,19.3H240.2z"/>
								</g>
							</g>
						</g>
					</g>
				</g>
			</g>
		</g>
		<g>
			<g>
				<g>
					<g>
						<g>
							<g>
								<g>
									<path class="st10" d="M223.1,224.4H223c-0.1,0-0.1-0.1-0.1-0.2c0-0.1,4.1-13.1,5-17.6c0-0.1,0.1-0.1,0.2-0.1
										c0.1,0,0.2,0.1,0.1,0.2C227.3,211.2,223.2,224.2,223.1,224.4C223.2,224.4,223.1,224.4,223.1,224.4z"/>
								</g>
							</g>
						</g>
					</g>
				</g>
			</g>
		</g>
		<g>
			<g>
				<g>
					<g>
						<g>
							<g>
								<g>
									<path class="st10" d="M239.7,199.7c-0.1,0-0.3,0-0.4,0c-0.1,0-0.1-0.1-0.1-0.1c0-0.1,0-0.1,0.1-0.1
										c5.7-0.4,6.8-4.6,6.8-4.7c0-0.1,0.1-0.1,0.2-0.1c0.1,0,0.1,0.1,0.1,0.2C246.4,194.9,245.4,199.1,239.7,199.7z"/>
								</g>
							</g>
						</g>
					</g>
				</g>
			</g>
		</g>
		<g>
			<g>
				<g>
					<g>
						<g>
							<g>
								<g>
									<path class="st10" d="M221.9,221.3c-0.1,0-0.2,0-0.2-0.1l-1.1-1.9v-0.1l3.8-16.6c0-0.1,0.4-2.1,2-4.2
										c1.5-2,4.6-4.5,10.3-5.3c0.1,0,0.2,0.1,0.2,0.1c0,0.1-0.1,0.2-0.1,0.2c-5.6,0.7-8.5,3.2-10,5.2c-1.6,2.1-1.9,4.1-1.9,4.1
										l0,0l-3.8,16.5l1.1,1.8C222,221.2,222,221.3,221.9,221.3L221.9,221.3z"/>
								</g>
							</g>
						</g>
					</g>
				</g>
			</g>
		</g>
		<g>
			<g>
				<g>
					<g>
						<g>
							<g>
								<g>
									<path class="st10" d="M216,221.4c-0.1,0-0.2,0-0.2-0.1s0-0.2,0.1-0.2l4.8-1.9c0.1,0,0.2,0,0.2,0.1s0,0.2-0.1,0.2L216,221.4
										L216,221.4z"/>
								</g>
							</g>
						</g>
					</g>
				</g>
			</g>
		</g>
		<g>
			<g>
				<g>
					<g>
						<g>
							<path class="st4" d="M214.2,224.5c0,0-1.7,4.1-0.5,12.4l6.4-3.4l-1.9-6.2L214.2,224.5z"/>
						</g>
					</g>
				</g>
			</g>
		</g>
		<g>
			<g>
				<g>
					<g>
						<g>
							<g>
								<g>
									<path class="st10" d="M245.9,224.8L245.9,224.8c-0.3,0-23.9-0.7-31.6-0.1c-0.2,0.5-1.1,3.1-0.8,7.9c0,0.1-0.1,0.2-0.2,0.2
										c-0.1,0-0.2-0.1-0.2-0.2c-0.3-5.4,0.8-8.1,0.9-8.2v-0.1h0.1c7.6-0.7,31.5,0.1,31.7,0.1c0.1,0,0.2,0.1,0.2,0.2
										C246.1,224.7,246,224.8,245.9,224.8z"/>
								</g>
							</g>
						</g>
					</g>
				</g>
			</g>
		</g>
		<g>
			<g>
				<g>
					<g>
						<g>
							<g>
								<g>
									<g>
										<g>
											<g>
												<path class="st16" d="M235.2,180.9l-0.2,7.3c0,0-0.2,2.3,1.9,2.7l-0.5,3.1c-0.2,1.2,0.5,2.3,1.6,2.7
													c0.5,0.2,1.2,0.3,1.9,0.3c2.3,0.1,3.6-1.7,3.9-2.5c0.2-0.9-0.3-5.1-0.3-5.1l0.1-2.1l-0.1-8L235.2,180.9z"/>
											</g>
										</g>
									</g>
								</g>
							</g>
						</g>
					</g>
				</g>
			</g>
			<g>
				<g>
					<g>
						<g>
							<g>
								<g>
									<g>
										<g>
											<g>
												<path class="st20" d="M241.6,188.9c0,0-0.2,3.9-5.1,4.2l0.3-2.3C236.8,190.8,240,191.5,241.6,188.9z"/>
											</g>
										</g>
									</g>
								</g>
							</g>
						</g>
					</g>
				</g>
			</g>
			<g>
				<g>
					<g>
						<g>
							<g>
								<g>
									<g>
										<g>
											<g>
												<path class="st21" d="M240.7,184.8L240.7,184.8c0.1-0.1,0.1-0.1,0.1-0.2c0,0-1.3-1.4-2.6-0.5c0,0-0.1,0.1,0,0.1
													c0,0,0.1,0.1,0.1,0C239.4,183.5,240.6,184.7,240.7,184.8C240.6,184.8,240.7,184.8,240.7,184.8z"/>
											</g>
										</g>
									</g>
								</g>
							</g>
						</g>
					</g>
				</g>
			</g>
			<g>
				<g>
					<g>
						<g>
							<g>
								<g>
									<g>
										<path class="st8" d="M244.1,183.9l-2.1,0.4l-0.4,0.4c0,0,0.3-3.5,0.7-4.2C242.7,179.8,244.1,183.9,244.1,183.9z"/>
									</g>
								</g>
							</g>
						</g>
					</g>
				</g>
			</g>
			<g>
				<g>
					<g>
						<g>
							<g>
								<g>
									<g>
										<g>
											<g>
												<path class="st21" d="M236.7,184.1L236.7,184.1c0.1-0.1,0.1-0.1,0.1-0.2c0,0-0.9-0.9-1.5-0.4v0.1h0.1
													C235.8,183.4,236.6,184.1,236.7,184.1L236.7,184.1z"/>
											</g>
										</g>
									</g>
								</g>
							</g>
						</g>
					</g>
				</g>
			</g>
			<g>
				<g>
					<g>
						<g>
							<g>
								<g>
									<g>
										<g>
											<g>
												<path d="M238.7,185.1c0,0.2,0.1,0.3,0.3,0.3s0.3-0.1,0.3-0.3s-0.1-0.3-0.3-0.3C238.9,184.9,238.7,185,238.7,185.1z"/>
											</g>
										</g>
									</g>
								</g>
							</g>
						</g>
					</g>
				</g>
			</g>
			<g>
				<g>
					<g>
						<g>
							<g>
								<g>
									<g>
										<g>
											<g>
												<path d="M235.6,184.8c0,0.2,0.1,0.3,0.3,0.3s0.3-0.1,0.3-0.3s-0.1-0.3-0.3-0.3C235.8,184.5,235.6,184.6,235.6,184.8z"/>
											</g>
										</g>
									</g>
								</g>
							</g>
						</g>
					</g>
				</g>
			</g>
			<g>
				<g>
					<g>
						<g>
							<g>
								<g>
									<g>
										<g>
											<g>
												<circle class="st16" cx="242.9" cy="185.2" r="1.8"/>
											</g>
										</g>
									</g>
								</g>
							</g>
						</g>
					</g>
				</g>
			</g>
			<g>
				<g>
					<g>
						<g>
							<g>
								<g>
									<g>
										<g>
											<g>
												<path class="st20" d="M243.2,186.1c0.4,0,0.6-0.3,0.7-0.5c0.1-0.3,0-0.6-0.3-0.8c-0.4-0.3-0.7-0.1-0.9,0
													c0.1-0.2,0.2-0.3,0.4-0.4c0.3-0.2,0.8,0,0.8,0h0.1v-0.1c0,0-0.5-0.2-0.9,0c-0.2,0.1-0.4,0.3-0.5,0.6v0.2l0.1-0.1
													c0,0,0.4-0.4,0.9-0.1c0.3,0.2,0.3,0.5,0.2,0.7C243.7,185.8,243.5,186,243.2,186.1C243.2,186,243.2,186,243.2,186.1
													C243.1,186,243.1,186.1,243.2,186.1C243.1,186.1,243.1,186.1,243.2,186.1L243.2,186.1z"/>
											</g>
										</g>
									</g>
								</g>
							</g>
						</g>
					</g>
				</g>
			</g>
			<g>
				<g>
					<g>
						<g>
							<g>
								<g>
									<g>
										<g>
											<g>
												<path class="st20" d="M237.6,187.1C237.7,187.1,237.7,187.1,237.6,187.1C237.7,187,237.7,187,237.6,187.1l-0.9-0.4
													l0.4-2.3v-0.1H237l-0.4,2.4L237.6,187.1L237.6,187.1z"/>
											</g>
										</g>
									</g>
								</g>
							</g>
						</g>
					</g>
				</g>
			</g>
			<g>
				<g>
					<g>
						<g>
							<g>
								<g>
									<g>
										<g>
											<g>
												<path class="st22" d="M238.4,188.1l-1.9-0.1c0,0,0.2,0.8,0.9,0.8C238.1,188.8,238.4,188.1,238.4,188.1z"/>
											</g>
										</g>
									</g>
								</g>
							</g>
						</g>
					</g>
				</g>
			</g>
			<g>
				<g>
					<g>
						<g>
							<g>
								<g>
									<g>
										<path class="st8" d="M244.1,183.9c0,0,0.7-3.4-0.3-4.7s-6.9-3.7-7.7-3.1s0,1.4,0,1.4s-2.4-0.8-3,1.3s4.6,3.2,7.7,2.2
											C240.7,181.1,242.7,181.7,244.1,183.9z"/>
									</g>
								</g>
							</g>
						</g>
					</g>
				</g>
			</g>
		</g>
		<g>
			<g>
				<g>
					<g>
						<g>
							<g>
								<g>
									<path class="st10" d="M244.8,239.4c-0.4,0.1-0.8,0.3-1.1,0.4c-2,0.5-3.5,0.3-3.5,0.3c-0.1,0-0.2-0.1-0.1-0.2
										c0-0.1,0.1-0.2,0.2-0.1c0,0,1.4,0.2,3.4-0.3c1.8-0.5,4.5-1.7,7-4.9c3.1-4,4.2-16.2,4.2-25.4c0-0.1,0.1-0.2,0.2-0.2
										c0.1,0,0.2,0.1,0.2,0.2c0,9.3-1.2,21.6-4.3,25.6C248.8,237.4,246.5,238.7,244.8,239.4z"/>
								</g>
							</g>
						</g>
					</g>
				</g>
			</g>
		</g>
	</g>
	<g>
		<g>
			<g>
				<g>
					<g>
						<g>
							<g>
								<g>
									<g>
										<path class="st23" d="M1104,271.8c-0.1-0.1-2.6-2.1-2.8-2.2c-1.8,1.2-1.6,4.5-3.5,5.8c1.3,0.3,2.2,0.4,2.6,0.5l1.1,2.4
											l0.2,0.6c0.1,0.3,0.4,0.5,0.8,0.5s0.6-0.3,0.5-0.6l0.1,0.3c0.1,0.3,0.4,0.5,0.8,0.5l0,0c0.4,0,0.6-0.3,0.5-0.6
											c0.1,0.3,0.4,0.5,0.8,0.5s0.6-0.3,0.5-0.6l-0.1-0.3c0.1,0.3,0.4,0.5,0.8,0.5l0,0c0,0,0,0,0.1,0l0,0l0,0c0,0,0,0,0.1,0
											c0.4-0.1,0.5-0.2,0.5-0.4c0.1-0.3-0.5-2.3-0.7-3.2C1105.9,274.2,1105.3,272.8,1104,271.8z"/>
									</g>
								</g>
							</g>
						</g>
					</g>
				</g>
			</g>
		</g>
		<g>
			<g>
				<g>
					<g>
						<g>
							<g>
								<g>
									<g>
										<path class="st20" d="M1105.6,279L1105.6,279c0.1,0,0.1-0.1,0.1-0.1l-1.5-3.9c0-0.1-0.1-0.1-0.1-0.1
											c-0.1,0-0.1,0.1-0.1,0.1L1105.6,279C1105.5,279,1105.5,279,1105.6,279z"/>
									</g>
								</g>
							</g>
						</g>
					</g>
				</g>
			</g>
		</g>
		<g>
			<g>
				<g>
					<g>
						<g>
							<g>
								<g>
									<g>
										<path class="st20" d="M1104.2,279.3C1104.3,279.3,1104.3,279.3,1104.2,279.3c0.1,0,0.1-0.1,0.1-0.1l-1.3-3.5
											c0-0.1-0.1-0.1-0.1-0.1c-0.1,0-0.1,0.1-0.1,0.1L1104.2,279.3L1104.2,279.3z"/>
									</g>
								</g>
							</g>
						</g>
					</g>
				</g>
			</g>
		</g>
		<g>
			<g>
				<g>
					<g>
						<g>
							<g>
								<g>
									<path class="st23" d="M1098.5,267.4c1.9,1.6,5.4,4.4,6.2,5.1c1,0.9-3.7,4.8-3.7,4.8s-5.4-2.9-8.4-4.9L1098.5,267.4z"/>
								</g>
							</g>
						</g>
					</g>
				</g>
			</g>
		</g>
		<g>
			<g>
				<g>
					<g>
						<g>
							<g>
								<g>
									<g>
										<path class="st20" d="M1102.9,279.2L1102.9,279.2c0.1,0,0.1-0.1,0.1-0.1l-1.1-2.8c0-0.1-0.1-0.1-0.1-0.1
											c-0.1,0-0.1,0.1-0.1,0.1L1102.9,279.2C1102.8,279.2,1102.8,279.2,1102.9,279.2z"/>
									</g>
								</g>
							</g>
						</g>
					</g>
				</g>
			</g>
		</g>
		<g>
			<g>
				<g>
					<g>
						<g>
							<g>
								<g>
									<path class="st10" d="M1118.2,276L1118.2,276l2.3-1.9c0.1-0.1,0.1-0.1,0-0.2s-0.1-0.1-0.2,0l-2.2,1.9
										C1118,275.9,1118,275.9,1118.2,276C1118.1,276,1118.1,276,1118.2,276z"/>
								</g>
							</g>
						</g>
					</g>
				</g>
			</g>
		</g>
		<g>
			<g>
				<g>
					<g>
						<g>
							<g>
								<g>
									<g>
										<path class="st6" d="M1074.4,279.5c0,0,1.7-5.2,20.1-4.2c21,1.1,35.3-2.5,39,4.2l-29.1,10.8L1074.4,279.5z"/>
									</g>
								</g>
							</g>
						</g>
					</g>
				</g>
			</g>
			<g>
				<g>
					<g>
						<g>
							<g>
								<g>
									<g>
										<path class="st6" d="M1107.4,288.8c0,0-16.6-10-22.5-11.5c-5.8-1.5-9.9,0.5-10.5,2.2c-0.6,1.8-1.2,6.5,2.7,9.3
											c1.7,1.2,20.9,6.9,26,8.3C1103,297.1,1107.7,295.1,1107.4,288.8z"/>
									</g>
								</g>
							</g>
						</g>
					</g>
				</g>
			</g>
			<g>
				<g>
					<g>
						<g>
							<g>
								<g>
									<g>
										<path class="st10" d="M1103.8,286.9c0.1,0,0.1,0,0.1-0.1s0-0.2-0.1-0.2c-15.9-9.5-21.2-10-21.4-10c-0.1,0-0.2,0.1-0.2,0.1
											c0,0.1,0.1,0.2,0.1,0.2l0,0C1082.6,276.9,1087.9,277.4,1103.8,286.9L1103.8,286.9z"/>
									</g>
								</g>
							</g>
						</g>
					</g>
				</g>
			</g>
			<g>
				<g>
					<g>
						<g>
							<g>
								<g>
									<g>
										<path class="st16" d="M1099.6,298.7l7.5-3.8l-3.6-7.1l-6.1,3.1l0,0c0,0-10.2-0.1-10.6,0.4
											C1086.2,291.8,1097.2,299.9,1099.6,298.7z"/>
									</g>
								</g>
							</g>
						</g>
					</g>
				</g>
			</g>
			<g>
				<g>
					<g>
						<g>
							<g>
								<g>
									<g>
										<path class="st2" d="M1102.2,297.4c-2.2-2.4-3.3-5.8-3.7-7.1l-1.1,0.6c0,0-10.2-0.1-10.6,0.4c-0.5,0.5,10.5,8.6,12.9,7.4
											L1102.2,297.4z"/>
									</g>
								</g>
							</g>
						</g>
					</g>
				</g>
			</g>
			<g>
				<g>
					<g>
						<g>
							<g>
								<g>
									<g>
										<path class="st6" d="M1100.4,288.8c0,0,16.6-10,22.5-11.5c5.8-1.5,9.9,0.5,10.5,2.2c0.6,1.8,1.2,6.5-2.7,9.3
											c-1.7,1.2-22.2,7.3-27.3,8.6C1103.5,297.4,1100.1,295.1,1100.4,288.8z"/>
									</g>
								</g>
							</g>
						</g>
					</g>
				</g>
			</g>
			<g>
				<g>
					<g>
						<g>
							<g>
								<g>
									<g>
										<path class="st10" d="M1103.5,297.6c0,0,0.1,0,0.1-0.1s0-0.2,0-0.2c-2.8-1.9-3-7.6-3-8.4c1.2-0.7,15.6-9.1,21.4-11.2
											c0.1,0,0.1-0.1,0.1-0.2s-0.1-0.1-0.2-0.1c-6,2.3-21.4,11.2-21.5,11.3h-0.1v0.1C1100.3,289.1,1100.2,295.5,1103.5,297.6
											C1103.4,297.6,1103.4,297.6,1103.5,297.6z"/>
									</g>
								</g>
							</g>
						</g>
					</g>
				</g>
			</g>
			<g>
				<g>
					<g>
						<g>
							<g>
								<g>
									<g>
										<g>
											<path class="st10" d="M1076.1,279.4c0,0,0.1,0,0.1-0.1c0,0,0.6-0.8,2.5-0.7c0.1,0,0.1-0.1,0.1-0.1c0-0.1-0.1-0.1-0.1-0.1
												c-2.1,0-2.7,0.8-2.7,0.9C1075.9,279.2,1075.9,279.3,1076.1,279.4C1076,279.4,1076.1,279.4,1076.1,279.4z"/>
										</g>
									</g>
								</g>
							</g>
						</g>
					</g>
				</g>
				<g>
					<g>
						<g>
							<g>
								<g>
									<g>
										<g>
											<path class="st10" d="M1077,280.1L1077,280.1c0.1,0,0.8-0.7,2.7-0.4c0.1,0,0.2,0,0.2-0.1s0-0.2-0.1-0.2
												c-2.1-0.3-2.8,0.4-2.8,0.5C1076.9,280,1076.9,280.1,1077,280.1C1077,280.1,1077,280.1,1077,280.1z"/>
										</g>
									</g>
								</g>
							</g>
						</g>
					</g>
				</g>
			</g>
		</g>
		<g>
			<g>
				<g>
					<g>
						<g>
							<g>
								<path class="st8" d="M1107.7,236.2c0,0-0.9,7.9-2.1,7.9c-1.2,0.1,0.8,9.3,3.9,4.8c1.1-1.6,1-11.9-1.6-14.1
									C1105.5,232.6,1107.7,236.2,1107.7,236.2z"/>
							</g>
						</g>
					</g>
				</g>
			</g>
			<g>
				<g>
					<g>
						<g>
							<g>
								<g>
									<path class="st16" d="M1108.2,234.3c0,0,1.1,7.4,0.1,8.8c0,0-0.5,0.7-1.6,0.7l0.1,4.4l-5.3-0.6l-0.2-12.4
										c0,0,1.5-3.1,1.5-2.9C1102.8,232.3,1108.2,234.3,1108.2,234.3z"/>
								</g>
							</g>
						</g>
					</g>
				</g>
			</g>
			<g>
				<g>
					<g>
						<g>
							<g>
								<g>
									<path class="st20" d="M1106.6,240.5C1106.6,240.5,1106.5,240.4,1106.6,240.5C1106.5,240.4,1106.5,240.4,1106.6,240.5
										c0.2-0.2,0.3-0.5,0.4-0.7c-0.3-0.2-0.5-0.5-0.6-0.9c-0.1-0.6,0.1-1.1,0.2-1.2l0,0c0,0,0,0,0,0.1c0,0-0.3,0.5-0.1,1.1
										c0.1,0.3,0.3,0.6,0.6,0.8l0,0l0,0C1107,239.8,1106.9,240.4,1106.6,240.5L1106.6,240.5z"/>
								</g>
							</g>
						</g>
					</g>
				</g>
			</g>
			<g>
				<g>
					<g>
						<g>
							<g>
								<g>
									<path class="st20" d="M1106.7,245.2v-1.5c0,0-2.5-0.1-4.1-1.1C1102.6,242.7,1104.7,244.7,1106.7,245.2z"/>
								</g>
							</g>
						</g>
					</g>
				</g>
			</g>
			<g>
				<g>
					<g>
						<g>
							<g>
								<g>
									<path class="st8" d="M1103.1,238L1103.1,238c-0.1-0.1-0.1-0.1-0.1-0.2c0,0,1.2-1.3,2.3-0.4v0.1h-0.1
										C1104.3,236.8,1103.2,237.9,1103.1,238C1103.2,238,1103.1,238,1103.1,238z"/>
								</g>
							</g>
						</g>
					</g>
				</g>
			</g>
			<g>
				<g>
					<g>
						<g>
							<g>
								<g>
									<path class="st8" d="M1107,237.7L1107,237.7c-0.1-0.1-0.1-0.1-0.1-0.2c0,0,0.9-0.8,1.4-0.3v0.1h-0.1
										C1107.8,237.1,1107.1,237.7,1107,237.7C1107.1,237.7,1107,237.7,1107,237.7z"/>
								</g>
							</g>
						</g>
					</g>
				</g>
			</g>
			<g>
				<g>
					<g>
						<g>
							<g>
								<g>
									<path d="M1105,238.5c0,0.1-0.1,0.3-0.3,0.3s-0.3-0.1-0.3-0.3c0-0.1,0.1-0.3,0.3-0.3S1105,238.4,1105,238.5z"/>
								</g>
							</g>
						</g>
					</g>
				</g>
			</g>
			<g>
				<g>
					<g>
						<g>
							<g>
								<g>
									<path d="M1108.1,238.5c0,0.1-0.1,0.3-0.3,0.3c-0.1,0-0.3-0.1-0.3-0.3s0.1-0.3,0.3-0.3S1108.1,238.3,1108.1,238.5z"/>
								</g>
							</g>
						</g>
					</g>
				</g>
			</g>
			<g>
				<g>
					<g>
						<g>
							<g>
								<g>
									<path class="st22" d="M1105.3,240.9l1.9,0.2c0,0-0.3,0.7-1,0.7C1105.4,241.7,1105.3,240.9,1105.3,240.9z"/>
								</g>
							</g>
						</g>
					</g>
				</g>
			</g>
			<g>
				<g>
					<g>
						<g>
							<g>
								<path class="st16" d="M1105.9,234.4l-1.3-1.8c0,0,2,1.3,1.9,1.3C1106.3,234,1105.9,234.4,1105.9,234.4z"/>
							</g>
						</g>
					</g>
				</g>
			</g>
			<g>
				<g>
					<g>
						<g>
							<g>
								<path class="st8" d="M1102.1,233.6c0,0,0.4,2.8,7,3.3c0,0,1.5-4.1-3.3-5.5s-5.3,2.3-5.2,2.3
									C1100.7,233.7,1102.1,233.6,1102.1,233.6z"/>
							</g>
						</g>
					</g>
				</g>
			</g>
			<g>
				<g>
					<g>
						<g>
							<g>
								<path class="st8" d="M1103.1,235.1c0,0-1.2,1.8-1.8,3.1c0,0,2.2,11.6-2.3,11h-0.8c-4-0.1-1.2-8.6-1.1-13.2
									c0-2.8,3.5-5.7,5.7-4C1105.1,233.8,1103.1,235.1,1103.1,235.1z"/>
							</g>
						</g>
					</g>
				</g>
			</g>
			<g>
				<g>
					<g>
						<g>
							<g>
								<g>
									<g>
										<path class="st16" d="M1102.4,239.7c0,0.8-0.6,1.5-1.5,1.5c-0.8,0-1.5-0.6-1.5-1.5c0-0.8,0.6-1.5,1.5-1.5
											C1101.7,238.2,1102.4,238.9,1102.4,239.7z"/>
									</g>
								</g>
							</g>
						</g>
					</g>
				</g>
				<g>
					<g>
						<g>
							<g>
								<g>
									<g>
										<path class="st20" d="M1100.8,240.6c-0.3,0-0.5-0.2-0.6-0.5s0-0.5,0.2-0.7c0.3-0.2,0.6-0.1,0.8,0
											c-0.1-0.2-0.2-0.3-0.3-0.3c-0.3-0.2-0.6,0-0.7,0h-0.1V239c0,0,0.4-0.1,0.7,0c0.2,0.1,0.3,0.3,0.4,0.5v0.2l-0.1-0.1
											c0,0-0.4-0.3-0.8-0.1c-0.2,0.1-0.2,0.4-0.2,0.6C1100.4,240.3,1100.6,240.5,1100.8,240.6
											C1100.9,240.5,1100.9,240.5,1100.8,240.6C1100.9,240.6,1100.9,240.6,1100.8,240.6L1100.8,240.6z"/>
									</g>
								</g>
							</g>
						</g>
					</g>
				</g>
			</g>
			<g>
				<g>
					<g>
						<g>
							<path class="st8" d="M1108.5,233c0,0,2.3,2.4,1.8,9.4l-1.6-6.9L1108.5,233z"/>
						</g>
					</g>
				</g>
			</g>
		</g>
		<g>
			<g>
				<g>
					<g>
						<path class="st18" d="M1106.9,260.4l-3.2-13.4h-8.7c-0.9,0-2.2,0.6-2.3,0.6c-3.5,1.9-13.1,12.5-12.6,19.2
							c0.4,6.1,9.2,4.9,17.9,6.3l1.9-8l-3.1-0.8L1106.9,260.4z"/>
					</g>
				</g>
			</g>
			<g>
				<g>
					<g>
						<path class="st18" d="M1104,262.4V247h8.7c0.9,0,2.2,0.6,2.3,0.6c3.5,1.9,14.3,12.8,13.8,19.5c-0.4,6.1-10.6,5.8-15.4,7.3
							l-2.7-9.6l0.2-0.5L1104,262.4z"/>
					</g>
				</g>
			</g>
			<g>
				<g>
					<g>
						<g>
							<g>
								<g>
									<path class="st18" d="M1118.2,264.5l-0.1,16.8c0,0-15.2,2.8-28.8-0.8c-0.3-0.1,0.6-13.9,0.6-13.9s0-2.7,1.4-3.5
										s12.9-5.9,13.2-5.9S1118.2,264.5,1118.2,264.5z"/>
								</g>
							</g>
						</g>
					</g>
				</g>
			</g>
			<g>
				<g>
					<g>
						<g>
							<g>
								<g>
									<path class="st10" d="M1103.6,251.6c0.1,0,0.2-0.1,0.2-0.2c0-0.1-0.1-0.2-0.2-0.2c-5-0.3-6.6-3.7-6.6-3.8s-0.1-0.1-0.2-0.1
										s-0.1,0.1-0.1,0.2C1096.7,247.7,1098.4,251.3,1103.6,251.6L1103.6,251.6z"/>
								</g>
							</g>
						</g>
					</g>
				</g>
			</g>
			<g>
				<g>
					<g>
						<g>
							<g>
								<g>
									<path class="st16" d="M1109.1,247h-11c0,0,2,3.5,5.8,3.4C1105.6,250.4,1107.5,249.7,1109.1,247z"/>
								</g>
							</g>
						</g>
					</g>
				</g>
			</g>
			<g>
				<g>
					<g>
						<g>
							<g>
								<g>
									<g>
										<path class="st24" d="M1102.3,269.2c-0.7-0.7-0.1-1.6-0.1-1.6c-0.3-1.1,0-1.5,0-1.5s2.9,0.9,4.6,1.5
											c0.9-0.1,1.3-0.6,1.3-0.6l0,0c0-0.8,0-1.8,0-2s0.3-0.5,0.8,0.1s1.4,2.3,1.4,2.3l2.4-1.4l2,6.9c0,0-5.9,0.8-6.8,0.9
											s-4.1-0.7-5-1.5s-0.7-1.5-0.7-1.5C1101.6,269.9,1102.3,269.2,1102.3,269.2z"/>
									</g>
								</g>
							</g>
						</g>
					</g>
				</g>
				<g>
					<g>
						<g>
							<g>
								<g>
									<g>
										<path class="st25" d="M1108.7,264.7v2.1c0,0-0.6,0.9-1.8,0.8l-0.9-0.3l0.7-3.1L1108.7,264.7z"/>
									</g>
								</g>
							</g>
						</g>
					</g>
				</g>
				<g>
					<g>
						<g>
							<g>
								<g>
									<g>
										<g>
											<path class="st20" d="M1104.2,268.6c0,0,0.1,0,0.1-0.1s0-0.1-0.1-0.1c-0.8-0.3-2-0.9-2-0.9c-0.1,0-0.1,0-0.1,0
												c0,0.1,0,0.1,0,0.1C1102.2,267.7,1103.4,268.4,1104.2,268.6L1104.2,268.6z"/>
										</g>
									</g>
								</g>
							</g>
						</g>
					</g>
				</g>
				<g>
					<g>
						<g>
							<g>
								<g>
									<g>
										<g>
											<path class="st20" d="M1104.2,270c0.1,0,0.1,0,0.1-0.1s0-0.1-0.1-0.1c-1-0.2-1.9-0.7-1.9-0.7c-0.1,0-0.1,0-0.1,0
												c0,0.1,0,0.1,0,0.1C1102.3,269.3,1103.2,269.8,1104.2,270L1104.2,270z"/>
										</g>
									</g>
								</g>
							</g>
						</g>
					</g>
				</g>
				<g>
					<g>
						<g>
							<g>
								<g>
									<g>
										<g>
											<path class="st20" d="M1104,271.6c0.1,0,0.1,0,0.1-0.1s0-0.1-0.1-0.1c-0.9-0.2-1.7-0.7-1.7-0.7c-0.1,0-0.1,0-0.2,0
												c0,0.1,0,0.1,0,0.2C1102.3,270.9,1103.1,271.4,1104,271.6L1104,271.6z"/>
										</g>
									</g>
								</g>
							</g>
						</g>
					</g>
				</g>
			</g>
			<g>
				<g>
					<g>
						<g>
							<path class="st26" d="M1111.1,266.1l3.4-0.8c0,0,1.9,4.7,1.9,4.8c0,0.2-0.9,4.3-1.1,4.3c-0.1,0-1.2-1.1-1.2-1.1L1111.1,266.1
								z"/>
						</g>
					</g>
				</g>
			</g>
			<g>
				<g>
					<g>
						<g>
							<path class="st10" d="M1117.3,263l1.7-0.3c0.1,0,0.2-0.1,0.2-0.2s-0.1-0.2-0.2-0.2l-1.4,0.2l-3.1-4.8
								c-0.1-0.1-0.2-0.1-0.3-0.1c-0.1,0.1-0.1,0.2-0.1,0.3L1117.3,263z"/>
						</g>
					</g>
				</g>
			</g>
			<g>
				<g>
					<g>
						<g>
							<g>
								<g>
									<g>
										<path class="st10" d="M1116.7,251.3c-0.1,0-0.1,0-0.1-0.1c-1.2-1.8-2.3-1.8-2.3-1.8l0,0c-0.1,0-0.2-0.1-0.2-0.2
											c0-0.1,0.1-0.2,0.2-0.2l0,0c0.1,0,1.2,0,2.6,1.9C1116.9,251.2,1116.9,251.3,1116.7,251.3L1116.7,251.3z"/>
									</g>
								</g>
							</g>
						</g>
					</g>
				</g>
				<g>
					<g>
						<g>
							<g>
								<g>
									<g>
										<path class="st10" d="M1116.3,253c-0.1,0-0.1,0-0.1-0.1c-0.9-1.9-2-2.1-2-2.1c-0.1,0-0.2-0.1-0.1-0.2
											c0-0.1,0.1-0.2,0.2-0.1c0,0,1.2,0.2,2.3,2.3C1116.5,252.9,1116.5,253,1116.3,253C1116.4,253,1116.4,253,1116.3,253z"/>
									</g>
								</g>
							</g>
						</g>
					</g>
				</g>
			</g>
			<g>
				<g>
					<g>
						<g>
							<g>
								<g>
									<g>
										<g>
											<path class="st20" d="M1107.1,266.4c0,0-0.1,0-0.1-0.1s0-0.1,0-0.1c0.7-0.4,1.7-1.3,1.7-1.3s0.1,0,0.2,0c0,0,0,0.1,0,0.2
												C1108.8,265.1,1107.8,265.9,1107.1,266.4L1107.1,266.4z"/>
										</g>
									</g>
								</g>
							</g>
						</g>
					</g>
				</g>
				<g>
					<g>
						<g>
							<g>
								<g>
									<g>
										<g>
											<path class="st20" d="M1107.3,267.7c-0.1,0-0.1,0-0.1-0.1s0-0.1,0.1-0.1c1-0.4,1.7-1.1,1.7-1.1s0.1,0,0.2,0
												c0,0,0,0.1,0,0.2C1109.1,266.6,1108.4,267.3,1107.3,267.7C1107.4,267.7,1107.4,267.7,1107.3,267.7z"/>
										</g>
									</g>
								</g>
							</g>
						</g>
					</g>
				</g>
				<g>
					<g>
						<g>
							<g>
								<g>
									<g>
										<g>
											<path class="st20" d="M1107.9,269.2c0,0-0.1,0-0.1-0.1s0-0.1,0.1-0.1c0.8-0.4,1.5-1,1.5-1s0.1,0,0.2,0c0,0,0,0.1,0,0.2
												C1109.5,268.2,1108.8,268.9,1107.9,269.2L1107.9,269.2z"/>
										</g>
									</g>
								</g>
							</g>
						</g>
					</g>
				</g>
			</g>
			<g>
				<g>
					<g>
						<g>
							<path class="st10" d="M1092.9,262.9l-1.7,0.1c-0.1,0-0.2-0.1-0.2-0.2s0.1-0.2,0.2-0.2l1.4-0.1l2.1-5.3c0-0.1,0.2-0.2,0.3-0.1
								c0.1,0,0.2,0.2,0.1,0.3L1092.9,262.9z"/>
						</g>
					</g>
				</g>
			</g>
			<g>
				<g>
					<g>
						<path class="st26" d="M1099.9,265l-1.7,8.3c0,0-3.5-2.9-3.5-3.2c0-0.3,1.1-4.2,1.2-4.2S1099.9,265,1099.9,265z"/>
					</g>
				</g>
			</g>
			<g>
				<g>
					<g>
						<g>
							<path class="st10" d="M1098.3,273.4h-0.2c0,0-4.2-0.3-9-2.3c-0.1,0-0.1-0.2-0.1-0.3c0-0.1,0.2-0.1,0.3-0.1
								c4.2,1.7,7.8,2.2,8.6,2.2l1.5-7.8l-6.7-2.3c-0.1,0-0.2-0.1-0.1-0.3c0-0.1,0.1-0.2,0.3-0.1l7.1,2.4L1098.3,273.4z"/>
						</g>
					</g>
				</g>
			</g>
			<g>
				<g>
					<g>
						<g>
							<path class="st10" d="M1112,273.4h0.2c0,0,4.2-0.3,9-2.3c0.1,0,0.1-0.2,0.1-0.3c0-0.1-0.2-0.1-0.3-0.1
								c-4.2,1.7-7.8,2.2-8.6,2.2l-1.5-7.8l6.7-2.3c0.1,0,0.2-0.1,0.1-0.3c0-0.1-0.1-0.2-0.3-0.1l-7.1,2.4L1112,273.4z"/>
						</g>
					</g>
				</g>
			</g>
		</g>
		<g>
			<g>
				<path class="st8" d="M1088.8,282.3h31.7c0.6,0,1.1-0.5,1.1-1.1v-17.7c0-0.6-0.5-1.1-1.1-1.1h-31.7c-0.6,0-1.1,0.5-1.1,1.1v17.7
					C1087.7,281.8,1088.2,282.3,1088.8,282.3z"/>
			</g>
		</g>
		<g>
			<g>
				<path class="st7" d="M1103,270.7c0-0.7,0.6-1.4,1.4-1.4s1.4,0.6,1.4,1.4s-0.6,1.4-1.4,1.4S1103,271.4,1103,270.7z"/>
			</g>
		</g>
	</g>
	<g>
		<g>
			<g>
				<g>
					<path class="st7" d="M228.2,275.7c0,0,5,12.5,0.8,21.9l95.5,0.8l8.8-0.8l7.8-4.8v-7.4l-2.2-6.1l-7-3.7H228.2V275.7z"/>
				</g>
			</g>
		</g>
		<g>
			<g>
				<g>
					<g>
						<path class="st11" d="M329,299.7H225.8c-0.7,0-1.2-0.5-1.2-1.2s0.5-1.2,1.2-1.2H329c6.2,0,11.3-4.7,11.3-10.5
							s-5.1-10.5-11.3-10.5H225.8c-0.7,0-1.2-0.5-1.2-1.2s0.5-1.2,1.2-1.2H329c7.6,0,13.7,5.8,13.7,12.9
							C342.7,293.9,336.5,299.7,329,299.7z"/>
					</g>
				</g>
			</g>
		</g>
		<g>
			<g>
				<g>
					<path class="st27" d="M229.6,287h50.6c0.1,0,0.3-0.1,0.3-0.3c0-0.1-0.1-0.3-0.3-0.3h-50.6c-0.1,0-0.3,0.1-0.3,0.3
						C229.4,286.9,229.5,287,229.6,287z"/>
				</g>
			</g>
		</g>
		<g>
			<g>
				<g>
					<path class="st27" d="M287.4,287h49.2c0.1,0,0.3-0.1,0.3-0.3c0-0.1-0.1-0.3-0.3-0.3h-49.2c-0.1,0-0.3,0.1-0.3,0.3
						S287.2,287,287.4,287z"/>
				</g>
			</g>
		</g>
		<g>
			<g>
				<g>
					<path class="st27" d="M310,291.9h25.2c0.1,0,0.3-0.1,0.3-0.3c0-0.1-0.1-0.3-0.3-0.3H310c-0.1,0-0.3,0.1-0.3,0.3
						C309.7,291.7,309.9,291.9,310,291.9z"/>
				</g>
			</g>
		</g>
		<g>
			<g>
				<g>
					<path class="st27" d="M229.6,291.9h76.7c0.1,0,0.3-0.1,0.3-0.3c0-0.1-0.1-0.3-0.3-0.3h-76.7c-0.1,0-0.3,0.1-0.3,0.3
						C229.4,291.7,229.5,291.9,229.6,291.9z"/>
				</g>
			</g>
		</g>
		<g>
			<g>
				<g>
					<path class="st7" d="M324,251.6c0,0-4.6,11.6-0.7,20.4l-88.6,0.7l-8.2-0.7l-7.2-4.5v-6.8l2-5.6l6.5-3.4H324V251.6z"/>
				</g>
			</g>
		</g>
		<g>
			<g>
				<g>
					<g>
						<path class="st6" d="M230.5,273.8h95.7c0.6,0,1.1-0.5,1.1-1.1s-0.5-1.1-1.1-1.1h-95.7c-5.8,0-10.5-4.4-10.5-9.7
							c0-5.4,4.7-9.7,10.5-9.7h95.7c0.6,0,1.1-0.5,1.1-1.1s-0.5-1.1-1.1-1.1h-95.7c-7,0-12.7,5.4-12.7,12
							C217.7,268.5,223.4,273.8,230.5,273.8z"/>
					</g>
				</g>
			</g>
		</g>
		<g>
			<g>
				<g>
					<path class="st27" d="M275.7,262.1h47c0.1,0,0.3-0.1,0.3-0.3c0-0.1-0.1-0.3-0.3-0.3h-47c-0.1,0-0.3,0.1-0.3,0.3
						C275.4,262,275.5,262.1,275.7,262.1z"/>
				</g>
			</g>
		</g>
		<g>
			<g>
				<g>
					<path class="st27" d="M223.4,262.1H269c0.1,0,0.3-0.1,0.3-0.3c0-0.1-0.1-0.3-0.3-0.3h-45.6c-0.1,0-0.3,0.1-0.3,0.3
						C223.2,262,223.3,262.1,223.4,262.1z"/>
				</g>
			</g>
		</g>
		<g>
			<g>
				<g>
					<path class="st27" d="M224.7,266.6h23.4c0.1,0,0.3-0.1,0.3-0.3c0-0.1-0.1-0.3-0.3-0.3h-23.4c-0.1,0-0.3,0.1-0.3,0.3
						S224.5,266.6,224.7,266.6z"/>
				</g>
			</g>
		</g>
		<g>
			<g>
				<g>
					<path class="st27" d="M224.7,257.6h98c0.1,0,0.3-0.1,0.3-0.3c0-0.1-0.1-0.3-0.3-0.3h-98c-0.1,0-0.3,0.1-0.3,0.3
						C224.4,257.5,224.5,257.6,224.7,257.6z"/>
				</g>
			</g>
		</g>
		<g>
			<g>
				<g>
					<g>
						<path class="st10" d="M225.8,299.9H329c7.7,0,14-5.9,14-13.2c0-7.3-6.3-13.2-14-13.2H225.8c-0.8,0-1.5,0.7-1.5,1.5
							s0.7,1.5,1.5,1.5c0.1,0,0.3-0.1,0.3-0.3c0-0.1-0.1-0.3-0.3-0.3c-0.5,0-0.9-0.4-0.9-0.9s0.4-0.9,0.9-0.9H329
							c7.4,0,13.5,5.7,13.5,12.6c0,7-6,12.6-13.5,12.6H225.8c-0.5,0-0.9-0.4-0.9-0.9s0.4-0.9,0.9-0.9c0.1,0,0.3-0.1,0.3-0.3
							s-0.1-0.3-0.3-0.3c-0.8,0-1.5,0.7-1.5,1.5C224.4,299.3,225,299.9,225.8,299.9z"/>
					</g>
				</g>
			</g>
		</g>
		<g>
			<g>
				<g>
					<g>
						<path class="st10" d="M230.5,274.1h95.7c0.8,0,1.4-0.6,1.4-1.4s-0.6-1.4-1.4-1.4c-0.1,0-0.3,0.1-0.3,0.3
							c0,0.1,0.1,0.3,0.3,0.3c0.5,0,0.9,0.4,0.9,0.9s-0.4,0.9-0.9,0.9h-95.7c-6.9,0-12.5-5.3-12.5-11.7c0-6.5,5.6-11.7,12.5-11.7
							h95.7c0.5,0,0.9,0.4,0.9,0.9s-0.4,0.9-0.9,0.9c-0.1,0-0.3,0.1-0.3,0.3c0,0.1,0.1,0.3,0.3,0.3c0.8,0,1.4-0.6,1.4-1.4
							c0-0.8-0.6-1.4-1.4-1.4h-95.7c-7.2,0-13,5.5-13,12.3C217.5,268.6,223.3,274.1,230.5,274.1z"/>
					</g>
				</g>
			</g>
		</g>
		<g>
			<g>
				<g>
					<path class="st4" d="M242.2,281.9c0,0-3.2,8.1-1.4,14.1l2.6-4.1c0,0,1.8,2.2,2.9,4.1c0,0,2-13.3,5.9-14.1H242.2z"/>
				</g>
			</g>
		</g>
		<g>
			<g>
				<g>
					<path class="st4" d="M266.7,266.4c0,0,3.2,8.1,1.4,14.1l-2.6-4.1c0,0-1.8,2.2-2.9,4.1c0,0-2-13.3-5.9-14.1H266.7z"/>
				</g>
			</g>
		</g>
		<g>
			<g>
				<g>
					<path class="st27" d="M229.6,282.2h105.6c0.1,0,0.3-0.1,0.3-0.3s-0.1-0.3-0.3-0.3H229.6c-0.1,0-0.3,0.1-0.3,0.3
						S229.5,282.2,229.6,282.2z"/>
				</g>
			</g>
		</g>
		<g>
			<g>
				<g>
					<path class="st27" d="M251.5,266.6h71.2c0.1,0,0.3-0.1,0.3-0.3c0-0.1-0.1-0.3-0.3-0.3h-71.2c-0.1,0-0.3,0.1-0.3,0.3
						C251.2,266.5,251.4,266.6,251.5,266.6z"/>
				</g>
			</g>
		</g>
	</g>
	<g>
		<g>
			<g>
				<g>
					<g>
						<g>
							<g>
								<polygon class="st16" points="341.3,290 336.7,292.6 331.1,287.1 330.9,286.2 332.3,276.3 343.1,278.3 								"/>
							</g>
						</g>
					</g>
				</g>
			</g>
			<g>
				<g>
					<g>
						<g>
							<path class="st10" d="M333.4,292.9l15,2c0.1,0,0.3,0,0.3,0c1.5-0.2,1.1-1.2,1.1-1.2l-6.6-5.4v-0.7c-0.1-1.1-1.3-1.6-2.4-1
								l-2.8,1.5c0,0-6.5,0.1-7.1-1.8l-0.6,4.7C330.3,290.9,329.7,292.4,333.4,292.9z"/>
						</g>
					</g>
				</g>
			</g>
		</g>
		<g>
			<g>
				<g>
					<g>
						<g>
							<g>
								<polygon class="st16" points="360.7,290.6 356,293.3 350.4,287.8 350.3,286.9 351.6,276.9 362.5,278.9 								"/>
							</g>
						</g>
					</g>
				</g>
			</g>
			<g>
				<g>
					<g>
						<g>
							<path class="st10" d="M352.7,293.5l15,2c0.1,0,0.3,0,0.3,0c1.5-0.2,1.1-1.2,1.1-1.2l-6.6-5.4v-0.7c-0.1-1.1-1.3-1.6-2.4-1
								l-2.8,1.5c0,0-6.5,0.1-7.1-1.8l-0.6,4.7C349.7,291.6,349,293,352.7,293.5z"/>
						</g>
					</g>
				</g>
			</g>
		</g>
		<g>
			<g>
				<g>
					<g>
						<g>
							<path class="st8" d="M324,250.8c0,0-18.7,0.9-23.8-0.3c-5.2-1.2-6.5-17.3-0.6-27.2s26.5,20.5,26.5,20.5L324,250.8z"/>
						</g>
					</g>
				</g>
			</g>
			<g>
				<g>
					<g>
						<g>
							<g>
								<path class="st10" d="M335.5,226.7c0,0,26,4,26.7,7.1s2.9,35.1,1.3,48.7c0,0-9.9,0.7-14.6-0.5l-1.3-31.3l-8,0.1L322,226.3
									L335.5,226.7z"/>
							</g>
						</g>
					</g>
				</g>
			</g>
			<g>
				<g>
					<g>
						<g>
							<g>
								<path class="st8" d="M322.9,228.6c0,0,20.1,5.7,20.9,8.7s2.9,31.6,1.3,45.3c0,0-10.6,0.6-15.4-0.5l-1.3-31.4l-4.6,0.2
									l-11.1-19.6L322.9,228.6z"/>
							</g>
						</g>
					</g>
				</g>
			</g>
			<g>
				<g>
					<g>
						<path class="st6" d="M310.4,190.3c0,0-8.9,0.1-11,1.4c-2.1,1.2-11.5,16.8-13.6,23.4c0,0,5.3,4.7,12.2,4.9l1.7-3.1l-0.9,6.4
							l18,5.4c6.1,1.8,12.7,1.6,18.7-0.6l1.9-0.7c0,0,0-30.4-5.5-33.6C327.1,190.8,316.6,189.3,310.4,190.3z"/>
					</g>
				</g>
			</g>
			<g>
				<g>
					<g>
						<g>
							<g>
								<path class="st16" d="M321.6,175.4v8.6c0,0,0.1,2.9-2.4,3.3l0.5,3.9c0.2,1.4-0.7,2.8-2.1,3.3c-0.7,0.2-1.5,0.4-2.4,0.4
									c-2.9,0-4.5-2.2-4.7-3.3s0.5-6.3,0.5-6.3l-0.1-2.6l0.3-9.9L321.6,175.4z"/>
							</g>
						</g>
					</g>
				</g>
			</g>
			<g>
				<g>
					<g>
						<g>
							<g>
								<path class="st10" d="M314.6,179.7C314.5,179.7,314.5,179.6,314.6,179.7c-0.1-0.1-0.1-0.2-0.1-0.2s1.7-1.7,3.2-0.5
									c0.1,0,0.1,0.1,0,0.2c0,0.1-0.1,0.1-0.2,0C316.2,178.1,314.7,179.6,314.6,179.7C314.6,179.6,314.6,179.7,314.6,179.7z"/>
							</g>
						</g>
					</g>
				</g>
			</g>
			<g>
				<g>
					<g>
						<g>
							<g>
								<path class="st10" d="M319.5,178.9L319.5,178.9c-0.1-0.1-0.1-0.2-0.1-0.2s1.2-1,1.9-0.4c0.1,0,0.1,0.1,0,0.2
									c0,0.1-0.1,0.1-0.2,0C320.7,178,319.6,178.9,319.5,178.9C319.6,178.9,319.6,178.9,319.5,178.9z"/>
							</g>
						</g>
					</g>
				</g>
			</g>
			<g>
				<g>
					<g>
						<g>
							<g>
								<path d="M317,180.1c0,0.2-0.2,0.4-0.4,0.4c-0.2,0-0.4-0.2-0.4-0.4s0.2-0.4,0.4-0.4C316.8,179.8,317,179.9,317,180.1z"/>
							</g>
						</g>
					</g>
				</g>
			</g>
			<g>
				<g>
					<g>
						<g>
							<g>
								<circle cx="320.5" cy="179.8" r="0.4"/>
							</g>
						</g>
					</g>
				</g>
			</g>
			<g>
				<g>
					<g>
						<g>
							<g>
								<path class="st10" d="M311.5,173.2l2,2.9c0,0,6.1,2.4,9.3-0.4c3.1-2.8,2.2-4.2,1.3-5.6c-0.5-0.7-2.6-2.1-5.3-0.9
									c-1.5,0.6-2.5-1.3-4.2-0.3s-3.7,2.6-3.5,3.3C311.3,172.7,311.5,173.2,311.5,173.2z"/>
							</g>
						</g>
					</g>
				</g>
			</g>
			<g>
				<g>
					<g>
						<g>
							<g>
								<path class="st10" d="M311.6,172c0,0-2.8-0.1-3.6,2.6s0.3,4.1,0.3,4.9c0,0.8-0.5,6.2,3.3,5.8l1-8.9l-1.3-3.6L311.6,172z"/>
							</g>
						</g>
					</g>
				</g>
			</g>
			<g>
				<g>
					<g>
						<g>
							<g>
								<circle class="st16" cx="311.8" cy="180" r="2.2"/>
							</g>
						</g>
					</g>
				</g>
			</g>
			<g>
				<g>
					<g>
						<g>
							<g>
								<path class="st20" d="M311.7,181.4c-0.5,0-0.8-0.3-0.9-0.7s0-0.8,0.3-1c0.5-0.3,0.9-0.1,1.1,0c-0.1-0.2-0.2-0.4-0.4-0.5
									c-0.4-0.2-1-0.1-1-0.1h-0.1V179c0,0,0.6-0.2,1.1,0.1c0.3,0.2,0.5,0.4,0.6,0.8l0.1,0.2l-0.2-0.2c0,0-0.5-0.5-1.2-0.1
									c-0.3,0.2-0.4,0.6-0.3,0.9c0.1,0.3,0.3,0.6,0.7,0.6l0,0C311.7,181.2,311.7,181.3,311.7,181.4
									C311.7,181.3,311.7,181.4,311.7,181.4L311.7,181.4z"/>
							</g>
						</g>
					</g>
				</g>
			</g>
			<g>
				<g>
					<g>
						<g>
							<g>
								<path class="st20" d="M313.3,184.8c0,0,0.2,4.9,6.2,5.3l-0.4-2.9C319.1,187.2,315.2,188,313.3,184.8z"/>
							</g>
						</g>
					</g>
				</g>
			</g>
			<g>
				<g>
					<g>
						<g>
							<g>
								<path class="st10" d="M299.5,217.2c-7.5-1.2-12-5.7-12-5.7l0.3-0.3c0,0,4.4,4.5,11.8,5.6L299.5,217.2z"/>
							</g>
						</g>
					</g>
				</g>
			</g>
			<g>
				<g>
					<g>
						<g>
							<g>
								<path class="st10" d="M336,283c-4.7,0-6.4-0.7-6.5-0.7h-0.1l-1.2-31.6l1.9,0.9l-0.2,0.3l-1.4-0.7l1.2,30.8
									c0.5,0.2,2.9,0.9,8.7,0.6v0.4C337.6,282.9,336.8,283,336,283z"/>
							</g>
						</g>
					</g>
				</g>
			</g>
			<g>
				<g>
					<g>
						<g>
							<g>
								<path class="st10" d="M331.6,276.1c-0.5-1.9-0.6-20.8-0.7-21.6h0.4c0,0.2,0.1,19.6,0.6,21.5L331.6,276.1z"/>
							</g>
						</g>
					</g>
				</g>
			</g>
			<g>
				<g>
					<g>
						<g>
							<g>
								<path class="st10" d="M355.7,283.1c-4,0-7-0.7-7-0.7l-1.2-31.6l1.5,1l-0.2,0.3l-0.9-0.7l1.1,30.7c0.6,0.1,3.3,0.7,7,0.6v0.4
									C355.9,283.1,355.8,283.1,355.7,283.1z"/>
							</g>
						</g>
					</g>
				</g>
			</g>
			<g>
				<g>
					<g>
						<g>
							<g>
								<path class="st10" d="M350.6,276.8c-0.5-2.9,0-22.7,0-23.6h0.4c0,0.2-0.5,20.6,0,23.5L350.6,276.8z"/>
							</g>
						</g>
					</g>
				</g>
			</g>
			<g>
				<g>
					<g>
						<g>
							<g>
								<path class="st16" d="M332.7,230.2l-2.1-3.2l0,0c-1.1-1.8-3-4.2-4.9-4.4c-3.1-0.3-22.1-1.1-28.1-1.9l0.4-0.7
									c-0.1,0-4.9-0.8-4.9-0.8l-3.1-1.5l-2.8-1.2c-0.8,3-2.9,8-0.7,11.4c4,6.4,34.9,3.2,37.6,2.4l2.5,2.7l0.5,0.8
									c0.2,0.4,0.7,0.5,1.1,0.2c0.4-0.2,0.5-0.7,0.2-1.1l0.2,0.3c0.2,0.4,0.7,0.5,1.1,0.2l0,0c0.4-0.2,0.5-0.7,0.2-1.1
									c0.2,0.4,0.7,0.5,1.1,0.2c0.4-0.2,0.5-0.7,0.2-1.1l-0.2-0.3c0.2,0.4,0.7,0.5,1.1,0.2l0,0l0,0l0,0l0,0l0,0l0,0
									c0.1,0,0.1-0.1,0.1-0.1C333,230.7,332.7,230.2,332.7,230.2z"/>
							</g>
						</g>
					</g>
				</g>
			</g>
			<g>
				<g>
					<g>
						<g>
							<g>
								<path class="st10" d="M298.2,220.2h-0.1c-6.1-0.1-12.3-4.9-12.3-4.9l-0.1-0.1l3.9-8.6l0.3,0.1l-3.8,8.3
									c0.9,0.6,6.4,4.6,11.9,4.7l1.7-3.4l0.3,0.2L298.2,220.2z"/>
							</g>
						</g>
					</g>
				</g>
			</g>
			<g>
				<g>
					<g>
						<g>
							<g>
								<path class="st20" d="M295.5,223.6h-0.1c-0.1,0-0.1-0.1,0-0.2l2.2-2.8c0-0.1,0.1-0.1,0.2,0c0.1,0,0.1,0.1,0,0.2L295.5,223.6
									C295.6,223.6,295.5,223.6,295.5,223.6z"/>
							</g>
						</g>
					</g>
				</g>
			</g>
			<g>
				<g>
					<g>
						<g>
							<g>
								<path class="st20" d="M331.6,231.6h-0.1l-2.9-4c0-0.1,0-0.1,0-0.2c0.1,0,0.1,0,0.2,0l2.9,4
									C331.7,231.5,331.7,231.6,331.6,231.6L331.6,231.6z"/>
							</g>
						</g>
					</g>
				</g>
			</g>
			<g>
				<g>
					<g>
						<g>
							<g>
								<path class="st20" d="M330.3,232.8c0,0-0.1,0-0.1-0.1l-2.8-4.1c0-0.1,0-0.1,0-0.2c0.1,0,0.1,0,0.2,0l2.8,4.1
									C330.4,232.6,330.4,232.7,330.3,232.8L330.3,232.8z"/>
							</g>
						</g>
					</g>
				</g>
			</g>
			<g>
				<g>
					<g>
						<g>
							<g>
								<path class="st20" d="M328.8,233.5c0,0-0.1,0-0.1-0.1l-2.3-3.5c0-0.1,0-0.1,0-0.2c0.1,0,0.1,0,0.2,0l2.3,3.5
									C328.9,233.4,328.9,233.5,328.8,233.5L328.8,233.5z"/>
							</g>
						</g>
					</g>
				</g>
			</g>
			<g>
				<g>
					<g>
						<g>
							<path class="st10" d="M316,251.1c9.2,0,14.8-0.6,14.9-0.6v-0.4c-0.1,0-12.6,1.4-31.2,0v0.4
								C305.8,250.9,311.3,251.1,316,251.1z"/>
						</g>
					</g>
				</g>
			</g>
			<g>
				<g>
					<g>
						<g>
							
								<rect x="328.8" y="202.4" transform="matrix(0.9995 -3.154992e-02 3.154992e-02 0.9995 -6.4648 10.4845)" class="st10" width="0.4" height="15.4"/>
						</g>
					</g>
				</g>
			</g>
			<g>
				<g>
					<g>
						<g>
							
								<rect x="292.6" y="211.7" transform="matrix(0.3984 -0.9172 0.9172 0.3984 -12.8895 404.1589)" class="st10" width="18.1" height="0.4"/>
						</g>
					</g>
				</g>
			</g>
			<g>
				<g>
					<g>
						<g>
							
								<rect x="297.1" y="218.2" transform="matrix(0.1595 -0.9872 0.9872 0.1595 36.2087 479.328)" class="st10" width="5" height="0.4"/>
						</g>
					</g>
				</g>
			</g>
			<g>
				<g>
					<g>
						<g>
							<g>
								<path class="st20" d="M318.3,182.6C318.3,182.6,318.2,182.6,318.3,182.6c-0.1-0.1-0.1-0.1,0-0.1l1.2-0.4l-0.4-2.9
									c0,0,0-0.1,0.1-0.1c0,0,0.1,0,0.1,0.1l0.4,3L318.3,182.6L318.3,182.6z"/>
							</g>
						</g>
					</g>
				</g>
			</g>
			<g>
				<g>
					<g>
						<g>
							<g>
								<path class="st22" d="M317.3,183.8l2.4-0.1c0,0-0.3,1-1.2,1C317.7,184.7,317.3,183.8,317.3,183.8z"/>
							</g>
						</g>
					</g>
				</g>
			</g>
		</g>
		<g>
			<g>
				<g>
					<g>
						<g>
							<polygon class="st7" points="367.8,206.6 339,206.6 328.9,232.2 357.8,232.2 							"/>
						</g>
					</g>
				</g>
				<g>
					<g>
						<g>
							<polygon class="st19" points="328.9,232.2 330.4,232.2 340.5,206.6 339,206.6 							"/>
						</g>
					</g>
				</g>
				<g>
					<g>
						<g>
							<path class="st19" d="M349,218.6c-0.4,1.2-0.1,2.3,0.7,2.6s1.7-0.5,2.1-1.7s0.1-2.3-0.7-2.6
								C350.3,216.7,349.4,217.4,349,218.6z"/>
						</g>
					</g>
				</g>
			</g>
			<g>
				<g>
					<g>
						<path class="st19" d="M319.4,230.2h10.8v2.1h-10.8c-0.6,0-1-0.5-1-1l0,0C318.4,230.6,318.8,230.2,319.4,230.2z"/>
					</g>
				</g>
			</g>
			<g>
				<g>
					<g>
						<rect x="322.1" y="230.9" class="st7" width="6.8" height="0.3"/>
					</g>
				</g>
			</g>
		</g>
		<g>
			<g>
				<rect x="320.3" y="232.3" class="st4" width="12.7" height="4.5"/>
			</g>
		</g>
	</g>
	<g>
		<g>
			<rect x="781.5" y="298.2" class="st10" width="355.4" height="1.1"/>
		</g>
	</g>
	<g>
		<g>
			<g>
				<g>
					<g>
						<g>
							<g>
								<g>
									<g>
										<g>
											<polygon class="st16" points="566.6,299.4 557.7,299.6 557.6,291.1 566.4,290 											"/>
										</g>
									</g>
								</g>
							</g>
						</g>
					</g>
				</g>
			</g>
		</g>
		<g>
			<g>
				<g>
					<g>
						<g>
							<g>
								<path class="st3" d="M575.8,300.9h-18.2v-3.7c0,0,1.3-1.8,3.3-0.9c0,0,3,2.2,5.7-0.4l6.7,2.9
									C573.3,298.9,575.8,299.7,575.8,300.9z"/>
							</g>
						</g>
					</g>
				</g>
			</g>
			<g>
				<g>
					<g>
						<g>
							<g>
								<path class="st2" d="M557.6,302.2h18.6c0.2,0,0.4-0.2,0.4-0.4v-0.5c0-0.2-0.2-0.4-0.4-0.4h-18.6V302.2z"/>
							</g>
						</g>
					</g>
				</g>
			</g>
			<g>
				<g>
					<g>
						<g>
							<g>
								<path class="st17" d="M568.6,296.9c-0.6,1-1.8,2.9-2.6,4.1h-1.2c0.7-1.1,2.2-3.4,2.9-4.5L568.6,296.9z"/>
							</g>
						</g>
					</g>
				</g>
			</g>
			<g>
				<g>
					<g>
						<g>
							<g>
								<path class="st17" d="M567.9,300.9h-1.2c0.6-0.9,1.7-2.6,2.5-3.8l1,0.4C569.5,298.5,568.6,300,567.9,300.9z"/>
							</g>
						</g>
					</g>
				</g>
			</g>
		</g>
		<g>
			<g>
				<g>
					<g>
						<g>
							<g>
								<g>
									<g>
										<g>
											<polygon class="st16" points="551.2,299.4 542.3,299.6 542.2,291.1 551.1,290 											"/>
										</g>
									</g>
								</g>
							</g>
						</g>
					</g>
				</g>
			</g>
		</g>
		<g>
			<g>
				<g>
					<g>
						<g>
							<g>
								<g>
									<path class="st2" d="M552.2,226.6c0.3,8.7,1.6,42.7,4.3,64.9c0.2,1.5,1.4,2.6,2.9,2.6c1.6,0,3.9-0.2,6.4-1
										c1.2-0.4,2.1-1.5,2.1-2.8l1.1-67.7c0-0.2,0-0.3,0-0.5l-0.1-0.3c-0.3-1.8-2.2-3-3.9-2.3l-10.9,4.2
										C552.9,224.2,552.1,225.4,552.2,226.6z"/>
								</g>
							</g>
						</g>
					</g>
				</g>
			</g>
		</g>
		<g>
			<g>
				<g>
					<g>
						<g>
							<g>
								<g>
									<path class="st18" d="M540.2,224.9c0,0-0.7,41.8,1.2,67.6c0.1,1.2,1.1,2.2,2.3,2.3c1.7,0.1,4.4,0.1,7.3-0.7
										c1-0.3,1.7-1.1,1.8-2.2L558,232l3.2-16.6L540.2,224.9z"/>
								</g>
							</g>
						</g>
					</g>
				</g>
			</g>
		</g>
		<g>
			<g>
				<g>
					<g>
						<g>
							<g>
								<g>
									<path class="st10" d="M541.6,294.4L541.6,294.4L541.6,294.4z"/>
								</g>
							</g>
						</g>
					</g>
				</g>
			</g>
		</g>
		<g>
			<g>
				<g>
					<g>
						<g>
							<path class="st6" d="M536.9,211.6c0.2,1.7,1.2,26.4,4,28.5c2.8,2,29.4,0.1,30-2.3c0.6-2.4-3-28.3-3-28.3L536.9,211.6z"/>
						</g>
					</g>
				</g>
			</g>
		</g>
		<g>
			<g>
				<g>
					<g>
						<g>
							<g>
								<g>
									<g>
										<path class="st6" d="M566.9,199.9c0.4,0,14.6,6.7,14.6,6.7l-3.1,5.5l-8-2.1L566.9,199.9z"/>
									</g>
								</g>
							</g>
						</g>
					</g>
				</g>
			</g>
		</g>
		<g>
			<g>
				<g>
					<g>
						<g>
							<g>
								<path class="st6" d="M546.9,173.3c0,0-6.1-0.4-9.1,1.1c-4.5,2.3-3.4,16.6-3.4,16.6s3.8-1.9,4-2.6
									C538.7,187.8,546.9,173.3,546.9,173.3z"/>
							</g>
						</g>
					</g>
				</g>
			</g>
		</g>
		<g>
			<g>
				<g>
					<g>
						<g>
							<g>
								<path class="st6" d="M540.9,174.2c3.5-0.4,12.7-0.4,12.7-0.4s1.2,0.4,0.8,0.2c10.1,2.1,11,9.7,11,9.7l4.2,21.9l5.5,0.5
									c1.7,3.4,0,12.5,0,12.5l-26.8,2.1c0,0-5.8,0.8-10.5-5.7c-3.1-4.3-3.8-17-3.4-26.3C534.4,188.8,535.5,174.8,540.9,174.2z"/>
							</g>
						</g>
					</g>
				</g>
			</g>
		</g>
		<g>
			<g>
				<g>
					<g>
						<g>
							<g>
								<g>
									<g>
										<path class="st10" d="M548.8,205.3C548.9,205.3,548.9,205.3,548.8,205.3c0.2,0,0.2-0.1,0.2-0.2c0-0.1-2.4-12.1-3.3-19.6
											c0-0.1-0.1-0.2-0.2-0.1c-0.1,0-0.2,0.1-0.1,0.2c0.9,7.5,3.3,19.5,3.4,19.6C548.7,205.3,548.8,205.3,548.8,205.3z"/>
									</g>
								</g>
							</g>
						</g>
					</g>
				</g>
			</g>
		</g>
		<g>
			<g>
				<g>
					<g>
						<g>
							<g>
								<g>
									<g>
										<path class="st10" d="M565.4,205.6L565.4,205.6c-0.2,0-0.3-0.1-0.3-0.2c0-0.1-0.8-13.9-1.6-18.5c0-0.1,0-0.2,0.1-0.2
											s0.2,0,0.2,0.1c0.8,4.6,1.6,18.4,1.6,18.5C565.5,205.5,565.4,205.6,565.4,205.6z"/>
									</g>
								</g>
							</g>
						</g>
					</g>
				</g>
			</g>
		</g>
		<g>
			<g>
				<g>
					<g>
						<g>
							<g>
								<g>
									<g>
										<path class="st10" d="M567.4,202.6c0.1,0,0.2,0,0.2-0.1l1.2-1.9v-0.1l-3.2-16.9c0-0.2-0.3-2.1-1.9-4.3
											c-1.5-2.1-4.5-4.7-10.2-5.7c-0.1,0-0.2,0-0.2,0.1s0,0.2,0.1,0.2c5.6,0.9,8.5,3.5,10,5.6c1.6,2.2,1.8,4.2,1.8,4.2l0,0
											l3.2,16.8l-1.1,1.8C567.3,202.5,567.3,202.6,567.4,202.6L567.4,202.6z"/>
									</g>
								</g>
							</g>
						</g>
					</g>
				</g>
			</g>
		</g>
		<g>
			<g>
				<g>
					<g>
						<g>
							<g>
								<g>
									<g>
										<path class="st10" d="M544.3,204C544.3,204,544.4,204,544.3,204l4.5,1.2c0.1,0,0.2,0,0.2-0.1s0-0.2-0.1-0.2l-4.5-1.2
											c-0.1,0-0.2,0-0.2,0.1C544.2,203.9,544.3,204,544.3,204z"/>
									</g>
								</g>
							</g>
						</g>
					</g>
				</g>
			</g>
		</g>
		<g>
			<g>
				<g>
					<g>
						<g>
							<g>
								<g>
									<g>
										<path class="st10" d="M573.4,202.9c0.1,0,0.2,0,0.2-0.1s0-0.2-0.1-0.2l-4.8-2.1c-0.1,0-0.2,0-0.2,0.1s0,0.2,0.1,0.2
											L573.4,202.9L573.4,202.9z"/>
									</g>
								</g>
							</g>
						</g>
					</g>
				</g>
			</g>
		</g>
		<g>
			<g>
				<g>
					<g>
						<g>
							<g>
								<g>
									<g>
										<g>
											<g>
												<path class="st8" d="M593.4,218.9l-15.8-1c-0.8,0-1.4-0.7-1.3-1.4l3.2-23.3c0.1-0.5,0.5-0.8,1-0.7l15.8,1
													c0.8,0,1.4,0.7,1.3,1.4l-3.2,23.3C594.3,218.6,593.9,218.9,593.4,218.9z"/>
											</g>
										</g>
									</g>
								</g>
							</g>
						</g>
					</g>
				</g>
			</g>
			<g>
				<g>
					<g>
						<g>
							<g>
								<g>
									<g>
										<g>
											<g>
												<g>
													<g>
														<path class="st16" d="M585.7,214c0-0.4-0.4-0.8-0.8-0.8l-2.7-0.2c-0.1,0-0.2-0.1-0.2-0.1l0,0c0-0.1,0.1-0.2,0.2-0.2
															l4-0.3c0.5,0,0.7-0.4,0.6-0.9l0,0c-0.1-0.4-0.6-0.8-1-0.7l-4.1,0.3c-0.1,0-0.2-0.1-0.2-0.1v-0.1c0-0.1,0-0.2,0.1-0.2
															l4.4-1.2c0.4-0.1,0.7-0.6,0.6-1c-0.1-0.4-0.6-0.7-1-0.6l-4.4,1.2c-0.1,0-0.2,0-0.2-0.1l-0.1-0.2c0-0.1,0-0.2,0.1-0.2
															l3.9-1.6c0.4-0.2,0.6-0.6,0.5-1.1c-0.2-0.4-0.7-0.6-1.1-0.5c0,0-6,2.1-7,2.4l1.8-0.8c1.3,1.2-0.2-0.5-1.3-0.7
															c-1.2-0.2-4.4,2.7-4.4,2.7c-0.1,0.3,0,0.8,0.2,1.2c0.9,4.7,1.1,5.4,1.4,6.7l4.9-1.5c1.4-0.4,2.9-0.6,4.4-0.5h0.4
															C585.3,214.8,585.7,214.4,585.7,214z"/>
													</g>
												</g>
											</g>
										</g>
									</g>
								</g>
							</g>
						</g>
					</g>
				</g>
			</g>
			<g>
				<g>
					<g>
						<g>
							<g>
								<g>
									<g>
										<g>
											<g>
												<path class="st7" d="M589.3,201.5c0,0.9-0.7,1.6-1.5,1.6s-1.5-0.6-1.5-1.5s0.7-1.6,1.5-1.6
													C588.6,199.9,589.3,200.6,589.3,201.5z"/>
											</g>
										</g>
									</g>
								</g>
							</g>
						</g>
					</g>
				</g>
			</g>
			<g>
				<g>
					<g>
						<g>
							<g>
								<g>
									<g>
										<polygon class="st8" points="577.9,205.8 577.7,207.5 579.6,206.9 579.5,205.6 										"/>
									</g>
								</g>
							</g>
						</g>
					</g>
				</g>
			</g>
			<g>
				<g>
					<g>
						<g>
							<g>
								<g>
									<path class="st10" d="M596.2,193.3l-15.8-1c-0.6,0-1.1,0.3-1.2,0.9l-1.9,14.5l0.4-0.1l1.8-14.3c0.1-0.4,0.4-0.6,0.9-0.6
										l15.8,1c0.1,0,0.2-0.1,0.2-0.2S596.3,193.3,596.2,193.3z"/>
								</g>
							</g>
						</g>
					</g>
				</g>
			</g>
		</g>
		<g>
			<g>
				<g>
					<g>
						<g>
							<g>
								<path class="st6" d="M575.1,206.1c0,0,1.6,4.2,0,12.5l-1.6-6l-2.6-3.9L575.1,206.1z"/>
							</g>
						</g>
					</g>
				</g>
			</g>
		</g>
		<g>
			<g>
				<g>
					<g>
						<g>
							<g>
								<g>
									<g>
										<path class="st10" d="M543,205.3L543,205.3c0.3,0,24.2,0.1,32,1c0.2,0.5,1,3.2,0.6,8c0,0.1,0.1,0.2,0.2,0.2
											c0.1,0,0.2-0.1,0.2-0.2c0.5-5.5-0.6-8.2-0.6-8.3v-0.1h-0.1c-7.7-0.9-31.8-1-32.1-1c-0.1,0-0.2,0.1-0.2,0.2
											C542.9,205.2,542.9,205.2,543,205.3z"/>
									</g>
								</g>
							</g>
						</g>
					</g>
				</g>
			</g>
		</g>
		<g>
			<g>
				<g>
					<g>
						<g>
							<path class="st10" d="M552.8,220.2c9.8,0,21.7-1.3,22.5-1.3c0.1,0,0.2-0.1,0.2-0.2c0-0.1-0.1-0.2-0.2-0.2
								c-0.3,0-26.7,2.8-33.4,0.2c-6.6-2.6-7-17-7-17.2c0-0.1-0.1-0.2-0.2-0.2c-0.1,0-0.2,0.1-0.2,0.2c0,0.6,0.5,14.9,7.3,17.5
								C543.9,219.9,548,220.2,552.8,220.2z"/>
						</g>
					</g>
				</g>
			</g>
		</g>
		<g>
			<g>
				<g>
					<g>
						<g>
							<g>
								<g>
									<path class="st10" d="M547.1,158.2c0,0-2.3,1.2-1.2,5.9l0.9-0.5l-0.3-2.5L547.1,158.2z"/>
								</g>
							</g>
						</g>
					</g>
				</g>
			</g>
			<g>
				<g>
					<g>
						<g>
							<g>
								<g>
									<g>
										<g>
											<g>
												<path class="st16" d="M555.2,161.1v6.9c0,0,0.1,2.3-1.9,2.6l0.4,3.1c0.1,1.2-0.5,2.3-1.6,2.6c-0.5,0.2-1.2,0.3-1.9,0.3
													c-2.3,0-3.6-1.7-3.7-2.6c-0.2-0.9,0.4-5,0.4-5l-0.1-2l0.3-7.9L555.2,161.1z"/>
											</g>
										</g>
									</g>
								</g>
							</g>
						</g>
					</g>
				</g>
			</g>
			<g>
				<g>
					<g>
						<g>
							<g>
								<g>
									<g>
										<g>
											<g>
												<path class="st10" d="M549.6,164.6L549.6,164.6c-0.1-0.1-0.1-0.1-0.1-0.2c0,0,1.3-1.4,2.5-0.4v0.1h-0.1
													C550.9,163.3,549.8,164.5,549.6,164.6C549.7,164.6,549.7,164.6,549.6,164.6z"/>
											</g>
										</g>
									</g>
								</g>
							</g>
						</g>
					</g>
				</g>
			</g>
			<g>
				<g>
					<g>
						<g>
							<g>
								<g>
									<g>
										<g>
											<g>
												<path class="st10" d="M553.6,164L553.6,164c-0.1-0.1-0.1-0.1-0.1-0.2c0,0,1-0.8,1.5-0.3v0.1h-0.1
													C554.5,163.2,553.7,164,553.6,164C553.7,164,553.6,164,553.6,164z"/>
											</g>
										</g>
									</g>
								</g>
							</g>
						</g>
					</g>
				</g>
			</g>
			<g>
				<g>
					<g>
						<g>
							<g>
								<g>
									<g>
										<g>
											<g>
												<path d="M551.6,165c0,0.2-0.1,0.3-0.3,0.3s-0.3-0.1-0.3-0.3s0.1-0.3,0.3-0.3S551.6,164.8,551.6,165z"/>
											</g>
										</g>
									</g>
								</g>
							</g>
						</g>
					</g>
				</g>
			</g>
			<g>
				<g>
					<g>
						<g>
							<g>
								<g>
									<g>
										<g>
											<g>
												<path d="M554.7,164.7c0,0.2-0.1,0.3-0.3,0.3s-0.3-0.1-0.3-0.3s0.1-0.3,0.3-0.3C554.5,164.4,554.7,164.5,554.7,164.7z"/>
											</g>
										</g>
									</g>
								</g>
							</g>
						</g>
					</g>
				</g>
			</g>
			<g>
				<g>
					<g>
						<g>
							<g>
								<g>
									<g>
										<g>
											<g>
												<ellipse class="st16" cx="546.5" cy="165.1" rx="1.7" ry="1.7"/>
											</g>
										</g>
									</g>
								</g>
							</g>
						</g>
					</g>
				</g>
			</g>
			<g>
				<g>
					<g>
						<g>
							<g>
								<g>
									<g>
										<g>
											<g>
												<path class="st20" d="M546.4,166.1c-0.4,0-0.6-0.3-0.7-0.5c-0.1-0.3,0-0.6,0.3-0.8c0.4-0.2,0.7-0.1,0.9,0
													c-0.1-0.2-0.2-0.3-0.3-0.4c-0.3-0.2-0.8-0.1-0.8,0h-0.1v-0.1c0,0,0.5-0.2,0.8,0.1c0.2,0.1,0.4,0.3,0.4,0.6v0.2l-0.1-0.1
													c0,0-0.4-0.4-0.9-0.1c-0.3,0.2-0.3,0.5-0.2,0.7C545.9,165.8,546,166,546.4,166.1C546.4,166,546.4,166,546.4,166.1
													C546.4,166,546.4,166,546.4,166.1L546.4,166.1L546.4,166.1z"/>
											</g>
										</g>
									</g>
								</g>
							</g>
						</g>
					</g>
				</g>
			</g>
			<g>
				<g>
					<g>
						<g>
							<g>
								<g>
									<g>
										<g>
											<path class="st10" d="M555.5,166.9c0,0,0.6,4.6-2.4,4.8c-4.4,0.2-4.8-2.3-5.1-4.3v-4.3l0.1-1.2l0,0
												c0.3,0.4,0.5,0.8,0.5,1.3c0.1,1,0.3,3.8,0.6,3.9C549.6,167.2,554.9,166.5,555.5,166.9z"/>
										</g>
									</g>
								</g>
							</g>
						</g>
					</g>
				</g>
			</g>
			<g>
				<g>
					<g>
						<g>
							<g>
								<g>
									<g>
										<g>
											<g>
												<path class="st20" d="M552.6,166.9L552.6,166.9C552.6,166.9,552.6,166.8,552.6,166.9l0.9-0.4l-0.3-2.3v-0.1h0.1l0.3,2.4
													L552.6,166.9L552.6,166.9z"/>
											</g>
										</g>
									</g>
								</g>
							</g>
						</g>
					</g>
				</g>
			</g>
			<g>
				<g>
					<g>
						<g>
							<g>
								<g>
									<g>
										<g>
											<g>
												<path class="st22" d="M551.9,167.9h1.9c0,0-0.2,0.8-0.9,0.8C552.1,168.6,551.9,167.9,551.9,167.9z"/>
											</g>
										</g>
									</g>
								</g>
							</g>
						</g>
					</g>
				</g>
			</g>
			<g>
				<g>
					<g>
						<g>
							<g>
								<g>
									<path class="st10" d="M548.1,162l-0.9-0.8l-0.9,2.2c0,0,1.1,0.2,1.1,1.3c0,1.2-0.6,3,1.4,5.5c2,2.6-0.2-3.9-0.2-4.1
										C548.7,165.9,548.1,162,548.1,162z"/>
								</g>
							</g>
						</g>
					</g>
				</g>
			</g>
			<g>
				<g>
					<g>
						<g>
							<g>
								<g>
									<path class="st10" d="M547.1,158.2c0.9-0.9,4.1-1.4,6.4-0.1l0,0c2.6,1.3,1.8,3.9,1.7,4l0,0c0,0.1,0,0.1,0,0.2
										c0,0-0.1-0.2-0.3-0.4l-1-0.8c-0.6-0.3-1.3-0.6-2.3-0.7c-1-0.1-1.9,0-2.6,0.2c-0.2,0.6-0.3,1.8-0.1,4.1
										c0.3,3.5-1.2-0.7-1.8-2.4c-0.1,0.3-0.2,0.6-0.3,1C546.8,163.3,545.2,160.1,547.1,158.2z"/>
								</g>
							</g>
						</g>
					</g>
				</g>
			</g>
			<g>
				<g>
					<g>
						<g>
							<g>
								<g>
									<path class="st16" d="M555.2,163.1c0,0,0.1-1.4,0-1.7s-3.2-1.2-4.9-1s1.6,2.1,1.6,2.1L555.2,163.1z"/>
								</g>
							</g>
						</g>
					</g>
				</g>
			</g>
			<g>
				<g>
					<g>
						<g>
							<g>
								<g>
									<polygon class="st16" points="549.3,160.7 547.6,159.2 549.2,161.5 									"/>
								</g>
							</g>
						</g>
					</g>
				</g>
			</g>
			<g>
				<g>
					<g>
						<g>
							<g>
								<g>
									<path class="st10" d="M549.3,157.7c0,0,0.3-3.3-1.5-2.6s-2.2,2.3-0.5,3.3S549.3,157.7,549.3,157.7z"/>
								</g>
							</g>
						</g>
					</g>
				</g>
			</g>
		</g>
		<g>
			<g>
				<g>
					<g>
						<g>
							<path class="st6" d="M542.4,180.4l3.3-5.5l5.7,1.7l2.3-2.5c0,0,0.5,2.3,0.5,2.5s-2.6,2.9-3,2.9
								C551,179.5,542.4,180.4,542.4,180.4z"/>
						</g>
					</g>
				</g>
			</g>
		</g>
		<g>
			<g>
				<g>
					<g>
						<g>
							<path class="st10" d="M542.9,240.8c0.1,0,0.2-0.1,0.2-0.2c0-0.1-0.1-0.2-0.2-0.2c-2.8-0.2-3.1-2.5-3.8-6.4
								c-0.1-0.7-0.2-1.4-0.4-2.2c-0.9-5.2-1.3-17.7-1.3-17.8s-0.1-0.2-0.2-0.2l0,0c-0.1,0-0.2,0.1-0.2,0.2c0,0.1,0.4,12.7,1.4,17.8
								c0.1,0.8,0.3,1.5,0.4,2.2C539.4,238,539.8,240.6,542.9,240.8L542.9,240.8z"/>
						</g>
					</g>
				</g>
			</g>
		</g>
		<g>
			<g>
				<g>
					<g>
						<g>
							<path class="st11" d="M553.4,171.7l0.2,1.9c0,0-1.4,2.1-2.4,2.8c-1.9-1.3-4.9-3.2-4.9-3.2l0.2-2.5c-3.6-0.4-7.7,1.8-6.7,3
								c0.9,1.2,5.8,1.5,7.1,1.9s4.5,1.4,4.5,1.4c0.9-0.6,3.1-3.3,3.1-3.3l2.3,0.6C556.9,172.1,553.4,171.7,553.4,171.7z"/>
						</g>
					</g>
				</g>
			</g>
		</g>
		<g>
			<g>
				<g>
					<g>
						<g>
							<g>
								<path class="st4" d="M560.4,300.9h-18.2v-3.7c0,0,1.3-1.8,3.3-0.9c0,0,3,2.2,5.7-0.4l6.7,2.9
									C558,298.9,560.4,299.7,560.4,300.9z"/>
							</g>
						</g>
					</g>
				</g>
			</g>
			<g>
				<g>
					<g>
						<g>
							<g>
								<path class="st18" d="M542.2,302.2h18.6c0.2,0,0.4-0.2,0.4-0.4v-0.5c0-0.2-0.2-0.4-0.4-0.4h-18.6V302.2z"/>
							</g>
						</g>
					</g>
				</g>
			</g>
			<g>
				<g>
					<g>
						<g>
							<g>
								<path class="st17" d="M553.2,296.9c-0.6,1-1.8,2.9-2.6,4.1h-1.2c0.7-1.1,2.2-3.4,2.9-4.5L553.2,296.9z"/>
							</g>
						</g>
					</g>
				</g>
			</g>
			<g>
				<g>
					<g>
						<g>
							<g>
								<path class="st17" d="M552.6,300.9h-1.2c0.6-0.9,1.7-2.6,2.5-3.8l1,0.4C554.1,298.5,553.2,300,552.6,300.9z"/>
							</g>
						</g>
					</g>
				</g>
			</g>
		</g>
		<g>
			<g>
				<g>
					<path d="M551.4,177.3C551.4,177.3,551.5,177.3,551.4,177.3l4.1-4.1c0.1-0.1,0.1-0.1,0-0.2c-0.1-0.1-0.1-0.1-0.2,0l-4,4.1
						C551.2,177.1,551.2,177.2,551.4,177.3C551.3,177.3,551.4,177.3,551.4,177.3z"/>
				</g>
			</g>
		</g>
	</g>
	<g>
		<g>
			<g>
				<g>
					<g>
						<g>
							<path class="st6" d="M583.5,118.9c0-10.7-8.6-19.3-19.3-19.3s-19.3,8.6-19.3,19.3c0,5.3,2.1,10.1,5.6,13.6l0,0
								c0,0,5.8,6.2,7.8,13c0,0,3.4,1.1,5.9,1.2c2.5-0.1,5.9-1.2,5.9-1.2c2-6.8,7.8-13,7.8-13l0,0
								C581.4,129,583.5,124.2,583.5,118.9z"/>
						</g>
					</g>
				</g>
				<path class="st8" d="M557.8,144v5.2c0,2.3,1.4,4.3,3.5,5.1c0.2,1.5,1.5,2.6,3,2.6s2.8-1.1,3-2.6c2-0.8,3.5-2.8,3.5-5.1V144
					H557.8z"/>
				<g>
					<g>
						<path class="st11" d="M583.5,118.9c0-3.9-1.2-7.6-3.2-10.7c-5.6,13.9-14.6,23.3-27.6,26.9c1.6,2.1,3.8,5.4,5.1,8.9h12.9l0,0
							c2.3-6.2,7.3-11.5,7.3-11.5l0,0C581.4,129,583.5,124.2,583.5,118.9z"/>
					</g>
				</g>
			</g>
			<g>
				<g>
					<g>
						<path class="st10" d="M567.4,144.1l-0.6-0.2c0-0.1,1.8-6.7,3.1-13.5c2.2-11.8,0.9-14.2,0-14.7c-1-0.4-1.7-0.4-2.2,0.2
							l-0.1,0.1c1.3,0.8,1.7,2,1.8,2.5c0.2,1.4-0.4,2.7-1.4,3c-0.2,0.1-0.7,0.1-1.1-0.5c-0.6-0.9-0.8-3.3-0.1-4.8
							c-0.7-0.3-1.5-0.4-2.4-0.4h-0.6c-0.9,0-1.7,0.1-2.4,0.4c0.7,1.6,0.5,3.9-0.1,4.8c-0.4,0.6-0.8,0.5-1.1,0.5
							c-1-0.3-1.6-1.7-1.4-3c0.1-0.5,0.4-1.7,1.8-2.5l-0.1-0.1c-0.5-0.6-1.3-0.7-2.2-0.2c-0.9,0.4-2.2,2.9,0,14.7
							c1.2,6.8,3,13.4,3.1,13.5l-0.6,0.2c0-0.1-1.8-6.7-3.1-13.5c-1.7-9.4-1.6-14.4,0.3-15.3c1.5-0.7,2.4-0.2,2.9,0.4
							c0.1,0.1,0.1,0.2,0.2,0.3c0.7-0.3,1.5-0.5,2.7-0.5h0.6c1.1,0,2,0.2,2.7,0.5c0.1-0.1,0.1-0.2,0.2-0.3c0.5-0.6,1.4-1.1,2.9-0.4
							c2,0.9,2.1,5.9,0.3,15.3C569.2,137.4,567.4,144,567.4,144.1z M560.9,116.6c-0.8,0.5-1.3,1.2-1.5,2.1c-0.2,1.2,0.4,2.2,1,2.4
							c0.1,0,0.2,0.1,0.4-0.2C561.3,120.1,561.5,118,560.9,116.6z M567.3,116.6c-0.6,1.3-0.4,3.5,0.1,4.3c0.2,0.3,0.4,0.3,0.4,0.2
							c0.6-0.2,1.2-1.2,1-2.4C568.6,117.8,568.1,117.1,567.3,116.6z"/>
					</g>
				</g>
			</g>
			<g>
				<g>
					<g>
						<path class="st10" d="M557.7,144.1c-0.2-0.4-0.2-0.6-0.4-1l-0.1-0.2c-2.4-5.6-6.8-10.4-6.8-10.4l0,0
							c-3.6-3.7-5.6-8.5-5.6-13.6c0-10.7,8.7-19.4,19.4-19.4c6.6,0,12.7,3.3,16.3,8.8l-0.2,0.2c-3.6-5.4-9.5-8.7-16-8.7
							c-10.6,0-19.1,8.6-19.1,19.1c0,5.1,2,9.8,5.5,13.5l0.2,0.2l0,0c0.8,0.9,4.6,5.3,6.7,10.3l0.1,0.2c0.2,0.4,0.2,0.5,0.4,1
							L557.7,144.1z"/>
					</g>
				</g>
			</g>
			<g>
				<g>
					<g>
						<path class="st10" d="M550.8,110l-0.3-0.1c0,0,1.4-4.8,6.2-6.6l0.1,0.3C552.2,105.4,550.8,110,550.8,110z"/>
					</g>
				</g>
			</g>
			<g>
				<g>
					<g>
						<path class="st10" d="M551.7,111.7l-0.3-0.1c0,0,1.4-4.8,6.2-6.6l0.1,0.3C553.1,107.1,551.7,111.7,551.7,111.7z"/>
					</g>
				</g>
			</g>
			<g>
				<g>
					<g>
						<path class="st10" d="M564.9,154.8h-1.4c-3.2,0-5.9-2.6-5.9-5.9v-5.1h13v0.3H558v4.8c0,3.1,2.5,5.6,5.6,5.6h1.4
							c1.5,0,2.9-0.6,3.9-1.6l0.2,0.2C568,154.2,566.5,154.8,564.9,154.8z"/>
					</g>
				</g>
			</g>
			<g>
				<g>
					<g>
						<path class="st10" d="M564.3,157c-2.8,0-3.2-2.7-3.2-2.7h0.3c0,0.1,0.4,2.5,3,2.5L564.3,157C564.4,157,564.4,157,564.3,157z"
							/>
					</g>
				</g>
			</g>
			<g>
				<g>
					<g>
						<path class="st10" d="M577.5,129.7l-0.2-0.2c2.5-1.9,2.9-5,3-5.1h0.3C580.5,124.5,580.1,127.8,577.5,129.7z"/>
					</g>
				</g>
			</g>
			<g>
				<g>
					<g>
						<path class="st10" d="M576.9,128.3l-0.2-0.2c1.9-1.4,2.1-3.7,2.2-3.7h0.3C579.2,124.5,578.9,126.9,576.9,128.3z"/>
					</g>
				</g>
			</g>
			<g>
				<g>
					<g>
						<path class="st10" d="M557.2,146.6v-0.3c0.1,0,11-0.1,14.4-1.4l0.1,0.3C568.2,146.4,557.7,146.5,557.2,146.6z"/>
					</g>
				</g>
			</g>
			<g>
				<g>
					<g>
						<path class="st10" d="M557.2,149v-0.3c0.1,0,11.9-0.2,14.1-1.4l0.1,0.3C569.2,148.7,557.7,149,557.2,149z"/>
					</g>
				</g>
			</g>
			<g>
				<g>
					<g>
						<path class="st10" d="M557.8,151.5v-0.3c0.1,0,10.7-0.1,13.5-1.6l0.1,0.3C568.6,151.3,558.3,151.4,557.8,151.5z"/>
					</g>
				</g>
			</g>
		</g>
		<g>
			<g>
				<g>
					<g>
						<path class="st6" d="M540,115.9L540,115.9l-6.9-0.6c-0.2,0-0.4-0.2-0.4-0.5c0-0.2,0.2-0.4,0.5-0.4l6.8,0.6
							c0.2,0,0.4,0.2,0.4,0.5C540.4,115.7,540.3,115.9,540,115.9z"/>
					</g>
				</g>
			</g>
		</g>
		<g>
			<g>
				<g>
					<g>
						<path class="st6" d="M543.6,105c-0.1,0-0.2,0-0.2-0.1l-5.7-3.9c-0.2-0.1-0.2-0.4-0.1-0.6c0.1-0.2,0.4-0.2,0.6-0.1l5.7,3.9
							c0.2,0.1,0.2,0.4,0.1,0.6C543.8,104.9,543.7,105,543.6,105z"/>
					</g>
				</g>
			</g>
		</g>
		<g>
			<g>
				<g>
					<g>
						<path class="st6" d="M553.8,97.2c-0.2,0-0.3-0.1-0.4-0.3l-2.6-6.3c-0.1-0.2,0-0.5,0.2-0.6s0.5,0,0.6,0.2l2.6,6.3
							c0.1,0.2,0,0.5-0.2,0.6C553.9,97.2,553.8,97.2,553.8,97.2z"/>
					</g>
				</g>
			</g>
		</g>
		<g>
			<g>
				<g>
					<g>
						<path class="st6" d="M588.1,117.1c-0.2,0-0.4-0.2-0.4-0.4c0-0.2,0.2-0.4,0.4-0.5l6.8-0.5c0.2,0,0.4,0.2,0.5,0.4
							c0,0.2-0.2,0.4-0.4,0.5L588.1,117.1L588.1,117.1z"/>
					</g>
				</g>
			</g>
		</g>
		<g>
			<g>
				<g>
					<g>
						<path class="st6" d="M584.8,106.2c-0.1,0-0.3-0.1-0.4-0.2c-0.1-0.2-0.1-0.5,0.1-0.6l5.7-3.8c0.2-0.1,0.5-0.1,0.6,0.1
							s0.1,0.5-0.1,0.6l-5.7,3.8C585,106.2,584.9,106.2,584.8,106.2z"/>
					</g>
				</g>
			</g>
		</g>
		<g>
			<g>
				<g>
					<g>
						<path class="st6" d="M576,97.2c-0.1,0-0.1,0-0.2,0c-0.2-0.1-0.3-0.3-0.2-0.6l2.7-6.3c0.1-0.2,0.3-0.3,0.6-0.2
							c0.2,0.1,0.3,0.3,0.2,0.6l-2.7,6.3C576.4,97.1,576.2,97.2,576,97.2z"/>
					</g>
				</g>
			</g>
		</g>
		<g>
			<g>
				<g>
					<g>
						<path class="st6" d="M565,93.8L565,93.8c-0.2,0-0.4-0.2-0.4-0.4l0.1-6.9c0-0.2,0.2-0.4,0.4-0.4l0,0c0.2,0,0.4,0.2,0.4,0.4
							l-0.1,6.9C565.5,93.7,565.3,93.8,565,93.8z"/>
					</g>
				</g>
			</g>
		</g>
		<g class="st13">
			<g>
				<g>
					<path class="st14" d="M577.2,109.6c-0.7,1-3,0.8-5.2-0.7c-2.2-1.4-3.4-3.4-2.8-4.5c0.7-1,3-0.8,5.2,0.7
						C576.6,106.6,577.9,108.6,577.2,109.6z"/>
				</g>
			</g>
		</g>
	</g>
	<g>
		<g>
			<g>
				<g>
					<g>
						<path class="st7" d="M228.4,180.2h-39c-1,0-1.8-0.8-1.8-1.8v-22.7c0-1,0.8-1.8,1.8-1.8h39c1,0,1.8,0.8,1.8,1.8v22.7
							C230.2,179.4,229.4,180.2,228.4,180.2z"/>
					</g>
				</g>
			</g>
		</g>
		<g>
			<g>
				<g>
					<g>
						<g>
							<path class="st8" d="M226.2,158.8h-35.4c-0.2,0-0.4-0.2-0.4-0.4s0.2-0.4,0.4-0.4h35.4c0.2,0,0.4,0.2,0.4,0.4
								C226.7,158.6,226.5,158.8,226.2,158.8z"/>
						</g>
					</g>
				</g>
			</g>
		</g>
		<g>
			<g>
				<g>
					<g>
						<g>
							<path class="st8" d="M226.2,163.8h-35.4c-0.2,0-0.4-0.2-0.4-0.4s0.2-0.4,0.4-0.4h35.4c0.2,0,0.4,0.2,0.4,0.4
								C226.7,163.6,226.5,163.8,226.2,163.8z"/>
						</g>
					</g>
				</g>
			</g>
		</g>
		<g>
			<g>
				<g>
					<g>
						<g>
							<path class="st8" d="M213.8,168.9h-23c-0.2,0-0.4-0.2-0.4-0.4s0.2-0.4,0.4-0.4h23c0.2,0,0.4,0.2,0.4,0.4
								S214,168.9,213.8,168.9z"/>
						</g>
					</g>
				</g>
			</g>
		</g>
		<g>
			<g>
				<g>
					<g>
						<g>
							<path class="st8" d="M226.5,168.9h-9.2c-0.2,0-0.4-0.2-0.4-0.4s0.2-0.4,0.4-0.4h9.2c0.2,0,0.4,0.2,0.4,0.4
								S226.7,168.9,226.5,168.9z"/>
						</g>
					</g>
				</g>
			</g>
		</g>
		<g>
			<g>
				<g>
					<g>
						<g>
							<path class="st8" d="M205.2,173.9h-14.5c-0.2,0-0.4-0.2-0.4-0.4s0.2-0.4,0.4-0.4h14.5c0.2,0,0.4,0.2,0.4,0.4
								C205.7,173.7,205.5,173.9,205.2,173.9z"/>
						</g>
					</g>
				</g>
			</g>
		</g>
		<g>
			<g>
				<g>
					<g>
						<g>
							<path class="st8" d="M226.5,173.9h-18c-0.2,0-0.4-0.2-0.4-0.4s0.2-0.4,0.4-0.4h18c0.2,0,0.4,0.2,0.4,0.4
								S226.7,173.9,226.5,173.9z"/>
						</g>
					</g>
				</g>
			</g>
		</g>
		<g>
			<g>
				<g>
					<g>
						<path class="st7" d="M217.2,179c0,0.2,6.9,9.1,6.9,8.8s-0.8-9.6-0.8-9.6L217.2,179z"/>
					</g>
				</g>
			</g>
		</g>
	</g>
	<g>
		<rect x="853.5" y="289.4" class="st10" width="57.4" height="0.5"/>
	</g>
	<g>
		<g>
			<g>
				
					<radialGradient id="SVGID_00000162344375324197906460000005410731240673043593_" cx="872.95" cy="52.4525" r="22.4804" gradientTransform="matrix(1 0 0 -1 0 299.89)" gradientUnits="userSpaceOnUse">
					<stop  offset="0" style="stop-color:#73D7FF"/>
					<stop  offset="1" style="stop-color:#002BC6"/>
				</radialGradient>
				<path style="fill:url(#SVGID_00000162344375324197906460000005410731240673043593_);" d="M862.7,262.3c1.6,1.1,3.4,2,5.3,2.5
					l0.6,4.7l3.3,0.2l3.3,0.2l1.1-4.7c1.9-0.3,3.8-1,5.5-2l3.8,2.9l2.4-2.2l2.4-2.2l-2.5-4.1c1.1-1.6,2-3.4,2.5-5.3l4.7-0.6l0.2-3.3
					l0.2-3.3l-4.7-1.1c-0.3-1.9-1-3.8-2-5.5l2.9-3.8l-2.2-2.4l-2.2-2.4l-4.1,2.5c-1.6-1.1-3.4-2-5.3-2.5l-0.6-4.7L874,225l-3.3-0.2
					l-1.1,4.7c-1.9,0.3-3.8,1-5.5,2l-3.8-2.9l-2.4,2.2l-2.4,2.2l2.5,4.1c-1.1,1.6-2,3.4-2.5,5.3l-4.7,0.6l-0.2,3.3l-0.2,3.3l4.7,1.1
					c0.3,1.9,1,3.8,2,5.5l-2.9,3.8l2.2,2.4l2.2,2.4L862.7,262.3z M864.7,238.3c5-4.6,12.8-4.2,17.3,0.8c4.6,5,4.2,12.8-0.8,17.3
					c-5,4.6-12.8,4.2-17.3-0.8C859.3,250.7,859.7,242.9,864.7,238.3z"/>
			</g>
		</g>
	</g>
</g>
<g>
	<g>
		<g>
			<g>
				<g>
					<path class="st3" d="M39.1,294c0,0,10.4-17.2,35.4-12.8C74.5,281.3,57.7,306.2,39.1,294z"/>
				</g>
			</g>
		</g>
	</g>
	<g>
		<g>
			<g>
				<g>
					<path class="st4" d="M22.8,298.6c0,0,3.1-34.5,45.2-46.5C68,252.1,60.8,303.4,22.8,298.6z"/>
				</g>
			</g>
		</g>
	</g>
</g>
<g>
	<g>
		<g>
			<g>
				<path class="st5" d="M139.1,120c2.3-1.3,4.7-2.1,7.2-2.6l1.4-6.1l4.3,0.2l4.3,0.2l0.8,6.2c2.4,0.7,4.8,1.8,6.9,3.2l5.3-3.3
					l2.9,3.2l2.9,3.2l-3.8,5c1.3,2.3,2.1,4.7,2.6,7.2l6.1,1.4l-0.2,4.3l-0.2,4.3l-6.2,0.8c-0.7,2.4-1.8,4.8-3.2,6.9l3.3,5.3
					l-3.2,2.9L167,165l-5-3.8c-2.3,1.3-4.7,2.1-7.2,2.6l-1.4,6.1l-4.3-0.2l-4.3-0.2l-0.8-6.2c-2.4-0.7-4.8-1.8-6.9-3.2l-5.3,3.3
					l-2.9-3.2L126,157l3.8-5c-1.3-2.3-2.1-4.7-2.6-7.2l-6.1-1.4l0.2-4.3l0.2-4.3l6.2-0.8c0.7-2.4,1.8-4.8,3.2-6.9l-3.3-5.3l3.2-2.9
					l3.2-2.9L139.1,120z M138.7,151.4c6,6.5,16.1,7,22.6,1.1c6.5-6,7-16.1,1.1-22.6c-6-6.5-16.1-7-22.6-1.1
					C133.2,134.7,132.8,144.8,138.7,151.4z"/>
			</g>
		</g>
	</g>
</g>
<g>
	<g>
		<g>
			<g>
				<path class="st6" d="M171.7,80.4c1.4-0.9,2.8-1.6,4.4-2l0.6-3.9l2.7-0.1l2.7-0.1l0.9,3.9c1.6,0.3,3.1,0.9,4.5,1.7l3.2-2.4l2,1.8
					l2,1.8l-2.1,3.3c0.9,1.4,1.6,2.8,2,4.4l3.9,0.6l0.1,2.7l0.1,2.7l-3.9,0.9c-0.3,1.6-0.9,3.1-1.7,4.5l2.4,3.2l-1.8,2l-1.8,2
					l-3.3-2.1c-1.4,0.9-2.8,1.6-4.4,2l-0.6,3.9l-2.7,0.1l-2.7,0.1l-0.9-3.9c-1.6-0.3-3.1-0.9-4.5-1.7l-3.2,2.4l-2-1.8l-2-1.8
					l2.1-3.3c-0.9-1.4-1.6-2.8-2-4.4l-3.9-0.6l-0.1-2.7l-0.1-2.7l3.9-0.9c0.3-1.6,0.9-3.1,1.7-4.5l-2.4-3.2l1.8-2l1.8-2L171.7,80.4z
					 M173.1,100.2c4.1,3.8,10.5,3.5,14.3-0.6s3.5-10.5-0.6-14.3s-10.5-3.5-14.3,0.6C168.8,90,169,96.5,173.1,100.2z"/>
			</g>
		</g>
	</g>
</g>
<g>
	<g>
		<g>
			<g>
				<path class="st7" d="M315.7,76.3c-6.2-0.3-27.5-1.2-42.1,0.9c-1.9,0.3-3.1-2-1.8-3.4c0.8-0.8,2.1-1.5,4.3-1.6
					c0,0-0.8-13.6,9.5-14.5c11.8-1,11.9,12.3,11.9,12.3s5.4-5.1,9.2,1.4c0,0,6.7-3.9,10,3.3C317.2,75.5,316.6,76.4,315.7,76.3z"/>
			</g>
		</g>
	</g>
</g>
<g>
	<g>
		<g>
			<g>
				<path class="st7" d="M93.5,80.4c-6.2-0.3-27.5-1.2-42.1,0.9c-1.9,0.3-3.1-2-1.8-3.4c0.8-0.8,2.1-1.5,4.3-1.6
					c0,0-0.8-13.6,9.5-14.5c11.8-1,11.9,12.3,11.9,12.3s5.4-5.1,9.2,1.4c0,0,6.7-3.9,10,3.3C94.9,79.6,94.3,80.5,93.5,80.4z"/>
			</g>
		</g>
	</g>
</g>
<g>
	<g>
		<g>
			<g>
				<path class="st7" d="M118.9,96.3c3-0.2,10.2-0.5,16.4,0c2.6,0.2,4.8-1.8,4.7-4.4c0-1.1-0.4-2.3-1.4-3.7
					c-3.8-5.4-10.3-0.2-10.3,2.5c0,0-1.3-4.1-5.3-3.4s-2.6,6.7-2.6,6.7s-1.3-0.3-2.2,0.3C117.3,94.9,117.8,96.3,118.9,96.3z"/>
			</g>
		</g>
	</g>
</g>
</svg>
