<?xml version="1.0" encoding="utf-8"?>
<!-- Generator: Adobe Illustrator 26.0.2, SVG Export Plug-In . SVG Version: 6.00 Build 0)  -->
<svg version="1.1" id="Layer_1" xmlns="http://www.w3.org/2000/svg" xmlns:xlink="http://www.w3.org/1999/xlink" x="0px" y="0px"
	 viewBox="0 0 1245 300" style="enable-background:new 0 0 1245 300;" xml:space="preserve">
<style type="text/css">
	.st0{clip-path:url(#SVGID_00000134957340903020584210000000589813384873176468_);}
	.st1{fill:url(#SVGID_00000035530606558730397540000003109695348472602770_);}
	.st2{fill:#FCEA10;}
	.st3{fill:#A1C0F7;}
	.st4{fill:#8A9EDD;}
	.st5{fill:#7689D6;}
	.st6{fill:url(#SVGID_00000160183641223364237170000014945770376610993293_);}
	.st7{fill:url(#SVGID_00000074417033248256167940000003539604028809746832_);}
	.st8{fill:url(#SVGID_00000112601049480254191970000017519708640894622884_);}
	.st9{fill:#BDD0FB;}
	.st10{fill:url(#SVGID_00000143596723875519193640000000925794384007168649_);}
	.st11{fill:url(#SVGID_00000002345373242454516670000008526375528453702325_);}
	.st12{fill:url(#SVGID_00000078757553998878895770000009410161082723648410_);}
	.st13{fill:url(#SVGID_00000080173106316251802270000017023689880674422431_);}
	.st14{fill:url(#SVGID_00000067914548105738170980000003369791680150480813_);}
	.st15{fill:url(#SVGID_00000029741082081566109290000014919517831848182153_);}
	.st16{fill:url(#SVGID_00000093895867623632063130000009779964919217104817_);}
	.st17{fill:url(#SVGID_00000096036331767034127120000018197734854388722338_);}
	.st18{fill:url(#SVGID_00000164484240079051387010000010051268709874132157_);}
	.st19{fill:url(#SVGID_00000092445031394049934030000011986720829066956678_);}
	.st20{fill:url(#SVGID_00000129204599526075616240000007052493732375031437_);}
	.st21{fill:url(#SVGID_00000160166642412846176760000017750626245650877854_);}
	.st22{fill:url(#SVGID_00000103977543511158252040000007406194167970283146_);}
	.st23{fill:url(#SVGID_00000111165678648134671070000010102461836065547171_);}
	.st24{fill:url(#SVGID_00000143614181413617958090000002131108315018855819_);}
	.st25{fill:url(#SVGID_00000105427463277397746510000002783455350173088151_);}
	.st26{fill:url(#SVGID_00000125578773251545092400000007568085472459864967_);}
	.st27{fill:#D6D6D6;}
	.st28{fill:#E8E8E8;}
	.st29{fill:#C2C2C2;}
	.st30{fill:url(#SVGID_00000142875725626201648500000013631173072245167502_);}
	.st31{fill:#E6332A;}
	.st32{fill:url(#SVGID_00000134218996149906736940000003269426267279902354_);}
	.st33{fill:#4DA8F2;}
	.st34{fill:url(#SVGID_00000119840532789637242350000006715651337682180250_);}
	.st35{fill:url(#SVGID_00000156551221485513417960000000919874665192948912_);}
	.st36{fill:#EEA886;}
	.st37{fill:#292C47;}
	.st38{fill:#3D416B;}
	.st39{fill:#CFBEB6;}
	.st40{fill:#FCCCA2;}
	.st41{fill:#EDDAD3;}
	.st42{fill:#A77860;}
	.st43{fill:#23263D;}
	.st44{fill:#323657;}
	.st45{fill:#2F4563;}
	.st46{fill:#EFAA88;}
	.st47{fill:#DB9C7C;}
	.st48{fill:#D44040;}
	.st49{fill:url(#SVGID_00000085938619508567260920000011362862122641716098_);}
	.st50{fill:url(#SVGID_00000002344660748504029460000002917765134059167418_);}
	.st51{fill:url(#SVGID_00000052797848637270212600000012550523636924765591_);}
	.st52{fill:url(#SVGID_00000043447974640505088260000008035210503952737718_);}
	.st53{fill:url(#SVGID_00000078732762552709371800000004565713588654818990_);}
	.st54{fill:url(#SVGID_00000170973975845964344150000011661812951579578517_);}
	.st55{fill:url(#SVGID_00000111182117914310485750000017083415266630931078_);}
	.st56{fill:url(#SVGID_00000114051596412881814170000012577534594324564368_);}
	.st57{fill:url(#SVGID_00000171718766440777040530000001625170744118815887_);}
	.st58{fill:url(#SVGID_00000074401239841773002560000005641193705231333040_);}
	.st59{fill:url(#SVGID_00000092436499530137428720000004860059292576431273_);}
	.st60{fill:url(#SVGID_00000004531762710272234680000018390089847942730941_);}
	.st61{fill:url(#SVGID_00000125587186254271609760000004306272740877997977_);}
	.st62{fill:url(#SVGID_00000089542479904568345300000013891363281213300117_);}
	.st63{fill:url(#SVGID_00000165223573164914944190000000263768983080122513_);}
	.st64{fill:url(#SVGID_00000139988833595927061270000008552798383028602241_);}
	.st65{fill:url(#SVGID_00000011747837832211805420000008358051583586965376_);}
	.st66{fill:url(#SVGID_00000170960074438285120450000014582247222296162994_);}
	.st67{fill:#F9B233;}
	.st68{fill:#F39200;}
	.st69{fill:#E94E1B;}
	.st70{fill:#FFFFFF;}
	.st71{fill:#DADADA;}
	.st72{fill:url(#SVGID_00000062183633411365294670000015205631286733916058_);}
	.st73{fill:#7D97F4;}
</style>
<g id="Layer_2_00000018957852691746229940000001439861889715322047_">
	<g id="Слой_1">
		<g>
			<defs>
				<rect id="SVGID_1_" width="1245" height="300"/>
			</defs>
			<clipPath id="SVGID_00000182518214653166524860000003158318122488774041_">
				<use xlink:href="#SVGID_1_"  style="overflow:visible;"/>
			</clipPath>
			<g style="clip-path:url(#SVGID_00000182518214653166524860000003158318122488774041_);">
				
					<radialGradient id="SVGID_00000122708138862589925610000011063982286079548078_" cx="1770.4089" cy="285.0981" r="700.62" gradientTransform="matrix(-0.76 0.55 0.47 0.5 2197.7688 -1360.4351)" gradientUnits="userSpaceOnUse">
					<stop  offset="0" style="stop-color:#73D7FF"/>
					<stop  offset="1" style="stop-color:#002BC6"/>
				</radialGradient>
				<rect style="fill:url(#SVGID_00000122708138862589925610000011063982286079548078_);" width="1245" height="300"/>
				<path class="st2" d="M419,71.2c0,0-0.4-0.3-1.2-0.8L418,70c0.8,0.5,1.2,0.8,1.2,0.9L419,71.2z"/>
				<path class="st2" d="M392.5,64c-1,0-1.9,0-2.9,0.1v0.4c1-0.1,2-0.1,2.9-0.1V64z M395.5,64v0.4c1,0,1.9,0.1,2.9,0.2v-0.4
					C397.4,64.1,396.5,64,395.5,64z M386.7,64.3l-2.9,0.3V65l2.9-0.3V64.3z M401.4,64.5v0.4c1,0.1,1.9,0.3,2.9,0.5l0.1-0.4
					C403.3,64.8,402.3,64.6,401.4,64.5L401.4,64.5z M380.8,65c-1,0.2-1.9,0.3-2.9,0.5l0.1,0.4c1-0.2,1.9-0.4,2.9-0.5L380.8,65z
					 M407.1,65.6L407,66c0.9,0.2,1.9,0.5,2.8,0.8l0.1-0.3C409,66.1,408.1,65.8,407.1,65.6z M375,66.2c-0.9,0.2-1.9,0.5-2.9,0.7
					l0.1,0.3c1-0.2,1.9-0.5,2.8-0.7V66.2z M412.8,67.4l-0.1,0.3l2.7,1.2l0.2-0.3C414.6,68.2,413.7,67.8,412.8,67.4z M369.4,67.7
					c-0.9,0.3-1.9,0.6-2.8,0.9l0.1,0.3c1-0.3,1.9-0.6,2.8-0.8L369.4,67.7z M363.7,69.5c-0.9,0.3-1.9,0.6-2.8,0.9l0.1,0.3
					c1-0.3,1.9-0.6,2.8-0.9L363.7,69.5z M358.1,71.3c-0.9,0.3-1.9,0.6-2.8,0.9l0.1,0.3c1-0.3,1.9-0.6,2.8-0.9L358.1,71.3z
					 M352.6,73.1l-2.8,0.9l0.1,0.3l2.8-0.9L352.6,73.1z M347,75c-0.9,0.3-1.9,0.6-2.8,0.9l0.1,0.3c0.9-0.3,1.9-0.6,2.8-0.9L347,75z
					 M341.4,76.8c-0.9,0.3-1.9,0.6-2.8,0.9l0.1,0.3c0.9-0.3,1.9-0.6,2.8-0.9L341.4,76.8z M335.8,78.6c-0.9,0.3-1.9,0.6-2.8,0.9
					l0.1,0.3c0.9-0.3,1.9-0.6,2.8-0.9L335.8,78.6z M330.2,80.3c-0.9,0.3-1.9,0.6-2.8,0.8l0.1,0.3c0.9-0.3,1.9-0.6,2.8-0.8
					L330.2,80.3z M324.5,82c-0.9,0.3-1.9,0.5-2.8,0.8l0.1,0.3c0.9-0.3,1.9-0.5,2.8-0.8L324.5,82z M318.9,83.6
					c-0.9,0.3-1.9,0.5-2.8,0.8l0.1,0.4c0.9-0.2,1.9-0.5,2.8-0.8L318.9,83.6z M220.5,84.3v0.4c0.2,0.1,0.3,0.2,0.5,0.3l0.2-0.3
					C221,84.6,220.7,84.4,220.5,84.3z M313.2,85.1c-0.9,0.2-1.9,0.5-2.9,0.7l0.1,0.4c1-0.2,1.9-0.5,2.9-0.7L313.2,85.1z M223.8,86
					l-0.1,0.3l2.7,1.2l0.1-0.3L223.8,86z M307.5,86.5c-1,0.2-1.9,0.4-2.9,0.7l0.1,0.4c1-0.2,1.9-0.4,2.9-0.7L307.5,86.5z
					 M301.8,87.8l-2.9,0.6l0.1,0.4l2.9-0.6L301.8,87.8z M229.3,88.2l-0.1,0.3c0.9,0.3,1.9,0.6,2.8,0.9l0.1-0.3
					C231.1,88.8,230.2,88.5,229.3,88.2L229.3,88.2z M296,89l-2.9,0.6l0.1,0.4l2.9-0.6L296,89z M234.9,89.9l-0.1,0.3
					c0.9,0.2,1.9,0.5,2.9,0.7l0.1-0.4C236.8,90.4,235.9,90.2,234.9,89.9z M290.2,90.1c-1,0.2-1.9,0.3-2.9,0.5l0.1,0.4
					c1-0.2,1.9-0.3,2.9-0.5L290.2,90.1z M284.5,91.1c-1,0.1-2,0.3-2.9,0.4v0.4c1-0.1,2-0.3,2.9-0.4V91.1z M240.6,91.2l-0.1,0.4
					c0.9,0.2,1.9,0.3,2.9,0.5l0.1-0.4C242.5,91.5,241.5,91.4,240.6,91.2L240.6,91.2z M278.6,91.8l-2.9,0.3v0.4l2.9-0.3V91.8z
					 M246.4,92.1l-0.1,0.4l2.9,0.3v-0.4L246.4,92.1z M272.8,92.4c-1,0.1-2,0.2-2.9,0.2V93c1-0.1,2-0.1,2.9-0.2V92.4z M252.2,92.7
					v0.4c1,0.1,1.9,0.1,2.9,0.2v-0.4C254.1,92.8,253.2,92.7,252.2,92.7L252.2,92.7z M266.9,92.8c-1,0.1-2,0.1-2.9,0.1v0.4
					c1,0,2-0.1,2.9-0.1V92.8z M260.5,92.9h-2.4v0.4h2.9v-0.4H260.5z"/>
				<polygon class="st3" points="251.6,202.5 260.7,213.6 134.8,316.8 182.8,316.8 261.8,251.3 279.5,236.6 288.6,247.7 
					297.8,202.5 				"/>
				<polygon class="st4" points="389.2,193.2 238.7,316.2 210.9,316.2 345.1,206.5 334.3,193.3 				"/>
				<polygon class="st5" points="389.2,193.2 381.6,230.6 378.3,247 371.6,238.8 367.5,233.8 267.9,316.2 238.7,316.2 				"/>
				<polygon class="st4" points="517.5,229.2 404.1,316.2 383.2,316.2 484.2,238.6 476.1,229.2 				"/>
				<polygon class="st5" points="517.5,229.2 511.8,255.6 509.3,267.2 504.2,261.4 501.1,257.9 426.1,316.2 404.1,316.2 				"/>
				<polygon class="st3" points="917.4,129.5 933.2,148.8 877,194.8 864.8,204.8 749.2,299.5 831.8,299.5 912.6,232.6 965.8,188.6 
					981.5,207.8 997.4,129.4 				"/>
				<polygon class="st4" points="1083.7,158.4 911.3,299.5 900.4,299.5 1066.1,163.7 1065.2,162.6 1061.8,158.5 1070.2,158.4 				
					"/>
				<polygon class="st5" points="1083.7,158.4 1083,161.7 1079.3,179.8 1075,174.6 924.3,299.5 911.3,299.5 				"/>
				<polygon class="st4" points="425.4,250.8 345.5,316.2 321.8,316.2 387.9,262.1 385.9,259.7 378.6,250.9 396.6,250.9 				"/>
				<polygon class="st5" points="425,250.8 423.6,257.9 415.7,296.6 406.5,285.4 369.3,316.2 345.1,316.2 				"/>
				<polygon class="st4" points="1105.7,200.1 983,300.5 959,300.5 1067.5,211.5 1059.5,201.7 1058.2,200.1 1061.4,200.1 
					1097.7,200.1 				"/>
				<polygon class="st5" points="1105.7,200.1 1096.3,246.6 1086.9,235.2 1008.1,300.5 983,300.5 				"/>
				<g id="_1">
					
						<linearGradient id="SVGID_00000116926807773192399480000010094730159779422378_" gradientUnits="userSpaceOnUse" x1="183.3189" y1="-528.2991" x2="287.5379" y2="-528.2991" gradientTransform="matrix(1 0 0 -1 0 -490.8)">
						<stop  offset="0" style="stop-color:#DAE3FE"/>
						<stop  offset="1" style="stop-color:#E9EFFD"/>
					</linearGradient>
					<path style="fill:url(#SVGID_00000116926807773192399480000010094730159779422378_);" d="M210.5,20.7
						c8.6,0.1,16.6,4.3,21.5,11.3c8.5-5.5,22.1-4.5,29.4,2.2c8.4-10.9,31.5,0.5,25,20.1H183.7C180.9,37.3,193.9,20.5,210.5,20.7z"/>
					
						<linearGradient id="SVGID_00000004545867540419970730000003366332045336377734_" gradientUnits="userSpaceOnUse" x1="564.0072" y1="-530.3497" x2="628.8777" y2="-530.3497" gradientTransform="matrix(1 0 0 -1 0 -490.8)">
						<stop  offset="0" style="stop-color:#DAE3FE"/>
						<stop  offset="1" style="stop-color:#E9EFFD"/>
					</linearGradient>
					<path style="fill:url(#SVGID_00000004545867540419970730000003366332045336377734_);" d="M612,29.1c-5.3,0.1-10.3,2.7-13.4,7
						c-5.3-3.4-13.8-2.8-18.3,1.4c-5.2-6.8-19.6,0.3-15.6,12.5h63.9C630.5,39.4,622.4,29,612,29.1z"/>
					
						<linearGradient id="SVGID_00000176016241582198972010000008935772162754207623_" gradientUnits="userSpaceOnUse" x1="263.5746" y1="-572.2994" x2="301.5324" y2="-572.2994" gradientTransform="matrix(1 0 0 -1 0 -490.8)">
						<stop  offset="0" style="stop-color:#DAE3FE"/>
						<stop  offset="1" style="stop-color:#E9EFFD"/>
					</linearGradient>
					<path style="fill:url(#SVGID_00000176016241582198972010000008935772162754207623_);" d="M291.6,75.4c-3.1,0-6,1.5-7.8,4.1
						c-3.4-2-7.6-1.6-10.7,0.8c-3.1-3.9-11.5,0.2-9.1,7.3h37.4C302.4,81.4,297.6,75.3,291.6,75.4z"/>
				</g>
				<path class="st9" d="M958.4,118.9c0.1-0.9,0.4-1.7,0.8-2.4c-0.8,0.3-1.2,0.9-1.3,2.6c-0.2,2-0.6,7.3-0.8,8.5
					c-0.1,0.8,0.2,1.6,0.8,2.1c0.1,0.1,0.3,0.1,0.5-0.1c-0.4-0.5-0.7-1.1-0.8-1.7C957.5,127,958.2,121.5,958.4,118.9z"/>
				
					<linearGradient id="SVGID_00000015330583324935692130000017795733689519552148_" gradientUnits="userSpaceOnUse" x1="957.63" y1="-613.2001" x2="963.9" y2="-613.2001" gradientTransform="matrix(1 0 0 -1 0 -490.8)">
					<stop  offset="0" style="stop-color:#09005D"/>
					<stop  offset="1" style="stop-color:#1A0F91"/>
				</linearGradient>
				<path style="fill:url(#SVGID_00000015330583324935692130000017795733689519552148_);" d="M963.8,117.3l-1.5-1.9
					c-0.8,0.4-1.7,0.7-2.6,0.9c-0.2,0-0.3,0.1-0.5,0.1c-0.5,0.7-0.8,1.5-0.8,2.4c-0.2,2.6-0.9,8.2-0.7,8.9c0.1,0.6,0.4,1.2,0.8,1.7
					c0.7-0.6,1.2-1.4,1.5-2.2c1.3-2.2,2.5-4.5,3.6-6.9C963.9,119.3,964,118.3,963.8,117.3z"/>
				<path class="st9" d="M983.6,100.2c0.2-0.8,0.6-1.6,1.2-2.3c-0.9,0.1-1.3,0.7-1.8,2.3c-0.6,1.9-1.8,7.1-2.2,8.3
					c-0.3,0.8-0.1,1.6,0.4,2.2c0.1,0.2,0.3,0.1,0.6,0c-0.3-0.5-0.5-1.2-0.5-1.8C981.4,108.1,983,102.7,983.6,100.2z"/>
				
					<linearGradient id="SVGID_00000023270452564379334450000005644201761487624367_" gradientUnits="userSpaceOnUse" x1="981.44" y1="-594.9" x2="989.27" y2="-594.9" gradientTransform="matrix(1 0 0 -1 0 -490.8)">
					<stop  offset="0" style="stop-color:#09005D"/>
					<stop  offset="1" style="stop-color:#1A0F91"/>
				</linearGradient>
				<path style="fill:url(#SVGID_00000023270452564379334450000005644201761487624367_);" d="M989.3,99.6l-1.1-2.1
					c-0.9,0.2-1.9,0.4-2.8,0.4h-0.5c-0.6,0.6-1.1,1.4-1.2,2.3c-0.6,2.6-2.2,7.9-2.2,8.7c0,0.6,0.2,1.3,0.5,1.8
					c0.7-0.5,1.4-1.2,1.9-1.9c0.9-1.2,3.9-4.8,4.7-6.2C989.1,101.7,989.3,100.6,989.3,99.6z"/>
				
					<linearGradient id="SVGID_00000170987791806753003530000017514277683632185512_" gradientUnits="userSpaceOnUse" x1="1024.24" y1="-521.5012" x2="1041.61" y2="-521.5012" gradientTransform="matrix(1 0 0 -1 0 -490.8)">
					<stop  offset="0" style="stop-color:#FF928E"/>
					<stop  offset="1" style="stop-color:#FEB3B1"/>
				</linearGradient>
				<path style="fill:url(#SVGID_00000170987791806753003530000017514277683632185512_);" d="M1024.4,36l11.5-9
					c0.1,0,0.1-0.1,0.2-0.2l1.2-4c0-0.1,0.1-0.2,0.2-0.2l0.8-0.5c0.1,0,0.2-0.1,0.3,0l2.5,0.2c0.2,0,0.4,0.2,0.4,0.4l0.2,1.1
					c0,0.1,0,0.2-0.1,0.3l-0.3,0.5c-0.1,0.2-0.1,0.3,0,0.5l0,0c0.1,0.2,0.1,0.4-0.1,0.5c-0.8,1-1.9,1.7-3.1,2.2
					c-0.1,0-0.1,0.1-0.2,0.1l-10.3,11.3c-0.1,0.2-0.4,0.2-0.5,0.1c0,0,0,0-0.1-0.1l-2.5-2.5c-0.2-0.1-0.3-0.4-0.2-0.6
					C1024.3,36.1,1024.4,36,1024.4,36z"/>
				
					<linearGradient id="SVGID_00000132774578739725657900000007518203991950252443_" gradientUnits="userSpaceOnUse" x1="1022.1824" y1="-527.6415" x2="1002.5125" y2="-560.4015" gradientTransform="matrix(1 0 0 -1 0 -490.8)">
					<stop  offset="0" style="stop-color:#4042E2"/>
					<stop  offset="1" style="stop-color:#4F52FF"/>
				</linearGradient>
				<path style="fill:url(#SVGID_00000132774578739725657900000007518203991950252443_);" d="M1007.5,49.8l16.4-13.7
					c0.3-0.3,0.8-0.3,1.1,0c0.9,0.8,1.7,1.7,2.4,2.7c0.2,0.4,0.1,0.8-0.2,1.1l-17,16.2L1007.5,49.8z"/>
				
					<linearGradient id="SVGID_00000178926333512053333130000011328865407227548040_" gradientUnits="userSpaceOnUse" x1="961.18" y1="-606.7899" x2="966.86" y2="-606.7899" gradientTransform="matrix(1 0 0 -1 0 -490.8)">
					<stop  offset="0" style="stop-color:#FF928E"/>
					<stop  offset="1" style="stop-color:#FEB3B1"/>
				</linearGradient>
				<path style="fill:url(#SVGID_00000178926333512053333130000011328865407227548040_);" d="M963.8,112.7c-0.2,0.3-2.1,3.7-2.5,4.4
					c-0.1,0.1-0.1,0.3-0.1,0.4c-0.1,0.6,0.2,1.3,0.8,1.6c0.5,0.3,1.1,0.2,1.5-0.2l3.4-4.4L963.8,112.7z"/>
				
					<linearGradient id="SVGID_00000161594361795464718270000015337420190228181175_" gradientUnits="userSpaceOnUse" x1="986.55" y1="-589.1496" x2="992.28" y2="-589.1496" gradientTransform="matrix(1 0 0 -1 0 -490.8)">
					<stop  offset="0" style="stop-color:#FF928E"/>
					<stop  offset="1" style="stop-color:#FEB3B1"/>
				</linearGradient>
				<path style="fill:url(#SVGID_00000161594361795464718270000015337420190228181175_);" d="M990,95.1c-0.3,0.3-2.7,3.3-3.2,4
					c-0.1,0.1-0.2,0.2-0.2,0.4c-0.2,0.6,0,1.3,0.5,1.8c0.4,0.4,1.1,0.4,1.5,0l3.6-4.2L990,95.1z"/>
				
					<linearGradient id="SVGID_00000121971898720568626280000006374430918372960686_" gradientUnits="userSpaceOnUse" x1="1017.9528" y1="-550.4529" x2="980.8328" y2="-586.353" gradientTransform="matrix(1 0 0 -1 0 -490.8)">
					<stop  offset="0" style="stop-color:#09005D"/>
					<stop  offset="1" style="stop-color:#1A0F91"/>
				</linearGradient>
				<path style="fill:url(#SVGID_00000121971898720568626280000006374430918372960686_);" d="M994.6,79.1c0-0.9,5.4-0.6,10.1-1.2
					c1.4-0.2,2.8,0.8,3,2.3c0.1,0.8-0.2,1.7-0.8,2.2l-14.3,14.7c-0.3,0.3-0.8,0.4-1.2,0.3c-0.8-0.2-1.5-0.6-2.1-1.1
					c-0.4-0.3-0.5-1-0.2-1.4l6.6-9.3l-6,1.7L967,115.5c-0.3,0.5-1,0.6-1.5,0.3c-0.8-0.5-1.6-1.1-2.2-1.8c-0.3-0.4-0.3-0.9-0.1-1.3
					c2.5-3.8,16.1-24.7,16.8-26.9c0.7-2.4,3.3-6.8,5.8-6.9S994.6,79.1,994.6,79.1z"/>
				
					<linearGradient id="SVGID_00000034053466431482189170000005402336367234688646_" gradientUnits="userSpaceOnUse" x1="998.52" y1="-575.65" x2="992.53" y2="-580.83" gradientTransform="matrix(1 0 0 -1 0 -490.8)">
					<stop  offset="0" style="stop-color:#4042E2"/>
					<stop  offset="1" style="stop-color:#4F52FF"/>
				</linearGradient>
				<path style="fill:url(#SVGID_00000034053466431482189170000005402336367234688646_);" d="M996.1,85.5c-0.1,0-0.1-0.1-0.2-0.1
					s0-0.2,0.1-0.2l5.4-1.4c0.1,0,0.2,0,0.2,0.1s0,0.2-0.1,0.2L996.1,85.5z"/>
				
					<linearGradient id="SVGID_00000114039122323446337060000011713856559163275166_" gradientUnits="userSpaceOnUse" x1="991.5871" y1="-576.028" x2="988.3771" y2="-580.628" gradientTransform="matrix(1 0 0 -1 0 -490.8)">
					<stop  offset="0" style="stop-color:#4042E2"/>
					<stop  offset="1" style="stop-color:#4F52FF"/>
				</linearGradient>
				<path style="fill:url(#SVGID_00000114039122323446337060000011713856559163275166_);" d="M990.3,87L990.3,87
					c-0.2-0.1-0.2-0.2-0.1-0.2l1.3-1.5c0.1-0.1,0.2-0.1,0.2,0s0.1,0.2,0,0.2l-1.3,1.5H990.3z"/>
				
					<linearGradient id="SVGID_00000156586412088123760480000017150635574739478923_" gradientUnits="userSpaceOnUse" x1="1012.5506" y1="-544.1507" x2="978.9706" y2="-572.5507" gradientTransform="matrix(1 0 0 -1 0 -490.8)">
					<stop  offset="0" style="stop-color:#4042E2"/>
					<stop  offset="1" style="stop-color:#4F52FF"/>
				</linearGradient>
				<path style="fill:url(#SVGID_00000156586412088123760480000017150635574739478923_);" d="M1010.2,49.5c1.8,2.2,2.7,5.1,2.4,7.9
					c-0.2,1.5-0.7,2.8-1.6,4L996.6,80c-0.3,0.4-0.8,0.7-1.4,0.8c-2.1,0.3-7.7,0.8-11.7-0.6c-0.3-0.1-0.4-0.4-0.3-0.7
					c0,0,0-0.1,0-0.1l13.1-23l7.9-9.2C1006.5,46.5,1008.9,47.5,1010.2,49.5z"/>
				<path class="st9" d="M992.3,73.8c-0.1,0-0.2,0-0.2-0.1c-0.2-0.1-0.2-0.3-0.1-0.5s12.5-16.8,13.3-18.9c0.8-1.8-1-3.2-1.1-3.3
					s-0.2-0.3-0.1-0.5s0.3-0.2,0.5-0.1c1.3,0.9,1.8,2.6,1.3,4.1c-0.9,2.1-12.9,18.3-13.4,19C992.5,73.8,992.4,73.8,992.3,73.8z"/>
				
					<linearGradient id="SVGID_00000036942148312210794570000015793871833923397804_" gradientUnits="userSpaceOnUse" x1="979.83" y1="-570.6754" x2="991.83" y2="-570.6754" gradientTransform="matrix(1 0 0 -1 0 -490.8)">
					<stop  offset="0" style="stop-color:#FF928E"/>
					<stop  offset="1" style="stop-color:#FEB3B1"/>
				</linearGradient>
				<path style="fill:url(#SVGID_00000036942148312210794570000015793871833923397804_);" d="M987.4,72.2c1.3,0.8,2.8,1.4,4.4,1.7
					l-6,7.5c0,0-0.9,4.9-1.7,5.5s-3,1.1-3.5,0c-0.3-0.7-0.6-1.5-0.8-2.3c0,0,0.4-0.6,1,0.5V84c0,0,0.9,0.4,0.9,1.2
					c0,0-0.8-3.1,0.5-4.2c0.5-0.5,1.1-0.9,1.7-1.2L987.4,72.2z"/>
				<path class="st5" d="M965,71.4c-0.3,0.1-0.5,0.4-0.4,0.7c0,0,0,0,0,0c1.1,2.7,4.1,4.2,7,3.5c5.4-1.2,21.9-13.7,25.7-17.2
					s8.7-7.7,11.1-7.1s1-0.8-0.7-1.9s-2.3-2.8-1-2.5c0,0-3-1-7.6,1.6s-26.5,11-33.8,8.5c-0.2-0.1-0.5,0-0.6,0.2c0,0,0,0.1,0,0.2
					c-0.3,1.7-0.7,6.9,3.6,12.8C967.3,70.8,966.2,71.2,965,71.4z"/>
				
					<linearGradient id="SVGID_00000114054307547422673960000017101526809123671204_" gradientUnits="userSpaceOnUse" x1="974.8266" y1="-555.6672" x2="969.7566" y2="-561.9472" gradientTransform="matrix(1 0 0 -1 0 -490.8)">
					<stop  offset="0" style="stop-color:#4042E2"/>
					<stop  offset="1" style="stop-color:#4F52FF"/>
				</linearGradient>
				<path style="fill:url(#SVGID_00000114054307547422673960000017101526809123671204_);" d="M968.9,70.4c-0.1,0-0.2-0.1-0.3-0.2
					c-0.1-0.2,0-0.4,0.1-0.5c2.3-1.2,4.5-2.5,6.7-4c0.2-0.1,0.4-0.1,0.5,0.1c0.1,0.2,0.1,0.3,0,0.5c-1.2,1-6.6,3.9-6.8,4.1H968.9z"
					/>
				
					<linearGradient id="SVGID_00000091730525698314326140000015832029822530456478_" gradientUnits="userSpaceOnUse" x1="1012.071" y1="-533.6207" x2="1006.691" y2="-541.4707" gradientTransform="matrix(1 0 0 -1 0 -490.8)">
					<stop  offset="0" style="stop-color:#FF928E"/>
					<stop  offset="1" style="stop-color:#FEB3B1"/>
				</linearGradient>
				<path style="fill:url(#SVGID_00000091730525698314326140000015832029822530456478_);" d="M1010.9,40.8l-4.3,6.1
					c-0.3,0.4-0.2,0.9,0.1,1.3c0.7,0.8,1.6,1.4,2.6,1.7c0.3,0.1,0.6,0,0.8-0.3l2.3-3.5C1012.5,46,1012.9,40.5,1010.9,40.8z"/>
				
					<linearGradient id="SVGID_00000036973398380817480910000014764023681266348964_" gradientUnits="userSpaceOnUse" x1="-3401.6582" y1="1216.6228" x2="-3410.7083" y2="1204.6528" gradientTransform="matrix(0.6854 -0.7281 -0.7281 -0.6854 4228.4634 -1605.7965)">
					<stop  offset="0" style="stop-color:#FF928E"/>
					<stop  offset="1" style="stop-color:#FEB3B1"/>
				</linearGradient>
				<path style="fill:url(#SVGID_00000036973398380817480910000014764023681266348964_);" d="M1012.1,35.8c0.1,0.1,3.7,7.1,3.7,7.1
					l-4,2l-4.4-6.2C1007.4,38.7,1010.7,34.4,1012.1,35.8z"/>
				
					<linearGradient id="SVGID_00000091716065822289671410000014672206474812788664_" gradientUnits="userSpaceOnUse" x1="-3408.6943" y1="1213.7838" x2="-3397.8843" y2="1213.7838" gradientTransform="matrix(0.6854 -0.7281 -0.7281 -0.6854 4228.4634 -1605.7965)">
					<stop  offset="0" style="stop-color:#09005D"/>
					<stop  offset="1" style="stop-color:#1A0F91"/>
				</linearGradient>
				<path style="fill:url(#SVGID_00000091716065822289671410000014672206474812788664_);" d="M1009.2,39.4l2,3.4l0.1,0.1
					c0.2,0.2,1.1,0.9,1.7,0c0.4-0.7,0.9-1.3,1.6-1.7c0.3-0.2,0.7,0,0.9,0.3c0.5,1.1,1,2.2,1.4,3.3c0.1,0.3-0.1,0.7-0.4,0.8
					c-1.3,0.5-2.6,0.9-3.9,1.1c-0.2,0-0.5-0.1-0.6-0.3c-0.6-0.8-2.4-3.2-3-3.8s-1.6-0.3-2-0.2c-0.2,0-0.4,0-0.5-0.1
					c-0.7-0.3-1-1.1-0.7-1.8c0.1-0.1,0.1-0.3,0.2-0.4c0.2-0.3,0.1-0.7-0.2-0.9c0,0,0,0,0,0c-0.7-0.3-0.9-1.2-0.6-1.8
					c0-0.1,0.1-0.1,0.1-0.2c0.4-0.8,1.3-1.3,2.2-1.1c0.3,0,0.6-0.1,0.7-0.4c0-0.1,0.2-0.2,0.3-0.3c0.3-0.1,0.6-0.4,0.5-0.7
					c-0.2-0.8,0.2-1.5,0.9-1.9c1.8-1,3.3,0.6,3.7,1.9s-1.6,2.3-2.8,2.4c-0.9,0.1-1.4,1.1-1.6,1.6
					C1009.1,38.9,1009.1,39.2,1009.2,39.4z"/>
				
					<linearGradient id="SVGID_00000138552542718924051400000010774827569137059510_" gradientUnits="userSpaceOnUse" x1="-3414.9641" y1="1207.1727" x2="-3407.7041" y2="1214.6127" gradientTransform="matrix(0.6854 -0.7281 -0.7281 -0.6854 4228.4634 -1605.7965)">
					<stop  offset="0" style="stop-color:#FF928E"/>
					<stop  offset="1" style="stop-color:#FEB3B1"/>
				</linearGradient>
				<path style="fill:url(#SVGID_00000138552542718924051400000010774827569137059510_);" d="M1009.8,43.8c0,0-0.8-2.3-1.8-2.2
					s-1.8,1.1-0.5,2.2C1009,45.2,1009.8,43.8,1009.8,43.8z"/>
				
					<linearGradient id="SVGID_00000137834331448715409960000007526088291559563965_" gradientUnits="userSpaceOnUse" x1="1040.3933" y1="-505.0602" x2="1041.0133" y2="-494.6602" gradientTransform="matrix(1 0 0 -1 0 -490.8)">
					<stop  offset="0" style="stop-color:#FF928E"/>
					<stop  offset="1" style="stop-color:#FEB3B1"/>
				</linearGradient>
				<path style="fill:url(#SVGID_00000137834331448715409960000007526088291559563965_);" d="M1038.8,25.5L1038.8,25.5
					c-0.1,0-0.1,0-0.1-0.1c0,0,0.6-1.1,1.3-0.9s0.7,0.1,0.7,0.1h0.1v0.1c-0.3,0.1-0.6,0-0.9-0.1
					C1039.4,24.5,1038.9,25.5,1038.8,25.5z"/>
				<polygon class="st27" points="278.8,57.9 244.8,78.9 249.9,68.1 				"/>
				<polygon class="st28" points="278.8,57.9 258.4,58.9 253.9,66.7 				"/>
				<polygon class="st29" points="252.6,74.1 256.1,76.8 278.8,57.9 				"/>
				<polygon class="st27" points="853.2,215.9 809.2,213.9 820.6,207.2 				"/>
				<polygon class="st28" points="853.2,215.9 834.1,204.2 825.1,208.4 				"/>
				<polygon class="st29" points="819.3,214.4 820.8,219.1 853.2,215.9 				"/>
				
					<linearGradient id="SVGID_00000052071463128256700690000005269701724673494448_" gradientUnits="userSpaceOnUse" x1="-1190.3787" y1="-233.9538" x2="-1184.2178" y2="-198.6693" gradientTransform="matrix(0.9574 -0.2887 -0.2887 -0.9574 1247.5342 -473.2673)">
					<stop  offset="0" style="stop-color:#4042E2"/>
					<stop  offset="1" style="stop-color:#4F52FF"/>
				</linearGradient>
				<path style="fill:url(#SVGID_00000052071463128256700690000005269701724673494448_);" d="M101.4,67.3c0.1,0.7,0.2,1.3,0.4,2
					l0.6-0.1c-0.2-0.7-0.3-1.4-0.4-2.1L101.4,67.3z M103.9,73.4l-0.5,0.3c0.7,1.4,1.5,2.7,2.4,4l0.5-0.3
					C105.4,76,104.6,74.7,103.9,73.4z M109.2,80.8l-0.4,0.4c1.1,1.1,2.2,2.2,3.4,3.2l0.4-0.4C111.4,82.9,110.3,81.9,109.2,80.8z
					 M116.3,86.7l-0.3,0.5c1.3,0.9,2.6,1.7,3.9,2.5l0.3-0.5C118.8,88.4,117.5,87.6,116.3,86.7z M124.2,91.3l-0.2,0.5
					c1.4,0.6,2.8,1.2,4.3,1.8l0.2-0.5C127.1,92.5,125.6,91.9,124.2,91.3z M132.9,94.4l-0.1,0.6c1.5,0.4,3,0.8,4.5,1.1l0.1-0.6
					C135.8,95.2,134.3,94.8,132.9,94.4L132.9,94.4z M211.2,74.2l0.2,0.6c1.5-0.5,3-0.9,4.4-1.3l-0.2-0.6
					C214.2,73.3,212.7,73.8,211.2,74.2L211.2,74.2z M206.8,75.7c-1.4,0.5-2.9,1.1-4.3,1.6l0.2,0.5c1.4-0.6,2.9-1.1,4.3-1.6
					L206.8,75.7z M220.1,71.8l0.1,0.6c1.5-0.4,3-0.7,4.5-1l-0.1-0.6C223.1,71.1,221.6,71.4,220.1,71.8L220.1,71.8z M198.1,79.1
					c-1.4,0.6-2.8,1.2-4.2,1.9l0.2,0.5c1.4-0.6,2.8-1.3,4.2-1.9L198.1,79.1z M229.2,70l0.1,0.6c1.6-0.2,3.1-0.4,4.6-0.5l-0.1-0.6
					C232.3,69.6,230.8,69.8,229.2,70z M141.9,96.2l-0.1,0.6c1.5,0.2,3.1,0.3,4.6,0.4v-0.6C144.9,96.5,143.4,96.4,141.9,96.2z
					 M189.7,82.9c-1.4,0.7-2.8,1.4-4.1,2.1l0.3,0.5c1.4-0.7,2.8-1.4,4.1-2.1L189.7,82.9z M238.4,69.3v0.6c1.5,0,3.1,0,4.6,0.2
					l0.1-0.6C243,69.5,241.4,69.3,238.4,69.3z M181.5,87.2c-0.7,0.4-1.4,0.8-2.1,1.1c-0.7,0.4-1.3,0.7-2,1.1l0.3,0.5
					c0.7-0.3,1.4-0.7,2-1.1c0.7-0.4,1.4-0.8,2.1-1.1L181.5,87.2z M151.1,96.5v0.6c1.5-0.1,3.1-0.2,4.6-0.4l-0.1-0.6
					C154.1,96.3,152.6,96.5,151.1,96.5z M173.3,91.3c-1.4,0.6-2.9,1.2-4.3,1.7l0.2,0.5c1.4-0.5,2.9-1.1,4.3-1.7L173.3,91.3z
					 M160.2,95.5l0.1,0.6c1.5-0.3,3-0.7,4.5-1.1l-0.1-0.6C163.2,94.8,161.7,95.2,160.2,95.5z"/>
				<path class="st31" d="M794.5,203.5v0.6c1.7,0,3.4,0.1,5.1,0.2v-0.6C797.9,203.6,796.2,203.5,794.5,203.5z M789.4,203.7
					c-1.7,0.1-3.4,0.3-5.1,0.5l0.1,0.6c1.7-0.2,3.4-0.4,5-0.5V203.7z M804.7,204.4l-0.1,0.6c1.7,0.2,3.3,0.6,4.9,1.2l0.2-0.6
					C808.1,205,806.4,204.6,804.7,204.4z M779.3,205.1l-5,1.2l0.2,0.6c1.6-0.4,3.3-0.9,4.9-1.2L779.3,205.1z"/>
				
					<linearGradient id="SVGID_00000088832483690401210340000010548324829023662014_" gradientUnits="userSpaceOnUse" x1="465.9094" y1="-561.8893" x2="477.1494" y2="-552.7093" gradientTransform="matrix(1 0 0 -1 0 -490.8)">
					<stop  offset="0" style="stop-color:#FFE9D9"/>
					<stop  offset="1" style="stop-color:#ABA69F"/>
				</linearGradient>
				
					<rect x="470.9" y="52.8" style="fill:url(#SVGID_00000088832483690401210340000010548324829023662014_);" width="0.4" height="28.1"/>
				<path class="st33" d="M471.2,52.8c0,0-2.7-3.4-7.5-0.6s-7.5,4.7-13,1.9c0,0,3.3,11.2,10.2,7.7s10.3,1,10.3,1
					S471.2,52.8,471.2,52.8z"/>
				
					<linearGradient id="SVGID_00000012458653608995422340000010986736397254894768_" gradientUnits="userSpaceOnUse" x1="1341.4819" y1="-330.3921" x2="1341.692" y2="-307.312" gradientTransform="matrix(0.9907 0.1359 0.1359 -0.9907 -834.7791 -408.6383)">
					<stop  offset="0" style="stop-color:#FFE9D9"/>
					<stop  offset="1" style="stop-color:#ABA69F"/>
				</linearGradient>
				<polygon style="fill:url(#SVGID_00000012458653608995422340000010986736397254894768_);" points="483.9,77.6 420.4,86.3 
					424.3,69.4 				"/>
				
					<linearGradient id="SVGID_00000043419338103173448350000006827859375070126241_" gradientUnits="userSpaceOnUse" x1="1298.2811" y1="-308.2193" x2="1372.5214" y2="-308.2193" gradientTransform="matrix(0.9907 0.1359 0.1359 -0.9907 -834.7791 -408.6383)">
					<stop  offset="0" style="stop-color:#FFE9D9"/>
					<stop  offset="1" style="stop-color:#C7C1B9"/>
				</linearGradient>
				<polygon style="fill:url(#SVGID_00000043419338103173448350000006827859375070126241_);" points="424.3,69.4 483.9,77.6 
					408.8,78.8 				"/>
				<path class="st36" d="M453.5,44.4c-0.1-0.3-0.2-0.5-0.3-0.8c0-0.3,0-0.5,0.1-0.8c0.1-0.3,0.4-0.8,0.5-0.8s0.1-0.1,0.3,0
					s0.3,0.2,0.3,0.2c0.1,0,0.2,0,0.3,0.1c0.1,0,0.2,0.1,0.3,0.2c0.1,0,0.2,0.1,0.3,0.2c0,0-0.1,0.3,0,0.4c-0.1,0.5-0.2,0.9-0.4,1.4
					C454.8,44.5,454.5,45.2,453.5,44.4z"/>
				<path class="st36" d="M454.8,44.4c-0.2,0.4-0.5,0.8-0.9,1.1c-0.7,0.5-0.6-0.6-0.6-0.6c0.1-0.2,0.2-0.4,0.3-0.6
					C453.6,44.2,454.8,44.4,454.8,44.4z"/>
				<path class="st37" d="M450.4,49c0.9-0.3,4.2-4,4.2-4l-1.2-0.7c-0.8,0.9-1.7,1.7-2.7,2.5c-0.4,0.2-0.9,0.3-1.3,0.4
					c-0.1,0-3.1-0.2-3.4-0.3c-0.6-0.3-1.2-0.4-1.9-0.4c-0.4,0-0.8,0.3-0.9,0.7c-0.1,1.6,2.4,1.6,2.4,1.6S449.2,49.5,450.4,49z"/>
				<path class="st37" d="M448.3,71.7c0,0,0.9,0.5,1.3,0.7s2,0.2,2.1,0.4s0.1,0.6-0.1,0.7c-0.9,0.1-1.9,0.2-2.8,0.1
					c-0.6-0.1-1.8,0.1-2.1,0s-0.1-1.5,0-1.8S448.3,71.7,448.3,71.7z"/>
				<path class="st38" d="M448.3,71.1v0.6c-0.5,0.1-1.1,0.1-1.6,0.1l0.1-0.6L448.3,71.1z"/>
				<path class="st37" d="M432.6,75.1c0.4,0.3,0.8,0.6,1.2,0.8c0.4,0.2,1.9,0.4,2.1,0.5s0.1,0.6-0.2,0.6c-0.9,0.1-1.9,0-2.8-0.1
					c-0.7-0.1-1.4-0.1-2.1-0.1c-0.2-0.1,0-1.5,0.1-1.8S432.6,75.1,432.6,75.1z"/>
				<path class="st38" d="M432.7,74.5l-0.1,0.6c-0.5,0.1-1,0-1.5-0.1l0.1-0.6L432.7,74.5z"/>
				<path class="st37" d="M442.4,56.9c-0.1,0.4-0.4,1.2-0.7,2c-0.1,0.2-0.1,0.4-0.2,0.6c-0.4,1.2-0.8,2.2-0.8,2.2
					c-0.6,1.4-2.1,4.4-2.8,5c-1,0.7-5.1,8.2-5.1,8.2l-1.9-0.2c0,0,2-5.6,2.9-6.9s2.5-3.2,2.6-4.7c0.1-1,0.7-4,0.7-4
					c0.4-2,1.2-3.9,2.2-5.6C439.6,53,442.4,56.9,442.4,56.9z"/>
				<path class="st37" d="M444.4,56.5c2,1.5,4,3,5.9,4.7c0.4,0.8,0.4,1.7,0.1,2.5c-0.1,0.4-1.8,6.9-1.8,7.5c0,0-1.6,0.4-2-0.1
					c0,0,0.6-6.2,0.9-7.4s-1.4-2.1-2.4-2.6s-6.2-3-6.1-4l0.2-1.4C439.2,55.7,440.1,55,444.4,56.5z"/>
				<path class="st39" d="M444.3,46c0.3,0.9,0.5,1.8,0.6,2.7c-0.2,1.5-0.6,3-1,4.5c-0.1,1.1,0.1,2.2,0.5,3.3l-5.4,1
					c0,0-0.1-1.6-0.1-3.4c0-1.5,0.3-3,0.8-4.5c0.5-1.9,1.8-3.5,3.4-4.5L444.3,46z"/>
				<path class="st36" d="M446.8,41.8c0,0,0.5,0.9,0.2,1s0.2,1,0.3,1.2s-0.4,0.2-0.5,0.3s-0.4,1.2-0.7,1.3c-0.9-0.1-1.7-0.4-2.3-1
					c-0.5-1-0.7-2.2-0.5-3.3C443.6,40.5,445.9,40.2,446.8,41.8z"/>
				<path class="st36" d="M445.1,45.3c0,0.1,0,0.1-0.1,0.2c0,0.1,0,0.1-0.1,0.2s0,0.1-0.1,0.2c-0.2,0.4-0.3,0.9-0.4,1.1
					c0,0.5-1.3-1.9-1.3-1.9c0.4-0.9,0.7-1.9,1-2.9C444.6,40.8,445.1,45.3,445.1,45.3z"/>
				<path class="st40" d="M446.9,42c0.3-0.6,0.1-1.3-0.4-1.7c-0.9-0.7-2.6,0.5-2.8,0.6s-1.2,0.1-0.7,2c0.1,0.5,0.3,1.1,0.5,1.6
					l0.5-1c0.3-0.1,0.7-0.2,1-0.2c0,0-0.3-0.8,0.2-1S446.4,41.8,446.9,42z"/>
				<path class="st36" d="M444.5,42.8c0-0.1-0.2-0.6-0.6-0.3s0.3,1.2,0.4,1.2S444.9,43.8,444.5,42.8z"/>
				<path class="st41" d="M443.3,45c0.4,0.7,0.8,1.3,1.4,1.8l-0.2,0.9l-1.5-2.5L443.3,45z"/>
				<path class="st42" d="M445.1,45.3c0,0.1,0,0.1-0.1,0.2c0,0.1,0,0.1-0.1,0.2c-0.4-0.3-0.8-0.7-1-1.1
					C444.3,44.9,444.7,45.1,445.1,45.3z"/>
				<path class="st43" d="M444.4,56.5c0-0.2-0.1-0.4-0.2-0.6l-5.3,1v0.7C439,57.6,442.8,56.9,444.4,56.5z"/>
				<path class="st44" d="M439.1,51.5c-0.2,2.2-1,4.3-2.3,6.1c-0.3,0.4,2.9,0.8,2.9,0.8L439.1,51.5z"/>
				
					<rect x="452" y="36.9" transform="matrix(1.999600e-02 -0.9998 0.9998 1.999600e-02 400.468 494.5254)" class="st45" width="1" height="12.1"/>
				
					<rect x="446.2" y="42.4" transform="matrix(1.999600e-02 -0.9998 0.9998 1.999600e-02 395.131 488.7538)" class="st45" width="1.4" height="0.9"/>
				
					<rect x="458.1" y="41" transform="matrix(2.233833e-02 -0.9998 0.9998 2.233833e-02 405.4486 501.2131)" class="st45" width="1.8" height="4.7"/>
				
					<rect x="460.1" y="41.6" transform="matrix(1.999600e-02 -0.9998 0.9998 1.999600e-02 409.054 503.7137)" class="st45" width="2.8" height="3.1"/>
				<path class="st46" d="M452.5,42.6v0.3c0,0.1,0,0.2-0.1,0.3v0.1c0,0.2,0,0.3-0.1,0.5c-0.1,0.2-0.4,1-0.4,1l-0.7-0.2h-0.6
					c-0.1-0.5-0.2-1.1-0.2-1.6v-0.1c0.1-0.2,0.2-0.3,0.2-0.4c0.1-0.1,0.2-0.3,0.3-0.4c0.1,0,0.3,0,0.3,0.1c0.2,0,0.3,0,0.5,0.1
					c0,0,0.3,0,0.4,0.1S452.4,42.5,452.5,42.6z"/>
				<path class="st46" d="M451.9,44.8c-0.2,0.4-0.4,0.7-0.7,1c-0.5,0.5-0.7-0.7-0.7-0.7l0.2-0.6C450.6,44.6,451.4,44.3,451.9,44.8z"
					/>
				<path class="st47" d="M453.8,42.2c0,0-0.2,0.9-0.1,1c0.1,0.1,0.1,0.1,0.2,0c0,0,0,0,0,0l0.1,0.4c0.1,0.1,0.3,0.1,0.4,0
					c0,0,0,0,0,0c0,0,0.2,0.2,0.3,0c0,0,0.2,0.1,0.3,0c0.1-0.3,0.2-0.5,0.2-0.8c0,0-0.1-0.2-0.2-0.1c-0.1-0.1-0.2-0.2-0.3-0.2
					c-0.1-0.1-0.2-0.2-0.3-0.1c0,0,0,0,0,0c0-0.2-0.2-0.3-0.4-0.3C453.9,42.1,453.9,42.1,453.8,42.2z"/>
				<path class="st36" d="M453.2,43.6c0.2-0.3,0.5-0.5,0.8-0.6h0.2c0.1,0.1,0,0.2-0.1,0.4c-0.1,0.2-0.2,0.4-0.3,0.6
					C453.8,44,453.6,44.2,453.2,43.6z"/>
				<path class="st48" d="M444.9,47.3c0.1,0.3,0.2,0.5,0.2,0.8c-0.2,0.1-0.4,0.1-0.6,0C444.6,47.8,444.7,47.5,444.9,47.3z"/>
				<path class="st48" d="M444.6,48c-0.4,1.4-0.5,2.9-0.3,4.3c0.4,2.3,0.6,3.1,0.6,3.1l0.5,0.6l0.1-0.8c-0.5-1.9-0.8-3.8-0.8-5.8
					v-1.5L444.6,48z"/>
				<path class="st44" d="M444.5,49.5c-0.1,0.3-0.2,0.7-0.3,1l0,0c-0.2,0.7-0.4,1.5-0.6,2.2c-0.1,0.3-0.1,0.5-0.2,0.8
					c-0.4,1.9-1.1,3.6-2.2,5.2c-1-0.1-2-0.3-3-0.6c0.1-2.3,0.4-4.6,0.9-6.8c0.1-0.3,0.1-0.5,0.2-0.8l0,0c0.7-2.7,1.9-5.1,3.7-5.3
					C443,45.2,445.1,47.7,444.5,49.5z"/>
				<path class="st44" d="M448.6,49.6c1-0.2,3.2-4.3,3.2-4.3l-1.4-0.8c-0.4,0.8-0.9,1.5-1.5,2.2c-0.4,0.4-1,1.2-1.1,1.2
					s-2.9-0.8-3.2-0.9c-0.6-0.3-1.2-0.6-1.8-0.8c-0.4-0.1-0.8,0.1-1,0.5c-0.4,1.6,2,2,2,2S447.2,49.8,448.6,49.6z"/>
				
					<linearGradient id="SVGID_00000156547189377746078410000000105630798569151405_" gradientUnits="userSpaceOnUse" x1="334.0522" y1="-632.006" x2="304.9422" y2="-615.956" gradientTransform="matrix(1 0 0 -1 0 -490.8)">
					<stop  offset="0" style="stop-color:#4042E2"/>
					<stop  offset="1" style="stop-color:#4F52FF"/>
				</linearGradient>
				<path style="fill:url(#SVGID_00000156547189377746078410000000105630798569151405_);" d="M329.2,131.6l-4.8,7.3
					c2.2,4.3,4.7,6.7,7.1,7.8c0.5-2.4,1.6-4.5,3.2-6.3C330.4,138.1,329.2,131.6,329.2,131.6z"/>
				
					<linearGradient id="SVGID_00000040562166875255001190000011392244791866913174_" gradientUnits="userSpaceOnUse" x1="349.1987" y1="-628.6674" x2="313.3487" y2="-646.0274" gradientTransform="matrix(1 0 0 -1 0 -490.8)">
					<stop  offset="0" style="stop-color:#FF928E"/>
					<stop  offset="1" style="stop-color:#FEB3B1"/>
				</linearGradient>
				<path style="fill:url(#SVGID_00000040562166875255001190000011392244791866913174_);" d="M345.6,139.2
					c-4.9,2.9-8.4,2.7-10.8,1.3c-1.6,1.8-2.7,4-3.2,6.3c7.8,3.6,15.7-5.5,15.7-5.5L345.6,139.2z"/>
				
					<linearGradient id="SVGID_00000060007691225930091000000004232766056012684465_" gradientUnits="userSpaceOnUse" x1="349.3746" y1="-629.0388" x2="313.5246" y2="-646.3988" gradientTransform="matrix(1 0 0 -1 0 -490.8)">
					<stop  offset="0" style="stop-color:#FF928E"/>
					<stop  offset="1" style="stop-color:#FEB3B1"/>
				</linearGradient>
				<path style="fill:url(#SVGID_00000060007691225930091000000004232766056012684465_);" d="M345.9,140.5c-0.7-1.3-0.5-3,0.6-4.1
					c0,0,0.6-0.7,1.3,0.3c0,0,2-1.9,2.6-1.1s2,2.6,0.6,4.7S346.6,141.5,345.9,140.5z"/>
				
					<linearGradient id="SVGID_00000087395511976781993560000013893550842139207830_" gradientUnits="userSpaceOnUse" x1="346.56" y1="-628.8399" x2="349.07" y2="-628.8399" gradientTransform="matrix(1 0 0 -1 0 -490.8)">
					<stop  offset="0" style="stop-color:#FF928E"/>
					<stop  offset="1" style="stop-color:#FEB3B1"/>
				</linearGradient>
				<path style="fill:url(#SVGID_00000087395511976781993560000013893550842139207830_);" d="M347.9,139.5c-0.2,0-0.5-0.1-0.7-0.2
					c-0.3-0.2-0.6-0.6-0.6-1c0-0.3,0.2-0.6,0.5-0.6s0.6,0.2,0.6,0.5l0,0c0,0.1,0,0.2,0.1,0.2h0.1l-0.3-1.1c-0.1-0.3,0.1-0.6,0.4-0.7
					c0.3-0.1,0.6,0.1,0.7,0.4l0,0l0.5,1.7c0.1,0.3,0,0.6-0.3,0.7c0,0,0,0,0,0C348.7,139.4,348.3,139.5,347.9,139.5z"/>
				
					<linearGradient id="SVGID_00000033346928158944269330000008451532346165400228_" gradientUnits="userSpaceOnUse" x1="275.94" y1="-685.4258" x2="281.55" y2="-685.4258" gradientTransform="matrix(1 0 0 -1 0 -490.8)">
					<stop  offset="0" style="stop-color:#4042E2"/>
					<stop  offset="1" style="stop-color:#4F52FF"/>
				</linearGradient>
				<path style="fill:url(#SVGID_00000033346928158944269330000008451532346165400228_);" d="M276.5,188.5c-0.4,0.3-0.6,0.8-0.5,1.3
					c0.4,2.1,1.7,7.6,4.9,10.8c0.2,0.2,0.5,0.2,0.7,0c0,0,0,0,0,0c-1.2-1.4-2.2-3-3-4.7C276.8,192.2,276.5,189.9,276.5,188.5z"/>
				
					<linearGradient id="SVGID_00000088853543876340624920000004024674235234846908_" gradientUnits="userSpaceOnUse" x1="276.5" y1="-685.1729" x2="282.4628" y2="-685.1729" gradientTransform="matrix(1 0 0 -1 0 -490.8)">
					<stop  offset="0" style="stop-color:#2B3582"/>
					<stop  offset="1" style="stop-color:#150E42"/>
				</linearGradient>
				<path style="fill:url(#SVGID_00000088853543876340624920000004024674235234846908_);" d="M280.6,188.5c-1.3-0.6-2.8-0.6-4.1,0.1
					l0,0c0,1.4,0.3,3.7,2.1,7.4c0.8,1.7,1.8,3.3,3,4.7c0.1-0.1,0.1-0.1,0.1-0.2C282.3,198.4,283.5,192.6,280.6,188.5z"/>
				
					<linearGradient id="SVGID_00000021114642757130684890000015889580753430960308_" gradientUnits="userSpaceOnUse" x1="279.48" y1="-679.1336" x2="283.87" y2="-679.1336" gradientTransform="matrix(1 0 0 -1 0 -490.8)">
					<stop  offset="0" style="stop-color:#FF928E"/>
					<stop  offset="1" style="stop-color:#FEB3B1"/>
				</linearGradient>
				<path style="fill:url(#SVGID_00000021114642757130684890000015889580753430960308_);" d="M283.6,188.6l-1.9,1.8
					c-0.3,0.3-0.8,0.4-1.2,0.1c-0.4-0.3-0.8-0.7-1-1.2c-0.1-0.4-0.1-0.8,0.2-1l1.9-2c0.4-0.4,1-0.4,1.4,0c0.1,0.1,0.1,0.2,0.2,0.2
					l0.6,1C284,187.9,283.9,188.3,283.6,188.6z"/>
				
					<linearGradient id="SVGID_00000023974466881614484300000006038406345739282602_" gradientUnits="userSpaceOnUse" x1="343.63" y1="-665.2669" x2="352.06" y2="-665.2669" gradientTransform="matrix(1 0 0 -1 0 -490.8)">
					<stop  offset="0" style="stop-color:#4042E2"/>
					<stop  offset="1" style="stop-color:#4F52FF"/>
				</linearGradient>
				<path style="fill:url(#SVGID_00000023974466881614484300000006038406345739282602_);" d="M343.6,179.6c0.5,0.2,1,0.2,1.4-0.2
					c1.6-1.4,5.7-5.2,7-9.6c0.1-0.2-0.1-0.5-0.3-0.6c-0.6,1.8-1.5,3.4-2.6,4.9C346.7,177.6,344.8,179,343.6,179.6z"/>
				
					<linearGradient id="SVGID_00000082352492040802491010000017546850693602448528_" gradientUnits="userSpaceOnUse" x1="341.53" y1="-665.2001" x2="351.67" y2="-665.2001" gradientTransform="matrix(1 0 0 -1 0 -490.8)">
					<stop  offset="0" style="stop-color:#2B3582"/>
					<stop  offset="1" style="stop-color:#150E42"/>
				</linearGradient>
				<path style="fill:url(#SVGID_00000082352492040802491010000017546850693602448528_);" d="M341.5,176.1c0.1,1.4,0.9,2.8,2.1,3.5
					l0,0c1.2-0.6,3-2.1,5.4-5.5c1.1-1.5,2-3.1,2.6-4.9h-0.3C349.3,169.8,343.7,171.5,341.5,176.1z"/>
				
					<linearGradient id="SVGID_00000075149636788187549450000005718121779335635341_" gradientUnits="userSpaceOnUse" x1="338.85" y1="-664.8712" x2="343.67" y2="-664.8712" gradientTransform="matrix(1 0 0 -1 0 -490.8)">
					<stop  offset="0" style="stop-color:#FF928E"/>
					<stop  offset="1" style="stop-color:#FEB3B1"/>
				</linearGradient>
				<path style="fill:url(#SVGID_00000075149636788187549450000005718121779335635341_);" d="M341.4,172.2l1.9,1.7
					c0.3,0.3,0.4,0.8,0.2,1.2c-0.2,0.5-0.6,0.8-1.1,1c-0.3,0.2-0.7,0.1-1-0.1l-2.2-1.7c-0.4-0.3-0.5-1-0.2-1.4
					c0.1-0.1,0.1-0.1,0.2-0.2l0.9-0.7C340.5,171.9,341,171.9,341.4,172.2z"/>
				
					<linearGradient id="SVGID_00000048472177296754137830000011223803033751442102_" gradientUnits="userSpaceOnUse" x1="302.3817" y1="-650.7806" x2="292.3517" y2="-678.5206" gradientTransform="matrix(1 0 0 -1 0 -490.8)">
					<stop  offset="0" style="stop-color:#09005D"/>
					<stop  offset="1" style="stop-color:#1A0F91"/>
				</linearGradient>
				<path style="fill:url(#SVGID_00000048472177296754137830000011223803033751442102_);" d="M302.4,155.1c0,0-3.8,12.9-6.2,18.6
					c-2.4,0.3-4.7,1.1-6.9,2.2c-2.6,1.6-8.4,10.1-8.4,10.1s1.5,2.8,3.3,3.3l16.2-11.3l13-15.1l-0.6-7L302.4,155.1z"/>
				
					<linearGradient id="SVGID_00000010994129609659681970000004755602945149751701_" gradientUnits="userSpaceOnUse" x1="345.2594" y1="-640.809" x2="320.3794" y2="-655.589" gradientTransform="matrix(1 0 0 -1 0 -490.8)">
					<stop  offset="0" style="stop-color:#09005D"/>
					<stop  offset="1" style="stop-color:#1A0F91"/>
				</linearGradient>
				<path style="fill:url(#SVGID_00000010994129609659681970000004755602945149751701_);" d="M302.7,154.1l-1.1,3.5
					c0,0,1,9.3,12.7,7.7s13.1-3.5,13.1-3.5s-1,5.9,11.8,13c1-0.8,1.9-1.9,2.4-3.1l-9-14.8c-1.2-1.9-2.4-2.4-4.7-2.1
					c-5,0.8-14.4,1.8-15.9,1.6L302.7,154.1z"/>
				
					<linearGradient id="SVGID_00000176012553441976040260000016724615279468638365_" gradientUnits="userSpaceOnUse" x1="315.2391" y1="-623.8495" x2="288.7691" y2="-666.0295" gradientTransform="matrix(1 0 0 -1 0 -490.8)">
					<stop  offset="0" style="stop-color:#4042E2"/>
					<stop  offset="1" style="stop-color:#4F52FF"/>
				</linearGradient>
				<path style="fill:url(#SVGID_00000176012553441976040260000016724615279468638365_);" d="M311.8,127.8c-4.5,0.4-8.8,2.1-12.3,5
					c1.4,1.6,2.7,3.2,3.9,5c1.4-1.2,3.1-2,4.9-2.4c-1.8,6.9-4.1,13.7-6.9,20.3c-0.2,0.3-0.1,0.8,0.3,0.9c0,0,0.1,0,0.1,0.1
					c2.1,0.7,8.4,2.5,13.5-0.3l11.2-16c1.2-1.7,2-3.7,2.3-5.8l0.4-2.9C329.2,131.6,319.2,127.4,311.8,127.8z"/>
				
					<linearGradient id="SVGID_00000036221415624878339840000016204882637768405948_" gradientUnits="userSpaceOnUse" x1="304.8296" y1="-640.3746" x2="283.4996" y2="-602.6546" gradientTransform="matrix(1 0 0 -1 0 -490.8)">
					<stop  offset="0" style="stop-color:#FF928E"/>
					<stop  offset="1" style="stop-color:#FEB3B1"/>
				</linearGradient>
				<path style="fill:url(#SVGID_00000036221415624878339840000016204882637768405948_);" d="M305.7,152c-0.7-1.1-1.7-2-2.9-2.5
					c-0.7-1.4-3.5-7.8,0.7-11.8c-1.2-1.7-2.5-3.4-3.9-5c-4,3.7-5.5,9.5,1.6,17.6c-0.2,1.7,0.3,3.4,1.5,4.7
					C302.9,155.2,306.3,153.5,305.7,152z"/>
				
					<linearGradient id="SVGID_00000098213004945325699110000006659430802501882286_" gradientUnits="userSpaceOnUse" x1="320.6909" y1="-616.0303" x2="318.0409" y2="-625.6503" gradientTransform="matrix(1 0 0 -1 0 -490.8)">
					<stop  offset="0" style="stop-color:#FF928E"/>
					<stop  offset="1" style="stop-color:#FEB3B1"/>
				</linearGradient>
				<path style="fill:url(#SVGID_00000098213004945325699110000006659430802501882286_);" d="M319.3,123.5l-2.9,5.7
					c-0.2,0.4-0.1,0.8,0.1,1.1c1.3,1.5,3.5,1.9,5.3,1.1c0.3-0.1,0.5-0.4,0.6-0.7l0.8-5.2L319.3,123.5z"/>
				
					<linearGradient id="SVGID_00000054976670921816358160000014458762495815664013_" gradientUnits="userSpaceOnUse" x1="324.5612" y1="-611.1516" x2="314.7712" y2="-618.6516" gradientTransform="matrix(1 0 0 -1 0 -490.8)">
					<stop  offset="0" style="stop-color:#FF928E"/>
					<stop  offset="1" style="stop-color:#FEB3B1"/>
				</linearGradient>
				<path style="fill:url(#SVGID_00000054976670921816358160000014458762495815664013_);" d="M324.2,116.9c0,0,1.7,3.9,1.8,6
					s0.6,3.4-1.8,3.8c-2.3,0.4-4.5-0.8-5.5-2.8c0,0-1.7-3.2-1.3-4.5S324.2,116.9,324.2,116.9z"/>
				
					<linearGradient id="SVGID_00000023965967461552634660000003353891780244894653_" gradientUnits="userSpaceOnUse" x1="317.6924" y1="-605.2159" x2="326.8224" y2="-616.9659" gradientTransform="matrix(1 0 0 -1 0 -490.8)">
					<stop  offset="0" style="stop-color:#09005D"/>
					<stop  offset="1" style="stop-color:#1A0F91"/>
				</linearGradient>
				<path style="fill:url(#SVGID_00000023965967461552634660000003353891780244894653_);" d="M319.5,122.4l0.1-0.1
					c0.1-0.1,0.2-0.2,0.2-0.4c-0.3-0.7-1-2.1-0.1-2.5c1.1-0.4,5.4-1.3,6.4-2.9c0.8-1.3,0.3-3.1-1-3.8c0,0-0.1,0-0.1-0.1
					c-0.1,0-0.2,0-0.2,0.1l-0.1,0.2c-0.1,0.1-0.3,0.1-0.3,0l0,0c0-0.1-0.2-0.2-0.3,0c-0.3,0.5-1.1,1.2-3.1,1.6c-3,0.5-4.9,1.7-5,3.8
					c0,0.1-0.1,0.2-0.2,0.1c-0.3-0.2-0.8-0.1-1,0.2c-0.8,0.7-0.5,2.4,1.3,3.9c0.1,0.1,0.1,0.2,0,0.3c0,0,0,0,0,0
					c-0.3,0.2-0.8,0.7,0.4,1.4c0.8,0.5,1.7,0.7,2.6,0.6c0.1,0,0.1-0.1,0.1-0.2l-0.4-1.8c0-0.1,0-0.2,0.2-0.2h0.5V122.4z"/>
				
					<linearGradient id="SVGID_00000040541585582042934810000002756720049241848222_" gradientUnits="userSpaceOnUse" x1="323.349" y1="-609.5687" x2="313.559" y2="-617.0687" gradientTransform="matrix(1 0 0 -1 0 -490.8)">
					<stop  offset="0" style="stop-color:#FF928E"/>
					<stop  offset="1" style="stop-color:#FEB3B1"/>
				</linearGradient>
				<path style="fill:url(#SVGID_00000040541585582042934810000002756720049241848222_);" d="M319.6,122.8c0,0-0.6-2.5-1.8-1.8
					s0.6,2.8,1.5,2.9L319.6,122.8z"/>
				<path class="st67" d="M97.3,23.2l3.8,7.7c0.3,0.7,1,1.2,1.8,1.3l8.4,1.2c1.3,0.2,2.2,1.4,2,2.7c-0.1,0.5-0.3,0.9-0.7,1.3l-6.1,6
					c-0.6,0.5-0.8,1.3-0.7,2.1l1.4,8.4c0.2,1.3-0.7,2.5-2,2.7c-0.5,0.1-1,0-1.4-0.2l-7.6-4c-0.7-0.4-1.5-0.4-2.2,0l-7.6,4
					c-1.2,0.6-2.6,0.2-3.2-1c-0.2-0.5-0.3-1-0.2-1.5l1.4-8.4c0.1-0.8-0.1-1.6-0.7-2.1l-6.1-6c-0.9-0.9-1-2.4-0.1-3.3
					c0.4-0.4,0.8-0.6,1.4-0.7l8.4-1.2c0.8-0.1,1.4-0.6,1.8-1.3l3.8-7.7c0.6-1.2,2.1-1.7,3.3-1.1C96.7,22.4,97.1,22.7,97.3,23.2z"/>
				<path class="st68" d="M105,55.2c-0.2,0-0.3,0-0.4-0.1l-7.6-4c-0.6-0.3-1.2-0.4-1.8-0.4c-0.6,0-1.2,0.2-1.8,0.4l-7.6,4
					c-0.1,0.1-0.3,0.1-0.4,0.1c-0.3,0-0.5-0.1-0.7-0.3c-0.2-0.2-0.3-0.5-0.2-0.8l1.4-8.4c0.2-1.2-0.2-2.5-1.1-3.4l-6.1-6
					c-0.3-0.2-0.4-0.7-0.2-1c0.1-0.4,0.4-0.6,0.8-0.6l8.4-1.2c1.2-0.2,2.3-1,2.9-2.1l3.8-7.7c0.1-0.3,0.5-0.5,0.8-0.5
					c0.4,0,0.7,0.2,0.8,0.5l3.8,7.7c0.6,1.1,1.7,1.9,2.9,2.1l8.4,1.2c0.3,0.1,0.6,0.3,0.8,0.6c0.1,0.3,0,0.7-0.2,1l-6.1,6
					c-0.9,0.9-1.3,2.2-1.1,3.4l1.4,8.4c0.1,0.3,0,0.6-0.2,0.8C105.5,55.1,105.3,55.2,105,55.2z"/>
				<path class="st67" d="M87.2,43.7c-0.1,0-0.2-0.1-0.2-0.2c-0.2-0.8-0.7-1.5-1.3-2l-2.3-2.3c-0.1-0.1-0.1-0.2,0-0.3
					c0.1-0.1,0.2-0.1,0.3,0l0,0l2.3,2.3c0.6,0.6,1.1,1.4,1.4,2.2C87.4,43.5,87.4,43.6,87.2,43.7z"/>
				<path class="st67" d="M91.8,50.6c-0.1,0-0.2,0-0.2-0.1s0-0.2,0.1-0.3l1-0.5c0.8-0.4,1.6-0.6,2.5-0.6c0.9,0,1.7,0.2,2.5,0.6
					c0.1,0,0.2,0.1,0.1,0.2c0,0,0,0,0,0.1c-0.1,0.1-0.2,0.2-0.3,0.1c-1.4-0.8-3.2-0.8-4.6,0L91.8,50.6z"/>
				<path class="st67" d="M102.3,52.3c-0.2,0-0.3,0-0.5-0.1c-0.1-0.1-0.2-0.2-0.1-0.3c0.1-0.1,0.2-0.2,0.3-0.1
					c0.5,0.1,0.9,0,1.3-0.3c0.4-0.3,0.5-0.8,0.4-1.2l-0.8-4.4c-0.3-1.8,0.3-3.6,1.6-4.8l3.2-3.1c0.4-0.4,0.5-0.9,0.3-1.4
					c-0.2-0.5-0.6-0.8-1.1-0.9l-4.4-0.6c-1.8-0.3-3.3-1.4-4.1-3l-2-4c-0.2-0.5-0.7-0.7-1.2-0.7c-0.5,0-1,0.3-1.2,0.7l-2,4
					c-0.8,1.6-2.3,2.7-4.1,3l-4.4,0.6c-0.3,0-0.5,0.1-0.7,0.3c-0.1,0.1-0.2,0.1-0.3,0c-0.1-0.1-0.1-0.2,0-0.3
					c0.2-0.2,0.6-0.4,0.9-0.4l4.4-0.6c1.6-0.2,3-1.2,3.8-2.7l2-4c0.4-0.9,1.5-1.3,2.4-0.8c0.4,0.2,0.6,0.5,0.8,0.8l2,4
					c0.7,1.5,2.2,2.5,3.8,2.7l4.4,0.6c0.7,0.1,1.2,0.5,1.4,1.2c0.2,0.6,0,1.3-0.4,1.8l-3.2,3.1c-1.2,1.2-1.7,2.9-1.4,4.5l0.8,4.4
					c0.1,0.6-0.1,1.2-0.6,1.6C103.2,52.2,102.8,52.3,102.3,52.3z"/>
				<path class="st67" d="M965.5-0.2l3.5,7.1c0.3,0.7,1,1.1,1.7,1.2l7.8,1.1c1.2,0.2,2,1.4,1.8,2.6c-0.1,0.5-0.3,0.9-0.6,1.2
					l-5.7,5.5c-0.5,0.5-0.8,1.2-0.6,1.9l1.3,7.8c0.2,1.2-0.6,2.3-1.8,2.5c-0.5,0.1-1,0-1.4-0.2l-7-3.7c-0.6-0.3-1.4-0.3-2,0l-7,3.7
					c-1.1,0.6-2.4,0.1-3-0.9c-0.2-0.4-0.3-0.9-0.2-1.4l1.3-7.8c0.1-0.7-0.1-1.4-0.6-1.9l-5.7-5.5c-0.9-0.9-0.9-2.3,0-3.2
					c0.3-0.3,0.8-0.6,1.2-0.6l7.8-1.1c0.7-0.1,1.3-0.6,1.7-1.2l3.5-7.1c0.6-1.1,2-1.5,3.1-0.9C965-0.9,965.3-0.6,965.5-0.2z"/>
				<path class="st68" d="M972.6,29.5c-0.1,0-0.3,0-0.4-0.1l-7-3.7c-1-0.5-2.2-0.5-3.2,0l-7,3.7c-0.1,0.1-0.3,0.1-0.4,0.1
					c-0.3,0-0.5-0.1-0.7-0.3c-0.1-0.2-0.2-0.5-0.2-0.7l1.3-7.8c0.2-1.1-0.2-2.3-1-3.1l-5.7-5.5c-0.2-0.2-0.3-0.6-0.2-0.9
					c0.1-0.3,0.4-0.6,0.7-0.6l7.8-1.1c1.1-0.2,2.1-0.9,2.7-1.9l3.5-7.1c0.2-0.4,0.7-0.6,1.2-0.4c0.2,0.1,0.3,0.2,0.4,0.4l3.5,7.1
					c0.5,1.1,1.5,1.8,2.7,1.9l7.8,1.1c0.5,0.1,0.7,0.4,0.7,0.6c0.1,0.3,0,0.6-0.2,0.9l-5.7,5.5c-0.8,0.8-1.2,2-1,3.1l1.3,7.8
					c0.1,0.3,0,0.5-0.2,0.7C973.1,29.4,972.9,29.5,972.6,29.5z"/>
				<path class="st67" d="M956.1,18.8c-0.1,0-0.2,0-0.2-0.1c-0.2-0.7-0.6-1.4-1.2-1.9l-2.2-2.1c-0.1-0.1-0.1-0.2,0-0.3
					c0.1-0.1,0.2-0.1,0.3,0l2.2,2.1c0.6,0.6,1,1.3,1.3,2C956.4,18.6,956.3,18.8,956.1,18.8L956.1,18.8z"/>
				<path class="st67" d="M960.4,25.2c-0.1,0-0.1,0-0.2-0.1c0-0.1,0-0.2,0.1-0.3l0.9-0.5c1.4-0.8,3.2-0.8,4.6,0
					c0.1,0,0.1,0.2,0.1,0.3s-0.2,0.1-0.3,0.1c-0.7-0.4-1.4-0.5-2.2-0.5c-0.8,0-1.5,0.2-2.2,0.5L960.4,25.2L960.4,25.2z"/>
				<path class="st67" d="M970.1,26.8c-0.2,0-0.3,0-0.5-0.1c-0.1,0-0.2-0.1-0.1-0.2s0.2-0.2,0.2-0.1c0.4,0.1,0.9,0,1.2-0.3
					c0.4-0.2,0.5-0.7,0.4-1.1l-0.7-4c-0.3-1.7,0.3-3.3,1.5-4.5l2.9-2.9c0.4-0.3,0.5-0.8,0.3-1.3c-0.1-0.4-0.5-0.8-1-0.8l-4-0.6
					c-1.7-0.2-3.1-1.3-3.8-2.8l-1.8-3.7c-0.2-0.4-0.6-0.7-1.1-0.7c-0.5,0-0.9,0.2-1.1,0.7l-1.8,3.7c-0.7,1.5-2.2,2.5-3.8,2.8l-4,0.6
					c-0.2,0-0.5,0.1-0.6,0.3c-0.1,0.1-0.2,0.1-0.3,0c-0.1-0.1-0.1-0.2,0-0.3l0,0c0.2-0.2,0.5-0.4,0.8-0.4l4-0.6
					c1.5-0.2,2.8-1.2,3.5-2.6l1.8-3.7c0.3-0.6,0.9-0.9,1.5-0.9c0.6,0,1.2,0.3,1.5,0.9l1.8,3.7c0.7,1.4,2,2.3,3.5,2.6l4,0.6
					c0.6,0.1,1.1,0.5,1.3,1.1c0.2,0.6,0,1.2-0.4,1.7l-2.9,2.9c-1.1,1.1-1.6,2.6-1.3,4.1l0.7,4c0.1,0.6-0.1,1.1-0.5,1.5
					C971,26.7,970.5,26.8,970.1,26.8z"/>
				<path class="st67" d="M347.6,41.8l5.1,10.4c0.5,0.9,1.4,1.6,2.4,1.8l11.4,1.7c1.8,0.3,3,1.9,2.7,3.7c-0.1,0.7-0.4,1.3-0.9,1.8
					l-8.3,8.1c-0.8,0.7-1.1,1.8-0.9,2.8l2,11.4c0.3,1.7-0.9,3.4-2.6,3.7c-0.7,0.1-1.4,0-2-0.3l-10.2-5.4c-0.9-0.5-2.1-0.5-3,0
					L333,86.7c-1.6,0.8-3.5,0.2-4.3-1.3c-0.3-0.6-0.4-1.4-0.3-2.1l2-11.4c0.2-1-0.2-2.1-0.9-2.8l-8.3-8.1c-1.3-1.2-1.3-3.3-0.1-4.6
					c0.5-0.5,1.2-0.8,1.9-0.9l11.4-1.7c1-0.2,1.9-0.9,2.4-1.8l5.1-10.3c0.9-1.6,2.9-2.1,4.4-1.2C346.9,40.8,347.3,41.3,347.6,41.8z"
					/>
				<path class="st68" d="M357.9,85.2c-0.2,0-0.4-0.1-0.6-0.2l-10.2-5.4c-1.5-0.8-3.3-0.8-4.8,0L332.1,85c-0.2,0.1-0.4,0.2-0.6,0.2
					c-0.4,0-0.8-0.2-1-0.5c-0.3-0.3-0.4-0.6-0.3-1l2-11.4c0.3-1.7-0.3-3.4-1.5-4.6l-8.3-8.1c-0.4-0.3-0.5-0.8-0.3-1.3
					c0.1-0.5,0.5-0.8,1-0.9l11.4-1.7c1.7-0.2,3.1-1.3,3.9-2.8l5.1-10.3c0.3-0.6,1-0.9,1.6-0.6c0.3,0.1,0.5,0.3,0.6,0.6l5.1,10.3
					c0.8,1.5,2.2,2.6,3.9,2.8l11.4,1.7c0.5,0,0.9,0.4,1,0.9c0.2,0.5,0.1,1-0.3,1.3l-8.3,8.1c-1.2,1.2-1.8,2.9-1.5,4.6l2,11.4
					c0.1,0.4,0,0.7-0.3,1C358.6,85,358.2,85.2,357.9,85.2z"/>
				<path class="st67" d="M333.9,69.5c-0.1,0-0.2-0.1-0.3-0.2c-0.3-1.1-0.9-2-1.7-2.8l-3.1-3.1c-0.1-0.1-0.1-0.3,0-0.4
					c0.1-0.1,0.3-0.1,0.4,0l0,0l3.1,3.1c0.9,0.8,1.5,1.9,1.9,3C334.2,69.3,334.1,69.5,333.9,69.5z"/>
				<path class="st67" d="M340.1,78.9c-0.1,0-0.2-0.1-0.3-0.2s0-0.3,0.1-0.4l1.4-0.7c1-0.6,2.2-0.8,3.4-0.8c1.2,0,2.3,0.3,3.4,0.8
					c0.1,0.1,0.2,0.2,0.1,0.4s-0.2,0.2-0.4,0.1c-2-1.1-4.4-1.1-6.4,0L340.1,78.9L340.1,78.9z"/>
				<path class="st67" d="M354.3,81.2c-0.2,0-0.5,0-0.7-0.1c-0.1-0.1-0.2-0.2-0.2-0.4c0-0.2,0.2-0.2,0.4-0.2c0.6,0.2,1.2,0,1.7-0.4
					c0.5-0.4,0.7-1,0.6-1.6l-1-5.9c-0.4-2.4,0.4-4.8,2.1-6.5l4.3-4.2c0.5-0.5,0.7-1.2,0.5-1.8c-0.2-0.6-0.8-1.1-1.4-1.2l-5.9-0.9
					c-2.4-0.3-4.5-1.8-5.5-4l-2.6-5.4c-0.4-0.9-1.5-1.3-2.4-0.8c-0.4,0.2-0.6,0.5-0.8,0.8l-2.6,5.4c-1,2.2-3.1,3.7-5.5,4l-5.9,0.9
					c-0.3,0-0.7,0.2-0.9,0.4c-0.1,0.1-0.3,0.1-0.4,0c-0.1-0.1-0.1-0.3,0-0.4c0.3-0.3,0.8-0.5,1.2-0.6l5.9-0.9
					c2.2-0.3,4.1-1.7,5.1-3.7l2.6-5.4c0.6-1.2,2-1.6,3.2-1c0.5,0.2,0.8,0.6,1,1l2.6,5.4c1,2,2.9,3.4,5.1,3.7l5.9,0.9
					c1.3,0.2,2.2,1.4,2,2.6c-0.1,0.5-0.3,1-0.7,1.4l-4.3,4.2c-1.6,1.6-2.3,3.8-2,6l1,5.9c0.1,0.8-0.2,1.7-0.8,2.2
					C355.4,81,354.9,81.2,354.3,81.2z"/>
				<path class="st67" d="M1171.8,22.3l3,6.5c0.3,0.6,0.8,1,1.5,1.1l7.1,1.2c1.1,0.2,1.8,1.3,1.6,2.4c-0.1,0.4-0.3,0.8-0.6,1
					l-5.2,4.9c-0.5,0.5-0.7,1.1-0.6,1.8l1.1,7.1c0.1,1.1-0.7,2.1-1.8,2.2c-0.4,0-0.8,0-1.1-0.2l-6.3-3.5c-0.6-0.3-1.2-0.3-1.8,0
					l-6.4,3.2c-1,0.5-2.2,0-2.7-1c-0.2-0.4-0.2-0.8-0.1-1.2l1.4-7c0.1-0.6-0.1-1.3-0.5-1.8l-5-5.1c-0.8-0.8-0.8-2,0-2.8
					c0.3-0.3,0.7-0.5,1.2-0.6l7.1-0.9c0.7-0.1,1.2-0.5,1.5-1.1l3.3-6.4C1169,20.7,1171.1,20.8,1171.8,22.3z"/>
				<path class="st68" d="M1177.7,49.3c-0.1,0-0.3,0-0.4-0.1l-6.3-3.5c-0.5-0.2-1-0.4-1.5-0.4c-0.5,0-1,0.1-1.5,0.3l-6.4,3.2
					c-0.1,0.1-0.2,0.1-0.4,0.1c-0.2,0-0.4-0.1-0.6-0.3c-0.1-0.2-0.2-0.4-0.2-0.6l1.4-7c0.2-1-0.1-2.1-0.9-2.8l-5-5.1
					c-0.2-0.2-0.3-0.5-0.2-0.8c0.1-0.1,0.2-0.5,0.7-0.5l7.1-0.9c1-0.1,1.9-0.8,2.4-1.7l3.3-6.4c0.1-0.3,0.4-0.4,0.7-0.4
					c0.3,0,0.6,0.2,0.7,0.5l3,6.5c0.4,1,1.3,1.7,2.4,1.8l7.1,1.2c0.3,0,0.5,0.2,0.6,0.5c0.1,0.3,0,0.6-0.2,0.8l-5.2,4.9
					c-0.8,0.7-1.1,1.8-1,2.8l1.1,7.1c0.1,0.2,0,0.5-0.2,0.6C1178.1,49.2,1177.9,49.3,1177.7,49.3z"/>
				<path class="st67" d="M1162.9,39.3c-0.1,0-0.2,0-0.2-0.1c-0.2-0.6-0.5-1.2-1-1.7l-1.9-2c-0.1-0.1-0.1-0.2,0-0.2s0.2-0.1,0.2,0
					l1.9,2C1162.4,37.8,1162.8,38.5,1162.9,39.3C1163.1,39.1,1163.1,39.2,1162.9,39.3z"/>
				<path class="st67" d="M1166.6,45.2c-0.1,0-0.1,0-0.2-0.1s0-0.2,0.1-0.2l0.9-0.4c0.7-0.3,1.4-0.5,2.1-0.5c0.7,0,1.5,0.2,2.1,0.6
					c0.1,0,0.1,0.2,0.1,0.2l-0.2,0.1c-1.2-0.6-2.7-0.7-3.9-0.1L1166.6,45.2z"/>
				<path class="st67" d="M1175.4,46.8c-0.1,0-0.3,0-0.4-0.1c-0.1,0-0.2-0.1-0.1-0.2s0.1-0.2,0.2-0.1c0.4,0.1,0.8,0,1.1-0.2
					c0.3-0.2,0.4-0.6,0.4-1l-0.5-3.7c-0.2-1.5,0.3-3,1.4-4l2.7-2.5c0.3-0.3,0.4-0.7,0.3-1.1c-0.1-0.4-0.5-0.7-0.9-0.8l-3.7-0.6
					c-1.5-0.2-2.8-1.2-3.4-2.6l-1.6-3.4c-0.3-0.6-1-0.8-1.5-0.5c-0.2,0.1-0.4,0.3-0.5,0.5l-1.7,3.3c-0.7,1.3-2,2.2-3.5,2.4l-3.7,0.5
					c-0.2,0-0.4,0.1-0.6,0.2c-0.1,0.1-0.1,0.1-0.2,0c0,0,0,0,0,0c-0.1-0.1-0.1-0.2,0-0.2c0.2-0.2,0.5-0.3,0.8-0.3l3.7-0.5
					c1.4-0.2,2.6-1,3.2-2.2l1.7-3.3c0.3-0.5,0.8-0.8,1.3-0.8c0.6,0,1.1,0.3,1.3,0.9l1.6,3.4c0.6,1.2,1.7,2.1,3.1,2.4l3.7,0.6
					c0.6,0.1,1,0.5,1.2,1c0.2,0.5,0,1.1-0.4,1.5l-2.7,2.5c-1,0.9-1.5,2.3-1.3,3.7l0.5,3.7c0.1,0.5-0.1,1-0.5,1.3
					C1176.1,46.7,1175.7,46.8,1175.4,46.8z"/>
				<path class="st69" d="M889.1,77.4L889.1,77.4c-0.1-0.1-0.1-0.2-0.1-0.3c0.2-0.1,0.3-0.3,0.5-0.4c0.1-0.1,0.1-0.1,0.2,0
					c0,0,0,0,0,0v0.2C889.5,77.1,889.3,77.3,889.1,77.4L889.1,77.4z"/>
				<path class="st69" d="M917.4,91.5L917.4,91.5c-0.1,0-0.2-0.1-0.2-0.2v-1.2c0-0.1,0.1-0.2,0.2-0.2s0.2,0.1,0.2,0.2v1.2
					C917.6,91.5,917.5,91.5,917.4,91.5z M917.3,88.3c-0.1,0-0.1-0.1-0.2-0.1c-0.1-0.4-0.1-0.8-0.2-1.2c0-0.1,0-0.2,0.1-0.2
					s0.2,0,0.2,0.1c0.1,0.4,0.2,0.8,0.2,1.2C917.5,88.2,917.4,88.2,917.3,88.3z M916.5,85.1c-0.1,0-0.1,0-0.2-0.1v-0.1
					c-0.1-0.4-0.3-0.7-0.4-1.1c0-0.1,0-0.2,0.1-0.2s0.2,0,0.2,0.1c0.2,0.3,0.3,0.7,0.4,1.1v0.1C916.7,84.9,916.7,85,916.5,85.1z
					 M915.2,82.1L915.2,82.1c-0.2-0.4-0.5-0.8-0.8-1.2v-0.2c0.1-0.1,0.1-0.1,0.2,0c0,0,0,0,0,0c0.3,0.4,0.5,0.7,0.7,1.1
					C915.3,81.9,915.3,82,915.2,82.1L915.2,82.1z M913.3,79.4L913.3,79.4c-0.4-0.4-0.6-0.7-0.9-1c-0.1-0.1-0.1-0.2,0-0.2
					s0.2-0.1,0.2,0l0.9,0.9v0.2L913.3,79.4z M910.9,77.1L910.9,77.1c-0.4-0.2-0.8-0.5-1.1-0.8c-0.1-0.1-0.1-0.2,0-0.2s0.2-0.1,0.2,0
					l1,0.7c0.1,0.1,0.1,0.2,0,0.2S911,77.1,910.9,77.1z M891.3,75.8L891.3,75.8c-0.1-0.1-0.1-0.2-0.1-0.3c0.4-0.2,0.7-0.4,1.1-0.6
					c0.1,0,0.2,0,0.2,0.1s0,0.2-0.1,0.2C892,75.4,891.7,75.6,891.3,75.8L891.3,75.8z M908.2,75.4C908.1,75.4,908.1,75.3,908.2,75.4
					c-0.4-0.2-0.8-0.4-1.2-0.5c-0.1,0-0.1-0.1-0.1-0.2s0.1-0.1,0.2-0.1c0.4,0.1,0.7,0.3,1.1,0.5C908.3,75.1,908.3,75.2,908.2,75.4z
					 M894.2,74.4c-0.1,0-0.1,0-0.2-0.1s0-0.2,0.1-0.2s0.1-0.1,0.2-0.1c0.3-0.1,0.7-0.2,1-0.3c0.1,0,0.2,0,0.2,0.1s0,0.2-0.1,0.2
					c-0.3,0.1-0.7,0.2-1,0.3C894.4,74.4,894.3,74.4,894.2,74.4z M905.1,74.1L905.1,74.1l-1.2-0.3c-0.1,0-0.1-0.1-0.1-0.2
					s0.1-0.1,0.2-0.1l1.2,0.3c0.1,0,0.1,0.1,0.1,0.2S905.2,74.1,905.1,74.1L905.1,74.1z M897.4,73.6c-0.1,0-0.1-0.1-0.2-0.1
					s0-0.2,0.1-0.2c0.4-0.1,0.8-0.1,1.2-0.2c0.1,0,0.1,0,0.2,0.1c0,0,0,0.2-0.1,0.2C898.2,73.5,897.8,73.5,897.4,73.6z M901.9,73.5
					L901.9,73.5c-0.4,0-0.8-0.1-1.2-0.1c-0.1,0-0.2-0.1-0.2-0.2c0-0.1,0.1-0.2,0.2-0.2c0.4,0,0.9,0,1.3,0.1c0.1,0,0.2,0.1,0.1,0.2
					C902.1,73.4,902,73.5,901.9,73.5L901.9,73.5z"/>
				<path class="st69" d="M917.1,94.2L917.1,94.2c-0.1,0-0.2-0.1-0.2-0.2c0-0.2,0.1-0.4,0.1-0.6s0.1-0.1,0.2-0.1s0.1,0.1,0.1,0.2
					C917.3,93.7,917.2,94,917.1,94.2C917.2,94.1,917.2,94.2,917.1,94.2z"/>
				<path class="st69" d="M909.5,105.3L909.5,105.3c-0.1-0.1-0.1-0.2-0.1-0.3c0.2-0.1,0.3-0.2,0.5-0.3c0.1-0.1,0.1-0.1,0.2,0
					c0,0,0,0,0,0v0.2C909.9,105,909.7,105.1,909.5,105.3L909.5,105.3z"/>
				<path class="st69" d="M900.3,108c-0.1,0-0.2-0.1-0.2-0.2c0-0.1,0.1-0.2,0.2-0.2l0,0c0.4,0,0.8,0,1.2-0.1c0.1,0,0.1,0,0.2,0.1
					c0,0,0,0.2-0.1,0.2C901.2,108,900.7,108,900.3,108L900.3,108z M898.3,107.9L898.3,107.9c-0.4-0.1-0.8-0.1-1.2-0.2
					c-0.1,0-0.1-0.1-0.1-0.2s0.1-0.1,0.2-0.1c0.4,0.1,0.8,0.1,1.2,0.2c0.1,0,0.2,0.1,0.1,0.2S898.4,107.9,898.3,107.9z M903.5,107.7
					c-0.1,0-0.1-0.1-0.2-0.1s0-0.2,0.1-0.2l1.2-0.3c0.1,0,0.2,0,0.2,0.1s0,0.2-0.1,0.2C904.3,107.5,903.9,107.6,903.5,107.7z
					 M895.2,107.3L895.2,107.3c-0.4-0.1-0.8-0.3-1.2-0.4c-0.1,0-0.1-0.1-0.1-0.2s0.1-0.1,0.2-0.1c0.4,0.2,0.8,0.3,1.2,0.4
					c0.1,0,0.1,0.1,0.1,0.2C895.3,107.2,895.3,107.2,895.2,107.3z M906.6,106.8c-0.1,0-0.1,0-0.2-0.1s0-0.2,0.1-0.2
					c0.4-0.1,0.7-0.3,1.1-0.5c0.1,0,0.2,0,0.2,0.1s0,0.2-0.1,0.2S907.1,106.6,906.6,106.8z M892.2,106.1L892.2,106.1l-1.2-0.6
					c-0.1-0.1-0.1-0.1,0-0.2s0.1-0.1,0.2-0.1c0.4,0.2,0.7,0.4,1.1,0.6c0.1,0,0.1,0.1,0.1,0.2C892.3,106,892.3,106,892.2,106.1z
					 M889.5,104.3L889.5,104.3c-0.4-0.2-0.7-0.5-1-0.8c-0.1-0.1-0.1-0.2,0-0.2s0.2-0.1,0.2,0c0.3,0.3,0.6,0.5,0.9,0.8
					c0.1,0.1,0.1,0.2,0,0.2H889.5z M887.1,102.1L887.1,102.1c-0.3-0.3-0.6-0.7-0.9-1.1v-0.2h0.2c0.2,0.3,0.5,0.6,0.8,0.9
					c0.1,0.1,0.1,0.1,0,0.2c0,0,0,0,0,0C887.2,102.1,887.2,102.1,887.1,102.1z M885.2,99.5L885.2,99.5c-0.3-0.4-0.5-0.8-0.7-1.2
					c0-0.1,0-0.2,0.1-0.2s0.2,0,0.2,0.1c0.2,0.4,0.4,0.7,0.6,1.1C885.4,99.4,885.4,99.5,885.2,99.5L885.2,99.5z M883.9,96.6
					c-0.1,0-0.1,0-0.2-0.1s0-0.1-0.1-0.2c-0.1-0.3-0.2-0.7-0.3-1c0-0.1,0-0.2,0.1-0.2s0.2,0,0.2,0.1c0.1,0.3,0.2,0.7,0.3,1
					c0,0.1,0,0.1,0.1,0.2S884,96.6,883.9,96.6z M883,93.5c-0.1,0-0.1-0.1-0.2-0.1c-0.1-0.4-0.1-0.8-0.2-1.2c0-0.1,0-0.2,0.1-0.2
					c0.1,0,0.1,0,0.2,0.1c0,0.4,0.1,0.8,0.2,1.2C883.2,93.4,883.2,93.5,883,93.5z M882.8,90.3L882.8,90.3c-0.1,0-0.2-0.1-0.2-0.2
					c0-0.4,0-0.8,0.1-1.2c0-0.1,0.1-0.2,0.2-0.1s0.2,0.1,0.1,0.2C883,89.4,882.9,89.9,882.8,90.3C883,90.2,882.9,90.3,882.8,90.3
					L882.8,90.3z"/>
				<path class="st69" d="M883.2,87.1L883.2,87.1c-0.1,0-0.2-0.1-0.2-0.2c0-0.2,0.1-0.4,0.2-0.6c0-0.1,0.1-0.1,0.2-0.1
					s0.1,0.1,0.1,0.2s-0.1,0.4-0.1,0.6C883.3,87,883.3,87.1,883.2,87.1z"/>
				<path class="st70" d="M887.8,85.7v0.2l1.7,1.8c-0.3,1.2-0.4,2.4-0.3,3.6l-2,1.5c-0.1,0.1-0.1,0.1-0.1,0.2l0.9,2.9
					c0,0.1,0.1,0.2,0.2,0.2l2.5,0.1c0.6,1,1.4,1.9,2.3,2.7l-0.4,2.5c0,0.1,0,0.2,0.1,0.2l2.7,1.4h0.2l1.8-1.7
					c1.2,0.3,2.4,0.4,3.6,0.3l1.5,2c0,0.1,0.2,0.1,0.2,0.1l2.9-0.9c0.1,0,0.2-0.1,0.2-0.2l0.1-2.5c1-0.6,1.9-1.4,2.7-2.3l2.5,0.4
					c0.1,0,0.2,0,0.2-0.1l1.4-2.7v-0.2l-1.8-1.8c0.3-1.2,0.4-2.4,0.3-3.6l2-1.5c0.1-0.1,0.1-0.1,0.1-0.2l-0.9-2.9
					c0-0.1-0.1-0.2-0.2-0.2l-2.5-0.1c-0.6-1-1.4-1.9-2.3-2.7l0.4-2.5c0-0.1,0-0.2-0.1-0.2l-2.7-1.4h-0.2l-1.8,1.8
					c-1.2-0.3-2.4-0.4-3.6-0.3l-1.5-2c0-0.1-0.2-0.1-0.2-0.1l-2.9,0.9c-0.1,0-0.2,0.1-0.2,0.2l-0.1,2.5c-1,0.6-1.9,1.4-2.7,2.3
					l-2.5-0.4c-0.1,0-0.2,0-0.2,0.1L887.8,85.7z"/>
				<path class="st71" d="M900.3,93.4c-1,0-2-0.5-2.5-1.4c-0.4-0.7-0.5-1.5-0.3-2.2c0.2-0.8,0.6-1.4,1.3-1.8
					c0.7-0.4,1.5-0.5,2.2-0.3c0.8,0.2,1.4,0.6,1.8,1.3c0.8,1.4,0.4,3.2-1,4c0,0,0,0,0,0C901.3,93.3,900.8,93.4,900.3,93.4z
					 M900.3,88c-0.5,0-0.9,0.1-1.3,0.4c-0.6,0.3-1,0.9-1.1,1.5c-0.1,0.6,0,1.3,0.3,1.9c0.7,1.2,2.3,1.5,3.4,0.8
					c1.1-0.7,1.5-2.2,0.8-3.4c-0.3-0.6-0.9-0.9-1.5-1.1C900.7,88.1,900.5,88,900.3,88z"/>
				<path class="st71" d="M900.3,98.1c-3.3,0-6.2-2.2-7.2-5.3l0,0c-0.1-0.5-0.2-1-0.3-1.5l0,0v-0.1h0.5c0.1,0.5,0.2,1,0.3,1.5v0.1
					c1.1,3.1,4.1,5.1,7.4,4.8c0.4,0,0.9-0.1,1.3-0.2c0.1,0,0.1,0,0.2-0.1c3-0.9,5-3.7,5-6.8c0-0.7-0.1-1.4-0.3-2.1
					c-1.2-3.7-5.2-5.8-8.9-4.6c-1.2,0.4-2.3,1.1-3.2,2.1l-0.3-0.3c2.8-3.1,7.6-3.4,10.7-0.6c1,0.9,1.8,2.1,2.2,3.3
					c0.2,0.8,0.3,1.5,0.3,2.3c0,3.3-2.2,6.2-5.3,7.2C901.9,98,901.1,98.1,900.3,98.1z"/>
				<path class="st69" d="M859.9,85.8c-0.2,0-0.3-0.1-0.4-0.2c-0.2-0.2-0.1-0.5,0.1-0.7c0,0,0,0,0,0l1.5-1.2
					c0.2-0.2,0.5-0.1,0.7,0.1c0.2,0.2,0.1,0.5-0.1,0.7l-1.5,1.2C860.1,85.8,860,85.8,859.9,85.8z"/>
				<path class="st69" d="M905.3,104.9c-0.2,0-0.5-0.2-0.5-0.4c-0.1-1.2-0.3-2.4-0.6-3.6c-0.1-0.3,0.1-0.5,0.4-0.6s0.5,0.1,0.6,0.4
					c0.3,1.2,0.5,2.5,0.6,3.7C905.9,104.6,905.7,104.9,905.3,104.9z M902.8,95.5c-0.2,0-0.3-0.1-0.4-0.3c-0.5-1.1-1.1-2.2-1.8-3.2
					c-0.2-0.2-0.1-0.5,0.2-0.7s0.5-0.1,0.7,0.2c0.7,1.1,1.3,2.2,1.8,3.3c0.1,0.2,0,0.5-0.2,0.6C903,95.5,902.9,95.5,902.8,95.5z
					 M897.2,87.5c-0.1,0-0.2-0.1-0.3-0.1c-0.9-0.9-1.8-1.7-2.8-2.4c-0.2-0.2-0.2-0.5-0.1-0.7c0.1-0.2,0.5-0.2,0.7-0.1
					c1,0.8,2,1.6,2.9,2.5c0.2,0.2,0.2,0.5,0,0.7c0,0,0,0,0,0C897.5,87.5,897.4,87.5,897.2,87.5z M889.3,82c-0.1,0-0.1,0-0.2-0.1
					c-1.1-0.5-2.2-0.9-3.4-1.3c-0.2-0.1-0.4-0.4-0.3-0.6c0.1-0.2,0.4-0.4,0.6-0.3l0,0c1.2,0.4,2.4,0.8,3.5,1.3
					c0.2,0.1,0.3,0.4,0.2,0.6C889.6,81.9,889.5,82,889.3,82z M866.7,81.7c-0.2,0-0.4-0.1-0.4-0.3c-0.1-0.2,0-0.5,0.2-0.6
					c0.6-0.2,1.2-0.5,1.8-0.7l1.8-0.6c0.2-0.1,0.5,0.1,0.6,0.3s-0.1,0.5-0.3,0.6c-0.6,0.2-1.2,0.3-1.7,0.5c-0.6,0.2-1.2,0.4-1.7,0.7
					C866.8,81.7,866.8,81.7,866.7,81.7z M879.9,79.5L879.9,79.5c-1.3-0.1-2.5-0.1-3.7-0.1c-0.2,0-0.5-0.2-0.5-0.4
					c0-0.3,0.2-0.5,0.5-0.5c1.3-0.1,2.5-0.1,3.8,0.1c0.3,0,0.5,0.2,0.4,0.5C880.3,79.3,880.1,79.5,879.9,79.5z"/>
				<path class="st69" d="M904.9,112.8L904.9,112.8c-0.4-0.1-0.5-0.3-0.5-0.6c0.1-0.6,0.2-1.2,0.3-1.9c0-0.3,0.3-0.4,0.5-0.4
					s0.5,0.3,0.4,0.5c-0.1,0.6-0.2,1.3-0.3,1.9C905.3,112.7,905.1,112.8,904.9,112.8z"/>
				<path class="st69" d="M891.9,131.1c-0.2,0-0.3-0.1-0.4-0.2c-0.1-0.2,0-0.6,0.2-0.7c0.5-0.3,1.1-0.7,1.6-1
					c0.2-0.1,0.5-0.1,0.7,0.1c0.2,0.2,0.1,0.5-0.1,0.7c0,0,0,0,0,0c-0.5,0.4-1.1,0.7-1.6,1.1L891.9,131.1z"/>
				<path class="st69" d="M877,135.1L877,135.1c-1.2,0-2.5-0.1-3.7-0.3c-0.3,0-0.4-0.3-0.4-0.5s0.3-0.4,0.5-0.4
					c1.2,0.2,2.4,0.3,3.6,0.3c0.3,0,0.5,0.2,0.5,0.4c0,0,0,0,0,0.1C877.5,134.9,877.2,135.1,877,135.1z M882.9,134.6
					c-0.2,0-0.4-0.2-0.5-0.4c0-0.3,0.1-0.5,0.4-0.6c1.2-0.2,2.4-0.5,3.5-0.9c0.2-0.1,0.5,0.1,0.6,0.3c0.1,0.2,0,0.5-0.3,0.6
					c0,0,0,0,0,0C885.4,134,884.2,134.3,882.9,134.6L882.9,134.6z M867.7,133.2h-0.2c-1.2-0.4-2.3-1-3.4-1.6
					c-0.2-0.1-0.3-0.4-0.2-0.6c0.2-0.2,0.4-0.3,0.7-0.2c1.1,0.6,2.2,1.1,3.3,1.5c0.2,0.1,0.4,0.4,0.3,0.6
					C868.1,133.1,867.9,133.2,867.7,133.2L867.7,133.2z M859.5,128.3c-0.1,0-0.2,0-0.3-0.1c-0.9-0.8-1.8-1.7-2.7-2.6
					c-0.2-0.2-0.2-0.5,0-0.7s0.5-0.2,0.7,0c0.8,0.9,1.7,1.7,2.6,2.5c0.2,0.2,0.2,0.5,0,0.7c0,0,0,0,0,0
					C859.7,128.2,859.6,128.3,859.5,128.3L859.5,128.3z M853.4,120.9c-0.2,0-0.3-0.1-0.4-0.2c-0.6-1.1-1.1-2.2-1.6-3.4
					c-0.1-0.2,0.1-0.5,0.3-0.6s0.5,0.1,0.6,0.3l0,0c0.5,1.1,1,2.2,1.5,3.2c0.1,0.3,0,0.5-0.2,0.7L853.4,120.9z M850.2,111.9
					c-0.2,0-0.4-0.2-0.5-0.4c-0.2-1.2-0.3-2.5-0.4-3.7c0-0.3,0.2-0.5,0.5-0.5s0.5,0.2,0.5,0.5c0,1.2,0.2,2.4,0.4,3.6
					C850.8,111.6,850.6,111.9,850.2,111.9z"/>
				<path class="st69" d="M850.3,102.3L850.3,102.3c-0.4-0.1-0.5-0.3-0.5-0.6c0.1-0.6,0.2-1.3,0.4-1.9c0.1-0.2,0.4-0.4,0.6-0.3
					s0.4,0.4,0.3,0.6c-0.2,0.6-0.3,1.2-0.4,1.8C850.7,102.1,850.5,102.3,850.3,102.3z"/>
				<path class="st70" d="M857.8,99c-0.1,0.1,0,0.3,0,0.4l2.8,2.9c-0.5,1.9-0.7,3.8-0.5,5.7l-3.3,2.4c-0.1,0.1-0.2,0.2-0.1,0.4
					l1.5,4.7c0,0.1,0.2,0.2,0.3,0.2l4.1,0.1c1,1.7,2.2,3.2,3.7,4.4l-0.6,4c0,0.1,0,0.3,0.2,0.3l4.3,2.2c0.1,0.1,0.3,0.1,0.4,0
					c0,0,0,0,0-0.1l3-2.8c1.9,0.5,3.8,0.7,5.7,0.5l2.4,3.3c0.1,0.1,0.2,0.2,0.4,0.1l4.7-1.5c0.1,0,0.2-0.2,0.2-0.3l0.1-4.1
					c1.7-1,3.2-2.2,4.4-3.7l4,0.6c0.1,0,0.3-0.1,0.3-0.2l2.2-4.3c0.1-0.1,0-0.3,0-0.4l-2.8-2.9c0.5-1.9,0.7-3.8,0.5-5.7l3.3-2.4
					c0.1-0.1,0.2-0.2,0.1-0.4l-1.5-4.7c0-0.1-0.2-0.2-0.3-0.2l-4.1-0.1c-1-1.7-2.2-3.2-3.7-4.4l0.6-4c0-0.1,0-0.3-0.2-0.3l-4.3-2.2
					c-0.1-0.1-0.3-0.1-0.4,0c0,0,0,0,0,0.1l-3,2.8c-1.9-0.5-3.8-0.7-5.7-0.5l-2.4-3.3c-0.1-0.1-0.2-0.2-0.4-0.1L869,87
					c-0.1,0-0.2,0.2-0.2,0.3l-0.1,4.1c-1.7,1-3.2,2.2-4.4,3.7l-4-0.6c-0.1,0-0.3,0.1-0.3,0.2L857.8,99z"/>
				<path class="st71" d="M877.9,111.8c-0.4,0-0.8-0.1-1.2-0.1c-1.3-0.3-2.4-1.1-3.1-2.3c-0.7-1.1-0.9-2.5-0.6-3.8
					c0.3-1.3,1.1-2.4,2.3-3.1c1.1-0.7,2.5-0.9,3.8-0.6c1.3,0.3,2.4,1.1,3.1,2.3c1.5,2.3,0.8,5.4-1.6,6.8c0,0-0.1,0.1-0.1,0.1
					C879.7,111.5,878.8,111.8,877.9,111.8z M877.8,103.1c-0.7,0-1.3,0.2-1.9,0.5c-0.8,0.5-1.4,1.3-1.6,2.2c-0.2,0.9-0.1,1.9,0.4,2.7
					c0.5,0.8,1.3,1.4,2.2,1.6c0.9,0.2,1.9,0.1,2.7-0.4c1.7-1.1,2.2-3.3,1.2-5c-0.5-0.8-1.3-1.4-2.2-1.6L877.8,103.1z"/>
				<path class="st71" d="M877.9,119.2c-2,0-4-0.5-5.8-1.4c-3-1.5-5.2-4.1-6.1-7.3l0,0c0-0.1-0.1-0.2-0.1-0.3
					c-0.2-0.6-0.3-1.3-0.4-1.9l0,0v-0.4l1.4-0.1c0.1,0.8,0.2,1.6,0.5,2.3l0,0c0.1,0.4,0.2,0.8,0.4,1.1l0,0c0.9,2.1,2.4,3.9,4.4,5.1
					l0.6,0.3c2.6,1.4,5.6,1.6,8.4,0.7c2.8-0.9,5.1-2.8,6.5-5.4c0.8-1.6,1.3-3.3,1.3-5.1c0-1.1-0.2-2.2-0.5-3.3
					c-0.9-2.8-2.8-5.1-5.4-6.5c-4.5-2.3-10-1.3-13.3,2.5l-1.1-1c1.5-1.7,3.4-2.9,5.6-3.6c3.1-1,6.6-0.7,9.5,0.8
					c4.1,2.2,6.7,6.4,6.7,11.1c0,2-0.5,4-1.4,5.8c-1.5,3-4.1,5.2-7.3,6.1C880.5,119,879.2,119.2,877.9,119.2z"/>
				<path class="st69" d="M122.7,203.2c-0.2,0-0.3-0.1-0.4-0.2c-0.2-0.2-0.1-0.5,0.1-0.7c0,0,0,0,0,0l1.5-1.2
					c0.2-0.1,0.5-0.1,0.7,0.1c0.2,0.2,0.1,0.5-0.1,0.7c0,0,0,0,0,0c-0.5,0.4-1,0.8-1.5,1.1C122.9,203.1,122.8,203.2,122.7,203.2z"/>
				<path class="st69" d="M168.1,222.2c-0.2,0-0.5-0.2-0.5-0.4c-0.1-1.2-0.3-2.4-0.6-3.6c-0.1-0.3,0.1-0.5,0.4-0.6s0.5,0.1,0.6,0.4
					c0.3,1.2,0.5,2.5,0.6,3.7C168.6,222,168.5,222.2,168.1,222.2L168.1,222.2z M165.6,212.9c-0.2,0-0.3-0.1-0.4-0.3
					c-0.5-1.1-1.1-2.2-1.8-3.2c-0.2-0.2-0.1-0.5,0.2-0.7c0.2-0.1,0.5-0.1,0.7,0.1c0.7,1.1,1.3,2.2,1.8,3.3c0.1,0.2,0,0.5-0.2,0.6
					C165.8,212.9,165.7,212.9,165.6,212.9z M160,205c-0.1,0-0.2-0.1-0.3-0.1c-0.9-0.9-1.8-1.7-2.8-2.4c-0.2-0.2-0.3-0.5-0.1-0.7
					c0.2-0.2,0.5-0.3,0.7-0.1l0,0c1,0.8,2,1.6,2.9,2.5c0.2,0.2,0.2,0.5,0,0.7c0,0,0,0,0,0C160.3,204.9,160.2,205,160,205z
					 M152.1,199.4c-0.1,0-0.1,0-0.2-0.1c-1.1-0.5-2.2-0.9-3.4-1.3c-0.2-0.1-0.4-0.4-0.3-0.6c0.1-0.2,0.4-0.4,0.6-0.3
					c1.2,0.4,2.4,0.8,3.5,1.4c0.2,0.1,0.3,0.4,0.2,0.6C152.4,199.3,152.3,199.4,152.1,199.4L152.1,199.4z M129.5,199.1
					c-0.2,0-0.4-0.1-0.4-0.3c-0.1-0.2,0-0.5,0.2-0.6c0.6-0.2,1.2-0.5,1.8-0.7l1.8-0.6c0.2-0.1,0.5,0.1,0.6,0.3s-0.1,0.5-0.3,0.6
					c-0.6,0.2-1.2,0.3-1.7,0.5c-0.6,0.2-1.2,0.4-1.7,0.7C129.7,199,129.6,199,129.5,199.1L129.5,199.1z M142.7,197L142.7,197
					c-1.3-0.1-2.5-0.1-3.7-0.1c-0.2,0-0.5-0.2-0.5-0.4c0-0.3,0.2-0.5,0.4-0.5c0,0,0,0,0.1,0c1.3-0.1,2.5-0.1,3.8,0.1
					c0.3,0,0.5,0.2,0.4,0.5C143.1,196.8,142.9,197,142.7,197L142.7,197z"/>
				<path class="st69" d="M167.7,230.2L167.7,230.2c-0.4-0.1-0.5-0.3-0.5-0.6c0.1-0.6,0.2-1.2,0.3-1.9c0-0.3,0.3-0.5,0.5-0.4
					s0.5,0.3,0.4,0.5c-0.1,0.6-0.2,1.3-0.3,1.9C168.2,230,168,230.2,167.7,230.2z"/>
				<path class="st69" d="M154.7,248.6c-0.2,0-0.3-0.1-0.4-0.2c-0.1-0.2,0-0.6,0.2-0.7c0.5-0.3,1.1-0.7,1.6-1
					c0.2-0.1,0.5-0.1,0.7,0.1c0.2,0.2,0.1,0.5-0.1,0.7c0,0,0,0,0,0c-0.5,0.4-1.1,0.7-1.6,1.1L154.7,248.6z"/>
				<path class="st69" d="M139.8,252.4L139.8,252.4c-1.2,0-2.5-0.1-3.7-0.3c-0.3,0-0.4-0.3-0.4-0.5s0.3-0.4,0.5-0.4
					c1.2,0.2,2.4,0.3,3.6,0.3c0.3,0,0.5,0.2,0.5,0.4c0,0,0,0,0,0.1C140.3,252.3,140.1,252.5,139.8,252.4z M145.7,251.9
					c-0.2,0-0.4-0.2-0.5-0.4c0-0.3,0.1-0.5,0.4-0.6c1.2-0.2,2.4-0.5,3.5-0.9c0.2-0.1,0.5,0.1,0.6,0.3c0.1,0.2-0.1,0.5-0.3,0.6
					C148.2,251.4,147,251.7,145.7,251.9z M130.4,250.6h-0.2c-1.2-0.5-2.3-1-3.4-1.6c-0.2-0.1-0.3-0.4-0.2-0.6
					c0.2-0.2,0.4-0.3,0.7-0.2c1.1,0.6,2.2,1.1,3.3,1.5c0.2,0.1,0.4,0.4,0.3,0.6C130.8,250.5,130.6,250.6,130.4,250.6z M122.2,245.8
					c-0.1,0-0.2,0-0.3-0.1c-0.9-0.8-1.8-1.7-2.7-2.6c-0.2-0.2-0.2-0.5,0-0.7s0.5-0.2,0.7,0c0.8,0.9,1.7,1.7,2.6,2.5
					c0.2,0.2,0.2,0.5,0,0.7c0,0,0,0,0,0C122.5,245.6,122.4,245.8,122.2,245.8z M116.2,238.4c-0.2,0-0.3-0.1-0.4-0.2
					c-0.6-1.1-1.1-2.2-1.6-3.4c-0.1-0.2,0-0.5,0.3-0.6c0,0,0,0,0,0c0.2-0.1,0.5,0,0.6,0.2c0,0,0,0.1,0,0.1c0.5,1.1,1,2.2,1.5,3.2
					c0.1,0.2,0,0.5-0.2,0.6C116.3,238.2,116.3,238.4,116.2,238.4z M113,229.4c-0.2,0-0.4-0.2-0.5-0.4c-0.2-1.2-0.3-2.5-0.4-3.7
					c0-0.3,0.2-0.5,0.5-0.5s0.5,0.2,0.5,0.5c0,1.2,0.2,2.4,0.4,3.6C113.5,229.1,113.4,229.3,113,229.4L113,229.4z"/>
				<path class="st69" d="M113,219.8L113,219.8c-0.4-0.1-0.5-0.3-0.5-0.6c0.1-0.6,0.2-1.3,0.4-1.9c0.1-0.3,0.3-0.4,0.6-0.4
					c0.2,0,0.4,0.3,0.3,0.5c0,0,0,0.1,0,0.1c-0.2,0.6-0.3,1.2-0.4,1.8C113.5,219.6,113.3,219.8,113,219.8z"/>
				<path class="st70" d="M120.5,216.4c-0.1,0.1,0,0.3,0,0.4l2.8,2.9c-0.5,1.9-0.7,3.8-0.5,5.7l-3.3,2.4c-0.1,0.1-0.2,0.2-0.1,0.4
					l1.5,4.6c0,0.1,0.2,0.2,0.3,0.2l4.1,0.1c1,1.7,2.2,3.2,3.7,4.4l-0.6,4c0,0.2,0.1,0.3,0.2,0.4l4.3,2.2c0.1,0.1,0.3,0,0.4,0l3-2.8
					c1.9,0.5,3.8,0.6,5.7,0.5l2.4,3.3c0.1,0.1,0.2,0.2,0.4,0.1l4.7-1.5c0.1,0,0.2-0.2,0.2-0.3l0.1-4.1c1.7-1,3.2-2.2,4.4-3.7l4,0.6
					c0.1,0,0.3,0,0.3-0.2l2.2-4.3c0.1-0.1,0-0.3,0-0.4l-2.8-3c0.5-1.9,0.7-3.8,0.5-5.7l3.3-2.4c0.1-0.1,0.2-0.2,0.1-0.4l-1.5-4.6
					c0-0.1-0.2-0.2-0.3-0.2l-4.1-0.1c-1-1.7-2.2-3.2-3.7-4.4l0.6-4c0-0.2-0.1-0.3-0.2-0.4l-4.3-2.2c-0.1-0.1-0.3-0.1-0.4,0
					c0,0,0,0,0,0.1l-3,2.8c-1.9-0.5-3.8-0.6-5.7-0.5l-2.4-3.3c-0.1-0.1-0.2-0.2-0.4-0.1l-4.7,1.5c-0.1,0-0.2,0.2-0.2,0.3l-0.1,4.1
					c-1.7,1-3.2,2.2-4.4,3.7l-4-0.6c-0.1,0-0.3,0.1-0.3,0.2L120.5,216.4z"/>
				<path class="st71" d="M140.6,229.1c-0.4,0-0.8,0-1.2-0.1c-1.3-0.3-2.4-1.1-3.1-2.3c-0.7-1.1-0.9-2.5-0.6-3.8
					c0.3-1.3,1.1-2.4,2.3-3.1c1.1-0.7,2.5-0.9,3.8-0.6c1.3,0.3,2.4,1.1,3.1,2.3c1.5,2.3,0.8,5.4-1.6,6.8c0,0-0.1,0.1-0.1,0.1
					C142.5,228.9,141.5,229.2,140.6,229.1z M140.6,220.5c-0.7,0-1.3,0.2-1.9,0.5c-0.8,0.5-1.4,1.3-1.6,2.2c-0.2,0.9-0.1,1.9,0.4,2.7
					c0.5,0.8,1.3,1.4,2.2,1.6c0.9,0.2,1.9,0.1,2.7-0.4c1.7-1.1,2.2-3.3,1.2-5c-0.5-0.8-1.3-1.4-2.2-1.6H140.6z"/>
				<path class="st71" d="M140.7,236.6c-2,0-4-0.5-5.8-1.4c-3-1.5-5.2-4.1-6.1-7.3l0,0c0-0.1-0.1-0.2-0.1-0.3
					c-0.2-0.6-0.3-1.3-0.4-1.9l0,0v-0.4l1.4-0.1c0.1,0.8,0.2,1.6,0.5,2.3l0,0c0.1,0.4,0.2,0.7,0.4,1l0,0c0.9,2.1,2.4,3.9,4.4,5.1
					l0.6,0.3c2.6,1.4,5.6,1.6,8.4,0.7c2.8-0.9,5.1-2.8,6.5-5.4c0.8-1.6,1.3-3.3,1.3-5.1c0-1.1-0.2-2.2-0.5-3.3
					c-0.9-2.8-2.8-5.1-5.4-6.5c-4.5-2.3-10-1.3-13.3,2.5l-1.1-1c1.5-1.7,3.4-2.9,5.6-3.6c3.1-1,6.6-0.7,9.5,0.8
					c2.9,1.5,5.1,4.1,6.1,7.3c0.4,1.2,0.6,2.5,0.6,3.8c0,2-0.5,4-1.4,5.8c-1.5,3-4.1,5.2-7.3,6.1
					C143.4,236.4,142.1,236.6,140.7,236.6z"/>
				<path class="st69" d="M104.1,177.2c-0.2,0-0.3-0.1-0.4-0.2c-0.2-0.2-0.1-0.5,0.1-0.7c0,0,0,0,0,0l1.5-1.2
					c0.2-0.1,0.5-0.1,0.7,0.1c0.2,0.2,0.1,0.5-0.1,0.7c0,0,0,0,0,0c-0.5,0.4-1,0.8-1.5,1.1C104.3,177.1,104.2,177.2,104.1,177.2z"/>
				<path class="st69" d="M149.6,196.2c-0.2,0-0.5-0.2-0.5-0.4c-0.1-1.2-0.3-2.4-0.6-3.6c-0.1-0.3,0.1-0.5,0.4-0.6s0.5,0.1,0.6,0.4
					c0.3,1.2,0.5,2.5,0.6,3.7C150.1,196,150,196.2,149.6,196.2C149.7,196.3,149.7,196.3,149.6,196.2L149.6,196.2z M147,186.9
					c-0.2,0-0.3-0.1-0.4-0.3c-0.5-1.1-1.1-2.2-1.8-3.2c-0.2-0.2-0.1-0.5,0.2-0.7c0.2-0.1,0.5-0.1,0.7,0.1c0.7,1.1,1.3,2.2,1.8,3.3
					c0.1,0.2,0,0.5-0.2,0.6C147.2,186.9,147.1,186.9,147,186.9L147,186.9z M141.5,179c-0.1,0-0.2-0.1-0.3-0.1
					c-0.9-0.9-1.8-1.7-2.8-2.4c-0.2-0.2-0.3-0.5-0.1-0.7c0.2-0.2,0.5-0.3,0.7-0.1c1,0.8,2,1.6,2.9,2.5c0.2,0.2,0.2,0.5,0,0.7
					c0,0,0,0,0,0C141.7,178.9,141.6,179,141.5,179L141.5,179z M133.5,173.4c-0.1,0-0.1,0-0.2-0.1c-1.1-0.5-2.2-0.9-3.4-1.3
					c-0.2-0.1-0.4-0.4-0.3-0.6c0.1-0.2,0.4-0.4,0.6-0.3c1.2,0.4,2.4,0.8,3.5,1.4c0.2,0.1,0.3,0.4,0.2,0.6
					C133.8,173.2,133.7,173.4,133.5,173.4z M110.9,173.1c-0.2,0-0.4-0.1-0.4-0.3c-0.1-0.2,0-0.5,0.2-0.6c0.6-0.2,1.2-0.5,1.8-0.7
					l1.8-0.6c0.2-0.1,0.5,0.1,0.6,0.3s-0.1,0.5-0.3,0.6c-0.6,0.2-1.2,0.3-1.7,0.5c-0.6,0.2-1.2,0.4-1.7,0.7
					C111,173.1,111,173.1,110.9,173.1z M124.1,170.9L124.1,170.9c-1.3-0.1-2.5-0.1-3.7-0.1c-0.2,0-0.5-0.2-0.5-0.4
					c0-0.3,0.2-0.5,0.4-0.5c0,0,0,0,0.1,0c1.3-0.1,2.5-0.1,3.8,0.1c0.3,0,0.5,0.2,0.4,0.5C124.6,170.8,124.4,171,124.1,170.9
					L124.1,170.9z"/>
				<path class="st69" d="M149.1,204.2L149.1,204.2c-0.4-0.1-0.5-0.3-0.5-0.6c0.1-0.6,0.2-1.2,0.3-1.9c0-0.3,0.3-0.4,0.5-0.4
					s0.5,0.3,0.4,0.5c-0.1,0.6-0.2,1.3-0.3,1.9C149.6,204,149.4,204.2,149.1,204.2z"/>
				<path class="st69" d="M136.1,222.6c-0.2,0-0.3-0.1-0.4-0.2c-0.1-0.2,0-0.6,0.2-0.7c0.5-0.3,1.1-0.7,1.6-1
					c0.2-0.1,0.5-0.1,0.7,0.1c0.2,0.2,0.1,0.5-0.1,0.7c0,0,0,0,0,0c-0.5,0.4-1.1,0.7-1.6,1.1L136.1,222.6z"/>
				<path class="st69" d="M121.2,226.4L121.2,226.4c-1.2,0-2.5-0.1-3.7-0.3c-0.3,0-0.4-0.3-0.4-0.5s0.3-0.4,0.5-0.4
					c1.2,0.2,2.4,0.3,3.6,0.3c0.3,0,0.5,0.2,0.5,0.4c0,0,0,0,0,0.1C121.7,226.3,121.5,226.5,121.2,226.4z M127.1,225.9
					c-0.2,0-0.4-0.2-0.5-0.4c0-0.3,0.1-0.5,0.4-0.6c1.2-0.2,2.4-0.5,3.5-0.9c0.2-0.1,0.5,0.1,0.6,0.3c0.1,0.2-0.1,0.5-0.3,0.6
					C129.6,225.3,128.4,225.6,127.1,225.9z M111.9,224.6h-0.2c-1.2-0.5-2.3-1-3.4-1.6c-0.2-0.1-0.3-0.4-0.2-0.6
					c0.2-0.2,0.4-0.3,0.7-0.2c1.1,0.6,2.2,1.1,3.3,1.5c0.2,0.1,0.4,0.4,0.3,0.6S112,224.6,111.9,224.6z M103.7,219.6
					c-0.1,0-0.2,0-0.3-0.1c-0.9-0.8-1.8-1.7-2.7-2.6c-0.2-0.2-0.2-0.5,0-0.7s0.5-0.2,0.7,0l0,0c0.8,0.9,1.7,1.7,2.6,2.5
					c0.2,0.2,0.2,0.5,0,0.7c0,0,0,0,0,0C103.9,219.6,103.8,219.6,103.7,219.6z M97.6,212.3c-0.2,0-0.3-0.1-0.4-0.2
					c-0.6-1.1-1.1-2.2-1.6-3.4c-0.1-0.2,0.1-0.5,0.3-0.6c0.2-0.1,0.5,0.1,0.6,0.3c0.5,1.1,1,2.2,1.5,3.2c0.1,0.2,0,0.5-0.2,0.6
					C97.8,212.3,97.7,212.3,97.6,212.3L97.6,212.3z M94.4,203.2c-0.2,0-0.4-0.2-0.5-0.4c-0.2-1.2-0.3-2.5-0.4-3.7
					c0-0.3,0.2-0.5,0.5-0.5s0.5,0.2,0.5,0.5c0,1.2,0.2,2.4,0.4,3.6C95,203.1,94.8,203.2,94.4,203.2L94.4,203.2z"/>
				<path class="st69" d="M94.5,193.8L94.5,193.8c-0.4-0.1-0.5-0.3-0.5-0.6c0.1-0.6,0.2-1.3,0.4-1.9c0.1-0.3,0.3-0.4,0.6-0.4
					c0.2,0,0.4,0.3,0.3,0.5c0,0,0,0.1,0,0.1c-0.2,0.6-0.3,1.2-0.4,1.8C95,193.5,94.8,193.7,94.5,193.8z"/>
				<path class="st70" d="M102,190.4c-0.1,0.1,0,0.3,0,0.4l2.8,2.9c-0.5,1.9-0.7,3.8-0.5,5.7l-3.3,2.4c-0.1,0.1-0.2,0.2-0.1,0.4
					l1.5,4.6c0,0.1,0.2,0.2,0.3,0.2l4.1,0.1c1,1.7,2.2,3.2,3.7,4.4l-0.6,4c0,0.2,0.1,0.3,0.2,0.4l4.3,2.2c0.1,0.1,0.3,0.1,0.4,0
					c0,0,0,0,0-0.1l3-2.8c1.9,0.5,3.8,0.6,5.7,0.5l2.4,3.3c0.1,0.1,0.2,0.2,0.4,0.1l4.7-1.5c0.1,0,0.2-0.2,0.2-0.3l0.1-4.1
					c1.7-1,3.2-2.2,4.4-3.7l4,0.6c0.1,0,0.3-0.1,0.3-0.2l2.2-4.3c0.1-0.1,0-0.3,0-0.4l-2.8-2.9c0.5-1.9,0.7-3.8,0.5-5.7l3.3-2.4
					c0.1-0.1,0.2-0.2,0.1-0.4l-1.5-4.6c0-0.1-0.2-0.2-0.3-0.2l-4.1-0.1c-1-1.7-2.2-3.2-3.7-4.4l0.6-4c0-0.2-0.1-0.3-0.2-0.4
					l-4.3-2.2c-0.1-0.1-0.3-0.1-0.4,0c0,0,0,0,0,0.1l-3,2.8c-1.9-0.5-3.8-0.6-5.7-0.5l-2.4-3.3c-0.1-0.1-0.2-0.2-0.4-0.1l-4.7,1.5
					c-0.1,0-0.2,0.2-0.2,0.3l-0.1,4.1c-1.7,1-3.2,2.2-4.4,3.7l-4-0.6c-0.1,0-0.3,0.1-0.3,0.2L102,190.4z"/>
				<path class="st71" d="M122.1,203.1c-0.4,0-0.8-0.1-1.2-0.1c-1.3-0.3-2.4-1.1-3.1-2.3c-0.7-1.1-0.9-2.5-0.6-3.8
					c0.3-1.3,1.1-2.4,2.3-3.1c1.1-0.7,2.5-0.9,3.8-0.6c1.3,0.3,2.4,1.1,3.1,2.3c1.5,2.3,0.8,5.4-1.6,6.8c0,0-0.1,0.1-0.1,0.1
					C123.9,202.9,123,203.1,122.1,203.1z M122,194.5c-0.7,0-1.3,0.2-1.9,0.5c-0.8,0.5-1.4,1.3-1.6,2.2c-0.2,0.9-0.1,1.9,0.4,2.7
					c0.5,0.8,1.3,1.4,2.2,1.6c0.9,0.2,1.9,0.1,2.7-0.4c1.7-1.1,2.2-3.3,1.2-5c-0.5-0.8-1.3-1.4-2.2-1.6H122z"/>
				<path class="st71" d="M122.1,210.6c-2,0-4-0.5-5.8-1.4c-3-1.5-5.2-4.1-6.1-7.3l0,0c0-0.1-0.1-0.2-0.1-0.3
					c-0.2-0.6-0.3-1.3-0.4-1.9l0,0v-0.4l1.4-0.1c0.1,0.8,0.2,1.6,0.5,2.3l0,0c0.1,0.4,0.2,0.8,0.4,1.1l0,0c0.9,2.1,2.4,3.9,4.4,5.1
					l0.6,0.3c2.6,1.4,5.6,1.6,8.4,0.7c2.8-0.9,5.1-2.8,6.5-5.4c0.8-1.6,1.3-3.3,1.3-5.1c0-1.1-0.2-2.2-0.5-3.3
					c-0.9-2.8-2.8-5.1-5.4-6.5c-4.5-2.3-10-1.3-13.3,2.5l-1.1-1c1.5-1.7,3.4-2.9,5.6-3.6c3.1-1,6.6-0.7,9.5,0.8
					c2.9,1.5,5.1,4.1,6.1,7.3c0.4,1.2,0.6,2.5,0.6,3.8c0,2-0.5,4-1.4,5.8c-1.5,3-4.1,5.2-7.3,6.1
					C124.7,210.5,123.4,210.6,122.1,210.6z"/>
				<path class="st9" d="M1083.2,296.4h73.6v-14.7h-73.6C1084.8,281.6,1084.8,296.4,1083.2,296.4z"/>
				
					<linearGradient id="SVGID_00000054226015610345596730000003501702363464757683_" gradientUnits="userSpaceOnUse" x1="1080.9399" y1="-779.8004" x2="1162.8407" y2="-779.8004" gradientTransform="matrix(1 0 0 -1 0 -490.8)">
					<stop  offset="0" style="stop-color:#09005D"/>
					<stop  offset="1" style="stop-color:#1A0F91"/>
				</linearGradient>
				<path style="fill:url(#SVGID_00000054226015610345596730000003501702363464757683_);" d="M1156.8,292.7V286
					c0-2.4-1.5-4.3-3.2-4.3h-70c-1.4,0-2.6-1.1-2.6-2.6c0,0,0,0,0,0l0,0c0-0.4,0.3-0.8,0.8-0.8c0,0,0,0,0,0h76.6
					c1.8,0,4.5,2.8,4.5,6.2v9.4c0,3.2-2.7,5.8-4.4,5.8h-76.3c-0.6,0-1.2-0.5-1.2-1.1c0,0,0-0.1,0-0.1c0-1.2,1-2.1,2.2-2.1
					c0,0,0,0,0,0h70.9C1155.6,296.4,1156.8,294.7,1156.8,292.7z"/>
				<path class="st73" d="M1154.8,285h-69c-0.2,0-0.3-0.1-0.3-0.3c0-0.2,0.1-0.3,0.3-0.3h69c0.1,0,0.3,0.1,0.3,0.2c0,0,0,0,0,0.1
					C1155,284.9,1154.9,285,1154.8,285z"/>
				<path class="st73" d="M1154.8,287.1h-69c-0.2,0-0.3-0.1-0.3-0.3c0-0.2,0.1-0.3,0.3-0.3h69c0.2,0,0.3,0.1,0.3,0.3
					C1155.1,287,1154.9,287.1,1154.8,287.1z"/>
				<path class="st73" d="M1154.8,289.3h-69c-0.2,0-0.3-0.1-0.3-0.3c0-0.2,0.1-0.3,0.3-0.3h69c0.2,0,0.3,0.1,0.3,0.3
					C1155.1,289.2,1154.9,289.3,1154.8,289.3z"/>
				<path class="st73" d="M1154.8,291.5h-69c-0.2,0-0.3-0.1-0.3-0.3c0-0.2,0.1-0.3,0.3-0.3h69c0.2,0,0.3,0.1,0.3,0.3
					C1155.1,291.4,1154.9,291.5,1154.8,291.5z"/>
				<path class="st73" d="M1154.8,293.7h-69c-0.2,0-0.3-0.1-0.3-0.3c0-0.2,0.1-0.3,0.3-0.3h69c0.2,0,0.3,0.1,0.3,0.3
					C1155.1,293.6,1154.9,293.7,1154.8,293.7z"/>
				<path class="st73" d="M1093.8,278.2h59.7c1.8,0,3.3-1.5,3.3-3.3v-9.5c0-1.8-1.5-3.3-3.3-3.3h-59.7c-1.8,0-3.3,1.5-3.3,3.3v9.5
					C1090.4,276.7,1091.9,278.2,1093.8,278.2C1093.7,278.2,1093.7,278.2,1093.8,278.2z"/>
				<path class="st9" d="M1142.7,276.4h5.4c0.7,0,1.2-0.5,1.2-1.2v-10c0-0.7-0.5-1.2-1.2-1.2h-5.4c-0.7,0-1.2,0.5-1.2,1.2v10
					C1141.4,275.8,1141.9,276.4,1142.7,276.4C1142.6,276.4,1142.6,276.4,1142.7,276.4z"/>
				<path class="st9" d="M1138,276.4h1.7c0.3,0,0.6-0.3,0.6-0.6v-11.1c0-0.3-0.3-0.6-0.6-0.6h-1.7c-0.3,0-0.6,0.3-0.6,0.6v11.1
					C1137.4,276.1,1137.7,276.4,1138,276.4z"/>
				<polyline class="st4" points="748.7,253.2 746.8,250.9 740.1,242.6 756.9,242.6 783.8,242.6 709.2,303.7 687,303.7 				"/>
				<polygon class="st5" points="783.8,242.6 782.4,249.2 775.1,285.4 766.5,274.9 731.8,303.7 709.2,303.7 				"/>
			</g>
		</g>
	</g>
</g>
</svg>
