<svg xmlns="http://www.w3.org/2000/svg" xmlns:xlink="http://www.w3.org/1999/xlink" viewBox="0 0 1245 318.2"><defs><style>.cls-1{fill:none;}.cls-2{clip-path:url(#clip-path);}.cls-3{fill:url(#radial-gradient);}.cls-4{fill:#fcea10;}.cls-5{fill:#a1c0f7;}.cls-6{fill:#8a9edd;}.cls-7{fill:#7689d6;}.cls-8{fill:url(#linear-gradient);}.cls-9{fill:url(#linear-gradient-2);}.cls-10{fill:url(#linear-gradient-3);}.cls-11{fill:#bdd0fb;}.cls-12{fill:url(#linear-gradient-4);}.cls-13{fill:url(#linear-gradient-5);}.cls-14{fill:url(#linear-gradient-6);}.cls-15{fill:url(#linear-gradient-7);}.cls-16{fill:url(#linear-gradient-8);}.cls-17{fill:url(#linear-gradient-9);}.cls-18{fill:url(#linear-gradient-10);}.cls-19{fill:url(#linear-gradient-11);}.cls-20{fill:url(#linear-gradient-12);}.cls-21{fill:url(#linear-gradient-13);}.cls-22{fill:url(#linear-gradient-14);}.cls-23{fill:url(#linear-gradient-15);}.cls-24{fill:url(#linear-gradient-16);}.cls-25{fill:url(#linear-gradient-17);}.cls-26{fill:url(#linear-gradient-18);}.cls-27{fill:url(#linear-gradient-19);}.cls-28{fill:url(#linear-gradient-20);}.cls-29{fill:#d6d6d6;}.cls-30{fill:#e8e8e8;}.cls-31{fill:#c2c2c2;}.cls-32{fill:url(#linear-gradient-21);}.cls-33{fill:#e6332a;}.cls-34{fill:url(#linear-gradient-22);}.cls-35{fill:#4da8f2;}.cls-36{fill:url(#linear-gradient-23);}.cls-37{fill:url(#linear-gradient-24);}.cls-38{fill:#eea886;}.cls-39{fill:#292c47;}.cls-40{fill:#3d416b;}.cls-41{fill:#cfbeb6;}.cls-42{fill:#fccca2;}.cls-43{fill:#eddad3;}.cls-44{fill:#a77860;}.cls-45{fill:#23263d;}.cls-46{fill:#323657;}.cls-47{fill:#2f4563;}.cls-48{fill:#efaa88;}.cls-49{fill:#db9c7c;}.cls-50{fill:#d44040;}.cls-51{fill:url(#linear-gradient-25);}.cls-52{fill:url(#linear-gradient-26);}.cls-53{fill:url(#linear-gradient-27);}.cls-54{fill:url(#linear-gradient-28);}.cls-55{fill:url(#linear-gradient-29);}.cls-56{fill:url(#linear-gradient-30);}.cls-57{fill:url(#linear-gradient-31);}.cls-58{fill:url(#linear-gradient-32);}.cls-59{fill:url(#linear-gradient-33);}.cls-60{fill:url(#linear-gradient-34);}.cls-61{fill:url(#linear-gradient-35);}.cls-62{fill:url(#linear-gradient-36);}.cls-63{fill:url(#linear-gradient-37);}.cls-64{fill:url(#linear-gradient-38);}.cls-65{fill:url(#linear-gradient-39);}.cls-66{fill:url(#linear-gradient-40);}.cls-67{fill:url(#linear-gradient-41);}.cls-68{fill:url(#linear-gradient-42);}.cls-69{fill:#f9b233;}.cls-70{fill:#f39200;}.cls-71{fill:#e94e1b;}.cls-72{fill:#fff;}.cls-73{fill:#dadada;}.cls-74{fill:url(#linear-gradient-43);}.cls-75{fill:#7d97f4;}</style><clipPath id="clip-path" transform="translate(0 1.4)"><rect class="cls-1" width="1245" height="300"/></clipPath><radialGradient id="radial-gradient" cx="992.38" cy="326.76" r="700.62" gradientTransform="matrix(-0.76, 0.55, -0.47, -0.5, 1894.04, -625.19)" gradientUnits="userSpaceOnUse"><stop offset="0" stop-color="#73d7ff"/><stop offset="1" stop-color="#002bc6"/></radialGradient><linearGradient id="linear-gradient" x1="183.32" y1="829.39" x2="287.54" y2="829.39" gradientTransform="translate(0 -791.89)" gradientUnits="userSpaceOnUse"><stop offset="0" stop-color="#dae3fe"/><stop offset="1" stop-color="#e9effd"/></linearGradient><linearGradient id="linear-gradient-2" x1="564.01" y1="831.44" x2="628.88" y2="831.44" xlink:href="#linear-gradient"/><linearGradient id="linear-gradient-3" x1="263.57" y1="873.39" x2="301.53" y2="873.39" xlink:href="#linear-gradient"/><linearGradient id="linear-gradient-4" x1="957.63" y1="914.29" x2="963.9" y2="914.29" gradientTransform="translate(0 -791.89)" gradientUnits="userSpaceOnUse"><stop offset="0" stop-color="#09005d"/><stop offset="1" stop-color="#1a0f91"/></linearGradient><linearGradient id="linear-gradient-5" x1="981.44" y1="895.99" x2="989.27" y2="895.99" xlink:href="#linear-gradient-4"/><linearGradient id="linear-gradient-6" x1="1024.24" y1="822.59" x2="1041.61" y2="822.59" gradientTransform="translate(0 -791.89)" gradientUnits="userSpaceOnUse"><stop offset="0" stop-color="#ff928e"/><stop offset="1" stop-color="#feb3b1"/></linearGradient><linearGradient id="linear-gradient-7" x1="1022.18" y1="828.73" x2="1002.51" y2="861.49" gradientTransform="translate(0 -791.89)" gradientUnits="userSpaceOnUse"><stop offset="0" stop-color="#4042e2"/><stop offset="1" stop-color="#4f52ff"/></linearGradient><linearGradient id="linear-gradient-8" x1="961.18" y1="907.88" x2="966.86" y2="907.88" xlink:href="#linear-gradient-6"/><linearGradient id="linear-gradient-9" x1="986.55" y1="890.24" x2="992.28" y2="890.24" xlink:href="#linear-gradient-6"/><linearGradient id="linear-gradient-10" x1="1017.95" y1="851.54" x2="980.83" y2="887.44" xlink:href="#linear-gradient-4"/><linearGradient id="linear-gradient-11" x1="998.52" y1="876.74" x2="992.53" y2="881.92" xlink:href="#linear-gradient-7"/><linearGradient id="linear-gradient-12" x1="991.59" y1="877.12" x2="988.38" y2="881.72" xlink:href="#linear-gradient-7"/><linearGradient id="linear-gradient-13" x1="1012.55" y1="845.24" x2="978.97" y2="873.64" xlink:href="#linear-gradient-7"/><linearGradient id="linear-gradient-14" x1="979.83" y1="871.78" x2="991.83" y2="871.78" xlink:href="#linear-gradient-6"/><linearGradient id="linear-gradient-15" x1="974.83" y1="856.76" x2="969.76" y2="863.04" xlink:href="#linear-gradient-7"/><linearGradient id="linear-gradient-16" x1="1012.07" y1="834.71" x2="1006.69" y2="842.56" xlink:href="#linear-gradient-6"/><linearGradient id="linear-gradient-17" x1="-3307.63" y1="-594.14" x2="-3316.68" y2="-582.17" gradientTransform="translate(3710.62 -1963.98) rotate(-46.73)" xlink:href="#linear-gradient-6"/><linearGradient id="linear-gradient-18" x1="-3314.55" y1="-591.26" x2="-3303.74" y2="-591.26" gradientTransform="translate(3710.62 -1963.98) rotate(-46.73)" xlink:href="#linear-gradient-4"/><linearGradient id="linear-gradient-19" x1="-3320.92" y1="-584.7" x2="-3313.66" y2="-592.14" gradientTransform="translate(3710.62 -1963.98) rotate(-46.73)" xlink:href="#linear-gradient-6"/><linearGradient id="linear-gradient-20" x1="1040.39" y1="806.15" x2="1041.01" y2="795.75" xlink:href="#linear-gradient-6"/><linearGradient id="linear-gradient-21" x1="-1126.38" y1="640.35" x2="-1120.22" y2="605.07" gradientTransform="translate(1068.91 -843.88) rotate(-16.78)" xlink:href="#linear-gradient-7"/><linearGradient id="linear-gradient-22" x1="465.91" y1="862.98" x2="477.15" y2="853.8" gradientTransform="translate(0 -790.49)" gradientUnits="userSpaceOnUse"><stop offset="0" stop-color="#ffe9d9"/><stop offset="1" stop-color="#aba69f"/></linearGradient><linearGradient id="linear-gradient-23" x1="1301.82" y1="589.82" x2="1302.03" y2="566.74" gradientTransform="translate(-760.23 -658.87) rotate(7.81)" xlink:href="#linear-gradient-22"/><linearGradient id="linear-gradient-24" x1="1258.61" y1="567.77" x2="1332.86" y2="567.77" gradientTransform="translate(-760.23 -658.87) rotate(7.81)" gradientUnits="userSpaceOnUse"><stop offset="0" stop-color="#ffe9d9"/><stop offset="1" stop-color="#c7c1b9"/></linearGradient><linearGradient id="linear-gradient-25" x1="334.05" y1="933.1" x2="304.94" y2="917.05" xlink:href="#linear-gradient-7"/><linearGradient id="linear-gradient-26" x1="349.2" y1="929.76" x2="313.35" y2="947.12" xlink:href="#linear-gradient-6"/><linearGradient id="linear-gradient-27" x1="349.38" y1="930.14" x2="313.53" y2="947.5" xlink:href="#linear-gradient-6"/><linearGradient id="linear-gradient-28" x1="346.56" y1="929.93" x2="349.07" y2="929.93" xlink:href="#linear-gradient-6"/><linearGradient id="linear-gradient-29" x1="275.94" y1="986.52" x2="281.55" y2="986.52" xlink:href="#linear-gradient-7"/><linearGradient id="linear-gradient-30" x1="276.5" y1="986.26" x2="282.46" y2="986.26" gradientTransform="translate(0 -791.89)" gradientUnits="userSpaceOnUse"><stop offset="0" stop-color="#2b3582"/><stop offset="1" stop-color="#150e42"/></linearGradient><linearGradient id="linear-gradient-31" x1="279.48" y1="980.22" x2="283.87" y2="980.22" xlink:href="#linear-gradient-6"/><linearGradient id="linear-gradient-32" x1="343.63" y1="966.36" x2="352.06" y2="966.36" xlink:href="#linear-gradient-7"/><linearGradient id="linear-gradient-33" x1="341.53" y1="966.29" x2="351.67" y2="966.29" xlink:href="#linear-gradient-30"/><linearGradient id="linear-gradient-34" x1="338.85" y1="965.96" x2="343.67" y2="965.96" xlink:href="#linear-gradient-6"/><linearGradient id="linear-gradient-35" x1="302.38" y1="951.87" x2="292.35" y2="979.61" xlink:href="#linear-gradient-4"/><linearGradient id="linear-gradient-36" x1="345.26" y1="941.9" x2="320.38" y2="956.68" xlink:href="#linear-gradient-4"/><linearGradient id="linear-gradient-37" x1="315.24" y1="924.94" x2="288.77" y2="967.12" xlink:href="#linear-gradient-7"/><linearGradient id="linear-gradient-38" x1="304.82" y1="941.47" x2="283.49" y2="903.75" xlink:href="#linear-gradient-6"/><linearGradient id="linear-gradient-39" x1="320.69" y1="917.12" x2="318.04" y2="926.74" xlink:href="#linear-gradient-6"/><linearGradient id="linear-gradient-40" x1="324.56" y1="912.24" x2="314.77" y2="919.74" xlink:href="#linear-gradient-6"/><linearGradient id="linear-gradient-41" x1="317.7" y1="906.3" x2="326.83" y2="918.05" xlink:href="#linear-gradient-4"/><linearGradient id="linear-gradient-42" x1="323.35" y1="910.66" x2="313.56" y2="918.16" xlink:href="#linear-gradient-6"/><linearGradient id="linear-gradient-43" x1="1080.94" y1="1080.89" x2="1162.84" y2="1080.89" xlink:href="#linear-gradient-4"/></defs><g id="Layer_2" data-name="Layer 2"><g id="Слой_1" data-name="Слой 1"><g class="cls-2"><rect class="cls-3" y="1.4" width="1245" height="300"/><path class="cls-4" d="M419,71.2s-.4-.3-1.2-.8l.2-.4q1.2.75,1.2.9Z" transform="translate(0 1.4)"/><path class="cls-4" d="M392.5,64a27.15,27.15,0,0,0-2.9.1v.4c1-.1,2-.1,2.9-.1Zm3,0v.4a26.42,26.42,0,0,1,2.9.2v-.4A26.42,26.42,0,0,0,395.5,64Zm-8.8.3-2.9.3V65l2.9-.3Zm14.7.2v.4a25,25,0,0,1,2.9.5l.1-.4C403.3,64.8,402.3,64.6,401.4,64.5Zm-20.6.5c-1,.2-1.9.3-2.9.5l.1.4a29.31,29.31,0,0,1,2.9-.5Zm26.3.6-.1.4a22.88,22.88,0,0,1,2.8.8l.1-.3A11.49,11.49,0,0,0,407.1,65.6Zm-32.1.6c-.9.2-1.9.5-2.9.7l.1.3c1-.2,1.9-.5,2.8-.7Zm37.8,1.2-.1.3,2.7,1.2.2-.3C414.6,68.2,413.7,67.8,412.8,67.4Zm-43.4.3c-.9.3-1.9.6-2.8.9l.1.3c1-.3,1.9-.6,2.8-.8Zm-5.7,1.8c-.9.3-1.9.6-2.8.9l.1.3c1-.3,1.9-.6,2.8-.9Zm-5.6,1.8c-.9.3-1.9.6-2.8.9l.1.3c1-.3,1.9-.6,2.8-.9Zm-5.5,1.8-2.8.9.1.3,2.8-.9ZM347,75c-.9.3-1.9.6-2.8.9l.1.3c.9-.3,1.9-.6,2.8-.9Zm-5.6,1.8c-.9.3-1.9.6-2.8.9l.1.3c.9-.3,1.9-.6,2.8-.9Zm-5.6,1.8c-.9.3-1.9.6-2.8.9l.1.3c.9-.3,1.9-.6,2.8-.9Zm-5.6,1.7c-.9.3-1.9.6-2.8.8l.1.3c.9-.3,1.9-.6,2.8-.8ZM324.5,82c-.9.3-1.9.5-2.8.8l.1.3c.9-.3,1.9-.5,2.8-.8Zm-5.6,1.6c-.9.3-1.9.5-2.8.8l.1.4A22.88,22.88,0,0,0,319,84Zm-98.4.7v.4a2.19,2.19,0,0,1,.5.3l.2-.3C221,84.6,220.7,84.4,220.5,84.3Zm92.7.8c-.9.2-1.9.5-2.9.7l.1.4c1-.2,1.9-.5,2.9-.7Zm-89.4.9-.1.3,2.7,1.2.1-.3Zm83.7.5c-1,.2-1.9.4-2.9.7l.1.4c1-.2,1.9-.4,2.9-.7Zm-5.7,1.3-2.9.6.1.4,2.9-.6Zm-72.5.4-.1.3c.9.3,1.9.6,2.8.9l.1-.3C231.1,88.8,230.2,88.5,229.3,88.2ZM296,89l-2.9.6.1.4,2.9-.6Zm-61.1.9-.1.3c.9.2,1.9.5,2.9.7l.1-.4A24.75,24.75,0,0,1,234.9,89.9Zm55.3.2c-1,.2-1.9.3-2.9.5l.1.4c1-.2,1.9-.3,2.9-.5Zm-5.7,1c-1,.1-2,.3-2.9.4v.4c1-.1,2-.3,2.9-.4Zm-43.9.1-.1.4c.9.2,1.9.3,2.9.5l.1-.4C242.5,91.5,241.5,91.4,240.6,91.2Zm38,.6-2.9.3v.4l2.9-.3Zm-32.2.3-.1.4,2.9.3v-.4Zm26.4.3c-1,.1-2,.2-2.9.2V93c1-.1,2-.1,2.9-.2Zm-20.6.3v.4c1,.1,1.9.1,2.9.2v-.4A26.42,26.42,0,0,0,252.2,92.7Zm14.7.1c-1,.1-2,.1-2.9.1v.4c1,0,2-.1,2.9-.1Zm-6.4.1h-2.4v.4H261v-.4Z" transform="translate(0 1.4)"/><polygon class="cls-5" points="251.6 203.9 260.7 215 134.8 318.2 182.8 318.2 261.8 252.7 279.5 238 288.6 249.1 297.8 203.9 251.6 203.9"/><polygon class="cls-6" points="389.2 194.6 238.7 317.6 210.9 317.6 345.1 207.9 334.3 194.7 389.2 194.6"/><polygon class="cls-7" points="389.2 194.6 381.6 232 378.3 248.4 371.6 240.2 367.5 235.2 267.9 317.6 238.7 317.6 389.2 194.6"/><polygon class="cls-6" points="517.5 230.6 404.1 317.6 383.2 317.6 484.2 240 476.1 230.6 517.5 230.6"/><polygon class="cls-7" points="517.5 230.6 511.8 257 509.3 268.6 504.2 262.8 501.1 259.3 426.1 317.6 404.1 317.6 517.5 230.6"/><polygon class="cls-5" points="917.4 130.9 933.2 150.2 877 196.2 864.8 206.2 749.2 300.9 831.8 300.9 912.6 234 965.8 190 981.5 209.2 997.4 130.8 917.4 130.9"/><polygon class="cls-6" points="1083.7 159.8 911.3 300.9 900.4 300.9 1066.1 165.1 1065.2 164 1061.8 159.9 1070.2 159.8 1083.7 159.8"/><polygon class="cls-7" points="1083.7 159.8 1083 163.1 1079.3 181.2 1075 176 924.3 300.9 911.3 300.9 1083.7 159.8"/><polygon class="cls-6" points="425.4 252.2 345.5 317.6 321.8 317.6 387.9 263.5 385.9 261.1 378.6 252.3 396.6 252.3 425.4 252.2"/><polygon class="cls-7" points="425 252.2 423.6 259.3 415.7 298 406.5 286.8 369.3 317.6 345.1 317.6 425 252.2"/><polygon class="cls-6" points="1105.7 201.5 983 301.9 959 301.9 1067.5 212.9 1059.5 203.1 1058.2 201.5 1061.4 201.5 1097.7 201.5 1105.7 201.5"/><polygon class="cls-7" points="1105.7 201.5 1096.3 248 1086.9 236.6 1008.1 301.9 983 301.9 1105.7 201.5"/><g id="_1" data-name="1"><path class="cls-8" d="M210.5,20.7A26.45,26.45,0,0,1,232,32c8.5-5.5,22.1-4.5,29.4,2.2,8.4-10.9,31.5.5,25,20.1H183.7C180.9,37.3,193.9,20.5,210.5,20.7Z" transform="translate(0 1.4)"/><path class="cls-9" d="M612,29.1a16.67,16.67,0,0,0-13.4,7c-5.3-3.4-13.8-2.8-18.3,1.4-5.2-6.8-19.6.3-15.6,12.5h63.9C630.5,39.4,622.4,29,612,29.1Z" transform="translate(0 1.4)"/><path class="cls-10" d="M291.6,75.4a9.57,9.57,0,0,0-7.8,4.1,9.52,9.52,0,0,0-10.7.8c-3.1-3.9-11.5.2-9.1,7.3h37.4C302.4,81.4,297.6,75.3,291.6,75.4Z" transform="translate(0 1.4)"/></g><path class="cls-11" d="M958.4,118.9a5.57,5.57,0,0,1,.8-2.4c-.8.3-1.2.9-1.3,2.6-.2,2-.6,7.3-.8,8.5a2.19,2.19,0,0,0,.8,2.1c.1.1.3.1.5-.1a3.71,3.71,0,0,1-.8-1.7C957.5,127,958.2,121.5,958.4,118.9Z" transform="translate(0 1.4)"/><path class="cls-12" d="M963.8,117.3l-1.5-1.9a11.12,11.12,0,0,1-2.6.9,4.33,4.33,0,0,0-.5.1,3.79,3.79,0,0,0-.8,2.4c-.2,2.6-.9,8.2-.7,8.9a3.71,3.71,0,0,0,.8,1.7,5.61,5.61,0,0,0,1.5-2.2,74.87,74.87,0,0,0,3.6-6.9A6.6,6.6,0,0,0,963.8,117.3Z" transform="translate(0 1.4)"/><path class="cls-11" d="M983.6,100.2a6.08,6.08,0,0,1,1.2-2.3c-.9.1-1.3.7-1.8,2.3-.6,1.9-1.8,7.1-2.2,8.3a2.31,2.31,0,0,0,.4,2.2c.1.2.3.1.6,0a3.52,3.52,0,0,1-.5-1.8C981.4,108.1,983,102.7,983.6,100.2Z" transform="translate(0 1.4)"/><path class="cls-13" d="M989.3,99.6l-1.1-2.1a12.86,12.86,0,0,1-2.8.4h-.5a4.18,4.18,0,0,0-1.2,2.3c-.6,2.6-2.2,7.9-2.2,8.7a3.29,3.29,0,0,0,.5,1.8,8.44,8.44,0,0,0,1.9-1.9c.9-1.2,3.9-4.8,4.7-6.2A6,6,0,0,0,989.3,99.6Z" transform="translate(0 1.4)"/><path class="cls-14" d="M1024.4,36l11.5-9c.1,0,.1-.1.2-.2l1.2-4a.22.22,0,0,1,.2-.2l.8-.5c.1,0,.2-.1.3,0l2.5.2a.43.43,0,0,1,.4.4l.2,1.1a.37.37,0,0,1-.1.3l-.3.5a.45.45,0,0,0,0,.5h0c.1.2.1.4-.1.5a7.86,7.86,0,0,1-3.1,2.2c-.1,0-.1.1-.2.1l-10.3,11.3a.38.38,0,0,1-.6,0l-2.5-2.5A.43.43,0,0,1,1024.4,36Z" transform="translate(0 1.4)"/><path class="cls-15" d="M1007.5,49.8l16.4-13.7a.78.78,0,0,1,1.1,0,12.81,12.81,0,0,1,2.4,2.7.91.91,0,0,1-.2,1.1l-17,16.2Z" transform="translate(0 1.4)"/><path class="cls-16" d="M963.8,112.7c-.2.3-2.1,3.7-2.5,4.4a.6.6,0,0,0-.1.4,1.67,1.67,0,0,0,.8,1.6,1.19,1.19,0,0,0,1.5-.2l3.4-4.4Z" transform="translate(0 1.4)"/><path class="cls-17" d="M990,95.1c-.3.3-2.7,3.3-3.2,4a.52.52,0,0,0-.2.4,1.76,1.76,0,0,0,.5,1.8,1.09,1.09,0,0,0,1.5,0l3.6-4.2Z" transform="translate(0 1.4)"/><path class="cls-18" d="M994.6,79.1c0-.9,5.4-.6,10.1-1.2a2.64,2.64,0,0,1,2.2,4.5L992.6,97.1a1.31,1.31,0,0,1-1.2.3,6.1,6.1,0,0,1-2.1-1.1,1.06,1.06,0,0,1-.2-1.4l6.6-9.3-6,1.7L967,115.5a1.12,1.12,0,0,1-1.5.3,9.16,9.16,0,0,1-2.2-1.8,1.23,1.23,0,0,1-.1-1.3c2.5-3.8,16.1-24.7,16.8-26.9.7-2.4,3.3-6.8,5.8-6.9S994.6,79.1,994.6,79.1Z" transform="translate(0 1.4)"/><path class="cls-19" d="M996.1,85.5c-.1,0-.1-.1-.2-.1s0-.2.1-.2l5.4-1.4c.1,0,.2,0,.2.1s0,.2-.1.2l-5.4,1.4Z" transform="translate(0 1.4)"/><path class="cls-20" d="M990.3,87h0c-.2-.1-.2-.2-.1-.2l1.3-1.5c.1-.1.2-.1.2,0s.1.2,0,.2L990.4,87Z" transform="translate(0 1.4)"/><path class="cls-21" d="M1010.2,49.5a10.64,10.64,0,0,1,2.4,7.9,7.89,7.89,0,0,1-1.6,4L996.6,80a2.19,2.19,0,0,1-1.4.8c-2.1.3-7.7.8-11.7-.6a.55.55,0,0,1-.3-.8l13.1-23,7.9-9.2A5.33,5.33,0,0,1,1010.2,49.5Z" transform="translate(0 1.4)"/><path class="cls-11" d="M992.3,73.8c-.1,0-.2,0-.2-.1-.2-.1-.2-.3-.1-.5s12.5-16.8,13.3-18.9c.8-1.8-1-3.2-1.1-3.3s-.2-.3-.1-.5.3-.2.5-.1a3.53,3.53,0,0,1,1.3,4.1c-.9,2.1-12.9,18.3-13.4,19C992.5,73.8,992.4,73.8,992.3,73.8Z" transform="translate(0 1.4)"/><path class="cls-22" d="M987.4,72.2a12.69,12.69,0,0,0,4.4,1.7l-6,7.5s-.9,4.9-1.7,5.5-3,1.1-3.5,0a15.41,15.41,0,0,1-.8-2.3s.4-.6,1,.5V84s.9.4.9,1.2c0,0-.8-3.1.5-4.2a6.13,6.13,0,0,1,1.7-1.2Z" transform="translate(0 1.4)"/><path class="cls-7" d="M965,71.4a.57.57,0,0,0-.4.7,6,6,0,0,0,7,3.5c5.4-1.2,21.9-13.7,25.7-17.2s8.7-7.7,11.1-7.1,1-.8-.7-1.9-2.3-2.8-1-2.5c0,0-3-1-7.6,1.6s-26.5,11-33.8,8.5a.44.44,0,0,0-.6.4c-.3,1.7-.7,6.9,3.6,12.8A9.89,9.89,0,0,1,965,71.4Z" transform="translate(0 1.4)"/><path class="cls-23" d="M968.9,70.4c-.1,0-.2-.1-.3-.2a.44.44,0,0,1,.1-.5,67.57,67.57,0,0,0,6.7-4c.2-.1.4-.1.5.1a.45.45,0,0,1,0,.5c-1.2,1-6.6,3.9-6.8,4.1Z" transform="translate(0 1.4)"/><path class="cls-24" d="M1010.9,40.8l-4.3,6.1a1.06,1.06,0,0,0,.1,1.3,5.39,5.39,0,0,0,2.6,1.7.76.76,0,0,0,.8-.3l2.3-3.5C1012.5,46,1012.9,40.5,1010.9,40.8Z" transform="translate(0 1.4)"/><path class="cls-25" d="M1012.1,35.8c.1.1,3.7,7.1,3.7,7.1l-4,2-4.4-6.2S1010.7,34.4,1012.1,35.8Z" transform="translate(0 1.4)"/><path class="cls-26" d="M1009.2,39.4l2,3.4.1.1c.2.2,1.1.9,1.7,0a4.41,4.41,0,0,1,1.6-1.7.69.69,0,0,1,.9.3,29.67,29.67,0,0,1,1.4,3.3.68.68,0,0,1-.4.8,21,21,0,0,1-3.9,1.1.71.71,0,0,1-.6-.3c-.6-.8-2.4-3.2-3-3.8s-1.6-.3-2-.2a.75.75,0,0,1-.5-.1,1.4,1.4,0,0,1-.5-2.2.65.65,0,0,0-.2-.9,1.36,1.36,0,0,1-.5-2,1.94,1.94,0,0,1,2.2-1.1.67.67,0,0,0,.7-.4c0-.1.2-.2.3-.3.3-.1.6-.4.5-.7a1.72,1.72,0,0,1,.9-1.9c1.8-1,3.3.6,3.7,1.9s-1.6,2.3-2.8,2.4c-.9.1-1.4,1.1-1.6,1.6A.85.85,0,0,0,1009.2,39.4Z" transform="translate(0 1.4)"/><path class="cls-27" d="M1009.8,43.8s-.8-2.3-1.8-2.2-1.8,1.1-.5,2.2C1009,45.2,1009.8,43.8,1009.8,43.8Z" transform="translate(0 1.4)"/><path class="cls-28" d="M1038.8,25.5h0a.1.1,0,0,1-.1-.1s.6-1.1,1.3-.9.7.1.7.1h.1v.1a1.56,1.56,0,0,1-.9-.1c-.5-.1-1,.9-1.1.9Z" transform="translate(0 1.4)"/><polygon class="cls-29" points="278.8 59.3 244.8 80.3 249.9 69.5 278.8 59.3"/><polygon class="cls-30" points="278.8 59.3 258.4 60.3 253.9 68.1 278.8 59.3"/><polygon class="cls-31" points="252.6 75.5 256.1 78.2 278.8 59.3 252.6 75.5"/><polygon class="cls-29" points="853.2 217.3 809.2 215.3 820.6 208.6 853.2 217.3"/><polygon class="cls-30" points="853.2 217.3 834.1 205.6 825.1 209.8 853.2 217.3"/><polygon class="cls-31" points="819.3 215.8 820.8 220.5 853.2 217.3 819.3 215.8"/><path class="cls-32" d="M101.4,67.3a14.16,14.16,0,0,0,.4,2l.6-.1a15.52,15.52,0,0,1-.4-2.1Zm2.5,6.1-.5.3a42.31,42.31,0,0,0,2.4,4l.5-.3C105.4,76,104.6,74.7,103.9,73.4Zm5.3,7.4-.4.4a34.65,34.65,0,0,0,3.4,3.2l.4-.4C111.4,82.9,110.3,81.9,109.2,80.8Zm7.1,5.9-.3.5c1.3.9,2.6,1.7,3.9,2.5l.3-.5A37.26,37.26,0,0,1,116.3,86.7Zm7.9,4.6-.2.5c1.4.6,2.8,1.2,4.3,1.8l.2-.5C127.1,92.5,125.6,91.9,124.2,91.3Zm8.7,3.1-.1.6c1.5.4,3,.8,4.5,1.1l.1-.6C135.8,95.2,134.3,94.8,132.9,94.4Zm78.3-20.2.2.6c1.5-.5,3-.9,4.4-1.3l-.2-.6C214.2,73.3,212.7,73.8,211.2,74.2Zm-4.4,1.5c-1.4.5-2.9,1.1-4.3,1.6l.2.5c1.4-.6,2.9-1.1,4.3-1.6Zm13.3-3.9.1.6c1.5-.4,3-.7,4.5-1l-.1-.6C223.1,71.1,221.6,71.4,220.1,71.8Zm-22,7.3c-1.4.6-2.8,1.2-4.2,1.9l.2.5c1.4-.6,2.8-1.3,4.2-1.9ZM229.2,70l.1.6c1.6-.2,3.1-.4,4.6-.5l-.1-.6C232.3,69.6,230.8,69.8,229.2,70ZM141.9,96.2l-.1.6c1.5.2,3.1.3,4.6.4v-.6C144.9,96.5,143.4,96.4,141.9,96.2Zm47.8-13.3c-1.4.7-2.8,1.4-4.1,2.1l.3.5c1.4-.7,2.8-1.4,4.1-2.1Zm48.7-13.6v.6a41.34,41.34,0,0,1,4.6.2l.1-.6C243,69.5,241.4,69.3,238.4,69.3ZM181.5,87.2a21.16,21.16,0,0,1-2.1,1.1c-.7.4-1.3.7-2,1.1l.3.5a19.83,19.83,0,0,0,2-1.1,21.16,21.16,0,0,1,2.1-1.1Zm-30.4,9.3v.6c1.5-.1,3.1-.2,4.6-.4l-.1-.6A34.19,34.19,0,0,1,151.1,96.5Zm22.2-5.2c-1.4.6-2.9,1.2-4.3,1.7l.2.5c1.4-.5,2.9-1.1,4.3-1.7Zm-13.1,4.2.1.6c1.5-.3,3-.7,4.5-1.1l-.1-.6C163.2,94.8,161.7,95.2,160.2,95.5Z" transform="translate(0 1.4)"/><path class="cls-33" d="M794.5,203.5v.6c1.7,0,3.4.1,5.1.2v-.6C797.9,203.6,796.2,203.5,794.5,203.5Zm-5.1.2c-1.7.1-3.4.3-5.1.5l.1.6c1.7-.2,3.4-.4,5-.5Zm15.3.7-.1.6a19.23,19.23,0,0,1,4.9,1.2l.2-.6A23,23,0,0,0,804.7,204.4Zm-25.4.7-5,1.2.2.6c1.6-.4,3.3-.9,4.9-1.2Z" transform="translate(0 1.4)"/><rect class="cls-34" x="470.9" y="54.2" width="0.4" height="28.1"/><path class="cls-35" d="M471.2,52.8s-2.7-3.4-7.5-.6-7.5,4.7-13,1.9c0,0,3.3,11.2,10.2,7.7s10.3,1,10.3,1v-10Z" transform="translate(0 1.4)"/><polygon class="cls-36" points="483.9 79 420.4 87.7 424.3 70.8 483.9 79"/><polygon class="cls-37" points="424.3 70.8 483.9 79 408.8 80.2 424.3 70.8"/><path class="cls-38" d="M453.5,44.4a6.89,6.89,0,0,1-.3-.8,3.22,3.22,0,0,1,.1-.8c.1-.3.4-.8.5-.8s.1-.1.3,0,.3.2.3.2a.49.49,0,0,1,.3.1.36.36,0,0,1,.3.2.36.36,0,0,1,.3.2s-.1.3,0,.4a11.89,11.89,0,0,1-.4,1.4C454.8,44.5,454.5,45.2,453.5,44.4Z" transform="translate(0 1.4)"/><path class="cls-38" d="M454.8,44.4a2.48,2.48,0,0,1-.9,1.1c-.7.5-.6-.6-.6-.6a3.33,3.33,0,0,0,.3-.6C453.6,44.2,454.8,44.4,454.8,44.4Z" transform="translate(0 1.4)"/><path class="cls-39" d="M450.4,49c.9-.3,4.2-4,4.2-4l-1.2-.7a25.15,25.15,0,0,1-2.7,2.5,7.91,7.91,0,0,1-1.3.4c-.1,0-3.1-.2-3.4-.3a4.49,4.49,0,0,0-1.9-.4,1,1,0,0,0-.9.7c-.1,1.6,2.4,1.6,2.4,1.6S449.2,49.5,450.4,49Z" transform="translate(0 1.4)"/><path class="cls-39" d="M448.3,71.7s.9.5,1.3.7,2,.2,2.1.4.1.6-.1.7a12.12,12.12,0,0,1-2.8.1c-.6-.1-1.8.1-2.1,0s-.1-1.5,0-1.8S448.3,71.7,448.3,71.7Z" transform="translate(0 1.4)"/><path class="cls-40" d="M448.3,71.1v.6a6.66,6.66,0,0,1-1.6.1l.1-.6Z" transform="translate(0 1.4)"/><path class="cls-39" d="M432.6,75.1a11.85,11.85,0,0,0,1.2.8c.4.2,1.9.4,2.1.5s.1.6-.2.6a14,14,0,0,1-2.8-.1,17.86,17.86,0,0,0-2.1-.1c-.2-.1,0-1.5.1-1.8S432.6,75.1,432.6,75.1Z" transform="translate(0 1.4)"/><path class="cls-40" d="M432.7,74.5l-.1.6a4.13,4.13,0,0,1-1.5-.1l.1-.6Z" transform="translate(0 1.4)"/><path class="cls-39" d="M442.4,56.9c-.1.4-.4,1.2-.7,2-.1.2-.1.4-.2.6-.4,1.2-.8,2.2-.8,2.2-.6,1.4-2.1,4.4-2.8,5-1,.7-5.1,8.2-5.1,8.2l-1.9-.2s2-5.6,2.9-6.9,2.5-3.2,2.6-4.7c.1-1,.7-4,.7-4a18.39,18.39,0,0,1,2.2-5.6C439.6,53,442.4,56.9,442.4,56.9Z" transform="translate(0 1.4)"/><path class="cls-39" d="M444.4,56.5a74.65,74.65,0,0,1,5.9,4.7,3.14,3.14,0,0,1,.1,2.5c-.1.4-1.8,6.9-1.8,7.5,0,0-1.6.4-2-.1,0,0,.6-6.2.9-7.4s-1.4-2.1-2.4-2.6-6.2-3-6.1-4l.2-1.4S440.1,55,444.4,56.5Z" transform="translate(0 1.4)"/><path class="cls-41" d="M444.3,46a11,11,0,0,1,.6,2.7,34.21,34.21,0,0,1-1,4.5,8,8,0,0,0,.5,3.3l-5.4,1s-.1-1.6-.1-3.4a15.84,15.84,0,0,1,.8-4.5,8,8,0,0,1,3.4-4.5Z" transform="translate(0 1.4)"/><path class="cls-38" d="M446.8,41.8s.5.9.2,1,.2,1,.3,1.2-.4.2-.5.3-.4,1.2-.7,1.3a4.17,4.17,0,0,1-2.3-1,5,5,0,0,1-.5-3.3C443.6,40.5,445.9,40.2,446.8,41.8Z" transform="translate(0 1.4)"/><path class="cls-38" d="M445.1,45.3a.31.31,0,0,1-.1.2c0,.1,0,.1-.1.2s0,.1-.1.2c-.2.4-.3.9-.4,1.1,0,.5-1.3-1.9-1.3-1.9a18.38,18.38,0,0,0,1-2.9C444.6,40.8,445.1,45.3,445.1,45.3Z" transform="translate(0 1.4)"/><path class="cls-42" d="M446.9,42a1.39,1.39,0,0,0-.4-1.7c-.9-.7-2.6.5-2.8.6s-1.2.1-.7,2a11.69,11.69,0,0,0,.5,1.6l.5-1a2.4,2.4,0,0,1,1-.2s-.3-.8.2-1S446.4,41.8,446.9,42Z" transform="translate(0 1.4)"/><path class="cls-38" d="M444.5,42.8c0-.1-.2-.6-.6-.3s.3,1.2.4,1.2S444.9,43.8,444.5,42.8Z" transform="translate(0 1.4)"/><path class="cls-43" d="M443.3,45a7.26,7.26,0,0,0,1.4,1.8l-.2.9L443,45.2Z" transform="translate(0 1.4)"/><path class="cls-44" d="M445.1,45.3a.31.31,0,0,1-.1.2c0,.1,0,.1-.1.2a3,3,0,0,1-1-1.1A4.11,4.11,0,0,0,445.1,45.3Z" transform="translate(0 1.4)"/><path class="cls-45" d="M444.4,56.5a2.07,2.07,0,0,0-.2-.6l-5.3,1v.7C439,57.6,442.8,56.9,444.4,56.5Z" transform="translate(0 1.4)"/><path class="cls-46" d="M439.1,51.5a13.26,13.26,0,0,1-2.3,6.1c-.3.4,2.9.8,2.9.8Z" transform="translate(0 1.4)"/><rect class="cls-47" x="453.07" y="37.15" width="1" height="12.1" transform="matrix(0.02, -1, 1, 0.02, 400.22, 497.09)"/><rect class="cls-47" x="447.24" y="42.58" width="1.4" height="0.9" transform="matrix(0.02, -1, 1, 0.02, 394.89, 491.3)"/><rect class="cls-47" x="458.12" y="40.96" width="1.8" height="4.7" transform="translate(405.44 502.64) rotate(-88.72)"/><rect class="cls-47" x="461.17" y="41.87" width="2.8" height="3.1" transform="matrix(0.02, -1, 1, 0.02, 408.8, 506.3)"/><path class="cls-48" d="M452.5,42.6v.3a.49.49,0,0,1-.1.3v.1a1.09,1.09,0,0,1-.1.5c-.1.2-.4,1-.4,1l-.7-.2h-.6a7,7,0,0,1-.2-1.6v-.1c.1-.2.2-.3.2-.4a4,4,0,0,1,.3-.4c.1,0,.3,0,.3.1a1.34,1.34,0,0,1,.5.1s.3,0,.4.1S452.4,42.5,452.5,42.6Z" transform="translate(0 1.4)"/><path class="cls-48" d="M451.9,44.8a3.34,3.34,0,0,1-.7,1c-.5.5-.7-.7-.7-.7l.2-.6C450.6,44.6,451.4,44.3,451.9,44.8Z" transform="translate(0 1.4)"/><path class="cls-49" d="M453.8,42.2s-.2.9-.1,1a.14.14,0,0,0,.2,0l.1.4a.28.28,0,0,0,.4,0s.2.2.3,0c0,0,.2.1.3,0a3.09,3.09,0,0,0,.2-.8s-.1-.2-.2-.1a.37.37,0,0,0-.3-.2.22.22,0,0,0-.3-.1.34.34,0,0,0-.6-.2Z" transform="translate(0 1.4)"/><path class="cls-38" d="M453.2,43.6a2,2,0,0,1,.8-.6h.2c.1.1,0,.2-.1.4a1.55,1.55,0,0,0-.3.6S453.6,44.2,453.2,43.6Z" transform="translate(0 1.4)"/><path class="cls-50" d="M444.9,47.3a4.54,4.54,0,0,1,.2.8.56.56,0,0,1-.6,0A1.79,1.79,0,0,1,444.9,47.3Z" transform="translate(0 1.4)"/><path class="cls-50" d="M444.6,48a11.49,11.49,0,0,0-.3,4.3c.4,2.3.6,3.1.6,3.1l.5.6.1-.8a20.1,20.1,0,0,1-.8-5.8V47.9Z" transform="translate(0 1.4)"/><path class="cls-46" d="M444.5,49.5c-.1.3-.2.7-.3,1h0c-.2.7-.4,1.5-.6,2.2-.1.3-.1.5-.2.8a14.67,14.67,0,0,1-2.2,5.2,11.11,11.11,0,0,1-3-.6,37.71,37.71,0,0,1,.9-6.8c.1-.3.1-.5.2-.8h0c.7-2.7,1.9-5.1,3.7-5.3C443,45.2,445.1,47.7,444.5,49.5Z" transform="translate(0 1.4)"/><path class="cls-46" d="M448.6,49.6c1-.2,3.2-4.3,3.2-4.3l-1.4-.8a13.65,13.65,0,0,1-1.5,2.2c-.4.4-1,1.2-1.1,1.2s-2.9-.8-3.2-.9a7.84,7.84,0,0,0-1.8-.8,1,1,0,0,0-1,.5c-.4,1.6,2,2,2,2S447.2,49.8,448.6,49.6Z" transform="translate(0 1.4)"/><path class="cls-51" d="M329.2,131.6l-4.8,7.3c2.2,4.3,4.7,6.7,7.1,7.8a12.94,12.94,0,0,1,3.2-6.3C330.4,138.1,329.2,131.6,329.2,131.6Z" transform="translate(0 1.4)"/><path class="cls-52" d="M345.6,139.2c-4.9,2.9-8.4,2.7-10.8,1.3a14.31,14.31,0,0,0-3.2,6.3c7.8,3.6,15.7-5.5,15.7-5.5Z" transform="translate(0 1.4)"/><path class="cls-53" d="M345.9,140.5a3.44,3.44,0,0,1,.6-4.1s.6-.7,1.3.3c0,0,2-1.9,2.6-1.1s2,2.6.6,4.7S346.6,141.5,345.9,140.5Z" transform="translate(0 1.4)"/><path class="cls-54" d="M347.9,139.5a1.85,1.85,0,0,1-.7-.2,1.32,1.32,0,0,1-.6-1,.55.55,0,0,1,1.1-.1c0,.1,0,.2.1.2h.1l-.3-1.1a.57.57,0,1,1,1.1-.3l.5,1.7a.52.52,0,0,1-.3.7C348.7,139.4,348.3,139.5,347.9,139.5Z" transform="translate(0 1.4)"/><path class="cls-55" d="M276.5,188.5a1.23,1.23,0,0,0-.5,1.3c.4,2.1,1.7,7.6,4.9,10.8a.48.48,0,0,0,.7,0,19,19,0,0,1-3-4.7C276.8,192.2,276.5,189.9,276.5,188.5Z" transform="translate(0 1.4)"/><path class="cls-56" d="M280.6,188.5a4.43,4.43,0,0,0-4.1.1h0c0,1.4.3,3.7,2.1,7.4a19,19,0,0,0,3,4.7c.1-.1.1-.1.1-.2C282.3,198.4,283.5,192.6,280.6,188.5Z" transform="translate(0 1.4)"/><path class="cls-57" d="M283.6,188.6l-1.9,1.8a.91.91,0,0,1-1.2.1,3.16,3.16,0,0,1-1-1.2c-.1-.4-.1-.8.2-1l1.9-2a1,1,0,0,1,1.6.2l.6,1A.94.94,0,0,1,283.6,188.6Z" transform="translate(0 1.4)"/><path class="cls-58" d="M343.6,179.6a1.23,1.23,0,0,0,1.4-.2c1.6-1.4,5.7-5.2,7-9.6a.49.49,0,0,0-.3-.6,18.14,18.14,0,0,1-2.6,4.9C346.7,177.6,344.8,179,343.6,179.6Z" transform="translate(0 1.4)"/><path class="cls-59" d="M341.5,176.1a4.28,4.28,0,0,0,2.1,3.5h0c1.2-.6,3-2.1,5.4-5.5a18.14,18.14,0,0,0,2.6-4.9h-.3C349.3,169.8,343.7,171.5,341.5,176.1Z" transform="translate(0 1.4)"/><path class="cls-60" d="M341.4,172.2l1.9,1.7a1.06,1.06,0,0,1,.2,1.2,1.83,1.83,0,0,1-1.1,1,.9.9,0,0,1-1-.1l-2.2-1.7a1,1,0,0,1,0-1.6l.9-.7A1.53,1.53,0,0,1,341.4,172.2Z" transform="translate(0 1.4)"/><path class="cls-61" d="M302.4,155.1s-3.8,12.9-6.2,18.6a21.73,21.73,0,0,0-6.9,2.2c-2.6,1.6-8.4,10.1-8.4,10.1s1.5,2.8,3.3,3.3L300.4,178l13-15.1-.6-7Z" transform="translate(0 1.4)"/><path class="cls-62" d="M302.7,154.1l-1.1,3.5s1,9.3,12.7,7.7,13.1-3.5,13.1-3.5-1,5.9,11.8,13a8.11,8.11,0,0,0,2.4-3.1l-9-14.8c-1.2-1.9-2.4-2.4-4.7-2.1-5,.8-14.4,1.8-15.9,1.6Z" transform="translate(0 1.4)"/><path class="cls-63" d="M311.8,127.8a21.85,21.85,0,0,0-12.3,5,38,38,0,0,1,3.9,5,10.7,10.7,0,0,1,4.9-2.4,151.13,151.13,0,0,1-6.9,20.3.7.7,0,0,0,.4,1c2.1.7,8.4,2.5,13.5-.3l11.2-16a13.37,13.37,0,0,0,2.3-5.8l.4-2.9C329.2,131.6,319.2,127.4,311.8,127.8Z" transform="translate(0 1.4)"/><path class="cls-64" d="M305.7,152a6.85,6.85,0,0,0-2.9-2.5c-.7-1.4-3.5-7.8.7-11.8a48.87,48.87,0,0,0-3.9-5c-4,3.7-5.5,9.5,1.6,17.6a5.73,5.73,0,0,0,1.5,4.7C302.9,155.2,306.3,153.5,305.7,152Z" transform="translate(0 1.4)"/><path class="cls-65" d="M319.3,123.5l-2.9,5.7a1.07,1.07,0,0,0,.1,1.1,4.61,4.61,0,0,0,5.3,1.1,1.06,1.06,0,0,0,.6-.7l.8-5.2Z" transform="translate(0 1.4)"/><path class="cls-66" d="M324.2,116.9s1.7,3.9,1.8,6,.6,3.4-1.8,3.8a5.16,5.16,0,0,1-5.5-2.8s-1.7-3.2-1.3-4.5S324.2,116.9,324.2,116.9Z" transform="translate(0 1.4)"/><path class="cls-67" d="M319.5,122.4l.1-.1a.4.4,0,0,0,.2-.4c-.3-.7-1-2.1-.1-2.5,1.1-.4,5.4-1.3,6.4-2.9a2.81,2.81,0,0,0-1.1-3.9c-.1,0-.2,0-.2.1l-.1.2c-.1.1-.3.1-.3,0h0c0-.1-.2-.2-.3,0-.3.5-1.1,1.2-3.1,1.6-3,.5-4.9,1.7-5,3.8,0,.1-.1.2-.2.1a.82.82,0,0,0-1,.2c-.8.7-.5,2.4,1.3,3.9a.19.19,0,0,1,0,.3c-.3.2-.8.7.4,1.4a4.64,4.64,0,0,0,2.6.6c.1,0,.1-.1.1-.2l-.4-1.8c0-.1,0-.2.2-.2h.5v-.2Z" transform="translate(0 1.4)"/><path class="cls-68" d="M319.6,122.8s-.6-2.5-1.8-1.8.6,2.8,1.5,2.9Z" transform="translate(0 1.4)"/><path class="cls-69" d="M97.3,23.2l3.8,7.7a2.25,2.25,0,0,0,1.8,1.3l8.4,1.2a2.36,2.36,0,0,1,1.3,4l-6.1,6a2.29,2.29,0,0,0-.7,2.1l1.4,8.4a2.37,2.37,0,0,1-3.4,2.5l-7.6-4a2.17,2.17,0,0,0-2.2,0l-7.6,4A2.35,2.35,0,0,1,83,53.9l1.4-8.4a2.38,2.38,0,0,0-.7-2.1l-6.1-6a2.34,2.34,0,0,1,1.3-4l8.4-1.2a2.42,2.42,0,0,0,1.8-1.3l3.8-7.7A2.47,2.47,0,0,1,97.3,23.2Z" transform="translate(0 1.4)"/><path class="cls-70" d="M105,55.2c-.2,0-.3,0-.4-.1l-7.6-4a3.66,3.66,0,0,0-1.8-.4,5.84,5.84,0,0,0-1.8.4l-7.6,4a.6.6,0,0,1-.4.1.91.91,0,0,1-.7-.3,1,1,0,0,1-.2-.8l1.4-8.4a4,4,0,0,0-1.1-3.4l-6.1-6a.82.82,0,0,1-.2-1,.79.79,0,0,1,.8-.6l8.4-1.2a4.16,4.16,0,0,0,2.9-2.1l3.8-7.7a.82.82,0,0,1,.8-.5.75.75,0,0,1,.8.5l3.8,7.7a4,4,0,0,0,2.9,2.1l8.4,1.2a1.36,1.36,0,0,1,.8.6,1,1,0,0,1-.2,1l-6.1,6a3.86,3.86,0,0,0-1.1,3.4l1.4,8.4a1,1,0,0,1-.2.8A.91.91,0,0,1,105,55.2Z" transform="translate(0 1.4)"/><path class="cls-69" d="M87.2,43.7a.22.22,0,0,1-.2-.2,3.9,3.9,0,0,0-1.3-2l-2.3-2.3a.21.21,0,0,1,.3-.3L86,41.2a6.36,6.36,0,0,1,1.4,2.2c0,.1,0,.2-.2.3Z" transform="translate(0 1.4)"/><path class="cls-69" d="M91.8,50.6c-.1,0-.2,0-.2-.1s0-.2.1-.3l1-.5a5.73,5.73,0,0,1,2.5-.6,5.14,5.14,0,0,1,2.5.6.19.19,0,0,1,.1.3c-.1.1-.2.2-.3.1a4.71,4.71,0,0,0-4.6,0l-1.1.5Z" transform="translate(0 1.4)"/><path class="cls-69" d="M102.3,52.3a.9.9,0,0,1-.5-.1.22.22,0,1,1,.2-.4,1.59,1.59,0,0,0,1.3-.3,1.15,1.15,0,0,0,.4-1.2l-.8-4.4a5.32,5.32,0,0,1,1.6-4.8l3.2-3.1a1.24,1.24,0,0,0,.3-1.4,1.44,1.44,0,0,0-1.1-.9l-4.4-.6a5.55,5.55,0,0,1-4.1-3l-2-4a1.21,1.21,0,0,0-1.2-.7,1.39,1.39,0,0,0-1.2.7l-2,4a5.55,5.55,0,0,1-4.1,3l-4.4.6a1.49,1.49,0,0,0-.7.3.21.21,0,0,1-.3-.3,1.49,1.49,0,0,1,.9-.4l4.4-.6A5.11,5.11,0,0,0,91.6,32l2-4a1.78,1.78,0,0,1,3.2,0l2,4a4.88,4.88,0,0,0,3.8,2.7l4.4.6a1.6,1.6,0,0,1,1.4,1.2,1.92,1.92,0,0,1-.4,1.8l-3.2,3.1a5,5,0,0,0-1.4,4.5l.8,4.4a1.66,1.66,0,0,1-.6,1.6A2.42,2.42,0,0,1,102.3,52.3Z" transform="translate(0 1.4)"/><path class="cls-69" d="M965.5-.2,969,6.9a2,2,0,0,0,1.7,1.2l7.8,1.1a2.24,2.24,0,0,1,1.2,3.8L974,18.5a2,2,0,0,0-.6,1.9l1.3,7.8a2.19,2.19,0,0,1-3.2,2.3l-7-3.7a2.33,2.33,0,0,0-2,0l-7,3.7a2.21,2.21,0,0,1-3.2-2.3l1.3-7.8a2.21,2.21,0,0,0-.6-1.9L947.3,13a2.24,2.24,0,0,1,1.2-3.8l7.8-1.1A2.59,2.59,0,0,0,958,6.9l3.5-7.1A2.27,2.27,0,0,1,965.5-.2Z" transform="translate(0 1.4)"/><path class="cls-70" d="M972.6,29.5a.6.6,0,0,1-.4-.1l-7-3.7a3.4,3.4,0,0,0-3.2,0l-7,3.7a.6.6,0,0,1-.4.1,1.08,1.08,0,0,1-.7-.3,1.17,1.17,0,0,1-.2-.7l1.3-7.8a3.58,3.58,0,0,0-1-3.1l-5.7-5.5a.82.82,0,0,1-.2-.9.86.86,0,0,1,.7-.6l7.8-1.1a3.82,3.82,0,0,0,2.7-1.9L962.8.5a.89.89,0,0,1,1.6,0l3.5,7.1a3.4,3.4,0,0,0,2.7,1.9l7.8,1.1c.5.1.7.4.7.6a1.14,1.14,0,0,1-.2.9l-5.7,5.5a3.58,3.58,0,0,0-1,3.1l1.3,7.8a.75.75,0,0,1-.2.7A.91.91,0,0,1,972.6,29.5Z" transform="translate(0 1.4)"/><path class="cls-69" d="M956.1,18.8c-.1,0-.2,0-.2-.1a3.87,3.87,0,0,0-1.2-1.9l-2.2-2.1a.21.21,0,0,1,.3-.3l2.2,2.1a6.25,6.25,0,0,1,1.3,2c.1.1,0,.3-.2.3Z" transform="translate(0 1.4)"/><path class="cls-69" d="M960.4,25.2c-.1,0-.1,0-.2-.1a.37.37,0,0,1,.1-.3l.9-.5a4.71,4.71,0,0,1,4.6,0c.1,0,.1.2.1.3s-.2.1-.3.1a4.19,4.19,0,0,0-2.2-.5,5.45,5.45,0,0,0-2.2.5l-.8.5Z" transform="translate(0 1.4)"/><path class="cls-69" d="M970.1,26.8a.9.9,0,0,1-.5-.1c-.1,0-.2-.1-.1-.2s.2-.2.2-.1a1.38,1.38,0,0,0,1.2-.3,1,1,0,0,0,.4-1.1l-.7-4a5.13,5.13,0,0,1,1.5-4.5l2.9-2.9a1.21,1.21,0,0,0,.3-1.3,1.19,1.19,0,0,0-1-.8l-4-.6a5,5,0,0,1-3.8-2.8l-1.8-3.7a1.23,1.23,0,0,0-1.1-.7,1.08,1.08,0,0,0-1.1.7l-1.8,3.7a5.23,5.23,0,0,1-3.8,2.8l-4,.6a.71.71,0,0,0-.6.3.21.21,0,0,1-.3-.3,1.23,1.23,0,0,1,.8-.4l4-.6a4.67,4.67,0,0,0,3.5-2.6l1.8-3.7a1.55,1.55,0,0,1,1.5-.9,1.65,1.65,0,0,1,1.5.9l1.8,3.7a4.91,4.91,0,0,0,3.5,2.6l4,.6a1.63,1.63,0,0,1,1.3,1.1,1.79,1.79,0,0,1-.4,1.7l-2.9,2.9a4.51,4.51,0,0,0-1.3,4.1l.7,4a1.65,1.65,0,0,1-.5,1.5A1.92,1.92,0,0,1,970.1,26.8Z" transform="translate(0 1.4)"/><path class="cls-69" d="M347.6,41.8l5.1,10.4a3.37,3.37,0,0,0,2.4,1.8l11.4,1.7a3.24,3.24,0,0,1,1.8,5.5L360,69.3a3,3,0,0,0-.9,2.8l2,11.4a3.2,3.2,0,0,1-4.6,3.4l-10.2-5.4a3.19,3.19,0,0,0-3,0L333,86.7a3.18,3.18,0,0,1-4.6-3.4l2-11.4a3.22,3.22,0,0,0-.9-2.8L321.2,61a3.22,3.22,0,0,1,1.8-5.5l11.4-1.7a3.37,3.37,0,0,0,2.4-1.8l5.1-10.3A3.25,3.25,0,0,1,347.6,41.8Z" transform="translate(0 1.4)"/><path class="cls-70" d="M357.9,85.2a1.42,1.42,0,0,1-.6-.2l-10.2-5.4a5.1,5.1,0,0,0-4.8,0L332.1,85a1.42,1.42,0,0,1-.6.2,1.39,1.39,0,0,1-1-.5,1,1,0,0,1-.3-1l2-11.4a5.23,5.23,0,0,0-1.5-4.6l-8.3-8.1a1.19,1.19,0,0,1-.3-1.3,1.31,1.31,0,0,1,1-.9l11.4-1.7a5.16,5.16,0,0,0,3.9-2.8l5.1-10.3a1.21,1.21,0,0,1,2.2,0l5.1,10.3a5.16,5.16,0,0,0,3.9,2.8l11.4,1.7a1.06,1.06,0,0,1,1,.9,1.19,1.19,0,0,1-.3,1.3l-8.3,8.1a5.23,5.23,0,0,0-1.5,4.6l2,11.4a1,1,0,0,1-.3,1A.79.79,0,0,1,357.9,85.2Z" transform="translate(0 1.4)"/><path class="cls-69" d="M333.9,69.5c-.1,0-.2-.1-.3-.2a6.83,6.83,0,0,0-1.7-2.8l-3.1-3.1a.28.28,0,0,1,.4-.4l3.1,3.1a7.32,7.32,0,0,1,1.9,3c0,.2-.1.4-.3.4Z" transform="translate(0 1.4)"/><path class="cls-69" d="M340.1,78.9c-.1,0-.2-.1-.3-.2s0-.3.1-.4l1.4-.7a6.57,6.57,0,0,1,3.4-.8,7.73,7.73,0,0,1,3.4.8c.1.1.2.2.1.4s-.2.2-.4.1a6.8,6.8,0,0,0-6.4,0l-1.4.7Z" transform="translate(0 1.4)"/><path class="cls-69" d="M354.3,81.2a1.7,1.7,0,0,1-.7-.1.52.52,0,0,1-.2-.4c0-.2.2-.2.4-.2a1.79,1.79,0,0,0,1.7-.4,1.66,1.66,0,0,0,.6-1.6l-1-5.9a7.44,7.44,0,0,1,2.1-6.5l4.3-4.2a1.79,1.79,0,0,0,.5-1.8,1.89,1.89,0,0,0-1.4-1.2l-5.9-.9a7,7,0,0,1-5.5-4l-2.6-5.4a1.78,1.78,0,0,0-3.2,0L340.8,54a7.13,7.13,0,0,1-5.5,4l-5.9.9a1.27,1.27,0,0,0-.9.4.28.28,0,0,1-.4-.4,2.73,2.73,0,0,1,1.2-.6l5.9-.9a6.75,6.75,0,0,0,5.1-3.7l2.6-5.4a2.35,2.35,0,0,1,4.2,0l2.6,5.4a6.75,6.75,0,0,0,5.1,3.7l5.9.9a2.34,2.34,0,0,1,1.3,4l-4.3,4.2a7.07,7.07,0,0,0-2,6l1,5.9a2.38,2.38,0,0,1-.8,2.2A2.66,2.66,0,0,1,354.3,81.2Z" transform="translate(0 1.4)"/><path class="cls-69" d="M1171.8,22.3l3,6.5a1.92,1.92,0,0,0,1.5,1.1l7.1,1.2a2,2,0,0,1,1,3.4l-5.2,4.9a2,2,0,0,0-.6,1.8l1.1,7.1a2,2,0,0,1-2.9,2l-6.3-3.5a1.91,1.91,0,0,0-1.8,0l-6.4,3.2a2,2,0,0,1-2.8-2.2l1.4-7a2.38,2.38,0,0,0-.5-1.8l-5-5.1a2,2,0,0,1,1.2-3.4l7.1-.9a1.92,1.92,0,0,0,1.5-1.1l3.3-6.4C1169,20.7,1171.1,20.8,1171.8,22.3Z" transform="translate(0 1.4)"/><path class="cls-70" d="M1177.7,49.3a.76.76,0,0,1-.4-.1l-6.3-3.5a3.71,3.71,0,0,0-1.5-.4,4,4,0,0,0-1.5.3l-6.4,3.2c-.1.1-.2.1-.4.1a.86.86,0,0,1-.6-.3.85.85,0,0,1-.2-.6l1.4-7a3,3,0,0,0-.9-2.8l-5-5.1a.93.93,0,0,1-.2-.8c.1-.1.2-.5.7-.5l7.1-.9a3.07,3.07,0,0,0,2.4-1.7l3.3-6.4a.74.74,0,0,1,.7-.4.71.71,0,0,1,.7.5l3,6.5a3,3,0,0,0,2.4,1.8l7.1,1.2a.78.78,0,0,1,.6.5.93.93,0,0,1-.2.8l-5.2,4.9a3.28,3.28,0,0,0-1,2.8l1.1,7.1a.56.56,0,0,1-.2.6A.76.76,0,0,1,1177.7,49.3Z" transform="translate(0 1.4)"/><path class="cls-69" d="M1162.9,39.3c-.1,0-.2,0-.2-.1a4,4,0,0,0-1-1.7l-1.9-2c-.1-.1-.1-.2,0-.2s.2-.1.2,0l1.9,2a3.48,3.48,0,0,1,1,2c.2-.2.2-.1,0,0Z" transform="translate(0 1.4)"/><path class="cls-69" d="M1166.6,45.2c-.1,0-.1,0-.2-.1s0-.2.1-.2l.9-.4a5.37,5.37,0,0,1,2.1-.5,3.94,3.94,0,0,1,2.1.6c.1,0,.1.2.1.2l-.2.1a4.44,4.44,0,0,0-3.9-.1l-1,.4Z" transform="translate(0 1.4)"/><path class="cls-69" d="M1175.4,46.8a.6.6,0,0,1-.4-.1c-.1,0-.2-.1-.1-.2s.1-.2.2-.1a1.39,1.39,0,0,0,1.1-.2,1.16,1.16,0,0,0,.4-1l-.5-3.7a4.56,4.56,0,0,1,1.4-4l2.7-2.5a1.13,1.13,0,0,0,.3-1.1,1.08,1.08,0,0,0-.9-.8l-3.7-.6a4.35,4.35,0,0,1-3.4-2.6l-1.6-3.4a1.13,1.13,0,0,0-2,0l-1.7,3.3a4.67,4.67,0,0,1-3.5,2.4l-3.7.5a1.42,1.42,0,0,0-.6.2.14.14,0,0,1-.2,0c-.1-.1-.1-.2,0-.2a1.14,1.14,0,0,1,.8-.3l3.7-.5a4.17,4.17,0,0,0,3.2-2.2l1.7-3.3a1.56,1.56,0,0,1,1.3-.8,1.29,1.29,0,0,1,1.3.9l1.6,3.4a4.43,4.43,0,0,0,3.1,2.4l3.7.6a1.55,1.55,0,0,1,1.2,1,1.44,1.44,0,0,1-.4,1.5l-2.7,2.5a4.19,4.19,0,0,0-1.3,3.7l.5,3.7a1.3,1.3,0,0,1-.5,1.3A3,3,0,0,1,1175.4,46.8Z" transform="translate(0 1.4)"/><path class="cls-71" d="M889.1,77.4h0a.77.77,0,0,1-.1-.3c.2-.1.3-.3.5-.4a.14.14,0,0,1,.2,0v.2a3.17,3.17,0,0,1-.6.5Z" transform="translate(0 1.4)"/><path class="cls-71" d="M917.4,91.5h0a.22.22,0,0,1-.2-.2V90.1a.2.2,0,1,1,.4,0v1.2C917.6,91.5,917.5,91.5,917.4,91.5Zm-.1-3.2c-.1,0-.1-.1-.2-.1-.1-.4-.1-.8-.2-1.2,0-.1,0-.2.1-.2s.2,0,.2.1a5,5,0,0,1,.2,1.2c.1.1,0,.1-.1.2Zm-.8-3.2c-.1,0-.1,0-.2-.1v-.1c-.1-.4-.3-.7-.4-1.1,0-.1,0-.2.1-.2s.2,0,.2.1a4.87,4.87,0,0,1,.4,1.1v.1c.1,0,.1.1-.1.2Zm-1.3-3h0a12.49,12.49,0,0,0-.8-1.2v-.2a.14.14,0,0,1,.2,0,10.54,10.54,0,0,1,.7,1.1.37.37,0,0,1-.1.3Zm-1.9-2.7h0c-.4-.4-.6-.7-.9-1-.1-.1-.1-.2,0-.2s.2-.1.2,0l.9.9v.2Zm-2.4-2.3h0a10.47,10.47,0,0,1-1.1-.8c-.1-.1-.1-.2,0-.2s.2-.1.2,0l1,.7c.1.1.1.2,0,.2S911,77.1,910.9,77.1Zm-19.6-1.3h0a.77.77,0,0,1-.1-.3c.4-.2.7-.4,1.1-.6.1,0,.2,0,.2.1s0,.2-.1.2a10.91,10.91,0,0,1-1.1.6Zm16.9-.4c-.1,0-.1-.1,0,0a6.12,6.12,0,0,0-1.2-.5c-.1,0-.1-.1-.1-.2s.1-.1.2-.1a11.73,11.73,0,0,1,1.1.5q.15,0,0,.3Zm-14-1c-.1,0-.1,0-.2-.1s0-.2.1-.2.1-.1.2-.1c.3-.1.7-.2,1-.3.1,0,.2,0,.2.1s0,.2-.1.2c-.3.1-.7.2-1,.3,0,.1-.1.1-.2.1Zm10.9-.3h0l-1.2-.3c-.1,0-.1-.1-.1-.2s.1-.1.2-.1l1.2.3c.1,0,.1.1.1.2S905.2,74.1,905.1,74.1Zm-7.7-.5c-.1,0-.1-.1-.2-.1s0-.2.1-.2c.4-.1.8-.1,1.2-.2a.35.35,0,0,1,.2.1s0,.2-.1.2c-.4.1-.8.1-1.2.2Zm4.5-.1h0c-.4,0-.8-.1-1.2-.1a.2.2,0,1,1,0-.4,6.15,6.15,0,0,1,1.3.1c.1,0,.2.1.1.2A.22.22,0,0,1,901.9,73.5Z" transform="translate(0 1.4)"/><path class="cls-71" d="M917.1,94.2h0a.22.22,0,0,1-.2-.2c0-.2.1-.4.1-.6s.1-.1.2-.1.1.1.1.2a2.54,2.54,0,0,1-.2.7C917.2,94.1,917.2,94.2,917.1,94.2Z" transform="translate(0 1.4)"/><path class="cls-71" d="M909.5,105.3h0a.77.77,0,0,1-.1-.3c.2-.1.3-.2.5-.3a.14.14,0,0,1,.2,0v.2a2.09,2.09,0,0,0-.6.4Z" transform="translate(0 1.4)"/><path class="cls-71" d="M900.3,108a.2.2,0,1,1,0-.4,4.87,4.87,0,0,0,1.2-.1.35.35,0,0,1,.2.1s0,.2-.1.2a3,3,0,0,1-1.3.2Zm-2-.1h0c-.4-.1-.8-.1-1.2-.2-.1,0-.1-.1-.1-.2s.1-.1.2-.1c.4.1.8.1,1.2.2.1,0,.2.1.1.2S898.4,107.9,898.3,107.9Zm5.2-.2c-.1,0-.1-.1-.2-.1s0-.2.1-.2l1.2-.3c.1,0,.2,0,.2.1s0,.2-.1.2a10.38,10.38,0,0,1-1.2.3Zm-8.3-.4h0c-.4-.1-.8-.3-1.2-.4-.1,0-.1-.1-.1-.2s.1-.1.2-.1a5.64,5.64,0,0,0,1.2.4c.1,0,.1.1.1.2A.35.35,0,0,0,895.2,107.3Zm11.4-.5c-.1,0-.1,0-.2-.1s0-.2.1-.2a11.73,11.73,0,0,0,1.1-.5c.1,0,.2,0,.2.1s0,.2-.1.2-.6.3-1.1.5Zm-14.4-.7h0l-1.2-.6c-.1-.1-.1-.1,0-.2s.1-.1.2-.1a10.91,10.91,0,0,0,1.1.6c.1,0,.1.1.1.2A.35.35,0,0,0,892.2,106.1Zm-2.7-1.8h0a8.74,8.74,0,0,1-1-.8c-.1-.1-.1-.2,0-.2s.2-.1.2,0c.3.3.6.5.9.8.1.1.1.2,0,.2Zm-2.4-2.2h0a8.7,8.7,0,0,1-.9-1.1v-.2h.2a6.47,6.47,0,0,0,.8.9.14.14,0,0,1,0,.2C887.2,102.1,887.2,102.1,887.1,102.1Zm-1.9-2.6h0a7.46,7.46,0,0,1-.7-1.2c0-.1,0-.2.1-.2s.2,0,.2.1c.2.4.4.7.6,1.1,0,.1,0,.2-.2.2Zm-1.3-2.9c-.1,0-.1,0-.2-.1s0-.1-.1-.2c-.1-.3-.2-.7-.3-1,0-.1,0-.2.1-.2s.2,0,.2.1c.1.3.2.7.3,1,0,.1,0,.1.1.2s0,.2-.1.2Zm-.9-3.1c-.1,0-.1-.1-.2-.1-.1-.4-.1-.8-.2-1.2,0-.1,0-.2.1-.2a.35.35,0,0,1,.2.1,5,5,0,0,0,.2,1.2c.1.1.1.2-.1.2Zm-.2-3.2h0a.22.22,0,0,1-.2-.2,4.87,4.87,0,0,1,.1-1.2c0-.1.1-.2.2-.1s.2.1.1.2a6.88,6.88,0,0,1-.2,1.3C883,90.2,882.9,90.3,882.8,90.3Z" transform="translate(0 1.4)"/><path class="cls-71" d="M883.2,87.1h0a.22.22,0,0,1-.2-.2,1.42,1.42,0,0,1,.2-.6c0-.1.1-.1.2-.1s.1.1.1.2-.1.4-.1.6C883.3,87,883.3,87.1,883.2,87.1Z" transform="translate(0 1.4)"/><path class="cls-72" d="M887.8,85.7v.2l1.7,1.8a10.54,10.54,0,0,0-.3,3.6l-2,1.5a.31.31,0,0,0-.1.2l.9,2.9a.22.22,0,0,0,.2.2l2.5.1a10,10,0,0,0,2.3,2.7l-.4,2.5c0,.1,0,.2.1.2l2.7,1.4h.2l1.8-1.7a10.54,10.54,0,0,0,3.6.3l1.5,2c0,.1.2.1.2.1l2.9-.9a.22.22,0,0,0,.2-.2l.1-2.5a10,10,0,0,0,2.7-2.3l2.5.4c.1,0,.2,0,.2-.1l1.4-2.7v-.2l-1.8-1.8a10.54,10.54,0,0,0,.3-3.6l2-1.5a.31.31,0,0,0,.1-.2l-.9-2.9a.22.22,0,0,0-.2-.2l-2.5-.1a10,10,0,0,0-2.3-2.7l.4-2.5c0-.1,0-.2-.1-.2L905,78.1h-.2L903,79.9a10.54,10.54,0,0,0-3.6-.3l-1.5-2c0-.1-.2-.1-.2-.1l-2.9.9a.22.22,0,0,0-.2.2l-.1,2.5a10,10,0,0,0-2.7,2.3l-2.5-.4c-.1,0-.2,0-.2.1Z" transform="translate(0 1.4)"/><path class="cls-73" d="M900.3,93.4a2.85,2.85,0,0,1-2.5-1.4,2.82,2.82,0,0,1-.3-2.2,2.69,2.69,0,0,1,1.3-1.8,2.87,2.87,0,0,1,2.2-.3,2.69,2.69,0,0,1,1.8,1.3,2.91,2.91,0,0,1-1,4A2.82,2.82,0,0,1,900.3,93.4Zm0-5.4a2,2,0,0,0-1.3.4,2.09,2.09,0,0,0-1.1,1.5,2.59,2.59,0,0,0,.3,1.9,2.47,2.47,0,0,0,4.2-2.6,2.4,2.4,0,0,0-1.5-1.1C900.7,88.1,900.5,88,900.3,88Z" transform="translate(0 1.4)"/><path class="cls-73" d="M900.3,98.1a7.69,7.69,0,0,1-7.2-5.3h0a8,8,0,0,1-.3-1.5h0v-.1h.5a8,8,0,0,0,.3,1.5v.1a7.12,7.12,0,0,0,7.4,4.8,6.88,6.88,0,0,0,1.3-.2.31.31,0,0,0,.2-.1,7.17,7.17,0,0,0,5-6.8,7.61,7.61,0,0,0-.3-2.1,7.11,7.11,0,0,0-8.9-4.6,7.45,7.45,0,0,0-3.2,2.1l-.3-.3a7.59,7.59,0,0,1,12.9,2.7,9.08,9.08,0,0,1,.3,2.3,7.59,7.59,0,0,1-5.3,7.2A10.5,10.5,0,0,1,900.3,98.1Z" transform="translate(0 1.4)"/><path class="cls-71" d="M859.9,85.8a.76.76,0,0,1-.4-.2.49.49,0,0,1,.1-.7l1.5-1.2a.5.5,0,0,1,.6.8l-1.5,1.2A.37.37,0,0,1,859.9,85.8Z" transform="translate(0 1.4)"/><path class="cls-71" d="M905.3,104.9c-.2,0-.5-.2-.5-.4a22.54,22.54,0,0,0-.6-3.6c-.1-.3.1-.5.4-.6s.5.1.6.4a23.76,23.76,0,0,1,.6,3.7c.1.2-.1.5-.5.5Zm-2.5-9.4c-.2,0-.3-.1-.4-.3a20.16,20.16,0,0,0-1.8-3.2c-.2-.2-.1-.5.2-.7s.5-.1.7.2a26.85,26.85,0,0,1,1.8,3.3.48.48,0,0,1-.2.6A.37.37,0,0,1,902.8,95.5Zm-5.6-8c-.1,0-.2-.1-.3-.1a20.94,20.94,0,0,0-2.8-2.4.62.62,0,0,1-.1-.7c.1-.2.5-.2.7-.1a34.67,34.67,0,0,1,2.9,2.5.48.48,0,0,1,0,.7C897.5,87.5,897.4,87.5,897.2,87.5ZM889.3,82c-.1,0-.1,0-.2-.1a34.23,34.23,0,0,0-3.4-1.3.47.47,0,0,1,.3-.9,36.16,36.16,0,0,1,3.5,1.3.48.48,0,0,1,.2.6C889.6,81.9,889.5,82,889.3,82Zm-22.6-.3c-.2,0-.4-.1-.4-.3a.48.48,0,0,1,.2-.6c.6-.2,1.2-.5,1.8-.7l1.8-.6c.2-.1.5.1.6.3s-.1.5-.3.6c-.6.2-1.2.3-1.7.5a8.65,8.65,0,0,0-1.7.7C866.8,81.7,866.8,81.7,866.7,81.7Zm13.2-2.2h0c-1.3-.1-2.5-.1-3.7-.1a.46.46,0,0,1-.5-.4.54.54,0,0,1,.5-.5,16.25,16.25,0,0,1,3.8.1c.3,0,.5.2.4.5A.66.66,0,0,1,879.9,79.5Z" transform="translate(0 1.4)"/><path class="cls-71" d="M904.9,112.8h0c-.4-.1-.5-.3-.5-.6.1-.6.2-1.2.3-1.9,0-.3.3-.4.5-.4s.5.3.4.5c-.1.6-.2,1.3-.3,1.9C905.3,112.7,905.1,112.8,904.9,112.8Z" transform="translate(0 1.4)"/><path class="cls-71" d="M891.9,131.1a.52.52,0,0,1-.4-.2.53.53,0,0,1,.2-.7c.5-.3,1.1-.7,1.6-1a.62.62,0,0,1,.7.1.49.49,0,0,1-.1.7c-.5.4-1.1.7-1.6,1.1Z" transform="translate(0 1.4)"/><path class="cls-71" d="M877,135.1h0a23.08,23.08,0,0,1-3.7-.3c-.3,0-.4-.3-.4-.5s.3-.4.5-.4a21.86,21.86,0,0,0,3.6.3.47.47,0,0,1,.5.5A.46.46,0,0,1,877,135.1Zm5.9-.5a.66.66,0,0,1-.5-.4.55.55,0,0,1,.4-.6,22.51,22.51,0,0,0,3.5-.9c.2-.1.5.1.6.3a.45.45,0,0,1-.3.6c-1.2.4-2.4.7-3.7,1Zm-15.2-1.4h-.2a21.1,21.1,0,0,1-3.4-1.6.48.48,0,0,1-.2-.6.57.57,0,0,1,.7-.2,19.64,19.64,0,0,0,3.3,1.5c.2.1.4.4.3.6A.91.91,0,0,1,867.7,133.2Zm-8.2-4.9a.37.37,0,0,1-.3-.1c-.9-.8-1.8-1.7-2.7-2.6a.49.49,0,0,1,.7-.7,30.7,30.7,0,0,0,2.6,2.5.48.48,0,0,1,0,.7C859.7,128.2,859.6,128.3,859.5,128.3Zm-6.1-7.4a.52.52,0,0,1-.4-.2,35.39,35.39,0,0,1-1.6-3.4.47.47,0,1,1,.9-.3c.5,1.1,1,2.2,1.5,3.2a.66.66,0,0,1-.2.7Zm-3.2-9a.66.66,0,0,1-.5-.4c-.2-1.2-.3-2.5-.4-3.7a.5.5,0,1,1,1,0,22,22,0,0,0,.4,3.6c.1.2-.1.5-.5.5Z" transform="translate(0 1.4)"/><path class="cls-71" d="M850.3,102.3h0c-.4-.1-.5-.3-.5-.6a12.86,12.86,0,0,1,.4-1.9.47.47,0,0,1,.9.3,11.63,11.63,0,0,0-.4,1.8A.43.43,0,0,1,850.3,102.3Z" transform="translate(0 1.4)"/><path class="cls-72" d="M857.8,99c-.1.1,0,.3,0,.4l2.8,2.9a15.59,15.59,0,0,0-.5,5.7l-3.3,2.4c-.1.1-.2.2-.1.4l1.5,4.7c0,.1.2.2.3.2l4.1.1a15.77,15.77,0,0,0,3.7,4.4l-.6,4c0,.1,0,.3.2.3l4.3,2.2a.25.25,0,0,0,.4-.1l3-2.8a15.59,15.59,0,0,0,5.7.5l2.4,3.3c.1.1.2.2.4.1l4.7-1.5c.1,0,.2-.2.2-.3l.1-4.1a15.77,15.77,0,0,0,4.4-3.7l4,.6c.1,0,.3-.1.3-.2l2.2-4.3c.1-.1,0-.3,0-.4l-2.8-2.9a15.59,15.59,0,0,0,.5-5.7l3.3-2.4c.1-.1.2-.2.1-.4l-1.5-4.7c0-.1-.2-.2-.3-.2l-4.1-.1a15.77,15.77,0,0,0-3.7-4.4l.6-4c0-.1,0-.3-.2-.3l-4.3-2.2a.25.25,0,0,0-.4.1l-3,2.8a15.59,15.59,0,0,0-5.7-.5l-2.4-3.3c-.1-.1-.2-.2-.4-.1L869,87c-.1,0-.2.2-.2.3l-.1,4.1a15.77,15.77,0,0,0-4.4,3.7l-4-.6c-.1,0-.3.1-.3.2Z" transform="translate(0 1.4)"/><path class="cls-73" d="M877.9,111.8c-.4,0-.8-.1-1.2-.1a4.8,4.8,0,0,1-3.1-2.3,5.1,5.1,0,0,1-.6-3.8,4.8,4.8,0,0,1,2.3-3.1,5.1,5.1,0,0,1,3.8-.6,4.8,4.8,0,0,1,3.1,2.3,4.94,4.94,0,0,1-1.7,6.9A5.94,5.94,0,0,1,877.9,111.8Zm-.1-8.7a4.14,4.14,0,0,0-1.9.5,3.56,3.56,0,0,0-1.6,2.2,3.64,3.64,0,0,0,.4,2.7,3.56,3.56,0,0,0,2.2,1.6,3.64,3.64,0,0,0,2.7-.4,3.68,3.68,0,0,0,1.2-5,3.56,3.56,0,0,0-2.2-1.6Z" transform="translate(0 1.4)"/><path class="cls-73" d="M877.9,119.2a13,13,0,0,1-5.8-1.4,12,12,0,0,1-6.1-7.3h0c0-.1-.1-.2-.1-.3a10.62,10.62,0,0,1-.4-1.9h0v-.4l1.4-.1a8.56,8.56,0,0,0,.5,2.3h0a4.87,4.87,0,0,0,.4,1.1h0a10.91,10.91,0,0,0,4.4,5.1l.6.3a10.69,10.69,0,0,0,8.4.7,11.22,11.22,0,0,0,6.5-5.4,11.35,11.35,0,0,0,1.3-5.1,12.57,12.57,0,0,0-.5-3.3,11.22,11.22,0,0,0-5.4-6.5,11,11,0,0,0-13.3,2.5l-1.1-1a12.34,12.34,0,0,1,5.6-3.6,12.51,12.51,0,0,1,9.5.8,12.62,12.62,0,0,1,6.7,11.1,13.38,13.38,0,0,1-1.4,5.8,12,12,0,0,1-7.3,6.1A17.37,17.37,0,0,1,877.9,119.2Z" transform="translate(0 1.4)"/><path class="cls-71" d="M122.73,203.25a.76.76,0,0,1-.4-.2.49.49,0,0,1,.1-.7l1.5-1.2a.62.62,0,0,1,.7.1.49.49,0,0,1-.1.7,14.31,14.31,0,0,1-1.5,1.1C122.93,203.15,122.83,203.25,122.73,203.25Z" transform="translate(0 1.4)"/><path class="cls-71" d="M168.13,222.25c-.2,0-.5-.2-.5-.4a22.54,22.54,0,0,0-.6-3.6c-.1-.3.1-.5.4-.6s.5.1.6.4a23.76,23.76,0,0,1,.6,3.7c0,.3-.1.5-.5.5Zm-2.5-9.4c-.2,0-.3-.1-.4-.3a20.16,20.16,0,0,0-1.8-3.2c-.2-.2-.1-.5.2-.7a.62.62,0,0,1,.7.1,26.85,26.85,0,0,1,1.8,3.3.48.48,0,0,1-.2.6C165.83,212.85,165.73,212.85,165.63,212.85ZM160,205c-.1,0-.2-.1-.3-.1a20.94,20.94,0,0,0-2.8-2.4.5.5,0,0,1,.6-.8,34.67,34.67,0,0,1,2.9,2.5.48.48,0,0,1,0,.7C160.33,204.85,160.23,205,160,205Zm-7.9-5.6c-.1,0-.1,0-.2-.1a34.23,34.23,0,0,0-3.4-1.3c-.2-.1-.4-.4-.3-.6a.49.49,0,0,1,.6-.3,21.3,21.3,0,0,1,3.5,1.4.48.48,0,0,1,.2.6A.37.37,0,0,1,152.13,199.35Zm-22.6-.3c-.2,0-.4-.1-.4-.3a.48.48,0,0,1,.2-.6c.6-.2,1.2-.5,1.8-.7l1.8-.6c.2-.1.5.1.6.3s-.1.5-.3.6c-.6.2-1.2.3-1.7.5a8.65,8.65,0,0,0-1.7.7A.77.77,0,0,1,129.53,199.05Zm13.2-2.1h0c-1.3-.1-2.5-.1-3.7-.1a.46.46,0,0,1-.5-.4.47.47,0,0,1,.5-.5,16.25,16.25,0,0,1,3.8.1c.3,0,.5.2.4.5A.66.66,0,0,1,142.73,197Z" transform="translate(0 1.4)"/><path class="cls-71" d="M167.73,230.25h0c-.4-.1-.5-.3-.5-.6.1-.6.2-1.2.3-1.9,0-.3.3-.5.5-.4s.5.3.4.5c-.1.6-.2,1.3-.3,1.9A.46.46,0,0,1,167.73,230.25Z" transform="translate(0 1.4)"/><path class="cls-71" d="M154.73,248.55a.52.52,0,0,1-.4-.2.53.53,0,0,1,.2-.7c.5-.3,1.1-.7,1.6-1a.62.62,0,0,1,.7.1.49.49,0,0,1-.1.7c-.5.4-1.1.7-1.6,1.1Z" transform="translate(0 1.4)"/><path class="cls-71" d="M139.83,252.45h0a23.08,23.08,0,0,1-3.7-.3c-.3,0-.4-.3-.4-.5s.3-.4.5-.4a21.86,21.86,0,0,0,3.6.3.47.47,0,0,1,.5.5A.46.46,0,0,1,139.83,252.45Zm5.9-.5a.66.66,0,0,1-.5-.4.55.55,0,0,1,.4-.6,22.51,22.51,0,0,0,3.5-.9.47.47,0,0,1,.3.9,22.38,22.38,0,0,1-3.7,1Zm-15.3-1.3h-.2a35.39,35.39,0,0,1-3.4-1.6.48.48,0,0,1-.2-.6.57.57,0,0,1,.7-.2,19.64,19.64,0,0,0,3.3,1.5c.2.1.4.4.3.6A.85.85,0,0,1,130.43,250.65Zm-8.2-4.9a.37.37,0,0,1-.3-.1c-.9-.8-1.8-1.7-2.7-2.6a.49.49,0,1,1,.7-.7,30.7,30.7,0,0,0,2.6,2.5.48.48,0,0,1,0,.7C122.53,245.65,122.43,245.75,122.23,245.75Zm-6-7.4a.52.52,0,0,1-.4-.2,35.39,35.39,0,0,1-1.6-3.4.45.45,0,0,1,.3-.6.42.42,0,0,1,.6.3c.5,1.1,1,2.2,1.5,3.2a.48.48,0,0,1-.2.6C116.33,238.25,116.33,238.35,116.23,238.35Zm-3.2-9a.66.66,0,0,1-.5-.4c-.2-1.2-.3-2.5-.4-3.7a.5.5,0,0,1,1,0,22,22,0,0,0,.4,3.6c0,.2-.1.4-.5.5Z" transform="translate(0 1.4)"/><path class="cls-71" d="M113,219.75h0c-.4-.1-.5-.3-.5-.6a12.86,12.86,0,0,1,.4-1.9.55.55,0,0,1,.6-.4.42.42,0,0,1,.3.6,11.63,11.63,0,0,0-.4,1.8C113.53,219.55,113.33,219.75,113,219.75Z" transform="translate(0 1.4)"/><path class="cls-72" d="M120.53,216.35c-.1.1,0,.3,0,.4l2.8,2.9a15.59,15.59,0,0,0-.5,5.7l-3.3,2.4c-.1.1-.2.2-.1.4l1.5,4.6c0,.1.2.2.3.2l4.1.1a15.77,15.77,0,0,0,3.7,4.4l-.6,4a.4.4,0,0,0,.2.4l4.3,2.2c.1.1.3,0,.4,0l3-2.8a18.11,18.11,0,0,0,5.7.5l2.4,3.3c.1.1.2.2.4.1l4.7-1.5c.1,0,.2-.2.2-.3l.1-4.1a15.77,15.77,0,0,0,4.4-3.7l4,.6c.1,0,.3,0,.3-.2l2.2-4.3c.1-.1,0-.3,0-.4l-2.8-3a15.59,15.59,0,0,0,.5-5.7l3.3-2.4c.1-.1.2-.2.1-.4l-1.5-4.6c0-.1-.2-.2-.3-.2l-4.1-.1a15.77,15.77,0,0,0-3.7-4.4l.6-4a.4.4,0,0,0-.2-.4l-4.3-2.2a.25.25,0,0,0-.4.1l-3,2.8a18.11,18.11,0,0,0-5.7-.5l-2.4-3.3c-.1-.1-.2-.2-.4-.1l-4.7,1.5c-.1,0-.2.2-.2.3l-.1,4.1a15.77,15.77,0,0,0-4.4,3.7l-4-.6c-.1,0-.3.1-.3.2Z" transform="translate(0 1.4)"/><path class="cls-73" d="M140.63,229.15a4.87,4.87,0,0,1-1.2-.1,4.8,4.8,0,0,1-3.1-2.3,5.1,5.1,0,0,1-.6-3.8,4.8,4.8,0,0,1,2.3-3.1,5.1,5.1,0,0,1,3.8-.6,4.8,4.8,0,0,1,3.1,2.3,4.94,4.94,0,0,1-1.7,6.9A4.41,4.41,0,0,1,140.63,229.15Zm0-8.6a4.14,4.14,0,0,0-1.9.5,3.56,3.56,0,0,0-1.6,2.2,3.64,3.64,0,0,0,.4,2.7,3.56,3.56,0,0,0,2.2,1.6,3.64,3.64,0,0,0,2.7-.4,3.68,3.68,0,0,0,1.2-5,3.56,3.56,0,0,0-2.2-1.6Z" transform="translate(0 1.4)"/><path class="cls-73" d="M140.73,236.65a13,13,0,0,1-5.8-1.4,12,12,0,0,1-6.1-7.3h0c0-.1-.1-.2-.1-.3a10.62,10.62,0,0,1-.4-1.9h0v-.4l1.4-.1a9.48,9.48,0,0,0,.5,2.3h0a3,3,0,0,0,.4,1h0a10.91,10.91,0,0,0,4.4,5.1l.6.3a10.69,10.69,0,0,0,8.4.7,11.22,11.22,0,0,0,6.5-5.4,11.35,11.35,0,0,0,1.3-5.1,12.57,12.57,0,0,0-.5-3.3,11.22,11.22,0,0,0-5.4-6.5,11,11,0,0,0-13.3,2.5l-1.1-1a12.34,12.34,0,0,1,5.6-3.6,12.51,12.51,0,0,1,9.5.8,12.32,12.32,0,0,1,6.1,7.3,12.09,12.09,0,0,1,.6,3.8,13,13,0,0,1-1.4,5.8,12,12,0,0,1-7.3,6.1A13.71,13.71,0,0,1,140.73,236.65Z" transform="translate(0 1.4)"/><path class="cls-71" d="M104.13,177.25a.76.76,0,0,1-.4-.2.49.49,0,0,1,.1-.7l1.5-1.2a.62.62,0,0,1,.7.1.49.49,0,0,1-.1.7,14.31,14.31,0,0,1-1.5,1.1C104.33,177.15,104.23,177.25,104.13,177.25Z" transform="translate(0 1.4)"/><path class="cls-71" d="M149.63,196.25c-.2,0-.5-.2-.5-.4a22.54,22.54,0,0,0-.6-3.6c-.1-.3.1-.5.4-.6s.5.1.6.4a23.76,23.76,0,0,1,.6,3.7.47.47,0,0,1-.5.5Zm-2.6-9.4c-.2,0-.3-.1-.4-.3a20.16,20.16,0,0,0-1.8-3.2c-.2-.2-.1-.5.2-.7a.62.62,0,0,1,.7.1,26.85,26.85,0,0,1,1.8,3.3.48.48,0,0,1-.2.6C147.23,186.85,147.13,186.85,147,186.85Zm-5.5-7.9c-.1,0-.2-.1-.3-.1a20.94,20.94,0,0,0-2.8-2.4.5.5,0,0,1,.6-.8,34.67,34.67,0,0,1,2.9,2.5.48.48,0,0,1,0,.7C141.73,178.85,141.63,179,141.53,179Zm-8-5.6c-.1,0-.1,0-.2-.1a34.23,34.23,0,0,0-3.4-1.3c-.2-.1-.4-.4-.3-.6a.49.49,0,0,1,.6-.3,21.3,21.3,0,0,1,3.5,1.4.48.48,0,0,1,.2.6C133.83,173.25,133.73,173.35,133.53,173.35Zm-22.6-.3c-.2,0-.4-.1-.4-.3a.48.48,0,0,1,.2-.6c.6-.2,1.2-.5,1.8-.7l1.8-.6c.2-.1.5.1.6.3s-.1.5-.3.6c-.6.2-1.2.3-1.7.5a8.65,8.65,0,0,0-1.7.7C111,173.05,111,173.05,110.93,173.05Zm13.2-2.1h0c-1.3-.1-2.5-.1-3.7-.1a.46.46,0,0,1-.5-.4.47.47,0,0,1,.5-.5,16.25,16.25,0,0,1,3.8.1c.3,0,.5.2.4.5A.66.66,0,0,1,124.13,171Z" transform="translate(0 1.4)"/><path class="cls-71" d="M149.13,204.25h0c-.4-.1-.5-.3-.5-.6.1-.6.2-1.2.3-1.9,0-.3.3-.4.5-.4s.5.3.4.5c-.1.6-.2,1.3-.3,1.9A.46.46,0,0,1,149.13,204.25Z" transform="translate(0 1.4)"/><path class="cls-71" d="M136.13,222.55a.52.52,0,0,1-.4-.2.53.53,0,0,1,.2-.7c.5-.3,1.1-.7,1.6-1a.62.62,0,0,1,.7.1.49.49,0,0,1-.1.7c-.5.4-1.1.7-1.6,1.1Z" transform="translate(0 1.4)"/><path class="cls-71" d="M121.23,226.45h0a23.08,23.08,0,0,1-3.7-.3c-.3,0-.4-.3-.4-.5s.3-.4.5-.4a21.86,21.86,0,0,0,3.6.3.47.47,0,0,1,.5.5A.46.46,0,0,1,121.23,226.45Zm5.9-.5a.66.66,0,0,1-.5-.4.55.55,0,0,1,.4-.6,22.51,22.51,0,0,0,3.5-.9.47.47,0,0,1,.3.9c-1.2.4-2.4.7-3.7,1Zm-15.2-1.3h-.2a35.39,35.39,0,0,1-3.4-1.6.48.48,0,0,1-.2-.6.57.57,0,0,1,.7-.2,19.64,19.64,0,0,0,3.3,1.5c.2.1.4.4.3.6S112,224.65,111.93,224.65Zm-8.2-5a.37.37,0,0,1-.3-.1c-.9-.8-1.8-1.7-2.7-2.6a.49.49,0,0,1,.7-.7,30.7,30.7,0,0,0,2.6,2.5.48.48,0,0,1,0,.7C103.93,219.65,103.83,219.65,103.73,219.65Zm-6.1-7.3a.52.52,0,0,1-.4-.2,35.39,35.39,0,0,1-1.6-3.4.47.47,0,1,1,.9-.3c.5,1.1,1,2.2,1.5,3.2a.48.48,0,0,1-.2.6A.35.35,0,0,1,97.63,212.35Zm-3.2-9.1a.66.66,0,0,1-.5-.4c-.2-1.2-.3-2.5-.4-3.7a.5.5,0,0,1,1,0,22,22,0,0,0,.4,3.6c.1.3-.1.5-.5.5Z" transform="translate(0 1.4)"/><path class="cls-71" d="M94.53,193.75h0c-.4-.1-.5-.3-.5-.6a12.86,12.86,0,0,1,.4-1.9.55.55,0,0,1,.6-.4.42.42,0,0,1,.3.6,11.63,11.63,0,0,0-.4,1.8A.46.46,0,0,1,94.53,193.75Z" transform="translate(0 1.4)"/><path class="cls-72" d="M102,190.35c-.1.1,0,.3,0,.4l2.8,2.9a15.59,15.59,0,0,0-.5,5.7l-3.3,2.4c-.1.1-.2.2-.1.4l1.5,4.6c0,.1.2.2.3.2l4.1.1a15.77,15.77,0,0,0,3.7,4.4l-.6,4a.4.4,0,0,0,.2.4l4.3,2.2a.25.25,0,0,0,.4-.1l3-2.8a18.11,18.11,0,0,0,5.7.5l2.4,3.3c.1.1.2.2.4.1l4.7-1.5c.1,0,.2-.2.2-.3l.1-4.1a15.77,15.77,0,0,0,4.4-3.7l4,.6c.1,0,.3-.1.3-.2l2.2-4.3c.1-.1,0-.3,0-.4l-2.8-2.9a15.59,15.59,0,0,0,.5-5.7l3.3-2.4c.1-.1.2-.2.1-.4l-1.5-4.6c0-.1-.2-.2-.3-.2l-4.1-.1a15.77,15.77,0,0,0-3.7-4.4l.6-4a.4.4,0,0,0-.2-.4l-4.3-2.2a.25.25,0,0,0-.4.1l-3,2.8a18.11,18.11,0,0,0-5.7-.5l-2.4-3.3c-.1-.1-.2-.2-.4-.1l-4.7,1.5c-.1,0-.2.2-.2.3l-.1,4.1a15.77,15.77,0,0,0-4.4,3.7l-4-.6c-.1,0-.3.1-.3.2Z" transform="translate(0 1.4)"/><path class="cls-73" d="M122.13,203.15c-.4,0-.8-.1-1.2-.1a4.8,4.8,0,0,1-3.1-2.3,5,5,0,0,1-.6-3.8,4.8,4.8,0,0,1,2.3-3.1,5.1,5.1,0,0,1,3.8-.6,4.8,4.8,0,0,1,3.1,2.3,4.94,4.94,0,0,1-1.7,6.9A5.94,5.94,0,0,1,122.13,203.15Zm-.1-8.6a4.14,4.14,0,0,0-1.9.5,3.56,3.56,0,0,0-1.6,2.2,3.64,3.64,0,0,0,.4,2.7,3.56,3.56,0,0,0,2.2,1.6,3.64,3.64,0,0,0,2.7-.4,3.68,3.68,0,0,0,1.2-5,3.56,3.56,0,0,0-2.2-1.6Z" transform="translate(0 1.4)"/><path class="cls-73" d="M122.13,210.65a13,13,0,0,1-5.8-1.4,12,12,0,0,1-6.1-7.3h0c0-.1-.1-.2-.1-.3a10.62,10.62,0,0,1-.4-1.9h0v-.4l1.4-.1a8.56,8.56,0,0,0,.5,2.3h0a4.87,4.87,0,0,0,.4,1.1h0a10.91,10.91,0,0,0,4.4,5.1l.6.3a10.69,10.69,0,0,0,8.4.7,11.22,11.22,0,0,0,6.5-5.4,11.35,11.35,0,0,0,1.3-5.1,12.57,12.57,0,0,0-.5-3.3,11.22,11.22,0,0,0-5.4-6.5A11,11,0,0,0,114,191l-1.1-1a12.34,12.34,0,0,1,5.6-3.6,12.51,12.51,0,0,1,9.5.8,12.32,12.32,0,0,1,6.1,7.3,12.09,12.09,0,0,1,.6,3.8,13.38,13.38,0,0,1-1.4,5.8,12,12,0,0,1-7.3,6.1A18.13,18.13,0,0,1,122.13,210.65Z" transform="translate(0 1.4)"/><path class="cls-11" d="M1083.15,296.4h73.6V281.7h-73.6C1084.75,281.6,1084.75,296.4,1083.15,296.4Z" transform="translate(0 1.4)"/><path class="cls-74" d="M1156.85,292.7V286c0-2.4-1.5-4.3-3.2-4.3h-70a2.58,2.58,0,0,1-2.6-2.6h0a.79.79,0,0,1,.8-.8h76.6c1.8,0,4.5,2.8,4.5,6.2v9.4c0,3.2-2.7,5.8-4.4,5.8h-76.3a1.16,1.16,0,0,1-1.2-1.2,2.14,2.14,0,0,1,2.2-2.1h70.9C1155.55,296.4,1156.85,294.7,1156.85,292.7Z" transform="translate(0 1.4)"/><path class="cls-75" d="M1154.75,285h-69a.3.3,0,0,1,0-.6h69a.27.27,0,0,1,.3.3A.32.32,0,0,1,1154.75,285Z" transform="translate(0 1.4)"/><path class="cls-75" d="M1154.75,287.1h-69a.3.3,0,0,1,0-.6h69a.3.3,0,1,1,0,.6Z" transform="translate(0 1.4)"/><path class="cls-75" d="M1154.75,289.3h-69a.3.3,0,0,1,0-.6h69a.3.3,0,1,1,0,.6Z" transform="translate(0 1.4)"/><path class="cls-75" d="M1154.75,291.5h-69a.3.3,0,0,1,0-.6h69a.3.3,0,1,1,0,.6Z" transform="translate(0 1.4)"/><path class="cls-75" d="M1154.75,293.7h-69a.3.3,0,0,1,0-.6h69a.3.3,0,1,1,0,.6Z" transform="translate(0 1.4)"/><path class="cls-75" d="M1093.75,278.2h59.7a3.33,3.33,0,0,0,3.3-3.3v-9.5a3.33,3.33,0,0,0-3.3-3.3h-59.7a3.33,3.33,0,0,0-3.3,3.3v9.5A3.27,3.27,0,0,0,1093.75,278.2Z" transform="translate(0 1.4)"/><path class="cls-11" d="M1142.65,276.4h5.4a1.22,1.22,0,0,0,1.2-1.2v-10a1.22,1.22,0,0,0-1.2-1.2h-5.4a1.22,1.22,0,0,0-1.2,1.2v10A1.16,1.16,0,0,0,1142.65,276.4Z" transform="translate(0 1.4)"/><path class="cls-11" d="M1138,276.4h1.7a.65.65,0,0,0,.6-.6V264.7a.65.65,0,0,0-.6-.6H1138a.65.65,0,0,0-.6.6v11.1A.65.65,0,0,0,1138,276.4Z" transform="translate(0 1.4)"/><polyline class="cls-6" points="748.7 254.6 746.8 252.3 740.1 244 756.9 244 783.8 244 709.2 305.1 687 305.1"/><polygon class="cls-7" points="783.8 244 782.4 250.6 775.1 286.8 766.5 276.3 731.8 305.1 709.2 305.1 783.8 244"/></g></g></g></svg>