<?xml version="1.0" encoding="utf-8"?>
<!-- Generator: Adobe Illustrator 26.0.2, SVG Export Plug-In . SVG Version: 6.00 Build 0)  -->
<svg version="1.1" id="Layer_1" xmlns="http://www.w3.org/2000/svg" xmlns:xlink="http://www.w3.org/1999/xlink" x="0px" y="0px"
	 viewBox="0 0 1245 300" style="enable-background:new 0 0 1245 300;" xml:space="preserve">
<style type="text/css">
	.st0{clip-path:url(#SVGID_00000165224448758987084650000009294263993545491112_);}
	.st1{fill:#EAF2FB;}
	.st2{fill:#FFC253;}
	.st3{fill:#E09736;}
	.st4{fill:#FFC854;}
	.st5{fill:#40C7A7;}
	.st6{fill:none;stroke:#3B55CE;stroke-width:1.05;stroke-linecap:round;stroke-miterlimit:10;}
	.st7{fill:#DD7A79;}
	.st8{fill:#4AA4F4;}
	.st9{fill:#2E90E8;}
	.st10{fill:#309AD6;}
	.st11{fill:#91DBAC;}
	.st12{fill:#22A482;}
	.st13{fill:#3DC19A;}
	.st14{fill:#8FC9C6;}
	.st15{fill:#228C7E;}
	.st16{fill:none;stroke:#8FC9C6;stroke-width:0.53;stroke-linecap:round;stroke-miterlimit:10;}
	.st17{fill:#FF9A8D;}
	.st18{fill:#AAEEED;}
	.st19{fill:#03AA99;}
	.st20{fill:none;stroke:#AAEEED;stroke-width:0.53;stroke-linecap:round;stroke-miterlimit:10;}
	.st21{fill:#1E4174;}
	.st22{fill:#85B8ED;}
	.st23{fill:#4E7EAC;}
	.st24{fill:none;stroke:#274D79;stroke-width:0.53;stroke-miterlimit:10;}
	.st25{fill:#BA5964;}
	.st26{fill:#42B2FC;}
	.st27{fill:#001C45;}
	.st28{fill:none;stroke:#001C45;stroke-width:0.79;stroke-linecap:round;stroke-miterlimit:10;}
	.st29{fill:url(#SVGID_00000026138728314299470950000017651403968718575744_);}
	.st30{fill:url(#SVGID_00000111162604844219652450000009728126312414877626_);}
	.st31{fill:#133A50;}
	.st32{fill:#FEC4AD;}
	.st33{fill:#471A16;}
	.st34{fill:#FFFFFF;}
	.st35{fill:#407BFF;}
	.st36{opacity:0.2;enable-background:new    ;}
	.st37{opacity:0.7;fill:#4AA4F4;enable-background:new    ;}
	.st38{fill:#263238;}
	.st39{fill:none;stroke:#407BFF;stroke-width:0.75;stroke-linecap:round;stroke-linejoin:round;stroke-dasharray:5.89,5.89;}
	.st40{fill:none;stroke:#407BFF;stroke-width:0.75;stroke-linecap:round;stroke-linejoin:round;}
	.st41{fill:#4FAE86;}
	.st42{fill:#319188;}
	.st43{fill:none;stroke:#194459;stroke-miterlimit:10;}
	.st44{fill:none;stroke:#FFFFFF;stroke-miterlimit:10;}
	.st45{fill:#F0F0F0;}
	.st46{fill:none;stroke:#2E90E8;stroke-linecap:round;stroke-linejoin:round;}
	.st47{opacity:0.8;}
	.st48{fill:none;stroke:#FFFFFF;stroke-width:1.65;stroke-linecap:round;stroke-linejoin:round;}
	.st49{opacity:0.2;}
	.st50{opacity:0.8;fill:#4AA4F4;enable-background:new    ;}
	.st51{fill:none;stroke:#FFFFFF;stroke-width:1.18;stroke-miterlimit:10;}
	.st52{fill:none;stroke:#375A64;stroke-width:4;stroke-linecap:round;stroke-linejoin:round;}
</style>
<g>
	<g>
		<defs>
			<rect id="SVGID_1_" width="1245" height="300"/>
		</defs>
		<clipPath id="SVGID_00000028302145172610199990000016336680690955134399_">
			<use xlink:href="#SVGID_1_"  style="overflow:visible;"/>
		</clipPath>
		<g style="clip-path:url(#SVGID_00000028302145172610199990000016336680690955134399_);">
			<g>
				<path class="st1" d="M76.2,188.3c-75,18-114.4,58.8-53.6,113.1h1195.3c20.3-19.7,32.4-45.5,36.2-60.9
					c8.3-33.6-21.5-68.4-74-86.8c-132.8-46.6-243.3,18.1-313.1-9.2c-40.3-15.8-36.5-60.1-68-80.6C729.5,18.4,598.4-4,469.1,4
					c-86,5.3-163.6,22.8-210.9,52.3c-64.8,40.4-17.6,69.3-46.2,97.3C180.1,184.7,126.3,176.2,76.2,188.3z"/>
				<path class="st2" d="M1067,153.1H854.8v144.6H1067V153.1z"/>
				<path class="st3" d="M854.8,153.1l99.6,91.6c1.8,1.6,4.1,2.5,6.5,2.5s4.7-0.9,6.5-2.5l99.6-91.6H854.8z"/>
				<path class="st3" d="M1067,297.7L960.9,186.1L1067,288.2V297.7z"/>
				<path class="st3" d="M854.8,297.7l106.1-111.6L854.8,288.2V297.7z"/>
				<path class="st4" d="M854.8,153.1l98.1,83.5c2.2,1.9,5.1,3,8,3s5.8-1.1,8-3l98.1-83.5H854.8z"/>
				<path class="st5" d="M1075,301.1c0,0-8-3.6-7.4-12.3c0.6-8.7,6.4-10.4,11.5-13.6c5.1-3.1,5.5-8.5,5.7-15s4.5-13,13.1-12.6
					s11.8,2.2,18-5.3s14.6-7.3,18.2-3.1c3.5,4.1,3.7,11.3-1.6,16.2c-6.5,6-8.2,7.5-10.1,14c-2.6,8.9,1.1,17.6-2.1,21.7
					c-4.4,5.5-9.1,4.2-13.6,6s-4.7,4-4.7,4H1075z"/>
				<path class="st6" d="M1126.3,245c-13.2,7.7-36,31.2-39.9,56.2"/>
				<path class="st7" d="M231.7,143.1c6.8,6.3,14.2,10.5,22.8,8.9c12.1-2.3,21.5-14.8,21.5-14.8s3.1,4.1,3.1,4.5s-8,16.4-22.5,19.6
					c-14.5,3.3-27.6-7.2-27.6-7.2L231.7,143.1z"/>
				<path class="st8" d="M356,229.4c2.8,3.9,6.9,6.8,11.5,7.9s9.6,0.7,13.9-1.5l16.1-8c1.5-0.7,3.2-0.9,4.8-0.4s3,1.5,3.9,2.9
					l29.2,46.2c0.5,0.8,0.8,1.6,1,2.5c0.1,0.9,0.1,1.8-0.1,2.7c-0.2,0.9-0.6,1.7-1.2,2.5c-0.5,0.7-1.2,1.3-2,1.8
					c-9.4,5.4-28.9,14.5-50.4,12.7c-30.1-2.5-49.8-30.7-82.9-83.2s-50.2-82.4-39.7-110.9c7.5-20.3,23.9-34.3,32.8-40.6
					c0.7-0.5,1.6-0.9,2.5-1.1c0.9-0.2,1.8-0.2,2.7,0s1.7,0.5,2.5,1s1.4,1.2,1.9,2l29.2,46.2c0.9,1.4,1.2,3.1,1,4.7s-1.1,3.1-2.4,4.2
					l-14,11.3c-3.7,3-6.3,7.3-7.2,12c-0.9,4.8-0.1,9.7,2.3,13.9L356,229.4z"/>
				<path class="st9" d="M318.1,130.5l11.8-9.6c1.3-1,2.1-2.5,2.4-4.2c0.3-1.6-0.1-3.3-1-4.7L316,87.6l-13.9-22
					c-0.5-0.7-1.1-1.3-1.9-1.8c-0.7-0.5-1.6-0.8-2.4-1c-0.9-0.2-1.8-0.1-2.6,0.1c-0.9,0.2-1.7,0.6-2.4,1.1c-3.8,2.8-7.5,5.8-11,9
					L318.1,130.5z"/>
				<path class="st9" d="M420.2,292.1c4.4-1.8,8.6-3.9,12.8-6.2c0.8-0.4,1.4-1,2-1.7s0.9-1.5,1.2-2.4c0.2-0.9,0.3-1.8,0.2-2.6
					c-0.1-0.9-0.4-1.7-0.8-2.5l-30-47.4c-1-1.1-2.3-1.9-3.7-2.1c-1.4-0.3-2.9-0.1-4.2,0.6l-13.7,6.8L420.2,292.1z"/>
				<path class="st10" d="M232.2,143.4l5.5,4.2c0,0,2.5,7.7-1.7,11.7l-7.3-4.5L232.2,143.4z"/>
				<path class="st11" d="M348.8,300.9c3.8-3.1,6.8-7,9-11.5c3.6-7.6,0.4-14.3-4.7-13.3c-5.4,1-6.1-3.4-7.6-9
					c-1.8-6.8-10.4-16.4-17.5-15.4c-9.1,1.2-3.4,11.1-2.4,14.6c0.9,3.6,3.2,7.7-2.4,8.2c-5.2,0.5-7.4,5.2-3.4,10
					c3.8,4.6,8,4.5,8.2,9.2c0.2,4.6,3.1,6,5.5,7.1L348.8,300.9L348.8,300.9z"/>
				<path class="st6" d="M331.7,259.9c0,0,12.4,16.4,9.3,41.1"/>
				<path class="st5" d="M427.5,300.7c1.1-1.7,1.8-3.6,2-5.7c0.2-2,0-4.1-0.6-6c-2.7-8.9-10.9-13-8-18.8c2.5-4.8,9.8-2.4,13.7,4.1
					c3.7,6.3,4,19.5-1.9,26.3L427.5,300.7L427.5,300.7z"/>
				<path class="st6" d="M426.7,272.8c0,0,11.3,12.3,3.9,27.9"/>
				<path class="st12" d="M435.9,300.7c5.8-4,10.4-9.6,13.2-16c4.7-10.8,4.9-23.5,0-28c-4.5-4.2-9.9-1.6-11.3,5.7s1.8,26-7.7,38.3
					H435.9z"/>
				<path class="st6" d="M444.8,258.7c0.8,7.7,0.1,15.4-1.8,22.9c-1.8,6.9-5,13.4-9.3,19.1"/>
				<path class="st11" d="M850.9,297.7c0,0,0.2-14-10.9-27.1c-11.1-13.1-23.7-17.8-34.6-13.8c-8.1,3-6,12.5,0.6,16.5
					c7.9,4.8,37.4,6.7,38.4,24.5h6.5V297.7z"/>
				<path class="st6" d="M806.6,263.1c15-0.9,38,13.1,41.2,34.6"/>
				<path class="st13" d="M854.4,297.7c0,0,7.3-7.8,5.9-22.9c-1.4-15-14.5-18.8-16.9-11.5c-1.9,5.7,10.9,19.1,6.4,34.4H854.4z"/>
				<path class="st6" d="M849.7,264.4c2.8,3.7,8.2,18.7,2.7,33.3"/>
				<path class="st14" d="M243.8,297.4c0.3,0.6,0.1,1.9-2.4,2.9c-2.4,1-6.9,0.6-8.7,0.2s-2.8-0.9-5.4-0.3s-6.9,0.3-8.2-0.8
					c-0.4-0.5-0.1-1.6-0.1-1.6L243.8,297.4z"/>
				<path class="st15" d="M220.4,289.7c-0.4,1.8-1.8,6.1-1.4,8.1c1.8,1.6,5.8,1.7,8.7,0.9c3-0.8,5,0.8,8.7,1s6.7-0.8,7.4-2.3
					c0.8-1.7-5.5-3-9.9-4.3c-2.7-0.8-5.2-2.1-7.4-3.9L220.4,289.7z"/>
				<path class="st16" d="M228.1,293.2c0,0,0.9-2.5,2-3.2"/>
				<path class="st16" d="M231.4,294.5c0,0,0.9-2.5,2-3.2"/>
				<path class="st16" d="M234.7,295.9c0,0,0.9-2.5,2-3.2"/>
				<path class="st17" d="M220.4,282.5v7.2c0.4,0.1,0.8,0.4,1.2,0.7c0.3,0.4,0.8,1.8,1.4,1.8c2.3,0.1,3.7-3,3.7-3l0.9-6.5
					L220.4,282.5z"/>
				<path class="st18" d="M162.8,299.3c-0.5,0.5-1.8,0.6-3.4-1.5c-1.6-2.1-2.4-6.5-2.5-8.4c-0.1-1.8,0.1-3-1.1-5.4s-2.1-6.6-1.4-8.2
					c0.4-0.6,1.5-0.6,1.5-0.6L162.8,299.3z"/>
				<path class="st19" d="M163.9,274.5c-1.8,0.1-6.3-0.2-8.1,0.8c-1,2.2-0.1,6,1.4,8.7s0.6,5.1,1.3,8.7c0.8,3.6,2.5,6.3,4.2,6.6
					c1.8,0.4,1.3-6.2,1.5-10.7c0-2.8,0.6-5.6,1.8-8.1L163.9,274.5z"/>
				<path class="st20" d="M162.6,282.9c0,0,2.6,0.2,3.6,1.1"/>
				<path class="st20" d="M162.2,286.5c0,0,2.6,0.2,3.6,1.1"/>
				<path class="st20" d="M161.9,290c0,0,2.6,0.2,3.6,1.1"/>
				<path class="st17" d="M168.5,271.2l-4.6,3.3c0,0.5-0.1,0.9-0.4,1.3c-0.3,0.5-1.5,1.3-1.3,1.8c0.5,2.3,3.8,2.8,3.8,2.8l6.4-3.5
					L168.5,271.2z"/>
				<path class="st21" d="M234.2,179.9c-8,0-14,0.6-14,0.6c-2.6,1.1-7,7-8.2,10.7s0.6,8.9,1.3,12.1c3.8,17.8,7.6,30.2,9.1,37.3
					c0.9,4.3-2.3,5-2.3,11.9c-0.1,9.8,0.4,30.7,0.4,30.7c2.2,1.1,4.7,1.3,7,0.6c0,0,6-34.5,6.7-38.4c1.1-6.4,1.4-9.1,1.6-20.2
					C235.7,209.6,234.2,179.9,234.2,179.9z"/>
				<path class="st22" d="M234.1,193.4c-1.3,6.3-10.3,13.9-10.3,13.9c-1,2.9-14.2,48.4-16.4,50.1s-34.9,19.5-34.9,19.5
					c-1.4-0.8-2.4-1.9-3.1-3.3c-0.3-0.7-0.6-1.4-0.8-2.2c0-0.1,0-0.2-0.1-0.3c0,0,0,0,0-0.1c0,0,16.8-17.9,20.7-19.8
					c2.1-1.1,4.4-2,6.7-2.6l0,0c4.5-21.1,4.4-37.6,8-49.2c0.6-1.9,1.3-3.9,2.1-5.7c0.9-2.1,1.6-3.8,2.2-5.3c0.2-0.6,0.5-1.2,0.7-1.8
					s0.4-1.1,0.5-1.5c0.1-0.3,0.2-0.6,0.3-0.9c0.4-1.4,0.7-2.4,1-3.4c0.1-0.4,0.3-0.9,0.5-1.4c0.1-0.2,0.2-0.4,0.3-0.7
					c0.1-0.2,0.2-0.5,0.3-0.7l6.2,4.7l3,2.3L234.1,193.4z"/>
				<path class="st23" d="M221.1,185.2c-1.1,1.5-2.4,2.9-3.8,4.1c-4.6,4.1-7.5,10.4-9.9,23.6c-2.8,14.8-7.5,36.8-8.1,38.2
					s-4.7,0.9-12.2,6.4c-5.7,4.2-14,12.9-17.7,16.3c-0.3-0.7-0.6-1.4-0.8-2.2c0-0.1,0-0.3-0.1-0.3c0,0,0,0,0-0.1
					c0,0,16.8-17.9,20.7-19.8c2.1-1.1,4.4-2,6.7-2.6l0,0c4.3-21.1,4.4-37.6,8-49.2c0.6-1.9,1.3-3.9,2.1-5.7c0.9-2.1,1.6-3.8,2.2-5.3
					c0.3-0.6,0.5-1.2,0.7-1.8c0.2-0.5,0.4-1.1,0.5-1.5c0.1-0.3,0.2-0.6,0.3-0.9c0.4-1.4,0.7-2.4,1-3.4c0.1-0.4,0.3-0.9,0.5-1.4
					c0.1-0.2,0.2-0.4,0.3-0.7c0.1-0.2,0.2-0.4,0.3-0.7l6.2,4.7L221.1,185.2z"/>
				<path class="st23" d="M234.1,193.4c0,0-4.1,5.4-15.4,5.8c-7.8,0.3-12.7-2.9-12.7-2.9l3-4.8L234.1,193.4z"/>
				<path class="st24" d="M229.3,181c-4.7,6.1-10.8,9.8-13.2,14c-2.5,4.2-3.9,13.2-7.1,29.7c-3.2,16.4-6.1,27.6-7.1,28.6
					c-0.9,1-6.4,2-15,7.8c-8.6,5.8-18.6,15.2-18.6,15.2"/>
				<path class="st24" d="M224.1,195.4c0,0-1.9,10.4-11.1,8.6"/>
				<path class="st24" d="M170.3,267.9c0,2.8,2,6.8,5.5,9"/>
				<path class="st17" d="M222.7,133.5l7.8,6.7l4.4-10.6l-9.2-5.4L222.7,133.5z"/>
				<path class="st25" d="M233.6,132.7c0,0-9.1-2.6-7.9-8.5l9.2,5.4L233.6,132.7z"/>
				<path class="st26" d="M230.3,140c1.8,1.5,2.9,3.6,3.2,6c0.4,3.8,0.8,9.4,1.1,17.6c0.3,7.4,1,29.1,1,29.1s-5.7,3.7-15.2,3
					c-9.1-0.7-13-5.2-13-5.2s0.9-30.4,3.9-42.4c4.4-12.3,11.4-14.5,11.4-14.5L230.3,140z"/>
				<path class="st17" d="M225.7,124.2c0.3,0.7,0.7,1.4,1.1,2.1c0.5,0.9,8.1,4,10.2,4.3c2,0.2,4.7-0.2,4.1-6.9s-2.2-12.6-6.7-15.7
					s-10.8,0.3-13.4,4.6C218.2,117,221,125.5,225.7,124.2z"/>
				<path class="st27" d="M225.7,124.2l-1,3.1c0,0-0.8,0.4-2.7-2c-2.1-2.7-6-7.2-5.6-10.1c0.5-3.8,4.8-5.2,4.8-5.2s2.2-7,10.8-10.7
					s12.4,2.5,5.8,7.2c0,0,4.6,2.3,1.7,4.1c-2.9,1.8-11.2,1.5-11.2,1.5s4,1.6,2.9,2.7c-1.2,1.1-6.4,0.7-6.4,0.7l0.7,2.7
					c0,0-2.1-0.7-3.3,0.7C220.6,120.6,222.7,125.1,225.7,124.2z"/>
				<path class="st28" d="M220.3,101.9c0,0-2.6,5.6,2.2,9.3c0,0-4.8-0.2-5.8-4.7"/>
				<path class="st25" d="M223,119.7c0.2-0.2,0.5-0.3,0.8-0.3c0.3-0.1,0.6,0,0.9,0.1c0.2,0.1,0,0.4-0.2,0.4c-0.9-0.1-2,0.2-2.1,1.3
					c0,0.1-0.1,0-0.1,0c0-0.3,0-0.5,0.1-0.8C222.6,120.1,222.8,119.9,223,119.7z"/>
				<path class="st25" d="M223.4,119.7c0.1-0.1,0.4,0.1,0.4,0.2c-0.2,0.1-0.3,0.3-0.3,0.5c-0.1,0.3-0.1,0.7,0.1,1
					c0.1,0.4,0.4,0.7,0.7,0.9c0.3,0.2,0.7,0.3,1.1,0.3c0,0,0.1,0,0,0.1c-0.7,0.4-1.7-0.1-2-0.7C222.9,121.4,222.7,120.3,223.4,119.7
					z"/>
				<path class="st10" d="M219.3,140.3c-1.9,1-4.3,6.5-2.6,12.4s4,12,4,12s9-2.1,11.4-7.9c0,0-3.2-7.9-4.7-11
					C226,142.4,224.1,137.8,219.3,140.3z"/>
				<path class="st10" d="M228.8,174.5c2,2,4.8,4.3,6.3,4.9c-0.1-3.4-0.3-6.3-0.4-9.5l-6.8-9.1l-4.4-1.2l-1.6,4.6
					C221.9,164.3,225.6,171.3,228.8,174.5z"/>
				<path class="st17" d="M221.5,140.2c-4.3,1.1-5.7,7.3-1.4,16.9c4.1,9.2,10.8,17.6,14.9,20.4c4.1,2.9,19.9,1.9,33.1-2
					c0,0,7.5-2.7,9.6-4.6c4.7-4.2,4.9-9.7,1.5-8.9s-8.9,4.6-8.9,4.6s-1.4-2.9-2.5-5.1c0,0-0.9,0.2-1.3,2.2c-0.3,2-0.3,4.7-0.9,5.1
					c-1.5,1.1-22.7,2.9-25.3,0.4c-2.9-2.9-7-10.4-10-17.4C227.2,144.1,225.8,139.1,221.5,140.2z"/>
				<path class="st26" d="M220,139.3c-1.9,1-4.3,6.5-2.6,12.4s4,12,4,12s8.5-1.3,12.1-6.2c0,0-3.9-9.6-5.4-12.8
					C226.7,141.4,224.8,136.7,220,139.3z"/>
				
					<linearGradient id="SVGID_00000067198837744640223980000011293381806569339318_" gradientUnits="userSpaceOnUse" x1="973.1" y1="-118.85" x2="1018.1226" y2="-118.85" gradientTransform="matrix(1 0 0 -1 0 50)">
					<stop  offset="0" style="stop-color:#343A44"/>
					<stop  offset="0.3" style="stop-color:#232D3E"/>
					<stop  offset="0.64" style="stop-color:#182439"/>
					<stop  offset="1" style="stop-color:#142138"/>
				</linearGradient>
				<path style="fill:url(#SVGID_00000067198837744640223980000011293381806569339318_);" d="M991,139.6c-2.3,2.2-4,1.5-7.5,13.5
					c-2.2,7.7-10.4,46.6-10.4,46.6l4.9,2.1c6.6-18.6,6.6-18.6,14.3-33.7c2.3-4.6,4.1-9.5,5.3-14.5l14.2-0.9
					c8.9-3.7,5.8-16.8,5.8-16.8S993.3,137.5,991,139.6z"/>
				
					<linearGradient id="SVGID_00000068679127207418185610000012045201268532830393_" gradientUnits="userSpaceOnUse" x1="984.0884" y1="-112.8" x2="1047.8057" y2="-112.8" gradientTransform="matrix(1 0 0 -1 0 50)">
					<stop  offset="0" style="stop-color:#343A44"/>
					<stop  offset="0.3" style="stop-color:#232D3E"/>
					<stop  offset="0.64" style="stop-color:#182439"/>
					<stop  offset="1" style="stop-color:#142138"/>
				</linearGradient>
				<path style="fill:url(#SVGID_00000068679127207418185610000012045201268532830393_);" d="M1044.9,128.1l-12.8-8.3l-12.4,9.7
					l-15.5,5h0.1c-6.2,2.2-13.3,5.4-15.5,7.4c-2.3,2.2-6.9,5.3-3.2,17.3c2.4,7.7,12.7,46.6,12.7,46.6l5.2-0.9c0,0-1.9-22.5-3.8-39.4
					c-0.9-8.2-1.2-10.4-1.2-10.4s34.6,3.8,45.7-2.1C1051.9,148.8,1044.9,134.4,1044.9,128.1z"/>
				<path class="st31" d="M997.8,203.1c0,0,0.2,1.4,2.4,2.1c0.7,0.2,1.4,0.1,2.1-0.1c0.7-0.2,1.3-0.6,1.7-1.2l0.5,4.6l-7.2,5.1h-6
					l3.2-3.6L997.8,203.1z"/>
				<path class="st31" d="M973.8,196.6c-0.3,0.6-0.3,1.2-0.2,1.8c0.2,0.6,0.5,1.1,1.1,1.5c2,1.3,4,0,4,0l-0.9,4.6l-17-5.4
					L973.8,196.6z"/>
				<path class="st32" d="M993.4,81.4c0,0.2,2.8-3.4,2.8-3.4l0.6-3c0.6-0.9,1.3-1.7,2-2.5c0.9-0.9,1.7-4.9,1.7-4.9l-1.2-0.7
					c-0.2,0.8-0.5,1.5-0.9,2.2c-0.3,0.3-0.7,0.4-1.1,0.5c-0.1-0.9-0.1-1.8,0-2.8c0.2-1.6,0.5-3.2,1-4.7l-1-0.5
					c-0.3,0.7-0.7,1.4-0.9,2.2c-0.2,0.7-0.5,2.1-0.5,2.1c0-1.1,0.1-2.1,0.3-3.2c0.2-0.9,0.4-2.1,0.4-2.1l-1-0.3
					c-0.3,0.8-0.5,1.7-0.7,2.6c-0.2,1-0.5,2.8-0.5,2.8c-0.1-1.1-0.1-2.2,0-3.2c0.1-0.4,0.1-0.8,0.1-1.1h-1.1
					c-0.2,0.8-0.4,1.6-0.4,2.4c0,0.6,0,1.3-0.1,1.9c-0.2-0.9-0.3-1.8-0.3-2.6c0.1-0.3,0.1-0.6,0-0.9l-0.8,0.1c0,0-0.5,3.3-0.6,5.3
					c-0.2,2,0.1,4.5,0.1,5.9s0.1,2.5,0.1,2.5L993.4,81.4z"/>
				<path class="st32" d="M1015.2,85.3c-4.2,3.4-8.7,6.6-13.3,9.5c0,0-2.5-6.2-3.6-10.6c-1.4-5.3-1.8-7.7-1.8-7.7l-5-0.4
					c0,0,1.6,13.5,3.5,22.6c1.9,8.9,4.3,7.3,6.4,6.9s22-11.2,22-11.2l-2.1-11.4C1021.3,82.9,1019.9,81.4,1015.2,85.3z"/>
				<path class="st33" d="M1036.2,52.9c-1.1-0.6-6.2-1-9.4,1c-6.2,3.8-3.2,14.3-2.8,16.7c0.4,2.4-1.8,6.8-1.8,9.6
					c0,2.9,0.7,3.9,2.8,6.7c0.4,0.7,0.7,1.4,0.8,2.2c1.6-2.6,2.5-5.5,2.9-8.5c0.5-4.9,1.6-3.8,4-9.2s2.6-13.6,2.6-13.6L1036.2,52.9z
					"/>
				<path class="st33" d="M1031.1,56.5l5.1-3.5c1.3-0.1,2.7,0.1,3.9,0.7s2.2,1.5,3,2.6c2.5,3.9,3.4,9.6,4,13.8
					c0.6,4.3,2.1,12.3,1.9,15.4c-0.1,3.2-3.9,3.6-3.9,3.6l-12.8-5.6c0.9-4.6,0.9-9.4,0.1-14.1C1031.5,65.2,1031.1,60.8,1031.1,56.5z
					"/>
				<path class="st32" d="M1026.8,57.6c-0.3,1.6-1.5,6.3-1.6,9.4c-0.1,3,0.2,8,2.2,9.4s5.7,0.3,8.5-0.9s3.4-3.1,3.9-4.9
					s0.3-6.5-0.3-9.9c-0.6-3.4-2.8-4.8-5.2-5.2C1031.8,55,1026.8,57.6,1026.8,57.6z"/>
				<path class="st32" d="M1038,68.9c0,0-0.7,7.6,0.9,11.1c1.1,2.4,5.5,3.5,5.5,3.5c-0.1,4.8-1.6,9.4-4.2,13.3
					c-4.4,6.6-18.2,9-18.2,9c-1.8-3.7-3.2-7.6-4.1-11.6c-1.4-6.1,2.4-10.9,2.4-10.9s3.8-1.3,5.5-1.9c4.4-1.7,3.8-8.6,3.8-8.6
					L1038,68.9z"/>
				<path class="st26" d="M1029.6,86.3c0,0,8.9-2.3,11.6-4l8.8,5.3c0,0,5.2,5-3.7,18.2c0,0-3.4,12,2.1,33.1c0,0-1.5,5.4-9.8,2.5
					c-7.1-2.5-7.3-4.4-13.6-6c-9.2-2.4-11.7-3.8-11.7-3.8c4.8-7.3,4-18.8,4-18.8s-5.5-5.3-3.1-10.7c3.4-7.8,4.5-18.9,4.5-18.9
					l4.7-1.2c0,0,2.5,3.1,3.8,4.1C1028.7,86.9,1029.6,86.3,1029.6,86.3z"/>
				<path class="st34" d="M1025.7,81.4c0,0,1.1,4.1,3.9,5c0,0-1.1,5.6-3.8,4.6c-3.7-1.4-2.2-9.1-2.2-9.1L1025.7,81.4z"/>
				<path class="st34" d="M1042.3,81.6c0,0-1.7,8.5-6.4,9.2c-4.7,0.7-6.2-4.5-6.2-4.5s9.9-2.9,10.9-6L1042.3,81.6z"/>
				<path class="st33" d="M1034,55.4c0.9,0.1,1.5,4.2,1.6,6.5c0.1,2.3,3.5,4.1,2,9.2s-1.3,9.9-3.3,15.5c-2,5.5,0.5,7.6,1.6,9.4
					c0,0,4.3-4.8,5.8-7.2c0.6-1.1,1.5-1.9,2.6-2.4s2.3-0.6,3.5-0.4c0,0-6.6-12.9-6.4-16.4s0.8-8.8-1.9-12
					C1036.8,54.5,1034,55.4,1034,55.4z"/>
				<path class="st32" d="M1037.5,65.7c0,0,1.8-2,3.1-1.7c1.2,0.3,1.3,2.1,0.4,3.6s-4.3,2.3-4.3,2.3L1037.5,65.7z"/>
				<path class="st33" d="M1033.3,61.8c-1.7,0.2-2.6-0.1-5.2-0.4c-3.3-0.4-4.7,0.5-4.7,0.5l1.2-5.6c0,0,3.9-2.2,6.6-2.2
					c3.5,0,6.6,1.4,4.8,2.5C1034.3,57.9,1033.3,61.8,1033.3,61.8z"/>
				<path class="st32" d="M1042.5,93.8c0.6,7,2.6,26.9,2.6,26.9c-6.3,5.6-15.2,14.8-15.2,14.8s2.5,5,3.6,4.2
					c8.7-6.9,18.6-10.9,19.4-15.7c1.2-7.8,1.6-27.5-1.3-33.9C1049.4,85.2,1041.9,86.4,1042.5,93.8z"/>
				<path class="st32" d="M1026.1,136.2c-2.6,1-4.3,2-4.2,3c0.1,0.7,2.4-0.6,3.7-0.5c-0.7,1.4-1.8,2.5-3.2,3.2
					c-1.7,0.9-2.7,2.1-1.8,3.1s2.7,2.4,3.8,1.9c1.1-0.5,5.1-3.3,6.6-4.1s2.1-2.7,2.9-3.2s-1.4-4.5-1.4-4.5c-0.4,0.1-2.6,0.6-2.6,0.6
					c-0.7,0.1-1.4,0.2-2.2,0.2C1027.2,135.8,1026.6,135.9,1026.1,136.2L1026.1,136.2z"/>
				<path class="st35" d="M808.7,55.1L833,44.9c0.7-0.3,1-1,0.7-1.7l-6-14.5c-0.3-0.7-1-1-1.7-0.7l-24.4,10.2c-0.7,0.3-1,1-0.7,1.7
					l6,14.5C807.2,55,808,55.3,808.7,55.1z"/>
				<path class="st4" d="M808.7,55.1L833,44.9c0.7-0.3,1-1,0.7-1.7l-6-14.5c-0.3-0.7-1-1-1.7-0.7l-24.4,10.2c-0.7,0.3-1,1-0.7,1.7
					l6,14.5C807.2,55,808,55.3,808.7,55.1z"/>
				<path class="st36" d="M828.2,29.9l-8.6,12.9c-0.3,0.5-0.8,0.9-1.3,1.1c-0.5,0.2-1.1,0.3-1.7,0.2l-14.9-3l15.1,3.9
					c0.7,0.2,1.4,0.1,2-0.1c0.6-0.3,1.2-0.7,1.5-1.3L828.2,29.9z"/>
				<path class="st35" d="M846.1,29.1c0.3-5.2-2.5-16.1-6.8-19.8s-1.7,1.1-1.7,1.1s-4-4.8-6.3-4.9S831,8.3,831,8.3s-4.5-3.5-6.7-3.6
					S824,7.4,824,7.4s-3.6-3.2-5.4-2s18.7,18,20.5,24.2C841,35.8,845.8,34.4,846.1,29.1z"/>
				<path class="st8" d="M846.1,29.1c0.3-5.2-2.5-16.1-6.8-19.8s-1.7,1.1-1.7,1.1s-4-4.8-6.3-4.9S831,8.3,831,8.3s-4.5-3.5-6.7-3.6
					S824,7.4,824,7.4s-3.6-3.2-5.4-2s18.7,18,20.5,24.2C841,35.8,845.8,34.4,846.1,29.1z"/>
				<path class="st35" d="M827.3,26.4l-3.1,1.6l-0.1,0.1v0.1c0,0,0,0.1,0.1,0.1l0.1,0.1l3.1,0.1l-0.5,2.4c0,0.1,0,0.1,0,0.2l0.1,0.1
					c0,0,0.1,0,0.2,0c0.1,0,0.1,0,0.2-0.1l2-1.8L827.3,26.4z"/>
				<path class="st8" d="M827.3,26.4l-3.1,1.6l-0.1,0.1v0.1c0,0,0,0.1,0.1,0.1l0.1,0.1l3.1,0.1l-0.5,2.4c0,0.1,0,0.1,0,0.2l0.1,0.1
					c0,0,0.1,0,0.2,0c0.1,0,0.1,0,0.2-0.1l2-1.8L827.3,26.4z"/>
				<path class="st35" d="M869.6,19c0,0-3.8-3.2-10.1-2c0,0-2.6,8-7.7,10.2c-2.8,1.2-9.3,0.4-14.2-1.8c-5.9-2.6-8.9-2.9-10.2-0.7
					c-1.2,2.1-0.4,4.7,4.2,6.3c4.5,1.6,7.4,10.1,15.8,11.1c8.4,1,13.7-7.1,12.4-14.8C862.3,23.5,865.6,20.7,869.6,19L869.6,19z"/>
				<path class="st37" d="M869.6,19c0,0-3.8-3.2-10.1-2c0,0-2.6,8-7.7,10.2c-2.8,1.2-9.3,0.4-14.2-1.8c-5.9-2.6-8.9-2.9-10.2-0.7
					c-1.2,2.1-0.4,4.7,4.2,6.3c4.5,1.6,7.4,10.1,15.8,11.1c8.4,1,13.7-7.1,12.4-14.8C862.3,23.5,865.6,20.7,869.6,19L869.6,19z"/>
				<path class="st38" d="M829.6,26.4c0,0,0,0.1,0,0.2c0,0,0,0.1,0.1,0.1l0.1,0.1c0,0,0.1,0,0.2,0c0,0,0.1,0,0.2,0s0.1,0,0.1-0.1
					l0.1-0.1c0,0,0-0.1,0-0.2s0-0.2-0.1-0.3S830.1,26,830,26s-0.2,0-0.3,0.1C829.7,26.1,829.7,26.2,829.6,26.4L829.6,26.4z"/>
				<path class="st35" d="M850.1,35.4c4.8,1.9,16,2.6,20.8-0.4s-0.5-2-0.5-2s5.7-2.3,6.6-4.5s-2.6-1.1-2.6-1.1s4.7-3.2,5.4-5.3
					c0.8-2.1-2.5-1.1-2.5-1.1s4.2-2.5,3.6-4.5c-0.6-2-22.8,12.4-29.2,12.2C845.3,28.5,845.2,33.5,850.1,35.4z"/>
				<path class="st8" d="M850.1,35.4c4.8,1.9,16,2.6,20.8-0.4s-0.5-2-0.5-2s5.7-2.3,6.6-4.5s-2.6-1.1-2.6-1.1s4.7-3.2,5.4-5.3
					c0.8-2.1-2.5-1.1-2.5-1.1s4.2-2.5,3.6-4.5c-0.6-2-22.8,12.4-29.2,12.2C845.3,28.5,845.2,33.5,850.1,35.4z"/>
				<path class="st39" d="M890.6,14.6c4.2-0.6,8.5-0.9,12.8-0.7c9.1,0.3,23.3,0.9,27.9,10.5c4.2,8.8-5.9,22-9.8,29.3
					c-4.7,9-10.4,20.1-7,30.6c7.3,22,49.6,14.4,63.7-4.1"/>
				<path class="st40" d="M979.4,78.6c0.3-0.5,0.7-1.1,1-1.6"/>
				<path class="st41" d="M1227.1,183.5c-7.6-4.9-74.8,52.3-72.4,97.4c0,0,13.1-17.8,24.5-26.5c11.4-8.7,12.5-17.8,12.5-26.8
					s17.1-5.3,19-15.3C1214.1,194.7,1233.9,187.9,1227.1,183.5z"/>
				<path class="st42" d="M1231.5,225.5c-10.9,6.6-7.7,15.5-14.1,20.6c-4.7,3.8-12.4,1.8-16.3,6.9c-4.4,5.8,0.6,13.7,1,20.6
					c0.5,9.6-8,16.8-16.6,19.7c-10,3.4-23,2.3-28.5-7.7c-6.5-11.9-1.6-29.7,9.7-35.3c2.8-1.4,6.3-1.7,8.5-4.4
					c3.8-4.6,1.4-11.3,3.1-17.1c1.7-5.7,7.3-9.8,12.5-11.5s10.4-2.1,15.5-4.2c6.9-2.8,12.9-9,18.6-13.2c5.1-3.8,23.1-10.7,26,1.5
					C1253.7,212.5,1240.6,220,1231.5,225.5z"/>
				<path class="st43" d="M1232.6,207.7c0,0-44.4,22.5-79.9,95.1"/>
				<path class="st44" d="M1259.4,241.6c0,0-57.1-0.6-104.6,54.2"/>
				<path class="st41" d="M1231.1,267.3c-5.4,2.2-6.9,11.4-12.8,12.6c-4.3,0.9-8.8-3-13-1c-4.7,2.2-3.9,8.9-5.8,13.4
					c-2.7,6.3-10.5,8-17.1,7.1c-7.7-1.1-16-6.1-16.5-14.3c-0.6-9.6,8.2-19.4,17.4-19.2c2.2,0,4.7,1,7,0c4-1.7,4.4-6.7,7.4-9.9
					c3-3.1,7.9-3.8,11.9-3.2c4,0.5,7.6,2.1,11.6,2.4c5.4,0.5,11.4-1.5,16.5-2.2c4.6-0.7,23.2-0.3,16.8,9.5
					C1250.2,269.3,1238.4,264.4,1231.1,267.3z"/>
				<path class="st43" d="M1242.9,258.2c0,0-39.7,3.4-85.8,37.8"/>
				<path class="st42" d="M1113.6,301.2c0,0,9-15.9,10.5-17.6c9.3-10.4,21.6-10.5,34.1-7.9c3.6,0.8,13.2,5.8,16.7,5.1
					c2.7-0.5,6-11,14.7-10.4c8.7,0.5,9.2,11,9.2,11s5.4-12.1,14.2-11c8.7,1.1,8.7,9.3,2.2,15.3c0,0,13.9-4.2,27.3,2.3s7,15,7,15
					L1113.6,301.2z"/>
				<path class="st41" d="M22,193.4c6.8-4.4,67.5,47.2,65.3,87.9c0,0-11.8-16.1-22.1-23.9c-10.3-7.8-11.3-16-11.3-24.2
					c0-8.1-15.4-4.7-17.1-13.8C33.7,203.5,15.9,197.4,22,193.4z"/>
				<path class="st42" d="M18,231.4c9.8,6,6.9,14,12.7,18.6c4.2,3.4,11.2,1.6,14.7,6.2c3.9,5.2-0.5,12.4-0.9,18.6
					c-0.5,8.7,7.2,15.1,15,17.8c9,3.1,20.8,2.1,25.7-7c5.8-10.7,1.5-26.8-8.8-31.8c-2.5-1.2-5.7-1.5-7.7-4
					c-3.4-4.2-1.2-10.2-2.8-15.5c-1.6-5.2-6.6-8.8-11.3-10.4c-4.7-1.6-9.4-1.9-14-3.8c-6.2-2.5-11.7-8.1-16.8-11.9
					c-4.6-3.4-20.8-9.7-23.5,1.4C-2,219.6,9.8,226.3,18,231.4z"/>
				<path class="st43" d="M17,215.3c0,0,40.1,20.3,72.1,85.8"/>
				<path class="st44" d="M-7.2,245.9c0,0,51.5-0.6,94.4,48.9"/>
				<path class="st41" d="M18.4,269c4.9,2,6.2,10.3,11.5,11.4c3.8,0.8,8-2.7,11.7-0.9c4.2,2,3.5,8,5.2,12.1
					c2.4,5.6,9.5,7.3,15.5,6.4c7-1,14.4-5.5,14.9-12.9c0.6-8.7-7.4-17.5-15.8-17.3c-2,0-4.2,0.9-6.4,0c-3.6-1.5-4-6-6.7-8.9
					s-7.1-3.4-10.8-2.9c-3.6,0.5-6.9,1.9-10.5,2.2c-4.9,0.4-10.3-1.4-14.9-2c-4.1-0.6-20.9-0.3-15.2,8.6
					C1.2,270.9,11.8,266.4,18.4,269z"/>
				<path class="st43" d="M7.8,260.9c0,0,35.8,3.1,77.4,34.1"/>
				<path class="st42" d="M124.4,299.6c0,0-8.1-14.4-9.5-15.9c-8.4-9.4-19.5-9.5-30.8-7.1c-3.3,0.7-11.9,5.3-15.1,4.6
					c-2.4-0.5-5.4-9.9-13.2-9.4s-8.3,9.9-8.3,9.9s-4.9-10.9-12.8-9.9s-7.8,8.4-2,13.9c0,0-12.5-3.8-24.6,2.1s-6.3,13.5-6.3,13.5
					L124.4,299.6z"/>
				<path class="st9" d="M326.4,41.5c8.5-2,13.8-10.6,11.8-19.2s-10.5-13.9-19-11.9S305.4,21,307.4,29.6S317.9,43.5,326.4,41.5z"/>
				<path class="st45" d="M324.9,39.3c7.3-1.2,12.3-8.2,11.1-15.6c-1.2-7.4-8.1-12.4-15.5-11.2c-7.3,1.2-12.3,8.2-11.1,15.6
					C310.7,35.5,317.6,40.5,324.9,39.3z"/>
				<path class="st46" d="M323.4,16.7v9.5l6.2-3.6"/>
				<g class="st47">
					<path class="st9" d="M771.2,219.4h38.1c2.1,0,3.8-1.7,5-3.8v-31.5c-1.2-2.1-2.9-3.8-5-3.8h-38.1c-1,0-2,0.4-2.7,1.1
						s-1.1,1.7-1.1,2.7v31.5c0,1,0.4,2,1.1,2.7C769.3,219,770.2,219.4,771.2,219.4z"/>
					<path class="st48" d="M800.7,206.4h-17.8h-3.2v-14.2h21v3.6V206.4z"/>
					<path class="st48" d="M779.6,192.2l10.5,8.4l10.5-8.4"/>
				</g>
				<g class="st47">
					<path class="st9" d="M130.5,156.2h-39c-2.5,0-4.5,2-4.5,4.5v38c0,2.5,2,4.5,4.5,4.5h39c2.5,0,4.5-2,4.5-4.5v-38
						C134.9,158.2,133,156.2,130.5,156.2z"/>
					<path class="st34" d="M100.3,170.4c-1.9,1.9-3.2,4.4-3.7,7s-0.3,5.4,0.8,7.9s2.8,4.6,5,6.1s4.8,2.3,7.5,2.3s5.3-0.8,7.5-2.3
						s4-3.6,5-6.1s1.3-5.2,0.8-7.9c-0.5-2.6-1.8-5.1-3.7-7c-2.6-2.6-6-4-9.6-4C106.3,166.4,102.9,167.9,100.3,170.4z M119.5,172.4
						h-4.3c-0.4-1.4-1-2.8-1.7-4.1C115.8,169,117.9,170.4,119.5,172.4L119.5,172.4z M104.9,179.3c0-1.8,0.2-3.6,0.7-5.3h8.7
						c0.4,1.7,0.6,3.5,0.6,5.3H104.9z M114.8,180.9c-0.1,1.8-0.4,3.6-0.9,5.3h-8c-0.5-1.7-0.8-3.5-0.9-5.3H114.8z M109.9,167.8
						c0.6,0,1.3,0.1,1.9,0.1c0.8,1.4,1.5,2.9,2,4.5H106c0.5-1.6,1.2-3.1,2-4.5C108.7,167.8,109.3,167.8,109.9,167.8L109.9,167.8z
						 M106.4,168.3c-0.7,1.3-1.2,2.7-1.7,4.1h-4.3C101.9,170.4,104,169,106.4,168.3L106.4,168.3z M99.3,174h5
						c-0.4,1.7-0.6,3.5-0.7,5.3h-5.8C97.9,177.4,98.4,175.6,99.3,174z M99.3,186.2c-0.9-1.6-1.5-3.4-1.6-5.3h5.9
						c0.1,1.8,0.4,3.6,0.8,5.3H99.3z M100.4,187.8h4.5c0.5,1.4,1,2.8,1.7,4.1C104.1,191.2,101.9,189.8,100.4,187.8L100.4,187.8z
						 M109.9,192.4c-0.5,0-1.1-0.1-1.6-0.1c-0.7-1.5-1.4-3-1.9-4.5h7c-0.5,1.6-1.2,3.1-1.9,4.5C111,192.4,110.5,192.4,109.9,192.4
						L109.9,192.4z M113.3,191.9c0.7-1.3,1.2-2.7,1.7-4.1h4.5C117.9,189.8,115.7,191.2,113.3,191.9L113.3,191.9z M120.6,186.2h-5.1
						c0.5-1.7,0.7-3.5,0.8-5.3h5.8C122,182.8,121.5,184.6,120.6,186.2L120.6,186.2z M122.1,179.3h-5.8c0-1.8-0.2-3.6-0.7-5.3h4.9
						C121.5,175.6,122,177.4,122.1,179.3L122.1,179.3z"/>
				</g>
				<g class="st49">
					<path class="st9" d="M109.9,60.9H85.7c-1.5,0-2.8,1.2-2.8,2.8v23.6c0,1.5,1.2,2.8,2.8,2.8h24.2c1.5,0,2.8-1.2,2.8-2.8V63.7
						C112.7,62.1,111.5,60.9,109.9,60.9z"/>
					<path class="st34" d="M91.2,69.7c-1.2,1.2-2,2.7-2.3,4.3c-0.3,1.6-0.2,3.3,0.5,4.9c0.6,1.6,1.7,2.9,3.1,3.8s3,1.4,4.7,1.4
						s3.3-0.5,4.7-1.4c1.4-0.9,2.5-2.3,3.1-3.8c0.6-1.6,0.8-3.3,0.5-4.9c-0.3-1.7-1.1-3.2-2.3-4.3c-1.6-1.6-3.7-2.5-5.9-2.5
						S92.8,68.1,91.2,69.7z M103.1,70.9h-2.7c-0.3-0.9-0.6-1.7-1-2.5C100.9,68.8,102.2,69.7,103.1,70.9L103.1,70.9z M94.1,75.2
						c0-1.1,0.1-2.2,0.4-3.3h5.4c0.3,1.1,0.4,2.2,0.4,3.3H94.1z M100.2,76.2c-0.1,1.1-0.3,2.2-0.6,3.3h-5c-0.3-1.1-0.5-2.2-0.6-3.3
						H100.2z M97.2,68.1c0.4,0,0.8,0,1.2,0.1c0.5,0.9,0.9,1.8,1.2,2.8h-4.8c0.3-1,0.7-1.9,1.2-2.8C96.4,68.1,96.8,68.1,97.2,68.1
						L97.2,68.1L97.2,68.1z M95,68.4c-0.4,0.8-0.8,1.7-1,2.5h-2.7C92.2,69.7,93.5,68.8,95,68.4L95,68.4z M90.6,71.9h3.1
						c-0.3,1.1-0.4,2.2-0.4,3.3h-3.6C89.7,74.1,90,72.9,90.6,71.9L90.6,71.9L90.6,71.9z M90.6,79.5c-0.6-1-0.9-2.1-1-3.3h3.6
						c0.1,1.1,0.2,2.2,0.5,3.3H90.6z M91.3,80.5h2.8c0.3,0.9,0.6,1.8,1,2.6C93.6,82.6,92.2,81.7,91.3,80.5L91.3,80.5z M97.2,83.4
						c-0.3,0-0.7,0-1-0.1c-0.5-0.9-0.8-1.8-1.2-2.8h4.3c-0.3,1-0.7,1.9-1.2,2.8C97.8,83.3,97.5,83.4,97.2,83.4L97.2,83.4z
						 M99.3,83.1c0.4-0.8,0.8-1.7,1-2.6h2.8C102.1,81.7,100.8,82.6,99.3,83.1L99.3,83.1z M103.8,79.5h-3.2c0.3-1.1,0.5-2.2,0.5-3.3
						h3.6C104.7,77.4,104.3,78.5,103.8,79.5L103.8,79.5z M104.8,75.2h-3.6c0-1.1-0.2-2.2-0.4-3.3h3.1
						C104.4,72.9,104.7,74.1,104.8,75.2L104.8,75.2z"/>
				</g>
				<path class="st50" d="M111.4,96.5H43.2c-0.7,0-1.3-0.3-1.8-0.8s-0.8-1.1-0.8-1.8l0,0c0-0.3,0.1-0.7,0.2-1
					c0.1-0.3,0.3-0.6,0.5-0.8c0.2-0.2,0.5-0.4,0.8-0.6s0.6-0.2,1-0.2h68.2c0.7,0,1.3,0.3,1.8,0.8s0.8,1.1,0.8,1.8
					c0,0.3-0.1,0.7-0.2,1s-0.3,0.6-0.6,0.8c-0.2,0.2-0.5,0.4-0.8,0.6C112,96.4,111.7,96.5,111.4,96.5L111.4,96.5z"/>
				<path class="st50" d="M407.4,177.6h-33.1c-0.7,0-1.3-0.3-1.8-0.8s-0.8-1.1-0.8-1.8l0,0c0-0.3,0.1-0.7,0.2-1s0.3-0.6,0.5-0.8
					s0.5-0.4,0.8-0.6s0.6-0.2,1-0.2h33.1c0.7,0,1.3,0.3,1.8,0.8s0.8,1.1,0.8,1.8s-0.3,1.3-0.8,1.8
					C408.7,177.3,408,177.6,407.4,177.6L407.4,177.6z"/>
				<path class="st50" d="M384.2,199.6h-4c-1.1,0-1.9,0.9-1.9,1.9v3.8c0,1.1,0.9,1.9,1.9,1.9h4c1.1,0,1.9-0.9,1.9-1.9v-3.8
					C386.1,200.5,385.3,199.6,384.2,199.6z"/>
				<path class="st50" d="M728.4,41.9h-33.1c-0.7,0-1.3-0.3-1.8-0.8s-0.8-1.1-0.8-1.8l0,0c0-0.3,0.1-0.7,0.2-1
					c0.1-0.3,0.3-0.6,0.5-0.8s0.5-0.4,0.8-0.6s0.6-0.2,1-0.2h33.1c0.7,0,1.3,0.3,1.8,0.8s0.8,1.1,0.8,1.8s-0.3,1.3-0.8,1.8
					C729.7,41.6,729,41.9,728.4,41.9L728.4,41.9z"/>
				<path class="st50" d="M705.2,63.9h-4c-1.1,0-1.9,0.9-1.9,1.9v3.8c0,1.1,0.9,1.9,1.9,1.9h4c1.1,0,1.9-0.9,1.9-1.9v-3.8
					C707.1,64.8,706.3,63.9,705.2,63.9z"/>
				<g class="st47">
					<path class="st9" d="M1190.1,41.5h-87.7c-0.7,0-1.4-0.3-1.9-0.8s-0.8-1.2-0.8-1.9V17.3c0-0.7,0.3-1.4,0.8-1.9s1.2-0.8,1.9-0.8
						h87.7c0.7,0,1.4,0.3,1.8,0.8c0.5,0.5,0.8,1.2,0.8,1.9l1.8,21.6C1194.5,40.3,1191.6,41.5,1190.1,41.5z"/>
					<path class="st51" d="M1112.5,24.2h62.4"/>
					<path class="st51" d="M1112.5,30.6h25.4"/>
					<path class="st9" d="M1109.9,38.5V49l13.1-10.5H1109.9z"/>
				</g>
				<g class="st47">
					<path class="st9" d="M205.6,92.7H173c-1.5,0-3-0.6-4.1-1.7s-1.7-2.6-1.7-4.1V56.4c0-1.2,0.5-2.3,1.3-3.1s1.9-1.3,3.1-1.3h34
						c1.1,0,2.3,0.5,3.1,1.3s1.3,1.9,1.3,3.1v31.9c0,1.2-0.5,2.3-1.3,3.1C207.8,92.2,206.7,92.7,205.6,92.7L205.6,92.7z"/>
					<path class="st34" d="M197.2,75.4l-2.4-2.4c-0.2-0.2-0.4-0.4-0.7-0.5s-0.6-0.2-0.9-0.2c-0.6,0-1.1,0.2-1.6,0.7l-1.4,1.4
						l-0.3-0.1c-0.1-0.1-0.3-0.1-0.4-0.2c-1.4-0.9-2.6-2-3.6-3.3c-0.4-0.5-0.8-1.2-1.1-1.8c0.3-0.3,0.7-0.7,1-1l0.4-0.4
						c0.2-0.2,0.4-0.4,0.5-0.7c0.1-0.3,0.2-0.6,0.2-0.9s-0.1-0.6-0.2-0.9c-0.1-0.3-0.3-0.5-0.5-0.7L185,63c-0.1-0.1-0.3-0.3-0.4-0.4
						l-0.8-0.8c-0.4-0.4-1-0.7-1.6-0.7c-0.3,0-0.6,0.1-0.9,0.2s-0.5,0.3-0.7,0.5l-1.5,1.5c-0.6,0.6-0.9,1.3-1,2.1
						c-0.1,1.1,0.1,2.3,0.6,3.3c0.8,2.1,1.9,4.1,3.4,5.7c1.9,2.3,4.3,4.2,6.9,5.5c1.2,0.6,2.5,1,3.9,1.2h0.3c0.5,0,1-0.1,1.4-0.3
						c0.4-0.2,0.9-0.5,1.2-0.8l0.1-0.1c0.2-0.3,0.5-0.5,0.8-0.8l0.6-0.6c0.2-0.2,0.4-0.4,0.5-0.7c0.1-0.3,0.2-0.6,0.2-0.9
						s-0.1-0.6-0.2-0.9C197.6,75.8,197.4,75.6,197.2,75.4L197.2,75.4z M196.2,77.7l-0.5,0.5c-0.3,0.3-0.6,0.6-0.9,0.9
						c-0.2,0.2-0.4,0.4-0.7,0.5s-0.6,0.2-0.9,0.2H193c-1.2-0.1-2.3-0.5-3.4-1.1c-2.5-1.2-4.7-3-6.5-5.1c-1.3-1.6-2.4-3.4-3.2-5.3
						c-0.4-0.8-0.6-1.8-0.5-2.7c0-0.5,0.2-0.9,0.6-1.3l1.5-1.5c0.2-0.2,0.4-0.3,0.6-0.3c0.1,0,0.2,0,0.3,0.1c0.1,0,0.2,0.1,0.3,0.2
						l0.8,0.8c0.1,0.2,0.3,0.3,0.4,0.4l1.2,1.2c0.2,0.2,0.3,0.4,0.3,0.6s-0.1,0.4-0.3,0.6l-0.4,0.4l-1.1,1.1V68
						c-0.1,0.1-0.3,0.3-0.3,0.5c-0.1,0.2,0,0.4,0.1,0.6l0,0c0.4,0.8,0.9,1.7,1.4,2.4c1.1,1.4,2.4,2.6,3.9,3.6
						c0.2,0.1,0.4,0.2,0.6,0.3c0.1,0.1,0.3,0.1,0.4,0.2l0.1,0.1c0.2,0.1,0.4,0.1,0.6,0.1s0.4-0.2,0.6-0.3l1.5-1.5
						c0.1-0.2,0.4-0.3,0.6-0.3c0.2,0,0.4,0.1,0.6,0.3l2.4,2.4c0.1,0.1,0.2,0.2,0.2,0.3s0.1,0.2,0.1,0.3c0,0.1,0,0.2-0.1,0.3
						C196.4,77.5,196.3,77.6,196.2,77.7L196.2,77.7L196.2,77.7z"/>
				</g>
				<path class="st52" d="M6.8,300.5H1240"/>
			</g>
		</g>
	</g>
</g>
</svg>
