<svg xmlns="http://www.w3.org/2000/svg" xmlns:xlink="http://www.w3.org/1999/xlink" viewBox="0 0 1245 300.93"><defs><style>.cls-1,.cls-13,.cls-17,.cls-21,.cls-25,.cls-36,.cls-37,.cls-39,.cls-41,.cls-44{fill:none;}.cls-2{clip-path:url(#clip-path);}.cls-3{fill:url(#radial-gradient);}.cls-4{fill:#ffc253;}.cls-5{fill:#e09736;}.cls-6{fill:#ffc854;}.cls-7{fill:#dd7a79;}.cls-34,.cls-43,.cls-8{fill:#4aa4f4;}.cls-9{fill:#2e90e8;}.cls-10{fill:#309ad6;}.cls-11{fill:#8fc9c6;}.cls-12{fill:#228c7e;}.cls-13{stroke:#8fc9c6;}.cls-13,.cls-17,.cls-25,.cls-36,.cls-37,.cls-39,.cls-41{stroke-linecap:round;}.cls-13,.cls-17,.cls-21,.cls-25,.cls-44{stroke-miterlimit:10;}.cls-13,.cls-17,.cls-21{stroke-width:0.53px;}.cls-14{fill:#ff9a8d;}.cls-15{fill:#aaeeed;}.cls-16{fill:#03aa99;}.cls-17{stroke:#aaeeed;}.cls-18{fill:#1e4174;}.cls-19{fill:#85b8ed;}.cls-20{fill:#4e7eac;}.cls-21{stroke:#274d79;}.cls-22{fill:#ba5964;}.cls-23{fill:#42b2fc;}.cls-24{fill:#001c45;}.cls-25{stroke:#001c45;stroke-width:0.79px;}.cls-26{fill:url(#linear-gradient);}.cls-27{fill:url(#linear-gradient-2);}.cls-28{fill:#133a50;}.cls-29{fill:#fec4ad;}.cls-30{fill:#471a16;}.cls-31{fill:#fff;}.cls-32{fill:#407bff;}.cls-33,.cls-34,.cls-43{isolation:isolate;}.cls-33,.cls-42{opacity:0.2;}.cls-34{opacity:0.7;}.cls-35{fill:#263238;}.cls-36,.cls-37{stroke:#407bff;stroke-width:0.75px;}.cls-36,.cls-37,.cls-39,.cls-41{stroke-linejoin:round;}.cls-36{stroke-dasharray:5.89 5.89;}.cls-38{fill:#f0f0f0;}.cls-39{stroke:#2e90e8;}.cls-40,.cls-43{opacity:0.8;}.cls-41,.cls-44{stroke:#fff;}.cls-41{stroke-width:1.65px;}.cls-44{stroke-width:1.18px;}</style><clipPath id="clip-path"><rect class="cls-1" width="1245" height="300"/></clipPath><radialGradient id="radial-gradient" cx="992.38" cy="513.24" r="700.62" gradientTransform="matrix(-0.76, 0.55, -0.47, -0.5, 1981.94, -533.65)" gradientUnits="userSpaceOnUse"><stop offset="0" stop-color="#73d7ff"/><stop offset="1" stop-color="#002bc6"/></radialGradient><linearGradient id="linear-gradient" x1="973.1" y1="960.74" x2="1018.12" y2="960.74" gradientTransform="translate(0 -791.89)" gradientUnits="userSpaceOnUse"><stop offset="0" stop-color="#343a44"/><stop offset="0.3" stop-color="#232d3e"/><stop offset="0.64" stop-color="#182439"/><stop offset="1" stop-color="#142138"/></linearGradient><linearGradient id="linear-gradient-2" x1="984.09" y1="954.69" x2="1047.81" y2="954.69" xlink:href="#linear-gradient"/></defs><g id="Layer_2" data-name="Layer 2"><g id="Слой_1" data-name="Слой 1"><g class="cls-2"><rect class="cls-3" width="1245" height="300"/><path class="cls-4" d="M1067,153.1H854.8V297.7H1067Z"/><path class="cls-5" d="M854.8,153.1l99.6,91.6a9.7,9.7,0,0,0,13,0l99.6-91.6Z"/><path class="cls-5" d="M1067,297.7,960.9,186.1,1067,288.2Z"/><path class="cls-5" d="M854.8,297.7,960.9,186.1,854.8,288.2Z"/><path class="cls-6" d="M854.8,153.1l98.1,83.5a12.17,12.17,0,0,0,16,0l98.1-83.5Z"/><path class="cls-7" d="M231.7,143.1c6.8,6.3,14.2,10.5,22.8,8.9,12.1-2.3,21.5-14.8,21.5-14.8a43.82,43.82,0,0,1,3.1,4.5c0,.4-8,16.4-22.5,19.6s-27.6-7.2-27.6-7.2Z"/><path class="cls-8" d="M356,229.4a20.11,20.11,0,0,0,25.4,6.4l16.1-8a6.65,6.65,0,0,1,4.8-.4,7.12,7.12,0,0,1,3.9,2.9l29.2,46.2a7.71,7.71,0,0,1,1,2.5,8.17,8.17,0,0,1-.1,2.7,6.42,6.42,0,0,1-1.2,2.5,7,7,0,0,1-2,1.8c-9.4,5.4-28.9,14.5-50.4,12.7-30.1-2.5-49.8-30.7-82.9-83.2s-50.2-82.4-39.7-110.9C267.6,84.3,284,70.3,292.9,64a7.07,7.07,0,0,1,2.5-1.1,6.15,6.15,0,0,1,2.7,0,7.71,7.71,0,0,1,2.5,1,6.06,6.06,0,0,1,1.9,2l29.2,46.2a7.1,7.1,0,0,1,1,4.7,6.71,6.71,0,0,1-2.4,4.2l-14,11.3a20.35,20.35,0,0,0-4.9,25.9Z"/><path class="cls-9" d="M318.1,130.5l11.8-9.6a6.64,6.64,0,0,0,2.4-4.2,6.56,6.56,0,0,0-1-4.7L316,87.6l-13.9-22a6.56,6.56,0,0,0-1.9-1.8,7.2,7.2,0,0,0-2.4-1,5.66,5.66,0,0,0-2.6.1,6.59,6.59,0,0,0-2.4,1.1,134.88,134.88,0,0,0-11,9Z"/><path class="cls-9" d="M420.2,292.1a125.62,125.62,0,0,0,12.8-6.2,6.48,6.48,0,0,0,2-1.7,6.77,6.77,0,0,0,1.2-2.4,7.82,7.82,0,0,0,.2-2.6,7.32,7.32,0,0,0-.8-2.5l-30-47.4a6.34,6.34,0,0,0-3.7-2.1,6.16,6.16,0,0,0-4.2.6L384,234.6Z"/><path class="cls-10" d="M232.2,143.4l5.5,4.2s2.5,7.7-1.7,11.7l-7.3-4.5Z"/><path class="cls-11" d="M243.8,297.4c.3.6.1,1.9-2.4,2.9s-6.9.6-8.7.2-2.8-.9-5.4-.3-6.9.3-8.2-.8c-.4-.5-.1-1.6-.1-1.6Z"/><path class="cls-12" d="M220.4,289.7c-.4,1.8-1.8,6.1-1.4,8.1,1.8,1.6,5.8,1.7,8.7.9s5,.8,8.7,1,6.7-.8,7.4-2.3c.8-1.7-5.5-3-9.9-4.3a21.08,21.08,0,0,1-7.4-3.9Z"/><path class="cls-13" d="M228.1,293.2s.9-2.5,2-3.2"/><path class="cls-13" d="M231.4,294.5s.9-2.5,2-3.2"/><path class="cls-13" d="M234.7,295.9s.9-2.5,2-3.2"/><path class="cls-14" d="M220.4,282.5v7.2a3.75,3.75,0,0,1,1.2.7c.3.4.8,1.8,1.4,1.8,2.3.1,3.7-3,3.7-3l.9-6.5Z"/><path class="cls-15" d="M162.8,299.3c-.5.5-1.8.6-3.4-1.5s-2.4-6.5-2.5-8.4.1-3-1.1-5.4-2.1-6.6-1.4-8.2c.4-.6,1.5-.6,1.5-.6Z"/><path class="cls-16" d="M163.9,274.5c-1.8.1-6.3-.2-8.1.8-1,2.2-.1,6,1.4,8.7s.6,5.1,1.3,8.7,2.5,6.3,4.2,6.6,1.3-6.2,1.5-10.7a18.79,18.79,0,0,1,1.8-8.1Z"/><path class="cls-17" d="M162.6,282.9s2.6.2,3.6,1.1"/><path class="cls-17" d="M162.2,286.5s2.6.2,3.6,1.1"/><path class="cls-17" d="M161.9,290s2.6.2,3.6,1.1"/><path class="cls-14" d="M168.5,271.2l-4.6,3.3a2,2,0,0,1-.4,1.3c-.3.5-1.5,1.3-1.3,1.8.5,2.3,3.8,2.8,3.8,2.8l6.4-3.5Z"/><path class="cls-18" d="M234.2,179.9c-8,0-14,.6-14,.6-2.6,1.1-7,7-8.2,10.7s.6,8.9,1.3,12.1c3.8,17.8,7.6,30.2,9.1,37.3.9,4.3-2.3,5-2.3,11.9-.1,9.8.4,30.7.4,30.7a9.47,9.47,0,0,0,7,.6s6-34.5,6.7-38.4c1.1-6.4,1.4-9.1,1.6-20.2C235.7,209.6,234.2,179.9,234.2,179.9Z"/><path class="cls-19" d="M234.1,193.4c-1.3,6.3-10.3,13.9-10.3,13.9-1,2.9-14.2,48.4-16.4,50.1s-34.9,19.5-34.9,19.5a7.59,7.59,0,0,1-3.1-3.3,14.27,14.27,0,0,1-.8-2.2.37.37,0,0,0-.1-.3V271s16.8-17.9,20.7-19.8a32.07,32.07,0,0,1,6.7-2.6h0c4.5-21.1,4.4-37.6,8-49.2a55.39,55.39,0,0,1,2.1-5.7c.9-2.1,1.6-3.8,2.2-5.3.2-.6.5-1.2.7-1.8s.4-1.1.5-1.5l.3-.9c.4-1.4.7-2.4,1-3.4a12.13,12.13,0,0,1,.5-1.4,4.88,4.88,0,0,0,.3-.7c.1-.2.2-.5.3-.7l6.2,4.7,3,2.3Z"/><path class="cls-20" d="M221.1,185.2a24.65,24.65,0,0,1-3.8,4.1c-4.6,4.1-7.5,10.4-9.9,23.6-2.8,14.8-7.5,36.8-8.1,38.2s-4.7.9-12.2,6.4c-5.7,4.2-14,12.9-17.7,16.3a14.27,14.27,0,0,1-.8-2.2c0-.1,0-.3-.1-.3v-.1s16.8-17.9,20.7-19.8a32.07,32.07,0,0,1,6.7-2.6h0c4.3-21.1,4.4-37.6,8-49.2a55.39,55.39,0,0,1,2.1-5.7c.9-2.1,1.6-3.8,2.2-5.3a13.36,13.36,0,0,0,.7-1.8,13.14,13.14,0,0,0,.5-1.5l.3-.9c.4-1.4.7-2.4,1-3.4a12.13,12.13,0,0,1,.5-1.4,63434527725044.88,63434527725044.88,0,0,0,.6-1.4l6.2,4.7Z"/><path class="cls-20" d="M234.1,193.4s-4.1,5.4-15.4,5.8a23.18,23.18,0,0,1-12.7-2.9l3-4.8Z"/><path class="cls-21" d="M229.3,181c-4.7,6.1-10.8,9.8-13.2,14s-3.9,13.2-7.1,29.7-6.1,27.6-7.1,28.6-6.4,2-15,7.8-18.6,15.2-18.6,15.2"/><path class="cls-21" d="M224.1,195.4s-1.9,10.4-11.1,8.6"/><path class="cls-21" d="M170.3,267.9c0,2.8,2,6.8,5.5,9"/><path class="cls-14" d="M222.7,133.5l7.8,6.7,4.4-10.6-9.2-5.4Z"/><path class="cls-22" d="M233.6,132.7s-9.1-2.6-7.9-8.5l9.2,5.4Z"/><path class="cls-23" d="M230.3,140a9.15,9.15,0,0,1,3.2,6c.4,3.8.8,9.4,1.1,17.6.3,7.4,1,29.1,1,29.1s-5.7,3.7-15.2,3c-9.1-.7-13-5.2-13-5.2s.9-30.4,3.9-42.4c4.4-12.3,11.4-14.5,11.4-14.5Z"/><path class="cls-14" d="M225.7,124.2a21.16,21.16,0,0,0,1.1,2.1c.5.9,8.1,4,10.2,4.3s4.7-.2,4.1-6.9-2.2-12.6-6.7-15.7-10.8.3-13.4,4.6C218.2,117,221,125.5,225.7,124.2Z"/><path class="cls-24" d="M225.7,124.2l-1,3.1s-.8.4-2.7-2c-2.1-2.7-6-7.2-5.6-10.1.5-3.8,4.8-5.2,4.8-5.2s2.2-7,10.8-10.7,12.4,2.5,5.8,7.2c0,0,4.6,2.3,1.7,4.1s-11.2,1.5-11.2,1.5,4,1.6,2.9,2.7-6.4.7-6.4.7l.7,2.7s-2.1-.7-3.3.7C220.6,120.6,222.7,125.1,225.7,124.2Z"/><path class="cls-25" d="M220.3,101.9s-2.6,5.6,2.2,9.3c0,0-4.8-.2-5.8-4.7"/><path class="cls-22" d="M223,119.7a1.14,1.14,0,0,1,.8-.3,1.41,1.41,0,0,1,.9.1c.2.1,0,.4-.2.4-.9-.1-2,.2-2.1,1.3,0,.1-.1,0-.1,0a2.2,2.2,0,0,1,.1-.8A4.35,4.35,0,0,1,223,119.7Z"/><path class="cls-22" d="M223.4,119.7c.1-.1.4.1.4.2a.55.55,0,0,0-.3.5,1.18,1.18,0,0,0,.1,1,1.6,1.6,0,0,0,.7.9,2,2,0,0,0,1.1.3s.1,0,0,.1a1.59,1.59,0,0,1-2-.7A1.69,1.69,0,0,1,223.4,119.7Z"/><path class="cls-10" d="M219.3,140.3c-1.9,1-4.3,6.5-2.6,12.4s4,12,4,12,9-2.1,11.4-7.9c0,0-3.2-7.9-4.7-11C226,142.4,224.1,137.8,219.3,140.3Z"/><path class="cls-10" d="M228.8,174.5c2,2,4.8,4.3,6.3,4.9-.1-3.4-.3-6.3-.4-9.5l-6.8-9.1-4.4-1.2-1.6,4.6C221.9,164.3,225.6,171.3,228.8,174.5Z"/><path class="cls-14" d="M221.5,140.2c-4.3,1.1-5.7,7.3-1.4,16.9,4.1,9.2,10.8,17.6,14.9,20.4s19.9,1.9,33.1-2c0,0,7.5-2.7,9.6-4.6,4.7-4.2,4.9-9.7,1.5-8.9s-8.9,4.6-8.9,4.6-1.4-2.9-2.5-5.1c0,0-.9.2-1.3,2.2s-.3,4.7-.9,5.1c-1.5,1.1-22.7,2.9-25.3.4-2.9-2.9-7-10.4-10-17.4C227.2,144.1,225.8,139.1,221.5,140.2Z"/><path class="cls-23" d="M220,139.3c-1.9,1-4.3,6.5-2.6,12.4s4,12,4,12,8.5-1.3,12.1-6.2c0,0-3.9-9.6-5.4-12.8S224.8,136.7,220,139.3Z"/><path class="cls-26" d="M991,139.6c-2.3,2.2-4,1.5-7.5,13.5-2.2,7.7-10.4,46.6-10.4,46.6l4.9,2.1c6.6-18.6,6.6-18.6,14.3-33.7a68.1,68.1,0,0,0,5.3-14.5l14.2-.9c8.9-3.7,5.8-16.8,5.8-16.8S993.3,137.5,991,139.6Z"/><path class="cls-27" d="M1044.9,128.1l-12.8-8.3-12.4,9.7-15.5,5h.1c-6.2,2.2-13.3,5.4-15.5,7.4-2.3,2.2-6.9,5.3-3.2,17.3,2.4,7.7,12.7,46.6,12.7,46.6l5.2-.9s-1.9-22.5-3.8-39.4c-.9-8.2-1.2-10.4-1.2-10.4s34.6,3.8,45.7-2.1C1051.9,148.8,1044.9,134.4,1044.9,128.1Z"/><path class="cls-28" d="M997.8,203.1s.2,1.4,2.4,2.1a3.76,3.76,0,0,0,2.1-.1,3,3,0,0,0,1.7-1.2l.5,4.6-7.2,5.1h-6l3.2-3.6Z"/><path class="cls-28" d="M973.8,196.6a2.82,2.82,0,0,0-.2,1.8,2.7,2.7,0,0,0,1.1,1.5,3.84,3.84,0,0,0,4,0l-.9,4.6-17-5.4Z"/><path class="cls-29" d="M993.4,81.4c0,.2,2.8-3.4,2.8-3.4l.6-3a24.33,24.33,0,0,1,2-2.5c.9-.9,1.7-4.9,1.7-4.9l-1.2-.7a8.49,8.49,0,0,1-.9,2.2,2.22,2.22,0,0,1-1.1.5,13.09,13.09,0,0,1,0-2.8,24.55,24.55,0,0,1,1-4.7l-1-.5a14.46,14.46,0,0,0-.9,2.2c-.2.7-.5,2.1-.5,2.1a17.33,17.33,0,0,1,.3-3.2c.2-.9.4-2.1.4-2.1l-1-.3a19.73,19.73,0,0,0-.7,2.6c-.2,1-.5,2.8-.5,2.8a17.09,17.09,0,0,1,0-3.2,4.48,4.48,0,0,0,.1-1.1h-1.1a10,10,0,0,0-.4,2.4,12.1,12.1,0,0,1-.1,1.9,12.22,12.22,0,0,1-.3-2.6,1.39,1.39,0,0,0,0-.9l-.8.1s-.5,3.3-.6,5.3a55,55,0,0,0,.1,5.9c0,1.4.1,2.5.1,2.5Z"/><path class="cls-29" d="M1015.2,85.3a139.39,139.39,0,0,1-13.3,9.5,101.7,101.7,0,0,1-3.6-10.6c-1.4-5.3-1.8-7.7-1.8-7.7l-5-.4s1.6,13.5,3.5,22.6c1.9,8.9,4.3,7.3,6.4,6.9s22-11.2,22-11.2L1021.3,83C1021.3,82.9,1019.9,81.4,1015.2,85.3Z"/><path class="cls-30" d="M1036.2,52.9c-1.1-.6-6.2-1-9.4,1-6.2,3.8-3.2,14.3-2.8,16.7s-1.8,6.8-1.8,9.6.7,3.9,2.8,6.7a5.84,5.84,0,0,1,.8,2.2,21.49,21.49,0,0,0,2.9-8.5c.5-4.9,1.6-3.8,4-9.2s2.6-13.6,2.6-13.6Z"/><path class="cls-30" d="M1031.1,56.5l5.1-3.5a7.54,7.54,0,0,1,3.9.7,8.33,8.33,0,0,1,3,2.6c2.5,3.9,3.4,9.6,4,13.8s2.1,12.3,1.9,15.4-3.9,3.6-3.9,3.6l-12.8-5.6a39.29,39.29,0,0,0,.1-14.1A62.05,62.05,0,0,1,1031.1,56.5Z"/><path class="cls-29" d="M1026.8,57.6c-.3,1.6-1.5,6.3-1.6,9.4s.2,8,2.2,9.4,5.7.3,8.5-.9,3.4-3.1,3.9-4.9.3-6.5-.3-9.9a5.92,5.92,0,0,0-5.2-5.2C1031.8,55,1026.8,57.6,1026.8,57.6Z"/><path class="cls-29" d="M1038,68.9s-.7,7.6.9,11.1c1.1,2.4,5.5,3.5,5.5,3.5a24.92,24.92,0,0,1-4.2,13.3c-4.4,6.6-18.2,9-18.2,9a53.37,53.37,0,0,1-4.1-11.6,13.93,13.93,0,0,1,2.4-10.9s3.8-1.3,5.5-1.9c4.4-1.7,3.8-8.6,3.8-8.6Z"/><path class="cls-23" d="M1029.6,86.3s8.9-2.3,11.6-4l8.8,5.3s5.2,5-3.7,18.2c0,0-3.4,12,2.1,33.1,0,0-1.5,5.4-9.8,2.5-7.1-2.5-7.3-4.4-13.6-6-9.2-2.4-11.7-3.8-11.7-3.8,4.8-7.3,4-18.8,4-18.8s-5.5-5.3-3.1-10.7c3.4-7.8,4.5-18.9,4.5-18.9l4.7-1.2a36.32,36.32,0,0,0,3.8,4.1A2.39,2.39,0,0,0,1029.6,86.3Z"/><path class="cls-31" d="M1025.7,81.4s1.1,4.1,3.9,5c0,0-1.1,5.6-3.8,4.6-3.7-1.4-2.2-9.1-2.2-9.1Z"/><path class="cls-31" d="M1042.3,81.6s-1.7,8.5-6.4,9.2-6.2-4.5-6.2-4.5,9.9-2.9,10.9-6Z"/><path class="cls-30" d="M1034,55.4c.9.1,1.5,4.2,1.6,6.5s3.5,4.1,2,9.2-1.3,9.9-3.3,15.5.5,7.6,1.6,9.4a80.12,80.12,0,0,0,5.8-7.2,5.5,5.5,0,0,1,2.6-2.4,6,6,0,0,1,3.5-.4s-6.6-12.9-6.4-16.4.8-8.8-1.9-12S1034,55.4,1034,55.4Z"/><path class="cls-29" d="M1037.5,65.7s1.8-2,3.1-1.7,1.3,2.1.4,3.6-4.3,2.3-4.3,2.3Z"/><path class="cls-30" d="M1033.3,61.8c-1.7.2-2.6-.1-5.2-.4-3.3-.4-4.7.5-4.7.5l1.2-5.6s3.9-2.2,6.6-2.2c3.5,0,6.6,1.4,4.8,2.5C1034.3,57.9,1033.3,61.8,1033.3,61.8Z"/><path class="cls-29" d="M1042.5,93.8c.6,7,2.6,26.9,2.6,26.9-6.3,5.6-15.2,14.8-15.2,14.8s2.5,5,3.6,4.2c8.7-6.9,18.6-10.9,19.4-15.7,1.2-7.8,1.6-27.5-1.3-33.9C1049.4,85.2,1041.9,86.4,1042.5,93.8Z"/><path class="cls-29" d="M1026.1,136.2c-2.6,1-4.3,2-4.2,3,.1.7,2.4-.6,3.7-.5a7.08,7.08,0,0,1-3.2,3.2c-1.7.9-2.7,2.1-1.8,3.1s2.7,2.4,3.8,1.9,5.1-3.3,6.6-4.1,2.1-2.7,2.9-3.2-1.4-4.5-1.4-4.5l-2.6.6a15,15,0,0,1-2.2.2,2.32,2.32,0,0,0-1.6.3Z"/><path class="cls-32" d="M808.7,55.1,833,44.9a1.25,1.25,0,0,0,.7-1.7l-6-14.5A1.25,1.25,0,0,0,826,28L801.6,38.2a1.25,1.25,0,0,0-.7,1.7l6,14.5A1.56,1.56,0,0,0,808.7,55.1Z"/><path class="cls-6" d="M808.7,55.1,833,44.9a1.25,1.25,0,0,0,.7-1.7l-6-14.5A1.25,1.25,0,0,0,826,28L801.6,38.2a1.25,1.25,0,0,0-.7,1.7l6,14.5A1.56,1.56,0,0,0,808.7,55.1Z"/><path class="cls-33" d="M828.2,29.9l-8.6,12.9a2.76,2.76,0,0,1-1.3,1.1,3.21,3.21,0,0,1-1.7.2l-14.9-3L816.8,45a3.38,3.38,0,0,0,2-.1,3.18,3.18,0,0,0,1.5-1.3Z"/><path class="cls-32" d="M846.1,29.1c.3-5.2-2.5-16.1-6.8-19.8s-1.7,1.1-1.7,1.1-4-4.8-6.3-4.9-.3,2.8-.3,2.8-4.5-3.5-6.7-3.6-.3,2.7-.3,2.7-3.6-3.2-5.4-2,18.7,18,20.5,24.2S845.8,34.4,846.1,29.1Z"/><path class="cls-8" d="M846.1,29.1c.3-5.2-2.5-16.1-6.8-19.8s-1.7,1.1-1.7,1.1-4-4.8-6.3-4.9-.3,2.8-.3,2.8-4.5-3.5-6.7-3.6-.3,2.7-.3,2.7-3.6-3.2-5.4-2,18.7,18,20.5,24.2S845.8,34.4,846.1,29.1Z"/><path class="cls-32" d="M827.3,26.4,824.2,28l-.1.1v.1a.1.1,0,0,0,.1.1l.1.1,3.1.1-.5,2.4v.2l.1.1h.2c.1,0,.1,0,.2-.1l2-1.8Z"/><path class="cls-8" d="M827.3,26.4,824.2,28l-.1.1v.1a.1.1,0,0,0,.1.1l.1.1,3.1.1-.5,2.4v.2l.1.1h.2c.1,0,.1,0,.2-.1l2-1.8Z"/><path class="cls-32" d="M869.6,19a12.61,12.61,0,0,0-10.1-2s-2.6,8-7.7,10.2c-2.8,1.2-9.3.4-14.2-1.8-5.9-2.6-8.9-2.9-10.2-.7s-.4,4.7,4.2,6.3,7.4,10.1,15.8,11.1,13.7-7.1,12.4-14.8a21.85,21.85,0,0,1,9.8-8.3Z"/><path class="cls-34" d="M869.6,19a12.61,12.61,0,0,0-10.1-2s-2.6,8-7.7,10.2c-2.8,1.2-9.3.4-14.2-1.8-5.9-2.6-8.9-2.9-10.2-.7s-.4,4.7,4.2,6.3,7.4,10.1,15.8,11.1,13.7-7.1,12.4-14.8a21.85,21.85,0,0,1,9.8-8.3Z"/><path class="cls-35" d="M829.6,26.4v.2a.1.1,0,0,0,.1.1l.1.1h.4c.1,0,.1,0,.1-.1l.1-.1v-.2a.43.43,0,0,0-.7-.3.77.77,0,0,1-.1.3Z"/><path class="cls-32" d="M850.1,35.4c4.8,1.9,16,2.6,20.8-.4s-.5-2-.5-2,5.7-2.3,6.6-4.5-2.6-1.1-2.6-1.1,4.7-3.2,5.4-5.3-2.5-1.1-2.5-1.1,4.2-2.5,3.6-4.5-22.8,12.4-29.2,12.2S845.2,33.5,850.1,35.4Z"/><path class="cls-8" d="M850.1,35.4c4.8,1.9,16,2.6,20.8-.4s-.5-2-.5-2,5.7-2.3,6.6-4.5-2.6-1.1-2.6-1.1,4.7-3.2,5.4-5.3-2.5-1.1-2.5-1.1,4.2-2.5,3.6-4.5-22.8,12.4-29.2,12.2S845.2,33.5,850.1,35.4Z"/><path class="cls-36" d="M890.6,14.6a68.26,68.26,0,0,1,12.8-.7c9.1.3,23.3.9,27.9,10.5,4.2,8.8-5.9,22-9.8,29.3-4.7,9-10.4,20.1-7,30.6,7.3,22,49.6,14.4,63.7-4.1"/><path class="cls-37" d="M979.4,78.6c.3-.5.7-1.1,1-1.6"/><path class="cls-9" d="M326.4,41.5a16,16,0,0,0,11.8-19.2,15.81,15.81,0,0,0-19-11.9,16,16,0,0,0-11.8,19.2A15.81,15.81,0,0,0,326.4,41.5Z"/><path class="cls-38" d="M324.9,39.3a13.58,13.58,0,1,0-15.5-11.2A13.59,13.59,0,0,0,324.9,39.3Z"/><path class="cls-39" d="M323.4,16.7v9.5l6.2-3.6"/><g class="cls-40"><path class="cls-9" d="M771.2,219.4h38.1c2.1,0,3.8-1.7,5-3.8V184.1c-1.2-2.1-2.9-3.8-5-3.8H771.2a3.76,3.76,0,0,0-3.8,3.8v31.5a3.86,3.86,0,0,0,1.1,2.7A4,4,0,0,0,771.2,219.4Z"/><path class="cls-41" d="M800.7,206.4h-21V192.2h21v14.2Z"/><path class="cls-41" d="M779.6,192.2l10.5,8.4,10.5-8.4"/></g><g class="cls-40"><path class="cls-9" d="M130.5,156.2h-39a4.48,4.48,0,0,0-4.5,4.5v38a4.48,4.48,0,0,0,4.5,4.5h39a4.48,4.48,0,0,0,4.5-4.5v-38A4.55,4.55,0,0,0,130.5,156.2Z"/><path class="cls-31" d="M100.3,170.4a13.65,13.65,0,0,0-3.7,7,13.42,13.42,0,0,0,.8,7.9,14.24,14.24,0,0,0,5,6.1,13.38,13.38,0,0,0,15,0,13.57,13.57,0,0,0,5-6.1,14.18,14.18,0,0,0,.8-7.9,13.65,13.65,0,0,0-3.7-7,13.47,13.47,0,0,0-9.6-4A13.9,13.9,0,0,0,100.3,170.4Zm19.2,2h-4.3a20.88,20.88,0,0,0-1.7-4.1,12.26,12.26,0,0,1,6,4.1Zm-14.6,6.9a18.82,18.82,0,0,1,.7-5.3h8.7a23.28,23.28,0,0,1,.6,5.3Zm9.9,1.6a23.51,23.51,0,0,1-.9,5.3h-8a23.51,23.51,0,0,1-.9-5.3Zm-4.9-13.1c.6,0,1.3.1,1.9.1a22.81,22.81,0,0,1,2,4.5H106a22.81,22.81,0,0,1,2-4.5,12.75,12.75,0,0,1,1.9-.1Zm-3.5.5a29.48,29.48,0,0,0-1.7,4.1h-4.3a11.43,11.43,0,0,1,6-4.1ZM99.3,174h5a30.74,30.74,0,0,0-.7,5.3H97.8A12,12,0,0,1,99.3,174Zm0,12.2a12.14,12.14,0,0,1-1.6-5.3h5.9a30.79,30.79,0,0,0,.8,5.3Zm1.1,1.6h4.5a29.48,29.48,0,0,0,1.7,4.1,11.56,11.56,0,0,1-6.2-4.1Zm9.5,4.6c-.5,0-1.1-.1-1.6-.1a43.19,43.19,0,0,1-1.9-4.5h7a30.39,30.39,0,0,1-1.9,4.5,8.08,8.08,0,0,1-1.6.1Zm3.4-.5a29.48,29.48,0,0,0,1.7-4.1h4.5a12.36,12.36,0,0,1-6.2,4.1Zm7.3-5.7h-5.1a23.41,23.41,0,0,0,.8-5.3h5.8a12,12,0,0,1-1.5,5.3Zm1.5-6.9h-5.8a18.82,18.82,0,0,0-.7-5.3h4.9a11,11,0,0,1,1.6,5.3Z"/></g><g class="cls-42"><path class="cls-9" d="M109.9,60.9H85.7a2.8,2.8,0,0,0-2.8,2.8V87.3a2.8,2.8,0,0,0,2.8,2.8h24.2a2.8,2.8,0,0,0,2.8-2.8V63.7A2.73,2.73,0,0,0,109.9,60.9Z"/><path class="cls-31" d="M91.2,69.7a8.39,8.39,0,0,0-1.8,9.2,7.74,7.74,0,0,0,3.1,3.8,8.59,8.59,0,0,0,9.4,0,8.21,8.21,0,0,0,3.1-3.8,9.2,9.2,0,0,0,.5-4.9,7.56,7.56,0,0,0-2.3-4.3,8.34,8.34,0,0,0-5.9-2.5A8.8,8.8,0,0,0,91.2,69.7Zm11.9,1.2h-2.7a18.61,18.61,0,0,0-1-2.5,6.84,6.84,0,0,1,3.7,2.5Zm-9,4.3a12.42,12.42,0,0,1,.4-3.3h5.4a12.42,12.42,0,0,1,.4,3.3Zm6.1,1a19.09,19.09,0,0,1-.6,3.3h-5a19.09,19.09,0,0,1-.6-3.3Zm-3-8.1a4.87,4.87,0,0,1,1.2.1A13.9,13.9,0,0,1,99.6,71H94.8A13.9,13.9,0,0,1,96,68.2a4.87,4.87,0,0,1,1.2-.1Zm-2.2.3a13,13,0,0,0-1,2.5H91.3A6.84,6.84,0,0,1,95,68.4Zm-4.4,3.5h3.1a12.42,12.42,0,0,0-.4,3.3H89.7a6.56,6.56,0,0,1,.9-3.3Zm0,7.6a7.49,7.49,0,0,1-1-3.3h3.6a18.81,18.81,0,0,0,.5,3.3Zm.7,1h2.8a20,20,0,0,0,1,2.6,7.88,7.88,0,0,1-3.8-2.6Zm5.9,2.9a3.4,3.4,0,0,1-1-.1A23.58,23.58,0,0,1,95,80.5h4.3a13.9,13.9,0,0,1-1.2,2.8c-.3,0-.6.1-.9.1Zm2.1-.3a11.66,11.66,0,0,0,1-2.6h2.8a8.38,8.38,0,0,1-3.8,2.6Zm4.5-3.6h-3.2a12.57,12.57,0,0,0,.5-3.3h3.6a7.39,7.39,0,0,1-.9,3.3Zm1-4.3h-3.6a18.59,18.59,0,0,0-.4-3.3h3.1a9.54,9.54,0,0,1,.9,3.3Z"/></g><path class="cls-43" d="M111.4,96.5H43.2a2.74,2.74,0,0,1-2.6-2.6h0a3.55,3.55,0,0,1,.2-1,2.18,2.18,0,0,1,.5-.8,5.55,5.55,0,0,1,.8-.6,1.64,1.64,0,0,1,1-.2h68.2a2.74,2.74,0,0,1,2.6,2.6,3.55,3.55,0,0,1-.2,1,1.56,1.56,0,0,1-.6.8,5.55,5.55,0,0,1-.8.6,2.92,2.92,0,0,1-.9.2Z"/><path class="cls-43" d="M407.4,177.6H374.3a2.74,2.74,0,0,1-2.6-2.6h0a3.55,3.55,0,0,1,.2-1,2.18,2.18,0,0,1,.5-.8,5.55,5.55,0,0,1,.8-.6,1.64,1.64,0,0,1,1-.2h33.1a2.55,2.55,0,0,1,1.8,4.4,2.29,2.29,0,0,1-1.7.8Z"/><path class="cls-43" d="M384.2,199.6h-4a1.9,1.9,0,0,0-1.9,1.9v3.8a1.9,1.9,0,0,0,1.9,1.9h4a1.9,1.9,0,0,0,1.9-1.9v-3.8A1.9,1.9,0,0,0,384.2,199.6Z"/><path class="cls-43" d="M728.4,41.9H695.3a2.74,2.74,0,0,1-2.6-2.6h0a3.55,3.55,0,0,1,.2-1,2.18,2.18,0,0,1,.5-.8,5.55,5.55,0,0,1,.8-.6,1.64,1.64,0,0,1,1-.2h33.1a2.55,2.55,0,0,1,1.8,4.4,2.29,2.29,0,0,1-1.7.8Z"/><path class="cls-43" d="M705.2,63.9h-4a1.9,1.9,0,0,0-1.9,1.9v3.8a1.9,1.9,0,0,0,1.9,1.9h4a1.9,1.9,0,0,0,1.9-1.9V65.8A1.9,1.9,0,0,0,705.2,63.9Z"/><g class="cls-40"><path class="cls-9" d="M1190.1,41.5h-87.7a2.73,2.73,0,0,1-2.7-2.7V17.3a2.73,2.73,0,0,1,2.7-2.7h87.7a2.34,2.34,0,0,1,1.8.8,2.73,2.73,0,0,1,.8,1.9l1.8,21.6C1194.5,40.3,1191.6,41.5,1190.1,41.5Z"/><path class="cls-44" d="M1112.5,24.2h62.4"/><path class="cls-44" d="M1112.5,30.6h25.4"/><path class="cls-9" d="M1109.9,38.5V49L1123,38.5Z"/></g><g class="cls-40"><path class="cls-9" d="M205.6,92.7H173a5.8,5.8,0,0,1-5.8-5.8V56.4a4.44,4.44,0,0,1,4.4-4.4h34a4.57,4.57,0,0,1,3.1,1.3,4.39,4.39,0,0,1,1.3,3.1V88.3a4.39,4.39,0,0,1-1.3,3.1,4.77,4.77,0,0,1-3.1,1.3Z"/><path class="cls-31" d="M197.2,75.4,194.8,73a1.79,1.79,0,0,0-.7-.5,2.92,2.92,0,0,0-.9-.2,2.13,2.13,0,0,0-1.6.7l-1.4,1.4-.3-.1c-.1-.1-.3-.1-.4-.2a14.17,14.17,0,0,1-3.6-3.3,10.81,10.81,0,0,1-1.1-1.8l1-1,.4-.4a1.79,1.79,0,0,0,.5-.7,2.13,2.13,0,0,0,0-1.8,1.79,1.79,0,0,0-.5-.7L185,63l-.4-.4-.8-.8a2.36,2.36,0,0,0-1.6-.7,2.92,2.92,0,0,0-.9.2,1.79,1.79,0,0,0-.7.5l-1.5,1.5a3.46,3.46,0,0,0-1,2.1,6.28,6.28,0,0,0,.6,3.3,17.29,17.29,0,0,0,3.4,5.7,21.53,21.53,0,0,0,6.9,5.5,12.66,12.66,0,0,0,3.9,1.2h.3a3.19,3.19,0,0,0,1.4-.3,5,5,0,0,0,1.2-.8l.1-.1a6,6,0,0,1,.8-.8l.6-.6a1.79,1.79,0,0,0,.5-.7,2.13,2.13,0,0,0,0-1.8l-.6-.6Zm-1,2.3-.5.5-.9.9a1.79,1.79,0,0,1-.7.5,2.92,2.92,0,0,1-.9.2H193a8.5,8.5,0,0,1-3.4-1.1,20.17,20.17,0,0,1-6.5-5.1,22,22,0,0,1-3.2-5.3,5,5,0,0,1-.5-2.7,1.76,1.76,0,0,1,.6-1.3l1.5-1.5a.86.86,0,0,1,.6-.3.37.37,0,0,1,.3.1c.1,0,.2.1.3.2l.8.8c.1.2.3.3.4.4l1.2,1.2a.75.75,0,0,1,0,1.2l-.4.4-1.1,1.1V68a.85.85,0,0,0-.3.5.66.66,0,0,0,.1.6h0a18.84,18.84,0,0,0,1.4,2.4,16.72,16.72,0,0,0,3.9,3.6l.6.3c.1.1.3.1.4.2l.1.1a1.27,1.27,0,0,0,.6.1c.2,0,.4-.2.6-.3l1.5-1.5a.71.71,0,0,1,.6-.3.86.86,0,0,1,.6.3l2.4,2.4c.1.1.2.2.2.3s.1.2.1.3a.37.37,0,0,1-.1.3c.1.2,0,.3-.1.4Z"/></g></g></g></g></svg>