<?xml version="1.0" encoding="utf-8"?>
<!-- Generator: Adobe Illustrator 26.0.2, SVG Export Plug-In . SVG Version: 6.00 Build 0)  -->
<svg version="1.1" id="Layer_1" xmlns="http://www.w3.org/2000/svg" xmlns:xlink="http://www.w3.org/1999/xlink" x="0px" y="0px"
	 viewBox="0 0 1245 300" style="enable-background:new 0 0 1245 300;" xml:space="preserve">
<style type="text/css">
	.st0{clip-path:url(#SVGID_00000128465401358462808780000017232318023954631355_);fill:#E6F5FD;}
	.st1{clip-path:url(#SVGID_00000128465401358462808780000017232318023954631355_);}
	.st2{fill:#EAE6F4;}
	.st3{fill:#BCD0ED;}
	.st4{fill:#7C7AB9;}
	.st5{fill:#F2F2F2;}
	.st6{fill:#BBB8DD;}
	.st7{fill:#E9EEF9;}
	.st8{fill:#605DA6;}
	.st9{fill:#21BAEE;}
	.st10{fill:#FFFFFF;}
	.st11{fill-rule:evenodd;clip-rule:evenodd;fill:#21BAEE;}
	.st12{fill-rule:evenodd;clip-rule:evenodd;fill:#FAB544;}
	.st13{fill:#177FB9;}
	.st14{fill:#EA5532;}
	.st15{fill:#C1292E;}
	.st16{fill:#F9EA32;}
	.st17{fill:#77BC6E;}
	.st18{fill:#59ABE0;}
	.st19{fill:none;}
	.st20{fill:#52539F;}
	.st21{fill:#E2E7F6;}
	.st22{fill:#33338B;}
	.st23{fill:#E9A08C;}
	.st24{fill:#231F20;}
	.st25{fill:#203256;}
	.st26{fill:#F9C6B5;}
	.st27{fill:#BAE1ED;}
	.st28{fill:#BAB2D9;}
	.st29{fill:#FAF2B4;}
	.st30{fill:#A6B0C6;}
	.st31{fill:#434596;}
	.st32{fill:#DDB39C;}
	.st33{clip-path:url(#SVGID_00000128465401358462808780000017232318023954631355_);fill:#FAF2B4;}
	.st34{clip-path:url(#SVGID_00000128465401358462808780000017232318023954631355_);fill:#364093;}
	.st35{clip-path:url(#SVGID_00000128465401358462808780000017232318023954631355_);fill:#DDB39C;}
	.st36{clip-path:url(#SVGID_00000128465401358462808780000017232318023954631355_);fill:#BAB2D9;}
	.st37{clip-path:url(#SVGID_00000128465401358462808780000017232318023954631355_);fill:#B1949A;}
	.st38{fill:#B1949A;}
	.st39{clip-path:url(#SVGID_00000128465401358462808780000017232318023954631355_);fill:#A6B0C6;}
	.st40{fill:#736E84;}
	.st41{fill:#364093;}
	.st42{fill:#F8F7F6;}
	.st43{opacity:0.2827;}
	.st44{fill:#4A4A4A;}
	.st45{fill:#F5BF90;}
	.st46{fill:#434A6E;}
	.st47{opacity:0.3565;}
	.st48{fill:#132339;}
	.st49{fill:#0091C7;}
	.st50{opacity:0.2774;}
	.st51{fill:#262A36;}
	.st52{fill:#563624;}
	.st53{fill:#E94C59;}
	.st54{fill:#EA4D58;}
	.st55{fill:#515A83;}
	.st56{fill:url(#SVGID_00000134244472543661581600000012782913285175130504_);}
	.st57{fill:none;stroke:#434A6E;stroke-linecap:round;stroke-linejoin:round;}
	.st58{fill:none;stroke:#434A6E;stroke-linecap:round;stroke-linejoin:round;stroke-dasharray:1.073,5.3652;}
	.st59{fill:none;stroke:#434A6E;stroke-linecap:round;stroke-linejoin:round;stroke-dasharray:1.0392,5.1958;}
	.st60{fill:none;stroke:#434A6E;stroke-linecap:round;stroke-linejoin:round;stroke-dasharray:1.0016,5.0081;}
	.st61{fill:none;stroke:#434A6E;stroke-linecap:round;stroke-linejoin:round;stroke-dasharray:1.0463,5.2315;}
	.st62{clip-path:url(#SVGID_00000128465401358462808780000017232318023954631355_);fill:#40C7A7;}
	
		.st63{clip-path:url(#SVGID_00000128465401358462808780000017232318023954631355_);fill:none;stroke:#3B55CE;stroke-width:1.05;stroke-linecap:round;stroke-miterlimit:10;}
	.st64{clip-path:url(#SVGID_00000128465401358462808780000017232318023954631355_);fill:#22A482;}
	.st65{clip-path:url(#SVGID_00000128465401358462808780000017232318023954631355_);fill:#91DBAC;}
	.st66{clip-path:url(#SVGID_00000128465401358462808780000017232318023954631355_);fill:#3DC19A;}
	
		.st67{clip-path:url(#SVGID_00000128465401358462808780000017232318023954631355_);fill:none;stroke:#385B65;stroke-width:4;stroke-linecap:round;stroke-linejoin:round;}
</style>
<g>
	<defs>
		<rect id="SVGID_1_" width="1245" height="300"/>
	</defs>
	<clipPath id="SVGID_00000093864612114284017030000012136280811759151233_">
		<use xlink:href="#SVGID_1_"  style="overflow:visible;"/>
	</clipPath>
	<path style="clip-path:url(#SVGID_00000093864612114284017030000012136280811759151233_);fill:#E6F5FD;" d="M8.1,275.6
		C43.6,169.8,115.7,34.5,313.8,54s231.1,9.3,259.2-2.2C601.1,40.2,659.1,1.1,723,4s63.3,1,134.5,23.8
		c71.2,22.9,270.5-4.9,299.9,67.6c29.3,72.5,17.1,207.1,17.1,207.1H8.1V275.6z"/>
	<g style="clip-path:url(#SVGID_00000093864612114284017030000012136280811759151233_);">
		<path class="st2" d="M235.2,256.4H179c0,0-11-12.3-1.9-21.3c6.3-6.3,12.9-3.9,16.8-8.4c3.9-4.5,0-17.4,16.1-16.1
			s7.7,22.6,13.6,24.5C229.4,237.1,246.1,241.6,235.2,256.4z"/>
		<path class="st3" d="M271.5,21.6h12.3c7.7,0,14.1,6,14.8,13.6h1c4.4,0,8.1,3.6,8.1,8.1s-3.6,8.1-8.1,8.1h-15.8h-3.5h-8.7
			c-8.2,0-14.8-6.7-14.8-14.8l0,0C256.6,28.3,263.3,21.6,271.5,21.6z"/>
		<g>
			<g>
				<g>
					<path class="st4" d="M427,249.1c0,2.7-2.2,4.9-4.9,4.9H268.1c-2.7,0-4.9-2.2-4.9-4.9v-96c0-2.7,2.2-4.9,4.9-4.9h154.1
						c2.7,0,4.9,2.2,4.9,4.9L427,249.1L427,249.1z"/>
				</g>
				<g>
					<rect x="271" y="156.2" class="st5" width="148.2" height="89.7"/>
				</g>
				<g>
					<path class="st6" d="M423.9,253.9l18.1,16.5H248.7l21.4-16.1C270.1,254.2,378,253.9,423.9,253.9z"/>
				</g>
				<g>
					<path class="st7" d="M276.5,256.2L261.1,267h166.5l-13.5-11.2C414.1,255.8,278,256.2,276.5,256.2z"/>
				</g>
				<g>
					<rect x="248.7" y="270.4" class="st8" width="193.3" height="5.1"/>
				</g>
				<g>
					<rect x="271" y="156.2" class="st9" width="148.2" height="8.6"/>
				</g>
				<g>
					<rect x="347.8" y="168.5" class="st3" width="62.9" height="31.8"/>
				</g>
				<g>
					<rect x="387.8" y="174.1" class="st10" width="18.2" height="18.2"/>
				</g>
				<g>
					<g>
						<rect x="333.4" y="217" class="st11" width="55.5" height="20.1"/>
					</g>
					<g>
						<g id="User_12_">
							<g>
								<rect x="343.7" y="221.5" class="st10" width="41.5" height="3.2"/>
							</g>
						</g>
					</g>
					<g>
						<g id="User_13_">
							<g>
								<rect x="353.1" y="227.7" class="st10" width="32.1" height="3.2"/>
							</g>
						</g>
					</g>
					<g>
						<rect x="388.7" y="217" class="st12" width="19.8" height="20.1"/>
					</g>
					<g>
						<g>
							<path class="st10" d="M404.4,223.9c-0.3-0.3-0.9-0.3-1.2,0l-5,4.4l-5-4.4c-0.3-0.3-0.9-0.3-1.2,0c-0.3,0.3-0.3,0.9,0,1.2
								l5.6,4.9c0.2,0.2,0.4,0.3,0.6,0.2c0.2,0,0.4-0.1,0.6-0.2l5.6-4.9C404.7,224.8,404.7,224.3,404.4,223.9z"/>
						</g>
					</g>
				</g>
				<g>
					<g>
						<g id="Schloss_9_">
							<g>
								<rect x="334.7" y="202.1" class="st9" width="43" height="9.5"/>
							</g>
						</g>
					</g>
					<g>
						<g id="Schloss_1_">
							<g>
								<rect x="334.7" y="190.3" class="st13" width="43" height="9.5"/>
							</g>
						</g>
					</g>
					<g>
						<g>
							<g>
								<rect x="325.2" y="190.4" class="st10" width="9.5" height="9.5"/>
							</g>
						</g>
						<g>
							<g>
								<g>
									<path class="st14" d="M327.7,196.5c-0.1,0.1-0.1,0.3,0,0.4l0.8,0.8c0.1,0.1,0.3,0.1,0.4,0l1.1-1.1l1.1,1.1
										c0.1,0.1,0.3,0.1,0.4,0l0.8-0.8c0.1-0.1,0.1-0.3,0-0.4l-1.1-1.1l1.1-1.1c0.1-0.1,0.1-0.3,0-0.4l-0.8-0.8
										c-0.1-0.1-0.3-0.1-0.4,0l-1.1,1.1l-1.1-1.1c-0.1-0.1-0.3-0.1-0.4,0l-0.8,0.8c-0.1,0.1-0.1,0.3,0,0.4l1.1,1.1L327.7,196.5z"
										/>
								</g>
							</g>
						</g>
					</g>
					<g>
						<g>
							<g>
								<rect x="325.2" y="202.1" class="st10" width="9.5" height="9.5"/>
							</g>
						</g>
						<g>
							<g>
								<path class="st9" d="M327,205.4l0.7-0.7c0.1-0.1,0.2-0.1,0.3,0l2.9,2.9l1.2-1.2c0.1-0.1,0.2-0.1,0.3,0l0.7,0.7
									c0.1,0.1,0.1,0.2,0,0.3l-2,2.1c0,0-0.1,0.1-0.1,0.1s-0.1,0-0.1-0.1l-3.7-3.8c0,0-0.1-0.1-0.1-0.1
									C326.9,205.5,326.9,205.4,327,205.4L327,205.4z"/>
							</g>
						</g>
					</g>
				</g>
				<g>
					<g>
						<path class="st15" d="M411.1,160.2c0,1.3,1,2.3,2.3,2.3c1.3,0,2.3-1,2.3-2.3s-1-2.3-2.3-2.3
							C412.2,157.9,411.1,159,411.1,160.2z"/>
					</g>
					<g>
						<path class="st16" d="M403.9,160.2c0,1.3,1,2.3,2.3,2.3c1.3,0,2.3-1,2.3-2.3s-1-2.3-2.3-2.3
							C404.9,157.9,403.9,159,403.9,160.2z"/>
					</g>
					<g>
						<path class="st17" d="M396.6,160.2c0,1.3,1,2.3,2.3,2.3c1.3,0,2.3-1,2.3-2.3s-1-2.3-2.3-2.3
							C397.6,157.9,396.6,159,396.6,160.2z"/>
					</g>
				</g>
			</g>
			<rect x="277.5" y="195.4" class="st10" width="45.5" height="43.6"/>
			<g>
				<g>
					<g>
						<path class="st18" d="M317.5,216.4c0,10.5-8.5,19.1-19.1,19.1c-10.5,0-19.1-8.5-19.1-19.1c0-10.5,8.5-19.1,19.1-19.1
							C309,197.3,317.5,205.9,317.5,216.4z M314.9,216.4c0-9-7.3-16.4-16.4-16.4c-9,0-16.4,7.3-16.4,16.4c0,9,7.3,16.4,16.4,16.4
							C307.5,232.7,314.9,225.4,314.9,216.4z"/>
					</g>
					<g>
						<path class="st18" d="M293.8,207.8v17.3c0,0.5,0.3,1,0.8,1.2c0.5,0.2,1.1,0.1,1.5-0.3l8.7-8.7c0.3-0.3,0.4-0.6,0.4-0.9
							c0-0.4-0.1-0.7-0.4-1l-8.7-8.7c-0.3-0.3-0.6-0.4-0.9-0.4c-0.2,0-0.4,0-0.5,0.1C294.1,206.8,293.8,207.3,293.8,207.8z"/>
					</g>
				</g>
			</g>
		</g>
		<g>
			<line class="st19" x1="830" y1="178" x2="845.7" y2="193.7"/>
			<path class="st20" d="M845.7,194.7c0.3,0,0.5-0.1,0.7-0.3c0.4-0.4,0.4-1,0-1.4l-15.7-15.7c-0.4-0.4-1-0.4-1.4,0
				c-0.4,0.4-0.4,1,0,1.4l15.7,15.7C845.2,194.6,845.4,194.7,845.7,194.7z"/>
		</g>
		<g>
			<line class="st19" x1="485.3" y1="40.9" x2="501" y2="56.6"/>
			<path class="st20" d="M501,57.6c0.3,0,0.5-0.1,0.7-0.3c0.4-0.4,0.4-1,0-1.4L486,40.3c-0.4-0.4-1-0.4-1.4,0c-0.4,0.4-0.4,1,0,1.4
				l15.7,15.7C500.5,57.5,500.7,57.6,501,57.6z"/>
		</g>
		<g>
			<g>
				<line class="st19" x1="237.1" y1="225.4" x2="252.8" y2="241.1"/>
				<path class="st18" d="M252.8,242.1c0.3,0,0.5-0.1,0.7-0.3c0.4-0.4,0.4-1,0-1.4l-15.7-15.7c-0.4-0.4-1-0.4-1.4,0
					c-0.4,0.4-0.4,1,0,1.4l15.7,15.7C252.3,242,252.6,242.1,252.8,242.1z"/>
			</g>
		</g>
		<g>
			<g>
				<path class="st18" d="M880.7,170.5c0.4,0,0.7-0.1,1-0.4c0.6-0.6,0.6-1.5,0-2.1l-1.4-1.4c-0.6-0.6-1.5-0.6-2.1,0s-0.6,1.5,0,2.1
					l1.4,1.4C880,170.4,880.3,170.5,880.7,170.5z M874.5,164.3c0.4,0,0.7-0.1,1-0.4c0.6-0.6,0.6-1.5,0-2.1l-1.4-1.4
					c-0.6-0.6-1.5-0.6-2.1,0c-0.6,0.6-0.6,1.5,0,2.1l1.4,1.4C873.8,164.2,874.2,164.3,874.5,164.3z M868.4,158.1
					c0.4,0,0.7-0.1,1-0.4c0.6-0.6,0.6-1.5,0-2.1l-1.4-1.4c-0.6-0.6-1.5-0.6-2.1,0c-0.6,0.6-0.6,1.5,0,2.1l1.4,1.4
					C867.6,158,868,158.1,868.4,158.1z"/>
			</g>
		</g>
		<g>
			<g>
				<path class="st18" d="M121.9,110.1c0.4,0,0.7-0.1,1-0.4c0.6-0.6,0.6-1.5,0-2.1l-1.4-1.4c-0.6-0.6-1.5-0.6-2.1,0s-0.6,1.5,0,2.1
					l1.4,1.4C121.2,110,121.5,110.1,121.9,110.1z M115.7,103.9c0.4,0,0.7-0.1,1-0.4c0.6-0.6,0.6-1.5,0-2.1l-1.4-1.4
					c-0.6-0.6-1.5-0.6-2.1,0c-0.6,0.6-0.6,1.5,0,2.1l1.4,1.4C115,103.8,115.4,103.9,115.7,103.9z M109.5,97.7c0.4,0,0.7-0.1,1-0.4
					c0.6-0.6,0.6-1.5,0-2.1l-1.4-1.4c-0.6-0.6-1.5-0.6-2.1,0c-0.6,0.6-0.6,1.5,0,2.1l1.4,1.4C108.8,97.6,109.2,97.7,109.5,97.7z"/>
			</g>
		</g>
		<g>
			<line class="st19" x1="493.1" y1="246.8" x2="477.4" y2="231.1"/>
			<path class="st20" d="M493.1,247.8c0.3,0,0.5-0.1,0.7-0.3c0.4-0.4,0.4-1,0-1.4l-15.7-15.7c-0.4-0.4-1-0.4-1.4,0
				c-0.4,0.4-0.4,1,0,1.4l15.7,15.7C492.6,247.7,492.9,247.8,493.1,247.8z"/>
		</g>
		<g>
			<g>
				<path class="st18" d="M888.3,48.6c0.4,0,0.7-0.1,1-0.4c0.6-0.6,0.6-1.5,0-2.1l-1.4-1.4c-0.6-0.6-1.5-0.6-2.1,0
					c-0.6,0.6-0.6,1.5,0,2.1l1.4,1.4C887.6,48.5,887.9,48.6,888.3,48.6z M882.1,42.5c0.4,0,0.7-0.1,1-0.4c0.6-0.6,0.6-1.5,0-2.1
					l-1.4-1.4c-0.6-0.6-1.5-0.6-2.1,0c-0.6,0.6-0.6,1.5,0,2.1l1.4,1.4C881.4,42.3,881.8,42.5,882.1,42.5z M876,36.3
					c0.4,0,0.7-0.1,1-0.4c0.6-0.6,0.6-1.5,0-2.1l-1.4-1.4c-0.6-0.6-1.5-0.6-2.1,0c-0.6,0.6-0.6,1.5,0,2.1l1.4,1.4
					C875.2,36.1,875.6,36.3,876,36.3z M869.8,30.1c0.4,0,0.7-0.1,1-0.4c0.6-0.6,0.6-1.5,0-2.1l-1.4-1.4c-0.6-0.6-1.5-0.6-2.1,0
					c-0.6,0.6-0.6,1.5,0,2.1l1.4,1.4C869,30,869.4,30.1,869.8,30.1z M863.6,23.9c0.4,0,0.7-0.1,1-0.4c0.6-0.6,0.6-1.5,0-2.1
					l-1.4-1.4c-0.6-0.6-1.5-0.6-2.1,0c-0.6,0.6-0.6,1.5,0,2.1l1.4,1.4C862.9,23.8,863.2,23.9,863.6,23.9z"/>
			</g>
		</g>
		<g>
			<g>
				<path class="st20" d="M321,127.3l1.9-0.1l-0.3-4.8l4.8,0.4l0.1-1.9l-5.9-0.4c-0.3,0-0.6,0.1-0.8,0.3c-0.2,0.2-0.3,0.5-0.3,0.8
					L321,127.3z"/>
			</g>
			<g>
				
					<rect x="327.9" y="118.4" transform="matrix(0.7071 -0.7071 0.7071 0.7071 5.2328 270.2887)" class="st20" width="1.9" height="20.8"/>
			</g>
		</g>
		<g>
			<g>
				<path class="st18" d="M82.3,27.9c-0.6,0.6-1.7,0.6-2.3,0c-0.6-0.6-0.6-1.7,0-2.3l1.5-1.5c0.6-0.6,1.7-0.6,2.3,0
					c0.6,0.6,0.6,1.7,0,2.3L82.3,27.9z"/>
				<path class="st18" d="M82.1,29.9l1.5,1.5c0.6,0.6,0.6,1.7,0,2.3c-0.6,0.6-1.7,0.6-2.3,0l-1.5-1.5c-0.6-0.6-0.6-1.7,0-2.3
					C80.4,29.2,81.5,29.2,82.1,29.9z"/>
				<path class="st18" d="M75.5,27.9L74,26.4c-0.6-0.6-0.6-1.7,0-2.3c0.6-0.6,1.7-0.6,2.3,0l1.5,1.5c0.6,0.6,0.6,1.7,0,2.3
					C77.2,28.6,76.2,28.6,75.5,27.9z"/>
				<path class="st18" d="M75.7,29.9c0.6-0.6,1.7-0.6,2.3,0c0.6,0.6,0.6,1.7,0,2.3l-1.5,1.5c-0.6,0.6-1.7,0.6-2.3,0
					c-0.6-0.6-0.6-1.7,0-2.3L75.7,29.9z"/>
			</g>
		</g>
		<g>
			<g>
				<path class="st18" d="M615.4,24.6c2.2,0,3.9-1.8,3.9-3.9c0-2.2-1.8-3.9-3.9-3.9s-3.9,1.8-3.9,3.9
					C611.5,22.8,613.3,24.6,615.4,24.6z M615.4,18.7c1.1,0,2,0.9,2,2c0,1.1-0.9,2-2,2s-2-0.9-2-2C613.5,19.5,614.4,18.7,615.4,18.7z
					"/>
			</g>
		</g>
		<g>
			<g>
				<path class="st8" d="M300.9,201.5c0,4.1-3,7.7-7.1,7.7h-75.6c-4.1,0-7.5-3.6-7.5-7.7V96.9c0-4.1,3.4-7.4,7.5-7.4h75.6
					c4.1,0,7.1,3.4,7.1,7.4L300.9,201.5L300.9,201.5z"/>
			</g>
			<g>
				<rect x="217.9" y="98.2" class="st21" width="75.9" height="91.8"/>
			</g>
			<g>
				<path class="st22" d="M260.9,199.4c0,2.7-2.2,4.9-4.9,4.9c-2.7,0-4.9-2.2-4.9-4.9s2.2-4.9,4.9-4.9
					C258.7,194.5,260.9,196.7,260.9,199.4z"/>
			</g>
			<g>
				<g>
					<path class="st18" d="M254.4,126.7h2.7l0,0v5.6l0,0h-2.7l0,0c-0.4,2.2-1.2,4.2-2.4,5.9l0,0l1.9,1.9l0,0l-4,4l0,0l-1.9-1.9l0,0
						c-1.7,1.2-3.8,2-5.9,2.4l0,0v2.7l0,0h-2.8h-2.8l0,0v-2.7l0,0c-2.2-0.4-4.2-1.2-5.9-2.4l0,0l-1.9,1.9l0,0l-4-4l0,0l1.9-1.9l0,0
						c-1.2-1.7-2-3.8-2.4-5.9l0,0h-2.7l0,0v-5.6l0,0h2.7l0,0c0.4-2.2,1.2-4.2,2.4-5.9l0,0l-1.9-1.9l0,0l4-4l0,0l1.9,1.9l0,0
						c1.7-1.2,3.7-2,5.9-2.4l0,0v-2.7l0,0h2.8h2.8l0,0v2.7l0,0c2.2,0.4,4.2,1.2,5.9,2.4l0,0l1.9-1.9l0,0l4,4l0,0l-1.9,1.9l0,0
						C253.1,122.5,254,124.5,254.4,126.7L254.4,126.7z M247.7,126.6c-1.1-3.7-4.6-6.1-8.5-6.1l0,0c-5.9,0-10.4,5.6-8.5,11.8
						c1.1,3.7,4.6,6.1,8.5,6.1l0,0C245.1,138.4,249.6,132.8,247.7,126.6z M239.1,125.1c-2.6,0-4.7,2.1-4.7,4.7
						c0,2.6,2.1,4.7,4.7,4.7c2.6,0,4.7-2.1,4.7-4.7C243.8,127.2,241.7,125.1,239.1,125.1z"/>
				</g>
			</g>
			<g>
				<g>
					<path class="st10" d="M283.8,128.9h2l0,0v4.2l0,0h-2l0,0c-0.3,1.6-0.9,3.1-1.8,4.4l0,0l1.4,1.4l0,0l-3,3l0,0l-1.4-1.4l0,0
						c-1.3,0.9-2.8,1.5-4.4,1.8l0,0v2l0,0h-2.1h-2.1l0,0v-2l0,0c-1.6-0.3-3.1-0.9-4.4-1.8l0,0l-1.4,1.4l0,0l-3-3l0,0l1.4-1.4l0,0
						c-0.9-1.3-1.5-2.8-1.8-4.4l0,0h-2l0,0v-4.2l0,0h2l0,0c0.3-1.6,0.9-3.1,1.8-4.4l0,0l-1.4-1.4l0,0l3-3l0,0l1.4,1.4l0,0
						c1.3-0.9,2.8-1.5,4.4-1.8l0,0v-2l0,0h2.1h2.1l0,0v2l0,0c1.6,0.3,3.1,0.9,4.4,1.8l0,0l1.4-1.4l0,0l3,3l0,0l-1.4,1.4l0,0
						C282.9,125.8,283.5,127.3,283.8,128.9L283.8,128.9z M278.8,128.9c-0.8-2.7-3.5-4.5-6.3-4.5l0,0c-4.3,0-7.7,4.2-6.3,8.8
						c0.8,2.7,3.5,4.5,6.3,4.5l0,0C276.9,137.6,280.3,133.4,278.8,128.9z M272.5,127.7c-1.9,0-3.5,1.6-3.5,3.5s1.6,3.5,3.5,3.5
						c1.9,0,3.5-1.6,3.5-3.5C275.9,129.3,274.4,127.7,272.5,127.7z"/>
				</g>
			</g>
			<g>
				<g>
					<path class="st14" d="M275.7,161.7l2.8,0.4l0,0l-0.9,6l0,0l-2.8-0.4l0,0c-0.8,2.2-2,4.2-3.6,5.9l0,0l1.7,2.3l0,0l-4.9,3.6l0,0
						l-1.7-2.3l0,0c-2.1,1-4.3,1.6-6.7,1.6l0,0l-0.4,2.8l0,0l-3-0.5l-3-0.5l0,0l0.4-2.8l0,0c-2.2-0.8-4.2-2-5.9-3.6l0,0l-2.3,1.7
						l0,0l-3.6-4.9l0,0l2.3-1.7l0,0c-1-2.1-1.6-4.3-1.6-6.7l0,0l-2.8-0.4l0,0l0.9-6l0,0l2.8,0.4l0,0c0.8-2.2,2-4.2,3.6-5.9l0,0
						l-1.7-2.3l0,0l4.9-3.6l0,0l1.7,2.3l0,0c2.1-1,4.3-1.6,6.7-1.6l0,0l0.4-2.8l0,0l3,0.5l3,0.5l0,0l-0.4,2.8l0,0
						c2.2,0.8,4.2,2,5.9,3.6l0,0l2.3-1.7l0,0l3.6,4.9l0,0L274,155l0,0C275,157,275.6,159.3,275.7,161.7L275.7,161.7z M268.6,160.5
						c-0.6-4.1-4-7.2-8-7.9l0,0c-6.2-1-12,4.3-11,11.2c0.6,4.1,4,7.2,8,7.8l0,0C263.8,172.6,269.6,167.4,268.6,160.5z M259.6,157.5
						c-2.7-0.4-5.3,1.5-5.7,4.2c-0.4,2.7,1.5,5.3,4.2,5.7c2.7,0.4,5.3-1.5,5.7-4.2C264.3,160.4,262.4,157.9,259.6,157.5z"/>
				</g>
			</g>
		</g>
		<g>
			<path class="st23" d="M208.5,299.4c-0.5-0.4-4.7-1.5-6.1-2.7c-1.3-1.2-1.4-3.1-1.4-3.1l4.7-37.1l-1.3-10.8l-17.2,2.7
				c0,0,1.2,7.9,1.2,8.5c-0.2-0.4-5.5,4.1-6.8,8c-1.5,4.6-6.6,18.7-8.5,22.3l-2.3,4.2l5.4,4c0,0,5,1.7,4.7,1.2
				c-0.3-0.5-3.9-3.1-4.7-4.7c-0.5-1-0.4-2.1-0.3-2.7l17.8-30.1l1.6-10.5h2.8l2.3,8.8c0,0-2.9,9.4-3,13.8
				c-0.1,4.4,0.7,22.2,0.7,22.2l-0.7,5l6.4,1.8C203.7,300,209,299.8,208.5,299.4z"/>
			<path class="st24" d="M169.6,293.7c0,0,0.6-2.3,1-3.2c0.4-0.9,1.5-1.7,1.5-1.7s2,1,2.1,2.3c0.1,1.5,2,2.5,4.3,3.3
				c2.1,0.8,3.4,2.4,3.3,2.9c-0.1,0.5-8.4-2.5-8.4-2.5l-1.6-2.7l-0.7,2L169.6,293.7z"/>
			<path class="st24" d="M196.9,300.8c0,0-0.3-2.4-0.2-3.4c0.1-1,0.8-2.1,0.8-2.1s2.2,0.3,2.7,1.4c0.6,1.4,2.7,1.6,5.2,1.6
				c2.3,0,4,1,4.1,1.6s-8.8,0.6-8.8,0.6l-2.4-2v2.1L196.9,300.8z"/>
			<path class="st25" d="M194.1,174.6c0,0,1.8-2.6,1.7-6.3c-0.1-3.8-10.6-6-14.1-2.4c-3.5,3.5-2.3,7.5-4.3,9.4
				c-1.9,1.8-7.7,1.6-6.9,7.4c0.7,5.8,5,6.6,2.9,9.4c-2.1,2.8-5.6,6.9-1.1,12.6c4.5,5.6,15.5-0.6,15.5-0.6l2.1-26.6L194.1,174.6z"/>
			<polygon class="st23" points="186.5,178.7 185,184 189.8,185 189.9,180.7 			"/>
			<path class="st23" d="M198.7,195.9c0,0,3,1.3,6.6,1.5c3.5,0.1,5.6-1,5.6-1v6c0,0-6.2,2.4-11.7-0.7
				C198.2,201.4,198.7,195.9,198.7,195.9z"/>
			<path class="st26" d="M187.4,176c0,0-1.7-1.3-2.3,0.2c-0.6,1.6,1.5,2.4,1.5,2.4s2.3,4.4,6.9,4.4c3.8-6.2,0.8-12.8,0.8-12.8
				s-1.9,1.7-3.2,3C189.5,174.9,187.1,174.4,187.4,176z"/>
			<path class="st18" d="M197.1,190.1c-1.4-1.7-7.4-6-7.4-6L185,184c0,0-3.9,3.9-3.9,8.9c0,5,5.6,12.4,6.5,15.2
				c0.8,2.8,0.6,4.9,0.6,4.9s-4.6,11.1-4.5,16.9c0.1,5.8,2.8,19,2.8,19s14.1,1.5,19.8-1.3c-0.7-0.1-4.6-31.6-5.6-34.8
				s-1-11.6-1-13.5C199.7,197.3,201.3,195.2,197.1,190.1z"/>
			<path class="st26" d="M188.6,190.3c-1.3-1.2-7.5-0.2-3.9,6.1c3.7,6.3,13.5,14.6,13.5,14.6s4.3,2.9,11,2.9
				c6.7,0,10.7-2.6,10.7-2.6s1.7,1,4.5,0.4c2.8-0.6,3.3-2.6,3.3-2.6l-5.1,0.1c0,0,1.5-1.9,0.5-2.1c-1-0.1-3,1.9-3,1.9
				s-14.2-1-16.9-2.2C200.4,205.8,189.9,191.6,188.6,190.3z"/>
			<path class="st13" d="M197.7,220.4l-6.1-2.1c0,0-2.7,7.6,1.3,8.7C196.8,228.2,197.7,220.4,197.7,220.4z"/>
		</g>
		<path class="st3" d="M400.7,10c2.1-3.7,6-6.2,10.5-6.2c6.7,0,12.1,5.4,12.1,12.1c0,0.2,0,0.4,0,0.6c3.3,0.4,5.8,3.2,5.8,6.5
			c0,3.6-3,6.6-6.6,6.6h-13.2c-0.3,0-0.7,0-1-0.1c-0.4,0.1-0.8,0.1-1.2,0.1h-4.9c-5.4,0-9.9-4.4-9.9-9.9
			C392.3,14.8,396,10.7,400.7,10z"/>
		<g>
			<path class="st27" d="M523.2,234.6h62.2c1.6,0,2.9,1.3,2.9,2.9v25.6c0,1.6-1.3,2.9-2.9,2.9h-3v4.2l-8.7-4.2h-50.4
				c-1.6,0-2.9-1.3-2.9-2.9v-25.6C520.2,235.9,521.6,234.6,523.2,234.6z"/>
			<g>
				<g>
					<g>
						<g>
							<rect x="526.5" y="239.4" class="st10" width="55.1" height="5.2"/>
						</g>
					</g>
				</g>
			</g>
			<g>
				<g>
					<g>
						<g>
							<rect x="526.5" y="249.7" class="st10" width="55.1" height="5.2"/>
						</g>
					</g>
				</g>
			</g>
		</g>
	</g>
	<g style="clip-path:url(#SVGID_00000093864612114284017030000012136280811759151233_);">
		<path class="st28" d="M1140.4,240.9l0-0.4l4.3-0.3l0,0.4L1140.4,240.9z M1149,240.2l0-0.4l4.3-0.3l0,0.4L1149,240.2z
			 M1157.7,239.5l0-0.4l4.3-0.3l0,0.4L1157.7,239.5z M1166.3,238.8l0-0.4l4.3-0.3l0,0.4L1166.3,238.8z M1175,238.1l0-0.4l4.3-0.3
			l0,0.4L1175,238.1z M1183.6,237.4l0-0.4l4.3-0.3l0,0.4L1183.6,237.4z M1192.3,236.7l0-0.4l4.3-0.3l0,0.4L1192.3,236.7z
			 M1200.9,236.1l0-0.4l4.3-0.3l0,0.4L1200.9,236.1z M1209.6,235.4l0-0.4l2.6-0.2l0,0.4L1209.6,235.4z"/>
	</g>
	<g style="clip-path:url(#SVGID_00000093864612114284017030000012136280811759151233_);">
		<path class="st28" d="M909.3,294.4L909,294l3.8-2.1l0.2,0.4L909.3,294.4z M911.3,290.7l-0.4-0.2l2.1-3.8l0.4,0.2L911.3,290.7z
			 M916.9,290.3l-0.2-0.4l3.8-2.1l0.2,0.4L916.9,290.3z M924.5,286.2l-0.2-0.4l3.8-2.1l0.2,0.4L924.5,286.2z M915.5,283.1l-0.4-0.2
			l2.1-3.8l0.4,0.2L915.5,283.1z M932.2,282.1l-0.2-0.4l3.8-2.1l0.2,0.4L932.2,282.1z M939.8,278l-0.2-0.4l3.8-2.1l0.2,0.4
			L939.8,278z M919.6,275.4l-0.4-0.2l0.9-1.6l2.5-0.7l0.1,0.4l-2.4,0.7L919.6,275.4z M947.4,273.9l-0.2-0.4l3.8-2.1l0.2,0.4
			L947.4,273.9z M926.9,272l-0.1-0.4l4.2-1.2l0.1,0.4L926.9,272z M955.1,269.7l-0.2-0.4l3.8-2.1l0.2,0.4L955.1,269.7z M935.3,269.6
			l-0.1-0.4l4.2-1.2l0.1,0.4L935.3,269.6z M943.6,267.2l-0.1-0.4l4.2-1.2l0.1,0.4L943.6,267.2z M962.7,265.6l-0.2-0.4l3.8-2.1
			l0.2,0.4L962.7,265.6z M951.9,264.7l-0.1-0.4l4.2-1.2l0.1,0.4L951.9,264.7z M960.2,262.3l-0.1-0.4l4.2-1.2l0.1,0.4L960.2,262.3z
			 M970.4,261.5l-0.2-0.4l3.8-2.1l0.2,0.4L970.4,261.5z M968.6,259.8l-0.1-0.4l4.2-1.2l0.1,0.4L968.6,259.8z M978,257.4l-0.2-0.3
			l-0.9,0.3l-0.1-0.4l4.5-1.3L978,257.4z"/>
	</g>
	<g style="clip-path:url(#SVGID_00000093864612114284017030000012136280811759151233_);">
		<path class="st28" d="M1082.4,285l-3.6-2.5l0.2-0.4l3.6,2.5L1082.4,285z M1080.6,280.9l-1.7-4l0.4-0.2l1.7,4L1080.6,280.9z
			 M1075.2,280.1l-3.6-2.5l0.2-0.4l3.6,2.5L1075.2,280.1z M1068.1,275.1l-3.6-2.5l0.2-0.4l3.6,2.5L1068.1,275.1z M1077.3,272.9
			l-1.7-4l0.4-0.2l1.7,4L1077.3,272.9z M1061,270.2l-3.6-2.5l0.2-0.4l3.6,2.5L1061,270.2z M1053.8,265.3l-3.6-2.5l0.2-0.4l3.6,2.5
			L1053.8,265.3z M1073.9,264.9l-1.7-4l0.4-0.2l1.7,4L1073.9,264.9z M1046.7,260.4l-3.6-2.5l0.2-0.4l3.6,2.5L1046.7,260.4z
			 M1070.5,257l-1.7-4l0.4-0.2l1.7,4L1070.5,257z M1039.5,255.4l-3.6-2.5l0.2-0.4l3.6,2.5L1039.5,255.4z M1032.4,250.5l-2.8-1.9
			l1.6-0.7l0.2,0.4l-0.9,0.4l2.2,1.5L1032.4,250.5z M1067.1,249l-1.7-4l0.4-0.2l1.7,4L1067.1,249z M1035.3,246.5l-0.2-0.4l4-1.8
			l0.2,0.4L1035.3,246.5z M1043.2,242.9l-0.2-0.4l4-1.8l0.2,0.4L1043.2,242.9z M1063.8,241l-0.4-1l0.4-0.2l0.4,1L1063.8,241z
			 M1051.1,239.4l-0.2-0.4l4-1.8l0.2,0.4L1051.1,239.4z M1059,235.8l-0.2-0.4l3.8-1.7h0.2l0,0.4h-0.2L1059,235.8z M1106.3,234.5
			l-4.3,0l0-0.4l4.3,0L1106.3,234.5z M1097.6,234.5l-4.3,0l0-0.4l4.3,0L1097.6,234.5z M1088.9,234.4l-4.3,0l0-0.4l4.3,0
			L1088.9,234.4z M1080.2,234.3l-4.3,0l0-0.4l4.3,0L1080.2,234.3z M1071.6,234.2l-4.3,0l0-0.4l4.3,0L1071.6,234.2z"/>
	</g>
	<g style="clip-path:url(#SVGID_00000093864612114284017030000012136280811759151233_);">
		<path class="st28" d="M909.6,290.9l-1.4-0.2l0.1-0.4l0.4,0.1l-1.8-2.3l0.3-0.3L909.6,290.9z M903.9,290.1l-4.3-0.6l0.1-0.4
			l4.3,0.6L903.9,290.1z M895.4,288.9l-4.3-0.6l0.1-0.4l4.3,0.6L895.4,288.9z M886.8,287.7l-4.3-0.6l0.1-0.4l4.3,0.6L886.8,287.7z
			 M878.2,286.5l-4.3-0.6l0.1-0.4l4.3,0.6L878.2,286.5z M869.6,285.2l-4.3-0.6l0.1-0.4l4.3,0.6L869.6,285.2z M904.3,284.6l-2.6-3.5
			l0.3-0.3l2.6,3.5L904.3,284.6z M868.1,281.8l-0.3-0.3l3-3.1l0.3,0.3L868.1,281.8z M899.1,277.6l-2.6-3.5l0.3-0.3l2.6,3.5
			L899.1,277.6z M874.1,275.6l-0.3-0.3l3-3.1l0.3,0.3L874.1,275.6z M893.8,270.7l-2.6-3.5l0.3-0.3l2.6,3.5L893.8,270.7z
			 M880.2,269.3l-0.3-0.3l3-3.1l0.3,0.3L880.2,269.3z M888.6,263.8l-1.4-1.8l-1.1,1.1l-0.3-0.3l1.4-1.5l1.7,2.2L888.6,263.8z"/>
	</g>
	<g style="clip-path:url(#SVGID_00000093864612114284017030000012136280811759151233_);">
		<path class="st28" d="M1039.7,292.9l-0.4-0.1l1.5-4.1l0.4,0.1L1039.7,292.9z M1043,291.5l-0.2-0.4l3.8-2l0.2,0.4L1043,291.5z
			 M1050.7,287.5l-0.2-0.4l3.8-2l0.2,0.4L1050.7,287.5z M1042.7,284.7l-0.4-0.1l1.5-4.1l0.4,0.1L1042.7,284.7z M1058.4,283.5
			l-0.2-0.4l3.8-2l0.2,0.4L1058.4,283.5z M1182.8,280.6L1182.8,280.6l-2.5-2.2l0.3-0.3l2.1,1.9l0.3-0.8l0.4,0.2l-0.4,0.9
			C1183,280.5,1183,280.6,1182.8,280.6z M1066.1,279.5l-0.2-0.4l3.8-2l0.2,0.4L1066.1,279.5z M1045.6,276.6l-0.4-0.1l1.5-4.1
			l0.4,0.1L1045.6,276.6z M1073.8,275.5l-0.2-0.4l3.8-2l0.2,0.4L1073.8,275.5z M1177.2,275.4l-3.2-3l0.3-0.3l3.2,3L1177.2,275.4z
			 M1185.1,275.3l-0.4-0.2c0.5-1.2,1.1-2.5,1.7-4l0.4,0.2C1186.2,272.8,1185.6,274.1,1185.1,275.3z M1081.5,271.5l-0.2-0.4l3.8-2
			l0.2,0.4L1081.5,271.5z M1170.9,269.4l-3.2-3l0.3-0.3l3.2,3L1170.9,269.4z M1048.6,268.4l-0.4-0.1l1.5-4.1l0.4,0.1L1048.6,268.4z
			 M1089.2,267.5l-0.2-0.4l3.8-2l0.2,0.4L1089.2,267.5z M1188.5,267.3l-0.4-0.2c0.6-1.3,1.1-2.6,1.7-4l0.4,0.2
			C1189.7,264.7,1189.1,266,1188.5,267.3z M1164.5,263.5l-3.2-3l0.3-0.3l3.2,3L1164.5,263.5z M1096.9,263.5l-0.2-0.4l3.8-2l0.2,0.4
			L1096.9,263.5z M1051.5,260.3l-0.4-0.1l1.5-4.1l0.4,0.1L1051.5,260.3z M1104.6,259.5l-0.2-0.4l3.8-2l0.2,0.4L1104.6,259.5z
			 M1192,259.3l-0.4-0.2c0.6-1.3,1.2-2.7,1.8-4l0.4,0.2C1193.2,256.7,1192.6,258,1192,259.3z M1158.2,257.6l-3.2-3l0.3-0.3l3.2,3
			L1158.2,257.6z M1112.3,255.5l-0.2-0.4l3.8-2l0.2,0.4L1112.3,255.5z M1054.5,252.1l-0.4-0.1l1.5-4.1l0.4,0.1L1054.5,252.1z
			 M1151.8,251.7l-3.2-3l0.3-0.3l3.2,3L1151.8,251.7z M1120,251.5l-0.2-0.4l3.8-2l0.2,0.4L1120,251.5z M1195.6,251.4l-0.4-0.2
			c0.7-1.4,1.3-2.7,1.9-3.9l0.4,0.2C1196.9,248.7,1196.3,250,1195.6,251.4z M1138.4,249.4l-1.8-0.3l0.1-0.4l1.8,0.3L1138.4,249.4z
			 M1132.3,248.3l-4.3-0.8l0-0.2l-0.4,0.2l-0.2-0.4l3.8-2l0.2,0.4l-3.1,1.6l4,0.7L1132.3,248.3z M1123.8,246.7l-4.3-0.8l0.1-0.4
			l4.3,0.8L1123.8,246.7z M1145.5,245.7l-3.2-3l0.3-0.3l3.2,3L1145.5,245.7z M1115.2,245.2l-4.3-0.8l0.1-0.4l4.3,0.8L1115.2,245.2z
			 M1057.4,243.9l-0.4-0.1l1.5-4.1l0.4,0.1L1057.4,243.9z M1199.6,243.7l-0.4-0.2c1.7-3,2.4-3.4,2.8-3.4v0.4
			C1201.9,240.5,1201.3,240.7,1199.6,243.7z M1106.7,243.7l-4.3-0.8l0.1-0.4l4.3,0.8L1106.7,243.7z M1135.4,243.5l-0.2-0.4l3.8-2
			l0.2,0.4L1135.4,243.5z M1098.2,242.1l-4.3-0.8l0.1-0.4l4.3,0.8L1098.2,242.1z M1089.6,240.6l-4.3-0.8l0.1-0.4l4.3,0.8
			L1089.6,240.6z M1081.1,239.1l-4.3-0.8l0.1-0.4l4.3,0.8L1081.1,239.1z M1072.5,237.5l-4.3-0.8l0.1-0.4l4.3,0.8L1072.5,237.5z
			 M1064,236l-3.5-0.6l-0.1,0.4l-0.4-0.1l0.3-0.7l3.8,0.7L1064,236z"/>
	</g>
	<g style="clip-path:url(#SVGID_00000093864612114284017030000012136280811759151233_);">
		<path class="st28" d="M1216.4,226l-0.4,0l0.2-4.3l0.4,0L1216.4,226z M1213,225.5l-0.6-2.8l0.4-0.1l0.6,2.8L1213,225.5z
			 M1211.4,218.5l-0.9-4.2l0.4-0.1l0.9,4.2L1211.4,218.5z M1216.8,217.3l-0.4,0l0.2-4.3l0.4,0L1216.8,217.3z M1209.6,210l-0.9-4.2
			l0.4-0.1l0.9,4.2L1209.6,210z M1217.2,208.7l-0.4,0l0.2-4.3l0.4,0L1217.2,208.7z M1207.7,201.6l-0.9-4.2l0.4-0.1l0.9,4.2
			L1207.7,201.6z M1217.6,200l-0.4,0l0.2-4.3l0.4,0L1217.6,200z M1205.8,193.1l-0.9-4.2l0.4-0.1l0.9,4.2L1205.8,193.1z
			 M1217.9,191.3l-0.4,0l0.2-4.3l0.4,0L1217.9,191.3z M1204,184.6l-0.9-4.2l0.4-0.1l0.9,4.2L1204,184.6z M1218.3,182.7l-0.4,0
			l0.2-4.3l0.4,0L1218.3,182.7z M1202.1,176.1l-0.9-4.2l0.4-0.1l0.9,4.2L1202.1,176.1z M1218.7,174l-0.4,0l0.2-4.3l0.4,0L1218.7,174
			z M1200.2,167.7l-0.9-4.2l0.4-0.1l0.9,4.2L1200.2,167.7z M1219.1,165.3l-0.4,0l0.2-4.3l0.4,0L1219.1,165.3z M1198.4,159.2
			l-0.9-4.2l0.4-0.1l0.9,4.2L1198.4,159.2z M1219.4,156.7l-0.4,0l0.2-4.3l0.4,0L1219.4,156.7z M1196.5,150.7l-0.9-4.2l0.4-0.1
			l0.9,4.2L1196.5,150.7z M1219.8,148l-0.4,0l0.2-4.3l0.4,0L1219.8,148z M1194.6,142.3l-0.9-4.2l0.4-0.1l0.9,4.2L1194.6,142.3z
			 M1220.2,139.3l-0.4,0l0.2-4.3l0.4,0L1220.2,139.3z M1192.8,133.8l-0.9-4.2l0.4-0.1l0.9,4.2L1192.8,133.8z M1220.6,130.7l-0.4,0
			l0-0.5l-3.2-1.6l0.2-0.4l3.4,1.7L1220.6,130.7z M1213.1,126.6l-3.9-2l0.2-0.4l3.9,2L1213.1,126.6z M1190.9,125.3l-0.9-4.2l0.4-0.1
			l0.9,4.2L1190.9,125.3z M1205.4,122.7l-3.9-2l0.2-0.4l3.9,2L1205.4,122.7z M1197.6,118.8l-3.9-2l0.2-0.4l3.9,2L1197.6,118.8z
			 M1189,116.8l-0.7-3.2l1.7,0.9l-0.2,0.4l-0.9-0.5l0.5,2.3L1189,116.8z"/>
	</g>
	<g style="clip-path:url(#SVGID_00000093864612114284017030000012136280811759151233_);">
		
			<ellipse transform="matrix(0.2284 -0.9736 0.9736 0.2284 387.9981 1030.0775)" class="st29" cx="843.8" cy="270.3" rx="5.9" ry="5.9"/>
		<g>
			<path class="st10" d="M844.2,274.1h-0.8c-0.2,0-0.4-0.2-0.4-0.4v-0.3c0-0.1-0.1-0.2-0.2-0.2c-0.1,0-0.2-0.1-0.4-0.2
				c-0.1,0-0.2,0-0.3,0l-0.2,0.2c-0.1,0.1-0.2,0.1-0.3,0.1l0,0c-0.1,0-0.2,0-0.3-0.1l-0.5-0.5c-0.2-0.2-0.2-0.4,0-0.6l0.2-0.2
				c0.1-0.1,0.1-0.2,0-0.3c-0.1-0.1-0.1-0.2-0.2-0.4c0-0.1-0.1-0.2-0.2-0.2h-0.3c-0.2,0-0.4-0.2-0.4-0.4v-0.8c0-0.2,0.2-0.4,0.4-0.4
				h0.4c0.1,0,0.2-0.1,0.2-0.2c0-0.1,0.1-0.2,0.2-0.4c0-0.1,0-0.2,0-0.3l-0.3-0.3c-0.1-0.1-0.1-0.2-0.1-0.3c0-0.1,0-0.2,0.1-0.3
				l0.5-0.5c0.1-0.1,0.2-0.1,0.3-0.1l0,0c0.1,0,0.2,0,0.3,0.1l0.3,0.3c0.1,0.1,0.2,0.1,0.3,0c0.1-0.1,0.2-0.1,0.4-0.2
				c0.1,0,0.2-0.1,0.2-0.2v-0.4c0-0.2,0.2-0.4,0.4-0.4h0.8c0.2,0,0.4,0.2,0.4,0.4v0.4c0,0.1,0.1,0.2,0.2,0.2c0.1,0,0.2,0.1,0.4,0.2
				c0.1,0,0.2,0,0.3,0l0.3-0.3c0.2-0.2,0.4-0.2,0.6,0l0.5,0.6c0.1,0.1,0.1,0.2,0.1,0.3c0,0.1,0,0.2-0.1,0.3l-0.3,0.3
				c-0.1,0.1-0.1,0.2,0,0.3c0.1,0.1,0.1,0.2,0.2,0.4c0,0.1,0.1,0.2,0.2,0.2h0.4c0.2,0,0.4,0.2,0.4,0.4v0.8c0,0.2-0.2,0.4-0.4,0.4
				h-0.3c-0.1,0-0.2,0.1-0.2,0.2c0,0.1-0.1,0.2-0.2,0.4c0,0.1,0,0.2,0,0.3l0.2,0.2c0.2,0.2,0.2,0.4,0,0.6l-0.5,0.5
				c-0.2,0.2-0.4,0.2-0.6,0l-0.2-0.2c-0.1-0.1-0.2-0.1-0.3,0c-0.1,0.1-0.2,0.1-0.4,0.2c-0.1,0-0.2,0.1-0.2,0.2v0.3
				C844.6,273.9,844.4,274.1,844.2,274.1z M842.4,272.7c0.1,0,0.1,0,0.2,0c0.1,0.1,0.2,0.1,0.3,0.1c0.2,0.1,0.3,0.3,0.3,0.5v0.3
				c0,0.1,0.1,0.2,0.2,0.2h0.8c0.1,0,0.2-0.1,0.2-0.2v-0.3c0-0.2,0.1-0.4,0.3-0.5c0.1,0,0.2-0.1,0.3-0.1c0.2-0.1,0.4-0.1,0.5,0.1
				l0.2,0.2c0.1,0.1,0.2,0.1,0.2,0l0.5-0.5c0.1-0.1,0.1-0.2,0-0.2l-0.2-0.2c-0.1-0.1-0.2-0.4-0.1-0.5c0.1-0.1,0.1-0.2,0.1-0.3
				c0.1-0.2,0.3-0.3,0.5-0.3h0.3c0.1,0,0.2-0.1,0.2-0.2v-0.8c0-0.1-0.1-0.2-0.2-0.2h-0.4c-0.2,0-0.4-0.1-0.5-0.3
				c0-0.1-0.1-0.2-0.1-0.3c-0.1-0.2-0.1-0.4,0.1-0.6l0.3-0.3c0,0,0-0.1,0-0.1c0,0,0-0.1,0-0.1l-0.5-0.6c-0.1-0.1-0.2-0.1-0.2,0
				l-0.3,0.3c-0.1,0.1-0.4,0.2-0.5,0.1c-0.1-0.1-0.2-0.1-0.3-0.1c-0.2-0.1-0.3-0.2-0.3-0.5v-0.4c0-0.1-0.1-0.2-0.2-0.2h-0.8
				c-0.1,0-0.2,0.1-0.2,0.2v0.4c0,0.2-0.1,0.4-0.3,0.5c-0.1,0-0.2,0.1-0.3,0.1c-0.2,0.1-0.4,0.1-0.5-0.1l-0.3-0.3c0,0-0.1,0-0.1,0
				l0,0c0,0-0.1,0-0.1,0L841,268c0,0,0,0.1,0,0.1c0,0,0,0.1,0,0.1l0.3,0.3c0.1,0.1,0.2,0.4,0.1,0.6c-0.1,0.1-0.1,0.2-0.1,0.3
				c-0.1,0.2-0.3,0.3-0.5,0.3h-0.4c-0.1,0-0.2,0.1-0.2,0.2v0.8c0,0.1,0.1,0.2,0.2,0.2h0.3c0.2,0,0.4,0.1,0.5,0.3
				c0,0.1,0.1,0.2,0.1,0.3c0.1,0.2,0.1,0.4-0.1,0.5l-0.2,0.2c-0.1,0.1-0.1,0.2,0,0.2l0.5,0.5c0,0,0.1,0,0.1,0l0,0c0,0,0.1,0,0.1,0
				l0.2-0.2C842.1,272.8,842.3,272.7,842.4,272.7z M843.8,272.3c-1.1,0-2-0.9-2-2s0.9-2,2-2c1.1,0,2,0.9,2,2
				C845.8,271.4,844.9,272.3,843.8,272.3z M843.8,268.6c-0.9,0-1.7,0.8-1.7,1.7c0,0.9,0.8,1.7,1.7,1.7c0.9,0,1.7-0.8,1.7-1.7
				C845.5,269.4,844.8,268.6,843.8,268.6z"/>
		</g>
	</g>
	<g style="clip-path:url(#SVGID_00000093864612114284017030000012136280811759151233_);">
		
			<ellipse transform="matrix(0.2298 -0.9732 0.9732 0.2298 765.9255 1273.9386)" class="st30" cx="1187.9" cy="153" rx="15.2" ry="15.2"/>
		<path class="st10" d="M1194.8,144.3c-0.1-0.1-0.2-0.1-0.3-0.1l-10.6,2c-0.2,0-0.3,0.2-0.3,0.4v10.9c-0.5-0.4-1.1-0.7-1.7-0.7
			c-1.3,0-2.4,1.1-2.4,2.4s1.1,2.4,2.4,2.4c1.3,0,2.4-1.1,2.4-2.4v-9.9l9.8-1.8v8c-0.5-0.4-1.1-0.7-1.7-0.7c-1.3,0-2.4,1.1-2.4,2.4
			c0,1.3,1.1,2.4,2.4,2.4c1.3,0,2.4-1.1,2.4-2.4v-12.6C1195,144.5,1194.9,144.4,1194.8,144.3L1194.8,144.3z M1194.2,145.1v1.6
			l-9.8,1.8v-1.6L1194.2,145.1z M1182,160.9c-0.9,0-1.7-0.8-1.7-1.7c0-0.9,0.8-1.7,1.7-1.7c0.9,0,1.7,0.8,1.7,1.7
			C1183.6,160.2,1182.9,160.9,1182,160.9z M1194.2,157.2c0,0.9-0.8,1.7-1.7,1.7s-1.7-0.8-1.7-1.7s0.8-1.7,1.7-1.7
			C1193.5,155.5,1194.2,156.3,1194.2,157.2z"/>
	</g>
	<g style="clip-path:url(#SVGID_00000093864612114284017030000012136280811759151233_);">
		
			<ellipse transform="matrix(0.5283 -0.849 0.849 0.5283 212.7038 959.7079)" class="st31" cx="970.1" cy="288.4" rx="12.9" ry="12.9"/>
		<path class="st10" d="M975.7,282.7h-11.4c-0.1,0-0.3,0.1-0.3,0.3v11.4c0,0.1,0.1,0.3,0.3,0.3h11.4c0.1,0,0.3-0.1,0.3-0.3V283
			C975.9,282.9,975.8,282.7,975.7,282.7z M975.4,286.2v7.9h-10.9v-3l3.9-2.9l2.8,2.1c0.1,0.1,0.2,0.1,0.3,0L975.4,286.2z
			 M975.4,285.5C975.4,285.5,975.3,285.5,975.4,285.5l-4.1,4.2l-2.7-2.1c-0.1-0.1-0.2-0.1-0.3,0l-3.8,2.8v-7.2h10.9V285.5z"/>
		<path class="st10" d="M966.8,286.9c0.6,0,1.2-0.5,1.2-1.2c0-0.6-0.5-1.2-1.2-1.2s-1.2,0.5-1.2,1.2
			C965.6,286.4,966.1,286.9,966.8,286.9z M966.1,285.7c0-0.4,0.3-0.7,0.7-0.7c0.4,0,0.7,0.3,0.7,0.7c0,0.4-0.3,0.7-0.7,0.7
			C966.4,286.4,966.1,286.1,966.1,285.7z"/>
	</g>
	<g style="clip-path:url(#SVGID_00000093864612114284017030000012136280811759151233_);">
		<circle class="st32" cx="1212.4" cy="78.5" r="9.5"/>
		<g>
			<path class="st10" d="M1212.4,80.2c1.2,0,2.2-1,2.2-2.2v-3.1c0-1.2-1-2.2-2.2-2.2s-2.2,1-2.2,2.2V78
				C1210.3,79.2,1211.2,80.2,1212.4,80.2z M1214.1,75.4h-3.4v-0.6c0-0.9,0.8-1.7,1.7-1.7c0.9,0,1.7,0.8,1.7,1.7V75.4z M1210.7,75.9
				h3.4V78c0,0.9-0.8,1.7-1.7,1.7s-1.7-0.8-1.7-1.7V75.9z"/>
			<path class="st10" d="M1216,78.1c0-0.1-0.1-0.2-0.2-0.2c-0.1,0-0.2,0.1-0.2,0.2c0,1.7-1.4,3.1-3.1,3.1c-1.7,0-3.1-1.4-3.1-3.1
				c0-0.1-0.1-0.2-0.2-0.2c-0.1,0-0.2,0.1-0.2,0.2c0,1.9,1.5,3.4,3.3,3.6v2.8h-2c-0.1,0-0.2,0.1-0.2,0.2s0.1,0.2,0.2,0.2h4.5
				c0.1,0,0.2-0.1,0.2-0.2s-0.1-0.2-0.2-0.2h-2v-2.8C1214.5,81.5,1216,80,1216,78.1z"/>
		</g>
	</g>
	<g style="clip-path:url(#SVGID_00000093864612114284017030000012136280811759151233_);">
		<ellipse class="st30" cx="864.7" cy="281.8" rx="10.3" ry="10.3"/>
		<path class="st10" d="M859.5,287.8c0,0,0.1,0.1,0.2,0.1c0.1,0,0.2,0,0.2-0.1l3-3.5c0.7,0.5,1.6,0.7,2.5,0.7c2.5,0,4.6-2.1,4.6-4.6
			c0-2.5-2.1-4.6-4.6-4.6c-2.5,0-4.6,2.1-4.6,4.6c0,1.4,0.7,2.7,1.7,3.6l-2.9,3.5C859.4,287.5,859.4,287.7,859.5,287.8z
			 M861.2,280.3c0-2.2,1.8-4.1,4.1-4.1c2.2,0,4.1,1.8,4.1,4.1c0,2.2-1.8,4.1-4.1,4.1C863.1,284.4,861.2,282.6,861.2,280.3z"/>
	</g>
	<g style="clip-path:url(#SVGID_00000093864612114284017030000012136280811759151233_);">
		<ellipse transform="matrix(0.9732 -0.2298 0.2298 0.9732 16.609 272.5911)" class="st29" cx="1178.6" cy="65" rx="7.4" ry="7.4"/>
		<g>
			<path class="st10" d="M1180,67.8c0.1-0.1,0.2-0.1,0.3-0.1c0,0,0.1,0.1,0.1,0.1c0,0,0,0.1,0,0.2l-0.5,0.9c0.6-0.2,1.2-0.5,1.7-1
				c1.6-1.5,1.6-4.1,0.1-5.7c-0.6-0.6-1.4-1-2.2-1.2c-0.1,0-0.1,0-0.1-0.1c0,0,0-0.1,0-0.2c0-0.1,0.1-0.2,0.2-0.2
				c0.9,0.2,1.8,0.6,2.4,1.3c0.8,0.9,1.3,2,1.2,3.2c0,1.2-0.5,2.3-1.4,3.1c-0.5,0.4-1,0.8-1.6,1l0.8,0.2c0.1,0,0.1,0,0.1,0.1
				c0,0,0,0.1,0,0.2c0,0.1-0.1,0.2-0.2,0.2c0,0,0,0,0,0l-1.6-0.3c-0.1,0-0.1-0.1-0.1-0.1c0-0.1,0-0.1,0-0.2L1180,67.8z"/>
			<path class="st10" d="M1175.6,61.8c0.5-0.4,1-0.8,1.6-1l-0.8-0.2c-0.1,0-0.2-0.1-0.2-0.2c0-0.1,0-0.1,0.1-0.1c0,0,0.1,0,0.2,0
				l1.6,0.3c0.1,0,0.1,0.1,0.1,0.1c0,0,0,0.1,0,0.1c0,0.1,0,0.2-0.1,0.2l-0.7,1.3c-0.1,0.1-0.2,0.1-0.3,0.1c0,0-0.1-0.1-0.1-0.1
				c0-0.1,0-0.1,0-0.2l0.5-0.9c-0.6,0.2-1.2,0.5-1.6,1c-0.8,0.7-1.2,1.8-1.2,2.8c0,1.1,0.4,2.1,1.1,2.9c0.6,0.6,1.4,1,2.2,1.2
				c0.1,0,0.1,0,0.1,0.1c0,0,0,0.1,0,0.2c0,0.1-0.1,0.2-0.2,0.2c0,0,0,0,0,0c-0.9-0.2-1.8-0.6-2.4-1.3c-0.8-0.9-1.3-2-1.2-3.2
				C1174.3,63.8,1174.7,62.7,1175.6,61.8z"/>
		</g>
	</g>
	<path style="clip-path:url(#SVGID_00000093864612114284017030000012136280811759151233_);fill:#FAF2B4;" d="M1162.6,255.7
		c-1.4,0-2.6,1.2-2.6,2.6s1.2,2.6,2.6,2.6c1.4,0,2.6-1.2,2.6-2.6S1164.1,255.7,1162.6,255.7z"/>
	
		<ellipse style="clip-path:url(#SVGID_00000093864612114284017030000012136280811759151233_);fill:#364093;" cx="1115.5" cy="254.3" rx="4" ry="4"/>
	
		<ellipse transform="matrix(0.7071 -0.7071 0.7071 0.7071 76.2324 730.7835)" style="clip-path:url(#SVGID_00000093864612114284017030000012136280811759151233_);fill:#DDB39C;" cx="920.2" cy="273.4" rx="3.7" ry="3.7"/>
	
		<ellipse style="clip-path:url(#SVGID_00000093864612114284017030000012136280811759151233_);fill:#FAF2B4;" cx="1003.4" cy="280.3" rx="4.2" ry="4.2"/>
	<path style="clip-path:url(#SVGID_00000093864612114284017030000012136280811759151233_);fill:#BAB2D9;" d="M993,269.3
		c-1,0.6-1.3,1.9-0.7,2.9c0.6,1,1.9,1.3,2.9,0.7c1-0.6,1.3-1.9,0.7-2.9C995.3,268.9,994,268.7,993,269.3z"/>
	
		<circle style="clip-path:url(#SVGID_00000093864612114284017030000012136280811759151233_);fill:#BAB2D9;" cx="1168.8" cy="242.4" r="5.2"/>
	
		<ellipse style="clip-path:url(#SVGID_00000093864612114284017030000012136280811759151233_);fill:#BAB2D9;" cx="1144.5" cy="137.8" rx="6" ry="6"/>
	
		<circle style="clip-path:url(#SVGID_00000093864612114284017030000012136280811759151233_);fill:#B1949A;" cx="909.1" cy="290.6" r="7.4"/>
	<g style="clip-path:url(#SVGID_00000093864612114284017030000012136280811759151233_);">
		<circle class="st32" cx="984" cy="90.2" r="2.6"/>
		<circle class="st38" cx="977.5" cy="81.9" r="3.3"/>
		<path class="st30" d="M969.9,90.2c0.9,0,1.7,0.7,1.7,1.7c0,0.9-0.7,1.7-1.7,1.7c-0.9,0-1.7-0.7-1.7-1.7
			C968.2,91,969,90.2,969.9,90.2z"/>
	</g>
	<path style="clip-path:url(#SVGID_00000093864612114284017030000012136280811759151233_);fill:#FAF2B4;" d="M994.2,229.9
		c-1.3,0-2.3,1-2.3,2.3s1,2.3,2.3,2.3s2.3-1,2.3-2.3S995.5,229.9,994.2,229.9z"/>
	
		<circle style="clip-path:url(#SVGID_00000093864612114284017030000012136280811759151233_);fill:#A6B0C6;" cx="985.8" cy="224.3" r="4.5"/>
	<path style="clip-path:url(#SVGID_00000093864612114284017030000012136280811759151233_);fill:#BAB2D9;" d="M978.2,229.6
		c-0.6,0-1.2,0.5-1.2,1.2c0,0.6,0.5,1.2,1.2,1.2c0.6,0,1.2-0.5,1.2-1.2C979.4,230.1,978.8,229.6,978.2,229.6z"/>
	<g style="clip-path:url(#SVGID_00000093864612114284017030000012136280811759151233_);">
		<ellipse class="st28" cx="1220.3" cy="44.4" rx="15.9" ry="16.4"/>
		<g>
			<path class="st10" d="M1225.3,39.2c-0.3,0-0.7,0-1,0.1c-1-1.8-2.8-2.9-4.7-2.9c-2.5,0-4.7,1.8-5.3,4.3c-0.1,0-0.2,0-0.3,0
				c-2.3,0-4.2,2-4.2,4.4c0,1.1,0.4,3.1,1.2,4c0.1,0.1,0.2,0.1,0.3,0.1h6.5c0.2,0,0.4-0.2,0.4-0.4c0-0.2-0.2-0.4-0.4-0.4h-6.3
				c-0.5-0.7-0.9-2.3-0.9-3.3c0-2,1.5-3.6,3.4-3.6c0.2,0,0.3,0,0.5,0c0.2,0,0.4-0.1,0.5-0.3c0.4-2.3,2.3-4,4.6-4
				c1.8,0,3.3,1,4.1,2.7c0.1,0.2,0.3,0.3,0.5,0.2c0.4-0.1,0.8-0.2,1.1-0.2c2.6,0,4.6,2.2,4.6,4.9c0,1-0.3,2.7-0.7,3.5h-6.3
				c-0.2,0-0.4,0.2-0.4,0.4c0,0.2,0.2,0.4,0.4,0.4h6.5c0.1,0,0.3-0.1,0.3-0.2c0.6-1,1-3,1-4.1C1230.7,41.8,1228.3,39.2,1225.3,39.2z
				"/>
			<path class="st10" d="M1220.6,43.6c-0.1-0.1-0.2-0.2-0.3-0.2c-0.1,0-0.2,0.1-0.3,0.2l-1.8,2.6c-0.1,0.1-0.1,0.2-0.1,0.3
				c0,0.1,0.1,0.2,0.2,0.3c0.2,0.1,0.4,0.1,0.5-0.1l1-1.5v8.1c0,0.2,0.2,0.4,0.4,0.4s0.4-0.2,0.4-0.4v-8.1l1,1.5
				c0.1,0.2,0.4,0.2,0.5,0.1c0.1-0.1,0.1-0.2,0.2-0.3c0-0.1,0-0.2-0.1-0.3L1220.6,43.6z"/>
		</g>
	</g>
	<g style="clip-path:url(#SVGID_00000093864612114284017030000012136280811759151233_);">
		<ellipse class="st38" cx="1143" cy="238.7" rx="10" ry="10"/>
		<g>
			<path class="st10" d="M1143.1,238.8c-1.1,0-2.1,0.4-2.9,1.2c-0.1,0-0.1,0.1-0.1,0.2s0,0.1,0.1,0.2c0,0.1,0.1,0.1,0.2,0.1
				c0.1,0,0.1,0,0.2-0.1c0.7-0.7,1.6-1,2.5-1c0.9,0,1.8,0.4,2.5,1c0.1,0.1,0.3,0.1,0.4,0c0-0.1,0.1-0.1,0.1-0.2c0-0.1,0-0.1-0.1-0.2
				C1145.2,239.2,1144.1,238.8,1143.1,238.8z"/>
			<path class="st10" d="M1143.1,236.1c-1.8,0-3.5,0.7-4.7,1.9c-0.1,0-0.1,0.1-0.1,0.2s0,0.1,0.1,0.2c0,0.1,0.1,0.1,0.2,0.1
				c0.1,0,0.1,0,0.2-0.1c1.2-1.1,2.7-1.7,4.4-1.7c1.6,0,3.2,0.6,4.3,1.7c0.1,0.1,0.3,0.1,0.4,0c0-0.1,0.1-0.1,0.1-0.2
				c0-0.1,0-0.1-0.1-0.2C1146.5,236.7,1144.8,236.1,1143.1,236.1z"/>
			<path class="st10" d="M1149.1,235.8c-1.6-1.5-3.7-2.4-6-2.4c-2.2,0-4.4,0.9-6,2.4c-0.1,0-0.1,0.1-0.1,0.2s0,0.1,0.1,0.2
				c0,0.1,0.1,0.1,0.2,0.1c0.1,0,0.1,0,0.2-0.1c1.5-1.5,3.5-2.2,5.6-2.2c2.1,0,4.1,0.8,5.6,2.2c0.1,0.1,0.3,0.1,0.4,0
				c0-0.1,0.1-0.1,0.1-0.2C1149.1,236,1149.1,235.9,1149.1,235.8z"/>
			<path class="st10" d="M1143.1,241.2c-0.8,0-1.4,0.6-1.4,1.4c0,0.8,0.6,1.4,1.4,1.4c0.8,0,1.4-0.6,1.4-1.4
				C1144.5,241.8,1143.8,241.2,1143.1,241.2z M1143.9,242.6c0,0.5-0.4,0.9-0.9,0.9c-0.5,0-0.9-0.4-0.9-0.9s0.4-0.9,0.9-0.9
				C1143.5,241.7,1143.9,242.1,1143.9,242.6z"/>
		</g>
	</g>
	<g style="clip-path:url(#SVGID_00000093864612114284017030000012136280811759151233_);">
		<ellipse class="st38" cx="162.5" cy="129.4" rx="10" ry="10"/>
		<g>
			<path class="st10" d="M162.5,129.5c-1.1,0-2.1,0.4-2.9,1.2c-0.1,0-0.1,0.1-0.1,0.2s0,0.1,0.1,0.2c0,0.1,0.1,0.1,0.2,0.1
				c0.1,0,0.1,0,0.2-0.1c0.7-0.7,1.6-1,2.5-1c0.9,0,1.8,0.4,2.5,1c0.1,0.1,0.3,0.1,0.4,0c0-0.1,0.1-0.1,0.1-0.2c0-0.1,0-0.1-0.1-0.2
				C164.6,129.9,163.5,129.5,162.5,129.5z"/>
			<path class="st10" d="M162.5,126.8c-1.8,0-3.5,0.7-4.7,1.9c-0.1,0-0.1,0.1-0.1,0.2s0,0.1,0.1,0.2c0,0.1,0.1,0.1,0.2,0.1
				c0.1,0,0.1,0,0.2-0.1c1.2-1.1,2.7-1.7,4.4-1.7c1.6,0,3.2,0.6,4.3,1.7c0.1,0.1,0.3,0.1,0.4,0c0-0.1,0.1-0.1,0.1-0.2
				c0-0.1,0-0.1-0.1-0.2C165.9,127.5,164.2,126.8,162.5,126.8z"/>
			<path class="st10" d="M168.4,126.6c-1.6-1.5-3.7-2.4-6-2.4c-2.2,0-4.4,0.9-6,2.4c-0.1,0-0.1,0.1-0.1,0.2s0,0.1,0.1,0.2
				c0,0.1,0.1,0.1,0.2,0.1c0.1,0,0.1,0,0.2-0.1c1.5-1.5,3.5-2.2,5.6-2.2c2.1,0,4.1,0.8,5.6,2.2c0.1,0.1,0.3,0.1,0.4,0
				c0-0.1,0.1-0.1,0.1-0.2C168.5,126.7,168.5,126.6,168.4,126.6z"/>
			<path class="st10" d="M162.5,131.9c-0.8,0-1.4,0.6-1.4,1.4c0,0.8,0.6,1.4,1.4,1.4c0.8,0,1.4-0.6,1.4-1.4
				C163.9,132.5,163.2,131.9,162.5,131.9z M163.3,133.3c0,0.5-0.4,0.9-0.9,0.9c-0.5,0-0.9-0.4-0.9-0.9s0.4-0.9,0.9-0.9
				C162.9,132.5,163.3,132.8,163.3,133.3z"/>
		</g>
	</g>
	<g style="clip-path:url(#SVGID_00000093864612114284017030000012136280811759151233_);">
		
			<ellipse transform="matrix(0.998 -6.389721e-02 6.389721e-02 0.998 -2.2977 64.6678)" class="st32" cx="1009.9" cy="68.3" rx="12.8" ry="12.8"/>
		<path class="st10" d="M1014,62.5c-1.5-0.4-3.1,0.3-4.2,1.7c-1-1.4-2.7-2.1-4.2-1.7c-1.7,0.4-2.8,1.8-2.8,3.7
			c-0.1,5.2,6.8,9.5,6.9,9.5c0,0,0,0,0.1,0s0.1,0,0.1,0c0.1,0,7-4.3,6.9-9.5C1016.8,64.4,1015.7,62.9,1014,62.5z M1016.3,66.2
			c0.1,4.5-5.6,8.4-6.4,8.9c-0.8-0.5-6.5-4.4-6.4-8.9c0-1.6,1-2.8,2.4-3.2c0.2-0.1,0.5-0.1,0.7-0.1c1.2,0,2.4,0.7,3.1,1.9
			c0,0.1,0.1,0.1,0.2,0.1s0.2,0,0.2-0.1c0.9-1.4,2.4-2.1,3.8-1.8C1015.3,63.4,1016.2,64.6,1016.3,66.2z"/>
	</g>
	<g style="clip-path:url(#SVGID_00000093864612114284017030000012136280811759151233_);">
		<circle class="st40" cx="1088.9" cy="283.2" r="21.3"/>
		<path class="st10" d="M1088.9,270.2c-7.2,0-13.1,5.9-13.1,13.1c0,7.2,5.9,13.1,13.1,13.1s13.1-5.9,13.1-13.1
			C1102,276,1096.1,270.2,1088.9,270.2z M1095.4,290.6c-1.5,2.4-3.7,4-6.1,4.6v-6.5C1091.5,288.8,1093.6,289.5,1095.4,290.6z
			 M1089.3,287.9v-4.2h8.2c-0.1,2.2-0.6,4.4-1.6,6.2C1093.9,288.7,1091.7,288,1089.3,287.9z M1096.1,291.1c0.4,0.3,0.8,0.6,1.2,1
			c-1.5,1.4-3.3,2.4-5.3,3C1093.6,294.2,1095,292.8,1096.1,291.1z M1096.1,275.4c-1.1-1.7-2.5-3-4.1-3.9c2,0.5,3.8,1.5,5.2,3
			C1096.9,274.8,1096.6,275.1,1096.1,275.4z M1097.5,282.8h-8.2v-4.2c2.3-0.1,4.6-0.8,6.6-2C1096.9,278.4,1097.4,280.6,1097.5,282.8
			z M1089.3,277.8v-6.5c2.5,0.6,4.6,2.2,6.1,4.6C1093.6,277,1091.5,277.7,1089.3,277.8z M1101.1,283.7c-0.1,2.9-1.2,5.7-3.2,7.8
			c-0.4-0.4-0.9-0.8-1.4-1.1c1.1-2,1.7-4.3,1.8-6.7H1101.1z M1101.1,282.8h-2.8c-0.1-2.4-0.7-4.7-1.8-6.7c0.5-0.3,0.9-0.7,1.3-1.1
			C1099.9,277.1,1101,279.9,1101.1,282.8z M1082.3,275.9c1.5-2.4,3.7-4,6.1-4.6v6.5C1086.3,277.7,1084.2,277,1082.3,275.9z
			 M1088.5,278.6v4.2h-8.2c0.1-2.2,0.6-4.4,1.6-6.2C1083.9,277.8,1086.2,278.5,1088.5,278.6z M1081.7,275.4c-0.4-0.3-0.8-0.6-1.2-1
			c1.5-1.4,3.3-2.4,5.2-2.9C1084.1,272.4,1082.7,273.7,1081.7,275.4z M1076.7,282.8c0.1-2.9,1.2-5.7,3.2-7.8
			c0.4,0.4,0.9,0.8,1.3,1.1c-1.1,2-1.7,4.3-1.8,6.7H1076.7z M1081.7,291.1c1.1,1.7,2.5,3,4,4c-2-0.5-3.8-1.5-5.2-2.9
			C1080.9,291.7,1081.3,291.4,1081.7,291.1z M1080.3,283.7h8.2v4.2c-2.3,0.1-4.6,0.8-6.5,2C1080.9,288,1080.4,285.9,1080.3,283.7z
			 M1088.5,288.7v6.5c-2.4-0.6-4.6-2.2-6.1-4.6C1084.2,289.5,1086.3,288.8,1088.5,288.7z M1079.9,291.5c-2-2.1-3.1-4.9-3.2-7.8h2.8
			c0.1,2.4,0.7,4.7,1.8,6.7C1080.8,290.7,1080.3,291.1,1079.9,291.5z"/>
	</g>
	<g style="clip-path:url(#SVGID_00000093864612114284017030000012136280811759151233_);">
		
			<ellipse transform="matrix(0.7855 -0.6189 0.6189 0.7855 183.9048 782.5876)" class="st29" cx="1220.8" cy="126" rx="16.9" ry="16.9"/>
		<g>
			<path class="st10" d="M1227.9,122.3l-2,0l0-2c-0.1-2.8-2.4-5.1-5.3-5s-5.1,2.4-5.1,5.2l0,2l-1.9,0c-0.2,0-0.4,0.2-0.4,0.4
				l0.2,11.7c0,0.2,0.2,0.4,0.4,0.4l14.3-0.3c0.2,0,0.4-0.2,0.4-0.4l-0.2-11.7C1228.3,122.5,1228.1,122.3,1227.9,122.3z
				 M1227.5,123.1l0.2,10.9l-13.5,0.3l-0.2-10.9L1227.5,123.1z M1225.1,122.4l-8.8,0.2l0-2c0-2.4,1.9-4.4,4.3-4.4
				c2.4,0,4.4,1.9,4.5,4.2L1225.1,122.4z"/>
			<path class="st10" d="M1220.8,130.4c0.2,0,0.4-0.2,0.4-0.4l-0.1-3.6c0-0.2-0.2-0.4-0.4-0.4c-0.2,0-0.4,0.2-0.4,0.4l0.1,3.6
				C1220.4,130.2,1220.6,130.4,1220.8,130.4z"/>
		</g>
	</g>
	<g style="clip-path:url(#SVGID_00000093864612114284017030000012136280811759151233_);">
		
			<ellipse transform="matrix(0.7855 -0.6189 0.6189 0.7855 3.7059 131.2754)" class="st29" cx="191.2" cy="60.3" rx="16.9" ry="16.9"/>
		<g>
			<path class="st10" d="M198.3,56.6l-2,0l0-2c-0.1-2.8-2.4-5.1-5.3-5s-5.1,2.4-5.1,5.2l0,2l-1.9,0c-0.2,0-0.4,0.2-0.4,0.4l0.2,11.7
				c0,0.2,0.2,0.4,0.4,0.4l14.3-0.3c0.2,0,0.4-0.2,0.4-0.4L198.7,57C198.7,56.7,198.5,56.6,198.3,56.6z M197.9,57.3l0.2,10.9
				l-13.5,0.3l-0.2-10.9L197.9,57.3z M195.5,56.6l-8.8,0.2l0-2c0-2.4,1.9-4.4,4.3-4.4c2.4,0,4.4,1.9,4.5,4.2L195.5,56.6z"/>
			<path class="st10" d="M191.2,64.6c0.2,0,0.4-0.2,0.4-0.4l-0.1-3.6c0-0.2-0.2-0.4-0.4-0.4c-0.2,0-0.4,0.2-0.4,0.4l0.1,3.6
				C190.8,64.4,191,64.6,191.2,64.6z"/>
		</g>
	</g>
	<g style="clip-path:url(#SVGID_00000093864612114284017030000012136280811759151233_);">
		<ellipse class="st31" cx="885" cy="260.4" rx="15.3" ry="15.3"/>
		<g>
			<path class="st10" d="M890.6,265c-0.9,0-1.6,0.4-2.1,1.1l-8.8-4.4c0.1-0.2,0.1-0.5,0.1-0.8c0-0.3,0-0.6-0.1-0.8l8.8-4.5
				c0.4,0.7,1.2,1.1,2,1.1c1.4,0,2.5-1.1,2.5-2.5c0-1.4-1.1-2.5-2.5-2.5c-1.4,0-2.5,1.1-2.5,2.5c0,0.3,0,0.6,0.1,0.8l-8.8,4.5
				c-0.4-0.7-1.2-1.1-2-1.1c-1.4,0-2.5,1.1-2.5,2.5c0,1.4,1.1,2.5,2.5,2.5c0.9,0,1.6-0.4,2.1-1.1l8.8,4.4c-0.1,0.2-0.1,0.5-0.1,0.8
				c0,1.4,1.1,2.5,2.5,2.5c1.4,0,2.5-1.1,2.5-2.5C893.1,266.1,892,265,890.6,265z M888.8,254.2c0-1,0.8-1.8,1.8-1.8
				c1,0,1.8,0.8,1.8,1.8s-0.8,1.8-1.8,1.8C889.6,256.1,888.8,255.2,888.8,254.2z M879.3,261c0,1-0.8,1.8-1.8,1.8
				c-1,0-1.8-0.8-1.8-1.8s0.8-1.8,1.8-1.8C878.4,259.1,879.3,260,879.3,261z M889,266.7C889,266.7,889,266.7,889,266.7
				C889,266.7,889,266.7,889,266.7c0.3-0.6,0.9-1,1.6-1c1,0,1.8,0.8,1.8,1.8s-0.8,1.8-1.8,1.8c-1,0-1.8-0.8-1.8-1.8
				C888.8,267.3,888.9,267,889,266.7z"/>
		</g>
	</g>
	<g style="clip-path:url(#SVGID_00000093864612114284017030000012136280811759151233_);">
		<circle class="st32" cx="984.2" cy="249.4" r="14.3"/>
		<g>
			<g>
				<path class="st10" d="M984.2,259.1c-0.3,0-0.6-0.2-0.7-0.4l-4.9-9.4c-0.9-1.9-0.7-4.2,0.4-6c1.1-1.8,2.9-2.9,4.9-3l0,0
					c0.2,0,0.5,0,0.7,0c2,0.1,3.8,1.2,4.9,3c1.1,1.8,1.2,4,0.4,6l-4.9,9.5C984.7,258.9,984.5,259.1,984.2,259.1L984.2,259.1z
					 M983.8,240.9c-1.8,0.1-3.4,1.1-4.4,2.6c-1,1.6-1.1,3.6-0.3,5.4l4.9,9.4c0,0.1,0.1,0.1,0.2,0.1s0.1,0,0.2-0.1l4.9-9.4
					c0.8-1.7,0.7-3.7-0.3-5.3c-1-1.6-2.6-2.6-4.4-2.6C984.3,240.9,984.1,240.9,983.8,240.9L983.8,240.9z"/>
			</g>
			<g>
				<path class="st10" d="M984.2,250.1c2,0,3.6-1.6,3.6-3.6s-1.6-3.6-3.6-3.6c-2,0-3.6,1.6-3.6,3.6
					C980.5,248.5,982.2,250.1,984.2,250.1z M984.2,243.6c1.6,0,2.9,1.3,2.9,2.9s-1.3,2.9-2.9,2.9s-2.9-1.3-2.9-2.9
					C981.2,244.9,982.5,243.6,984.2,243.6z"/>
			</g>
		</g>
	</g>
	<g style="clip-path:url(#SVGID_00000093864612114284017030000012136280811759151233_);">
		<ellipse class="st29" cx="761.5" cy="273.2" rx="16.8" ry="16.8"/>
		<path class="st10" d="M751.9,267.1v12.2c0,0.2,0.2,0.4,0.4,0.4h18.4c0.2,0,0.4-0.2,0.4-0.4v-12.2c0-0.1-0.1-0.3-0.2-0.3
			c-0.1-0.1-0.3,0-0.4,0.1l-4.6,4.5l-4.1-4.5c-0.1-0.1-0.2-0.1-0.3-0.1c-0.1,0-0.2,0-0.3,0.1l-4.1,4.5l-4.6-4.5
			c-0.1-0.1-0.3-0.1-0.4-0.1l0,0C752,266.8,751.9,266.9,751.9,267.1z M756.8,272.1c0.1,0.1,0.2,0.1,0.3,0.1c0.1,0,0.2,0,0.3-0.1
			l4.1-4.5l4.1,4.5c0.1,0.1,0.2,0.1,0.3,0.1c0.1,0,0.2,0,0.3-0.1l4.3-4.2v11h-17.7v-11L756.8,272.1z"/>
	</g>
	<g style="clip-path:url(#SVGID_00000093864612114284017030000012136280811759151233_);">
		<circle class="st38" cx="1210.3" cy="231.5" r="28.5"/>
		<path class="st10" d="M1200.1,247.7h20.3c0.3,0,0.5-0.2,0.5-0.5v-7c0-4.8-3.2-8.9-7.7-10.2c3.1-1.3,5.2-4.3,5.2-7.7
			c0-4.6-3.7-8.3-8.3-8.3c-4.6,0-8.3,3.7-8.3,8.3c0,3.4,2.1,6.5,5.4,7.8c-2.1,0.7-4,2-5.3,3.8c-1.4,1.9-2.2,4.1-2.2,6.4v7
			C1199.6,247.4,1199.9,247.7,1200.1,247.7z M1200.6,246.6v-6.5c0-5.3,4.3-9.6,9.6-9.6c5.3,0,9.6,4.3,9.6,9.6v6.5H1200.6z
			 M1210.1,229.5c-4,0-7.3-3.3-7.3-7.3c0-4,3.3-7.3,7.3-7.3c4,0,7.3,3.3,7.3,7.3C1217.4,226.2,1214.1,229.5,1210.1,229.5z"/>
	</g>
	<g style="clip-path:url(#SVGID_00000093864612114284017030000012136280811759151233_);">
		<circle class="st41" cx="1182.8" cy="280.3" r="19.2"/>
		<path class="st10" d="M1193,283.5h-7.3l1.2-5.7h6.2c0.3,0,0.5-0.2,0.5-0.5c0-0.3-0.2-0.5-0.5-0.5h-6l1.3-6.4
			c0.1-0.3-0.1-0.5-0.4-0.6c-0.3-0.1-0.5,0.1-0.6,0.4l-1.3,6.6h-5.5l1.3-6.4c0.1-0.3-0.1-0.5-0.4-0.6c-0.3-0.1-0.5,0.1-0.6,0.4
			l-1.3,6.6h-7.6c-0.3,0-0.5,0.2-0.5,0.5c0,0.3,0.2,0.5,0.5,0.5h7.4l-1.2,5.7h-6.2c-0.3,0-0.5,0.2-0.5,0.5s0.2,0.5,0.5,0.5h6
			l-1.3,6.4c-0.1,0.3,0.1,0.5,0.4,0.6c0,0,0.1,0,0.1,0c0.2,0,0.4-0.2,0.5-0.4l1.4-6.6h5.5l-1.3,6.4c-0.1,0.3,0.1,0.5,0.4,0.6
			c0,0,0.1,0,0.1,0c0.2,0,0.4-0.2,0.5-0.4l1.4-6.6h7.5c0.3,0,0.5-0.2,0.5-0.5C1193.4,283.7,1193.2,283.5,1193,283.5z M1179.1,283.5
			l1.2-5.7h5.5l-1.2,5.7H1179.1z"/>
	</g>
	<g style="clip-path:url(#SVGID_00000093864612114284017030000012136280811759151233_);">
		
			<ellipse transform="matrix(0.2298 -0.9732 0.9732 0.2298 815.6185 1249.2213)" class="st31" cx="1197.1" cy="109.3" rx="17.4" ry="17.4"/>
		<path class="st10" d="M1207.6,101h-19.4c-0.2,0-0.4,0.2-0.4,0.4v13c0,0.2,0.2,0.4,0.4,0.4h5.9l1.8,4.7c0.1,0.2,0.2,0.2,0.4,0.2h0
			c0.2,0,0.3-0.1,0.4-0.3l1.6-4.7h9.3c0.2,0,0.4-0.2,0.4-0.4v-13C1208,101.2,1207.8,101,1207.6,101z M1207.2,114h-9.2
			c-0.2,0-0.3,0.1-0.4,0.3l-1.4,3.9l-1.6-3.9c-0.1-0.2-0.2-0.2-0.4-0.2h-5.8v-12.2h18.6L1207.2,114L1207.2,114z"/>
	</g>
	<g style="clip-path:url(#SVGID_00000093864612114284017030000012136280811759151233_);">
		
			<ellipse transform="matrix(0.2334 -0.9724 0.9724 0.2334 581.8929 1213.1812)" class="st41" cx="1060.4" cy="237.5" rx="16" ry="16"/>
		<g>
			<path class="st42" d="M1066.1,226.9h-11.8c-0.2,0-0.3,0.1-0.3,0.3V244v1.4v2.6c0,0.2,0.1,0.3,0.3,0.3h11.8c0.2,0,0.3-0.1,0.3-0.3
				v-8.8v-6.7v-5.2C1066.4,227,1066.2,226.9,1066.1,226.9z M1065.8,247.7h-11.2v-2.3v-0.7h11.2V247.7z M1065.8,244.1h-11.2
				c0,0,0,0,0,0v-16.5h11.2v4.9v6.7V244.1z"/>
			<rect x="1059" y="245.9" class="st42" width="2.5" height="0.6"/>
		</g>
	</g>
	<g style="clip-path:url(#SVGID_00000093864612114284017030000012136280811759151233_);">
		
			<ellipse transform="matrix(0.2334 -0.9724 0.9724 0.2334 767.9202 1073.1138)" class="st41" cx="1064.5" cy="49.5" rx="16" ry="16"/>
		<g>
			<path class="st42" d="M1070.3,38.9h-11.8c-0.2,0-0.3,0.1-0.3,0.3V56v1.4v2.6c0,0.2,0.1,0.3,0.3,0.3h11.8c0.2,0,0.3-0.1,0.3-0.3
				v-8.8v-6.7v-5.2C1070.6,39,1070.4,38.9,1070.3,38.9z M1070,59.7h-11.2v-2.3v-0.7h11.2V59.7z M1070,56h-11.2c0,0,0,0,0,0V39.5
				h11.2v4.9v6.7V56z"/>
			<rect x="1063.1" y="57.8" class="st42" width="2.5" height="0.6"/>
		</g>
	</g>
	<g style="clip-path:url(#SVGID_00000093864612114284017030000012136280811759151233_);">
		<circle class="st30" cx="956.9" cy="120.8" r="15.7"/>
		<path class="st10" d="M965.1,114.9C965.1,114.9,965.1,114.9,965.1,114.9C965.1,114.9,965.1,114.9,965.1,114.9
			C965.1,114.9,965.1,114.9,965.1,114.9c0-0.1,0-0.1,0-0.1c0,0,0,0,0,0c0,0,0,0,0,0c0,0,0,0,0,0c0,0,0,0,0,0c0,0,0,0,0,0
			c0,0,0,0,0,0c0,0,0,0,0,0c0,0,0,0,0,0c0,0,0,0,0,0c0,0,0,0,0,0c0,0,0,0,0,0h0h0H949h0h0c0,0,0,0,0,0c0,0,0,0,0,0c0,0,0,0,0,0
			c0,0,0,0,0,0c0,0,0,0,0,0c0,0,0,0,0,0c0,0,0,0,0,0c0,0,0,0,0,0c0,0,0,0,0,0c0,0,0,0,0,0c0,0,0,0,0,0c0,0,0,0,0,0c0,0,0,0,0,0
			c0,0,0,0,0,0c0,0,0,0,0,0c0,0,0,0,0,0s0,0,0,0v11.6c0,0.2,0.1,0.3,0.3,0.3h15.8c0.2,0,0.3-0.1,0.3-0.3L965.1,114.9
			C965.1,115,965.1,115,965.1,114.9C965.1,115,965.1,115,965.1,114.9z M949.3,115.7l7.4,6.8c0.1,0.1,0.1,0.1,0.2,0.1
			c0.1,0,0.2,0,0.2-0.1l7.4-6.8v10.5h-15.2L949.3,115.7L949.3,115.7z M949.8,115.3H964l-7.1,6.5L949.8,115.3z"/>
	</g>
	<g style="clip-path:url(#SVGID_00000093864612114284017030000012136280811759151233_);">
		<g>
			<g>
				<path class="st13" d="M958,231.9c4.2,0,8.6,1,12.8,1.4c1.3,0.1,2.6,0.2,3.9,0.4c1.4,0.2,2.8,0.7,4.2,1c1.7,0.4,3.5,0.7,5.2,0.8
					c1.5,0.1,2.8-0.5,4.2-0.9c3.1-1,6.2-2.1,9.3-3.3c6.1-2.4,12-5.3,17.7-8.5c11.5-6.5,22.1-14.4,32.2-22.9c3.8-3.2,7.5-6.6,11.2-10
					c29.1-27.1,62.4-99.3,63.7-102.2c0,0-0.6-3.1-0.6-3.1c-1.3,0.8-29.9,16.4-36.6,20.1c-0.8,0.4-1.7,0.1-2.1-0.7
					c-0.9-1.8-2.8-5.4-3.1-6.6c-0.1-0.3,0.3,0.1,0.4-0.2c0.1-0.2,0.3-0.4,0.4-0.6c2.9-2.7,6.3-4.9,9.7-6.9c2.8-1.6,5.6-3.2,8.4-4.6
					c1.4-0.7,2.4-1.3,3.5-2.4c1.2-1.1,2.4-2.2,3.6-3.3c4.8-4.3,9.5-8.7,14.3-13c8.8-8,17.5-16,25.9-24.4c1.5-1.5,3.3-3.2,6.1-1.8
					c1.5,0.7,2.6,2,3.2,3.6c0,0.7,0.8,1.9,1,2.6c0.4,1,0.8,1.9,1.1,2.9c3.3,8.3,6.5,16.5,9.8,24.8c1.7,4.3,3.4,8.5,5.1,12.8
					c0.8,2,1.6,4,2.4,6c0.8,2,1.4,4,2.5,5.8c0.1,0.2,0.3,0.4,0.3,0.7c0.1,0.2,0.1,0.5,0.1,0.7c0,1.6,0,3.1-0.1,4.7
					c0,0.6-0.1,1.2-0.3,1.7c-0.2,0.5-0.7,1-1.3,1.1c-1.4,0.2-2.8-0.9-3.8-1.7c-1-0.8-2-1.6-3-2.5c-2.2-1.8-4.4-3.7-6.7-5.5
					c-3.6-3-7.2-6-10.9-8.9c0,0-0.1,0-0.1,0c0,2.3-1.3,66.7-17.7,106c-3.3,7.8-6.9,15.4-11,22.7c-13.5,24.3-31.7,46.2-53.6,63.4
					c-8.4,6.6-17.3,12.5-26.7,17.4c-3.8,2-7.8,3.6-11.7,5.3c-1.7,0.8-4.1,2.2-5.1-0.2c-1.2-2.7-2.2-6.1-2.8-9
					c-0.1-0.3,0.2-0.4,0.3-0.6c0.1-0.2,0.2-0.5,0.4-0.7c0.8-0.9,1.7-1.8,2.4-2.9c0.9-1.2,1.5-2.5,1.9-3.9c0.4-1.6,0.3-3.5,0.4-5.1
					c0.2-3.7,0.2-7.3,0.2-11c0-4.3-0.2-8.6-0.4-12.9c-0.2-3.5,0-4.5-3.4-3.9c-12.1,2-24.2,2.1-36.2-0.2c-6.7-1.3-13.5-4-19.7-6.7
					c-2.1-0.9-4.3-2-6.1-3.4C961.8,242.5,958.3,234.1,958,231.9z"/>
			</g>
			<g>
				<path class="st18" d="M1174.6,101l-25.9-21.3c0,0,0,0,0,0c0,2.3-1.3,66.7-17.7,106c-3.2,7.8-6.9,15.4-11,22.7
					c-13.5,24.3-31.7,46.2-53.6,63.4c-8.4,6.6-17.3,12.5-26.7,17.4c-3.8,2-7.8,3.5-11.7,5.3c-1.6,0.7-3.8,2.3-4.7,0.3
					c-0.7-1.5,0.8-6.2,1-8c0.5-4.5,0.9-8.9,1.1-13.4c0.2-4.1,0.3-8.2,0.3-12.3c0-4.3-0.2-8.6-0.4-12.9c0-0.5,0-0.9-0.1-1.3
					c-0.1-2.4-0.4-3.1-3.3-2.6c0,0,0,0-0.1,0c-33.4,5.6-64.7-8.5-63.8-13.2c0-0.2,0.1-0.4,0.2-0.5c0.8-1.3,7.2-1,8.9-1.2
					c3.3-0.5,6.5-1.1,9.7-1.8c30.6-7.1,56.4-26,79.1-47.1c29.1-27.1,62.4-99.3,63.7-102.2c0,0,0,0,0,0c-1.4,0.9-20.8,13-36.6,20.2
					c-2.1,0.9-3.9-1.7-2.3-3.3c20.9-20.9,41.8-41.7,62.7-62.6c1.3-1.3,2.8-2.8,5.1-2.2c0.3,0.1,0.6,0.2,1,0.4c1.5,0.7,2.6,2,3.2,3.6
					c7.1,18.1,19.7,49.9,25.3,64.2C1178.6,100.6,1176.3,102.3,1174.6,101z"/>
			</g>
			<path class="st18" d="M1174.6,101l-25.9-21.3c0,0,0,0,0,0c0,2.3-1.3,66.7-17.7,106c-3.2,7.8-6.9,15.4-11,22.7
				c-13.5,24.3-31.7,46.2-53.6,63.4c-8.4,6.6-17.3,12.5-26.7,17.4c-3.8,2-7.8,3.5-11.7,5.3c-1.6,0.7-3.8,2.3-4.7,0.3
				c-0.7-1.5,0.8-6.2,1-8c0.5-4.5,0.9-8.9,1.1-13.4c0.2-4.1,0.3-8.2,0.3-12.3c0-4.3-0.2-8.6-0.4-12.9c0-0.5,0-0.9-0.1-1.3
				c40.4-20.5,68.9-61.9,88.3-103.4c22.7-48.6,32.9-97.3,34.9-113c0.3,0.1,0.6,0.2,1,0.4c1.5,0.7,2.6,2,3.2,3.6
				c7.1,18.1,19.7,49.9,25.3,64.2C1178.6,100.6,1176.3,102.3,1174.6,101z"/>
		</g>
		<g class="st43">
			<path class="st44" d="M1106.8,159.2c-2.2,5.8,1.3,12.1,1.3,18.2c0,6-3.3,12.9-6.7,17.7c-12.7,17.4-32.2,31-52.5,38
				c-2.3,0.8-4.6,1.5-6.7,2.7c-5.8,3.4-8.4,10.2-10.7,16.5c-1.6,4.5-3.2,9-4.8,13.5c-0.2,0.7-0.5,1.1-1.2,1c-0.2-1.8,0-3.8,0-5.7
				c0-4.3-0.2-8.6-0.4-12.9c0-0.5,0-0.9-0.1-1.3c-0.1-2.4-0.4-3.1-3.3-2.6c0,0,0,0-0.1,0c8.4-19,20.3-36.4,34.9-51.2l1.9-1.6
				c6-11,11.9-22,17.9-33c3-5.6,6-11.2,9.9-16.2c4-5.3,8.5-9.8,15.4-10.2c3.4-0.2,7.2,0.5,9.4,3.2c0.7,0.9,1.2,2,1.6,3
				c0.6,1.6,0.9,3.4,0.9,5.2c0,3.1-0.7,6.1-2.3,8.8C1109.8,154.6,1107.8,156.7,1106.8,159.2z"/>
		</g>
		<g>
			<g>
				<path class="st45" d="M1061,139.3c0.3-0.3,0.6-0.5,0.8-0.8c0.7-0.7,1.6-1.2,2.2-2c0.8-0.9,1.8-1.6,2.2-2.8
					c0.4-1.1,0.4-2.4,0-3.5c-0.2-0.9-0.6-1.7-1.3-2.4c-0.7-0.6-1.6-1-2.5-0.8c-0.4,0.1-0.8,0.3-1.1,0.5c-1.1,0.8-1.7,2-1.9,3.3
					c-0.3,1.2,0.1,2.5-0.2,3.7c-0.2,0.9-1.1,1.9-1.5,2.7"/>
			</g>
			<g>
				<path class="st46" d="M1062.9,201.3l1.4,1.5c-5.5,5.2-16.7,5-23.6,2.9c-0.3-0.1-0.9-0.3-1.7-0.6c-5.7-2.2-22.6-9-22.6-9.9
					c0.1,12.5-3.5,24.7-7,36.7c-0.8,2.7-1.9,10.2-5.7,8.2c-0.3-0.2-0.7-0.4-1-0.7c-1.6-1.4-1.8-3.7-1.9-5.8c-0.8-15.3-1-30.7-0.4-46
					c0.1-2.3,0.2-4.7,1.6-6.6c2.8-3.6,8.3-2.6,12.7-1.4c11.5,3.1,23.3,3.9,34.9,6c3.6,0.7,7.3,0.6,10.9,1.6c3.5,1,7.1,3.3,8,6.8
					C1069.4,197.5,1066.5,201.9,1062.9,201.3z"/>
			</g>
			<g class="st47">
				<path class="st48" d="M1044.1,201.5c-1.4,1.1-2.8,2.1-4.2,3c-0.6,0.4-1.3,0.4-1.9,0.2c-4.7-1.8-14-5.6-18.7-7.8
					c-1.4-0.6-2.9,0.3-3,1.8c-0.5,11.3-3.7,22.3-6.9,33.1c-0.2,0.6-0.3,1.3-0.6,2.2c-0.7,2.6-4.6,1.8-4.1-0.9c0.1-0.5,0.2-1,0.3-1.5
					c2.8-14,5-28.1,6.6-42.2c0.1-1.2,1.2-2,2.4-1.8c2.2,0.4,4.4,1.4,6.5,2.3c7.4,3.2,15.1,5.6,22.9,8
					C1045.1,198.3,1045.5,200.4,1044.1,201.5z"/>
			</g>
			<g>
				<g>
					<path class="st46" d="M1077.4,207.3c-2.7,3.2-6.1,5.8-9.7,7.8c-7.2,4.2-15,7.7-22.9,10.3c-6.9,2.2-9.5,7.1-12,13.4
						c-3.6,9-7.8,17.8-11.6,26.7c-2.4,5.5-6.1,12-12.2,11.9c2.1-11.8,4.7-23.5,7.4-35.2c2.3-9.9,3.2-23.5,10-31.5
						c4.4-5.2,10.6-8.7,16.6-11.9c6-3.2,11.7-6.9,17.5-10.2c4.2-2.4,8.7-4.9,13.5-5c8.6-0.1,9.9,8.3,8,15
						C1081.2,201.9,1079.5,204.8,1077.4,207.3z"/>
				</g>
			</g>
			<g>
				<path class="st49" d="M1094.2,164.7c-0.1,0.7-0.3,1.4-0.5,2.1c-2.4,9.6-6.9,21-8.4,24.4c-0.7,1.5-1.4,3-2.4,4.4
					c-0.2,0.3-0.4,0.5-0.7,0.7c-0.4,0.2-0.8,0-1.3-0.1c-2.5-0.3-4.9-0.5-7.1-0.8c-2.5-0.3-4.7-0.7-6.7-1.1c-0.8-0.2-1.6-0.3-2.4-0.5
					c-11.1-2.3-15.8-5.2-17.7-6.9c-0.1-0.1-0.1-0.1-0.2-0.2c-0.9-0.9-1.1-1.4-1.1-1.4s2.3-3.9,3.4-5.7c3-4.9,5.5-10,8.1-15.1
					c1.6-3.2,3.1-6.5,4.8-9.7c1.5-3,4.7-5.8,7.1-8.2c0.7-0.7,1.5-1.4,2.4-1.9c1.4-0.7,3-0.9,4.6-1c1.7-0.1,3.4-0.3,5,0.1
					c0.6,0.1,1.1,0.3,1.7,0.5c2,0.7,4.1,1.4,5.9,2.5c2.6,1.6,4.7,4.1,5.9,7C1095.6,156,1095.2,160.1,1094.2,164.7z"/>
			</g>
			<g class="st50">
				<path class="st49" d="M1094.2,164.7c-0.1,0.7-0.3,1.4-0.5,2.1c-2.4,9.6-6.9,21-8.4,24.4c-0.7,1.5-1.4,3-2.4,4.4
					c-0.2,0.3-0.4,0.5-0.7,0.7c-0.4,0.2-0.8,0-1.3-0.1c-2.5-0.3-4.9-0.5-7.1-0.8C1088.9,180.8,1085.7,173.9,1094.2,164.7z"/>
			</g>
			<g>
				<path class="st49" d="M1074,154.2c0.2-0.2,0.5-0.4,0.6-0.7c0.1-0.3,0-0.7-0.1-1.1c-0.8-2.1,3.8-9,1.6-8.9
					c-8.1,0.6-15.5,5.5-21.4,10.6c2.7-3.1,4.4-6.8,5.7-10.6c0.6-1.8,1-3.6,2-5.1c0.9-1.6-0.4-2.2-1.6-3c-0.2-0.2-0.5-0.3-0.8-0.4
					c-1.5-0.4-4,2.1-5.1,3c-1.6,1.3-3.1,2.7-4.4,4.3c-2.6,3.1-4.6,6.7-5.9,10.5c-1.1,3.3-2.8,8.8,1.3,10.7c1.2,0.6,2.6,0.7,4,0.7
					c1.7,0,3.3-0.2,4.9-0.5c1.2-0.3,2.4-0.6,3.6-1c1-0.3,1.9-0.6,2.9-0.9c1.3-0.4,2.5-0.8,3.7-1.3c1.7-0.8,3.2-2,4.7-3.1
					C1071.1,156.3,1072.6,155.3,1074,154.2z"/>
			</g>
			<g>
				<path class="st49" d="M1091.3,148.8c0,0-0.6,3.4-0.9,4.3c-0.6,1.7-1.6,3.4-2.3,5c-0.8,1.7-1.3,3.9-1.2,5.7
					c0.1,1.2,0.8,2.6,1.1,3.8c0.4,1.4,0.8,2.7,1.2,4.1c0.4,1.4,1.1,6.6-0.9,11.9c-2.2,5.7-4.9,11.2-8,16.5c-0.5,0.8-1,1.7-1.2,2.6
					c-0.6,3,1.9,2.8,3.8,1.6c3.3-2.2,6.1-4.9,8.8-7.8c3.5-3.7,6.7-8.1,8.7-12.8c0.9-2.1,1.8-4.3,2-6.6
					C1104.5,157.4,1093.1,150.4,1091.3,148.8z"/>
			</g>
			<g>
				<path class="st45" d="M1091.3,137.9c-1.2,3.1-2.3,6.3-3.2,9.5c-1.4,4.9-8.9,2.8-7.5-2.1c0.2-0.7,0.4-1.4,0.6-2.1
					c0-0.1,0-0.2,0.1-0.3c0.4-1.3,0.8-2.6,1.3-3.9c0-0.1,0.1-0.2,0.1-0.3c0.4-1,0.7-2,1.1-3c0.8-2,2.6-3.3,4.8-2.7
					C1090.5,133.6,1092.1,135.9,1091.3,137.9z"/>
			</g>
			<g>
				<path class="st45" d="M1088.9,138.9c-0.9,1.8-2.7,3.2-4.7,3.8c-1,0.3-2,0.5-3,0.5c0-0.1,0-0.2,0.1-0.3c0.4-1.3,0.8-2.6,1.3-3.9
					c1.3,0.3,2.7,0.2,4.1,0C1087.4,138.9,1088.2,138.8,1088.9,138.9z"/>
			</g>
			<g>
				<path class="st51" d="M1007.7,242.8c0.1-0.1,0.2-0.2,0.3-0.3c0.6-0.7,0.6-1.8,0.6-2.8c0-1.5,0-3,0.2-4.5
					c0.1-0.8,0.8-2.8-0.4-2.8c-2.3,0-4.6,0-6.9,0c-0.1,0-0.2,0-0.2,0c-0.1,0.1-0.2,0.2-0.2,0.4c-0.1,0.6-0.2,1.6-0.5,2.1
					c-0.4,0.6-1.6,0.9-2.3,1.1c-1,0.2-1.9,0.2-2.9,0.2c-2.4,0-4.9,0.2-7.3,0.4c-1,0.1-2.1,0.2-3,0.7c-1.3,0.9-1.4,2.3-0.2,3.3
					c1.8,1.4,4.5,1.6,6.7,1.8c2.4,0.2,4.9,0.4,7.4,0.5c1.6,0.1,3.3,0.2,4.9,0.3C1004.9,243.4,1006.6,243.6,1007.7,242.8z"/>
			</g>
			<g>
				<path class="st51" d="M1017.5,278c0.1-0.1,0.2-0.2,0.3-0.3c0.9-1.1,0.8-3.1,1-4.4c0.2-1.8,0.5-3.5,0.9-5.2
					c-2.9,0.4-5.8-0.8-8.7-0.4c-0.1,0.9-0.4,1.9-1,2.6c-0.5,0.7-1.2,0.8-2,1c-1,0.2-1.9,0.2-2.9,0.2c-2.4,0-4.9,0.2-7.3,0.4
					c-1,0.1-2.1,0.2-3,0.7c-1.3,0.9-1.4,2.3-0.2,3.3c1.8,1.4,4.5,1.6,6.7,1.8c2.4,0.2,4.9,0.4,7.4,0.5c1.6,0.1,3.3,0.2,4.9,0.3
					C1014.7,278.6,1016.5,278.8,1017.5,278z"/>
			</g>
			<g>
				<path class="st45" d="M1082.4,202c-0.4-0.4-0.9-0.8-1.5-0.8c-1.5-0.1-3.1,1.4-4.1,2.3c-1.2,1.1-2.1,2.5-2.6,4.1
					c-0.4,1.4-1,4.2,0.4,5.2c1.6,1.3,4.5-0.5,5.7-1.7c2.1-2,3.7-5.3,2.6-8.2C1082.8,202.6,1082.6,202.3,1082.4,202z"/>
			</g>
			<g>
				<path class="st52" d="M1083.4,121.9c0.6,0.8,0.4,1.8,0.3,2.6c-0.1,0.9-0.1,1.8-0.3,2.7c-0.4,1.8-1.4,3.5-2.8,4.8
					c-0.7,0.7-1.7,1.2-2.6,0.8c-0.8-0.4-1-1.4-1-2.3c-0.1-2.6,0.6-5.2,2-7.5c0.6-1,1.5-2,2.6-2
					C1082.3,121.1,1083,121.4,1083.4,121.9z"/>
			</g>
			<g>
				<path class="st45" d="M1085.7,122.7c-3.2-0.2-5.9,2.4-7.4,5.3c-1,2-1.5,4.2-1.2,6.4c0.3,2.2,1.4,4.4,3.2,5.6
					c2,1.4,4.5,1.5,6.8,1c1.4-0.3,2.7-0.9,3.8-1.7c0.4-0.3,0.9-0.6,1.3-0.9c0.3-0.2,0.6-0.6,0.9-0.7c0.2-0.1,0.4-0.1,0.6-0.1
					c0.6-0.1,1.1-0.3,1.6-0.6c0.4-0.2,0.7-0.5,0.8-0.9c0.1-0.3,0.1-0.5,0.2-0.8c0.1-0.9,0.1-1.8,0.3-2.8c0.3-1.1,0.4-2.5-0.3-3.4
					c-0.6-0.7-1.5-1-2.1-1.5c-0.8-0.6-0.9-1.6-1.5-2.4c-1.3-1.8-3.8-2.8-5.7-1.9"/>
			</g>
			<g>
				<path class="st52" d="M1090.6,118.6c-0.1-1.7-1.1-3.3-2.5-4.2c-1.6-1.1-3.9-1.1-5.5-0.1c-3.5,2.3-2.2,7.4,0.8,9.5
					c2.8,1.9,8.5,0.5,9.9,4.4c0.8,2-1,4.2-0.8,6.4c0.6-0.1,1-0.6,1.4-1.1c0.4-0.5,1-1,1.5-0.8c0.5,0.2,0.6,0.7,0.7,1.2
					c0.1,0.6,0.1,1.3-0.2,1.9c-0.3,0.6-0.8,1.1-1.4,1.2c-0.3,0-0.7,0-1,0c-1,0-1.8,0.7-2.3,1.6c-0.5,0.9-1.3,2.6,0.2,1.8
					c0.8-0.4,1.6-1,2.3-1.6c2.1-1.7,3.8-3.8,4.7-6.3c0.7-1.8,0.8-3.9,0.2-5.8c-0.2-0.6-0.4-1.1-0.8-1.6c-0.4-0.4-1.1-0.7-1.6-0.5
					c0-1-0.1-2-0.3-3c-0.3-1-0.8-1.9-1.6-2.4c-1.1-0.7-2.7-0.6-3.7,0.2C1090.6,119.2,1090.6,118.9,1090.6,118.6z"/>
			</g>
		</g>
		<g>
			<g>
				<path class="st53" d="M1064,125.4c-0.2,0.2-0.3,0.4-0.3,0.6c-1.1,2.7-2,5.5-2.7,8.4c-0.2,0.7-0.3,1.6,0.2,2.2
					c0.4,0.5,1.2,0.5,1.8,0.2c0.6-0.3,1-0.8,1.4-1.3c2.2-2.8,3.5-6.2,4.4-9.7"/>
			</g>
			<g>
				<path class="st54" d="M1076.7,125.2c-0.5,2-1.7,3.8-3.8,4.2c-0.8,0.1-1.7,0-2.5-0.2c-1.7-0.5-3.5-1.5-5-1.9
					c-1.2-0.4-2.4-0.6-3.6-0.9c-1.2-0.2-2.5-0.4-3.7-0.4c-4.9-0.3-9.9,0.2-14.8,0.3l11.3-26.7c2.4,4.3,5.1,8.5,8.4,12.2
					c0.9,1,1.9,1.9,2.9,2.8c0.6,0.6,1.3,1.1,2,1.6c1.7,1.3,3.3,2.7,5.3,3.6c0.3,0.2,0.7,0.3,1,0.5c0.6,0.3,1.2,0.7,1.7,1.2
					C1076.9,122.4,1077.1,123.9,1076.7,125.2z"/>
			</g>
			<path class="st55" d="M1056,109.4c-0.2,1.5-0.6,3.1-1.1,4.7c-0.9,2.6-2.1,5-3.5,6.9c-2.9,3.9-6.6,5.9-9.7,4.9
				c-4.6-1.6-6.2-9.3-3.5-17.4c2.7-8.1,8.6-13.3,13.3-11.8C1055.1,98,1056.9,103.2,1056,109.4z"/>
			<path class="st51" d="M1054.6,109.7c0,0.2-0.1,0.4-0.1,0.7c0,0.1,0,0.2,0,0.3c-0.2,1-0.4,2-0.8,3c-0.5,1.3-1,2.6-1.6,3.7
				c-0.1,0.2-0.2,0.4-0.4,0.6c-0.3,0.5-0.7,1-1,1.5c-2.5,3.3-5.7,5.1-8.3,4.2c-4-1.3-5.3-8-3-14.9c2.3-6.9,7.4-11.4,11.3-10.1
				C1053.9,99.9,1055.4,104.4,1054.6,109.7z"/>
			<g>
				
					<linearGradient id="SVGID_00000006665433682645957520000010206189694477334943_" gradientUnits="userSpaceOnUse" x1="1049.6101" y1="111.0072" x2="1055.1141" y2="113.2323" gradientTransform="matrix(1 0 0 1 0 2)">
					<stop  offset="0" style="stop-color:#F38F1C;stop-opacity:0.97"/>
					<stop  offset="0.2222" style="stop-color:#AE6D38;stop-opacity:0.97"/>
					<stop  offset="0.5341" style="stop-color:#5F463F;stop-opacity:0.97"/>
					<stop  offset="0.7556" style="stop-color:#35313A;stop-opacity:0.97"/>
					<stop  offset="0.864" style="stop-color:#262A36;stop-opacity:0.97"/>
				</linearGradient>
				<path style="fill:url(#SVGID_00000006665433682645957520000010206189694477334943_);" d="M1054.3,111.5c0,0.1,0,0.2,0,0.2
					c-0.1,0.8-0.3,1.6-0.6,2.4c-0.4,1.1-0.8,2.1-1.3,3c-0.1,0.2-0.2,0.3-0.3,0.5c-0.6,0-1.9-0.1-2.5-0.1c-0.1,0-0.3,0-0.4,0
					c-0.5,0-2.1-0.2-2.3-0.2c0,0,0.2,0,0.2-0.3c0-0.2,0.1-0.4,0.2-0.6c0.3-0.9,0.6-1.8,0.9-2.7c0.6-1.8,1.3-3.6,1.8-5.4
					c0.1-0.2,0.3-0.4,0.4-0.6C1050.6,107.9,1053.5,110.7,1054.3,111.5z"/>
			</g>
			<path class="st18" d="M1051.1,111.6c-0.1,0.5-0.2,1.1-0.4,1.6c-0.3,0.9-0.7,1.7-1.2,2.4c-1,1.3-2.3,2-3.3,1.7
				c-1.6-0.5-2.1-3.2-1.2-5.9c0.9-2.7,2.9-4.6,4.5-4C1050.8,107.7,1051.4,109.5,1051.1,111.6z"/>
			<g>
				<path class="st51" d="M1076.7,125.2c-0.5,2-1.7,3.8-3.8,4.2c-0.8,0.1-1.7,0-2.5-0.2c2-1.7,3.7-5,3.8-8.9
					c0.6,0.3,1.2,0.7,1.7,1.2C1076.9,122.4,1077.1,123.9,1076.7,125.2z"/>
			</g>
		</g>
		<g>
			<path class="st18" d="M1081.7,166.1c-2.1,10.8-9.5,19.6-17,27.6c-11.1-2.3-15.8-5.2-17.7-6.9l0,0c5.3-6.6,10.6-13.3,15.1-20.5
				c2.2-3.4,4.3-7,7.6-9.2c3.4-2.2,8.5-2.3,10.9,1C1082.4,160.3,1082.3,163.4,1081.7,166.1z"/>
		</g>
		<g>
			<path class="st45" d="M1062.7,133.8c1.2-0.4,2-1.5,2.4-2.7c0.5-1.3,0.4-2.6-0.8-3.4c-0.4-0.3-0.9-0.5-1.4-0.5
				c-0.9,0-1.5,0.7-2.1,1.4c-0.4,0.6-0.8,1.2-1.1,1.9c-0.2,0.5-0.5,1.4-0.3,2C1060,133.7,1061.6,134.2,1062.7,133.8z"/>
		</g>
		<g>
			<g>
				<path class="st57" d="M1033.1,75.7c0,0.1,0.1,0.2,0.1,0.3"/>
				<path class="st58" d="M1034.5,79.4c2.5,6.3,5.3,12.4,8.5,18.4"/>
				<path class="st57" d="M1043.8,99.5c0.1,0.1,0.1,0.2,0.2,0.3"/>
			</g>
		</g>
		<g>
			<g>
				<path class="st57" d="M997.1,84c0.1,0.1,0.2,0.2,0.3,0.2"/>
				<path class="st59" d="M1000.1,86.6c10.4,8.9,22,16.5,34.3,22.3"/>
				<path class="st57" d="M1036,109.7c0.1,0,0.2,0.1,0.3,0.1"/>
			</g>
		</g>
		<g>
			<g>
				<path class="st57" d="M981.2,99.7c0.1,0,0.2,0.1,0.3,0.1"/>
				<path class="st60" d="M984.6,101.2c14,5.8,35.9,10.5,50.3,12.6"/>
				<path class="st57" d="M1036.6,114.1c0.1,0,0.2,0,0.3,0"/>
			</g>
		</g>
		<g>
			<g>
				<path class="st57" d="M1004.4,119.4c0.1,0,0.2,0,0.3,0"/>
				<path class="st61" d="M1008.3,119.6c8,0.4,16.1,0.6,24.1-0.4"/>
				<path class="st57" d="M1034.1,119c0.1,0,0.2,0,0.3-0.1"/>
			</g>
		</g>
	</g>
	<path style="clip-path:url(#SVGID_00000093864612114284017030000012136280811759151233_);fill:#40C7A7;" d="M81.6,307.4
		c3.3-13.7,20.3-25.4,31.6-26.4c11.8-1,21.6,6,17.7,13.6c-4.7,9-17.3,2.4-31.1,7.1c-3,0.9-5.8,2.5-8.1,4.7c-2.3,2.1-4.2,4.8-5.3,7.7
		L81.6,307.4z"/>
	
		<path style="clip-path:url(#SVGID_00000093864612114284017030000012136280811759151233_);fill:none;stroke:#3B55CE;stroke-width:1.05;stroke-linecap:round;stroke-miterlimit:10;" d="
		M83.6,310.1c13.1-23.6,38.9-20.5,38.9-20.5"/>
	<path style="clip-path:url(#SVGID_00000093864612114284017030000012136280811759151233_);fill:#22A482;" d="M84.1,310.9
		c6.9-23.3,33.5-36.2,41.5-44.7s6.3-17.7-3.1-19.6c-10.1-2.1-26,9.7-35.4,25.5c-5.7,9.5-8.6,20.3-8.3,31.3L84.1,310.9z"/>
	
		<path style="clip-path:url(#SVGID_00000093864612114284017030000012136280811759151233_);fill:none;stroke:#3B55CE;stroke-width:1.05;stroke-linecap:round;stroke-miterlimit:10;" d="
		M80.8,306.3c3.3-10.7,8.6-20.6,15.7-29.2c7.7-9.3,16.9-17.1,27.3-23.2"/>
	<path style="clip-path:url(#SVGID_00000093864612114284017030000012136280811759151233_);fill:#91DBAC;" d="M78.9,303.8
		c0,0,0.3-20.9-16.2-40.4C46.2,244,27.5,237,11.2,242.9c-12.1,4.4-9,18.5,0.9,24.5c11.7,7.1,55.6,10,57.2,36.4L78.9,303.8
		L78.9,303.8z"/>
	
		<path style="clip-path:url(#SVGID_00000093864612114284017030000012136280811759151233_);fill:none;stroke:#3B55CE;stroke-width:1.05;stroke-linecap:round;stroke-miterlimit:10;" d="
		M12.9,252.4c22.4-1.3,56.6,19.5,61.3,51.5"/>
	<path style="clip-path:url(#SVGID_00000093864612114284017030000012136280811759151233_);fill:#3DC19A;" d="M84,303.8
		c0,0,10.8-11.6,8.7-34c-2.1-22.4-21.6-28-25.2-17.1c-2.8,8.5,16.3,28.4,9.5,51.2L84,303.8L84,303.8z"/>
	
		<path style="clip-path:url(#SVGID_00000093864612114284017030000012136280811759151233_);fill:none;stroke:#3B55CE;stroke-width:1.05;stroke-linecap:round;stroke-miterlimit:10;" d="
		M77.1,254.2c4.2,5.5,12.3,27.9,4,49.6"/>
	
		<path style="clip-path:url(#SVGID_00000093864612114284017030000012136280811759151233_);fill:none;stroke:#385B65;stroke-width:4;stroke-linecap:round;stroke-linejoin:round;" d="
		M23,298h1199"/>
</g>
</svg>
