<svg xmlns="http://www.w3.org/2000/svg" xmlns:xlink="http://www.w3.org/1999/xlink" viewBox="0 0 1245 304.94"><defs><style>.cls-1,.cls-51,.cls-52,.cls-53,.cls-54,.cls-55{fill:none;}.cls-2{clip-path:url(#clip-path);}.cls-3{fill:url(#radial-gradient);}.cls-4{fill:#eae6f4;}.cls-5{fill:#bcd0ed;}.cls-6{fill:#0d0d9e;}.cls-7{fill:#f2f2f2;}.cls-8{fill:#4028ea;}.cls-9{fill:#e9eef9;}.cls-10{fill:#090993;}.cls-11{fill:#21baee;}.cls-12{fill:#fff;}.cls-13{fill:#fab544;}.cls-14{fill:#070784;}.cls-15{fill:#ea5532;}.cls-16{fill:#c1292e;}.cls-17{fill:#f9ea32;}.cls-18{fill:#77bc6e;}.cls-19{fill:#1f06b5;}.cls-20{fill:#52539f;}.cls-21{fill:#e2e7f6;}.cls-22{fill:#33338b;}.cls-23{fill:#e9a08c;}.cls-24{fill:#231f20;}.cls-25{fill:#203256;}.cls-26{fill:#f9c6b5;}.cls-27{fill:#bae1ed;}.cls-28{fill:#bab2d9;}.cls-29{fill:#faf2b4;}.cls-30{fill:#a6b0c6;}.cls-31{fill:#434596;}.cls-32{fill:#ddb39c;}.cls-33{fill:#9fe2ff;}.cls-34{fill:#364093;}.cls-35{fill:#b1949a;}.cls-36{fill:#f8f7f6;}.cls-37{opacity:0.28;}.cls-38{fill:#4a4a4a;}.cls-39{fill:#f5bf90;}.cls-40{fill:#434a6e;}.cls-41{opacity:0.36;}.cls-42{fill:#132339;}.cls-43{fill:#0091c7;}.cls-44{opacity:0.28;}.cls-45{fill:#262a36;}.cls-46{fill:#563624;}.cls-47{fill:#e94c59;}.cls-48{fill:#ea4d58;}.cls-49{fill:#515a83;}.cls-50{fill:url(#linear-gradient);}.cls-51,.cls-52,.cls-53,.cls-54,.cls-55{stroke:#434a6e;stroke-linecap:round;stroke-linejoin:round;}.cls-52{stroke-dasharray:1.07 5.37;}.cls-53{stroke-dasharray:1.04 5.2;}.cls-54{stroke-dasharray:1 5.01;}.cls-55{stroke-dasharray:1.05 5.23;}</style><clipPath id="clip-path"><rect class="cls-1" width="1245" height="300"/></clipPath><radialGradient id="radial-gradient" cx="992.38" cy="183.24" r="700.62" gradientTransform="matrix(-0.76, 0.55, -0.47, -0.5, 1826.39, -698.11)" gradientUnits="userSpaceOnUse"><stop offset="0" stop-color="#73d7ff"/><stop offset="1" stop-color="#002bc6"/></radialGradient><linearGradient id="linear-gradient" x1="1049.65" y1="-5886.59" x2="1055.16" y2="-5888.81" gradientTransform="matrix(1, 0, 0, -1, 0, -5773.68)" gradientUnits="userSpaceOnUse"><stop offset="0" stop-color="#f38f1c" stop-opacity="0.97"/><stop offset="0.22" stop-color="#ae6d38" stop-opacity="0.97"/><stop offset="0.53" stop-color="#5f463f" stop-opacity="0.97"/><stop offset="0.76" stop-color="#35313a" stop-opacity="0.97"/><stop offset="0.86" stop-color="#262a36" stop-opacity="0.97"/></linearGradient></defs><g id="Layer_2" data-name="Layer 2"><g id="Слой_1" data-name="Слой 1"><g class="cls-2"><rect class="cls-3" width="1245" height="300"/><path class="cls-4" d="M235.2,256.4H179s-11-12.3-1.9-21.3c6.3-6.3,12.9-3.9,16.8-8.4s0-17.4,16.1-16.1,7.7,22.6,13.6,24.5S246.1,241.6,235.2,256.4Z"/><path class="cls-5" d="M271.5,21.6h12.3a15,15,0,0,1,14.8,13.6h1a8.1,8.1,0,0,1,0,16.2h-28a14.83,14.83,0,0,1-14.8-14.8h0A14.67,14.67,0,0,1,271.5,21.6Z"/><path class="cls-6" d="M427,249.1a4.91,4.91,0,0,1-4.9,4.9h-154a4.91,4.91,0,0,1-4.9-4.9v-96a4.91,4.91,0,0,1,4.9-4.9H422.2a4.91,4.91,0,0,1,4.9,4.9l-.1,96Z"/><rect class="cls-7" x="271" y="156.2" width="148.2" height="89.7"/><path class="cls-8" d="M423.9,253.9,442,270.4H248.7l21.4-16.1C270.1,254.2,378,253.9,423.9,253.9Z"/><path class="cls-9" d="M276.5,256.2,261.1,267H427.6l-13.5-11.2Z"/><rect class="cls-10" x="248.7" y="270.4" width="193.3" height="5.1"/><rect class="cls-11" x="271" y="156.2" width="148.2" height="8.6"/><rect class="cls-5" x="347.8" y="168.5" width="62.9" height="31.8"/><rect class="cls-12" x="387.8" y="174.1" width="18.2" height="18.2"/><rect class="cls-11" x="333.4" y="217" width="55.5" height="20.1"/><g id="User"><rect class="cls-12" x="343.7" y="221.5" width="41.5" height="3.2"/></g><g id="User-2" data-name="User"><rect class="cls-12" x="353.1" y="227.7" width="32.1" height="3.2"/></g><rect class="cls-13" x="388.7" y="217" width="19.8" height="20.1"/><path class="cls-12" d="M404.4,223.9a.91.91,0,0,0-1.2,0l-5,4.4-5-4.4a.85.85,0,0,0-1.2,1.2l5.6,4.9c.2.2.4.3.6.2a1.42,1.42,0,0,0,.6-.2l5.6-4.9A.91.91,0,0,0,404.4,223.9Z"/><g id="Schloss"><rect class="cls-11" x="334.7" y="202.1" width="43" height="9.5"/></g><g id="Schloss-2" data-name="Schloss"><rect class="cls-14" x="334.7" y="190.3" width="43" height="9.5"/></g><rect class="cls-12" x="325.2" y="190.4" width="9.5" height="9.5"/><path class="cls-15" d="M327.7,196.5a.3.3,0,0,0,0,.4l.8.8a.3.3,0,0,0,.4,0l1.1-1.1,1.1,1.1a.3.3,0,0,0,.4,0l.8-.8a.3.3,0,0,0,0-.4l-1.1-1.1,1.1-1.1a.3.3,0,0,0,0-.4l-.8-.8a.3.3,0,0,0-.4,0l-1.1,1.1-1.1-1.1a.3.3,0,0,0-.4,0l-.8.8a.3.3,0,0,0,0,.4l1.1,1.1Z"/><rect class="cls-12" x="325.2" y="202.1" width="9.5" height="9.5"/><path class="cls-11" d="M327,205.4l.7-.7a.19.19,0,0,1,.3,0l2.9,2.9,1.2-1.2a.19.19,0,0,1,.3,0l.7.7a.19.19,0,0,1,0,.3l-2,2.1-.1.1a.1.1,0,0,1-.1-.1l-3.7-3.8-.1-.1c-.2-.1-.2-.2-.1-.2Z"/><path class="cls-16" d="M411.1,160.2a2.3,2.3,0,1,0,2.3-2.3A2.4,2.4,0,0,0,411.1,160.2Z"/><path class="cls-17" d="M403.9,160.2a2.3,2.3,0,1,0,2.3-2.3A2.33,2.33,0,0,0,403.9,160.2Z"/><path class="cls-18" d="M396.6,160.2a2.3,2.3,0,1,0,2.3-2.3A2.33,2.33,0,0,0,396.6,160.2Z"/><rect class="cls-12" x="277.5" y="195.4" width="45.5" height="43.6"/><path class="cls-19" d="M317.5,216.4a19.1,19.1,0,1,1-19.1-19.1A19.1,19.1,0,0,1,317.5,216.4Zm-2.6,0a16.4,16.4,0,1,0-16.4,16.4A16.41,16.41,0,0,0,314.9,216.4Z"/><path class="cls-19" d="M293.8,207.8v17.3a1.3,1.3,0,0,0,.8,1.2,1.4,1.4,0,0,0,1.5-.3l8.7-8.7a1.22,1.22,0,0,0,.4-.9,1.28,1.28,0,0,0-.4-1l-8.7-8.7a1.22,1.22,0,0,0-.9-.4.75.75,0,0,0-.5.1A1.74,1.74,0,0,0,293.8,207.8Z"/><line class="cls-1" x1="830" y1="178" x2="845.7" y2="193.7"/><path class="cls-20" d="M845.7,194.7a.91.91,0,0,0,.7-.3,1,1,0,0,0,0-1.4l-15.7-15.7a1,1,0,0,0-1.4,1.4L845,194.4A.91.91,0,0,0,845.7,194.7Z"/><line class="cls-1" x1="485.3" y1="40.9" x2="501" y2="56.6"/><path class="cls-20" d="M501,57.6a.91.91,0,0,0,.7-.3,1,1,0,0,0,0-1.4L486,40.3a1,1,0,0,0-1.4,1.4l15.7,15.7A1.45,1.45,0,0,0,501,57.6Z"/><line class="cls-1" x1="237.1" y1="225.4" x2="252.8" y2="241.1"/><path class="cls-19" d="M252.8,242.1a.91.91,0,0,0,.7-.3,1,1,0,0,0,0-1.4l-15.7-15.7a1,1,0,0,0-1.4,1.4l15.7,15.7A1.08,1.08,0,0,0,252.8,242.1Z"/><path class="cls-19" d="M880.7,170.5a1.28,1.28,0,0,0,1-.4,1.45,1.45,0,0,0,0-2.1l-1.4-1.4a1.48,1.48,0,1,0-2.1,2.1l1.4,1.4A1.67,1.67,0,0,0,880.7,170.5Zm-6.2-6.2a1.28,1.28,0,0,0,1-.4,1.45,1.45,0,0,0,0-2.1l-1.4-1.4a1.48,1.48,0,1,0-2.1,2.1l1.4,1.4A1.86,1.86,0,0,0,874.5,164.3Zm-6.1-6.2a1.28,1.28,0,0,0,1-.4,1.45,1.45,0,0,0,0-2.1l-1.4-1.4a1.48,1.48,0,0,0-2.1,2.1l1.4,1.4A1.5,1.5,0,0,0,868.4,158.1Z"/><path class="cls-19" d="M121.9,110.1a1.28,1.28,0,0,0,1-.4,1.45,1.45,0,0,0,0-2.1l-1.4-1.4a1.48,1.48,0,0,0-2.1,2.1l1.4,1.4A1.67,1.67,0,0,0,121.9,110.1Zm-6.2-6.2a1.28,1.28,0,0,0,1-.4,1.45,1.45,0,0,0,0-2.1l-1.4-1.4a1.48,1.48,0,0,0-2.1,2.1l1.4,1.4A1.86,1.86,0,0,0,115.7,103.9Zm-6.2-6.2a1.28,1.28,0,0,0,1-.4,1.45,1.45,0,0,0,0-2.1l-1.4-1.4a1.48,1.48,0,1,0-2.1,2.1l1.4,1.4A1.86,1.86,0,0,0,109.5,97.7Z"/><line class="cls-1" x1="493.1" y1="246.8" x2="477.4" y2="231.1"/><path class="cls-20" d="M493.1,247.8a.91.91,0,0,0,.7-.3,1,1,0,0,0,0-1.4l-15.7-15.7a1,1,0,1,0-1.4,1.4l15.7,15.7A1.08,1.08,0,0,0,493.1,247.8Z"/><path class="cls-19" d="M888.3,48.6a1.28,1.28,0,0,0,1-.4,1.45,1.45,0,0,0,0-2.1l-1.4-1.4a1.48,1.48,0,1,0-2.1,2.1l1.4,1.4A1.67,1.67,0,0,0,888.3,48.6Zm-6.2-6.1a1.28,1.28,0,0,0,1-.4,1.45,1.45,0,0,0,0-2.1l-1.4-1.4a1.48,1.48,0,0,0-2.1,2.1l1.4,1.4A3,3,0,0,0,882.1,42.5ZM876,36.3a1.28,1.28,0,0,0,1-.4,1.45,1.45,0,0,0,0-2.1l-1.4-1.4a1.48,1.48,0,1,0-2.1,2.1l1.4,1.4A2.1,2.1,0,0,0,876,36.3Zm-6.2-6.2a1.28,1.28,0,0,0,1-.4,1.45,1.45,0,0,0,0-2.1l-1.4-1.4a1.48,1.48,0,1,0-2.1,2.1l1.4,1.4A1.5,1.5,0,0,0,869.8,30.1Zm-6.2-6.2a1.28,1.28,0,0,0,1-.4,1.45,1.45,0,0,0,0-2.1L863.2,20a1.48,1.48,0,0,0-2.1,2.1l1.4,1.4A1.67,1.67,0,0,0,863.6,23.9Z"/><path class="cls-20" d="M321,127.3l1.9-.1-.3-4.8,4.8.4.1-1.9-5.9-.4a1,1,0,0,0-1.1,1.1Z"/><rect class="cls-20" x="327.89" y="118.43" width="1.9" height="20.8" transform="translate(5.22 270.26) rotate(-45)"/><path class="cls-19" d="M82.3,27.9A1.63,1.63,0,0,1,80,25.6l1.5-1.5a1.63,1.63,0,1,1,2.3,2.3Z"/><path class="cls-19" d="M82.1,29.9l1.5,1.5a1.63,1.63,0,0,1-2.3,2.3l-1.5-1.5a1.69,1.69,0,0,1,0-2.3A1.52,1.52,0,0,1,82.1,29.9Z"/><path class="cls-19" d="M75.5,27.9,74,26.4a1.63,1.63,0,0,1,2.3-2.3l1.5,1.5a1.69,1.69,0,0,1,0,2.3A1.52,1.52,0,0,1,75.5,27.9Z"/><path class="cls-19" d="M75.7,29.9A1.63,1.63,0,0,1,78,32.2l-1.5,1.5a1.63,1.63,0,1,1-2.3-2.3Z"/><path class="cls-19" d="M615.4,24.6a3.9,3.9,0,0,0,0-7.8,3.9,3.9,0,1,0,0,7.8Zm0-5.9a2,2,0,1,1-2,2A2.07,2.07,0,0,1,615.4,18.7Z"/><path class="cls-10" d="M300.9,201.5c0,4.1-3,7.7-7.1,7.7H218.2a7.73,7.73,0,0,1-7.5-7.7V96.9a7.47,7.47,0,0,1,7.5-7.4h75.6a7.19,7.19,0,0,1,7.1,7.4V201.5Z"/><rect class="cls-21" x="217.9" y="98.2" width="75.9" height="91.8"/><path class="cls-22" d="M260.9,199.4a4.9,4.9,0,1,1-4.9-4.9A4.91,4.91,0,0,1,260.9,199.4Z"/><path class="cls-19" d="M254.4,126.7h2.7v5.6h-2.7a14.72,14.72,0,0,1-2.4,5.9h0l1.9,1.9h0l-4,4h0l-1.9-1.9h0a15.33,15.33,0,0,1-5.9,2.4h0v2.7h-5.6v-2.7h0a14.72,14.72,0,0,1-5.9-2.4h0l-1.9,1.9h0l-4-4h0l1.9-1.9h0a15.33,15.33,0,0,1-2.4-5.9h-2.7v-5.6h2.7a14.72,14.72,0,0,1,2.4-5.9h0l-1.9-1.9h0l4-4h0l1.9,1.9h0a14.72,14.72,0,0,1,5.9-2.4h0v-2.7h5.6v2.7h0a14.72,14.72,0,0,1,5.9,2.4h0l1.9-1.9h0l4,4h0l-1.9,1.9h0a16.31,16.31,0,0,1,2.4,5.9Zm-6.7-.1a8.74,8.74,0,0,0-8.5-6.1h0a9,9,0,0,0-8.5,11.8,8.74,8.74,0,0,0,8.5,6.1h0A9,9,0,0,0,247.7,126.6Zm-8.6-1.5a4.7,4.7,0,1,0,4.7,4.7A4.69,4.69,0,0,0,239.1,125.1Z"/><path class="cls-12" d="M283.8,128.9h2v4.2h-2a11.39,11.39,0,0,1-1.8,4.4h0l1.4,1.4h0l-3,3h0l-1.4-1.4h0a11.39,11.39,0,0,1-4.4,1.8h0v2h-4.2v-2h0a11.39,11.39,0,0,1-4.4-1.8h0l-1.4,1.4h0l-3-3h0l1.4-1.4h0a11.39,11.39,0,0,1-1.8-4.4h-2v-4.2h2a11.39,11.39,0,0,1,1.8-4.4h0l-1.4-1.4h0l3-3h0l1.4,1.4h0a11.39,11.39,0,0,1,4.4-1.8h0v-2h4.2v2h0a11.39,11.39,0,0,1,4.4,1.8h0l1.4-1.4h0l3,3h0l-1.4,1.4h0a11.39,11.39,0,0,1,1.8,4.4Zm-5,0a6.58,6.58,0,0,0-6.3-4.5h0a6.71,6.71,0,0,0-6.3,8.8,6.58,6.58,0,0,0,6.3,4.5h0A6.69,6.69,0,0,0,278.8,128.9Zm-6.3-1.2a3.5,3.5,0,1,0,3.5,3.5A3.61,3.61,0,0,0,272.5,127.7Z"/><path class="cls-15" d="M275.7,161.7l2.8.4h0l-.9,6h0l-2.8-.4h0a17.06,17.06,0,0,1-3.6,5.9h0l1.7,2.3h0l-4.9,3.6h0l-1.7-2.3h0a15.37,15.37,0,0,1-6.7,1.6h0l-.4,2.8h0l-3-.5-3-.5h0l.4-2.8h0a17.06,17.06,0,0,1-5.9-3.6h0l-2.3,1.7h0l-3.6-4.9h0l2.3-1.7h0a15.37,15.37,0,0,1-1.6-6.7h0l-2.8-.4h0l.9-6h0l2.8.4h0a17.06,17.06,0,0,1,3.6-5.9h0l-1.7-2.3h0l4.9-3.6h0l1.7,2.3h0a15.37,15.37,0,0,1,6.7-1.6h0l.4-2.8h0l3,.5,3,.5h0l-.4,2.8h0a17.06,17.06,0,0,1,5.9,3.6h0l2.3-1.7h0l3.6,4.9h0L274,155h0a16.58,16.58,0,0,1,1.7,6.7Zm-7.1-1.2a9.66,9.66,0,0,0-8-7.9h0a9.69,9.69,0,0,0-11,11.2,9.44,9.44,0,0,0,8,7.8h0A9.62,9.62,0,0,0,268.6,160.5Zm-9-3a5,5,0,1,0,4.2,5.7A4.86,4.86,0,0,0,259.6,157.5Z"/><path class="cls-23" d="M208.5,299.4c-.5-.4-4.7-1.5-6.1-2.7a5,5,0,0,1-1.4-3.1l4.7-37.1-1.3-10.8-17.2,2.7s1.2,7.9,1.2,8.5c-.2-.4-5.5,4.1-6.8,8-1.5,4.6-6.6,18.7-8.5,22.3l-2.3,4.2,5.4,4s5,1.7,4.7,1.2-3.9-3.1-4.7-4.7a4.49,4.49,0,0,1-.3-2.7l17.8-30.1,1.6-10.5h2.8l2.3,8.8s-2.9,9.4-3,13.8.7,22.2.7,22.2l-.7,5,6.4,1.8C203.7,300,209,299.8,208.5,299.4Z"/><path class="cls-24" d="M169.6,293.7a31.5,31.5,0,0,1,1-3.2,5.3,5.3,0,0,1,1.5-1.7s2,1,2.1,2.3c.1,1.5,2,2.5,4.3,3.3,2.1.8,3.4,2.4,3.3,2.9s-8.4-2.5-8.4-2.5l-1.6-2.7-.7,2Z"/><path class="cls-24" d="M196.9,300.8a23.26,23.26,0,0,1-.2-3.4,5.8,5.8,0,0,1,.8-2.1s2.2.3,2.7,1.4c.6,1.4,2.7,1.6,5.2,1.6,2.3,0,4,1,4.1,1.6s-8.8.6-8.8.6l-2.4-2v2.1Z"/><path class="cls-25" d="M194.1,174.6a11.44,11.44,0,0,0,1.7-6.3c-.1-3.8-10.6-6-14.1-2.4s-2.3,7.5-4.3,9.4-7.7,1.6-6.9,7.4,5,6.6,2.9,9.4-5.6,6.9-1.1,12.6,15.5-.6,15.5-.6l2.1-26.6Z"/><polygon class="cls-23" points="186.5 178.7 185 184 189.8 185 189.9 180.7 186.5 178.7"/><path class="cls-23" d="M198.7,195.9a21.56,21.56,0,0,0,6.6,1.5,12.23,12.23,0,0,0,5.6-1v6s-6.2,2.4-11.7-.7C198.2,201.4,198.7,195.9,198.7,195.9Z"/><path class="cls-26" d="M187.4,176s-1.7-1.3-2.3.2,1.5,2.4,1.5,2.4,2.3,4.4,6.9,4.4c3.8-6.2.8-12.8.8-12.8s-1.9,1.7-3.2,3C189.5,174.9,187.1,174.4,187.4,176Z"/><path class="cls-19" d="M197.1,190.1c-1.4-1.7-7.4-6-7.4-6L185,184s-3.9,3.9-3.9,8.9,5.6,12.4,6.5,15.2a14.61,14.61,0,0,1,.6,4.9s-4.6,11.1-4.5,16.9,2.8,19,2.8,19,14.1,1.5,19.8-1.3c-.7-.1-4.6-31.6-5.6-34.8s-1-11.6-1-13.5S201.3,195.2,197.1,190.1Z"/><path class="cls-26" d="M188.6,190.3c-1.3-1.2-7.5-.2-3.9,6.1S198.2,211,198.2,211a22.79,22.79,0,0,0,21.7.3,6.62,6.62,0,0,0,4.5.4,4,4,0,0,0,3.3-2.6l-5.1.1s1.5-1.9.5-2.1-3,1.9-3,1.9-14.2-1-16.9-2.2C200.4,205.8,189.9,191.6,188.6,190.3Z"/><path class="cls-14" d="M197.7,220.4l-6.1-2.1s-2.7,7.6,1.3,8.7S197.7,220.4,197.7,220.4Z"/><path class="cls-5" d="M400.7,10a12.06,12.06,0,0,1,22.6,5.9v.6a6.58,6.58,0,0,1,5.8,6.5,6.66,6.66,0,0,1-6.6,6.6H409.3a3.4,3.4,0,0,1-1-.1,4.87,4.87,0,0,1-1.2.1h-4.9A9.85,9.85,0,0,1,400.7,10Z"/><path class="cls-27" d="M523.2,234.6h62.2a2.9,2.9,0,0,1,2.9,2.9v25.6a2.9,2.9,0,0,1-2.9,2.9h-3v4.2l-8.7-4.2H523.3a2.9,2.9,0,0,1-2.9-2.9V237.5A2.7,2.7,0,0,1,523.2,234.6Z"/><rect class="cls-12" x="526.5" y="239.4" width="55.1" height="5.2"/><rect class="cls-12" x="526.5" y="249.7" width="55.1" height="5.2"/><path class="cls-28" d="M1140.4,240.9v-.4l4.3-.3v.4Zm8.6-.7v-.4l4.3-.3v.4Zm8.7-.7v-.4l4.3-.3v.4Zm8.6-.7v-.4l4.3-.3v.4Zm8.7-.7v-.4l4.3-.3v.4Zm8.6-.7V237l4.3-.3v.4Zm8.7-.7v-.4l4.3-.3v.4Zm8.6-.6v-.4l4.3-.3v.4Zm8.7-.7V235l2.6-.2v.4Z"/><path class="cls-28" d="M909.3,294.4l-.3-.4,3.8-2.1.2.4Zm2-3.7-.4-.2,2.1-3.8.4.2Zm5.6-.4-.2-.4,3.8-2.1.2.4Zm7.6-4.1-.2-.4,3.8-2.1.2.4Zm-9-3.1-.4-.2,2.1-3.8.4.2Zm16.7-1-.2-.4,3.8-2.1.2.4Zm7.6-4.1-.2-.4,3.8-2.1.2.4Zm-20.2-2.6-.4-.2.9-1.6,2.5-.7.1.4-2.4.7Zm27.8-1.5-.2-.4,3.8-2.1.2.4ZM926.9,272l-.1-.4,4.2-1.2.1.4Zm28.2-2.3-.2-.4,3.8-2.1.2.4Zm-19.8-.1-.1-.4,4.2-1.2.1.4Zm8.3-2.4-.1-.4,4.2-1.2.1.4Zm19.1-1.6-.2-.4,3.8-2.1.2.4Zm-10.8-.9-.1-.4,4.2-1.2.1.4Zm8.3-2.4-.1-.4,4.2-1.2.1.4Zm10.2-.8-.2-.4L974,259l.2.4Zm-1.8-1.7-.1-.4,4.2-1.2.1.4Zm9.4-2.4-.2-.3-.9.3-.1-.4,4.5-1.3Z"/><path class="cls-28" d="M1082.4,285l-3.6-2.5.2-.4,3.6,2.5Zm-1.8-4.1-1.7-4,.4-.2,1.7,4Zm-5.4-.8-3.6-2.5.2-.4,3.6,2.5Zm-7.1-5-3.6-2.5.2-.4,3.6,2.5Zm9.2-2.2-1.7-4,.4-.2,1.7,4Zm-16.3-2.7-3.6-2.5.2-.4,3.6,2.5Zm-7.2-4.9-3.6-2.5.2-.4,3.6,2.5Zm20.1-.4-1.7-4,.4-.2,1.7,4Zm-27.2-4.5-3.6-2.5.2-.4,3.6,2.5Zm23.8-3.4-1.7-4,.4-.2,1.7,4Zm-31-1.6-3.6-2.5.2-.4,3.6,2.5Zm-7.1-4.9-2.8-1.9,1.6-.7.2.4-.9.4,2.2,1.5Zm34.7-1.5-1.7-4,.4-.2,1.7,4Zm-31.8-2.5-.2-.4,4-1.8.2.4Zm7.9-3.6-.2-.4,4-1.8.2.4Zm20.6-1.9-.4-1,.4-.2.4,1Zm-12.7-1.6-.2-.4,4-1.8.2.4Zm7.9-3.6-.2-.4,3.8-1.7h.2v.4h-.2Zm47.3-1.3H1102v-.4h4.3Zm-8.7,0h-4.3v-.4h4.3Zm-8.7-.1h-4.3V234h4.3Zm-8.7-.1h-4.3v-.4h4.3Zm-8.6-.1h-4.3v-.4h4.3Z"/><path class="cls-28" d="M909.6,290.9l-1.4-.2.1-.4.4.1-1.8-2.3.3-.3Zm-5.7-.8-4.3-.6.1-.4,4.3.6Zm-8.5-1.2-4.3-.6.1-.4,4.3.6Zm-8.6-1.2-4.3-.6.1-.4,4.3.6Zm-8.6-1.2-4.3-.6.1-.4,4.3.6Zm-8.6-1.3-4.3-.6.1-.4,4.3.6Zm34.7-.6-2.6-3.5.3-.3,2.6,3.5Zm-36.2-2.8-.3-.3,3-3.1.3.3Zm31-4.2-2.6-3.5.3-.3,2.6,3.5Zm-25-2-.3-.3,3-3.1.3.3Zm19.7-4.9-2.6-3.5.3-.3,2.6,3.5Zm-13.6-1.4-.3-.3,3-3.1.3.3Zm8.4-5.5-1.4-1.8-1.1,1.1-.3-.3,1.4-1.5,1.7,2.2Z"/><path class="cls-28" d="M1039.7,292.9l-.4-.1,1.5-4.1.4.1Zm3.3-1.4-.2-.4,3.8-2,.2.4Zm7.7-4-.2-.4,3.8-2,.2.4Zm-8-2.8-.4-.1,1.5-4.1.4.1Zm15.7-1.2-.2-.4,3.8-2,.2.4Zm124.4-2.9h0l-2.5-2.2.3-.3,2.1,1.9.3-.8.4.2-.4.9C1183,280.5,1183,280.6,1182.8,280.6Zm-116.7-1.1-.2-.4,3.8-2,.2.4Zm-20.5-2.9-.4-.1,1.5-4.1.4.1Zm28.2-1.1-.2-.4,3.8-2,.2.4Zm103.4-.1-3.2-3,.3-.3,3.2,3Zm7.9-.1-.4-.2c.5-1.2,1.1-2.5,1.7-4l.4.2C1186.2,272.8,1185.6,274.1,1185.1,275.3Zm-103.6-3.8-.2-.4,3.8-2,.2.4Zm89.4-2.1-3.2-3,.3-.3,3.2,3Zm-122.3-1-.4-.1,1.5-4.1.4.1Zm40.6-.9-.2-.4,3.8-2,.2.4Zm99.3-.2-.4-.2c.6-1.3,1.1-2.6,1.7-4l.4.2C1189.7,264.7,1189.1,266,1188.5,267.3Zm-24-3.8-3.2-3,.3-.3,3.2,3Zm-67.6,0-.2-.4,3.8-2,.2.4Zm-45.4-3.2-.4-.1,1.5-4.1.4.1Zm53.1-.8-.2-.4,3.8-2,.2.4Zm87.4-.2-.4-.2c.6-1.3,1.2-2.7,1.8-4l.4.2C1193.2,256.7,1192.6,258,1192,259.3Zm-33.8-1.7-3.2-3,.3-.3,3.2,3Zm-45.9-2.1-.2-.4,3.8-2,.2.4Zm-57.8-3.4-.4-.1,1.5-4.1.4.1Zm97.3-.4-3.2-3,.3-.3,3.2,3Zm-31.8-.2-.2-.4,3.8-2,.2.4Zm75.6-.1-.4-.2c.7-1.4,1.3-2.7,1.9-3.9l.4.2C1196.9,248.7,1196.3,250,1195.6,251.4Zm-57.2-2-1.8-.3.1-.4,1.8.3Zm-6.1-1.1-4.3-.8v-.2l-.4.2-.2-.4,3.8-2,.2.4-3.1,1.6,4,.7Zm-8.5-1.6-4.3-.8.1-.4,4.3.8Zm21.7-1-3.2-3,.3-.3,3.2,3Zm-30.3-.5-4.3-.8.1-.4,4.3.8Zm-57.8-1.3-.4-.1,1.5-4.1.4.1Zm142.2-.2-.4-.2c1.7-3,2.4-3.4,2.8-3.4v.4C1201.9,240.5,1201.3,240.7,1199.6,243.7Zm-92.9,0-4.3-.8.1-.4,4.3.8Zm28.7-.2-.2-.4,3.8-2,.2.4Zm-37.2-1.4-4.3-.8.1-.4,4.3.8Zm-8.6-1.5-4.3-.8.1-.4,4.3.8Zm-8.5-1.5-4.3-.8.1-.4,4.3.8Zm-8.6-1.6-4.3-.8.1-.4,4.3.8ZM1064,236l-3.5-.6-.1.4-.4-.1.3-.7,3.8.7Z"/><path class="cls-28" d="M1216.4,226h-.4l.2-4.3h.4Zm-3.4-.5-.6-2.8.4-.1.6,2.8Zm-1.6-7-.9-4.2.4-.1.9,4.2Zm5.4-1.2h-.4l.2-4.3h.4Zm-7.2-7.3-.9-4.2.4-.1.9,4.2Zm7.6-1.3h-.4l.2-4.3h.4Zm-9.5-7.1-.9-4.2.4-.1.9,4.2Zm9.9-1.6h-.4l.2-4.3h.4Zm-11.8-6.9-.9-4.2.4-.1.9,4.2Zm12.1-1.8h-.4l.2-4.3h.4Zm-13.9-6.7-.9-4.2.4-.1.9,4.2Zm14.3-1.9h-.4l.2-4.3h.4Zm-16.2-6.6-.9-4.2.4-.1.9,4.2Zm16.6-2.1h-.4l.2-4.3h.4Zm-18.5-6.3-.9-4.2.4-.1.9,4.2Zm18.9-2.4h-.4l.2-4.3h.4Zm-20.7-6.1-.9-4.2.4-.1.9,4.2Zm21-2.5h-.4l.2-4.3h.4Zm-22.9-6-.9-4.2.4-.1.9,4.2Zm23.3-2.7h-.4l.2-4.3h.4Zm-25.2-5.7-.9-4.2.4-.1.9,4.2Zm25.6-3h-.4l.2-4.3h.4Zm-27.4-5.5-.9-4.2.4-.1.9,4.2Zm27.8-3.1h-.4v-.5l-3.2-1.6.2-.4,3.4,1.7Zm-7.5-4.1-3.9-2,.2-.4,3.9,2Zm-22.2-1.3-.9-4.2.4-.1.9,4.2Zm14.5-2.6-3.9-2,.2-.4,3.9,2Zm-7.8-3.9-3.9-2,.2-.4,3.9,2Zm-8.6-2-.7-3.2,1.7.9-.2.4-.9-.5.5,2.3Z"/><circle class="cls-29" cx="843.89" cy="270.29" r="5.9" transform="translate(388 1030.14) rotate(-76.8)"/><path class="cls-12" d="M844.2,274.1h-.8a.43.43,0,0,1-.4-.4v-.3a.22.22,0,0,0-.2-.2c-.1,0-.2-.1-.4-.2h-.3l-.2.2a.37.37,0,0,1-.3.1h0a.37.37,0,0,1-.3-.1l-.5-.5a.38.38,0,0,1,0-.6l.2-.2a.19.19,0,0,0,0-.3c-.1-.1-.1-.2-.2-.4a.22.22,0,0,0-.2-.2h-.3a.43.43,0,0,1-.4-.4v-.8a.43.43,0,0,1,.4-.4h.4a.22.22,0,0,0,.2-.2c0-.1.1-.2.2-.4v-.3l-.3-.3a.5.5,0,0,1,0-.6l.5-.5a.37.37,0,0,1,.3-.1h0a.37.37,0,0,1,.3.1l.3.3a.19.19,0,0,0,.3,0c.1-.1.2-.1.4-.2a.22.22,0,0,0,.2-.2v-.4a.43.43,0,0,1,.4-.4h.8a.43.43,0,0,1,.4.4v.4a.22.22,0,0,0,.2.2c.1,0,.2.1.4.2h.3l.3-.3a.37.37,0,0,1,.6,0l.5.6a.5.5,0,0,1,0,.6l-.3.3a.19.19,0,0,0,0,.3c.1.1.1.2.2.4a.22.22,0,0,0,.2.2h.4a.43.43,0,0,1,.4.4v.8a.43.43,0,0,1-.4.4h-.3a.22.22,0,0,0-.2.2c0,.1-.1.2-.2.4v.3l.2.2a.37.37,0,0,1,0,.6l-.5.5a.38.38,0,0,1-.6,0l-.2-.2a.19.19,0,0,0-.3,0c-.1.1-.2.1-.4.2a.22.22,0,0,0-.2.2v.3C844.6,273.9,844.4,274.1,844.2,274.1Zm-1.8-1.4h.2a.37.37,0,0,0,.3.1.55.55,0,0,1,.3.5v.3a.22.22,0,0,0,.2.2h.8a.22.22,0,0,0,.2-.2v-.3a.55.55,0,0,1,.3-.5c.1,0,.2-.1.3-.1s.4-.1.5.1l.2.2c.1.1.2.1.2,0l.5-.5c.1-.1.1-.2,0-.2l-.2-.2c-.1-.1-.2-.4-.1-.5a.37.37,0,0,0,.1-.3.55.55,0,0,1,.5-.3h.3a.22.22,0,0,0,.2-.2V270a.22.22,0,0,0-.2-.2h-.4a.55.55,0,0,1-.5-.3c0-.1-.1-.2-.1-.3a.47.47,0,0,1,.1-.6l.3-.3v-.2l-.5-.6c-.1-.1-.2-.1-.2,0l-.3.3c-.1.1-.4.2-.5.1a.37.37,0,0,0-.3-.1.46.46,0,0,1-.3-.5v-.4a.22.22,0,0,0-.2-.2h-.8a.22.22,0,0,0-.2.2v.4a.55.55,0,0,1-.3.5c-.1,0-.2.1-.3.1s-.4.1-.5-.1l-.3-.3h-.2l-.5.5v.2l.3.3a.61.61,0,0,1,.1.6.37.37,0,0,0-.1.3.55.55,0,0,1-.5.3h-.4a.22.22,0,0,0-.2.2v.8a.22.22,0,0,0,.2.2h.3a.55.55,0,0,1,.5.3c0,.1.1.2.1.3s.1.4-.1.5l-.2.2c-.1.1-.1.2,0,.2l.5.5h.2l.2-.2C842.1,272.8,842.3,272.7,842.4,272.7Zm1.4-.4a2,2,0,1,1,2-2A2,2,0,0,1,843.8,272.3Zm0-3.7a1.7,1.7,0,1,0,1.7,1.7A1.69,1.69,0,0,0,843.8,268.6Z"/><circle class="cls-30" cx="1187.8" cy="153.03" r="15.2" transform="translate(765.9 1273.88) rotate(-76.71)"/><path class="cls-12" d="M1194.8,144.3a.37.37,0,0,0-.3-.1l-10.6,2c-.2,0-.3.2-.3.4v10.9a2.84,2.84,0,0,0-1.7-.7,2.4,2.4,0,1,0,2.4,2.4v-9.9l9.8-1.8v8a2.84,2.84,0,0,0-1.7-.7,2.4,2.4,0,1,0,2.4,2.4V144.6c.2-.1.1-.2,0-.3Zm-.6.8v1.6l-9.8,1.8v-1.6ZM1182,160.9a1.7,1.7,0,1,1,1.7-1.7A1.75,1.75,0,0,1,1182,160.9Zm12.2-3.7a1.7,1.7,0,1,1-1.7-1.7A1.69,1.69,0,0,1,1194.2,157.2Z"/><circle class="cls-31" cx="970.06" cy="288.45" r="12.9" transform="translate(212.64 959.68) rotate(-58.11)"/><path class="cls-12" d="M975.7,282.7H964.3a.32.32,0,0,0-.3.3v11.4a.32.32,0,0,0,.3.3h11.4a.32.32,0,0,0,.3-.3V283C975.9,282.9,975.8,282.7,975.7,282.7Zm-.3,3.5v7.9H964.5v-3l3.9-2.9,2.8,2.1a.19.19,0,0,0,.3,0Zm0-.7h0l-4.1,4.2-2.7-2.1a.19.19,0,0,0-.3,0l-3.8,2.8v-7.2h10.9v2.3Z"/><path class="cls-12" d="M966.8,286.9a1.2,1.2,0,1,0,0-2.4,1.2,1.2,0,1,0,0,2.4Zm-.7-1.2a.7.7,0,1,1,.7.7A.68.68,0,0,1,966.1,285.7Z"/><circle class="cls-32" cx="1212.4" cy="78.5" r="9.5"/><path class="cls-12" d="M1212.4,80.2a2.22,2.22,0,0,0,2.2-2.2V74.9a2.2,2.2,0,1,0-4.4,0V78A2.29,2.29,0,0,0,1212.4,80.2Zm1.7-4.8h-3.4v-.6a1.7,1.7,0,1,1,3.4,0v.6Zm-3.4.5h3.4V78a1.7,1.7,0,1,1-3.4,0V75.9Z"/><path class="cls-12" d="M1216,78.1a.2.2,0,0,0-.4,0,3.1,3.1,0,1,1-6.2,0,.2.2,0,0,0-.4,0,3.68,3.68,0,0,0,3.3,3.6v2.8h-2a.2.2,0,1,0,0,.4h4.5a.2.2,0,0,0,0-.4h-2V81.7A3.67,3.67,0,0,0,1216,78.1Z"/><circle class="cls-30" cx="864.7" cy="281.8" r="10.3"/><path class="cls-12" d="M859.5,287.8a.35.35,0,0,0,.2.1c.1,0,.2,0,.2-.1l3-3.5a4.3,4.3,0,0,0,2.5.7,4.6,4.6,0,1,0-4.6-4.6,4.94,4.94,0,0,0,1.7,3.6l-2.9,3.5C859.4,287.5,859.4,287.7,859.5,287.8Zm1.7-7.5a4.1,4.1,0,1,1,4.1,4.1A4.12,4.12,0,0,1,861.2,280.3Z"/><circle class="cls-29" cx="1178.56" cy="65.01" r="7.4" transform="translate(16.6 272.58) rotate(-13.29)"/><path class="cls-33" d="M1180,67.8a.37.37,0,0,1,.3-.1l.1.1V68l-.5.9a4.25,4.25,0,0,0,1.7-1,4.07,4.07,0,0,0,.1-5.7,4.77,4.77,0,0,0-2.2-1.2c-.1,0-.1,0-.1-.1v-.2a.22.22,0,0,1,.2-.2,4.37,4.37,0,0,1,2.4,1.3,4.28,4.28,0,0,1,1.2,3.2,4.1,4.1,0,0,1-1.4,3.1,5.37,5.37,0,0,1-1.6,1l.8.2c.1,0,.1,0,.1.1v.2a.22.22,0,0,1-.2.2h0l-1.6-.3a.1.1,0,0,1-.1-.1v-.2Z"/><path class="cls-12" d="M1175.6,61.8a5.37,5.37,0,0,1,1.6-1l-.8-.2a.22.22,0,0,1-.2-.2c0-.1,0-.1.1-.1h.2l1.6.3a.1.1,0,0,1,.1.1v.1c0,.1,0,.2-.1.2l-.7,1.3a.37.37,0,0,1-.3.1l-.1-.1v-.2l.5-.9a3.36,3.36,0,0,0-1.6,1,3.78,3.78,0,0,0-1.2,2.8,4.36,4.36,0,0,0,1.1,2.9,4.77,4.77,0,0,0,2.2,1.2c.1,0,.1,0,.1.1v.2a.22.22,0,0,1-.2.2h0a4.37,4.37,0,0,1-2.4-1.3,4.28,4.28,0,0,1-1.2-3.2A4.45,4.45,0,0,1,1175.6,61.8Z"/><path class="cls-29" d="M1162.6,255.7a2.6,2.6,0,1,0,2.6,2.6A2.58,2.58,0,0,0,1162.6,255.7Z"/><circle class="cls-34" cx="1115.5" cy="254.3" r="4"/><circle class="cls-32" cx="920.23" cy="273.43" r="3.7"/><circle class="cls-29" cx="1003.4" cy="280.3" r="4.2"/><path class="cls-28" d="M993,269.3a2.11,2.11,0,1,0,2.9.7A2,2,0,0,0,993,269.3Z"/><circle class="cls-28" cx="1168.8" cy="242.4" r="5.2"/><circle class="cls-28" cx="1144.5" cy="137.8" r="6"/><circle class="cls-35" cx="909.1" cy="290.6" r="7.4"/><circle class="cls-32" cx="984" cy="90.2" r="2.6"/><circle class="cls-35" cx="977.5" cy="81.9" r="3.3"/><path class="cls-30" d="M969.9,90.2a1.7,1.7,0,1,1-1.7,1.7A1.75,1.75,0,0,1,969.9,90.2Z"/><path class="cls-29" d="M994.2,229.9a2.3,2.3,0,1,0,2.3,2.3A2.26,2.26,0,0,0,994.2,229.9Z"/><circle class="cls-30" cx="985.8" cy="224.3" r="4.5"/><path class="cls-28" d="M978.2,229.6a1.2,1.2,0,1,0,1.2,1.2A1.22,1.22,0,0,0,978.2,229.6Z"/><ellipse class="cls-33" cx="1220.3" cy="44.4" rx="15.9" ry="16.4"/><path class="cls-12" d="M1225.3,39.2a3.4,3.4,0,0,0-1,.1,5.45,5.45,0,0,0-4.7-2.9,5.54,5.54,0,0,0-5.3,4.3h-.3a4.34,4.34,0,0,0-4.2,4.4,7.21,7.21,0,0,0,1.2,4,.37.37,0,0,0,.3.1h6.5a.4.4,0,0,0,0-.8h-6.3a7,7,0,0,1-.9-3.3,3.48,3.48,0,0,1,3.4-3.6h.5a.55.55,0,0,0,.5-.3,4.71,4.71,0,0,1,4.6-4,4.45,4.45,0,0,1,4.1,2.7.37.37,0,0,0,.5.2,5.16,5.16,0,0,1,1.1-.2,4.72,4.72,0,0,1,4.6,4.9,9.92,9.92,0,0,1-.7,3.5h-6.3a.4.4,0,1,0,0,.8h6.5c.1,0,.3-.1.3-.2a9.9,9.9,0,0,0,1-4.1A5.55,5.55,0,0,0,1225.3,39.2Z"/><path class="cls-12" d="M1220.6,43.6c-.1-.1-.2-.2-.3-.2s-.2.1-.3.2l-1.8,2.6a.37.37,0,0,0-.1.3c0,.1.1.2.2.3s.4.1.5-.1l1-1.5v8.1a.4.4,0,0,0,.8,0V45.2l1,1.5a.35.35,0,0,0,.5.1c.1-.1.1-.2.2-.3a.37.37,0,0,0-.1-.3Z"/><circle class="cls-35" cx="1143" cy="238.7" r="10"/><path class="cls-12" d="M1143.1,238.8a4,4,0,0,0-2.9,1.2c-.1,0-.1.1-.1.2s0,.1.1.2.1.1.2.1.1,0,.2-.1a3.47,3.47,0,0,1,2.5-1,4,4,0,0,1,2.5,1,.3.3,0,0,0,.4,0c0-.1.1-.1.1-.2s0-.1-.1-.2A4.18,4.18,0,0,0,1143.1,238.8Z"/><path class="cls-12" d="M1143.1,236.1a6.65,6.65,0,0,0-4.7,1.9c-.1,0-.1.1-.1.2s0,.1.1.2.1.1.2.1.1,0,.2-.1a6.37,6.37,0,0,1,4.4-1.7,6.13,6.13,0,0,1,4.3,1.7.3.3,0,0,0,.4,0c0-.1.1-.1.1-.2s0-.1-.1-.2A7,7,0,0,0,1143.1,236.1Z"/><path class="cls-12" d="M1149.1,235.8a8.73,8.73,0,0,0-6-2.4,8.92,8.92,0,0,0-6,2.4c-.1,0-.1.1-.1.2s0,.1.1.2.1.1.2.1.1,0,.2-.1a7.77,7.77,0,0,1,5.6-2.2,8.21,8.21,0,0,1,5.6,2.2.3.3,0,0,0,.4,0c0-.1.1-.1.1-.2S1149.1,235.9,1149.1,235.8Z"/><path class="cls-12" d="M1143.1,241.2a1.4,1.4,0,1,0,1.4,1.4A1.43,1.43,0,0,0,1143.1,241.2Zm.8,1.4a.9.9,0,1,1-.9-.9A.9.9,0,0,1,1143.9,242.6Z"/><circle class="cls-35" cx="162.5" cy="129.4" r="10"/><path class="cls-12" d="M162.5,129.5a4,4,0,0,0-2.9,1.2c-.1,0-.1.1-.1.2s0,.1.1.2.1.1.2.1.1,0,.2-.1a3.47,3.47,0,0,1,2.5-1,4,4,0,0,1,2.5,1,.3.3,0,0,0,.4,0c0-.1.1-.1.1-.2s0-.1-.1-.2A4.18,4.18,0,0,0,162.5,129.5Z"/><path class="cls-12" d="M162.5,126.8a6.65,6.65,0,0,0-4.7,1.9c-.1,0-.1.1-.1.2s0,.1.1.2.1.1.2.1.1,0,.2-.1a6.37,6.37,0,0,1,4.4-1.7,6.13,6.13,0,0,1,4.3,1.7.3.3,0,0,0,.4,0c0-.1.1-.1.1-.2s0-.1-.1-.2A7.47,7.47,0,0,0,162.5,126.8Z"/><path class="cls-12" d="M168.4,126.6a8.73,8.73,0,0,0-6-2.4,8.92,8.92,0,0,0-6,2.4c-.1,0-.1.1-.1.2s0,.1.1.2.1.1.2.1.1,0,.2-.1a7.77,7.77,0,0,1,5.6-2.2A8.21,8.21,0,0,1,168,127a.3.3,0,0,0,.4,0c0-.1.1-.1.1-.2S168.5,126.6,168.4,126.6Z"/><path class="cls-12" d="M162.5,131.9a1.4,1.4,0,1,0,1.4,1.4A1.43,1.43,0,0,0,162.5,131.9Zm.8,1.4a.9.9,0,1,1-.9-.9C162.9,132.5,163.3,132.8,163.3,133.3Z"/><circle class="cls-33" cx="1009.95" cy="68.3" r="12.8" transform="translate(-2.3 64.67) rotate(-3.66)"/><path class="cls-12" d="M1014,62.5a4.1,4.1,0,0,0-4.2,1.7,4,4,0,0,0-4.2-1.7,3.6,3.6,0,0,0-2.8,3.7c-.1,5.2,6.8,9.5,6.9,9.5h.2c.1,0,7-4.3,6.9-9.5A3.67,3.67,0,0,0,1014,62.5Zm2.3,3.7c.1,4.5-5.6,8.4-6.4,8.9-.8-.5-6.5-4.4-6.4-8.9a3.24,3.24,0,0,1,2.4-3.2,1.7,1.7,0,0,1,.7-.1,3.67,3.67,0,0,1,3.1,1.9c0,.1.1.1.2.1s.2,0,.2-.1a3.69,3.69,0,0,1,3.8-1.8A3.36,3.36,0,0,1,1016.3,66.2Z"/><circle class="cls-33" cx="1088.9" cy="283.2" r="21.3"/><path class="cls-12" d="M1088.9,270.2a13.1,13.1,0,1,0,13.1,13.1A13.14,13.14,0,0,0,1088.9,270.2Zm6.5,20.4a10.19,10.19,0,0,1-6.1,4.6v-6.5A12.87,12.87,0,0,1,1095.4,290.6Zm-6.1-2.7v-4.2h8.2a14.25,14.25,0,0,1-1.6,6.2A13.78,13.78,0,0,0,1089.3,287.9Zm6.8,3.2a10.59,10.59,0,0,1,1.2,1,13.29,13.29,0,0,1-5.3,3A12,12,0,0,0,1096.1,291.1Zm0-15.7a11.71,11.71,0,0,0-4.1-3.9,10.52,10.52,0,0,1,5.2,3A5.31,5.31,0,0,1,1096.1,275.4Zm1.4,7.4h-8.2v-4.2a14.12,14.12,0,0,0,6.6-2A14.25,14.25,0,0,1,1097.5,282.8Zm-8.2-5v-6.5a9.92,9.92,0,0,1,6.1,4.6A12.87,12.87,0,0,1,1089.3,277.8Zm11.8,5.9a11.88,11.88,0,0,1-3.2,7.8,7.55,7.55,0,0,0-1.4-1.1,15.2,15.2,0,0,0,1.8-6.7Zm0-.9h-2.8a15.2,15.2,0,0,0-1.8-6.7,6.89,6.89,0,0,0,1.3-1.1A11.51,11.51,0,0,1,1101.1,282.8Zm-18.8-6.9a10.19,10.19,0,0,1,6.1-4.6v6.5A13.6,13.6,0,0,1,1082.3,275.9Zm6.2,2.7v4.2h-8.2a14.25,14.25,0,0,1,1.6-6.2A14.12,14.12,0,0,0,1088.5,278.6Zm-6.8-3.2a10.59,10.59,0,0,1-1.2-1,12.23,12.23,0,0,1,5.2-2.9A10.67,10.67,0,0,0,1081.7,275.4Zm-5,7.4a11.88,11.88,0,0,1,3.2-7.8,12.67,12.67,0,0,0,1.3,1.1,15.2,15.2,0,0,0-1.8,6.7Zm5,8.3a13.85,13.85,0,0,0,4,4,11.16,11.16,0,0,1-5.2-2.9A6,6,0,0,1,1081.7,291.1Zm-1.4-7.4h8.2v4.2a13.41,13.41,0,0,0-6.5,2A13.39,13.39,0,0,1,1080.3,283.7Zm8.2,5v6.5a10.19,10.19,0,0,1-6.1-4.6A12.87,12.87,0,0,1,1088.5,288.7Zm-8.6,2.8a11.88,11.88,0,0,1-3.2-7.8h2.8a15.2,15.2,0,0,0,1.8,6.7A7.55,7.55,0,0,0,1079.9,291.5Z"/><circle class="cls-33" cx="1220.82" cy="126.01" r="16.9" transform="translate(183.91 782.58) rotate(-38.23)"/><path class="cls-12" d="M1227.9,122.3h-2v-2a5.15,5.15,0,0,0-5.3-5,5.21,5.21,0,0,0-5.1,5.2v2h-1.9a.43.43,0,0,0-.4.4l.2,11.7a.43.43,0,0,0,.4.4l14.3-.3a.43.43,0,0,0,.4-.4l-.2-11.7A.45.45,0,0,0,1227.9,122.3Zm-.4.8.2,10.9-13.5.3-.2-10.9Zm-2.4-.7-8.8.2v-2a4.35,4.35,0,0,1,4.3-4.4,4.49,4.49,0,0,1,4.5,4.2Z"/><path class="cls-12" d="M1220.8,130.4a.43.43,0,0,0,.4-.4l-.1-3.6a.4.4,0,0,0-.8,0l.1,3.6A.43.43,0,0,0,1220.8,130.4Z"/><circle class="cls-29" cx="191.21" cy="60.31" r="16.9"/><path class="cls-12" d="M198.3,56.6h-2v-2a5.15,5.15,0,0,0-5.3-5,5.21,5.21,0,0,0-5.1,5.2v2H184a.43.43,0,0,0-.4.4l.2,11.7a.43.43,0,0,0,.4.4l14.3-.3a.43.43,0,0,0,.4-.4L198.7,57A.37.37,0,0,0,198.3,56.6Zm-.4.7.2,10.9-13.5.3-.2-10.9Zm-2.4-.7-8.8.2v-2a4.35,4.35,0,0,1,4.3-4.4,4.49,4.49,0,0,1,4.5,4.2Z"/><path class="cls-12" d="M191.2,64.6a.43.43,0,0,0,.4-.4l-.1-3.6a.4.4,0,0,0-.8,0l.1,3.6A.43.43,0,0,0,191.2,64.6Z"/><circle class="cls-31" cx="885" cy="260.4" r="15.3"/><path class="cls-12" d="M890.6,265a2.48,2.48,0,0,0-2.1,1.1l-8.8-4.4a3.25,3.25,0,0,0,0-1.6l8.8-4.5a2.31,2.31,0,0,0,2,1.1,2.5,2.5,0,1,0-2.5-2.5,2,2,0,0,0,.1.8l-8.8,4.5a2.31,2.31,0,0,0-2-1.1,2.5,2.5,0,1,0,2.1,3.9l8.8,4.4a2,2,0,0,0-.1.8,2.5,2.5,0,1,0,2.5-2.5Zm-1.8-10.8a1.8,1.8,0,1,1,1.8,1.8A1.73,1.73,0,0,1,888.8,254.2Zm-9.5,6.8a1.8,1.8,0,1,1-1.8-1.8A1.79,1.79,0,0,1,879.3,261Zm9.7,5.7h0a1.78,1.78,0,1,1-.2.8A3.09,3.09,0,0,1,889,266.7Z"/><circle class="cls-32" cx="984.2" cy="249.4" r="14.3"/><path class="cls-12" d="M984.2,259.1a.84.84,0,0,1-.7-.4l-4.9-9.4a6.4,6.4,0,0,1,.4-6,6.09,6.09,0,0,1,4.9-3h.7a6.09,6.09,0,0,1,4.9,3,6.67,6.67,0,0,1,.4,6l-4.9,9.5c-.3.1-.5.3-.8.3Zm-.4-18.2a5.58,5.58,0,0,0-4.7,8l4.9,9.4c0,.1.1.1.2.1s.1,0,.2-.1l4.9-9.4a5.55,5.55,0,0,0-.3-5.3,5.21,5.21,0,0,0-4.4-2.6,2.2,2.2,0,0,0-.8-.1Z"/><path class="cls-12" d="M984.2,250.1a3.6,3.6,0,1,0-3.6-3.6A3.52,3.52,0,0,0,984.2,250.1Zm0-6.5a2.9,2.9,0,1,1-2.9,2.9A2.78,2.78,0,0,1,984.2,243.6Z"/><circle class="cls-33" cx="761.5" cy="273.2" r="16.8"/><path class="cls-12" d="M751.9,267.1v12.2a.43.43,0,0,0,.4.4h18.4a.43.43,0,0,0,.4-.4V267.1c0-.1-.1-.3-.2-.3s-.3,0-.4.1l-4.6,4.5-4.1-4.5a.5.5,0,0,0-.6,0l-4.1,4.5-4.6-4.5a.6.6,0,0,0-.4-.1h0C752,266.8,751.9,266.9,751.9,267.1Zm4.9,5a.5.5,0,0,0,.6,0l4.1-4.5,4.1,4.5a.5.5,0,0,0,.6,0l4.3-4.2v11H752.8v-11Z"/><circle class="cls-33" cx="1210.3" cy="231.5" r="28.5"/><path class="cls-12" d="M1200.1,247.7h20.3a.47.47,0,0,0,.5-.5v-7a10.62,10.62,0,0,0-7.7-10.2,8.39,8.39,0,0,0,5.2-7.7,8.3,8.3,0,0,0-16.6,0,8.41,8.41,0,0,0,5.4,7.8,10.93,10.93,0,0,0-7.5,10.2v7C1199.6,247.4,1199.9,247.7,1200.1,247.7Zm.5-1.1v-6.5a9.6,9.6,0,1,1,19.2,0v6.5Zm9.5-17.1a7.3,7.3,0,1,1,7.3-7.3A7.34,7.34,0,0,1,1210.1,229.5Z"/><circle class="cls-34" cx="1182.8" cy="280.3" r="19.2"/><path class="cls-12" d="M1193,283.5h-7.3l1.2-5.7h6.2a.5.5,0,0,0,0-1h-6l1.3-6.4c.1-.3-.1-.5-.4-.6s-.5.1-.6.4l-1.3,6.6h-5.5l1.3-6.4c.1-.3-.1-.5-.4-.6s-.5.1-.6.4l-1.3,6.6H1172a.5.5,0,0,0,0,1h7.4l-1.2,5.7H1172a.5.5,0,0,0,0,1h6l-1.3,6.4c-.1.3.1.5.4.6h.1a.66.66,0,0,0,.5-.4l1.4-6.6h5.5l-1.3,6.4c-.1.3.1.5.4.6h.1a.66.66,0,0,0,.5-.4l1.4-6.6h7.5a.47.47,0,0,0,.5-.5C1193.4,283.7,1193.2,283.5,1193,283.5Zm-13.9,0,1.2-5.7h5.5l-1.2,5.7Z"/><circle class="cls-31" cx="1197.08" cy="109.32" r="17.4" transform="translate(815.59 1249.24) rotate(-76.71)"/><path class="cls-12" d="M1207.6,101h-19.4a.43.43,0,0,0-.4.4v13a.43.43,0,0,0,.4.4h5.9l1.8,4.7c.1.2.2.2.4.2h0c.2,0,.3-.1.4-.3l1.6-4.7h9.3a.43.43,0,0,0,.4-.4v-13A.45.45,0,0,0,1207.6,101Zm-.4,13H1198c-.2,0-.3.1-.4.3l-1.4,3.9-1.6-3.9c-.1-.2-.2-.2-.4-.2h-5.8V101.9H1207l.2,12.1Z"/><circle class="cls-34" cx="1060.34" cy="237.48" r="16"/><path class="cls-36" d="M1066.1,226.9h-11.8a.27.27,0,0,0-.3.3V248a.27.27,0,0,0,.3.3h11.8a.27.27,0,0,0,.3-.3V227.3C1066.4,227,1066.2,226.9,1066.1,226.9Zm-.3,20.8h-11.2v-3h11.2Zm0-3.6h-11.2V227.6h11.2v16.5Z"/><rect class="cls-36" x="1059" y="245.9" width="2.5" height="0.6"/><circle class="cls-34" cx="1064.51" cy="49.55" r="16"/><path class="cls-36" d="M1070.3,38.9h-11.8a.27.27,0,0,0-.3.3V60a.27.27,0,0,0,.3.3h11.8a.27.27,0,0,0,.3-.3V39.3C1070.6,39,1070.4,38.9,1070.3,38.9Zm-.3,20.8h-11.2v-3H1070Zm0-3.7h-11.2V39.5H1070V56Z"/><rect class="cls-36" x="1063.1" y="57.8" width="2.5" height="0.6"/><circle class="cls-33" cx="956.9" cy="120.8" r="15.7"/><path class="cls-12" d="M965.1,114.9h0v-.1H949v11.6a.27.27,0,0,0,.3.3h15.8a.27.27,0,0,0,.3-.3l-.3-11.5Zm-15.8.8,7.4,6.8c.1.1.1.1.2.1s.2,0,.2-.1l7.4-6.8v10.5H949.3V115.7Zm.5-.4H964l-7.1,6.5Z"/><path class="cls-14" d="M958,231.9c4.2,0,8.6,1,12.8,1.4,1.3.1,2.6.2,3.9.4s2.8.7,4.2,1a31.17,31.17,0,0,0,5.2.8,12.16,12.16,0,0,0,4.2-.9q4.65-1.5,9.3-3.3a143.87,143.87,0,0,0,17.7-8.5,213.63,213.63,0,0,0,32.2-22.9c3.8-3.2,7.5-6.6,11.2-10,29.1-27.1,62.4-99.3,63.7-102.2l-.6-3.1c-1.3.8-29.9,16.4-36.6,20.1a1.53,1.53,0,0,1-2.1-.7,61.18,61.18,0,0,1-3.1-6.6c-.1-.3.3.1.4-.2s.3-.4.4-.6a55.07,55.07,0,0,1,9.7-6.9c2.8-1.6,5.6-3.2,8.4-4.6a12.11,12.11,0,0,0,3.5-2.4l3.6-3.3c4.8-4.3,9.5-8.7,14.3-13,8.8-8,17.5-16,25.9-24.4,1.5-1.5,3.3-3.2,6.1-1.8a6.32,6.32,0,0,1,3.2,3.6c0,.7.8,1.9,1,2.6.4,1,.8,1.9,1.1,2.9,3.3,8.3,6.5,16.5,9.8,24.8,1.7,4.3,3.4,8.5,5.1,12.8l2.4,6a37.56,37.56,0,0,0,2.5,5.8,1.49,1.49,0,0,1,.3.7,1.7,1.7,0,0,1,.1.7c0,1.6,0,3.1-.1,4.7a4.67,4.67,0,0,1-.3,1.7,1.82,1.82,0,0,1-1.3,1.1c-1.4.2-2.8-.9-3.8-1.7s-2-1.6-3-2.5c-2.2-1.8-4.4-3.7-6.7-5.5-3.6-3-7.2-6-10.9-8.9h-.1c0,2.3-1.3,66.7-17.7,106a226.3,226.3,0,0,1-11,22.7,211,211,0,0,1-53.6,63.4,172.2,172.2,0,0,1-26.7,17.4c-3.8,2-7.8,3.6-11.7,5.3-1.7.8-4.1,2.2-5.1-.2a47,47,0,0,1-2.8-9c-.1-.3.2-.4.3-.6a2.51,2.51,0,0,1,.4-.7,23.12,23.12,0,0,0,2.4-2.9,11.78,11.78,0,0,0,1.9-3.9,29.22,29.22,0,0,0,.4-5.1c.2-3.7.2-7.3.2-11,0-4.3-.2-8.6-.4-12.9-.2-3.5,0-4.5-3.4-3.9a102.38,102.38,0,0,1-36.2-.2c-6.7-1.3-13.5-4-19.7-6.7a28,28,0,0,1-6.1-3.4C961.8,242.5,958.3,234.1,958,231.9Z"/><path class="cls-19" d="M1174.6,101l-25.9-21.3h0c0,2.3-1.3,66.7-17.7,106a206.52,206.52,0,0,1-11,22.7,211,211,0,0,1-53.6,63.4,172.2,172.2,0,0,1-26.7,17.4c-3.8,2-7.8,3.5-11.7,5.3-1.6.7-3.8,2.3-4.7.3-.7-1.5.8-6.2,1-8,.5-4.5.9-8.9,1.1-13.4q.3-6.15.3-12.3c0-4.3-.2-8.6-.4-12.9a5.28,5.28,0,0,0-.1-1.3c-.1-2.4-.4-3.1-3.3-2.6h-.1c-33.4,5.6-64.7-8.5-63.8-13.2a.76.76,0,0,1,.2-.5c.8-1.3,7.2-1,8.9-1.2,3.3-.5,6.5-1.1,9.7-1.8,30.6-7.1,56.4-26,79.1-47.1,29.1-27.1,62.4-99.3,63.7-102.2h0c-1.4.9-20.8,13-36.6,20.2a2,2,0,0,1-2.3-3.3q31.35-31.35,62.7-62.6c1.3-1.3,2.8-2.8,5.1-2.2a6.89,6.89,0,0,1,1,.4,6.32,6.32,0,0,1,3.2,3.6c7.1,18.1,19.7,49.9,25.3,64.2A2.19,2.19,0,0,1,1174.6,101Z"/><path class="cls-19" d="M1174.6,101l-25.9-21.3h0c0,2.3-1.3,66.7-17.7,106a206.52,206.52,0,0,1-11,22.7,211,211,0,0,1-53.6,63.4,172.2,172.2,0,0,1-26.7,17.4c-3.8,2-7.8,3.5-11.7,5.3-1.6.7-3.8,2.3-4.7.3-.7-1.5.8-6.2,1-8,.5-4.5.9-8.9,1.1-13.4q.3-6.15.3-12.3c0-4.3-.2-8.6-.4-12.9a5.28,5.28,0,0,0-.1-1.3c40.4-20.5,68.9-61.9,88.3-103.4,22.7-48.6,32.9-97.3,34.9-113a6.89,6.89,0,0,1,1,.4,6.32,6.32,0,0,1,3.2,3.6c7.1,18.1,19.7,49.9,25.3,64.2A2.1,2.1,0,0,1,1174.6,101Z"/><g class="cls-37"><path class="cls-38" d="M1106.8,159.2c-2.2,5.8,1.3,12.1,1.3,18.2s-3.3,12.9-6.7,17.7c-12.7,17.4-32.2,31-52.5,38a39.1,39.1,0,0,0-6.7,2.7c-5.8,3.4-8.4,10.2-10.7,16.5l-4.8,13.5c-.2.7-.5,1.1-1.2,1a54.18,54.18,0,0,1,0-5.7c0-4.3-.2-8.6-.4-12.9a5.28,5.28,0,0,0-.1-1.3c-.1-2.4-.4-3.1-3.3-2.6h-.1a172.31,172.31,0,0,1,34.9-51.2l1.9-1.6c6-11,11.9-22,17.9-33,3-5.6,6-11.2,9.9-16.2,4-5.3,8.5-9.8,15.4-10.2,3.4-.2,7.2.5,9.4,3.2a12.42,12.42,0,0,1,1.6,3,15,15,0,0,1,.9,5.2,17,17,0,0,1-2.3,8.8C1109.8,154.6,1107.8,156.7,1106.8,159.2Z"/></g><path class="cls-39" d="M1061,139.3a6,6,0,0,0,.8-.8,20.89,20.89,0,0,0,2.2-2c.8-.9,1.8-1.6,2.2-2.8a5.25,5.25,0,0,0,0-3.5,4.74,4.74,0,0,0-1.3-2.4,2.94,2.94,0,0,0-2.5-.8,3.7,3.7,0,0,0-1.1.5,4.89,4.89,0,0,0-1.9,3.3c-.3,1.2.1,2.5-.2,3.7a14.28,14.28,0,0,1-1.5,2.7"/><path class="cls-40" d="M1062.9,201.3l1.4,1.5c-5.5,5.2-16.7,5-23.6,2.9-.3-.1-.9-.3-1.7-.6-5.7-2.2-22.6-9-22.6-9.9.1,12.5-3.5,24.7-7,36.7-.8,2.7-1.9,10.2-5.7,8.2a6.07,6.07,0,0,1-1-.7c-1.6-1.4-1.8-3.7-1.9-5.8-.8-15.3-1-30.7-.4-46,.1-2.3.2-4.7,1.6-6.6,2.8-3.6,8.3-2.6,12.7-1.4,11.5,3.1,23.3,3.9,34.9,6,3.6.7,7.3.6,10.9,1.6s7.1,3.3,8,6.8S1066.5,201.9,1062.9,201.3Z"/><g class="cls-41"><path class="cls-42" d="M1044.1,201.5q-2.1,1.65-4.2,3a2.15,2.15,0,0,1-1.9.2c-4.7-1.8-14-5.6-18.7-7.8a2.12,2.12,0,0,0-3,1.8c-.5,11.3-3.7,22.3-6.9,33.1-.2.6-.3,1.3-.6,2.2a2.1,2.1,0,0,1-4.1-.9l.3-1.5c2.8-14,5-28.1,6.6-42.2a2,2,0,0,1,2.4-1.8,31.49,31.49,0,0,1,6.5,2.3,221.25,221.25,0,0,0,22.9,8A2,2,0,0,1,1044.1,201.5Z"/></g><path class="cls-40" d="M1077.4,207.3a34.73,34.73,0,0,1-9.7,7.8,120.67,120.67,0,0,1-22.9,10.3c-6.9,2.2-9.5,7.1-12,13.4-3.6,9-7.8,17.8-11.6,26.7-2.4,5.5-6.1,12-12.2,11.9,2.1-11.8,4.7-23.5,7.4-35.2,2.3-9.9,3.2-23.5,10-31.5,4.4-5.2,10.6-8.7,16.6-11.9s11.7-6.9,17.5-10.2c4.2-2.4,8.7-4.9,13.5-5,8.6-.1,9.9,8.3,8,15A21.48,21.48,0,0,1,1077.4,207.3Z"/><path class="cls-43" d="M1094.2,164.7a16,16,0,0,1-.5,2.1,184.32,184.32,0,0,1-8.4,24.4,27,27,0,0,1-2.4,4.4,2.34,2.34,0,0,1-.7.7c-.4.2-.8,0-1.3-.1-2.5-.3-4.9-.5-7.1-.8-2.5-.3-4.7-.7-6.7-1.1-.8-.2-1.6-.3-2.4-.5-11.1-2.3-15.8-5.2-17.7-6.9l-.2-.2a5,5,0,0,1-1.1-1.4s2.3-3.9,3.4-5.7c3-4.9,5.5-10,8.1-15.1,1.6-3.2,3.1-6.5,4.8-9.7,1.5-3,4.7-5.8,7.1-8.2a11.17,11.17,0,0,1,2.4-1.9,11.86,11.86,0,0,1,4.6-1,16.7,16.7,0,0,1,5,.1,10.93,10.93,0,0,1,1.7.5,30.75,30.75,0,0,1,5.9,2.5,15,15,0,0,1,5.9,7C1095.6,156,1095.2,160.1,1094.2,164.7Z"/><g class="cls-44"><path class="cls-43" d="M1094.2,164.7a16,16,0,0,1-.5,2.1,184.32,184.32,0,0,1-8.4,24.4,27,27,0,0,1-2.4,4.4,2.34,2.34,0,0,1-.7.7c-.4.2-.8,0-1.3-.1-2.5-.3-4.9-.5-7.1-.8C1088.9,180.8,1085.7,173.9,1094.2,164.7Z"/></g><path class="cls-43" d="M1074,154.2c.2-.2.5-.4.6-.7a2.16,2.16,0,0,0-.1-1.1c-.8-2.1,3.8-9,1.6-8.9-8.1.6-15.5,5.5-21.4,10.6a31.15,31.15,0,0,0,5.7-10.6,20.84,20.84,0,0,1,2-5.1c.9-1.6-.4-2.2-1.6-3a2,2,0,0,0-.8-.4c-1.5-.4-4,2.1-5.1,3a29.82,29.82,0,0,0-4.4,4.3,33,33,0,0,0-5.9,10.5c-1.1,3.3-2.8,8.8,1.3,10.7a8.9,8.9,0,0,0,4,.7,26.26,26.26,0,0,0,4.9-.5c1.2-.3,2.4-.6,3.6-1,1-.3,1.9-.6,2.9-.9,1.3-.4,2.5-.8,3.7-1.3a29.37,29.37,0,0,0,4.7-3.1C1071.1,156.3,1072.6,155.3,1074,154.2Z"/><path class="cls-43" d="M1091.3,148.8s-.6,3.4-.9,4.3c-.6,1.7-1.6,3.4-2.3,5a12.72,12.72,0,0,0-1.2,5.7,27.19,27.19,0,0,0,1.1,3.8c.4,1.4.8,2.7,1.2,4.1a21.58,21.58,0,0,1-.9,11.9,114.05,114.05,0,0,1-8,16.5,8.75,8.75,0,0,0-1.2,2.6c-.6,3,1.9,2.8,3.8,1.6a50.17,50.17,0,0,0,8.8-7.8,44.63,44.63,0,0,0,8.7-12.8,21.92,21.92,0,0,0,2-6.6C1104.5,157.4,1093.1,150.4,1091.3,148.8Z"/><path class="cls-39" d="M1091.3,137.9c-1.2,3.1-2.3,6.3-3.2,9.5-1.4,4.9-8.9,2.8-7.5-2.1l.6-2.1a.37.37,0,0,1,.1-.3c.4-1.3.8-2.6,1.3-3.9,0-.1.1-.2.1-.3.4-1,.7-2,1.1-3,.8-2,2.6-3.3,4.8-2.7C1090.5,133.6,1092.1,135.9,1091.3,137.9Z"/><path class="cls-39" d="M1088.9,138.9a7.8,7.8,0,0,1-4.7,3.8,10.47,10.47,0,0,1-3,.5.37.37,0,0,1,.1-.3c.4-1.3.8-2.6,1.3-3.9a11.3,11.3,0,0,0,4.1,0A8.13,8.13,0,0,1,1088.9,138.9Z"/><path class="cls-45" d="M1007.7,242.8l.3-.3a4.32,4.32,0,0,0,.6-2.8,33.89,33.89,0,0,1,.2-4.5c.1-.8.8-2.8-.4-2.8h-7.1a.52.52,0,0,0-.2.4,7.17,7.17,0,0,1-.5,2.1c-.4.6-1.6.9-2.3,1.1a14.15,14.15,0,0,1-2.9.2c-2.4,0-4.9.2-7.3.4a7.75,7.75,0,0,0-3,.7,1.93,1.93,0,0,0-.2,3.3c1.8,1.4,4.5,1.6,6.7,1.8,2.4.2,4.9.4,7.4.5l4.9.3C1004.9,243.4,1006.6,243.6,1007.7,242.8Z"/><path class="cls-45" d="M1017.5,278l.3-.3c.9-1.1.8-3.1,1-4.4a43.39,43.39,0,0,1,.9-5.2c-2.9.4-5.8-.8-8.7-.4a4.9,4.9,0,0,1-1,2.6,3,3,0,0,1-2,1,14.15,14.15,0,0,1-2.9.2c-2.4,0-4.9.2-7.3.4a7.75,7.75,0,0,0-3,.7,1.93,1.93,0,0,0-.2,3.3c1.8,1.4,4.5,1.6,6.7,1.8,2.4.2,4.9.4,7.4.5l4.9.3C1014.7,278.6,1016.5,278.8,1017.5,278Z"/><path class="cls-39" d="M1082.4,202a2.24,2.24,0,0,0-1.5-.8c-1.5-.1-3.1,1.4-4.1,2.3a9.31,9.31,0,0,0-2.6,4.1c-.4,1.4-1,4.2.4,5.2,1.6,1.3,4.5-.5,5.7-1.7,2.1-2,3.7-5.3,2.6-8.2A4.05,4.05,0,0,0,1082.4,202Z"/><path class="cls-46" d="M1083.4,121.9a3.41,3.41,0,0,1,.3,2.6,24.77,24.77,0,0,1-.3,2.7,9.43,9.43,0,0,1-2.8,4.8,2,2,0,0,1-3.6-1.5,13.44,13.44,0,0,1,2-7.5c.6-1,1.5-2,2.6-2A2.83,2.83,0,0,1,1083.4,121.9Z"/><path class="cls-39" d="M1085.7,122.7c-3.2-.2-5.9,2.4-7.4,5.3a11,11,0,0,0-1.2,6.4,8,8,0,0,0,3.2,5.6,8.55,8.55,0,0,0,6.8,1,10.09,10.09,0,0,0,3.8-1.7c.4-.3.9-.6,1.3-.9s.6-.6.9-.7a1.27,1.27,0,0,1,.6-.1,4.42,4.42,0,0,0,1.6-.6,1.42,1.42,0,0,0,.8-.9c.1-.3.1-.5.2-.8.1-.9.1-1.8.3-2.8a4,4,0,0,0-.3-3.4,13.66,13.66,0,0,0-2.1-1.5c-.8-.6-.9-1.6-1.5-2.4-1.3-1.8-3.8-2.8-5.7-1.9"/><path class="cls-46" d="M1090.6,118.6a5.5,5.5,0,0,0-2.5-4.2,5.2,5.2,0,0,0-5.5-.1c-3.5,2.3-2.2,7.4.8,9.5,2.8,1.9,8.5.5,9.9,4.4.8,2-1,4.2-.8,6.4a2.49,2.49,0,0,0,1.4-1.1c.4-.5,1-1,1.5-.8s.6.7.7,1.2a3.13,3.13,0,0,1-.2,1.9,2.08,2.08,0,0,1-1.4,1.2h-1a2.74,2.74,0,0,0-2.3,1.6c-.5.9-1.3,2.6.2,1.8a11.87,11.87,0,0,0,2.3-1.6,14.57,14.57,0,0,0,4.7-6.3,8.86,8.86,0,0,0,.2-5.8,4.81,4.81,0,0,0-.8-1.6,1.67,1.67,0,0,0-1.6-.5,15.26,15.26,0,0,0-.3-3,4.12,4.12,0,0,0-1.6-2.4,3.33,3.33,0,0,0-3.7.2Z"/><path class="cls-47" d="M1064,125.4a.86.86,0,0,0-.3.6,58.79,58.79,0,0,0-2.7,8.4,2.44,2.44,0,0,0,.2,2.2,1.49,1.49,0,0,0,1.8.2,4.36,4.36,0,0,0,1.4-1.3,26,26,0,0,0,4.4-9.7"/><path class="cls-48" d="M1076.7,125.2c-.5,2-1.7,3.8-3.8,4.2a7.07,7.07,0,0,1-2.5-.2c-1.7-.5-3.5-1.5-5-1.9-1.2-.4-2.4-.6-3.6-.9a23.25,23.25,0,0,0-3.7-.4c-4.9-.3-9.9.2-14.8.3l11.3-26.7a67.82,67.82,0,0,0,8.4,12.2,38.33,38.33,0,0,0,2.9,2.8,15.58,15.58,0,0,0,2,1.6,27.49,27.49,0,0,0,5.3,3.6c.3.2.7.3,1,.5a6.57,6.57,0,0,1,1.7,1.2A3.56,3.56,0,0,1,1076.7,125.2Z"/><path class="cls-49" d="M1056,109.4a28.87,28.87,0,0,1-1.1,4.7,26.27,26.27,0,0,1-3.5,6.9c-2.9,3.9-6.6,5.9-9.7,4.9-4.6-1.6-6.2-9.3-3.5-17.4s8.6-13.3,13.3-11.8C1055.1,98,1056.9,103.2,1056,109.4Z"/><path class="cls-45" d="M1054.6,109.7c0,.2-.1.4-.1.7v.3a16.66,16.66,0,0,1-.8,3,31.65,31.65,0,0,1-1.6,3.7,2.09,2.09,0,0,1-.4.6c-.3.5-.7,1-1,1.5-2.5,3.3-5.7,5.1-8.3,4.2-4-1.3-5.3-8-3-14.9s7.4-11.4,11.3-10.1C1053.9,99.9,1055.4,104.4,1054.6,109.7Z"/><path class="cls-50" d="M1054.3,111.5v.2a10.55,10.55,0,0,1-.6,2.4,20.81,20.81,0,0,1-1.3,3c-.1.2-.2.3-.3.5-.6,0-1.9-.1-2.5-.1h-.4c-.5,0-2.1-.2-2.3-.2,0,0,.2,0,.2-.3a1.42,1.42,0,0,1,.2-.6l.9-2.7c.6-1.8,1.3-3.6,1.8-5.4.1-.2.3-.4.4-.6C1050.6,107.9,1053.5,110.7,1054.3,111.5Z"/><path class="cls-19" d="M1051.1,111.6a9.36,9.36,0,0,1-.4,1.6,9,9,0,0,1-1.2,2.4c-1,1.3-2.3,2-3.3,1.7-1.6-.5-2.1-3.2-1.2-5.9s2.9-4.6,4.5-4C1050.8,107.7,1051.4,109.5,1051.1,111.6Z"/><path class="cls-45" d="M1076.7,125.2c-.5,2-1.7,3.8-3.8,4.2a7.07,7.07,0,0,1-2.5-.2,12.34,12.34,0,0,0,3.8-8.9,6.57,6.57,0,0,1,1.7,1.2A3.56,3.56,0,0,1,1076.7,125.2Z"/><path class="cls-19" d="M1081.7,166.1c-2.1,10.8-9.5,19.6-17,27.6-11.1-2.3-15.8-5.2-17.7-6.9h0a216.28,216.28,0,0,0,15.1-20.5c2.2-3.4,4.3-7,7.6-9.2s8.5-2.3,10.9,1C1082.4,160.3,1082.3,163.4,1081.7,166.1Z"/><path class="cls-39" d="M1062.7,133.8a4.06,4.06,0,0,0,2.4-2.7,2.63,2.63,0,0,0-.8-3.4,2.39,2.39,0,0,0-1.4-.5c-.9,0-1.5.7-2.1,1.4a11.78,11.78,0,0,0-1.1,1.9,3.4,3.4,0,0,0-.3,2A2.82,2.82,0,0,0,1062.7,133.8Z"/><path class="cls-51" d="M1033.1,75.7c0,.1.1.2.1.3"/><path class="cls-52" d="M1034.5,79.4a180,180,0,0,0,8.5,18.4"/><path class="cls-51" d="M1043.8,99.5c.1.1.1.2.2.3"/><path class="cls-51" d="M997.1,84c.1.1.2.2.3.2"/><path class="cls-53" d="M1000.1,86.6a154.18,154.18,0,0,0,34.3,22.3"/><path class="cls-51" d="M1036,109.7c.1,0,.2.1.3.1"/><path class="cls-51" d="M981.2,99.7c.1,0,.2.1.3.1"/><path class="cls-54" d="M984.6,101.2c14,5.8,35.9,10.5,50.3,12.6"/><path class="cls-51" d="M1036.6,114.1h.3"/><path class="cls-51" d="M1004.4,119.4h.3"/><path class="cls-55" d="M1008.3,119.6a138.61,138.61,0,0,0,24.1-.4"/><path class="cls-51" d="M1034.1,119a.37.37,0,0,0,.3-.1"/></g></g></g></svg>