<?xml version="1.0" encoding="utf-8"?>
<!-- Generator: Adobe Illustrator 26.0.2, SVG Export Plug-In . SVG Version: 6.00 Build 0)  -->
<svg version="1.1" id="Layer_1" xmlns="http://www.w3.org/2000/svg" xmlns:xlink="http://www.w3.org/1999/xlink" x="0px" y="0px"
	 viewBox="0 0 1245 300" style="enable-background:new 0 0 1245 300;" xml:space="preserve">
<style type="text/css">
	.st0{clip-path:url(#SVGID_00000018943555699439938910000003750953476387755669_);}
	.st1{fill:url(#SVGID_00000018198096247631482660000016738396964163488181_);}
	.st2{fill:#EAE6F4;}
	.st3{fill:#BCD0ED;}
	.st4{fill:#0D0D9E;}
	.st5{fill:#F2F2F2;}
	.st6{fill:#4028EA;}
	.st7{fill:#E9EEF9;}
	.st8{fill:#090993;}
	.st9{fill:#21BAEE;}
	.st10{fill:#FFFFFF;}
	.st11{fill:#FAB544;}
	.st12{fill:#070784;}
	.st13{fill:#EA5532;}
	.st14{fill:#C1292E;}
	.st15{fill:#F9EA32;}
	.st16{fill:#77BC6E;}
	.st17{fill:#1F06B5;}
	.st18{fill:none;}
	.st19{fill:#52539F;}
	.st20{fill:#E2E7F6;}
	.st21{fill:#33338B;}
	.st22{fill:#E9A08C;}
	.st23{fill:#231F20;}
	.st24{fill:#203256;}
	.st25{fill:#F9C6B5;}
	.st26{fill:#BAE1ED;}
	.st27{fill:#BAB2D9;}
	.st28{fill:#FAF2B4;}
	.st29{fill:#A6B0C6;}
	.st30{fill:#434596;}
	.st31{fill:#DDB39C;}
	.st32{fill:#9FE2FF;}
	.st33{fill:#364093;}
	.st34{fill:#B1949A;}
	.st35{fill:#F8F7F6;}
	.st36{opacity:0.28;}
	.st37{fill:#4A4A4A;}
	.st38{fill:#F5BF90;}
	.st39{fill:#434A6E;}
	.st40{opacity:0.36;}
	.st41{fill:#132339;}
	.st42{fill:#0091C7;}
	.st43{fill:#262A36;}
	.st44{fill:#563624;}
	.st45{fill:#E94C59;}
	.st46{fill:#EA4D58;}
	.st47{fill:#515A83;}
	.st48{fill:url(#SVGID_00000070813334879181659360000000333798189833014172_);}
	.st49{fill:none;stroke:#434A6E;stroke-linecap:round;stroke-linejoin:round;}
	.st50{fill:none;stroke:#434A6E;stroke-linecap:round;stroke-linejoin:round;stroke-dasharray:1.07,5.37;}
	.st51{fill:none;stroke:#434A6E;stroke-linecap:round;stroke-linejoin:round;stroke-dasharray:1.04,5.2;}
	.st52{fill:none;stroke:#434A6E;stroke-linecap:round;stroke-linejoin:round;stroke-dasharray:1,5.01;}
	.st53{fill:none;stroke:#434A6E;stroke-linecap:round;stroke-linejoin:round;stroke-dasharray:1.05,5.23;}
</style>
<g id="Layer_2_00000140737354246960108940000009881003476080132484_">
	<g id="Слой_1">
		<g>
			<defs>
				<rect id="SVGID_1_" width="1245" height="300"/>
			</defs>
			<clipPath id="SVGID_00000022545271628199669050000003118188040200258971_">
				<use xlink:href="#SVGID_1_"  style="overflow:visible;"/>
			</clipPath>
			<g style="clip-path:url(#SVGID_00000022545271628199669050000003118188040200258971_);">
				
					<radialGradient id="SVGID_00000065049376248207445870000000066391842708144035_" cx="1770.9758" cy="430.1646" r="700.62" gradientTransform="matrix(-0.76 0.55 0.47 0.5 2129.8225 -1433.04)" gradientUnits="userSpaceOnUse">
					<stop  offset="0" style="stop-color:#73D7FF"/>
					<stop  offset="1" style="stop-color:#002BC6"/>
				</radialGradient>
				<rect style="fill:url(#SVGID_00000065049376248207445870000000066391842708144035_);" width="1245" height="300"/>
				<path class="st2" d="M235.2,256.4H179c0,0-11-12.3-1.9-21.3c6.3-6.3,12.9-3.9,16.8-8.4s0-17.4,16.1-16.1s7.7,22.6,13.6,24.5
					S246.1,241.6,235.2,256.4z"/>
				<path class="st3" d="M271.5,21.6h12.3c7.7,0.1,14.1,5.9,14.8,13.6h1c4.5,0,8.1,3.6,8.1,8.1c0,4.5-3.6,8.1-8.1,8.1h-28
					c-8.2,0-14.8-6.6-14.8-14.8l0,0c-0.2-8.1,6.2-14.8,14.3-15C271.3,21.6,271.4,21.6,271.5,21.6z"/>
				<path class="st4" d="M427,249.1c0,2.7-2.2,4.9-4.9,4.9h-154c-2.7,0-4.9-2.2-4.9-4.9v-96c0-2.7,2.2-4.9,4.9-4.9h154.1
					c2.7,0,4.9,2.2,4.9,4.9L427,249.1z"/>
				<rect x="271" y="156.2" class="st5" width="148.2" height="89.7"/>
				<path class="st6" d="M423.9,253.9l18.1,16.5H248.7l21.4-16.1C270.1,254.2,378,253.9,423.9,253.9z"/>
				<path class="st7" d="M276.5,256.2L261.1,267h166.5l-13.5-11.2L276.5,256.2z"/>
				<rect x="248.7" y="270.4" class="st8" width="193.3" height="5.1"/>
				<rect x="271" y="156.2" class="st9" width="148.2" height="8.6"/>
				<rect x="347.8" y="168.5" class="st3" width="62.9" height="31.8"/>
				<rect x="387.8" y="174.1" class="st10" width="18.2" height="18.2"/>
				<rect x="333.4" y="217" class="st9" width="55.5" height="20.1"/>
				<g id="User">
					<rect x="343.7" y="221.5" class="st10" width="41.5" height="3.2"/>
				</g>
				<g id="User-2">
					<rect x="353.1" y="227.7" class="st10" width="32.1" height="3.2"/>
				</g>
				<rect x="388.7" y="217" class="st11" width="19.8" height="20.1"/>
				<path class="st10" d="M404.4,223.9c-0.3-0.3-0.9-0.3-1.2,0l-5,4.4l-5-4.4c-0.4-0.3-0.9-0.3-1.2,0.1c-0.3,0.3-0.3,0.8,0,1.1
					l5.6,4.9c0.2,0.2,0.4,0.3,0.6,0.2c0.2,0,0.4-0.1,0.6-0.2l5.6-4.9C404.7,224.8,404.7,224.2,404.4,223.9z"/>
				<g id="Schloss">
					<rect x="334.7" y="202.1" class="st9" width="43" height="9.5"/>
				</g>
				<g id="Schloss-2">
					<rect x="334.7" y="190.3" class="st12" width="43" height="9.5"/>
				</g>
				<rect x="325.2" y="190.4" class="st10" width="9.5" height="9.5"/>
				<path class="st13" d="M327.7,196.5c-0.1,0.1-0.1,0.3,0,0.4l0.8,0.8c0.1,0.1,0.3,0.1,0.4,0l1.1-1.1l1.1,1.1
					c0.1,0.1,0.3,0.1,0.4,0l0.8-0.8c0.1-0.1,0.1-0.3,0-0.4l-1.1-1.1l1.1-1.1c0.1-0.1,0.1-0.3,0-0.4l-0.8-0.8c-0.1-0.1-0.3-0.1-0.4,0
					l-1.1,1.1l-1.1-1.1c-0.1-0.1-0.3-0.1-0.4,0l-0.8,0.8c-0.1,0.1-0.1,0.3,0,0.4l1.1,1.1L327.7,196.5z"/>
				<rect x="325.2" y="202.1" class="st10" width="9.5" height="9.5"/>
				<path class="st9" d="M327,205.4l0.7-0.7c0.1-0.1,0.2-0.1,0.3,0c0,0,0,0,0,0l2.9,2.9l1.2-1.2c0.1-0.1,0.2-0.1,0.3,0c0,0,0,0,0,0
					l0.7,0.7c0.1,0.1,0.1,0.2,0,0.3c0,0,0,0,0,0l-2,2.1l-0.1,0.1c-0.1,0-0.1,0-0.1-0.1v0l-3.7-3.8l-0.1-0.1
					C326.9,205.5,326.9,205.4,327,205.4L327,205.4z"/>
				<path class="st14" d="M411.1,160.2c0,1.3,1,2.3,2.3,2.3c1.3,0,2.3-1,2.3-2.3c0-1.3-1-2.3-2.3-2.3l0,0
					C412.2,158,411.2,159,411.1,160.2z"/>
				<path class="st15" d="M403.9,160.2c0,1.3,1,2.3,2.3,2.3c1.3,0,2.3-1,2.3-2.3c0-1.3-1-2.3-2.3-2.3l0,0
					C404.9,157.9,403.9,158.9,403.9,160.2z"/>
				<path class="st16" d="M396.6,160.2c0,1.3,1,2.3,2.3,2.3c1.3,0,2.3-1,2.3-2.3c0-1.3-1-2.3-2.3-2.3l0,0
					C397.6,157.9,396.6,158.9,396.6,160.2z"/>
				<rect x="277.5" y="195.4" class="st10" width="45.5" height="43.6"/>
				<path class="st17" d="M317.5,216.4c0,10.5-8.6,19.1-19.1,19.1s-19.1-8.6-19.1-19.1c0-10.5,8.6-19.1,19.1-19.1
					S317.5,205.9,317.5,216.4C317.5,216.4,317.5,216.4,317.5,216.4z M314.9,216.4c0-9.1-7.3-16.4-16.4-16.4s-16.4,7.3-16.4,16.4
					c0,9.1,7.3,16.4,16.4,16.4l0,0C307.6,232.8,314.9,225.5,314.9,216.4z"/>
				<path class="st17" d="M293.8,207.8v17.3c0,0.5,0.3,1,0.8,1.2c0.5,0.2,1.1,0.1,1.5-0.3l8.7-8.7c0.3-0.2,0.4-0.6,0.4-0.9
					c0-0.4-0.1-0.7-0.4-1l-8.7-8.7c-0.2-0.3-0.6-0.4-0.9-0.4c-0.2,0-0.4,0-0.5,0.1C294.2,206.7,293.8,207.2,293.8,207.8z"/>
				<line class="st18" x1="830" y1="178" x2="845.7" y2="193.7"/>
				<path class="st19" d="M845.7,194.7c0.3,0,0.5-0.1,0.7-0.3c0.4-0.4,0.4-1,0-1.4l-15.7-15.7c-0.4-0.3-1.1-0.2-1.4,0.2
					c-0.3,0.4-0.3,0.8,0,1.2l15.7,15.7C845.2,194.6,845.4,194.7,845.7,194.7z"/>
				<line class="st18" x1="485.3" y1="40.9" x2="501" y2="56.6"/>
				<path class="st19" d="M501,57.6c0.3,0,0.5-0.1,0.7-0.3c0.4-0.4,0.4-1,0-1.4L486,40.3c-0.4-0.3-1.1-0.2-1.4,0.2
					c-0.3,0.4-0.3,0.8,0,1.2l15.7,15.7C500.5,57.5,500.8,57.6,501,57.6z"/>
				<line class="st18" x1="237.1" y1="225.4" x2="252.8" y2="241.1"/>
				<path class="st17" d="M252.8,242.1c0.3,0,0.5-0.1,0.7-0.3c0.4-0.4,0.4-1,0-1.4l-15.7-15.7c-0.4-0.3-1.1-0.2-1.4,0.2
					c-0.3,0.4-0.3,0.8,0,1.2l15.7,15.7C252.3,242,252.5,242.1,252.8,242.1z"/>
				<path class="st17" d="M880.7,170.5c0.4,0,0.7-0.1,1-0.4c0.6-0.6,0.6-1.5,0-2.1c0,0,0,0,0-0.1l-1.4-1.4c-0.6-0.6-1.5-0.6-2.1,0
					s-0.6,1.5,0,2.1l1.4,1.4C879.9,170.4,880.3,170.5,880.7,170.5z M874.5,164.3c0.4,0,0.7-0.1,1-0.4c0.6-0.6,0.6-1.5,0-2.1
					c0,0,0,0,0-0.1l-1.4-1.4c-0.6-0.6-1.5-0.6-2.1,0s-0.6,1.5,0,2.1l1.4,1.4C873.7,164.1,874.1,164.3,874.5,164.3z M868.4,158.1
					c0.4,0,0.7-0.1,1-0.4c0.6-0.6,0.6-1.5,0-2.1c0,0,0,0,0-0.1l-1.4-1.4c-0.6-0.6-1.5-0.6-2.1,0s-0.6,1.5,0,2.1l1.4,1.4
					C867.6,158,868,158.1,868.4,158.1z"/>
				<path class="st17" d="M121.9,110.1c0.4,0,0.7-0.1,1-0.4c0.6-0.6,0.6-1.5,0-2.1c0,0,0,0,0,0l-1.4-1.4c-0.6-0.6-1.5-0.6-2.1,0
					s-0.6,1.5,0,2.1l1.4,1.4C121.1,110,121.5,110.1,121.9,110.1z M115.7,103.9c0.4,0,0.7-0.1,1-0.4c0.6-0.6,0.6-1.5,0-2.1
					c0,0,0,0,0,0l-1.4-1.4c-0.6-0.6-1.5-0.6-2.1,0s-0.6,1.5,0,2.1l1.4,1.4C114.9,103.7,115.3,103.9,115.7,103.9z M109.5,97.7
					c0.4,0,0.7-0.1,1-0.4c0.6-0.6,0.6-1.5,0-2.1c0,0,0,0,0,0l-1.4-1.4c-0.6-0.6-1.5-0.6-2.1,0s-0.6,1.5,0,2.1l1.4,1.4
					C108.7,97.5,109.1,97.7,109.5,97.7z"/>
				<line class="st18" x1="493.1" y1="246.8" x2="477.4" y2="231.1"/>
				<path class="st19" d="M493.1,247.8c0.3,0,0.5-0.1,0.7-0.3c0.4-0.4,0.4-1,0-1.4l-15.7-15.7c-0.3-0.4-1-0.5-1.4-0.2
					s-0.5,1-0.2,1.4c0.1,0.1,0.1,0.1,0.2,0.2l15.7,15.7C492.6,247.7,492.8,247.8,493.1,247.8z"/>
				<path class="st17" d="M888.3,48.6c0.4,0,0.7-0.1,1-0.4c0.6-0.6,0.6-1.5,0-2c0,0,0,0,0,0l-1.4-1.4c-0.6-0.6-1.5-0.6-2.1,0
					s-0.6,1.5,0,2.1l0,0l1.4,1.4C887.5,48.5,887.9,48.6,888.3,48.6z M882.1,42.5c0.4,0,0.7-0.1,1-0.4c0.6-0.6,0.6-1.5,0-2
					c0,0,0,0,0,0l-1.4-1.4c-0.6-0.6-1.5-0.6-2.1,0s-0.6,1.5,0,2.1l1.4,1.4C881.3,42.3,881.7,42.4,882.1,42.5z M876,36.3
					c0.4,0,0.7-0.1,1-0.4c0.6-0.6,0.6-1.5,0-2c0,0,0,0,0,0l-1.4-1.4c-0.6-0.6-1.5-0.6-2.1,0s-0.6,1.5,0,2.1l0,0l1.4,1.4
					C875.2,36.1,875.6,36.3,876,36.3z M869.8,30.1c0.4,0,0.7-0.1,1-0.4c0.6-0.6,0.6-1.5,0-2c0,0,0,0,0-0.1l-1.4-1.4
					c-0.6-0.6-1.5-0.6-2.1,0c-0.6,0.6-0.6,1.5,0,2.1l0,0l1.4,1.4C869,30,869.4,30.1,869.8,30.1z M863.6,23.9c0.4,0,0.7-0.1,1-0.4
					c0.6-0.6,0.6-1.5,0-2c0,0,0,0,0-0.1l-1.4-1.4c-0.6-0.6-1.5-0.6-2.1,0c-0.6,0.6-0.6,1.5,0,2.1l0,0l1.4,1.4
					C862.8,23.8,863.2,23.9,863.6,23.9z"/>
				<path class="st19" d="M321,127.3l1.9-0.1l-0.3-4.8l4.8,0.4l0.1-1.9l-5.9-0.4c-0.5-0.1-1,0.3-1.1,0.9c0,0.1,0,0.1,0,0.2
					L321,127.3z"/>
				
					<rect x="327.9" y="118.4" transform="matrix(0.7071 -0.7071 0.7071 0.7071 5.2178 270.26)" class="st19" width="1.9" height="20.8"/>
				<path class="st17" d="M82.3,27.9c-0.7,0.6-1.7,0.5-2.3-0.2c-0.5-0.6-0.5-1.5,0-2.1l1.5-1.5c0.6-0.7,1.6-0.7,2.3-0.2
					c0.7,0.6,0.7,1.6,0.2,2.3c0,0.1-0.1,0.1-0.2,0.2L82.3,27.9z"/>
				<path class="st17" d="M82.1,29.9l1.5,1.5c0.6,0.7,0.5,1.7-0.2,2.3c-0.6,0.5-1.5,0.5-2.1,0l-1.5-1.5c-0.6-0.6-0.6-1.7,0-2.3
					c0.5-0.6,1.5-0.7,2.1-0.2C82,29.8,82.1,29.8,82.1,29.9z"/>
				<path class="st17" d="M75.5,27.9L74,26.4c-0.6-0.7-0.5-1.7,0.2-2.3c0.6-0.5,1.5-0.5,2.1,0l1.5,1.5c0.6,0.6,0.6,1.7,0,2.3
					c-0.5,0.6-1.5,0.7-2.1,0.2C75.6,28,75.5,28,75.5,27.9z"/>
				<path class="st17" d="M75.7,29.9c0.7-0.6,1.7-0.5,2.3,0.2c0.5,0.6,0.5,1.5,0,2.1l-1.5,1.5c-0.6,0.7-1.6,0.7-2.3,0.2
					c-0.7-0.6-0.7-1.6-0.2-2.3c0-0.1,0.1-0.1,0.2-0.2L75.7,29.9z"/>
				<path class="st17" d="M615.4,24.6c2.2,0,3.9-1.7,3.9-3.9s-1.7-3.9-3.9-3.9l0,0c-2.2,0-3.9,1.7-3.9,3.9S613.2,24.6,615.4,24.6
					C615.4,24.6,615.4,24.6,615.4,24.6z M615.4,18.7c1.1,0,2,0.9,2,2s-0.9,2-2,2s-2-0.9-2-2C613.4,19.6,614.3,18.7,615.4,18.7z"/>
				<path class="st8" d="M300.9,201.5c0,4.1-3,7.7-7.1,7.7h-75.6c-4.2-0.1-7.5-3.5-7.5-7.7V96.9c0-4.1,3.4-7.4,7.5-7.4h75.6
					c4,0,7.2,3.3,7.1,7.3c0,0,0,0.1,0,0.1V201.5z"/>
				<rect x="217.9" y="98.2" class="st20" width="75.9" height="91.8"/>
				<path class="st21" d="M260.9,199.4c0,2.7-2.2,4.9-4.9,4.9c-2.7,0-4.9-2.2-4.9-4.9s2.2-4.9,4.9-4.9h0
					C258.7,194.5,260.9,196.7,260.9,199.4z"/>
				<path class="st17" d="M254.4,126.7h2.7v5.6h-2.7c-0.4,2.1-1.2,4.1-2.4,5.9l0,0l1.9,1.9l0,0l-4,4l0,0l-1.9-1.9l0,0
					c-1.8,1.2-3.8,2-5.9,2.4l0,0v2.7h-5.6v-2.7l0,0c-2.1-0.4-4.1-1.2-5.9-2.4l0,0l-1.9,1.9l0,0l-4-4l0,0l1.9-1.9l0,0
					c-1.2-1.8-2-3.8-2.4-5.9h-2.7v-5.6h2.7c0.4-2.1,1.2-4.1,2.4-5.9l0,0l-1.9-1.9l0,0l4-4l0,0l1.9,1.9l0,0c1.8-1.2,3.8-2,5.9-2.4
					l0,0v-2.7h5.6v2.7l0,0c2.1,0.4,4.1,1.2,5.9,2.4l0,0l1.9-1.9l0,0l4,4l0,0l-1.9,1.9l0,0C253.2,122.6,254,124.6,254.4,126.7
					L254.4,126.7z M247.7,126.6c-1.2-3.7-4.6-6.2-8.5-6.1l0,0c-5,0-9,4.1-8.9,9.1c0,0.9,0.2,1.9,0.4,2.7c1.2,3.7,4.6,6.2,8.5,6.1
					l0,0c5,0,9-4.1,8.9-9.1C248.1,128.4,248,127.5,247.7,126.6z M239.1,125.1c-2.6,0-4.7,2.1-4.7,4.7c0,2.6,2.1,4.7,4.7,4.7
					c2.6,0,4.7-2.1,4.7-4.7C243.8,127.2,241.7,125.1,239.1,125.1C239.1,125.1,239.1,125.1,239.1,125.1L239.1,125.1z"/>
				<path class="st10" d="M283.8,128.9h2v4.2h-2c-0.3,1.6-0.9,3.1-1.8,4.4l0,0l1.4,1.4l0,0l-3,3l0,0l-1.4-1.4l0,0
					c-1.3,0.9-2.8,1.5-4.4,1.8l0,0v2h-4.2v-2l0,0c-1.6-0.3-3.1-0.9-4.4-1.8l0,0l-1.4,1.4l0,0l-3-3l0,0l1.4-1.4l0,0
					c-0.9-1.3-1.5-2.8-1.8-4.4h-2v-4.2h2c0.3-1.6,0.9-3.1,1.8-4.4l0,0l-1.4-1.4l0,0l3-3l0,0l1.4,1.4l0,0c1.3-0.9,2.8-1.5,4.4-1.8
					l0,0v-2h4.2v2l0,0c1.6,0.3,3.1,0.9,4.4,1.8l0,0l1.4-1.4l0,0l3,3l0,0l-1.4,1.4l0,0C282.9,125.8,283.5,127.3,283.8,128.9z
					 M278.8,128.9c-0.9-2.7-3.4-4.5-6.3-4.5l0,0c-3.7,0-6.7,3.1-6.6,6.8c0,0.7,0.1,1.4,0.3,2c0.9,2.7,3.4,4.5,6.3,4.5l0,0
					c3.7,0,6.7-3,6.6-6.7C279.1,130.3,279,129.6,278.8,128.9z M272.5,127.7c-1.9,0-3.5,1.6-3.5,3.5s1.6,3.5,3.5,3.5s3.5-1.6,3.5-3.5
					C275.9,129.3,274.4,127.8,272.5,127.7z"/>
				<path class="st13" d="M275.7,161.7l2.8,0.4l0,0l-0.9,6l0,0l-2.8-0.4l0,0c-0.8,2.2-2,4.2-3.6,5.9l0,0l1.7,2.3l0,0l-4.9,3.6l0,0
					l-1.7-2.3l0,0c-2.1,1-4.4,1.6-6.7,1.6l0,0l-0.4,2.8l0,0l-3-0.5l-3-0.5l0,0l0.4-2.8l0,0c-2.2-0.8-4.2-2-5.9-3.6l0,0l-2.3,1.7l0,0
					l-3.6-4.9l0,0l2.3-1.7l0,0c-1-2.1-1.6-4.4-1.6-6.7l0,0l-2.8-0.4l0,0l0.9-6l0,0l2.8,0.4l0,0c0.8-2.2,2-4.2,3.6-5.9l0,0l-1.7-2.3
					l0,0l4.9-3.6l0,0l1.7,2.3l0,0c2.1-1,4.4-1.6,6.7-1.6l0,0l0.4-2.8l0,0l3,0.5l3,0.5l0,0l-0.4,2.8l0,0c2.2,0.8,4.2,2,5.9,3.6l0,0
					l2.3-1.7l0,0l3.6,4.9l0,0L274,155l0,0C275,157.1,275.6,159.4,275.7,161.7z M268.6,160.5c-0.7-4.1-3.9-7.2-8-7.9l0,0
					c-5.3-0.8-10.2,2.8-11,8.1c-0.2,1-0.1,2.1,0,3.1c0.7,4.1,3.9,7.2,8,7.8l0,0c5.2,0.8,10.2-2.7,11-8
					C268.8,162.6,268.8,161.5,268.6,160.5z M259.6,157.5c-2.7-0.4-5.3,1.5-5.7,4.2c-0.4,2.7,1.5,5.3,4.2,5.7
					c2.7,0.4,5.3-1.5,5.7-4.2c0.5-2.6-1.3-5.2-3.9-5.7C259.8,157.5,259.7,157.5,259.6,157.5z"/>
				<path class="st22" d="M208.5,299.4c-0.5-0.4-4.7-1.5-6.1-2.7c-0.8-0.8-1.3-1.9-1.4-3.1l4.7-37.1l-1.3-10.8l-17.2,2.7
					c0,0,1.2,7.9,1.2,8.5c-0.2-0.4-5.5,4.1-6.8,8c-1.5,4.6-6.6,18.7-8.5,22.3l-2.3,4.2l5.4,4c0,0,5,1.7,4.7,1.2s-3.9-3.1-4.7-4.7
					c-0.4-0.8-0.5-1.8-0.3-2.7l17.8-30.1l1.6-10.5h2.8l2.3,8.8c0,0-2.9,9.4-3,13.8s0.7,22.2,0.7,22.2l-0.7,5l6.4,1.8
					C203.7,300,209,299.8,208.5,299.4z"/>
				<path class="st23" d="M169.6,293.7c0.3-1.1,0.6-2.2,1-3.2c0.4-0.7,0.9-1.2,1.5-1.7c0,0,2,1,2.1,2.3c0.1,1.5,2,2.5,4.3,3.3
					c2.1,0.8,3.4,2.4,3.3,2.9s-8.4-2.5-8.4-2.5l-1.6-2.7l-0.7,2L169.6,293.7z"/>
				<path class="st23" d="M196.9,300.8c-0.1-1.1-0.2-2.3-0.2-3.4c0.1-0.7,0.4-1.5,0.8-2.1c0,0,2.2,0.3,2.7,1.4
					c0.6,1.4,2.7,1.6,5.2,1.6c2.3,0,4,1,4.1,1.6s-8.8,0.6-8.8,0.6l-2.4-2v2.1L196.9,300.8z"/>
				<path class="st24" d="M194.1,174.6c1.2-1.9,1.8-4.1,1.7-6.3c-0.1-3.8-10.6-6-14.1-2.4s-2.3,7.5-4.3,9.4s-7.7,1.6-6.9,7.4
					s5,6.6,2.9,9.4s-5.6,6.9-1.1,12.6s15.5-0.6,15.5-0.6l2.1-26.6L194.1,174.6z"/>
				<polygon class="st22" points="186.5,178.7 185,184 189.8,185 189.9,180.7 				"/>
				<path class="st22" d="M198.7,195.9c2.1,0.8,4.3,1.4,6.6,1.5c1.9,0.1,3.8-0.2,5.6-1v6c0,0-6.2,2.4-11.7-0.7
					C198.2,201.4,198.7,195.9,198.7,195.9z"/>
				<path class="st25" d="M187.4,176c0,0-1.7-1.3-2.3,0.2s1.5,2.4,1.5,2.4s2.3,4.4,6.9,4.4c3.8-6.2,0.8-12.8,0.8-12.8
					s-1.9,1.7-3.2,3C189.5,174.9,187.1,174.4,187.4,176z"/>
				<path class="st17" d="M197.1,190.1c-1.4-1.7-7.4-6-7.4-6L185,184c0,0-3.9,3.9-3.9,8.9s5.6,12.4,6.5,15.2
					c0.5,1.6,0.7,3.2,0.6,4.9c0,0-4.6,11.1-4.5,16.9s2.8,19,2.8,19s14.1,1.5,19.8-1.3c-0.7-0.1-4.6-31.6-5.6-34.8s-1-11.6-1-13.5
					S201.3,195.2,197.1,190.1z"/>
				<path class="st25" d="M188.6,190.3c-1.3-1.2-7.5-0.2-3.9,6.1s13.5,14.6,13.5,14.6c6.7,3.8,14.9,3.9,21.7,0.3
					c1.4,0.7,3,0.8,4.5,0.4c1.5-0.2,2.8-1.2,3.3-2.6l-5.1,0.1c0,0,1.5-1.9,0.5-2.1s-3,1.9-3,1.9s-14.2-1-16.9-2.2
					C200.4,205.8,189.9,191.6,188.6,190.3z"/>
				<path class="st12" d="M197.7,220.4l-6.1-2.1c0,0-2.7,7.6,1.3,8.7S197.7,220.4,197.7,220.4z"/>
				<path class="st3" d="M400.7,10c3.2-5.8,10.6-7.9,16.4-4.7c3.8,2.1,6.2,6.2,6.2,10.6v0.6c3.3,0.4,5.8,3.2,5.8,6.5
					c0,3.6-3,6.6-6.6,6.6h-13.2c-0.3,0-0.7,0-1-0.1c-0.4,0.1-0.8,0.1-1.2,0.1h-4.9c-5.4,0.1-9.9-4.3-10-9.7
					C392.2,14.9,395.8,10.7,400.7,10z"/>
				<path class="st26" d="M523.2,234.6h62.2c1.6,0,2.9,1.3,2.9,2.9v0v25.6c0,1.6-1.3,2.9-2.9,2.9l0,0h-3v4.2l-8.7-4.2h-50.4
					c-1.6,0-2.9-1.3-2.9-2.9c0,0,0,0,0,0v-25.6c-0.1-1.5,1-2.8,2.5-2.9C523,234.6,523.1,234.6,523.2,234.6z"/>
				<rect x="526.5" y="239.4" class="st10" width="55.1" height="5.2"/>
				<rect x="526.5" y="249.7" class="st10" width="55.1" height="5.2"/>
				<path class="st27" d="M1140.4,240.9v-0.4l4.3-0.3v0.4L1140.4,240.9z M1149,240.2v-0.4l4.3-0.3v0.4L1149,240.2z M1157.7,239.5
					v-0.4l4.3-0.3v0.4L1157.7,239.5z M1166.3,238.8v-0.4l4.3-0.3v0.4L1166.3,238.8z M1175,238.1v-0.4l4.3-0.3v0.4L1175,238.1z
					 M1183.6,237.4V237l4.3-0.3v0.4L1183.6,237.4z M1192.3,236.7v-0.4l4.3-0.3v0.4L1192.3,236.7z M1200.9,236.1v-0.4l4.3-0.3v0.4
					L1200.9,236.1z M1209.6,235.4V235l2.6-0.2v0.4L1209.6,235.4z"/>
				<path class="st27" d="M909.3,294.4L909,294l3.8-2.1l0.2,0.4L909.3,294.4z M911.3,290.7l-0.4-0.2l2.1-3.8l0.4,0.2L911.3,290.7z
					 M916.9,290.3l-0.2-0.4l3.8-2.1l0.2,0.4L916.9,290.3z M924.5,286.2l-0.2-0.4l3.8-2.1l0.2,0.4L924.5,286.2z M915.5,283.1
					l-0.4-0.2l2.1-3.8l0.4,0.2L915.5,283.1z M932.2,282.1l-0.2-0.4l3.8-2.1l0.2,0.4L932.2,282.1z M939.8,278l-0.2-0.4l3.8-2.1
					l0.2,0.4L939.8,278z M919.6,275.4l-0.4-0.2l0.9-1.6l2.5-0.7l0.1,0.4l-2.4,0.7L919.6,275.4z M947.4,273.9l-0.2-0.4l3.8-2.1
					l0.2,0.4L947.4,273.9z M926.9,272l-0.1-0.4l4.2-1.2l0.1,0.4L926.9,272z M955.1,269.7l-0.2-0.4l3.8-2.1l0.2,0.4L955.1,269.7z
					 M935.3,269.6l-0.1-0.4l4.2-1.2l0.1,0.4L935.3,269.6z M943.6,267.2l-0.1-0.4l4.2-1.2l0.1,0.4L943.6,267.2z M962.7,265.6
					l-0.2-0.4l3.8-2.1l0.2,0.4L962.7,265.6z M951.9,264.7l-0.1-0.4l4.2-1.2l0.1,0.4L951.9,264.7z M960.2,262.3l-0.1-0.4l4.2-1.2
					l0.1,0.4L960.2,262.3z M970.4,261.5l-0.2-0.4l3.8-2.1l0.2,0.4L970.4,261.5z M968.6,259.8l-0.1-0.4l4.2-1.2l0.1,0.4L968.6,259.8z
					 M978,257.4l-0.2-0.3l-0.9,0.3l-0.1-0.4l4.5-1.3L978,257.4z"/>
				<path class="st27" d="M1082.4,285l-3.6-2.5l0.2-0.4l3.6,2.5L1082.4,285z M1080.6,280.9l-1.7-4l0.4-0.2l1.7,4L1080.6,280.9z
					 M1075.2,280.1l-3.6-2.5l0.2-0.4l3.6,2.5L1075.2,280.1z M1068.1,275.1l-3.6-2.5l0.2-0.4l3.6,2.5L1068.1,275.1z M1077.3,272.9
					l-1.7-4l0.4-0.2l1.7,4L1077.3,272.9z M1061,270.2l-3.6-2.5l0.2-0.4l3.6,2.5L1061,270.2z M1053.8,265.3l-3.6-2.5l0.2-0.4l3.6,2.5
					L1053.8,265.3z M1073.9,264.9l-1.7-4l0.4-0.2l1.7,4L1073.9,264.9z M1046.7,260.4l-3.6-2.5l0.2-0.4l3.6,2.5L1046.7,260.4z
					 M1070.5,257l-1.7-4l0.4-0.2l1.7,4L1070.5,257z M1039.5,255.4l-3.6-2.5l0.2-0.4l3.6,2.5L1039.5,255.4z M1032.4,250.5l-2.8-1.9
					l1.6-0.7l0.2,0.4l-0.9,0.4l2.2,1.5L1032.4,250.5z M1067.1,249l-1.7-4l0.4-0.2l1.7,4L1067.1,249z M1035.3,246.5l-0.2-0.4l4-1.8
					l0.2,0.4L1035.3,246.5z M1043.2,242.9l-0.2-0.4l4-1.8l0.2,0.4L1043.2,242.9z M1063.8,241l-0.4-1l0.4-0.2l0.4,1L1063.8,241z
					 M1051.1,239.4l-0.2-0.4l4-1.8l0.2,0.4L1051.1,239.4z M1059,235.8l-0.2-0.4l3.8-1.7h0.2v0.4h-0.2L1059,235.8z M1106.3,234.5
					h-4.3v-0.4h4.3V234.5z M1097.6,234.5h-4.3v-0.4h4.3V234.5z M1088.9,234.4h-4.3V234h4.3V234.4z M1080.2,234.3h-4.3v-0.4h4.3
					V234.3z M1071.6,234.2h-4.3v-0.4h4.3V234.2z"/>
				<path class="st27" d="M909.6,290.9l-1.4-0.2l0.1-0.4l0.4,0.1l-1.8-2.3l0.3-0.3L909.6,290.9z M903.9,290.1l-4.3-0.6l0.1-0.4
					l4.3,0.6L903.9,290.1z M895.4,288.9l-4.3-0.6l0.1-0.4l4.3,0.6L895.4,288.9z M886.8,287.7l-4.3-0.6l0.1-0.4l4.3,0.6L886.8,287.7z
					 M878.2,286.5l-4.3-0.6l0.1-0.4l4.3,0.6L878.2,286.5z M869.6,285.2l-4.3-0.6l0.1-0.4l4.3,0.6L869.6,285.2z M904.3,284.6
					l-2.6-3.5l0.3-0.3l2.6,3.5L904.3,284.6z M868.1,281.8l-0.3-0.3l3-3.1l0.3,0.3L868.1,281.8z M899.1,277.6l-2.6-3.5l0.3-0.3
					l2.6,3.5L899.1,277.6z M874.1,275.6l-0.3-0.3l3-3.1l0.3,0.3L874.1,275.6z M893.8,270.7l-2.6-3.5l0.3-0.3l2.6,3.5L893.8,270.7z
					 M880.2,269.3l-0.3-0.3l3-3.1l0.3,0.3L880.2,269.3z M888.6,263.8l-1.4-1.8l-1.1,1.1l-0.3-0.3l1.4-1.5l1.7,2.2L888.6,263.8z"/>
				<path class="st27" d="M1039.7,292.9l-0.4-0.1l1.5-4.1l0.4,0.1L1039.7,292.9z M1043,291.5l-0.2-0.4l3.8-2l0.2,0.4L1043,291.5z
					 M1050.7,287.5l-0.2-0.4l3.8-2l0.2,0.4L1050.7,287.5z M1042.7,284.7l-0.4-0.1l1.5-4.1l0.4,0.1L1042.7,284.7z M1058.4,283.5
					l-0.2-0.4l3.8-2l0.2,0.4L1058.4,283.5z M1182.8,280.6L1182.8,280.6l-2.5-2.2l0.3-0.3l2.1,1.9l0.3-0.8l0.4,0.2l-0.4,0.9
					C1183,280.5,1183,280.6,1182.8,280.6L1182.8,280.6z M1066.1,279.5l-0.2-0.4l3.8-2l0.2,0.4L1066.1,279.5z M1045.6,276.6l-0.4-0.1
					l1.5-4.1l0.4,0.1L1045.6,276.6z M1073.8,275.5l-0.2-0.4l3.8-2l0.2,0.4L1073.8,275.5z M1177.2,275.4l-3.2-3l0.3-0.3l3.2,3
					L1177.2,275.4z M1185.1,275.3l-0.4-0.2c0.5-1.2,1.1-2.5,1.7-4l0.4,0.2C1186.2,272.8,1185.6,274.1,1185.1,275.3z M1081.5,271.5
					l-0.2-0.4l3.8-2l0.2,0.4L1081.5,271.5z M1170.9,269.4l-3.2-3l0.3-0.3l3.2,3L1170.9,269.4z M1048.6,268.4l-0.4-0.1l1.5-4.1
					l0.4,0.1L1048.6,268.4z M1089.2,267.5l-0.2-0.4l3.8-2l0.2,0.4L1089.2,267.5z M1188.5,267.3l-0.4-0.2c0.6-1.3,1.1-2.6,1.7-4
					l0.4,0.2C1189.7,264.7,1189.1,266,1188.5,267.3z M1164.5,263.5l-3.2-3l0.3-0.3l3.2,3L1164.5,263.5z M1096.9,263.5l-0.2-0.4
					l3.8-2l0.2,0.4L1096.9,263.5z M1051.5,260.3l-0.4-0.1l1.5-4.1l0.4,0.1L1051.5,260.3z M1104.6,259.5l-0.2-0.4l3.8-2l0.2,0.4
					L1104.6,259.5z M1192,259.3l-0.4-0.2c0.6-1.3,1.2-2.7,1.8-4l0.4,0.2C1193.2,256.7,1192.6,258,1192,259.3z M1158.2,257.6l-3.2-3
					l0.3-0.3l3.2,3L1158.2,257.6z M1112.3,255.5l-0.2-0.4l3.8-2l0.2,0.4L1112.3,255.5z M1054.5,252.1l-0.4-0.1l1.5-4.1l0.4,0.1
					L1054.5,252.1z M1151.8,251.7l-3.2-3l0.3-0.3l3.2,3L1151.8,251.7z M1120,251.5l-0.2-0.4l3.8-2l0.2,0.4L1120,251.5z
					 M1195.6,251.4l-0.4-0.2c0.7-1.4,1.3-2.7,1.9-3.9l0.4,0.2C1196.9,248.7,1196.3,250,1195.6,251.4L1195.6,251.4z M1138.4,249.4
					l-1.8-0.3l0.1-0.4l1.8,0.3L1138.4,249.4z M1132.3,248.3l-4.3-0.8v-0.2l-0.4,0.2l-0.2-0.4l3.8-2l0.2,0.4l-3.1,1.6l4,0.7V248.3z
					 M1123.8,246.7l-4.3-0.8l0.1-0.4l4.3,0.8L1123.8,246.7z M1145.5,245.7l-3.2-3l0.3-0.3l3.2,3L1145.5,245.7z M1115.2,245.2
					l-4.3-0.8l0.1-0.4l4.3,0.8L1115.2,245.2z M1057.4,243.9l-0.4-0.1l1.5-4.1l0.4,0.1L1057.4,243.9z M1199.6,243.7l-0.4-0.2
					c1.7-3,2.4-3.4,2.8-3.4v0.4C1201.9,240.5,1201.3,240.7,1199.6,243.7L1199.6,243.7z M1106.7,243.7l-4.3-0.8l0.1-0.4l4.3,0.8
					L1106.7,243.7z M1135.4,243.5l-0.2-0.4l3.8-2l0.2,0.4L1135.4,243.5z M1098.2,242.1l-4.3-0.8l0.1-0.4l4.3,0.8L1098.2,242.1z
					 M1089.6,240.6l-4.3-0.8l0.1-0.4l4.3,0.8L1089.6,240.6z M1081.1,239.1l-4.3-0.8l0.1-0.4l4.3,0.8L1081.1,239.1z M1072.5,237.5
					l-4.3-0.8l0.1-0.4l4.3,0.8L1072.5,237.5z M1064,236l-3.5-0.6l-0.1,0.4l-0.4-0.1l0.3-0.7l3.8,0.7L1064,236z"/>
				<path class="st27" d="M1216.4,226h-0.4l0.2-4.3h0.4L1216.4,226z M1213,225.5l-0.6-2.8l0.4-0.1l0.6,2.8L1213,225.5z
					 M1211.4,218.5l-0.9-4.2l0.4-0.1l0.9,4.2L1211.4,218.5z M1216.8,217.3h-0.4l0.2-4.3h0.4L1216.8,217.3z M1209.6,210l-0.9-4.2
					l0.4-0.1l0.9,4.2L1209.6,210z M1217.2,208.7h-0.4l0.2-4.3h0.4L1217.2,208.7z M1207.7,201.6l-0.9-4.2l0.4-0.1l0.9,4.2
					L1207.7,201.6z M1217.6,200h-0.4l0.2-4.3h0.4L1217.6,200z M1205.8,193.1l-0.9-4.2l0.4-0.1l0.9,4.2L1205.8,193.1z M1217.9,191.3
					h-0.4l0.2-4.3h0.4L1217.9,191.3z M1204,184.6l-0.9-4.2l0.4-0.1l0.9,4.2L1204,184.6z M1218.3,182.7h-0.4l0.2-4.3h0.4
					L1218.3,182.7z M1202.1,176.1l-0.9-4.2l0.4-0.1l0.9,4.2L1202.1,176.1z M1218.7,174h-0.4l0.2-4.3h0.4L1218.7,174z M1200.2,167.7
					l-0.9-4.2l0.4-0.1l0.9,4.2L1200.2,167.7z M1219.1,165.3h-0.4l0.2-4.3h0.4L1219.1,165.3z M1198.4,159.2l-0.9-4.2l0.4-0.1l0.9,4.2
					L1198.4,159.2z M1219.4,156.7h-0.4l0.2-4.3h0.4L1219.4,156.7z M1196.5,150.7l-0.9-4.2l0.4-0.1l0.9,4.2L1196.5,150.7z
					 M1219.8,148h-0.4l0.2-4.3h0.4L1219.8,148z M1194.6,142.3l-0.9-4.2l0.4-0.1l0.9,4.2L1194.6,142.3z M1220.2,139.3h-0.4l0.2-4.3
					h0.4L1220.2,139.3z M1192.8,133.8l-0.9-4.2l0.4-0.1l0.9,4.2L1192.8,133.8z M1220.6,130.7h-0.4v-0.5l-3.2-1.6l0.2-0.4l3.4,1.7
					V130.7z M1213.1,126.6l-3.9-2l0.2-0.4l3.9,2L1213.1,126.6z M1190.9,125.3l-0.9-4.2l0.4-0.1l0.9,4.2L1190.9,125.3z M1205.4,122.7
					l-3.9-2l0.2-0.4l3.9,2L1205.4,122.7z M1197.6,118.8l-3.9-2l0.2-0.4l3.9,2L1197.6,118.8z M1189,116.8l-0.7-3.2l1.7,0.9l-0.2,0.4
					l-0.9-0.5l0.5,2.3L1189,116.8z"/>
				
					<ellipse transform="matrix(0.2284 -0.9736 0.9736 0.2284 388.0308 1030.1078)" class="st28" cx="843.9" cy="270.3" rx="5.9" ry="5.9"/>
				<path class="st10" d="M844.2,274.1h-0.8c-0.2,0-0.4-0.2-0.4-0.4v-0.3c0-0.1-0.1-0.2-0.2-0.2c-0.1,0-0.2-0.1-0.4-0.2h-0.3
					l-0.2,0.2c-0.1,0.1-0.2,0.1-0.3,0.1l0,0c-0.1,0-0.2,0-0.3-0.1l-0.5-0.5c-0.2-0.1-0.2-0.4-0.1-0.5c0,0,0,0,0.1-0.1l0.2-0.2
					c0.1-0.1,0.1-0.2,0-0.3c0,0,0,0,0,0c-0.1-0.1-0.1-0.2-0.2-0.4c0-0.1-0.1-0.2-0.2-0.2h-0.3c-0.2,0-0.4-0.2-0.4-0.4v-0.8
					c0-0.2,0.2-0.4,0.4-0.4h0.4c0.1,0,0.2-0.1,0.2-0.2c0-0.1,0.1-0.2,0.2-0.4v-0.3l-0.3-0.3c-0.1-0.2-0.1-0.4,0-0.6l0.5-0.5
					c0.1-0.1,0.2-0.1,0.3-0.1l0,0c0.1,0,0.2,0,0.3,0.1l0.3,0.3c0.1,0.1,0.2,0.1,0.3,0c0,0,0,0,0,0c0.1-0.1,0.2-0.1,0.4-0.2
					c0.1,0,0.2-0.1,0.2-0.2v-0.4c0-0.2,0.2-0.4,0.4-0.4h0.8c0.2,0,0.4,0.2,0.4,0.4v0.4c0,0.1,0.1,0.2,0.2,0.2c0.1,0,0.2,0.1,0.4,0.2
					h0.3l0.3-0.3c0.1-0.2,0.4-0.2,0.5-0.1c0,0,0.1,0.1,0.1,0.1l0.5,0.6c0.1,0.2,0.1,0.4,0,0.6l-0.3,0.3c-0.1,0.1-0.1,0.2,0,0.3
					c0,0,0,0,0,0c0.1,0.1,0.1,0.2,0.2,0.4c0,0.1,0.1,0.2,0.2,0.2h0.4c0.2,0,0.4,0.2,0.4,0.4v0.8c0,0.2-0.2,0.4-0.4,0.4h-0.3
					c-0.1,0-0.2,0.1-0.2,0.2c0,0.1-0.1,0.2-0.2,0.4v0.3l0.2,0.2c0.2,0.1,0.2,0.4,0.1,0.5c0,0-0.1,0.1-0.1,0.1l-0.5,0.5
					c-0.1,0.2-0.4,0.2-0.5,0.1c0,0,0,0-0.1-0.1l-0.2-0.2c-0.1-0.1-0.2-0.1-0.3,0c0,0,0,0,0,0c-0.1,0.1-0.2,0.1-0.4,0.2
					c-0.1,0-0.2,0.1-0.2,0.2v0.3C844.6,273.9,844.4,274.1,844.2,274.1z M842.4,272.7h0.2c0.1,0.1,0.2,0.1,0.3,0.1
					c0.2,0.1,0.3,0.3,0.3,0.5v0.3c0,0.1,0.1,0.2,0.2,0.2h0.8c0.1,0,0.2-0.1,0.2-0.2v-0.3c0-0.2,0.1-0.4,0.3-0.5
					c0.1,0,0.2-0.1,0.3-0.1s0.4-0.1,0.5,0.1l0.2,0.2c0.1,0.1,0.2,0.1,0.2,0l0.5-0.5c0.1-0.1,0.1-0.2,0-0.2l-0.2-0.2
					c-0.1-0.1-0.2-0.4-0.1-0.5c0.1-0.1,0.1-0.2,0.1-0.3c0.1-0.2,0.3-0.3,0.5-0.3h0.3c0.1,0,0.2-0.1,0.2-0.2V270
					c0-0.1-0.1-0.2-0.2-0.2h-0.4c-0.2,0-0.4-0.1-0.5-0.3c0-0.1-0.1-0.2-0.1-0.3c-0.1-0.2-0.1-0.5,0.1-0.6l0.3-0.3v-0.2l-0.5-0.6
					c-0.1-0.1-0.2-0.1-0.2,0l-0.3,0.3c-0.1,0.1-0.4,0.2-0.5,0.1c-0.1-0.1-0.2-0.1-0.3-0.1c-0.2-0.1-0.3-0.3-0.3-0.5v-0.4
					c0-0.1-0.1-0.2-0.2-0.2h-0.8c-0.1,0-0.2,0.1-0.2,0.2v0.4c0,0.2-0.1,0.4-0.3,0.5c-0.1,0-0.2,0.1-0.3,0.1s-0.4,0.1-0.5-0.1
					l-0.3-0.3h-0.2L841,268v0.2l0.3,0.3c0.1,0.2,0.2,0.4,0.1,0.6c-0.1,0.1-0.1,0.2-0.1,0.3c-0.1,0.2-0.3,0.3-0.5,0.3h-0.4
					c-0.1,0-0.2,0.1-0.2,0.2v0.8c0,0.1,0.1,0.2,0.2,0.2h0.3c0.2,0,0.4,0.1,0.5,0.3c0,0.1,0.1,0.2,0.1,0.3s0.1,0.4-0.1,0.5l-0.2,0.2
					c-0.1,0.1-0.1,0.2,0,0.2l0.5,0.5h0.2l0.2-0.2C842.1,272.8,842.3,272.7,842.4,272.7z M843.8,272.3c-1.1,0-2-0.9-2-2s0.9-2,2-2
					s2,0.9,2,2S844.9,272.3,843.8,272.3C843.8,272.3,843.8,272.3,843.8,272.3L843.8,272.3z M843.8,268.6c-0.9,0-1.7,0.8-1.7,1.7
					c0,0.9,0.8,1.7,1.7,1.7c0.9,0,1.7-0.8,1.7-1.7C845.5,269.4,844.8,268.6,843.8,268.6C843.8,268.6,843.8,268.6,843.8,268.6
					L843.8,268.6z"/>
				
					<ellipse transform="matrix(0.2299 -0.9732 0.9732 0.2299 765.843 1273.9519)" class="st29" cx="1187.9" cy="153.1" rx="15.2" ry="15.2"/>
				<path class="st10" d="M1194.8,144.3c-0.1-0.1-0.2-0.1-0.3-0.1l-10.6,2c-0.2,0-0.3,0.2-0.3,0.4v10.9c-0.5-0.4-1.1-0.7-1.7-0.7
					c-1.3,0-2.4,1.1-2.4,2.4c0,1.3,1.1,2.4,2.4,2.4c1.3,0,2.4-1.1,2.4-2.4v-9.9l9.8-1.8v8c-0.5-0.4-1.1-0.7-1.7-0.7
					c-1.3,0-2.4,1.1-2.4,2.4c0,1.3,1.1,2.4,2.4,2.4c1.3,0,2.4-1.1,2.4-2.4v-12.6C1195,144.5,1194.9,144.4,1194.8,144.3L1194.8,144.3
					z M1194.2,145.1v1.6l-9.8,1.8v-1.6L1194.2,145.1z M1182,160.9c-0.9,0-1.7-0.8-1.7-1.7s0.8-1.7,1.7-1.7c0.9,0,1.7,0.8,1.7,1.7
					c0,0,0,0,0,0C1183.7,160.1,1182.9,160.9,1182,160.9z M1194.2,157.2c0,0.9-0.8,1.7-1.7,1.7c-0.9,0-1.7-0.8-1.7-1.7
					c0-0.9,0.8-1.7,1.7-1.7l0,0C1193.4,155.5,1194.2,156.2,1194.2,157.2C1194.2,157.2,1194.2,157.2,1194.2,157.2z"/>
				
					<ellipse transform="matrix(0.5283 -0.8491 0.8491 0.5283 212.6817 959.6654)" class="st30" cx="970" cy="288.4" rx="12.9" ry="12.9"/>
				<path class="st10" d="M975.7,282.7h-11.4c-0.2,0-0.3,0.1-0.3,0.3v11.4c0,0.2,0.1,0.3,0.3,0.3h11.4c0.2,0,0.3-0.1,0.3-0.3V283
					C975.9,282.9,975.8,282.7,975.7,282.7z M975.4,286.2v7.9h-10.9v-3l3.9-2.9l2.8,2.1c0.1,0.1,0.2,0.1,0.3,0c0,0,0,0,0,0
					L975.4,286.2z M975.4,285.5L975.4,285.5l-4.1,4.2l-2.7-2.1c-0.1-0.1-0.2-0.1-0.3,0c0,0,0,0,0,0l-3.8,2.8v-7.2h10.9L975.4,285.5
					L975.4,285.5z"/>
				<path class="st10" d="M966.8,286.9c0.7,0,1.2-0.5,1.2-1.2c0-0.7-0.5-1.2-1.2-1.2c0,0,0,0,0,0c-0.7,0-1.2,0.5-1.2,1.2
					C965.6,286.4,966.1,286.9,966.8,286.9C966.8,286.9,966.8,286.9,966.8,286.9z M966.1,285.7c0-0.4,0.3-0.7,0.7-0.7
					s0.7,0.3,0.7,0.7c0,0.4-0.3,0.7-0.7,0.7C966.4,286.4,966.1,286.1,966.1,285.7C966.1,285.7,966.1,285.7,966.1,285.7L966.1,285.7z
					"/>
				<circle class="st31" cx="1212.4" cy="78.5" r="9.5"/>
				<path class="st10" d="M1212.4,80.2c1.2,0,2.2-1,2.2-2.2v-3.1c0-1.2-1-2.2-2.2-2.2c-1.2,0-2.2,1-2.2,2.2l0,0V78
					C1210.2,79.2,1211.2,80.2,1212.4,80.2z M1214.1,75.4h-3.4v-0.6c0-0.9,0.8-1.7,1.7-1.7c0.9,0,1.7,0.8,1.7,1.7V75.4z M1210.7,75.9
					h3.4V78c0,0.9-0.8,1.7-1.7,1.7c-0.9,0-1.7-0.8-1.7-1.7C1210.7,78,1210.7,75.9,1210.7,75.9z"/>
				<path class="st10" d="M1216,78.1c0-0.1-0.1-0.2-0.2-0.2c-0.1,0-0.2,0.1-0.2,0.2c0,1.7-1.4,3.1-3.1,3.1c-1.7,0-3.1-1.4-3.1-3.1
					c0,0,0,0,0,0c0-0.1-0.1-0.2-0.2-0.2c-0.1,0-0.2,0.1-0.2,0.2c0,1.9,1.4,3.4,3.3,3.6v2.8h-2c-0.1,0-0.2,0.1-0.2,0.2
					c0,0.1,0.1,0.2,0.2,0.2h4.5c0.1,0,0.2-0.1,0.2-0.2c0-0.1-0.1-0.2-0.2-0.2h-2v-2.8C1214.6,81.5,1216,79.9,1216,78.1z"/>
				<circle class="st29" cx="864.7" cy="281.8" r="10.3"/>
				<path class="st10" d="M859.5,287.8c0.1,0.1,0.1,0.1,0.2,0.1c0.1,0,0.2,0,0.2-0.1l3-3.5c0.7,0.5,1.6,0.7,2.5,0.7
					c2.5,0,4.6-2.1,4.6-4.6s-2.1-4.6-4.6-4.6c-2.5,0-4.6,2.1-4.6,4.6c0,0,0,0,0,0c0,1.4,0.7,2.7,1.7,3.6l-2.9,3.5
					C859.4,287.5,859.4,287.7,859.5,287.8z M861.2,280.3c0-2.3,1.8-4.1,4.1-4.1c2.3,0,4.1,1.8,4.1,4.1c0,2.3-1.8,4.1-4.1,4.1l0,0
					C863,284.4,861.2,282.6,861.2,280.3z"/>
				
					<ellipse transform="matrix(0.9732 -0.2299 0.2299 0.9732 16.6383 272.6617)" class="st28" cx="1178.5" cy="64.9" rx="7.4" ry="7.4"/>
				<path class="st32" d="M1180,67.8c0.1-0.1,0.2-0.1,0.3-0.1l0.1,0.1V68l-0.5,0.9c0.6-0.2,1.2-0.5,1.7-1c1.6-1.6,1.6-4.1,0.1-5.7
					c-0.6-0.6-1.4-1-2.2-1.2c-0.1,0-0.1,0-0.1-0.1v-0.2c0-0.1,0.1-0.2,0.2-0.2c0.9,0.2,1.8,0.6,2.4,1.3c0.8,0.9,1.3,2,1.2,3.2
					c0,1.2-0.5,2.3-1.4,3.1c-0.5,0.4-1,0.8-1.6,1l0.8,0.2c0.1,0,0.1,0,0.1,0.1v0.2c0,0.1-0.1,0.2-0.2,0.2l0,0l-1.6-0.3
					c-0.1,0-0.1,0-0.1-0.1v-0.2L1180,67.8z"/>
				<path class="st10" d="M1175.6,61.8c0.5-0.4,1-0.8,1.6-1l-0.8-0.2c-0.1,0-0.2-0.1-0.2-0.2c0-0.1,0-0.1,0.1-0.1h0.2l1.6,0.3
					c0.1,0,0.1,0,0.1,0.1v0.1c0,0.1,0,0.2-0.1,0.2l-0.7,1.3c-0.1,0.1-0.2,0.1-0.3,0.1l-0.1-0.1v-0.2l0.5-0.9c-0.6,0.2-1.2,0.5-1.6,1
					c-0.8,0.7-1.2,1.7-1.2,2.8c0,1.1,0.4,2.1,1.1,2.9c0.6,0.6,1.4,1,2.2,1.2c0.1,0,0.1,0,0.1,0.1v0.2c0,0.1-0.1,0.2-0.2,0.2l0,0
					c-0.9-0.2-1.8-0.6-2.4-1.3c-0.8-0.9-1.3-2-1.2-3.2C1174.3,63.9,1174.7,62.7,1175.6,61.8z"/>
				<path class="st28" d="M1162.6,255.7c-1.4,0-2.6,1.2-2.6,2.6c0,1.4,1.2,2.6,2.6,2.6c1.4,0,2.6-1.2,2.6-2.6v0
					C1165.2,256.9,1164.1,255.7,1162.6,255.7C1162.6,255.7,1162.6,255.7,1162.6,255.7z"/>
				<circle class="st33" cx="1115.5" cy="254.3" r="4"/>
				<circle class="st31" cx="920.2" cy="273.4" r="3.7"/>
				<circle class="st28" cx="1003.4" cy="280.3" r="4.2"/>
				<path class="st27" d="M993,269.3c-1,0.6-1.3,1.9-0.7,2.9c0.6,1,1.9,1.3,2.9,0.7c1-0.6,1.3-1.9,0.7-2.9c0,0,0,0,0,0
					c-0.5-1-1.7-1.3-2.7-0.8C993.1,269.2,993.1,269.3,993,269.3z"/>
				<circle class="st27" cx="1168.8" cy="242.4" r="5.2"/>
				<circle class="st27" cx="1144.5" cy="137.8" r="6"/>
				<circle class="st34" cx="909.1" cy="290.6" r="7.4"/>
				<circle class="st31" cx="984" cy="90.2" r="2.6"/>
				<circle class="st34" cx="977.5" cy="81.9" r="3.3"/>
				<path class="st29" d="M969.9,90.2c0.9,0,1.7,0.8,1.7,1.7c0,0.9-0.8,1.7-1.7,1.7c-0.9,0-1.7-0.8-1.7-1.7
					C968.2,91,969,90.2,969.9,90.2z"/>
				<path class="st28" d="M994.2,229.9c-1.3,0-2.3,1-2.3,2.3c0,1.3,1,2.3,2.3,2.3c1.3,0,2.3-1,2.3-2.3c0,0,0,0,0,0
					C996.5,231,995.5,229.9,994.2,229.9C994.3,229.9,994.2,229.9,994.2,229.9z"/>
				<circle class="st29" cx="985.8" cy="224.3" r="4.5"/>
				<path class="st27" d="M978.2,229.6c-0.7,0-1.2,0.5-1.2,1.2c0,0.7,0.5,1.2,1.2,1.2c0.7,0,1.2-0.5,1.2-1.2
					C979.4,230.1,978.9,229.6,978.2,229.6z"/>
				<ellipse class="st32" cx="1220.3" cy="44.4" rx="15.9" ry="16.4"/>
				<path class="st10" d="M1225.3,39.2c-0.3,0-0.7,0-1,0.1c-0.9-1.7-2.7-2.9-4.7-2.9c-2.5,0-4.7,1.8-5.3,4.3h-0.3
					c-2.4,0.1-4.2,2-4.2,4.4c0,1.4,0.4,2.8,1.2,4c0.1,0.1,0.2,0.1,0.3,0.1h6.5c0.2,0,0.4-0.2,0.4-0.4c0-0.2-0.2-0.4-0.4-0.4h-6.3
					c-0.6-1-0.9-2.1-0.9-3.3c-0.1-1.9,1.4-3.5,3.4-3.6c0,0,0,0,0,0h0.5c0.2,0,0.4-0.1,0.5-0.3c0.3-2.3,2.3-4,4.6-4
					c1.8,0,3.4,1.1,4.1,2.7c0.1,0.2,0.3,0.3,0.5,0.2c0,0,0,0,0,0c0.4-0.1,0.7-0.2,1.1-0.2c2.6,0.1,4.7,2.2,4.6,4.8c0,0,0,0,0,0.1
					c0,1.2-0.3,2.4-0.7,3.5h-6.3c-0.2,0-0.4,0.2-0.4,0.4c0,0.2,0.2,0.4,0.4,0.4c0,0,0,0,0,0h6.5c0.1,0,0.3-0.1,0.3-0.2
					c0.6-1.3,1-2.7,1-4.1C1230.7,41.8,1228.3,39.3,1225.3,39.2z"/>
				<path class="st10" d="M1220.6,43.6c-0.1-0.1-0.2-0.2-0.3-0.2s-0.2,0.1-0.3,0.2l-1.8,2.6c-0.1,0.1-0.1,0.2-0.1,0.3
					c0,0.1,0.1,0.2,0.2,0.3s0.4,0.1,0.5-0.1l1-1.5v8.1c0,0.2,0.2,0.4,0.4,0.4s0.4-0.2,0.4-0.4v-8.1l1,1.5c0.1,0.2,0.3,0.2,0.5,0.1
					c0,0,0,0,0,0c0.1-0.1,0.1-0.2,0.2-0.3c0-0.1,0-0.2-0.1-0.3L1220.6,43.6z"/>
				<circle class="st34" cx="1143" cy="238.7" r="10"/>
				<path class="st10" d="M1143.1,238.8c-1.1,0-2.1,0.4-2.9,1.2c-0.1,0-0.1,0.1-0.1,0.2s0,0.1,0.1,0.2s0.1,0.1,0.2,0.1
					s0.1,0,0.2-0.1c0.7-0.7,1.6-1,2.5-1c0.9,0,1.8,0.4,2.5,1c0.1,0.1,0.3,0.1,0.4,0c0-0.1,0.1-0.1,0.1-0.2s0-0.1-0.1-0.2
					C1145.2,239.2,1144.2,238.8,1143.1,238.8z"/>
				<path class="st10" d="M1143.1,236.1c-1.8,0-3.4,0.7-4.7,1.9c-0.1,0-0.1,0.1-0.1,0.2s0,0.1,0.1,0.2s0.1,0.1,0.2,0.1
					s0.1,0,0.2-0.1c1.2-1.1,2.8-1.7,4.4-1.7c1.6,0,3.1,0.6,4.3,1.7c0.1,0.1,0.3,0.1,0.4,0c0-0.1,0.1-0.1,0.1-0.2s0-0.1-0.1-0.2
					C1146.6,236.8,1144.9,236.1,1143.1,236.1z"/>
				<path class="st10" d="M1149.1,235.8c-1.6-1.5-3.8-2.4-6-2.4c-2.2,0-4.4,0.9-6,2.4c-0.1,0-0.1,0.1-0.1,0.2s0,0.1,0.1,0.2
					s0.1,0.1,0.2,0.1s0.1,0,0.2-0.1c1.5-1.5,3.5-2.2,5.6-2.2c2.1,0,4.1,0.8,5.6,2.2c0.1,0.1,0.3,0.1,0.4,0c0-0.1,0.1-0.1,0.1-0.2
					S1149.1,235.9,1149.1,235.8z"/>
				<path class="st10" d="M1143.1,241.2c-0.8,0-1.4,0.6-1.4,1.4c0,0.8,0.6,1.4,1.4,1.4s1.4-0.6,1.4-1.4
					C1144.5,241.8,1143.9,241.2,1143.1,241.2z M1143.9,242.6c0,0.5-0.4,0.9-0.9,0.9s-0.9-0.4-0.9-0.9s0.4-0.9,0.9-0.9
					S1143.9,242.1,1143.9,242.6C1143.9,242.6,1143.9,242.6,1143.9,242.6L1143.9,242.6z"/>
				<circle class="st34" cx="162.5" cy="129.4" r="10"/>
				<path class="st10" d="M162.5,129.5c-1.1,0-2.1,0.4-2.9,1.2c-0.1,0-0.1,0.1-0.1,0.2s0,0.1,0.1,0.2s0.1,0.1,0.2,0.1s0.1,0,0.2-0.1
					c0.7-0.7,1.6-1,2.5-1c0.9,0,1.8,0.4,2.5,1c0.1,0.1,0.3,0.1,0.4,0c0-0.1,0.1-0.1,0.1-0.2s0-0.1-0.1-0.2
					C164.6,129.9,163.6,129.5,162.5,129.5z"/>
				<path class="st10" d="M162.5,126.8c-1.8,0-3.4,0.7-4.7,1.9c-0.1,0-0.1,0.1-0.1,0.2s0,0.1,0.1,0.2s0.1,0.1,0.2,0.1s0.1,0,0.2-0.1
					c1.2-1.1,2.8-1.7,4.4-1.7c1.6,0,3.1,0.6,4.3,1.7c0.1,0.1,0.3,0.1,0.4,0c0-0.1,0.1-0.1,0.1-0.2s0-0.1-0.1-0.2
					C166,127.5,164.3,126.8,162.5,126.8z"/>
				<path class="st10" d="M168.4,126.6c-1.6-1.5-3.8-2.4-6-2.4c-2.2,0-4.4,0.9-6,2.4c-0.1,0-0.1,0.1-0.1,0.2s0,0.1,0.1,0.2
					s0.1,0.1,0.2,0.1s0.1,0,0.2-0.1c1.5-1.5,3.5-2.2,5.6-2.2c2.1,0,4.1,0.8,5.6,2.2c0.1,0.1,0.3,0.1,0.4,0c0-0.1,0.1-0.1,0.1-0.2
					S168.5,126.6,168.4,126.6z"/>
				<path class="st10" d="M162.5,131.9c-0.8,0-1.4,0.6-1.4,1.4s0.6,1.4,1.4,1.4c0.8,0,1.4-0.6,1.4-1.4v0
					C163.9,132.5,163.3,131.9,162.5,131.9z M163.3,133.3c0,0.5-0.4,0.9-0.9,0.9s-0.9-0.4-0.9-0.9s0.4-0.9,0.9-0.9h0
					C162.9,132.5,163.3,132.8,163.3,133.3L163.3,133.3z"/>
				
					<ellipse transform="matrix(0.998 -6.383562e-02 6.383562e-02 0.998 -2.3039 64.6102)" class="st32" cx="1010" cy="68.4" rx="12.8" ry="12.8"/>
				<path class="st10" d="M1014,62.5c-1.6-0.3-3.3,0.3-4.2,1.7c-0.9-1.4-2.6-2.1-4.2-1.7c-1.7,0.4-2.9,1.9-2.8,3.7
					c-0.1,5.2,6.8,9.5,6.9,9.5h0.2c0.1,0,7-4.3,6.9-9.5C1016.9,64.5,1015.7,62.9,1014,62.5z M1016.3,66.2c0.1,4.5-5.6,8.4-6.4,8.9
					c-0.8-0.5-6.5-4.4-6.4-8.9c0-1.5,1-2.8,2.4-3.2c0.2-0.1,0.5-0.1,0.7-0.1c1.3,0,2.5,0.8,3.1,1.9c0,0.1,0.1,0.1,0.2,0.1
					s0.2,0,0.2-0.1c0.8-1.3,2.3-2.1,3.8-1.8C1015.3,63.4,1016.3,64.7,1016.3,66.2z"/>
				<circle class="st32" cx="1088.9" cy="283.2" r="21.3"/>
				<path class="st10" d="M1088.9,270.2c-7.2,0-13.1,5.9-13.1,13.1c0,7.2,5.9,13.1,13.1,13.1c7.2,0,13.1-5.9,13.1-13.1c0,0,0,0,0,0
					C1102,276.1,1096.1,270.2,1088.9,270.2z M1095.4,290.6c-1.4,2.3-3.5,3.9-6.1,4.6v-6.5C1091.5,288.8,1093.6,289.5,1095.4,290.6z
					 M1089.3,287.9v-4.2h8.2c-0.1,2.2-0.6,4.3-1.6,6.2C1093.9,288.7,1091.6,288,1089.3,287.9z M1096.1,291.1c0.4,0.3,0.8,0.6,1.2,1
					c-1.5,1.4-3.3,2.4-5.3,3C1093.7,294.1,1095.1,292.7,1096.1,291.1L1096.1,291.1z M1096.1,275.4c-1-1.6-2.4-3-4.1-3.9
					c2,0.5,3.8,1.5,5.2,3C1096.9,274.8,1096.5,275.2,1096.1,275.4L1096.1,275.4z M1097.5,282.8h-8.2v-4.2c2.3-0.1,4.6-0.8,6.6-2
					C1096.9,278.5,1097.4,280.6,1097.5,282.8L1097.5,282.8z M1089.3,277.8v-6.5c2.6,0.7,4.8,2.3,6.1,4.6
					C1093.6,277,1091.5,277.7,1089.3,277.8L1089.3,277.8z M1101.1,283.7c-0.1,2.9-1.2,5.7-3.2,7.8c-0.4-0.4-0.9-0.8-1.4-1.1
					c1.1-2.1,1.7-4.4,1.8-6.7L1101.1,283.7z M1101.1,282.8h-2.8c-0.1-2.3-0.7-4.6-1.8-6.7c0.5-0.3,0.9-0.7,1.3-1.1
					C1099.9,277.1,1101,279.9,1101.1,282.8L1101.1,282.8z M1082.3,275.9c1.4-2.3,3.5-3.9,6.1-4.6v6.5
					C1086.2,277.7,1084.2,277,1082.3,275.9L1082.3,275.9z M1088.5,278.6v4.2h-8.2c0.1-2.2,0.6-4.3,1.6-6.2
					C1083.9,277.8,1086.2,278.5,1088.5,278.6L1088.5,278.6z M1081.7,275.4c-0.4-0.3-0.8-0.6-1.2-1c1.5-1.4,3.3-2.4,5.2-2.9
					C1084,272.4,1082.7,273.8,1081.7,275.4L1081.7,275.4z M1076.7,282.8c0.1-2.9,1.2-5.7,3.2-7.8c0.4,0.4,0.8,0.8,1.3,1.1
					c-1.1,2.1-1.7,4.4-1.8,6.7L1076.7,282.8z M1081.7,291.1c1,1.6,2.4,3,4,4c-2-0.5-3.8-1.5-5.2-2.9
					C1080.8,291.8,1081.3,291.4,1081.7,291.1L1081.7,291.1z M1080.3,283.7h8.2v4.2c-2.3,0.1-4.5,0.8-6.5,2
					C1080.9,288,1080.4,285.9,1080.3,283.7L1080.3,283.7z M1088.5,288.7v6.5c-2.6-0.7-4.7-2.3-6.1-4.6
					C1084.2,289.5,1086.3,288.8,1088.5,288.7L1088.5,288.7z M1079.9,291.5c-2-2.1-3.1-4.9-3.2-7.8h2.8c0.1,2.3,0.7,4.6,1.8,6.7
					C1080.8,290.7,1080.3,291.1,1079.9,291.5L1079.9,291.5z"/>
				
					<ellipse transform="matrix(0.7855 -0.6188 0.6188 0.7855 183.8072 782.5496)" class="st32" cx="1220.9" cy="126.1" rx="16.9" ry="16.9"/>
				<path class="st10" d="M1227.9,122.3h-2v-2c-0.1-2.8-2.5-5.1-5.3-5c0,0,0,0,0,0c-2.8,0.1-5.1,2.4-5.1,5.2v2h-1.9
					c-0.2,0-0.4,0.2-0.4,0.4l0.2,11.7c0,0.2,0.2,0.4,0.4,0.4l14.3-0.3c0.2,0,0.4-0.2,0.4-0.4l-0.2-11.7
					C1228.2,122.4,1228.1,122.3,1227.9,122.3z M1227.5,123.1l0.2,10.9l-13.5,0.3l-0.2-10.9L1227.5,123.1z M1225.1,122.4l-8.8,0.2v-2
					c0-2.4,1.9-4.4,4.3-4.4c0,0,0,0,0,0c2.4,0,4.3,1.8,4.5,4.2V122.4z"/>
				<path class="st10" d="M1220.8,130.4c0.2,0,0.4-0.2,0.4-0.4l-0.1-3.6c0-0.2-0.2-0.4-0.4-0.4s-0.4,0.2-0.4,0.4l0.1,3.6
					C1220.4,130.2,1220.6,130.4,1220.8,130.4z"/>
				<circle class="st28" cx="191.2" cy="60.3" r="16.9"/>
				<path class="st10" d="M198.3,56.6h-2v-2c-0.1-2.8-2.5-5.1-5.3-5c0,0,0,0,0,0c-2.8,0.1-5.1,2.4-5.1,5.2v2H184
					c-0.2,0-0.4,0.2-0.4,0.4l0.2,11.7c0,0.2,0.2,0.4,0.4,0.4l14.3-0.3c0.2,0,0.4-0.2,0.4-0.4L198.7,57
					C198.7,56.8,198.6,56.6,198.3,56.6C198.3,56.6,198.3,56.6,198.3,56.6z M197.9,57.3l0.2,10.9l-13.5,0.3l-0.2-10.9L197.9,57.3z
					 M195.5,56.6l-8.8,0.2v-2c0-2.4,1.9-4.4,4.3-4.4c0,0,0,0,0,0c2.4,0,4.3,1.8,4.5,4.2V56.6z"/>
				<path class="st10" d="M191.2,64.6c0.2,0,0.4-0.2,0.4-0.4l-0.1-3.6c0-0.2-0.2-0.4-0.4-0.4c-0.2,0-0.4,0.2-0.4,0.4l0.1,3.6
					C190.8,64.4,191,64.6,191.2,64.6z"/>
				<circle class="st30" cx="885" cy="260.4" r="15.3"/>
				<path class="st10" d="M890.6,265c-0.8,0-1.6,0.4-2.1,1.1l-8.8-4.4c0.1-0.5,0.1-1.1,0-1.6l8.8-4.5c0.4,0.7,1.2,1.1,2,1.1
					c1.4,0,2.5-1.1,2.5-2.5s-1.1-2.5-2.5-2.5s-2.5,1.1-2.5,2.5c0,0.3,0,0.5,0.1,0.8l-8.8,4.5c-0.4-0.7-1.2-1.1-2-1.1
					c-1.4,0-2.5,1.1-2.5,2.5c0,1.4,1.1,2.5,2.5,2.5c0.8,0,1.6-0.4,2-1.1l8.8,4.4c-0.1,0.3-0.1,0.5-0.1,0.8c0,1.4,1.1,2.5,2.5,2.5
					s2.5-1.1,2.5-2.5S892,265,890.6,265L890.6,265z M888.8,254.2c0-1,0.8-1.8,1.8-1.8c1,0,1.8,0.8,1.8,1.8c0,1-0.8,1.8-1.8,1.8l0,0
					c-1,0-1.8-0.7-1.8-1.7C888.8,254.3,888.8,254.2,888.8,254.2z M879.3,261c0,1-0.8,1.8-1.8,1.8s-1.8-0.8-1.8-1.8
					c0-1,0.8-1.8,1.8-1.8l0,0C878.5,259.2,879.3,260,879.3,261C879.3,261,879.3,261,879.3,261z M889,266.7L889,266.7
					c0.5-0.9,1.5-1.2,2.4-0.8c0.9,0.5,1.2,1.5,0.8,2.4c-0.5,0.9-1.5,1.2-2.4,0.8c-0.6-0.3-1-0.9-1-1.6
					C888.8,267.2,888.9,267,889,266.7z"/>
				<circle class="st31" cx="984.2" cy="249.4" r="14.3"/>
				<path class="st10" d="M984.2,259.1c-0.3,0-0.6-0.2-0.7-0.4l-4.9-9.4c-0.9-1.9-0.7-4.2,0.4-6c1-1.8,2.9-2.9,4.9-3h0.7
					c2,0.1,3.9,1.2,4.9,3c1.1,1.8,1.2,4,0.4,6l-4.9,9.5C984.7,258.9,984.5,259.1,984.2,259.1L984.2,259.1z M983.8,240.9
					c-3.1,0.2-5.4,2.8-5.2,5.9c0,0.7,0.2,1.4,0.5,2.1l4.9,9.4c0,0.1,0.1,0.1,0.2,0.1s0.1,0,0.2-0.1l4.9-9.4c0.8-1.7,0.7-3.7-0.3-5.3
					c-0.9-1.6-2.6-2.6-4.4-2.6C984.3,240.9,984.1,240.9,983.8,240.9L983.8,240.9z"/>
				<path class="st10" d="M984.2,250.1c2,0,3.6-1.6,3.6-3.6s-1.6-3.6-3.6-3.6s-3.6,1.6-3.6,3.6v0c0,1.9,1.5,3.6,3.4,3.6
					C984.1,250.1,984.1,250.1,984.2,250.1z M984.2,243.6c1.6,0,2.9,1.3,2.9,2.9s-1.3,2.9-2.9,2.9s-2.9-1.3-2.9-2.9
					c-0.1-1.5,1.1-2.8,2.7-2.9C984,243.6,984.1,243.6,984.2,243.6z"/>
				<circle class="st32" cx="761.5" cy="273.2" r="16.8"/>
				<path class="st10" d="M751.9,267.1v12.2c0,0.2,0.2,0.4,0.4,0.4h18.4c0.2,0,0.4-0.2,0.4-0.4v-12.2c0-0.1-0.1-0.3-0.2-0.3
					s-0.3,0-0.4,0.1l-4.6,4.5l-4.1-4.5c-0.2-0.1-0.4-0.1-0.6,0l-4.1,4.5l-4.6-4.5c-0.1-0.1-0.3-0.1-0.4-0.1l0,0
					C752,266.8,751.9,266.9,751.9,267.1z M756.8,272.1c0.2,0.1,0.4,0.1,0.6,0l4.1-4.5l4.1,4.5c0.2,0.1,0.4,0.1,0.6,0l4.3-4.2v11
					h-17.7v-11L756.8,272.1z"/>
				<circle class="st32" cx="1210.3" cy="231.5" r="28.5"/>
				<path class="st10" d="M1200.1,247.7h20.3c0.3,0,0.5-0.2,0.5-0.4c0,0,0,0,0-0.1v-7c0-4.7-3.1-8.9-7.7-10.2
					c3.1-1.3,5.2-4.3,5.2-7.7c0-4.6-3.7-8.3-8.3-8.3c-4.6,0-8.3,3.7-8.3,8.3c0,3.5,2.2,6.6,5.4,7.8c-4.4,1.5-7.4,5.6-7.5,10.2v7
					C1199.6,247.4,1199.9,247.7,1200.1,247.7z M1200.6,246.6v-6.5c0-5.3,4.3-9.6,9.6-9.6c5.3,0,9.6,4.3,9.6,9.6c0,0,0,0,0,0v6.5
					H1200.6z M1210.1,229.5c-4,0-7.3-3.3-7.3-7.3s3.3-7.3,7.3-7.3c4,0,7.3,3.3,7.3,7.3C1217.4,226.2,1214.1,229.5,1210.1,229.5
					L1210.1,229.5z"/>
				<circle class="st33" cx="1182.8" cy="280.3" r="19.2"/>
				<path class="st10" d="M1193,283.5h-7.3l1.2-5.7h6.2c0.3,0,0.5-0.2,0.5-0.5s-0.2-0.5-0.5-0.5h-6l1.3-6.4c0.1-0.3-0.1-0.5-0.4-0.6
					s-0.5,0.1-0.6,0.4l-1.3,6.6h-5.5l1.3-6.4c0.1-0.3-0.1-0.5-0.4-0.6s-0.5,0.1-0.6,0.4l-1.3,6.6h-7.6c-0.3,0-0.5,0.2-0.5,0.5
					s0.2,0.5,0.5,0.5h7.4l-1.2,5.7h-6.2c-0.3,0-0.5,0.2-0.5,0.5s0.2,0.5,0.5,0.5h6l-1.3,6.4c-0.1,0.3,0.1,0.5,0.4,0.6h0.1
					c0.2,0,0.4-0.2,0.5-0.4l1.4-6.6h5.5l-1.3,6.4c-0.1,0.3,0.1,0.5,0.4,0.6h0.1c0.2,0,0.4-0.2,0.5-0.4l1.4-6.6h7.5
					c0.3,0,0.5-0.2,0.5-0.4c0,0,0,0,0-0.1C1193.4,283.7,1193.2,283.5,1193,283.5z M1179.1,283.5l1.2-5.7h5.5l-1.2,5.7H1179.1z"/>
				
					<ellipse transform="matrix(0.2299 -0.9732 0.9732 0.2299 815.5413 1249.3179)" class="st30" cx="1197.2" cy="109.3" rx="17.4" ry="17.4"/>
				<path class="st10" d="M1207.6,101h-19.4c-0.2,0-0.4,0.2-0.4,0.4v13c0,0.2,0.2,0.4,0.4,0.4h5.9l1.8,4.7c0.1,0.2,0.2,0.2,0.4,0.2
					l0,0c0.2,0,0.3-0.1,0.4-0.3l1.6-4.7h9.3c0.2,0,0.4-0.2,0.4-0.4v-13C1207.9,101.1,1207.8,101,1207.6,101z M1207.2,114h-9.2
					c-0.2,0-0.3,0.1-0.4,0.3l-1.4,3.9l-1.6-3.9c-0.1-0.2-0.2-0.2-0.4-0.2h-5.8v-12.2h18.6L1207.2,114z"/>
				<circle class="st33" cx="1060.3" cy="237.5" r="16"/>
				<path class="st35" d="M1066.1,226.9h-11.8c-0.1,0-0.3,0.1-0.3,0.2c0,0,0,0,0,0.1V248c0,0.1,0.1,0.3,0.2,0.3c0,0,0,0,0.1,0h11.8
					c0.1,0,0.3-0.1,0.3-0.2c0,0,0,0,0-0.1v-20.7C1066.4,227,1066.2,226.9,1066.1,226.9z M1065.8,247.7h-11.2v-3h11.2V247.7z
					 M1065.8,244.1h-11.2v-16.5h11.2V244.1L1065.8,244.1z"/>
				<rect x="1059" y="245.9" class="st35" width="2.5" height="0.6"/>
				<circle class="st33" cx="1064.5" cy="49.5" r="16"/>
				<path class="st35" d="M1070.3,38.9h-11.8c-0.1,0-0.3,0.1-0.3,0.2c0,0,0,0,0,0.1V60c0,0.1,0.1,0.3,0.2,0.3c0,0,0,0,0.1,0h11.8
					c0.1,0,0.3-0.1,0.3-0.2c0,0,0,0,0-0.1V39.3C1070.6,39,1070.4,38.9,1070.3,38.9z M1070,59.7h-11.2v-3h11.2V59.7z M1070,56h-11.2
					V39.5h11.2V56z"/>
				<rect x="1063.1" y="57.8" class="st35" width="2.5" height="0.6"/>
				<circle class="st32" cx="956.9" cy="120.8" r="15.7"/>
				<path class="st10" d="M965.1,114.9L965.1,114.9L965.1,114.9l-16.1-0.1v11.6c0,0.1,0.1,0.3,0.2,0.3c0,0,0,0,0.1,0h15.8
					c0.1,0,0.3-0.1,0.3-0.2c0,0,0,0,0-0.1L965.1,114.9z M949.3,115.7l7.4,6.8c0.1,0.1,0.1,0.1,0.2,0.1s0.2,0,0.2-0.1l7.4-6.8v10.5
					h-15.2C949.3,126.2,949.3,115.7,949.3,115.7z M949.8,115.3H964l-7.1,6.5L949.8,115.3z"/>
				<path class="st12" d="M958,231.9c4.2,0,8.6,1,12.8,1.4c1.3,0.1,2.6,0.2,3.9,0.4s2.8,0.7,4.2,1c1.7,0.4,3.4,0.7,5.2,0.8
					c1.4,0,2.9-0.4,4.2-0.9c3.1-1,6.2-2.1,9.3-3.3c6.1-2.4,12-5.3,17.7-8.5c11.4-6.6,22.2-14.3,32.2-22.9c3.8-3.2,7.5-6.6,11.2-10
					c29.1-27.1,62.4-99.3,63.7-102.2l-0.6-3.1c-1.3,0.8-29.9,16.4-36.6,20.1c-0.7,0.4-1.7,0.1-2.1-0.6c0,0,0,0,0-0.1
					c-1.2-2.1-2.2-4.3-3.1-6.6c-0.1-0.3,0.3,0.1,0.4-0.2s0.3-0.4,0.4-0.6c3-2.6,6.2-5,9.7-6.9c2.8-1.6,5.6-3.2,8.4-4.6
					c1.3-0.6,2.5-1.4,3.5-2.4l3.6-3.3c4.8-4.3,9.5-8.7,14.3-13c8.8-8,17.5-16,25.9-24.4c1.5-1.5,3.3-3.2,6.1-1.8
					c1.5,0.7,2.7,2,3.2,3.6c0,0.7,0.8,1.9,1,2.6c0.4,1,0.8,1.9,1.1,2.9c3.3,8.3,6.5,16.5,9.8,24.8c1.7,4.3,3.4,8.5,5.1,12.8l2.4,6
					c0.7,2,1.5,3.9,2.5,5.8c0.2,0.2,0.3,0.4,0.3,0.7c0.1,0.2,0.1,0.5,0.1,0.7c0,1.6,0,3.1-0.1,4.7c0,0.6-0.1,1.2-0.3,1.7
					c-0.2,0.6-0.7,1-1.3,1.1c-1.4,0.2-2.8-0.9-3.8-1.7s-2-1.6-3-2.5c-2.2-1.8-4.4-3.7-6.7-5.5c-3.6-3-7.2-6-10.9-8.9h-0.1
					c0,2.3-1.3,66.7-17.7,106c-3.2,7.8-6.9,15.3-11,22.7c-13.5,24.5-31.7,46-53.6,63.4c-8.3,6.6-17.3,12.4-26.7,17.4
					c-3.8,2-7.8,3.6-11.7,5.3c-1.7,0.8-4.1,2.2-5.1-0.2c-1.2-2.9-2.2-5.9-2.8-9c-0.1-0.3,0.2-0.4,0.3-0.6c0.1-0.3,0.2-0.5,0.4-0.7
					c0.9-0.9,1.7-1.9,2.4-2.9c0.9-1.2,1.5-2.5,1.9-3.9c0.3-1.7,0.4-3.4,0.4-5.1c0.2-3.7,0.2-7.3,0.2-11c0-4.3-0.2-8.6-0.4-12.9
					c-0.2-3.5,0-4.5-3.4-3.9c-12,2.1-24.2,2-36.2-0.2c-6.7-1.3-13.5-4-19.7-6.7c-2.2-0.9-4.2-2-6.1-3.4
					C961.8,242.5,958.3,234.1,958,231.9z"/>
				<path class="st17" d="M1174.6,101l-25.9-21.3l0,0c0,2.3-1.3,66.7-17.7,106c-3.2,7.8-6.9,15.4-11,22.7
					c-13.5,24.5-31.7,46-53.6,63.4c-8.3,6.6-17.3,12.4-26.7,17.4c-3.8,2-7.8,3.5-11.7,5.3c-1.6,0.7-3.8,2.3-4.7,0.3
					c-0.7-1.5,0.8-6.2,1-8c0.5-4.5,0.9-8.9,1.1-13.4c0.2-4.1,0.3-8.2,0.3-12.3c0-4.3-0.2-8.6-0.4-12.9c0-0.4,0-0.9-0.1-1.3
					c-0.1-2.4-0.4-3.1-3.3-2.6h-0.1c-33.4,5.6-64.7-8.5-63.8-13.2c0-0.2,0.1-0.4,0.2-0.5c0.8-1.3,7.2-1,8.9-1.2
					c3.3-0.5,6.5-1.1,9.7-1.8c30.6-7.1,56.4-26,79.1-47.1c29.1-27.1,62.4-99.3,63.7-102.2l0,0c-1.4,0.9-20.8,13-36.6,20.2
					c-0.9,0.6-2.2,0.4-2.8-0.5s-0.4-2.2,0.5-2.8l0,0c20.9-20.9,41.8-41.8,62.7-62.6c1.3-1.3,2.8-2.8,5.1-2.2c0.3,0.1,0.7,0.2,1,0.4
					c1.5,0.7,2.7,2,3.2,3.6c7.1,18.1,19.7,49.9,25.3,64.2c0.4,1.2-0.3,2.4-1.5,2.7C1175.9,101.5,1175.2,101.4,1174.6,101z"/>
				<path class="st17" d="M1174.6,101l-25.9-21.3l0,0c0,2.3-1.3,66.7-17.7,106c-3.2,7.8-6.9,15.4-11,22.7
					c-13.5,24.5-31.7,46-53.6,63.4c-8.3,6.6-17.3,12.4-26.7,17.4c-3.8,2-7.8,3.5-11.7,5.3c-1.6,0.7-3.8,2.3-4.7,0.3
					c-0.7-1.5,0.8-6.2,1-8c0.5-4.5,0.9-8.9,1.1-13.4c0.2-4.1,0.3-8.2,0.3-12.3c0-4.3-0.2-8.6-0.4-12.9c0-0.4,0-0.9-0.1-1.3
					c40.4-20.5,68.9-61.9,88.3-103.4c22.7-48.6,32.9-97.3,34.9-113c0.3,0.1,0.7,0.2,1,0.4c1.5,0.7,2.7,2,3.2,3.6
					c7.1,18.1,19.7,49.9,25.3,64.2c0.4,1.1-0.2,2.3-1.3,2.6C1175.9,101.6,1175.2,101.4,1174.6,101z"/>
				<g class="st36">
					<path class="st37" d="M1106.8,159.2c-2.2,5.8,1.3,12.1,1.3,18.2s-3.3,12.9-6.7,17.7c-12.7,17.4-32.2,31-52.5,38
						c-2.3,0.7-4.6,1.6-6.7,2.7c-5.8,3.4-8.4,10.2-10.7,16.5l-4.8,13.5c-0.2,0.7-0.5,1.1-1.2,1c-0.1-1.9-0.1-3.8,0-5.7
						c0-4.3-0.2-8.6-0.4-12.9c0-0.4,0-0.9-0.1-1.3c-0.1-2.4-0.4-3.1-3.3-2.6h-0.1c8.4-19,20.3-36.4,34.9-51.2l1.9-1.6
						c6-11,11.9-22,17.9-33c3-5.6,6-11.2,9.9-16.2c4-5.3,8.5-9.8,15.4-10.2c3.4-0.2,7.2,0.5,9.4,3.2c0.7,0.9,1.2,1.9,1.6,3
						c0.6,1.7,0.9,3.4,0.9,5.2c0,3.1-0.7,6.1-2.3,8.8C1109.8,154.6,1107.8,156.7,1106.8,159.2z"/>
				</g>
				<path class="st38" d="M1061,139.3c0.3-0.2,0.6-0.5,0.8-0.8c0.8-0.6,1.5-1.3,2.2-2c0.8-0.9,1.8-1.6,2.2-2.8
					c0.4-1.1,0.4-2.4,0-3.5c-0.2-0.9-0.6-1.7-1.3-2.4c-0.7-0.6-1.6-0.9-2.5-0.8c-0.4,0.1-0.8,0.3-1.1,0.5c-1.1,0.8-1.7,2-1.9,3.3
					c-0.3,1.2,0.1,2.5-0.2,3.7c-0.4,1-0.9,1.9-1.5,2.7"/>
				<path class="st39" d="M1062.9,201.3l1.4,1.5c-5.5,5.2-16.7,5-23.6,2.9c-0.3-0.1-0.9-0.3-1.7-0.6c-5.7-2.2-22.6-9-22.6-9.9
					c0.1,12.5-3.5,24.7-7,36.7c-0.8,2.7-1.9,10.2-5.7,8.2c-0.4-0.2-0.7-0.4-1-0.7c-1.6-1.4-1.8-3.7-1.9-5.8c-0.8-15.3-1-30.7-0.4-46
					c0.1-2.3,0.2-4.7,1.6-6.6c2.8-3.6,8.3-2.6,12.7-1.4c11.5,3.1,23.3,3.9,34.9,6c3.6,0.7,7.3,0.6,10.9,1.6s7.1,3.3,8,6.8
					S1066.5,201.9,1062.9,201.3z"/>
				<g class="st40">
					<path class="st41" d="M1044.1,201.5c-1.4,1.1-2.8,2.1-4.2,3c-0.6,0.4-1.3,0.4-1.9,0.2c-4.7-1.8-14-5.6-18.7-7.8
						c-1.1-0.5-2.3,0-2.8,1c-0.1,0.2-0.2,0.5-0.2,0.8c-0.5,11.3-3.7,22.3-6.9,33.1c-0.2,0.6-0.3,1.3-0.6,2.2
						c-0.3,1.1-1.4,1.8-2.6,1.5c-1.1-0.3-1.7-1.3-1.5-2.4l0.3-1.5c2.8-14,5-28.1,6.6-42.2c0.1-1.1,1.1-1.9,2.2-1.8
						c0.1,0,0.2,0,0.2,0c2.2,0.5,4.4,1.3,6.5,2.3c7.5,3.1,15.1,5.8,22.9,8c1.1,0.2,1.8,1.3,1.5,2.4
						C1044.8,200.8,1044.5,201.2,1044.1,201.5z"/>
				</g>
				<path class="st39" d="M1077.4,207.3c-2.7,3.2-6,5.8-9.7,7.8c-7.3,4.2-14.9,7.7-22.9,10.3c-6.9,2.2-9.5,7.1-12,13.4
					c-3.6,9-7.8,17.8-11.6,26.7c-2.4,5.5-6.1,12-12.2,11.9c2.1-11.8,4.7-23.5,7.4-35.2c2.3-9.9,3.2-23.5,10-31.5
					c4.4-5.2,10.6-8.7,16.6-11.9s11.7-6.9,17.5-10.2c4.2-2.4,8.7-4.9,13.5-5c8.6-0.1,9.9,8.3,8,15
					C1081.2,201.8,1079.6,204.8,1077.4,207.3z"/>
				<path class="st42" d="M1094.2,164.7c-0.1,0.7-0.3,1.4-0.5,2.1c-2.2,8.3-5,16.5-8.4,24.4c-0.7,1.5-1.5,3-2.4,4.4
					c-0.2,0.3-0.4,0.5-0.7,0.7c-0.4,0.2-0.8,0-1.3-0.1c-2.5-0.3-4.9-0.5-7.1-0.8c-2.5-0.3-4.7-0.7-6.7-1.1c-0.8-0.2-1.6-0.3-2.4-0.5
					c-11.1-2.3-15.8-5.2-17.7-6.9l-0.2-0.2c-0.4-0.4-0.8-0.9-1.1-1.4c0,0,2.3-3.9,3.4-5.7c3-4.9,5.5-10,8.1-15.1
					c1.6-3.2,3.1-6.5,4.8-9.7c1.5-3,4.7-5.8,7.1-8.2c0.7-0.7,1.5-1.4,2.4-1.9c1.5-0.6,3-1,4.6-1c1.7-0.2,3.3-0.2,5,0.1
					c0.6,0.1,1.1,0.3,1.7,0.5c2,0.6,4,1.5,5.9,2.5c2.6,1.7,4.7,4.1,5.9,7C1095.6,156,1095.2,160.1,1094.2,164.7z"/>
				<g class="st36">
					<path class="st42" d="M1094.2,164.7c-0.1,0.7-0.3,1.4-0.5,2.1c-2.2,8.3-5,16.5-8.4,24.4c-0.7,1.5-1.5,3-2.4,4.4
						c-0.2,0.3-0.4,0.5-0.7,0.7c-0.4,0.2-0.8,0-1.3-0.1c-2.5-0.3-4.9-0.5-7.1-0.8C1088.9,180.8,1085.7,173.9,1094.2,164.7z"/>
				</g>
				<path class="st42" d="M1074,154.2c0.2-0.2,0.5-0.4,0.6-0.7c0.1-0.4,0-0.7-0.1-1.1c-0.8-2.1,3.8-9,1.6-8.9
					c-8.1,0.6-15.5,5.5-21.4,10.6c2.6-3.1,4.5-6.7,5.7-10.6c0.4-1.8,1.1-3.5,2-5.1c0.9-1.6-0.4-2.2-1.6-3c-0.2-0.2-0.5-0.3-0.8-0.4
					c-1.5-0.4-4,2.1-5.1,3c-1.6,1.3-3.1,2.7-4.4,4.3c-2.6,3.1-4.6,6.7-5.9,10.5c-1.1,3.3-2.8,8.8,1.3,10.7c1.3,0.5,2.6,0.8,4,0.7
					c1.6,0,3.3-0.2,4.9-0.5c1.2-0.3,2.4-0.6,3.6-1c1-0.3,1.9-0.6,2.9-0.9c1.3-0.4,2.5-0.8,3.7-1.3c1.7-0.9,3.2-1.9,4.7-3.1
					C1071.1,156.3,1072.6,155.3,1074,154.2z"/>
				<path class="st42" d="M1091.3,148.8c0,0-0.6,3.4-0.9,4.3c-0.6,1.7-1.6,3.4-2.3,5c-0.8,1.8-1.2,3.7-1.2,5.7
					c0.3,1.3,0.6,2.6,1.1,3.8c0.4,1.4,0.8,2.7,1.2,4.1c0.8,4,0.5,8.1-0.9,11.9c-2.2,5.7-4.9,11.2-8,16.5c-0.5,0.8-0.9,1.7-1.2,2.6
					c-0.6,3,1.9,2.8,3.8,1.6c3.2-2.2,6.2-4.9,8.8-7.8c3.6-3.7,6.6-8.1,8.7-12.8c1-2.1,1.7-4.3,2-6.6
					C1104.5,157.4,1093.1,150.4,1091.3,148.8z"/>
				<path class="st38" d="M1091.3,137.9c-1.2,3.1-2.3,6.3-3.2,9.5c-1.4,4.9-8.9,2.8-7.5-2.1l0.6-2.1c0-0.1,0-0.2,0.1-0.3
					c0.4-1.3,0.8-2.6,1.3-3.9c0-0.1,0.1-0.2,0.1-0.3c0.4-1,0.7-2,1.1-3c0.8-2,2.6-3.3,4.8-2.7
					C1090.5,133.6,1092.1,135.9,1091.3,137.9z"/>
				<path class="st38" d="M1088.9,138.9c-1,1.8-2.7,3.2-4.7,3.8c-1,0.3-2,0.5-3,0.5c0-0.1,0-0.2,0.1-0.3c0.4-1.3,0.8-2.6,1.3-3.9
					c1.4,0.2,2.7,0.2,4.1,0C1087.4,138.9,1088.2,138.8,1088.9,138.9z"/>
				<path class="st43" d="M1007.7,242.8l0.3-0.3c0.5-0.8,0.7-1.8,0.6-2.8c0-1.5,0-3,0.2-4.5c0.1-0.8,0.8-2.8-0.4-2.8h-7.1
					c-0.1,0.1-0.2,0.2-0.2,0.4c-0.1,0.7-0.2,1.4-0.5,2.1c-0.4,0.6-1.6,0.9-2.3,1.1c-1,0.2-1.9,0.2-2.9,0.2c-2.4,0-4.9,0.2-7.3,0.4
					c-1,0-2.1,0.3-3,0.7c-0.9,0.5-1.3,1.7-0.8,2.6c0.1,0.3,0.4,0.5,0.6,0.7c1.8,1.4,4.5,1.6,6.7,1.8c2.4,0.2,4.9,0.4,7.4,0.5
					l4.9,0.3C1004.9,243.4,1006.6,243.6,1007.7,242.8z"/>
				<path class="st43" d="M1017.5,278l0.3-0.3c0.9-1.1,0.8-3.1,1-4.4c0.2-1.8,0.5-3.5,0.9-5.2c-2.9,0.4-5.8-0.8-8.7-0.4
					c-0.1,0.9-0.4,1.8-1,2.6c-0.5,0.6-1.2,0.9-2,1c-1,0.2-1.9,0.2-2.9,0.2c-2.4,0-4.9,0.2-7.3,0.4c-1,0-2.1,0.3-3,0.7
					c-0.9,0.5-1.3,1.7-0.8,2.6c0.1,0.3,0.4,0.5,0.6,0.7c1.8,1.4,4.5,1.6,6.7,1.8c2.4,0.2,4.9,0.4,7.4,0.5l4.9,0.3
					C1014.7,278.6,1016.5,278.8,1017.5,278z"/>
				<path class="st38" d="M1082.4,202c-0.4-0.5-0.9-0.7-1.5-0.8c-1.5-0.1-3.1,1.4-4.1,2.3c-1.2,1.1-2.1,2.5-2.6,4.1
					c-0.4,1.4-1,4.2,0.4,5.2c1.6,1.3,4.5-0.5,5.7-1.7c2.1-2,3.7-5.3,2.6-8.2C1082.8,202.6,1082.6,202.3,1082.4,202z"/>
				<path class="st44" d="M1083.4,121.9c0.4,0.8,0.5,1.7,0.3,2.6c-0.1,0.9-0.2,1.8-0.3,2.7c-0.4,1.8-1.4,3.5-2.8,4.8
					c-0.6,0.9-1.9,1.1-2.8,0.5c-0.6-0.4-0.9-1.2-0.8-2c-0.1-2.6,0.6-5.3,2-7.5c0.6-1,1.5-2,2.6-2
					C1082.3,121.1,1082.9,121.4,1083.4,121.9z"/>
				<path class="st38" d="M1085.7,122.7c-3.2-0.2-5.9,2.4-7.4,5.3c-1,2-1.5,4.2-1.2,6.4c0.2,2.2,1.4,4.3,3.2,5.6
					c2,1.3,4.5,1.6,6.8,1c1.4-0.3,2.7-0.9,3.8-1.7c0.4-0.3,0.9-0.6,1.3-0.9s0.6-0.6,0.9-0.7c0.2-0.1,0.4-0.1,0.6-0.1
					c0.6-0.1,1.1-0.3,1.6-0.6c0.4-0.2,0.7-0.5,0.8-0.9c0.1-0.3,0.1-0.5,0.2-0.8c0.1-0.9,0.1-1.8,0.3-2.8c0.4-1.1,0.3-2.4-0.3-3.4
					c-0.7-0.6-1.4-1.1-2.1-1.5c-0.8-0.6-0.9-1.6-1.5-2.4c-1.3-1.8-3.8-2.8-5.7-1.9"/>
				<path class="st44" d="M1090.6,118.6c-0.1-1.7-1.1-3.3-2.5-4.2c-1.7-1.1-3.8-1.1-5.5-0.1c-3.5,2.3-2.2,7.4,0.8,9.5
					c2.8,1.9,8.5,0.5,9.9,4.4c0.8,2-1,4.2-0.8,6.4c0.6-0.2,1.1-0.6,1.4-1.1c0.4-0.5,1-1,1.5-0.8s0.6,0.7,0.7,1.2
					c0.1,0.6,0.1,1.3-0.2,1.9c-0.3,0.6-0.8,1-1.4,1.2h-1c-1,0.1-1.9,0.7-2.3,1.6c-0.5,0.9-1.3,2.6,0.2,1.8c0.8-0.4,1.6-1,2.3-1.6
					c2.1-1.6,3.7-3.8,4.7-6.3c0.7-1.9,0.8-3.9,0.2-5.8c-0.2-0.6-0.4-1.1-0.8-1.6c-0.4-0.4-1-0.6-1.6-0.5c0-1-0.1-2-0.3-3
					c-0.2-1-0.8-1.8-1.6-2.4c-1.2-0.7-2.6-0.6-3.7,0.2L1090.6,118.6z"/>
				<path class="st45" d="M1064,125.4c-0.2,0.2-0.3,0.4-0.3,0.6c-1.1,2.7-2,5.5-2.7,8.4c-0.3,0.7-0.2,1.5,0.2,2.2
					c0.5,0.5,1.2,0.5,1.8,0.2c0.6-0.3,1-0.8,1.4-1.3c2.1-2.9,3.6-6.2,4.4-9.7"/>
				<path class="st46" d="M1076.7,125.2c-0.5,2-1.7,3.8-3.8,4.2c-0.8,0.1-1.7,0-2.5-0.2c-1.7-0.5-3.5-1.5-5-1.9
					c-1.2-0.4-2.4-0.6-3.6-0.9c-1.2-0.2-2.5-0.4-3.7-0.4c-4.9-0.3-9.9,0.2-14.8,0.3l11.3-26.7c2.3,4.4,5.2,8.5,8.4,12.2
					c0.9,1,1.9,1.9,2.9,2.8c0.6,0.6,1.3,1.1,2,1.6c1.6,1.4,3.4,2.6,5.3,3.6c0.3,0.2,0.7,0.3,1,0.5c0.6,0.3,1.2,0.7,1.7,1.2
					C1076.9,122.5,1077.2,123.9,1076.7,125.2z"/>
				<path class="st47" d="M1056,109.4c-0.2,1.6-0.6,3.2-1.1,4.7c-0.8,2.5-2,4.8-3.5,6.9c-2.9,3.9-6.6,5.9-9.7,4.9
					c-4.6-1.6-6.2-9.3-3.5-17.4s8.6-13.3,13.3-11.8C1055.1,98,1056.9,103.2,1056,109.4z"/>
				<path class="st43" d="M1054.6,109.7c0,0.2-0.1,0.4-0.1,0.7v0.3c-0.2,1-0.4,2-0.8,3c-0.5,1.3-1,2.5-1.6,3.7
					c-0.1,0.2-0.2,0.4-0.4,0.6c-0.3,0.5-0.7,1-1,1.5c-2.5,3.3-5.7,5.1-8.3,4.2c-4-1.3-5.3-8-3-14.9s7.4-11.4,11.3-10.1
					C1053.9,99.9,1055.4,104.4,1054.6,109.7z"/>
				
					<linearGradient id="SVGID_00000062178550017582005990000007216580723556843418_" gradientUnits="userSpaceOnUse" x1="1049.6523" y1="6728.4741" x2="1055.1624" y2="6730.6943" gradientTransform="matrix(1 0 0 1 0 -6615.5703)">
					<stop  offset="0" style="stop-color:#F38F1C;stop-opacity:0.97"/>
					<stop  offset="0.22" style="stop-color:#AE6D38;stop-opacity:0.97"/>
					<stop  offset="0.53" style="stop-color:#5F463F;stop-opacity:0.97"/>
					<stop  offset="0.76" style="stop-color:#35313A;stop-opacity:0.97"/>
					<stop  offset="0.86" style="stop-color:#262A36;stop-opacity:0.97"/>
				</linearGradient>
				<path style="fill:url(#SVGID_00000062178550017582005990000007216580723556843418_);" d="M1054.3,111.5v0.2
					c-0.1,0.8-0.3,1.6-0.6,2.4c-0.4,1-0.8,2-1.3,3c-0.1,0.2-0.2,0.3-0.3,0.5c-0.6,0-1.9-0.1-2.5-0.1h-0.4c-0.5,0-2.1-0.2-2.3-0.2
					c0,0,0.2,0,0.2-0.3c0-0.2,0.1-0.4,0.2-0.6l0.9-2.7c0.6-1.8,1.3-3.6,1.8-5.4c0.1-0.2,0.3-0.4,0.4-0.6
					C1050.6,107.9,1053.5,110.7,1054.3,111.5z"/>
				<path class="st17" d="M1051.1,111.6c-0.1,0.5-0.2,1.1-0.4,1.6c-0.3,0.9-0.7,1.7-1.2,2.4c-1,1.3-2.3,2-3.3,1.7
					c-1.6-0.5-2.1-3.2-1.2-5.9s2.9-4.6,4.5-4C1050.8,107.7,1051.4,109.5,1051.1,111.6z"/>
				<path class="st43" d="M1076.7,125.2c-0.5,2-1.7,3.8-3.8,4.2c-0.8,0.1-1.7,0-2.5-0.2c2.4-2.3,3.8-5.5,3.8-8.9
					c0.6,0.3,1.2,0.7,1.7,1.2C1076.9,122.5,1077.2,123.9,1076.7,125.2z"/>
				<path class="st17" d="M1081.7,166.1c-2.1,10.8-9.5,19.6-17,27.6c-11.1-2.3-15.8-5.2-17.7-6.9l0,0c5.4-6.5,10.5-13.4,15.1-20.5
					c2.2-3.4,4.3-7,7.6-9.2s8.5-2.3,10.9,1C1082.4,160.3,1082.3,163.4,1081.7,166.1z"/>
				<path class="st38" d="M1062.7,133.8c1.2-0.5,2.1-1.5,2.4-2.7c0.6-1.2,0.3-2.6-0.8-3.4c-0.4-0.3-0.9-0.5-1.4-0.5
					c-0.9,0-1.5,0.7-2.1,1.4c-0.4,0.6-0.8,1.2-1.1,1.9c-0.3,0.6-0.4,1.3-0.3,2C1060.1,133.7,1061.4,134.2,1062.7,133.8z"/>
				<path class="st49" d="M1033.1,75.7c0,0.1,0.1,0.2,0.1,0.3"/>
				<path class="st50" d="M1034.5,79.4c2.5,6.3,5.3,12.4,8.5,18.4"/>
				<path class="st49" d="M1043.8,99.5c0.1,0.1,0.1,0.2,0.2,0.3"/>
				<path class="st49" d="M997.1,84c0.1,0.1,0.2,0.2,0.3,0.2"/>
				<path class="st51" d="M1000.1,86.6c10.4,8.9,21.9,16.4,34.3,22.3"/>
				<path class="st49" d="M1036,109.7c0.1,0,0.2,0.1,0.3,0.1"/>
				<path class="st49" d="M981.2,99.7c0.1,0,0.2,0.1,0.3,0.1"/>
				<path class="st52" d="M984.6,101.2c14,5.8,35.9,10.5,50.3,12.6"/>
				<path class="st49" d="M1036.6,114.1h0.3"/>
				<path class="st49" d="M1004.4,119.4h0.3"/>
				<path class="st53" d="M1008.3,119.6c8,0.6,16.1,0.4,24.1-0.4"/>
				<path class="st49" d="M1034.1,119c0.1,0,0.2,0,0.3-0.1"/>
			</g>
		</g>
	</g>
</g>
</svg>
