<svg xmlns="http://www.w3.org/2000/svg" xmlns:xlink="http://www.w3.org/1999/xlink" viewBox="0 0 1246.9 303"><defs><style>.cls-1,.cls-35{fill:none;}.cls-18,.cls-2,.cls-27,.cls-29,.cls-30,.cls-31,.cls-32,.cls-33{isolation:isolate;}.cls-3{clip-path:url(#clip-path);}.cls-4{fill:url(#radial-gradient);}.cls-5{fill:#ebebeb;}.cls-6{fill:#9f4a21;}.cls-7{fill:#934220;}.cls-8{fill:#646fd4;}.cls-9{fill:#e2cabf;}.cls-10,.cls-29,.cls-32,.cls-33{fill:#9ba3eb;}.cls-11{fill:#242f9b;}.cls-12{fill:#d0a16d;}.cls-13{fill:#f3ece1;}.cls-14{fill:#e5bc85;}.cls-15{fill:#bb794e;}.cls-16{fill:#8692b0;}.cls-17,.cls-18{fill:#abbed4;}.cls-18,.cls-31{opacity:0.2;}.cls-19{fill:#c0d4ef;}.cls-20{fill:#873615;}.cls-21{fill:#623d35;}.cls-22{fill:#bf8557;}.cls-23{fill:#7f2b22;}.cls-24{fill:#8b633b;}.cls-25{fill:#cbb497;}.cls-26{mix-blend-mode:multiply;opacity:0.3;}.cls-27{fill:#030351;opacity:0.6;}.cls-28{fill:#fff;}.cls-29{opacity:0.5;}.cls-30{opacity:0.4;}.cls-32{opacity:0.7;}.cls-33{opacity:0.3;}.cls-34{fill:#f5f5f5;}.cls-35{stroke:#f5f5f5;stroke-linecap:round;stroke-miterlimit:10;stroke-width:4px;}</style><clipPath id="clip-path"><rect class="cls-1" width="1245" height="300"/></clipPath><radialGradient id="radial-gradient" cx="992.38" cy="55.08" r="700.62" gradientTransform="matrix(-0.76, 0.55, -0.47, -0.5, 1765.98, -761.98)" gradientUnits="userSpaceOnUse"><stop offset="0" stop-color="#73d7ff"/><stop offset="1" stop-color="#002bc6"/></radialGradient></defs><g class="cls-2"><g id="Layer_2" data-name="Layer 2"><g id="Слой_1" data-name="Слой 1"><g class="cls-3"><rect class="cls-4" width="1245" height="300"/><g id="Background_Complete" data-name="Background Complete"><rect class="cls-5" x="766.2" y="268.2" width="390.9" height="0.2"/><rect class="cls-5" x="1112.7" y="280.8" width="25.9" height="0.2"/><rect class="cls-5" x="1039.1" y="282.9" width="6.8" height="0.2"/><rect class="cls-5" x="1097" y="273.5" width="15" height="0.2"/><rect class="cls-5" x="211.3" y="274.9" width="33.8" height="0.2"/><rect class="cls-5" x="868.7" y="274.9" width="5" height="0.2"/><rect class="cls-5" x="273.1" y="278.2" width="73.2" height="0.2"/><path class="cls-5" d="M342.5,233.4H152.4c-3.1,0-5.6-1.7-5.6-3.7V51.4c0-2.1,2.5-3.7,5.6-3.7H342.5c3.1,0,5.6,1.7,5.6,3.7V229.6C348.1,231.7,345.6,233.4,342.5,233.4ZM152.4,47.8c-3,0-5.4,1.6-5.4,3.6V229.6c0,2,2.4,3.6,5.4,3.6H342.5c3,0,5.4-1.6,5.4-3.6V51.4c0-2-2.4-3.6-5.4-3.6Z"/><path class="cls-5" d="M1098.3,259.1H889.2c-3.4,0-6.2-2.1-6.2-4.8V28.3c0-2.6,2.8-4.8,6.2-4.8h209.1c3.4,0,6.2,2.1,6.2,4.8V254.4C1104.4,257,1101.7,259.1,1098.3,259.1ZM889.2,23.7c-3.3,0-5.9,2-5.9,4.5V254.3c0,2.5,2.6,4.5,5.9,4.5h209.1c3.3,0,5.9-2,5.9-4.5V28.3c0-2.5-2.6-4.5-5.9-4.5H889.2Z"/><path class="cls-6" d="M281.6,101.8s14.2-16.8,12-25c-5.9-22.6-53.3-34.2-51.5-16.9-13.8-8.9-31.9,43.3,1.1,57.7C274.4,131.4,281.6,101.8,281.6,101.8Z"/><path class="cls-7" d="M229.9,65.8c-2,11.7,9.9,16.7,16.7,12.9,7.2-4,16.7-4,24.7-3.9s9.2-4.2,9.2-4.2,3.3,9,9.2,11.6a4.12,4.12,0,0,0,3.3.4c-2.6,8.5-11.5,19.1-11.5,19.1s-9.4,27.3-38.3,15.7C220.3,107.5,222.1,79.1,229.9,65.8Z"/><path class="cls-8" d="M288.6,247.8c6.6,9,46-30.1,63.9-14.5,14.7,12.8-35.8,61-93.3,62.3-69.3,1.6-100.9-47-90.1-62.3s39.6,19.5,46.6,14.5C224.1,243.8,269.5,245.6,288.6,247.8Z"/><path class="cls-9" d="M263.7,292.2c-6.7,1.4-24.5.4-25.8.9-2.8,1.1-.9,6.5,4.9,8,3.9,1,10.2.5,20.2-4.3Z"/><path class="cls-10" d="M352.5,233.3c-18.2-14.4-45,31.9-94.5,58.1,0,0,.6,5.8,5.8,6.7,0,0,44.3-11,68-28.4C351.3,255.3,360,239.1,352.5,233.3Z"/><path class="cls-9" d="M276.4,290.6c6.7,1.3,24.5.1,25.8.6,2.8,1.1.9,6.5-4.8,8.1-3.9,1-10.2.6-20.2-4.1Z"/><path class="cls-11" d="M263.7,298.1c-5.1-1-5.8-6.7-5.8-6.7,4.7-2.5,9.3-5.2,13.6-8a58.41,58.41,0,0,0,22.9,5A305.77,305.77,0,0,1,263.7,298.1Z"/><path class="cls-10" d="M281.3,290.4a9,9,0,0,1-4.2,6.1s-37.8-3.7-69.6-18.9c-27.7-13.3-43.3-36.9-38.4-44.3,7-10.5,18.8-.6,52.1,22.4C236.2,266,281.3,290.4,281.3,290.4Z"/><path class="cls-11" d="M207.6,275c28.3,13.6,64.3,18.5,71.9,19.4a12,12,0,0,1-2.3,2.1s-37.8-3.7-69.6-18.9c-25.4-12.2-40.6-33-39.2-42.1C169.7,245.5,184.4,263.9,207.6,275Z"/><path class="cls-11" d="M290.4,249s-13.9,10.5-36.5,10.2-42.3-11.4-42.3-11.4c1.8.7,3.3.8,4.3.1,8.3-4,53.7-2.2,72.8,0A3,3,0,0,0,290.4,249Z"/><path class="cls-12" d="M276.7,145.2c-12.9,3.7,1.4,62.2,9.9,80.1,11.5,24.3,47.9,45.4,47.9,45.4l3.8-2.1s-36.4-45.5-39.8-54.5S287.4,142.2,276.7,145.2Z"/><g id="wrist_right" data-name="wrist right"><path class="cls-12" d="M332.5,264s11.6,3.4,13.2,3.9c6.1,2.1,5.6,4,5.6,4.6,0,0,2.2,3,1.8,3.5-.6.9-1.2-.1-4.3-3.1-.7-.7-2.6-2.3-2.9-2s1.5,1.5,2.7,2.5c1,.8,3.1,5.4,2.2,5.7s-2.9-3.4-3.9-4.4c-.8-.8-3-2.2-3.4-1.9s1.8,2.4,2.2,2.9,2.2,3.2,1.5,3.8-2-1.6-3.8-3.4a22.23,22.23,0,0,0-6.3-3.6c-.7,0,0,1.7,1,3s1.6,3.3.6,3.6-2.7-3.6-4.9-6.1a11.51,11.51,0,0,1-2.5-5.9S331.8,264,332.5,264Z"/></g><path class="cls-13" d="M271.8,205.4c0,15.4,5,26.9,16.8,42.4-23.1,7.9-47.5,7.2-72.8,0,7.4-24.8,24.2-40.2,24.2-43.2s-10.8-14.2-16.7-31c-6-17.2-3.4-26.2-3.4-26.2,21.7-9.7,34.4-12,59.1-1.9l.9,15s6.7,11.7,5.9,16.9C285.2,182.6,271.8,197.2,271.8,205.4Z"/><path class="cls-10" d="M278.1,145.1c-1.1,2.7-8.1,8.3-25,8.8-16.1.5-23.4-2.8-30.6-7.5C242.3,137.7,255,135.9,278.1,145.1Z"/><path class="cls-14" d="M276.2,144.4c-20.5-8.6-33.4-6.6-51.4.8,3.3,2,14.2,7.8,31.4,6.1C269.2,150.1,274.2,146.8,276.2,144.4Z"/><path class="cls-14" d="M237.7,104.9s5.9,22.1.8,37.5l15.6,2.7,9.6.1a69.13,69.13,0,0,1-3-23.9C261.4,111.7,237.7,104.9,237.7,104.9Z"/><path class="cls-15" d="M224.9,145.3a45.58,45.58,0,0,0,16,5.7c11.5-5.1,17.8-11.8,20.6-15.7a68.27,68.27,0,0,1-.8-14.1,5.29,5.29,0,0,0-.8-3.2l-9.7-8a78.07,78.07,0,0,0-12.6-5.1s5.4,20.4,1.3,35.7A92.09,92.09,0,0,0,224.9,145.3Z"/><path class="cls-9" d="M288.6,247.8c-23.1,7.9-47.5,7.2-72.8,0,7.4-24.8,24.2-40.2,24.2-43.2,0-2.7-9.1-12.5-15.1-27.1l.1-.1s20,8.6,43,6c15.9-1.8,18-6,18-6-.8,5.2-14.2,19.8-14.2,28C271.8,220.9,276.8,232.3,288.6,247.8Z"/><path class="cls-14" d="M220,147.4c-12.9,3.7,1.4,62.2,9.9,80.1,11.5,24.3,47.9,45.4,47.9,45.4l3.8-2.1s-36.4-45.5-39.8-54.5S230.7,144.3,220,147.4Z"/><path class="cls-10" d="M262.5,179.4s2.9-7.7,6.7-5.1-.3,10.1-6.4,14.1c0,0-13.5-7.4-9.1-13.1C256.6,171.6,262.5,179.4,262.5,179.4Z"/><path class="cls-8" d="M268,183.4h0a20.72,20.72,0,0,1-5.2,5,32.25,32.25,0,0,1-6.4-4.6A65.25,65.25,0,0,0,268,183.4Z"/><path class="cls-14" d="M280.9,268.6c4.5,1.1,10.3,1.7,10.7,3.6.9,4.1-5.6,6.7-8.9,5.7s-6-5.4-6-5.4S276.4,267.5,280.9,268.6Z"/><path class="cls-14" d="M300.3,277.7c.6-.4-2.3-4.2-3.2-4.8-.7-.5-1.5-1.1-8.4-2.6l2.5,3.6s4.3.3,4.9.5S298,277.8,300.3,277.7Z"/><path class="cls-14" d="M295.2,285.3c1-.1-.2-4.4-.8-5.4-.6-1.2-.5-1.7-4.7-7.5l-.7,4.2s3.3,3.7,3.6,4.3S293.7,284.7,295.2,285.3Z"/><path class="cls-14" d="M291.8,286c.9-.1-.2-4.3-.7-5.2-.6-1.1-.5-1.7-4.5-7.2l-.6,4s3.2,3.6,3.4,4.1C289.7,282.4,290.4,285.4,291.8,286Z"/><path class="cls-14" d="M287.5,284.4c.8-.1-.2-3.6-.6-4.4-.5-1-.4-1.4-3.8-6.1l-.5,3.4a41.47,41.47,0,0,1,2.9,3.5C285.7,281.3,286.3,283.9,287.5,284.4Z"/><g id="laptop"><polygon class="cls-16" points="399.3 293.8 316.2 293.8 333.7 229.4 416.7 229.4 399.3 293.8"/><rect class="cls-17" x="276.6" y="294.8" width="122.2" height="5" transform="translate(-0.36 0.41) rotate(-0.07)"/><polygon class="cls-17" points="399.3 293.7 318.2 293.8 335.3 230.7 416.4 230.6 399.3 293.7"/><path class="cls-16" d="M375.1,261.5a8.85,8.85,0,0,1-8,5.6c-3.4,0-5.3-2.5-4.3-5.6a8.85,8.85,0,0,1,8-5.6C374.2,255.9,376.1,258.4,375.1,261.5Z"/><polygon class="cls-18" points="318.2 293.8 335.3 230.7 416.4 230.6 318.2 293.8"/><rect class="cls-16" x="276.6" y="294.8" width="39.4" height="5" transform="matrix(1, 0, 0, 1, -0.32, 0.32)"/><rect class="cls-16" x="326.4" y="293.8" width="15.2" height="2.2" transform="translate(-0.37 0.42) rotate(-0.07)"/><rect class="cls-16" x="380.7" y="293.8" width="13" height="2.2" transform="translate(-0.38 0.49) rotate(-0.07)"/><polygon class="cls-19" points="335.8 231.5 416.2 231.4 416.4 230.6 335.3 230.7 318.2 293.8 319 293.8 335.8 231.5"/></g><path class="cls-6" d="M241.9,103s-7.5,9.4-3.1,30.1S253.3,165,253.3,165l-2,2.2a58.78,58.78,0,0,1-25.5-31.9c-7.1-22.2-.9-39.1-.9-39.1Z"/><path class="cls-7" d="M221.3,106.2s-10.2,11.3,4.4,29c0,0-6.7,7.7,10.9,19.9,0,0,1.4,7.9,14.7,12.1l2-2.2s-3-19.5-9.1-15.9c0,0,1-19.9-5.6-16.8,0,0,6.2-15.9-.3-23.9,0,0,3-.3,3.6-5.3L224.8,90.3A22,22,0,0,0,221.3,106.2Z"/><path class="cls-7" d="M253.3,165a7.73,7.73,0,0,1,5.6,6.5,12.17,12.17,0,0,1-2.7,9.4s1.6-2.8-1.5-5.8-3.5-7.9-3.5-7.9Z"/><path class="cls-20" d="M233.7,112.6l-4.4,8.9-6.9-7.6S229.2,117.7,233.7,112.6Z"/><path class="cls-20" d="M237,133.6l-1.5,10-7-7.3S235.3,136.9,237,133.6Z"/><path class="cls-20" d="M243.7,150.7l2.2,8.1-7.3-4.5C238.5,154.3,241.6,154.3,243.7,150.7Z"/><path class="cls-20" d="M253.3,165s-.6,2.2-2,2.2l.2,1.1a3.71,3.71,0,0,0,2.6-3Z"/><path class="cls-7" d="M287.8,91.8a19.23,19.23,0,0,0-1.7,8.1c0,4.8,2.7,14.8-5.9,20.8,0,0,2.5-2.3,4.2-10.3s-.4-9.3.4-16C285.3,89.1,287.8,91.8,287.8,91.8Z"/><path class="cls-14" d="M263.1,131.8c2.3,0,6.2-3.6,8.6-5.5,5.2-3.9,10.2-8.8,8.8-21.1,0,0,13.1-29.6-11.8-35.4s-32.2,18.7-29,38.2S261,131.8,263.1,131.8Z"/><path class="cls-12" d="M262.3,69c-18.1.9-27.5,54.5,1.1,62.8-.1,0-.2.1-.3,0-2.2,0-20.2-4.3-23.4-23.8C236.8,90.3,242.6,68.5,262.3,69Z"/><path class="cls-12" d="M233,103.1a5.38,5.38,0,1,0,6.2-4.4A5.34,5.34,0,0,0,233,103.1Z"/><path class="cls-15" d="M238.9,100.5a2.87,2.87,0,0,1,1.9,1.1,3.18,3.18,0,0,0-.9-.3,3,3,0,1,0-1,6h.7a3.08,3.08,0,0,1-1.9.3,3.5,3.5,0,0,1-2.9-4A3.65,3.65,0,0,1,238.9,100.5Z"/><path class="cls-21" d="M261.1,100.2c1.1-6.4-9.7-5-12-2.2l1.9.8C252.9,96.6,261.3,95.2,261.1,100.2Z"/><polygon class="cls-21" points="261.1 100.2 261.2 100.2 261.2 100.2 261.1 100.2"/><path class="cls-21" d="M250.7,100v-.2c-.8-.1-.1,2.2,3.8,3.2a6.85,6.85,0,0,0,4.2-.1C256,103.7,251.6,102,250.7,100Z"/><path class="cls-13" d="M261.2,100.2c.2-5.9-11.6-2.9-10.4-.2C252,102.9,261,105.3,261.2,100.2Z"/><path class="cls-21" d="M253.3,99.3a3.12,3.12,0,0,0,2.7,3.9,4,4,0,0,0,4.5-2.8,3.08,3.08,0,0,0-2.7-3.9A4.12,4.12,0,0,0,253.3,99.3Z"/><path class="cls-13" d="M271.3,101.3c1.9-5,11.1-.3,8,3.2C277,107,269.5,105.8,271.3,101.3Z"/><path class="cls-21" d="M279.1,103.2a3.77,3.77,0,0,1-4.3,2.6,3.06,3.06,0,0,1-2.5-3.9,3.77,3.77,0,0,1,4.3-2.6A3.06,3.06,0,0,1,279.1,103.2Z"/><path class="cls-21" d="M279.8,103.4l2.3-.4c-1.1-4.1-8.7-7.5-10.8-1.9h.1C273.2,96.9,280.6,100.2,279.8,103.4Z"/><path class="cls-21" d="M271,102.8c-.1.4-.1,1.9,1.9,2.7a5.58,5.58,0,0,0,4.8-.2C275.2,106.3,271.3,105.4,271,102.8Z"/><path class="cls-22" d="M273.3,93.1s-5.6,3.8-5.6,10a9.41,9.41,0,0,0,4.9,8.5s-2,4.1-5.9,3.5,3.8-3.6,3.8-3.6-4.8-4.2-4.7-8.6C266.1,96.5,273.3,93.1,273.3,93.1Z"/><path class="cls-6" d="M257.1,70.8s-7.3,1.3-10.4,10.4-2.3,19.2-4.6,19.3c-1.2,0-3.5-2.5-3.5-2.5s-4.3-31.4,14.2-31.6Z"/><path class="cls-7" d="M261.9,89.7c0,.6-2.2.1-6.6.3-4,.2-7,1.1-7,.5s2.3-2.2,7-2.5C259.8,87.8,262,88.6,261.9,89.7Z"/><path class="cls-7" d="M283.7,97.6c-.1.4-1-1.1-4-3-2.5-1.6-5.7-2.1-5.5-2.6.4-1.5,4.3-.4,6.1.9C283.7,95.2,283.9,97.1,283.7,97.6Z"/><path class="cls-23" d="M256.4,117.2c-.1.2-.7,0-.9-.1s-.2-.3-.1-.5.3-.2.5-.1S256.5,117,256.4,117.2Z"/><path class="cls-23" d="M271.9,119.5c.1.2.7.1.9,0a.38.38,0,0,0-.3-.7C272.2,118.9,271.8,119.3,271.9,119.5Z"/><path class="cls-24" d="M255.9,116.9l16.4,2.4s-3.4,4.5-8.7,3.8S255.9,116.9,255.9,116.9Z"/><path class="cls-23" d="M255.9,116.9l16.4,2.4s-3.4,4.5-8.7,3.8S255.9,116.9,255.9,116.9Z"/><path class="cls-13" d="M257.1,117.5l13.3,2s-3.2,3.9-7.5,2.9A8.57,8.57,0,0,1,257.1,117.5Z"/><path class="cls-25" d="M257.1,117.5l13.3,2-.9.9s-1.3-1-5.7-1.6a23.86,23.86,0,0,0-6.2-.3A8.92,8.92,0,0,1,257.1,117.5Z"/><path class="cls-6" d="M282.6,72.9s-1.9,4.8-9.6,5.2c-17.9.9-23.3.4-30.7,13.9,0,0-.3-16.6,10.6-23.1C259.4,65,270.3,63,282.6,72.9Z"/><path class="cls-7" d="M271.3,74.8c6.3,0,8.4-2.6,9-3.7a4.23,4.23,0,0,0,.7.5,14.83,14.83,0,0,0,1.1,2.2c-1,1.4-3.5,3.9-9.1,4.2-17.9.9-23.3.4-30.7,13.9a37.91,37.91,0,0,1,2.2-12.3,7,7,0,0,0,2-.8C253.8,74.8,263.3,74.8,271.3,74.8Z"/><path class="cls-7" d="M246.6,78.8c.4-.2.9-.4,1.4-.7a22.25,22.25,0,0,0-1.4,3.1c-3.1,9.1-2.3,19.2-4.6,19.3-1.2,0-3.5-2.5-3.5-2.5s-1.3-9.7.7-18.3A10.37,10.37,0,0,0,246.6,78.8Z"/><path class="cls-7" d="M261.8,78.8a13,13,0,0,0-13.1,8.1c-4.2,9.3-2,19.6-2.7,26.5a14.13,14.13,0,0,1-6.4,10.2,40.77,40.77,0,0,0,4.1-10.5,61,61,0,0,0,.3-20.4C241.2,82.4,249,72.8,261.8,78.8Z"/><path class="cls-12" d="M217.2,149.6c-4.4,15.5,7.9,59.6,15.3,75,9.3,19.6,34.1,39.9,43.7,47.3-7.2-4.4-36.3-23.2-46.3-44.4C222.2,211.2,209.6,161.2,217.2,149.6Z"/></g><g class="cls-26"><g id="Shadow"><ellipse id="_Path_" data-name="&lt;Path&gt;" class="cls-27" cx="980.6" cy="292.3" rx="183.5" ry="10.7"/></g></g><g id="Window_3" data-name="Window 3"><path class="cls-10" d="M1111.2,81.5V200.1l-19.7,19.7h-78a3,3,0,0,1-3-3V81.5a3,3,0,0,1,3-3h94.7A3,3,0,0,1,1111.2,81.5Z"/><path class="cls-28" d="M1111.2,86.6V200l-19.7,19.7h-78a3,3,0,0,1-3-3V86.6Z"/><path class="cls-28" d="M1108.5,82.2a1.5,1.5,0,1,1-1.5-1.5A1.47,1.47,0,0,1,1108.5,82.2Z"/><path class="cls-28" d="M1102.9,82.2a1.5,1.5,0,1,1-1.5-1.5A1.54,1.54,0,0,1,1102.9,82.2Z"/><path class="cls-28" d="M1097.3,82.2a1.5,1.5,0,1,1-1.5-1.5A1.54,1.54,0,0,1,1097.3,82.2Z"/><path class="cls-10" d="M1071.6,95.8h-54a.9.9,0,1,1,0-1.8h54a.9.9,0,0,1,.9.9C1072.6,95.3,1072.1,95.8,1071.6,95.8Z"/><path class="cls-10" d="M1056.3,100.9h-38.8a.9.9,0,1,1,0-1.8h38.8a.9.9,0,0,1,.9.9C1057.3,100.5,1056.9,100.9,1056.3,100.9Z"/><path class="cls-10" d="M1098.2,180.9h-69.1a.9.9,0,0,1,0-1.8h69.1a.9.9,0,0,1,.9.9A.84.84,0,0,1,1098.2,180.9Z"/><path class="cls-10" d="M1086.7,201.6h-69.1a.9.9,0,1,1,0-1.8h69.1a.9.9,0,0,1,.9.9A1,1,0,0,1,1086.7,201.6Z"/><path class="cls-10" d="M1098.2,186.1h-80.7a.9.9,0,1,1,0-1.8h80.7a.9.9,0,0,1,.9.9C1099.2,185.6,1098.8,186.1,1098.2,186.1Z"/><path class="cls-10" d="M1098.2,191.2h-80.7a.9.9,0,1,1,0-1.8h80.7a.9.9,0,0,1,.9.9A.84.84,0,0,1,1098.2,191.2Z"/><path class="cls-10" d="M1098.2,196.4h-80.7a.9.9,0,1,1,0-1.8h80.7a.9.9,0,0,1,.9.9C1099.2,196,1098.8,196.4,1098.2,196.4Z"/><polygon class="cls-29" points="1111.2 200 1091.4 219.7 1091.4 200 1111.2 200"/><rect class="cls-30" x="1105.6" y="86.6" width="5.6" height="113.4"/><path class="cls-10" d="M1108.4,145.9h0a2.11,2.11,0,0,1-2.1-2.1V132.2a2.11,2.11,0,0,1,2.1-2.1h0a2.11,2.11,0,0,1,2.1,2.1v11.6A2.26,2.26,0,0,1,1108.4,145.9Z"/><path class="cls-10" d="M1098.2,152.5h-69.1a.9.9,0,0,1,0-1.8h69.1a.9.9,0,0,1,.9.9C1099.2,152.1,1098.8,152.5,1098.2,152.5Z"/><path class="cls-10" d="M1086.7,173.2h-69.1a.9.9,0,1,1,0-1.8h69.1a.9.9,0,0,1,.9.9A1,1,0,0,1,1086.7,173.2Z"/><path class="cls-10" d="M1098.2,157.7h-80.7a.9.9,0,1,1,0-1.8h80.7a.9.9,0,0,1,.9.9C1099.2,157.2,1098.8,157.7,1098.2,157.7Z"/><path class="cls-10" d="M1098.2,162.8h-80.7a.9.9,0,1,1,0-1.8h80.7a.9.9,0,0,1,.9.9C1099.2,162.4,1098.8,162.8,1098.2,162.8Z"/><path class="cls-10" d="M1098.2,168h-80.7a.9.9,0,1,1,0-1.8h80.7a.9.9,0,0,1,.9.9C1099.2,167.6,1098.8,168,1098.2,168Z"/><rect class="cls-10" x="1017.3" y="107.1" width="80.9" height="30.2"/><polygon class="cls-31" points="1017.3 132.5 1019.5 132.5 1019.5 127 1022.1 127 1022.1 116.1 1025.6 116.1 1025.6 122.8 1030.5 122.8 1030.5 131.7 1036.3 131.7 1036.3 125.5 1041.1 125.5 1044.2 122.3 1044.2 115 1046.2 115 1046.2 125.5 1051.1 125.5 1051.1 129.2 1056.1 129.2 1056.1 110.1 1057.5 108.7 1057.5 114 1060.8 114 1060.8 116.3 1063.8 119.4 1063.8 125 1068.3 125 1068.3 120.6 1079.9 120.6 1079.9 117.3 1082.5 117.3 1082.5 111.5 1083.5 111.5 1083.5 120.6 1084.9 120.6 1088.3 117.2 1091.4 117.2 1091.4 114.2 1093 114.2 1093 117.3 1095.1 117.3 1095.1 129.8 1097.3 129.8 1097.3 123.5 1098.2 123.6 1098.2 107.1 1017.3 107.1 1017.3 132.5"/><path class="cls-10" d="M1098.2,142.1h-21.8a.9.9,0,0,1,0-1.8h21.8a.9.9,0,0,1,.9.9A.84.84,0,0,1,1098.2,142.1Z"/><path class="cls-31" d="M1049.4,78.4v98l-14.9,14.9h-24.1V81.5a3,3,0,0,1,3-3l36-.1Z"/><path class="cls-28" d="M1108.4,145.9h0a2.11,2.11,0,0,1-2.1-2.1V132.2a2.11,2.11,0,0,1,2.1-2.1h0a2.11,2.11,0,0,1,2.1,2.1v11.6A2.26,2.26,0,0,1,1108.4,145.9Z"/></g><g id="Window_1" data-name="Window 1"><path class="cls-10" d="M991.7,96.2V214.8L972,234.5H894a3,3,0,0,1-3-3V96.2a3,3,0,0,1,3-3h94.7A3,3,0,0,1,991.7,96.2Z"/><path class="cls-28" d="M991.7,101.4V214.8L972,234.5H894a3,3,0,0,1-3-3V101.4Z"/><path class="cls-28" d="M989,97a1.5,1.5,0,1,1-1.5-1.5A1.42,1.42,0,0,1,989,97Z"/><path class="cls-28" d="M983.4,97a1.5,1.5,0,1,1-1.5-1.5A1.42,1.42,0,0,1,983.4,97Z"/><path class="cls-28" d="M977.8,97a1.5,1.5,0,1,1-1.5-1.5A1.42,1.42,0,0,1,977.8,97Z"/><path class="cls-10" d="M914.9,111.1H898.1a.9.9,0,1,1,0-1.8h16.8a.9.9,0,0,1,.9.9A1,1,0,0,1,914.9,111.1Z"/><path class="cls-10" d="M922.8,116.2H898.1a.9.9,0,1,1,0-1.8h24.7a.9.9,0,1,1,0,1.8Z"/><path class="cls-10" d="M915.2,121.4H898.1a.9.9,0,1,1,0-1.8h17.1a.9.9,0,0,1,0,1.8Z"/><path class="cls-10" d="M978.8,206.1H909.7a.9.9,0,0,1,0-1.8h69.1a.9.9,0,0,1,0,1.8Z"/><path class="cls-10" d="M940.9,211.2H898.1a.9.9,0,1,1,0-1.8h42.8a.9.9,0,0,1,0,1.8Z"/><polygon class="cls-29" points="991.7 214.8 971.9 234.5 971.9 214.8 991.7 214.8"/><rect class="cls-30" x="986.1" y="101.4" width="5.6" height="113.4"/><path class="cls-10" d="M988.9,207h0a2.11,2.11,0,0,1-2.1-2.1V193.3a2.11,2.11,0,0,1,2.1-2.1h0a2.11,2.11,0,0,1,2.1,2.1v11.6A2.18,2.18,0,0,1,988.9,207Z"/><path class="cls-10" d="M978.8,111.1h-13a.9.9,0,1,1,0-1.8h13a.9.9,0,0,1,.9.9A1,1,0,0,1,978.8,111.1Z"/><path class="cls-10" d="M978.8,116.2H972a.9.9,0,1,1,0-1.8h6.7a.9.9,0,0,1,.9.9A.77.77,0,0,1,978.8,116.2Z"/><path class="cls-10" d="M978.8,135.1H909.7a.9.9,0,0,1,0-1.8h69.1a.9.9,0,0,1,0,1.8Z"/><path class="cls-10" d="M978.8,140.3H898.1a.9.9,0,1,1,0-1.8h80.7a.9.9,0,0,1,.9.9A1,1,0,0,1,978.8,140.3Z"/><path class="cls-10" d="M931.4,145.4H898.1a.9.9,0,1,1,0-1.8h33.3a.9.9,0,0,1,.9.9C932.4,145,932,145.4,931.4,145.4Z"/><rect class="cls-32" x="911.5" y="152.3" width="31.8" height="8.5"/><rect class="cls-33" x="911.5" y="162.7" width="14.4" height="31.4"/><rect class="cls-33" x="945.1" y="162.7" width="16.5" height="31.4"/><rect class="cls-32" x="945.1" y="152.3" width="33.6" height="8.5"/><rect class="cls-33" x="963.6" y="162.7" width="15.2" height="31.4"/><rect class="cls-29" x="898.1" y="162.7" width="11.5" height="31.4"/><rect class="cls-10" x="898.1" y="152.3" width="11.5" height="8.5"/><rect class="cls-33" x="927.8" y="162.7" width="15.5" height="31.4"/><path class="cls-28" d="M988.9,207h0a2.11,2.11,0,0,1-2.1-2.1V193.3a2.11,2.11,0,0,1,2.1-2.1h0a2.11,2.11,0,0,1,2.1,2.1v11.6A2.18,2.18,0,0,1,988.9,207Z"/><path class="cls-31" d="M991.7,96.2v98.6H934.6a3,3,0,0,1-3-3V93.2h57.1A3,3,0,0,1,991.7,96.2Z"/></g><g id="Window_2" data-name="Window 2"><path class="cls-10" d="M1041.8,42.5V161.1l-19.7,19.7h-78a3,3,0,0,1-3-3V42.5a3,3,0,0,1,3-3h94.7A3,3,0,0,1,1041.8,42.5Z"/><path class="cls-28" d="M1041.8,47.7V161.1l-19.7,19.7h-78a3,3,0,0,1-3-3V47.7Z"/><circle class="cls-28" cx="1037.7" cy="43.2" r="1.5"/><circle class="cls-28" cx="1032.1" cy="43.2" r="1.5"/><path class="cls-28" d="M1027.9,43.2a1.5,1.5,0,1,1-1.5-1.5A1.47,1.47,0,0,1,1027.9,43.2Z"/><path class="cls-10" d="M998.2,57.3H978.9a.9.9,0,1,1,0-1.8h19.3a.9.9,0,0,1,0,1.8Z"/><path class="cls-10" d="M1006.1,62.5H971a.9.9,0,1,1,0-1.8h35.1a.9.9,0,0,1,.9.9C1007.1,62.1,1006.6,62.5,1006.1,62.5Z"/><path class="cls-10" d="M998.5,67.6H978.7a.9.9,0,0,1,0-1.8h19.8a.9.9,0,0,1,0,1.8Z"/><path class="cls-10" d="M1028.9,81.3H959.8a.9.9,0,1,1,0-1.8h69.1a.9.9,0,1,1,0,1.8Z"/><path class="cls-10" d="M1017.3,102H948.2a.9.9,0,0,1,0-1.8h69.1a.9.9,0,0,1,.9.9C1018.3,101.6,1017.9,102,1017.3,102Z"/><path class="cls-10" d="M1028.9,86.5H948.2a.9.9,0,0,1,0-1.8h80.7a.9.9,0,1,1,0,1.8Z"/><path class="cls-10" d="M1028.9,91.7H948.2a.9.9,0,0,1,0-1.8h80.7a.9.9,0,1,1,0,1.8Z"/><path class="cls-10" d="M1028.9,96.9H948.2a.9.9,0,0,1,0-1.8h80.7a.9.9,0,0,1,.9.9A1,1,0,0,1,1028.9,96.9Z"/><path class="cls-10" d="M1028.9,133.4H959.8a.9.9,0,1,1,0-1.8h69.1a.9.9,0,1,1,0,1.8Z"/><path class="cls-10" d="M1017.3,154.1H948.2a.9.9,0,0,1,0-1.8h69.1a.9.9,0,0,1,.9.9C1018.3,153.7,1017.9,154.1,1017.3,154.1Z"/><path class="cls-10" d="M1028.9,138.6H948.2a.9.9,0,0,1,0-1.8h80.7a.9.9,0,1,1,0,1.8Z"/><path class="cls-10" d="M1028.9,143.7H948.2a.9.9,0,1,1,0-1.8h80.7a.9.9,0,1,1,0,1.8Z"/><path class="cls-10" d="M1028.9,148.9H948.2a.9.9,0,0,1,0-1.8h80.7a.9.9,0,1,1,0,1.8Z"/><rect class="cls-10" x="1019.2" y="55.2" width="9.7" height="12.9"/><circle class="cls-10" cx="953.6" cy="60.6" r="5.4"/><path class="cls-10" d="M947.9,108.8a1.1,1.1,0,1,0,1.1-1.1A1.11,1.11,0,0,0,947.9,108.8Z"/><path class="cls-10" d="M947.9,114a1.1,1.1,0,1,0,1.1-1.1A1,1,0,0,0,947.9,114Z"/><path class="cls-10" d="M947.9,119.1A1.1,1.1,0,1,0,949,118,1.11,1.11,0,0,0,947.9,119.1Z"/><path class="cls-10" d="M947.9,124.3a1.1,1.1,0,1,0,1.1-1.1A1.11,1.11,0,0,0,947.9,124.3Z"/><path class="cls-10" d="M965.3,109.7H953a.9.9,0,1,1,0-1.8h12.3a.9.9,0,1,1,0,1.8Z"/><path class="cls-10" d="M976.8,114.9H953a.9.9,0,1,1,0-1.8h23.9a.9.9,0,0,1,.9.9A1,1,0,0,1,976.8,114.9Z"/><path class="cls-10" d="M962.6,120.1H953a.9.9,0,1,1,0-1.8h9.7a.9.9,0,0,1,.9.9A.92.92,0,0,1,962.6,120.1Z"/><path class="cls-10" d="M973,125.2H953a.9.9,0,1,1,0-1.8h20a.9.9,0,0,1,.9.9C974,124.8,973.6,125.2,973,125.2Z"/><polygon class="cls-29" points="1041.8 161 1022.1 180.8 1022.1 161 1041.8 161"/><polygon class="cls-31" points="1028.9 55.2 1019.2 68.1 1028.9 68.1 1028.9 55.2"/><rect class="cls-31" x="950.5" y="57.5" width="6.3" height="6.3"/><rect class="cls-30" x="1036.2" y="47.7" width="5.6" height="113.4"/><path class="cls-10" d="M1039,69h0a2.11,2.11,0,0,1-2.1-2.1V55.4a2.11,2.11,0,0,1,2.1-2.1h0a2.11,2.11,0,0,1,2.1,2.1V67A2,2,0,0,1,1039,69Z"/><path class="cls-28" d="M1039,69h0a2.11,2.11,0,0,1-2.1-2.1V55.4a2.11,2.11,0,0,1,2.1-2.1h0a2.11,2.11,0,0,1,2.1,2.1V67A2,2,0,0,1,1039,69Z"/></g><g id="Speech_bubble" data-name="Speech bubble"><path class="cls-10" d="M1190.2,93.8h-33a4.8,4.8,0,0,0-4.8,4.8v32.1a4.8,4.8,0,0,0,4.8,4.8h13.4l-1.4,9.7,6.6-9.7h14.4a4.8,4.8,0,0,0,4.8-4.8V98.6A4.87,4.87,0,0,0,1190.2,93.8Z"/><path class="cls-28" d="M1190.2,93.8h-33a4.8,4.8,0,0,0-4.8,4.8v32.1a4.8,4.8,0,0,0,4.8,4.8h13.4l-1.4,9.7,6.6-9.7h14.4a4.8,4.8,0,0,0,4.8-4.8V98.6A4.87,4.87,0,0,0,1190.2,93.8Z"/><path class="cls-34" d="M1176.4,108v2.6l-1.3.1a6.43,6.43,0,0,1-1,2.4l.8,1-1.8,1.8-1-.8a6.43,6.43,0,0,1-2.4,1l-.1,1.3H1167l-.1-1.3a6.43,6.43,0,0,1-2.4-1l-1,.8-1.8-1.8.8-1a6.43,6.43,0,0,1-1-2.4l-1.3-.1V108l1.3-.1a6.43,6.43,0,0,1,1-2.4l-.8-1,1.8-1.8,1,.8a6.43,6.43,0,0,1,2.4-1l.1-1.3h2.6l.1,1.3a6.43,6.43,0,0,1,2.4,1l1-.8,1.8,1.8-.8,1a6.43,6.43,0,0,1,1,2.4Zm-8.1-2.2a3.5,3.5,0,1,0,3.5,3.5A3.54,3.54,0,0,0,1168.3,105.8Z"/><path class="cls-34" d="M1174.7,126.7a4.55,4.55,0,0,1-1.9-.8l-.8.7-1.4-1.4.7-.8a6.39,6.39,0,0,1-.8-1.9l-1-.1v-2l1-.1a4.55,4.55,0,0,1,.8-1.9l-.7-.8,1.4-1.4.8.7a6.39,6.39,0,0,1,1.9-.8l.1-1h2l.1,1a4.55,4.55,0,0,1,1.9.8l.8-.7,1.4,1.4-.7.8a6.39,6.39,0,0,1,.8,1.9l1,.1v2l-1,.1a4.55,4.55,0,0,1-.8,1.9l.7.8-1.4,1.4-.8-.7a6.39,6.39,0,0,1-1.9.8l-.1,1h-2Zm3.8-5.3a2.7,2.7,0,1,0-2.7,2.7A2.69,2.69,0,0,0,1178.5,121.4Z"/><path class="cls-34" d="M1179.9,115.4l-.6.7-1.4-1,.4-.8a4.19,4.19,0,0,1-.9-1.4l-.9.1-.3-1.7.8-.2a5.08,5.08,0,0,1,.3-1.7l-.7-.6,1-1.4.8.4a4.19,4.19,0,0,1,1.4-.9l-.1-.9,1.7-.3.2.8a5.08,5.08,0,0,1,1.7.3l.6-.7,1.4,1-.4.8a4.19,4.19,0,0,1,.9,1.4l.9-.1.3,1.7-.8.2a5.08,5.08,0,0,1-.3,1.7l.7.6-1,1.4-.8-.4a4.19,4.19,0,0,1-1.4.9l.1.9-1.7.3-.2-.8A5.08,5.08,0,0,1,1179.9,115.4Zm4-4.7a2.29,2.29,0,1,0-1.8,2.7A2.24,2.24,0,0,0,1183.9,110.7Z"/><path class="cls-34" d="M395.3,45v5.8l-3,.3a16.17,16.17,0,0,1-2.2,5.4l1.9,2.3-4.1,4.1L385.6,61a14.33,14.33,0,0,1-5.4,2.2l-.3,3H374l-.3-3a16.17,16.17,0,0,1-5.4-2.2L366,62.9l-4.1-4.1,1.9-2.3a14.33,14.33,0,0,1-2.2-5.4l-3-.3V45l3-.3a16.17,16.17,0,0,1,2.2-5.4L361.9,37l4.1-4.1,2.3,1.9a14.33,14.33,0,0,1,5.4-2.2l.3-3h5.8l.3,3a16.17,16.17,0,0,1,5.4,2.2l2.3-1.9,4.1,4.1L390,39.3a14.33,14.33,0,0,1,2.2,5.4Zm-18.4-5a7.9,7.9,0,1,0,7.9,7.9A7.85,7.85,0,0,0,376.9,40Z"/><path class="cls-34" d="M1246.9,184.1v8.7l-4.5.4a24.6,24.6,0,0,1-3.3,8l2.9,3.5-6.1,6.1-3.5-2.9a22.59,22.59,0,0,1-8,3.3l-.4,4.5h-8.7l-.4-4.5a24.6,24.6,0,0,1-8-3.3l-3.5,2.9-6.1-6.1,2.9-3.5a22.59,22.59,0,0,1-3.3-8l-4.5-.4v-8.7l4.5-.4a24.6,24.6,0,0,1,3.3-8l-2.9-3.5,6.1-6.1,3.5,2.9a22.59,22.59,0,0,1,8-3.3l.4-4.5h8.7l.4,4.5a24.6,24.6,0,0,1,8,3.3l3.5-2.9,6.1,6.1-2.9,3.5a22.59,22.59,0,0,1,3.3,8Zm-27.3-7.4a11.7,11.7,0,1,0,11.7,11.7A11.71,11.71,0,0,0,1219.6,176.7Z"/><path class="cls-34" d="M106.5,258.9v5l-2.6.2a12.47,12.47,0,0,1-1.9,4.6l1.6,2-3.5,3.5-2-1.6a12.47,12.47,0,0,1-4.6,1.9l-.2,2.6h-5l-.2-2.6a12.47,12.47,0,0,1-4.6-1.9l-2,1.6L78,270.7l1.6-2a12.47,12.47,0,0,1-1.9-4.6l-2.6-.2v-5l2.6-.2a12.47,12.47,0,0,1,1.9-4.6l-1.6-2,3.5-3.5,2,1.6a12.47,12.47,0,0,1,4.6-1.9l.2-2.6h5l.2,2.6a12.47,12.47,0,0,1,4.6,1.9l2-1.6,3.5,3.5-1.6,2a12.47,12.47,0,0,1,1.9,4.6Zm-15.6-4.2a6.7,6.7,0,1,0,6.7,6.7A6.7,6.7,0,0,0,90.9,254.7Z"/><path class="cls-34" d="M793.3,279.3a19.51,19.51,0,0,1-6.3-2.6l-2.7,2.2-4.8-4.8,2.2-2.7a19.51,19.51,0,0,1-2.6-6.3l-3.5-.3V258l3.5-.3a19.51,19.51,0,0,1,2.6-6.3l-2.2-2.7,4.8-4.8,2.7,2.2a19.51,19.51,0,0,1,6.3-2.6l.3-3.5h6.8l.3,3.5a19.51,19.51,0,0,1,6.3,2.6l2.7-2.2,4.8,4.8-2.2,2.7a19.51,19.51,0,0,1,2.6,6.3l3.5.3v6.8l-3.5.3a19.51,19.51,0,0,1-2.6,6.3l2.2,2.7-4.8,4.8-2.7-2.2a19.51,19.51,0,0,1-6.3,2.6l-.3,3.5h-6.8Zm13-17.8a9.2,9.2,0,1,0-9.2,9.2A9.31,9.31,0,0,0,806.3,261.5Z"/><path class="cls-34" d="M66.8,120l-1.9,2.3-4.7-3.2,1.4-2.6a15.23,15.23,0,0,1-3.1-4.8l-2.9.3-1.1-5.6,2.8-.8a15.19,15.19,0,0,1,1.2-5.6l-2.3-1.9,3.2-4.7L62,94.8a15.23,15.23,0,0,1,4.8-3.1l-.3-2.9,5.6-1.1.8,2.8a15.19,15.19,0,0,1,5.6,1.2l1.9-2.3,4.7,3.2-1.4,2.6a15.23,15.23,0,0,1,3.1,4.8l2.9-.3,1.1,5.6-2.8.8a15.19,15.19,0,0,1-1.2,5.6l2.3,1.9-3.2,4.7-2.6-1.4a15.23,15.23,0,0,1-4.8,3.1l.3,2.9L73.2,124l-.8-2.8A17,17,0,0,1,66.8,120Zm13.5-15.6a7.73,7.73,0,1,0-6.2,9A7.72,7.72,0,0,0,80.3,104.4Z"/><line class="cls-35" x1="499.2" y1="263.7" x2="566" y2="263.7"/><line class="cls-35" x1="487.8" y1="275.2" x2="554.6" y2="275.2"/><line class="cls-35" x1="499.6" y1="287" x2="566.4" y2="287"/><line class="cls-35" x1="324.5" y1="174.4" x2="391.2" y2="174.4"/><line class="cls-35" x1="313" y1="185.9" x2="379.8" y2="185.9"/><line class="cls-35" x1="324.8" y1="197.7" x2="391.6" y2="197.7"/><line class="cls-35" x1="103.7" y1="185" x2="163.7" y2="185"/><line class="cls-35" x1="93.4" y1="195.3" x2="153.4" y2="195.3"/><line class="cls-35" x1="104" y1="205.9" x2="164" y2="205.9"/><path class="cls-35" d="M338.8,75.5a20,20,0,0,1,20,20"/><path class="cls-35" d="M338.8,68.6a26.91,26.91,0,0,1,26.9,26.9"/><path class="cls-35" d="M338.8,61.4a34.14,34.14,0,0,1,34.1,34.1"/><path class="cls-35" d="M1179.7,68.4A29.6,29.6,0,0,1,1209.3,98"/><path class="cls-35" d="M1179.7,58.2a39.88,39.88,0,0,1,39.9,39.9"/><path class="cls-35" d="M1179.7,47.5A50.49,50.49,0,0,1,1230.2,98"/></g></g></g></g></g></svg>