<?xml version="1.0" encoding="utf-8"?>
<!-- Generator: Adobe Illustrator 26.0.2, SVG Export Plug-In . SVG Version: 6.00 Build 0)  -->
<svg version="1.1" id="Layer_1" xmlns="http://www.w3.org/2000/svg" xmlns:xlink="http://www.w3.org/1999/xlink" x="0px" y="0px"
	 viewBox="0 0 1245 300" style="enable-background:new 0 0 1245 300;" xml:space="preserve">
<style type="text/css">
	.st0{clip-path:url(#SVGID_00000103227364441025820090000008500517236283173014_);}
	.st1{fill:url(#SVGID_00000121959158332309287990000001747344990597404320_);}
	.st2{fill:#EBEBEB;}
	.st3{fill:#9F4A21;}
	.st4{fill:#934220;}
	.st5{fill:#646FD4;}
	.st6{fill:#E2CABF;}
	.st7{fill:#9BA3EB;}
	.st8{fill:#242F9B;}
	.st9{fill:#D0A16D;}
	.st10{fill:#F3ECE1;}
	.st11{fill:#E5BC85;}
	.st12{fill:#BB794E;}
	.st13{fill:#8692B0;}
	.st14{fill:#ABBED4;}
	.st15{opacity:0.2;fill:#ABBED4;enable-background:new    ;}
	.st16{fill:#C0D4EF;}
	.st17{fill:#873615;}
	.st18{fill:#623D35;}
	.st19{fill:#BF8557;}
	.st20{fill:#7F2B22;}
	.st21{fill:#8B633B;}
	.st22{fill:#CBB497;}
	.st23{opacity:0.3;}
	.st24{opacity:0.6;fill:#030351;enable-background:new    ;}
	.st25{fill:#FFFFFF;}
	.st26{opacity:0.5;fill:#9BA3EB;enable-background:new    ;}
	.st27{opacity:0.4;enable-background:new    ;}
	.st28{opacity:0.2;enable-background:new    ;}
	.st29{opacity:0.7;fill:#9BA3EB;enable-background:new    ;}
	.st30{opacity:0.3;fill:#9BA3EB;enable-background:new    ;}
	.st31{fill:#F5F5F5;}
	.st32{fill:none;stroke:#F5F5F5;stroke-width:4;stroke-linecap:round;stroke-miterlimit:10;}
</style>
<g>
	<g id="Layer_2_00000062890282756025221320000014513266314772204935_">
		<g id="Слой_1">
			<g>
				<defs>
					<rect id="SVGID_1_" width="1245" height="300"/>
				</defs>
				<clipPath id="SVGID_00000173157084476683688830000006427771776181655738_">
					<use xlink:href="#SVGID_1_"  style="overflow:visible;"/>
				</clipPath>
				<g style="clip-path:url(#SVGID_00000173157084476683688830000006427771776181655738_);">
					
						<radialGradient id="SVGID_00000058562087759008954410000003817543815437981118_" cx="1769.304" cy="559.1487" r="700.62" gradientTransform="matrix(-0.76 0.55 0.47 0.5 2067.7546 -1496.4025)" gradientUnits="userSpaceOnUse">
						<stop  offset="0" style="stop-color:#73D7FF"/>
						<stop  offset="1" style="stop-color:#002BC6"/>
					</radialGradient>
					<rect style="fill:url(#SVGID_00000058562087759008954410000003817543815437981118_);" width="1245" height="300"/>
					<g id="Background_Complete">
						<rect x="766.2" y="268.2" class="st2" width="390.9" height="0.2"/>
						<rect x="1112.7" y="280.8" class="st2" width="25.9" height="0.2"/>
						<rect x="1039.1" y="282.9" class="st2" width="6.8" height="0.2"/>
						<rect x="1097" y="273.5" class="st2" width="15" height="0.2"/>
						<rect x="211.3" y="274.9" class="st2" width="33.8" height="0.2"/>
						<rect x="868.7" y="274.9" class="st2" width="5" height="0.2"/>
						<rect x="273.1" y="278.2" class="st2" width="73.2" height="0.2"/>
						<path class="st2" d="M342.5,233.4H152.4c-3.1,0-5.6-1.7-5.6-3.7V51.4c0-2.1,2.5-3.7,5.6-3.7h190.1c3.1,0,5.6,1.7,5.6,3.7
							v178.2C348.1,231.7,345.6,233.4,342.5,233.4z M152.4,47.8c-3,0-5.4,1.6-5.4,3.6v178.2c0,2,2.4,3.6,5.4,3.6h190.1
							c3,0,5.4-1.6,5.4-3.6V51.4c0-2-2.4-3.6-5.4-3.6L152.4,47.8z"/>
						<path class="st2" d="M1098.3,259.1H889.2c-3.4,0-6.2-2.1-6.2-4.8v-226c0-2.6,2.8-4.8,6.2-4.8h209.1c3.4,0,6.2,2.1,6.2,4.8
							v226.1C1104.4,257,1101.7,259.1,1098.3,259.1z M889.2,23.7c-3.3,0-5.9,2-5.9,4.5v226.1c0,2.5,2.6,4.5,5.9,4.5h209.1
							c3.3,0,5.9-2,5.9-4.5v-226c0-2.5-2.6-4.5-5.9-4.5L889.2,23.7L889.2,23.7z"/>
						<path class="st3" d="M281.6,101.8c0,0,14.2-16.8,12-25c-5.9-22.6-53.3-34.2-51.5-16.9c-13.8-8.9-31.9,43.3,1.1,57.7
							C274.4,131.4,281.6,101.8,281.6,101.8z"/>
						<path class="st4" d="M229.9,65.8c-2,11.7,9.9,16.7,16.7,12.9c7.2-4,16.7-4,24.7-3.9s9.2-4.2,9.2-4.2s3.3,9,9.2,11.6
							c1,0.6,2.2,0.7,3.3,0.4c-2.6,8.5-11.5,19.1-11.5,19.1s-9.4,27.3-38.3,15.7C220.3,107.5,222.1,79.1,229.9,65.8z"/>
						<path class="st5" d="M288.6,247.8c6.6,9,46-30.1,63.9-14.5c14.7,12.8-35.8,61-93.3,62.3c-69.3,1.6-100.9-47-90.1-62.3
							s39.6,19.5,46.6,14.5C224.1,243.8,269.5,245.6,288.6,247.8z"/>
						<path class="st6" d="M263.7,292.2c-6.7,1.4-24.5,0.4-25.8,0.9c-2.8,1.1-0.9,6.5,4.9,8c3.9,1,10.2,0.5,20.2-4.3L263.7,292.2z"
							/>
						<path class="st7" d="M352.5,233.3c-18.2-14.4-45,31.9-94.5,58.1c0,0,0.6,5.8,5.8,6.7c0,0,44.3-11,68-28.4
							C351.3,255.3,360,239.1,352.5,233.3z"/>
						<path class="st6" d="M276.4,290.6c6.7,1.3,24.5,0.1,25.8,0.6c2.8,1.1,0.9,6.5-4.8,8.1c-3.9,1-10.2,0.6-20.2-4.1L276.4,290.6z"
							/>
						<path class="st8" d="M263.7,298.1c-5.1-1-5.8-6.7-5.8-6.7c4.7-2.5,9.3-5.2,13.6-8c7.2,3.2,15,4.9,22.9,5
							C284.3,292.2,274.1,295.4,263.7,298.1z"/>
						<path class="st7" d="M281.3,290.4c-0.5,2.5-2,4.8-4.2,6.1c0,0-37.8-3.7-69.6-18.9c-27.7-13.3-43.3-36.9-38.4-44.3
							c7-10.5,18.8-0.6,52.1,22.4C236.2,266,281.3,290.4,281.3,290.4z"/>
						<path class="st8" d="M207.6,275c28.3,13.6,64.3,18.5,71.9,19.4c-0.7,0.8-1.4,1.5-2.3,2.1c0,0-37.8-3.7-69.6-18.9
							c-25.4-12.2-40.6-33-39.2-42.1C169.7,245.5,184.4,263.9,207.6,275z"/>
						<path class="st8" d="M290.4,249c0,0-13.9,10.5-36.5,10.2s-42.3-11.4-42.3-11.4c1.8,0.7,3.3,0.8,4.3,0.1c8.3-4,53.7-2.2,72.8,0
							C289.1,248.5,289.7,248.8,290.4,249z"/>
						<path class="st9" d="M276.7,145.2c-12.9,3.7,1.4,62.2,9.9,80.1c11.5,24.3,47.9,45.4,47.9,45.4l3.8-2.1
							c0,0-36.4-45.5-39.8-54.5S287.4,142.2,276.7,145.2z"/>
						<g id="wrist_right">
							<path class="st9" d="M332.5,264c0,0,11.6,3.4,13.2,3.9c6.1,2.1,5.6,4,5.6,4.6c0,0,2.2,3,1.8,3.5c-0.6,0.9-1.2-0.1-4.3-3.1
								c-0.7-0.7-2.6-2.3-2.9-2s1.5,1.5,2.7,2.5c1,0.8,3.1,5.4,2.2,5.7s-2.9-3.4-3.9-4.4c-0.8-0.8-3-2.2-3.4-1.9s1.8,2.4,2.2,2.9
								s2.2,3.2,1.5,3.8s-2-1.6-3.8-3.4c-1.9-1.5-4-2.8-6.3-3.6c-0.7,0,0,1.7,1,3s1.6,3.3,0.6,3.6s-2.7-3.6-4.9-6.1
								c-1.4-1.7-2.2-3.7-2.5-5.9C331.3,267.1,331.8,264,332.5,264z"/>
						</g>
						<path class="st10" d="M271.8,205.4c0,15.4,5,26.9,16.8,42.4c-23.1,7.9-47.5,7.2-72.8,0c7.4-24.8,24.2-40.2,24.2-43.2
							s-10.8-14.2-16.7-31c-6-17.2-3.4-26.2-3.4-26.2c21.7-9.7,34.4-12,59.1-1.9l0.9,15c0,0,6.7,11.7,5.9,16.9
							C285.2,182.6,271.8,197.2,271.8,205.4z"/>
						<path class="st7" d="M278.1,145.1c-1.1,2.7-8.1,8.3-25,8.8c-16.1,0.5-23.4-2.8-30.6-7.5C242.3,137.7,255,135.9,278.1,145.1z"
							/>
						<path class="st11" d="M276.2,144.4c-20.5-8.6-33.4-6.6-51.4,0.8c3.3,2,14.2,7.8,31.4,6.1C269.2,150.1,274.2,146.8,276.2,144.4
							z"/>
						<path class="st11" d="M237.7,104.9c0,0,5.9,22.1,0.8,37.5l15.6,2.7l9.6,0.1c-2.4-7.7-3.4-15.8-3-23.9
							C261.4,111.7,237.7,104.9,237.7,104.9z"/>
						<path class="st12" d="M224.9,145.3c4.9,2.9,10.4,4.8,16,5.7c11.5-5.1,17.8-11.8,20.6-15.7c-0.8-4.7-1-9.4-0.8-14.1
							c0.1-1.1-0.2-2.2-0.8-3.2l-9.7-8c-4-2.1-8.3-3.8-12.6-5.1c0,0,5.4,20.4,1.3,35.7C234.1,141.8,229.4,143.4,224.9,145.3z"/>
						<path class="st6" d="M288.6,247.8c-23.1,7.9-47.5,7.2-72.8,0c7.4-24.8,24.2-40.2,24.2-43.2c0-2.7-9.1-12.5-15.1-27.1l0.1-0.1
							c0,0,20,8.6,43,6c15.9-1.8,18-6,18-6c-0.8,5.2-14.2,19.8-14.2,28C271.8,220.9,276.8,232.3,288.6,247.8z"/>
						<path class="st11" d="M220,147.4c-12.9,3.7,1.4,62.2,9.9,80.1c11.5,24.3,47.9,45.4,47.9,45.4l3.8-2.1c0,0-36.4-45.5-39.8-54.5
							S230.7,144.3,220,147.4z"/>
						<path class="st7" d="M262.5,179.4c0,0,2.9-7.7,6.7-5.1s-0.3,10.1-6.4,14.1c0,0-13.5-7.4-9.1-13.1
							C256.6,171.6,262.5,179.4,262.5,179.4z"/>
						<path class="st5" d="M268,183.4L268,183.4c-1.4,2-3.2,3.7-5.2,5c-2.3-1.3-4.5-2.8-6.4-4.6C260.3,184,264.2,183.9,268,183.4z"
							/>
						<path class="st11" d="M280.9,268.6c4.5,1.1,10.3,1.7,10.7,3.6c0.9,4.1-5.6,6.7-8.9,5.7s-6-5.4-6-5.4S276.4,267.5,280.9,268.6z
							"/>
						<path class="st11" d="M300.3,277.7c0.6-0.4-2.3-4.2-3.2-4.8c-0.7-0.5-1.5-1.1-8.4-2.6l2.5,3.6c0,0,4.3,0.3,4.9,0.5
							S298,277.8,300.3,277.7z"/>
						<path class="st11" d="M295.2,285.3c1-0.1-0.2-4.4-0.8-5.4c-0.6-1.2-0.5-1.7-4.7-7.5l-0.7,4.2c0,0,3.3,3.7,3.6,4.3
							S293.7,284.7,295.2,285.3z"/>
						<path class="st11" d="M291.8,286c0.9-0.1-0.2-4.3-0.7-5.2c-0.6-1.1-0.5-1.7-4.5-7.2l-0.6,4c0,0,3.2,3.6,3.4,4.1
							C289.7,282.4,290.4,285.4,291.8,286z"/>
						<path class="st11" d="M287.5,284.4c0.8-0.1-0.2-3.6-0.6-4.4c-0.5-1-0.4-1.4-3.8-6.1l-0.5,3.4c1,1.1,2,2.3,2.9,3.5
							C285.7,281.3,286.3,283.9,287.5,284.4z"/>
						<g id="laptop">
							<polygon class="st13" points="399.3,293.8 316.2,293.8 333.7,229.4 416.7,229.4 							"/>
							
								<rect x="276.6" y="294.8" transform="matrix(1 -1.221729e-03 1.221729e-03 1 -0.363 0.4128)" class="st14" width="122.2" height="5"/>
							<polygon class="st14" points="399.3,293.7 318.2,293.8 335.3,230.7 416.4,230.6 							"/>
							<path class="st13" d="M375.1,261.5c-1.3,3.3-4.5,5.5-8,5.6c-3.4,0-5.3-2.5-4.3-5.6c1.3-3.3,4.5-5.5,8-5.6
								C374.2,255.9,376.1,258.4,375.1,261.5z"/>
							<polygon class="st15" points="318.2,293.8 335.3,230.7 416.4,230.6 							"/>
							<rect x="276.3" y="295.1" class="st13" width="39.4" height="5"/>
							
								<rect x="326.4" y="293.8" transform="matrix(1 -1.221729e-03 1.221729e-03 1 -0.3601 0.4083)" class="st13" width="15.2" height="2.2"/>
							
								<rect x="380.7" y="293.8" transform="matrix(1 -1.221729e-03 1.221729e-03 1 -0.36 0.4732)" class="st13" width="13" height="2.2"/>
							<polygon class="st16" points="335.8,231.5 416.2,231.4 416.4,230.6 335.3,230.7 318.2,293.8 319,293.8 							"/>
						</g>
						<path class="st3" d="M241.9,103c0,0-7.5,9.4-3.1,30.1s14.5,31.9,14.5,31.9l-2,2.2c-12-7.2-21.1-18.6-25.5-31.9
							c-7.1-22.2-0.9-39.1-0.9-39.1L241.9,103z"/>
						<path class="st4" d="M221.3,106.2c0,0-10.2,11.3,4.4,29c0,0-6.7,7.7,10.9,19.9c0,0,1.4,7.9,14.7,12.1l2-2.2
							c0,0-3-19.5-9.1-15.9c0,0,1-19.9-5.6-16.8c0,0,6.2-15.9-0.3-23.9c0,0,3-0.3,3.6-5.3l-17.1-12.8
							C221.6,95,220.4,100.6,221.3,106.2z"/>
						<path class="st4" d="M253.3,165c3,0.8,5.2,3.4,5.6,6.5c0.5,3.4-0.5,6.8-2.7,9.4c0,0,1.6-2.8-1.5-5.8s-3.5-7.9-3.5-7.9
							L253.3,165z"/>
						<path class="st17" d="M233.7,112.6l-4.4,8.9l-6.9-7.6C222.4,113.9,229.2,117.7,233.7,112.6z"/>
						<path class="st17" d="M237,133.6l-1.5,10l-7-7.3C228.5,136.3,235.3,136.9,237,133.6z"/>
						<path class="st17" d="M243.7,150.7l2.2,8.1l-7.3-4.5C238.5,154.3,241.6,154.3,243.7,150.7z"/>
						<path class="st17" d="M253.3,165c0,0-0.6,2.2-2,2.2l0.2,1.1c1.4-0.4,2.4-1.6,2.6-3L253.3,165z"/>
						<path class="st4" d="M287.8,91.8c-1.1,2.5-1.7,5.3-1.7,8.1c0,4.8,2.7,14.8-5.9,20.8c0,0,2.5-2.3,4.2-10.3s-0.4-9.3,0.4-16
							C285.3,89.1,287.8,91.8,287.8,91.8z"/>
						<path class="st11" d="M263.1,131.8c2.3,0,6.2-3.6,8.6-5.5c5.2-3.9,10.2-8.8,8.8-21.1c0,0,13.1-29.6-11.8-35.4
							s-32.2,18.7-29,38.2S261,131.8,263.1,131.8z"/>
						<path class="st9" d="M262.3,69c-18.1,0.9-27.5,54.5,1.1,62.8c-0.1,0-0.2,0.1-0.3,0c-2.2,0-20.2-4.3-23.4-23.8
							C236.8,90.3,242.6,68.5,262.3,69z"/>
						<path class="st9" d="M233,103.1c-0.5,2.9,1.5,5.7,4.4,6.2c2.9,0.5,5.7-1.5,6.2-4.4c0.5-2.9-1.5-5.7-4.4-6.2c0,0,0,0,0,0
							C236.3,98.2,233.5,100.1,233,103.1C233,103.1,233,103.1,233,103.1z"/>
						<path class="st12" d="M238.9,100.5c0.8,0.1,1.4,0.5,1.9,1.1c-0.3-0.1-0.6-0.2-0.9-0.3c-1.7-0.3-3.2,0.8-3.5,2.5
							s0.8,3.2,2.5,3.5h0.7c-0.6,0.3-1.3,0.4-1.9,0.3c-1.9-0.3-3.2-2.1-2.9-4C235.1,101.6,236.9,100.2,238.9,100.5z"/>
						<path class="st18" d="M261.1,100.2c1.1-6.4-9.7-5-12-2.2l1.9,0.8C252.9,96.6,261.3,95.2,261.1,100.2z"/>
						<polygon class="st18" points="261.1,100.2 261.2,100.2 261.2,100.2 						"/>
						<path class="st18" d="M250.7,100v-0.2c-0.8-0.1-0.1,2.2,3.8,3.2c1.4,0.4,2.8,0.4,4.2-0.1C256,103.7,251.6,102,250.7,100z"/>
						<path class="st10" d="M261.2,100.2c0.2-5.9-11.6-2.9-10.4-0.2C252,102.9,261,105.3,261.2,100.2z"/>
						<path class="st18" d="M253.3,99.3c-0.4,1.7,0.6,3.4,2.2,3.8c0.2,0,0.3,0.1,0.5,0.1c2,0.3,3.9-0.9,4.5-2.8
							c0.5-1.6-0.5-3.3-2.1-3.8c-0.2-0.1-0.4-0.1-0.6-0.1C255.8,96.2,253.9,97.4,253.3,99.3z"/>
						<path class="st10" d="M271.3,101.3c1.9-5,11.1-0.3,8,3.2C277,107,269.5,105.8,271.3,101.3z"/>
						<path class="st18" d="M279.1,103.2c-0.6,1.8-2.4,3-4.3,2.6c-1.7-0.2-2.8-1.8-2.6-3.5c0-0.1,0.1-0.3,0.1-0.4
							c0.6-1.8,2.4-3,4.3-2.6c1.7,0.2,2.8,1.8,2.6,3.5C279.2,102.9,279.1,103.1,279.1,103.2z"/>
						<path class="st18" d="M279.8,103.4l2.3-0.4c-1.1-4.1-8.7-7.5-10.8-1.9h0.1C273.2,96.9,280.6,100.2,279.8,103.4z"/>
						<path class="st18" d="M271,102.8c-0.1,0.4-0.1,1.9,1.9,2.7c1.5,0.7,3.3,0.6,4.8-0.2C275.2,106.3,271.3,105.4,271,102.8z"/>
						<path class="st19" d="M273.3,93.1c0,0-5.6,3.8-5.6,10c-0.1,3.5,1.8,6.8,4.9,8.5c0,0-2,4.1-5.9,3.5s3.8-3.6,3.8-3.6
							s-4.8-4.2-4.7-8.6C266.1,96.5,273.3,93.1,273.3,93.1z"/>
						<path class="st3" d="M257.1,70.8c0,0-7.3,1.3-10.4,10.4s-2.3,19.2-4.6,19.3c-1.2,0-3.5-2.5-3.5-2.5s-4.3-31.4,14.2-31.6
							L257.1,70.8z"/>
						<path class="st4" d="M261.9,89.7c0,0.6-2.2,0.1-6.6,0.3c-4,0.2-7,1.1-7,0.5s2.3-2.2,7-2.5C259.8,87.8,262,88.6,261.9,89.7z"/>
						<path class="st4" d="M283.7,97.6c-0.1,0.4-1-1.1-4-3c-2.5-1.6-5.7-2.1-5.5-2.6c0.4-1.5,4.3-0.4,6.1,0.9
							C283.7,95.2,283.9,97.1,283.7,97.6z"/>
						<path class="st20" d="M256.4,117.2c-0.1,0.2-0.7,0-0.9-0.1s-0.2-0.3-0.1-0.5s0.3-0.2,0.5-0.1
							C256.1,116.6,256.5,117,256.4,117.2z"/>
						<path class="st20" d="M271.9,119.5c0.1,0.2,0.7,0.1,0.9,0c0.2-0.1,0.3-0.3,0.2-0.5c-0.1-0.2-0.3-0.3-0.5-0.2
							C272.2,118.9,271.8,119.3,271.9,119.5z"/>
						<path class="st21" d="M255.9,116.9l16.4,2.4c0,0-3.4,4.5-8.7,3.8S255.9,116.9,255.9,116.9z"/>
						<path class="st20" d="M255.9,116.9l16.4,2.4c0,0-3.4,4.5-8.7,3.8S255.9,116.9,255.9,116.9z"/>
						<path class="st10" d="M257.1,117.5l13.3,2c0,0-3.2,3.9-7.5,2.9C260.3,121.8,258.2,119.9,257.1,117.5z"/>
						<path class="st22" d="M257.1,117.5l13.3,2l-0.9,0.9c0,0-1.3-1-5.7-1.6c-2-0.4-4.1-0.5-6.2-0.3
							C257.4,118.2,257.2,117.8,257.1,117.5z"/>
						<path class="st3" d="M282.6,72.9c0,0-1.9,4.8-9.6,5.2c-17.9,0.9-23.3,0.4-30.7,13.9c0,0-0.3-16.6,10.6-23.1
							C259.4,65,270.3,63,282.6,72.9z"/>
						<path class="st4" d="M271.3,74.8c6.3,0,8.4-2.6,9-3.7c0.2,0.2,0.5,0.4,0.7,0.5c0.3,0.8,0.7,1.5,1.1,2.2
							c-1,1.4-3.5,3.9-9.1,4.2c-17.9,0.9-23.3,0.4-30.7,13.9c0-4.2,0.8-8.3,2.2-12.3c0.7-0.2,1.4-0.4,2-0.8
							C253.8,74.8,263.3,74.8,271.3,74.8z"/>
						<path class="st4" d="M246.6,78.8c0.4-0.2,0.9-0.4,1.4-0.7c-0.5,1-1,2-1.4,3.1c-3.1,9.1-2.3,19.2-4.6,19.3
							c-1.2,0-3.5-2.5-3.5-2.5s-1.3-9.7,0.7-18.3C241.7,80.3,244.3,80,246.6,78.8z"/>
						<path class="st4" d="M261.8,78.8c-5.7-0.5-11,2.8-13.1,8.1c-4.2,9.3-2,19.6-2.7,26.5c-0.5,4.2-2.9,7.9-6.4,10.2
							c1.8-3.3,3.2-6.8,4.1-10.5c1.2-6.7,1.3-13.6,0.3-20.4C241.2,82.4,249,72.8,261.8,78.8z"/>
						<path class="st9" d="M217.2,149.6c-4.4,15.5,7.9,59.6,15.3,75c9.3,19.6,34.1,39.9,43.7,47.3c-7.2-4.4-36.3-23.2-46.3-44.4
							C222.2,211.2,209.6,161.2,217.2,149.6z"/>
					</g>
					<g class="st23">
						<g id="Shadow">
							<ellipse id="_Path_" class="st24" cx="980.6" cy="292.3" rx="183.5" ry="10.7"/>
						</g>
					</g>
					<g id="Window_3">
						<path class="st7" d="M1111.2,81.5v118.6l-19.7,19.7h-78c-1.7,0-3-1.3-3-3V81.5c0-1.7,1.3-3,3-3h94.7
							C1109.9,78.5,1111.2,79.8,1111.2,81.5z"/>
						<path class="st25" d="M1111.2,86.6V200l-19.7,19.7h-78c-1.7,0-3-1.3-3-3V86.6H1111.2z"/>
						<path class="st25" d="M1108.5,82.2c0,0.8-0.7,1.5-1.5,1.5s-1.5-0.7-1.5-1.5s0.7-1.5,1.5-1.5
							C1107.8,80.7,1108.5,81.3,1108.5,82.2C1108.5,82.2,1108.5,82.2,1108.5,82.2z"/>
						<path class="st25" d="M1102.9,82.2c0,0.8-0.7,1.5-1.5,1.5s-1.5-0.7-1.5-1.5s0.7-1.5,1.5-1.5
							C1102.2,80.7,1102.9,81.4,1102.9,82.2z"/>
						<path class="st25" d="M1097.3,82.2c0,0.8-0.7,1.5-1.5,1.5s-1.5-0.7-1.5-1.5s0.7-1.5,1.5-1.5
							C1096.6,80.7,1097.3,81.4,1097.3,82.2z"/>
						<path class="st7" d="M1071.6,95.8h-54c-0.5,0-0.9-0.4-0.9-0.9s0.4-0.9,0.9-0.9h54c0.5,0,0.9,0.4,0.9,0.9c0,0,0,0,0,0
							C1072.6,95.3,1072.1,95.8,1071.6,95.8z"/>
						<path class="st7" d="M1056.3,100.9h-38.8c-0.5,0-0.9-0.4-0.9-0.9s0.4-0.9,0.9-0.9h38.8c0.5,0,0.9,0.4,0.9,0.9c0,0,0,0,0,0
							C1057.3,100.5,1056.9,100.9,1056.3,100.9z"/>
						<path class="st7" d="M1098.2,180.9h-69.1c-0.5,0-0.9-0.4-0.9-0.9c0-0.5,0.4-0.9,0.9-0.9h69.1c0.5,0,0.9,0.4,0.9,0.9v0
							c0,0.5-0.3,0.9-0.8,0.9C1098.3,180.9,1098.2,180.9,1098.2,180.9z"/>
						<path class="st7" d="M1086.7,201.6h-69.1c-0.5,0-0.9-0.4-0.9-0.9c0-0.5,0.4-0.9,0.9-0.9h69.1c0.5,0,0.9,0.4,0.9,0.9v0
							C1087.6,201.2,1087.2,201.6,1086.7,201.6z"/>
						<path class="st7" d="M1098.2,186.1h-80.7c-0.5,0-0.9-0.4-0.9-0.9c0-0.5,0.4-0.9,0.9-0.9h80.7c0.5,0,0.9,0.4,0.9,0.9v0
							C1099.2,185.6,1098.8,186.1,1098.2,186.1z"/>
						<path class="st7" d="M1098.2,191.2h-80.7c-0.5,0-0.9-0.4-0.9-0.9c0-0.5,0.4-0.9,0.9-0.9h80.7c0.5,0,0.9,0.4,0.9,0.9v0
							c0,0.5-0.3,0.9-0.8,0.9C1098.3,191.2,1098.2,191.2,1098.2,191.2z"/>
						<path class="st7" d="M1098.2,196.4h-80.7c-0.5,0-0.9-0.4-0.9-0.9c0-0.5,0.4-0.9,0.9-0.9h80.7c0.5,0,0.9,0.4,0.9,0.9v0
							C1099.2,196,1098.8,196.4,1098.2,196.4z"/>
						<polygon class="st26" points="1111.2,200 1091.4,219.7 1091.4,200 						"/>
						<rect x="1105.6" y="86.6" class="st27" width="5.6" height="113.4"/>
						<path class="st7" d="M1108.4,145.9L1108.4,145.9c-1.2,0-2.1-0.9-2.1-2.1v-11.6c0-1.2,0.9-2.1,2.1-2.1l0,0
							c1.2,0,2.1,0.9,2.1,2.1v11.6C1110.4,144.9,1109.5,145.8,1108.4,145.9z"/>
						<path class="st7" d="M1098.2,152.5h-69.1c-0.5,0-0.9-0.4-0.9-0.9c0-0.5,0.4-0.9,0.9-0.9h69.1c0.5,0,0.9,0.4,0.9,0.9v0
							C1099.2,152.1,1098.8,152.5,1098.2,152.5z"/>
						<path class="st7" d="M1086.7,173.2h-69.1c-0.5,0-0.9-0.4-0.9-0.9c0-0.5,0.4-0.9,0.9-0.9h69.1c0.5,0,0.9,0.4,0.9,0.9v0
							C1087.6,172.8,1087.2,173.2,1086.7,173.2z"/>
						<path class="st7" d="M1098.2,157.7h-80.7c-0.5,0-0.9-0.4-0.9-0.9c0-0.5,0.4-0.9,0.9-0.9h80.7c0.5,0,0.9,0.4,0.9,0.9v0
							C1099.2,157.2,1098.8,157.7,1098.2,157.7z"/>
						<path class="st7" d="M1098.2,162.8h-80.7c-0.5,0-0.9-0.4-0.9-0.9c0-0.5,0.4-0.9,0.9-0.9h80.7c0.5,0,0.9,0.4,0.9,0.9v0
							C1099.2,162.4,1098.8,162.8,1098.2,162.8z"/>
						<path class="st7" d="M1098.2,168h-80.7c-0.5,0-0.9-0.4-0.9-0.9c0-0.5,0.4-0.9,0.9-0.9h80.7c0.5,0,0.9,0.4,0.9,0.9v0
							C1099.2,167.6,1098.8,168,1098.2,168z"/>
						<rect x="1017.3" y="107.1" class="st7" width="80.9" height="30.2"/>
						<polygon class="st28" points="1017.3,132.5 1019.5,132.5 1019.5,127 1022.1,127 1022.1,116.1 1025.6,116.1 1025.6,122.8 
							1030.5,122.8 1030.5,131.7 1036.3,131.7 1036.3,125.5 1041.1,125.5 1044.2,122.3 1044.2,115 1046.2,115 1046.2,125.5 
							1051.1,125.5 1051.1,129.2 1056.1,129.2 1056.1,110.1 1057.5,108.7 1057.5,114 1060.8,114 1060.8,116.3 1063.8,119.4 
							1063.8,125 1068.3,125 1068.3,120.6 1079.9,120.6 1079.9,117.3 1082.5,117.3 1082.5,111.5 1083.5,111.5 1083.5,120.6 
							1084.9,120.6 1088.3,117.2 1091.4,117.2 1091.4,114.2 1093,114.2 1093,117.3 1095.1,117.3 1095.1,129.8 1097.3,129.8 
							1097.3,123.5 1098.2,123.6 1098.2,107.1 1017.3,107.1 						"/>
						<path class="st7" d="M1098.2,142.1h-21.8c-0.5,0-0.9-0.4-0.9-0.9c0-0.5,0.4-0.9,0.9-0.9h21.8c0.5,0,0.9,0.4,0.9,0.9v0
							c0,0.5-0.3,0.9-0.8,0.9C1098.3,142.1,1098.2,142.1,1098.2,142.1z"/>
						<path class="st28" d="M1049.4,78.4v98l-14.9,14.9h-24.1V81.5c0-1.7,1.3-3,3-3L1049.4,78.4z"/>
						<path class="st25" d="M1108.4,145.9L1108.4,145.9c-1.2,0-2.1-0.9-2.1-2.1v-11.6c0-1.2,0.9-2.1,2.1-2.1l0,0
							c1.2,0,2.1,0.9,2.1,2.1v11.6C1110.4,144.9,1109.5,145.8,1108.4,145.9z"/>
					</g>
					<g id="Window_1">
						<path class="st7" d="M991.7,96.2v118.6L972,234.5h-78c-1.7,0-3-1.3-3-3V96.2c0-1.7,1.3-3,3-3h94.7
							C990.4,93.2,991.7,94.5,991.7,96.2z"/>
						<path class="st25" d="M991.7,101.4v113.4L972,234.5h-78c-1.7,0-3-1.3-3-3V101.4H991.7z"/>
						<path class="st25" d="M989,97c0,0.8-0.7,1.5-1.5,1.5S986,97.8,986,97s0.7-1.5,1.5-1.5c0.8,0,1.5,0.6,1.5,1.3
							C989,96.9,989,96.9,989,97z"/>
						<path class="st25" d="M983.4,97c0,0.8-0.7,1.5-1.5,1.5s-1.5-0.7-1.5-1.5s0.7-1.5,1.5-1.5c0.8,0,1.5,0.6,1.5,1.3
							C983.4,96.9,983.4,96.9,983.4,97z"/>
						<path class="st25" d="M977.8,97c0,0.8-0.7,1.5-1.5,1.5s-1.5-0.7-1.5-1.5s0.7-1.5,1.5-1.5c0.8,0,1.5,0.6,1.5,1.3
							C977.8,96.9,977.8,96.9,977.8,97z"/>
						<path class="st7" d="M914.9,111.1h-16.8c-0.5,0-0.9-0.4-0.9-0.9s0.4-0.9,0.9-0.9h16.8c0.5,0,0.9,0.4,0.9,0.9c0,0,0,0,0,0
							C915.8,110.7,915.4,111.1,914.9,111.1z"/>
						<path class="st7" d="M922.8,116.2h-24.7c-0.5,0-0.9-0.4-0.9-0.9s0.4-0.9,0.9-0.9h24.7c0.5,0,0.9,0.4,0.9,0.9
							S923.3,116.2,922.8,116.2L922.8,116.2z"/>
						<path class="st7" d="M915.2,121.4h-17.1c-0.5,0-0.9-0.4-0.9-0.9s0.4-0.9,0.9-0.9h17.1c0.5,0,0.9,0.4,0.9,0.9
							S915.7,121.4,915.2,121.4L915.2,121.4L915.2,121.4z"/>
						<path class="st7" d="M978.8,206.1h-69.1c-0.5,0-0.9-0.4-0.9-0.9c0-0.5,0.4-0.9,0.9-0.9h69.1c0.5,0,0.9,0.4,0.9,0.9
							C979.7,205.7,979.3,206.1,978.8,206.1z"/>
						<path class="st7" d="M940.9,211.2h-42.8c-0.5,0-0.9-0.4-0.9-0.9c0-0.5,0.4-0.9,0.9-0.9h42.8c0.5,0,0.9,0.4,0.9,0.9
							C941.8,210.8,941.4,211.2,940.9,211.2L940.9,211.2L940.9,211.2z"/>
						<polygon class="st26" points="991.7,214.8 971.9,234.5 971.9,214.8 						"/>
						<rect x="986.1" y="101.4" class="st27" width="5.6" height="113.4"/>
						<path class="st7" d="M988.9,207L988.9,207c-1.2,0-2.1-0.9-2.1-2.1v-11.6c0-1.2,0.9-2.1,2.1-2.1l0,0c1.2,0,2.1,0.9,2.1,2.1
							v11.6C991,206,990,207,988.9,207z"/>
						<path class="st7" d="M978.8,111.1h-13c-0.5,0-0.9-0.4-0.9-0.9s0.4-0.9,0.9-0.9h13c0.5,0,0.9,0.4,0.9,0.9c0,0,0,0,0,0
							C979.7,110.7,979.3,111.1,978.8,111.1z"/>
						<path class="st7" d="M978.8,116.2H972c-0.5,0-0.9-0.4-0.9-0.9s0.4-0.9,0.9-0.9h6.7c0.5,0,0.9,0.4,0.9,0.9c0,0,0,0,0,0
							c0.1,0.4-0.2,0.8-0.6,0.9C978.9,116.2,978.9,116.2,978.8,116.2z"/>
						<path class="st7" d="M978.8,135.1h-69.1c-0.5,0-0.9-0.4-0.9-0.9c0-0.5,0.4-0.9,0.9-0.9h69.1c0.5,0,0.9,0.4,0.9,0.9
							C979.7,134.7,979.3,135.1,978.8,135.1z"/>
						<path class="st7" d="M978.8,140.3h-80.7c-0.5,0-0.9-0.4-0.9-0.9c0-0.5,0.4-0.9,0.9-0.9h80.7c0.5,0,0.9,0.4,0.9,0.9v0
							C979.7,139.9,979.3,140.3,978.8,140.3z"/>
						<path class="st7" d="M931.4,145.4h-33.3c-0.5,0-0.9-0.4-0.9-0.9c0-0.5,0.4-0.9,0.9-0.9h33.3c0.5,0,0.9,0.4,0.9,0.9v0
							C932.4,145,932,145.4,931.4,145.4z"/>
						<rect x="911.5" y="152.3" class="st29" width="31.8" height="8.5"/>
						<rect x="911.5" y="162.7" class="st30" width="14.4" height="31.4"/>
						<rect x="945.1" y="162.7" class="st30" width="16.5" height="31.4"/>
						<rect x="945.1" y="152.3" class="st29" width="33.6" height="8.5"/>
						<rect x="963.6" y="162.7" class="st30" width="15.2" height="31.4"/>
						<rect x="898.1" y="162.7" class="st26" width="11.5" height="31.4"/>
						<rect x="898.1" y="152.3" class="st7" width="11.5" height="8.5"/>
						<rect x="927.8" y="162.7" class="st30" width="15.5" height="31.4"/>
						<path class="st25" d="M988.9,207L988.9,207c-1.2,0-2.1-0.9-2.1-2.1v-11.6c0-1.2,0.9-2.1,2.1-2.1l0,0c1.2,0,2.1,0.9,2.1,2.1
							v11.6C991,206,990,207,988.9,207z"/>
						<path class="st28" d="M991.7,96.2v98.6h-57.1c-1.7,0-3-1.3-3-3V93.2h57.1C990.4,93.2,991.7,94.5,991.7,96.2
							C991.7,96.2,991.7,96.2,991.7,96.2z"/>
					</g>
					<g id="Window_2">
						<path class="st7" d="M1041.8,42.5v118.6l-19.7,19.7h-78c-1.7,0-3-1.3-3-3V42.5c0-1.7,1.3-3,3-3h94.7
							C1040.5,39.5,1041.8,40.8,1041.8,42.5z"/>
						<path class="st25" d="M1041.8,47.7v113.4l-19.7,19.7h-78c-1.7,0-3-1.3-3-3V47.7H1041.8z"/>
						<circle class="st25" cx="1037.7" cy="43.2" r="1.5"/>
						<circle class="st25" cx="1032.1" cy="43.2" r="1.5"/>
						<path class="st25" d="M1027.9,43.2c0,0.8-0.7,1.5-1.5,1.5s-1.5-0.7-1.5-1.5s0.7-1.5,1.5-1.5
							C1027.2,41.7,1027.9,42.3,1027.9,43.2C1027.9,43.2,1027.9,43.2,1027.9,43.2z"/>
						<path class="st7" d="M998.2,57.3h-19.3c-0.5,0-0.9-0.4-0.9-0.9c0-0.5,0.4-0.9,0.9-0.9c0,0,0,0,0,0h19.3c0.5,0,0.9,0.4,0.9,0.9
							C999.1,56.9,998.7,57.3,998.2,57.3z"/>
						<path class="st7" d="M1006.1,62.5H971c-0.5,0-0.9-0.4-0.9-0.9c0-0.5,0.4-0.9,0.9-0.9c0,0,0,0,0,0h35.1c0.5,0,0.9,0.4,0.9,0.9
							c0,0,0,0,0,0C1007.1,62.1,1006.6,62.5,1006.1,62.5z"/>
						<path class="st7" d="M998.5,67.6h-19.8c-0.5,0-0.9-0.4-0.9-0.9s0.4-0.9,0.9-0.9h19.8c0.5,0,0.9,0.4,0.9,0.9
							S999,67.6,998.5,67.6z"/>
						<path class="st7" d="M1028.9,81.3h-69.1c-0.5,0-0.9-0.4-0.9-0.9s0.4-0.9,0.9-0.9l0,0h69.1c0.5,0,0.9,0.4,0.9,0.9
							S1029.4,81.3,1028.9,81.3z"/>
						<path class="st7" d="M1017.3,102h-69.1c-0.5,0-0.9-0.4-0.9-0.9s0.4-0.9,0.9-0.9h69.1c0.5,0,0.9,0.4,0.9,0.9c0,0,0,0,0,0
							C1018.3,101.6,1017.9,102,1017.3,102z"/>
						<path class="st7" d="M1028.9,86.5h-80.7c-0.5,0-0.9-0.4-0.9-0.9s0.4-0.9,0.9-0.9h80.7c0.5,0,0.9,0.4,0.9,0.9
							S1029.4,86.5,1028.9,86.5z"/>
						<path class="st7" d="M1028.9,91.7h-80.7c-0.5,0-0.9-0.4-0.9-0.9s0.4-0.9,0.9-0.9h80.7c0.5,0,0.9,0.4,0.9,0.9
							S1029.4,91.7,1028.9,91.7z"/>
						<path class="st7" d="M1028.9,96.9h-80.7c-0.5,0-0.9-0.4-0.9-0.9s0.4-0.9,0.9-0.9h80.7c0.5,0,0.9,0.4,0.9,0.9c0,0,0,0,0,0
							C1029.8,96.5,1029.4,96.9,1028.9,96.9z"/>
						<path class="st7" d="M1028.9,133.4h-69.1c-0.5,0-0.9-0.4-0.9-0.9c0-0.5,0.4-0.9,0.9-0.9l0,0h69.1c0.5,0,0.9,0.4,0.9,0.9
							C1029.8,133,1029.4,133.4,1028.9,133.4z"/>
						<path class="st7" d="M1017.3,154.1h-69.1c-0.5,0-0.9-0.4-0.9-0.9c0-0.5,0.4-0.9,0.9-0.9h69.1c0.5,0,0.9,0.4,0.9,0.9v0
							C1018.3,153.7,1017.9,154.1,1017.3,154.1z"/>
						<path class="st7" d="M1028.9,138.6h-80.7c-0.5,0-0.9-0.4-0.9-0.9c0-0.5,0.4-0.9,0.9-0.9h80.7c0.5,0,0.9,0.4,0.9,0.9
							C1029.8,138.2,1029.4,138.6,1028.9,138.6z"/>
						<path class="st7" d="M1028.9,143.7h-80.7c-0.5,0-0.9-0.4-0.9-0.9c0-0.5,0.4-0.9,0.9-0.9h80.7c0.5,0,0.9,0.4,0.9,0.9
							C1029.8,143.3,1029.4,143.7,1028.9,143.7z"/>
						<path class="st7" d="M1028.9,148.9h-80.7c-0.5,0-0.9-0.4-0.9-0.9c0-0.5,0.4-0.9,0.9-0.9h80.7c0.5,0,0.9,0.4,0.9,0.9
							C1029.8,148.5,1029.4,148.9,1028.9,148.9z"/>
						<rect x="1019.2" y="55.2" class="st7" width="9.7" height="12.9"/>
						<circle class="st7" cx="953.6" cy="60.6" r="5.4"/>
						<path class="st7" d="M947.9,108.8c0,0.6,0.5,1.1,1.1,1.1c0.6,0,1.1-0.5,1.1-1.1s-0.5-1.1-1.1-1.1l0,0
							C948.4,107.7,947.9,108.2,947.9,108.8z"/>
						<path class="st7" d="M947.9,114c0,0.6,0.5,1.1,1.1,1.1c0.6,0,1.1-0.5,1.1-1.1s-0.5-1.1-1.1-1.1l0,0c-0.5-0.1-1,0.3-1.1,0.9
							C947.9,113.9,947.9,113.9,947.9,114z"/>
						<path class="st7" d="M947.9,119.1c0,0.6,0.5,1.1,1.1,1.1c0.6,0,1.1-0.5,1.1-1.1s-0.5-1.1-1.1-1.1l0,0
							C948.4,118,947.9,118.5,947.9,119.1z"/>
						<path class="st7" d="M947.9,124.3c0,0.6,0.5,1.1,1.1,1.1c0.6,0,1.1-0.5,1.1-1.1s-0.5-1.1-1.1-1.1l0,0
							C948.4,123.2,947.9,123.7,947.9,124.3z"/>
						<path class="st7" d="M965.3,109.7H953c-0.5,0-0.9-0.4-0.9-0.9s0.4-0.9,0.9-0.9h12.3c0.5,0,0.9,0.4,0.9,0.9
							S965.8,109.7,965.3,109.7z"/>
						<path class="st7" d="M976.8,114.9H953c-0.5,0-0.9-0.4-0.9-0.9s0.4-0.9,0.9-0.9h23.9c0.5,0,0.9,0.4,0.9,0.9c0,0,0,0,0,0
							C977.7,114.5,977.3,114.9,976.8,114.9z"/>
						<path class="st7" d="M962.6,120.1H953c-0.5,0-0.9-0.4-0.9-0.9s0.4-0.9,0.9-0.9h9.7c0.5,0,0.9,0.4,0.9,0.9c0,0,0,0,0,0
							C963.6,119.7,963.2,120.1,962.6,120.1C962.6,120.1,962.6,120.1,962.6,120.1z"/>
						<path class="st7" d="M973,125.2h-20c-0.5,0-0.9-0.4-0.9-0.9s0.4-0.9,0.9-0.9h20c0.5,0,0.9,0.4,0.9,0.9c0,0,0,0,0,0
							C974,124.8,973.6,125.2,973,125.2z"/>
						<polygon class="st26" points="1041.8,161 1022.1,180.8 1022.1,161 						"/>
						<polygon class="st28" points="1028.9,55.2 1019.2,68.1 1028.9,68.1 						"/>
						<rect x="950.5" y="57.5" class="st28" width="6.3" height="6.3"/>
						<rect x="1036.2" y="47.7" class="st27" width="5.6" height="113.4"/>
						<path class="st7" d="M1039,69L1039,69c-1.2,0-2.1-0.9-2.1-2.1V55.4c0-1.2,0.9-2.1,2.1-2.1l0,0c1.2,0,2.1,0.9,2.1,2.1V67
							c0,1.1-0.9,2-2,2C1039.1,69,1039,69,1039,69z"/>
						<path class="st25" d="M1039,69L1039,69c-1.2,0-2.1-0.9-2.1-2.1V55.4c0-1.2,0.9-2.1,2.1-2.1l0,0c1.2,0,2.1,0.9,2.1,2.1V67
							c0,1.1-0.9,2-2,2C1039.1,69,1039,69,1039,69z"/>
					</g>
					<g id="Speech_bubble">
						<path class="st7" d="M1190.2,93.8h-33c-2.7,0-4.8,2.1-4.8,4.8c0,0,0,0,0,0v32.1c0,2.7,2.1,4.8,4.8,4.8l0,0h13.4l-1.4,9.7
							l6.6-9.7h14.4c2.7,0,4.8-2.1,4.8-4.8c0,0,0,0,0,0V98.6C1195,96,1192.8,93.8,1190.2,93.8z"/>
						<path class="st25" d="M1190.2,93.8h-33c-2.7,0-4.8,2.1-4.8,4.8c0,0,0,0,0,0v32.1c0,2.7,2.1,4.8,4.8,4.8l0,0h13.4l-1.4,9.7
							l6.6-9.7h14.4c2.7,0,4.8-2.1,4.8-4.8c0,0,0,0,0,0V98.6C1195,96,1192.8,93.8,1190.2,93.8z"/>
						<path class="st31" d="M1176.4,108v2.6l-1.3,0.1c-0.2,0.9-0.5,1.7-1,2.4l0.8,1l-1.8,1.8l-1-0.8c-0.7,0.5-1.5,0.8-2.4,1
							l-0.1,1.3h-2.6l-0.1-1.3c-0.9-0.2-1.7-0.5-2.4-1l-1,0.8l-1.8-1.8l0.8-1c-0.5-0.7-0.8-1.5-1-2.4l-1.3-0.1V108l1.3-0.1
							c0.2-0.9,0.5-1.7,1-2.4l-0.8-1l1.8-1.8l1,0.8c0.7-0.5,1.5-0.8,2.4-1l0.1-1.3h2.6l0.1,1.3c0.9,0.2,1.7,0.5,2.4,1l1-0.8l1.8,1.8
							l-0.8,1c0.5,0.7,0.8,1.5,1,2.4L1176.4,108z M1168.3,105.8c-1.9,0-3.5,1.6-3.5,3.5s1.6,3.5,3.5,3.5s3.5-1.6,3.5-3.5
							C1171.8,107.4,1170.2,105.8,1168.3,105.8z"/>
						<path class="st31" d="M1174.7,126.7c-0.7-0.1-1.3-0.4-1.9-0.8l-0.8,0.7l-1.4-1.4l0.7-0.8c-0.4-0.6-0.6-1.2-0.8-1.9l-1-0.1v-2
							l1-0.1c0.1-0.7,0.4-1.3,0.8-1.9l-0.7-0.8l1.4-1.4l0.8,0.7c0.6-0.4,1.2-0.6,1.9-0.8l0.1-1h2l0.1,1c0.7,0.1,1.3,0.4,1.9,0.8
							l0.8-0.7l1.4,1.4l-0.7,0.8c0.4,0.6,0.6,1.2,0.8,1.9l1,0.1v2l-1,0.1c-0.1,0.7-0.4,1.3-0.8,1.9l0.7,0.8l-1.4,1.4l-0.8-0.7
							c-0.6,0.4-1.2,0.6-1.9,0.8l-0.1,1h-2L1174.7,126.7z M1178.5,121.4c0-1.5-1.2-2.7-2.7-2.7c-1.5,0-2.7,1.2-2.7,2.7
							c0,1.5,1.2,2.7,2.7,2.7l0,0C1177.3,124.1,1178.5,122.9,1178.5,121.4C1178.5,121.4,1178.5,121.4,1178.5,121.4z"/>
						<path class="st31" d="M1179.9,115.4l-0.6,0.7l-1.4-1l0.4-0.8c-0.4-0.4-0.7-0.9-0.9-1.4l-0.9,0.1l-0.3-1.7l0.8-0.2
							c0-0.6,0.1-1.2,0.3-1.7l-0.7-0.6l1-1.4l0.8,0.4c0.4-0.4,0.9-0.7,1.4-0.9l-0.1-0.9l1.7-0.3l0.2,0.8c0.6,0,1.2,0.1,1.7,0.3
							l0.6-0.7l1.4,1l-0.4,0.8c0.4,0.4,0.7,0.9,0.9,1.4l0.9-0.1l0.3,1.7l-0.8,0.2c0,0.6-0.1,1.2-0.3,1.7l0.7,0.6l-1,1.4l-0.8-0.4
							c-0.4,0.4-0.9,0.7-1.4,0.9l0.1,0.9l-1.7,0.3l-0.2-0.8C1181,115.7,1180.4,115.6,1179.9,115.4z M1183.9,110.7
							c-0.3-1.2-1.5-2-2.7-1.8c-1.2,0.3-2,1.5-1.8,2.7c0.2,1.2,1.5,2,2.7,1.8c1.2-0.2,2-1.4,1.8-2.6
							C1183.9,110.8,1183.9,110.7,1183.9,110.7z"/>
						<path class="st31" d="M395.3,45v5.8l-3,0.3c-0.4,1.9-1.1,3.7-2.2,5.4l1.9,2.3l-4.1,4.1l-2.3-1.9c-1.6,1.1-3.5,1.8-5.4,2.2
							l-0.3,3H374l-0.3-3c-1.9-0.4-3.7-1.1-5.4-2.2l-2.3,1.9l-4.1-4.1l1.9-2.3c-1.1-1.6-1.8-3.5-2.2-5.4l-3-0.3V45l3-0.3
							c0.4-1.9,1.1-3.7,2.2-5.4l-1.9-2.3l4.1-4.1l2.3,1.9c1.6-1.1,3.5-1.8,5.4-2.2l0.3-3h5.8l0.3,3c1.9,0.4,3.7,1.1,5.4,2.2l2.3-1.9
							l4.1,4.1l-1.9,2.3c1.1,1.6,1.8,3.5,2.2,5.4L395.3,45z M376.9,40c-4.4,0-7.9,3.5-7.9,7.9c0,4.4,3.5,7.9,7.9,7.9
							c4.4,0,7.9-3.5,7.9-7.9v0c0-4.3-3.5-7.9-7.8-7.9C377,40,376.9,40,376.9,40z"/>
						<path class="st31" d="M1246.9,184.1v8.7l-4.5,0.4c-0.6,2.8-1.7,5.5-3.3,8l2.9,3.5l-6.1,6.1l-3.5-2.9c-2.4,1.6-5.1,2.7-8,3.3
							l-0.4,4.5h-8.7l-0.4-4.5c-2.8-0.6-5.5-1.7-8-3.3l-3.5,2.9l-6.1-6.1l2.9-3.5c-1.6-2.4-2.7-5.1-3.3-8l-4.5-0.4v-8.7l4.5-0.4
							c0.6-2.8,1.7-5.5,3.3-8l-2.9-3.5l6.1-6.1l3.5,2.9c2.4-1.6,5.1-2.7,8-3.3l0.4-4.5h8.7l0.4,4.5c2.8,0.6,5.5,1.7,8,3.3l3.5-2.9
							l6.1,6.1l-2.9,3.5c1.6,2.4,2.7,5.1,3.3,8L1246.9,184.1z M1219.6,176.7c-6.5,0-11.7,5.2-11.7,11.7s5.2,11.7,11.7,11.7
							c6.5,0,11.7-5.2,11.7-11.7c0,0,0,0,0,0C1231.3,181.9,1226.1,176.7,1219.6,176.7L1219.6,176.7z"/>
						<path class="st31" d="M106.5,258.9v5l-2.6,0.2c-0.3,1.6-1,3.2-1.9,4.6l1.6,2l-3.5,3.5l-2-1.6c-1.4,0.9-3,1.6-4.6,1.9l-0.2,2.6
							h-5l-0.2-2.6c-1.6-0.3-3.2-1-4.6-1.9l-2,1.6l-3.5-3.5l1.6-2c-0.9-1.4-1.6-3-1.9-4.6l-2.6-0.2v-5l2.6-0.2
							c0.3-1.6,1-3.2,1.9-4.6l-1.6-2l3.5-3.5l2,1.6c1.4-0.9,3-1.6,4.6-1.9l0.2-2.6h5l0.2,2.6c1.6,0.3,3.2,1,4.6,1.9l2-1.6l3.5,3.5
							l-1.6,2c0.9,1.4,1.6,3,1.9,4.6L106.5,258.9z M90.9,254.7c-3.7,0-6.7,3-6.7,6.7s3,6.7,6.7,6.7c3.7,0,6.7-3,6.7-6.7l0,0
							C97.6,257.7,94.6,254.7,90.9,254.7z"/>
						<path class="st31" d="M793.3,279.3c-2.2-0.5-4.4-1.4-6.3-2.6l-2.7,2.2l-4.8-4.8l2.2-2.7c-1.2-1.9-2.1-4.1-2.6-6.3l-3.5-0.3
							V258l3.5-0.3c0.5-2.2,1.4-4.4,2.6-6.3l-2.2-2.7l4.8-4.8l2.7,2.2c1.9-1.2,4.1-2.1,6.3-2.6l0.3-3.5h6.8l0.3,3.5
							c2.2,0.5,4.4,1.4,6.3,2.6l2.7-2.2l4.8,4.8l-2.2,2.7c1.2,1.9,2.1,4.1,2.6,6.3l3.5,0.3v6.8l-3.5,0.3c-0.5,2.2-1.4,4.4-2.6,6.3
							l2.2,2.7l-4.8,4.8l-2.7-2.2c-1.9,1.2-4.1,2.1-6.3,2.6l-0.3,3.5h-6.8L793.3,279.3z M806.3,261.5c0-5.1-4.1-9.2-9.2-9.2
							c-5.1,0-9.2,4.1-9.2,9.2c0,5.1,4.1,9.2,9.2,9.2C802.2,270.6,806.2,266.6,806.3,261.5z"/>
						<path class="st31" d="M66.8,120l-1.9,2.3l-4.7-3.2l1.4-2.6c-1.3-1.4-2.4-3-3.1-4.8l-2.9,0.3l-1.1-5.6l2.8-0.8
							c0-1.9,0.4-3.8,1.2-5.6l-2.3-1.9l3.2-4.7l2.6,1.4c1.4-1.3,3-2.4,4.8-3.1l-0.3-2.9l5.6-1.1l0.8,2.8c1.9,0,3.8,0.4,5.6,1.2
							l1.9-2.3l4.7,3.2l-1.4,2.6c1.3,1.4,2.4,3,3.1,4.8l2.9-0.3l1.1,5.6l-2.8,0.8c0,1.9-0.4,3.8-1.2,5.6l2.3,1.9l-3.2,4.7l-2.6-1.4
							c-1.4,1.3-3,2.4-4.8,3.1l0.3,2.9l-5.6,1.1l-0.8-2.8C70.5,121.1,68.6,120.7,66.8,120z M80.3,104.4c-0.8-4.2-4.8-7-9-6.2
							s-7,4.8-6.2,9s4.8,7,9,6.2c0,0,0,0,0,0C78.3,112.6,81.1,108.6,80.3,104.4C80.3,104.4,80.3,104.4,80.3,104.4z"/>
						<line class="st32" x1="499.2" y1="263.7" x2="566" y2="263.7"/>
						<line class="st32" x1="487.8" y1="275.2" x2="554.6" y2="275.2"/>
						<line class="st32" x1="499.6" y1="287" x2="566.4" y2="287"/>
						<line class="st32" x1="324.5" y1="174.4" x2="391.2" y2="174.4"/>
						<line class="st32" x1="313" y1="185.9" x2="379.8" y2="185.9"/>
						<line class="st32" x1="324.8" y1="197.7" x2="391.6" y2="197.7"/>
						<line class="st32" x1="103.7" y1="185" x2="163.7" y2="185"/>
						<line class="st32" x1="93.4" y1="195.3" x2="153.4" y2="195.3"/>
						<line class="st32" x1="104" y1="205.9" x2="164" y2="205.9"/>
						<path class="st32" d="M338.8,75.5c11,0,20,9,20,20"/>
						<path class="st32" d="M338.8,68.6c14.9,0,26.9,12,26.9,26.9"/>
						<path class="st32" d="M338.8,61.4c18.8,0,34.1,15.3,34.1,34.1"/>
						<path class="st32" d="M1179.7,68.4c16.3,0,29.6,13.3,29.6,29.6c0,0,0,0,0,0"/>
						<path class="st32" d="M1179.7,58.2c22,0,39.9,17.8,39.9,39.9c0,0,0,0,0,0"/>
						<path class="st32" d="M1179.7,47.5c27.9,0,50.5,22.6,50.5,50.5c0,0,0,0,0,0"/>
					</g>
				</g>
			</g>
		</g>
	</g>
</g>
</svg>
