<?xml version="1.0" encoding="utf-8"?>
<!-- Generator: Adobe Illustrator 26.0.2, SVG Export Plug-In . SVG Version: 6.00 Build 0)  -->
<svg version="1.1" id="Layer_1" xmlns="http://www.w3.org/2000/svg" xmlns:xlink="http://www.w3.org/1999/xlink" x="0px" y="0px"
	 viewBox="0 0 1245 300" style="enable-background:new 0 0 1245 300;" xml:space="preserve">
<style type="text/css">
	.st0{display:none;}
	.st1{display:inline;}
	.st2{fill:#407BFF;}
	.st3{opacity:0.9;fill:#FFFFFF;enable-background:new    ;}
	.st4{clip-path:url(#SVGID_00000099634285397189747780000005178431019835913360_);}
	.st5{fill:#99C3FF;}
	.st6{fill:#EBEBEB;}
	.st7{fill:#9F4A21;}
	.st8{fill:#934220;}
	.st9{fill:#646FD4;}
	.st10{fill:#E2CABF;}
	.st11{fill:#9BA3EB;}
	.st12{fill:#242F9B;}
	.st13{fill:#D0A16D;}
	.st14{fill:#F3ECE1;}
	.st15{fill:#E5BC85;}
	.st16{fill:#BB794E;}
	.st17{fill:#8692B0;}
	.st18{fill:#ABBED4;}
	.st19{opacity:0.2;fill:#ABBED4;enable-background:new    ;}
	.st20{fill:#C0D4EF;}
	.st21{fill:#873615;}
	.st22{fill:#623D35;}
	.st23{fill:#BF8557;}
	.st24{fill:#7F2B22;}
	.st25{fill:#8B633B;}
	.st26{fill:#CBB497;}
	.st27{fill:#50BFA5;}
	.st28{fill:#96D9C9;}
	.st29{fill:#3C8F7C;}
	.st30{opacity:0.6;fill:#C5DAFF;enable-background:new    ;}
	.st31{fill:#FFFFFF;}
	.st32{opacity:0.5;fill:#9BA3EB;enable-background:new    ;}
	.st33{opacity:0.4;enable-background:new    ;}
	.st34{opacity:0.2;enable-background:new    ;}
	.st35{opacity:0.7;fill:#9BA3EB;enable-background:new    ;}
	.st36{opacity:0.3;fill:#9BA3EB;enable-background:new    ;}
	.st37{fill:#F5F5F5;}
	.st38{fill:none;stroke:#013E56;stroke-width:6;stroke-miterlimit:10;}
	.st39{fill:none;stroke:#F5F5F5;stroke-width:4;stroke-linecap:round;stroke-miterlimit:10;}
</style>
<g id="Background_Simple" class="st0">
	<g class="st1">
		<path class="st2" d="M463.6,8.8c27.9-59.4,127.1-51.1,165.3-9.3c38.3,41.8,50.7,68.6,85.2,53s78.5-11.4,81,38.2
			s-37.8,108.3-102,125.6c-64.2,17.4-64.2,78.8-149.1,66.4c-46.3-6.8-47.4-56.9-40.8-98.3C509.7,142.9,431.2,77.8,463.6,8.8z"/>
		<path class="st3" d="M463.6,8.8c27.9-59.4,127.1-51.1,165.3-9.3c38.3,41.8,50.7,68.6,85.2,53s78.5-11.4,81,38.2
			s-37.8,108.3-102,125.6c-64.2,17.4-64.2,78.8-149.1,66.4c-46.3-6.8-47.4-56.9-40.8-98.3C509.7,142.9,431.2,77.8,463.6,8.8z"/>
	</g>
</g>
<g id="Device">
</g>
<g id="Character">
</g>
<g>
	<defs>
		<rect id="SVGID_1_" width="1245" height="300"/>
	</defs>
	<clipPath id="SVGID_00000160163508353590097440000007192536940136237976_">
		<use xlink:href="#SVGID_1_"  style="overflow:visible;"/>
	</clipPath>
	<g id="Background_Complete" style="clip-path:url(#SVGID_00000160163508353590097440000007192536940136237976_);">
		<path class="st5" d="M-13.7,99.9c0,0,202.3-118.7,488-51.3S811,32.9,953.4,11.7c69.4-10.4,247.8-2.8,278.1,64.7
			c30.3,67.4,0,242,0,242H-13.7V99.9z"/>
		<g>
			<rect x="766.2" y="263.6" class="st6" width="390.9" height="0.2"/>
			<rect x="1112.7" y="276.2" class="st6" width="25.9" height="0.2"/>
			<rect x="1039.1" y="278.3" class="st6" width="6.8" height="0.2"/>
			<rect x="1097" y="268.9" class="st6" width="15" height="0.2"/>
			<rect x="211.3" y="270.3" class="st6" width="33.8" height="0.2"/>
			<rect x="868.7" y="270.3" class="st6" width="5" height="0.2"/>
			<rect x="273.1" y="273.6" class="st6" width="73.2" height="0.2"/>
			<path class="st6" d="M342.5,228.8H152.4c-3.1,0-5.6-1.7-5.6-3.7V46.8c0-2.1,2.5-3.7,5.6-3.7h190.1c3.1,0,5.6,1.7,5.6,3.7V225
				C348.1,227.1,345.6,228.8,342.5,228.8z M152.4,43.2c-3,0-5.4,1.6-5.4,3.6V225c0,2,2.4,3.6,5.4,3.6h190.1c3,0,5.4-1.6,5.4-3.6
				V46.8c0-2-2.4-3.6-5.4-3.6H152.4z"/>
			<path class="st6" d="M1098.3,254.5H889.2c-3.4,0-6.2-2.1-6.2-4.8v-226c0-2.6,2.8-4.8,6.2-4.8h209.1c3.4,0,6.2,2.1,6.2,4.8v226.1
				C1104.4,252.4,1101.7,254.5,1098.3,254.5z M889.2,19.1c-3.3,0-5.9,2-5.9,4.5v226.1c0,2.5,2.6,4.5,5.9,4.5h209.1
				c3.3,0,5.9-2,5.9-4.5v-226c0-2.5-2.6-4.5-5.9-4.5H889.2V19.1z"/>
		</g>
		<g>
			<path class="st7" d="M281.6,97.2c0,0,14.2-16.8,12-25c-5.9-22.6-53.3-34.2-51.5-16.9c-13.8-8.9-31.9,43.3,1.1,57.7
				C274.4,126.8,281.6,97.2,281.6,97.2z"/>
			<path class="st8" d="M229.9,61.2c-2,11.7,9.9,16.7,16.7,12.9c7.2-4,16.7-4,24.7-3.9c8,0,9.2-4.2,9.2-4.2s3.3,9,9.2,11.6
				c1.5,0.7,2.6,0.7,3.3,0.4c-2.6,8.5-11.5,19.1-11.5,19.1s-9.4,27.3-38.3,15.7C220.3,102.9,222.1,74.5,229.9,61.2z"/>
			<g>
				<path class="st9" d="M288.6,243.2c6.6,9,46-30.1,63.9-14.5c14.7,12.8-35.8,61-93.3,62.3c-69.3,1.6-100.9-47-90.1-62.3
					c10.9-15.3,39.6,19.5,46.6,14.5C224.1,239.2,269.5,241,288.6,243.2z"/>
				<g>
					<path class="st10" d="M263.7,287.6c-6.7,1.4-24.5,0.4-25.8,0.9c-2.8,1.1-0.9,6.5,4.9,8c3.9,1,10.2,0.5,20.2-4.3L263.7,287.6z"
						/>
				</g>
				<path class="st11" d="M352.5,228.7c-18.2-14.4-45,31.9-94.5,58.1c0,0,0.6,5.8,5.8,6.7c0,0,44.3-11,68-28.4
					C351.3,250.7,360,234.5,352.5,228.7z"/>
				<g>
					<path class="st10" d="M276.4,286c6.7,1.3,24.5,0.1,25.8,0.6c2.8,1.1,0.9,6.5-4.8,8.1c-3.9,1-10.2,0.6-20.2-4.1L276.4,286z"/>
				</g>
				<path class="st12" d="M263.7,293.5c-5.1-1-5.8-6.7-5.8-6.7c4.7-2.5,9.3-5.2,13.6-8c10.1,4.4,18.8,5,22.9,5
					C277.9,290,263.7,293.5,263.7,293.5z"/>
				<path class="st11" d="M281.3,285.8c0,0-0.3,3.5-4.2,6.1c0,0-37.8-3.7-69.6-18.9c-27.7-13.3-43.3-36.9-38.4-44.3
					c7-10.5,18.8-0.6,52.1,22.4C236.2,261.4,281.3,285.8,281.3,285.8z"/>
				<path class="st12" d="M207.6,270.4c28.3,13.6,64.3,18.5,71.9,19.4c-0.6,0.7-1.3,1.4-2.3,2.1c0,0-37.8-3.7-69.6-18.9
					c-25.4-12.2-40.6-33-39.2-42.1C169.7,240.9,184.4,259.3,207.6,270.4z"/>
				<path class="st12" d="M290.4,244.4c0,0-13.9,10.5-36.5,10.2c-22.7-0.3-42.3-11.4-42.3-11.4c1.8,0.7,3.3,0.8,4.3,0.1
					c8.3-4,53.7-2.2,72.8,0C289,243.8,289.7,244.2,290.4,244.4z"/>
			</g>
			<path class="st13" d="M276.7,140.6c-12.9,3.7,1.4,62.2,9.9,80.1c11.5,24.3,47.9,45.4,47.9,45.4l3.8-2.1c0,0-36.4-45.5-39.8-54.5
				C295.2,200.6,287.4,137.6,276.7,140.6z"/>
			<g id="wrist_right_5_">
				<path class="st13" d="M332.5,259.4c0,0,11.6,3.4,13.2,3.9c6.1,2.1,5.6,4,5.6,4.6c0,0,2.2,3,1.8,3.5c-0.6,0.9-1.2-0.1-4.3-3.1
					c-0.7-0.7-2.6-2.3-2.9-2c-0.3,0.2,1.5,1.5,2.7,2.5c1,0.8,3.1,5.4,2.2,5.7c-0.9,0.3-2.9-3.4-3.9-4.4c-0.8-0.8-3-2.2-3.4-1.9
					c-0.4,0.3,1.8,2.4,2.2,2.9s2.2,3.2,1.5,3.8c-0.6,0.5-2-1.6-3.8-3.4c-1.3-1.3-5.7-3.6-6.3-3.6c-0.7,0,0,1.7,1,3
					c0.9,1.3,1.6,3.3,0.6,3.6c-1,0.2-2.7-3.6-4.9-6.1c-2.2-2.5-2.5-5.9-2.5-5.9S331.8,259.4,332.5,259.4z"/>
			</g>
			<path class="st14" d="M271.8,200.8c0,15.4,5,26.9,16.8,42.4c-23.1,7.9-47.5,7.2-72.8,0C223.2,218.4,240,203,240,200
				s-10.8-14.2-16.7-31c-6-17.2-3.4-26.2-3.4-26.2c21.7-9.7,34.4-12,59.1-1.9l0.9,15c0,0,6.7,11.7,5.9,16.9
				C285.2,178,271.8,192.6,271.8,200.8z"/>
			<path class="st11" d="M278.1,140.5c-1.1,2.7-8.1,8.3-25,8.8c-16.1,0.5-23.4-2.8-30.6-7.5C242.3,133.1,255,131.3,278.1,140.5z"/>
			<path class="st15" d="M276.2,139.8c-20.5-8.6-33.4-6.6-51.4,0.8c3.3,2,14.2,7.8,31.4,6.1C269.2,145.5,274.2,142.2,276.2,139.8z"
				/>
			<path class="st15" d="M237.7,100.3c0,0,5.9,22.1,0.8,37.5l15.6,2.7l9.6,0.1c0,0-3.8-11.1-3-23.9
				C261.4,107.1,237.7,100.3,237.7,100.3z"/>
			<path class="st16" d="M224.9,140.7c2.1,1.3,7.7,4.3,16,5.7c11.5-5.1,17.8-11.8,20.6-15.7c-0.6-4-1.1-8.8-0.8-14.1
				c0.1-1.1-0.2-2.2-0.8-3.2l-9.7-8c-6.1-3.2-12.6-5.1-12.6-5.1s5.4,20.4,1.3,35.7C234.6,137,230,138.6,224.9,140.7z"/>
			<path class="st10" d="M288.6,243.2c-23.1,7.9-47.5,7.2-72.8,0C223.2,218.4,240,203,240,200c0-2.7-9.1-12.5-15.1-27.1l0.1-0.1
				c0,0,20,8.6,43,6c15.9-1.8,18-6,18-6c-0.8,5.2-14.2,19.8-14.2,28C271.8,216.3,276.8,227.7,288.6,243.2z"/>
			<path class="st15" d="M220,142.8c-12.9,3.7,1.4,62.2,9.9,80.1c11.5,24.3,47.9,45.4,47.9,45.4l3.8-2.1c0,0-36.4-45.5-39.8-54.5
				C238.4,202.7,230.7,139.7,220,142.8z"/>
			<g>
				<path class="st11" d="M262.5,174.8c0,0,2.9-7.7,6.7-5.1c3.8,2.6-0.3,10.1-6.4,14.1c0,0-13.5-7.4-9.1-13.1
					C256.6,167,262.5,174.8,262.5,174.8z"/>
				<path class="st9" d="M268,178.8C268,178.8,268.1,178.8,268,178.8c-1.3,1.8-3.1,3.6-5.2,5c0,0-3.6-1.9-6.4-4.6
					C260.1,179.4,264,179.3,268,178.8z"/>
			</g>
			<g>
				<path class="st15" d="M280.9,264c4.5,1.1,10.3,1.7,10.7,3.6c0.9,4.1-5.6,6.7-8.9,5.7c-3.2-1.1-6-5.4-6-5.4
					S276.4,262.9,280.9,264z"/>
				<path class="st15" d="M300.3,273.1c0.6-0.4-2.3-4.2-3.2-4.8c-0.7-0.5-1.5-1.1-8.4-2.6l2.5,3.6c0,0,4.3,0.3,4.9,0.5
					C296.7,270,298,273.2,300.3,273.1z"/>
				<path class="st15" d="M295.2,280.7c1-0.1-0.2-4.4-0.8-5.4c-0.6-1.2-0.5-1.7-4.7-7.5L289,272c0,0,3.3,3.7,3.6,4.3
					C292.9,276.9,293.7,280.1,295.2,280.7z"/>
				<path class="st15" d="M291.8,281.4c0.9-0.1-0.2-4.3-0.7-5.2c-0.6-1.1-0.5-1.7-4.5-7.2l-0.6,4c0,0,3.2,3.6,3.4,4.1
					C289.7,277.8,290.4,280.8,291.8,281.4z"/>
				<path class="st15" d="M287.5,279.8c0.8-0.1-0.2-3.6-0.6-4.4c-0.5-1-0.4-1.4-3.8-6.1l-0.5,3.4c0,0,2.7,3,2.9,3.5
					C285.7,276.7,286.3,279.3,287.5,279.8z"/>
			</g>
			<g id="laptop_7_">
				<polygon class="st17" points="399.3,289.2 316.2,289.2 333.7,224.8 416.7,224.8 				"/>
				
					<rect x="276.6" y="290.2" transform="matrix(1 -1.208524e-03 1.208524e-03 1 -0.3535 0.4083)" class="st18" width="122.2" height="5"/>
				<polygon class="st18" points="399.3,289.1 318.2,289.2 335.3,226.1 416.4,226 				"/>
				<path class="st17" d="M375.1,256.9c-1,3.1-4.6,5.6-8,5.6s-5.3-2.5-4.3-5.6s4.6-5.6,8-5.6C374.2,251.3,376.1,253.8,375.1,256.9z"
					/>
				<polygon class="st19" points="318.2,289.2 335.3,226.1 416.4,226 				"/>
				
					<rect x="276.6" y="290.2" transform="matrix(1 -1.075992e-03 1.075992e-03 1 -0.3148 0.319)" class="st17" width="39.4" height="5"/>
				
					<rect x="326.4" y="289.2" transform="matrix(1 -1.263347e-03 1.263347e-03 1 -0.3665 0.4222)" class="st17" width="15.2" height="2.2"/>
				
					<rect x="380.7" y="289.2" transform="matrix(1 -1.274950e-03 1.274950e-03 1 -0.3698 0.4939)" class="st17" width="13" height="2.2"/>
				<polygon class="st20" points="335.8,226.9 416.2,226.8 416.4,226 335.3,226.1 318.2,289.2 319,289.2 				"/>
			</g>
			<g>
				<path class="st7" d="M241.9,98.4c0,0-7.5,9.4-3.1,30.1c4.5,20.6,14.5,31.9,14.5,31.9l-2,2.2c0,0-18.4-9.8-25.5-31.9
					c-7.1-22.2-0.9-39.1-0.9-39.1L241.9,98.4z"/>
				<path class="st8" d="M221.3,101.6c0,0-10.2,11.3,4.4,29c0,0-6.7,7.7,10.9,19.9c0,0,1.4,7.9,14.7,12.1l2-2.2c0,0-3-19.5-9.1-15.9
					c0,0,1-19.9-5.6-16.8c0,0,6.2-15.9-0.3-23.9c0,0,3-0.3,3.6-5.3l-17.1-12.8C221.7,90.2,220.5,95.5,221.3,101.6z"/>
				<path class="st8" d="M253.3,160.4c0,0,4.7,1,5.6,6.5c0.9,5.4-2.7,9.4-2.7,9.4s1.6-2.8-1.5-5.8s-3.5-7.9-3.5-7.9L253.3,160.4z"/>
				<path class="st21" d="M233.7,108l-4.4,8.9l-6.9-7.6C222.4,109.3,229.2,113.1,233.7,108z"/>
				<path class="st21" d="M237,129l-1.5,10l-7-7.3C228.5,131.7,235.3,132.3,237,129z"/>
				<path class="st21" d="M243.7,146.1l2.2,8.1l-7.3-4.5C238.5,149.7,241.6,149.7,243.7,146.1z"/>
				<path class="st21" d="M253.3,160.4c0,0-0.6,2.2-2,2.2l0.2,1.1c0,0,2.4-0.7,2.6-3L253.3,160.4z"/>
			</g>
			<path class="st8" d="M287.8,87.2c0,0-1.7,3.3-1.7,8.1c0,4.8,2.7,14.8-5.9,20.8c0,0,2.5-2.3,4.2-10.3s-0.4-9.3,0.4-16
				C285.3,84.5,287.8,87.2,287.8,87.2z"/>
			<path class="st15" d="M263.1,127.2c2.3,0,6.2-3.6,8.6-5.5c5.2-3.9,10.2-8.8,8.8-21.1c0,0,13.1-29.6-11.8-35.4
				c-24.9-5.9-32.2,18.7-29,38.2C242.9,122.9,261,127.2,263.1,127.2z"/>
			<path class="st13" d="M262.3,64.4c-18.1,0.9-27.5,54.5,1.1,62.8c-0.1,0-0.2,0.1-0.3,0c-2.2,0-20.2-4.3-23.4-23.8
				C236.8,85.7,242.6,63.9,262.3,64.4z"/>
			<g>
				<path class="st13" d="M233,98.5c-0.5,2.9,1.5,5.7,4.4,6.2s5.7-1.5,6.2-4.4s-1.5-5.7-4.4-6.2S233.5,95.5,233,98.5z"/>
				<path class="st16" d="M238.9,95.9c0.8,0.1,1.4,0.5,1.9,1.1c-0.3-0.1-0.6-0.3-0.9-0.3c-1.6-0.3-3.2,0.8-3.5,2.5
					c-0.3,1.6,0.8,3.2,2.5,3.5c0.3,0,0.5,0,0.7,0c-0.6,0.3-1.2,0.4-1.9,0.3c-1.9-0.3-3.2-2.1-2.9-4C235.2,96.9,237,95.6,238.9,95.9z
					"/>
			</g>
			<g>
				<g>
					<path class="st22" d="M261.1,95.6c1.1-6.4-9.7-5-12-2.2l1.9,0.8C252.9,92,261.3,90.6,261.1,95.6z"/>
					<polygon class="st22" points="261.1,95.6 261.2,95.6 261.2,95.6 					"/>
				</g>
				<path class="st22" d="M250.7,95.4c0-0.1,0-0.1,0-0.2c-0.8-0.1-0.1,2.2,3.8,3.2c2.8,0.6,4.2-0.1,4.2-0.1
					C256,99.1,251.6,97.4,250.7,95.4z"/>
				<path class="st14" d="M261.2,95.6c0.2-5.9-11.6-2.9-10.4-0.2C252,98.3,261,100.7,261.2,95.6z"/>
				<path class="st22" d="M253.3,94.7c-0.5,1.8,0.7,3.6,2.7,3.9s4-0.9,4.5-2.8s-0.7-3.6-2.7-3.9C255.8,91.6,253.8,92.9,253.3,94.7z"
					/>
			</g>
			<g>
				<path class="st14" d="M271.3,96.7c1.9-5,11.1-0.3,8,3.2C277,102.4,269.5,101.2,271.3,96.7z"/>
				<path class="st22" d="M279.1,98.6c-0.5,1.8-2.5,3-4.3,2.6c-1.9-0.3-3-2.1-2.5-3.9s2.5-3,4.3-2.6C278.5,95,279.6,96.8,279.1,98.6
					z"/>
				<path class="st22" d="M279.8,98.8l2.3-0.4c-1.1-4.1-8.7-7.5-10.8-1.9h0.1C273.2,92.3,280.6,95.6,279.8,98.8z"/>
				<path class="st22" d="M271,98.2c-0.1,0.4-0.1,1.9,1.9,2.7c2.7,1.1,4.8-0.2,4.8-0.2C275.2,101.7,271.3,100.8,271,98.2z"/>
			</g>
			<path class="st23" d="M273.3,88.5c0,0-5.6,3.8-5.6,10s4.9,8.5,4.9,8.5s-2,4.1-5.9,3.5s3.8-3.6,3.8-3.6s-4.8-4.2-4.7-8.6
				C266.1,91.9,273.3,88.5,273.3,88.5z"/>
			<path class="st7" d="M257.1,66.2c0,0-7.3,1.3-10.4,10.4c-3.1,9.1-2.3,19.2-4.6,19.3c-1.2,0-3.5-2.5-3.5-2.5s-4.3-31.4,14.2-31.6
				L257.1,66.2z"/>
			<path class="st8" d="M261.9,85.1c0,0.6-2.2,0.1-6.6,0.3c-4,0.2-7,1.1-7,0.5s2.3-2.2,7-2.5C259.8,83.2,262,84,261.9,85.1z"/>
			<path class="st8" d="M283.7,93c-0.1,0.4-1-1.1-4-3c-2.5-1.6-5.7-2.1-5.5-2.6c0.4-1.5,4.3-0.4,6.1,0.9
				C283.7,90.6,283.9,92.5,283.7,93z"/>
			<g>
				<path class="st24" d="M256.4,112.6c-0.1,0.2-0.7,0-0.9-0.1s-0.2-0.3-0.1-0.5s0.3-0.2,0.5-0.1
					C256.1,111.9,256.5,112.4,256.4,112.6z"/>
				<path class="st24" d="M271.9,114.9c0.1,0.2,0.7,0.1,0.9,0c0.2-0.1,0.3-0.3,0.2-0.5c-0.1-0.2-0.3-0.3-0.5-0.2
					C272.2,114.3,271.8,114.7,271.9,114.9z"/>
				<path class="st25" d="M255.9,112.3l16.4,2.4c0,0-3.4,4.5-8.7,3.8C258.4,117.9,255.9,112.3,255.9,112.3z"/>
				<path class="st24" d="M255.9,112.3l16.4,2.4c0,0-3.4,4.5-8.7,3.8C258.4,117.9,255.9,112.3,255.9,112.3z"/>
				<path class="st14" d="M257.1,112.9l13.3,2c0,0-3.2,3.9-7.5,2.9C258.5,116.7,257.1,112.9,257.1,112.9z"/>
				<path class="st26" d="M257.1,112.9l13.3,2l-0.9,0.9c0,0-1.3-1-5.7-1.6c-4.4-0.6-6.2-0.3-6.2-0.3S257.2,113.2,257.1,112.9z"/>
			</g>
			<path class="st7" d="M282.6,68.3c0,0-1.9,4.8-9.6,5.2c-17.9,0.9-23.3,0.4-30.7,13.9c0,0-0.3-16.6,10.6-23.1
				C259.4,60.4,270.3,58.4,282.6,68.3z"/>
			<path class="st8" d="M271.3,70.2c6.3,0,8.4-2.6,9-3.7c0.2,0.2,0.4,0.3,0.7,0.5c0.2,0.6,0.6,1.3,1.1,2.2c-1,1.4-3.5,3.9-9.1,4.2
				c-17.9,0.9-23.3,0.4-30.7,13.9c0,0-0.1-6.1,2.2-12.3c0.7-0.2,1.4-0.4,2-0.8C253.8,70.2,263.3,70.2,271.3,70.2z"/>
			<path class="st8" d="M246.6,74.2c0.4-0.2,0.9-0.4,1.4-0.7c-0.5,0.9-1,2-1.4,3.1c-3.1,9.1-2.3,19.2-4.6,19.3
				c-1.2,0-3.5-2.5-3.5-2.5s-1.3-9.7,0.7-18.3C241.8,75.7,244.5,75.4,246.6,74.2z"/>
			<path class="st8" d="M261.8,74.2c0,0-8.9-1.2-13.1,8.1s-2,19.6-2.7,26.5s-6.4,10.2-6.4,10.2s3.1-5.4,4.1-10.5
				c1.4-7.6,1.2-13.7,0.3-20.4C241.2,77.8,249,68.2,261.8,74.2z"/>
			<path class="st13" d="M217.2,145c-4.4,15.5,7.9,59.6,15.3,75c9.3,19.6,34.1,39.9,43.7,47.3c-7.2-4.4-36.3-23.2-46.3-44.4
				C222.2,206.6,209.6,156.6,217.2,145z"/>
		</g>
	</g>
	<g style="clip-path:url(#SVGID_00000160163508353590097440000007192536940136237976_);">
		<path class="st27" d="M29.9,229l2.2-5.3c1.7-3.9,6.1-5.8,9.8-4.2l0,0c9.3,4.1,13.4,15.4,9.1,25.3l-3.2,7.2c-1.4,3.2-0.9,6.7,1,9.1
			c1.7,2.2,2,5.3,0.8,8l-1.7,3.8c-1.8,4.1-5.3,7.2-9.5,8.5c-2.4,0.7-4.6,2.6-5.7,5.2l-2.4,5.4c-2.6,6-9.3,8.8-14.9,6.4l-3.2-1.4
			c-5.6-2.5-8.1-9.3-5.5-15.3l0,0c4.2-7.1,3.9-12.5,2.4-16.1c-2.2-5.3-2.2-11.4,0.2-16.9l0.3-0.8c2.5-5.7,7.4-10,13.1-11.9
			C25.3,235.3,28,233.3,29.9,229z"/>
		<path class="st28" d="M-10,304.6c4.5-5.9,29.4-37.3,45.5-42.6c17.9-5.8,1,17.2,1,17.2s31.7-34.7,43.3-31.5c10.7,2.9,0,24.4,0,24.4
			s12-11.9,26.6-11.9c14.2,0-9.9,42.2-11.2,44.5H-10V304.6z"/>
		<g>
			<g>
				<path class="st29" d="M85.6,236.5c-13,20.2-22.4,42.7-27.8,66.6l-0.9-0.2c5.4-23.4,14.8-45.8,27.7-66c3-4.7,6.2-10.3,11.9-12.1
					c0.1,0,0.1,0.1,0,0.2C91.4,226.9,88.4,232.1,85.6,236.5z"/>
			</g>
			<g>
				<path class="st29" d="M60.9,303.9c14.5-19.7,32.1-37.9,53-53.7c0.2-0.2,0.5,0.2,0.3,0.4c-19.8,15.3-37.4,33.3-52.2,53.6
					L60.9,303.9z"/>
			</g>
			<path class="st29" d="M86.8,224c0.3,0.5,1.6,1.8,2,3.5c0.5,1.6,0.1,3.6,0.1,3.5c-0.1,0,1.5-1.3,2-3.4c0.6-2,0.2-4.8-0.6-5.8
				c-1.4-2.1-3.8-2.3-4.2-1.3C85.5,221.5,86.1,222.9,86.8,224z"/>
			<path class="st29" d="M89.9,242c-0.5-0.3-1.7-1.6-3.4-2.1c-1.6-0.5-3.6-0.2-3.5-0.1c0,0.1,1.3-1.5,3.4-1.9c2-0.6,4.8-0.1,5.8,0.7
				c2.1,1.4,2.2,3.8,1.2,4.2C92.3,243.4,91,242.7,89.9,242z"/>
			<path class="st29" d="M85.2,249.9c-0.5-0.3-1.7-1.6-3.4-2.1c-1.6-0.5-3.6-0.2-3.5-0.1c0,0.1,1.3-1.5,3.4-1.9
				c2-0.6,4.8-0.1,5.8,0.7c2.1,1.4,2.2,3.8,1.2,4.2C87.6,251.3,86.3,250.6,85.2,249.9z"/>
			<path class="st29" d="M101.9,268.3c-0.5-0.3-1.7-1.6-3.4-2.1c-1.6-0.5-3.6-0.2-3.5-0.1c0,0.1,1.3-1.5,3.4-1.9
				c2-0.6,4.8-0.1,5.8,0.7c2.1,1.4,2.2,3.8,1.2,4.2C104.3,269.6,103,269,101.9,268.3z"/>
			<path class="st29" d="M110.4,260.8c-0.5-0.3-1.7-1.6-3.4-2.1c-1.6-0.5-3.6-0.2-3.5-0.1c0,0.1,1.3-1.5,3.4-1.9
				c2-0.6,4.8-0.1,5.8,0.7c2.1,1.4,2.2,3.8,1.2,4.2C112.8,262.1,111.5,261.5,110.4,260.8z"/>
			<path class="st29" d="M80.2,232.9c0.4,0.4,1.9,1.5,2.5,3.1c0.8,1.5,0.7,3.5,0.6,3.5c-0.1,0.1,1.3-1.5,1.4-3.7
				c0.3-2.1-0.6-4.8-1.5-5.6c-1.7-1.9-4.1-1.7-4.4-0.6C78.5,230.7,79.4,231.9,80.2,232.9z"/>
			<path class="st29" d="M73.3,241.9c0.6,0.3,2.6,0.9,3.6,2.4c1.2,1.3,1.3,3.7,1.2,3.6c-0.1,0.1,1.4-2.2,1.4-4.7
				c0.1-2.5-1.3-5.1-2.6-5.6c-2.4-1.4-5.5-0.1-5.7,1.2C70.9,240.1,72.1,241.2,73.3,241.9z"/>
			<path class="st29" d="M66.1,255.5c0.6,0.2,2.7,0.4,4,1.7c1.4,1.1,1.9,3.4,1.8,3.3c-0.1,0.1,1-2.4,0.6-4.9
				c-0.3-2.5-2.2-4.8-3.5-5.1c-2.6-0.9-5.4,0.8-5.5,2.1C63.4,254.1,64.8,255,66.1,255.5z"/>
			<path class="st29" d="M87.5,265c0.5,0.3,2.1,0.8,2.8,2.1c0.9,1.2,0.8,3,0.8,3c-0.1,0.1,1.3-1.7,1.4-3.7c0.3-2-0.8-4.2-1.8-4.7
				c-1.9-1.2-4.4-0.4-4.7,0.6C85.6,263.4,86.6,264.3,87.5,265z"/>
			<path class="st29" d="M98.7,227.2c-0.3-0.2-1-1-1.9-1.4s-2.1-0.3-2.1-0.2s0.8-0.8,2.1-1c1.2-0.3,2.9,0.2,3.4,0.7
				c1.2,0.9,1.2,2.3,0.5,2.6C100.1,228.1,99.3,227.6,98.7,227.2z"/>
			<path class="st29" d="M96.1,221.4c0,0.3,0.2,1.4-0.1,2.4c-0.3,1-1.1,1.8-1.1,1.8c-0.1,0,1.2-0.2,2.1-1.1c1-0.8,1.6-2.4,1.5-3.1
				c0-1.5-1.1-2.4-1.7-2C96.2,219.7,96.1,220.6,96.1,221.4z"/>
			<path class="st29" d="M116.5,253.1c-0.3-0.2-1-1-1.9-1.4s-2.1-0.3-2.1-0.2s0.8-0.8,2.1-1c1.2-0.3,2.9,0.2,3.4,0.7
				c1.2,0.9,1.2,2.3,0.5,2.6C117.9,254.1,117.1,253.6,116.5,253.1z"/>
			<path class="st29" d="M113.4,247.3c0,0.3,0.4,1.4,0.1,2.4c-0.2,1-0.9,1.9-0.9,1.9c-0.1,0,1.1-0.3,2-1.2s1.4-2.5,1.3-3.2
				c-0.1-1.5-1.3-2.3-1.9-1.8C113.4,245.7,113.3,246.5,113.4,247.3z"/>
		</g>
		<g>
			<g>
				<path class="st29" d="M111.2,285c-13.2,1.5-25.5,7.3-37.4,13c-8,3.8-7.6,4.9-9.2,5.5c-0.3,0.1-0.5-0.2-0.4-0.4
					c0.6-1.2,2.3-2.1,3.4-2.8c1.3-0.8,2.7-1.6,4.1-2.3c3-1.5,6.1-2.8,9.2-4.1c6.3-2.7,12.6-5.3,19.2-7c3.6-1,7.3-1.6,11-2
					C111.3,284.9,111.3,285,111.2,285L111.2,285z"/>
			</g>
			<path class="st29" d="M99.3,280.9c0.1,0.5,0.7,2.1,0.3,3.7c-0.2,1.5-1.3,3-1.3,3c-0.1,0,1.7-0.5,3-2.1c1.3-1.5,2.1-4,1.8-5.1
				c-0.3-2.3-2.2-3.4-3-2.8C99.2,278.3,99.2,279.7,99.3,280.9z"/>
			<path class="st29" d="M87.6,285c0.1,0.5,0.7,2.1,0.3,3.7c-0.2,1.5-1.3,3-1.3,3c-0.1,0,1.7-0.5,3-2.1c1.3-1.5,2.1-4,1.8-5.1
				c-0.3-2.3-2.2-3.4-3-2.8C87.5,282.4,87.5,283.8,87.6,285z"/>
			<path class="st29" d="M75.8,290.3c0.1,0.5,0.7,2.1,0.3,3.7c-0.2,1.5-1.3,3-1.3,3c-0.1,0,1.7-0.5,3-2.1c1.3-1.5,2.1-4,1.8-5.1
				c-0.3-2.3-2.2-3.4-3-2.8C75.7,287.7,75.7,289.1,75.8,290.3z"/>
			<path class="st29" d="M102.8,291.7c-0.2-0.4-0.7-1.9-1.8-2.9c-1-1-2.7-1.5-2.6-1.5c-0.1,0.1,1.6-0.6,3.4-0.1
				c1.8,0.3,3.7,1.8,4.1,2.8c1.1,1.9,0.3,3.8-0.7,3.7C104.1,293.7,103.3,292.7,102.8,291.7z"/>
			<path class="st29" d="M90.6,296c-0.2-0.4-0.7-1.9-1.8-2.9c-1-1-2.7-1.5-2.6-1.5c-0.1,0.1,1.6-0.6,3.4-0.1
				c1.8,0.3,3.7,1.8,4.1,2.8c1.1,1.9,0.3,3.8-0.7,3.7C92,298,91.2,297,90.6,296z"/>
			<path class="st29" d="M112,287.3c-0.2-0.3-0.7-1.1-1.5-1.6s-1.9-0.6-1.9-0.6s0.9-0.6,2.1-0.5c1.2,0,2.6,0.6,3,1.2
				c0.9,1,0.7,2.3,0.1,2.4C113.1,288.4,112.5,287.9,112,287.3z"/>
			<path class="st29" d="M110.6,281.6c0,0.3,0,1.3-0.5,2.1c-0.4,0.8-1.3,1.5-1.3,1.4c-0.1,0,1.1,0,2.1-0.6s1.9-1.9,1.9-2.6
				c0.2-1.4-0.7-2.3-1.2-2.1C111,280.1,110.7,280.9,110.6,281.6z"/>
		</g>
	</g>
	<g style="clip-path:url(#SVGID_00000160163508353590097440000007192536940136237976_);">
		<path class="st27" d="M1215.2,229l-2.2-5.3c-1.7-3.9-6.1-5.8-9.8-4.2l0,0c-9.3,4.1-13.4,15.4-9.1,25.3l3.2,7.2
			c1.4,3.2,0.9,6.7-1,9.1c-1.7,2.2-2,5.3-0.8,8l1.7,3.8c1.8,4.1,5.3,7.2,9.5,8.5c2.4,0.7,4.6,2.6,5.7,5.2l2.4,5.4
			c2.6,6,9.3,8.8,14.9,6.4l3.2-1.4c5.6-2.5,8.1-9.3,5.5-15.3l0,0c-4.2-7.1-3.9-12.5-2.4-16.1c2.2-5.3,2.2-11.4-0.2-16.9l-0.3-0.8
			c-2.5-5.7-7.4-10-13.1-11.9C1219.7,235.3,1217.1,233.3,1215.2,229z"/>
		<path class="st28" d="M1255,304.6c-4.5-5.9-29.4-37.3-45.5-42.6c-17.9-5.8-1,17.2-1,17.2s-31.7-34.7-43.3-31.5
			c-10.7,2.9,0,24.4,0,24.4s-12-11.9-26.6-11.9c-14.2,0,9.9,42.2,11.2,44.5L1255,304.6L1255,304.6z"/>
		<g>
			<g>
				<path class="st29" d="M1159.5,236.5c13,20.2,22.4,42.7,27.8,66.6l0.9-0.2c-5.4-23.4-14.8-45.8-27.7-66
					c-3-4.7-6.2-10.3-11.9-12.1c-0.1,0-0.1,0.1,0,0.2C1153.7,226.9,1156.7,232.1,1159.5,236.5z"/>
			</g>
			<g>
				<path class="st29" d="M1184.2,303.9c-14.5-19.7-32.1-37.9-53-53.7c-0.2-0.2-0.5,0.2-0.3,0.4c19.8,15.3,37.4,33.3,52.2,53.6
					L1184.2,303.9z"/>
			</g>
			<path class="st29" d="M1158.3,224c-0.3,0.5-1.6,1.8-2,3.5c-0.5,1.6-0.1,3.6-0.1,3.5c0.1,0-1.5-1.3-2-3.4c-0.6-2-0.2-4.8,0.6-5.8
				c1.4-2.1,3.8-2.3,4.2-1.3C1159.6,221.5,1159,222.9,1158.3,224z"/>
			<path class="st29" d="M1155.2,242c0.5-0.3,1.7-1.6,3.4-2.1c1.6-0.5,3.6-0.2,3.5-0.1c0,0.1-1.3-1.5-3.4-1.9
				c-2-0.6-4.8-0.1-5.8,0.7c-2.1,1.4-2.2,3.8-1.2,4.2C1152.7,243.4,1154.1,242.7,1155.2,242z"/>
			<path class="st29" d="M1159.9,249.9c0.5-0.3,1.7-1.6,3.4-2.1c1.6-0.5,3.6-0.2,3.5-0.1c0,0.1-1.3-1.5-3.4-1.9
				c-2-0.6-4.8-0.1-5.8,0.7c-2.1,1.4-2.2,3.8-1.2,4.2C1157.4,251.3,1158.8,250.6,1159.9,249.9z"/>
			<path class="st29" d="M1143.2,268.3c0.5-0.3,1.7-1.6,3.4-2.1c1.6-0.5,3.6-0.2,3.5-0.1c0,0.1-1.3-1.5-3.4-1.9
				c-2-0.6-4.8-0.1-5.8,0.7c-2.1,1.4-2.2,3.8-1.2,4.2C1140.7,269.6,1142.1,269,1143.2,268.3z"/>
			<path class="st29" d="M1134.7,260.8c0.5-0.3,1.7-1.6,3.4-2.1c1.6-0.5,3.6-0.2,3.5-0.1c0,0.1-1.3-1.5-3.4-1.9
				c-2-0.6-4.8-0.1-5.8,0.7c-2.1,1.4-2.2,3.8-1.2,4.2C1132.2,262.1,1133.6,261.5,1134.7,260.8z"/>
			<path class="st29" d="M1164.8,232.9c-0.4,0.4-1.9,1.5-2.5,3.1c-0.8,1.5-0.7,3.5-0.6,3.5c0.1,0.1-1.3-1.5-1.4-3.7
				c-0.3-2.1,0.6-4.8,1.5-5.6c1.7-1.9,4.1-1.7,4.4-0.6C1166.5,230.7,1165.7,231.9,1164.8,232.9z"/>
			<path class="st29" d="M1171.7,241.9c-0.6,0.3-2.6,0.9-3.6,2.4c-1.2,1.3-1.3,3.7-1.2,3.6c0.1,0.1-1.4-2.2-1.4-4.7
				c-0.1-2.5,1.3-5.1,2.6-5.6c2.4-1.4,5.5-0.1,5.7,1.2C1174.2,240.1,1172.9,241.2,1171.7,241.9z"/>
			<path class="st29" d="M1179,255.5c-0.6,0.2-2.7,0.4-4,1.7c-1.4,1.1-1.9,3.4-1.8,3.3c0.1,0.1-1-2.4-0.6-4.9
				c0.3-2.5,2.2-4.8,3.5-5.1c2.6-0.9,5.4,0.8,5.5,2.1C1181.7,254.1,1180.3,255,1179,255.5z"/>
			<path class="st29" d="M1157.5,265c-0.5,0.3-2.1,0.8-2.8,2.1c-0.9,1.2-0.8,3-0.8,3c0.1,0.1-1.3-1.7-1.4-3.7
				c-0.3-2,0.8-4.2,1.8-4.7c1.9-1.2,4.4-0.4,4.7,0.6C1159.4,263.4,1158.5,264.3,1157.5,265z"/>
			<path class="st29" d="M1146.4,227.2c0.3-0.2,1-1,1.9-1.4s2.1-0.3,2.1-0.2s-0.8-0.8-2.1-1c-1.2-0.3-2.9,0.2-3.4,0.7
				c-1.2,0.9-1.2,2.3-0.5,2.6C1145,228.1,1145.8,227.6,1146.4,227.2z"/>
			<path class="st29" d="M1149,221.4c0,0.3-0.2,1.4,0.1,2.4c0.3,1,1.1,1.8,1.1,1.8c0.1,0-1.2-0.2-2.1-1.1c-1-0.8-1.6-2.4-1.5-3.1
				c0-1.5,1.1-2.4,1.7-2C1148.8,219.7,1149,220.6,1149,221.4z"/>
			<path class="st29" d="M1128.5,253.1c0.3-0.2,1-1,1.9-1.4s2.1-0.3,2.1-0.2s-0.8-0.8-2.1-1c-1.2-0.3-2.9,0.2-3.4,0.7
				c-1.2,0.9-1.2,2.3-0.5,2.6C1127.1,254.1,1127.9,253.6,1128.5,253.1z"/>
			<path class="st29" d="M1131.7,247.3c0,0.3-0.4,1.4-0.1,2.4c0.2,1,0.9,1.9,0.9,1.9c0.1,0-1.1-0.3-2-1.2s-1.4-2.5-1.3-3.2
				c0.1-1.5,1.3-2.3,1.9-1.8C1131.7,245.7,1131.7,246.5,1131.7,247.3z"/>
		</g>
		<g>
			<g>
				<path class="st29" d="M1133.9,285c13.2,1.5,25.5,7.3,37.4,13c8,3.8,7.6,4.9,9.2,5.5c0.3,0.1,0.5-0.2,0.4-0.4
					c-0.6-1.2-2.3-2.1-3.4-2.8c-1.3-0.8-2.7-1.6-4.1-2.3c-3-1.5-6.1-2.8-9.2-4.1c-6.3-2.7-12.6-5.3-19.2-7c-3.6-1-7.3-1.6-11-2
					C1133.8,284.9,1133.8,285,1133.9,285L1133.9,285z"/>
			</g>
			<path class="st29" d="M1145.8,280.9c-0.1,0.5-0.7,2.1-0.3,3.7c0.2,1.5,1.3,3,1.3,3c0.1,0-1.7-0.5-3-2.1c-1.3-1.5-2.1-4-1.8-5.1
				c0.3-2.3,2.2-3.4,3-2.8C1145.9,278.3,1145.9,279.7,1145.8,280.9z"/>
			<path class="st29" d="M1157.4,285c-0.1,0.5-0.7,2.1-0.3,3.7c0.2,1.5,1.3,3,1.3,3c0.1,0-1.7-0.5-3-2.1c-1.3-1.5-2.1-4-1.8-5.1
				c0.3-2.3,2.2-3.4,3-2.8C1157.5,282.4,1157.6,283.8,1157.4,285z"/>
			<path class="st29" d="M1169.3,290.3c-0.1,0.5-0.7,2.1-0.3,3.7c0.2,1.5,1.3,3,1.3,3c0.1,0-1.7-0.5-3-2.1c-1.3-1.5-2.1-4-1.8-5.1
				c0.3-2.3,2.2-3.4,3-2.8C1169.4,287.7,1169.4,289.1,1169.3,290.3z"/>
			<path class="st29" d="M1142.3,291.7c0.2-0.4,0.7-1.9,1.8-2.9c1-1,2.7-1.5,2.6-1.5c0.1,0.1-1.6-0.6-3.4-0.1
				c-1.8,0.3-3.7,1.8-4.1,2.8c-1.1,1.9-0.3,3.8,0.7,3.7C1140.9,293.7,1141.7,292.7,1142.3,291.7z"/>
			<path class="st29" d="M1154.4,296c0.2-0.4,0.7-1.9,1.8-2.9c1-1,2.7-1.5,2.6-1.5c0.1,0.1-1.6-0.6-3.4-0.1
				c-1.8,0.3-3.7,1.8-4.1,2.8c-1.1,1.9-0.3,3.8,0.7,3.7C1153,298,1153.8,297,1154.4,296z"/>
			<path class="st29" d="M1133.1,287.3c0.2-0.3,0.7-1.1,1.5-1.6s1.9-0.6,1.9-0.6s-0.9-0.6-2.1-0.5c-1.2,0-2.6,0.6-3,1.2
				c-0.9,1-0.7,2.3-0.1,2.4C1131.9,288.4,1132.6,287.9,1133.1,287.3z"/>
			<path class="st29" d="M1134.5,281.6c0.1,0.3,0,1.3,0.5,2.1c0.4,0.8,1.3,1.5,1.3,1.4c0.1,0-1.1,0-2.1-0.6s-1.9-1.9-1.9-2.6
				c-0.2-1.4,0.7-2.3,1.2-2.1C1134.1,280.1,1134.3,280.9,1134.5,281.6z"/>
		</g>
	</g>
	<g id="Shadow_1_" style="clip-path:url(#SVGID_00000160163508353590097440000007192536940136237976_);">
		
			<ellipse id="_x3C_Path_x3E__00000083795496289012420600000012969471465110510742_" class="st30" cx="980.6" cy="287.7" rx="183.5" ry="10.7"/>
	</g>
	<g id="Window_3" style="clip-path:url(#SVGID_00000160163508353590097440000007192536940136237976_);">
		<g>
			<g>
				<path class="st11" d="M1111.2,76.9v118.6l-19.7,19.7h-78c-1.7,0-3-1.4-3-3V76.9c0-1.7,1.4-3,3-3h94.7
					C1109.8,73.8,1111.2,75.2,1111.2,76.9z"/>
				<path class="st31" d="M1111.2,82v113.4l-19.7,19.7h-78c-1.7,0-3-1.4-3-3V82H1111.2z"/>
				<path class="st31" d="M1108.5,77.6c0,0.8-0.7,1.5-1.5,1.5s-1.5-0.7-1.5-1.5s0.7-1.5,1.5-1.5
					C1107.9,76.1,1108.5,76.8,1108.5,77.6z"/>
				<path class="st31" d="M1102.9,77.6c0,0.8-0.7,1.5-1.5,1.5s-1.5-0.7-1.5-1.5s0.7-1.5,1.5-1.5S1102.9,76.8,1102.9,77.6z"/>
				<path class="st31" d="M1097.3,77.6c0,0.8-0.7,1.5-1.5,1.5s-1.5-0.7-1.5-1.5s0.7-1.5,1.5-1.5
					C1096.6,76.1,1097.3,76.8,1097.3,77.6z"/>
			</g>
			<g>
				<path class="st11" d="M1071.6,91.2h-54c-0.5,0-0.9-0.4-0.9-0.9s0.4-0.9,0.9-0.9h54c0.5,0,0.9,0.4,0.9,0.9
					C1072.6,90.7,1072.1,91.2,1071.6,91.2z"/>
				<path class="st11" d="M1056.3,96.3h-38.8c-0.5,0-0.9-0.4-0.9-0.9s0.4-0.9,0.9-0.9h38.8c0.5,0,0.9,0.4,0.9,0.9
					C1057.3,95.9,1056.9,96.3,1056.3,96.3z"/>
			</g>
			<g>
				<path class="st11" d="M1098.2,176.3h-69.1c-0.5,0-0.9-0.4-0.9-0.9s0.4-0.9,0.9-0.9h69.1c0.5,0,0.9,0.4,0.9,0.9
					S1098.8,176.3,1098.2,176.3z"/>
				<path class="st11" d="M1086.7,197h-69.1c-0.5,0-0.9-0.4-0.9-0.9s0.4-0.9,0.9-0.9h69.1c0.5,0,0.9,0.4,0.9,0.9
					C1087.6,196.5,1087.2,197,1086.7,197z"/>
				<path class="st11" d="M1098.2,181.5h-80.7c-0.5,0-0.9-0.4-0.9-0.9s0.4-0.9,0.9-0.9h80.7c0.5,0,0.9,0.4,0.9,0.9
					C1099.2,181,1098.8,181.5,1098.2,181.5z"/>
				<path class="st11" d="M1098.2,186.6h-80.7c-0.5,0-0.9-0.4-0.9-0.9s0.4-0.9,0.9-0.9h80.7c0.5,0,0.9,0.4,0.9,0.9
					S1098.8,186.6,1098.2,186.6z"/>
				<path class="st11" d="M1098.2,191.8h-80.7c-0.5,0-0.9-0.4-0.9-0.9s0.4-0.9,0.9-0.9h80.7c0.5,0,0.9,0.4,0.9,0.9
					C1099.2,191.4,1098.8,191.8,1098.2,191.8z"/>
			</g>
			<polygon class="st32" points="1111.2,195.4 1091.4,215.1 1091.4,195.4 			"/>
			<rect x="1105.6" y="82" class="st33" width="5.6" height="113.4"/>
			<path class="st11" d="M1108.4,141.3L1108.4,141.3c-1.1,0-2.1-0.9-2.1-2.1v-11.6c0-1.1,0.9-2.1,2.1-2.1l0,0c1.1,0,2.1,0.9,2.1,2.1
				v11.6C1110.4,140.3,1109.5,141.3,1108.4,141.3z"/>
			<g>
				<path class="st11" d="M1098.2,147.9h-69.1c-0.5,0-0.9-0.4-0.9-0.9s0.4-0.9,0.9-0.9h69.1c0.5,0,0.9,0.4,0.9,0.9
					C1099.2,147.5,1098.8,147.9,1098.2,147.9z"/>
				<path class="st11" d="M1086.7,168.6h-69.1c-0.5,0-0.9-0.4-0.9-0.9s0.4-0.9,0.9-0.9h69.1c0.5,0,0.9,0.4,0.9,0.9
					C1087.6,168.1,1087.2,168.6,1086.7,168.6z"/>
				<path class="st11" d="M1098.2,153.1h-80.7c-0.5,0-0.9-0.4-0.9-0.9s0.4-0.9,0.9-0.9h80.7c0.5,0,0.9,0.4,0.9,0.9
					C1099.2,152.6,1098.8,153.1,1098.2,153.1z"/>
				<path class="st11" d="M1098.2,158.2h-80.7c-0.5,0-0.9-0.4-0.9-0.9s0.4-0.9,0.9-0.9h80.7c0.5,0,0.9,0.4,0.9,0.9
					C1099.2,157.8,1098.8,158.2,1098.2,158.2z"/>
				<path class="st11" d="M1098.2,163.4h-80.7c-0.5,0-0.9-0.4-0.9-0.9s0.4-0.9,0.9-0.9h80.7c0.5,0,0.9,0.4,0.9,0.9
					C1099.2,163,1098.8,163.4,1098.2,163.4z"/>
			</g>
			<rect x="1017.3" y="102.5" class="st11" width="80.9" height="30.2"/>
			<polygon class="st34" points="1017.3,127.9 1019.5,127.9 1019.5,122.4 1022.1,122.4 1022.1,111.5 1025.6,111.5 1025.6,118.2 
				1030.5,118.2 1030.5,127.1 1036.3,127.1 1036.3,120.9 1041.1,120.9 1044.2,117.7 1044.2,110.4 1046.2,110.4 1046.2,120.9 
				1051.1,120.9 1051.1,124.6 1056.1,124.6 1056.1,105.5 1057.5,104.1 1057.5,109.4 1060.8,109.4 1060.8,111.7 1063.8,114.8 
				1063.8,120.4 1068.3,120.4 1068.3,116 1079.9,116 1079.9,112.7 1082.5,112.7 1082.5,106.9 1083.5,106.9 1083.5,116 1084.9,116 
				1088.3,112.6 1091.4,112.6 1091.4,109.6 1093,109.6 1093,112.7 1095.1,112.7 1095.1,125.2 1097.3,125.2 1097.3,118.9 1098.2,119 
				1098.2,102.5 1017.3,102.5 			"/>
			<g>
				<path class="st11" d="M1098.2,137.5h-21.8c-0.5,0-0.9-0.4-0.9-0.9s0.4-0.9,0.9-0.9h21.8c0.5,0,0.9,0.4,0.9,0.9
					S1098.8,137.5,1098.2,137.5z"/>
			</g>
			<path class="st34" d="M1049.4,73.8v98l-14.9,14.9h-24.1V76.9c0-1.7,1.4-3,3-3L1049.4,73.8L1049.4,73.8z"/>
			<path class="st31" d="M1108.4,141.3L1108.4,141.3c-1.1,0-2.1-0.9-2.1-2.1v-11.6c0-1.1,0.9-2.1,2.1-2.1l0,0c1.1,0,2.1,0.9,2.1,2.1
				v11.6C1110.4,140.3,1109.5,141.3,1108.4,141.3z"/>
		</g>
	</g>
	<g id="Window_1" style="clip-path:url(#SVGID_00000160163508353590097440000007192536940136237976_);">
		<g>
			<g>
				<path class="st11" d="M991.7,91.6v118.6L972,229.9h-78c-1.7,0-3-1.4-3-3V91.6c0-1.7,1.4-3,3-3h94.7
					C990.3,88.6,991.7,89.9,991.7,91.6z"/>
				<path class="st31" d="M991.7,96.8v113.4L972,229.9h-78c-1.7,0-3-1.4-3-3V96.8H991.7z"/>
				<path class="st31" d="M989,92.4c0,0.8-0.7,1.5-1.5,1.5s-1.5-0.7-1.5-1.5s0.7-1.5,1.5-1.5C988.4,90.9,989,91.5,989,92.4z"/>
				<path class="st31" d="M983.4,92.4c0,0.8-0.7,1.5-1.5,1.5s-1.5-0.7-1.5-1.5s0.7-1.5,1.5-1.5C982.8,90.9,983.4,91.5,983.4,92.4z"
					/>
				<path class="st31" d="M977.8,92.4c0,0.8-0.7,1.5-1.5,1.5s-1.5-0.7-1.5-1.5s0.7-1.5,1.5-1.5C977.2,90.9,977.8,91.5,977.8,92.4z"
					/>
			</g>
			<g>
				<path class="st11" d="M914.9,106.5h-16.8c-0.5,0-0.9-0.4-0.9-0.9s0.4-0.9,0.9-0.9h16.8c0.5,0,0.9,0.4,0.9,0.9
					C915.8,106,915.4,106.5,914.9,106.5z"/>
				<path class="st11" d="M922.8,111.6h-24.7c-0.5,0-0.9-0.4-0.9-0.9s0.4-0.9,0.9-0.9h24.7c0.5,0,0.9,0.4,0.9,0.9
					S923.3,111.6,922.8,111.6z"/>
				<path class="st11" d="M915.2,116.8h-17.1c-0.5,0-0.9-0.4-0.9-0.9s0.4-0.9,0.9-0.9h17.1c0.5,0,0.9,0.4,0.9,0.9
					C916.1,116.4,915.7,116.8,915.2,116.8z"/>
			</g>
			<g>
				<path class="st11" d="M978.8,201.5h-69.1c-0.5,0-0.9-0.4-0.9-0.9s0.4-0.9,0.9-0.9h69.1c0.5,0,0.9,0.4,0.9,0.9
					S979.3,201.5,978.8,201.5z"/>
				<path class="st11" d="M940.9,206.6h-42.8c-0.5,0-0.9-0.4-0.9-0.9s0.4-0.9,0.9-0.9h42.8c0.5,0,0.9,0.4,0.9,0.9
					C941.8,206.2,941.4,206.6,940.9,206.6z"/>
			</g>
			<polygon class="st32" points="991.7,210.2 971.9,229.9 971.9,210.2 			"/>
			<rect x="986.1" y="96.8" class="st33" width="5.6" height="113.4"/>
			<path class="st11" d="M988.9,202.4L988.9,202.4c-1.1,0-2.1-0.9-2.1-2.1v-11.6c0-1.1,0.9-2.1,2.1-2.1l0,0c1.1,0,2.1,0.9,2.1,2.1
				v11.6C990.9,201.5,990,202.4,988.9,202.4z"/>
			<g>
				<path class="st11" d="M978.8,106.5h-13c-0.5,0-0.9-0.4-0.9-0.9s0.4-0.9,0.9-0.9h13c0.5,0,0.9,0.4,0.9,0.9
					C979.7,106,979.3,106.5,978.8,106.5z"/>
				<path class="st11" d="M978.8,111.6H972c-0.5,0-0.9-0.4-0.9-0.9s0.4-0.9,0.9-0.9h6.7c0.5,0,0.9,0.4,0.9,0.9
					C979.7,111.2,979.3,111.6,978.8,111.6z"/>
			</g>
			<g>
				<path class="st11" d="M978.8,130.5h-69.1c-0.5,0-0.9-0.4-0.9-0.9s0.4-0.9,0.9-0.9h69.1c0.5,0,0.9,0.4,0.9,0.9
					S979.3,130.5,978.8,130.5z"/>
				<path class="st11" d="M978.8,135.7h-80.7c-0.5,0-0.9-0.4-0.9-0.9s0.4-0.9,0.9-0.9h80.7c0.5,0,0.9,0.4,0.9,0.9
					C979.7,135.2,979.3,135.7,978.8,135.7z"/>
				<path class="st11" d="M931.4,140.8h-33.3c-0.5,0-0.9-0.4-0.9-0.9s0.4-0.9,0.9-0.9h33.3c0.5,0,0.9,0.4,0.9,0.9
					C932.4,140.4,932,140.8,931.4,140.8z"/>
			</g>
			<g>
				<rect x="911.5" y="147.7" class="st35" width="31.8" height="8.5"/>
				<rect x="911.5" y="158.1" class="st36" width="14.4" height="31.4"/>
				<rect x="945.1" y="158.1" class="st36" width="16.5" height="31.4"/>
				<rect x="945.1" y="147.7" class="st35" width="33.6" height="8.5"/>
				<rect x="963.6" y="158.1" class="st36" width="15.2" height="31.4"/>
				<rect x="898.1" y="158.1" class="st32" width="11.5" height="31.4"/>
				<rect x="898.1" y="147.7" class="st11" width="11.5" height="8.5"/>
				<rect x="927.8" y="158.1" class="st36" width="15.5" height="31.4"/>
			</g>
			<path class="st31" d="M988.9,202.4L988.9,202.4c-1.1,0-2.1-0.9-2.1-2.1v-11.6c0-1.1,0.9-2.1,2.1-2.1l0,0c1.1,0,2.1,0.9,2.1,2.1
				v11.6C990.9,201.5,990,202.4,988.9,202.4z"/>
			<path class="st34" d="M991.7,91.6v98.6h-57.1c-1.7,0-3-1.4-3-3V88.6h57.1C990.3,88.6,991.7,89.9,991.7,91.6z"/>
		</g>
	</g>
	<g id="Window_2" style="clip-path:url(#SVGID_00000160163508353590097440000007192536940136237976_);">
		<g>
			<g>
				<path class="st11" d="M1041.8,37.9v118.6l-19.7,19.7h-78c-1.7,0-3-1.4-3-3V37.9c0-1.7,1.4-3,3-3h94.7
					C1040.4,34.8,1041.8,36.2,1041.8,37.9z"/>
				<path class="st31" d="M1041.8,43.1v113.4l-19.7,19.7h-78c-1.7,0-3-1.4-3-3V43.1H1041.8z"/>
				<circle class="st31" cx="1037.7" cy="38.6" r="1.5"/>
				<circle class="st31" cx="1032.1" cy="38.6" r="1.5"/>
				<path class="st31" d="M1027.9,38.6c0,0.8-0.7,1.5-1.5,1.5s-1.5-0.7-1.5-1.5s0.7-1.5,1.5-1.5
					C1027.3,37.1,1027.9,37.8,1027.9,38.6z"/>
			</g>
			<g>
				<path class="st11" d="M998.2,52.7h-19.3c-0.5,0-0.9-0.4-0.9-0.9s0.4-0.9,0.9-0.9h19.3c0.5,0,0.9,0.4,0.9,0.9
					C999.1,52.3,998.7,52.7,998.2,52.7z"/>
				<path class="st11" d="M1006.1,57.9H971c-0.5,0-0.9-0.4-0.9-0.9s0.4-0.9,0.9-0.9h35.1c0.5,0,0.9,0.4,0.9,0.9
					C1007.1,57.5,1006.6,57.9,1006.1,57.9z"/>
				<path class="st11" d="M998.5,63h-19.8c-0.5,0-0.9-0.4-0.9-0.9s0.4-0.9,0.9-0.9h19.8c0.5,0,0.9,0.4,0.9,0.9S999,63,998.5,63z"/>
			</g>
			<g>
				<path class="st11" d="M1028.9,76.7h-69.1c-0.5,0-0.9-0.4-0.9-0.9s0.4-0.9,0.9-0.9h69.1c0.5,0,0.9,0.4,0.9,0.9
					C1029.8,76.3,1029.4,76.7,1028.9,76.7z"/>
				<path class="st11" d="M1017.3,97.4h-69.1c-0.5,0-0.9-0.4-0.9-0.9s0.4-0.9,0.9-0.9h69.1c0.5,0,0.9,0.4,0.9,0.9
					C1018.3,97,1017.9,97.4,1017.3,97.4z"/>
				<path class="st11" d="M1028.9,81.9h-80.7c-0.5,0-0.9-0.4-0.9-0.9s0.4-0.9,0.9-0.9h80.7c0.5,0,0.9,0.4,0.9,0.9
					S1029.4,81.9,1028.9,81.9z"/>
				<path class="st11" d="M1028.9,87.1h-80.7c-0.5,0-0.9-0.4-0.9-0.9s0.4-0.9,0.9-0.9h80.7c0.5,0,0.9,0.4,0.9,0.9
					S1029.4,87.1,1028.9,87.1z"/>
				<path class="st11" d="M1028.9,92.3h-80.7c-0.5,0-0.9-0.4-0.9-0.9s0.4-0.9,0.9-0.9h80.7c0.5,0,0.9,0.4,0.9,0.9
					C1029.8,91.8,1029.4,92.3,1028.9,92.3z"/>
			</g>
			<g>
				<path class="st11" d="M1028.9,128.8h-69.1c-0.5,0-0.9-0.4-0.9-0.9c0-0.5,0.4-0.9,0.9-0.9h69.1c0.5,0,0.9,0.4,0.9,0.9
					C1029.8,128.4,1029.4,128.8,1028.9,128.8z"/>
				<path class="st11" d="M1017.3,149.5h-69.1c-0.5,0-0.9-0.4-0.9-0.9s0.4-0.9,0.9-0.9h69.1c0.5,0,0.9,0.4,0.9,0.9
					C1018.3,149.1,1017.9,149.5,1017.3,149.5z"/>
				<path class="st11" d="M1028.9,134h-80.7c-0.5,0-0.9-0.4-0.9-0.9s0.4-0.9,0.9-0.9h80.7c0.5,0,0.9,0.4,0.9,0.9
					S1029.4,134,1028.9,134z"/>
				<path class="st11" d="M1028.9,139.1h-80.7c-0.5,0-0.9-0.4-0.9-0.9s0.4-0.9,0.9-0.9h80.7c0.5,0,0.9,0.4,0.9,0.9
					C1029.8,138.7,1029.4,139.1,1028.9,139.1z"/>
				<path class="st11" d="M1028.9,144.3h-80.7c-0.5,0-0.9-0.4-0.9-0.9s0.4-0.9,0.9-0.9h80.7c0.5,0,0.9,0.4,0.9,0.9
					C1029.8,143.9,1029.4,144.3,1028.9,144.3z"/>
			</g>
			<rect x="1019.2" y="50.6" class="st11" width="9.7" height="12.9"/>
			<circle class="st11" cx="953.6" cy="56" r="5.4"/>
			<g>
				<path class="st11" d="M947.9,104.2c0,0.6,0.5,1.1,1.1,1.1s1.1-0.5,1.1-1.1s-0.5-1.1-1.1-1.1S947.9,103.6,947.9,104.2z"/>
				<path class="st11" d="M947.9,109.4c0,0.6,0.5,1.1,1.1,1.1s1.1-0.5,1.1-1.1s-0.5-1.1-1.1-1.1
					C948.4,108.2,947.9,108.7,947.9,109.4z"/>
				<path class="st11" d="M947.9,114.5c0,0.6,0.5,1.1,1.1,1.1s1.1-0.5,1.1-1.1s-0.5-1.1-1.1-1.1S947.9,113.9,947.9,114.5z"/>
				<path class="st11" d="M947.9,119.7c0,0.6,0.5,1.1,1.1,1.1s1.1-0.5,1.1-1.1s-0.5-1.1-1.1-1.1S947.9,119.1,947.9,119.7z"/>
				<path class="st11" d="M965.3,105.1H953c-0.5,0-0.9-0.4-0.9-0.9s0.4-0.9,0.9-0.9h12.3c0.5,0,0.9,0.4,0.9,0.9
					S965.8,105.1,965.3,105.1z"/>
				<path class="st11" d="M976.8,110.3H953c-0.5,0-0.9-0.4-0.9-0.9s0.4-0.9,0.9-0.9h23.9c0.5,0,0.9,0.4,0.9,0.9
					C977.8,109.9,977.3,110.3,976.8,110.3z"/>
				<path class="st11" d="M962.6,115.5H953c-0.5,0-0.9-0.4-0.9-0.9s0.4-0.9,0.9-0.9h9.7c0.5,0,0.9,0.4,0.9,0.9
					C963.6,115.1,963.2,115.5,962.6,115.5z"/>
				<path class="st11" d="M973,120.6h-20c-0.5,0-0.9-0.4-0.9-0.9s0.4-0.9,0.9-0.9h20c0.5,0,0.9,0.4,0.9,0.9
					C974,120.2,973.6,120.6,973,120.6z"/>
			</g>
			<polygon class="st32" points="1041.8,156.4 1022.1,176.2 1022.1,156.4 			"/>
			<polygon class="st34" points="1028.9,50.6 1019.2,63.5 1028.9,63.5 			"/>
			<rect x="950.5" y="52.9" class="st34" width="6.3" height="6.3"/>
			<rect x="1036.2" y="43.1" class="st33" width="5.6" height="113.4"/>
			<path class="st11" d="M1039,64.4L1039,64.4c-1.1,0-2.1-0.9-2.1-2.1V50.8c0-1.1,0.9-2.1,2.1-2.1l0,0c1.1,0,2.1,0.9,2.1,2.1v11.6
				C1041.1,63.5,1040.2,64.4,1039,64.4z"/>
			<path class="st31" d="M1039,64.4L1039,64.4c-1.1,0-2.1-0.9-2.1-2.1V50.8c0-1.1,0.9-2.1,2.1-2.1l0,0c1.1,0,2.1,0.9,2.1,2.1v11.6
				C1041.1,63.5,1040.2,64.4,1039,64.4z"/>
		</g>
	</g>
	<g id="Speech_bubble" style="clip-path:url(#SVGID_00000160163508353590097440000007192536940136237976_);">
		<g>
			<path class="st11" d="M1190.2,89.2h-33c-2.6,0-4.8,2.1-4.8,4.8v32.1c0,2.6,2.1,4.8,4.8,4.8h13.4l-1.4,9.7l6.6-9.7h14.4
				c2.6,0,4.8-2.1,4.8-4.8V94C1195,91.4,1192.8,89.2,1190.2,89.2z"/>
			<path class="st31" d="M1190.2,89.2h-33c-2.6,0-4.8,2.1-4.8,4.8v32.1c0,2.6,2.1,4.8,4.8,4.8h13.4l-1.4,9.7l6.6-9.7h14.4
				c2.6,0,4.8-2.1,4.8-4.8V94C1195,91.4,1192.8,89.2,1190.2,89.2z"/>
			<g>
				<path class="st37" d="M1176.4,103.4v2.6l-1.3,0.1c-0.2,0.9-0.5,1.7-1,2.4l0.8,1l-1.8,1.8l-1-0.8c-0.7,0.5-1.5,0.8-2.4,1
					l-0.1,1.3h-2.6l-0.1-1.3c-0.9-0.2-1.7-0.5-2.4-1l-1,0.8l-1.8-1.8l0.8-1c-0.5-0.7-0.8-1.5-1-2.4l-1.3-0.1v-2.6l1.3-0.1
					c0.2-0.9,0.5-1.7,1-2.4l-0.8-1l1.8-1.8l1,0.8c0.7-0.5,1.5-0.8,2.4-1l0.1-1.3h2.6l0.1,1.3c0.9,0.2,1.7,0.5,2.4,1l1-0.8l1.8,1.8
					l-0.8,1c0.5,0.7,0.8,1.5,1,2.4L1176.4,103.4z M1168.3,101.2c-1.9,0-3.5,1.6-3.5,3.5s1.6,3.5,3.5,3.5s3.5-1.6,3.5-3.5
					C1171.8,102.8,1170.2,101.2,1168.3,101.2z"/>
				<path class="st37" d="M1174.7,122.1c-0.7-0.1-1.3-0.4-1.9-0.8l-0.8,0.7l-1.4-1.4l0.7-0.8c-0.4-0.6-0.6-1.2-0.8-1.9l-1-0.1v-2
					l1-0.1c0.1-0.7,0.4-1.3,0.8-1.9l-0.7-0.8l1.4-1.4l0.8,0.7c0.6-0.4,1.2-0.6,1.9-0.8l0.1-1h2l0.1,1c0.7,0.1,1.3,0.4,1.9,0.8
					l0.8-0.7l1.4,1.4l-0.7,0.8c0.4,0.6,0.6,1.2,0.8,1.9l1,0.1v2l-1,0.1c-0.1,0.7-0.4,1.3-0.8,1.9l0.7,0.8l-1.4,1.4l-0.8-0.7
					c-0.6,0.4-1.2,0.6-1.9,0.8l-0.1,1h-2L1174.7,122.1z M1178.5,116.8c0-1.5-1.2-2.7-2.7-2.7s-2.7,1.2-2.7,2.7s1.2,2.7,2.7,2.7
					S1178.5,118.3,1178.5,116.8z"/>
				<path class="st37" d="M1179.9,110.8l-0.6,0.7l-1.4-1l0.4-0.8c-0.4-0.4-0.7-0.9-0.9-1.4l-0.9,0.1l-0.3-1.7l0.8-0.2
					c0-0.6,0.1-1.1,0.3-1.7l-0.7-0.6l1-1.4l0.8,0.4c0.4-0.4,0.9-0.7,1.4-0.9l-0.1-0.9l1.7-0.3l0.2,0.8c0.6,0,1.1,0.1,1.7,0.3
					l0.6-0.7l1.4,1l-0.4,0.8c0.4,0.4,0.7,0.9,0.9,1.4l0.9-0.1l0.3,1.7l-0.8,0.2c0,0.6-0.1,1.1-0.3,1.7l0.7,0.6l-1,1.4l-0.8-0.4
					c-0.4,0.4-0.9,0.7-1.4,0.9l0.1,0.9l-1.7,0.3l-0.2-0.8C1181,111.1,1180.5,111,1179.9,110.8z M1183.9,106.1
					c-0.2-1.2-1.4-2.1-2.7-1.8c-1.2,0.2-2.1,1.4-1.8,2.7c0.2,1.2,1.4,2.1,2.7,1.8C1183.3,108.6,1184.2,107.4,1183.9,106.1z"/>
			</g>
		</g>
		<path class="st37" d="M395.3,40.4v5.8l-3,0.3c-0.4,2-1.2,3.8-2.2,5.4l1.9,2.3l-4.1,4.1l-2.3-1.9c-1.6,1.1-3.4,1.8-5.4,2.2l-0.3,3
			H374l-0.3-3c-2-0.4-3.8-1.2-5.4-2.2l-2.3,1.9l-4.1-4.1l1.9-2.3c-1.1-1.6-1.8-3.4-2.2-5.4l-3-0.3v-5.8l3-0.3c0.4-2,1.2-3.8,2.2-5.4
			l-1.9-2.3l4.1-4.1l2.3,1.9c1.6-1.1,3.4-1.8,5.4-2.2l0.3-3h5.8l0.3,3c2,0.4,3.8,1.2,5.4,2.2l2.3-1.9l4.1,4.1l-1.9,2.3
			c1.1,1.6,1.8,3.4,2.2,5.4L395.3,40.4z M376.9,35.4c-4.4,0-7.9,3.5-7.9,7.9s3.5,7.9,7.9,7.9s7.9-3.5,7.9-7.9S381.3,35.4,376.9,35.4
			z"/>
		<path class="st37" d="M1246.9,179.5v8.7l-4.5,0.4c-0.6,2.9-1.8,5.6-3.3,8l2.9,3.5l-6.1,6.1l-3.5-2.9c-2.4,1.6-5.1,2.7-8,3.3
			l-0.4,4.5h-8.7l-0.4-4.5c-2.9-0.6-5.6-1.8-8-3.3l-3.5,2.9l-6.1-6.1l2.9-3.5c-1.6-2.4-2.7-5.1-3.3-8l-4.5-0.4v-8.7l4.5-0.4
			c0.6-2.9,1.8-5.6,3.3-8l-2.9-3.5l6.1-6.1l3.5,2.9c2.4-1.6,5.1-2.7,8-3.3l0.4-4.5h8.7l0.4,4.5c2.9,0.6,5.6,1.8,8,3.3l3.5-2.9
			l6.1,6.1l-2.9,3.5c1.6,2.4,2.7,5.1,3.3,8L1246.9,179.5z M1219.6,172.1c-6.5,0-11.7,5.3-11.7,11.7c0,6.5,5.3,11.7,11.7,11.7
			s11.7-5.3,11.7-11.7C1231.3,177.4,1226.1,172.1,1219.6,172.1z"/>
		<path class="st37" d="M134,294.4v5l-2.6,0.2c-0.3,1.7-1,3.2-1.9,4.6l1.6,2l-3.5,3.5l-2-1.6c-1.4,0.9-2.9,1.6-4.6,1.9l-0.2,2.6h-5
			l-0.2-2.6c-1.7-0.3-3.2-1-4.6-1.9l-2,1.6l-3.5-3.5l1.6-2c-0.9-1.4-1.6-2.9-1.9-4.6l-2.6-0.2v-5l2.6-0.2c0.3-1.7,1-3.2,1.9-4.6
			l-1.6-2l3.5-3.5l2,1.6c1.4-0.9,2.9-1.6,4.6-1.9l0.2-2.6h5l0.2,2.6c1.7,0.3,3.2,1,4.6,1.9l2-1.6l3.5,3.5l-1.6,2
			c0.9,1.4,1.6,2.9,1.9,4.6L134,294.4z M118.4,290.2c-3.7,0-6.7,3-6.7,6.7s3,6.7,6.7,6.7s6.7-3,6.7-6.7S122.1,290.2,118.4,290.2z"/>
		<path class="st37" d="M793.3,274.7c-2.3-0.5-4.4-1.4-6.3-2.6l-2.7,2.2l-4.8-4.8l2.2-2.7c-1.2-1.9-2.1-4-2.6-6.3l-3.5-0.3v-6.8
			l3.5-0.3c0.5-2.3,1.4-4.4,2.6-6.3l-2.2-2.7l4.8-4.8l2.7,2.2c1.9-1.2,4-2.1,6.3-2.6l0.3-3.5h6.8l0.3,3.5c2.3,0.5,4.4,1.4,6.3,2.6
			l2.7-2.2l4.8,4.8l-2.2,2.7c1.2,1.9,2.1,4,2.6,6.3l3.5,0.3v6.8l-3.5,0.3c-0.5,2.3-1.4,4.4-2.6,6.3l2.2,2.7l-4.8,4.8l-2.7-2.2
			c-1.9,1.2-4,2.1-6.3,2.6l-0.3,3.5h-6.8L793.3,274.7z M806.3,256.9c0-5.1-4.1-9.2-9.2-9.2c-5.1,0-9.2,4.1-9.2,9.2
			c0,5.1,4.1,9.2,9.2,9.2C802.1,266.1,806.3,261.9,806.3,256.9z"/>
		<path class="st37" d="M66.8,115.4l-1.9,2.3l-4.7-3.2l1.4-2.6c-1.3-1.4-2.4-3-3.1-4.8l-2.9,0.3l-1.1-5.6l2.8-0.8
			c0-2,0.5-3.8,1.2-5.6l-2.3-1.9l3.2-4.7l2.6,1.4c1.4-1.3,3-2.4,4.8-3.1l-0.3-2.9l5.6-1.1l0.8,2.8c2,0,3.8,0.5,5.6,1.2l1.9-2.3
			l4.7,3.2l-1.4,2.6c1.3,1.4,2.4,3,3.1,4.8l2.9-0.3l1.1,5.6l-2.8,0.8c0,2-0.5,3.8-1.2,5.6l2.3,1.9l-3.2,4.7l-2.6-1.4
			c-1.4,1.3-3,2.4-4.8,3.1l0.3,2.9l-5.6,1.1l-0.8-2.8C70.4,116.5,68.5,116.1,66.8,115.4z M80.3,99.8c-0.8-4.2-4.8-7-9-6.2
			s-7,4.8-6.2,9s4.8,7,9,6.2S81.1,104,80.3,99.8z"/>
		<line class="st38" x1="8.3" y1="301.3" x2="1232.5" y2="301.3"/>
		<line class="st39" x1="499.2" y1="259.1" x2="566" y2="259.1"/>
		<line class="st39" x1="487.8" y1="270.6" x2="554.6" y2="270.6"/>
		<line class="st39" x1="499.6" y1="282.4" x2="566.4" y2="282.4"/>
		<line class="st39" x1="324.5" y1="169.8" x2="391.2" y2="169.8"/>
		<line class="st39" x1="313" y1="181.3" x2="379.8" y2="181.3"/>
		<line class="st39" x1="324.8" y1="193.1" x2="391.6" y2="193.1"/>
		<line class="st39" x1="103.7" y1="180.4" x2="163.7" y2="180.4"/>
		<line class="st39" x1="93.4" y1="190.7" x2="153.4" y2="190.7"/>
		<line class="st39" x1="104" y1="201.3" x2="164" y2="201.3"/>
		<g>
			<path class="st39" d="M338.8,70.9c11,0,20,8.9,20,20"/>
			<g>
				<path class="st39" d="M338.8,64c14.8,0,26.9,12,26.9,26.9"/>
			</g>
			<g>
				<path class="st39" d="M338.8,56.8c18.8,0,34.1,15.3,34.1,34.1"/>
			</g>
		</g>
		<g>
			<path class="st39" d="M1179.7,63.8c16.4,0,29.6,13.3,29.6,29.6"/>
			<g>
				<path class="st39" d="M1179.7,53.6c22,0,39.9,17.8,39.9,39.9"/>
			</g>
			<g>
				<path class="st39" d="M1179.7,42.9c27.9,0,50.5,22.6,50.5,50.5"/>
			</g>
		</g>
	</g>
</g>
</svg>
