<svg xmlns="http://www.w3.org/2000/svg" xmlns:xlink="http://www.w3.org/1999/xlink" viewBox="0 0 1261.2 309.72"><defs><style>.cls-1,.cls-41,.cls-42{fill:none;}.cls-2{isolation:isolate;}.cls-3{clip-path:url(#clip-path);}.cls-4{fill:url(#radial-gradient);}.cls-5{fill:#a4c4ff;}.cls-6{fill:#1d0291;}.cls-7{clip-path:url(#clip-path-2);}.cls-8{mix-blend-mode:multiply;}.cls-9{fill:#df4930;}.cls-10{fill:#ffb6a6;}.cls-11{clip-path:url(#clip-path-3);}.cls-12{fill:#ff8370;}.cls-13{fill:#38385c;}.cls-14{fill:#f85c3d;}.cls-15{clip-path:url(#clip-path-4);}.cls-16{fill:#1a1a35;}.cls-17{clip-path:url(#clip-path-5);}.cls-18{fill:#fff;}.cls-19{clip-path:url(#clip-path-8);}.cls-20{fill:#3875ff;}.cls-21{clip-path:url(#clip-path-10);}.cls-22{clip-path:url(#clip-path-11);}.cls-23{clip-path:url(#clip-path-12);}.cls-24{fill:#739bfd;}.cls-25{clip-path:url(#clip-path-13);}.cls-26{clip-path:url(#clip-path-14);}.cls-27{clip-path:url(#clip-path-16);}.cls-28{clip-path:url(#clip-path-18);}.cls-29{clip-path:url(#clip-path-19);}.cls-30{clip-path:url(#clip-path-20);}.cls-31{clip-path:url(#clip-path-21);}.cls-32{fill:#e3eefd;}.cls-33{clip-path:url(#clip-path-22);}.cls-34{clip-path:url(#clip-path-23);}.cls-35{clip-path:url(#clip-path-24);}.cls-36{clip-path:url(#clip-path-25);}.cls-37{fill:#2f5dd1;}.cls-38{fill:#d1daf7;}.cls-39{clip-path:url(#clip-path-26);}.cls-40{fill:#12007c;}.cls-41{stroke:#a4c4ff;stroke-width:3px;}.cls-41,.cls-42{stroke-linecap:round;stroke-linejoin:round;}.cls-42{stroke:#1f1a3e;stroke-width:2.62px;}.cls-43{fill:#1f1a3e;}.cls-44{fill:#d9d9d9;}.cls-45{fill:#b4b4b3;}</style><clipPath id="clip-path" transform="translate(0 2.22)"><rect class="cls-1" width="1245" height="300"/></clipPath><radialGradient id="radial-gradient" cx="992.38" cy="-218.76" r="700.62" gradientTransform="matrix(-0.76, 0.55, -0.47, -0.5, 1636.9, -896.24)" gradientUnits="userSpaceOnUse"><stop offset="0" stop-color="#73d7ff"/><stop offset="1" stop-color="#002bc6"/></radialGradient><clipPath id="clip-path-2" transform="translate(0 2.22)"><path class="cls-1" d="M921.1,151.7h14c-4.1-55,76.8-54.9,72.6,0h18L1046.5,300h-152Zm80.1-5.9c-2.3-42.6-64.4-36.5-59.6,5.8h59.6Z"/></clipPath><clipPath id="clip-path-3" transform="translate(0 2.22)"><polygon class="cls-1" points="1074.9 80.4 1090.6 117.1 1078.2 119.5 1070.2 89.1 1074.9 80.4"/></clipPath><clipPath id="clip-path-4" transform="translate(0 2.22)"><path class="cls-1" d="M1154.1,270.2l3.3,7.6s6.2,3.4,10.4-2l-4.4-11.1Z"/></clipPath><clipPath id="clip-path-5" transform="translate(0 2.22)"><path class="cls-1" d="M1097.3,77.3c2.9-27.5,29.8-9.7,18.1,9.6l2.8,13.8-10.4,1.8-1.4-11.3C1101.2,90.4,1097.3,84.5,1097.3,77.3Z"/></clipPath><clipPath id="clip-path-8" transform="translate(0 2.22)"><path class="cls-1" d="M1103.9,154.1s-10.4-34.5-10.1-43.1,12.7-15.4,12.7-15.4l10.4-1.8s18.1.9,22,13,3.4,47.4,3.4,47.4l-38.4-.1Z"/></clipPath><clipPath id="clip-path-10" transform="translate(0 2.22)"><path class="cls-1" d="M1110.1,140.1s-4.3-.8-4.2-1.6c.2-1.1,8.3-.6,8.3-.6,3.3-1.8,34.2-20.3,36.8-20.9,4.5,4.1,9.5,8.7,3.9,14.5h0a7.2,7.2,0,0,1-2.7,1.5l-34.8,10.4s-5.7,4.2-6.4,4.3c-4.7.5-7.5-3.1-8-3.7S1110.1,140.1,1110.1,140.1Z"/></clipPath><clipPath id="clip-path-11" transform="translate(0 2.22)"><path class="cls-1" d="M1133.3,99.2l19,17.1-18,9.6C1119.3,110.4,1113.7,114.8,1133.3,99.2Z"/></clipPath><clipPath id="clip-path-12" transform="translate(0 2.22)"><path class="cls-1" d="M1087.8,277.5l-.6,9.4s3.6,6,10,3.5l2.1-12Z"/></clipPath><clipPath id="clip-path-13" transform="translate(0 2.22)"><path class="cls-1" d="M220.8,287.2l-3.8-8.3L206.6,281l5.4,10.6C215.9,293.1,221.7,294.4,220.8,287.2Z"/></clipPath><clipPath id="clip-path-14" transform="translate(0 2.22)"><polygon class="cls-1" points="126.6 149.2 125.3 160 109.4 182.9 119.3 184.2 134.8 166.7 137 149.2 126.6 149.2"/></clipPath><clipPath id="clip-path-16" transform="translate(0 2.22)"><path class="cls-1" d="M138.5,92.1l-5.4,16.4a5,5,0,0,0,4.1,6.5l8.5,1.2,2.8,13.8H162l-9.9-37.9Z"/></clipPath><clipPath id="clip-path-18" transform="translate(0 2.22)"><rect class="cls-1" x="94.29" y="88.79" width="25.2" height="16.1" transform="translate(-37.26 91.71) rotate(-40.14)"/></clipPath><clipPath id="clip-path-19" transform="translate(0 2.22)"><rect class="cls-1" x="38.09" y="136.2" width="25.2" height="16.1" transform="translate(-81.05 66.65) rotate(-40.14)"/></clipPath><clipPath id="clip-path-20" transform="translate(0 2.22)"><path class="cls-1" d="M135.5,182.7c-.2-.7,8.6-3.9,8.6-3.9l37.4-23.1c2.3,4.1,7,9.4,4.2,13.9h0a8.86,8.86,0,0,1-5,4.5l-31.8,12.1c-5.1,5.6-5.4,8.2-13.5,4.5-.2-.3,2.4-3.8,4.8-6.9C137.8,184,135.6,183.3,135.5,182.7Z"/></clipPath><clipPath id="clip-path-21" transform="translate(0 2.22)"><path class="cls-1" d="M146.9,291.4l-2-10.4h-9.5l2.6,8.3C137.9,289.3,142.3,294.2,146.9,291.4Z"/></clipPath><clipPath id="clip-path-22" transform="translate(0 2.22)"><path class="cls-1" d="M79.4,56.2c.3,16.8,25.3,16.8,25.6,0C104.6,39.4,79.6,39.4,79.4,56.2Z"/></clipPath><clipPath id="clip-path-23" transform="translate(0 2.22)"><path class="cls-1" d="M74.3,96.2c4.8,14.3,26.1,7.5,21.8-6.9C91.4,75,70,81.7,74.3,96.2Z"/></clipPath><clipPath id="clip-path-24" transform="translate(0 2.22)"><path class="cls-1" d="M31.9,133.5c.2,11.5,17.4,11.5,17.6,0C49.3,121.9,32.1,121.9,31.9,133.5Z"/></clipPath><clipPath id="clip-path-25" transform="translate(0 2.22)"><path class="cls-1" d="M29,99.8c6.2,22.3,39.6,13.6,34.1-8.9C56.9,68.5,23.5,77.2,29,99.8Z"/></clipPath><clipPath id="clip-path-26" transform="translate(0 2.22)"><rect class="cls-1" x="201.7" y="79.4" width="113.1" height="203.1"/></clipPath></defs><g class="cls-2"><g id="Layer_2" data-name="Layer 2"><g id="Слой_1" data-name="Слой 1"><g class="cls-3"><rect class="cls-4" y="2.22" width="1245" height="300"/><path class="cls-5" d="M1218.4,40.4a49.87,49.87,0,0,0-9.6,5.3l-10-10-15.5,15.5,10.6,10.6a50.63,50.63,0,0,0-6.2,15.9h-15.3v22h15.3a54.22,54.22,0,0,0,6.2,15.9l-10.6,10.6,15.5,15.5,10-10a52.44,52.44,0,0,0,16.4,7.7v13.3h22V140.5a49.59,49.59,0,0,0,14-4.4V118.5c-23.4,18.6-60.4.3-59.6-29.7-.8-30,36.2-48.4,59.6-29.7V41.3a53,53,0,0,0-14-4.4V24.7h-22V38C1222.9,38.7,1220.6,39.5,1218.4,40.4Z" transform="translate(0 2.22)"/><path class="cls-5" d="M1157.4,19.5V14h-9.8v6a24.35,24.35,0,0,0-7.3,3.4l-4.5-4.5-6.9,6.9,4.7,4.7a22.89,22.89,0,0,0-2.8,7.1H1124v9.8h6.8a22.89,22.89,0,0,0,2.8,7.1l-4.7,4.7,6.9,6.9,4.5-4.5a24.35,24.35,0,0,0,7.3,3.4v6h9.8V65.5a25.1,25.1,0,0,0,8.3-3l3.6,3.6,6.9-6.9-3.3-3.3a22.28,22.28,0,0,0,3.7-8.5h4.5V37.6h-4.5a22.28,22.28,0,0,0-3.7-8.5l3.3-3.3-6.9-6.9-3.6,3.6A25.1,25.1,0,0,0,1157.4,19.5Zm12.9,23.2c-.7,22-32.6,22-33.3,0C1137.7,20.6,1169.6,20.6,1170.3,42.7Z" transform="translate(0 2.22)"/><path class="cls-5" d="M944.6,53.5V48h-9.8v6a24.35,24.35,0,0,0-7.3,3.4L923,52.9l-6.9,6.9,4.7,4.7a22.89,22.89,0,0,0-2.8,7.1h-6.8v9.8H918a22.89,22.89,0,0,0,2.8,7.1l-4.7,4.7,6.9,6.9,4.5-4.5a24.35,24.35,0,0,0,7.3,3.4v6h9.8V99.5a25.1,25.1,0,0,0,8.3-3l3.6,3.6,6.9-6.9-3.3-3.3a22.28,22.28,0,0,0,3.7-8.5h4.5V71.6h-4.5a22.28,22.28,0,0,0-3.7-8.5l3.3-3.3-6.9-6.9-3.6,3.6A22.4,22.4,0,0,0,944.6,53.5Zm13,23.1c-.7,22-32.6,22-33.3,0C924.9,54.6,956.9,54.6,957.6,76.6Z" transform="translate(0 2.22)"/><path class="cls-5" d="M386.2,231.7v-5.5h-9.8v6a24.35,24.35,0,0,0-7.3,3.4l-4.5-4.5-6.9,6.9,4.7,4.7a22.89,22.89,0,0,0-2.8,7.1h-6.8v9.8h6.8a22.89,22.89,0,0,0,2.8,7.1l-4.7,4.7,6.9,6.9,4.5-4.5a24.35,24.35,0,0,0,7.3,3.4v6h9.8V278a25.1,25.1,0,0,0,8.3-3l3.6,3.6,6.9-6.9-3.3-3.3a22.28,22.28,0,0,0,3.7-8.5h4.5V250h-4.5a22.28,22.28,0,0,0-3.7-8.5l3.3-3.3-6.9-6.9-3.6,3.6A21.71,21.71,0,0,0,386.2,231.7Zm12.9,23.2c-.7,22-32.6,22-33.3,0C366.5,232.9,398.4,232.9,399.1,254.9Z" transform="translate(0 2.22)"/><path id="SVGID" class="cls-6" d="M921.1,151.7h14c-4.1-55,76.8-54.9,72.6,0h18L1046.5,300h-152Zm80.1-5.9c-2.3-42.6-64.4-36.5-59.6,5.8h59.6Z" transform="translate(0 2.22)"/><g class="cls-7"><g class="cls-8"><path class="cls-6" d="M1060.8,285.8c-69.9-43.7-87.1-56.9-99.4-140.1H914.1l-9.4,161.8,151.6-.5Z" transform="translate(0 2.22)"/></g></g><polygon class="cls-9" points="1095 108.82 1083.3 131.82 1100.8 133.62 1095 108.82"/><polygon id="SVGID-2" data-name="SVGID" class="cls-10" points="1074.9 82.62 1090.6 119.32 1078.2 121.72 1070.2 91.32 1074.9 82.62"/><g class="cls-11"><path class="cls-12" d="M1071.7,99.2s7.5,11.1,17.2,10.6l4.3,9.2-18.2-2.1Z" transform="translate(0 2.22)"/></g><path class="cls-13" d="M1068.4,76.3,1064,87.6a1.46,1.46,0,0,0,1,1.9l4.6,1.1a1.44,1.44,0,0,0,1.7-.9l5.1-13.3Z" transform="translate(0 2.22)"/><path class="cls-12" d="M1048.4,48.2,1078.6,69a4.2,4.2,0,0,1,1.7,4.4h0a4.15,4.15,0,0,1-3.8,3.2l-36,1.6Z" transform="translate(0 2.22)"/><path class="cls-13" d="M1044.5,63a3.68,3.68,0,0,1,6.6-1.2c2.8-18.8-11-18.6-15.1-.9-4.5,17.7,7.7,24.2,13.8,6.2A3.71,3.71,0,0,1,1044.5,63Z" transform="translate(0 2.22)"/><path class="cls-14" d="M1051.1,61.8a3.68,3.68,0,0,0-6.6,1.2c-.8,3,2.7,5.7,5.3,4.1A25.62,25.62,0,0,0,1051.1,61.8Z" transform="translate(0 2.22)"/><path class="cls-13" d="M1062,57.5s2.8,8.4-4.8,19.8l3.9-.2s6-5.8,4.9-16.9Z" transform="translate(0 2.22)"/><path class="cls-10" d="M1077.8,87.2s-1.1-7.8-2.3-8.6c-3.9-2.4-6.8-1.6-6.4-.4.2.5,3.3,2.7,3.3,2.7s-.2,6.2-.3,6.7C1071.8,88.6,1077.8,87.2,1077.8,87.2Z" transform="translate(0 2.22)"/><path class="cls-10" d="M1067.4,78.6s3.9,1.1,3.9,1.7-2.3,5.3-3,5.5-3.3-.2-3.4-.5C1063.9,83.8,1066.2,79.2,1067.4,78.6Z" transform="translate(0 2.22)"/><path class="cls-13" d="M1167.9,275.9s-4.3,5.9-11.4,1.3l-11.2,15.3a6.46,6.46,0,0,0,.1,7.5h0l26-15.5a3.59,3.59,0,0,0,1.6-2.9C1173.2,280.3,1168.6,276.9,1167.9,275.9Z" transform="translate(0 2.22)"/><path id="SVGID-3" data-name="SVGID" class="cls-10" d="M1154.1,270.2l3.3,7.6s6.2,3.4,10.4-2l-4.4-11.1Z" transform="translate(0 2.22)"/><g class="cls-15"><polygon class="cls-12" points="1156.4 279.52 1166.8 273.12 1164.7 267.52 1153.3 274.12 1156.4 279.52"/></g><path class="cls-13" d="M1144,201.3c9.5-44.4-7.9-51.2-7.9-51.2h-31l-19.9,127.2,16.5,1.3c.9-1.7,17.5-70.5,20.2-68.9l31,63.7,15.4-5Z" transform="translate(0 2.22)"/><path class="cls-16" d="M1121.9,209.7,1109.7,180s0,26.2,9.2,34.3Z" transform="translate(0 2.22)"/><path class="cls-13" d="M1104.5,60.3c11.4-11.4,28,26.8,28.9,27.9,39.5,19.3-.7,37.4-28.9,26.7A18,18,0,0,1,1091,98.8C1089.9,84.7,1090.5,63.1,1104.5,60.3Z" transform="translate(0 2.22)"/><path id="SVGID-4" data-name="SVGID" class="cls-10" d="M1097.3,77.3c2.9-27.5,29.8-9.7,18.1,9.6l2.8,13.8-10.4,1.8-1.4-11.3C1101.2,90.4,1097.3,84.5,1097.3,77.3Z" transform="translate(0 2.22)"/><g class="cls-17"><path class="cls-12" d="M1119.7,78.4s-7.7-2-10.3-4.2l2.6,2.6s-7.9-1.9-9.7-6.7c0,0-3.1,3.9-3.4,7.2-.5-4-2.4-12.5,5.3-13.6l14.9,11.9Z" transform="translate(0 2.22)"/></g><g class="cls-17"><path class="cls-12" d="M1115.3,87a11.61,11.61,0,0,1-7.6,4.2s5.7,1.6,9.3-.3l-1.7-3.9" transform="translate(0 2.22)"/></g><g class="cls-17"><path class="cls-18" d="M1103.9,86.1s3.5-.2,4.7-2.1c0,0-.5,3.3-2.6,3.6A1.67,1.67,0,0,1,1103.9,86.1Z" transform="translate(0 2.22)"/></g><path class="cls-13" d="M1105.9,62s-.5,14.2,12.3,14.5C1118.2,76.6,1118.6,60.1,1105.9,62Z" transform="translate(0 2.22)"/><path class="cls-13" d="M1106.3,63.4s-.3,8.9,3.4,12.2c0,0-6.8-3.6-5.7-11.4C1104,64.2,1104.3,63.3,1106.3,63.4Z" transform="translate(0 2.22)"/><path class="cls-13" d="M1105.1,63.2s-5.6,7.5-5.9,12.4c0,0-.2-7.8,2.2-12.2Z" transform="translate(0 2.22)"/><path id="SVGID-5" data-name="SVGID" class="cls-14" d="M1103.9,154.1s-10.4-34.5-10.1-43.1,12.7-15.4,12.7-15.4l10.4-1.8s18.1.9,22,13,3.4,47.4,3.4,47.4l-38.4-.1Z" transform="translate(0 2.22)"/><g class="cls-19"><path class="cls-9" d="M1094.9,134s34.6,13.2,52.6,13v9.6h-46.8Z" transform="translate(0 2.22)"/></g><g class="cls-19"><polyline class="cls-9" points="1121.9 116.12 1116.6 110.82 1118.1 116.12 1121.9 116.12"/></g><path class="cls-20" d="M1157,113.9h-77.9V99a3.19,3.19,0,0,0-4.9-2.7l-48.1,30a3.27,3.27,0,0,0,0,5.5l48.1,30a3.22,3.22,0,0,0,4.9-2.7V144.2H1157Z" transform="translate(0 2.22)"/><path id="SVGID-6" data-name="SVGID" class="cls-10" d="M1110.1,140.1s-4.3-.8-4.2-1.6c.2-1.1,8.3-.6,8.3-.6,3.3-1.8,34.2-20.3,36.8-20.9,4.5,4.1,9.5,8.7,3.9,14.5h0a7.2,7.2,0,0,1-2.7,1.5l-34.8,10.4s-5.7,4.2-6.4,4.3c-4.7.5-7.5-3.1-8-3.7S1110.1,140.1,1110.1,140.1Z" transform="translate(0 2.22)"/><g class="cls-21"><path class="cls-12" d="M1157.9,119.7s-2.9,3.8-20.4,2.8l15.3-9.5Z" transform="translate(0 2.22)"/></g><path id="SVGID-7" data-name="SVGID" class="cls-14" d="M1133.3,99.2l19,17.1-18,9.6C1119.3,110.4,1113.7,114.8,1133.3,99.2Z" transform="translate(0 2.22)"/><g class="cls-22"><path class="cls-9" d="M1121.9,113.9s11.5,8.2,19.5,8.3h0l-7.2,5s-11.1-10-12.3-13.3" transform="translate(0 2.22)"/></g><path class="cls-13" d="M1097.2,290.4s-6.7,2.9-10.6-4.6l-17.3,7.7a6.62,6.62,0,0,0-3.7,6.5h0l30.2-.4a3.85,3.85,0,0,0,2.9-1.7C1099.6,296.9,1097.3,291.6,1097.2,290.4Z" transform="translate(0 2.22)"/><path id="SVGID-8" data-name="SVGID" class="cls-10" d="M1087.8,277.5l-.6,9.4s3.6,6,10,3.5l2.1-12Z" transform="translate(0 2.22)"/><g class="cls-23"><path class="cls-12" d="M1085.9,280.2l13.6,3.9s1.8-7.8,1.1-8.2-13.4,0-13.4,0Z" transform="translate(0 2.22)"/></g><path class="cls-16" d="M1106.3,154.1s24.3,9.7,38.2,7.2a18.78,18.78,0,0,0-3.7-7.2Z" transform="translate(0 2.22)"/><path class="cls-24" d="M326.4,39.9,322.5.7a3.26,3.26,0,0,0-3.6-2.9L279.7,1.7a3.26,3.26,0,0,0-2.9,3.6l3.9,39.2a3.26,3.26,0,0,0,3.6,2.9l8.8-.9.9,6.3a2.06,2.06,0,0,0,3.6,1.1l7.6-8.6,18.4-1.8A3.42,3.42,0,0,0,326.4,39.9Z" transform="translate(0 2.22)"/><path id="SVGID-9" data-name="SVGID" class="cls-10" d="M220.8,287.2l-3.8-8.3L206.6,281l5.4,10.6C215.9,293.1,221.7,294.4,220.8,287.2Z" transform="translate(0 2.22)"/><g class="cls-25"><polygon class="cls-12" points="221.8 283.22 206.6 289.42 202.7 281.12 217.2 279.32 221.8 283.22"/></g><path class="cls-13" d="M211.3,291.4s6,2.7,9.5-4.1l15.6,6.9a5.8,5.8,0,0,1,3.3,5.8l-27.2-.4a3.21,3.21,0,0,1-2.6-1.6C209.2,297.2,211.2,292.3,211.3,291.4Z" transform="translate(0 2.22)"/><polygon id="SVGID-10" data-name="SVGID" class="cls-10" points="126.6 151.42 125.3 162.22 109.4 185.12 119.3 186.42 134.8 168.92 137 151.42 126.6 151.42"/><g class="cls-26"><polygon class="cls-12" points="125 152.92 133.5 157.12 133.2 149.92 125.7 149.82 125 152.92"/></g><g class="cls-26"><path class="cls-12" d="M132,163.6c-.4.5-19.4,19.6-19.4,19.6s18.4-7,19.4-10.5S132,163.6,132,163.6Z" transform="translate(0 2.22)"/></g><polygon class="cls-14" points="133.5 151.42 125 151.42 127.9 133.12 135.1 128.22 133.5 151.42"/><path id="SVGID-11" data-name="SVGID" class="cls-10" d="M138.5,92.1l-5.4,16.4a5,5,0,0,0,4.1,6.5l8.5,1.2,2.8,13.8H162l-9.9-37.9Z" transform="translate(0 2.22)"/><g class="cls-27"><path class="cls-12" d="M132.9,112.6a28.33,28.33,0,0,0,14.2-.7s-1.6,2.9-1.2,5.1h0S133.9,116.7,132.9,112.6Z" transform="translate(0 2.22)"/></g><g class="cls-27"><path class="cls-12" d="M135.2,95.1s1.7,6.7,14.7,6.1h0L139.2,90.6Z" transform="translate(0 2.22)"/></g><path class="cls-13" d="M139.1,92.1s6,8.3,10.8,9.1l.9-3s3.7,3,.6,6.4c0,0,1.2,4.7,5.5,6.2.5-3,6.9-24.2-.7-28.4l.5,3.3c-1.4-3-8.1-4.5-14.8-4.6l2.7,1.8c-5.2-1.4-14.1,1.4-13.4,9.1l3.4-3.4a10,10,0,0,0-.4,8.5C134.3,97.2,138.5,94.4,139.1,92.1Z" transform="translate(0 2.22)"/><path class="cls-13" d="M131.4,185.2l-14.9,40.7c-3.6,1.7,17.5,52,17.8,55h14l-6.4-52.1,8.9-17.1L181.4,245,205,282.5l15.2-3.2-16.7-44.8-30.4-49.4Z" transform="translate(0 2.22)"/><path class="cls-16" d="M151.1,185.3s-10.4,15.8-26.7,19.1c0,0,25.9.3,33.2-19.1Z" transform="translate(0 2.22)"/><path class="cls-14" d="M127.9,185.3h47l-5.4-55.1c-1.6-12.4-13-12-22.7-11.6A12.8,12.8,0,0,0,134,130Z" transform="translate(0 2.22)"/><path id="SVGID-12" data-name="SVGID" class="cls-13" d="M141.6,194.9c20.6-16.7,23.4-49.6,5.9-69.5L121.8,94.9l-19.2,16.2c12.4,17.2,47.7,42.6,22.8,64.6-25.8,20.8-45-18.3-59.8-33.4L46.4,158.5,72,189C88.7,209.6,121.6,212.4,141.6,194.9Z" transform="translate(0 2.22)"/><rect id="SVGID-13" data-name="SVGID" class="cls-14" x="94.29" y="88.79" width="25.2" height="16.1" transform="translate(-37.26 93.93) rotate(-40.14)"/><g class="cls-28"><polyline class="cls-9" points="108 108.72 97.6 96.42 92.1 101.02 102.5 113.32 108 108.72"/></g><rect id="SVGID-14" data-name="SVGID" class="cls-14" x="38.09" y="136.2" width="25.2" height="16.1" transform="translate(-81.05 68.87) rotate(-40.14)"/><g class="cls-29"><polyline class="cls-9" points="60.4 148.82 49.9 136.62 55.2 132.22 65.5 144.52 60.4 148.82"/></g><polygon class="cls-14" points="166.6 125.52 187.1 154.12 169.2 165.82 166.6 125.52"/><path id="SVGID-15" data-name="SVGID" class="cls-10" d="M135.5,182.7c-.2-.7,8.6-3.9,8.6-3.9l37.4-23.1c2.3,4.1,7,9.4,4.2,13.9h0a8.86,8.86,0,0,1-5,4.5l-31.8,12.1c-5.1,5.6-5.4,8.2-13.5,4.5-.2-.3,2.4-3.8,4.8-6.9C137.8,184,135.6,183.3,135.5,182.7Z" transform="translate(0 2.22)"/><g class="cls-30"><path class="cls-12" d="M168,163.6s15-1.3,16.3-4.8l-3.7-5.5L168,163.6" transform="translate(0 2.22)"/></g><path class="cls-9" d="M168.3,163.8l-12.6-24.6a50.88,50.88,0,0,1,1.6,31.5Z" transform="translate(0 2.22)"/><path id="SVGID-16" data-name="SVGID" class="cls-10" d="M146.9,291.4l-2-10.4h-9.5l2.6,8.3C137.9,289.3,142.3,294.2,146.9,291.4Z" transform="translate(0 2.22)"/><g class="cls-31"><polygon class="cls-12" points="146.9 287.82 135.1 285.22 134.4 282.42 145.7 282.12 146.9 287.82"/></g><path class="cls-13" d="M146.9,291.4s-6,2.7-9.5-4.1l-15.6,6.9a5.8,5.8,0,0,0-3.3,5.8h0l27.2-.4a3.36,3.36,0,0,0,2.6-1.5C149,297.2,147,292.4,146.9,291.4Z" transform="translate(0 2.22)"/><path id="SVGID-17" data-name="SVGID" class="cls-32" d="M79.4,56.2c.3,16.8,25.3,16.8,25.6,0C104.6,39.4,79.6,39.4,79.4,56.2Z" transform="translate(0 2.22)"/><g class="cls-33"><path class="cls-24" d="M87.9,56.9c-3.5-3.5-.8-10,4.2-9.9,5-.2,7.8,6.4,4.2,9.9,11.6,4.3,8.3,22.4-4.2,22.2C79.6,79.4,76.3,61.3,87.9,56.9Z" transform="translate(0 2.22)"/></g><path id="SVGID-18" data-name="SVGID" class="cls-32" d="M74.3,96.2c4.8,14.3,26.1,7.5,21.8-6.9C91.4,75,70,81.7,74.3,96.2Z" transform="translate(0 2.22)"/><g class="cls-34"><path class="cls-24" d="M81.8,94.5c-3.9-2-3.4-8.4,1-9.6,4.2-1.5,8.4,3.4,6.3,7.3,11.1.6,13.2,16.9,2.4,20.1C80.7,115.9,73.1,101.3,81.8,94.5Z" transform="translate(0 2.22)"/></g><path id="SVGID-19" data-name="SVGID" class="cls-32" d="M31.9,133.5c.2,11.5,17.4,11.5,17.6,0C49.3,121.9,32.1,121.9,31.9,133.5Z" transform="translate(0 2.22)"/><g class="cls-35"><path class="cls-24" d="M37.8,134c-2.4-2.4-.5-6.9,2.9-6.8,3.4-.1,5.3,4.4,2.9,6.8,8,3,5.7,15.4-2.9,15.3C32.1,149.4,29.9,137,37.8,134Z" transform="translate(0 2.22)"/></g><path id="SVGID-20" data-name="SVGID" class="cls-32" d="M29,99.8c6.2,22.3,39.6,13.6,34.1-8.9C56.9,68.5,23.5,77.2,29,99.8Z" transform="translate(0 2.22)"/><g class="cls-36"><path class="cls-24" d="M40.7,97.8c-5.9-3.4-4.6-13.1,2.2-14.6,6.6-2,12.6,5.9,9.1,11.7,17,1.7,18.9,27,2.1,31.2C37.3,130.6,26.7,107.6,40.7,97.8Z" transform="translate(0 2.22)"/></g><path class="cls-37" d="M550.4,150.3c-.1,7.5-11.3,7.5-11.4,0C539.1,142.8,550.2,142.8,550.4,150.3Z" transform="translate(0 2.22)"/><path class="cls-37" d="M524.3,56c0,4.2-6.4,4.2-6.4,0S524.3,51.7,524.3,56Z" transform="translate(0 2.22)"/><path class="cls-37" d="M707.6,194.1c-.2,10.7-16.2,10.7-16.3,0C691.5,183.3,707.4,183.3,707.6,194.1Z" transform="translate(0 2.22)"/><path class="cls-37" d="M301.6,78c0,5-7.6,5-7.6,0S301.5,73,301.6,78Z" transform="translate(0 2.22)"/><path class="cls-38" d="M236.7,3.1c-.1,6.1-9.1,6.1-9.2,0C227.6-3,236.6-3,236.7,3.1Z" transform="translate(0 2.22)"/><path class="cls-37" d="M160,248.6c-.2,11.3-17,11.3-17.2,0C143,237.3,159.8,237.3,160,248.6Z" transform="translate(0 2.22)"/><path class="cls-37" d="M962.5,193.2c-.1,7.5-11.3,7.5-11.4,0C951.2,185.7,962.4,185.7,962.5,193.2Z" transform="translate(0 2.22)"/><path class="cls-37" d="M936.4,98.9c0,4.2-6.4,4.2-6.4,0S936.4,94.7,936.4,98.9Z" transform="translate(0 2.22)"/><path class="cls-37" d="M1119.7,237c-.2,10.7-16.2,10.7-16.3,0C1103.6,226.2,1119.5,226.2,1119.7,237Z" transform="translate(0 2.22)"/><path class="cls-37" d="M713.7,120.9c0,5-7.6,5-7.6,0S713.6,115.9,713.7,120.9Z" transform="translate(0 2.22)"/><path class="cls-37" d="M648.9,46c-.1,6.1-9.1,6.1-9.2,0S648.8,40,648.9,46Z" transform="translate(0 2.22)"/><path class="cls-13" d="M199.6,300H317a8.28,8.28,0,0,0,8.3-8.3V70.3A8.28,8.28,0,0,0,317,62H199.6a8.28,8.28,0,0,0-8.3,8.3V291.7A8.28,8.28,0,0,0,199.6,300Z" transform="translate(0 2.22)"/><rect id="SVGID-21" data-name="SVGID" class="cls-6" x="201.7" y="81.62" width="113.1" height="203.1"/><g class="cls-39"><path class="cls-32" d="M233.6,150.7H213a3.33,3.33,0,0,1-3.3-3.3V126.8a3.33,3.33,0,0,1,3.3-3.3h20.6a3.33,3.33,0,0,1,3.3,3.3v20.6A3.33,3.33,0,0,1,233.6,150.7Z" transform="translate(0 2.22)"/><path class="cls-32" d="M268.6,150.7H248a3.33,3.33,0,0,1-3.3-3.3V126.8a3.33,3.33,0,0,1,3.3-3.3h20.6a3.33,3.33,0,0,1,3.3,3.3v20.6A3.2,3.2,0,0,1,268.6,150.7Z" transform="translate(0 2.22)"/><path class="cls-32" d="M303.7,150.7H283.1a3.33,3.33,0,0,1-3.3-3.3V126.8a3.33,3.33,0,0,1,3.3-3.3h20.6a3.33,3.33,0,0,1,3.3,3.3v20.6A3.33,3.33,0,0,1,303.7,150.7Z" transform="translate(0 2.22)"/><path class="cls-32" d="M233.6,189.4H213a3.33,3.33,0,0,1-3.3-3.3V165.5a3.33,3.33,0,0,1,3.3-3.3h20.6a3.33,3.33,0,0,1,3.3,3.3v20.6A3.33,3.33,0,0,1,233.6,189.4Z" transform="translate(0 2.22)"/><path class="cls-32" d="M268.6,189.4H248a3.33,3.33,0,0,1-3.3-3.3V165.5a3.33,3.33,0,0,1,3.3-3.3h20.6a3.33,3.33,0,0,1,3.3,3.3v20.6A3.2,3.2,0,0,1,268.6,189.4Z" transform="translate(0 2.22)"/><path class="cls-32" d="M303.7,189.4H283.1a3.33,3.33,0,0,1-3.3-3.3V165.5a3.33,3.33,0,0,1,3.3-3.3h20.6a3.33,3.33,0,0,1,3.3,3.3v20.6A3.33,3.33,0,0,1,303.7,189.4Z" transform="translate(0 2.22)"/><path class="cls-32" d="M233.6,228.1H213a3.33,3.33,0,0,1-3.3-3.3V204.2a3.33,3.33,0,0,1,3.3-3.3h20.6a3.33,3.33,0,0,1,3.3,3.3v20.6A3.33,3.33,0,0,1,233.6,228.1Z" transform="translate(0 2.22)"/><path class="cls-32" d="M268.6,228.1H248a3.33,3.33,0,0,1-3.3-3.3V204.2a3.33,3.33,0,0,1,3.3-3.3h20.6a3.33,3.33,0,0,1,3.3,3.3v20.6A3.2,3.2,0,0,1,268.6,228.1Z" transform="translate(0 2.22)"/><path class="cls-32" d="M303.7,228.1H283.1a3.33,3.33,0,0,1-3.3-3.3V204.2a3.33,3.33,0,0,1,3.3-3.3h20.6a3.33,3.33,0,0,1,3.3,3.3v20.6A3.33,3.33,0,0,1,303.7,228.1Z" transform="translate(0 2.22)"/></g><g class="cls-39"><g class="cls-8"><polygon class="cls-6" points="319.2 127.42 198.5 247.02 198.5 284.72 314.9 284.72 319.2 127.42"/></g></g><g class="cls-39"><polygon class="cls-40" points="318.3 81.62 207.4 86.72 203.8 287.42 199.3 287.42 197.2 78.22 318.3 81.62"/></g><g class="cls-39"><path class="cls-40" d="M198.8,102.6s13.7,5,21.8-3.1c3.8,6.3,15.7,4.5,18.9-.9,3.7,6.1,15.1,6.2,18.8.1,3.7,6.3,15.4,5.4,18.9-.2,4.8,6.4,14.7,5.4,18.9-.8,6.4,8,17.5,4.2,20.8-4V85.3H197.6Z" transform="translate(0 2.22)"/></g><path class="cls-18" d="M268.3,72.5H246.9a1.9,1.9,0,0,1-1.9-1.9h0a1.9,1.9,0,0,1,1.9-1.9h21.4a1.9,1.9,0,0,1,1.9,1.9h0A2,2,0,0,1,268.3,72.5Z" transform="translate(0 2.22)"/><path class="cls-14" d="M211.2,99.5c-11.3-.4-9.4-12.2-9.4-20.1a3.41,3.41,0,0,1,3.4-3.3h15.5C220.2,84.2,223.6,99.2,211.2,99.5Z" transform="translate(0 2.22)"/><path class="cls-18" d="M230.1,99.5c-12.4-.2-9.1-15.3-9.4-23.4h18.9C239.1,84.2,242.4,99.2,230.1,99.5Z" transform="translate(0 2.22)"/><path class="cls-14" d="M248.9,99.5c-12.4-.2-9.1-15.3-9.4-23.4h18.9C258,84.2,261.3,99.2,248.9,99.5Z" transform="translate(0 2.22)"/><path class="cls-18" d="M267.8,99.5c-12.4-.2-9.1-15.3-9.4-23.4h18.9C276.9,84.2,280.2,99.2,267.8,99.5Z" transform="translate(0 2.22)"/><path class="cls-14" d="M286.7,99.5c-12.4-.2-9.1-15.3-9.4-23.4h18.9C295.7,84.2,299.1,99.2,286.7,99.5Z" transform="translate(0 2.22)"/><path class="cls-18" d="M305.6,99.5c-12.4-.2-9.1-15.3-9.4-23.4h15.5a3.37,3.37,0,0,1,3.4,3.4C315,87.3,316.8,99.1,305.6,99.5Z" transform="translate(0 2.22)"/><path class="cls-32" d="M304.6,270.3H263.4a2,2,0,0,1-2-2V242.6a2,2,0,0,1,2-2h41.2a2,2,0,0,1,2,2v25.6A2,2,0,0,1,304.6,270.3Z" transform="translate(0 2.22)"/><rect class="cls-5" x="280" y="253.52" width="3.9" height="2.8"/><rect class="cls-5" x="284.8" y="261.02" width="3.6" height="3"/><rect class="cls-5" x="280" y="257.32" width="3.9" height="2.7"/><rect class="cls-5" x="284.8" y="257.32" width="3.6" height="2.7"/><polygon class="cls-5" points="289.4 256.42 293.7 256.42 294.3 253.52 289.4 253.52 289.4 256.42"/><polygon class="cls-5" points="279.1 257.32 274.7 257.32 275.4 260.02 279.1 260.02 279.1 257.32"/><polygon class="cls-5" points="279.1 264.02 279.1 261.02 275.6 261.02 276.4 264.02 279.1 264.02"/><rect class="cls-5" x="280" y="261.02" width="3.9" height="3"/><polygon class="cls-5" points="279.1 264.92 276.6 264.92 277.3 267.42 279.1 267.42 279.1 264.92"/><polygon class="cls-5" points="279.1 256.42 279.1 253.52 273.7 253.52 274.4 256.42 279.1 256.42"/><polygon class="cls-5" points="289.4 264.92 289.4 267.42 291.3 267.42 291.9 264.92 289.4 264.92"/><polygon class="cls-5" points="289.4 257.32 289.4 260.02 292.9 260.02 293.5 257.32 289.4 257.32"/><rect class="cls-5" x="280" y="264.92" width="3.9" height="2.5"/><rect class="cls-5" x="284.8" y="264.92" width="3.6" height="2.5"/><polygon class="cls-5" points="292.7 261.02 289.4 261.02 289.4 264.02 292 264.02 292.7 261.02"/><rect class="cls-5" x="284.8" y="253.52" width="3.6" height="2.8"/><path class="cls-5" d="M290.4,250.2h-.9c.5-6.6-2.1-5.5-7.3-5.6-3.1.1-2.8,3.3-2.8,5.6h-.9c-.5-7.1,2.4-6.5,8.1-6.4C290.5,244,290.6,247.3,290.4,250.2Z" transform="translate(0 2.22)"/><path class="cls-32" d="M252.6,270.3H211.4a2,2,0,0,1-2-2V242.6a2,2,0,0,1,2-2h41.2a2,2,0,0,1,2,2v25.6A2,2,0,0,1,252.6,270.3Z" transform="translate(0 2.22)"/><path class="cls-5" d="M217.7,265.5V246.1c3.8.2,9.6-1.5,9.3,4.4.1,1.7-.1,3.7-2,4.2,3.2.7,2.6,8.3.6,10C224.2,266.1,219.4,265.4,217.7,265.5Zm3.7-12c1.2.1,1.7-.1,1.6-1.4v-1.9c.1-1.1-.9-1-1.6-.9Zm.4,8.6c2.1.2,1.4-2.6,1.5-3.8,0-1.4-.5-1.9-1.9-1.8v5.6Z" transform="translate(0 2.22)"/><path class="cls-5" d="M232.9,265.7c-3.4,0-4.7-2-4.7-5.4V246.1H232c.4,1-1,16.5.9,16,2,.7.5-15.1,1-16h3.8v14.2C237.6,263.7,236.3,265.7,232.9,265.7Z" transform="translate(0 2.22)"/><path class="cls-5" d="M241.4,265.5v-6.4l-3.1-13h3.8l1.1,6.5,1.1-6.5h3.8l-3.1,13v6.4Z" transform="translate(0 2.22)"/><path class="cls-32" d="M415.5,63.9H368.8a3,3,0,0,1-3-3V17.1a3,3,0,0,1,3-3h46.7a3,3,0,0,1,3,3V60.9A3,3,0,0,1,415.5,63.9Z" transform="translate(0 2.22)"/><path class="cls-24" d="M411.4,28l-8-4.6v-.1h-4.6c0,8.8-13.4,8.8-13.5,0h-4.6v.2l-.1-.2L372.5,28l5.2,9,3-1.7V53.5h22.7V35.4l2.8,1.6Z" transform="translate(0 2.22)"/><polygon class="cls-41" points="836.9 235.02 921.3 235.02 936.5 182.42 822.8 193.52 836.9 235.02"/><path class="cls-41" d="M960.9,174.6s-5.9-1.1-13.9-3.1c-7.2-1.8-8.7,4.3-10.4,8.6-3.5,8.8-17.7,69.1-23.8,86.2-2.1,5.9-9.1,9.9-15.1,10.7s-58,.1-58,.1" transform="translate(0 2.22)"/><line class="cls-41" x1="829" y1="208.72" x2="930.4" y2="198.92"/><line class="cls-41" x1="922.1" y1="222.02" x2="833.4" y2="223.62"/><line class="cls-41" x1="869.5" y1="235.02" x2="869.5" y2="189.72"/><line class="cls-41" x1="853.3" y1="235.02" x2="850.5" y2="191.62"/><line class="cls-41" x1="886.5" y1="235.02" x2="891.8" y2="187.22"/><line class="cls-41" x1="904.3" y1="235.02" x2="912.8" y2="185.92"/><line class="cls-42" x1="950.6" y1="174.62" x2="962.9" y2="177.32"/><path class="cls-43" d="M888.8,290.2a9.5,9.5,0,1,0,9.5-9.5A9.5,9.5,0,0,0,888.8,290.2Z" transform="translate(0 2.22)"/><path class="cls-44" d="M892.1,290.2a6.1,6.1,0,1,0,6.1-6.1A6.12,6.12,0,0,0,892.1,290.2Z" transform="translate(0 2.22)"/><path class="cls-45" d="M896.8,290.2a1.47,1.47,0,0,0,1.5,1.5,1.54,1.54,0,0,0,1.5-1.5,1.5,1.5,0,0,0-3,0Z" transform="translate(0 2.22)"/><path class="cls-44" d="M897.2,294.8a6.06,6.06,0,0,0,6.1-6.1,7.27,7.27,0,0,0-.7-2.9,6.08,6.08,0,0,1-4.3,10.4,6.27,6.27,0,0,1-5.4-3.2A6,6,0,0,0,897.2,294.8Z" transform="translate(0 2.22)"/><line class="cls-41" x1="919.7" y1="237.72" x2="855.4" y2="237.72"/><path class="cls-18" d="M895.9,288.7c1,2.4,4,2.4,4,0v-12H892C891.9,276.7,894.9,286.3,895.9,288.7Z" transform="translate(0 2.22)"/><path class="cls-43" d="M839.7,290.2a9.5,9.5,0,1,0,9.5-9.5A9.5,9.5,0,0,0,839.7,290.2Z" transform="translate(0 2.22)"/><path class="cls-44" d="M843.1,290.2a6.1,6.1,0,1,0,6.1-6.1A6.06,6.06,0,0,0,843.1,290.2Z" transform="translate(0 2.22)"/><path class="cls-45" d="M847.7,290.2a1.47,1.47,0,0,0,1.5,1.5,1.5,1.5,0,1,0-1.5-1.5Z" transform="translate(0 2.22)"/><path class="cls-44" d="M848.1,294.8a6.06,6.06,0,0,0,6.1-6.1,7.27,7.27,0,0,0-.7-2.9,6.08,6.08,0,0,1-4.3,10.4,6.27,6.27,0,0,1-5.4-3.2A6.22,6.22,0,0,0,848.1,294.8Z" transform="translate(0 2.22)"/><path class="cls-18" d="M846.8,288.7c1,2.4,4,2.4,4,0v-12h-7.9C842.8,276.7,845.8,286.3,846.8,288.7Z" transform="translate(0 2.22)"/><path class="cls-16" d="M60.4,142l5.2-4.4s2.8,3.9,31.1,34.5c5,5.4,24.9,8.9,33-6.8a24.59,24.59,0,0,0-2.5-25.9l-24.6-32.9,5.5-4.6s26.9,33.7,28,36.1,11.5,19.2-5.7,37.8-39.5-.4-39.5-.4Z" transform="translate(0 2.22)"/></g></g></g></g></svg>