<?xml version="1.0" encoding="utf-8"?>
<!-- Generator: Adobe Illustrator 26.0.2, SVG Export Plug-In . SVG Version: 6.00 Build 0)  -->
<svg version="1.1" id="Layer_1" xmlns="http://www.w3.org/2000/svg" xmlns:xlink="http://www.w3.org/1999/xlink" x="0px" y="0px"
	 viewBox="0 0 1245 300" style="enable-background:new 0 0 1245 300;" xml:space="preserve">
<style type="text/css">
	.st0{clip-path:url(#SVGID_00000114758640670548478160000010423802094133191823_);}
	.st1{fill:url(#SVGID_00000106857486641941762240000001188245761394649260_);}
	.st2{fill:#A4C4FF;}
	.st3{fill:#1D0291;}
	.st4{clip-path:url(#SVGID_00000128475788714422982470000005082540209287165329_);}
	.st5{fill:#DF4930;}
	.st6{fill:#FFB6A6;}
	.st7{clip-path:url(#SVGID_00000099626704845411723360000013777375287086281126_);}
	.st8{fill:#FF8370;}
	.st9{fill:#38385C;}
	.st10{fill:#F85C3D;}
	.st11{clip-path:url(#SVGID_00000030470490179621590890000000820544576317285783_);}
	.st12{fill:#1A1A35;}
	.st13{clip-path:url(#SVGID_00000102509752015717184760000010605805809666828971_);}
	.st14{clip-path:url(#SVGID_00000001649541349174195860000009999159421216877238_);}
	.st15{clip-path:url(#SVGID_00000108296507953585436350000016534720125024532387_);}
	.st16{fill:#FFFFFF;}
	.st17{clip-path:url(#SVGID_00000121988852615430444970000014538630107973063088_);}
	.st18{clip-path:url(#SVGID_00000160180170976544393380000015628137977348270741_);}
	.st19{fill:#3875FF;}
	.st20{clip-path:url(#SVGID_00000147188247985440533980000005295734344051669182_);}
	.st21{clip-path:url(#SVGID_00000140009057719897202920000016529704320194368445_);}
	.st22{clip-path:url(#SVGID_00000109711963113818963580000006537044805951874229_);}
	.st23{fill:#739BFD;}
	.st24{clip-path:url(#SVGID_00000152948132529896272740000003690364137794854803_);}
	.st25{clip-path:url(#SVGID_00000073713934414541323430000006593816497921288383_);}
	.st26{clip-path:url(#SVGID_00000075139263302108459850000015052527411051549341_);}
	.st27{clip-path:url(#SVGID_00000115482531655024458230000015180059722470128550_);}
	.st28{clip-path:url(#SVGID_00000028294428773728891480000001438132896283788958_);}
	.st29{clip-path:url(#SVGID_00000107584797109097762120000012784126556559806132_);}
	.st30{clip-path:url(#SVGID_00000048503290864271831170000011625531072078554772_);}
	.st31{clip-path:url(#SVGID_00000085243097830586722840000016734271247608708542_);}
	.st32{clip-path:url(#SVGID_00000093879492364822886110000009915696682984740259_);}
	.st33{fill:#E3EEFD;}
	.st34{clip-path:url(#SVGID_00000045600186889050341140000009811505522713140889_);}
	.st35{clip-path:url(#SVGID_00000008133640992302135520000008172123083025846937_);}
	.st36{clip-path:url(#SVGID_00000127732394082139982940000007205657163009559738_);}
	.st37{clip-path:url(#SVGID_00000005248771731020348870000018292470602032273325_);}
	.st38{fill:#2F5DD1;}
	.st39{fill:#D1DAF7;}
	.st40{clip-path:url(#SVGID_00000080164644113937105890000009895473973826513301_);}
	.st41{clip-path:url(#SVGID_00000178165270633471512020000012084552123134310292_);}
	.st42{clip-path:url(#SVGID_00000028326991541447730210000011786860310609835176_);}
	.st43{fill:#12007C;}
	.st44{clip-path:url(#SVGID_00000022542223665110797670000018030469076463696547_);}
	.st45{fill:none;stroke:#A4C4FF;stroke-width:3;stroke-linecap:round;stroke-linejoin:round;}
	.st46{fill:none;stroke:#1F1A3E;stroke-width:2.62;stroke-linecap:round;stroke-linejoin:round;}
	.st47{fill:#1F1A3E;}
	.st48{fill:#D9D9D9;}
	.st49{fill:#B4B4B3;}
</style>
<g>
	<g id="Layer_2_00000089566639633931080950000008809695840782511024_">
		<g id="Слой_1">
			<g>
				<defs>
					<rect id="SVGID_1_" width="1245" height="300"/>
				</defs>
				<clipPath id="SVGID_00000070805066076035230330000011933525749061964946_">
					<use xlink:href="#SVGID_1_"  style="overflow:visible;"/>
				</clipPath>
				<g style="clip-path:url(#SVGID_00000070805066076035230330000011933525749061964946_);">
					
						<radialGradient id="SVGID_00000070101880990750379150000016554094259700388278_" cx="1769.4504" cy="829.6826" r="700.62" gradientTransform="matrix(-0.76 0.55 0.47 0.5 1940.34 -1631.3101)" gradientUnits="userSpaceOnUse">
						<stop  offset="0" style="stop-color:#73D7FF"/>
						<stop  offset="1" style="stop-color:#002BC6"/>
					</radialGradient>
					<rect style="fill:url(#SVGID_00000070101880990750379150000016554094259700388278_);" width="1245" height="300"/>
					<path class="st2" d="M1218.4,40.4c-3.4,1.4-6.6,3.2-9.6,5.3l-10-10l-15.5,15.5l10.6,10.6c-3,4.9-5,10.3-6.2,15.9h-15.3v22h15.3
						c1.2,5.6,3.3,11,6.2,15.9l-10.6,10.6l15.5,15.5l10-10c5,3.5,10.5,6.1,16.4,7.7v13.3h22v-12.2c4.9-0.8,9.6-2.2,14-4.4v-17.6
						c-23.4,18.6-60.4,0.3-59.6-29.7c-0.8-30,36.2-48.4,59.6-29.7V41.3c-4.4-2.1-9.2-3.6-14-4.4V24.7h-22V38
						C1222.9,38.7,1220.6,39.5,1218.4,40.4z"/>
					<path class="st2" d="M1157.4,19.5V14h-9.8v6c-2.6,0.7-5.1,1.9-7.3,3.4l-4.5-4.5l-6.9,6.9l4.7,4.7c-1.3,2.2-2.3,4.6-2.8,7.1
						h-6.8v9.8h6.8c0.5,2.5,1.5,4.9,2.8,7.1l-4.7,4.7l6.9,6.9l4.5-4.5c2.2,1.5,4.7,2.7,7.3,3.4v6h9.8v-5.5c2.9-0.5,5.7-1.5,8.3-3
						l3.6,3.6l6.9-6.9l-3.3-3.3c1.8-2.5,3.1-5.4,3.7-8.5h4.5v-9.8h-4.5c-0.6-3.1-1.9-6-3.7-8.5l3.3-3.3l-6.9-6.9l-3.6,3.6
						C1163.1,21,1160.3,20,1157.4,19.5z M1170.3,42.7c-0.7,22-32.6,22-33.3,0C1137.7,20.6,1169.6,20.6,1170.3,42.7z"/>
					<path class="st2" d="M944.6,53.5V48h-9.8v6c-2.6,0.7-5.1,1.9-7.3,3.4l-4.5-4.5l-6.9,6.9l4.7,4.7c-1.3,2.2-2.3,4.6-2.8,7.1h-6.8
						v9.8h6.8c0.5,2.5,1.5,4.9,2.8,7.1l-4.7,4.7l6.9,6.9l4.5-4.5c2.2,1.5,4.7,2.7,7.3,3.4v6h9.8v-5.5c2.9-0.5,5.7-1.5,8.3-3l3.6,3.6
						l6.9-6.9l-3.3-3.3c1.8-2.5,3.1-5.4,3.7-8.5h4.5v-9.8h-4.5c-0.6-3.1-1.9-6-3.7-8.5l3.3-3.3l-6.9-6.9l-3.6,3.6
						C950.4,55,947.5,53.9,944.6,53.5z M957.6,76.6c-0.7,22-32.6,22-33.3,0C924.9,54.6,956.9,54.6,957.6,76.6z"/>
					<path class="st2" d="M386.2,231.7v-5.5h-9.8v6c-2.6,0.7-5.1,1.9-7.3,3.4l-4.5-4.5l-6.9,6.9l4.7,4.7c-1.3,2.2-2.3,4.6-2.8,7.1
						h-6.8v9.8h6.8c0.5,2.5,1.5,4.9,2.8,7.1l-4.7,4.7l6.9,6.9l4.5-4.5c2.2,1.5,4.7,2.7,7.3,3.4v6h9.8V278c2.9-0.5,5.7-1.5,8.3-3
						l3.6,3.6l6.9-6.9l-3.3-3.3c1.8-2.5,3.1-5.4,3.7-8.5h4.5V250h-4.5c-0.6-3.1-1.9-6-3.7-8.5l3.3-3.3l-6.9-6.9l-3.6,3.6
						C392,233.3,389.2,232.2,386.2,231.7z M399.1,254.9c-0.7,22-32.6,22-33.3,0C366.5,232.9,398.4,232.9,399.1,254.9z"/>
					<path id="SVGID" class="st3" d="M921.1,151.7h14c-4.1-55,76.8-54.9,72.6,0h18l20.8,148.3h-152L921.1,151.7z M1001.2,145.8
						c-2.3-42.6-64.4-36.5-59.6,5.8h59.6V145.8z"/>
					<g>
						<defs>
							<path id="SVGID_00000070823696994794559930000001338347698779581876_" d="M921.1,151.7h14c-4.1-55,76.8-54.9,72.6,0h18
								l20.8,148.3h-152L921.1,151.7z M1001.2,145.8c-2.3-42.6-64.4-36.5-59.6,5.8h59.6V145.8z"/>
						</defs>
						<clipPath id="SVGID_00000036945719876039846230000007648854501927546559_">
							<use xlink:href="#SVGID_00000070823696994794559930000001338347698779581876_"  style="overflow:visible;"/>
						</clipPath>
						<g style="clip-path:url(#SVGID_00000036945719876039846230000007648854501927546559_);">
							<g>
								<path class="st3" d="M1060.8,285.8c-69.9-43.7-87.1-56.9-99.4-140.1h-47.3l-9.4,161.8l151.6-0.5L1060.8,285.8z"/>
							</g>
						</g>
					</g>
					<polygon class="st5" points="1095,106.6 1083.3,129.6 1100.8,131.4 					"/>
					<polygon id="SVGID-2" class="st6" points="1074.9,80.4 1090.6,117.1 1078.2,119.5 1070.2,89.1 					"/>
					<g>
						<defs>
							<polygon id="SVGID_00000026869961588271358540000006902485343888513956_" points="1074.9,80.4 1090.6,117.1 1078.2,119.5 
								1070.2,89.1 							"/>
						</defs>
						<clipPath id="SVGID_00000163056809244326456850000013816214346350810288_">
							<use xlink:href="#SVGID_00000026869961588271358540000006902485343888513956_"  style="overflow:visible;"/>
						</clipPath>
						<g style="clip-path:url(#SVGID_00000163056809244326456850000013816214346350810288_);">
							<path class="st8" d="M1071.7,99.2c0,0,7.5,11.1,17.2,10.6l4.3,9.2l-18.2-2.1L1071.7,99.2z"/>
						</g>
					</g>
					<path class="st9" d="M1068.4,76.3l-4.4,11.3c-0.3,0.8,0.1,1.6,0.9,1.9c0,0,0.1,0,0.1,0l4.6,1.1c0.7,0.2,1.4-0.2,1.7-0.9
						l5.1-13.3L1068.4,76.3z"/>
					<path class="st8" d="M1048.4,48.2l30.2,20.8c1.4,1,2.1,2.7,1.7,4.4l0,0c-0.4,1.8-2,3.1-3.8,3.2l-36,1.6L1048.4,48.2z"/>
					<path class="st9" d="M1044.5,63c0.5-2,2.5-3.2,4.5-2.7c0.9,0.2,1.6,0.7,2.1,1.5c2.8-18.8-11-18.6-15.1-0.9
						c-4.5,17.7,7.7,24.2,13.8,6.2c-1.8,0.9-4.1,0.2-5-1.6C1044.4,64.7,1044.3,63.8,1044.5,63z"/>
					<path class="st10" d="M1051.1,61.8c-1.2-1.7-3.4-2.1-5.1-0.9c-0.7,0.5-1.3,1.3-1.5,2.1c-0.8,3,2.7,5.7,5.3,4.1
						C1050.4,65.4,1050.9,63.6,1051.1,61.8z"/>
					<path class="st9" d="M1062,57.5c0,0,2.8,8.4-4.8,19.8l3.9-0.2c0,0,6-5.8,4.9-16.9L1062,57.5z"/>
					<path class="st6" d="M1077.8,87.2c0,0-1.1-7.8-2.3-8.6c-3.9-2.4-6.8-1.6-6.4-0.4c0.2,0.5,3.3,2.7,3.3,2.7s-0.2,6.2-0.3,6.7
						C1071.8,88.6,1077.8,87.2,1077.8,87.2z"/>
					<path class="st6" d="M1067.4,78.6c0,0,3.9,1.1,3.9,1.7s-2.3,5.3-3,5.5s-3.3-0.2-3.4-0.5C1063.9,83.8,1066.2,79.2,1067.4,78.6z"
						/>
					<path class="st9" d="M1167.9,275.9c0,0-4.3,5.9-11.4,1.3l-11.2,15.3c-1.6,2.3-1.5,5.3,0.1,7.5l0,0l26-15.5
						c1-0.6,1.6-1.7,1.6-2.9C1173.2,280.3,1168.6,276.9,1167.9,275.9z"/>
					<path id="SVGID-3" class="st6" d="M1154.1,270.2l3.3,7.6c0,0,6.2,3.4,10.4-2l-4.4-11.1L1154.1,270.2z"/>
					<g>
						<defs>
							<path id="SVGID_00000123441289191404905760000006481499249474060179_" d="M1154.1,270.2l3.3,7.6c0,0,6.2,3.4,10.4-2
								l-4.4-11.1L1154.1,270.2z"/>
						</defs>
						<clipPath id="SVGID_00000143579358387079432510000013406502474574493852_">
							<use xlink:href="#SVGID_00000123441289191404905760000006481499249474060179_"  style="overflow:visible;"/>
						</clipPath>
						<g style="clip-path:url(#SVGID_00000143579358387079432510000013406502474574493852_);">
							<polygon class="st8" points="1156.4,277.3 1166.8,270.9 1164.7,265.3 1153.3,271.9 							"/>
						</g>
					</g>
					<path class="st9" d="M1144,201.3c9.5-44.4-7.9-51.2-7.9-51.2h-31l-19.9,127.2l16.5,1.3c0.9-1.7,17.5-70.5,20.2-68.9l31,63.7
						l15.4-5L1144,201.3z"/>
					<path class="st12" d="M1121.9,209.7l-12.2-29.7c0,0,0,26.2,9.2,34.3L1121.9,209.7z"/>
					<path class="st9" d="M1104.5,60.3c11.4-11.4,28,26.8,28.9,27.9c39.5,19.3-0.7,37.4-28.9,26.7c-7.5-1.9-12.9-8.4-13.5-16.1
						C1089.9,84.7,1090.5,63.1,1104.5,60.3z"/>
					<path id="SVGID-4" class="st6" d="M1097.3,77.3c2.9-27.5,29.8-9.7,18.1,9.6l2.8,13.8l-10.4,1.8l-1.4-11.3
						C1101.2,90.4,1097.3,84.5,1097.3,77.3z"/>
					<g>
						<defs>
							<path id="SVGID_00000111183912119823216430000008422275338433455797_" d="M1097.3,77.3c2.9-27.5,29.8-9.7,18.1,9.6l2.8,13.8
								l-10.4,1.8l-1.4-11.3C1101.2,90.4,1097.3,84.5,1097.3,77.3z"/>
						</defs>
						<clipPath id="SVGID_00000105402437917496992500000003014298179240253618_">
							<use xlink:href="#SVGID_00000111183912119823216430000008422275338433455797_"  style="overflow:visible;"/>
						</clipPath>
						<g style="clip-path:url(#SVGID_00000105402437917496992500000003014298179240253618_);">
							<path class="st8" d="M1119.7,78.4c0,0-7.7-2-10.3-4.2l2.6,2.6c0,0-7.9-1.9-9.7-6.7c0,0-3.1,3.9-3.4,7.2
								c-0.5-4-2.4-12.5,5.3-13.6l14.9,11.9L1119.7,78.4z"/>
						</g>
					</g>
					<g>
						<defs>
							<path id="SVGID_00000081625790592809158670000012576925455754464402_" d="M1097.3,77.3c2.9-27.5,29.8-9.7,18.1,9.6l2.8,13.8
								l-10.4,1.8l-1.4-11.3C1101.2,90.4,1097.3,84.5,1097.3,77.3z"/>
						</defs>
						<clipPath id="SVGID_00000046305902942417540970000010029634772932197265_">
							<use xlink:href="#SVGID_00000081625790592809158670000012576925455754464402_"  style="overflow:visible;"/>
						</clipPath>
						<g style="clip-path:url(#SVGID_00000046305902942417540970000010029634772932197265_);">
							<path class="st8" d="M1115.3,87c-1.9,2.3-4.6,3.8-7.6,4.2c0,0,5.7,1.6,9.3-0.3L1115.3,87"/>
						</g>
					</g>
					<g>
						<defs>
							<path id="SVGID_00000010280169086094062410000005335408613896188304_" d="M1097.3,77.3c2.9-27.5,29.8-9.7,18.1,9.6l2.8,13.8
								l-10.4,1.8l-1.4-11.3C1101.2,90.4,1097.3,84.5,1097.3,77.3z"/>
						</defs>
						<clipPath id="SVGID_00000057143869876764354190000017812022068646745498_">
							<use xlink:href="#SVGID_00000010280169086094062410000005335408613896188304_"  style="overflow:visible;"/>
						</clipPath>
						<g style="clip-path:url(#SVGID_00000057143869876764354190000017812022068646745498_);">
							<path class="st16" d="M1103.9,86.1c0,0,3.5-0.2,4.7-2.1c0,0-0.5,3.3-2.6,3.6c-0.9,0.2-1.8-0.3-2-1.2
								C1103.9,86.3,1103.9,86.2,1103.9,86.1z"/>
						</g>
					</g>
					<path class="st9" d="M1105.9,62c0,0-0.5,14.2,12.3,14.5C1118.2,76.6,1118.6,60.1,1105.9,62z"/>
					<path class="st9" d="M1106.3,63.4c0,0-0.3,8.9,3.4,12.2c0,0-6.8-3.6-5.7-11.4C1104,64.2,1104.3,63.3,1106.3,63.4z"/>
					<path class="st9" d="M1105.1,63.2c0,0-5.6,7.5-5.9,12.4c0,0-0.2-7.8,2.2-12.2L1105.1,63.2z"/>
					<path id="SVGID-5" class="st10" d="M1103.9,154.1c0,0-10.4-34.5-10.1-43.1s12.7-15.4,12.7-15.4l10.4-1.8c0,0,18.1,0.9,22,13
						s3.4,47.4,3.4,47.4L1103.9,154.1z"/>
					<g>
						<defs>
							<path id="SVGID_00000091016150476747241250000007287138804165287589_" d="M1103.9,154.1c0,0-10.4-34.5-10.1-43.1
								s12.7-15.4,12.7-15.4l10.4-1.8c0,0,18.1,0.9,22,13s3.4,47.4,3.4,47.4L1103.9,154.1z"/>
						</defs>
						<clipPath id="SVGID_00000086687959446604814460000007574477885672882862_">
							<use xlink:href="#SVGID_00000091016150476747241250000007287138804165287589_"  style="overflow:visible;"/>
						</clipPath>
						<g style="clip-path:url(#SVGID_00000086687959446604814460000007574477885672882862_);">
							<path class="st5" d="M1094.9,134c0,0,34.6,13.2,52.6,13v9.6h-46.8L1094.9,134z"/>
						</g>
					</g>
					<g>
						<defs>
							<path id="SVGID_00000110446245084438084200000017636195025318351803_" d="M1103.9,154.1c0,0-10.4-34.5-10.1-43.1
								s12.7-15.4,12.7-15.4l10.4-1.8c0,0,18.1,0.9,22,13s3.4,47.4,3.4,47.4L1103.9,154.1z"/>
						</defs>
						<clipPath id="SVGID_00000031921739689882385720000010821075028496912814_">
							<use xlink:href="#SVGID_00000110446245084438084200000017636195025318351803_"  style="overflow:visible;"/>
						</clipPath>
						<g style="clip-path:url(#SVGID_00000031921739689882385720000010821075028496912814_);">
							<polyline class="st5" points="1121.9,113.9 1116.6,108.6 1118.1,113.9 1121.9,113.9 							"/>
						</g>
					</g>
					<path class="st19" d="M1157,113.9h-77.9V99c0-1.8-1.4-3.2-3.2-3.2c-0.6,0-1.2,0.2-1.7,0.5l-48.1,30c-1.5,1-2,3-1,4.5
						c0.3,0.4,0.6,0.7,1,1l48.1,30c1.5,0.9,3.5,0.5,4.4-1.1c0.3-0.5,0.5-1.1,0.5-1.6v-14.9h77.9V113.9z"/>
					<path id="SVGID-6" class="st6" d="M1110.1,140.1c0,0-4.3-0.8-4.2-1.6c0.2-1.1,8.3-0.6,8.3-0.6c3.3-1.8,34.2-20.3,36.8-20.9
						c4.5,4.1,9.5,8.7,3.9,14.5l0,0c-0.8,0.7-1.7,1.2-2.7,1.5l-34.8,10.4c0,0-5.7,4.2-6.4,4.3c-4.7,0.5-7.5-3.1-8-3.7
						S1110.1,140.1,1110.1,140.1z"/>
					<g>
						<defs>
							<path id="SVGID_00000063624612519032213530000003120865428641207464_" d="M1110.1,140.1c0,0-4.3-0.8-4.2-1.6
								c0.2-1.1,8.3-0.6,8.3-0.6c3.3-1.8,34.2-20.3,36.8-20.9c4.5,4.1,9.5,8.7,3.9,14.5l0,0c-0.8,0.7-1.7,1.2-2.7,1.5l-34.8,10.4
								c0,0-5.7,4.2-6.4,4.3c-4.7,0.5-7.5-3.1-8-3.7S1110.1,140.1,1110.1,140.1z"/>
						</defs>
						<clipPath id="SVGID_00000058566848662388949830000001455818614242841228_">
							<use xlink:href="#SVGID_00000063624612519032213530000003120865428641207464_"  style="overflow:visible;"/>
						</clipPath>
						<g style="clip-path:url(#SVGID_00000058566848662388949830000001455818614242841228_);">
							<path class="st8" d="M1157.9,119.7c0,0-2.9,3.8-20.4,2.8l15.3-9.5L1157.9,119.7z"/>
						</g>
					</g>
					<path id="SVGID-7" class="st10" d="M1133.3,99.2l19,17.1l-18,9.6C1119.3,110.4,1113.7,114.8,1133.3,99.2z"/>
					<g>
						<defs>
							<path id="SVGID_00000178888381481409624480000016374381902859210889_" d="M1133.3,99.2l19,17.1l-18,9.6
								C1119.3,110.4,1113.7,114.8,1133.3,99.2z"/>
						</defs>
						<clipPath id="SVGID_00000082364807183457447050000012542334235340670115_">
							<use xlink:href="#SVGID_00000178888381481409624480000016374381902859210889_"  style="overflow:visible;"/>
						</clipPath>
						<g style="clip-path:url(#SVGID_00000082364807183457447050000012542334235340670115_);">
							<path class="st5" d="M1121.9,113.9c0,0,11.5,8.2,19.5,8.3l0,0l-7.2,5C1134.2,127.2,1123.1,117.2,1121.9,113.9"/>
						</g>
					</g>
					<path class="st9" d="M1097.2,290.4c0,0-6.7,2.9-10.6-4.6l-17.3,7.7c-2.5,1.2-3.9,3.8-3.7,6.5l0,0l30.2-0.4
						c1.2-0.1,2.2-0.7,2.9-1.7C1099.6,296.9,1097.3,291.6,1097.2,290.4z"/>
					<path id="SVGID-8" class="st6" d="M1087.8,277.5l-0.6,9.4c0,0,3.6,6,10,3.5l2.1-12L1087.8,277.5z"/>
					<g>
						<defs>
							<path id="SVGID_00000048488699679600447570000005943585385770704259_" d="M1087.8,277.5l-0.6,9.4c0,0,3.6,6,10,3.5l2.1-12
								L1087.8,277.5z"/>
						</defs>
						<clipPath id="SVGID_00000090973908381798401160000008116568967113710240_">
							<use xlink:href="#SVGID_00000048488699679600447570000005943585385770704259_"  style="overflow:visible;"/>
						</clipPath>
						<g style="clip-path:url(#SVGID_00000090973908381798401160000008116568967113710240_);">
							<path class="st8" d="M1085.9,280.2l13.6,3.9c0,0,1.8-7.8,1.1-8.2s-13.4,0-13.4,0L1085.9,280.2z"/>
						</g>
					</g>
					<path class="st12" d="M1106.3,154.1c0,0,24.3,9.7,38.2,7.2c-0.7-2.6-2-5.1-3.7-7.2H1106.3z"/>
					<path class="st23" d="M326.4,39.9l-3.9-39.2c-0.2-1.8-1.8-3.1-3.6-2.9c0,0,0,0,0,0l-39.2,3.9c-1.8,0.2-3.1,1.8-2.9,3.6
						c0,0,0,0,0,0l3.9,39.2c0.2,1.8,1.8,3.1,3.6,2.9c0,0,0,0,0,0l8.8-0.9l0.9,6.3c0.1,1.1,1.2,1.9,2.3,1.8c0.5-0.1,1-0.3,1.3-0.7
						l7.6-8.6l18.4-1.8C325.3,43.2,326.5,41.6,326.4,39.9z"/>
					<path id="SVGID-9" class="st6" d="M220.8,287.2l-3.8-8.3l-10.4,2.1l5.4,10.6C215.9,293.1,221.7,294.4,220.8,287.2z"/>
					<g>
						<defs>
							<path id="SVGID_00000027566376078063140120000006828185608647802045_" d="M220.8,287.2l-3.8-8.3l-10.4,2.1l5.4,10.6
								C215.9,293.1,221.7,294.4,220.8,287.2z"/>
						</defs>
						<clipPath id="SVGID_00000005950071236701631020000015016991292963446717_">
							<use xlink:href="#SVGID_00000027566376078063140120000006828185608647802045_"  style="overflow:visible;"/>
						</clipPath>
						<g style="clip-path:url(#SVGID_00000005950071236701631020000015016991292963446717_);">
							<polygon class="st8" points="221.8,281 206.6,287.2 202.7,278.9 217.2,277.1 							"/>
						</g>
					</g>
					<path class="st9" d="M211.3,291.4c0,0,6,2.7,9.5-4.1l15.6,6.9c2.2,1,3.5,3.4,3.3,5.8l-27.2-0.4c-1.1-0.1-2.1-0.7-2.6-1.6
						C209.2,297.2,211.2,292.3,211.3,291.4z"/>
					<polygon id="SVGID-10" class="st6" points="126.6,149.2 125.3,160 109.4,182.9 119.3,184.2 134.8,166.7 137,149.2 					"/>
					<g>
						<defs>
							<polygon id="SVGID_00000078012970993910654400000011301638346694538424_" points="126.6,149.2 125.3,160 109.4,182.9 
								119.3,184.2 134.8,166.7 137,149.2 							"/>
						</defs>
						<clipPath id="SVGID_00000029009216257367776180000015465919544402502548_">
							<use xlink:href="#SVGID_00000078012970993910654400000011301638346694538424_"  style="overflow:visible;"/>
						</clipPath>
						<g style="clip-path:url(#SVGID_00000029009216257367776180000015465919544402502548_);">
							<polygon class="st8" points="125,150.7 133.5,154.9 133.2,147.7 125.7,147.6 							"/>
						</g>
					</g>
					<g>
						<defs>
							<polygon id="SVGID_00000139996083635466574910000006779594010821993108_" points="126.6,149.2 125.3,160 109.4,182.9 
								119.3,184.2 134.8,166.7 137,149.2 							"/>
						</defs>
						<clipPath id="SVGID_00000101788027555220777540000010078701172151985810_">
							<use xlink:href="#SVGID_00000139996083635466574910000006779594010821993108_"  style="overflow:visible;"/>
						</clipPath>
						<g style="clip-path:url(#SVGID_00000101788027555220777540000010078701172151985810_);">
							<path class="st8" d="M132,163.6c-0.4,0.5-19.4,19.6-19.4,19.6s18.4-7,19.4-10.5S132,163.6,132,163.6z"/>
						</g>
					</g>
					<polygon class="st10" points="133.5,149.2 125,149.2 127.9,130.9 135.1,126 					"/>
					<path id="SVGID-11" class="st6" d="M138.5,92.1l-5.4,16.4c-0.9,2.6,0.6,5.4,3.2,6.3c0.3,0.1,0.6,0.2,0.9,0.2l8.5,1.2l2.8,13.8
						H162l-9.9-37.9H138.5z"/>
					<g>
						<defs>
							<path id="SVGID_00000025422569854715567830000013500772211137352852_" d="M138.5,92.1l-5.4,16.4c-0.9,2.6,0.6,5.4,3.2,6.3
								c0.3,0.1,0.6,0.2,0.9,0.2l8.5,1.2l2.8,13.8H162l-9.9-37.9H138.5z"/>
						</defs>
						<clipPath id="SVGID_00000153707735953091210360000009192172209622368927_">
							<use xlink:href="#SVGID_00000025422569854715567830000013500772211137352852_"  style="overflow:visible;"/>
						</clipPath>
						<g style="clip-path:url(#SVGID_00000153707735953091210360000009192172209622368927_);">
							<path class="st8" d="M132.9,112.6c4.7,1,9.6,0.7,14.2-0.7c0,0-1.6,2.9-1.2,5.1l0,0C145.9,117,133.9,116.7,132.9,112.6z"/>
						</g>
					</g>
					<g>
						<defs>
							<path id="SVGID_00000128474416633054774050000013075260273021527987_" d="M138.5,92.1l-5.4,16.4c-0.9,2.6,0.6,5.4,3.2,6.3
								c0.3,0.1,0.6,0.2,0.9,0.2l8.5,1.2l2.8,13.8H162l-9.9-37.9H138.5z"/>
						</defs>
						<clipPath id="SVGID_00000147200879383173111230000010585363706352960189_">
							<use xlink:href="#SVGID_00000128474416633054774050000013075260273021527987_"  style="overflow:visible;"/>
						</clipPath>
						<g style="clip-path:url(#SVGID_00000147200879383173111230000010585363706352960189_);">
							<path class="st8" d="M135.2,95.1c0,0,1.7,6.7,14.7,6.1l0,0l-10.7-10.6L135.2,95.1z"/>
						</g>
					</g>
					<path class="st9" d="M139.1,92.1c0,0,6,8.3,10.8,9.1l0.9-3c0,0,3.7,3,0.6,6.4c0,0,1.2,4.7,5.5,6.2c0.5-3,6.9-24.2-0.7-28.4
						l0.5,3.3c-1.4-3-8.1-4.5-14.8-4.6l2.7,1.8c-5.2-1.4-14.1,1.4-13.4,9.1l3.4-3.4c-1.4,2.6-1.5,5.7-0.4,8.5
						C134.3,97.2,138.5,94.4,139.1,92.1z"/>
					<path class="st9" d="M131.4,185.2l-14.9,40.7c-3.6,1.7,17.5,52,17.8,55h14l-6.4-52.1l8.9-17.1l30.6,33.3l23.6,37.5l15.2-3.2
						l-16.7-44.8l-30.4-49.4L131.4,185.2z"/>
					<path class="st12" d="M151.1,185.3c0,0-10.4,15.8-26.7,19.1c0,0,25.9,0.3,33.2-19.1H151.1z"/>
					<path class="st10" d="M127.9,185.3h47l-5.4-55.1c-1.6-12.4-13-12-22.7-11.6c-6.6,0-12.1,4.9-12.8,11.4L127.9,185.3z"/>
					<path id="SVGID-12" class="st9" d="M141.6,194.9c20.6-16.7,23.4-49.6,5.9-69.5l-25.7-30.5l-19.2,16.2
						c12.4,17.2,47.7,42.6,22.8,64.6c-25.8,20.8-45-18.3-59.8-33.4l-19.2,16.2L72,189C88.7,209.6,121.6,212.4,141.6,194.9z"/>
					
						<rect id="SVGID-13" x="94.3" y="88.8" transform="matrix(0.7645 -0.6447 0.6447 0.7645 -37.2508 91.7101)" class="st10" width="25.2" height="16.1"/>
					<g>
						<defs>
							
								<rect id="SVGID_00000140006593783491533160000013134649854623654292_" x="94.3" y="88.8" transform="matrix(0.7645 -0.6447 0.6447 0.7645 -37.2508 91.7101)" width="25.2" height="16.1"/>
						</defs>
						<clipPath id="SVGID_00000024680599531836601680000009981328819281827208_">
							<use xlink:href="#SVGID_00000140006593783491533160000013134649854623654292_"  style="overflow:visible;"/>
						</clipPath>
						<g style="clip-path:url(#SVGID_00000024680599531836601680000009981328819281827208_);">
							<polyline class="st5" points="108,106.5 97.6,94.2 92.1,98.8 102.5,111.1 108,106.5 							"/>
						</g>
					</g>
					
						<rect id="SVGID-14" x="38.1" y="136.2" transform="matrix(0.7645 -0.6447 0.6447 0.7645 -81.0505 66.6539)" class="st10" width="25.2" height="16.1"/>
					<g>
						<defs>
							
								<rect id="SVGID_00000105388844234642311250000001388990993734082738_" x="38.1" y="136.2" transform="matrix(0.7645 -0.6447 0.6447 0.7645 -81.0505 66.6539)" width="25.2" height="16.1"/>
						</defs>
						<clipPath id="SVGID_00000036965381566872817990000008725952559225703088_">
							<use xlink:href="#SVGID_00000105388844234642311250000001388990993734082738_"  style="overflow:visible;"/>
						</clipPath>
						<g style="clip-path:url(#SVGID_00000036965381566872817990000008725952559225703088_);">
							<polyline class="st5" points="60.4,146.6 49.9,134.4 55.2,130 65.5,142.3 60.4,146.6 							"/>
						</g>
					</g>
					<polygon class="st10" points="166.6,123.3 187.1,151.9 169.2,163.6 					"/>
					<path id="SVGID-15" class="st6" d="M135.5,182.7c-0.2-0.7,8.6-3.9,8.6-3.9l37.4-23.1c2.3,4.1,7,9.4,4.2,13.9l0,0
						c-1,2.1-2.8,3.7-5,4.5l-31.8,12.1c-5.1,5.6-5.4,8.2-13.5,4.5c-0.2-0.3,2.4-3.8,4.8-6.9C137.8,184,135.6,183.3,135.5,182.7z"/>
					<g>
						<defs>
							<path id="SVGID_00000171715149427044230520000018215923220734335916_" d="M135.5,182.7c-0.2-0.7,8.6-3.9,8.6-3.9l37.4-23.1
								c2.3,4.1,7,9.4,4.2,13.9l0,0c-1,2.1-2.8,3.7-5,4.5l-31.8,12.1c-5.1,5.6-5.4,8.2-13.5,4.5c-0.2-0.3,2.4-3.8,4.8-6.9
								C137.8,184,135.6,183.3,135.5,182.7z"/>
						</defs>
						<clipPath id="SVGID_00000144295783258754413290000015053575382663601795_">
							<use xlink:href="#SVGID_00000171715149427044230520000018215923220734335916_"  style="overflow:visible;"/>
						</clipPath>
						<g style="clip-path:url(#SVGID_00000144295783258754413290000015053575382663601795_);">
							<path class="st8" d="M168,163.6c0,0,15-1.3,16.3-4.8l-3.7-5.5L168,163.6"/>
						</g>
					</g>
					<path class="st5" d="M168.3,163.8l-12.6-24.6c3.9,10.1,4.4,21.1,1.6,31.5L168.3,163.8z"/>
					<path id="SVGID-16" class="st6" d="M146.9,291.4l-2-10.4h-9.5l2.6,8.3C137.9,289.3,142.3,294.2,146.9,291.4z"/>
					<g>
						<defs>
							<path id="SVGID_00000135688700878714164530000008729213693431108767_" d="M146.9,291.4l-2-10.4h-9.5l2.6,8.3
								C137.9,289.3,142.3,294.2,146.9,291.4z"/>
						</defs>
						<clipPath id="SVGID_00000124882592234465366830000014509296391369942422_">
							<use xlink:href="#SVGID_00000135688700878714164530000008729213693431108767_"  style="overflow:visible;"/>
						</clipPath>
						<g style="clip-path:url(#SVGID_00000124882592234465366830000014509296391369942422_);">
							<polygon class="st8" points="146.9,285.6 135.1,283 134.4,280.2 145.7,279.9 							"/>
						</g>
					</g>
					<path class="st9" d="M146.9,291.4c0,0-6,2.7-9.5-4.1l-15.6,6.9c-2.2,1-3.5,3.4-3.3,5.8l0,0l27.2-0.4c1.1-0.1,2-0.6,2.6-1.5
						C149,297.2,147,292.4,146.9,291.4z"/>
					<path id="SVGID-17" class="st33" d="M79.4,56.2c0.3,16.8,25.3,16.8,25.6,0C104.6,39.4,79.6,39.4,79.4,56.2z"/>
					<g>
						<defs>
							<path id="SVGID_00000118357008955833762330000017129441275146613182_" d="M79.4,56.2c0.3,16.8,25.3,16.8,25.6,0
								C104.6,39.4,79.6,39.4,79.4,56.2z"/>
						</defs>
						<clipPath id="SVGID_00000129901034132366048220000006144256787365674936_">
							<use xlink:href="#SVGID_00000118357008955833762330000017129441275146613182_"  style="overflow:visible;"/>
						</clipPath>
						<g style="clip-path:url(#SVGID_00000129901034132366048220000006144256787365674936_);">
							<path class="st23" d="M87.9,56.9c-3.5-3.5-0.8-10,4.2-9.9c5-0.2,7.8,6.4,4.2,9.9c11.6,4.3,8.3,22.4-4.2,22.2
								C79.6,79.4,76.3,61.3,87.9,56.9z"/>
						</g>
					</g>
					<path id="SVGID-18" class="st33" d="M74.3,96.2c4.8,14.3,26.1,7.5,21.8-6.9C91.4,75,70,81.7,74.3,96.2z"/>
					<g>
						<defs>
							<path id="SVGID_00000150104442863448073040000003435781486390064056_" d="M74.3,96.2c4.8,14.3,26.1,7.5,21.8-6.9
								C91.4,75,70,81.7,74.3,96.2z"/>
						</defs>
						<clipPath id="SVGID_00000138543452182521531130000012034882649438577049_">
							<use xlink:href="#SVGID_00000150104442863448073040000003435781486390064056_"  style="overflow:visible;"/>
						</clipPath>
						<g style="clip-path:url(#SVGID_00000138543452182521531130000012034882649438577049_);">
							<path class="st23" d="M81.8,94.5c-3.9-2-3.4-8.4,1-9.6c4.2-1.5,8.4,3.4,6.3,7.3c11.1,0.6,13.2,16.9,2.4,20.1
								C80.7,115.9,73.1,101.3,81.8,94.5z"/>
						</g>
					</g>
					<path id="SVGID-19" class="st33" d="M31.9,133.5c0.2,11.5,17.4,11.5,17.6,0C49.3,121.9,32.1,121.9,31.9,133.5z"/>
					<g>
						<defs>
							<path id="SVGID_00000059302640856243111110000017397600459271273607_" d="M31.9,133.5c0.2,11.5,17.4,11.5,17.6,0
								C49.3,121.9,32.1,121.9,31.9,133.5z"/>
						</defs>
						<clipPath id="SVGID_00000183215697092513003560000007194372646362114488_">
							<use xlink:href="#SVGID_00000059302640856243111110000017397600459271273607_"  style="overflow:visible;"/>
						</clipPath>
						<g style="clip-path:url(#SVGID_00000183215697092513003560000007194372646362114488_);">
							<path class="st23" d="M37.8,134c-2.4-2.4-0.5-6.9,2.9-6.8c3.4-0.1,5.3,4.4,2.9,6.8c8,3,5.7,15.4-2.9,15.3
								C32.1,149.4,29.9,137,37.8,134z"/>
						</g>
					</g>
					<path id="SVGID-20" class="st33" d="M29,99.8c6.2,22.3,39.6,13.6,34.1-8.9C56.9,68.5,23.5,77.2,29,99.8z"/>
					<g>
						<defs>
							<path id="SVGID_00000082352440424080193940000016652230259336798631_" d="M29,99.8c6.2,22.3,39.6,13.6,34.1-8.9
								C56.9,68.5,23.5,77.2,29,99.8z"/>
						</defs>
						<clipPath id="SVGID_00000089539489229414115450000007854910172198723240_">
							<use xlink:href="#SVGID_00000082352440424080193940000016652230259336798631_"  style="overflow:visible;"/>
						</clipPath>
						<g style="clip-path:url(#SVGID_00000089539489229414115450000007854910172198723240_);">
							<path class="st23" d="M40.7,97.8c-5.9-3.4-4.6-13.1,2.2-14.6c6.6-2,12.6,5.9,9.1,11.7c17,1.7,18.9,27,2.1,31.2
								C37.3,130.6,26.7,107.6,40.7,97.8z"/>
						</g>
					</g>
					<path class="st38" d="M550.4,150.3c-0.1,7.5-11.3,7.5-11.4,0C539.1,142.8,550.2,142.8,550.4,150.3z"/>
					<path class="st38" d="M524.3,56c0,4.2-6.4,4.2-6.4,0S524.3,51.7,524.3,56z"/>
					<path class="st38" d="M707.6,194.1c-0.2,10.7-16.2,10.7-16.3,0C691.5,183.3,707.4,183.3,707.6,194.1z"/>
					<path class="st38" d="M301.6,78c0,5-7.6,5-7.6,0S301.5,73,301.6,78z"/>
					<path class="st39" d="M236.7,3.1c-0.1,6.1-9.1,6.1-9.2,0C227.6-3,236.6-3,236.7,3.1z"/>
					<path class="st38" d="M160,248.6c-0.2,11.3-17,11.3-17.2,0C143,237.3,159.8,237.3,160,248.6z"/>
					<path class="st38" d="M962.5,193.2c-0.1,7.5-11.3,7.5-11.4,0C951.2,185.7,962.4,185.7,962.5,193.2z"/>
					<path class="st38" d="M936.4,98.9c0,4.2-6.4,4.2-6.4,0S936.4,94.7,936.4,98.9z"/>
					<path class="st38" d="M1119.7,237c-0.2,10.7-16.2,10.7-16.3,0C1103.6,226.2,1119.5,226.2,1119.7,237z"/>
					<path class="st38" d="M713.7,120.9c0,5-7.6,5-7.6,0S713.6,115.9,713.7,120.9z"/>
					<path class="st38" d="M648.9,46c-0.1,6.1-9.1,6.1-9.2,0S648.8,40,648.9,46z"/>
					<path class="st9" d="M199.6,300H317c4.6,0,8.3-3.7,8.3-8.3c0,0,0,0,0,0V70.3c0-4.6-3.7-8.3-8.3-8.3c0,0,0,0,0,0H199.6
						c-4.6,0-8.3,3.7-8.3,8.3c0,0,0,0,0,0v221.4C191.3,296.3,195,300,199.6,300C199.6,300,199.6,300,199.6,300z"/>
					<rect id="SVGID-21" x="201.7" y="79.4" class="st3" width="113.1" height="203.1"/>
					<g>
						<defs>
							<rect id="SVGID_00000176722069580711468920000013753596793534623905_" x="201.7" y="79.4" width="113.1" height="203.1"/>
						</defs>
						<clipPath id="SVGID_00000173119965899391949250000018333853210816977337_">
							<use xlink:href="#SVGID_00000176722069580711468920000013753596793534623905_"  style="overflow:visible;"/>
						</clipPath>
						<g style="clip-path:url(#SVGID_00000173119965899391949250000018333853210816977337_);">
							<path class="st33" d="M233.6,150.7H213c-1.8,0-3.3-1.5-3.3-3.3v-20.6c0-1.8,1.5-3.3,3.3-3.3h20.6c1.8,0,3.3,1.5,3.3,3.3v20.6
								C236.9,149.2,235.4,150.7,233.6,150.7z"/>
							<path class="st33" d="M268.6,150.7H248c-1.8,0-3.3-1.5-3.3-3.3v-20.6c0-1.8,1.5-3.3,3.3-3.3h20.6c1.8,0,3.3,1.5,3.3,3.3v20.6
								c0.1,1.8-1.3,3.2-3.1,3.3C268.7,150.7,268.7,150.7,268.6,150.7z"/>
							<path class="st33" d="M303.7,150.7h-20.6c-1.8,0-3.3-1.5-3.3-3.3v-20.6c0-1.8,1.5-3.3,3.3-3.3h20.6c1.8,0,3.3,1.5,3.3,3.3
								v20.6C307,149.2,305.5,150.7,303.7,150.7z"/>
							<path class="st33" d="M233.6,189.4H213c-1.8,0-3.3-1.5-3.3-3.3v-20.6c0-1.8,1.5-3.3,3.3-3.3h20.6c1.8,0,3.3,1.5,3.3,3.3v20.6
								C236.9,187.9,235.4,189.4,233.6,189.4z"/>
							<path class="st33" d="M268.6,189.4H248c-1.8,0-3.3-1.5-3.3-3.3v-20.6c0-1.8,1.5-3.3,3.3-3.3h20.6c1.8,0,3.3,1.5,3.3,3.3v20.6
								c0.1,1.8-1.3,3.2-3.1,3.3C268.7,189.4,268.7,189.4,268.6,189.4z"/>
							<path class="st33" d="M303.7,189.4h-20.6c-1.8,0-3.3-1.5-3.3-3.3v-20.6c0-1.8,1.5-3.3,3.3-3.3h20.6c1.8,0,3.3,1.5,3.3,3.3
								v20.6C307,187.9,305.5,189.4,303.7,189.4z"/>
							<path class="st33" d="M233.6,228.1H213c-1.8,0-3.3-1.5-3.3-3.3v-20.6c0-1.8,1.5-3.3,3.3-3.3h20.6c1.8,0,3.3,1.5,3.3,3.3v20.6
								C236.9,226.6,235.4,228.1,233.6,228.1z"/>
							<path class="st33" d="M268.6,228.1H248c-1.8,0-3.3-1.5-3.3-3.3v-20.6c0-1.8,1.5-3.3,3.3-3.3h20.6c1.8,0,3.3,1.5,3.3,3.3v20.6
								c0.1,1.8-1.3,3.2-3.1,3.3C268.7,228.1,268.7,228.1,268.6,228.1z"/>
							<path class="st33" d="M303.7,228.1h-20.6c-1.8,0-3.3-1.5-3.3-3.3v-20.6c0-1.8,1.5-3.3,3.3-3.3h20.6c1.8,0,3.3,1.5,3.3,3.3
								v20.6C307,226.6,305.5,228.1,303.7,228.1z"/>
						</g>
					</g>
					<g>
						<defs>
							<rect id="SVGID_00000052105177156900127440000014732478967240077235_" x="201.7" y="79.4" width="113.1" height="203.1"/>
						</defs>
						<clipPath id="SVGID_00000085940777459022512000000005138929577547124657_">
							<use xlink:href="#SVGID_00000052105177156900127440000014732478967240077235_"  style="overflow:visible;"/>
						</clipPath>
						<g style="clip-path:url(#SVGID_00000085940777459022512000000005138929577547124657_);">
							<g>
								<polygon class="st3" points="319.2,125.2 198.5,244.8 198.5,282.5 314.9,282.5 								"/>
							</g>
						</g>
					</g>
					<g>
						<defs>
							<rect id="SVGID_00000039100717308133759160000010819282386081921417_" x="201.7" y="79.4" width="113.1" height="203.1"/>
						</defs>
						<clipPath id="SVGID_00000147205581391900451400000015007030357510859442_">
							<use xlink:href="#SVGID_00000039100717308133759160000010819282386081921417_"  style="overflow:visible;"/>
						</clipPath>
						<g style="clip-path:url(#SVGID_00000147205581391900451400000015007030357510859442_);">
							<polygon class="st43" points="318.3,79.4 207.4,84.5 203.8,285.2 199.3,285.2 197.2,76 							"/>
						</g>
					</g>
					<g>
						<defs>
							<rect id="SVGID_00000099631466062800386090000002819965902882410400_" x="201.7" y="79.4" width="113.1" height="203.1"/>
						</defs>
						<clipPath id="SVGID_00000010300944964424697600000008857070974545238461_">
							<use xlink:href="#SVGID_00000099631466062800386090000002819965902882410400_"  style="overflow:visible;"/>
						</clipPath>
						<g style="clip-path:url(#SVGID_00000010300944964424697600000008857070974545238461_);">
							<path class="st43" d="M198.8,102.6c0,0,13.7,5,21.8-3.1c3.8,6.3,15.7,4.5,18.9-0.9c3.7,6.1,15.1,6.2,18.8,0.1
								c3.7,6.3,15.4,5.4,18.9-0.2c4.8,6.4,14.7,5.4,18.9-0.8c6.4,8,17.5,4.2,20.8-4v-8.4H197.6L198.8,102.6z"/>
						</g>
					</g>
					<path class="st16" d="M268.3,72.5h-21.4c-1,0-1.9-0.9-1.9-1.9l0,0c0-1,0.9-1.9,1.9-1.9h21.4c1,0,1.9,0.9,1.9,1.9l0,0
						C270.1,71.6,269.3,72.4,268.3,72.5z"/>
					<path class="st10" d="M211.2,99.5c-11.3-0.4-9.4-12.2-9.4-20.1c0.1-1.8,1.6-3.3,3.4-3.3h15.5C220.2,84.2,223.6,99.2,211.2,99.5
						z"/>
					<path class="st16" d="M230.1,99.5c-12.4-0.2-9.1-15.3-9.4-23.4h18.9C239.1,84.2,242.4,99.2,230.1,99.5z"/>
					<path class="st10" d="M248.9,99.5c-12.4-0.2-9.1-15.3-9.4-23.4h18.9C258,84.2,261.3,99.2,248.9,99.5z"/>
					<path class="st16" d="M267.8,99.5c-12.4-0.2-9.1-15.3-9.4-23.4h18.9C276.9,84.2,280.2,99.2,267.8,99.5z"/>
					<path class="st10" d="M286.7,99.5c-12.4-0.2-9.1-15.3-9.4-23.4h18.9C295.7,84.2,299.1,99.2,286.7,99.5z"/>
					<path class="st16" d="M305.6,99.5c-12.4-0.2-9.1-15.3-9.4-23.4h15.5c1.9,0,3.4,1.5,3.4,3.3c0,0,0,0,0,0.1
						C315,87.3,316.8,99.1,305.6,99.5z"/>
					<path class="st33" d="M304.6,270.3h-41.2c-1.1,0-2-0.9-2-2v-25.7c0-1.1,0.9-2,2-2h41.2c1.1,0,2,0.9,2,2v25.6
						c0.1,1.1-0.8,2-1.9,2.1C304.7,270.3,304.6,270.3,304.6,270.3z"/>
					<rect x="280" y="251.3" class="st2" width="3.9" height="2.8"/>
					<rect x="284.8" y="258.8" class="st2" width="3.6" height="3"/>
					<rect x="280" y="255.1" class="st2" width="3.9" height="2.7"/>
					<rect x="284.8" y="255.1" class="st2" width="3.6" height="2.7"/>
					<polygon class="st2" points="289.4,254.2 293.7,254.2 294.3,251.3 289.4,251.3 					"/>
					<polygon class="st2" points="279.1,255.1 274.7,255.1 275.4,257.8 279.1,257.8 					"/>
					<polygon class="st2" points="279.1,261.8 279.1,258.8 275.6,258.8 276.4,261.8 					"/>
					<rect x="280" y="258.8" class="st2" width="3.9" height="3"/>
					<polygon class="st2" points="279.1,262.7 276.6,262.7 277.3,265.2 279.1,265.2 					"/>
					<polygon class="st2" points="279.1,254.2 279.1,251.3 273.7,251.3 274.4,254.2 					"/>
					<polygon class="st2" points="289.4,262.7 289.4,265.2 291.3,265.2 291.9,262.7 					"/>
					<polygon class="st2" points="289.4,255.1 289.4,257.8 292.9,257.8 293.5,255.1 					"/>
					<rect x="280" y="262.7" class="st2" width="3.9" height="2.5"/>
					<rect x="284.8" y="262.7" class="st2" width="3.6" height="2.5"/>
					<polygon class="st2" points="292.7,258.8 289.4,258.8 289.4,261.8 292,261.8 					"/>
					<rect x="284.8" y="251.3" class="st2" width="3.6" height="2.8"/>
					<path class="st2" d="M290.4,250.2h-0.9c0.5-6.6-2.1-5.5-7.3-5.6c-3.1,0.1-2.8,3.3-2.8,5.6h-0.9c-0.5-7.1,2.4-6.5,8.1-6.4
						C290.5,244,290.6,247.3,290.4,250.2z"/>
					<path class="st33" d="M252.6,270.3h-41.2c-1.1,0-2-0.9-2-2v-25.7c0-1.1,0.9-2,2-2h41.2c1.1,0,2,0.9,2,2v25.6
						c0.1,1.1-0.8,2-1.9,2.1C252.7,270.3,252.6,270.3,252.6,270.3z"/>
					<path class="st2" d="M217.7,265.5v-19.4c3.8,0.2,9.6-1.5,9.3,4.4c0.1,1.7-0.1,3.7-2,4.2c3.2,0.7,2.6,8.3,0.6,10
						C224.2,266.1,219.4,265.4,217.7,265.5z M221.4,253.5c1.2,0.1,1.7-0.1,1.6-1.4v-1.9c0.1-1.1-0.9-1-1.6-0.9V253.5z M221.8,262.1
						c2.1,0.2,1.4-2.6,1.5-3.8c0-1.4-0.5-1.9-1.9-1.8v5.6L221.8,262.1z"/>
					<path class="st2" d="M232.9,265.7c-3.4,0-4.7-2-4.7-5.4v-14.2h3.8c0.4,1-1,16.5,0.9,16c2,0.7,0.5-15.1,1-16h3.8v14.2
						C237.6,263.7,236.3,265.7,232.9,265.7z"/>
					<path class="st2" d="M241.4,265.5v-6.4l-3.1-13h3.8l1.1,6.5l1.1-6.5h3.8l-3.1,13v6.4H241.4z"/>
					<path class="st33" d="M415.5,63.9h-46.7c-1.7,0-3-1.3-3-3V17.1c0-1.7,1.3-3,3-3h46.7c1.7,0,3,1.3,3,3v43.8
						C418.5,62.6,417.2,63.9,415.5,63.9z"/>
					<path class="st23" d="M411.4,28l-8-4.6v-0.1h-4.6c0,8.8-13.4,8.8-13.5,0h-4.6v0.2l-0.1-0.2l-8.1,4.7l5.2,9l3-1.7v18.2h22.7
						V35.4l2.8,1.6L411.4,28z"/>
					<polygon class="st45" points="836.9,232.8 921.3,232.8 936.5,180.2 822.8,191.3 					"/>
					<path class="st45" d="M960.9,174.6c0,0-5.9-1.1-13.9-3.1c-7.2-1.8-8.7,4.3-10.4,8.6c-3.5,8.8-17.7,69.1-23.8,86.2
						c-2.1,5.9-9.1,9.9-15.1,10.7s-58,0.1-58,0.1"/>
					<line class="st45" x1="829" y1="206.5" x2="930.4" y2="196.7"/>
					<line class="st45" x1="922.1" y1="219.8" x2="833.4" y2="221.4"/>
					<line class="st45" x1="869.5" y1="232.8" x2="869.5" y2="187.5"/>
					<line class="st45" x1="853.3" y1="232.8" x2="850.5" y2="189.4"/>
					<line class="st45" x1="886.5" y1="232.8" x2="891.8" y2="185"/>
					<line class="st45" x1="904.3" y1="232.8" x2="912.8" y2="183.7"/>
					<line class="st46" x1="950.6" y1="172.4" x2="962.9" y2="175.1"/>
					<path class="st47" d="M888.8,290.2c0,5.2,4.3,9.5,9.5,9.5s9.5-4.3,9.5-9.5s-4.3-9.5-9.5-9.5S888.8,285,888.8,290.2L888.8,290.2
						z"/>
					<path class="st48" d="M892.1,290.2c0,3.4,2.7,6.1,6.1,6.1c3.4,0,6.1-2.7,6.1-6.1c0-3.4-2.7-6.1-6.1-6.1l0,0
						C894.8,284.1,892.1,286.8,892.1,290.2z"/>
					<path class="st49" d="M896.8,290.2c0,0.8,0.6,1.5,1.4,1.5c0,0,0,0,0.1,0c0.8,0,1.5-0.7,1.5-1.5c0-0.8-0.7-1.5-1.5-1.5
						S896.8,289.4,896.8,290.2z"/>
					<path class="st48" d="M897.2,294.8c3.3,0,6.1-2.7,6.1-6c0,0,0-0.1,0-0.1c0-1-0.3-2-0.7-2.9c2.4,2.4,2.4,6.2,0,8.6
						c-1.1,1.2-2.7,1.8-4.3,1.8c-2.2,0-4.3-1.2-5.4-3.2C894,294.2,895.6,294.8,897.2,294.8z"/>
					<line class="st45" x1="919.7" y1="235.5" x2="855.4" y2="235.5"/>
					<path class="st16" d="M895.9,288.7c1,2.4,4,2.4,4,0v-12H892C891.9,276.7,894.9,286.3,895.9,288.7z"/>
					<path class="st47" d="M839.7,290.2c0,5.2,4.3,9.5,9.5,9.5s9.5-4.3,9.5-9.5s-4.3-9.5-9.5-9.5S839.7,285,839.7,290.2L839.7,290.2
						z"/>
					<path class="st48" d="M843.1,290.2c0,3.4,2.7,6.1,6.1,6.1c3.4,0,6.1-2.7,6.1-6.1c0-3.4-2.7-6.1-6.1-6.1l0,0
						C845.9,284.1,843.1,286.8,843.1,290.2C843.1,290.1,843.1,290.2,843.1,290.2z"/>
					<path class="st49" d="M847.7,290.2c0,0.8,0.6,1.5,1.4,1.5c0,0,0,0,0.1,0c0.8,0,1.5-0.7,1.5-1.5s-0.7-1.5-1.5-1.5
						S847.7,289.4,847.7,290.2z"/>
					<path class="st48" d="M848.1,294.8c3.3,0,6.1-2.7,6.1-6c0,0,0-0.1,0-0.1c0-1-0.3-2-0.7-2.9c2.4,2.4,2.4,6.2,0,8.6
						c-1.1,1.2-2.7,1.8-4.3,1.8c-2.2,0-4.3-1.2-5.4-3.2C844.9,294.1,846.5,294.8,848.1,294.8z"/>
					<path class="st16" d="M846.8,288.7c1,2.4,4,2.4,4,0v-12h-7.9C842.8,276.7,845.8,286.3,846.8,288.7z"/>
					<path class="st12" d="M60.4,142l5.2-4.4c0,0,2.8,3.9,31.1,34.5c5,5.4,24.9,8.9,33-6.8c4.2-8.4,3.2-18.5-2.5-25.9l-24.6-32.9
						l5.5-4.6c0,0,26.9,33.7,28,36.1s11.5,19.2-5.7,37.8s-39.5-0.4-39.5-0.4L60.4,142z"/>
				</g>
			</g>
		</g>
	</g>
</g>
</svg>
