<svg xmlns="http://www.w3.org/2000/svg" xmlns:xlink="http://www.w3.org/1999/xlink" viewBox="0 0 1245 300"><defs><style>.cls-1,.cls-36,.cls-37,.cls-38,.cls-40,.cls-41,.cls-66,.cls-68,.cls-69,.cls-70,.cls-71,.cls-72,.cls-73,.cls-74,.cls-75,.cls-81{fill:none;}.cls-2{clip-path:url(#clip-path);}.cls-3{fill:url(#radial-gradient);}.cls-4{fill:#4738b3;}.cls-5{fill:url(#linear-gradient);}.cls-6{fill:url(#linear-gradient-2);}.cls-7{fill:url(#linear-gradient-3);}.cls-10,.cls-25,.cls-27,.cls-28,.cls-34,.cls-35,.cls-36,.cls-37,.cls-38,.cls-41,.cls-50,.cls-65,.cls-77,.cls-79,.cls-8,.cls-9{isolation:isolate;}.cls-10,.cls-9{font-size:2.88px;}.cls-10,.cls-11,.cls-79,.cls-9{fill:#fff;}.cls-9{font-family:Montserrat-Bold, Montserrat;font-weight:700;}.cls-10{font-family:Montserrat-Regular, Montserrat;}.cls-12,.cls-28{opacity:0.15;}.cls-13{fill:url(#linear-gradient-4);}.cls-14{fill:url(#linear-gradient-5);}.cls-15{opacity:0.69;}.cls-16{fill:url(#linear-gradient-6);}.cls-17{fill:url(#linear-gradient-7);}.cls-18{fill:url(#linear-gradient-8);}.cls-19{fill:url(#linear-gradient-9);}.cls-20,.cls-77{fill:#946ccf;}.cls-21{fill:url(#linear-gradient-10);}.cls-22{fill:url(#linear-gradient-11);}.cls-23{fill:url(#linear-gradient-12);}.cls-24{fill:url(#linear-gradient-13);}.cls-25,.cls-27,.cls-28{fill:#29227f;}.cls-25{opacity:0.28;}.cls-26{fill:#eeeef3;}.cls-27,.cls-34,.cls-65{opacity:0.1;}.cls-29{fill:#f0f3f5;}.cls-30{fill:#efd387;}.cls-31{fill:#d7d7d7;}.cls-32{fill:#1d0291;}.cls-33{fill:url(#linear-gradient-14);}.cls-35,.cls-36,.cls-37,.cls-38,.cls-39,.cls-41,.cls-79{opacity:0.5;}.cls-35{fill:url(#linear-gradient-15);}.cls-36,.cls-37,.cls-38,.cls-40,.cls-41,.cls-81{stroke:#fff;}.cls-36,.cls-37,.cls-38,.cls-81{stroke-miterlimit:10;}.cls-36{stroke-width:0.5px;}.cls-37{stroke-width:0.46px;}.cls-38{stroke-width:0.35px;}.cls-40,.cls-41,.cls-66,.cls-68,.cls-69,.cls-70,.cls-71,.cls-72,.cls-73,.cls-74,.cls-75{stroke-linecap:round;stroke-linejoin:round;}.cls-40,.cls-41{stroke-width:1.41px;stroke-dasharray:2.81;}.cls-42{fill:#0d2e3f;}.cls-43{fill:#ffe1bd;}.cls-44{fill:#0a1828;}.cls-45{fill:#183f5b;}.cls-46{fill:#e5e5e5;}.cls-47{fill:#e8c5a0;}.cls-48{fill:#b3c5ce;}.cls-49{fill:#e8f1f8;}.cls-50{fill:#474747;opacity:0.24;}.cls-51{fill:#d4dedf;}.cls-52{fill:#632f00;}.cls-53{fill:#8c4200;}.cls-54{fill:#282c3b;}.cls-55{fill:#b4bcc5;}.cls-56{fill:#153851;}.cls-57{fill:#fc9;}.cls-58{fill:#10354c;}.cls-59{fill:#ccd6e7;}.cls-60{fill:#12374f;}.cls-61{fill:#a3b4d8;}.cls-62{fill:#f4d5b5;}.cls-63{fill:#e5bb98;}.cls-64{fill:#f2f2f2;}.cls-65{fill:#7f1e00;}.cls-66,.cls-68{stroke:#34b77e;}.cls-66{stroke-width:0.83px;}.cls-67{fill:#34b77e;}.cls-68,.cls-71,.cls-73{stroke-width:0.76px;}.cls-69,.cls-70{stroke:#00fcff;}.cls-69,.cls-75{stroke-width:0.86px;}.cls-70,.cls-72{stroke-width:0.84px;}.cls-71,.cls-72{stroke:#e1f0ff;}.cls-73,.cls-74{stroke:#ff4f92;}.cls-74{stroke-width:0.99px;}.cls-75{stroke:#ff8b00;}.cls-76{fill:#1c4d66;}.cls-77{opacity:0.45;}.cls-78{fill:#ebebea;}.cls-80{opacity:0.38;}.cls-81{stroke-width:0.91px;}</style><clipPath id="clip-path"><rect class="cls-1" width="1245" height="300"/></clipPath><radialGradient id="radial-gradient" cx="992.38" cy="-79.8" r="700.62" gradientTransform="matrix(-0.76, 0.55, -0.47, -0.5, 1702.4, -829.2)" gradientUnits="userSpaceOnUse"><stop offset="0" stop-color="#73d7ff"/><stop offset="1" stop-color="#002bc6"/></radialGradient><linearGradient id="linear-gradient" x1="594.6" y1="-1201.94" x2="599.69" y2="-1197.02" gradientTransform="translate(3479.18 -4649.12) rotate(180) scale(4.04)" gradientUnits="userSpaceOnUse"><stop offset="0.07" stop-color="#9ed7c4"/><stop offset="0.97" stop-color="#729dae"/></linearGradient><linearGradient id="linear-gradient-2" x1="1088.4" y1="687.37" x2="1093.48" y2="692.28" gradientTransform="translate(0 -541.89)" xlink:href="#linear-gradient"/><linearGradient id="linear-gradient-3" x1="904.38" y1="612.05" x2="909.47" y2="616.97" gradientTransform="translate(0 -541.89)" xlink:href="#linear-gradient"/><linearGradient id="linear-gradient-4" x1="516.15" y1="537.33" x2="566.35" y2="537.33" gradientTransform="translate(251.21 -291.26) rotate(-13.2)" gradientUnits="userSpaceOnUse"><stop offset="0.12" stop-color="#d68e44"/><stop offset="1" stop-color="#ba5957"/></linearGradient><linearGradient id="linear-gradient-5" x1="202.71" y1="391.35" x2="226.29" y2="391.35" xlink:href="#linear-gradient-4"/><linearGradient id="linear-gradient-6" x1="-42.32" y1="-734.32" x2="-66.58" y2="-701.24" gradientTransform="translate(1709.8 21.65) rotate(-90)" xlink:href="#linear-gradient-4"/><linearGradient id="linear-gradient-7" x1="-41.27" y1="-733.56" x2="-65.54" y2="-700.47" gradientTransform="translate(1709.8 21.65) rotate(-90)" xlink:href="#linear-gradient-4"/><linearGradient id="linear-gradient-8" x1="-40.48" y1="-732.98" x2="-64.74" y2="-699.89" gradientTransform="translate(1709.8 21.65) rotate(-90)" xlink:href="#linear-gradient-4"/><linearGradient id="linear-gradient-9" x1="-39.43" y1="-732.21" x2="-63.69" y2="-699.12" gradientTransform="translate(1709.8 21.65) rotate(-90)" xlink:href="#linear-gradient-4"/><linearGradient id="linear-gradient-10" x1="1815.41" y1="487.51" x2="1791.15" y2="520.59" gradientTransform="translate(-1259.15 -1015.83) rotate(19.66)" xlink:href="#linear-gradient-4"/><linearGradient id="linear-gradient-11" x1="1816.29" y1="488.16" x2="1792.03" y2="521.24" gradientTransform="translate(-1259.15 -1015.83) rotate(19.66)" xlink:href="#linear-gradient-4"/><linearGradient id="linear-gradient-12" x1="1817.32" y1="488.91" x2="1793.06" y2="521.99" gradientTransform="translate(-1259.15 -1015.83) rotate(19.66)" xlink:href="#linear-gradient-4"/><linearGradient id="linear-gradient-13" x1="1818.21" y1="489.56" x2="1793.95" y2="522.65" gradientTransform="translate(-1259.15 -1015.83) rotate(19.66)" xlink:href="#linear-gradient-4"/><linearGradient id="linear-gradient-14" x1="147.37" y1="250.81" x2="265.84" y2="81.79" gradientUnits="userSpaceOnUse"><stop offset="0.01" stop-color="#3b6dea"/><stop offset="1" stop-color="#002bc6"/></linearGradient><linearGradient id="linear-gradient-15" x1="202.7" y1="824.95" x2="202.7" y2="809.2" gradientTransform="translate(0 -541.89)" gradientUnits="userSpaceOnUse"><stop offset="0" stop-color="#fff"/><stop offset="1" stop-color="#a7a9ac"/></linearGradient></defs><g id="Layer_2" data-name="Layer 2"><g id="Слой_1" data-name="Слой 1"><g class="cls-2"><rect class="cls-3" width="1245" height="300"/><path class="cls-4" d="M1097.5,295.9h-3.6c-.1,0-.1,0-.1-.1s0-.1.1-.1h3.6c.1,0,.1.1,0,.2C1097.6,295.8,1097.6,295.9,1097.5,295.9Zm-7.2,0h-3.6c-.1,0-.1,0-.1-.1s0-.1.1-.1h3.6a.14.14,0,0,1,0,.2Zm-7.2,0h-3.6c-.1,0-.1,0-.1-.1s0-.1.1-.1h3.6a.14.14,0,0,1,0,.2Zm-7.2,0h-3.6c-.1,0-.1,0-.1-.1s0-.1.1-.1h3.6a.14.14,0,0,1,0,.2Zm-7.2,0h-3.6c-.1,0-.1,0-.1-.1s0-.1.1-.1h3.6a.14.14,0,0,1,0,.2Zm-7.2,0h-3.6c-.1,0-.1,0-.1-.1s0-.1.1-.1h3.6c.1,0,.1.1,0,.2C1061.6,295.8,1061.6,295.9,1061.5,295.9Zm-7.2,0h-3.6c-.1,0-.1,0-.1-.1s0-.1.1-.1h3.6c.1,0,.1.1,0,.2C1054.4,295.8,1054.4,295.9,1054.3,295.9Zm-7.2,0h-3.6c-.1,0-.1,0-.1-.1s0-.1.1-.1h3.6c.1,0,.1.1,0,.2C1047.2,295.8,1047.2,295.9,1047.1,295.9Zm-7.2,0h-3.6c-.1,0-.1,0-.1-.1s0-.1.1-.1h3.6c.1,0,.1.1,0,.2C1040,295.8,1040,295.9,1039.9,295.9Zm-7.2,0h-3.6c-.1,0-.1,0-.1-.1s0-.1.1-.1h3.6c.1,0,.1.1,0,.2C1032.8,295.8,1032.8,295.9,1032.7,295.9Zm-7.2,0h-3.6c-.1,0-.1,0-.1-.1s0-.1.1-.1h3.6c.1,0,.1.1,0,.2C1025.6,295.8,1025.6,295.9,1025.5,295.9Zm-7.2,0h-3.6c-.1,0-.1,0-.1-.1s0-.1.1-.1h3.6c.1,0,.1.1,0,.2C1018.4,295.8,1018.4,295.9,1018.3,295.9Zm-7.1-.1h0a13.86,13.86,0,0,1-3.5-.9s-.1-.1,0-.1.1-.1.1,0a10.08,10.08,0,0,0,3.4.9c0-.1.1,0,0,.1Zm89.9-.4c-.1,0-.1-.1,0,0-.1-.1-.1-.2,0-.2a10.36,10.36,0,0,0,3.2-1.5h.1v.1a14.36,14.36,0,0,1-3.3,1.6Zm-96.4-2.4h0a10.15,10.15,0,0,1-2.4-2.7v-.1h.1a11.78,11.78,0,0,0,2.3,2.7c.1,0,.1,0,0,.1Zm102.3-1.4h0c-.1-.1-.1-.1-.1-.2a11.73,11.73,0,0,0,1.9-3l.1-.1.1.1a8.54,8.54,0,0,1-2,3.2C1107.1,291.5,1107.1,291.6,1107,291.6ZM1000.9,287h0a9.67,9.67,0,0,1-.4-2.9v-.7c0-.1,0-.1.1-.1s.1,0,.1.1v.7a9,9,0,0,0,.4,2.8c-.1,0-.1.1-.2.1Zm108.6-2h0l-.1-3.7c0-.1,0-.1.1-.1s.1,0,.1.1l-.1,3.7Zm-109-5.2h0l-.1-3.7c0-.1,0-.1.1-.1s.1,0,.1.1l-.1,3.7Zm109-2h0l-.1-3.7c0-.1,0-.1.1-.1s.1,0,.1.1l-.1,3.7Zm-109-5.2h0l-.1-3.7c0-.1,0-.1.1-.1s.1,0,.1.1l-.1,3.7Zm109-2h0l-.1-3.7c0-.1,0-.1.1-.1s.1,0,.1.1l-.1,3.7Zm-109-5.2h0l-.1-3.7c0-.1,0-.1.1-.1s.1,0,.1.1l-.1,3.7Zm109-2h0l-.1-3.7c0-.1,0-.1.1-.1s.1,0,.1.1l-.1,3.7Zm-109-5.2h0l-.1-3.7c0-.1,0-.1.1-.1s.1,0,.1.1l-.1,3.7Zm109-2h0l-.1-3.7c0-.1,0-.1.1-.1s.1,0,.1.1l-.1,3.7Zm-109-5.1h0l-.1-3.7c0-.1,0-.1.1-.1s.1,0,.1.1l-.1,3.7C1000.6,251,1000.6,251.1,1000.5,251.1Zm109-2.1h0l-.1-3.7c0-.1,0-.1.1-.1s.1,0,.1.1l-.1,3.7Zm-109-5.1h0l-.1-3.7c0-.1,0-.1.1-.1s.1,0,.1.1l-.1,3.7C1000.6,243.8,1000.6,243.9,1000.5,243.9Zm109-2.1h0l-.1-3.7c0-.1,0-.1.1-.1s.1,0,.1.1l-.1,3.7Zm-109-5.1h0l-.1-3.7c0-.1,0-.1.1-.1s.1,0,.1.1l-.1,3.7C1000.6,236.6,1000.6,236.7,1000.5,236.7Zm109-2.1h0l-.1-3.7c0-.1,0-.1.1-.1s.1,0,.1.1l-.1,3.7Zm-109-5.1h0l-.1-3.7c0-.1,0-.1.1-.1s.1,0,.1.1l-.1,3.7C1000.6,229.4,1000.6,229.5,1000.5,229.5Zm109-2h0l-.1-3.7c0-.1,0-.1.1-.1s.1,0,.1.1l-.1,3.7C1109.6,227.4,1109.6,227.5,1109.5,227.5Zm-109-5.2h0l-.1-3.7c0-.1,0-.1.1-.1s.1,0,.1.1l-.1,3.7C1000.6,222.2,1000.6,222.3,1000.5,222.3Zm109-2h0l-.1-3.7c0-.1,0-.1.1-.1s.1,0,.1.1l-.1,3.7C1109.6,220.2,1109.6,220.3,1109.5,220.3Zm-109-5.2h0l-.1-3.7c0-.1,0-.1.1-.1s.1,0,.1.1l-.1,3.7C1000.6,215,1000.6,215.1,1000.5,215.1Zm109-2h0l-.1-3.7c0-.1,0-.1.1-.1s.1,0,.1.1l-.1,3.7C1109.6,213,1109.6,213.1,1109.5,213.1Zm-109-5.2h0l-.1-3.7c0-.1,0-.1.1-.1s.1,0,.1.1l-.1,3.7Zm109-2h0l-.1-3.7c0-.1,0-.1.1-.1s.1,0,.1.1l-.1,3.7C1109.6,205.8,1109.6,205.9,1109.5,205.9Zm-109-5.2h0l-.1-3.7c0-.1,0-.1.1-.1s.1,0,.1.1l-.1,3.7Zm109-2h0l-.1-3.7c0-.1,0-.1.1-.1s.1,0,.1.1l-.1,3.7C1109.6,198.6,1109.6,198.7,1109.5,198.7Zm-109-5.2h0l-.1-3.7c0-.1,0-.1.1-.1s.1,0,.1.1l-.1,3.7Zm109-2h0l-.1-3.7c0-.1,0-.1.1-.1s.1,0,.1.1l-.1,3.7C1109.6,191.4,1109.6,191.5,1109.5,191.5Zm-109-5.2h0l-.1-3.7c0-.1,0-.1.1-.1s.1,0,.1.1l-.1,3.7Zm109-2h0l-.1-3.7c0-.1,0-.1.1-.1s.1,0,.1.1l-.1,3.7Zm-109-5.2h0l-.1-3.7c0-.1,0-.1.1-.1s.1,0,.1.1l-.1,3.7Zm109-2h0l-.1-3.7c0-.1,0-.1.1-.1s.1,0,.1.1l-.1,3.7Zm-109-5.2h0l-.1-3.7c0-.1,0-.1.1-.1s.1,0,.1.1l-.1,3.7Zm109-2h0l-.1-3.7c0-.1,0-.1.1-.1s.1,0,.1.1l-.1,3.7Zm-109-5.2h0l-.1-3.7c0-.1,0-.1.1-.1s.1,0,.1.1l-.1,3.7Zm109-2h0l-.1-3.7c0-.1,0-.1.1-.1s.1,0,.1.1l-.1,3.7Zm-109-5.2h0l-.1-3.7c0-.1,0-.1.1-.1s.1,0,.1.1l-.1,3.7Zm109-2h0l-.1-3.7c0-.1,0-.1.1-.1s.1,0,.1.1l-.1,3.7Zm-109-5.1h0l-.1-3.7c0-.1,0-.1.1-.1s.1,0,.1.1l-.1,3.7C1000.6,150.3,1000.6,150.4,1000.5,150.4Zm109-2.1h0l-.1-3.7c0-.1,0-.1.1-.1s.1,0,.1.1l-.1,3.7Zm-109-5.1h0l-.1-3.7c0-.1,0-.1.1-.1s.1,0,.1.1l-.1,3.7C1000.6,143.1,1000.6,143.2,1000.5,143.2Zm109-2.1h0l-.1-3.7c0-.1,0-.1.1-.1s.1,0,.1.1l-.1,3.7Zm-109-5.1h0l-.1-3.7c0-.1,0-.1.1-.1s.1,0,.1.1l-.1,3.7C1000.6,135.9,1000.6,136,1000.5,136Zm109-2.1h0l-.1-3.7c0-.1,0-.1.1-.1s.1,0,.1.1l-.1,3.7Zm-109-5.1h0l-.1-3.7c0-.1,0-.1.1-.1s.1,0,.1.1l-.1,3.7C1000.6,128.7,1000.6,128.8,1000.5,128.8Zm109-2.1h0l-.1-3.7c0-.1,0-.1.1-.1s.1,0,.1.1l-.1,3.7Zm-109-5.1h0l-.1-3.7c0-.1,0-.1.1-.1s.1,0,.1.1l-.1,3.7C1000.6,121.5,1000.6,121.6,1000.5,121.6Zm109-2h0l-.1-3.7c0-.1,0-.1.1-.1s.1,0,.1.1l-.1,3.7C1109.6,119.5,1109.6,119.6,1109.5,119.6Zm-109-5.2h0l-.1-3.7c0-.1,0-.1.1-.1s.1,0,.1.1l-.1,3.7C1000.6,114.3,1000.6,114.4,1000.5,114.4Zm109-2h0l-.1-3.7c0-.1,0-.1.1-.1s.1,0,.1.1l-.1,3.7C1109.6,112.3,1109.6,112.4,1109.5,112.4Zm-109-5.2h0l-.1-3.7c0-.1,0-.1.1-.1s.1,0,.1.1l-.1,3.7Zm109-2h0l-.1-3.7c0-.1,0-.1.1-.1s.1,0,.1.1l-.1,3.7C1109.6,105.1,1109.6,105.2,1109.5,105.2Zm-109-5.2h0l-.1-3.7c0-.1,0-.1.1-.1s.1,0,.1.1l-.1,3.7Zm109-2h0l-.1-3.2v-.5c0-.1,0-.1.1-.1h0c.1,0,.1,0,.1.1v.5l-.1,3.2C1109.6,97.9,1109.6,98,1109.5,98Zm-108.9-5.2h0a8.57,8.57,0,0,1,.7-3.6l.1-.1.1.1a11.21,11.21,0,0,0-.9,3.6Zm108.4-2h0a16.58,16.58,0,0,0-1.5-3.3v-.1h.1a12.15,12.15,0,0,1,1.4,3.3c.1.1.1.1,0,.1Zm-105.9-4.6h0c-.1-.1-.1-.1-.1-.2a15.46,15.46,0,0,1,2.7-2.4h.1v.1a32,32,0,0,0-2.7,2.5Zm102.3-1.4h0a12.09,12.09,0,0,0-3-2s-.1-.1,0-.1.1-.1.1,0a12.09,12.09,0,0,1,3,2c0-.1,0,0-.1.1ZM1009,82.3h0c-.1-.1-.1-.2,0-.2a14.87,14.87,0,0,1,3.6-.5c.1,0,.1,0,.1.1s0,.1-.1.1a11.19,11.19,0,0,0-3.6.5Zm89.9-.4h0a6.6,6.6,0,0,0-1.4-.1h-2.2c-.1,0-.1,0-.1-.1s0-.1.1-.1h2.2a6.15,6.15,0,0,1,1.4.1c.1,0,.1,0,0,.2Zm-7.2-.1h-3.6c-.1,0-.1,0-.1-.1s0-.1.1-.1h3.6c.1,0,.1.1,0,.2C1091.8,81.7,1091.8,81.8,1091.7,81.8Zm-7.2,0h-3.6c-.1,0-.1,0-.1-.1s0-.1.1-.1h3.6c.1,0,.1.1,0,.2C1084.6,81.7,1084.6,81.8,1084.5,81.8Zm-7.2,0h-3.6c-.1,0-.1,0-.1-.1s0-.1.1-.1h3.6c.1,0,.1.1,0,.2C1077.4,81.7,1077.4,81.8,1077.3,81.8Zm-7.2,0h-3.6c-.1,0-.1,0-.1-.1s0-.1.1-.1h3.6c.1,0,.1.1,0,.2C1070.2,81.7,1070.2,81.8,1070.1,81.8Zm-7.2,0h-3.6c-.1,0-.1,0-.1-.1s0-.1.1-.1h3.6c.1,0,.1.1,0,.2C1063,81.7,1063,81.8,1062.9,81.8Zm-7.2,0h-3.6c-.1,0-.1,0-.1-.1s0-.1.1-.1h3.6c.1,0,.1.1,0,.2C1055.8,81.7,1055.8,81.8,1055.7,81.8Zm-7.1,0H1045c-.1,0-.1,0-.1-.1s0-.1.1-.1h3.6v.2Zm-7.2,0h-3.6c-.1,0-.1,0-.1-.1s0-.1.1-.1h3.6v.2Zm-7.2,0h-3.6c-.1,0-.1,0-.1-.1s0-.1.1-.1h3.6a.14.14,0,0,1,0,.2Zm-7.2,0h-3.6c-.1,0-.1,0-.1-.1s0-.1.1-.1h3.6a.14.14,0,0,1,0,.2Zm-7.2,0h-3.6c-.1,0-.1,0-.1-.1s0-.1.1-.1h3.6a.14.14,0,0,1,0,.2Z"/><path class="cls-5" d="M1064.8,196.4a2.8,2.8,0,0,1,2.8-2.8,2.73,2.73,0,0,1,2.8,2.8,2.8,2.8,0,0,1-2.8,2.8A2.73,2.73,0,0,1,1064.8,196.4Z"/><path class="cls-6" d="M1091.5,147.8a.7.7,0,1,1-.7-.7A.68.68,0,0,1,1091.5,147.8Z"/><path class="cls-7" d="M907.5,72.5a.7.7,0,1,1-.7-.7A.68.68,0,0,1,907.5,72.5Z"/><g class="cls-8"><text class="cls-9" transform="translate(1027.76 103.18) scale(1.02 1)">L</text><text class="cls-9" transform="translate(1029.49 103.18) scale(1.02 1)">o</text><text class="cls-9" transform="translate(1031.42 103.18) scale(1.02 1)">r</text><text class="cls-9" transform="translate(1032.64 103.18) scale(1.02 1)">em</text></g><text class="cls-10" transform="translate(1040.37 103.18) scale(1.02 1)"><tspan xml:space="preserve"> ipsum</tspan></text><path class="cls-11" d="M1021.3,292a11.95,11.95,0,0,1-12-11.9l-1.5-180.3a12,12,0,0,1,11.9-12.1l71-.6h.1a12,12,0,0,1,12,11.9l1.5,180.3a12,12,0,0,1-11.9,12.1l-71.1.6Zm69.5-204.5h-.1l-71,.6a11.61,11.61,0,0,0-11.5,11.7l1.5,180.3a11.59,11.59,0,0,0,3.5,8.2,11.4,11.4,0,0,0,8.2,3.3h.1l71-.6a11.61,11.61,0,0,0,11.5-11.7L1102.5,99A11.67,11.67,0,0,0,1090.8,87.5Z"/><path class="cls-11" d="M1017.3,284.2a6.27,6.27,0,0,1-6.3-6.3l-1.5-175.7a6.36,6.36,0,0,1,6.3-6.4l78.4-.7h.1a6.27,6.27,0,0,1,6.3,6.3l1.5,175.7a6.36,6.36,0,0,1-6.3,6.4l-78.5.7Zm76.9-188.7h0l-78.5.7a5.87,5.87,0,0,0-5.9,6l1.5,175.7a5.93,5.93,0,0,0,6,5.9h.1l78.4-.7a5.87,5.87,0,0,0,5.9-6l-1.5-175.7A6,6,0,0,0,1094.2,95.5Z"/><path class="cls-11" d="M1048,92.7a1,1,0,0,1-1.1-1.1,1.11,1.11,0,0,1,1.1-1.1l13.4-.1a1.1,1.1,0,1,1,0,2.2l-13.4.1Zm13.4-2h0l-13.4.1a.7.7,0,0,0,0,1.4h0l13.4-.1a.7.7,0,1,0,0-1.4Z"/><path class="cls-11" d="M1074.5,93.1a1.79,1.79,0,0,1-1.8-1.8,1.77,1.77,0,0,1,1.7-1.8h0a1.66,1.66,0,0,1,1.2.5,1.85,1.85,0,0,1,.5,1.2h0a2.11,2.11,0,0,1-.5,1.3,1.15,1.15,0,0,1-1.1.6Zm0-3.1h0a1.4,1.4,0,0,0,0,2.8h0a1.78,1.78,0,0,0,1-.4,1.28,1.28,0,0,0,.4-1h0a1.78,1.78,0,0,0-.4-1A1.28,1.28,0,0,0,1074.5,90Z"/><path class="cls-11" d="M1028.9,93.5a1.77,1.77,0,0,1-1.8-1.7,2.11,2.11,0,0,1,.5-1.3,1.85,1.85,0,0,1,1.2-.5h0a1.79,1.79,0,0,1,1.8,1.8,2.11,2.11,0,0,1-.5,1.3,2.14,2.14,0,0,1-1.2.4Zm0-3.2h0a1.78,1.78,0,0,0-1,.4,1.28,1.28,0,0,0-.4,1,1.37,1.37,0,0,0,1.4,1.4h0a1.78,1.78,0,0,0,1-.4,1.16,1.16,0,0,0,.4-1A1.51,1.51,0,0,0,1028.9,90.3Z"/><path class="cls-11" d="M1081.5,92.4a1.1,1.1,0,1,1,0-2.2h0a1.1,1.1,0,0,1,0,2.2Zm0-1.8h0a.7.7,0,0,0,0,1.4h0a.7.7,0,1,0,0-1.4Z"/><path class="cls-11" d="M1034.6,92.8a1.1,1.1,0,1,1,0-2.2h0a1.1,1.1,0,0,1,0,2.2Zm0-1.8h0a.7.7,0,1,0,0,1.4h0a.7.7,0,1,0,0-1.4Z"/><path class="cls-11" d="M1022.8,92.9a1.13,1.13,0,1,1,1.1-1.1h0a1,1,0,0,1-1.1,1.1Zm0-1.8h0a.7.7,0,1,0,0,1.4.68.68,0,0,0,.7-.7.76.76,0,0,0-.2-.5C1023.2,91.1,1023,91.1,1022.8,91.1Z"/><path class="cls-11" d="M1061.7,278.2h-4a.79.79,0,0,1-.8-.8v-4a.79.79,0,0,1,.8-.8h4a.79.79,0,0,1,.8.8v4a.76.76,0,0,1-.2.5A.86.86,0,0,1,1061.7,278.2Zm-3.9-5.2a.43.43,0,0,0-.4.4v4a.43.43,0,0,0,.4.4h4a.35.35,0,0,0,.4-.4v-4a.43.43,0,0,0-.4-.4Z"/><polygon class="cls-11" points="1090.2 278.2 1087.5 275.5 1090.2 272.8 1090.4 273 1088 275.5 1090.4 277.9 1090.2 278.2"/><polygon class="cls-11" points="1092.6 275.7 1087.7 275.6 1087.7 275.3 1092.6 275.3 1092.6 275.7"/><path class="cls-11" d="M1027,278.2c-.1,0-.2,0-.2-.1-.2-.1-.3-.2-.3-.4v-3.9c0-.2.1-.3.3-.4a.45.45,0,0,1,.5,0l3.1,2a.5.5,0,0,1,0,.8l-3.1,1.9C1027.2,278.1,1027.1,278.2,1027,278.2Zm0-4.6h0a.1.1,0,0,0-.1.1v3.9c0,.1,0,.1.1.1h.1l3.1-1.9a.1.1,0,0,0,0-.2l-3.2-2Z"/><g class="cls-12"><rect class="cls-11" x="1099.34" y="198.15" width="2.8" height="2.2" transform="translate(326.43 1006.57) rotate(-56.46)"/><path class="cls-11" d="M1101.5,199.9Z"/><path class="cls-11" d="M1100.5,200.5Z"/><path class="cls-11" d="M1099.9,199.7Z"/><path class="cls-11" d="M1099.4,199.4Z"/><path class="cls-11" d="M1101.5,199.3Z"/><path class="cls-11" d="M1100.9,198.9h0c-.1,0-.1.1,0,0Z"/><path class="cls-11" d="M1101.1,199.6Z"/><path class="cls-11" d="M1100.4,198.5Z"/><path class="cls-11" d="M1100.1,198.8Z"/><path class="cls-11" d="M1101.2,198.7Z"/><path class="cls-11" d="M1101.1,198.3Z"/><path class="cls-11" d="M1100.6,199.7Z"/><path class="cls-11" d="M1100.2,199.8Z"/><path class="cls-11" d="M1100.5,199.6Z"/><path class="cls-11" d="M1100.6,199.3Z"/><path class="cls-11" d="M1100.8,199.4Z"/><path class="cls-11" d="M1101.1,199.8Z"/><path class="cls-11" d="M1101,199.8Z"/><path class="cls-11" d="M1100.2,200.2Z"/><path class="cls-11" d="M1100.9,199.2Z"/><path class="cls-11" d="M1099.9,199.1Z"/><path class="cls-11" d="M1100.6,198.8Z"/><path class="cls-11" d="M1099.6,199.4Z"/></g><path class="cls-11" d="M1053,152.5l-35.2-.1v-.2l.1-35.1,35.2.1v.2Zm-34.8-.4,34.5.1.1-34.5-34.5-.1Z"/><rect class="cls-11" x="1010.82" y="134.69" width="49.3" height="0.4" transform="translate(207 770.53) rotate(-44.92)"/><rect class="cls-11" x="1035.29" y="110.15" width="0.4" height="49.3" transform="translate(206.89 770.28) rotate(-44.9)"/><path class="cls-11" d="M1052.8,232.6h-.2l-35.1-.1v-.2l.1-28.2h.2l35.1.1v.2Zm-34.9-.5,34.5.1.1-27.7-34.5-.1Z"/><rect class="cls-11" x="1012.71" y="218.24" width="44.7" height="0.4" transform="translate(90.37 694.51) rotate(-38.66)"/><rect class="cls-11" x="1034.84" y="195.95" width="0.4" height="44.7" transform="translate(215.48 887.09) rotate(-51.13)"/><path class="cls-11" d="M1052.7,267.7h-.2l-35.1-.1v-.2l.1-28.2h.2l35.1.1v.2Zm-34.9-.4,34.5.1.1-27.7-34.5-.1Z"/><rect class="cls-11" x="1012.66" y="253.32" width="44.7" height="0.4" transform="translate(68.45 702.16) rotate(-38.66)"/><polygon class="cls-11" points="1052.4 267.7 1017.6 239.6 1017.8 239.3 1052.6 267.4 1052.4 267.7"/><path class="cls-11" d="M1067.1,107h-22.9V99.6h22.9Zm-22.5-.4h22.2V99.9h-22.2Z"/><polygon class="cls-11" points="1090.4 118.5 1059.3 118.5 1059.3 118.1 1090.4 118.2 1090.4 118.5"/><polygon class="cls-11" points="1091.5 174.3 1018.6 174.2 1018.6 173.8 1091.5 174 1091.5 174.3"/><polygon class="cls-11" points="1091.4 178.6 1018.6 178.5 1018.6 178.1 1091.4 178.2 1091.4 178.6"/><polygon class="cls-11" points="1091.4 182.9 1018.6 182.7 1018.6 182.4 1091.4 182.5 1091.4 182.9"/><path class="cls-11" d="M1091.4,187.1c-10.4,0-62.5-.1-72.9-.1v-.4c10.4,0,62.5.1,72.9.1Z"/><polygon class="cls-11" points="1091.4 191.4 1018.5 191.3 1018.5 190.9 1091.4 191 1091.4 191.4"/><polygon class="cls-11" points="1073.7 195.4 1036.2 195.3 1036.2 195 1073.7 195 1073.7 195.4"/><polygon class="cls-11" points="1090.4 121.3 1059.3 121.2 1059.3 120.8 1090.4 120.9 1090.4 121.3"/><polygon class="cls-11" points="1090.4 124 1090.3 124 1059.3 123.9 1059.3 123.6 1090.4 123.6 1090.4 124"/><polygon class="cls-11" points="1090.4 126.7 1059.3 126.6 1059.3 126.3 1090.4 126.3 1090.4 126.7"/><polygon class="cls-11" points="1090.4 129.4 1059.3 129.3 1059.3 129 1090.4 129 1090.4 129.4"/><polygon class="cls-11" points="1090.4 132.1 1059.3 132.1 1059.3 131.7 1090.4 131.8 1090.4 132.1"/><polygon class="cls-11" points="1069 135.1 1059.5 135.1 1059.5 134.7 1069 134.7 1069 135.1"/><rect class="cls-11" x="1064.2" y="135.2" width="4.1" height="13.5" transform="translate(922.43 1207.95) rotate(-89.9)"/><path class="cls-11" d="M1090,144.1h-12.9V140H1090Zm-12.5-.4h12.1v-3.4h-12.1Z"/><rect class="cls-11" x="1053.21" y="136.86" width="3.6" height="55.3" transform="translate(888.67 1219.22) rotate(-89.9)"/><rect class="cls-11" x="1067.71" y="199.72" width="2.5" height="22.1" transform="translate(856.33 1279.37) rotate(-89.9)"/><polygon class="cls-11" points="1093.1 216.4 1057.9 216.4 1057.9 216 1093.1 216.1 1093.1 216.4"/><polygon class="cls-11" points="1093.1 218.6 1057.9 218.5 1057.9 218.2 1093.1 218.2 1093.1 218.6"/><polygon class="cls-11" points="1080.1 221.3 1057.9 221.2 1057.9 220.9 1080.1 220.9 1080.1 221.3"/><path class="cls-11" d="M1063.9,230.7h-6.2v-6.2h6.2Zm-5.8-.3h5.5v-5.5h-5.5Z"/><rect class="cls-11" x="1067.65" y="230.78" width="2.5" height="22.1" transform="translate(825.21 1310.31) rotate(-89.9)"/><polygon class="cls-11" points="1093 247.4 1057.9 247.4 1057.9 247 1093 247.1 1093 247.4"/><polygon class="cls-11" points="1093 249.6 1057.9 249.6 1057.9 249.2 1093 249.3 1093 249.6"/><polygon class="cls-11" points="1080 252.3 1057.9 252.2 1057.9 251.9 1080 251.9 1080 252.3"/><path class="cls-11" d="M1063.9,261.8h-6.2v-6.2h6.2Zm-5.9-.4h5.5v-5.5H1058Z"/><path class="cls-13" d="M921.6,91.1a1.4,1.4,0,0,1,1.1,2.1L909.5,114l-13.1,20.8a1.32,1.32,0,0,1-2.3-.1L882.6,113,871.1,91.2a1.38,1.38,0,0,1,1.3-2l24.6.9Z"/><path class="cls-14" d="M559.1,32.6a.63.63,0,0,1,.5,1l-6.2,9.8-6.2,9.8a.65.65,0,0,1-1.1,0L540.7,43l-5.4-10.2a.64.64,0,0,1,.6-.9l11.6.4Z"/><path class="cls-4" d="M119.4,197.9a.68.68,0,0,1-.6.9l-11.5-1.1-11.5-1.1a.69.69,0,0,1-.5-1l6.7-9.4,6.7-9.4a.66.66,0,0,1,1.1.1l4.8,10.5Z"/><g class="cls-15"><path class="cls-16" d="M1005,82.6a3,3,0,0,1,0,6,3,3,0,0,1-3-3A3,3,0,0,1,1005,82.6Z"/><path class="cls-17" d="M995.6,88.5A12.46,12.46,0,0,1,1008,76.1V72a16.41,16.41,0,0,0-16.4,16.4h4Z"/><path class="cls-18" d="M985,88.5a23,23,0,0,1,22.9-22.9h0V61h0a27.66,27.66,0,0,0-27.6,27.6H985Z"/><path class="cls-19" d="M974.6,88.5A33.46,33.46,0,0,1,1008,55.1h0v-5h0a38.41,38.41,0,0,0-38.4,38.4Z"/></g><path class="cls-20" d="M859.7,63.5a1.86,1.86,0,1,1-2-1.7A1.88,1.88,0,0,1,859.7,63.5Z"/><path class="cls-20" d="M855.5,57.9a7.93,7.93,0,0,1,8.5,7.2l2.6-.2a10.45,10.45,0,0,0-11.3-9.6Z"/><path class="cls-20" d="M854.9,51.2a14.64,14.64,0,0,1,15.7,13.4h0l2.9-.2h0a17.57,17.57,0,0,0-18.9-16.1Z"/><path class="cls-20" d="M854.4,44.5A21.28,21.28,0,0,1,877.3,64h0l3.2-.3h0a24.49,24.49,0,0,0-26.3-22.4Z"/><path class="cls-20" d="M438,237.2a1.86,1.86,0,1,1-2-1.7A1.88,1.88,0,0,1,438,237.2Z"/><path class="cls-20" d="M433.8,231.6a7.93,7.93,0,0,1,8.5,7.2l2.6-.2a10.45,10.45,0,0,0-11.3-9.6Z"/><path class="cls-20" d="M433.3,224.8A14.64,14.64,0,0,1,449,238.2h0l2.9-.2h0A17.57,17.57,0,0,0,433,221.9Z"/><path class="cls-20" d="M432.7,218.2a21.28,21.28,0,0,1,22.9,19.5h0l3.2-.3h0A24.49,24.49,0,0,0,432.5,215Z"/><g class="cls-15"><path class="cls-21" d="M259,75.4a3,3,0,1,1-5.6-2,3.06,3.06,0,0,1,3.8-1.8A3.1,3.1,0,0,1,259,75.4Z"/><path class="cls-22" d="M256.6,64.5a12.4,12.4,0,0,1,7.5,15.8l3.8,1.4a16.45,16.45,0,0,0-10-21Z"/><path class="cls-23" d="M260.1,54.6A23,23,0,0,1,274,83.9h0l4.4,1.6h0a27.59,27.59,0,0,0-16.7-35.2Z"/><path class="cls-24" d="M263.6,44.8a33.3,33.3,0,0,1,20.2,42.6h0l4.7,1.7h0a38.39,38.39,0,0,0-23.2-49Z"/></g><line class="cls-1" x1="962.5" y1="182.4" x2="961.4" y2="182.4"/><rect class="cls-4" x="1025.5" y="194.2" width="48.4" height="34.2"/><path class="cls-25" d="M1032.5,221.7l9.6-9.2a1.51,1.51,0,0,1,1.9-.2l3,2a1.51,1.51,0,0,0,1.9-.2l7.9-8.5a1.51,1.51,0,0,1,2.4.3l8.9,15.7a1.44,1.44,0,0,1-1.3,2.2l-33.3.5A1.52,1.52,0,0,1,1032.5,221.7Z"/><path class="cls-25" d="M1045.3,205.5a2,2,0,1,1-2-2A2,2,0,0,1,1045.3,205.5Z"/><path class="cls-25" d="M1071.8,226.6h-44.7V196.3h44.7Zm-43.9-.7h43.2V197h-43.2Z"/><rect class="cls-26" x="78.4" y="223.3" width="90.4" height="29.6"/><rect class="cls-27" x="78.4" y="223.3" width="90.3" height="6.9"/><rect class="cls-27" x="87.4" y="235.8" width="70.8" height="0.7"/><rect class="cls-27" x="87.4" y="240.8" width="70.8" height="0.7"/><rect class="cls-27" x="87.4" y="245.8" width="70.8" height="0.7"/><polygon class="cls-4" points="162.6 228.1 162.5 228 165.5 225.3 165.6 225.5 162.6 228.1"/><polygon class="cls-4" points="165.6 228.1 162.4 225.5 162.6 225.3 165.7 228 165.6 228.1"/><ellipse class="cls-28" cx="947.9" cy="244.2" rx="1.6" ry="1.5"/><path class="cls-28" d="M970.3,260.1H935.2V236.8h35.1Zm-34.4-.7h33.7V237.5H935.9Z"/><polygon class="cls-29" points="882.9 210.5 883.5 245.8 925.3 245.8 927.3 206.8 882.9 210.5"/><path class="cls-29" d="M897.1,243.9s-1.8,14.9,4.6,15a58,58,0,0,0,13.7-1.7s-11.7-.9-12.4-2.9.9-8.7.9-8.7Z"/><polygon class="cls-30" points="902.3 214.4 900.3 224.4 891.6 225.5 899.2 229.9 897.1 239 904.1 232.7 912 237.3 908.3 228.9 914.5 224 905.9 223.7 902.3 214.4"/><polygon class="cls-29" points="1142.4 64.8 1145 96.2 1108 99.9 1102.7 65.6 1142.4 64.8"/><path class="cls-29" d="M1122.3,97.5s.2,10.4-4.2,10.1a39.69,39.69,0,0,1-9.3-2.1s8.1.1,8.7-1.2-.1-6.1-.1-6.1Z"/><path class="cls-20" d="M1129.4,73.8a4.86,4.86,0,1,1-5.2-4.5A5,5,0,0,1,1129.4,73.8Z"/><path class="cls-20" d="M1124.9,80.8h-.8c-4.7,0-8.6,6.7-8.6,13.3l17.9-1.5C1132.5,85.5,1129.6,80.8,1124.9,80.8Z"/><path class="cls-4" d="M1135.8,90.2a2.4,2.4,0,1,1-2.4-2.4A2.43,2.43,0,0,1,1135.8,90.2Z"/><polygon class="cls-20" points="1134.5 90 1133.7 90 1133.7 89.2 1133.3 89.2 1133.3 90 1132.5 90 1132.5 90.4 1133.3 90.4 1133.3 91.2 1133.7 91.2 1133.7 90.4 1134.5 90.4 1134.5 90"/><path class="cls-31" d="M249.9,288.4H155.3a9.86,9.86,0,0,1-9.9-9.9V70.9a9.86,9.86,0,0,1,9.9-9.9h94.6a9.86,9.86,0,0,1,9.9,9.9V278.5A9.86,9.86,0,0,1,249.9,288.4Z"/><rect class="cls-31" x="148.7" y="78.8" width="108.1" height="186.6"/><path class="cls-31" d="M213.6,72.1H190.8a.86.86,0,0,1-.8-.8h0a.86.86,0,0,1,.8-.8h22.8a.86.86,0,0,1,.8.8h0A.86.86,0,0,1,213.6,72.1Z"/><path class="cls-32" d="M249.2,286.9H156.1a9.86,9.86,0,0,1-9.9-9.9V71.7a9.86,9.86,0,0,1,9.9-9.9h93.1a9.86,9.86,0,0,1,9.9,9.9V277A9.92,9.92,0,0,1,249.2,286.9Z"/><rect class="cls-33" x="149.4" y="79.4" width="106.7" height="184.8"/><path class="cls-31" d="M213.4,72.7H190.9a.86.86,0,0,1-.8-.8h0a.86.86,0,0,1,.8-.8h22.5a.86.86,0,0,1,.8.8h0A.79.79,0,0,1,213.4,72.7Z"/><path class="cls-34" d="M214.2,61.2,147.4,270.7,145.9,77.5a15.9,15.9,0,0,1,15.6-16C181.7,61.2,214.2,60.8,214.2,61.2Z"/><circle class="cls-35" cx="202.7" cy="275.2" r="7.9"/><path class="cls-36" d="M246.4,125.8H159.1a3.37,3.37,0,0,1-3.4-3.4V92.2a3.37,3.37,0,0,1,3.4-3.4h87.3a3.37,3.37,0,0,1,3.4,3.4v30.3A3.35,3.35,0,0,1,246.4,125.8Z"/><path class="cls-37" d="M246.7,216.6H198.4a3.12,3.12,0,0,1-3.1-3.1v-28a3.12,3.12,0,0,1,3.1-3.1h48.3a3.12,3.12,0,0,1,3.1,3.1v28A3.12,3.12,0,0,1,246.7,216.6Z"/><path class="cls-38" d="M246,258.3H160a2.43,2.43,0,0,1-2.4-2.4V234.7a2.43,2.43,0,0,1,2.4-2.4h86a2.43,2.43,0,0,1,2.4,2.4v21.2A2.43,2.43,0,0,1,246,258.3Z"/><g class="cls-39"><line class="cls-40" x1="157.6" y1="132.7" x2="201.3" y2="132.7"/><line class="cls-40" x1="209" y1="132.7" x2="229.7" y2="132.7"/></g><line class="cls-41" x1="184.8" y1="138.7" x2="233" y2="138.7"/><line class="cls-41" x1="157.6" y1="138.7" x2="182.1" y2="138.7"/><line class="cls-41" x1="234.3" y1="132.7" x2="247.2" y2="132.7"/><line class="cls-41" x1="236.5" y1="138.7" x2="247.2" y2="138.7"/><g class="cls-39"><line class="cls-40" x1="157.6" y1="144" x2="201.3" y2="144"/><line class="cls-40" x1="209" y1="144" x2="229.7" y2="144"/></g><line class="cls-41" x1="184.8" y1="150" x2="233" y2="150"/><line class="cls-41" x1="157.6" y1="150" x2="182.1" y2="150"/><line class="cls-41" x1="234.3" y1="144" x2="247.2" y2="144"/><line class="cls-41" x1="236.5" y1="150" x2="247.2" y2="150"/><g class="cls-39"><line class="cls-40" x1="157.6" y1="155.3" x2="205.2" y2="155.3"/><line class="cls-40" x1="209" y1="155.3" x2="229.7" y2="155.3"/></g><line class="cls-41" x1="184.8" y1="161.3" x2="233" y2="161.3"/><line class="cls-41" x1="157.6" y1="161.3" x2="182.1" y2="161.3"/><line class="cls-41" x1="234.3" y1="155.3" x2="247.2" y2="155.3"/><line class="cls-41" x1="236.5" y1="161.4" x2="247.2" y2="161.4"/><g class="cls-39"><line class="cls-40" x1="157.6" y1="166.7" x2="174.5" y2="166.7"/><line class="cls-40" x1="179.1" y1="166.7" x2="229.7" y2="166.7"/></g><line class="cls-41" x1="184.8" y1="172.7" x2="233" y2="172.7"/><line class="cls-41" x1="157.6" y1="172.7" x2="182.1" y2="172.7"/><line class="cls-41" x1="234.3" y1="166.7" x2="247.2" y2="166.7"/><line class="cls-41" x1="236.5" y1="172.7" x2="247.2" y2="172.7"/><g class="cls-39"><line class="cls-40" x1="157.6" y1="178" x2="201.3" y2="178"/><line class="cls-40" x1="209" y1="178" x2="229.7" y2="178"/></g><line class="cls-41" x1="157.6" y1="189.3" x2="171.8" y2="189.3"/><line class="cls-41" x1="234.3" y1="178" x2="247.2" y2="178"/><line class="cls-41" x1="157.6" y1="194.7" x2="191.4" y2="194.7"/><line class="cls-41" x1="174" y1="189.3" x2="192.4" y2="189.3"/><line class="cls-41" x1="157.6" y1="200.7" x2="189.7" y2="200.7"/><g class="cls-39"><line class="cls-40" x1="157.6" y1="206" x2="166.8" y2="206"/><line class="cls-40" x1="173.6" y1="206" x2="191.4" y2="206"/></g><line class="cls-41" x1="157.6" y1="212" x2="191.3" y2="212"/><g class="cls-39"><line class="cls-40" x1="157.6" y1="221.1" x2="201.3" y2="221.1"/><line class="cls-40" x1="209" y1="221.1" x2="229.7" y2="221.1"/></g><line class="cls-41" x1="184.8" y1="227.1" x2="233" y2="227.1"/><line class="cls-41" x1="157.6" y1="227.1" x2="182.1" y2="227.1"/><line class="cls-41" x1="234.3" y1="221.1" x2="247.2" y2="221.1"/><line class="cls-41" x1="236.5" y1="227.2" x2="247.2" y2="227.2"/><path class="cls-42" d="M846.9,294.9s10.3,0,17.7-7.3c5.9-5.8,10.1-15.3,11.2-19.4s1.3-12.2-.7-13.5-35.9,34.1-35.9,34.1Z"/><path class="cls-42" d="M800,275.1s4.1-5,15.6-5.5c9-.4,38.8,6.4,38.8,6.4l-12.2,14.3Z"/><polygon class="cls-43" points="854.5 292.2 848.4 289.9 846.5 293.8 849.3 295.9 853.9 295.7 854.5 292.2"/><path class="cls-44" d="M849.3,295.9a4,4,0,0,0,3.4-1.7c1.4-1.8.5-2.6,1.5-2.7s5.2,1.6,9.3,1,5.4-1.3,5.7.2,0,7.3-5,7.3S849.3,295.9,849.3,295.9Z"/><path class="cls-45" d="M815.9,276.3c6.7,3.7,34,11.5,34,11.5s1.3,6.9-4.4,9.2c0,0-32.9-7.7-40.7-10.9S799,276.6,800,275,807.6,271.7,815.9,276.3Z"/><path class="cls-46" d="M838.3,227.4a2.94,2.94,0,0,1,1.5,1.4,3.48,3.48,0,0,1,.4,2.2c-.3,2-.6,5.2-.9,8.6-.5,5.4-1.2,11.3-1.9,13.7-.1.5,2.4,3.2,1.4,4.6,0,0,.2,10.9.1,10.9a11.41,11.41,0,0,1-1.1,1.1,3.92,3.92,0,0,1-2.7.7c-.9-.3-20.4,7-20.3,6.8,7.9-9.9,14.6-15.6,15.1-16.6.9-1.9-.6-20.4-.3-24.1a14.33,14.33,0,0,1,1.6-5.7,15,15,0,0,1,3.1-3.4C835.8,226.4,836.6,226.5,838.3,227.4Z"/><path class="cls-11" d="M860.3,255.4a14.85,14.85,0,0,0-.3,8.6c1.5,5.6.1,6.1.1,6.1s-6.6,5.1-13.3,6.1c-6,.9-11,1.5-11.1-3.6l2,1.4v-.9c-.3-11.4-2.7-11.9-3.9-24.6-1.2-13.1-4.5-14.7-1.8-18.5,4-5.7,15.1-9,24.2-7.3,6.8,1.3,9.1,3,9.2,7.9a35.62,35.62,0,0,1-.4,6.1A104,104,0,0,1,860.3,255.4Z"/><path class="cls-43" d="M851.6,215.4c-2.5,1.8-4,3.3-7.3,3.4-1.2.1-.8-.5-2-.7.6.3-.5.8-.1.9a1.82,1.82,0,0,1,1.6,1.7l.4,3.8,1.6,3,2.5-1.8,3.6-2.6-.6-5.8C851.3,217.4,850.6,216.5,851.6,215.4Z"/><path class="cls-47" d="M845.8,222.1l.4,3.5-.4,2-1.6-3-.4-3.8a1.82,1.82,0,0,0-1.6-1.7c-1-.2-.5-.9-2-2.3-.1-.1-.2-.2-.2-.3.2.1.5,1.4,3.5,1.6C845.8,218.3,845.5,219.9,845.8,222.1Z"/><path class="cls-46" d="M851.7,220.5a7.07,7.07,0,0,1,1.9,1.8s-1.2.6-2.3,1.3-5.5,4.2-5.5,4.2l-1.5-2.8S849.1,221.4,851.7,220.5Z"/><path class="cls-46" d="M844.3,225a3.94,3.94,0,0,0-2.1,1.9s-.9-1.6,0-4.5a6.88,6.88,0,0,1,1.6-1.2Z"/><polygon class="cls-48" points="853.6 271.5 821.7 272.6 841 278.8 853.6 271.5"/><polygon class="cls-49" points="840.9 279.6 854.5 277.7 854.6 276.6 840.8 278.5 840.9 279.6"/><path class="cls-43" d="M843.1,269.3l-2.5,1.5a4.37,4.37,0,0,0-5.1.4c-2.5,2,.9,7.3,2.7,6.7s7.2-4.9,7.2-4.9Z"/><polygon class="cls-50" points="807.9 280.7 804.7 281.8 839.6 280.6 854.7 275.7 822.3 277.5 807.9 280.7"/><path class="cls-46" d="M855.5,267.2c-4.8,1.7-9.5,9.7-9.5,9.7l-.5-.7a5.94,5.94,0,0,1-3.3-3.3,21.23,21.23,0,0,1-.4-3.6s11.9-6.6,15.4-10.9c1.7-2.1,1.8-3.8,3.5-4.7-.1-.1-.1-.3-.2-.4-2.1-5.3-2.4-13-3.3-16.9a11.81,11.81,0,0,1-.1-5.6,11.67,11.67,0,0,1,1.4-3.5c1.1-1.7,2.6-3,4.7-2.6a3.48,3.48,0,0,1,2,1,4.77,4.77,0,0,1,1.2,2.2c1,5.6,4.2,21.1,4.2,24.5a8.81,8.81,0,0,1-.2,1.7c0,.2-.1.4-.1.6C868.8,259.8,860.3,265.5,855.5,267.2Z"/><path class="cls-51" d="M840.9,279.6l-33.2-1.5a2.44,2.44,0,0,1-2.2-2l-3.6-22.9a2,2,0,0,1,2-2.3l31.1,1.4a2,2,0,0,1,1.9,1.7Z"/><path class="cls-52" d="M835.8,206.5a4.52,4.52,0,0,1-.7,1.4,5,5,0,0,0-.7,2.5c0-.1-1.6-3.9-1.2-4.9s1.2-1.3,1.4-1S835.8,206.5,835.8,206.5Z"/><path class="cls-43" d="M852.7,212.3a15.21,15.21,0,0,1,.2,2.8v.3a.37.37,0,0,1-.1.3c-.7,3.2-4.5,7.9-7.3,8.4a4.1,4.1,0,0,1-1.1.1c-3.9,0-6.4-3.1-7.9-6.5,0-.1-.1-.2-.2-.4a35.11,35.11,0,0,1-2-7.5v-.4a5.42,5.42,0,0,1,0-2.6.35.35,0,0,1,.1-.2h.1c1.1-.4,8.4-3,8.6-3l7.7.2S852.1,208.6,852.7,212.3Z"/><path class="cls-53" d="M853.7,212.1a15.21,15.21,0,0,1,.2,2.8v.3c-.4,3.2-4,8.3-8.4,8.9a3.4,3.4,0,0,1-1,.1c-4.7.4-6.5-3.1-8-6.6,0-.1-.1-.2-.2-.4,0,0,1.8,2.5,2.6,2.6s-.2-.9,1.9-1.9a11,11,0,0,1,4.6-.6c.9.1,2.6.5,3.2.5h.3c.8-.4,2.2-3.2,2.4-4.9C851.5,212.4,853.1,212,853.7,212.1Z"/><path class="cls-53" d="M830.8,202.8s.5,5.7,9.8,3,9,6.6,9,6.6,1.2-3.2,1.6-2a17.23,17.23,0,0,1,.2,4.3s2.6.2,2.6-1.1c0-.8-.4-11.6-2.4-14s-4.2-2.3-4.2-2.3-2.4-1.9-7.9,0-8.5,0-8.4.1A11.28,11.28,0,0,0,830.8,202.8Z"/><path class="cls-54" d="M849.4,210.4c-.1-.4-1.8-.2-3,0a29.53,29.53,0,0,0-5.1,1.2c-.7.4-.6.7-1,.7s-.4-.2-1.1-.4a13.16,13.16,0,0,0-3.8.3c-1.2.2-2.3.5-2.3.9s.2,1.1.5,1.2.2.1,1.2,1.6c.5.8,1.3,1.3,2.9.9,2-.5,2.1-2.1,2.3-2.8s.3-.8.6-.9.5,0,.9.6.6,2.1,2.7,2c2.6-.1,3.8-.9,4.2-2.1.5-1.7.4-1.7.6-1.9s.7-.3.7-.5A1.6,1.6,0,0,1,849.4,210.4Zm-10.2,4.3a2.14,2.14,0,0,1-2,1.9,2,2,0,0,1-2.4-1.3,2.07,2.07,0,0,1-.4-2c.2-.3.9-.3,2.4-.5s2-.3,2.3.2A3.89,3.89,0,0,1,839.2,214.7Zm8.7-1.6a2.68,2.68,0,0,1-2.5,2.2c-2.4.4-2.8-.2-3.2-1a3.75,3.75,0,0,1-.4-1.7c.1-.5.6-.6,2.1-.9s3.5-.7,3.8-.5S848.1,212,847.9,213.1Z"/><polygon class="cls-43" points="831 289.4 836.9 286.7 839 290.6 836.4 292.8 831.8 292.9 831 289.4"/><path class="cls-44" d="M836.4,292.8a4.05,4.05,0,0,1-3.5-1.5c-1.5-1.8-.7-2.5-1.6-2.6s-5.1,1.9-9.3,1.5-5.5-1-5.7.6.4,7.3,5.4,7S836.4,292.8,836.4,292.8Z"/><path class="cls-45" d="M834.8,284.8s14.7-13.1,20.9-20,9.9-13.5,17.5-11.3-1.2,16.6-7.8,22.3-22.9,18.5-22.9,18.5S833.2,291.4,834.8,284.8Z"/><circle class="cls-55" cx="819.8" cy="265.3" r="2.7"/><path class="cls-56" d="M244.1,114.79s-.5-4.6-5.7-3.6-10.2,5.6-9.2,11.8-2.3,6.3-3.2,5.9c0,0,4.1,4.4,9.6,1.8s5.2-12,5.2-12Z"/><path class="cls-56" d="M256.8,112.39s5.6,3.1,1.4,14.1c-1.3,3.5-9.8-2.8-9.8-2.8Z"/><path class="cls-57" d="M260.3,288a32.58,32.58,0,0,1,.7,5.8c-.3,1.8,0,2.3,0,2.3l6.8-.6s-3-1.5-2.8-8.5S260.3,288,260.3,288Z"/><path class="cls-11" d="M260.9,294.39a10.91,10.91,0,0,0,5.9.3,27.48,27.48,0,0,0,9,2.6c3.1.4,2.6,3-2.8,2.6a64.53,64.53,0,0,0-10.3,0c-1.2.1-3.1.3-3.2-.6S260,294.09,260.9,294.39Z"/><path class="cls-57" d="M239.5,288a32.58,32.58,0,0,1,.7,5.8c-.3,1.8,0,2.3,0,2.3l6.8-.6s-3-1.5-2.8-8.5S239.5,288,239.5,288Z"/><path class="cls-11" d="M240,294.39a10.91,10.91,0,0,0,5.9.3,27.48,27.48,0,0,0,9,2.6c3.1.4,2.6,3-2.8,2.6a64.22,64.22,0,0,0-10.3,0c-1.2.1-3.1.3-3.2-.6S239.1,294.09,240,294.39Z"/><path class="cls-58" d="M264.1,192.59s3.1,40.2,3.4,46.1.4,13,.2,16.6-.9,34.3-.9,34.3-5.6,2.6-8.2.2c0,0-1.5-38.3-2.8-44s-6.2-29.7-6.2-29.7l5.9-29.6Z"/><path class="cls-45" d="M240.7,242.09c1-8.6-.7-38.4-.6-45.7s20.8-3.6,20.8-3.6-6.7,38.2-7.4,44.4-1.7,13-2,18.9-5.2,34.4-5.2,34.4-6.6,1.7-7.5-.4C236.9,279.09,240.7,242.09,240.7,242.09Z"/><path class="cls-44" d="M388.3,291.59c-.1.8,1.4,2.9-.7,4.7s-6.6,3.6-3.6,3.7a16.68,16.68,0,0,0,7.5-1.4c1.5-.8.3-2,2.2-2.6,2.5-.8,2.5-1,1.3-3.7C393.4,288.49,388.7,289,388.3,291.59Z"/><path class="cls-59" d="M368.4,163.79a14.83,14.83,0,0,0-.7,8.6c1.3,5.7-.2,6.1-.2,6.1s-7.7,4.9-14.1,6.9c-4.6,1.4-8.5,1.2-8.4-3.9v-1c.2-11.4-2.2-12-2.8-24.8-.6-13.1,2.9-20.4,6.4-23.6s8.2-3.3,17.2-1.2c6.7,1.6,8.9,3.4,8.9,8.3a40.67,40.67,0,0,1-.7,6.1A116.57,116.57,0,0,1,368.4,163.79Z"/><path class="cls-60" d="M352.1,135.69s-7,22.8-5.6,33.8l2.6,4.7,2.8-5.1s-2.3-21.9,2.1-32.9Z"/><path class="cls-61" d="M368.4,163.79a14.83,14.83,0,0,0-.7,8.6c1.3,5.7-.2,6.1-.2,6.1s-7.7,4.9-14.1,6.9l-6-.6-2.4-1.9v-2.4a48.61,48.61,0,0,0,9.1-.2,39.78,39.78,0,0,0,8.9-2.2,3.4,3.4,0,0,0,2.2-3.8,50.41,50.41,0,0,1-.8-8c0-2.5,1.2-6.8,2.1-9.8a20,20,0,0,0,.8-7.3,65.59,65.59,0,0,1,0-8.3l4.8-2.6,2.6,1a40.67,40.67,0,0,1-.7,6.1A118.44,118.44,0,0,1,368.4,163.79Z"/><path class="cls-62" d="M368.5,188.09c.5.1,2-2.4,2-2.4l-.6-.8a2.38,2.38,0,0,0-1.3-.9h-.1a1.25,1.25,0,0,0-1.3.4c-.4.6-1,1.3-1.7,1.3h-.1C364.6,185.69,367.9,188,368.5,188.09Z"/><path class="cls-56" d="M346.8,108.69a3.67,3.67,0,0,0,.3,3l3.7-5h-2.6Z"/><path class="cls-43" d="M366.8,115.19c-.2,6.4-5.7,10.2-5.7,10.2l.4,5.9-3.7,2.4-2.6,1.7-1.5-3.1-.2-3.8a2,2,0,0,0-1.5-1.8,6.84,6.84,0,0,1-3.6-2.2c-.1-.1-.2-.2-.2-.3h0c-2.4-3.3-3.4-16,5-19.6S366.9,108.79,366.8,115.19Z"/><path class="cls-47" d="M357.4,130.19l.3,3.5-2.6,1.7-1.5-3.1-.2-3.8a2,2,0,0,0-1.5-1.8,6.84,6.84,0,0,1-3.6-2.2c-.1-.1-.2-.2-.2-.3a13.54,13.54,0,0,0,5.2,1.6A4.7,4.7,0,0,1,357.4,130.19Z"/><path class="cls-56" d="M357.8,117.19c.3.1.6-.4.6-.4a35.08,35.08,0,0,1,2.4-4.7c1.1-1.1,3.7-1,3.9,2.5.2,2.7-3,8.4-4,10.1a.54.54,0,0,0,.2.8c.1.1.2.1.4.1h0c.2,0,.3,0,.4-.2,2.1-1.8,11.1-10.5,3.9-18.7,0,0-5.7.4-6.6,3.1a53.52,53.52,0,0,0-1.5,6.5S357.5,117.09,357.8,117.19Z"/><path class="cls-56" d="M346.8,108.69s5-3.9,12.6.8l6.2-1.6s.3-.1.1-1-.8-10.1-11.7-8C347.7,100.09,343.9,104.39,346.8,108.69Z"/><path class="cls-60" d="M351.7,133.79v.3a7.49,7.49,0,0,0,.4,1.6h0l1.9.4,1.6-1.2-1.9-2.2-.3.1a3.35,3.35,0,0,0-1.7,1Z"/><path class="cls-61" d="M361.4,128.49a5.85,5.85,0,0,1,1.8,1.9s-1.2.6-2.3,1.2-5.7,3.9-5.7,3.9l-1.4-2.9C353.8,132.69,358.7,129.29,361.4,128.49Z"/><path class="cls-61" d="M353.8,132.69a4.13,4.13,0,0,0-2.2,1.8s-.8-1.6.2-4.5a6.88,6.88,0,0,1,1.6-1.2Z"/><path class="cls-63" d="M366.9,184a11,11,0,0,1-1.1,1.2c-.3.1-.3-.2-.2-.4S366.9,183.69,366.9,184Z"/><path class="cls-56" d="M361.3,125.69h0a.55.55,0,0,0,.5-.2c2.1-1.8,11.1-10.5,3.9-18.7a7,7,0,0,1,.2,2.6C365.9,109.49,370.5,116.89,361.3,125.69Z"/><path class="cls-45" d="M377.4,211a33.62,33.62,0,0,0-9.9-32.5s-8.2,3.7-14.7,4.1a35.32,35.32,0,0,1-7.8-.2s-.4,15.8-.5,24.3Z"/><path class="cls-45" d="M343.1,240.59c-.3-8,5.6-7.1,9-1.3,11.1,18.6,0,41.8-1.2,55.2a5.75,5.75,0,0,0-4.3-2.8,2.56,2.56,0,0,0-1.5.8C345.3,276,343.5,249.09,343.1,240.59Z"/><path class="cls-45" d="M351.8,241.39c-1,3.3-9.5,7-8.7-4.8.4-5.3,1.5-34.2,1.7-37s.7-6.9,2-7.4c6.8-2.5,16.2,5.9,14.5,16.4C360.1,215.59,353.9,234.69,351.8,241.39Z"/><path class="cls-44" d="M345.1,292.69a10.79,10.79,0,0,1-4.4,3.3c-2.3,1.1-7.3,1.5-4.6,2.5a16.26,16.26,0,0,0,7.6.1,27.45,27.45,0,0,1,5.1-.3c2.5,0,2.6-.2,2.2-3C350.7,291.29,346.3,290.49,345.1,292.69Z"/><path class="cls-45" d="M371.5,242.39c-2.7-7.5,3.2-8.4,8.2-3.9,16,14.5,12.3,40,15.1,53.2a9.29,9.29,0,0,1-5,1.4,2.26,2.26,0,0,1-1.4-.7C383.7,276.59,374.3,250.39,371.5,242.39Z"/><path class="cls-45" d="M380.2,240.19c.3,3.4-6.2,10.1-9.8-1.2-1.6-5-11.5-32.3-12.4-34.9s-2-6.6-.9-7.6c5.3-4.9,17.3-.6,19.6,9.8C378.2,213.19,379.5,233.19,380.2,240.19Z"/><path class="cls-11" d="M258.2,145.69l9.9,2.7s-1.1,8.4,0,10.9h-6.9s-1.2,3.6-1.8,5.2,4.7,23.8,5.5,29c0,0-2.8,4.9-25.6,2.4,0,0-.9-5.3,2.1-13.4,2.6-7.1-8.9-25.2-8.9-25.2s1.9-13.1,13-15.4C252,140.39,252.1,144,258.2,145.69Z"/><path class="cls-43" d="M256.4,114.09s5,14.7,2.3,19.4c-2.1,3.8-6.6,3.3-6.6,3.3v8.8a2,2,0,0,1-1.3.5c-1.5.1-5.3-2.4-5.3-2.4v-20.4Z"/><path class="cls-43" d="M232,162s-4.7,21.7-3,23.1,20.5,1.4,22.3,1.8,11.1,1.7,15.2-1.6c.5-.4-5.3.6-5.9-.9a4.42,4.42,0,0,0-2.6-2.1l-6.3,1.9s-14.3-2.7-15.3-3.6,4.2-18.5,4.2-18.5Z"/><path class="cls-64" d="M231.2,161.39s3.3-14.8,8.2-16.8,7.1,5.4,5,12.4-2.6,9.6-2.6,9.6S235,166.59,231.2,161.39Z"/><path class="cls-43" d="M381.4,155.49s4.1,27.7,1.9,29.4-25.8,3-28.2,3.4-12,3-17-1.5c-.6-.6,5.2-.8,6-2.8a5.54,5.54,0,0,1,3.4-2.5l7.3,3.2s15.6-6.2,19.8-6.9c-1.9-2.6-4.5-20.7-4.5-20.7Z"/><path class="cls-59" d="M382.8,156.59s-3.2-20.3-9.4-23-10.5,6-8.2,15,2.8,12.3,2.8,12.3S377.2,161.79,382.8,156.59Z"/><path class="cls-65" d="M347.7,187.49H257.9a4.06,4.06,0,0,1-4.1-4.1v-36.6a4.06,4.06,0,0,1,4.1-4.1h89.8a4.06,4.06,0,0,1,4.1,4.1v36.6A4.12,4.12,0,0,1,347.7,187.49Z"/><path class="cls-11" d="M349.4,185.69H259.6a4.06,4.06,0,0,1-4.1-4.1V145a4.06,4.06,0,0,1,4.1-4.1h89.8a4.06,4.06,0,0,1,4.1,4.1v36.7A4,4,0,0,1,349.4,185.69Z"/><polyline class="cls-66" points="266.5 145.59 264 148.19 266.5 150.79"/><polyline class="cls-66" points="272.7 145.59 275.2 148.19 272.7 150.79"/><line class="cls-66" x1="268.6" y1="151.29" x2="270.5" y2="145.59"/><path class="cls-67" d="M278.5,151.29a.7.7,0,1,1-.7-.7A.68.68,0,0,1,278.5,151.29Z"/><path class="cls-67" d="M281.4,151.29a.7.7,0,1,1-.7-.7A.68.68,0,0,1,281.4,151.29Z"/><circle class="cls-67" cx="283.6" cy="151.29" r="0.7"/><line class="cls-68" x1="264" y1="155.79" x2="346.3" y2="155.79"/><line class="cls-69" x1="264" y1="159.09" x2="313.5" y2="159.09"/><line class="cls-70" x1="317.3" y1="159.09" x2="346.3" y2="159.09"/><line class="cls-70" x1="346.3" y1="162.59" x2="305.6" y2="162.59"/><line class="cls-71" x1="320.4" y1="145.59" x2="346.5" y2="145.59"/><line class="cls-72" x1="317.5" y1="148.79" x2="346.5" y2="148.79"/><line class="cls-72" x1="346.5" y1="152.39" x2="305.8" y2="152.39"/><line class="cls-69" x1="302.3" y1="162.59" x2="297.5" y2="162.59"/><line class="cls-69" x1="293.6" y1="162.59" x2="288.8" y2="162.59"/><line class="cls-69" x1="284.9" y1="162.59" x2="280.1" y2="162.59"/><line class="cls-69" x1="276.2" y1="162.59" x2="271.4" y2="162.59"/><line class="cls-73" x1="346.3" y1="166.99" x2="269.8" y2="166.99"/><line class="cls-69" x1="265.8" y1="162.59" x2="264" y2="162.59"/><line class="cls-69" x1="265.8" y1="166.99" x2="264" y2="166.99"/><line class="cls-69" x1="265.8" y1="171.29" x2="264" y2="171.29"/><line class="cls-69" x1="265.8" y1="175.69" x2="264" y2="175.69"/><line class="cls-74" x1="271.2" y1="171.29" x2="292.2" y2="171.29"/><line class="cls-74" x1="271.2" y1="175.79" x2="299.1" y2="175.79"/><line class="cls-72" x1="271.2" y1="180.19" x2="309" y2="180.19"/><line class="cls-75" x1="294.5" y1="171.29" x2="346.3" y2="171.29"/><line class="cls-75" x1="301.1" y1="175.79" x2="346.3" y2="175.79"/><line class="cls-72" x1="311.4" y1="180.19" x2="346.3" y2="180.19"/><path class="cls-43" d="M281.4,185.09s-2.1-2.7-3.5-3.1-2.9-.5-3.2.3-.8,3.9-.5,4.4S280.3,188,281.4,185.09Z"/><path class="cls-43" d="M333.9,140.29s2.2,3.2,3.8,3.7,3.2.7,3.7-.1,1.1-4.3.8-4.9S335.4,137.09,333.9,140.29Z"/><path class="cls-76" d="M238,289.49a1.85,1.85,0,0,1,.2.7c0,.2-.1.3-.1.4,0,.5.5.7,1,.8a25.81,25.81,0,0,0,4.8.3,5.7,5.7,0,0,0,2.2-.4,1.7,1.7,0,0,0,.6-.6.78.78,0,0,0-.2-.8.38.38,0,0,0,0-.7,1.34,1.34,0,0,0-.9-.2c-1.4.1-2.9.3-4.3.3a14.77,14.77,0,0,1-2.1-.1C238.8,289,237.8,288.69,238,289.49Z"/><path class="cls-76" d="M258.2,288.69a1.85,1.85,0,0,1,.2.7c0,.2-.1.3-.1.4,0,.5.5.7,1,.8a25.81,25.81,0,0,0,4.8.3,5.7,5.7,0,0,0,2.2-.4,1.7,1.7,0,0,0,.6-.6.78.78,0,0,0-.2-.8.38.38,0,0,0,0-.7,1.34,1.34,0,0,0-.9-.2c-1.4.1-2.9.3-4.3.3a14.77,14.77,0,0,1-2.1-.1C259,288.19,258,287.89,258.2,288.69Z"/><path class="cls-56" d="M257.2,116.59s-3.8,8.2-7.4,9.7c0,0-1.1-1.5-2-.6s.4,4,1.4,4.3-2,4.2-3.6,4.4-8-7.8-6.7-14,4.5-7,4.5-7,4.6-5,13.8-.9Z"/><polygon class="cls-77" points="400.1 51.6 397.4 81.9 364 81.9 358.1 91.7 358.1 81.9 349.2 81.9 349.2 50.5 400.1 51.6"/><polygon class="cls-20" points="797.7 148.6 800.4 178.9 833.7 178.9 839.7 188.6 839.7 178.9 848.6 178.9 848.6 147.4 797.7 148.6"/><path class="cls-78" d="M816.9,164.2a1.6,1.6,0,1,1-1.6-1.6A1.58,1.58,0,0,1,816.9,164.2Z"/><path class="cls-78" d="M826.4,164.2a1.6,1.6,0,1,1-1.6-1.6A1.58,1.58,0,0,1,826.4,164.2Z"/><path class="cls-78" d="M835.8,164.2a1.6,1.6,0,1,1-1.6-1.6A1.58,1.58,0,0,1,835.8,164.2Z"/><path class="cls-79" d="M109.5,106.3A25,25,0,0,0,100,87.9c-.7-.5-1.4-1.1-2.1-1.5a23,23,0,0,0-6.4-2.9,22.64,22.64,0,0,0-5.8-.9.85.85,0,0,0-.8,0,25.49,25.49,0,0,0-3.9.2h-.1a25.58,25.58,0,0,0-7.7,2.4c-.8.4-1.5.8-2.3,1.3a25.21,25.21,0,0,0-11.5,19.9V109a25.06,25.06,0,0,0,7.1,16.3,14.54,14.54,0,0,0,1.9,1.7,25.45,25.45,0,0,0,10.8,5.3h.1a27,27,0,0,0,2.8.4,9.19,9.19,0,0,0,3.3.6,10,10,0,0,0,4.2-1c1.3-.3,2.5-.6,3.7-1l.2-.1h0a24.16,24.16,0,0,0,7.2-4.3,16.6,16.6,0,0,0,1.9-1.8,25.2,25.2,0,0,0,7-16.2v-1.3A5.7,5.7,0,0,1,109.5,106.3Zm-2.2.1v.2h-6.9a35.56,35.56,0,0,0-3.7-14.9h0a19,19,0,0,0,1.9-2.1h0A22.72,22.72,0,0,1,107.3,106.4Zm-32.1,16h0a28.14,28.14,0,0,1,8.9-1.6v9.7h-.5C80.2,129.8,77.2,126.8,75.2,122.4ZM95.4,89.5h0a20.47,20.47,0,0,0-3-3.5,20.59,20.59,0,0,1,4.2,2.1A17.41,17.41,0,0,1,95.4,89.5Zm-9.1-3.8c2.8.4,5.3,2.4,7.3,5.4a14.3,14.3,0,0,1-7.3,2.6Zm-2.2,0v7.9A14.78,14.78,0,0,1,77,90.8h0C79,87.9,81.4,86,84.1,85.7Zm-8.4,7.2A16.28,16.28,0,0,0,84,96.1v10.5H72.4A32.52,32.52,0,0,1,75.7,92.9ZM84.1,109v9.3a26.27,26.27,0,0,0-9.8,1.8A31.86,31.86,0,0,1,72.4,109Zm2.2,21.5V121a23.11,23.11,0,0,1,8.5,2.1c-1.9,3.7-4.4,6.4-7.3,7.3A4.87,4.87,0,0,0,86.3,130.5Zm10.6-6.4a8.32,8.32,0,0,1,1.8,1.3,18.71,18.71,0,0,1-4.6,2.9A18.09,18.09,0,0,0,96.9,124.1Zm-1.1-3.3h0a26.52,26.52,0,0,0-9.5-2.3V109H98A35.41,35.41,0,0,1,95.8,120.8Zm-9.5-14.3V96.1a15.49,15.49,0,0,0,8.5-2.9A33,33,0,0,1,98,106.5ZM79,85.2a15.38,15.38,0,0,0-3.7,3.9h0a13.3,13.3,0,0,1-1.4-1.9c.1,0,.1-.1.2-.1A17.2,17.2,0,0,1,79,85.2Zm-7.3,3.2a11.83,11.83,0,0,0,2.2,2.8h0a33.88,33.88,0,0,0-4,15.3H61.4v-.2A23,23,0,0,1,71.7,88.4ZM61.4,109h8.5a38.29,38.29,0,0,0,2.2,12.1h0a19.05,19.05,0,0,0-4.1,2.6l-.1-.1A22.35,22.35,0,0,1,61.4,109Zm8.4,16.4a17.27,17.27,0,0,1,3.2-2h0a21,21,0,0,0,4.1,6.1A26.32,26.32,0,0,1,69.8,125.4Zm31-1.8-.2.2a18.48,18.48,0,0,0-2.7-1.9,36.56,36.56,0,0,0,2.5-12.9h6.8A22.45,22.45,0,0,1,100.8,123.6Z"/><g class="cls-80"><circle class="cls-81" cx="551.3" cy="175.2" r="4.2"/><path class="cls-81" d="M350.2,121.2A4.2,4.2,0,1,1,346,117,4.23,4.23,0,0,1,350.2,121.2Z"/><circle class="cls-81" cx="201.5" cy="131" r="4.2"/><circle class="cls-81" cx="169.2" cy="85.9" r="4.2"/><circle class="cls-81" cx="345.5" cy="276.2" r="4.2"/><path class="cls-81" d="M123.6,242.3a4.2,4.2,0,1,1-4.2-4.2A4.23,4.23,0,0,1,123.6,242.3Z"/><path class="cls-81" d="M264,215.3a4.2,4.2,0,1,1-4.2-4.2A4.16,4.16,0,0,1,264,215.3Z"/><circle class="cls-81" cx="207.1" cy="45.3" r="4.2"/><path class="cls-81" d="M535.6,67a4.2,4.2,0,1,1-4.2-4.2A4.16,4.16,0,0,1,535.6,67Z"/><path class="cls-11" d="M411.1,39.4H408V36.3a.9.9,0,1,0-1.8,0v3.1H403a.9.9,0,0,0,0,1.8h3.1v3.1a.9.9,0,1,0,1.8,0V41.2H411a.9.9,0,0,0,.9-.9A.77.77,0,0,0,411.1,39.4Z"/><path class="cls-11" d="M306.5,45.6h-3.1V42.5a.9.9,0,0,0-1.8,0v3.1h-3.1a.9.9,0,1,0,0,1.8h3.1v3.1a.9.9,0,0,0,1.8,0V47.4h3.1a.9.9,0,0,0,0-1.8Z"/><path class="cls-11" d="M234.9,74.5h-3.1V71.4a.9.9,0,0,0-1.8,0v3.1h-3.1a.9.9,0,0,0,0,1.8H230v3.1a.9.9,0,1,0,1.8,0V76.3h3.1a.9.9,0,0,0,0-1.8Z"/><path class="cls-11" d="M78,275.3H74.9v-3.1a.9.9,0,1,0-1.8,0v3.1H70a.9.9,0,0,0,0,1.8h3v3.1a.9.9,0,1,0,1.8,0v-3.1H78a.9.9,0,0,0,0-1.8Z"/><path class="cls-11" d="M185.2,253.3h-3.1v-3.1a.9.9,0,1,0-1.8,0v3.1h-3.1a.9.9,0,0,0,0,1.8h3.1v3.1a.9.9,0,0,0,1.8,0v-3.1h3.1a.9.9,0,0,0,0-1.8Z"/><path class="cls-11" d="M535.4,141.2h-3.1v-3.1a.9.9,0,1,0-1.8,0v3.1h-3.1a.9.9,0,1,0,0,1.8h3.1v3.1a.9.9,0,0,0,1.8,0V143h3.1a.9.9,0,0,0,0-1.8Z"/><path class="cls-11" d="M431.6,15.5h-3.1V12.4a.9.9,0,1,0-1.8,0v3.1h-3.1a.9.9,0,1,0,0,1.8h3.1v3.1a.9.9,0,1,0,1.8,0V17.3h3.1a.9.9,0,0,0,0-1.8Z"/><path class="cls-11" d="M143.4,146h-3.1v-3.1a.9.9,0,0,0-1.8,0V146h-3.1a.9.9,0,0,0,0,1.8h3.1v3.1a.9.9,0,0,0,1.8,0v-3.1h3.1a.9.9,0,0,0,0-1.8Z"/><path class="cls-11" d="M282.3,241.4h-3.1v-3.1a.9.9,0,1,0-1.8,0v3.1h-3.1a.9.9,0,1,0,0,1.8h3.1v3.1a.9.9,0,0,0,1.8,0v-3.1h3.1a.9.9,0,0,0,.9-.9C283.3,241.8,282.9,241.4,282.3,241.4Z"/></g><g class="cls-80"><circle class="cls-81" cx="682.4" cy="172.8" r="4.2"/><path class="cls-81" d="M883.5,118.8a4.2,4.2,0,1,0,4.2-4.2A4.23,4.23,0,0,0,883.5,118.8Z"/><circle class="cls-81" cx="1032.2" cy="128.6" r="4.2"/><circle class="cls-81" cx="1064.5" cy="83.5" r="4.2"/><circle class="cls-81" cx="888.2" cy="273.8" r="4.2"/><path class="cls-81" d="M1110.1,239.9a4.2,4.2,0,1,0,4.2-4.2A4.23,4.23,0,0,0,1110.1,239.9Z"/><path class="cls-81" d="M969.7,212.9a4.2,4.2,0,1,0,4.2-4.2A4.23,4.23,0,0,0,969.7,212.9Z"/><path class="cls-81" d="M1026.6,38.7a4.2,4.2,0,1,1-4.2,4.2A4.2,4.2,0,0,1,1026.6,38.7Z"/><path class="cls-81" d="M698.1,64.6a4.2,4.2,0,1,0,4.2-4.2A4.23,4.23,0,0,0,698.1,64.6Z"/><path class="cls-11" d="M822.6,37h3.1V33.9a.9.9,0,1,1,1.8,0V37h3.1a.9.9,0,0,1,0,1.8h-3.1V42a.9.9,0,1,1-1.8,0V38.9h-3.1a.9.9,0,0,1-.9-.9A.92.92,0,0,1,822.6,37Z"/><path class="cls-11" d="M927.2,43.2h3.1V40.1a.9.9,0,1,1,1.8,0v3.1h3.1a.9.9,0,0,1,0,1.8h-3.1v3.1a.9.9,0,1,1-1.8,0V45h-3.1a.9.9,0,1,1,0-1.8Z"/><path class="cls-11" d="M998.8,72.1h3.1V69a.9.9,0,0,1,1.8,0v3.1h3.1a.9.9,0,1,1,0,1.8h-3.1V77a.9.9,0,0,1-1.8,0V73.9h-3.1a.9.9,0,1,1,0-1.8Z"/><path class="cls-11" d="M1155.7,272.9h3.1v-3.1a.9.9,0,0,1,1.8,0v3.1h3.1a.9.9,0,1,1,0,1.8h-3.1v3.1a.9.9,0,0,1-1.8,0v-3.1h-3.1a.9.9,0,1,1,0-1.8Z"/><path class="cls-11" d="M1048.4,250.9h3.1v-3.1a.9.9,0,0,1,1.8,0v3.1h3.1a.9.9,0,1,1,0,1.8h-3.1v3.1a.9.9,0,0,1-1.8,0v-3.1h-3.1a.9.9,0,1,1,0-1.8Z"/><path class="cls-11" d="M698.3,138.8h3.1v-3.1a.9.9,0,0,1,1.8,0v3.1h3.1a.9.9,0,0,1,0,1.8h-3.1v3.1a.9.9,0,0,1-1.8,0v-3.1h-3.1a.9.9,0,1,1,0-1.8Z"/><path class="cls-11" d="M802.1,13.1h3.1V10a.9.9,0,1,1,1.8,0v3.1h3.1a.9.9,0,0,1,0,1.8H807V18a.9.9,0,1,1-1.8,0V14.9h-3.1a.9.9,0,1,1,0-1.8Z"/><path class="cls-11" d="M1090.3,143.6h3.1v-3.1a.9.9,0,0,1,1.8,0v3.1h3.1a.9.9,0,1,1,0,1.8h-3.1v3.1a.9.9,0,1,1-1.8,0v-3.1h-3.1a.9.9,0,0,1,0-1.8Z"/><path class="cls-11" d="M951.3,239h3.1v-3.1a.9.9,0,0,1,1.8,0V239h3.1a.9.9,0,1,1,0,1.8h-3.1v3.1a.9.9,0,0,1-1.8,0v-3.1h-3.1a.9.9,0,1,1,0-1.8Z"/></g></g></g></g></svg>