<?xml version="1.0" encoding="utf-8"?>
<!-- Generator: Adobe Illustrator 26.0.2, SVG Export Plug-In . SVG Version: 6.00 Build 0)  -->
<svg version="1.1" id="Layer_1" xmlns="http://www.w3.org/2000/svg" xmlns:xlink="http://www.w3.org/1999/xlink" x="0px" y="0px"
	 viewBox="0 0 1245 300" style="enable-background:new 0 0 1245 300;" xml:space="preserve">
<style type="text/css">
	.st0{clip-path:url(#SVGID_00000143593467102441931220000006422282654804794240_);}
	.st1{fill:#EBF3FA;}
	.st2{fill:none;stroke:#FC5852;stroke-miterlimit:10;}
	.st3{fill:#FC5852;}
	.st4{fill:#FF5A4E;}
	.st5{fill:#FFFFFF;}
	.st6{fill:none;stroke:#FFFFFF;stroke-miterlimit:10;}
	.st7{fill:#FFFFFF;stroke:#D64C42;stroke-miterlimit:10;}
	.st8{fill:none;stroke:#D64C42;stroke-miterlimit:10;}
	.st9{fill:none;stroke:#D64C42;stroke-linecap:round;stroke-miterlimit:10;}
	.st10{fill:#E1E1E1;}
	.st11{fill:#F5F5F5;}
	.st12{fill-rule:evenodd;clip-rule:evenodd;fill:#E1E1E1;}
	.st13{fill-rule:evenodd;clip-rule:evenodd;fill:#1A2E35;}
	.st14{fill:#1A2E35;}
	.st15{fill:#3945BA;}
	.st16{fill:#DEE3FC;}
	.st17{fill:none;stroke:#698BD1;stroke-linecap:round;stroke-linejoin:round;stroke-dasharray:2.84,2.84;}
	.st18{fill:#4B5A9B;}
	.st19{fill:#7F95F4;}
	.st20{fill:#B2C1F9;}
	.st21{fill:#3052CE;}
	.st22{fill:none;stroke:#495AD6;stroke-width:0.9;stroke-miterlimit:10;}
	.st23{fill:none;stroke:#495AD6;stroke-width:1.67;stroke-linecap:round;stroke-linejoin:round;}
	.st24{fill:#F0F4FF;}
	.st25{fill:#3B47BC;}
	.st26{fill:#495AD6;}
	.st27{fill:#281616;}
	.st28{fill:#002C54;}
	.st29{fill:#052635;}
	.st30{fill:#E5918F;}
	.st31{fill:#C7E5F2;}
	.st32{fill:#CC6362;}
	.st33{fill:none;stroke:#FFFFFF;stroke-width:0.5;stroke-miterlimit:10;}
	.st34{opacity:0.5;}
	.st35{fill:#375F84;}
	.st36{fill:#467CDB;}
	.st37{fill:#E49191;}
	.st38{fill:#5996EF;}
	.st39{fill:#0070D6;}
	.st40{fill:#060632;}
	.st41{fill:#0B0754;}
	.st42{fill:#FC9290;}
	.st43{fill:#ED6966;}
	.st44{fill:#3662C1;}
	.st45{fill:#120E59;}
	.st46{fill:#6D89CF;}
	.st47{fill:#0072F1;}
	.st48{opacity:0.1;fill:#0B0754;enable-background:new    ;}
	.st49{opacity:0.8;fill:#66B6FF;enable-background:new    ;}
	.st50{fill:#DEE9FD;}
	.st51{fill:#C1D4FA;}
	.st52{fill:none;stroke:#1F8F46;stroke-width:6;stroke-linecap:round;stroke-linejoin:round;}
	.st53{fill:#0775EF;}
	.st54{fill:#088CFC;}
	.st55{fill:#F2BB16;}
	.st56{fill:#F9E181;}
	.st57{fill:#40A87B;}
	.st58{fill:none;stroke:#6ADB6A;stroke-width:3.33;stroke-miterlimit:10;}
	.st59{fill:#6ADB6A;}
	.st60{fill:none;stroke:#40A87B;stroke-width:3.33;stroke-miterlimit:10;}
	.st61{fill:#35221A;}
	.st62{fill:#644437;}
	.st63{fill:#FAFAFA;}
	.st64{fill:none;stroke:#6ADB6A;stroke-width:3.48;stroke-miterlimit:10;}
	.st65{fill:none;stroke:#40A87B;stroke-width:3.48;stroke-miterlimit:10;}
	.st66{fill:none;stroke:#375A64;stroke-width:4;stroke-linecap:round;stroke-linejoin:round;}
</style>
<g>
	<g>
		<g>
			<defs>
				<rect id="SVGID_1_" width="1245" height="300"/>
			</defs>
			<clipPath id="SVGID_00000039096207914313476930000003610456697206194109_">
				<use xlink:href="#SVGID_1_"  style="overflow:visible;"/>
			</clipPath>
			<g style="clip-path:url(#SVGID_00000039096207914313476930000003610456697206194109_);">
				<g>
					<path class="st1" d="M1071.9,24.4c-73.6,0-140,16.2-187.3,42.2c-15.4-1.6-30.9-2.4-46.5-2.4c-30.8,0-61.4,3-90.6,9.1
						C705,51.1,646.6,37.4,582.1,37.4c-52.7,0-101.4,9.1-140.7,24.7C387.1,27.2,304.8,5,212.7,5C49,5-3.2,78.5-3.2,165.2
						s57.1,133.6,220.8,133.6c92.1,0,827.4,0.4,854.3,0.9c216.9,4.5,166.8-50.4,166.8-126.6S1215.5,24.4,1071.9,24.4z"/>
					<path class="st2" d="M143,43.7v-7.4c0-0.3,0.1-0.7,0.4-0.9c0.2-0.2,0.6-0.4,0.9-0.4h1.9c0.3,0,0.6-0.1,0.8-0.2s0.4-0.4,0.4-0.7
						c0.6-2.8,1.8-5.6,3.3-8c0.1-0.2,0.2-0.5,0.2-0.8s-0.1-0.5-0.3-0.7l-1.3-1.3c-0.2-0.2-0.4-0.6-0.4-0.9s0.1-0.7,0.4-0.9l5.2-5.3
						c0.2-0.2,0.6-0.4,0.9-0.4c0.4,0,0.7,0.1,0.9,0.4l1.3,1.3c0.2,0.2,0.5,0.3,0.7,0.4s0.6,0,0.8-0.2c2.5-1.5,5.2-2.6,8-3.3
						c0.3-0.1,0.5-0.2,0.7-0.4s0.3-0.5,0.3-0.8v-1.9c0-0.4,0.1-0.7,0.4-0.9c0.2-0.2,0.6-0.4,0.9-0.4h7.4c0.4,0,0.7,0.1,0.9,0.4
						c0.2,0.2,0.4,0.6,0.4,0.9v1.9c0,0.3,0.1,0.5,0.2,0.7s0.4,0.4,0.6,0.4c2.9,0.6,5.6,1.8,8,3.3c0.2,0.1,0.5,0.2,0.8,0.2
						s0.5-0.1,0.7-0.4l1.3-1.3c0.2-0.2,0.6-0.4,0.9-0.4c0.4,0,0.7,0.1,0.9,0.4l5.2,5.3c0.2,0.2,0.4,0.6,0.4,0.9s-0.1,0.7-0.4,0.9
						l-1.3,1.3c-0.2,0.2-0.3,0.5-0.4,0.7c0,0.3,0,0.5,0.2,0.8c1.5,2.5,2.6,5.2,3.3,8c0.1,0.3,0.2,0.5,0.4,0.7s0.5,0.3,0.8,0.3h1.9
						c0.4,0,0.7,0.1,0.9,0.4c0.2,0.2,0.4,0.6,0.4,0.9v7.4c0,0.3-0.1,0.7-0.4,0.9c-0.2,0.2-0.6,0.4-0.9,0.4h-1.9
						c-0.3,0-0.5,0.1-0.8,0.3s-0.4,0.4-0.4,0.7c-0.6,2.8-1.8,5.6-3.3,8c-0.1,0.2-0.2,0.5-0.2,0.8s0.1,0.5,0.3,0.7l1.3,1.3
						c0.2,0.2,0.4,0.6,0.4,0.9s-0.1,0.7-0.4,0.9l-5.2,5.3c-0.2,0.3-0.6,0.4-0.9,0.4c-0.4,0-0.7-0.1-0.9-0.4l-1.3-1.3
						c-0.2-0.2-0.4-0.3-0.7-0.3s-0.6,0-0.8,0.2c-2.5,1.5-5.2,2.7-8,3.3c-0.3,0.1-0.5,0.2-0.7,0.4s-0.3,0.5-0.3,0.8v1.9
						c0,0.3-0.1,0.7-0.4,0.9c-0.2,0.2-0.6,0.4-0.9,0.4h-7.4c-0.4,0-0.7-0.1-0.9-0.4s-0.4-0.6-0.4-0.9V67c0-0.3-0.1-0.5-0.3-0.8
						s-0.4-0.4-0.7-0.4c-2.8-0.7-5.6-1.8-8-3.3c-0.2-0.2-0.5-0.2-0.8-0.2s-0.5,0.2-0.7,0.3l-1.3,1.3c-0.2,0.3-0.6,0.4-0.9,0.4
						c-0.4,0-0.7-0.1-0.9-0.4l-5.2-5.3c-0.2-0.2-0.4-0.6-0.4-0.9s0.1-0.7,0.4-0.9l1.3-1.3c0.2-0.2,0.3-0.5,0.4-0.7
						c0-0.3,0-0.6-0.2-0.8c-1.5-2.5-2.7-5.2-3.3-8c-0.1-0.3-0.2-0.5-0.4-0.7S146.3,45,146,45h-1.9c-0.4,0-0.7-0.1-0.9-0.4
						C143.2,44.3,143,44,143,43.7L143,43.7z M173.3,60.9c4.1,0,8.2-1.2,11.6-3.5s6.1-5.6,7.7-9.4c1.6-3.8,2-8,1.2-12.1
						s-2.8-7.8-5.7-10.7s-6.7-4.9-10.7-5.7c-4.1-0.8-8.3-0.4-12.1,1.2s-7.1,4.3-9.4,7.7c-2.3,3.5-3.5,7.5-3.5,11.6
						c0,2.8,0.5,5.5,1.6,8s2.6,4.8,4.5,6.8s4.3,3.5,6.8,4.5C167.8,60.4,170.5,60.9,173.3,60.9L173.3,60.9z"/>
					<path class="st3" d="M108.8,68.8v-5.1c0-0.1,0-0.2,0.1-0.3c0-0.1,0.1-0.2,0.2-0.3s0.2-0.2,0.3-0.2c0.1,0,0.2-0.1,0.3-0.1h1.3
						c0.2,0,0.4-0.1,0.5-0.2c0.2-0.1,0.2-0.3,0.3-0.5c0.4-1.9,1.2-3.8,2.3-5.5c0.1-0.2,0.2-0.3,0.1-0.5c0-0.2-0.1-0.4-0.2-0.5
						l-0.9-0.9c-0.1-0.1-0.2-0.2-0.2-0.3s-0.1-0.2-0.1-0.3s0-0.2,0.1-0.3s0.1-0.2,0.2-0.3l3.6-3.6c0.2-0.2,0.4-0.3,0.6-0.3
						s0.5,0.1,0.6,0.3l0.9,0.9c0.1,0.1,0.3,0.2,0.5,0.2s0.4,0,0.5-0.1c1.7-1,3.5-1.8,5.5-2.3c0.2,0,0.3-0.1,0.5-0.3
						c0.1-0.2,0.2-0.3,0.2-0.5v-1.4c0-0.2,0.1-0.5,0.3-0.6c0.2-0.2,0.4-0.3,0.6-0.3h5.1c0.2,0,0.5,0.1,0.6,0.3s0.3,0.4,0.3,0.6v1.3
						c0,0.2,0.1,0.4,0.2,0.5s0.3,0.2,0.5,0.3c1.9,0.4,3.8,1.2,5.5,2.2c0.2,0.1,0.4,0.2,0.5,0.1c0.2,0,0.4-0.1,0.5-0.2l0.9-0.9
						c0.2-0.2,0.4-0.3,0.6-0.3s0.5,0.1,0.6,0.3l3.6,3.6c0.1,0.1,0.1,0.2,0.2,0.3c0,0.1,0.1,0.2,0.1,0.3s0,0.2-0.1,0.3
						c0,0.1-0.1,0.2-0.2,0.3l-1,0.9c-0.1,0.1-0.2,0.3-0.2,0.5s0,0.4,0.1,0.5c1.1,1.7,1.8,3.5,2.2,5.5c0,0.2,0.1,0.3,0.3,0.5
						c0.1,0.1,0.3,0.2,0.5,0.2h1.3c0.1,0,0.2,0,0.3,0.1c0.1,0,0.2,0.1,0.3,0.2c0.1,0.1,0.1,0.2,0.2,0.3c0,0.1,0.1,0.2,0.1,0.3v5.1
						c0,0.1,0,0.2-0.1,0.3c0,0.1-0.1,0.2-0.2,0.3s-0.2,0.2-0.3,0.2s-0.2,0.1-0.3,0.1h-1.3c-0.2,0-0.4,0.1-0.5,0.2s-0.2,0.3-0.3,0.5
						c-0.4,1.9-1.2,3.8-2.2,5.5c-0.1,0.2-0.1,0.3-0.1,0.5s0.1,0.4,0.2,0.5l0.9,0.9c0.2,0.2,0.3,0.4,0.3,0.6s-0.1,0.5-0.3,0.6
						l-3.6,3.6c-0.2,0.2-0.4,0.3-0.6,0.3c-0.2,0-0.5-0.1-0.6-0.3l-0.9-0.9c-0.1-0.1-0.3-0.2-0.5-0.2s-0.4,0-0.5,0.1
						c-1.7,1.1-3.5,1.8-5.5,2.2c-0.2,0-0.4,0.1-0.5,0.3c-0.1,0.2-0.2,0.3-0.2,0.5V86c0,0.2-0.1,0.5-0.3,0.6s-0.4,0.3-0.6,0.3h-5.1
						c-0.2,0-0.5-0.1-0.6-0.3c-0.2-0.2-0.3-0.4-0.3-0.6v-1.3c0-0.2-0.1-0.4-0.2-0.5c-0.1-0.2-0.3-0.2-0.5-0.3
						c-1.9-0.4-3.8-1.2-5.5-2.2c-0.2-0.1-0.3-0.2-0.5-0.1c-0.2,0-0.4,0.1-0.5,0.2l-0.9,0.9c-0.2,0.2-0.4,0.3-0.6,0.3
						s-0.5-0.1-0.6-0.3l-3.5-3.6c-0.2-0.2-0.3-0.4-0.3-0.6s0.1-0.5,0.3-0.6L114,77c0.1-0.1,0.2-0.3,0.2-0.5s0-0.4-0.1-0.5
						c-1.1-1.7-1.8-3.5-2.3-5.5c0-0.2-0.1-0.3-0.3-0.5c-0.2-0.1-0.3-0.2-0.5-0.2h-1.3c-0.1,0-0.2,0-0.3-0.1c-0.1,0-0.2-0.1-0.3-0.2
						c-0.1-0.1-0.2-0.2-0.2-0.3S108.8,69,108.8,68.8z M129.4,79.8c2.7,0,5.3-0.8,7.5-2.3s3.9-3.6,5-6.1c1-2.5,1.3-5.2,0.8-7.8
						c-0.5-2.6-1.8-5-3.7-6.9s-4.3-3.2-6.9-3.7c-2.6-0.5-5.3-0.3-7.8,0.8c-2.5,1-4.6,2.8-6.1,5s-2.3,4.8-2.3,7.5
						c0,1.8,0.3,3.5,1,5.2c0.7,1.6,1.7,3.1,2.9,4.4c1.2,1.2,2.7,2.2,4.4,2.9C125.9,79.4,127.7,79.8,129.4,79.8L129.4,79.8z"/>
					<path class="st4" d="M284,49c0,0.3,0.1,0.6,0.3,0.9c0.2,0.3,0.4,0.5,0.7,0.6s0.6,0.2,0.9,0.1c0.3-0.1,0.6-0.2,0.8-0.4
						c0.2-0.2,0.4-0.5,0.4-0.8c0.1-0.3,0-0.6-0.1-0.9s-0.3-0.5-0.6-0.7c-0.3-0.2-0.6-0.3-0.9-0.3c-0.4,0-0.8,0.2-1.1,0.5
						C284.1,48.2,284,48.5,284,49L284,49z"/>
					<path class="st4" d="M241.6,44.7c1.4,0,2.5-1.1,2.5-2.5s-1.1-2.5-2.5-2.5s-2.5,1.1-2.5,2.5S240.2,44.7,241.6,44.7z"/>
					<path class="st5" d="M323.8,64.3h4.1c0.3,0,0.5-0.2,0.5-0.5v-4.1c0-0.3-0.2-0.5-0.5-0.5h-4.1c-0.3,0-0.5,0.2-0.5,0.5v4.1
						C323.3,64.1,323.5,64.3,323.8,64.3z"/>
					<path class="st5" d="M317,64.3h4.1c0.3,0,0.5-0.2,0.5-0.5v-4.1c0-0.3-0.2-0.5-0.5-0.5H317c-0.3,0-0.5,0.2-0.5,0.5v4.1
						C316.5,64.1,316.7,64.3,317,64.3z"/>
					<path class="st5" d="M310.1,64.3h4.1c0.3,0,0.5-0.2,0.5-0.5v-4.1c0-0.3-0.2-0.5-0.5-0.5h-4.1c-0.3,0-0.5,0.2-0.5,0.5v4.1
						C309.7,64.1,309.9,64.3,310.1,64.3z"/>
					<path class="st6" d="M799,0h41.1c1.3,0,2.5,0.5,3.4,1.4s1.4,2.1,1.4,3.4v9.7c0,1.2-0.4,2.3-1.2,3.1c-0.8,0.9-1.8,1.4-3,1.6
						c-0.2,0-0.3,0.1-0.4,0.2s-0.2,0.3-0.2,0.5v5.3c0,0.1,0,0.1-0.1,0.2c0,0-0.1,0.1-0.2,0.1c-0.1,0-0.1,0-0.2,0s-0.1-0.1-0.2-0.1
						l-4.2-5.9c-0.1-0.1-0.2-0.2-0.2-0.2s-0.2-0.1-0.3-0.1H799c-1.3,0-2.5-0.5-3.4-1.4s-1.4-2.1-1.4-3.4V4.8c0-1.3,0.5-2.5,1.4-3.4
						S797.7,0,799,0L799,0z"/>
					<path class="st6" d="M743.6,52.1c0,0.4,0.1,0.8,0.3,1.1s0.5,0.6,0.9,0.7c0.3,0.2,0.7,0.2,1.1,0.1c0.4-0.1,0.7-0.3,1-0.5
						s0.5-0.6,0.5-1c0.1-0.4,0-0.8-0.1-1.1c-0.2-0.3-0.4-0.7-0.7-0.9s-0.7-0.3-1.1-0.3c-0.2,0-0.5,0-0.7,0.2
						c-0.2,0.1-0.5,0.2-0.6,0.4c-0.2,0.2-0.3,0.4-0.4,0.6C743.6,51.6,743.6,51.9,743.6,52.1L743.6,52.1z"/>
					<path class="st6" d="M733.8,52.1c0,0.4,0.1,0.8,0.3,1.1s0.5,0.6,0.9,0.7c0.3,0.2,0.7,0.2,1.1,0.1c0.4-0.1,0.7-0.3,1-0.5
						s0.5-0.6,0.5-1c0.1-0.4,0-0.8-0.1-1.1c-0.2-0.3-0.4-0.7-0.7-0.9s-0.7-0.3-1.1-0.3c-0.2,0-0.5,0-0.7,0.2
						c-0.2,0.1-0.5,0.2-0.6,0.4c-0.2,0.2-0.3,0.4-0.4,0.6C733.9,51.6,733.8,51.9,733.8,52.1L733.8,52.1z"/>
					<path class="st6" d="M724.1,52.1c0,0.4,0.1,0.8,0.3,1.1s0.5,0.6,0.9,0.7c0.3,0.2,0.7,0.2,1.1,0.1c0.4-0.1,0.7-0.3,1-0.5
						s0.5-0.6,0.5-1c0.1-0.4,0-0.8-0.1-1.1c-0.2-0.3-0.4-0.7-0.7-0.9s-0.7-0.3-1.1-0.3c-0.2,0-0.5,0-0.7,0.2
						c-0.2,0.1-0.5,0.2-0.6,0.4c-0.2,0.2-0.3,0.4-0.4,0.6C724.2,51.6,724.1,51.9,724.1,52.1z"/>
					<path class="st6" d="M714.4,52.1c0,0.4,0.1,0.8,0.3,1.1s0.5,0.6,0.9,0.7c0.3,0.2,0.7,0.2,1.1,0.1c0.4-0.1,0.7-0.3,1-0.5
						s0.5-0.6,0.5-1c0.1-0.4,0-0.8-0.1-1.1c-0.2-0.3-0.4-0.7-0.7-0.9s-0.7-0.3-1.1-0.3c-0.2,0-0.5,0-0.7,0.2
						c-0.2,0.1-0.5,0.2-0.6,0.4c-0.2,0.2-0.3,0.4-0.4,0.6C714.4,51.6,714.4,51.9,714.4,52.1L714.4,52.1z"/>
					<path class="st6" d="M704.7,52.1c0,0.4,0.1,0.8,0.3,1.1s0.5,0.6,0.9,0.7c0.3,0.2,0.7,0.2,1.1,0.1c0.4-0.1,0.7-0.3,1-0.5
						s0.5-0.6,0.5-1c0.1-0.4,0-0.8-0.1-1.1c-0.2-0.3-0.4-0.7-0.7-0.9s-0.7-0.3-1.1-0.3c-0.3,0-0.5,0-0.7,0.2
						c-0.2,0.1-0.5,0.2-0.6,0.4c-0.2,0.2-0.3,0.4-0.4,0.6C704.7,51.6,704.7,51.9,704.7,52.1z"/>
					<path class="st6" d="M1037.7,53.3h-41.1c-1.3,0-2.5,0.5-3.4,1.4s-1.4,2.1-1.4,3.4v9.7c0,1.2,0.4,2.3,1.2,3.2s1.8,1.4,3,1.6
						c0.2,0,0.3,0.1,0.4,0.2s0.2,0.3,0.2,0.5v5.3c0,0.1,0,0.1,0.1,0.2c0,0.1,0.1,0.1,0.2,0.1c0.1,0,0.1,0,0.2,0
						c0.1,0,0.1-0.1,0.2-0.1l4.2-5.8c0.1-0.1,0.2-0.2,0.2-0.2c0.1-0.1,0.2-0.1,0.3-0.1h35.8c1.3,0,2.5-0.5,3.4-1.4s1.4-2.1,1.4-3.4
						v-9.7c0-1.3-0.5-2.5-1.4-3.4C1040.2,53.8,1039,53.3,1037.7,53.3z"/>
					<path class="st6" d="M1002.9,62.9c0,0.3-0.1,0.6-0.3,0.9s-0.4,0.5-0.7,0.6s-0.6,0.2-0.9,0.1c-0.3-0.1-0.6-0.2-0.8-0.4
						s-0.4-0.5-0.4-0.8s0-0.6,0.1-0.9c0.1-0.3,0.3-0.5,0.6-0.7s0.6-0.3,0.9-0.3c0.4,0,0.8,0.2,1.1,0.5
						C1002.7,62.1,1002.9,62.5,1002.9,62.9z"/>
					<path class="st6" d="M1010.8,62.9c0,0.3-0.1,0.6-0.3,0.9s-0.4,0.5-0.7,0.6s-0.6,0.2-0.9,0.1c-0.3-0.1-0.6-0.2-0.8-0.4
						c-0.2-0.2-0.4-0.5-0.4-0.8c-0.1-0.3,0-0.6,0.1-0.9c0.1-0.3,0.3-0.5,0.6-0.7s0.6-0.3,0.9-0.3c0.4,0,0.8,0.2,1.1,0.5
						C1010.6,62.1,1010.8,62.5,1010.8,62.9z"/>
					<path class="st6" d="M1018.7,62.9c0,0.3-0.1,0.6-0.3,0.9s-0.4,0.5-0.7,0.6s-0.6,0.2-0.9,0.1c-0.3-0.1-0.6-0.2-0.8-0.4
						c-0.2-0.2-0.4-0.5-0.4-0.8c-0.1-0.3,0-0.6,0.1-0.9c0.1-0.3,0.3-0.5,0.6-0.7s0.6-0.3,0.9-0.3c0.4,0,0.8,0.2,1.1,0.5
						C1018.5,62.1,1018.7,62.5,1018.7,62.9z"/>
					<path class="st6" d="M1026.6,62.9c0,0.3-0.1,0.6-0.3,0.9c-0.2,0.3-0.4,0.5-0.7,0.6c-0.3,0.1-0.6,0.2-0.9,0.1s-0.6-0.2-0.8-0.4
						c-0.2-0.2-0.4-0.5-0.4-0.8s0-0.6,0.1-0.9c0.1-0.3,0.3-0.5,0.6-0.7s0.6-0.3,0.9-0.3c0.4,0,0.8,0.2,1.1,0.5
						C1026.5,62.1,1026.6,62.5,1026.6,62.9z"/>
					<path class="st6" d="M1034.5,62.9c0,0.3-0.1,0.6-0.3,0.9c-0.2,0.3-0.4,0.5-0.7,0.6c-0.3,0.1-0.6,0.2-0.9,0.1s-0.6-0.2-0.8-0.4
						c-0.2-0.2-0.4-0.5-0.4-0.8c-0.1-0.3,0-0.6,0.1-0.9s0.3-0.5,0.6-0.7c0.3-0.2,0.6-0.3,0.9-0.3c0.4,0,0.8,0.2,1.1,0.5
						C1034.4,62.1,1034.5,62.5,1034.5,62.9z"/>
					<path class="st7" d="M376.8,31.3H447c1.9,0,3.6-0.7,5-2s2-3.1,2-5l0,0c0-1.9-0.7-3.6-2-5c-1.3-1.3-3.1-2-5-2h-70.1
						c-1.9,0-3.6,0.7-5,2s-2,3.1-2,5s0.7,3.6,2,5C373.2,30.5,375,31.3,376.8,31.3z"/>
					<path class="st8" d="M377.9,23.8c0,0.7,0.2,1.5,0.6,2.1s1,1.1,1.7,1.4s1.4,0.4,2.1,0.2c0.7-0.1,1.4-0.5,1.9-1s0.9-1.2,1-1.9
						c0.1-0.7,0.1-1.5-0.2-2.1s-0.8-1.3-1.4-1.7c-0.6-0.4-1.3-0.6-2.1-0.6c-1,0-1.9,0.4-2.6,1.1C378.2,21.9,377.9,22.8,377.9,23.8
						L377.9,23.8z"/>
					<path class="st9" d="M378.9,26.5l-2.1,2.1"/>
					<path class="st10" d="M412.2,73.1V53.6c3.8,0,7.6,1.1,10.8,3.3c3.2,2.1,5.7,5.1,7.2,8.7c1.5,3.5,1.9,7.4,1.2,11.2
						c-0.7,3.8-2.5,7.2-5.2,10s-6.1,4.6-9.9,5.4s-7.7,0.5-11.2-0.9s-6.6-3.8-8.8-7c-2.2-3.2-3.4-6.9-3.5-10.7L412.2,73.1z"/>
					<path class="st11" d="M407.2,67.7L388,68.1c0-5,2-10.3,5.4-14c3.6-3.6,8.4-5.7,13.4-5.9L407.2,67.7z"/>
					<path class="st12" d="M1068.8,55.8c2.2,0.3,4.3,0.8,6.3,1.7l4.7-3.9l8,6.1l-2.5,5.5c1.3,1.7,2.4,3.6,3.3,5.7l6,0.5l1.3,9.9
						l-5.7,2.1c-0.3,2.2-0.8,4.3-1.7,6.3l3.9,4.6l-6.1,8l-5.5-2.5c-1.7,1.3-3.6,2.4-5.7,3.3l-0.5,6l-9.9,1.3l-2.1-5.7
						c-2.2-0.3-4.3-0.8-6.3-1.7l-4.7,3.9l-8-6.1l2.5-5.5c-1.3-1.7-2.4-3.6-3.3-5.7l-6-0.5l-1.3-9.9l5.7-2.1c0.3-2.2,0.8-4.3,1.7-6.3
						l-3.9-4.7l6.1-8l5.5,2.5c1.7-1.3,3.6-2.5,5.7-3.3l0.5-6l9.9-1.3L1068.8,55.8L1068.8,55.8z M1065.9,69.5
						c-2.2,0.1-4.4,0.8-6.1,2.2s-3.1,3.2-3.8,5.3c-0.7,2.1-0.7,4.4,0,6.5s2,4,3.8,5.3s3.9,2.1,6.1,2.2s4.4-0.5,6.3-1.8
						c1.9-1.2,3.3-3,4.1-5.1s1-4.3,0.5-6.5c-0.6-2.4-2-4.5-3.9-6C1070.8,70.2,1068.3,69.4,1065.9,69.5L1065.9,69.5z"/>
					<path class="st12" d="M476.4,225.8c2.2,0.3,4.3,0.8,6.4,1.7l4.6-3.9l8,6.1l-2.5,5.5c1.3,1.7,2.5,3.6,3.3,5.6l6,0.5l1.4,9.9
						l-5.6,2.1c-0.3,2.2-0.8,4.3-1.7,6.4l3.9,4.6l-6.1,8l-5.5-2.5c-1.7,1.3-3.6,2.5-5.6,3.3l-0.5,6l-9.9,1.4l-2.1-5.6
						c-2.2-0.3-4.3-0.8-6.4-1.7l-4.6,3.9l-8-6.1l2.5-5.5c-1.3-1.7-2.5-3.6-3.3-5.6l-6-0.5l-1.4-9.9l5.6-2.1c0.3-2.2,0.8-4.3,1.7-6.3
						l-3.9-4.6l6.1-8l5.5,2.5c1.7-1.3,3.6-2.4,5.6-3.3l0.5-6l9.9-1.4L476.4,225.8L476.4,225.8z M473.4,239.5
						c-2.2,0.1-4.4,0.8-6.1,2.2c-1.8,1.3-3.1,3.2-3.8,5.3c-0.7,2.1-0.7,4.4,0,6.5s2,4,3.8,5.3s3.9,2.1,6.1,2.2s4.4-0.5,6.3-1.8
						c1.9-1.2,3.3-3,4.1-5.1c0.8-2.1,1-4.3,0.5-6.5c-0.6-2.4-2-4.5-4-6C478.3,240.2,475.9,239.4,473.4,239.5L473.4,239.5z"/>
					<path class="st13" d="M1022,27.9c1.5,0.2,3,0.6,4.3,1.1l3.2-2.7l5.5,4.2l-1.7,3.8c0.9,1.2,1.7,2.5,2.3,3.9l4.1,0.4l0.9,6.8
						l-3.9,1.5c-0.2,1.5-0.6,3-1.2,4.3l2.7,3.2l-4.2,5.5l-3.8-1.7c-1.2,0.9-2.5,1.7-3.9,2.3l-0.4,4.1l-6.8,0.9l-1.5-3.9
						c-1.5-0.2-2.9-0.6-4.3-1.1l-3.2,2.7l-5.5-4.2l1.7-3.8c-0.9-1.2-1.7-2.5-2.2-3.9l-4.1-0.4l-0.9-6.8l3.9-1.5
						c0.2-1.5,0.6-3,1.1-4.3l-2.7-3.2l4.2-5.5l3.8,1.7c1.2-0.9,2.5-1.7,3.9-2.3l0.4-4.1l6.8-0.9L1022,27.9L1022,27.9z M1020,37.3
						c-1.5,0-3,0.6-4.2,1.5s-2.1,2.2-2.6,3.7s-0.5,3,0,4.5s1.4,2.7,2.6,3.7c1.2,0.9,2.7,1.5,4.2,1.5c1.5,0.1,3-0.4,4.3-1.2
						s2.3-2,2.8-3.5c0.6-1.4,0.7-3,0.3-4.5c-0.4-1.7-1.4-3.1-2.7-4.1C1023.4,37.8,1021.7,37.3,1020,37.3L1020,37.3z"/>
					<path class="st14" d="M1170.8,111.5c0.7-0.2,1.5-0.2,2.2-0.1c2,0.2,4,1.1,5.4,2.5c1,1,1.8,2.2,2.2,3.5c0.5,1.6,0.6,3.2,0.3,4.8
						c-0.2,0.9-0.5,1.7-0.9,2.5s-1,1.6-1.7,2.2c-1.4,1.4-3.2,2.2-5.1,2.5c-1.9,0.3-3.9-0.1-5.6-1.1c-0.8-0.4-1.6-1-2.2-1.7
						c-0.6-0.6-1.1-1.3-1.5-2.1c-0.8-1.4-1.1-3.1-1-4.7c0.1-1.7,0.7-3.4,1.7-4.8s2.4-2.5,4-3.1
						C1169.3,111.7,1170,111.5,1170.8,111.5c-0.7,0.2-1.4,0.4-2.1,0.7c-1.8,0.8-3.3,2.1-4.3,3.9c-0.7,1.3-1.1,2.7-1.1,4.2
						s0.3,2.9,1,4.2c0.4,0.7,0.9,1.4,1.5,2s1.3,1.2,2.1,1.6c1.6,0.9,3.5,1.2,5.3,1s3.5-1.1,4.8-2.4c0.6-0.6,1.2-1.3,1.6-2.1
						c0.4-0.7,0.7-1.5,0.9-2.3c0.3-1.5,0.2-3.1-0.2-4.6c-0.4-1.3-1.2-2.5-2.1-3.4c-1.4-1.4-3.2-2.3-5.2-2.6
						C1172.2,111.5,1171.5,111.5,1170.8,111.5L1170.8,111.5z"/>
					<path class="st14" d="M1174.2,100.1c0,0,0-0.1-0.1-0.3c-0.1-0.2-0.2-0.5-0.3-0.9c-0.3-0.8-0.8-2-1.4-3.5l0.1,0.1l-8.2,1.2
						l0.1-0.1c-0.1,1.5-0.3,3.2-0.4,5v0.1h-0.1c-1.7,0.7-3.2,1.6-4.6,2.7l-0.1,0.1h-0.1l-4.6-2.1l0.2-0.1l-5,6.6v-0.2l3.2,3.8
						l0.1,0.1l-0.1,0.1c-0.7,1.7-1.1,3.4-1.4,5.2v0.1h-0.1l-4.7,1.8l0.2-0.2c0.3,2.6,0.7,5.4,1.1,8.2l-0.2-0.2l5,0.4h0.2l0.1,0.1
						c0.7,1.6,1.6,3.2,2.7,4.6l0.1,0.1l-0.1,0.1c-0.7,1.4-1.4,3-2.1,4.6l-0.1-0.3l6.6,5h-0.3l3.8-3.2l0.1-0.1l0.1,0.1
						c1.7,0.7,3.4,1.1,5.2,1.4l0,0c0.1,0.1-0.2-0.2,0.2,0.2l0,0v0.1l0.1,0.1l0.1,0.3l0.2,0.6l0.4,1.2c0.3,0.8,0.6,1.6,0.9,2.3
						l-0.3-0.2l8.2-1.1l-0.2,0.2c0.2-1.7,0.3-3.4,0.4-5V139l0.1-0.1c1.7-0.7,3.2-1.6,4.6-2.7l0.1-0.1l0.1,0.1l4.6,2.1l-0.3,0.1
						l5-6.6v0.3l-3.2-3.9l-0.1-0.1l0.1-0.1c0.7-1.7,1.2-3.4,1.4-5.2v-0.1l0.1-0.1l4.7-1.8l-0.1,0.2c-0.4-2.9-0.8-5.7-1.1-8.2
						l0.2,0.2l-5-0.4h-0.1v-0.1c-0.7-1.7-1.6-3.2-2.7-4.7l-0.1-0.1v-0.1l2.1-4.6l0.1,0.2l-6.6-5.1h0.1l-3.9,3.2l0,0l0,0
						c-1.3-0.5-2.6-0.9-3.9-1.2l-1-0.2C1174.4,100,1174.2,100,1174.2,100.1c0.1-0.1,0.2-0.1,0.3-0.1c0.2,0,0.6,0.1,1,0.2
						c1.3,0.2,2.7,0.6,3.9,1.1h-0.1l3.8-3.2l0.1-0.1l0.1,0.1l6.6,5l0.1,0.1l-0.1,0.1l-2.1,4.6v-0.2c1.1,1.4,2.1,3,2.8,4.7l-0.2-0.1
						l5,0.4h0.2v0.2c0.4,2.6,0.7,5.3,1.1,8.2v0.2l-0.2,0.1l-4.7,1.8l0.1-0.2c-0.2,1.8-0.7,3.6-1.4,5.3v-0.2l3.2,3.8l0.1,0.1
						l-0.1,0.1c-1.6,2.1-3.3,4.4-5,6.6l-0.1,0.2l-0.2-0.1l-4.6-2.1h0.2c-1.4,1.1-3,2.1-4.7,2.8l0.2-0.2c-0.2,1.6-0.3,3.3-0.4,5v0.2
						h-0.2l-8.2,1.1h-0.2l-0.1-0.2l-0.9-2.4l-0.4-1.2l-0.2-0.6l-0.1-0.3l-0.1-0.1v-0.1l0,0c0.4,0.3,0.1,0.1,0.2,0.2
						c-1.8-0.2-3.6-0.7-5.3-1.4h0.3l-3.8,3.2l-0.2,0.1l-0.2-0.1l-6.6-5l-0.2-0.1l0.1-0.2l2.1-4.6v0.2c-1.1-1.4-2.1-3.1-2.8-4.7
						l0.2,0.1l-5-0.4h-0.2v-0.2c-0.4-2.9-0.8-5.7-1.1-8.2v-0.2l0.2-0.1l4.7-1.8l-0.1,0.2c0.2-1.8,0.7-3.6,1.4-5.3v0.2l-3.2-3.8
						l-0.1-0.1l0.1-0.1l5.1-6.6l0.1-0.1l0.1,0.1l4.6,2.1h-0.2c1.4-1.1,3-2,4.7-2.7l-0.1,0.1c0.2-1.8,0.3-3.5,0.5-5v-0.1h0.1l8.2-1.1
						h0.1v0.1c0.6,1.5,1,2.7,1.3,3.5l0.3,0.9C1174.1,99.8,1174.2,99.9,1174.2,100.1z"/>
					<path class="st14" d="M769.9,256c0.7-0.2,1.5-0.2,2.2-0.1c2,0.2,4,1.1,5.4,2.5c1,1,1.8,2.2,2.2,3.5c0.5,1.5,0.6,3.2,0.3,4.8
						c-0.4,1.8-1.3,3.4-2.6,4.6c-1.4,1.4-3.2,2.2-5.1,2.5s-3.9-0.1-5.6-1c-0.8-0.4-1.5-1-2.2-1.6c-0.6-0.6-1.1-1.3-1.5-2.1
						c-0.7-1.4-1.1-2.9-1-4.4c0-1.5,0.5-3,1.2-4.3c1-1.8,2.6-3.1,4.5-3.9C768.5,256.2,769.2,256.1,769.9,256c0,0.1-0.8,0.1-2.1,0.7
						c-1.8,0.8-3.3,2.1-4.3,3.9c-0.7,1.3-1.1,2.7-1.1,4.1c0,1.5,0.3,2.9,1,4.2c0.4,0.7,0.9,1.4,1.5,2s1.3,1.2,2.1,1.6
						c1.6,0.9,3.5,1.2,5.3,1s3.5-1.1,4.8-2.4c0.6-0.6,1.2-1.3,1.6-2.1c0.4-0.7,0.7-1.5,0.9-2.3c0.3-1.5,0.3-3.1-0.2-4.6
						c-0.4-1.3-1.2-2.5-2.1-3.4c-1.4-1.4-3.2-2.3-5.2-2.6C770.7,255.9,769.9,256.1,769.9,256z"/>
					<path class="st14" d="M773.3,244.6l-0.1-0.3l-0.3-0.9l-1.4-3.5l0.1,0.1l-8.2,1.2l0.1-0.1c-0.1,1.5-0.3,3.2-0.4,5v0.1H763
						c-1.7,0.7-3.2,1.6-4.6,2.7l-0.1,0.1h-0.1l-4.6-2.1l0.2-0.1l-5,6.6v-0.2c1,1.2,2.1,2.5,3.2,3.8l0.1,0.1v0.1
						c-0.7,1.7-1.1,3.4-1.4,5.2v0.1h-0.1l-4.7,1.8l0.2-0.2c0.3,2.6,0.7,5.4,1.1,8.2l-0.2-0.2l5,0.4h0.2l0.1,0.1
						c0.7,1.7,1.6,3.2,2.7,4.7l0.1,0.1l-0.1,0.1l-2.1,4.6l-0.1-0.3l6.6,5h-0.3l3.8-3.2l0.1-0.1l0.1,0.1c1.7,0.7,3.4,1.1,5.2,1.4l0,0
						c0.1,0.1-0.2-0.2,0.2,0.2l0,0v0.1v0.1l0.1,0.3l0.2,0.6l0.4,1.2c0.3,0.8,0.6,1.6,0.9,2.3l-0.3-0.2l8.2-1.1l-0.2,0.2
						c0.2-1.7,0.3-3.4,0.4-5v-0.2l0.1-0.1c1.7-0.7,3.2-1.6,4.6-2.7l0.1-0.1l0.1,0.1l4.6,2.1l-0.3,0.1l5-6.6v0.3l-3.2-3.9l-0.1-0.1
						l0.1-0.1c0.7-1.7,1.2-3.4,1.4-5.2v-0.1h0.1l4.7-1.8l-0.1,0.2c-0.4-2.9-0.8-5.6-1.1-8.2l0.2,0.2l-5-0.5h-0.1V257
						c-0.7-1.7-1.6-3.2-2.7-4.6l-0.1-0.1v-0.1l2.1-4.6v0.2l-6.6-5.1h0.1l-3.9,3.2l0,0l0,0c-1.3-0.5-2.6-0.9-3.9-1.2l-1-0.2
						C773.4,244.6,773.3,244.6,773.3,244.6c0.1,0,0.2,0,0.3,0c0.2,0,0.6,0.1,1,0.1c1.3,0.2,2.7,0.6,3.9,1.1h-0.1l3.8-3.2l0.1-0.1
						l0.1,0.1l6.6,5l0.1,0.1v0.1l-2.1,4.6v-0.2c1.1,1.4,2.1,3,2.8,4.7l-0.2-0.1l5,0.4h0.2v0.2c0.4,2.6,0.7,5.3,1.1,8.2v0.2l-0.2,0.1
						l-4.7,1.8l0.1-0.2c-0.2,1.8-0.7,3.6-1.4,5.3v-0.2l3.2,3.9l0.1,0.1l-0.1,0.1c-1.6,2.2-3.3,4.4-5,6.6l-0.1,0.2l-0.2-0.1l-4.6-2.1
						h0.2c-1.5,1.1-3,2.1-4.7,2.8l0.2-0.2c-0.2,1.6-0.3,3.3-0.4,5v0.2h-0.2l-8.2,1.1h-0.2l-0.1-0.2l-0.8-2.2l-0.4-1.2l-0.2-0.6
						l-0.1-0.3l-0.1-0.1v-0.1l0,0l0.2,0.2c-1.8-0.2-3.6-0.7-5.3-1.4h0.3l-3.8,3.2l-0.2,0.1l-0.2-0.1l-6.7-5l-0.2-0.1l0.1-0.2
						c0.7-1.6,1.4-3.1,2.1-4.6v0.2c-1.1-1.5-2-3-2.8-4.7l0.2,0.1l-5-0.4h-0.2v-0.2c-0.4-2.9-0.8-5.6-1.1-8.2V264l0.2-0.1l4.7-1.8
						l-0.1,0.2c0.2-1.8,0.7-3.6,1.4-5.3v0.2l-3.2-3.9l-0.1-0.1l0.1-0.1l5-6.6l0.1-0.1l0.1,0.1l4.6,2.1H758c1.5-1.1,3-2,4.7-2.7
						l-0.1,0.1c0.2-1.8,0.3-3.5,0.5-5l0,0h0.1l8.2-1.1h0.1v0.1c0.5,1.5,1,2.7,1.3,3.5l0.3,0.9C773.2,244.4,773.3,244.5,773.3,244.6
						L773.3,244.6z"/>
					<path class="st15" d="M1021.6,285.7h84.9c7.4,0,13.4-6,13.4-13.4v-189c0-7.4-6-13.4-13.4-13.4h-84.9c-7.4,0-13.4,6-13.4,13.4
						v189C1008.2,279.7,1014.2,285.7,1021.6,285.7z"/>
					<path class="st5" d="M1022,282.6h84.1c6.5,0,11.7-5.2,11.7-11.7V83.5c0-6.5-5.2-11.7-11.7-11.7H1022c-6.5,0-11.7,5.2-11.7,11.7
						v187.4C1010.3,277.3,1015.5,282.6,1022,282.6z"/>
					<path class="st16" d="M1015,83.1v187.2c0,2.1,0.8,4.1,2.3,5.6s3.5,2.3,5.6,2.3h82.2c2.1,0,4.1-0.8,5.6-2.3s2.3-3.5,2.3-5.6
						V83.1c0-2.1-0.8-4.1-2.3-5.6s-3.5-2.3-5.6-2.3h-13.7c-0.4,0-0.7,0.1-1.1,0.3c-0.3,0.2-0.6,0.5-0.7,0.8l-1.5,2.9
						c-0.3,0.7-0.8,1.2-1.4,1.6s-1.3,0.6-2.1,0.6h-41.2c-0.7,0-1.4-0.2-2.1-0.6s-1.1-0.9-1.4-1.6l-1.4-2.9c-0.2-0.3-0.4-0.6-0.7-0.8
						c-0.3-0.2-0.7-0.3-1.1-0.3H1023c-2.1,0-4.1,0.8-5.6,2.3C1015.8,79,1015,81,1015,83.1L1015,83.1z"/>
					<path class="st16" d="M1046.7,78h33.2c0.4,0,0.7-0.2,1-0.4s0.4-0.6,0.4-1s-0.2-0.7-0.4-1c-0.3-0.3-0.6-0.4-1-0.4h-33.2
						c-0.4,0-0.7,0.2-1,0.4s-0.4,0.6-0.4,1s0.2,0.7,0.4,1C1046,77.8,1046.4,78,1046.7,78z"/>
					<path class="st17" d="M1028.1,271.7h73.9c2.9,0,5.3-2.4,5.3-5.3v-26.1c0-2.9-2.4-5.3-5.3-5.3h-73.9c-2.9,0-5.3,2.4-5.3,5.3
						v26.1C1022.8,269.4,1025.2,271.7,1028.1,271.7z"/>
					<path class="st17" d="M1031.8,181.9h36.7c2.1,0,3.8-1.7,3.8-3.8V160c0-2.1-1.7-3.8-3.8-3.8h-36.7c-2.1,0-3.8,1.7-3.8,3.8v18.1
						C1028,180.2,1029.7,181.9,1031.8,181.9z"/>
					<path class="st18" d="M1023.9,229h75.7c2.5,0,4.5-2,4.5-4.5v-31.9c0-2.5-2-4.5-4.5-4.5h-75.7c-2.5,0-4.5,2-4.5,4.5v31.9
						C1019.4,227,1021.4,229,1023.9,229z"/>
					<path class="st19" d="M1022.8,189.2v32c0,0.6,0.1,1.2,0.3,1.7s0.6,1,1,1.5c0.4,0.4,0.9,0.8,1.5,1s1.1,0.3,1.7,0.3h75.4
						c0.6,0,1.2-0.1,1.7-0.3c0.6-0.2,1-0.6,1.5-1c0.4-0.4,0.8-0.9,1-1.5s0.3-1.1,0.3-1.7v-32c0-1.2-0.5-2.3-1.3-3.2s-2-1.3-3.2-1.3
						h-75.4c-1.2,0-2.3,0.5-3.2,1.3C1023.3,186.9,1022.8,188,1022.8,189.2L1022.8,189.2z"/>
					<path class="st5" d="M1078.1,222.4h22.2c1.7,0,3.1-1.4,3.1-3.1v-22.2c0-1.7-1.4-3.1-3.1-3.1h-22.2c-1.7,0-3.1,1.4-3.1,3.1v22.2
						C1075,221,1076.4,222.4,1078.1,222.4z"/>
					<path class="st20" d="M1051.7,197.6h19.6c0.2,0,0.5-0.1,0.7-0.3s0.3-0.4,0.3-0.7l0,0c0-0.1,0-0.2-0.1-0.4
						c-0.1-0.1-0.1-0.2-0.2-0.3s-0.2-0.2-0.3-0.2c-0.1-0.1-0.2-0.1-0.4-0.1h-19.6c-0.2,0-0.5,0.1-0.7,0.3s-0.3,0.4-0.3,0.7
						c0,0.1,0,0.2,0.1,0.4c0.1,0.1,0.1,0.2,0.2,0.3s0.2,0.2,0.3,0.2C1051.5,197.6,1051.6,197.6,1051.7,197.6z"/>
					<path class="st20" d="M1060.6,201.5h10.7c0.1,0,0.2,0,0.4-0.1s0.2-0.1,0.3-0.2c0.1-0.1,0.2-0.2,0.2-0.3s0.1-0.2,0.1-0.4l0,0
						c0-0.1,0-0.2-0.1-0.4c-0.1-0.1-0.1-0.2-0.2-0.3s-0.2-0.2-0.3-0.2c-0.1-0.1-0.2-0.1-0.4-0.1h-10.7c-0.1,0-0.2,0-0.4,0.1
						s-0.2,0.1-0.3,0.2s-0.2,0.2-0.2,0.3c-0.1,0.1-0.1,0.2-0.1,0.4c0,0.1,0,0.2,0.1,0.4c0.1,0.1,0.1,0.2,0.2,0.3s0.2,0.2,0.3,0.2
						S1060.5,201.5,1060.6,201.5z"/>
					<path class="st20" d="M1027.9,201.5h28.8c0.1,0,0.2,0,0.4-0.1s0.2-0.1,0.3-0.2c0.1-0.1,0.2-0.2,0.2-0.3s0.1-0.2,0.1-0.4
						c0-0.1,0-0.2-0.1-0.4c-0.1-0.1-0.1-0.2-0.2-0.3s-0.2-0.2-0.3-0.2c-0.1-0.1-0.2-0.1-0.4-0.1h-28.8c-0.2,0-0.5,0.1-0.7,0.3
						s-0.3,0.4-0.3,0.7c0,0.2,0.1,0.5,0.3,0.7C1027.4,201.4,1027.7,201.5,1027.9,201.5z"/>
					<path class="st20" d="M1054.8,205.3h16.5c0.1,0,0.2,0,0.4-0.1s0.2-0.1,0.3-0.2c0.1-0.1,0.2-0.2,0.2-0.3s0.1-0.2,0.1-0.4l0,0
						c0-0.3-0.1-0.5-0.3-0.7s-0.4-0.3-0.7-0.3h-16.5c-0.2,0-0.5,0.1-0.7,0.3s-0.3,0.4-0.3,0.7l0,0c0,0.2,0.1,0.5,0.3,0.7
						C1054.3,205.2,1054.6,205.3,1054.8,205.3z"/>
					<path class="st20" d="M1040.8,205.3h10.4c0.2,0,0.5-0.1,0.7-0.3s0.3-0.4,0.3-0.7l0,0c0-0.3-0.1-0.5-0.3-0.7
						c-0.2-0.2-0.4-0.3-0.7-0.3h-10.4c-0.2,0-0.5,0.1-0.7,0.3s-0.3,0.4-0.3,0.7l0,0c0,0.1,0,0.2,0.1,0.4c0.1,0.1,0.1,0.2,0.2,0.3
						s0.2,0.2,0.3,0.2C1040.6,205.3,1040.7,205.3,1040.8,205.3L1040.8,205.3z"/>
					<path class="st20" d="M1027.9,205.3h9.5c0.1,0,0.2,0,0.4-0.1s0.2-0.1,0.3-0.2c0.1-0.1,0.2-0.2,0.2-0.3s0.1-0.2,0.1-0.4
						c0-0.3-0.1-0.5-0.3-0.7s-0.4-0.3-0.7-0.3h-9.5c-0.2,0-0.5,0.1-0.7,0.3s-0.3,0.4-0.3,0.7l0,0c0,0.2,0.1,0.5,0.3,0.7
						C1027.4,205.2,1027.7,205.3,1027.9,205.3z"/>
					<path class="st20" d="M1027.9,209.2h43.4c0.1,0,0.2,0,0.4-0.1s0.2-0.1,0.3-0.2c0.1-0.1,0.2-0.2,0.2-0.3s0.1-0.2,0.1-0.4
						c0-0.3-0.1-0.5-0.3-0.7s-0.4-0.3-0.7-0.3h-43.4c-0.1,0-0.2,0-0.4,0.1s-0.2,0.1-0.3,0.2c-0.1,0.1-0.2,0.2-0.2,0.3
						c-0.1,0.1-0.1,0.2-0.1,0.4l0,0c0,0.2,0.1,0.5,0.3,0.7C1027.4,209.1,1027.7,209.2,1027.9,209.2L1027.9,209.2z"/>
					<path class="st20" d="M1047.4,213h23.9c0.1,0,0.2,0,0.4-0.1s0.2-0.1,0.3-0.2c0.1-0.1,0.2-0.2,0.2-0.3s0.1-0.2,0.1-0.4l0,0
						c0-0.3-0.1-0.5-0.3-0.7s-0.4-0.3-0.7-0.3h-23.9c-0.2,0-0.5,0.1-0.7,0.3s-0.3,0.4-0.3,0.7c0,0.1,0,0.2,0.1,0.4
						c0.1,0.1,0.1,0.2,0.2,0.3s0.2,0.2,0.3,0.2C1047.2,213,1047.3,213,1047.4,213z"/>
					<path class="st20" d="M1027.9,213h15.7c0.1,0,0.2,0,0.4-0.1s0.2-0.1,0.3-0.2c0.1-0.1,0.2-0.2,0.2-0.3s0.1-0.2,0.1-0.4
						c0-0.3-0.1-0.5-0.3-0.7s-0.4-0.3-0.7-0.3h-15.7c-0.1,0-0.2,0-0.4,0.1c-0.1,0.1-0.2,0.1-0.3,0.2c-0.1,0.1-0.2,0.2-0.2,0.3
						c-0.1,0.1-0.1,0.2-0.1,0.4l0,0c0,0.2,0.1,0.5,0.3,0.7C1027.4,212.9,1027.7,213,1027.9,213L1027.9,213z"/>
					<path class="st20" d="M1057.2,216.9h14c0.2,0,0.5-0.1,0.7-0.3s0.3-0.4,0.3-0.7l0,0c0-0.1,0-0.2-0.1-0.4
						c-0.1-0.1-0.1-0.2-0.2-0.3s-0.2-0.2-0.3-0.2c-0.1-0.1-0.2-0.1-0.4-0.1h-14c-0.1,0-0.2,0-0.4,0.1s-0.2,0.1-0.3,0.2
						c-0.1,0.1-0.2,0.2-0.2,0.3s-0.1,0.2-0.1,0.4c0,0.3,0.1,0.5,0.3,0.7C1056.8,216.8,1057,216.9,1057.2,216.9L1057.2,216.9z"/>
					<path class="st20" d="M1039.4,216.9h14c0.1,0,0.2,0,0.4-0.1s0.2-0.1,0.3-0.2c0.1-0.1,0.2-0.2,0.2-0.3c0.1-0.1,0.1-0.2,0.1-0.4
						l0,0c0-0.2-0.1-0.5-0.3-0.7s-0.4-0.3-0.7-0.3h-14c-0.2,0-0.5,0.1-0.7,0.3s-0.3,0.4-0.3,0.7l0,0c0,0.1,0,0.2,0.1,0.4
						c0.1,0.1,0.1,0.2,0.2,0.3s0.2,0.2,0.3,0.2C1039.2,216.8,1039.3,216.9,1039.4,216.9L1039.4,216.9z"/>
					<path class="st20" d="M1027.9,216.9h8.2c0.2,0,0.5-0.1,0.7-0.3s0.3-0.4,0.3-0.7c0-0.1,0-0.2-0.1-0.4c-0.1-0.1-0.1-0.2-0.2-0.3
						s-0.2-0.2-0.3-0.2c-0.1-0.1-0.2-0.1-0.4-0.1h-8.1c-0.2,0-0.5,0.1-0.7,0.3s-0.3,0.4-0.3,0.7l0,0c0,0.2,0.1,0.5,0.3,0.7
						C1027.4,216.8,1027.7,216.9,1027.9,216.9L1027.9,216.9z"/>
					<path class="st20" d="M1051.7,220.7h19.6c0.2,0,0.5-0.1,0.7-0.3s0.3-0.4,0.3-0.7l0,0c0-0.1,0-0.2-0.1-0.4
						c-0.1-0.1-0.1-0.2-0.2-0.3s-0.2-0.2-0.3-0.2c-0.1-0.1-0.2-0.1-0.4-0.1h-19.6c-0.2,0-0.5,0.1-0.7,0.3s-0.3,0.4-0.3,0.7
						c0,0.1,0,0.2,0.1,0.4c0.1,0.1,0.1,0.2,0.2,0.3s0.2,0.2,0.3,0.2C1051.5,220.7,1051.6,220.7,1051.7,220.7z"/>
					<path class="st20" d="M1027.9,197.6h19.6c0.1,0,0.2,0,0.4-0.1s0.2-0.1,0.3-0.2c0.1-0.1,0.2-0.2,0.2-0.3
						c0.1-0.1,0.1-0.2,0.1-0.4s-0.1-0.5-0.3-0.7s-0.4-0.3-0.7-0.3h-19.6c-0.2,0-0.5,0.1-0.7,0.3s-0.3,0.4-0.3,0.7
						c0,0.1,0,0.2,0.1,0.4c0.1,0.1,0.1,0.2,0.2,0.3s0.2,0.2,0.3,0.2C1027.7,197.6,1027.8,197.6,1027.9,197.6z"/>
					<path class="st21" d="M1022.8,189.2v1.4h84.4v-1.4c0-1.2-0.5-2.3-1.3-3.2s-2-1.3-3.2-1.3h-75.4c-1.2,0-2.3,0.5-3.2,1.3
						C1023.3,186.9,1022.8,188,1022.8,189.2L1022.8,189.2z"/>
					<path class="st16" d="M1038.7,187.7c0,0.2,0.1,0.4,0.2,0.6c0.1,0.2,0.3,0.3,0.5,0.4c0.2,0.1,0.4,0.1,0.6,0.1s0.4-0.1,0.5-0.3
						c0.1-0.1,0.2-0.3,0.3-0.5c0-0.2,0-0.4-0.1-0.6c-0.1-0.2-0.2-0.4-0.4-0.5c-0.2-0.1-0.4-0.2-0.6-0.2c-0.3,0-0.5,0.1-0.7,0.3
						S1038.7,187.5,1038.7,187.7L1038.7,187.7z"/>
					<path class="st16" d="M1033.3,187.7c0,0.2,0.1,0.4,0.2,0.6c0.1,0.2,0.3,0.3,0.5,0.4c0.2,0.1,0.4,0.1,0.6,0.1s0.4-0.1,0.5-0.3
						c0.1-0.1,0.2-0.3,0.3-0.5c0-0.2,0-0.4-0.1-0.6c-0.1-0.2-0.2-0.4-0.4-0.5c-0.2-0.1-0.4-0.2-0.6-0.2c-0.3,0-0.5,0.1-0.7,0.3
						C1033.5,187.2,1033.3,187.5,1033.3,187.7L1033.3,187.7z"/>
					<path class="st16" d="M1028,187.7c0,0.2,0.1,0.4,0.2,0.6c0.1,0.2,0.3,0.3,0.5,0.4c0.2,0.1,0.4,0.1,0.6,0.1s0.4-0.1,0.5-0.3
						c0.1-0.1,0.2-0.3,0.3-0.5c0-0.2,0-0.4-0.1-0.6c-0.1-0.2-0.2-0.4-0.4-0.5c-0.2-0.1-0.4-0.2-0.6-0.2c-0.3,0-0.5,0.1-0.7,0.3
						C1028.1,187.2,1028,187.5,1028,187.7L1028,187.7z"/>
					<path class="st22" d="M1081.1,181.9h16.7c2.5,0,4.5-2,4.5-4.5v-16.7c0-2.5-2-4.5-4.5-4.5h-16.7c-2.5,0-4.5,2-4.5,4.5v16.7
						C1076.6,179.9,1078.6,181.9,1081.1,181.9z"/>
					<path class="st23" d="M1093.4,165.3l3.7,3.7l-3.7,3.7"/>
					<path class="st23" d="M1085.4,165.3l-3.7,3.7l3.7,3.7"/>
					<path class="st23" d="M1087.7,165.3l3.5,7.4"/>
					<path class="st20" d="M1102.1,88.3h-74.2c-2.8,0-5.1,2.3-5.1,5.1v52.3c0,2.8,2.3,5.1,5.1,5.1h74.2c2.8,0,5.1-2.3,5.1-5.1V93.5
						C1107.2,90.6,1104.9,88.3,1102.1,88.3z"/>
					<path class="st24" d="M1039.9,117.1c6.8,0,12.2-5.5,12.2-12.2c0-6.8-5.5-12.2-12.2-12.2s-12.2,5.5-12.2,12.2
						S1033.1,117.1,1039.9,117.1z"/>
					<path class="st5" d="M1057.6,150.8h44.5c1.4,0,2.7-0.5,3.6-1.5s1.5-2.3,1.5-3.6v-8.2l-19.5-33.7c-0.2-0.4-0.6-0.7-1-1
						c-0.4-0.2-0.9-0.3-1.3-0.3c-0.5,0-0.9,0.1-1.3,0.3c-0.4,0.2-0.7,0.6-1,1l-14.7,25.5l-10.9,18.9c-0.2,0.4-0.3,0.9-0.3,1.4
						C1057.2,150,1057.3,150.4,1057.6,150.8L1057.6,150.8z"/>
					<path class="st24" d="M1038.4,150.8h42.6l-12.5-21.6l-6.7-11.7c-0.2-0.4-0.5-0.7-0.9-0.9c-0.4-0.2-0.8-0.3-1.2-0.3
						s-0.8,0.1-1.2,0.3s-0.7,0.5-0.9,0.9L1038.4,150.8z"/>
					<path class="st25" d="M929.7,297.3h32.8V248h-32.8V297.3z"/>
					<path class="st26" d="M929.7,248h-12.6v49.3h12.6V248z"/>
					<path class="st20" d="M918.7,251.4h9.2v-1.6h-9.2V251.4z"/>
					<path class="st20" d="M918.7,254.8h9.2v-1.6h-9.2V254.8z"/>
					<path class="st20" d="M918.7,258.2h9.2v-1.6h-9.2V258.2z"/>
					<path class="st20" d="M918.7,261.6h9.2V260h-9.2V261.6z"/>
					<path class="st20" d="M918.7,265h9.2v-1.6h-9.2V265z"/>
					<path class="st20" d="M918.7,268.4h9.2v-1.6h-9.2V268.4z"/>
					<path class="st20" d="M918.7,271.7h9.2v-1.6h-9.2V271.7z"/>
					<path class="st20" d="M918.7,275.1h9.2v-1.6h-9.2V275.1z"/>
					<path class="st20" d="M918.7,278.5h9.2v-1.6h-9.2V278.5z"/>
					<path class="st20" d="M918.7,281.9h9.2v-1.6h-9.2V281.9z"/>
					<path class="st20" d="M918.7,285.3h9.2v-1.6h-9.2V285.3z"/>
					<path class="st20" d="M918.7,288.6h9.2V287h-9.2V288.6z"/>
					<path class="st20" d="M918.7,292h9.2v-1.6h-9.2V292z"/>
					<path class="st20" d="M918.7,295.4h9.2v-1.6h-9.2V295.4z"/>
					<path class="st27" d="M967.8,297.3h-16.7c0,0-0.9-3,1.1-6.6c0,0,1.3,1.1,5.4,0.4c0.9,0.8,1.8,1.4,2.8,2
						C961.6,293.5,968.3,294.9,967.8,297.3z"/>
					<path class="st28" d="M966.7,250.3c-1.1,6.4-6,28.2-8.2,41c-2.3,0.3-4.5,0.2-6.8-0.4c0.2-4.5,0.6-15.2,0.5-19.9
						c-0.1-7.9-0.5-18.4,3-24.1l11.8,0.9c-0.1,0.6-0.1,1.1-0.2,1.5C966.8,249.6,966.7,250,966.7,250.3z"/>
					<path class="st27" d="M998,297.3h-16.7c0,0-0.9-3,1.1-6.6c0,0,1.3,1.1,5.4,0.4c0.9,0.8,1.8,1.4,2.8,2
						C991.8,293.5,998.4,294.9,998,297.3z"/>
					<path class="st29" d="M988.2,290.9c-2.2,0.6-4.4,0.8-6.6,0.6c-0.9-5.2-2.3-16.5-3.5-21.8c-2-8.3-3.9-19.7-2.5-23.7l11.6-2.9
						C987.2,243.4,988.1,278.2,988.2,290.9z"/>
					<path class="st29" d="M942.2,231.2c0.2-2.3,0.5-3.9,0.5-3.9l12.9,3.2l11,2.5c4.1,0.9,9,2,13.3,3c4.9,1.1,8.1,4.8,7.1,9.7
						l-1.2,5.9c-6.8-0.1-38.8-3.2-41.5-4.5C941.1,245.3,940.2,239.8,942.2,231.2z"/>
					<path class="st28" d="M922.9,231.2c0.2-1.6,0.7-3.2,1.3-4.7l12.1,3.9l11,2.5c4.1,0.9,9,2,13.3,3c4.9,1.1,8.1,4.8,7,9.7
						l-1.2,5.9c-6.8-0.1-35.2-1.1-41.5-4.5C921.9,245.2,920.9,239.8,922.9,231.2z"/>
					<path class="st30" d="M959.1,212.7c0,0-5.7-2.6-7.3,0c-0.9,1.4-0.3,4.1,1.7,5.2c2,1.1,13,5.8,23.5,8.4c0.3-1,0.7-2,1.2-3
						c-3.3-1.4-6.4-3.2-9.3-5.2C965.7,215.9,962.5,214.1,959.1,212.7L959.1,212.7z"/>
					<path class="st30" d="M957.7,194.7l4.9,19.6c0,0-0.5,4.9-5.5,2.5s-8.4-18.1-8.4-18.1L957.7,194.7z"/>
					<path class="st5" d="M949.3,205.7c0.6-0.1,1.2-0.3,1.8-0.5s1.1-0.4,1.6-0.5c2.6-0.8,5-2,7.2-3.5c-1.5-6.4-3.2-10.7-4.8-13.5
						c0-0.1-0.1-0.1-0.1-0.2l-0.1-0.2c-0.9-1.4-2-2.6-3.4-3.6l-0.4-0.3l-0.6,10.2l-0.1,1.1L949.3,205.7z"/>
					<path class="st31" d="M949.3,205.7c0.6-0.1,1.2-0.3,1.8-0.5s1.1-0.4,1.6-0.5c-1-6.9-1.9-11.2-1.9-11.2l-0.5,1.3L949.3,205.7z"
						/>
					<path class="st5" d="M920.3,188c0.1,3,0.7,7.9,1.1,12.8c0.2,1.6,0.3,3.1,0.4,4.6c0.1,0.9,1.5,5.9,1.5,6.8
						c0.2,4.3,2.3,7.5,0.4,14c-0.3,1-0.5,2-0.6,3c0,0.4,0.6,0.9,0.8,1c1.4,0.6,2.9,1,4.5,1.1l0,0c4.1,0.4,8.2,0.6,12.4,0.6
						c4.3,0,10.7-0.7,11.5-1.8s0-2.4-0.3-4.4c-1.6-8.9-1-13.6-0.9-20c0-0.2,0-0.3,0-0.5c0.2-9.9,0.8-18.5,0.4-21.5l-0.4-0.3
						c-0.7-0.5-1.3-0.9-2-1.2l-0.2-0.1l-0.6-0.3l-0.2-0.1c-1.5-0.7-3.1-1.3-4.8-1.9l-0.4-0.1c-1.1-0.1-2.4-0.1-3.7-0.1
						c-1.2,0-2.9,0.2-4.9,0.4c-2.2,0.3-4.3,0.7-6.5,1.2l0,0c-2,0.8-3.7,2-5.1,3.5C921.8,185.8,921,186.8,920.3,188L920.3,188z"/>
					<path class="st31" d="M923.8,226.2c-0.3,1-0.5,2-0.6,3c0,0.4,0.6,0.9,0.8,1c1.4,0.6,2.9,1,4.5,1.1c-0.6-0.2-1.1-0.5-1.5-1
						s-0.7-1-0.7-1.6c0-0.8,1.1-6.4,0.8-9.9c-0.3-3.6-0.9-9.2,0.2-13.8c1.1-4.6,2.2-10.5,2.2-10.5l-6.2,3.8c0,0-0.8,1.1-1.7,2.5
						c0.2,1.6,0.3,3.1,0.4,4.6C921.9,206.4,925.7,219.7,923.8,226.2z"/>
					<path class="st28" d="M951.2,161.7c0,0-0.5,6.5-2.7,6.9s-1.6-2.3-1.6-2.3l0.3-3.1L951.2,161.7z"/>
					<path class="st30" d="M941.2,185.3c4.2-0.5,2.7-4.6,2.1-5.6c-0.2-0.1-0.9-0.3-0.9-0.3c-0.2-0.1-0.3-0.3-0.3-0.5
						c-0.3-1.1-0.3-2.3-0.2-3.4l0,0v-0.4c-0.1-0.3-0.1-0.5-0.2-0.7l-2.3-1.8l-4.7-3.7c0,0,1.2,6.2,0.2,10.1
						c-0.1,0.4-0.3,0.7-0.6,0.9l0,0c-0.1,0.1-0.3,0.1-0.5,0.2C932.7,180.7,934.3,186.1,941.2,185.3z"/>
					<path class="st32" d="M937.5,172.9c0.1,1.3,0.6,2.6,1.4,3.7c0.8,1.1,1.9,1.9,3.1,2.4c-0.3-1.1-0.3-2.2-0.2-3.4l-1.9-1.4
						L937.5,172.9z"/>
					<path class="st30" d="M950.1,162.6c0,0-1,13.5-4.6,14.7c-1.6,0-3.1-0.3-4.5-1s-2.6-1.8-3.5-3c-1-1.3-2.2-1.6-2.6-3.1
						c-0.7-2.5-1.5-7.2-0.4-10.1C936.2,156,950,152.9,950.1,162.6z"/>
					<path class="st28" d="M934.5,157.8c0.1-2.5,2.5-3.4,2.5-3.4c2.5-1.2,7.6-0.7,12.9,0.5c1.2,0.3,2.8-0.5,3.7,0.1
						c1,0.7,0,4.1,0,4.1c-2,6.2-9.6,4.2-11.8,3.4c-0.5,1.6-0.5,3.8-1.8,4.9c-0.8,0.6-2.1,0.7-3.5,0.4c-0.2,0.3-0.8,0.6-0.9,1
						c-0.4,1.4-0.4,3.7-0.3,5.5l-0.6-0.3C934.6,173.7,928,158,934.5,157.8z"/>
					<path class="st33" d="M946.4,167.2c-0.2,1.1,0.4,2.1,1.2,2.3c0.9,0.2,1.7-0.6,1.9-1.8s-0.4-2.1-1.2-2.3
						C947.5,165.3,946.6,166.1,946.4,167.2z"/>
					<path class="st33" d="M942,166.4c-0.2,1.1,0.4,2.1,1.2,2.3c0.9,0.1,1.7-0.6,1.9-1.8s-0.4-2.1-1.2-2.3
						C943,164.4,942.2,165.2,942,166.4z"/>
					<path class="st33" d="M946.4,167.2c0,0-0.2-0.3-1.2-0.2"/>
					<path class="st33" d="M941.9,166.6l-3.8-0.6"/>
					<path class="st30" d="M937.9,170.8c-2.6,1-3.4-5.4-0.9-5.7c1.9-0.2,1.9,2.4,1.9,2.4S939.3,170.3,937.9,170.8z"/>
					<g class="st34">
						<path class="st32" d="M937,166.1c1.4,0.4,1.4,2.4,0.5,3.3C937.7,168.2,937.9,167.1,937,166.1z"/>
						<path class="st32" d="M936.6,167.3c0.3,0,0.6,0,0.9,0.2c0.3,0.1,0.5,0.4,0.6,0.7l-0.5,0.2c0-0.3-0.2-0.5-0.3-0.7
							C937.1,167.5,936.9,167.4,936.6,167.3L936.6,167.3z"/>
					</g>
					<path class="st30" d="M912.9,215.2c1.1,1.3,5.5,2.3,7.6,0.5c0.7-0.6,1.4-2.1,2.1-4c1.4-4,2.6-8.1,3.6-12.2l-9.7-4.9
						c0,0-1.2,5.6-2.3,10.9v0.1c-0.3,1.7-0.7,3.4-0.9,4.8v0.1C913,212.1,912.8,213.7,912.9,215.2L912.9,215.2z"/>
					<path class="st5" d="M929.8,192.7c-0.9,3.9-3.9,11.3-3.9,11.3c-2.4,0.3-4.8,0-7.1-0.9c-1.7-0.6-3.2-1.7-4.5-2.9
						c0,0,2-5.5,3.7-9.4c1.6-3.5,2.5-4.9,3.2-5.6c1.1-1.1,2.4-2.1,3.8-2.9L929.8,192.7z"/>
					<path class="st5" d="M917.6,195.2l5.7-2.5l4.5-11.5c0,0-0.8,0.2-1.9,0.7l-0.2,0.1h-0.1c-1,0.4-4.7,2.7-7.3,10.7l-0.1,0.2
						c-0.3,0.9-0.5,1.7-0.6,2.1L917.6,195.2C917.6,195.1,917.6,195.2,917.6,195.2z"/>
					<path class="st30" d="M912.9,215.2c0.1,0.7,0.3,1.2,0.6,1.4l0.9,0.5c1.9,1.2,3.9,2.2,6,3.1c6.9,2.9,13.9,5.4,21,7.5
						c0.4-1,0.8-2,1.3-2.9c-3.2-1.6-6.3-3.4-9.1-5.6c-4.5-3.4-11-7.6-11-7.6l-1.6-1.9c0,0-5.8-5.4-6.8-4.3v0.1
						c-0.1,0.6-0.6,2.6-0.9,4.8v0.1C913,212.1,912.8,213.7,912.9,215.2L912.9,215.2z"/>
					<path class="st30" d="M942.1,224.6c0.7,0.4,1.5,0.6,2.3,0.4c0.6-0.1,0.9-0.4,1.4-0.5c0.8-0.1,1.6-0.3,2.4-0.5
						c0.6-0.3,0.9-0.4,0.8,0.3c0,0.6-1.3,1.2-1.6,1.4s-0.6,0.5-0.8,0.8c0,0.1,2.1,1.2,2.6,0.9c0.1,0.2,0.1,0.5,0.1,0.8
						c-0.1,0.3-0.5,0.4-0.6,0.5c0,0.1,0.1,0.4,0,0.7c-0.1,0.2-0.5,0.2-0.6,0.6c-0.2,0.4,0,0.4-0.1,0.8c-0.1,0.4-0.6,0.4-0.7,0.6
						c-0.1,0.2,0,0.4-0.2,0.6c-0.2,0.1-2.1-0.5-2.8-0.8s-2.5-3-4.6-3.9L942.1,224.6z"/>
					<path class="st35" d="M932.4,236.5h14.7v-1.4h-14.7c-0.2,0-0.4,0.1-0.5,0.2c-0.1,0.1-0.2,0.3-0.2,0.5s0.1,0.4,0.2,0.5
						C932,236.4,932.2,236.5,932.4,236.5z"/>
					<path class="st35" d="M940.3,236.5h36.9c0.2,0,0.4-0.1,0.6-0.2c0.2-0.1,0.3-0.3,0.4-0.5l7.5-27.2c0-0.1,0-0.3,0-0.4
						c0-0.1-0.1-0.3-0.2-0.4c-0.1-0.1-0.2-0.2-0.3-0.3s-0.3-0.1-0.4-0.1h-35.7c-0.4,0-0.8,0.1-1.1,0.4c-0.3,0.2-0.5,0.6-0.7,1
						l-7.5,27.1c0,0.1,0,0.1,0,0.2c0,0.1,0,0.1,0.1,0.2c0,0.1,0.1,0.1,0.2,0.1C940.2,236.5,940.3,236.5,940.3,236.5L940.3,236.5z"/>
					<path class="st36" d="M941.7,236.5h36.9c0.2,0,0.4-0.1,0.6-0.2c0.2-0.1,0.3-0.3,0.3-0.5l7.5-27.2c0-0.1,0-0.3,0-0.4
						c0-0.1-0.1-0.3-0.2-0.4c-0.1-0.1-0.2-0.2-0.3-0.3s-0.3-0.1-0.4-0.1h-35.7c-0.4,0-0.8,0.1-1.1,0.4c-0.3,0.2-0.5,0.6-0.7,1
						l-7.5,27.1c0,0.1,0,0.2,0,0.2c0,0.1,0,0.1,0.1,0.2c0,0.1,0.1,0.1,0.2,0.1C941.5,236.5,941.6,236.5,941.7,236.5L941.7,236.5z"/>
					<path class="st37" d="M1112.3,218.9l-4.3-4.4c0-0.8-0.2-1.6-0.4-2.4c-0.2-0.4-0.8-1.9-1.1-2.1c-0.3-0.1-0.6-0.1-0.9,0
						c-0.3-0.1-0.6-0.2-0.9-0.2s-0.5,0.1-0.8,0.2c0,0-0.6-0.1-0.9-0.1c-0.1,0-0.2,0-0.3,0.1c-0.5-0.6-1-1.1-1.5-1.6
						c-0.5-0.4-1.3-1.1-1.5-1.1s-0.3,0.4-0.2,0.8c0.2,0.4,0.5,0.7,0.8,1l1.9,2.9c-0.2-0.1-0.3-0.1-0.5-0.2c-0.2-0.1-1.4-1.2-1.4-1.3
						s-0.6-0.4-0.9-0.1s2,3.2,2.4,3.5c0.8,0.6,1.7,1,2.5,1.5c0,0,2.3,4.1,2.5,4.4C1107.2,220.2,1112.3,218.9,1112.3,218.9z"/>
					<path class="st37" d="M1108.3,198.6c0,0,2.4,13.9,4.6,14.2c0,0,9,0.4,11-10.5c1.7-9.4-5.2-11.5-8.5-10.7
						C1112.2,192.3,1107.6,192.7,1108.3,198.6z"/>
					<path class="st37" d="M1116.2,210.6c0,0,1.3,1.7,1.7,5.8c2.5,0.3,5-0.2,7.2-1.2c-1.2-3.9-1.9-8-2.1-12.1"/>
					<path class="st28" d="M1118.8,189.2c4.9,1.1,4.5,4.1,4.5,4.1c2.3,0.6,2.8,1.5,2.8,5.8c-0.1,4.2-1.6,9.3-2.4,9.7s-5.7,0.4-6,0.3
						c-0.4-0.1-2.1-4-1.7-4.7s0-3.4-1.1-3.5s-0.9,1.6-0.9,1.6l-0.9-0.2l-0.7-1.7c-6.5,0.4-8.2-7-8.2-7
						C1105.7,192.6,1113.9,188.1,1118.8,189.2z"/>
					<path class="st30" d="M1173.2,282.9l-4.9,0.7l1.6,5.8l5.4-1.4c0.3-0.4,0.5-0.9,0.6-1.4s0.1-1,0-1.5s-0.3-1-0.6-1.4
						c-0.3-0.4-0.7-0.7-1.1-1C1173.9,282.8,1173.6,282.8,1173.2,282.9L1173.2,282.9z"/>
					<path d="M1136.2,268l7.3-22.1c0,0,2.2-0.8,3.3,0c0,0,7.6,4.1,6.8,15.8c-0.6,7.5-1.7,14.9-3.2,22.2l19.5-0.7
						c0.7,0.9,1.2,2,1.3,3.2s0,2.3-0.5,3.4c0,0-24.5,6.6-28,7.2c-2.8,0.5-5.9,0.9-7.4-0.4C1132.9,294.3,1136.2,268,1136.2,268z"/>
					<path class="st30" d="M1150.1,282.9l-4.9,0.7l1.6,5.8l5.4-1.4c0.3-0.4,0.5-0.9,0.6-1.4s0.1-1,0-1.5s-0.3-1-0.6-1.4
						c-0.3-0.4-0.7-0.7-1.1-1C1150.8,282.8,1150.4,282.8,1150.1,282.9L1150.1,282.9z"/>
					<path class="st36" d="M1151.9,286c0.1,1.1-0.9,2.2-0.7,2.5c0.2,0.3,3.5,5.9,3.5,5.9s-2.5,1.1-2.1,2.7h6.3c1-1,1.6-2.3,1.6-3.6
						c-0.3-1.6-0.8-3.2-1.6-4.7l-3.7-7.1c-0.7-0.2-1.4-0.2-2.1,0c-1.1,0.3-2.1,0.8-3.1,1.4C1150.2,283,1151.7,283.1,1151.9,286z"/>
					<path class="st28" d="M1100.9,291.9c1.6-5.9,16.4-31,21.4-37.7c10.3-4.5,21.3-8.3,21.3-8.3c4.5,1.1,6.8,10.2,4.2,16.3
						c-1.8,4.2-13,14.7-19.8,20.9h19.1c0,0,2.2,3.4,0.2,6.5c0,0-31.6,7.2-34.4,7.6s-9,0-9,0S1099.6,296.8,1100.9,291.9z"/>
					<path class="st36" d="M1175,286c0.1,1.1-0.9,2.2-0.7,2.5s3.5,5.9,3.5,5.9s-2.5,1.1-2.1,2.7h6.3c1-1,1.6-2.3,1.6-3.6
						c-0.3-1.6-0.8-3.2-1.6-4.7l-3.7-7.1c-0.7-0.2-1.4-0.2-2.1,0c-1.1,0.3-2.1,0.8-3.1,1.4C1173.2,283,1174.8,283.1,1175,286z"/>
					<path class="st37" d="M1077,214.6l10.2,17.9l7.3-7.3l6.1,9l-1.8,0.9l0.6,0.5c0,0-14.1,6.9-15.8,5.4c-1.7-1.5-9.6-24.4-9.6-24.4
						L1077,214.6z"/>
					<path class="st36" d="M1093.3,226.4c0,0,1.9,8.1,5.8,12l9.9-3.8c0,0,4.6,7.7,9.1,13.6c1.7,2.3,2.3,5.5,4.3,5.9l0.4-0.1
						c5.5-1.6,13.6,0.1,20.2-2.4c7.4-2.8,5.9-4.3,5.9-4.3c-2.8-5.3-5.2-10.8-7-16.6c-1-3.3-1.8-6.6-2.4-10c-0.4-2.4-1.6-4.5-3.4-6.2
						s-4-2.7-6.3-3.1h-0.2c-5.6-0.7-20.2,1-23.1,2.2C1103.6,215,1093.3,226.4,1093.3,226.4z"/>
					<path class="st38" d="M1108.9,234.7c0,0,4.6,7.7,9.1,13.6c1.7,2.3,2.3,5.5,4.3,5.9c-0.9-0.3-2.3-4.9-2.9-6
						c-0.5-1.1-1.4-2.1-3.2-5.8s-4.2-9-4.2-9L1108.9,234.7z"/>
					<path d="M1127.9,283.1c-3.3,0.5-6.5,0.9-9.8,1.4C1121.1,283,1124.6,282.5,1127.9,283.1L1127.9,283.1z"/>
					<path class="st37" d="M1069.4,208c0.6,0.4,1.2,0.8,1.7,1.2l-0.6-1.1c-0.4-0.4-0.7-0.7-1-1.1c-0.3-0.4-0.1-0.8,0.1-0.8
						c0.6,0.3,1.1,0.7,1.6,1.1l-0.1-0.2c-0.4-0.4-0.7-0.7-1-1.1c-0.3-0.4-0.1-0.8,0.1-0.8c0.7,0.4,1.4,0.9,2,1.5l0.9,1.2l-0.7-1.3
						c-0.2-0.3-0.4-0.6-0.6-0.9c-0.2-0.4-0.1-0.6,0.1-0.8c0.1-0.2,1.3,0.7,1.6,1.1c0.5,0.6,0.9,1.3,1.3,2l1,2.1
						c0.1-0.6,0.2-1.6,0.2-2.3c0.1-0.9,0.9-1.2,1-0.7c0.2,1.3,0.4,2.6,0.4,3.9c-0.1,1.2-0.3,2-0.4,2.7c0.1,0.7,0.3,1.4,0.6,2.1
						c0,0-2.8,1.8-3.3,1.2c-0.7-0.8-1.4-1.6-1.9-2.5c-0.5-0.8-0.8-1.6-1.1-2.5l-0.9-1.9c-0.4-0.4-0.7-0.7-1-1.1
						C1069.1,208.5,1069.2,208,1069.4,208z"/>
					<path class="st39" d="M347.9,136.8c0,0,15,14.7,15.6,20.3s-6.8,14.2-6.8,14.2L347.9,136.8z"/>
					<path class="st40" d="M342.5,289.8c0,0-0.5,7.8-2,7.9c-0.2,0-7.7,0-7.7,0l-9.5-0.1c0,0,0.1-2.3,2.9-2.8s7.5-2.5,9.1-6.1
						C337.1,284.9,342.5,289.8,342.5,289.8z"/>
					<path class="st40" d="M363.8,289.8c0,0-0.5,7.8-2,7.9c-0.2,0-7.7,0-7.7,0l-9.5-0.1c0,0,0.1-2.3,2.9-2.8s7.5-2.5,9.1-6.1
						C358.3,284.9,363.8,289.8,363.8,289.8z"/>
					<path class="st40" d="M331.9,205.6c0,0,2.5,16,11.8,44.3s10.6,40.6,10.6,40.6l10-0.3c0,0,0.1-31-4.2-45.3
						c-4.3-14.3-0.9-51.4-0.9-51.4L331.9,205.6z"/>
					<path class="st41" d="M327.1,194.5c0,17.9,1.3,35.9,3.8,53.6c4.2,29.6,2.8,42.1,2.8,42.1l10,0.3c0,0,6-29.6,4.2-44.4
						c-1.7-14.8,8.2-50.8,8.2-50.8L327.1,194.5z"/>
					<path class="st42" d="M346.4,138.2l-4.7,3.5l-6.8-1.4c0.1-0.6,0.5-3.2,1-5.5c0-0.1,0-0.3,0.1-0.4c0.4-2,0.7-3.7,0.7-3.7
						l6.4-3.2l2.4-1.2c0,0.1-0.2,2.2-0.2,2.5C344.8,132,345.2,135.2,346.4,138.2L346.4,138.2z"/>
					<path class="st39" d="M335.3,136.4c0.1-0.1,9.2-2.8,10.2-2.4c1,0.3,1.6,2.2,1.6,2.2l-14.9,3.4
						C332.3,139.6,333.4,137.2,335.3,136.4z"/>
					<path class="st39" d="M359.9,197.5c-1.5,7-27.2,7.9-33.8,1.5c-0.8-0.7-0.8-4.1-0.5-8.7c0.6-8.9,2.3-22.4,2.4-29.2
						c0.1-3.3,0.4-6.6,1.1-9.8c0.8-4,1.9-7.9,3.3-11.7c0,0,12.6-4.1,14.9-3.4C358.5,139.5,361.4,190.4,359.9,197.5z"/>
					<path class="st39" d="M325.5,190.3c0.6-8.9,2.3-22.4,2.4-29.2c0.1-3.3,0.4-6.6,1.1-9.8l7.5-1.3
						C336.6,150,343.9,180.1,325.5,190.3z"/>
					<path class="st42" d="M329.6,177.8c0.1,0.4,0.2,0.8,0.1,1.1s-0.3,0.7-0.6,0.9c-1.1,0.8-1.8,2.1-1.5,3.1c0.2,1,2.6,2.6,3.4,2.3
						c0.8-0.2,2.5-1.6,2.3-2.1s1.1-4.5-0.9-6.1S329.6,177.8,329.6,177.8z"/>
					<path class="st39" d="M338,138c0,0-7.3,1.1-13.2,9.8s-9.7,15.1-8.6,18.2c1.1,3.1,10.9,13.9,12.6,13.9s4.4-1.2,4.6-4
						c0,0-6.9-10.4-5.6-11.9c0.6-0.7,9-7.5,10.2-4.4C340,164.6,338,138,338,138z"/>
					<path class="st43" d="M344.6,128.9c-1.4,2.6-6.6,5-8.8,5.8c0-0.1,0-0.3,0.1-0.4c0.4-2,0.7-3.7,0.7-3.7l6.4-3.2
						C344.3,127.4,345.2,127.8,344.6,128.9z"/>
					<path class="st42" d="M333.5,130.2c0,0,11.5,3.6,13.6-3.6c2.1-7.2,5-11.5-2.2-14.1s-9.5-0.3-10.8,1.9
						C332.8,116.7,330.5,129.1,333.5,130.2z"/>
					<path class="st41" d="M335.9,114.1c0,0,0.7,8.6,2.4,8.2c1.7-0.4,3.3-0.7,3,1.9s-2.7,5.6,2.6,6c5.3,0.4,13.1-13.8,11.7-16.5
						C351.4,106,329.8,104.7,335.9,114.1z"/>
					<path class="st42" d="M434.1,223.5c0,0-3,0.7-5,0.2s-5.2,0.3-5.8,1c-0.5,0.6-0.3,0.9,0.6,1.1c1,0.2,4.3,1.5,6.5,0.8
						c1.6-0.5,3.4-0.8,5.1-0.8L434.1,223.5z"/>
					<path class="st44" d="M461.5,195.9c0,0-3.5,24.9-9.2,27.1c-2.8,1.1-15.4,3.6-19.1,3.8c0,0-0.9-0.7-0.7-3.7c0,0,13.2-4.9,15-7.5
						c2.8-3.9-1.7-16.1,1.8-19.8C452.7,192.1,458.6,190.5,461.5,195.9z"/>
					<path class="st45" d="M460.9,292v-5.4h8.5c0.1,0,0.2,0,0.3-0.1s0.1-0.2,0.1-0.3v-0.9c0-0.1,0-0.2-0.1-0.3
						c-0.1-0.1-0.2-0.1-0.3-0.1h-8.5v-30.7c0-0.4-0.2-0.8-0.5-1.1s-0.7-0.5-1.1-0.5h-1.7c-0.4,0-0.8,0.2-1.1,0.5
						c-0.3,0.3-0.5,0.7-0.5,1.1v30.7h-8.5c-0.1,0-0.2,0-0.3,0.1c-0.1,0.1-0.1,0.2-0.1,0.3v0.9c0,0,0,0.1,0,0.2c0,0,0,0.1,0.1,0.1
						s0.1,0.1,0.1,0.1s0.1,0,0.2,0h8.5v5.4c-6.1,0.5-11.1,2.7-12.5,5.5h29.7C472,294.7,467,292.5,460.9,292z"/>
					<path class="st40" d="M460.3,248.6c-1,1.7-2.2,3.3-3.4,4.9c-3.8,4.7-7.9,8.6-8.6,12.3c-0.2,0.8-0.4,1.6-0.7,2.4
						c-0.3,0.9-0.7,1.7-1.1,2.6c-1.8,3.8-4,7.4-6.4,10.9c-4.1,6.1-8,11.2-8,11.2l-7.1-0.3c0.3-0.7,3.4-9.1,7.5-19.4l5.2-12.9
						c0.2-0.6,0.5-1.1,0.7-1.7l1.5-3.9l7-17.3c0,0,15.5-5.9,17.2-2.1C465.5,238.5,464.5,241.6,460.3,248.6z"/>
					<path class="st40" d="M431.7,291.5c0,0-0.4,6-1.5,6c-0.1,0-13,0-13,0c0.1-0.6,0.3-1.1,0.7-1.5s0.9-0.6,1.5-0.7
						c2.1-0.4,5.6-1.9,6.9-4.6C427.6,287.8,431.7,291.5,431.7,291.5z"/>
					<path class="st40" d="M448.2,275.1c0,0,5.2,3.1,4.7,4.1c-0.1,0.1-2.9,5-2.9,5l-3.7,6.1c0,0-1.5-0.9-0.8-2.8
						c0.7-2,1.2-5.7-0.7-8.1C442.7,276.8,448.2,275.1,448.2,275.1z"/>
					<path class="st41" d="M441.8,234.7c0,0-19.7,12.1-21.9,20.2c-2.2,8.1,26,25.4,26,25.4s3.1-2.7,3.6-4.7c0,0-12.8-15.1-15.5-18.5
						c-1.7-2.1,25.1-7.2,28.4-12.2c3.3-5.1,2.1-9.3,2.1-9.3L441.8,234.7z"/>
					<path class="st39" d="M478.5,249.9h-40c-0.8,0-1.5,0.7-1.5,1.5v8.2c0,0.8,0.6,1.5,1.5,1.5h40c0.8,0,1.5-0.7,1.5-1.5v-8.2
						C480,250.6,479.3,249.9,478.5,249.9z"/>
					<path class="st42" d="M460.1,191.7c0,0-7.8,4.4-12.6,3.2c0.8-1.1,1.9-2,3-2.8c-0.1-0.5-0.2-0.9-0.3-1.3
						c-0.2-1.2-0.4-2.4-0.5-3.7l3.6-3.3l2.4,0.5c0,0.2,0.1,0.5,0.2,0.7C456.6,187.7,458,190,460.1,191.7L460.1,191.7z"/>
					<path class="st46" d="M465.3,214c-0.7,8.9,0.2,22.6-0.5,24.9c-0.7,2-8.2,0.8-11.2,0.1c-1.1-0.2-2.5-0.6-3.9-1
						c-3.9-1.2-8.1-2.9-8.6-4.1c0-0.1,0-0.1,0-0.1v-0.1c0-0.1,0-0.3,0-0.4c0.1-0.6,0.7-1.3,0.8-2.9c0.1-1.8,0.1-3.9,0.1-6.1
						c0-0.2,0-0.5,0-0.8v-0.1c0-0.1,0-0.1,0-0.1c0.1-2.5,0.2-5.1,0.4-7.7c0.1-1.6,0.2-3.3,0.3-4.8c0.3-4,0.8-7.6,1.4-9.8
						c1-3.7,3.2-6.1,5.2-7.8l1.4-1.2c1.8,0.3,3.6,0.1,5.2-0.7c1.9-0.9,2.5-1.5,2.8-1.2C463,193.1,466.1,203.1,465.3,214z"/>
					<path class="st44" d="M449.7,238.1c-3.9-1.2-8.2-2.8-8.7-4.1c0-0.1,0-0.1,0-0.1v-0.1c0-0.1,0-0.3,0-0.4
						c0.1-0.6,0.7-1.3,0.8-2.9c0.1-1.8,0.1-3.8,0.1-6c0-0.2,0-0.5,0-0.8v-0.1c0-0.1,0-0.1,0-0.1l14.8-6.5
						C456.8,216.9,457.6,228.4,449.7,238.1z"/>
					<path class="st43" d="M456.2,185c-0.6,1.3-2.3,4.3-6,5.4c-0.3-1.1-0.5-2.3-0.6-3.5l3.9-3.1l2.6,0.5
						C456,184.6,456.1,184.8,456.2,185z"/>
					<path class="st42" d="M448.6,187.1c0,0,7.3,0.9,7.7-4.1s1.7-8.1-2.9-8.9s-5.7,1-6.2,2.6C446.7,178.3,446.7,186.7,448.6,187.1z"
						/>
					<path class="st41" d="M456.3,183.2c0,0-0.5-6.2-7.3-6.8c-4.7-0.5-2.1-4.4-1.6-5.1c0,0,3.6,0.5,7.3,1.1
						C462.4,173.7,457.1,182.2,456.3,183.2z"/>
					<path class="st44" d="M438.3,227.9l-19,0.4l-5.4-16.7l-0.7,0.2l5.7,17.6l19.4-0.4V227.9z"/>
					<path class="st42" d="M435.9,226.8c0,0-2.9,1.2-4.9,0.8s-5.2,1-5.6,1.9c-0.5,0.8-0.2,1.1,0.8,1.3s4.5,1.3,6.6,0.1
						c1.6-0.8,3.3-1.3,5-1.6L435.9,226.8z"/>
					<path class="st46" d="M460.1,197.3c0,0-0.8,24.8-6.3,27.6c-2.8,1.4-15.2,5.2-19,5.9c0,0-1-0.6-1.1-3.6c0,0,12.8-6.2,14.4-9
						c2.4-4.2-3.5-15.6-0.4-19.6C450.8,194.5,456.6,192.3,460.1,197.3z"/>
					<path class="st39" d="M159.1,159l-11,130.7c0,0-1.1,7.9,4.8,7.9c9.7,0,48.2,0,48.2,0s-7.3-1.6-7.2-5.4
						c0.1-4.4,12.9-134.5,12.9-134.5L159.1,159z"/>
					<path class="st39" d="M204.2,295.3c-1.9,0-38.7,0.1-48.1,0c-4.1,0-4.8-3.7-4.9-6c0-0.6,0-1.3,0.1-2l0.3-3.4l0.7-8.6l0.7-7.6
						l0.8-9.8l0.7-8.3l7.8-92.9l47.6-1.2c0,0-5.4,54.5-9.2,94.1c-0.4,4.4-0.8,8.6-1.2,12.6c-0.1,1.3-0.2,2.5-0.4,3.7
						c-0.4,3.8-0.7,7.2-1,10.2c-0.1,1.6-0.3,3.1-0.4,4.5c-0.5,5.3-0.8,8.8-0.8,9.4c0,0.4,0,0.7,0.1,1.1
						C197.9,295.1,203.5,295.3,204.2,295.3z"/>
					<path class="st47" d="M43.5,87.9l26.8,107.5l3.7,14.7l12.5,50.1H318L272,87.8L43.5,87.9L43.5,87.9z"/>
					<path class="st39" d="M43.5,87.9l-3.7,1.2L81.4,264l4.9-3.7L43.5,87.9z"/>
					<path class="st39" d="M81.4,264h230.2l6.4-3.7H86.4L81.4,264z"/>
					<path class="st39" d="M212.1,295.3h-49.9v2.4h49.9V295.3z"/>
					<path class="st46" d="M306.8,228.5L269.2,90.2H43.1v-2.3h229l37.5,140.3L306.8,228.5z"/>
					<path class="st39" d="M199.4,264l-0.2,1.8l-46.9,9.5l0.6-7.6l0.3-3.6L199.4,264L199.4,264z"/>
					<path class="st39" d="M204.2,295.3c-1.9,0-38.7,0.1-48.1,0c-4.1,0-4.8-3.7-4.9-6l46.7-8.8c-0.5,5.3-0.8,8.8-0.8,9.4
						c0,0.4,0,0.7,0.1,1.1C197.9,295.1,203.5,295.3,204.2,295.3z"/>
					<path class="st48" d="M188.1,225.4L86.4,260.3l-12.5-50.1L188.1,225.4z"/>
					<path class="st49" d="M43.5,87.9h228.6l37.1,138.5H76.8L43.5,87.9z"/>
					<path class="st39" d="M208.3,243.9c-0.4-1.7-1.3-3.2-2.6-4.3s-3-1.8-4.7-1.8c-3.4,0-5.6,2.8-5,6.1c0.4,1.7,1.3,3.2,2.6,4.3
						s3,1.8,4.7,1.8C206.8,250.1,209,247.4,208.3,243.9z"/>
					<path class="st50" d="M298.4,220.4h-214l-24.2-96.6l-1.9-7.4l-1.6-6.3L53,95.3h210.9l4.1,14.8l1.7,6.3l2,7.4L298.4,220.4z"/>
					<path class="st51" d="M268,110.2H56.7L53,95.4h211L268,110.2z"/>
					<path class="st50" d="M63,100.2c-0.2,0-0.5,0-0.7,0.1s-0.4,0.2-0.5,0.4c-0.1,0.2-0.2,0.4-0.3,0.6c0,0.2,0,0.5,0.1,0.7
						c0.1,0.5,0.4,1,0.9,1.3c0.4,0.3,0.9,0.5,1.5,0.6c0.2,0,0.5,0,0.7-0.1s0.4-0.2,0.5-0.4c0.1-0.2,0.2-0.4,0.3-0.6
						c0-0.2,0-0.5-0.1-0.7c-0.1-0.5-0.4-1-0.9-1.3C64.1,100.4,63.6,100.2,63,100.2L63,100.2z"/>
					<path class="st50" d="M69.2,100.2c-0.2,0-0.5,0-0.7,0.1s-0.4,0.2-0.5,0.4c-0.1,0.2-0.2,0.4-0.3,0.6c0,0.2,0,0.5,0.1,0.7
						c0.1,0.5,0.4,1,0.9,1.3s0.9,0.5,1.5,0.6c0.2,0,0.4,0,0.7-0.1c0.2-0.1,0.4-0.2,0.5-0.4s0.2-0.4,0.3-0.6c0-0.2,0-0.5-0.1-0.7
						c-0.1-0.5-0.4-1-0.9-1.3S69.7,100.2,69.2,100.2L69.2,100.2z"/>
					<path class="st50" d="M78.1,102.1c-0.1-0.5-0.4-1-0.9-1.3s-0.9-0.5-1.5-0.6c-0.2,0-0.5,0-0.7,0.1s-0.4,0.2-0.5,0.4
						c-0.1,0.2-0.2,0.4-0.3,0.6c0,0.2,0,0.5,0.1,0.7c0.1,0.5,0.4,1,0.9,1.3s0.9,0.5,1.5,0.6c0.2,0,0.4,0,0.7-0.1
						c0.2-0.1,0.4-0.2,0.5-0.4c0.1-0.2,0.2-0.4,0.3-0.6C78.2,102.5,78.2,102.3,78.1,102.1L78.1,102.1z"/>
					<path class="st51" d="M261.9,150c0.2,0,0.3,0,0.5-0.1c0.1-0.1,0.3-0.2,0.4-0.3s0.2-0.3,0.2-0.4c0-0.2,0-0.3,0-0.5
						c-0.1-0.4-0.3-0.7-0.6-0.9c-0.3-0.2-0.6-0.4-1-0.4h-22.8c-0.2,0-0.3,0-0.4,0.1c-0.1,0.1-0.3,0.2-0.4,0.3
						c-0.1,0.1-0.2,0.3-0.2,0.4c0,0.1,0,0.3,0,0.5c0.1,0.4,0.3,0.7,0.6,0.9s0.6,0.4,1,0.4H261.9L261.9,150z"/>
					<path class="st51" d="M259.1,131.8c-0.1-0.4-0.3-0.7-0.6-0.9s-0.6-0.4-1-0.4h-22.8c-0.2,0-0.3,0-0.5,0.1
						c-0.1,0.1-0.3,0.2-0.4,0.3c-0.1,0.1-0.2,0.3-0.2,0.4c0,0.2,0,0.3,0,0.5c0.1,0.4,0.3,0.7,0.6,0.9s0.6,0.4,1,0.4H258
						c0.2,0,0.3,0,0.5-0.1c0.1-0.1,0.3-0.2,0.4-0.3s0.2-0.3,0.2-0.4C259.1,132.1,259.1,131.9,259.1,131.8L259.1,131.8z"/>
					<path class="st51" d="M263.1,154.9c0.2,0,0.3,0,0.5-0.1c0.1-0.1,0.3-0.2,0.4-0.3s0.2-0.3,0.2-0.4c0-0.2,0-0.3,0-0.5
						c-0.1-0.4-0.3-0.7-0.6-0.9c-0.3-0.2-0.6-0.4-1-0.4h-22.8c-0.2,0-0.3,0-0.5,0.1c-0.1,0.1-0.3,0.2-0.4,0.3
						c-0.1,0.1-0.2,0.3-0.2,0.4c0,0.2,0,0.3,0,0.5c0.1,0.4,0.3,0.7,0.6,0.9s0.6,0.4,1,0.4H263.1L263.1,154.9z"/>
					<path class="st51" d="M265.3,158.4c-0.1-0.4-0.3-0.7-0.6-0.9c-0.3-0.2-0.6-0.4-1-0.4h-22.8c-0.2,0-0.3,0-0.5,0.1
						c-0.1,0.1-0.3,0.2-0.4,0.3c-0.1,0.1-0.2,0.3-0.2,0.4c0,0.2,0,0.3,0,0.5c0.1,0.4,0.3,0.7,0.6,0.9s0.6,0.4,1,0.4h22.8
						c0.2,0,0.3,0,0.5-0.1c0.1-0.1,0.3-0.2,0.4-0.3s0.2-0.3,0.2-0.4C265.4,158.7,265.3,158.6,265.3,158.4L265.3,158.4z"/>
					<path class="st51" d="M268.8,176.8c0.2,0,0.3,0,0.5-0.1c0.1-0.1,0.3-0.2,0.4-0.3s0.2-0.3,0.2-0.4c0-0.2,0-0.3,0-0.5
						c-0.1-0.4-0.3-0.7-0.6-0.9s-0.6-0.4-1-0.4h-22.8c-0.2,0-0.3,0-0.5,0.1c-0.1,0.1-0.3,0.2-0.4,0.3c-0.1,0.1-0.2,0.3-0.2,0.4
						c0,0.2,0,0.3,0,0.5c0.1,0.4,0.3,0.7,0.6,0.9s0.6,0.4,1,0.4H268.8L268.8,176.8z"/>
					<path class="st51" d="M270,181.7c0.2,0,0.3,0,0.5-0.1c0.1-0.1,0.3-0.2,0.4-0.3s0.2-0.3,0.2-0.4c0-0.2,0-0.3,0-0.5
						c-0.1-0.4-0.3-0.7-0.6-0.9s-0.6-0.4-1-0.4h-22.8c-0.2,0-0.3,0-0.5,0.1c-0.1,0.1-0.3,0.2-0.4,0.3c-0.1,0.1-0.2,0.3-0.2,0.4
						c0,0.2,0,0.3,0,0.5c0.1,0.4,0.3,0.7,0.6,0.9s0.6,0.4,1,0.4H270L270,181.7z"/>
					<path class="st51" d="M272.2,185.3c-0.1-0.4-0.3-0.7-0.6-0.9c-0.3-0.2-0.6-0.4-1-0.4h-22.8c-0.2,0-0.3,0-0.5,0.1
						c-0.1,0.1-0.3,0.2-0.4,0.3c-0.1,0.1-0.2,0.3-0.2,0.4c0,0.2,0,0.3,0,0.5c0.1,0.4,0.3,0.7,0.6,0.9s0.6,0.4,1,0.4h22.8
						c0.2,0,0.3,0,0.5-0.1c0.1-0.1,0.3-0.2,0.4-0.3s0.2-0.3,0.2-0.4C272.3,185.6,272.2,185.4,272.2,185.3L272.2,185.3z"/>
					<path class="st51" d="M258.1,126.4l-1.6-6.4c-0.2-0.6-0.5-1.1-1-1.5s-1.1-0.6-1.7-0.6H71.3c-0.3,0-0.5,0-0.8,0.2
						c-0.2,0.1-0.4,0.3-0.6,0.5s-0.3,0.4-0.3,0.7s0,0.5,0.1,0.8l1.6,6.4c0.2,0.6,0.5,1.1,1,1.5c0.5,0.4,1.1,0.6,1.7,0.6h182.6
						c0.3,0,0.5-0.1,0.8-0.2s0.4-0.3,0.6-0.5s0.3-0.4,0.3-0.7C258.2,126.9,258.2,126.7,258.1,126.4z"/>
					<path class="st39" d="M200.7,117.9l2.6,10.6H73.9c-0.6,0-1.2-0.3-1.7-0.6c-0.5-0.4-0.8-0.9-1-1.5l-1.6-6.4
						c-0.1-0.2-0.1-0.5-0.1-0.8s0.1-0.5,0.3-0.7s0.4-0.4,0.6-0.5s0.5-0.2,0.8-0.2L200.7,117.9L200.7,117.9z"/>
					<path class="st44" d="M224,121.3l0.2,0.8h2l-1.1,3.5h1.1l1-3.6l-0.2-0.7C227.1,121.3,224,121.3,224,121.3z"/>
					<path class="st44" d="M229.5,121.2c-1.1,0-1.7,1-1.4,2.2c0.1,0.6,0.4,1.1,0.9,1.5s1,0.7,1.6,0.7c1.1,0,1.7-1,1.4-2.2
						c-0.1-0.6-0.4-1.1-0.9-1.5S230.1,121.3,229.5,121.2L229.5,121.2z M230.4,124.8c-0.6,0-1.1-0.6-1.3-1.4s0-1.4,0.6-1.4
						s1.1,0.6,1.3,1.4C231.2,124.2,230.9,124.8,230.4,124.8L230.4,124.8L230.4,124.8z"/>
					<path class="st44" d="M237.6,124.5c-0.1-0.3-0.2-0.6-0.5-0.8s-0.5-0.3-0.9-0.3c-0.1,0-0.3,0-0.4,0.1c-0.1,0.1-0.2,0.2-0.3,0.3
						s-0.1,0.2-0.1,0.4c0,0.1,0,0.3,0.1,0.4c0.1,0.3,0.2,0.6,0.5,0.8s0.5,0.3,0.9,0.3c0.1,0,0.3,0,0.4-0.1c0.1-0.1,0.2-0.2,0.3-0.3
						s0.1-0.2,0.1-0.4C237.6,124.8,237.6,124.7,237.6,124.5L237.6,124.5z M236.7,125.1c-0.2,0-0.5-0.2-0.5-0.5
						c-0.1-0.3,0-0.5,0.3-0.5s0.5,0.2,0.5,0.5C237,124.8,236.9,125.1,236.7,125.1L236.7,125.1z"/>
					<path class="st44" d="M235.6,121.3l-2.1,4.3h0.7l2.1-4.3H235.6z"/>
					<path class="st44" d="M234.4,122.3c-0.1-0.3-0.2-0.6-0.5-0.8c-0.2-0.2-0.5-0.3-0.9-0.3c-0.1,0-0.3,0-0.4,0.1
						c-0.1,0.1-0.2,0.2-0.3,0.3c-0.1,0.1-0.1,0.2-0.1,0.4c0,0.1,0,0.3,0.1,0.4c0.1,0.3,0.2,0.6,0.5,0.8c0.2,0.2,0.5,0.3,0.9,0.3
						c0.1,0,0.3,0,0.4-0.1c0.1-0.1,0.2-0.2,0.3-0.3s0.1-0.2,0.1-0.4C234.4,122.6,234.4,122.4,234.4,122.3L234.4,122.3z M232.9,122.3
						c-0.1-0.3,0-0.5,0.3-0.5s0.5,0.2,0.5,0.5c0.1,0.3,0,0.5-0.3,0.5C233.2,122.9,233,122.6,232.9,122.3z"/>
					<path class="st51" d="M192.2,174.6c0.3,0,0.6,0,0.9-0.2s0.5-0.3,0.7-0.6s0.3-0.5,0.3-0.8c0.1-0.3,0-0.6-0.1-0.9l0,0
						c-0.2-0.7-0.6-1.2-1.1-1.7s-1.2-0.7-1.9-0.7H84.5c-0.3,0-0.6,0-0.9,0.2c-0.3,0.1-0.5,0.3-0.7,0.6c-0.2,0.2-0.3,0.5-0.3,0.8
						c-0.1,0.3,0,0.6,0.1,0.9l0,0c0.2,0.7,0.6,1.2,1.1,1.7s1.2,0.7,1.9,0.7H192.2z"/>
					<path class="st51" d="M194.2,182.6c0.3,0,0.6,0,0.9-0.2s0.5-0.3,0.7-0.6c0.2-0.2,0.3-0.5,0.3-0.8c0.1-0.3,0-0.6-0.1-0.9
						c-0.2-0.7-0.6-1.2-1.1-1.7s-1.2-0.7-1.9-0.7H86.5c-0.3,0-0.6,0-0.9,0.2c-0.3,0.1-0.5,0.3-0.7,0.6c-0.2,0.2-0.3,0.5-0.3,0.8
						c-0.1,0.3,0,0.6,0.1,0.9c0.2,0.7,0.6,1.2,1.1,1.7c0.5,0.4,1.2,0.7,1.9,0.7H194.2z"/>
					<path class="st51" d="M198,188.5c-0.2-0.7-0.6-1.2-1.1-1.7s-1.2-0.7-1.9-0.7H88.6c-0.3,0-0.6,0-0.9,0.2
						c-0.3,0.1-0.5,0.3-0.7,0.6c-0.2,0.2-0.3,0.5-0.3,0.8c-0.1,0.3,0,0.6,0.1,0.9c0.2,0.7,0.6,1.2,1.1,1.7s1.2,0.7,1.9,0.7h106.5
						c0.3,0,0.6,0,0.9-0.2s0.5-0.3,0.7-0.6c0.2-0.2,0.3-0.5,0.3-0.8C198.2,189.1,198.1,188.8,198,188.5z"/>
					<path class="st51" d="M133.9,161.7c0.2,0.8,0.7,1.6,1.4,2.1s1.5,0.9,2.4,0.9h11.9c0.4,0,0.7-0.1,1.1-0.2s0.6-0.4,0.9-0.7
						c0.2-0.3,0.4-0.6,0.4-1c0.1-0.4,0-0.7-0.1-1.1l-5.7-23c-0.2-0.8-0.7-1.6-1.4-2.1s-1.5-0.9-2.4-0.9h-11.9
						c-0.4,0-0.7,0.1-1.1,0.2s-0.6,0.4-0.9,0.7c-0.2,0.3-0.4,0.6-0.4,1c-0.1,0.4,0,0.7,0.1,1.1L133.9,161.7z"/>
					<path class="st51" d="M154.5,161.7c0.2,0.8,0.7,1.6,1.4,2.1s1.5,0.9,2.4,0.9h11.9c0.4,0,0.7-0.1,1.1-0.2
						c0.3-0.2,0.6-0.4,0.9-0.7c0.2-0.3,0.4-0.6,0.4-1s0-0.7-0.1-1.1l-5.8-23c-0.2-0.8-0.7-1.6-1.4-2.1s-1.5-0.9-2.4-0.9H151
						c-0.4,0-0.7,0.1-1.1,0.2s-0.6,0.4-0.9,0.7s-0.4,0.6-0.4,1c-0.1,0.4,0,0.7,0.1,1.1L154.5,161.7z"/>
					<path class="st51" d="M174.6,161.7c0.2,0.8,0.7,1.6,1.4,2.1s1.5,0.9,2.4,0.9h11.9c0.4,0,0.7-0.1,1.1-0.2
						c0.3-0.2,0.6-0.4,0.9-0.7c0.2-0.3,0.4-0.6,0.4-1s0-0.7-0.1-1.1l-5.7-23c-0.2-0.8-0.7-1.6-1.4-2.1s-1.5-0.9-2.4-0.9h-11.9
						c-0.4,0-0.7,0.1-1.1,0.2s-0.6,0.4-0.9,0.7s-0.4,0.6-0.4,1c-0.1,0.4,0,0.7,0.1,1.1L174.6,161.7z"/>
					<path class="st51" d="M129.9,159.6l-4.7-18.9c-0.4-1.4-1.2-2.6-2.3-3.6c-1.1-0.9-2.5-1.4-4-1.5H78.7c-2.8,0-4.5,2.3-3.8,5.1
						l4.7,18.9c0.4,1.4,1.2,2.6,2.3,3.6c1.1,0.9,2.5,1.4,4,1.5h40.2C128.9,164.7,130.6,162.4,129.9,159.6z"/>
					<path class="st44" d="M118.3,142.9c0.1,0,0.3,0,0.4-0.1s0.2-0.1,0.3-0.3c0.1-0.1,0.1-0.2,0.2-0.4c0-0.1,0-0.3,0-0.4
						c-0.1-0.3-0.3-0.6-0.5-0.8c-0.3-0.2-0.6-0.3-0.9-0.3H80.2c-0.1,0-0.3,0-0.4,0.1s-0.2,0.1-0.3,0.3c-0.1,0.1-0.1,0.2-0.2,0.4
						c0,0.1,0,0.3,0,0.4l0,0c0.1,0.3,0.3,0.6,0.5,0.8c0.3,0.2,0.6,0.3,0.9,0.3H118.3z"/>
					<path class="st44" d="M119.4,147.3c0.1,0,0.3,0,0.4-0.1s0.2-0.1,0.3-0.3c0.1-0.1,0.1-0.2,0.2-0.4c0-0.1,0-0.3,0-0.4l0,0
						c-0.1-0.3-0.3-0.6-0.5-0.8c-0.3-0.2-0.6-0.3-0.9-0.3H81.3c-0.1,0-0.3,0-0.4,0.1s-0.2,0.1-0.3,0.3c-0.1,0.1-0.1,0.2-0.2,0.4
						c0,0.1,0,0.3,0,0.4l0,0c0.1,0.3,0.3,0.6,0.5,0.8c0.3,0.2,0.6,0.3,0.9,0.4L119.4,147.3L119.4,147.3z"/>
					<path class="st44" d="M121.4,150.6c-0.1-0.3-0.3-0.6-0.5-0.8c-0.3-0.2-0.6-0.3-0.9-0.3H82.4c-0.1,0-0.3,0-0.4,0.1
						s-0.2,0.1-0.3,0.3c-0.1,0.1-0.1,0.2-0.2,0.4c0,0.1,0,0.3,0,0.4c0.1,0.3,0.3,0.6,0.5,0.8s0.6,0.3,0.9,0.4h37.6
						c0.1,0,0.3,0,0.4-0.1s0.2-0.1,0.3-0.3c0.1-0.1,0.1-0.2,0.2-0.4S121.5,150.7,121.4,150.6L121.4,150.6z"/>
					<path class="st44" d="M92.5,154.4h-8.9c-0.1,0-0.3,0-0.4,0.1s-0.2,0.1-0.3,0.3c-0.1,0.1-0.1,0.2-0.2,0.4c0,0.1,0,0.3,0,0.4
						c0.1,0.3,0.3,0.6,0.5,0.8c0.3,0.2,0.6,0.3,0.9,0.3H93c0.1,0,0.3,0,0.4-0.1s0.2-0.1,0.3-0.3c0.1-0.1,0.1-0.2,0.2-0.4
						c0-0.1,0-0.3,0-0.4c-0.1-0.3-0.3-0.6-0.5-0.8C93.2,154.5,92.8,154.4,92.5,154.4L92.5,154.4z"/>
					<path class="st51" d="M286.5,210.2l-2.5-9.9c-0.2-0.7-0.6-1.4-1.2-1.9s-1.3-0.8-2.1-0.8h-21.1c-0.3,0-0.6,0-1,0.2
						c-0.3,0.1-0.5,0.4-0.8,0.6s-0.3,0.6-0.4,0.9c0,0.3,0,0.6,0.1,1l2.5,9.9c0.2,0.7,0.6,1.4,1.2,1.9s1.3,0.8,2.1,0.8h21.1
						c0.3,0,0.6,0,1-0.2c0.3-0.1,0.5-0.4,0.8-0.6s0.3-0.6,0.4-0.9C286.6,210.8,286.6,210.5,286.5,210.2z"/>
					<path class="st44" d="M280.5,201.4c0.1,0,0.1,0,0.2,0s0.1-0.1,0.2-0.1s0.1-0.1,0.1-0.2c0-0.1,0-0.1,0-0.2
						c0-0.2-0.1-0.3-0.3-0.4c-0.1-0.1-0.3-0.2-0.5-0.2h-19.7c-0.1,0-0.1,0-0.2,0s-0.1,0.1-0.2,0.1s-0.1,0.1-0.1,0.2
						c0,0.1,0,0.1,0,0.2c0,0.2,0.1,0.3,0.3,0.4c0.1,0.1,0.3,0.2,0.5,0.2H280.5L280.5,201.4z"/>
					<path class="st44" d="M281,203.7c0.1,0,0.1,0,0.2,0s0.1-0.1,0.2-0.1c0-0.1,0.1-0.1,0.1-0.2c0-0.1,0-0.1,0-0.2
						c0-0.2-0.1-0.3-0.3-0.4c-0.1-0.1-0.3-0.2-0.5-0.2H261c-0.1,0-0.1,0-0.2,0s-0.1,0.1-0.2,0.1c0,0.1-0.1,0.1-0.1,0.2
						c0,0.1,0,0.1,0,0.2c0,0.2,0.1,0.3,0.3,0.4c0.1,0.1,0.3,0.2,0.5,0.2H281z"/>
					<path class="st44" d="M282.1,205.4c0-0.2-0.1-0.3-0.3-0.4s-0.3-0.2-0.5-0.2h-19.7c-0.1,0-0.1,0-0.2,0s-0.1,0.1-0.2,0.1
						c0,0.1-0.1,0.1-0.1,0.2s0,0.1,0,0.2c0,0.2,0.1,0.3,0.3,0.4c0.1,0.1,0.3,0.2,0.5,0.2h19.7c0.1,0,0.1,0,0.2,0s0.1-0.1,0.2-0.1
						s0.1-0.1,0.1-0.2C282.1,205.6,282.1,205.5,282.1,205.4L282.1,205.4z"/>
					<path class="st44" d="M266.9,207.4h-4.6c-0.1,0-0.1,0-0.2,0s-0.1,0.1-0.2,0.1c0,0.1-0.1,0.1-0.1,0.2c0,0.1,0,0.1,0,0.2l0,0
						c0,0.2,0.1,0.3,0.3,0.4c0.1,0.1,0.3,0.2,0.5,0.2h4.6c0.1,0,0.1,0,0.2,0s0.1-0.1,0.2-0.1s0.1-0.1,0.1-0.2c0-0.1,0-0.1,0-0.2
						c0-0.2-0.1-0.3-0.3-0.4S267.1,207.5,266.9,207.4L266.9,207.4z"/>
					<path class="st39" d="M140.3,202.9c0.1,0,0.2,0,0.3-0.1s0.2-0.1,0.3-0.2c0.1-0.1,0.1-0.2,0.1-0.3s0-0.2,0-0.3
						c-0.1-0.2-0.2-0.5-0.4-0.6c-0.2-0.2-0.4-0.3-0.7-0.3H99.7c-0.1,0-0.2,0-0.3,0.1c-0.1,0.1-0.2,0.1-0.3,0.2
						c-0.1,0.1-0.1,0.2-0.1,0.3s0,0.2,0,0.3c0.1,0.2,0.2,0.5,0.4,0.6c0.2,0.2,0.4,0.3,0.7,0.3H140.3z"/>
					<path class="st39" d="M141.1,205.9c0.1,0,0.2,0,0.3-0.1s0.2-0.1,0.3-0.2c0.1-0.1,0.1-0.2,0.1-0.3s0-0.2,0-0.3
						c-0.1-0.2-0.2-0.5-0.4-0.6c-0.2-0.2-0.4-0.3-0.7-0.3h-40.1c-0.1,0-0.2,0-0.3,0.1c-0.1,0.1-0.2,0.1-0.3,0.2
						c-0.1,0.1-0.1,0.2-0.1,0.3s0,0.2,0,0.3c0.1,0.2,0.2,0.5,0.4,0.6c0.2,0.2,0.4,0.3,0.7,0.3H141.1z"/>
					<path class="st39" d="M141.4,207.2h-40.2c-0.1,0-0.2,0-0.3,0.1c-0.1,0.1-0.2,0.1-0.3,0.2c-0.1,0.1-0.1,0.2-0.1,0.3s0,0.2,0,0.3
						c0.1,0.2,0.2,0.5,0.4,0.6c0.2,0.2,0.4,0.3,0.7,0.3h40.2c0.1,0,0.2,0,0.3-0.1s0.2-0.1,0.3-0.2c0.1-0.1,0.1-0.2,0.1-0.3
						s0-0.2,0-0.3c-0.1-0.2-0.2-0.5-0.4-0.6C141.9,207.4,141.6,207.3,141.4,207.2L141.4,207.2z"/>
					<path class="st39" d="M192.1,202.9c0.1,0,0.2,0,0.3-0.1s0.2-0.1,0.3-0.2c0.1-0.1,0.1-0.2,0.1-0.3s0-0.2,0-0.3
						c-0.1-0.2-0.2-0.5-0.4-0.6c-0.2-0.2-0.4-0.3-0.7-0.3h-40.1c-0.1,0-0.2,0-0.3,0.1s-0.2,0.1-0.3,0.2c-0.1,0.1-0.1,0.2-0.1,0.3
						s0,0.2,0,0.3c0.1,0.2,0.2,0.5,0.4,0.6c0.2,0.2,0.4,0.3,0.7,0.3H192.1z"/>
					<path class="st39" d="M192.9,205.9c0.1,0,0.2,0,0.3-0.1s0.2-0.1,0.3-0.2c0.1-0.1,0.1-0.2,0.1-0.3s0-0.2,0-0.3
						c-0.1-0.2-0.2-0.5-0.4-0.6s-0.4-0.3-0.7-0.3h-40.2c-0.1,0-0.2,0-0.3,0.1s-0.2,0.1-0.3,0.2c-0.1,0.1-0.1,0.2-0.1,0.3
						s0,0.2,0,0.3c0.1,0.2,0.2,0.5,0.4,0.6c0.2,0.2,0.4,0.3,0.7,0.3H192.9L192.9,205.9z"/>
					<path class="st39" d="M193.2,207.2H153c-0.1,0-0.2,0-0.3,0.1s-0.2,0.1-0.3,0.2c-0.1,0.1-0.1,0.2-0.1,0.3s0,0.2,0,0.3
						c0.1,0.2,0.2,0.5,0.4,0.6c0.2,0.2,0.4,0.3,0.7,0.3h40.2c0.1,0,0.2,0,0.3-0.1s0.2-0.1,0.3-0.2c0.1-0.1,0.1-0.2,0.1-0.3
						s0-0.2,0-0.3c-0.1-0.2-0.2-0.5-0.4-0.6S193.5,207.3,193.2,207.2L193.2,207.2z"/>
					<path class="st39" d="M242.4,202.9c0.1,0,0.2,0,0.3-0.1s0.2-0.1,0.3-0.2c0.1-0.1,0.1-0.2,0.1-0.3s0-0.2,0-0.3
						c-0.1-0.2-0.2-0.5-0.4-0.6c-0.2-0.2-0.4-0.3-0.7-0.3h-40.1c-0.1,0-0.2,0-0.3,0.1s-0.2,0.1-0.3,0.2s-0.1,0.2-0.1,0.3
						s0,0.2,0,0.3c0.1,0.2,0.2,0.5,0.4,0.6c0.2,0.2,0.4,0.3,0.7,0.3H242.4z"/>
					<path class="st39" d="M243.1,205.9c0.1,0,0.2,0,0.3-0.1s0.2-0.1,0.3-0.2c0.1-0.1,0.1-0.2,0.1-0.3s0-0.2,0-0.3
						c-0.1-0.2-0.2-0.5-0.4-0.6c-0.2-0.2-0.4-0.3-0.7-0.3h-40.2c-0.1,0-0.2,0-0.3,0.1s-0.2,0.1-0.3,0.2c-0.1,0.1-0.1,0.2-0.1,0.3
						s0,0.2,0,0.3c0.1,0.2,0.2,0.5,0.4,0.6c0.2,0.2,0.4,0.3,0.7,0.3H243.1z"/>
					<path class="st39" d="M244.6,208.1c-0.1-0.2-0.2-0.5-0.4-0.6c-0.2-0.2-0.4-0.3-0.7-0.3h-40.1c-0.1,0-0.2,0-0.3,0.1
						s-0.2,0.1-0.3,0.2c-0.1,0.1-0.1,0.2-0.1,0.3s0,0.2,0,0.3c0.1,0.2,0.2,0.5,0.4,0.6c0.2,0.2,0.4,0.3,0.7,0.3H244
						c0.1,0,0.2,0,0.3-0.1s0.2-0.1,0.3-0.2c0.1-0.1,0.1-0.2,0.1-0.3C244.6,208.4,244.6,208.3,244.6,208.1z"/>
					<path class="st39" d="M252.3,214.2H97.5c-0.7,0-1.4-0.3-1.9-0.7c-0.6-0.4-1-1.1-1.2-1.7l-3.1-12.4c-0.1-0.3-0.1-0.7,0-1
						s0.2-0.6,0.4-0.9c0.2-0.2,0.5-0.4,0.8-0.6c0.3-0.1,0.6-0.2,0.9-0.2h154.8c0.7,0,1.4,0.3,1.9,0.7c0.6,0.4,1,1.1,1.1,1.7
						l3.1,12.4c0.1,0.3,0.1,0.7,0.1,1c-0.1,0.3-0.2,0.6-0.4,0.9c-0.2,0.2-0.5,0.4-0.8,0.6C253,214.1,252.6,214.2,252.3,214.2
						L252.3,214.2z M93.3,197.6c-0.2,0-0.4,0-0.5,0.1c-0.2,0.1-0.3,0.2-0.4,0.3c-0.1,0.2-0.2,0.4-0.2,0.6c0,0.2,0,0.4,0,0.6
						l3.1,12.4c0.1,0.5,0.4,0.9,0.8,1.2s0.9,0.5,1.4,0.5h154.9c0.2,0,0.4,0,0.5-0.1s0.3-0.2,0.4-0.3c0.1-0.2,0.2-0.4,0.2-0.6
						s0-0.4,0-0.6l-3.1-12.4c-0.1-0.5-0.4-0.9-0.8-1.2c-0.4-0.3-0.9-0.5-1.4-0.5H93.3z"/>
					<path class="st52" d="M217.1,179.8l2.9,3.9l8.9-4.2"/>
					<path class="st52" d="M211.7,180.4c-0.4-6.1,4.6-9.9,10.5-8.9c5.5,0.8,10.4,5.5,11.6,10.8c1.2,5.7-2.4,10.7-8.5,10.7
						C218.4,192.9,212.1,187.1,211.7,180.4z"/>
					<path class="st52" d="M211.4,151.4l2.9,3.9l8.9-4.2"/>
					<path class="st52" d="M206,152c-0.4-6.1,4.6-9.9,10.5-8.9c5.5,0.8,10.4,5.5,11.6,10.8c1.2,5.7-2.4,10.7-8.5,10.7
						C212.7,164.5,206.4,158.6,206,152z"/>
					<path class="st53" d="M854.5,143.8H820c-1.2,0-2.2,1-2.2,2.2v28.6c0,1.2,1,2.2,2.2,2.2h34.5c1.2,0,2.2-1,2.2-2.2V146
						C856.7,144.8,855.7,143.8,854.5,143.8z"/>
					<path class="st54" d="M856.6,143.8h-34.5c-1.2,0-2.2,1-2.2,2.2v28.6c0,1.2,1,2.2,2.2,2.2h34.5c1.2,0,2.2-1,2.2-2.2V146
						C858.8,144.8,857.8,143.8,856.6,143.8z"/>
					<path class="st5" d="M834.7,149.6h-1.3c-0.2,0-0.5,0.1-0.7,0.2c-0.2,0.2-0.3,0.4-0.4,0.6c-0.1,0.2-0.2,0.5-0.2,0.8
						s-0.1,0.6-0.1,0.9v4.4c0,0.6,0,1.1-0.2,1.7c-0.2,0.4-0.4,0.8-0.7,1.1c-0.2,0.3-0.5,0.5-0.8,0.7c-0.2,0.1-0.5,0.2-0.7,0.3v0.1
						c0.2,0,0.5,0.1,0.7,0.2c0.3,0.2,0.6,0.4,0.8,0.6c0.3,0.3,0.5,0.7,0.7,1.2c0.2,0.6,0.3,1.2,0.2,1.8v4.3c0,0.3,0,0.6,0.1,0.9
						c0,0.3,0.1,0.6,0.2,0.8c0.1,0.2,0.2,0.4,0.4,0.6c0.2,0.1,0.5,0.2,0.7,0.2h1.3v2.1h-2.2c-0.4,0-0.7-0.1-1.1-0.3
						c-0.4-0.2-0.7-0.5-1-0.8c-0.3-0.4-0.5-0.9-0.7-1.4c-0.2-0.6-0.3-1.3-0.3-2v-3.9c0-0.9-0.2-1.7-0.8-2.5
						c-0.2-0.3-0.4-0.5-0.7-0.6c-0.3-0.2-0.6-0.2-0.9-0.2v-2.2c0.3,0,0.7-0.1,0.9-0.2c0.3-0.1,0.5-0.4,0.7-0.6
						c0.5-0.7,0.8-1.6,0.8-2.5v-4.5c0-0.6,0.1-1.1,0.3-1.6c0.2-0.4,0.4-0.8,0.7-1.2c0.3-0.3,0.6-0.5,1-0.7c0.3-0.2,0.7-0.2,1.1-0.2
						h2.2V149.6z"/>
					<path class="st5" d="M844.4,171h1.3c0.2,0,0.5-0.1,0.7-0.2c0.2-0.2,0.3-0.4,0.4-0.6c0.1-0.3,0.2-0.5,0.2-0.8s0.1-0.6,0.1-0.9
						v-4.3c0-0.6,0-1.1,0.2-1.7c0.2-0.4,0.4-0.8,0.7-1.1c0.2-0.3,0.5-0.5,0.8-0.7c0.2-0.1,0.5-0.2,0.7-0.3v-0.1
						c-0.2,0-0.5-0.1-0.7-0.2c-0.3-0.2-0.6-0.4-0.8-0.6c-0.3-0.3-0.5-0.7-0.7-1.2c-0.2-0.6-0.3-1.2-0.2-1.8v-4.3
						c0-0.3,0-0.6-0.1-0.9c0-0.3-0.1-0.5-0.2-0.8c-0.1-0.2-0.3-0.4-0.4-0.6c-0.2-0.1-0.5-0.2-0.7-0.2h-1.3v-2.1h2.1
						c0.4,0,0.7,0.1,1.1,0.3c0.4,0.2,0.7,0.5,1,0.8c0.3,0.4,0.5,0.9,0.7,1.4c0.2,0.6,0.3,1.3,0.3,2v3.8c0,0.9,0.2,1.8,0.7,2.5
						c0.2,0.3,0.5,0.5,0.7,0.6c0.3,0.1,0.6,0.2,1,0.2v2.3c-0.3,0-0.7,0.1-1,0.2c-0.3,0.1-0.5,0.4-0.7,0.6c-0.5,0.7-0.8,1.6-0.7,2.5
						v4.5c0,0.6-0.1,1.1-0.3,1.6c-0.2,0.4-0.4,0.8-0.7,1.2c-0.3,0.3-0.6,0.5-1,0.7c-0.3,0.2-0.7,0.2-1.1,0.2h-2.1V171z"/>
					<path class="st55" d="M901.6,61H859c-1.3,0-2.4,1.1-2.4,2.4v27.8c0,1.3,1.1,2.4,2.4,2.4h42.6c1.3,0,2.4-1.1,2.4-2.4V63.4
						C904,62.1,903,61,901.6,61z"/>
					<path class="st56" d="M904.2,61h-42.6c-1.3,0-2.4,1.1-2.4,2.4v27.8c0,1.3,1.1,2.4,2.4,2.4h42.6c1.3,0,2.4-1.1,2.4-2.4V63.4
						C906.6,62.1,905.5,61,904.2,61z"/>
					<path class="st5" d="M861.7,80.2v-2.4l13.7-7.4V74l-9.2,5l9.2,5v3.6L861.7,80.2z"/>
					<path class="st5" d="M879.6,90.6l-2.2-1l8.5-25.6l2.2,1.1L879.6,90.6z"/>
					<path class="st5" d="M904,77.9v2.4l-13.7,7.4V84l9.2-5l-9.2-5v-3.6L904,77.9z"/>
					<path class="st57" d="M54.9,280.7c0,0-6.5-25.9-22.7-34S-1.4,249.6,3,261.2c3.8,9.9,19.4-2.3,31.5,2.5s14,17,14,17H54.9
						L54.9,280.7z"/>
					<path class="st58" d="M6.1,254.3c0,0,17.4-9.9,30.3-0.8c12.9,9.2,17,27.2,17,27.2"/>
					<path class="st58" d="M8.9,249.6l4.1,1.8"/>
					<path class="st58" d="M14.8,245.8l8.1,3.8"/>
					<path class="st58" d="M26.9,245.8l4.2,5"/>
					<path class="st58" d="M34.9,249.2l1.9,4.6"/>
					<path class="st58" d="M11,260.6l6.2-10.3"/>
					<path class="st58" d="M22,259.1l5.7-9.2"/>
					<path class="st58" d="M31.6,257.7l8.6-1.1"/>
					<path class="st58" d="M41.6,262.9l4.9,1.6"/>
					<path class="st59" d="M62.2,279.9c0,0,4.6-87.1-37-75.8c-41.6,11.2,32.4,58.2,32.4,75.8H62.2z"/>
					<path class="st60" d="M60.5,279.9c0,0-1.5-45.5-31.1-68"/>
					<path class="st60" d="M42.4,225.1l-0.7-15.7"/>
					<path class="st60" d="M19.1,218.6l20,2.6"/>
					<path class="st60" d="M26.9,232l21.2,2.5"/>
					<path class="st60" d="M37.5,245.2l16.4,2.3"/>
					<path class="st60" d="M55.4,232.8l-3.8,9.1"/>
					<path class="st60" d="M49.3,218.1l-3.2,12.8"/>
					<path class="st60" d="M58.9,248l-3,6"/>
					<path class="st60" d="M46.1,257.5l11.7,3.7"/>
					<path class="st61" d="M43.4,277.5l3.7,19.5c0.1,0.6,0.5,1.2,1,1.6s1.1,0.6,1.8,0.6h11c0.7,0,1.3-0.2,1.8-0.6s0.8-1,0.9-1.6
						l3.2-19.5H43.4z"/>
					<path class="st62" d="M44.6,283.9h21l1.1-6.4H43.4L44.6,283.9z"/>
					<path class="st63" d="M44.6,283.9l0.4,2.3h20.2l0.3-2.3H44.6z"/>
					<path class="st57" d="M1204.9,289.3c0,0,4.2-17,14.9-22.2c10.6-5.2,21.9,1.9,19.1,9.5c-2.5,6.5-12.7-1.5-20.6,1.6
						s-9.2,11.1-9.2,11.1H1204.9L1204.9,289.3z"/>
					<path class="st64" d="M1236.8,272c0,0-11.4-6.5-19.8-0.5s-11.1,17.8-11.1,17.8"/>
					<path class="st64" d="M1234.9,269l-2.7,1.1"/>
					<path class="st64" d="M1231.1,266.5l-5.3,2.5"/>
					<path class="st64" d="M1223.2,266.5l-2.8,3.2"/>
					<path class="st64" d="M1218,268.7l-1.2,3"/>
					<path class="st64" d="M1233.6,276.2l-4.1-6.7"/>
					<path class="st64" d="M1226.4,275.2l-3.7-6"/>
					<path class="st64" d="M1220.1,274.3l-5.6-0.7"/>
					<path class="st64" d="M1213.6,277.7l-3.2,1.1"/>
					<path class="st59" d="M1200.1,288.8c0,0-3-56.9,24.2-49.6s-21.2,38-21.2,49.6H1200.1z"/>
					<path class="st65" d="M1201.2,288.8c0,0,0.9-29.7,20.3-44.5"/>
					<path class="st65" d="M1213.1,252.9l0.5-10.3"/>
					<path class="st65" d="M1228.3,248.7l-13.1,1.7"/>
					<path class="st65" d="M1223.2,257.4l-13.9,1.6"/>
					<path class="st65" d="M1216.2,266.1l-10.7,1.5"/>
					<path class="st65" d="M1204.5,258l2.5,6"/>
					<path class="st65" d="M1208.6,248.3l2.1,8.4"/>
					<path class="st65" d="M1202.2,268l2,3.9"/>
					<path class="st65" d="M1210.6,274.2l-7.7,2.4"/>
					<path class="st61" d="M1196.9,286.1l2.3,12.2c0.1,0.4,0.3,0.8,0.6,1c0.3,0.3,0.7,0.4,1.1,0.4h6.9c0.4,0,0.8-0.1,1.1-0.4
						c0.3-0.3,0.5-0.6,0.6-1l2-12.2H1196.9z"/>
					<path class="st62" d="M1197.6,290.1h13.1l0.7-4h-14.6L1197.6,290.1z"/>
					<path class="st63" d="M1197.6,290.1l0.3,1.5h12.7l0.2-1.5H1197.6z"/>
					<path class="st66" d="M11,298.4h1222.4"/>
				</g>
			</g>
		</g>
	</g>
</g>
</svg>
