<svg xmlns="http://www.w3.org/2000/svg" xmlns:xlink="http://www.w3.org/1999/xlink" viewBox="0 0 1245 300"><defs><style>.cls-1{clip-path:url(#clip-path);}.cls-2,.cls-6,.cls-8{fill:none;}.cls-2{clip-path:url(#clip-path-4);}.cls-3{fill:url(#linear-gradient);}.cls-4{fill:url(#linear-gradient-2);}.cls-5{clip-path:url(#clip-path-3);}.cls-6{clip-path:url(#clip-path-6);}.cls-7{fill:url(#linear-gradient-3);}.cls-42,.cls-43,.cls-44,.cls-46,.cls-47,.cls-48,.cls-49,.cls-50,.cls-51,.cls-52,.cls-9{isolation:isolate;}.cls-10{clip-path:url(#clip-path-7);}.cls-11{fill:url(#radial-gradient);}.cls-12{fill:#7babff;}.cls-13{fill:#f2d05f;}.cls-14,.cls-44,.cls-48,.cls-49{fill:#fff;}.cls-15{fill:#f1ce7c;}.cls-16,.cls-41{fill:#2020ce;}.cls-16,.cls-27,.cls-40{mix-blend-mode:multiply;}.cls-17{fill:#f4d78b;}.cls-18{mask:url(#mask);}.cls-19{fill:url(#linear-gradient-5);}.cls-20{mask:url(#mask-2);}.cls-21{fill:url(#linear-gradient-7);}.cls-22{mask:url(#mask-3);}.cls-23{fill:url(#linear-gradient-9);}.cls-24{fill:#bb6949;}.cls-25{fill:url(#linear-gradient-10);}.cls-26,.cls-27{fill:#1d0291;}.cls-28{fill:#c64253;}.cls-29{fill:#dba585;}.cls-30{fill:#6e8ac5;}.cls-31{fill:#334e8b;}.cls-32{fill:#3e4148;}.cls-33{fill:#997761;}.cls-34{fill:#8b313d;}.cls-35{fill:#5d5954;}.cls-36{fill:#8c867e;}.cls-37{fill:#6c6760;}.cls-38{fill:#7b6f66;}.cls-39{fill:#e0e0e0;}.cls-42{opacity:0.2;}.cls-43,.cls-47,.cls-48,.cls-50{opacity:0.2;}.cls-44{opacity:0.7;}.cls-45,.cls-50{fill:#439dff;}.cls-46,.cls-51{fill:#3b3be2;}.cls-46{opacity:0.3;}.cls-47,.cls-52{fill:#4f4fed;}.cls-49{opacity:0.1;}.cls-51,.cls-52{opacity:0.5;}.cls-53{fill:#263238;}</style><clipPath id="clip-path"><polygon class="cls-2" points="-7 -183.4 -7.9 -183.4 -7 -184.3 -7 -183.4"/></clipPath><linearGradient id="linear-gradient" x1="179.35" y1="656.52" x2="179.35" y2="775.92" gradientTransform="translate(0 -541.89)" gradientUnits="userSpaceOnUse"><stop offset="0.01"/><stop offset="1" stop-color="#fff"/></linearGradient><linearGradient id="linear-gradient-2" x1="236.2" y1="656.52" x2="236.2" y2="775.92" xlink:href="#linear-gradient"/><clipPath id="clip-path-3"><polygon class="cls-6" points="31.7 -100.6 31 -100.6 31.7 -101.3 31.7 -100.6"/></clipPath><linearGradient id="linear-gradient-3" x1="201.6" y1="677.15" x2="201.6" y2="771.65" xlink:href="#linear-gradient"/><clipPath id="clip-path-4"><polygon class="cls-8" points="-5.3 -181.7 -4.4 -181.7 -5.3 -180.8 -5.3 -181.7"/></clipPath><clipPath id="clip-path-6"><polygon class="cls-8" points="33 -99.2 33.7 -99.2 33 -98.6 33 -99.2"/></clipPath><clipPath id="clip-path-7"><rect class="cls-8" width="1245" height="300"/></clipPath><radialGradient id="radial-gradient" cx="992.38" cy="-152.52" r="700.62" gradientTransform="matrix(-0.76, 0.55, -0.47, -0.5, 1668.12, -865.45)" gradientUnits="userSpaceOnUse"><stop offset="0" stop-color="#73d7ff"/><stop offset="1" stop-color="#002bc6"/></radialGradient><mask id="mask" x="-7.9" y="-184.3" width="195.6" height="450.3" maskUnits="userSpaceOnUse"><g id="SVGID"><g class="cls-1"><polygon class="cls-3" points="187.7 265.6 184.6 266 171 158.2 174.1 157.8 187.7 265.6"/></g></g></mask><linearGradient id="linear-gradient-5" x1="179.15" y1="677.15" x2="179.15" y2="771.65" gradientTransform="translate(0 -541.89)" gradientUnits="userSpaceOnUse"><stop offset="0.01" stop-color="#f5db93"/><stop offset="1" stop-color="#fff"/></linearGradient><mask id="mask-2" x="-7.9" y="-184.3" width="251.9" height="450" maskUnits="userSpaceOnUse"><g id="SVGID-2" data-name="SVGID"><g class="cls-1"><polygon class="cls-4" points="228.4 265.4 231.5 265.7 244 157.8 240.9 157.5 228.4 265.4"/></g></g></mask><linearGradient id="linear-gradient-7" x1="224.2" y1="677.15" x2="224.2" y2="771.65" xlink:href="#linear-gradient-5"/><mask id="mask-3" x="31" y="-101.3" width="198.5" height="283.9" maskUnits="userSpaceOnUse"><g id="SVGID-3" data-name="SVGID"><g class="cls-5"><polygon class="cls-7" points="219.7 182.6 210.4 173.4 201.3 182.6 192.3 173.6 183.5 182.5 173.7 172.8 174.9 171.6 183.5 180.1 192.3 171.2 201.3 180.1 210.4 171 219.7 180.2 228.2 171.6 229.5 172.8 219.7 182.6"/></g></g></mask><linearGradient id="linear-gradient-9" x1="201.6" y1="677.15" x2="201.6" y2="771.65" xlink:href="#linear-gradient-5"/><linearGradient id="linear-gradient-10" x1="153.5" y1="792.09" x2="245.8" y2="792.09" gradientTransform="translate(0 -541.89)" gradientUnits="userSpaceOnUse"><stop offset="0" stop-color="#81d3e4"/><stop offset="1" stop-color="#6076fa"/></linearGradient></defs><g class="cls-9"><g id="Layer_2" data-name="Layer 2"><g id="Слой_1" data-name="Слой 1"><g class="cls-10"><rect class="cls-11" width="1245" height="300"/><g id="Promt1"><path class="cls-12" d="M1128.26,71.63a6.37,6.37,0,0,1-3-2,4.8,4.8,0,0,1-.9-3.6,26.51,26.51,0,0,0-.2-7,11.63,11.63,0,1,1,20.1-4.2,11.75,11.75,0,0,1-6.6,7.5,24.43,24.43,0,0,0-2.8,6c-.6,2.5-3.4,4-6.3,3.4C1128.56,71.63,1128.36,71.63,1128.26,71.63Zm7.9-30.3a10.72,10.72,0,0,0-11.2,17.2l.1.1v.1a29.33,29.33,0,0,1,.2,7.4h0a3.19,3.19,0,0,0,.7,2.8,5.16,5.16,0,0,0,2.9,1.8c2.4.5,4.7-.7,5.2-2.7h0a27.89,27.89,0,0,1,3-6.4l.1-.1.1-.1a10.89,10.89,0,0,0,6.2-6.9A10.59,10.59,0,0,0,1136.16,41.33Z"/><polygon class="cls-12" points="1126.95 67.23 1128.06 54.53 1130.16 57.23 1132.16 55.73 1133.26 57.73 1136.06 56.13 1131.95 68.33 1131.06 68.03 1134.36 58.13 1132.86 59.03 1131.86 57.13 1130.06 58.53 1128.76 56.93 1127.86 67.33 1126.95 67.23"/><rect class="cls-12" x="1126.9" y="68.08" width="3.3" height="8.3" transform="translate(818.92 1159.88) rotate(-77.77)"/><rect class="cls-12" x="1126.3" y="64.39" width="5.4" height="10.9" transform="translate(821.62 1158.43) rotate(-77.77)"/><path class="cls-12" d="M810.8,256.64a7.1,7.1,0,0,1-3.8-2.5,5.8,5.8,0,0,1-1.1-4.5,36,36,0,0,0-.2-8.8,14.7,14.7,0,1,1,17.2,4.2,30.43,30.43,0,0,0-3.6,7.6c-.7,3.2-4.3,5.1-7.9,4.3A.86.86,0,0,0,810.8,256.64Zm10-38.2a13.6,13.6,0,0,0-16.8,9.2,13.23,13.23,0,0,0,2.7,12.5l.1.1v.2a35.19,35.19,0,0,1,.2,9.3h0a4.41,4.41,0,0,0,.9,3.6,6.47,6.47,0,0,0,3.6,2.2c3,.7,6-.9,6.5-3.4h0a30.28,30.28,0,0,1,3.8-8l.1-.2.2-.1a13.5,13.5,0,0,0,7.8-8.7A13.28,13.28,0,0,0,820.8,218.44Z"/><polygon class="cls-12" points="809.2 251.14 810.6 235.04 813.3 238.44 815.8 236.64 817.1 239.14 820.7 237.14 815.5 252.54 814.4 252.14 818.6 239.64 816.6 240.74 815.4 238.44 813 240.14 811.5 238.14 810.4 251.24 809.2 251.14"/><rect class="cls-13" x="809.01" y="252.17" width="4.2" height="10.4" transform="translate(387.79 995.56) rotate(-77.77)"/><rect class="cls-12" x="808.36" y="247.58" width="6.8" height="13.8" transform="translate(391.12 993.93) rotate(-77.77)"/><polygon class="cls-12" points="278.5 213 277.5 212.6 285.4 189.9 302.8 185.1 308.8 160.1 322.3 154 325.1 134.7 326 134.8 323.2 154.7 309.7 160.8 303.6 185.9 286.1 190.7 278.5 213"/><path class="cls-12" d="M305.2,183.8a2.62,2.62,0,1,1-3.7-.3A2.57,2.57,0,0,1,305.2,183.8Z"/><path class="cls-12" d="M305.2,187.9a3.12,3.12,0,1,1,.4-4.4A3.15,3.15,0,0,1,305.2,187.9Zm-3.3-4.1a2.13,2.13,0,1,0,3,.3A2.19,2.19,0,0,0,301.9,183.8Z"/><path class="cls-12" d="M311.3,159a2.62,2.62,0,1,1-3.7-.3A2.49,2.49,0,0,1,311.3,159Z"/><path class="cls-12" d="M311.3,163a3.12,3.12,0,1,1,.4-4.4A3.15,3.15,0,0,1,311.3,163Zm-3.4-4a2.13,2.13,0,1,0,3,.3A2.19,2.19,0,0,0,307.9,159Z"/><path class="cls-12" d="M324.6,152.7a2.62,2.62,0,1,1-3.7-.3A2.66,2.66,0,0,1,324.6,152.7Z"/><path class="cls-12" d="M324.5,156.8a3.12,3.12,0,1,1,.4-4.4A3.07,3.07,0,0,1,324.5,156.8Zm-3.3-4.1a2.13,2.13,0,1,0,3,.3A2.19,2.19,0,0,0,321.2,152.7Z"/><path class="cls-14" d="M287.9,188.8a2.62,2.62,0,1,1-3.7-.3A2.66,2.66,0,0,1,287.9,188.8Z"/><path class="cls-15" d="M287.8,192.9a3.12,3.12,0,1,1,.4-4.4A3.06,3.06,0,0,1,287.8,192.9Zm-3.3-4a2.13,2.13,0,1,0,3,.3A2.1,2.1,0,0,0,284.5,188.9Z"/><path class="cls-16" d="M276.8,108c-.2-36.4-35.1-65.7-78-65.5s-77.5,29.9-77.3,66.3a56.63,56.63,0,0,0,6.9,26.9s23.9,46.2,27.5,90.2c.1,20.5,19.8,37.1,44,37s43.8-16.9,43.7-37.4c3.1-44,26.6-90.4,26.6-90.4h0A59,59,0,0,0,276.8,108Z"/><path class="cls-16" d="M286.5,108c-.2-36.4-35.1-65.7-78-65.5S131,72.4,131.2,108.8a56.63,56.63,0,0,0,6.9,26.9s23.9,46.2,27.5,90.2c.1,20.5,19.8,37.1,44,37s43.8-16.9,43.7-37.4c3.1-44,26.6-90.4,26.6-90.4h0A59,59,0,0,0,286.5,108Z"/><polygon class="cls-12" points="290.1 19.1 298.8 19.1 296.1 13.6 287.4 13.6 290.1 19.1"/><polygon class="cls-12" points="286 19.1 288.1 19.1 285.4 13.6 283.3 13.6 286 19.1"/><rect class="cls-12" x="106.8" y="24.2" width="22.3" height="1.6"/><rect class="cls-12" x="416.2" y="176.5" width="22.3" height="6.6"/><rect class="cls-12" x="96.3" y="35.9" width="13.2" height="1"/><rect class="cls-12" x="469.1" y="23.6" width="13.2" height="2.7"/><rect class="cls-17" x="132.8" y="15.7" width="1" height="18.4"/><rect class="cls-12" x="71.5" y="166" width="17.6" height="3.2"/><rect class="cls-12" x="71.5" y="164.5" width="17.6" height="0.6"/><path class="cls-12" d="M299.1,124.2l-2.7-.5c6.5-32.9,1-59.5-16-76.9A63.28,63.28,0,0,0,252.2,30l.6-2.7c.6.1,15.9,3.6,29.4,17.4C294.6,57.3,307.6,81.4,299.1,124.2Z"/><path class="cls-12" d="M113.8,165.6c-26.3-49.8-9.9-76.9-9.1-78l2.4,1.5c-.2.3-16.2,26.9,9.2,75.2Z"/><path class="cls-14" d="M233.6,117.9a20.14,20.14,0,0,0,1.3-5.9l4-1.5-.8-4.6-.8-4.6-4.3-.1a20.84,20.84,0,0,0-3.2-5.1l1.7-3.9-3.8-2.7-3.8-2.7-3.1,2.9a20.14,20.14,0,0,0-5.9-1.3l-1.5-4-4.6.8-4.6.8-.1,4.3a20.84,20.84,0,0,0-5.1,3.2l-3.9-1.7-2.7,3.8-2.7,3.8,2.9,3.1a24.15,24.15,0,0,0-1.4,5.9l-4,1.5.8,4.6.8,4.6,4.3.1a20.84,20.84,0,0,0,3.2,5.1l-1.7,3.9,3.8,2.7,3.8,2.7,3.1-2.9a20.14,20.14,0,0,0,5.9,1.3l1.5,4,4.6-.8,4.6-.8.1-4.3a20.84,20.84,0,0,0,5.1-3.2l3.9,1.7,2.7-3.8,2.7-3.8Zm-27,1.5a11.33,11.33,0,1,1,15.8-2.7A11.36,11.36,0,0,1,206.6,119.4Z"/><path class="cls-14" d="M191.7,142.7a16.63,16.63,0,0,0,.9-3.7l2.5-1-.5-2.9-.5-2.9-2.7-.1a11.56,11.56,0,0,0-2-3.2l1.1-2.5-2.4-1.7-2.4-1.7-2,1.8a16.63,16.63,0,0,0-3.7-.9l-1-2.5-2.9.5-2.9.5-.1,2.7a11.56,11.56,0,0,0-3.2,2l-2.5-1.1-1.7,2.4-1.7,2.4,1.8,2a16.63,16.63,0,0,0-.9,3.7l-2.5,1,.5,2.9.5,2.9,2.7.1a11.56,11.56,0,0,0,2,3.2l-1.1,2.5,2.4,1.7,2.4,1.7,2-1.8a16.63,16.63,0,0,0,3.7.9l1,2.5,2.9-.5,2.9-.5.1-2.7a11.56,11.56,0,0,0,3.2-2l2.5,1.1,1.7-2.4,1.7-2.4Zm-17,.9a7.17,7.17,0,1,1,10-1.7A7.11,7.11,0,0,1,174.7,143.6Z"/><g class="cls-18"><polygon class="cls-3" points="187.7 265.6 184.6 266 171 158.2 174.1 157.8 187.7 265.6"/></g><polygon class="cls-19" points="185.8 254.7 183.3 255 172.5 169.7 175 169.4 185.8 254.7"/><g class="cls-20"><polygon class="cls-4" points="228.4 265.4 231.5 265.7 244 157.8 240.9 157.5 228.4 265.4"/></g><polygon class="cls-21" points="218 254.6 220.4 254.9 230.4 169.4 227.9 169.2 218 254.6"/><g class="cls-22"><polygon class="cls-7" points="219.7 182.6 210.4 173.4 201.3 182.6 192.3 173.6 183.5 182.5 173.7 172.8 174.9 171.6 183.5 180.1 192.3 171.2 201.3 180.1 210.4 171 219.7 180.2 228.2 171.6 229.5 172.8 219.7 182.6"/></g><polygon class="cls-23" points="219.7 182.6 210.4 173.4 201.3 182.6 192.3 173.6 183.5 182.5 173.7 172.8 174.9 171.6 183.5 180.1 192.3 171.2 201.3 180.1 210.4 171 219.7 180.2 228.2 171.6 229.5 172.8 219.7 182.6"/><path class="cls-24" d="M224.8,286.1l-49.7.2a9.94,9.94,0,0,1-10-9.9l-.1-19.6,69.7-.3.1,19.6A10,10,0,0,1,224.8,286.1Z"/><path class="cls-25" d="M230.9,273.9l-62.1.3a15,15,0,0,1-15.1-14.9l-.2-32.6,92.1-.5.2,32.6A15,15,0,0,1,230.9,273.9Z"/><rect class="cls-26" x="116.7" y="246.8" width="166.1" height="52"/><polygon class="cls-27" points="282.8 298.8 282.8 246.8 222.3 246.8 189.8 298.2 282.8 298.8"/><path class="cls-14" d="M209.5,280a15.17,15.17,0,0,0-2.5,2.9c-1.2,1.8-4.3,1.8-4.4,4.2s4.2,2.5,6.5,1.7,2.6-3.1,4-3.7,2.1-1.1,2-2.2a13.89,13.89,0,0,0-.9-3,6.12,6.12,0,0,1-1.4.3A10.09,10.09,0,0,1,209.5,280Z"/><path class="cls-28" d="M225.2,215s-.9,5.2-1.6,8.7h0a20.26,20.26,0,0,1-.7,2.9,37.86,37.86,0,0,1-3.9,4.3c-3.5,3.6-8.2,8.2-8.2,8.2l-1.8-3.5s4.2-4.9,7-8.1a36.71,36.71,0,0,1,2.5-2.8c.6-.5,1.3-5.7,2.2-10a17.17,17.17,0,0,1,2.9-6.6Z"/><path class="cls-29" d="M219.1,230.8c-3.5,3.6-8.2,8.2-8.2,8.2l-1.8-3.5s4.2-4.9,7-8.1A6.86,6.86,0,0,1,219.1,230.8Z"/><path class="cls-14" d="M241.7,278.6s1.2,1.3,1.9,2.1,3.4,2.2,3.4,4.6c0,2.6-2,2.4-3.8,2.3a4.8,4.8,0,0,1-4-2.8c-.8-1.5-2.8-1.9-2.9-3a9,9,0,0,1,.9-3.3Z"/><path class="cls-30" d="M237.5,276.2l-.2,2.2s3.8,1.6,4.4.1l-.2-2Z"/><path class="cls-30" d="M209.7,278.4l-.2,1.6a7.88,7.88,0,0,0,4.8-.1v-1.4Z"/><path class="cls-28" d="M241.9,238.3c.1.5-24,0-24,0s6.7-4.9,7.1-6.2-1.7-9.1-2-11.6c-.2-2-.8-11.1.6-12.5s6.4-3,6.4-3l7.3.3a15.34,15.34,0,0,1,2.1.7c.9.4,5.8,2.2,6.6,4.6s-4.9,10.4-4.9,10.4v.9h0c0,.8-.1,2-.1,3.3,0,1.7-.1,3.5-.1,4.8A62.75,62.75,0,0,0,241.9,238.3Z"/><path class="cls-31" d="M241.9,238.3s3.3,4.8,3.3,8.1-1.2,12.4-1.3,14.2-1.8,16.9-1.8,16.9-1.3,1.2-5.3-.3c0,0-.9-14.3-1-15.8s-.1-8.6-1-9.6-6.2-4.2-6.9-4.8-12.8,2.3-14.1,2.6c-3.3.9-1.8,6.6-1.1,9.1,1.2,4.3,2.3,19.8,2.3,19.8a11.37,11.37,0,0,1-6.3.2s-7.7-28-8-30.8-.4-7.4,18.6-10.9Z"/><path class="cls-29" d="M232.1,189.1s-6.4-1.4-4.9,6.6,3,8.7,6.8,7,3.5-6.8,3.7-9.3S234.1,189.2,232.1,189.1Z"/><path class="cls-29" d="M230.4,207.1s2.8,3,7.3.3c0,0-1-6.5-.5-9.7s-5.8,4.9-5.8,4.9.1.3.2.8a6.15,6.15,0,0,1-.1,1.3C231.3,205.8,231,206.9,230.4,207.1Z"/><path class="cls-29" d="M235.5,194.6c.1-.7,1.5-1,1.6.1s-.6,2.9-1.2,2.7S235.4,195.6,235.5,194.6Z"/><path class="cls-32" d="M237.4,197.5s-.2-2.5-1.1-2.6-1.1.9-1.1.9l-.9.2s.3-2.2-.6-2.6-6,1.2-6.7.6-.4-5.1.9-5.8,5-2,7.7-.2c0,0,2.1-.2,2.4,1.5A23.28,23.28,0,0,1,237.4,197.5Z"/><path class="cls-33" d="M231.4,204.7c4.6-1.4,5-4.2,5-4.2-1.5,2.6-4.9,2.9-4.9,2.9A6.15,6.15,0,0,1,231.4,204.7Z"/><path class="cls-29" d="M239.5,206s-3.4,6.7-8.8,6.3-.9-7.2-.7-7.2S235.6,203.7,239.5,206Z"/><path class="cls-28" d="M215.1,238s16.7,2.1,26.8.3l-19.3-2.4S222.5,236.4,215.1,238Z"/><path class="cls-29" d="M227.6,235.2l-1.2.6s.3,2,1,2.6l1.4-.4C228.7,238,228.5,235.8,227.6,235.2Z"/><path class="cls-28" d="M246.9,231.1c-.2.3-3.5,1.6-7.2,3h0c-5.1,2-10.8,3.8-10.8,3.8l-1.3-2.8,10-5.5c1.9-1.1,3.4-1.9,3.6-2.1.7-.6.8-1.6.3-3.3s-1.6-9.7-1.7-10.6.3-3.4,2.6-3.5a7.68,7.68,0,0,1,3.5.5s.6.2,1,5.9C247.5,222.1,247.5,230.4,246.9,231.1Z"/><path class="cls-34" d="M241.1,222h0c0,.8-.1,2-.1,3.3-2.3-5.6-1-10-.9-10.1C239.9,216.7,241.1,221.9,241.1,222Z"/><path class="cls-34" d="M223.6,223.7h0a20.26,20.26,0,0,1-.7,2.9,28.61,28.61,0,0,1-.1-8.5A46.08,46.08,0,0,0,223.6,223.7Z"/><path class="cls-29" d="M239.7,234.2h0c-5.1,2-11,3.9-11,3.9l-1.1-2.9,10-5.5C237.7,229.6,239.1,230.4,239.7,234.2Z"/><polygon class="cls-35" points="227.3 238.2 203.5 237.8 215.5 243.9 227.3 238.2"/><polygon class="cls-36" points="215.5 243.9 227.3 239.4 227.3 238.2 214.6 242.8 215.5 243.9"/><path class="cls-29" d="M226.7,235.8a20.05,20.05,0,0,1-2.5-.5,5.18,5.18,0,0,0-3.3.6c-.5.5-2.1,4.1-2.4,4.3s.2.7.7.5c0,0,.5,1.5,1.7,1s2-1.8,2.6-2.1,4.3-1.3,4.3-1.3S227.6,235.5,226.7,235.8Z"/><path class="cls-29" d="M221.2,235.7s-.9.5-1.2.7a14.31,14.31,0,0,1-1.5,1.1c-.2.2.4.7,2.2-.1S221.2,235.7,221.2,235.7Z"/><polygon class="cls-37" points="215.5 243.9 208.5 224.6 185.7 225 192.4 242.8 215.5 243.9"/><path class="cls-38" d="M201.2,233.2c.7,1.4.5,2.9-.5,3.4s-2.3-.3-3-1.7-.5-2.9.5-3.4S200.5,231.8,201.2,233.2Z"/></g><g id="Background_Complete" data-name="Background Complete"><path class="cls-39" d="M1158,158.54v-4l-2-.2a12,12,0,0,0-1.5-3.7l1.3-1.6-2.8-2.8-1.6,1.3a11.08,11.08,0,0,0-3.7-1.5l-.2-2h-3.9l-.2,2a12,12,0,0,0-3.7,1.5l-1.6-1.3-2.8,2.8,1.3,1.6a11.08,11.08,0,0,0-1.5,3.7l-2,.2v4l2,.2a12,12,0,0,0,1.5,3.7l-1.3,1.6,2.8,2.8,1.6-1.3a11.08,11.08,0,0,0,3.7,1.5l.2,2h3.9l.2-2a12,12,0,0,0,3.7-1.5l1.6,1.3,2.8-2.8-1.3-1.6a11.08,11.08,0,0,0,1.5-3.7Zm-12.5,3.3a5.3,5.3,0,1,1,0-10.6,5.34,5.34,0,0,1,5.3,5.3A5.21,5.21,0,0,1,1145.5,161.84Z"/><path class="cls-39" d="M1174,169.64v-3.1l-1.6-.1a8.13,8.13,0,0,0-1.2-2.9l1-1.2-2.2-2.2-1.2,1a7.44,7.44,0,0,0-2.9-1.2l-.1-1.6h-3.1l-.1,1.6a8.13,8.13,0,0,0-2.9,1.2l-1.2-1-2.2,2.2,1,1.2a7.44,7.44,0,0,0-1.2,2.9l-1.6.1v3.1l1.6.1a8.13,8.13,0,0,0,1.2,2.9l-1,1.2,2.2,2.2,1.2-1a7.44,7.44,0,0,0,2.9,1.2l.1,1.6h3.1l.1-1.6a8.13,8.13,0,0,0,2.9-1.2l1.2,1,2.2-2.2-1-1.2a7.44,7.44,0,0,0,1.2-2.9Zm-9.8,2.7a4.2,4.2,0,1,1,4.2-4.2A4.16,4.16,0,0,1,1164.2,172.34Z"/><path class="cls-39" d="M1158,178.44v-2.6l-1.3-.1a6.43,6.43,0,0,0-1-2.4l.9-1-1.8-1.8-1,.9a6.43,6.43,0,0,0-2.4-1l-.1-1.3h-2.6l-.1,1.3a6.43,6.43,0,0,0-2.4,1l-1-.9-1.8,1.8.9,1a6.43,6.43,0,0,0-1,2.4l-1.3.1v2.6l1.3.1a6.43,6.43,0,0,0,1,2.4l-.9,1,1.8,1.8,1-.9a6.43,6.43,0,0,0,2.4,1l.1,1.3h2.6l.1-1.3a6.43,6.43,0,0,0,2.4-1l1,.9,1.8-1.8-.9-1a6.43,6.43,0,0,0,1-2.4Zm-8.2,2.2a3.5,3.5,0,0,1,0-7,3.48,3.48,0,0,1,3.5,3.5A3.54,3.54,0,0,1,1149.8,180.64Z"/></g><g class="cls-40"><g id="Window"><path class="cls-41" d="M1085.6,91.84v162a7.56,7.56,0,0,1-7.3,7.4h-233c-3.9,0-6.8-3.5-6.8-7.4v-162a6.71,6.71,0,0,1,6.8-6.9h233.1A7.11,7.11,0,0,1,1085.6,91.84Z"/><path class="cls-42" d="M1085.6,112v141.8a7.56,7.56,0,0,1-7.3,7.4h-233c-3.9,0-6.8-3.5-6.8-7.4v-55.2c20.5-39.4,69.4-45.8,126.6-22.8C1046.2,208.44,1080.7,164.14,1085.6,112Z"/></g></g><g id="Bar"><path class="cls-43" d="M1022,242.64H903.7a4.12,4.12,0,0,1-4.1-4.1h0a4.12,4.12,0,0,1,4.1-4.1H1022a4.12,4.12,0,0,1,4.1,4.1h0A4.18,4.18,0,0,1,1022,242.64Z"/><path class="cls-12" d="M903.7,241.84a3.2,3.2,0,1,1,0-6.4h69.9a3.2,3.2,0,1,1,0,6.4Z"/><path class="cls-44" d="M903.7,241.84a3.2,3.2,0,1,1,0-6.4h69.9a3.2,3.2,0,1,1,0,6.4Z"/></g><g id="Tab5"><path class="cls-43" d="M923.1,160.94H869a7,7,0,0,1-7-7V99.74a7,7,0,0,1,7-7h54.1a7,7,0,0,1,7,7v54.1A7,7,0,0,1,923.1,160.94Z"/><path class="cls-45" d="M932.3,142.34H887a5.85,5.85,0,0,1-5.9-5.9V91.14a5.85,5.85,0,0,1,5.9-5.9h45.4a5.85,5.85,0,0,1,5.9,5.9v45.4A6,6,0,0,1,932.3,142.34Z"/><path class="cls-46" d="M918.7,151H875.2a5.7,5.7,0,0,1-5.7-5.7v-43.5a5.7,5.7,0,0,1,5.7-5.7h43.5a5.7,5.7,0,0,1,5.7,5.7v43.5A5.63,5.63,0,0,1,918.7,151Z"/><path class="cls-14" d="M901.2,117.34V114l-1.7-.2a9.32,9.32,0,0,0-1.3-3.1l1.1-1.3L897,107l-1.3,1.1a10.7,10.7,0,0,0-3.1-1.3l-.2-1.7h-3.3l-.2,1.7a9.32,9.32,0,0,0-3.1,1.3l-1.3-1.1-2.4,2.4,1.1,1.3a10.7,10.7,0,0,0-1.3,3.1l-1.7.2v3.3l1.7.2a9.32,9.32,0,0,0,1.3,3.1l-1.1,1.3,2.4,2.4,1.3-1.1a10.7,10.7,0,0,0,3.1,1.3l.2,1.7h3.3l.2-1.7a9.32,9.32,0,0,0,3.1-1.3l1.3,1.1,2.4-2.4-1.1-1.3a10.7,10.7,0,0,0,1.3-3.1Zm-10.5,2.8a4.5,4.5,0,1,1,4.5-4.5A4.48,4.48,0,0,1,890.7,120.14Z"/><path class="cls-14" d="M735.7,264.8v-3.3l-1.7-.2a9.32,9.32,0,0,0-1.3-3.1l1.1-1.3-2.3-2.4-1.3,1.1a10.7,10.7,0,0,0-3.1-1.3l-.2-1.7h-3.3l-.2,1.7a9.32,9.32,0,0,0-3.1,1.3l-1.3-1.1-2.3,2.4,1.1,1.3a10.7,10.7,0,0,0-1.3,3.1l-1.7.2v3.3l1.7.2a9.32,9.32,0,0,0,1.3,3.1l-1.1,1.3,2.3,2.4,1.3-1.1a10.7,10.7,0,0,0,3.1,1.3l.2,1.7h3.3l.2-1.7a9.32,9.32,0,0,0,3.1-1.3l1.3,1.1,2.3-2.4-1.1-1.3A10.7,10.7,0,0,0,734,265Zm-10.5,2.8a4.5,4.5,0,1,1,4.5-4.5A4.48,4.48,0,0,1,725.2,267.6Z"/><path class="cls-14" d="M417.6,13.2V9.9l-1.7-.2a9.32,9.32,0,0,0-1.3-3.1l1.1-1.3L413.3,3,412,4.1a10.7,10.7,0,0,0-3.1-1.3l-.2-1.7h-3.3l-.2,1.7a9.32,9.32,0,0,0-3.1,1.3L400.9,3l-2.4,2.4,1.1,1.3a10.7,10.7,0,0,0-1.3,3.1l-1.7.2v3.3l1.7.2a9.32,9.32,0,0,0,1.3,3.1l-1.1,1.3,2.4,2.4,1.3-1.1a10.7,10.7,0,0,0,3.1,1.3l.2,1.7h3.3l.2-1.7a9.32,9.32,0,0,0,3.1-1.3l1.3,1.1,2.4-2.4-1.1-1.3a10.7,10.7,0,0,0,1.3-3.1Zm-10.5,2.9a4.5,4.5,0,1,1,4.5-4.5A4.48,4.48,0,0,1,407.1,16.1Z"/><path class="cls-14" d="M960.7,48.44v-3.3l-1.7-.2a9.32,9.32,0,0,0-1.3-3.1l1.1-1.3-2.4-2.4-1.3,1.1a10.7,10.7,0,0,0-3.1-1.3l-.2-1.7h-3.3l-.1,1.8a9.32,9.32,0,0,0-3.1,1.3l-1.3-1.2-2.4,2.4,1.1,1.3a10.7,10.7,0,0,0-1.3,3.1l-1.7.2v3.3l1.7.2a9.32,9.32,0,0,0,1.3,3.1L941.6,53l2.4,2.4,1.3-1.1a10.7,10.7,0,0,0,3.1,1.3l.2,1.7h3.3l.2-1.7a9.32,9.32,0,0,0,3.1-1.3l1.3,1.1,2.4-2.4-1.1-1.3a10.7,10.7,0,0,0,1.3-3.1Zm-10.4,2.8a4.5,4.5,0,1,1,4.5-4.5A4.55,4.55,0,0,1,950.3,51.24Z"/><path class="cls-14" d="M1108.5,222.44v-3.3l-1.7-.2a9.32,9.32,0,0,0-1.3-3.1l1.1-1.3-2.4-2.4-1.3,1.1a10.7,10.7,0,0,0-3.1-1.3l-.2-1.7h-3.3l-.2,1.7a9.32,9.32,0,0,0-3.1,1.3l-1.3-1.1-2.4,2.4,1.1,1.3a10.7,10.7,0,0,0-1.3,3.1l-1.7.2v3.3l1.7.2a9.32,9.32,0,0,0,1.3,3.1l-1.1,1.3,2.4,2.4,1.3-1.1a10.7,10.7,0,0,0,3.1,1.3l.2,1.7h3.3l.2-1.7a9.32,9.32,0,0,0,3.1-1.3l1.3,1.1,2.4-2.4-1.1-1.3a10.7,10.7,0,0,0,1.3-3.1Zm-10.5,2.9a4.5,4.5,0,1,1,4.5-4.5A4.48,4.48,0,0,1,1098,225.34Z"/><path class="cls-14" d="M914.6,126.64V124l-1.3-.1a6.43,6.43,0,0,0-1-2.4l.9-1-1.8-1.8-1,.9a6.43,6.43,0,0,0-2.4-1l-.1-1.3h-2.6l-.1,1.3a6.43,6.43,0,0,0-2.4,1l-1-.9-1.8,1.8.9,1a6.43,6.43,0,0,0-1,2.4l-1.3.1v2.6l1.3.1a6.43,6.43,0,0,0,1,2.4l-.9,1,1.8,1.8,1-.9a6.43,6.43,0,0,0,2.4,1l.1,1.3h2.6l.1-1.3a6.43,6.43,0,0,0,2.4-1l1,.9,1.8-1.8-.9-1a6.43,6.43,0,0,0,1-2.4Zm-8.1,2.3a3.5,3.5,0,1,1,3.5-3.5A3.54,3.54,0,0,1,906.5,128.94Z"/><path class="cls-14" d="M901.2,134v-2.2l-1.1-.1a7,7,0,0,0-.8-2l.7-.9-1.5-1.5-.9.7a5,5,0,0,0-2-.8l-.1-1.1h-2.2l-.1,1.1a7,7,0,0,0-2,.8l-.9-.7-1.5,1.5.7.9a5,5,0,0,0-.8,2l-1.1.1V134l1.1.1a7,7,0,0,0,.8,2l-.7.9,1.5,1.5.9-.7a5,5,0,0,0,2,.8l.1,1.1h2.2l.1-1.1a7,7,0,0,0,2-.8l.9.7L900,137l-.7-.9a5,5,0,0,0,.8-2Zm-6.9,1.9a3,3,0,1,1,3-3A3.08,3.08,0,0,1,894.3,135.94Z"/></g><g id="Tab4"><path class="cls-43" d="M1021.4,203.84h-50a6.49,6.49,0,0,1-6.5-6.5v-50a6.49,6.49,0,0,1,6.5-6.5h50a6.49,6.49,0,0,1,6.5,6.5v50A6.49,6.49,0,0,1,1021.4,203.84Z"/><path class="cls-12" d="M1028.1,208.34H986.2a5.38,5.38,0,0,1-5.4-5.4V161a5.38,5.38,0,0,1,5.4-5.4h41.9a5.38,5.38,0,0,1,5.4,5.4v41.9A5.38,5.38,0,0,1,1028.1,208.34Z"/><path class="cls-47" d="M1028.1,208.34H986.2a5.38,5.38,0,0,1-5.4-5.4V161a5.38,5.38,0,0,1,5.4-5.4h41.9a5.38,5.38,0,0,1,5.4,5.4v41.9A5.38,5.38,0,0,1,1028.1,208.34Z"/><path class="cls-14" d="M1009.1,190.44a1.9,1.9,0,1,1-1.9-1.9A1.84,1.84,0,0,1,1009.1,190.44Z"/><path class="cls-14" d="M1007.1,171.34a18.88,18.88,0,0,0-18.9,18.9h15.1a3.54,3.54,0,0,1,3.8-3.7,3.59,3.59,0,0,1,1.1.2l7.1-8.2-5,9.7a3.38,3.38,0,0,1,.6,2H1026A19,19,0,0,0,1007.1,171.34Z"/><path class="cls-48" d="M1030.3,208.34H988.4a5.38,5.38,0,0,1-5.4-5.4V161a5.38,5.38,0,0,1,5.4-5.4h41.9a5.38,5.38,0,0,1,5.4,5.4v41.9A5.32,5.32,0,0,1,1030.3,208.34Z"/></g><g id="Tab3"><path class="cls-43" d="M1036.8,163.84H992.9a5.7,5.7,0,0,1-5.7-5.7v-43.9a5.7,5.7,0,0,1,5.7-5.7h43.9a5.7,5.7,0,0,1,5.7,5.7v43.9A5.76,5.76,0,0,1,1036.8,163.84Z"/><path class="cls-12" d="M1043.6,149.94h-36.8a4.8,4.8,0,0,1-4.8-4.8v-36.7a4.8,4.8,0,0,1,4.8-4.8h36.8a4.8,4.8,0,0,1,4.8,4.8v36.8A4.85,4.85,0,0,1,1043.6,149.94Z"/><path class="cls-49" d="M1043.6,149.94h-36.8a4.8,4.8,0,0,1-4.8-4.8v-36.7a4.8,4.8,0,0,1,4.8-4.8h36.8a4.8,4.8,0,0,1,4.8,4.8v36.8A4.85,4.85,0,0,1,1043.6,149.94Z"/><path class="cls-14" d="M1038.1,115.44a1.54,1.54,0,0,0-1.5-1.5h-22.7a1.54,1.54,0,0,0-1.5,1.5v5a1.54,1.54,0,0,0,1.5,1.5h22.7a1.54,1.54,0,0,0,1.5-1.5Zm-7.5,2.7h-1.3v-1.3h1.3Zm3.5.6a1.3,1.3,0,1,1,1.3-1.3A1.32,1.32,0,0,1,1034.1,118.74Z"/><path class="cls-14" d="M1038.1,124.24a1.54,1.54,0,0,0-1.5-1.5h-22.7a1.54,1.54,0,0,0-1.5,1.5v5a1.54,1.54,0,0,0,1.5,1.5h22.7a1.54,1.54,0,0,0,1.5-1.5Zm-7.5,3.2h-1.3v-1.3h1.3Zm3.5.7a1.3,1.3,0,1,1,1.3-1.3A1.32,1.32,0,0,1,1034.1,128.14Z"/><path class="cls-14" d="M1038.1,133.14a1.54,1.54,0,0,0-1.5-1.5h-22.7a1.54,1.54,0,0,0-1.5,1.5v5a1.54,1.54,0,0,0,1.5,1.5h22.7a1.54,1.54,0,0,0,1.5-1.5Zm-7.5,3.7h-1.3v-1.3h1.3Zm3.5.6a1.3,1.3,0,1,1,1.3-1.3A1.32,1.32,0,0,1,1034.1,137.44Z"/><path class="cls-50" d="M1045.5,149.94h-36.8a4.8,4.8,0,0,1-4.8-4.8v-36.7a4.8,4.8,0,0,1,4.8-4.8h36.8a4.8,4.8,0,0,1,4.8,4.8v36.8A4.72,4.72,0,0,1,1045.5,149.94Z"/></g><g id="Tab2"><path class="cls-43" d="M958.1,219.54H904a7,7,0,0,1-7-7v-54.1a7,7,0,0,1,7-7h54.1a7,7,0,0,1,7,7v54.1A7,7,0,0,1,958.1,219.54Z"/><path class="cls-45" d="M964.2,203.64H918.8a5.85,5.85,0,0,1-5.9-5.9v-45.4a5.85,5.85,0,0,1,5.9-5.9h45.4a5.85,5.85,0,0,1,5.9,5.9v45.4A5.85,5.85,0,0,1,964.2,203.64Z"/><path class="cls-51" d="M949.3,209.94H905.8a5.7,5.7,0,0,1-5.7-5.7v-43.5a5.7,5.7,0,0,1,5.7-5.7h43.5a5.7,5.7,0,0,1,5.7,5.7v43.5A5.63,5.63,0,0,1,949.3,209.94Z"/><path class="cls-14" d="M912.4,197.54h0a4.29,4.29,0,0,1,0-6.1l10-10a2.48,2.48,0,0,1,3.4,0l2.6,2.6a2.48,2.48,0,0,1,0,3.4l-10,10A4.08,4.08,0,0,1,912.4,197.54Z"/><polygon class="cls-14" points="930.8 181.04 928.9 179.14 940.2 167.84 942.6 167.34 942.1 169.74 930.8 181.04"/><path class="cls-14" d="M929.7,183.74l-3.5-3.5a.78.78,0,0,1,0-1.1h0a.78.78,0,0,1,1.1,0l3.5,3.5a.78.78,0,0,1,0,1.1h0A.78.78,0,0,1,929.7,183.74Z"/><path class="cls-14" d="M397.1,293h0a4.29,4.29,0,0,1,0-6.1l10-10a2.48,2.48,0,0,1,3.4,0l2.6,2.6a2.48,2.48,0,0,1,0,3.4l-10,10A4.25,4.25,0,0,1,397.1,293Z"/><polygon class="cls-14" points="415.6 276.5 413.6 274.5 424.9 263.2 427.4 262.7 426.9 265.2 415.6 276.5"/><path class="cls-14" d="M414.5,279.1l-3.5-3.5a.78.78,0,0,1,0-1.1h0a.78.78,0,0,1,1.1,0l3.5,3.5a.78.78,0,0,1,0,1.1h0A.78.78,0,0,1,414.5,279.1Z"/><path class="cls-14" d="M101.4,255.7h0a4.29,4.29,0,0,1,0-6.1l10-10a2.48,2.48,0,0,1,3.4,0l2.6,2.6a2.48,2.48,0,0,1,0,3.4l-10,10A4.08,4.08,0,0,1,101.4,255.7Z"/><polygon class="cls-14" points="119.8 239.2 117.9 237.3 129.2 226 131.6 225.5 131.1 227.9 119.8 239.2"/><path class="cls-14" d="M118.7,241.9l-3.5-3.5a.78.78,0,0,1,0-1.1h0a.78.78,0,0,1,1.1,0l3.5,3.5a.78.78,0,0,1,0,1.1h0A.78.78,0,0,1,118.7,241.9Z"/><path class="cls-14" d="M925,177l-4.8-4.8c.9-2.4-.9-5.3-2.9-6.1v3.7a1.58,1.58,0,0,1-1.6,1.6,1.56,1.56,0,0,1-1.6-1.5v-3.6a5.22,5.22,0,0,0-3.2,4.4,4.65,4.65,0,0,0,4.1,4.6,4.59,4.59,0,0,0,2.3-.3l4.8,4.8Z"/><path class="cls-14" d="M940.9,195.14v3.6a5.22,5.22,0,0,0,3.2-4.4,4.66,4.66,0,0,0-4-4.7,4.16,4.16,0,0,0-2.2.2l-5-5-2.7,2.7,5,5c-1.4,2.9.8,5.4,2.8,6.2v-3.6a1.47,1.47,0,0,1,1.5-1.5A1.52,1.52,0,0,1,940.9,195.14Z"/></g><g id="Tab1"><path class="cls-12" d="M952.2,136.14h54.7a7.13,7.13,0,0,0,7.1-7.1V74.44a7.13,7.13,0,0,0-7.1-7.1H952.2a7.13,7.13,0,0,0-7.1,7.1V129A7.06,7.06,0,0,0,952.2,136.14Z"/><path class="cls-43" d="M1002.9,160.44H937.7a8.49,8.49,0,0,1-8.5-8.5V86.74a8.49,8.49,0,0,1,8.5-8.5h65.2a8.49,8.49,0,0,1,8.5,8.5v65.2A8.49,8.49,0,0,1,1002.9,160.44Z"/><path class="cls-52" d="M952.2,136.14h54.7a7.13,7.13,0,0,0,7.1-7.1V74.44a7.13,7.13,0,0,0-7.1-7.1H952.2a7.13,7.13,0,0,0-7.1,7.1V129A7.06,7.06,0,0,0,952.2,136.14Z"/><path class="cls-14" d="M979.5,80.44l-21.1,8.3s2.7,29,21.1,34.4c18.4-5.4,21.1-34.4,21.1-34.4Zm-.5,28a1.43,1.43,0,0,1-1.2.6h0a1.43,1.43,0,0,1-1.2-.6l-7.4-10.2a1.41,1.41,0,0,1,.3-2,1.53,1.53,0,0,1,2,.3l6.2,8.6,10.2-13.5a1.44,1.44,0,0,1,2-.3,1.57,1.57,0,0,1,.3,2.1Z"/><path class="cls-50" d="M955.1,136.14h54.7a7.13,7.13,0,0,0,7.1-7.1V74.44a7.13,7.13,0,0,0-7.1-7.1H955.1a7.13,7.13,0,0,0-7.1,7.1V129A7.06,7.06,0,0,0,955.1,136.14Z"/></g><g id="Promt2"><rect class="cls-12" x="311.4" y="197" width="68.6" height="46.3"/><rect class="cls-44" x="311.4" y="197" width="68.6" height="46.3"/><rect class="cls-53" x="312.7" y="200.5" width="65.9" height="41.2"/><rect class="cls-39" x="315.7" y="206.9" width="54.2" height="1.2"/><rect class="cls-39" x="315.7" y="210.3" width="46.1" height="1.2"/><rect class="cls-39" x="315.7" y="213.7" width="54.2" height="1.2"/><rect class="cls-39" x="315.7" y="217.2" width="46.1" height="1.2"/><rect class="cls-39" x="315.7" y="220.6" width="5.9" height="1.2"/><rect class="cls-39" x="315.7" y="224" width="30" height="1.2"/><rect class="cls-39" x="315.7" y="227.4" width="46.1" height="1.2"/><rect class="cls-39" x="315.7" y="230.9" width="5.9" height="1.2"/><rect class="cls-39" x="315.7" y="234.3" width="5.9" height="1.2"/></g></g></g></g></g></svg>