<?xml version="1.0" encoding="utf-8"?>
<!-- Generator: Adobe Illustrator 26.0.2, SVG Export Plug-In . SVG Version: 6.00 Build 0)  -->
<svg version="1.1" id="Layer_1" xmlns="http://www.w3.org/2000/svg" xmlns:xlink="http://www.w3.org/1999/xlink" x="0px" y="0px"
	 viewBox="0 0 1245 300" style="enable-background:new 0 0 1245 300;" xml:space="preserve">
<style type="text/css">
	.st0{display:none;}
	.st1{display:inline;}
	.st2{fill:#407BFF;}
	.st3{opacity:0.9;fill:#FFFFFF;enable-background:new    ;}
	.st4{clip-path:url(#SVGID_00000010273227265127217240000003415106860338284947_);}
	.st5{opacity:0.5;fill:#D7E7FF;enable-background:new    ;}
	.st6{fill:#7BABFF;}
	.st7{fill:#F2D05F;}
	.st8{fill:#FFFFFF;}
	.st9{fill:#F1CE7C;}
	.st10{fill:#F4D78B;}
	.st11{filter:url(#Adobe_OpacityMaskFilter);}
	.st12{clip-path:url(#SVGID_00000164485721908505181040000011939464751046621321_);}
	
		.st13{clip-path:url(#SVGID_00000150070163985976594920000012239009548726096309_);fill:url(#SVGID_00000118372570158517150660000007770796025894282941_);}
	
		.st14{mask:url(#SVGID_00000013873547718700782730000011753100671345095580_);fill:url(#SVGID_00000090282751338893379070000015058987259866078110_);}
	.st15{fill:url(#SVGID_00000178897205903241052190000010463770762862145958_);}
	.st16{filter:url(#Adobe_OpacityMaskFilter_00000001665530550315503570000005158251635095821457_);}
	.st17{clip-path:url(#SVGID_00000109736863412464129230000016946576524046018748_);}
	
		.st18{clip-path:url(#SVGID_00000181078322689848122720000016656493072400876683_);fill:url(#SVGID_00000122699613852355882590000011118710830042960536_);}
	
		.st19{mask:url(#SVGID_00000035505620977093588430000011328773989664938417_);fill:url(#SVGID_00000163034560568575809680000000492484634691120821_);}
	.st20{fill:url(#SVGID_00000043415019270195880070000001379755803444779393_);}
	.st21{filter:url(#Adobe_OpacityMaskFilter_00000056388519308044451350000004243966417104205756_);}
	.st22{clip-path:url(#SVGID_00000085938894564359146900000007628360470500194729_);}
	
		.st23{clip-path:url(#SVGID_00000034770224432416817390000014553340266514382753_);fill:url(#SVGID_00000150093626945892395880000001572168689437010820_);}
	
		.st24{mask:url(#SVGID_00000074437688522206639790000015841392578645440442_);fill:url(#SVGID_00000083081706336888968080000009800851533507392903_);}
	.st25{fill:url(#SVGID_00000090975483917920094940000017178093879176840122_);}
	.st26{fill:#BB6949;}
	.st27{fill:url(#SVGID_00000013890113680349839730000005395378525211498646_);}
	.st28{fill:#2457B2;}
	.st29{fill:#194D99;}
	.st30{fill:#C64253;}
	.st31{fill:#DBA585;}
	.st32{fill:#6E8AC5;}
	.st33{fill:#334E8B;}
	.st34{fill:#3E4148;}
	.st35{fill:#997761;}
	.st36{fill:#8B313D;}
	.st37{fill:#5D5954;}
	.st38{fill:#8C867E;}
	.st39{fill:#6C6760;}
	.st40{fill:#7B6F66;}
	.st41{fill:none;stroke:#2457B2;stroke-width:5;stroke-linecap:round;stroke-linejoin:round;stroke-miterlimit:10;}
	.st42{fill:#E0E0E0;}
	.st43{opacity:0.1;fill:#FFFFFF;enable-background:new    ;}
	.st44{opacity:0.2;enable-background:new    ;}
	.st45{opacity:0.7;fill:#FFFFFF;enable-background:new    ;}
	.st46{opacity:0.3;fill:#FFFFFF;enable-background:new    ;}
	.st47{opacity:0.2;fill:#FFFFFF;enable-background:new    ;}
	.st48{opacity:0.5;fill:#FFFFFF;enable-background:new    ;}
	.st49{fill:#3D332E;}
	.st50{fill:none;stroke:#332B26;stroke-miterlimit:10;}
	.st51{fill:#413731;}
	.st52{fill:#51443D;}
	.st53{fill:#332B26;}
	.st54{fill:#263238;}
</style>
<g id="Background_Simple" class="st0">
	<g class="st1">
		<path class="st2" d="M447,23.9c11.6-17.4,28.9-30.5,50.4-32.2C518.4-10,539,0.9,553.9,15c44.4,42,49.2,124.2,112,147.1
			c26.2,9.5,53.1-2.9,78.8-8.2c20-4.1,40.7,2.7,44.6,25.1c4.4,25-12.7,51.4-26.6,70.6c-15.2,21-38.7,35.5-63.6,41.8
			c-52.4,13.2-109.7-5.5-155-31.7c-13.9-8.1-27.3-17.2-39.6-27.6c-48.7-41-83-103.3-73-168.4C433.6,50,439,36,447,23.9z"/>
		<path class="st3" d="M447,23.9c11.6-17.4,28.9-30.5,50.4-32.2C518.4-10,539,0.9,553.9,15c44.4,42,49.2,124.2,112,147.1
			c26.2,9.5,53.1-2.9,78.8-8.2c20-4.1,40.7,2.7,44.6,25.1c4.4,25-12.7,51.4-26.6,70.6c-15.2,21-38.7,35.5-63.6,41.8
			c-52.4,13.2-109.7-5.5-155-31.7c-13.9-8.1-27.3-17.2-39.6-27.6c-48.7-41-83-103.3-73-168.4C433.6,50,439,36,447,23.9z"/>
	</g>
</g>
<g id="Shadow_1_">
</g>
<g id="Character">
</g>
<g>
	<defs>
		<rect id="SVGID_1_" width="1245" height="300"/>
	</defs>
	<clipPath id="SVGID_00000075140203283228036910000003023754190334606000_">
		<use xlink:href="#SVGID_1_"  style="overflow:visible;"/>
	</clipPath>
	<g id="Promt1" style="clip-path:url(#SVGID_00000075140203283228036910000003023754190334606000_);">
		<path class="st5" d="M-4.4,58c0,0,12,8.1,119.8-18S228.1-4.6,336.3,12.1s267.1,49.7,297.1,49.9c30,0.1,105.4-24.9,174.7-25.8
			s184.4,22.5,231.2,17.3c46.8-5.2,128.2-28.4,161.9-19.6c33.7,8.8,35,269,35,269H15.6L-4.4,58z"/>
		<path class="st5" d="M1245,65.7c0,0-12,8.1-119.8-18S1012.5,3.1,904.3,19.8S637.2,69.5,607.2,69.6c-30,0.1-105.4-24.9-174.7-25.8
			S248.1,66.3,201.3,61.1S73,32.7,39.3,41.5s-35,269-35,269H1225L1245,65.7z"/>
		<g>
			<g>
				<g>
					<path class="st6" d="M405.8,105.5c-1.2-0.4-2.3-1.1-3-2c-0.8-1.1-1.1-2.4-0.9-3.6c0.3-2.5,0.1-5.1-0.2-7c-2.5-3-3.3-7-2.2-10.7
						c1.8-6.2,8.3-9.7,14.4-7.9c6.2,1.8,9.7,8.3,7.9,14.4c-1,3.4-3.4,6.1-6.6,7.5c-1.3,2.1-2.3,4.2-2.8,6c-0.6,2.5-3.4,4-6.3,3.4
						C406.1,105.5,405.9,105.5,405.8,105.5z M413.7,75.2c-5.7-1.6-11.6,1.6-13.3,7.3c-1,3.5-0.2,7.2,2.1,9.9l0.1,0.1l0,0.1
						c0.3,1.9,0.5,4.7,0.2,7.4l0,0c-0.2,1,0,2,0.7,2.8c0.7,0.9,1.7,1.5,2.9,1.8c2.4,0.5,4.7-0.7,5.2-2.7l0,0l0,0
						c0.6-2,1.6-4.1,3-6.4l0.1-0.1l0.1-0.1c3-1.3,5.3-3.8,6.2-6.9C422.7,82.8,419.4,76.8,413.7,75.2z"/>
				</g>
				<g>
					<polygon class="st6" points="404.5,101.1 405.6,88.4 407.7,91.1 409.7,89.6 410.8,91.6 413.6,90 409.5,102.2 408.6,101.9 
						411.9,92 410.4,92.9 409.4,91 407.6,92.4 406.3,90.8 405.4,101.2 					"/>
				</g>
				<g>
					
						<rect x="404.4" y="101.9" transform="matrix(0.2118 -0.9773 0.9773 0.2118 216.4496 480.4713)" class="st6" width="3.3" height="8.3"/>
				</g>
				<g>
					
						<rect x="403.9" y="98.2" transform="matrix(0.2118 -0.9773 0.9773 0.2118 219.1286 479.1245)" class="st6" width="5.4" height="10.9"/>
				</g>
			</g>
			<g>
				<g>
					<path class="st6" d="M810.8,215.6c-1.5-0.4-2.9-1.3-3.8-2.5c-1-1.4-1.4-3-1.1-4.5c0.4-3.1,0.1-6.5-0.2-8.8
						c-3.1-3.8-4.2-8.8-2.8-13.5c2.3-7.8,10.4-12.3,18.3-10c7.8,2.3,12.3,10.4,10,18.3c-1.2,4.2-4.3,7.7-8.3,9.4
						c-1.7,2.7-2.9,5.2-3.6,7.6c-0.7,3.2-4.3,5.1-7.9,4.3C811.2,215.7,811,215.6,810.8,215.6z M820.8,177.4
						c-7.2-2.1-14.7,2.1-16.8,9.2c-1.3,4.4-0.3,9,2.7,12.5l0.1,0.1l0,0.2c0.3,2.4,0.7,6,0.2,9.3l0,0c-0.3,1.2,0.1,2.5,0.9,3.6
						c0.9,1.1,2.2,1.9,3.6,2.2c3,0.7,6-0.9,6.5-3.4l0,0l0,0c0.7-2.5,2-5.2,3.8-8l0.1-0.2l0.2-0.1c3.8-1.6,6.7-4.8,7.8-8.7
						C832.1,187,828,179.4,820.8,177.4z"/>
				</g>
				<g>
					<polygon class="st6" points="809.2,210.1 810.6,194 813.3,197.4 815.8,195.6 817.1,198.1 820.7,196.1 815.5,211.5 814.4,211.1 
						818.6,198.6 816.6,199.7 815.4,197.4 813,199.1 811.5,197.1 810.4,210.2 					"/>
				</g>
				<g>
					
						<rect x="809.1" y="211.1" transform="matrix(0.2118 -0.9773 0.9773 0.2118 427.9074 963.2977)" class="st7" width="4.2" height="10.4"/>
				</g>
				<g>
					
						<rect x="808.4" y="206.5" transform="matrix(0.2118 -0.9773 0.9773 0.2118 431.2655 961.6117)" class="st6" width="6.8" height="13.8"/>
				</g>
			</g>
			<g>
				<g>
					<g>
						<g>
							<polygon class="st6" points="278.5,213 277.5,212.6 285.4,189.9 302.8,185.1 308.8,160.1 322.3,154 325.1,134.7 326,134.8 
								323.2,154.7 309.7,160.8 303.6,185.9 286.1,190.7 							"/>
						</g>
					</g>
				</g>
				<g>
					<g>
						<path class="st6" d="M305.2,183.8c0.9,1.1,0.8,2.8-0.3,3.7s-2.8,0.8-3.7-0.3c-0.9-1.1-0.8-2.8,0.3-3.7
							C302.6,182.5,304.3,182.7,305.2,183.8z"/>
					</g>
				</g>
				<g>
					<g>
						<path class="st6" d="M305.2,187.9c-1.3,1.1-3.3,0.9-4.4-0.4c-1.1-1.3-0.9-3.3,0.4-4.4c1.3-1.1,3.3-0.9,4.4,0.4
							C306.7,184.8,306.5,186.8,305.2,187.9z M301.9,183.8c-0.9,0.8-1,2.1-0.3,3c0.8,0.9,2.1,1,3,0.3c0.9-0.8,1-2.1,0.3-3
							C304.1,183.2,302.8,183.1,301.9,183.8z"/>
					</g>
				</g>
				<g>
					<g>
						<path class="st6" d="M311.3,159c0.9,1.1,0.8,2.8-0.3,3.7c-1.1,0.9-2.8,0.8-3.7-0.3c-0.9-1.1-0.8-2.8,0.3-3.7
							C308.7,157.7,310.4,157.8,311.3,159z"/>
					</g>
				</g>
				<g>
					<g>
						<path class="st6" d="M311.3,163c-1.3,1.1-3.3,0.9-4.4-0.4c-1.1-1.3-0.9-3.3,0.4-4.4c1.3-1.1,3.3-0.9,4.4,0.4
							C312.8,160,312.6,161.9,311.3,163z M307.9,159c-0.9,0.8-1,2.1-0.3,3c0.8,0.9,2.1,1,3,0.3c0.9-0.8,1-2.1,0.3-3
							C310.2,158.4,308.8,158.3,307.9,159z"/>
					</g>
				</g>
				<g>
					<g>
						<path class="st6" d="M324.6,152.7c0.9,1.1,0.8,2.8-0.3,3.7c-1.1,0.9-2.8,0.8-3.7-0.3c-0.9-1.1-0.8-2.8,0.3-3.7
							S323.6,151.6,324.6,152.7z"/>
					</g>
				</g>
				<g>
					<g>
						<path class="st6" d="M324.5,156.8c-1.3,1.1-3.3,0.9-4.4-0.4c-1.1-1.3-0.9-3.3,0.4-4.4c1.3-1.1,3.3-0.9,4.4,0.4
							C326,153.7,325.9,155.6,324.5,156.8z M321.2,152.7c-0.9,0.8-1,2.1-0.3,3c0.8,0.9,2.1,1,3,0.3c0.9-0.8,1-2.1,0.3-3
							C323.4,152.1,322.1,152,321.2,152.7z"/>
					</g>
				</g>
				<g>
					<g>
						<path class="st8" d="M287.9,188.8c0.9,1.1,0.8,2.8-0.3,3.7c-1.1,0.9-2.8,0.8-3.7-0.3c-0.9-1.1-0.8-2.8,0.3-3.7
							C285.3,187.6,286.9,187.7,287.9,188.8z"/>
					</g>
				</g>
				<g>
					<g>
						<path class="st9" d="M287.8,192.9c-1.3,1.1-3.3,0.9-4.4-0.4c-1.1-1.3-0.9-3.3,0.4-4.4c1.3-1.1,3.3-0.9,4.4,0.4
							C289.3,189.8,289.2,191.8,287.8,192.9z M284.5,188.9c-0.9,0.8-1,2.1-0.3,3c0.8,0.9,2.1,1,3,0.3c0.9-0.8,1-2.1,0.3-3
							C286.7,188.3,285.4,188.1,284.5,188.9z"/>
					</g>
				</g>
			</g>
			<path class="st6" d="M276.8,108c-0.2-36.4-35.1-65.7-78-65.5c-42.9,0.2-77.5,29.9-77.3,66.3c0,9.6,2.5,18.7,6.9,26.9
				c0,0,23.9,46.2,27.5,90.2c0.1,20.5,19.8,37.1,44,37c24.2-0.1,43.8-16.9,43.7-37.4c3.1-44,26.6-90.4,26.6-90.4l0,0
				C274.5,126.7,276.8,117.6,276.8,108z"/>
			<polygon class="st6" points="290.1,19.1 298.8,19.1 296.1,13.6 287.4,13.6 			"/>
			<polygon class="st6" points="286,19.1 288.1,19.1 285.4,13.6 283.3,13.6 			"/>
			<rect x="106.8" y="24.2" class="st6" width="22.3" height="1.6"/>
			<rect x="416.2" y="176.5" class="st6" width="22.3" height="6.6"/>
			<rect x="96.3" y="35.9" class="st6" width="13.2" height="1"/>
			<rect x="469.1" y="23.6" class="st6" width="13.2" height="2.7"/>
			<rect x="132.8" y="15.7" class="st10" width="1" height="18.4"/>
			<rect x="71.5" y="166" class="st6" width="17.6" height="3.2"/>
			<rect x="71.5" y="164.5" class="st6" width="17.6" height="0.6"/>
			<g>
				<path class="st6" d="M299.1,124.2l-2.7-0.5c6.5-32.9,1-59.5-16-76.9C267.4,33.5,252.3,30,252.2,30l0.6-2.7
					c0.6,0.1,15.9,3.6,29.4,17.4C294.6,57.3,307.6,81.4,299.1,124.2z"/>
			</g>
			<g>
				<path class="st6" d="M113.8,165.6c-26.3-49.8-9.9-76.9-9.1-78l2.4,1.5c-0.2,0.3-16.2,26.9,9.2,75.2L113.8,165.6z"/>
			</g>
			<path class="st8" d="M233.6,117.9c0.7-1.9,1.2-3.9,1.3-5.9l4-1.5l-0.8-4.6l-0.8-4.6l-4.3-0.1c-0.8-1.8-1.9-3.6-3.2-5.1l1.7-3.9
				l-3.8-2.7l-3.8-2.7l-3.1,2.9c-1.9-0.7-3.9-1.2-5.9-1.3l-1.5-4l-4.6,0.8l-4.6,0.8l-0.1,4.3c-1.8,0.8-3.6,1.9-5.1,3.2l-3.9-1.7
				l-2.7,3.8l-2.7,3.8l2.9,3.1c-0.7,1.9-1.2,3.9-1.4,5.9l-4,1.5l0.8,4.6l0.8,4.6l4.3,0.1c0.8,1.8,1.9,3.6,3.2,5.1l-1.7,3.9l3.8,2.7
				l3.8,2.7l3.1-2.9c1.9,0.7,3.9,1.2,5.9,1.3l1.5,4l4.6-0.8l4.6-0.8l0.1-4.3c1.8-0.8,3.6-1.9,5.1-3.2l3.9,1.7l2.7-3.8l2.7-3.8
				L233.6,117.9z M206.6,119.4c-5.1-3.6-6.3-10.7-2.7-15.8c3.6-5.1,10.7-6.3,15.8-2.7c5.1,3.6,6.3,10.7,2.7,15.8
				C218.8,121.8,211.7,123,206.6,119.4z"/>
			<path class="st8" d="M191.7,142.7c0.5-1.2,0.7-2.5,0.9-3.7l2.5-1l-0.5-2.9l-0.5-2.9l-2.7-0.1c-0.5-1.2-1.2-2.3-2-3.2l1.1-2.5
				l-2.4-1.7l-2.4-1.7l-2,1.8c-1.2-0.5-2.5-0.7-3.7-0.9l-1-2.5l-2.9,0.5l-2.9,0.5l-0.1,2.7c-1.2,0.5-2.3,1.2-3.2,2l-2.5-1.1
				l-1.7,2.4l-1.7,2.4l1.8,2c-0.5,1.2-0.7,2.5-0.9,3.7l-2.5,1l0.5,2.9l0.5,2.9l2.7,0.1c0.5,1.2,1.2,2.3,2,3.2l-1.1,2.5l2.4,1.7
				l2.4,1.7l2-1.8c1.2,0.5,2.5,0.7,3.7,0.9l1,2.5l2.9-0.5l2.9-0.5l0.1-2.7c1.2-0.5,2.3-1.2,3.2-2l2.5,1.1l1.7-2.4l1.7-2.4
				L191.7,142.7z M174.7,143.6c-3.2-2.3-4-6.8-1.7-10c2.3-3.2,6.8-4,10-1.7c3.2,2.3,4,6.8,1.7,10
				C182.4,145.2,177.9,145.9,174.7,143.6z"/>
			<g>
				<g>
					<defs>
						<filter id="Adobe_OpacityMaskFilter" filterUnits="userSpaceOnUse" x="171" y="157.8" width="16.7" height="108.2">
							<feColorMatrix  type="matrix" values="1 0 0 0 0  0 1 0 0 0  0 0 1 0 0  0 0 0 1 0"/>
						</filter>
					</defs>
					
						<mask maskUnits="userSpaceOnUse" x="171" y="157.8" width="16.7" height="108.2" id="SVGID_00000041267980290714328390000014196766915028948619_">
						<g class="st11">
							<g>
								<defs>
									<polygon id="SVGID_00000109018333238935496580000017796353265670507938_" points="-5.3,-181.7 -4.4,-181.7 -5.3,-180.8 
																			"/>
								</defs>
								<defs>
									<polygon id="SVGID_00000068655898898891997500000016741927982160103868_" points="-7,-183.4 -7.9,-183.4 -7,-184.3 
																			"/>
								</defs>
								<clipPath id="SVGID_00000155128462541935334980000014527997080647617977_">
									<use xlink:href="#SVGID_00000109018333238935496580000017796353265670507938_"  style="overflow:visible;"/>
								</clipPath>
								
									<clipPath id="SVGID_00000147898256046447497770000017677575807678016918_" style="clip-path:url(#SVGID_00000155128462541935334980000014527997080647617977_);">
									<use xlink:href="#SVGID_00000068655898898891997500000016741927982160103868_"  style="overflow:visible;"/>
								</clipPath>
								
									<linearGradient id="SVGID_00000117671651347002694410000013377331759346795923_" gradientUnits="userSpaceOnUse" x1="179.3495" y1="185.3721" x2="179.3495" y2="65.9734" gradientTransform="matrix(1 0 0 -1 0 300)">
									<stop  offset="7.772020e-03" style="stop-color:#000000"/>
									<stop  offset="1" style="stop-color:#FFFFFF"/>
								</linearGradient>
								
									<polygon style="clip-path:url(#SVGID_00000147898256046447497770000017677575807678016918_);fill:url(#SVGID_00000117671651347002694410000013377331759346795923_);" points="
									187.7,265.6 184.6,266 171,158.2 174.1,157.8 								"/>
							</g>
						</g>
					</mask>
					
						<linearGradient id="SVGID_00000173144152979821512150000016711943826126081666_" gradientUnits="userSpaceOnUse" x1="179.3495" y1="185.3721" x2="179.3495" y2="65.9734" gradientTransform="matrix(1 0 0 -1 0 300)">
						<stop  offset="7.772020e-03" style="stop-color:#000000"/>
						<stop  offset="1" style="stop-color:#FFFFFF"/>
					</linearGradient>
					
						<polygon style="mask:url(#SVGID_00000041267980290714328390000014196766915028948619_);fill:url(#SVGID_00000173144152979821512150000016711943826126081666_);" points="
						187.7,265.6 184.6,266 171,158.2 174.1,157.8 					"/>
				</g>
			</g>
			
				<linearGradient id="SVGID_00000134949483943158191780000016087775763866745753_" gradientUnits="userSpaceOnUse" x1="179.1747" y1="164.7424" x2="179.1747" y2="70.2408" gradientTransform="matrix(1 0 0 -1 0 300)">
				<stop  offset="7.772020e-03" style="stop-color:#F5DB93"/>
				<stop  offset="1" style="stop-color:#FFFFFF"/>
			</linearGradient>
			<polygon style="fill:url(#SVGID_00000134949483943158191780000016087775763866745753_);" points="185.8,254.7 183.3,255 
				172.5,169.7 175,169.4 			"/>
			<g>
				<g>
					<defs>
						
							<filter id="Adobe_OpacityMaskFilter_00000141439474466622685280000004367664954168279450_" filterUnits="userSpaceOnUse" x="228.4" y="157.5" width="15.7" height="108.3">
							<feColorMatrix  type="matrix" values="1 0 0 0 0  0 1 0 0 0  0 0 1 0 0  0 0 0 1 0"/>
						</filter>
					</defs>
					
						<mask maskUnits="userSpaceOnUse" x="228.4" y="157.5" width="15.7" height="108.3" id="SVGID_00000013181804455544826070000006741823770859265689_">
						<g style="filter:url(#Adobe_OpacityMaskFilter_00000141439474466622685280000004367664954168279450_);">
							<g>
								<defs>
									<polygon id="SVGID_00000143578048549326840800000010614070345997976230_" points="-5.3,-181.7 -4.4,-181.7 -5.3,-180.8 
																			"/>
								</defs>
								<defs>
									<polygon id="SVGID_00000025430581901584460970000007231118431585417917_" points="-7,-183.4 -7.9,-183.4 -7,-184.3 
																			"/>
								</defs>
								<clipPath id="SVGID_00000137835678943106790090000008115079865067177100_">
									<use xlink:href="#SVGID_00000143578048549326840800000010614070345997976230_"  style="overflow:visible;"/>
								</clipPath>
								
									<clipPath id="SVGID_00000069375977389014607050000005878433958983194811_" style="clip-path:url(#SVGID_00000137835678943106790090000008115079865067177100_);">
									<use xlink:href="#SVGID_00000025430581901584460970000007231118431585417917_"  style="overflow:visible;"/>
								</clipPath>
								
									<linearGradient id="SVGID_00000054239017139021413220000012468479735074102418_" gradientUnits="userSpaceOnUse" x1="236.212" y1="185.3728" x2="236.212" y2="65.9731" gradientTransform="matrix(1 0 0 -1 0 300)">
									<stop  offset="7.772020e-03" style="stop-color:#000000"/>
									<stop  offset="1" style="stop-color:#FFFFFF"/>
								</linearGradient>
								
									<polygon style="clip-path:url(#SVGID_00000069375977389014607050000005878433958983194811_);fill:url(#SVGID_00000054239017139021413220000012468479735074102418_);" points="
									228.4,265.4 231.5,265.7 244,157.8 240.9,157.5 								"/>
							</g>
						</g>
					</mask>
					
						<linearGradient id="SVGID_00000044859588333722404980000012038025340315036601_" gradientUnits="userSpaceOnUse" x1="236.212" y1="185.3728" x2="236.212" y2="65.9731" gradientTransform="matrix(1 0 0 -1 0 300)">
						<stop  offset="7.772020e-03" style="stop-color:#000000"/>
						<stop  offset="1" style="stop-color:#FFFFFF"/>
					</linearGradient>
					
						<polygon style="mask:url(#SVGID_00000013181804455544826070000006741823770859265689_);fill:url(#SVGID_00000044859588333722404980000012038025340315036601_);" points="
						228.4,265.4 231.5,265.7 244,157.8 240.9,157.5 					"/>
				</g>
			</g>
			
				<linearGradient id="SVGID_00000029740145390743326180000013255634039132107146_" gradientUnits="userSpaceOnUse" x1="224.1802" y1="164.743" x2="224.1802" y2="70.2406" gradientTransform="matrix(1 0 0 -1 0 300)">
				<stop  offset="7.772020e-03" style="stop-color:#F5DB93"/>
				<stop  offset="1" style="stop-color:#FFFFFF"/>
			</linearGradient>
			<polygon style="fill:url(#SVGID_00000029740145390743326180000013255634039132107146_);" points="218,254.6 220.4,254.9 
				230.4,169.4 227.9,169.2 			"/>
			<g>
				<g>
					<g>
						<defs>
							
								<filter id="Adobe_OpacityMaskFilter_00000114043301290598355630000007381612064154739626_" filterUnits="userSpaceOnUse" x="173.7" y="171" width="55.7" height="11.6">
								<feColorMatrix  type="matrix" values="1 0 0 0 0  0 1 0 0 0  0 0 1 0 0  0 0 0 1 0"/>
							</filter>
						</defs>
						
							<mask maskUnits="userSpaceOnUse" x="173.7" y="171" width="55.7" height="11.6" id="SVGID_00000099646518374728560730000004735069760495935915_">
							<g style="filter:url(#Adobe_OpacityMaskFilter_00000114043301290598355630000007381612064154739626_);">
								<g>
									<defs>
										<polygon id="SVGID_00000048490896074641013740000014901326119428245396_" points="33,-99.2 33.7,-99.2 33,-98.6 
																					"/>
									</defs>
									<defs>
										<polygon id="SVGID_00000155133086835558091170000007568654573144009116_" points="31.7,-100.6 31,-100.6 31.7,-101.3 
																					"/>
									</defs>
									<clipPath id="SVGID_00000042738695078720511970000007381032530057871275_">
										<use xlink:href="#SVGID_00000048490896074641013740000014901326119428245396_"  style="overflow:visible;"/>
									</clipPath>
									
										<clipPath id="SVGID_00000133500869436548389720000002150884837187502505_" style="clip-path:url(#SVGID_00000042738695078720511970000007381032530057871275_);">
										<use xlink:href="#SVGID_00000155133086835558091170000007568654573144009116_"  style="overflow:visible;"/>
									</clipPath>
									
										<linearGradient id="SVGID_00000120539168607155196440000007768748301924111764_" gradientUnits="userSpaceOnUse" x1="201.5927" y1="164.7441" x2="201.5927" y2="70.2389" gradientTransform="matrix(1 0 0 -1 0 300)">
										<stop  offset="7.772020e-03" style="stop-color:#000000"/>
										<stop  offset="1" style="stop-color:#FFFFFF"/>
									</linearGradient>
									
										<polygon style="clip-path:url(#SVGID_00000133500869436548389720000002150884837187502505_);fill:url(#SVGID_00000120539168607155196440000007768748301924111764_);" points="
										219.7,182.6 210.4,173.4 201.3,182.6 192.3,173.6 183.5,182.5 173.7,172.8 174.9,171.6 183.5,180.1 192.3,171.2 
										201.3,180.1 210.4,171 219.7,180.2 228.2,171.6 229.5,172.8 									"/>
								</g>
							</g>
						</mask>
						
							<linearGradient id="SVGID_00000152246989106105081280000004583166201728619427_" gradientUnits="userSpaceOnUse" x1="201.5927" y1="164.7441" x2="201.5927" y2="70.2389" gradientTransform="matrix(1 0 0 -1 0 300)">
							<stop  offset="7.772020e-03" style="stop-color:#000000"/>
							<stop  offset="1" style="stop-color:#FFFFFF"/>
						</linearGradient>
						
							<polygon style="mask:url(#SVGID_00000099646518374728560730000004735069760495935915_);fill:url(#SVGID_00000152246989106105081280000004583166201728619427_);" points="
							219.7,182.6 210.4,173.4 201.3,182.6 192.3,173.6 183.5,182.5 173.7,172.8 174.9,171.6 183.5,180.1 192.3,171.2 201.3,180.1 
							210.4,171 219.7,180.2 228.2,171.6 229.5,172.8 						"/>
					</g>
				</g>
				
					<linearGradient id="SVGID_00000029751313088796130160000008426123556049283768_" gradientUnits="userSpaceOnUse" x1="201.5927" y1="164.7441" x2="201.5927" y2="70.2389" gradientTransform="matrix(1 0 0 -1 0 300)">
					<stop  offset="7.772020e-03" style="stop-color:#F5DB93"/>
					<stop  offset="1" style="stop-color:#FFFFFF"/>
				</linearGradient>
				<polygon style="fill:url(#SVGID_00000029751313088796130160000008426123556049283768_);" points="219.7,182.6 210.4,173.4 
					201.3,182.6 192.3,173.6 183.5,182.5 173.7,172.8 174.9,171.6 183.5,180.1 192.3,171.2 201.3,180.1 210.4,171 219.7,180.2 
					228.2,171.6 229.5,172.8 				"/>
			</g>
			<path class="st26" d="M224.8,286.1l-49.7,0.2c-5.5,0-10-4.4-10-9.9l-0.1-19.6l69.7-0.3l0.1,19.6
				C234.8,281.6,230.3,286.1,224.8,286.1z"/>
			
				<linearGradient id="SVGID_00000082348645163438261060000015008587825040799377_" gradientUnits="userSpaceOnUse" x1="153.5847" y1="49.7841" x2="245.8513" y2="49.7841" gradientTransform="matrix(1 0 0 -1 0 300)">
				<stop  offset="0" style="stop-color:#81D3E4"/>
				<stop  offset="1" style="stop-color:#6076FA"/>
			</linearGradient>
			<path style="fill:url(#SVGID_00000082348645163438261060000015008587825040799377_);" d="M230.9,273.9l-62.1,0.3
				c-8.3,0-15-6.6-15.1-14.9l-0.2-32.6l92.1-0.5l0.2,32.6C245.9,267.1,239.2,273.8,230.9,273.9z"/>
			<rect x="116.7" y="246.8" class="st28" width="166.1" height="52"/>
			<polygon class="st29" points="282.8,298.8 282.8,246.8 222.3,246.8 189.8,298.2 			"/>
			<g>
				<path class="st8" d="M209.5,280c0,0-1.3,1.1-2.5,2.9c-1.2,1.8-4.3,1.8-4.4,4.2c-0.1,2.4,4.2,2.5,6.5,1.7c2.3-0.8,2.6-3.1,4-3.7
					c1.4-0.6,2.1-1.1,2-2.2c-0.1-1.1-0.9-3-0.9-3s-0.9,0.3-1.4,0.3C212.4,280.3,210.7,280.3,209.5,280z"/>
				<path class="st30" d="M225.2,215c0,0-0.9,5.2-1.6,8.7l0,0c-0.3,1.4-0.5,2.5-0.7,2.9c-0.2,0.4-1.8,2.2-3.9,4.3
					c-3.5,3.6-8.2,8.2-8.2,8.2l-1.8-3.5c0,0,4.2-4.9,7-8.1c1.3-1.5,2.3-2.7,2.5-2.8c0.6-0.5,1.3-5.7,2.2-10c1-4.3,2.9-6.6,2.9-6.6
					L225.2,215z"/>
				<path class="st31" d="M219.1,230.8c-3.5,3.6-8.2,8.2-8.2,8.2l-1.8-3.5c0,0,4.2-4.9,7-8.1C216.9,227.9,218.4,228.9,219.1,230.8z"
					/>
				<g>
					<path class="st8" d="M241.7,278.6c0,0,1.2,1.3,1.9,2.1c0.7,0.8,3.4,2.2,3.4,4.6c0,2.6-2,2.4-3.8,2.3c-1.8-0.1-3.3-1.3-4-2.8
						c-0.8-1.5-2.8-1.9-2.9-3c-0.1-1.2,0.9-3.3,0.9-3.3L241.7,278.6z"/>
				</g>
				<path class="st32" d="M237.5,276.2l-0.2,2.2c0,0,3.8,1.6,4.4,0.1l-0.2-2L237.5,276.2z"/>
				<path class="st32" d="M209.7,278.4l-0.2,1.6c0,0,2.3,0.8,4.8-0.1l0-1.4L209.7,278.4z"/>
				<path class="st30" d="M241.9,238.3c0.1,0.5-24,0-24,0s6.7-4.9,7.1-6.2s-1.7-9.1-2-11.6c-0.2-2-0.8-11.1,0.6-12.5
					c1.4-1.5,6.4-3,6.4-3l7.3,0.3c0,0,1.2,0.3,2.1,0.7c0.9,0.4,5.8,2.2,6.6,4.6c0.8,2.5-4.9,10.4-4.9,10.4s0,0.4,0,0.9l0,0
					c0,0.8-0.1,2-0.1,3.3c0,1.7-0.1,3.5-0.1,4.8C241,233.3,241.8,237.9,241.9,238.3z"/>
				<path class="st33" d="M241.9,238.3c0,0,3.3,4.8,3.3,8.1c0,3.3-1.2,12.4-1.3,14.2c-0.1,1.8-1.8,16.9-1.8,16.9s-1.3,1.2-5.3-0.3
					c0,0-0.9-14.3-1-15.8c-0.1-1.5-0.1-8.6-1-9.6c-0.9-1-6.2-4.2-6.9-4.8c-0.7-0.6-12.8,2.3-14.1,2.6c-3.3,0.9-1.8,6.6-1.1,9.1
					c1.2,4.3,2.3,19.8,2.3,19.8s-2.3,1-6.3,0.2c0,0-7.7-28-8-30.8c-0.2-2.8-0.4-7.4,18.6-10.9L241.9,238.3z"/>
				<path class="st31" d="M232.1,189.1c0,0-6.4-1.4-4.9,6.6c1.5,8,3,8.7,6.8,7c3.8-1.7,3.5-6.8,3.7-9.3
					C237.9,190.8,234.1,189.2,232.1,189.1z"/>
				<path class="st31" d="M230.4,207.1c0,0,2.8,3,7.3,0.3c0,0-1-6.5-0.5-9.7c0.5-3.2-5.8,4.9-5.8,4.9c0.1,0,0.1,0.3,0.2,0.8
					c0,0.4,0,0.8-0.1,1.3C231.3,205.8,231,206.9,230.4,207.1z"/>
				<path class="st31" d="M235.5,194.6c0.1-0.7,1.5-1,1.6,0.1c0.1,1.1-0.6,2.9-1.2,2.7C235.4,197.3,235.4,195.6,235.5,194.6z"/>
				<path class="st34" d="M237.4,197.5c0,0-0.2-2.5-1.1-2.6c-0.9-0.1-1.1,0.9-1.1,0.9l-0.9,0.2c0,0,0.3-2.2-0.6-2.6
					c-0.9-0.4-6,1.2-6.7,0.6c-0.7-0.7-0.4-5.1,0.9-5.8c1.3-0.6,5-2,7.7-0.2c0,0,2.1-0.2,2.4,1.5
					C238.4,191.2,237.9,196.2,237.4,197.5z"/>
				<path class="st35" d="M231.4,204.7c4.6-1.4,5-4.2,5-4.2c-1.5,2.6-4.9,2.9-4.9,2.9C231.5,203.8,231.5,204.2,231.4,204.7z"/>
				<path class="st31" d="M239.5,206c0,0-3.4,6.7-8.8,6.3c-5.4-0.4-0.9-7.2-0.7-7.2C230.3,205,235.6,203.7,239.5,206z"/>
				<path class="st30" d="M215.1,238c0,0,16.7,2.1,26.8,0.3l-19.3-2.4C222.6,235.9,222.5,236.4,215.1,238z"/>
				<path class="st31" d="M227.6,235.2l-1.2,0.6c0,0,0.3,2,1,2.6l1.4-0.4C228.7,238,228.5,235.8,227.6,235.2z"/>
				<path class="st30" d="M246.9,231.1c-0.2,0.3-3.5,1.6-7.2,3l0,0c-5.1,2-10.8,3.8-10.8,3.8l-1.3-2.8c0,0,6-3.3,10-5.5
					c1.9-1.1,3.4-1.9,3.6-2.1c0.7-0.6,0.8-1.6,0.3-3.3c-0.5-1.7-1.6-9.7-1.7-10.6c-0.1-0.9,0.3-3.4,2.6-3.5c2.3-0.1,3.5,0.5,3.5,0.5
					s0.6,0.2,1,5.9C247.5,222.1,247.5,230.4,246.9,231.1z"/>
				<path class="st36" d="M241.1,222L241.1,222c0,0.8-0.1,2-0.1,3.3c-2.3-5.6-1-10-0.9-10.1C239.9,216.7,241.1,221.9,241.1,222z"/>
				<path class="st36" d="M223.6,223.7L223.6,223.7c-0.3,1.4-0.5,2.5-0.7,2.9c-0.8-3.7-0.1-8.5-0.1-8.5
					C222.9,220.3,223.6,223.7,223.6,223.7z"/>
				<path class="st31" d="M239.7,234.2L239.7,234.2c-5.1,2-11,3.9-11,3.9l-1.1-2.9c0,0,6-3.3,10-5.5
					C237.7,229.6,239.1,230.4,239.7,234.2z"/>
				<polygon class="st37" points="227.3,238.2 203.5,237.8 215.5,243.9 				"/>
				<polygon class="st38" points="215.5,243.9 227.3,239.4 227.3,238.2 214.6,242.8 				"/>
				<g>
					<path class="st31" d="M226.7,235.8c0,0-1.5-0.2-2.5-0.5c-0.8-0.2-2.8,0.1-3.3,0.6c-0.5,0.5-2.1,4.1-2.4,4.3
						c-0.3,0.2,0.2,0.7,0.7,0.5c0,0,0.5,1.5,1.7,1c1.2-0.6,2-1.8,2.6-2.1c0.6-0.2,4.3-1.3,4.3-1.3S227.6,235.5,226.7,235.8z"/>
				</g>
				<g>
					<path class="st31" d="M221.2,235.7c0,0-0.9,0.5-1.2,0.7c-0.2,0.2-1.3,1-1.5,1.1c-0.2,0.2,0.4,0.7,2.2-0.1
						C222.5,236.6,221.2,235.7,221.2,235.7z"/>
				</g>
				<polygon class="st39" points="215.5,243.9 208.5,224.6 185.7,225 192.4,242.8 				"/>
				<path class="st40" d="M201.2,233.2c0.7,1.4,0.5,2.9-0.5,3.4c-1,0.5-2.3-0.3-3-1.7c-0.7-1.4-0.5-2.9,0.5-3.4
					C199.2,231,200.5,231.8,201.2,233.2z"/>
			</g>
		</g>
		<line class="st41" x1="74.7" y1="298.4" x2="1184.3" y2="297.3"/>
	</g>
	<g id="Background_Complete" style="clip-path:url(#SVGID_00000075140203283228036910000003023754190334606000_);">
		<g>
			<g>
				<path class="st42" d="M1158,117.5v-4l-2-0.2c-0.3-1.3-0.8-2.6-1.5-3.7l1.3-1.6l-2.8-2.8l-1.6,1.3c-1.1-0.7-2.3-1.2-3.7-1.5
					l-0.2-2h-3.9l-0.2,2c-1.3,0.3-2.6,0.8-3.7,1.5l-1.6-1.3l-2.8,2.8l1.3,1.6c-0.7,1.1-1.2,2.3-1.5,3.7l-2,0.2v4l2,0.2
					c0.3,1.3,0.8,2.6,1.5,3.7l-1.3,1.6l2.8,2.8l1.6-1.3c1.1,0.7,2.3,1.2,3.7,1.5l0.2,2h3.9l0.2-2c1.3-0.3,2.6-0.8,3.7-1.5l1.6,1.3
					l2.8-2.8l-1.3-1.6c0.7-1.1,1.2-2.3,1.5-3.7L1158,117.5z M1145.5,120.8c-3,0-5.3-2.4-5.3-5.3c0-3,2.4-5.3,5.3-5.3
					s5.3,2.4,5.3,5.3C1150.9,118.4,1148.5,120.8,1145.5,120.8z"/>
				<path class="st42" d="M1174,128.6v-3.1l-1.6-0.1c-0.2-1-0.6-2-1.2-2.9l1-1.2l-2.2-2.2l-1.2,1c-0.9-0.6-1.8-1-2.9-1.2l-0.1-1.6
					h-3.1l-0.1,1.6c-1,0.2-2,0.6-2.9,1.2l-1.2-1l-2.2,2.2l1,1.2c-0.6,0.9-1,1.8-1.2,2.9l-1.6,0.1v3.1l1.6,0.1c0.2,1,0.6,2,1.2,2.9
					l-1,1.2l2.2,2.2l1.2-1c0.9,0.6,1.8,1,2.9,1.2l0.1,1.6h3.1l0.1-1.6c1-0.2,2-0.6,2.9-1.2l1.2,1l2.2-2.2l-1-1.2
					c0.6-0.9,1-1.8,1.2-2.9L1174,128.6z M1164.2,131.3c-2.3,0-4.2-1.9-4.2-4.2c0-2.3,1.9-4.2,4.2-4.2s4.2,1.9,4.2,4.2
					C1168.4,129.4,1166.6,131.3,1164.2,131.3z"/>
				<path class="st42" d="M1158,137.4v-2.6l-1.3-0.1c-0.2-0.9-0.5-1.7-1-2.4l0.9-1l-1.8-1.8l-1,0.9c-0.7-0.5-1.5-0.8-2.4-1l-0.1-1.3
					h-2.6l-0.1,1.3c-0.9,0.2-1.7,0.5-2.4,1l-1-0.9l-1.8,1.8l0.9,1c-0.5,0.7-0.8,1.5-1,2.4l-1.3,0.1v2.6l1.3,0.1
					c0.2,0.9,0.5,1.7,1,2.4l-0.9,1l1.8,1.8l1-0.9c0.7,0.5,1.5,0.8,2.4,1l0.1,1.3h2.6l0.1-1.3c0.9-0.2,1.7-0.5,2.4-1l1,0.9l1.8-1.8
					l-0.9-1c0.5-0.7,0.8-1.5,1-2.4L1158,137.4z M1149.8,139.6c-1.9,0-3.5-1.6-3.5-3.5s1.6-3.5,3.5-3.5c2,0,3.5,1.6,3.5,3.5
					S1151.7,139.6,1149.8,139.6z"/>
			</g>
		</g>
	</g>
	<g id="Window" style="clip-path:url(#SVGID_00000075140203283228036910000003023754190334606000_);">
		<path class="st6" d="M1085.6,50.8v162c0,3.9-3.4,7.4-7.3,7.4H845.3c-3.9,0-6.8-3.5-6.8-7.4v-162c0-3.9,2.9-6.9,6.8-6.9h233.1
			C1082.2,43.9,1085.6,46.9,1085.6,50.8z"/>
		<path class="st43" d="M1085.6,71v141.8c0,3.9-3.4,7.4-7.3,7.4H845.3c-3.9,0-6.8-3.5-6.8-7.4v-55.2c20.5-39.4,69.4-45.8,126.6-22.8
			C1046.2,167.4,1080.7,123.1,1085.6,71z"/>
	</g>
	<g id="Bar" style="clip-path:url(#SVGID_00000075140203283228036910000003023754190334606000_);">
		<path class="st44" d="M1022,201.6H903.7c-2.2,0-4.1-1.8-4.1-4.1l0,0c0-2.2,1.8-4.1,4.1-4.1H1022c2.2,0,4.1,1.8,4.1,4.1l0,0
			C1026,199.8,1024.2,201.6,1022,201.6z"/>
		<path class="st6" d="M903.7,200.8c-1.8,0-3.3-1.4-3.3-3.2c0-1.8,1.5-3.2,3.3-3.2h69.9c1.8,0,3.3,1.4,3.3,3.2
			c0,1.8-1.5,3.2-3.3,3.2H903.7z"/>
		<path class="st45" d="M903.7,200.8c-1.8,0-3.3-1.4-3.3-3.2c0-1.8,1.5-3.2,3.3-3.2h69.9c1.8,0,3.3,1.4,3.3,3.2
			c0,1.8-1.5,3.2-3.3,3.2H903.7z"/>
	</g>
	<g id="Tab5" style="clip-path:url(#SVGID_00000075140203283228036910000003023754190334606000_);">
		<path class="st44" d="M923.1,119.9H869c-3.9,0-7-3.1-7-7V58.7c0-3.9,3.1-7,7-7h54.1c3.9,0,7,3.1,7,7v54.1
			C930.2,116.7,927,119.9,923.1,119.9z"/>
		<path class="st6" d="M932.3,101.3H887c-3.3,0-5.9-2.6-5.9-5.9V50.1c0-3.3,2.6-5.9,5.9-5.9h45.4c3.3,0,5.9,2.6,5.9,5.9v45.4
			C938.2,98.7,935.6,101.3,932.3,101.3z"/>
		<path class="st46" d="M918.7,110h-43.5c-3.1,0-5.7-2.5-5.7-5.7V60.8c0-3.1,2.5-5.7,5.7-5.7h43.5c3.1,0,5.7,2.5,5.7,5.7v43.5
			C924.4,107.5,921.9,110,918.7,110z"/>
		<g>
			<path class="st8" d="M901.2,76.3v-3.3l-1.7-0.2c-0.2-1.1-0.7-2.1-1.3-3.1l1.1-1.3L897,66l-1.3,1.1c-0.9-0.6-2-1-3.1-1.3l-0.2-1.7
				h-3.3l-0.2,1.7c-1.1,0.2-2.1,0.7-3.1,1.3l-1.3-1.1l-2.4,2.4l1.1,1.3c-0.6,0.9-1,2-1.3,3.1l-1.7,0.2v3.3l1.7,0.2
				c0.2,1.1,0.7,2.1,1.3,3.1l-1.1,1.3l2.4,2.4l1.3-1.1c0.9,0.6,2,1,3.1,1.3l0.2,1.7h3.3l0.2-1.7c1.1-0.2,2.1-0.7,3.1-1.3l1.3,1.1
				l2.4-2.4l-1.1-1.3c0.6-0.9,1-2,1.3-3.1L901.2,76.3z M890.7,79.1c-2.5,0-4.5-2-4.5-4.5c0-2.5,2-4.5,4.5-4.5s4.5,2,4.5,4.5
				C895.2,77.1,893.2,79.1,890.7,79.1z"/>
			<path class="st8" d="M735.7,264.8v-3.3l-1.7-0.2c-0.2-1.1-0.7-2.1-1.3-3.1l1.1-1.3l-2.3-2.4l-1.3,1.1c-0.9-0.6-2-1-3.1-1.3
				l-0.2-1.7h-3.3l-0.2,1.7c-1.1,0.2-2.1,0.7-3.1,1.3l-1.3-1.1l-2.3,2.4l1.1,1.3c-0.6,0.9-1,2-1.3,3.1l-1.7,0.2v3.3l1.7,0.2
				c0.2,1.1,0.7,2.1,1.3,3.1l-1.1,1.3l2.3,2.4l1.3-1.1c0.9,0.6,2,1,3.1,1.3l0.2,1.7h3.3l0.2-1.7c1.1-0.2,2.1-0.7,3.1-1.3l1.3,1.1
				l2.3-2.4l-1.1-1.3c0.6-0.9,1-2,1.3-3.1L735.7,264.8z M725.2,267.6c-2.5,0-4.5-2-4.5-4.5c0-2.5,2-4.5,4.5-4.5c2.5,0,4.5,2,4.5,4.5
				C729.7,265.6,727.7,267.6,725.2,267.6z"/>
			<path class="st8" d="M417.6,13.2V9.9l-1.7-0.2c-0.2-1.1-0.7-2.1-1.3-3.1l1.1-1.3L413.3,3L412,4.1c-0.9-0.6-2-1-3.1-1.3l-0.2-1.7
				h-3.3l-0.2,1.7c-1.1,0.2-2.1,0.7-3.1,1.3L400.9,3l-2.4,2.4l1.1,1.3c-0.6,0.9-1,2-1.3,3.1l-1.7,0.2v3.3l1.7,0.2
				c0.2,1.1,0.7,2.1,1.3,3.1l-1.1,1.3l2.4,2.4l1.3-1.1c0.9,0.6,2,1,3.1,1.3l0.2,1.7h3.3l0.2-1.7c1.1-0.2,2.1-0.7,3.1-1.3l1.3,1.1
				l2.4-2.4l-1.1-1.3c0.6-0.9,1-2,1.3-3.1L417.6,13.2z M407.1,16.1c-2.5,0-4.5-2-4.5-4.5s2-4.5,4.5-4.5s4.5,2,4.5,4.5
				C411.6,14.1,409.6,16.1,407.1,16.1z"/>
			<path class="st8" d="M960.7,7.4V4.1L959,3.9c-0.2-1.1-0.7-2.1-1.3-3.1l1.1-1.3l-2.4-2.4l-1.3,1.1c-0.9-0.6-2-1-3.1-1.3l-0.2-1.7
				h-3.3L948.4-3c-1.1,0.2-2.1,0.7-3.1,1.3L944-2.9l-2.4,2.4l1.1,1.3c-0.6,0.9-1,2-1.3,3.1l-1.7,0.2v3.3l1.7,0.2
				c0.2,1.1,0.7,2.1,1.3,3.1l-1.1,1.3l2.4,2.4l1.3-1.1c0.9,0.6,2,1,3.1,1.3l0.2,1.7h3.3l0.2-1.7c1.1-0.2,2.1-0.7,3.1-1.3l1.3,1.1
				l2.4-2.4l-1.1-1.3c0.6-0.9,1-2,1.3-3.1L960.7,7.4z M950.3,10.2c-2.5,0-4.5-2-4.5-4.5s2-4.5,4.5-4.5s4.5,2,4.5,4.5
				S952.7,10.2,950.3,10.2z"/>
			<path class="st8" d="M1108.5,181.4v-3.3l-1.7-0.2c-0.2-1.1-0.7-2.1-1.3-3.1l1.1-1.3l-2.4-2.4l-1.3,1.1c-0.9-0.6-2-1-3.1-1.3
				l-0.2-1.7h-3.3l-0.2,1.7c-1.1,0.2-2.1,0.7-3.1,1.3l-1.3-1.1l-2.4,2.4l1.1,1.3c-0.6,0.9-1,2-1.3,3.1l-1.7,0.2v3.3l1.7,0.2
				c0.2,1.1,0.7,2.1,1.3,3.1l-1.1,1.3l2.4,2.4l1.3-1.1c0.9,0.6,2,1,3.1,1.3l0.2,1.7h3.3l0.2-1.7c1.1-0.2,2.1-0.7,3.1-1.3l1.3,1.1
				l2.4-2.4l-1.1-1.3c0.6-0.9,1-2,1.3-3.1L1108.5,181.4z M1098,184.3c-2.5,0-4.5-2-4.5-4.5s2-4.5,4.5-4.5s4.5,2,4.5,4.5
				S1100.5,184.3,1098,184.3z"/>
			<path class="st8" d="M914.6,85.6V83l-1.3-0.1c-0.2-0.9-0.5-1.7-1-2.4l0.9-1l-1.8-1.8l-1,0.9c-0.7-0.5-1.5-0.8-2.4-1l-0.1-1.3
				h-2.6l-0.1,1.3c-0.9,0.2-1.7,0.5-2.4,1l-1-0.9l-1.8,1.8l0.9,1c-0.5,0.7-0.8,1.5-1,2.4l-1.3,0.1v2.6l1.3,0.1
				c0.2,0.9,0.5,1.7,1,2.4l-0.9,1l1.8,1.8l1-0.9c0.7,0.5,1.5,0.8,2.4,1l0.1,1.3h2.6l0.1-1.3c0.9-0.2,1.7-0.5,2.4-1l1,0.9l1.8-1.8
				l-0.9-1c0.5-0.7,0.8-1.5,1-2.4L914.6,85.6z M906.5,87.9c-1.9,0-3.5-1.6-3.5-3.5c0-1.9,1.6-3.5,3.5-3.5c1.9,0,3.5,1.6,3.5,3.5
				C910,86.3,908.4,87.9,906.5,87.9z"/>
			<path class="st8" d="M901.2,93v-2.2l-1.1-0.1c-0.2-0.7-0.4-1.4-0.8-2l0.7-0.9l-1.5-1.5l-0.9,0.7c-0.6-0.4-1.3-0.7-2-0.8l-0.1-1.1
				h-2.2l-0.1,1.1c-0.7,0.2-1.4,0.4-2,0.8l-0.9-0.7l-1.5,1.5l0.7,0.9c-0.4,0.6-0.7,1.3-0.8,2l-1.1,0.1V93l1.1,0.1
				c0.2,0.7,0.4,1.4,0.8,2l-0.7,0.9l1.5,1.5l0.9-0.7c0.6,0.4,1.3,0.7,2,0.8l0.1,1.1h2.2l0.1-1.1c0.7-0.2,1.4-0.4,2-0.8l0.9,0.7
				l1.5-1.5l-0.7-0.9c0.4-0.6,0.7-1.3,0.8-2L901.2,93z M894.3,94.9c-1.6,0-3-1.3-3-3c0-1.6,1.3-3,3-3c1.6,0,3,1.3,3,3
				C897.3,93.5,895.9,94.9,894.3,94.9z"/>
		</g>
	</g>
	<g id="Tab4" style="clip-path:url(#SVGID_00000075140203283228036910000003023754190334606000_);">
		<path class="st44" d="M1021.4,162.8h-50c-3.6,0-6.5-2.9-6.5-6.5v-50c0-3.6,2.9-6.5,6.5-6.5h50c3.6,0,6.5,2.9,6.5,6.5v50
			C1027.9,159.9,1025,162.8,1021.4,162.8z"/>
		<path class="st6" d="M1028.1,167.3h-41.9c-3,0-5.4-2.4-5.4-5.4v-41.9c0-3,2.4-5.4,5.4-5.4h41.9c3,0,5.4,2.4,5.4,5.4v41.9
			C1033.5,164.9,1031.1,167.3,1028.1,167.3z"/>
		<g>
			<path class="st47" d="M1028.1,167.3h-41.9c-3,0-5.4-2.4-5.4-5.4v-41.9c0-3,2.4-5.4,5.4-5.4h41.9c3,0,5.4,2.4,5.4,5.4v41.9
				C1033.5,164.9,1031.1,167.3,1028.1,167.3z"/>
			<g>
				<path class="st8" d="M1009.1,149.4c0,1.1-0.9,1.9-1.9,1.9c-1.1,0-1.9-0.9-1.9-1.9c0-1.1,0.9-1.9,1.9-1.9
					C1008.3,147.5,1009.1,148.3,1009.1,149.4z"/>
				<path class="st8" d="M1007.1,130.3c-10.5,0-18.9,8.5-18.9,18.9h15.1c0-2.4,1.7-3.7,3.8-3.7c0.4,0,0.8,0.1,1.1,0.2l7.1-8.2
					l-5,9.7c0.4,0.6,0.6,1.2,0.6,2h15.1C1026,138.8,1017.5,130.3,1007.1,130.3z"/>
			</g>
		</g>
		<path class="st47" d="M1030.3,167.3h-41.9c-3,0-5.4-2.4-5.4-5.4v-41.9c0-3,2.4-5.4,5.4-5.4h41.9c3,0,5.4,2.4,5.4,5.4v41.9
			C1035.8,164.9,1033.3,167.3,1030.3,167.3z"/>
	</g>
	<g id="Tab3" style="clip-path:url(#SVGID_00000075140203283228036910000003023754190334606000_);">
		<path class="st44" d="M1036.8,122.8h-43.9c-3.2,0-5.7-2.6-5.7-5.7V73.2c0-3.2,2.6-5.7,5.7-5.7h43.9c3.2,0,5.7,2.6,5.7,5.7v43.9
			C1042.5,120.2,1039.9,122.8,1036.8,122.8z"/>
		<path class="st6" d="M1043.6,108.9h-36.8c-2.6,0-4.8-2.1-4.8-4.8V67.4c0-2.6,2.1-4.8,4.8-4.8h36.8c2.6,0,4.8,2.1,4.8,4.8v36.8
			C1048.3,106.8,1046.2,108.9,1043.6,108.9z"/>
		<g>
			<path class="st43" d="M1043.6,108.9h-36.8c-2.6,0-4.8-2.1-4.8-4.8V67.4c0-2.6,2.1-4.8,4.8-4.8h36.8c2.6,0,4.8,2.1,4.8,4.8v36.8
				C1048.3,106.8,1046.2,108.9,1043.6,108.9z"/>
			<g>
				<path class="st8" d="M1038.1,74.4c0-0.8-0.7-1.5-1.5-1.5h-22.7c-0.8,0-1.5,0.7-1.5,1.5v5c0,0.8,0.7,1.5,1.5,1.5h22.7
					c0.8,0,1.5-0.7,1.5-1.5V74.4z M1030.6,77.1h-1.3v-1.3h1.3V77.1z M1034.1,77.7c-0.7,0-1.3-0.6-1.3-1.3s0.6-1.3,1.3-1.3
					c0.7,0,1.3,0.6,1.3,1.3S1034.8,77.7,1034.1,77.7z"/>
				<path class="st8" d="M1038.1,83.2c0-0.8-0.7-1.5-1.5-1.5h-22.7c-0.8,0-1.5,0.7-1.5,1.5v5c0,0.8,0.7,1.5,1.5,1.5h22.7
					c0.8,0,1.5-0.7,1.5-1.5V83.2z M1030.6,86.4h-1.3v-1.3h1.3V86.4z M1034.1,87.1c-0.7,0-1.3-0.6-1.3-1.3s0.6-1.3,1.3-1.3
					c0.7,0,1.3,0.6,1.3,1.3S1034.8,87.1,1034.1,87.1z"/>
				<path class="st8" d="M1038.1,92.1c0-0.8-0.7-1.5-1.5-1.5h-22.7c-0.8,0-1.5,0.7-1.5,1.5v5c0,0.8,0.7,1.5,1.5,1.5h22.7
					c0.8,0,1.5-0.7,1.5-1.5V92.1z M1030.6,95.8h-1.3v-1.3h1.3V95.8z M1034.1,96.4c-0.7,0-1.3-0.6-1.3-1.3c0-0.7,0.6-1.3,1.3-1.3
					c0.7,0,1.3,0.6,1.3,1.3C1035.4,95.8,1034.8,96.4,1034.1,96.4z"/>
			</g>
		</g>
		<path class="st47" d="M1045.5,108.9h-36.8c-2.6,0-4.8-2.1-4.8-4.8V67.4c0-2.6,2.1-4.8,4.8-4.8h36.8c2.6,0,4.8,2.1,4.8,4.8v36.8
			C1050.3,106.8,1048.2,108.9,1045.5,108.9z"/>
	</g>
	<g id="Tab2" style="clip-path:url(#SVGID_00000075140203283228036910000003023754190334606000_);">
		<path class="st44" d="M958.1,178.5H904c-3.9,0-7-3.1-7-7v-54.1c0-3.9,3.1-7,7-7h54.1c3.9,0,7,3.1,7,7v54.1
			C965.2,175.3,962,178.5,958.1,178.5z"/>
		<path class="st6" d="M964.2,162.6h-45.4c-3.3,0-5.9-2.6-5.9-5.9v-45.4c0-3.3,2.6-5.9,5.9-5.9h45.4c3.3,0,5.9,2.6,5.9,5.9v45.4
			C970.1,160,967.5,162.6,964.2,162.6z"/>
		<g>
			<path class="st48" d="M949.3,168.9h-43.5c-3.1,0-5.7-2.5-5.7-5.7v-43.5c0-3.1,2.5-5.7,5.7-5.7h43.5c3.1,0,5.7,2.5,5.7,5.7v43.5
				C955,166.4,952.5,168.9,949.3,168.9z"/>
			<g>
				<g>
					<path class="st8" d="M912.4,156.5L912.4,156.5c-1.7-1.7-1.7-4.4,0-6.1l10-10c0.9-0.9,2.5-0.9,3.4,0l2.6,2.6
						c0.9,0.9,0.9,2.5,0,3.4l-10,10C916.8,158.2,914.1,158.2,912.4,156.5z"/>
					<polygon class="st8" points="930.8,140 928.9,138.1 940.2,126.8 942.6,126.3 942.1,128.7 					"/>
					<path class="st8" d="M929.7,142.7l-3.5-3.5c-0.3-0.3-0.3-0.8,0-1.1l0,0c0.3-0.3,0.8-0.3,1.1,0l3.5,3.5c0.3,0.3,0.3,0.8,0,1.1
						l0,0C930.5,143,930,143,929.7,142.7z"/>
				</g>
				<g>
					<path class="st8" d="M397.1,293L397.1,293c-1.7-1.7-1.7-4.4,0-6.1l10-10c0.9-0.9,2.5-0.9,3.4,0l2.6,2.6c0.9,0.9,0.9,2.5,0,3.4
						l-10,10C401.5,294.6,398.8,294.6,397.1,293z"/>
					<polygon class="st8" points="415.6,276.5 413.6,274.5 424.9,263.2 427.4,262.7 426.9,265.2 					"/>
					<path class="st8" d="M414.5,279.1l-3.5-3.5c-0.3-0.3-0.3-0.8,0-1.1l0,0c0.3-0.3,0.8-0.3,1.1,0l3.5,3.5c0.3,0.3,0.3,0.8,0,1.1
						l0,0C415.3,279.4,414.8,279.4,414.5,279.1z"/>
				</g>
				<g>
					<path class="st8" d="M101.4,255.7L101.4,255.7c-1.7-1.7-1.7-4.4,0-6.1l10-10c0.9-0.9,2.5-0.9,3.4,0l2.6,2.6
						c0.9,0.9,0.9,2.5,0,3.4l-10,10C105.8,257.4,103.1,257.4,101.4,255.7z"/>
					<polygon class="st8" points="119.8,239.2 117.9,237.3 129.2,226 131.6,225.5 131.1,227.9 					"/>
					<path class="st8" d="M118.7,241.9l-3.5-3.5c-0.3-0.3-0.3-0.8,0-1.1l0,0c0.3-0.3,0.8-0.3,1.1,0l3.5,3.5c0.3,0.3,0.3,0.8,0,1.1
						l0,0C119.5,242.2,119,242.2,118.7,241.9z"/>
				</g>
				<path class="st8" d="M925,136l-4.8-4.8c0.9-2.4-0.9-5.3-2.9-6.1l0,3.7c0,0.9-0.7,1.6-1.6,1.6c-0.9,0-1.6-0.7-1.6-1.5l0-3.6
					c-1.5,0.6-3.2,2.4-3.2,4.4c0,2.4,1.8,4.3,4.1,4.6c0.8,0.1,1.5,0,2.3-0.3l4.8,4.8L925,136z"/>
				<path class="st8" d="M940.9,154.1l0,3.6c1.5-0.6,3.2-2.4,3.2-4.4c0-2.4-1.7-4.4-4-4.7c-0.8-0.1-1.4-0.1-2.2,0.2l-5-5l-2.7,2.7
					l5,5c-1.4,2.9,0.8,5.4,2.8,6.2l0-3.6c0-0.9,0.7-1.5,1.5-1.5C940.2,152.6,940.9,153.3,940.9,154.1z"/>
			</g>
		</g>
	</g>
	<g id="Tab1" style="clip-path:url(#SVGID_00000075140203283228036910000003023754190334606000_);">
		<path class="st6" d="M952.2,95.1h54.7c3.9,0,7.1-3.2,7.1-7.1V33.4c0-3.9-3.2-7.1-7.1-7.1h-54.7c-3.9,0-7.1,3.2-7.1,7.1V88
			C945.1,92,948.3,95.1,952.2,95.1z"/>
		<path class="st44" d="M1002.9,119.4h-65.2c-4.7,0-8.5-3.8-8.5-8.5V45.7c0-4.7,3.8-8.5,8.5-8.5h65.2c4.7,0,8.5,3.8,8.5,8.5v65.2
			C1011.4,115.6,1007.6,119.4,1002.9,119.4z"/>
		<g>
			<path class="st48" d="M952.2,95.1h54.7c3.9,0,7.1-3.2,7.1-7.1V33.4c0-3.9-3.2-7.1-7.1-7.1h-54.7c-3.9,0-7.1,3.2-7.1,7.1V88
				C945.1,92,948.3,95.1,952.2,95.1z"/>
			<path class="st8" d="M979.5,39.4l-21.1,8.3c0,0,2.7,29,21.1,34.4c18.4-5.4,21.1-34.4,21.1-34.4L979.5,39.4z M979,67.4
				c-0.3,0.4-0.7,0.6-1.2,0.6c0,0,0,0,0,0c-0.5,0-0.9-0.2-1.2-0.6l-7.4-10.2c-0.5-0.7-0.3-1.6,0.3-2s1.6-0.3,2,0.3l6.2,8.6
				l10.2-13.5c0.5-0.6,1.4-0.8,2-0.3c0.6,0.5,0.8,1.5,0.3,2.1L979,67.4z"/>
		</g>
		<path class="st47" d="M955.1,95.1h54.7c3.9,0,7.1-3.2,7.1-7.1V33.4c0-3.9-3.2-7.1-7.1-7.1h-54.7c-3.9,0-7.1,3.2-7.1,7.1V88
			C948,92,951.2,95.1,955.1,95.1z"/>
	</g>
	<g id="Promt2" style="clip-path:url(#SVGID_00000075140203283228036910000003023754190334606000_);">
		<g>
			<g>
				<path class="st49" d="M1216.7,332.1l-1.2-5.3c-5.5-25-9.9-70.2-9.9-70.6l-3.8,0.4c0,0.5,4.4,45.9,10,71.1l1.2,5.3"/>
			</g>
			<g>
				<path class="st50" d="M1198.2,267.3c0,0,8.6,11.6,10.1,22.8"/>
				<g>
					<path class="st51" d="M1170.5,243.2c13,16.1,27.3,25.1,28.6,25.9c0.1,0,0.1,0.1,0.1,0.1s2.8-31-11.2-47.6
						c-14-16.6-30.1-13.4-30.1-13.4S1156.9,226.3,1170.5,243.2z"/>
					<path class="st52" d="M1170.5,243.2c13,16.1,27.3,25.1,28.6,25.9c-9.4-27.5-41.2-61-41.2-61S1156.9,226.3,1170.5,243.2z"/>
				</g>
			</g>
			<g>
				<path class="st50" d="M1208.2,275.7c0,0-1.6,7.2-0.7,13.6"/>
				<g>
					<path class="st51" d="M1208.1,276.4c0.2,0.2,0.3,0.3,0.3,0.3s13.9-7.3,22.1-26.6c8.2-19.4,4.3-31.1-0.1-33.9
						c0,0-16.1-2-28.2,20.7C1191.1,257.8,1205.7,274,1208.1,276.4z"/>
					<path class="st52" d="M1208.1,276.4c0.2,0.2,0.3,0.3,0.3,0.3s13.9-7.3,22.1-26.6c8.2-19.4,4.3-31.1-0.1-33.9
						C1230.4,216.2,1213.7,241.6,1208.1,276.4z"/>
				</g>
			</g>
			<g>
				<path class="st50" d="M1209.1,301.3c-2.2-8.2-9.4-11.2-9.4-11.2"/>
				<g>
					<path class="st51" d="M1155.2,266.2c0,0,1.6,9.5,21.7,16.9c16.8,6.2,22.5,7.9,23.9,8.3c0.3,0.1,0.4,0.1,0.4,0.1
						s5-12.7-12.6-22.3C1170.9,259.7,1155.2,266.2,1155.2,266.2z"/>
					<path class="st52" d="M1155.2,266.2c0,0,1.6,9.5,21.7,16.9c16.8,6.2,22.5,7.9,23.9,8.3C1180.7,267.2,1155.2,266.2,1155.2,266.2
						z"/>
				</g>
			</g>
			<g>
				<g>
					<path class="st53" d="M1210.6,307.6c0-6,4.2-12.3,4.2-12.3l-0.8-0.5c-0.2,0.3-4.4,6.6-4.4,12.9L1210.6,307.6z"/>
				</g>
				<path class="st51" d="M1214,296.2c0,0,16.1-14.8,22.2-25.5c6-10.6,14.7-20.1,14.7-20.1s-15,3.7-27.4,16.8
					C1211,280.6,1211.1,290.7,1214,296.2z"/>
			</g>
		</g>
		<g>
			<g>
				<path class="st49" d="M25,329.1l0.9-4.1c4.2-19.1,7.6-53.8,7.6-54.2l2.9,0.3c0,0.3-3.4,35.2-7.6,54.5l-0.9,4.1"/>
			</g>
			<g>
				<path class="st50" d="M39.2,279.3c0,0-6.6,8.9-7.7,17.5"/>
				<g>
					<path class="st51" d="M60.4,260.9c-9.9,12.4-20.9,19.3-21.9,19.9c0,0-0.1,0-0.1,0S36.3,257,47,244.3
						c10.8-12.7,23.1-10.3,23.1-10.3S70.9,247.9,60.4,260.9z"/>
					<path class="st52" d="M60.4,260.9c-9.9,12.4-20.9,19.3-21.9,19.9c7.2-21.1,31.6-46.8,31.6-46.8S70.9,247.9,60.4,260.9z"/>
				</g>
			</g>
			<g>
				<path class="st50" d="M31.5,285.8c0,0,1.2,5.5,0.6,10.4"/>
				<g>
					<path class="st51" d="M31.6,286.3c-0.2,0.2-0.2,0.2-0.2,0.2s-10.6-5.6-16.9-20.4c-6.3-14.8-3.3-23.9,0.1-26
						c0,0,12.4-1.6,21.6,15.9C44.7,272,33.5,284.4,31.6,286.3z"/>
					<path class="st52" d="M31.6,286.3c-0.2,0.2-0.2,0.2-0.2,0.2s-10.6-5.6-16.9-20.4c-6.3-14.8-3.3-23.9,0.1-26
						C14.5,240.1,27.3,259.6,31.6,286.3z"/>
				</g>
			</g>
			<g>
				<path class="st50" d="M30.8,305.5c1.7-6.3,7.2-8.6,7.2-8.6"/>
				<g>
					<path class="st51" d="M72.2,278.5c0,0-1.3,7.3-16.6,13c-12.9,4.8-17.3,6.1-18.3,6.3c-0.2,0-0.3,0.1-0.3,0.1s-3.8-9.8,9.7-17.1
						C60.1,273.5,72.2,278.5,72.2,278.5z"/>
					<path class="st52" d="M72.2,278.5c0,0-1.3,7.3-16.6,13c-12.9,4.8-17.3,6.1-18.3,6.3C52.7,279.2,72.2,278.5,72.2,278.5z"/>
				</g>
			</g>
			<g>
				<g>
					<path class="st53" d="M29.7,310.2c0-4.6-3.2-9.4-3.2-9.5l0.6-0.4c0.1,0.2,3.4,5,3.4,9.9L29.7,310.2z"/>
				</g>
				<path class="st51" d="M27.1,301.5c0,0-12.4-11.4-17-19.5c-4.6-8.2-11.3-15.4-11.3-15.4s11.5,2.8,21,12.9
					C29.4,289.5,29.3,297.3,27.1,301.5z"/>
			</g>
		</g>
		<g>
			<g>
				<rect x="311.4" y="197" class="st6" width="68.6" height="46.3"/>
				<rect x="311.4" y="197" class="st45" width="68.6" height="46.3"/>
			</g>
			<rect x="312.7" y="200.5" class="st54" width="65.9" height="41.2"/>
			<g>
				<rect x="315.7" y="206.9" class="st42" width="54.2" height="1.2"/>
				<rect x="315.7" y="210.3" class="st42" width="46.1" height="1.2"/>
				<rect x="315.7" y="213.7" class="st42" width="54.2" height="1.2"/>
				<rect x="315.7" y="217.2" class="st42" width="46.1" height="1.2"/>
				<rect x="315.7" y="220.6" class="st42" width="5.9" height="1.2"/>
				<rect x="315.7" y="224" class="st42" width="30" height="1.2"/>
				<rect x="315.7" y="227.4" class="st42" width="46.1" height="1.2"/>
				<rect x="315.7" y="230.9" class="st42" width="5.9" height="1.2"/>
				<rect x="315.7" y="234.3" class="st42" width="5.9" height="1.2"/>
			</g>
		</g>
	</g>
</g>
</svg>
