<?xml version="1.0" encoding="utf-8"?>
<!-- Generator: Adobe Illustrator 26.0.2, SVG Export Plug-In . SVG Version: 6.00 Build 0)  -->
<svg version="1.1" id="Слой_1" xmlns="http://www.w3.org/2000/svg" xmlns:xlink="http://www.w3.org/1999/xlink" x="0px" y="0px"
	 viewBox="0 0 1245 300" style="enable-background:new 0 0 1245 300;" xml:space="preserve">
<style type="text/css">
	
		.st0{opacity:0.2;clip-path:url(#SVGID_00000083767028544641589070000015811577475018838666_);fill:url(#SVGID_00000044885570392880196110000008536360829128023733_);enable-background:new    ;}
	
		.st1{opacity:0.2;clip-path:url(#SVGID_00000147933729308102816360000007815819430529713072_);fill:url(#SVGID_00000023995544849078387410000004966662138910731396_);enable-background:new    ;}
	.st2{clip-path:url(#SVGID_00000094587764142495221650000009991076367133820064_);}
	.st3{fill:#1D3B54;}
	.st4{fill:#869135;}
	.st5{fill:#48753A;}
	.st6{fill:#BBD070;}
	.st7{fill:#97A43C;}
	.st8{fill:#78C2FF;}
	.st9{fill:#4DA8F2;}
	.st10{fill:#73C0FF;}
	.st11{fill:#DAE8F5;}
	.st12{fill:#1A598C;}
	.st13{fill:#2273B5;}
	.st14{fill:#6EB2EB;}
	.st15{fill:#E3F2FF;}
	.st16{opacity:0.58;}
	.st17{fill:#E0F1FF;}
	.st18{fill:#EEA886;}
	.st19{fill:#E8734D;}
	.st20{opacity:0.82;}
	.st21{fill:#87C9FF;}
	.st22{fill:#D4D8E8;}
	.st23{fill:#A9ADBA;}
	.st24{fill:#1C4154;}
	.st25{fill:#2A617D;}
	.st26{fill:#326EA0;}
	.st27{fill:#215B8A;}
	.st28{fill:#16202E;}
	.st29{fill:#EDDAD3;}
	.st30{fill:#D6C5BE;}
	.st31{fill:#FAE6DE;}
	.st32{fill:#344052;}
	.st33{fill:#A77860;}
	.st34{opacity:0.86;}
	.st35{fill:#A1D4FF;}
	.st36{clip-path:url(#SVGID_00000041265907681501893690000003117622847954487993_);}
	.st37{fill:url(#SVGID_00000046300881067407465790000005174709773683389616_);}
	.st38{fill:url(#SVGID_00000169540062907769159840000011769976351740978352_);}
	.st39{fill:url(#SVGID_00000082342570420373002210000002078897814857532583_);}
	.st40{fill:url(#SVGID_00000161627025530568268030000015062048209790696112_);}
	.st41{fill:url(#SVGID_00000090998795262730352030000007462173765174167982_);}
	.st42{fill:#DBD8E3;}
	.st43{fill:#323657;}
	.st44{fill:#EEA987;}
	.st45{fill:#C4C1CC;}
	.st46{fill:#EFAA88;}
	.st47{fill:#FFC955;}
	.st48{fill:#00327A;}
	.st49{clip-path:url(#SVGID_00000164510719284035878710000006311495032624446125_);fill:#5599FF;}
	.st50{fill:#CFA345;}
	.st51{fill:#EBEBEB;}
	.st52{fill:#CF8C6C;}
	.st53{fill:#162D40;}
	.st54{fill:#D1C0BA;}
	.st55{fill:#54281A;}
	.st56{fill:#DB9C7C;}
	.st57{fill:#366E9C;}
	.st58{fill:#5C544D;}
	.st59{fill:#3C4145;}
	.st60{fill:#FCCCA2;}
	.st61{fill:#E2D2CA;}
	.st62{fill:#63A4FF;}
	.st63{fill:#F25F54;}
	.st64{fill:#C98462;}
	.st65{fill:#DE9D7D;}
	.st66{fill:#C2BEBC;}
	.st67{fill:#D6D6D6;}
	.st68{fill:#E8E8E8;}
	.st69{fill:#C2C2C2;}
</style>
<g>
	<g>
		<g>
			<defs>
				<rect id="SVGID_1_" width="1245" height="300"/>
			</defs>
			<clipPath id="SVGID_00000108989811534829806150000009586626166020389008_">
				<use xlink:href="#SVGID_1_"  style="overflow:visible;"/>
			</clipPath>
			
				<linearGradient id="SVGID_00000111176904208193637710000011036373035037203856_" gradientUnits="userSpaceOnUse" x1="-1896.4871" y1="665.6995" x2="-613.3109" y2="665.6995" gradientTransform="matrix(-1 0 0 1 -628.6486 -502)">
				<stop  offset="0" style="stop-color:#96CBFF"/>
				<stop  offset="1" style="stop-color:#5599FF"/>
			</linearGradient>
			
				<path style="opacity:0.2;clip-path:url(#SVGID_00000108989811534829806150000009586626166020389008_);fill:url(#SVGID_00000111176904208193637710000011036373035037203856_);enable-background:new    ;" d="
				M1265.9,297.6c0-3.3,18-133.6-55.7-162.1C1136.5,107,978-55.4,803,19.6S583.5,35,484,27.1S324.6,12,253.9,8.8
				C207.1,6.7,68.5,49.3,39.2,70.6C-69.6,149.8,18,327.4,18,327.4h1241.9L1265.9,297.6z"/>
		</g>
	</g>
	<g>
		<g>
			<defs>
				<rect id="SVGID_00000057124868361745697280000006381967324509081760_" width="1245" height="300"/>
			</defs>
			<clipPath id="SVGID_00000079470691799566947110000011714392515237845632_">
				<use xlink:href="#SVGID_00000057124868361745697280000006381967324509081760_"  style="overflow:visible;"/>
			</clipPath>
			
				<linearGradient id="SVGID_00000041278710598327569730000001216899761054637187_" gradientUnits="userSpaceOnUse" x1="-15.3385" y1="680.6473" x2="1267.9377" y2="680.6473" gradientTransform="matrix(1 0 0 1 0 -502)">
				<stop  offset="0" style="stop-color:#96CBFF"/>
				<stop  offset="1" style="stop-color:#5599FF"/>
			</linearGradient>
			
				<path style="opacity:0.2;clip-path:url(#SVGID_00000079470691799566947110000011714392515237845632_);fill:url(#SVGID_00000041278710598327569730000001216899761054637187_);enable-background:new    ;" d="
				M-13.4,292.3c0-2.8-18-113.4,55.7-137.5s232.2-162,407.3-98.4s219.5,13.1,319,6.4S928,49.9,998.7,47.2
				c46.9-1.8,185.4,34.3,214.7,52.4c108.8,67.3,21.2,217.9,21.2,217.9H-7.4L-13.4,292.3z"/>
		</g>
	</g>
	<g>
		<g>
			<defs>
				<rect id="SVGID_00000182516007727695054540000017552381908766740881_" width="1245" height="300"/>
			</defs>
			<clipPath id="SVGID_00000072990381197977429220000001778375177113361343_">
				<use xlink:href="#SVGID_00000182516007727695054540000017552381908766740881_"  style="overflow:visible;"/>
			</clipPath>
			<g style="clip-path:url(#SVGID_00000072990381197977429220000001778375177113361343_);">
				<g>
					<g>
						<path class="st3" d="M784.8,287.2c0,0,3.9,5.2,3.3,6c-0.5,0.8-4.5,0.9-7,0s-2.6-7-3.6-9.7c-0.5-1.1,0.5-4.3,1.9-4.5
							s3,0.4,3,0.4S780.8,283.2,784.8,287.2z"/>
					</g>
				</g>
				<g>
					<g>
						<polygon class="st3" points="777.3,283.2 777.3,288.7 778,288.7 778,284.4 						"/>
					</g>
				</g>
				<g>
					<g>
						<path class="st4" d="M894.2,174.1c0,0-1.1,8.1,4.8,14.3s19,4,19,4s-2.2-7.4-7-10.4C906.4,179,897,178,894.2,174.1z"/>
					</g>
				</g>
				<g>
					<g>
						<path class="st5" d="M901.1,158.8c0,0-4.8,9.1-0.7,19s20.7,13.2,20.7,13.2s0.7-9.6-3.6-15.3
							C913.2,169.9,902.5,164.5,901.1,158.8z"/>
					</g>
				</g>
				<g>
					<g>
						<path class="st6" d="M1117.7,41.9c0,0,8.2,12.4,1.2,19s-7.7-0.8-7.7-0.8s-3.7,0.2,3.6-8.2C1118.4,48,1117.7,41.9,1117.7,41.9z
							"/>
					</g>
					<g>
						<path class="st7" d="M1139.7,35.5c0,0,5.9,11.3-7.9,21.9c-13.8,10.7-13.8,18-13.8,18S1108.3,49.1,1139.7,35.5z"/>
					</g>
					<g>
						<path class="st5" d="M1116.2,70.5c-5.2-0.2,2.4-13.4,10.9-16.2c8.5-2.7,15.3-1.6,20.5-4.9
							C1147.8,49.5,1142.1,71.2,1116.2,70.5z"/>
					</g>
				</g>
				<g>
					<rect x="907.1" y="28.2" class="st8" width="1.1" height="131.8"/>
				</g>
				<g>
					<rect x="826.3" y="123" class="st8" width="91" height="1.1"/>
				</g>
				<g>
					<path class="st9" d="M1134.1,227.1H955.5c-8.3,0-15.1-7-15.1-15.7V85.6c0-8.7,6.7-15.7,15.1-15.7h178.6c8.3,0,15.1,7,15.1,15.7
						v125.8C1149.1,220,1142.4,227.1,1134.1,227.1z M955.4,71.2c-7.5,0-13.7,6.5-13.7,14.4v125.8c0,7.9,6.1,14.4,13.7,14.4H1134
						c7.5,0,13.7-6.5,13.7-14.4V85.6c0-7.9-6.1-14.4-13.7-14.4H955.4L955.4,71.2z"/>
				</g>
				<g>
					<path class="st10" d="M1169.5,41.2c-0.9-3.5-2.3-6.9-4.1-9.9l4.1-6.3l-5.8-5.8l-5.8-5.8l-6.3,4.1c-3.1-1.8-6.4-3.2-9.8-4.1
						l-1.5-7.4h-8.2h-8.2l-1.5,7.4c-3.5,0.9-6.9,2.3-9.8,4.1l-6.3-4.1l-5.8,5.8l-5.8,5.8l4.1,6.3c-1.8,3.1-3.2,6.4-4.1,9.8l-7.4,1.5
						v8.2V59l7.4,1.5c0.9,3.5,2.3,6.9,4.1,9.8l-4.1,6.3l5.8,5.8l5.8,5.8l6.3-4.1c3.1,1.8,6.4,3.2,9.8,4.1l1.5,7.4h8.2h8.2l1.5-7.4
						c3.5-0.9,6.9-2.3,9.8-4.1l6.3,4.1l5.8-5.8l5.8-5.8l-4.1-6.3c1.8-3.1,3.2-6.4,4.1-9.8l7.4-1.5v-8.2v-8.2L1169.5,41.2z
						 M1132.2,79.5c-15.8,0-28.7-12.8-28.7-28.7c0-15.8,12.8-28.7,28.7-28.7s28.7,12.8,28.7,28.7S1148.1,79.5,1132.2,79.5z"/>
				</g>
				<g>
					<path class="st11" d="M1132.2,69.4v125.8c0,8.3-6.7,15.1-15.1,15.1h-187c-8.3,0-15.1-6.7-15.1-15.1V69.4
						c0-8.3,6.7-15.1,15.1-15.1h187C1125.5,54.3,1132.2,61.1,1132.2,69.4z"/>
				</g>
				<g>
					<g>
						<path class="st8" d="M1015.9,93.8c-6.7-18.6-24.5-30-43.2-29.6c-4.5,0.2-9.1,1-13.7,2.6c-13.7,4.9-23.5,15.8-27.5,28.7
							c-2.8,8.9-2.8,18.8,0.6,28.2c0.3,0.9,0.7,1.9,1.1,2.8c1.8,4.1,4.1,7.8,6.9,11.1c11.7,13.7,31,19.5,48.9,13.1
							C1012.1,142.4,1024.2,116.9,1015.9,93.8z M985.2,140.2c-13.4,4.8-28,0.5-36.7-9.8c-2.1-2.5-3.8-5.2-5.1-8.3
							c-0.3-0.7-0.6-1.4-0.8-2.1c-2.6-7.1-2.6-14.5-0.4-21.2c3-9.7,10.3-17.8,20.6-21.4c3.4-1.2,6.9-1.8,10.3-1.9
							c14.1-0.4,27.4,8.2,32.5,22.1C1011.6,114.9,1002.5,134,985.2,140.2z"/>
					</g>
					<g>
						<path class="st12" d="M942,98.8l-10.6-3.3c4.1-12.8,13.8-23.8,27.5-28.7c4.5-1.6,9.1-2.5,13.7-2.6l0.3,11.2
							c-3.4,0.1-6.9,0.8-10.3,1.9C952.5,80.9,945.1,89.1,942,98.8z"/>
					</g>
					<g>
						<path class="st13" d="M943.3,122.1l-10.2,4.5c-0.4-0.9-0.8-1.8-1.1-2.8c-3.4-9.4-3.4-19.4-0.6-28.2l10.6,3.3
							c-2.1,6.7-2.1,14.1,0.4,21.2C942.8,120.7,943,121.4,943.3,122.1z"/>
					</g>
					<g>
						<path class="st9" d="M940,137.6c-2.8-3.2-5.1-6.9-6.9-11.1l10.2-4.5c1.3,3.1,3.1,5.9,5.1,8.3L940,137.6z"/>
					</g>
				</g>
				<g>
					<g>
						<path class="st14" d="M942.8,201.6c9.1,4.3,19.5,2,26.1-4.9c1.6-1.7,2.9-3.6,4-5.8c3.2-6.6,2.7-14.1-0.4-20.1
							c-2.2-4.2-5.7-7.7-10.3-9.9c-0.5-0.2-0.9-0.4-1.4-0.6c-2.1-0.8-4.3-1.3-6.5-1.5c-9.1-0.8-18,4.1-22.2,12.8
							C926.7,182.9,931.5,196.3,942.8,201.6z M937.1,174c3.1-6.5,9.8-10.2,16.6-9.6c1.7,0.2,3.2,0.5,4.8,1.2
							c0.3,0.2,0.7,0.2,1.1,0.4c3.5,1.7,6.1,4.3,7.8,7.4c2.4,4.6,2.7,10.1,0.3,15.1c-0.8,1.7-1.8,3.1-3,4.4
							c-4.9,5.2-12.8,6.9-19.5,3.7C936.7,192.5,933.2,182.4,937.1,174z"/>
					</g>
					<g>
						<path class="st12" d="M967.4,173.4l5-2.6c3.2,6,3.6,13.5,0.4,20.1c-1.1,2.2-2.4,4.1-4,5.8l-4.1-3.9c1.2-1.2,2.2-2.7,3-4.4
							C970.1,183.5,969.8,177.9,967.4,173.4z"/>
					</g>
					<g>
						<path class="st13" d="M958.6,165.5l2.1-5.2c0.5,0.2,0.9,0.4,1.4,0.6c4.6,2.1,8.1,5.7,10.3,9.9l-5,2.6
							c-1.7-3.1-4.3-5.8-7.8-7.4C959.3,165.8,959,165.6,958.6,165.5z"/>
					</g>
					<g>
						<path class="st9" d="M954.2,158.8c2.2,0.2,4.3,0.7,6.5,1.5l-2.1,5.2c-1.6-0.7-3.2-1-4.8-1.2L954.2,158.8z"/>
					</g>
				</g>
				<g>
					<path class="st9" d="M1132.2,69.4v125.8c0,8.3-6.7,15.1-15.1,15.1h-82.8v-156h82.8C1125.5,54.3,1132.2,61.1,1132.2,69.4z"/>
				</g>
				<g>
					<path class="st15" d="M1117.7,78.4H1049c-1.1,0-2-0.9-2-2v-4c0-1.1,0.9-2,2-2h68.7c1.1,0,2,0.9,2,2v4
						C1119.7,77.6,1118.8,78.4,1117.7,78.4z"/>
				</g>
				<g>
					<path class="st10" d="M1117.7,95.5H1049c-1.1,0-2-0.9-2-2v-4c0-1.1,0.9-2,2-2h68.7c1.1,0,2,0.9,2,2v4
						C1119.7,94.6,1118.8,95.5,1117.7,95.5z"/>
				</g>
				<g>
					<path class="st10" d="M1113.1,196.6h-59.4c-3.6,0-6.6-3-6.6-6.6v-76.3c0-3.6,3-6.6,6.6-6.6h59.4c3.6,0,6.6,3,6.6,6.6V190
						C1119.7,193.6,1116.7,196.6,1113.1,196.6z"/>
				</g>
				<g class="st16">
					<path class="st17" d="M1059.9,169.6h-9.6c-4.5,0-8.1-3.6-8.1-8.1v-50.2c0-4.5,3.6-8.1,8.1-8.1h9.6c4.5,0,8.1,3.6,8.1,8.1v50.2
						C1068,166,1064.5,169.6,1059.9,169.6z"/>
				</g>
				<g>
					<rect x="874.2" y="47.1" class="st8" width="165.9" height="1.1"/>
				</g>
				<g>
					<path class="st9" d="M890.8,38c-4.9,0-8.9-4-8.9-8.9s4-8.9,8.9-8.9s8.9,4,8.9,8.9C899.7,34.1,895.7,38,890.8,38z M890.8,21.6
						c-4.1,0-7.5,3.4-7.5,7.5s3.4,7.5,7.5,7.5s7.5-3.4,7.5-7.5C898.4,25,895,21.6,890.8,21.6z"/>
				</g>
				<g>
					<path class="st9" d="M569.1,279c-4.9,0-8.9-4-8.9-8.9s4-8.9,8.9-8.9s8.9,4,8.9,8.9C578,274.9,574.1,279,569.1,279z
						 M569.1,262.5c-4.1,0-7.5,3.4-7.5,7.5s3.4,7.5,7.5,7.5s7.5-3.4,7.5-7.5C576.7,265.9,573.3,262.5,569.1,262.5z"/>
				</g>
				<g>
					<path class="st9" d="M412.2,198c-4.9,0-8.9-4-8.9-8.9s4-8.9,8.9-8.9s8.9,4,8.9,8.9C421.1,193.9,417.1,198,412.2,198z
						 M412.2,181.5c-4.1,0-7.5,3.4-7.5,7.5s3.4,7.5,7.5,7.5s7.5-3.4,7.5-7.5C419.8,184.9,416.4,181.5,412.2,181.5z"/>
				</g>
				<g>
					<g>
						<path class="st18" d="M866.9,139.4c0,0,8.3,1.5,8.4,8.5c0.1,7-6.4,17.2-10.5,16.5c-4.2-0.8-8.9-4.5-8.8-8.8
							c0.2-4.3,1.3-9.9,3.3-13C861.2,139.5,864.6,139.2,866.9,139.4z"/>
					</g>
				</g>
				<g>
					<g>
						<path class="st19" d="M856.3,152.4c0,0,0,1.4,2.9,2.6s8.1-0.4,9.4-0.2c1.3,0.2,1.7-0.3,1.7-0.3l0.1,1.4l1.1,0.8
							c0,0,0.8-3.7,3.2-4.1c2.3-0.3,4.3-11-5.8-13.1c0,0-7.5-2.1-9.4,1.7C857.5,145,855.9,149.7,856.3,152.4z"/>
					</g>
				</g>
				<g class="st20">
					<path class="st21" d="M918.2,274.7h-65.1c-5.4,0-9.7-4.4-9.7-9.7v-65.1c0-5.4,4.4-9.7,9.7-9.7h65.1c5.4,0,9.7,4.4,9.7,9.7V265
						C927.9,270.3,923.5,274.7,918.2,274.7z"/>
				</g>
				<g>
					<path class="st15" d="M921.3,62.9v47.3c0,4.6-3.8,8.4-8.5,8.4h-67.6c-4.6,0-8.5-3.8-8.5-8.4V62.9c0-4.6,3.8-8.5,8.5-8.5h67.6
						C917.6,54.3,921.3,58.2,921.3,62.9z"/>
				</g>
				<g>
					<path class="st15" d="M919.5,211.7h-28.8c-1.1,0-2-0.9-2-2v-5.1c0-1.1,0.9-2,2-2h28.8c1.1,0,2,0.9,2,2v5.1
						C921.5,210.8,920.6,211.7,919.5,211.7z"/>
				</g>
				<g>
					<path class="st15" d="M916.8,264.5h-23.7c-2.5,0-4.5-2.1-4.5-4.5v-39c0-2.5,2.1-4.6,4.5-4.6h23.7c2.5,0,4.5,2.1,4.5,4.6v39
						C921.5,262.4,919.4,264.5,916.8,264.5z"/>
				</g>
				<g>
					<g>
						<path class="st15" d="M862.4,228.2c1.5,0.5,3.1,0.8,4.6,0.8c4.9,0.1,9.4-2.2,12.2-5.9c1.9-2.5,3.2-5.6,3.2-9c0-0.3,0-0.7,0-1
							c-0.1-1.5-0.4-3-0.9-4.3c-2.1-5.7-7.5-9.9-14-9.9c-3.5-0.1-6.7,1.1-9.3,3.1c-3.6,2.7-6,7-6,11.8
							C852,220.4,856.3,226.1,862.4,228.2z M855.9,213.7c0.1-3.6,1.8-6.8,4.5-8.9c1.9-1.5,4.4-2.3,7-2.3c4.8,0.1,8.9,3.1,10.5,7.4
							l0,0c0.3,1,0.6,2.1,0.7,3.2c0,0.2,0,0.5,0,0.8c0,2.6-0.9,4.9-2.4,6.8c-2.1,2.7-5.4,4.5-9.1,4.4c-1.2,0-2.4-0.2-3.5-0.6
							C859.1,223.1,855.8,218.8,855.9,213.7z"/>
					</g>
					<g>
						<path class="st12" d="M876.2,220.9l3,2.3c-2.8,3.6-7.2,5.9-12.2,5.9c-1.7,0-3.2-0.3-4.6-0.8l1.2-3.6c1.1,0.3,2.2,0.6,3.5,0.6
							C870.8,225.2,874,223.6,876.2,220.9z"/>
					</g>
					<g>
						<path class="st13" d="M878.5,213.3l3.8-0.2c0,0.3,0,0.7,0,1c-0.1,3.4-1.2,6.5-3.2,9l-3-2.3c1.5-1.9,2.3-4.2,2.4-6.8
							C878.5,213.8,878.5,213.6,878.5,213.3z"/>
					</g>
					<g>
						<path class="st13" d="M878.5,213.3c-0.1-1.2-0.2-2.2-0.7-3.2l0,0l3.6-1.3c0.5,1.4,0.8,2.8,0.9,4.3L878.5,213.3z"/>
					</g>
					<g>
						<path class="st9" d="M858.2,201.8c2.6-2,5.8-3.1,9.3-3.1c6.5,0.1,11.9,4.2,14,9.9l-3.6,1.3l0,0c-1.6-4.3-5.6-7.4-10.5-7.4
							c-2.7,0-5,0.8-7,2.3L858.2,201.8z"/>
					</g>
				</g>
				<g>
					<path class="st18" d="M882.4,194.5c0,0,0.8-0.1,1.3-0.6c0.8-0.8,0.9-2.6,2.6-2.7c1.7-0.1,3.2,4.9,2.9,5.9s-2.5,1.8-5.9,1.7
						C879.8,198.6,882.4,194.5,882.4,194.5z"/>
				</g>
				<g>
					<path class="st18" d="M885.7,191.3c0,0,2.2-1.2,4.8-2.1c2.3-0.8,5.1-1.5,5.5-1.1c0.7,0.9-2,1.5-4.2,2.5
						c-2.1,0.9-1.7,0.8-1.7,0.8s-0.2-0.1,2.2-0.7c2.6-0.7,5.3-1.1,5.6-0.6c0.2,0.2,0.5,1.1-0.6,1c0.6-0.1,0.5-0.2,0.5,0
						c0.2,1.2-3.4,2.6-4.9,3.3c1.2-0.4,2-0.7,1.7,0.2c-0.3,1-5.6,2.9-7.5,3.7C885.2,199.4,885.7,191.3,885.7,191.3z"/>
				</g>
				<g>
					<path class="st22" d="M846.4,160.1c0,0-5.2-0.4-8.9,0s-8.7,3.4-11.8,4.2s-10.4,5.8-10.3,6.5c0.2,0.7,3.1,8.8,8.4,15.3
						C828.3,191.8,846.4,160.1,846.4,160.1z"/>
				</g>
				<g>
					<path class="st23" d="M835.2,163.4c0,0-5.6,4.1-7.5,7.9c-2,3.8-2.7,8.3-2.7,8.3L835.2,163.4z"/>
				</g>
				<g>
					<path class="st24" d="M839.4,286.8c0,0,1.6,1.7,2.5,2.1s11.9,2.3,12.8,3.2c0.8,0.9,0.8,4.5-2.1,4.5s-12.3-0.1-13.9,0
						c-1.6,0.1-8.4,1.4-9,0c-0.7-1.4-0.7-8,0.6-9.5C831.4,285.5,839.4,286.8,839.4,286.8z"/>
				</g>
				<g>
					<path class="st25" d="M839.1,284.8l0.3,2c0,0-3,1.3-9.3,0.3V285L839.1,284.8z"/>
				</g>
				<g>
					<path class="st24" d="M772,281.2c0,0-1.2,1.4-1.8,3.3c-0.4,1.2-2.2,6.7-1.4,8.1c0.8,1.3,7.1,1.6,10.3,1.1s10,0.6,10.7-0.8
						c0.7-1.3,1.1-3.3-0.9-4.1c-2.1-0.8-6.7-2.7-7.6-4.9C780.3,281.8,772,281.2,772,281.2z"/>
				</g>
				<g>
					<path class="st25" d="M782,281.7l-0.9,2.2c0,0-9-0.7-9.1-2.7l2.8-4.1L782,281.7z"/>
				</g>
				<g>
					<g>
						<g>
							<path class="st18" d="M856,156.3c0,0-5,4.3-6.5,3.9c-1.4-0.3,5,9,5,9s6-6,7.5-6.1C863.3,162.9,856,156.3,856,156.3z"/>
						</g>
					</g>
				</g>
				<g>
					<path class="st22" d="M856.3,173.2c-1.7,1-2,1.3-1.8,6.3c0.2,4.9,2.2,8.9,2.4,10.2s2.9,14.7,3.6,15.5c0.8,0.8,9.7-1,11.5-1.6
						c2.7-0.8,14.2-4.7,14.2-4.7l-2.5-5.3c0,0-14.5,3.2-15,2.1c-0.5-1.2-1.6-10.6-2-12.7c-0.4-2.1,0.3-5.3-2.2-10.2
						C862.4,168.3,856.3,173.2,856.3,173.2z"/>
				</g>
				<g>
					<path class="st26" d="M839.3,209.9c0,0,3.1,3.2,3.9,4.3c5.9,7.3,13.9,20.6,14.9,22.9c1,2.3-5,18.8-7.4,24.6
						c-1.2,3-9.8,23.8-9.5,24.3c0.2,0.5-8.9,0.8-13.1-1.3c0,0,6-17.5,7.2-21c1.9-5.2,8.5-19.6,8.6-21c0.2-1.4-10.6-12.9-14.2-15.1
						c-3.6-2.2-12.4-10-13.4-11s-6.6-3.6-6.1-8.7c0.5-5.1,4.3-9,4.3-9L839.3,209.9z"/>
				</g>
				<g>
					<path class="st26" d="M823.2,222.5c0,0-0.6,1.5-1.3,3.6c-1.7,4.5-4.5,11.6-4.9,12.8c-0.7,1.7-4,8.9-5.6,10.3
						c-1.6,1.4-27.9,32.9-28,33.2c-0.1,0.2-9.8-4.8-10.4-6.7c0,0,14.2-18.5,16.5-21.3c2.2-2.7,6.8-6.8,8.4-13.2s12.5-31.3,12.6-32.2
						c0,0,1.7-7.6,4.3-10c2.6-2.3,11.9,0.4,13.3,5.3C829.5,208.9,823.2,222.5,823.2,222.5z"/>
				</g>
				<g>
					<path class="st22" d="M849.1,160.2l2.2-0.8c0,0,5.4,1.2,8.5,5.6l-0.2,1.3C859.4,166.1,851.3,164.4,849.1,160.2z"/>
				</g>
				<g>
					<path class="st23" d="M857.3,191.5c-0.4,0.6-0.8,1-1,1.2s-0.3,0.2-0.6,0.5l0,0l-0.2-8c0,0,1,3.1,1.2,3.6
						C856.8,189.1,857.3,191.5,857.3,191.5z"/>
				</g>
				<g>
					<path class="st27" d="M823.2,222.5c0,0-0.6,1.5-1.3,3.6c-1.8-2.1-5.9-9.9-5.9-9.9c0.2,0.2,1.2,1,1.3,1.2
						C817.5,217.5,823.2,222.5,823.2,222.5z"/>
				</g>
				<g>
					<g>
						<path class="st18" d="M869,154.1c0.2-0.6-0.2-3-1.7-1.6c-1.5,1.3-1.5,4.3-0.7,4.6C867.4,157.3,868.5,155.7,869,154.1z"/>
					</g>
				</g>
				<g>
					<g>
						<path class="st19" d="M863.4,141c0,0-7.2-5.1-7.3,12.3L863.4,141z"/>
					</g>
				</g>
				<g>
					<path class="st22" d="M857.3,191.5c-0.4,0.6-0.8,1-1,1.2s-0.3,0.2-0.6,0.5l0,0c-2.1,1.7-6.6,4.8-8.7,6
						c-2.3,1.2-6.8,11.9-6.8,11.9s-20.9-1.4-25.7-12.2c0,0,3.4-7.6,6.5-12.1s9.8-20.7,13.5-22.9c3.6-2.3,6.7-3.8,13.7-3.6
						c7.1,0.2,11,5.8,11,5.8s5.4,5.8,6,8.9C865.8,177.5,860,187.7,857.3,191.5z"/>
				</g>
				<g>
					<path class="st9" d="M921.3,62.9l-0.2,4.7h-84.5l0.2-4.7c0-4.6,3.8-8.5,8.5-8.5h67.6C917.6,54.3,921.3,58.2,921.3,62.9z"/>
				</g>
				<g>
					<path class="st8" d="M863.4,113.1h-17c-2.2,0-4-1.8-4-4V75.3c0-2.2,1.8-4,4-4h17c2.2,0,4,1.8,4,4v33.9
						C867.3,111.4,865.5,113.1,863.4,113.1z M846.4,72.7c-1.5,0-2.7,1.2-2.7,2.7v33.9c0,1.5,1.2,2.7,2.7,2.7h17
						c1.5,0,2.7-1.2,2.7-2.7v-34c0-1.5-1.2-2.7-2.7-2.7L846.4,72.7L846.4,72.7z"/>
				</g>
				<g>
					<path class="st8" d="M913.7,75.5h-40.5c-0.8,0-1.3-0.6-1.3-1.3v-0.9c0-0.8,0.6-1.3,1.3-1.3h40.5c0.8,0,1.3,0.6,1.3,1.3v0.9
						C915,74.9,914.5,75.5,913.7,75.5z"/>
				</g>
				<g>
					<path class="st8" d="M913.7,82.7h-40.5c-0.8,0-1.3-0.6-1.3-1.3v-0.9c0-0.8,0.6-1.3,1.3-1.3h40.5c0.8,0,1.3,0.6,1.3,1.3v0.9
						C915,82.1,914.5,82.7,913.7,82.7z"/>
				</g>
				<g>
					<path class="st14" d="M1012.1,171.9h-26.7c-1.2,0-2.1-0.9-2.1-2.1v-4.1c0-1.2,0.9-2.1,2.1-2.1h26.7c1.2,0,2.1,0.9,2.1,2.1v4.1
						C1014,171,1013.1,171.9,1012.1,171.9z"/>
				</g>
				<g>
					<path class="st9" d="M1012.1,185.3h-26.7c-1.2,0-2.1-0.9-2.1-2.1v-4.1c0-1.2,0.9-2.1,2.1-2.1h26.7c1.2,0,2.1,0.9,2.1,2.1v4.1
						C1014,184.4,1013.1,185.3,1012.1,185.3z"/>
				</g>
				<g>
					<path class="st13" d="M1012.1,198.7h-26.7c-1.2,0-2.1-0.9-2.1-2.1v-4.1c0-1.2,0.9-2.1,2.1-2.1h26.7c1.2,0,2.1,0.9,2.1,2.1v4.1
						C1014,197.8,1013.1,198.7,1012.1,198.7z"/>
				</g>
				<g>
					<path class="st15" d="M850.4,61.5c0,2-1.7,3.6-3.6,3.6s-3.6-1.7-3.6-3.6s1.7-3.6,3.6-3.6C848.7,57.8,850.4,59.5,850.4,61.5z"/>
				</g>
				<g>
					<g>
						<path class="st13" d="M1126.6,188.5c0,0,14.9,4.8,18.4,4c1.8-0.4,4.6-3.1,7.3-5.8c0.4-0.5,0.8-0.9,1.3-1.4
							c2.9-3.2,5.3-6.3,5.3-6.3s7.2-8.4,1.4-12.2c0,0-2.6,0.2-4.5,2.3s-3.7,5.4-4.2,6.5s-7.6,11.3-7.9,11.6s-3.5-0.6-6-0.8
							c-4.1-0.3-10.1-2.4-10.1-2.4L1126.6,188.5z"/>
					</g>
				</g>
				<g>
					<path class="st28" d="M1147.1,280.5c0,0-1.9,3.4-3.1,4.1c-1.4,0.8-4.1,3.6-5.1,3.7c-1,0.2-4.4,0.8-3.7,2.6
						c0.6,1.6,8.7,1.3,9.6,0.6c0.9-0.8,3.6-3.6,4.8-3.6c1.1,0.1,0.7,4.1,0.7,4.1h1.2c0,0,0.4-4,0.5-4.6c0.2-2-1.2-3.5-1.3-4.6
						s-0.2-2-0.2-2L1147.1,280.5z"/>
				</g>
				<g>
					<path class="st18" d="M1139.3,288.2c0,0,2.7,0.9,4.8-0.2c2.1-1.2,6-3,7.4-3c0,0-0.8-2.3-0.8-2.6c0-0.2-0.1-1.5-0.1-1.5
						l-3.5-0.6c0,0-2.2,3.3-3.2,4.1C1142.9,285.1,1140.3,287.1,1139.3,288.2z"/>
				</g>
				<g>
					<path class="st18" d="M1180,283.6c0,0-0.3,2.3-0.7,3c-0.3,0.7-1.4,3.9-1.8,4.5c-0.5,0.6-1.5,5.2,0,5.7c1.5,0.6,4.9,1.5,6-0.3
						s1.3-3.6,1.2-5s-1.6-7.9-1.6-8.5C1183.1,282.4,1180,283.6,1180,283.6z"/>
				</g>
				<g>
					<path class="st28" d="M1178,289.9c0,0-0.2,3.6,2.6,3.6c2.7,0,3.9-3.2,3.9-3.2s0.9,1.6,0,5s-4.7,2.6-5.6,2.6
						C1178,297.6,1173.9,296.5,1178,289.9z"/>
				</g>
				<g>
					<path class="st12" d="M1175.5,202.6c0,0,3.5,4.4,4.7,7.4c1.2,2.9,3.2,9.4,3,14.3s-1.9,14.3-1.4,16.4s1,6.5,1.5,7.9
						c0.5,1.5,2.6,5.9,2.7,10.4c0.2,4.5-1.5,24.3-1.3,26.1c0.2,1.8-6,0.8-6,0.8s-0.2-17.8-0.8-20.9c-0.7-3.1-1.5-13.5-2.2-14.2
						c-0.6-0.8-2.3-8.6-2.5-9.9c-0.1-1.2-7.4-22.9-7.8-26.5s-9.5-11.7-9.5-11.7S1165,199.2,1175.5,202.6z"/>
				</g>
				<g>
					<path class="st12" d="M1152.9,281.5c1.3-0.2,4.8-20.1,4.4-23.7s-0.8-11.1,0.3-14.2c0.8-2,5.6-12.2,8.7-19.5
						c0.4-1,0.9-2,1.2-2.8c1-2.3,1.7-4,1.7-4.3c0.1-1.3,4.5-24.8-13-14.4c0,0-0.2,1.8-0.4,2.6c-0.2,0.7-4.9,18.1-5.4,24.8
						s-1.7,12.3-1.9,13.7c-0.2,1.4,0.2,6.2,0.6,7.4s-2.7,28.9-2.9,29.6C1146.1,281.3,1151.6,281.6,1152.9,281.5z"/>
				</g>
				<g>
					<g>
						<path class="st29" d="M1163.1,165.5c0,0-3.3,1.6-4.5,1.8s-5.6,6-6.4,8.2c-0.8,2.1,0,5.3,1.6,9s0.1,5,0.8,8.7
							c0.8,3.7,1.4,11.7,1.2,13.7s18.6,2.5,22.9-1.3c0,0-4.3-6.5-4.9-7.4s-0.1-6,0.4-7.2c0.5-1.3,4.1-11.9,4.1-11.9
							s2.6-8.8,0.1-10.7c-2.2-1.7-8.1-2.3-9.1-2.6C1168.4,165.3,1165.2,165.1,1163.1,165.5z"/>
					</g>
				</g>
				<g>
					<g>
						<path class="st30" d="M1162,172.8l-2-2.4l1.7-6.2C1161.8,164.3,1162.3,167.8,1162,172.8z"/>
					</g>
				</g>
				<g>
					<g>
						<path class="st18" d="M1161.5,161.6c0,0,0.7,6.1,0.5,8.1c0,0,3.5,3.5,7.4-4.1c0,0-1.7-3.1-0.4-7.3
							C1170.2,154.2,1161.5,161.6,1161.5,161.6z"/>
					</g>
				</g>
				<g>
					<g>
						<polygon class="st18" points="1162,169.7 1162,172.8 1166,169.9 						"/>
					</g>
				</g>
				<g>
					<g>
						<polygon class="st30" points="1162,172.8 1163.7,170.8 1169.2,165.3 1171,167 						"/>
					</g>
				</g>
				<g>
					<g>
						<path class="st13" d="M1168.4,209.9c1.6,7.4,12.8-0.8,12.8-0.8s-7.4-12.3-4.4-22.2c0-0.1,0.1-0.2,0.1-0.2
							c0.2-0.7,0.3-1.2,0.6-1.7c0-0.1,0.1-0.2,0.1-0.3c0.7-1.9,1.2-3.6,1.6-4.9l0,0c1.3-4.1,1.7-5.4,1.7-5.4s-0.6-6.3-3.6-7
							c-3.2-0.7-6.5-1.3-6.5-1.3s-5.4,6.9-5.6,10C1164.9,179.1,1166.8,202.4,1168.4,209.9z"/>
					</g>
				</g>
				<g>
					<g>
						<path class="st13" d="M1151.7,176.9c0,0-0.3,4.3,2.6,9.9c0,0-0.1,7.5-0.2,10.2c-0.1,2.6-0.8,12.6-0.8,12.6l3.2,1.9
							c0.7,0.4,1.5-0.2,1.4-0.9c-0.9-7.5-3.9-36.3,2.6-44l-2.9,1C1157.8,167.5,1151.7,173.8,1151.7,176.9z"/>
					</g>
				</g>
				<g>
					<g>
						<polygon class="st31" points="1160,170.5 1157.4,171.2 1161.8,164.3 						"/>
					</g>
				</g>
				<g>
					<g>
						<polygon class="st31" points="1163.7,170.8 1166,173.9 1170.8,166 1169.2,165.3 						"/>
					</g>
				</g>
				<g>
					<path class="st18" d="M1163.9,141.9c-2.4-0.2-7.9,0.8-9,7.1c0,0,0.1,1.7,0.5,3.1c0.3,1.4-1.1,5.4-0.8,5.6
						c0.3,0.2,1.7,0.5,1.7,0.5s1.2,4.5,2.7,4.5c1.6,0,7.4-0.9,10.5-6.2C1172.4,151.3,1173.8,142.9,1163.9,141.9z"/>
				</g>
				<g>
					<path class="st32" d="M1154.9,149.1c0,0,3.8,2.9,7.7,3.6c3.9,0.8,6,7.5,6,7.5s6.5-9.9,2-16.1
						C1166.1,137.8,1154.4,141.5,1154.9,149.1z"/>
				</g>
				<g>
					<path class="st18" d="M1164.2,152.6c0.1-0.8,1-1.8,2.2-0.8c1.2,1.1-0.7,4.6-1.7,4.2C1163.7,155.7,1164.2,153.4,1164.2,152.6z"
						/>
				</g>
				<g>
					<path class="st33" d="M1161.5,162.5c0.1,0.5,0.2,1,0.2,1.6c3.2-1.9,5-4.2,5-4.2C1164.8,161.5,1161.5,162.5,1161.5,162.5z"/>
				</g>
				<g class="st34">
					<path class="st17" d="M1092,203.7l48.5,0.2c2.7,0,4.8-2.1,4.8-4.8l0.2-32.4c0-2.6-2.2-4.8-4.8-4.8l-48.5-0.2
						c-2.7,0-4.8,2.1-4.8,4.8l-0.2,32.4C1087.2,201.5,1089.3,203.6,1092,203.7z"/>
				</g>
				<g>
					<path class="st35" d="M1113.6,200.4l24.7,0.1c1.7,0,3.2-1.4,3.2-3.1l0.2-27.5c0-1.7-1.4-3.1-3.2-3.1l-24.7-0.1
						c-1.7,0-3.2,1.4-3.2,3.1l-0.2,27.5C1110.4,199,1111.8,200.4,1113.6,200.4z"/>
				</g>
				<g>
					<path class="st35" d="M1093.4,200.4l14.2,0.1c0.5,0,0.9-0.4,0.9-0.9v-3.4c0-0.5-0.4-0.9-0.9-0.9l-14.2-0.1
						c-0.5,0-0.9,0.4-0.9,0.9v3.4C1092.5,200,1092.9,200.4,1093.4,200.4z"/>
				</g>
				<g>
					<path class="st35" d="M1093,193.7l15.1,0.1c0.2,0,0.5-0.2,0.5-0.5v-0.6c0-0.2-0.2-0.5-0.5-0.5l-15.1-0.1
						c-0.2,0-0.5,0.2-0.5,0.5v0.6C1092.5,193.5,1092.7,193.7,1093,193.7z"/>
				</g>
				<g>
					<g>
						<path class="st18" d="M1147.2,190.4c0,0-0.6,0.2-1-0.1c-0.8-0.3-1.2-1.5-2.4-1.2s-0.9,4.1-0.5,4.7s2.1,0.7,4.4-0.3
							C1150,192.4,1147.2,190.4,1147.2,190.4z"/>
					</g>
					<g>
						<path class="st18" d="M1144.2,189.1c0,0-1.7-0.2-3.8-0.2c-1.7,0-3.8,0.3-3.9,0.7c-0.2,0.3,1.7,0.2,3.5,0.4
							c1.6,0.1,1.2,0.3,1.2,0.3s0.1-0.1-1.7,0.2c-1.9,0.2-3.8,0.7-3.9,1.1c-0.1,0.2,0,0.3,0.8,0.3c-0.4,0.1-0.4,0.2-0.4,0.3
							c0.1,0.8,3,0.9,4.1,1c-0.8,0-1.5,0.1-1.1,0.6c0.5,0.6,4.5,0.5,6,0.7C1146.6,194.3,1144.2,189.1,1144.2,189.1z"/>
					</g>
				</g>
				<g>
					<path class="st32" d="M1167.9,151.3c-1.2,2.7-0.5,5.6,1.6,6.6c2.1,0.9,4.7-0.6,6-3.2c1.2-2.7,0.5-5.6-1.6-6.6
						S1169.1,148.6,1167.9,151.3z"/>
				</g>
				<g>
					<g>
						<path class="st13" d="M1177.8,167.5c0,0-3.1,0.6-4.6,3s-3.1,5.8-3.4,6.9c-0.3,1.2-6.1,12-6.5,12.2c-0.3,0.3-3.6,0.1-6,0.3
							c-4.1,0.4-10.4-0.6-10.4-0.6l-0.1,4.6c0,0,15.6,2.1,18.8,0.6c4-1.7,13.5-15.1,13.5-15.1S1184.2,170.3,1177.8,167.5z"/>
					</g>
				</g>
				<g>
					<path class="st12" d="M1171.5,189.4l6-4.9c0.7-1.9,1.2-3.6,1.6-4.9C1179.1,179.7,1173,187.7,1171.5,189.4z"/>
				</g>
				<g>
					<path class="st12" d="M1152.3,186.6c0.4-0.5,0.8-0.9,1.3-1.4c0,0-1.7-4.4-1.7-6.2C1151.8,179,1151.5,183.2,1152.3,186.6z"/>
				</g>
				<g>
					<g>
						<path class="st10" d="M1106.3,170.6c-1.1-3-3.9-4.8-6.9-4.7c-0.8,0-1.5,0.2-2.2,0.4c-2.2,0.8-3.7,2.5-4.4,4.6
							c-0.4,1.4-0.4,3,0.1,4.5c0.1,0.2,0.1,0.3,0.2,0.4c0.2,0.7,0.7,1.2,1.1,1.7c1.8,2.1,5,3.1,7.8,2.1
							C1105.7,178.4,1107.6,174.3,1106.3,170.6z M1101.4,178c-2.2,0.8-4.5,0.1-5.9-1.6c-0.3-0.4-0.6-0.8-0.8-1.3
							c-0.1-0.1-0.1-0.2-0.2-0.3c-0.4-1.2-0.4-2.3-0.1-3.4c0.5-1.6,1.7-2.8,3.3-3.4c0.5-0.2,1.1-0.3,1.7-0.3
							c2.2-0.1,4.4,1.3,5.1,3.6C1105.6,174,1104.1,177.1,1101.4,178z"/>
					</g>
					<g>
						<path class="st10" d="M1094.5,171.4l-1.7-0.5c0.7-2.1,2.2-3.8,4.4-4.6c0.8-0.2,1.5-0.4,2.2-0.4l0.1,1.7
							c-0.6,0-1.1,0.1-1.7,0.3C1096.2,168.6,1095,169.9,1094.5,171.4z"/>
					</g>
					<g>
						<path class="st10" d="M1094.8,175.1l-1.7,0.8c-0.1-0.2-0.1-0.3-0.2-0.4c-0.6-1.5-0.5-3.1-0.1-4.5l1.7,0.5
							c-0.3,1.1-0.3,2.2,0.1,3.4C1094.6,174.9,1094.7,175.1,1094.8,175.1z"/>
					</g>
					<g>
						<path class="st10" d="M1094.2,177.6c-0.4-0.5-0.8-1.1-1.1-1.7l1.7-0.8c0.2,0.5,0.5,0.9,0.8,1.3L1094.2,177.6z"/>
					</g>
				</g>
				<g>
					<g>
						<path class="st10" d="M1098.3,183.1c-0.4-1.2-1.6-2-2.8-1.9c-0.3,0-0.6,0.1-0.9,0.2c-0.9,0.3-1.6,1-1.8,1.9
							c-0.2,0.6-0.2,1.2,0,1.8c0,0.1,0.1,0.1,0.1,0.2c0.1,0.2,0.2,0.5,0.4,0.8c0.8,0.9,2,1.2,3.2,0.8
							C1098.1,186.2,1098.8,184.6,1098.3,183.1z M1096.3,186.1c-0.9,0.3-1.8,0-2.4-0.7c-0.2-0.2-0.2-0.3-0.3-0.6
							c0-0.1,0-0.1-0.1-0.2c-0.2-0.5-0.2-0.9,0-1.4c0.2-0.7,0.7-1.2,1.3-1.4c0.2-0.1,0.4-0.1,0.7-0.2c0.9,0,1.8,0.5,2.2,1.4
							C1098,184.4,1097.4,185.7,1096.3,186.1z"/>
					</g>
					<g>
						<path class="st10" d="M1093.4,183.4l-0.7-0.2c0.2-0.8,0.9-1.6,1.8-1.9c0.3-0.1,0.6-0.2,0.9-0.2v0.8c-0.2,0-0.4,0.1-0.7,0.2
							C1094.2,182.3,1093.7,182.8,1093.4,183.4z"/>
					</g>
					<g>
						<path class="st10" d="M1093.5,184.9l-0.7,0.3c0-0.1-0.1-0.1-0.1-0.2c-0.2-0.6-0.2-1.2,0-1.8l0.7,0.2
							C1093.3,183.9,1093.3,184.4,1093.5,184.9C1093.5,184.8,1093.5,184.9,1093.5,184.9z"/>
					</g>
					<g>
						<path class="st10" d="M1093.4,185.9c-0.2-0.2-0.3-0.5-0.4-0.8l0.7-0.3c0.1,0.2,0.2,0.4,0.3,0.6L1093.4,185.9z"/>
					</g>
				</g>
				<g>
					<rect x="872.9" y="93.6" class="st8" width="5.1" height="19"/>
				</g>
				<g>
					<rect x="880.2" y="91.7" class="st8" width="5.1" height="20.9"/>
				</g>
				<g>
					<rect x="887.6" y="95.6" class="st8" width="5.1" height="16.9"/>
				</g>
				<g>
					<rect x="895" y="87.8" class="st8" width="5.1" height="24.7"/>
				</g>
				<g>
					<rect x="902.9" y="90.3" class="st8" width="5.1" height="22.3"/>
				</g>
			</g>
		</g>
	</g>
	<g>
		<g>
			<defs>
				<rect id="SVGID_00000103235195010568131610000010366571699983752617_" width="1245" height="300"/>
			</defs>
			<clipPath id="SVGID_00000172434479995450913850000004141622406448402058_">
				<use xlink:href="#SVGID_00000103235195010568131610000010366571699983752617_"  style="overflow:visible;"/>
			</clipPath>
			<g style="clip-path:url(#SVGID_00000172434479995450913850000004141622406448402058_);">
				<g>
					
						<linearGradient id="SVGID_00000128449994774844699040000008184120304095022483_" gradientUnits="userSpaceOnUse" x1="-110.8452" y1="1330.0637" x2="18.1382" y2="1330.0637" gradientTransform="matrix(0.9948 -0.1022 0.1022 0.9948 139.7156 -1173.2538)">
						<stop  offset="0" style="stop-color:#96CBFF"/>
						<stop  offset="1" style="stop-color:#5599FF"/>
					</linearGradient>
					<path style="fill:url(#SVGID_00000128449994774844699040000008184120304095022483_);" d="M279.8,178.3
						c2.2-4.7,3.7-9.7,4.5-14.7l10.4-3.1l-1.1-11.8l-1.1-11.8l-10.8-1.2c-1.7-4.8-4.1-9.4-7.2-13.7l5.1-9.5l-9.1-7.5l-9.1-7.5
						l-8.4,6.8c-4.7-2.2-9.7-3.7-14.7-4.6l-3.1-10.4l-11.8,1.1l-11.8,1.1l-1.2,10.8c-4.8,1.7-9.4,4.1-13.7,7.2l-9.5-5.1l-7.5,9.1
						l-7.5,9.1l6.8,8.4c-2.2,4.7-3.7,9.7-4.6,14.7l-10.4,3.1l1.1,11.8l1.1,11.8l10.8,1.2c1.7,4.8,4.1,9.4,7.2,13.7l-5.1,9.5l9.1,7.5
						l9.1,7.5l8.4-6.8c4.7,2.2,9.7,3.7,14.7,4.6l3.1,10.4l11.8-1.1l11.8-1.1l1.2-10.8c4.8-1.7,9.4-4.1,13.7-7.2l9.5,5.1l7.5-9.1
						l7.5-9.1L279.8,178.3z M211.1,177c-12.2-10.2-14-28.4-3.8-40.7c10.2-12.2,28.4-14,40.7-3.8c12.3,10.2,14,28.4,3.8,40.7
						C241.6,185.4,223.4,187.1,211.1,177z"/>
					
						<linearGradient id="SVGID_00000166655656720332653550000016184357907170667669_" gradientUnits="userSpaceOnUse" x1="430.8444" y1="1485.9983" x2="481.2549" y2="1485.9983" gradientTransform="matrix(0.9948 -0.1022 0.1022 0.9948 139.7156 -1173.2538)">
						<stop  offset="0" style="stop-color:#96CBFF"/>
						<stop  offset="1" style="stop-color:#5599FF"/>
					</linearGradient>
					<path style="fill:url(#SVGID_00000166655656720332653550000016184357907170667669_);" d="M764.9,267.6c0.8-1.8,1.5-3.8,1.7-5.7
						l4.1-1.2l-0.4-4.5l-0.4-4.6l-4.2-0.4c-0.7-1.9-1.6-3.6-2.8-5.3l2-3.7l-3.6-3l-3.6-3l-3.3,2.6c-1.8-0.8-3.8-1.5-5.7-1.7
						l-1.2-4.1l-4.5,0.4l-4.5,0.4l-0.4,4.2c-1.9,0.7-3.6,1.6-5.3,2.8l-3.7-2l-3,3.6l-3,3.6l2.7,3.3c-0.8,1.8-1.5,3.8-1.7,5.7
						l-4.1,1.2l0.4,4.5l0.4,4.5l4.2,0.4c0.7,1.9,1.6,3.6,2.8,5.3l-2,3.7l3.6,3l3.6,3l3.3-2.6c1.8,0.8,3.8,1.5,5.7,1.7l1.2,4.1
						l4.5-0.4l4.5-0.4l0.4-4.2c1.9-0.7,3.6-1.6,5.3-2.8l3.7,2l3-3.6l3-3.6L764.9,267.6z M738,267.1c-4.8-4-5.5-11.1-1.5-15.9
						c4-4.8,11.1-5.5,15.9-1.5c4.8,4,5.5,11.1,1.5,15.9S742.8,271.1,738,267.1z"/>
					
						<linearGradient id="SVGID_00000077313643437449352500000003504769301277584560_" gradientUnits="userSpaceOnUse" x1="196.0409" y1="1430.2045" x2="246.4605" y2="1430.2045" gradientTransform="matrix(0.9948 -0.1022 0.1022 0.9948 139.7156 -1173.2538)">
						<stop  offset="0" style="stop-color:#96CBFF"/>
						<stop  offset="1" style="stop-color:#5599FF"/>
					</linearGradient>
					<path style="fill:url(#SVGID_00000077313643437449352500000003504769301277584560_);" d="M525.6,236.1c0.8-1.8,1.5-3.8,1.7-5.7
						l4.1-1.2l-0.4-4.6l-0.4-4.6l-4.2-0.4c-0.7-1.9-1.6-3.6-2.8-5.3l2-3.7l-3.6-3l-3.6-3l-3.3,2.6c-1.8-0.8-3.8-1.5-5.7-1.7
						l-1.2-4.1l-4.5,0.4l-4.5,0.4l-0.4,4.2c-1.9,0.7-3.6,1.6-5.3,2.8l-3.7-2l-3,3.6l-3,3.6l2.6,3.3c-0.8,1.8-1.5,3.8-1.7,5.7
						l-4.1,1.2l0.4,4.6l0.4,4.6l4.2,0.4c0.7,1.9,1.6,3.6,2.8,5.3l-2,3.7l3.6,3l3.6,3l3.3-2.6c1.8,0.8,3.8,1.5,5.7,1.7l1.2,4.1
						l4.5-0.4l4.5-0.4l0.4-4.2c1.9-0.7,3.6-1.6,5.3-2.8l3.7,2l3-3.6l3-3.6L525.6,236.1z M498.7,235.6c-4.8-4-5.5-11.1-1.5-15.9
						c4-4.8,11.1-5.5,15.9-1.5c4.8,4,5.5,11.1,1.5,15.9C510.7,238.9,503.5,239.6,498.7,235.6z"/>
					
						<linearGradient id="SVGID_00000161611813901178704290000009100170737773802395_" gradientUnits="userSpaceOnUse" x1="111.8005" y1="1273.3878" x2="162.2289" y2="1273.3878" gradientTransform="matrix(0.9948 -0.1022 0.1022 0.9948 139.7156 -1173.2538)">
						<stop  offset="0" style="stop-color:#96CBFF"/>
						<stop  offset="1" style="stop-color:#5599FF"/>
					</linearGradient>
					<path style="fill:url(#SVGID_00000161611813901178704290000009100170737773802395_);" d="M425.8,88.7c0.8-1.8,1.5-3.8,1.7-5.7
						l4.1-1.2l-0.4-4.6l-0.4-4.6l-4.2-0.4c-0.7-1.9-1.6-3.6-2.8-5.3l2-3.7l-3.6-3l-3.6-3l-3.3,2.6c-1.8-0.8-3.8-1.5-5.7-1.7
						l-1.2-4.1l-4.5,0.4l-4.5,0.4L399,59c-1.9,0.7-3.6,1.6-5.3,2.8l-3.7-2l-3,3.6l-3,3.6l2.7,3.3c-0.8,1.8-1.5,3.8-1.7,5.7l-4.1,1.2
						l0.4,4.6l0.4,4.6l4.2,0.4c0.7,1.9,1.6,3.6,2.8,5.3l-2,3.7l3.6,3l3.6,3l3.3-2.6c1.8,0.8,3.8,1.5,5.7,1.7l1.2,4.1l4.5-0.4
						l4.5-0.4l0.4-4.2c1.9-0.7,3.6-1.6,5.3-2.8l3.7,2l3-3.6l3-3.6L425.8,88.7z M399,88.1c-4.8-4-5.5-11.1-1.5-15.9
						s11.1-5.5,15.9-1.5s5.5,11.1,1.5,15.9S403.8,92.1,399,88.1z"/>
					
						<linearGradient id="SVGID_00000172407980820917815840000011102326105211541665_" gradientUnits="userSpaceOnUse" x1="-168.2446" y1="1219.4318" x2="-117.8372" y2="1219.4318" gradientTransform="matrix(0.9948 -0.1022 0.1022 0.9948 139.7156 -1173.2538)">
						<stop  offset="0" style="stop-color:#96CBFF"/>
						<stop  offset="1" style="stop-color:#5599FF"/>
					</linearGradient>
					<path style="fill:url(#SVGID_00000172407980820917815840000011102326105211541665_);" d="M141.8,63.6c0.8-1.8,1.5-3.8,1.7-5.7
						l4.1-1.2l-0.4-4.5l-0.4-4.5l-4.2-0.4c-0.7-1.9-1.6-3.6-2.8-5.3l2-3.7l-3.6-3l-3.6-3l-3.3,2.7c-1.8-0.8-3.8-1.5-5.7-1.7
						l-1.2-4.1l-4.6,0.4l-4.6,0.4l-0.4,4.2c-1.9,0.7-3.6,1.6-5.3,2.8l-3.7-2l-3.1,3.4l-3,3.6l2.7,3.3c-0.8,1.8-1.5,3.8-1.7,5.7
						l-4.1,1.2l0.4,4.5l0.4,4.5l4.2,0.4c0.7,1.9,1.6,3.6,2.8,5.3l-2,3.7l3.6,3l3.6,3l3.3-2.7c1.8,0.8,3.8,1.5,5.7,1.7l1.2,4.1
						l4.6-0.4l4.6-0.4l0.4-4.2c1.9-0.7,3.6-1.6,5.3-2.8l3.7,2l3-3.6l3-3.6L141.8,63.6z M114.9,63c-4.8-4-5.5-11.1-1.5-15.9
						s11.1-5.5,15.9-1.5s5.5,11.1,1.5,15.9C126.8,66.4,119.7,67.1,114.9,63z"/>
					<g>
						<g>
							<g>
								<g>
									<g>
										<path class="st6" d="M87.7,239.5c0,0-36.4,27.9-22.9,54.1c13.4,26.2,23.3,5.5,23.3,5.5s10.5,4.5-2.4-27.5
											C79.5,256.6,87.7,239.5,87.7,239.5z"/>
									</g>
								</g>
							</g>
						</g>
						<g>
							<g>
								<g>
									<g>
										<path class="st7" d="M30.2,198.8c0,0-28.4,26.9,0.9,71.6s21.8,65.8,21.8,65.8S107.5,270,30.2,198.8z"/>
									</g>
								</g>
							</g>
						</g>
						<g>
							<g>
								<g>
									<g>
										<path class="st5" d="M62.9,324.1c15.3,4.9,6.5-41.5-15.6-58c-22-16.5-43-20-54.7-34.9C-7.3,231.3-12.7,300.2,62.9,324.1z"
											/>
									</g>
								</g>
							</g>
						</g>
					</g>
					<g>
						<g>
							<g>
								<g>
									<g>
										<path class="st6" d="M1157.3,234.9c0,0,36.4,27.9,22.9,54.1c-13.4,26.2-23.3,5.5-23.3,5.5s-10.5,4.5,2.4-27.5
											C1165.5,252.1,1157.3,234.9,1157.3,234.9z"/>
									</g>
								</g>
							</g>
						</g>
						<g>
							<g>
								<g>
									<g>
										<path class="st7" d="M1214.7,194.4c0,0,28.4,26.9-0.9,71.6s-21.8,65.8-21.8,65.8S1137.4,265.4,1214.7,194.4z"/>
									</g>
								</g>
							</g>
						</g>
						<g>
							<g>
								<g>
									<g>
										<path class="st5" d="M1182,319.5c-15.3,4.9-6.5-41.5,15.6-58c22-16.5,43-20,54.7-34.9
											C1252.3,226.7,1257.6,295.6,1182,319.5z"/>
									</g>
								</g>
							</g>
						</g>
					</g>
					<g>
						<g>
							<g>
								<path class="st42" d="M348.7,189.6c0.8-11.7,1.5-22.6,1.8-32.8c-2.8-1.5-6.2-3.2-8.9-4.6c-8.4-4-20.1-9.4-27.6-12.8
									c-4.4-2-8.7-3.5-8.7-3.5s-30-2.9-32.5-2.7c-0.8,0.1-4.5,1.3-9.4,3.2c-10.7,4.1-31.1,12.2-34.4,14.6
									c-4.8,3.4-21.9,87.4-22.4,93.1c-0.4,5.6,23.4,13.2,45.3,19c0,8.5-0.2,20.5-0.4,31.4c0,1.8-0.1,3.7-0.1,5.5h96.3
									c-0.2-1.9-0.2-3.7-0.3-5.5c0-0.2,0-0.5,0-0.7c-0.3-7.4-1.8-20.6-1.4-33.5c0,0-0.2-13.6,1.1-19.4
									C347.1,215.1,348.7,189.6,348.7,189.6z M226.7,239c0.2-10.9,14.7-31.3,14.7-31.3l0.7-0.2l0.8-0.1c0,0,2.2-2.1,2.3-2.1
									c0.5,1.9,5.4,29.4,6.5,45.4C237.9,247.9,226.6,244.2,226.7,239z"/>
							</g>
						</g>
						<g>
							<g>
								<path class="st43" d="M350.5,294.5c-0.7-4.5-1.2-9.1-1.7-13.6c0,0,0,0,0-0.1c-0.2-1.5-0.3-3-0.5-4.4c0-0.1,0-0.2,0-0.2
									c-0.7-6.1-1.3-12-1.7-17.4c-0.3-4.1,0-8.2,0.6-12.1c1.7-27.6,2.5-56.6,2.5-56.6c0.9-11.9,1.4-23,1.7-33.4
									c0,0-37.7-17.8-41.1-18.8c0,0,7.1,16.8,12.5,54.3c2.1,14.4,5.9,38.7,8.6,63.4l0,0c1.5,13.3,4.3,27,6.5,39
									c0.3,1.8,0.7,3.6,0.9,5.5h12.6C351,298.1,350.8,296.3,350.5,294.5z"/>
							</g>
						</g>
						<g>
							<g>
								<path class="st43" d="M287.8,250.2c1.5-13.9,2.8-27.9,2.1-35.5c-5.2-61.3-19.9-77.6-22-79.9c-1.7,0.7-8,3-9.8,3.7
									c-10,4-30.6,11.3-33.3,13.2c-4.8,3.4-23.7,91.5-24.3,97.2c-0.4,3.9,24.3,11.9,49.4,19c-0.2,6.9,0.4,16.6-1.9,26.7
									c-0.4,1.8-1,2.9-1.1,5.3l35-0.2c0.2-1.8,0.4-3.6,0.7-5.5c0.7-5.5,1.3-11.1,2.1-17.1c10.5,2.7,17.6,4.5,17.6,4.5
									s9.9-16.7,12.8-23.4C315.7,257.3,303,254.2,287.8,250.2z M242.4,229c-0.3-12.6-0.2-21.3-0.2-21.3c1.2,4.3,3,16.6,4.5,28.8
									C241.6,233.9,242.5,231.5,242.4,229z"/>
							</g>
						</g>
						<g>
							<g>
								<path class="st44" d="M271.3,134.2c0,0,3.8-7.2,2.7-27.7c-0.3-5.7,29.8,13.4,29.8,13.4s-0.1,2-0.2,4.6
									c0,1.1-0.1,2.3-0.1,3.6c0,0.3,0,0.7,0,1c0,0.6,0,1.1,0,1.7c0,0.7,0,1.3,0.1,2c0,0.8,0.1,1.4,0.2,2.1
									c0.1,1.2,0.8,3.4,1.1,4.1C306.4,142,282.6,142.2,271.3,134.2z"/>
							</g>
						</g>
						<g>
							<path class="st19" d="M296.5,147.2l5.5,7.4c0,0-3.2,4.4-9,1.2L296.5,147.2z"/>
						</g>
						<g>
							<path class="st19" d="M300.6,154.9c0,0,20.3,49.6,16,112.7l-6.4,11.6l-7.2-9.9c0,0-1.2-83.7-7-114.6L300.6,154.9z"/>
						</g>
						<g>
							<path class="st44" d="M302.4,140.2l-6,6.9c0,0-9.5-1.8-12.3-6.8C281.4,135.3,302.4,140.2,302.4,140.2z"/>
						</g>
						<g>
							<path class="st45" d="M303.8,134.2c0,0-0.7,5.3-7.3,13l7.2,9.7l3.9-20.1L303.8,134.2z"/>
						</g>
						<g>
							<path class="st45" d="M273.1,127.8c0,0,13.7,15.6,23.4,19.4l-4.5,11.1L270,134L273.1,127.8z"/>
						</g>
						<g>
							<g>
								<path class="st43" d="M414.8,268.8c0,0-18.3-17.7-30.3-20.7c-5.5-1.3-12.8-9-19.8-18.1c-2.3-3-4.5-6-6.7-9.2l0,0
									c-8.5-12.2-15.1-24-15.1-24s-25.2-29.5-5-42.6c0,0,8.7-0.2,13.4,2.4c4.9,2.6,15.3,24.3,17.1,28.2
									c1.7,3.8,20.9,39.6,22.2,40.4c1.2,0.8,3.4,3.7,11.1,7.9c9.4,5.1,24.1,19.8,24.1,19.8L414.8,268.8z"/>
							</g>
						</g>
						<g>
							<path class="st46" d="M326.9,289.2c0,0-2.6-0.1-3.6-0.7c0,0-1.9-1.2-3.3-2c-0.4-0.2-0.8-0.5-1.1-0.6
								c-1.2-0.4-3.7-1.1-6.1-2.9s-10.3-9.2-10.3-9.2l5-7.8l2.3-7.7c0,0,18.3,1.8,20.7,3.2c0.2,0.2,0.5,0.3,0.7,0.4
								c2,1.4,2.8,3.3,3.7,4.1c0.3,0.3,3.6,3.7,3.3,5.1c-0.2,1.9-1.2,3.1-2.4,3.7c0,0-0.7,3.7-2.6,5.4c0,0-0.5,3.5-3.5,4.9
								C329.9,285.4,329,288.8,326.9,289.2z"/>
						</g>
						<g>
							<path class="st18" d="M297.9,53.6c0,0,33-8,26.1,33.9s-14.9,45.2-35,36.8s-18.7-35.1-20-48.2
								C267.8,63.1,287.3,54.3,297.9,53.6z"/>
						</g>
						<g>
							<path class="st18" d="M280.5,82.6c-0.5-3.6-7.8-4.9-8.3,0.6c-0.5,5.6,3.6,15.2,6.3,14.2C281.2,96.3,281.1,87.6,280.5,82.6z"
								/>
						</g>
						<g>
							<path class="st28" d="M270.9,97.6c0,0,0.7-13.2,5.5-13.7s5.6,4.8,5.6,4.8l4.9,0.8c0,0-1.7-11.5,3.1-13.6s31.1,5.9,34.9,2.5
								c3.8-3.5,1.7-26.7-5.4-29.9c-7-3.1-26.3-10-40.2-0.2c0,0-11-1.1-12.5,7.8C265.2,65,267.8,91,270.9,97.6z"/>
						</g>
						<g>
							<path class="st43" d="M316.1,258.4l-13.7,23.4c0,0-36.1-9.3-44.5-11.7l19.3-22.9C277.2,247.3,305.6,253.7,316.1,258.4z"/>
						</g>
						<g>
							<path class="st33" d="M303.8,132.8L303.8,132.8c-17.7-1.8-24.6-15.5-24.6-15.5c11.2,11,24.5,10.8,24.5,10.8c0,0.3,0,0.7,0,1
								c0,0.6,0,1.1,0,1.7C303.7,131.4,303.7,132.1,303.8,132.8z"/>
						</g>
					</g>
					<g>
						<g>
							<path class="st18" d="M329.1,267.5c0,0,5.5,2.6,7,3.9c1.4,1.2,7.3,5.5,8.7,6.6c1.4,1-2.1,4-12.6-0.6
								C321.7,272.9,329.1,267.5,329.1,267.5z"/>
						</g>
					</g>
					<g>
						<polygon class="st47" points="329.6,207 319.9,296.7 446.7,296.7 456.4,207 						"/>
					</g>
					<g>
						<path class="st47" d="M454,292.5H326.2L336,202h127.8L454,292.5z M327.3,291.6h125.9l9.5-88.6H336.8L327.3,291.6z"/>
					</g>
					<g>
						<rect x="309.9" y="288.7" class="st47" width="21.2" height="8"/>
					</g>
					<g>
						<g>
							<g>
								<polyline id="SVGID_00000065785980507658483790000000486941575223048361_" class="st48" points="74.2,295.9 74.2,301.3 
									1202.7,301.3 1202.7,295.9 								"/>
							</g>
							<g>
								<g>
									<g>
										<g>
											<defs>
												<polyline id="SVGID_00000020365943939917772420000001281001154805588154_" points="74.2,295.9 74.2,301.3 1202.7,301.3 
													1202.7,295.9 												"/>
											</defs>
											<clipPath id="SVGID_00000133509925280052562100000000291437488330664362_">
												<use xlink:href="#SVGID_00000020365943939917772420000001281001154805588154_"  style="overflow:visible;"/>
											</clipPath>
											<path style="clip-path:url(#SVGID_00000133509925280052562100000000291437488330664362_);fill:#5599FF;" d="
												M1234.5,301.3v-5.5V301.3z"/>
										</g>
									</g>
								</g>
							</g>
						</g>
					</g>
					<g>
						<path class="st50" d="M381.1,250.4c-1,5,1.3,9.7,5.2,10.4c3.9,0.8,7.9-2.6,8.9-7.6s-1.3-9.7-5.2-10.4
							C386.1,242,382.2,245.4,381.1,250.4z"/>
					</g>
					<g>
						<path class="st47" d="M200.6,270h-53.5c-4,0-7.1-3.2-7.1-7.1v-84.5c0-4,3.2-7.1,7.1-7.1h53.5c4,0,7.1,3.2,7.1,7.1v84.5
							C207.7,266.9,204.6,270,200.6,270z"/>
					</g>
					<g>
						<g>
							<g>
								<g>
									<g>
										<rect x="197" y="235" class="st15" width="3.5" height="26.7"/>
									</g>
								</g>
							</g>
						</g>
						<g>
							<g>
								<g>
									<g>
										<rect x="190.1" y="238.1" class="st15" width="3.5" height="23.8"/>
									</g>
								</g>
							</g>
						</g>
						<g>
							<g>
								<g>
									<g>
										<rect x="182.5" y="242" class="st15" width="3.5" height="19.9"/>
									</g>
								</g>
							</g>
						</g>
						<g>
							<g>
								<g>
									<g>
										<rect x="174.8" y="246.9" class="st15" width="3.5" height="14.9"/>
									</g>
								</g>
							</g>
						</g>
						<g>
							<g>
								<g>
									<polygon class="st15" points="153.8,243.7 153.1,243.4 159.7,224.8 174.1,221 179.2,200.6 190.3,195.8 192.8,179.9 
										193.6,179.9 191.1,196.3 179.9,201.2 174.8,221.7 160.4,225.5 									"/>
								</g>
							</g>
						</g>
						<g>
							<g>
								<path class="st47" d="M176.1,220c0.8,0.9,0.6,2.3-0.3,3.1c-0.9,0.8-2.3,0.6-3.1-0.3c-0.8-0.9-0.6-2.3,0.3-3.1
									C173.9,218.9,175.3,219,176.1,220z"/>
							</g>
						</g>
						<g>
							<g>
								<path class="st15" d="M176,223.3c-1.1,0.9-2.7,0.8-3.6-0.3s-0.8-2.7,0.3-3.6s2.7-0.8,3.6,0.3
									C177.2,220.9,177.1,222.4,176,223.3z M173.3,220c-0.8,0.6-0.8,1.7-0.2,2.5s1.7,0.8,2.5,0.2s0.8-1.7,0.2-2.5
									C175.2,219.5,174,219.4,173.3,220z"/>
							</g>
						</g>
						<g>
							<g>
								<path class="st47" d="M181.3,199.6c0.8,0.9,0.6,2.3-0.3,3.1c-0.9,0.8-2.3,0.6-3.1-0.3s-0.6-2.3,0.3-3.1
									C179.2,198.6,180.6,198.7,181.3,199.6z"/>
							</g>
						</g>
						<g>
							<g>
								<path class="st15" d="M181.2,203.1c-1.1,0.9-2.7,0.8-3.6-0.3s-0.8-2.7,0.3-3.6s2.7-0.8,3.6,0.3
									C182.5,200.5,182.4,202.1,181.2,203.1z M178.5,199.6c-0.8,0.6-0.8,1.7-0.2,2.5s1.7,0.8,2.5,0.2s0.8-1.7,0.2-2.5
									S179.3,199.1,178.5,199.6z"/>
							</g>
						</g>
						<g>
							<g>
								<path class="st47" d="M192.2,194.6c0.8,0.9,0.6,2.3-0.3,3.1c-0.9,0.8-2.3,0.6-3.1-0.3c-0.8-0.9-0.6-2.3,0.3-3.1
									C190.1,193.6,191.5,193.7,192.2,194.6z"/>
							</g>
						</g>
						<g>
							<g>
								<path class="st15" d="M192.1,198c-1.1,0.9-2.7,0.8-3.6-0.3s-0.8-2.7,0.3-3.6s2.7-0.8,3.6,0.3
									C193.4,195.4,193.3,197.1,192.1,198z M189.4,194.6c-0.8,0.6-0.8,1.7-0.2,2.5s1.7,0.8,2.5,0.2s0.8-1.7,0.2-2.5
									C191.3,194.1,190.2,194,189.4,194.6z"/>
							</g>
						</g>
						<g>
							<g>
								<path class="st47" d="M161.8,224c0.8,0.9,0.6,2.3-0.3,3.1c-0.9,0.8-2.3,0.6-3.1-0.3s-0.6-2.3,0.3-3.1S161,223.1,161.8,224z"
									/>
							</g>
						</g>
						<g>
							<g>
								<path class="st15" d="M161.7,227.3c-1.1,0.9-2.7,0.8-3.6-0.3s-0.8-2.7,0.3-3.6s2.7-0.8,3.6,0.3
									C163,224.8,162.8,226.4,161.7,227.3z M158.9,224c-0.8,0.6-0.8,1.7-0.2,2.5s1.7,0.8,2.5,0.2s0.8-1.7,0.2-2.5
									C160.9,223.5,159.7,223.4,158.9,224z"/>
							</g>
						</g>
						<g>
							<g>
								<g>
									<g>
										<path class="st51" d="M167.1,203.7h-18.5c-0.8,0-1.6-0.7-1.6-1.6v-1.4c0-0.8,0.7-1.6,1.6-1.6h18.5c0.8,0,1.6,0.7,1.6,1.6
											v1.4C168.7,203.1,168.1,203.7,167.1,203.7z"/>
									</g>
								</g>
							</g>
						</g>
						<g>
							<g>
								<g>
									<g>
										<path class="st51" d="M167.1,195.9h-18.5c-0.8,0-1.6-0.7-1.6-1.6v-1.4c0-0.8,0.7-1.6,1.6-1.6h18.5c0.8,0,1.6,0.7,1.6,1.6
											v1.4C168.7,195.3,168.1,195.9,167.1,195.9z"/>
									</g>
								</g>
							</g>
						</g>
					</g>
					<g>
						<g>
							<path class="st28" d="M131.6,207.4c0,0-0.7,6.2,0.5,7.7c0,0-3-0.7-3.7-1.7C127.7,212.2,131.6,207.4,131.6,207.4z"/>
						</g>
						<g>
							<g>
								<path class="st18" d="M150.5,227.1c0,0,1.1-0.8,1.2-0.8c0.2-0.1,0.8-0.1,1.4,0s1.5,0.5,1.5,0.6c0.1,0.1,0.2,0.2,0.1,0.5
									c-0.1,0.2-0.2,0.5-0.2,0.5s0.1,0.4-0.2,0.7c0,0,0.1,0.3-0.2,0.6c0,0,0.1,0.3-0.2,0.5c0,0-0.6,0-0.8,0
									c-0.2,0.1-1.4-0.1-2.5-0.3C150.8,229.1,149.5,228.9,150.5,227.1z"/>
							</g>
						</g>
						<g>
							<g>
								<path class="st52" d="M152.3,227.6c0,0-0.3,0.6-0.5,0.7s0.8,1.2,0.8,1.2S153.1,228,152.3,227.6z"/>
							</g>
						</g>
						<g>
							<g>
								<path class="st18" d="M149.8,227.1c0,0,0.7-0.1,1.1-0.2c0.4-0.2-0.1,2.1-0.1,2.1s-1-0.8-1.7-0.8
									C148.5,228.3,149.8,227.1,149.8,227.1z"/>
							</g>
						</g>
						<g>
							<g>
								<path class="st53" d="M121.3,289.6c0,0,2.2,3.1,2.9,3.8c0,0,1.5,0.8,1.6,1.4c0.1,1.2,0.2,1.9-1.8,1.9c-2,0.1-3.2,0-3.6-1.2
									c-0.3-1.2-1-2.1-1-2.1l-0.2,3.1h-0.4c0,0-0.2-3.1-0.2-3.6c0-0.4-0.3-2.1,0.6-2.9C120.1,289.2,121.3,289.6,121.3,289.6z"/>
							</g>
						</g>
						<g>
							<g>
								<path class="st53" d="M124.5,293.5c0,0-1.1,0.3-2.3,0s-2.5-3.4-2.9-3.6l-0.3-1.2h2.5c0,0,0,0.9,0.4,1.7
									C122.3,291.1,124.5,293.5,124.5,293.5z"/>
							</g>
						</g>
						<g>
							<g>
								<path class="st53" d="M135.3,288.4c0,0,0.3,0.8,0.9,1.6c0.4,0.6,1.8,3,2.5,3.1c0.6,0.2,2.5,0.5,2.6,1.6
									c0.2,1.1,0.2,1.8-1.7,1.9s-3.1,0.2-4-1.1c-0.9-1.3-2.3-2.2-2.3-2.2v3.4h-0.8c0,0-0.3-3.6-0.5-3.8s-0.7-3,1-4.4
									C134.9,286.9,135.3,288.4,135.3,288.4z"/>
							</g>
						</g>
						<g>
							<g>
								<path class="st53" d="M138.7,293c0,0-1.7,0.4-2.3,0s-2.8-4.1-3.6-4.3c0,0,0.7-1.4,2.5-0.4
									C135.3,288.4,138.2,292.5,138.7,293z"/>
							</g>
						</g>
						<g>
							<g>
								<path class="st3" d="M120.4,237.2c0,0-2.3,3.1-3,6.7c-0.7,3.6,0.4,15.8,0.3,17.6c0,1.8-1.6,7.4-1.2,10.8s2.1,17.5,2.1,17.5
									l4.1-0.1c0,0-0.8-15.2-0.6-16.6s0.9-7.5,1-8c0.1-0.6,4.6-16.1,4.6-18.7C127.7,243.8,126,232.9,120.4,237.2z"/>
							</g>
						</g>
						<g>
							<g>
								<path class="st3" d="M132.2,238.4c0,0,3.9,14.7,4.3,16.8c0.5,2.1,1.4,4.7,1.3,5.1s-0.5,6.7-0.5,6.7l-1.1,21.4h-4.1
									c0,0-1.3-13.7-1.5-16.4c-0.2-2.7,1.5-7,1.1-8.2s-6.7-14.6-6.7-14.6S120.3,234.1,132.2,238.4z"/>
							</g>
						</g>
						<g>
							<g>
								<path class="st29" d="M131,216.3c0,0,1.6,0.2,2.7,1.4s2.2,3.2,2.6,3.9s4.6,6.9,4.8,7c0.2,0.2,2.1-0.3,3.6-0.5
									c2.5-0.2,6.1-1.5,6.1-1.5l0.6,2.7c0,0-9,2.9-11.1,2.4c-2.6-0.7-8.4-8.1-8.4-8.1S127.5,218.6,131,216.3z"/>
							</g>
						</g>
						<g>
							<g>
								<path class="st29" d="M128.3,215.2c0,0,2,0.9,2.7,1.1c0.7,0.2,3.4,3.6,3.9,5c0.5,1.2,0,3.2-1,5.5c-1,2.2-0.1,3-0.5,5.3
									c-0.4,2.2-0.4,8.4-0.3,9.7s-12.9,3.6-15.5,1.3c0,0,1.7-5.8,3.8-7.9c0.4-0.5,0.4-3.6,0.1-4.4c-0.3-0.8-3.7-6.6-3.7-6.6
									s-0.2-5.9,1.2-7c1.3-1,4.9-1.4,5.6-1.6C125.1,215.1,127,215.1,128.3,215.2z"/>
							</g>
						</g>
						<g>
							<g>
								<path class="st54" d="M128.9,219.7l1.2-1.4l-1.1-3.7C129.1,214.5,128.7,216.6,128.9,219.7z"/>
							</g>
						</g>
						<g>
							<g>
								<path class="st18" d="M121.3,216.3c0,0-2.6-0.8-4,2.1c-1.4,2.8-1.1,4.3-1.4,5.6s-1.7,9.6-1.7,10c-0.1,0.3-1.3,4.6-1.2,6
									s1.3,11.3,1.3,11.6c-0.1,0.3,2.3-0.3,2.3-0.3s-0.1-10.1,0-10.9s0.2-5.2,0.8-6.4s2.2-8,2.5-8.7
									C120.2,224.3,123.4,217.2,121.3,216.3z"/>
							</g>
						</g>
						<g>
							<g>
								<path class="st18" d="M129.2,212.9c0,0-0.4,3.6-0.3,4.9c0,0-2.1,2.1-4.5-2.4c0,0,1-1.9,0.2-4.4
									C123.9,208.4,129.2,212.9,129.2,212.9z"/>
							</g>
						</g>
						<g>
							<g>
								<polygon class="st18" points="128.9,217.8 128.9,219.7 126.7,217.7 								"/>
							</g>
						</g>
						<g>
							<g>
								<polygon class="st54" points="128.9,219.7 127.9,218.4 124.6,215.1 123.3,215.7 								"/>
							</g>
						</g>
						<g>
							<g>
								<polygon class="st31" points="130.1,218.3 131.7,218.7 129.1,214.5 								"/>
							</g>
						</g>
						<g>
							<g>
								<polygon class="st31" points="127.9,218.4 126.5,220.7 123.3,215.6 124.7,214.9 								"/>
							</g>
						</g>
						<g>
							<path class="st54" d="M135.1,227.6c0,0,0.5-3.3,0-5.4c0,0-0.3,1.7-1,4.2L135.1,227.6z"/>
						</g>
						<g>
							<path class="st54" d="M119.4,227.1c0,0,1.4-4.6,1.5-4.8c0,0-0.1,4.2-0.7,6.3C120.4,228.6,119.8,227.6,119.4,227.1z"/>
						</g>
						<g>
							<polygon class="st55" points="171.1,204.1 149.3,231.6 150.1,232.2 							"/>
						</g>
						<g>
							<g>
								<path class="st56" d="M154.5,226.7c0,0-1.7-0.2-1.7,0.1c-0.1,0.2,0.1,0.4,0.1,0.4l-0.7,0.2c0,0-0.4,0.4,0.2,0.8
									c0,0-0.4,0.3,0.2,0.6c0,0-0.2,0.3,0.1,0.5s1.3,0.2,1.3,0.2s0.2-0.1,0.2-0.5c0,0,0.3-0.2,0.2-0.6c0,0,0.2-0.2,0.2-0.7
									c0,0,0.5-0.5,0.1-1C154.6,226.7,154.6,226.7,154.5,226.7z"/>
							</g>
						</g>
						<g>
							<g>
								<path class="st18" d="M151.8,226.2c0,0,0.9,0.6,1.3,1.2c0.1,0.2,0.2,0.2,0.1,0.4c-0.1,0.2-0.4,0.2-0.8-0.1
									c-0.4-0.2-1.1-0.3-1.1-0.3S150.9,227,151.8,226.2z"/>
							</g>
						</g>
						<g>
							<path class="st18" d="M127.6,200.4c0,0,3.7-0.1,4.4,4.3s-0.9,8.2-1.5,8.9c-0.6,0.6-4.3,0.2-5.2-2.1c-0.9-2.2-2.2-3.9-2-5.9
								C123.5,203.5,123,200.3,127.6,200.4z"/>
						</g>
						<g>
							<path class="st28" d="M132,206.3c0,0,1-5.5-3.9-6.5c-4.9-1-6.6,2.4-7.1,4.4s0.1,7.6,0.1,7.6s3.2,2.9,5.2,3.6
								c0,0-1.7-6-1-10.3c0,0,4,0.7,6.6,0C131.9,205.2,132,206.1,132,206.3z"/>
						</g>
						<g>
							<path class="st33" d="M129.1,213.7c0,0-1.2,0-3.1-1.2c0,0,1.2,1.6,2.9,2.1C129.1,214.7,129.1,213.9,129.1,213.7z"/>
						</g>
						<g>
							
								<rect x="108.4" y="242.9" transform="matrix(0.9869 -0.1612 0.1612 0.9869 -38.5058 21.8815)" class="st57" width="14.4" height="10.7"/>
						</g>
						<g>
							<g>
								<g>
									<g>
										<g>
											<g>
												<path class="st18" d="M113.7,254.6c0,0-0.2-0.3-0.2-0.6c0,0,0-0.4,0-0.7c0-0.1,0-0.2,0-0.2c-0.1-0.2-0.2-0.6-0.2-1.2
													c0-0.5,0.8-2.6,0.8-2.6l1.2,0.1l1.2-0.2c0,0,1.4,2.7,1.5,3.2c0,0.1,0,0.1,0,0.2c0,0.4-0.2,0.7-0.2,0.9
													c0,0.1-0.2,0.8-0.4,0.9c-0.2,0.2-0.6,0.2-0.8,0c0,0-0.6,0.2-1,0.2c0,0-0.5,0.2-1,0C114.6,254.6,114,254.8,113.7,254.6z"
													/>
											</g>
										</g>
									</g>
								</g>
							</g>
						</g>
						<g>
							<g>
								<path class="st29" d="M121.3,216.3c0,0-2.6-0.8-4,2.1c-1.4,2.8-1.4,4-1.7,5.3c-0.2,1.3-2,8.9-2.1,9.3s-0.7,5.1-0.8,6.9
									c0,1.3,0.2,9.9,0.2,10.3c-0.1,0.3,4-0.6,4-0.6s-0.4-7.9-0.3-8.8s0.2-5,0.7-6.2c0.5-1.4,2.4-8.7,2.7-9.4
									C120.5,224.4,123.4,217.2,121.3,216.3z"/>
							</g>
						</g>
					</g>
					<g>
						<g>
							<g>
								<path class="st58" d="M251.9,291.3l0.2-2.5c0,0-3.5,0-3.9,0.2c0,0,0.3,2.1,0.3,2.4C248.7,291.8,251.9,291.3,251.9,291.3z"/>
							</g>
						</g>
						<g>
							<g>
								<path class="st59" d="M246,296.4c4.1,0,6.1,0.2,6.5-0.4s-0.7-4.9-0.7-4.9s-1,0.3-3.3,0.2c0,0-1,1.2-2,1.7
									c-1,0.6-2.6,0.8-3.1,1.3C243.1,294.7,241.9,296.4,246,296.4z"/>
							</g>
						</g>
						<g>
							<g>
								<path class="st58" d="M228.7,291.3l0.2-2.5c0,0-3.5,0-3.9,0.2c0,0,0.3,2.1,0.3,2.4C225.5,291.8,228.7,291.3,228.7,291.3z"/>
							</g>
						</g>
						<g>
							<g>
								<path class="st59" d="M222.9,296.4c4.1-0.1,6.1,0.2,6.5-0.4c0.4-0.7-0.7-4.9-0.7-4.9s-0.9,0.4-3.3,0.2c0,0-1,1.2-2,1.7
									c-1,0.6-4.6,1-5.2,1.6C217.8,295,217.1,296.6,222.9,296.4z"/>
							</g>
						</g>
						<g>
							<g>
								<path class="st42" d="M247.2,236c0,0,1.7,5.1,1.5,9.5s0.9,9.2,1.3,13.8c0.5,5.1,2.6,17.2,2.6,20c0.1,2.7-0.3,11.5-0.3,11.5
									l-4.1,0.1c0,0-3.5-21.2-4.4-23.4s-5.4-17.6-5.6-19.3C238.1,246.5,247.2,236,247.2,236z"/>
							</g>
						</g>
						<g>
							<g>
								<path class="st42" d="M229.6,236.9c0,0-2.3,12.1-2.6,14.7c-0.3,2.7-0.5,13-0.7,14.7s-1,22-1.8,24.5h5.3
									c0,0,4.1-14.8,4.1-21.8s3.1-15.2,5.2-19.8c2.1-4.6,6.7-4.7,7.9-13.2C247.2,236,231.4,234.2,229.6,236.9z"/>
							</g>
						</g>
						<g>
							<g>
								<path class="st18" d="M240.5,195.8c0,0-4.2-1.6-6.1,1.7s-1.7,9.6,0.3,10.4c2.1,0.8,5.3,0.4,6.4-1.7c1.1-2,2.1-4.9,2-6.8
									C243.1,197.3,241.6,196.3,240.5,195.8z"/>
							</g>
						</g>
						<g>
							<g>
								<path class="st18" d="M235.4,207.5c0,0,0.2,1.1-0.1,1.7s5.3,0.6,5.3,0.6s0.4-3,1.3-5.5C242.7,201.8,235.4,207.5,235.4,207.5
									z"/>
							</g>
						</g>
						<g>
							<g>
								<path class="st60" d="M241.9,204.3c0,0-0.4,0.7-2,0.4c-1.6-0.2-3.5-2.3-4.1-2.6s-0.7-0.6-0.7-0.6l-0.4,0.6l-0.7,0.1
									c0,0,0.7-1.8-0.3-2.6s1-6,6-4.3c0,0,3.6,0.8,3.8,2.9C243.8,200.5,242.7,203.2,241.9,204.3z"/>
							</g>
						</g>
						<g>
							<g>
								<path class="st61" d="M234.9,209.1c0,0,0-1,0.5-1.2c0.5-0.1,5.2-0.6,5.7-0.3v1.2C241.2,208.8,240.1,209.5,234.9,209.1z"/>
							</g>
						</g>
						<g>
							<g>
								<path class="st18" d="M235.3,200.7c0.1-0.3,1-1.4,1.4-0.3c0.3,1.2-0.6,2.6-1.1,2.5C235.1,202.8,235,201.6,235.3,200.7z"/>
							</g>
						</g>
						<g>
							<g>
								<path class="st62" d="M234.9,209.1c0,0-2.6,0.9-5.6,2.2c0,0-3.5,1.3-3.8,5.1c-0.2,2-2.3,12.8-2.7,13.6
									c-0.4,0.9-5.1,15.5-5.3,15.7c-0.2,0.3,3.9,2,4.1,1.8s4.6-13.2,5.1-14.2c0,0,2.5-7.9,2.6-9c0,0,0.1,3.3,0.2,4.3
									c0.2,0.9-2.2,19.1-2.1,19.7c0.1,0.5,10.7,1.2,15,0.7c4.2-0.5,7.7-1.4,7.7-1.4s-3.3-14.4-3.2-16c0.2-3.5,1.4-10,1.4-10
									l3.5,6.5l-4.5,11.4l1,3.5c0,0,8.3-12.5,8.5-13.6c0.2-1.2-0.4-2.6-0.8-3.6c-0.4-0.9-3.3-8.1-4-9.1s-1.8-5.1-4.6-6.1
									c-2.3-0.9-6.1-1.7-6.1-1.7L234.9,209.1z"/>
							</g>
						</g>
						<g>
							<g>
								
									<rect x="214.3" y="233.1" transform="matrix(0.2484 -0.9687 0.9687 0.2484 -69.1169 397.1272)" class="st63" width="14" height="20.1"/>
							</g>
						</g>
						<g>
							<g>
								<path class="st64" d="M215.8,248.8c0,0-0.6,0.9-0.8,1.2s0.5,0.4,0.8,0.2C216.1,249.7,215.8,248.8,215.8,248.8z"/>
							</g>
						</g>
						<g>
							<g>
								<path class="st65" d="M219.9,251.8c0,0,0.3-0.3,0.4-0.6c0,0,0.1-0.4,0.2-0.7c0-0.1,0.1-0.2,0.1-0.2c0.1-0.2,0.3-0.7,0.4-1.2
									c0.1-0.6,0.3-3.1,0.3-3.1l-1.5-0.4l-1.2-0.2c0,0-2.6,2.6-2.7,3.1c0,0.1,0,0.1,0,0.2c-0.1,0.4,0.1,0.8,0,1.1
									c0,0.1,0,0.9,0.2,1.1c0.2,0.2,0.6,0.2,0.8,0.2c0,0,0.6,0.4,1.1,0.4c0,0,0.5,0.4,1.1,0.2C219,251.6,219.6,252,219.9,251.8z"
									/>
							</g>
						</g>
						<g>
							<g>
								<path class="st62" d="M225.8,236.1c0,0-3.5,10.4-4.1,11.6c0,0-2.6-0.5-4.1-1.8l3.8-11.3L225.8,236.1z"/>
							</g>
						</g>
					</g>
					<g>
						<path class="st66" d="M63.5,202.6c0,0,0.6-2.5,2.1-6.5l-1.3-0.3c-1.5,4.1-2.1,6.6-2.2,6.6L63.5,202.6z M68.1,189.7
							c0.9-2.1,1.9-4.2,2.9-6.2l-1.3-0.4c-1.1,2.1-2,4.2-2.9,6.3L68.1,189.7z M74.4,177.3c1.2-2.1,2.4-4.1,3.6-6l-1.2-0.5
							c-1.2,2-2.6,4-3.7,6.1L74.4,177.3z M82.1,165.5c1.4-1.9,2.9-3.9,4.4-5.7l-1.2-0.6c-1.6,1.9-3,3.8-4.4,5.7L82.1,165.5z
							 M165.5,113.4l-0.8-0.9c-2.2,1.2-4.6,2.4-7.1,3.5l0.6,1C160.9,115.9,163.3,114.7,165.5,113.4z M172,109
							c1.9-1.6,3.9-3.2,5.7-5.1l-1.1-0.7c-1.7,1.8-3.6,3.4-5.5,4.9L172,109z M150.6,119.7l-0.5-1.1c-0.9,0.2-1.8,0.5-2.7,0.8
							c-1.7,0.4-3.5,1-5.2,1.5l0.5,1.1c1.7-0.5,3.4-1,5.1-1.5C148.9,120.2,149.8,119.9,150.6,119.7z M91.2,154.3
							c1.6-1.8,3.4-3.6,5.2-5.2l-1.1-0.8c-1.8,1.7-3.6,3.5-5.2,5.3L91.2,154.3z M182.4,98.4c1.4-1.8,2.7-3.7,4.1-5.9l-1.2-0.5
							c-1.4,2.1-2.7,4.1-4,5.8L182.4,98.4z M135.2,124.6l-0.6-1c-2.5,0.9-5,2-7.4,3.1l0.7,1C130.2,126.6,132.7,125.5,135.2,124.6z
							 M101.9,144.1c1.9-1.6,3.9-3.2,6-4.7l-0.9-0.8c-2,1.5-4,3.1-6,4.7L101.9,144.1z M296.5,25.4l-0.1-1.1
							c-2.9,0.1-5.7,0.4-8.3,0.6l0.1,1.1C290.9,25.7,293.6,25.6,296.5,25.4z M120.8,131.2l-0.8-0.9c-2.3,1.2-4.6,2.6-6.7,4l0.8,0.9
							C116.3,133.8,118.6,132.4,120.8,131.2z M190.1,86.5c1.1-1.9,2.2-3.9,3.4-6.1l-1.2-0.4c-1.2,2.2-2.2,4.2-3.4,6.1L190.1,86.5z
							 M279.9,26.7l-0.1-1.1c-2.8,0.3-5.6,0.7-8.3,1.1l0.2,1.1C274.4,27.4,277.1,27,279.9,26.7z M197,74.2c1.3-2.2,2.5-4.2,3.6-6.1
							l-1.2-0.5c-1.1,1.8-2.3,3.8-3.6,6.1L197,74.2z M263.7,29.2l-0.3-1.1c-2.8,0.6-5.5,1.1-8.1,1.8l0.4,1.1
							C258.2,30.3,260.9,29.7,263.7,29.2z M204.4,62.3c1.5-2,2.9-3.9,4.4-5.6l-1.2-0.6c-1.6,1.8-3,3.7-4.5,5.7L204.4,62.3z
							 M247.8,33l-0.5-1.1c-2.6,0.8-5.3,1.7-7.8,2.6l0.6,1C242.6,34.7,245.1,33.8,247.8,33z M213.9,51.5c1.8-1.7,3.7-3.3,5.7-4.8
							l-0.9-0.8c-2,1.5-3.9,3.2-5.8,4.9L213.9,51.5z M232.8,38.8l-0.7-0.9c-2.4,1.2-4.8,2.4-7,3.7l0.9,0.9
							C228.2,41.1,230.5,40,232.8,38.8z"/>
					</g>
					<g>
						<g>
							<g>
								<g>
									<polygon class="st67" points="334.7,25.6 299.7,29.4 307.8,23.8 									"/>
								</g>
							</g>
						</g>
						<g>
							<g>
								<g>
									<polygon class="st68" points="334.7,25.6 318,20.3 311.5,24 									"/>
								</g>
							</g>
						</g>
						<g>
							<g>
								<g>
									<polygon class="st69" points="307.8,28.5 309.6,31.3 334.7,25.6 									"/>
								</g>
							</g>
						</g>
					</g>
				</g>
			</g>
		</g>
	</g>
</g>
</svg>
