<?xml version="1.0" encoding="utf-8"?>
<!-- Generator: Adobe Illustrator 26.0.2, SVG Export Plug-In . SVG Version: 6.00 Build 0)  -->
<svg version="1.1" id="Layer_1" xmlns="http://www.w3.org/2000/svg" xmlns:xlink="http://www.w3.org/1999/xlink" x="0px" y="0px"
	 viewBox="0 0 1245 300" style="enable-background:new 0 0 1245 300;" xml:space="preserve">
<style type="text/css">
	.st0{clip-path:url(#SVGID_00000119808561134555251940000008617303944146206602_);}
	.st1{fill:url(#SVGID_00000022550625423345081510000013745866390871643833_);}
	.st2{fill:none;stroke:#FFFFFF;stroke-width:1.02;stroke-linecap:round;stroke-linejoin:round;}
	.st3{fill:none;stroke:#100C60;stroke-width:1.02;stroke-linecap:round;stroke-linejoin:round;}
	.st4{fill:none;stroke:#100C60;stroke-width:1.02;stroke-linecap:round;stroke-linejoin:round;stroke-dasharray:2.02,2.02;}
	.st5{fill:none;stroke:#100C60;stroke-width:1.02;stroke-linecap:round;stroke-linejoin:round;stroke-dasharray:1.97,1.97;}
	.st6{fill:#FFFFFF;stroke:#100C60;stroke-width:1.02;stroke-linecap:round;stroke-linejoin:round;}
	.st7{fill:#100C60;}
	.st8{fill:#100C60;stroke:#100C60;stroke-width:0.83;stroke-linecap:round;stroke-linejoin:round;}
	.st9{fill:#FFFFFF;stroke:#100C60;stroke-width:0.83;stroke-linecap:round;stroke-linejoin:round;}
	.st10{fill:#FFFFFF;stroke:#100C60;stroke-width:1.03;stroke-linecap:round;stroke-linejoin:round;}
	.st11{fill:#100C60;stroke:#100C60;stroke-width:1.03;stroke-linecap:round;stroke-linejoin:round;}
	.st12{fill:#453BAE;stroke:#100C60;stroke-width:1.03;stroke-linecap:round;stroke-linejoin:round;}
	.st13{fill:none;stroke:#100C60;stroke-width:1.03;stroke-linecap:round;stroke-linejoin:round;}
	.st14{fill:none;stroke:#FFFFFF;stroke-width:1.03;stroke-linecap:round;stroke-linejoin:round;}
	.st15{fill:none;stroke:#FFFFFF;stroke-linecap:round;stroke-linejoin:round;}
	.st16{fill:none;stroke:#EFEFF9;stroke-linecap:round;stroke-linejoin:round;}
	.st17{fill:#407BFF;stroke:#FFFFFF;stroke-linecap:round;stroke-linejoin:round;}
	.st18{fill:#FFFFFF;stroke:#100C60;stroke-linecap:round;stroke-linejoin:round;}
	.st19{fill:none;stroke:#100C60;stroke-width:2;stroke-linecap:round;stroke-linejoin:round;}
	.st20{fill:none;stroke:#100C60;stroke-linecap:round;stroke-linejoin:round;}
	.st21{fill:none;stroke:#100C60;stroke-linecap:round;stroke-linejoin:round;stroke-dasharray:1,3;}
	.st22{fill:none;stroke:#100C60;stroke-linecap:round;stroke-linejoin:round;stroke-dasharray:1,2.99;}
	.st23{fill:none;stroke:#FFFFFF;stroke-width:2;stroke-linecap:round;stroke-linejoin:round;}
	.st24{fill:#407BFF;stroke:#100C60;stroke-linecap:round;stroke-linejoin:round;}
	.st25{fill:#FFFFFF;stroke:#FFFFFF;stroke-linecap:round;stroke-linejoin:round;}
	.st26{fill:#407BFF;}
	.st27{clip-path:url(#SVGID_00000109720862251035942490000011638887616893538198_);}
	.st28{opacity:0.3;fill-opacity:0.7;enable-background:new    ;}
	.st29{clip-path:url(#SVGID_00000150808908568901439410000005413045251518610062_);}
	.st30{fill:#FFFFFF;}
	.st31{clip-path:url(#SVGID_00000126303210326239837910000012776567910302631066_);}
	.st32{opacity:0.2;fill-opacity:0.7;enable-background:new    ;}
	.st33{clip-path:url(#SVGID_00000132788036039220496780000000008787203989240252_);}
	.st34{clip-path:url(#SVGID_00000152242879041424762550000013343574869692053655_);}
	.st35{fill:#757575;stroke:#100C60;stroke-linecap:round;stroke-linejoin:round;}
	.st36{fill:#999999;stroke:#100C60;stroke-linecap:round;stroke-linejoin:round;}
	.st37{fill:none;stroke:#100C60;stroke-linecap:round;stroke-linejoin:round;stroke-dasharray:0.98,2.93;}
</style>
<g id="Layer_2_00000008849129553575623900000013599472533606904730_">
	<g id="Слой_1">
		<g>
			<defs>
				<rect id="SVGID_1_" width="1245" height="300"/>
			</defs>
			<clipPath id="SVGID_00000005988288541594560500000012536883524897253809_">
				<use xlink:href="#SVGID_1_"  style="overflow:visible;"/>
			</clipPath>
			<g style="clip-path:url(#SVGID_00000005988288541594560500000012536883524897253809_);">
				
					<radialGradient id="SVGID_00000098221509421622196300000007766370513751817113_" cx="1771.5389" cy="628.5502" r="700.62" gradientTransform="matrix(-0.76 0.55 0.47 0.5 2036.7321 -1532.2225)" gradientUnits="userSpaceOnUse">
					<stop  offset="0" style="stop-color:#73D7FF"/>
					<stop  offset="1" style="stop-color:#002BC6"/>
				</radialGradient>
				<rect style="fill:url(#SVGID_00000098221509421622196300000007766370513751817113_);" width="1245" height="300"/>
				<path class="st2" d="M330.5,274.6H159.1c-4,0-7.3-3.3-7.3-7.3V41.2c0-4,3.3-7.3,7.3-7.3h171.4c4,0,7.3,3.3,7.3,7.3v226.1
					C337.8,271.3,334.5,274.6,330.5,274.6z"/>
				<polyline class="st3" points="229.9,100 229.9,100.7 229.1,100.7 				"/>
				<line class="st4" x1="227.6" y1="100.7" x2="184" y2="100.7"/>
				<polyline class="st3" points="183.3,100.7 182.5,100.7 182.5,100 				"/>
				<line class="st5" x1="182.5" y1="98.6" x2="182.5" y2="64.6"/>
				<polyline class="st3" points="182.5,63.9 182.5,63.1 183.3,63.1 				"/>
				<line class="st4" x1="184.7" y1="63.1" x2="228.4" y2="63.1"/>
				<polyline class="st3" points="229.1,63.1 229.9,63.1 229.9,63.9 				"/>
				<line class="st5" x1="229.9" y1="65.3" x2="229.9" y2="99.3"/>
				<rect x="190.1" y="69.1" class="st6" width="32.2" height="25.6"/>
				<line class="st3" x1="188.2" y1="67.3" x2="177.1" y2="58.7"/>
				<line class="st3" x1="224.5" y1="96" x2="234" y2="104.2"/>
				<polyline class="st3" points="176.7,61.5 176.4,57.9 180.2,57.9 				"/>
				<polyline class="st3" points="234.3,100.8 234.9,104.7 230.3,104.9 				"/>
				<rect x="246.6" y="197.2" class="st7" width="15.6" height="5.6"/>
				<polygon class="st7" points="268.6,200.1 258.5,194.3 258.5,205.9 				"/>
				<path class="st8" d="M235.3,248.4h-36c-2.8,0-5.1-2.3-5.1-5.1v-79.9c0-2.8,2.3-5.1,5.1-5.1h36c2.8,0,5.1,2.3,5.1,5.1v79.9
					C240.4,246.1,238.1,248.4,235.3,248.4z"/>
				<rect x="196.3" y="164.4" class="st9" width="42.1" height="78.6"/>
				<path class="st6" d="M230.5,260.8l3.2-12.5c0.3-1.3,0.5-2.7,0.5-4.1v-15c0.1-0.2,0.1-0.4,0.1-0.6c-0.1-1.4-1.3-2.5-2.7-2.4
					c-0.7,0-1.5,0.3-2,0.8c-0.2-1.3-1.3-2.2-2.6-2.2c-0.9,0-1.8,0.4-2.3,1.1c-0.2-1.3-1.3-2.2-2.6-2.1c-0.9,0-1.8,0.4-2.3,1.1
					c0-2,0-11.5-0.3-12.3c-1-2.5-5.8-1.4-5,1.3v22c0-1.5-1.1-3.6-1.6-5.1c-0.3-1.5-0.9-2.9-1.6-4.2c-1.5-2.1-4.2-1-4,1.3
					c0.1,2,1.6,3.5,2.3,5.3c1.4,3.3,0.6,6.8,1.9,10.1c1.1,2.1,2.4,4.1,3.7,6.1c0.7,1.3,1.3,2.7,1.7,4.1l-1.2,7.3"/>
				<line class="st3" x1="217.3" y1="205.1" x2="217.3" y2="209.2"/>
				<line class="st3" x1="221.9" y1="213.1" x2="225.3" y2="213.1"/>
				<line class="st3" x1="208.1" y1="213.1" x2="211.4" y2="213.1"/>
				<line class="st3" x1="212.7" y1="208.7" x2="214" y2="210.8"/>
				<line class="st3" x1="220.4" y1="211" x2="222.2" y2="208.7"/>
				<rect x="197.8" y="194.9" class="st3" width="39" height="4.9"/>
				<rect x="199.1" y="168.7" class="st3" width="18.7" height="22.3"/>
				<line class="st3" x1="199.1" y1="168.7" x2="217.8" y2="191"/>
				<polyline class="st3" points="198.6,234.1 198.6,202.3 236.6,202.3 236.6,233.9 				"/>
				<path class="st8" d="M312.9,248.4h-36c-2.8,0-5.1-2.3-5.1-5.1v-79.9c0-2.8,2.3-5.1,5.1-5.1h36c2.8,0,5.1,2.3,5.1,5.1v79.9
					C318,246.1,315.7,248.4,312.9,248.4z"/>
				<rect x="273.9" y="164.4" class="st9" width="42.1" height="78.6"/>
				<rect x="276.1" y="168.2" class="st3" width="38" height="41.6"/>
				<line class="st3" x1="276.1" y1="213.6" x2="314" y2="213.6"/>
				<line class="st3" x1="276.1" y1="216.7" x2="314" y2="216.7"/>
				<line class="st3" x1="276.1" y1="219.7" x2="314" y2="219.7"/>
				<line class="st3" x1="276.1" y1="222.8" x2="314" y2="222.8"/>
				<line class="st3" x1="276.1" y1="225.9" x2="314" y2="225.9"/>
				<line class="st3" x1="276.1" y1="229" x2="314" y2="229"/>
				<line class="st3" x1="276.1" y1="232.1" x2="314" y2="232.1"/>
				<line class="st3" x1="276.1" y1="209.7" x2="314" y2="168.2"/>
				<path class="st8" d="M312.9,145h-36c-2.8,0-5.1-2.3-5.1-5.1V60c0-2.8,2.3-5.1,5.1-5.1h36c2.8,0,5.1,2.3,5.1,5.1v79.9
					C318,142.7,315.7,145,312.9,145z"/>
				<rect x="273.9" y="61" class="st9" width="42.1" height="78.6"/>
				<polyline class="st3" points="225.3,155.6 225.3,131.7 259,131.7 				"/>
				<polygon class="st7" points="257.9,135.4 264.4,131.7 257.9,127.9 				"/>
				<line class="st3" x1="294.1" y1="155" x2="294.1" y2="136.6"/>
				<polygon class="st7" points="297.8,137.7 294.1,131.2 290.3,137.7 				"/>
				<line class="st3" x1="276.7" y1="256.6" x2="293.7" y2="256.6"/>
				<line class="st3" x1="276.7" y1="260.4" x2="293.7" y2="260.4"/>
				<line class="st3" x1="276.7" y1="264.2" x2="293.7" y2="264.2"/>
				<line class="st3" x1="235.4" y1="256.6" x2="252.4" y2="256.6"/>
				<line class="st3" x1="235.4" y1="260.4" x2="252.4" y2="260.4"/>
				<line class="st3" x1="235.4" y1="264.2" x2="252.4" y2="264.2"/>
				<line class="st3" x1="230.8" y1="139.2" x2="247.8" y2="139.2"/>
				<line class="st3" x1="230.8" y1="143.1" x2="247.8" y2="143.1"/>
				<line class="st3" x1="230.8" y1="146.9" x2="247.8" y2="146.9"/>
				<line class="st3" x1="243.5" y1="92.9" x2="260.5" y2="92.9"/>
				<line class="st3" x1="243.5" y1="96.7" x2="260.5" y2="96.7"/>
				<line class="st3" x1="243.5" y1="100.6" x2="260.5" y2="100.6"/>
				<line class="st3" x1="182.3" y1="106.1" x2="199.3" y2="106.1"/>
				<line class="st3" x1="182.3" y1="109.9" x2="199.3" y2="109.9"/>
				<line class="st3" x1="182.3" y1="113.7" x2="199.3" y2="113.7"/>
				<path class="st10" d="M113.4,285.2c-0.7,2.5-1.2,5-1.6,7.6c0,1.5-0.4,2.6,2.9,3.2s5.5,0.3,6-1.3s0.9-9.2,0.9-9.2l-8.1-1.5
					L113.4,285.2z"/>
				<path class="st10" d="M120.7,294.7c0.1-0.4,0.2-0.7,0.2-1.1c-3.1,0-6.2-0.2-9.2-0.7c0,1.5-0.3,2.4,2.9,3.1
					C118.1,296.6,120.2,296.2,120.7,294.7z"/>
				<path class="st10" d="M191.2,285.7c0,0,2.6,0.9,6.3,2s11.3,2.4,12,2.6s0.8,1.7,0.1,2.3c-2.4,1.7-5.1,2.9-7.9,3.6
					c-4,1-17.4,1.9-18.6,1.2c-1-0.6-0.6-6.9-0.3-8.3S191.2,285.7,191.2,285.7z"/>
				<path class="st10" d="M209.6,292.7c0.4-0.5,0.6-1.2,0.4-1.8c-2.6,2.1-7.8,4.3-13.1,4.9c-4.8,0.3-9.6,0.3-14.4-0.1
					c0,0.6,0.2,1.2,0.5,1.7c1.2,0.8,14.6-0.1,18.6-1.2C204.5,295.5,207.2,294.4,209.6,292.7z"/>
				<path class="st11" d="M129.2,174.1c0,0-2.2,13.4-0.5,20.8c0,0-3.2,29.5-3.7,42.6c0,0-6.9,23.1-7.9,30.2s-3.7,17.4-3.7,17.4
					c1.6,0.9,3.2,1.4,5,1.7c3.5,0.7,4-2,4-2s19.1-43.9,20.6-50.3s6.4-29.5,6.4-29.5l20.6,37.7c0,0,1,12.9,4,20.3
					c3,7.4,8.7,28,8.7,28c2.3,0.1,4.5-0.1,6.7-0.7c3-1,3-2.5,3-2.5s-4.5-16.6-4.5-22.1s-1.7-24-3-29.3s-9.7-32.5-10.9-35.4
					s-4-12.4-4-12.4l-1.7-14.6C168.1,174.1,146.8,180.1,129.2,174.1z"/>
				<path class="st10" d="M145,110.9c-0.6-1.3-0.9-2.6-1.1-4c0-1.5-0.8-8.7-0.8-8.7s11-19.9,14-23.7c2-2.4,4.2-4.6,6.6-6.6
					c0,0,7.4-1.5,8.9-1.5s3.2-0.8,3.2-1.7s-2.5-0.8-4-0.8c-1.2-0.2-2.4-0.6-3.4-1.3c0,0,2.5-7.1,3.2-9.9c0.4-1.5,1.7-4.6,0.8-4.6
					s-1.1,0.8-1.7,1.9s-3,4.9-3,4.9l0.6-8.4c0,0-0.8-1.1-1.3,0.2c-0.8,2.1-1.4,4.2-1.9,6.3c-0.2,0.7-0.5,1.3-1,1.8l-0.8-6.2
					c0,0-1.3-1.4-1.5,1c-0.1,1.3,0,5.7,0,6.5S161,55,161,55s-0.4-2.1-0.9-2.3s-0.9,0.4-0.8,1.9s-0.2,7.8-0.2,7.8s-1.1,1.5-2.8,3.6
					s-15.4,14.4-20.5,18.4s-5.7,7.2-6.5,11.2s-1.5,27.1-1.5,35.5s0.8,21.6,1.3,26s-0.4,10.1-1.1,13.1s0,5.7,2.1,7.2s11,2.5,18.4,2.5
					s15-0.8,17.3-1.5s4-0.9,4-4s-1.5-9.1-1.5-10.8s3-19.4,3-19.4s19.4,5.9,23,4.6s33.8-29.8,33.8-29.8c2.3-1,4.7-1.7,7.2-2.3
					c2.5-0.4,6.3-2.1,6.5-2.7s-0.4-0.4-1.9-0.4c-1.4,0.1-2.7,0.4-4,0.8c0,0,5.2-3.3,6.1-3.6c0.6-0.2,1.7-1.6,0.2-1.3
					c-1.9,0.4-6.5,1.7-6.5,1.7l6.1-3.8c0,0,0.9-1.5-0.2-1.5s-6.8,3.4-6.8,3.4l4.4-4.1c0.9-0.8,0.1-1.9-0.9-1.3l-5.1,2.9
					c-1.3,0.7-2.6,1.3-4,1.8l-0.9,0.6c0.2-1,0.3-2,0.4-3c0-0.9-0.6-3.4-1.9-3.6s-0.2,1.7-0.2,2.7s-1.9,5.9-1.9,6.6v2.3
					c-3.8,3.3-7.9,6.2-12.3,8.7c-5.9,3-19.2,13.1-19.2,13.1s-15.2-7.8-18.6-10.6s-7.2-6.3-11-9.3c-2-1.6-4.1-3.1-6.3-4.4L145,110.9z
					"/>
				<path class="st12" d="M208.4,125.1c-6.4,4.1-15.2,10.8-15.2,10.8s-15.2-7.8-18.6-10.6s-7.2-6.3-11-9.3c-2-1.6-4.1-3.1-6.3-4.4
					L145,111c-0.6-1.3-0.9-2.6-1.1-4c0-1.5-0.8-8.7-0.8-8.7s5.7-10.3,10-17.5c-0.1-0.1-0.2-0.2-0.3-0.4c-2.1-2-4.8-3.3-7.6-3.9
					c-3.6,3.2-7.1,6.2-9.2,7.9c-5.1,4-5.7,7.2-6.5,11.2s-1.5,27.1-1.5,35.5s0.8,21.6,1.3,26s-0.4,10.1-1.1,13.1s0,5.7,2.1,7.2
					s11,2.5,18.4,2.5s15-0.8,17.3-1.5s4-0.9,4-4s-1.5-9.1-1.5-10.8s3-19.4,3-19.4s19.4,5.9,23,4.6c1.9-0.7,11.4-9.2,19.9-16.9
					C212.8,129.3,210.8,127,208.4,125.1z"/>
				<path class="st13" d="M165.4,119.3c0,0-7.6,2.1-8.1,7.9"/>
				<path class="st13" d="M171.3,144.2c0,0-8.9-2.4-13.5-7.1"/>
				<path class="st13" d="M166.4,142.9c0,0-7.6,2.1-14.6-0.7"/>
				<path class="st13" d="M134.1,130.6c0,0,2.4,16.8,14,25.3"/>
				<path class="st13" d="M151.9,160.5c0.9,0.2,1.8,0.4,2.7,0.6"/>
				<path class="st13" d="M134.1,147.5c3.3,4.8,7.7,8.7,13,11.3"/>
				<path class="st13" d="M131.9,110c0,0,7.4-3.7,11.8-0.2"/>
				<path class="st13" d="M134,93.1c0,0,6.7,2.3,8.6,6.9"/>
				<path class="st13" d="M138.4,91.5c1.6,1.3,2.7,3.1,3.2,5.1"/>
				<path class="st10" d="M170,80.6c0,0,1.1,6.5,1.1,8.2s-1.9,2.3-1.1,4.6s2.5,2.5,2.1,4.4s-2.8,3-2.8,3s-1.3,5.3-2.7,7.6
					s-6.3,0.6-6.3,0.6l-0.4,6.1c0,0-1.7,2.5-8,1.7c-3.6-0.4-7.1-1.4-10.4-2.8l-0.9-1.3c0,0,4.9-2.5,5.1-4.2s0-5.7,0-11.4
					s-1.7-16.7,7.6-19.6S170,80.6,170,80.6z"/>
				<path class="st11" d="M158.4,96.2c0,0-2.1-4.9-4.5-2.1c-1.6,1.8,0.4,7.2,1.3,8s3,0.4,3,0.4s-3,3-6.3,3s-6.1-3-8.2-8.4
					s-3.6-14.4-1.3-19.9s14-5.7,16.7-5.7c2.3,0.2,4.5,0.7,6.6,1.5c0,0,8.5-0.8,8.7,2.1s-1.1,3-1.1,3s6.1,3.2,3.2,4.6
					s-7.2,0.6-10.1,0.6c-1.6-0.1-3.1,0.7-3.8,2.1c0,0,2.7,1.7,1.7,2.5s-4.4,2.3-4.7,3.6s1.3,3.4,0.2,4.4
					C158.8,96.7,158.4,96.2,158.4,96.2z"/>
				<path class="st7" d="M169,93.9c0,1-0.4,1.8-0.9,1.8s-0.9-0.8-0.9-1.8s0.4-1.8,0.9-1.8S169,92.9,169,93.9z"/>
				<path class="st13" d="M165.9,91.6c0,0,1.2-2.9,3.2-1.3"/>
				<polyline class="st14" points="149.3,205.1 147.6,201.9 138.9,199.7 				"/>
				<g id="Graphics">
					<path class="st15" d="M842.2,41.9v-7.2l-5.4-0.5c-0.3-1.1-0.8-2.2-1.3-3.2l3.5-4.1l-5.1-5.1l-4.1,3.5c-1-0.6-2.1-1-3.2-1.3
						l-0.5-5.4H819l-0.5,5.4c-1.1,0.3-2.2,0.8-3.2,1.3l-4.1-3.5l-5.1,5.1l3.5,4.1c-0.6,1-1,2.1-1.3,3.2l-5.4,0.5v7.2l5.4,0.5
						c0.3,1.1,0.8,2.2,1.3,3.2l-3.5,4.1l5.1,5.1l4.1-3.5c1,0.6,2.1,1,3.2,1.3L819,58h7.2l0.5-5.4c1.1-0.3,2.2-0.8,3.2-1.3l4.1,3.5
						l5.1-5.1l-3.5-4.1c0.6-1,1-2.1,1.3-3.2L842.2,41.9z M822.5,46.6c-4.6,0-8.3-3.7-8.3-8.3c0-4.6,3.7-8.3,8.3-8.3
						c4.6,0,8.3,3.7,8.3,8.3c0,0,0,0,0,0C830.8,42.9,827.1,46.6,822.5,46.6C822.5,46.6,822.5,46.6,822.5,46.6z"/>
					<path class="st15" d="M770.7,261.1V254l-5.4-0.5c-0.3-1.1-0.8-2.2-1.3-3.2l3.5-4.1l-5.1-5.1l-4.1,3.5c-1-0.6-2.1-1-3.2-1.3
						l-0.5-5.4h-7.2l-0.5,5.4c-1.1,0.3-2.2,0.8-3.2,1.3l-4.1-3.5l-5.1,5.1l3.5,4.1c-0.6,1-1,2.1-1.3,3.2l-5.4,0.5v7.2l5.4,0.5
						c0.3,1.1,0.8,2.2,1.3,3.2l-3.5,4.1l5.1,5.1l4.1-3.5c1,0.6,2.1,1,3.2,1.3l0.5,5.4h7.2l0.5-5.4c1.1-0.3,2.2-0.8,3.2-1.3l4.1,3.5
						l5.1-5.1l-3.5-4.1c0.6-1,1-2.1,1.3-3.2L770.7,261.1z M751,265.9c-4.6,0-8.3-3.7-8.3-8.3c0-4.6,3.7-8.3,8.3-8.3
						c4.6,0,8.3,3.7,8.3,8.3v0C759.3,262.2,755.6,265.9,751,265.9C751,265.9,751,265.9,751,265.9z"/>
					<path class="st15" d="M407.8,33.6v-7.2l-5.4-0.5c-0.3-1.1-0.8-2.2-1.3-3.2l3.5-4.1l-5.1-5.1l-4.1,3.5c-1-0.6-2.1-1-3.2-1.3
						l-0.5-5.4h-7.2l-0.5,5.4c-1,0.3-2,0.8-3,1.3l-4.1-3.5l-5.1,5.1l3.5,4.1c-0.6,1-1,2.1-1.3,3.2l-5.4,0.5v7.2l5.4,0.5
						c0.3,1.1,0.8,2.2,1.3,3.2l-3.5,4.1l5.1,5.1L381,43c1,0.6,2.1,1,3.2,1.3l0.5,5.4h7.2l0.5-5.4c1.1-0.3,2.2-0.8,3.2-1.3l4.1,3.5
						l5.1-5.1l-3.5-4.1c0.6-1,1-2.1,1.3-3.2L407.8,33.6z M388.2,38.3c-4.6,0-8.3-3.7-8.3-8.3s3.7-8.3,8.3-8.3c4.6,0,8.3,3.7,8.3,8.3
						c0,0,0,0,0,0C396.5,34.6,392.8,38.3,388.2,38.3C388.2,38.3,388.2,38.3,388.2,38.3L388.2,38.3z"/>
					<path class="st15" d="M429.4,262.9v-13.6l-10.2-0.9c-0.6-2.1-1.4-4.2-2.5-6.1l6.6-7.8l-9.6-9.6l-7.8,6.6
						c-1.9-1.1-4-1.9-6.1-2.5l-0.9-10.2h-13.6l-0.9,10.2c-2.1,0.6-4.2,1.4-6.1,2.5l-7.8-6.6l-9.6,9.6l6.6,7.8
						c-1.1,1.9-1.9,4-2.5,6.1l-10.2,0.9v13.6l10.2,0.9c0.6,2.1,1.4,4.2,2.5,6.1l-6.6,7.8l9.6,9.6l7.8-6.6c1.9,1.1,4,1.9,6.1,2.5
						l0.9,10.2h13.6l0.9-10.2c2.1-0.6,4.2-1.4,6.1-2.5l7.8,6.6l9.6-9.6l-6.6-7.8c1.1-1.9,1.9-4,2.5-6.1L429.4,262.9z M392,271.9
						c-8.7,0-15.8-7.1-15.8-15.8s7.1-15.8,15.8-15.8c8.7,0,15.8,7.1,15.8,15.8v0C407.8,264.8,400.7,271.9,392,271.9z"/>
					<path class="st15" d="M1200.8,158.3v-6.5l-4.9-0.4c-0.3-1-0.7-2-1.2-2.9l3.2-3.7l-4.6-4.6l-3.7,3.2c-0.9-0.5-1.9-0.9-2.9-1.2
						l-0.4-4.9h-6.5l-0.4,4.9c-1,0.3-2,0.7-2.9,1.2l-3.7-3.2l-4.6,4.6l3.2,3.7c-0.5,0.9-0.9,1.9-1.2,2.9l-4.9,0.4v6.5l4.9,0.4
						c0.3,1,0.7,2,1.2,2.9l-3.2,3.7l4.6,4.6l3.7-3.2c0.9,0.5,1.9,0.9,2.9,1.2l0.4,4.9h6.5l0.4-4.9c1-0.3,2-0.7,2.9-1.2l3.7,3.2
						l4.6-4.6l-3.2-3.7c0.5-0.9,0.9-1.9,1.2-2.9L1200.8,158.3z M1182.9,162.6c-4.2,0-7.6-3.4-7.6-7.6c0-4.2,3.4-7.6,7.6-7.6
						c4.2,0,7.6,3.4,7.6,7.6v0C1190.5,159.2,1187.1,162.6,1182.9,162.6z"/>
					<path class="st15" d="M1195.9,39.6c0.3-1.3,0.5-2.7,0.5-4c0-9.8-8-17.8-17.8-17.8c-1.6,0-3.1,0.2-4.6,0.6
						c-4.6-8.2-15-11.1-23.2-6.5c-5,2.8-8.3,8-8.7,13.8c-0.9-0.2-1.7-0.3-2.6-0.3c-7.1,0-13.1,5.3-13.8,12.4
						c-4.3,0.1-7.8,3.6-7.7,7.9c0.1,4.3,3.6,7.8,7.9,7.7h65.2c4.3,0,7.8-3.5,7.8-7.8C1198.8,43.3,1197.7,41.1,1195.9,39.6z"/>
					<line class="st15" x1="1160.1" y1="47.5" x2="1160.1" y2="65.4"/>
					<line class="st15" x1="1160.1" y1="36.7" x2="1160.1" y2="43.9"/>
					<line class="st15" x1="1160.1" y1="30" x2="1160.1" y2="33.8"/>
					<polyline class="st15" points="1156.7,63.3 1160.1,67.5 1163.5,63.3 					"/>
					<path class="st16" d="M997.3,250.4c0.3-1.3,0.5-2.7,0.5-4c0-9.8-8-17.8-17.8-17.8c-1.6,0-3.1,0.2-4.6,0.6
						c-4.6-8.2-15-11.1-23.2-6.5c-5,2.8-8.3,8-8.7,13.8c-0.9-0.2-1.7-0.3-2.6-0.3c-7.1,0-13.1,5.3-13.8,12.4
						c-4.3,0.1-7.8,3.6-7.7,7.9c0.1,4.3,3.6,7.8,7.9,7.7l0,0h65.2c4.3,0,7.8-3.5,7.8-7.8C1000.2,254.1,999.1,251.9,997.3,250.4z"/>
					<line class="st16" x1="961.5" y1="260.8" x2="961.5" y2="242.8"/>
					<line class="st16" x1="961.5" y1="271.5" x2="961.5" y2="264.4"/>
					<line class="st16" x1="961.5" y1="278.3" x2="961.5" y2="274.4"/>
					<polyline class="st16" points="964.9,244.9 961.5,240.7 958.1,244.9 					"/>
					<path class="st15" d="M456.5,111.6c0.3-1.3,0.5-2.7,0.5-4c0-9.8-8-17.8-17.8-17.8c-1.6,0-3.1,0.2-4.6,0.6
						c-4.6-8.2-15-11.1-23.2-6.5c-5,2.8-8.3,8-8.7,13.8c-0.9-0.2-1.7-0.3-2.6-0.3c-7.1,0-13.1,5.3-13.8,12.4
						c-4.3,0.1-7.8,3.6-7.7,7.9c0.1,4.3,3.6,7.8,7.9,7.7l0,0h65.2c4.3,0,7.8-3.5,7.8-7.8C459.4,115.3,458.3,113.1,456.5,111.6z"/>
					<line class="st15" x1="420.7" y1="122" x2="420.7" y2="104"/>
					<line class="st15" x1="420.7" y1="132.8" x2="420.7" y2="125.6"/>
					<line class="st15" x1="420.7" y1="139.5" x2="420.7" y2="135.6"/>
					<polyline class="st15" points="424.1,106.1 420.7,101.9 417.3,106.1 					"/>
				</g>
				<g id="Interface">
					<path class="st17" d="M1062.8,55H863.5v-9.1c0-1.8,1.5-3.3,3.3-3.3h192.8c1.8,0,3.3,1.5,3.3,3.3L1062.8,55z"/>
					<rect x="872.2" y="57.3" class="st18" width="201.4" height="141.8"/>
					<path class="st18" d="M1076.7,48.8c0,1.7-1.4,3.1-3.1,3.1c-1.7,0-3.1-1.4-3.1-3.1s1.4-3.1,3.1-3.1l0,0
						C1075.3,45.7,1076.7,47.1,1076.7,48.8z"/>
					<path class="st18" d="M1065.8,48.8c0,1.7-1.4,3.1-3.1,3.1c-1.7,0-3.1-1.4-3.1-3.1s1.4-3.1,3.1-3.1l0,0c1.7,0,3.1,1.3,3.1,3
						C1065.8,48.7,1065.8,48.8,1065.8,48.8z"/>
					<path class="st18" d="M1055,48.8c0,1.7-1.4,3.1-3.1,3.1c-1.7,0-3.1-1.4-3.1-3.1s1.4-3.1,3.1-3.1l0,0
						C1053.6,45.7,1055,47.1,1055,48.8z"/>
					<line class="st19" x1="1067.5" y1="63.3" x2="1059.5" y2="63.3"/>
					<line class="st19" x1="1067.5" y1="66.6" x2="1059.5" y2="66.6"/>
					<line class="st19" x1="1067.5" y1="69.8" x2="1059.5" y2="69.8"/>
					<line class="st19" x1="886.1" y1="147" x2="946.5" y2="147"/>
					<line class="st19" x1="886.1" y1="151.7" x2="946.5" y2="151.7"/>
					<line class="st19" x1="886.1" y1="156.6" x2="933.7" y2="156.6"/>
					<line class="st20" x1="1014.1" y1="58.9" x2="1014.1" y2="59.2"/>
					<line class="st21" x1="1014.1" y1="61.5" x2="1014.1" y2="195.1"/>
					<line class="st20" x1="1014.1" y1="196.3" x2="1014.1" y2="196.7"/>
					<line class="st20" x1="874.6" y1="167.2" x2="875" y2="167.2"/>
					<line class="st22" x1="877.3" y1="167.2" x2="1069" y2="167.2"/>
					<line class="st20" x1="1070.2" y1="167.2" x2="1070.5" y2="167.2"/>
					<rect x="1012.8" y="165.9" class="st18" width="2.6" height="2.6"/>
					<path class="st17" d="M1153.2,93.1h-37.8c-0.9,0-1.7,0.7-1.7,1.7c0,0,0,0,0,0v17.6c0,0.9,0.7,1.7,1.7,1.7c0,0,0,0,0,0h17
						l1.9,6.9l1.9-6.9h17c0.9,0,1.7-0.7,1.7-1.7c0,0,0,0,0,0V94.8C1154.8,93.9,1154.1,93.2,1153.2,93.1z"/>
					<line class="st23" x1="1120" y1="98.2" x2="1148.6" y2="98.2"/>
					<line class="st23" x1="1120" y1="101.8" x2="1148.6" y2="101.8"/>
					<line class="st23" x1="1120" y1="105.4" x2="1148.6" y2="105.4"/>
					<line class="st23" x1="1120" y1="109" x2="1141.5" y2="109"/>
					<path class="st24" d="M138.9,21.7h-37.8c-0.9,0-1.7,0.7-1.7,1.7c0,0,0,0,0,0V41c0,0.9,0.7,1.7,1.7,1.7c0,0,0,0,0,0h17l1.9,6.9
						l1.9-6.9h17c0.9,0,1.7-0.7,1.7-1.7c0,0,0,0,0,0V23.4C140.5,22.5,139.8,21.8,138.9,21.7z"/>
					<line class="st19" x1="105.7" y1="26.8" x2="134.3" y2="26.8"/>
					<line class="st19" x1="105.7" y1="30.4" x2="134.3" y2="30.4"/>
					<line class="st19" x1="105.7" y1="34" x2="134.3" y2="34"/>
					<line class="st19" x1="105.7" y1="37.6" x2="127.2" y2="37.6"/>
					<line class="st20" x1="1003.6" y1="141.8" x2="968.3" y2="141.8"/>
					<path class="st20" d="M1004.3,158.1c0,0,0-16.4-18.3-16.4s-18.3,16.4-18.3,16.4"/>
					<circle class="st24" cx="1004.3" cy="158.1" r="1.5"/>
					<path class="st24" d="M966,158.1c0-0.8,0.7-1.5,1.5-1.5s1.5,0.7,1.5,1.5s-0.7,1.5-1.5,1.5c-0.8,0-1.5-0.6-1.5-1.3
						C966,158.2,966,158.2,966,158.1z"/>
					<rect x="1002.9" y="140.4" class="st24" width="2.7" height="2.7"/>
					<rect x="984.6" y="140.4" class="st24" width="2.7" height="2.7"/>
					<rect x="966.2" y="140.4" class="st24" width="2.7" height="2.7"/>
					<path class="st24" d="M908.1,92.4V87l-4.1-0.4c-0.2-0.8-0.5-1.7-1-2.4l2.6-3.1l-3.8-3.8l-3.1,2.6c-0.8-0.4-1.6-0.8-2.4-1
						l-0.4-4.1h-5.4l-0.4,4.1c-0.8,0.2-1.7,0.5-2.4,1l-3.1-2.6l-3.8,3.8l2.6,3.1c-0.4,0.8-0.8,1.6-1,2.4l-4.1,0.4v5.4l4.1,0.4
						c0.2,0.8,0.5,1.7,1,2.4l-2.6,3.1l3.8,3.8l3.1-2.6c0.8,0.4,1.6,0.8,2.4,1l0.4,4.1h5.4l0.4-4.1c0.8-0.2,1.7-0.5,2.4-1l3.1,2.6
						l3.8-3.8l-2.6-3.1c0.4-0.8,0.8-1.6,1-2.4L908.1,92.4z M893.2,96c-3.5,0-6.3-2.8-6.3-6.3c0-3.5,2.8-6.3,6.3-6.3
						c3.5,0,6.3,2.8,6.3,6.3v0C899.5,93.2,896.7,96,893.2,96C893.2,96,893.2,96,893.2,96z"/>
					<path class="st24" d="M926.5,104.6v-3.7l-2.8-0.2c-0.2-0.6-0.4-1.2-0.7-1.7l1.8-2.1l-2.6-2.6l-2.1,1.8
						c-0.5-0.3-1.1-0.5-1.7-0.7l-0.2-2.8h-3.7l-0.2,2.8c-0.6,0.2-1.2,0.4-1.7,0.7l-2.1-1.8l-2.6,2.6l1.8,2.1
						c-0.3,0.5-0.5,1.1-0.7,1.7l-2.8,0.2v3.7l2.8,0.2c0.2,0.6,0.4,1.2,0.7,1.7l-1.8,2.1l2.6,2.6l2.1-1.8c0.5,0.3,1.1,0.5,1.7,0.7
						l0.2,2.8h3.7l0.2-2.8c0.6-0.2,1.2-0.4,1.7-0.7l2.1,1.8l2.6-2.6l-1.8-2.1c0.3-0.5,0.5-1.1,0.7-1.7L926.5,104.6z M916.3,107.1
						c-2.4,0-4.3-1.9-4.3-4.3c0-2.4,1.9-4.3,4.3-4.3c2.4,0,4.3,1.9,4.3,4.3v0C920.6,105.2,918.7,107.1,916.3,107.1z"/>
					<line class="st19" x1="1021.7" y1="176.2" x2="1051.4" y2="176.2"/>
					<line class="st19" x1="1021.7" y1="181" x2="1051.4" y2="181"/>
					<line class="st19" x1="1021.7" y1="185.8" x2="1038.7" y2="185.8"/>
					<path class="st24" d="M982.6,187.8H967c-2.1,0-3.8-1.7-3.8-3.8l0,0c0-2.1,1.7-3.8,3.8-3.8h15.6c2.1,0,3.8,1.7,3.8,3.8l0,0
						C986.4,186.1,984.7,187.8,982.6,187.8z"/>
					<path class="st24" d="M1011.7,187.8h-15.6c-2.1,0-3.8-1.7-3.8-3.8l0,0c0-2.1,1.7-3.8,3.8-3.8h15.6c2.1,0,3.8,1.7,3.8,3.8l0,0
						c0.1,2-1.5,3.7-3.6,3.8C1011.9,187.8,1011.8,187.8,1011.7,187.8z"/>
					<rect x="1023.9" y="105.6" class="st18" width="33.2" height="33.2"/>
					<line class="st20" x1="1023.9" y1="105.6" x2="1057.1" y2="138.7"/>
					<line class="st20" x1="1057.1" y1="105.6" x2="1023.9" y2="138.7"/>
					<polygon class="st18" points="1036.9,67.9 1036.9,75.7 1033.5,79.1 1025.7,79.1 1025.7,67.9 					"/>
					<polygon class="st18" points="1036.9,75.7 1033.5,79.1 1033.5,75.7 					"/>
					<polygon class="st18" points="918.3,127.8 918.3,135.5 914.9,138.9 907.2,138.9 907.2,127.8 					"/>
					<polygon class="st18" points="918.3,135.5 914.9,138.9 914.9,135.5 					"/>
					<polygon class="st25" points="876.2,175.4 876.2,183.2 872.8,186.6 865.1,186.6 865.1,175.4 					"/>
					<polygon class="st18" points="876.2,183.2 872.8,186.6 872.8,183.2 					"/>
				</g>
				<g id="Character">
					<path class="st18" d="M1023.7,133.3c-3.9,0.3-8.9-4.3-8.9-4.3c-0.4,0.3-0.9,0.3-1.3,0c0-0.1-0.1-0.1-0.1-0.2
						c-0.6-0.9-3.4-3-3.5-4.9s3.1-4.8,3.1-4.8c-2.5,0.7-2.8-0.8-2.8-0.8s4.2-3.5,5.7-3.6c0.6,0,3.1,1.4,5.5,3.4s7.3,9.2,7.3,9.2
						s16.1,11.7,20.2,14.7c4.2,3.4,8.2,7,11.8,11c0,0,21.4,9.6,27.3,15l-8,18.9c0,0-19.5-13-21.4-16.4s-3.9-1.3-5.8-3.5
						s-3.8-4.6-3.8-4.6c-3.4-1.7-6.6-4-9.3-6.7c-4.6-4.7-8.6-11.8-11.1-16.1C1027.3,137.3,1025.7,135.1,1023.7,133.3z"/>
					<path class="st18" d="M1024.9,130.5c0,0-5.8-1.4-6.3-5.2c-0.2-1-0.7-1.9-1.2-2.7c0,0-5.4-0.3-5.1-2.5l7.2-0.6
						c2.6,1,4.9,2.9,6.3,5.3"/>
					<path class="st20" d="M1010.2,130c0.3-0.5,0.4-1.1,0.3-1.7c0,0,1.7-0.3,1.5-1.8c0,0,2.5-0.3,0.9-3.3"/>
					<path class="st20" d="M1012,126.5c0,0-3.4-2.5-3.8-3.7"/>
					<path class="st20" d="M1010.5,128.3c0,0-3.6-2.2-3.7-3.5"/>
					<path class="st20" d="M1011.3,116.9c-0.7,1.2-1.8,2.1-3.1,2.5"/>
					<path class="st20" d="M1010.7,117.7c0.6,0.3,1.2,0.7,1.7,1.1"/>
					<path class="st7" d="M1139,182.9c-8.4-3.6-17-6.4-25.8-8.6c-13-3-33.9-5.7-33.9-5.7s5.8,58.9,4.3,62.4s-10.6,15.4-10.6,15.4
						s49.4,19.3,58,20.9s4.1-28.2,4.1-28.2S1144.1,201.1,1139,182.9z"/>
					<path class="st18" d="M1121.3,176.6c0,0,1.2,2.2-1.9,3.4c-8,3-16.5,0.3-15.6-2.8c0.3-1.2,2.3,0,2.2-4.5c0-0.7-0.2-1.4-0.5-2
						c-0.6-1.2-1.3-2.3-2-3.4c-1.4-1.9-2.7-3.4-2.7-3.4s12.7-8.1,22.1,0C1122.8,163.9,1119.3,165.7,1121.3,176.6z"/>
					<path class="st26" d="M1137,281.5c-5,8.1-30.3,12-44.2,11.6s-53.7-19.2-56.4-23.2c-2.5-3.7-8.7-15.9,0.8-23.3
						c0.8-0.6,1.7-1.2,2.6-1.7c6.5-3.5,49.6,7.6,49.6,7.6s2.7-1.7,3.7-1.6c3,0.4,5.1,2.8,11.2,4.6c4.3,1.2,15.9-3.5,23.3,0.6
						c0.8,0.4,1.6,1,2.3,1.6C1136.9,264.3,1142,273.4,1137,281.5z"/>
					<g>
						<defs>
							<path id="SVGID_00000054947115592881635530000007467193637579669406_" d="M1137,281.5c-5,8.1-30.3,12-44.2,11.6
								s-53.7-19.2-56.4-23.2c-2.5-3.7-8.7-15.9,0.8-23.3c0.8-0.6,1.7-1.2,2.6-1.7c6.5-3.5,49.6,7.6,49.6,7.6s2.7-1.7,3.7-1.6
								c3,0.4,5.1,2.8,11.2,4.6c4.3,1.2,15.9-3.5,23.3,0.6c0.8,0.4,1.6,1,2.3,1.6C1136.9,264.3,1142,273.4,1137,281.5z"/>
						</defs>
						<clipPath id="SVGID_00000036226292712490483990000002650296549724162238_">
							<use xlink:href="#SVGID_00000054947115592881635530000007467193637579669406_"  style="overflow:visible;"/>
						</clipPath>
						<g style="clip-path:url(#SVGID_00000036226292712490483990000002650296549724162238_);">
							<path class="st28" d="M1127.7,256.1c-7.6-0.5-14.4,1.1-19.1,3.9c-5.6,3.3-32.1,16.1-32.1,16.1c0.3-1.4,0.8-2.8,1.5-4.1
								c-2.5-2.2-9-3.9-9-3.9c-5.1-4.3-25.1-17.2-31.6-21.4c0.8-0.6,1.7-1.2,2.6-1.7c6.5-3.5,49.6,7.6,49.6,7.6s2.7-1.7,3.7-1.6
								c3,0.4,5.1,2.8,11.2,4.6C1108.6,256.7,1120.3,252,1127.7,256.1z"/>
						</g>
					</g>
					<path class="st20" d="M1137,281.5c-5,8.1-30.3,12-44.2,11.6s-53.7-19.2-56.4-23.2c-2.5-3.7-8.7-15.9,0.8-23.3
						c0.8-0.6,1.7-1.2,2.6-1.7c6.5-3.5,49.6,7.6,49.6,7.6s2.7-1.7,3.7-1.6c3,0.4,5.1,2.8,11.2,4.6c4.3,1.2,15.9-3.5,23.3,0.6
						c0.8,0.4,1.6,1,2.3,1.6C1136.9,264.3,1142,273.4,1137,281.5z"/>
					<path class="st18" d="M1129.2,288.8l0.6,2.8c0,0-1.7,4.8-9.2,5.6s-11.9,2.4-15.5,2.7c-1.9,0.1-3.8,0.1-5.7-0.1l-0.7-1.1
						L1129.2,288.8z"/>
					<path class="st7" d="M1085.9,288.6l12.9,10.1c6.2-0.5,12.4-1.5,18.5-2.8l0,0c6.1-1.4,11.5-3.5,11.8-6.2
						c0.5-4.2-4.1-5.4-9.5-5.2c-1,0-2,0.1-3.1,0.2c-8.6,0.9-19.6-3.8-19.6-3.8L1085.9,288.6z"/>
					<g>
						<defs>
							<path id="SVGID_00000072277358015782986750000017116959841602419074_" d="M1085.9,288.6l12.9,10.1c6.2-0.5,12.4-1.5,18.5-2.8
								l0,0c6.1-1.4,11.5-3.5,11.8-6.2c0.5-4.2-4.1-5.4-9.5-5.2c-1,0-2,0.1-3.1,0.2c-8.6,0.9-19.6-3.8-19.6-3.8L1085.9,288.6z"/>
						</defs>
						<clipPath id="SVGID_00000153670535845603143880000007554898975146331047_">
							<use xlink:href="#SVGID_00000072277358015782986750000017116959841602419074_"  style="overflow:visible;"/>
						</clipPath>
						<g style="clip-path:url(#SVGID_00000153670535845603143880000007554898975146331047_);">
							<path class="st28" d="M1129.1,289.6c-2.5,0.9-4.9,2.1-7.2,3.5c0,0-12,6.2-30.5-0.2l-5.6-4.4l11.1-7.7c0,0,10.9,4.8,19.6,3.8
								c1-0.1,2.1-0.2,3.1-0.2C1125,284.3,1129.5,285.4,1129.1,289.6z"/>
						</g>
					</g>
					<path class="st20" d="M1085.9,288.6l12.9,10.1c6.2-0.5,12.4-1.5,18.5-2.8l0,0c6.1-1.4,11.5-3.5,11.8-6.2
						c0.5-4.2-4.1-5.4-9.5-5.2c-1,0-2,0.1-3.1,0.2c-8.6,0.9-19.6-3.8-19.6-3.8L1085.9,288.6z"/>
					<path class="st30" d="M1097.9,292.5c-2.3,0.4,0.2,5.1,3.4,3.7S1100.3,292.2,1097.9,292.5z"/>
					<g>
						<defs>
							<path id="SVGID_00000141420108316377960800000008415325364106361005_" d="M1097.9,292.5c-2.3,0.4,0.2,5.1,3.4,3.7
								S1100.3,292.2,1097.9,292.5z"/>
						</defs>
						<clipPath id="SVGID_00000025419531315012335030000013135027197309313926_">
							<use xlink:href="#SVGID_00000141420108316377960800000008415325364106361005_"  style="overflow:visible;"/>
						</clipPath>
						<g style="clip-path:url(#SVGID_00000025419531315012335030000013135027197309313926_);">
							<path class="st32" d="M1102.3,295.5c-1.7-0.2-3.4-0.5-5-0.9c-0.5-0.9-0.3-1.9,0.6-2.1C1099.9,292.2,1103.2,294,1102.3,295.5z
								"/>
						</g>
					</g>
					<path class="st20" d="M1097.9,292.5c-2.3,0.4,0.2,5.1,3.4,3.7S1100.3,292.2,1097.9,292.5z"/>
					<path class="st30" d="M1117.4,295.9c6.1-1.4,11.5-3.5,11.8-6.2c0.5-4.2-4.1-5.4-9.5-5.2
						C1119.4,284.7,1114.2,289.7,1117.4,295.9z"/>
					<g>
						<defs>
							<path id="SVGID_00000157275023288004452700000009539905206377176245_" d="M1117.4,295.9c6.1-1.4,11.5-3.5,11.8-6.2
								c0.5-4.2-4.1-5.4-9.5-5.2C1119.4,284.7,1114.2,289.7,1117.4,295.9z"/>
						</defs>
						<clipPath id="SVGID_00000088098274304626694470000002877564530622895771_">
							<use xlink:href="#SVGID_00000157275023288004452700000009539905206377176245_"  style="overflow:visible;"/>
						</clipPath>
						<g style="clip-path:url(#SVGID_00000088098274304626694470000002877564530622895771_);">
							<path class="st28" d="M1129.1,289.6c-2.5,0.9-4.9,2.1-7.2,3.5c-1.6,0.7-3.3,1.3-5.1,1.7c-2.1-5.7,2.6-10.2,2.8-10.4
								C1125,284.3,1129.5,285.4,1129.1,289.6z"/>
						</g>
					</g>
					<path class="st20" d="M1117.4,295.9c6.1-1.4,11.5-3.5,11.8-6.2c0.5-4.2-4.1-5.4-9.5-5.2
						C1119.4,284.7,1114.2,289.7,1117.4,295.9z"/>
					<path class="st18" d="M1113,290.7L1113,290.7c0.4,0,0.7-0.2,0.7-0.6c0.1-2.7,2.2-4.8,2.2-4.9c0.2-0.3,0.2-0.7-0.1-0.9
						c-0.2-0.2-0.6-0.2-0.8,0c-1.5,1.6-2.4,3.6-2.6,5.7C1112.4,290.3,1112.7,290.6,1113,290.7z"/>
					<path class="st18" d="M1110.4,290.8L1110.4,290.8c0.4,0,0.7-0.2,0.7-0.6c0.2-1.9,0.9-3.6,2-5.1c0.2-0.3,0.2-0.7-0.1-0.9
						s-0.7-0.2-0.9,0.1c-1.3,1.7-2.1,3.7-2.2,5.8c-0.1,0.3,0.1,0.6,0.4,0.7C1110.3,290.8,1110.4,290.8,1110.4,290.8z"/>
					<path class="st18" d="M1107.4,290.5L1107.4,290.5c0.4,0,0.7-0.2,0.7-0.6c0.4-1.8,1.1-3.6,2.1-5.1c0.2-0.3,0.1-0.7-0.2-0.9
						c-0.3-0.2-0.7-0.1-0.9,0.2l0,0c-1.2,1.7-1.9,3.7-2.3,5.7C1106.8,290.2,1107,290.5,1107.4,290.5z"/>
					<path class="st18" d="M1104.5,290.2h0.2c0.3-0.1,0.6-0.4,0.5-0.7c-0.5-2.7,2.1-5,2.1-5.1c0.2-0.3,0.2-0.7-0.1-0.9
						c-0.2-0.2-0.6-0.2-0.8,0c-0.1,0.1-3.1,2.8-2.5,6.2C1104,289.9,1104.2,290.2,1104.5,290.2z"/>
					<path class="st18" d="M1101.3,289.4h0.2c0.4-0.1,0.6-0.4,0.5-0.8c-0.6-2.4,1.8-5.2,1.9-5.2c0.2-0.3,0.2-0.7-0.1-0.9
						s-0.7-0.2-0.9,0.1c-0.1,0.1-2.8,3.3-2.1,6.3C1100.8,289.2,1101,289.4,1101.3,289.4z"/>
					<path class="st18" d="M1034.8,284.7l-0.9,2.7c0,0,1.2,5,8.5,6.5s11.6,3.7,15.1,4.3c1.9,0.4,3.8,0.5,5.7,0.5l0.8-1L1034.8,284.7
						z"/>
					<path class="st7" d="M1077.9,288.9l-13.9,8.7c-6.1-1.2-12.2-2.7-18.1-4.7l0,0c-5.9-2.1-11.1-4.6-11.1-7.4c0-4.3,4.6-4.9,10-4.2
						c1,0.1,2,0.3,3,0.5c8.5,1.8,19.9-1.8,19.9-1.8L1077.9,288.9z"/>
					<g>
						<defs>
							<path id="SVGID_00000094582687380556721540000015901302965645863336_" d="M1077.9,288.9l-13.9,8.7
								c-6.1-1.2-12.2-2.7-18.1-4.7l0,0c-5.9-2.1-11.1-4.6-11.1-7.4c0-4.3,4.6-4.9,10-4.2c1,0.1,2,0.3,3,0.5
								c8.5,1.8,19.9-1.8,19.9-1.8L1077.9,288.9z"/>
						</defs>
						<clipPath id="SVGID_00000067227315625852864480000018022932392273045145_">
							<use xlink:href="#SVGID_00000094582687380556721540000015901302965645863336_"  style="overflow:visible;"/>
						</clipPath>
						<g style="clip-path:url(#SVGID_00000067227315625852864480000018022932392273045145_);">
							<path class="st28" d="M1077.9,288.9l-8.2,5.1c-6.6-2-12.4-6.1-16.6-11.7c4.9-0.1,9.9-0.9,14.6-2.3L1077.9,288.9z"/>
						</g>
					</g>
					<path class="st20" d="M1077.9,288.9l-13.9,8.7c-6.1-1.2-12.2-2.7-18.1-4.7l0,0c-5.9-2.1-11.1-4.6-11.1-7.4
						c0-4.3,4.6-4.9,10-4.2c1,0.1,2,0.3,3,0.5c8.5,1.8,19.9-1.8,19.9-1.8L1077.9,288.9z"/>
					<path class="st18" d="M1045.9,293c-5.9-2.1-11.1-4.6-11.1-7.4c0-4.3,4.6-4.9,10-4.2C1045,281.6,1049.7,287.1,1045.9,293z"/>
					<path class="st18" d="M1050.8,288.2L1050.8,288.2c-0.3,0-0.6-0.2-0.6-0.5c0-0.1,0-0.1,0-0.2c0-1.8-0.6-3.6-1.7-5.1
						c-0.2-0.3-0.2-0.7,0.1-0.9s0.7-0.2,0.9,0.1c1.3,1.7,1.9,3.8,1.9,5.9C1051.4,287.9,1051.2,288.2,1050.8,288.2z"/>
					<path class="st18" d="M1053.3,288.6L1053.3,288.6c-0.3,0-0.6-0.2-0.6-0.5c0-0.1,0-0.1,0-0.2c0-1.8-0.4-3.6-1.4-5.2
						c-0.2-0.3-0.1-0.7,0.2-0.9c0.3-0.2,0.7-0.1,0.9,0.2c1.2,1.8,1.7,3.9,1.6,6C1053.9,288.3,1053.6,288.6,1053.3,288.6z"/>
					<path class="st18" d="M1056.4,288.6L1056.4,288.6c-0.3,0-0.6-0.2-0.6-0.6c0,0,0,0,0,0c-0.2-1.9-0.7-3.6-1.6-5.3
						c-0.2-0.3,0-0.7,0.3-0.9c0.3-0.2,0.7,0,0.9,0.3c1,1.8,1.6,3.9,1.7,6C1057,288.4,1056.7,288.6,1056.4,288.6z"/>
					<path class="st18" d="M1059.3,288.6h-0.2c-0.3-0.1-0.5-0.5-0.4-0.8c0.7-2.7-1.5-5.2-1.6-5.3c-0.3-0.2-0.3-0.6-0.1-0.9
						c0.2-0.3,0.6-0.3,0.9-0.1c0,0,0.1,0.1,0.1,0.1c0.1,0.1,2.8,3.1,1.8,6.5C1059.8,288.4,1059.6,288.6,1059.3,288.6
						C1059.3,288.6,1059.3,288.6,1059.3,288.6z"/>
					<path class="st18" d="M1062.5,288.2h-0.2c-0.3-0.1-0.5-0.5-0.4-0.8c0.8-2.4-1.3-5.3-1.3-5.4c-0.2-0.3-0.1-0.7,0.2-0.9
						c0.3-0.2,0.7-0.1,0.9,0.2c0.1,0.1,2.5,3.5,1.5,6.5C1063,288,1062.8,288.2,1062.5,288.2z"/>
					<path class="st18" d="M1065.5,291.7c2.3,0.6-0.8,5.1-3.8,3.3S1063.3,291,1065.5,291.7z"/>
					<path class="st24" d="M1039.2,267.9c3.4,4.8,13.6,10.1,23.7,14.4c1.8,3,3.9,5.8,6.3,8.3c6.2,6.4,8.7,2.8,8.7,2.8
						s3.9-0.4,9.7-1.2c0.5,1.1,1.7,1.8,2.9,1.6c0.8-0.1,2.2-1.2,3.8-2.6c14.6-2.2,34.5-5.9,39.9-10.2"/>
					<path class="st20" d="M1128.6,258.8c-2.5-2.8-5.1-2.9-10.4-2.5c0,0-13.9,4.4-23.5,10.3s-23.8,12-23.8,12s-4.3-1.2-7.3,0
						c0,0-2.1,0.2-0.7,3.8"/>
					<path class="st20" d="M1135,275.5c0,0,0.1,4.3-6,7.3"/>
					<path class="st20" d="M1067.9,257.6c0,0,9.6,6.9,11.5,11.5c1.9,0.8,3.7,1.7,5.5,2.8"/>
					<path class="st20" d="M1080.2,263.3c0.7,2,0.8,4.1,0.3,6.2"/>
					<path class="st20" d="M1077.9,258.8c0.5,0.8,1,1.6,1.4,2.4"/>
					<path class="st20" d="M1091.6,258.2c0,0,3.2,4.3,4,7.8"/>
					<path class="st20" d="M1109.5,284.1c1.2-0.1,2.4-0.2,3.6-0.4"/>
					<path class="st20" d="M1079.4,281.1c9.1,1.8,18.3,2.9,27.6,3.2"/>
					<path class="st18" d="M1144.3,216c0,0-1.7,30.2-3.8,32s-5.3,2.3-11.4,2.8S1096,253,1096,253l-2.9-8.7c0,0,14.4-1.5,20.7-3.8
						c4.8-1.6,9.7-2.9,14.7-3.9c-0.6-3.6-1-7.2-1.2-10.9v-15.4"/>
					<path class="st7" d="M1139,182.9c6.6,4.1,8.5,13.4,6.2,33.4c0,0,1.9,2.4-0.9,3.5c0,0-10.7-4-15.8-1.3s-3.7-3.8-3.7-3.8
						s-2.1-18.4,2.5-21.7"/>
					<path class="st15" d="M1126.8,190.3c0,0-6.3,6.6-0.8,23.2c-0.4,1.3-0.6,2.7-0.8,4.1c0,1.1,1.5,1.7,1.5,1.7"/>
					<path class="st15" d="M1119.4,201.4c0,0,0.5,8.1,5.5,11.6"/>
					<path class="st15" d="M1121,182.5c0,0-9.8,3.8-17.6-0.4c-4.6-2.5-2.7-6.4-2.7-6.4"/>
					<path class="st35" d="M1050.5,258.8h53.4c1.2,0,2.4-0.2,3.6-0.5l10.5-2.8c0.3-0.1,0.5-0.4,0.5-0.7l0,0c0-0.4-0.3-0.7-0.7-0.7
						c0,0,0,0,0,0h-69.5c-0.4,0-0.7,0.3-0.7,0.7c0,0,0,0,0,0v1C1047.6,257.4,1048.8,258.8,1050.5,258.8
						C1050.5,258.8,1050.5,258.8,1050.5,258.8z"/>
					<path class="st36" d="M1045.2,256.2h53.5c0.7,0,1.3-0.6,1.3-1.3c0-0.1,0-0.2,0-0.4l-9.9-38.6c-0.3-1-1.1-1.6-2.1-1.7h-53.5
						c-0.7,0-1.3,0.6-1.3,1.3c0,0.1,0,0.2,0,0.4l9.9,38.6C1043.3,255.5,1044.2,256.2,1045.2,256.2z"/>
					<line class="st20" x1="1036.2" y1="215.5" x2="1035.2" y2="215.5"/>
					<line class="st20" x1="1044.1" y1="215.5" x2="1038.8" y2="215.5"/>
					<path class="st20" d="M1097.4,251.3l-8.8-34.1c-0.3-1-1.1-1.6-2.1-1.7h-41.3"/>
					<line class="st20" x1="1098.2" y1="254.3" x2="1098" y2="253.4"/>
					<path class="st18" d="M1061.3,236.1c0,0.3,0.1,0.6,0.2,0.9c0.5,2.2,2.7,3.6,4.9,3.2c2.1-0.8,3.2-3.2,2.4-5.3
						c-0.5-2.2-2.7-3.6-4.9-3.2c-0.2,0.1-0.5,0.2-0.7,0.3C1063.4,233.6,1062.7,235.2,1061.3,236.1z"/>
					<path class="st7" d="M1084.9,163.7c-4.6-0.5-7.2-4.9-9.9-5.6c-1.6-0.4-3.1-0.9-4.6-1.5c0,0-1-3.4-2.4-2.2s-3.3,26.2-1.5,25.4
						s1.9,2.2,1.9,2.2l17.2,15.2l14.4-25.5C1100,171.7,1089.5,164.3,1084.9,163.7z"/>
					<polyline class="st20" points="935,71.6 935,71.2 935.4,71.2 					"/>
					<line class="st37" x1="937.8" y1="71.2" x2="1004.7" y2="71.2"/>
					<polyline class="st20" points="1005.9,71.2 1006.3,71.2 1006.3,71.6 					"/>
					<line class="st21" x1="1006.3" y1="73.9" x2="1006.3" y2="117.1"/>
					<polyline class="st20" points="1006.3,118.3 1006.3,118.7 1005.9,118.7 					"/>
					<line class="st37" x1="1003.6" y1="118.7" x2="936.6" y2="118.7"/>
					<polyline class="st20" points="935.4,118.7 935,118.7 935,118.3 					"/>
					<line class="st21" x1="935" y1="115.9" x2="935" y2="72.8"/>
					<circle class="st24" cx="970.7" cy="71.2" r="1.2"/>
					<circle class="st24" cx="935" cy="94.9" r="1.2"/>
					<circle class="st24" cx="970.7" cy="118.7" r="1.2"/>
					<circle class="st24" cx="1006.3" cy="94.9" r="1.2"/>
					<rect x="1004.9" y="117.3" class="st24" width="2.7" height="2.7"/>
					<rect x="1004.9" y="69.8" class="st24" width="2.7" height="2.7"/>
					<rect x="933.7" y="117.3" class="st24" width="2.7" height="2.7"/>
					<rect x="933.7" y="69.8" class="st24" width="2.7" height="2.7"/>
					<rect x="939.8" y="75.4" class="st18" width="62" height="39.4"/>
					<polygon class="st24" points="1001.8,103.1 994.9,110 976.2,91.4 968.4,99.2 955.9,86.7 939.8,102.8 939.8,114.8 1001.8,114.8 
											"/>
					<circle class="st24" cx="988.9" cy="86.6" r="4.4"/>
					<path class="st15" d="M1088,170.5c0,0-4.4,8.2-4.9,20.9"/>
					<path class="st15" d="M1075,176.2c0,0,1.3,7,5.2,12.1"/>
					<path class="st15" d="M1093.2,205.2c0,0,6.6,21.8,21.1,28.2"/>
					<path class="st7" d="M1110.6,165.7c0,0-0.6,4.8-5.2,5.1c-0.6-1.2-1.3-2.3-2-3.4C1105.8,166.7,1108.2,166.1,1110.6,165.7z"/>
					<path class="st18" d="M1120.4,166c0,0,7.7,0.9,10.9-9.3s0.7-18-12-21.7c-7-2.1-14.1-0.4-16.6,4.9c-2.2,4.6-1.1,8.3-1.6,9.9
						s-5.7,3.2-5.7,4.3s2.9,2.6,2.9,2.6l-0.8,2.5l0.8,0.4c0,0-1.5,5.8-0.8,7.8c0.5,1.5,13.5,2.1,14.5-1.6"/>
					<path class="st20" d="M1102.7,143.6c0,0,2.5,0.6,3.2,2"/>
					<path class="st7" d="M1103.2,149.4c-0.1,0.7,0.1,1.4,0.4,1.4s0.7-0.5,0.8-1.3s-0.1-1.4-0.4-1.4S1103.3,148.6,1103.2,149.4z"/>
					<path class="st20" d="M1098.1,159.6c0,0,4.1,1.6,5.7,0.6"/>
					<path class="st20" d="M1099.6,148.8c-0.3,1.6,0.1,3.1,0.8,3.2s1.6-1.1,1.9-2.7s-0.1-3.1-0.8-3.2S1099.9,147.2,1099.6,148.8z"/>
					<path class="st7" d="M1131.6,140.4c-0.6-3-2.3-5.6-4.8-7.4c-2.8-1.9-6-3.2-9.3-3.8c1.3,0.6,2.5,1.4,3.4,2.5
						c0,0-6.3-4.7-13.8-1.6s-6.6,11.2-6.6,11.2l1.1-2.1c0,0-0.1,2.5,1.2,3.5c0.4-1.2,0.9-2.4,1.6-3.5c0,0,2,6,7.5,8
						c-0.4-1-0.4-2-0.1-3c0,0,3,6.6,2.2,9.8l1,1.7c0,0,3.5-3.5,6.3-0.6c1.6,1.7-3.1,8.1-3.8,8.1l2.9,4.2c0,0,7.2,1,11.3-6.7
						s3.1-11.1,3.1-11.1c0.7,0.9,1.2,1.9,1.5,3C1136.2,152.5,1137.4,144.1,1131.6,140.4z"/>
					<path class="st18" d="M1114.7,156.3c0,0,2.2-7.4,6.9-4.8s1.3,6.6-0.3,8.1s-3,4.3-4.1,4.3s-1.4-1.4-1.4-1.4"/>
					<line class="st20" x1="1102.3" y1="149.3" x2="1115.5" y2="152"/>
				</g>
			</g>
		</g>
	</g>
</g>
</svg>
