<?xml version="1.0" encoding="utf-8"?>
<!-- Generator: Adobe Illustrator 26.0.2, SVG Export Plug-In . SVG Version: 6.00 Build 0)  -->
<svg version="1.1" id="Layer_1" xmlns="http://www.w3.org/2000/svg" xmlns:xlink="http://www.w3.org/1999/xlink" x="0px" y="0px"
	 viewBox="0 0 1245 300" style="enable-background:new 0 0 1245 300;" xml:space="preserve">
<style type="text/css">
	.st0{clip-path:url(#SVGID_00000114767549216402545260000012587594046828557461_);}
	.st1{fill:#9FCFFF;}
	.st2{fill:none;stroke:#263238;stroke-width:1.0229;stroke-linecap:round;stroke-linejoin:round;stroke-miterlimit:10;}
	.st3{fill:none;stroke:#263238;stroke-width:1.0229;stroke-linecap:round;stroke-linejoin:round;}
	.st4{fill:none;stroke:#263238;stroke-width:1.0229;stroke-linecap:round;stroke-linejoin:round;stroke-dasharray:2.0168,2.0168;}
	.st5{fill:none;stroke:#263238;stroke-width:1.0229;stroke-linecap:round;stroke-linejoin:round;stroke-dasharray:1.9691,1.9691;}
	.st6{fill:#FFFFFF;stroke:#263238;stroke-width:1.0229;stroke-linecap:round;stroke-linejoin:round;stroke-miterlimit:10;}
	.st7{fill:#263238;}
	.st8{fill:#263238;stroke:#263238;stroke-width:0.8292;stroke-linecap:round;stroke-linejoin:round;stroke-miterlimit:10;}
	.st9{fill:#FFFFFF;stroke:#263238;stroke-width:0.8292;stroke-linecap:round;stroke-linejoin:round;stroke-miterlimit:10;}
	.st10{fill:#C6FF00;}
	.st11{fill:none;stroke:#263238;stroke-width:1.0348;stroke-linecap:round;stroke-linejoin:round;stroke-miterlimit:10;}
	.st12{fill:#FFFFFF;stroke:#263238;stroke-width:1.0348;stroke-linecap:round;stroke-linejoin:round;stroke-miterlimit:10;}
	.st13{fill:#263238;stroke:#263238;stroke-width:1.0348;stroke-linecap:round;stroke-linejoin:round;stroke-miterlimit:10;}
	.st14{fill:#453BAE;stroke:#263238;stroke-width:1.0348;stroke-linecap:round;stroke-linejoin:round;stroke-miterlimit:10;}
	.st15{fill:none;stroke:#FFFFFF;stroke-width:1.0348;stroke-linecap:round;stroke-linejoin:round;stroke-miterlimit:10;}
	.st16{fill:none;stroke:#263238;stroke-linecap:round;stroke-linejoin:round;stroke-miterlimit:10;}
	.st17{fill:#407BFF;stroke:#263238;stroke-linecap:round;stroke-linejoin:round;stroke-miterlimit:10;}
	.st18{fill:#FFFFFF;stroke:#263238;stroke-linecap:round;stroke-linejoin:round;stroke-miterlimit:10;}
	.st19{fill:none;stroke:#263238;stroke-width:2;stroke-linecap:round;stroke-linejoin:round;stroke-miterlimit:10;}
	.st20{fill:none;stroke:#263238;stroke-linecap:round;stroke-linejoin:round;}
	.st21{fill:none;stroke:#263238;stroke-linecap:round;stroke-linejoin:round;stroke-dasharray:0.9984,2.9953;}
	.st22{fill:none;stroke:#263238;stroke-linecap:round;stroke-linejoin:round;stroke-dasharray:0.9981,2.9944;}
	.st23{fill:#407BFF;}
	
		.st24{opacity:0.3;clip-path:url(#SVGID_00000174578677189639333760000007391255459011133614_);fill-opacity:0.7;enable-background:new    ;}
	
		.st25{opacity:0.3;clip-path:url(#SVGID_00000073694696258411360040000006683263550987801756_);fill-opacity:0.7;enable-background:new    ;}
	.st26{fill:#FFFFFF;}
	
		.st27{opacity:0.2;clip-path:url(#SVGID_00000078745263494822361990000002268253154822141827_);fill-opacity:0.7;enable-background:new    ;}
	
		.st28{opacity:0.3;clip-path:url(#SVGID_00000075155203828546708030000016276877099439565696_);fill-opacity:0.7;enable-background:new    ;}
	
		.st29{opacity:0.3;clip-path:url(#SVGID_00000035513682287578769390000004654942233305025459_);fill-opacity:0.7;enable-background:new    ;}
	.st30{fill:none;stroke:#FFFFFF;stroke-linecap:round;stroke-linejoin:round;stroke-miterlimit:10;}
	.st31{fill:#757575;stroke:#263238;stroke-linecap:round;stroke-linejoin:round;stroke-miterlimit:10;}
	.st32{fill:#999999;stroke:#263238;stroke-linecap:round;stroke-linejoin:round;stroke-miterlimit:10;}
	.st33{fill:none;stroke:#263238;stroke-linecap:round;stroke-linejoin:round;stroke-dasharray:0.978,2.9341;}
	.st34{fill:none;stroke:#263238;stroke-linecap:round;stroke-linejoin:round;stroke-dasharray:1,3;}
	.st35{fill:none;stroke:#263238;stroke-width:5;stroke-linecap:round;stroke-linejoin:round;stroke-miterlimit:10;}
</style>
<g>
	<defs>
		<rect id="SVGID_1_" width="1245" height="300"/>
	</defs>
	<clipPath id="SVGID_00000104677290750678063140000008327517979728456592_">
		<use xlink:href="#SVGID_1_"  style="overflow:visible;"/>
	</clipPath>
	<g id="Background_Simple" style="clip-path:url(#SVGID_00000104677290750678063140000008327517979728456592_);">
		<path class="st1" d="M1427.6,309.8c-4.4-36.5,2.2-89-35.3-129.9c-38.6-42.1-117.7-82.3-198.6-115.6
			C1095.8,24.1,979.8,3.9,887.2,2.9c-108.7-1.2-150.8,29-234.5,47.2c-144,31.3-390.9-21.5-556-4.6C-7.6,56.1-71.7,96.6-84,148.2v176
			h1511.6V309.8z"/>
		<g>
			<path class="st2" d="M330.5,274.6H159.1c-4,0-7.3-3.3-7.3-7.3V41.2c0-4,3.3-7.3,7.3-7.3h171.4c4,0,7.3,3.3,7.3,7.3v226.1
				C337.8,271.3,334.5,274.6,330.5,274.6z"/>
			<g>
				<g>
					<g>
						<polyline class="st3" points="229.9,100 229.9,100.7 229.1,100.7 						"/>
						<line class="st4" x1="227.6" y1="100.7" x2="184" y2="100.7"/>
						<polyline class="st3" points="183.3,100.7 182.5,100.7 182.5,100 						"/>
						<line class="st5" x1="182.5" y1="98.6" x2="182.5" y2="64.6"/>
						<polyline class="st3" points="182.5,63.9 182.5,63.1 183.3,63.1 						"/>
						<line class="st4" x1="184.7" y1="63.1" x2="228.4" y2="63.1"/>
						<polyline class="st3" points="229.1,63.1 229.9,63.1 229.9,63.9 						"/>
						<line class="st5" x1="229.9" y1="65.3" x2="229.9" y2="99.3"/>
					</g>
				</g>
				<rect x="190.1" y="69.1" class="st6" width="32.2" height="25.6"/>
				<line class="st2" x1="188.2" y1="67.3" x2="177.1" y2="58.7"/>
				<line class="st2" x1="224.5" y1="96" x2="234" y2="104.2"/>
				<polyline class="st2" points="176.7,61.5 176.4,57.9 180.2,57.9 				"/>
				<polyline class="st2" points="234.3,100.8 234.9,104.7 230.3,104.9 				"/>
			</g>
			<g>
				<rect x="246.6" y="197.2" class="st7" width="15.6" height="5.6"/>
				<polygon class="st7" points="268.6,200.1 258.5,194.3 258.5,205.9 				"/>
			</g>
			<g>
				<g>
					<path id="XMLID_3_" class="st8" d="M235.3,248.4h-36c-2.8,0-5.1-2.3-5.1-5.1v-79.9c0-2.8,2.3-5.1,5.1-5.1h36
						c2.8,0,5.1,2.3,5.1,5.1v79.9C240.4,246.1,238.1,248.4,235.3,248.4z"/>
					<rect id="XMLID_2_" x="196.3" y="164.4" class="st9" width="42.1" height="78.6"/>
				</g>
				<g>
					<path class="st6" d="M230.5,260.8l3.2-12.5c0.3-1.3,0.5-2.7,0.5-4.1v-15c0.1-0.2,0.1-0.4,0.1-0.6c0-1.3-1.2-2.4-2.7-2.4
						c-0.8,0-1.5,0.3-2,0.8c-0.1-1.2-1.2-2.2-2.6-2.2c-1,0-1.8,0.4-2.3,1.1c-0.1-1.2-1.3-2.1-2.6-2.1c-1,0-1.8,0.4-2.3,1.1
						c0-2,0-11.5-0.3-12.3c-1-2.5-5.8-1.4-5,1.3v14.2c0,0,0,7.5,0,7.8c0-1.5-1.1-3.6-1.6-5.1c-0.4-1.4-0.8-2.9-1.6-4.2
						c-1.5-2.1-4.2-1-4,1.3c0.1,2,1.6,3.5,2.3,5.3c1.4,3.3,0.6,6.8,1.9,10.1c0.4,0.9,2.9,5,3.7,6.1c0.8,1.1,1.7,4.1,1.7,4.1
						l-1.2,7.3"/>
					<line class="st2" x1="217.3" y1="205.1" x2="217.3" y2="209.2"/>
					<line class="st2" x1="221.9" y1="213.1" x2="225.3" y2="213.1"/>
					<line class="st2" x1="208.1" y1="213.1" x2="211.4" y2="213.1"/>
					<line class="st2" x1="212.7" y1="208.7" x2="214" y2="210.8"/>
					<line class="st2" x1="220.4" y1="211" x2="222.2" y2="208.7"/>
				</g>
				<rect x="197.8" y="194.9" class="st2" width="39" height="4.9"/>
				<rect x="199.1" y="168.7" class="st2" width="18.7" height="22.3"/>
				<line class="st2" x1="199.1" y1="168.7" x2="217.8" y2="191"/>
				<polyline class="st2" points="198.6,234.1 198.6,202.3 236.6,202.3 236.6,233.9 				"/>
			</g>
			<g>
				<g>
					<path id="XMLID_4_" class="st8" d="M312.9,248.4h-36c-2.8,0-5.1-2.3-5.1-5.1v-79.9c0-2.8,2.3-5.1,5.1-5.1h36
						c2.8,0,5.1,2.3,5.1,5.1v79.9C318,246.1,315.7,248.4,312.9,248.4z"/>
					<rect id="XMLID_1_" x="273.9" y="164.4" class="st9" width="42.1" height="78.6"/>
				</g>
				<rect x="276.1" y="168.2" class="st2" width="38" height="41.6"/>
				<line class="st2" x1="276.1" y1="213.6" x2="314" y2="213.6"/>
				<line class="st2" x1="276.1" y1="216.7" x2="314" y2="216.7"/>
				<line class="st2" x1="276.1" y1="219.7" x2="314" y2="219.7"/>
				<line class="st2" x1="276.1" y1="222.8" x2="314" y2="222.8"/>
				<line class="st2" x1="276.1" y1="225.9" x2="314" y2="225.9"/>
				<line class="st2" x1="276.1" y1="229" x2="314" y2="229"/>
				<line class="st2" x1="276.1" y1="232.1" x2="314" y2="232.1"/>
				<line class="st2" x1="276.1" y1="209.7" x2="314" y2="168.2"/>
			</g>
			<g>
				<g>
					<path id="XMLID_6_" class="st8" d="M312.9,145h-36c-2.8,0-5.1-2.3-5.1-5.1V60c0-2.8,2.3-5.1,5.1-5.1h36c2.8,0,5.1,2.3,5.1,5.1
						v79.9C318,142.7,315.7,145,312.9,145z"/>
					<rect id="XMLID_5_" x="273.9" y="61" class="st9" width="42.1" height="78.6"/>
				</g>
			</g>
			<g>
				<g>
					<polyline class="st3" points="225.3,155.6 225.3,131.7 259,131.7 					"/>
					<g>
						<polygon class="st7" points="257.9,135.4 264.4,131.7 257.9,127.9 						"/>
					</g>
				</g>
			</g>
			<g>
				<g>
					<line class="st3" x1="294.1" y1="155" x2="294.1" y2="136.6"/>
					<g>
						<polygon class="st7" points="297.8,137.7 294.1,131.2 290.3,137.7 						"/>
					</g>
				</g>
			</g>
			<g>
				<line class="st2" x1="276.7" y1="256.6" x2="293.7" y2="256.6"/>
				<line class="st2" x1="276.7" y1="260.4" x2="293.7" y2="260.4"/>
				<line class="st2" x1="276.7" y1="264.2" x2="293.7" y2="264.2"/>
			</g>
			<g>
				<line class="st2" x1="235.4" y1="256.6" x2="252.4" y2="256.6"/>
				<line class="st2" x1="235.4" y1="260.4" x2="252.4" y2="260.4"/>
				<line class="st2" x1="235.4" y1="264.2" x2="252.4" y2="264.2"/>
			</g>
			<g>
				<line class="st2" x1="230.8" y1="139.2" x2="247.8" y2="139.2"/>
				<line class="st2" x1="230.8" y1="143.1" x2="247.8" y2="143.1"/>
				<line class="st2" x1="230.8" y1="146.9" x2="247.8" y2="146.9"/>
			</g>
			<g>
				<line class="st2" x1="243.5" y1="92.9" x2="260.5" y2="92.9"/>
				<line class="st2" x1="243.5" y1="96.7" x2="260.5" y2="96.7"/>
				<line class="st2" x1="243.5" y1="100.6" x2="260.5" y2="100.6"/>
			</g>
			<g>
				<line class="st2" x1="182.3" y1="106.1" x2="199.3" y2="106.1"/>
				<line class="st2" x1="182.3" y1="109.9" x2="199.3" y2="109.9"/>
				<line class="st2" x1="182.3" y1="113.7" x2="199.3" y2="113.7"/>
			</g>
		</g>
		<g>
			<g>
				<g>
					<g>
						<path class="st10" d="M48.9,142.9c0,0,0-3.7-5.2-9c-5.2-5.2-8.6-8.2-8.6-8.2s-2.6,8.6,2.3,13.9s11.6,10.1,11.6,10.1
							S48.9,142.9,48.9,142.9z"/>
						<path class="st10" d="M41.3,166.3c0,0,0-3.7-5.2-9c-5.2-5.2-8.6-8.2-8.6-8.2s-2.6,8.6,2.3,13.9c4.9,5.2,11.6,10.1,11.6,10.1
							S41.3,166.3,41.3,166.3z"/>
						<path class="st10" d="M48.6,149.2c0,0,0.4-3.7,6.2-8.4c5.8-4.7,9.4-7.3,9.4-7.3s1.7,8.8-3.7,13.6c-5.4,4.7-12.6,8.8-12.6,8.8
							L48.6,149.2z"/>
						<path class="st10" d="M39.4,176.9c0,0,0.8-3.7,7-7.7c6.2-4,10.2-6.3,10.2-6.3s0.8,9-5.1,13.1c-5.9,4.1-13.5,7.5-13.5,7.5
							L39.4,176.9z"/>
						<path class="st10" d="M41.1,207c0,0,0-3.7,5.2-9c5.2-5.2,8.6-8.2,8.6-8.2s2.6,8.6-2.3,13.9c-4.9,5.2-11.6,10.1-11.6,10.1
							S41.1,207,41.1,207z"/>
						<path class="st10" d="M41.1,214.4c0,0,0.5-3.7-3.9-9.6c-4.5-5.9-7.4-9.4-7.4-9.4s-3.8,8.2,0.3,14c4.1,5.9,10.1,11.7,10.1,11.7
							L41.1,214.4z"/>
						<path class="st10" d="M35.9,236.2c0,0,0-3.7,5.2-9c5.2-5.2,8.6-8.2,8.6-8.2s2.6,8.6-2.3,13.9c-4.9,5.2-11.6,10.1-11.6,10.1
							S35.9,236.2,35.9,236.2z"/>
						<path class="st10" d="M39.4,255.9c0,0-1-3.6,2.8-10c3.7-6.4,6.3-10.2,6.3-10.2s4.7,7.7,1.3,14s-8.7,12.7-8.7,12.7L39.4,255.9z
							"/>
					</g>
					<path class="st11" d="M49.4,141.9c-0.3,4-0.8,8.1-1.4,11.6c-2.1,10.7-7.3,17.6-9.3,27.3c-2.1,9.7,3.9,22.1,2.3,34.6
						c-1.6,12.4-6.4,19.3-5,27.6c1.4,8.3,8.6,30.8,8.6,30.8"/>
					<line class="st11" x1="48.6" y1="151.7" x2="54.2" y2="147.4"/>
					<line class="st11" x1="48.8" y1="146.7" x2="46.5" y2="142.5"/>
					<path class="st11" d="M39,180.4c0,0,4.7-3.6,9.6-7.1"/>
					<path class="st11" d="M41.3,173c0,0-3.9-7.7-8.4-12.9"/>
					<path class="st11" d="M41.3,212.3c0,0,3.7-7.2,10.1-13.5"/>
					<path class="st11" d="M40.4,217.6c0,0-2.4-5.7-5.1-9.7s-3.2-4.6-3.2-4.6"/>
					<path class="st11" d="M35.9,243c0,0,1.9-4.8,4.3-8.6c2.4-3.8,5.5-7.2,5.5-7.2"/>
					<path class="st11" d="M41.1,262.4c0,0-0.6-4.5,1.4-8.3c2-3.8,4.2-8.8,5.1-10.8"/>
				</g>
				<g>
					<g>
						<path class="st10" d="M14.6,192.9c0,0-0.4-2.3,2.3-6.2c2.7-3.9,4.5-6.1,4.5-6.1s2.6,5.1,0.1,8.9c-2.5,3.8-6.2,7.6-6.2,7.6
							L14.6,192.9z"/>
						<path class="st10" d="M21.9,206.8c0,0-0.4-2.3,2.3-6.2c2.7-3.9,4.5-6.1,4.5-6.1s2.6,5.1,0.1,8.9c-2.5,3.8-6.2,7.6-6.2,7.6
							L21.9,206.8z"/>
						<path class="st10" d="M15.5,196.9c0,0-0.6-2.3-4.8-4.6C6.6,190,4,188.7,4,188.7s-0.1,5.7,3.8,8.1s8.9,4.2,8.9,4.2L15.5,196.9z
							"/>
						<path class="st10" d="M24.3,213.2c0,0-0.9-2.2-5.2-4.1c-4.3-1.9-7-2.8-7-2.8s0.5,5.7,4.6,7.7s9.3,3.2,9.3,3.2L24.3,213.2z"/>
						<path class="st10" d="M26.4,232.3c0,0-0.4-2.3-4.3-5.1c-3.9-2.7-6.3-4.2-6.3-4.2s-0.7,5.7,2.9,8.5c3.6,2.8,8.4,5.1,8.4,5.1
							L26.4,232.3z"/>
						<path class="st10" d="M27.3,236.9c0,0-0.7-2.3,1.4-6.5c2.1-4.2,3.6-6.7,3.6-6.7s3.3,4.7,1.4,8.8c-1.9,4.1-5,8.4-5,8.4
							L27.3,236.9z"/>
						<path class="st10" d="M33.9,255.8c0,0,0.3-2.4,4-5.3c3.7-2.9,6-4.6,6-4.6s1,5.6-2.4,8.6c-3.5,3-8.1,5.6-8.1,5.6L33.9,255.8z"
							/>
						<path class="st10" d="M32.9,250c0,0-0.4-2.3-4.3-5.1s-6.3-4.2-6.3-4.2s-0.7,5.7,2.9,8.5c3.6,2.8,8.4,5.1,8.4,5.1L32.9,250z"/>
						<path class="st10" d="M32.9,262.8c0,0,0.2-2.4-2.8-6c-3-3.6-5-5.7-5-5.7s-2.1,5.3,0.7,8.9c2.8,3.6,6.8,7,6.8,7L32.9,262.8z"/>
					</g>
					<path class="st11" d="M14.2,192.4c0.6,2.5,1.4,5,2.2,7.1c2.5,6.5,6.5,10.3,8.8,16.1c2.3,5.8,0,14.3,2.3,21.9
						c2.3,7.6,6.1,11.4,6.2,16.8c0,5.4-2.1,20.2-2.1,20.2"/>
					<line class="st11" x1="15.8" y1="198.4" x2="11.8" y2="196.3"/>
					<line class="st11" x1="15.1" y1="195.3" x2="16.1" y2="192.4"/>
					<path class="st11" d="M24.9,215.4c0,0-3.4-1.7-6.8-3.4"/>
					<path class="st11" d="M22.6,211c0,0,1.6-5.3,3.9-9"/>
					<path class="st11" d="M26.9,235.7c0,0-3.1-4.1-7.8-7.4"/>
					<path class="st11" d="M28.1,238.9c0,0,0.9-3.8,2.2-6.7c1.3-2.9,1.5-3.2,1.5-3.2"/>
					<path class="st11" d="M33.5,258.4c0,0,2.7-3.3,4.3-4.5c1.7-1.2,2.8-2.4,2.8-2.4"/>
					<path class="st11" d="M33.7,254.3c0,0-1.7-2.8-3.6-4.9c-1.9-2.1-4.3-3.9-4.3-3.9"/>
					<path class="st11" d="M32.5,267.1c0,0-0.1-2.9-1.8-5c-1.7-2.2-3.6-5.1-4.4-6.2"/>
				</g>
			</g>
			<g>
				<path class="st7" d="M52.5,300.4H23.5c-1.5,0-2.6-1.2-2.6-2.6V272h34.3v25.8C55.2,299.2,54,300.4,52.5,300.4z"/>
				<path class="st7" d="M54.9,276.4h-34c-1.5,0-2.7-1.2-2.7-2.7l0,0c0-1.5,1.2-2.7,2.7-2.7h34c1.5,0,2.7,1.2,2.7,2.7l0,0
					C57.6,275.2,56.4,276.4,54.9,276.4z"/>
			</g>
		</g>
		<g>
			<g>
				<g>
					<path class="st10" d="M1222.5,142.2c0,0,0-3.7-5.2-9c-5.2-5.2-8.6-8.2-8.6-8.2s-2.6,8.6,2.3,13.9c4.9,5.2,11.6,10.1,11.6,10.1
						V142.2z"/>
					<path class="st10" d="M1214.9,165.6c0,0,0-3.7-5.2-9c-5.2-5.2-8.6-8.2-8.6-8.2s-2.6,8.6,2.3,13.9c4.9,5.2,11.6,10.1,11.6,10.1
						V165.6z"/>
					<path class="st10" d="M1222.1,148.6c0,0,0.4-3.7,6.2-8.4c5.8-4.7,9.4-7.3,9.4-7.3s1.7,8.8-3.7,13.6c-5.4,4.7-12.6,8.8-12.6,8.8
						L1222.1,148.6z"/>
					<path class="st10" d="M1212.9,176.2c0,0,0.8-3.7,7-7.7c6.2-4,10.2-6.3,10.2-6.3s0.8,9-5.1,13.1c-5.9,4.1-13.5,7.5-13.5,7.5
						L1212.9,176.2z"/>
					<path class="st10" d="M1214.7,206.4c0,0,0-3.7,5.2-9c5.2-5.2,8.6-8.2,8.6-8.2s2.6,8.6-2.3,13.9c-4.9,5.2-11.6,10.1-11.6,10.1
						V206.4z"/>
					<path class="st10" d="M1214.6,213.7c0,0,0.5-3.7-3.9-9.6c-4.5-5.9-7.4-9.4-7.4-9.4s-3.8,8.2,0.3,14
						c4.1,5.9,10.1,11.7,10.1,11.7L1214.6,213.7z"/>
					<path class="st10" d="M1209.4,235.5c0,0,0-3.7,5.2-9c5.2-5.2,8.6-8.2,8.6-8.2s2.6,8.6-2.3,13.9c-4.9,5.2-11.6,10.1-11.6,10.1
						V235.5z"/>
					<path class="st10" d="M1212.9,255.3c0,0-1-3.6,2.8-10c3.7-6.4,6.3-10.2,6.3-10.2s4.7,7.7,1.3,14c-3.4,6.3-8.7,12.7-8.7,12.7
						L1212.9,255.3z"/>
				</g>
				<path class="st11" d="M1222.9,141.2c-0.3,4-0.8,8.1-1.4,11.6c-2.1,10.7-7.3,17.6-9.3,27.3c-2.1,9.7,3.9,22.1,2.3,34.6
					c-1.6,12.4-6.4,19.3-5,27.6c1.4,8.3,8.6,30.8,8.6,30.8"/>
				<line class="st11" x1="1222.1" y1="151.1" x2="1227.7" y2="146.7"/>
				<line class="st11" x1="1222.3" y1="146.1" x2="1220" y2="141.9"/>
				<path class="st11" d="M1212.5,179.7c0,0,4.7-3.6,9.6-7.1"/>
				<path class="st11" d="M1214.9,172.3c0,0-3.9-7.7-8.4-12.9"/>
				<path class="st11" d="M1214.9,211.7c0,0,3.7-7.2,10.1-13.5"/>
				<path class="st11" d="M1213.9,216.9c0,0-2.4-5.7-5.1-9.7c-2.8-4.1-3.2-4.6-3.2-4.6"/>
				<path class="st11" d="M1209.4,242.4c0,0,1.9-4.8,4.3-8.6c2.4-3.8,5.5-7.2,5.5-7.2"/>
				<path class="st11" d="M1214.6,261.8c0,0-0.6-4.5,1.4-8.3s4.2-8.8,5.1-10.8"/>
			</g>
			<g>
				<g>
					<path class="st10" d="M1188.1,192.3c0,0-0.4-2.3,2.3-6.2c2.7-3.9,4.5-6.1,4.5-6.1s2.6,5.1,0.1,8.9c-2.5,3.8-6.2,7.6-6.2,7.6
						L1188.1,192.3z"/>
					<path class="st10" d="M1195.4,206.1c0,0-0.4-2.3,2.3-6.2c2.7-3.9,4.5-6.1,4.5-6.1s2.6,5.1,0.1,8.9c-2.5,3.8-6.2,7.6-6.2,7.6
						L1195.4,206.1z"/>
					<path class="st10" d="M1189,196.2c0,0-0.6-2.3-4.8-4.6c-4.1-2.3-6.7-3.5-6.7-3.5s-0.1,5.7,3.8,8.1s8.9,4.2,8.9,4.2L1189,196.2z
						"/>
					<path class="st10" d="M1197.8,212.6c0,0-0.9-2.2-5.2-4.1c-4.3-1.9-7-2.8-7-2.8s0.5,5.7,4.6,7.7c4.1,1.9,9.3,3.2,9.3,3.2
						L1197.8,212.6z"/>
					<path class="st10" d="M1200,231.6c0,0-0.4-2.3-4.3-5.1c-3.9-2.7-6.3-4.2-6.3-4.2s-0.7,5.7,2.9,8.5c3.6,2.8,8.4,5.1,8.4,5.1
						L1200,231.6z"/>
					<path class="st10" d="M1200.8,236.2c0,0-0.7-2.3,1.4-6.5c2.1-4.2,3.6-6.7,3.6-6.7s3.3,4.7,1.4,8.8c-1.9,4.1-5,8.4-5,8.4
						L1200.8,236.2z"/>
					<path class="st10" d="M1207.4,255.2c0,0,0.3-2.4,4-5.3s6-4.6,6-4.6s1,5.6-2.4,8.6c-3.5,3-8.1,5.6-8.1,5.6L1207.4,255.2z"/>
					<path class="st10" d="M1206.4,249.3c0,0-0.4-2.3-4.3-5.1c-3.9-2.7-6.3-4.2-6.3-4.2s-0.7,5.7,2.9,8.5s8.4,5.1,8.4,5.1
						L1206.4,249.3z"/>
					<path class="st10" d="M1206.4,262.1c0,0,0.2-2.4-2.8-6c-3-3.6-5-5.7-5-5.7s-2.1,5.3,0.7,8.9c2.8,3.6,6.8,7,6.8,7L1206.4,262.1z
						"/>
				</g>
				<path class="st11" d="M1187.7,191.7c0.6,2.5,1.4,5,2.2,7.1c2.5,6.5,6.5,10.3,8.8,16.1c2.3,5.8,0,14.3,2.3,21.9
					c2.3,7.6,6.1,11.4,6.2,16.8s-2.1,20.2-2.1,20.2"/>
				<line class="st11" x1="1189.3" y1="197.8" x2="1185.3" y2="195.7"/>
				<line class="st11" x1="1188.6" y1="194.7" x2="1189.6" y2="191.8"/>
				<path class="st11" d="M1198.4,214.7c0,0-3.4-1.7-6.8-3.4"/>
				<path class="st11" d="M1196.2,210.3c0,0,1.6-5.3,3.9-9"/>
				<path class="st11" d="M1200.4,235c0,0-3.1-4.1-7.8-7.4"/>
				<path class="st11" d="M1201.6,238.2c0,0,0.9-3.8,2.2-6.7c1.3-2.9,1.5-3.2,1.5-3.2"/>
				<path class="st11" d="M1207,257.7c0,0,2.7-3.3,4.3-4.5c1.7-1.2,2.8-2.4,2.8-2.4"/>
				<path class="st11" d="M1207.2,253.7c0,0-1.7-2.8-3.6-4.9c-1.9-2.1-4.3-3.9-4.3-3.9"/>
				<path class="st11" d="M1206,266.4c0,0-0.1-2.9-1.8-5c-1.7-2.2-3.6-5.1-4.4-6.2"/>
			</g>
		</g>
		<g>
			<path class="st7" d="M1226.1,299.7H1197c-1.5,0-2.6-1.2-2.6-2.6v-25.8h34.3v25.8C1228.7,298.6,1227.5,299.7,1226.1,299.7z"/>
			<path class="st7" d="M1228.4,275.8h-34c-1.5,0-2.7-1.2-2.7-2.7l0,0c0-1.5,1.2-2.7,2.7-2.7h34c1.5,0,2.7,1.2,2.7,2.7l0,0
				C1231.1,274.6,1229.9,275.8,1228.4,275.8z"/>
		</g>
		<g>
			<g>
				<path class="st12" d="M113.4,285.2c0,0-1.6,6.1-1.6,7.6c0,1.5-0.4,2.6,2.9,3.2c3.3,0.6,5.5,0.3,6-1.3c0.5-1.5,0.9-9.2,0.9-9.2
					l-8.1-1.5L113.4,285.2z"/>
				<path class="st12" d="M120.7,294.7c0.1-0.2,0.1-0.6,0.2-1.1c-3.4,0.1-7.5-0.5-9.2-0.7c0,1.5-0.3,2.4,2.9,3.1
					C118.1,296.6,120.2,296.2,120.7,294.7z"/>
			</g>
			<g>
				<path class="st12" d="M191.2,285.7c0,0,2.6,0.9,6.3,2s11.3,2.4,12,2.6c0.8,0.1,0.8,1.7,0.1,2.3c-0.6,0.6-4,2.6-7.9,3.6
					c-4,1-17.4,1.9-18.6,1.2c-1-0.6-0.6-6.9-0.3-8.3C183.2,287.7,191.2,285.7,191.2,285.7z"/>
				<path class="st12" d="M209.6,292.7c0.4-0.4,0.6-1.3,0.4-1.8c-2.6,2.1-7.8,4.3-13.1,4.9c-5.3,0.5-12.2,0.1-14.4-0.1
					c0.1,0.9,0.3,1.5,0.5,1.7c1.2,0.8,14.6-0.1,18.6-1.2C205.6,295.2,209,293.3,209.6,292.7z"/>
			</g>
			<path class="st13" d="M129.2,174.1c0,0-2.2,13.4-0.5,20.8c0,0-3.2,29.5-3.7,42.6c0,0-6.9,23.1-7.9,30.2c-1,7.2-3.7,17.4-3.7,17.4
				s1.5,1,5,1.7c3.5,0.7,4-2,4-2s19.1-43.9,20.6-50.3c1.5-6.4,6.4-29.5,6.4-29.5l20.6,37.7c0,0,1,12.9,4,20.3c3,7.4,8.7,28,8.7,28
				s3.7,0.2,6.7-0.7c3-1,3-2.5,3-2.5s-4.5-16.6-4.5-22.1c0-5.5-1.7-24-3-29.3c-1.2-5.2-9.7-32.5-10.9-35.4c-1.2-3-4-12.4-4-12.4
				l-1.7-14.6C168.1,174.1,146.8,180.1,129.2,174.1z"/>
			<path class="st12" d="M145,110.9c0,0-1.1-2.5-1.1-4c0-1.5-0.8-8.7-0.8-8.7s11-19.9,14-23.7c3-3.8,6.6-6.6,6.6-6.6
				s7.4-1.5,8.9-1.5s3.2-0.8,3.2-1.7c0-0.9-2.5-0.8-4-0.8s-3.4-1.3-3.4-1.3s2.5-7.1,3.2-9.9c0.4-1.5,1.7-4.6,0.8-4.6
				c-0.9,0-1.1,0.8-1.7,1.9c-0.6,1.1-3,4.9-3,4.9l0.6-8.4c0,0-0.8-1.1-1.3,0.2c-0.6,1.3-1.7,5.3-1.9,6.3c-0.2,0.9-1,1.8-1,1.8
				l-0.8-6.2c0,0-1.3-1.4-1.5,1c-0.1,1.3,0,5.7,0,6.5c0,0.8-0.8-1.1-0.8-1.1s-0.4-2.1-0.9-2.3c-0.6-0.3-0.9,0.4-0.8,1.9
				c0.2,1.5-0.2,7.8-0.2,7.8s-1.1,1.5-2.8,3.6c-1.7,2.1-15.4,14.4-20.5,18.4c-5.1,4-5.7,7.2-6.5,11.2c-0.8,4-1.5,27.1-1.5,35.5
				c0,8.4,0.8,21.6,1.3,26c0.6,4.4-0.4,10.1-1.1,13.1c-0.8,3,0,5.7,2.1,7.2c2.1,1.5,11,2.5,18.4,2.5c7.4,0,15-0.8,17.3-1.5
				c2.3-0.8,4-0.9,4-4c0-3-1.5-9.1-1.5-10.8s3-19.4,3-19.4s19.4,5.9,23,4.6c3.6-1.3,33.8-29.8,33.8-29.8s4.7-1.9,7.2-2.3
				c2.5-0.4,6.3-2.1,6.5-2.7c0.2-0.6-0.4-0.4-1.9-0.4s-4,0.8-4,0.8s5.2-3.3,6.1-3.6c0.6-0.2,1.7-1.6,0.2-1.3
				c-1.9,0.4-6.5,1.7-6.5,1.7l6.1-3.8c0,0,0.9-1.5-0.2-1.5s-6.8,3.4-6.8,3.4l4.4-4.1c0.9-0.8,0.1-1.9-0.9-1.3c0,0-5.1,2.9-5.1,2.9
				c-1.9,1.1-4,1.8-4,1.8l-0.9,0.6c0,0,0.4-2.1,0.4-3s-0.6-3.4-1.9-3.6c-1.3-0.2-0.2,1.7-0.2,2.7c0,0.9-1.9,5.9-1.9,6.6
				c0,0.8,0,2.3,0,2.3s-6.5,5.7-12.3,8.7c-5.9,3-19.2,13.1-19.2,13.1s-15.2-7.8-18.6-10.6c-3.4-2.8-7.2-6.3-11-9.3
				c-3.8-3-6.3-4.4-6.3-4.4L145,110.9z"/>
			<g>
				<path class="st14" d="M208.4,125.1c-6.4,4.1-15.2,10.8-15.2,10.8s-15.2-7.8-18.6-10.6c-3.4-2.8-7.2-6.3-11-9.3
					c-3.8-3-6.3-4.4-6.3-4.4L145,111c0,0-1.1-2.5-1.1-4c0-1.5-0.8-8.7-0.8-8.7s5.7-10.3,10-17.5c-0.1-0.1-0.2-0.2-0.3-0.4
					c-2.1-2.1-5.1-3.3-7.6-3.9c-3.6,3.2-7.1,6.2-9.2,7.9c-5.1,4-5.7,7.2-6.5,11.2c-0.8,4-1.5,27.1-1.5,35.5c0,8.4,0.8,21.6,1.3,26
					c0.6,4.4-0.4,10.1-1.1,13.1c-0.8,3,0,5.7,2.1,7.2c2.1,1.5,11,2.5,18.4,2.5c7.4,0,15-0.8,17.3-1.5c2.3-0.8,4-0.9,4-4
					c0-3-1.5-9.1-1.5-10.8s3-19.4,3-19.4s19.4,5.9,23,4.6c1.9-0.7,11.4-9.2,19.9-16.9C212.5,128.9,210.3,126.6,208.4,125.1z"/>
				<path class="st11" d="M165.4,119.3c0,0-7.6,2.1-8.1,7.9"/>
				<path class="st11" d="M171.3,144.2c0,0-8.9-2.4-13.5-7.1"/>
				<path class="st11" d="M166.4,142.9c0,0-7.6,2.1-14.6-0.7"/>
				<path class="st11" d="M134.1,130.6c0,0,2.4,16.8,14,25.3"/>
				<path class="st11" d="M151.9,160.5c0.9,0.2,1.8,0.5,2.7,0.6"/>
				<path class="st11" d="M134.1,147.5c0,0,4.3,7.1,13,11.3"/>
				<path class="st11" d="M131.9,110c0,0,7.4-3.7,11.8-0.2"/>
				<path class="st11" d="M134,93.1c0,0,6.7,2.3,8.6,6.9"/>
				<path class="st11" d="M138.4,91.5c0,0,2.3,1.6,3.2,5.1"/>
			</g>
			<g>
				<path class="st12" d="M170,80.6c0,0,1.1,6.5,1.1,8.2c0,1.7-1.9,2.3-1.1,4.6c0.8,2.3,2.5,2.5,2.1,4.4c-0.4,1.9-2.8,3-2.8,3
					s-1.3,5.3-2.7,7.6c-1.3,2.3-6.3,0.6-6.3,0.6l-0.4,6.1c0,0-1.7,2.5-8,1.7c-6.3-0.8-10.4-2.8-10.4-2.8l-0.9-1.3
					c0,0,4.9-2.5,5.1-4.2c0.2-1.7,0-5.7,0-11.4c0-5.7-1.7-16.7,7.6-19.6C162.6,74.5,170,80.6,170,80.6z"/>
				<path class="st13" d="M158.4,96.2c0,0-2.1-4.9-4.5-2.1c-1.6,1.8,0.4,7.2,1.3,8c0.9,0.8,3,0.4,3,0.4s-3,3-6.3,3
					c-3.2,0-6.1-3-8.2-8.4c-2.1-5.3-3.6-14.4-1.3-19.9c2.3-5.5,14-5.7,16.7-5.7c2.7,0,6.6,1.5,6.6,1.5s8.5-0.8,8.7,2.1
					c0.2,2.8-1.1,3-1.1,3s6.1,3.2,3.2,4.6c-2.8,1.3-7.2,0.6-10.1,0.6s-3.8,2.1-3.8,2.1s2.7,1.7,1.7,2.5c-0.9,0.8-4.4,2.3-4.7,3.6
					c-0.4,1.3,1.3,3.4,0.2,4.4C158.8,96.7,158.4,96.2,158.4,96.2z"/>
				<path class="st7" d="M169,93.9c0,1-0.4,1.8-0.9,1.8c-0.5,0-0.9-0.8-0.9-1.8c0-1,0.4-1.8,0.9-1.8C168.6,92.1,169,92.9,169,93.9z"
					/>
				<path class="st11" d="M165.9,91.6c0,0,1.2-2.9,3.2-1.3"/>
			</g>
			<polyline class="st15" points="149.3,205.1 147.6,201.9 138.9,199.7 			"/>
		</g>
	</g>
	<g id="Graphics" style="clip-path:url(#SVGID_00000104677290750678063140000008327517979728456592_);">
		<path class="st16" d="M842.2,41.9v-7.2l-5.4-0.5c-0.3-1.1-0.8-2.2-1.3-3.2l3.5-4.1l-5.1-5.1l-4.1,3.5c-1-0.6-2.1-1-3.2-1.3
			l-0.5-5.4H819l-0.5,5.4c-1.1,0.3-2.2,0.8-3.2,1.3l-4.1-3.5l-5.1,5.1l3.5,4.1c-0.6,1-1,2.1-1.3,3.2l-5.4,0.5v7.2l5.4,0.5
			c0.3,1.1,0.8,2.2,1.3,3.2l-3.5,4.1l5.1,5.1l4.1-3.5c1,0.6,2.1,1,3.2,1.3l0.5,5.4h7.2l0.5-5.4c1.1-0.3,2.2-0.8,3.2-1.3l4.1,3.5
			l5.1-5.1l-3.5-4.1c0.6-1,1-2.1,1.3-3.2L842.2,41.9z M822.5,46.6c-4.6,0-8.3-3.7-8.3-8.3s3.7-8.3,8.3-8.3c4.6,0,8.3,3.7,8.3,8.3
			C830.9,42.9,827.1,46.6,822.5,46.6z"/>
		<path class="st16" d="M770.7,261.1V254l-5.4-0.5c-0.3-1.1-0.8-2.2-1.3-3.2l3.5-4.1l-5.1-5.1l-4.1,3.5c-1-0.6-2.1-1-3.2-1.3
			l-0.5-5.4h-7.2l-0.5,5.4c-1.1,0.3-2.2,0.8-3.2,1.3l-4.1-3.5l-5.1,5.1l3.5,4.1c-0.6,1-1,2.1-1.3,3.2l-5.4,0.5v7.2l5.4,0.5
			c0.3,1.1,0.8,2.2,1.3,3.2l-3.5,4.1l5.1,5.1l4.1-3.5c1,0.6,2.1,1,3.2,1.3l0.5,5.4h7.2l0.5-5.4c1.1-0.3,2.2-0.8,3.2-1.3l4.1,3.5
			l5.1-5.1l-3.5-4.1c0.6-1,1-2.1,1.3-3.2L770.7,261.1z M751,265.9c-4.6,0-8.3-3.7-8.3-8.3c0-4.6,3.7-8.3,8.3-8.3
			c4.6,0,8.3,3.7,8.3,8.3C759.3,262.2,755.6,265.9,751,265.9z"/>
		<path class="st16" d="M407.8,33.6v-7.2l-5.4-0.5c-0.3-1.1-0.8-2.2-1.3-3.2l3.5-4.1l-5.1-5.1l-4.1,3.5c-1-0.6-2.1-1-3.2-1.3
			l-0.5-5.4h-7.2l-0.5,5.4C383,16,382,16.5,381,17l-4.1-3.5l-5.1,5.1l3.5,4.1c-0.6,1-1,2.1-1.3,3.2l-5.4,0.5v7.2l5.4,0.5
			c0.3,1.1,0.8,2.2,1.3,3.2l-3.5,4.1l5.1,5.1l4.1-3.5c1,0.6,2.1,1,3.2,1.3l0.5,5.4h7.2l0.5-5.4c1.1-0.3,2.2-0.8,3.2-1.3l4.1,3.5
			l5.1-5.1l-3.5-4.1c0.6-1,1-2.1,1.3-3.2L407.8,33.6z M388.2,38.3c-4.6,0-8.3-3.7-8.3-8.3s3.7-8.3,8.3-8.3s8.3,3.7,8.3,8.3
			C396.5,34.6,392.8,38.3,388.2,38.3z"/>
		<path class="st16" d="M429.4,262.9v-13.6l-10.2-0.9c-0.6-2.1-1.4-4.2-2.5-6.1l6.6-7.8l-9.6-9.6l-7.8,6.6c-1.9-1.1-4-1.9-6.1-2.5
			l-0.9-10.2h-13.6l-0.9,10.2c-2.1,0.6-4.2,1.4-6.1,2.5l-7.8-6.6l-9.6,9.6l6.6,7.8c-1.1,1.9-1.9,4-2.5,6.1l-10.2,0.9v13.6l10.2,0.9
			c0.6,2.1,1.4,4.2,2.5,6.1l-6.6,7.8l9.6,9.6l7.8-6.6c1.9,1.1,4,1.9,6.1,2.5l0.9,10.2h13.6l0.9-10.2c2.1-0.6,4.2-1.4,6.1-2.5
			l7.8,6.6l9.6-9.6l-6.6-7.8c1.1-1.9,1.9-4,2.5-6.1L429.4,262.9z M392,271.9c-8.7,0-15.8-7.1-15.8-15.8c0-8.7,7.1-15.8,15.8-15.8
			c8.7,0,15.8,7.1,15.8,15.8C407.9,264.8,400.8,271.9,392,271.9z"/>
		<path class="st16" d="M1200.8,158.3v-6.5l-4.9-0.4c-0.3-1-0.7-2-1.2-2.9l3.2-3.7l-4.6-4.6l-3.7,3.2c-0.9-0.5-1.9-0.9-2.9-1.2
			l-0.4-4.9h-6.5l-0.4,4.9c-1,0.3-2,0.7-2.9,1.2l-3.7-3.2l-4.6,4.6l3.2,3.7c-0.5,0.9-0.9,1.9-1.2,2.9l-4.9,0.4v6.5l4.9,0.4
			c0.3,1,0.7,2,1.2,2.9l-3.2,3.7l4.6,4.6l3.7-3.2c0.9,0.5,1.9,0.9,2.9,1.2l0.4,4.9h6.5l0.4-4.9c1-0.3,2-0.7,2.9-1.2l3.7,3.2l4.6-4.6
			l-3.2-3.7c0.5-0.9,0.9-1.9,1.2-2.9L1200.8,158.3z M1182.9,162.6c-4.2,0-7.6-3.4-7.6-7.6s3.4-7.6,7.6-7.6c4.2,0,7.6,3.4,7.6,7.6
			S1187.1,162.6,1182.9,162.6z"/>
		<g>
			<path class="st16" d="M1195.9,39.6c0.3-1.3,0.5-2.6,0.5-4c0-9.8-8-17.8-17.8-17.8c-1.6,0-3.2,0.2-4.6,0.6
				c-2.9-5.2-8.5-8.7-14.9-8.7c-9.1,0-16.5,7.1-17,16c-0.8-0.2-1.7-0.3-2.6-0.3c-7.2,0-13.1,5.4-13.8,12.4c-4.2,0.1-7.6,3.5-7.6,7.8
				c0,4.3,3.5,7.8,7.8,7.8h65.2c4.3,0,7.8-3.5,7.8-7.8C1198.8,43.2,1197.7,41.1,1195.9,39.6z"/>
			<g>
				<line class="st16" x1="1160.1" y1="47.5" x2="1160.1" y2="65.4"/>
				<line class="st16" x1="1160.1" y1="36.7" x2="1160.1" y2="43.9"/>
				<line class="st16" x1="1160.1" y1="30" x2="1160.1" y2="33.8"/>
				<polyline class="st16" points="1156.7,63.3 1160.1,67.5 1163.5,63.3 				"/>
			</g>
		</g>
		<g>
			<path class="st16" d="M997.3,250.4c0.3-1.3,0.5-2.6,0.5-4c0-9.8-8-17.8-17.8-17.8c-1.6,0-3.2,0.2-4.6,0.6
				c-2.9-5.2-8.5-8.7-14.9-8.7c-9.1,0-16.5,7.1-17,16c-0.8-0.2-1.7-0.3-2.6-0.3c-7.2,0-13.1,5.4-13.8,12.4c-4.2,0.1-7.6,3.5-7.6,7.8
				c0,4.3,3.5,7.8,7.8,7.8h65.2c4.3,0,7.8-3.5,7.8-7.8C1000.2,254,999,251.8,997.3,250.4z"/>
			<g>
				<line class="st16" x1="961.5" y1="260.8" x2="961.5" y2="242.8"/>
				<line class="st16" x1="961.5" y1="271.5" x2="961.5" y2="264.4"/>
				<line class="st16" x1="961.5" y1="278.3" x2="961.5" y2="274.4"/>
				<polyline class="st16" points="964.9,244.9 961.5,240.7 958.1,244.9 				"/>
			</g>
		</g>
		<g>
			<path class="st16" d="M456.5,111.6c0.3-1.3,0.5-2.6,0.5-4c0-9.8-8-17.8-17.8-17.8c-1.6,0-3.2,0.2-4.6,0.6
				c-2.9-5.2-8.5-8.7-14.9-8.7c-9.1,0-16.5,7.1-17,16c-0.8-0.2-1.7-0.3-2.6-0.3c-7.2,0-13.1,5.4-13.8,12.4c-4.2,0.1-7.6,3.5-7.6,7.8
				c0,4.3,3.5,7.8,7.8,7.8h65.2c4.3,0,7.8-3.5,7.8-7.8C459.4,115.2,458.3,113,456.5,111.6z"/>
			<g>
				<line class="st16" x1="420.7" y1="122" x2="420.7" y2="104"/>
				<line class="st16" x1="420.7" y1="132.8" x2="420.7" y2="125.6"/>
				<line class="st16" x1="420.7" y1="139.5" x2="420.7" y2="135.6"/>
				<polyline class="st16" points="424.1,106.1 420.7,101.9 417.3,106.1 				"/>
			</g>
		</g>
	</g>
	<g id="Interface" style="clip-path:url(#SVGID_00000104677290750678063140000008327517979728456592_);">
		<path class="st17" d="M1062.8,55H863.5v-9.1c0-1.8,1.5-3.3,3.3-3.3h192.8c1.8,0,3.3,1.5,3.3,3.3L1062.8,55L1062.8,55z"/>
		<rect x="872.2" y="57.3" class="st18" width="201.4" height="141.8"/>
		<path class="st18" d="M1076.7,48.8c0,1.7-1.4,3.1-3.1,3.1c-1.7,0-3.1-1.4-3.1-3.1s1.4-3.1,3.1-3.1
			C1075.3,45.7,1076.7,47.1,1076.7,48.8z"/>
		<path class="st18" d="M1065.8,48.8c0,1.7-1.4,3.1-3.1,3.1c-1.7,0-3.1-1.4-3.1-3.1s1.4-3.1,3.1-3.1
			C1064.5,45.7,1065.8,47.1,1065.8,48.8z"/>
		<path class="st18" d="M1055,48.8c0,1.7-1.4,3.1-3.1,3.1c-1.7,0-3.1-1.4-3.1-3.1s1.4-3.1,3.1-3.1C1053.6,45.7,1055,47.1,1055,48.8z
			"/>
		<g>
			<line class="st19" x1="1067.5" y1="63.3" x2="1059.5" y2="63.3"/>
			<line class="st19" x1="1067.5" y1="66.6" x2="1059.5" y2="66.6"/>
			<line class="st19" x1="1067.5" y1="69.8" x2="1059.5" y2="69.8"/>
		</g>
		<g>
			<line class="st19" x1="886.1" y1="147" x2="946.5" y2="147"/>
			<line class="st19" x1="886.1" y1="151.7" x2="946.5" y2="151.7"/>
			<line class="st19" x1="886.1" y1="156.6" x2="933.7" y2="156.6"/>
		</g>
		<g>
			<g>
				<g>
					<line class="st20" x1="1014.1" y1="58.9" x2="1014.1" y2="59.2"/>
					<line class="st21" x1="1014.1" y1="61.5" x2="1014.1" y2="195.1"/>
					<line class="st20" x1="1014.1" y1="196.3" x2="1014.1" y2="196.7"/>
				</g>
			</g>
			<g>
				<g>
					<line class="st20" x1="874.6" y1="167.2" x2="875" y2="167.2"/>
					<line class="st22" x1="877.3" y1="167.2" x2="1069" y2="167.2"/>
					<line class="st20" x1="1070.2" y1="167.2" x2="1070.5" y2="167.2"/>
				</g>
			</g>
			<rect x="1012.8" y="165.9" class="st18" width="2.6" height="2.6"/>
		</g>
		<g>
			<path class="st17" d="M1153.2,93.1h-37.8c-0.9,0-1.7,0.7-1.7,1.7v17.6c0,0.9,0.7,1.7,1.7,1.7h17l1.9,6.9l1.9-6.9h17
				c0.9,0,1.7-0.7,1.7-1.7V94.8C1154.8,93.9,1154.1,93.1,1153.2,93.1z"/>
			<g>
				<line class="st19" x1="1120" y1="98.2" x2="1148.6" y2="98.2"/>
				<line class="st19" x1="1120" y1="101.8" x2="1148.6" y2="101.8"/>
				<line class="st19" x1="1120" y1="105.4" x2="1148.6" y2="105.4"/>
				<line class="st19" x1="1120" y1="109" x2="1141.5" y2="109"/>
			</g>
		</g>
		<g>
			<path class="st17" d="M138.9,21.7h-37.8c-0.9,0-1.7,0.7-1.7,1.7V41c0,0.9,0.7,1.7,1.7,1.7h17l1.9,6.9l1.9-6.9h17
				c0.9,0,1.7-0.7,1.7-1.7V23.4C140.5,22.5,139.8,21.7,138.9,21.7z"/>
			<g>
				<line class="st19" x1="105.7" y1="26.8" x2="134.3" y2="26.8"/>
				<line class="st19" x1="105.7" y1="30.4" x2="134.3" y2="30.4"/>
				<line class="st19" x1="105.7" y1="34" x2="134.3" y2="34"/>
				<line class="st19" x1="105.7" y1="37.6" x2="127.2" y2="37.6"/>
			</g>
		</g>
		<g>
			<line class="st16" x1="1003.6" y1="141.8" x2="968.3" y2="141.8"/>
			<path class="st16" d="M1004.3,158.1c0,0,0-16.4-18.3-16.4c-18.3,0-18.3,16.4-18.3,16.4"/>
			<circle class="st17" cx="1004.3" cy="158.1" r="1.5"/>
			<path class="st17" d="M966,158.1c0-0.9,0.7-1.5,1.5-1.5c0.9,0,1.5,0.7,1.5,1.5c0,0.9-0.7,1.5-1.5,1.5
				C966.7,159.7,966,159,966,158.1z"/>
			<g>
				<rect x="1002.9" y="140.4" class="st17" width="2.7" height="2.7"/>
				<rect x="984.6" y="140.4" class="st17" width="2.7" height="2.7"/>
				<rect x="966.2" y="140.4" class="st17" width="2.7" height="2.7"/>
			</g>
		</g>
		<path class="st17" d="M908.1,92.4V87l-4.1-0.4c-0.2-0.9-0.6-1.7-1-2.4l2.6-3.1l-3.8-3.8l-3.1,2.6c-0.8-0.4-1.6-0.8-2.4-1l-0.4-4.1
			h-5.4l-0.4,4.1c-0.9,0.2-1.7,0.6-2.4,1l-3.1-2.6l-3.8,3.8l2.6,3.1c-0.4,0.8-0.8,1.6-1,2.4l-4.1,0.4v5.4l4.1,0.4
			c0.2,0.9,0.6,1.7,1,2.4l-2.6,3.1l3.8,3.8l3.1-2.6c0.8,0.4,1.6,0.8,2.4,1l0.4,4.1h5.4l0.4-4.1c0.9-0.2,1.7-0.6,2.4-1l3.1,2.6
			l3.8-3.8l-2.6-3.1c0.4-0.8,0.8-1.6,1-2.4L908.1,92.4z M893.2,96c-3.5,0-6.3-2.8-6.3-6.3c0-3.5,2.8-6.3,6.3-6.3s6.3,2.8,6.3,6.3
			C899.5,93.2,896.7,96,893.2,96z"/>
		<path class="st17" d="M926.5,104.6v-3.7l-2.8-0.2c-0.2-0.6-0.4-1.1-0.7-1.7l1.8-2.1l-2.6-2.6l-2.1,1.8c-0.5-0.3-1.1-0.5-1.7-0.7
			l-0.2-2.8h-3.7l-0.2,2.8c-0.6,0.2-1.1,0.4-1.7,0.7l-2.1-1.8l-2.6,2.6l1.8,2.1c-0.3,0.5-0.5,1.1-0.7,1.7l-2.8,0.2v3.7l2.8,0.2
			c0.2,0.6,0.4,1.1,0.7,1.7l-1.8,2.1l2.6,2.6l2.1-1.8c0.5,0.3,1.1,0.5,1.7,0.7l0.2,2.8h3.7l0.2-2.8c0.6-0.2,1.1-0.4,1.7-0.7l2.1,1.8
			l2.6-2.6l-1.8-2.1c0.3-0.5,0.5-1.1,0.7-1.7L926.5,104.6z M916.3,107.1c-2.4,0-4.3-1.9-4.3-4.3c0-2.4,1.9-4.3,4.3-4.3
			s4.3,1.9,4.3,4.3C920.6,105.1,918.7,107.1,916.3,107.1z"/>
		<g>
			<line class="st19" x1="1021.7" y1="176.2" x2="1051.4" y2="176.2"/>
			<line class="st19" x1="1021.7" y1="181" x2="1051.4" y2="181"/>
			<line class="st19" x1="1021.7" y1="185.8" x2="1038.7" y2="185.8"/>
		</g>
		<path class="st17" d="M982.6,187.8H967c-2.1,0-3.8-1.7-3.8-3.8l0,0c0-2.1,1.7-3.8,3.8-3.8h15.6c2.1,0,3.8,1.7,3.8,3.8l0,0
			C986.4,186.1,984.7,187.8,982.6,187.8z"/>
		<path class="st17" d="M1011.7,187.8h-15.6c-2.1,0-3.8-1.7-3.8-3.8l0,0c0-2.1,1.7-3.8,3.8-3.8h15.6c2.1,0,3.8,1.7,3.8,3.8l0,0
			C1015.6,186.1,1013.9,187.8,1011.7,187.8z"/>
		<g>
			<rect x="1023.9" y="105.6" class="st18" width="33.2" height="33.2"/>
			<line class="st16" x1="1023.9" y1="105.6" x2="1057.1" y2="138.7"/>
			<line class="st16" x1="1057.1" y1="105.6" x2="1023.9" y2="138.7"/>
		</g>
		<g>
			<polygon class="st18" points="1036.9,67.9 1036.9,75.7 1033.5,79.1 1025.7,79.1 1025.7,67.9 			"/>
			<polygon class="st18" points="1036.9,75.7 1033.5,79.1 1033.5,75.7 			"/>
		</g>
		<g>
			<polygon class="st18" points="918.3,127.8 918.3,135.5 914.9,138.9 907.2,138.9 907.2,127.8 			"/>
			<polygon class="st18" points="918.3,135.5 914.9,138.9 914.9,135.5 			"/>
		</g>
		<g>
			<polygon class="st18" points="876.2,175.4 876.2,183.2 872.8,186.6 865.1,186.6 865.1,175.4 			"/>
			<polygon class="st18" points="876.2,183.2 872.8,186.6 872.8,183.2 			"/>
		</g>
	</g>
	<g id="Character" style="clip-path:url(#SVGID_00000104677290750678063140000008327517979728456592_);">
		<path class="st18" d="M1023.7,133.3c-3.9,0.3-8.9-4.3-8.9-4.3s-0.8,0.7-1.4-0.2c-0.6-0.9-3.4-3-3.5-4.9c-0.2-1.8,3.1-4.8,3.1-4.8
			c-2.5,0.7-2.8-0.8-2.8-0.8s4.2-3.5,5.7-3.6c0.6,0,3.1,1.4,5.5,3.4c2.5,2,7.3,9.2,7.3,9.2s16.1,11.7,20.2,14.7
			c5.4,4,11.8,11,11.8,11s21.4,9.6,27.3,15l-8,18.9c0,0-19.5-13-21.4-16.4c-1.9-3.3-3.9-1.3-5.8-3.5c-1.9-2.2-3.8-4.6-3.8-4.6
			s-4.7-2.1-9.3-6.7c-4.6-4.7-8.6-11.8-11.1-16.1C1026.1,135.3,1023.7,133.3,1023.7,133.3z"/>
		<path class="st18" d="M1024.9,130.5c0,0-5.8-1.4-6.3-5.2c-0.2-1.2-1.2-2.7-1.2-2.7s-5.4-0.3-5.1-2.5l7.2-0.6c0,0,4,1.3,6.3,5.3"/>
		<path class="st16" d="M1010.2,130c0,0,0.4-0.5,0.3-1.7c0,0,1.7-0.3,1.5-1.8c0,0,2.5-0.3,0.9-3.3"/>
		<path class="st16" d="M1012,126.5c0,0-3.4-2.5-3.8-3.7"/>
		<path class="st16" d="M1010.5,128.3c0,0-3.6-2.2-3.7-3.5"/>
		<path class="st16" d="M1011.3,116.9c0,0-1.2,2.1-3.1,2.5"/>
		<path class="st16" d="M1010.7,117.7c0,0,0.9,0.5,1.7,1.1"/>
		<path class="st7" d="M1139,182.9c0,0-12.8-5.6-25.8-8.6c-13-3-33.9-5.7-33.9-5.7s5.8,58.9,4.3,62.4s-10.6,15.4-10.6,15.4
			s49.4,19.3,58,20.9c8.6,1.6,4.1-28.2,4.1-28.2S1144.1,201.1,1139,182.9z"/>
		<path class="st18" d="M1121.3,176.6c0,0,1.2,2.2-1.9,3.4c-8,3-16.5,0.3-15.6-2.8c0.3-1.2,2.3,0,2.2-4.5c0-0.6-0.2-1.3-0.5-2
			c-0.5-1.1-1.3-2.3-2-3.4c-1.4-1.9-2.7-3.4-2.7-3.4s12.7-8.1,22.1,0C1122.8,163.9,1119.3,165.7,1121.3,176.6z"/>
		<g>
			<g>
				<path id="XMLID_529_" class="st23" d="M1137,281.5c-5,8.1-30.3,12-44.2,11.6c-13.8-0.4-53.7-19.2-56.4-23.2
					c-2.5-3.7-8.7-15.9,0.8-23.3c0.8-0.6,1.6-1.1,2.6-1.7c6.5-3.5,49.6,7.6,49.6,7.6s2.7-1.7,3.7-1.6c3,0.4,5.1,2.8,11.2,4.6
					c4.3,1.2,15.9-3.5,23.3,0.6c0.8,0.4,1.6,1,2.3,1.6C1136.9,264.3,1142,273.4,1137,281.5z"/>
			</g>
			<g>
				<defs>
					<path id="SVGID_00000045613898017877946740000008292993529505243573_" d="M1137,281.5c-5,8.1-30.3,12-44.2,11.6
						c-13.8-0.4-53.7-19.2-56.4-23.2c-2.5-3.7-8.7-15.9,0.8-23.3c0.8-0.6,1.6-1.1,2.6-1.7c6.5-3.5,49.6,7.6,49.6,7.6
						s2.7-1.7,3.7-1.6c3,0.4,5.1,2.8,11.2,4.6c4.3,1.2,15.9-3.5,23.3,0.6c0.8,0.4,1.6,1,2.3,1.6C1136.9,264.3,1142,273.4,1137,281.5
						z"/>
				</defs>
				<clipPath id="SVGID_00000181772769445901411450000000271600291262378912_">
					<use xlink:href="#SVGID_00000045613898017877946740000008292993529505243573_"  style="overflow:visible;"/>
				</clipPath>
				
					<path style="opacity:0.3;clip-path:url(#SVGID_00000181772769445901411450000000271600291262378912_);fill-opacity:0.7;enable-background:new    ;" d="
					M1127.7,256.1c-7.6-0.5-14.4,1.1-19.1,3.9c-5.6,3.3-32.1,16.1-32.1,16.1c0.1-1.4,1.5-4.1,1.5-4.1c-2.5-2.2-9-3.9-9-3.9
					c-5.1-4.3-25.1-17.2-31.6-21.4c0.8-0.6,1.6-1.1,2.6-1.7c6.5-3.5,49.6,7.6,49.6,7.6s2.7-1.7,3.7-1.6c3,0.4,5.1,2.8,11.2,4.6
					C1108.6,256.7,1120.3,252,1127.7,256.1z"/>
			</g>
			<g>
				<path id="XMLID_00000000214160612546816840000014163578457345640323_" class="st16" d="M1137,281.5c-5,8.1-30.3,12-44.2,11.6
					c-13.8-0.4-53.7-19.2-56.4-23.2c-2.5-3.7-8.7-15.9,0.8-23.3c0.8-0.6,1.6-1.1,2.6-1.7c6.5-3.5,49.6,7.6,49.6,7.6s2.7-1.7,3.7-1.6
					c3,0.4,5.1,2.8,11.2,4.6c4.3,1.2,15.9-3.5,23.3,0.6c0.8,0.4,1.6,1,2.3,1.6C1136.9,264.3,1142,273.4,1137,281.5z"/>
			</g>
		</g>
		<g>
			<path class="st18" d="M1129.2,288.8l0.6,2.8c0,0-1.7,4.8-9.2,5.6c-7.5,0.8-11.9,2.4-15.5,2.7c-3.6,0.2-5.7-0.1-5.7-0.1l-0.7-1.1
				L1129.2,288.8z"/>
			<g>
				<g>
					<path id="XMLID_528_" class="st7" d="M1085.9,288.6l12.9,10.1c0,0,10-0.8,18.5-2.8v0c6.1-1.4,11.5-3.5,11.8-6.2
						c0.5-4.2-4.1-5.4-9.5-5.2c-1,0-2,0.1-3.1,0.2c-8.6,0.9-19.6-3.8-19.6-3.8L1085.9,288.6z"/>
				</g>
				<g>
					<defs>
						<path id="SVGID_00000005982873696193748450000015278963684796701056_" d="M1085.9,288.6l12.9,10.1c0,0,10-0.8,18.5-2.8v0
							c6.1-1.4,11.5-3.5,11.8-6.2c0.5-4.2-4.1-5.4-9.5-5.2c-1,0-2,0.1-3.1,0.2c-8.6,0.9-19.6-3.8-19.6-3.8L1085.9,288.6z"/>
					</defs>
					<clipPath id="SVGID_00000129907542459670534260000002640307754970153660_">
						<use xlink:href="#SVGID_00000005982873696193748450000015278963684796701056_"  style="overflow:visible;"/>
					</clipPath>
					
						<path style="opacity:0.3;clip-path:url(#SVGID_00000129907542459670534260000002640307754970153660_);fill-opacity:0.7;enable-background:new    ;" d="
						M1129.1,289.6c-2.3,0.9-5.2,2.2-7.2,3.5c0,0-12,6.2-30.5-0.2l-5.6-4.4l11.1-7.7c0,0,10.9,4.8,19.6,3.8c1-0.1,2.1-0.2,3.1-0.2
						C1125,284.3,1129.5,285.4,1129.1,289.6z"/>
				</g>
				<g>
					<path id="XMLID_00000024692225727644439230000001202174018102873233_" class="st16" d="M1085.9,288.6l12.9,10.1
						c0,0,10-0.8,18.5-2.8v0c6.1-1.4,11.5-3.5,11.8-6.2c0.5-4.2-4.1-5.4-9.5-5.2c-1,0-2,0.1-3.1,0.2c-8.6,0.9-19.6-3.8-19.6-3.8
						L1085.9,288.6z"/>
				</g>
			</g>
			<g>
				<g>
					<path id="XMLID_527_" class="st26" d="M1097.9,292.5c-2.3,0.4,0.2,5.1,3.4,3.7C1104.5,294.8,1100.3,292.2,1097.9,292.5z"/>
				</g>
				<g>
					<defs>
						<path id="SVGID_00000121960069827669001000000008386258554379849100_" d="M1097.9,292.5c-2.3,0.4,0.2,5.1,3.4,3.7
							C1104.5,294.8,1100.3,292.2,1097.9,292.5z"/>
					</defs>
					<clipPath id="SVGID_00000105402967830048129890000009859541684437568446_">
						<use xlink:href="#SVGID_00000121960069827669001000000008386258554379849100_"  style="overflow:visible;"/>
					</clipPath>
					
						<path style="opacity:0.2;clip-path:url(#SVGID_00000105402967830048129890000009859541684437568446_);fill-opacity:0.7;enable-background:new    ;" d="
						M1102.3,295.5c-1.6-0.2-3.3-0.5-5-0.9c-0.5-0.9-0.3-1.9,0.6-2.1C1099.9,292.2,1103.2,294,1102.3,295.5z"/>
				</g>
				<g>
					<path id="XMLID_00000151531511873414836400000010719694223431928233_" class="st16" d="M1097.9,292.5c-2.3,0.4,0.2,5.1,3.4,3.7
						C1104.5,294.8,1100.3,292.2,1097.9,292.5z"/>
				</g>
			</g>
			<g>
				<g>
					<path id="XMLID_526_" class="st26" d="M1117.4,295.9c6.1-1.4,11.5-3.5,11.8-6.2c0.5-4.2-4.1-5.4-9.5-5.2
						C1119.4,284.7,1114.2,289.7,1117.4,295.9z"/>
				</g>
				<g>
					<defs>
						<path id="SVGID_00000014593617285331138970000006084818214828877992_" d="M1117.4,295.9c6.1-1.4,11.5-3.5,11.8-6.2
							c0.5-4.2-4.1-5.4-9.5-5.2C1119.4,284.7,1114.2,289.7,1117.4,295.9z"/>
					</defs>
					<clipPath id="SVGID_00000146499722896881399520000010524824717228205983_">
						<use xlink:href="#SVGID_00000014593617285331138970000006084818214828877992_"  style="overflow:visible;"/>
					</clipPath>
					
						<path style="opacity:0.3;clip-path:url(#SVGID_00000146499722896881399520000010524824717228205983_);fill-opacity:0.7;enable-background:new    ;" d="
						M1129.1,289.6c-2.3,0.9-5.2,2.2-7.2,3.5c0,0-1.8,0.9-5.1,1.7c-2.1-5.7,2.6-10.2,2.8-10.4C1125,284.3,1129.5,285.4,1129.1,289.6
						z"/>
				</g>
				<g>
					<path id="XMLID_00000137840955472505063580000004932055683272391354_" class="st16" d="M1117.4,295.9
						c6.1-1.4,11.5-3.5,11.8-6.2c0.5-4.2-4.1-5.4-9.5-5.2C1119.4,284.7,1114.2,289.7,1117.4,295.9z"/>
				</g>
			</g>
			<g>
				<path class="st18" d="M1113,290.7C1113,290.7,1113,290.7,1113,290.7c0.4,0,0.7-0.3,0.7-0.6c0.1-2.7,2.2-4.8,2.2-4.9
					c0.2-0.3,0.2-0.7,0-0.9s-0.7-0.2-0.9,0c-0.1,0.1-2.4,2.5-2.6,5.7C1112.4,290.3,1112.7,290.6,1113,290.7z"/>
			</g>
			<g>
				<path class="st18" d="M1110.4,290.8C1110.4,290.8,1110.5,290.8,1110.4,290.8c0.4,0,0.7-0.3,0.7-0.6c0.1-2.7,1.9-5,2-5.1
					c0.2-0.3,0.2-0.7-0.1-0.9c-0.3-0.2-0.7-0.2-0.9,0.1c-0.1,0.1-2.2,2.7-2.2,5.8C1109.8,290.5,1110.1,290.8,1110.4,290.8z"/>
			</g>
			<g>
				<path class="st18" d="M1107.4,290.5L1107.4,290.5c0.4,0,0.7-0.2,0.7-0.6c0.2-2.2,2.1-5.1,2.1-5.1c0.2-0.3,0.1-0.7-0.2-0.9
					c-0.3-0.2-0.7-0.1-0.9,0.2c-0.1,0.1-2.1,3.2-2.3,5.7C1106.8,290.1,1107,290.5,1107.4,290.5z"/>
			</g>
			<g>
				<path class="st18" d="M1104.5,290.2c0.1,0,0.1,0,0.2,0c0.3-0.1,0.6-0.4,0.5-0.7c-0.5-2.7,2.1-5,2.1-5.1c0.3-0.2,0.3-0.6,0-0.9
					s-0.6-0.3-0.9,0c-0.1,0.1-3.1,2.8-2.5,6.2C1104,289.9,1104.2,290.2,1104.5,290.2z"/>
			</g>
			<g>
				<path class="st18" d="M1101.3,289.4c0.1,0,0.1,0,0.2,0c0.3-0.1,0.6-0.4,0.5-0.8c-0.6-2.4,1.8-5.2,1.9-5.2
					c0.2-0.3,0.2-0.7-0.1-0.9c-0.3-0.2-0.7-0.2-0.9,0.1c-0.1,0.1-2.8,3.3-2.1,6.3C1100.8,289.2,1101.1,289.4,1101.3,289.4z"/>
			</g>
		</g>
		<g>
			<path class="st18" d="M1034.8,284.7l-0.9,2.7c0,0,1.2,5,8.5,6.5c7.3,1.6,11.6,3.7,15.1,4.3s5.7,0.5,5.7,0.5l0.8-1L1034.8,284.7z"
				/>
			<g>
				<g>
					<path id="XMLID_525_" class="st7" d="M1077.9,288.9l-13.9,8.7c0,0-9.9-1.8-18.1-4.7v0c-5.9-2.1-11.1-4.6-11.1-7.4
						c0-4.3,4.6-4.9,10-4.2c1,0.1,2,0.3,3,0.5c8.5,1.8,19.9-1.8,19.9-1.8L1077.9,288.9z"/>
				</g>
				<g>
					<defs>
						<path id="SVGID_00000152974102240729616430000012996959373630145922_" d="M1077.9,288.9l-13.9,8.7c0,0-9.9-1.8-18.1-4.7v0
							c-5.9-2.1-11.1-4.6-11.1-7.4c0-4.3,4.6-4.9,10-4.2c1,0.1,2,0.3,3,0.5c8.5,1.8,19.9-1.8,19.9-1.8L1077.9,288.9z"/>
					</defs>
					<clipPath id="SVGID_00000109715802062957799700000010994720445493388189_">
						<use xlink:href="#SVGID_00000152974102240729616430000012996959373630145922_"  style="overflow:visible;"/>
					</clipPath>
					
						<path style="opacity:0.3;clip-path:url(#SVGID_00000109715802062957799700000010994720445493388189_);fill-opacity:0.7;enable-background:new    ;" d="
						M1077.9,288.9l-8.2,5.1c-8.2-2.5-13.6-7.7-16.6-11.7c7.3,0,14.6-2.3,14.6-2.3L1077.9,288.9z"/>
				</g>
				<g>
					<path id="XMLID_00000110456642172986017140000014888529835058533551_" class="st16" d="M1077.9,288.9l-13.9,8.7
						c0,0-9.9-1.8-18.1-4.7v0c-5.9-2.1-11.1-4.6-11.1-7.4c0-4.3,4.6-4.9,10-4.2c1,0.1,2,0.3,3,0.5c8.5,1.8,19.9-1.8,19.9-1.8
						L1077.9,288.9z"/>
				</g>
			</g>
			<path class="st18" d="M1045.9,293c-5.9-2.1-11.1-4.6-11.1-7.4c0-4.3,4.6-4.9,10-4.2C1045,281.6,1049.7,287.1,1045.9,293z"/>
			<g>
				<path class="st18" d="M1050.8,288.2C1050.8,288.2,1050.7,288.2,1050.8,288.2c-0.4,0-0.7-0.3-0.6-0.7c0.2-2.7-1.7-5.1-1.7-5.1
					c-0.2-0.3-0.2-0.7,0.1-0.9c0.3-0.2,0.7-0.2,0.9,0.1c0.1,0.1,2.1,2.8,1.9,5.9C1051.4,287.9,1051.1,288.2,1050.8,288.2z"/>
			</g>
			<g>
				<path class="st18" d="M1053.3,288.6C1053.3,288.6,1053.3,288.6,1053.3,288.6c-0.4,0-0.7-0.3-0.6-0.7c0.2-2.7-1.4-5.2-1.4-5.2
					c-0.2-0.3-0.1-0.7,0.2-0.9c0.3-0.2,0.7-0.1,0.9,0.2c0.1,0.1,1.9,2.9,1.6,6C1053.9,288.4,1053.6,288.6,1053.3,288.6z"/>
			</g>
			<g>
				<path class="st18" d="M1056.4,288.6L1056.4,288.6c-0.4,0-0.6-0.3-0.6-0.6c0-2.2-1.6-5.3-1.6-5.3c-0.2-0.3,0-0.7,0.3-0.9
					c0.3-0.2,0.7,0,0.9,0.3c0.1,0.1,1.8,3.4,1.7,6C1057,288.3,1056.7,288.6,1056.4,288.6z"/>
			</g>
			<g>
				<path class="st18" d="M1059.3,288.6c-0.1,0-0.1,0-0.2,0c-0.3-0.1-0.5-0.5-0.4-0.8c0.7-2.7-1.5-5.2-1.6-5.3
					c-0.2-0.3-0.2-0.7,0-0.9s0.7-0.2,0.9,0c0.1,0.1,2.8,3.1,1.8,6.5C1059.8,288.4,1059.6,288.6,1059.3,288.6z"/>
			</g>
			<g>
				<path class="st18" d="M1062.5,288.2c-0.1,0-0.1,0-0.2,0c-0.3-0.1-0.5-0.5-0.4-0.8c0.8-2.4-1.3-5.3-1.3-5.4
					c-0.2-0.3-0.1-0.7,0.2-0.9c0.3-0.2,0.7-0.1,0.9,0.2c0.1,0.1,2.5,3.5,1.5,6.5C1063,288,1062.8,288.2,1062.5,288.2z"/>
			</g>
			<path class="st18" d="M1065.5,291.7c2.3,0.6-0.8,5.1-3.8,3.3C1058.8,293.2,1063.3,291,1065.5,291.7z"/>
		</g>
		<path class="st17" d="M1039.2,267.9c3.4,4.8,13.6,10.1,23.7,14.4c1.1,1.8,3.3,5.2,6.3,8.3c6.2,6.4,8.7,2.8,8.7,2.8
			s3.9-0.4,9.7-1.2c0.4,0.7,1.3,1.9,2.9,1.6c0.8-0.1,2.2-1.2,3.8-2.6c14.6-2.2,34.5-5.9,39.9-10.2"/>
		<g>
			<path class="st16" d="M1128.6,258.8c-2.5-2.8-5.1-2.9-10.4-2.5c0,0-13.9,4.4-23.5,10.3c-9.7,5.9-23.8,12-23.8,12s-4.3-1.2-7.3,0
				c0,0-2.1,0.2-0.7,3.8"/>
			<path class="st16" d="M1135,275.5c0,0,0.1,4.3-6,7.3"/>
			<path class="st16" d="M1067.9,257.6c0,0,9.6,6.9,11.5,11.5c0,0,3.7,1.6,5.5,2.8"/>
			<path class="st16" d="M1080.2,263.3c0.6,2,0.9,4.2,0.3,6.2"/>
			<path class="st16" d="M1077.9,258.8c0.5,0.8,1,1.6,1.4,2.4"/>
			<path class="st16" d="M1091.6,258.2c0,0,3.2,4.3,4,7.8"/>
			<path class="st16" d="M1109.5,284.1c1.2-0.1,2.4-0.2,3.6-0.4"/>
			<path class="st16" d="M1079.4,281.1c8.8,1.7,18.4,3,27.6,3.2"/>
		</g>
		<path class="st18" d="M1144.3,216c0,0-1.7,30.2-3.8,32c-2,1.8-5.3,2.3-11.4,2.8c-6.1,0.5-33.1,2.2-33.1,2.2l-2.9-8.7
			c0,0,14.4-1.5,20.7-3.8c6.4-2.3,14.7-3.9,14.7-3.9s-1.2-7.6-1.2-10.9c0-3.3,0-11.6,0-15.4"/>
		<path class="st7" d="M1139,182.9c6.6,4.1,8.5,13.4,6.2,33.4c0,0,1.9,2.4-0.9,3.5c0,0-10.7-4-15.8-1.3c-5,2.8-3.7-3.8-3.7-3.8
			s-2.1-18.4,2.5-21.7"/>
		<path class="st30" d="M1126.8,190.3c0,0-6.3,6.6-0.8,23.2c0,0-0.8,3-0.8,4.1c0,1.1,1.5,1.7,1.5,1.7"/>
		<path class="st30" d="M1119.4,201.4c0,0,0.5,8.1,5.5,11.6"/>
		<path class="st30" d="M1121,182.5c0,0-9.8,3.8-17.6-0.4c-4.6-2.5-2.7-6.4-2.7-6.4"/>
		<g>
			<path class="st31" d="M1050.5,258.8h53.4c1.2,0,2.4-0.2,3.6-0.5l10.5-2.8c0.3-0.1,0.5-0.3,0.5-0.7l0,0c0-0.4-0.3-0.7-0.7-0.7
				h-69.5c-0.4,0-0.7,0.3-0.7,0.7v1C1047.6,257.5,1048.9,258.8,1050.5,258.8z"/>
			<path class="st32" d="M1045.2,256.2h53.5c0.9,0,1.5-0.8,1.3-1.7l-9.9-38.6c-0.2-0.9-1.2-1.7-2.1-1.7h-53.5
				c-0.9,0-1.5,0.8-1.3,1.7l9.9,38.6C1043.3,255.4,1044.2,256.2,1045.2,256.2z"/>
			<line class="st16" x1="1036.2" y1="215.5" x2="1035.2" y2="215.5"/>
			<line class="st16" x1="1044.1" y1="215.5" x2="1038.8" y2="215.5"/>
			<path class="st16" d="M1097.4,251.3l-8.8-34.1c-0.2-0.9-1.2-1.7-2.1-1.7h-41.3"/>
			<line class="st16" x1="1098.2" y1="254.3" x2="1098" y2="253.4"/>
			<path class="st18" d="M1061.3,236.1c0,0.3,0.1,0.6,0.2,0.9c0.7,2.3,2.9,3.7,4.9,3.2c2-0.6,3.1-3,2.4-5.3
				c-0.7-2.3-2.9-3.7-4.9-3.2c-0.2,0.1-0.5,0.2-0.7,0.3C1063.3,233.8,1062.6,235.4,1061.3,236.1z"/>
		</g>
		<path class="st7" d="M1084.9,163.7c-4.6-0.5-7.2-4.9-9.9-5.6c-2.8-0.7-4.6-1.5-4.6-1.5s-1-3.4-2.4-2.2c-1.4,1.2-3.3,26.2-1.5,25.4
			c1.9-0.8,1.9,2.2,1.9,2.2l17.2,15.2l14.4-25.5C1100,171.7,1089.5,164.3,1084.9,163.7z"/>
		<g>
			<g>
				<g>
					<polyline class="st20" points="935,71.6 935,71.2 935.4,71.2 					"/>
					<line class="st33" x1="937.8" y1="71.2" x2="1004.7" y2="71.2"/>
					<polyline class="st20" points="1005.9,71.2 1006.3,71.2 1006.3,71.6 					"/>
					<line class="st34" x1="1006.3" y1="73.9" x2="1006.3" y2="117.1"/>
					<polyline class="st20" points="1006.3,118.3 1006.3,118.7 1005.9,118.7 					"/>
					<line class="st33" x1="1003.6" y1="118.7" x2="936.6" y2="118.7"/>
					<polyline class="st20" points="935.4,118.7 935,118.7 935,118.3 					"/>
					<line class="st34" x1="935" y1="115.9" x2="935" y2="72.8"/>
				</g>
			</g>
			<circle class="st17" cx="970.7" cy="71.2" r="1.2"/>
			<circle class="st17" cx="935" cy="94.9" r="1.2"/>
			<circle class="st17" cx="970.7" cy="118.7" r="1.2"/>
			<circle class="st17" cx="1006.3" cy="94.9" r="1.2"/>
			<rect x="1004.9" y="117.3" class="st17" width="2.7" height="2.7"/>
			<rect x="1004.9" y="69.8" class="st17" width="2.7" height="2.7"/>
			<rect x="933.7" y="117.3" class="st17" width="2.7" height="2.7"/>
			<rect x="933.7" y="69.8" class="st17" width="2.7" height="2.7"/>
		</g>
		<g>
			<rect x="939.8" y="75.4" class="st18" width="62" height="39.4"/>
			<polygon class="st17" points="1001.8,103.1 994.9,110 976.2,91.4 968.4,99.2 955.9,86.7 939.8,102.8 939.8,114.8 1001.8,114.8 
							"/>
			<circle class="st17" cx="988.9" cy="86.6" r="4.4"/>
		</g>
		<path class="st30" d="M1088,170.5c0,0-4.4,8.2-4.9,20.9"/>
		<path class="st30" d="M1075,176.2c0,0,1.3,7,5.2,12.1"/>
		<path class="st30" d="M1093.2,205.2c0,0,6.6,21.8,21.1,28.2"/>
		<path class="st7" d="M1110.6,165.7c0,0-0.6,4.8-5.2,5.1c-0.5-1.1-1.3-2.3-2-3.4C1106.4,166.4,1110.6,165.7,1110.6,165.7z"/>
		<g>
			<path class="st18" d="M1120.4,166c0,0,7.7,0.9,10.9-9.3c3.2-10.3,0.7-18-12-21.7c-7-2.1-14.1-0.4-16.6,4.9
				c-2.2,4.6-1.1,8.3-1.6,9.9c-0.6,1.7-5.7,3.2-5.7,4.3c0,1,2.9,2.6,2.9,2.6l-0.8,2.5l0.8,0.4c0,0-1.5,5.8-0.8,7.8
				c0.5,1.5,13.5,2.1,14.5-1.6"/>
			<path class="st16" d="M1102.7,143.6c0,0,2.5,0.6,3.2,2"/>
			<path class="st7" d="M1103.2,149.4c-0.1,0.7,0.1,1.4,0.4,1.4c0.3,0,0.7-0.5,0.8-1.3c0.1-0.7-0.1-1.4-0.4-1.4
				C1103.6,148.1,1103.3,148.6,1103.2,149.4z"/>
			<path class="st16" d="M1098.1,159.6c0,0,4.1,1.6,5.7,0.6"/>
			<path class="st16" d="M1099.6,148.8c-0.3,1.6,0.1,3.1,0.8,3.2c0.8,0.1,1.6-1.1,1.9-2.7c0.3-1.6-0.1-3.1-0.8-3.2
				C1100.7,145.9,1099.9,147.2,1099.6,148.8z"/>
			<path class="st7" d="M1131.6,140.4c0,0-0.6-4.3-4.8-7.4c-4.2-3.1-9.3-3.8-9.3-3.8s2.4,1.1,3.4,2.5c0,0-6.3-4.7-13.8-1.6
				c-7.5,3.1-6.6,11.2-6.6,11.2l1.1-2.1c0,0-0.1,2.5,1.2,3.5c0,0,0.8-2.4,1.6-3.5c0,0,2,6,7.5,8c0,0-0.6-1.2-0.1-3
				c0,0,3,6.6,2.2,9.8l1,1.7c0,0,3.5-3.5,6.3-0.6c1.6,1.7-3.1,8.1-3.8,8.1l2.9,4.2c0,0,7.2,1,11.3-6.7c4.1-7.8,3.1-11.1,3.1-11.1
				s1.4,1.9,1.5,3C1136.2,152.5,1137.4,144.1,1131.6,140.4z"/>
			<path class="st18" d="M1114.7,156.3c0,0,2.2-7.4,6.9-4.8c4.7,2.6,1.3,6.6-0.3,8.1c-1.7,1.5-3,4.3-4.1,4.3c-1.1,0-1.4-1.4-1.4-1.4
				"/>
			<line class="st16" x1="1102.3" y1="149.3" x2="1115.5" y2="152"/>
		</g>
	</g>
	<g id="Floor" style="clip-path:url(#SVGID_00000104677290750678063140000008327517979728456592_);">
		<line class="st35" x1="46.8" y1="297.6" x2="1194.1" y2="297.6"/>
	</g>
</g>
</svg>
