<svg xmlns="http://www.w3.org/2000/svg" xmlns:xlink="http://www.w3.org/1999/xlink" viewBox="0 0 1245 300.47"><defs><style>.cls-1,.cls-15,.cls-16,.cls-17,.cls-18,.cls-21,.cls-22,.cls-23,.cls-24,.cls-25,.cls-39,.cls-4,.cls-40,.cls-5,.cls-6,.cls-7{fill:none;}.cls-2{clip-path:url(#clip-path);}.cls-3{fill:url(#radial-gradient);}.cls-16,.cls-17,.cls-19,.cls-25,.cls-27,.cls-4{stroke:#fff;}.cls-10,.cls-11,.cls-12,.cls-13,.cls-14,.cls-15,.cls-16,.cls-17,.cls-18,.cls-19,.cls-20,.cls-21,.cls-22,.cls-23,.cls-24,.cls-25,.cls-26,.cls-27,.cls-37,.cls-38,.cls-39,.cls-4,.cls-40,.cls-5,.cls-6,.cls-7,.cls-8{stroke-linecap:round;stroke-linejoin:round;}.cls-4,.cls-5,.cls-6,.cls-7,.cls-8{stroke-width:1.02px;}.cls-10,.cls-11,.cls-12,.cls-13,.cls-14,.cls-15,.cls-20,.cls-21,.cls-22,.cls-23,.cls-24,.cls-26,.cls-37,.cls-38,.cls-39,.cls-40,.cls-5,.cls-6,.cls-7,.cls-8{stroke:#100c60;}.cls-6{stroke-dasharray:2.02 2.02;}.cls-7{stroke-dasharray:1.97 1.97;}.cls-11,.cls-12,.cls-20,.cls-27,.cls-32,.cls-8{fill:#fff;}.cls-10,.cls-13,.cls-9{fill:#100c60;}.cls-10,.cls-11{stroke-width:0.83px;}.cls-12,.cls-13,.cls-14,.cls-15,.cls-16{stroke-width:1.03px;}.cls-14{fill:#453bae;}.cls-18{stroke:#efeff9;}.cls-19,.cls-26,.cls-28{fill:#407bff;}.cls-21,.cls-25{stroke-width:2px;}.cls-23{stroke-dasharray:1 3;}.cls-24{stroke-dasharray:1 2.99;}.cls-29{clip-path:url(#clip-path-2);}.cls-30,.cls-34{fill-opacity:0.7;isolation:isolate;}.cls-30{opacity:0.3;}.cls-31{clip-path:url(#clip-path-3);}.cls-33{clip-path:url(#clip-path-4);}.cls-34{opacity:0.2;}.cls-35{clip-path:url(#clip-path-5);}.cls-36{clip-path:url(#clip-path-6);}.cls-37{fill:#757575;}.cls-38{fill:#999;}.cls-39{stroke-dasharray:0.98 2.93;}.cls-40{stroke-dasharray:1 3;}</style><clipPath id="clip-path"><rect class="cls-1" width="1245" height="300"/></clipPath><radialGradient id="radial-gradient" cx="992.38" cy="-15" r="700.62" gradientTransform="matrix(-0.76, 0.55, -0.47, -0.5, 1732.94, -796.91)" gradientUnits="userSpaceOnUse"><stop offset="0" stop-color="#73d7ff"/><stop offset="1" stop-color="#002bc6"/></radialGradient><clipPath id="clip-path-2"><path class="cls-1" d="M1137,281.5c-5,8.1-30.3,12-44.2,11.6s-53.7-19.2-56.4-23.2c-2.5-3.7-8.7-15.9.8-23.3a29.36,29.36,0,0,1,2.6-1.7c6.5-3.5,49.6,7.6,49.6,7.6s2.7-1.7,3.7-1.6c3,.4,5.1,2.8,11.2,4.6,4.3,1.2,15.9-3.5,23.3.6a11.87,11.87,0,0,1,2.3,1.6C1136.9,264.3,1142,273.4,1137,281.5Z"/></clipPath><clipPath id="clip-path-3"><path class="cls-1" d="M1085.9,288.6l12.9,10.1a145.45,145.45,0,0,0,18.5-2.8h0c6.1-1.4,11.5-3.5,11.8-6.2.5-4.2-4.1-5.4-9.5-5.2-1,0-2,.1-3.1.2-8.6.9-19.6-3.8-19.6-3.8Z"/></clipPath><clipPath id="clip-path-4"><path class="cls-1" d="M1097.9,292.5c-2.3.4.2,5.1,3.4,3.7S1100.3,292.2,1097.9,292.5Z"/></clipPath><clipPath id="clip-path-5"><path class="cls-1" d="M1117.4,295.9c6.1-1.4,11.5-3.5,11.8-6.2.5-4.2-4.1-5.4-9.5-5.2C1119.4,284.7,1114.2,289.7,1117.4,295.9Z"/></clipPath><clipPath id="clip-path-6"><path class="cls-1" d="M1077.9,288.9l-13.9,8.7a137.56,137.56,0,0,1-18.1-4.7h0c-5.9-2.1-11.1-4.6-11.1-7.4,0-4.3,4.6-4.9,10-4.2,1,.1,2,.3,3,.5,8.5,1.8,19.9-1.8,19.9-1.8Z"/></clipPath></defs><g id="Layer_2" data-name="Layer 2"><g id="Слой_1" data-name="Слой 1"><g class="cls-2"><rect class="cls-3" width="1245" height="300"/><path class="cls-4" d="M330.5,274.6H159.1a7.34,7.34,0,0,1-7.3-7.3V41.2a7.34,7.34,0,0,1,7.3-7.3H330.5a7.34,7.34,0,0,1,7.3,7.3V267.3A7.34,7.34,0,0,1,330.5,274.6Z"/><polyline class="cls-5" points="229.9 100 229.9 100.7 229.1 100.7"/><line class="cls-6" x1="227.6" y1="100.7" x2="184" y2="100.7"/><polyline class="cls-5" points="183.3 100.7 182.5 100.7 182.5 100"/><line class="cls-7" x1="182.5" y1="98.6" x2="182.5" y2="64.6"/><polyline class="cls-5" points="182.5 63.9 182.5 63.1 183.3 63.1"/><line class="cls-6" x1="184.7" y1="63.1" x2="228.4" y2="63.1"/><polyline class="cls-5" points="229.1 63.1 229.9 63.1 229.9 63.9"/><line class="cls-7" x1="229.9" y1="65.3" x2="229.9" y2="99.3"/><rect class="cls-8" x="190.1" y="69.1" width="32.2" height="25.6"/><line class="cls-5" x1="188.2" y1="67.3" x2="177.1" y2="58.7"/><line class="cls-5" x1="224.5" y1="96" x2="234" y2="104.2"/><polyline class="cls-5" points="176.7 61.5 176.4 57.9 180.2 57.9"/><polyline class="cls-5" points="234.3 100.8 234.9 104.7 230.3 104.9"/><rect class="cls-9" x="246.6" y="197.2" width="15.6" height="5.6"/><polygon class="cls-9" points="268.6 200.1 258.5 194.3 258.5 205.9 268.6 200.1"/><path class="cls-10" d="M235.3,248.4h-36a5.12,5.12,0,0,1-5.1-5.1V163.4a5.12,5.12,0,0,1,5.1-5.1h36a5.12,5.12,0,0,1,5.1,5.1v79.9A5.12,5.12,0,0,1,235.3,248.4Z"/><rect class="cls-11" x="196.3" y="164.4" width="42.1" height="78.6"/><path class="cls-8" d="M230.5,260.8l3.2-12.5a18.41,18.41,0,0,0,.5-4.1v-15a1.27,1.27,0,0,0,.1-.6,2.57,2.57,0,0,0-2.7-2.4,2.79,2.79,0,0,0-2,.8,2.53,2.53,0,0,0-2.6-2.2,2.71,2.71,0,0,0-2.3,1.1,2.52,2.52,0,0,0-2.6-2.1,2.71,2.71,0,0,0-2.3,1.1c0-2,0-11.5-.3-12.3-1-2.5-5.8-1.4-5,1.3v22c0-1.5-1.1-3.6-1.6-5.1a16.52,16.52,0,0,0-1.6-4.2c-1.5-2.1-4.2-1-4,1.3.1,2,1.6,3.5,2.3,5.3,1.4,3.3.6,6.8,1.9,10.1a71.14,71.14,0,0,0,3.7,6.1,19.7,19.7,0,0,1,1.7,4.1l-1.2,7.3"/><line class="cls-5" x1="217.3" y1="205.1" x2="217.3" y2="209.2"/><line class="cls-5" x1="221.9" y1="213.1" x2="225.3" y2="213.1"/><line class="cls-5" x1="208.1" y1="213.1" x2="211.4" y2="213.1"/><line class="cls-5" x1="212.7" y1="208.7" x2="214" y2="210.8"/><line class="cls-5" x1="220.4" y1="211" x2="222.2" y2="208.7"/><rect class="cls-5" x="197.8" y="194.9" width="39" height="4.9"/><rect class="cls-5" x="199.1" y="168.7" width="18.7" height="22.3"/><line class="cls-5" x1="199.1" y1="168.7" x2="217.8" y2="191"/><polyline class="cls-5" points="198.6 234.1 198.6 202.3 236.6 202.3 236.6 233.9"/><path class="cls-10" d="M312.9,248.4h-36a5.12,5.12,0,0,1-5.1-5.1V163.4a5.12,5.12,0,0,1,5.1-5.1h36a5.12,5.12,0,0,1,5.1,5.1v79.9A5.12,5.12,0,0,1,312.9,248.4Z"/><rect class="cls-11" x="273.9" y="164.4" width="42.1" height="78.6"/><rect class="cls-5" x="276.1" y="168.2" width="38" height="41.6"/><line class="cls-5" x1="276.1" y1="213.6" x2="314" y2="213.6"/><line class="cls-5" x1="276.1" y1="216.7" x2="314" y2="216.7"/><line class="cls-5" x1="276.1" y1="219.7" x2="314" y2="219.7"/><line class="cls-5" x1="276.1" y1="222.8" x2="314" y2="222.8"/><line class="cls-5" x1="276.1" y1="225.9" x2="314" y2="225.9"/><line class="cls-5" x1="276.1" y1="229" x2="314" y2="229"/><line class="cls-5" x1="276.1" y1="232.1" x2="314" y2="232.1"/><line class="cls-5" x1="276.1" y1="209.7" x2="314" y2="168.2"/><path class="cls-10" d="M312.9,145h-36a5.12,5.12,0,0,1-5.1-5.1V60a5.12,5.12,0,0,1,5.1-5.1h36A5.12,5.12,0,0,1,318,60v79.9A5.12,5.12,0,0,1,312.9,145Z"/><rect class="cls-11" x="273.9" y="61" width="42.1" height="78.6"/><polyline class="cls-5" points="225.3 155.6 225.3 131.7 259 131.7"/><polygon class="cls-9" points="257.9 135.4 264.4 131.7 257.9 127.9 257.9 135.4"/><line class="cls-5" x1="294.1" y1="155" x2="294.1" y2="136.6"/><polygon class="cls-9" points="297.8 137.7 294.1 131.2 290.3 137.7 297.8 137.7"/><line class="cls-5" x1="276.7" y1="256.6" x2="293.7" y2="256.6"/><line class="cls-5" x1="276.7" y1="260.4" x2="293.7" y2="260.4"/><line class="cls-5" x1="276.7" y1="264.2" x2="293.7" y2="264.2"/><line class="cls-5" x1="235.4" y1="256.6" x2="252.4" y2="256.6"/><line class="cls-5" x1="235.4" y1="260.4" x2="252.4" y2="260.4"/><line class="cls-5" x1="235.4" y1="264.2" x2="252.4" y2="264.2"/><line class="cls-5" x1="230.8" y1="139.2" x2="247.8" y2="139.2"/><line class="cls-5" x1="230.8" y1="143.1" x2="247.8" y2="143.1"/><line class="cls-5" x1="230.8" y1="146.9" x2="247.8" y2="146.9"/><line class="cls-5" x1="243.5" y1="92.9" x2="260.5" y2="92.9"/><line class="cls-5" x1="243.5" y1="96.7" x2="260.5" y2="96.7"/><line class="cls-5" x1="243.5" y1="100.6" x2="260.5" y2="100.6"/><line class="cls-5" x1="182.3" y1="106.1" x2="199.3" y2="106.1"/><line class="cls-5" x1="182.3" y1="109.9" x2="199.3" y2="109.9"/><line class="cls-5" x1="182.3" y1="113.7" x2="199.3" y2="113.7"/><path class="cls-12" d="M113.4,285.2a63.82,63.82,0,0,0-1.6,7.6c0,1.5-.4,2.6,2.9,3.2s5.5.3,6-1.3.9-9.2.9-9.2l-8.1-1.5Z"/><path class="cls-12" d="M120.7,294.7a7.47,7.47,0,0,0,.2-1.1,65.14,65.14,0,0,1-9.2-.7c0,1.5-.3,2.4,2.9,3.1C118.1,296.6,120.2,296.2,120.7,294.7Z"/><path class="cls-12" d="M191.2,285.7s2.6.9,6.3,2,11.3,2.4,12,2.6.8,1.7.1,2.3a23.36,23.36,0,0,1-7.9,3.6c-4,1-17.4,1.9-18.6,1.2-1-.6-.6-6.9-.3-8.3S191.2,285.7,191.2,285.7Z"/><path class="cls-12" d="M209.6,292.7a2,2,0,0,0,.4-1.8c-2.6,2.1-7.8,4.3-13.1,4.9a93.46,93.46,0,0,1-14.4-.1,3.37,3.37,0,0,0,.5,1.7c1.2.8,14.6-.1,18.6-1.2A23.71,23.71,0,0,0,209.6,292.7Z"/><path class="cls-13" d="M129.2,174.1s-2.2,13.4-.5,20.8c0,0-3.2,29.5-3.7,42.6,0,0-6.9,23.1-7.9,30.2s-3.7,17.4-3.7,17.4a15.12,15.12,0,0,0,5,1.7c3.5.7,4-2,4-2s19.1-43.9,20.6-50.3,6.4-29.5,6.4-29.5L170,242.7s1,12.9,4,20.3,8.7,28,8.7,28a23,23,0,0,0,6.7-.7c3-1,3-2.5,3-2.5s-4.5-16.6-4.5-22.1-1.7-24-3-29.3S175.2,203.9,174,201s-4-12.4-4-12.4L168.3,174C168.1,174.1,146.8,180.1,129.2,174.1Z"/><path class="cls-12" d="M145,110.9a13.52,13.52,0,0,1-1.1-4c0-1.5-.8-8.7-.8-8.7s11-19.9,14-23.7a43.82,43.82,0,0,1,6.6-6.6s7.4-1.5,8.9-1.5,3.2-.8,3.2-1.7-2.5-.8-4-.8a7.68,7.68,0,0,1-3.4-1.3s2.5-7.1,3.2-9.9c.4-1.5,1.7-4.6.8-4.6s-1.1.8-1.7,1.9-3,4.9-3,4.9l.6-8.4s-.8-1.1-1.3.2a48.66,48.66,0,0,0-1.9,6.3,4.89,4.89,0,0,1-1,1.8l-.8-6.2s-1.3-1.4-1.5,1c-.1,1.3,0,5.7,0,6.5S161,55,161,55s-.4-2.1-.9-2.3-.9.4-.8,1.9-.2,7.8-.2,7.8-1.1,1.5-2.8,3.6-15.4,14.4-20.5,18.4-5.7,7.2-6.5,11.2-1.5,27.1-1.5,35.5.8,21.6,1.3,26-.4,10.1-1.1,13.1,0,5.7,2.1,7.2,11,2.5,18.4,2.5,15-.8,17.3-1.5,4-.9,4-4-1.5-9.1-1.5-10.8,3-19.4,3-19.4,19.4,5.9,23,4.6S228.1,119,228.1,119a47.14,47.14,0,0,1,7.2-2.3c2.5-.4,6.3-2.1,6.5-2.7s-.4-.4-1.9-.4a17.54,17.54,0,0,0-4,.8s5.2-3.3,6.1-3.6c.6-.2,1.7-1.6.2-1.3-1.9.4-6.5,1.7-6.5,1.7l6.1-3.8s.9-1.5-.2-1.5-6.8,3.4-6.8,3.4l4.4-4.1c.9-.8.1-1.9-.9-1.3l-5.1,2.9a24.76,24.76,0,0,1-4,1.8l-.9.6a24.44,24.44,0,0,0,.4-3c0-.9-.6-3.4-1.9-3.6s-.2,1.7-.2,2.7-1.9,5.9-1.9,6.6v2.3a75.56,75.56,0,0,1-12.3,8.7c-5.9,3-19.2,13.1-19.2,13.1s-15.2-7.8-18.6-10.6-7.2-6.3-11-9.3a54,54,0,0,0-6.3-4.4Z"/><path class="cls-14" d="M208.4,125.1c-6.4,4.1-15.2,10.8-15.2,10.8s-15.2-7.8-18.6-10.6-7.2-6.3-11-9.3a54,54,0,0,0-6.3-4.4L145,111a13.52,13.52,0,0,1-1.1-4c0-1.5-.8-8.7-.8-8.7s5.7-10.3,10-17.5a1.38,1.38,0,0,1-.3-.4,16.3,16.3,0,0,0-7.6-3.9c-3.6,3.2-7.1,6.2-9.2,7.9-5.1,4-5.7,7.2-6.5,11.2s-1.5,27.1-1.5,35.5.8,21.6,1.3,26-.4,10.1-1.1,13.1,0,5.7,2.1,7.2,11,2.5,18.4,2.5,15-.8,17.3-1.5,4-.9,4-4-1.5-9.1-1.5-10.8,3-19.4,3-19.4,19.4,5.9,23,4.6c1.9-.7,11.4-9.2,19.9-16.9A27.57,27.57,0,0,0,208.4,125.1Z"/><path class="cls-15" d="M165.4,119.3s-7.6,2.1-8.1,7.9"/><path class="cls-15" d="M171.3,144.2s-8.9-2.4-13.5-7.1"/><path class="cls-15" d="M166.4,142.9s-7.6,2.1-14.6-.7"/><path class="cls-15" d="M134.1,130.6s2.4,16.8,14,25.3"/><path class="cls-15" d="M151.9,160.5a26.14,26.14,0,0,0,2.7.6"/><path class="cls-15" d="M134.1,147.5a33.21,33.21,0,0,0,13,11.3"/><path class="cls-15" d="M131.9,110s7.4-3.7,11.8-.2"/><path class="cls-15" d="M134,93.1s6.7,2.3,8.6,6.9"/><path class="cls-15" d="M138.4,91.5a9.28,9.28,0,0,1,3.2,5.1"/><path class="cls-12" d="M170,80.6s1.1,6.5,1.1,8.2-1.9,2.3-1.1,4.6,2.5,2.5,2.1,4.4-2.8,3-2.8,3-1.3,5.3-2.7,7.6-6.3.6-6.3.6l-.4,6.1s-1.7,2.5-8,1.7a36.35,36.35,0,0,1-10.4-2.8l-.9-1.3s4.9-2.5,5.1-4.2,0-5.7,0-11.4-1.7-16.7,7.6-19.6S170,80.6,170,80.6Z"/><path class="cls-13" d="M158.4,96.2s-2.1-4.9-4.5-2.1c-1.6,1.8.4,7.2,1.3,8s3,.4,3,.4-3,3-6.3,3-6.1-3-8.2-8.4-3.6-14.4-1.3-19.9,14-5.7,16.7-5.7a23.48,23.48,0,0,1,6.6,1.5s8.5-.8,8.7,2.1-1.1,3-1.1,3,6.1,3.2,3.2,4.6-7.2.6-10.1.6a4,4,0,0,0-3.8,2.1s2.7,1.7,1.7,2.5-4.4,2.3-4.7,3.6,1.3,3.4.2,4.4C158.8,96.7,158.4,96.2,158.4,96.2Z"/><path class="cls-9" d="M169,93.9c0,1-.4,1.8-.9,1.8s-.9-.8-.9-1.8.4-1.8.9-1.8S169,92.9,169,93.9Z"/><path class="cls-15" d="M165.9,91.6s1.2-2.9,3.2-1.3"/><polyline class="cls-16" points="149.3 205.1 147.6 201.9 138.9 199.7"/><g id="Graphics"><path class="cls-17" d="M842.2,41.9V34.7l-5.4-.5a17.88,17.88,0,0,0-1.3-3.2l3.5-4.1-5.1-5.1-4.1,3.5a12.66,12.66,0,0,0-3.2-1.3l-.5-5.4H819l-.5,5.4a17.88,17.88,0,0,0-3.2,1.3l-4.1-3.5-5.1,5.1,3.5,4.1a12.66,12.66,0,0,0-1.3,3.2l-5.4.5v7.2l5.4.5a17.88,17.88,0,0,0,1.3,3.2l-3.5,4.1,5.1,5.1,4.1-3.5a12.66,12.66,0,0,0,3.2,1.3L819,58h7.2l.5-5.4a17.88,17.88,0,0,0,3.2-1.3l4.1,3.5,5.1-5.1-3.5-4.1a12.66,12.66,0,0,0,1.3-3.2Zm-19.7,4.7a8.3,8.3,0,1,1,8.3-8.3A8.28,8.28,0,0,1,822.5,46.6Z"/><path class="cls-17" d="M770.7,261.1V254l-5.4-.5a17.88,17.88,0,0,0-1.3-3.2l3.5-4.1-5.1-5.1-4.1,3.5a12.66,12.66,0,0,0-3.2-1.3l-.5-5.4h-7.2l-.5,5.4a17.88,17.88,0,0,0-3.2,1.3l-4.1-3.5-5.1,5.1,3.5,4.1a12.66,12.66,0,0,0-1.3,3.2l-5.4.5v7.2l5.4.5a17.88,17.88,0,0,0,1.3,3.2l-3.5,4.1,5.1,5.1,4.1-3.5a12.66,12.66,0,0,0,3.2,1.3l.5,5.4h7.2l.5-5.4a17.88,17.88,0,0,0,3.2-1.3l4.1,3.5,5.1-5.1-3.5-4.1a12.66,12.66,0,0,0,1.3-3.2ZM751,265.9a8.3,8.3,0,1,1,8.3-8.3A8.28,8.28,0,0,1,751,265.9Z"/><path class="cls-17" d="M407.8,33.6V26.4l-5.4-.5a17.88,17.88,0,0,0-1.3-3.2l3.5-4.1-5.1-5.1L395.4,17a12.66,12.66,0,0,0-3.2-1.3l-.5-5.4h-7.2l-.5,5.4a19.45,19.45,0,0,0-3,1.3l-4.1-3.5-5.1,5.1,3.5,4.1a12.66,12.66,0,0,0-1.3,3.2l-5.4.5v7.2l5.4.5a17.88,17.88,0,0,0,1.3,3.2l-3.5,4.1,5.1,5.1L381,43a12.66,12.66,0,0,0,3.2,1.3l.5,5.4h7.2l.5-5.4a17.88,17.88,0,0,0,3.2-1.3l4.1,3.5,5.1-5.1-3.5-4.1a12.66,12.66,0,0,0,1.3-3.2Zm-19.6,4.7a8.3,8.3,0,1,1,8.3-8.3A8.28,8.28,0,0,1,388.2,38.3Z"/><path class="cls-17" d="M429.4,262.9V249.3l-10.2-.9a27,27,0,0,0-2.5-6.1l6.6-7.8-9.6-9.6-7.8,6.6a27,27,0,0,0-6.1-2.5l-.9-10.2H385.3l-.9,10.2a27,27,0,0,0-6.1,2.5l-7.8-6.6-9.6,9.6,6.6,7.8a27,27,0,0,0-2.5,6.1l-10.2.9v13.6l10.2.9a27,27,0,0,0,2.5,6.1l-6.6,7.8,9.6,9.6,7.8-6.6a27,27,0,0,0,6.1,2.5l.9,10.2h13.6l.9-10.2a27,27,0,0,0,6.1-2.5l7.8,6.6,9.6-9.6-6.6-7.8a27,27,0,0,0,2.5-6.1Zm-37.4,9a15.8,15.8,0,1,1,15.8-15.8A15.83,15.83,0,0,1,392,271.9Z"/><path class="cls-17" d="M1200.8,158.3v-6.5l-4.9-.4a14.76,14.76,0,0,0-1.2-2.9l3.2-3.7-4.6-4.6-3.7,3.2a14.76,14.76,0,0,0-2.9-1.2l-.4-4.9h-6.5l-.4,4.9a14.76,14.76,0,0,0-2.9,1.2l-3.7-3.2-4.6,4.6,3.2,3.7a14.76,14.76,0,0,0-1.2,2.9l-4.9.4v6.5l4.9.4a14.76,14.76,0,0,0,1.2,2.9l-3.2,3.7,4.6,4.6,3.7-3.2a14.76,14.76,0,0,0,2.9,1.2l.4,4.9h6.5l.4-4.9a14.76,14.76,0,0,0,2.9-1.2l3.7,3.2,4.6-4.6-3.2-3.7a14.76,14.76,0,0,0,1.2-2.9Zm-17.9,4.3a7.6,7.6,0,1,1,7.6-7.6A7.6,7.6,0,0,1,1182.9,162.6Z"/><path class="cls-17" d="M1195.9,39.6a17.52,17.52,0,0,0,.5-4,17.84,17.84,0,0,0-17.8-17.8,17,17,0,0,0-4.6.6,17.06,17.06,0,0,0-31.9,7.3,10.9,10.9,0,0,0-2.6-.3,13.8,13.8,0,0,0-13.8,12.4,7.8,7.8,0,0,0,.2,15.6h65.2a7.81,7.81,0,0,0,7.8-7.8A8.16,8.16,0,0,0,1195.9,39.6Z"/><line class="cls-17" x1="1160.1" y1="47.5" x2="1160.1" y2="65.4"/><line class="cls-17" x1="1160.1" y1="36.7" x2="1160.1" y2="43.9"/><line class="cls-17" x1="1160.1" y1="30" x2="1160.1" y2="33.8"/><polyline class="cls-17" points="1156.7 63.3 1160.1 67.5 1163.5 63.3"/><path class="cls-18" d="M997.3,250.4a17.52,17.52,0,0,0,.5-4A17.84,17.84,0,0,0,980,228.6a17,17,0,0,0-4.6.6,17.06,17.06,0,0,0-31.9,7.3,10.9,10.9,0,0,0-2.6-.3,13.8,13.8,0,0,0-13.8,12.4,7.8,7.8,0,0,0,.2,15.6h65.2a7.81,7.81,0,0,0,7.8-7.8A8.34,8.34,0,0,0,997.3,250.4Z"/><line class="cls-18" x1="961.5" y1="260.8" x2="961.5" y2="242.8"/><line class="cls-18" x1="961.5" y1="271.5" x2="961.5" y2="264.4"/><line class="cls-18" x1="961.5" y1="278.3" x2="961.5" y2="274.4"/><polyline class="cls-18" points="964.9 244.9 961.5 240.7 958.1 244.9"/><path class="cls-17" d="M456.5,111.6a17.52,17.52,0,0,0,.5-4,17.84,17.84,0,0,0-17.8-17.8,17,17,0,0,0-4.6.6,17.06,17.06,0,0,0-31.9,7.3,10.9,10.9,0,0,0-2.6-.3,13.8,13.8,0,0,0-13.8,12.4,7.8,7.8,0,0,0,.2,15.6h65.2a7.81,7.81,0,0,0,7.8-7.8A8,8,0,0,0,456.5,111.6Z"/><line class="cls-17" x1="420.7" y1="122" x2="420.7" y2="104"/><line class="cls-17" x1="420.7" y1="132.8" x2="420.7" y2="125.6"/><line class="cls-17" x1="420.7" y1="139.5" x2="420.7" y2="135.6"/><polyline class="cls-17" points="424.1 106.1 420.7 101.9 417.3 106.1"/></g><g id="Interface"><path class="cls-19" d="M1062.8,55H863.5V45.9a3.33,3.33,0,0,1,3.3-3.3h192.8a3.33,3.33,0,0,1,3.3,3.3l-.1,9.1Z"/><rect class="cls-20" x="872.2" y="57.3" width="201.4" height="141.8"/><path class="cls-20" d="M1076.7,48.8a3.1,3.1,0,1,1-3.1-3.1A3.12,3.12,0,0,1,1076.7,48.8Z"/><path class="cls-20" d="M1065.8,48.8a3.1,3.1,0,1,1-3.1-3.1A3.05,3.05,0,0,1,1065.8,48.8Z"/><path class="cls-20" d="M1055,48.8a3.1,3.1,0,1,1-3.1-3.1A3.12,3.12,0,0,1,1055,48.8Z"/><line class="cls-21" x1="1067.5" y1="63.3" x2="1059.5" y2="63.3"/><line class="cls-21" x1="1067.5" y1="66.6" x2="1059.5" y2="66.6"/><line class="cls-21" x1="1067.5" y1="69.8" x2="1059.5" y2="69.8"/><line class="cls-21" x1="886.1" y1="147" x2="946.5" y2="147"/><line class="cls-21" x1="886.1" y1="151.7" x2="946.5" y2="151.7"/><line class="cls-21" x1="886.1" y1="156.6" x2="933.7" y2="156.6"/><line class="cls-22" x1="1014.1" y1="58.9" x2="1014.1" y2="59.2"/><line class="cls-23" x1="1014.1" y1="61.5" x2="1014.1" y2="195.1"/><line class="cls-22" x1="1014.1" y1="196.3" x2="1014.1" y2="196.7"/><line class="cls-22" x1="874.6" y1="167.2" x2="875" y2="167.2"/><line class="cls-24" x1="877.3" y1="167.2" x2="1069" y2="167.2"/><line class="cls-22" x1="1070.2" y1="167.2" x2="1070.5" y2="167.2"/><rect class="cls-20" x="1012.8" y="165.9" width="2.6" height="2.6"/><path class="cls-19" d="M1153.2,93.1h-37.8a1.69,1.69,0,0,0-1.7,1.7v17.6a1.69,1.69,0,0,0,1.7,1.7h17l1.9,6.9,1.9-6.9h17a1.69,1.69,0,0,0,1.7-1.7V94.8A1.83,1.83,0,0,0,1153.2,93.1Z"/><line class="cls-25" x1="1120" y1="98.2" x2="1148.6" y2="98.2"/><line class="cls-25" x1="1120" y1="101.8" x2="1148.6" y2="101.8"/><line class="cls-25" x1="1120" y1="105.4" x2="1148.6" y2="105.4"/><line class="cls-25" x1="1120" y1="109" x2="1141.5" y2="109"/><path class="cls-26" d="M138.9,21.7H101.1a1.69,1.69,0,0,0-1.7,1.7V41a1.69,1.69,0,0,0,1.7,1.7h17l1.9,6.9,1.9-6.9h17a1.69,1.69,0,0,0,1.7-1.7V23.4A1.83,1.83,0,0,0,138.9,21.7Z"/><line class="cls-21" x1="105.7" y1="26.8" x2="134.3" y2="26.8"/><line class="cls-21" x1="105.7" y1="30.4" x2="134.3" y2="30.4"/><line class="cls-21" x1="105.7" y1="34" x2="134.3" y2="34"/><line class="cls-21" x1="105.7" y1="37.6" x2="127.2" y2="37.6"/><line class="cls-22" x1="1003.6" y1="141.8" x2="968.3" y2="141.8"/><path class="cls-22" d="M1004.3,158.1s0-16.4-18.3-16.4-18.3,16.4-18.3,16.4"/><circle class="cls-26" cx="1004.3" cy="158.1" r="1.5"/><path class="cls-26" d="M966,158.1a1.5,1.5,0,1,1,1.5,1.5A1.42,1.42,0,0,1,966,158.1Z"/><rect class="cls-26" x="1002.9" y="140.4" width="2.7" height="2.7"/><rect class="cls-26" x="984.6" y="140.4" width="2.7" height="2.7"/><rect class="cls-26" x="966.2" y="140.4" width="2.7" height="2.7"/><path class="cls-26" d="M908.1,92.4V87l-4.1-.4a8.66,8.66,0,0,0-1-2.4l2.6-3.1-3.8-3.8-3.1,2.6a12.23,12.23,0,0,0-2.4-1l-.4-4.1h-5.4l-.4,4.1a8.66,8.66,0,0,0-2.4,1l-3.1-2.6-3.8,3.8,2.6,3.1a12.23,12.23,0,0,0-1,2.4l-4.1.4v5.4l4.1.4a8.66,8.66,0,0,0,1,2.4l-2.6,3.1,3.8,3.8,3.1-2.6a12.23,12.23,0,0,0,2.4,1l.4,4.1h5.4l.4-4.1a8.66,8.66,0,0,0,2.4-1l3.1,2.6,3.8-3.8L903,95.2a12.23,12.23,0,0,0,1-2.4ZM893.2,96a6.3,6.3,0,1,1,6.3-6.3A6.27,6.27,0,0,1,893.2,96Z"/><path class="cls-26" d="M926.5,104.6v-3.7l-2.8-.2A12.2,12.2,0,0,0,923,99l1.8-2.1-2.6-2.6-2.1,1.8a8.65,8.65,0,0,0-1.7-.7l-.2-2.8h-3.7l-.2,2.8a12.2,12.2,0,0,0-1.7.7l-2.1-1.8-2.6,2.6,1.8,2.1a8.65,8.65,0,0,0-.7,1.7l-2.8.2v3.7l2.8.2a12.2,12.2,0,0,0,.7,1.7l-1.8,2.1,2.6,2.6,2.1-1.8a8.65,8.65,0,0,0,1.7.7l.2,2.8h3.7l.2-2.8a12.2,12.2,0,0,0,1.7-.7l2.1,1.8,2.6-2.6-1.8-2.1a8.65,8.65,0,0,0,.7-1.7Zm-10.2,2.5a4.3,4.3,0,1,1,4.3-4.3A4.33,4.33,0,0,1,916.3,107.1Z"/><line class="cls-21" x1="1021.7" y1="176.2" x2="1051.4" y2="176.2"/><line class="cls-21" x1="1021.7" y1="181" x2="1051.4" y2="181"/><line class="cls-21" x1="1021.7" y1="185.8" x2="1038.7" y2="185.8"/><path class="cls-26" d="M982.6,187.8H967a3.8,3.8,0,0,1-3.8-3.8h0a3.8,3.8,0,0,1,3.8-3.8h15.6a3.8,3.8,0,0,1,3.8,3.8h0A3.8,3.8,0,0,1,982.6,187.8Z"/><path class="cls-26" d="M1011.7,187.8H996.1a3.8,3.8,0,0,1-3.8-3.8h0a3.8,3.8,0,0,1,3.8-3.8h15.6a3.8,3.8,0,0,1,3.8,3.8h0A3.68,3.68,0,0,1,1011.7,187.8Z"/><rect class="cls-20" x="1023.9" y="105.6" width="33.2" height="33.2"/><line class="cls-22" x1="1023.9" y1="105.6" x2="1057.1" y2="138.7"/><line class="cls-22" x1="1057.1" y1="105.6" x2="1023.9" y2="138.7"/><polygon class="cls-20" points="1036.9 67.9 1036.9 75.7 1033.5 79.1 1025.7 79.1 1025.7 67.9 1036.9 67.9"/><polygon class="cls-20" points="1036.9 75.7 1033.5 79.1 1033.5 75.7 1036.9 75.7"/><polygon class="cls-20" points="918.3 127.8 918.3 135.5 914.9 138.9 907.2 138.9 907.2 127.8 918.3 127.8"/><polygon class="cls-20" points="918.3 135.5 914.9 138.9 914.9 135.5 918.3 135.5"/><polygon class="cls-27" points="876.2 175.4 876.2 183.2 872.8 186.6 865.1 186.6 865.1 175.4 876.2 175.4"/><polygon class="cls-20" points="876.2 183.2 872.8 186.6 872.8 183.2 876.2 183.2"/></g><g id="Character"><path class="cls-20" d="M1023.7,133.3c-3.9.3-8.9-4.3-8.9-4.3a.9.9,0,0,1-1.4-.2c-.6-.9-3.4-3-3.5-4.9s3.1-4.8,3.1-4.8c-2.5.7-2.8-.8-2.8-.8s4.2-3.5,5.7-3.6c.6,0,3.1,1.4,5.5,3.4s7.3,9.2,7.3,9.2,16.1,11.7,20.2,14.7a103.82,103.82,0,0,1,11.8,11s21.4,9.6,27.3,15l-8,18.9s-19.5-13-21.4-16.4-3.9-1.3-5.8-3.5-3.8-4.6-3.8-4.6a34.84,34.84,0,0,1-9.3-6.7c-4.6-4.7-8.6-11.8-11.1-16.1A25.21,25.21,0,0,0,1023.7,133.3Z"/><path class="cls-20" d="M1024.9,130.5s-5.8-1.4-6.3-5.2a8.77,8.77,0,0,0-1.2-2.7s-5.4-.3-5.1-2.5l7.2-.6a12.47,12.47,0,0,1,6.3,5.3"/><path class="cls-22" d="M1010.2,130a2.5,2.5,0,0,0,.3-1.7s1.7-.3,1.5-1.8c0,0,2.5-.3.9-3.3"/><path class="cls-22" d="M1012,126.5s-3.4-2.5-3.8-3.7"/><path class="cls-22" d="M1010.5,128.3s-3.6-2.2-3.7-3.5"/><path class="cls-22" d="M1011.3,116.9a5.56,5.56,0,0,1-3.1,2.5"/><path class="cls-22" d="M1010.7,117.7a17.08,17.08,0,0,1,1.7,1.1"/><path class="cls-9" d="M1139,182.9a169.06,169.06,0,0,0-25.8-8.6c-13-3-33.9-5.7-33.9-5.7s5.8,58.9,4.3,62.4-10.6,15.4-10.6,15.4,49.4,19.3,58,20.9,4.1-28.2,4.1-28.2S1144.1,201.1,1139,182.9Z"/><path class="cls-20" d="M1121.3,176.6s1.2,2.2-1.9,3.4c-8,3-16.5.3-15.6-2.8.3-1.2,2.3,0,2.2-4.5a5.34,5.34,0,0,0-.5-2,30.11,30.11,0,0,0-2-3.4c-1.4-1.9-2.7-3.4-2.7-3.4s12.7-8.1,22.1,0C1122.8,163.9,1119.3,165.7,1121.3,176.6Z"/><path class="cls-28" d="M1137,281.5c-5,8.1-30.3,12-44.2,11.6s-53.7-19.2-56.4-23.2c-2.5-3.7-8.7-15.9.8-23.3a29.36,29.36,0,0,1,2.6-1.7c6.5-3.5,49.6,7.6,49.6,7.6s2.7-1.7,3.7-1.6c3,.4,5.1,2.8,11.2,4.6,4.3,1.2,15.9-3.5,23.3.6a11.87,11.87,0,0,1,2.3,1.6C1136.9,264.3,1142,273.4,1137,281.5Z"/><g class="cls-29"><path class="cls-30" d="M1127.7,256.1c-7.6-.5-14.4,1.1-19.1,3.9-5.6,3.3-32.1,16.1-32.1,16.1a15.61,15.61,0,0,1,1.5-4.1c-2.5-2.2-9-3.9-9-3.9-5.1-4.3-25.1-17.2-31.6-21.4a29.36,29.36,0,0,1,2.6-1.7c6.5-3.5,49.6,7.6,49.6,7.6s2.7-1.7,3.7-1.6c3,.4,5.1,2.8,11.2,4.6C1108.6,256.7,1120.3,252,1127.7,256.1Z"/></g><path class="cls-22" d="M1137,281.5c-5,8.1-30.3,12-44.2,11.6s-53.7-19.2-56.4-23.2c-2.5-3.7-8.7-15.9.8-23.3a29.36,29.36,0,0,1,2.6-1.7c6.5-3.5,49.6,7.6,49.6,7.6s2.7-1.7,3.7-1.6c3,.4,5.1,2.8,11.2,4.6,4.3,1.2,15.9-3.5,23.3.6a11.87,11.87,0,0,1,2.3,1.6C1136.9,264.3,1142,273.4,1137,281.5Z"/><path class="cls-20" d="M1129.2,288.8l.6,2.8s-1.7,4.8-9.2,5.6-11.9,2.4-15.5,2.7a32,32,0,0,1-5.7-.1l-.7-1.1Z"/><path class="cls-9" d="M1085.9,288.6l12.9,10.1a145.45,145.45,0,0,0,18.5-2.8h0c6.1-1.4,11.5-3.5,11.8-6.2.5-4.2-4.1-5.4-9.5-5.2-1,0-2,.1-3.1.2-8.6.9-19.6-3.8-19.6-3.8Z"/><g class="cls-31"><path class="cls-30" d="M1129.1,289.6a43.61,43.61,0,0,0-7.2,3.5s-12,6.2-30.5-.2l-5.6-4.4,11.1-7.7s10.9,4.8,19.6,3.8c1-.1,2.1-.2,3.1-.2C1125,284.3,1129.5,285.4,1129.1,289.6Z"/></g><path class="cls-22" d="M1085.9,288.6l12.9,10.1a145.45,145.45,0,0,0,18.5-2.8h0c6.1-1.4,11.5-3.5,11.8-6.2.5-4.2-4.1-5.4-9.5-5.2-1,0-2,.1-3.1.2-8.6.9-19.6-3.8-19.6-3.8Z"/><path class="cls-32" d="M1097.9,292.5c-2.3.4.2,5.1,3.4,3.7S1100.3,292.2,1097.9,292.5Z"/><g class="cls-33"><path class="cls-34" d="M1102.3,295.5a48,48,0,0,1-5-.9c-.5-.9-.3-1.9.6-2.1C1099.9,292.2,1103.2,294,1102.3,295.5Z"/></g><path class="cls-22" d="M1097.9,292.5c-2.3.4.2,5.1,3.4,3.7S1100.3,292.2,1097.9,292.5Z"/><path class="cls-32" d="M1117.4,295.9c6.1-1.4,11.5-3.5,11.8-6.2.5-4.2-4.1-5.4-9.5-5.2C1119.4,284.7,1114.2,289.7,1117.4,295.9Z"/><g class="cls-35"><path class="cls-30" d="M1129.1,289.6a43.61,43.61,0,0,0-7.2,3.5,26.39,26.39,0,0,1-5.1,1.7c-2.1-5.7,2.6-10.2,2.8-10.4C1125,284.3,1129.5,285.4,1129.1,289.6Z"/></g><path class="cls-22" d="M1117.4,295.9c6.1-1.4,11.5-3.5,11.8-6.2.5-4.2-4.1-5.4-9.5-5.2C1119.4,284.7,1114.2,289.7,1117.4,295.9Z"/><path class="cls-20" d="M1113,290.7h0a.67.67,0,0,0,.7-.6c.1-2.7,2.2-4.8,2.2-4.9a.64.64,0,0,0-.9-.9,9.94,9.94,0,0,0-2.6,5.7A.86.86,0,0,0,1113,290.7Z"/><path class="cls-20" d="M1110.4,290.8h0a.67.67,0,0,0,.7-.6,9.6,9.6,0,0,1,2-5.1.64.64,0,1,0-1-.8,10.11,10.11,0,0,0-2.2,5.8A.54.54,0,0,0,1110.4,290.8Z"/><path class="cls-20" d="M1107.4,290.5h0c.4,0,.7-.2.7-.6a14.4,14.4,0,0,1,2.1-5.1.65.65,0,1,0-1.1-.7,14.62,14.62,0,0,0-2.3,5.7A.66.66,0,0,0,1107.4,290.5Z"/><path class="cls-20" d="M1104.5,290.2h.2c.3-.1.6-.4.5-.7-.5-2.7,2.1-5,2.1-5.1a.64.64,0,0,0-.9-.9c-.1.1-3.1,2.8-2.5,6.2C1104,289.9,1104.2,290.2,1104.5,290.2Z"/><path class="cls-20" d="M1101.3,289.4h.2a.69.69,0,0,0,.5-.8c-.6-2.4,1.8-5.2,1.9-5.2a.64.64,0,1,0-1-.8c-.1.1-2.8,3.3-2.1,6.3A.54.54,0,0,0,1101.3,289.4Z"/><path class="cls-20" d="M1034.8,284.7l-.9,2.7s1.2,5,8.5,6.5,11.6,3.7,15.1,4.3a29.43,29.43,0,0,0,5.7.5l.8-1Z"/><path class="cls-9" d="M1077.9,288.9l-13.9,8.7a137.56,137.56,0,0,1-18.1-4.7h0c-5.9-2.1-11.1-4.6-11.1-7.4,0-4.3,4.6-4.9,10-4.2,1,.1,2,.3,3,.5,8.5,1.8,19.9-1.8,19.9-1.8Z"/><g class="cls-36"><path class="cls-30" d="M1077.9,288.9l-8.2,5.1a32.87,32.87,0,0,1-16.6-11.7,55.8,55.8,0,0,0,14.6-2.3Z"/></g><path class="cls-22" d="M1077.9,288.9l-13.9,8.7a137.56,137.56,0,0,1-18.1-4.7h0c-5.9-2.1-11.1-4.6-11.1-7.4,0-4.3,4.6-4.9,10-4.2,1,.1,2,.3,3,.5,8.5,1.8,19.9-1.8,19.9-1.8Z"/><path class="cls-20" d="M1045.9,293c-5.9-2.1-11.1-4.6-11.1-7.4,0-4.3,4.6-4.9,10-4.2C1045,281.6,1049.7,287.1,1045.9,293Z"/><path class="cls-20" d="M1050.8,288.2h0a.56.56,0,0,1-.6-.7,8.36,8.36,0,0,0-1.7-5.1.64.64,0,0,1,1-.8,9.72,9.72,0,0,1,1.9,5.9A.67.67,0,0,1,1050.8,288.2Z"/><path class="cls-20" d="M1053.3,288.6h0a.56.56,0,0,1-.6-.7,9.65,9.65,0,0,0-1.4-5.2.65.65,0,1,1,1.1-.7,10.09,10.09,0,0,1,1.6,6A.73.73,0,0,1,1053.3,288.6Z"/><path class="cls-20" d="M1056.4,288.6h0a.58.58,0,0,1-.6-.6,14.9,14.9,0,0,0-1.6-5.3.67.67,0,0,1,1.2-.6,13.84,13.84,0,0,1,1.7,6A.94.94,0,0,1,1056.4,288.6Z"/><path class="cls-20" d="M1059.3,288.6h-.2a.68.68,0,0,1-.4-.8c.7-2.7-1.5-5.2-1.6-5.3a.64.64,0,1,1,.9-.9c.1.1,2.8,3.1,1.8,6.5A.47.47,0,0,1,1059.3,288.6Z"/><path class="cls-20" d="M1062.5,288.2h-.2a.68.68,0,0,1-.4-.8c.8-2.4-1.3-5.3-1.3-5.4a.65.65,0,1,1,1.1-.7c.1.1,2.5,3.5,1.5,6.5A1,1,0,0,1,1062.5,288.2Z"/><path class="cls-20" d="M1065.5,291.7c2.3.6-.8,5.1-3.8,3.3S1063.3,291,1065.5,291.7Z"/><path class="cls-26" d="M1039.2,267.9c3.4,4.8,13.6,10.1,23.7,14.4a48.67,48.67,0,0,0,6.3,8.3c6.2,6.4,8.7,2.8,8.7,2.8s3.9-.4,9.7-1.2a2.75,2.75,0,0,0,2.9,1.6c.8-.1,2.2-1.2,3.8-2.6,14.6-2.2,34.5-5.9,39.9-10.2"/><path class="cls-22" d="M1128.6,258.8c-2.5-2.8-5.1-2.9-10.4-2.5,0,0-13.9,4.4-23.5,10.3s-23.8,12-23.8,12-4.3-1.2-7.3,0c0,0-2.1.2-.7,3.8"/><path class="cls-22" d="M1135,275.5s.1,4.3-6,7.3"/><path class="cls-22" d="M1067.9,257.6s9.6,6.9,11.5,11.5a46.86,46.86,0,0,1,5.5,2.8"/><path class="cls-22" d="M1080.2,263.3a10.94,10.94,0,0,1,.3,6.2"/><path class="cls-22" d="M1077.9,258.8c.5.8,1,1.6,1.4,2.4"/><path class="cls-22" d="M1091.6,258.2s3.2,4.3,4,7.8"/><path class="cls-22" d="M1109.5,284.1c1.2-.1,2.4-.2,3.6-.4"/><path class="cls-22" d="M1079.4,281.1a167.81,167.81,0,0,0,27.6,3.2"/><path class="cls-20" d="M1144.3,216s-1.7,30.2-3.8,32-5.3,2.3-11.4,2.8S1096,253,1096,253l-2.9-8.7s14.4-1.5,20.7-3.8a117.84,117.84,0,0,1,14.7-3.9,105.49,105.49,0,0,1-1.2-10.9V210.3"/><path class="cls-9" d="M1139,182.9c6.6,4.1,8.5,13.4,6.2,33.4,0,0,1.9,2.4-.9,3.5,0,0-10.7-4-15.8-1.3s-3.7-3.8-3.7-3.8-2.1-18.4,2.5-21.7"/><path class="cls-17" d="M1126.8,190.3s-6.3,6.6-.8,23.2a26.62,26.62,0,0,0-.8,4.1c0,1.1,1.5,1.7,1.5,1.7"/><path class="cls-17" d="M1119.4,201.4s.5,8.1,5.5,11.6"/><path class="cls-17" d="M1121,182.5s-9.8,3.8-17.6-.4c-4.6-2.5-2.7-6.4-2.7-6.4"/><path class="cls-37" d="M1050.5,258.8h53.4a14.87,14.87,0,0,0,3.6-.5l10.5-2.8a.67.67,0,0,0,.5-.7h0a.68.68,0,0,0-.7-.7h-69.5a.68.68,0,0,0-.7.7v1A2.93,2.93,0,0,0,1050.5,258.8Z"/><path class="cls-38" d="M1045.2,256.2h53.5a1.34,1.34,0,0,0,1.3-1.7l-9.9-38.6a2.35,2.35,0,0,0-2.1-1.7h-53.5a1.34,1.34,0,0,0-1.3,1.7l9.9,38.6A2.25,2.25,0,0,0,1045.2,256.2Z"/><line class="cls-22" x1="1036.2" y1="215.5" x2="1035.2" y2="215.5"/><line class="cls-22" x1="1044.1" y1="215.5" x2="1038.8" y2="215.5"/><path class="cls-22" d="M1097.4,251.3l-8.8-34.1a2.35,2.35,0,0,0-2.1-1.7h-41.3"/><line class="cls-22" x1="1098.2" y1="254.3" x2="1098" y2="253.4"/><path class="cls-20" d="M1061.3,236.1a2.92,2.92,0,0,0,.2.9,4.3,4.3,0,0,0,4.9,3.2,4.15,4.15,0,0,0,2.4-5.3,4.3,4.3,0,0,0-4.9-3.2c-.2.1-.5.2-.7.3A4.24,4.24,0,0,1,1061.3,236.1Z"/><path class="cls-9" d="M1084.9,163.7c-4.6-.5-7.2-4.9-9.9-5.6a30.91,30.91,0,0,1-4.6-1.5s-1-3.4-2.4-2.2-3.3,26.2-1.5,25.4,1.9,2.2,1.9,2.2l17.2,15.2,14.4-25.5S1089.5,164.3,1084.9,163.7Z"/><polyline class="cls-22" points="935 71.6 935 71.2 935.4 71.2"/><line class="cls-39" x1="937.8" y1="71.2" x2="1004.7" y2="71.2"/><polyline class="cls-22" points="1005.9 71.2 1006.3 71.2 1006.3 71.6"/><line class="cls-40" x1="1006.3" y1="73.9" x2="1006.3" y2="117.1"/><polyline class="cls-22" points="1006.3 118.3 1006.3 118.7 1005.9 118.7"/><line class="cls-39" x1="1003.6" y1="118.7" x2="936.6" y2="118.7"/><polyline class="cls-22" points="935.4 118.7 935 118.7 935 118.3"/><line class="cls-40" x1="935" y1="115.9" x2="935" y2="72.8"/><circle class="cls-26" cx="970.7" cy="71.2" r="1.2"/><circle class="cls-26" cx="935" cy="94.9" r="1.2"/><circle class="cls-26" cx="970.7" cy="118.7" r="1.2"/><circle class="cls-26" cx="1006.3" cy="94.9" r="1.2"/><rect class="cls-26" x="1004.9" y="117.3" width="2.7" height="2.7"/><rect class="cls-26" x="1004.9" y="69.8" width="2.7" height="2.7"/><rect class="cls-26" x="933.7" y="117.3" width="2.7" height="2.7"/><rect class="cls-26" x="933.7" y="69.8" width="2.7" height="2.7"/><rect class="cls-20" x="939.8" y="75.4" width="62" height="39.4"/><polygon class="cls-26" points="1001.8 103.1 994.9 110 976.2 91.4 968.4 99.2 955.9 86.7 939.8 102.8 939.8 114.8 1001.8 114.8 1001.8 103.1"/><circle class="cls-26" cx="988.9" cy="86.6" r="4.4"/><path class="cls-17" d="M1088,170.5s-4.4,8.2-4.9,20.9"/><path class="cls-17" d="M1075,176.2s1.3,7,5.2,12.1"/><path class="cls-17" d="M1093.2,205.2s6.6,21.8,21.1,28.2"/><path class="cls-9" d="M1110.6,165.7s-.6,4.8-5.2,5.1a30.11,30.11,0,0,0-2-3.4A57.78,57.78,0,0,1,1110.6,165.7Z"/><path class="cls-20" d="M1120.4,166s7.7.9,10.9-9.3.7-18-12-21.7c-7-2.1-14.1-.4-16.6,4.9-2.2,4.6-1.1,8.3-1.6,9.9s-5.7,3.2-5.7,4.3,2.9,2.6,2.9,2.6l-.8,2.5.8.4s-1.5,5.8-.8,7.8c.5,1.5,13.5,2.1,14.5-1.6"/><path class="cls-22" d="M1102.7,143.6s2.5.6,3.2,2"/><path class="cls-9" d="M1103.2,149.4c-.1.7.1,1.4.4,1.4s.7-.5.8-1.3-.1-1.4-.4-1.4S1103.3,148.6,1103.2,149.4Z"/><path class="cls-22" d="M1098.1,159.6s4.1,1.6,5.7.6"/><path class="cls-22" d="M1099.6,148.8c-.3,1.6.1,3.1.8,3.2s1.6-1.1,1.9-2.7-.1-3.1-.8-3.2S1099.9,147.2,1099.6,148.8Z"/><path class="cls-9" d="M1131.6,140.4a12.17,12.17,0,0,0-4.8-7.4,22.83,22.83,0,0,0-9.3-3.8,10.27,10.27,0,0,1,3.4,2.5s-6.3-4.7-13.8-1.6-6.6,11.2-6.6,11.2l1.1-2.1s-.1,2.5,1.2,3.5a17.09,17.09,0,0,1,1.6-3.5s2,6,7.5,8a4.46,4.46,0,0,1-.1-3s3,6.6,2.2,9.8l1,1.7s3.5-3.5,6.3-.6c1.6,1.7-3.1,8.1-3.8,8.1l2.9,4.2s7.2,1,11.3-6.7,3.1-11.1,3.1-11.1a8.91,8.91,0,0,1,1.5,3C1136.2,152.5,1137.4,144.1,1131.6,140.4Z"/><path class="cls-20" d="M1114.7,156.3s2.2-7.4,6.9-4.8,1.3,6.6-.3,8.1-3,4.3-4.1,4.3-1.4-1.4-1.4-1.4"/><line class="cls-22" x1="1102.3" y1="149.3" x2="1115.5" y2="152"/></g></g></g></g></svg>