<?xml version="1.0" encoding="utf-8"?>
<!-- Generator: Adobe Illustrator 26.0.2, SVG Export Plug-In . SVG Version: 6.00 Build 0)  -->
<svg version="1.1" id="Layer_1" xmlns="http://www.w3.org/2000/svg" xmlns:xlink="http://www.w3.org/1999/xlink" x="0px" y="0px"
	 viewBox="0 0 1245 300" style="enable-background:new 0 0 1245 300;" xml:space="preserve">
<style type="text/css">
	.st0{clip-path:url(#SVGID_00000062877323350532626600000013632504223203575680_);}
	.st1{fill:url(#SVGID_00000049187594543745562870000012843147587552239023_);}
	.st2{fill:#CDE3FD;}
	.st3{fill:#230C1E;}
	.st4{fill:#070463;}
	.st5{fill:#DCF4FF;}
	.st6{fill:#21111D;}
	.st7{opacity:0.6;}
	.st8{fill:#9BC1F9;}
	.st9{opacity:0.3;}
	.st10{fill:#D4EEF4;}
	.st11{fill:#EBFAFC;}
	.st12{fill:#2727AD;}
	.st13{fill:#FFFFFF;}
	.st14{fill:#3C59C6;}
	.st15{fill:#223749;}
	.st16{fill:#514DD6;}
	.st17{opacity:0.5;}
	.st18{fill:#CAFBFF;}
	.st19{fill:#F3FFFE;}
	.st20{fill:#F99746;}
	.st21{fill:#ED7D2B;}
	.st22{fill:#233862;}
	.st23{fill:#FFB27D;}
	.st24{fill:#163560;}
	.st25{fill:#2A4E96;}
	.st26{fill:#F9DDBF;}
	.st27{fill:#F4A269;}
	.st28{fill:#2E3552;}
	.st29{fill:#9EC3F6;}
</style>
<g id="Layer_2_00000026130873368936404690000001228107089521601979_">
	<g id="Слой_1">
		<g>
			<defs>
				<rect id="SVGID_1_" width="1245" height="300"/>
			</defs>
			<clipPath id="SVGID_00000004524951841740918960000015840753642116230310_">
				<use xlink:href="#SVGID_1_"  style="overflow:visible;"/>
			</clipPath>
			<g style="clip-path:url(#SVGID_00000004524951841740918960000015840753642116230310_);">
				
					<radialGradient id="SVGID_00000098943219950753774400000012745785332442962861_" cx="1771.1083" cy="495.4789" r="700.62" gradientTransform="matrix(-0.76 0.55 0.47 0.5 2099.1372 -1465.67)" gradientUnits="userSpaceOnUse">
					<stop  offset="0" style="stop-color:#73D7FF"/>
					<stop  offset="1" style="stop-color:#002BC6"/>
				</radialGradient>
				<rect style="fill:url(#SVGID_00000098943219950753774400000012745785332442962861_);" width="1245" height="300"/>
				<path class="st2" d="M894.7,56.8L883.9,55h-0.3c-1.3-0.2-2.6,0.6-3,1.9l-2.5,8.8c0,0.2-0.1,0.3-0.2,0.4
					c-0.5,0.9-1.4,1.5-2.4,1.5c-6.1-0.3-12.2,0.7-17.9,2.8c-0.2,0.1-0.5,0.1-0.7,0.2c-0.9,0-1.8-0.4-2.4-1.1l-4.3-6.4
					c-0.6-0.8-1.5-1.2-2.5-1.1c-0.3,0-0.6,0.1-0.9,0.3l-9.9,5.2c-1.2,0.6-1.8,2.1-1.2,3.4l4,9.4c0.4,0.9,0.2,2-0.5,2.7
					c-1,1.1-1.9,2.2-2.7,3.4c-1.6,2.2-3,4.6-4.2,7l0,0c-0.5,1-1.5,1.6-2.6,1.5L819.4,94h-0.5c-1.3-0.1-2.5,0.8-2.8,2.1l-1.9,11.1
					c-0.2,1.3,0.6,2.6,1.9,3l9.8,2.8c1.1,0.3,1.9,1.3,1.9,2.4c0.2,4.8,1.2,9.5,2.9,13.9c0.4,1.1,0,2.4-1,3.1l-7.5,5.1
					c-1.1,0.8-1.5,2.3-0.9,3.5l5.3,10c0.6,1.2,2.1,1.7,3.3,1.2l11-4.7c0.9-0.4,2-0.2,2.8,0.4c0.9,0.8,1.9,1.6,3,2.4
					c1.9,1.4,3.9,2.6,6,3.7c0.9,0.5,1.5,1.5,1.4,2.5l-1.1,12.4c-0.1,1.4,0.8,2.6,2.2,2.8l11.1,1.9c1.2,0.2,2.3-0.4,2.8-1.5
					c0-0.1,0.1-0.2,0.1-0.4l3.1-10.9c0.3-1,1.1-1.8,2.2-1.9h1.1c3.3-0.1,6.5-0.7,9.7-1.5c1.1-0.3,2.2,0.1,2.8,1.1l5.4,7.9
					c0.8,1.1,2.3,1.5,3.5,0.9l2.2-1.2l7.7-4.1c1.2-0.7,1.7-2.1,1.2-3.4l-3.9-9.2c-0.4-1-0.2-2.1,0.6-2.9c3.7-3.5,6.8-7.5,9.1-12
					l2.2,0.2l8.9,0.7c1.1,0.1,2.1-0.5,2.6-1.5c0.1-0.2,0.2-0.4,0.2-0.6l1.9-11.2c0.2-1.3-0.6-2.6-1.9-3l-6.7-1.9
					c-1.1-0.4-1.9-1.4-1.9-2.6c0.2-4.9-0.4-9.7-1.8-14.4c-0.3-1.1,0.1-2.2,1-2.9l9.5-6.4c1.1-0.7,1.4-2.2,0.8-3.3l-5.3-10.1
					c-0.6-1.2-2.1-1.7-3.3-1.2l-11.5,4.9c-1,0.4-2.1,0.2-2.9-0.6c-1.7-1.7-3.5-3.2-5.4-4.6c-1-0.8-2.1-1.5-3.2-2.1
					c-0.8-0.6-1.3-1.5-1.3-2.5l1-11.9C896.9,58.2,896,57,894.7,56.8z M855.3,96.4c2.2-2.4,4.8-4.3,7.6-5.9c0.7-0.4,1.4-0.7,2.2-1
					c3.6-1.3,7.5-1.7,11.3-1.2c24.4,4.3,29.5,34.6,8.3,46.8c-0.4,0.2-0.7,0.4-1.1,0.6c-4.1,1.9-8.6,2.6-13,2.1
					c-1.9-0.3-3.7-0.8-5.5-1.5c-12.8-4.7-19.4-18.9-14.8-31.7C851.4,101.6,853.1,98.8,855.3,96.4z"/>
				<rect x="995.4" y="205.2" class="st3" width="44.6" height="93.4"/>
				<path class="st3" d="M1152,239.2v-128c0-6.1-4.9-11-11-11H892.9c-6.1,0-11,4.9-11,11v128H1152z"/>
				<path class="st4" d="M881.9,239.2v20.5c0,4.3,2.8,7.7,6.3,7.7h257.5c3.5,0,6.3-3.5,6.3-7.7v-20.5H881.9z"/>
				<path class="st5" d="M1145.7,233.6v-122c-0.1-3.3-2.7-5.9-6-5.8H894.2c-3.3-0.1-5.9,2.5-6,5.8v122.1L1145.7,233.6L1145.7,233.6z
					"/>
				<path class="st4" d="M1078,301.3c0.8-3.5-1.4-7-4.9-7.8c-0.6-0.1-1.1-0.2-1.7-0.2H964.1c-4.6,0.2-8.5,3.5-9.4,8H1078z"/>
				<path class="st6" d="M1145.7,267.7H888.2c-3.7,0-6.6-3.6-6.6-8V111.2c0-6.2,5.1-11.3,11.3-11.3v0.6c-5.9,0-10.7,4.8-10.7,10.7
					v148.5c0,4.1,2.7,7.4,6,7.4h257.5V267.7z"/>
				
					<rect x="1105.2" y="249.6" transform="matrix(0.583 -0.8125 0.8125 0.583 260.0747 1006.4142)" class="st6" width="10.5" height="0.6"/>
				
					<rect x="1105.2" y="253.8" transform="matrix(0.5937 -0.8047 0.8047 0.5937 246.7027 996.7509)" class="st6" width="10.3" height="0.6"/>
				
					<rect x="1004.6" y="271.8" transform="matrix(0.4962 -0.8682 0.8682 0.4962 271.4244 1011.9491)" class="st6" width="6.2" height="0.6"/>
				
					<rect x="1005.3" y="275.2" transform="matrix(0.506 -0.8625 0.8625 0.506 260.3016 1005.522)" class="st6" width="5.5" height="0.6"/>
				<path class="st6" d="M1146,233.9H888.2v-0.6h257.1V111.6c0-3.1-2.6-5.5-5.7-5.5c0,0,0,0,0,0v-0.6c3.4-0.1,6.2,2.6,6.3,6
					c0,0,0,0,0,0.1L1146,233.9L1146,233.9z"/>
				<g class="st7">
					<rect x="966.1" y="150.8" class="st8" width="11" height="73.5"/>
				</g>
				<g class="st7">
					<rect x="950.7" y="165.1" class="st8" width="11" height="59.2"/>
				</g>
				<g class="st7">
					<rect x="979.8" y="157.6" class="st8" width="11" height="66.8"/>
				</g>
				<g class="st7">
					<rect x="935.3" y="154.9" class="st8" width="11" height="69.4"/>
				</g>
				<g class="st7">
					<rect x="919.9" y="175.5" class="st8" width="11" height="48.8"/>
				</g>
				<g class="st9">
					<rect x="966.1" y="158.7" class="st8" width="11" height="65.6"/>
				</g>
				<g class="st9">
					<rect x="950.7" y="178.7" class="st8" width="11" height="45.6"/>
				</g>
				<g class="st9">
					<rect x="979.8" y="172.9" class="st8" width="11" height="51.4"/>
				</g>
				<g class="st9">
					<rect x="935.3" y="170.9" class="st8" width="11" height="53.4"/>
				</g>
				<g class="st9">
					<rect x="919.9" y="186.8" class="st8" width="11" height="37.6"/>
				</g>
				<rect x="1018.5" y="121.4" class="st5" width="115.1" height="96.6"/>
				<rect x="1023.3" y="126.6" class="st10" width="91.2" height="4.6"/>
				<rect x="1023.3" y="150.8" class="st11" width="105.3" height="62"/>
				
					<ellipse transform="matrix(0.3827 -0.9239 0.9239 0.3827 571.9458 1113.6569)" class="st10" cx="1119.3" cy="128.8" rx="2.3" ry="2.3"/>
				
					<ellipse transform="matrix(0.3827 -0.9239 0.9239 0.3827 576.3403 1120.1165)" class="st10" cx="1126.4" cy="128.8" rx="2.3" ry="2.3"/>
				<rect x="1043.1" y="139.1" class="st10" width="82.3" height="1.6"/>
				<rect x="1043.1" y="144.2" class="st10" width="82.3" height="1.6"/>
				<path class="st10" d="M1092.1,156.3h-65c-0.4,0-0.7-0.3-0.7-0.7c0,0,0,0,0,0l0,0c0-0.4,0.3-0.7,0.7-0.7c0,0,0,0,0,0h65
					c0.4,0,0.7,0.3,0.7,0.7c0,0,0,0,0,0l0,0C1092.8,156,1092.5,156.3,1092.1,156.3C1092.1,156.3,1092.1,156.3,1092.1,156.3z"/>
				<path class="st10" d="M1092.1,160.7h-65c-0.4,0-0.7-0.3-0.7-0.7c0,0,0,0,0,0l0,0c0-0.4,0.3-0.7,0.7-0.7c0,0,0,0,0,0h65
					c0.4,0,0.7,0.3,0.7,0.7c0,0,0,0,0,0l0,0C1092.8,160.4,1092.5,160.7,1092.1,160.7C1092.1,160.7,1092.1,160.7,1092.1,160.7z"/>
				<path class="st10" d="M1092.1,165.1h-65c-0.4,0-0.7-0.3-0.7-0.7c0,0,0,0,0,0l0,0c0-0.4,0.3-0.7,0.7-0.7c0,0,0,0,0,0h65
					c0.4,0,0.7,0.3,0.7,0.7c0,0,0,0,0,0l0,0C1092.8,164.8,1092.5,165.1,1092.1,165.1C1092.1,165.1,1092.1,165.1,1092.1,165.1z"/>
				<path class="st10" d="M1092.1,173.9h-65c-0.4,0-0.7-0.3-0.7-0.7c0,0,0,0,0,0l0,0c0-0.4,0.3-0.7,0.7-0.7c0,0,0,0,0,0h65
					c0.4,0,0.7,0.3,0.7,0.7c0,0,0,0,0,0l0,0C1092.8,173.6,1092.5,173.9,1092.1,173.9C1092.1,173.9,1092.1,173.9,1092.1,173.9z"/>
				<path class="st10" d="M1092.1,178.3h-65c-0.4,0-0.7-0.3-0.7-0.7c0,0,0,0,0,0l0,0c0-0.4,0.3-0.7,0.7-0.7c0,0,0,0,0,0h65
					c0.4,0,0.7,0.3,0.7,0.7c0,0,0,0,0,0l0,0C1092.8,178,1092.5,178.3,1092.1,178.3C1092.1,178.3,1092.1,178.3,1092.1,178.3z"/>
				<path class="st10" d="M1092.1,182.7h-65c-0.4,0-0.7-0.3-0.7-0.7c0,0,0,0,0,0l0,0c0-0.4,0.3-0.7,0.7-0.7c0,0,0,0,0,0h65
					c0.4,0,0.7,0.3,0.7,0.7c0,0,0,0,0,0l0,0C1092.8,182.4,1092.5,182.7,1092.1,182.7C1092.1,182.7,1092.1,182.7,1092.1,182.7z"/>
				<path class="st10" d="M1092.1,191.6h-65c-0.4,0-0.7-0.3-0.7-0.7c0,0,0,0,0,0l0,0c0-0.4,0.3-0.7,0.7-0.7c0,0,0,0,0,0h65
					c0.4,0,0.7,0.3,0.7,0.7c0,0,0,0,0,0l0,0C1092.8,191.3,1092.5,191.6,1092.1,191.6z"/>
				<path class="st10" d="M1092.1,196h-65c-0.4,0-0.7-0.3-0.7-0.7c0,0,0,0,0,0l0,0c0-0.4,0.3-0.7,0.7-0.7c0,0,0,0,0,0h65
					c0.4,0,0.7,0.3,0.7,0.7c0,0,0,0,0,0l0,0C1092.8,195.7,1092.5,196,1092.1,196z"/>
				<rect x="1097" y="154.8" class="st10" width="27.7" height="24.8"/>
				<rect x="1097" y="186.2" class="st10" width="27.7" height="9.8"/>
				<polygon class="st10" points="1122.7,173.9 1118,166.1 1111.1,169.1 1106.4,159.2 1099.4,173.9 				"/>
				
					<ellipse transform="matrix(0.9732 -0.2299 0.2299 0.9732 -7.2628 260.49)" class="st10" cx="1114.4" cy="161.4" rx="2.1" ry="2.1"/>
				<g class="st7">
					<path class="st12" d="M1018.6,118.3v3.1h115.1v-3.1c0-1.7-1.4-3.1-3.1-3.1h-108.9C1020,115.2,1018.6,116.6,1018.6,118.3z"/>
				</g>
				<g class="st7">
					<path class="st12" d="M1133.6,220.5v-3.1h-115.1v3.1c0,1.7,1.4,3.1,3.1,3.1h108.9c1.7,0,3.1-1.3,3.1-3
						C1133.6,220.6,1133.6,220.5,1133.6,220.5z"/>
				</g>
				<path class="st10" d="M1129.1,118.3c0,0.6,0.5,1.1,1.1,1.1c0.6,0,1.1-0.5,1.1-1.1s-0.5-1.1-1.1-1.1l0,0
					C1129.6,117.2,1129.1,117.7,1129.1,118.3z"/>
				<path class="st10" d="M1124.8,118.3c0,0.6,0.5,1.1,1.1,1.1c0.6,0,1.1-0.5,1.1-1.1s-0.5-1.1-1.1-1.1l0,0
					C1125.3,117.2,1124.8,117.7,1124.8,118.3z"/>
				<circle class="st10" cx="1121.8" cy="118.3" r="1.1"/>
				<polygon class="st13" points="1073.2,78.9 1073.2,169.5 1005.7,169.5 1005.7,93.8 1020.3,78.9 				"/>
				<polygon class="st14" points="1005.7,93.9 1020.2,78.9 1020.2,93.9 				"/>
				<path class="st14" d="M1026.8,90.2h29.4c0.4,0,0.8-0.3,0.8-0.8c0,0,0,0,0,0l0,0c0-0.4-0.3-0.8-0.8-0.8c0,0,0,0,0,0h-29.4
					c-0.4,0-0.8,0.3-0.8,0.8c0,0,0,0,0,0l0,0c0,0.4,0.3,0.8,0.7,0.8C1026.7,90.2,1026.8,90.2,1026.8,90.2z"/>
				<path class="st14" d="M1022.7,96.1h37.5c0.4,0,0.8-0.3,0.8-0.8c0,0,0,0,0,0l0,0c0-0.4-0.3-0.8-0.8-0.8c0,0,0,0,0,0h-37.5
					c-0.4,0-0.8,0.3-0.8,0.8c0,0,0,0,0,0l0,0C1022,95.8,1022.3,96.1,1022.7,96.1z"/>
				<path class="st14" d="M1012.8,110.3h54.3c0.4,0,0.8-0.3,0.8-0.8c0,0,0,0,0,0l0,0c0-0.4-0.3-0.8-0.8-0.8c0,0,0,0,0,0h-54.3
					c-0.4,0-0.8,0.3-0.8,0.8c0,0,0,0,0,0l0,0C1012,109.9,1012.4,110.3,1012.8,110.3z"/>
				<path class="st14" d="M1012.8,117h54.3c0.4,0,0.8-0.3,0.8-0.8c0,0,0,0,0,0l0,0c0-0.4-0.3-0.8-0.8-0.8c0,0,0,0,0,0h-54.3
					c-0.4,0-0.8,0.3-0.8,0.8c0,0,0,0,0,0l0,0C1012,116.6,1012.4,117,1012.8,117z"/>
				<path class="st14" d="M1012.8,123.6h54.3c0.4,0,0.8-0.3,0.8-0.8c0,0,0,0,0,0l0,0c0-0.4-0.3-0.8-0.8-0.8c0,0,0,0,0,0h-54.3
					c-0.4,0-0.8,0.3-0.8,0.8c0,0,0,0,0,0l0,0C1012,123.2,1012.3,123.6,1012.8,123.6C1012.8,123.6,1012.8,123.6,1012.8,123.6z"/>
				<path class="st14" d="M1012.8,131.3h54.3c0.4,0,0.8-0.3,0.8-0.8c0,0,0,0,0,0l0,0c0-0.4-0.3-0.8-0.8-0.8c0,0,0,0,0,0h-54.3
					c-0.4,0-0.8,0.3-0.8,0.8c0,0,0,0,0,0l0,0C1012,130.9,1012.4,131.3,1012.8,131.3z"/>
				<path class="st14" d="M1012.8,138h54.3c0.4,0,0.8-0.3,0.8-0.8c0,0,0,0,0,0l0,0c0-0.4-0.3-0.8-0.8-0.8c0,0,0,0,0,0h-54.3
					c-0.4,0-0.8,0.3-0.8,0.8c0,0,0,0,0,0l0,0C1012,137.6,1012.4,138,1012.8,138z"/>
				<path class="st14" d="M1012.8,160.9h54.3c0.4,0,0.8-0.3,0.8-0.8c0,0,0,0,0,0l0,0c0-0.4-0.3-0.8-0.8-0.8c0,0,0,0,0,0h-54.3
					c-0.4,0-0.8,0.3-0.8,0.8c0,0,0,0,0,0l0,0C1012,160.5,1012.3,160.9,1012.8,160.9C1012.8,160.9,1012.8,160.9,1012.8,160.9z"/>
				<path class="st14" d="M1012.8,155.5h54.3c0.4,0,0.8-0.3,0.8-0.8c0,0,0,0,0,0l0,0c0-0.4-0.3-0.8-0.8-0.8c0,0,0,0,0,0h-54.3
					c-0.4,0-0.8,0.3-0.8,0.8c0,0,0,0,0,0l0,0C1012,155.1,1012.4,155.5,1012.8,155.5z"/>
				<path class="st15" d="M1113.9,119l5.4-6.7l0.4-0.4l5.4-6.7l80.1,55.7c2.2,1.5,2.7,4.5,1.2,6.6c-0.1,0.1-0.1,0.2-0.2,0.3
					l-13.7,17c-1.6,2-4.6,2.4-6.7,0.7c-0.1-0.1-0.2-0.1-0.2-0.2L1113.9,119z"/>
				<path class="st16" d="M1115,121l12.2-15.2c1-1.3,0.8-3.1-0.4-4.1l-7.4-5.9l-15.9,19.8l7.4,5.9C1112.2,122.5,1114,122.3,1115,121
					C1115,121,1115,121,1115,121z"/>
				<path class="st6" d="M1118.2,117.6l8.7-10.8c1.5-1.9,1.2-4.7-0.7-6.2l-6.5-5.3l-0.5,0.7l6.5,5.3c1.5,1.2,1.8,3.4,0.5,4.9
					c0,0,0,0,0,0.1l-8.7,10.8L1118.2,117.6z"/>
				<g class="st17">
					<path class="st18" d="M1045.8,112.2c20,16.1,49.2,12.9,65.2-7.1c2.3-2.8,4.2-5.9,5.8-9.2c7.7-15.8,5.7-34.6-5.3-48.4
						c-15.7-20.3-44.9-24-65.1-8.3s-24,44.9-8.3,65.1C1040.3,107.3,1042.9,109.9,1045.8,112.2z"/>
				</g>
				<g class="st17">
					
						<ellipse transform="matrix(0.9941 -0.1082 0.1082 0.9941 -2.3472 113.5825)" class="st19" cx="1045.8" cy="78.4" rx="8.3" ry="17.4"/>
				</g>
				
					<rect x="1166.1" y="85.7" transform="matrix(0.5694 -0.822 0.822 0.5694 391.9898 1016.6813)" class="st6" width="0.8" height="96.9"/>
				<path class="st6" d="M1070.8,36v-0.8c-0.1,0-10.7-0.1-18.6,6.3l0.5,0.7C1060.4,35.9,1070.6,36,1070.8,36z"/>
				<path class="st6" d="M1073.1,41.4v-0.8c-0.1,0-10.7-0.1-18.6,6.3l0.5,0.7C1062.8,41.2,1073,41.4,1073.1,41.4z"/>
				<path class="st16" d="M1111,105.1c-16,20-45.2,23.1-65.2,7.1s-23.1-45.2-7.1-65.2c16-20,45.2-23.1,65.2-7.1c0,0,0,0,0,0
					C1123.9,56,1127,85.1,1111,105.1z M1108.6,34.1c-23.1-18.6-57-14.9-75.6,8.2c-18.6,23.1-14.9,57,8.2,75.6
					c23.1,18.6,57,14.9,75.6-8.2C1135.4,86.6,1131.7,52.7,1108.6,34.1z"/>
				<path class="st6" d="M1117.1,110c18.7-23.4,15-57.5-8.4-76.2c-23.4-18.7-57.5-15-76.2,8.4c-8.7,10.9-12.9,24.6-11.7,38.5
					l0.8-0.1c-2.5-29.4,19.2-55.2,48.6-57.8s55.2,19.2,57.8,48.6c1.2,13.7-3,27.3-11.5,38c-8.5,10.6-20.8,17.5-34.2,19.4l0.1,0.8
					C1096,127.8,1108.5,120.8,1117.1,110z"/>
				<path class="st20" d="M197.8,299.6l176.4,0.4c26.2-30.1,28.9-70.7-6-104.9c-4.4-4.3-12.8-7.4-21.9-9.5
					c-16.7-4-35.7-4.9-35.8-4.9c-5.8-4.6-11.1-9.8-16-15.3c-18.6-22.5-34.5-20.6-34.5-20.6c-19-3.7-35.2-4.8-47.2,1.9l0,0
					c-11.1,6.2-18.6,19.1-21.4,42.7c-0.5,4.5-0.9,9.3-1.1,14.6c-0.7,19.2-4.5,36.3-6.7,50.7l0,0
					C180.5,275.7,180.5,291.2,197.8,299.6z"/>
				<path class="st21" d="M222.4,170.4c11.5,6.3,12.8,26.9,30.8,32.3s48.6,4.8,66,23.6c16.7,18.2,35.2-28,27.2-41
					c-16.7-4-35.7-4.9-35.8-4.9c-5.8-4.6-11.1-9.8-16-15.3c-18.6-22.5-34.5-20.6-34.5-20.6c-19-3.7-35.2-4.8-47.2,1.9l0,0
					C206.9,153,210.9,164.2,222.4,170.4z"/>
				<path class="st22" d="M293.1,176.4c0,0,57.8-0.8,65.5,4.2s-7.9,83.2-7.9,83.2s-14.9,0.4-16.1-3.5c0,0,2.8-36.7,0.5-43
					s-0.9-15.1-0.9-15.1s-29.2,4.4-38.5,2.2C286.3,202,293.1,176.4,293.1,176.4z"/>
				<path class="st23" d="M279.7,135.9c0,0,8.1,19,12.1,21s18.3,18.5,21.4,18.2s-3.6,2.5-3.6,2.5L283,165.3
					c-1.5-0.7-9.1-13.4-10.2-19.8S279.7,135.9,279.7,135.9z"/>
				<path class="st23" d="M332.6,269.5c1.9,3.7,2.4,10.6,2.9,12.9s10.7,10.2,11.5,9.8c2.2-1,0.1-4.8-1.2-7.7
					c-0.1-0.1-0.1-0.2-0.2-0.3c-1.3-2.8-0.2-9.2-0.9-12.4s2.6-12.1,2.6-12.1l-5.6-7c0,0-3.9,7.5-6.7,8.8c-0.5,0.2-1,0.5-1.4,0.9
					C331.9,263.9,331.1,266.5,332.6,269.5z"/>
				<path class="st23" d="M352.2,291.3c3.9,1.6,8.6,6.5,10.5,7.9s14.7,0.9,15.1,0c1.1-2.3-3.4-3.9-6.2-5.2c-0.1,0-0.1,0-0.1-0.1l0,0
					l0,0c-2.8-1.4-6-6.8-8.6-8.9s-5.8-10.9-5.8-10.9l-8.8-1.8c0,0,1.8,8.2,0.6,11.1c-0.1,0.3-0.2,0.5-0.3,0.8
					C347.9,287,348.7,289.8,352.2,291.3z"/>
				<path class="st24" d="M263.1,127.5c1.2-1.4-17.4-7-21.4,8.3c0,0-34.2-9.1-13.2-24.3c7.3-5.3,8-10.9,9.1-16.1s8.3-19.9,20.9-12.6
					c0,0,5.8,0,9.4,3.2C276.2,93.2,285.3,138.8,263.1,127.5z"/>
				<path class="st25" d="M268.9,179c0,0,59.9,6.1,65.2,12.2s26,85.6,26,85.6s-6.1,3.4-11.7,0.2c0,0-15.9-27-22.9-35.4
					s-9.6-34.6-10.8-34.9s-38.7,5.2-51.6-4.7S268.9,179,268.9,179z"/>
				<path class="st26" d="M235.6,124.7c10.3-4,21.5-5.2,32.4-3.5c3.7,0.6,7,1.8,9.7,6.2c3.7,6.2,5.5,9.5,5.5,9.5s-0.4,2.9-5.5,5.1
					c1.4,5.1-1.3,14,1.2,17.5s17.7,12,18.4,16.8c1.4,8.8-26,24.7-34.2,23C239.6,194.4,223.6,131.4,235.6,124.7z"/>
				<path class="st24" d="M243.7,106.6c0,0-2.8-5.5-3.2-10.1c-0.3-3.3,2.5-14.9,14.2-12.1c2.4,0.6,4.6,1.7,6.5,3.2
					c2.4,2,5.8,6.1,0.7,16l-1.4,3.4L243.7,106.6z"/>
				<path class="st23" d="M259.7,125.3c1.2,1.2,0.7,5.4-4.8,5.1c-3.6-0.2-11.5-4.7-10.7-7.8c0.3-1.5,3.1-5.3,3.8-14.1l0.7,0.2
					l11.1,3.1c0,0-0.5,3.5-0.8,6.9C258.8,121.5,259.3,124.8,259.7,125.3z"/>
				<path class="st27" d="M259.8,111.8c0,0-0.5,3.5-0.8,6.9c-6.3-0.7-9.2-6.7-10.3-10L259.8,111.8z"/>
				<path class="st23" d="M260,116.9c0,0-14.6-3.7-12.1-12.7s2.2-15.6,11.6-13.6c9.4,2,10.3,5.9,10.2,9.1S263.9,117.7,260,116.9z"/>
				<path class="st24" d="M266.1,92.2c0,0-4.9,9.3-14.1,10.3c-5.4,0.6-6.9,4.1-6.9,4.1s1.6-10.2,4.3-16.4
					C249.5,90.3,264.5,86.3,266.1,92.2z"/>
				<path class="st24" d="M264.4,93.4c0,0,3.2,3.3,4.2,5.5c1.5,3.4-1.4,10.6-2.6,12.1c0,0,6.8-11.5,4.5-16.5
					C268.2,89.3,264.4,93.4,264.4,93.4z"/>
				<path class="st23" d="M308.9,177.3c1,1.1,2.1,2.2,3.3,3.2c1.9,0.9,4.3,0.4,5.5,0.7s1-0.4,0.1-1s-3-0.4-2.1-0.6s5.6-1.1,7.3-0.6
					c2.8,0.7,5-0.1,5.2-0.4s-6.4-3.5-8.3-3.4s-7.3-0.1-7.3-0.1L308.9,177.3z"/>
				<path class="st23" d="M230.7,130.3c0,0-1.7,42.7,3.3,48.7s35.5-0.7,35.5-0.7l2.1-3.1c0,0-27.1-4-29-4.5
					c-2.6-0.7-0.8-30.1-0.8-30.1L230.7,130.3z"/>
				<path class="st26" d="M237.4,124c-0.4,0-5.8,1.8-9.7,9.5c-3.8,7.5-5.2,11.2-5.2,11.2s16.9,13.1,23.6,8.3S243.6,123.8,237.4,124z
					"/>
				<path class="st23" d="M269.5,178.4c0,0,2.4,2.5,3.4,3.7s7.4,3.5,7.5,2.9s-2.9-2.7-3.2-3.5s-3.6-4.6-5.6-5
					S269.5,178.4,269.5,178.4z"/>
				<path class="st23" d="M271.6,175.3c0,0,10,2.3,11.7,3s5.3,5.8,3.9,6.5c-0.9,0.5-4.8-1.6-6.8-2s-7.7,0.6-10.2-4.6
					C269.7,177.6,271.6,175.3,271.6,175.3z"/>
				<path class="st28" d="M352.2,291.3c3.9,1.6,8.6,6.5,10.5,7.9s14.7,0.9,15.1,0c1.1-2.3-3.4-3.9-6.2-5.2c-0.1,0-0.1,0-0.1-0.1l0,0
					l0,0l-0.4-0.1c0,0-5.5,2-10.1,0c-3.6-1.5-8.9-7.2-12.4-9.5C347.9,287,348.7,289.8,352.2,291.3z"/>
				<path class="st28" d="M332.6,269.5c1.9,3.7,2.4,10.6,2.9,12.9s10.7,10.2,11.5,9.8c2.2-1,0.1-4.8-1.2-7.7
					c-1.1-0.1-2.2-0.5-3.1-1.1c-2.5-1.7-6.8-8-7.2-11.8c-0.3-3.1-0.1-7.4-1.8-9.3C331.9,263.9,331.1,266.5,332.6,269.5z"/>
				<polygon class="st20" points="284.4,186.1 327.8,186.1 340.9,153.6 297.6,153.6 				"/>
				<polygon class="st21" points="328.4,184.8 271,184.8 271,186.1 327.8,186.1 				"/>
				<path class="st13" d="M316.9,169.8c0.3-0.8-0.1-1.7-0.9-2c-0.2-0.1-0.4-0.1-0.6-0.1c-1.2,0.1-2.3,0.9-2.7,2.1
					c-0.3,0.8,0.1,1.7,0.9,2c0.2,0.1,0.4,0.1,0.6,0.1C315.5,171.9,316.6,171,316.9,169.8z"/>
				<path class="st20" d="M234.7,185.9c0,0,5.7,5.3,29.4,6.1s54.7,27,55,34.4s-47.8,18.7-48.6,17.6S240,217.4,240,217.4L234.7,185.9
					z"/>
				<path class="st21" d="M183.8,254.4c12.8-23,42,8.7,49.2-2s-10.3-24.4-26.1-36.1c-15.5-11.5-15.4-26.6-15.4-27.2
					c-0.5,4.5-0.9,9.3-1.1,14.6C189.8,222.8,186,239.9,183.8,254.4z"/>
				<path class="st2" d="M144.5,24.7l-13.3-2.3l-0.3-0.1c-1.6-0.3-3.2,0.7-3.6,2.3l-3.1,10.9c-0.1,0.2-0.1,0.4-0.2,0.5
					c-0.6,1.1-1.7,1.8-3,1.8c-7.5-0.3-15,0.9-22,3.5c-0.3,0.1-0.6,0.2-0.9,0.2c-1.1,0-2.2-0.5-2.9-1.4l-5.3-7.8
					c-0.7-1-1.9-1.5-3.1-1.4l-1.1,0.3l-12.2,6.5c-1.5,0.8-2.2,2.6-1.5,4.2l4.9,11.6c0.5,1.1,0.3,2.5-0.6,3.4
					c-1.2,1.3-2.3,2.7-3.4,4.2c-2,2.7-3.7,5.6-5.1,8.6l0,0c-0.6,1.2-1.9,1.9-3.2,1.8l-12.7-1.1h-0.6c-1.6-0.1-3.1,1-3.4,2.6
					l-2.3,13.6c-0.3,1.7,0.7,3.3,2.4,3.7l12.1,3.5c1.3,0.4,2.3,1.6,2.3,3c0.3,5.9,1.5,11.6,3.6,17.1c0.5,1.4,0,2.9-1.2,3.8l-9.3,6.3
					c-1.4,1-1.8,2.8-1.1,4.3l6.5,12.3c0.7,1.5,2.5,2.1,4,1.4l13.6-5.8c1.1-0.5,2.5-0.3,3.4,0.5c1.2,1,2.4,2,3.7,2.9
					c2.4,1.7,4.8,3.2,7.4,4.6c1.2,0.6,1.9,1.8,1.7,3.1l-1.3,15.3c-0.1,1.7,1,3.2,2.7,3.5l13.7,2.4c1.4,0.2,2.9-0.5,3.5-1.8
					c0.1-0.1,0.1-0.3,0.2-0.4l3.9-13.4c0.4-1.2,1.4-2.1,2.7-2.3h0.3c0.3,0,0.7,0,1-0.1c4-0.2,8-0.8,11.9-1.8
					c1.3-0.4,2.7,0.2,3.4,1.3l6.6,9.8c1,1.4,2.8,1.8,4.3,1l2.7-1.4l9.5-5c1.5-0.8,2.1-2.6,1.5-4.1l-4.8-11.4
					c-0.5-1.2-0.2-2.6,0.7-3.5c2.6-2.4,4.9-5.1,7-8c1.6-2.1,3-4.4,4.2-6.7l2.7,0.2l10.9,0.9c1.3,0.1,2.6-0.6,3.1-1.8
					c0.1-0.2,0.2-0.5,0.2-0.8l2.4-13.7c0.3-1.6-0.7-3.2-2.3-3.6l-8.3-2.4c-1.4-0.4-2.4-1.7-2.3-3.2c0.2-6-0.6-12-2.3-17.8
					c-0.4-1.3,0.1-2.8,1.3-3.5l11.7-7.9c1.3-0.9,1.7-2.6,1-4l-6.6-12.4c-0.7-1.5-2.5-2.1-4-1.4l-14.1,6c-1.2,0.5-2.6,0.2-3.6-0.7
					c-2-2-4.2-3.9-6.6-5.6c-1.3-0.9-2.6-1.8-3.9-2.6c-1-0.6-1.6-1.8-1.5-3l1.2-14.6C147.3,26.5,146.1,25,144.5,24.7z M96,73.5
					c2.7-2.9,5.9-5.4,9.4-7.2c0.8-0.4,1.7-0.8,2.7-1.2c4.3-1.5,10-2.2,13.9-1.5c30.1,5.3,36.4,42.6,10.2,57.6
					c-0.4,0.2-0.9,0.5-1.3,0.7c-4.1,2.2-11.3,3.3-16,2.5c-2.3-0.4-4.6-1-6.8-1.8c-15.8-5.7-24-23.1-18.3-38.9
					C91.2,79.9,93.3,76.5,96,73.5z"/>
				<path class="st2" d="M423,69.3l-8.5-1.5h-0.2c-1-0.2-2,0.5-2.3,1.5l-2,6.9c0,0.1-0.1,0.2-0.1,0.3c-0.4,0.7-1.1,1.1-1.9,1.1
					c-4.8-0.2-9.5,0.5-14,2.2c-0.2,0.1-0.4,0.1-0.6,0.1c-0.7,0.1-1.4-0.3-1.8-0.9l-3.4-5c-0.4-0.7-1.2-1-2-0.9
					c-0.2,0-0.5,0.1-0.7,0.2l-7.8,4.1c-1,0.5-1.4,1.7-0.9,2.7c0,0,0,0,0,0l3.1,7.3c0.3,0.7,0.2,1.6-0.4,2.1
					c-0.8,0.9-1.5,1.8-2.1,2.7c-1.2,1.7-2.3,3.5-3.3,5.4l0,0c-0.4,0.7-1.2,1.2-2,1.2l-8.1-0.7h-0.4c-1.1-0.1-2,0.6-2.2,1.7l-1.5,8.7
					c-0.2,1.1,0.5,2.1,1.5,2.4l7.7,2.2c0.9,0.2,1.5,1,1.5,1.9c0.2,3.7,0.9,7.4,2.3,10.9c0.3,0.9,0,1.9-0.8,2.4l-5.9,4
					c-0.9,0.6-1.2,1.8-0.7,2.7l4.1,7.8c0.5,0.9,1.6,1.3,2.6,0.9l8.6-3.7c0.7-0.3,1.6-0.2,2.2,0.3c0.7,0.7,1.5,1.3,2.3,1.8
					c1.5,1.1,3.1,2.1,4.7,2.9c0.7,0.4,1.2,1.2,1.1,2l-0.8,9.7c-0.1,1.1,0.7,2,1.7,2.2l8.7,1.5c0.9,0.2,1.8-0.3,2.2-1.2
					c0-0.1,0.1-0.2,0.1-0.3l2.4-8.5c0.2-0.8,0.9-1.4,1.7-1.5h0.8c2.6-0.1,5.1-0.5,7.6-1.2c0.8-0.2,1.7,0.1,2.2,0.8l4.2,6.2
					c0.6,0.9,1.8,1.2,2.7,0.7l1.7-0.9l6-3.2c0.9-0.5,1.3-1.6,0.9-2.6l-3.1-7.2c-0.3-0.8-0.1-1.6,0.5-2.2c1.6-1.5,3.1-3.2,4.4-5.1
					c1-1.4,1.9-2.8,2.7-4.3l1.7,0.1l6.9,0.6c0.9,0.1,1.7-0.4,2-1.2c0.1-0.2,0.1-0.3,0.2-0.5l1.5-8.7c0.2-1-0.5-2-1.5-2.3l-5.3-1.5
					c-0.9-0.2-1.5-1.1-1.5-2c0.1-3.8-0.4-7.6-1.4-11.3c-0.3-0.9,0-1.8,0.8-2.3l7.4-5c0.8-0.6,1.1-1.7,0.6-2.6l-4.2-7.9
					c-0.5-0.9-1.6-1.3-2.6-0.9l-9,3.8c-0.8,0.3-1.7,0.2-2.3-0.4c-1.3-1.3-2.7-2.5-4.2-3.6c-0.8-0.6-1.7-1.1-2.5-1.7
					c-0.7-0.4-1-1.1-1-1.9l0.8-9.3C424.8,70.4,424.1,69.4,423,69.3z M392.2,100.3c1.7-1.9,3.7-3.4,6-4.6c0.5-0.3,1.1-0.5,1.7-0.8
					c2.8-1,5.9-1.3,8.9-0.9c19.1,3.4,23.1,27.1,6.5,36.6c-0.3,0.1-0.5,0.3-0.8,0.5c-3.1,1.5-6.6,2-10.1,1.6
					c-1.5-0.2-2.9-0.6-4.3-1.1c-10.1-3.5-15.4-14.6-11.9-24.7C389.1,104.5,390.5,102.2,392.2,100.3z"/>
				<polygon class="st29" points="289.7,45.9 340.1,42.7 303,27.3 302.8,34.7 291.4,39.4 				"/>
				<polygon class="st13" points="340.1,42.7 295,30.2 254.7,36.5 				"/>
				<polygon class="st13" points="303,27.3 340.1,42.7 307.7,13.3 				"/>
				<polygon class="st29" points="900.4,35.4 941.3,32.8 911.2,20.4 911.1,26.4 901.8,30.2 				"/>
				<polygon class="st13" points="941.3,32.8 904.7,22.7 871.9,27.8 				"/>
				<polygon class="st13" points="911.2,20.4 941.3,32.8 915,9 				"/>
			</g>
		</g>
	</g>
</g>
</svg>
