<svg xmlns="http://www.w3.org/2000/svg" xmlns:xlink="http://www.w3.org/1999/xlink" viewBox="0 0 1245 301.3"><defs><style>.cls-1{fill:none;}.cls-2{clip-path:url(#clip-path);}.cls-3{fill:url(#radial-gradient);}.cls-4{fill:#cde3fd;}.cls-5{fill:#230c1e;}.cls-6{fill:#070463;}.cls-7{fill:#dcf4ff;}.cls-8{fill:#21111d;}.cls-9{opacity:0.6;}.cls-10{fill:#9bc1f9;}.cls-11{opacity:0.3;}.cls-12{fill:#d4eef4;}.cls-13{fill:#ebfafc;}.cls-14{fill:#2727ad;}.cls-15{fill:#fff;}.cls-16{fill:#3c59c6;}.cls-17{fill:#223749;}.cls-18{fill:#514dd6;}.cls-19{opacity:0.5;}.cls-20{fill:#cafbff;}.cls-21{fill:#f3fffe;}.cls-22{fill:#f99746;}.cls-23{fill:#ed7d2b;}.cls-24{fill:#233862;}.cls-25{fill:#ffb27d;}.cls-26{fill:#163560;}.cls-27{fill:#2a4e96;}.cls-28{fill:#f9ddbf;}.cls-29{fill:#f4a269;}.cls-30{fill:#2e3552;}.cls-31{fill:#9ec3f6;}</style><clipPath id="clip-path"><rect class="cls-1" width="1245" height="300"/></clipPath><radialGradient id="radial-gradient" cx="992.38" cy="117.96" r="700.62" gradientTransform="matrix(-0.76, 0.55, -0.47, -0.5, 1795.62, -730.65)" gradientUnits="userSpaceOnUse"><stop offset="0" stop-color="#73d7ff"/><stop offset="1" stop-color="#002bc6"/></radialGradient></defs><g id="Layer_2" data-name="Layer 2"><g id="Слой_1" data-name="Слой 1"><g class="cls-2"><rect class="cls-3" width="1245" height="300"/><path class="cls-4" d="M894.7,56.8,883.9,55h-.3a2.73,2.73,0,0,0-3,1.9l-2.5,8.8a.76.76,0,0,1-.2.4,2.79,2.79,0,0,1-2.4,1.5,45.43,45.43,0,0,0-17.9,2.8c-.2.1-.5.1-.7.2a2.89,2.89,0,0,1-2.4-1.1l-4.3-6.4a2.81,2.81,0,0,0-2.5-1.1,1.61,1.61,0,0,0-.9.3l-9.9,5.2a2.61,2.61,0,0,0-1.2,3.4l4,9.4a2.46,2.46,0,0,1-.5,2.7,28.76,28.76,0,0,0-2.7,3.4,49.9,49.9,0,0,0-4.2,7h0a2.63,2.63,0,0,1-2.6,1.5L819.4,94h-.5a2.7,2.7,0,0,0-2.8,2.1l-1.9,11.1a2.67,2.67,0,0,0,1.9,3l9.8,2.8a2.55,2.55,0,0,1,1.9,2.4,44.81,44.81,0,0,0,2.9,13.9,2.7,2.7,0,0,1-1,3.1l-7.5,5.1a2.82,2.82,0,0,0-.9,3.5l5.3,10a2.58,2.58,0,0,0,3.3,1.2l11-4.7a2.84,2.84,0,0,1,2.8.4q1.35,1.2,3,2.4a53.86,53.86,0,0,0,6,3.7,2.66,2.66,0,0,1,1.4,2.5L853,168.9a2.56,2.56,0,0,0,2.2,2.8l11.1,1.9a2.55,2.55,0,0,0,2.8-1.5c0-.1.1-.2.1-.4l3.1-10.9a2.57,2.57,0,0,1,2.2-1.9h1.1a45.55,45.55,0,0,0,9.7-1.5,2.43,2.43,0,0,1,2.8,1.1l5.4,7.9a2.82,2.82,0,0,0,3.5.9l2.2-1.2,7.7-4.1a2.7,2.7,0,0,0,1.2-3.4l-3.9-9.2a2.63,2.63,0,0,1,.6-2.9,45.51,45.51,0,0,0,9.1-12l2.2.2,8.9.7a2.63,2.63,0,0,0,2.6-1.5,1.42,1.42,0,0,0,.2-.6l1.9-11.2a2.73,2.73,0,0,0-1.9-3l-6.7-1.9a2.7,2.7,0,0,1-1.9-2.6,46.3,46.3,0,0,0-1.8-14.4,2.66,2.66,0,0,1,1-2.9l9.5-6.4a2.5,2.5,0,0,0,.8-3.3l-5.3-10.1a2.62,2.62,0,0,0-3.3-1.2l-11.5,4.9a2.63,2.63,0,0,1-2.9-.6,50,50,0,0,0-5.4-4.6,22,22,0,0,0-3.2-2.1,3,3,0,0,1-1.3-2.5l1-11.9A2.48,2.48,0,0,0,894.7,56.8ZM855.3,96.4a30.75,30.75,0,0,1,7.6-5.9,11.21,11.21,0,0,1,2.2-1,24.79,24.79,0,0,1,11.3-1.2c24.4,4.3,29.5,34.6,8.3,46.8a10.91,10.91,0,0,1-1.1.6,24.21,24.21,0,0,1-13,2.1,23.38,23.38,0,0,1-5.5-1.5A24.72,24.72,0,0,1,855.3,96.4Z"/><rect class="cls-5" x="995.4" y="205.2" width="44.6" height="93.4"/><path class="cls-5" d="M1152,239.2v-128a11,11,0,0,0-11-11H892.9a11,11,0,0,0-11,11v128Z"/><path class="cls-6" d="M881.9,239.2v20.5c0,4.3,2.8,7.7,6.3,7.7h257.5c3.5,0,6.3-3.5,6.3-7.7V239.2Z"/><path class="cls-7" d="M1145.7,233.6v-122a5.91,5.91,0,0,0-6-5.8H894.2a5.91,5.91,0,0,0-6,5.8V233.7l257.5-.1Z"/><path class="cls-6" d="M1078,301.3a6.54,6.54,0,0,0-6.6-8H964.1a10,10,0,0,0-9.4,8H1078Z"/><path class="cls-8" d="M1145.7,267.7H888.2c-3.7,0-6.6-3.6-6.6-8V111.2a11.35,11.35,0,0,1,11.3-11.3v.6a10.71,10.71,0,0,0-10.7,10.7V259.7c0,4.1,2.7,7.4,6,7.4h257.5v.6Z"/><rect class="cls-8" x="1105.19" y="249.57" width="10.5" height="0.6" transform="translate(260.06 1006.41) rotate(-54.34)"/><rect class="cls-8" x="1105.24" y="253.77" width="10.3" height="0.6" transform="translate(246.71 996.75) rotate(-53.58)"/><rect class="cls-8" x="1004.58" y="271.78" width="6.2" height="0.6" transform="translate(271.44 1011.95) rotate(-60.25)"/><rect class="cls-8" x="1005.26" y="275.19" width="5.5" height="0.6" transform="translate(260.32 1005.52) rotate(-59.6)"/><path class="cls-8" d="M1146,233.9H888.2v-.6h257.1V111.6a5.59,5.59,0,0,0-5.7-5.5v-.6a6.17,6.17,0,0,1,6.3,6.1l.1,122.3Z"/><g class="cls-9"><rect class="cls-10" x="966.1" y="150.8" width="11" height="73.5"/></g><g class="cls-9"><rect class="cls-10" x="950.7" y="165.1" width="11" height="59.2"/></g><g class="cls-9"><rect class="cls-10" x="979.8" y="157.6" width="11" height="66.8"/></g><g class="cls-9"><rect class="cls-10" x="935.3" y="154.9" width="11" height="69.4"/></g><g class="cls-9"><rect class="cls-10" x="919.9" y="175.5" width="11" height="48.8"/></g><g class="cls-11"><rect class="cls-10" x="966.1" y="158.7" width="11" height="65.6"/></g><g class="cls-11"><rect class="cls-10" x="950.7" y="178.7" width="11" height="45.6"/></g><g class="cls-11"><rect class="cls-10" x="979.8" y="172.9" width="11" height="51.4"/></g><g class="cls-11"><rect class="cls-10" x="935.3" y="170.9" width="11" height="53.4"/></g><g class="cls-11"><rect class="cls-10" x="919.9" y="186.8" width="11" height="37.6"/></g><rect class="cls-7" x="1018.5" y="121.4" width="115.1" height="96.6"/><rect class="cls-12" x="1023.3" y="126.6" width="91.2" height="4.6"/><rect class="cls-13" x="1023.3" y="150.8" width="105.3" height="62"/><circle class="cls-12" cx="1119.34" cy="128.84" r="2.3" transform="translate(571.94 1113.67) rotate(-67.5)"/><circle class="cls-12" cx="1126.36" cy="128.78" r="2.3" transform="translate(576.34 1120.12) rotate(-67.5)"/><rect class="cls-12" x="1043.1" y="139.1" width="82.3" height="1.6"/><rect class="cls-12" x="1043.1" y="144.2" width="82.3" height="1.6"/><path class="cls-12" d="M1092.1,156.3h-65a.68.68,0,0,1-.7-.7h0a.68.68,0,0,1,.7-.7h65a.68.68,0,0,1,.7.7h0A.68.68,0,0,1,1092.1,156.3Z"/><path class="cls-12" d="M1092.1,160.7h-65a.68.68,0,0,1-.7-.7h0a.68.68,0,0,1,.7-.7h65a.68.68,0,0,1,.7.7h0A.68.68,0,0,1,1092.1,160.7Z"/><path class="cls-12" d="M1092.1,165.1h-65a.68.68,0,0,1-.7-.7h0a.68.68,0,0,1,.7-.7h65a.68.68,0,0,1,.7.7h0A.68.68,0,0,1,1092.1,165.1Z"/><path class="cls-12" d="M1092.1,173.9h-65a.68.68,0,0,1-.7-.7h0a.68.68,0,0,1,.7-.7h65a.68.68,0,0,1,.7.7h0A.68.68,0,0,1,1092.1,173.9Z"/><path class="cls-12" d="M1092.1,178.3h-65a.68.68,0,0,1-.7-.7h0a.68.68,0,0,1,.7-.7h65a.68.68,0,0,1,.7.7h0A.68.68,0,0,1,1092.1,178.3Z"/><path class="cls-12" d="M1092.1,182.7h-65a.68.68,0,0,1-.7-.7h0a.68.68,0,0,1,.7-.7h65a.68.68,0,0,1,.7.7h0A.68.68,0,0,1,1092.1,182.7Z"/><path class="cls-12" d="M1092.1,191.6h-65a.68.68,0,0,1-.7-.7h0a.68.68,0,0,1,.7-.7h65a.68.68,0,0,1,.7.7h0A.75.75,0,0,1,1092.1,191.6Z"/><path class="cls-12" d="M1092.1,196h-65a.68.68,0,0,1-.7-.7h0a.68.68,0,0,1,.7-.7h65a.68.68,0,0,1,.7.7h0A.75.75,0,0,1,1092.1,196Z"/><rect class="cls-12" x="1097" y="154.8" width="27.7" height="24.8"/><rect class="cls-12" x="1097" y="186.2" width="27.7" height="9.8"/><polygon class="cls-12" points="1122.7 173.9 1118 166.1 1111.1 169.1 1106.4 159.2 1099.4 173.9 1122.7 173.9"/><circle class="cls-12" cx="1114.36" cy="161.5" r="2.1" transform="translate(-7.29 260.41) rotate(-13.29)"/><g class="cls-9"><path class="cls-14" d="M1018.6,118.3v3.1h115.1v-3.1a3.12,3.12,0,0,0-3.1-3.1H1021.7A3.12,3.12,0,0,0,1018.6,118.3Z"/></g><g class="cls-9"><path class="cls-14" d="M1133.6,220.5v-3.1H1018.5v3.1a3.12,3.12,0,0,0,3.1,3.1h108.9A3.05,3.05,0,0,0,1133.6,220.5Z"/></g><path class="cls-12" d="M1129.1,118.3a1.1,1.1,0,1,0,1.1-1.1A1.11,1.11,0,0,0,1129.1,118.3Z"/><path class="cls-12" d="M1124.8,118.3a1.1,1.1,0,1,0,1.1-1.1A1.11,1.11,0,0,0,1124.8,118.3Z"/><circle class="cls-12" cx="1121.8" cy="118.3" r="1.1"/><polygon class="cls-15" points="1073.2 78.9 1073.2 169.5 1005.7 169.5 1005.7 93.8 1020.3 78.9 1073.2 78.9"/><polygon class="cls-16" points="1005.7 93.9 1020.2 78.9 1020.2 93.9 1005.7 93.9"/><path class="cls-16" d="M1026.8,90.2h29.4a.79.79,0,0,0,.8-.8h0a.79.79,0,0,0-.8-.8h-29.4a.79.79,0,0,0-.8.8h0A.74.74,0,0,0,1026.8,90.2Z"/><path class="cls-16" d="M1022.7,96.1h37.5a.79.79,0,0,0,.8-.8h0a.79.79,0,0,0-.8-.8h-37.5a.79.79,0,0,0-.8.8h0C1022,95.8,1022.3,96.1,1022.7,96.1Z"/><path class="cls-16" d="M1012.8,110.3h54.3a.79.79,0,0,0,.8-.8h0a.79.79,0,0,0-.8-.8h-54.3a.79.79,0,0,0-.8.8h0A.86.86,0,0,0,1012.8,110.3Z"/><path class="cls-16" d="M1012.8,117h54.3a.79.79,0,0,0,.8-.8h0a.79.79,0,0,0-.8-.8h-54.3a.79.79,0,0,0-.8.8h0A.86.86,0,0,0,1012.8,117Z"/><path class="cls-16" d="M1012.8,123.6h54.3a.79.79,0,0,0,.8-.8h0a.79.79,0,0,0-.8-.8h-54.3a.79.79,0,0,0-.8.8h0A.79.79,0,0,0,1012.8,123.6Z"/><path class="cls-16" d="M1012.8,131.3h54.3a.79.79,0,0,0,.8-.8h0a.79.79,0,0,0-.8-.8h-54.3a.79.79,0,0,0-.8.8h0A.86.86,0,0,0,1012.8,131.3Z"/><path class="cls-16" d="M1012.8,138h54.3a.79.79,0,0,0,.8-.8h0a.79.79,0,0,0-.8-.8h-54.3a.79.79,0,0,0-.8.8h0A.86.86,0,0,0,1012.8,138Z"/><path class="cls-16" d="M1012.8,160.9h54.3a.79.79,0,0,0,.8-.8h0a.79.79,0,0,0-.8-.8h-54.3a.79.79,0,0,0-.8.8h0A.79.79,0,0,0,1012.8,160.9Z"/><path class="cls-16" d="M1012.8,155.5h54.3a.79.79,0,0,0,.8-.8h0a.79.79,0,0,0-.8-.8h-54.3a.79.79,0,0,0-.8.8h0A.86.86,0,0,0,1012.8,155.5Z"/><path class="cls-17" d="M1113.9,119l5.4-6.7.4-.4,5.4-6.7,80.1,55.7a4.76,4.76,0,0,1,1,6.9l-13.7,17a4.73,4.73,0,0,1-6.9.5Z"/><path class="cls-18" d="M1115,121l12.2-15.2a3,3,0,0,0-.4-4.1l-7.4-5.9-15.9,19.8,7.4,5.9A2.91,2.91,0,0,0,1115,121Z"/><path class="cls-8" d="M1118.2,117.6l8.7-10.8a4.43,4.43,0,0,0-.7-6.2l-6.5-5.3-.5.7,6.5,5.3a3.52,3.52,0,0,1,.5,5l-8.7,10.8Z"/><g class="cls-19"><path class="cls-20" d="M1045.8,112.2a46.4,46.4,0,0,0,71-16.3,45.54,45.54,0,0,0-5.3-48.4,46.43,46.43,0,1,0-65.7,64.7Z"/></g><g class="cls-19"><ellipse class="cls-21" cx="1045.76" cy="78.5" rx="8.3" ry="17.4" transform="translate(-2.36 113.51) rotate(-6.21)"/></g><rect class="cls-8" x="1166.06" y="85.66" width="0.8" height="96.9" transform="translate(392.05 1016.67) rotate(-55.29)"/><path class="cls-8" d="M1070.8,36v-.8c-.1,0-10.7-.1-18.6,6.3l.5.7C1060.4,35.9,1070.6,36,1070.8,36Z"/><path class="cls-8" d="M1073.1,41.4v-.8c-.1,0-10.7-.1-18.6,6.3l.5.7C1062.8,41.2,1073,41.4,1073.1,41.4Z"/><path class="cls-18" d="M1111,105.1a46.38,46.38,0,1,1-7.1-65.2A46.4,46.4,0,0,1,1111,105.1Zm-2.4-71a53.77,53.77,0,1,0,8.2,75.6A53.81,53.81,0,0,0,1108.6,34.1Z"/><path class="cls-8" d="M1117.1,110a54.2,54.2,0,1,0-96.3-29.3l.8-.1a53.37,53.37,0,1,1,94.8,28.8,53.48,53.48,0,0,1-34.2,19.4l.1.8A53.34,53.34,0,0,0,1117.1,110Z"/><path class="cls-22" d="M197.8,299.6l176.4.4c26.2-30.1,28.9-70.7-6-104.9-4.4-4.3-12.8-7.4-21.9-9.5-16.7-4-35.7-4.9-35.8-4.9a131.11,131.11,0,0,1-16-15.3c-18.6-22.5-34.5-20.6-34.5-20.6-19-3.7-35.2-4.8-47.2,1.9h0c-11.1,6.2-18.6,19.1-21.4,42.7-.5,4.5-.9,9.3-1.1,14.6-.7,19.2-4.5,36.3-6.7,50.7h0C180.5,275.7,180.5,291.2,197.8,299.6Z"/><path class="cls-23" d="M222.4,170.4c11.5,6.3,12.8,26.9,30.8,32.3s48.6,4.8,66,23.6c16.7,18.2,35.2-28,27.2-41-16.7-4-35.7-4.9-35.8-4.9a131.11,131.11,0,0,1-16-15.3c-18.6-22.5-34.5-20.6-34.5-20.6-19-3.7-35.2-4.8-47.2,1.9h0C206.9,153,210.9,164.2,222.4,170.4Z"/><path class="cls-24" d="M293.1,176.4s57.8-.8,65.5,4.2-7.9,83.2-7.9,83.2-14.9.4-16.1-3.5c0,0,2.8-36.7.5-43s-.9-15.1-.9-15.1-29.2,4.4-38.5,2.2C286.3,202,293.1,176.4,293.1,176.4Z"/><path class="cls-25" d="M279.7,135.9s8.1,19,12.1,21,18.3,18.5,21.4,18.2-3.6,2.5-3.6,2.5L283,165.3c-1.5-.7-9.1-13.4-10.2-19.8S279.7,135.9,279.7,135.9Z"/><path class="cls-25" d="M332.6,269.5c1.9,3.7,2.4,10.6,2.9,12.9s10.7,10.2,11.5,9.8c2.2-1,.1-4.8-1.2-7.7-.1-.1-.1-.2-.2-.3-1.3-2.8-.2-9.2-.9-12.4s2.6-12.1,2.6-12.1l-5.6-7s-3.9,7.5-6.7,8.8a4.19,4.19,0,0,0-1.4.9C331.9,263.9,331.1,266.5,332.6,269.5Z"/><path class="cls-25" d="M352.2,291.3c3.9,1.6,8.6,6.5,10.5,7.9s14.7.9,15.1,0c1.1-2.3-3.4-3.9-6.2-5.2a.1.1,0,0,1-.1-.1h0c-2.8-1.4-6-6.8-8.6-8.9s-5.8-10.9-5.8-10.9l-8.8-1.8s1.8,8.2.6,11.1c-.1.3-.2.5-.3.8C347.9,287,348.7,289.8,352.2,291.3Z"/><path class="cls-26" d="M263.1,127.5c1.2-1.4-17.4-7-21.4,8.3,0,0-34.2-9.1-13.2-24.3,7.3-5.3,8-10.9,9.1-16.1s8.3-19.9,20.9-12.6c0,0,5.8,0,9.4,3.2C276.2,93.2,285.3,138.8,263.1,127.5Z"/><path class="cls-27" d="M268.9,179s59.9,6.1,65.2,12.2,26,85.6,26,85.6-6.1,3.4-11.7.2c0,0-15.9-27-22.9-35.4s-9.6-34.6-10.8-34.9-38.7,5.2-51.6-4.7S268.9,179,268.9,179Z"/><path class="cls-28" d="M235.6,124.7a62.45,62.45,0,0,1,32.4-3.5c3.7.6,7,1.8,9.7,6.2,3.7,6.2,5.5,9.5,5.5,9.5s-.4,2.9-5.5,5.1c1.4,5.1-1.3,14,1.2,17.5s17.7,12,18.4,16.8c1.4,8.8-26,24.7-34.2,23C239.6,194.4,223.6,131.4,235.6,124.7Z"/><path class="cls-26" d="M243.7,106.6s-2.8-5.5-3.2-10.1c-.3-3.3,2.5-14.9,14.2-12.1a17,17,0,0,1,6.5,3.2c2.4,2,5.8,6.1.7,16l-1.4,3.4Z"/><path class="cls-25" d="M259.7,125.3c1.2,1.2.7,5.4-4.8,5.1-3.6-.2-11.5-4.7-10.7-7.8.3-1.5,3.1-5.3,3.8-14.1l.7.2,11.1,3.1s-.5,3.5-.8,6.9C258.8,121.5,259.3,124.8,259.7,125.3Z"/><path class="cls-29" d="M259.8,111.8s-.5,3.5-.8,6.9c-6.3-.7-9.2-6.7-10.3-10Z"/><path class="cls-25" d="M260,116.9s-14.6-3.7-12.1-12.7,2.2-15.6,11.6-13.6,10.3,5.9,10.2,9.1S263.9,117.7,260,116.9Z"/><path class="cls-26" d="M266.1,92.2s-4.9,9.3-14.1,10.3c-5.4.6-6.9,4.1-6.9,4.1s1.6-10.2,4.3-16.4C249.5,90.3,264.5,86.3,266.1,92.2Z"/><path class="cls-26" d="M264.4,93.4s3.2,3.3,4.2,5.5c1.5,3.4-1.4,10.6-2.6,12.1,0,0,6.8-11.5,4.5-16.5C268.2,89.3,264.4,93.4,264.4,93.4Z"/><path class="cls-25" d="M308.9,177.3a34,34,0,0,0,3.3,3.2c1.9.9,4.3.4,5.5.7s1-.4.1-1-3-.4-2.1-.6,5.6-1.1,7.3-.6c2.8.7,5-.1,5.2-.4s-6.4-3.5-8.3-3.4-7.3-.1-7.3-.1Z"/><path class="cls-25" d="M230.7,130.3S229,173,234,179s35.5-.7,35.5-.7l2.1-3.1s-27.1-4-29-4.5c-2.6-.7-.8-30.1-.8-30.1Z"/><path class="cls-28" d="M237.4,124c-.4,0-5.8,1.8-9.7,9.5-3.8,7.5-5.2,11.2-5.2,11.2s16.9,13.1,23.6,8.3S243.6,123.8,237.4,124Z"/><path class="cls-25" d="M269.5,178.4s2.4,2.5,3.4,3.7,7.4,3.5,7.5,2.9-2.9-2.7-3.2-3.5-3.6-4.6-5.6-5S269.5,178.4,269.5,178.4Z"/><path class="cls-25" d="M271.6,175.3s10,2.3,11.7,3,5.3,5.8,3.9,6.5c-.9.5-4.8-1.6-6.8-2s-7.7.6-10.2-4.6C269.7,177.6,271.6,175.3,271.6,175.3Z"/><path class="cls-30" d="M352.2,291.3c3.9,1.6,8.6,6.5,10.5,7.9s14.7.9,15.1,0c1.1-2.3-3.4-3.9-6.2-5.2a.1.1,0,0,1-.1-.1h0l-.4-.1s-5.5,2-10.1,0c-3.6-1.5-8.9-7.2-12.4-9.5C347.9,287,348.7,289.8,352.2,291.3Z"/><path class="cls-30" d="M332.6,269.5c1.9,3.7,2.4,10.6,2.9,12.9s10.7,10.2,11.5,9.8c2.2-1,.1-4.8-1.2-7.7a7.23,7.23,0,0,1-3.1-1.1c-2.5-1.7-6.8-8-7.2-11.8-.3-3.1-.1-7.4-1.8-9.3C331.9,263.9,331.1,266.5,332.6,269.5Z"/><polygon class="cls-22" points="284.4 186.1 327.8 186.1 340.9 153.6 297.6 153.6 284.4 186.1"/><polygon class="cls-23" points="328.4 184.8 271 184.8 271 186.1 327.8 186.1 328.4 184.8"/><path class="cls-15" d="M316.9,169.8a1.54,1.54,0,0,0-1.5-2.1,3.09,3.09,0,0,0-2.7,2.1,1.54,1.54,0,0,0,1.5,2.1A2.88,2.88,0,0,0,316.9,169.8Z"/><path class="cls-22" d="M234.7,185.9s5.7,5.3,29.4,6.1,54.7,27,55,34.4-47.8,18.7-48.6,17.6S240,217.4,240,217.4Z"/><path class="cls-23" d="M183.8,254.4c12.8-23,42,8.7,49.2-2s-10.3-24.4-26.1-36.1c-15.5-11.5-15.4-26.6-15.4-27.2-.5,4.5-.9,9.3-1.1,14.6C189.8,222.8,186,239.9,183.8,254.4Z"/><path class="cls-4" d="M144.5,24.7l-13.3-2.3-.3-.1a3.13,3.13,0,0,0-3.6,2.3l-3.1,10.9c-.1.2-.1.4-.2.5a3.2,3.2,0,0,1-3,1.8,56.77,56.77,0,0,0-22,3.5,2.92,2.92,0,0,1-.9.2,3.42,3.42,0,0,1-2.9-1.4l-5.3-7.8a3.42,3.42,0,0,0-3.1-1.4l-1.1.3L73.5,37.7A3.27,3.27,0,0,0,72,41.9l4.9,11.6a3.08,3.08,0,0,1-.6,3.4,47.84,47.84,0,0,0-3.4,4.2,54,54,0,0,0-5.1,8.6h0a3.17,3.17,0,0,1-3.2,1.8L51.9,70.4h-.6A3.17,3.17,0,0,0,47.9,73L45.6,86.6A3.17,3.17,0,0,0,48,90.3l12.1,3.5a3.21,3.21,0,0,1,2.3,3A56.17,56.17,0,0,0,66,113.9a3.28,3.28,0,0,1-1.2,3.8L55.5,124a3.45,3.45,0,0,0-1.1,4.3l6.5,12.3a3,3,0,0,0,4,1.4l13.6-5.8a3.21,3.21,0,0,1,3.4.5c1.2,1,2.4,2,3.7,2.9a64.54,64.54,0,0,0,7.4,4.6,3,3,0,0,1,1.7,3.1l-1.3,15.3a3.28,3.28,0,0,0,2.7,3.5l13.7,2.4a3.28,3.28,0,0,0,3.5-1.8c.1-.1.1-.3.2-.4l3.9-13.4a3.22,3.22,0,0,1,2.7-2.3h.3a3.4,3.4,0,0,0,1-.1,60.06,60.06,0,0,0,11.9-1.8,3,3,0,0,1,3.4,1.3l6.6,9.8a3.28,3.28,0,0,0,4.3,1l2.7-1.4,9.5-5a3.29,3.29,0,0,0,1.5-4.1l-4.8-11.4a3.23,3.23,0,0,1,.7-3.5,54.23,54.23,0,0,0,7-8,53.23,53.23,0,0,0,4.2-6.7l2.7.2,10.9.9a3.09,3.09,0,0,0,3.1-1.8,1.88,1.88,0,0,0,.2-.8l2.4-13.7a3.13,3.13,0,0,0-2.3-3.6l-8.3-2.4a3.13,3.13,0,0,1-2.3-3.2,56.58,56.58,0,0,0-2.3-17.8,3,3,0,0,1,1.3-3.5l11.7-7.9a3.14,3.14,0,0,0,1-4l-6.6-12.4a3,3,0,0,0-4-1.4l-14.1,6a3.44,3.44,0,0,1-3.6-.7,51.31,51.31,0,0,0-6.6-5.6c-1.3-.9-2.6-1.8-3.9-2.6a3.23,3.23,0,0,1-1.5-3l1.2-14.6C147.3,26.5,146.1,25,144.5,24.7ZM96,73.5a33,33,0,0,1,9.4-7.2q1.2-.6,2.7-1.2c4.3-1.5,10-2.2,13.9-1.5,30.1,5.3,36.4,42.6,10.2,57.6-.4.2-.9.5-1.3.7-4.1,2.2-11.3,3.3-16,2.5a35.66,35.66,0,0,1-6.8-1.8A30.38,30.38,0,0,1,96,73.5Z"/><path class="cls-4" d="M423,69.3l-8.5-1.5h-.2a2.07,2.07,0,0,0-2.3,1.5l-2,6.9c0,.1-.1.2-.1.3a2,2,0,0,1-1.9,1.1,35.16,35.16,0,0,0-14,2.2,1.27,1.27,0,0,1-.6.1,1.92,1.92,0,0,1-1.8-.9l-3.4-5a2,2,0,0,0-2-.9,1.85,1.85,0,0,0-.7.2l-7.8,4.1a2,2,0,0,0-.9,2.7l3.1,7.3a1.83,1.83,0,0,1-.4,2.1,27.82,27.82,0,0,0-2.1,2.7,43.38,43.38,0,0,0-3.3,5.4h0a2.2,2.2,0,0,1-2,1.2l-8.1-.7h-.4a2.06,2.06,0,0,0-2.2,1.7l-1.5,8.7a2.12,2.12,0,0,0,1.5,2.4l7.7,2.2a1.93,1.93,0,0,1,1.5,1.9,34.26,34.26,0,0,0,2.3,10.9,2,2,0,0,1-.8,2.4l-5.9,4a2.08,2.08,0,0,0-.7,2.7l4.1,7.8a2.07,2.07,0,0,0,2.6.9l8.6-3.7a2.19,2.19,0,0,1,2.2.3,20.28,20.28,0,0,0,2.3,1.8A33.08,33.08,0,0,0,390,145a2,2,0,0,1,1.1,2l-.8,9.7a2.08,2.08,0,0,0,1.7,2.2l8.7,1.5a2,2,0,0,0,2.2-1.2c0-.1.1-.2.1-.3l2.4-8.5a2,2,0,0,1,1.7-1.5h.8a33.4,33.4,0,0,0,7.6-1.2,2.1,2.1,0,0,1,2.2.8l4.2,6.2a2.08,2.08,0,0,0,2.7.7l1.7-.9,6-3.2a2.07,2.07,0,0,0,.9-2.6l-3.1-7.2a2,2,0,0,1,.5-2.2,31,31,0,0,0,4.4-5.1,38.65,38.65,0,0,0,2.7-4.3l1.7.1,6.9.6a1.88,1.88,0,0,0,2-1.2c.1-.2.1-.3.2-.5l1.5-8.7a2.07,2.07,0,0,0-1.5-2.3l-5.3-1.5a2,2,0,0,1-1.5-2,39.35,39.35,0,0,0-1.4-11.3,2,2,0,0,1,.8-2.3l7.4-5a2,2,0,0,0,.6-2.6l-4.2-7.9a2.07,2.07,0,0,0-2.6-.9l-9,3.8a2.14,2.14,0,0,1-2.3-.4,36.22,36.22,0,0,0-4.2-3.6c-.8-.6-1.7-1.1-2.5-1.7a2.06,2.06,0,0,1-1-1.9l.8-9.3C424.8,70.4,424.1,69.4,423,69.3Zm-30.8,31a21.71,21.71,0,0,1,6-4.6c.5-.3,1.1-.5,1.7-.8a18.49,18.49,0,0,1,8.9-.9c19.1,3.4,23.1,27.1,6.5,36.6a5.58,5.58,0,0,0-.8.5,18.48,18.48,0,0,1-10.1,1.6,27,27,0,0,1-4.3-1.1A19.36,19.36,0,0,1,392.2,100.3Z"/><polygon class="cls-31" points="289.7 45.9 340.1 42.7 303 27.3 302.8 34.7 291.4 39.4 289.7 45.9"/><polygon class="cls-15" points="340.1 42.7 295 30.2 254.7 36.5 340.1 42.7"/><polygon class="cls-15" points="303 27.3 340.1 42.7 307.7 13.3 303 27.3"/><polygon class="cls-31" points="900.4 35.4 941.3 32.8 911.2 20.4 911.1 26.4 901.8 30.2 900.4 35.4"/><polygon class="cls-15" points="941.3 32.8 904.7 22.7 871.9 27.8 941.3 32.8"/><polygon class="cls-15" points="911.2 20.4 941.3 32.8 915 9 911.2 20.4"/></g></g></g></svg>