<?xml version="1.0" encoding="utf-8"?>
<!-- Generator: Adobe Illustrator 26.0.2, SVG Export Plug-In . SVG Version: 6.00 Build 0)  -->
<svg version="1.1" id="Layer_1" xmlns="http://www.w3.org/2000/svg" xmlns:xlink="http://www.w3.org/1999/xlink" x="0px" y="0px"
	 viewBox="0 0 1245 300" style="enable-background:new 0 0 1245 300;" xml:space="preserve">
<style type="text/css">
	.st0{clip-path:url(#SVGID_00000178182038314503227770000014497352106111045531_);fill:#EBF3FA;}
	.st1{clip-path:url(#SVGID_00000178182038314503227770000014497352106111045531_);}
	.st2{fill:#BBD070;}
	.st3{fill:#97A43C;}
	.st4{fill:#CDE3FD;}
	.st5{fill:#230C1E;}
	.st6{fill:#82C3EC;}
	.st7{fill:#DCF4FF;}
	.st8{fill:#21111D;}
	.st9{opacity:0.6;}
	.st10{fill:#9BC1F9;}
	.st11{opacity:0.3;}
	.st12{fill:#D4EEF4;}
	.st13{fill:#EBFAFC;}
	.st14{fill:#2595AF;}
	.st15{fill:#FFFFFF;}
	.st16{fill:#3AA1C9;}
	.st17{fill:#223749;}
	.st18{fill:#4CB7D8;}
	.st19{opacity:0.5;}
	.st20{fill:#CAFBFF;}
	.st21{fill:#F3FFFE;}
	.st22{fill:#F99746;}
	.st23{fill:#ED7D2B;}
	.st24{fill:#233862;}
	.st25{fill:#FFB27D;}
	.st26{fill:#163560;}
	.st27{fill:#2A4E96;}
	.st28{fill:#F9DDBF;}
	.st29{fill:#F4A269;}
	.st30{fill:#2E3552;}
	.st31{fill:#9EC3F6;}
	.st32{fill:#48753A;}
	
		.st33{clip-path:url(#SVGID_00000178182038314503227770000014497352106111045531_);fill:none;stroke:#1D4B6D;stroke-width:5;stroke-miterlimit:10;}
</style>
<g>
	<defs>
		<rect id="SVGID_1_" width="1245" height="300"/>
	</defs>
	<clipPath id="SVGID_00000121976612349005839080000009720048809344147329_">
		<use xlink:href="#SVGID_1_"  style="overflow:visible;"/>
	</clipPath>
	<path style="clip-path:url(#SVGID_00000121976612349005839080000009720048809344147329_);fill:#EBF3FA;" d="M121.6,300.2
		c0,0-85.8-44-43.4-128.9c26.7-53.4,139.9-86.3,289-77.4c138,8.3,135.7-25,256.4-56.8c258.2-68,631.7-39.1,542.3,113.8
		c-43.3,74,136.1,75.2,46.9,149.2L121.6,300.2L121.6,300.2z"/>
	<g style="clip-path:url(#SVGID_00000121976612349005839080000009720048809344147329_);">
		<path class="st2" d="M72.9,272.2c0,0,18.3-10.3,9.7-24.2c0,0-6.8-8.5-14.2-10.7c0,0,4,20.7,0.1,21.2s-2.7-23.4-2.7-23.4
			s-19.3-9.2-26.8-8.5c0,0,12,20.2,8.1,19.7s-17.4-20.9-17.4-20.9s-19.8-3.6-22.9,8.1c-3.1,11.7,2,17.5,4.9,18.3
			c2.9,0.7,21.7,0.4,21.2,2.9c-0.5,2.4-13.1,6.4-20.2,4.2c0,0,7.9,19.2,18.1,18.2s13.4-7.4,19.7-7.9s11,1.2,7.8,2.9
			c-3.2,1.7-13.9,0.6-19,5s-9.2,7.1,0.3,9s26.6,0.7,30-6.7C72.9,272.2,72.9,272.2,72.9,272.2z"/>
		<g>
			<path class="st3" d="M15.8,237.2c0,0,51.2,16.4,57.1,34.9c0,0-0.2,8.3,4.9,17.8v3.7c0,0-5.4-12.4-8.3-14.1
				C69.5,279.5,80.9,263.4,15.8,237.2z"/>
			<path class="st3" d="M77.8,289.9c0,0,7.9,12,3.5,26.6l-2-0.5c0,0,1.9-16.1-2.2-24.1C72.9,283.7,77.8,289.9,77.8,289.9z"/>
		</g>
	</g>
	<g style="clip-path:url(#SVGID_00000121976612349005839080000009720048809344147329_);">
		<path class="st4" d="M894.7,56.8L883.9,55h-0.3c-1.3-0.2-2.6,0.6-3,1.9l-2.5,8.8c0,0.1-0.1,0.3-0.2,0.4c-0.5,0.9-1.4,1.5-2.4,1.5
			c-6.1-0.3-12.2,0.7-17.9,2.8c-0.2,0.1-0.5,0.1-0.7,0.2c-0.9,0.1-1.8-0.4-2.4-1.1l-4.3-6.4c-0.6-0.8-1.6-1.2-2.5-1.1
			c-0.3,0-0.6,0.1-0.9,0.3l-9.9,5.2c-1.2,0.6-1.8,2.1-1.2,3.4l4,9.4c0.4,0.9,0.2,2-0.5,2.7c-1,1.1-1.9,2.2-2.7,3.4
			c-1.6,2.2-3,4.6-4.2,7l0,0c-0.5,1-1.5,1.6-2.6,1.5L819.4,94h-0.5c-1.3-0.1-2.5,0.8-2.8,2.1l-1.9,11.1c-0.2,1.3,0.6,2.7,1.9,3
			l9.8,2.8c1.1,0.3,1.9,1.3,1.9,2.4c0.2,4.7,1.2,9.4,2.9,13.9c0.4,1.1,0,2.4-1,3.1l-7.5,5.1c-1.1,0.8-1.5,2.3-0.9,3.5l5.3,10
			c0.6,1.2,2,1.7,3.3,1.2l11-4.7c0.9-0.4,2-0.2,2.8,0.4c0.9,0.8,1.9,1.6,3,2.4c1.9,1.4,4,2.6,6,3.7c0.9,0.5,1.5,1.5,1.4,2.5
			l-1.1,12.4c-0.1,1.4,0.8,2.6,2.2,2.8l11.1,1.9c1.2,0.2,2.3-0.4,2.8-1.5c0-0.1,0.1-0.2,0.1-0.4l3.1-10.9c0.3-1,1.1-1.8,2.2-1.9
			c0.1,0,0.2,0,0.3,0c0.3,0,0.5,0,0.8,0c3.3-0.1,6.5-0.7,9.7-1.5c1.1-0.3,2.2,0.1,2.8,1.1l5.4,7.9c0.8,1.1,2.3,1.5,3.5,0.9l2.2-1.2
			l7.7-4.1c1.2-0.6,1.7-2.1,1.2-3.4l-3.9-9.2c-0.4-1-0.2-2.1,0.6-2.9c2-1.9,4-4.1,5.7-6.5c1.3-1.8,2.4-3.6,3.4-5.5l2.2,0.2l8.9,0.7
			c1.1,0.1,2.1-0.5,2.6-1.5c0.1-0.2,0.2-0.4,0.2-0.6l1.9-11.2c0.2-1.3-0.6-2.6-1.9-3l-6.7-1.9c-1.1-0.3-1.9-1.4-1.9-2.6
			c0.2-4.9-0.5-9.8-1.8-14.4c-0.3-1.1,0.1-2.3,1-2.9l9.5-6.4c1.1-0.7,1.4-2.1,0.8-3.3l-5.3-10.1c-0.6-1.2-2.1-1.7-3.3-1.2l-11.5,4.9
			c-1,0.4-2.1,0.2-2.9-0.6c-1.6-1.6-3.4-3.1-5.4-4.6c-1-0.8-2.1-1.5-3.2-2.1c-0.8-0.5-1.3-1.5-1.3-2.5l1-11.9
			C897,58.3,896.1,57.1,894.7,56.8z M855.3,96.4c2-2.2,4.6-4.2,7.6-5.9c0.6-0.4,1.4-0.7,2.2-1c3.5-1.2,8.1-1.8,11.3-1.2
			c24.4,4.3,29.5,34.6,8.3,46.8c-0.3,0.2-0.7,0.4-1.1,0.6c-3.4,1.8-9.2,2.7-13,2.1c-2-0.3-3.8-0.8-5.5-1.5
			C848.2,130,843.7,109.3,855.3,96.4z"/>
	</g>
	<g style="clip-path:url(#SVGID_00000121976612349005839080000009720048809344147329_);">
		<g>
			<g>
				<g>
					<g>
						<g>
							<rect x="995.4" y="205.2" class="st5" width="44.6" height="93.4"/>
						</g>
					</g>
				</g>
				<g>
					<g>
						<g>
							<path class="st5" d="M1152,239.2v-128c0-6.1-4.9-11-11-11H892.9c-6.1,0-11,4.9-11,11v128H1152z"/>
						</g>
					</g>
				</g>
				<g>
					<g>
						<g>
							<path class="st6" d="M881.9,239.2v20.5c0,4.3,2.8,7.7,6.3,7.7h257.5c3.5,0,6.3-3.5,6.3-7.7v-20.5L881.9,239.2L881.9,239.2z"
								/>
						</g>
					</g>
				</g>
				<g>
					<g>
						<g>
							<path class="st7" d="M1145.7,233.6v-122c0-3.2-2.7-5.8-6-5.8H894.2c-3.3,0-6,2.6-6,5.8v122.1L1145.7,233.6L1145.7,233.6z"/>
						</g>
					</g>
				</g>
				<g>
					<g>
						<g>
							<path class="st6" d="M1078,301.3c0.8-4.4-2.2-8-6.6-8H964.1c-4.4,0-8.6,3.6-9.4,8l0,0H1078z"/>
						</g>
					</g>
				</g>
				<g>
					<g>
						<g>
							<path class="st8" d="M1145.7,267.7H888.2c-3.7,0-6.6-3.6-6.6-8V111.2c0-6.2,5.1-11.3,11.3-11.3v0.6
								c-5.9,0-10.7,4.8-10.7,10.7v148.5c0,4.1,2.7,7.4,6,7.4h257.5V267.7L1145.7,267.7z"/>
						</g>
					</g>
				</g>
				<g>
					<g>
						<g>
							
								<rect x="1105.2" y="249.6" transform="matrix(0.583 -0.8125 0.8125 0.583 260.0028 1006.4147)" class="st8" width="10.5" height="0.6"/>
						</g>
					</g>
				</g>
				<g>
					<g>
						<g>
							
								<rect x="1105.2" y="253.8" transform="matrix(0.5937 -0.8047 0.8047 0.5937 246.7052 996.7069)" class="st8" width="10.3" height="0.6"/>
						</g>
					</g>
				</g>
				<g>
					<g>
						<g>
							
								<rect x="1004.6" y="271.8" transform="matrix(0.4962 -0.8682 0.8682 0.4962 271.4194 1011.9529)" class="st8" width="6.2" height="0.6"/>
						</g>
					</g>
				</g>
				<g>
					<g>
						<g>
							
								<rect x="1005.3" y="275.2" transform="matrix(0.506 -0.8625 0.8625 0.506 260.3204 1005.5323)" class="st8" width="5.5" height="0.6"/>
						</g>
					</g>
				</g>
				<g>
					<g>
						<g>
							<path class="st8" d="M1146,233.9H888.2v-0.6h257.1V111.6c0-3-2.5-5.5-5.7-5.5v-0.6c3.5,0,6.3,2.7,6.3,6.1L1146,233.9
								L1146,233.9z"/>
						</g>
					</g>
				</g>
			</g>
			<g>
				<g class="st9">
					<rect x="966.1" y="150.8" class="st10" width="11" height="73.5"/>
				</g>
				<g class="st9">
					<rect x="950.7" y="165.1" class="st10" width="11" height="59.2"/>
				</g>
				<g class="st9">
					<rect x="979.8" y="157.6" class="st10" width="11" height="66.8"/>
				</g>
				<g class="st9">
					<rect x="935.3" y="154.9" class="st10" width="11" height="69.4"/>
				</g>
				<g class="st9">
					<rect x="919.9" y="175.5" class="st10" width="11" height="48.8"/>
				</g>
				<g>
					<g class="st11">
						<rect x="966.1" y="158.7" class="st10" width="11" height="65.6"/>
					</g>
					<g class="st11">
						<rect x="950.7" y="178.7" class="st10" width="11" height="45.6"/>
					</g>
					<g class="st11">
						<rect x="979.8" y="172.9" class="st10" width="11" height="51.4"/>
					</g>
					<g class="st11">
						<rect x="935.3" y="170.9" class="st10" width="11" height="53.4"/>
					</g>
					<g class="st11">
						<rect x="919.9" y="186.8" class="st10" width="11" height="37.6"/>
					</g>
				</g>
			</g>
			<g>
				<g>
					<g>
						<g>
							<g>
								<rect x="1018.5" y="121.4" class="st7" width="115.1" height="96.6"/>
							</g>
						</g>
					</g>
				</g>
				<g>
					<g>
						<g>
							<g>
								<g>
									<rect x="1023.3" y="126.6" class="st12" width="91.2" height="4.6"/>
								</g>
							</g>
						</g>
					</g>
					<g>
						<g>
							<g>
								<g>
									<rect x="1023.3" y="150.8" class="st13" width="105.3" height="62"/>
								</g>
							</g>
						</g>
					</g>
					<g>
						<g>
							<g>
								<g>
									
										<ellipse transform="matrix(0.3827 -0.9239 0.9239 0.3827 571.8924 1113.634)" class="st12" cx="1119.3" cy="128.9" rx="2.3" ry="2.3"/>
								</g>
							</g>
						</g>
					</g>
					<g>
						<g>
							<g>
								<g>
									
										<ellipse transform="matrix(0.3827 -0.9239 0.9239 0.3827 576.2897 1120.1705)" class="st12" cx="1126.4" cy="128.8" rx="2.3" ry="2.3"/>
								</g>
							</g>
						</g>
					</g>
					<g>
						<g>
							<g>
								<g>
									<rect x="1043.1" y="139.1" class="st12" width="82.3" height="1.6"/>
								</g>
							</g>
						</g>
					</g>
					<g>
						<g>
							<g>
								<g>
									<rect x="1043.1" y="144.2" class="st12" width="82.3" height="1.6"/>
								</g>
							</g>
						</g>
					</g>
					<g>
						<g>
							<g>
								<g>
									<path class="st12" d="M1092.1,156.3h-65c-0.4,0-0.7-0.3-0.7-0.7l0,0c0-0.4,0.3-0.7,0.7-0.7h65c0.4,0,0.7,0.3,0.7,0.7l0,0
										C1092.8,156,1092.5,156.3,1092.1,156.3z"/>
								</g>
							</g>
						</g>
					</g>
					<g>
						<g>
							<g>
								<g>
									<path class="st12" d="M1092.1,160.7h-65c-0.4,0-0.7-0.3-0.7-0.7l0,0c0-0.4,0.3-0.7,0.7-0.7h65c0.4,0,0.7,0.3,0.7,0.7l0,0
										C1092.8,160.4,1092.5,160.7,1092.1,160.7z"/>
								</g>
							</g>
						</g>
					</g>
					<g>
						<g>
							<g>
								<g>
									<path class="st12" d="M1092.1,165.1h-65c-0.4,0-0.7-0.3-0.7-0.7l0,0c0-0.4,0.3-0.7,0.7-0.7h65c0.4,0,0.7,0.3,0.7,0.7l0,0
										C1092.8,164.8,1092.5,165.1,1092.1,165.1z"/>
								</g>
							</g>
						</g>
					</g>
					<g>
						<g>
							<g>
								<g>
									<path class="st12" d="M1092.1,173.9h-65c-0.4,0-0.7-0.3-0.7-0.7l0,0c0-0.4,0.3-0.7,0.7-0.7h65c0.4,0,0.7,0.3,0.7,0.7l0,0
										C1092.8,173.6,1092.5,173.9,1092.1,173.9z"/>
								</g>
							</g>
						</g>
					</g>
					<g>
						<g>
							<g>
								<g>
									<path class="st12" d="M1092.1,178.3h-65c-0.4,0-0.7-0.3-0.7-0.7l0,0c0-0.4,0.3-0.7,0.7-0.7h65c0.4,0,0.7,0.3,0.7,0.7l0,0
										C1092.8,178,1092.5,178.3,1092.1,178.3z"/>
								</g>
							</g>
						</g>
					</g>
					<g>
						<g>
							<g>
								<g>
									<path class="st12" d="M1092.1,182.7h-65c-0.4,0-0.7-0.3-0.7-0.7l0,0c0-0.4,0.3-0.7,0.7-0.7h65c0.4,0,0.7,0.3,0.7,0.7l0,0
										C1092.8,182.4,1092.5,182.7,1092.1,182.7z"/>
								</g>
							</g>
						</g>
					</g>
					<g>
						<g>
							<g>
								<g>
									<path class="st12" d="M1092.1,191.6h-65c-0.4,0-0.7-0.3-0.7-0.7l0,0c0-0.4,0.3-0.7,0.7-0.7h65c0.4,0,0.7,0.3,0.7,0.7l0,0
										C1092.8,191.2,1092.5,191.6,1092.1,191.6z"/>
								</g>
							</g>
						</g>
					</g>
					<g>
						<g>
							<g>
								<g>
									<path class="st12" d="M1092.1,196h-65c-0.4,0-0.7-0.3-0.7-0.7l0,0c0-0.4,0.3-0.7,0.7-0.7h65c0.4,0,0.7,0.3,0.7,0.7l0,0
										C1092.8,195.6,1092.5,196,1092.1,196z"/>
								</g>
							</g>
						</g>
					</g>
					<g>
						<g>
							<g>
								<g>
									<rect x="1097" y="154.8" class="st12" width="27.7" height="24.8"/>
								</g>
							</g>
						</g>
					</g>
					<g>
						<g>
							<g>
								<g>
									<rect x="1097" y="186.2" class="st12" width="27.7" height="9.8"/>
								</g>
							</g>
						</g>
					</g>
					<g>
						<g>
							<g>
								<g>
									<polygon class="st12" points="1122.7,173.9 1118,166.1 1111.1,169.1 1106.4,159.2 1099.4,173.9 									"/>
								</g>
							</g>
						</g>
					</g>
					<g>
						<g>
							<g>
								<g>
									
										<ellipse transform="matrix(0.9732 -0.2298 0.2298 0.9732 -7.2916 260.4133)" class="st12" cx="1114.4" cy="161.5" rx="2.1" ry="2.1"/>
								</g>
							</g>
						</g>
					</g>
				</g>
				<g class="st9">
					<g>
						<path class="st14" d="M1018.6,118.3v3.1h115.1v-3.1c0-1.7-1.4-3.1-3.1-3.1h-108.9C1020,115.2,1018.6,116.6,1018.6,118.3z"/>
					</g>
				</g>
				<g>
					<g class="st9">
						<path class="st14" d="M1133.6,220.5v-3.1h-115.1v3.1c0,1.7,1.4,3.1,3.1,3.1h108.9C1132.3,223.6,1133.6,222.2,1133.6,220.5z"/>
					</g>
				</g>
				<g>
					<g>
						<path class="st12" d="M1129.1,118.3c0,0.6,0.5,1.1,1.1,1.1s1.1-0.5,1.1-1.1s-0.5-1.1-1.1-1.1S1129.1,117.7,1129.1,118.3z"/>
					</g>
				</g>
				<g>
					<g>
						<g>
							<path class="st12" d="M1124.8,118.3c0,0.6,0.5,1.1,1.1,1.1s1.1-0.5,1.1-1.1s-0.5-1.1-1.1-1.1
								C1125.3,117.2,1124.8,117.7,1124.8,118.3z"/>
						</g>
					</g>
					<g>
						<g>
							<circle class="st12" cx="1121.8" cy="118.3" r="1.1"/>
						</g>
					</g>
				</g>
			</g>
			<g>
				<g>
					<g>
						<g>
							<polygon class="st15" points="1073.2,78.9 1073.2,169.5 1005.7,169.5 1005.7,93.8 1020.3,78.9 							"/>
						</g>
					</g>
				</g>
				<g>
					<g>
						<g>
							<polygon class="st16" points="1005.7,93.9 1020.2,78.9 1020.2,93.9 							"/>
						</g>
					</g>
				</g>
				<g>
					<g>
						<g>
							<path class="st16" d="M1026.8,90.2h29.4c0.4,0,0.8-0.3,0.8-0.8l0,0c0-0.4-0.3-0.8-0.8-0.8h-29.4c-0.4,0-0.8,0.3-0.8,0.8l0,0
								C1026,89.9,1026.3,90.2,1026.8,90.2z"/>
						</g>
					</g>
				</g>
				<g>
					<g>
						<g>
							<path class="st16" d="M1022.7,96.1h37.5c0.4,0,0.8-0.3,0.8-0.8l0,0c0-0.4-0.3-0.8-0.8-0.8h-37.5c-0.4,0-0.8,0.3-0.8,0.8l0,0
								C1022,95.8,1022.3,96.1,1022.7,96.1z"/>
						</g>
					</g>
				</g>
				<g>
					<g>
						<g>
							<path class="st16" d="M1012.8,110.3h54.3c0.4,0,0.8-0.3,0.8-0.8l0,0c0-0.4-0.3-0.8-0.8-0.8h-54.3c-0.4,0-0.8,0.3-0.8,0.8l0,0
								C1012,109.9,1012.4,110.3,1012.8,110.3z"/>
						</g>
					</g>
				</g>
				<g>
					<g>
						<g>
							<path class="st16" d="M1012.8,117h54.3c0.4,0,0.8-0.3,0.8-0.8l0,0c0-0.4-0.3-0.8-0.8-0.8h-54.3c-0.4,0-0.8,0.3-0.8,0.8l0,0
								C1012,116.6,1012.4,117,1012.8,117z"/>
						</g>
					</g>
				</g>
				<g>
					<g>
						<g>
							<path class="st16" d="M1012.8,123.6h54.3c0.4,0,0.8-0.3,0.8-0.8l0,0c0-0.4-0.3-0.8-0.8-0.8h-54.3c-0.4,0-0.8,0.3-0.8,0.8l0,0
								C1012,123.3,1012.4,123.6,1012.8,123.6z"/>
						</g>
					</g>
				</g>
				<g>
					<g>
						<g>
							<path class="st16" d="M1012.8,131.3h54.3c0.4,0,0.8-0.3,0.8-0.8l0,0c0-0.4-0.3-0.8-0.8-0.8h-54.3c-0.4,0-0.8,0.3-0.8,0.8l0,0
								C1012,130.9,1012.4,131.3,1012.8,131.3z"/>
						</g>
					</g>
				</g>
				<g>
					<g>
						<g>
							<path class="st16" d="M1012.8,138h54.3c0.4,0,0.8-0.3,0.8-0.8l0,0c0-0.4-0.3-0.8-0.8-0.8h-54.3c-0.4,0-0.8,0.3-0.8,0.8l0,0
								C1012,137.6,1012.4,138,1012.8,138z"/>
						</g>
					</g>
				</g>
				<g>
					<g>
						<g>
							<path class="st16" d="M1012.8,160.9h54.3c0.4,0,0.8-0.3,0.8-0.8l0,0c0-0.4-0.3-0.8-0.8-0.8h-54.3c-0.4,0-0.8,0.3-0.8,0.8l0,0
								C1012,160.6,1012.4,160.9,1012.8,160.9z"/>
						</g>
					</g>
				</g>
				<g>
					<g>
						<g>
							<path class="st16" d="M1012.8,155.5h54.3c0.4,0,0.8-0.3,0.8-0.8l0,0c0-0.4-0.3-0.8-0.8-0.8h-54.3c-0.4,0-0.8,0.3-0.8,0.8l0,0
								C1012,155.1,1012.4,155.5,1012.8,155.5z"/>
						</g>
					</g>
				</g>
			</g>
		</g>
		<g>
			<g>
				<g>
					<g>
						<g>
							<g>
								<path class="st17" d="M1113.9,119l5.4-6.7l0.4-0.4l5.4-6.7l80.1,55.7c2.3,1.6,2.7,4.7,1,6.9l-13.7,17
									c-1.7,2.1-4.9,2.4-6.9,0.5L1113.9,119z"/>
							</g>
						</g>
					</g>
				</g>
				<g>
					<g>
						<g>
							<g>
								<path class="st18" d="M1115,121l12.2-15.2c1-1.3,0.8-3.1-0.4-4.1l-7.4-5.9l-15.9,19.8l7.4,5.9
									C1112.1,122.5,1113.9,122.3,1115,121z"/>
							</g>
						</g>
					</g>
				</g>
				<g>
					<g>
						<g>
							<g>
								<path class="st8" d="M1118.2,117.6l8.7-10.8c1.5-1.9,1.2-4.7-0.7-6.2l-6.5-5.3l-0.5,0.7l6.5,5.3c1.5,1.2,1.8,3.5,0.5,5
									l-8.7,10.8L1118.2,117.6z"/>
							</g>
						</g>
					</g>
				</g>
				<g class="st19">
					<g>
						<g>
							<g>
								<path class="st20" d="M1045.8,112.2c22.7,18.3,57.4,11.6,71-16.3c7.7-15.8,5.7-34.6-5.3-48.4c-19.4-24.3-54.6-23.3-72.9-0.6
									C1022.7,66.9,1025.8,96.1,1045.8,112.2z"/>
							</g>
						</g>
					</g>
				</g>
				<g class="st19">
					<g>
						<g>
							<g>
								
									<ellipse transform="matrix(0.9941 -0.1081 0.1081 0.9941 -2.3575 113.5113)" class="st21" cx="1045.8" cy="78.5" rx="8.3" ry="17.4"/>
							</g>
						</g>
					</g>
				</g>
				<g>
					<g>
						<g>
							<g>
								
									<rect x="1166" y="85.7" transform="matrix(0.5694 -0.8221 0.8221 0.5694 392.027 1016.6279)" class="st8" width="0.8" height="96.9"/>
							</g>
						</g>
					</g>
				</g>
				<g>
					<g>
						<g>
							<g>
								<path class="st8" d="M1070.8,36v-0.8c-0.1,0-10.7-0.1-18.6,6.3l0.5,0.7C1060.4,35.9,1070.6,36,1070.8,36z"/>
							</g>
						</g>
					</g>
				</g>
				<g>
					<g>
						<g>
							<g>
								<path class="st8" d="M1073.1,41.4v-0.8c-0.1,0-10.7-0.1-18.6,6.3l0.5,0.7C1062.8,41.2,1073,41.4,1073.1,41.4z"/>
							</g>
						</g>
					</g>
				</g>
				<g>
					<g>
						<g>
							<path class="st18" d="M1111,105.1c-16.1,20-45.3,23.1-65.2,7.1c-20-16.1-23.1-45.3-7.1-65.2c16.1-20,45.3-23.1,65.2-7.1
								C1123.9,55.9,1127.1,85.1,1111,105.1z M1108.6,34.1c-23.2-18.6-57-14.9-75.6,8.2c-18.6,23.2-14.9,57,8.2,75.6
								c23.2,18.6,57,14.9,75.6-8.2C1135.4,86.6,1131.7,52.7,1108.6,34.1z"/>
						</g>
					</g>
				</g>
				<g>
					<g>
						<g>
							<g>
								<path class="st8" d="M1117.1,110c18.7-23.3,15-57.5-8.3-76.2s-57.5-15-76.2,8.3c-8.8,10.9-13,24.6-11.8,38.6l0.8-0.1
									c-1.2-13.7,2.9-27.2,11.6-38c18.4-22.9,52.1-26.6,75-8.2s26.6,52.1,8.2,75c-8.6,10.6-20.7,17.5-34.2,19.4l0.1,0.8
									C1096.1,127.8,1108.4,120.8,1117.1,110z"/>
							</g>
						</g>
					</g>
				</g>
			</g>
		</g>
	</g>
	<g style="clip-path:url(#SVGID_00000121976612349005839080000009720048809344147329_);">
		<g>
			<path class="st22" d="M197.8,299.6l176.4,0.4c26.2-30.1,28.9-70.7-6-104.9c-4.4-4.3-12.8-7.4-21.9-9.5c-16.7-4-35.7-4.9-35.8-4.9
				c-0.1,0-10-8.1-16-15.3c-18.6-22.5-34.5-20.6-34.5-20.6c-19-3.7-35.2-4.8-47.2,1.9l0,0c-11.1,6.2-18.6,19.1-21.4,42.7
				c-0.5,4.5-0.9,9.3-1.1,14.6c-0.7,19.2-4.5,36.3-6.7,50.7l0,0C180.5,275.7,180.5,291.2,197.8,299.6z"/>
		</g>
		<path class="st23" d="M222.4,170.4c11.5,6.3,12.8,26.9,30.8,32.3s48.6,4.8,66,23.6c16.7,18.2,35.2-28,27.2-41
			c-16.7-4-35.7-4.9-35.8-4.9c-0.1,0-10-8.1-16-15.3c-18.6-22.5-34.5-20.6-34.5-20.6c-19-3.7-35.2-4.8-47.2,1.9l0,0
			C206.9,153,210.9,164.2,222.4,170.4z"/>
		<g>
			<path class="st24" d="M293.1,176.4c0,0,57.8-0.8,65.5,4.2c7.7,4.9-7.9,83.2-7.9,83.2s-14.9,0.4-16.1-3.5c0,0,2.8-36.7,0.5-43
				s-0.9-15.1-0.9-15.1s-29.2,4.4-38.5,2.2C286.3,202,293.1,176.4,293.1,176.4z"/>
			<path class="st25" d="M279.7,135.9c0,0,8.1,19,12.1,21s18.3,18.5,21.4,18.2s-3.6,2.5-3.6,2.5S284.5,166,283,165.3
				s-9.1-13.4-10.2-19.8C271.8,139.1,279.7,135.9,279.7,135.9z"/>
			<path class="st25" d="M332.6,269.5c1.9,3.7,2.4,10.6,2.9,12.9c0.6,2.3,10.7,10.2,11.5,9.8c2.2-1,0.1-4.8-1.2-7.7
				c-0.1-0.1-0.1-0.2-0.2-0.3c-1.3-2.8-0.2-9.2-0.9-12.4c-0.7-3.3,2.6-12.1,2.6-12.1l-5.6-7c0,0-3.9,7.5-6.7,8.8
				c-0.5,0.2-1,0.5-1.4,0.9C331.9,263.9,331.1,266.5,332.6,269.5z"/>
			<path class="st25" d="M352.2,291.3c3.9,1.6,8.6,6.5,10.5,7.9s14.7,0.9,15.1,0c1.1-2.3-3.4-3.9-6.2-5.2c0,0-0.1,0-0.1-0.1l0,0
				c-2.8-1.4-6-6.8-8.6-8.9s-5.8-10.9-5.8-10.9l-8.8-1.8c0,0,1.8,8.2,0.6,11.1c-0.1,0.3-0.2,0.5-0.3,0.8
				C347.9,287,348.7,289.8,352.2,291.3z"/>
			<path class="st26" d="M263.1,127.5c1.2-1.4-17.4-7-21.4,8.3c0,0-34.2-9.1-13.2-24.3c7.3-5.3,8-10.9,9.1-16.1
				c1-5.2,8.3-19.9,20.9-12.6c0,0,5.8,0,9.4,3.2C276.2,93.2,285.3,138.8,263.1,127.5z"/>
			<path class="st27" d="M268.9,179c0,0,59.9,6.1,65.2,12.2c5.3,6.1,26,85.6,26,85.6s-6.1,3.4-11.7,0.2c0,0-15.9-27-22.9-35.4
				c-7-8.5-9.6-34.6-10.8-34.9c-1.2-0.3-38.7,5.2-51.6-4.7C250.2,192.2,268.9,179,268.9,179z"/>
			<path class="st28" d="M235.6,124.7c0,0,14.3-6.4,32.4-3.5c3.7,0.6,7,1.8,9.7,6.2c3.7,6.2,5.5,9.5,5.5,9.5s-0.4,2.9-5.5,5.1
				c1.4,5.1-1.3,14,1.2,17.5s17.7,12,18.4,16.8c1.4,8.8-26,24.7-34.2,23C239.6,194.4,223.6,131.4,235.6,124.7z"/>
			<path class="st26" d="M243.7,106.6c0,0-2.8-5.5-3.2-10.1c-0.3-3.3,2.5-14.9,14.2-12.1c0,0,3.4,0.7,6.5,3.2c2.4,2,5.8,6.1,0.7,16
				l-1.4,3.4L243.7,106.6z"/>
			<g>
				<path class="st25" d="M259.7,125.3c1.2,1.2,0.7,5.4-4.8,5.1c-3.6-0.2-11.5-4.7-10.7-7.8c0.3-1.5,3.1-5.3,3.8-14.1l0.7,0.2
					l11.1,3.1c0,0-0.5,3.5-0.8,6.9C258.8,121.5,259.3,124.8,259.7,125.3z"/>
				<path class="st29" d="M259.8,111.8c0,0-0.5,3.5-0.8,6.9c-6.3-0.7-9.2-6.7-10.3-10L259.8,111.8z"/>
				<path class="st25" d="M260,116.9c0,0-14.6-3.7-12.1-12.7c2.4-9,2.2-15.6,11.6-13.6c9.4,2,10.3,5.9,10.2,9.1
					C269.6,102.9,263.9,117.7,260,116.9z"/>
				<path class="st26" d="M266.1,92.2c0,0-4.9,9.3-14.1,10.3c-5.4,0.6-6.9,4.1-6.9,4.1s1.6-10.2,4.3-16.4
					C249.5,90.3,264.5,86.3,266.1,92.2z"/>
				<path class="st26" d="M264.4,93.4c0,0,3.2,3.3,4.2,5.5c1.5,3.4-1.4,10.6-2.6,12.1c0,0,6.8-11.5,4.5-16.5
					C268.2,89.3,264.4,93.4,264.4,93.4z"/>
			</g>
			<path class="st25" d="M308.9,177.3c0,0,2.9,3.1,3.3,3.2c1.9,0.9,4.3,0.4,5.5,0.7s1-0.4,0.1-1s-3-0.4-2.1-0.6s5.6-1.1,7.3-0.6
				c2.8,0.7,5-0.1,5.2-0.4c0.2-0.3-6.4-3.5-8.3-3.4s-7.3-0.1-7.3-0.1L308.9,177.3z"/>
			<path class="st25" d="M230.7,130.3c0,0-1.7,42.7,3.3,48.7c5,5.9,35.5-0.7,35.5-0.7l2.1-3.1c0,0-27.1-4-29-4.5
				c-2.6-0.7-0.8-30.1-0.8-30.1L230.7,130.3z"/>
			<path class="st28" d="M237.4,124c-0.4,0-5.8,1.8-9.7,9.5c-3.8,7.5-5.2,11.2-5.2,11.2s16.9,13.1,23.6,8.3
				C252.8,148.1,243.6,123.8,237.4,124z"/>
			<path class="st25" d="M269.5,178.4c0,0,2.4,2.5,3.4,3.7c0.9,1.3,7.4,3.5,7.5,2.9s-2.9-2.7-3.2-3.5c-0.3-0.8-3.6-4.6-5.6-5
				C269.6,176,269.5,178.4,269.5,178.4z"/>
			<path class="st25" d="M271.6,175.3c0,0,10,2.3,11.7,3s5.3,5.8,3.9,6.5c-0.9,0.5-4.8-1.6-6.8-2s-7.7,0.6-10.2-4.6
				C269.7,177.6,271.6,175.3,271.6,175.3z"/>
			<path class="st30" d="M352.2,291.3c3.9,1.6,8.6,6.5,10.5,7.9s14.7,0.9,15.1,0c1.1-2.3-3.4-3.9-6.2-5.2c0,0-0.1,0-0.1-0.1l0,0
				l-0.4-0.1c0,0-5.5,2-10.1,0c-3.6-1.5-8.9-7.2-12.4-9.5C347.9,287,348.7,289.8,352.2,291.3z"/>
			<path class="st30" d="M332.6,269.5c1.9,3.7,2.4,10.6,2.9,12.9c0.6,2.3,10.7,10.2,11.5,9.8c2.2-1,0.1-4.8-1.2-7.7
				c-0.8-0.1-1.8-0.3-3.1-1.1c-2.5-1.7-6.8-8-7.2-11.8c-0.3-3.1-0.1-7.4-1.8-9.3C331.9,263.9,331.1,266.5,332.6,269.5z"/>
			<g>
				<g>
					<polygon class="st22" points="284.4,186.1 327.8,186.1 340.9,153.6 297.6,153.6 					"/>
					<polygon class="st23" points="328.4,184.8 271,184.8 271,186.1 327.8,186.1 					"/>
				</g>
				<path class="st15" d="M316.9,169.8c0.3-1.1-0.3-2.1-1.5-2.1c-1.1,0-2.3,0.9-2.7,2.1c-0.3,1.1,0.3,2.1,1.5,2.1
					C315.4,171.9,316.6,171,316.9,169.8z"/>
			</g>
		</g>
		<path class="st22" d="M234.7,185.9c0,0,5.7,5.3,29.4,6.1s54.7,27,55,34.4s-47.8,18.7-48.6,17.6c-0.7-1.1-30.5-26.6-30.5-26.6
			L234.7,185.9z"/>
		<path class="st23" d="M183.8,254.4c12.8-23,42,8.7,49.2-2c7.3-10.7-10.3-24.4-26.1-36.1c-15.5-11.5-15.4-26.6-15.4-27.2
			c-0.5,4.5-0.9,9.3-1.1,14.6C189.8,222.8,186,239.9,183.8,254.4z"/>
	</g>
	<g style="clip-path:url(#SVGID_00000121976612349005839080000009720048809344147329_);">
		<path class="st4" d="M144.5,24.7l-13.3-2.3l-0.3-0.1c-1.6-0.3-3.2,0.7-3.6,2.3l-3.1,10.9c-0.1,0.2-0.1,0.4-0.2,0.5
			c-0.6,1.1-1.7,1.9-3,1.8c-7.5-0.3-15,0.9-22,3.5c-0.3,0.1-0.6,0.2-0.9,0.2c-1.1,0.1-2.2-0.5-2.9-1.4l-5.3-7.8
			c-0.7-1-1.9-1.5-3.1-1.4c-0.4,0.1-0.7,0.2-1.1,0.3l-12.2,6.5c-1.5,0.8-2.2,2.6-1.5,4.2l4.9,11.6c0.5,1.1,0.3,2.5-0.6,3.4
			c-1.2,1.3-2.3,2.7-3.4,4.2c-2,2.8-3.7,5.6-5.1,8.6l0,0c-0.6,1.2-1.9,2-3.2,1.8l-12.7-1.1h-0.6c-1.6-0.2-3.1,1-3.4,2.6l-2.3,13.6
			c-0.3,1.7,0.7,3.3,2.4,3.7l12.1,3.5c1.3,0.4,2.3,1.6,2.3,3c0.3,5.8,1.5,11.6,3.6,17.1c0.5,1.4,0,3-1.2,3.8l-9.3,6.3
			c-1.4,1-1.8,2.8-1.1,4.3l6.5,12.3c0.8,1.5,2.5,2.1,4,1.4l13.6-5.8c1.2-0.5,2.5-0.3,3.4,0.5c1.2,1,2.4,2,3.7,2.9
			c2.4,1.7,4.9,3.3,7.4,4.6c1.2,0.6,1.9,1.8,1.7,3.1l-1.3,15.3c-0.1,1.7,1,3.2,2.7,3.5l13.7,2.4c1.5,0.2,2.9-0.5,3.5-1.8
			c0.1-0.1,0.1-0.3,0.2-0.4l3.9-13.4c0.4-1.2,1.4-2.2,2.7-2.3c0.1,0,0.2,0,0.3,0c0.3,0,0.7,0,1-0.1c4-0.2,8-0.8,11.9-1.8
			c1.3-0.4,2.7,0.2,3.4,1.3l6.6,9.8c0.9,1.4,2.8,1.8,4.3,1l2.7-1.4l9.5-5c1.5-0.8,2.1-2.6,1.5-4.1l-4.8-11.4
			c-0.5-1.2-0.2-2.6,0.7-3.5c2.5-2.4,4.9-5,7-8c1.6-2.2,3-4.4,4.2-6.7l2.7,0.2l10.9,0.9c1.3,0.1,2.6-0.6,3.1-1.8
			c0.1-0.2,0.2-0.5,0.2-0.8l2.4-13.7c0.3-1.6-0.7-3.2-2.3-3.6l-8.3-2.4c-1.4-0.4-2.4-1.7-2.3-3.2c0.2-6-0.6-12-2.3-17.8
			c-0.4-1.4,0.1-2.8,1.3-3.5l11.7-7.9c1.3-0.9,1.7-2.6,1-4l-6.6-12.4c-0.8-1.5-2.5-2.1-4-1.4l-14.1,6c-1.2,0.5-2.6,0.2-3.6-0.7
			c-2-2-4.2-3.9-6.6-5.6c-1.3-0.9-2.6-1.8-3.9-2.6c-1-0.6-1.6-1.8-1.5-3l1.2-14.6C147.3,26.5,146.1,25,144.5,24.7z M96,73.5
			c2.5-2.8,5.6-5.2,9.4-7.2c0.8-0.4,1.7-0.8,2.7-1.2c4.3-1.5,10-2.2,13.9-1.5c30.1,5.3,36.4,42.6,10.2,57.6
			c-0.4,0.2-0.9,0.5-1.3,0.7c-4.1,2.2-11.3,3.3-16,2.5c-2.4-0.4-4.7-1-6.8-1.8C87.2,114.8,81.7,89.3,96,73.5z"/>
	</g>
	<g style="clip-path:url(#SVGID_00000121976612349005839080000009720048809344147329_);">
		<path class="st4" d="M423,69.3l-8.5-1.5h-0.2c-1-0.2-2,0.5-2.3,1.5l-2,6.9c0,0.1-0.1,0.2-0.1,0.3c-0.4,0.7-1.1,1.2-1.9,1.1
			c-4.8-0.2-9.5,0.5-14,2.2c-0.2,0.1-0.4,0.1-0.6,0.1c-0.7,0.1-1.4-0.3-1.8-0.9l-3.4-5c-0.4-0.7-1.2-1-2-0.9c-0.2,0-0.5,0.1-0.7,0.2
			l-7.8,4.1c-1,0.5-1.4,1.7-0.9,2.7l3.1,7.3c0.3,0.7,0.2,1.6-0.4,2.1c-0.7,0.9-1.5,1.7-2.1,2.7c-1.3,1.7-2.3,3.6-3.3,5.4l0,0
			c-0.4,0.8-1.2,1.2-2,1.2l-8.1-0.7h-0.4c-1-0.1-2,0.6-2.2,1.7l-1.5,8.7c-0.2,1.1,0.5,2.1,1.5,2.4l7.7,2.2c0.9,0.2,1.5,1,1.5,1.9
			c0.2,3.7,0.9,7.4,2.3,10.9c0.3,0.9,0,1.9-0.8,2.4l-5.9,4c-0.9,0.6-1.2,1.8-0.7,2.7l4.1,7.8c0.5,0.9,1.6,1.3,2.6,0.9l8.6-3.7
			c0.7-0.3,1.6-0.2,2.2,0.3c0.7,0.6,1.5,1.3,2.3,1.8c1.5,1.1,3.1,2.1,4.7,2.9c0.7,0.4,1.2,1.1,1.1,2l-0.8,9.7
			c-0.1,1.1,0.7,2,1.7,2.2l8.7,1.5c0.9,0.2,1.8-0.3,2.2-1.2c0-0.1,0.1-0.2,0.1-0.3l2.4-8.5c0.2-0.8,0.9-1.4,1.7-1.5
			c0.1,0,0.1,0,0.2,0c0.2,0,0.4,0,0.6,0c2.5-0.1,5.1-0.5,7.6-1.2c0.8-0.2,1.7,0.1,2.2,0.8l4.2,6.2c0.6,0.9,1.8,1.2,2.7,0.7l1.7-0.9
			l6-3.2c0.9-0.5,1.3-1.6,0.9-2.6l-3.1-7.2c-0.3-0.8-0.1-1.7,0.5-2.2c1.6-1.5,3.1-3.2,4.4-5.1c1-1.4,1.9-2.8,2.7-4.3l1.7,0.1
			l6.9,0.6c0.9,0.1,1.7-0.4,2-1.2c0.1-0.2,0.1-0.3,0.2-0.5l1.5-8.7c0.2-1-0.5-2-1.5-2.3l-5.3-1.5c-0.9-0.2-1.5-1.1-1.5-2
			c0.1-3.8-0.4-7.6-1.4-11.3c-0.3-0.9,0.1-1.8,0.8-2.3l7.4-5c0.8-0.6,1.1-1.7,0.6-2.6l-4.2-7.9c-0.5-0.9-1.6-1.3-2.6-0.9l-9,3.8
			c-0.8,0.3-1.7,0.2-2.3-0.4c-1.3-1.3-2.7-2.5-4.2-3.6c-0.8-0.6-1.7-1.1-2.5-1.7c-0.7-0.4-1-1.1-1-1.9l0.8-9.3
			C424.8,70.4,424.1,69.4,423,69.3z M392.2,100.3c1.6-1.8,3.6-3.3,6-4.6c0.5-0.3,1.1-0.5,1.7-0.8c2.8-1,6.4-1.4,8.9-0.9
			c19.1,3.4,23.1,27.1,6.5,36.6c-0.3,0.2-0.6,0.3-0.8,0.5c-2.6,1.4-7.2,2.1-10.1,1.6c-1.5-0.3-3-0.6-4.3-1.1
			C386.6,126.5,383.1,110.3,392.2,100.3z"/>
	</g>
	<g style="clip-path:url(#SVGID_00000121976612349005839080000009720048809344147329_);">
		<polygon class="st31" points="289.7,45.9 340.1,42.7 303,27.3 302.8,34.7 291.4,39.4 		"/>
		<polygon class="st15" points="340.1,42.7 295,30.2 254.7,36.5 		"/>
		<polygon class="st15" points="303,27.3 340.1,42.7 307.7,13.3 		"/>
	</g>
	<g style="clip-path:url(#SVGID_00000121976612349005839080000009720048809344147329_);">
		<polygon class="st31" points="900.4,35.4 941.3,32.8 911.2,20.4 911.1,26.4 901.8,30.2 		"/>
		<polygon class="st15" points="941.3,32.8 904.7,22.7 871.9,27.8 		"/>
		<polygon class="st15" points="911.2,20.4 941.3,32.8 915,9 		"/>
	</g>
	<g style="clip-path:url(#SVGID_00000121976612349005839080000009720048809344147329_);">
		<path class="st3" d="M86.7,286.3c0,0-11.6-6.4-6.2-15.2c0,0,4.3-5.4,8.9-6.8c0,0-2.4,13.1,0,13.4c2.5,0.3,1.7-14.8,1.7-14.8
			s12.2-5.9,16.9-5.4c0,0-7.5,12.8-5,12.5s10.9-13.3,10.9-13.3s12.5-2.3,14.5,5c2,7.4-1.2,11.1-3.1,11.6c-1.8,0.5-13.7,0.3-13.4,1.9
			c0.3,1.5,8.3,4,12.8,2.6c0,0-4.9,12.2-11.4,11.6s-8.5-4.6-12.5-4.9s-6.9,0.8-4.9,1.9s8.8,0.3,12,3.1c3.2,2.7,5.9,4.4-0.1,5.7
			c-6,1.2-16.8,0.5-19-4.1C86.7,286.3,86.7,286.3,86.7,286.3z"/>
		<g>
			<path class="st32" d="M122.6,264c7.6-2.5-34.7,18.3-36,22.3c0,0,0.2,5.2-3.1,11.3v2.3c0,0,3.4-7.9,5.2-9
				C88.8,290.9,81.6,280.7,122.6,264z"/>
			<path class="st32" d="M83.6,297.5c0,0-3,9.6-0.1,18.8l1.3-0.4c0,0-3.2-12.1-0.6-17.2C86.7,293.6,83.6,297.5,83.6,297.5z"/>
		</g>
	</g>
	<g style="clip-path:url(#SVGID_00000121976612349005839080000009720048809344147329_);">
		<path class="st2" d="M1175.4,259.8c0,0-17.6-9.9-9.4-23.3c0,0,6.6-8.2,13.7-10.3c0,0-3.8,20-0.1,20.5c3.8,0.5,2.6-22.6,2.6-22.6
			s18.6-8.9,25.9-8.2c0,0-11.6,19.5-7.8,19c3.8-0.5,16.8-20.2,16.8-20.2s19.1-3.5,22.1,7.8s-1.9,16.9-4.8,17.6
			c-2.8,0.7-20.9,0.4-20.5,2.8c0.5,2.4,12.7,6.2,19.5,4.1c0,0-7.6,18.6-17.5,17.6s-12.9-7.1-19-7.6s-10.6,1.1-7.5,2.8
			c3.1,1.7,13.4,0.6,18.3,4.8c4.9,4.2,8.9,6.8-0.3,8.7c-9.2,1.9-25.7,0.6-28.9-6.4C1175.4,259.8,1175.4,259.8,1175.4,259.8z"/>
		<g>
			<path class="st3" d="M1230.6,226.1c0,0-49.5,15.9-55.2,33.7c0,0,0.2,8-4.8,17.2v3.5c0,0,5.2-12,8-13.6
				C1178.7,266.9,1167.7,251.3,1230.6,226.1z"/>
			<path class="st3" d="M1170.6,277c0,0-7.7,11.6-3.3,25.7l2-0.5c0,0-1.9-15.5,2.2-23.3C1175.4,271,1170.6,277,1170.6,277z"/>
		</g>
	</g>
	<g style="clip-path:url(#SVGID_00000121976612349005839080000009720048809344147329_);">
		<path class="st3" d="M1162.1,273.4c0,0,11.2-6.2,6-14.7c0,0-4.2-5.2-8.6-6.6c0,0,2.3,12.7,0,12.9c-2.4,0.3-1.6-14.3-1.6-14.3
			s-11.7-5.7-16.3-5.3c0,0,7.3,12.4,4.9,12.1s-10.5-12.8-10.5-12.8s-12-2.3-14,4.9c-2,7.1,1.2,10.7,2.9,11.2s13.2,0.3,12.9,1.8
			c-0.3,1.5-8,3.8-12.4,2.5c0,0,4.7,11.8,11,11.2s8.2-4.4,12.1-4.7c3.9-0.3,6.7,0.8,4.8,1.8c-1.9,1-8.5,0.3-11.6,3
			c-3.1,2.6-5.7,4.3,0.1,5.5c5.8,1.2,16.2,0.5,18.3-4C1162.1,273.4,1162.1,273.4,1162.1,273.4z"/>
		<g>
			<path class="st32" d="M1127.4,251.9c-7.4-2.4,33.5,17.7,34.8,21.5c0,0-0.2,5.1,2.9,10.9v2.2c0,0-3.3-7.6-5-8.6
				C1160,277.9,1167,268.1,1127.4,251.9z"/>
			<path class="st32" d="M1165.1,284.3c0,0,2.9,9.2,0.1,18.1l-1.2-0.3c0,0,3.1-11.7,0.6-16.6S1165.1,284.3,1165.1,284.3z"/>
		</g>
	</g>
	
		<line style="clip-path:url(#SVGID_00000121976612349005839080000009720048809344147329_);fill:none;stroke:#1D4B6D;stroke-width:5;stroke-miterlimit:10;" x1="50.8" y1="297.7" x2="1200.6" y2="297.7"/>
</g>
</svg>
