<?xml version="1.0" encoding="utf-8"?>
<!-- Generator: Adobe Illustrator 26.0.2, SVG Export Plug-In . SVG Version: 6.00 Build 0)  -->
<svg version="1.1" id="Layer_1" xmlns="http://www.w3.org/2000/svg" xmlns:xlink="http://www.w3.org/1999/xlink" x="0px" y="0px"
	 viewBox="0 0 1245 300" style="enable-background:new 0 0 1245 300;" xml:space="preserve">
<style type="text/css">
	.st0{clip-path:url(#SVGID_00000065044589365668874160000017914257490089242815_);}
	.st1{fill:url(#SVGID_00000103945377383125179900000009319648840074430614_);}
	.st2{clip-path:url(#SVGID_00000122002495730151852290000012639504416966628760_);}
	.st3{fill:#323657;}
	.st4{clip-path:url(#SVGID_00000080891737906696594580000006855446237866755235_);}
	.st5{fill:#FFFFFF;}
	.st6{clip-path:url(#SVGID_00000026139903010647234160000017914102964762007440_);}
	.st7{clip-path:url(#SVGID_00000072238910867157600670000013177947905631502246_);}
	.st8{clip-path:url(#SVGID_00000152234517719401694210000011384202586658513818_);}
	.st9{clip-path:url(#SVGID_00000154391760031469764430000003969363501247988397_);}
	.st10{clip-path:url(#SVGID_00000088115853485480736170000011836890327560920502_);}
	.st11{clip-path:url(#SVGID_00000105427671307295160200000011244379661931584691_);}
	.st12{clip-path:url(#SVGID_00000037652551750198147700000016195545255281416362_);}
	.st13{clip-path:url(#SVGID_00000026124187147468549630000002753319260617884804_);}
	.st14{clip-path:url(#SVGID_00000126290341790708860320000007333782536147203993_);}
	.st15{fill:#EEA886;}
	.st16{opacity:0.68;fill:url(#SVGID_00000176003892517826652590000008063505603790661547_);enable-background:new    ;}
	.st17{fill:#E0E0E0;}
	.st18{fill:#78C2FF;}
	.st19{fill:#1487E3;}
	.st20{fill:#FFC055;}
	.st21{fill:#FFC455;}
	.st22{fill:#202338;}
	.st23{fill:#1C4054;}
	.st24{fill:#518AFA;}
	.st25{fill:#EEA987;}
	.st26{fill:#3D66BA;}
	.st27{fill:#252E3B;}
	.st28{fill:#A77860;}
	.st29{clip-path:url(#SVGID_00000009589883612387804240000000381478796391882671_);}
	.st30{clip-path:url(#SVGID_00000176736361206839671310000008231570051900791945_);}
	.st31{fill:#033B93;}
	.st32{fill:url(#SVGID_00000157996493011423915950000006967650945754802050_);}
	.st33{fill:url(#SVGID_00000049220863580233264630000012927980864683576759_);}
	.st34{fill:url(#SVGID_00000147204884899429484110000012447516247523171509_);}
	.st35{fill:#FF8761;}
	.st36{fill:#999999;}
	.st37{fill:#E8E8E8;}
	.st38{fill:#3A3F47;}
	.st39{fill:#0C5087;}
	.st40{fill:#444C94;}
	.st41{fill:#303669;}
	.st42{fill:#696969;}
	.st43{clip-path:url(#SVGID_00000002384203033605679720000016841965623450939058_);}
	.st44{fill:#3D6091;}
	.st45{fill:#DE9673;}
	.st46{fill:#316EBF;}
	.st47{fill:#EDDAD3;}
	.st48{fill:#5D89C4;}
	.st49{fill:#4C5285;}
	.st50{fill:#E8734D;}
	.st51{fill:#CFBEB8;}
</style>
<g id="Layer_2_00000141417627228264690300000016867450393168943539_">
	<g id="Слой_1">
		<g>
			<defs>
				<rect id="SVGID_1_" width="1245" height="300"/>
			</defs>
			<clipPath id="SVGID_00000107551363859208031910000003506567106047825080_">
				<use xlink:href="#SVGID_1_"  style="overflow:visible;"/>
			</clipPath>
			<g style="clip-path:url(#SVGID_00000107551363859208031910000003506567106047825080_);">
				
					<radialGradient id="SVGID_00000183962461262689498700000000198207604467010708_" cx="1771.1709" cy="906.1351" r="700.62" gradientTransform="matrix(-0.76 0.55 0.47 0.5 1905.6072 -1670.3625)" gradientUnits="userSpaceOnUse">
					<stop  offset="0" style="stop-color:#73D7FF"/>
					<stop  offset="1" style="stop-color:#002BC6"/>
				</radialGradient>
				<rect style="fill:url(#SVGID_00000183962461262689498700000000198207604467010708_);" width="1245" height="300"/>
				<g>
					<defs>
						<rect id="SVGID_00000104664094691284775270000001927302017994514347_" width="1245" height="300"/>
					</defs>
					<clipPath id="SVGID_00000070106264822317064790000016770843881137293997_">
						<use xlink:href="#SVGID_00000104664094691284775270000001927302017994514347_"  style="overflow:visible;"/>
					</clipPath>
					<g style="clip-path:url(#SVGID_00000070106264822317064790000016770843881137293997_);">
						<path class="st3" d="M906.6,204"/>
					</g>
				</g>
				<g>
					<defs>
						<rect id="SVGID_00000134241086787986544920000015838935867734491792_" width="1245" height="300"/>
					</defs>
					<clipPath id="SVGID_00000085246030098738451330000001515886294764031667_">
						<use xlink:href="#SVGID_00000134241086787986544920000015838935867734491792_"  style="overflow:visible;"/>
					</clipPath>
					<g style="clip-path:url(#SVGID_00000085246030098738451330000001515886294764031667_);">
						<path class="st5" d="M859.2,265.3h-57.3l0.1-0.5c0.9-4.7,5.1-8.2,9.9-8.2c0.7,0,1.4,0.1,2.1,0.2c4.4-8.4,14.8-11.6,23.2-7.2
							c2.3,1.2,4.4,3,5.9,5.1c1.2-0.4,2.4-0.5,3.7-0.5c6.2,0,11.5,4.5,12.4,10.6V265.3z M803,264.5h55.3c-1.1-5.5-5.9-9.4-11.5-9.4
							c-1.3,0-2.5,0.2-3.7,0.6l-0.3,0.1l-0.2-0.3c-5.2-7.4-15.3-9.2-22.7-4.1c-2.2,1.6-4,3.6-5.3,6.1l-0.2,0.3l-0.3-0.1
							c-0.7-0.2-1.5-0.3-2.2-0.3C807.7,257.5,804,260.4,803,264.5z"/>
						<path class="st5" d="M834.9,261.8c-1.7,0-3.1-1.4-3.1-3.1s1.4-3.1,3.1-3.1s3.1,1.4,3.1,3.1c0,0,0,0,0,0
							C838,260.4,836.6,261.8,834.9,261.8z M834.9,256.4c-1.3,0-2.3,1-2.3,2.3c0,1.3,1,2.3,2.3,2.3c1.3,0,2.3-1,2.3-2.3v0
							C837.2,257.4,836.2,256.4,834.9,256.4z"/>
					</g>
				</g>
				<g>
					<defs>
						<rect id="SVGID_00000153687501289941986560000015837914265504636093_" width="1245" height="300"/>
					</defs>
					<clipPath id="SVGID_00000165205356772493269980000003929249265626414734_">
						<use xlink:href="#SVGID_00000153687501289941986560000015837914265504636093_"  style="overflow:visible;"/>
					</clipPath>
					<g style="clip-path:url(#SVGID_00000165205356772493269980000003929249265626414734_);">
						<path class="st5" d="M542,274.7l-0.2-0.1c-20.3-10.4-17.6-30.5-17.6-30.7l0.1-0.4h0.4c12.9,0,17-4.2,17-4.2l0.3-0.3l0.3,0.3
							c0,0,4.1,4.2,17,4.2h0.4l0.1,0.4c0,0.2,2.8,20.3-17.6,30.7L542,274.7z M525.1,244.4c-0.3,2.7-1.1,20,17,29.4
							c18.1-9.4,17.2-26.6,17-29.4c-11.2-0.1-15.8-3.2-17-4.2C540.9,241.2,536.3,244.3,525.1,244.4L525.1,244.4z"/>
						<polygon class="st5" points="570.4,285.3 563,285.3 563,284.5 569.5,284.5 569.5,278 570.4,278 						"/>
						<polygon class="st5" points="520.9,285.3 513.6,285.3 513.6,278 514.4,278 514.4,284.5 520.9,284.5 						"/>
						<polygon class="st5" points="514.4,235.9 513.6,235.9 513.6,228.5 520.9,228.5 520.9,229.4 514.4,229.4 						"/>
						<polygon class="st5" points="570.4,235.9 569.5,235.9 569.5,229.4 563,229.4 563,228.5 570.4,228.5 						"/>
						<rect x="569.5" y="246.9" class="st5" width="0.9" height="20.1"/>
						<rect x="513.6" y="246.9" class="st5" width="0.9" height="20.1"/>
						<path class="st5" d="M542,269.6c-1.7,0-3.1-1.4-3.1-3.1s1.4-3.1,3.1-3.1c1.7,0,3.1,1.4,3.1,3.1c0,0,0,0,0,0
							c0.1,1.7-1.2,3-2.9,3.1C542.1,269.6,542.1,269.6,542,269.6z M542,264.2c-1.3,0-2.3,1-2.3,2.3c0,1.3,1,2.3,2.3,2.3
							c1.3,0,2.3-1,2.3-2.3v0C544.3,265.3,543.3,264.2,542,264.2C542.1,264.2,542,264.2,542,264.2z"/>
					</g>
				</g>
				<g>
					<defs>
						<rect id="SVGID_00000087379696046305212620000006570311044021970835_" width="1245" height="300"/>
					</defs>
					<clipPath id="SVGID_00000114043517753111302180000011721599394451232900_">
						<use xlink:href="#SVGID_00000087379696046305212620000006570311044021970835_"  style="overflow:visible;"/>
					</clipPath>
					<g style="clip-path:url(#SVGID_00000114043517753111302180000011721599394451232900_);">
						<path class="st5" d="M841.4,102h-21.6V80.4h21.6L841.4,102z M820.6,101.1h19.9V81.2h-19.9L820.6,101.1z"/>
						<rect x="830.1" y="86.2" class="st5" width="0.9" height="10.1"/>
						<rect x="825.5" y="90.8" class="st5" width="10.1" height="0.9"/>
					</g>
				</g>
				<g>
					<defs>
						<rect id="SVGID_00000023996161649265280540000010787314017460047807_" width="1245" height="300"/>
					</defs>
					<clipPath id="SVGID_00000000181179902565961010000011756897117169168811_">
						<use xlink:href="#SVGID_00000023996161649265280540000010787314017460047807_"  style="overflow:visible;"/>
					</clipPath>
					<g style="clip-path:url(#SVGID_00000000181179902565961010000011756897117169168811_);">
						<path class="st5" d="M1207.4,110.9h-35.9V85.2h35.9V110.9z M1172.4,109.9h33.9V86.2h-33.9V109.9z"/>
						<polygon class="st5" points="1189.4,100.8 1171.6,86.1 1172.3,85.4 1189.4,99.5 1206.5,85.4 1207.2,86.1 						"/>
						
							<rect x="1199.9" y="94.3" transform="matrix(0.7256 -0.6881 0.6881 0.7256 258.029 854.431)" class="st5" width="1" height="18.7"/>
						
							<rect x="1169.1" y="103.2" transform="matrix(0.6878 -0.7259 0.7259 0.6878 292.5846 887.7158)" class="st5" width="18.7" height="1"/>
					</g>
				</g>
				<g>
					<defs>
						<rect id="SVGID_00000124140458895575844210000001875720379354966938_" width="1245" height="300"/>
					</defs>
					<clipPath id="SVGID_00000039133353396373422310000009145905010855146883_">
						<use xlink:href="#SVGID_00000124140458895575844210000001875720379354966938_"  style="overflow:visible;"/>
					</clipPath>
					<g style="clip-path:url(#SVGID_00000039133353396373422310000009145905010855146883_);">
						<path class="st5" d="M961.8,231.5H931v-22h30.9v22H961.8z M931.8,230.7H961v-20.3h-29.2V230.7z"/>
						<polygon class="st5" points="946.4,222.9 931.1,210.3 931.7,209.6 946.4,221.7 961.2,209.6 961.7,210.3 						"/>
						
							<rect x="955.4" y="217.3" transform="matrix(0.7256 -0.6881 0.6881 0.7256 107.1861 719.5542)" class="st5" width="0.9" height="16.1"/>
						
							<rect x="928.9" y="224.8" transform="matrix(0.6878 -0.7259 0.7259 0.6878 128.9575 750.4369)" class="st5" width="16.1" height="0.9"/>
					</g>
				</g>
				<g>
					<defs>
						<rect id="SVGID_00000136374389073391915080000007507863599699701177_" width="1245" height="300"/>
					</defs>
					<clipPath id="SVGID_00000039097460125386758100000014440074263963643310_">
						<use xlink:href="#SVGID_00000136374389073391915080000007507863599699701177_"  style="overflow:visible;"/>
					</clipPath>
					<g style="clip-path:url(#SVGID_00000039097460125386758100000014440074263963643310_);">
						<path class="st5" d="M923.1,49.4l-0.3-0.8c-0.3,0-0.6-0.1-0.8-0.2l-0.7,0.6l-1.9-1.4l0.4-0.8c-0.2-0.2-0.3-0.5-0.5-0.7h-0.9
							l-0.4-2.3l0.8-0.3c0-0.3,0.1-0.6,0.2-0.8l-0.6-0.7l1.4-1.9l0.8,0.4c0.2-0.2,0.5-0.3,0.7-0.5v-0.9l2.3-0.4l0.3,0.8
							c0.3,0,0.6,0.1,0.8,0.2l0.7-0.6l1.9,1.4l-0.4,0.8c0.2,0.2,0.3,0.5,0.5,0.7h0.9l0.4,2.3l-0.8,0.3c0,0.3-0.1,0.6-0.2,0.8
							l0.6,0.7L927,48l-0.8-0.4c-0.2,0.2-0.5,0.3-0.7,0.5V49L923.1,49.4z M921.8,47.6l0.2,0.1c0.4,0.1,0.7,0.2,1.1,0.2h0.2l0.3,0.7
							l1.3-0.2v-0.8l0.2-0.1c0.3-0.2,0.6-0.4,0.9-0.6l0.2-0.1l0.7,0.3l0.7-1l-0.5-0.6l0.1-0.2c0.1-0.4,0.2-0.7,0.2-1.1V44l0.7-0.3
							l-0.2-1.3h-0.8l-0.1-0.2c-0.1-0.3-0.3-0.7-0.6-0.9l-0.1-0.2l0.3-0.7l-1-0.7l-0.6,0.5l-0.2-0.1c-0.4-0.1-0.7-0.2-1.1-0.2h-0.2
							l-0.3-0.7l-1.3,0.2v0.8l-0.2,0.1c-0.3,0.1-0.7,0.3-0.9,0.6l-0.2,0.1l-0.7-0.3l-0.7,1l0.5,0.6l-0.1,0.2
							c-0.1,0.4-0.2,0.7-0.2,1.1v0.2l-0.7,0.3l0.2,1.3h0.8l0.1,0.2c0.1,0.3,0.3,0.7,0.6,0.9l0.1,0.2l-0.3,0.7l1,0.7L921.8,47.6z
							 M923.4,46.5c-0.5,0-1.1-0.2-1.5-0.5l0,0c-0.5-0.4-0.9-0.9-1-1.6c-0.2-1.4,0.7-2.7,2-2.9s2.7,0.7,2.9,2c0.1,0.7,0,1.3-0.4,1.9
							C925,46.1,924.2,46.6,923.4,46.5L923.4,46.5z M923.4,42.1c-0.6,0-1.2,0.3-1.5,0.8c-0.3,0.4-0.4,0.9-0.3,1.4
							c0.1,0.5,0.4,0.9,0.8,1.2l0,0c0.8,0.6,2,0.4,2.6-0.4c0.6-0.8,0.4-2-0.4-2.6C924.3,42.2,923.8,42.1,923.4,42.1L923.4,42.1z"/>
						<path class="st5" d="M905.3,52.1l-0.7-1.9c-0.8-0.1-1.5-0.3-2.3-0.5l-1.5,1.4l-4-2.8l0.8-1.8c-0.5-0.6-0.9-1.3-1.2-2l-2-0.1
							l-0.8-4.8l1.9-0.7c0.1-0.8,0.3-1.5,0.5-2.3l-1.4-1.5l2.8-4l1.8,0.8c0.6-0.5,1.3-0.9,2-1.2l0.1-2l4.8-0.8l0.7,1.9
							c0.8,0.1,1.5,0.3,2.3,0.5l1.5-1.4l4,2.8l-0.8,1.8c0.5,0.6,0.9,1.3,1.2,2l2,0.1l0.8,4.8l-1.9,0.7c-0.1,0.8-0.3,1.5-0.5,2.3
							l1.4,1.5l-2.8,4l-1.8-0.8c-0.6,0.5-1.3,0.9-2,1.2l-0.1,2L905.3,52.1z M902.1,48.7l0.2,0.1c0.8,0.3,1.6,0.5,2.5,0.6h0.3
							l0.7,1.7l3.4-0.6l0.1-1.8l0.2-0.1c0.8-0.4,1.5-0.8,2.2-1.4L912,47l1.7,0.7l2-2.8l-1.3-1.3l0.1-0.2c0.3-0.8,0.5-1.6,0.6-2.5
							v-0.3l1.7-0.7l-0.6-3.4l-1.8-0.1l-0.1-0.2c-0.4-0.8-0.8-1.5-1.4-2.2l-0.2-0.2l0.7-1.7l-2.8-2l-1.3,1.3l-0.2-0.1
							c-0.8-0.3-1.6-0.5-2.5-0.6h-0.3l-0.7-1.7l-3.4,0.6l-0.1,1.8l-0.2,0.1c-0.8,0.4-1.5,0.8-2.2,1.4l-0.2,0.2l-1.7-0.7l-2,2.8
							l1.3,1.3l-0.1,0.2c-0.3,0.8-0.5,1.6-0.6,2.5v0.3l-1.7,0.7l0.6,3.4l1.8,0.1l0.1,0.2c0.4,0.8,0.8,1.5,1.4,2.2l0.2,0.2l-0.7,1.7
							l2.8,2L902.1,48.7z M905.7,45.5c-3,0-5.5-2.4-5.5-5.4c0-1.2,0.4-2.3,1-3.3c0.9-1.2,2.2-2,3.6-2.3c1.4-0.2,2.9,0.1,4.1,1
							c2.5,1.7,3.1,5.2,1.3,7.6c0,0,0,0,0,0.1C909.2,44.7,907.5,45.5,905.7,45.5L905.7,45.5z M905.7,35.3c-0.3,0-0.5,0-0.8,0.1
							c-2.5,0.4-4.2,2.9-3.8,5.4c0.4,2.5,2.9,4.2,5.4,3.8c1.2-0.2,2.3-0.9,3-1.9c0.7-1,1-2.3,0.8-3.5c-0.2-1.2-0.9-2.3-1.9-3
							C907.6,35.6,906.7,35.3,905.7,35.3L905.7,35.3z"/>
					</g>
				</g>
				<g>
					<defs>
						<rect id="SVGID_00000070084402190258292950000011606554450438412988_" width="1245" height="300"/>
					</defs>
					<clipPath id="SVGID_00000088103626327923286250000013815023747505397659_">
						<use xlink:href="#SVGID_00000070084402190258292950000011606554450438412988_"  style="overflow:visible;"/>
					</clipPath>
					<g style="clip-path:url(#SVGID_00000088103626327923286250000013815023747505397659_);">
						<path class="st5" d="M1127.9,185.9c-10.1,0-18.3-8.2-18.3-18.3h1c0,9.6,7.7,17.3,17.3,17.3c9.6,0,17.3-7.7,17.3-17.3
							c0-9.6-7.7-17.3-17.3-17.3v-1c10.1,0,18.3,8.2,18.3,18.3S1138,185.9,1127.9,185.9z M1127.9,183.4c-8.7,0-15.8-7.1-15.8-15.8
							s7.1-15.8,15.8-15.8c8.7,0,15.8,7.1,15.8,15.8h-1c0-8.2-6.6-14.8-14.8-14.8s-14.8,6.6-14.8,14.8c0,8.2,6.6,14.8,14.8,14.8
							V183.4z"/>
						<polygon class="st5" points="1125.6,173.7 1119,167 1119.7,166.3 1125.6,172.3 1136,161.9 1136.7,162.6 						"/>
					</g>
				</g>
				<g>
					<defs>
						<rect id="SVGID_00000101811559340568308360000013468309091086589839_" width="1245" height="300"/>
					</defs>
					<clipPath id="SVGID_00000109711026922331728950000010086344393236112800_">
						<use xlink:href="#SVGID_00000101811559340568308360000013468309091086589839_"  style="overflow:visible;"/>
					</clipPath>
					<g style="clip-path:url(#SVGID_00000109711026922331728950000010086344393236112800_);">
						<path class="st5" d="M149.4,163.6c-1.7,0-3.1-1.4-3.1-3.1s1.4-3.1,3.1-3.1s3.1,1.4,3.1,3.1c0.1,1.7-1.2,3-2.9,3.1
							C149.5,163.6,149.5,163.6,149.4,163.6z M149.4,158.2c-1.3,0-2.3,1-2.3,2.3c0,1.3,1,2.3,2.3,2.3c1.3,0,2.3-1,2.3-2.3
							C151.7,159.3,150.7,158.2,149.4,158.2C149.5,158.2,149.4,158.2,149.4,158.2L149.4,158.2z"/>
						<path class="st5" d="M122.7,215.8c-2,0-3.7-1.6-3.7-3.6v-0.6c-2.2-0.7-3.7-2.7-3.7-5l-0.1-11h2.2
							c-0.8-13.6-11.1-32.7-11.2-32.9c-8.9-13.5-5.1-31.6,8.4-40.4s31.6-5.1,40.4,8.4c6.4,9.7,6.4,22.3,0,32.1
							c-0.4,0.8-10.3,19.3-11.2,32.8h2.1l0.1,11c0,2.3-1.5,4.3-3.6,5v0.6c0,2-1.6,3.7-3.6,3.7L122.7,215.8z M116.2,196.5l0.1,10.1
							c0,2,1.4,3.8,3.3,4.3l0.3,0.1v1.2c0,1.5,1.3,2.8,2.8,2.8l16.1-0.1c1.5,0,2.8-1.3,2.8-2.8v-1.2l0.3-0.1
							c1.9-0.5,3.3-2.3,3.3-4.3l-0.1-10.1h-2.2v-0.5c0.7-13.7,10.9-32.8,11.3-33.6c3.1-4.6,4.7-10,4.7-15.6
							c0-15.6-12.7-28.3-28.3-28.3s-28.3,12.7-28.3,28.3c0,5.6,1.6,11,4.7,15.6c0.1,0.1,10.7,19.9,11.3,33.8v0.4L116.2,196.5z
							 M131,175.9h-0.3c-0.1,0-1,0-2.5-0.1l0.1-0.9c1.6,0.2,3.3,0.2,4.9,0l0.1,0.9C132.1,175.9,131.4,175.9,131,175.9z"/>
						<rect x="122.5" y="195.7" class="st5" width="16.2" height="0.9"/>
						<rect x="129.7" y="93.8" class="st5" width="1.7" height="14.7"/>
						
							<rect x="146.8" y="105.4" transform="matrix(0.7071 -0.7071 0.7071 0.7071 -29.9613 140.1178)" class="st5" width="14.7" height="1.7"/>
						
							<rect x="106.2" y="99" transform="matrix(0.7071 -0.7071 0.7071 0.7071 -43.8353 106.8223)" class="st5" width="1.7" height="14.7"/>
						
							<rect x="120.1" y="164.1" transform="matrix(0.9736 -0.2284 0.2284 0.9736 -36.266 32.0934)" class="st5" width="0.9" height="17.3"/>
						
							<rect x="132" y="172.2" transform="matrix(0.2295 -0.9733 0.9733 0.2295 -59.7339 269.9283)" class="st5" width="17.3" height="0.9"/>
						<path class="st5" d="M163.3,146.9h-0.9c0-17.6-14.3-31.9-31.9-31.9v-0.9C148.6,114.2,163.2,128.8,163.3,146.9z"/>
						<path class="st5" d="M156,146.9h-0.9c0-13.6-11-24.6-24.6-24.6c-13.6,0-24.6,11-24.6,24.6c0,0,0,0,0,0H105
							c0-14.1,11.4-25.5,25.5-25.5S156,132.8,156,146.9z"/>
					</g>
				</g>
				<g>
					<defs>
						<rect id="SVGID_00000086687949093514646160000013911277681710122424_" width="1245" height="300"/>
					</defs>
					<clipPath id="SVGID_00000167368829347546826760000012884841645904433840_">
						<use xlink:href="#SVGID_00000086687949093514646160000013911277681710122424_"  style="overflow:visible;"/>
					</clipPath>
					<g style="clip-path:url(#SVGID_00000167368829347546826760000012884841645904433840_);">
						<path class="st5" d="M1048.7,70.3c-1.1,0-2-0.9-2-2s0.9-2,2-2s2,0.9,2,2S1049.8,70.3,1048.7,70.3z M1048.7,66.9
							c-0.8,0-1.4,0.6-1.4,1.4s0.6,1.4,1.4,1.4c0.8,0,1.4-0.6,1.4-1.4c0.1-0.7-0.5-1.3-1.2-1.4C1048.8,66.9,1048.8,66.9,1048.7,66.9
							z"/>
						<path class="st5" d="M1031.8,103.4c-1.2,0-2.3-1-2.3-2.2c0,0,0-0.1,0-0.1v-0.3c-1.4-0.4-2.3-1.7-2.3-3.2v-6.9h1.4
							c-0.5-8.6-7-20.7-7.1-20.8c-2-3-3-6.5-3-10.1c0-10.2,8.3-18.5,18.5-18.5s18.5,8.3,18.5,18.5c0,3.6-1.1,7.1-3,10.1
							c-0.3,0.5-6.5,12.2-7.1,20.7h1.3v6.9c0,1.4-0.9,2.7-2.3,3.2v0.3c0,1.2-1,2.3-2.2,2.3c0,0-0.1,0-0.1,0L1031.8,103.4
							L1031.8,103.4z M1027.7,91.2v6.4c0,1.3,0.9,2.4,2.1,2.7l0.2,0.1v0.8c0,1,0.8,1.8,1.8,1.8c0,0,0,0,0,0h10.2
							c1,0,1.8-0.8,1.8-1.8c0,0,0,0,0,0v-0.8l0.2-0.1c1.2-0.3,2.1-1.4,2.1-2.7v-6.4h-1.4v-0.3c0.4-8.7,6.9-20.8,7.2-21.3
							c1.9-2.9,3-6.4,3-9.9c0-9.9-8-17.9-17.9-17.9c-9.9,0-17.9,8-17.9,17.9c0,3.5,1,6.9,3,9.8c0.1,0.1,6.8,12.6,7.2,21.4v0.3
							L1027.7,91.2z M1037.1,78.1h-0.2c0,0-0.6,0-1.6-0.1v-0.5c1,0.1,2.1,0.1,3.1,0V78C1038,78.1,1037.5,78.1,1037.1,78.1
							L1037.1,78.1z"/>
						<rect x="1031.7" y="90.6" class="st5" width="10.2" height="0.5"/>
						<rect x="1036.3" y="26.1" class="st5" width="1.1" height="9.3"/>
						
							<rect x="1047.1" y="33.5" transform="matrix(0.7071 -0.7071 0.7071 0.7071 283.986 753.6694)" class="st5" width="9.3" height="1.1"/>
						
							<rect x="1021.3" y="29.4" transform="matrix(0.7071 -0.7071 0.7071 0.7071 275.1884 732.5083)" class="st5" width="1.1" height="9.3"/>
						
							<rect x="1030.2" y="70.6" transform="matrix(0.9736 -0.2284 0.2284 0.9736 9.8515 237.3236)" class="st5" width="0.5" height="10.9"/>
						
							<rect x="1037.8" y="75.9" transform="matrix(0.2295 -0.9733 0.9733 0.2295 729.6703 1073.9938)" class="st5" width="10.9" height="0.5"/>
						<path class="st5" d="M1057.5,59.8h-0.5c0-11.2-9-20.2-20.2-20.2v-0.5C1048.2,39.1,1057.5,48.3,1057.5,59.8
							C1057.5,59.8,1057.5,59.8,1057.5,59.8z"/>
						<path class="st5" d="M1052.9,59.8h-0.5c0-8.6-6.9-15.5-15.5-15.5s-15.5,6.9-15.5,15.5l0,0h-0.5c0-8.8,7.2-16,16-16
							S1052.9,51,1052.9,59.8z"/>
					</g>
				</g>
				<g>
					<defs>
						<rect id="SVGID_00000047029641713383079830000018202128238426888367_" width="1245" height="300"/>
					</defs>
					<clipPath id="SVGID_00000163066888671712847600000008700145466909716404_">
						<use xlink:href="#SVGID_00000047029641713383079830000018202128238426888367_"  style="overflow:visible;"/>
					</clipPath>
					<g style="clip-path:url(#SVGID_00000163066888671712847600000008700145466909716404_);">
						<path class="st15" d="M978.7,164.6c0,0-0.7-2.5,0-3.5c0.6-1,1-2.1,1.2-3.3c0.1-0.7,1.4-2.9,0.5-3s-2.2,3.6-2.7,4.3
							s-1.6-2.4-2.3-2.8s-6.3,2.5-5.2,4.6s3.7,3.4,3.8,3.8c0.2,0.5,0.4,1,0.7,1.5L978.7,164.6z"/>
						<path class="st15" d="M975.8,156.6c0,0-3.7-6-4.3-6.1s-1,0.1-0.7,0.7s3.4,5.9,3.4,5.9s-5.7-6.2-6.2-6.5
							c-0.3-0.1-1,0.3-0.8,0.7s5.4,6.9,5.4,6.9s-5.4-5.8-5.8-5.9c-0.4,0-0.7,0.2-0.7,0.6c0,0.2,0,0.3,0.1,0.4l5,6.2
							c0,0-4.2-3.9-4.7-3.8c-0.3,0.1-0.9,0.5,0.2,1.5s3.5,3.6,3.5,3.6L975.8,156.6z"/>
						
							<linearGradient id="SVGID_00000158009393677798059730000011056810286410739637_" gradientUnits="userSpaceOnUse" x1="907.69" y1="-380.91" x2="1076.39" y2="-380.91" gradientTransform="matrix(1 0 0 -1 0 -237.47)">
							<stop  offset="0" style="stop-color:#343D4F"/>
							<stop  offset="0.46" style="stop-color:#30394C"/>
							<stop  offset="0.95" style="stop-color:#232D41"/>
							<stop  offset="1" style="stop-color:#212B40"/>
						</linearGradient>
						
							<path style="opacity:0.68;fill:url(#SVGID_00000158009393677798059730000011056810286410739637_);enable-background:new    ;" d="
							M1070.5,161.7H913.6c-3.3,0-5.9-2.6-5.9-5.9v-24.7c0-3.3,2.6-5.9,5.9-5.9h156.9c3.3,0,5.9,2.6,5.9,5.9v24.7
							C1076.4,159,1073.7,161.7,1070.5,161.7z"/>
						<rect x="916.7" y="136.3" class="st17" width="27.3" height="2.8"/>
						<rect x="949.3" y="136.3" class="st17" width="19.4" height="2.8"/>
						<rect x="949.3" y="146.9" class="st17" width="18.1" height="2.8"/>
						<rect x="1046.5" y="136.3" class="st18" width="19.4" height="2.8"/>
						<rect x="974" y="136.3" class="st19" width="24.7" height="2.8"/>
						<rect x="1017" y="136.3" class="st20" width="24.7" height="2.8"/>
						<rect x="1003.2" y="136.3" class="st17" width="9.1" height="2.8"/>
						<rect x="916.7" y="146.9" class="st18" width="14.2" height="2.8"/>
						<rect x="934.3" y="146.9" class="st19" width="4.6" height="2.8"/>
						<rect x="1028.1" y="146.9" class="st17" width="37.8" height="2.8"/>
						<rect x="942.2" y="146.9" class="st21" width="4.7" height="2.8"/>
						<rect x="1012.3" y="146.9" class="st19" width="12.4" height="2.8"/>
						<rect x="982.7" y="146.9" class="st18" width="26.3" height="2.8"/>
						<rect x="969.9" y="146.9" class="st17" width="9.1" height="2.8"/>
						<path class="st22" d="M974.3,288.8c0,0-3.6,3.6-6.6,4s-6.6,1.5-7,3.8s9.1,4.8,12.8,3c5.6-2.7,7.2-1.6,8.1-3.3s0.7-7.4,0.8-7.9
							S974.3,288.8,974.3,288.8z"/>
						<path class="st22" d="M1037.4,278.7c0,0-1,4.9-3.3,6.8s-4.6,4.7-3.7,6.9s9,2,11.9-3.9c1.8-3.7,4-4.3,3.8-6.2s-3-5.9-3.2-6.4
							C1042.6,275.2,1037.4,278.7,1037.4,278.7z"/>
						<path class="st23" d="M998.4,208.5c0,0-12.3,25.5-15.1,31.9c-2.7,6.7-4.5,13.7-5.6,20.9c-0.4,5.3-5.5,26.8-5.8,28.3
							s10.7,0.6,10.7,0.6s9.6-36.6,12.2-41.8c1.7-3.5,14.5-26.5,15.6-25.1s8,18.7,8.8,22.8s16.6,34.9,16.6,34.9s7.3-0.5,8.8-3.3
							c0,0-11.7-31.2-13-36.8c-0.7-2.9-3.1-21.1-6.1-35C1023.8,198.7,998.4,208.5,998.4,208.5z"/>
						<path class="st24" d="M1029.6,169.7c0,0-4.2,12.7-4.1,15.8S1023.1,170.7,1029.6,169.7z"/>
						<path class="st24" d="M999.6,174.4c-0.4,1.3-0.9,2.6-1.5,3.9l0,0c-0.4,0.8-0.8,1.6-1.3,2.4c-0.1,0.1-0.2,0.3-0.3,0.4
							c-0.3,0.5-0.7,1-1.1,1.5c-1.3,1.5-2.8,2.7-4.5,2.8c-3.6,0.3-16.6-19.6-16.6-19.6l6.2-2.8c0,0,8.2,11.9,9.5,11.2
							s2.6-5.5,2.6-5.5c1.5-0.8,3.8,1.5,5.4,3.4c0.1,0.1,0.2,0.2,0.3,0.4C999,173.6,999.6,174.4,999.6,174.4z"/>
						<path class="st24" d="M1026.2,208c-7,6.3-29.5,4.2-29.5,4.2c0.3-0.8,2.6-24.2,1.8-29.5s-0.3-9.8-1-10s-5.5-1.9-5.5-1.9
							s2.6-8.2,3.6-9.9s8.8-4.4,8.8-4.4c4-1.3,8.1-1.8,12.3-1.4c10.6,1.3,11.9,4.4,11.9,4.4l-2.5,15.7v0.2c0,0.4,0,1.2-0.1,2.4
							c-0.2,5.1-0.6,15.9-0.6,18.4C1025.4,200.1,1025.7,204.1,1026.2,208z"/>
						<path class="st25" d="M1018.4,155.4c-0.4,0.8-0.9,1.5-1.4,2.1c-3.3,4.3-7.1,4.1-7.1,4.1c-1.9-0.1-3.5-1.3-4.2-3.1
							c-0.4-0.7-0.6-1.4-0.7-2.2l1.4-0.5c0.1-0.5,0.2-0.9,0.2-1.4v-2c0-1.2-0.1-2.2-0.1-2.2s10-5.4,9.2-1.6
							c-0.3,1.3-0.4,2.7-0.1,4.1c0.1,0.8,0.6,1.6,1.3,2.1C1017.8,155.2,1018.4,155.4,1018.4,155.4z"/>
						<path class="st15" d="M989.6,163.1c-0.3-0.3-0.5-0.7-0.6-1.1c-0.1-1,0.9-2.3-0.3-3.3s-5.4,1.9-5.8,2.8s0.7,2.6,3.4,4.2
							C989,167.5,989.6,163.1,989.6,163.1z"/>
						<path class="st15" d="M989,159.2c0,0-1-2-2.3-4c-1.2-1.8-2.9-3.7-3.4-3.4c-0.7,0.4,0.9,1.8,1.9,3.7c1,1.7,0.5,1.5,0.5,1.5
							s0.1,0-1.3-1.6c-1.6-1.8-3.5-3.7-3.9-3.3c-0.3,0.2-0.3,0.3,0.1,1c-0.4-0.4-0.5-0.3-0.7-0.2c-0.9,0.7,0.9,3.7,1.7,4.9
							c-0.6-0.9-1.1-1.5-1.4-0.7s2.5,5,3.4,6.5S989,159.2,989,159.2z"/>
						<path class="st24" d="M1029.3,171.6c4.5-5.5-1.1-12.4-1.1-12.4c-3.3-2.8-10.6,9.1-11.5,10.2s-7.9,7.4-9.8,9.5
							c-1,1.1-5.2-3.5-7.1-5.3c-1.1-1.1-10.1-11.6-10.1-11.6s-6.2,4.4-5.6,4.1s18.2,22.8,21.5,23
							C1014.9,185.4,1023,179.4,1029.3,171.6z"/>
						<path class="st26" d="M996.8,180.7c-0.1,0.1-0.2,0.3-0.3,0.4c-0.3,0.5-0.7,1-1.1,1.5c-0.9-1-4.1-8.3-4.1-8.4L996.8,180.7z"/>
						<path class="st26" d="M1024.4,177c-2.8,2.5-5.7,4.9-8.8,7c-3.1,1.9-8.3,4.5-8.8,4.7C1006.7,188.6,1020.4,186,1024.4,177z"/>
						<path class="st15" d="M1001.1,136.1c0,0-2.2,4-1.1,4.7c0.9,0.5-1,4.5-1.3,5.1s1.6,1.1,2,1.5s1.6,5.5,3.1,5.7s8.5-2.3,10.4-4.2
							s3.4-10.8,2.2-14.6S1004.9,129.1,1001.1,136.1z"/>
						<path class="st27" d="M1000.7,137c-1.3-2.6-0.5-5.8,1.8-7.6c4-3.2,11.5,2.4,12.3,2.7s5.6,0.5,3.2,8.9
							c-2.1,7.2-2.3,7.5-2.3,7.5s-1.5-4.2-2.4-4.8c-1.4-1-4.4-0.8-4.4-0.8s1.4-3.8-0.8-4.3S1002.9,136.2,1000.7,137z"/>
						<path class="st15" d="M1011.2,140.7c0.2-0.5,0.8-2.7,2.7-1.4s-1.2,5.5-1.5,5.6S1009.6,145.1,1011.2,140.7z"/>
						<path class="st28" d="M1014,149.1c0,0-1.6,3.2-7.4,5.3v-1.7C1006.6,152.6,1011,151.4,1014,149.1z"/>
					</g>
				</g>
				<g>
					<defs>
						<rect id="SVGID_00000165215636954704046690000002058333789608977316_" width="1245" height="300"/>
					</defs>
					<clipPath id="SVGID_00000063613701338335916540000011523821540659248018_">
						<use xlink:href="#SVGID_00000165215636954704046690000002058333789608977316_"  style="overflow:visible;"/>
					</clipPath>
					<g style="clip-path:url(#SVGID_00000063613701338335916540000011523821540659248018_);">
						<polygon class="st18" points="490.3,70.7 453.9,70.7 453.9,97 453.9,102.6 459.5,97 490.3,97 						"/>
						<path class="st5" d="M463.1,80H481c0.3,0,0.6-0.2,0.6-0.6c0,0,0,0,0,0v-0.7c0-0.3-0.2-0.6-0.6-0.6c0,0,0,0,0,0h-17.9
							c-0.3,0-0.6,0.2-0.6,0.6c0,0,0,0,0,0v0.7C462.5,79.7,462.8,80,463.1,80z"/>
						<path class="st5" d="M465,84h16.1c0.3,0,0.6-0.2,0.6-0.6c0,0,0,0,0,0v-0.7c0-0.3-0.2-0.6-0.6-0.6c0,0,0,0,0,0H465
							c-0.3,0-0.6,0.2-0.6,0.6c0,0,0,0,0,0v0.7C464.4,83.7,464.6,84,465,84C465,84,465,84,465,84z"/>
						<path class="st5" d="M469,88h12.1c0.3,0,0.6-0.2,0.6-0.6c0,0,0,0,0,0v-0.7c0-0.3-0.2-0.6-0.6-0.6c0,0,0,0,0,0H469
							c-0.3,0-0.6,0.2-0.6,0.6c0,0,0,0,0,0v0.7C468.4,87.7,468.7,88,469,88z"/>
					</g>
				</g>
				<g>
					<defs>
						<rect id="SVGID_00000047051970895989670270000015133131972723248777_" width="1245" height="300"/>
					</defs>
					<clipPath id="SVGID_00000044146152978329218520000011333210004624780934_">
						<use xlink:href="#SVGID_00000047051970895989670270000015133131972723248777_"  style="overflow:visible;"/>
					</clipPath>
					<g style="clip-path:url(#SVGID_00000044146152978329218520000011333210004624780934_);">
						<rect x="283.9" y="210.6" class="st31" width="28" height="85"/>
						
							<linearGradient id="SVGID_00000034057035119901936700000001452994670577923508_" gradientUnits="userSpaceOnUse" x1="169.74" y1="-403.72" x2="438.29" y2="-403.72" gradientTransform="matrix(1 0 0 -1 0 -237.47)">
							<stop  offset="0" style="stop-color:#FF9F55"/>
							<stop  offset="1" style="stop-color:#FFD255"/>
						</linearGradient>
						<path style="fill:url(#SVGID_00000034057035119901936700000001452994670577923508_);" d="M185.5,251.5h224.7
							c4.7,0,8.5-3.8,8.5-8.5c0,0,0,0,0,0V89.5c0-4.7-3.8-8.5-8.5-8.5c0,0,0,0,0,0H185.5c-4.7,0-8.5,3.8-8.5,8.5c0,0,0,0,0,0V243
							C177,247.7,180.8,251.5,185.5,251.5C185.5,251.5,185.5,251.5,185.5,251.5z"/>
						
							<linearGradient id="SVGID_00000057830980391173155020000009707806495344609211_" gradientUnits="userSpaceOnUse" x1="185.6" y1="-392.37" x2="409.8" y2="-392.37" gradientTransform="matrix(1 0 0 -1 0 -237.47)">
							<stop  offset="0" style="stop-color:#404B61"/>
							<stop  offset="0.49" style="stop-color:#3C4860"/>
							<stop  offset="1" style="stop-color:#2F3E5C"/>
						</linearGradient>
						<polygon style="fill:url(#SVGID_00000057830980391173155020000009707806495344609211_);" points="185.6,220.5 409.8,220.5 
							409.8,89.3 185.6,89.3 						"/>
						
							<linearGradient id="SVGID_00000003808413061751672710000006289842458859071667_" gradientUnits="userSpaceOnUse" x1="234.9" y1="-533.07" x2="360.8" y2="-533.07" gradientTransform="matrix(1 0 0 -1 0 -237.47)">
							<stop  offset="0" style="stop-color:#FF9F55"/>
							<stop  offset="1" style="stop-color:#FFD255"/>
						</linearGradient>
						
							<rect x="234.9" y="292.4" style="fill:url(#SVGID_00000003808413061751672710000006289842458859071667_);" width="125.9" height="6.4"/>
						<rect x="198.5" y="99.4" class="st17" width="25.1" height="2.6"/>
						<rect x="230.6" y="118.7" class="st17" width="18.1" height="2.6"/>
						<rect x="251.6" y="118.7" class="st19" width="12" height="2.6"/>
						<rect x="276.1" y="196.5" class="st19" width="12" height="2.6"/>
						<rect x="198.7" y="167.4" class="st19" width="12" height="2.6"/>
						<rect x="266" y="118.7" class="st17" width="29.1" height="2.6"/>
						<rect x="198.7" y="157.7" class="st17" width="18.7" height="2.6"/>
						<rect x="248.9" y="177.1" class="st17" width="18.7" height="2.6"/>
						<rect x="318.6" y="196.5" class="st17" width="18.7" height="2.6"/>
						<rect x="224.8" y="177.1" class="st17" width="11.4" height="2.6"/>
						<rect x="198.7" y="177.1" class="st19" width="22.6" height="2.6"/>
						<rect x="198.7" y="186.8" class="st17" width="12.4" height="2.6"/>
						<rect x="228.5" y="99.4" class="st18" width="17.8" height="2.6"/>
						<rect x="228.5" y="128.4" class="st19" width="17.8" height="2.6"/>
						<rect x="219.5" y="138.1" class="st17" width="7.6" height="2.6"/>
						<rect x="211.9" y="147.9" class="st18" width="17.1" height="2.6"/>
						<rect x="231.6" y="147.9" class="st19" width="23.6" height="2.6"/>
						<rect x="306.4" y="186.8" class="st19" width="23.6" height="2.6"/>
						<rect x="198.7" y="138.2" class="st19" width="17.8" height="2.6"/>
						<rect x="198.7" y="147.9" class="st19" width="10.6" height="2.6"/>
						<rect x="230.8" y="138.2" class="st35" width="10" height="2.6"/>
						<rect x="199" y="196.5" class="st35" width="10" height="2.6"/>
						<rect x="198.7" y="118.7" class="st18" width="17.8" height="2.6"/>
						<rect x="214.4" y="167.4" class="st18" width="17.8" height="2.6"/>
						<rect x="214.7" y="186.8" class="st18" width="17.8" height="2.6"/>
						<rect x="246.3" y="186.8" class="st18" width="17.8" height="2.6"/>
						<rect x="198.7" y="128.4" class="st18" width="25.4" height="2.6"/>
						<rect x="317.8" y="99.4" class="st18" width="17.8" height="2.6"/>
						<rect x="254.3" y="196.5" class="st18" width="17.8" height="2.6"/>
						<rect x="341.1" y="99.4" class="st18" width="11.9" height="2.6"/>
						<rect x="381.5" y="109.1" class="st18" width="11.9" height="2.6"/>
						<rect x="251.1" y="99.4" class="st19" width="22.7" height="2.6"/>
						<rect x="341.1" y="196.5" class="st19" width="22.7" height="2.6"/>
						<rect x="212.8" y="196.5" class="st19" width="22.7" height="2.6"/>
						<rect x="339.6" y="109.1" class="st19" width="22.7" height="2.6"/>
						<rect x="311.7" y="118.7" class="st19" width="22.7" height="2.6"/>
						<rect x="292" y="196.5" class="st19" width="22.7" height="2.6"/>
						<rect x="288.5" y="177.1" class="st19" width="22.7" height="2.6"/>
						<rect x="282.2" y="128.4" class="st19" width="22.7" height="2.6"/>
						<rect x="239.7" y="177.1" class="st35" width="4.9" height="2.6"/>
						<rect x="337.3" y="118.7" class="st18" width="16.1" height="2.6"/>
						<rect x="290.6" y="99.4" class="st35" width="22.7" height="2.6"/>
						<rect x="264.7" y="128.4" class="st35" width="13.3" height="2.6"/>
						<rect x="254.3" y="167.6" class="st35" width="13.3" height="2.6"/>
						<rect x="278" y="99.4" class="st17" width="8.3" height="2.6"/>
						<rect x="251.1" y="128.4" class="st17" width="8.3" height="2.6"/>
						<rect x="367.8" y="109.1" class="st17" width="8.3" height="2.6"/>
						<rect x="198.5" y="109.1" class="st19" width="13" height="2.6"/>
						<rect x="233.2" y="157.8" class="st19" width="10.3" height="2.6"/>
						<rect x="214.7" y="109.1" class="st19" width="4.2" height="2.6"/>
						<rect x="300.9" y="109.1" class="st17" width="34.7" height="2.6"/>
						<rect x="267.6" y="186.8" class="st17" width="34.7" height="2.6"/>
						<rect x="221.9" y="109.1" class="st35" width="4.3" height="2.6"/>
						<rect x="286.3" y="109.1" class="st19" width="11.4" height="2.6"/>
						<rect x="297.7" y="118.7" class="st35" width="11.4" height="2.6"/>
						<rect x="272.3" y="177.1" class="st35" width="11.4" height="2.6"/>
						<rect x="239.3" y="196.5" class="st35" width="11.4" height="2.6"/>
						<rect x="259.1" y="109.1" class="st19" width="24.2" height="2.6"/>
						<rect x="315.4" y="177.1" class="st19" width="24.2" height="2.6"/>
						<rect x="236.7" y="167.6" class="st19" width="14.1" height="2.6"/>
						<rect x="235.7" y="186.8" class="st19" width="7.1" height="2.6"/>
						<rect x="247.4" y="109.1" class="st18" width="8.3" height="2.6"/>
						<rect x="333.1" y="186.8" class="st35" width="8.3" height="2.6"/>
						<rect x="219.4" y="118.7" class="st35" width="8.3" height="2.6"/>
						<rect x="221.1" y="157.8" class="st35" width="8.3" height="2.6"/>
						<rect x="229.7" y="109.1" class="st19" width="14.5" height="2.6"/>
						<path class="st36" d="M280,130.1c0.2,1.5,0.5,3,0.9,4.5c0.5,1.4,3.2,4.5,2.1,7.5c-1.2,3.3-6.7,0.1-8.9-0.9s-1.7-2.8-2-5
							s-1.3-2.3-0.9-3.8s2.8-4.6,2.8-4.6L280,130.1z"/>
						<path class="st15" d="M275.1,126.2l-1.4,2c0,0,6,3.7,6.4,2.5c0.2-0.8,0.4-1.5,0.5-2.3L275.1,126.2z"/>
						<path class="st36" d="M254.9,132.3c-1.3,1.2-2.4,2.5-3.4,4c-1.6,2.4-5.9,2.6-6.1,5.9s5.9,3.4,9.1,2.3s3.7-4.3,5.6-5.2
							s2.9-1.5,2.8-3.1c-0.2-1.4-0.6-2.9-1.2-4.2c-0.6,0.2-1.3,0.4-1.9,0.5C258.2,132.8,256.5,132.7,254.9,132.3z"/>
						<path class="st19" d="M276.7,42c0,0-1.2,7.2-2.2,12l0,0c-0.3,1.4-0.6,2.7-1,4c-1.7,2.1-3.5,4.1-5.4,5.9
							c-4.9,5.1-11.4,11.4-11.4,11.4l-2.5-4.8c0,0,5.8-6.8,9.7-11.3c1.8-2.1,3.2-3.7,3.5-3.9c0.8-0.7,1.8-7.9,3.1-13.9
							c0.7-3.3,2-6.5,4-9.2L276.7,42z"/>
						<path class="st15" d="M268.2,64c-4.9,5.1-11.4,11.4-11.4,11.4l-2.5-4.8c0,0,5.8-6.8,9.7-11.3C265.9,60.3,267.4,62,268.2,64z"
							/>
						<path class="st15" d="M255.2,130.1l-0.3,2.2c2.2,0.6,4.5,0.6,6.6-0.1l0.1-2L255.2,130.1z"/>
						<path class="st19" d="M300,74.4c0.2,0.6-33.4,0-33.4,0s9.3-6.8,9.9-8.6s-2.4-12.6-2.8-16.2c-0.3-2.8-1.1-15.4,0.8-17.4
							s8.9-4.1,8.9-4.1l10.2,0.4c1,0.2,2,0.5,2.9,0.9c1.2,0.6,8.1,3,9.2,6.5s-6.9,14.5-6.9,14.5v1.3l0,0c0,1.1-0.1,2.7-0.1,4.5
							c-0.1,2.3-0.1,4.9-0.1,6.7C298.7,66.8,299.2,70.6,300,74.4z"/>
						<path class="st37" d="M300,74.4c0,0,4.6,6.7,4.6,11.3s-8.1,19.9-9.3,22.1c-3.7,6.6-13.9,20.8-13.9,20.8s-1.8,0-7.2-2.2
							c0,0,6.8-18.8,7.6-20.7c3.6-8.3,5.7-14.1,4.5-15.6s-4.6-2.8-5.5-3.7S263,89.6,261.2,90c-4.6,1.2-2.5,9.1-1.5,12.7
							c1.7,6,3.2,27.5,3.2,27.5s-3.3,1.4-8.7,0.2c0,0-10.7-38.9-11.1-42.8s-0.5-10.2,25.9-15.1L300,74.4z"/>
						<path class="st15" d="M286.2,6c0,0-8.9-2-6.8,9.2s4.2,12,9.5,9.7s4.9-9.4,5.1-13S289.1,6.2,286.2,6z"/>
						<path class="st15" d="M283.9,31.1c0,0,3.9,4.2,10.1,0.4c0,0-1.4-9-0.7-13.4s-8.1,6.8-8.1,6.8c0.2,0.3,0.2,0.7,0.2,1.1
							c0,0.6,0,1.2-0.1,1.8C285.2,29.2,284.7,30.7,283.9,31.1z"/>
						<path class="st38" d="M293.6,17.7c0,0-0.2-3.5-1.5-3.6s-1.5,1.3-1.5,1.3l-1.3,0.2c0,0,0.4-3.1-0.9-3.6s-8.3,1.7-9.3,0.8
							s-0.5-7.1,1.3-8s7-2.8,10.8-0.2c0,0,2.9-0.3,3.4,2S294.4,15.9,293.6,17.7z"/>
						<path class="st28" d="M285.4,27.7c6.4-2,6.9-5.8,6.9-5.9c-2.1,3.6-6.8,4.1-6.8,4.1C285.5,26.5,285.5,27.1,285.4,27.7z"/>
						<path class="st15" d="M296.6,29.5c0,0-4.7,9.3-12.3,8.7s-1.3-10-0.9-10.1S291.2,26.3,296.6,29.5z"/>
						<path class="st19" d="M262.7,74c0,0,23.2,2.9,37.2,0.5l-26.8-3.4C273.1,71.1,273,71.8,262.7,74z"/>
						<path class="st15" d="M280.1,70l-1.7,0.9c0,0,0.4,2.7,1.3,3.6l1.9-0.5C281.6,74,281.2,71,280.1,70z"/>
						<path class="st19" d="M306.9,64.4c-0.3,0.4-4.9,2.2-10.1,4.2l0,0c-7,2.7-15,5.3-15,5.3L280,70c0,0,8.3-4.5,13.9-7.7
							c2.6-1.5,4.7-2.7,5-3c0.9-0.9,1.1-2.2,0.5-4.6S297.2,41.2,297,40s0.4-4.7,3.7-4.9c1.7-0.2,3.4,0.1,4.9,0.7
							c0,0,0.8,0.3,1.4,8.2S307.7,63.5,306.9,64.4z"/>
						<path class="st39" d="M298.8,51.8L298.8,51.8c0,1.1-0.1,2.7-0.1,4.5c-1.9-4.4-2.3-9.3-1.3-14
							C297.1,44.4,298.8,51.6,298.8,51.8z"/>
						<path class="st39" d="M274.5,54.1L274.5,54.1c-0.3,1.4-0.6,2.7-1,4c-1.1-5.2-0.1-11.9-0.1-11.9
							C273.6,48.9,274,51.5,274.5,54.1z"/>
						<path class="st15" d="M296.9,68.6L296.9,68.6c-7,2.7-15.2,5.4-15.2,5.4l-1.5-4c0,0,8.3-4.5,13.9-7.7
							C294,62.3,296,63.3,296.9,68.6z"/>
						<polygon class="st40" points="279.6,74.2 246.6,73.7 263.3,82.2 						"/>
						<polygon class="st41" points="263.3,82.2 279.6,75.9 279.6,74.2 262,80.6 						"/>
						<path class="st15" d="M278.7,71c-1.2-0.2-2.3-0.4-3.5-0.7c-1.1-0.3-3.8,0.1-4.5,0.8s-2.9,5.6-3.3,5.9s0.2,1,1,0.6
							c0,0,0.7,2.2,2.3,1.4s2.8-2.6,3.7-2.9s6-1.9,6-1.9S280,70.4,278.7,71z"/>
						<path class="st15" d="M271.2,70.8c-0.6,0.3-1.2,0.6-1.7,0.9c-0.3,0.3-1.7,1.3-2.1,1.6s0.5,0.9,3-0.1S271.2,70.8,271.2,70.8z"
							/>
						<polygon class="st41" points="263.3,82.2 253.5,55.4 221.9,55.9 231.2,80.6 						"/>
						<path class="st24" d="M243.3,67.3c1,1.9,0.7,4-0.7,4.7s-3.2-0.4-4.1-2.3s-0.7-4,0.7-4.7S242.4,65.3,243.3,67.3z"/>
						<path class="st15" d="M290.6,13.9c0.1-1,2.1-1.3,2.2,0.1s-0.9,4.1-1.6,3.8S290.5,15.2,290.6,13.9z"/>
						<path class="st42" d="M289.9,236.5c0,4.3,3.5,7.8,7.8,7.8c4.3,0,7.8-3.5,7.8-7.8c0-4.3-3.5-7.8-7.8-7.8l0,0
							c-4.2-0.1-7.7,3.3-7.8,7.6C289.9,236.3,289.9,236.4,289.9,236.5z"/>
					</g>
				</g>
				<g>
					<defs>
						<rect id="SVGID_00000012430396326738991590000011664056558719696824_" width="1245" height="300"/>
					</defs>
					<clipPath id="SVGID_00000050661630878833904800000004913419993003259799_">
						<use xlink:href="#SVGID_00000012430396326738991590000011664056558719696824_"  style="overflow:visible;"/>
					</clipPath>
					<g style="clip-path:url(#SVGID_00000050661630878833904800000004913419993003259799_);">
						<path class="st15" d="M400.9,186.9c0,0-2.4,1.1-3.6,0.6c-1.1-0.4-2.3-0.6-3.5-0.6c-0.7,0-3.1-0.8-3,0.1s3.8,1.5,4.6,1.8
							s-2.3,2-2.6,2.7s3.2,5.7,5.1,4.3s3-4.2,3.4-4.4s1.5-1,1.5-1L400.9,186.9z"/>
						<path class="st15" d="M393.2,191.1c0,0-5.7,4.7-5.7,5.3s0.2,0.9,0.8,0.5s5.6-4.4,5.6-4.4s-5.7,6.7-5.8,7.2
							c-0.1,0.3,0.4,0.9,0.7,0.7s6.3-6.5,6.3-6.5s-5.3,6.3-5.3,6.7s0.6,0.9,1,0.4s5.7-6,5.7-6s-3.5,4.8-3.3,5.2s0.6,0.8,1.4-0.5
							s3.3-4,3.3-4L393.2,191.1z"/>
						<path class="st44" d="M439.9,288.5c0,0,0.2,7.7-0.9,8.1s-5.2-2.2-7.1-4.9s2.3-8.8,3-12.2c0.3-1.4,3.5-4,5.1-3.2
							c1.1,0.6,2.1,1.5,2.7,2.6C442.7,278.9,438.7,281.7,439.9,288.5z"/>
						<path class="st45" d="M442.7,279c-0.8,1.5-1.5,3.1-2.1,4.7c-0.7,2-0.8,7.7-1.3,8.1s-3.9-1.4-4.4-3.5s0.9-6.3,2.3-8.5
							c0.7-1.2,1.6-2.4,2.7-3.3C439.9,276.5,442.3,276.9,442.7,279z"/>
						<polygon class="st44" points="434.9,279.6 431.2,285.1 431.9,285.6 434.8,281.4 						"/>
						<path class="st45" d="M456.1,229.7c0,0-2.1,11.3-2.1,14c0,3.6-0.9,7.2-2.5,10.4c-1.7,3.3-9.3,25.7-9.9,28.3s-1.2,5.1-1.2,5.1
							s-3.8-1.7-3.8-4.2s3.3-22.8,3.8-26.8s5.3-24.6,5.3-24.6L456.1,229.7z"/>
						<path class="st15" d="M444.1,228.9c0,0,0.7,9.4,0.7,11.9s-1.2,8-1.2,9.5s0,32,1.2,35.7s-3.4,1.2-3.4,1.2s-8.1-20.1-8.1-28.5
							s1-12.6,0.4-17.9s-4.2-12.4-4.2-12.4L444.1,228.9z"/>
						<path class="st15" d="M445.4,105.6c0,0,7.5,7.6,5,17.4s-6.7,9.8-11.2,5.6s-7.2-8.6-7.8-13.5S438.5,98.8,445.4,105.6z"/>
						<path class="st15" d="M446.9,138.2c-0.7-1.8-1.4-3.6-1.9-5.4c-0.1-0.5-0.3-1-0.4-1.5c-0.4-1.6-0.5-3.2-0.1-4.8
							c1.2-3.6-7.5-1.1-7.5-1.1s1.7,9.4,0,12.6C435.2,141,446.9,138.2,446.9,138.2z"/>
						<path class="st46" d="M431.8,183.6c0,0-5.4,8-6.6,15.1s1,17.7,1.9,21.6c0.8,3.4,2,14,2,15.1c0,0,17,4.4,28.2,0.9
							c0,0,1.7-17.5,2.4-24s-3.9-28.3-3.9-28.3L431.8,183.6z"/>
						<path class="st47" d="M399.4,187.3l3.1,3.5c0,0,18.3-14.8,19.1-16.8s7-13,7.3-14.2c0,0,1.2,3.1,2.2,6c0.4,1.2,0.9,3.5,1.2,4.5
							c0.9,4.4,0.8,8.9-0.3,13.3c0,0,14.8,5.5,24,0.5c0,0-1-8,0.5-13.2s9.2-23.3,9.2-23.3s-4.1-7.6-8.4-9.1s-9.1-2.6-9.1-2.6h-10.1
							c0,0-6.6,1.7-8.1,2.2c-2.7,0.8-5.1,4.2-5.6,7.2s-7.4,23.7-8.3,24.3S399.4,187.3,399.4,187.3z"/>
						<path class="st15" d="M459.2,177.5c0,0-6.6,0.3-7.6,0s-7.8-3.2-8.2-6.1s15.8,2.6,15.8,2.6L459.2,177.5L459.2,177.5z"/>
						<path class="st48" d="M448.6,295.3c0,0,5.1,5.9,4.5,7s-5.5,1.6-8.7,0.7s-3.8-8.4-5.4-11.5c-0.7-1.3,0.2-5.4,1.9-5.8
							c1.3-0.2,2.6-0.1,3.8,0.3C444.7,286,443.3,290.7,448.6,295.3z"/>
						<path class="st15" d="M444.7,286c0,0,0.6,2.9,1.3,5s4.2,6.6,4.1,7.2s-4,1.4-5.7,0.1s-3.3-5.6-3.6-8.2
							c-0.2-1.4-0.2-2.9-0.2-4.3C440.6,285.8,443.1,284.5,444.7,286z"/>
						<polygon class="st48" points="439,291.5 439.5,298.2 440.4,298.1 440,292.9 						"/>
						<polygon class="st49" points="438.9,168.4 465.5,165.3 453.5,175 						"/>
						<path class="st47" d="M458.4,173.7c0,0,0.3,3.4,0,4.1c0,0,16.4-1.6,17.9-3.9c0.9-1.5,1.4-3.3,1.5-5.1L458.4,173.7z"/>
						<path class="st50" d="M442.9,111c0,0-3.6,6.6-5.8,8.9s-2,4.2-2,4.2s-8.7-10.8-2.5-17.3s14.3-3.9,16.6,1.8s1.5,12.6,1.5,12.6
							S450.6,114.6,442.9,111z"/>
						<path class="st50" d="M440.6,104.2c0,0,0.9-4.8-6.6-6.7s-10.9,6.8-10,12s7.4,18.7,3.9,20.4s-4.9-2-4.9-2s1.1,6.6,5.9,5.1
							s4.2-12.2,3.5-16.5S440.6,104.2,440.6,104.2z"/>
						<path class="st47" d="M448,136c-0.3-0.8-0.5-1.6-0.6-2.5c0,0-9.5-0.6-11.9-0.2c0,0-0.2,2.7-0.2,3.3S446.3,139,448,136z"/>
						<polygon class="st3" points="453.5,175 438.9,170.1 438.9,168.4 454,173.2 						"/>
						<polygon class="st3" points="453.5,175 461.2,146.2 490.7,143.1 482.6,169.6 						"/>
						<path class="st28" d="M438.1,127.6c1.3,2.7,3.8,4.6,6.8,5.1c-0.1-0.5-0.3-1-0.4-1.5C444.6,131.2,441.9,131.7,438.1,127.6z"/>
						<path class="st51" d="M428.8,159.8c0,0,1.2,3.1,2.2,6c0.6-5,0.5-10-0.4-15C430.4,153.9,429.8,156.9,428.8,159.8z"/>
						<path class="st47" d="M439.4,103.2c0,0-5.3,1-8,5.4c0,0,0.5-3.9,3.2-5.1C436.1,102.8,437.8,102.7,439.4,103.2z"/>
					</g>
				</g>
			</g>
		</g>
	</g>
</g>
</svg>
