<?xml version="1.0" encoding="utf-8"?>
<!-- Generator: Adobe Illustrator 26.0.2, SVG Export Plug-In . SVG Version: 6.00 Build 0)  -->
<svg version="1.1" id="Слой_1" xmlns="http://www.w3.org/2000/svg" xmlns:xlink="http://www.w3.org/1999/xlink" x="0px" y="0px"
	 viewBox="0 0 1245 300" style="enable-background:new 0 0 1245 300;" xml:space="preserve">
<style type="text/css">
	.st0{clip-path:url(#SVGID_00000115476447480123789560000001257550249551324833_);fill:#94D4FF;}
	.st1{clip-path:url(#SVGID_00000142135425538881639150000008703402479919328641_);}
	.st2{fill:#323657;}
	.st3{clip-path:url(#SVGID_00000004529537697441697090000015119723445659831201_);}
	.st4{fill:#FFFFFF;}
	.st5{clip-path:url(#SVGID_00000025427934098144099280000009331282312614279590_);}
	.st6{clip-path:url(#SVGID_00000017513022545533250910000001874021585584231315_);}
	.st7{clip-path:url(#SVGID_00000031918878794566018130000006508547448263617680_);}
	.st8{clip-path:url(#SVGID_00000075122898013731291650000014508062938698934711_);}
	.st9{clip-path:url(#SVGID_00000083089737543155317670000006774559959585862070_);}
	.st10{clip-path:url(#SVGID_00000089560263742288824860000015721613085568782477_);}
	.st11{clip-path:url(#SVGID_00000157296071607769079060000011607986794946460850_);}
	.st12{clip-path:url(#SVGID_00000125595153715047784700000000762700525259148440_);}
	.st13{clip-path:url(#SVGID_00000033333697967990729780000010000434636836875441_);}
	.st14{fill:#EEA886;}
	.st15{opacity:0.68;fill:url(#SVGID_00000119838693818603299140000014345154623043521922_);enable-background:new    ;}
	.st16{fill:#E0E0E0;}
	.st17{fill:#78C2FF;}
	.st18{fill:#1487E3;}
	.st19{fill:#FFC055;}
	.st20{fill:#FFC455;}
	.st21{fill:#202338;}
	.st22{fill:#1C4054;}
	.st23{fill:#518AFA;}
	.st24{fill:#EEA987;}
	.st25{fill:#3D66BA;}
	.st26{fill:#252E3B;}
	.st27{fill:#A77860;}
	.st28{clip-path:url(#SVGID_00000114790493529282926940000004471035662861644990_);}
	.st29{clip-path:url(#SVGID_00000024713172388043189520000007371362271883540902_);}
	.st30{fill:url(#SVGID_00000175288893389897965030000000864063302382445222_);}
	.st31{fill:url(#SVGID_00000142874584796712891510000013559001679994754192_);}
	.st32{fill:url(#SVGID_00000145053112974205142510000000813089239637285255_);}
	.st33{fill:#FF8761;}
	.st34{fill:#999999;}
	.st35{fill:#E8E8E8;}
	.st36{fill:#3A3F47;}
	.st37{fill:#0C5087;}
	.st38{fill:#444C94;}
	.st39{fill:#303669;}
	.st40{fill:#696969;}
	.st41{clip-path:url(#SVGID_00000013889412446688102180000000974742838072809345_);}
	.st42{fill:#3D6091;}
	.st43{fill:#DE9673;}
	.st44{fill:#316EBF;}
	.st45{fill:#EDDAD3;}
	.st46{fill:#5D89C4;}
	.st47{fill:#4C5285;}
	.st48{fill:#E8734D;}
	.st49{fill:#CFBEB8;}
	.st50{clip-path:url(#SVGID_00000046312702375776491650000004470310453067556775_);}
	.st51{fill:#86AB46;}
	.st52{fill:#387D19;}
	.st53{fill:#397315;}
	.st54{clip-path:url(#SVGID_00000076590677406030296070000017187264378364189108_);}
	
		.st55{clip-path:url(#SVGID_00000145744347123146047740000003478207372889920184_);fill:none;stroke:#22577A;stroke-width:5;stroke-miterlimit:10;}
</style>
<g>
	<g>
		<defs>
			<rect id="SVGID_1_" width="1245" height="300"/>
		</defs>
		<clipPath id="SVGID_00000076586928980073431490000014253317040782046593_">
			<use xlink:href="#SVGID_1_"  style="overflow:visible;"/>
		</clipPath>
		<path style="clip-path:url(#SVGID_00000076586928980073431490000014253317040782046593_);fill:#94D4FF;" d="M-22.1,126
			c0,0,9.9-31.4,191.8-100.9C286.1-19.4,401.1,28.1,525,83c121,53.6,206.8,0,308.2-49.7c112.6-55.1,337.4-22.9,390.1,11.3
			c83,53.9,42.2,264,42.2,264H-22.1V126z"/>
	</g>
	<g>
		<defs>
			<rect id="SVGID_00000005231096745090048580000001583795057995513483_" width="1245" height="300"/>
		</defs>
		<clipPath id="SVGID_00000055702682612962810700000004778123118136521630_">
			<use xlink:href="#SVGID_00000005231096745090048580000001583795057995513483_"  style="overflow:visible;"/>
		</clipPath>
		<g style="clip-path:url(#SVGID_00000055702682612962810700000004778123118136521630_);">
			<g>
				<g>
					<path class="st2" d="M906.6,204L906.6,204C906.6,204,906.7,204,906.6,204z"/>
				</g>
			</g>
		</g>
	</g>
	<g>
		<defs>
			<rect id="SVGID_00000085226068865262227680000015952066681175540379_" width="1245" height="300"/>
		</defs>
		<clipPath id="SVGID_00000149381420113953879080000010164726823122999692_">
			<use xlink:href="#SVGID_00000085226068865262227680000015952066681175540379_"  style="overflow:visible;"/>
		</clipPath>
		<g style="clip-path:url(#SVGID_00000149381420113953879080000010164726823122999692_);">
			<g>
				<path class="st4" d="M859.2,265.3h-57.3l0.1-0.5c0.9-4.7,5.1-8.2,9.9-8.2c0.7,0,1.4,0.1,2.1,0.2c3-5.7,8.8-9.2,15.2-9.2
					c5.5,0,10.7,2.6,13.9,7.1c1.2-0.4,2.4-0.5,3.7-0.5c6.2,0,11.5,4.5,12.4,10.6L859.2,265.3z M803,264.5h55.3
					c-1.1-5.4-5.9-9.4-11.5-9.4c-1.3,0-2.5,0.2-3.7,0.6l-0.3,0.1l-0.2-0.3c-3.1-4.4-8.1-7-13.4-7c-6.2,0-11.8,3.5-14.6,9l-0.2,0.3
					l-0.3-0.1c-0.7-0.2-1.5-0.3-2.2-0.3C807.7,257.5,804,260.4,803,264.5z"/>
			</g>
			<g>
				<path class="st4" d="M834.9,261.8c-1.7,0-3.1-1.4-3.1-3.1s1.4-3.1,3.1-3.1s3.1,1.4,3.1,3.1S836.6,261.8,834.9,261.8z
					 M834.9,256.4c-1.3,0-2.3,1-2.3,2.3s1,2.3,2.3,2.3s2.3-1,2.3-2.3S836.1,256.4,834.9,256.4z"/>
			</g>
		</g>
	</g>
	<g>
		<defs>
			<rect id="SVGID_00000157277704399841199180000003969363083336309899_" width="1245" height="300"/>
		</defs>
		<clipPath id="SVGID_00000165944802712345150240000015155879608025783984_">
			<use xlink:href="#SVGID_00000157277704399841199180000003969363083336309899_"  style="overflow:visible;"/>
		</clipPath>
		<g style="clip-path:url(#SVGID_00000165944802712345150240000015155879608025783984_);">
			<g>
				<path class="st4" d="M542,274.7l-0.2-0.1c-20.3-10.4-17.6-30.5-17.6-30.7l0.1-0.4h0.4c12.9,0,17-4.2,17-4.2l0.3-0.3l0.3,0.3
					c0,0,4.1,4.2,17,4.2h0.4l0.1,0.4c0,0.2,2.8,20.3-17.6,30.7L542,274.7z M525.1,244.4c-0.3,2.7-1.1,20,17,29.4
					c18.1-9.4,17.2-26.6,17-29.4c-11.2-0.1-15.8-3.2-17-4.2C540.9,241.2,536.3,244.3,525.1,244.4z"/>
			</g>
			<g>
				<polygon class="st4" points="570.4,285.3 563,285.3 563,284.5 569.5,284.5 569.5,278 570.4,278 				"/>
			</g>
			<g>
				<polygon class="st4" points="520.9,285.3 513.6,285.3 513.6,278 514.4,278 514.4,284.5 520.9,284.5 				"/>
			</g>
			<g>
				<polygon class="st4" points="514.4,235.9 513.6,235.9 513.6,228.5 520.9,228.5 520.9,229.4 514.4,229.4 				"/>
			</g>
			<g>
				<polygon class="st4" points="570.4,235.9 569.5,235.9 569.5,229.4 563,229.4 563,228.5 570.4,228.5 				"/>
			</g>
			<g>
				<rect x="569.5" y="246.9" class="st4" width="0.9" height="20.1"/>
			</g>
			<g>
				<rect x="513.6" y="246.9" class="st4" width="0.9" height="20.1"/>
			</g>
			<g>
				<path class="st4" d="M542,269.6c-1.7,0-3.1-1.4-3.1-3.1s1.4-3.1,3.1-3.1s3.1,1.4,3.1,3.1C545.2,268.2,543.8,269.6,542,269.6z
					 M542,264.2c-1.3,0-2.3,1-2.3,2.3s1,2.3,2.3,2.3s2.3-1,2.3-2.3S543.3,264.2,542,264.2z"/>
			</g>
		</g>
	</g>
	<g>
		<defs>
			<rect id="SVGID_00000162350315346783223530000008752346845919017114_" width="1245" height="300"/>
		</defs>
		<clipPath id="SVGID_00000034063575794004034960000010036157690335276208_">
			<use xlink:href="#SVGID_00000162350315346783223530000008752346845919017114_"  style="overflow:visible;"/>
		</clipPath>
		<g style="clip-path:url(#SVGID_00000034063575794004034960000010036157690335276208_);">
			<g>
				<path class="st4" d="M841.4,102h-21.6V80.4h21.6V102z M820.6,101.1h19.9V81.2h-19.9V101.1z"/>
			</g>
			<g>
				<rect x="830.1" y="86.2" class="st4" width="0.9" height="10.1"/>
			</g>
			<g>
				<rect x="825.5" y="90.8" class="st4" width="10.1" height="0.9"/>
			</g>
		</g>
	</g>
	<g>
		<defs>
			<rect id="SVGID_00000054981622626130161470000007485677680426993823_" width="1245" height="300"/>
		</defs>
		<clipPath id="SVGID_00000170258935098380267770000002875076842823810712_">
			<use xlink:href="#SVGID_00000054981622626130161470000007485677680426993823_"  style="overflow:visible;"/>
		</clipPath>
		<g style="clip-path:url(#SVGID_00000170258935098380267770000002875076842823810712_);">
			<g>
				<path class="st4" d="M1207.4,110.9h-35.9V85.2h35.9V110.9z M1172.4,109.9h33.9V86.2h-33.9V109.9z"/>
			</g>
			<g>
				<polygon class="st4" points="1189.4,100.8 1171.6,86.1 1172.3,85.4 1189.4,99.5 1206.5,85.4 1207.2,86.1 				"/>
			</g>
			<g>
				
					<rect x="1199.9" y="94.3" transform="matrix(0.7256 -0.6881 0.6881 0.7256 258.0515 854.4514)" class="st4" width="1" height="18.7"/>
			</g>
			<g>
				
					<rect x="1169" y="103.1" transform="matrix(0.6878 -0.7259 0.7259 0.6878 292.674 887.7356)" class="st4" width="18.7" height="1"/>
			</g>
		</g>
	</g>
	<g>
		<defs>
			<rect id="SVGID_00000094597441441648593470000011519773853077216417_" width="1245" height="300"/>
		</defs>
		<clipPath id="SVGID_00000166646888919677319500000010888807711451254179_">
			<use xlink:href="#SVGID_00000094597441441648593470000011519773853077216417_"  style="overflow:visible;"/>
		</clipPath>
		<g style="clip-path:url(#SVGID_00000166646888919677319500000010888807711451254179_);">
			<g>
				<path class="st4" d="M961.8,231.5H931v-22h30.9v22H961.8z M931.8,230.7H961v-20.3h-29.2V230.7z"/>
			</g>
			<g>
				<polygon class="st4" points="946.4,222.9 931.1,210.3 931.7,209.6 946.4,221.7 961.2,209.6 961.7,210.3 				"/>
			</g>
			<g>
				
					<rect x="955.4" y="217.3" transform="matrix(0.7256 -0.6881 0.6881 0.7256 107.213 719.5784)" class="st4" width="0.9" height="16.1"/>
			</g>
			<g>
				
					<rect x="928.9" y="224.8" transform="matrix(0.6878 -0.7259 0.7259 0.6878 129.0079 750.4355)" class="st4" width="16.1" height="0.9"/>
			</g>
		</g>
	</g>
	<g>
		<defs>
			<rect id="SVGID_00000054253746918498370130000004356893534465484686_" width="1245" height="300"/>
		</defs>
		<clipPath id="SVGID_00000008119750263319276870000008143243292740978834_">
			<use xlink:href="#SVGID_00000054253746918498370130000004356893534465484686_"  style="overflow:visible;"/>
		</clipPath>
		<g style="clip-path:url(#SVGID_00000008119750263319276870000008143243292740978834_);">
			<g>
				<path class="st4" d="M923.1,49.4l-0.3-0.8c-0.3,0-0.6-0.1-0.8-0.2l-0.7,0.6l-1.9-1.4l0.4-0.8c-0.2-0.2-0.3-0.5-0.5-0.7h-0.9
					l-0.4-2.3l0.8-0.3c0-0.3,0.1-0.6,0.2-0.8l-0.6-0.7l1.4-1.9l0.8,0.4c0.2-0.2,0.5-0.3,0.7-0.5v-0.9l2.3-0.4l0.3,0.8
					c0.3,0,0.6,0.1,0.8,0.2l0.7-0.6l1.9,1.4l-0.4,0.8c0.2,0.2,0.3,0.5,0.5,0.7h0.9l0.4,2.3l-0.8,0.3c0,0.3-0.1,0.6-0.2,0.8l0.6,0.7
					L927,48l-0.8-0.4c-0.2,0.2-0.5,0.3-0.7,0.5V49L923.1,49.4z M921.8,47.6l0.2,0.1c0.3,0.1,0.7,0.2,1.1,0.2h0.2l0.3,0.7l1.3-0.2
					v-0.8l0.2-0.1c0.3-0.2,0.6-0.3,0.9-0.6l0.2-0.1l0.7,0.3l0.7-1l-0.5-0.6l0.1-0.2c0.1-0.3,0.2-0.7,0.2-1.1V44l0.7-0.3l-0.2-1.3
					h-0.8l-0.1-0.2c-0.1-0.3-0.3-0.6-0.6-0.9l-0.1-0.2l0.3-0.7l-1-0.7l-0.6,0.5l-0.2-0.1c-0.3-0.1-0.7-0.2-1.1-0.2h-0.2l-0.3-0.7
					l-1.3,0.2v0.8l-0.2,0.1c-0.3,0.1-0.6,0.3-0.9,0.6l-0.2,0.1l-0.7-0.3l-0.7,1l0.5,0.6l-0.1,0.2c-0.1,0.3-0.2,0.7-0.2,1.1v0.2
					l-0.7,0.3l0.2,1.3h0.8l0.1,0.2c0.1,0.3,0.3,0.6,0.6,0.9l0.1,0.2l-0.3,0.7l1,0.7L921.8,47.6z M923.4,46.5c-0.5,0-1-0.2-1.5-0.5
					l0,0c-0.6-0.4-0.9-1-1-1.6c-0.1-0.7,0-1.3,0.4-1.9c0.8-1.1,2.4-1.4,3.5-0.6c1.1,0.8,1.4,2.4,0.6,3.5
					C925,46.2,924.2,46.5,923.4,46.5z M923.4,42.1c-0.6,0-1.2,0.3-1.5,0.8c-0.3,0.4-0.4,0.9-0.3,1.4c0.1,0.5,0.4,0.9,0.8,1.2l0,0
					c0.9,0.6,2,0.4,2.6-0.4c0.6-0.9,0.4-2-0.4-2.6C924.2,42.2,923.8,42.1,923.4,42.1z"/>
			</g>
			<g>
				<path class="st4" d="M905.3,52.1l-0.7-1.9c-0.8-0.1-1.5-0.3-2.3-0.5l-1.5,1.4l-4-2.8l0.8-1.8c-0.5-0.6-0.9-1.3-1.2-2l-2-0.1
					l-0.8-4.8l1.9-0.7c0.1-0.8,0.3-1.5,0.5-2.3l-1.4-1.5l2.8-4l1.8,0.8c0.6-0.5,1.3-0.9,2-1.2l0.1-2l4.8-0.8l0.7,1.9
					c0.8,0.1,1.5,0.3,2.3,0.5l1.5-1.4l4,2.8l-0.8,1.8c0.5,0.6,0.9,1.3,1.2,2l2,0.1l0.8,4.8l-1.9,0.7c-0.1,0.8-0.3,1.5-0.5,2.3
					l1.4,1.5l-2.8,4l-1.8-0.8c-0.6,0.5-1.3,0.9-2,1.2l-0.1,2L905.3,52.1z M902.1,48.7l0.2,0.1c0.8,0.3,1.7,0.5,2.5,0.6h0.3l0.7,1.7
					l3.4-0.6l0.1-1.8l0.2-0.1c0.8-0.4,1.5-0.8,2.2-1.4L912,47l1.7,0.7l2-2.8l-1.3-1.3l0.1-0.2c0.3-0.8,0.5-1.7,0.6-2.5v-0.3l1.7-0.7
					l-0.6-3.4l-1.8-0.1l-0.1-0.2c-0.4-0.8-0.8-1.5-1.4-2.2l-0.2-0.2l0.7-1.7l-2.8-2l-1.3,1.3l-0.2-0.1c-0.8-0.3-1.7-0.5-2.5-0.6
					h-0.3l-0.7-1.7l-3.4,0.6l-0.1,1.8l-0.2,0.1c-0.8,0.4-1.5,0.8-2.2,1.4l-0.2,0.2l-1.7-0.7l-2,2.8l1.3,1.3l-0.1,0.2
					c-0.3,0.8-0.5,1.7-0.6,2.5v0.3l-1.7,0.7l0.6,3.4l1.8,0.1l0.1,0.2c0.4,0.8,0.8,1.5,1.4,2.2l0.2,0.2l-0.7,1.7l2.8,2L902.1,48.7z
					 M905.7,45.5c-1.1,0-2.2-0.3-3.2-1c-2.5-1.8-3.1-5.2-1.3-7.7c0.9-1.2,2.1-2,3.6-2.3c1.5-0.2,2.9,0.1,4.1,1
					c2.5,1.8,3.1,5.2,1.3,7.7C909.2,44.7,907.5,45.5,905.7,45.5z M905.7,35.3c-0.3,0-0.5,0-0.8,0.1c-1.2,0.2-2.3,0.9-3,1.9
					c-1.5,2.1-1,5,1.1,6.5s5,1,6.5-1.1c0.7-1,1-2.3,0.8-3.5s-0.9-2.3-1.9-3C907.6,35.6,906.7,35.3,905.7,35.3z"/>
			</g>
		</g>
	</g>
	<g>
		<defs>
			<rect id="SVGID_00000081635088121795872220000001454567812276098742_" width="1245" height="300"/>
		</defs>
		<clipPath id="SVGID_00000065060498772570466430000015290985034313104007_">
			<use xlink:href="#SVGID_00000081635088121795872220000001454567812276098742_"  style="overflow:visible;"/>
		</clipPath>
		<g style="clip-path:url(#SVGID_00000065060498772570466430000015290985034313104007_);">
			<g>
				<g>
					<g>
						<path class="st4" d="M1127.9,185.9c-10.1,0-18.3-8.2-18.3-18.3h1c0,9.6,7.8,17.3,17.3,17.3s17.3-7.8,17.3-17.3
							c0-9.6-7.8-17.3-17.3-17.3v-1c10.1,0,18.3,8.2,18.3,18.3C1146.2,177.7,1138,185.9,1127.9,185.9z M1127.9,183.4
							c-8.7,0-15.8-7.1-15.8-15.8s7.1-15.8,15.8-15.8s15.8,7.1,15.8,15.8h-1c0-8.2-6.6-14.8-14.8-14.8s-14.8,6.6-14.8,14.8
							s6.6,14.8,14.8,14.8V183.4z"/>
					</g>
				</g>
			</g>
			<g>
				<polygon class="st4" points="1125.6,173.7 1119,167 1119.7,166.3 1125.6,172.3 1136,161.9 1136.7,162.6 				"/>
			</g>
		</g>
	</g>
	<g>
		<defs>
			<rect id="SVGID_00000174561116683563043210000010635211492309861542_" width="1245" height="300"/>
		</defs>
		<clipPath id="SVGID_00000101822755004875840300000015789177244291343011_">
			<use xlink:href="#SVGID_00000174561116683563043210000010635211492309861542_"  style="overflow:visible;"/>
		</clipPath>
		<g style="clip-path:url(#SVGID_00000101822755004875840300000015789177244291343011_);">
			<g>
				<path class="st4" d="M149.4,163.6c-1.7,0-3.1-1.4-3.1-3.1s1.4-3.1,3.1-3.1s3.1,1.4,3.1,3.1C152.6,162.2,151.2,163.6,149.4,163.6
					z M149.4,158.2c-1.3,0-2.3,1-2.3,2.3s1,2.3,2.3,2.3s2.3-1,2.3-2.3S150.7,158.2,149.4,158.2z"/>
			</g>
			<g>
				<path class="st4" d="M122.7,215.8c-2,0-3.7-1.6-3.7-3.6v-0.6c-2.2-0.7-3.6-2.7-3.7-5l-0.1-11h2.2c-0.8-13.6-11.1-32.7-11.2-32.9
					c-3.1-4.7-4.8-10.3-4.8-16c0-16.1,13.1-29.2,29.2-29.2s29.2,13.1,29.2,29.2c0,5.7-1.7,11.3-4.8,16c-0.4,0.8-10.3,19.3-11.2,32.8
					h2.1l0.1,11c0,2.3-1.5,4.3-3.6,5v0.6c0,2-1.6,3.7-3.6,3.7L122.7,215.8L122.7,215.8z M116.2,196.5l0.1,10.1c0,2,1.4,3.8,3.3,4.3
					l0.3,0.1v1.2c0,1.5,1.3,2.8,2.8,2.8l16.1-0.1c1.5,0,2.8-1.3,2.8-2.8v-1.2l0.3-0.1c1.9-0.5,3.3-2.3,3.3-4.3l-0.1-10.1h-2.2v-0.5
					c0.7-13.7,10.9-32.8,11.3-33.6c3.1-4.7,4.7-10,4.7-15.6c0-15.6-12.7-28.3-28.3-28.3s-28.3,12.7-28.3,28.3
					c0,5.6,1.6,10.9,4.7,15.6c0.1,0.1,10.7,19.9,11.3,33.8v0.4L116.2,196.5z M131,175.9c-0.2,0-0.3,0-0.3,0l0,0c-0.1,0-1,0-2.5-0.1
					l0.1-0.9c1.8,0.2,3.1,0.2,4.9,0l0.1,0.9C132.1,175.9,131.4,175.9,131,175.9z"/>
			</g>
			<g>
				<rect x="122.5" y="195.7" class="st4" width="16.2" height="0.9"/>
			</g>
			<g>
				<rect x="129.7" y="93.8" class="st4" width="1.7" height="14.7"/>
			</g>
			<g>
				
					<rect x="146.8" y="105.4" transform="matrix(0.7071 -0.7071 0.7071 0.7071 -29.9777 140.097)" class="st4" width="14.7" height="1.7"/>
			</g>
			<g>
				
					<rect x="106.2" y="99" transform="matrix(0.7071 -0.7071 0.7071 0.7071 -43.8687 106.8246)" class="st4" width="1.7" height="14.7"/>
			</g>
			<g>
				
					<rect x="120.1" y="164.1" transform="matrix(0.9736 -0.2284 0.2284 0.9736 -36.2676 32.1012)" class="st4" width="0.9" height="17.3"/>
			</g>
			<g>
				
					<rect x="132" y="172.2" transform="matrix(0.2295 -0.9733 0.9733 0.2295 -59.6908 269.9604)" class="st4" width="17.3" height="0.9"/>
			</g>
			<g>
				<path class="st4" d="M163.3,146.9h-0.9c0-17.6-14.3-31.9-31.9-31.9v-0.9C148.6,114.2,163.3,128.9,163.3,146.9z"/>
			</g>
			<g>
				<path class="st4" d="M156,146.9h-0.9c0-13.5-11-24.6-24.6-24.6c-13.5,0-24.6,11-24.6,24.6H105c0-14,11.4-25.4,25.4-25.4
					C144.6,121.5,156,132.9,156,146.9z"/>
			</g>
		</g>
	</g>
	<g>
		<defs>
			<rect id="SVGID_00000146499301585087823410000005877962128256648353_" width="1245" height="300"/>
		</defs>
		<clipPath id="SVGID_00000093160438264569307060000002737407103178613896_">
			<use xlink:href="#SVGID_00000146499301585087823410000005877962128256648353_"  style="overflow:visible;"/>
		</clipPath>
		<g style="clip-path:url(#SVGID_00000093160438264569307060000002737407103178613896_);">
			<g>
				<path class="st4" d="M1048.7,70.3c-1.1,0-2-0.9-2-2s0.9-2,2-2s2,0.9,2,2S1049.8,70.3,1048.7,70.3z M1048.7,66.9
					c-0.8,0-1.4,0.6-1.4,1.4s0.6,1.4,1.4,1.4s1.4-0.7,1.4-1.4C1050.2,67.5,1049.5,66.9,1048.7,66.9z"/>
			</g>
			<g>
				<path class="st4" d="M1031.8,103.4c-1.3,0-2.3-1-2.3-2.3v-0.3c-1.4-0.4-2.3-1.7-2.3-3.2v-6.9h1.4c-0.5-8.6-7-20.7-7.1-20.8
					c-2-3-3-6.5-3-10.1c0-10.2,8.3-18.5,18.5-18.5s18.5,8.3,18.5,18.5c0,3.6-1.1,7.1-3,10.1c-0.3,0.5-6.5,12.2-7.1,20.7h1.3v6.9
					c0,1.4-0.9,2.7-2.3,3.2v0.3c0,1.3-1,2.3-2.3,2.3L1031.8,103.4L1031.8,103.4z M1027.7,91.2v6.4c0,1.3,0.9,2.4,2.1,2.7l0.2,0.1
					v0.8c0,1,0.8,1.8,1.8,1.8h10.2c1,0,1.8-0.8,1.8-1.8v-0.8l0.2-0.1c1.2-0.3,2.1-1.4,2.1-2.7v-6.4h-1.4v-0.3
					c0.4-8.7,6.9-20.8,7.2-21.3c1.9-2.9,3-6.4,3-9.9c0-9.9-8-17.9-17.9-17.9s-17.9,8-17.9,17.9c0,3.5,1,6.9,3,9.8
					c0.1,0.1,6.8,12.6,7.2,21.4v0.3H1027.7z M1037.1,78.1c-0.1,0-0.2,0-0.2,0l0,0c0,0-0.6,0-1.6-0.1v-0.5c1.1,0.1,2,0.1,3.1,0V78
					C1037.8,78.1,1037.3,78.1,1037.1,78.1z"/>
			</g>
			<g>
				<rect x="1031.7" y="90.6" class="st4" width="10.2" height="0.5"/>
			</g>
			<g>
				<rect x="1036.3" y="26.1" class="st4" width="1.1" height="9.3"/>
			</g>
			<g>
				
					<rect x="1047.1" y="33.5" transform="matrix(0.7071 -0.7071 0.7071 0.7071 283.982 753.6477)" class="st4" width="9.3" height="1.1"/>
			</g>
			<g>
				
					<rect x="1021.3" y="29.4" transform="matrix(0.7071 -0.7071 0.7071 0.7071 275.1864 732.5386)" class="st4" width="1.1" height="9.3"/>
			</g>
			<g>
				
					<rect x="1030.2" y="70.6" transform="matrix(0.9736 -0.2284 0.2284 0.9736 9.8656 237.3628)" class="st4" width="0.5" height="10.9"/>
			</g>
			<g>
				
					<rect x="1037.7" y="75.9" transform="matrix(0.2295 -0.9733 0.9733 0.2295 729.6477 1073.9252)" class="st4" width="10.9" height="0.5"/>
			</g>
			<g>
				<path class="st4" d="M1057.5,59.8h-0.5c0-11.1-9-20.2-20.2-20.2v-0.5C1048.2,39.1,1057.5,48.3,1057.5,59.8z"/>
			</g>
			<g>
				<path class="st4" d="M1052.9,59.8h-0.5c0-8.6-7-15.5-15.5-15.5c-8.6,0-15.5,7-15.5,15.5h-0.5c0-8.9,7.2-16.1,16.1-16.1
					C1045.7,43.7,1052.9,50.9,1052.9,59.8z"/>
			</g>
		</g>
	</g>
	<g>
		<defs>
			<rect id="SVGID_00000073693296624398964850000014159362122923715731_" width="1245" height="300"/>
		</defs>
		<clipPath id="SVGID_00000081633719608829450820000005574624746732385211_">
			<use xlink:href="#SVGID_00000073693296624398964850000014159362122923715731_"  style="overflow:visible;"/>
		</clipPath>
		<g style="clip-path:url(#SVGID_00000081633719608829450820000005574624746732385211_);">
			<path class="st14" d="M974.9,160.8c0,0-0.7-2.5,0-3.5c0.7-1.1,1.1-2.8,1.2-3.3c0.1-0.7,1.4-2.9,0.5-3c-0.9,0-2.2,3.6-2.7,4.3
				c-0.4,0.7-1.6-2.4-2.3-2.8c-0.7-0.4-6.3,2.5-5.2,4.6s3.7,3.4,3.8,3.8c0.1,0.4,0.7,1.5,0.7,1.5L974.9,160.8z"/>
			<path class="st14" d="M972,152.8c0,0-3.7-6-4.3-6.1s-1,0.1-0.7,0.7c0.3,0.6,3.4,5.9,3.4,5.9s-5.7-6.2-6.2-6.5
				c-0.3-0.1-1,0.3-0.8,0.7c0.1,0.3,5.4,6.9,5.4,6.9s-5.4-5.8-5.8-5.9c-0.4-0.1-1,0.5-0.6,1s5,6.2,5,6.2s-4.2-3.9-4.7-3.8
				c-0.3,0.1-0.9,0.5,0.2,1.5c1.1,1,3.5,3.6,3.5,3.6L972,152.8z"/>
			
				<linearGradient id="SVGID_00000019638609754235784730000007460619519099692959_" gradientUnits="userSpaceOnUse" x1="903.9" y1="164.35" x2="1072.6" y2="164.35" gradientTransform="matrix(1 0 0 -1 0 304)">
				<stop  offset="0" style="stop-color:#343D4F"/>
				<stop  offset="0.4581" style="stop-color:#30394C"/>
				<stop  offset="0.9513" style="stop-color:#232D41"/>
				<stop  offset="1" style="stop-color:#212B40"/>
			</linearGradient>
			
				<path style="opacity:0.68;fill:url(#SVGID_00000019638609754235784730000007460619519099692959_);enable-background:new    ;" d="
				M1066.7,157.9H909.8c-3.3,0-5.9-2.7-5.9-5.9v-24.7c0-3.3,2.7-5.9,5.9-5.9h156.9c3.3,0,5.9,2.7,5.9,5.9V152
				C1072.6,155.2,1070,157.9,1066.7,157.9z"/>
			<g>
				<g>
					<rect x="912.9" y="132.5" class="st16" width="27.3" height="2.8"/>
				</g>
				<g>
					<rect x="945.5" y="132.5" class="st16" width="19.4" height="2.8"/>
				</g>
				<g>
					<rect x="945.5" y="143.1" class="st16" width="18.1" height="2.8"/>
				</g>
				<g>
					<rect x="1042.7" y="132.5" class="st17" width="19.4" height="2.8"/>
				</g>
				<g>
					<rect x="970.2" y="132.5" class="st18" width="24.7" height="2.8"/>
				</g>
				<g>
					<rect x="1013.2" y="132.5" class="st19" width="24.7" height="2.8"/>
				</g>
				<g>
					<rect x="999.4" y="132.5" class="st16" width="9.1" height="2.8"/>
				</g>
				<g>
					<rect x="912.9" y="143.1" class="st17" width="14.2" height="2.8"/>
				</g>
				<g>
					<rect x="930.5" y="143.1" class="st18" width="4.6" height="2.8"/>
				</g>
				<g>
					<rect x="1024.3" y="143.1" class="st16" width="37.8" height="2.8"/>
				</g>
				<g>
					<rect x="938.4" y="143.1" class="st20" width="4.7" height="2.8"/>
				</g>
				<g>
					<rect x="1008.5" y="143.1" class="st18" width="12.4" height="2.8"/>
				</g>
				<g>
					<rect x="978.9" y="143.1" class="st17" width="26.3" height="2.8"/>
				</g>
				<g>
					<rect x="966.1" y="143.1" class="st16" width="9.1" height="2.8"/>
				</g>
			</g>
			<path class="st21" d="M970.5,285c0,0-3.6,3.6-6.6,4c-3.1,0.4-6.6,1.5-7,3.8s9.1,4.8,12.8,3c5.6-2.7,7.2-1.6,8.1-3.3
				c0.8-1.7,0.7-7.4,0.8-7.9C978.7,284,970.5,285,970.5,285z"/>
			<path class="st21" d="M1033.6,274.9c0,0-1,4.9-3.3,6.8s-4.6,4.7-3.7,6.9c0.9,2.2,9,2,11.9-3.9c1.8-3.7,4-4.3,3.8-6.2
				c-0.2-1.9-3-5.9-3.2-6.4C1038.8,271.4,1033.6,274.9,1033.6,274.9z"/>
			<path class="st22" d="M994.6,204.7c0,0-12.3,25.5-15.1,31.9c-2.6,6-5.2,16.7-5.6,20.9c-0.4,5.3-5.5,26.8-5.8,28.3
				s10.7,0.6,10.7,0.6s9.6-36.6,12.2-41.8c1.7-3.5,14.5-26.5,15.6-25.1s8,18.7,8.8,22.8s16.6,34.9,16.6,34.9s7.3-0.5,8.8-3.3
				c0,0-11.7-31.2-13-36.8c-0.7-2.9-3.1-21.1-6.1-35C1020,194.9,994.6,204.7,994.6,204.7z"/>
			<path class="st23" d="M1025.8,165.9c0,0-4.2,12.7-4.1,15.8C1021.7,184.7,1019.3,166.9,1025.8,165.9z"/>
			<g>
				<g>
					<g>
						<g>
							<path class="st23" d="M995.8,170.6c0,0-0.5,1.8-1.5,3.9l0,0c-0.4,0.8-0.8,1.6-1.3,2.4c-0.1,0.1-0.2,0.3-0.3,0.4
								c-0.3,0.5-0.7,1.1-1.1,1.5c-1.3,1.5-2.8,2.7-4.5,2.8c-3.6,0.3-16.6-19.6-16.6-19.6l6.2-2.8c0,0,8.2,11.9,9.5,11.2
								s2.6-5.5,2.6-5.5c1.5-0.8,3.8,1.5,5.4,3.4c0.1,0.1,0.2,0.2,0.3,0.4C995.2,169.8,995.8,170.6,995.8,170.6z"/>
						</g>
					</g>
				</g>
			</g>
			<g>
				<g>
					<g>
						<g>
							<path class="st23" d="M1022.4,204.2c-7,6.3-29.5,4.2-29.5,4.2c0.3-0.8,2.6-24.2,1.8-29.5s-0.3-9.8-1-10s-5.5-1.9-5.5-1.9
								s2.6-8.2,3.6-9.9c1.1-1.8,8.8-4.4,8.8-4.4s6-2.1,12.3-1.4c10.6,1.3,11.9,4.4,11.9,4.4l-2.5,15.7c0,0,0,0.1,0,0.2
								c0,0.4,0,1.2-0.1,2.4c-0.2,5.1-0.6,15.9-0.6,18.4C1021.4,196.6,1022.4,204.2,1022.4,204.2z"/>
						</g>
					</g>
				</g>
			</g>
			<g>
				<g>
					<g>
						<g>
							<path class="st24" d="M1014.6,151.6c-0.4,0.8-0.9,1.5-1.4,2.1c-3.3,4.3-7.1,4.1-7.1,4.1c-2.3-0.2-3.6-1.7-4.2-3.1
								c-0.6-1.2-0.7-2.2-0.7-2.2l1.4-0.5c0.1-0.4,0.2-0.9,0.2-1.4c0-0.3,0-0.6,0-0.9c0-0.3,0-0.6,0-0.8c0-0.1,0-0.2,0-0.3
								c0-1.2-0.1-2.2-0.1-2.2s10-5.4,9.2-1.6c-0.4,1.7-0.3,3.1-0.1,4.1c0.3,1.2,0.9,1.9,1.3,2.1
								C1014,151.4,1014.6,151.6,1014.6,151.6z"/>
						</g>
					</g>
				</g>
			</g>
			<path class="st14" d="M985.8,159.3c0,0-0.6-0.5-0.6-1.1c-0.1-1,0.9-2.3-0.3-3.3c-1.2-0.9-5.4,1.9-5.8,2.8
				c-0.4,0.9,0.7,2.6,3.4,4.2C985.2,163.7,985.8,159.3,985.8,159.3z"/>
			<path class="st14" d="M985.2,155.4c0,0-1-2-2.3-4c-1.2-1.8-2.9-3.7-3.4-3.4c-0.7,0.4,0.9,1.8,1.9,3.7c1,1.7,0.5,1.5,0.5,1.5
				s0.1,0-1.3-1.6c-1.6-1.8-3.5-3.7-3.9-3.3c-0.3,0.2-0.3,0.3,0.1,1c-0.4-0.4-0.5-0.3-0.7-0.2c-0.9,0.7,0.9,3.7,1.7,4.9
				c-0.6-0.9-1.1-1.5-1.4-0.7c-0.3,0.9,2.5,5,3.4,6.5C980.7,161.4,985.2,155.4,985.2,155.4z"/>
			<g>
				<path class="st23" d="M1025.5,167.8c4.5-5.5-1.1-12.4-1.1-12.4c-3.3-2.8-10.6,9.1-11.5,10.2c-0.9,1.2-7.9,7.4-9.8,9.5
					c-1,1.1-5.2-3.5-7.1-5.3c-1.1-1.1-10.1-11.6-10.1-11.6s-6.2,4.4-5.6,4.1c0.5-0.4,18.2,22.8,21.5,23
					C1001.9,185.2,1014.6,181.1,1025.5,167.8z"/>
			</g>
			<path class="st25" d="M993,176.9c-0.1,0.1-0.2,0.3-0.3,0.4c-0.3,0.5-0.7,1.1-1.1,1.5c-0.9-1-4.1-8.3-4.1-8.4L993,176.9z"/>
			<path class="st25" d="M1020.6,173.2c0,0-5.7,5.1-8.8,7s-8.3,4.5-8.8,4.7C1002.9,184.8,1016.6,182.2,1020.6,173.2z"/>
			<g>
				<path class="st14" d="M997.3,132.3c0,0-2.2,4-1.1,4.7c0.9,0.5-1,4.5-1.3,5.1s1.6,1.1,2,1.5s1.6,5.5,3.1,5.7s8.5-2.3,10.4-4.2
					c1.9-2,3.4-10.8,2.2-14.6C1011.3,126.8,1001.1,125.3,997.3,132.3z"/>
			</g>
			<g>
				<path class="st26" d="M996.9,133.2c0,0-2.2-4.4,1.8-7.6c4-3.2,11.5,2.4,12.3,2.7c0.8,0.2,5.6,0.5,3.2,8.9
					c-2.1,7.2-2.3,7.5-2.3,7.5s-1.5-4.2-2.4-4.8c-1.4-1-4.4-0.8-4.4-0.8s1.4-3.8-0.8-4.3C1002,134.2,999.1,132.4,996.9,133.2z"/>
			</g>
			<g>
				<path class="st14" d="M1007.4,136.9c0.2-0.5,0.8-2.7,2.7-1.4s-1.2,5.5-1.5,5.6C1008.3,141.1,1005.8,141.3,1007.4,136.9z"/>
			</g>
			<path class="st27" d="M1010.2,145.3c0,0-1.6,3.2-7.4,5.3c0-0.3,0-0.6,0-0.9c0-0.3,0-0.6,0-0.8
				C1002.8,148.8,1007.2,147.6,1010.2,145.3z"/>
		</g>
	</g>
	<g>
		<defs>
			<rect id="SVGID_00000068667743673544662130000003845268841086683582_" width="1245" height="300"/>
		</defs>
		<clipPath id="SVGID_00000067927019278851804140000016803109856032101290_">
			<use xlink:href="#SVGID_00000068667743673544662130000003845268841086683582_"  style="overflow:visible;"/>
		</clipPath>
		<g style="clip-path:url(#SVGID_00000067927019278851804140000016803109856032101290_);">
			<g>
				<polygon class="st17" points="490.3,70.7 453.9,70.7 453.9,97 453.9,102.6 459.5,97 490.3,97 				"/>
			</g>
			<path class="st4" d="M463.1,80H481c0.4,0,0.6-0.3,0.6-0.6v-0.7c0-0.4-0.3-0.6-0.6-0.6h-17.9c-0.4,0-0.6,0.3-0.6,0.6v0.7
				C462.5,79.7,462.8,80,463.1,80z"/>
			<path class="st4" d="M465,84h16.1c0.4,0,0.6-0.3,0.6-0.6v-0.7c0-0.4-0.3-0.6-0.6-0.6H465c-0.4,0-0.6,0.3-0.6,0.6v0.7
				C464.4,83.7,464.6,84,465,84z"/>
			<path class="st4" d="M469,88h12.1c0.4,0,0.6-0.3,0.6-0.6v-0.7c0-0.4-0.3-0.6-0.6-0.6H469c-0.4,0-0.6,0.3-0.6,0.6v0.7
				C468.4,87.7,468.7,88,469,88z"/>
		</g>
	</g>
	<g>
		<defs>
			<rect id="SVGID_00000026125817049015763340000004647892412233472181_" width="1245" height="300"/>
		</defs>
		<clipPath id="SVGID_00000032609236539614285690000005335082875083955345_">
			<use xlink:href="#SVGID_00000026125817049015763340000004647892412233472181_"  style="overflow:visible;"/>
		</clipPath>
		<g style="clip-path:url(#SVGID_00000032609236539614285690000005335082875083955345_);">
			<g>
				<g>
					<rect x="283.9" y="210.6" class="st23" width="28" height="85"/>
				</g>
				<g>
					
						<linearGradient id="SVGID_00000003823715805190500910000014756328965745921192_" gradientUnits="userSpaceOnUse" x1="169.7417" y1="137.75" x2="438.2897" y2="137.75" gradientTransform="matrix(1 0 0 -1 0 304)">
						<stop  offset="0" style="stop-color:#FF9F55"/>
						<stop  offset="1" style="stop-color:#FFD255"/>
					</linearGradient>
					<path style="fill:url(#SVGID_00000003823715805190500910000014756328965745921192_);" d="M185.5,251.5h224.7
						c4.7,0,8.5-3.8,8.5-8.5V89.5c0-4.7-3.8-8.5-8.5-8.5H185.5c-4.7,0-8.5,3.8-8.5,8.5V243C177,247.7,180.8,251.5,185.5,251.5z"/>
				</g>
				<g>
					
						<linearGradient id="SVGID_00000080891362096850559030000007883117857647054728_" gradientUnits="userSpaceOnUse" x1="185.6" y1="149.1" x2="409.8" y2="149.1" gradientTransform="matrix(1 0 0 -1 0 304)">
						<stop  offset="0" style="stop-color:#404B61"/>
						<stop  offset="0.486" style="stop-color:#3C4860"/>
						<stop  offset="1" style="stop-color:#2F3E5C"/>
					</linearGradient>
					<polygon style="fill:url(#SVGID_00000080891362096850559030000007883117857647054728_);" points="185.6,220.5 409.8,220.5 
						409.8,89.3 185.6,89.3 					"/>
				</g>
				
					<linearGradient id="SVGID_00000098193000554732566870000009360553712274761891_" gradientUnits="userSpaceOnUse" x1="234.9" y1="8.4" x2="360.8" y2="8.4" gradientTransform="matrix(1 0 0 -1 0 304)">
					<stop  offset="0" style="stop-color:#FF9F55"/>
					<stop  offset="1" style="stop-color:#FFD255"/>
				</linearGradient>
				
					<rect x="234.9" y="292.4" style="fill:url(#SVGID_00000098193000554732566870000009360553712274761891_);" width="125.9" height="6.4"/>
				<g>
					<rect x="198.5" y="99.4" class="st16" width="25.1" height="2.6"/>
				</g>
				<g>
					<rect x="230.6" y="118.7" class="st16" width="18.1" height="2.6"/>
				</g>
				<g>
					<rect x="251.6" y="118.7" class="st18" width="12" height="2.6"/>
				</g>
				<g>
					<rect x="276.1" y="196.5" class="st18" width="12" height="2.6"/>
				</g>
				<g>
					<rect x="198.7" y="167.4" class="st18" width="12" height="2.6"/>
				</g>
				<g>
					<rect x="266" y="118.7" class="st16" width="29.1" height="2.6"/>
				</g>
				<g>
					<rect x="198.7" y="157.7" class="st16" width="18.7" height="2.6"/>
				</g>
				<g>
					<rect x="248.9" y="177.1" class="st16" width="18.7" height="2.6"/>
				</g>
				<g>
					<rect x="318.6" y="196.5" class="st16" width="18.7" height="2.6"/>
				</g>
				<g>
					<rect x="224.8" y="177.1" class="st16" width="11.4" height="2.6"/>
				</g>
				<g>
					<rect x="198.7" y="177.1" class="st18" width="22.6" height="2.6"/>
				</g>
				<g>
					<rect x="198.7" y="186.8" class="st16" width="12.4" height="2.6"/>
				</g>
				<g>
					<rect x="228.5" y="99.4" class="st17" width="17.8" height="2.6"/>
				</g>
				<g>
					<rect x="228.5" y="128.4" class="st18" width="17.8" height="2.6"/>
				</g>
				<g>
					<rect x="219.5" y="138.1" class="st16" width="7.6" height="2.6"/>
				</g>
				<g>
					<rect x="211.9" y="147.9" class="st17" width="17.1" height="2.6"/>
				</g>
				<g>
					<rect x="231.6" y="147.9" class="st18" width="23.6" height="2.6"/>
				</g>
				<g>
					<rect x="306.4" y="186.8" class="st18" width="23.6" height="2.6"/>
				</g>
				<g>
					<rect x="198.7" y="138.2" class="st18" width="17.8" height="2.6"/>
				</g>
				<g>
					<rect x="198.7" y="147.9" class="st18" width="10.6" height="2.6"/>
				</g>
				<g>
					<rect x="230.8" y="138.2" class="st33" width="10" height="2.6"/>
				</g>
				<g>
					<rect x="199" y="196.5" class="st33" width="10" height="2.6"/>
				</g>
				<g>
					<rect x="198.7" y="118.7" class="st17" width="17.8" height="2.6"/>
				</g>
				<g>
					<rect x="214.4" y="167.4" class="st17" width="17.8" height="2.6"/>
				</g>
				<g>
					<rect x="214.7" y="186.8" class="st17" width="17.8" height="2.6"/>
				</g>
				<g>
					<rect x="246.3" y="186.8" class="st17" width="17.8" height="2.6"/>
				</g>
				<g>
					<rect x="198.7" y="128.4" class="st17" width="25.4" height="2.6"/>
				</g>
				<g>
					<rect x="317.8" y="99.4" class="st17" width="17.8" height="2.6"/>
				</g>
				<g>
					<rect x="254.3" y="196.5" class="st17" width="17.8" height="2.6"/>
				</g>
				<g>
					<rect x="341.1" y="99.4" class="st17" width="11.9" height="2.6"/>
				</g>
				<g>
					<rect x="381.5" y="109.1" class="st17" width="11.9" height="2.6"/>
				</g>
				<g>
					<rect x="251.1" y="99.4" class="st18" width="22.7" height="2.6"/>
				</g>
				<g>
					<rect x="341.1" y="196.5" class="st18" width="22.7" height="2.6"/>
				</g>
				<g>
					<rect x="212.8" y="196.5" class="st18" width="22.7" height="2.6"/>
				</g>
				<g>
					<rect x="339.6" y="109.1" class="st18" width="22.7" height="2.6"/>
				</g>
				<g>
					<rect x="311.7" y="118.7" class="st18" width="22.7" height="2.6"/>
				</g>
				<g>
					<rect x="292" y="196.5" class="st18" width="22.7" height="2.6"/>
				</g>
				<g>
					<rect x="288.5" y="177.1" class="st18" width="22.7" height="2.6"/>
				</g>
				<g>
					<rect x="282.2" y="128.4" class="st18" width="22.7" height="2.6"/>
				</g>
				<g>
					<rect x="239.7" y="177.1" class="st33" width="4.9" height="2.6"/>
				</g>
				<g>
					<rect x="337.3" y="118.7" class="st17" width="16.1" height="2.6"/>
				</g>
				<g>
					<rect x="290.6" y="99.4" class="st33" width="22.7" height="2.6"/>
				</g>
				<g>
					<rect x="264.7" y="128.4" class="st33" width="13.3" height="2.6"/>
				</g>
				<g>
					<rect x="254.3" y="167.6" class="st33" width="13.3" height="2.6"/>
				</g>
				<g>
					<rect x="278" y="99.4" class="st16" width="8.3" height="2.6"/>
				</g>
				<g>
					<rect x="251.1" y="128.4" class="st16" width="8.3" height="2.6"/>
				</g>
				<g>
					<rect x="367.8" y="109.1" class="st16" width="8.3" height="2.6"/>
				</g>
				<g>
					<rect x="198.5" y="109.1" class="st18" width="13" height="2.6"/>
				</g>
				<g>
					<rect x="233.2" y="157.8" class="st18" width="10.3" height="2.6"/>
				</g>
				<g>
					<rect x="214.7" y="109.1" class="st18" width="4.2" height="2.6"/>
				</g>
				<g>
					<rect x="300.9" y="109.1" class="st16" width="34.7" height="2.6"/>
				</g>
				<g>
					<rect x="267.6" y="186.8" class="st16" width="34.7" height="2.6"/>
				</g>
				<g>
					<rect x="221.9" y="109.1" class="st33" width="4.3" height="2.6"/>
				</g>
				<g>
					<rect x="286.3" y="109.1" class="st18" width="11.4" height="2.6"/>
				</g>
				<g>
					<rect x="297.7" y="118.7" class="st33" width="11.4" height="2.6"/>
				</g>
				<g>
					<rect x="272.3" y="177.1" class="st33" width="11.4" height="2.6"/>
				</g>
				<g>
					<rect x="239.3" y="196.5" class="st33" width="11.4" height="2.6"/>
				</g>
				<g>
					<rect x="259.1" y="109.1" class="st18" width="24.2" height="2.6"/>
				</g>
				<g>
					<rect x="315.4" y="177.1" class="st18" width="24.2" height="2.6"/>
				</g>
				<g>
					<rect x="236.7" y="167.6" class="st18" width="14.1" height="2.6"/>
				</g>
				<g>
					<rect x="235.7" y="186.8" class="st18" width="7.1" height="2.6"/>
				</g>
				<g>
					<rect x="247.4" y="109.1" class="st17" width="8.3" height="2.6"/>
				</g>
				<g>
					<rect x="333.1" y="186.8" class="st33" width="8.3" height="2.6"/>
				</g>
				<g>
					<rect x="219.4" y="118.7" class="st33" width="8.3" height="2.6"/>
				</g>
				<g>
					<rect x="221.1" y="157.8" class="st33" width="8.3" height="2.6"/>
				</g>
				<g>
					<rect x="229.7" y="109.1" class="st18" width="14.5" height="2.6"/>
				</g>
				<g>
					<g>
						<path class="st34" d="M280,130.1c0,0,0.4,3.1,0.9,4.5s3.2,4.5,2.1,7.5c-1.2,3.3-6.7,0.1-8.9-0.9c-2.2-1-1.7-2.8-2-5
							c-0.2-2.2-1.3-2.3-0.9-3.8c0.4-1.6,2.8-4.6,2.8-4.6L280,130.1z"/>
					</g>
					<g>
						<g>
							<path class="st14" d="M275.1,126.2l-1.4,2c0,0,6,3.7,6.4,2.5c0.3-0.9,0.5-2.3,0.5-2.3L275.1,126.2z"/>
						</g>
					</g>
					<g>
						<path class="st34" d="M254.9,132.3c0,0-1.8,1.6-3.4,4c-1.6,2.4-5.9,2.6-6.1,5.9c-0.2,3.3,5.9,3.4,9.1,2.3
							c3.2-1.1,3.7-4.3,5.6-5.2c1.9-0.8,2.9-1.5,2.8-3.1s-1.2-4.2-1.2-4.2s-1.2,0.4-1.9,0.5C259,132.7,256.6,132.8,254.9,132.3z"/>
					</g>
					<g>
						<path class="st18" d="M276.7,42c0,0-1.2,7.2-2.2,12l0,0c-0.4,1.9-0.8,3.5-1,4c-0.3,0.6-2.6,3.1-5.4,5.9
							c-4.9,5.1-11.4,11.4-11.4,11.4l-2.5-4.8c0,0,5.8-6.8,9.7-11.3c1.8-2.1,3.2-3.7,3.5-3.9c0.8-0.7,1.8-7.9,3.1-13.9
							c1.3-5.9,4-9.2,4-9.2L276.7,42z"/>
					</g>
					<g>
						<path class="st14" d="M268.2,64c-4.9,5.1-11.4,11.4-11.4,11.4l-2.5-4.8c0,0,5.8-6.8,9.7-11.3C265.1,59.9,267.3,61.3,268.2,64z
							"/>
					</g>
					<g>
						<path class="st14" d="M255.2,130.1l-0.3,2.2c0,0,3.1,1.1,6.6-0.1l0.1-2L255.2,130.1z"/>
					</g>
					<g>
						<path class="st18" d="M300,74.4c0.2,0.6-33.4,0-33.4,0s9.3-6.8,9.9-8.6c0.6-1.8-2.4-12.6-2.8-16.2c-0.3-2.8-1.1-15.4,0.8-17.4
							s8.9-4.1,8.9-4.1l10.2,0.4c0,0,1.7,0.4,2.9,0.9c1.2,0.6,8.1,3,9.2,6.5c1.1,3.4-6.9,14.5-6.9,14.5s0,0.5,0,1.3l0,0
							c0,1.1-0.1,2.7-0.1,4.5c-0.1,2.3-0.1,4.9-0.1,6.7C298.6,67.4,299.8,73.8,300,74.4z"/>
					</g>
					<g>
						<path class="st35" d="M300,74.4c0,0,4.6,6.7,4.6,11.3c0.1,4.6-8.1,19.9-9.3,22.1c-3.7,6.6-13.9,20.8-13.9,20.8s-1.8,0-7.2-2.2
							c0,0,6.8-18.8,7.6-20.7c3.6-8.3,5.7-14.1,4.5-15.6c-1.2-1.4-4.6-2.8-5.5-3.7c-1-0.8-17.8,3.2-19.6,3.6
							c-4.6,1.2-2.5,9.1-1.5,12.7c1.7,6,3.2,27.5,3.2,27.5s-3.3,1.4-8.7,0.2c0,0-10.7-38.9-11.1-42.8c-0.3-3.9-0.5-10.2,25.9-15.1
							L300,74.4z"/>
					</g>
					<g>
						<path class="st14" d="M286.2,6c0,0-8.9-2-6.8,9.2c2,11.1,4.2,12,9.5,9.7s4.9-9.4,5.1-13C294.3,8.4,289.1,6.2,286.2,6z"/>
					</g>
					<g>
						<path class="st14" d="M283.9,31.1c0,0,3.9,4.2,10.1,0.4c0,0-1.4-9-0.7-13.4c0.7-4.4-8.1,6.8-8.1,6.8c0.1,0.1,0.2,0.5,0.2,1.1
							c0,0.5,0,1.1-0.1,1.8C285.2,29.2,284.7,30.7,283.9,31.1z"/>
					</g>
					<g>
						<path class="st36" d="M293.6,17.7c0,0-0.2-3.5-1.5-3.6s-1.5,1.3-1.5,1.3l-1.3,0.2c0,0,0.4-3.1-0.9-3.6s-8.3,1.7-9.3,0.8
							s-0.5-7.1,1.3-8c1.9-0.9,7-2.8,10.8-0.2c0,0,2.9-0.3,3.4,2C295,8.9,294.4,15.9,293.6,17.7z"/>
					</g>
					<g>
						<path class="st27" d="M285.4,27.7c6.4-2,6.9-5.8,6.9-5.9c-2.1,3.6-6.8,4.1-6.8,4.1C285.5,26.4,285.5,27.1,285.4,27.7z"/>
					</g>
					<g>
						<path class="st14" d="M296.6,29.5c0,0-4.7,9.3-12.3,8.7c-7.6-0.6-1.3-10-0.9-10.1C283.8,28.1,291.2,26.3,296.6,29.5z"/>
					</g>
					<g>
						<path class="st18" d="M262.7,74c0,0,23.2,2.9,37.2,0.5l-26.8-3.4C273.1,71.1,273,71.8,262.7,74z"/>
					</g>
					<g>
						<path class="st14" d="M280.1,70l-1.7,0.9c0,0,0.4,2.7,1.3,3.6l1.9-0.5C281.6,74,281.2,71,280.1,70z"/>
					</g>
					<g>
						<path class="st18" d="M306.9,64.4c-0.3,0.4-4.9,2.2-10.1,4.2l0,0c-7,2.7-15,5.3-15,5.3L280,70c0,0,8.3-4.5,13.9-7.7
							c2.6-1.5,4.7-2.7,5-3c0.9-0.9,1.1-2.2,0.5-4.6c-0.7-2.4-2.2-13.5-2.4-14.7c-0.2-1.3,0.4-4.7,3.7-4.9c3.2-0.2,4.9,0.7,4.9,0.7
							s0.8,0.3,1.4,8.2S307.7,63.5,306.9,64.4z"/>
					</g>
					<g>
						<path class="st37" d="M298.8,51.8L298.8,51.8c0,1.1-0.1,2.7-0.1,4.5c-3.1-7.7-1.3-13.9-1.3-14
							C297.1,44.4,298.8,51.6,298.8,51.8z"/>
					</g>
					<g>
						<path class="st37" d="M274.5,54.1L274.5,54.1c-0.4,1.9-0.8,3.5-1,4c-1.1-5.2-0.1-11.9-0.1-11.9
							C273.6,49.4,274.5,54.1,274.5,54.1z"/>
					</g>
					<g>
						<path class="st14" d="M296.9,68.6L296.9,68.6c-7,2.7-15.2,5.4-15.2,5.4l-1.5-4c0,0,8.3-4.5,13.9-7.7
							C294,62.3,296,63.3,296.9,68.6z"/>
					</g>
					<g>
						<polygon class="st38" points="279.6,74.2 246.6,73.7 263.3,82.2 						"/>
					</g>
					<g>
						<polygon class="st39" points="263.3,82.2 279.6,75.9 279.6,74.2 262,80.6 						"/>
					</g>
					<g>
						<g>
							<path class="st14" d="M278.7,71c0,0-2.1-0.3-3.5-0.7c-1.1-0.3-3.8,0.1-4.5,0.8c-0.7,0.7-2.9,5.6-3.3,5.9s0.2,1,1,0.6
								c0,0,0.7,2.2,2.3,1.4c1.7-0.8,2.8-2.6,3.7-2.9c0.9-0.3,6-1.9,6-1.9S280,70.4,278.7,71z"/>
						</g>
					</g>
					<g>
						<g>
							<path class="st14" d="M271.2,70.8c0,0-1.3,0.6-1.7,0.9c-0.3,0.3-1.7,1.3-2.1,1.6c-0.3,0.2,0.5,0.9,3-0.1
								C273,72.1,271.2,70.8,271.2,70.8z"/>
						</g>
					</g>
					<g>
						<polygon class="st39" points="263.3,82.2 253.5,55.4 221.9,55.9 231.2,80.6 						"/>
					</g>
					<g>
						<path class="st23" d="M243.3,67.3c1,1.9,0.7,4-0.7,4.7c-1.3,0.7-3.2-0.4-4.1-2.3c-1-1.9-0.7-4,0.7-4.7
							C240.5,64.3,242.4,65.3,243.3,67.3z"/>
					</g>
					<g>
						<path class="st14" d="M290.6,13.9c0.1-1,2.1-1.3,2.2,0.1c0.2,1.5-0.9,4.1-1.6,3.8C290.5,17.5,290.5,15.2,290.6,13.9z"/>
					</g>
				</g>
			</g>
			<g>
				<path class="st40" d="M289.9,236.5c0,4.3,3.5,7.8,7.8,7.8s7.8-3.5,7.8-7.8s-3.5-7.8-7.8-7.8
					C293.4,228.6,289.9,232.1,289.9,236.5z"/>
			</g>
		</g>
	</g>
	<g>
		<defs>
			<rect id="SVGID_00000160906471821206494440000013257918434698292631_" width="1245" height="300"/>
		</defs>
		<clipPath id="SVGID_00000098932787537799216170000012176433830479956370_">
			<use xlink:href="#SVGID_00000160906471821206494440000013257918434698292631_"  style="overflow:visible;"/>
		</clipPath>
		<g style="clip-path:url(#SVGID_00000098932787537799216170000012176433830479956370_);">
			<path class="st14" d="M400.9,186.9c0,0-2.4,1.1-3.6,0.6c-1.1-0.5-2.9-0.6-3.5-0.6c-0.7,0-3.1-0.8-3,0.1c0,0.9,3.8,1.5,4.6,1.8
				c0.8,0.3-2.3,2-2.6,2.7c-0.3,0.7,3.2,5.7,5.1,4.3c2-1.4,3-4.2,3.4-4.4s1.5-1,1.5-1L400.9,186.9z"/>
			<path class="st14" d="M393.2,191.1c0,0-5.7,4.7-5.7,5.3c-0.1,0.6,0.2,0.9,0.8,0.5c0.6-0.4,5.6-4.4,5.6-4.4s-5.7,6.7-5.8,7.2
				c-0.1,0.3,0.4,0.9,0.7,0.7s6.3-6.5,6.3-6.5s-5.3,6.3-5.3,6.7s0.6,0.9,1,0.4c0.4-0.4,5.7-6,5.7-6s-3.5,4.8-3.3,5.2
				c0.1,0.3,0.6,0.8,1.4-0.5c0.9-1.3,3.3-4,3.3-4L393.2,191.1z"/>
			<path class="st42" d="M439.9,288.5c0,0,0.2,7.7-0.9,8.1c-1.1,0.5-5.2-2.2-7.1-4.9c-1.8-2.6,2.3-8.8,3-12.2c0.3-1.4,3.5-4,5.1-3.2
				c1.6,0.7,2.7,2.6,2.7,2.6S438.7,281.7,439.9,288.5z"/>
			<g>
				<path class="st43" d="M442.7,279c0,0-1.4,2.6-2.1,4.7c-0.7,2-0.8,7.7-1.3,8.1s-3.9-1.4-4.4-3.5s0.9-6.3,2.3-8.5
					c1.3-2.2,2.7-3.3,2.7-3.3S442.3,276.9,442.7,279z"/>
			</g>
			<polygon class="st42" points="434.9,279.6 431.2,285.1 431.9,285.6 434.8,281.4 			"/>
			<path class="st43" d="M456.1,229.7c0,0-2.1,11.3-2.1,14s-0.7,7.1-2.5,10.4c-1.7,3.3-9.3,25.7-9.9,28.3c-0.7,2.6-1.2,5.1-1.2,5.1
				s-3.8-1.7-3.8-4.2s3.3-22.8,3.8-26.8c0.6-4,5.3-24.6,5.3-24.6L456.1,229.7z"/>
			<path class="st14" d="M444.1,228.9c0,0,0.7,9.4,0.7,11.9c-0.1,2.5-1.2,8-1.2,9.5s0,32,1.2,35.7s-3.4,1.2-3.4,1.2
				s-8.1-20.1-8.1-28.5s1-12.6,0.4-17.9c-0.6-5.3-4.2-12.4-4.2-12.4L444.1,228.9z"/>
			<path class="st14" d="M445.4,105.6c0,0,7.5,7.6,5,17.4c-2.6,9.8-6.7,9.8-11.2,5.6s-7.2-8.6-7.8-13.5
				C430.7,110.1,438.5,98.8,445.4,105.6z"/>
			<path class="st14" d="M446.9,138.2c0,0-1.1-2.6-1.9-5.4c-0.1-0.5-0.3-1-0.4-1.5c-0.4-1.8-0.5-3.6-0.1-4.8
				c1.2-3.6-7.5-1.1-7.5-1.1s1.7,9.4,0,12.6C435.2,141,446.9,138.2,446.9,138.2z"/>
			<path class="st44" d="M431.8,183.6c0,0-5.4,8-6.6,15.1c-1.1,7.1,1,17.7,1.9,21.6c0.8,3.4,2,14,2,15.1c0,0,17,4.4,28.2,0.9
				c0,0,1.7-17.5,2.4-24c0.7-6.5-3.9-28.3-3.9-28.3L431.8,183.6z"/>
			<path class="st45" d="M399.4,187.3l3.1,3.5c0,0,18.3-14.8,19.1-16.8c0.8-2,7-13,7.3-14.2c0,0,1.2,3.1,2.2,6
				c0.4,1.2,0.9,3.5,1.2,4.5c0.8,3.4,0.9,8.7-0.3,13.3c0,0,14.8,5.5,24,0.5c0,0-1-8,0.5-13.2s9.2-23.3,9.2-23.3s-4.1-7.6-8.4-9.1
				s-9.1-2.6-9.1-2.6h-10.1c0,0-6.6,1.7-8.1,2.2c-2.7,0.8-5.1,4.2-5.6,7.2s-7.4,23.7-8.3,24.3C415.1,170.3,399.4,187.3,399.4,187.3z
				"/>
			<path class="st14" d="M459.2,177.5c0,0-6.6,0.3-7.6,0s-7.8-3.2-8.2-6.1s15.8,2.6,15.8,2.6L459.2,177.5L459.2,177.5z"/>
			<path class="st46" d="M448.6,295.3c0,0,5.1,5.9,4.5,7s-5.5,1.6-8.7,0.7s-3.8-8.4-5.4-11.5c-0.7-1.3,0.2-5.4,1.9-5.8
				c1.7-0.4,3.8,0.3,3.8,0.3S443.3,290.7,448.6,295.3z"/>
			<g>
				<path class="st14" d="M444.7,286c0,0,0.6,2.9,1.3,5c0.7,2,4.2,6.6,4.1,7.2s-4,1.4-5.7,0.1c-1.7-1.4-3.3-5.6-3.6-8.2
					s-0.2-4.3-0.2-4.3S443.1,284.5,444.7,286z"/>
			</g>
			<polygon class="st46" points="439,291.5 439.5,298.2 440.4,298.1 440,292.9 			"/>
			<polygon class="st47" points="438.9,168.4 465.5,165.3 453.5,175 			"/>
			<path class="st45" d="M458.4,173.7c0,0,0.3,3.4,0,4.1c0,0,16.4-1.6,17.9-3.9c1.5-2.3,1.5-5.1,1.5-5.1L458.4,173.7z"/>
			<path class="st48" d="M442.9,111c0,0-3.6,6.6-5.8,8.9s-2,4.2-2,4.2s-8.7-10.8-2.5-17.3c6.2-6.5,14.3-3.9,16.6,1.8
				c2.3,5.7,1.5,12.6,1.5,12.6S450.6,114.6,442.9,111z"/>
			<path class="st48" d="M440.6,104.2c0,0,0.9-4.8-6.6-6.7c-7.5-1.9-10.9,6.8-10,12c0.9,5.3,7.4,18.7,3.9,20.4s-4.9-2-4.9-2
				s1.1,6.6,5.9,5.1c4.9-1.5,4.2-12.2,3.5-16.5C431.6,112.2,440.6,104.2,440.6,104.2z"/>
			<path class="st45" d="M448,136c0,0-0.7-2-0.6-2.5c0,0-9.5-0.6-11.9-0.2c0,0-0.2,2.7-0.2,3.3C435.3,137.2,446.3,139,448,136z"/>
			<polygon class="st2" points="453.5,175 438.9,170.1 438.9,168.4 454,173.2 			"/>
			<polygon class="st2" points="453.5,175 461.2,146.2 490.7,143.1 482.6,169.6 			"/>
			<path class="st27" d="M438.1,127.6c0,0.1,1.9,4.4,6.8,5.1c-0.1-0.5-0.3-1-0.4-1.5C444.6,131.2,441.9,131.7,438.1,127.6z"/>
			<path class="st49" d="M428.8,159.8c0,0,1.2,3.1,2.2,6c1-8.4-0.4-15-0.4-15C430.5,155.3,428.8,159.8,428.8,159.8z"/>
			<path class="st45" d="M439.4,103.2c0,0-5.3,1-8,5.4c0,0,0.5-3.9,3.2-5.1C437.3,102.3,439.4,103.2,439.4,103.2z"/>
		</g>
	</g>
	<g>
		<defs>
			<rect id="SVGID_00000177449302629246258810000017608227791737950112_" width="1245" height="300"/>
		</defs>
		<clipPath id="SVGID_00000087402528327278339250000016914895388132202129_">
			<use xlink:href="#SVGID_00000177449302629246258810000017608227791737950112_"  style="overflow:visible;"/>
		</clipPath>
		<g style="clip-path:url(#SVGID_00000087402528327278339250000016914895388132202129_);">
			<g>
				<g>
					<path class="st51" d="M1196.3,304.2c-6.8-36.8-42.4-53.2-42.8-53.3l0.5-1.1c0.4,0.2,9.6,3.9,19.8,12.5
						c9.4,7.9,21.4,21.5,25.1,41.5L1196.3,304.2z"/>
				</g>
				<g>
					<path class="st52" d="M1157.2,271.2c-3.5,2.2-7.1,4.1-10.3,5.9c0.8-2.3,1.3-4.6,1.3-7c0-1.6,0-5.2-1.6-6.2
						c-1.7-1-2.3,1-2.2,2.3c0.4,3.8,1.6,10.3-1.8,13.4c-0.5,0.3-1,0.7-1.5,1c0,0,0,0-0.1,0c-0.1,0.1-0.2,0.1-0.3,0.2
						c-2.7,1.9-4.7,3.8-5.4,6c0,0-7.6-7.6-10.5-20c1.6-1.9,5.3-3,7.4-3.9c1.8-0.8,3.8-1.2,5.5-2.2c1.1-0.6,3.2-3,0.8-3.6
						c-1.3-0.3-3.5,0.9-4.6,1.3c-1.5,0.6-3.1,1.3-4.5,2.1c-1.9,1-3.7,2.2-5.1,3.9c-0.4-2.7-0.7-5.6-0.5-8.6c0.1-1.4,0.3-2.7,0.6-3.9
						c2.2-1.3,4.3-2,7-2.1c1.8-0.1,4,0.2,5.7-0.4c1.2-0.4,2.6-1.7,1.4-2.9c-1.1-1.1-3.8-0.6-5.1-0.4c-2.6,0.4-5.5,1.3-8,2.6
						c3.3-8,10.7-12.8,15.5-13.1c6-0.3,9.3,11.5,9.3,11.5l0,0l0,0c0.2-0.2,0.9-1.3,2.2-2.3c2.2-1.9,6-3.6,10.1,0
						C1169.3,250.6,1166.8,265.1,1157.2,271.2z M1144,245.7c0.4,1,1.4,1.4,2.3,1.8l0,0c0,0,0,0.1,0.1,0.1c0.3,0.4,0.9,0.3,1.2,0
						c0.3-0.3,0.3-0.8,0-1.2c-0.7-0.8-1.5-1.5-2.6-1.8C1144.5,244.6,1143.8,245.1,1144,245.7z M1140.1,253.2c0,0.4,0.4,0.9,0.8,0.8
						c0.7-0.1,1.4,0,2-0.1c0.4-0.1,0.7-0.6,0.6-1c-0.1-0.5-0.6-0.7-1-0.6c-0.5,0.1-1.1,0-1.6,0.1
						C1140.4,252.4,1140.1,252.7,1140.1,253.2z M1156.3,260.7c-0.4-2.4-1.1-8.1-4.7-7.6c-0.5,0.1-0.9,0.5-0.8,1c0.3,1.2,1.3,2,2,3
						c0.9,1.4,1.3,3,1.7,4.6c0.3,0.9,1.7,0.6,1.6-0.2C1156.2,261.3,1156.3,261.1,1156.3,260.7z"/>
					<path class="st53" d="M1157.2,271.2c-3.5,2.2-7.1,4.1-10.3,5.9c0.8-2.3,1.3-4.6,1.3-7c0-1.6,0-5.2-1.6-6.2
						c-1.7-1-2.3,1-2.2,2.3c0.4,3.8,1.6,10.3-1.8,13.4c-0.5,0.3-1,0.7-1.5,1c0,0,0,0-0.1,0c-0.1,0.1-0.2,0.1-0.3,0.2
						c-2.7,1.9-4.7,3.8-5.4,6c0,0,0.8-23.8,14.9-39.7l0,0l0,0c0.7-0.8,1.4-1.6,2.2-2.3c2.2-1.9,6-3.6,10.1,0
						C1169.3,250.6,1166.8,265.1,1157.2,271.2z M1156.3,260.7c-0.4-2.4-1.1-8.1-4.7-7.6c-0.5,0.1-0.9,0.5-0.8,1c0.3,1.2,1.3,2,2,3
						c0.9,1.4,1.3,3,1.7,4.6c0.3,0.9,1.7,0.6,1.6-0.2C1156.2,261.3,1156.3,261.1,1156.3,260.7z"/>
				</g>
			</g>
			<g>
				<g>
					<path class="st51" d="M1203,307.7l-1.9-0.1c1.8-27.1,23.4-47.7,23.6-47.9l0.5,0.5C1225,260.4,1204.7,281.3,1203,307.7z"/>
				</g>
				<g>
					<path class="st52" d="M1249.5,281.2c0,0-10.3-6.8-22.2-7.4c-0.3,0-0.6,0-0.9-0.1c-0.2-1.9,0.6-3.3,1.4-4.9
						c0.5-1.1,1.1-2.3,0.8-3.6c-0.1-0.5-0.7-0.9-1.2-0.6c-1.4,0.9-1.9,2.5-2.4,4c-0.5,1.7-0.7,3.2-0.4,4.8
						c-9.7-1.7-12.8-9.5-8.1-14.5c4.6-5,10.6-1.3,11.7-0.6c0.1,0,0.1,0.1,0.2,0.1c0,0,1.7-7.6,10.1-2.1c2.5,1.7,4.6,4.7,6.1,8
						c-1.4-0.7-2.9-1-4.4-0.8c-0.7,0.1-0.9,1.2-0.3,1.5c1.1,0.6,2.2,0.8,3.3,1.1c1.2,0.4,2.1,1,2.9,1.8
						C1248.5,274.7,1249.5,281.2,1249.5,281.2z"/>
					<path class="st53" d="M1249.5,281.2c0,0-10.3-6.8-22.2-7.4c-0.3,0-0.6,0-0.9-0.1c-0.2-1.9,0.6-3.3,1.4-4.9
						c0.5-1.1,1.1-2.3,0.8-3.6c-0.1-0.5-0.7-0.9-1.2-0.6c-1.4,0.9-1.9,2.5-2.4,4c-0.5,1.7-0.7,3.2-0.4,4.8
						c-9.7-1.7-12.8-9.5-8.1-14.5c4.6-5,10.6-1.3,11.7-0.6c0.1,0,0.1,0.1,0.2,0.1C1241.5,268.1,1249.5,281.2,1249.5,281.2z"/>
				</g>
			</g>
			<g>
				<g>
					<path class="st51" d="M1201.2,309.9l-2.6-0.2c1.3-46.6-19.1-101.3-19.3-101.9l1-0.5c0.2,0.5,17.5,43.5,20.6,86.1
						c2.7-21.1,6.8-57.7,5.2-76.5l1.2-0.1C1209.5,244.4,1201.3,309.3,1201.2,309.9z"/>
				</g>
				<g>
					<path class="st52" d="M1185.3,207.6c2.2,1.4,4.4,2.5,5.1,4.9c0,0.2,0.1,0.3,0.1,0.4c0,0.2,0.1,0.3,0.1,0.5
						c-2.7,4.6-6.5,9.6-10.5,13.3c0.6-2.3,1-4.6,0.7-7.1c-0.2-1.7-0.3-5.2-1.8-6.4c-1.2-1-2.2-0.3-2.5,1c-0.4,2,1.1,4.8,1.3,6.9
						c0.4,2.9,0.1,5.8-1.1,8.4c-0.9,0.7-1.8,1.3-2.7,1.8c-1.9,1.1-3.5,2-5,2.8c0.5-1.2,0.8-2.4,0.8-4c-0.1-2.2-0.4-4.9-2.6-6
						c-0.6-0.3-1.2,0.3-1.1,0.9c0.3,2.5,0.7,5.2,0.2,7.7c-0.4,1.9-1.5,3.3-3,4.5c-3.8,2.1-5.5,3.3-6.5,5.4l0,0c0,0-5.4-6.4-6.6-15.8
						c1.5-1.7,3.2-3.4,5.1-4.8c1.8-1.4,3.9-2.4,5.7-3.8c1.3-1,2.7-3.5,0.2-3.9c-2-0.3-4.8,1.6-6.3,2.7c-1.9,1.4-3.6,3.1-4.9,5.2
						c0.1-2.1,0.4-4.3,1-6.5s1.5-4.3,2.5-6.1c0.1,0,0.2-0.1,0.2-0.1c4.4-2.8,9.5-3.4,14.1-5.5c1.2-0.5,3-2,1.1-3
						c-1.7-0.9-5.5,1-7.1,1.6c-1.9,0.7-3.7,1.6-5.4,2.6c6.3-7.5,15.2-10.5,18.3-9.7c4.2,1.1,4.2,8.9,4.2,8.9s5.6-7.9,13.2-5.6
						c3.3,1,2.5,6.1-0.6,12c-0.4-1.8-1.5-3.3-2.9-4.7c-1.1-1.2-3.3-3.2-5-2.2C1182.2,205.3,1184.2,206.9,1185.3,207.6z
						 M1165.8,210.4c1.5,0.9,3.3,0.3,4.7-0.5c0.7-0.4,0.4-1.5-0.2-1.6c-0.1-0.1-0.2-0.2-0.4-0.2c-1.3-0.1-2.8,0.2-3.9,0.9
						C1165.5,209.2,1165.2,210,1165.8,210.4z M1160,224.9c1.2,0.3,2.4-0.5,3.2-1.2c0.1-0.1,0.1-0.1,0.1-0.2c0.4-0.1,0.6-0.5,0.6-0.9
						c-0.1-0.4-0.5-0.8-0.9-0.7c-1.1,0.3-2.3,0.8-3.2,1.6C1159.3,223.9,1159.3,224.8,1160,224.9z M1173.3,217.6
						c-0.4-0.7-1.4-0.6-1.6,0.2c-0.1,0.4,0,0.8,0,1.2c0,0.1,0.1,0.3,0.1,0.4c0.1,0.4,0.2,0.7,0.4,1c0.4,0.6,1.5,0.3,1.5-0.4
						C1173.8,219.2,1173.7,218.3,1173.3,217.6z"/>
					<path class="st53" d="M1179.3,204.6c-18.6,18.3-22.3,37.6-22.4,38.2l0,0c0,0-5.4-6.4-6.6-15.8c1.5-1.7,3.2-3.4,5.1-4.8
						c1.8-1.4,3.9-2.4,5.7-3.8c1.3-1,2.7-3.5,0.2-3.9c-2-0.3-4.8,1.6-6.3,2.7c-1.9,1.4-3.6,3.1-4.9,5.2c0.1-2.1,0.4-4.3,1-6.5
						s1.5-4.3,2.5-6.1c0.1,0,0.2-0.1,0.2-0.1c4.4-2.8,9.5-3.4,14.1-5.5c1.2-0.5,3-2,1.1-3c-1.7-0.9-5.5,1-7.1,1.6
						c-1.9,0.7-3.7,1.6-5.4,2.6c6.3-7.5,15.2-10.5,18.3-9.7C1179.3,196.9,1179.3,204.6,1179.3,204.6z M1163.9,222.6
						c-0.1-0.4-0.5-0.8-0.9-0.7c-1.1,0.3-2.3,0.8-3.2,1.6c-0.4,0.4-0.4,1.2,0.2,1.4c1.2,0.3,2.4-0.5,3.2-1.2
						c0.1-0.1,0.1-0.1,0.1-0.2C1163.7,223.4,1163.9,223.1,1163.9,222.6z M1170.3,208.3c-0.1-0.1-0.2-0.2-0.4-0.2
						c-1.3-0.1-2.8,0.2-3.9,0.9c-0.5,0.3-0.7,1.1-0.2,1.4c1.5,0.9,3.3,0.3,4.7-0.5C1171.3,209.4,1171,208.4,1170.3,208.3z"/>
				</g>
				<g>
					<path class="st52" d="M1224.7,216.7c5.5,3.4,11.3,5.5,14.9,11c-1.7,3.7-4.9,7-8,10.1c-2.3-6.4-6.7-13.3-14-13.7
						c-0.8,0-1.6,1-0.9,1.7c2.3,2.3,5,4.1,7.3,6.2c2.4,2.2,4.1,4.8,5.9,7.4c-4.4,4.2-8.3,7.8-7.6,11.2c0,0.1,0,0.1,0,0.2
						c-0.3-0.8-3-7.1-19.1-7.4c-0.5-3.4,0-6.8,0.7-10.2c0.5-2.2,2-4.8,1.3-7.1c-0.1-0.4-0.7-0.6-1.1-0.4c-2.6,1.6-3.2,4.2-3.5,7.1
						c-0.4,3.2-0.7,7.1,0.3,10.4c-6-0.9-10.9-4.7-14.6-9.7c1.7-4.6,6.5-7.4,9.9-10.7c1.1-1,3.2-3.7,0.7-4.6c-2.2-0.9-6.4,3-7.6,4.2
						c-2.4,2.2-3.9,5-5,7.9c-4.5-7.8-5.9-17.2-3.3-22.7c5-10.5,16.8-8.5,23.9-1.1c0,0,0.5-10.1,17.2-11.7c10-1,15.8,6.5,18.1,15
						c-1.8-1.3-3.7-2.3-5.6-3.2c-2.5-1.2-5.1-1.9-7.9-1.9c-1.4,0-4,0-5,1.3c-2,2.6,3,3.7,4.6,4.1c5.5,1.2,11.9,1.6,14.9,7.1
						c0.1,2.5-0.1,5-0.5,7.1c-1.5-1.9-3.3-3.5-4.9-4.9c-2.5-2.3-7.2-5-10.8-4.1C1224.5,215.3,1224,216.2,1224.7,216.7z
						 M1197.8,208.7c-0.1-0.3-0.4-0.6-0.9-0.6c-2.2,0.1-4.2,1-6.2,1.8c-1.3,0.6-2.6,1-3.5,2.2c-0.3,0.4-0.1,1.1,0.4,1.3
						c1.4,0.5,2.9-0.6,4.2-1c1.1-0.4,2.3-0.7,3.3-1.1c1-0.4,1.5-1,2.3-1.5C1198,209.6,1198,209.1,1197.8,208.7z M1200.5,212.1
						c0.2,0.4,0.7,0.7,1.1,0.4c0.2-0.1,0.4-0.1,0.5-0.2c0.4-0.2,0.6-0.6,0.4-1.1c-0.2-0.4-0.7-0.6-1.1-0.4c-0.2,0.1-0.4,0.1-0.5,0.2
						C1200.5,211.2,1200.3,211.7,1200.5,212.1z M1205,218.3c-0.2-0.4-0.6-0.6-1.1-0.4c-1.1,0.5-1.8,1.4-2.4,2.4
						c-0.2,0.5,0.2,1.1,0.7,1.1c1.2,0.1,2.7-1.1,3-2.2C1205.4,218.9,1205.3,218.6,1205,218.3z M1209.2,207.9
						c0.1,0.8,0.9,1.1,1.6,1.1c0.6,0.1,1.5,0,2-0.4c0.6-0.5,0.2-1.4-0.4-1.5c0,0-0.1,0-0.1-0.1c-0.5-0.2-1-0.3-1.5-0.4
						C1210,206.6,1209.1,206.9,1209.2,207.9z M1217.7,215.5c-1-0.7-2.1-1.4-3.4-1.3c-0.5,0-0.7,0.5-0.7,0.9c0,1.8,2.2,2.1,3.5,1.9
						c0.2,0,0.3-0.1,0.4-0.2C1218,216.7,1218.3,216,1217.7,215.5z"/>
					<path class="st53" d="M1222.4,250.7c-0.3-0.8-3-7.1-19.1-7.4c-0.5-3.4,0-6.8,0.7-10.2c0.5-2.2,2-4.8,1.3-7.1
						c-0.1-0.4-0.7-0.6-1.1-0.4c-2.6,1.6-3.2,4.2-3.5,7.1c-0.4,3.2-0.7,7.1,0.3,10.4c-6-0.9-10.9-4.7-14.6-9.7
						c1.7-4.6,6.5-7.4,9.9-10.7c1.1-1,3.2-3.7,0.7-4.6c-2.2-0.9-6.4,3-7.6,4.2c-2.4,2.2-3.9,5-5,7.9c-4.5-7.8-5.9-17.2-3.3-22.7
						c5-10.5,16.8-8.5,23.9-1.1c9.7,17.6,16.6,41.3,17.4,44.1C1222.3,250.6,1222.3,250.6,1222.4,250.7z M1197.8,208.7
						c-0.1-0.3-0.4-0.6-0.9-0.6c-2.2,0.1-4.2,1-6.2,1.8c-1.3,0.6-2.6,1-3.5,2.2c-0.3,0.4-0.1,1.1,0.4,1.3c1.4,0.5,2.9-0.6,4.2-1
						c1.1-0.4,2.3-0.7,3.3-1.1c1-0.4,1.5-1,2.3-1.5C1198,209.6,1198,209.1,1197.8,208.7z M1200.5,212.1c0.2,0.4,0.7,0.7,1.1,0.4
						c0.2-0.1,0.4-0.1,0.5-0.2c0.4-0.2,0.6-0.6,0.4-1.1c-0.2-0.4-0.7-0.6-1.1-0.4c-0.2,0.1-0.4,0.1-0.5,0.2
						C1200.5,211.2,1200.3,211.7,1200.5,212.1z M1205,218.3c-0.2-0.4-0.6-0.6-1.1-0.4c-1.1,0.5-1.8,1.4-2.4,2.4
						c-0.2,0.5,0.2,1.1,0.7,1.1c1.2,0.1,2.7-1.1,3-2.2C1205.4,218.9,1205.3,218.6,1205,218.3z"/>
				</g>
			</g>
			<g>
				<g>
					<path class="st51" d="M1201.1,312.8h-1.9c0.4-19.4-10-48.2-10.1-48.5l0.8-0.3c0,0.1,3,7.3,5.8,16.9
						C1198.2,289.7,1201.3,302.5,1201.1,312.8z"/>
				</g>
				<path class="st52" d="M1198.5,269.8c-3.6,3.6-7.9,5.8-8.9,9.7c-0.1,0.5-0.2,1-0.2,1.6c0-0.4-0.6-4.8-7-5.9
					c-0.9-0.1-1.7-0.5-2.3-1c0.6-1.4,1.5-2.7,2.7-4c1.1-1.2,2.7-2.1,3.4-3.6c0.3-0.7-0.5-1.2-1.1-1c-1.8,0.6-3.8,2.3-4.9,3.8
					c-0.6,0.8-1.1,1.7-1.5,2.6c-1.6-4.3,0.5-11.5,3.8-13.2c4.6-2.4,6.2,3.6,6.2,3.6s0-0.2,0-0.4l0,0c0.2-1.5,1.2-6,5.9-4.4
					C1200.2,259.4,1202.7,265.8,1198.5,269.8z"/>
				<path class="st53" d="M1189.6,279.5c-0.1,0.9-0.2,1.4-0.2,1.6c0-0.4-0.6-4.8-7-5.9c-0.9-0.1-1.7-0.5-2.3-1
					c0.6-1.4,1.5-2.7,2.7-4c1.1-1.2,2.7-2.1,3.4-3.6c0.3-0.7-0.5-1.2-1.1-1c-1.8,0.6-3.8,2.3-4.9,3.8c-0.6,0.8-1.1,1.7-1.5,2.6
					c-1.6-4.3,0.5-11.5,3.8-13.2c4.6-2.4,6.2,3.6,6.2,3.6s0-0.2,0-0.4C1190.4,269.2,1190,276.4,1189.6,279.5z"/>
			</g>
		</g>
	</g>
	<g>
		<defs>
			<rect id="SVGID_00000026131206544230595600000017866680090090950041_" width="1245" height="300"/>
		</defs>
		<clipPath id="SVGID_00000021109777057814966250000004321258686873948808_">
			<use xlink:href="#SVGID_00000026131206544230595600000017866680090090950041_"  style="overflow:visible;"/>
		</clipPath>
		<g style="clip-path:url(#SVGID_00000021109777057814966250000004321258686873948808_);">
			<g>
				<g>
					<path class="st51" d="M52.4,315.2c6.8-36.8,42.4-53.2,42.8-53.3l-0.5-1.1c-0.4,0.2-9.6,3.9-19.8,12.5
						c-9.4,7.9-21.4,21.5-25.1,41.5L52.4,315.2z"/>
				</g>
				<g>
					<path class="st52" d="M91.5,282.2c3.5,2.2,7.1,4.1,10.3,5.9c-0.8-2.3-1.3-4.6-1.3-7c0-1.6,0-5.2,1.6-6.2c1.7-1,2.3,1,2.2,2.3
						c-0.4,3.8-1.6,10.3,1.8,13.4c0.5,0.3,1,0.7,1.5,1c0,0,0,0,0.1,0c0.1,0.1,0.2,0.1,0.3,0.2c2.7,1.9,4.7,3.8,5.4,6
						c0,0,7.6-7.6,10.5-20c-1.6-1.9-5.3-3-7.4-3.9c-1.8-0.8-3.8-1.2-5.5-2.2c-1.1-0.6-3.2-3-0.8-3.6c1.3-0.3,3.5,0.9,4.6,1.3
						c1.5,0.6,3.1,1.3,4.5,2.1c1.9,1,3.7,2.2,5.1,3.9c0.4-2.7,0.7-5.6,0.5-8.6c-0.1-1.4-0.3-2.7-0.6-3.9c-2.2-1.3-4.3-2-7-2.1
						c-1.8-0.1-4,0.2-5.7-0.4c-1.2-0.4-2.6-1.7-1.4-2.9c1.1-1.1,3.8-0.6,5.1-0.4c2.6,0.4,5.5,1.3,8,2.6c-3.3-8-10.7-12.8-15.5-13.1
						c-6-0.3-9.3,11.5-9.3,11.5l0,0l0,0c-0.2-0.2-0.9-1.3-2.2-2.3c-2.2-1.9-6-3.6-10.1,0C79.4,261.7,81.9,276.2,91.5,282.2z
						 M104.7,256.7c-0.4,1-1.4,1.4-2.3,1.8l0,0c0,0,0,0.1-0.1,0.1c-0.3,0.4-0.9,0.3-1.2,0c-0.3-0.3-0.3-0.8,0-1.2
						c0.7-0.8,1.5-1.5,2.6-1.8C104.2,255.6,104.9,256.1,104.7,256.7z M108.6,264.2c0,0.4-0.4,0.9-0.8,0.8c-0.7-0.1-1.4,0-2-0.1
						c-0.4-0.1-0.7-0.6-0.6-1c0.1-0.5,0.6-0.7,1-0.6c0.5,0.1,1.1,0,1.6,0.1C108.2,263.4,108.6,263.7,108.6,264.2z M92.4,271.8
						c0.4-2.4,1.1-8.1,4.7-7.6c0.5,0.1,0.9,0.5,0.8,1c-0.3,1.2-1.3,2-2,3c-0.9,1.4-1.3,3-1.7,4.6c-0.3,0.9-1.7,0.6-1.6-0.2
						C92.5,272.3,92.4,272.1,92.4,271.8z"/>
					<path class="st53" d="M91.5,282.2c3.5,2.2,7.1,4.1,10.3,5.9c-0.8-2.3-1.3-4.6-1.3-7c0-1.6,0-5.2,1.6-6.2c1.7-1,2.3,1,2.2,2.3
						c-0.4,3.8-1.6,10.3,1.8,13.4c0.5,0.3,1,0.7,1.5,1c0,0,0,0,0.1,0c0.1,0.1,0.2,0.1,0.3,0.2c2.7,1.9,4.7,3.8,5.4,6
						c0,0-0.8-23.8-14.9-39.7l0,0l0,0c-0.7-0.8-1.4-1.6-2.2-2.3c-2.2-1.9-6-3.6-10.1,0C79.4,261.7,81.9,276.2,91.5,282.2z
						 M92.4,271.8c0.4-2.4,1.1-8.1,4.7-7.6c0.5,0.1,0.9,0.5,0.8,1c-0.3,1.2-1.3,2-2,3c-0.9,1.4-1.3,3-1.7,4.6
						c-0.3,0.9-1.7,0.6-1.6-0.2C92.5,272.3,92.4,272.1,92.4,271.8z"/>
				</g>
			</g>
			<g>
				<g>
					<path class="st51" d="M45.7,318.7l1.9-0.1c-1.8-27.1-23.4-47.7-23.6-47.9l-0.5,0.5C23.7,271.4,44,292.3,45.7,318.7z"/>
				</g>
				<g>
					<path class="st52" d="M-0.8,292.2c0,0,10.3-6.8,22.2-7.4c0.3,0,0.6,0,0.9-0.1c0.2-1.9-0.6-3.3-1.4-4.9
						c-0.5-1.1-1.1-2.3-0.8-3.6c0.1-0.5,0.7-0.9,1.2-0.6c1.4,0.9,1.9,2.5,2.4,4c0.5,1.7,0.7,3.2,0.4,4.8c9.7-1.7,12.8-9.5,8.1-14.5
						c-4.6-5-10.6-1.3-11.7-0.6c-0.1,0-0.1,0.1-0.2,0.1c0,0-1.7-7.6-10.1-2.1c-2.5,1.7-4.6,4.7-6.1,8c1.4-0.7,2.9-1,4.4-0.8
						c0.7,0.1,0.9,1.2,0.3,1.5c-1.1,0.6-2.2,0.8-3.3,1.1c-1.2,0.4-2.1,1-2.9,1.8C0.2,285.7-0.8,292.2-0.8,292.2z"/>
					<path class="st53" d="M-0.8,292.2c0,0,10.3-6.8,22.2-7.4c0.3,0,0.6,0,0.9-0.1c0.2-1.9-0.6-3.3-1.4-4.9
						c-0.5-1.1-1.1-2.3-0.8-3.6c0.1-0.5,0.7-0.9,1.2-0.6c1.4,0.9,1.9,2.5,2.4,4c0.5,1.7,0.7,3.2,0.4,4.8c9.7-1.7,12.8-9.5,8.1-14.5
						c-4.6-5-10.6-1.3-11.7-0.6c-0.1,0-0.1,0.1-0.2,0.1C7.2,279.2-0.8,292.2-0.8,292.2z"/>
				</g>
			</g>
			<g>
				<g>
					<path class="st51" d="M47.5,320.9l2.6-0.2c-1.3-46.6,19.1-101.3,19.3-101.9l-1-0.5c-0.2,0.5-17.5,43.5-20.6,86.1
						c-2.7-21.1-6.8-57.7-5.2-76.5l-1.2-0.1C39.1,255.4,47.4,320.3,47.5,320.9z"/>
				</g>
				<g>
					<path class="st52" d="M63.4,218.7c-2.2,1.4-4.4,2.5-5.1,4.9c0,0.2-0.1,0.3-0.1,0.4c0,0.2-0.1,0.3-0.1,0.5
						c2.7,4.6,6.5,9.6,10.5,13.3c-0.6-2.3-1-4.6-0.7-7.1c0.2-1.7,0.3-5.2,1.8-6.4c1.2-1,2.2-0.3,2.5,1c0.4,2-1.1,4.8-1.3,6.9
						c-0.4,2.9-0.1,5.8,1.1,8.4c0.9,0.7,1.8,1.3,2.7,1.8c1.9,1.1,3.5,2,5,2.8c-0.5-1.2-0.8-2.4-0.8-4c0.1-2.2,0.4-4.9,2.6-6
						c0.6-0.3,1.2,0.3,1.1,0.9c-0.3,2.5-0.7,5.2-0.2,7.7c0.4,1.9,1.5,3.3,3,4.5c3.8,2.1,5.5,3.3,6.5,5.4l0,0c0,0,5.4-6.4,6.6-15.8
						c-1.5-1.7-3.2-3.4-5.1-4.8c-1.8-1.4-3.9-2.4-5.7-3.8c-1.3-1-2.7-3.5-0.2-3.9c2-0.3,4.8,1.6,6.3,2.7c1.9,1.4,3.6,3.1,4.9,5.2
						c-0.1-2.1-0.4-4.3-1-6.5s-1.5-4.3-2.5-6.1c-0.1,0-0.2-0.1-0.2-0.1c-4.4-2.8-9.5-3.4-14.1-5.5c-1.2-0.5-3-2-1.1-3
						c1.7-0.9,5.5,1,7.1,1.6c1.9,0.7,3.7,1.6,5.4,2.6c-6.3-7.5-15.2-10.5-18.3-9.7c-4.2,1.1-4.2,8.9-4.2,8.9s-5.6-7.9-13.2-5.6
						c-3.3,1-2.5,6.1,0.6,12c0.4-1.8,1.5-3.3,2.9-4.7c1.1-1.2,3.3-3.2,5-2.2C66.5,216.3,64.5,218,63.4,218.7z M82.9,221.4
						c-1.5,0.9-3.3,0.3-4.7-0.5c-0.7-0.4-0.4-1.5,0.2-1.6c0.1-0.1,0.2-0.2,0.4-0.2c1.3-0.1,2.8,0.2,3.9,0.9
						C83.2,220.3,83.5,221,82.9,221.4z M88.7,235.9c-1.2,0.3-2.4-0.5-3.2-1.2c-0.1-0.1-0.1-0.1-0.1-0.2c-0.4-0.1-0.6-0.5-0.6-0.9
						c0.1-0.4,0.5-0.8,0.9-0.7c1.1,0.3,2.3,0.8,3.2,1.6C89.3,234.9,89.4,235.8,88.7,235.9z M75.4,228.6c0.4-0.7,1.4-0.6,1.6,0.2
						c0.1,0.4,0,0.8,0,1.2c0,0.1-0.1,0.3-0.1,0.4c-0.1,0.4-0.2,0.7-0.4,1c-0.4,0.6-1.5,0.3-1.5-0.4C74.9,230.2,75,229.3,75.4,228.6z
						"/>
					<path class="st53" d="M69.4,215.6c18.6,18.3,22.3,37.6,22.4,38.2l0,0c0,0,5.4-6.4,6.6-15.8c-1.5-1.7-3.2-3.4-5.1-4.8
						c-1.8-1.4-3.9-2.4-5.7-3.8c-1.3-1-2.7-3.5-0.2-3.9c2-0.3,4.8,1.6,6.3,2.7c1.9,1.4,3.6,3.1,4.9,5.2c-0.1-2.1-0.4-4.3-1-6.5
						s-1.5-4.3-2.5-6.1c-0.1,0-0.2-0.1-0.2-0.1c-4.4-2.8-9.5-3.4-14.1-5.5c-1.2-0.5-3-2-1.1-3c1.7-0.9,5.5,1,7.1,1.6
						c1.9,0.7,3.7,1.6,5.4,2.6c-6.3-7.5-15.2-10.5-18.3-9.7C69.4,207.9,69.4,215.6,69.4,215.6z M84.8,233.7c0.1-0.4,0.5-0.8,0.9-0.7
						c1.1,0.3,2.3,0.8,3.2,1.6c0.4,0.4,0.4,1.2-0.2,1.4c-1.2,0.3-2.4-0.5-3.2-1.2c-0.1-0.1-0.1-0.1-0.1-0.2
						C85,234.4,84.8,234.1,84.8,233.7z M78.3,219.3c0.1-0.1,0.2-0.2,0.4-0.2c1.3-0.1,2.8,0.2,3.9,0.9c0.5,0.3,0.7,1.1,0.2,1.4
						c-1.5,0.9-3.3,0.3-4.7-0.5C77.4,220.5,77.7,219.4,78.3,219.3z"/>
				</g>
				<g>
					<path class="st52" d="M24,227.7c-5.5,3.4-11.3,5.5-14.9,11c1.7,3.7,4.9,7,8,10.1c2.3-6.4,6.7-13.3,14-13.7c0.8,0,1.6,1,0.9,1.7
						c-2.3,2.3-5,4.1-7.3,6.2c-2.4,2.2-4.1,4.8-5.9,7.4c4.4,4.2,8.3,7.8,7.6,11.2c0,0.1,0,0.1,0,0.2c0.3-0.8,3-7.1,19.1-7.4
						c0.5-3.4,0-6.8-0.7-10.2c-0.5-2.2-2-4.8-1.3-7.1c0.1-0.4,0.7-0.6,1.1-0.4c2.6,1.6,3.2,4.2,3.5,7.1c0.4,3.2,0.7,7.1-0.3,10.4
						c6-0.9,10.9-4.7,14.6-9.7c-1.7-4.6-6.5-7.4-9.9-10.7c-1.1-1-3.2-3.7-0.7-4.6c2.2-0.9,6.4,3,7.6,4.2c2.4,2.2,3.9,5,5,7.9
						c4.5-7.8,5.9-17.2,3.3-22.7c-5-10.5-16.8-8.5-23.9-1.1c0,0-0.5-10.1-17.2-11.7c-10-1-15.8,6.5-18.1,15c1.8-1.3,3.7-2.3,5.6-3.2
						c2.5-1.2,5.1-1.9,7.9-1.9c1.4,0,4,0,5,1.3c2,2.6-3,3.7-4.6,4.1c-5.5,1.2-11.9,1.6-14.9,7.1c-0.1,2.5,0.1,5,0.5,7.1
						c1.5-1.9,3.3-3.5,4.9-4.9c2.5-2.3,7.2-5,10.8-4.1C24.2,226.4,24.6,227.3,24,227.7z M50.9,219.7c0.1-0.3,0.4-0.6,0.9-0.6
						c2.2,0.1,4.2,1,6.2,1.8c1.3,0.6,2.6,1,3.5,2.2c0.3,0.4,0.1,1.1-0.4,1.3c-1.4,0.5-2.9-0.6-4.2-1c-1.1-0.4-2.3-0.7-3.3-1.1
						c-1-0.4-1.5-1-2.3-1.5C50.7,220.6,50.7,220.1,50.9,219.7z M48.2,223.1c-0.2,0.4-0.7,0.7-1.1,0.4c-0.2-0.1-0.4-0.1-0.5-0.2
						c-0.4-0.2-0.6-0.6-0.4-1.1c0.2-0.4,0.7-0.6,1.1-0.4c0.2,0.1,0.4,0.1,0.5,0.2C48.2,222.3,48.4,222.7,48.2,223.1z M43.7,229.4
						c0.2-0.4,0.6-0.6,1.1-0.4c1.1,0.5,1.8,1.4,2.4,2.4c0.2,0.5-0.2,1.1-0.7,1.1c-1.2,0.1-2.7-1.1-3-2.2
						C43.3,229.9,43.4,229.6,43.7,229.4z M39.5,218.9c-0.1,0.8-0.9,1.1-1.6,1.1c-0.6,0.1-1.5,0-2-0.4c-0.6-0.5-0.2-1.4,0.4-1.5
						c0,0,0.1,0,0.1-0.1c0.5-0.2,1-0.3,1.5-0.4C38.7,217.6,39.6,218,39.5,218.9z M31,226.6c1-0.7,2.1-1.4,3.4-1.3
						c0.5,0,0.7,0.5,0.7,0.9c0,1.8-2.2,2.1-3.5,1.9c-0.2,0-0.3-0.1-0.4-0.2C30.7,227.7,30.4,227,31,226.6z"/>
					<path class="st53" d="M26.3,261.7c0.3-0.8,3-7.1,19.1-7.4c0.5-3.4,0-6.8-0.7-10.2c-0.5-2.2-2-4.8-1.3-7.1
						c0.1-0.4,0.7-0.6,1.1-0.4c2.6,1.6,3.2,4.2,3.5,7.1c0.4,3.2,0.7,7.1-0.3,10.4c6-0.9,10.9-4.7,14.6-9.7
						c-1.7-4.6-6.5-7.4-9.9-10.7c-1.1-1-3.2-3.7-0.7-4.6c2.2-0.9,6.4,3,7.6,4.2c2.4,2.2,3.9,5,5,7.9c4.5-7.8,5.9-17.2,3.3-22.7
						c-5-10.5-16.8-8.5-23.9-1.1C34,235,27.1,258.7,26.3,261.5C26.3,261.6,26.3,261.7,26.3,261.7z M50.9,219.7
						c0.1-0.3,0.4-0.6,0.9-0.6c2.2,0.1,4.2,1,6.2,1.8c1.3,0.6,2.6,1,3.5,2.2c0.3,0.4,0.1,1.1-0.4,1.3c-1.4,0.5-2.9-0.6-4.2-1
						c-1.1-0.4-2.3-0.7-3.3-1.1c-1-0.4-1.5-1-2.3-1.5C50.7,220.6,50.7,220.1,50.9,219.7z M48.2,223.1c-0.2,0.4-0.7,0.7-1.1,0.4
						c-0.2-0.1-0.4-0.1-0.5-0.2c-0.4-0.2-0.6-0.6-0.4-1.1c0.2-0.4,0.7-0.6,1.1-0.4c0.2,0.1,0.4,0.1,0.5,0.2
						C48.2,222.3,48.4,222.7,48.2,223.1z M43.7,229.4c0.2-0.4,0.6-0.6,1.1-0.4c1.1,0.5,1.8,1.4,2.4,2.4c0.2,0.5-0.2,1.1-0.7,1.1
						c-1.2,0.1-2.7-1.1-3-2.2C43.3,229.9,43.4,229.6,43.7,229.4z"/>
				</g>
			</g>
			<g>
				<g>
					<path class="st51" d="M47.6,323.8h1.9c-0.4-19.4,10-48.2,10.1-48.5l-0.8-0.3c0,0.1-3,7.3-5.8,16.9
						C50.5,300.7,47.4,313.5,47.6,323.8z"/>
				</g>
				<path class="st52" d="M50.1,280.9c3.6,3.6,7.9,5.8,8.9,9.7c0.1,0.5,0.2,1,0.2,1.6c0-0.4,0.6-4.8,7-5.9c0.9-0.1,1.7-0.5,2.3-1
					c-0.6-1.4-1.5-2.7-2.7-4c-1.1-1.2-2.7-2.1-3.4-3.6c-0.3-0.7,0.5-1.2,1.1-1c1.8,0.6,3.8,2.3,4.9,3.8c0.6,0.8,1.1,1.7,1.5,2.6
					c1.6-4.3-0.5-11.5-3.8-13.2c-4.6-2.4-6.2,3.6-6.2,3.6s0-0.2,0-0.4l0,0c-0.2-1.5-1.2-6-5.9-4.4C48.4,270.4,46,276.8,50.1,280.9z"
					/>
				<path class="st53" d="M59,290.6c0.1,0.9,0.2,1.4,0.2,1.6c0-0.4,0.6-4.8,7-5.9c0.9-0.1,1.7-0.5,2.3-1c-0.6-1.4-1.5-2.7-2.7-4
					c-1.1-1.2-2.7-2.1-3.4-3.6c-0.3-0.7,0.5-1.2,1.1-1c1.8,0.6,3.8,2.3,4.9,3.8c0.6,0.8,1.1,1.7,1.5,2.6c1.6-4.3-0.5-11.5-3.8-13.2
					c-4.6-2.4-6.2,3.6-6.2,3.6s0-0.2,0-0.4C58.3,280.2,58.7,287.4,59,290.6z"/>
			</g>
		</g>
	</g>
	<g>
		<defs>
			<rect id="SVGID_00000143612126393659039470000007843770743320523692_" width="1245" height="300"/>
		</defs>
		<clipPath id="SVGID_00000166669994316910481380000017975773726551439005_">
			<use xlink:href="#SVGID_00000143612126393659039470000007843770743320523692_"  style="overflow:visible;"/>
		</clipPath>
		
			<line style="clip-path:url(#SVGID_00000166669994316910481380000017975773726551439005_);fill:none;stroke:#22577A;stroke-width:5;stroke-miterlimit:10;" x1="23.5" y1="297.6" x2="1231.9" y2="297.6"/>
	</g>
</g>
</svg>
