<svg xmlns="http://www.w3.org/2000/svg" xmlns:xlink="http://www.w3.org/1999/xlink" viewBox="0 0 1245 303.47"><defs><style>.cls-1{fill:none;}.cls-2{clip-path:url(#clip-path);}.cls-3{fill:url(#radial-gradient);}.cls-4{fill:#323657;}.cls-5{fill:#fff;}.cls-6{fill:#eea886;}.cls-7{isolation:isolate;opacity:0.68;fill:url(#linear-gradient);}.cls-8{fill:#e0e0e0;}.cls-9{fill:#78c2ff;}.cls-10{fill:#1487e3;}.cls-11{fill:#ffc055;}.cls-12{fill:#ffc455;}.cls-13{fill:#202338;}.cls-14{fill:#1c4054;}.cls-15{fill:#518afa;}.cls-16{fill:#eea987;}.cls-17{fill:#3d66ba;}.cls-18{fill:#252e3b;}.cls-19{fill:#a77860;}.cls-20{fill:#033b93;}.cls-21{fill:url(#linear-gradient-2);}.cls-22{fill:url(#linear-gradient-3);}.cls-23{fill:url(#linear-gradient-4);}.cls-24{fill:#ff8761;}.cls-25{fill:#999;}.cls-26{fill:#e8e8e8;}.cls-27{fill:#3a3f47;}.cls-28{fill:#0c5087;}.cls-29{fill:#444c94;}.cls-30{fill:#303669;}.cls-31{fill:#696969;}.cls-32{fill:#3d6091;}.cls-33{fill:#de9673;}.cls-34{fill:#316ebf;}.cls-35{fill:#eddad3;}.cls-36{fill:#5d89c4;}.cls-37{fill:#4c5285;}.cls-38{fill:#e8734d;}.cls-39{fill:#cfbeb8;}</style><clipPath id="clip-path"><rect class="cls-1" width="1245" height="300"/></clipPath><radialGradient id="radial-gradient" cx="992.38" cy="-292.68" r="700.62" gradientTransform="matrix(-0.76, 0.55, -0.47, -0.5, 1602.05, -935.3)" gradientUnits="userSpaceOnUse"><stop offset="0" stop-color="#73d7ff"/><stop offset="1" stop-color="#002bc6"/></radialGradient><linearGradient id="linear-gradient" x1="907.69" y1="681.33" x2="1076.39" y2="681.33" gradientTransform="translate(0 -537.89)" gradientUnits="userSpaceOnUse"><stop offset="0" stop-color="#343d4f"/><stop offset="0.46" stop-color="#30394c"/><stop offset="0.95" stop-color="#232d41"/><stop offset="1" stop-color="#212b40"/></linearGradient><linearGradient id="linear-gradient-2" x1="169.74" y1="704.14" x2="438.29" y2="704.14" gradientTransform="translate(0 -537.89)" gradientUnits="userSpaceOnUse"><stop offset="0" stop-color="#ff9f55"/><stop offset="1" stop-color="#ffd255"/></linearGradient><linearGradient id="linear-gradient-3" x1="185.6" y1="692.79" x2="409.8" y2="692.79" gradientTransform="translate(0 -537.89)" gradientUnits="userSpaceOnUse"><stop offset="0" stop-color="#404b61"/><stop offset="0.49" stop-color="#3c4860"/><stop offset="1" stop-color="#2f3e5c"/></linearGradient><linearGradient id="linear-gradient-4" x1="234.9" y1="833.49" x2="360.8" y2="833.49" xlink:href="#linear-gradient-2"/></defs><g id="Layer_2" data-name="Layer 2"><g id="Слой_1" data-name="Слой 1"><g class="cls-2"><rect class="cls-3" width="1245" height="300"/><g class="cls-2"><path class="cls-4" d="M906.6,204Z"/></g><g class="cls-2"><path class="cls-5" d="M859.2,265.3H801.9l.1-.5a10.16,10.16,0,0,1,9.9-8.2,14.92,14.92,0,0,1,2.1.2,17.16,17.16,0,0,1,29.1-2.1,11.42,11.42,0,0,1,3.7-.5,12.49,12.49,0,0,1,12.4,10.6Zm-56.2-.8h55.3a11.78,11.78,0,0,0-11.5-9.4,11.48,11.48,0,0,0-3.7.6l-.3.1-.2-.3a16.33,16.33,0,0,0-28,2l-.2.3-.3-.1a8.33,8.33,0,0,0-2.2-.3A9.4,9.4,0,0,0,803,264.5Z"/><path class="cls-5" d="M834.9,261.8a3.1,3.1,0,1,1,3.1-3.1A3.12,3.12,0,0,1,834.9,261.8Zm0-5.4a2.3,2.3,0,1,0,2.3,2.3A2.33,2.33,0,0,0,834.9,256.4Z"/></g><g class="cls-2"><path class="cls-5" d="M542,274.7l-.2-.1c-20.3-10.4-17.6-30.5-17.6-30.7l.1-.4h.4c12.9,0,17-4.2,17-4.2l.3-.3.3.3s4.1,4.2,17,4.2h.4l.1.4c0,.2,2.8,20.3-17.6,30.7Zm-16.9-30.3c-.3,2.7-1.1,20,17,29.4,18.1-9.4,17.2-26.6,17-29.4-11.2-.1-15.8-3.2-17-4.2C540.9,241.2,536.3,244.3,525.1,244.4Z"/><polygon class="cls-5" points="570.4 285.3 563 285.3 563 284.5 569.5 284.5 569.5 278 570.4 278 570.4 285.3"/><polygon class="cls-5" points="520.9 285.3 513.6 285.3 513.6 278 514.4 278 514.4 284.5 520.9 284.5 520.9 285.3"/><polygon class="cls-5" points="514.4 235.9 513.6 235.9 513.6 228.5 520.9 228.5 520.9 229.4 514.4 229.4 514.4 235.9"/><polygon class="cls-5" points="570.4 235.9 569.5 235.9 569.5 229.4 563 229.4 563 228.5 570.4 228.5 570.4 235.9"/><rect class="cls-5" x="569.5" y="246.9" width="0.9" height="20.1"/><rect class="cls-5" x="513.6" y="246.9" width="0.9" height="20.1"/><path class="cls-5" d="M542,269.6a3.1,3.1,0,1,1,3.1-3.1A3,3,0,0,1,542,269.6Zm0-5.4a2.3,2.3,0,1,0,2.3,2.3A2.26,2.26,0,0,0,542,264.2Z"/></g><g class="cls-2"><path class="cls-5" d="M841.4,102H819.8V80.4h21.6Zm-20.8-.9h19.9V81.2H820.6Z"/><rect class="cls-5" x="830.1" y="86.2" width="0.9" height="10.1"/><rect class="cls-5" x="825.5" y="90.8" width="10.1" height="0.9"/></g><g class="cls-2"><path class="cls-5" d="M1207.4,110.9h-35.9V85.2h35.9Zm-35-1h33.9V86.2h-33.9Z"/><polygon class="cls-5" points="1189.4 100.8 1171.6 86.1 1172.3 85.4 1189.4 99.5 1206.5 85.4 1207.2 86.1 1189.4 100.8"/><rect class="cls-5" x="1199.88" y="94.31" width="1" height="18.7" transform="translate(258.04 854.44) rotate(-43.48)"/><rect class="cls-5" x="1169" y="103.13" width="18.7" height="1" transform="translate(292.66 887.71) rotate(-46.54)"/></g><g class="cls-2"><path class="cls-5" d="M961.8,231.5H931v-22h30.9v22Zm-30-.8H961V210.4H931.8Z"/><polygon class="cls-5" points="946.4 222.9 931.1 210.3 931.7 209.6 946.4 221.7 961.2 209.6 961.7 210.3 946.4 222.9"/><rect class="cls-5" x="955.39" y="217.32" width="0.9" height="16.1" transform="translate(107.19 719.56) rotate(-43.48)"/><rect class="cls-5" x="928.9" y="224.78" width="16.1" height="0.9" transform="translate(129.02 750.45) rotate(-46.54)"/></g><g class="cls-2"><path class="cls-5" d="M923.1,49.4l-.3-.8a1.88,1.88,0,0,1-.8-.2l-.7.6-1.9-1.4.4-.8c-.2-.2-.3-.5-.5-.7h-.9l-.4-2.3.8-.3a1.88,1.88,0,0,1,.2-.8l-.6-.7,1.4-1.9.8.4c.2-.2.5-.3.7-.5v-.9l2.3-.4.3.8a1.88,1.88,0,0,1,.8.2l.7-.6,1.9,1.4-.4.8c.2.2.3.5.5.7h.9l.4,2.3-.8.3a1.88,1.88,0,0,1-.2.8l.6.7L927,48l-.8-.4c-.2.2-.5.3-.7.5V49Zm-1.3-1.8.2.1a3.59,3.59,0,0,0,1.1.2h.2l.3.7,1.3-.2v-.8l.2-.1a4.7,4.7,0,0,0,.9-.6l.2-.1.7.3.7-1-.5-.6.1-.2a3.59,3.59,0,0,0,.2-1.1V44l.7-.3-.2-1.3h-.8l-.1-.2a2.36,2.36,0,0,0-.6-.9l-.1-.2.3-.7-1-.7-.6.5-.2-.1a3.59,3.59,0,0,0-1.1-.2h-.2l-.3-.7-1.3.2v.8l-.2.1a2.36,2.36,0,0,0-.9.6l-.2.1-.7-.3-.7,1,.5.6-.1.2a3.59,3.59,0,0,0-.2,1.1v.2l-.7.3.2,1.3h.8l.1.2a2.36,2.36,0,0,0,.6.9l.1.2-.3.7,1,.7Zm1.6-1.1a3,3,0,0,1-1.5-.5h0a2.34,2.34,0,0,1-1-1.6,2.5,2.5,0,1,1,4.5,1A2.11,2.11,0,0,1,923.4,46.5Zm0-4.4a1.76,1.76,0,0,0-1.5.8,1.74,1.74,0,0,0-.3,1.4,2,2,0,0,0,.8,1.2h0a1.86,1.86,0,1,0,2.2-3A1.92,1.92,0,0,0,923.4,42.1Z"/><path class="cls-5" d="M905.3,52.1l-.7-1.9a18.92,18.92,0,0,1-2.3-.5l-1.5,1.4-4-2.8.8-1.8a8.17,8.17,0,0,1-1.2-2l-2-.1-.8-4.8,1.9-.7a18.92,18.92,0,0,1,.5-2.3l-1.4-1.5,2.8-4,1.8.8a8.17,8.17,0,0,1,2-1.2l.1-2,4.8-.8.7,1.9a18.92,18.92,0,0,1,2.3.5l1.5-1.4,4,2.8-.8,1.8a8.17,8.17,0,0,1,1.2,2l2,.1.8,4.8-1.9.7a18.92,18.92,0,0,1-.5,2.3l1.4,1.5-2.8,4-1.8-.8a8.17,8.17,0,0,1-2,1.2l-.1,2Zm-3.2-3.4.2.1a11.36,11.36,0,0,0,2.5.6h.3l.7,1.7,3.4-.6.1-1.8.2-.1a10.23,10.23,0,0,0,2.2-1.4l.3-.2,1.7.7,2-2.8-1.3-1.3.1-.2a11.36,11.36,0,0,0,.6-2.5v-.3l1.7-.7-.6-3.4-1.8-.1-.1-.2a10.23,10.23,0,0,0-1.4-2.2l-.2-.2.7-1.7-2.8-2-1.3,1.3-.2-.1a11.36,11.36,0,0,0-2.5-.6h-.3l-.7-1.7-3.4.6-.1,1.8-.2.1a10.23,10.23,0,0,0-2.2,1.4l-.2.2-1.7-.7-2,2.8,1.3,1.3-.1.2a11.36,11.36,0,0,0-.6,2.5v.3l-1.7.7.6,3.4,1.8.1.1.2a10.23,10.23,0,0,0,1.4,2.2l.2.2-.7,1.7,2.8,2Zm3.6-3.2a5.49,5.49,0,0,1-4.5-8.7,5.83,5.83,0,0,1,3.6-2.3,5.42,5.42,0,0,1,4.1,1,5.48,5.48,0,0,1,1.3,7.7A5.33,5.33,0,0,1,905.7,45.5Zm0-10.2a2.2,2.2,0,0,0-.8.1,4.66,4.66,0,1,0,4.6,7.3,4.83,4.83,0,0,0,.8-3.5,4.63,4.63,0,0,0-1.9-3A4.39,4.39,0,0,0,905.7,35.3Z"/></g><g class="cls-2"><path class="cls-5" d="M1127.9,185.9a18.31,18.31,0,0,1-18.3-18.3h1a17.3,17.3,0,1,0,17.3-17.3v-1a18.3,18.3,0,0,1,0,36.6Zm0-2.5a15.8,15.8,0,1,1,15.8-15.8h-1a14.8,14.8,0,1,0-14.8,14.8Z"/><polygon class="cls-5" points="1125.6 173.7 1119 167 1119.7 166.3 1125.6 172.3 1136 161.9 1136.7 162.6 1125.6 173.7"/></g><g class="cls-2"><path class="cls-5" d="M149.4,163.6a3.1,3.1,0,1,1,3.1-3.1A3,3,0,0,1,149.4,163.6Zm0-5.4a2.3,2.3,0,1,0,2.3,2.3A2.26,2.26,0,0,0,149.4,158.2Z"/><path class="cls-5" d="M122.7,215.8a3.67,3.67,0,0,1-3.7-3.6v-.6a5.38,5.38,0,0,1-3.7-5l-.1-11h2.2c-.8-13.6-11.1-32.7-11.2-32.9a29.2,29.2,0,1,1,48.8,0c-.4.8-10.3,19.3-11.2,32.8h2.1l.1,11a5.29,5.29,0,0,1-3.6,5v.6a3.67,3.67,0,0,1-3.6,3.7Zm-6.5-19.3.1,10.1a4.5,4.5,0,0,0,3.3,4.3l.3.1v1.2a2.86,2.86,0,0,0,2.8,2.8l16.1-.1a2.86,2.86,0,0,0,2.8-2.8v-1.2l.3-.1a4.5,4.5,0,0,0,3.3-4.3l-.1-10.1h-2.2v-.5c.7-13.7,10.9-32.8,11.3-33.6a28,28,0,0,0,4.7-15.6,28.3,28.3,0,0,0-56.6,0,28,28,0,0,0,4.7,15.6c.1.1,10.7,19.9,11.3,33.8v.4ZM131,175.9h-.3c-.1,0-1,0-2.5-.1l.1-.9a20.08,20.08,0,0,0,4.9,0l.1.9C132.1,175.9,131.4,175.9,131,175.9Z"/><rect class="cls-5" x="122.5" y="195.7" width="16.2" height="0.9"/><rect class="cls-5" x="129.7" y="93.8" width="1.7" height="14.7"/><rect class="cls-5" x="146.8" y="105.38" width="14.7" height="1.7" transform="translate(-29.96 140.11) rotate(-45)"/><rect class="cls-5" x="106.18" y="98.98" width="1.7" height="14.7" transform="translate(-43.84 106.82) rotate(-45)"/><rect class="cls-5" x="120.11" y="164.11" width="0.9" height="17.3" transform="translate(-36.27 32.1) rotate(-13.2)"/><rect class="cls-5" x="131.98" y="172.24" width="17.3" height="0.9" transform="translate(-59.73 269.93) rotate(-76.73)"/><path class="cls-5" d="M163.3,146.9h-.9A31.92,31.92,0,0,0,130.5,115v-.9A33,33,0,0,1,163.3,146.9Z"/><path class="cls-5" d="M156,146.9h-.9a24.6,24.6,0,1,0-49.2,0H105a25.5,25.5,0,0,1,51,0Z"/></g><g class="cls-2"><path class="cls-5" d="M1048.7,70.3a2,2,0,1,1,2-2A2,2,0,0,1,1048.7,70.3Zm0-3.4a1.4,1.4,0,0,0,0,2.8,1.43,1.43,0,0,0,1.4-1.4A1.31,1.31,0,0,0,1048.7,66.9Z"/><path class="cls-5" d="M1031.8,103.4a2.26,2.26,0,0,1-2.3-2.3v-.3a3.24,3.24,0,0,1-2.3-3.2V90.7h1.4c-.5-8.6-7-20.7-7.1-20.8a18.11,18.11,0,0,1-3-10.1,18.5,18.5,0,1,1,37,0,19,19,0,0,1-3,10.1c-.3.5-6.5,12.2-7.1,20.7h1.3v6.9a3.43,3.43,0,0,1-2.3,3.2v.3a2.26,2.26,0,0,1-2.3,2.3l-10.3.1Zm-4.1-12.2v6.4a2.79,2.79,0,0,0,2.1,2.7l.2.1v.8a1.79,1.79,0,0,0,1.8,1.8H1042a1.79,1.79,0,0,0,1.8-1.8v-.8l.2-.1a2.79,2.79,0,0,0,2.1-2.7V91.2h-1.4v-.3c.4-8.7,6.9-20.8,7.2-21.3a18.28,18.28,0,0,0,3-9.9,17.9,17.9,0,0,0-35.8,0,17.16,17.16,0,0,0,3,9.8c.1.1,6.8,12.6,7.2,21.4v.3Zm9.4-13.1h-.2s-.6,0-1.6-.1v-.5a16.05,16.05,0,0,0,3.1,0V78A7.77,7.77,0,0,1,1037.1,78.1Z"/><rect class="cls-5" x="1031.7" y="90.6" width="10.2" height="0.5"/><rect class="cls-5" x="1036.3" y="26.1" width="1.1" height="9.3"/><rect class="cls-5" x="1047.1" y="33.48" width="9.3" height="1.1" transform="translate(283.99 753.67) rotate(-45)"/><rect class="cls-5" x="1021.26" y="29.42" width="1.1" height="9.3" transform="translate(275.19 732.51) rotate(-45)"/><rect class="cls-5" x="1030.23" y="70.6" width="0.5" height="10.9" transform="translate(9.87 237.36) rotate(-13.2)"/><rect class="cls-5" x="1037.72" y="75.85" width="10.9" height="0.5" transform="translate(729.69 1073.96) rotate(-76.73)"/><path class="cls-5" d="M1057.5,59.8h-.5a20.21,20.21,0,0,0-20.2-20.2v-.5A20.68,20.68,0,0,1,1057.5,59.8Z"/><path class="cls-5" d="M1052.9,59.8h-.5a15.5,15.5,0,1,0-31,0h-.5a16,16,0,1,1,32,0Z"/></g><g class="cls-2"><path class="cls-6" d="M978.69,164.59s-.7-2.5,0-3.5a11.22,11.22,0,0,0,1.2-3.3c.1-.7,1.4-2.9.5-3s-2.2,3.6-2.7,4.3-1.6-2.4-2.3-2.8-6.3,2.5-5.2,4.6,3.7,3.4,3.8,3.8a11.25,11.25,0,0,0,.7,1.5Z"/><path class="cls-6" d="M975.79,156.59s-3.7-6-4.3-6.1-1,.1-.7.7,3.4,5.9,3.4,5.9-5.7-6.2-6.2-6.5c-.3-.1-1,.3-.8.7s5.4,6.9,5.4,6.9-5.4-5.8-5.8-5.9a.64.64,0,0,0-.6,1l5,6.2s-4.2-3.9-4.7-3.8c-.3.1-.9.5.2,1.5s3.5,3.6,3.5,3.6Z"/><path class="cls-7" d="M1070.49,161.69H913.59a5.91,5.91,0,0,1-5.9-5.9v-24.7a5.91,5.91,0,0,1,5.9-5.9h156.9a5.91,5.91,0,0,1,5.9,5.9v24.7A5.91,5.91,0,0,1,1070.49,161.69Z"/><rect class="cls-8" x="916.69" y="136.29" width="27.3" height="2.8"/><rect class="cls-8" x="949.29" y="136.29" width="19.4" height="2.8"/><rect class="cls-8" x="949.29" y="146.89" width="18.1" height="2.8"/><rect class="cls-9" x="1046.49" y="136.29" width="19.4" height="2.8"/><rect class="cls-10" x="973.99" y="136.29" width="24.7" height="2.8"/><rect class="cls-11" x="1016.99" y="136.29" width="24.7" height="2.8"/><rect class="cls-8" x="1003.19" y="136.29" width="9.1" height="2.8"/><rect class="cls-9" x="916.69" y="146.89" width="14.2" height="2.8"/><rect class="cls-10" x="934.29" y="146.89" width="4.6" height="2.8"/><rect class="cls-8" x="1028.09" y="146.89" width="37.8" height="2.8"/><rect class="cls-12" x="942.19" y="146.89" width="4.7" height="2.8"/><rect class="cls-10" x="1012.29" y="146.89" width="12.4" height="2.8"/><rect class="cls-9" x="982.69" y="146.89" width="26.3" height="2.8"/><rect class="cls-8" x="969.89" y="146.89" width="9.1" height="2.8"/><path class="cls-13" d="M974.29,288.79s-3.6,3.6-6.6,4-6.6,1.5-7,3.8,9.1,4.8,12.8,3c5.6-2.7,7.2-1.6,8.1-3.3s.7-7.4.8-7.9S974.29,288.79,974.29,288.79Z"/><path class="cls-13" d="M1037.39,278.69s-1,4.9-3.3,6.8-4.6,4.7-3.7,6.9,9,2,11.9-3.9c1.8-3.7,4-4.3,3.8-6.2s-3-5.9-3.2-6.4C1042.59,275.19,1037.39,278.69,1037.39,278.69Z"/><path class="cls-14" d="M998.39,208.49s-12.3,25.5-15.1,31.9a93.77,93.77,0,0,0-5.6,20.9c-.4,5.3-5.5,26.8-5.8,28.3s10.7.6,10.7.6,9.6-36.6,12.2-41.8c1.7-3.5,14.5-26.5,15.6-25.1s8,18.7,8.8,22.8,16.6,34.9,16.6,34.9,7.3-.5,8.8-3.3c0,0-11.7-31.2-13-36.8-.7-2.9-3.1-21.1-6.1-35C1023.79,198.69,998.39,208.49,998.39,208.49Z"/><path class="cls-15" d="M1029.59,169.69s-4.2,12.7-4.1,15.8S1023.09,170.69,1029.59,169.69Z"/><path class="cls-15" d="M999.59,174.39a26.86,26.86,0,0,1-1.5,3.9h0c-.4.8-.8,1.6-1.3,2.4-.1.1-.2.3-.3.4a8.28,8.28,0,0,1-1.1,1.5c-1.3,1.5-2.8,2.7-4.5,2.8-3.6.3-16.6-19.6-16.6-19.6l6.2-2.8s8.2,11.9,9.5,11.2,2.6-5.5,2.6-5.5c1.5-.8,3.8,1.5,5.4,3.4a1.38,1.38,0,0,1,.3.4C999,173.59,999.59,174.39,999.59,174.39Z"/><path class="cls-15" d="M1026.19,208c-7,6.3-29.5,4.2-29.5,4.2.3-.8,2.6-24.2,1.8-29.5s-.3-9.8-1-10-5.5-1.9-5.5-1.9,2.6-8.2,3.6-9.9,8.8-4.4,8.8-4.4a31.54,31.54,0,0,1,12.3-1.4c10.6,1.3,11.9,4.4,11.9,4.4l-2.5,15.7v.2c0,.4,0,1.2-.1,2.4-.2,5.1-.6,15.9-.6,18.4A89.75,89.75,0,0,0,1026.19,208Z"/><path class="cls-16" d="M1018.39,155.39a11,11,0,0,1-1.4,2.1c-3.3,4.3-7.1,4.1-7.1,4.1a4.93,4.93,0,0,1-4.2-3.1,7,7,0,0,1-.7-2.2l1.4-.5a5.9,5.9,0,0,0,.2-1.4v-2c0-1.2-.1-2.2-.1-2.2s10-5.4,9.2-1.6a9.57,9.57,0,0,0-.1,4.1,3.26,3.26,0,0,0,1.3,2.1C1017.79,155.19,1018.39,155.39,1018.39,155.39Z"/><path class="cls-6" d="M989.59,163.09a1.71,1.71,0,0,1-.6-1.1c-.1-1,.9-2.3-.3-3.3s-5.4,1.9-5.8,2.8.7,2.6,3.4,4.2C989,167.49,989.59,163.09,989.59,163.09Z"/><path class="cls-6" d="M989,159.19s-1-2-2.3-4c-1.2-1.8-2.9-3.7-3.4-3.4-.7.4.9,1.8,1.9,3.7,1,1.7.5,1.5.5,1.5s.1,0-1.3-1.6c-1.6-1.8-3.5-3.7-3.9-3.3-.3.2-.3.3.1,1-.4-.4-.5-.3-.7-.2-.9.7.9,3.7,1.7,4.9-.6-.9-1.1-1.5-1.4-.7s2.5,5,3.4,6.5S989,159.19,989,159.19Z"/><path class="cls-15" d="M1029.29,171.59c4.5-5.5-1.1-12.4-1.1-12.4-3.3-2.8-10.6,9.1-11.5,10.2s-7.9,7.4-9.8,9.5c-1,1.1-5.2-3.5-7.1-5.3-1.1-1.1-10.1-11.6-10.1-11.6s-6.2,4.4-5.6,4.1,18.2,22.8,21.5,23A57.76,57.76,0,0,0,1029.29,171.59Z"/><path class="cls-17" d="M996.79,180.69c-.1.1-.2.3-.3.4a8.28,8.28,0,0,1-1.1,1.5c-.9-1-4.1-8.3-4.1-8.4Z"/><path class="cls-17" d="M1024.39,177a89.74,89.74,0,0,1-8.8,7c-3.1,1.9-8.3,4.5-8.8,4.7C1006.69,188.59,1020.39,186,1024.39,177Z"/><path class="cls-6" d="M1001.09,136.09s-2.2,4-1.1,4.7c.9.5-1,4.5-1.3,5.1s1.6,1.1,2,1.5,1.6,5.5,3.1,5.7,8.5-2.3,10.4-4.2,3.4-10.8,2.2-14.6S1004.89,129.09,1001.09,136.09Z"/><path class="cls-18" d="M1000.69,137a6.25,6.25,0,0,1,1.8-7.6c4-3.2,11.5,2.4,12.3,2.7s5.6.5,3.2,8.9c-2.1,7.2-2.3,7.5-2.3,7.5s-1.5-4.2-2.4-4.8c-1.4-1-4.4-.8-4.4-.8s1.4-3.8-.8-4.3S1002.89,136.19,1000.69,137Z"/><path class="cls-6" d="M1011.19,140.69c.2-.5.8-2.7,2.7-1.4s-1.2,5.5-1.5,5.6S1009.59,145.09,1011.19,140.69Z"/><path class="cls-19" d="M1014,149.09s-1.6,3.2-7.4,5.3v-1.7C1006.59,152.59,1011,151.39,1014,149.09Z"/></g><g class="cls-2"><polygon class="cls-9" points="490.3 70.7 453.9 70.7 453.9 97 453.9 102.6 459.5 97 490.3 97 490.3 70.7"/><path class="cls-5" d="M463.1,80H481a.58.58,0,0,0,.6-.6v-.7a.58.58,0,0,0-.6-.6H463.1a.58.58,0,0,0-.6.6v.7A.65.65,0,0,0,463.1,80Z"/><path class="cls-5" d="M465,84h16.1a.58.58,0,0,0,.6-.6v-.7a.58.58,0,0,0-.6-.6H465a.58.58,0,0,0-.6.6v.7A.58.58,0,0,0,465,84Z"/><path class="cls-5" d="M469,88h12.1a.58.58,0,0,0,.6-.6v-.7a.58.58,0,0,0-.6-.6H469a.58.58,0,0,0-.6.6v.7A.65.65,0,0,0,469,88Z"/></g><g class="cls-2"><rect class="cls-20" x="283.9" y="210.6" width="28" height="85"/><path class="cls-21" d="M185.5,251.5H410.2a8.49,8.49,0,0,0,8.5-8.5V89.5a8.49,8.49,0,0,0-8.5-8.5H185.5a8.49,8.49,0,0,0-8.5,8.5V243A8.49,8.49,0,0,0,185.5,251.5Z"/><polygon class="cls-22" points="185.6 220.5 409.8 220.5 409.8 89.3 185.6 89.3 185.6 220.5"/><rect class="cls-23" x="234.9" y="292.4" width="125.9" height="6.4"/><rect class="cls-8" x="198.5" y="99.4" width="25.1" height="2.6"/><rect class="cls-8" x="230.6" y="118.7" width="18.1" height="2.6"/><rect class="cls-10" x="251.6" y="118.7" width="12" height="2.6"/><rect class="cls-10" x="276.1" y="196.5" width="12" height="2.6"/><rect class="cls-10" x="198.7" y="167.4" width="12" height="2.6"/><rect class="cls-8" x="266" y="118.7" width="29.1" height="2.6"/><rect class="cls-8" x="198.7" y="157.7" width="18.7" height="2.6"/><rect class="cls-8" x="248.9" y="177.1" width="18.7" height="2.6"/><rect class="cls-8" x="318.6" y="196.5" width="18.7" height="2.6"/><rect class="cls-8" x="224.8" y="177.1" width="11.4" height="2.6"/><rect class="cls-10" x="198.7" y="177.1" width="22.6" height="2.6"/><rect class="cls-8" x="198.7" y="186.8" width="12.4" height="2.6"/><rect class="cls-9" x="228.5" y="99.4" width="17.8" height="2.6"/><rect class="cls-10" x="228.5" y="128.4" width="17.8" height="2.6"/><rect class="cls-8" x="219.5" y="138.1" width="7.6" height="2.6"/><rect class="cls-9" x="211.9" y="147.9" width="17.1" height="2.6"/><rect class="cls-10" x="231.6" y="147.9" width="23.6" height="2.6"/><rect class="cls-10" x="306.4" y="186.8" width="23.6" height="2.6"/><rect class="cls-10" x="198.7" y="138.2" width="17.8" height="2.6"/><rect class="cls-10" x="198.7" y="147.9" width="10.6" height="2.6"/><rect class="cls-24" x="230.8" y="138.2" width="10" height="2.6"/><rect class="cls-24" x="199" y="196.5" width="10" height="2.6"/><rect class="cls-9" x="198.7" y="118.7" width="17.8" height="2.6"/><rect class="cls-9" x="214.4" y="167.4" width="17.8" height="2.6"/><rect class="cls-9" x="214.7" y="186.8" width="17.8" height="2.6"/><rect class="cls-9" x="246.3" y="186.8" width="17.8" height="2.6"/><rect class="cls-9" x="198.7" y="128.4" width="25.4" height="2.6"/><rect class="cls-9" x="317.8" y="99.4" width="17.8" height="2.6"/><rect class="cls-9" x="254.3" y="196.5" width="17.8" height="2.6"/><rect class="cls-9" x="341.1" y="99.4" width="11.9" height="2.6"/><rect class="cls-9" x="381.5" y="109.1" width="11.9" height="2.6"/><rect class="cls-10" x="251.1" y="99.4" width="22.7" height="2.6"/><rect class="cls-10" x="341.1" y="196.5" width="22.7" height="2.6"/><rect class="cls-10" x="212.8" y="196.5" width="22.7" height="2.6"/><rect class="cls-10" x="339.6" y="109.1" width="22.7" height="2.6"/><rect class="cls-10" x="311.7" y="118.7" width="22.7" height="2.6"/><rect class="cls-10" x="292" y="196.5" width="22.7" height="2.6"/><rect class="cls-10" x="288.5" y="177.1" width="22.7" height="2.6"/><rect class="cls-10" x="282.2" y="128.4" width="22.7" height="2.6"/><rect class="cls-24" x="239.7" y="177.1" width="4.9" height="2.6"/><rect class="cls-9" x="337.3" y="118.7" width="16.1" height="2.6"/><rect class="cls-24" x="290.6" y="99.4" width="22.7" height="2.6"/><rect class="cls-24" x="264.7" y="128.4" width="13.3" height="2.6"/><rect class="cls-24" x="254.3" y="167.6" width="13.3" height="2.6"/><rect class="cls-8" x="278" y="99.4" width="8.3" height="2.6"/><rect class="cls-8" x="251.1" y="128.4" width="8.3" height="2.6"/><rect class="cls-8" x="367.8" y="109.1" width="8.3" height="2.6"/><rect class="cls-10" x="198.5" y="109.1" width="13" height="2.6"/><rect class="cls-10" x="233.2" y="157.8" width="10.3" height="2.6"/><rect class="cls-10" x="214.7" y="109.1" width="4.2" height="2.6"/><rect class="cls-8" x="300.9" y="109.1" width="34.7" height="2.6"/><rect class="cls-8" x="267.6" y="186.8" width="34.7" height="2.6"/><rect class="cls-24" x="221.9" y="109.1" width="4.3" height="2.6"/><rect class="cls-10" x="286.3" y="109.1" width="11.4" height="2.6"/><rect class="cls-24" x="297.7" y="118.7" width="11.4" height="2.6"/><rect class="cls-24" x="272.3" y="177.1" width="11.4" height="2.6"/><rect class="cls-24" x="239.3" y="196.5" width="11.4" height="2.6"/><rect class="cls-10" x="259.1" y="109.1" width="24.2" height="2.6"/><rect class="cls-10" x="315.4" y="177.1" width="24.2" height="2.6"/><rect class="cls-10" x="236.7" y="167.6" width="14.1" height="2.6"/><rect class="cls-10" x="235.7" y="186.8" width="7.1" height="2.6"/><rect class="cls-9" x="247.4" y="109.1" width="8.3" height="2.6"/><rect class="cls-24" x="333.1" y="186.8" width="8.3" height="2.6"/><rect class="cls-24" x="219.4" y="118.7" width="8.3" height="2.6"/><rect class="cls-24" x="221.1" y="157.8" width="8.3" height="2.6"/><rect class="cls-10" x="229.7" y="109.1" width="14.5" height="2.6"/><path class="cls-25" d="M280,130.1a30.71,30.71,0,0,0,.9,4.5c.5,1.4,3.2,4.5,2.1,7.5-1.2,3.3-6.7.1-8.9-.9s-1.7-2.8-2-5-1.3-2.3-.9-3.8,2.8-4.6,2.8-4.6Z"/><path class="cls-6" d="M275.1,126.2l-1.4,2s6,3.7,6.4,2.5a16.5,16.5,0,0,0,.5-2.3Z"/><path class="cls-25" d="M254.9,132.3a22.9,22.9,0,0,0-3.4,4c-1.6,2.4-5.9,2.6-6.1,5.9s5.9,3.4,9.1,2.3,3.7-4.3,5.6-5.2,2.9-1.5,2.8-3.1a17.26,17.26,0,0,0-1.2-4.2,14.68,14.68,0,0,1-1.9.5A12,12,0,0,1,254.9,132.3Z"/><path class="cls-10" d="M276.7,42s-1.2,7.2-2.2,12h0a36.42,36.42,0,0,1-1,4,53.78,53.78,0,0,1-5.4,5.9c-4.9,5.1-11.4,11.4-11.4,11.4l-2.5-4.8s5.8-6.8,9.7-11.3c1.8-2.1,3.2-3.7,3.5-3.9.8-.7,1.8-7.9,3.1-13.9a23.55,23.55,0,0,1,4-9.2Z"/><path class="cls-6" d="M268.2,64c-4.9,5.1-11.4,11.4-11.4,11.4l-2.5-4.8s5.8-6.8,9.7-11.3A8.61,8.61,0,0,1,268.2,64Z"/><path class="cls-6" d="M255.2,130.1l-.3,2.2a10.94,10.94,0,0,0,6.6-.1l.1-2Z"/><path class="cls-10" d="M300,74.4c.2.6-33.4,0-33.4,0s9.3-6.8,9.9-8.6-2.4-12.6-2.8-16.2c-.3-2.8-1.1-15.4.8-17.4s8.9-4.1,8.9-4.1l10.2.4a22.67,22.67,0,0,1,2.9.9c1.2.6,8.1,3,9.2,6.5s-6.9,14.5-6.9,14.5v1.3h0c0,1.1-.1,2.7-.1,4.5-.1,2.3-.1,4.9-.1,6.7A62.79,62.79,0,0,0,300,74.4Z"/><path class="cls-26" d="M300,74.4s4.6,6.7,4.6,11.3-8.1,19.9-9.3,22.1c-3.7,6.6-13.9,20.8-13.9,20.8s-1.8,0-7.2-2.2c0,0,6.8-18.8,7.6-20.7,3.6-8.3,5.7-14.1,4.5-15.6s-4.6-2.8-5.5-3.7S263,89.6,261.2,90c-4.6,1.2-2.5,9.1-1.5,12.7,1.7,6,3.2,27.5,3.2,27.5s-3.3,1.4-8.7.2c0,0-10.7-38.9-11.1-42.8s-.5-10.2,25.9-15.1Z"/><path class="cls-6" d="M286.2,6s-8.9-2-6.8,9.2,4.2,12,9.5,9.7,4.9-9.4,5.1-13S289.1,6.2,286.2,6Z"/><path class="cls-6" d="M283.9,31.1s3.9,4.2,10.1.4c0,0-1.4-9-.7-13.4s-8.1,6.8-8.1,6.8a2,2,0,0,1,.2,1.1,12.13,12.13,0,0,1-.1,1.8C285.2,29.2,284.7,30.7,283.9,31.1Z"/><path class="cls-27" d="M293.6,17.7s-.2-3.5-1.5-3.6-1.5,1.3-1.5,1.3l-1.3.2s.4-3.1-.9-3.6-8.3,1.7-9.3.8-.5-7.1,1.3-8,7-2.8,10.8-.2c0,0,2.9-.3,3.4,2S294.4,15.9,293.6,17.7Z"/><path class="cls-19" d="M285.4,27.7c6.4-2,6.9-5.8,6.9-5.9-2.1,3.6-6.8,4.1-6.8,4.1A11.48,11.48,0,0,1,285.4,27.7Z"/><path class="cls-6" d="M296.6,29.5s-4.7,9.3-12.3,8.7-1.3-10-.9-10.1S291.2,26.3,296.6,29.5Z"/><path class="cls-10" d="M262.7,74s23.2,2.9,37.2.5l-26.8-3.4S273,71.8,262.7,74Z"/><path class="cls-6" d="M280.1,70l-1.7.9s.4,2.7,1.3,3.6l1.9-.5S281.2,71,280.1,70Z"/><path class="cls-10" d="M306.9,64.4c-.3.4-4.9,2.2-10.1,4.2h0c-7,2.7-15,5.3-15,5.3L280,70s8.3-4.5,13.9-7.7c2.6-1.5,4.7-2.7,5-3,.9-.9,1.1-2.2.5-4.6S297.2,41.2,297,40s.4-4.7,3.7-4.9a9.9,9.9,0,0,1,4.9.7s.8.3,1.4,8.2S307.7,63.5,306.9,64.4Z"/><path class="cls-28" d="M298.8,51.8h0c0,1.1-.1,2.7-.1,4.5a23.42,23.42,0,0,1-1.3-14C297.1,44.4,298.8,51.6,298.8,51.8Z"/><path class="cls-28" d="M274.5,54.1h0a36.42,36.42,0,0,1-1,4c-1.1-5.2-.1-11.9-.1-11.9A79.37,79.37,0,0,0,274.5,54.1Z"/><path class="cls-6" d="M296.9,68.6h0c-7,2.7-15.2,5.4-15.2,5.4l-1.5-4s8.3-4.5,13.9-7.7C294,62.3,296,63.3,296.9,68.6Z"/><polygon class="cls-29" points="279.6 74.2 246.6 73.7 263.3 82.2 279.6 74.2"/><polygon class="cls-30" points="263.3 82.2 279.6 75.9 279.6 74.2 262 80.6 263.3 82.2"/><path class="cls-6" d="M278.7,71a32.76,32.76,0,0,1-3.5-.7c-1.1-.3-3.8.1-4.5.8s-2.9,5.6-3.3,5.9.2,1,1,.6c0,0,.7,2.2,2.3,1.4s2.8-2.6,3.7-2.9,6-1.9,6-1.9S280,70.4,278.7,71Z"/><path class="cls-6" d="M271.2,70.8a15.25,15.25,0,0,0-1.7.9c-.3.3-1.7,1.3-2.1,1.6s.5.9,3-.1S271.2,70.8,271.2,70.8Z"/><polygon class="cls-30" points="263.3 82.2 253.5 55.4 221.9 55.9 231.2 80.6 263.3 82.2"/><path class="cls-15" d="M243.3,67.3c1,1.9.7,4-.7,4.7s-3.2-.4-4.1-2.3-.7-4,.7-4.7S242.4,65.3,243.3,67.3Z"/><path class="cls-6" d="M290.6,13.9c.1-1,2.1-1.3,2.2.1s-.9,4.1-1.6,3.8S290.5,15.2,290.6,13.9Z"/><path class="cls-31" d="M289.9,236.5a7.8,7.8,0,1,0,7.8-7.8A7.68,7.68,0,0,0,289.9,236.5Z"/></g><g class="cls-2"><path class="cls-6" d="M400.9,186.9s-2.4,1.1-3.6.6a10.22,10.22,0,0,0-3.5-.6c-.7,0-3.1-.8-3,.1s3.8,1.5,4.6,1.8-2.3,2-2.6,2.7,3.2,5.7,5.1,4.3,3-4.2,3.4-4.4,1.5-1,1.5-1Z"/><path class="cls-6" d="M393.2,191.1s-5.7,4.7-5.7,5.3.2.9.8.5,5.6-4.4,5.6-4.4-5.7,6.7-5.8,7.2c-.1.3.4.9.7.7s6.3-6.5,6.3-6.5-5.3,6.3-5.3,6.7.6.9,1,.4,5.7-6,5.7-6-3.5,4.8-3.3,5.2.6.8,1.4-.5,3.3-4,3.3-4Z"/><path class="cls-32" d="M439.9,288.5s.2,7.7-.9,8.1-5.2-2.2-7.1-4.9,2.3-8.8,3-12.2c.3-1.4,3.5-4,5.1-3.2a7,7,0,0,1,2.7,2.6S438.7,281.7,439.9,288.5Z"/><path class="cls-33" d="M442.7,279a36.47,36.47,0,0,0-2.1,4.7c-.7,2-.8,7.7-1.3,8.1s-3.9-1.4-4.4-3.5.9-6.3,2.3-8.5a12.68,12.68,0,0,1,2.7-3.3S442.3,276.9,442.7,279Z"/><polygon class="cls-32" points="434.9 279.6 431.2 285.1 431.9 285.6 434.8 281.4 434.9 279.6"/><path class="cls-33" d="M456.1,229.7s-2.1,11.3-2.1,14a23.88,23.88,0,0,1-2.5,10.4c-1.7,3.3-9.3,25.7-9.9,28.3s-1.2,5.1-1.2,5.1-3.8-1.7-3.8-4.2,3.3-22.8,3.8-26.8,5.3-24.6,5.3-24.6Z"/><path class="cls-6" d="M444.1,228.9s.7,9.4.7,11.9-1.2,8-1.2,9.5,0,32,1.2,35.7-3.4,1.2-3.4,1.2-8.1-20.1-8.1-28.5,1-12.6.4-17.9-4.2-12.4-4.2-12.4Z"/><path class="cls-6" d="M445.4,105.6s7.5,7.6,5,17.4-6.7,9.8-11.2,5.6-7.2-8.6-7.8-13.5S438.5,98.8,445.4,105.6Z"/><path class="cls-6" d="M446.9,138.2a53.51,53.51,0,0,1-1.9-5.4c-.1-.5-.3-1-.4-1.5a9.82,9.82,0,0,1-.1-4.8c1.2-3.6-7.5-1.1-7.5-1.1s1.7,9.4,0,12.6C435.2,141,446.9,138.2,446.9,138.2Z"/><path class="cls-34" d="M431.8,183.6s-5.4,8-6.6,15.1,1,17.7,1.9,21.6c.8,3.4,2,14,2,15.1,0,0,17,4.4,28.2.9,0,0,1.7-17.5,2.4-24s-3.9-28.3-3.9-28.3Z"/><path class="cls-35" d="M399.4,187.3l3.1,3.5S420.8,176,421.6,174s7-13,7.3-14.2c0,0,1.2,3.1,2.2,6,.4,1.2.9,3.5,1.2,4.5a30.14,30.14,0,0,1-.3,13.3s14.8,5.5,24,.5c0,0-1-8,.5-13.2s9.2-23.3,9.2-23.3-4.1-7.6-8.4-9.1-9.1-2.6-9.1-2.6H438.1s-6.6,1.7-8.1,2.2c-2.7.8-5.1,4.2-5.6,7.2s-7.4,23.7-8.3,24.3S399.4,187.3,399.4,187.3Z"/><path class="cls-6" d="M459.2,177.5s-6.6.3-7.6,0-7.8-3.2-8.2-6.1,15.8,2.6,15.8,2.6v3.5Z"/><path class="cls-36" d="M448.6,295.3s5.1,5.9,4.5,7-5.5,1.6-8.7.7-3.8-8.4-5.4-11.5c-.7-1.3.2-5.4,1.9-5.8a8.24,8.24,0,0,1,3.8.3S443.3,290.7,448.6,295.3Z"/><path class="cls-6" d="M444.7,286s.6,2.9,1.3,5,4.2,6.6,4.1,7.2-4,1.4-5.7.1-3.3-5.6-3.6-8.2a27.43,27.43,0,0,1-.2-4.3S443.1,284.5,444.7,286Z"/><polygon class="cls-36" points="439 291.5 439.5 298.2 440.4 298.1 440 292.9 439 291.5"/><polygon class="cls-37" points="438.9 168.4 465.5 165.3 453.5 175 438.9 168.4"/><path class="cls-35" d="M458.4,173.7s.3,3.4,0,4.1c0,0,16.4-1.6,17.9-3.9a10.48,10.48,0,0,0,1.5-5.1Z"/><path class="cls-38" d="M442.9,111s-3.6,6.6-5.8,8.9-2,4.2-2,4.2-8.7-10.8-2.5-17.3,14.3-3.9,16.6,1.8,1.5,12.6,1.5,12.6S450.6,114.6,442.9,111Z"/><path class="cls-38" d="M440.6,104.2s.9-4.8-6.6-6.7-10.9,6.8-10,12,7.4,18.7,3.9,20.4-4.9-2-4.9-2,1.1,6.6,5.9,5.1,4.2-12.2,3.5-16.5S440.6,104.2,440.6,104.2Z"/><path class="cls-35" d="M448,136a10.15,10.15,0,0,1-.6-2.5s-9.5-.6-11.9-.2c0,0-.2,2.7-.2,3.3S446.3,139,448,136Z"/><polygon class="cls-4" points="453.5 175 438.9 170.1 438.9 168.4 454 173.2 453.5 175"/><polygon class="cls-4" points="453.5 175 461.2 146.2 490.7 143.1 482.6 169.6 453.5 175"/><path class="cls-19" d="M438.1,127.6a9,9,0,0,0,6.8,5.1c-.1-.5-.3-1-.4-1.5C444.6,131.2,441.9,131.7,438.1,127.6Z"/><path class="cls-39" d="M428.8,159.8s1.2,3.1,2.2,6a50.93,50.93,0,0,0-.4-15A31.29,31.29,0,0,1,428.8,159.8Z"/><path class="cls-35" d="M439.4,103.2s-5.3,1-8,5.4c0,0,.5-3.9,3.2-5.1A6.37,6.37,0,0,1,439.4,103.2Z"/></g></g></g></g></svg>