<?xml version="1.0" encoding="utf-8"?>
<!-- Generator: Adobe Illustrator 26.0.2, SVG Export Plug-In . SVG Version: 6.00 Build 0)  -->
<svg version="1.1" id="Background" xmlns="http://www.w3.org/2000/svg" xmlns:xlink="http://www.w3.org/1999/xlink" x="0px" y="0px"
	 viewBox="0 0 1245 300" style="enable-background:new 0 0 1245 300;" xml:space="preserve">
<style type="text/css">
	.st0{clip-path:url(#SVGID_00000085933253242752803360000000542007840990270623_);fill:#7DD7FF;}
	
		.st1{opacity:0.5;clip-path:url(#SVGID_00000085933253242752803360000000542007840990270623_);fill:#A6EAFF;enable-background:new    ;}
	.st2{clip-path:url(#SVGID_00000085933253242752803360000000542007840990270623_);}
	.st3{fill:#D9DADB;}
	.st4{fill:#FFFFFF;}
	.st5{fill:#D1D3D3;}
	.st6{fill:#EE4E26;}
	.st7{fill:#ED4626;}
	.st8{fill:#FFD633;}
	.st9{fill:#FFDF33;}
	.st10{opacity:0.2;}
	.st11{fill:#3E434F;}
	.st12{fill:#393E49;}
	.st13{fill:#FDC935;}
	.st14{fill:#343843;}
	.st15{fill:#30353F;}
	.st16{opacity:0.9;}
	.st17{fill:#F7DC8C;}
	.st18{fill:#F7DE8D;}
	.st19{fill:#F7A236;}
	.st20{opacity:0.1;}
	.st21{fill:#EEA886;}
	.st22{fill:#CF8C6C;}
	.st23{fill:#DB9C7C;}
	.st24{fill:#323657;}
	.st25{fill:#464C7A;}
	.st26{fill:#404670;}
	.st27{fill:#155C94;}
	.st28{fill:#252840;}
	.st29{fill:#EFAA88;}
	.st30{fill:#E55353;}
	.st31{fill:#FFC05C;}
	.st32{fill:#EEA987;}
	.st33{fill:#D88A51;}
	.st34{fill:#A77860;}
	.st35{fill:#6E82DB;}
	.st36{fill:#FFD069;}
	.st37{fill:#E8B851;}
	.st38{fill:#163342;}
	.st39{fill:#5E5F70;}
	.st40{fill:#1D3B54;}
	.st41{fill:#292C47;}
	.st42{fill:#FFA15B;}
	.st43{fill:#D6C5BE;}
	.st44{fill:#FAE6DE;}
	.st45{fill:#D43737;}
	.st46{fill:#EDDAD3;}
	.st47{fill:#67B742;}
	.st48{fill:#398440;}
	.st49{fill:#A6EF8B;}
	.st50{fill:none;stroke:#155C94;stroke-width:4;stroke-miterlimit:10;}
</style>
<g>
	<defs>
		<rect id="SVGID_1_" y="0" width="1245" height="300"/>
	</defs>
	<clipPath id="SVGID_00000138548646724405909830000001636171568597825966_">
		<use xlink:href="#SVGID_1_"  style="overflow:visible;"/>
	</clipPath>
	<path style="clip-path:url(#SVGID_00000138548646724405909830000001636171568597825966_);fill:#7DD7FF;" d="M-45.4,260.6
		c0,0,30.5-217.7,220.5-215.2c190,2.4,355.4,73.4,407.5,107.6s456.5-117.5,531.6-114.4c75.1,3.1,148.6,87.3,148.6,87.3v178.5H-53.2
		L-45.4,260.6z"/>
	
		<path style="opacity:0.5;clip-path:url(#SVGID_00000138548646724405909830000001636171568597825966_);fill:#A6EAFF;enable-background:new    ;" d="
		M-85.2,208.7c0,0,166.9-90.4,332.3-76.6s254.3-66.5,396.8-67.7c142.5-1.2,649.5,123.3,652.6,127.7s0,112.5,0,112.5H-85.2
		L-85.2,208.7z"/>
	<g style="clip-path:url(#SVGID_00000138548646724405909830000001636171568597825966_);">
		<g>
			<g>
				<path class="st3" d="M1209.6,249.2c0,0-10-1-10-8.2h19.3C1218.9,241,1219.4,249.2,1209.6,249.2z"/>
				<path class="st4" d="M1209.6,249.2c0,0-96.6,0-107.8,0c-11.2,0-10.7-8.2-10.7-8.2h108.6C1199.7,248.3,1209.6,249.2,1209.6,249.2
					z"/>
			</g>
			<rect x="1090.8" y="85.1" class="st4" width="108.6" height="156"/>
			<g>
				<path class="st3" d="M1081,76.9c0,0,10,1,10,8.2h-19.3C1071.7,85.1,1071.2,76.9,1081,76.9z"/>
				<path class="st4" d="M1081,76.9c0,0,96.6,0,107.8,0c11.2,0,10.7,8.2,10.7,8.2H1091C1091,77.9,1081,76.9,1081,76.9z"/>
			</g>
			<g>
				<g>
					<g>
						<path class="st5" d="M1108.2,96.1h-10.1c-0.5,0-1-0.4-1-1c0-0.5,0.4-1,1-1h10.1c0.5,0,1,0.4,1,1
							C1109.1,95.6,1108.7,96.1,1108.2,96.1z"/>
					</g>
					<g>
						<path class="st5" d="M1125.1,96.1h-11.3c-0.5,0-1-0.4-1-1c0-0.5,0.4-1,1-1h11.3c0.5,0,1,0.4,1,1
							C1126,95.6,1125.6,96.1,1125.1,96.1z"/>
					</g>
					<g>
						<path class="st5" d="M1136.7,104h-38.6c-0.5,0-1-0.4-1-1c0-0.5,0.4-1,1-1h38.6c0.5,0,1,0.4,1,1
							C1137.7,103.6,1137.2,104,1136.7,104z"/>
					</g>
					<g>
						<path class="st5" d="M1117.4,112.4h-19.3c-0.5,0-1-0.4-1-1c0-0.5,0.4-1,1-1h19.3c0.5,0,1,0.4,1,1
							C1118.4,112,1117.9,112.4,1117.4,112.4z"/>
					</g>
					<g>
						<path class="st5" d="M1129,112.4h-5.8c-0.5,0-1-0.4-1-1c0-0.5,0.4-1,1-1h5.8c0.5,0,1,0.4,1,1
							C1130,112,1129.6,112.4,1129,112.4z"/>
					</g>
					<g>
						<path class="st5" d="M1138,127.2h-31.8c-0.5,0-1-0.4-1-1c0-0.5,0.4-1,1-1h31.8c0.5,0,1,0.4,1,1
							C1139,126.8,1138.5,127.2,1138,127.2z"/>
					</g>
					<g>
						<path class="st5" d="M1185,127.2h-41.8c-0.5,0-1-0.4-1-1c0-0.5,0.4-1,1-1h41.8c0.5,0,1,0.4,1,1
							C1186,126.8,1185.5,127.2,1185,127.2z"/>
					</g>
					<g>
						<path class="st5" d="M1158.6,138.6h-60.5c-0.5,0-1-0.4-1-1c0-0.5,0.4-1,1-1h60.5c0.5,0,1,0.4,1,1
							C1159.6,138.1,1159.1,138.6,1158.6,138.6z"/>
					</g>
					<g>
						<path class="st5" d="M1192.1,138.6h-28c-0.5,0-1-0.4-1-1c0-0.5,0.4-1,1-1h28c0.5,0,1,0.4,1,1
							C1193.1,138.1,1192.6,138.6,1192.1,138.6z"/>
					</g>
					<g>
						<path class="st5" d="M1120.9,151.2h-22.7c-0.5,0-1-0.4-1-1c0-0.5,0.4-1,1-1h22.7c0.5,0,1,0.4,1,1
							C1121.8,150.8,1121.4,151.2,1120.9,151.2z"/>
					</g>
					<g>
						<path class="st5" d="M1169.9,151.2h-42.8c-0.5,0-1-0.4-1-1c0-0.5,0.4-1,1-1h42.8c0.5,0,1,0.4,1,1
							C1170.9,150.8,1170.5,151.2,1169.9,151.2z"/>
					</g>
					<g>
						<path class="st5" d="M1183.4,151.2h-8.2c-0.5,0-1-0.4-1-1c0-0.5,0.4-1,1-1h8.2c0.5,0,1,0.4,1,1
							C1184.4,150.8,1183.9,151.2,1183.4,151.2z"/>
					</g>
					<g>
						<path class="st5" d="M1103.2,163.9h-5c-0.5,0-1-0.4-1-1c0-0.5,0.4-1,1-1h5c0.5,0,1,0.4,1,1
							C1104.1,163.5,1103.7,163.9,1103.2,163.9z"/>
					</g>
					<g>
						<path class="st5" d="M1159.6,163.9h-50.2c-0.5,0-1-0.4-1-1c0-0.5,0.4-1,1-1h50.2c0.5,0,1,0.4,1,1
							C1160.6,163.5,1160.2,163.9,1159.6,163.9z"/>
					</g>
					<g>
						<path class="st5" d="M1192.1,163.9h-26.4c-0.5,0-1-0.4-1-1c0-0.5,0.4-1,1-1h26.4c0.5,0,1,0.4,1,1
							C1193.1,163.5,1192.6,163.9,1192.1,163.9z"/>
					</g>
					<g>
						<path class="st5" d="M1119.4,178.4h-13.2c-0.5,0-1-0.4-1-1c0-0.5,0.4-1,1-1h13.2c0.5,0,1,0.4,1,1
							C1120.4,178,1119.9,178.4,1119.4,178.4z"/>
					</g>
					<g>
						<path class="st5" d="M1185,178.4h-59.9c-0.5,0-1-0.4-1-1c0-0.5,0.4-1,1-1h59.9c0.5,0,1,0.4,1,1
							C1186,178,1185.5,178.4,1185,178.4z"/>
					</g>
					<g>
						<path class="st5" d="M1107.8,190.3h-9.6c-0.5,0-1-0.4-1-1c0-0.5,0.4-1,1-1h9.6c0.5,0,1,0.4,1,1
							C1108.7,189.9,1108.3,190.3,1107.8,190.3z"/>
					</g>
					<g>
						<path class="st5" d="M1151.5,190.3h-38.7c-0.5,0-1-0.4-1-1c0-0.5,0.4-1,1-1h38.7c0.5,0,1,0.4,1,1
							C1152.4,189.9,1152,190.3,1151.5,190.3z"/>
					</g>
					<g>
						<path class="st5" d="M1191.1,190.3h-32.5c-0.5,0-1-0.4-1-1c0-0.5,0.4-1,1-1h32.5c0.5,0,1,0.4,1,1
							C1192,189.9,1191.6,190.3,1191.1,190.3z"/>
					</g>
					<g>
						<path class="st5" d="M1173.1,203.7h-75c-0.5,0-1-0.4-1-1c0-0.5,0.4-1,1-1h75c0.5,0,1,0.4,1,1
							C1174.1,203.3,1173.6,203.7,1173.1,203.7z"/>
					</g>
					<g>
						<path class="st5" d="M1191.1,203.7h-12.1c-0.5,0-1-0.4-1-1c0-0.5,0.4-1,1-1h12.1c0.5,0,1,0.4,1,1
							C1192,203.3,1191.6,203.7,1191.1,203.7z"/>
					</g>
					<g>
						<path class="st5" d="M1115,217.7h-16.9c-0.5,0-1-0.4-1-1c0-0.5,0.4-1,1-1h16.9c0.5,0,1,0.4,1,1
							C1116,217.3,1115.6,217.7,1115,217.7z"/>
					</g>
					<g>
						<path class="st5" d="M1191.1,217.7h-70.2c-0.5,0-1-0.4-1-1c0-0.5,0.4-1,1-1h70.2c0.5,0,1,0.4,1,1
							C1192,217.3,1191.6,217.7,1191.1,217.7z"/>
					</g>
					<g>
						<path class="st5" d="M1149.9,230.9h-51.8c-0.5,0-1-0.4-1-1c0-0.5,0.4-1,1-1h51.8c0.5,0,1,0.4,1,1
							C1150.8,230.5,1150.4,230.9,1149.9,230.9z"/>
					</g>
					<g>
						<path class="st5" d="M1165.7,230.9h-8.4c-0.5,0-1-0.4-1-1c0-0.5,0.4-1,1-1h8.4c0.5,0,1,0.4,1,1
							C1166.7,230.5,1166.3,230.9,1165.7,230.9z"/>
					</g>
				</g>
			</g>
		</g>
		<g>
			<g>
				<polygon class="st6" points="1176.9,256.1 1176.9,256.1 1183.5,233.8 1175.2,231.3 1168.6,253.6 1166.7,259.9 1172,257.2 
					1175,262.4 				"/>
				<g>
					<polygon class="st7" points="1176.8,231.8 1175.2,231.3 1168.6,253.6 1166.7,259.9 1168.8,258.8 1170.3,253.7 					"/>
				</g>
			</g>
			<g>
				<polygon class="st6" points="1187.2,256.1 1187.2,256.1 1180.6,233.8 1189,231.3 1195.6,253.6 1197.5,259.9 1192.1,257.2 
					1189.1,262.4 				"/>
				<g>
					<polygon class="st7" points="1187.3,231.8 1189,231.3 1195.6,253.6 1197.5,259.9 1195.4,258.8 1193.8,253.7 					"/>
				</g>
			</g>
			<g>
				<g>
					<path class="st8" d="M1196,223.6c0,7.7-6.2,14-14,14c-7.7,0-14-6.2-14-14s6.3-14,14-14C1189.8,209.7,1196,215.9,1196,223.6z"/>
					<path class="st9" d="M1193.9,223.6c0,6.5-5.3,11.8-11.8,11.8c-6.5,0-11.8-5.3-11.8-11.8c0-6.5,5.3-11.8,11.8-11.8
						C1188.6,211.8,1193.9,217.1,1193.9,223.6z"/>
				</g>
				<g class="st10">
					<path class="st4" d="M1170.3,223.6c0-6.5,5.3-11.8,11.8-11.8c3.3,0,6.4,1.4,8.5,3.6c0.7-0.3,1.5-0.5,2.2-0.7
						c-2.6-3.1-6.4-5-10.7-5c-7.7,0-14,6.2-14,14c0,2.8,0.8,5.4,2.3,7.6c0.4-0.7,0.9-1.3,1.3-2
						C1170.8,227.6,1170.3,225.7,1170.3,223.6z"/>
					<path class="st4" d="M1182.1,211.8c-6.5,0-11.8,5.3-11.8,11.8c0,2,0.5,3.9,1.4,5.6c4.3-6.1,10.9-10.9,18.9-13.8
						C1188.4,213.2,1185.4,211.8,1182.1,211.8z"/>
				</g>
			</g>
		</g>
	</g>
	<g style="clip-path:url(#SVGID_00000138548646724405909830000001636171568597825966_);">
		<g>
			<path class="st8" d="M1003.1,138c-13,0-23.2-4.2-30.2-12.6c-15-17.7-10.1-47.4-9.9-48.7l0.6-3.5h39.5v8.4h-32.2
				c-0.7,7.8-1.3,26.8,8.5,38.4c5.4,6.4,13.4,9.6,23.8,9.6V138z"/>
		</g>
		<g>
			<path class="st8" d="M1090.7,138c13,0,23.2-4.2,30.2-12.6c15-17.7,10.1-47.4,9.9-48.7l-0.6-3.5h-39.5v8.4h32.2
				c0.7,7.8,1.3,26.8-8.5,38.4c-5.4,6.4-13.4,9.6-23.8,9.6V138z"/>
		</g>
		<path class="st8" d="M997.8,64.5v63.1c0,21,12.8,39,31,46.7c0,0.1,0,0.2,0,0.3v1c0,3.3,2.7,6,6,6h27.3c3.3,0,6-2.7,6-6v-1
			c0-0.1,0-0.2,0-0.3c18.2-7.7,31-25.7,31-46.7V64.5H997.8z"/>
		<path class="st11" d="M997.2,292.3c0,2.7,2.2,4.8,4.8,4.8h92.4c2.7,0,4.8-2.2,4.8-4.8v-55.8c0-2.6-2.2-4.8-4.8-4.8H1002
			c-2.7,0-4.8,2.2-4.8,4.8V292.3z"/>
		<path class="st12" d="M992.2,297.7c0,1.3,1.1,2.4,2.4,2.4h107.1c1.3,0,2.4-1.1,2.4-2.4v-5c0-1.3-1.1-2.4-2.4-2.4H994.6
			c-1.3,0-2.4,1.1-2.4,2.4V297.7z"/>
		<rect x="1039" y="181.5" class="st8" width="19" height="43.6"/>
		<polygon class="st8" points="1062.1,225.1 1034.7,225.1 1032.2,231.8 1064.8,231.8 		"/>
		<path class="st13" d="M1011.7,278.2c0,1.3,1.1,2.4,2.4,2.4h66.9c1.3,0,2.4-1.1,2.4-2.4v-29c0-1.3-1.1-2.4-2.4-2.4h-66.9
			c-1.3,0-2.4,1.1-2.4,2.4V278.2z"/>
		<g>
			<path class="st14" d="M1007.1,290.2v-53.7c0-2.6,2.1-4.8,4.8-4.8h-9.9c-2.7,0-4.8,2.2-4.8,4.8v53.7h7.3H1007.1z"/>
			<path class="st15" d="M1002.1,297.6v-5c0-1.3,1.1-2.4,2.4-2.4h-7.3h-2.5c-1.3,0-2.4,1.1-2.4,2.4v5c0,1.3,1.1,2.4,2.4,2.4h9.9
				C1003.2,300,1002.1,298.9,1002.1,297.6z"/>
		</g>
		<g class="st16">
			<path class="st13" d="M1048.6,181.4l-4.1,0c-3.3,0-6-2.7-6-6l0-1c0-0.1,0-0.2,0-0.3c-18.2-7.6-31-25.6-31.1-46.6l-0.1-63.1
				l-9.5,0l0.1,63.1c0,21,12.8,39,31.1,46.6c0,0.1,0,0.2,0,0.3l0,1c0,3.3,2.7,6,6,6l4.1,0L1048.6,181.4L1048.6,181.4z"/>
			<polygon class="st13" points="1044.4,225 1048.7,225 1048.6,181.4 1039.1,181.4 1039.2,225 1044.4,225 			"/>
			<polygon class="st13" points="1039.2,225 1034.9,225 1032.4,231.7 1041.9,231.7 1044.4,225 			"/>
			<line class="st17" x1="1048.6" y1="181.4" x2="1048.6" y2="181.4"/>
			<polyline class="st18" points="1048.7,225 1044.4,225 1044.4,225 			"/>
			<line class="st18" x1="1044.4" y1="225" x2="1041.9" y2="231.7"/>
		</g>
		<g>
			<path class="st8" d="M988.7,63.5c0,1.3,1.1,2.4,2.4,2.4h114.7c1.3,0,2.4-1.1,2.4-2.4v-8.1c0-1.3-1.1-2.4-2.4-2.4H991.1
				c-1.3,0-2.4,1.1-2.4,2.4V63.5z"/>
			<rect x="997.8" y="65.9" class="st13" width="101.3" height="3.7"/>
		</g>
		<path class="st19" d="M1017.8,251.3c0,1-0.8,1.8-1.8,1.8c-1,0-1.8-0.8-1.8-1.8c0-1,0.8-1.8,1.8-1.8
			C1017,249.5,1017.8,250.3,1017.8,251.3z"/>
		<path class="st19" d="M1017.8,276.6c0,1-0.8,1.8-1.8,1.8c-1,0-1.8-0.8-1.8-1.8c0-1,0.8-1.8,1.8-1.8
			C1017,274.8,1017.8,275.6,1017.8,276.6z"/>
		<path class="st19" d="M1080.5,276.6c0,1-0.8,1.8-1.8,1.8c-1,0-1.8-0.8-1.8-1.8c0-1,0.8-1.8,1.8-1.8
			C1079.7,274.8,1080.5,275.6,1080.5,276.6z"/>
		<path class="st19" d="M1080.5,251.3c0,1-0.8,1.8-1.8,1.8c-1,0-1.8-0.8-1.8-1.8c0-1,0.8-1.8,1.8-1.8
			C1079.7,249.5,1080.5,250.3,1080.5,251.3z"/>
		<g class="st20">
			<path class="st4" d="M1083.4,253.6v-4.5c0-1.3-1.1-2.4-2.4-2.4h-66.9c-1.3,0-2.4,1.1-2.4,2.4V276
				C1025,258.8,1052.7,250,1083.4,253.6z"/>
		</g>
	</g>
	<g style="clip-path:url(#SVGID_00000138548646724405909830000001636171568597825966_);">
		<path class="st21" d="M307.2,161.4c0,0-2-0.3-3.1,0.1c-1.1,0.4,1.2-5.9,1.2-5.9L307.2,161.4z"/>
		<g>
			<path class="st21" d="M305.3,155.6c0,0,2.5-3.1,2.9-3.6c0.4-0.5,2-0.9,4-1.3c1.9-0.4,4.7,0,5,0.3c0.2,0.2,0.6,0.4,0.7,1.2
				c0.1,0.9-0.2,1.7-0.2,1.7s0.7,1,0.2,1.9c0,0,0.6,1-0.2,1.9c0,0,0.5,0.9-0.1,1.6c0,0-1.7,0.5-2.2,0.8c-0.6,0.3-4.1,1.1-7.5,1.2
				C307.9,161.4,304,161.8,305.3,155.6z"/>
		</g>
		<g>
			<path class="st22" d="M311.2,155.4c0,0-0.4,2-0.8,2.5c-0.4,0.5,3.5,2.2,3.5,2.2S313.6,156,311.2,155.4z"/>
		</g>
		<g>
			<path class="st23" d="M316.7,151.1c0,0-4.9,1-4.8,1.8c0.1,0.8,0.6,1.1,0.6,1.1l-1.8,1.3c0,0-0.7,1.6,1.2,1.9c0,0-0.8,1.4,1.1,1.5
				c0,0-0.1,1.2,0.7,1.4c0.9,0.2,4-0.6,4-0.6s0.6-0.5,0.1-1.6c0,0,0.8-0.9,0.2-1.9c0,0,0.5-0.8-0.2-1.9c0,0,1-1.9-0.5-2.9
				C317.2,151,316.9,151,316.7,151.1z"/>
		</g>
		<g>
			<path class="st21" d="M311.8,152.8c0,0,0-4.7-0.6-6.7c-0.1-0.4-0.1-0.6-0.6-0.7c-0.5,0-0.9,1.7-1.2,3.1c-0.3,1.5-1.3,3.4-1.3,3.4
				S308.4,153.5,311.8,152.8z"/>
		</g>
		<g>
			<g>
				<path class="st24" d="M309.3,161.6c0,0-24.3,7-28.4,6c-1.9-0.5-8-4.4-10.3-7.5c-0.8-1-1.5-2-2.2-3.1c0,0,0,0,0,0
					c-2.9-4.1-5.1-8.1-5.1-8.1s-8.5-9.9-1.7-14.4c0,0,2.1-0.3,3.4,0c4.2,1.2,7.6,9.7,8.2,11c0.6,1.3,6.9,12.9,7.3,13.1
					c0.4,0.3,4.4,0.6,7.4-0.1c4.3-1,17.8-4.6,17.8-4.6L309.3,161.6z"/>
			</g>
		</g>
		<g>
			<g>
				<path class="st25" d="M241.1,291.6c0,0-1.5,2.8-2.5,3.9c-1,1.1-4.7,3.1-4.7,6.4c0,3.6,6.3,2.6,8.8,2.4c2.5-0.1,2.7-2,3.7-4.1
					c1-2,2.1-1.7,2.3-3.3c0.2-1.6-1-5.4-1-5.4H241.1z"/>
			</g>
		</g>
		<g>
			<g>
				<path class="st25" d="M278.8,291.3c0,0,3.1,3.4,6.2,4.1c3.1,0.7,5.3,1.6,5.3,3.6c0,2-8.9,3.2-12.5,1.3c-5.3-2.9-5.8-2.1-6.4-3.5
					c-0.6-1.5,0.7-5.4,0.7-5.9C272,290.3,278.8,291.3,278.8,291.3z"/>
			</g>
		</g>
		<g>
			<g>
				<path class="st26" d="M278.5,289.6c0,0,0.4,1.6,0.3,1.6c-0.1,0-7,0.9-6.8-0.4c0.2-1,0.4-2.2,0.4-2.2L278.5,289.6z"/>
			</g>
		</g>
		<g>
			<g>
				<path class="st26" d="M247.6,290.5c0,0,0.3,1.5,0.2,1.6c-0.1,0-7,1.3-7,0c0-1,0.6-2.2,0.6-2.2L247.6,290.5z"/>
			</g>
		</g>
		<g>
			<g>
				<path class="st27" d="M272.2,194c0,0,2.5,24.5,3.8,32.8c1.5,9.8,2.1,17.9,2.5,22.9c0.5,6.4,0.6,37.7,1,39.6
					c0.4,1.9-8.3,0.5-8.3,0.5s-4.3-41-5.9-47.8c-1.5-6.3-7-33.5-8.4-31.8c-1.4,1.7-3,31.8-4.1,36.7c-1,5-4.1,44-4.1,44
					s-6.9,1.4-8.8-0.2c0,0-0.8-33.6-0.2-43c0.2-3.6-4.2-42.7,1.5-58.5C244.3,181.2,272.2,194,272.2,194z"/>
			</g>
		</g>
		<g>
			<g>
				<path class="st28" d="M271.8,189.9l0.5,4.5c0,0-9.4,4.4-33.6,7l-0.1-4.1L271.8,189.9z"/>
			</g>
		</g>
		<g>
			<g>
				<path class="st24" d="M254.4,133.5c0,0,3,0.4,9.9,0.9c1.2,0.8,5.1,10.8,5.4,13.4c0.4,2.6,0.6,12.9-0.1,17.1
					c-0.7,4.2,4.4,22.8,2.6,25.9c0,0-17.1,7.1-34.3,6.7c0,0,0.2-17-1.1-22.6c-1.6-7.1-5.5-23.4-5.5-23.4s-1.4-12.8,0.4-13.7
					c4-2.1,13.8-3.7,13.8-3.7L254.4,133.5z"/>
			</g>
		</g>
		<g>
			<g>
				<path class="st29" d="M233.9,204c0,0-0.5-0.8-0.5-1.2c0,0,0-0.8-0.1-1.4c0-0.2,0-0.3-0.1-0.4c-0.1-0.4-0.4-1.3-0.4-2.3
					c0-1.1,0.6-4.8,0.6-4.8l3.2-0.1l2.7-0.9c0,0,3.1,5.6,3.2,6.6c0,0.1,0,0.2,0,0.3c0,0.8-0.4,1.5-0.5,1.9c0,0.2-0.4,1.8-0.8,2
					c-0.6,0.3-1.1,0.3-1.5,0.1c0,0-1.2,0.6-2.1,0.3c0,0-1.1,0.5-2.1,0C235.6,204.1,234.4,204.5,233.9,204z"/>
			</g>
		</g>
		<g>
			<g>
				<path class="st24" d="M235.8,137.1c1.1,0.2,2.7,2.6,2.8,7.8c0.1,5.6-1.3,8.2-1.8,9.6c-0.5,1.4-3.4,10.7-3.2,11.9
					c0.6,3.3,2.1,11.9,2.3,12.5c0.4,1.1,3.4,13.9,3.4,13.9l-6.6,2.9c0,0-4-14.4-5.4-18.7c-0.6-1.7-2-6.5-2.2-11.5
					c-0.3-4.8,1.3-15.7,1.6-16.6C227.1,148.2,228.2,135.7,235.8,137.1z"/>
			</g>
		</g>
		<g>
			<path class="st30" d="M259.3,148.8l-0.8,0c-0.4,0-9.7-0.6-19.2-12.7l2-1.6c7.1,9.1,14.1,11.1,16.5,11.6c0.6-1.6,1.6-5.6,0.6-12.1
				l2.6,0.2c1.4,9.6-1.2,13.7-1.3,13.9L259.3,148.8z"/>
		</g>
		<path class="st31" d="M261,146.7c0.5,1.8-0.2,3.6-1.6,4c-1.4,0.4-2.9-0.7-3.5-2.5c-0.5-1.8,0.2-3.6,1.6-4
			C259,143.8,260.5,144.9,261,146.7z"/>
		<g>
			<g>
				<path class="st24" d="M258.4,134c0,0,0.3-2.4-7.2-2.2c-7.4,0.2-12.2,2.4-12.1,4.6c0.1,2.1,19.5,5.4,19.5,5.4L258.4,134z"/>
			</g>
		</g>
		<g>
			<g>
				<path class="st32" d="M248,107.3c0,0,9.9-4.9,10.8,8.9c0.8,13.8-1.4,15.5-8.5,14.3c-7-1.2-8.5-9.8-9.8-13.9
					C239.1,112.5,244.7,108.2,248,107.3z"/>
			</g>
		</g>
		<g>
			<g>
				<path class="st32" d="M256.3,135.5c0,0-2.4,1.4-10.8-1.3c0,0-0.4-5.6-2.5-10.6c-2.1-5,11.6,5.7,11.6,5.7
					c-0.1,0.1-0.1,0.6,0.1,1.3c0.1,0.6,0.3,1.3,0.6,2.1C255.9,134.5,255.8,134.2,256.3,135.5z"/>
			</g>
		</g>
		<g>
			<g>
				<path class="st33" d="M242.6,123.2c0,0-0.4-3.7,1.1-4.2c1.5-0.5,2.5,1.5,2.5,1.5l1.2-0.2c0,0-1.5-3.6-0.1-4.6
					c1.4-1,10.2-1.2,11.1-2.6c1-1.4-1.4-8.6-3.9-9.1c-2.5-0.5-9.1-1.3-12.8,2.9c0,0-3.4,1.9-3.2,4.8
					C238.6,114.7,241.2,121.4,242.6,123.2z"/>
			</g>
		</g>
		<g>
			<g>
				<path class="st34" d="M255.3,132.8c-8.2-0.5-9.9-4.9-9.9-5c3.6,3.7,9.3,2.9,9.3,2.9C254.8,131.3,255,132,255.3,132.8z"/>
			</g>
		</g>
		<g>
			<g>
				<path class="st32" d="M245.2,117.3c-0.6-1.2-3.2-0.7-2.7,1.2c0.5,1.9,2.9,4.6,3.7,4C247.1,121.8,246.1,118.9,245.2,117.3z"/>
			</g>
		</g>
	</g>
	<g style="clip-path:url(#SVGID_00000138548646724405909830000001636171568597825966_);">
		<g>
			<path class="st21" d="M362.9,109.3c0,0,2.8,2.9,2.9,3.2c0.1,0.3,1.8-4.8,1.8-4.8L362.9,109.3z"/>
		</g>
		<g>
			<path class="st21" d="M367.5,107.7c0,0,1-3.1,1.1-3.6c0.1-0.5-0.3-1.8-1-3.3c-0.6-1.5-2.2-3.2-2.4-3.2c-0.3,0-0.5-0.2-1.2,0.1
				c-0.6,0.3-1,0.9-1,0.9s-1,0-1.4,0.8c0,0-0.9,0-1.2,1c0,0-0.9,0.1-1.1,0.8c0,0,0.4,1.3,0.5,1.9c0,0.5,1.6,3.9,3.1,6.3
				C362.9,109.3,364.6,110.5,367.5,107.7z"/>
		</g>
		<g>
			<path class="st22" d="M365.2,103.7c0,0-1.1,1.3-1.2,1.8c-0.1,0.5-3.5-0.9-3.5-0.9S363.6,102.5,365.2,103.7z"/>
		</g>
		<g>
			<g>
				
					<rect x="340.2" y="105.3" transform="matrix(-0.4801 -0.8772 0.8772 -0.4801 420.2701 467.3463)" class="st35" width="16.8" height="7.7"/>
			</g>
			<g>
				<path class="st36" d="M370.8,78c-3.5,1.9-4.8,6.4-2.9,9.9c0.3,0.6,0.8,1.2,1.3,1.7c-0.3,1-0.5,1.9-0.6,2.9c0,0-0.6,3.5-2.7,5.3
					l-11.1,6.1c-1.8-2.3-4.2-3.4-6-2.5l6.5,11.9c1.7-1,2.1-3.6,1.1-6.4l11.1-6.1c2.7-0.8,5.9,0.6,5.9,0.6c0.8,0.4,1.7,0.8,2.7,1.1
					c0.1,0.7,0.4,1.3,0.7,2c1.9,3.5,6.4,4.8,9.9,2.9c2.6-1.4,4-4.1,3.8-6.9c0.3-0.2,0.6-0.3,0.9-0.5l-12-21.9
					c-0.3,0.2-0.6,0.3-0.9,0.5C376.4,76.9,373.4,76.6,370.8,78z M378.4,102.8c3.1,0.3,6.6-0.2,10.1-1.5c-0.2,1.7-1.1,3.3-2.7,4.1
					c-2.5,1.4-5.7,0.5-7.1-2.1C378.6,103.2,378.5,103,378.4,102.8z M371.8,79.8c1.6-0.9,3.4-0.8,4.9,0c-3,2.2-5.3,4.9-6.7,7.7
					c-0.1-0.2-0.2-0.3-0.3-0.5C368.3,84.4,369.3,81.2,371.8,79.8z"/>
			</g>
			<g>
				<path class="st37" d="M365.9,97.8l-11.1,6.1c-1.8-2.3-4.2-3.4-6-2.5l6.5,11.9c1.7-1,2.1-3.6,1.1-6.4l11.1-6.1
					c2.7-0.8,5.9,0.6,5.9,0.6c0.8,0.4,1.7,0.8,2.7,1.1c0.1,0.7,0.4,1.3,0.7,2c1.9,3.5,6.4,4.8,9.9,2.9c2.6-1.4,4-4.1,3.8-6.9
					c0.3-0.2,0.6-0.3,0.9-0.5l-2.5-4.6c0,0-14.4,3.4-19.9-5.7c-0.3,1-0.5,1.9-0.6,2.9C368.6,92.5,368,95.9,365.9,97.8z M378.4,102.8
					c3.1,0.3,6.6-0.2,10.1-1.5c-0.2,1.7-1.1,3.3-2.7,4.1c-2.5,1.4-5.7,0.5-7.1-2.1C378.6,103.2,378.5,103,378.4,102.8z"/>
			</g>
		</g>
		<g>
			<path class="st23" d="M365.4,98c0,0,1.5,3.8,1,4.1c-0.6,0.3-1,0.1-1,0.1l-0.1,1.8c0,0-0.7,1.2-1.8,0c0,0-0.6,1.2-1.5,0
				c0,0-0.7,0.6-1.3,0.1c-0.5-0.5-1.4-3-1.4-3s0-0.6,1.1-0.8c0,0,0.3-0.9,1.2-1c0,0,0.3-0.7,1.4-0.8c0,0,0.8-1.6,2.2-1
				C365.2,97.6,365.3,97.8,365.4,98z"/>
		</g>
		<g>
			<path class="st21" d="M368.6,104c0,0-2.1-1.8-3.7-2.3c-0.4-0.1-0.7-0.2-1,0.1c-0.2,0.3-0.1,1,0.8,1.9c0.9,0.8,1.6,2.3,1.6,2.3
				S367.4,106.6,368.6,104z"/>
		</g>
		<g>
			<g>
				<path class="st38" d="M409.4,115.6c0,0,3.5-2.2,6.6,1.7c3.1,3.9,2,7.7,1.3,11.3c-0.6,3.5-3.8,11.5-2.4,15.1
					c1.3,3.5-0.4,5.4-0.4,5.4s-10.7,2.7-9.5-13.4C406.2,119.6,409.4,115.6,409.4,115.6z"/>
			</g>
		</g>
		<g>
			<g>
				<path class="st39" d="M398.6,152.4c0,0,0.8-4-1.1-6.8c-1.9-2.8-5.5-4.9-6.7-5.8c-1.1-0.9-11.2-11.2-11.4-11.7
					c-0.2-0.5-3.1-6.7-5.5-10.9c-2.4-4.2-5.3-10.8-5.3-10.8l-7.2,5.6c0,0,7.8,15,10.9,18.7c3.3,4,19.7,22.5,19.7,22.5
					S395.4,158,398.6,152.4z"/>
			</g>
		</g>
		<g>
			<g>
				<path class="st40" d="M374.9,293.8c0,0-4.4,5.9-3.8,6.8c0.6,0.9,5.2,1.1,8,0c2.8-1.1,2.9-7.9,4.1-10.9c0.5-1.2-0.6-4.9-2.2-5.1
					c-1.6-0.3-3.3,0.5-3.3,0.5S379.4,289.2,374.9,293.8z"/>
			</g>
		</g>
		<g>
			<g>
				<g>
					<path class="st21" d="M377.7,285c0,0-0.9,2.5-1.3,4.9c-0.3,2-3.1,6.2-3,6.7c0.1,0.5,3.7,1,5.2-0.4c1.5-1.4,2.4-5.4,2.7-7.7
						c0.3-2.2,0.7-3.3,0.7-3.3S379.1,283.6,377.7,285z"/>
				</g>
			</g>
		</g>
		<g>
			<g>
				<polygon class="st40" points="383.4,289.2 383.4,295.3 382.6,295.3 382.6,290.6 				"/>
			</g>
		</g>
		<g>
			<g>
				<path class="st40" d="M433.3,294.1c0,0,4.2,5.8,3.6,6.7c-0.6,0.9-5.2,1.1-8,0c-2.8-1.1-2.9-7.9-4.1-10.9
					c-0.5-1.2,0.6-4.9,2.2-5.1c1.6-0.3,3.5,0.6,3.5,0.6S428.8,289.5,433.3,294.1z"/>
			</g>
		</g>
		<g>
			<g>
				<g>
					<path class="st21" d="M430.5,285.3c0,0,0.3,2.7,0.9,4.6c0.5,1.9,3.4,6.3,3.3,6.8c-0.1,0.5-3.7,1-5.2-0.4
						c-1.5-1.4-2.6-5.3-2.7-7.7c-0.1-2.4,0.3-4,0.3-4S429.1,283.9,430.5,285.3z"/>
				</g>
			</g>
		</g>
		<g>
			<g>
				<polygon class="st40" points="424.7,289.4 424.7,295.5 425.5,295.5 425.5,290.8 				"/>
			</g>
		</g>
		<g>
			<g>
				<g>
					<path class="st41" d="M394.7,189.4c0,0-3.7,17.4-4.6,21.8c-0.9,4.4-3.3,25.6-3.5,29.2c-0.3,3.6-3.9,17.2-3.7,18.5
						c0.2,1.3-5.6,26.8-5.6,26.8s5.9,1.6,6.9,0.5c0.8-0.9,9.4-24.3,9.4-30.7c0-8.9,4.7-20.9,5.5-22.9c7.9-18.5,8.2-23.7,9.2-24.9
						c1-1.2,1.1,0.7,1.7,3.4c0.6,2.7,4.7,24.6,5.4,27.5c0.8,2.9,2.3,12.6,3.3,17.5c1.3,6.7,6.3,29.6,6.3,29.6s4.8,1.1,6.8,0.2
						c0.6-0.3-2.2-26-3.3-31.8c-1.2-6.4-1.8-15.1-2-17.6c-1.9-27.6-0.1-27.5-6.2-44.9C408.9,158.9,394.7,189.4,394.7,189.4z"/>
				</g>
			</g>
		</g>
		<g>
			<g>
				<path class="st42" d="M404.4,143.3c0,0-3.9,1.8-5.3,2.1c-1.4,0.3-6.6,7.1-7.5,9.6c-0.9,2.5,0,6.2,1.9,10.6
					c1.9,4.4,0.1,5.9,1,10.2c0.9,4.4,1.6,13.7,1.5,16.1c-0.2,2.4,21.2,7.9,26.2,3.5c0,0-4.3-12.6-5-13.7s-0.1-7,0.5-8.5
					c0.6-1.5,4.6-14.4,4.6-14.4s3.2-9.9,0.3-12.2c-2.5-2-9.5-2.7-10.7-3.1C410.5,143.1,406.9,142.9,404.4,143.3z"/>
			</g>
		</g>
		<g>
			<g>
				<path class="st39" d="M412.5,143.7c0,0-5.5,8.3-5.7,12c-0.3,3.7,2,31,3.9,39.8c1.8,8.8,13.1,0.4,13.1,0.4s-6.9-15.8-3.5-27.4
					c3.4-11.6,4.7-16.2,4.7-16.2s-1.2-6.4-5.4-7.4C415.9,144.1,412.5,143.7,412.5,143.7z"/>
			</g>
		</g>
		<g>
			<g>
				<path class="st39" d="M391.2,156.1c0,0-1,3.5,2.9,11.2c0,0-0.1,9.9-0.2,13c-0.1,3.1-2.3,14.2-2.3,14.2l5.3,2.8
					c0.8,0.4,1.7-0.2,1.6-1.1c-1.1-8.9-4.6-42.6,3-51.7l-3,0.9C398.4,145.5,393,149.9,391.2,156.1z"/>
			</g>
		</g>
		<g>
			<path class="st39" d="M401.8,143.6c0,0-7.4-1.2-9.2-2.5l4.9,9.5L401.8,143.6z"/>
		</g>
		<g>
			<g>
				<path class="st43" d="M403.1,152l-2.4-2.8l2.1-7.3C402.8,141.9,403.5,146,403.1,152z"/>
			</g>
		</g>
		<g>
			<g>
				<path class="st21" d="M402.5,138.8c0,0,0.8,7.2,0.6,9.5c0,0,4.1,4.1,8.7-4.7c0,0-1.9-3.6-0.5-8.6
					C412.8,130,402.5,138.8,402.5,138.8z"/>
			</g>
		</g>
		<g>
			<g>
				<polygon class="st44" points="400.7,149.2 397.6,150.6 402.8,141.9 				"/>
			</g>
		</g>
		<g>
			<g>
				<path class="st34" d="M402.7,140.8l0.2,1.4c0,0,3.2,0.6,7.4-4.5C410.2,137.7,407.2,141.3,402.7,140.8z"/>
			</g>
		</g>
		<g>
			<g>
				<polygon class="st21" points="403.1,148.3 403.1,152 407.8,148.5 				"/>
			</g>
		</g>
		<g>
			<g>
				<polygon class="st43" points="403.1,152 405.1,149.6 411.6,143.1 412.7,144.6 				"/>
			</g>
		</g>
		<g>
			<g>
				<polygon class="st44" points="405.1,149.6 407.8,153.2 413.4,143.8 411.6,143.1 				"/>
			</g>
		</g>
		<g>
			<g>
				<g>
					<g>
						<g>
							<g>
								<path class="st21" d="M432.4,207.9c0,0,0.3-0.7,0.3-1c0,0-0.1-0.7-0.1-1.1c0-0.2,0-0.3,0-0.4c0-0.4,0.2-1.1,0.1-2
									c-0.2-0.9-1.8-4.5-1.8-4.5l-2.2,0.3l-2.1,0c0,0-2,5.1-1.9,5.9c0,0.1,0,0.2,0,0.2c0.1,0.7,0.5,1.2,0.6,1.5
									c0,0.1,0.5,1.4,0.9,1.6c0.5,0.2,1,0.1,1.3-0.1c0,0,1.1,0.3,1.8,0.1c0,0,1,0.3,1.7-0.3C431,208.1,432,208.4,432.4,207.9z"/>
							</g>
						</g>
					</g>
				</g>
			</g>
		</g>
		<g>
			<path class="st39" d="M414.3,144.1c0,0,6.3-0.4,9.5,3.3c3.2,3.7,3,8.1,3.8,10c0.8,1.9,2.7,10.1,3.1,11.5c0.4,1.3,1.2,6.9,2.5,15
				c1,6,0.7,17.4,0.7,17.4l-8.4-1.5c0,0,0.7-10.5,0.5-16.8c-0.2-6.2-5.2-17.2-7.1-22C417.1,156.2,409.4,147.1,414.3,144.1z"/>
		</g>
		<g>
			<g>
				<path class="st32" d="M404,140.8c-1.3,0-4.9-0.5-6.6-8.7c-2.2-10.1,2.6-15.3,6.7-16.3c4.1-1,7.9,0.5,10,5.7c0,0,1.5,4.1-1,11.4
					C410.6,140.3,405.4,140.9,404,140.8z"/>
			</g>
		</g>
		<g>
			<g>
				<path class="st38" d="M407.3,122.4c0,0-5.5,0.3-10.6,8c0,0-2.4-9.2,3.9-13.4c6.2-4.2,10.6-0.6,12.1,1.2c0,0,2.2,0.5,2.3,4.6
					c0.1,4.1,2.9,10.4-3.3,13.4c0,0,0.6-4.7,0-5.8C411.2,129.3,409.3,130,407.3,122.4z"/>
			</g>
		</g>
		<g>
			<g>
				<path class="st32" d="M411.5,128.6c0.3-0.7,1-1,1.4-0.2c0.4,0.8-0.1,3.8-1.2,4.1C410.6,132.7,410.9,130,411.5,128.6z"/>
			</g>
		</g>
	</g>
	<g style="clip-path:url(#SVGID_00000138548646724405909830000001636171568597825966_);">
		<path class="st45" d="M139.1,153.9c0,0-18.3-9.6-37.4-1.6c-19,8-46.1,25.2-64.6,13.4c-18.5-11.8-39.7,6-39.7,6s33.9-2.9,25.9,32.3
			c-4.9,21.4,37.4,20.7,50.6,4.2c13.2-16.4,13.2-21.6,25.2-22c20.5-0.6,23.1-20.4,33.4-14.4C142.7,178,139.1,153.9,139.1,153.9z"/>
		<g>
			<g>
				<path class="st38" d="M130,128.1c0,0-3.2-2.1-6.1,1.6c-2.9,3.7-1.9,7.2-1.3,10.5c0.6,3.3,3.5,10.7,2.3,14c-1.2,3.3,0.3,5,0.3,5
					s10,2.6,8.8-12.5C132.9,131.8,130,128.1,130,128.1z"/>
			</g>
		</g>
		<g>
			<path class="st21" d="M173.4,122.2c0,0-2.6,2.7-2.7,3c-0.1,0.3-1.6-4.5-1.6-4.5L173.4,122.2z"/>
		</g>
		<g>
			<path class="st21" d="M169,120.8c0,0-0.9-2.9-1-3.4c-0.1-0.4,0.3-1.7,0.9-3.1c0.6-1.4,2-3,2.3-3c0.3,0,0.5-0.2,1.1,0.1
				c0.6,0.3,1,0.8,1,0.8s0.9,0,1.3,0.7c0,0,0.9,0,1.2,0.9c0,0,0.8,0.1,1,0.7c0,0-0.4,1.2-0.4,1.7c0,0.5-1.5,3.6-2.9,5.9
				C173.4,122.2,171.8,123.3,169,120.8z"/>
		</g>
		<g>
			<path class="st22" d="M171.2,117c0,0,1,1.2,1.1,1.6c0.1,0.5,3.3-0.9,3.3-0.9S172.7,115.8,171.2,117z"/>
		</g>
		<g>
			<path class="st23" d="M171,111.7c0,0-1.4,3.5-0.9,3.8c0.5,0.3,0.9,0.1,0.9,0.1l0.1,1.7c0,0,0.7,1.1,1.7,0c0,0,0.5,1.1,1.4,0
				c0,0,0.7,0.6,1.2,0.1c0.5-0.5,1.3-2.8,1.3-2.8s0-0.6-1-0.7c0,0-0.2-0.9-1.2-0.9c0,0-0.3-0.7-1.3-0.7c0,0-0.8-1.5-2.1-0.9
				C171.2,111.3,171.1,111.5,171,111.7z"/>
		</g>
		<g>
			<path class="st21" d="M168.1,117.3c0,0,2-1.7,3.5-2.2c0.3-0.1,0.7-0.1,0.9,0.1c0.2,0.3,0.1,0.9-0.7,1.7c-0.8,0.8-1.5,2.2-1.5,2.2
				S169.1,119.7,168.1,117.3z"/>
		</g>
		<g>
			<g>
				<path class="st46" d="M140.1,162.4c0,0-0.7-3.7,1-6.3c1.7-2.6,5.2-4.6,6.2-5.4c1.1-0.8,10.4-10.4,10.6-10.9
					c0.2-0.5,2.9-6.2,5.2-10.2c2.3-3.9,4.9-10,4.9-10l6.7,5.2c0,0-7.3,14-10.2,17.5c-3.1,3.7-18.4,21-18.4,21
					S143.1,167.6,140.1,162.4z"/>
			</g>
		</g>
		<g>
			<g>
				<path class="st40" d="M162.2,294.2c0,0,4.1,5.5,3.5,6.3c-0.6,0.9-4.8,1-7.4,0c-2.6-1-2.7-7.4-3.8-10.2c-0.5-1.2,0.6-4.6,2-4.8
					c1.5-0.2,3.1,0.5,3.1,0.5S158,290,162.2,294.2z"/>
			</g>
		</g>
		<g>
			<g>
				<g>
					<path class="st21" d="M159.6,286.1c0,0,0.9,2.3,1.2,4.6c0.3,1.8,2.9,5.8,2.8,6.3c-0.1,0.5-3.5,0.9-4.8-0.3
						c-1.4-1.3-2.2-5-2.5-7.2c-0.3-2.1-0.6-3.1-0.6-3.1S158.3,284.7,159.6,286.1z"/>
				</g>
			</g>
		</g>
		<g>
			<g>
				<polygon class="st40" points="154.3,289.9 154.3,295.7 155,295.7 155,291.2 				"/>
			</g>
		</g>
		<g>
			<g>
				<path class="st40" d="M107.7,294.5c0,0-3.9,5.4-3.4,6.2c0.6,0.9,4.8,1,7.4,0c2.6-1,2.7-7.4,3.8-10.2c0.5-1.2-0.6-4.6-2-4.8
					c-1.5-0.2-3.2,0.5-3.2,0.5S111.9,290.3,107.7,294.5z"/>
			</g>
		</g>
		<g>
			<g>
				<g>
					<path class="st21" d="M110.4,286.4c0,0-0.3,2.5-0.8,4.3c-0.5,1.8-3.2,5.9-3,6.4c0.1,0.5,3.5,0.9,4.8-0.3c1.4-1.3,2.4-5,2.5-7.2
						c0.1-2.2-0.3-3.7-0.3-3.7S111.7,285,110.4,286.4z"/>
				</g>
			</g>
		</g>
		<g>
			<g>
				<polygon class="st40" points="115.7,290.1 115.7,295.9 115,295.9 115,291.4 				"/>
			</g>
		</g>
		<g>
			<g>
				<g>
					<path class="st41" d="M143.7,196.9c0,0,3.5,16.2,4.3,20.3c0.8,4.1,3,23.9,3.3,27.2c0.2,3.4,3.6,16,3.5,17.2
						c-0.2,1.2,5.2,25,5.2,25s-5.5,1.5-6.5,0.5c-0.8-0.9-8.8-22.6-8.8-28.7c0-8.3-4.4-19.5-5.2-21.4c-7.4-17.2-7.7-22.1-8.6-23.2
						c-1-1.1-1,0.7-1.6,3.2c-0.6,2.5-4.4,22.9-5.1,25.6c-0.7,2.7-2.1,11.8-3,16.3c-1.2,6.2-5.9,27.6-5.9,27.6s-4.5,1-6.4,0.2
						c-0.6-0.3,2-24.3,3.1-29.7c1.2-6,1.7-14,1.8-16.4c1.8-25.7,0.1-25.6,5.8-41.8C130.5,168.5,143.7,196.9,143.7,196.9z"/>
				</g>
			</g>
		</g>
		<g>
			<g>
				<path class="st46" d="M134.7,153.9c0,0,3.6,1.7,4.9,2c1.3,0.3,6.2,6.6,7,8.9c0.9,2.3,0,5.8-1.8,9.9c-1.8,4.1-0.1,5.5-0.9,9.5
					c-0.8,4.1,0.5,14.2,0.6,16.4c0.2,2.3-21.7,6-26.4,1.9c0,0,4-11.8,4.6-12.8s0.1-6.5-0.5-7.9c-0.6-1.4-4.3-13.4-4.3-13.4
					s-3-9.2-0.3-11.4c2.4-1.8,8.8-2.5,10-2.9C128.9,153.8,132.3,153.6,134.7,153.9z"/>
			</g>
		</g>
		<g>
			<path class="st46" d="M137.1,154.2c0,0,6.9-1.2,8.5-2.3l-4.6,8.9L137.1,154.2z"/>
		</g>
		<g>
			<g>
				<g>
					<g>
						<g>
							<g>
								<path class="st21" d="M102.1,212.1c0,0-0.2-0.7-0.2-1c0,0,0.1-0.6,0.2-1c0-0.1,0-0.3,0-0.3c0-0.3-0.1-1.1,0.2-1.9
									c0.2-0.8,2.2-3.9,2.2-3.9l2,0.6l1.9,0.3c0,0,1.2,4.9,1.1,5.7c0,0.1,0,0.1-0.1,0.2c-0.2,0.6-0.6,1-0.7,1.4
									c-0.1,0.1-0.6,1.3-1,1.3c-0.5,0.1-0.9,0-1.2-0.3c0,0-1,0.2-1.6-0.1c0,0-0.9,0.2-1.6-0.4
									C103.3,212.5,102.4,212.6,102.1,212.1z"/>
							</g>
						</g>
					</g>
				</g>
			</g>
		</g>
		<g>
			<path class="st46" d="M126,155.1c0,0-5.8-1.1-9.2,2c-3.4,3.1-3.7,7.2-4.7,8.8c-1,1.7-3.6,9.1-4.1,10.3c-0.5,1.2-1.8,6.2-4,13.6
				c-1.6,5.4-2.6,16-2.6,16l7.9-0.5c0,0,0.6-9.8,1.4-15.6c0.8-5.7,6.8-15.3,9.1-19.6C122.1,166,130.2,158.5,126,155.1z"/>
		</g>
		<path class="st30" d="M135.9,158.6l0.2-4.2c0,0,2.4-0.7,3.1-0.6L135.9,158.6z"/>
		<g>
			<g>
				<path class="st43" d="M135.9,162l2.2-2.6l-1.9-6.8C136.2,152.6,135.5,156.4,135.9,162z"/>
			</g>
		</g>
		<g>
			<g>
				<polygon class="st44" points="138.1,159.5 141,160.7 136.2,152.6 				"/>
			</g>
		</g>
		<g>
			<g>
				<path class="st21" d="M136.4,149.7c0,0-0.7,6.7-0.6,8.8c0,0-3.8,3.8-8.1-4.4c0,0,1.8-3.4,0.4-8
					C126.9,141.6,136.4,149.7,136.4,149.7z"/>
			</g>
		</g>
		<g>
			<g>
				<path class="st34" d="M136.3,151.6l-0.2,1.3c0,0-3,0.6-6.9-4.2C129.2,148.7,132,152.1,136.3,151.6z"/>
			</g>
		</g>
		<g>
			<g>
				<polygon class="st21" points="135.9,158.6 135.9,162 131.5,158.8 				"/>
			</g>
		</g>
		<g>
			<g>
				<polygon class="st43" points="135.9,162 134.1,159.8 128,153.7 126.9,155.1 				"/>
			</g>
		</g>
		<g>
			<g>
				<path class="st32" d="M135,151.6c1.2,0,4.5-0.4,6.2-8.1c2-9.4-2.4-14.3-6.3-15.2c-3.8-0.9-7.3,0.4-9.3,5.3c0,0-1.4,3.8,0.9,10.7
					C128.9,151.1,133.7,151.7,135,151.6z"/>
			</g>
		</g>
		<g>
			<g>
				<path class="st38" d="M131.9,134.4c0,0,5.1,0.3,9.9,7.5c0,0,2.2-8.6-3.6-12.5c-5.8-3.9-9.9-0.6-11.3,1.2c0,0-2,0.5-2.1,4.3
					c-0.1,3.9-2.7,9.7,3,12.5c0,0-0.5-4.4,0-5.4C128.3,140.9,130.1,141.6,131.9,134.4z"/>
			</g>
		</g>
		<g>
			<g>
				<path class="st32" d="M128.1,140.2c-0.3-0.7-1-0.9-1.3-0.2c-0.4,0.7,0.1,3.5,1.1,3.8C128.9,144.1,128.6,141.5,128.1,140.2z"/>
			</g>
		</g>
		<path class="st30" d="M132.5,159.5l-5.6-5.1c0,0-2.5-0.2-5.8,0.8L132.5,159.5z"/>
		<g>
			<g>
				<polygon class="st44" points="134.1,159.8 131.5,163.1 126.3,154.3 128,153.7 				"/>
			</g>
		</g>
	</g>
	<g style="clip-path:url(#SVGID_00000138548646724405909830000001636171568597825966_);">
		<polygon class="st36" points="243.4,66.8 234.5,70.8 235.5,80.6 228.9,73.3 220,77.3 224.9,68.8 218.3,61.5 227.9,63.5 232.7,55 
			233.8,64.8 		"/>
	</g>
	<g style="clip-path:url(#SVGID_00000138548646724405909830000001636171568597825966_);">
		<polygon class="st36" points="76.8,61.3 70.3,58.8 65.9,64.2 66.3,57.2 59.8,54.7 66.5,52.9 66.9,45.9 70.7,51.8 77.4,50 73,55.5 
					"/>
	</g>
	<g style="clip-path:url(#SVGID_00000138548646724405909830000001636171568597825966_);">
		<polygon class="st36" points="348.8,47.7 340.5,47.3 337.6,55.1 335.3,47.1 327,46.7 334,42.1 331.8,34.1 338.3,39.3 345.2,34.7 
			342.3,42.5 		"/>
	</g>
	<g style="clip-path:url(#SVGID_00000138548646724405909830000001636171568597825966_);">
		<polygon class="st36" points="152.3,80.6 142.7,81.3 140.4,90.6 136.8,81.7 127.2,82.4 134.5,76.2 130.9,67.3 139.1,72.4 
			146.5,66.2 144.1,75.5 		"/>
	</g>
	<g style="clip-path:url(#SVGID_00000138548646724405909830000001636171568597825966_);">
		<polygon class="st36" points="157.2,126.3 151.7,126.1 149.8,131.3 148.3,125.9 142.7,125.7 147.3,122.6 145.8,117.3 150.2,120.7 
			154.8,117.6 152.9,122.8 		"/>
	</g>
	<g style="clip-path:url(#SVGID_00000138548646724405909830000001636171568597825966_);">
		<polygon class="st36" points="192.9,45.4 188.1,46.1 187.3,50.9 185.1,46.5 180.3,47.2 183.8,43.8 181.6,39.5 185.9,41.7 
			189.4,38.3 188.6,43.1 		"/>
	</g>
</g>
<g>
	<path class="st4" d="M557,265.3V262l-1.7-0.2c-0.2-1.1-0.7-2.1-1.3-3.1l1.1-1.3l-2.3-2.4l-1.3,1.1c-0.9-0.6-2-1-3.1-1.3l-0.2-1.7
		h-3.3l-0.2,1.7c-1.1,0.2-2.1,0.7-3.1,1.3l-1.3-1.1l-2.4,2.4l1.1,1.3c-0.6,0.9-1,2-1.3,3.1L536,262v3.3l1.7,0.2
		c0.2,1.1,0.7,2.1,1.3,3.1l-1.1,1.3l2.4,2.4l1.3-1.1c0.9,0.6,2,1,3.1,1.3l0.2,1.7h3.3l0.2-1.7c1.1-0.2,2.1-0.7,3.1-1.3l1.3,1.1
		l2.4-2.4l-1.1-1.3c0.6-0.9,1-2,1.3-3.1L557,265.3z M546.5,268.1c-2.5,0-4.5-2-4.5-4.5s2-4.5,4.5-4.5s4.5,2,4.5,4.5
		S549,268.1,546.5,268.1z"/>
	<path class="st4" d="M129.9,93.3V90l-1.7-0.2c-0.2-1.1-0.7-2.1-1.3-3.1l1.1-1.3l-2.4-2.3l-1.3,1.1c-0.9-0.6-2-1-3.1-1.3l-0.2-1.7
		h-3.3l-0.2,1.7c-1.1,0.2-2.1,0.7-3.1,1.3l-1.2-1.1l-2.4,2.4l1.1,1.3c-0.6,0.9-1,2-1.3,3.1l-1.7,0.2v3.3l1.7,0.2
		c0.2,1.1,0.7,2.1,1.3,3.1l-1.1,1.3l2.4,2.4l1.3-1.1c0.9,0.6,2,1,3.1,1.3l0.2,1.7h3.3l0.2-1.7c1.1-0.2,2.1-0.7,3.1-1.3l1.3,1.1
		l2.4-2.4l-1.1-1.3c0.6-0.9,1-2,1.3-3.1L129.9,93.3z M119.4,96.2c-2.5,0-4.5-2-4.5-4.5s2-4.5,4.5-4.5s4.5,2,4.5,4.5
		S121.9,96.2,119.4,96.2z"/>
	<path class="st4" d="M673,87.5v-3.3l-1.7-0.2c-0.2-1.1-0.7-2.1-1.3-3.1l1.1-1.3l-2.4-2.4l-1.3,1.1c-0.9-0.6-2-1-3.1-1.3l-0.2-1.7
		h-3.3l-0.1,1.8c-1.1,0.2-2.1,0.7-3.1,1.3l-1.3-1.2l-2.4,2.4l1.1,1.3c-0.6,0.9-1,2-1.3,3.1l-1.7,0.2v3.3l1.7,0.2
		c0.2,1.1,0.7,2.1,1.3,3.1l-1.1,1.3l2.4,2.4l1.3-1.1c0.9,0.6,2,1,3.1,1.3l0.2,1.7h3.3l0.2-1.7c1.1-0.2,2.1-0.7,3.1-1.3l1.3,1.1
		l2.4-2.4l-1.1-1.3c0.6-0.9,1-2,1.3-3.1L673,87.5z M662.6,90.3c-2.5,0-4.5-2-4.5-4.5s2-4.5,4.5-4.5s4.5,2,4.5,4.5
		S665,90.3,662.6,90.3z"/>
	<path class="st4" d="M820.8,261.5v-3.3l-1.7-0.2c-0.2-1.1-0.7-2.1-1.3-3.1l1.1-1.3l-2.4-2.4l-1.3,1.1c-0.9-0.6-2-1-3.1-1.3
		l-0.2-1.7h-3.3l-0.2,1.7c-1.1,0.2-2.1,0.7-3.1,1.3l-1.3-1.1l-2.4,2.4l1.1,1.3c-0.6,0.9-1,2-1.3,3.1l-1.7,0.2v3.3l1.7,0.2
		c0.2,1.1,0.7,2.1,1.3,3.1l-1.1,1.3l2.4,2.4l1.3-1.1c0.9,0.6,2,1,3.1,1.3l0.2,1.7h3.3l0.2-1.7c1.1-0.2,2.1-0.7,3.1-1.3l1.3,1.1
		l2.4-2.4l-1.1-1.3c0.6-0.9,1-2,1.3-3.1L820.8,261.5z M810.3,264.4c-2.5,0-4.5-2-4.5-4.5s2-4.5,4.5-4.5s4.5,2,4.5,4.5
		S812.8,264.4,810.3,264.4z"/>
	<path class="st4" d="M570.4,274.6V272l-1.3-0.1c-0.2-0.9-0.5-1.7-1-2.4l0.9-1l-1.8-1.8l-1,0.9c-0.7-0.5-1.5-0.8-2.4-1l-0.1-1.3
		h-2.6l-0.1,1.3c-0.9,0.2-1.7,0.5-2.4,1l-1-0.9l-1.8,1.8l0.9,1c-0.5,0.7-0.8,1.5-1,2.4l-1.3,0.1v2.6l1.3,0.1c0.2,0.9,0.5,1.7,1,2.4
		l-0.9,1l1.8,1.8l1-0.9c0.7,0.5,1.5,0.8,2.4,1l0.1,1.3h2.6l0.1-1.3c0.9-0.2,1.7-0.5,2.4-1l1,0.9l1.8-1.8l-0.9-1
		c0.5-0.7,0.8-1.5,1-2.4L570.4,274.6z M562.3,276.9c-1.9,0-3.5-1.6-3.5-3.5c0-1.9,1.6-3.5,3.5-3.5s3.5,1.6,3.5,3.5
		C565.8,275.3,564.2,276.9,562.3,276.9z"/>
	<path class="st4" d="M557,282v-2.2l-1.1-0.1c-0.2-0.7-0.4-1.4-0.8-2l0.7-0.9l-1.5-1.5l-0.9,0.7c-0.6-0.4-1.3-0.7-2-0.8l-0.1-1.1
		h-2.2l-0.1,1.1c-0.7,0.2-1.4,0.4-2,0.8l-0.9-0.7l-1.5,1.5l0.7,0.9c-0.4,0.6-0.7,1.3-0.8,2l-1.1,0.1v2.2l1.1,0.1
		c0.2,0.7,0.4,1.4,0.8,2l-0.7,0.9l1.5,1.5l0.9-0.7c0.6,0.4,1.3,0.7,2,0.8l0.1,1.1h2.2l0.1-1.1c0.7-0.2,1.4-0.4,2-0.8l0.9,0.7
		l1.5-1.5l-0.7-0.9c0.4-0.6,0.7-1.3,0.8-2L557,282z M550.1,283.9c-1.6,0-3-1.3-3-3c0-1.6,1.3-3,3-3c1.6,0,3,1.3,3,3
		C553.1,282.5,551.7,283.9,550.1,283.9z"/>
</g>
<g>
	<g>
		<path class="st4" d="M944.3,145.2c-1.1,0-2-0.9-2-2c0-1.1,0.9-2,2-2s2,0.9,2,2C946.3,144.3,945.4,145.2,944.3,145.2z M944.3,141.8
			c-0.8,0-1.4,0.6-1.4,1.4s0.6,1.4,1.4,1.4s1.4-0.7,1.4-1.4C945.8,142.4,945.1,141.8,944.3,141.8z"/>
	</g>
	<g>
		<path class="st4" d="M927.4,178.3c-1.3,0-2.3-1-2.3-2.3v-0.3c-1.4-0.4-2.3-1.7-2.3-3.2v-6.9h1.4c-0.5-8.6-7-20.7-7.1-20.8
			c-2-3-3-6.5-3-10.1c0-10.2,8.3-18.5,18.5-18.5s18.5,8.3,18.5,18.5c0,3.6-1.1,7.1-3,10.1c-0.3,0.5-6.5,12.2-7.1,20.7h1.3v6.9
			c0,1.4-0.9,2.7-2.3,3.2v0.3c0,1.3-1,2.3-2.3,2.3L927.4,178.3L927.4,178.3z M923.3,166.1v6.4c0,1.3,0.9,2.4,2.1,2.7l0.2,0.1v0.8
			c0,1,0.8,1.8,1.8,1.8h10.2c1,0,1.8-0.8,1.8-1.8v-0.8l0.2-0.1c1.2-0.3,2.1-1.4,2.1-2.7v-6.4h-1.4v-0.3c0.4-8.7,6.9-20.8,7.2-21.3
			c1.9-2.9,3-6.4,3-9.9c0-9.9-8-17.9-17.9-17.9s-17.9,8-17.9,17.9c0,3.5,1,6.9,3,9.8c0.1,0.1,6.8,12.6,7.2,21.4v0.3H923.3z
			 M932.7,153c-0.1,0-0.2,0-0.2,0l0,0c0,0-0.6,0-1.6-0.1v-0.5c1.1,0.1,2,0.1,3.1,0v0.5C933.4,153,932.9,153,932.7,153z"/>
	</g>
	<g>
		<rect x="927.3" y="165.5" class="st4" width="10.2" height="0.5"/>
	</g>
	<g>
		<rect x="931.9" y="101" class="st4" width="1.1" height="9.3"/>
	</g>
	<g>
		
			<rect x="942.7" y="108.4" transform="matrix(0.7071 -0.7071 0.7071 0.7071 200.4305 701.7877)" class="st4" width="9.3" height="1.1"/>
	</g>
	<g>
		
			<rect x="916.9" y="104.3" transform="matrix(0.7071 -0.7071 0.7071 0.7071 191.6384 680.6281)" class="st4" width="1.1" height="9.3"/>
	</g>
	<g>
		
			<rect x="925.8" y="145.5" transform="matrix(0.9736 -0.2284 0.2284 0.9736 -10.0036 215.4999)" class="st4" width="0.5" height="10.9"/>
	</g>
	<g>
		
			<rect x="933.3" y="150.8" transform="matrix(0.2295 -0.9733 0.9733 0.2295 576.3226 1030.0709)" class="st4" width="10.9" height="0.5"/>
	</g>
	<g>
		<path class="st4" d="M953.1,134.7h-0.5c0-11.1-9-20.2-20.2-20.2V114C943.8,114,953.1,123.2,953.1,134.7z"/>
	</g>
	<g>
		<path class="st4" d="M948.5,134.7H948c0-8.6-7-15.5-15.5-15.5c-8.6,0-15.5,7-15.5,15.5h-0.5c0-8.9,7.2-16.1,16.1-16.1
			C941.3,118.6,948.5,125.8,948.5,134.7z"/>
	</g>
</g>
<g>
	<g>
		<path class="st4" d="M503.5,214.2c-0.9,0-1.7-0.7-1.7-1.7c0-0.9,0.7-1.7,1.7-1.7s1.7,0.7,1.7,1.7
			C505.2,213.4,504.5,214.2,503.5,214.2z M503.5,211.4c-0.7,0-1.2,0.5-1.2,1.2c0,0.7,0.5,1.2,1.2,1.2s1.2-0.6,1.2-1.2
			C504.8,211.9,504.2,211.4,503.5,211.4z"/>
	</g>
	<g>
		<path class="st4" d="M489.5,241.7c-1.1,0-1.9-0.8-1.9-1.9v-0.2c-1.2-0.3-1.9-1.4-1.9-2.7v-5.7h1.2c-0.4-7.2-5.8-17.2-5.9-17.3
			c-1.7-2.5-2.5-5.4-2.5-8.4c0-8.5,6.9-15.4,15.4-15.4s15.4,6.9,15.4,15.4c0,3-0.9,5.9-2.5,8.4c-0.2,0.4-5.4,10.1-5.9,17.2h1.1v5.7
			c0,1.2-0.7,2.2-1.9,2.7v0.2c0,1.1-0.8,1.9-1.9,1.9L489.5,241.7L489.5,241.7z M486.1,231.6v5.3c0,1.1,0.7,2,1.7,2.2l0.2,0.1v0.7
			c0,0.8,0.7,1.5,1.5,1.5h8.5c0.8,0,1.5-0.7,1.5-1.5v-0.7l0.2-0.1c1-0.2,1.7-1.2,1.7-2.2v-5.3h-1.2v-0.2c0.3-7.2,5.7-17.3,6-17.7
			c1.6-2.4,2.5-5.3,2.5-8.2c0-8.2-6.7-14.9-14.9-14.9s-14.9,6.7-14.9,14.9c0,2.9,0.8,5.7,2.5,8.2c0.1,0.1,5.7,10.5,6,17.8v0.2H486.1
			z M493.9,220.7c-0.1,0-0.2,0-0.2,0l0,0c0,0-0.5,0-1.3-0.1v-0.4c0.9,0.1,1.7,0.1,2.6,0v0.4C494.5,220.7,494.1,220.7,493.9,220.7z"
			/>
	</g>
	<g>
		<rect x="489.4" y="231.1" class="st4" width="8.5" height="0.4"/>
	</g>
	<g>
		<rect x="493.2" y="177.4" class="st4" width="0.9" height="7.7"/>
	</g>
	<g>
		
			<rect x="502.2" y="183.6" transform="matrix(0.7071 -0.7071 0.7071 0.7071 18.1071 411.7522)" class="st4" width="7.7" height="0.9"/>
	</g>
	<g>
		
			<rect x="480.7" y="180.2" transform="matrix(0.7071 -0.7071 0.7071 0.7071 10.7937 394.1511)" class="st4" width="0.9" height="7.7"/>
	</g>
	<g>
		
			<rect x="488.2" y="214.4" transform="matrix(0.9736 -0.2284 0.2284 0.9736 -37.1027 117.3323)" class="st4" width="0.4" height="9.1"/>
	</g>
	<g>
		
			<rect x="494.4" y="218.8" transform="matrix(0.2295 -0.9733 0.9733 0.2295 171.2649 654.3752)" class="st4" width="9.1" height="0.4"/>
	</g>
	<g>
		<path class="st4" d="M510.9,205.5h-0.4c0-9.2-7.5-16.8-16.8-16.8v-0.4C503.1,188.2,510.9,195.9,510.9,205.5z"/>
	</g>
	<g>
		<path class="st4" d="M507,205.5h-0.4c0-7.2-5.8-12.9-12.9-12.9c-7.2,0-12.9,5.8-12.9,12.9h-0.4c0-7.4,6-13.4,13.4-13.4
			C501,192.1,507,198,507,205.5z"/>
	</g>
</g>
<g>
	<g>
		<path class="st4" d="M289.7,95.1c-0.8,0-1.4-0.6-1.4-1.4s0.6-1.4,1.4-1.4s1.4,0.6,1.4,1.4S290.5,95.1,289.7,95.1z M289.7,92.7
			c-0.6,0-1,0.4-1,1c0,0.6,0.4,1,1,1c0.6,0,1-0.5,1-1C290.8,93.1,290.3,92.7,289.7,92.7z"/>
	</g>
	<g>
		<path class="st4" d="M278,118c-0.9,0-1.6-0.7-1.6-1.6v-0.2c-1-0.3-1.6-1.2-1.6-2.2v-4.8h1c-0.3-6-4.8-14.3-4.9-14.4
			c-1.4-2.1-2.1-4.5-2.1-7c0-7.1,5.7-12.8,12.8-12.8c7.1,0,12.8,5.7,12.8,12.8c0,2.5-0.8,4.9-2.1,7c-0.2,0.3-4.5,8.4-4.9,14.3h0.9
			v4.8c0,1-0.6,1.9-1.6,2.2v0.2c0,0.9-0.7,1.6-1.6,1.6L278,118L278,118z M275.2,109.5v4.4c0,0.9,0.6,1.7,1.5,1.9l0.1,0.1v0.6
			c0,0.7,0.6,1.2,1.2,1.2h7.1c0.7,0,1.2-0.6,1.2-1.2v-0.6l0.1-0.1c0.8-0.2,1.5-1,1.5-1.9v-4.4h-1v-0.2c0.3-6,4.8-14.4,5-14.7
			c1.3-2,2.1-4.4,2.1-6.9c0-6.9-5.5-12.4-12.4-12.4s-12.4,5.5-12.4,12.4c0,2.4,0.7,4.8,2.1,6.8c0.1,0.1,4.7,8.7,5,14.8v0.2H275.2z
			 M281.7,100.5c-0.1,0-0.1,0-0.1,0l0,0c0,0-0.4,0-1.1-0.1V100c0.8,0.1,1.4,0.1,2.1,0v0.3C282.2,100.5,281.8,100.5,281.7,100.5z"/>
	</g>
	<g>
		<rect x="278" y="109.1" class="st4" width="7.1" height="0.3"/>
	</g>
	<g>
		<rect x="281.2" y="64.5" class="st4" width="0.8" height="6.4"/>
	</g>
	<g>
		
			<rect x="288.6" y="69.6" transform="matrix(0.7071 -0.7071 0.7071 0.7071 36.0022 226.8628)" class="st4" width="6.4" height="0.8"/>
	</g>
	<g>
		
			<rect x="270.8" y="66.8" transform="matrix(0.7071 -0.7071 0.7071 0.7071 29.9187 212.2218)" class="st4" width="0.8" height="6.4"/>
	</g>
	<g>
		
			<rect x="277" y="95.3" transform="matrix(0.9736 -0.2284 0.2284 0.9736 -15.2967 65.9127)" class="st4" width="0.3" height="7.5"/>
	</g>
	<g>
		
			<rect x="282.1" y="98.9" transform="matrix(0.2295 -0.9733 0.9733 0.2295 123.8537 354.6217)" class="st4" width="7.5" height="0.3"/>
	</g>
	<g>
		<path class="st4" d="M295.8,87.8h-0.3c0-7.7-6.2-14-14-14v-0.3C289.4,73.5,295.8,79.8,295.8,87.8z"/>
	</g>
	<g>
		<path class="st4" d="M292.6,87.8h-0.3c0-6-4.8-10.7-10.7-10.7c-6,0-10.7,4.8-10.7,10.7h-0.3c0-6.2,5-11.1,11.1-11.1
			C287.7,76.7,292.6,81.6,292.6,87.8z"/>
	</g>
</g>
<g>
	<path class="st47" d="M1197.5,278.3c-0.3,0.4-0.4,1-0.4,1.5c-0.1,2.3,1,4.5,1.8,6.6c-0.1,0.8,0.9,2.4,1.2,3.1
		c0.4,1,0.9,1.9,1.4,2.9c3.5,4.7,9.9,5.5,15,3.2c1.6-0.7,6.9-2.8,5.3-5.4c-0.5-0.8-1.5-1-2.4-1c-0.9,0-1.8,0.3-2.7,0
		c-0.9-0.2-1.7-1.1-1.5-1.9c0.2-0.7,1.1-1.1,1.8-1.2c1.2-0.2,2.4-0.1,3.7-0.1c1.2-0.1,2.5-0.4,3.3-1.4c0.8-0.9,0.8-2.5-0.2-3.2
		c-1.2-0.9-2.6-0.2-4-1c-0.7-0.5-0.9-0.9-0.8-1.3c0.5-1.4,3-1.6,4.2-2c2-0.5,5.6-1.8,6.2-4.1c0.8-3.1-5.7-1.6-7.1-1.8
		c-0.3,0-0.6-0.1-0.8-0.3c-0.7-0.6-0.1-1,0.6-1.6c3.2-2.4,8.6-2,11.4-4.9c0.3-0.4,0.7-0.9,0.5-1.3c-0.1-0.4-0.5-0.7-0.9-0.8
		c-1.1-0.3-2.9-0.2-4-0.2c-1.1,0-2.4-0.9-1.9-1.9c0.3-0.6,1-0.7,1.6-0.8c2.5-0.4,5-0.6,7.4-0.9c1-0.1,2.2-0.6,2.9-1.4
		c0.8-1,0.2-2.6-0.9-2.6c-1.5,0-3-0.1-4.4-0.2c-0.4,0-0.8-0.1-1.1-0.4c-0.5-0.7,0.6-1.5,1.4-1.6c1.9-0.4,3.7-0.9,5.6-1.3
		c0.9-0.2,1.8-0.4,2.5-1c0.7-0.6,1-1.7,0.5-2.4c-0.7-1.1-2.3-0.7-3.6-0.3c-1.2,0.4-3,0.3-3.3-0.9c-0.1-0.6,0.2-1.2,0.6-1.6
		c0.8-1,2-1.6,2.9-2.4c0.9-0.9,1.6-2.2,1.1-3.3c-0.5-1.2-2.3-1.6-3.5-1.1c-1.3,0.5-2.2,1.6-3,2.6c-0.9,1-1.8,2.1-3.1,2.5
		c-0.2,0.1-0.4,0.1-0.6,0c-0.3-0.1-0.4-0.4-0.5-0.7c-0.5-1.6,0.1-3.8-1.2-4.7c-0.8-0.6-2-0.3-2.8,0.4c-0.7,0.7-1,1.7-1.2,2.7
		c-0.3,2.6,0.3,5.1,1,7.6c0.2,0.6,0.3,1.3,0,1.8c-0.5,0.8-1.9,0.6-2.5-0.2c-0.6-0.7-0.7-1.8-0.9-2.7c-0.2-0.9-0.5-2-1.3-2.5
		c-1.4-0.9-3.3,0.6-3.6,2.3c-0.3,1.6,0.4,3.3,1,4.8c0.6,1.9,2.1,4.2,1.6,6.3c-0.3,1.2-1.4-0.2-2.2,0.5c-7.9,7.1-1.7-6.7-4.7-6.4
		c-0.8,0.1-1.6,1.7-1.7,2.5c-0.2,2.3,1.1,4.5,1.9,6.6c0.3,0.7,1.5,6.3-0.6,5.4c-0.3-0.1-0.5-0.4-0.7-0.7c-0.5-0.8-1-2.8-1.5-3.5
		c-1.5-2.1-4-1.4-4.6,0.9c-0.4,1.7,1,4,1.9,5.5c0.8,1.6,1.4,3.4,1.7,5.2c0,0.3,0.1,0.7-0.2,0.9c-0.3,0.3-0.7,0.2-1.1,0
		c-1.6-0.8-1.9-2.7-3-3.9c-0.9-0.9-2.5-1.7-3.2-0.2c-2.1,4.2,2.7,7.5,3.9,11.1c0.3,1,0,1.8-1.1,1.3c-0.9-0.3-1.6-1.2-2.2-2
		c-0.7-1-1.3-2.1-2.1-3c-0.5-0.4-1.1-0.8-1.7-0.7C1198,277.8,1197.7,278,1197.5,278.3z"/>
	<g>
		<g>
			<path class="st48" d="M1240.3,237.5c-9.3,7.3-15.3,17.6-21.2,27.7c-3.1,5.3-6.1,10.6-8.7,16.2c-2.6,5.5-4.6,11.3-6.7,17.1
				c-0.4,1.2,1.5,1.8,2,0.6c2-5.9,4-11.7,6.7-17.3c2.5-5.3,5.5-10.4,8.3-15.6c5.7-10.1,12-19.9,19.8-28.5
				C1240.5,237.5,1240.4,237.4,1240.3,237.5L1240.3,237.5z"/>
		</g>
		<g>
			<path class="st48" d="M1229.9,249.6c-0.1-0.2-0.1-0.3-0.1-0.5c-0.1-0.1-0.1-0.3-0.2-0.4c-0.1-0.3-0.3-0.6-0.4-0.9
				c-0.2-0.6-0.4-1.2-0.6-1.8c-0.2-0.6-0.3-1.3-0.5-1.9c-0.2-0.6-0.4-1.3-0.8-1.8c-0.2-0.2-0.5-0.1-0.5,0.1
				c-0.2,0.6-0.1,1.3,0.1,1.9c0.2,0.7,0.4,1.4,0.6,2c0.2,0.6,0.5,1.3,0.7,1.9c0.1,0.3,0.3,0.6,0.5,0.9c0.1,0.1,0.2,0.3,0.3,0.4
				c0.1,0.2,0.3,0.2,0.4,0.4C1229.6,250.1,1230,249.9,1229.9,249.6L1229.9,249.6z"/>
		</g>
		<g>
			<path class="st48" d="M1225.5,256.8c0.3,0.1,0.7,0.1,1,0.1c0.3,0,0.7,0,1,0c0.6,0,1.3,0,1.9,0c0.7,0,1.3-0.1,2-0.2
				c0.3,0,0.6-0.1,1-0.2c0.3-0.1,0.6-0.1,0.9-0.3c0.1-0.1,0.1-0.4-0.1-0.5c-0.3-0.1-0.6-0.1-0.9-0.1c-0.3,0-0.6,0-1,0.1
				c-0.6,0-1.3,0-1.9,0.1c-0.6,0-1.3,0.1-1.9,0.1c-0.3,0-0.7,0-1,0c-0.3,0-0.7-0.1-1,0C1225,256,1225,256.7,1225.5,256.8
				L1225.5,256.8z"/>
		</g>
		<g>
			<path class="st48" d="M1230.8,248.1c0.1,0.1,0.2,0.1,0.3,0.2c0.1,0.1,0.2,0.1,0.3,0.1c0.2,0.1,0.4,0.1,0.6,0.1
				c0.4,0.1,0.9,0.2,1.3,0.2c0.4,0,0.8,0.1,1.2,0c0.2,0,0.4,0,0.6-0.1c0.2,0,0.4-0.1,0.6-0.2c0.1-0.1,0-0.2,0-0.3
				c-0.1-0.1-0.3-0.1-0.5-0.2c-0.2,0-0.4-0.1-0.6-0.1c-0.4-0.1-0.8-0.1-1.2-0.1c-0.4,0-0.8-0.1-1.1-0.2c-0.2,0-0.4-0.1-0.5-0.1
				c-0.1,0-0.2-0.1-0.3-0.1c-0.1,0-0.2,0-0.3,0C1230.8,247.5,1230.6,247.9,1230.8,248.1L1230.8,248.1z"/>
		</g>
		<g>
			<path class="st48" d="M1224.4,258c-0.6-1.2-1.3-2.4-1.9-3.7c-0.3-0.6-0.6-1.2-0.9-1.9c-0.3-0.6-0.6-1.2-1.1-1.7
				c-0.2-0.3-0.5,0-0.5,0.3c0.1,0.7,0.3,1.3,0.6,2c0.3,0.6,0.7,1.3,1,1.9c0.7,1.2,1.5,2.4,2.4,3.4
				C1224.2,258.6,1224.5,258.3,1224.4,258L1224.4,258z"/>
		</g>
		<g>
			<path class="st48" d="M1220.2,264.7c0.3,0.5,1,0.5,1.5,0.6c0.6,0.1,1.2,0,1.8,0c0.6,0,1.2-0.1,1.8-0.2c0.3,0,0.6-0.1,0.9-0.1
				c0.3,0,0.6-0.1,0.9-0.2c0.1,0,0.1-0.2,0-0.2c-0.6-0.1-1.2-0.1-1.8-0.1c-0.6,0-1.2,0-1.8,0c-0.6,0-1.1-0.1-1.7-0.2
				c-0.3,0-0.5-0.1-0.8-0.1c-0.3-0.1-0.5-0.1-0.8,0C1220.2,264.3,1220.2,264.5,1220.2,264.7L1220.2,264.7z"/>
		</g>
		<g>
			<path class="st48" d="M1219.4,265.9C1219.4,265.9,1219.4,265.8,1219.4,265.9C1219.3,265.9,1219.3,265.9,1219.4,265.9
				L1219.4,265.9z"/>
		</g>
		<g>
			<path class="st48" d="M1219.6,266.1c-1-1.4-2.2-2.7-3.2-4.2c-1-1.5-1.8-3.1-2.6-4.6c-0.1-0.3-0.5-0.1-0.5,0.2
				c0.4,1.8,1.2,3.5,2.2,5c1,1.5,2.1,3,3.7,4C1219.4,266.6,1219.7,266.3,1219.6,266.1L1219.6,266.1z"/>
		</g>
		<g>
			<path class="st48" d="M1214.9,274c0.1,0.3,0.4,0.5,0.7,0.5c0.3,0.1,0.6,0.2,0.9,0.2c0.6,0.1,1.3,0.2,1.9,0.2c0.7,0,1.3-0.1,2-0.1
				c0.3,0,0.7-0.1,1-0.1c0.3-0.1,0.6-0.2,1-0.3c0.3-0.1,0.2-0.5,0-0.5c-0.3,0-0.6-0.1-0.9-0.1c-0.3,0-0.6,0-0.9,0.1
				c-0.6,0-1.3,0-1.9,0c-0.6,0-1.2,0-1.8-0.1c-0.3,0-0.6-0.1-0.9-0.2c-0.3-0.1-0.6-0.2-0.9,0C1214.9,273.8,1214.9,273.9,1214.9,274
				L1214.9,274z"/>
		</g>
		<g>
			<path class="st48" d="M1214.7,274.7c-0.5-0.7-0.9-1.5-1.4-2.2c-0.5-0.7-1-1.4-1.5-2.2c-0.4-0.7-0.9-1.5-1.2-2.3
				c-0.3-0.7-0.6-1.6-1.1-2.3c-0.1-0.2-0.5-0.1-0.5,0.1c-0.2,0.9,0.2,1.7,0.5,2.5c0.4,0.8,0.8,1.6,1.3,2.3c0.5,0.7,1,1.4,1.6,2.1
				c0.3,0.4,0.6,0.7,0.9,1c0.4,0.4,0.8,0.7,1.1,1.1C1214.5,275.1,1214.8,274.9,1214.7,274.7L1214.7,274.7z"/>
		</g>
		<g>
			<path class="st48" d="M1211.4,282c0.3,0.2,0.7,0.3,1,0.3c0.4,0.1,0.7,0.2,1.1,0.2c0.7,0.1,1.5,0.2,2.3,0.3c1.4,0.1,2.9,0,4.2-0.7
				c0.1-0.1,0.1-0.2-0.1-0.3c-1.4-0.1-2.8-0.1-4.2-0.2c-0.7-0.1-1.3-0.2-2-0.3c-0.4-0.1-0.7-0.1-1.1-0.2c-0.4-0.1-0.7-0.2-1.1-0.1
				C1211.1,281.3,1211,281.8,1211.4,282L1211.4,282z"/>
		</g>
		<g>
			<path class="st48" d="M1210.7,282.9c-1.3-1-2.1-2.2-3.1-3.5c-0.6-0.7-1.1-1.5-1.5-2.2c-0.4-0.7-0.8-1.5-1.3-2.1
				c-0.1-0.1-0.4,0-0.4,0.1c0,0.5,0.1,0.8,0.3,1.2c0.2,0.5,0.5,0.9,0.7,1.3c0.5,0.8,1.1,1.6,1.6,2.3c0.5,0.7,1.1,1.4,1.7,2
				c0.5,0.5,1.1,1,1.8,1C1210.7,283.2,1210.8,283,1210.7,282.9L1210.7,282.9z"/>
		</g>
		<g>
			<path class="st48" d="M1207.8,289.7c0.2,0.3,0.6,0.4,0.9,0.5c0.2,0.1,0.5,0.1,0.7,0.2c0.3,0.1,0.6,0.1,0.9,0.1c0.2,0,0.3,0,0.5,0
				c0.3,0,0.4-0.1,0.6-0.3c-0.1,0.1-0.2,0.2-0.4,0.3c0.3-0.1,0.6-0.1,0.8-0.1c0.2,0,0.3-0.1,0.4-0.2c0.1-0.1,0.2-0.2,0.3-0.3
				c0-0.1,0-0.2,0-0.2c-0.2-0.2-0.5-0.2-0.8-0.3c-0.1,0-0.3,0-0.4,0c-0.1,0-0.1,0-0.2,0c0,0-0.2,0-0.1,0c0.1,0.1,0.2,0.2,0.3,0.3
				c-0.1-0.1-0.1-0.2-0.2-0.3c-0.1-0.1-0.2-0.1-0.3-0.1c0,0,0,0,0,0c-0.1,0-0.2,0-0.3-0.1c-0.3-0.1-0.6-0.1-0.9-0.1
				c-0.2,0-0.5-0.1-0.7-0.1c-0.3,0-0.6-0.1-0.9,0C1207.8,289.1,1207.7,289.4,1207.8,289.7L1207.8,289.7z"/>
		</g>
		<g>
			<path class="st48" d="M1207.2,290.8c-0.7-0.5-1.1-1.3-1.5-2.1c-0.2-0.5-0.4-0.9-0.6-1.4c-0.1-0.2-0.2-0.5-0.4-0.7
				c-0.1-0.2-0.3-0.5-0.5-0.7c-0.2-0.1-0.5,0-0.5,0.2c-0.1,0.3,0.1,0.6,0.2,0.9c0.1,0.3,0.2,0.6,0.4,0.9c0.2,0.5,0.5,1,0.7,1.5
				c0.5,0.8,1.2,1.7,2.2,1.7C1207.3,291.1,1207.3,290.9,1207.2,290.8L1207.2,290.8z"/>
		</g>
	</g>
</g>
<g>
	<path class="st49" d="M1210.2,283.6c0.2,0.3,0.3,0.7,0.3,1.1c0,1.7-0.7,3.4-1.3,5c0.1,0.6-0.7,1.8-0.9,2.3
		c-0.3,0.7-0.7,1.5-1.1,2.2c-2.6,3.6-7.4,4.1-11.3,2.4c-1.2-0.6-5.2-2.1-4-4.1c0.4-0.6,1.1-0.8,1.8-0.7c0.7,0,1.4,0.2,2,0
		c0.7-0.2,1.3-0.8,1.1-1.5c-0.2-0.6-0.8-0.8-1.4-0.9c-0.9-0.1-1.8,0-2.7-0.1c-0.9-0.1-1.9-0.3-2.5-1c-0.6-0.7-0.6-1.9,0.1-2.4
		c0.9-0.7,2-0.1,3-0.8c0.6-0.3,0.7-0.7,0.6-0.9c-0.4-1.1-2.2-1.2-3.1-1.5c-1.5-0.4-4.2-1.4-4.7-3.1c-0.6-2.4,4.3-1.2,5.3-1.3
		c0.2,0,0.5-0.1,0.6-0.3c0.5-0.5,0.1-0.8-0.5-1.2c-2.4-1.8-6.5-1.5-8.5-3.7c-0.3-0.3-0.5-0.6-0.4-1c0.1-0.3,0.4-0.5,0.7-0.6
		c0.8-0.2,2.2-0.2,3-0.1c0.8,0,1.8-0.7,1.5-1.5c-0.2-0.4-0.8-0.5-1.2-0.6c-1.9-0.3-3.7-0.4-5.6-0.7c-0.8-0.1-1.7-0.4-2.1-1
		c-0.6-0.8-0.1-2,0.7-2c1.1,0,2.2,0,3.3-0.1c0.3,0,0.6-0.1,0.8-0.3c0.4-0.5-0.4-1.1-1.1-1.2c-1.4-0.3-2.8-0.7-4.2-1
		c-0.7-0.2-1.4-0.3-1.9-0.8c-0.5-0.4-0.8-1.3-0.4-1.8c0.5-0.8,1.8-0.5,2.7-0.2c0.9,0.3,2.3,0.3,2.5-0.7c0.1-0.4-0.1-0.9-0.4-1.2
		c-0.6-0.7-1.5-1.2-2.2-1.8c-0.7-0.6-1.2-1.7-0.8-2.5c0.4-0.9,1.7-1.2,2.6-0.8c0.9,0.4,1.6,1.2,2.3,2c0.7,0.8,1.4,1.6,2.3,1.9
		c0.1,0,0.3,0.1,0.4,0c0.2-0.1,0.3-0.3,0.4-0.5c0.4-1.2-0.1-2.8,0.9-3.6c0.6-0.4,1.5-0.2,2.1,0.3c0.5,0.5,0.8,1.3,0.9,2
		c0.3,1.9-0.3,3.9-0.7,5.8c-0.1,0.4-0.2,1,0,1.3c0.4,0.6,1.4,0.4,1.9-0.1s0.5-1.3,0.7-2c0.1-0.7,0.4-1.5,1-1.9
		c1.1-0.6,2.5,0.5,2.7,1.7c0.2,1.2-0.3,2.4-0.7,3.6c-0.5,1.4-1.5,3.2-1.2,4.7c0.2,0.9,1,1,1.7,0.4c1.3-1.2,1.3-5,3.6-4.8
		c0.6,0,1.2,1.3,1.3,1.9c0.1,1.8-0.8,3.4-1.4,5c-0.2,0.5-1.2,4.7,0.5,4.1c0.2-0.1,0.4-0.3,0.5-0.5c0.4-0.6,0.8-2.1,1.2-2.7
		c1.1-1.6,3-1,3.4,0.7c0.3,1.3-0.8,3-1.4,4.1c-0.6,1.2-1.1,2.6-1.3,3.9c0,0.2,0,0.5,0.1,0.7c0.2,0.2,0.5,0.2,0.8,0
		c1.2-0.6,1.4-2,2.3-2.9c0.7-0.7,1.9-1.3,2.4-0.2c1.6,3.2-2,5.7-3,8.4c-0.3,0.7,0,1.3,0.8,1c0.7-0.3,1.2-0.9,1.6-1.5
		c0.5-0.8,0.9-1.6,1.6-2.3c0.3-0.3,0.8-0.6,1.3-0.5C1209.8,283.2,1210,283.3,1210.2,283.6z"/>
	<g>
		<g>
			<path class="st48" d="M1178,252.8c7,5.5,11.5,13.3,16,20.8c2.3,4,4.6,8,6.6,12.2c2,4.2,3.5,8.5,5,12.8c0.3,0.9-1.2,1.4-1.5,0.4
				c-1.5-4.4-3-8.8-5-13c-1.9-4-4.1-7.9-6.3-11.7C1188.5,266.8,1183.7,259.4,1178,252.8C1177.8,252.9,1177.9,252.8,1178,252.8
				L1178,252.8z"/>
		</g>
		<g>
			<path class="st48" d="M1185.8,262c0-0.1,0-0.3,0.1-0.4c0-0.1,0.1-0.2,0.1-0.3c0.1-0.2,0.2-0.5,0.3-0.7c0.2-0.5,0.3-0.9,0.5-1.4
				c0.1-0.5,0.2-1,0.4-1.4c0.1-0.5,0.3-1,0.6-1.3c0.1-0.1,0.3-0.1,0.4,0.1c0.1,0.5,0.1,1,0,1.5c-0.1,0.5-0.3,1-0.4,1.5
				c-0.2,0.5-0.3,1-0.6,1.4c-0.1,0.2-0.2,0.5-0.4,0.7c-0.1,0.1-0.1,0.2-0.2,0.3c-0.1,0.1-0.2,0.2-0.3,0.3
				C1186,262.4,1185.7,262.3,1185.8,262L1185.8,262z"/>
		</g>
		<g>
			<path class="st48" d="M1189.1,267.4c-0.2,0.1-0.5,0.1-0.7,0.1c-0.2,0-0.5,0-0.7,0c-0.5,0-1,0-1.5,0c-0.5,0-1-0.1-1.5-0.2
				c-0.2,0-0.5-0.1-0.7-0.1c-0.2,0-0.5-0.1-0.6-0.2c-0.1-0.1-0.1-0.3,0-0.4c0.2-0.1,0.4-0.1,0.7,0c0.2,0,0.5,0,0.7,0
				c0.5,0,0.9,0,1.4,0c0.5,0,0.9,0,1.4,0c0.2,0,0.5,0,0.7,0c0.2,0,0.5,0,0.7,0C1189.5,266.8,1189.5,267.3,1189.1,267.4L1189.1,267.4
				z"/>
		</g>
		<g>
			<path class="st48" d="M1185.1,260.8c-0.1,0.1-0.1,0.1-0.2,0.1c-0.1,0-0.2,0.1-0.2,0.1c-0.1,0-0.3,0.1-0.4,0.1
				c-0.3,0.1-0.6,0.1-1,0.1c-0.3,0-0.6,0.1-0.9,0c-0.2,0-0.3,0-0.5-0.1c-0.2,0-0.3,0-0.4-0.2c0-0.1,0-0.2,0-0.2
				c0.1-0.1,0.2-0.1,0.4-0.1c0.2,0,0.3-0.1,0.5-0.1c0.3,0,0.6,0,0.9-0.1c0.3,0,0.6-0.1,0.9-0.1c0.1,0,0.3,0,0.4-0.1
				c0.1,0,0.2,0,0.2,0c0.1,0,0.2,0,0.3,0C1185.2,260.4,1185.3,260.7,1185.1,260.8L1185.1,260.8z"/>
		</g>
		<g>
			<path class="st48" d="M1189.9,268.3c0.5-0.9,1-1.8,1.4-2.8c0.2-0.5,0.5-0.9,0.7-1.4c0.2-0.5,0.5-0.9,0.8-1.3
				c0.2-0.2,0.4,0,0.4,0.2c-0.1,0.5-0.2,1-0.4,1.5c-0.2,0.5-0.5,1-0.8,1.4c-0.5,0.9-1.1,1.8-1.8,2.6
				C1190.1,268.7,1189.8,268.5,1189.9,268.3L1189.9,268.3z"/>
		</g>
		<g>
			<path class="st48" d="M1193.1,273.3c-0.2,0.4-0.8,0.4-1.2,0.4c-0.5,0.1-0.9,0-1.4,0c-0.5,0-0.9-0.1-1.4-0.1
				c-0.2,0-0.5-0.1-0.7-0.1c-0.2,0-0.5,0-0.7-0.1c-0.1,0-0.1-0.1,0-0.2c0.4-0.1,0.9-0.1,1.3-0.1c0.4,0,0.9,0,1.3,0
				c0.4,0,0.9-0.1,1.3-0.1c0.2,0,0.4-0.1,0.6-0.1c0.2,0,0.4-0.1,0.6,0C1193.1,273.1,1193.1,273.2,1193.1,273.3L1193.1,273.3z"/>
		</g>
		<g>
			<path class="st48" d="M1193.7,274.3C1193.7,274.3,1193.7,274.2,1193.7,274.3C1193.8,274.2,1193.8,274.3,1193.7,274.3
				L1193.7,274.3z"/>
		</g>
		<g>
			<path class="st48" d="M1193.6,274.4c0.8-1.1,1.7-2,2.4-3.1c0.7-1.1,1.3-2.3,1.9-3.5c0.1-0.2,0.4-0.1,0.4,0.1
				c-0.3,1.4-0.9,2.6-1.6,3.8c-0.7,1.1-1.6,2.3-2.8,3C1193.7,274.8,1193.5,274.5,1193.6,274.4L1193.6,274.4z"/>
		</g>
		<g>
			<path class="st48" d="M1197.1,280.4c0,0.2-0.3,0.3-0.5,0.4c-0.2,0.1-0.5,0.1-0.7,0.2c-0.5,0.1-1,0.1-1.4,0.2c-0.5,0-1,0-1.5-0.1
				c-0.2,0-0.5-0.1-0.7-0.1c-0.2,0-0.5-0.1-0.7-0.2c-0.2-0.1-0.2-0.4,0-0.4c0.2,0,0.5-0.1,0.7,0c0.2,0,0.5,0,0.7,0
				c0.5,0,0.9,0,1.4,0c0.5,0,0.9,0,1.4-0.1c0.2,0,0.5-0.1,0.7-0.1c0.2-0.1,0.5-0.1,0.7,0C1197.1,280.2,1197.1,280.3,1197.1,280.4
				L1197.1,280.4z"/>
		</g>
		<g>
			<path class="st48" d="M1197.2,280.9c0.4-0.5,0.7-1.1,1.1-1.6c0.4-0.5,0.8-1.1,1.1-1.7c0.3-0.5,0.7-1.1,0.9-1.7
				c0.3-0.6,0.4-1.2,0.8-1.7c0.1-0.1,0.3-0.1,0.4,0.1c0.1,0.6-0.2,1.3-0.4,1.9c-0.3,0.6-0.6,1.2-1,1.8c-0.4,0.6-0.8,1.1-1.2,1.6
				c-0.2,0.3-0.4,0.5-0.7,0.8c-0.3,0.3-0.6,0.5-0.8,0.8C1197.4,281.2,1197.1,281,1197.2,280.9L1197.2,280.9z"/>
		</g>
		<g>
			<path class="st48" d="M1199.8,286.4c-0.2,0.2-0.5,0.2-0.8,0.3c-0.3,0.1-0.5,0.1-0.8,0.2c-0.6,0.1-1.1,0.2-1.7,0.2
				c-1.1,0.1-2.2,0-3.2-0.6c-0.1-0.1-0.1-0.2,0-0.2c1,0,2.1,0,3.1-0.1c0.5-0.1,1-0.1,1.5-0.2c0.3,0,0.5-0.1,0.8-0.1
				c0.3-0.1,0.5-0.1,0.8-0.1C1200,285.8,1200,286.2,1199.8,286.4L1199.8,286.4z"/>
		</g>
		<g>
			<path class="st48" d="M1200.3,287.1c1-0.7,1.6-1.7,2.3-2.6c0.4-0.5,0.8-1.1,1.2-1.7c0.3-0.5,0.6-1.1,1-1.6c0.1-0.1,0.3,0,0.3,0.1
				c0,0.4-0.1,0.6-0.2,0.9c-0.2,0.3-0.4,0.7-0.5,1c-0.4,0.6-0.8,1.2-1.2,1.8c-0.4,0.5-0.8,1.1-1.3,1.5c-0.4,0.4-0.8,0.7-1.4,0.8
				C1200.2,287.3,1200.2,287.1,1200.3,287.1L1200.3,287.1z"/>
		</g>
		<g>
			<path class="st48" d="M1202.4,292.2c-0.1,0.2-0.4,0.3-0.7,0.4c-0.2,0.1-0.4,0.1-0.5,0.1c-0.2,0-0.4,0.1-0.7,0.1
				c-0.1,0-0.2,0-0.4,0c-0.2,0-0.3-0.1-0.4-0.3c0.1,0.1,0.2,0.1,0.3,0.2c-0.2-0.1-0.4-0.1-0.6-0.1c-0.1,0-0.2-0.1-0.3-0.1
				c-0.1-0.1-0.2-0.1-0.2-0.2c0,0,0-0.1,0-0.2c0.2-0.1,0.4-0.2,0.6-0.2c0.1,0,0.2,0,0.3,0c0,0,0.1,0,0.1,0c0,0,0.2,0,0.1,0
				c-0.1,0.1-0.2,0.1-0.3,0.2c0.1-0.1,0.1-0.1,0.2-0.2c0.1,0,0.1-0.1,0.2-0.1c0,0,0,0,0,0c0.1,0,0.2,0,0.3,0c0.2,0,0.4-0.1,0.6-0.1
				c0.2,0,0.4,0,0.5-0.1c0.2,0,0.5-0.1,0.7,0C1202.5,291.7,1202.5,291.9,1202.4,292.2L1202.4,292.2z"/>
		</g>
		<g>
			<path class="st48" d="M1202.9,293c0.5-0.4,0.8-1,1.1-1.6c0.2-0.3,0.3-0.7,0.5-1c0.1-0.2,0.2-0.4,0.3-0.6c0.1-0.2,0.2-0.4,0.4-0.5
				c0.1-0.1,0.3,0,0.4,0.2c0.1,0.2,0,0.4-0.1,0.7c-0.1,0.2-0.2,0.5-0.3,0.7c-0.2,0.4-0.3,0.8-0.5,1.1c-0.3,0.6-0.9,1.3-1.6,1.3
				C1202.8,293.2,1202.8,293.1,1202.9,293L1202.9,293z"/>
		</g>
	</g>
</g>
<g>
	<path class="st47" d="M26.6,279.7c-0.3,0.4-0.4,1-0.4,1.5c-0.1,2.3,1,4.5,1.8,6.6c-0.1,0.8,0.9,2.4,1.2,3.1c0.4,1,0.9,1.9,1.4,2.9
		c3.5,4.7,9.9,5.5,15,3.2c1.6-0.7,6.9-2.8,5.3-5.4c-0.5-0.8-1.5-1-2.4-1c-0.9,0-1.8,0.3-2.7,0c-0.9-0.2-1.7-1.1-1.5-1.9
		c0.2-0.7,1.1-1.1,1.8-1.2c1.2-0.2,2.4-0.1,3.7-0.1c1.2-0.1,2.5-0.4,3.3-1.4c0.8-0.9,0.8-2.5-0.2-3.2c-1.2-0.9-2.6-0.2-4-1
		c-0.7-0.5-0.9-0.9-0.8-1.3c0.5-1.4,3-1.6,4.2-2c2-0.5,5.6-1.8,6.2-4.1c0.8-3.1-5.7-1.6-7.1-1.8c-0.3,0-0.6-0.1-0.8-0.3
		c-0.7-0.6-0.1-1,0.6-1.6c3.2-2.4,8.6-2,11.4-4.9c0.3-0.4,0.7-0.9,0.5-1.3c-0.1-0.4-0.5-0.7-0.9-0.8c-1.1-0.3-2.9-0.2-4-0.2
		c-1.1,0-2.4-0.9-1.9-1.9c0.3-0.6,1-0.7,1.6-0.8c2.5-0.4,5-0.6,7.4-0.9c1-0.1,2.2-0.6,2.9-1.4c0.8-1,0.2-2.6-0.9-2.6
		c-1.5,0-3-0.1-4.4-0.2c-0.4,0-0.8-0.1-1.1-0.4c-0.5-0.7,0.6-1.5,1.4-1.6c1.9-0.4,3.7-0.9,5.6-1.3c0.9-0.2,1.8-0.4,2.5-1
		c0.7-0.6,1-1.7,0.5-2.4c-0.7-1.1-2.3-0.7-3.6-0.3c-1.2,0.4-3,0.3-3.3-0.9c-0.1-0.6,0.2-1.2,0.6-1.6c0.8-1,2-1.6,2.9-2.4
		c0.9-0.9,1.6-2.2,1.1-3.3c-0.5-1.2-2.3-1.6-3.5-1.1c-1.3,0.5-2.2,1.6-3,2.6c-0.9,1-1.8,2.1-3.1,2.5c-0.2,0.1-0.4,0.1-0.6,0
		c-0.3-0.1-0.4-0.4-0.5-0.7c-0.5-1.6,0.1-3.8-1.2-4.7c-0.8-0.6-2-0.3-2.8,0.4c-0.7,0.7-1,1.7-1.2,2.7c-0.3,2.6,0.3,5.1,1,7.6
		c0.2,0.6,0.3,1.3,0,1.8c-0.5,0.8-1.9,0.6-2.5-0.2c-0.6-0.7-0.7-1.8-0.9-2.7c-0.2-0.9-0.5-2-1.3-2.5c-1.4-0.9-3.3,0.6-3.6,2.3
		c-0.3,1.6,0.4,3.3,1,4.8c0.6,1.9,2.1,4.2,1.6,6.3c-0.3,1.2-1.4-0.2-2.2,0.5c-7.9,7.1-1.7-6.7-4.7-6.4c-0.8,0.1-1.6,1.7-1.7,2.5
		c-0.2,2.3,1.1,4.5,1.9,6.6c0.3,0.7,1.5,6.3-0.6,5.4c-0.3-0.1-0.5-0.4-0.7-0.7c-0.5-0.8-1-2.8-1.5-3.5c-1.5-2.1-4-1.4-4.6,0.9
		c-0.4,1.7,1,4,1.9,5.5c0.8,1.6,1.4,3.4,1.7,5.2c0,0.3,0.1,0.7-0.2,0.9c-0.3,0.3-0.7,0.2-1.1,0c-1.6-0.8-1.9-2.7-3-3.9
		c-0.9-0.9-2.5-1.7-3.2-0.2c-2.1,4.2,2.7,7.5,3.9,11.1c0.3,1,0,1.8-1.1,1.3c-0.9-0.3-1.6-1.2-2.2-2c-0.7-1-1.3-2.1-2.1-3
		c-0.5-0.4-1.1-0.8-1.7-0.7C27.1,279.3,26.8,279.4,26.6,279.7z"/>
	<g>
		<g>
			<path class="st48" d="M69.4,238.9c-9.3,7.3-15.3,17.6-21.2,27.7c-3.1,5.3-6.1,10.6-8.7,16.2c-2.6,5.5-4.6,11.3-6.7,17.1
				c-0.4,1.2,1.5,1.8,2,0.6c2-5.9,4-11.7,6.7-17.3c2.5-5.3,5.5-10.4,8.3-15.6c5.7-10.1,12-19.9,19.8-28.5
				C69.6,238.9,69.5,238.9,69.4,238.9L69.4,238.9z"/>
		</g>
		<g>
			<path class="st48" d="M59,251.1c-0.1-0.2-0.1-0.3-0.1-0.5c-0.1-0.1-0.1-0.3-0.2-0.4c-0.1-0.3-0.3-0.6-0.4-0.9
				c-0.2-0.6-0.4-1.2-0.6-1.8c-0.2-0.6-0.3-1.3-0.5-1.9c-0.2-0.6-0.4-1.3-0.8-1.8c-0.2-0.2-0.5-0.1-0.5,0.1
				c-0.2,0.6-0.1,1.3,0.1,1.9c0.2,0.7,0.4,1.4,0.6,2c0.2,0.6,0.5,1.3,0.7,1.9c0.1,0.3,0.3,0.6,0.5,0.9c0.1,0.1,0.2,0.3,0.3,0.4
				c0.1,0.2,0.3,0.2,0.4,0.4C58.6,251.6,59.1,251.4,59,251.1L59,251.1z"/>
		</g>
		<g>
			<path class="st48" d="M54.6,258.3c0.3,0.1,0.7,0.1,1,0.1c0.3,0,0.7,0,1,0c0.6,0,1.3,0,1.9,0c0.7,0,1.3-0.1,2-0.2
				c0.3,0,0.6-0.1,1-0.2c0.3-0.1,0.6-0.1,0.9-0.3c0.1-0.1,0.1-0.4-0.1-0.5c-0.3-0.1-0.6-0.1-0.9-0.1c-0.3,0-0.6,0-1,0.1
				c-0.6,0-1.3,0-1.9,0.1c-0.6,0-1.3,0.1-1.9,0.1c-0.3,0-0.7,0-1,0c-0.3,0-0.7-0.1-1,0C54.1,257.4,54.1,258.1,54.6,258.3L54.6,258.3
				z"/>
		</g>
		<g>
			<path class="st48" d="M59.9,249.5c0.1,0.1,0.2,0.1,0.3,0.2c0.1,0.1,0.2,0.1,0.3,0.1c0.2,0.1,0.4,0.1,0.6,0.1
				c0.4,0.1,0.9,0.2,1.3,0.2c0.4,0,0.8,0.1,1.2,0c0.2,0,0.4,0,0.6-0.1c0.2,0,0.4-0.1,0.6-0.2c0.1-0.1,0-0.2,0-0.3
				c-0.1-0.1-0.3-0.1-0.5-0.2c-0.2,0-0.4-0.1-0.6-0.1c-0.4-0.1-0.8-0.1-1.2-0.1c-0.4,0-0.8-0.1-1.1-0.2c-0.2,0-0.4-0.1-0.5-0.1
				c-0.1,0-0.2-0.1-0.3-0.1c-0.1,0-0.2,0-0.3,0C59.8,249,59.7,249.4,59.9,249.5L59.9,249.5z"/>
		</g>
		<g>
			<path class="st48" d="M53.5,259.5c-0.6-1.2-1.3-2.4-1.9-3.7c-0.3-0.6-0.6-1.2-0.9-1.9c-0.3-0.6-0.6-1.2-1.1-1.7
				c-0.2-0.3-0.5,0-0.5,0.3c0.1,0.7,0.3,1.3,0.6,2c0.3,0.6,0.7,1.3,1,1.9c0.7,1.2,1.5,2.4,2.4,3.4C53.2,260,53.6,259.8,53.5,259.5
				L53.5,259.5z"/>
		</g>
		<g>
			<path class="st48" d="M49.3,266.1c0.3,0.5,1,0.5,1.5,0.6c0.6,0.1,1.2,0,1.8,0c0.6,0,1.2-0.1,1.8-0.2c0.3,0,0.6-0.1,0.9-0.1
				c0.3,0,0.6-0.1,0.9-0.2c0.1,0,0.1-0.2,0-0.2c-0.6-0.1-1.2-0.1-1.8-0.1c-0.6,0-1.2,0-1.8,0c-0.6,0-1.1-0.1-1.7-0.2
				c-0.3,0-0.5-0.1-0.8-0.1c-0.3-0.1-0.5-0.1-0.8,0C49.3,265.8,49.2,266,49.3,266.1L49.3,266.1z"/>
		</g>
		<g>
			<path class="st48" d="M48.4,267.4C48.4,267.3,48.4,267.3,48.4,267.4C48.3,267.3,48.4,267.4,48.4,267.4L48.4,267.4z"/>
		</g>
		<g>
			<path class="st48" d="M48.6,267.5c-1-1.4-2.2-2.7-3.2-4.2c-1-1.5-1.8-3.1-2.6-4.6c-0.1-0.3-0.5-0.1-0.5,0.2
				c0.4,1.8,1.2,3.5,2.2,5c1,1.5,2.1,3,3.7,4C48.4,268,48.8,267.7,48.6,267.5L48.6,267.5z"/>
		</g>
		<g>
			<path class="st48" d="M44,275.5c0.1,0.3,0.4,0.5,0.7,0.5c0.3,0.1,0.6,0.2,0.9,0.2c0.6,0.1,1.3,0.2,1.9,0.2c0.7,0,1.3-0.1,2-0.1
				c0.3,0,0.7-0.1,1-0.1c0.3-0.1,0.6-0.2,1-0.3c0.3-0.1,0.2-0.5,0-0.5c-0.3,0-0.6-0.1-0.9-0.1c-0.3,0-0.6,0-0.9,0.1
				c-0.6,0-1.3,0-1.9,0c-0.6,0-1.2,0-1.8-0.1c-0.3,0-0.6-0.1-0.9-0.2c-0.3-0.1-0.6-0.2-0.9,0C44,275.3,43.9,275.4,44,275.5L44,275.5
				z"/>
		</g>
		<g>
			<path class="st48" d="M43.7,276.2c-0.5-0.7-0.9-1.5-1.4-2.2c-0.5-0.7-1-1.4-1.5-2.2c-0.4-0.7-0.9-1.5-1.2-2.3
				c-0.3-0.7-0.6-1.6-1.1-2.3c-0.1-0.2-0.5-0.1-0.5,0.1c-0.2,0.9,0.2,1.7,0.5,2.5c0.4,0.8,0.8,1.6,1.3,2.3c0.5,0.7,1,1.4,1.6,2.1
				c0.3,0.4,0.6,0.7,0.9,1c0.4,0.4,0.8,0.7,1.1,1.1C43.6,276.6,43.9,276.4,43.7,276.2L43.7,276.2z"/>
		</g>
		<g>
			<path class="st48" d="M40.4,283.5c0.3,0.2,0.7,0.3,1,0.3c0.4,0.1,0.7,0.2,1.1,0.2c0.7,0.1,1.5,0.2,2.3,0.3c1.4,0.1,2.9,0,4.2-0.7
				c0.1-0.1,0.1-0.2-0.1-0.3c-1.4-0.1-2.8-0.1-4.2-0.2c-0.7-0.1-1.3-0.2-2-0.3c-0.4-0.1-0.7-0.1-1.1-0.2c-0.4-0.1-0.7-0.2-1.1-0.1
				C40.1,282.7,40.1,283.3,40.4,283.5L40.4,283.5z"/>
		</g>
		<g>
			<path class="st48" d="M39.7,284.4c-1.3-1-2.1-2.2-3.1-3.5c-0.6-0.7-1.1-1.5-1.5-2.2c-0.4-0.7-0.8-1.5-1.3-2.1
				c-0.1-0.1-0.4,0-0.4,0.1c0,0.5,0.1,0.8,0.3,1.2c0.2,0.5,0.5,0.9,0.7,1.3c0.5,0.8,1.1,1.6,1.6,2.3c0.5,0.7,1.1,1.4,1.7,2
				c0.5,0.5,1.1,1,1.8,1C39.8,284.7,39.8,284.4,39.7,284.4L39.7,284.4z"/>
		</g>
		<g>
			<path class="st48" d="M36.9,291.1c0.2,0.3,0.6,0.4,0.9,0.5c0.2,0.1,0.5,0.1,0.7,0.2c0.3,0.1,0.6,0.1,0.9,0.1c0.2,0,0.3,0,0.5,0
				c0.3,0,0.4-0.1,0.6-0.3c-0.1,0.1-0.2,0.2-0.4,0.3c0.3-0.1,0.6-0.1,0.8-0.1c0.2,0,0.3-0.1,0.4-0.2c0.1-0.1,0.2-0.2,0.3-0.3
				c0-0.1,0-0.2,0-0.2c-0.2-0.2-0.5-0.2-0.8-0.3c-0.1,0-0.3,0-0.4,0c-0.1,0-0.1,0-0.2,0c0,0-0.2,0-0.1,0c0.1,0.1,0.2,0.2,0.3,0.3
				c-0.1-0.1-0.1-0.2-0.2-0.3c-0.1-0.1-0.2-0.1-0.3-0.1c0,0,0,0,0,0c-0.1,0-0.2,0-0.3-0.1c-0.3-0.1-0.6-0.1-0.9-0.1
				c-0.2,0-0.5-0.1-0.7-0.1c-0.3,0-0.6-0.1-0.9,0C36.8,290.6,36.7,290.8,36.9,291.1L36.9,291.1z"/>
		</g>
		<g>
			<path class="st48" d="M36.2,292.3c-0.7-0.5-1.1-1.3-1.5-2.1c-0.2-0.5-0.4-0.9-0.6-1.4c-0.1-0.2-0.2-0.5-0.4-0.7
				c-0.1-0.2-0.3-0.5-0.5-0.7c-0.2-0.1-0.5,0-0.5,0.2c-0.1,0.3,0.1,0.6,0.2,0.9c0.1,0.3,0.2,0.6,0.4,0.9c0.2,0.5,0.5,1,0.7,1.5
				c0.5,0.8,1.2,1.7,2.2,1.7C36.3,292.6,36.3,292.4,36.2,292.3L36.2,292.3z"/>
		</g>
	</g>
</g>
<g>
	<path class="st49" d="M39.2,285c0.2,0.3,0.3,0.7,0.3,1.1c0,1.7-0.7,3.4-1.3,5c0.1,0.6-0.7,1.8-0.9,2.3c-0.3,0.7-0.7,1.5-1.1,2.2
		c-2.6,3.6-7.4,4.1-11.3,2.4c-1.2-0.6-5.2-2.1-4-4.1c0.4-0.6,1.1-0.8,1.8-0.7c0.7,0,1.4,0.2,2,0c0.7-0.2,1.3-0.8,1.1-1.5
		c-0.2-0.6-0.8-0.8-1.4-0.9c-0.9-0.1-1.8,0-2.7-0.1c-0.9-0.1-1.9-0.3-2.5-1c-0.6-0.7-0.6-1.9,0.1-2.4c0.9-0.7,2-0.1,3-0.8
		c0.6-0.3,0.7-0.7,0.6-0.9c-0.4-1.1-2.2-1.2-3.1-1.5c-1.5-0.4-4.2-1.4-4.7-3.1c-0.6-2.4,4.3-1.2,5.3-1.3c0.2,0,0.5-0.1,0.6-0.3
		c0.5-0.5,0.1-0.8-0.5-1.2c-2.4-1.8-6.5-1.5-8.5-3.7c-0.3-0.3-0.5-0.6-0.4-1c0.1-0.3,0.4-0.5,0.7-0.6c0.8-0.2,2.2-0.2,3-0.1
		c0.8,0,1.8-0.7,1.5-1.5c-0.2-0.4-0.8-0.5-1.2-0.6c-1.9-0.3-3.7-0.4-5.6-0.7c-0.8-0.1-1.7-0.4-2.1-1c-0.6-0.8-0.1-2,0.7-2
		c1.1,0,2.2,0,3.3-0.1c0.3,0,0.6-0.1,0.8-0.3c0.4-0.5-0.4-1.1-1.1-1.2c-1.4-0.3-2.8-0.7-4.2-1c-0.7-0.2-1.4-0.3-1.9-0.8
		c-0.5-0.4-0.8-1.3-0.4-1.8c0.5-0.8,1.8-0.5,2.7-0.2c0.9,0.3,2.3,0.3,2.5-0.7c0.1-0.4-0.1-0.9-0.4-1.2c-0.6-0.7-1.5-1.2-2.2-1.8
		c-0.7-0.6-1.2-1.7-0.8-2.5c0.4-0.9,1.7-1.2,2.6-0.8c0.9,0.4,1.6,1.2,2.3,2c0.7,0.8,1.4,1.6,2.3,1.9c0.1,0,0.3,0.1,0.4,0
		c0.2-0.1,0.3-0.3,0.4-0.5c0.4-1.2-0.1-2.8,0.9-3.6c0.6-0.4,1.5-0.2,2.1,0.3c0.5,0.5,0.8,1.3,0.9,2c0.3,1.9-0.3,3.9-0.7,5.8
		c-0.1,0.4-0.2,1,0,1.3c0.4,0.6,1.4,0.4,1.9-0.1c0.5-0.6,0.5-1.3,0.7-2c0.1-0.7,0.4-1.5,1-1.9c1.1-0.6,2.5,0.5,2.7,1.7
		c0.2,1.2-0.3,2.4-0.7,3.6c-0.5,1.4-1.5,3.2-1.2,4.7c0.2,0.9,1,1,1.7,0.4c1.3-1.2,1.3-5,3.6-4.8c0.6,0,1.2,1.3,1.3,1.9
		c0.1,1.8-0.8,3.4-1.4,5c-0.2,0.5-1.2,4.7,0.5,4.1c0.2-0.1,0.4-0.3,0.5-0.5c0.4-0.6,0.8-2.1,1.2-2.7c1.1-1.6,3-1,3.4,0.7
		c0.3,1.3-0.8,3-1.4,4.1c-0.6,1.2-1.1,2.6-1.3,3.9c0,0.2,0,0.5,0.1,0.7c0.2,0.2,0.5,0.2,0.8,0c1.2-0.6,1.4-2,2.3-2.9
		c0.7-0.7,1.9-1.3,2.4-0.2c1.6,3.2-2,5.7-3,8.4c-0.3,0.7,0,1.3,0.8,1c0.7-0.3,1.2-0.9,1.6-1.5c0.5-0.8,0.9-1.6,1.6-2.3
		c0.3-0.3,0.8-0.6,1.3-0.5C38.8,284.7,39.1,284.8,39.2,285z"/>
	<g>
		<g>
			<path class="st48" d="M7,254.3c7,5.5,11.5,13.3,16,20.8c2.3,4,4.6,8,6.6,12.2c2,4.2,3.5,8.5,5,12.8c0.3,0.9-1.2,1.4-1.5,0.4
				c-1.5-4.4-3-8.8-5-13c-1.9-4-4.1-7.9-6.3-11.7C17.6,268.2,12.8,260.9,7,254.3C6.9,254.3,6.9,254.3,7,254.3L7,254.3z"/>
		</g>
		<g>
			<path class="st48" d="M14.9,263.5c0-0.1,0-0.3,0.1-0.4c0-0.1,0.1-0.2,0.1-0.3c0.1-0.2,0.2-0.5,0.3-0.7c0.2-0.5,0.3-0.9,0.5-1.4
				c0.1-0.5,0.2-1,0.4-1.4c0.1-0.5,0.3-1,0.6-1.3c0.1-0.1,0.3-0.1,0.4,0.1c0.1,0.5,0.1,1,0,1.5c-0.1,0.5-0.3,1-0.4,1.5
				c-0.2,0.5-0.3,1-0.6,1.4c-0.1,0.2-0.2,0.5-0.4,0.7c-0.1,0.1-0.1,0.2-0.2,0.3c-0.1,0.1-0.2,0.2-0.3,0.3
				C15.1,263.8,14.8,263.7,14.9,263.5L14.9,263.5z"/>
		</g>
		<g>
			<path class="st48" d="M18.2,268.9c-0.2,0.1-0.5,0.1-0.7,0.1c-0.2,0-0.5,0-0.7,0c-0.5,0-1,0-1.5,0c-0.5,0-1-0.1-1.5-0.2
				c-0.2,0-0.5-0.1-0.7-0.1c-0.2,0-0.5-0.1-0.6-0.2c-0.1-0.1-0.1-0.3,0-0.4c0.2-0.1,0.4-0.1,0.7,0c0.2,0,0.5,0,0.7,0
				c0.5,0,0.9,0,1.4,0c0.5,0,0.9,0,1.4,0c0.2,0,0.5,0,0.7,0c0.2,0,0.5,0,0.7,0C18.5,268.2,18.5,268.8,18.2,268.9L18.2,268.9z"/>
		</g>
		<g>
			<path class="st48" d="M14.2,262.3c-0.1,0.1-0.1,0.1-0.2,0.1c-0.1,0-0.2,0.1-0.2,0.1c-0.1,0-0.3,0.1-0.4,0.1
				c-0.3,0.1-0.6,0.1-1,0.1c-0.3,0-0.6,0.1-0.9,0c-0.2,0-0.3,0-0.5-0.1c-0.2,0-0.3,0-0.4-0.2c0-0.1,0-0.2,0-0.2
				c0.1-0.1,0.2-0.1,0.4-0.1c0.2,0,0.3-0.1,0.5-0.1c0.3,0,0.6,0,0.9-0.1c0.3,0,0.6-0.1,0.9-0.1c0.1,0,0.3,0,0.4-0.1
				c0.1,0,0.2,0,0.2,0c0.1,0,0.2,0,0.3,0C14.2,261.9,14.3,262.2,14.2,262.3L14.2,262.3z"/>
		</g>
		<g>
			<path class="st48" d="M19,269.8c0.5-0.9,1-1.8,1.4-2.8c0.2-0.5,0.5-0.9,0.7-1.4c0.2-0.5,0.5-0.9,0.8-1.3c0.2-0.2,0.4,0,0.4,0.2
				c-0.1,0.5-0.2,1-0.4,1.5c-0.2,0.5-0.5,1-0.8,1.4c-0.5,0.9-1.1,1.8-1.8,2.6C19.1,270.2,18.9,270,19,269.8L19,269.8z"/>
		</g>
		<g>
			<path class="st48" d="M22.1,274.8c-0.2,0.4-0.8,0.4-1.2,0.4c-0.5,0.1-0.9,0-1.4,0c-0.5,0-0.9-0.1-1.4-0.1c-0.2,0-0.5-0.1-0.7-0.1
				c-0.2,0-0.5,0-0.7-0.1c-0.1,0-0.1-0.1,0-0.2c0.4-0.1,0.9-0.1,1.3-0.1c0.4,0,0.9,0,1.3,0c0.4,0,0.9-0.1,1.3-0.1
				c0.2,0,0.4-0.1,0.6-0.1c0.2,0,0.4-0.1,0.6,0C22.1,274.5,22.2,274.7,22.1,274.8L22.1,274.8z"/>
		</g>
		<g>
			<path class="st48" d="M22.8,275.7C22.8,275.7,22.8,275.7,22.8,275.7C22.9,275.7,22.8,275.7,22.8,275.7L22.8,275.7z"/>
		</g>
		<g>
			<path class="st48" d="M22.6,275.8c0.8-1.1,1.7-2,2.4-3.1c0.7-1.1,1.3-2.3,1.9-3.5c0.1-0.2,0.4-0.1,0.4,0.1
				c-0.3,1.4-0.9,2.6-1.6,3.8c-0.7,1.1-1.6,2.3-2.8,3C22.8,276.2,22.5,276,22.6,275.8L22.6,275.8z"/>
		</g>
		<g>
			<path class="st48" d="M26.1,281.8c0,0.2-0.3,0.3-0.5,0.4c-0.2,0.1-0.5,0.1-0.7,0.2c-0.5,0.1-1,0.1-1.4,0.2c-0.5,0-1,0-1.5-0.1
				c-0.2,0-0.5-0.1-0.7-0.1c-0.2,0-0.5-0.1-0.7-0.2c-0.2-0.1-0.2-0.4,0-0.4c0.2,0,0.5-0.1,0.7,0c0.2,0,0.5,0,0.7,0
				c0.5,0,0.9,0,1.4,0c0.5,0,0.9,0,1.4-0.1c0.2,0,0.5-0.1,0.7-0.1c0.2-0.1,0.5-0.1,0.7,0C26.1,281.6,26.1,281.7,26.1,281.8
				L26.1,281.8z"/>
		</g>
		<g>
			<path class="st48" d="M26.3,282.3c0.4-0.5,0.7-1.1,1.1-1.6c0.4-0.5,0.8-1.1,1.1-1.7c0.3-0.5,0.7-1.1,0.9-1.7
				c0.3-0.6,0.4-1.2,0.8-1.7c0.1-0.1,0.3-0.1,0.4,0.1c0.1,0.6-0.2,1.3-0.4,1.9c-0.3,0.6-0.6,1.2-1,1.8c-0.4,0.6-0.8,1.1-1.2,1.6
				c-0.2,0.3-0.4,0.5-0.7,0.8c-0.3,0.3-0.6,0.5-0.8,0.8C26.4,282.7,26.2,282.5,26.3,282.3L26.3,282.3z"/>
		</g>
		<g>
			<path class="st48" d="M28.8,287.9c-0.2,0.2-0.5,0.2-0.8,0.3c-0.3,0.1-0.5,0.1-0.8,0.2c-0.6,0.1-1.1,0.2-1.7,0.2
				c-1.1,0.1-2.2,0-3.2-0.6c-0.1-0.1-0.1-0.2,0-0.2c1,0,2.1,0,3.1-0.1c0.5-0.1,1-0.1,1.5-0.2c0.3,0,0.5-0.1,0.8-0.1
				c0.3-0.1,0.5-0.1,0.8-0.1C29,287.3,29,287.7,28.8,287.9L28.8,287.9z"/>
		</g>
		<g>
			<path class="st48" d="M29.3,288.5c1-0.7,1.6-1.7,2.3-2.6c0.4-0.5,0.8-1.1,1.2-1.7c0.3-0.5,0.6-1.1,1-1.6c0.1-0.1,0.3,0,0.3,0.1
				c0,0.4-0.1,0.6-0.2,0.9c-0.2,0.3-0.4,0.7-0.5,1c-0.4,0.6-0.8,1.2-1.2,1.8c-0.4,0.5-0.8,1.1-1.3,1.5c-0.4,0.4-0.8,0.7-1.4,0.8
				C29.3,288.7,29.3,288.6,29.3,288.5L29.3,288.5z"/>
		</g>
		<g>
			<path class="st48" d="M31.5,293.6c-0.1,0.2-0.4,0.3-0.7,0.4c-0.2,0.1-0.4,0.1-0.5,0.1c-0.2,0-0.4,0.1-0.7,0.1c-0.1,0-0.2,0-0.4,0
				c-0.2,0-0.3-0.1-0.4-0.3c0.1,0.1,0.2,0.1,0.3,0.2c-0.2-0.1-0.4-0.1-0.6-0.1c-0.1,0-0.2-0.1-0.3-0.1c-0.1-0.1-0.2-0.1-0.2-0.2
				c0,0,0-0.1,0-0.2c0.2-0.1,0.4-0.2,0.6-0.2c0.1,0,0.2,0,0.3,0c0,0,0.1,0,0.1,0c0,0,0.2,0,0.1,0c-0.1,0.1-0.2,0.1-0.3,0.2
				c0.1-0.1,0.1-0.1,0.2-0.2c0.1,0,0.1-0.1,0.2-0.1c0,0,0,0,0,0c0.1,0,0.2,0,0.3,0c0.2,0,0.4-0.1,0.6-0.1c0.2,0,0.4,0,0.5-0.1
				c0.2,0,0.5-0.1,0.7,0C31.5,293.2,31.6,293.4,31.5,293.6L31.5,293.6z"/>
		</g>
		<g>
			<path class="st48" d="M32,294.4c0.5-0.4,0.8-1,1.1-1.6c0.2-0.3,0.3-0.7,0.5-1c0.1-0.2,0.2-0.4,0.3-0.6c0.1-0.2,0.2-0.4,0.4-0.5
				c0.1-0.1,0.3,0,0.4,0.2c0.1,0.2,0,0.4-0.1,0.7c-0.1,0.2-0.2,0.5-0.3,0.7c-0.2,0.4-0.3,0.8-0.5,1.1c-0.3,0.6-0.9,1.3-1.6,1.3
				C31.9,294.7,31.9,294.5,32,294.4L32,294.4z"/>
		</g>
	</g>
</g>
<line class="st50" x1="0" y1="300" x2="1245" y2="300"/>
</svg>
