<?xml version="1.0" encoding="utf-8"?>
<!-- Generator: Adobe Illustrator 26.0.2, SVG Export Plug-In . SVG Version: 6.00 Build 0)  -->
<svg version="1.1" id="Capa_1" xmlns="http://www.w3.org/2000/svg" xmlns:xlink="http://www.w3.org/1999/xlink" x="0px" y="0px"
	 viewBox="0 0 512 512" style="enable-background:new 0 0 512 512;" xml:space="preserve">
<style type="text/css">
	.st0{fill:url(#SVGID_1_);}
</style>
<linearGradient id="SVGID_1_" gradientUnits="userSpaceOnUse" x1="2.5182" y1="9.486" x2="489.5182" y2="500.486">
	<stop  offset="0" style="stop-color:#00B1FF"/>
	<stop  offset="1" style="stop-color:#2500FF"/>
</linearGradient>
<path class="st0" d="M397.7,274.31c-2.15,5.04-6.14,8.93-11.22,10.96c-10.24,4.08-22.51-1.17-26.6-11.39l-32.91-83.09
	c-1.8-4.59-6.66-7.17-11.45-6.29c-4.83,0.92-8.32,5.14-8.32,10.06v276.48c0,11.3-9.2,20.48-20.48,20.48s-20.48-9.17-20.48-20.48
	V337.92c0-5.65-4.59-10.24-10.24-10.24s-10.24,4.59-10.24,10.24v133.12c0,11.3-9.2,20.48-20.48,20.48s-20.48-9.17-20.48-20.48
	V194.56c0-4.91-3.48-9.13-8.32-10.06c-4.75-0.88-9.63,1.7-11.45,6.29l-32.91,83.07c-2.03,5.08-5.92,9.07-10.96,11.22
	c-5.02,2.15-10.59,2.21-15.67,0.18c-5.06-2.03-9.05-5.92-11.2-10.96c-2.15-5.02-2.21-10.59-0.18-15.67l30.66-76.66
	c9.38-23.45,31.76-38.62,57.04-38.62h108.38c25.27,0,47.66,15.18,57.04,38.62l30.66,76.66C399.91,263.72,399.85,269.29,397.7,274.31
	 M204.8,71.68c0-28.22,22.98-51.2,51.2-51.2s51.2,22.98,51.2,51.2c0,28.24-22.98,51.2-51.2,51.2S204.8,99.92,204.8,71.68
	 M416.91,251.04l-30.66-76.66c-12.51-31.27-42.37-51.51-76.06-51.51h-4.18c13.33-13,21.67-31.13,21.67-51.2
	C327.68,32.17,295.53,0,256,0s-71.68,32.17-71.68,71.68c0,20.07,8.34,38.19,21.67,51.2h-4.18c-33.69,0-63.55,20.23-76.06,51.51
	l-30.66,76.66c-4.06,10.14-3.93,21.28,0.39,31.36c4.3,10.04,12.27,17.82,22.4,21.87c10.16,4.08,21.26,3.93,31.33-0.37
	c10.08-4.32,17.88-12.29,21.93-22.47l13.17-33.22v222.82c0,22.59,18.37,40.96,40.96,40.96c12.23,0,23.2-5.37,30.72-13.89
	c7.52,8.52,18.49,13.89,30.72,13.89c22.59,0,40.96-18.37,40.96-40.96V248.22l13.17,33.24c8.19,20.5,32.79,31.07,53.25,22.82
	c10.16-4.05,18.12-11.84,22.43-21.87C420.84,272.32,420.97,261.18,416.91,251.04"/>
</svg>
