<?xml version="1.0" encoding="utf-8"?>
<!-- Generator: Adobe Illustrator 26.0.2, SVG Export Plug-In . SVG Version: 6.00 Build 0)  -->
<svg version="1.1" id="Layer_1" xmlns="http://www.w3.org/2000/svg" xmlns:xlink="http://www.w3.org/1999/xlink" x="0px" y="0px"
	 viewBox="0 0 450 450" style="enable-background:new 0 0 450 450;" xml:space="preserve">
<style type="text/css">
	.st0{fill:url(#SVGID_1_);}
</style>
<linearGradient id="SVGID_1_" gradientUnits="userSpaceOnUse" x1="34.7231" y1="1805.0681" x2="427.8476" y2="2198.1926" gradientTransform="matrix(1 0 0 1 0 -1772)">
	<stop  offset="0" style="stop-color:#00B1FF"/>
	<stop  offset="1" style="stop-color:#2500FF"/>
</linearGradient>
<path class="st0" d="M396.07,446.73c-2.58,0-5.19-0.54-7.62-1.65c-5.53-2.52-8.83-7.37-8.83-12.98v-52.88
	c0-5.59,3.28-10.43,8.78-12.94c6.35-2.89,13.94-1.94,18.91,2.37l30.23,26.24c3.15,2.73,4.95,6.66,4.95,10.78s-1.81,8.05-4.95,10.78
	l-30.23,26.24C404.26,445.35,400.21,446.73,396.07,446.73L396.07,446.73z M396.14,374.64c-1.28,0-2.55,0.28-3.58,0.75
	c-1.34,0.61-2.93,1.77-2.93,3.84v52.88c0,2.2,1.86,3.38,2.98,3.89c2.27,1.03,5.79,1.21,8.16-0.85L431,408.91
	c0.97-0.84,1.51-1.99,1.51-3.23s-0.54-2.38-1.51-3.23l-30.23-26.24C399.48,375.1,397.79,374.64,396.14,374.64L396.14,374.64z
	 M220.79,410.67h-0.88c-2.76-0.01-4.99-2.26-4.98-5.02s2.25-4.98,5-4.98h0.02h0.85c86.64,0,157.12-70.48,157.12-157.12
	S307.43,86.42,220.8,86.42S63.67,156.91,63.67,243.54c0,2.76-2.24,5-5,5s-5-2.24-5-5c0-92.15,74.97-167.12,167.12-167.12
	s167.12,74.97,167.12,167.12S312.95,410.67,220.79,410.67z M58.66,301.42c-4.12,0-8.05-1.8-10.78-4.95l-26.24-30.23
	c-4.31-4.97-5.27-12.55-2.39-18.86c2.52-5.52,7.37-8.82,12.98-8.82h52.88c5.59,0,10.43,3.28,12.94,8.78
	c2.89,6.35,1.94,13.94-2.36,18.91l-26.24,30.23C66.71,299.61,62.78,301.42,58.66,301.42z M29.2,259.68l26.24,30.23
	c0.84,0.97,1.99,1.51,3.23,1.51s2.38-0.54,3.23-1.51l26.24-30.23c1.96-2.26,1.9-5.84,0.82-8.2c-0.61-1.34-1.77-2.93-3.84-2.93H32.23
	c-2.2,0-3.38,1.86-3.88,2.98C27.31,253.79,27.14,257.31,29.2,259.68z M384.63,410.67H61.36c-2.76,0-5-2.24-5-5s2.24-5,5-5h323.26
	c2.76,0,5,2.24,5,5S387.39,410.67,384.63,410.67L384.63,410.67z M220.79,86.42H48.01c-15.22,0-27.61-12.39-27.61-27.61
	c0-15.23,12.39-27.61,27.61-27.61h105.38c2.76,0,5,2.24,5,5s-2.24,5-5,5H48.01c-9.71,0-17.61,7.9-17.61,17.61s7.9,17.61,17.61,17.61
	H220.8c2.76,0,5,2.24,5,5S223.56,86.42,220.79,86.42L220.79,86.42z M161.78,67.67c-2.08,0-4.19-0.43-6.14-1.33
	c-4.54-2.07-7.26-6.09-7.26-10.74V16.78c0-4.64,2.7-8.65,7.22-10.71c5.12-2.34,11.27-1.56,15.31,1.94l22.2,19.27
	c2.6,2.26,4.09,5.51,4.09,8.92s-1.49,6.66-4.09,8.92l-22.2,19.27C168.43,66.55,165.14,67.67,161.78,67.67z M161.84,14.74
	c-0.75,0-1.49,0.16-2.08,0.43c-0.91,0.42-1.37,0.96-1.37,1.61V55.6c0,0.83,0.76,1.35,1.41,1.64c1.33,0.61,3.33,0.66,4.57-0.42
	l22.2-19.27c0.54-0.47,0.65-1,0.65-1.37s-0.11-0.9-0.65-1.37l-22.2-19.27C163.69,14.99,162.76,14.74,161.84,14.74L161.84,14.74z
	 M224.85,359.87h-8.1c-7.89,0-14.26-6.23-14.81-14.49l-1.22-18.16c-8.81-2.1-17.15-5.56-24.88-10.31l-13.71,11.99
	c-6.23,5.45-15.14,5.35-20.72-0.23l-5.73-5.73c-5.58-5.58-5.68-14.49-0.23-20.72l11.99-13.71c-4.76-7.73-8.21-16.07-10.32-24.88
	l-18.16-1.22c-8.26-0.55-14.49-6.92-14.49-14.81v-8.1c0-7.89,6.23-14.26,14.49-14.81l18.16-1.22c2.1-8.81,5.56-17.15,10.32-24.88
	l-11.99-13.71c-5.45-6.23-5.35-15.14,0.23-20.72l5.73-5.73c5.58-5.58,14.49-5.68,20.72-0.23l13.71,11.99
	c7.73-4.76,16.07-8.21,24.88-10.31l1.22-18.16c0.55-8.26,6.92-14.49,14.81-14.49h8.1c7.89,0,14.26,6.23,14.81,14.49l1.22,18.16
	c8.81,2.1,17.15,5.56,24.88,10.31l13.71-11.99c6.23-5.45,15.14-5.35,20.72,0.23l5.73,5.73c5.58,5.58,5.68,14.49,0.23,20.72
	l-11.98,13.71c4.76,7.73,8.21,16.07,10.32,24.88l18.16,1.22c8.26,0.55,14.49,6.92,14.49,14.81v8.1c0,7.89-6.23,14.26-14.49,14.81
	l-18.16,1.22c-2.1,8.8-5.56,17.15-10.31,24.88l11.99,13.71c5.45,6.23,5.35,15.14-0.23,20.72l-5.73,5.73
	c-5.58,5.58-14.48,5.68-20.72,0.23l-13.71-11.98c-7.73,4.76-16.07,8.21-24.88,10.32l-1.22,18.16
	C239.11,353.65,232.74,359.87,224.85,359.87L224.85,359.87z M175.38,305.66c0.98,0,1.95,0.28,2.8,0.86
	c8.58,5.82,18.07,9.75,28.21,11.69c2.23,0.43,3.9,2.31,4.05,4.58l1.47,21.92c0.17,2.5,1.92,5.16,4.83,5.16h8.1
	c2.91,0,4.67-2.66,4.83-5.16l1.47-21.92c0.15-2.27,1.82-4.15,4.05-4.58c10.14-1.95,19.63-5.88,28.21-11.7
	c1.88-1.28,4.39-1.12,6.1,0.37l16.55,14.47c1.89,1.65,5,2.29,7.07,0.23l5.73-5.73c2.06-2.06,1.42-5.18-0.23-7.07l-14.47-16.55
	c-1.49-1.71-1.65-4.22-0.37-6.1c5.82-8.58,9.75-18.07,11.69-28.2c0.43-2.23,2.31-3.9,4.58-4.05l21.92-1.47
	c2.5-0.17,5.16-1.92,5.16-4.83v-8.1c0-2.92-2.66-4.67-5.16-4.83l-21.92-1.47c-2.27-0.15-4.15-1.82-4.58-4.05
	c-1.95-10.14-5.88-19.63-11.7-28.21c-1.28-1.88-1.12-4.39,0.37-6.1l14.47-16.55c1.65-1.89,2.29-5,0.23-7.07l-5.73-5.73
	c-2.06-2.06-5.18-1.42-7.07,0.23l-16.55,14.47c-1.71,1.5-4.22,1.65-6.1,0.37c-8.58-5.81-18.07-9.75-28.2-11.69
	c-2.23-0.43-3.9-2.31-4.05-4.58l-1.47-21.92c-0.17-2.5-1.92-5.16-4.83-5.16h-8.1c-2.91,0-4.67,2.66-4.83,5.16l-1.47,21.92
	c-0.15,2.27-1.82,4.15-4.05,4.58c-10.14,1.94-19.63,5.88-28.2,11.69c-1.88,1.27-4.39,1.12-6.1-0.37l-16.55-14.47
	c-1.89-1.65-5-2.29-7.07-0.23l-5.73,5.73c-2.06,2.06-1.42,5.18,0.23,7.07l14.47,16.55c1.5,1.71,1.65,4.21,0.37,6.1
	c-5.82,8.58-9.75,18.07-11.69,28.2c-0.43,2.23-2.31,3.9-4.58,4.05l-21.92,1.47c-2.5,0.17-5.16,1.92-5.16,4.83v8.1
	c0,2.92,2.66,4.67,5.16,4.83l21.92,1.47c2.27,0.15,4.15,1.82,4.58,4.05c1.95,10.14,5.88,19.63,11.69,28.21
	c1.28,1.88,1.12,4.39-0.37,6.1l-14.46,16.55c-1.65,1.89-2.29,5-0.23,7.07l5.73,5.73c2.06,2.06,5.18,1.42,7.07-0.23l16.55-14.47
	C173.02,306.08,174.2,305.66,175.38,305.66L175.38,305.66z M220.79,300.93c-31.65,0-57.39-25.74-57.39-57.39
	s25.74-57.39,57.39-57.39s57.39,25.75,57.39,57.39S252.44,300.93,220.79,300.93L220.79,300.93z M220.79,196.15
	c-26.13,0-47.39,21.26-47.39,47.39s21.26,47.39,47.39,47.39s47.39-21.26,47.39-47.39C268.19,217.41,246.93,196.15,220.79,196.15
	L220.79,196.15z M403.02,41.21h-133.5c-2.76,0-5-2.24-5-5s2.24-5,5-5h133.5c2.76,0,5,2.24,5,5S405.78,41.21,403.02,41.21z
	 M403.02,59.27h-133.5c-2.76,0-5-2.24-5-5s2.24-5,5-5h133.5c2.76,0,5,2.24,5,5S405.78,59.27,403.02,59.27z M403.02,77.34h-73.01
	c-2.76,0-5-2.24-5-5s2.24-5,5-5h73.01c2.76,0,5,2.24,5,5S405.78,77.34,403.02,77.34z M403.02,95.4h-73.01c-2.76,0-5-2.24-5-5
	s2.24-5,5-5h73.01c2.76,0,5,2.24,5,5S405.78,95.4,403.02,95.4z M146.52,381.52H13.02c-2.76,0-5-2.24-5-5s2.24-5,5-5h133.5
	c2.76,0,5,2.24,5,5S149.28,381.52,146.52,381.52z M146.52,363.46H13.02c-2.76,0-5-2.24-5-5s2.24-5,5-5h133.5c2.76,0,5,2.24,5,5
	S149.28,363.46,146.52,363.46z M86.03,345.4H13.02c-2.76,0-5-2.24-5-5s2.24-5,5-5h73.01c2.76,0,5,2.24,5,5S88.79,345.4,86.03,345.4z
	 M86.03,327.33H13.02c-2.76,0-5-2.24-5-5s2.24-5,5-5h73.01c2.76,0,5,2.24,5,5S88.79,327.33,86.03,327.33z M220.79,273.31
	c-16.41,0-29.77-13.35-29.77-29.77s13.35-29.77,29.77-29.77s29.77,13.35,29.77,29.77S237.21,273.31,220.79,273.31z M220.79,223.77
	c-10.9,0-19.77,8.87-19.77,19.77s8.87,19.77,19.77,19.77s19.77-8.87,19.77-19.77S231.7,223.77,220.79,223.77z"/>
</svg>
