<?xml version="1.0" encoding="utf-8"?>
<!-- Generator: Adobe Illustrator 26.0.2, SVG Export Plug-In . SVG Version: 6.00 Build 0)  -->
<svg version="1.1" id="Layer_1" xmlns="http://www.w3.org/2000/svg" xmlns:xlink="http://www.w3.org/1999/xlink" x="0px" y="0px"
	 viewBox="0 0 450 450" style="enable-background:new 0 0 450 450;" xml:space="preserve">
<style type="text/css">
	.st0{fill:url(#SVGID_1_);}
</style>
<linearGradient id="SVGID_1_" gradientUnits="userSpaceOnUse" x1="70.5728" y1="1819.1722" x2="379.9428" y2="2128.5422" gradientTransform="matrix(1 0 0 1 0 -1770)">
	<stop  offset="0" style="stop-color:#00B1FF"/>
	<stop  offset="1" style="stop-color:#2500FF"/>
</linearGradient>
<path class="st0" d="M225.26,290.13c-0.79,0-1.58-0.19-2.3-0.56c-61.47-31.81-84.91-81.07-93.75-116.8
	c-9.55-38.61-4.65-69.35-4.43-70.64c0.38-2.32,2.33-4.06,4.68-4.18c46.51-2.33,92.45-34.39,92.91-34.72c1.73-1.22,4.04-1.22,5.77,0
	c0.46,0.32,46.4,32.39,92.91,34.72c2.35,0.12,4.3,1.86,4.68,4.18c0.21,1.29,5.12,32.03-4.43,70.64
	c-8.84,35.73-32.27,84.99-93.75,116.8C226.84,289.95,226.05,290.13,225.26,290.13z M134.17,107.66c-0.95,9.28-2.39,34.1,4.85,63.09
	c11.99,48.05,41,84.62,86.24,108.74c45.37-24.18,74.41-60.88,86.34-109.11c7.15-28.91,5.71-53.49,4.76-62.71
	c-41.54-3.49-80.32-27.21-91.09-34.3C214.49,80.46,175.72,104.18,134.17,107.66L134.17,107.66z M225.26,245.72
	c-23.33,0-42.31-18.98-42.31-42.31v-39.79c0-6.01,4.89-10.89,10.89-10.89h62.84c6.01,0,10.89,4.89,10.89,10.89v39.79
	C267.57,226.74,248.59,245.72,225.26,245.72L225.26,245.72z M193.84,162.73c-0.48,0-0.89,0.42-0.89,0.89v39.79
	c0,17.82,14.49,32.31,32.31,32.31s32.31-14.49,32.31-32.31v-39.79c0-0.48-0.41-0.89-0.89-0.89L193.84,162.73z M253.4,162.73
	c-2.76,0-5-2.24-5-5v-17.85c0-12.76-10.38-23.15-23.15-23.15c-12.76,0-23.15,10.38-23.15,23.15v17.85c0,2.76-2.24,5-5,5s-5-2.24-5-5
	v-17.85c0-18.28,14.87-33.15,33.15-33.15s33.15,14.87,33.15,33.15v17.85C258.4,160.49,256.17,162.73,253.4,162.73z M225.26,208.81
	c-8.57,0-15.53-6.97-15.53-15.53c0-8.57,6.97-15.54,15.53-15.54c8.57,0,15.53,6.97,15.53,15.54
	C240.8,201.84,233.83,208.81,225.26,208.81z M225.26,187.74c-3.05,0-5.53,2.48-5.53,5.54s2.48,5.53,5.53,5.53s5.54-2.48,5.54-5.53
	S228.31,187.74,225.26,187.74z M225.26,220.71c-2.76,0-5-2.24-5-5v-11.9c0-2.76,2.24-5,5-5s5,2.24,5,5v11.9
	C230.26,218.47,228.02,220.71,225.26,220.71z M129.72,107.95h-34.1c-2.76,0-5-2.24-5-5v-27.2c0-2.76,2.24-5,5-5s5,2.24,5,5v22.2
	h29.1c2.76,0,5,2.24,5,5S132.48,107.95,129.72,107.95z M107.84,208.81c-2.76,0-5-2.24-5-5V181.8c0-2.76,2.24-5,5-5h29.08
	c2.76,0,5,2.24,5,5s-2.24,5-5,5h-24.08v17.01C112.84,206.57,110.6,208.81,107.84,208.81z M354.9,107.95h-34.1c-2.76,0-5-2.24-5-5
	s2.24-5,5-5h29.1v-22.2c0-2.76,2.24-5,5-5s5,2.24,5,5v27.2C359.9,105.71,357.67,107.95,354.9,107.95z M342.68,208.81
	c-2.76,0-5-2.24-5-5V186.8H313.6c-2.76,0-5-2.24-5-5s2.24-5,5-5h29.08c2.76,0,5,2.24,5,5v22.01
	C347.68,206.57,345.44,208.81,342.68,208.81z M95.62,80.75c-12.93,0-23.46-10.52-23.46-23.46s10.52-23.46,23.46-23.46
	s23.45,10.52,23.45,23.46S108.55,80.75,95.62,80.75z M95.62,43.84c-7.42,0-13.46,6.04-13.46,13.46s6.04,13.46,13.46,13.46
	s13.45-6.04,13.45-13.46S103.04,43.84,95.62,43.84z M107.84,245.72c-12.93,0-23.46-10.52-23.46-23.46s10.52-23.46,23.46-23.46
	s23.46,10.52,23.46,23.46S120.77,245.72,107.84,245.72z M107.84,208.81c-7.42,0-13.46,6.04-13.46,13.46s6.04,13.46,13.46,13.46
	s13.46-6.04,13.46-13.46C121.29,214.85,115.26,208.81,107.84,208.81z M128.37,131.22h-82.2c-2.76,0-5-2.24-5-5s2.24-5,5-5h82.2
	c2.76,0,5,2.24,5,5C133.37,128.98,131.13,131.22,128.37,131.22z M404.35,131.22h-82.2c-2.76,0-5-2.24-5-5s2.24-5,5-5h82.2
	c2.76,0,5,2.24,5,5C409.35,128.98,407.11,131.22,404.35,131.22L404.35,131.22z M27.72,149.67c-12.93,0-23.45-10.52-23.45-23.46
	s10.52-23.46,23.45-23.46s23.45,10.52,23.45,23.46S40.65,149.67,27.72,149.67z M27.72,112.76c-7.42,0-13.45,6.04-13.45,13.46
	c0,7.42,6.04,13.46,13.46,13.46s13.46-6.04,13.46-13.46S35.13,112.76,27.72,112.76z M422.81,149.67
	c-12.93,0-23.45-10.52-23.45-23.46s10.52-23.46,23.45-23.46s23.45,10.52,23.45,23.46S435.74,149.67,422.81,149.67z M422.81,112.76
	c-7.42,0-13.45,6.04-13.45,13.46c0,7.42,6.04,13.46,13.45,13.46s13.45-6.04,13.45-13.46S430.23,112.76,422.81,112.76z
	 M342.68,245.72c-12.93,0-23.45-10.52-23.45-23.46s10.52-23.46,23.45-23.46s23.45,10.52,23.45,23.46S355.61,245.72,342.68,245.72z
	 M342.68,208.81c-7.42,0-13.45,6.04-13.45,13.46s6.04,13.46,13.45,13.46s13.45-6.04,13.45-13.46
	C356.14,214.85,350.1,208.81,342.68,208.81z M354.9,80.75c-12.93,0-23.45-10.52-23.45-23.46s10.52-23.46,23.45-23.46
	s23.45,10.52,23.45,23.46S367.84,80.75,354.9,80.75z M354.9,43.84c-7.42,0-13.45,6.04-13.45,13.46s6.04,13.46,13.45,13.46
	s13.45-6.04,13.45-13.46S362.32,43.84,354.9,43.84z M363.03,363.83H87.49c-15.5,0-28.11-12.61-28.11-28.11V169.36
	c0-15.5,12.61-28.11,28.11-28.11h42.09c2.76,0,5,2.24,5,5s-2.24,5-5,5H87.49c-9.99,0-18.11,8.13-18.11,18.11v166.36
	c0,9.99,8.13,18.11,18.11,18.11h275.54c9.99,0,18.11-8.13,18.11-18.11V169.36c0-9.99-8.13-18.11-18.11-18.11h-42.09
	c-2.76,0-5-2.24-5-5s2.24-5,5-5h42.09c15.5,0,28.11,12.61,28.11,28.11v166.36C391.14,351.22,378.53,363.83,363.03,363.83
	L363.03,363.83z M288.52,417.64H161.99c-2.76,0-5-2.24-5-5v-10.06c0-8.3,6.76-15.06,15.06-15.06h106.4
	c8.31,0,15.06,6.76,15.06,15.06v10.06C293.52,415.4,291.29,417.64,288.52,417.64z M166.99,407.64h116.53v-5.06
	c0-2.79-2.27-5.06-5.06-5.06h-106.4c-2.79,0-5.06,2.27-5.06,5.06v5.06H166.99z M251.6,397.51c-2.76,0-5-2.24-5-5v-33.69
	c0-2.76,2.24-5,5-5s5,2.24,5,5v33.69C256.6,395.27,254.36,397.51,251.6,397.51L251.6,397.51z M198.92,397.51c-2.76,0-5-2.24-5-5
	v-33.69c0-2.76,2.24-5,5-5s5,2.24,5,5v33.69C203.92,395.27,201.68,397.51,198.92,397.51z M386.14,323.85H64.38c-2.76,0-5-2.24-5-5
	s2.24-5,5-5h321.76c2.76,0,5,2.24,5,5S388.9,323.85,386.14,323.85z M250.72,343.84H199.8c-2.76,0-5-2.24-5-5s2.24-5,5-5h50.92
	c2.76,0,5,2.24,5,5S253.48,343.84,250.72,343.84z M148.26,266.8H95.51c-2.76,0-5-2.24-5-5s2.24-5,5-5h52.75c2.76,0,5,2.24,5,5
	S151.02,266.8,148.26,266.8z M148.26,284.98H95.51c-2.76,0-5-2.24-5-5s2.24-5,5-5h52.75c2.76,0,5,2.24,5,5
	S151.02,284.98,148.26,284.98z M133.51,303.16h-38c-2.76,0-5-2.24-5-5s2.24-5,5-5h38c2.76,0,5,2.24,5,5S136.27,303.16,133.51,303.16
	z M355.01,266.8h-52.75c-2.76,0-5-2.24-5-5s2.24-5,5-5h52.75c2.76,0,5,2.24,5,5S357.77,266.8,355.01,266.8z M355.01,284.98h-52.75
	c-2.76,0-5-2.24-5-5s2.24-5,5-5h52.75c2.76,0,5,2.24,5,5S357.77,284.98,355.01,284.98z M355.01,303.16h-38c-2.76,0-5-2.24-5-5
	s2.24-5,5-5h38c2.76,0,5,2.24,5,5S357.77,303.16,355.01,303.16z"/>
</svg>
