<?xml version="1.0" encoding="utf-8"?>
<!-- Generator: Adobe Illustrator 26.0.2, SVG Export Plug-In . SVG Version: 6.00 Build 0)  -->
<svg version="1.1" id="Layer_5" xmlns="http://www.w3.org/2000/svg" xmlns:xlink="http://www.w3.org/1999/xlink" x="0px" y="0px"
	 viewBox="0 0 64 64" style="enable-background:new 0 0 64 64;" xml:space="preserve">
<style type="text/css">
	.st0{fill:url(#SVGID_1_);}
</style>
<linearGradient id="SVGID_1_" gradientUnits="userSpaceOnUse" x1="-3.1838" y1="2.6222" x2="60.8162" y2="66.7924">
	<stop  offset="0" style="stop-color:#00B1FF"/>
	<stop  offset="1" style="stop-color:#2500FF"/>
</linearGradient>
<path class="st0" d="M46,29c-1.89,0-3.54,0.2-5,0.61v-5.33l-2.61-0.87c-0.29-1.09-0.69-2.15-1.19-3.19
	c0.64,0.17,1.28,0.35,1.92,0.55C39.46,22.05,40.61,23,42,23h2c1.65,0,3-1.35,3-3v-3.22l4-1V8.22l-4-1V4c0-1.65-1.35-3-3-3h-2
	c-1.39,0-2.54,0.95-2.89,2.23C35.41,4.4,31.57,5,27.68,5H18c-2.76,0-5,2.24-5,5v1.91c-0.35,0.18-0.71,0.34-1.05,0.54l-2.46-1.23
	l-5.26,5.26l1.23,2.46c-0.82,1.4-1.44,2.9-1.85,4.46L1,24.28v7.44l2.61,0.87c0.41,1.56,1.03,3.06,1.85,4.46l-1.23,2.46l5.26,5.26
	l2.46-1.23c1.4,0.82,2.9,1.44,4.46,1.85L17.28,48h7.44l0.87-2.61c1.22-0.32,2.4-0.78,3.53-1.35C29.04,44.69,29,45.35,29,46
	c0,9.37,7.63,17,17,17s17-7.63,17-17S55.37,29,46,29z M46,61c-2.23,0-4.25-2.39-5.55-6h11.09C50.25,58.61,48.23,61,46,61z M39.84,53
	c-0.46-1.82-0.75-3.86-0.82-6h13.95c-0.07,2.14-0.35,4.18-0.82,6H39.84z M31.05,47h5.97c0.06,2.14,0.32,4.16,0.75,6h-5.03
	C31.78,51.19,31.19,49.15,31.05,47z M32.51,44.77l5.12-5.12c-0.35,1.66-0.55,3.46-0.61,5.35h-5.97c0.02-0.31,0.04-0.61,0.08-0.92
	L32.51,44.77z M46,31c2.23,0,4.25,2.39,5.55,6H40.45C41.75,33.39,43.77,31,46,31z M39.84,39h12.32c0.46,1.82,0.75,3.86,0.82,6H39.02
	C39.09,42.86,39.38,40.82,39.84,39z M54.97,47h5.97c-0.14,2.15-0.73,4.19-1.69,6h-5.03C54.65,51.16,54.91,49.14,54.97,47z M54.97,45
	c-0.06-2.14-0.32-4.16-0.75-6h5.03c0.96,1.81,1.55,3.85,1.69,6H54.97z M57.97,37h-4.31c-0.66-2.02-1.53-3.76-2.57-5.09
	C53.86,32.91,56.24,34.7,57.97,37z M41.1,31.68c-1.51,1.83-2.71,4.48-3.4,7.66l-1.15-2.3c0.82-1.4,1.44-2.9,1.85-4.46L41,31.72v0
	C41.03,31.71,41.06,31.69,41.1,31.68z M49,9.78v4.44l-2,0.5V9.28L49,9.78z M41,4c0-0.55,0.45-1,1-1h2c0.55,0,1,0.45,1,1v16
	c0,0.55-0.45,1-1,1h-2c-0.55,0-1-0.45-1-1V4z M39,5.36v13.28C35.32,17.55,31.52,17,27.68,17H23V7h4.68C31.52,7,35.32,6.45,39,5.36z
	 M33,28c0,6.62-5.38,12-12,12S9,34.62,9,28c0-4.2,2.18-8.06,5.74-10.24C15.62,18.52,16.75,19,18,19h1v8.53
	c0,1.91,1.56,3.47,3.47,3.47h3.06c1.91,0,3.47-1.56,3.47-3.47c0-1.32-0.74-2.51-1.92-3.1L27,24.38V19h0.68
	c0.42,0,0.85,0.01,1.27,0.02C31.52,21.31,33,24.55,33,28z M26.19,26.21c0.5,0.25,0.81,0.76,0.81,1.32c0,0.81-0.66,1.47-1.47,1.47
	h-3.06C21.66,29,21,28.34,21,27.53V19h4v6.62L26.19,26.21z M15,10c0-1.65,1.35-3,3-3h3v10h-3c-1.65,0-3-1.35-3-3V10z M24.59,43.58
	l-0.55,0.13L23.28,46h-4.56l-0.76-2.29l-0.55-0.13c-1.73-0.4-3.37-1.08-4.88-2.03l-0.48-0.3l-2.16,1.08l-3.22-3.22l1.08-2.17
	l-0.3-0.48c-0.95-1.51-1.63-3.16-2.03-4.88l-0.13-0.55L3,30.28v-4.56l2.29-0.76l0.13-0.55c0.4-1.73,1.08-3.37,2.03-4.88l0.3-0.48
	l-1.08-2.17l3.22-3.22l2.17,1.08l0.48-0.3c0.16-0.1,0.33-0.19,0.49-0.28c0.02,0.72,0.2,1.4,0.5,2.01C9.47,18.73,7,23.17,7,28
	c0,7.72,6.28,14,14,14s14-6.28,14-14c0-3.22-1.11-6.29-3.09-8.76c0.91,0.1,1.82,0.24,2.72,0.41c0.91,1.48,1.57,3.08,1.96,4.76
	l0.13,0.55L39,25.72v4.56l-2.29,0.76l-0.13,0.55c-0.4,1.73-1.08,3.37-2.03,4.88l-0.3,0.48l1.08,2.17l-3.22,3.22l-2.17-1.08
	l-0.48,0.3C27.96,42.5,26.32,43.18,24.59,43.58z M34.03,55h4.31c0.66,2.02,1.53,3.76,2.57,5.09C38.14,59.09,35.76,57.3,34.03,55z
	 M51.1,60.09c1.04-1.33,1.91-3.07,2.57-5.09h4.31C56.24,57.3,53.86,59.09,51.1,60.09z M3,57h2v2H3V57z M11,59v-2h2v2H11z M15,59v-2
	h2v2H15z M7,59v-2h2v2H7z M3,53h14v2H3V53z M17,51H3v-2h14V51z M15.96,34.21c0.46,0.37,0.96,0.7,1.49,0.96l-0.89,1.79
	c-0.66-0.33-1.29-0.73-1.86-1.2L15.96,34.21z M19.11,35.78c0.57,0.14,1.17,0.21,1.76,0.22l-0.03,2c-0.74-0.01-1.48-0.1-2.2-0.28
	L19.11,35.78z M14.71,32.94l-1.57,1.24c-0.46-0.58-0.85-1.22-1.17-1.88l1.81-0.86C14.03,31.97,14.35,32.48,14.71,32.94z
	 M13.19,29.76l-1.95,0.44C11.08,29.48,11,28.74,11,28h2C13,28.59,13.06,29.19,13.19,29.76z"/>
</svg>
