<?xml version="1.0" encoding="utf-8"?>
<!-- Generator: Adobe Illustrator 26.0.2, SVG Export Plug-In . SVG Version: 6.00 Build 0)  -->
<svg version="1.1" id="Layer_1" xmlns="http://www.w3.org/2000/svg" xmlns:xlink="http://www.w3.org/1999/xlink" x="0px" y="0px"
	 viewBox="0 0 128 128" style="enable-background:new 0 0 128 128;" xml:space="preserve">
<style type="text/css">
	.st0{fill:url(#SVGID_1_);}
</style>
<linearGradient id="SVGID_1_" gradientUnits="userSpaceOnUse" x1="3.9753" y1="3.0243" x2="129.9753" y2="131.0243">
	<stop  offset="0" style="stop-color:#00B1FF"/>
	<stop  offset="1" style="stop-color:#2500FF"/>
</linearGradient>
<path class="st0" d="M114.4,6.5v97.31c0,0.97-0.78,1.75-1.75,1.75H99.43v15.94c0,0.97-0.78,1.75-1.75,1.75H15.35
	c-0.97,0-1.75-0.78-1.75-1.75V24.19c0-0.97,0.78-1.75,1.75-1.75h13.22V6.5c0-0.97,0.78-1.75,1.75-1.75h42.3
	c0.97,0,1.75,0.78,1.75,1.75s-0.78,1.75-1.75,1.75H32.07v14.19h65.61c0.97,0,1.75,0.78,1.75,1.75v32.62c0,0.97-0.78,1.75-1.75,1.75
	s-1.75-0.78-1.75-1.75l0,0V25.94H17.1v93.81h78.83v-15.9c0-0.01,0-0.03,0-0.04s0-0.03,0-0.04V75.5c0-0.97,0.78-1.75,1.75-1.75
	s1.75,0.78,1.75,1.75v26.56h11.47V8.25H81.17c-0.97,0-1.75-0.78-1.75-1.75s0.78-1.75,1.75-1.75h31.48
	C113.62,4.75,114.4,5.53,114.4,6.5C114.4,6.5,114.4,6.5,114.4,6.5z M97.68,62.25c-0.97,0-1.75,0.78-1.75,1.75c0,0,0,0,0,0v4.62
	c0,0.97,0.78,1.75,1.75,1.75s1.75-0.78,1.75-1.75V64C99.43,63.03,98.65,62.25,97.68,62.25z M85.27,35.1H64
	c-0.97,0-1.75,0.78-1.75,1.75S63.03,38.6,64,38.6h21.26c0.97,0,1.75-0.78,1.75-1.75S86.23,35.1,85.27,35.1z M85.27,53.1h-57.5
	c-0.97,0-1.75,0.78-1.75,1.75s0.78,1.75,1.75,1.75h57.5c0.97,0,1.75-0.78,1.75-1.75S86.23,53.1,85.27,53.1z M85.27,62.1h-57.5
	c-0.97,0-1.75,0.78-1.75,1.75s0.78,1.75,1.75,1.75h57.5c0.97,0,1.75-0.78,1.75-1.75S86.23,62.1,85.27,62.1z M85.27,71.1h-57.5
	c-0.97,0-1.75,0.78-1.75,1.75s0.78,1.75,1.75,1.75h57.5c0.97,0,1.75-0.78,1.75-1.75S86.23,71.1,85.27,71.1z M85.27,80.1h-57.5
	c-0.97,0-1.75,0.78-1.75,1.75s0.78,1.75,1.75,1.75h57.5c0.97,0,1.75-0.78,1.75-1.75S86.23,80.1,85.27,80.1z M85.27,89.1h-57.5
	c-0.97,0-1.75,0.78-1.75,1.75s0.78,1.75,1.75,1.75h57.5c0.97,0,1.75-0.78,1.75-1.75S86.23,89.1,85.27,89.1z M87.02,99.85
	c0-0.97-0.78-1.75-1.75-1.75h-57.5c-0.97,0-1.75,0.78-1.75,1.75s0.78,1.75,1.75,1.75h57.5C86.23,101.6,87.02,100.82,87.02,99.85
	C87.02,99.85,87.02,99.85,87.02,99.85L87.02,99.85z M38.53,107.1c-0.97,0-1.75,0.78-1.75,1.75s0.78,1.75,1.75,1.75H74.5
	c0.97,0,1.75-0.78,1.75-1.75s-0.78-1.75-1.75-1.75H38.53z"/>
</svg>
