<?xml version="1.0" encoding="utf-8"?>
<!-- Generator: Adobe Illustrator 26.0.2, SVG Export Plug-In . SVG Version: 6.00 Build 0)  -->
<svg version="1.1" id="Layer_30" xmlns="http://www.w3.org/2000/svg" xmlns:xlink="http://www.w3.org/1999/xlink" x="0px" y="0px"
	 viewBox="0 0 496 496" style="enable-background:new 0 0 496 496;" xml:space="preserve">
<style type="text/css">
	.st0{fill:url(#SVGID_1_);}
</style>
<linearGradient id="SVGID_1_" gradientUnits="userSpaceOnUse" x1="15.5996" y1="-7.696" x2="500.5996" y2="473.304">
	<stop  offset="0" style="stop-color:#00B1FF"/>
	<stop  offset="1" style="stop-color:#2500FF"/>
</linearGradient>
<path class="st0" d="M88,464c13.23,0,24-10.77,24-24s-10.77-24-24-24s-24,10.77-24,24S74.77,464,88,464z M88,432c4.41,0,8,3.59,8,8
	s-3.59,8-8,8s-8-3.59-8-8S83.59,432,88,432z M472,0H136c-13.23,0-24,10.77-24,24v320c0,13.23,10.77,24,24,24h267.06l-8,16H96V136
	c0-13.23-10.77-24-24-24H24c-13.23,0-24,10.77-24,24s10.77,24,24,24h56v48c-44.11,0-80,35.89-80,80s35.89,80,80,80v16.58
	c-27.1,3.89-48,27.26-48,55.42c0,30.88,25.12,56,56,56c28.16,0,51.52-20.9,55.42-48H256.8c-0.53,2.59-0.8,5.26-0.8,8
	c0,22.06,17.94,40,40,40s40-17.94,40-40s-17.94-40-40-40c-13.06,0-24.67,6.29-31.98,16h-120.6c-1.79-12.45-7.69-23.59-16.28-32
	h277.81l16-32H472c13.23,0,24-10.77,24-24V24C496,10.77,485.23,0,472,0L472,0z M296,432c13.23,0,24,10.77,24,24s-10.77,24-24,24
	s-24-10.77-24-24S282.77,432,296,432z M24,144c-4.41,0-8-3.59-8-8s3.59-8,8-8h48c4.41,0,8,3.59,8,8v8H24z M16,288
	c0-5.52,0.7-10.88,2.02-16h30.55c-0.39,5.31-0.58,10.68-0.58,16s0.19,10.69,0.58,16H18.02C16.7,298.88,16,293.52,16,288z M64,288
	c0-5.47,0.21-10.83,0.62-16H80v32H64.62C64.21,298.83,64,293.47,64,288z M80,256H66.6c1.05-5.98,2.39-11.5,4.02-16.38
	C74.92,226.71,79.31,224,80,224V256z M57.93,227.93c-3.4,7.9-5.9,17.6-7.54,28.07H24.61C32.06,243.16,43.83,233.12,57.93,227.93z
	 M24.61,320h25.78c1.64,10.47,4.14,20.17,7.54,28.08C43.83,342.88,32.06,332.84,24.61,320z M70.62,336.38
	c-1.63-4.88-2.97-10.4-4.02-16.38H80v32C79.31,352,74.92,349.29,70.62,336.38z M128,440c0,22.06-17.94,40-40,40s-40-17.94-40-40
	s17.94-40,40-40S128,417.94,128,440z M480,344c0,4.41-3.59,8-8,8H136c-4.41,0-8-3.59-8-8V24c0-4.41,3.59-8,8-8h336
	c4.41,0,8,3.59,8,8V344z M192,32h-48v48h48V32z M176,64h-16V48h16V64z M256,32h-48v48h48V32z M240,64h-16V48h16V64z M320,32h-48v48
	h48V32z M304,64h-16V48h16V64z M440,32h-64c-13.23,0-24,10.77-24,24s10.77,24,24,24h64c13.23,0,24-10.77,24-24S453.23,32,440,32z
	 M440,64h-64c-4.41,0-8-3.59-8-8s3.59-8,8-8h64c4.41,0,8,3.59,8,8S444.41,64,440,64z M344,212.12V112h16V96H248v16h16v100.22
	c-3.78,2.55-7.34,5.47-10.65,8.74c-13.35,13.25-20.93,30.8-21.34,49.43c-0.57,26.27,13.21,50.77,35.98,63.95l12.01,6.95V296
	c0-13.23,10.77-24,24-24c13.23,0,24,10.77,24,24v45.29l12.01-6.95C362.21,321.49,376,297.61,376,272c0-19.43-7.62-37.64-21.46-51.28
	C351.27,217.49,347.73,214.63,344,212.12z M328,204.09c-5.14-1.81-10.51-3.03-16-3.63V112h16V204.09z M280,112h16v88.44
	c-5.49,0.61-10.85,1.87-16,3.7V112z M344,311.15V296c0-22.06-17.94-40-40-40s-40,17.94-40,40v15.17
	c-10.41-10.64-16.32-25.15-15.99-40.43c0.65-29.75,25.4-54.31,55.16-54.74c15.11-0.24,29.38,5.51,40.14,16.11
	C354.07,242.73,360,256.89,360,272C360,286.77,354.1,300.8,344,311.15L344,311.15z M376,176h88v-48h-88V176z M392,144h56v16h-56V144
	z M376,192h88v16h-88V192z M392,224h72v16h-72V224z M144,136h88v16h-88V136z M216,168h16v16h-16V168z M200,184h-56v-16h56V184z
	 M144,200h88v16h-88V200z"/>
</svg>
