<?xml version="1.0" encoding="utf-8"?>
<!-- Generator: Adobe Illustrator 26.0.2, SVG Export Plug-In . SVG Version: 6.00 Build 0)  -->
<svg version="1.1" id="Layer_1" xmlns="http://www.w3.org/2000/svg" xmlns:xlink="http://www.w3.org/1999/xlink" x="0px" y="0px"
	 viewBox="0 0 496 496" style="enable-background:new 0 0 496 496;" xml:space="preserve">
<style type="text/css">
	.st0{fill:url(#SVGID_1_);}
</style>
<linearGradient id="SVGID_1_" gradientUnits="userSpaceOnUse" x1="1.9453" y1="25.1422" x2="465.9453" y2="485.1422">
	<stop  offset="0" style="stop-color:#00B1FF"/>
	<stop  offset="1" style="stop-color:#2500FF"/>
</linearGradient>
<path class="st0" d="M451.23,222.1c-3.02-1.66-6.15-3.07-9.54-3.92l-33.7-8.43v-3.83C422.9,195.5,432,178.31,432,160v-13.98
	c0-31.08-24.35-57.09-54.28-57.99c-1.52-0.04-3.02,0.02-4.52,0.09l8.74-20.46L339.57,25.3L314.6,41.56
	c-9.49-5.34-19.52-9.5-29.95-12.42L278.49,0h-60.97l-6.17,29.14c-10.42,2.92-20.46,7.08-29.95,12.42l-24.97-16.25l-42.33,42.33
	l8.59,20.47c-0.33-0.02-0.64-0.07-0.97-0.08c-15.32-0.45-29.75,5.14-40.71,15.79C70.04,114.45,64,128.72,64,144v16
	c0,18.31,9.09,35.5,24,45.9v3.84l-21.98,5.5L26.17,192H0v165.77L78.7,384h15.33l1.91-6.7l24.12,14.48
	c0.39,13.12,10.91,23.67,24.02,24.13c0.46,13.05,10.95,23.54,24,24c0.46,13.05,10.95,23.54,24,24
	c0.48,13.36,11.41,24.09,24.88,24.09c5,0,9.9-1.56,14.02-4.34l7.09,6.26c4.44,3.91,10.16,6.08,16.1,6.08h1.48
	c13.31,0,24.14-10.76,24.31-24.03c13.17-0.17,23.83-10.83,24-24c13.18-0.17,23.85-10.85,24-24.02c13.3-0.31,24.03-11.18,24.03-24.55
	c0-0.8-0.04-1.6-0.12-2.4L496,324.95V208h-17.98L451.23,222.1z M416,146.02V160c0,14.2-7.67,27.46-20.02,34.62l-4,2.31l0.03,25.32
	l39.97,9.98L344,278.54v-21.55c0-10.75-4.34-20.6-11.46-27.88l27.46-6.86v-25.34l-3.99-2.31C343.66,187.46,336,174.2,336,160v-16
	c0-10.91,4.31-21.11,12.15-28.71c7.83-7.59,18.22-11.69,29.09-11.27C398.61,104.66,416,123.5,416,146.02z M260.06,272.25
	l-36.21-11.57c-16.5-5.29-34.37-6.08-51.26-2.34l-4.59,1.02v-2.37c0-11.03,7.48-20.61,18.18-23.29L232,222.25v-25.34l-3.99-2.31
	C215.66,187.46,208,174.2,208,160v-16c0-10.91,4.31-21.11,12.15-28.71c7.83-7.59,18.29-11.69,29.09-11.27
	c21.37,0.64,38.76,19.48,38.76,41.99V160c0,14.2-7.67,27.46-20.02,34.62l-4,2.31l0.03,25.32l45.82,11.45
	c10.7,2.68,18.18,12.26,18.18,23.29v29.98l-1.98,1.04h-4.9l-49.18-14.05C268.06,272.85,264.07,272.4,260.06,272.25z M169.79,119.73
	C184.82,90.62,215.05,72,248,72c32.63,0,62.74,18.38,77.88,47.09c-3.81,7.64-5.88,16.09-5.88,24.91v16c0,18.31,9.09,35.5,24,45.9
	v3.84l-32,8.01l-32.01-8.01v-3.83C294.9,195.5,304,178.31,304,160v-13.98c0-31.08-24.35-57.09-54.28-57.99
	c-15.31-0.45-29.75,5.14-40.71,15.79C198.04,114.45,192,128.72,192,144v16c0,18.31,9.09,35.5,24,45.9v3.84l-32,8.01l-32.01-8.01
	v-3.83C166.9,195.5,176,178.31,176,160v-13.98C176,136.6,173.73,127.66,169.79,119.73z M133,71.35l25.56-25.56l22.5,14.64l4.3-2.64
	c10.79-6.61,22.44-11.45,34.64-14.37l4.92-1.18L230.49,16h35.03l5.55,26.24l4.92,1.18c12.2,2.92,23.86,7.76,34.64,14.37l4.3,2.64
	l22.5-14.64l25.53,25.54l-9.07,21.25c-6.18,2.66-11.9,6.39-16.89,11.23c-0.33,0.32-0.61,0.66-0.93,0.99
	C317.22,74.82,283.9,56,248,56c-36.16,0-69.57,19-88.38,49.27c-5.03-5.27-11.02-9.53-17.65-12.51L133,71.35z M104,222.25v-25.34
	l-3.99-2.31C87.66,187.46,80,174.2,80,160v-16c0-10.91,4.31-21.11,12.15-28.71c7.83-7.59,18.25-11.69,29.09-11.27
	c21.37,0.64,38.76,19.48,38.76,41.99V160c0,14.2-7.67,27.46-20.02,34.62l-4,2.31l0.03,25.32l27.45,6.86
	c-7.11,7.28-11.46,17.12-11.46,27.88v5.93l-24.95,5.55l0.65-2.27l0.3-14.79l-42.19-24.61L104,222.25z M16,208h5.83l57.54,33.56
	L50.34,357.68L16,346.23V208z M81.3,368l-15.75-5.25l28.2-112.8L112,260.59v2.29L81.97,368H81.3z M136,391.03
	c0-2.36,0.95-4.67,2.62-6.34l14.06-14.06c1.67-1.67,3.98-2.62,6.34-2.62c4.95,0,8.97,4.02,8.97,8.97c0,2.36-0.95,4.67-2.62,6.34
	l-14.06,14.06c-1.67,1.67-3.98,2.62-6.34,2.62C140.02,400,136,395.98,136,391.03z M160,415.03c0-2.36,0.95-4.67,2.62-6.34
	l14.06-14.06c1.67-1.67,3.98-2.62,6.34-2.62c4.95,0,8.97,4.02,8.97,8.97c0,2.36-0.95,4.67-2.62,6.34l-14.06,14.06
	c-1.67,1.67-3.98,2.62-6.34,2.62C164.02,424,160,419.98,160,415.03z M184,439.03c0-2.36,0.95-4.67,2.62-6.34l14.06-14.06
	c1.67-1.67,3.98-2.62,6.34-2.62c4.95,0,8.97,4.02,8.97,8.97c0,2.36-0.95,4.67-2.62,6.34l-14.06,14.06
	c-1.67,1.67-3.98,2.62-6.34,2.62C188.02,448,184,443.98,184,439.03z M216.97,472c-4.95,0-8.97-4.02-8.97-8.97
	c0-2.36,0.95-4.67,2.62-6.34l14.06-14.06c1.67-1.67,3.98-2.62,6.34-2.62c4.95,0,8.97,4.02,8.97,8.97c0,2.36-0.95,4.67-2.62,6.34
	l-14.06,14.06C221.64,471.05,219.33,472,216.97,472z M255.66,480h-1.48c-2.04,0-3.99-0.74-5.51-2.09l-5.98-5.28l6.01-6.01
	c2.14-2.14,3.81-4.7,5.04-7.43l7.27,6.05c1.9,1.59,3,3.92,3,6.41C264,476.26,260.26,480,255.66,480z M327.4,408h-1.38
	c-2.01,0-3.97-0.71-5.5-2l-43.38-36.15l-10.25,12.3l42.13,35.1c1.89,1.59,2.99,3.92,2.99,6.41c0,4.6-3.74,8.34-8.34,8.34h-1.75
	c-1.94,0-3.84-0.69-5.34-1.94l-43.45-36.21l-10.25,12.3L285,441.26c1.9,1.57,3,3.91,3,6.4c0,4.6-3.74,8.34-8.34,8.34
	c-3.07,0-6.06-1.09-8.42-3.05l-17.86-14.88c-3.93-8.04-12.02-13.64-21.48-13.98c-0.46-13.05-10.95-23.54-24-24
	c-0.46-13.05-10.95-23.54-24-24C183.43,362.73,172.5,352,159.03,352c-6.57,0-13.01,2.66-17.66,7.31l-14.06,14.06
	c-0.84,0.84-1.54,1.79-2.24,2.74l-24.57-14.75l21.54-75.4l54.01-12.01c14.17-3.17,29.11-2.48,42.92,1.94l11.79,3.77l-39.95,19.98
	c-9.13,4.57-14.8,13.76-14.8,23.97v1.58c0,14.78,12.02,26.8,26.8,26.8c4.86,0,9.63-1.32,13.79-3.82l29.79-17.86
	c5.98-3.59,14.02-2.8,19.18,1.85l67.59,60.83c1.81,1.64,2.85,3.97,2.85,6.41C336,404.14,332.14,408,327.4,408z M480,315.05
	l-134.78,67.39c-0.44-0.46-0.89-0.91-1.38-1.34l-67.58-60.83c-5.92-5.34-13.58-8.28-21.55-8.28c-5.83,0-11.56,1.59-16.57,4.59
	l-29.8,17.87c-1.67,1.01-3.58,1.54-5.54,1.54c-5.96,0-10.8-4.84-10.8-10.8v-1.58c0-4.12,2.29-7.82,5.97-9.66l44.62-22.31
	c7.64-3.82,16.7-4.68,24.93-2.31l50.27,14.36l12.18,0.3L480,225.04V315.05z"/>
</svg>
