<?xml version="1.0" encoding="utf-8"?>
<!-- Generator: Adobe Illustrator 26.0.2, SVG Export Plug-In . SVG Version: 6.00 Build 0)  -->
<svg version="1.1" id="Layer_1" xmlns="http://www.w3.org/2000/svg" xmlns:xlink="http://www.w3.org/1999/xlink" x="0px" y="0px"
	 viewBox="0 0 450 450" style="enable-background:new 0 0 450 450;" xml:space="preserve">
<style type="text/css">
	.st0{fill:url(#SVGID_1_);}
</style>
<linearGradient id="SVGID_1_" gradientUnits="userSpaceOnUse" x1="-41.1792" y1="48.5485" x2="405.8208" y2="493.5485">
	<stop  offset="0" style="stop-color:#00B1FF"/>
	<stop  offset="1" style="stop-color:#2500FF"/>
</linearGradient>
<path class="st0" d="M440,384.1c-2.3,0-4.4-1.7-4.9-4l-37.7-193.4h-99.2c-2.8,0-5-2.2-5-5s2.2-5,5-5h103.3c2.4,0,4.5,1.7,4.9,4
	l38.4,197.5c0.5,2.7-1.2,5.3-4,5.9C440.7,384,440.4,384.1,440,384.1z M10,384.1c-0.3,0-0.6,0-1-0.1c-2.7-0.5-4.5-3.2-4-5.9
	l38.4-197.5c0.5-2.3,2.5-4,4.9-4h103.3c2.8,0,5,2.2,5,5s-2.2,5-5,5H52.5L14.9,380C14.4,382.4,12.3,384.1,10,384.1z M440,428.6H10
	c-2.8,0-5-2.2-5-5v-44.5c0-2.8,2.2-5,5-5h430c2.8,0,5,2.2,5,5v44.5C445,426.3,442.8,428.6,440,428.6z M15,418.6h420v-34.5H15V418.6z
	 M225,323.8c-2,0-3.8-1.2-4.6-3c-4.9-11.1-14.3-27.3-25.2-46.1c-27.7-47.8-65.6-113.3-65.6-157.8c0-52.6,42.8-95.4,95.4-95.4
	s95.4,42.8,95.4,95.4c0,44.5-37.9,110-65.6,157.8c-10.9,18.8-20.3,35.1-25.2,46.1C228.8,322.6,227,323.8,225,323.8z M225,31.4
	c-47.1,0-85.4,38.3-85.4,85.4c0,41.8,37.2,106,64.3,152.8c8.3,14.3,15.8,27.2,21.1,37.6c5.4-10.4,12.8-23.3,21.1-37.6
	c27.1-46.8,64.3-111,64.3-152.8C310.4,69.7,272.1,31.4,225,31.4z M225,147.2c-19.7,0-35.8-16-35.8-35.8c0-19.7,16-35.8,35.8-35.8
	c19.7,0,35.8,16,35.8,35.8S244.7,147.2,225,147.2z M225,85.6c-14.2,0-25.8,11.6-25.8,25.8s11.6,25.8,25.8,25.8s25.8-11.6,25.8-25.8
	S239.2,85.6,225,85.6z M212.3,299.4H26.4c-2.8,0-5-2.2-5-5s2.2-5,5-5h185.9c2.8,0,5,2.2,5,5S215.1,299.4,212.3,299.4z M146.7,384.1
	c-2.8,0-5-2.2-5-5v-84.7c0-2.8,2.2-5,5-5s5,2.2,5,5v84.7C151.7,381.8,149.4,384.1,146.7,384.1z M146.7,347h-35.3c-2.8,0-5-2.2-5-5
	s2.2-5,5-5h35.3c2.8,0,5,2.2,5,5S149.4,347,146.7,347z M110.1,299.4c-2.8,0-5-2.2-5-5v-68.6H40.8c-2.8,0-5-2.2-5-5s2.2-5,5-5h69.4
	c2.8,0,5,2.2,5,5v73.6C115.1,297.2,112.9,299.4,110.1,299.4z M419,275.4h-87.7c-2.8,0-5-2.2-5-5v-88.8c0-2.8,2.2-5,5-5s5,2.2,5,5
	v83.8H419c2.8,0,5,2.2,5,5S421.7,275.4,419,275.4z M375.1,384.1c-2.8,0-5-2.2-5-5V270.4c0-2.8,2.2-5,5-5s5,2.2,5,5v108.7
	C380.1,381.8,377.9,384.1,375.1,384.1z M279.4,384.1c-2.8,0-5-2.2-5-5v-45.9c0-2.8,2.2-5,5-5h95.8c2.8,0,5,2.2,5,5s-2.2,5-5,5h-90.8
	v40.9C284.4,381.8,282.1,384.1,279.4,384.1z"/>
</svg>
