<?xml version="1.0" encoding="utf-8"?>
<!-- Generator: Adobe Illustrator 26.0.2, SVG Export Plug-In . SVG Version: 6.00 Build 0)  -->
<svg version="1.1" id="Layer_1" xmlns="http://www.w3.org/2000/svg" xmlns:xlink="http://www.w3.org/1999/xlink" x="0px" y="0px"
	 viewBox="0 0 474.81 474" style="enable-background:new 0 0 474.81 474;" xml:space="preserve">
<style type="text/css">
	.st0{fill:url(#SVGID_1_);}
	.st1{fill:url(#SVGID_00000047020512364432872880000005694097394604941235_);}
	.st2{fill:url(#SVGID_00000052076054638980965510000012720803899405305238_);}
	.st3{fill:url(#SVGID_00000132801810335615711410000014593671556904890510_);}
</style>
<linearGradient id="SVGID_1_" gradientUnits="userSpaceOnUse" x1="133.9266" y1="108.9875" x2="471.3685" y2="376.129">
	<stop  offset="0" style="stop-color:#00B1FF"/>
	<stop  offset="0.1513" style="stop-color:#01ADFF"/>
	<stop  offset="0.3019" style="stop-color:#03A1FF"/>
	<stop  offset="0.4523" style="stop-color:#088DFF"/>
	<stop  offset="0.6026" style="stop-color:#0D71FF"/>
	<stop  offset="0.753" style="stop-color:#154DFF"/>
	<stop  offset="0.9012" style="stop-color:#1E21FF"/>
	<stop  offset="1" style="stop-color:#2500FF"/>
</linearGradient>
<path class="st0" d="M435.38,107.41H157.27c-21.77,0.02-39.41,17.66-39.43,39.43v181.43c0.03,21.77,17.66,39.41,39.43,39.43h278.11
	c21.77-0.02,39.41-17.66,39.43-39.43V146.84C474.79,125.07,457.15,107.43,435.38,107.41z M374.45,237.45l80.36-62.89v140.9
	L374.45,237.45z M157.27,127.41h278.11c10.73,0.01,19.42,8.71,19.43,19.43v2.33l-140.55,110c-9.71,7.57-23.33,7.55-33.01-0.05
	L137.84,149.17v-2.34C137.86,136.11,146.55,127.42,157.27,127.41z M220.32,237.61l-82.48,77.57v-140.8L220.32,237.61z
	 M435.38,347.71H157.27c-6.36,0-12.32-3.12-15.95-8.36l95.08-89.41l32.61,25c16.91,13.21,40.65,13.21,57.55-0.01l31.98-25.03
	l92.51,89.8C447.42,344.72,441.59,347.7,435.38,347.71L435.38,347.71z"/>
<linearGradient id="SVGID_00000021095002123429197920000013547681710672391565_" gradientUnits="userSpaceOnUse" x1="85.3957" y1="1858.1431" x2="85.3957" y2="2323.3159" gradientTransform="matrix(1 0 0 1 -18.593 -1833.4451)">
	<stop  offset="0" style="stop-color:#00B1FF"/>
	<stop  offset="0.1513" style="stop-color:#01ADFF"/>
	<stop  offset="0.3019" style="stop-color:#03A1FF"/>
	<stop  offset="0.4523" style="stop-color:#088DFF"/>
	<stop  offset="0.6026" style="stop-color:#0D71FF"/>
	<stop  offset="0.753" style="stop-color:#154DFF"/>
	<stop  offset="0.9012" style="stop-color:#1E21FF"/>
	<stop  offset="1" style="stop-color:#2500FF"/>
</linearGradient>
<path style="fill:url(#SVGID_00000021095002123429197920000013547681710672391565_);" d="M77.99,216.69H55.62c-5.52,0-10,4.48-10,10
	s4.48,10,10,10h22.37c5.52,0,10-4.48,10-10S83.51,216.69,77.99,216.69z"/>
<linearGradient id="SVGID_00000110453888813631519950000009070688044173691029_" gradientUnits="userSpaceOnUse" x1="62.5871" y1="1858.1431" x2="62.5871" y2="2323.3159" gradientTransform="matrix(1 0 0 1 -18.593 -1833.4451)">
	<stop  offset="0" style="stop-color:#00B1FF"/>
	<stop  offset="0.1513" style="stop-color:#01ADFF"/>
	<stop  offset="0.3019" style="stop-color:#03A1FF"/>
	<stop  offset="0.4523" style="stop-color:#088DFF"/>
	<stop  offset="0.6026" style="stop-color:#0D71FF"/>
	<stop  offset="0.753" style="stop-color:#154DFF"/>
	<stop  offset="0.9012" style="stop-color:#1E21FF"/>
	<stop  offset="1" style="stop-color:#2500FF"/>
</linearGradient>
<path style="fill:url(#SVGID_00000110453888813631519950000009070688044173691029_);" d="M77.99,271.43H10c-5.52,0-10,4.48-10,10
	s4.48,10,10,10h67.99c5.52,0,10-4.48,10-10S83.51,271.43,77.99,271.43z"/>
<linearGradient id="SVGID_00000093151273411675008430000013587175344505208995_" gradientUnits="userSpaceOnUse" x1="67.5871" y1="1858.1431" x2="67.5871" y2="2323.3159" gradientTransform="matrix(1 0 0 1 -18.593 -1833.4451)">
	<stop  offset="0" style="stop-color:#00B1FF"/>
	<stop  offset="0.1513" style="stop-color:#01ADFF"/>
	<stop  offset="0.3019" style="stop-color:#03A1FF"/>
	<stop  offset="0.4523" style="stop-color:#088DFF"/>
	<stop  offset="0.6026" style="stop-color:#0D71FF"/>
	<stop  offset="0.753" style="stop-color:#154DFF"/>
	<stop  offset="0.9012" style="stop-color:#1E21FF"/>
	<stop  offset="1" style="stop-color:#2500FF"/>
</linearGradient>
<path style="fill:url(#SVGID_00000093151273411675008430000013587175344505208995_);" d="M77.99,157.38H20c-5.52,0-10,4.48-10,10
	s4.48,10,10,10h57.99c5.52,0,10-4.48,10-10S83.51,157.38,77.99,157.38z"/>
</svg>
