<?xml version="1.0" encoding="utf-8"?>
<!-- Generator: Adobe Illustrator 26.0.2, SVG Export Plug-In . SVG Version: 6.00 Build 0)  -->
<svg version="1.1" id="Layer_5" xmlns="http://www.w3.org/2000/svg" xmlns:xlink="http://www.w3.org/1999/xlink" x="0px" y="0px"
	 viewBox="0 0 64 64" style="enable-background:new 0 0 64 64;" xml:space="preserve">
<style type="text/css">
	.st0{fill:url(#SVGID_1_);}
</style>
<linearGradient id="SVGID_1_" gradientUnits="userSpaceOnUse" x1="1.6413" y1="-0.9844" x2="63.2583" y2="61.8241">
	<stop  offset="0" style="stop-color:#00B1FF"/>
	<stop  offset="1" style="stop-color:#2500FF"/>
</linearGradient>
<path class="st0" d="M52,19.33V6c0-2.76-2.24-5-5-5H21c-2.76,0-5,2.24-5,5v11h-5.78l-0.6,2.42l-2.13-1.28l-5.35,5.34l1.28,2.14
	L1,26.22v7.56l2.42,0.6l-1.28,2.14l5.35,5.35l2.13-1.28l0.6,2.42H16v15c0,2.76,2.24,5,5,5h26c2.76,0,5-2.24,5-5V46.67
	c6.28-1.38,11-6.98,11-13.67S58.28,20.71,52,19.33z M21,3h26c1.65,0,3,1.35,3,3v3H18V6C18,4.35,19.35,3,21,3z M16,34.57
	C15.37,34.85,14.69,35,14,35c-2.76,0-5-2.24-5-5s2.24-5,5-5c0.69,0,1.37,0.15,2,0.43V34.57z M11.78,41l-0.49-1.95l-0.2-0.53
	l-1.14-0.46l-2.16,1.3l-3.14-3.14l1.3-2.16l-0.5-1.22L3,32.22v-4.44l2.45-0.61l0.5-1.22l-1.3-2.16l3.14-3.14l2.16,1.3l1.22-0.5
	L11.78,19H16v4.31C15.35,23.11,14.68,23,14,23c-3.86,0-7,3.14-7,7s3.14,7,7,7c0.68,0,1.35-0.11,2-0.31V41H11.78z M47,61H21
	c-1.65,0-3-1.35-3-3v-3h32v3C50,59.65,48.65,61,47,61z M50,53H18V11h32v8.05C49.67,19.03,49.34,19,49,19s-0.67,0.03-1,0.05V13H20v38
	h28v-4.05c0.33,0.02,0.66,0.05,1,0.05s0.67-0.03,1-0.05V53z M35.59,29H26V19h16v1.89C38.95,22.67,36.62,25.55,35.59,29z M24,17v14
	h11.16c-0.1,0.66-0.16,1.32-0.16,2c0,6.69,4.72,12.29,11,13.67V49H22V15h24v4.33c-0.69,0.15-1.35,0.36-2,0.61V17L24,17z M49,45
	c-3.58,0-6.8-1.59-9-4.09v-0.79c0-1.38,0.94-2.58,2.27-2.91L48,35.78v-2.91l-0.5-0.29C46.56,32.03,46,31.07,46,30v-1.79
	c0-1.66,1.2-3.06,2.73-3.19c0.86-0.07,1.67,0.2,2.3,0.78C51.65,26.36,52,27.16,52,28v2c0,1.07-0.56,2.03-1.5,2.58L50,32.87v2.91
	l5.73,1.43c1.34,0.33,2.27,1.53,2.27,2.91v0.79C55.8,43.41,52.58,45,49,45z M59.69,38.41c-0.56-1.53-1.83-2.73-3.48-3.14L52,34.22
	v-0.24c1.25-0.94,2-2.42,2-3.98v-2c0-1.4-0.59-2.74-1.62-3.69c-1.03-0.94-2.43-1.42-3.82-1.29C46,23.24,44,25.52,44,28.21V30
	c0,1.56,0.75,3.04,2,3.98v0.24l-4.21,1.05c-1.65,0.41-2.93,1.61-3.48,3.14C37.48,36.79,37,34.95,37,33c0-6.62,5.38-12,12-12
	s12,5.38,12,12C61,34.95,60.52,36.78,59.69,38.41z M40,7h-2V5h2V7z M36,7h-8V5h8V7z M30,57h8v2h-8V57z M44,57h2v2h-2V57z M22,57h2v2
	h-2V57z M24,33h9v2h-9V33z M24,37h9v2h-9V37z M24,41h9v2h-9V41z M24,45h9v2h-9V45z M56,13.18c-1.16,0.41-2,1.51-2,2.82
	c0,1.65,1.35,3,3,3s3-1.35,3-3c0-1.3-0.84-2.4-2-2.82V5h-2V13.18z M57,17c-0.55,0-1-0.45-1-1s0.45-1,1-1s1,0.45,1,1S57.55,17,57,17z
	 M58,3h-2V1h2V3z M11,45c-1.65,0-3,1.35-3,3c0,1.3,0.84,2.4,2,2.82V59h2v-8.18c1.16-0.41,2-1.51,2-2.82C14,46.35,12.65,45,11,45z
	 M11,49c-0.55,0-1-0.45-1-1s0.45-1,1-1s1,0.45,1,1S11.55,49,11,49z M10,61h2v2h-2V61z"/>
</svg>
