<?xml version="1.0" encoding="utf-8"?>
<!-- Generator: Adobe Illustrator 26.0.2, SVG Export Plug-In . SVG Version: 6.00 Build 0)  -->
<svg version="1.1" id="_x33_0" xmlns="http://www.w3.org/2000/svg" xmlns:xlink="http://www.w3.org/1999/xlink" x="0px" y="0px"
	 viewBox="0 0 64 64" style="enable-background:new 0 0 64 64;" xml:space="preserve">
<style type="text/css">
	.st0{fill:url(#SVGID_1_);}
</style>
<linearGradient id="SVGID_1_" gradientUnits="userSpaceOnUse" x1="-1.8581" y1="2.0272" x2="61.9717" y2="64.6655">
	<stop  offset="0" style="stop-color:#00B1FF"/>
	<stop  offset="1" style="stop-color:#2500FF"/>
</linearGradient>
<path class="st0" d="M39,23h2v2h-2V23z M35,25h2v-2h-2V25z M31,25h2v-2h-2V25z M1,61V43c0-1.1,0.9-2,2-2h2V31h2v10h6
	c1.1,0,2,0.9,2,2v18c0,1.1-0.9,2-2,2H3C1.9,63,1,62.1,1,61z M3,61h10l0-18H3V61z M5,59h2v-2H5V59z M9,59h2v-2H9V59z M5,55h6v-2H5V55
	z M5,51h6v-2H5V51z M5,47h6v-2H5V47z M7,27H5v2h2V27z M7,23H5v2h2V23z M7,21H5V6c0-1.65,1.35-3,3-3h11c0-1.1,0.9-2,2-2h22
	c1.1,0,2,0.9,2,2h11c1.65,0,3,1.35,3,3v15h-2V6c0-0.55-0.45-1-1-1H45v8.15c3.81,3.27,6,7.97,6,13.01c0,4-1.41,7.9-3.98,10.98
	l-3.47,4.17C41.9,43.28,41,45.78,41,48.35V51H23v-2.65c0-2.57-0.91-5.07-2.55-7.04l-3.48-4.17C14.41,34.06,13,30.16,13,26.15
	c0-5.03,2.19-9.74,6-13.01V5H8C7.45,5,7,5.45,7,6V21z M35,5v4h2V3H27v6h2V5h2v4h2V5H35z M21,27h22l0-24h-4v6c0,1.1-0.9,2-2,2H27
	c-1.1,0-2-0.9-2-2V3h-4V27z M21,29c-1.1,0-2-0.9-2-2V15.92c-2.55,2.78-4,6.39-4,10.23c0,3.54,1.25,6.98,3.51,9.7l3.48,4.17
	c1.94,2.33,3.01,5.29,3.01,8.32V49h14v-0.65c0-3.03,1.07-5.99,3.01-8.32l3.47-4.17c2.27-2.72,3.51-6.16,3.51-9.7
	c0-3.84-1.45-7.45-4-10.23V27c0,1.1-0.9,2-2,2H33v16h2v-8c0-2.21,1.79-4,4-4v2c-1.1,0-2,0.9-2,2v10H27V35c0-1.1-0.9-2-2-2v-2
	c2.21,0,4,1.79,4,4v10h2V29L21,29z M59,33.1c2.28,0.47,4,2.48,4,4.9v16.18l-2.71,7.23C59.93,62.36,59.01,63,58,63
	s-1.93-0.64-2.29-1.58l0,0L53,54.18V38c0-2.41,1.72-4.43,4-4.9V31h2V33.1z M56.19,57h3.62l0.75-2h-5.11L56.19,57z M57,53v-8h-2v8H57
	z M61,53v-8h-2v8H61z M61,43v-2h-6v2H61z M58.42,60.71L59.06,59h-2.12l0.64,1.71C57.71,61.06,58.28,61.06,58.42,60.71z M58,35
	c-1.65,0-3,1.35-3,3v1h6v-1C61,36.35,59.65,35,58,35z M57,29h2v-2h-2V29z M59,23h-2v2h2V23z M23,53h18v1c0,4.96-4.04,9-9,9
	s-9-4.04-9-9V53z M25.07,55c0.49,3.39,3.41,6,6.93,6s6.44-2.61,6.93-6H25.07z"/>
</svg>
