<?xml version="1.0" encoding="utf-8"?>
<!-- Generator: Adobe Illustrator 26.0.2, SVG Export Plug-In . SVG Version: 6.00 Build 0)  -->
<svg version="1.1" id="Layer_1" xmlns="http://www.w3.org/2000/svg" xmlns:xlink="http://www.w3.org/1999/xlink" x="0px" y="0px"
	 viewBox="0 0 450 450" style="enable-background:new 0 0 450 450;" xml:space="preserve">
<style type="text/css">
	.st0{fill:url(#SVGID_1_);}
</style>
<linearGradient id="SVGID_1_" gradientUnits="userSpaceOnUse" x1="17.7606" y1="1790.2507" x2="432.7513" y2="2205.2412" gradientTransform="matrix(1 0 0 1 0 -1772)">
	<stop  offset="0" style="stop-color:#00B1FF"/>
	<stop  offset="1" style="stop-color:#2500FF"/>
</linearGradient>
<path class="st0" d="M146.03,226.91H92.99c-10.92,0-19.81-8.89-19.81-19.81v-53.04c0-10.92,8.89-19.81,19.81-19.81h53.04
	c10.92,0,19.81,8.89,19.81,19.81v53.04C165.84,218.02,156.96,226.91,146.03,226.91z M92.99,144.24c-5.41,0-9.81,4.4-9.81,9.81v53.04
	c0,5.41,4.4,9.81,9.81,9.81h53.04c5.41,0,9.81-4.4,9.81-9.81v-53.05c0-5.41-4.4-9.81-9.81-9.81L92.99,144.24z M146.03,406.48H92.99
	c-10.92,0-19.81-8.89-19.81-19.81v-53.04c0-10.92,8.89-19.81,19.81-19.81h53.04c10.92,0,19.81,8.89,19.81,19.81v53.04
	C165.84,397.59,156.96,406.48,146.03,406.48z M92.99,323.81c-5.41,0-9.81,4.4-9.81,9.81v53.04c0,5.41,4.4,9.81,9.81,9.81h53.04
	c5.41,0,9.81-4.4,9.81-9.81v-53.04c0-5.41-4.4-9.81-9.81-9.81H92.99z M357.53,226.91h-53.05c-10.92,0-19.81-8.89-19.81-19.81v-53.04
	c0-10.92,8.89-19.81,19.81-19.81h53.04c10.92,0,19.81,8.89,19.81,19.81v53.04C377.34,218.02,368.46,226.91,357.53,226.91
	L357.53,226.91z M304.49,144.24c-5.41,0-9.81,4.4-9.81,9.81v53.04c0,5.41,4.4,9.81,9.81,9.81h53.04c5.41,0,9.81-4.4,9.81-9.81
	v-53.05c0-5.41-4.4-9.81-9.81-9.81L304.49,144.24z M265.08,331.08h-53.04c-10.92,0-19.81-8.89-19.81-19.81v-53.05
	c0-10.92,8.89-19.81,19.81-19.81h53.04c10.92,0,19.81,8.89,19.81,19.81v53.05C284.89,322.19,276.01,331.08,265.08,331.08z
	 M212.04,248.41c-5.41,0-9.81,4.4-9.81,9.81v53.05c0,5.41,4.4,9.81,9.81,9.81h53.04c5.41,0,9.81-4.4,9.81-9.81v-53.05
	c0-5.41-4.4-9.81-9.81-9.81L212.04,248.41z M289.68,185.57H160.84c-2.76,0-5-2.24-5-5s2.24-5,5-5h128.83c2.76,0,5,2.24,5,5
	S292.44,185.57,289.68,185.57z M279.63,288.77c-2.75,0-4.99-2.23-5-4.98c-0.01-2.76,2.22-5.01,4.98-5.02l46.4-0.19V221.9
	c0-2.76,2.24-5,5-5s5,2.24,5,5v61.65c0,2.75-2.23,4.99-4.98,5l-51.38,0.21C279.64,288.77,279.64,288.77,279.63,288.77z
	 M119.51,323.81c-2.76,0-5-2.24-5-5v-31.6c0-2.76,2.24-5,5-5h77.71c2.76,0,5,2.24,5,5s-2.24,5-5,5h-72.71v26.6
	C124.51,321.58,122.27,323.81,119.51,323.81z M418.14,436.23H32.38c-15.51,0-28.12-12.62-28.12-28.12V43.38
	c0-15.51,12.62-28.12,28.12-28.12h385.75c15.51,0,28.12,12.62,28.12,28.12V408.1C446.26,423.61,433.64,436.23,418.14,436.23z
	 M32.38,25.25c-9.99,0-18.12,8.13-18.12,18.12V408.1c0,9.99,8.13,18.12,18.12,18.12h385.75c9.99,0,18.12-8.13,18.12-18.12V43.38
	c0-9.99-8.13-18.12-18.12-18.12L32.38,25.25z M441.26,112.49h-432c-2.76,0-5-2.24-5-5s2.24-5,5-5h432c2.76,0,5,2.24,5,5
	S444.02,112.49,441.26,112.49z M64.65,85.78c-12.08,0-21.9-9.83-21.9-21.9c0-12.08,9.83-21.9,21.9-21.9c12.08,0,21.9,9.83,21.9,21.9
	C86.56,75.95,76.73,85.78,64.65,85.78z M64.65,51.97c-6.56,0-11.9,5.34-11.9,11.9s5.34,11.9,11.9,11.9s11.9-5.34,11.9-11.9
	S71.22,51.97,64.65,51.97z M126.9,85.78c-12.08,0-21.9-9.83-21.9-21.9c0-12.08,9.83-21.9,21.9-21.9c12.08,0,21.9,9.83,21.9,21.9
	S138.97,85.78,126.9,85.78z M126.9,51.97c-6.56,0-11.9,5.34-11.9,11.9s5.34,11.9,11.9,11.9s11.9-5.34,11.9-11.9
	S133.46,51.97,126.9,51.97z M189.14,85.78c-12.08,0-21.9-9.83-21.9-21.9c0-12.08,9.83-21.9,21.9-21.9s21.9,9.83,21.9,21.9
	S201.22,85.78,189.14,85.78z M189.14,51.97c-6.56,0-11.9,5.34-11.9,11.9s5.34,11.9,11.9,11.9s11.9-5.34,11.9-11.9
	S195.7,51.97,189.14,51.97z M341.35,68.87H239.92c-2.76,0-5-2.24-5-5s2.24-5,5-5h101.43c2.76,0,5,2.24,5,5
	C346.35,66.63,344.11,68.87,341.35,68.87z M402.77,68.87h-28.02c-2.76,0-5-2.24-5-5s2.24-5,5-5h28.02c2.76,0,5,2.24,5,5
	C407.77,66.63,405.54,68.87,402.77,68.87z M388.77,82.88c-2.76,0-5-2.24-5-5V49.86c0-2.76,2.24-5,5-5s5,2.24,5,5v28.01
	C393.77,80.64,391.53,82.88,388.77,82.88z"/>
</svg>
