<?xml version="1.0" encoding="utf-8"?>
<!-- Generator: Adobe Illustrator 26.0.2, SVG Export Plug-In . SVG Version: 6.00 Build 0)  -->
<svg version="1.1" id="Capa_1" xmlns="http://www.w3.org/2000/svg" xmlns:xlink="http://www.w3.org/1999/xlink" x="0px" y="0px"
	 viewBox="0 0 505.83 505.83" style="enable-background:new 0 0 505.83 505.83;" xml:space="preserve">
<style type="text/css">
	.st0{fill:url(#SVGID_1_);}
	.st1{fill:url(#SVGID_00000061442025613764483770000016724346014418129569_);}
	.st2{fill:url(#SVGID_00000046314376984411653440000012672876849348706460_);}
	.st3{fill:url(#SVGID_00000101786196100271811320000015476143053931620489_);}
	.st4{fill:url(#SVGID_00000136413347361746038330000001822171345440027577_);}
	.st5{fill:url(#SVGID_00000004543053436876843000000002712696962721882806_);}
	.st6{fill:url(#SVGID_00000001652549314559698340000004203244415389538964_);}
	.st7{fill:url(#SVGID_00000093860303892075470420000010276218506573068956_);}
	.st8{fill:url(#SVGID_00000000223215255777818890000013628071518866282670_);}
	.st9{fill:url(#SVGID_00000012469656968783420300000008152284270196537013_);}
</style>
<g>
	<g>
		<linearGradient id="SVGID_1_" gradientUnits="userSpaceOnUse" x1="57.5157" y1="-51.6729" x2="557.5156" y2="456.3271">
			<stop  offset="0" style="stop-color:#00B1FF"/>
			<stop  offset="1" style="stop-color:#2500FF"/>
		</linearGradient>
		<path class="st0" d="M122.38,212.12h261.08c4.51,0,8.16-3.65,8.16-8.16V89.74c0-4.51-3.65-8.16-8.16-8.16H122.38
			c-4.51,0-8.16,3.65-8.16,8.16v114.22C114.22,208.47,117.87,212.12,122.38,212.12L122.38,212.12z M130.54,97.9H375.3v97.9H130.54
			V97.9z"/>
		
			<linearGradient id="SVGID_00000048481426198669887920000007940834773725325972_" gradientUnits="userSpaceOnUse" x1="12.5185" y1="-7.3843" x2="512.5185" y2="500.6157">
			<stop  offset="0" style="stop-color:#00B1FF"/>
			<stop  offset="1" style="stop-color:#2500FF"/>
		</linearGradient>
		<path style="fill:url(#SVGID_00000048481426198669887920000007940834773725325972_);" d="M456.88,98.72V40.79
			C456.86,18.28,438.61,0.03,416.09,0H89.74C67.23,0.03,48.98,18.28,48.95,40.79v57.93c-18.98,3.9-32.61,20.6-32.63,39.98v261.08
			c0.03,22.52,18.27,40.77,40.79,40.79h136.4l-4.24,16.98c-15.18,3.12-26.08,16.48-26.1,31.97v8.16c0,4.51,3.65,8.16,8.16,8.16
			h163.17c4.51,0,8.16-3.65,8.16-8.16v-8.16c-0.02-15.5-10.93-28.85-26.11-31.97l-4.23-16.98h136.4
			c22.52-0.03,40.77-18.27,40.79-40.79V138.7C489.49,119.32,475.86,102.62,456.88,98.72L456.88,98.72z M65.27,40.79
			c0-13.52,10.96-24.48,24.48-24.48h326.34c13.52,0,24.48,10.96,24.48,24.48v8.16H65.27V40.79z M65.27,65.27h375.3v293.71H65.27
			V65.27z M32.63,138.7c0.04-10.34,6.57-19.53,16.32-22.97v243.26H32.63L32.63,138.7z M326.34,489.52H179.49
			c0-9.01,7.3-16.32,16.32-16.32h114.22C319.04,473.2,326.34,480.51,326.34,489.52z M206.26,456.88l4.08-16.32h85.16l4.08,16.32
			H206.26z M473.2,399.77c0,13.52-10.96,24.48-24.48,24.48H57.11c-13.52,0-24.48-10.96-24.48-24.48V375.3H473.2V399.77z
			 M473.2,358.98h-16.32V115.72c9.74,3.44,16.27,12.64,16.32,22.98V358.98z"/>
		
			<linearGradient id="SVGID_00000082354166269927584820000012451941953414253200_" gradientUnits="userSpaceOnUse" x1="-68.927" y1="72.7785" x2="431.073" y2="580.7785">
			<stop  offset="0" style="stop-color:#00B1FF"/>
			<stop  offset="1" style="stop-color:#2500FF"/>
		</linearGradient>
		<path style="fill:url(#SVGID_00000082354166269927584820000012451941953414253200_);" d="M244.76,391.61h16.32v16.32h-16.32
			L244.76,391.61z"/>
	</g>
	
		<linearGradient id="SVGID_00000023962410710562370070000018338137131818282133_" gradientUnits="userSpaceOnUse" x1="54.0895" y1="-48.3007" x2="554.0895" y2="459.6993">
		<stop  offset="0" style="stop-color:#00B1FF"/>
		<stop  offset="1" style="stop-color:#2500FF"/>
	</linearGradient>
	<path style="fill:url(#SVGID_00000023962410710562370070000018338137131818282133_);" d="M244.76,228.44h179.49v16.32H244.76
		L244.76,228.44z"/>
	
		<linearGradient id="SVGID_00000172417430298946089740000006787069767473854650_" gradientUnits="userSpaceOnUse" x1="27.4144" y1="-22.0457" x2="527.4144" y2="485.9543">
		<stop  offset="0" style="stop-color:#00B1FF"/>
		<stop  offset="1" style="stop-color:#2500FF"/>
	</linearGradient>
	<path style="fill:url(#SVGID_00000172417430298946089740000006787069767473854650_);" d="M203.97,261.08h220.28v16.32H203.97
		L203.97,261.08z"/>
	
		<linearGradient id="SVGID_00000153685535328461472230000006407754054361877379_" gradientUnits="userSpaceOnUse" x1="-63.7573" y1="67.6903" x2="436.2427" y2="575.6902">
		<stop  offset="0" style="stop-color:#00B1FF"/>
		<stop  offset="1" style="stop-color:#2500FF"/>
	</linearGradient>
	<path style="fill:url(#SVGID_00000153685535328461472230000006407754054361877379_);" d="M81.58,261.08h106.07v16.32H81.58
		L81.58,261.08z"/>
	
		<linearGradient id="SVGID_00000052818210073623432280000001985690255983681681_" gradientUnits="userSpaceOnUse" x1="31.8192" y1="-26.3811" x2="531.8192" y2="481.6189">
		<stop  offset="0" style="stop-color:#00B1FF"/>
		<stop  offset="1" style="stop-color:#2500FF"/>
	</linearGradient>
	<path style="fill:url(#SVGID_00000052818210073623432280000001985690255983681681_);" d="M285.55,293.71h138.7v16.32h-138.7V293.71
		z"/>
	
		<linearGradient id="SVGID_00000039812608467070281780000008795991889868312990_" gradientUnits="userSpaceOnUse" x1="-59.3523" y1="63.3546" x2="440.6477" y2="571.3546">
		<stop  offset="0" style="stop-color:#00B1FF"/>
		<stop  offset="1" style="stop-color:#2500FF"/>
	</linearGradient>
	<path style="fill:url(#SVGID_00000039812608467070281780000008795991889868312990_);" d="M81.58,293.71h187.66v16.32H81.58
		L81.58,293.71z"/>
	
		<linearGradient id="SVGID_00000142164345404295241230000001758211291528243346_" gradientUnits="userSpaceOnUse" x1="-17.6482" y1="22.3073" x2="482.3518" y2="530.3073">
		<stop  offset="0" style="stop-color:#00B1FF"/>
		<stop  offset="1" style="stop-color:#2500FF"/>
	</linearGradient>
	<path style="fill:url(#SVGID_00000142164345404295241230000001758211291528243346_);" d="M155.01,326.35h269.23v16.32H155.01
		V326.35z"/>
	
		<linearGradient id="SVGID_00000073688682264694718210000003806452912680373678_" gradientUnits="userSpaceOnUse" x1="-108.8197" y1="112.043" x2="391.1803" y2="620.043">
		<stop  offset="0" style="stop-color:#00B1FF"/>
		<stop  offset="1" style="stop-color:#2500FF"/>
	</linearGradient>
	<path style="fill:url(#SVGID_00000073688682264694718210000003806452912680373678_);" d="M81.58,326.35h57.12v16.32H81.58V326.35z"
		/>
</g>
</svg>
