<?xml version="1.0" encoding="utf-8"?>
<!-- Generator: Adobe Illustrator 26.0.2, SVG Export Plug-In . SVG Version: 6.00 Build 0)  -->
<svg version="1.1" id="Layer_5" xmlns="http://www.w3.org/2000/svg" xmlns:xlink="http://www.w3.org/1999/xlink" x="0px" y="0px"
	 viewBox="0 0 64 64" style="enable-background:new 0 0 64 64;" xml:space="preserve">
<style type="text/css">
	.st0{fill:url(#SVGID_1_);}
</style>
<linearGradient id="SVGID_1_" gradientUnits="userSpaceOnUse" x1="3.506" y1="-4.6173" x2="68.506" y2="58.3827">
	<stop  offset="0" style="stop-color:#00B1FF"/>
	<stop  offset="1" style="stop-color:#2500FF"/>
</linearGradient>
<path class="st0" d="M36,37c-4.96,0-9,4.04-9,9s4.04,9,9,9s9-4.04,9-9S40.96,37,36,37z M34.41,49c-0.17-0.61-0.3-1.28-0.36-2h3.9
	c-0.06,0.72-0.19,1.39-0.36,2H34.41z M36.82,51c-0.28,0.56-0.57,1.03-0.82,1.4c-0.25-0.36-0.54-0.83-0.82-1.4H36.82z M34.05,45
	c0.06-0.72,0.19-1.39,0.36-2h3.18c0.17,0.61,0.3,1.28,0.36,2H34.05z M35.18,41c0.28-0.56,0.57-1.03,0.82-1.4
	c0.25,0.36,0.54,0.83,0.82,1.4H35.18z M32.98,41h-1.87c0.75-0.73,1.66-1.29,2.67-1.63C33.51,39.84,33.23,40.38,32.98,41z M32.35,43
	c-0.15,0.62-0.26,1.29-0.31,2h-2.96c0.1-0.71,0.31-1.38,0.6-2H32.35z M32.04,47c0.05,0.71,0.16,1.38,0.31,2h-2.66
	c-0.3-0.62-0.5-1.29-0.6-2H32.04z M32.98,51c0.25,0.62,0.53,1.16,0.8,1.63c-1.01-0.34-1.92-0.9-2.67-1.63H32.98z M39.02,51h1.87
	c-0.75,0.73-1.66,1.29-2.67,1.63C38.49,52.16,38.77,51.62,39.02,51z M39.65,49c0.15-0.62,0.26-1.29,0.31-2h2.96
	c-0.1,0.71-0.31,1.38-0.6,2H39.65z M39.96,45c-0.05-0.71-0.16-1.38-0.31-2h2.66c0.3,0.62,0.5,1.29,0.6,2H39.96z M39.02,41
	c-0.25-0.62-0.53-1.16-0.8-1.63c1.01,0.34,1.92,0.9,2.67,1.63H39.02z M62.08,49.33L51,47.49V45h9c1.65,0,3-1.35,3-3V4
	c0-1.65-1.35-3-3-3H4C2.35,1,1,2.35,1,4v38c0,1.65,1.35,3,3,3h17v11c0,1.65,1.35,3,3,3h24.82l0.51,3.08L53,58.41l5,5L63.41,58l-5-5
	L62.08,49.33z M4,3h56c0.55,0,1,0.45,1,1v9H3V4C3,3.45,3.45,3,4,3z M4,43c-0.55,0-1-0.45-1-1V15h58v27c0,0.55-0.45,1-1,1h-9v-7
	c0-1.65-1.35-3-3-3H24c-1.65,0-3,1.35-3,3v7H4z M24,57c-0.55,0-1-0.45-1-1V36c0-0.55,0.45-1,1-1h24c0.55,0,1,0.45,1,1v11.15
	l-2.22-0.37L48.49,57H24z M60.59,58L58,60.59l-5-5l-2.33,2.33l-1.45-8.7l8.7,1.45L55.59,53L60.59,58z M11,5H5v6h6V5z M9,9H7V7h2V9z
	 M19,5h-6v6h6V5z M17,9h-2V7h2V9z M27,5h-6v6h6V5z M25,9h-2V7h2V9z M59,17H33v14h26V17z M57,29H35V19h22V29z M7,19H5v-2h2V19z
	 M31,19H9v-2h22V19z M31,23H5v-2h26V23z M7,27H5v-2h2V27z M9,27v-2h2v2H9z M13,25h18v2H13V25z M29,29h2v2h-2V29z M27,31H5v-2h22V31z
	 M5,41h14v-8H5V41z M7,35h10v4H7V35z M27,39h-2v-2h2V39z M47,39h-2v-2h2V39z M25,53h2v2h-2V53z"/>
</svg>
