<?xml version="1.0" encoding="utf-8"?>
<!-- Generator: Adobe Illustrator 26.0.2, SVG Export Plug-In . SVG Version: 6.00 Build 0)  -->
<svg version="1.1" id="Ñëîé_1" xmlns="http://www.w3.org/2000/svg" xmlns:xlink="http://www.w3.org/1999/xlink" x="0px" y="0px"
	 viewBox="0 0 1440 552" style="enable-background:new 0 0 1440 552;" xml:space="preserve">
<style type="text/css">
	.st0{fill:url(#SVGID_1_);}
	.st1{opacity:0.5;fill:#4FAE86;}
	.st2{opacity:0.5;fill:#319188;}
	.st3{fill:#FCEA10;}
	.st4{fill:#319188;}
	.st5{fill:#DCE5FE;}
	.st6{fill:#4FAE86;}
	.st7{fill:#A1C0F7;}
	.st8{fill:#8A9EDD;}
	.st9{fill:#7689D6;}
	.st10{fill:#667ECC;}
	.st11{fill:url(#SVGID_00000156567038975262387350000017874298234475454852_);}
	.st12{fill:url(#SVGID_00000109015050556363714120000000586382146819565469_);}
	.st13{fill:url(#SVGID_00000077301109378619971620000010239023887210573212_);}
	.st14{fill:#BDD0FB;}
	.st15{fill:url(#SVGID_00000093150443760655983640000010153750056989925810_);}
	.st16{fill:url(#SVGID_00000183939162344975368610000008071271273243291283_);}
	.st17{fill:url(#SVGID_00000134962059129025623020000001076497157452489095_);}
	.st18{fill:url(#SVGID_00000083790327798930950670000001166344018994094521_);}
	.st19{fill:url(#SVGID_00000178198070608729656710000018381050751820458416_);}
	.st20{fill:url(#SVGID_00000128483037365060949240000011538546253301494919_);}
	.st21{fill:url(#SVGID_00000172423328627193693940000008234517851880463756_);}
	.st22{fill:url(#SVGID_00000112615155840318671860000008368612553220108703_);}
	.st23{fill:url(#SVGID_00000153688030592125413210000015101611467660461238_);}
	.st24{fill:url(#SVGID_00000066494821240784494570000008994886527844737720_);}
	.st25{fill:url(#SVGID_00000067228113596318905300000001592107828146822305_);}
	.st26{fill:url(#SVGID_00000101799939501746204880000004324756010906075536_);}
	.st27{fill:url(#SVGID_00000110465317131398718840000008641199853839170717_);}
	.st28{fill:url(#SVGID_00000031168102461837931210000004832002269241063584_);}
	.st29{fill:url(#SVGID_00000110471168139554440760000004375280473474954392_);}
	.st30{fill:url(#SVGID_00000165920325047350457020000008506611815262559128_);}
	.st31{fill:url(#SVGID_00000139293808903258143050000006906189250398833825_);}
	.st32{fill:#D6D6D6;}
	.st33{fill:#E8E8E8;}
	.st34{fill:#C2C2C2;}
	.st35{fill:url(#SVGID_00000083058664712894924630000002043436354312078783_);}
	.st36{fill:#E6332A;}
	.st37{fill:url(#SVGID_00000165953685136150457690000000683964828126594448_);}
	.st38{fill:#4DA8F2;}
	.st39{fill:url(#SVGID_00000173136894280131842680000003815136164268622215_);}
	.st40{fill:url(#SVGID_00000070812423334452976790000017339427184123092133_);}
	.st41{fill:#EEA886;}
	.st42{fill:#292C47;}
	.st43{fill:#3D416B;}
	.st44{fill:#CFBEB6;}
	.st45{fill:#FCCCA2;}
	.st46{fill:#EDDAD3;}
	.st47{fill:#A77860;}
	.st48{fill:#23263D;}
	.st49{fill:#323657;}
	.st50{fill:#2F4563;}
	.st51{fill:#EFAA88;}
	.st52{fill:#DB9C7C;}
	.st53{fill:#D44040;}
	.st54{fill:url(#SVGID_00000080887995229812135790000017264071190052898718_);}
	.st55{fill:url(#SVGID_00000028326337931179004940000008717727674211504024_);}
	.st56{fill:url(#SVGID_00000163048911903889033690000015079286136496486036_);}
	.st57{fill:url(#SVGID_00000160898093800189990340000001492510609902887331_);}
	.st58{fill:url(#SVGID_00000080885305640099938450000012646541922933034662_);}
	.st59{fill:url(#SVGID_00000164474177065468702160000013790812079558387102_);}
	.st60{fill:url(#SVGID_00000144309380705173595440000011501846876163800505_);}
	.st61{fill:url(#SVGID_00000009565251365582292860000003842409984117433262_);}
	.st62{fill:url(#SVGID_00000054252732592375685110000003768500170642889096_);}
	.st63{fill:url(#SVGID_00000106826290243036827890000006494880528948385938_);}
	.st64{fill:url(#SVGID_00000155139789201112932720000004110230866685296789_);}
	.st65{fill:url(#SVGID_00000003784009713121718000000016556461903034922138_);}
	.st66{fill:url(#SVGID_00000003786316106240338980000018291901150756889493_);}
	.st67{fill:url(#SVGID_00000049207205335799772990000017481595062224143242_);}
	.st68{fill:url(#SVGID_00000071536746815901580970000018409109255901271690_);}
	.st69{fill:url(#SVGID_00000105387381397088515310000001344276176179223191_);}
	.st70{fill:url(#SVGID_00000180324401912827861610000017919578757527549337_);}
	.st71{fill:url(#SVGID_00000106863547305539258070000007056485956864354957_);}
	.st72{fill:#F9B233;}
	.st73{fill:#F39200;}
	.st74{fill:#E94E1B;}
	.st75{fill:#FFFFFF;}
	.st76{fill:#DADADA;}
	.st77{fill:url(#SVGID_00000103241921822951177590000017673801970060175274_);}
	.st78{fill:#7D97F4;}
	.st79{fill:none;stroke:#04083A;stroke-width:3;stroke-linecap:round;stroke-linejoin:round;stroke-miterlimit:10;}
</style>
<linearGradient id="SVGID_1_" gradientUnits="userSpaceOnUse" x1="-1878.9398" y1="463.6762" x2="-1252.0951" y2="463.6762" gradientTransform="matrix(-2.2383 0.0581 0.026 0.9996 -2789.2686 -28.4873)">
	<stop  offset="0" style="stop-color:#DAE3FE"/>
	<stop  offset="1" style="stop-color:#E9EFFD"/>
</linearGradient>
<path class="st0" d="M1058.13,153.37c83.53,40.63,368.34-14.3,367.38,64.63c-1.13,92.42-281.55,126.88-188.84,189.41
	c92.71,62.53-5.92,137.88-371.76,146s-956.41-58.06-816.94-150.2S92.88,309,84.95,270.08c-7.93-38.92,61.57-126.53,346.73-62.37
	S846.6,50.48,1058.13,153.37z"/>
<path class="st1" d="M1.36,556.31c46.53-35.95,148.42-77.54,184.11-65.16s88.39,11.72,121.45,21.95
	c33.05,10.23,100.51,9.79,140.54,9.52s107.41-13.87,121.21-9.76c13.81,4.12,105.38-10.98,132.4,0.24
	c27.02,11.22,298.3,8.13,322.07,8.19c23.76,0.06,242.57-16.74,262.38,3.04c19.8,19.79,12.94,20.77,12.94,20.77L1.36,556.31z"/>
<path class="st2" d="M1480.63,573.77c-46.53-66.89-148.42-144.28-184.11-121.25s-88.39,21.8-121.45,40.84
	c-33.05,19.04-100.51,18.22-140.54,17.71c-40.03-0.51-107.41-25.81-121.21-18.15c-13.81,7.66-105.38-20.44-132.4,0.44
	c-27.02,20.88-298.3,15.13-322.07,15.24c-23.76,0.11-242.57-31.16-262.38,5.66c-19.8,36.82-12.94,38.65-12.94,38.65L1480.63,573.77z
	"/>
<g>
	<g>
		<path class="st3" d="M891.17,149.35c-0.01,0-0.61-0.5-1.79-1.25l0.3-0.47c1.22,0.78,1.82,1.27,1.85,1.29L891.17,149.35z"/>
	</g>
	<g>
		<path class="st3" d="M851.31,138.47c-1.45,0.02-2.94,0.07-4.43,0.15l0.03,0.55c1.47-0.08,2.96-0.13,4.41-0.14L851.31,138.47z
			 M855.74,138.52l-0.02,0.56c1.48,0.05,2.96,0.13,4.4,0.25l0.04-0.55C858.72,138.66,857.23,138.57,855.74,138.52z M842.46,138.95
			c-1.45,0.14-2.93,0.31-4.41,0.5l0.08,0.55c1.46-0.19,2.94-0.36,4.38-0.5L842.46,138.95z M864.58,139.25l-0.07,0.55
			c1.46,0.19,2.93,0.43,4.35,0.7l0.1-0.55C867.53,139.68,866.05,139.44,864.58,139.25z M833.67,140.11
			c-1.44,0.24-2.9,0.51-4.36,0.81l0.11,0.54c1.45-0.29,2.9-0.56,4.34-0.81L833.67,140.11z M873.29,140.9l-0.13,0.54
			c1.44,0.36,2.86,0.77,4.24,1.21l0.17-0.53C876.18,141.68,874.74,141.27,873.29,140.9z M824.99,141.87
			c-1.41,0.33-2.86,0.7-4.3,1.08l0.14,0.53c1.43-0.38,2.87-0.75,4.28-1.07L824.99,141.87z M881.74,143.63l-0.21,0.52
			c1.39,0.56,2.74,1.16,4.01,1.8l0.25-0.5C884.51,144.81,883.15,144.2,881.74,143.63z M816.43,144.16c-1.36,0.4-2.78,0.83-4.24,1.29
			l0.16,0.53c1.46-0.45,2.88-0.88,4.24-1.28L816.43,144.16z M807.97,146.77c-1.37,0.44-2.78,0.89-4.22,1.36l0.17,0.53
			c1.44-0.47,2.84-0.92,4.21-1.36L807.97,146.77z M799.54,149.51c-1.37,0.45-2.78,0.91-4.2,1.39l0.17,0.53
			c1.43-0.47,2.83-0.93,4.2-1.39L799.54,149.51z M791.14,152.28l-4.2,1.39l0.17,0.53l4.2-1.39L791.14,152.28z M782.73,155.05
			c-1.39,0.46-2.79,0.91-4.21,1.37l0.17,0.53c1.42-0.46,2.82-0.92,4.21-1.37L782.73,155.05z M774.32,157.79
			c-1.39,0.45-2.8,0.9-4.21,1.35l0.17,0.53c1.42-0.45,2.82-0.9,4.21-1.35L774.32,157.79z M765.89,160.47
			c-1.4,0.44-2.8,0.88-4.22,1.31l0.16,0.53c1.42-0.44,2.83-0.88,4.23-1.31L765.89,160.47z M757.43,163.08
			c-1.4,0.42-2.82,0.85-4.24,1.27l0.16,0.53c1.42-0.42,2.83-0.85,4.24-1.27L757.43,163.08z M748.95,165.6
			c-1.41,0.41-2.83,0.81-4.25,1.22l0.15,0.53c1.42-0.4,2.84-0.81,4.26-1.22L748.95,165.6z M740.44,168.01
			c-1.41,0.39-2.84,0.77-4.26,1.16l0.14,0.54c1.44-0.38,2.85-0.77,4.27-1.16L740.44,168.01z M592.39,169.13v0.63
			c0.27,0.14,0.55,0.28,0.82,0.42l0.25-0.5C593.1,169.51,592.75,169.32,592.39,169.13z M731.9,170.29
			c-1.42,0.37-2.85,0.73-4.29,1.09l0.13,0.54c1.44-0.36,2.87-0.72,4.29-1.1L731.9,170.29z M597.43,171.61l-0.23,0.51
			c1.33,0.61,2.7,1.19,4.08,1.74l0.21-0.51C600.12,172.8,598.75,172.21,597.43,171.61z M723.32,172.43
			c-1.43,0.34-2.86,0.68-4.3,1.01l0.13,0.55c1.44-0.33,2.87-0.67,4.3-1.02L723.32,172.43z M714.72,174.42
			c-1.44,0.32-2.88,0.63-4.32,0.93l0.11,0.55c1.45-0.31,2.89-0.61,4.32-0.93L714.72,174.42z M605.61,174.9l-0.19,0.52
			c1.37,0.48,2.79,0.95,4.21,1.39l0.16-0.53C608.39,175.84,606.98,175.38,605.61,174.9z M706.07,176.23
			c-1.45,0.28-2.89,0.56-4.34,0.83l0.1,0.55c1.45-0.27,2.9-0.55,4.35-0.83L706.07,176.23z M614.04,177.5l-0.14,0.53
			c1.41,0.38,2.85,0.73,4.3,1.06l0.12-0.55C616.89,178.22,615.45,177.87,614.04,177.5z M697.38,177.85c-1.45,0.25-2.9,0.5-4.36,0.73
			l0.09,0.55c1.46-0.23,2.92-0.48,4.37-0.73L697.38,177.85z M688.64,179.26c-1.46,0.21-2.93,0.42-4.39,0.61l0.07,0.56
			c1.46-0.19,2.93-0.4,4.4-0.61L688.64,179.26z M622.65,179.45l-0.11,0.55c1.43,0.27,2.9,0.53,4.37,0.76l0.08-0.55
			C625.54,179.97,624.07,179.72,622.65,179.45z M679.85,180.41c-1.47,0.17-2.93,0.33-4.4,0.48l0.06,0.55
			c1.47-0.14,2.93-0.3,4.4-0.47L679.85,180.41z M631.37,180.82l-0.07,0.55c1.44,0.18,2.93,0.34,4.41,0.49l0.06-0.55
			C634.28,181.16,632.81,181,631.37,180.82z M671.05,181.29c-1.47,0.12-2.96,0.23-4.4,0.33l0.03,0.56c1.45-0.09,2.94-0.21,4.42-0.33
			L671.05,181.29z M640.16,181.67l-0.04,0.55c1.45,0.1,2.94,0.18,4.42,0.25l0.02-0.56C643.09,181.85,641.6,181.76,640.16,181.67z
			 M662.24,181.86c-1.47,0.07-2.96,0.12-4.41,0.16l0.01,0.56c1.46-0.04,2.94-0.09,4.43-0.16L662.24,181.86z M652.61,182.08
			c-1.21,0-2.42-0.01-3.62-0.03l-0.01,0.56c1.2,0.02,2.42,0.03,3.63,0.03h0.8v-0.56H652.61z"/>
	</g>
</g>
<g>
	<path class="st4" d="M46.79,555.61c0,0,3.1-16.84-10.66-33.55c-12.76-15.51-44.59-51.33-49.5-71.42c-0.22-0.89-1.63-0.6-1.84,0.38
		c-2.27,10.52-5.85,36.85,7.26,62.7C8.96,547.06,46.79,555.61,46.79,555.61z"/>
	<path class="st5" d="M-10.94,469.35c0.03,2.11,0.29,4.21,0.65,6.27c0.16,1.04,0.4,2.06,0.62,3.08c0.22,1.02,0.54,2.03,0.78,3.04
		c1.15,4.02,2.71,7.92,4.58,11.64l0.69,1.4c0.23,0.46,0.51,0.91,0.76,1.37c0.52,0.9,1.01,1.82,1.54,2.72l1.69,2.63
		c0.54,0.89,1.16,1.73,1.77,2.57c0.61,0.84,1.21,1.7,1.84,2.53l1.98,2.42c1.29,1.63,2.72,3.2,4.09,4.79
		c2.79,3.15,5.63,6.27,8.51,9.35c2.88,3.08,5.8,6.12,8.72,9.18c1.46,1.53,2.93,3.05,4.37,4.61c0.72,0.77,1.44,1.55,2.15,2.35
		l1.07,1.18l1.04,1.22c1.39,1.61,2.7,3.31,3.94,5.05c1.21,1.77,2.28,3.65,3.08,5.64c0.07,0.16-0.01,0.35-0.18,0.42
		c-0.15,0.06-0.33-0.01-0.4-0.15l-0.01-0.01c-0.95-1.86-2.13-3.58-3.4-5.23c-1.32-1.62-2.7-3.19-4.17-4.7
		c-2.9-3.04-5.96-5.95-8.97-8.92l-4.52-4.46c-1.49-1.51-2.98-3.02-4.44-4.55c-1.48-1.52-2.93-3.06-4.37-4.62
		c-1.43-1.57-2.86-3.14-4.26-4.73c-5.65-6.3-10.9-13.32-14.32-21.2c-1.75-3.91-3.15-7.99-4.02-12.18c-0.41-2.1-0.76-4.21-0.92-6.34
		c-0.17-2.12-0.21-4.26,0.03-6.38c0-0.02,0.02-0.04,0.04-0.03C-10.95,469.31-10.94,469.33-10.94,469.35z"/>
</g>
<g>
	<path class="st6" d="M26,354.68c0.63-1.49,2.85-1.14,2.98,0.48c1.3,15.59,6,56.38,20.68,80.37c23.92,39.06,33.7,96.9,8.9,121.11
		C58.57,556.63-43.09,516.94,26,354.68z"/>
	<path class="st5" d="M25.44,376.47c-0.02,0.36-0.03,0.82-0.03,1.24L25.4,379l0.01,2.59l0.08,5.18c0.08,3.45,0.2,6.9,0.35,10.35
		c0.29,6.9,0.7,13.79,1.25,20.67c1.13,13.76,2.62,27.49,4.85,41.11c1.14,6.8,2.31,13.6,3.77,20.34c1.46,6.74,3.07,13.44,4.94,20.08
		c3.7,13.28,8.39,26.29,14.52,38.66c0.08,0.16,0.02,0.35-0.14,0.43c-0.15,0.08-0.34,0.02-0.43-0.13
		c-3.34-6.07-6.23-12.39-8.84-18.82c-2.56-6.45-4.75-13.03-6.76-19.67c-3.87-13.32-6.8-26.9-8.97-40.59
		c-1.1-6.84-1.97-13.72-2.74-20.6c-0.77-6.88-1.39-13.78-1.81-20.7c-0.43-6.91-0.76-13.83-0.9-20.75
		c-0.06-3.46-0.09-6.92-0.08-10.38c0.01-1.73,0.03-3.46,0.07-5.19l0.08-2.6l0.05-1.3c0.03-0.44,0.04-0.85,0.09-1.35
		c0.02-0.17,0.18-0.3,0.35-0.28c0.17,0.02,0.29,0.17,0.28,0.33L25.44,376.47z"/>
</g>
<g>
	<path class="st4" d="M927.65,558.16c0,0,2.27-14.63,18.27-24.36c14.84-9.03,51.05-29.21,60.79-44.21c0.43-0.66,1.5-0.02,1.39,0.84
		c-1.15,9.24-5.73,31.76-23.81,49.13C960.98,561.97,927.65,558.16,927.65,558.16z"/>
	<path class="st5" d="M999.38,504.18c-0.62,1.72-1.44,3.35-2.32,4.94c-0.43,0.8-0.91,1.57-1.39,2.34c-0.47,0.77-1.02,1.5-1.51,2.26
		c-2.08,2.96-4.47,5.69-7.06,8.2l-0.96,0.95c-0.32,0.31-0.67,0.6-1.01,0.9c-0.68,0.59-1.34,1.2-2.04,1.78l-2.13,1.66
		c-0.69,0.57-1.44,1.08-2.18,1.6c-0.74,0.51-1.47,1.04-2.22,1.54l-2.31,1.41c-1.51,0.96-3.13,1.83-4.71,2.74
		c-3.18,1.78-6.39,3.51-9.61,5.21c-3.23,1.69-6.48,3.34-9.74,5.01c-1.63,0.83-3.26,1.66-4.88,2.52c-0.81,0.43-1.62,0.86-2.43,1.3
		l-1.21,0.66l-1.19,0.7c-1.59,0.92-3.15,1.93-4.66,3c-1.5,1.1-2.9,2.33-4.13,3.73c-0.1,0.12-0.09,0.29,0.03,0.39
		c0.11,0.09,0.27,0.09,0.37-0.01l0.01-0.01c1.31-1.25,2.76-2.31,4.27-3.3c1.54-0.95,3.12-1.84,4.74-2.65
		c3.24-1.65,6.56-3.16,9.86-4.73l4.96-2.35c1.64-0.81,3.29-1.61,4.93-2.45c1.64-0.82,3.27-1.67,4.89-2.53
		c1.61-0.87,3.23-1.75,4.83-2.65c6.41-3.53,12.7-7.77,17.74-13.23c2.54-2.7,4.85-5.63,6.75-8.8c0.94-1.6,1.82-3.22,2.56-4.91
		c0.74-1.69,1.39-3.42,1.8-5.22c0-0.02-0.01-0.04-0.03-0.04C999.41,504.15,999.39,504.16,999.38,504.18z"/>
</g>
<g>
	<path class="st6" d="M1001.91,400c-0.09-1.4-2-1.74-2.57-0.46c-5.51,12.36-20.97,44.33-39.8,59.74
		c-30.67,25.08-55.15,69.53-41.79,96.36C917.74,555.64,1012.07,552.21,1001.91,400z"/>
	<path class="st5" d="M996.16,417.96c-0.08,0.3-0.21,0.68-0.33,1.02l-0.36,1.06l-0.75,2.11l-1.54,4.21
		c-1.05,2.8-2.13,5.58-3.24,8.35c-2.21,5.55-4.51,11.06-6.92,16.53c-4.85,10.91-9.98,21.7-15.68,32.19
		c-2.87,5.23-5.77,10.45-8.88,15.54c-3.11,5.09-6.34,10.1-9.76,14.99c-6.8,9.79-14.35,19.08-22.88,27.43
		c-0.11,0.11-0.11,0.28-0.01,0.39c0.1,0.11,0.27,0.11,0.38,0.01c4.46-4.01,8.62-8.34,12.58-12.84c3.93-4.53,7.59-9.29,11.13-14.14
		c6.96-9.77,13.22-20.03,18.89-30.59c2.85-5.28,5.52-10.64,8.11-16.04c2.59-5.4,5.06-10.86,7.38-16.39
		c2.32-5.52,4.56-11.08,6.65-16.69c1.04-2.81,2.05-5.63,3.02-8.46c0.48-1.42,0.97-2.83,1.43-4.26l0.68-2.14l0.33-1.08
		c0.1-0.37,0.21-0.7,0.31-1.13c0.03-0.15-0.06-0.29-0.21-0.33c-0.14-0.03-0.28,0.05-0.32,0.19L996.16,417.96z"/>
</g>
<polygon class="st7" points="375.29,362.03 390.36,380.43 181.71,551.4 261.15,551.4 392.18,442.83 421.53,418.51 436.6,436.91 
	451.79,361.94 "/>
<polygon class="st8" points="603.29,346.6 353.9,550.43 307.82,550.43 530.13,368.59 512.19,346.71 "/>
<polygon class="st9" points="603.29,346.6 590.71,408.6 585.2,435.73 574.1,422.19 567.26,413.86 402.15,550.43 353.9,550.43 "/>
<polygon class="st7" points="990.91,294.66 1014.6,323.59 930.05,392.87 911.63,407.97 737.76,550.43 862.11,550.43 983.67,449.7 
	1063.62,383.46 1087.31,412.39 1111.2,294.51 "/>
<polygon class="st8" points="1241.04,338.15 981.76,550.43 965.26,550.43 1214.65,346.09 1213.24,344.38 1208.17,338.19 
	1220.83,338.17 "/>
<polygon class="st9" points="1241.04,338.15 1240.03,343.12 1234.51,370.36 1228.04,362.45 1001.18,550.43 981.76,550.43 "/>
<polygon class="st8" points="663.22,442.07 530.87,550.43 491.61,550.43 601,460.8 597.7,456.77 585.74,442.17 615.58,442.13 "/>
<polygon class="st9" points="662.57,442.07 660.19,453.8 647.18,518 631.92,499.37 570.29,550.43 530.22,550.43 "/>
<polygon class="st8" points="1274.22,400.77 1089.56,551.97 1053.38,551.97 1216.79,418.06 1204.64,403.22 1202.71,400.86 
	1207.53,400.86 1262.18,400.79 "/>
<polygon class="st9" points="1274.22,400.77 1260.02,470.86 1245.93,453.66 1127.29,551.97 1089.56,551.97 "/>
<path id="_x32_" class="st10" d="M1040.55,556.23H212.23c-1.5,0-2.71-1.35-2.71-3.03s1.21-3.03,2.71-3.03h828.32
	c1.5,0,2.71,1.35,2.71,3.03S1042.05,556.23,1040.55,556.23z"/>
<g id="_x31_">
	
		<linearGradient id="SVGID_00000071547979908078303400000015890054594765127347_" gradientUnits="userSpaceOnUse" x1="262.0255" y1="88.6884" x2="434.8174" y2="88.6884">
		<stop  offset="0" style="stop-color:#DAE3FE"/>
		<stop  offset="1" style="stop-color:#E9EFFD"/>
	</linearGradient>
	<path style="fill:url(#SVGID_00000071547979908078303400000015890054594765127347_);" d="M307.05,60.77
		c14.5,0,27.4,7.35,35.62,18.77c14.08-9.15,36.65-7.42,48.81,3.72c13.96-17.99,52.28,0.83,41.42,33.36H262.67
		C257.98,88.24,279.53,60.36,307.05,60.77z"/>
	
		<linearGradient id="SVGID_00000139291766984474937310000014771203536156670630_" gradientUnits="userSpaceOnUse" x1="893.0344" y1="92.013" x2="1000.5684" y2="92.013">
		<stop  offset="0" style="stop-color:#DAE3FE"/>
		<stop  offset="1" style="stop-color:#E9EFFD"/>
	</linearGradient>
	<path style="fill:url(#SVGID_00000139291766984474937310000014771203536156670630_);" d="M972.55,74.64
		c-9.03,0-17.05,4.58-22.17,11.68c-8.76-5.7-22.81-4.62-30.38,2.31c-8.68-11.2-32.53,0.52-25.78,20.76h105.95
		C1003.08,91.73,989.67,74.38,972.55,74.64z"/>
	
		<linearGradient id="SVGID_00000150093789766312662300000003527352622868852867_" gradientUnits="userSpaceOnUse" x1="395.0355" y1="161.4995" x2="457.8922" y2="161.4995">
		<stop  offset="0" style="stop-color:#DAE3FE"/>
		<stop  offset="1" style="stop-color:#E9EFFD"/>
	</linearGradient>
	<path style="fill:url(#SVGID_00000150093789766312662300000003527352622868852867_);" d="M441.51,151.34
		c-5.28,0-9.97,2.68-12.96,6.83c-5.12-3.33-13.33-2.7-17.76,1.35c-5.08-6.54-19.02,0.3-15.07,12.14h61.93
		C459.36,161.34,451.52,151.2,441.51,151.34z"/>
</g>
<g>
	<g>
		<path class="st14" d="M1052.5,278.6c0.13-1.69,0.68-2.88,1.27-3.69c-1.26,0.41-1.73,1.35-2.03,3.85
			c-0.35,2.98-0.97,11.04-1.14,12.82c-0.16,1.78,0.57,2.66,1.14,3.24c0.19,0.19,0.48,0.1,0.83-0.17c-0.71-0.9-0.99-1.83-1.13-2.59
			C1051.21,290.86,1052.21,282.54,1052.5,278.6z"/>
		
			<linearGradient id="SVGID_00000023993189218167961760000004816166658302711959_" gradientUnits="userSpaceOnUse" x1="1051.402" y1="284.035" x2="1060.8422" y2="284.035">
			<stop  offset="0" style="stop-color:#09005D"/>
			<stop  offset="1" style="stop-color:#1A0F91"/>
		</linearGradient>
		<path style="fill:url(#SVGID_00000023993189218167961760000004816166658302711959_);" d="M1060.73,276.26l-2.19-2.84
			c0,0-2.1,1-3.98,1.3c-0.3,0.05-0.56,0.11-0.8,0.19c-0.59,0.81-1.14,2-1.27,3.69c-0.29,3.94-1.29,12.26-1.06,13.46
			c0.14,0.76,0.42,1.68,1.13,2.59c0.71-0.55,1.63-1.88,2.33-3.23c1.05-2.02,4.6-8.06,5.43-10.32
			C1061.16,278.83,1060.73,276.26,1060.73,276.26z"/>
	</g>
	<g>
		<path class="st14" d="M1090.5,250.49c0.4-1.65,1.15-2.73,1.86-3.43c-1.31,0.2-1.93,1.04-2.64,3.46
			c-0.84,2.88-2.79,10.72-3.24,12.45c-0.46,1.73,0.12,2.72,0.59,3.38c0.15,0.22,0.46,0.18,0.84-0.03c-0.55-1.01-0.67-1.97-0.69-2.74
			C1087.2,262.38,1089.56,254.33,1090.5,250.49z"/>
		
			<linearGradient id="SVGID_00000147921497831206177550000014744572183631986320_" gradientUnits="userSpaceOnUse" x1="1087.2227" y1="256.3626" x2="1099.0072" y2="256.3626">
			<stop  offset="0" style="stop-color:#09005D"/>
			<stop  offset="1" style="stop-color:#1A0F91"/>
		</linearGradient>
		<path style="fill:url(#SVGID_00000147921497831206177550000014744572183631986320_);" d="M1099.01,249.55l-1.69-3.16
			c0,0-2.24,0.64-4.14,0.62c-0.3,0-0.57,0.01-0.82,0.05c-0.71,0.7-1.46,1.78-1.86,3.43c-0.94,3.84-3.3,11.88-3.28,13.1
			c0.01,0.77,0.14,1.73,0.69,2.74c0.79-0.43,1.92-1.58,2.84-2.8c1.37-1.82,5.87-7.19,7.06-9.28S1099.01,249.55,1099.01,249.55z"/>
	</g>
	
		<linearGradient id="SVGID_00000105406883233267948610000002290945771243800974_" gradientUnits="userSpaceOnUse" x1="1151.6364" y1="145.8421" x2="1177.7418" y2="145.8421">
		<stop  offset="0" style="stop-color:#FF928E"/>
		<stop  offset="1" style="stop-color:#FEB3B1"/>
	</linearGradient>
	<path style="fill:url(#SVGID_00000105406883233267948610000002290945771243800974_);" d="M1151.89,153.9l17.33-13.53
		c0.11-0.08,0.19-0.2,0.23-0.33l1.83-5.98c0.05-0.16,0.16-0.3,0.31-0.38l1.19-0.68c0.12-0.07,0.25-0.1,0.39-0.08l3.7,0.36
		c0.3,0.03,0.54,0.26,0.59,0.55l0.28,1.73c0.03,0.17-0.01,0.34-0.11,0.48l-0.5,0.72c-0.14,0.21-0.16,0.48-0.04,0.69l0,0
		c0.13,0.24,0.1,0.55-0.08,0.76c-0.61,0.68-2.15,2.19-4.62,3.25c-0.08,0.04-0.16,0.09-0.22,0.16l-15.58,16.93
		c-0.25,0.27-0.68,0.29-0.95,0.03l-3.8-3.69C1151.55,154.61,1151.57,154.14,1151.89,153.9z"/>
	
		<linearGradient id="SVGID_00000111153548070169211370000014596355699763179698_" gradientUnits="userSpaceOnUse" x1="1148.5038" y1="155.1279" x2="1118.8916" y2="204.4306">
		<stop  offset="0" style="stop-color:#4042E2"/>
		<stop  offset="1" style="stop-color:#4F52FF"/>
	</linearGradient>
	<path style="fill:url(#SVGID_00000111153548070169211370000014596355699763179698_);" d="M1126.44,174.58l24.66-20.67
		c0.48-0.41,1.19-0.4,1.67,0.02c1.04,0.92,2.77,2.59,3.58,4.08c0.3,0.56,0.19,1.24-0.27,1.68l-25.52,24.43L1126.44,174.58z"/>
	
		<linearGradient id="SVGID_00000029024307300645218550000013713351964389652873_" gradientUnits="userSpaceOnUse" x1="1056.7357" y1="274.3744" x2="1065.2889" y2="274.3744">
		<stop  offset="0" style="stop-color:#FF928E"/>
		<stop  offset="1" style="stop-color:#FEB3B1"/>
	</linearGradient>
	<path style="fill:url(#SVGID_00000029024307300645218550000013713351964389652873_);" d="M1060.73,269.36
		c-0.38,0.5-3.18,5.59-3.78,6.69c-0.1,0.19-0.17,0.39-0.19,0.59c-0.07,0.57-0.01,1.67,1.19,2.47c0.74,0.49,1.73,0.32,2.26-0.38
		l5.08-6.69L1060.73,269.36z"/>
	
		<linearGradient id="SVGID_00000154416709786033275360000003010723064691723419_" gradientUnits="userSpaceOnUse" x1="1094.9128" y1="247.5495" x2="1103.5464" y2="247.5495">
		<stop  offset="0" style="stop-color:#FF928E"/>
		<stop  offset="1" style="stop-color:#FEB3B1"/>
	</linearGradient>
	<path style="fill:url(#SVGID_00000154416709786033275360000003010723064691723419_);" d="M1100.15,242.75
		c-0.46,0.43-4.06,4.98-4.84,5.97c-0.13,0.17-0.23,0.35-0.29,0.55c-0.16,0.55-0.29,1.64,0.77,2.63c0.65,0.6,1.65,0.6,2.29,0
		l5.46-6.3L1100.15,242.75z"/>
	
		<linearGradient id="SVGID_00000132804910409919185110000006062897769698192776_" gradientUnits="userSpaceOnUse" x1="1142.2344" y1="189.5435" x2="1086.3711" y2="243.5752">
		<stop  offset="0" style="stop-color:#09005D"/>
		<stop  offset="1" style="stop-color:#1A0F91"/>
	</linearGradient>
	<path style="fill:url(#SVGID_00000132804910409919185110000006062897769698192776_);" d="M1107,218.77c0-1.41,8.1-0.91,15.2-1.73
		c3.73-0.43,5.94,4.05,3.33,6.75l-21.5,22.18c-0.45,0.46-1.13,0.64-1.74,0.44c-0.84-0.28-2.07-0.78-3.15-1.64
		c-0.63-0.5-0.75-1.42-0.28-2.08l9.88-14.07l-9.02,2.6l-34.21,42.32c-0.57,0.7-1.56,0.87-2.32,0.39c-1.01-0.63-2.35-1.58-3.23-2.64
		c-0.47-0.56-0.5-1.36-0.1-1.96c3.77-5.77,24.29-37.19,25.26-40.45c1.07-3.59,5.01-10.18,8.69-10.41
		C1097.46,218.23,1107,218.77,1107,218.77z"/>
	
		<linearGradient id="SVGID_00000098189653261690402280000005136345898058513076_" gradientUnits="userSpaceOnUse" x1="1112.9545" y1="227.4451" x2="1103.9487" y2="235.2298">
		<stop  offset="0" style="stop-color:#4042E2"/>
		<stop  offset="1" style="stop-color:#4F52FF"/>
	</linearGradient>
	<path style="fill:url(#SVGID_00000098189653261690402280000005136345898058513076_);" d="M1109.26,228.43
		c-0.1,0-0.19-0.07-0.22-0.17c-0.03-0.12,0.04-0.25,0.16-0.28l8.11-2.15c0.12-0.03,0.25,0.04,0.28,0.16
		c0.03,0.12-0.04,0.25-0.16,0.28l-8.11,2.15C1109.3,228.43,1109.28,228.43,1109.26,228.43z"/>
	
		<linearGradient id="SVGID_00000084515905471089217030000001465117492810304917_" gradientUnits="userSpaceOnUse" x1="1102.47" y1="227.9526" x2="1097.6364" y2="234.8722">
		<stop  offset="0" style="stop-color:#4042E2"/>
		<stop  offset="1" style="stop-color:#4F52FF"/>
	</linearGradient>
	<path style="fill:url(#SVGID_00000084515905471089217030000001465117492810304917_);" d="M1100.51,230.63
		c-0.06,0-0.11-0.02-0.16-0.06c-0.09-0.09-0.1-0.23-0.01-0.32l2.03-2.2c0.09-0.09,0.23-0.1,0.32-0.01c0.09,0.09,0.1,0.23,0.01,0.32
		l-2.03,2.2C1100.64,230.61,1100.58,230.63,1100.51,230.63z"/>
	
		<linearGradient id="SVGID_00000084491685103716273330000011421132158993656193_" gradientUnits="userSpaceOnUse" x1="1134.0665" y1="180.0265" x2="1083.5381" y2="222.7695">
		<stop  offset="0" style="stop-color:#4042E2"/>
		<stop  offset="1" style="stop-color:#4F52FF"/>
	</linearGradient>
	<path style="fill:url(#SVGID_00000084491685103716273330000011421132158993656193_);" d="M1130.57,174.17c0,0,4.29,4.38,3.55,11.93
		c-0.22,2.22-1.09,4.33-2.45,6.09l-21.63,27.91c-0.5,0.64-1.23,1.06-2.04,1.16c-3.18,0.39-11.64,1.15-17.63-0.83
		c-0.48-0.16-0.68-0.72-0.44-1.15l19.67-34.61l11.91-13.86C1121.5,170.82,1127.18,168.87,1130.57,174.17z"/>
	<path class="st14" d="M1103.55,210.77c-0.11,0-0.22-0.03-0.31-0.1c-0.23-0.17-0.28-0.49-0.11-0.72
		c0.19-0.25,18.82-25.35,20.08-28.4c1.13-2.73-1.53-4.85-1.65-4.94c-0.23-0.18-0.27-0.5-0.09-0.73c0.18-0.23,0.5-0.27,0.73-0.09
		c1.18,0.91,3.11,3.38,1.97,6.15c-1.31,3.17-19.43,27.58-20.21,28.62C1103.86,210.7,1103.7,210.77,1103.55,210.77z"/>
	
		<linearGradient id="SVGID_00000010300375827520102580000014946672870142154883_" gradientUnits="userSpaceOnUse" x1="1084.8083" y1="219.9354" x2="1102.8905" y2="219.9354">
		<stop  offset="0" style="stop-color:#FF928E"/>
		<stop  offset="1" style="stop-color:#FEB3B1"/>
	</linearGradient>
	<path style="fill:url(#SVGID_00000010300375827520102580000014946672870142154883_);" d="M1096.22,208.34c0,0,3.65,2.28,6.67,2.59
		l-9.11,11.3c0,0-1.33,7.31-2.5,8.3c-1.16,0.99-4.47,1.65-5.33,0c-0.86-1.65-1.15-3.41-1.15-3.41s0.54-0.85,1.51,0.7v-1.76
		c0,0,1.42,0.62,1.4,1.76c0,0-1.25-4.72,0.74-6.27c1.99-1.55,2.5-1.8,2.5-1.8L1096.22,208.34z"/>
	<path class="st9" d="M1062.56,207.21c-0.5,0.1-0.78,0.65-0.55,1.11c1.05,2.11,4.14,6.78,10.51,5.31
		c8.15-1.88,33.02-20.68,38.65-25.82c5.63-5.14,13.09-11.54,16.73-10.64c3.65,0.89,1.45-1.22-1.08-2.92
		c-2.53-1.7-3.47-4.19-1.58-3.72c0,0-4.54-1.47-11.47,2.35c-6.77,3.73-39.84,16.49-50.91,12.8c-0.41-0.14-0.84,0.13-0.92,0.55
		c-0.44,2.52-1.11,10.42,5.36,19.3C1067.31,205.53,1064.79,206.79,1062.56,207.21z"/>
	
		<linearGradient id="SVGID_00000168082851482720240090000015559847173590120331_" gradientUnits="userSpaceOnUse" x1="1077.3019" y1="197.3588" x2="1069.6754" y2="206.8156">
		<stop  offset="0" style="stop-color:#4042E2"/>
		<stop  offset="1" style="stop-color:#4F52FF"/>
	</linearGradient>
	<path style="fill:url(#SVGID_00000168082851482720240090000015559847173590120331_);" d="M1068.39,205.63
		c-0.18,0-0.36-0.1-0.46-0.27c-0.14-0.25-0.04-0.57,0.21-0.7c0.08-0.05,8.37-4.55,10.11-6c0.22-0.18,0.55-0.15,0.73,0.07
		c0.18,0.22,0.15,0.55-0.07,0.73c-1.82,1.51-9.93,5.92-10.28,6.11C1068.56,205.61,1068.48,205.63,1068.39,205.63z"/>
	<g>
		
			<linearGradient id="SVGID_00000045620692403584849070000005272360266131843713_" gradientUnits="userSpaceOnUse" x1="1133.345" y1="164.1732" x2="1125.2524" y2="175.9802">
			<stop  offset="0" style="stop-color:#FF928E"/>
			<stop  offset="1" style="stop-color:#FEB3B1"/>
		</linearGradient>
		<path style="fill:url(#SVGID_00000045620692403584849070000005272360266131843713_);" d="M1131.61,161.16l-6.46,9.13
			c-0.42,0.59-0.36,1.4,0.13,1.93c0.87,0.93,2.34,2.24,3.92,2.54c0.49,0.09,0.99-0.11,1.27-0.53l3.44-5.28
			C1133.91,168.94,1134.56,160.65,1131.61,161.16z"/>
		
			<linearGradient id="SVGID_00000078040020425882404420000011637062671421428629_" gradientUnits="userSpaceOnUse" x1="25.8592" y1="260.751" x2="12.2438" y2="278.763" gradientTransform="matrix(0.6854 -0.7281 0.7281 0.6854 924.0838 -4.3616)">
			<stop  offset="0" style="stop-color:#FF928E"/>
			<stop  offset="1" style="stop-color:#FEB3B1"/>
		</linearGradient>
		<path style="fill:url(#SVGID_00000078040020425882404420000011637062671421428629_);" d="M1133.43,153.53
			c0.13,0.12,5.52,10.7,5.52,10.7l-6.1,2.95l-6.59-9.26C1126.25,157.91,1131.25,151.47,1133.43,153.53z"/>
		
			<linearGradient id="SVGID_00000106870006575081422390000015935331349383759025_" gradientUnits="userSpaceOnUse" x1="15.4609" y1="265.0766" x2="31.7247" y2="265.0766" gradientTransform="matrix(0.6854 -0.7281 0.7281 0.6854 924.0838 -4.3616)">
			<stop  offset="0" style="stop-color:#09005D"/>
			<stop  offset="1" style="stop-color:#1A0F91"/>
		</linearGradient>
		<path style="fill:url(#SVGID_00000106870006575081422390000015935331349383759025_);" d="M1129.03,159.02l3.04,5.07
			c0.05,0.08,0.1,0.15,0.17,0.21c0.36,0.34,1.6,1.32,2.56-0.02c0.82-1.14,1.58-2.17,2.4-2.6c0.48-0.25,1.07-0.05,1.31,0.43
			c0.5,0.99,1.47,3.02,2.08,4.94c0.15,0.48-0.1,1-0.56,1.19c-1.24,0.5-3.68,1.41-5.85,1.71c-0.36,0.05-0.71-0.1-0.92-0.39
			c-0.93-1.28-3.56-4.85-4.46-5.74c-0.83-0.83-2.37-0.52-3.06-0.32c-0.26,0.08-0.54,0.04-0.78-0.1c-0.7-0.42-1.93-1.48-0.81-3.26
			c0.28-0.44,0.14-1.04-0.3-1.32c-0.79-0.52-1.64-1.49-0.83-3.06c0.82-1.59,2.29-1.73,3.29-1.61c0.44,0.05,0.89-0.18,1.06-0.59
			c0.08-0.18,0.22-0.34,0.5-0.4c0.52-0.11,0.87-0.59,0.76-1.11c-0.18-0.9-0.04-2.07,1.39-2.86c2.63-1.45,4.94,0.91,5.53,2.9
			c0.59,1.99-2.36,3.4-4.21,3.63c-1.36,0.17-2.11,1.66-2.41,2.43C1128.85,158.45,1128.87,158.76,1129.03,159.02z"/>
		
			<linearGradient id="SVGID_00000127037142957500750740000006471716374060596393_" gradientUnits="userSpaceOnUse" x1="5.918" y1="275.0151" x2="16.8386" y2="263.8108" gradientTransform="matrix(0.6854 -0.7281 0.7281 0.6854 924.0838 -4.3616)">
			<stop  offset="0" style="stop-color:#FF928E"/>
			<stop  offset="1" style="stop-color:#FEB3B1"/>
		</linearGradient>
		<path style="fill:url(#SVGID_00000127037142957500750740000006471716374060596393_);" d="M1129.96,165.69c0,0-1.17-3.43-2.67-3.3
			s-2.68,1.62-0.82,3.3C1128.78,167.77,1129.96,165.69,1129.96,165.69z"/>
	</g>
	
		<linearGradient id="SVGID_00000026845977654988396190000008142401256946406789_" gradientUnits="userSpaceOnUse" x1="1176.0571" y1="121.1814" x2="1176.9857" y2="105.5272">
		<stop  offset="0" style="stop-color:#FF928E"/>
		<stop  offset="1" style="stop-color:#FEB3B1"/>
	</linearGradient>
	<path style="fill:url(#SVGID_00000026845977654988396190000008142401256946406789_);" d="M1173.56,138.14
		c-0.02,0-0.05-0.01-0.07-0.02c-0.07-0.04-0.1-0.13-0.06-0.21c0.04-0.07,0.91-1.63,2.01-1.29c0.86,0.26,1.1,0.17,1.1,0.16
		c0.07-0.05,0.16-0.02,0.21,0.05c0.05,0.07,0.02,0.17-0.05,0.22c-0.07,0.05-0.37,0.17-1.35-0.13c-0.86-0.27-1.65,1.13-1.65,1.15
		C1173.67,138.11,1173.62,138.14,1173.56,138.14z"/>
</g>
<g>
	<g>
		<g>
			<polygon class="st32" points="420.22,122.31 363.86,157.25 372.35,139.21 			"/>
		</g>
	</g>
	<g>
		<g>
			<polygon class="st33" points="420.22,122.31 386.53,124.01 378.94,136.89 			"/>
		</g>
	</g>
	<g>
		<g>
			<polygon class="st34" points="376.82,149.21 382.64,153.76 420.22,122.31 			"/>
		</g>
	</g>
</g>
<g>
	<g>
		<g>
			<polygon class="st32" points="894.22,424.69 827.98,421.69 845.18,411.6 			"/>
		</g>
	</g>
	<g>
		<g>
			<polygon class="st33" points="894.22,424.69 865.47,407.06 851.93,413.4 			"/>
		</g>
	</g>
	<g>
		<g>
			<polygon class="st34" points="843.21,422.38 845.45,429.41 894.22,424.69 			"/>
		</g>
	</g>
</g>
<g>
	
		<linearGradient id="SVGID_00000103985638146182038220000000848028733476007554_" gradientUnits="userSpaceOnUse" x1="244.9743" y1="162.3043" x2="255.1912" y2="103.8077" gradientTransform="matrix(0.9574 -0.2887 0.2887 0.9574 -32.5348 98.1429)">
		<stop  offset="0" style="stop-color:#4042E2"/>
		<stop  offset="1" style="stop-color:#4F52FF"/>
	</linearGradient>
	<path style="fill:url(#SVGID_00000103985638146182038220000000848028733476007554_);" d="M126.28,137.94
		c0.12,1.1,0.32,2.22,0.59,3.35l0.93-0.23c-0.28-1.15-0.48-2.28-0.59-3.4L126.28,137.94z M130.44,148.11l-0.85,0.43
		c1.1,2.2,2.46,4.41,4.05,6.58l0.77-0.57C132.86,152.42,131.51,150.25,130.44,148.11z M139.3,160.35l-0.69,0.66
		c1.72,1.81,3.62,3.58,5.62,5.26l0.62-0.73C142.87,163.87,140.99,162.13,139.3,160.35z M150.91,170.14l-0.54,0.79
		c2.08,1.43,4.27,2.8,6.52,4.07l0.47-0.83C155.14,172.91,152.96,171.56,150.91,170.14z M164.14,177.64l-0.4,0.86
		c2.31,1.06,4.71,2.05,7.11,2.93l0.33-0.9C168.8,179.67,166.43,178.69,164.14,177.64z M178.43,182.87l-0.25,0.93
		c2.46,0.69,4.97,1.28,7.48,1.77l0.19-0.94C183.36,184.14,180.88,183.55,178.43,182.87z M308.19,149.42l0.29,0.91
		c2.53-0.8,4.97-1.53,7.32-2.19l-0.26-0.92C313.18,147.89,310.73,148.62,308.19,149.42z M300.91,151.88
		c-2.37,0.83-4.78,1.74-7.18,2.67l0.34,0.9c2.39-0.94,4.8-1.84,7.16-2.68L300.91,151.88z M322.97,145.31l0.21,0.94
		c2.51-0.6,5.02-1.14,7.47-1.6l-0.18-0.93C328.01,144.16,325.49,144.71,322.97,145.31z M286.63,157.44
		c-2.31,0.98-4.68,2.02-7.03,3.09l0.4,0.87c2.34-1.06,4.68-2.1,6.99-3.08L286.63,157.44z M338.05,142.44l0.13,0.95
		c2.59-0.36,5.14-0.65,7.58-0.85l-0.08-0.96C343.22,141.79,340.66,142.07,338.05,142.44z M193.37,185.8l-0.1,0.95
		c2.53,0.3,5.11,0.5,7.67,0.6l0.03-0.96C198.44,186.29,195.89,186.1,193.37,185.8z M272.68,163.8c-2.27,1.1-4.57,2.26-6.86,3.44
		l0.44,0.85c2.27-1.18,4.57-2.33,6.83-3.43L272.68,163.8z M353.36,141.23l0.01,0.96c4.93-0.04,7.54,0.37,7.57,0.38l0.15-0.94
		C360.98,141.6,358.37,141.19,353.36,141.23z M259.05,170.84c-1.14,0.61-2.28,1.25-3.43,1.89c-1.1,0.61-2.2,1.2-3.28,1.77l0.44,0.85
		c1.11-0.57,2.21-1.17,3.31-1.79c1.15-0.64,2.29-1.27,3.42-1.89L259.05,170.84z M208.58,186.38l0.04,0.96
		c2.55-0.1,5.13-0.31,7.66-0.6l-0.11-0.95C213.65,186.08,211.11,186.28,208.58,186.38z M245.46,177.78
		c-2.33,1.01-4.72,1.96-7.08,2.8l0.32,0.9c2.38-0.85,4.8-1.8,7.14-2.82L245.46,177.78z M223.7,184.61l0.18,0.94
		c2.49-0.49,5.01-1.08,7.48-1.76l-0.25-0.92C228.66,183.54,226.17,184.12,223.7,184.61z"/>
</g>
<g>
	<path class="st36" d="M805.9,405.98v0.96c2.56,0.01,5.12,0.11,7.61,0.33l0.08-0.96C811.08,406.1,808.49,405.99,805.9,405.98z
		 M798.21,406.24c-2.53,0.17-5.1,0.44-7.65,0.8l0.13,0.95c2.53-0.35,5.07-0.62,7.58-0.8L798.21,406.24z M821.22,407.27l-0.16,0.95
		c4.69,0.81,7.35,1.73,7.38,1.74l0.32-0.91C828.64,409.02,825.99,408.11,821.22,407.27z M783,408.36c-2.48,0.53-4.99,1.14-7.46,1.83
		l0.25,0.92c2.46-0.68,4.96-1.29,7.41-1.81L783,408.36z"/>
</g>
<g>
	
		<linearGradient id="SVGID_00000025443082289820884570000003124975586464009662_" gradientUnits="userSpaceOnUse" x1="1246.511" y1="202.9617" x2="1263.422" y2="189.1471">
		<stop  offset="0" style="stop-color:#FFE9D9"/>
		<stop  offset="1" style="stop-color:#ABA69F"/>
	</linearGradient>
	
		<rect x="1254.03" y="175.45" style="fill:url(#SVGID_00000025443082289820884570000003124975586464009662_);" width="0.58" height="42.26"/>
	<path class="st38" d="M1254.61,175.45c0,0-4.11-5.06-11.33-0.97c-7.21,4.09-11.24,7.13-19.59,2.91c0,0,5,16.93,15.4,11.56
		c10.41-5.38,15.52,1.53,15.52,1.53V175.45z"/>
</g>
<g>
	
		<linearGradient id="SVGID_00000131340263753881594980000013301465982325541047_" gradientUnits="userSpaceOnUse" x1="1172.1404" y1="-139.2246" x2="1172.4532" y2="-173.9541" gradientTransform="matrix(0.9907 0.1358 -0.1358 0.9907 -243.3617 172.7491)">
		<stop  offset="0" style="stop-color:#FFE9D9"/>
		<stop  offset="1" style="stop-color:#ABA69F"/>
	</linearGradient>
	<polygon style="fill:url(#SVGID_00000131340263753881594980000013301465982325541047_);" points="988.74,158.99 893.15,172.12 
		899.15,146.71 	"/>
	
		<linearGradient id="SVGID_00000182525760945432006860000014001057968063018386_" gradientUnits="userSpaceOnUse" x1="1107.1583" y1="-172.367" x2="1218.8661" y2="-172.367" gradientTransform="matrix(0.9907 0.1358 -0.1358 0.9907 -243.3617 172.7491)">
		<stop  offset="0" style="stop-color:#FFE9D9"/>
		<stop  offset="1" style="stop-color:#C7C1B9"/>
	</linearGradient>
	<polygon style="fill:url(#SVGID_00000182525760945432006860000014001057968063018386_);" points="899.15,146.71 988.74,158.99 
		875.74,160.85 	"/>
</g>
<g>
	<g>
		<path class="st41" d="M943.11,109.08c0,0-0.41-0.98-0.47-1.14c-0.07-0.16,0.03-0.63,0.19-1.16s0.61-1.18,0.7-1.21
			c0.09-0.03,0.17-0.1,0.4-0.02c0.23,0.07,0.39,0.27,0.39,0.27s0.33-0.04,0.51,0.21c0,0,0.31-0.03,0.47,0.29c0,0,0.31-0.02,0.4,0.22
			c0,0-0.09,0.47-0.08,0.66c0.02,0.18-0.25,1.15-0.64,2.04C944.96,109.23,944.5,110.18,943.11,109.08z"/>
	</g>
	<path class="st41" d="M945.01,109.12c0,0-0.32,0.9-1.38,1.7c-1.07,0.8-0.98-0.85-0.98-0.85s0.44-0.75,0.43-0.97
		C943.07,108.78,945.01,109.12,945.01,109.12z"/>
	<g>
		<path class="st42" d="M938.41,115.95c1.36-0.52,6.27-5.97,6.27-5.97l-1.84-1.01c0,0-2.64,2.8-4.11,3.79
			c-0.73,0.49-1.8,0.52-1.95,0.57c-0.15,0.05-4.74-0.35-5.15-0.46c-0.42-0.11-1.85-0.72-2.86-0.65c-1,0.06-1.4,1.02-1.4,1.02
			c-0.17,2.43,3.55,2.41,3.55,2.41S936.51,116.68,938.41,115.95z"/>
	</g>
	<g>
		<g>
			<g>
				<path class="st42" d="M935.23,150.16c0,0,1.34,0.77,1.95,1.05s2.94,0.33,3.18,0.55c0.23,0.22,0.16,0.92-0.23,0.99
					c-0.39,0.08-3.22,0.37-4.17,0.17c-0.95-0.21-2.72,0.19-3.11,0.06c-0.39-0.13-0.17-2.25-0.03-2.72
					C932.96,149.77,935.23,150.16,935.23,150.16z"/>
			</g>
		</g>
	</g>
	<g>
		<g>
			<g>
				<path class="st43" d="M935.16,149.26l0.07,0.89c0,0-1.77,0.36-2.42,0.1l0.12-0.9L935.16,149.26z"/>
			</g>
		</g>
	</g>
	<g>
		<g>
			<g>
				<path class="st42" d="M911.56,155.22c0,0,1.27,0.87,1.85,1.2c0.58,0.33,2.91,0.57,3.12,0.8c0.22,0.23,0.09,0.93-0.31,0.97
					c-0.39,0.05-3.24,0.11-4.17-0.17c-0.93-0.28-2.72-0.03-3.11-0.19c-0.38-0.16,0.01-2.25,0.19-2.72
					C909.33,154.66,911.56,155.22,911.56,155.22z"/>
			</g>
		</g>
	</g>
	<g>
		<g>
			<g>
				<path class="st43" d="M911.73,154.37l-0.17,0.86c0,0-1.79,0.21-2.31-0.1l0.19-0.89L911.73,154.37z"/>
			</g>
		</g>
	</g>
	<path class="st42" d="M926.31,127.82c-0.17,0.57-0.61,1.8-1.09,3.09c-0.11,0.29-0.21,0.57-0.32,0.86
		c-0.65,1.73-1.26,3.32-1.26,3.32c-0.93,2.13-3.12,6.67-4.17,7.46c-1.43,1.07-7.74,12.39-7.74,12.39l-2.84-0.34
		c0,0,3.09-8.46,4.38-10.33c1.44-2.09,3.69-4.82,3.93-7.14c0.15-1.46,1.05-5.98,1.05-5.98s1.06-5.07,3.34-8.38
		C922.16,121.95,926.31,127.82,926.31,127.82z"/>
	<g>
		<path class="st42" d="M929.34,127.31c0,0,7.92,5.91,8.8,7.13c0.88,1.22,0.35,3.15,0.21,3.74c-0.13,0.59-2.65,10.34-2.72,11.36
			c0,0-2.44,0.6-3.07-0.19c0,0,0.85-9.26,1.41-11.17c0.56-1.91-2.12-3.17-3.67-3.86c-1.55-0.69-9.4-4.46-9.26-5.99
			c0.1-1.06,0.24-2.05,0.24-2.05S922.83,125.04,929.34,127.31z"/>
	</g>
	<g>
		<path class="st44" d="M929.17,111.52c0,0,0.89,2.6,0.89,4.08c0.01,1.48-1.38,5.94-1.47,6.76c-0.26,2.22,0.75,4.96,0.75,4.96
			l-8.17,1.57c0,0-0.23-2.35-0.19-5.17c0.04-2.82,0.71-5.16,1.21-6.7c1.56-4.85,5.05-6.77,5.05-6.77L929.17,111.52z"/>
	</g>
	<g>
		<path class="st41" d="M932.92,105.1c0,0,0.74,1.37,0.37,1.58c-0.3,0.18,0.35,1.52,0.44,1.74c0.09,0.22-0.55,0.38-0.68,0.52
			c-0.13,0.14-0.53,1.88-1.05,1.93c-0.52,0.05-2.87-0.76-3.51-1.43c-0.64-0.66-1.16-3.67-0.74-4.94
			C928.18,103.24,931.62,102.71,932.92,105.1z"/>
	</g>
	<g>
		<path class="st41" d="M930.43,110.49c0,0-0.06,0.14-0.16,0.36c-0.04,0.09-0.08,0.19-0.13,0.31c-0.04,0.09-0.07,0.18-0.11,0.27
			c-0.24,0.59-0.51,1.31-0.55,1.67c-0.07,0.67-1.95-2.84-1.95-2.84s0.88-1.99,1.5-4.34C929.65,103.57,930.43,110.49,930.43,110.49z"
			/>
	</g>
	<g>
		<path class="st45" d="M933.07,105.4c0,0,0.75-1.48-0.61-2.57c-1.37-1.1-3.89,0.83-4.17,0.9c-0.28,0.07-1.87,0.18-1.08,3.02
			c0.7,2.53,0.8,2.39,0.8,2.39s0.52-1.26,0.82-1.48c0.46-0.34,1.47-0.25,1.47-0.25s-0.48-1.28,0.27-1.46
			C931.31,105.75,932.31,105.11,933.07,105.4z"/>
	</g>
	<g>
		<path class="st41" d="M929.49,106.66c-0.07-0.18-0.28-0.93-0.93-0.49c-0.65,0.44,0.4,1.87,0.52,1.88
			C929.19,108.08,930.05,108.14,929.49,106.66z"/>
	</g>
	<g>
		<path class="st46" d="M927.67,109.94c0,0,1.17,2.09,2.05,2.74l-0.24,1.34l-2.25-3.78L927.67,109.94z"/>
	</g>
	<path class="st47" d="M930.43,110.49c0,0-0.06,0.14-0.16,0.36c-0.04,0.09-0.08,0.19-0.13,0.31c-1.25-0.93-1.55-1.61-1.56-1.63
		C929.17,109.95,930.43,110.49,930.43,110.49z"/>
	<path class="st48" d="M929.34,127.31c0,0-0.23-0.71-0.28-0.89l-7.97,1.48l0.08,0.98C921.17,128.88,927,127.83,929.34,127.31z"/>
	<path class="st49" d="M921.34,119.7c0,0-0.36,4.63-3.52,9.17c-0.39,0.55,4.36,1.27,4.36,1.27L921.34,119.7z"/>
	<g>
		
			<rect x="934.01" y="106.33" transform="matrix(0.9998 0.0224 -0.0224 0.9998 2.6298 -21.0578)" class="st50" width="18.28" height="1.53"/>
		
			<rect x="934.01" y="105.82" transform="matrix(0.9997 0.0224 -0.0224 0.9997 2.6247 -20.878)" class="st50" width="1.38" height="2.17"/>
		
			<rect x="947.83" y="105.91" transform="matrix(0.9998 0.0224 -0.0224 0.9998 2.6358 -21.2401)" class="st50" width="7.07" height="2.73"/>
		
			<rect x="954.29" y="105.25" transform="matrix(0.9998 0.0224 -0.0224 0.9998 2.6399 -21.3587)" class="st50" width="4.69" height="4.28"/>
	</g>
	<g>
		<path class="st51" d="M941.47,106.4c0,0,0.08,0.28,0.05,0.42c0,0-0.07,0.25-0.11,0.43c-0.01,0.06-0.02,0.11-0.02,0.14
			c-0.01,0.14,0.01,0.45-0.11,0.77c-0.12,0.33-0.65,1.44-0.65,1.44l-1.03-0.29l-0.93,0.01c0,0-0.43-2.07-0.35-2.38
			c0.01-0.03,0.02-0.06,0.03-0.09c0.09-0.26,0.27-0.42,0.33-0.55c0.02-0.05,0.29-0.51,0.45-0.54c0.22-0.04,0.39,0.02,0.49,0.13
			c0,0,0.43-0.06,0.68,0.1c0,0,0.4-0.07,0.65,0.21C940.94,106.21,941.35,106.19,941.47,106.4z"/>
	</g>
	<path class="st51" d="M940.62,109.62c0,0-0.36,0.69-1.12,1.58c-0.76,0.89-1.09-0.98-1.09-0.98l0.25-0.89
		C938.67,109.34,939.8,108.85,940.62,109.62z"/>
	<g>
		<path class="st52" d="M943.47,105.71c0,0-0.36,1.35-0.15,1.44c0.21,0.09,0.34-0.01,0.34-0.01l0.1,0.63c0,0,0.3,0.38,0.62-0.06
			c0,0,0.25,0.38,0.51-0.08c0,0,0.27,0.18,0.43-0.01c0.16-0.19,0.36-1.22,0.36-1.22s-0.13-0.25-0.38-0.11c0,0-0.13-0.31-0.47-0.29
			c0,0-0.14-0.22-0.51-0.2c0,0-0.37-0.47-0.81-0.22C943.52,105.58,943.49,105.66,943.47,105.71z"/>
	</g>
	<g>
		<path class="st41" d="M942.65,107.9c0,0,0.65-0.71,1.17-0.95c0.12-0.05,0.24-0.08,0.34,0.01c0.09,0.09,0.08,0.34-0.18,0.66
			c-0.26,0.32-0.46,0.86-0.46,0.86S943.15,108.74,942.65,107.9z"/>
	</g>
	<g>
		<g>
			<path class="st53" d="M930.05,113.37c0,0,0.32,0.92,0.26,1.19c0,0-0.5,0.24-0.89,0.04C929.42,114.6,929.62,113.92,930.05,113.37z
				"/>
		</g>
		<g>
			<path class="st53" d="M929.62,114.49c0,0-0.9,3.09-0.39,6.41c0.53,3.44,0.97,4.67,0.97,4.67l0.81,0.84l0.22-1.15
				c0,0-1.39-4.32-1.17-8.67c0.04-0.79,0.07-2.28,0.07-2.28L929.62,114.49z"/>
		</g>
	</g>
	<g>
		<path class="st49" d="M929.47,116.67c-0.18,0.49-0.35,0.99-0.5,1.49v0c-0.35,1.1-0.64,2.22-0.89,3.3
			c-0.09,0.39-0.17,0.77-0.25,1.15c-0.92,4.51-3.34,7.82-3.34,7.82s-3.62-0.29-4.46-0.89c0,0,0.23-5.2,1.39-10.2
			c0.09-0.39,0.18-0.77,0.29-1.15c0,0,0,0,0,0c1.07-4.03,2.78-7.66,5.53-7.95C927.28,110.31,930.41,114.08,929.47,116.67z"/>
	</g>
	<g>
		<path class="st49" d="M935.63,116.85c1.43-0.26,4.88-6.53,4.88-6.53l-2.15-1.14c0,0-1.03,1.98-2.34,3.28
			c-0.63,0.62-1.44,1.76-1.59,1.78c-0.15,0.02-4.41-1.15-4.8-1.34c-0.39-0.19-1.69-1.04-2.69-1.17c-1-0.12-1.57,0.74-1.57,0.74
			c-0.62,2.35,3.05,3.02,3.05,3.02S933.63,117.22,935.63,116.85z"/>
	</g>
</g>
<g>
	
		<linearGradient id="SVGID_00000178926317551317830760000009247208758595722669_" gradientUnits="userSpaceOnUse" x1="511.8388" y1="260.4409" x2="463.5937" y2="233.8512">
		<stop  offset="0" style="stop-color:#4042E2"/>
		<stop  offset="1" style="stop-color:#4F52FF"/>
	</linearGradient>
	<path style="fill:url(#SVGID_00000178926317551317830760000009247208758595722669_);" d="M503.89,244.54l-7.91,12.17
		c3.68,7.17,7.77,11.12,11.85,13c0.73-4.47,3.34-8.17,5.25-10.37C505.8,255.19,503.89,244.54,503.89,244.54z"/>
	
		<linearGradient id="SVGID_00000106149697019977436490000014685187772910922896_" gradientUnits="userSpaceOnUse" x1="536.9839" y1="254.9513" x2="477.5684" y2="283.7339">
		<stop  offset="0" style="stop-color:#FF928E"/>
		<stop  offset="1" style="stop-color:#FEB3B1"/>
	</linearGradient>
	<path style="fill:url(#SVGID_00000106149697019977436490000014685187772910922896_);" d="M531.06,257.15
		c-8.1,4.79-13.88,4.51-17.97,2.18c-1.91,2.2-4.52,5.91-5.25,10.37c13,5.98,26.01-9.07,26.01-9.07L531.06,257.15z"/>
	
		<linearGradient id="SVGID_00000036945555701773974540000017673107977783272376_" gradientUnits="userSpaceOnUse" x1="537.2673" y1="255.5363" x2="477.8517" y2="284.319">
		<stop  offset="0" style="stop-color:#FF928E"/>
		<stop  offset="1" style="stop-color:#FEB3B1"/>
	</linearGradient>
	<path style="fill:url(#SVGID_00000036945555701773974540000017673107977783272376_);" d="M531.51,259.24c0,0-2.19-3.81,0.96-6.74
		c0,0,1.01-1.16,2.13,0.54c0,0,3.38-3.07,4.31-1.83c0.92,1.24,3.38,4.3,0.98,7.79C537.46,262.53,532.57,260.96,531.51,259.24z"/>
	
		<linearGradient id="SVGID_00000153667257397866899910000008623676116274188201_" gradientUnits="userSpaceOnUse" x1="532.5745" y1="255.216" x2="536.7332" y2="255.216">
		<stop  offset="0" style="stop-color:#FF928E"/>
		<stop  offset="1" style="stop-color:#FEB3B1"/>
	</linearGradient>
	<path style="fill:url(#SVGID_00000153667257397866899910000008623676116274188201_);" d="M534.83,257.62
		c-0.4,0-0.84-0.08-1.23-0.31c-0.4-0.23-0.89-0.71-1.01-1.67c-0.06-0.49,0.29-0.95,0.78-1.01c0.49-0.06,0.95,0.29,1.01,0.78
		c0.02,0.13,0.05,0.29,0.14,0.35c0.04,0.02,0.09,0.04,0.14,0.05l-0.57-1.82c-0.15-0.48,0.11-0.98,0.59-1.13
		c0.48-0.15,0.98,0.11,1.13,0.59l0.89,2.81c0.14,0.45-0.09,0.94-0.53,1.11C536.07,257.41,535.5,257.62,534.83,257.62z"/>
	
		<linearGradient id="SVGID_00000074427644814122014470000012822055430130526613_" gradientUnits="userSpaceOnUse" x1="415.5337" y1="349.0355" x2="424.8354" y2="349.0355">
		<stop  offset="0" style="stop-color:#4042E2"/>
		<stop  offset="1" style="stop-color:#4F52FF"/>
	</linearGradient>
	<path style="fill:url(#SVGID_00000074427644814122014470000012822055430130526613_);" d="M416.47,338.86
		c-0.7,0.42-1.06,1.32-0.9,2.19c0.66,3.44,2.83,12.53,8.1,17.91c0.35,0.36,0.85,0.32,1.16,0c-1.33-1.39-2.99-3.77-4.92-7.8
		C416.94,344.95,416.39,341.13,416.47,338.86z"/>
	
		<linearGradient id="SVGID_00000011007013505002003990000015957940696683267261_" gradientUnits="userSpaceOnUse" x1="416.4625" y1="348.4507" x2="426.3608" y2="348.4507">
		<stop  offset="0" style="stop-color:#2B3582"/>
		<stop  offset="1" style="stop-color:#150E42"/>
	</linearGradient>
	<path style="fill:url(#SVGID_00000011007013505002003990000015957940696683267261_);" d="M423.28,338.73c0,0-3.4-1.85-6.78,0.11
		c-0.01,0-0.02,0.01-0.02,0.02c-0.08,2.27,0.47,6.09,3.44,12.3c1.93,4.04,3.59,6.41,4.92,7.8c0.1-0.1,0.17-0.23,0.22-0.39
		C426.05,355.13,428.14,345.58,423.28,338.73z"/>
	
		<linearGradient id="SVGID_00000091007189675916493890000015302871159691371166_" gradientUnits="userSpaceOnUse" x1="421.4041" y1="338.4419" x2="428.6829" y2="338.4419">
		<stop  offset="0" style="stop-color:#FF928E"/>
		<stop  offset="1" style="stop-color:#FEB3B1"/>
	</linearGradient>
	<path style="fill:url(#SVGID_00000091007189675916493890000015302871159691371166_);" d="M428.18,338.95l-3.08,2.95
		c-0.54,0.52-1.38,0.61-2.01,0.19c-0.55-0.36-1.16-0.96-1.57-1.93c-0.24-0.58-0.13-1.25,0.3-1.72l3.07-3.38
		c0.73-0.81,2.04-0.67,2.59,0.27l0.96,1.63C428.84,337.6,428.73,338.42,428.18,338.95z"/>
	
		<linearGradient id="SVGID_00000015322579892966580560000003058106069876244156_" gradientUnits="userSpaceOnUse" x1="527.7198" y1="315.6381" x2="541.6638" y2="315.6381">
		<stop  offset="0" style="stop-color:#4042E2"/>
		<stop  offset="1" style="stop-color:#4F52FF"/>
	</linearGradient>
	<path style="fill:url(#SVGID_00000015322579892966580560000003058106069876244156_);" d="M527.72,324.12
		c0.72,0.4,1.67,0.27,2.35-0.3c2.66-2.27,9.49-8.65,11.56-15.89c0.14-0.48-0.14-0.9-0.57-1.01c-0.55,1.85-1.8,4.46-4.35,8.14
		C532.78,320.71,529.73,323.08,527.72,324.12z"/>
	
		<linearGradient id="SVGID_00000069364440778586832600000002996262402841563541_" gradientUnits="userSpaceOnUse" x1="524.2443" y1="315.5078" x2="541.0581" y2="315.5078">
		<stop  offset="0" style="stop-color:#2B3582"/>
		<stop  offset="1" style="stop-color:#150E42"/>
	</linearGradient>
	<path style="fill:url(#SVGID_00000069364440778586832600000002996262402841563541_);" d="M524.24,318.27c0,0,0.07,3.87,3.45,5.84
		c0.01,0,0.02,0.01,0.03,0.01c2.01-1.05,5.06-3.42,8.99-9.07c2.55-3.68,3.8-6.29,4.35-8.14c-0.14-0.03-0.29-0.04-0.44,0
		C537.13,307.76,527.79,310.66,524.24,318.27z"/>
	
		<linearGradient id="SVGID_00000124854114830784359280000016497063730966619571_" gradientUnits="userSpaceOnUse" x1="519.787" y1="315.0208" x2="527.7841" y2="315.0208">
		<stop  offset="0" style="stop-color:#FF928E"/>
		<stop  offset="1" style="stop-color:#FEB3B1"/>
	</linearGradient>
	<path style="fill:url(#SVGID_00000124854114830784359280000016497063730966619571_);" d="M524.01,311.87l3.22,2.8
		c0.57,0.5,0.73,1.32,0.37,1.98c-0.31,0.58-0.85,1.24-1.78,1.73c-0.56,0.29-1.24,0.24-1.74-0.14l-3.64-2.76
		c-0.87-0.66-0.85-1.97,0.03-2.61l1.53-1.1C522.61,311.33,523.44,311.37,524.01,311.87z"/>
	
		<linearGradient id="SVGID_00000044871646507008132220000005839554946453588658_" gradientUnits="userSpaceOnUse" x1="459.4055" y1="291.5446" x2="442.7732" y2="337.5146">
		<stop  offset="0" style="stop-color:#09005D"/>
		<stop  offset="1" style="stop-color:#1A0F91"/>
	</linearGradient>
	<path style="fill:url(#SVGID_00000044871646507008132220000005839554946453588658_);" d="M459.44,283.49
		c0,0-6.28,21.39-10.34,30.79c0,0-7.1,1.08-11.49,3.65c-4.39,2.57-13.85,16.79-13.85,16.79s2.47,4.69,5.45,5.41l26.93-18.66
		l21.49-25l-1.02-11.59L459.44,283.49z"/>
	
		<linearGradient id="SVGID_00000086693657946014463290000011088893955196512146_" gradientUnits="userSpaceOnUse" x1="530.4357" y1="275.0186" x2="489.2014" y2="299.5051">
		<stop  offset="0" style="stop-color:#09005D"/>
		<stop  offset="1" style="stop-color:#1A0F91"/>
	</linearGradient>
	<path style="fill:url(#SVGID_00000086693657946014463290000011088893955196512146_);" d="M459.83,281.75l-1.84,5.86
		c0,0,1.68,15.36,21.04,12.77s21.79-5.75,21.79-5.75s-1.68,9.81,19.49,21.6c0,0,3.22-2.43,3.93-5.19l-14.84-24.45
		c-2.06-3.21-3.98-4.05-7.75-3.46c-8.33,1.3-23.93,3-26.29,2.6L459.83,281.75z"/>
	
		<linearGradient id="SVGID_00000071538914113893265210000012095640333218768013_" gradientUnits="userSpaceOnUse" x1="480.6384" y1="246.8754" x2="436.779" y2="316.7762">
		<stop  offset="0" style="stop-color:#4042E2"/>
		<stop  offset="1" style="stop-color:#4F52FF"/>
	</linearGradient>
	<path style="fill:url(#SVGID_00000071538914113893265210000012095640333218768013_);" d="M474.95,238.19
		c-5.64,0.29-14.56,2.97-20.32,8.27c1.77,1.95,4.5,5.13,6.53,8.27c1.81-1.7,4.42-3.12,8.09-4.03c-3.17,11.85-6.92,23.15-11.49,33.64
		c-0.29,0.66,0.04,1.42,0.72,1.65c3.54,1.23,13.96,4.17,22.32-0.56l18.54-26.54c1.99-2.85,3.3-6.13,3.83-9.57l0.73-4.79
		C503.89,244.54,487.24,237.56,474.95,238.19z"/>
	
		<linearGradient id="SVGID_00000127724160960431410810000017321594303306097849_" gradientUnits="userSpaceOnUse" x1="463.2478" y1="274.3803" x2="427.8863" y2="211.8809">
		<stop  offset="0" style="stop-color:#FF928E"/>
		<stop  offset="1" style="stop-color:#FEB3B1"/>
	</linearGradient>
	<path style="fill:url(#SVGID_00000127724160960431410810000017321594303306097849_);" d="M464.84,278.36
		c-0.81-1.78-3.56-3.44-4.88-4.16c-1.15-2.36-5.72-12.98,1.19-19.47c-2.03-3.14-4.76-6.32-6.53-8.27
		c-6.65,6.12-9.08,15.73,2.58,29.19c-0.64,3.32,1.44,7.18,2.56,7.72C460.28,283.62,465.91,280.72,464.84,278.36z"/>
	
		<linearGradient id="SVGID_00000085946835022322378590000008001572985056806829_" gradientUnits="userSpaceOnUse" x1="489.7828" y1="233.9624" x2="485.3937" y2="249.9018">
		<stop  offset="0" style="stop-color:#FF928E"/>
		<stop  offset="1" style="stop-color:#FEB3B1"/>
	</linearGradient>
	<path style="fill:url(#SVGID_00000085946835022322378590000008001572985056806829_);" d="M487.47,231.14l-4.84,9.48
		c-0.3,0.58-0.21,1.28,0.23,1.76c1.17,1.31,3.94,3.43,8.76,1.91c0.53-0.17,0.91-0.63,0.99-1.19l1.26-8.61L487.47,231.14z"/>
	<g>
		
			<linearGradient id="SVGID_00000163052005737370559240000017490389970482083712_" gradientUnits="userSpaceOnUse" x1="496.1412" y1="225.8757" x2="479.9028" y2="238.3006">
			<stop  offset="0" style="stop-color:#FF928E"/>
			<stop  offset="1" style="stop-color:#FEB3B1"/>
		</linearGradient>
		<path style="fill:url(#SVGID_00000163052005737370559240000017490389970482083712_);" d="M495.55,220.13c0,0,2.84,6.53,3.03,9.95
			c0.19,3.42,0.93,5.65-3.03,6.34c-3.96,0.69-7.3-1.28-9.1-4.69c0,0-2.83-5.26-2.2-7.41C484.88,222.16,495.55,220.13,495.55,220.13z
			"/>
		
			<linearGradient id="SVGID_00000086667085836244076700000002449536404929637791_" gradientUnits="userSpaceOnUse" x1="484.7101" y1="216.0379" x2="499.8336" y2="235.5094">
			<stop  offset="0" style="stop-color:#09005D"/>
			<stop  offset="1" style="stop-color:#1A0F91"/>
		</linearGradient>
		<path style="fill:url(#SVGID_00000086667085836244076700000002449536404929637791_);" d="M487.8,229.27l0.23-0.1
			c0.29-0.13,0.41-0.47,0.27-0.75c-0.56-1.08-1.65-3.55-0.24-4.13c1.81-0.74,8.99-2.21,10.54-4.75c1.49-2.45,0.17-5.61-1.81-6.51
			c-0.13-0.06-0.29-0.01-0.36,0.12l-0.17,0.31c-0.11,0.21-0.43,0.18-0.5-0.05l0,0c-0.06-0.22-0.36-0.27-0.48-0.07
			c-0.48,0.76-1.76,2-5.2,2.63c-4.89,0.9-8.12,2.88-8.2,6.25c-0.01,0.21-0.23,0.33-0.42,0.22c-0.36-0.22-0.94-0.32-1.71,0.33
			c-1.34,1.13-0.79,4.05,2.15,6.46c0.14,0.11,0.14,0.33-0.01,0.43c-0.53,0.35-1.33,1.17,0.73,2.27c2.13,1.14,3.72,1.05,4.33,0.94
			c0.15-0.03,0.25-0.17,0.22-0.32l-0.65-2.97c-0.04-0.17,0.09-0.33,0.26-0.33H487.8z"/>
		
			<linearGradient id="SVGID_00000155845904423944583720000003018949400937540026_" gradientUnits="userSpaceOnUse" x1="494.1271" y1="223.2432" x2="477.8885" y2="235.6682">
			<stop  offset="0" style="stop-color:#FF928E"/>
			<stop  offset="1" style="stop-color:#FEB3B1"/>
		</linearGradient>
		<path style="fill:url(#SVGID_00000155845904423944583720000003018949400937540026_);" d="M487.92,229.9c0,0-1.08-4.17-2.95-3
			c-1.87,1.17,0.97,4.67,2.47,4.83L487.92,229.9z"/>
	</g>
</g>
<g>
	<path class="st72" d="M671.57,49.21l5.69,11.53c0.52,1.05,1.52,1.78,2.69,1.95l12.72,1.85c2.93,0.43,4.1,4.02,1.98,6.09l-9.21,8.97
		c-0.84,0.82-1.23,2-1.03,3.16l2.17,12.67c0.5,2.92-2.56,5.14-5.18,3.76l-11.38-5.98c-1.04-0.55-2.28-0.55-3.32,0l-11.38,5.98
		c-2.62,1.38-5.68-0.85-5.18-3.76l2.17-12.67c0.2-1.16-0.19-2.34-1.03-3.16l-9.21-8.97c-2.12-2.06-0.95-5.66,1.98-6.09l12.72-1.85
		c1.16-0.17,2.17-0.9,2.69-1.95l5.69-11.53C666.48,46.56,670.27,46.56,671.57,49.21z"/>
	<path class="st73" d="M683.08,97.46c-0.22,0-0.44-0.06-0.66-0.17l-11.38-5.98c-0.82-0.43-1.74-0.66-2.66-0.66s-1.85,0.23-2.66,0.66
		l-11.38,5.98c-0.21,0.11-0.44,0.17-0.66,0.17c-0.41,0-0.82-0.2-1.09-0.52c-0.19-0.22-0.39-0.6-0.3-1.14l2.17-12.67
		c0.32-1.86-0.3-3.75-1.65-5.07l-9.21-8.97c-0.57-0.55-0.44-1.2-0.36-1.45c0.08-0.25,0.36-0.85,1.14-0.96l12.72-1.85
		c1.86-0.27,3.48-1.44,4.31-3.13l5.69-11.53c0.35-0.71,1-0.79,1.27-0.79s0.92,0.08,1.27,0.79l5.69,11.53
		c0.83,1.69,2.45,2.86,4.31,3.13l12.72,1.85c0.78,0.11,1.06,0.71,1.14,0.96c0.08,0.25,0.21,0.9-0.36,1.45l-9.21,8.97
		c-1.35,1.32-1.97,3.21-1.65,5.07l2.17,12.67c0.09,0.54-0.11,0.92-0.3,1.14C683.89,97.27,683.48,97.46,683.08,97.46z"/>
	<path class="st72" d="M656.31,80.05c-0.14,0-0.26-0.09-0.31-0.22c-0.38-1.16-1.04-2.22-1.91-3.08l-3.5-3.41
		c-0.13-0.12-0.13-0.33-0.01-0.46c0.12-0.13,0.33-0.13,0.46-0.01l3.5,3.41c0.95,0.92,1.67,2.08,2.08,3.34
		c0.06,0.17-0.04,0.35-0.21,0.41C656.37,80.04,656.34,80.05,656.31,80.05z"/>
	<path class="st72" d="M663.18,90.52c-0.12,0-0.23-0.06-0.29-0.17c-0.08-0.16-0.02-0.35,0.14-0.44l1.52-0.8
		c1.17-0.62,2.49-0.94,3.82-0.94c1.32,0,2.65,0.33,3.82,0.94c0.16,0.08,0.22,0.28,0.14,0.44c-0.08,0.16-0.28,0.22-0.44,0.14
		c-1.08-0.57-2.3-0.87-3.52-0.87c-1.22,0-2.44,0.3-3.52,0.87l-1.52,0.8C663.29,90.51,663.23,90.52,663.18,90.52z"/>
	<path class="st72" d="M679.02,93.09c-0.25,0-0.51-0.04-0.76-0.11c-0.17-0.05-0.27-0.23-0.21-0.4c0.05-0.17,0.23-0.27,0.4-0.21
		c0.66,0.2,1.36,0.04,1.89-0.42c0.53-0.46,0.76-1.13,0.64-1.83l-1.13-6.57c-0.46-2.66,0.43-5.38,2.36-7.26l4.77-4.65
		c0.55-0.54,0.74-1.3,0.5-2.04c-0.24-0.74-0.84-1.24-1.61-1.35l-6.59-0.96c-2.67-0.39-4.98-2.07-6.18-4.49l-2.95-5.97
		c-0.34-0.69-1.01-1.11-1.78-1.11s-1.44,0.41-1.78,1.11l-2.95,5.97c-1.2,2.42-3.5,4.1-6.18,4.49l-6.59,0.96
		c-0.39,0.06-0.75,0.22-1.04,0.48c-0.13,0.12-0.34,0.11-0.46-0.03c-0.12-0.13-0.11-0.34,0.03-0.46c0.38-0.34,0.86-0.56,1.37-0.63
		l6.59-0.96c2.46-0.36,4.59-1.9,5.69-4.13l2.95-5.97c0.45-0.91,1.35-1.47,2.37-1.47c1.01,0,1.92,0.56,2.36,1.47l2.95,5.97
		c1.1,2.23,3.23,3.78,5.69,4.13l6.59,0.96c1,0.15,1.82,0.83,2.13,1.79c0.31,0.96,0.06,2-0.67,2.7l-4.77,4.65
		c-1.78,1.74-2.59,4.24-2.17,6.69l1.13,6.57c0.16,0.91-0.16,1.81-0.85,2.42C680.27,92.86,679.65,93.09,679.02,93.09z"/>
</g>
<g>
	<path class="st72" d="M1063.29,99.47l5.27,10.67c0.48,0.98,1.41,1.65,2.49,1.81l11.78,1.71c2.71,0.39,3.79,3.72,1.83,5.64
		l-8.52,8.31c-0.78,0.76-1.13,1.85-0.95,2.92l2.01,11.73c0.46,2.7-2.37,4.76-4.79,3.48l-10.53-5.54c-0.96-0.51-2.11-0.51-3.08,0
		l-10.53,5.54c-2.42,1.27-5.26-0.78-4.79-3.48l2.01-11.73c0.18-1.07-0.17-2.17-0.95-2.92l-8.52-8.31c-1.96-1.91-0.88-5.24,1.83-5.64
		l11.78-1.71c1.08-0.16,2.01-0.83,2.49-1.81l5.27-10.67C1058.57,97.01,1062.07,97.01,1063.29,99.47z"/>
	<path class="st73" d="M1073.93,144.13c-0.21,0-0.41-0.05-0.61-0.16l-10.53-5.54c-0.76-0.4-1.61-0.61-2.47-0.61
		s-1.71,0.21-2.47,0.61l-10.53,5.54c-0.2,0.1-0.4,0.16-0.61,0.16c-0.38,0-0.76-0.18-1.01-0.48c-0.17-0.21-0.36-0.56-0.28-1.05
		l2.01-11.73c0.29-1.72-0.27-3.47-1.52-4.69l-8.52-8.31c-0.53-0.51-0.41-1.11-0.33-1.34c0.08-0.23,0.33-0.78,1.06-0.89l11.78-1.71
		c1.73-0.25,3.22-1.33,3.99-2.9l5.27-10.67c0.32-0.66,0.93-0.73,1.17-0.73s0.85,0.07,1.17,0.73l5.27,10.67
		c0.77,1.56,2.26,2.65,3.99,2.9l11.78,1.71c0.73,0.11,0.98,0.66,1.06,0.89c0.08,0.23,0.19,0.83-0.33,1.34l-8.52,8.31
		c-1.25,1.22-1.82,2.97-1.52,4.69l2.01,11.73c0.09,0.5-0.1,0.85-0.28,1.05C1074.69,143.95,1074.31,144.13,1073.93,144.13z"/>
	<path class="st72" d="M1049.15,128.02c-0.13,0-0.24-0.08-0.28-0.21c-0.35-1.07-0.96-2.06-1.77-2.85l-3.24-3.16
		c-0.12-0.12-0.12-0.3-0.01-0.42s0.3-0.12,0.42-0.01l3.24,3.16c0.88,0.86,1.54,1.93,1.92,3.09c0.05,0.16-0.03,0.33-0.19,0.38
		C1049.21,128.01,1049.18,128.02,1049.15,128.02z"/>
	<path class="st72" d="M1055.52,137.71c-0.11,0-0.21-0.06-0.27-0.16c-0.08-0.15-0.02-0.33,0.13-0.4l1.41-0.74
		c1.09-0.57,2.31-0.87,3.53-0.87s2.45,0.3,3.53,0.87c0.15,0.08,0.2,0.26,0.13,0.4c-0.08,0.15-0.26,0.2-0.4,0.13
		c-1-0.53-2.13-0.8-3.26-0.8s-2.26,0.28-3.26,0.8l-1.41,0.74C1055.61,137.7,1055.56,137.71,1055.52,137.71z"/>
	<path class="st72" d="M1070.18,140.09c-0.23,0-0.47-0.03-0.7-0.11c-0.16-0.05-0.25-0.22-0.2-0.37c0.05-0.16,0.22-0.25,0.37-0.2
		c0.61,0.19,1.26,0.04,1.75-0.39c0.49-0.43,0.7-1.05,0.59-1.69l-1.04-6.08c-0.42-2.46,0.39-4.98,2.18-6.72l4.42-4.31
		c0.51-0.5,0.69-1.21,0.47-1.89c-0.22-0.68-0.78-1.15-1.49-1.25l-6.1-0.89c-2.47-0.36-4.61-1.91-5.72-4.16l-2.73-5.53
		c-0.32-0.64-0.94-1.03-1.65-1.03s-1.33,0.38-1.65,1.03l-2.73,5.53c-1.11,2.24-3.24,3.8-5.72,4.16l-6.1,0.89
		c-0.36,0.05-0.7,0.21-0.96,0.44c-0.12,0.11-0.31,0.1-0.42-0.02c-0.11-0.12-0.1-0.31,0.02-0.42c0.35-0.31,0.79-0.52,1.27-0.59
		l6.1-0.89c2.28-0.33,4.25-1.76,5.27-3.83l2.73-5.53c0.41-0.84,1.25-1.36,2.19-1.36c0.94,0,1.78,0.52,2.19,1.36l2.73,5.53
		c1.02,2.07,2.99,3.5,5.27,3.83l6.1,0.89c0.93,0.13,1.68,0.77,1.97,1.66c0.29,0.89,0.05,1.85-0.62,2.5l-4.42,4.31
		c-1.65,1.61-2.4,3.92-2.01,6.19l1.04,6.08c0.14,0.84-0.15,1.68-0.79,2.24C1071.33,139.88,1070.76,140.09,1070.18,140.09z"/>
</g>
<g>
	<path class="st72" d="M534.29,95.75l8.46,17.15c0.77,1.57,2.27,2.65,4,2.9l18.93,2.75c4.36,0.63,6.09,5.99,2.94,9.06l-13.7,13.35
		c-1.25,1.22-1.82,2.98-1.53,4.7l3.23,18.85c0.74,4.34-3.81,7.65-7.7,5.6l-16.93-8.9c-1.55-0.81-3.4-0.81-4.94,0l-16.93,8.9
		c-3.9,2.05-8.45-1.26-7.7-5.6l3.23-18.85c0.3-1.72-0.28-3.48-1.53-4.7l-13.7-13.35c-3.15-3.07-1.41-8.42,2.94-9.06l18.93-2.75
		c1.73-0.25,3.22-1.34,4-2.9l8.46-17.15C526.72,91.81,532.34,91.81,534.29,95.75z"/>
	<path class="st73" d="M551.4,167.53c-0.33,0-0.66-0.09-0.98-0.25l-16.93-8.9c-1.22-0.64-2.59-0.98-3.96-0.98
		c-1.38,0-2.75,0.34-3.96,0.98l-16.93,8.9c-0.32,0.17-0.65,0.25-0.98,0.25c-0.61,0-1.22-0.29-1.63-0.78
		c-0.28-0.33-0.58-0.89-0.44-1.69l3.23-18.85c0.47-2.76-0.44-5.58-2.45-7.54l-13.7-13.35c-0.84-0.82-0.65-1.78-0.53-2.15
		c0.12-0.37,0.53-1.26,1.7-1.43l18.93-2.75c2.77-0.4,5.17-2.14,6.41-4.66l8.46-17.15c0.52-1.06,1.49-1.17,1.89-1.17
		s1.36,0.11,1.89,1.17l8.46,17.15c1.24,2.51,3.64,4.26,6.41,4.66l18.93,2.75c1.17,0.17,1.58,1.06,1.7,1.43
		c0.12,0.37,0.31,1.33-0.53,2.15l-13.7,13.35c-2.01,1.96-2.92,4.78-2.45,7.54l3.23,18.85c0.14,0.8-0.17,1.36-0.44,1.69
		C552.62,167.24,552.01,167.53,551.4,167.53z"/>
	<path class="st72" d="M511.58,141.63c-0.2,0-0.39-0.13-0.46-0.33c-0.56-1.73-1.55-3.31-2.85-4.58l-5.21-5.08
		c-0.19-0.19-0.19-0.49-0.01-0.68c0.19-0.19,0.49-0.19,0.68-0.01l5.21,5.08c1.41,1.38,2.48,3.09,3.09,4.97
		c0.08,0.25-0.06,0.52-0.31,0.61C511.68,141.62,511.63,141.63,511.58,141.63z"/>
	<path class="st72" d="M521.81,157.21c-0.17,0-0.34-0.09-0.43-0.26c-0.12-0.24-0.03-0.53,0.2-0.65l2.27-1.19
		c1.74-0.92,3.71-1.4,5.68-1.4c1.97,0,3.94,0.48,5.68,1.4c0.24,0.12,0.33,0.41,0.2,0.65c-0.12,0.24-0.41,0.33-0.65,0.2
		c-1.61-0.85-3.42-1.29-5.23-1.29c-1.82,0-3.62,0.45-5.23,1.29l-2.27,1.19C521.96,157.19,521.88,157.21,521.81,157.21z"/>
	<path class="st72" d="M545.37,161.04c-0.38,0-0.76-0.06-1.13-0.17c-0.25-0.08-0.4-0.35-0.32-0.6c0.08-0.25,0.35-0.4,0.6-0.32
		c0.97,0.3,2.02,0.06,2.81-0.63c0.78-0.69,1.13-1.68,0.95-2.72l-1.68-9.77c-0.68-3.96,0.63-8,3.51-10.8l7.1-6.92
		c0.83-0.8,1.11-1.94,0.75-3.04c-0.36-1.1-1.25-1.85-2.39-2.02l-9.81-1.43c-3.98-0.58-7.41-3.07-9.19-6.68l-4.39-8.89
		c-0.51-1.03-1.5-1.65-2.66-1.65s-2.15,0.62-2.66,1.65l-4.39,8.89c-1.78,3.6-5.21,6.1-9.19,6.68l-9.81,1.43
		c-0.59,0.09-1.12,0.33-1.54,0.71c-0.2,0.18-0.5,0.16-0.68-0.04c-0.18-0.2-0.16-0.5,0.04-0.68c0.57-0.5,1.27-0.83,2.05-0.94
		l9.81-1.43c3.66-0.53,6.83-2.83,8.47-6.15l4.39-8.89c0.67-1.35,2.01-2.19,3.52-2.19c1.5,0,2.85,0.84,3.52,2.19l4.39,8.89
		c1.64,3.32,4.8,5.62,8.47,6.15l9.81,1.43c1.49,0.22,2.7,1.24,3.17,2.67c0.46,1.43,0.08,2.97-0.99,4.02l-7.1,6.92
		c-2.65,2.58-3.86,6.3-3.23,9.95l1.68,9.77c0.23,1.35-0.24,2.7-1.27,3.6C547.22,160.69,546.3,161.04,545.37,161.04z"/>
</g>
<g>
	<path class="st72" d="M1373.74,133.21l4.56,9.79c0.42,0.89,1.25,1.53,2.22,1.69l10.65,1.79c2.45,0.41,3.36,3.46,1.55,5.15
		l-7.9,7.36c-0.72,0.67-1.07,1.66-0.92,2.63l1.59,10.68c0.37,2.46-2.25,4.27-4.42,3.06l-9.44-5.24c-0.86-0.48-1.91-0.5-2.79-0.06
		l-9.67,4.81c-2.22,1.11-4.75-0.82-4.28-3.26l2.06-10.6c0.19-0.97-0.11-1.97-0.8-2.67l-7.56-7.71c-1.74-1.77-0.69-4.77,1.78-5.08
		l10.72-1.31c0.98-0.12,1.84-0.71,2.29-1.59l4.99-9.57C1369.52,130.88,1372.69,130.95,1373.74,133.21z"/>
	<path class="st73" d="M1382.5,173.94c-0.19,0-0.37-0.06-0.55-0.16l-9.44-5.24c-0.68-0.38-1.45-0.59-2.23-0.6s-1.55,0.16-2.25,0.5
		l-9.67,4.81c-0.18,0.09-0.37,0.13-0.56,0.13c-0.34-0.01-0.68-0.18-0.91-0.46c-0.15-0.19-0.32-0.51-0.23-0.96l2.06-10.6
		c0.3-1.55-0.18-3.16-1.29-4.29l-7.56-7.71c-0.47-0.48-0.35-1.01-0.27-1.22c0.07-0.21,0.32-0.71,0.98-0.79l10.72-1.31
		c1.57-0.19,2.95-1.15,3.68-2.55l4.99-9.57c0.31-0.59,0.86-0.64,1.08-0.64c0.22,0,0.77,0.08,1.05,0.69l4.56,9.79
		c0.67,1.44,2,2.45,3.56,2.71l10.65,1.79c0.66,0.11,0.88,0.62,0.94,0.83c0.06,0.21,0.16,0.76-0.33,1.21l-7.9,7.36
		c-1.16,1.08-1.71,2.66-1.48,4.22l1.59,10.68c0.07,0.45-0.11,0.77-0.27,0.95C1383.19,173.79,1382.84,173.95,1382.5,173.94z"/>
	<path class="st72" d="M1360.34,158.81c-0.11,0-0.22-0.08-0.25-0.19c-0.29-0.98-0.83-1.89-1.55-2.62l-2.88-2.93
		c-0.1-0.11-0.1-0.28,0-0.38c0.11-0.11,0.28-0.1,0.38,0l2.88,2.93c0.78,0.79,1.36,1.78,1.68,2.84c0.04,0.14-0.04,0.3-0.18,0.34
		C1360.4,158.81,1360.37,158.81,1360.34,158.81z"/>
	<path class="st72" d="M1365.92,167.74c-0.1,0-0.19-0.06-0.24-0.15c-0.07-0.13-0.01-0.3,0.12-0.36l1.29-0.64
		c1-0.5,2.11-0.74,3.22-0.72c1.11,0.02,2.22,0.32,3.19,0.86c0.13,0.07,0.18,0.24,0.11,0.37c-0.07,0.13-0.24,0.18-0.37,0.11
		c-0.9-0.5-1.91-0.77-2.94-0.8s-2.05,0.21-2.97,0.66l-1.29,0.64C1366.01,167.73,1365.96,167.74,1365.92,167.74z"/>
	<path class="st72" d="M1379.17,170.2c-0.21,0-0.43-0.04-0.64-0.11c-0.14-0.05-0.22-0.2-0.17-0.34c0.05-0.14,0.2-0.22,0.34-0.17
		c0.55,0.18,1.14,0.06,1.59-0.32c0.45-0.38,0.66-0.93,0.57-1.52l-0.82-5.54c-0.33-2.24,0.46-4.51,2.12-6.05l4.09-3.82
		c0.48-0.44,0.65-1.08,0.46-1.7c-0.19-0.62-0.68-1.06-1.32-1.17l-5.52-0.93c-2.24-0.38-4.15-1.83-5.1-3.89l-2.36-5.07
		c-0.27-0.59-0.83-0.95-1.48-0.97c-0.65-0.01-1.22,0.32-1.52,0.9l-2.59,4.96c-1.05,2.01-3.02,3.38-5.27,3.65l-5.55,0.68
		c-0.33,0.04-0.64,0.17-0.88,0.38c-0.11,0.1-0.29,0.08-0.38-0.03c-0.1-0.11-0.08-0.29,0.03-0.38c0.33-0.28,0.73-0.45,1.17-0.51
		l5.55-0.68c2.07-0.25,3.89-1.51,4.86-3.37l2.59-4.96c0.39-0.75,1.16-1.21,2.01-1.19c0.85,0.02,1.6,0.51,1.96,1.28l2.36,5.07
		c0.88,1.89,2.64,3.23,4.7,3.58l5.52,0.93c0.84,0.14,1.51,0.73,1.75,1.55c0.24,0.81,0.01,1.68-0.61,2.26l-4.09,3.82
		c-1.53,1.42-2.26,3.51-1.95,5.58l0.82,5.54c0.11,0.77-0.17,1.52-0.76,2.02C1380.22,170.03,1379.7,170.21,1379.17,170.2z"/>
</g>
<g>
	<g>
		<path class="st74" d="M948.28,216.13c-0.07,0-0.13-0.03-0.18-0.08c-0.08-0.1-0.07-0.25,0.03-0.33c0.24-0.2,0.49-0.4,0.74-0.59
			c0.1-0.08,0.25-0.06,0.33,0.04c0.08,0.1,0.06,0.25-0.04,0.33c-0.24,0.19-0.49,0.38-0.72,0.58
			C948.38,216.11,948.33,216.13,948.28,216.13z"/>
		<path class="st74" d="M990.91,237.45c0,0-0.01,0-0.01,0c-0.13-0.01-0.23-0.12-0.22-0.24c0.02-0.41,0.03-0.82,0.03-1.23
			c0-0.21,0-0.42-0.01-0.63c0-0.13,0.1-0.24,0.23-0.24c0.14-0.01,0.24,0.1,0.24,0.23c0.01,0.21,0.01,0.43,0.01,0.64
			c0,0.42-0.01,0.84-0.03,1.26C991.13,237.36,991.03,237.45,990.91,237.45z M990.67,232.53c-0.11,0-0.21-0.08-0.23-0.2
			c-0.09-0.61-0.2-1.23-0.33-1.83c-0.03-0.13,0.05-0.25,0.18-0.28c0.13-0.03,0.25,0.05,0.28,0.18c0.13,0.62,0.25,1.24,0.34,1.87
			c0.02,0.13-0.07,0.25-0.2,0.26C990.69,232.53,990.68,232.53,990.67,232.53z M989.51,227.74c-0.1,0-0.19-0.06-0.22-0.16l-0.04-0.13
			c-0.19-0.54-0.4-1.09-0.62-1.61c-0.05-0.12,0-0.26,0.12-0.31c0.12-0.05,0.26,0,0.31,0.12c0.23,0.54,0.44,1.09,0.64,1.64l0.04,0.13
			c0.04,0.12-0.02,0.25-0.14,0.3C989.56,227.73,989.54,227.74,989.51,227.74z M987.48,223.25c-0.08,0-0.16-0.04-0.2-0.12
			c-0.31-0.54-0.64-1.07-0.98-1.58c-0.07-0.11-0.04-0.25,0.06-0.32c0.11-0.07,0.25-0.04,0.32,0.06c0.35,0.52,0.69,1.07,1,1.61
			c0.06,0.11,0.03,0.25-0.09,0.32C987.56,223.24,987.52,223.25,987.48,223.25z M984.64,219.22c-0.07,0-0.13-0.03-0.18-0.08
			c-0.4-0.47-0.83-0.93-1.26-1.37c-0.09-0.09-0.09-0.24,0-0.33c0.09-0.09,0.24-0.09,0.33,0c0.45,0.45,0.88,0.92,1.29,1.39
			c0.08,0.1,0.07,0.24-0.02,0.33C984.75,219.2,984.69,219.22,984.64,219.22z M981.09,215.81c-0.05,0-0.1-0.02-0.14-0.05
			c-0.48-0.38-0.99-0.76-1.5-1.1c-0.11-0.07-0.13-0.22-0.06-0.32c0.07-0.11,0.22-0.13,0.32-0.06c0.52,0.35,1.03,0.73,1.53,1.12
			c0.1,0.08,0.12,0.23,0.04,0.33C981.22,215.78,981.15,215.81,981.09,215.81z M951.53,213.83c-0.08,0-0.16-0.04-0.2-0.11
			c-0.07-0.11-0.03-0.25,0.08-0.32c0.54-0.32,1.1-0.63,1.66-0.91c0.12-0.06,0.26-0.01,0.31,0.1s0.01,0.26-0.1,0.31
			c-0.55,0.28-1.1,0.58-1.63,0.89C951.62,213.82,951.58,213.83,951.53,213.83z M976.95,213.13c-0.04,0-0.07-0.01-0.11-0.03
			c-0.55-0.29-1.11-0.56-1.68-0.8c-0.12-0.05-0.17-0.19-0.12-0.31c0.05-0.12,0.19-0.17,0.31-0.12c0.58,0.25,1.15,0.53,1.71,0.82
			c0.11,0.06,0.16,0.2,0.1,0.31C977.12,213.08,977.04,213.13,976.95,213.13z M955.99,211.72c-0.1,0-0.18-0.06-0.22-0.15
			c-0.04-0.12,0.02-0.25,0.14-0.3c0.1-0.04,0.2-0.07,0.3-0.11c0.5-0.17,1-0.33,1.51-0.48c0.12-0.04,0.25,0.04,0.29,0.16
			c0.04,0.12-0.04,0.25-0.16,0.29c-0.5,0.14-1,0.3-1.48,0.47c-0.1,0.03-0.19,0.07-0.29,0.1
			C956.04,211.72,956.02,211.72,955.99,211.72z M972.39,211.26c-0.02,0-0.04,0-0.07-0.01c-0.59-0.18-1.2-0.34-1.8-0.47
			c-0.13-0.03-0.2-0.15-0.18-0.28s0.15-0.2,0.28-0.18c0.61,0.14,1.23,0.3,1.83,0.48c0.12,0.04,0.19,0.17,0.16,0.29
			C972.58,211.2,972.49,211.26,972.39,211.26z M960.76,210.48c-0.11,0-0.21-0.08-0.23-0.2c-0.02-0.13,0.07-0.25,0.19-0.27
			c0.62-0.1,1.26-0.18,1.88-0.23c0.13-0.01,0.24,0.08,0.25,0.21c0.01,0.13-0.08,0.24-0.21,0.25c-0.61,0.05-1.24,0.13-1.85,0.23
			C960.79,210.48,960.77,210.48,960.76,210.48z M967.56,210.29c-0.01,0-0.02,0-0.02,0c-0.62-0.06-1.24-0.11-1.86-0.13
			c-0.13,0-0.23-0.11-0.23-0.24c0-0.13,0.11-0.23,0.24-0.23c0.63,0.02,1.27,0.06,1.89,0.13c0.13,0.01,0.22,0.13,0.21,0.26
			C967.78,210.2,967.68,210.29,967.56,210.29z"/>
		<path class="st74" d="M990.41,241.42c-0.02,0-0.03,0-0.05,0c-0.13-0.03-0.21-0.15-0.18-0.28c0.06-0.3,0.12-0.61,0.17-0.91
			c0.02-0.13,0.14-0.21,0.27-0.19c0.13,0.02,0.21,0.14,0.19,0.27c-0.05,0.31-0.11,0.62-0.17,0.92
			C990.61,241.34,990.51,241.42,990.41,241.42z"/>
	</g>
	<g>
		<path class="st74" d="M978.95,258.14c-0.08,0-0.15-0.04-0.2-0.11c-0.07-0.11-0.04-0.25,0.07-0.32c0.25-0.16,0.51-0.33,0.77-0.51
			c0.11-0.07,0.25-0.05,0.32,0.06c0.07,0.11,0.05,0.25-0.06,0.32c-0.26,0.18-0.52,0.36-0.78,0.52
			C979.04,258.13,978.99,258.14,978.95,258.14z"/>
		<path class="st74" d="M965.17,262.26c-0.13,0-0.23-0.1-0.23-0.23c0-0.13,0.1-0.23,0.23-0.24c0.61-0.01,1.23-0.04,1.83-0.09
			c0.13-0.01,0.24,0.08,0.25,0.21c0.01,0.13-0.08,0.24-0.21,0.25C966.42,262.23,965.79,262.25,965.17,262.26
			C965.17,262.26,965.17,262.26,965.17,262.26z M962.17,262.12c-0.01,0-0.02,0-0.02,0c-0.62-0.07-1.24-0.15-1.85-0.26
			c-0.13-0.02-0.21-0.14-0.19-0.27c0.02-0.13,0.14-0.21,0.27-0.19c0.6,0.11,1.21,0.19,1.82,0.26c0.13,0.01,0.22,0.13,0.21,0.26
			C962.38,262.03,962.28,262.12,962.17,262.12z M969.99,261.75c-0.11,0-0.21-0.08-0.23-0.19c-0.03-0.13,0.06-0.25,0.18-0.27
			c0.59-0.12,1.2-0.26,1.78-0.43c0.12-0.03,0.25,0.04,0.29,0.16c0.03,0.12-0.04,0.25-0.16,0.29c-0.6,0.17-1.21,0.31-1.82,0.43
			C970.02,261.75,970.01,261.75,969.99,261.75z M957.41,261.16c-0.02,0-0.04,0-0.07-0.01c-0.59-0.18-1.19-0.38-1.77-0.6
			c-0.12-0.05-0.18-0.18-0.14-0.3c0.05-0.12,0.18-0.18,0.3-0.14c0.57,0.22,1.15,0.41,1.74,0.59c0.12,0.04,0.19,0.17,0.16,0.29
			C957.6,261.1,957.51,261.16,957.41,261.16z M974.64,260.36c-0.09,0-0.18-0.06-0.22-0.15c-0.05-0.12,0.01-0.26,0.13-0.3
			c0.56-0.23,1.13-0.48,1.68-0.75c0.12-0.06,0.26-0.01,0.31,0.11c0.06,0.12,0.01,0.26-0.11,0.31c-0.56,0.27-1.13,0.53-1.71,0.76
			C974.7,260.35,974.67,260.36,974.64,260.36z M952.91,259.35c-0.04,0-0.07-0.01-0.11-0.03c-0.55-0.28-1.1-0.59-1.63-0.92
			c-0.11-0.07-0.14-0.21-0.08-0.32c0.07-0.11,0.21-0.15,0.32-0.08c0.52,0.32,1.06,0.62,1.6,0.9c0.11,0.06,0.16,0.2,0.1,0.31
			C953.08,259.3,953,259.35,952.91,259.35z M948.83,256.73c-0.05,0-0.1-0.02-0.14-0.05c-0.49-0.38-0.97-0.78-1.43-1.2
			c-0.1-0.09-0.1-0.23-0.02-0.33c0.09-0.1,0.23-0.1,0.33-0.02c0.45,0.41,0.92,0.8,1.4,1.18c0.1,0.08,0.12,0.23,0.04,0.33
			C948.97,256.7,948.9,256.73,948.83,256.73z M945.3,253.4c-0.06,0-0.13-0.03-0.18-0.08c-0.41-0.46-0.81-0.95-1.18-1.44
			c-0.08-0.1-0.06-0.25,0.04-0.33c0.1-0.08,0.25-0.06,0.33,0.04c0.37,0.49,0.76,0.96,1.16,1.42c0.09,0.1,0.08,0.24-0.02,0.33
			C945.41,253.38,945.36,253.4,945.3,253.4z M942.46,249.48c-0.08,0-0.16-0.04-0.2-0.11c-0.31-0.53-0.61-1.08-0.89-1.64
			c-0.06-0.12-0.01-0.26,0.1-0.31c0.12-0.06,0.26-0.01,0.31,0.11c0.27,0.55,0.57,1.09,0.88,1.61c0.07,0.11,0.03,0.25-0.08,0.32
			C942.54,249.47,942.5,249.48,942.46,249.48z M940.39,245.09c-0.1,0-0.18-0.06-0.22-0.15c-0.03-0.1-0.07-0.19-0.1-0.29
			c-0.17-0.49-0.33-0.99-0.47-1.49c-0.04-0.12,0.04-0.25,0.16-0.29c0.12-0.04,0.25,0.04,0.29,0.16c0.14,0.49,0.29,0.98,0.46,1.46
			c0.03,0.09,0.07,0.19,0.1,0.28c0.04,0.12-0.02,0.25-0.14,0.3C940.45,245.09,940.42,245.09,940.39,245.09z M939.17,240.4
			c-0.11,0-0.21-0.08-0.23-0.2c-0.1-0.61-0.18-1.23-0.24-1.85c-0.01-0.13,0.08-0.24,0.21-0.25c0.13-0.01,0.24,0.08,0.25,0.21
			c0.06,0.61,0.13,1.22,0.23,1.82c0.02,0.13-0.07,0.25-0.19,0.27C939.19,240.4,939.18,240.4,939.17,240.4z M938.83,235.56
			C938.83,235.56,938.83,235.56,938.83,235.56c-0.13,0-0.24-0.11-0.23-0.24c0.02-0.62,0.05-1.25,0.11-1.86
			c0.01-0.13,0.13-0.22,0.25-0.21c0.13,0.01,0.22,0.13,0.21,0.25c-0.06,0.61-0.1,1.22-0.11,1.83
			C939.06,235.46,938.96,235.56,938.83,235.56z"/>
		<path class="st74" d="M939.41,230.73c-0.02,0-0.03,0-0.05-0.01c-0.13-0.03-0.21-0.15-0.18-0.28c0.07-0.31,0.14-0.62,0.22-0.92
			c0.03-0.13,0.16-0.2,0.28-0.17c0.12,0.03,0.2,0.16,0.17,0.28c-0.08,0.3-0.15,0.6-0.21,0.9
			C939.61,230.65,939.52,230.73,939.41,230.73z"/>
	</g>
	<g>
		<g>
			<path class="st75" d="M946.25,228.66c-0.06,0.12-0.04,0.26,0.05,0.36l2.62,2.76c-0.44,1.72-0.61,3.53-0.48,5.35l-3.06,2.26
				c-0.11,0.08-0.15,0.22-0.11,0.35l1.37,4.35c0.04,0.13,0.16,0.22,0.29,0.22l3.8,0.1c0.93,1.57,2.1,2.96,3.45,4.12l-0.56,3.76
				c-0.02,0.13,0.05,0.26,0.16,0.32l4.05,2.11c0.12,0.06,0.26,0.04,0.36-0.05l2.76-2.62c1.72,0.44,3.53,0.61,5.35,0.48l2.26,3.06
				c0.08,0.11,0.22,0.15,0.35,0.11l4.35-1.37c0.13-0.04,0.22-0.16,0.22-0.29l0.1-3.8c1.57-0.93,2.96-2.1,4.12-3.45l3.76,0.56
				c0.13,0.02,0.26-0.05,0.32-0.16l2.11-4.05c0.06-0.12,0.04-0.26-0.05-0.36l-2.62-2.76c0.44-1.72,0.61-3.53,0.48-5.35l3.06-2.26
				c0.11-0.08,0.15-0.22,0.11-0.35l-1.37-4.35c-0.04-0.13-0.16-0.22-0.29-0.22l-3.8-0.1c-0.93-1.57-2.1-2.96-3.45-4.12l0.56-3.76
				c0.02-0.13-0.05-0.26-0.16-0.32l-4.05-2.11c-0.12-0.06-0.26-0.04-0.36,0.05l-2.76,2.62c-1.72-0.44-3.53-0.61-5.35-0.48
				l-2.26-3.06c-0.08-0.11-0.22-0.15-0.35-0.11l-4.35,1.37c-0.13,0.04-0.22,0.16-0.22,0.29l-0.1,3.8c-1.57,0.93-2.96,2.1-4.12,3.45
				l-3.76-0.56c-0.13-0.02-0.26,0.05-0.32,0.16L946.25,228.66z"/>
		</g>
		<g>
			<path class="st76" d="M965.08,240.31c-1.48,0-2.93-0.74-3.76-2.09c-0.62-1-0.81-2.18-0.53-3.33c0.27-1.14,0.97-2.11,1.98-2.73
				c1-0.62,2.18-0.81,3.33-0.53c1.14,0.27,2.11,0.97,2.73,1.98c1.27,2.07,0.63,4.78-1.44,6.06
				C966.67,240.1,965.87,240.31,965.08,240.31z M965.07,232.21c-0.68,0-1.34,0.19-1.93,0.55c-0.84,0.52-1.43,1.33-1.66,2.3
				c-0.23,0.96-0.07,1.96,0.45,2.8c1.07,1.74,3.36,2.28,5.09,1.21c1.74-1.07,2.28-3.36,1.21-5.09c-0.52-0.84-1.33-1.43-2.3-1.66
				C965.65,232.24,965.36,232.21,965.07,232.21z"/>
		</g>
		<path class="st76" d="M965.15,247.32c-1.81,0-3.6-0.44-5.24-1.29c-2.69-1.4-4.67-3.77-5.58-6.67l0,0
			c-0.23-0.73-0.38-1.47-0.46-2.22c0-0.01,0-0.03,0-0.04c0-0.04-0.01-0.07-0.01-0.11l0.7-0.06c0.07,0.75,0.22,1.5,0.45,2.23
			c0.02,0.06,0.04,0.12,0.06,0.18c1.6,4.79,6.29,7.71,11.15,7.24c0.64-0.06,1.28-0.18,1.92-0.37c0.08-0.02,0.16-0.05,0.24-0.07
			c4.55-1.43,7.47-5.64,7.47-10.18c0-1.06-0.16-2.13-0.49-3.19c-1.76-5.61-7.76-8.74-13.37-6.98c-1.84,0.58-3.49,1.65-4.77,3.08
			l-0.52-0.46c1.36-1.53,3.12-2.67,5.08-3.29c5.98-1.88,12.37,1.46,14.25,7.43c0.35,1.13,0.52,2.27,0.52,3.4
			c0,4.83-3.11,9.32-7.96,10.85C967.45,247.14,966.3,247.32,965.15,247.32z"/>
	</g>
</g>
<g>
	<g>
		<path class="st74" d="M904.35,228.85c-0.21,0-0.41-0.09-0.56-0.26c-0.25-0.31-0.21-0.76,0.1-1.02c0.75-0.62,1.53-1.22,2.33-1.79
			c0.32-0.23,0.78-0.16,1.01,0.17c0.23,0.32,0.16,0.77-0.17,1.01c-0.77,0.55-1.52,1.13-2.25,1.73
			C904.67,228.8,904.51,228.85,904.35,228.85z"/>
		<path class="st74" d="M972.73,257.53c-0.37,0-0.69-0.28-0.72-0.66c-0.16-1.82-0.44-3.65-0.84-5.43c-0.09-0.39,0.16-0.78,0.55-0.86
			c0.39-0.09,0.77,0.16,0.86,0.55c0.42,1.85,0.71,3.74,0.87,5.62c0.03,0.4-0.26,0.75-0.66,0.78
			C972.77,257.53,972.75,257.53,972.73,257.53z M968.94,243.4c-0.27,0-0.53-0.15-0.65-0.42c-0.77-1.66-1.66-3.28-2.65-4.82
			c-0.22-0.34-0.12-0.78,0.22-1c0.34-0.22,0.78-0.12,1,0.22c1.02,1.59,1.94,3.27,2.74,4.99c0.17,0.36,0.01,0.79-0.35,0.96
			C969.15,243.38,969.05,243.4,968.94,243.4z M960.54,231.44c-0.18,0-0.37-0.07-0.51-0.21c-1.29-1.29-2.69-2.5-4.15-3.6
			c-0.32-0.24-0.38-0.69-0.14-1.01c0.24-0.32,0.69-0.38,1.01-0.14c1.51,1.14,2.96,2.4,4.3,3.73c0.28,0.28,0.28,0.74,0,1.02
			C960.91,231.36,960.73,231.44,960.54,231.44z M948.53,223.1c-0.1,0-0.2-0.02-0.3-0.07c-1.66-0.76-3.39-1.43-5.14-1.96
			c-0.38-0.12-0.59-0.52-0.48-0.9c0.12-0.38,0.52-0.6,0.9-0.48c1.81,0.56,3.6,1.24,5.32,2.03c0.36,0.17,0.52,0.6,0.35,0.96
			C949.06,222.95,948.8,223.1,948.53,223.1z M914.55,222.64c-0.28,0-0.55-0.16-0.66-0.44c-0.16-0.37,0.01-0.79,0.38-0.95
			c0.88-0.38,1.79-0.73,2.7-1.05c0.88-0.31,1.77-0.59,2.67-0.84c0.38-0.11,0.78,0.12,0.89,0.5c0.11,0.38-0.12,0.78-0.5,0.89
			c-0.86,0.24-1.73,0.51-2.58,0.81c-0.88,0.31-1.76,0.65-2.61,1.01C914.74,222.62,914.65,222.64,914.55,222.64z M934.39,219.39
			c-0.02,0-0.04,0-0.06,0c-1.83-0.15-3.68-0.17-5.5-0.07c-0.39,0.02-0.74-0.28-0.76-0.68c-0.02-0.4,0.28-0.74,0.68-0.76
			c1.88-0.1,3.8-0.07,5.69,0.08c0.4,0.03,0.69,0.38,0.66,0.78C935.08,219.1,934.76,219.39,934.39,219.39z"/>
		<path class="st74" d="M972.04,269.49c-0.05,0-0.1,0-0.15-0.01c-0.39-0.08-0.64-0.46-0.56-0.85c0.19-0.93,0.35-1.87,0.47-2.8
			c0.05-0.39,0.42-0.67,0.81-0.62c0.4,0.05,0.67,0.42,0.62,0.81c-0.13,0.96-0.29,1.94-0.49,2.89
			C972.67,269.25,972.37,269.49,972.04,269.49z"/>
	</g>
	<g>
		<path class="st74" d="M952.45,297.08c-0.25,0-0.49-0.13-0.62-0.35c-0.2-0.34-0.09-0.79,0.25-0.99c0.81-0.48,1.61-1,2.39-1.53
			c0.33-0.23,0.78-0.15,1,0.18c0.23,0.33,0.15,0.78-0.18,1c-0.8,0.56-1.64,1.09-2.47,1.59C952.7,297.05,952.57,297.08,952.45,297.08
			z"/>
		<path class="st74" d="M930.1,302.97c-0.01,0-0.01,0-0.02,0c-1.86-0.04-3.74-0.21-5.58-0.49c-0.39-0.06-0.66-0.43-0.6-0.82
			c0.06-0.39,0.43-0.66,0.82-0.6c1.78,0.28,3.59,0.44,5.39,0.48c0.4,0.01,0.71,0.34,0.71,0.74
			C930.81,302.66,930.49,302.97,930.1,302.97z M939,302.21c-0.34,0-0.64-0.24-0.71-0.58c-0.08-0.39,0.18-0.77,0.57-0.85
			c1.76-0.34,3.52-0.81,5.23-1.38c0.38-0.13,0.79,0.08,0.91,0.45c0.13,0.38-0.08,0.79-0.46,0.91c-1.77,0.59-3.59,1.07-5.41,1.43
			C939.09,302.21,939.05,302.21,939,302.21z M915.99,300.18c-0.09,0-0.17-0.02-0.26-0.05c-1.73-0.67-3.44-1.46-5.08-2.35
			c-0.35-0.19-0.48-0.63-0.29-0.98c0.19-0.35,0.63-0.48,0.98-0.29c1.58,0.86,3.23,1.62,4.91,2.27c0.37,0.14,0.56,0.56,0.41,0.93
			C916.55,300,916.28,300.18,915.99,300.18z M903.65,292.79c-0.17,0-0.33-0.06-0.47-0.18c-1.41-1.22-2.75-2.54-3.99-3.93
			c-0.27-0.3-0.24-0.75,0.06-1.02c0.3-0.27,0.75-0.24,1.02,0.06c1.19,1.34,2.49,2.62,3.85,3.79c0.3,0.26,0.34,0.72,0.08,1.02
			C904.05,292.7,903.85,292.79,903.65,292.79z M894.55,281.66c-0.25,0-0.5-0.13-0.63-0.37c-0.91-1.62-1.72-3.32-2.41-5.05
			c-0.15-0.37,0.03-0.79,0.4-0.94c0.37-0.15,0.79,0.03,0.94,0.4c0.67,1.67,1.45,3.31,2.33,4.88c0.2,0.35,0.07,0.79-0.28,0.98
			C894.79,281.63,894.67,281.66,894.55,281.66z M889.75,268.1c-0.35,0-0.65-0.25-0.71-0.6c-0.31-1.84-0.51-3.71-0.57-5.57
			c-0.01-0.4,0.3-0.73,0.7-0.75c0.4-0.04,0.73,0.3,0.75,0.7c0.06,1.79,0.25,3.6,0.55,5.38c0.07,0.39-0.2,0.77-0.59,0.83
			C889.83,268.09,889.79,268.1,889.75,268.1z"/>
		<path class="st74" d="M889.83,253.68c-0.04,0-0.09,0-0.13-0.01c-0.39-0.07-0.65-0.45-0.58-0.84c0.17-0.96,0.38-1.92,0.62-2.87
			c0.1-0.39,0.49-0.62,0.88-0.52c0.39,0.1,0.62,0.49,0.52,0.88c-0.23,0.91-0.43,1.85-0.6,2.77
			C890.48,253.43,890.17,253.68,889.83,253.68z"/>
	</g>
	<g>
		<g>
			<path class="st75" d="M901.09,248.65c-0.1,0.19-0.07,0.42,0.08,0.58l4.2,4.44c-0.71,2.77-0.98,5.66-0.76,8.59l-4.91,3.63
				c-0.17,0.13-0.24,0.35-0.18,0.55l2.2,7c0.06,0.2,0.25,0.35,0.47,0.35l6.11,0.17c1.5,2.53,3.38,4.75,5.54,6.61l-0.91,6.05
				c-0.03,0.21,0.07,0.42,0.26,0.52l6.5,3.39c0.19,0.1,0.42,0.07,0.58-0.08l4.44-4.2c2.77,0.71,5.66,0.98,8.59,0.76l3.63,4.91
				c0.13,0.17,0.35,0.24,0.55,0.18l7-2.2c0.2-0.06,0.35-0.25,0.35-0.47l0.17-6.11c2.53-1.5,4.75-3.38,6.61-5.54l6.05,0.91
				c0.21,0.03,0.42-0.07,0.52-0.26l3.39-6.5c0.1-0.19,0.07-0.42-0.08-0.58l-4.2-4.44c0.71-2.77,0.98-5.66,0.76-8.59l4.91-3.63
				c0.17-0.13,0.24-0.35,0.18-0.55l-2.2-7c-0.06-0.2-0.25-0.35-0.47-0.35l-6.11-0.17c-1.5-2.53-3.38-4.75-5.54-6.61l0.91-6.05
				c0.03-0.21-0.07-0.42-0.26-0.52l-6.5-3.39c-0.19-0.1-0.42-0.07-0.58,0.08l-4.44,4.2c-2.77-0.71-5.66-0.98-8.59-0.76l-3.63-4.91
				c-0.13-0.17-0.35-0.24-0.55-0.18l-7,2.2c-0.2,0.06-0.35,0.25-0.35,0.47l-0.17,6.11c-2.53,1.5-4.75,3.38-6.61,5.54l-6.05-0.91
				c-0.21-0.03-0.42,0.07-0.52,0.26L901.09,248.65z"/>
		</g>
		<g>
			<path class="st76" d="M931.35,267.89c-0.59,0-1.18-0.07-1.77-0.21c-1.97-0.47-3.65-1.68-4.71-3.41s-1.39-3.77-0.92-5.74
				c0.47-1.97,1.68-3.65,3.41-4.71c1.73-1.06,3.77-1.39,5.74-0.92c1.97,0.47,3.65,1.68,4.71,3.41c2.2,3.57,1.08,8.25-2.49,10.45
				C934.11,267.51,932.74,267.89,931.35,267.89z M931.33,254.86c-0.99,0-1.97,0.27-2.84,0.81c-1.23,0.76-2.1,1.96-2.44,3.37
				c-0.34,1.41-0.1,2.87,0.66,4.1c0.76,1.23,1.96,2.1,3.37,2.44c1.41,0.34,2.87,0.1,4.1-0.66c2.55-1.57,3.35-4.92,1.78-7.47
				c-0.76-1.23-1.96-2.1-3.37-2.44C932.17,254.91,931.75,254.86,931.33,254.86z"/>
		</g>
		<path class="st76" d="M931.46,279.14c-2.98,0-5.94-0.72-8.67-2.14c-4.45-2.32-7.72-6.23-9.23-11.02v0
			c-0.05-0.16-0.1-0.32-0.14-0.48c-0.26-0.92-0.46-1.86-0.58-2.8c0,0,0-0.01,0-0.01c-0.01-0.06-0.02-0.12-0.02-0.18
			c-0.02-0.15-0.03-0.3-0.05-0.45l2.16-0.2c0.11,1.17,0.34,2.34,0.7,3.47v0c0.17,0.54,0.37,1.07,0.59,1.58c0,0,0,0,0,0
			c0,0,0,0.01,0,0.01c0,0,0,0,0,0c0,0,0,0,0,0c1.37,3.18,3.67,5.83,6.66,7.63c0.3,0.18,0.6,0.35,0.91,0.51
			c3.93,2.05,8.43,2.45,12.66,1.12c4.23-1.33,7.7-4.23,9.75-8.16c1.26-2.41,1.89-5.02,1.89-7.66c0-1.67-0.26-3.36-0.77-5
			c-1.33-4.23-4.23-7.7-8.16-9.75c-3.93-2.05-8.43-2.45-12.67-1.12c-2.87,0.9-5.44,2.56-7.43,4.8l-1.62-1.44
			c2.25-2.53,5.15-4.41,8.4-5.43c4.78-1.51,9.87-1.05,14.32,1.27c4.45,2.32,7.72,6.23,9.23,11.02c0.58,1.86,0.87,3.76,0.87,5.65
			c0,2.98-0.72,5.94-2.14,8.66c-2.32,4.45-6.23,7.72-11.02,9.23C935.25,278.85,933.35,279.14,931.46,279.14z"/>
	</g>
</g>
<g>
	<g>
		<g>
			<path class="st14" d="M992.26,545.68l110.77,0v-22.17l-110.77,0C994.63,523.51,994.63,545.68,992.26,545.68z"/>
			
				<linearGradient id="SVGID_00000114792773629107633480000009064261916851344058_" gradientUnits="userSpaceOnUse" x1="988.8842" y1="534.593" x2="1112.1024" y2="534.593">
				<stop  offset="0" style="stop-color:#09005D"/>
				<stop  offset="1" style="stop-color:#1A0F91"/>
			</linearGradient>
			<path style="fill:url(#SVGID_00000114792773629107633480000009064261916851344058_);" d="M1103.04,540.13v-10.15
				c0-3.58-2.19-6.48-4.89-6.48H992.73c-2.12,0-3.85-1.72-3.85-3.85v0c0-0.65,0.52-1.17,1.17-1.17h115.21
				c2.64,0,6.84,4.15,6.84,9.28v14.17c0,4.83-4.07,8.75-6.56,8.75H990.66c-0.98,0-1.77-0.79-1.77-1.77c0-1.79,1.45-3.24,3.24-3.24
				h106.72C1101.16,545.68,1103.04,543.19,1103.04,540.13z"/>
		</g>
		<path class="st78" d="M1099.96,528.53H996.1c-0.26,0-0.48-0.21-0.48-0.48c0-0.26,0.21-0.48,0.48-0.48h103.87
			c0.26,0,0.48,0.21,0.48,0.48C1100.44,528.32,1100.23,528.53,1099.96,528.53z"/>
		<path class="st78" d="M1099.96,531.82H996.1c-0.26,0-0.48-0.21-0.48-0.48c0-0.26,0.21-0.48,0.48-0.48h103.87
			c0.26,0,0.48,0.21,0.48,0.48C1100.44,531.61,1100.23,531.82,1099.96,531.82z"/>
		<path class="st78" d="M1099.96,535.11H996.1c-0.26,0-0.48-0.21-0.48-0.48c0-0.26,0.21-0.48,0.48-0.48h103.87
			c0.26,0,0.48,0.21,0.48,0.48C1100.44,534.9,1100.23,535.11,1099.96,535.11z"/>
		<path class="st78" d="M1099.96,538.41H996.1c-0.26,0-0.48-0.21-0.48-0.48c0-0.26,0.21-0.48,0.48-0.48h103.87
			c0.26,0,0.48,0.21,0.48,0.48C1100.44,538.19,1100.23,538.41,1099.96,538.41z"/>
		<path class="st78" d="M1099.96,541.7H996.1c-0.26,0-0.48-0.21-0.48-0.48c0-0.26,0.21-0.48,0.48-0.48h103.87
			c0.26,0,0.48,0.21,0.48,0.48C1100.44,541.48,1100.23,541.7,1099.96,541.7z"/>
	</g>
	<g>
		<path class="st78" d="M1008.1,518.39h89.88c2.71,0,4.9-2.19,4.9-4.9v-14.26c0-2.71-2.19-4.9-4.9-4.9h-89.88
			c-2.71,0-4.9,2.19-4.9,4.9v14.26C1003.2,516.2,1005.4,518.39,1008.1,518.39z"/>
		<path class="st14" d="M1081.67,515.63h8.18c0.97,0,1.77-0.79,1.77-1.77v-15c0-0.98-0.79-1.77-1.77-1.77h-8.18
			c-0.97,0-1.77,0.79-1.77,1.77v15C1079.9,514.84,1080.7,515.63,1081.67,515.63z"/>
		<path class="st14" d="M1074.68,515.63h2.6c0.49,0,0.89-0.4,0.89-0.89v-16.74c0-0.49-0.4-0.89-0.89-0.89h-2.6
			c-0.49,0-0.89,0.4-0.89,0.89v16.74C1073.79,515.23,1074.19,515.63,1074.68,515.63z"/>
	</g>
</g>
<g>
	<path class="st6" d="M1369.43,269.96c10.53,38.62,62.77,265.32-138.58,339.83c0,0-72.35-142.69,132.97-341.6
		C1365.62,266.44,1368.75,267.44,1369.43,269.96z"/>
	<path class="st5" d="M1355.06,306.02c-1.65,12.39-3.56,24.72-5.58,37.03c-2.02,12.31-4.19,24.58-6.5,36.82
		c-2.31,12.24-4.77,24.44-7.37,36.61c-2.61,12.16-5.41,24.27-8.36,36.34c-5.95,24.12-12.62,48.04-20.62,71.47
		c-3.96,11.73-8.35,23.3-13.2,34.66c-4.86,11.35-10.19,22.51-16.42,33.15c-0.31,0.53-1.01,0.69-1.57,0.34
		c-0.55-0.34-0.75-1.06-0.44-1.59l0,0l0,0c6.22-10.51,11.56-21.57,16.45-32.83c4.87-11.28,9.3-22.78,13.3-34.46
		c8.07-23.32,14.84-47.17,20.89-71.22c3-12.03,5.85-24.12,8.52-36.25c2.66-12.14,5.16-24.32,7.53-36.53
		c2.36-12.22,4.58-24.47,6.66-36.75c2.07-12.28,4.03-24.6,5.74-36.96l0,0c0.04-0.26,0.28-0.44,0.55-0.38
		C1354.91,305.51,1355.09,305.76,1355.06,306.02z"/>
</g>
<g>
	<path class="st4" d="M1482.07,353.79c-2.99,32.8-28.21,222.48-212.22,220.02c0,0-15.85-131.1,208.23-223.05
		C1480.04,349.95,1482.26,351.65,1482.07,353.79z"/>
	<path class="st5" d="M1459.88,377.27c-5,9.03-10.19,17.94-15.46,26.8c-5.27,8.86-10.65,17.65-16.14,26.37
		c-10.97,17.44-22.35,34.62-34.27,51.41c-11.93,16.77-24.39,33.18-37.76,48.83c-6.66,7.85-13.62,15.44-20.89,22.74
		c-7.27,7.29-14.87,14.29-23.04,20.63c-0.49,0.38-1.21,0.27-1.62-0.24c-0.41-0.51-0.34-1.23,0.14-1.61l0,0l0,0
		c8.11-6.22,15.69-13.12,22.96-20.33c7.26-7.22,14.24-14.73,20.91-22.52c13.41-15.52,25.93-31.82,37.93-48.5
		c11.99-16.69,23.45-33.78,34.5-51.15c5.53-8.68,10.95-17.43,16.27-26.26c5.31-8.82,10.55-17.7,15.58-26.69l0,0
		c0.13-0.23,0.42-0.3,0.66-0.16C1459.92,376.75,1460.01,377.05,1459.88,377.27z"/>
</g>
<g>
	<path class="st4" d="M724.67,562.62c0,0,3.1-16.84-10.66-33.55c-12.76-15.51-44.59-51.33-49.5-71.42c-0.22-0.89-1.63-0.6-1.84,0.38
		c-2.27,10.52-5.85,36.85,7.26,62.7C686.84,554.07,724.67,562.62,724.67,562.62z"/>
	<path class="st5" d="M666.94,476.36c0.03,2.11,0.29,4.21,0.65,6.27c0.16,1.04,0.4,2.06,0.62,3.08c0.22,1.02,0.54,2.03,0.78,3.04
		c1.15,4.02,2.71,7.92,4.58,11.64l0.69,1.4c0.23,0.46,0.51,0.91,0.76,1.37c0.52,0.9,1.01,1.82,1.54,2.72l1.69,2.63
		c0.54,0.89,1.16,1.73,1.77,2.57c0.61,0.84,1.21,1.7,1.84,2.53l1.98,2.42c1.29,1.63,2.72,3.2,4.09,4.79
		c2.79,3.15,5.63,6.27,8.51,9.35c2.88,3.08,5.8,6.12,8.72,9.18c1.46,1.53,2.93,3.05,4.37,4.61c0.72,0.77,1.44,1.55,2.15,2.35
		l1.07,1.18l1.04,1.22c1.39,1.61,2.7,3.31,3.94,5.05c1.21,1.77,2.28,3.65,3.08,5.64c0.07,0.16-0.01,0.35-0.18,0.42
		c-0.15,0.06-0.33-0.01-0.4-0.15l-0.01-0.01c-0.95-1.86-2.13-3.58-3.4-5.23c-1.32-1.62-2.7-3.19-4.17-4.7
		c-2.9-3.04-5.96-5.95-8.97-8.92l-4.52-4.46c-1.49-1.51-2.98-3.02-4.44-4.55c-1.48-1.52-2.93-3.06-4.37-4.62
		c-1.43-1.57-2.86-3.14-4.26-4.73c-5.65-6.3-10.9-13.32-14.32-21.2c-1.75-3.91-3.15-7.99-4.02-12.18c-0.41-2.1-0.76-4.21-0.92-6.34
		c-0.17-2.12-0.21-4.26,0.03-6.38c0-0.02,0.02-0.04,0.04-0.03C666.93,476.32,666.94,476.34,666.94,476.36z"/>
</g>
<g>
	<path class="st6" d="M695.69,430.47c0.42-0.98,1.88-0.75,1.97,0.31c0.86,10.28,3.95,37.18,13.64,53
		c15.77,25.76,22.22,63.9,5.87,79.86C717.16,563.64,650.12,537.47,695.69,430.47z"/>
	<path class="st5" d="M695.31,444.84c-0.01,0.24-0.02,0.54-0.02,0.82l0,0.85l0.01,1.71l0.05,3.41c0.05,2.28,0.13,4.55,0.23,6.83
		c0.19,4.55,0.46,9.1,0.83,13.63c0.75,9.07,1.73,18.13,3.2,27.11c0.75,4.48,1.53,8.97,2.49,13.41c0.96,4.44,2.02,8.87,3.26,13.24
		c2.44,8.75,5.53,17.34,9.57,25.5c0.05,0.1,0.01,0.23-0.09,0.28c-0.1,0.05-0.23,0.01-0.28-0.09c-2.2-4-4.11-8.17-5.83-12.41
		c-1.69-4.25-3.13-8.6-4.46-12.97c-2.55-8.78-4.48-17.74-5.91-26.77c-0.72-4.51-1.3-9.05-1.81-13.58
		c-0.51-4.54-0.91-9.09-1.19-13.65c-0.28-4.56-0.5-9.12-0.59-13.68c-0.04-2.28-0.06-4.56-0.05-6.85c0.01-1.14,0.02-2.28,0.04-3.42
		l0.05-1.71l0.04-0.86c0.02-0.29,0.02-0.56,0.06-0.89c0.01-0.11,0.12-0.2,0.23-0.18c0.11,0.01,0.19,0.11,0.18,0.22L695.31,444.84z"
		/>
</g>
<polygon class="st8" points="789.78,464.8 677.47,556.75 644.17,556.75 736.99,480.69 734.18,477.27 724.04,464.88 749.35,464.85 
	"/>
<polygon class="st9" points="789.78,464.8 787.76,474.75 776.72,529.23 763.78,513.42 711.48,556.75 677.47,556.75 "/>
<g>
	<path class="st6" d="M29.4,191.95C67,214.77,280.4,356.52,183.36,580.67c0,0-164.51-57.15-159.62-385.61
		C23.79,192.19,26.94,190.46,29.4,191.95z"/>
	<path class="st5" d="M45.99,232.93c8.21,11.41,16.18,22.98,24.06,34.62c7.87,11.64,15.6,23.38,23.19,35.2
		c7.59,11.82,15.05,23.73,22.37,35.73c7.31,12,14.43,24.12,21.4,36.32c13.9,24.43,27.09,49.29,38.91,74.83
		c5.95,12.75,11.43,25.72,16.42,38.88c4.97,13.17,9.42,26.57,12.8,40.28c0.17,0.69-0.25,1.38-0.94,1.55
		c-0.69,0.17-1.38-0.25-1.55-0.94l0-0.01l0-0.01c-3.28-13.59-7.65-26.92-12.53-40.05c-4.9-13.12-10.31-26.07-16.19-38.8
		c-11.67-25.51-24.73-50.38-38.5-74.84c-6.91-12.22-13.97-24.35-21.22-36.37c-7.25-12.02-14.65-23.95-22.19-35.8
		c-7.54-11.85-15.21-23.6-23.02-35.27c-7.81-11.66-15.73-23.27-23.88-34.69l0,0c-0.17-0.24-0.12-0.58,0.13-0.76
		C45.47,232.63,45.81,232.69,45.99,232.93z"/>
</g>
<g>
	<path class="st4" d="M232.75,235.85c22.81,29.08,148.63,203.7,5.97,351.2c0,0-112.43-93.64-11.34-350.43
		C228.27,234.38,231.26,233.95,232.75,235.85z"/>
	<path class="st5" d="M233.74,272.96c3.09,11.4,5.93,22.86,8.68,34.34c2.74,11.48,5.35,23,7.83,34.54
		c4.95,23.09,9.39,46.29,13.11,69.61c3.7,23.33,6.73,46.78,8.47,70.36c0.91,11.79,1.39,23.61,1.41,35.45
		c0.01,11.83-0.45,23.69-1.85,35.48c-0.08,0.7-0.72,1.2-1.42,1.12c-0.7-0.08-1.2-0.72-1.12-1.42l0-0.01l0-0.01
		c1.45-11.64,1.96-23.41,2.01-35.17c0.03-11.76-0.38-23.54-1.22-35.29c-1.61-23.51-4.51-46.93-8.08-70.23
		c-3.59-23.31-7.9-46.5-12.73-69.59c-2.41-11.55-4.96-23.06-7.64-34.55c-2.69-11.48-5.47-22.95-8.49-34.34l0,0
		c-0.08-0.29,0.1-0.59,0.39-0.66C233.37,272.5,233.67,272.67,233.74,272.96z"/>
</g>
<line class="st79" x1="1.53" y1="550.43" x2="1440.17" y2="550.43"/>
</svg>
